<?xml version="1.0" encoding="utf-8"?>
<!-- Generator: Adobe Illustrator 22.1.0, SVG Export Plug-In . SVG Version: 6.00 Build 0)  -->
<svg version="1.1" id="Layer_1" xmlns="http://www.w3.org/2000/svg" xmlns:xlink="http://www.w3.org/1999/xlink" x="0px" y="0px"
	 viewBox="0 0 320 50" style="enable-background:new 0 0 320 50;" xml:space="preserve">
<style type="text/css">
	.st0{fill:#231F20;}
</style>
<g>
	<path class="st0" d="M295.1,44.4h-0.8l1.9-4.5h-2.3v-0.6h3.4L295.1,44.4z"/>
	<path class="st0" d="M298.8,44.6l-0.7-0.3c1-0.5,1.7-1.2,2.1-2c-0.2,0.2-0.5,0.3-0.8,0.3c-1,0-1.6-0.7-1.6-1.6c0-1,0.7-1.7,1.7-1.7
		c0.9,0,1.7,0.6,1.7,1.8C301.2,42.4,300.2,43.9,298.8,44.6z M299.4,39.9c-0.5,0-0.9,0.4-0.9,1c0,0.6,0.4,1,1,1c0.4,0,0.8-0.2,1-0.7
		c0-0.1,0-0.2,0-0.2C300.4,40.3,300,39.9,299.4,39.9z"/>
	<path class="st0" d="M304.5,43v1.4h-0.7V43h-2l-0.1-0.6l2.4-3.2h0.5v3.1h0.6V43H304.5z M303.8,40.6c-0.1,0.2-0.3,0.4-0.5,0.6
		l-0.9,1.2h1.4v-1.2C303.8,41,303.8,40.8,303.8,40.6L303.8,40.6z"/>
	<path class="st0" d="M307,44.5c-0.4,0-0.8-0.1-1-0.2l-0.1-0.7c0.3,0.2,0.7,0.3,1,0.3c0.6,0,1.1-0.4,1.1-1c0-0.7-0.5-1-1.1-1
		c-0.4,0-0.6,0-0.9,0.1l0.1-2.6h2.2l-0.1,0.6h-1.4l0,1.2c0.1,0,0.1,0,0.2,0c1,0,1.7,0.6,1.7,1.7C308.8,43.7,308.2,44.5,307,44.5z"/>
	<path class="st0" d="M310.4,44.5c-0.3,0-0.6-0.1-0.8-0.2l-0.1-0.7c0.3,0.1,0.6,0.2,0.9,0.2c0.6,0,1.2-0.3,1.2-1c0-0.5-0.5-1-1.1-1
		c0,0-0.1,0-0.1,0l-0.1-0.6c0.5-0.1,0.9-0.4,0.9-0.8c0-0.4-0.3-0.6-0.7-0.6c-0.3,0-0.5,0.1-0.8,0.2l-0.1-0.6c0.3-0.2,0.6-0.2,1-0.2
		c0.8,0,1.4,0.5,1.4,1.2c0,0.6-0.4,0.9-0.7,1c0.6,0.1,1.1,0.6,1.1,1.5C312.3,43.8,311.6,44.5,310.4,44.5z"/>
	<path class="st0" d="M313.9,44.4h-0.8l1.9-4.5h-2.3v-0.6h3.4L313.9,44.4z"/>
</g>
</svg>
