<?xml version="1.0" encoding="utf-8"?>
<!-- Generator: Adobe Illustrator 22.1.0, SVG Export Plug-In . SVG Version: 6.00 Build 0)  -->
<svg version="1.1" id="Layer_1" xmlns="http://www.w3.org/2000/svg" xmlns:xlink="http://www.w3.org/1999/xlink" x="0px" y="0px"
	 viewBox="0 0 320 50" style="enable-background:new 0 0 320 50;" xml:space="preserve">
<style type="text/css">
	.st0{fill:#231F20;}
</style>
<g>
	<path class="st0" d="M88.8,26.8c-0.9,0-1.7-0.3-2.1-0.5l-0.2-1.7c0.6,0.4,1.4,0.7,2.2,0.7c0.7,0,1.1-0.3,1.1-0.8
		c0-0.4-0.3-0.7-1-0.9c-1.5-0.4-2.2-1.2-2.2-2.4c0-1.3,0.9-2.3,2.6-2.3c0.9,0,1.6,0.3,1.9,0.4l-0.3,1.5c-0.3-0.2-0.9-0.4-1.5-0.4
		c-0.6,0-0.9,0.3-0.9,0.7c0,0.4,0.3,0.6,0.9,0.8c1.5,0.4,2.3,1.2,2.3,2.5C91.6,25.8,90.7,26.8,88.8,26.8z"/>
	<path class="st0" d="M96.2,22.7h-1.4v2c0,0.5,0.3,0.7,0.7,0.7c0.2,0,0.3,0,0.5-0.1l-0.2,1.3c-0.2,0.1-0.5,0.1-0.8,0.1
		c-1.2,0-2-0.6-2-1.7v-2.4h-0.9v-1.4H93v-1.2l1.8-0.6v1.8h1.8L96.2,22.7z"/>
	<path class="st0" d="M102.2,23.6l-0.8,0.8h-2.7c0.1,0.4,0.7,0.9,1.6,0.9c0.6,0,1.1-0.2,1.5-0.4l-0.2,1.5c-0.4,0.2-1,0.4-1.7,0.4
		c-1.7,0-3-1.2-3-2.9c0-1.8,1.3-2.9,2.8-2.9c1.5,0,2.4,1,2.4,2.2C102.2,23.3,102.2,23.5,102.2,23.6z M99.8,22.4
		c-0.5,0-0.9,0.4-1.1,0.9h1.8c0,0,0-0.1,0-0.1C100.6,22.8,100.2,22.4,99.8,22.4z"/>
	<path class="st0" d="M108.2,23.6l-0.8,0.8h-2.7c0.1,0.4,0.7,0.9,1.6,0.9c0.6,0,1.1-0.2,1.5-0.4l-0.2,1.5c-0.4,0.2-1,0.4-1.7,0.4
		c-1.7,0-3-1.2-3-2.9c0-1.8,1.3-2.9,2.8-2.9c1.5,0,2.4,1,2.4,2.2C108.2,23.3,108.2,23.5,108.2,23.6z M105.8,22.4
		c-0.5,0-0.9,0.4-1.1,0.9h1.8c0,0,0-0.1,0-0.1C106.6,22.8,106.2,22.4,105.8,22.4z"/>
	<path class="st0" d="M112.6,23.1c-0.1-0.1-0.3-0.1-0.5-0.1c-0.6,0-1.1,0.3-1.1,1.2v2.5h-1.8v-5.4h1.7v1.2h0
		c0.2-0.9,0.8-1.3,1.5-1.3c0.2,0,0.4,0,0.5,0.1L112.6,23.1z"/>
	<path class="st0" d="M120.7,23c-0.4-0.2-0.7-0.3-1.2-0.3c-0.8,0-1.4,0.6-1.4,1.3c0,0.8,0.6,1.3,1.4,1.3c0.5,0,0.8-0.1,1.2-0.3
		l-0.2,1.5c-0.4,0.2-0.8,0.3-1.3,0.3c-1.5,0-2.9-1.1-2.9-2.8c0-1.8,1.4-2.8,2.9-2.8c0.7,0,1.3,0.1,1.8,0.4L120.7,23z"/>
	<path class="st0" d="M123.9,26.9c-1.1,0-1.9-0.6-1.9-1.9v-6.8h1.7v6.6c0,0.4,0.3,0.7,0.7,0.7L123.9,26.9z"/>
	<path class="st0" d="M130.3,23.6l-0.8,0.8h-2.7c0.1,0.4,0.7,0.9,1.6,0.9c0.6,0,1.1-0.2,1.5-0.4l-0.2,1.5c-0.4,0.2-1,0.4-1.7,0.4
		c-1.7,0-3-1.2-3-2.9c0-1.8,1.3-2.9,2.8-2.9c1.5,0,2.4,1,2.4,2.2C130.3,23.3,130.3,23.5,130.3,23.6z M127.9,22.4
		c-0.5,0-0.9,0.4-1.1,0.9h1.8c0,0,0-0.1,0-0.1C128.7,22.8,128.4,22.4,127.9,22.4z"/>
	<path class="st0" d="M135.1,26.9c-0.3-0.1-0.7-0.3-0.8-0.7c-0.2,0.4-0.8,0.7-1.4,0.7c-1,0-1.8-0.7-1.8-1.8c0-1,0.8-1.7,1.9-1.8
		l1.1-0.1V23c0-0.3-0.3-0.5-0.9-0.5c-0.5,0-1.1,0.2-1.5,0.4l-0.3-1.3c0.4-0.3,1.2-0.5,1.9-0.5c1.4,0,2.5,0.7,2.5,2v1.8
		c0,0.6,0.2,1,0.7,1.1L135.1,26.9z M134,24.3l-0.7,0.1c-0.5,0-0.7,0.4-0.7,0.7c0,0.3,0.2,0.5,0.6,0.5c0.4,0,0.8-0.3,0.8-0.8V24.3z"
		/>
	<path class="st0" d="M140.5,23.1c-0.1-0.1-0.3-0.1-0.5-0.1c-0.6,0-1.1,0.3-1.1,1.2v2.5h-1.8v-5.4h1.7v1.2h0
		c0.2-0.9,0.8-1.3,1.5-1.3c0.2,0,0.4,0,0.5,0.1L140.5,23.1z"/>
	<path class="st0" d="M147.2,26.8c-1.6,0-3-1.2-3-2.9s1.3-2.9,3-2.9c1.6,0,3,1.2,3,2.9S148.8,26.8,147.2,26.8z M147.2,22.6
		c-0.7,0-1.2,0.6-1.2,1.4c0,0.8,0.6,1.4,1.2,1.4c0.6,0,1.2-0.6,1.2-1.4C148.4,23.2,147.8,22.6,147.2,22.6z"/>
	<path class="st0" d="M154.9,19.7c-0.2-0.1-0.5-0.1-0.7-0.1c-0.6,0-1,0.4-1,1.2v0.5h1.6l-0.3,1.4h-1.2v4h-1.7v-4h-0.8v-1.4h0.8v-0.6
		c0-1.7,1.1-2.5,2.4-2.5c0.5,0,1,0.1,1.3,0.2L154.9,19.7z"/>
	<path class="st0" d="M162,22.7h-1.4v2c0,0.5,0.3,0.7,0.7,0.7c0.2,0,0.3,0,0.5-0.1l-0.2,1.3c-0.2,0.1-0.5,0.1-0.8,0.1
		c-1.2,0-2-0.6-2-1.7v-2.4h-0.9v-1.4h0.9v-1.2l1.8-0.6v1.8h1.8L162,22.7z"/>
	<path class="st0" d="M166.6,26.7v-3.3c0-0.4-0.3-0.7-0.8-0.7c-0.5,0-0.9,0.3-0.9,0.8v3.3h-1.8v-8.5h1.7v3.6h0
		c0.3-0.4,0.8-0.7,1.5-0.7c1.2,0,1.9,0.7,1.9,1.8v3.8H166.6z"/>
	<path class="st0" d="M174.6,23.6l-0.8,0.8h-2.7c0.1,0.4,0.7,0.9,1.6,0.9c0.6,0,1.1-0.2,1.5-0.4l-0.2,1.5c-0.4,0.2-1,0.4-1.7,0.4
		c-1.7,0-3-1.2-3-2.9c0-1.8,1.3-2.9,2.8-2.9c1.5,0,2.4,1,2.4,2.2C174.6,23.3,174.6,23.5,174.6,23.6z M172.2,22.4
		c-0.5,0-0.9,0.4-1.1,0.9h1.8c0,0,0-0.1,0-0.1C173,22.8,172.6,22.4,172.2,22.4z"/>
	<path class="st0" d="M180.1,26.8c-0.7,0-1.3-0.2-1.7-0.4l-0.2-1.6c0.5,0.3,1.1,0.6,1.7,0.6c0.3,0,0.5-0.2,0.5-0.4
		c0-0.2-0.2-0.3-0.5-0.4c-1-0.3-1.7-0.8-1.7-1.8c0-1.1,0.9-1.8,2-1.8c0.7,0,1.3,0.2,1.6,0.3l-0.3,1.3c-0.3-0.1-0.7-0.3-1.1-0.3
		c-0.3,0-0.5,0.1-0.5,0.3c0,0.2,0.1,0.3,0.5,0.4c1.2,0.3,1.7,0.9,1.7,1.8C182.3,25.9,181.6,26.8,180.1,26.8z"/>
	<path class="st0" d="M186.9,26.7v-0.7h0c-0.2,0.6-0.8,0.9-1.7,0.9c-1.2,0-1.9-0.7-1.9-1.8v-3.8h1.8v3.3c0,0.4,0.3,0.7,0.8,0.7
		c0.5,0,0.9-0.3,0.9-0.8v-3.3h1.8v5.4H186.9z"/>
	<path class="st0" d="M193.1,23.1c-0.1-0.1-0.3-0.1-0.5-0.1c-0.6,0-1.1,0.3-1.1,1.2v2.5h-1.8v-5.4h1.7v1.2h0
		c0.2-0.9,0.8-1.3,1.5-1.3c0.2,0,0.4,0,0.5,0.1L193.1,23.1z"/>
	<path class="st0" d="M197.4,26.8c-0.6,0-1.2-0.2-1.4-0.4v3h-1.7v-8.2h1.5v0.7h0c0.3-0.6,0.9-0.8,1.7-0.8c1.3,0,2.6,1,2.6,2.9
		C200.2,25.7,198.9,26.8,197.4,26.8z M197.1,22.6c-0.5,0-0.9,0.3-1.1,0.6v1.7c0.2,0.2,0.5,0.5,1.1,0.5c0.8,0,1.3-0.6,1.3-1.4
		C198.4,23.2,197.8,22.6,197.1,22.6z"/>
	<path class="st0" d="M204.6,23.1c-0.1-0.1-0.3-0.1-0.5-0.1c-0.6,0-1.1,0.3-1.1,1.2v2.5h-1.8v-5.4h1.7v1.2h0
		c0.2-0.9,0.8-1.3,1.5-1.3c0.2,0,0.4,0,0.5,0.1L204.6,23.1z"/>
	<path class="st0" d="M206.6,20.5c-0.3,0-0.9-0.6-0.9-0.9c0-0.3,0.6-0.9,0.9-0.9c0.3,0,0.9,0.6,0.9,0.9
		C207.6,19.8,207,20.5,206.6,20.5z M205.8,26.7v-5.4h1.8v5.4H205.8z"/>
	<path class="st0" d="M210.6,26.8c-0.7,0-1.3-0.2-1.7-0.4l-0.2-1.6c0.5,0.3,1.1,0.6,1.7,0.6c0.3,0,0.5-0.2,0.5-0.4
		c0-0.2-0.2-0.3-0.5-0.4c-1-0.3-1.7-0.8-1.7-1.8c0-1.1,0.9-1.8,2-1.8c0.7,0,1.3,0.2,1.6,0.3l-0.3,1.3c-0.3-0.1-0.7-0.3-1.1-0.3
		c-0.3,0-0.5,0.1-0.5,0.3c0,0.2,0.1,0.3,0.5,0.4c1.2,0.3,1.7,0.9,1.7,1.8C212.7,25.9,212,26.8,210.6,26.8z"/>
	<path class="st0" d="M218.7,23.6l-0.8,0.8h-2.7c0.1,0.4,0.7,0.9,1.6,0.9c0.6,0,1.1-0.2,1.5-0.4l-0.2,1.5c-0.4,0.2-1,0.4-1.7,0.4
		c-1.7,0-3-1.2-3-2.9c0-1.8,1.3-2.9,2.8-2.9c1.5,0,2.4,1,2.4,2.2C218.7,23.3,218.7,23.5,218.7,23.6z M216.3,22.4
		c-0.5,0-0.9,0.4-1.1,0.9h1.8c0,0,0-0.1,0-0.1C217.1,22.8,216.7,22.4,216.3,22.4z"/>
	<path class="st0" d="M221.4,26.8c-0.7,0-1.3-0.2-1.7-0.4l-0.2-1.6c0.5,0.3,1.1,0.6,1.7,0.6c0.3,0,0.5-0.2,0.5-0.4
		c0-0.2-0.2-0.3-0.5-0.4c-1-0.3-1.7-0.8-1.7-1.8c0-1.1,0.9-1.8,2-1.8c0.7,0,1.3,0.2,1.6,0.3l-0.3,1.3c-0.3-0.1-0.7-0.3-1.1-0.3
		c-0.3,0-0.5,0.1-0.5,0.3c0,0.2,0.1,0.3,0.5,0.4c1.2,0.3,1.7,0.9,1.7,1.8C223.6,25.9,222.9,26.8,221.4,26.8z"/>
	<path class="st0" d="M225.4,26.8c-0.3,0-1-0.7-1-1c0-0.3,0.7-1,1-1c0.3,0,1,0.7,1,1C226.4,26.2,225.8,26.8,225.4,26.8z"/>
</g>
</svg>
