<?xml version="1.0" encoding="utf-8"?>
<!-- Generator: Adobe Illustrator 22.1.0, SVG Export Plug-In . SVG Version: 6.00 Build 0)  -->
<svg version="1.1" id="Layer_1" xmlns="http://www.w3.org/2000/svg" xmlns:xlink="http://www.w3.org/1999/xlink" x="0px" y="0px"
	 viewBox="0 0 320 50" style="enable-background:new 0 0 320 50;" xml:space="preserve">
<style type="text/css">
	.st0{opacity:0.15;clip-path:url(#SVGID_2_);}
	.st1{clip-path:url(#SVGID_4_);}
	.st2{clip-path:url(#SVGID_6_);fill:#0A0F0F;}
	.st3{clip-path:url(#SVGID_2_);fill:#FFFFFF;}
	.st4{clip-path:url(#SVGID_8_);fill:url(#SVGID_9_);}
	.st5{clip-path:url(#SVGID_11_);fill:url(#SVGID_12_);}
	.st6{clip-path:url(#SVGID_14_);fill:url(#SVGID_15_);}
	.st7{clip-path:url(#SVGID_17_);fill:url(#SVGID_18_);}
	.st8{clip-path:url(#SVGID_20_);fill:url(#SVGID_21_);}
	.st9{fill:#B9E0D3;}
	.st10{fill:#FFFDF6;}
	.st11{clip-path:url(#SVGID_23_);fill:#898F94;}
	.st12{clip-path:url(#SVGID_23_);fill:#FFFDF6;}
	.st13{clip-path:url(#SVGID_23_);fill:#495B68;}
	.st14{clip-path:url(#SVGID_23_);fill:#F26F44;}
	.st15{opacity:0.18;clip-path:url(#SVGID_23_);}
	.st16{clip-path:url(#SVGID_25_);}
	.st17{clip-path:url(#SVGID_27_);fill:#0A0F0F;}
</style>
<g>
	<defs>
		<rect id="SVGID_1_" x="21.8" y="5.7" width="37" height="37"/>
	</defs>
	<clipPath id="SVGID_2_">
		<use xlink:href="#SVGID_1_"  style="overflow:visible;"/>
	</clipPath>
	<g class="st0">
		<g>
			<defs>
				<rect id="SVGID_3_" x="21.8" y="14.2" width="28.5" height="28.5"/>
			</defs>
			<clipPath id="SVGID_4_">
				<use xlink:href="#SVGID_3_"  style="overflow:visible;"/>
			</clipPath>
			<g class="st1">
				<defs>
					<rect id="SVGID_5_" x="21.8" y="14.2" width="28.5" height="28.5"/>
				</defs>
				<clipPath id="SVGID_6_">
					<use xlink:href="#SVGID_5_"  style="overflow:visible;"/>
				</clipPath>
				<path class="st2" d="M50.4,39.6c-1.4,1.4-3.4,2.3-5.6,2.3H22.6V19.8c0-2.2,0.9-4.1,2.3-5.6L24.1,15c-1.4,1.4-2.3,3.4-2.3,5.6
					v22.2H44c2.2,0,4.2-0.9,5.6-2.3L50.4,39.6z"/>
			</g>
		</g>
	</g>
	<path class="st3" d="M37.3,5.7c-2.7,0-5.2,1.1-7.2,3c-1.9,1.9-3,4.5-3,7.1v21.5h21.5c5.6,0,10.2-4.6,10.2-10.2V5.7H37.3z"/>
</g>
<g>
	<defs>
		<path id="SVGID_7_" d="M37.3,7c-4.9,0-8.9,4-8.9,8.8v20.2h20.2c4.9,0,8.9-4,8.9-8.9V7H37.3z"/>
	</defs>
	<clipPath id="SVGID_8_">
		<use xlink:href="#SVGID_7_"  style="overflow:visible;"/>
	</clipPath>
	
		<linearGradient id="SVGID_9_" gradientUnits="userSpaceOnUse" x1="0.931" y1="50.9656" x2="1.931" y2="50.9656" gradientTransform="matrix(28.9858 -28.9858 -28.9858 -28.9858 1478.8604 1540.2373)">
		<stop  offset="0" style="stop-color:#9CDBF8"/>
		<stop  offset="1" style="stop-color:#009DDA"/>
	</linearGradient>
	<polygon class="st4" points="14,21.5 43,-7.5 72.1,21.5 43,50.6 	"/>
</g>
<g>
	<defs>
		<path id="SVGID_10_" d="M48.7,37.4H27.2v0l-4.6,4.6h22.2c2.2,0,4.1-0.9,5.6-2.3l3.4-3.4l-0.2-0.2C52.1,36.9,50.4,37.4,48.7,37.4"
			/>
	</defs>
	<clipPath id="SVGID_11_">
		<use xlink:href="#SVGID_10_"  style="overflow:visible;"/>
	</clipPath>
	
		<linearGradient id="SVGID_12_" gradientUnits="userSpaceOnUse" x1="0.487" y1="51.171" x2="1.487" y2="51.171" gradientTransform="matrix(0 -5.8477 -5.8477 0 337.3919 44.8193)">
		<stop  offset="0" style="stop-color:#10B0E6"/>
		<stop  offset="0.1593" style="stop-color:#0FAAE1"/>
		<stop  offset="0.3678" style="stop-color:#0C9AD2"/>
		<stop  offset="0.6035" style="stop-color:#077FBA"/>
		<stop  offset="0.8576" style="stop-color:#015999"/>
		<stop  offset="0.89" style="stop-color:#005494"/>
		<stop  offset="1" style="stop-color:#005494"/>
	</linearGradient>
	<rect x="22.6" y="36.1" class="st5" width="31.1" height="5.8"/>
</g>
<g>
	<defs>
		<path id="SVGID_13_" d="M24.9,14.2c-1.4,1.4-2.3,3.4-2.3,5.6v22.2l4.6-4.6V15.8c0-1.7,0.4-3.4,1.3-4.8l-0.2-0.2L24.9,14.2z"/>
	</defs>
	<clipPath id="SVGID_14_">
		<use xlink:href="#SVGID_13_"  style="overflow:visible;"/>
	</clipPath>
	
		<linearGradient id="SVGID_15_" gradientUnits="userSpaceOnUse" x1="0.904" y1="51.032" x2="1.904" y2="51.032" gradientTransform="matrix(0 -31.2417 -31.2417 0 1619.8475 70.4176)">
		<stop  offset="0" style="stop-color:#0081BD"/>
		<stop  offset="0.3934" style="stop-color:#006FAC"/>
		<stop  offset="0.85" style="stop-color:#005494"/>
		<stop  offset="1" style="stop-color:#005494"/>
	</linearGradient>
	<rect x="22.6" y="10.8" class="st6" width="5.8" height="31.1"/>
</g>
<g>
	<defs>
		<path id="SVGID_16_" d="M48.7,37.4H27.2v0l-4.6,4.6h22.2c2.2,0,4.1-0.9,5.6-2.3l3.4-3.4l-0.2-0.2C52.1,36.9,50.4,37.4,48.7,37.4"
			/>
	</defs>
	<clipPath id="SVGID_17_">
		<use xlink:href="#SVGID_16_"  style="overflow:visible;"/>
	</clipPath>
	
		<linearGradient id="SVGID_18_" gradientUnits="userSpaceOnUse" x1="0.9675" y1="50.9025" x2="1.9675" y2="50.9025" gradientTransform="matrix(30.768 0 0 -30.768 -7.0401 1605.1803)">
		<stop  offset="0" style="stop-color:#10B0E6"/>
		<stop  offset="0.1611" style="stop-color:#0FAAE1"/>
		<stop  offset="0.3719" style="stop-color:#0C9AD2"/>
		<stop  offset="0.6102" style="stop-color:#077FBA"/>
		<stop  offset="0.8672" style="stop-color:#015999"/>
		<stop  offset="0.9" style="stop-color:#005494"/>
		<stop  offset="1" style="stop-color:#005494"/>
	</linearGradient>
	<rect x="22.6" y="36.1" class="st7" width="31.1" height="5.8"/>
</g>
<g>
	<defs>
		<path id="SVGID_19_" d="M24.9,14.2c-1.4,1.4-2.3,3.4-2.3,5.6v22.2l4.6-4.6V15.8c0-1.7,0.4-3.4,1.3-4.8l-0.2-0.2L24.9,14.2z"/>
	</defs>
	<clipPath id="SVGID_20_">
		<use xlink:href="#SVGID_19_"  style="overflow:visible;"/>
	</clipPath>
	
		<linearGradient id="SVGID_21_" gradientUnits="userSpaceOnUse" x1="0.904" y1="51.032" x2="1.904" y2="51.032" gradientTransform="matrix(0 -31.2417 -31.2417 0 1619.8475 70.4176)">
		<stop  offset="0" style="stop-color:#0081BD"/>
		<stop  offset="0.3934" style="stop-color:#006FAC"/>
		<stop  offset="0.85" style="stop-color:#005494"/>
		<stop  offset="1" style="stop-color:#005494"/>
	</linearGradient>
	<rect x="22.6" y="10.8" class="st8" width="5.8" height="31.1"/>
</g>
<rect x="30.7" y="16.3" class="st9" width="25.2" height="12.9"/>
<path class="st10" d="M55.4,28.9H31.1V16.7h24.3V28.9z M30.5,29.5H56V16.1H30.5V29.5z"/>
<g>
	<defs>
		<rect id="SVGID_22_" x="21.8" y="5.7" width="37" height="37"/>
	</defs>
	<clipPath id="SVGID_23_">
		<use xlink:href="#SVGID_22_"  style="overflow:visible;"/>
	</clipPath>
	<path class="st11" d="M43.7,22.1H32.6c-0.1,0-0.2-0.1-0.2-0.2c0-0.1,0.1-0.2,0.2-0.2h11.1c0.1,0,0.2,0.1,0.2,0.2
		C43.9,22,43.8,22.1,43.7,22.1"/>
	<path class="st11" d="M42,25.8h-9.4c-0.1,0-0.2-0.1-0.2-0.2c0-0.1,0.1-0.2,0.2-0.2H42c0.1,0,0.2,0.1,0.2,0.2
		C42.2,25.7,42.1,25.8,42,25.8"/>
	<path class="st11" d="M53.3,25.8h-9.4c-0.1,0-0.2-0.1-0.2-0.2c0-0.1,0.1-0.2,0.2-0.2h9.4c0.1,0,0.2,0.1,0.2,0.2
		C53.5,25.7,53.4,25.8,53.3,25.8"/>
	<path class="st11" d="M53.3,24.2H32.6c-0.1,0-0.2-0.1-0.2-0.2c0-0.1,0.1-0.2,0.2-0.2h20.7c0.1,0,0.2,0.1,0.2,0.2
		C53.5,24.1,53.4,24.2,53.3,24.2"/>
	<path class="st11" d="M53.3,19.5h-6.8c-0.1,0-0.2-0.1-0.2-0.2c0-0.1,0.1-0.2,0.2-0.2h6.8c0.1,0,0.2,0.1,0.2,0.2
		C53.5,19.4,53.4,19.5,53.3,19.5"/>
	<path class="st11" d="M39.3,19.3h-6.8c-0.1,0-0.2-0.1-0.2-0.2c0-0.1,0.1-0.2,0.2-0.2h6.8c0.1,0,0.2,0.1,0.2,0.2
		C39.5,19.2,39.4,19.3,39.3,19.3"/>
	<path class="st11" d="M39.3,20.4h-6.8c-0.1,0-0.2-0.1-0.2-0.2c0-0.1,0.1-0.2,0.2-0.2h6.8c0.1,0,0.2,0.1,0.2,0.2
		C39.5,20.3,39.4,20.4,39.3,20.4"/>
	<rect x="46.6" y="20.5" class="st12" width="7" height="2"/>
	<path class="st11" d="M46.2,21.4c0,0-0.1-0.1-0.1-0.1c-0.1,0-0.1-0.1-0.2-0.1c-0.1,0-0.1-0.1-0.2-0.1c0,0,0-0.1,0-0.1
		c0,0,0-0.1,0-0.1c0,0,0.1,0,0.1,0c0.1,0,0.1,0,0.2,0.1c0,0,0,0,0,0c0,0,0,0,0,0l0.2-0.1c0,0,0,0,0,0c0-0.1-0.1-0.1-0.2-0.2
		c0,0-0.1-0.1-0.2-0.1v-0.2c0,0,0,0,0,0h-0.2c0,0,0,0,0,0v0.2c0,0-0.1,0-0.1,0.1c0,0-0.1,0.1-0.1,0.1c0,0-0.1,0.1-0.1,0.1
		c0,0,0,0.1,0,0.1c0,0.1,0,0.2,0.1,0.3c0,0.1,0.1,0.1,0.3,0.2c0.1,0,0.1,0.1,0.1,0.1c0,0,0.1,0,0.1,0.1c0,0,0,0.1,0,0.1
		c0,0.1,0,0.1-0.1,0.2c0,0-0.1,0.1-0.2,0.1c-0.1,0-0.1,0-0.2-0.1c0,0-0.1-0.1-0.1-0.2c0,0,0,0,0,0l-0.2,0c0,0,0,0,0,0c0,0,0,0,0,0
		c0,0.1,0.1,0.3,0.2,0.3c0.1,0.1,0.2,0.1,0.3,0.1v0.2c0,0,0,0,0,0h0.2c0,0,0,0,0,0v-0.2c0.1,0,0.2-0.1,0.3-0.2
		c0.1-0.1,0.1-0.2,0.1-0.3C46.3,21.6,46.2,21.5,46.2,21.4"/>
	<path class="st13" d="M51,18c-0.2,0-0.3-0.1-0.3-0.3l0-5.8l-1.4-1.3c-0.1-0.1-0.1-0.3,0-0.5c0.1-0.1,0.3-0.1,0.5,0l1.5,1.4
		c0.1,0.1,0.1,0.1,0.1,0.2l0,5.9C51.3,17.9,51.1,18,51,18"/>
	<path class="st14" d="M50.3,29.8l-2.7,0l0.1-19.1c0-0.7,0.6-1.3,1.4-1.3c0.7,0,1.3,0.6,1.3,1.4L50.3,29.8z"/>
	<path class="st13" d="M50.3,29.8l-2.7,0l0.9,2.9c0.1,0.4,0.6,0.4,0.8,0L50.3,29.8z"/>
	
		<rect x="48.3" y="18" transform="matrix(6.330704e-03 -1 1 6.330704e-03 29.3943 68.2178)" class="st13" width="1.4" height="2.7"/>
	<g class="st15">
		<g>
			<defs>
				<rect id="SVGID_24_" x="21.8" y="14.2" width="28.5" height="28.5"/>
			</defs>
			<clipPath id="SVGID_25_">
				<use xlink:href="#SVGID_24_"  style="overflow:visible;"/>
			</clipPath>
			<g class="st16">
				<defs>
					<rect id="SVGID_26_" x="21.8" y="14.2" width="28.5" height="28.5"/>
				</defs>
				<clipPath id="SVGID_27_">
					<use xlink:href="#SVGID_26_"  style="overflow:visible;"/>
				</clipPath>
				<path class="st17" d="M50.4,39.6c-1.4,1.4-3.4,2.3-5.6,2.3H22.6V19.8c0-2.2,0.9-4.1,2.3-5.6L24.1,15c-1.4,1.4-2.3,3.4-2.3,5.6
					v22.2H44c2.2,0,4.2-0.9,5.6-2.3L50.4,39.6z"/>
			</g>
		</g>
	</g>
</g>
</svg>
