<?xml version="1.0" encoding="utf-8"?>
<!-- Generator: Adobe Illustrator 22.1.0, SVG Export Plug-In . SVG Version: 6.00 Build 0)  -->
<svg version="1.1" id="Layer_1" xmlns="http://www.w3.org/2000/svg" xmlns:xlink="http://www.w3.org/1999/xlink" x="0px" y="0px"
	 viewBox="0 0 320 50" style="enable-background:new 0 0 320 50;" xml:space="preserve">
<style type="text/css">
	.st0{fill:#005C97;}
	.st1{clip-path:url(#SVGID_2_);fill:#FFFFFF;}
	.st2{clip-path:url(#SVGID_4_);fill:url(#SVGID_5_);}
	.st3{clip-path:url(#SVGID_7_);fill:url(#SVGID_8_);}
	.st4{clip-path:url(#SVGID_10_);fill:url(#SVGID_11_);}
</style>
<path class="st0" d="M233.9,30.7v1.7h-3.1v8.4h-2v-8.4h-3.1v-1.7H233.9z M234.7,40.8h2v-5.1v-5.1h-2v5.1V40.8z M246.8,40.8h-2
	l-1-2.5h-3.4l-1,2.5h-2l4.3-10.3h0.9L246.8,40.8z M256.3,40.8h-2l-1-2.5h-3.4l-1,2.5h-2l4.3-10.3h0.9L256.3,40.8z M243,36.6l-1-2.5
	l-1,2.5H243z M252.5,36.6l-1-2.5l-1,2.5H252.5z"/>
<g>
	<defs>
		<rect id="SVGID_1_" x="209.2" y="26.5" width="49.7" height="16.9"/>
	</defs>
	<clipPath id="SVGID_2_">
		<use xlink:href="#SVGID_1_"  style="overflow:visible;"/>
	</clipPath>
	<path class="st1" d="M218.6,41.4c0.9,0,1.7-0.4,2.2-0.9l2.4-2.4c0.6-0.6,0.9-1.3,0.9-2.2v-7.5h-7.5c-0.9,0-1.7,0.4-2.2,0.9
		l-2.4,2.4c-0.6,0.6-0.9,1.3-0.9,2.2v7.5H218.6z"/>
</g>
<g>
	<defs>
		<path id="SVGID_3_" d="M217.5,29.1c-1.4,0-2.5,1.1-2.5,2.4v0.8h5.1v5.1h0.8c1.4,0,2.5-1.1,2.5-2.5v-5.9H217.5z"/>
	</defs>
	<clipPath id="SVGID_4_">
		<use xlink:href="#SVGID_3_"  style="overflow:visible;"/>
	</clipPath>
	
		<linearGradient id="SVGID_5_" gradientUnits="userSpaceOnUse" x1="0.6573" y1="50.8286" x2="1.6573" y2="50.8286" gradientTransform="matrix(5.8356 -5.8356 -5.8356 -5.8356 510.4201 335.4103)">
		<stop  offset="0" style="stop-color:#9CDBF8"/>
		<stop  offset="0.1" style="stop-color:#9CDBF8"/>
		<stop  offset="0.9" style="stop-color:#009DDA"/>
		<stop  offset="1" style="stop-color:#009DDA"/>
	</linearGradient>
	<polygon class="st2" points="210.9,33.3 219.3,24.9 227.7,33.3 219.3,41.7 	"/>
</g>
<g>
	<defs>
		<path id="SVGID_6_" d="M221,38.2h-6.6l-2.6,2.6h6.8c0.7,0,1.3-0.3,1.8-0.7l2.2-2.2l-0.1-0.1C222.1,38,221.6,38.2,221,38.2"/>
	</defs>
	<clipPath id="SVGID_7_">
		<use xlink:href="#SVGID_6_"  style="overflow:visible;"/>
	</clipPath>
	
		<linearGradient id="SVGID_8_" gradientUnits="userSpaceOnUse" x1="0.907" y1="50.7212" x2="1.907" y2="50.7212" gradientTransform="matrix(10.759 0 0 -10.759 202.0471 584.9988)">
		<stop  offset="0" style="stop-color:#18B0E6"/>
		<stop  offset="0.1617" style="stop-color:#16AAE1"/>
		<stop  offset="0.3752" style="stop-color:#129AD2"/>
		<stop  offset="0.6174" style="stop-color:#0B7EB9"/>
		<stop  offset="0.8793" style="stop-color:#015897"/>
		<stop  offset="0.9" style="stop-color:#005594"/>
		<stop  offset="1" style="stop-color:#005594"/>
	</linearGradient>
	<rect x="211.8" y="37.8" class="st3" width="10.8" height="3"/>
</g>
<g>
	<defs>
		<path id="SVGID_9_" d="M212.5,32.2c-0.5,0.5-0.7,1.1-0.7,1.8v6.8l2.6-2.6v-6.6c0-0.5,0.1-1,0.4-1.5l-0.1-0.1L212.5,32.2z"/>
	</defs>
	<clipPath id="SVGID_10_">
		<use xlink:href="#SVGID_9_"  style="overflow:visible;"/>
	</clipPath>
	
		<linearGradient id="SVGID_11_" gradientUnits="userSpaceOnUse" x1="0.7212" y1="51.0929" x2="1.7212" y2="51.0929" gradientTransform="matrix(0 -10.7592 -10.7592 0 763.0246 48.5476)">
		<stop  offset="0" style="stop-color:#0081BC"/>
		<stop  offset="0.4118" style="stop-color:#006EAB"/>
		<stop  offset="0.85" style="stop-color:#005594"/>
		<stop  offset="1" style="stop-color:#005594"/>
	</linearGradient>
	<rect x="211.8" y="30" class="st4" width="3" height="10.8"/>
</g>
</svg>
