<?xml version="1.0" encoding="utf-8"?>
<!-- Generator: Adobe Illustrator 24.0.0, SVG Export Plug-In . SVG Version: 6.00 Build 0)  -->
<svg version="1.1" id="Layer_1" xmlns="http://www.w3.org/2000/svg" xmlns:xlink="http://www.w3.org/1999/xlink" x="0px" y="0px"
	 viewBox="0 0 15.6 18.3" style="enable-background:new 0 0 15.6 18.3;" xml:space="preserve">
<style type="text/css">
	.st0{fill:#F8DF1F;}
</style>
<path class="st0" d="M1.1,5.5l2.3-3.7c0.3-0.5,0.2-1.2-0.4-1.6C2.5-0.2,1.8,0,1.5,0.5c0,0.1-0.1,0.2-0.1,0.2L0,5
	c-0.1,0.3,0.1,0.7,0.4,0.8C0.7,5.8,1,5.7,1.1,5.5"/>
<path class="st0" d="M10.5,18.3l4.1-0.4c0.6-0.1,1.1-0.6,1-1.3c-0.1-0.6-0.6-1.1-1.3-1c-0.1,0-0.2,0-0.3,0.1l-3.8,1.5
	c-0.3,0.1-0.5,0.5-0.3,0.8C10,18.2,10.2,18.3,10.5,18.3"/>
<path class="st0" d="M7.9,10.9l4.3-2.4c0.5-0.3,0.7-1,0.4-1.6c-0.3-0.5-1-0.7-1.6-0.4c-0.1,0-0.1,0.1-0.2,0.1L7.1,9.8
	c-0.3,0.3-0.3,0.7-0.1,1C7.3,11.1,7.7,11.1,7.9,10.9"/>
</svg>
