<?xml version="1.0" encoding="utf-8"?>
<!-- Generator: Adobe Illustrator 24.0.0, SVG Export Plug-In . SVG Version: 6.00 Build 0)  -->
<svg version="1.1" id="Layer_1" xmlns="http://www.w3.org/2000/svg" xmlns:xlink="http://www.w3.org/1999/xlink" x="0px" y="0px"
	 viewBox="0 0 300 600" style="enable-background:new 0 0 300 600;" xml:space="preserve">
<style type="text/css">
	.st0{fill:#FFFFFF;}
</style>
<g>
	<path class="st0" d="M18.8,579.9l-0.7-0.3c1-0.5,1.7-1.2,2.1-2c-0.2,0.2-0.5,0.3-0.8,0.3c-1,0-1.6-0.7-1.6-1.6c0-1,0.7-1.7,1.7-1.7
		c0.9,0,1.7,0.6,1.7,1.8C21.2,577.7,20.2,579.2,18.8,579.9z M19.4,575.2c-0.5,0-0.9,0.4-0.9,1c0,0.6,0.4,1,1,1c0.4,0,0.8-0.2,1-0.7
		c0-0.1,0-0.2,0-0.2C20.4,575.7,20,575.2,19.4,575.2z"/>
	<path class="st0" d="M23,579.9l-0.7-0.3c1-0.5,1.7-1.2,2.1-2c-0.2,0.2-0.5,0.3-0.8,0.3c-1,0-1.6-0.7-1.6-1.6c0-1,0.7-1.7,1.7-1.7
		c0.9,0,1.7,0.6,1.7,1.8C25.4,577.7,24.4,579.2,23,579.9z M23.6,575.2c-0.5,0-0.9,0.4-0.9,1c0,0.6,0.4,1,1,1c0.4,0,0.8-0.2,1-0.7
		c0-0.1,0-0.2,0-0.2C24.6,575.7,24.1,575.2,23.6,575.2z"/>
	<path class="st0" d="M27.8,579.8c-0.9,0-1.7-0.6-1.7-1.8c0-1.4,1-2.8,2.4-3.5l0.7,0.3c-1,0.5-1.7,1.2-2.1,2
		c0.2-0.2,0.4-0.3,0.8-0.3c1,0,1.6,0.7,1.6,1.6C29.5,579.1,28.7,579.8,27.8,579.8z M27.8,577.2c-0.4,0-0.8,0.2-1,0.7
		c0,0.1,0,0.2,0,0.3c0,0.6,0.5,1.1,1,1.1s0.9-0.4,0.9-1C28.7,577.6,28.3,577.2,27.8,577.2z"/>
	<path class="st0" d="M31.9,579.8c-0.9,0-1.7-0.8-1.7-2.7c0-1.8,0.8-2.6,1.7-2.6c0.9,0,1.7,0.9,1.7,2.6
		C33.7,579,32.8,579.8,31.9,579.8z M31.9,575.2c-0.5,0-1,0.6-1,2c0,1.5,0.5,2,1,2c0.5,0,1-0.6,1-2C32.9,575.7,32.4,575.2,31.9,575.2
		z"/>
	<path class="st0" d="M35,579.7v-4.5l-0.9,0.1l0.1-0.6l1.5-0.1v5.2H35z"/>
	<path class="st0" d="M36.5,579.7v-0.1c1.2-1.4,2.1-2.7,2.1-3.5c0-0.6-0.4-0.9-0.8-0.9c-0.4,0-0.7,0.1-1,0.3l-0.2-0.6
		c0.3-0.2,0.7-0.3,1.2-0.3c0.9,0,1.6,0.6,1.6,1.6c0,1-0.9,2.1-1.6,3h1.9v0.6H36.5z"/>
</g>
</svg>
