<?xml version="1.0" encoding="utf-8"?>
<!-- Generator: Adobe Illustrator 24.0.0, SVG Export Plug-In . SVG Version: 6.00 Build 0)  -->
<svg version="1.1" id="Layer_1" xmlns="http://www.w3.org/2000/svg" xmlns:xlink="http://www.w3.org/1999/xlink" x="0px" y="0px"
	 viewBox="0 0 300 600" style="enable-background:new 0 0 300 600;" xml:space="preserve">
<style type="text/css">
	.st0{fill:#F9E039;}
</style>
<g>
	<path class="st0" d="M136.8,156.6c-6.2,0-12.4-4-12.4-11.7c0-7.7,6.4-11.7,12.3-11.7c3.1,0,5.7,0.8,7.2,1.9l-1,4.5
		c-1.4-0.9-3.5-1.6-5.7-1.6c-4.1,0-7.5,2.7-7.5,7.1c0,4.2,3.2,6.9,7.2,6.9c1.3,0,2.3-0.2,3-0.7v-3.5h-3.9v-4.2h8.9v10.6
		C143.2,155.8,140.4,156.6,136.8,156.6z"/>
	<path class="st0" d="M162.6,147.3l-2.3,2.3h-7.8c0.2,1.3,2,2.8,4.7,2.8c1.6,0,3.3-0.5,4.4-1.2l-0.5,4.4c-1.2,0.6-3,1-5,1
		c-4.8,0-8.7-3.4-8.7-8.5c0-5.1,3.7-8.4,8.3-8.4c4.4,0,7.1,3,7.1,6.3C162.7,146.4,162.7,147,162.6,147.3z M155.6,143.6
		c-1.5,0-2.8,1.2-3.1,2.6h5.4c0-0.1,0-0.2,0-0.4C157.9,144.7,157,143.6,155.6,143.6z"/>
	<path class="st0" d="M175.6,144.4h-4.1v5.9c0,1.4,0.7,1.9,2.1,1.9c0.6,0,0.9,0,1.3-0.2l-0.5,3.9c-0.5,0.2-1.4,0.4-2.4,0.4
		c-3.6,0-5.7-1.9-5.7-5v-6.9h-2.7v-4.2h2.7v-3.4l5.1-1.9v5.3h5.1L175.6,144.4z"/>
</g>
<g>
	<path class="st0" d="M77.7,201.2c-4.6,0-7.7-2.6-7.7-6c0-2.4,1.6-3.9,3.3-4.3l-2-2c0.1-1,1-1.9,1.9-2.3c-1.2-0.7-2.3-2.2-2.3-4.2
		c0-3.4,2.4-5.7,6.5-5.7c0.9,0,1.7,0.1,2.3,0.3c0.7,0.2,1.5,0.3,2.3,0.3c0.9,0,1.8-0.2,2.5-0.5l0.9,3.9c-0.5,0.3-1.3,0.5-2,0.5
		c0.2,0.3,0.4,1.1,0.4,1.6c0,2.7-2.1,4.9-5.2,5.1c-0.6,0-1,0.2-1,0.6c0,0.2,0.1,0.4,0.4,0.5l2.5,0.9c3.1,1.1,4.8,2.7,4.8,5.6
		C85.3,198.7,82.3,201.2,77.7,201.2z M78.8,193.7l-1.9-0.5c-1.2,0-2.1,0.9-2.1,2.1c0,1.1,0.9,2,2.8,2c1.8,0,2.8-0.8,2.8-1.8
		C80.3,194.8,79.8,194,78.8,193.7z M77.4,180.4c-1.2,0-2,0.9-2,1.9c0,1.1,0.9,1.9,2,1.9c1.1,0,2-0.8,2-1.9
		C79.4,181.3,78.6,180.4,77.4,180.4z"/>
	<path class="st0" d="M97.3,193.1v-2.2h0c-0.6,1.7-2.3,2.6-4.9,2.6c-3.5,0-5.6-1.9-5.6-5.3v-11H92v9.7c0,1.2,0.8,2.2,2.4,2.2
		c1.5,0,2.5-1,2.5-2.3v-9.6h5.1v15.9H97.3z"/>
	<path class="st0" d="M116,193.8c-0.9-0.2-2-0.9-2.5-2.1c-0.7,1.3-2.2,1.9-4.1,1.9c-2.8,0-5.3-2-5.3-5.3c0-2.9,2.3-4.9,5.4-5.2
		l3.2-0.3v-0.5c0-0.9-0.8-1.6-2.5-1.6c-1.5,0-3.3,0.5-4.4,1.2l-0.9-3.9c1.3-0.8,3.5-1.4,5.6-1.4c4.2,0,7.2,1.9,7.2,5.7v5.2
		c0,1.9,0.7,2.8,1.9,3.3L116,193.8z M112.8,186.2l-1.9,0.2c-1.3,0.1-1.9,1.1-1.9,2c0,0.8,0.6,1.5,1.6,1.5c1.2,0,2.2-0.9,2.2-2.3
		V186.2z"/>
	<path class="st0" d="M130.8,182.7c-0.3-0.2-1-0.4-1.5-0.4c-1.6,0-3.2,0.9-3.2,3.4v7.4H121v-15.9h5.1v3.5h0c0.5-2.5,2.4-3.8,4.5-3.8
		c0.5,0,1.1,0.1,1.5,0.2L130.8,182.7z"/>
	<path class="st0" d="M144.5,193.8c-0.9-0.2-2-0.9-2.5-2.1c-0.7,1.3-2.2,1.9-4.1,1.9c-2.8,0-5.3-2-5.3-5.3c0-2.9,2.3-4.9,5.4-5.2
		l3.2-0.3v-0.5c0-0.9-0.8-1.6-2.5-1.6c-1.5,0-3.3,0.5-4.4,1.2l-0.9-3.9c1.3-0.8,3.5-1.4,5.6-1.4c4.2,0,7.2,1.9,7.2,5.7v5.2
		c0,1.9,0.7,2.8,1.9,3.3L144.5,193.8z M141.2,186.2l-1.9,0.2c-1.3,0.1-1.9,1.1-1.9,2c0,0.8,0.6,1.5,1.6,1.5c1.2,0,2.2-0.9,2.2-2.3
		V186.2z"/>
	<path class="st0" d="M159.4,193.1v-9.7c0-1.2-0.8-2.2-2.3-2.2c-1.5,0-2.5,1-2.5,2.2v9.7h-5.1v-15.9h4.7v2.1h0
		c0.6-1.7,2.3-2.6,4.8-2.6c3.5,0,5.6,2,5.6,5.3v11H159.4z"/>
	<path class="st0" d="M177.8,181.4h-4.1v5.9c0,1.4,0.7,1.9,2.1,1.9c0.6,0,0.9,0,1.3-0.2l-0.5,3.9c-0.5,0.2-1.4,0.4-2.4,0.4
		c-3.6,0-5.7-1.9-5.7-5v-6.9h-2.7v-4.2h2.7v-3.4l5.1-1.9v5.3h5.1L177.8,181.4z"/>
	<path class="st0" d="M194.3,184.3l-2.3,2.3h-7.8c0.2,1.3,2,2.8,4.7,2.8c1.6,0,3.3-0.5,4.4-1.2l-0.5,4.4c-1.2,0.6-3,1-5,1
		c-4.8,0-8.7-3.4-8.7-8.5c0-5.1,3.7-8.4,8.3-8.4c4.4,0,7.1,3,7.1,6.3C194.4,183.4,194.3,183.9,194.3,184.3z M187.3,180.6
		c-1.5,0-2.8,1.2-3.1,2.6h5.4c0-0.1,0-0.2,0-0.4C189.6,181.7,188.7,180.6,187.3,180.6z"/>
	<path class="st0" d="M210.9,184.3l-2.3,2.3h-7.8c0.2,1.3,2,2.8,4.7,2.8c1.6,0,3.3-0.5,4.4-1.2l-0.5,4.4c-1.2,0.6-3,1-5,1
		c-4.8,0-8.7-3.4-8.7-8.5c0-5.1,3.7-8.4,8.3-8.4c4.4,0,7.1,3,7.1,6.3C211.1,183.4,211,183.9,210.9,184.3z M204,180.6
		c-1.5,0-2.8,1.2-3.1,2.6h5.4c0-0.1,0-0.2,0-0.4C206.3,181.7,205.3,180.6,204,180.6z"/>
	<path class="st0" d="M225,193.1v-2h0c-0.9,1.6-2.7,2.4-4.9,2.4c-3.9,0-7.6-2.9-7.6-8.4c0-5.1,3.6-8.4,8.1-8.4c1.7,0,3.4,0.6,4,1.1
		v-9.7h5v24.9H225z M224.5,182.7c-0.5-0.7-1.5-1.4-3.1-1.4c-2.2,0-3.8,1.8-3.8,4c0,2.3,1.6,4,3.8,4c1.5,0,2.6-0.8,3.1-1.6V182.7z"/>
</g>
<g>
	<path class="st0" d="M101.4,230.7c-3.3-0.1-5.4-1.8-5.4-5.6v-19.9h5.1v19.3c0,1.3,0.7,2,2.1,2.1L101.4,230.7z"/>
	<path class="st0" d="M107.5,212.1c-0.9,0-2.8-1.9-2.8-2.8s1.9-2.7,2.8-2.7c0.9,0,2.8,1.8,2.8,2.7S108.4,212.1,107.5,212.1z
		 M104.9,230.1v-15.9h5.2v15.9H104.9z"/>
	<path class="st0" d="M124.1,209.7c-0.6-0.2-1.4-0.4-2.1-0.4c-1.9,0-2.9,1.1-2.9,3.4v1.5h4.6l-1,4.2h-3.5v11.7h-5v-11.7h-2.4v-4.2
		h2.4v-1.9c0-4.8,3.1-7.2,7.1-7.2c1.5,0,2.9,0.2,3.7,0.5L124.1,209.7z"/>
	<path class="st0" d="M139.2,221.3l-2.3,2.3h-7.8c0.2,1.3,2,2.8,4.7,2.8c1.6,0,3.3-0.5,4.4-1.2l-0.5,4.4c-1.2,0.6-3,1-5,1
		c-4.8,0-8.7-3.4-8.7-8.5c0-5.1,3.7-8.4,8.3-8.4c4.4,0,7.1,3,7.1,6.3C139.4,220.4,139.3,220.9,139.2,221.3z M132.2,217.5
		c-1.5,0-2.8,1.2-3.1,2.6h5.4c0-0.1,0-0.2,0-0.4C134.6,218.7,133.6,217.5,132.2,217.5z"/>
	<path class="st0" d="M152.2,218.4h-4.1v5.9c0,1.4,0.7,1.9,2.1,1.9c0.6,0,0.9,0,1.3-0.2l-0.5,3.9c-0.5,0.2-1.4,0.4-2.4,0.4
		c-3.6,0-5.7-1.9-5.7-5v-6.9h-2.7v-4.2h2.7v-3.4l5.1-1.9v5.3h5.1L152.2,218.4z"/>
	<path class="st0" d="M157.2,212.1c-0.9,0-2.8-1.9-2.8-2.8s1.9-2.7,2.8-2.7s2.8,1.8,2.8,2.7S158.1,212.1,157.2,212.1z M154.6,230.1
		v-15.9h5.2v15.9H154.6z"/>
	<path class="st0" d="M182.3,230.1v-9.7c0-1.2-0.6-2.2-2.2-2.2c-1.6,0-2.4,1-2.4,2.2v9.7h-5.1v-9.7c0-1.2-0.6-2.2-2.2-2.2
		c-1.6,0-2.4,1-2.4,2.2v9.7h-5.1v-15.9h4.8v2.1h0c0.6-1.7,2.2-2.6,4.7-2.6c2.3,0,4,0.9,4.7,2.6c0.7-1.5,2.5-2.6,4.9-2.6
		c3.6,0,5.6,2,5.6,5.3v11H182.3z"/>
	<path class="st0" d="M204.8,221.3l-2.3,2.3h-7.8c0.2,1.3,2,2.8,4.7,2.8c1.6,0,3.3-0.5,4.4-1.2l-0.5,4.4c-1.2,0.6-3,1-5,1
		c-4.8,0-8.7-3.4-8.7-8.5c0-5.1,3.7-8.4,8.3-8.4c4.4,0,7.1,3,7.1,6.3C204.9,220.4,204.9,220.9,204.8,221.3z M197.8,217.5
		c-1.5,0-2.8,1.2-3.1,2.6h5.4c0-0.1,0-0.2,0-0.4C200.1,218.7,199.2,217.5,197.8,217.5z"/>
</g>
<g>
	<path class="st0" d="M68.6,249c-0.9,0-2.8-1.9-2.8-2.8s1.9-2.7,2.8-2.7c0.9,0,2.8,1.8,2.8,2.7S69.5,249,68.6,249z M66,267.1v-15.9
		h5.2v15.9H66z"/>
	<path class="st0" d="M84.2,267.1v-9.7c0-1.2-0.8-2.2-2.3-2.2c-1.5,0-2.5,1-2.5,2.2v9.7h-5.1v-15.9h4.7v2.1h0
		c0.6-1.7,2.3-2.6,4.8-2.6c3.5,0,5.6,2,5.6,5.3v11H84.2z"/>
	<path class="st0" d="M104.1,256.3c-1.1-0.7-2.1-1-3.4-1c-2.2,0-4,1.6-4,3.9c0,2.3,1.8,3.9,4.1,3.9c1.3,0,2.3-0.3,3.5-0.9l-0.5,4.4
		c-1,0.5-2.4,0.8-3.9,0.8c-4.4,0-8.6-3.2-8.6-8.3c0-5.2,4.2-8.3,8.5-8.3c2.1,0,3.8,0.4,5.2,1.2L104.1,256.3z"/>
	<path class="st0" d="M114.8,267.6c-4.8,0-8.6-3.4-8.6-8.4s3.9-8.4,8.6-8.4c4.8,0,8.6,3.4,8.6,8.4S119.6,267.6,114.8,267.6z
		 M114.8,255.2c-1.9,0-3.6,1.7-3.6,4s1.6,4,3.6,4c1.9,0,3.6-1.7,3.6-4S116.7,255.2,114.8,255.2z"/>
	<path class="st0" d="M145.2,267.1v-9.7c0-1.2-0.6-2.2-2.2-2.2c-1.6,0-2.4,1-2.4,2.2v9.7h-5.1v-9.7c0-1.2-0.6-2.2-2.2-2.2
		c-1.6,0-2.4,1-2.4,2.2v9.7h-5.1v-15.9h4.8v2.1h0c0.6-1.7,2.2-2.6,4.7-2.6c2.3,0,4,0.9,4.7,2.6c0.7-1.5,2.5-2.6,4.9-2.6
		c3.6,0,5.6,2,5.6,5.3v11H145.2z"/>
	<path class="st0" d="M167.7,258.3l-2.3,2.3h-7.8c0.2,1.3,2,2.8,4.7,2.8c1.6,0,3.3-0.5,4.4-1.2l-0.5,4.4c-1.2,0.6-3,1-5,1
		c-4.8,0-8.7-3.4-8.7-8.5c0-5.1,3.7-8.4,8.3-8.4c4.4,0,7.1,3,7.1,6.3C167.8,257.4,167.8,257.9,167.7,258.3z M160.7,254.5
		c-1.5,0-2.8,1.2-3.1,2.6h5.4c0-0.1,0-0.2,0-0.4C163,255.7,162.1,254.5,160.7,254.5z"/>
	<path class="st0" d="M188.2,255.4H184v5.9c0,1.4,0.7,1.9,2.1,1.9c0.6,0,0.9,0,1.3-0.2l-0.5,3.9c-0.5,0.2-1.4,0.4-2.4,0.4
		c-3.6,0-5.7-1.9-5.7-5v-6.9h-2.7v-4.2h2.7v-3.4l5.1-1.9v5.3h5.1L188.2,255.4z"/>
	<path class="st0" d="M200.6,267.1v-9.7c0-1.2-0.8-2.2-2.4-2.2c-1.5,0-2.5,1-2.5,2.2v9.7h-5.1v-24.9h5.1v10.5h0c0.8-1.2,2.3-2,4.5-2
		c3.5,0,5.6,2,5.6,5.3v11H200.6z"/>
	<path class="st0" d="M219.7,267.8c-0.9-0.2-2-0.9-2.5-2.1c-0.7,1.3-2.2,1.9-4.1,1.9c-2.8,0-5.3-2-5.3-5.3c0-2.9,2.3-4.9,5.4-5.2
		l3.2-0.3v-0.5c0-0.9-0.8-1.6-2.5-1.6c-1.5,0-3.3,0.5-4.4,1.2l-0.9-3.9c1.3-0.8,3.5-1.4,5.6-1.4c4.2,0,7.2,1.9,7.2,5.7v5.2
		c0,1.9,0.7,2.8,1.9,3.3L219.7,267.8z M216.4,260.1l-1.9,0.2c-1.3,0.1-1.9,1.1-1.9,2c0,0.8,0.6,1.5,1.6,1.5c1.2,0,2.2-0.9,2.2-2.3
		V260.1z"/>
	<path class="st0" d="M234.8,255.4h-4.1v5.9c0,1.4,0.7,1.9,2.1,1.9c0.6,0,0.9,0,1.3-0.2l-0.5,3.9c-0.5,0.2-1.4,0.4-2.4,0.4
		c-3.6,0-5.7-1.9-5.7-5v-6.9h-2.7v-4.2h2.7v-3.4l5.1-1.9v5.3h5.1L234.8,255.4z"/>
</g>
<g>
	<path class="st0" d="M87.3,304.1v-9.7c0-1.2-0.8-2.2-2.3-2.2c-1.5,0-2.5,1-2.5,2.2v9.7h-5.1v-15.9H82v2.1h0
		c0.6-1.7,2.3-2.6,4.8-2.6c3.5,0,5.6,2,5.6,5.3v11H87.3z"/>
	<path class="st0" d="M109.8,295.2l-2.3,2.3h-7.8c0.2,1.3,2,2.8,4.7,2.8c1.6,0,3.3-0.5,4.4-1.2l-0.5,4.4c-1.2,0.6-3,1.1-5,1.1
		c-4.8,0-8.7-3.4-8.7-8.5c0-5.1,3.7-8.4,8.3-8.4c4.4,0,7.1,3,7.1,6.3C110,294.4,109.9,294.9,109.8,295.2z M102.8,291.5
		c-1.5,0-2.8,1.2-3.1,2.6h5.4c0-0.1,0-0.2,0-0.4C105.2,292.7,104.2,291.5,102.8,291.5z"/>
	<path class="st0" d="M120.2,304.2h-3.9l-6.1-16h5l2.2,6.1c0.3,0.8,0.6,2,0.9,3.1h0.1c0.2-1,0.6-2.2,0.9-3.1l2.2-6.1h4.8
		L120.2,304.2z"/>
	<path class="st0" d="M141.5,295.2l-2.3,2.3h-7.8c0.2,1.3,2,2.8,4.7,2.8c1.6,0,3.3-0.5,4.4-1.2l-0.5,4.4c-1.2,0.6-3,1.1-5,1.1
		c-4.8,0-8.7-3.4-8.7-8.5c0-5.1,3.7-8.4,8.3-8.4c4.4,0,7.1,3,7.1,6.3C141.7,294.4,141.6,294.9,141.5,295.2z M134.6,291.5
		c-1.5,0-2.8,1.2-3.1,2.6h5.4c0-0.1,0-0.2,0-0.4C136.9,292.7,135.9,291.5,134.6,291.5z"/>
	<path class="st0" d="M153.6,293.7c-0.3-0.2-1-0.4-1.5-0.4c-1.6,0-3.2,0.9-3.2,3.4v7.4h-5.1v-15.9h5.1v3.5h0
		c0.5-2.5,2.4-3.8,4.5-3.8c0.5,0,1.1,0.1,1.5,0.2L153.6,293.7z"/>
	<path class="st0" d="M173.7,293.7c-0.3-0.2-1-0.4-1.5-0.4c-1.6,0-3.2,0.9-3.2,3.4v7.4h-5.1v-15.9h5.1v3.5h0
		c0.5-2.5,2.4-3.8,4.5-3.8c0.5,0,1.1,0.1,1.5,0.2L173.7,293.7z"/>
	<path class="st0" d="M186.6,304.1v-2.2h0c-0.6,1.7-2.3,2.6-4.9,2.6c-3.5,0-5.6-1.9-5.6-5.3v-11h5.1v9.7c0,1.2,0.8,2.2,2.4,2.2
		c1.5,0,2.5-1,2.5-2.3v-9.6h5.1v15.9H186.6z"/>
	<path class="st0" d="M204.2,304.1v-9.7c0-1.2-0.8-2.2-2.3-2.2c-1.5,0-2.5,1-2.5,2.2v9.7h-5.1v-15.9h4.7v2.1h0
		c0.6-1.7,2.3-2.6,4.8-2.6c3.5,0,5.6,2,5.6,5.3v11H204.2z"/>
	<path class="st0" d="M217.3,304.4c-2.2,0-3.7-0.5-5-1.1l-0.5-4.5c1.4,1,3.2,1.7,5,1.7c0.9,0,1.5-0.5,1.5-1.1c0-0.7-0.5-0.9-1.4-1.2
		c-3-0.9-4.9-2.4-4.9-5.2c0-3.1,2.5-5.1,6-5.1c2,0,3.9,0.5,4.7,0.9l-0.9,3.8c-0.8-0.4-2-0.9-3.3-0.9c-0.8,0-1.4,0.4-1.4,1
		c0,0.6,0.4,0.9,1.4,1.2c3.6,0.9,5,2.7,5,5.4C223.5,302,221.6,304.4,217.3,304.4z"/>
</g>
<g>
	<path class="st0" d="M131,341.6c-4.8,0-8.6-3.4-8.6-8.4c0-5,3.9-8.4,8.6-8.4c4.8,0,8.6,3.4,8.6,8.4
		C139.6,338.2,135.7,341.6,131,341.6z M131,329.2c-1.9,0-3.6,1.7-3.6,4c0,2.3,1.6,4,3.6,4c1.9,0,3.6-1.7,3.6-4
		C134.5,330.8,132.8,329.2,131,329.2z"/>
	<path class="st0" d="M152.2,341.1v-2.2h0c-0.6,1.7-2.3,2.6-4.9,2.6c-3.5,0-5.6-1.9-5.6-5.3v-11h5.1v9.7c0,1.2,0.8,2.2,2.4,2.2
		c1.5,0,2.5-1,2.5-2.3v-9.6h5.1v15.9H152.2z"/>
	<path class="st0" d="M170.4,329.4h-4.1v5.9c0,1.4,0.7,1.9,2.1,1.9c0.6,0,0.9,0,1.3-0.2l-0.5,3.9c-0.5,0.2-1.4,0.4-2.4,0.4
		c-3.6,0-5.7-1.9-5.7-5v-6.9h-2.7v-4.2h2.7v-3.4l5.1-1.9v5.3h5.1L170.4,329.4z"/>
	<path class="st0" d="M174.8,341.6c-0.9,0-2.9-2-2.9-2.9c0-0.9,2-2.9,2.9-2.9c0.9,0,2.9,2,2.9,2.9
		C177.7,339.6,175.8,341.6,174.8,341.6z"/>
</g>
</svg>
