<?xml version="1.0" encoding="utf-8"?>
<!-- Generator: Adobe Illustrator 24.0.0, SVG Export Plug-In . SVG Version: 6.00 Build 0)  -->
<svg version="1.1" id="Layer_1" xmlns="http://www.w3.org/2000/svg" xmlns:xlink="http://www.w3.org/1999/xlink" x="0px" y="0px"
	 viewBox="0 0 300 600" style="enable-background:new 0 0 300 600;" xml:space="preserve">
<style type="text/css">
	.st0{fill:#F9E039;}
</style>
<g>
	<path class="st0" d="M102.6,137.7c-1-0.6-2.8-1.2-4.6-1.2c-4,0-7.1,2.7-7.1,6.8c0,4.1,3.2,6.8,7.4,6.8c1.9,0,3.5-0.4,4.7-1
		l-0.5,4.7c-1.2,0.6-2.8,0.8-5.1,0.8c-5.8,0-12-3.9-12-11.5c0-7.6,6.2-11.5,12-11.5c2.8,0,4.9,0.6,6.3,1.4L102.6,137.7z"/>
	<path class="st0" d="M116.6,155.1c-0.9-0.2-2-0.9-2.5-2.1c-0.7,1.3-2.2,1.9-4.1,1.9c-2.8,0-5.3-2-5.3-5.3c0-2.9,2.3-4.9,5.4-5.2
		l3.2-0.3v-0.5c0-0.9-0.8-1.6-2.5-1.6c-1.5,0-3.3,0.5-4.4,1.2l-0.9-3.9c1.3-0.8,3.5-1.4,5.6-1.4c4.2,0,7.2,1.9,7.2,5.7v5.2
		c0,1.9,0.7,2.8,1.9,3.3L116.6,155.1z M113.3,147.5l-1.9,0.2c-1.3,0.1-1.9,1.1-1.9,2c0,0.8,0.6,1.5,1.6,1.5c1.2,0,2.2-0.9,2.2-2.3
		V147.5z"/>
	<path class="st0" d="M126.8,155.1c-3.3-0.1-5.4-1.8-5.4-5.6v-19.9h5.1v19.3c0,1.3,0.7,2,2.1,2.1L126.8,155.1z"/>
	<path class="st0" d="M142,143.7c-1.1-0.7-2.1-1-3.4-1c-2.2,0-4,1.6-4,3.9c0,2.3,1.8,3.9,4.1,3.9c1.3,0,2.3-0.3,3.5-0.9l-0.5,4.4
		c-1,0.5-2.4,0.8-3.9,0.8c-4.4,0-8.6-3.2-8.6-8.3c0-5.2,4.2-8.3,8.5-8.3c2.1,0,3.8,0.4,5.2,1.2L142,143.7z"/>
	<path class="st0" d="M155.4,154.4v-2.2h0c-0.6,1.7-2.3,2.6-4.9,2.6c-3.5,0-5.6-1.9-5.6-5.3v-11h5.1v9.7c0,1.2,0.8,2.2,2.4,2.2
		c1.5,0,2.5-1,2.5-2.3v-9.6h5.1v15.9H155.4z"/>
	<path class="st0" d="M168.5,155.1c-3.3-0.1-5.4-1.8-5.4-5.6v-19.9h5.1v19.3c0,1.3,0.7,2,2.1,2.1L168.5,155.1z"/>
	<path class="st0" d="M183.3,155.1c-0.9-0.2-2-0.9-2.5-2.1c-0.7,1.3-2.2,1.9-4.1,1.9c-2.8,0-5.3-2-5.3-5.3c0-2.9,2.3-4.9,5.4-5.2
		l3.2-0.3v-0.5c0-0.9-0.8-1.6-2.5-1.6c-1.5,0-3.3,0.5-4.4,1.2l-0.9-3.9c1.3-0.8,3.5-1.4,5.6-1.4c4.2,0,7.2,1.9,7.2,5.7v5.2
		c0,1.9,0.7,2.8,1.9,3.3L183.3,155.1z M180,147.5l-1.9,0.2c-1.3,0.1-1.9,1.1-1.9,2c0,0.8,0.6,1.5,1.6,1.5c1.2,0,2.2-0.9,2.2-2.3
		V147.5z"/>
	<path class="st0" d="M198.4,142.8h-4.1v5.9c0,1.4,0.7,1.9,2.1,1.9c0.6,0,0.9,0,1.3-0.2l-0.5,3.9c-0.5,0.2-1.4,0.4-2.4,0.4
		c-3.6,0-5.7-1.9-5.7-5v-6.9h-2.7v-4.2h2.7v-3.4l5.1-1.9v5.3h5.1L198.4,142.8z"/>
	<path class="st0" d="M214.9,145.6l-2.3,2.3h-7.8c0.2,1.3,2,2.8,4.7,2.8c1.6,0,3.3-0.5,4.4-1.2l-0.5,4.4c-1.2,0.6-3,1-5,1
		c-4.8,0-8.7-3.4-8.7-8.5c0-5.1,3.7-8.4,8.3-8.4c4.4,0,7.1,3,7.1,6.3C215,144.8,215,145.3,214.9,145.6z M207.9,141.9
		c-1.5,0-2.8,1.2-3.1,2.6h5.4c0-0.1,0-0.2,0-0.4C210.2,143.1,209.3,141.9,207.9,141.9z"/>
</g>
<g>
	<path class="st0" d="M128.6,189.9c-2.4,6.4-4.9,8.7-7.9,9.8l-3.2-3.2c2.6-1,4.5-2.8,5.8-6.2l-5.7-14.8h5l2.3,6.2
		c0.4,0.9,0.7,2,0.9,3.1h0.1c0.3-1.1,0.7-2.2,1-3.1l2.3-6.2h4.7L128.6,189.9z"/>
	<path class="st0" d="M142.6,191.9c-4.8,0-8.6-3.4-8.6-8.4s3.9-8.4,8.6-8.4c4.8,0,8.6,3.4,8.6,8.4S147.4,191.9,142.6,191.9z
		 M142.6,179.5c-1.9,0-3.6,1.7-3.6,4s1.6,4,3.6,4c1.9,0,3.6-1.7,3.6-4S144.5,179.5,142.6,179.5z"/>
	<path class="st0" d="M163.8,191.4v-2.2h0c-0.6,1.7-2.3,2.6-4.9,2.6c-3.5,0-5.6-1.9-5.6-5.3v-11h5.1v9.7c0,1.2,0.8,2.2,2.4,2.2
		c1.5,0,2.5-1,2.5-2.3v-9.6h5.1v15.9H163.8z"/>
	<path class="st0" d="M181.3,181c-0.3-0.2-1-0.4-1.5-0.4c-1.6,0-3.2,0.9-3.2,3.4v7.4h-5.1v-15.9h5.1v3.5h0c0.5-2.5,2.4-3.8,4.5-3.8
		c0.5,0,1.1,0.1,1.5,0.2L181.3,181z"/>
</g>
<g>
	<path class="st0" d="M45.7,229.1c-3.3-0.1-5.4-1.8-5.4-5.6v-19.9h5.1v19.3c0,1.3,0.7,2,2.1,2.1L45.7,229.1z"/>
	<path class="st0" d="M51.7,210.4c-0.9,0-2.8-1.9-2.8-2.8s1.9-2.7,2.8-2.7c0.9,0,2.8,1.8,2.8,2.7S52.6,210.4,51.7,210.4z
		 M49.1,228.4v-15.9h5.2v15.9H49.1z"/>
	<path class="st0" d="M68.4,208.1c-0.6-0.2-1.4-0.4-2.1-0.4c-1.9,0-2.9,1.1-2.9,3.4v1.5H68l-1,4.2h-3.5v11.7h-5v-11.7H56v-4.2h2.4
		v-1.9c0-4.8,3.1-7.2,7.1-7.2c1.5,0,2.9,0.2,3.7,0.5L68.4,208.1z"/>
	<path class="st0" d="M83.4,219.6l-2.3,2.3h-7.8c0.2,1.3,2,2.8,4.7,2.8c1.6,0,3.3-0.5,4.4-1.2l-0.5,4.4c-1.2,0.6-3,1-5,1
		c-4.8,0-8.7-3.4-8.7-8.5c0-5.1,3.7-8.4,8.3-8.4c4.4,0,7.1,3,7.1,6.3C83.6,218.8,83.5,219.3,83.4,219.6z M76.5,215.9
		c-1.5,0-2.8,1.2-3.1,2.6h5.4c0-0.1,0-0.2,0-0.4C78.8,217.1,77.8,215.9,76.5,215.9z"/>
	<path class="st0" d="M96.4,216.8h-4.1v5.9c0,1.4,0.7,1.9,2.1,1.9c0.6,0,0.9,0,1.3-0.2l-0.5,3.9c-0.5,0.2-1.4,0.4-2.4,0.4
		c-3.6,0-5.7-1.9-5.7-5v-6.9h-2.7v-4.2h2.7v-3.4l5.1-1.9v5.3h5.1L96.4,216.8z"/>
	<path class="st0" d="M101.4,210.4c-0.9,0-2.8-1.9-2.8-2.8s1.9-2.7,2.8-2.7c0.9,0,2.8,1.8,2.8,2.7S102.3,210.4,101.4,210.4z
		 M98.8,228.4v-15.9h5.2v15.9H98.8z"/>
	<path class="st0" d="M126.5,228.4v-9.7c0-1.2-0.6-2.2-2.2-2.2c-1.6,0-2.4,1-2.4,2.2v9.7h-5.1v-9.7c0-1.2-0.6-2.2-2.2-2.2
		c-1.6,0-2.4,1-2.4,2.2v9.7H107v-15.9h4.8v2.1h0c0.6-1.7,2.2-2.6,4.7-2.6c2.3,0,4,0.9,4.7,2.6c0.7-1.5,2.5-2.6,4.9-2.6
		c3.6,0,5.6,2,5.6,5.3v11H126.5z"/>
	<path class="st0" d="M149,219.6l-2.3,2.3H139c0.2,1.3,2,2.8,4.7,2.8c1.6,0,3.3-0.5,4.4-1.2l-0.5,4.4c-1.2,0.6-3,1-5,1
		c-4.8,0-8.7-3.4-8.7-8.5c0-5.1,3.7-8.4,8.3-8.4c4.4,0,7.1,3,7.1,6.3C149.2,218.8,149.1,219.3,149,219.6z M142.1,215.9
		c-1.5,0-2.8,1.2-3.1,2.6h5.4c0-0.1,0-0.2,0-0.4C144.4,217.1,143.4,215.9,142.1,215.9z"/>
	<path class="st0" d="M161.6,210.4c-0.9,0-2.8-1.9-2.8-2.8s1.9-2.7,2.8-2.7s2.8,1.8,2.8,2.7S162.5,210.4,161.6,210.4z M159,228.4
		v-15.9h5.2v15.9H159z"/>
	<path class="st0" d="M177.2,228.4v-9.7c0-1.2-0.8-2.2-2.3-2.2c-1.5,0-2.5,1-2.5,2.2v9.7h-5.1v-15.9h4.7v2.1h0
		c0.6-1.7,2.3-2.6,4.8-2.6c3.5,0,5.6,2,5.6,5.3v11H177.2z"/>
	<path class="st0" d="M197.2,217.7c-1-0.7-2.1-1-3.4-1c-2.2,0-4,1.6-4,3.9c0,2.3,1.8,3.9,4.1,3.9c1.3,0,2.3-0.3,3.5-0.9l-0.5,4.4
		c-1,0.5-2.4,0.8-3.9,0.8c-4.4,0-8.6-3.2-8.6-8.3c0-5.2,4.2-8.3,8.5-8.3c2.1,0,3.8,0.4,5.2,1.2L197.2,217.7z"/>
	<path class="st0" d="M207.9,228.9c-4.8,0-8.6-3.4-8.6-8.4s3.9-8.4,8.6-8.4c4.8,0,8.6,3.4,8.6,8.4S212.6,228.9,207.9,228.9z
		 M207.9,216.5c-1.9,0-3.6,1.7-3.6,4s1.6,4,3.6,4c1.9,0,3.6-1.7,3.6-4S209.8,216.5,207.9,216.5z"/>
	<path class="st0" d="M238.2,228.4v-9.7c0-1.2-0.6-2.2-2.2-2.2c-1.6,0-2.4,1-2.4,2.2v9.7h-5.1v-9.7c0-1.2-0.6-2.2-2.2-2.2
		c-1.6,0-2.4,1-2.4,2.2v9.7h-5.1v-15.9h4.8v2.1h0c0.6-1.7,2.2-2.6,4.7-2.6c2.3,0,4,0.9,4.7,2.6c0.7-1.5,2.5-2.6,4.9-2.6
		c3.6,0,5.6,2,5.6,5.3v11H238.2z"/>
	<path class="st0" d="M260.7,219.6l-2.3,2.3h-7.8c0.2,1.3,2,2.8,4.7,2.8c1.6,0,3.3-0.5,4.4-1.2l-0.5,4.4c-1.2,0.6-3,1-5,1
		c-4.8,0-8.7-3.4-8.7-8.5c0-5.1,3.7-8.4,8.3-8.4c4.4,0,7.1,3,7.1,6.3C260.8,218.8,260.8,219.3,260.7,219.6z M253.7,215.9
		c-1.5,0-2.8,1.2-3.1,2.6h5.4c0-0.1,0-0.2,0-0.4C256,217.1,255.1,215.9,253.7,215.9z"/>
</g>
<g>
	<path class="st0" d="M55.9,247.4c-0.9,0-2.8-1.9-2.8-2.8s1.9-2.7,2.8-2.7c0.9,0,2.8,1.8,2.8,2.7S56.8,247.4,55.9,247.4z
		 M53.3,265.4v-15.9h5.2v15.9H53.3z"/>
	<path class="st0" d="M71.5,265.4v-9.7c0-1.2-0.8-2.2-2.3-2.2c-1.5,0-2.5,1-2.5,2.2v9.7h-5.1v-15.9h4.7v2.1h0
		c0.6-1.7,2.3-2.6,4.8-2.6c3.5,0,5.6,2,5.6,5.3v11H71.5z"/>
	<path class="st0" d="M91.6,265.9c-1.3,0-3.1-0.3-4.2-0.8l-0.5-4.5c1.1,0.6,2.4,1,3.7,1c2.1,0,3.9-1,3.9-3.2c0-1.7-1.6-3-3.5-3
		c-0.2,0-0.4,0-0.7,0.1l-0.8-3.7c1.9-0.4,3.5-1.4,3.5-2.7c0-1.1-0.9-1.9-2.2-1.9c-1.2,0-2.2,0.4-3.2,0.9l-1-4.3
		c1.2-0.6,3-1.1,4.9-1.1c4.2,0,6.8,2.1,6.8,5.4c0,2.3-1.7,3.9-3.2,4.3c2.4,0.5,4.9,2.7,4.9,6.2C100.1,263.2,96.7,265.9,91.6,265.9z"
		/>
	<path class="st0" d="M110,266c-4.4,0-8.1-3.7-8.1-11.7c0-8,3.6-11.7,8.1-11.7c4.4,0,8,3.7,8,11.7C118.1,262.2,114.4,266,110,266z
		 M110,247c-1.6,0-2.9,2.5-2.9,7.3c0,4.9,1.4,7.3,2.9,7.3s2.9-2.3,2.9-7.3C113,249.4,111.6,247,110,247z"/>
	<path class="st0" d="M133.1,265.8c-2.2,0-3.7-0.5-5-1.1l-0.5-4.6c1.4,1,3.2,1.7,5,1.7c0.9,0,1.5-0.5,1.5-1.1c0-0.7-0.5-0.9-1.4-1.2
		c-3-0.9-4.9-2.4-4.9-5.2c0-3.1,2.5-5.1,6-5.1c2,0,3.9,0.5,4.7,0.9l-0.9,3.8c-0.8-0.4-2-0.9-3.3-0.9c-0.8,0-1.4,0.4-1.4,1
		c0,0.6,0.4,0.9,1.4,1.2c3.6,0.9,5,2.7,5,5.4C139.4,263.3,137.4,265.8,133.1,265.8z"/>
	<path class="st0" d="M155.8,256.6l-2.3,2.3h-7.8c0.2,1.3,2,2.8,4.7,2.8c1.6,0,3.3-0.5,4.4-1.2l-0.5,4.4c-1.2,0.6-3,1-5,1
		c-4.8,0-8.7-3.4-8.7-8.5c0-5.1,3.7-8.4,8.3-8.4c4.4,0,7.1,3,7.1,6.3C156,255.8,155.9,256.3,155.8,256.6z M148.9,252.9
		c-1.5,0-2.8,1.2-3.1,2.6h5.4c0-0.1,0-0.2,0-0.4C151.2,254.1,150.2,252.9,148.9,252.9z"/>
	<path class="st0" d="M170,254.7c-1-0.7-2.1-1-3.4-1c-2.2,0-4,1.6-4,3.9c0,2.3,1.8,3.9,4.1,3.9c1.3,0,2.3-0.3,3.5-0.9l-0.5,4.4
		c-1,0.5-2.4,0.8-3.9,0.8c-4.4,0-8.6-3.2-8.6-8.3c0-5.2,4.2-8.3,8.5-8.3c2.1,0,3.8,0.4,5.2,1.2L170,254.7z"/>
	<path class="st0" d="M180.6,265.9c-4.8,0-8.6-3.4-8.6-8.4s3.9-8.4,8.6-8.4c4.8,0,8.6,3.4,8.6,8.4S185.4,265.9,180.6,265.9z
		 M180.6,253.5c-1.9,0-3.6,1.7-3.6,4s1.6,4,3.6,4c1.9,0,3.6-1.7,3.6-4S182.5,253.5,180.6,253.5z"/>
	<path class="st0" d="M201.5,265.4v-9.7c0-1.2-0.8-2.2-2.3-2.2c-1.5,0-2.5,1-2.5,2.2v9.7h-5.1v-15.9h4.7v2.1h0
		c0.6-1.7,2.3-2.6,4.8-2.6c3.5,0,5.6,2,5.6,5.3v11H201.5z"/>
	<path class="st0" d="M221.3,265.4v-2h0c-0.9,1.6-2.7,2.4-4.9,2.4c-3.9,0-7.6-2.9-7.6-8.4c0-5.1,3.6-8.4,8.1-8.4
		c1.7,0,3.4,0.6,4,1.1v-9.7h5v24.9H221.3z M220.8,255c-0.5-0.7-1.5-1.4-3.1-1.4c-2.2,0-3.8,1.8-3.8,4c0,2.3,1.6,4,3.8,4
		c1.5,0,2.6-0.8,3.1-1.6V255z"/>
	<path class="st0" d="M233.9,265.8c-2.2,0-3.7-0.5-5-1.1l-0.5-4.6c1.4,1,3.2,1.7,5,1.7c0.9,0,1.5-0.5,1.5-1.1c0-0.7-0.5-0.9-1.4-1.2
		c-3-0.9-4.9-2.4-4.9-5.2c0-3.1,2.5-5.1,6-5.1c2,0,3.9,0.5,4.7,0.9l-0.9,3.8c-0.8-0.4-2-0.9-3.3-0.9c-0.8,0-1.4,0.4-1.4,1
		c0,0.6,0.4,0.9,1.4,1.2c3.6,0.9,5,2.7,5,5.4C240.1,263.3,238.1,265.8,233.9,265.8z"/>
	<path class="st0" d="M244.7,265.9c-0.9,0-2.9-2-2.9-2.9c0-0.9,2-2.9,2.9-2.9c0.9,0,2.9,2,2.9,2.9
		C247.6,264,245.7,265.9,244.7,265.9z"/>
</g>
</svg>
