<?xml version="1.0" encoding="utf-8"?>
<!-- Generator: Adobe Illustrator 24.0.0, SVG Export Plug-In . SVG Version: 6.00 Build 0)  -->
<svg version="1.1" id="Layer_1" xmlns="http://www.w3.org/2000/svg" xmlns:xlink="http://www.w3.org/1999/xlink" x="0px" y="0px"
	 viewBox="0 0 300 600" style="enable-background:new 0 0 300 600;" xml:space="preserve">
<style type="text/css">
	.st0{fill:#F9E039;}
</style>
<g>
	<path class="st0" d="M69.6,155.5l-6-8.8h-1.4v8.8H57v-22.3h8.2c3.8,0,7.2,2.6,7.2,6.8c0,2.6-1.5,4.7-3.4,5.6l7.1,10H69.6z
		 M64.3,137.5h-2.1v5h2.1c1.4,0,2.8-0.8,2.8-2.5C67.1,138.4,65.7,137.5,64.3,137.5z"/>
	<path class="st0" d="M90.4,146.7l-2.3,2.3h-7.8c0.2,1.3,2,2.8,4.7,2.8c1.6,0,3.3-0.5,4.4-1.2L89,155c-1.2,0.6-3,1-5,1
		c-4.8,0-8.7-3.4-8.7-8.5c0-5.1,3.7-8.4,8.3-8.4c4.4,0,7.1,3,7.1,6.3C90.6,145.8,90.5,146.4,90.4,146.7z M83.5,143
		c-1.5,0-2.8,1.2-3.1,2.6h5.4c0-0.1,0-0.2,0-0.4C85.8,144.1,84.8,143,83.5,143z"/>
	<path class="st0" d="M103.7,156.2c-0.9-0.2-2-0.9-2.5-2.1c-0.7,1.3-2.2,1.9-4.1,1.9c-2.8,0-5.3-2-5.3-5.3c0-2.9,2.3-4.9,5.4-5.2
		l3.2-0.3v-0.5c0-0.9-0.8-1.6-2.5-1.6c-1.5,0-3.3,0.5-4.4,1.2l-0.9-3.9c1.3-0.8,3.5-1.4,5.6-1.4c4.2,0,7.2,1.9,7.2,5.7v5.2
		c0,1.9,0.7,2.8,1.9,3.3L103.7,156.2z M100.4,148.6l-1.9,0.2c-1.3,0.1-1.9,1.1-1.9,2c0,0.8,0.6,1.5,1.6,1.5c1.2,0,2.2-0.9,2.2-2.3
		V148.6z"/>
	<path class="st0" d="M120.3,155.5v-2h0c-0.9,1.6-2.7,2.4-4.9,2.4c-3.9,0-7.6-2.9-7.6-8.4c0-5.1,3.6-8.4,8.1-8.4
		c1.7,0,3.4,0.6,4,1.1v-9.7h5v24.9H120.3z M119.8,145.1c-0.5-0.7-1.5-1.4-3.1-1.4c-2.2,0-3.8,1.8-3.8,4c0,2.3,1.6,4,3.8,4
		c1.5,0,2.6-0.8,3.1-1.6V145.1z"/>
	<path class="st0" d="M137.1,153.9c-2.4,6.4-4.9,8.7-7.9,9.8l-3.2-3.2c2.6-1,4.5-2.8,5.8-6.2l-5.7-14.8h5l2.3,6.2
		c0.4,0.9,0.7,2,0.9,3.1h0.1c0.3-1.1,0.7-2.2,1-3.1l2.3-6.2h4.7L137.1,153.9z"/>
	<path class="st0" d="M162.3,143.8h-4.1v5.9c0,1.4,0.7,1.9,2.1,1.9c0.6,0,0.9,0,1.3-0.2l-0.5,3.9c-0.5,0.2-1.4,0.4-2.4,0.4
		c-3.6,0-5.7-1.9-5.7-5v-6.9h-2.7v-4.2h2.7v-3.4l5.1-1.9v5.3h5.1L162.3,143.8z"/>
	<path class="st0" d="M172.2,156c-4.8,0-8.6-3.4-8.6-8.4s3.9-8.4,8.6-8.4c4.8,0,8.6,3.4,8.6,8.4S177,156,172.2,156z M172.2,143.6
		c-1.9,0-3.6,1.7-3.6,4s1.6,4,3.6,4c1.9,0,3.6-1.7,3.6-4S174.1,143.6,172.2,143.6z"/>
	<path class="st0" d="M197.7,163.6c-4.6,0-7.7-2.6-7.7-6c0-2.4,1.6-3.9,3.3-4.3l-2-2c0.1-1,1-1.9,1.9-2.3c-1.2-0.7-2.3-2.2-2.3-4.2
		c0-3.4,2.4-5.7,6.5-5.7c0.9,0,1.7,0.1,2.3,0.3c0.7,0.2,1.5,0.3,2.3,0.3c0.9,0,1.8-0.2,2.5-0.5l0.9,3.9c-0.5,0.3-1.3,0.5-2,0.5
		c0.2,0.3,0.4,1.1,0.4,1.6c0,2.7-2.1,4.9-5.2,5.1c-0.6,0-1,0.2-1,0.6c0,0.2,0.1,0.4,0.4,0.5l2.5,0.9c3.1,1.1,4.8,2.7,4.8,5.6
		C205.3,161.1,202.3,163.6,197.7,163.6z M198.8,156.1l-1.9-0.5c-1.2,0-2.1,0.9-2.1,2.1c0,1.1,0.9,2,2.8,2c1.8,0,2.8-0.8,2.8-1.8
		C200.4,157.2,199.8,156.4,198.8,156.1z M197.4,142.9c-1.2,0-2,0.9-2,1.9c0,1.1,0.9,1.9,2,1.9c1.1,0,2-0.8,2-1.9
		C199.4,143.7,198.6,142.9,197.4,142.9z"/>
	<path class="st0" d="M209.7,137.5c-0.9,0-2.8-1.9-2.8-2.8s1.9-2.7,2.8-2.7s2.8,1.8,2.8,2.7S210.6,137.5,209.7,137.5z M207.1,155.5
		v-15.9h5.2v15.9H207.1z"/>
	<path class="st0" d="M223.6,155.6h-3.9l-6.1-16h5l2.2,6.1c0.3,0.8,0.6,2,0.9,3.1h0.1c0.2-1,0.6-2.2,0.9-3.1l2.2-6.1h4.8
		L223.6,155.6z"/>
	<path class="st0" d="M244.9,146.7l-2.3,2.3h-7.8c0.2,1.3,2,2.8,4.7,2.8c1.6,0,3.3-0.5,4.4-1.2l-0.5,4.4c-1.2,0.6-3,1-5,1
		c-4.8,0-8.7-3.4-8.7-8.5c0-5.1,3.7-8.4,8.3-8.4c4.4,0,7.1,3,7.1,6.3C245.1,145.8,245,146.4,244.9,146.7z M238,143
		c-1.5,0-2.8,1.2-3.1,2.6h5.4c0-0.1,0-0.2,0-0.4C240.3,144.1,239.3,143,238,143z"/>
</g>
<g>
	<path class="st0" d="M48.4,190.9c-2.4,6.4-4.9,8.7-7.9,9.8l-3.2-3.2c2.6-1,4.5-2.8,5.8-6.2l-5.7-14.8h5l2.3,6.2
		c0.4,0.9,0.7,2,0.9,3.1h0.1c0.3-1.1,0.7-2.2,1-3.1l2.3-6.2h4.7L48.4,190.9z"/>
	<path class="st0" d="M62.4,193c-4.8,0-8.6-3.4-8.6-8.4s3.9-8.4,8.6-8.4c4.8,0,8.6,3.4,8.6,8.4S67.2,193,62.4,193z M62.4,180.6
		c-1.9,0-3.6,1.7-3.6,4s1.6,4,3.6,4c1.9,0,3.6-1.7,3.6-4S64.3,180.6,62.4,180.6z"/>
	<path class="st0" d="M83.6,192.5v-2.2h0c-0.6,1.7-2.3,2.6-4.9,2.6c-3.5,0-5.6-1.9-5.6-5.3v-11h5.1v9.7c0,1.2,0.8,2.2,2.4,2.2
		c1.5,0,2.5-1,2.5-2.3v-9.6h5.1v15.9H83.6z"/>
	<path class="st0" d="M101.1,182.1c-0.3-0.2-1-0.4-1.5-0.4c-1.6,0-3.2,0.9-3.2,3.4v7.4h-5.1v-15.9h5.1v3.5h0
		c0.5-2.5,2.4-3.8,4.5-3.8c0.5,0,1.1,0.1,1.5,0.2L101.1,182.1z"/>
	<path class="st0" d="M121.1,182.1c-0.3-0.2-1-0.4-1.5-0.4c-1.6,0-3.2,0.9-3.2,3.4v7.4h-5.1v-15.9h5.1v3.5h0
		c0.5-2.5,2.4-3.8,4.5-3.8c0.5,0,1.1,0.1,1.5,0.2L121.1,182.1z"/>
	<path class="st0" d="M137.8,183.7l-2.3,2.3h-7.8c0.2,1.3,2,2.8,4.7,2.8c1.6,0,3.3-0.5,4.4-1.2l-0.5,4.4c-1.2,0.6-3,1-5,1
		c-4.8,0-8.7-3.4-8.7-8.5c0-5.1,3.7-8.4,8.3-8.4c4.4,0,7.1,3,7.1,6.3C138,182.8,137.9,183.3,137.8,183.7z M130.9,180
		c-1.5,0-2.8,1.2-3.1,2.6h5.4c0-0.1,0-0.2,0-0.4C133.2,181.1,132.2,180,130.9,180z"/>
	<path class="st0" d="M150.8,180.8h-4.1v5.9c0,1.4,0.7,1.9,2.1,1.9c0.6,0,0.9,0,1.3-0.2l-0.5,3.9c-0.5,0.2-1.4,0.4-2.4,0.4
		c-3.6,0-5.7-1.9-5.7-5v-6.9h-2.7v-4.2h2.7v-3.4l5.1-1.9v5.3h5.1L150.8,180.8z"/>
	<path class="st0" d="M155.8,174.5c-0.9,0-2.8-1.9-2.8-2.8s1.9-2.7,2.8-2.7s2.8,1.8,2.8,2.7S156.7,174.5,155.8,174.5z M153.2,192.5
		v-15.9h5.2v15.9H153.2z"/>
	<path class="st0" d="M171.2,182.1c-0.3-0.2-1-0.4-1.5-0.4c-1.6,0-3.2,0.9-3.2,3.4v7.4h-5.1v-15.9h5.1v3.5h0
		c0.5-2.5,2.4-3.8,4.5-3.8c0.5,0,1.1,0.1,1.5,0.2L171.2,182.1z"/>
	<path class="st0" d="M188,183.7l-2.3,2.3h-7.8c0.2,1.3,2,2.8,4.7,2.8c1.6,0,3.3-0.5,4.4-1.2l-0.5,4.4c-1.2,0.6-3,1-5,1
		c-4.8,0-8.7-3.4-8.7-8.5c0-5.1,3.7-8.4,8.3-8.4c4.4,0,7.1,3,7.1,6.3C188.1,182.8,188,183.3,188,183.7z M181,180
		c-1.5,0-2.8,1.2-3.1,2.6h5.4c0-0.1,0-0.2,0-0.4C183.3,181.1,182.4,180,181,180z"/>
	<path class="st0" d="M209.8,192.5v-9.7c0-1.2-0.6-2.2-2.2-2.2c-1.6,0-2.4,1-2.4,2.2v9.7H200v-9.7c0-1.2-0.6-2.2-2.2-2.2
		c-1.6,0-2.4,1-2.4,2.2v9.7h-5.1v-15.9h4.8v2.1h0c0.6-1.7,2.2-2.6,4.7-2.6c2.3,0,4,0.9,4.7,2.6c0.7-1.5,2.5-2.6,4.9-2.6
		c3.6,0,5.6,2,5.6,5.3v11H209.8z"/>
	<path class="st0" d="M232.3,183.7L230,186h-7.8c0.2,1.3,2,2.8,4.7,2.8c1.6,0,3.3-0.5,4.4-1.2l-0.5,4.4c-1.2,0.6-3,1-5,1
		c-4.8,0-8.7-3.4-8.7-8.5c0-5.1,3.7-8.4,8.3-8.4c4.4,0,7.1,3,7.1,6.3C232.4,182.8,232.3,183.3,232.3,183.7z M225.3,180
		c-1.5,0-2.8,1.2-3.1,2.6h5.4c0-0.1,0-0.2,0-0.4C227.6,181.1,226.7,180,225.3,180z"/>
	<path class="st0" d="M244.6,192.5v-9.7c0-1.2-0.8-2.2-2.3-2.2c-1.5,0-2.5,1-2.5,2.2v9.7h-5.1v-15.9h4.7v2.1h0
		c0.6-1.7,2.3-2.6,4.8-2.6c3.5,0,5.6,2,5.6,5.3v11H244.6z"/>
	<path class="st0" d="M262.9,180.8h-4.1v5.9c0,1.4,0.7,1.9,2.1,1.9c0.6,0,0.9,0,1.3-0.2l-0.5,3.9c-0.5,0.2-1.4,0.4-2.4,0.4
		c-3.6,0-5.7-1.9-5.7-5v-6.9H251v-4.2h2.7v-3.4l5.1-1.9v5.3h5.1L262.9,180.8z"/>
</g>
<g>
	<path class="st0" d="M95,229.8c-2.2,0-3.7-0.5-5-1.1l-0.5-4.6c1.4,1,3.2,1.7,5,1.7c0.9,0,1.5-0.5,1.5-1.1c0-0.7-0.5-0.9-1.4-1.2
		c-3-0.9-4.9-2.4-4.9-5.2c0-3.1,2.5-5.1,6-5.1c2,0,3.9,0.5,4.7,0.9l-0.9,3.8c-0.8-0.4-2-0.9-3.3-0.9c-0.8,0-1.4,0.4-1.4,1
		c0,0.6,0.4,0.9,1.4,1.2c3.6,0.9,5,2.7,5,5.4C101.2,227.4,99.2,229.8,95,229.8z"/>
	<path class="st0" d="M114.5,230.2c-0.9-0.2-2-0.9-2.5-2.1c-0.7,1.3-2.2,1.9-4.1,1.9c-2.8,0-5.3-2-5.3-5.3c0-2.9,2.3-4.9,5.4-5.2
		l3.2-0.3v-0.5c0-0.9-0.8-1.6-2.5-1.6c-1.5,0-3.3,0.5-4.4,1.2l-0.9-3.9c1.3-0.8,3.5-1.4,5.6-1.4c4.2,0,7.2,1.9,7.2,5.7v5.2
		c0,1.9,0.7,2.8,1.9,3.3L114.5,230.2z M111.2,222.5l-1.9,0.2c-1.3,0.1-1.9,1.1-1.9,2c0,0.8,0.6,1.5,1.6,1.5c1.2,0,2.2-0.9,2.2-2.3
		V222.5z"/>
	<path class="st0" d="M127.2,229.6h-3.9l-6.1-16h5l2.2,6.1c0.3,0.8,0.6,2,0.9,3.1h0.1c0.2-1,0.6-2.2,0.9-3.1l2.2-6.1h4.8
		L127.2,229.6z"/>
	<path class="st0" d="M137.3,211.5c-0.9,0-2.8-1.9-2.8-2.8s1.9-2.7,2.8-2.7c0.9,0,2.8,1.8,2.8,2.7S138.2,211.5,137.3,211.5z
		 M134.7,229.5v-15.9h5.2v15.9H134.7z"/>
	<path class="st0" d="M152.9,229.5v-9.7c0-1.2-0.8-2.2-2.3-2.2c-1.5,0-2.5,1-2.5,2.2v9.7h-5.1v-15.9h4.7v2.1h0
		c0.6-1.7,2.3-2.6,4.8-2.6c3.5,0,5.6,2,5.6,5.3v11H152.9z"/>
	<path class="st0" d="M167.5,237.6c-4.6,0-7.7-2.6-7.7-6c0-2.4,1.6-3.9,3.3-4.3l-2-2c0.1-1,1-1.9,1.9-2.3c-1.2-0.7-2.3-2.2-2.3-4.2
		c0-3.4,2.4-5.7,6.5-5.7c0.9,0,1.7,0.1,2.3,0.3c0.7,0.2,1.5,0.3,2.3,0.3c0.9,0,1.8-0.2,2.5-0.5l0.9,3.9c-0.5,0.3-1.3,0.5-2,0.5
		c0.2,0.3,0.4,1.1,0.4,1.6c0,2.7-2.1,4.9-5.2,5.1c-0.6,0-1,0.2-1,0.6c0,0.2,0.1,0.4,0.4,0.5l2.5,0.9c3.1,1.1,4.8,2.7,4.8,5.6
		C175.1,235.1,172.1,237.6,167.5,237.6z M168.6,230.1l-1.9-0.5c-1.2,0-2.1,0.9-2.1,2.1c0,1.1,0.9,2,2.8,2c1.8,0,2.8-0.8,2.8-1.8
		C170.1,231.2,169.6,230.4,168.6,230.1z M167.2,216.8c-1.2,0-2,0.9-2,1.9c0,1.1,0.9,1.9,2,1.9c1.1,0,2-0.8,2-1.9
		C169.2,217.7,168.4,216.8,167.2,216.8z"/>
	<path class="st0" d="M181.9,229.8c-2.2,0-3.7-0.5-5-1.1l-0.5-4.6c1.4,1,3.2,1.7,5,1.7c0.9,0,1.5-0.5,1.5-1.1c0-0.7-0.5-0.9-1.4-1.2
		c-3-0.9-4.9-2.4-4.9-5.2c0-3.1,2.5-5.1,6-5.1c2,0,3.9,0.5,4.7,0.9l-0.9,3.8c-0.8-0.4-2-0.9-3.3-0.9c-0.8,0-1.4,0.4-1.4,1
		c0,0.6,0.4,0.9,1.4,1.2c3.6,0.9,5,2.7,5,5.4C188.1,227.4,186.1,229.8,181.9,229.8z"/>
	<path class="st0" d="M209,230.2c-0.9-0.2-2-0.9-2.5-2.1c-0.7,1.3-2.2,1.9-4.1,1.9c-2.8,0-5.3-2-5.3-5.3c0-2.9,2.3-4.9,5.4-5.2
		l3.2-0.3v-0.5c0-0.9-0.8-1.6-2.5-1.6c-1.5,0-3.3,0.5-4.4,1.2l-0.9-3.9c1.3-0.8,3.5-1.4,5.6-1.4c4.2,0,7.2,1.9,7.2,5.7v5.2
		c0,1.9,0.7,2.8,1.9,3.3L209,230.2z M205.7,222.5l-1.9,0.2c-1.3,0.1-1.9,1.1-1.9,2c0,0.8,0.6,1.5,1.6,1.5c1.2,0,2.2-0.9,2.2-2.3
		V222.5z"/>
</g>
<g>
	<path class="st0" d="M73.6,266.6h-3.5l-2.1-6.3c-0.3-1-0.6-2.1-0.9-3.3H67c-0.2,1.2-0.6,2.3-0.9,3.3l-2.1,6.3h-3.4l-5.5-16h4.7l2,6
		c0.3,0.9,0.6,2,0.8,3h0.1c0.2-1,0.5-2.1,0.8-3l2-6h3.9l2,6c0.3,1,0.5,2.1,0.7,3.1H72c0.2-1,0.5-2.1,0.8-3.1l2-6h4.4L73.6,266.6z"/>
	<path class="st0" d="M91.7,267.2c-0.9-0.2-2-0.9-2.5-2.1c-0.7,1.3-2.2,1.9-4.1,1.9c-2.8,0-5.3-2-5.3-5.3c0-2.9,2.3-4.9,5.4-5.2
		l3.2-0.3v-0.5c0-0.9-0.8-1.6-2.5-1.6c-1.5,0-3.3,0.5-4.4,1.2l-0.9-3.9c1.3-0.8,3.5-1.4,5.6-1.4c4.2,0,7.2,1.9,7.2,5.7v5.2
		c0,1.9,0.7,2.8,1.9,3.3L91.7,267.2z M88.4,259.5l-1.9,0.2c-1.3,0.1-1.9,1.1-1.9,2c0,0.8,0.6,1.5,1.6,1.5c1.2,0,2.2-0.9,2.2-2.3
		V259.5z"/>
	<path class="st0" d="M106.5,266.5l-4.7-6.4h0v6.4h-5.1v-24.9h5.1v15.5h0l4.8-6.4h5.6l-5.6,7.7l5.9,8.2H106.5z"/>
	<path class="st0" d="M127.5,257.7l-2.3,2.3h-7.8c0.2,1.3,2,2.8,4.7,2.8c1.6,0,3.3-0.5,4.4-1.2l-0.5,4.4c-1.2,0.6-3,1-5,1
		c-4.8,0-8.7-3.4-8.7-8.5c0-5.1,3.7-8.4,8.3-8.4c4.4,0,7.1,3,7.1,6.3C127.6,256.8,127.5,257.3,127.5,257.7z M120.5,253.9
		c-1.5,0-2.8,1.2-3.1,2.6h5.4c0-0.1,0-0.2,0-0.4C122.8,255.1,121.9,253.9,120.5,253.9z"/>
	<path class="st0" d="M129.7,258.8v-3.9h9.2v3.9H129.7z"/>
	<path class="st0" d="M152,266.5v-2.2h0c-0.6,1.7-2.3,2.6-4.9,2.6c-3.5,0-5.6-1.9-5.6-5.3v-11h5.1v9.7c0,1.2,0.8,2.2,2.4,2.2
		c1.5,0,2.5-1,2.5-2.3v-9.6h5.1v15.9H152z"/>
	<path class="st0" d="M168.6,266.9c-1.7,0-3.4-0.5-4-1.1v8.7h-5v-23.9h4.5v2h0c0.9-1.6,2.7-2.4,4.9-2.4c3.9,0,7.6,2.9,7.6,8.4
		C176.7,263.6,173,266.9,168.6,266.9z M167.7,254.6c-1.5,0-2.6,0.8-3.1,1.6v5c0.5,0.7,1.5,1.4,3.1,1.4c2.2,0,3.8-1.7,3.8-4
		C171.5,256.4,169.9,254.6,167.7,254.6z"/>
	<path class="st0" d="M198.5,255.7c-1-0.7-2.1-1-3.4-1c-2.2,0-4,1.6-4,3.9c0,2.3,1.8,3.9,4.1,3.9c1.3,0,2.3-0.3,3.5-0.9l-0.5,4.4
		c-1,0.5-2.4,0.8-3.9,0.8c-4.4,0-8.6-3.2-8.6-8.3c0-5.2,4.2-8.3,8.5-8.3c2.1,0,3.8,0.4,5.2,1.2L198.5,255.7z"/>
	<path class="st0" d="M212.6,267.2c-0.9-0.2-2-0.9-2.5-2.1c-0.7,1.3-2.2,1.9-4.1,1.9c-2.8,0-5.3-2-5.3-5.3c0-2.9,2.3-4.9,5.4-5.2
		l3.2-0.3v-0.5c0-0.9-0.8-1.6-2.5-1.6c-1.5,0-3.3,0.5-4.4,1.2l-0.9-3.9c1.3-0.8,3.5-1.4,5.6-1.4c4.2,0,7.2,1.9,7.2,5.7v5.2
		c0,1.9,0.7,2.8,1.9,3.3L212.6,267.2z M209.3,259.5l-1.9,0.2c-1.3,0.1-1.9,1.1-1.9,2c0,0.8,0.6,1.5,1.6,1.5c1.2,0,2.2-0.9,2.2-2.3
		V259.5z"/>
	<path class="st0" d="M222.8,267.1c-3.3-0.1-5.4-1.8-5.4-5.6v-19.9h5.1v19.3c0,1.3,0.7,2,2.1,2.1L222.8,267.1z"/>
	<path class="st0" d="M231.6,267.1c-3.3-0.1-5.4-1.8-5.4-5.6v-19.9h5.1v19.3c0,1.3,0.7,2,2.1,2.1L231.6,267.1z"/>
	<path class="st0" d="M242.4,255.5c-0.9,1-1.2,1.8-1.2,2.8c0,0.5,0,1.1,0.1,1.5l-4.4-0.9c-0.2-0.7-0.2-1.2-0.2-1.8
		c0-1.9,0.7-3.5,2-4.8c0.9-0.9,1.4-1.6,1.4-2.6c0-0.7-0.7-1.6-1.9-1.6c-1.3,0-2.4,0.5-3.6,1.2l-1-4.3c1.3-0.8,3-1.3,5-1.3
		c4.1,0,6.9,2.4,6.9,5.9C245.4,251.6,244.5,253.2,242.4,255.5z M239.3,267c-0.9,0-2.9-2-2.9-2.9c0-0.9,2-2.9,2.9-2.9
		c0.9,0,2.9,2,2.9,2.9C242.2,265,240.2,267,239.3,267z"/>
</g>
</svg>
