<?xml version="1.0" encoding="utf-8"?>
<!-- Generator: Adobe Illustrator 24.0.0, SVG Export Plug-In . SVG Version: 6.00 Build 0)  -->
<svg version="1.1" id="Layer_1" xmlns="http://www.w3.org/2000/svg" xmlns:xlink="http://www.w3.org/1999/xlink" x="0px" y="0px"
	 viewBox="0 0 300 600" style="enable-background:new 0 0 300 600;" xml:space="preserve">
<style type="text/css">
	.st0{fill:#3ABFEF;}
</style>
<path class="st0" d="M67.8,460c-7.2,0-13,5.8-13,13v12.8c0,7.2,5.8,13,13,13h164.5c7.2,0,13-5.8,13-13V473c0-7.2-5.8-13-13-13H67.8z
	"/>
<g>
	<path d="M81.6,480.5v-2h4.5v5.9H85l-0.4-1.3c-0.8,1-1.7,1.4-3,1.4c-3.2,0-4.5-2.7-4.5-5.6c0-3,1.5-5.7,4.8-5.7c2.4,0,4,1.4,4.3,3.8
		l-2.4,0.3c-0.1-1.1-0.7-2-1.9-2c-1.8,0-2.1,2.4-2.1,3.7c0,1.4,0.4,3.4,2.2,3.4c1.1,0,1.9-0.8,1.8-1.9H81.6z"/>
	<path d="M88.8,482.7c-0.8-1.1-1.2-2.6-1.2-3.9c0-2.9,1.5-5.6,4.7-5.6c1.5,0,2.6,0.5,3.5,1.7c0.8,1.1,1.2,2.6,1.2,4
		c0,1.2-0.3,2.8-1,3.8c-0.8,1.2-2.1,1.9-3.6,1.9C90.9,484.5,89.7,483.9,88.8,482.7z M90.7,476.5c-0.3,0.7-0.4,1.6-0.4,2.3
		c0,1.4,0.2,3.6,2,3.6c0.9,0,1.4-0.4,1.6-1.2c0.3-0.7,0.3-1.6,0.3-2.3c0-0.8-0.1-1.7-0.4-2.5c-0.3-0.7-0.8-1.1-1.6-1.1
		C91.5,475.2,91,475.7,90.7,476.5z"/>
	<path d="M110.8,475.5h-2.8v8.8h-2.6v-8.8h-2.8v-2.2h8.1V475.5z"/>
	<path d="M112.8,482.7c-0.8-1.1-1.2-2.6-1.2-3.9c0-2.9,1.5-5.6,4.7-5.6c1.5,0,2.6,0.5,3.5,1.7c0.8,1.1,1.2,2.6,1.2,4
		c0,1.2-0.3,2.8-1,3.8c-0.8,1.2-2.1,1.9-3.6,1.9C114.9,484.5,113.7,483.9,112.8,482.7z M114.7,476.5c-0.3,0.7-0.4,1.6-0.4,2.3
		c0,1.4,0.2,3.6,2,3.6c0.9,0,1.4-0.4,1.6-1.2c0.3-0.7,0.3-1.6,0.3-2.3c0-0.8-0.1-1.7-0.4-2.5c-0.3-0.7-0.8-1.1-1.6-1.1
		C115.5,475.2,115,475.7,114.7,476.5z"/>
	<path d="M133.7,477.6c0-1.2-0.4-2.4-1.8-2.4c-1.8,0-2,2.4-2,3.7c0,1.5,0.2,3.4,2.1,3.4c1.2,0,1.8-1,1.9-2.1l2.5,0.2
		c-0.3,2.5-2,4-4.5,4c-3.3,0-4.9-2.7-4.9-5.7c0-3,1.6-5.7,4.9-5.7c2.8,0,4.2,1.6,4.4,4.2L133.7,477.6z"/>
	<path d="M147.1,484.3h-2.8l-0.7-2.3h-3.6l-0.7,2.3h-2.3l3.5-11h3L147.1,484.3z M143.1,480l-1.2-3.9l-1.2,3.9H143.1z"/>
	<path d="M155.2,482.1v2.2h-7v-11h2.6v8.8H155.2z"/>
	<path d="M162.5,477.6c0-1.2-0.4-2.4-1.8-2.4c-1.8,0-2,2.4-2,3.7c0,1.5,0.2,3.4,2.1,3.4c1.2,0,1.8-1,1.9-2.1l2.5,0.2
		c-0.3,2.5-2,4-4.5,4c-3.3,0-4.8-2.7-4.8-5.7c0-3,1.6-5.7,4.9-5.7c2.8,0,4.2,1.6,4.5,4.2L162.5,477.6z"/>
	<path d="M175.5,480c0,1.2,0,2.4-0.9,3.3c-0.9,0.9-2.2,1.2-3.4,1.2c-1.2,0-2.5-0.2-3.4-0.9c-1.1-0.9-1.1-2.2-1.1-3.6v-6.6h2.8v6.6
		c0,0.5,0,1.2,0.2,1.7c0.3,0.6,1,0.7,1.6,0.7c0.5,0,1.3-0.2,1.6-0.6c0.4-0.5,0.3-1.3,0.3-1.8v-6.6h2.2V480z"/>
	<path d="M184.3,482.1v2.2h-7v-11h2.6v8.8H184.3z"/>
	<path d="M194.5,484.3h-2.8L191,482h-3.6l-0.7,2.3h-2.3l3.5-11h3L194.5,484.3z M190.4,480l-1.2-3.9l-1.2,3.9H190.4z"/>
	<path d="M201.9,475.5h-2.8v8.8h-2.6v-8.8h-2.8v-2.2h8.1V475.5z"/>
	<path d="M204,482.7c-0.8-1.1-1.2-2.6-1.2-3.9c0-2.9,1.5-5.6,4.7-5.6c1.5,0,2.6,0.5,3.5,1.7c0.8,1.1,1.2,2.6,1.2,4
		c0,1.2-0.3,2.8-1,3.8c-0.8,1.2-2.1,1.9-3.6,1.9C206,484.5,204.8,483.9,204,482.7z M205.8,476.5c-0.3,0.7-0.4,1.6-0.4,2.3
		c0,1.4,0.2,3.6,2,3.6c0.9,0,1.4-0.4,1.6-1.2c0.3-0.7,0.3-1.6,0.3-2.3c0-0.8-0.1-1.7-0.4-2.5c-0.3-0.7-0.8-1.1-1.6-1.1
		C206.6,475.2,206.2,475.7,205.8,476.5z"/>
	<path d="M216.4,484.3h-2.6v-11h4.6c1,0,2,0,2.8,0.6c0.9,0.6,1.4,1.7,1.4,2.7c0,1.2-0.7,2.4-1.9,2.8l2,4.8H220l-1.7-4.3h-1.9V484.3z
		 M216.4,478.1h1.4c0.5,0,1.1,0,1.6-0.2c0.4-0.3,0.6-0.8,0.6-1.2c0-0.4-0.3-0.9-0.6-1.1c-0.4-0.3-1.2-0.2-1.6-0.2h-1.3V478.1z"/>
</g>
</svg>
