<?xml version="1.0" encoding="utf-8"?>
<!-- Generator: Adobe Illustrator 24.0.0, SVG Export Plug-In . SVG Version: 6.00 Build 0)  -->
<svg version="1.1" id="Layer_1" xmlns="http://www.w3.org/2000/svg" xmlns:xlink="http://www.w3.org/1999/xlink" x="0px" y="0px"
	 viewBox="0 0 300 600" style="enable-background:new 0 0 300 600;" xml:space="preserve">
<style type="text/css">
	.st0{fill:#FFFFFF;}
	.st1{clip-path:url(#SVGID_2_);fill:#FFFFFF;}
	.st2{clip-path:url(#SVGID_4_);fill:url(#SVGID_5_);}
	.st3{clip-path:url(#SVGID_7_);fill:url(#SVGID_8_);}
	.st4{clip-path:url(#SVGID_10_);fill:url(#SVGID_11_);}
</style>
<path class="st0" d="M151.2,50.3V55h-8.4v22.8h-5.3V55H129v-4.8H151.2z M153.4,77.8h5.3V64.1V50.3h-5.3v13.8V77.8z M186.3,77.8h-5.5
	l-2.8-6.8h-9.3l-2.8,6.8h-5.4l11.7-27.9h2.3L186.3,77.8z M212.1,77.8h-5.5l-2.8-6.8h-9.3l-2.8,6.8h-5.4L198,49.9h2.3L212.1,77.8z
	 M176.2,66.6l-2.8-6.9l-2.8,6.9H176.2z M202,66.6l-2.8-6.9l-2.8,6.9H202z"/>
<g>
	<defs>
		<rect id="SVGID_1_" x="85.6" y="43.7" width="129.5" height="43.5"/>
	</defs>
	<clipPath id="SVGID_2_">
		<use xlink:href="#SVGID_1_"  style="overflow:visible;"/>
	</clipPath>
	<path class="st1" d="M109.7,79.6c2.4,0,4.5-1,6-2.5l6.5-6.5c1.5-1.5,2.4-3.6,2.5-5.9V44.3h-20.3c-2.4,0-4.5,1-6,2.5l-6.5,6.5
		c-1.5,1.5-2.4,3.6-2.4,5.9v20.3H109.7z"/>
</g>
<g>
	<defs>
		<path id="SVGID_3_" d="M106.8,46.1c-3.7,0-6.7,3-6.7,6.7V55H114v13.9h2.2c3.7,0,6.7-3,6.7-6.7V46.1H106.8z"/>
	</defs>
	<clipPath id="SVGID_4_">
		<use xlink:href="#SVGID_3_"  style="overflow:visible;"/>
	</clipPath>
	
		<linearGradient id="SVGID_5_" gradientUnits="userSpaceOnUse" x1="0.7165" y1="601.3214" x2="1.7165" y2="601.3214" gradientTransform="matrix(15.8707 -15.8707 -15.8707 -15.8707 9639.0791 9616.749)">
		<stop  offset="0" style="stop-color:#9EDCF9"/>
		<stop  offset="0.1" style="stop-color:#9EDCF9"/>
		<stop  offset="0.9" style="stop-color:#079DD9"/>
		<stop  offset="1" style="stop-color:#079DD9"/>
	</linearGradient>
	<polygon class="st2" points="88.7,57.5 111.5,34.7 134.3,57.5 111.5,80.3 	"/>
</g>
<g>
	<defs>
		<path id="SVGID_6_" d="M116.2,70.7H98.3l-7.1,7.1h18.5c1.8,0,3.5-0.7,4.8-2l6-6l-0.2-0.2C119.1,70.3,117.7,70.7,116.2,70.7"/>
	</defs>
	<clipPath id="SVGID_7_">
		<use xlink:href="#SVGID_6_"  style="overflow:visible;"/>
	</clipPath>
	
		<linearGradient id="SVGID_8_" gradientUnits="userSpaceOnUse" x1="0.6719" y1="601.0205" x2="1.6719" y2="601.0205" gradientTransform="matrix(29.2604 0 0 -29.2604 71.5349 17659.8574)">
		<stop  offset="0" style="stop-color:#17B0E6"/>
		<stop  offset="0.1144" style="stop-color:#18ACE2"/>
		<stop  offset="0.264" style="stop-color:#16A1D7"/>
		<stop  offset="0.4332" style="stop-color:#1290C7"/>
		<stop  offset="0.6169" style="stop-color:#0D7AB4"/>
		<stop  offset="0.81" style="stop-color:#00619F"/>
		<stop  offset="0.9" style="stop-color:#005595"/>
		<stop  offset="1" style="stop-color:#005595"/>
	</linearGradient>
	<rect x="91.2" y="69.7" class="st3" width="29.3" height="8.2"/>
</g>
<g>
	<defs>
		<path id="SVGID_9_" d="M93.2,54.6c-1.3,1.3-2,3-2,4.8v18.5l7.1-7.1V52.8c0-1.5,0.4-2.9,1-4.1l-0.2-0.2L93.2,54.6z"/>
	</defs>
	<clipPath id="SVGID_10_">
		<use xlink:href="#SVGID_9_"  style="overflow:visible;"/>
	</clipPath>
	
		<linearGradient id="SVGID_11_" gradientUnits="userSpaceOnUse" x1="1.0205" y1="601.3281" x2="2.0205" y2="601.3281" gradientTransform="matrix(0 -29.2608 -29.2608 0 17690.6328 107.7044)">
		<stop  offset="0" style="stop-color:#0582BE"/>
		<stop  offset="0.2191" style="stop-color:#0478B4"/>
		<stop  offset="0.6535" style="stop-color:#00609E"/>
		<stop  offset="0.85" style="stop-color:#005595"/>
		<stop  offset="1" style="stop-color:#005595"/>
	</linearGradient>
	<rect x="91.2" y="48.6" class="st4" width="8.2" height="29.3"/>
</g>
</svg>
