<?xml version="1.0" encoding="utf-8"?>
<!-- Generator: Adobe Illustrator 24.0.0, SVG Export Plug-In . SVG Version: 6.00 Build 0)  -->
<svg version="1.1" id="Layer_1" xmlns="http://www.w3.org/2000/svg" xmlns:xlink="http://www.w3.org/1999/xlink" x="0px" y="0px"
	 viewBox="0 0 300 250" style="enable-background:new 0 0 300 250;" xml:space="preserve">
<style type="text/css">
	.st0{fill:#FFFFFF;}
</style>
<g>
	<path class="st0" d="M10.8,241.7v-4.5l-0.9,0.1l0.1-0.6l1.5-0.1v5.2H10.8z"/>
	<path class="st0" d="M14.3,241.8c-0.9,0-1.7-0.8-1.7-2.7c0-1.8,0.8-2.6,1.7-2.6c0.9,0,1.7,0.9,1.7,2.6
		C16.1,241,15.2,241.8,14.3,241.8z M14.3,237.2c-0.5,0-1,0.6-1,2c0,1.5,0.5,2,1,2c0.5,0,1-0.6,1-2C15.3,237.7,14.8,237.2,14.3,237.2
		z"/>
	<path class="st0" d="M18.7,241.8c-0.9,0-1.7-0.8-1.7-2.7c0-1.8,0.8-2.6,1.7-2.6c0.9,0,1.7,0.9,1.7,2.6
		C20.4,241,19.6,241.8,18.7,241.8z M18.7,237.2c-0.5,0-1,0.6-1,2c0,1.5,0.5,2,1,2c0.5,0,1-0.6,1-2C19.7,237.7,19.2,237.2,18.7,237.2
		z"/>
	<path class="st0" d="M21.8,241.7v-4.5l-0.9,0.1l0.1-0.6l1.5-0.1v5.2H21.8z"/>
	<path class="st0" d="M25.2,241.8c-0.9,0-1.7-0.6-1.7-1.5c0-0.8,0.6-1.2,1-1.4c-0.4-0.2-0.8-0.5-0.8-1.1c0-0.8,0.6-1.3,1.5-1.3
		s1.5,0.5,1.5,1.3c0,0.6-0.4,1-0.8,1.1c0.4,0.1,1,0.6,1,1.4C26.9,241.3,26.1,241.8,25.2,241.8z M25.1,239.3c-0.4,0.1-1,0.5-1,1
		c0,0.5,0.5,0.9,1,0.9c0.5,0,1-0.4,1-0.9C26.2,239.8,25.6,239.4,25.1,239.3z M25.2,237.1c-0.4,0-0.8,0.3-0.8,0.7
		c0,0.4,0.3,0.7,0.8,0.8c0.5-0.1,0.8-0.5,0.8-0.8C26,237.4,25.7,237.1,25.2,237.1z"/>
	<path class="st0" d="M28.3,241.7v-4.5l-0.9,0.1l0.1-0.6l1.5-0.1v5.2H28.3z"/>
	<path class="st0" d="M30.9,241.7h-0.8l1.9-4.5h-2.3v-0.6h3.4L30.9,241.7z"/>
</g>
</svg>
