<?xml version="1.0" encoding="utf-8"?>
<!-- Generator: Adobe Illustrator 24.0.0, SVG Export Plug-In . SVG Version: 6.00 Build 0)  -->
<svg version="1.1" id="Layer_1" xmlns="http://www.w3.org/2000/svg" xmlns:xlink="http://www.w3.org/1999/xlink" x="0px" y="0px"
	 viewBox="0 0 300 250" style="enable-background:new 0 0 300 250;" xml:space="preserve">
<style type="text/css">
	.st0{fill:#F9E039;}
</style>
<g>
	<path class="st0" d="M66.5,91.1h-2.3L62,84.6c-0.3-1-0.6-2-1-3.3h0c-0.3,1.3-0.6,2.3-1,3.3l-2.1,6.5h-2.2l-4.9-14.8h3.5l1.9,5.9
		c0.3,0.9,0.6,1.8,0.8,2.9h0c0.2-1.1,0.5-2,0.8-2.9l1.9-5.9h3.1l1.9,5.9c0.3,0.8,0.6,1.9,0.8,3h0c0.2-1.1,0.5-2.1,0.8-2.9l2-5.9h3.1
		L66.5,91.1z"/>
	<path class="st0" d="M79.2,91v-6.4c0-0.8-0.5-1.4-1.6-1.4c-1,0-1.6,0.6-1.6,1.5V91h-3.4V74.6H76v6.9h0c0.5-0.8,1.5-1.3,2.9-1.3
		c2.3,0,3.7,1.3,3.7,3.5V91H79.2z"/>
	<path class="st0" d="M92.1,91.5c-0.6-0.1-1.3-0.6-1.6-1.4c-0.5,0.9-1.4,1.3-2.7,1.3c-1.8,0-3.5-1.3-3.5-3.4c0-1.9,1.5-3.2,3.6-3.4
		l2.1-0.2V84c0-0.6-0.5-1-1.6-1c-1,0-2.1,0.3-2.9,0.8l-0.6-2.6c0.9-0.6,2.3-0.9,3.7-0.9c2.8,0,4.7,1.3,4.7,3.8v3.4
		c0,1.2,0.5,1.9,1.3,2.2L92.1,91.5z M89.9,86.5l-1.3,0.1c-0.9,0.1-1.3,0.7-1.3,1.3c0,0.6,0.4,1,1.1,1c0.8,0,1.5-0.6,1.5-1.5V86.5z"
		/>
	<path class="st0" d="M102.3,83.4h-2.7v3.9c0,0.9,0.5,1.3,1.4,1.3c0.4,0,0.6,0,0.9-0.1l-0.3,2.6c-0.3,0.2-0.9,0.3-1.6,0.3
		c-2.3,0-3.7-1.2-3.7-3.3v-4.5h-1.7v-2.8h1.7v-2.2l3.4-1.2v3.4h3.4L102.3,83.4z"/>
	<path class="st0" d="M116.7,91.5c-0.6-0.1-1.3-0.6-1.6-1.4c-0.5,0.9-1.4,1.3-2.7,1.3c-1.8,0-3.5-1.3-3.5-3.4c0-1.9,1.5-3.2,3.6-3.4
		l2.1-0.2V84c0-0.6-0.5-1-1.6-1c-1,0-2.1,0.3-2.9,0.8l-0.6-2.6c0.9-0.6,2.3-0.9,3.7-0.9c2.8,0,4.7,1.3,4.7,3.8v3.4
		c0,1.2,0.5,1.9,1.3,2.2L116.7,91.5z M114.5,86.5l-1.3,0.1c-0.9,0.1-1.3,0.7-1.3,1.3c0,0.6,0.4,1,1.1,1c0.8,0,1.5-0.6,1.5-1.5V86.5z
		"/>
	<path class="st0" d="M124.5,96.3c-3,0-5.1-1.7-5.1-3.9c0-1.6,1.1-2.5,2.1-2.8l-1.3-1.3c0.1-0.7,0.7-1.2,1.3-1.5
		c-0.8-0.5-1.5-1.5-1.5-2.8c0-2.2,1.6-3.7,4.3-3.7c0.6,0,1.1,0.1,1.5,0.2c0.5,0.1,1,0.2,1.5,0.2c0.6,0,1.2-0.1,1.6-0.3l0.6,2.6
		c-0.3,0.2-0.8,0.3-1.3,0.3c0.1,0.2,0.3,0.7,0.3,1.1c0,1.7-1.4,3.2-3.4,3.4c-0.4,0-0.7,0.1-0.7,0.4c0,0.1,0.1,0.3,0.3,0.3l1.6,0.6
		c2,0.7,3.1,1.8,3.1,3.7C129.5,94.7,127.5,96.3,124.5,96.3z M125.2,91.4l-1.2-0.3c-0.8,0-1.4,0.6-1.4,1.4c0,0.7,0.6,1.3,1.8,1.3
		c1.2,0,1.8-0.6,1.8-1.1C126.2,92.1,125.9,91.6,125.2,91.4z M124.3,82.7c-0.8,0-1.3,0.6-1.3,1.2c0,0.7,0.6,1.2,1.3,1.2
		c0.7,0,1.3-0.6,1.3-1.2C125.6,83.3,125.1,82.7,124.3,82.7z"/>
	<path class="st0" d="M140.3,85.2l-1.5,1.5h-5.1c0.2,0.9,1.3,1.8,3.1,1.8c1.1,0,2.2-0.3,2.9-0.8l-0.3,2.9c-0.8,0.4-2,0.7-3.3,0.7
		c-3.2,0-5.7-2.2-5.7-5.6c0-3.4,2.4-5.5,5.4-5.5c2.9,0,4.7,2,4.7,4.2C140.4,84.7,140.4,85,140.3,85.2z M135.8,82.8
		c-1,0-1.8,0.8-2,1.7h3.5c0-0.1,0-0.1,0-0.2C137.3,83.5,136.6,82.8,135.8,82.8z"/>
	<path class="st0" d="M158.7,91.1h-2.3L155,87c-0.2-0.6-0.4-1.4-0.6-2.2h0c-0.2,0.8-0.4,1.5-0.6,2.1l-1.4,4.2h-2.2l-3.6-10.5h3.1
		l1.3,4c0.2,0.6,0.4,1.3,0.5,2h0c0.1-0.6,0.3-1.4,0.5-2l1.3-4h2.6l1.3,3.9c0.2,0.6,0.3,1.4,0.5,2h0c0.1-0.7,0.3-1.4,0.5-2l1.3-3.9
		h2.9L158.7,91.1z"/>
	<path class="st0" d="M165.3,79.2c-0.6,0-1.8-1.2-1.8-1.8c0-0.6,1.2-1.8,1.8-1.8s1.8,1.2,1.8,1.8C167.1,78,165.9,79.2,165.3,79.2z
		 M163.6,91V80.6h3.4V91H163.6z"/>
	<path class="st0" d="M172.8,91.4c-2.1-0.1-3.6-1.2-3.6-3.7V74.6h3.3v12.7c0,0.9,0.5,1.3,1.4,1.4L172.8,91.4z"/>
	<path class="st0" d="M178.9,91.4c-2.1-0.1-3.6-1.2-3.6-3.7V74.6h3.3v12.7c0,0.9,0.5,1.3,1.4,1.4L178.9,91.4z"/>
	<path class="st0" d="M193,90c-1.6,4.2-3.2,5.7-5.2,6.5l-2.1-2.1c1.7-0.6,3-1.9,3.8-4.1l-3.7-9.7h3.3l1.5,4c0.2,0.6,0.5,1.3,0.6,2h0
		c0.2-0.7,0.4-1.4,0.7-2l1.5-4h3.1L193,90z"/>
	<path class="st0" d="M202.5,91.3c-3.2,0-5.7-2.2-5.7-5.5c0-3.3,2.5-5.5,5.7-5.5c3.1,0,5.7,2.2,5.7,5.5
		C208.2,89.1,205.6,91.3,202.5,91.3z M202.5,83.2c-1.3,0-2.3,1.1-2.3,2.6s1.1,2.6,2.3,2.6c1.2,0,2.3-1.1,2.3-2.6
		S203.8,83.2,202.5,83.2z"/>
	<path class="st0" d="M216.7,91v-1.4h0c-0.4,1.1-1.5,1.7-3.2,1.7c-2.3,0-3.7-1.3-3.7-3.5v-7.2h3.4V87c0,0.8,0.5,1.4,1.6,1.4
		c1,0,1.6-0.7,1.6-1.5v-6.3h3.4V91H216.7z"/>
	<path class="st0" d="M232.1,91.3c-2.2,0-4-0.8-5-1.5V74.6h3.3V81c0.4-0.3,1.5-0.7,2.6-0.7c2.9,0,5.2,2,5.2,5.3
		C238.2,88.8,236.2,91.3,232.1,91.3z M232.4,83.2c-1,0-1.7,0.5-2,0.8v4c0.3,0.3,1.1,0.5,1.7,0.5c1.7,0,2.8-1.2,2.8-2.7
		C234.9,84.4,233.9,83.2,232.4,83.2z"/>
	<path class="st0" d="M249.5,85.2l-1.5,1.5h-5.1c0.2,0.9,1.3,1.8,3.1,1.8c1.1,0,2.2-0.3,2.9-0.8l-0.3,2.9c-0.8,0.4-2,0.7-3.3,0.7
		c-3.2,0-5.7-2.2-5.7-5.6c0-3.4,2.4-5.5,5.4-5.5c2.9,0,4.7,2,4.7,4.2C249.6,84.7,249.5,85,249.5,85.2z M244.9,82.8
		c-1,0-1.8,0.8-2,1.7h3.5c0-0.1,0-0.1,0-0.2C246.4,83.5,245.8,82.8,244.9,82.8z"/>
</g>
<g>
	<path class="st0" d="M84.1,108.2c-0.2-0.1-0.7-0.3-1-0.3c-1.1,0-2.1,0.6-2.1,2.2v4.9h-3.4v-10.4h3.3v2.3h0c0.3-1.6,1.6-2.5,3-2.5
		c0.3,0,0.7,0,1,0.1L84.1,108.2z"/>
	<path class="st0" d="M95.3,109.2l-1.5,1.5h-5.1c0.2,0.9,1.3,1.8,3.1,1.8c1.1,0,2.2-0.3,2.9-0.8l-0.3,2.9c-0.8,0.4-2,0.7-3.3,0.7
		c-3.2,0-5.7-2.2-5.7-5.6c0-3.4,2.4-5.5,5.4-5.5c2.9,0,4.7,2,4.7,4.2C95.4,108.7,95.4,109,95.3,109.2z M90.8,106.8
		c-1,0-1.8,0.8-2,1.7h3.5c0-0.1,0-0.1,0-0.2C92.3,107.5,91.7,106.8,90.8,106.8z"/>
	<path class="st0" d="M104.3,115.5c-0.6-0.1-1.3-0.6-1.6-1.4c-0.5,0.9-1.4,1.3-2.7,1.3c-1.8,0-3.5-1.3-3.5-3.4
		c0-1.9,1.5-3.2,3.6-3.4l2.1-0.2v-0.3c0-0.6-0.5-1-1.6-1c-1,0-2.1,0.3-2.9,0.8l-0.6-2.6c0.9-0.6,2.3-0.9,3.7-0.9
		c2.8,0,4.7,1.3,4.7,3.8v3.4c0,1.2,0.5,1.9,1.3,2.2L104.3,115.5z M102.2,110.5l-1.3,0.1c-0.9,0.1-1.3,0.7-1.3,1.3c0,0.6,0.4,1,1.1,1
		c0.8,0,1.5-0.6,1.5-1.5V110.5z"/>
	<path class="st0" d="M115.5,115v-1.3h0c-0.6,1.1-1.8,1.6-3.2,1.6c-2.6,0-5-1.9-5-5.5c0-3.4,2.4-5.5,5.3-5.5c1.1,0,2.2,0.4,2.6,0.7
		v-6.3h3.3V115H115.5z M115.2,108.2c-0.3-0.4-1-0.9-2-0.9c-1.5,0-2.5,1.1-2.5,2.6s1,2.6,2.5,2.6c1,0,1.7-0.5,2-1.1V108.2z"/>
	<path class="st0" d="M126.9,114c-1.6,4.2-3.2,5.7-5.2,6.5l-2.1-2.1c1.7-0.6,3-1.9,3.8-4.1l-3.7-9.7h3.3l1.5,4
		c0.2,0.6,0.5,1.3,0.6,2h0c0.2-0.7,0.4-1.4,0.7-2l1.5-4h3.1L126.9,114z"/>
	<path class="st0" d="M143.9,107.3h-2.7v3.9c0,0.9,0.5,1.3,1.4,1.3c0.4,0,0.6,0,0.9-0.1l-0.3,2.6c-0.3,0.2-0.9,0.3-1.6,0.3
		c-2.3,0-3.7-1.2-3.7-3.3v-4.5h-1.7v-2.8h1.7v-2.2l3.4-1.2v3.4h3.4L143.9,107.3z"/>
	<path class="st0" d="M150.7,115.3c-3.2,0-5.7-2.2-5.7-5.5c0-3.3,2.5-5.5,5.7-5.5c3.1,0,5.7,2.2,5.7,5.5
		C156.4,113.1,153.8,115.3,150.7,115.3z M150.7,107.2c-1.3,0-2.3,1.1-2.3,2.6s1.1,2.6,2.3,2.6c1.2,0,2.3-1.1,2.3-2.6
		S151.9,107.2,150.7,107.2z"/>
	<path class="st0" d="M169.7,108.2c-0.2-0.1-0.7-0.3-1-0.3c-1.1,0-2.1,0.6-2.1,2.2v4.9h-3.4v-10.4h3.3v2.3h0c0.3-1.6,1.6-2.5,3-2.5
		c0.3,0,0.7,0,1,0.1L169.7,108.2z"/>
	<path class="st0" d="M180.9,109.2l-1.5,1.5h-5.1c0.2,0.9,1.3,1.8,3.1,1.8c1.1,0,2.2-0.3,2.9-0.8l-0.3,2.9c-0.8,0.4-2,0.7-3.3,0.7
		c-3.2,0-5.7-2.2-5.7-5.6c0-3.4,2.4-5.5,5.4-5.5c2.9,0,4.7,2,4.7,4.2C181,108.7,181,109,180.9,109.2z M176.3,106.8
		c-1,0-1.8,0.8-2,1.7h3.5c0-0.1,0-0.1,0-0.2C177.9,107.5,177.2,106.8,176.3,106.8z"/>
	<path class="st0" d="M189.7,107.3H187v3.9c0,0.9,0.5,1.3,1.4,1.3c0.4,0,0.6,0,0.9-0.1l-0.3,2.6c-0.3,0.2-0.9,0.3-1.6,0.3
		c-2.3,0-3.7-1.2-3.7-3.3v-4.5h-1.7v-2.8h1.7v-2.2l3.4-1.2v3.4h3.4L189.7,107.3z"/>
	<path class="st0" d="M193.3,103.2c-0.6,0-1.8-1.2-1.8-1.8c0-0.6,1.2-1.8,1.8-1.8s1.8,1.2,1.8,1.8
		C195.1,101.9,193.9,103.2,193.3,103.2z M191.6,115v-10.4h3.4V115H191.6z"/>
	<path class="st0" d="M203.7,108.2c-0.2-0.1-0.7-0.3-1-0.3c-1.1,0-2.1,0.6-2.1,2.2v4.9h-3.4v-10.4h3.3v2.3h0c0.3-1.6,1.6-2.5,3-2.5
		c0.3,0,0.7,0,1,0.1L203.7,108.2z"/>
	<path class="st0" d="M215,109.2l-1.5,1.5h-5.1c0.2,0.9,1.3,1.8,3.1,1.8c1.1,0,2.2-0.3,2.9-0.8l-0.3,2.9c-0.8,0.4-2,0.7-3.3,0.7
		c-3.2,0-5.7-2.2-5.7-5.6c0-3.4,2.4-5.5,5.4-5.5c2.9,0,4.7,2,4.7,4.2C215.1,108.7,215,109,215,109.2z M210.4,106.8
		c-1,0-1.8,0.8-2,1.7h3.5c0-0.1,0-0.1,0-0.2C211.9,107.5,211.3,106.8,210.4,106.8z"/>
	<path class="st0" d="M221.4,107.8c-0.6,0.6-0.8,1.2-0.8,1.8c0,0.3,0,0.7,0.1,1l-2.9-0.6c-0.1-0.5-0.2-0.8-0.2-1.2
		c0-1.2,0.5-2.3,1.3-3.2c0.6-0.6,0.9-1.1,0.9-1.7c0-0.5-0.5-1-1.3-1c-0.8,0-1.6,0.3-2.3,0.8l-0.7-2.9c0.9-0.5,2-0.9,3.3-0.9
		c2.7,0,4.5,1.6,4.5,3.9C223.4,105.2,222.8,106.3,221.4,107.8z M219.3,115.3c-0.6,0-1.9-1.3-1.9-1.9c0-0.6,1.3-1.9,1.9-1.9
		s1.9,1.3,1.9,1.9C221.2,114,220,115.3,219.3,115.3z"/>
</g>
</svg>
