<?xml version="1.0" encoding="utf-8"?>
<!-- Generator: Adobe Illustrator 24.0.0, SVG Export Plug-In . SVG Version: 6.00 Build 0)  -->
<svg version="1.1" id="Layer_1" xmlns="http://www.w3.org/2000/svg" xmlns:xlink="http://www.w3.org/1999/xlink" x="0px" y="0px"
	 viewBox="0 0 300 250" style="enable-background:new 0 0 300 250;" xml:space="preserve">
<style type="text/css">
	.st0{fill:#F9E039;}
</style>
<g>
	<path class="st0" d="M81.9,79.8v2.9h4.2v3h-4.2v5.9h-3.5V76.9h8.5v2.9H81.9z"/>
	<path class="st0" d="M89.9,79.7c-0.6,0-1.8-1.2-1.8-1.8c0-0.6,1.2-1.8,1.8-1.8c0.6,0,1.8,1.2,1.8,1.8
		C91.7,78.5,90.5,79.7,89.9,79.7z M88.2,91.6V81.2h3.4v10.4H88.2z"/>
	<path class="st0" d="M98.2,96.9c-3,0-5.1-1.7-5.1-3.9c0-1.6,1.1-2.5,2.1-2.8L94,88.8c0.1-0.7,0.7-1.2,1.3-1.5
		c-0.8-0.5-1.5-1.5-1.5-2.8c0-2.2,1.6-3.7,4.3-3.7c0.6,0,1.1,0.1,1.5,0.2c0.5,0.1,1,0.2,1.5,0.2c0.6,0,1.2-0.1,1.6-0.3l0.6,2.6
		c-0.3,0.2-0.8,0.3-1.3,0.3c0.1,0.2,0.3,0.7,0.3,1.1c0,1.7-1.4,3.2-3.4,3.4c-0.4,0-0.7,0.1-0.7,0.4c0,0.1,0.1,0.3,0.3,0.3l1.6,0.6
		c2,0.7,3.1,1.8,3.1,3.7C103.2,95.3,101.3,96.9,98.2,96.9z M98.9,92l-1.2-0.3c-0.8,0-1.4,0.6-1.4,1.4c0,0.7,0.6,1.3,1.8,1.3
		c1.2,0,1.8-0.6,1.8-1.1C100,92.7,99.6,92.2,98.9,92z M98,83.3c-0.8,0-1.3,0.6-1.3,1.2c0,0.7,0.6,1.2,1.3,1.2c0.7,0,1.3-0.6,1.3-1.2
		C99.4,83.8,98.8,83.3,98,83.3z"/>
	<path class="st0" d="M111.4,91.6v-1.4h0c-0.4,1.1-1.5,1.7-3.2,1.7c-2.3,0-3.7-1.3-3.7-3.5v-7.2h3.4v6.4c0,0.8,0.5,1.4,1.6,1.4
		c1,0,1.6-0.7,1.6-1.5v-6.3h3.4v10.4H111.4z"/>
	<path class="st0" d="M123.1,84.7c-0.2-0.1-0.7-0.3-1-0.3c-1.1,0-2.1,0.6-2.1,2.2v4.9h-3.4V81.2h3.3v2.3h0c0.3-1.6,1.6-2.5,3-2.5
		c0.3,0,0.7,0,1,0.1L123.1,84.7z"/>
	<path class="st0" d="M134.4,85.8l-1.5,1.5h-5.1c0.2,0.9,1.3,1.8,3.1,1.8c1.1,0,2.2-0.3,2.9-0.8l-0.3,2.9c-0.8,0.4-2,0.7-3.3,0.7
		c-3.2,0-5.7-2.2-5.7-5.6c0-3.4,2.4-5.5,5.4-5.5c2.9,0,4.7,2,4.7,4.2C134.5,85.2,134.5,85.6,134.4,85.8z M129.9,83.3
		c-1,0-1.8,0.8-2,1.7h3.5c0-0.1,0-0.1,0-0.2C131.4,84.1,130.7,83.3,129.9,83.3z"/>
	<path class="st0" d="M146.6,91.9c-3.2,0-5.7-2.2-5.7-5.5c0-3.3,2.5-5.5,5.7-5.5c3.1,0,5.7,2.2,5.7,5.5
		C152.3,89.7,149.7,91.9,146.6,91.9z M146.6,83.8c-1.3,0-2.3,1.1-2.3,2.6s1.1,2.6,2.3,2.6c1.2,0,2.3-1.1,2.3-2.6
		S147.8,83.8,146.6,83.8z"/>
	<path class="st0" d="M160.8,91.6v-1.4h0c-0.4,1.1-1.5,1.7-3.2,1.7c-2.3,0-3.7-1.3-3.7-3.5v-7.2h3.4v6.4c0,0.8,0.5,1.4,1.6,1.4
		c1,0,1.6-0.7,1.6-1.5v-6.3h3.4v10.4H160.8z"/>
	<path class="st0" d="M173,83.9h-2.7v3.9c0,0.9,0.5,1.3,1.4,1.3c0.4,0,0.6,0,0.9-0.1l-0.3,2.6c-0.3,0.2-0.9,0.3-1.6,0.3
		c-2.3,0-3.7-1.2-3.7-3.3v-4.5h-1.7v-2.8h1.7v-2.2l3.4-1.2v3.4h3.4L173,83.9z"/>
	<path class="st0" d="M186.4,90.5c-1.6,4.2-3.2,5.7-5.2,6.5l-2.1-2.1c1.7-0.6,3-1.9,3.8-4.1l-3.7-9.7h3.3l1.5,4
		c0.2,0.6,0.5,1.3,0.6,2h0c0.2-0.7,0.4-1.4,0.7-2l1.5-4h3.1L186.4,90.5z"/>
	<path class="st0" d="M195.9,91.9c-3.2,0-5.7-2.2-5.7-5.5c0-3.3,2.5-5.5,5.7-5.5c3.1,0,5.7,2.2,5.7,5.5
		C201.6,89.7,199.1,91.9,195.9,91.9z M195.9,83.8c-1.3,0-2.3,1.1-2.3,2.6s1.1,2.6,2.3,2.6c1.2,0,2.3-1.1,2.3-2.6
		S197.2,83.8,195.9,83.8z"/>
	<path class="st0" d="M210.1,91.6v-1.4h0c-0.4,1.1-1.5,1.7-3.2,1.7c-2.3,0-3.7-1.3-3.7-3.5v-7.2h3.4v6.4c0,0.8,0.5,1.4,1.6,1.4
		c1,0,1.6-0.7,1.6-1.5v-6.3h3.4v10.4H210.1z"/>
	<path class="st0" d="M221.8,84.7c-0.2-0.1-0.7-0.3-1-0.3c-1.1,0-2.1,0.6-2.1,2.2v4.9h-3.4V81.2h3.3v2.3h0c0.3-1.6,1.6-2.5,3-2.5
		c0.3,0,0.7,0,1,0.1L221.8,84.7z"/>
</g>
<g>
	<path class="st0" d="M23.4,120.9c-3,0-5.1-1.7-5.1-3.9c0-1.6,1.1-2.5,2.1-2.8l-1.3-1.3c0.1-0.7,0.7-1.2,1.3-1.5
		c-0.8-0.5-1.5-1.5-1.5-2.8c0-2.2,1.6-3.7,4.3-3.7c0.6,0,1.1,0.1,1.5,0.2c0.5,0.1,1,0.2,1.5,0.2c0.6,0,1.2-0.1,1.6-0.3l0.6,2.6
		c-0.3,0.2-0.8,0.3-1.3,0.3c0.1,0.2,0.3,0.7,0.3,1.1c0,1.7-1.4,3.2-3.4,3.4c-0.4,0-0.7,0.1-0.7,0.4c0,0.1,0.1,0.3,0.3,0.3l1.6,0.6
		c2,0.7,3.1,1.8,3.1,3.7C28.4,119.3,26.4,120.9,23.4,120.9z M24.1,116l-1.2-0.3c-0.8,0-1.4,0.6-1.4,1.4c0,0.7,0.6,1.3,1.8,1.3
		c1.2,0,1.8-0.6,1.8-1.1C25.1,116.7,24.8,116.2,24.1,116z M23.2,107.3c-0.8,0-1.3,0.6-1.3,1.2c0,0.7,0.6,1.2,1.3,1.2
		c0.7,0,1.3-0.6,1.3-1.2C24.5,107.8,24,107.3,23.2,107.3z"/>
	<path class="st0" d="M36.6,115.6v-1.4h0c-0.4,1.1-1.5,1.7-3.2,1.7c-2.3,0-3.7-1.3-3.7-3.5v-7.2h3.4v6.4c0,0.8,0.5,1.4,1.6,1.4
		c1,0,1.6-0.7,1.6-1.5v-6.3h3.4v10.4H36.6z"/>
	<path class="st0" d="M49.2,116c-0.6-0.1-1.3-0.6-1.6-1.4c-0.5,0.9-1.4,1.3-2.7,1.3c-1.8,0-3.5-1.3-3.5-3.4c0-1.9,1.5-3.2,3.6-3.4
		l2.1-0.2v-0.3c0-0.6-0.5-1-1.6-1c-1,0-2.1,0.3-2.9,0.8l-0.6-2.6c0.9-0.6,2.3-0.9,3.7-0.9c2.8,0,4.7,1.3,4.7,3.8v3.4
		c0,1.2,0.5,1.9,1.3,2.2L49.2,116z M47,111l-1.3,0.1c-0.9,0.1-1.3,0.7-1.3,1.3c0,0.6,0.4,1,1.1,1c0.8,0,1.5-0.6,1.5-1.5V111z"/>
	<path class="st0" d="M59.1,108.7c-0.2-0.1-0.7-0.3-1-0.3c-1.1,0-2.1,0.6-2.1,2.2v4.9h-3.4v-10.4H56v2.3h0c0.3-1.6,1.6-2.5,3-2.5
		c0.3,0,0.7,0,1,0.1L59.1,108.7z"/>
	<path class="st0" d="M68.4,116c-0.6-0.1-1.3-0.6-1.6-1.4c-0.5,0.9-1.4,1.3-2.7,1.3c-1.8,0-3.5-1.3-3.5-3.4c0-1.9,1.5-3.2,3.6-3.4
		l2.1-0.2v-0.3c0-0.6-0.5-1-1.6-1c-1,0-2.1,0.3-2.9,0.8l-0.6-2.6c0.9-0.6,2.3-0.9,3.7-0.9c2.8,0,4.7,1.3,4.7,3.8v3.4
		c0,1.2,0.5,1.9,1.3,2.2L68.4,116z M66.2,111l-1.3,0.1c-0.9,0.1-1.3,0.7-1.3,1.3c0,0.6,0.4,1,1.1,1c0.8,0,1.5-0.6,1.5-1.5V111z"/>
	<path class="st0" d="M78.5,115.6v-6.4c0-0.8-0.5-1.4-1.5-1.4c-1,0-1.7,0.6-1.7,1.5v6.3h-3.4v-10.4H75v1.4h0
		c0.4-1.1,1.5-1.7,3.2-1.7c2.3,0,3.7,1.3,3.7,3.5v7.2H78.5z"/>
	<path class="st0" d="M90.8,107.9h-2.7v3.9c0,0.9,0.5,1.3,1.4,1.3c0.4,0,0.6,0,0.9-0.1l-0.3,2.6c-0.3,0.2-0.9,0.3-1.6,0.3
		c-2.3,0-3.7-1.2-3.7-3.3v-4.5H83v-2.8h1.7v-2.2l3.4-1.2v3.4h3.4L90.8,107.9z"/>
	<path class="st0" d="M102,109.8l-1.5,1.5h-5.1c0.2,0.9,1.3,1.8,3.1,1.8c1.1,0,2.2-0.3,2.9-0.8l-0.3,2.9c-0.8,0.4-2,0.7-3.3,0.7
		c-3.2,0-5.7-2.2-5.7-5.6c0-3.4,2.4-5.5,5.4-5.5c2.9,0,4.7,2,4.7,4.2C102.1,109.2,102,109.6,102,109.8z M97.4,107.3
		c-1,0-1.8,0.8-2,1.7h3.5c0-0.1,0-0.1,0-0.2C98.9,108.1,98.3,107.3,97.4,107.3z"/>
	<path class="st0" d="M113.2,109.8l-1.5,1.5h-5.1c0.2,0.9,1.3,1.8,3.1,1.8c1.1,0,2.2-0.3,2.9-0.8l-0.3,2.9c-0.8,0.4-2,0.7-3.3,0.7
		c-3.2,0-5.7-2.2-5.7-5.6c0-3.4,2.4-5.5,5.4-5.5c2.9,0,4.7,2,4.7,4.2C113.3,109.2,113.3,109.6,113.2,109.8z M108.6,107.3
		c-1,0-1.8,0.8-2,1.7h3.5c0-0.1,0-0.1,0-0.2C110.2,108.1,109.5,107.3,108.6,107.3z"/>
	<path class="st0" d="M122.7,115.6v-1.3h0c-0.6,1.1-1.8,1.6-3.2,1.6c-2.6,0-5-1.9-5-5.5c0-3.4,2.4-5.5,5.3-5.5
		c1.1,0,2.2,0.4,2.6,0.7v-6.3h3.3v16.4H122.7z M122.4,108.7c-0.3-0.4-1-0.9-2-0.9c-1.5,0-2.5,1.1-2.5,2.6s1,2.6,2.5,2.6
		c1,0,1.7-0.5,2-1.1V108.7z"/>
	<path class="st0" d="M136.7,116c-2.1-0.1-3.6-1.2-3.6-3.7V99.2h3.3v12.7c0,0.9,0.5,1.3,1.4,1.4L136.7,116z"/>
	<path class="st0" d="M140.9,103.7c-0.6,0-1.8-1.2-1.8-1.8c0-0.6,1.2-1.8,1.8-1.8c0.6,0,1.8,1.2,1.8,1.8
		C142.7,102.5,141.5,103.7,140.9,103.7z M139.2,115.6v-10.4h3.4v10.4H139.2z"/>
	<path class="st0" d="M152.1,102.2c-0.4-0.2-0.9-0.3-1.4-0.3c-1.2,0-1.9,0.7-1.9,2.2v1h3l-0.7,2.8h-2.3v7.7h-3.3v-7.7H144v-2.8h1.6
		v-1.2c0-3.2,2-4.7,4.7-4.7c1,0,1.9,0.1,2.5,0.3L152.1,102.2z"/>
	<path class="st0" d="M162.3,109.8l-1.5,1.5h-5.1c0.2,0.9,1.3,1.8,3.1,1.8c1.1,0,2.2-0.3,2.9-0.8l-0.3,2.9c-0.8,0.4-2,0.7-3.3,0.7
		c-3.2,0-5.7-2.2-5.7-5.6c0-3.4,2.4-5.5,5.4-5.5c2.9,0,4.7,2,4.7,4.2C162.4,109.2,162.3,109.6,162.3,109.8z M157.7,107.3
		c-1,0-1.8,0.8-2,1.7h3.5c0-0.1,0-0.1,0-0.2C159.2,108.1,158.6,107.3,157.7,107.3z"/>
	<path class="st0" d="M171.1,107.9h-2.7v3.9c0,0.9,0.5,1.3,1.4,1.3c0.4,0,0.6,0,0.9-0.1l-0.3,2.6c-0.3,0.2-0.9,0.3-1.6,0.3
		c-2.3,0-3.7-1.2-3.7-3.3v-4.5h-1.7v-2.8h1.7v-2.2l3.4-1.2v3.4h3.4L171.1,107.9z"/>
	<path class="st0" d="M174.7,103.7c-0.6,0-1.8-1.2-1.8-1.8c0-0.6,1.2-1.8,1.8-1.8s1.8,1.2,1.8,1.8
		C176.5,102.5,175.3,103.7,174.7,103.7z M173,115.6v-10.4h3.4v10.4H173z"/>
	<path class="st0" d="M191.4,115.6v-6.4c0-0.8-0.4-1.4-1.5-1.4c-1.1,0-1.6,0.6-1.6,1.5v6.3H185v-6.4c0-0.8-0.4-1.4-1.5-1.4
		c-1.1,0-1.6,0.6-1.6,1.5v6.3h-3.4v-10.4h3.1v1.4h0c0.4-1.1,1.4-1.7,3.1-1.7c1.5,0,2.6,0.6,3.1,1.7c0.4-1,1.7-1.7,3.2-1.7
		c2.4,0,3.7,1.3,3.7,3.5v7.2H191.4z"/>
	<path class="st0" d="M206.5,109.8l-1.5,1.5h-5.1c0.2,0.9,1.3,1.8,3.1,1.8c1.1,0,2.2-0.3,2.9-0.8l-0.3,2.9c-0.8,0.4-2,0.7-3.3,0.7
		c-3.2,0-5.7-2.2-5.7-5.6c0-3.4,2.4-5.5,5.4-5.5c2.9,0,4.7,2,4.7,4.2C206.6,109.2,206.6,109.6,206.5,109.8z M201.9,107.3
		c-1,0-1.8,0.8-2,1.7h3.5c0-0.1,0-0.1,0-0.2C203.4,108.1,202.8,107.3,201.9,107.3z"/>
	<path class="st0" d="M215.2,103.7c-0.6,0-1.8-1.2-1.8-1.8c0-0.6,1.2-1.8,1.8-1.8s1.8,1.2,1.8,1.8
		C217,102.5,215.8,103.7,215.2,103.7z M213.5,115.6v-10.4h3.4v10.4H213.5z"/>
	<path class="st0" d="M225.7,115.6v-6.4c0-0.8-0.5-1.4-1.5-1.4c-1,0-1.7,0.6-1.7,1.5v6.3h-3.4v-10.4h3.1v1.4h0
		c0.4-1.1,1.5-1.7,3.2-1.7c2.3,0,3.7,1.3,3.7,3.5v7.2H225.7z"/>
	<path class="st0" d="M239.1,108.5c-0.7-0.4-1.4-0.7-2.2-0.7c-1.5,0-2.6,1.1-2.6,2.6c0,1.5,1.2,2.6,2.7,2.6c0.9,0,1.5-0.2,2.3-0.6
		l-0.3,2.9c-0.7,0.3-1.6,0.5-2.6,0.5c-2.9,0-5.6-2.1-5.6-5.4c0-3.4,2.7-5.4,5.6-5.4c1.4,0,2.5,0.3,3.4,0.8L239.1,108.5z"/>
	<path class="st0" d="M246.4,115.9c-3.2,0-5.7-2.2-5.7-5.5c0-3.3,2.5-5.5,5.7-5.5c3.1,0,5.7,2.2,5.7,5.5
		C252.1,113.6,249.5,115.9,246.4,115.9z M246.4,107.7c-1.3,0-2.3,1.1-2.3,2.6s1.1,2.6,2.3,2.6c1.2,0,2.3-1.1,2.3-2.6
		S247.6,107.7,246.4,107.7z"/>
	<path class="st0" d="M266.6,115.6v-6.4c0-0.8-0.4-1.4-1.5-1.4c-1.1,0-1.6,0.6-1.6,1.5v6.3h-3.4v-6.4c0-0.8-0.4-1.4-1.5-1.4
		c-1.1,0-1.6,0.6-1.6,1.5v6.3h-3.4v-10.4h3.1v1.4h0c0.4-1.1,1.4-1.7,3.1-1.7c1.5,0,2.6,0.6,3.1,1.7c0.4-1,1.7-1.7,3.2-1.7
		c2.4,0,3.7,1.3,3.7,3.5v7.2H266.6z"/>
	<path class="st0" d="M281.6,109.8l-1.5,1.5H275c0.2,0.9,1.3,1.8,3.1,1.8c1.1,0,2.2-0.3,2.9-0.8l-0.3,2.9c-0.8,0.4-2,0.7-3.3,0.7
		c-3.2,0-5.7-2.2-5.7-5.6c0-3.4,2.4-5.5,5.4-5.5c2.9,0,4.7,2,4.7,4.2C281.7,109.2,281.7,109.6,281.6,109.8z M277.1,107.3
		c-1,0-1.8,0.8-2,1.7h3.5c0-0.1,0-0.1,0-0.2C278.6,108.1,278,107.3,277.1,107.3z"/>
</g>
</svg>
