<?xml version="1.0" encoding="utf-8"?>
<!-- Generator: Adobe Illustrator 24.0.0, SVG Export Plug-In . SVG Version: 6.00 Build 0)  -->
<svg version="1.1" id="Layer_1" xmlns="http://www.w3.org/2000/svg" xmlns:xlink="http://www.w3.org/1999/xlink" x="0px" y="0px"
	 viewBox="0 0 300 250" style="enable-background:new 0 0 300 250;" xml:space="preserve">
<style type="text/css">
	.st0{fill:#F9E039;}
</style>
<g>
	<path class="st0" d="M53.5,139.8c-1.4,0-2.5-0.3-3.3-0.7l-0.3-3c0.9,0.6,2.1,1.1,3.3,1.1c0.6,0,1-0.3,1-0.7c0-0.4-0.3-0.6-0.9-0.8
		c-2-0.6-3.2-1.6-3.2-3.4c0-2,1.7-3.4,3.9-3.4c1.3,0,2.6,0.3,3.1,0.6l-0.6,2.5c-0.5-0.3-1.3-0.6-2.2-0.6c-0.6,0-0.9,0.3-0.9,0.7
		c0,0.4,0.3,0.6,0.9,0.8c2.3,0.6,3.3,1.8,3.3,3.5C57.6,138.2,56.3,139.8,53.5,139.8z"/>
	<path class="st0" d="M64.3,139.9c-3.2,0-5.7-2.2-5.7-5.5s2.5-5.5,5.7-5.5c3.1,0,5.7,2.2,5.7,5.5S67.5,139.9,64.3,139.9z
		 M64.3,131.7c-1.3,0-2.3,1.1-2.3,2.6s1.1,2.6,2.3,2.6c1.2,0,2.3-1.1,2.3-2.6S65.6,131.7,64.3,131.7z"/>
	<path class="st0" d="M83.3,138.5c-1.6,4.2-3.2,5.7-5.2,6.5l-2.1-2.1c1.7-0.6,3-1.9,3.8-4.1l-3.7-9.7h3.3l1.5,4
		c0.2,0.6,0.5,1.3,0.6,2h0c0.2-0.7,0.4-1.4,0.7-2l1.5-4h3.1L83.3,138.5z"/>
	<path class="st0" d="M92.8,139.9c-3.2,0-5.7-2.2-5.7-5.5s2.5-5.5,5.7-5.5c3.1,0,5.7,2.2,5.7,5.5S95.9,139.9,92.8,139.9z
		 M92.8,131.7c-1.3,0-2.3,1.1-2.3,2.6s1.1,2.6,2.3,2.6c1.2,0,2.3-1.1,2.3-2.6S94,131.7,92.8,131.7z"/>
	<path class="st0" d="M107,139.5v-1.4h0c-0.4,1.1-1.5,1.7-3.2,1.7c-2.3,0-3.7-1.3-3.7-3.5v-7.2h3.4v6.4c0,0.8,0.5,1.4,1.6,1.4
		c1,0,1.6-0.7,1.6-1.5v-6.3h3.4v10.4H107z"/>
	<path class="st0" d="M123.9,139.5v-6.4c0-0.8-0.5-1.4-1.5-1.4c-1,0-1.7,0.6-1.7,1.5v6.3h-3.4v-10.4h3.1v1.4h0
		c0.4-1.1,1.5-1.7,3.2-1.7c2.3,0,3.7,1.3,3.7,3.5v7.2H123.9z"/>
	<path class="st0" d="M138.9,133.8l-1.5,1.5h-5.1c0.2,0.9,1.3,1.8,3.1,1.8c1.1,0,2.2-0.3,2.9-0.8l-0.3,2.9c-0.8,0.4-2,0.7-3.3,0.7
		c-3.2,0-5.7-2.2-5.7-5.6c0-3.4,2.4-5.5,5.4-5.5c2.9,0,4.7,2,4.7,4.2C139,133.2,139,133.5,138.9,133.8z M134.3,131.3
		c-1,0-1.8,0.8-2,1.7h3.5c0-0.1,0-0.1,0-0.2C135.9,132.1,135.2,131.3,134.3,131.3z"/>
	<path class="st0" d="M146,139.6h-2.5l-4-10.5h3.3l1.5,4c0.2,0.6,0.4,1.3,0.6,2h0c0.2-0.7,0.4-1.5,0.6-2l1.5-4h3.1L146,139.6z"/>
	<path class="st0" d="M160.3,133.8l-1.5,1.5h-5.1c0.2,0.9,1.3,1.8,3.1,1.8c1.1,0,2.2-0.3,2.9-0.8l-0.3,2.9c-0.8,0.4-2,0.7-3.3,0.7
		c-3.2,0-5.7-2.2-5.7-5.6c0-3.4,2.4-5.5,5.4-5.5c2.9,0,4.7,2,4.7,4.2C160.4,133.2,160.4,133.5,160.3,133.8z M155.7,131.3
		c-1,0-1.8,0.8-2,1.7h3.5c0-0.1,0-0.1,0-0.2C157.3,132.1,156.6,131.3,155.7,131.3z"/>
	<path class="st0" d="M168.5,132.7c-0.2-0.1-0.7-0.3-1-0.3c-1.1,0-2.1,0.6-2.1,2.2v4.9h-3.4v-10.4h3.3v2.3h0c0.3-1.6,1.6-2.5,3-2.5
		c0.3,0,0.7,0,1,0.1L168.5,132.7z"/>
	<path class="st0" d="M182.2,132.7c-0.2-0.1-0.7-0.3-1-0.3c-1.1,0-2.1,0.6-2.1,2.2v4.9h-3.4v-10.4h3.3v2.3h0c0.3-1.6,1.6-2.5,3-2.5
		c0.3,0,0.7,0,1,0.1L182.2,132.7z"/>
	<path class="st0" d="M191,139.5v-1.4h0c-0.4,1.1-1.5,1.7-3.2,1.7c-2.3,0-3.7-1.3-3.7-3.5v-7.2h3.4v6.4c0,0.8,0.5,1.4,1.6,1.4
		c1,0,1.6-0.7,1.6-1.5v-6.3h3.4v10.4H191z"/>
	<path class="st0" d="M202.8,139.5v-6.4c0-0.8-0.5-1.4-1.5-1.4c-1,0-1.7,0.6-1.7,1.5v6.3h-3.4v-10.4h3.1v1.4h0
		c0.4-1.1,1.5-1.7,3.2-1.7c2.3,0,3.7,1.3,3.7,3.5v7.2H202.8z"/>
	<path class="st0" d="M218.7,139.9c-3.2,0-5.7-2.2-5.7-5.5s2.5-5.5,5.7-5.5c3.1,0,5.7,2.2,5.7,5.5S221.8,139.9,218.7,139.9z
		 M218.7,131.7c-1.3,0-2.3,1.1-2.3,2.6s1.1,2.6,2.3,2.6c1.2,0,2.3-1.1,2.3-2.6S219.9,131.7,218.7,131.7z"/>
	<path class="st0" d="M232.9,139.5v-1.4h0c-0.4,1.1-1.5,1.7-3.2,1.7c-2.3,0-3.7-1.3-3.7-3.5v-7.2h3.4v6.4c0,0.8,0.5,1.4,1.6,1.4
		c1,0,1.6-0.7,1.6-1.5v-6.3h3.4v10.4H232.9z"/>
	<path class="st0" d="M245.1,131.9h-2.7v3.9c0,0.9,0.5,1.3,1.4,1.3c0.4,0,0.6,0,0.9-0.1l-0.3,2.6c-0.3,0.2-0.9,0.3-1.6,0.3
		c-2.3,0-3.7-1.2-3.7-3.3v-4.5h-1.7v-2.8h1.7v-2.2l3.4-1.2v3.4h3.4L245.1,131.9z"/>
	<path class="st0" d="M248.4,139.9c-0.6,0-1.9-1.3-1.9-1.9c0-0.6,1.3-1.9,1.9-1.9c0.6,0,1.9,1.3,1.9,1.9
		C250.3,138.6,249,139.9,248.4,139.9z"/>
</g>
</svg>
