<?xml version="1.0" encoding="utf-8"?>
<!-- Generator: Adobe Illustrator 24.0.0, SVG Export Plug-In . SVG Version: 6.00 Build 0)  -->
<svg version="1.1" id="Layer_1" xmlns="http://www.w3.org/2000/svg" xmlns:xlink="http://www.w3.org/1999/xlink" x="0px" y="0px"
	 viewBox="0 0 300 250" style="enable-background:new 0 0 300 250;" xml:space="preserve">
<style type="text/css">
	.st0{fill:#F9E039;}
</style>
<g>
	<path class="st0" d="M30.9,91.7h-2.3l-2.1-6.5c-0.3-1-0.6-2-1-3.3h0c-0.3,1.3-0.6,2.3-1,3.3l-2.1,6.5h-2.2l-4.9-14.8h3.5l1.9,5.9
		c0.3,0.9,0.6,1.8,0.8,2.9h0c0.2-1.1,0.5-2,0.8-2.9l1.9-5.9h3.1l1.9,5.9c0.3,0.8,0.6,1.9,0.8,3h0c0.2-1.1,0.5-2.1,0.8-2.9l2-5.9h3.1
		L30.9,91.7z"/>
	<path class="st0" d="M38.8,79.7c-0.6,0-1.8-1.2-1.8-1.8c0-0.6,1.2-1.8,1.8-1.8c0.6,0,1.8,1.2,1.8,1.8
		C40.6,78.5,39.4,79.7,38.8,79.7z M37.1,91.6V81.2h3.4v10.4H37.1z"/>
	<path class="st0" d="M46.3,92c-2.1-0.1-3.6-1.2-3.6-3.7V75.2H46v12.7c0,0.9,0.5,1.3,1.4,1.4L46.3,92z"/>
	<path class="st0" d="M52.3,92c-2.1-0.1-3.6-1.2-3.6-3.7V75.2h3.3v12.7c0,0.9,0.5,1.3,1.4,1.4L52.3,92z"/>
	<path class="st0" d="M66.5,90.5c-1.6,4.2-3.2,5.7-5.2,6.5l-2.1-2.1c1.7-0.6,3-1.9,3.8-4.1l-3.7-9.7h3.3l1.5,4
		c0.2,0.6,0.5,1.3,0.6,2h0c0.2-0.7,0.4-1.4,0.7-2l1.5-4H70L66.5,90.5z"/>
	<path class="st0" d="M76,91.9c-3.2,0-5.7-2.2-5.7-5.5c0-3.3,2.5-5.5,5.7-5.5c3.1,0,5.7,2.2,5.7,5.5C81.7,89.7,79.1,91.9,76,91.9z
		 M76,83.8c-1.3,0-2.3,1.1-2.3,2.6S74.7,89,76,89c1.2,0,2.3-1.1,2.3-2.6S77.2,83.8,76,83.8z"/>
	<path class="st0" d="M90.2,91.6v-1.4h0c-0.4,1.1-1.5,1.7-3.2,1.7c-2.3,0-3.7-1.3-3.7-3.5v-7.2h3.4v6.4c0,0.8,0.5,1.4,1.6,1.4
		c1,0,1.6-0.7,1.6-1.5v-6.3h3.4v10.4H90.2z"/>
	<path class="st0" d="M101.9,84.7c-0.2-0.1-0.7-0.3-1-0.3c-1.1,0-2.1,0.6-2.1,2.2v4.9h-3.4V81.2h3.3v2.3h0c0.3-1.6,1.6-2.5,3-2.5
		c0.3,0,0.7,0,1,0.1L101.9,84.7z"/>
	<path class="st0" d="M115.5,84.7c-0.2-0.1-0.7-0.3-1-0.3c-1.1,0-2.1,0.6-2.1,2.2v4.9H109V81.2h3.3v2.3h0c0.3-1.6,1.6-2.5,3-2.5
		c0.3,0,0.7,0,1,0.1L115.5,84.7z"/>
	<path class="st0" d="M126.8,85.8l-1.5,1.5h-5.1c0.2,0.9,1.3,1.8,3.1,1.8c1.1,0,2.2-0.3,2.9-0.8l-0.3,2.9c-0.8,0.4-2,0.7-3.3,0.7
		c-3.2,0-5.7-2.2-5.7-5.6c0-3.4,2.4-5.5,5.4-5.5c2.9,0,4.7,2,4.7,4.2C126.9,85.2,126.8,85.6,126.8,85.8z M122.2,83.3
		c-1,0-1.8,0.8-2,1.7h3.5c0-0.1,0-0.1,0-0.2C123.7,84.1,123.1,83.3,122.2,83.3z"/>
	<path class="st0" d="M135.6,83.9h-2.7v3.9c0,0.9,0.5,1.3,1.4,1.3c0.4,0,0.6,0,0.9-0.1l-0.3,2.6c-0.3,0.2-0.9,0.3-1.6,0.3
		c-2.3,0-3.7-1.2-3.7-3.3v-4.5h-1.7v-2.8h1.7v-2.2l3.4-1.2v3.4h3.4L135.6,83.9z"/>
	<path class="st0" d="M139.2,79.7c-0.6,0-1.8-1.2-1.8-1.8c0-0.6,1.2-1.8,1.8-1.8c0.6,0,1.8,1.2,1.8,1.8
		C141,78.5,139.8,79.7,139.2,79.7z M137.5,91.6V81.2h3.4v10.4H137.5z"/>
	<path class="st0" d="M149.6,84.7c-0.2-0.1-0.7-0.3-1-0.3c-1.1,0-2.1,0.6-2.1,2.2v4.9h-3.4V81.2h3.3v2.3h0c0.3-1.6,1.6-2.5,3-2.5
		c0.3,0,0.7,0,1,0.1L149.6,84.7z"/>
	<path class="st0" d="M160.9,85.8l-1.5,1.5h-5.1c0.2,0.9,1.3,1.8,3.1,1.8c1.1,0,2.2-0.3,2.9-0.8l-0.3,2.9c-0.8,0.4-2,0.7-3.3,0.7
		c-3.2,0-5.7-2.2-5.7-5.6c0-3.4,2.4-5.5,5.4-5.5c2.9,0,4.7,2,4.7,4.2C161,85.2,160.9,85.6,160.9,85.8z M156.3,83.3
		c-1,0-1.8,0.8-2,1.7h3.5c0-0.1,0-0.1,0-0.2C157.8,84.1,157.2,83.3,156.3,83.3z"/>
	<path class="st0" d="M175.4,91.6v-6.4c0-0.8-0.4-1.4-1.5-1.4c-1.1,0-1.6,0.6-1.6,1.5v6.3H169v-6.4c0-0.8-0.4-1.4-1.5-1.4
		c-1.1,0-1.6,0.6-1.6,1.5v6.3h-3.4V81.2h3.1v1.4h0c0.4-1.1,1.4-1.7,3.1-1.7c1.5,0,2.6,0.6,3.1,1.7c0.4-1,1.7-1.7,3.2-1.7
		c2.4,0,3.7,1.3,3.7,3.5v7.2H175.4z"/>
	<path class="st0" d="M190.5,85.8l-1.5,1.5h-5.1c0.2,0.9,1.3,1.8,3.1,1.8c1.1,0,2.2-0.3,2.9-0.8l-0.3,2.9c-0.8,0.4-2,0.7-3.3,0.7
		c-3.2,0-5.7-2.2-5.7-5.6c0-3.4,2.4-5.5,5.4-5.5c2.9,0,4.7,2,4.7,4.2C190.6,85.2,190.6,85.6,190.5,85.8z M185.9,83.3
		c-1,0-1.8,0.8-2,1.7h3.5c0-0.1,0-0.1,0-0.2C187.4,84.1,186.8,83.3,185.9,83.3z"/>
	<path class="st0" d="M198.8,91.6v-6.4c0-0.8-0.5-1.4-1.5-1.4c-1,0-1.7,0.6-1.7,1.5v6.3h-3.4V81.2h3.1v1.4h0
		c0.4-1.1,1.5-1.7,3.2-1.7c2.3,0,3.7,1.3,3.7,3.5v7.2H198.8z"/>
	<path class="st0" d="M211.2,83.9h-2.7v3.9c0,0.9,0.5,1.3,1.4,1.3c0.4,0,0.6,0,0.9-0.1l-0.3,2.6c-0.3,0.2-0.9,0.3-1.6,0.3
		c-2.3,0-3.7-1.2-3.7-3.3v-4.5h-1.7v-2.8h1.7v-2.2l3.4-1.2v3.4h3.4L211.2,83.9z"/>
	<path class="st0" d="M221.6,91.8c-1.4,0-2.5-0.3-3.3-0.7l-0.3-3c0.9,0.6,2.1,1.1,3.3,1.1c0.6,0,1-0.3,1-0.7c0-0.4-0.3-0.6-0.9-0.8
		c-2-0.6-3.2-1.6-3.2-3.4c0-2,1.7-3.4,3.9-3.4c1.3,0,2.6,0.3,3.1,0.6l-0.6,2.5c-0.5-0.3-1.3-0.6-2.2-0.6c-0.6,0-0.9,0.3-0.9,0.7
		c0,0.4,0.3,0.6,0.9,0.8c2.3,0.6,3.3,1.8,3.3,3.5C225.7,90.2,224.4,91.8,221.6,91.8z"/>
	<path class="st0" d="M234.7,92c-0.6-0.1-1.3-0.6-1.6-1.4c-0.5,0.9-1.4,1.3-2.7,1.3c-1.8,0-3.5-1.3-3.5-3.4c0-1.9,1.5-3.2,3.6-3.4
		l2.1-0.2v-0.3c0-0.6-0.5-1-1.6-1c-1,0-2.1,0.3-2.9,0.8l-0.6-2.6c0.9-0.6,2.3-0.9,3.7-0.9c2.8,0,4.7,1.3,4.7,3.8V88
		c0,1.2,0.5,1.9,1.3,2.2L234.7,92z M232.5,87l-1.3,0.1c-0.9,0.1-1.3,0.7-1.3,1.3c0,0.6,0.4,1,1.1,1c0.8,0,1.5-0.6,1.5-1.5V87z"/>
	<path class="st0" d="M243.3,91.7h-2.5l-4-10.5h3.3l1.5,4c0.2,0.6,0.4,1.3,0.6,2h0c0.2-0.7,0.4-1.5,0.6-2l1.5-4h3.1L243.3,91.7z"/>
	<path class="st0" d="M250.3,79.7c-0.6,0-1.8-1.2-1.8-1.8c0-0.6,1.2-1.8,1.8-1.8s1.8,1.2,1.8,1.8C252.1,78.5,250.9,79.7,250.3,79.7z
		 M248.6,91.6V81.2h3.4v10.4H248.6z"/>
	<path class="st0" d="M260.8,91.6v-6.4c0-0.8-0.5-1.4-1.5-1.4c-1,0-1.7,0.6-1.7,1.5v6.3h-3.4V81.2h3.1v1.4h0
		c0.4-1.1,1.5-1.7,3.2-1.7c2.3,0,3.7,1.3,3.7,3.5v7.2H260.8z"/>
	<path class="st0" d="M270.7,96.9c-3,0-5.1-1.7-5.1-3.9c0-1.6,1.1-2.5,2.1-2.8l-1.3-1.3c0.1-0.7,0.7-1.2,1.3-1.5
		c-0.8-0.5-1.5-1.5-1.5-2.8c0-2.2,1.6-3.7,4.3-3.7c0.6,0,1.1,0.1,1.5,0.2c0.5,0.1,1,0.2,1.5,0.2c0.6,0,1.2-0.1,1.6-0.3l0.6,2.6
		c-0.3,0.2-0.8,0.3-1.3,0.3c0.1,0.2,0.3,0.7,0.3,1.1c0,1.7-1.4,3.2-3.4,3.4c-0.4,0-0.7,0.1-0.7,0.4c0,0.1,0.1,0.3,0.3,0.3l1.6,0.6
		c2,0.7,3.2,1.8,3.2,3.7C275.7,95.3,273.7,96.9,270.7,96.9z M271.4,92l-1.2-0.3c-0.8,0-1.4,0.6-1.4,1.4c0,0.7,0.6,1.3,1.8,1.3
		c1.2,0,1.8-0.6,1.8-1.1C272.4,92.7,272.1,92.2,271.4,92z M270.5,83.3c-0.8,0-1.3,0.6-1.3,1.2c0,0.7,0.6,1.2,1.3,1.2
		c0.7,0,1.3-0.6,1.3-1.2C271.8,83.8,271.3,83.3,270.5,83.3z"/>
	<path class="st0" d="M280.4,91.8c-1.4,0-2.5-0.3-3.3-0.7l-0.3-3c0.9,0.6,2.1,1.1,3.3,1.1c0.6,0,1-0.3,1-0.7c0-0.4-0.3-0.6-0.9-0.8
		c-2-0.6-3.2-1.6-3.2-3.4c0-2,1.7-3.4,3.9-3.4c1.3,0,2.6,0.3,3.1,0.6l-0.6,2.5c-0.5-0.3-1.3-0.6-2.2-0.6c-0.6,0-0.9,0.3-0.9,0.7
		c0,0.4,0.3,0.6,0.9,0.8c2.3,0.6,3.3,1.8,3.3,3.5C284.5,90.2,283.2,91.8,280.4,91.8z"/>
</g>
<g>
	<path class="st0" d="M88.9,115.9c-2.2,0-4-0.8-5-1.5V99.2h3.3v6.3c0.4-0.3,1.5-0.7,2.6-0.7c2.9,0,5.2,2,5.2,5.3
		C95,113.4,92.9,115.9,88.9,115.9z M89.1,107.8c-1,0-1.7,0.5-2,0.8v4c0.3,0.3,1.1,0.5,1.7,0.5c1.7,0,2.8-1.2,2.8-2.7
		C91.6,108.9,90.6,107.8,89.1,107.8z"/>
	<path class="st0" d="M106.2,109.8l-1.5,1.5h-5.1c0.2,0.9,1.3,1.8,3.1,1.8c1.1,0,2.2-0.3,2.9-0.8l-0.3,2.9c-0.8,0.4-2,0.7-3.3,0.7
		c-3.2,0-5.7-2.2-5.7-5.6c0-3.4,2.4-5.5,5.4-5.5c2.9,0,4.7,2,4.7,4.2C106.3,109.2,106.2,109.6,106.2,109.8z M101.6,107.3
		c-1,0-1.8,0.8-2,1.7h3.5c0-0.1,0-0.1,0-0.2C103.1,108.1,102.5,107.3,101.6,107.3z"/>
	<path class="st0" d="M119.5,108.7c-0.2-0.1-0.7-0.3-1-0.3c-1.1,0-2.1,0.6-2.1,2.2v4.9h-3.4v-10.4h3.3v2.3h0c0.3-1.6,1.6-2.5,3-2.5
		c0.3,0,0.7,0,1,0.1L119.5,108.7z"/>
	<path class="st0" d="M130.8,109.8l-1.5,1.5h-5.1c0.2,0.9,1.3,1.8,3.1,1.8c1.1,0,2.2-0.3,2.9-0.8l-0.3,2.9c-0.8,0.4-2,0.7-3.3,0.7
		c-3.2,0-5.7-2.2-5.7-5.6c0-3.4,2.4-5.5,5.4-5.5c2.9,0,4.7,2,4.7,4.2C130.9,109.2,130.9,109.6,130.8,109.8z M126.2,107.3
		c-1,0-1.8,0.8-2,1.7h3.5c0-0.1,0-0.1,0-0.2C127.8,108.1,127.1,107.3,126.2,107.3z"/>
	<path class="st0" d="M139.8,116c-0.6-0.1-1.3-0.6-1.6-1.4c-0.5,0.9-1.4,1.3-2.7,1.3c-1.8,0-3.5-1.3-3.5-3.4c0-1.9,1.5-3.2,3.6-3.4
		l2.1-0.2v-0.3c0-0.6-0.5-1-1.6-1c-1,0-2.1,0.3-2.9,0.8l-0.6-2.6c0.9-0.6,2.3-0.9,3.7-0.9c2.8,0,4.7,1.3,4.7,3.8v3.4
		c0,1.2,0.5,1.9,1.3,2.2L139.8,116z M137.7,111l-1.3,0.1c-0.9,0.1-1.3,0.7-1.3,1.3c0,0.6,0.4,1,1.1,1c0.8,0,1.5-0.6,1.5-1.5V111z"/>
	<path class="st0" d="M151,115.6v-1.3h0c-0.6,1.1-1.8,1.6-3.2,1.6c-2.6,0-5-1.9-5-5.5c0-3.4,2.4-5.5,5.3-5.5c1.1,0,2.2,0.4,2.6,0.7
		v-6.3h3.3v16.4H151z M150.7,108.7c-0.3-0.4-1-0.9-2-0.9c-1.5,0-2.5,1.1-2.5,2.6s1,2.6,2.5,2.6c1,0,1.7-0.5,2-1.1V108.7z"/>
	<path class="st0" d="M162.4,114.5c-1.6,4.2-3.2,5.7-5.2,6.5l-2.1-2.1c1.7-0.6,3-1.9,3.8-4.1l-3.7-9.7h3.3l1.5,4
		c0.2,0.6,0.5,1.3,0.6,2h0c0.2-0.7,0.4-1.4,0.7-2l1.5-4h3.1L162.4,114.5z"/>
	<path class="st0" d="M166.8,119l-1.1-0.2c0.8-0.9,1.4-2.2,1.5-3.2c-0.6-0.1-1.5-1.1-1.5-1.6c0-0.7,1.3-1.9,1.9-1.9
		c0.5,0,1.9,1.2,1.9,1.9C169.5,115.4,168.1,117.8,166.8,119z"/>
	<path class="st0" d="M183.4,107.9h-2.7v3.9c0,0.9,0.5,1.3,1.4,1.3c0.4,0,0.6,0,0.9-0.1l-0.3,2.6c-0.3,0.2-0.9,0.3-1.6,0.3
		c-2.3,0-3.7-1.2-3.7-3.3v-4.5h-1.7v-2.8h1.7v-2.2l3.4-1.2v3.4h3.4L183.4,107.9z"/>
	<path class="st0" d="M190.2,115.9c-3.2,0-5.7-2.2-5.7-5.5c0-3.3,2.5-5.5,5.7-5.5c3.1,0,5.7,2.2,5.7,5.5
		C195.9,113.6,193.3,115.9,190.2,115.9z M190.2,107.7c-1.3,0-2.3,1.1-2.3,2.6s1.1,2.6,2.3,2.6c1.2,0,2.3-1.1,2.3-2.6
		S191.4,107.7,190.2,107.7z"/>
	<path class="st0" d="M202.7,115.9c-3.2,0-5.7-2.2-5.7-5.5c0-3.3,2.5-5.5,5.7-5.5c3.1,0,5.7,2.2,5.7,5.5
		C208.4,113.6,205.9,115.9,202.7,115.9z M202.7,107.7c-1.3,0-2.3,1.1-2.3,2.6s1.1,2.6,2.3,2.6c1.2,0,2.3-1.1,2.3-2.6
		S204,107.7,202.7,107.7z"/>
	<path class="st0" d="M214.7,108.3c-0.6,0.6-0.8,1.2-0.8,1.8c0,0.3,0,0.7,0.1,1l-2.9-0.6c-0.1-0.5-0.2-0.8-0.2-1.2
		c0-1.2,0.5-2.3,1.3-3.2c0.6-0.6,0.9-1.1,0.9-1.7c0-0.5-0.5-1-1.3-1c-0.8,0-1.6,0.3-2.3,0.8l-0.7-2.9c0.9-0.5,2-0.9,3.3-0.9
		c2.7,0,4.5,1.6,4.5,3.9C216.7,105.8,216.1,106.9,214.7,108.3z M212.6,115.9c-0.6,0-1.9-1.3-1.9-1.9c0-0.6,1.3-1.9,1.9-1.9
		s1.9,1.3,1.9,1.9C214.5,114.6,213.3,115.9,212.6,115.9z"/>
</g>
</svg>
