<?xml version="1.0" encoding="utf-8"?>
<!-- Generator: Adobe Illustrator 24.0.0, SVG Export Plug-In . SVG Version: 6.00 Build 0)  -->
<svg version="1.1" id="Layer_1" xmlns="http://www.w3.org/2000/svg" xmlns:xlink="http://www.w3.org/1999/xlink" x="0px" y="0px"
	 viewBox="0 0 300 250" style="enable-background:new 0 0 300 250;" xml:space="preserve">
<style type="text/css">
	.st0{fill:#3ABFEF;}
</style>
<path class="st0" d="M101,185.4c-5.6,0-10.1,4.5-10.1,10.1v10c0,5.6,4.5,10.1,10.1,10.1h97.9c5.6,0,10.1-4.5,10.1-10.1v-10
	c0-5.6-4.5-10.1-10.1-10.1H101z"/>
<g>
	<path d="M123.9,195.5c1.2,0,2.3,0.1,3.2,1c0.9,0.9,1.3,2.1,1.3,3.3c0,1.1-0.3,2.3-1.1,3.1c-0.8,0.9-1.9,1.2-3.1,1.2h-2.8v-8.6
		H123.9z M123.4,202.5h0.7c0.8,0,1.4-0.2,1.8-0.9c0.3-0.5,0.5-1.2,0.5-1.8c0-0.7-0.2-1.4-0.6-1.9c-0.5-0.6-1-0.7-1.7-0.7h-0.7V202.5
		z"/>
	<path d="M131.7,204.1h-2v-8.6h2V204.1z"/>
	<path d="M137.7,198c-0.2-0.7-0.7-1-1.5-1c-0.5,0-1.2,0.1-1.2,0.8c0,0.6,0.7,0.8,1.2,0.9c0.7,0.1,1.6,0.3,2.2,0.7
		c0.7,0.5,1.1,1.2,1.1,2c0,0.8-0.4,1.6-1.1,2.1c-0.7,0.5-1.6,0.7-2.5,0.7c-1.6,0-3.1-0.7-3.5-2.4l1.8-0.4c0.2,0.9,0.9,1.2,1.8,1.2
		c0.6,0,1.3-0.2,1.3-0.9c0-0.7-1-0.8-1.5-1c-1.5-0.3-3-0.8-3-2.6c0-0.8,0.3-1.5,0.9-2c0.6-0.5,1.4-0.7,2.1-0.7c1.5,0,2.7,0.5,3.2,2
		L137.7,198z"/>
	<path d="M145.7,198.8c0-0.9-0.3-1.8-1.4-1.8c-1.4,0-1.5,1.8-1.5,2.9c0,1.2,0.1,2.7,1.6,2.7c0.9,0,1.4-0.8,1.5-1.6l1.9,0.1
		c-0.2,2-1.6,3.1-3.5,3.1c-2.5,0-3.8-2.1-3.8-4.4c0-2.4,1.3-4.4,3.8-4.4c2.1,0,3.2,1.2,3.5,3.3L145.7,198.8z"/>
	<path d="M149.7,202.8c-0.6-0.9-0.9-2-0.9-3.1c0-2.3,1.1-4.4,3.7-4.4c1.1,0,2,0.4,2.7,1.3c0.6,0.8,0.9,2,0.9,3.1c0,1-0.3,2.2-0.8,3
		c-0.7,1-1.7,1.4-2.8,1.4C151.3,204.2,150.4,203.8,149.7,202.8z M151.2,198c-0.2,0.5-0.3,1.2-0.3,1.8c0,1.1,0.2,2.8,1.6,2.8
		c0.7,0,1.1-0.3,1.3-1c0.2-0.5,0.3-1.2,0.3-1.8c0-0.6-0.1-1.4-0.3-1.9c-0.2-0.6-0.6-0.8-1.2-0.8C151.8,197,151.4,197.4,151.2,198z"
		/>
	<path d="M161.2,204.1H159l-2.6-8.6h2.1l1.7,6.1l1.8-6.1h1.7L161.2,204.1z"/>
	<path d="M166.6,197.2v1.7h3.2v1.6h-3.2v1.9h4.1v1.7h-6.1v-8.6h6.1v1.7H166.6z"/>
	<path d="M173.9,204.1h-2v-8.6h3.6c0.8,0,1.5,0,2.2,0.4c0.7,0.5,1.1,1.3,1.1,2.1c0,1-0.6,1.9-1.5,2.2l1.6,3.8h-2.2l-1.3-3.4h-1.5
		V204.1z M173.9,199.2h1.1c0.4,0,0.9,0,1.2-0.2c0.3-0.2,0.5-0.6,0.5-1c0-0.3-0.2-0.7-0.5-0.9c-0.3-0.2-0.9-0.2-1.3-0.2h-1V199.2z"/>
</g>
</svg>
