<?xml version="1.0" encoding="utf-8"?>
<!-- Generator: Adobe Illustrator 24.0.0, SVG Export Plug-In . SVG Version: 6.00 Build 0)  -->
<svg version="1.1" id="Layer_1" xmlns="http://www.w3.org/2000/svg" xmlns:xlink="http://www.w3.org/1999/xlink" x="0px" y="0px"
	 viewBox="0 0 300 250" style="enable-background:new 0 0 300 250;" xml:space="preserve">
<style type="text/css">
	.st0{fill:#FFFFFF;}
	.st1{clip-path:url(#SVGID_2_);fill:#FFFFFF;}
	.st2{clip-path:url(#SVGID_4_);fill:url(#SVGID_5_);}
	.st3{clip-path:url(#SVGID_7_);fill:url(#SVGID_8_);}
	.st4{clip-path:url(#SVGID_10_);fill:url(#SVGID_11_);}
</style>
<path class="st0" d="M150.9,18.4V22h-6.3v17.2h-4V22h-6.3v-3.6H150.9z M152.6,39.2h4V28.8V18.4h-4v10.4V39.2z M177.3,39.2h-4.1
	l-2.1-5.1h-7l-2.1,5.1h-4l8.8-21h1.8L177.3,39.2z M196.8,39.2h-4.1l-2.1-5.1h-7l-2.1,5.1h-4l8.8-21h1.8L196.8,39.2z M169.7,30.7
	l-2.1-5.2l-2.1,5.2H169.7z M189.1,30.7l-2.1-5.2l-2.1,5.2H189.1z"/>
<g>
	<defs>
		<rect id="SVGID_1_" x="101.6" y="13.4" width="97.5" height="32.8"/>
	</defs>
	<clipPath id="SVGID_2_">
		<use xlink:href="#SVGID_1_"  style="overflow:visible;"/>
	</clipPath>
	<path class="st1" d="M119.7,40.5c1.8,0,3.4-0.7,4.5-1.9l4.9-4.9c1.1-1.1,1.8-2.7,1.8-4.5V13.9h-15.3c-1.8,0-3.4,0.7-4.5,1.9
		l-4.9,4.9c-1.1,1.1-1.8,2.7-1.8,4.5v15.3H119.7z"/>
</g>
<g>
	<defs>
		<path id="SVGID_3_" d="M117.5,15.3c-2.8,0-5,2.2-5,5V22h10.5v10.5h1.7c2.8,0,5-2.3,5-5V15.3H117.5z"/>
	</defs>
	<clipPath id="SVGID_4_">
		<use xlink:href="#SVGID_3_"  style="overflow:visible;"/>
	</clipPath>
	
		<linearGradient id="SVGID_5_" gradientUnits="userSpaceOnUse" x1="0.6178" y1="251.4284" x2="1.6178" y2="251.4284" gradientTransform="matrix(11.9476 -11.9476 -11.9476 -11.9476 3114.2583 3038.5479)">
		<stop  offset="0" style="stop-color:#9EDCF9"/>
		<stop  offset="0.1" style="stop-color:#9EDCF9"/>
		<stop  offset="0.9" style="stop-color:#079DD9"/>
		<stop  offset="1" style="stop-color:#079DD9"/>
	</linearGradient>
	<polygon class="st2" points="103.9,23.9 121,6.7 138.2,23.9 121,41 	"/>
</g>
<g>
	<defs>
		<path id="SVGID_6_" d="M124.6,33.8h-13.5l-5.4,5.4h13.9c1.4,0,2.6-0.5,3.6-1.5l4.5-4.5l-0.1-0.1C126.7,33.5,125.7,33.8,124.6,33.8
			"/>
	</defs>
	<clipPath id="SVGID_7_">
		<use xlink:href="#SVGID_6_"  style="overflow:visible;"/>
	</clipPath>
	
		<linearGradient id="SVGID_8_" gradientUnits="userSpaceOnUse" x1="0.5604" y1="251.025" x2="1.5604" y2="251.025" gradientTransform="matrix(22.0274 0 0 -22.0274 93.4029 5565.5054)">
		<stop  offset="0" style="stop-color:#17B0E6"/>
		<stop  offset="0.1144" style="stop-color:#18ACE2"/>
		<stop  offset="0.264" style="stop-color:#16A1D7"/>
		<stop  offset="0.4332" style="stop-color:#1290C7"/>
		<stop  offset="0.6169" style="stop-color:#0D7AB4"/>
		<stop  offset="0.81" style="stop-color:#00619F"/>
		<stop  offset="0.9" style="stop-color:#005595"/>
		<stop  offset="1" style="stop-color:#005595"/>
	</linearGradient>
	<rect x="105.7" y="33" class="st3" width="22" height="6.1"/>
</g>
<g>
	<defs>
		<path id="SVGID_9_" d="M107.3,21.6c-1,1-1.5,2.2-1.5,3.6v13.9l5.4-5.4V20.3c0-1.1,0.3-2.1,0.8-3.1l-0.1-0.1L107.3,21.6z"/>
	</defs>
	<clipPath id="SVGID_10_">
		<use xlink:href="#SVGID_9_"  style="overflow:visible;"/>
	</clipPath>
	
		<linearGradient id="SVGID_11_" gradientUnits="userSpaceOnUse" x1="1.025" y1="251.4397" x2="2.025" y2="251.4397" gradientTransform="matrix(0 -22.0277 -22.0277 0 5647.457 61.7313)">
		<stop  offset="0" style="stop-color:#0582BE"/>
		<stop  offset="0.2191" style="stop-color:#0478B4"/>
		<stop  offset="0.6535" style="stop-color:#00609E"/>
		<stop  offset="0.85" style="stop-color:#005595"/>
		<stop  offset="1" style="stop-color:#005595"/>
	</linearGradient>
	<rect x="105.7" y="17.1" class="st4" width="6.1" height="22"/>
</g>
</svg>
