<svg xmlns="http://www.w3.org/2000/svg" width="300" height="250" viewBox="0 0 300 250"><g fill="#231F20"><path d="M266.262 242.564c-.928 0-1.735-.647-1.735-1.847 0-1.359 1-2.814 2.367-3.519l.72.336c-.96.479-1.711 1.159-2.087 2.047a1.08 1.08 0 0 1 .791-.328c.976 0 1.64.729 1.64 1.647-.001.961-.721 1.664-1.696 1.664zm.008-2.638c-.399 0-.848.152-.991.712-.008.088-.008.176-.008.264 0 .576.479 1.056 1.007 1.056.528 0 .943-.408.943-1.016 0-.577-.392-1.016-.951-1.016zM270.414 242.572c-.928 0-1.743-.848-1.743-2.654 0-1.791.815-2.646 1.743-2.646.911 0 1.743.855 1.743 2.646 0 1.807-.832 2.654-1.743 2.654zm0-4.653c-.521 0-1.008.56-1.008 1.999 0 1.455.487 2.007 1.008 2.007.512 0 1.007-.552 1.007-2.007 0-1.439-.495-1.999-1.007-1.999zM274.126 242.564c-.392 0-.76-.088-.968-.2l-.08-.72c.32.192.656.28 1.008.28.592 0 1.096-.376 1.096-1.016 0-.655-.504-1.047-1.072-1.047-.375 0-.64.048-.879.136l.08-2.623h2.23l-.136.624h-1.399l-.032 1.239c.064-.008.145-.016.208-.016.951 0 1.735.64 1.735 1.694 0 .882-.616 1.649-1.791 1.649zM277.694 242.637l-.72-.336c.976-.488 1.735-1.151 2.103-2.047a1.106 1.106 0 0 1-.808.328c-.976 0-1.639-.729-1.639-1.647 0-.96.72-1.663 1.695-1.663.927 0 1.734.647 1.734 1.847.002 1.359-.997 2.814-2.365 3.518zm.616-4.71c-.527 0-.943.408-.943 1.016 0 .576.392 1.016.951 1.016.408 0 .848-.168.992-.728.008-.08.008-.16.008-.248-.001-.576-.48-1.056-1.008-1.056zM282.55 242.564c-.928 0-1.735-.647-1.735-1.847 0-1.359 1-2.814 2.367-3.519l.72.336c-.96.479-1.711 1.159-2.087 2.047a1.08 1.08 0 0 1 .791-.328c.976 0 1.64.729 1.64 1.647-.001.961-.721 1.664-1.696 1.664zm.008-2.638c-.399 0-.848.152-.991.712-.008.088-.008.176-.008.264 0 .576.479 1.056 1.007 1.056.528 0 .943-.408.943-1.016 0-.577-.392-1.016-.951-1.016zM285.87 242.477h-.784l1.936-4.478h-2.343v-.624h3.382l-2.191 5.102zM291.325 242.564c-.248-.056-.52-.264-.576-.567-.168.424-.552.567-.967.567-.72 0-1.168-.527-1.168-1.111 0-.703.576-1.104 1.191-1.159l.848-.08v-.231c0-.328-.191-.592-.703-.592-.36 0-.736.111-1 .287l-.144-.6c.328-.216.743-.312 1.184-.312.808 0 1.391.456 1.391 1.312v1.463c0 .328.176.52.408.56l-.464.463zm-.672-1.751l-.695.063c-.464.04-.647.32-.647.584 0 .256.208.488.535.488a.797.797 0 0 0 .808-.816v-.319z"/></g></svg>