<svg id="Layer_1" xmlns="http://www.w3.org/2000/svg" viewBox="0 0 300 250"><style>.st0{fill:#231f20}</style><path class="st0" d="M23.3 33.3l-1.1-2.9h-4.1L17 33.3h-2.9l5-12.9h2.1l5 12.9h-2.9zm-2.7-7.7c-.1-.3-.3-.8-.4-1.2-.1.4-.2.9-.4 1.2L19 28h2.5l-.9-2.4zM33.1 27.4c-.2-.1-.6-.2-.9-.2-.9 0-1.8.5-1.8 1.9v4.2h-2.9v-9.1h2.9v2c.3-1.4 1.4-2.2 2.6-2.2.3 0 .6 0 .8.1l-.7 3.3zM42.9 28.3l-1.3 1.3h-4.4c.1.7 1.1 1.6 2.7 1.6.9 0 1.9-.3 2.5-.7l-.3 2.5c-.7.4-1.7.6-2.9.6-2.8 0-5-1.9-5-4.9 0-2.9 2.1-4.8 4.7-4.8 2.5 0 4.1 1.7 4.1 3.6 0 .3 0 .6-.1.8zm-4-2.2c-.9 0-1.6.7-1.8 1.5h3.1v-.2c.1-.6-.5-1.3-1.3-1.3zM60.1 33.3v-5.6c0-.7-.3-1.2-1.3-1.2-.9 0-1.4.6-1.4 1.3v5.5h-2.9v-5.6c0-.7-.3-1.2-1.3-1.2-.9 0-1.4.6-1.4 1.3v5.5h-2.9v-9.1h2.7v1.2c.4-1 1.3-1.5 2.7-1.5 1.3 0 2.3.5 2.7 1.5.4-.9 1.4-1.5 2.8-1.5 2.1 0 3.2 1.1 3.2 3v6.3h-2.9zM70.8 33.3v-1.2c-.4 1-1.3 1.5-2.8 1.5-2 0-3.2-1.1-3.2-3v-6.3h2.9v5.6c0 .7.5 1.2 1.4 1.2.9 0 1.4-.6 1.4-1.3v-5.5h2.9v9.1h-2.6zM78.5 33.7c-1.9-.1-3.1-1-3.1-3.2V19.1h2.9v11c0 .7.4 1.1 1.2 1.2l-1 2.4zM86.6 26.6h-2.4V30c0 .8.4 1.1 1.2 1.1.3 0 .5 0 .8-.1l-.2 2.2c-.3.1-.8.2-1.4.2-2 0-3.3-1.1-3.3-2.9v-3.9h-1.5v-2.4h1.5v-1.9l2.9-1.1v3h2.9l-.5 2.4zM89.8 23c-.5 0-1.6-1.1-1.6-1.6s1.1-1.6 1.6-1.6 1.6 1 1.6 1.6c-.1.5-1.1 1.6-1.6 1.6zm-1.5 10.3v-9.1h3v9.1h-3zM98.3 33.6c-1 0-1.9-.3-2.3-.6v5h-2.9V24.2h2.6v1.1c.5-.9 1.5-1.4 2.8-1.4 2.2 0 4.4 1.7 4.4 4.8 0 3-2.1 4.9-4.6 4.9zm-.5-7.1c-.9 0-1.5.5-1.8.9v2.8c.3.4.9.8 1.8.8 1.3 0 2.2-1 2.2-2.3s-.9-2.2-2.2-2.2zM107.5 33.7c-1.9-.1-3.1-1-3.1-3.2V19.1h2.9v11c0 .7.4 1.1 1.2 1.2l-1 2.4zM117.9 28.3l-1.3 1.3h-4.4c.1.7 1.1 1.6 2.7 1.6.9 0 1.9-.3 2.5-.7l-.3 2.5c-.7.4-1.7.6-2.9.6-2.8 0-5-1.9-5-4.9 0-2.9 2.1-4.8 4.7-4.8 2.5 0 4.1 1.7 4.1 3.6 0 .3-.1.6-.1.8zm-4-2.2c-.9 0-1.6.7-1.8 1.5h3.1v-.2c0-.6-.5-1.3-1.3-1.3zM129.5 27.4c-.2-.1-.6-.2-.9-.2-.9 0-1.8.5-1.8 1.9v4.2h-2.9v-9.1h2.9v2c.3-1.4 1.4-2.2 2.6-2.2.3 0 .6 0 .8.1l-.7 3.3zM139.3 28.3l-1.3 1.3h-4.4c.1.7 1.1 1.6 2.7 1.6.9 0 1.9-.3 2.5-.7l-.3 2.5c-.7.4-1.7.6-2.9.6-2.8 0-5-1.9-5-4.9 0-2.9 2.1-4.8 4.7-4.8 2.5 0 4.1 1.7 4.1 3.6 0 .3 0 .6-.1.8zm-3.9-2.2c-.9 0-1.6.7-1.8 1.5h3.1v-.2c0-.6-.6-1.3-1.3-1.3zM147 26.6h-2.4V30c0 .8.4 1.1 1.2 1.1.3 0 .5 0 .8-.1l-.3 2.2c-.3.1-.8.2-1.4.2-2 0-3.3-1.1-3.3-2.9v-3.9h-1.5v-2.4h1.5v-1.9l2.9-1.1v3h2.9l-.4 2.4zM150.1 23c-.5 0-1.6-1.1-1.6-1.6s1.1-1.6 1.6-1.6 1.6 1 1.6 1.6c0 .5-1 1.6-1.6 1.6zm-1.4 10.3v-9.1h3v9.1h-3zM159.2 27.4c-.2-.1-.6-.2-.9-.2-.9 0-1.8.5-1.8 1.9v4.2h-2.9v-9.1h2.9v2c.3-1.4 1.4-2.2 2.6-2.2.3 0 .6 0 .8.1l-.7 3.3zM169 28.3l-1.3 1.3h-4.4c.1.7 1.1 1.6 2.7 1.6.9 0 1.9-.3 2.5-.7l-.3 2.5c-.7.4-1.7.6-2.9.6-2.8 0-5-1.9-5-4.9 0-2.9 2.1-4.8 4.7-4.8 2.5 0 4.1 1.7 4.1 3.6 0 .3-.1.6-.1.8zm-4-2.2c-.9 0-1.6.7-1.8 1.5h3.1v-.2c0-.6-.5-1.3-1.3-1.3zM181.7 33.3v-5.6c0-.7-.3-1.2-1.3-1.2-.9 0-1.4.6-1.4 1.3v5.5h-2.9v-5.6c0-.7-.3-1.2-1.3-1.2-.9 0-1.4.6-1.4 1.3v5.5h-2.9v-9.1h2.7v1.2c.4-1 1.3-1.5 2.7-1.5 1.3 0 2.3.5 2.7 1.5.4-.9 1.4-1.5 2.8-1.5 2.1 0 3.2 1.1 3.2 3v6.3h-2.9zM194.8 28.3l-1.3 1.3h-4.4c.1.7 1.1 1.6 2.7 1.6.9 0 1.9-.3 2.5-.7L194 33c-.7.4-1.7.6-2.9.6-2.8 0-5-1.9-5-4.9 0-2.9 2.1-4.8 4.7-4.8 2.5 0 4.1 1.7 4.1 3.6 0 .3 0 .6-.1.8zm-4-2.2c-.9 0-1.6.7-1.8 1.5h3.1v-.2c.1-.6-.5-1.3-1.3-1.3zM202.1 33.3v-5.6c0-.7-.4-1.2-1.3-1.2s-1.4.6-1.4 1.3v5.5h-2.9v-9.1h2.7v1.2c.4-1 1.3-1.5 2.8-1.5 2 0 3.2 1.1 3.2 3v6.3h-3.1zM212.8 26.6h-2.4V30c0 .8.4 1.1 1.2 1.1.3 0 .5 0 .8-.1l-.3 2.2c-.3.1-.8.2-1.4.2-2 0-3.3-1.1-3.3-2.9v-3.9H206v-2.4h1.5v-1.9l2.9-1.1v3h2.9l-.5 2.4z"/><g><path class="st0" d="M21.3 52.7c-.5-.1-1.2-.5-1.4-1.2-.4.7-1.3 1.1-2.4 1.1-1.6 0-3-1.1-3-3 0-1.7 1.3-2.8 3.1-3l1.8-.2v-.3c0-.5-.4-.9-1.4-.9-.9 0-1.9.3-2.5.7l-.5-2.2c.7-.5 2-.8 3.2-.8 2.4 0 4.1 1.1 4.1 3.3v3c0 1.1.4 1.6 1.1 1.9l-2.1 1.6zm-1.9-4.4l-1.1.1c-.8.1-1.1.6-1.1 1.1 0 .5.4.9.9.9.7 0 1.3-.5 1.3-1.3v-.8zM31.1 46.2c-.6-.4-1.2-.6-1.9-.6-1.3 0-2.3.9-2.3 2.2 0 1.3 1 2.2 2.4 2.2.8 0 1.3-.2 2-.5L31 52c-.6.3-1.4.4-2.2.4-2.5 0-4.9-1.8-4.9-4.7 0-3 2.4-4.7 4.8-4.7 1.2 0 2.2.2 3 .7l-.6 2.5zM39.8 46.2c-.6-.4-1.2-.6-1.9-.6-1.3 0-2.3.9-2.3 2.2 0 1.3 1 2.2 2.4 2.2.8 0 1.3-.2 2-.5l-.3 2.5c-.6.3-1.4.4-2.2.4-2.5 0-4.9-1.8-4.9-4.7 0-3 2.4-4.7 4.8-4.7 1.2 0 2.2.2 3 .7l-.6 2.5zM46.1 52.6c-2.7 0-4.9-1.9-4.9-4.8s2.2-4.8 4.9-4.8 4.9 1.9 4.9 4.8c.1 2.8-2.1 4.8-4.9 4.8zm0-7.1c-1.1 0-2 1-2 2.3s.9 2.3 2 2.3 2-1 2-2.3-.9-2.3-2-2.3zM58.5 52.3v-1.2c-.4 1-1.3 1.5-2.8 1.5-2 0-3.2-1.1-3.2-3v-6.3h2.9v5.6c0 .7.5 1.2 1.4 1.2.9 0 1.4-.6 1.4-1.3v-5.5h2.9v9.1h-2.6zM68.8 52.3v-5.6c0-.7-.4-1.2-1.3-1.2s-1.4.6-1.4 1.3v5.5h-2.9v-9.1h2.7v1.2c.4-1 1.3-1.5 2.8-1.5 2 0 3.2 1.1 3.2 3v6.3h-3.1zM79.6 45.6h-2.4V49c0 .8.4 1.1 1.2 1.1.3 0 .5 0 .8-.1l-.3 2.2c-.3.1-.8.2-1.4.2-2 0-3.3-1.1-3.3-2.9v-3.9h-1.5v-2.4h1.5v-1.9l2.9-1.1v3H80l-.4 2.4zM84 52.5c-1.2 0-2.1-.3-2.9-.6l-.3-2.6c.8.6 1.8 1 2.8 1 .5 0 .9-.3.9-.6 0-.4-.3-.5-.8-.7-1.7-.5-2.8-1.4-2.8-3 0-1.8 1.4-2.9 3.4-2.9 1.1 0 2.2.3 2.7.5l-.5 2.2c-.4-.2-1.2-.5-1.9-.5-.5 0-.8.2-.8.6 0 .3.2.5.8.7 2 .5 2.9 1.6 2.9 3.1 0 1.4-1.1 2.8-3.5 2.8zM100.4 46.2c-.6-.4-1.2-.6-1.9-.6-1.3 0-2.3.9-2.3 2.2 0 1.3 1 2.2 2.4 2.2.8 0 1.3-.2 2-.5l-.3 2.5c-.6.3-1.4.4-2.2.4-2.5 0-4.9-1.8-4.9-4.7 0-3 2.4-4.7 4.8-4.7 1.2 0 2.2.2 3 .7l-.6 2.5zM106.7 52.6c-2.7 0-4.9-1.9-4.9-4.8s2.2-4.8 4.9-4.8 4.9 1.9 4.9 4.8c.1 2.8-2.1 4.8-4.9 4.8zm0-7.1c-1.1 0-2 1-2 2.3s.9 2.3 2 2.3 2-1 2-2.3-.9-2.3-2-2.3zM116 52.5c-1.2 0-2.1-.3-2.9-.6l-.3-2.6c.8.6 1.8 1 2.8 1 .5 0 .9-.3.9-.6 0-.4-.3-.5-.8-.7-1.7-.5-2.8-1.4-2.8-3 0-1.8 1.4-2.9 3.4-2.9 1.1 0 2.2.3 2.7.5l-.5 2.2c-.4-.2-1.2-.5-1.9-.5-.5 0-.8.2-.8.6 0 .3.2.5.8.7 2 .5 2.9 1.6 2.9 3.1.1 1.4-1.1 2.8-3.5 2.8zM126.9 45.6h-2.4V49c0 .8.4 1.1 1.2 1.1.3 0 .5 0 .8-.1l-.3 2.2c-.3.1-.8.2-1.4.2-2 0-3.3-1.1-3.3-2.9v-3.9H120v-2.4h1.5v-1.9l2.9-1.1v3h2.9l-.4 2.4zM130.1 42c-.5 0-1.6-1.1-1.6-1.6s1.1-1.6 1.6-1.6 1.6 1 1.6 1.6c-.1.5-1.1 1.6-1.6 1.6zm-1.5 10.3v-9.1h3v9.1h-3zM139.2 52.3v-5.6c0-.7-.4-1.2-1.3-1.2s-1.4.6-1.4 1.3v5.5h-2.9v-9.1h2.7v1.2c.4-1 1.3-1.5 2.8-1.5 2 0 3.2 1.1 3.2 3v6.3h-3.1zM147.8 56.9c-2.6 0-4.4-1.5-4.4-3.4 0-1.4.9-2.2 1.9-2.4l-1.2-1.2c.1-.6.6-1.1 1.1-1.3-.7-.4-1.3-1.3-1.3-2.4 0-1.9 1.4-3.3 3.7-3.3.5 0 1 .1 1.3.2.4.1.8.2 1.3.2s1-.1 1.4-.3l.5 2.2c-.3.2-.7.3-1.1.3.1.2.2.6.2.9 0 1.5-1.2 2.8-3 2.9-.4 0-.6.1-.6.3 0 .1.1.2.2.3l1.4.5c1.8.6 2.7 1.5 2.7 3.2.3 1.9-1.4 3.3-4.1 3.3zm.6-4.2l-1.1-.3c-.7 0-1.2.5-1.2 1.2 0 .6.5 1.1 1.6 1.1 1 0 1.6-.5 1.6-1 0-.4-.3-.9-.9-1zm-.8-7.6c-.7 0-1.2.5-1.2 1.1 0 .6.5 1.1 1.2 1.1.6 0 1.2-.5 1.2-1.1 0-.6-.5-1.1-1.2-1.1zM169.1 52.3v-5.6c0-.7-.3-1.2-1.3-1.2-.9 0-1.4.6-1.4 1.3v5.5h-2.9v-5.6c0-.7-.3-1.2-1.3-1.2-.9 0-1.4.6-1.4 1.3v5.5h-2.9v-9.1h2.7v1.2c.4-1 1.3-1.5 2.7-1.5 1.3 0 2.3.5 2.7 1.5.4-.9 1.4-1.5 2.8-1.5 2.1 0 3.2 1.1 3.2 3v6.3h-2.9zM178.4 52.6c-2.7 0-4.9-1.9-4.9-4.8s2.2-4.8 4.9-4.8 4.9 1.9 4.9 4.8c.1 2.8-2.2 4.8-4.9 4.8zm0-7.1c-1.1 0-2 1-2 2.3s.9 2.3 2 2.3 2-1 2-2.3-.9-2.3-2-2.3zM190.5 46.4c-.2-.1-.6-.2-.9-.2-.9 0-1.8.5-1.8 1.9v4.2h-2.9v-9.1h2.9v2c.3-1.4 1.4-2.2 2.6-2.2.3 0 .6 0 .8.1l-.7 3.3zM200.3 47.3l-1.3 1.3h-4.4c.1.7 1.1 1.6 2.7 1.6.9 0 1.9-.3 2.5-.7l-.3 2.5c-.7.4-1.7.6-2.9.6-2.8 0-5-1.9-5-4.9 0-2.9 2.1-4.8 4.7-4.8 2.5 0 4.1 1.7 4.1 3.6 0 .3-.1.6-.1.8zm-4-2.2c-.9 0-1.6.7-1.8 1.5h3.1v-.2c0-.6-.5-1.3-1.3-1.3zM212.4 45.6H210V49c0 .8.4 1.1 1.2 1.1.3 0 .5 0 .8-.1l-.3 2.2c-.3.1-.8.2-1.4.2-2 0-3.3-1.1-3.3-2.9v-3.9h-1.5v-2.4h1.5v-1.9l2.9-1.1v3h2.9l-.4 2.4zM219.7 52.3v-5.6c0-.7-.5-1.2-1.4-1.2-.9 0-1.4.6-1.4 1.3v5.5H214V38.1h2.9v6c.5-.7 1.3-1.1 2.6-1.1 2 0 3.2 1.1 3.2 3v6.3h-3zM230.9 52.7c-.5-.1-1.2-.5-1.4-1.2-.4.7-1.3 1.1-2.4 1.1-1.6 0-3-1.1-3-3 0-1.7 1.3-2.8 3.1-3l1.8-.2v-.3c0-.5-.4-.9-1.4-.9-.9 0-1.9.3-2.5.7l-.5-2.2c.7-.5 2-.8 3.2-.8 2.4 0 4.1 1.1 4.1 3.3v3c0 1.1.4 1.6 1.1 1.9l-2.1 1.6zm-1.9-4.4l-1.1.1c-.8.1-1.1.6-1.1 1.1 0 .5.4.9.9.9.7 0 1.3-.5 1.3-1.3v-.8zM239.7 52.3v-5.6c0-.7-.4-1.2-1.3-1.2s-1.4.6-1.4 1.3v5.5h-2.9v-9.1h2.7v1.2c.4-1 1.3-1.5 2.8-1.5 2 0 3.2 1.1 3.2 3v6.3h-3.1z"/></g><g><path class="st0" d="M20.5 70.4c-1.4 3.6-2.8 5-4.5 5.6l-1.8-1.8c1.5-.6 2.6-1.6 3.3-3.5l-3.3-8.4H17l1.3 3.5c.2.5.4 1.1.5 1.8.2-.6.4-1.3.6-1.8l1.3-3.5h2.7l-2.9 8.1zM28.8 71.6c-2.7 0-4.9-1.9-4.9-4.8s2.2-4.8 4.9-4.8 4.9 1.9 4.9 4.8c0 2.8-2.2 4.8-4.9 4.8zm0-7.1c-1.1 0-2 1-2 2.3s.9 2.3 2 2.3 2-1 2-2.3-1-2.3-2-2.3zM41.1 71.3v-1.2c-.4 1-1.3 1.5-2.8 1.5-2 0-3.2-1.1-3.2-3v-6.3H38v5.6c0 .7.5 1.2 1.4 1.2.9 0 1.4-.6 1.4-1.3v-5.5h2.9v9.1h-2.6zM56.2 64.6h-2.4V68c0 .8.4 1.1 1.2 1.1.3 0 .5 0 .8-.1l-.3 2.2c-.3.1-.8.2-1.4.2-2 0-3.3-1.1-3.3-2.9v-3.9h-1.5v-2.4h1.5v-1.9l2.9-1.1v3h2.9l-.4 2.4zM63.5 71.3v-5.6c0-.7-.5-1.2-1.4-1.2-.9 0-1.4.6-1.4 1.3v5.5h-2.9V57.1h2.9v6c.5-.7 1.3-1.1 2.6-1.1 2 0 3.2 1.1 3.2 3v6.3h-3zM69.8 61c-.5 0-1.6-1.1-1.6-1.6s1.1-1.6 1.6-1.6 1.6 1 1.6 1.6c0 .5-1 1.6-1.6 1.6zm-1.4 10.3v-9.1h3v9.1h-3zM79 71.3v-5.6c0-.7-.4-1.2-1.3-1.2s-1.4.6-1.4 1.3v5.5h-2.9v-9.1h2.7v1.2c.4-1 1.3-1.5 2.8-1.5 2 0 3.2 1.1 3.2 3v6.3H79zM89.4 71.3l-2.7-3.7v3.7h-2.9V57.1h2.9V66l2.7-3.7h3.2l-3.2 4.4 3.4 4.7h-3.4zM98.2 65c-.5.6-.7 1-.7 1.6 0 .3 0 .6.1.9L95 67c-.1-.4-.1-.7-.1-1 0-1.1.4-2 1.2-2.8.5-.5.8-.9.8-1.5 0-.4-.4-.9-1.1-.9-.7 0-1.4.3-2 .7l-.7-2.5c.7-.5 1.7-.8 2.9-.8 2.4 0 3.9 1.4 3.9 3.4 0 1.2-.6 2.1-1.7 3.4zm-1.9 6.6c-.5 0-1.7-1.1-1.7-1.7 0-.5 1.1-1.6 1.7-1.6s1.7 1.1 1.7 1.6c0 .6-1.1 1.7-1.7 1.7z"/></g></svg>