<svg id="Layer_1" xmlns="http://www.w3.org/2000/svg" viewBox="0 0 300 250"><style>.st0{fill:#231f20}.st1{font-family:&apos;Agenda-Bold&apos;}.st2{font-size:21px}</style><path class="st0" d="M24.4 36l-1.1-3H19l-1.1 3h-3.1l5.3-13.5h2.2L27.6 36h-3.2zm-2.9-8c-.1-.4-.3-.8-.4-1.2-.1.4-.3.9-.4 1.2l-.9 2.5h2.6l-.9-2.5zM34.7 36v-5.8c0-.7-.5-1.3-1.4-1.3-.9 0-1.5.6-1.5 1.3V36h-3.1v-9.5h2.8v1.3c.4-1 1.4-1.6 2.9-1.6 2.1 0 3.3 1.2 3.3 3.2V36h-3zM46.9 36v-1.2c-.5 1-1.6 1.4-2.9 1.4-2.3 0-4.6-1.8-4.6-5 0-3.1 2.2-5.1 4.8-5.1 1 0 2 .3 2.4.7V21h3v15h-2.7zm-.3-6.2c-.3-.4-.9-.9-1.9-.9-1.3 0-2.3 1-2.3 2.4s.9 2.4 2.3 2.4c.9 0 1.5-.5 1.9-1v-2.9zM60.9 36.3c-2 0-3.7-.7-4.6-1.4V21.1h3v5.8c.4-.3 1.4-.6 2.4-.6 2.6 0 4.8 1.9 4.8 4.9 0 2.8-1.8 5.1-5.6 5.1zm.3-7.4c-.9 0-1.6.4-1.8.7v3.6c.3.2 1 .5 1.6.5 1.6 0 2.6-1.1 2.6-2.5-.1-1.2-1.1-2.3-2.4-2.3zM73.4 35.1c-1.4 3.8-3 5.2-4.7 5.9l-1.9-1.9c1.5-.6 2.7-1.7 3.5-3.7l-3.4-8.9h3l1.4 3.7c.2.5.4 1.2.6 1.9.2-.7.4-1.3.6-1.9l1.4-3.7h2.8l-3.3 8.6zM88 36.3c-1 0-2-.3-2.4-.6v5.2h-3V26.5h2.7v1.2c.5-1 1.6-1.4 2.9-1.4 2.3 0 4.6 1.8 4.6 5 0 3-2.2 5-4.8 5zm-.6-7.4c-.9 0-1.5.5-1.9 1v3c.3.4.9.8 1.9.8 1.3 0 2.3-1 2.3-2.4s-1-2.4-2.3-2.4zM99.1 36.3c-2.9 0-5.2-2-5.2-5.1s2.3-5.1 5.2-5.1c2.9 0 5.2 2 5.2 5.1s-2.3 5.1-5.2 5.1zm0-7.4c-1.2 0-2.1 1-2.1 2.4s1 2.4 2.1 2.4 2.1-1 2.1-2.4-1-2.4-2.1-2.4zM112.2 29h-2.5v3.5c0 .8.4 1.2 1.3 1.2.4 0 .6 0 .8-.1l-.3 2.3c-.3.1-.8.3-1.4.3-2.1 0-3.4-1.1-3.4-3V29H105v-2.5h1.6v-2l3.1-1.1v3.1h3.1l-.6 2.5zM122.3 30.7l-1.4 1.4h-4.7c.1.8 1.2 1.7 2.8 1.7 1 0 2-.3 2.6-.7l-.3 2.6c-.7.4-1.8.6-3 .6-2.9 0-5.2-2-5.2-5.1 0-3.1 2.2-5 5-5 2.6 0 4.3 1.8 4.3 3.8 0 .2 0 .5-.1.7zm-4.2-2.2c-.9 0-1.7.7-1.8 1.6h3.2v-.2c0-.7-.5-1.4-1.4-1.4zM130 36v-5.8c0-.7-.5-1.3-1.4-1.3-.9 0-1.5.6-1.5 1.3V36H124v-9.5h2.8v1.3c.4-1 1.4-1.6 2.9-1.6 2.1 0 3.3 1.2 3.3 3.2V36h-3zM141.2 29h-2.5v3.5c0 .8.4 1.2 1.3 1.2.4 0 .6 0 .8-.1l-.3 2.3c-.3.1-.8.3-1.4.3-2.1 0-3.4-1.1-3.4-3V29h-1.6v-2.5h1.6v-2l3.1-1.1v3.1h3.1l-.7 2.5zM144.5 25.2c-.5 0-1.7-1.1-1.7-1.7s1.1-1.6 1.7-1.6 1.7 1.1 1.7 1.6-1.1 1.7-1.7 1.7zM143 36v-9.5h3.1V36H143zM154.8 36.4c-.6-.1-1.2-.6-1.5-1.3-.4.8-1.3 1.2-2.5 1.2-1.7 0-3.2-1.2-3.2-3.1 0-1.7 1.4-2.9 3.3-3.1l1.9-.2v-.3c0-.6-.5-.9-1.5-.9-.9 0-2 .3-2.6.7l-.5-2.3c.8-.5 2.1-.8 3.3-.8 2.5 0 4.3 1.2 4.3 3.4v3.1c0 1.1.4 1.7 1.2 2l-2.2 1.6zm-2-4.5l-1.2.1c-.8.1-1.2.6-1.2 1.2 0 .5.4.9 1 .9.7 0 1.3-.6 1.3-1.4v-.8zM161.2 36.4c-2-.1-3.3-1.1-3.3-3.4V21.1h3v11.6c0 .8.4 1.2 1.3 1.3l-1 2.4zM166.7 36.4c-2-.1-3.3-1.1-3.3-3.4V21.1h3v11.6c0 .8.4 1.2 1.3 1.3l-1 2.4zM174.5 35.1c-1.4 3.8-3 5.2-4.7 5.9l-1.9-1.9c1.5-.6 2.7-1.7 3.5-3.7l-3.4-8.9h3l1.4 3.7c.2.5.4 1.2.6 1.9.2-.7.4-1.3.6-1.9l1.4-3.7h2.8l-3.3 8.6zM187 36.4c-2-.1-3.3-1.1-3.3-3.4V21.1h3v11.6c0 .8.4 1.2 1.3 1.3l-1 2.4zM190.9 25.2c-.5 0-1.7-1.1-1.7-1.7s1.1-1.6 1.7-1.6c.5 0 1.7 1.1 1.7 1.6s-1.2 1.7-1.7 1.7zM189.3 36v-9.5h3.1V36h-3.1zM206.2 36v-5.8c0-.7-.3-1.3-1.3-1.3s-1.4.6-1.4 1.3V36h-3.1v-5.8c0-.7-.3-1.3-1.3-1.3s-1.4.6-1.4 1.3V36h-3.1v-9.5h2.9v1.3c.4-1 1.3-1.6 2.8-1.6 1.4 0 2.4.5 2.8 1.6.4-.9 1.5-1.6 2.9-1.6 2.2 0 3.4 1.2 3.4 3.2V36h-3.2zM212.8 25.2c-.5 0-1.7-1.1-1.7-1.7s1.1-1.6 1.7-1.6c.5 0 1.7 1.1 1.7 1.6s-1.1 1.7-1.7 1.7zM211.3 36v-9.5h3.1V36h-3.1zM222.7 29h-2.5v3.5c0 .8.4 1.2 1.3 1.2.4 0 .6 0 .8-.1l-.3 2.3c-.3.1-.8.3-1.4.3-2.1 0-3.4-1.1-3.4-3V29h-1.6v-2.5h1.6v-2l3.1-1.1v3.1h3.1l-.7 2.5zM226 25.2c-.5 0-1.7-1.1-1.7-1.7s1.1-1.6 1.7-1.6c.5 0 1.7 1.1 1.7 1.6s-1.2 1.7-1.7 1.7zM224.4 36v-9.5h3.1V36h-3.1zM235.6 36v-5.8c0-.7-.5-1.3-1.4-1.3-.9 0-1.5.6-1.5 1.3V36h-3.1v-9.5h2.8v1.3c.4-1 1.4-1.6 2.9-1.6 2.1 0 3.3 1.2 3.3 3.2V36h-3zM244.7 40.9c-2.8 0-4.6-1.6-4.6-3.6 0-1.4 1-2.3 2-2.6l-1.2-1.2c.1-.6.6-1.1 1.2-1.4-.7-.4-1.4-1.3-1.4-2.5 0-2 1.4-3.4 3.9-3.4.6 0 1 .1 1.4.2.4.1.9.2 1.4.2.5 0 1.1-.1 1.5-.3l.6 2.4c-.3.2-.8.3-1.2.3.1.2.2.6.2 1 0 1.6-1.3 2.9-3.1 3.1-.4 0-.6.1-.6.4 0 .1.1.2.3.3l1.5.5c1.9.7 2.9 1.6 2.9 3.4-.3 1.7-2.1 3.2-4.8 3.2zm.6-4.5l-1.1-.3c-.7 0-1.3.5-1.3 1.2s.6 1.2 1.7 1.2 1.7-.5 1.7-1c-.1-.5-.4-.9-1-1.1zm-.8-8c-.7 0-1.2.5-1.2 1.1 0 .6.5 1.1 1.2 1.1s1.2-.5 1.2-1.1c0-.5-.5-1.1-1.2-1.1z"/><text transform="translate(254.315 36.015)" class="st0 st1 st2"></text><g><path class="st0" d="M21.4 56.1c-1.4 3.8-3 5.2-4.7 5.9l-1.9-1.9c1.5-.6 2.7-1.7 3.5-3.7l-3.4-8.9h3l1.4 3.7c.2.5.4 1.2.6 1.9.2-.7.4-1.3.6-1.9l1.4-3.7h2.8l-3.3 8.6zM30.1 57.3c-2.9 0-5.2-2-5.2-5.1s2.3-5.1 5.2-5.1c2.9 0 5.2 2 5.2 5.1s-2.4 5.1-5.2 5.1zm0-7.4c-1.2 0-2.1 1-2.1 2.4s1 2.4 2.1 2.4 2.1-1 2.1-2.4-1-2.4-2.1-2.4zM43.1 57v-1.3c-.4 1-1.4 1.6-2.9 1.6-2.1 0-3.3-1.2-3.3-3.2v-6.6H40v5.8c0 .7.5 1.3 1.4 1.3.9 0 1.5-.6 1.5-1.4v-5.8H46V57h-2.9zM53.8 50.8c-.2-.1-.6-.2-.9-.2-1 0-1.9.5-1.9 2V57h-3.1v-9.5h3v2.1c.3-1.5 1.4-2.3 2.7-2.3.3 0 .7 0 .9.1l-.7 3.4zM66.2 50.8c-.2-.1-.6-.2-.9-.2-1 0-1.9.5-1.9 2V57h-3.1v-9.5h3v2.1c.3-1.5 1.4-2.3 2.7-2.3.3 0 .7 0 .9.1l-.7 3.4zM76.5 51.7l-1.4 1.4h-4.7c.1.8 1.2 1.7 2.8 1.7 1 0 2-.3 2.6-.7l-.3 2.6c-.7.4-1.8.6-3 .6-2.9 0-5.2-2-5.2-5.1 0-3.1 2.2-5 5-5 2.6 0 4.3 1.8 4.3 3.8 0 .2 0 .5-.1.7zm-4.2-2.2c-.9 0-1.7.7-1.8 1.6h3.2v-.2c0-.7-.5-1.4-1.4-1.4zM84.6 50h-2.5v3.5c0 .8.4 1.2 1.3 1.2.4 0 .6 0 .8-.1l-.3 2.3c-.3.1-.8.3-1.4.3-2.1 0-3.4-1.1-3.4-3V50h-1.6v-2.5H79v-2l3.1-1.1v3.1h3.1l-.6 2.5zM92.5 57v-1.3c-.4 1-1.4 1.6-2.9 1.6-2.1 0-3.3-1.2-3.3-3.2v-6.6h3.1v5.8c0 .7.5 1.3 1.4 1.3.9 0 1.5-.6 1.5-1.4v-5.8h3.1V57h-2.9zM103.2 50.8c-.2-.1-.6-.2-.9-.2-1 0-1.9.5-1.9 2V57h-3.1v-9.5h3v2.1c.3-1.5 1.4-2.3 2.7-2.3.3 0 .7 0 .9.1l-.7 3.4zM111 57v-5.8c0-.7-.5-1.3-1.4-1.3-.9 0-1.5.6-1.5 1.3V57H105v-9.5h2.8v1.3c.4-1 1.4-1.6 2.9-1.6 2.1 0 3.3 1.2 3.3 3.2V57h-3zM119.1 57.2c-1.3 0-2.2-.3-3-.7l-.3-2.7c.8.6 1.9 1 3 1 .6 0 .9-.3.9-.7 0-.4-.3-.6-.9-.7-1.8-.5-2.9-1.4-2.9-3.1 0-1.9 1.5-3.1 3.6-3.1 1.2 0 2.3.3 2.8.6l-.5 2.3c-.5-.3-1.2-.5-2-.5-.5 0-.8.2-.8.6 0 .4.3.5.8.7 2.1.6 3 1.6 3 3.2 0 1.7-1.2 3.1-3.7 3.1zM125.8 57.3c-.6 0-1.7-1.2-1.7-1.7s1.2-1.7 1.7-1.7 1.7 1.2 1.7 1.7c.1.5-1.1 1.7-1.7 1.7z"/></g></svg>