<svg id="Layer_1" xmlns="http://www.w3.org/2000/svg" viewBox="0 0 300 250"><style>.st0{fill:#231f20}.st1{font-family:&apos;Agenda-Bold&apos;}.st2{font-size:21px}</style><path class="st0" d="M25.5 35v-5.3h-5.2V35H17V21.6h3.3v5.3h5.2v-5.3h3.3V35h-3.3zM37.7 35.4c-.6-.1-1.2-.6-1.5-1.3-.4.8-1.3 1.2-2.5 1.2-1.7 0-3.2-1.2-3.2-3.1 0-1.7 1.4-2.9 3.3-3.1l1.9-.2v-.3c0-.6-.5-.9-1.5-.9-.9 0-2 .3-2.6.7l-.5-2.4c.8-.5 2.1-.8 3.3-.8 2.5 0 4.3 1.2 4.3 3.4v3.1c0 1.1.4 1.7 1.2 2l-2.2 1.7zm-2-4.5l-1.1.1c-.8.1-1.2.6-1.2 1.2 0 .5.4.9 1 .9.7 0 1.3-.6 1.3-1.4v-.8zM45.6 35.1h-2.3l-3.7-9.6h3l1.3 3.6c.2.5.4 1.2.5 1.8.1-.6.4-1.3.5-1.8l1.3-3.6h2.9l-3.5 9.6zM52 24.2c-.5 0-1.7-1.1-1.7-1.7s1.1-1.6 1.7-1.6 1.7 1.1 1.7 1.6-1.2 1.7-1.7 1.7zM50.4 35v-9.5h3.1V35h-3.1zM61.6 35v-5.8c0-.7-.5-1.3-1.4-1.3-.9 0-1.5.6-1.5 1.3V35h-3.1v-9.5h2.8v1.3c.4-1 1.4-1.6 2.9-1.6 2.1 0 3.3 1.2 3.3 3.2V35h-3zM70.6 39.9c-2.8 0-4.6-1.6-4.6-3.6 0-1.4 1-2.3 2-2.6l-1.2-1.2c.1-.6.6-1.1 1.2-1.4-.7-.4-1.4-1.3-1.4-2.5 0-2 1.4-3.4 3.9-3.4.6 0 1 .1 1.4.2.4.1.9.2 1.4.2.5 0 1.1-.1 1.5-.3l.6 2.4c-.3.2-.8.3-1.2.3.1.2.2.6.2 1 0 1.6-1.3 2.9-3.1 3.1-.4 0-.6.1-.6.4 0 .1.1.2.3.3l1.5.5c1.9.7 2.9 1.6 2.9 3.4-.2 1.7-2 3.2-4.8 3.2zm.7-4.5l-1.1-.3c-.7 0-1.3.5-1.3 1.2s.6 1.2 1.7 1.2 1.7-.5 1.7-1c-.1-.5-.4-.9-1-1.1zm-.8-8c-.7 0-1.2.5-1.2 1.1 0 .6.5 1.1 1.2 1.1s1.2-.5 1.2-1.1c0-.5-.5-1.1-1.2-1.1zM87.6 28h-2.5v3.5c0 .8.4 1.2 1.3 1.2.4 0 .6 0 .8-.1l-.3 2.3c-.3.1-.8.3-1.4.3-2.1 0-3.4-1.1-3.4-3V28h-1.6v-2.5h1.6v-2l3.1-1.1v3.1h3.1l-.7 2.5zM93.9 35.3c-2.9 0-5.2-2-5.2-5.1s2.3-5.1 5.2-5.1c2.9 0 5.2 2 5.2 5.1s-2.4 5.1-5.2 5.1zm0-7.4c-1.2 0-2.1 1-2.1 2.4s1 2.4 2.1 2.4 2.1-1 2.1-2.4-1-2.4-2.1-2.4zM105.3 35.3c-2.9 0-5.2-2-5.2-5.1s2.3-5.1 5.2-5.1c2.9 0 5.2 2 5.2 5.1s-2.3 5.1-5.2 5.1zm0-7.4c-1.2 0-2.1 1-2.1 2.4s1 2.4 2.1 2.4 2.1-1 2.1-2.4-.9-2.4-2.1-2.4zM128.5 35v-5.8c0-.7-.3-1.3-1.3-1.3s-1.4.6-1.4 1.3V35h-3.1v-5.8c0-.7-.3-1.3-1.3-1.3s-1.4.6-1.4 1.3V35h-3.1v-9.5h2.9v1.3c.4-1 1.3-1.6 2.8-1.6 1.4 0 2.4.5 2.8 1.6.4-.9 1.5-1.6 2.9-1.6 2.2 0 3.4 1.2 3.4 3.2V35h-3.2zM140.2 35.4c-.6-.1-1.2-.6-1.5-1.3-.4.8-1.3 1.2-2.5 1.2-1.7 0-3.2-1.2-3.2-3.1 0-1.7 1.4-2.9 3.3-3.1l1.9-.2v-.3c0-.6-.5-.9-1.5-.9-.9 0-2 .3-2.6.7l-.5-2.3c.8-.5 2.1-.8 3.3-.8 2.5 0 4.3 1.2 4.3 3.4v3.1c0 1.1.4 1.7 1.2 2l-2.2 1.6zm-1.9-4.5l-1.2.1c-.8.1-1.2.6-1.2 1.2 0 .5.4.9 1 .9.7 0 1.3-.6 1.3-1.4v-.8zM149.5 35v-5.8c0-.7-.5-1.3-1.4-1.3-.9 0-1.5.6-1.5 1.3V35h-3.1v-9.5h2.8v1.3c.4-1 1.4-1.6 2.9-1.6 2.1 0 3.3 1.2 3.3 3.2V35h-3zM159.9 34.1c-1.4 3.8-3 5.2-4.7 5.9l-1.9-1.9c1.5-.6 2.7-1.7 3.5-3.7l-3.4-8.9h3l1.4 3.7c.2.5.4 1.2.6 1.9.2-.7.4-1.3.6-1.9l1.4-3.7h2.8l-3.3 8.6zM174.9 28.8c-.2-.1-.6-.2-.9-.2-1 0-1.9.5-1.9 2V35H169v-9.5h3v2.1c.3-1.5 1.4-2.3 2.7-2.3.3 0 .7 0 .9.1l-.7 3.4zM185.3 29.7l-1.4 1.4h-4.7c.1.8 1.2 1.7 2.8 1.7 1 0 2-.3 2.6-.7l-.3 2.6c-.7.4-1.8.6-3 .6-2.9 0-5.2-2-5.2-5.1 0-3.1 2.2-5 5-5 2.6 0 4.3 1.8 4.3 3.8-.1.2-.1.5-.1.7zm-4.2-2.2c-.9 0-1.7.7-1.8 1.6h3.2v-.2c0-.7-.6-1.4-1.4-1.4zM193.3 28h-2.5v3.5c0 .8.4 1.2 1.3 1.2.4 0 .6 0 .8-.1l-.3 2.3c-.3.1-.8.3-1.4.3-2.1 0-3.4-1.1-3.4-3V28h-1.6v-2.5h1.6v-2l3.1-1.1v3.1h3.1l-.7 2.5zM196.6 24.2c-.5 0-1.7-1.1-1.7-1.7s1.1-1.6 1.7-1.6c.5 0 1.7 1.1 1.7 1.6s-1.2 1.7-1.7 1.7zM195 35v-9.5h3.1V35H195zM206 28.8c-.2-.1-.6-.2-.9-.2-1 0-1.9.5-1.9 2V35h-3.1v-9.5h3v2.1c.3-1.5 1.4-2.3 2.7-2.3.3 0 .7 0 .9.1l-.7 3.4zM216.4 29.7l-1.4 1.4h-4.7c.1.8 1.2 1.7 2.8 1.7 1 0 2-.3 2.6-.7l-.3 2.6c-.7.4-1.8.6-3 .6-2.9 0-5.2-2-5.2-5.1 0-3.1 2.2-5 5-5 2.6 0 4.3 1.8 4.3 3.8 0 .2-.1.5-.1.7zm-4.2-2.2c-.9 0-1.7.7-1.8 1.6h3.2v-.2c0-.7-.6-1.4-1.4-1.4zM229.7 35v-5.8c0-.7-.3-1.3-1.3-1.3s-1.4.6-1.4 1.3V35h-3.1v-5.8c0-.7-.3-1.3-1.3-1.3s-1.4.6-1.4 1.3V35H218v-9.5h2.9v1.3c.4-1 1.3-1.6 2.8-1.6 1.4 0 2.4.5 2.8 1.6.4-.9 1.5-1.6 2.9-1.6 2.2 0 3.4 1.2 3.4 3.2V35h-3.1zM243.5 29.7l-1.4 1.4h-4.7c.1.8 1.2 1.7 2.8 1.7 1 0 2-.3 2.6-.7l-.3 2.6c-.7.4-1.8.6-3 .6-2.9 0-5.2-2-5.2-5.1 0-3.1 2.2-5 5-5 2.6 0 4.3 1.8 4.3 3.8 0 .2-.1.5-.1.7zm-4.2-2.2c-.9 0-1.7.7-1.8 1.6h3.2v-.2c0-.7-.6-1.4-1.4-1.4zM251.1 35v-5.8c0-.7-.5-1.3-1.4-1.3-.9 0-1.5.6-1.5 1.3V35h-3.1v-9.5h2.8v1.3c.4-1 1.4-1.6 2.9-1.6 2.1 0 3.3 1.2 3.3 3.2V35h-3zM262.4 28h-2.5v3.5c0 .8.4 1.2 1.3 1.2.4 0 .6 0 .8-.1l-.3 2.3c-.3.1-.8.3-1.4.3-2.1 0-3.4-1.1-3.4-3V28h-1.6v-2.5h1.6v-2l3.1-1.1v3.1h3.1l-.7 2.5z"/><text transform="translate(267.863 35.015)" class="st0 st1 st2"></text><g><path class="st0" d="M23.7 56.4c-.6-.1-1.2-.6-1.5-1.3-.4.8-1.3 1.2-2.5 1.2-1.7 0-3.2-1.2-3.2-3.1 0-1.7 1.4-2.9 3.3-3.1l1.9-.2v-.3c0-.6-.5-.9-1.5-.9-.9 0-2 .3-2.6.7L17 47c.8-.5 2.1-.8 3.3-.8 2.5 0 4.3 1.2 4.3 3.4v3.1c0 1.1.4 1.7 1.2 2l-2.1 1.7zm-2-4.5l-1.2.1c-.8.1-1.2.6-1.2 1.2 0 .5.4.9 1 .9.7 0 1.3-.6 1.3-1.4v-.8zM33.9 49.6c-.6-.4-1.3-.6-2-.6-1.3 0-2.4 1-2.4 2.4s1.1 2.4 2.5 2.4c.8 0 1.4-.2 2.1-.5l-.3 2.6c-.6.3-1.4.5-2.3.5-2.7 0-5.1-1.9-5.1-5s2.5-5 5.1-5c1.3 0 2.3.3 3.1.7l-.7 2.5zM43.1 49.6c-.6-.4-1.3-.6-2-.6-1.3 0-2.4 1-2.4 2.4s1.1 2.4 2.5 2.4c.8 0 1.4-.2 2.1-.5l-.3 2.6c-.6.3-1.4.5-2.3.5-2.7 0-5.1-1.9-5.1-5s2.5-5 5.1-5c1.3 0 2.3.3 3.1.7l-.7 2.5zM49.8 56.3c-2.9 0-5.2-2-5.2-5.1s2.3-5.1 5.2-5.1c2.9 0 5.2 2 5.2 5.1s-2.4 5.1-5.2 5.1zm0-7.4c-1.2 0-2.1 1-2.1 2.4s1 2.4 2.1 2.4 2.1-1 2.1-2.4-1-2.4-2.1-2.4zM62.8 56v-1.3c-.4 1-1.4 1.6-2.9 1.6-2.1 0-3.3-1.2-3.3-3.2v-6.6h3.1v5.8c0 .7.5 1.3 1.4 1.3.9 0 1.5-.6 1.5-1.4v-5.8h3.1V56h-2.9zM73.6 56v-5.8c0-.7-.5-1.3-1.4-1.3-.9 0-1.5.6-1.5 1.3V56h-3.1v-9.5h2.8v1.3c.4-1 1.4-1.6 2.9-1.6 2.1 0 3.3 1.2 3.3 3.2V56h-3zM84.9 49h-2.5v3.5c0 .8.4 1.2 1.3 1.2.4 0 .6 0 .8-.1l-.3 2.3c-.3.1-.8.3-1.4.3-2.1 0-3.4-1.1-3.4-3V49h-1.6v-2.5h1.6v-2l3.1-1.1v3.1h3.1l-.7 2.5zM89.5 56.2c-1.3 0-2.2-.3-3-.7l-.3-2.7c.8.6 1.9 1 3 1 .6 0 .9-.3.9-.7 0-.4-.3-.6-.9-.7-1.8-.5-2.9-1.4-2.9-3.1 0-1.9 1.5-3.1 3.6-3.1 1.2 0 2.3.3 2.8.6l-.5 2.3c-.5-.3-1.2-.5-2-.5-.5 0-.8.2-.8.6 0 .4.3.5.8.7 2.1.6 3 1.6 3 3.2 0 1.7-1.1 3.1-3.7 3.1zM106.7 49.6c-.6-.4-1.3-.6-2-.6-1.3 0-2.4 1-2.4 2.4s1.1 2.4 2.5 2.4c.8 0 1.4-.2 2.1-.5l-.3 2.6c-.6.3-1.4.5-2.3.5-2.7 0-5.1-1.9-5.1-5s2.5-5 5.1-5c1.3 0 2.3.3 3.1.7l-.7 2.5zM115.5 56.4c-.6-.1-1.2-.6-1.5-1.3-.4.8-1.3 1.2-2.5 1.2-1.7 0-3.2-1.2-3.2-3.1 0-1.7 1.4-2.9 3.3-3.1l1.9-.2v-.3c0-.6-.5-.9-1.5-.9-.9 0-2 .3-2.6.7l-.5-2.3c.8-.5 2.1-.8 3.3-.8 2.5 0 4.3 1.2 4.3 3.4v3.1c0 1.1.4 1.7 1.2 2l-2.2 1.6zm-2-4.5l-1.2.1c-.8.1-1.2.6-1.2 1.2 0 .5.4.9 1 .9.7 0 1.3-.6 1.3-1.4v-.8zM124.7 56v-5.8c0-.7-.5-1.3-1.4-1.3-.9 0-1.5.6-1.5 1.3V56h-3.1v-9.5h2.8v1.3c.4-1 1.4-1.6 2.9-1.6 2.1 0 3.3 1.2 3.3 3.2V56h-3zM139 56.3c-2 0-3.7-.7-4.6-1.4V41.1h3v5.8c.4-.3 1.4-.6 2.4-.6 2.6 0 4.8 1.9 4.8 4.9 0 2.8-1.9 5.1-5.6 5.1zm.3-7.4c-.9 0-1.6.4-1.8.7v3.6c.3.2 1 .5 1.6.5 1.6 0 2.6-1.1 2.6-2.5-.2-1.2-1.1-2.3-2.4-2.3zM154.8 50.7l-1.4 1.4h-4.7c.1.8 1.2 1.7 2.8 1.7 1 0 2-.3 2.6-.7l-.3 2.6c-.7.4-1.8.6-3 .6-2.9 0-5.2-2-5.2-5.1 0-3.1 2.2-5 5-5 2.6 0 4.3 1.8 4.3 3.8 0 .2 0 .5-.1.7zm-4.1-2.2c-.9 0-1.7.7-1.8 1.6h3.2v-.2c0-.7-.6-1.4-1.4-1.4zM168.4 49.6c-.6-.4-1.3-.6-2-.6-1.3 0-2.4 1-2.4 2.4s1.1 2.4 2.5 2.4c.8 0 1.4-.2 2.1-.5l-.3 2.6c-.6.3-1.4.5-2.3.5-2.7 0-5.1-1.9-5.1-5s2.5-5 5.1-5c1.3 0 2.3.3 3.1.7l-.7 2.5zM175.1 56.3c-2.9 0-5.2-2-5.2-5.1s2.3-5.1 5.2-5.1c2.9 0 5.2 2 5.2 5.1s-2.3 5.1-5.2 5.1zm0-7.4c-1.2 0-2.1 1-2.1 2.4s1 2.4 2.1 2.4 2.1-1 2.1-2.4-1-2.4-2.1-2.4zM184.8 56.2c-1.3 0-2.2-.3-3-.7l-.3-2.7c.8.6 1.9 1 3 1 .6 0 .9-.3.9-.7 0-.4-.3-.6-.9-.7-1.8-.5-2.9-1.4-2.9-3.1 0-1.9 1.5-3.1 3.6-3.1 1.2 0 2.3.3 2.8.6l-.5 2.3c-.5-.3-1.2-.5-2-.5-.5 0-.8.2-.8.6 0 .4.3.5.8.7 2.1.6 3 1.6 3 3.2.1 1.7-1.1 3.1-3.7 3.1zM196.3 49h-2.5v3.5c0 .8.4 1.2 1.3 1.2.4 0 .6 0 .8-.1l-.3 2.3c-.3.1-.8.3-1.4.3-2.1 0-3.4-1.1-3.4-3V49h-1.6v-2.5h1.6v-2l3.1-1.1v3.1h3.1l-.7 2.5zM201.2 56.4c-2-.1-3.3-1.1-3.3-3.4V41.1h3v11.6c0 .8.4 1.2 1.3 1.3l-1 2.4zM209 55.1c-1.4 3.8-3 5.2-4.7 5.9l-1.9-1.9c1.5-.6 2.7-1.7 3.5-3.7l-3.4-8.9h3l1.4 3.7c.2.5.4 1.2.6 1.9.2-.7.4-1.3.6-1.9l1.4-3.7h2.8l-3.3 8.6zM213.8 56.3c-.6 0-1.7-1.2-1.7-1.7s1.2-1.7 1.7-1.7c.6 0 1.7 1.2 1.7 1.7.1.5-1.1 1.7-1.7 1.7z"/></g></svg>