<svg id="Layer_1" xmlns="http://www.w3.org/2000/svg" viewBox="0 0 300 250"><style>.st0{fill:#231f20}</style><path class="st0" d="M16.2 33.3V20.5h3.1v12.8h-3.1zM27.3 33.3v-5.6c0-.7-.4-1.2-1.3-1.2s-1.4.6-1.4 1.3v5.5h-2.9v-9.1h2.7v1.2c.4-1 1.3-1.5 2.8-1.5 2 0 3.2 1.1 3.2 3v6.3h-3.1zM44.8 28.3l-1.3 1.3h-4.4c.1.7 1.1 1.6 2.7 1.6.9 0 1.9-.3 2.5-.7L44 33c-.7.4-1.7.6-2.9.6-2.8 0-5-1.9-5-4.9 0-2.9 2.1-4.8 4.7-4.8 2.5 0 4.1 1.7 4.1 3.6 0 .3 0 .6-.1.8zm-3.9-2.2c-.9 0-1.6.7-1.8 1.5h3.1v-.2c0-.6-.6-1.3-1.3-1.3zM51.2 33.3l-.9-1.7c-.1-.2-.3-.6-.4-.9-.1.3-.3.6-.4.9l-.9 1.7h-2.8l2.6-4.5-2.5-4.5h3l.9 1.5c.1.2.2.5.4.8.1-.3.3-.5.4-.8l.9-1.5H54l-2.5 4.4 2.6 4.7h-2.9zM61.7 26.6h-2.4V30c0 .8.4 1.1 1.2 1.1.3 0 .5 0 .8-.1l-.3 2.2c-.3.1-.8.2-1.4.2-2 0-3.3-1.1-3.3-2.9v-3.9h-1.5v-2.4h1.5v-1.9l2.9-1.1v3h2.9l-.4 2.4zM68.9 27.4c-.2-.1-.6-.2-.9-.2-.9 0-1.8.5-1.8 1.9v4.2h-2.9v-9.1h2.9v2c.3-1.4 1.4-2.2 2.6-2.2.3 0 .6 0 .8.1l-.7 3.3zM77 33.7c-.5-.1-1.2-.5-1.4-1.2-.4.7-1.3 1.1-2.4 1.1-1.6 0-3-1.1-3-3 0-1.7 1.3-2.8 3.1-3l1.8-.2v-.3c0-.5-.4-.9-1.4-.9-.9 0-1.9.3-2.5.7l-.5-2.2c.7-.5 2-.8 3.2-.8 2.4 0 4.1 1.1 4.1 3.3v3c0 1.1.4 1.6 1.1 1.9L77 33.7zm-1.9-4.4l-1.1.1c-.8.1-1.1.6-1.1 1.1 0 .5.4.9.9.9.7 0 1.3-.5 1.3-1.3v-.8z"/><g><path class="st0" d="M22.3 52.7c-.5-.1-1.2-.5-1.4-1.2-.4.7-1.3 1.1-2.4 1.1-1.6 0-3-1.1-3-3 0-1.7 1.3-2.8 3.1-3l1.8-.2v-.3c0-.5-.4-.9-1.4-.9-.9 0-1.9.3-2.5.7l-.5-2.2c.7-.5 2-.8 3.2-.8 2.4 0 4.1 1.1 4.1 3.3v3c0 1.1.4 1.6 1.1 1.9l-2.1 1.6zm-1.9-4.4l-1.1.1c-.8.1-1.1.6-1.1 1.1 0 .5.4.9.9.9.7 0 1.3-.5 1.3-1.3v-.8zM32 52.3v-1.1c-.5.9-1.5 1.4-2.8 1.4-2.2 0-4.4-1.7-4.4-4.8 0-2.9 2.1-4.8 4.6-4.8 1 0 1.9.3 2.3.6v-5.5h2.9v14.2H32zm-.2-5.9c-.3-.4-.9-.8-1.8-.8-1.3 0-2.2 1-2.2 2.3s.9 2.3 2.2 2.3c.9 0 1.5-.5 1.8-.9v-2.9zM47.7 52.3v-5.6c0-.7-.3-1.2-1.3-1.2-.9 0-1.4.6-1.4 1.3v5.5h-2.9v-5.6c0-.7-.3-1.2-1.3-1.2-.9 0-1.4.6-1.4 1.3v5.5h-2.9v-9.1h2.7v1.2c.4-1 1.3-1.5 2.7-1.5 1.3 0 2.3.5 2.7 1.5.4-.9 1.4-1.5 2.8-1.5 2.1 0 3.2 1.1 3.2 3v6.3h-2.9zM54.1 42c-.5 0-1.6-1.1-1.6-1.6s1.1-1.6 1.6-1.6 1.6 1 1.6 1.6c-.1.5-1.1 1.6-1.6 1.6zm-1.5 10.3v-9.1h3v9.1h-3zM63.2 52.3v-5.6c0-.7-.4-1.2-1.3-1.2s-1.4.6-1.4 1.3v5.5h-2.9v-9.1h2.7v1.2c.4-1 1.3-1.5 2.8-1.5 2 0 3.2 1.1 3.2 3v6.3h-3.1zM69.5 42c-.5 0-1.6-1.1-1.6-1.6s1.1-1.6 1.6-1.6 1.6 1 1.6 1.6c0 .5-1.1 1.6-1.6 1.6zM68 52.3v-9.1h3v9.1h-3zM75.8 52.5c-1.2 0-2.1-.3-2.9-.6l-.3-2.6c.8.6 1.8 1 2.8 1 .5 0 .9-.3.9-.6 0-.4-.3-.5-.8-.7-1.7-.5-2.8-1.4-2.8-3 0-1.8 1.4-2.9 3.4-2.9 1.1 0 2.2.3 2.7.5l-.5 2.2c-.4-.2-1.2-.5-1.9-.5-.5 0-.8.2-.8.6 0 .3.2.5.8.7 2 .5 2.9 1.6 2.9 3.1.1 1.4-1 2.8-3.5 2.8zM86.8 45.6h-2.4V49c0 .8.4 1.1 1.2 1.1.3 0 .5 0 .8-.1l-.3 2.2c-.3.1-.8.2-1.4.2-2 0-3.3-1.1-3.3-2.9v-3.9H80v-2.4h1.5v-1.9l2.9-1.1v3h2.9l-.5 2.4zM94 46.4c-.2-.1-.6-.2-.9-.2-.9 0-1.8.5-1.8 1.9v4.2h-2.9v-9.1h2.9v2c.3-1.4 1.4-2.2 2.6-2.2.3 0 .6 0 .8.1l-.7 3.3zM102 52.7c-.5-.1-1.2-.5-1.4-1.2-.4.7-1.3 1.1-2.4 1.1-1.6 0-3-1.1-3-3 0-1.7 1.3-2.8 3.1-3l1.8-.2v-.3c0-.5-.4-.9-1.4-.9-.9 0-1.9.3-2.5.7l-.5-2.2c.7-.5 2-.8 3.2-.8 2.4 0 4.1 1.1 4.1 3.3v3c0 1.1.4 1.6 1.1 1.9l-2.1 1.6zm-1.8-4.4l-1.1.1c-.8.1-1.1.6-1.1 1.2 0 .5.4.9.9.9.7 0 1.3-.5 1.3-1.3v-.9zM111 45.6h-2.4V49c0 .8.4 1.1 1.2 1.1.3 0 .5 0 .8-.1l-.3 2.2c-.3.1-.8.2-1.4.2-2 0-3.3-1.1-3.3-2.9v-3.9h-1.5v-2.4h1.5v-1.9l2.9-1.1v3h2.9l-.4 2.4zM114.1 42c-.5 0-1.6-1.1-1.6-1.6s1.1-1.6 1.6-1.6 1.6 1 1.6 1.6c0 .5-1.1 1.6-1.6 1.6zm-1.5 10.3v-9.1h3v9.1h-3zM122.3 52.4h-2.2l-3.5-9.1h2.8l1.3 3.5c.2.5.4 1.2.5 1.8.1-.6.3-1.3.5-1.8l1.3-3.5h2.7l-3.4 9.1zM134.8 47.3l-1.3 1.3h-4.4c.1.7 1.1 1.6 2.7 1.6.9 0 1.9-.3 2.5-.7L134 52c-.7.4-1.7.6-2.9.6-2.8 0-5-1.9-5-4.9 0-2.9 2.1-4.8 4.7-4.8 2.5 0 4.1 1.7 4.1 3.6 0 .3-.1.6-.1.8zm-4-2.2c-.9 0-1.6.7-1.8 1.5h3.1v-.2c0-.6-.5-1.3-1.3-1.3zM147.1 40.7c-.3-.1-.8-.2-1.2-.2-1.1 0-1.6.6-1.6 1.9v.9h2.6l-.6 2.4h-2v6.7h-2.8v-6.7h-1.4v-2.4h1.4v-1.1c0-2.8 1.8-4.1 4.1-4.1.8 0 1.7.1 2.1.3l-.6 2.3zM156 47.3l-1.3 1.3h-4.4c.1.7 1.1 1.6 2.7 1.6.9 0 1.9-.3 2.5-.7l-.3 2.5c-.7.4-1.7.6-2.9.6-2.8 0-5-1.9-5-4.9 0-2.9 2.1-4.8 4.7-4.8 2.5 0 4.1 1.7 4.1 3.6 0 .3-.1.6-.1.8zm-4-2.2c-.9 0-1.6.7-1.8 1.5h3.1v-.2c0-.6-.5-1.3-1.3-1.3zM165.8 47.3l-1.3 1.3H160c.1.7 1.1 1.6 2.7 1.6.9 0 1.9-.3 2.5-.7l-.3 2.5c-.7.4-1.7.6-2.9.6-2.8 0-5-1.9-5-4.9 0-2.9 2.1-4.8 4.7-4.8 2.5 0 4.1 1.7 4.1 3.6.1.3 0 .6 0 .8zm-4-2.2c-.9 0-1.6.7-1.8 1.5h3.1v-.2c0-.6-.5-1.3-1.3-1.3zM170.2 52.5c-1.2 0-2.1-.3-2.9-.6l-.3-2.6c.8.6 1.8 1 2.8 1 .5 0 .9-.3.9-.6 0-.4-.3-.5-.8-.7-1.7-.5-2.8-1.4-2.8-3 0-1.8 1.4-2.9 3.4-2.9 1.1 0 2.2.3 2.7.5l-.5 2.2c-.4-.2-1.2-.5-1.9-.5-.5 0-.8.2-.8.6 0 .3.2.5.8.7 2 .5 2.9 1.6 2.9 3.1.1 1.4-1.1 2.8-3.5 2.8zM176.6 52.6c-.5 0-1.7-1.1-1.7-1.7 0-.5 1.1-1.6 1.7-1.6s1.7 1.1 1.7 1.6c0 .6-1.1 1.7-1.7 1.7z"/></g></svg>