<svg id="Layer_1" xmlns="http://www.w3.org/2000/svg" xmlns:xlink="http://www.w3.org/1999/xlink" viewBox="0 0 300 250" enable-background="new 0 0 300 250"><style>.st0{opacity:.25;clip-path:url(#SVGID_2_)}.st1{clip-path:url(#SVGID_4_)}.st2{clip-path:url(#SVGID_6_);fill:#0a0f0f}.st3{clip-path:url(#SVGID_2_);fill:#fff}.st4{clip-path:url(#SVGID_8_);fill:url(#SVGID_9_)}.st5{clip-path:url(#SVGID_11_);fill:url(#SVGID_12_)}.st6{clip-path:url(#SVGID_14_);fill:url(#SVGID_15_)}.st7{clip-path:url(#SVGID_17_);fill:url(#SVGID_18_)}.st8,.st9{clip-path:url(#SVGID_20_);fill:url(#SVGID_21_)}.st9{fill:#973b21}.st10{clip-path:url(#SVGID_23_);fill:url(#SVGID_24_)}.st11{clip-path:url(#SVGID_26_);fill:url(#SVGID_27_)}.st12,.st13{clip-path:url(#SVGID_29_)}.st12{fill:#f6a9c3}.st13{opacity:.5}.st14{clip-path:url(#SVGID_31_)}.st15{clip-path:url(#SVGID_33_);fill:#fff}.st16{clip-path:url(#SVGID_29_);fill:#3a3030}.st17{fill:#d1758a}.st17,.st18{clip-path:url(#SVGID_29_)}.st19,.st20{fill-rule:evenodd;clip-rule:evenodd}.st19{clip-path:url(#SVGID_29_);fill:#ffcb12}.st20{fill:#efb535}.st20,.st21,.st22{clip-path:url(#SVGID_29_)}.st21{fill-rule:evenodd;clip-rule:evenodd;fill:#feeba7}.st22{fill:#ffcb12}.st23{opacity:.53;clip-path:url(#SVGID_35_)}.st24{clip-path:url(#SVGID_37_)}.st25{filter:url(#Adobe_OpacityMaskFilter)}.st26,.st27{clip-path:url(#SVGID_39_);fill:url(#SVGID_41_)}.st27{mask:url(#SVGID_40_);fill:url(#SVGID_42_)}.st28{clip-path:url(#SVGID_44_)}.st29{filter:url(#Adobe_OpacityMaskFilter_1_)}.st30{clip-path:url(#SVGID_46_)}.st31{clip-path:url(#SVGID_49_);fill:url(#SVGID_50_)}.st32{clip-path:url(#SVGID_46_);mask:url(#SVGID_47_);fill:url(#SVGID_51_)}.st33{clip-path:url(#SVGID_53_)}.st34{filter:url(#Adobe_OpacityMaskFilter_2_)}.st35{clip-path:url(#SVGID_55_)}.st36{clip-path:url(#SVGID_58_);fill:url(#SVGID_59_)}.st37{clip-path:url(#SVGID_55_);mask:url(#SVGID_56_);fill:url(#SVGID_60_)}.st38{clip-path:url(#SVGID_62_)}.st39{clip-path:url(#SVGID_64_)}.st40{filter:url(#Adobe_OpacityMaskFilter_3_)}.st41,.st42{clip-path:url(#SVGID_66_);fill:url(#SVGID_68_)}.st42{mask:url(#SVGID_67_);fill:url(#SVGID_69_)}.st43{opacity:.53;clip-path:url(#SVGID_71_)}.st44{clip-path:url(#SVGID_73_)}.st45{clip-path:url(#SVGID_75_);fill:url(#SVGID_76_)}.st46{clip-path:url(#SVGID_71_)}.st47{clip-path:url(#SVGID_78_)}.st48{filter:url(#Adobe_OpacityMaskFilter_4_)}.st49,.st50{clip-path:url(#SVGID_80_);fill:url(#SVGID_82_)}.st50{mask:url(#SVGID_81_);fill:url(#SVGID_83_)}</style><defs><path id="SVGID_1_" d="M16.5 99.5h109.6v109.6H16.5z"/></defs><clipPath id="SVGID_2_"><use xlink:href="#SVGID_1_" overflow="visible"/></clipPath><g class="st0"><defs><path id="SVGID_3_" d="M16.5 124.5h84.6v84.6H16.5z"/></defs><clipPath id="SVGID_4_"><use xlink:href="#SVGID_3_" overflow="visible"/></clipPath><g class="st1"><defs><path id="SVGID_5_" d="M16.5 124.5h84.6v84.6H16.5z"/></defs><clipPath id="SVGID_6_"><use xlink:href="#SVGID_5_" overflow="visible"/></clipPath><path class="st2" d="M101.1 200c-4.3 4.2-10.1 6.8-16.6 6.8H18.9v-65.6c0-6.4 2.6-12.3 6.8-16.6l-2.4 2.4c-4.2 4.3-6.8 10.1-6.8 16.6v65.7h65.6c6.5 0 12.4-2.6 16.7-6.9l2.3-2.4z"/></g></g><path class="st3" d="M62.5 99.5c-8 0-15.5 3.1-21.3 8.9-5.7 5.7-8.9 13.2-8.9 21.1v63.7H96c16.6 0 30.1-13.5 30.1-30.1V99.5H62.5z"/><defs><path id="SVGID_7_" d="M96 193.2H32.4l-13.6 13.6h65.6c6.4 0 12.3-2.6 16.6-6.8l10-10-.5-.5c-4.3 2.3-9.2 3.7-14.5 3.7"/></defs><clipPath id="SVGID_8_"><use xlink:href="#SVGID_7_" overflow="visible"/></clipPath><linearGradient id="SVGID_9_" gradientUnits="userSpaceOnUse" x1="1.058" y1="270.97" x2="2.058" y2="270.97" gradientTransform="matrix(0 -17.3256 -17.3256 0 4759.677 225.204)"><stop offset="0" stop-color="#14b1e7"/><stop offset=".111" stop-color="#14ade2"/><stop offset=".255" stop-color="#13a3d8"/><stop offset=".419" stop-color="#0e92c9"/><stop offset=".597" stop-color="#087cb6"/><stop offset=".783" stop-color="#0064a1"/><stop offset=".89" stop-color="#005495"/><stop offset="1" stop-color="#005495"/></linearGradient><path class="st4" d="M18.9 189.5h92.2v17.2H18.9z"/><defs><path id="SVGID_10_" d="M25.6 124.5c-4.2 4.3-6.8 10.1-6.8 16.6v65.6l13.6-13.6v-63.7c0-5.1 1.3-10 3.7-14.3l-.5-.5-10 9.9z"/></defs><clipPath id="SVGID_11_"><use xlink:href="#SVGID_10_" overflow="visible"/></clipPath><linearGradient id="SVGID_12_" gradientUnits="userSpaceOnUse" x1="1.011" y1="254.738" x2="2.011" y2="254.738" gradientTransform="matrix(0 -92.5641 -92.5641 0 23607.094 301.048)"><stop offset="0" stop-color="#0082bd"/><stop offset=".218" stop-color="#0078b4"/><stop offset=".656" stop-color="#00609e"/><stop offset=".85" stop-color="#005495"/><stop offset="1" stop-color="#005495"/></linearGradient><path class="st5" d="M18.9 114.6h17.3v92.1H18.9z"/><g><defs><path id="SVGID_13_" d="M96 193.2H32.4l-13.6 13.6h65.6c6.4 0 12.3-2.6 16.6-6.8l10-10-.5-.5c-4.3 2.3-9.2 3.7-14.5 3.7"/></defs><clipPath id="SVGID_14_"><use xlink:href="#SVGID_13_" overflow="visible"/></clipPath><linearGradient id="SVGID_15_" gradientUnits="userSpaceOnUse" x1="-2.796" y1="251.011" x2="-1.796" y2="251.011" gradientTransform="matrix(91.1606 0 0 -91.1606 274.055 23080.43)"><stop offset="0" stop-color="#14b1e7"/><stop offset=".112" stop-color="#14ade2"/><stop offset=".258" stop-color="#13a3d8"/><stop offset=".424" stop-color="#0e92c9"/><stop offset=".603" stop-color="#087cb6"/><stop offset=".792" stop-color="#0064a1"/><stop offset=".9" stop-color="#005495"/><stop offset="1" stop-color="#005495"/></linearGradient><path class="st6" d="M18.9 189.5h92.2v17.2H18.9z"/></g><g><defs><path id="SVGID_16_" d="M25.6 124.5c-4.2 4.3-6.8 10.1-6.8 16.6v65.6l13.6-13.6v-63.7c0-5.1 1.3-10 3.7-14.3l-.5-.5-10 9.9z"/></defs><clipPath id="SVGID_17_"><use xlink:href="#SVGID_16_" overflow="visible"/></clipPath><linearGradient id="SVGID_18_" gradientUnits="userSpaceOnUse" x1="1.011" y1="254.738" x2="2.011" y2="254.738" gradientTransform="matrix(0 -92.5641 -92.5641 0 23607.094 301.048)"><stop offset="0" stop-color="#0082bd"/><stop offset=".218" stop-color="#0078b4"/><stop offset=".656" stop-color="#00609e"/><stop offset=".85" stop-color="#005495"/><stop offset="1" stop-color="#005495"/></linearGradient><path class="st7" d="M18.9 114.6h17.3v92.1H18.9z"/></g><g><defs><path id="SVGID_19_" d="M62.5 103.3c-14.4 0-26.3 11.9-26.3 26.2v59.9H96c14.5 0 26.3-11.8 26.3-26.3v-59.8H62.5z"/></defs><clipPath id="SVGID_20_"><use xlink:href="#SVGID_19_" overflow="visible"/></clipPath><linearGradient id="SVGID_21_" gradientUnits="userSpaceOnUse" x1="-1.009" y1="253.02" x2="-.009" y2="253.02" gradientTransform="scale(121.4532 -121.4532) rotate(45 306.948 127.312)"><stop offset="0" stop-color="#68cef6"/><stop offset=".264" stop-color="#4ea9de"/><stop offset=".604" stop-color="#2e86c5"/><stop offset=".86" stop-color="#1373b8"/><stop offset="1" stop-color="#016cb3"/><stop offset="1" stop-color="#016cb3"/></linearGradient><path class="st8" d="M-6.8 146.3l86.1-86.1 86.1 86.1-86.1 86.1z"/><path class="st9" d="M28.3 181.5h97v24h-97z"/></g><g><defs><path id="SVGID_22_" d="M75.2 185.8c0 1.6 7.8 2.8 17.4 2.8 5 0 9.4-.3 12.6-.9 1.6-.6 3.2-1.4 4.7-2.3-1-1.4-8.3-2.5-17.3-2.5-9.6 0-17.4 1.3-17.4 2.9"/></defs><clipPath id="SVGID_23_"><use xlink:href="#SVGID_22_" overflow="visible"/></clipPath><radialGradient id="SVGID_24_" cx="-27.807" cy="251.296" r="1" gradientTransform="matrix(12.0111 0 0 -3.3735 426.4 1033.317)" gradientUnits="userSpaceOnUse"><stop offset="0" stop-color="#75301a"/><stop offset=".339" stop-color="#78311a"/><stop offset=".612" stop-color="#80331c"/><stop offset=".863" stop-color="#8d381f"/><stop offset="1" stop-color="#973b21"/></radialGradient><path class="st10" d="M75.2 182.9h34.6v5.7H75.2z"/></g><g><defs><path id="SVGID_25_" d="M44.9 185.8c0 1.5 7.6 2.7 17 2.7s17-1.2 17-2.7c0-1.5-7.6-2.7-17-2.7s-17 1.2-17 2.7"/></defs><clipPath id="SVGID_26_"><use xlink:href="#SVGID_25_" overflow="visible"/></clipPath><radialGradient id="SVGID_27_" cx="-28.462" cy="251.315" r="1" gradientTransform="matrix(11.744 0 0 -3.1707 396.019 982.432)" gradientUnits="userSpaceOnUse"><stop offset="0" stop-color="#75301a"/><stop offset=".339" stop-color="#78311a"/><stop offset=".612" stop-color="#80331c"/><stop offset=".863" stop-color="#8d381f"/><stop offset="1" stop-color="#973b21"/></radialGradient><path class="st11" d="M44.9 183.1h34v5.3h-34z"/></g><g><defs><path id="SVGID_28_" d="M16.5 99.5h109.6v109.6H16.5z"/></defs><clipPath id="SVGID_29_"><use xlink:href="#SVGID_28_" overflow="visible"/></clipPath><path class="st12" d="M118 155.1c-.1-1.3-1.7-1.7-2.7-2.2-3.9-1.9-3.5-6.7-5-10.2-1.2-2.9-3-5.5-5.1-7.7-2.3-2.7-3.2-3.6-10.8-7.6-5.8-2.6-12.2-3.9-18.5-3.9-15.6 0-28.8 7.5-34 18.1-.3.7-.6 1.3-.9 2-.9 2.5-1.4 5.1-1.4 7.7 0 .6 0 1.1.1 1.7 3.8 3.9 7.7 6.8 11.6 9l3 1.5c1.3.6 2.5 1 3.8 1.5.8.3 1.5.5 2.3.7 1 .3 2 .5 3 .7.8.2 1.5.3 2.3.4-.8-.1-1.5-.2-2.3-.4-1-.2-2-.4-3-.7-.8-.2-1.5-.4-2.3-.7-1.3-.4-2.5-.9-3.8-1.5-1-.4-2-.9-3-1.5-4-2.2-7.9-5.1-11.6-9 .2 1.9.6 3.8 1.2 5.6 2.6 9 14.7 27.2 17.2 27.2h8c1.1 0 1.8-.4 2.3-1 .6-.8.8-2 .8-3.2 0-.7-.3-3.4-.1-4.1 0-.2.1-1.2.2-1.4 2.1.3 4.3.9 6.5.9 2.7 0 5.3-.2 7.9-.7.5 2.3 1.6 9.5 3.9 9.5h7.3c1 0 3.6-.4 4.2-1.1.2-.3.4-.8.5-1.2.4-2.6-.1-5.2-.2-7.7v-1c0-.5.1-.9.3-1.3.2-.6.7-1.1 1.1-1.6.9-.7 1.8-1.4 2.6-2.2 2.4-2.4 3-3.1 6.4-3.9 2.1-.5 4.1-1.5 6-2.4.9-.5 1.3-1.2 1.3-2.2v-.1c0-1.3 0-2.4.5-3.7.2-.9.5-1.6.4-2.3m-49.4 12c1.2.1 2.5.1 3.7.2-1.2-.1-2.4-.1-3.7-.2m29.6-5.3c-.2.1-.5.2-.7.3-3.4 1.3-7.1 2.5-11.1 3.5-1.6.4-3.1.7-4.8 1l-2.1.3c-1.2.2-2.4.3-3.6.3-.5 0-1 .1-1.5.1.5 0 1 0 1.5-.1l3.6-.3 2.1-.3c1.6-.3 3.2-.6 4.8-1 4.1-1 7.9-2.2 11.1-3.4.3-.2.5-.3.7-.4 2.9-1.1 5.9-2.4 8.9-2.8-3 .4-6 1.7-8.9 2.8m10.4-3h1.1-1.1m5.4.9c-.4-.1-.7-.2-1.1-.3-.7-.2-1.4-.3-2.1-.4.7.1 1.4.2 2.1.4.4 0 .7.1 1.1.3.4.1.7.2 1 .4-.3-.2-.7-.3-1-.4"/><path class="st12" d="M40.6 144.3c-.8-.5-1.4-1.2-1.8-2.2 1.8-.8 3.2-2.1 4.4-3.9.9-1.5 1-3.2.2-4.4-.4-.6-1.5-1.6-3.8-1.4-1.2.1-2.2.6-2.9 1.5-1.4 1.6-1.6 4-1.4 5.7 0 .3.1.5.1.8-1.4.1-2.5 0-3.9-.3-.6-.1-1.4-.5-2-.7l-4.2-2c1.8 2.3 8.2 5.7 10.8 5.4.6 1.6 1.6 2.8 2.9 3.6 1 .6 2.1.9 3.2 1.1.3-.9.6-1.7 1.1-2.5-.9 0-1.9-.2-2.7-.7m-2.5-5.1c-.1-1.2.1-2.9.8-3.8.3-.3.6-.5 1-.5h.2c.4 0 .5.1.6.3.2.3.2 1.1-.2 1.8-.8 1.2-1.4 2-2.5 2.6.1-.1.1-.3.1-.4"/><g class="st13"><defs><path id="SVGID_30_" d="M44.3 128.8h18.8v18.9H44.3z"/></defs><clipPath id="SVGID_31_"><use xlink:href="#SVGID_30_" overflow="visible"/></clipPath><g class="st14"><defs><path id="SVGID_32_" d="M44.3 128.8h18.8v18.9H44.3z"/></defs><clipPath id="SVGID_33_"><use xlink:href="#SVGID_32_" overflow="visible"/></clipPath><path class="st15" d="M51.5 134.1c-4.4 3.7-5.8 6.3-6.8 9.8-.1.4-.2.9-.3 1.3-.1.9-.2 1.7-.2 2.6v-.1c1.1-4 3.7-7.4 7.8-10.5 3-2.3 7.7-4.8 11-5.6-1.5-.9-1.8-1.9-1.9-2.7.1-.1-6 2.2-9.6 5.2"/></g></g><path class="st16" d="M104.7 145.2c-1.1.2-1.7 1.5-1.4 3 .3 1.5 1.3 2.6 2.4 2.4 1.1-.2 1.7-1.5 1.4-3-.3-1.5-1.3-2.6-2.4-2.4"/><path class="st12" d="M90.8 130.1c2.5 4.2 7.1 6.2 11.1 4.8.4-.2.7-.6.6-1-.2-1.7-.3-3.4.1-4.9.3-1.4 1.1-2.8 2.3-4.2.9-1-.4-2.6-1.9-2.8-1.6-.3-3.3.1-4.5.9-4.1 2.9-7.1 6-7.4 6.3-.4.4-.6.5-.3.9"/><path class="st17" d="M97 132.4c1.1-1 2.6-1.7 4.1-1.8-.1-.5-.2-.9-.1-1.3.2-1.5 1-2.3 1.9-3.5.2-.2.5-.8.6-1.1.4-1.1-1.7-1.1-2.4-1-1.6.4-3.4 1.7-4.6 3.4-1.2 1.8-1.1 4 .5 5.3"/><path class="st18" d="M84 126.4c-4.2-1.4-12.4-1.3-16.6.2-.7.3-1 1-.5 1.5.4.4 1 .5 1.6.3 3.4-1.3 11.1-1.6 14.5-.2.5.2 1.2.1 1.5-.3.6-.4.3-1.2-.5-1.5"/><path class="st19" d="M69.9 128.2c2.1-.5 4.2-.8 6.3-.8 1.8 0 3.6.2 5.3.6 2.4-1.8 3.9-4.6 3.9-7.9 0-5.5-4.4-9.9-9.9-9.9s-9.9 4.4-9.9 9.9c.1 3.4 1.7 6.4 4.3 8.1"/><path class="st20" d="M71 128c1.7-.4 3.5-.5 5.2-.5 1.3 0 2.6.1 3.9.3 2.5-1.6 4.2-4.4 4.2-7.6 0-5-4-9-9-9s-9 4-9 9c.1 3.3 2 6.2 4.7 7.8"/><path class="st21" d="M71.5 127.9c1.6-.3 3.2-.5 4.7-.5s2.9.1 4.3.4c2.5-1.6 4.2-4.4 4.2-7.6 0-5-3.9-9-8.8-9s-8.8 4-8.8 9c0 3.3 1.8 6.1 4.4 7.7"/><path class="st22" d="M71.2 127.9c1.7-.3 3.3-.5 5-.5 1.3 0 2.7.1 3.9.3 2.5-1.6 4.1-4.4 4.1-7.6 0-5-3.9-9-8.8-9s-8.8 4-8.8 9c.1 3.4 2 6.3 4.6 7.8"/><path class="st20" d="M73.6 127.6c.9-.1 1.8-.1 2.6-.1.6 0 1.3 0 1.9.1 3.1-1 5.4-3.9 5.4-7.4 0-4.3-3.1-7.7-7.7-7.7-4.3 0-7.7 3.5-7.7 7.7-.1 3.5 2.3 6.4 5.5 7.4"/><path class="st21" d="M73.4 127.6c.9-.1 1.9-.2 2.8-.2.5 0 1 0 1.6.1 3-1 5.2-3.9 5.2-7.3 0-4.3-3.4-7.7-7.6-7.7-4.2 0-7.6 3.5-7.6 7.7 0 3.5 2.4 6.5 5.6 7.4"/><path class="st19" d="M73.6 127.6c.9-.1 1.8-.1 2.6-.1.6 0 1.2 0 1.8.1 3-1 5.2-3.9 5.2-7.4 0-4.3-3.4-7.7-7.5-7.7-4.2 0-7.5 3.5-7.5 7.7 0 3.5 2.3 6.4 5.4 7.4"/></g><g><defs><path id="SVGID_34_" d="M76 167.1l3.6-.3 2.1-.3c1.6-.3 3.2-.6 4.8-1 4.1-1 7.9-2.2 11.1-3.5.2-.1.5-.2.7-.3 2.9-1.1 5.9-2.4 8.9-2.8-3.1.4-6 1.7-8.9 2.8-.2.1-.4.2-.7.3-3.4 1.3-7.1 2.5-11.1 3.5-1.6.4-3.1.7-4.8 1l-2.1.3-3.6.3c-.5 0-1 .1-1.5.1.5 0 1-.1 1.5-.1m32.8-8.3h-.2.2m.2 0zm-67.1-17.2c-.3.7-.6 1.3-.9 2-.9 2.5-1.4 5.1-1.4 7.7 0 .6 0 1.1.1 1.7.2 1.9.6 3.8 1.2 5.6 2.6 9 14.6 27.2 17.2 27.2h8c1.1 0 1.8-.4 2.3-1 .6-.8.8-2 .8-3.2 0-.7-.3-3.4-.1-4.1 0-.2.1-1.2.2-1.4 2.1.3 4.3.9 6.5.9 2.7 0 5.3-.2 7.9-.7.4 2.3 1.6 9.5 3.9 9.5h7.3c1 0 3.6-.4 4.2-1.1.2-.3.4-.8.5-1.2.4-2.6-.1-5.2-.2-7.7v-1c0-.5.1-.9.3-1.3.2-.6.7-1.1 1.1-1.6.9-.7 1.8-1.4 2.6-2.2 2.4-2.4 3-3.1 6.4-3.9 2.1-.5 4.1-1.5 6-2.4.9-.5 1.3-1.2 1.3-2.2v-.1c0-1.3 0-2.4.5-3.7.2-.7.5-1.4.4-2.1-.1-1.3-1.7-1.7-2.7-2.2-3.9-1.9-3.5-6.7-5-10.2-1.2-2.9-3-5.5-5.1-7.7-2.3-2.7-3.2-3.6-10.8-7.6-5.8-2.6-12.2-3.9-18.5-3.9-15.6-.3-28.8 7.3-34 17.9"/></defs><clipPath id="SVGID_35_"><use xlink:href="#SVGID_34_" overflow="visible"/></clipPath><g class="st23"><defs><path id="SVGID_36_" d="M39.6 153h77.5v32.9H39.6z"/></defs><clipPath id="SVGID_37_"><use xlink:href="#SVGID_36_" overflow="visible"/></clipPath><g class="st24"><defs><path id="SVGID_38_" d="M39.6 153c.2 1.9.6 3.8 1.2 5.6.9 3 2.8 7 5 11 4.5 8.1 10.5 16.3 12.2 16.3h8.1c.7 0 1.8-.3 2.1-.8 1.9-2 .3-6.1.8-7.7 0-.2.1-1.1.2-1.3 2.1.3 4.3.9 6.5.9 2.7 0 5.3-.2 8-.7.5 2.3 1.6 9.5 3.9 9.5h7.3c1 0 3.6-.4 4.2-1.2 1.4-2.7.2-6.7.3-8.7 0-.1-.1-1.2 0-1.2 0-.5.1-.9.3-1.3.2-.6.7-1.1 1.1-1.6.9-.7 1.8-1.4 2.6-2.2 2.4-2.4 3-3.1 6.4-3.9 2.1-.5 4.1-1.5 6-2.4.9-.5 1.3-1.2 1.3-2.2v-.1c-2.7-1.2-5.6-2.1-8.5-2-3.9.1-7.5 1.8-11.1 3.2-3.4 1.3-7.1 2.5-11.1 3.5-14.2 3.2-31.7 2.9-46.8-12.7z"/></defs><clipPath id="SVGID_39_"><use xlink:href="#SVGID_38_" overflow="visible"/></clipPath><defs><filter id="Adobe_OpacityMaskFilter" filterUnits="userSpaceOnUse" x="39.6" y="153" width="77.5" height="32.9"><feColorMatrix values="1 0 0 0 0 0 1 0 0 0 0 0 1 0 0 0 0 0 1 0"/></filter></defs><mask maskUnits="userSpaceOnUse" x="39.6" y="153" width="77.5" height="32.9" id="SVGID_40_"><g class="st25"><linearGradient id="SVGID_41_" gradientUnits="userSpaceOnUse" x1=".949" y1="233.381" x2="1.949" y2="233.381" gradientTransform="matrix(0 19.6379 19.6379 0 -4504.717 140.584)"><stop offset="0" stop-color="#b3b3b3"/><stop offset="1" stop-color="#fff"/></linearGradient><path class="st26" d="M39.6 153h77.5v32.9H39.6z"/></g></mask><linearGradient id="SVGID_42_" gradientUnits="userSpaceOnUse" x1=".949" y1="233.381" x2="1.949" y2="233.381" gradientTransform="matrix(0 19.6379 19.6379 0 -4504.717 140.584)"><stop offset="0" stop-color="#f6a9c3"/><stop offset="1" stop-color="#b05f73"/></linearGradient><path class="st27" d="M39.6 153h77.5v32.9H39.6z"/></g></g><g class="st23"><defs><path id="SVGID_43_" d="M90.2 174.3h9.6v10.5h-9.6z"/></defs><clipPath id="SVGID_44_"><use xlink:href="#SVGID_43_" overflow="visible"/></clipPath><g class="st28"><defs><path id="SVGID_45_" d="M99.1 174.4c-2.9.5-6.2 1.1-8.5 3-.4.3-.5.9-.5 1.5v.1c0 .7.2 1.6.2 2.1.1 1.1.3 2.6 1.4 3.2.2.1.4.2.7.2 1.5.3 5 .7 6.9-.2.7-1.3.6-3.8.2-7.2-.1-.9-.1-1.8-.1-2.8-.1 0-.2 0-.3.1"/></defs><clipPath id="SVGID_46_"><use xlink:href="#SVGID_45_" overflow="visible"/></clipPath><defs><filter id="Adobe_OpacityMaskFilter_1_" filterUnits="userSpaceOnUse" x="88.3" y="172.6" width="13.6" height="14.3"><feColorMatrix values="1 0 0 0 0 0 1 0 0 0 0 0 1 0 0 0 0 0 1 0"/></filter></defs><mask maskUnits="userSpaceOnUse" x="88.3" y="172.6" width="13.6" height="14.3" id="SVGID_47_"><g class="st29"><defs><path id="SVGID_48_" transform="rotate(-79.805 94.9 179.74)" d="M88.7 173.8h12.5v12H88.7z"/></defs><clipPath id="SVGID_49_" class="st30"><use xlink:href="#SVGID_48_" overflow="visible"/></clipPath><linearGradient id="SVGID_50_" gradientUnits="userSpaceOnUse" x1="-76.998" y1="237.078" x2="-75.998" y2="237.078" gradientTransform="matrix(4.2991 .7735 .7735 -4.2991 239.573 1258.002)"><stop offset="0"/><stop offset=".165" stop-color="#414141"/><stop offset=".329" stop-color="#7a7a7a"/><stop offset=".489" stop-color="#aaa"/><stop offset=".64" stop-color="#cfcfcf"/><stop offset=".779" stop-color="#e9e9e9"/><stop offset=".903" stop-color="#f9f9f9"/><stop offset="1" stop-color="#fff"/><stop offset="1" stop-color="#fff"/></linearGradient><path class="st31" d="M88.4 170.1l16 2.9-2.9 16.4-16.1-2.9z"/></g></mask><linearGradient id="SVGID_51_" gradientUnits="userSpaceOnUse" x1="-76.998" y1="237.086" x2="-75.998" y2="237.086" gradientTransform="matrix(4.2991 .7735 .7735 -4.2991 239.573 1258.002)"><stop offset="0" stop-color="#f393aa"/><stop offset=".307" stop-color="#f5a1b8"/><stop offset=".697" stop-color="#f6aec6"/><stop offset="1" stop-color="#f7b3cc"/><stop offset="1" stop-color="#f7b3cc"/></linearGradient><path class="st32" d="M90.5 172.6l11.4 2.1-2.2 12.2-11.4-2.1z"/></g></g><g class="st23"><defs><path id="SVGID_52_" d="M59.2 177h10v8.4h-10z"/></defs><clipPath id="SVGID_53_"><use xlink:href="#SVGID_52_" overflow="visible"/></clipPath><g class="st33"><defs><path id="SVGID_54_" d="M59.8 179.6c-.4.5-.7 1.5-.7 2.4v.1c0 1.3.5 2.6 1.5 2.9 1.5.5 4.9.4 6.4.2 1.1-.1 1.4-.2 1.9-1.9 0 0 .1-1.1.1-1.3-.1-2.3-.3-3.4-.1-4.6-.4-.2-1.2-.3-2.3-.3-2-.1-5.2.5-6.8 2.5"/></defs><clipPath id="SVGID_55_"><use xlink:href="#SVGID_54_" overflow="visible"/></clipPath><defs><filter id="Adobe_OpacityMaskFilter_2_" filterUnits="userSpaceOnUse" x="57.7" y="175.3" width="13" height="12"><feColorMatrix values="1 0 0 0 0 0 1 0 0 0 0 0 1 0 0 0 0 0 1 0"/></filter></defs><mask maskUnits="userSpaceOnUse" x="57.7" y="175.3" width="13" height="12" id="SVGID_56_"><g class="st34"><defs><path id="SVGID_57_" transform="rotate(-79.759 64.01 181.145)" d="M58.7 175.3h10.5v11.8H58.7z"/></defs><clipPath id="SVGID_58_" class="st35"><use xlink:href="#SVGID_57_" overflow="visible"/></clipPath><linearGradient id="SVGID_59_" gradientUnits="userSpaceOnUse" x1="-41.96" y1="243.348" x2="-40.96" y2="243.348" gradientTransform="matrix(7.8033 1.4102 1.4102 -7.8033 43.977 2138.476)"><stop offset="0"/><stop offset=".165" stop-color="#414141"/><stop offset=".329" stop-color="#7a7a7a"/><stop offset=".489" stop-color="#aaa"/><stop offset=".64" stop-color="#cfcfcf"/><stop offset=".779" stop-color="#e9e9e9"/><stop offset=".903" stop-color="#f9f9f9"/><stop offset="1" stop-color="#fff"/><stop offset="1" stop-color="#fff"/></linearGradient><path class="st36" d="M57.7 172.6l15.2 2.7-2.6 14.5-15.2-2.8z"/></g></mask><linearGradient id="SVGID_60_" gradientUnits="userSpaceOnUse" x1="-41.96" y1="243.333" x2="-40.96" y2="243.333" gradientTransform="matrix(7.8033 1.4102 1.4102 -7.8033 43.977 2138.476)"><stop offset="0" stop-color="#f393aa"/><stop offset=".307" stop-color="#f5a1b8"/><stop offset=".697" stop-color="#f6aec6"/><stop offset="1" stop-color="#f7b3cc"/><stop offset="1" stop-color="#f7b3cc"/></linearGradient><path class="st37" d="M59.5 175.3l11.2 2-1.8 10-11.2-2z"/></g></g></g><g><defs><path id="SVGID_61_" d="M16.5 99.5h109.6v109.6H16.5z"/></defs><clipPath id="SVGID_62_"><use xlink:href="#SVGID_61_" overflow="visible"/></clipPath><g class="st38"><defs><path id="SVGID_63_" d="M84.6 178.9h15.3v7H84.6z"/></defs><clipPath id="SVGID_64_"><use xlink:href="#SVGID_63_" overflow="visible"/></clipPath><g class="st39"><defs><path id="SVGID_65_" d="M99.7 178.9l-15.1 1.2c.6 2.7 1.7 5.7 3.1 5.7H95c1 0 3.6-.4 4.2-1.2.5-1 .7-2.1.7-3.3v-.1c0-.8-.1-1.6-.2-2.3z"/></defs><clipPath id="SVGID_66_"><use xlink:href="#SVGID_65_" overflow="visible"/></clipPath><defs><filter id="Adobe_OpacityMaskFilter_3_" filterUnits="userSpaceOnUse" x="84.6" y="178.9" width="15.3" height="7"><feColorMatrix values="1 0 0 0 0 0 1 0 0 0 0 0 1 0 0 0 0 0 1 0"/></filter></defs><mask maskUnits="userSpaceOnUse" x="84.6" y="178.9" width="15.3" height="7" id="SVGID_67_"><g class="st40"><linearGradient id="SVGID_68_" gradientUnits="userSpaceOnUse" x1=".837" y1="194.464" x2="1.837" y2="194.464" gradientTransform="matrix(0 6.1183 6.1183 0 -1097.455 174.606)"><stop offset="0"/><stop offset=".345" stop-color="#020202"/><stop offset=".543" stop-color="#0b0b0b"/><stop offset=".704" stop-color="#191919"/><stop offset=".845" stop-color="#2c2c2c"/><stop offset=".972" stop-color="#464646"/><stop offset="1" stop-color="#4d4d4d"/><stop offset="1" stop-color="#4d4d4d"/></linearGradient><path class="st41" d="M84.6 178.9h15.5v7H84.6z"/></g></mask><linearGradient id="SVGID_69_" gradientUnits="userSpaceOnUse" x1=".837" y1="194.448" x2="1.837" y2="194.448" gradientTransform="matrix(0 6.1183 6.1183 0 -1097.455 174.606)"><stop offset="0"/><stop offset=".859"/><stop offset="1"/><stop offset="1"/></linearGradient><path class="st42" d="M84.6 178.9h15.3v7H84.6z"/></g></g></g><g><defs><path id="SVGID_70_" d="M69.1 180.1l-16 .6c2.3 3 4.2 5.1 5 5.1h8c1.1 0 1.8-.4 2.3-1 .6-.8.8-2 .8-3.2 0-.3-.1-.8-.1-1.5l-.1-1.4c0 .5.1 1 .1 1.4"/></defs><clipPath id="SVGID_71_"><use xlink:href="#SVGID_70_" overflow="visible"/></clipPath><g class="st43"><defs><path id="SVGID_72_" d="M45.9 169.6h6.8v10.6h-6.8z"/></defs><clipPath id="SVGID_73_"><use xlink:href="#SVGID_72_" overflow="visible"/></clipPath><g class="st44"><defs><path id="SVGID_74_" d="M45.9 169.6c2.1 3.8 4.6 7.6 6.8 10.6l-6.8-10.6z"/></defs><clipPath id="SVGID_75_"><use xlink:href="#SVGID_74_" overflow="visible"/></clipPath><linearGradient id="SVGID_76_" gradientUnits="userSpaceOnUse" x1=".893" y1="213.989" x2="1.893" y2="213.989" gradientTransform="matrix(0 9.3487 9.3487 0 -1951.283 162.57)"><stop offset="0" stop-color="#f6a9c3"/><stop offset=".286" stop-color="#e693ab"/><stop offset=".748" stop-color="#d47990"/><stop offset="1" stop-color="#ce6f86"/></linearGradient><path class="st45" d="M45.9 169.6h6.8v10.6h-6.8z"/></g></g><g class="st46"><defs><path id="SVGID_77_" d="M52.6 180.1h16.6v5.7H52.6z"/></defs><clipPath id="SVGID_78_"><use xlink:href="#SVGID_77_" overflow="visible"/></clipPath><g class="st47"><defs><path id="SVGID_79_" d="M52.6 180.2c2.4 3.4 4.5 5.6 5.4 5.6h8.1c.7 0 1.8-.3 2.1-.8.7-.8.9-1.8 1-3v-.2c0-.6-.1-1.2-.1-1.8l-16.5.2z"/></defs><clipPath id="SVGID_80_"><use xlink:href="#SVGID_79_" overflow="visible"/></clipPath><defs><filter id="Adobe_OpacityMaskFilter_4_" filterUnits="userSpaceOnUse" x="52.6" y="180.1" width="16.6" height="5.7"><feColorMatrix values="1 0 0 0 0 0 1 0 0 0 0 0 1 0 0 0 0 0 1 0"/></filter></defs><mask maskUnits="userSpaceOnUse" x="52.6" y="180.1" width="16.6" height="5.7" id="SVGID_81_"><g class="st48"><linearGradient id="SVGID_82_" gradientUnits="userSpaceOnUse" x1=".801" y1="182.293" x2="1.801" y2="182.293" gradientTransform="matrix(0 5.0343 5.0343 0 -856.701 176.818)"><stop offset="0"/><stop offset=".345" stop-color="#020202"/><stop offset=".543" stop-color="#0b0b0b"/><stop offset=".704" stop-color="#191919"/><stop offset=".845" stop-color="#2c2c2c"/><stop offset=".972" stop-color="#464646"/><stop offset="1" stop-color="#4d4d4d"/><stop offset="1" stop-color="#4d4d4d"/></linearGradient><path class="st49" d="M52.6 180.1h16.8v5.7H52.6z"/></g></mask><linearGradient id="SVGID_83_" gradientUnits="userSpaceOnUse" x1=".801" y1="182.272" x2="1.801" y2="182.272" gradientTransform="matrix(0 5.0343 5.0343 0 -856.701 176.818)"><stop offset="0"/><stop offset=".859"/><stop offset="1"/><stop offset="1"/></linearGradient><path class="st50" d="M52.6 180.1h16.6v5.7H52.6z"/></g></g></g></svg>