<svg id="Layer_1" xmlns="http://www.w3.org/2000/svg" xmlns:xlink="http://www.w3.org/1999/xlink" viewBox="0 0 300 250"><style>.st0,.st1{fill:#fff}.st1{clip-path:url(#SVGID_2_)}.st2{clip-path:url(#SVGID_4_);fill:url(#SVGID_5_)}.st3{clip-path:url(#SVGID_7_);fill:url(#SVGID_8_)}.st4{clip-path:url(#SVGID_10_);fill:url(#SVGID_11_)}</style><path class="st0" d="M221.1 198.1v3.8h-6.8v18.3H210v-18.3h-6.8v-3.8h17.9zm1.8 22.1h4.3V198h-4.3v22.2zm26.4 0h-4.4l-2.3-5.5h-7.5l-2.3 5.5h-4.3l9.4-22.4h1.9l9.5 22.4zm20.8 0h-4.4l-2.3-5.5h-7.5l-2.3 5.5h-4.3l9.4-22.4h1.9l9.5 22.4zm-28.9-9l-2.3-5.5-2.3 5.5h4.6zm20.7 0l-2.3-5.5-2.3 5.5h4.6z"/><defs><path id="SVGID_1_" d="M167.2 189h108.6v37H167.2z"/></defs><clipPath id="SVGID_2_"><use xlink:href="#SVGID_1_" overflow="visible"/></clipPath><path class="st1" d="M187.8 221.7c1.9 0 3.6-.8 4.9-2l5.2-5.2c1.2-1.2 2-2.9 2-4.8v-16.3h-16.3c-1.9 0-3.6.8-4.9 2l-5.2 5.2a6.8 6.8 0 0 0-2 4.8v16.3h16.3z"/><defs><path id="SVGID_3_" d="M185.4 194.7c-3 0-5.4 2.4-5.4 5.4v1.8h11.2v11.2h1.8c3 0 5.4-2.4 5.4-5.4v-13h-13z"/></defs><clipPath id="SVGID_4_"><use xlink:href="#SVGID_3_" overflow="visible"/></clipPath><linearGradient id="SVGID_5_" gradientUnits="userSpaceOnUse" x1="-12.563" y1="264.641" x2="-11.563" y2="264.641" gradientTransform="scale(18.039 -18.039) rotate(45 332.2 154.158)"><stop offset="0" stop-color="#9eddf9"/><stop offset=".1" stop-color="#9eddf9"/><stop offset=".9" stop-color="#0b9eda"/><stop offset="1" stop-color="#0b9eda"/></linearGradient><path class="st2" d="M170.9 203.9l18.3-18.3 18.4 18.3-18.4 18.4z"/><g><defs><path id="SVGID_6_" d="M193 214.5h-14.4l-5.7 5.7h14.9c1.4 0 2.8-.6 3.8-1.6l4.8-4.8-.1-.1c-1 .5-2.1.8-3.3.8"/></defs><clipPath id="SVGID_7_"><use xlink:href="#SVGID_6_" overflow="visible"/></clipPath><linearGradient id="SVGID_8_" gradientUnits="userSpaceOnUse" x1="-13.755" y1="251.042" x2="-12.755" y2="251.042" gradientTransform="matrix(23.517 0 0 -23.517 496.397 6120.73)"><stop offset="0" stop-color="#1db0e6"/><stop offset=".115" stop-color="#1dace2"/><stop offset=".265" stop-color="#1ba1d7"/><stop offset=".434" stop-color="#1790c7"/><stop offset=".618" stop-color="#137ab4"/><stop offset=".811" stop-color="#06619f"/><stop offset=".9" stop-color="#025595"/><stop offset="1" stop-color="#025595"/></linearGradient><path class="st3" d="M172.9 213.7h23.5v6.6h-23.5z"/></g><g><defs><path id="SVGID_9_" d="M174.5 201.5c-1 1-1.6 2.4-1.6 3.8v14.9l5.7-5.7v-14.4c0-1.2.3-2.3.8-3.3l-.1-.1-4.8 4.8z"/></defs><clipPath id="SVGID_10_"><use xlink:href="#SVGID_9_" overflow="visible"/></clipPath><linearGradient id="SVGID_11_" gradientUnits="userSpaceOnUse" x1="1.042" y1="265.755" x2="2.042" y2="265.755" gradientTransform="matrix(0 -23.5174 -23.5174 0 6426.048 244.76)"><stop offset="0" stop-color="#0882be"/><stop offset=".22" stop-color="#0778b4"/><stop offset=".656" stop-color="#02609e"/><stop offset=".85" stop-color="#025595"/><stop offset="1" stop-color="#025595"/></linearGradient><path class="st4" d="M172.9 196.7h6.6v23.5h-6.6z"/></g></svg>