<svg id="Layer_1" xmlns="http://www.w3.org/2000/svg" xmlns:xlink="http://www.w3.org/1999/xlink" viewBox="0 0 217.8 150.3"><style>.st0{fill:#f6a9c2}.st1{fill:none}.st2{opacity:.5;fill:#fff;enable-background:new}.st3{fill:#3b3030}.st4{fill:#d2758b}.st5{fill:#010101}.st6,.st7,.st8{opacity:.53;clip-path:url(#SVGID_2_);fill:url(#SVGID_3_);enable-background:new}.st7,.st8{clip-path:url(#SVGID_5_);fill:url(#SVGID_6_)}.st8{clip-path:url(#SVGID_8_);fill:url(#SVGID_9_)}.st9{fill:url(#SVGID_10_)}.st10{opacity:.53;clip-path:url(#SVGID_12_);fill:url(#SVGID_13_);enable-background:new}.st11{clip-path:url(#SVGID_15_);fill:url(#SVGID_16_)}</style><path class="st0" d="M217.8 78c-.3-3.1-3.9-4-6.3-5.1-9.2-4.5-8.2-15.8-11.7-24.1-2.8-6.7-7-12.8-12.1-18.2-5.4-6.4-7.4-8.4-25.4-17.9-13.5-6.2-28.7-9.2-43.5-9.2-36.5.1-67.7 17.8-79.8 42.8-.8 1.5-1.4 3.1-2 4.7-2.2 5.8-3.3 11.9-3.3 18.2 0 1.3.1 2.7.2 4 8.8 9.1 18 16 27.4 21.1 2.3 1.3 4.7 2.4 7 3.5 2.9 1.3 5.9 2.5 8.8 3.4 1.8.6 3.5 1.1 5.3 1.6 2.4.6 4.7 1.2 7.1 1.7 1.8.4 3.5.7 5.3.9-1.8-.3-3.5-.6-5.3-.9-2.4-.5-4.7-1-7.1-1.7-1.8-.5-3.5-1-5.3-1.6-3-1-5.9-2.1-8.8-3.4-2.4-1-4.7-2.2-7-3.5-9.3-5.1-18.5-12-27.4-21.1.4 4.5 1.3 9 2.8 13.2 6.2 21.1 34.4 63.9 40.5 63.9h18.9c2.5 0 4.2-.9 5.3-2.3 1.5-1.9 1.9-4.8 1.8-7.6-.1-1.7-.7-7.9-.3-9.6.1-.4.3-2.9.5-3.3 0 0 0-.1.1-.1 5 .7 10.1 2 15.3 2 6.2 0 12.5-.5 18.7-1.6 1.1 5.4 3.8 22.3 9.1 22.3l17.2-.1c2.4 0 8.5-.9 9.8-2.7.6-.8 1-1.8 1.2-2.9 1-6-.2-12.2-.6-18.2-.1-.8-.1-1.6 0-2.4.1-1.1.2-2.1.6-3.2.5-1.4 1.6-2.7 2.6-3.8 2.2-1.6 4.3-3.3 6.2-5.1 5.7-5.6 6.9-7.2 15.1-9.1 5-1.1 9.6-3.4 14.1-5.7 2.2-1.1 3-2.9 3-5.2v-.3c0-3 .1-5.6 1.1-8.6.4-1.4 1.1-3.1.9-4.8zm-116 28.2c2.9.2 5.8.3 8.7.4-2.9 0-5.8-.2-8.7-.4zm69.5-12.4c-.5.2-1.1.4-1.6.6-7.9 3-16.7 5.9-26.1 8.1-3.7.9-7.4 1.6-11.2 2.2-1.6.3-3.3.5-4.9.7-2.8.4-5.6.6-8.4.8-1.1.1-2.3.1-3.4.2 1.1 0 2.3-.1 3.4-.2 2.8-.2 5.6-.5 8.4-.8 1.7-.2 3.3-.5 4.9-.7 3.8-.6 7.6-1.4 11.2-2.2 9.6-2.3 18.5-5.2 26.1-8.1.6-.2 1.1-.4 1.6-.6 6.9-2.7 13.8-5.7 21-6.6-7.2.9-14.1 3.9-21 6.6zm24.4-6.9h2.6-2.6zm12.7 1.9c-.8-.3-1.7-.5-2.5-.7-1.7-.4-3.3-.7-5.1-1 1.7.2 3.4.5 5.1 1 .9.2 1.7.4 2.5.7.8.3 1.6.5 2.5.8-.8-.3-1.7-.6-2.5-.8z"/><path class="st1" d="M168.6 9.3l.4-.4"/><path class="st0" d="M36 52.7c-1.8-1.1-3.2-2.8-4.3-5.2 4.1-1.8 7.6-4.9 10.4-9.3 2.2-3.5 2.4-7.6.4-10.4-1-1.5-3.6-3.8-8.8-3.3-2.7.3-5.1 1.5-6.8 3.5-3.2 3.7-3.8 9.5-3.4 13.3l.3 1.8c-3.3.2-5.8 0-9.2-.6-1.5-.3-3.3-1.1-4.7-1.6L0 36.3c4.3 5.4 19.3 13.4 25.5 12.8 1.5 3.7 3.8 6.6 6.9 8.5 2.3 1.4 4.9 2.2 7.5 2.5.6-2 1.4-4 2.6-5.8-2.3 0-4.6-.5-6.5-1.6zm-6-11.9c-.4-2.9.2-6.9 2-8.9.7-.8 1.4-1.2 2.4-1.3h.5c.8 0 1.1.2 1.5.8.5.7.6 2.5-.5 4.2-1.8 2.9-3.4 4.8-5.8 6.1 0-.4-.1-.6-.1-.9z"/><path class="st2" d="M61.6 28.7c-10.3 8.6-13.7 14.8-15.9 23.1-.3 1-.5 2-.7 3-.3 2-.5 4-.4 6 0-.1 0-.2.1-.2 2.5-9.3 8.7-17.4 18.3-24.8 7.2-5.5 18.2-11.2 25.8-13.1-3.6-2.1-4.2-4.4-4.4-6.4 0 0-14.4 5.4-22.8 12.4z"/><path class="st3" d="M186.6 54.9c-2.5.4-4 3.6-3.4 7.1.6 3.5 3.1 6 5.6 5.6s4-3.6 3.4-7.1-3.1-6.1-5.6-5.6z"/><path class="st0" d="M153.9 19.4c5.8 9.9 16.8 14.6 26.1 11.2 1-.4 1.6-1.4 1.4-2.4-.6-4.1-.7-7.9.2-11.5.8-3.4 2.5-6.6 5.3-9.8 2-2.3-.9-6.1-4.4-6.7-3.8-.6-7.8.2-10.6 2.2-9.5 6.8-16.7 14.1-17.5 14.9-.7.8-1.1 1-.5 2.1z"/><path class="st4" d="M168.5 24.6c2.7-2.3 6-3.9 9.6-4.2-.2-1.1-.4-2.1-.3-3 .5-3.6 2.2-5.3 4.4-8.2.4-.5 1.3-2 1.5-2.6 1-2.6-4.1-2.7-5.6-2.3-3.8.8-8.1 4-10.7 7.9-2.9 4.3-2.6 9.6 1.1 12.4z"/><path class="st5" d="M138.1 10.7c-9.8-3.2-29.2-3-39 .6-1.7.6-2.3 2.4-1.1 3.6l.1.1c.9.9 2.4 1.2 3.7.7 8.1-3.1 26.1-3.7 34.1-.5 1.2.5 2.7.1 3.5-.8l.1-.1c1-1.2.3-3-1.4-3.6z"/><defs><path id="SVGID_1_" d="M217.8 78c-.3-3.1-3.9-4-6.3-5.1-9.2-4.5-8.2-15.8-11.7-24.1-2.8-6.7-7-12.8-12.1-18.2-5.4-6.4-7.4-8.4-25.4-17.9-13.5-6.2-28.7-9.2-43.5-9.2-36.5.1-67.7 17.8-79.8 42.8-.8 1.5-1.4 3.1-2 4.7-2.2 5.8-3.3 11.9-3.3 18.2 0 1.3.1 2.7.2 4 8.8 9.1 18 16 27.4 21.1 2.3 1.3 4.7 2.4 7 3.5 2.9 1.3 5.9 2.5 8.8 3.4 1.8.6 3.5 1.1 5.3 1.6 2.4.6 4.7 1.2 7.1 1.7 1.8.4 3.5.7 5.3.9-1.8-.3-3.5-.6-5.3-.9-2.4-.5-4.7-1-7.1-1.7-1.8-.5-3.5-1-5.3-1.6-3-1-5.9-2.1-8.8-3.4-2.4-1-4.7-2.2-7-3.5-9.3-5.1-18.5-12-27.4-21.1.4 4.5 1.3 9 2.8 13.2 6.2 21.1 34.4 63.9 40.5 63.9h18.9c2.5 0 4.2-.9 5.3-2.3 1.5-1.9 1.9-4.8 1.8-7.6-.1-1.7-.7-7.9-.3-9.6.1-.4.3-2.9.5-3.3 0 0 0-.1.1-.1 5 .7 10.1 2 15.3 2 6.2 0 12.5-.5 18.7-1.6 1.1 5.4 3.8 22.3 9.1 22.3l17.2-.1c2.4 0 8.5-.9 9.8-2.7.6-.8 1-1.8 1.2-2.9 1-6-.2-12.2-.6-18.2-.1-.8-.1-1.6 0-2.4.1-1.1.2-2.1.6-3.2.5-1.4 1.6-2.7 2.6-3.8 2.2-1.6 4.3-3.3 6.2-5.1 5.7-5.6 6.9-7.2 15.1-9.1 5-1.1 9.6-3.4 14.1-5.7 2.2-1.1 3-2.9 3-5.2v-.3c0-3 .1-5.6 1.1-8.6.4-1.4 1.1-3.1.9-4.8zm-116 28.2c2.9.2 5.8.3 8.7.4-2.9 0-5.8-.2-8.7-.4zm69.5-12.4c-.5.2-1.1.4-1.6.6-7.9 3-16.7 5.9-26.1 8.1-3.7.9-7.4 1.6-11.2 2.2-1.6.3-3.3.5-4.9.7-2.8.4-5.6.6-8.4.8-1.1.1-2.3.1-3.4.2 1.1 0 2.3-.1 3.4-.2 2.8-.2 5.6-.5 8.4-.8 1.7-.2 3.3-.5 4.9-.7 3.8-.6 7.6-1.4 11.2-2.2 9.6-2.3 18.5-5.2 26.1-8.1.6-.2 1.1-.4 1.6-.6 6.9-2.7 13.8-5.7 21-6.6-7.2.9-14.1 3.9-21 6.6zm24.4-6.9h2.6-2.6zm12.7 1.9c-.8-.3-1.7-.5-2.5-.7-1.7-.4-3.3-.7-5.1-1 1.7.2 3.4.5 5.1 1 .9.2 1.7.4 2.5.7.8.3 1.6.5 2.5.8-.8-.3-1.7-.6-2.5-.8z"/></defs><clipPath id="SVGID_2_"><use xlink:href="#SVGID_1_" overflow="visible"/></clipPath><linearGradient id="SVGID_3_" gradientUnits="userSpaceOnUse" x1="124.85" y1="-264.246" x2="124.85" y2="-218.095" gradientTransform="translate(0 352)"><stop offset="0" stop-color="#f6a9c2" stop-opacity=".7"/><stop offset="1" stop-color="#b16073"/></linearGradient><path class="st6" d="M48.3 112.1C59 131.1 73 150.3 77 150.3h18.9c1.6 0 4.2-.8 5-1.8 4.5-4.6.6-14.3 2-18 .1-.4.2-2.6.5-3 0 0 0-.1.1-.1 5 .7 10.1 2 15.4 2 6.2 0 12.5-.5 18.7-1.6 1.1 5.4 3.8 22.4 9.1 22.4l17.2-.1c2.4 0 8.5-.9 9.8-2.7 3.3-6.3.5-15.7.6-20.6 0-.2-.3-2.9 0-2.9.1-1.1.2-2.1.6-3.2.5-1.4 1.6-2.7 2.6-3.8 2.2-1.6 4.3-3.3 6.2-5.2 5.7-5.6 7-7.3 15.1-9.1 5-1.1 9.6-3.4 14.1-5.7 2.2-1.1 3-2.9 3-5.2v-.3c-6.4-2.9-13.1-4.9-20-4.7-9.1.3-17.5 4.3-26 7.5-7.9 3-16.7 5.9-26.1 8.1-33.5 7.9-74.6 7.2-110-29.4.4 4.6 1.3 9 2.8 13.2 2 7.2 6.4 16.6 11.7 26"/><g><defs><path id="SVGID_4_" d="M217.8 78c-.3-3.1-3.9-4-6.3-5.1-9.2-4.5-8.2-15.8-11.7-24.1-2.8-6.7-7-12.8-12.1-18.2-5.4-6.4-7.4-8.4-25.4-17.9-13.5-6.2-28.7-9.2-43.5-9.2-36.5.1-67.7 17.8-79.8 42.8-.8 1.5-1.4 3.1-2 4.7-2.2 5.8-3.3 11.9-3.3 18.2 0 1.3.1 2.7.2 4 8.8 9.1 18 16 27.4 21.1 2.3 1.3 4.7 2.4 7 3.5 2.9 1.3 5.9 2.5 8.8 3.4 1.8.6 3.5 1.1 5.3 1.6 2.4.6 4.7 1.2 7.1 1.7 1.8.4 3.5.7 5.3.9-1.8-.3-3.5-.6-5.3-.9-2.4-.5-4.7-1-7.1-1.7-1.8-.5-3.5-1-5.3-1.6-3-1-5.9-2.1-8.8-3.4-2.4-1-4.7-2.2-7-3.5-9.3-5.1-18.5-12-27.4-21.1.4 4.5 1.3 9 2.8 13.2 6.2 21.1 34.4 63.9 40.5 63.9h18.9c2.5 0 4.2-.9 5.3-2.3 1.5-1.9 1.9-4.8 1.8-7.6-.1-1.7-.7-7.9-.3-9.6.1-.4.3-2.9.5-3.3 0 0 0-.1.1-.1 5 .7 10.1 2 15.3 2 6.2 0 12.5-.5 18.7-1.6 1.1 5.4 3.8 22.3 9.1 22.3l17.2-.1c2.4 0 8.5-.9 9.8-2.7.6-.8 1-1.8 1.2-2.9 1-6-.2-12.2-.6-18.2-.1-.8-.1-1.6 0-2.4.1-1.1.2-2.1.6-3.2.5-1.4 1.6-2.7 2.6-3.8 2.2-1.6 4.3-3.3 6.2-5.1 5.7-5.6 6.9-7.2 15.1-9.1 5-1.1 9.6-3.4 14.1-5.7 2.2-1.1 3-2.9 3-5.2v-.3c0-3 .1-5.6 1.1-8.6.4-1.4 1.1-3.1.9-4.8zm-116 28.2c2.9.2 5.8.3 8.7.4-2.9 0-5.8-.2-8.7-.4zm69.5-12.4c-.5.2-1.1.4-1.6.6-7.9 3-16.7 5.9-26.1 8.1-3.7.9-7.4 1.6-11.2 2.2-1.6.3-3.3.5-4.9.7-2.8.4-5.6.6-8.4.8-1.1.1-2.3.1-3.4.2 1.1 0 2.3-.1 3.4-.2 2.8-.2 5.6-.5 8.4-.8 1.7-.2 3.3-.5 4.9-.7 3.8-.6 7.6-1.4 11.2-2.2 9.6-2.3 18.5-5.2 26.1-8.1.6-.2 1.1-.4 1.6-.6 6.9-2.7 13.8-5.7 21-6.6-7.2.9-14.1 3.9-21 6.6zm24.4-6.9h2.6-2.6zm12.7 1.9c-.8-.3-1.7-.5-2.5-.7-1.7-.4-3.3-.7-5.1-1 1.7.2 3.4.5 5.1 1 .9.2 1.7.4 2.5.7.8.3 1.6.5 2.5.8-.8-.3-1.7-.6-2.5-.8z"/></defs><clipPath id="SVGID_5_"><use xlink:href="#SVGID_4_" overflow="visible"/></clipPath><linearGradient id="SVGID_6_" gradientUnits="userSpaceOnUse" x1="156.819" y1="-218.446" x2="166.922" y2="-216.629" gradientTransform="translate(0 352)"><stop offset="0" stop-color="#f493aa" stop-opacity="0"/><stop offset=".307" stop-color="#f6a2b8" stop-opacity=".308"/><stop offset=".697" stop-color="#f5aec6" stop-opacity=".697"/><stop offset="1" stop-color="#f7b3cb"/></linearGradient><path class="st7" d="M173.9 146.7c-4.6 2-12.6 1.1-16.2.4-.5-.1-1.1-.3-1.6-.5-2.5-1.4-2.9-5-3.2-7.5-.3-2.4-1.4-6.9.7-8.6 5.4-4.4 13.2-5.9 19.9-7.1.2 0 .4-.1.7-.1-.1 2.3 0 4.5.2 6.6.9 7.8 1.2 13.7-.5 16.8z"/></g><g><defs><path id="SVGID_7_" d="M217.8 78c-.3-3.1-3.9-4-6.3-5.1-9.2-4.5-8.2-15.8-11.7-24.1-2.8-6.7-7-12.8-12.1-18.2-5.4-6.4-7.4-8.4-25.4-17.9-13.5-6.2-28.7-9.2-43.5-9.2-36.5.1-67.7 17.8-79.8 42.8-.8 1.5-1.4 3.1-2 4.7-2.2 5.8-3.3 11.9-3.3 18.2 0 1.3.1 2.7.2 4 8.8 9.1 18 16 27.4 21.1 2.3 1.3 4.7 2.4 7 3.5 2.9 1.3 5.9 2.5 8.8 3.4 1.8.6 3.5 1.1 5.3 1.6 2.4.6 4.7 1.2 7.1 1.7 1.8.4 3.5.7 5.3.9-1.8-.3-3.5-.6-5.3-.9-2.4-.5-4.7-1-7.1-1.7-1.8-.5-3.5-1-5.3-1.6-3-1-5.9-2.1-8.8-3.4-2.4-1-4.7-2.2-7-3.5-9.3-5.1-18.5-12-27.4-21.1.4 4.5 1.3 9 2.8 13.2 6.2 21.1 34.4 63.9 40.5 63.9h18.9c2.5 0 4.2-.9 5.3-2.3 1.5-1.9 1.9-4.8 1.8-7.6-.1-1.7-.7-7.9-.3-9.6.1-.4.3-2.9.5-3.3 0 0 0-.1.1-.1 5 .7 10.1 2 15.3 2 6.2 0 12.5-.5 18.7-1.6 1.1 5.4 3.8 22.3 9.1 22.3l17.2-.1c2.4 0 8.5-.9 9.8-2.7.6-.8 1-1.8 1.2-2.9 1-6-.2-12.2-.6-18.2-.1-.8-.1-1.6 0-2.4.1-1.1.2-2.1.6-3.2.5-1.4 1.6-2.7 2.6-3.8 2.2-1.6 4.3-3.3 6.2-5.1 5.7-5.6 6.9-7.2 15.1-9.1 5-1.1 9.6-3.4 14.1-5.7 2.2-1.1 3-2.9 3-5.2v-.3c0-3 .1-5.6 1.1-8.6.4-1.4 1.1-3.1.9-4.8zm-116 28.2c2.9.2 5.8.3 8.7.4-2.9 0-5.8-.2-8.7-.4zm69.5-12.4c-.5.2-1.1.4-1.6.6-7.9 3-16.7 5.9-26.1 8.1-3.7.9-7.4 1.6-11.2 2.2-1.6.3-3.3.5-4.9.7-2.8.4-5.6.6-8.4.8-1.1.1-2.3.1-3.4.2 1.1 0 2.3-.1 3.4-.2 2.8-.2 5.6-.5 8.4-.8 1.7-.2 3.3-.5 4.9-.7 3.8-.6 7.6-1.4 11.2-2.2 9.6-2.3 18.5-5.2 26.1-8.1.6-.2 1.1-.4 1.6-.6 6.9-2.7 13.8-5.7 21-6.6-7.2.9-14.1 3.9-21 6.6zm24.4-6.9h2.6-2.6zm12.7 1.9c-.8-.3-1.7-.5-2.5-.7-1.7-.4-3.3-.7-5.1-1 1.7.2 3.4.5 5.1 1 .9.2 1.7.4 2.5.7.8.3 1.6.5 2.5.8-.8-.3-1.7-.6-2.5-.8z"/></defs><clipPath id="SVGID_8_"><use xlink:href="#SVGID_7_" overflow="visible"/></clipPath><linearGradient id="SVGID_9_" gradientUnits="userSpaceOnUse" x1="80.965" y1="-214.803" x2="99.303" y2="-211.489" gradientTransform="translate(0 352)"><stop offset="0" stop-color="#f493aa" stop-opacity="0"/><stop offset=".307" stop-color="#f6a2b8" stop-opacity=".308"/><stop offset=".697" stop-color="#f5aec6" stop-opacity=".697"/><stop offset="1" stop-color="#f7b3cb"/></linearGradient><path class="st8" d="M102.9 130.4c-2.7-1.4-16.5-1.5-21.8 5.3-2.4 3.1-2.3 11.2 2 12.7 3.6 1.3 11.4.9 15.2.5 2.6-.2 3.3-.4 4.6-4.4 0 0 .3-2.8.3-3.2-.2-5.5-.7-8-.3-10.9z"/></g><g><linearGradient id="SVGID_10_" gradientUnits="userSpaceOnUse" x1="157.235" y1="-216.065" x2="157.235" y2="-201.686" gradientTransform="translate(0 352)"><stop offset="0" stop-color="#010101" stop-opacity="0"/><stop offset=".859" stop-color="#010101" stop-opacity=".258"/><stop offset="1" stop-color="#010101" stop-opacity=".3"/></linearGradient><path class="st9" d="M139.3 136.8c1.5 6.4 3.9 13.4 7.3 13.4l17.2-.1c2.4 0 8.5-.9 9.8-2.7 2-3.9 1.7-9.1 1.2-13.6"/></g><g><defs><path id="SVGID_11_" d="M102.9 136.9c-.1-1.1-.1-2.3-.2-3.3m-37.4 4.8c5.3 7.1 9.8 11.9 11.8 11.9H96c2.5 0 4.2-.9 5.3-2.3 1.5-1.9 1.9-4.8 1.8-7.6 0-.6-.1-2-.2-3.5"/></defs><clipPath id="SVGID_12_"><use xlink:href="#SVGID_11_" overflow="visible"/></clipPath><linearGradient id="SVGID_13_" gradientUnits="userSpaceOnUse" x1="56.25" y1="-236.759" x2="56.25" y2="-214.788" gradientTransform="translate(0 352)"><stop offset="0" stop-color="#f6a9c2"/><stop offset=".299" stop-color="#e593ab"/><stop offset=".751" stop-color="#d3788f"/><stop offset="1" stop-color="#ce7087"/></linearGradient><path class="st10" d="M48.3 112.1c5 9 10.8 18 15.9 25"/><g><defs><path id="SVGID_14_" d="M102.9 136.9c-.1-1.1-.1-2.3-.2-3.3m-37.4 4.8c5.3 7.1 9.8 11.9 11.8 11.9H96c2.5 0 4.2-.9 5.3-2.3 1.5-1.9 1.9-4.8 1.8-7.6 0-.6-.1-2-.2-3.5"/></defs><clipPath id="SVGID_15_"><use xlink:href="#SVGID_14_" overflow="visible"/></clipPath><linearGradient id="SVGID_16_" gradientUnits="userSpaceOnUse" x1="83.68" y1="-213.413" x2="83.68" y2="-201.582" gradientTransform="translate(0 352)"><stop offset="0" stop-color="#010101" stop-opacity="0"/><stop offset=".859" stop-color="#010101" stop-opacity=".258"/><stop offset="1" stop-color="#010101" stop-opacity=".3"/></linearGradient><path class="st11" d="M64.2 137.1c5.7 7.9 10.7 13.3 12.8 13.3h18.9c1.6 0 4.2-.8 5-1.8 2.7-2.8 2.4-7.5 2-11.6"/></g></g><path class="st5" d="M104.2 124.5c8.3 2.7 24.7 2.5 33-.6 1.4-.5 1.9-2 .9-3l-.1-.1c-.8-.8-2-1-3.1-.6-6.8 2.6-22.1 3.2-28.8.5-1-.4-2.3-.1-3 .7l-.1.1c-.8 1-.2 2.5 1.2 3z"/></svg>