<?xml version="1.0" encoding="utf-8"?>
<!-- Generator: Adobe Illustrator 22.1.0, SVG Export Plug-In . SVG Version: 6.00 Build 0)  -->
<svg version="1.1" id="Layer_1" xmlns="http://www.w3.org/2000/svg" xmlns:xlink="http://www.w3.org/1999/xlink" x="0px" y="0px"
	 viewBox="0 0 728 90" style="enable-background:new 0 0 728 90;" xml:space="preserve">
<style type="text/css">
	.st0{fill:#3F2718;}
	.st1{fill:#FFDD15;}
	.st2{fill:#E01B22;}
	.st3{fill:#FFFFFF;}
</style>
<path class="st0" d="M526.4,47.9L526.4,47.9c0.4,0.4,1,0.5,1.4,0.1l8.1-7.2c0.4-0.4,0.5-1,0.1-1.4s-1-0.5-1.4-0.1l-8.1,7.2
	C526,46.8,526,47.5,526.4,47.9"/>
<rect x="534.2" y="42.4" transform="matrix(0.7071 -0.7071 0.7071 0.7071 123.4456 391.9325)" class="st0" width="1.2" height="9"/>
<rect x="498.5" y="9.8" class="st0" width="1.2" height="32.3"/>
<path class="st1" d="M497,8.5c0,1.2,1,2.2,2.2,2.2c1.2,0,2.2-1,2.2-2.2c0-1.2-1-2.2-2.2-2.2C497.9,6.3,497,7.3,497,8.5"/>
<path class="st1" d="M509.1,53.2L509.1,53.2c1.4-0.6,2-2.3,1.4-3.6l-5.9-13.1c-0.6-1.4-2.3-2-3.6-1.4c-1.4,0.6-2,2.3-1.4,3.6
	l5.9,13.1C506.1,53.2,507.7,53.9,509.1,53.2"/>
<path class="st2" d="M498.2,38.5c5.4,3.4,6.7,11.7,6.7,11.7h25c6.1,0,7.2-5.6,7.2-5.6c1.7-8.8,8.5-12.4,11-13.5
	c8.2,6.4,13.4,16.3,13.4,27.5c0,2.2-0.2,4.3-0.6,6.3h-68.6c-0.4-2-0.6-4.1-0.6-6.3C491.8,51.1,494.2,44.2,498.2,38.5"/>
<path class="st0" d="M489,73.1h75.2c2.9,0,5.2-2.4,5.2-5.2s-2.4-5.2-5.2-5.2H489c-2.9,0-5.2,2.4-5.2,5.2S486.2,73.1,489,73.1"/>
<path class="st0" d="M550.9,54.9c0,3.2,1.7,5.8,3.8,5.8c2.1,0,3.8-2.6,3.8-5.8c0-3.2-1.7-5.8-3.8-5.8
	C552.6,49.1,550.9,51.7,550.9,54.9"/>
<path class="st3" d="M553.7,49.3c1.6,0.7,2.8,2.9,2.8,5.5s-1.2,4.8-2.8,5.5c-1.6-0.7-2.8-2.9-2.8-5.5S552.1,50,553.7,49.3"/>
<path class="st3" d="M502.7,52h33.9c0.6,0,1.1-0.5,1.1-1.1c0-0.6-0.5-1.1-1.1-1.1h-33.9c-0.6,0-1.1,0.5-1.1,1.1
	C501.6,51.5,502.1,52,502.7,52"/>
</svg>
