<?xml version="1.0" encoding="utf-8"?>
<!-- Generator: Adobe Illustrator 22.1.0, SVG Export Plug-In . SVG Version: 6.00 Build 0)  -->
<svg version="1.1" id="Layer_1" xmlns="http://www.w3.org/2000/svg" xmlns:xlink="http://www.w3.org/1999/xlink" x="0px" y="0px"
	 viewBox="0 0 728 90" style="enable-background:new 0 0 728 90;" xml:space="preserve">
<style type="text/css">
	.st0{fill:#3F2718;}
	.st1{fill:#FFDD15;}
	.st2{fill:#E01B22;}
	.st3{fill:#FFFFFF;}
</style>
<path class="st0" d="M608.2,58.4L608.2,58.4c-0.4,0.4-1,0.5-1.4,0.1l-8.1-7.2c-0.4-0.4-0.5-1-0.1-1.4s1-0.5,1.4-0.1l8.1,7.2
	C608.5,57.3,608.5,58,608.2,58.4"/>
<rect x="595.2" y="56.8" transform="matrix(0.7071 -0.7071 0.7071 0.7071 135.0415 440.8686)" class="st0" width="9" height="1.2"/>
<rect x="634.8" y="20.3" class="st0" width="1.2" height="32.3"/>
<path class="st1" d="M637.6,18.9c0,1.2-1,2.2-2.2,2.2c-1.2,0-2.2-1-2.2-2.2c0-1.2,1-2.2,2.2-2.2C636.6,16.8,637.6,17.7,637.6,18.9"
	/>
<path class="st1" d="M625.5,63.7L625.5,63.7c-1.4-0.6-2-2.3-1.4-3.6L630,47c0.6-1.4,2.3-2,3.6-1.4c1.4,0.6,2,2.3,1.4,3.6l-5.9,13.1
	C628.5,63.7,626.8,64.3,625.5,63.7"/>
<path class="st2" d="M636.3,49c-5.4,3.4-6.7,11.7-6.7,11.7h-25c-6.1,0-7.2-5.6-7.2-5.6c-1.7-8.8-8.5-12.4-11-13.5
	C578.3,48.1,573,58,573,69.1c0,2.2,0.2,4.3,0.6,6.3h68.6c0.4-2,0.6-4.1,0.6-6.3C642.7,61.6,640.3,54.7,636.3,49"/>
<path class="st0" d="M645.5,83.6h-75.2c-2.9,0-5.2-2.4-5.2-5.2s2.4-5.2,5.2-5.2h75.2c2.9,0,5.2,2.4,5.2,5.2S648.4,83.6,645.5,83.6"
	/>
<path class="st0" d="M583.6,65.3c0,3.2-1.7,5.8-3.8,5.8c-2.1,0-3.8-2.6-3.8-5.8s1.7-5.8,3.8-5.8C581.9,59.6,583.6,62.2,583.6,65.3"
	/>
<path class="st3" d="M580.8,59.8c-1.6,0.7-2.8,2.9-2.8,5.5c0,2.6,1.2,4.8,2.8,5.5c1.6-0.7,2.8-2.9,2.8-5.5
	C583.6,62.7,582.4,60.5,580.8,59.8"/>
<path class="st3" d="M631.8,62.4h-33.9c-0.6,0-1.1-0.5-1.1-1.1c0-0.6,0.5-1.1,1.1-1.1h33.9c0.6,0,1.1,0.5,1.1,1.1
	C632.9,61.9,632.4,62.4,631.8,62.4"/>
</svg>
