<?xml version="1.0" encoding="utf-8"?>
<!-- Generator: Adobe Illustrator 22.1.0, SVG Export Plug-In . SVG Version: 6.00 Build 0)  -->
<svg version="1.1" id="Layer_1" xmlns="http://www.w3.org/2000/svg" xmlns:xlink="http://www.w3.org/1999/xlink" x="0px" y="0px"
	 viewBox="0 0 728 90" style="enable-background:new 0 0 728 90;" xml:space="preserve">
<style type="text/css">
	.st0{fill:#B8E0D2;}
	.st1{fill:#FFFDF6;}
	.st2{fill:#898F95;}
</style>
<rect x="593.3" y="29.4" transform="matrix(0.3239 -0.9461 0.9461 0.3239 377.3247 608.3519)" class="st0" width="42.1" height="21.6"/>
<path class="st1" d="M597,56.1l21.2,7.3L632,23.1l-21.2-7.3L597,56.1z M611.4,17.1l19.4,6.6l-13.2,38.4l-19.4-6.6L611.4,17.1z"/>
<path class="st2" d="M613.7,38.6l-6,17.6c-0.1,0.2-0.3,0.3-0.5,0.2c-0.2-0.1-0.3-0.3-0.2-0.5l6-17.6c0.1-0.2,0.3-0.3,0.5-0.2
	C613.6,38.1,613.7,38.4,613.7,38.6"/>
<path class="st2" d="M618.5,43.3l-5.1,14.8c-0.1,0.2-0.3,0.3-0.5,0.2c-0.2-0.1-0.3-0.3-0.2-0.5l5.1-14.8c0.1-0.2,0.3-0.3,0.5-0.2
	S618.6,43.1,618.5,43.3"/>
<path class="st2" d="M624.6,25.4l-5.1,14.8c-0.1,0.2-0.3,0.3-0.5,0.2c-0.2-0.1-0.3-0.3-0.2-0.5l5.1-14.8c0.1-0.2,0.3-0.3,0.5-0.2
	C624.6,25,624.7,25.2,624.6,25.4"/>
<path class="st2" d="M622,24.5l-11.2,32.7c-0.1,0.2-0.3,0.3-0.5,0.2s-0.3-0.3-0.2-0.5l11.2-32.7c0.1-0.2,0.3-0.3,0.5-0.2
	C622,24.1,622.1,24.3,622,24.5"/>
<path class="st2" d="M614.7,21.9L611,32.6c-0.1,0.2-0.3,0.3-0.5,0.2c-0.2-0.1-0.3-0.3-0.2-0.5l3.7-10.7c0.1-0.2,0.3-0.3,0.5-0.2
	C614.7,21.5,614.8,21.7,614.7,21.9"/>
<path class="st2" d="M606.7,44l-3.7,10.7c-0.1,0.2-0.3,0.3-0.5,0.2s-0.3-0.3-0.2-0.5l3.7-10.7c0.1-0.2,0.3-0.3,0.5-0.2
	S606.8,43.8,606.7,44"/>
<path class="st2" d="M608.6,44.6l-3.7,10.7c-0.1,0.2-0.3,0.3-0.5,0.2s-0.3-0.3-0.2-0.5l3.7-10.7c0.1-0.2,0.3-0.3,0.5-0.2
	S608.6,44.4,608.6,44.6"/>
<rect x="610.2" y="26.4" transform="matrix(0.324 -0.9461 0.9461 0.324 389.9248 601.7698)" class="st1" width="11.7" height="3.3"/>
<path class="st2" d="M613.9,34.3c-0.1,0-0.1,0.1-0.2,0.1c-0.1,0.1-0.2,0.2-0.3,0.3c-0.1,0.1-0.2,0.2-0.3,0.2c-0.1,0-0.1,0-0.2,0
	c-0.1,0-0.1-0.1-0.1-0.1c0-0.1,0-0.1,0-0.2c0-0.1,0.2-0.2,0.3-0.2c0,0,0,0,0,0c0,0,0,0,0,0l-0.1-0.4c0,0,0-0.1-0.1,0
	c-0.2,0-0.3,0.1-0.4,0.1c-0.1,0.1-0.2,0.1-0.2,0.2l-0.3-0.1c0,0-0.1,0-0.1,0l-0.1,0.3c0,0,0,0.1,0,0.1l0.3,0.1c0,0.1,0,0.2,0,0.2
	c0,0.1,0,0.2,0.1,0.2c0,0.1,0.1,0.1,0.2,0.2c0.1,0.1,0.1,0.1,0.2,0.1c0.2,0.1,0.3,0.1,0.5,0c0.1,0,0.2-0.1,0.4-0.3
	c0.1-0.1,0.1-0.1,0.2-0.2c0.1,0,0.1-0.1,0.1-0.1c0.1,0,0.1,0,0.2,0c0.1,0,0.2,0.1,0.2,0.2c0,0.1,0,0.2,0,0.3c0,0.1-0.1,0.2-0.2,0.2
	c-0.1,0-0.2,0.1-0.4,0c0,0-0.1,0-0.1,0.1l0,0.4c0,0,0,0,0,0c0,0,0,0,0,0c0.3,0,0.5,0,0.6-0.1c0.1-0.1,0.3-0.2,0.4-0.4l0.3,0.1
	c0,0,0.1,0,0.1,0l0.1-0.3c0,0,0-0.1,0-0.1l-0.3-0.1c0-0.2,0-0.4-0.1-0.5c-0.1-0.2-0.3-0.3-0.4-0.3C614.2,34.2,614.1,34.2,613.9,34.3
	"/>
</svg>
