<?xml version="1.0" encoding="utf-8"?>
<!-- Generator: Adobe Illustrator 22.1.0, SVG Export Plug-In . SVG Version: 6.00 Build 0)  -->
<svg version="1.1" id="Layer_1" xmlns="http://www.w3.org/2000/svg" xmlns:xlink="http://www.w3.org/1999/xlink" x="0px" y="0px"
	 viewBox="0 0 728 90" style="enable-background:new 0 0 728 90;" xml:space="preserve">
<style type="text/css">
	.st0{fill:#B8E0D2;}
	.st1{fill:#FFFDF6;}
	.st2{fill:#898F95;}
</style>
<rect x="506.6" y="14.5" transform="matrix(0.9461 -0.3239 0.3239 0.9461 16.3961 169.4924)" class="st0" width="21.6" height="42.1"/>
<path class="st1" d="M534.7,51.4l-21.2,7.3l-13.8-40.3l21.2-7.3L534.7,51.4z M520.3,12.4L500.9,19l13.2,38.4l19.4-6.6L520.3,12.4z"
	/>
<path class="st2" d="M518,33.9l6,17.6c0.1,0.2,0.3,0.3,0.5,0.2c0.2-0.1,0.3-0.3,0.2-0.5l-6-17.6c-0.1-0.2-0.3-0.3-0.5-0.2
	C518,33.5,517.9,33.7,518,33.9"/>
<path class="st2" d="M513.1,38.6l5.1,14.8c0.1,0.2,0.3,0.3,0.5,0.2c0.2-0.1,0.3-0.3,0.2-0.5l-5.1-14.8c-0.1-0.2-0.3-0.3-0.5-0.2
	S513.1,38.4,513.1,38.6"/>
<path class="st2" d="M507,20.7l5.1,14.8c0.1,0.2,0.3,0.3,0.5,0.2c0.2-0.1,0.3-0.3,0.2-0.5l-5.1-14.8c-0.1-0.2-0.3-0.3-0.5-0.2
	C507.1,20.3,507,20.5,507,20.7"/>
<path class="st2" d="M509.6,19.9l11.2,32.7c0.1,0.2,0.3,0.3,0.5,0.2s0.3-0.3,0.2-0.5l-11.2-32.7c-0.1-0.2-0.3-0.3-0.5-0.2
	C509.7,19.4,509.5,19.7,509.6,19.9"/>
<path class="st2" d="M517,17.3l3.7,10.7c0.1,0.2,0.3,0.3,0.5,0.2c0.2-0.1,0.3-0.3,0.2-0.5L517.7,17c-0.1-0.2-0.3-0.3-0.5-0.2
	C517,16.8,516.9,17.1,517,17.3"/>
<path class="st2" d="M524.9,39.3l3.7,10.7c0.1,0.2,0.3,0.3,0.5,0.2s0.3-0.3,0.2-0.5l-3.7-10.7c-0.1-0.2-0.3-0.3-0.5-0.2
	S524.9,39.1,524.9,39.3"/>
<path class="st2" d="M523.1,39.9l3.7,10.7c0.1,0.2,0.3,0.3,0.5,0.2s0.3-0.3,0.2-0.5l-3.7-10.7c-0.1-0.2-0.3-0.3-0.5-0.2
	S523,39.7,523.1,39.9"/>
<rect x="514" y="17.5" transform="matrix(0.9461 -0.324 0.324 0.9461 20.2347 168.3018)" class="st1" width="3.3" height="11.7"/>
<path class="st2" d="M517.8,29.6c0.1,0,0.1,0.1,0.2,0.1c0.1,0.1,0.2,0.2,0.3,0.3c0.1,0.1,0.2,0.2,0.3,0.2c0.1,0,0.1,0,0.2,0
	c0.1,0,0.1-0.1,0.1-0.1c0-0.1,0-0.1,0-0.2c0-0.1-0.2-0.2-0.3-0.2c0,0,0,0,0,0c0,0,0,0,0,0l0.1-0.4c0,0,0-0.1,0.1,0
	c0.2,0,0.3,0.1,0.4,0.1c0.1,0.1,0.2,0.1,0.2,0.2l0.3-0.1c0,0,0.1,0,0.1,0l0.1,0.3c0,0,0,0.1,0,0.1l-0.3,0.1c0,0.1,0,0.2,0,0.2
	c0,0.1,0,0.2-0.1,0.2c0,0.1-0.1,0.1-0.2,0.2c-0.1,0.1-0.1,0.1-0.2,0.1c-0.2,0.1-0.3,0.1-0.5,0c-0.1,0-0.2-0.1-0.4-0.3
	c-0.1-0.1-0.1-0.1-0.2-0.2c-0.1,0-0.1-0.1-0.1-0.1c-0.1,0-0.1,0-0.2,0c-0.1,0-0.2,0.1-0.2,0.2c0,0.1,0,0.2,0,0.3
	c0,0.1,0.1,0.2,0.2,0.2c0.1,0,0.2,0.1,0.4,0c0,0,0.1,0,0.1,0.1l0,0.4c0,0,0,0,0,0c0,0,0,0,0,0c-0.3,0-0.5,0-0.6-0.1
	c-0.1-0.1-0.3-0.2-0.4-0.4l-0.3,0.1c0,0-0.1,0-0.1,0l-0.1-0.3c0,0,0-0.1,0-0.1l0.3-0.1c0-0.2,0-0.4,0.1-0.5c0.1-0.2,0.3-0.3,0.4-0.3
	C517.4,29.5,517.6,29.5,517.8,29.6"/>
</svg>
