<?xml version="1.0" encoding="utf-8"?>
<!-- Generator: Adobe Illustrator 22.1.0, SVG Export Plug-In . SVG Version: 6.00 Build 0)  -->
<svg version="1.1" id="Layer_1" xmlns="http://www.w3.org/2000/svg" xmlns:xlink="http://www.w3.org/1999/xlink" x="0px" y="0px"
	 viewBox="0 0 728 90" style="enable-background:new 0 0 728 90;" xml:space="preserve">
<style type="text/css">
	.st0{fill:#B9E0D3;}
	.st1{fill:#FFFDF6;}
	.st2{fill:#898F94;}
</style>
<rect x="51.3" y="29.3" class="st0" width="50.3" height="25.8"/>
<path class="st1" d="M100.7,54.6H52.1V30.1h48.5V54.6z M51,55.8h50.9V29H51V55.8z"/>
<path class="st2" d="M77.3,41H55c-0.3,0-0.5-0.2-0.5-0.5c0-0.3,0.2-0.5,0.5-0.5h22.2c0.3,0,0.5,0.2,0.5,0.5
	C77.7,40.8,77.5,41,77.3,41"/>
<path class="st2" d="M73.8,48.3H55c-0.3,0-0.5-0.2-0.5-0.5c0-0.3,0.2-0.5,0.5-0.5h18.7c0.3,0,0.5,0.2,0.5,0.5
	C74.2,48.1,74,48.3,73.8,48.3"/>
<path class="st2" d="M96.4,48.3H77.6c-0.3,0-0.5-0.2-0.5-0.5c0-0.3,0.2-0.5,0.5-0.5h18.7c0.3,0,0.5,0.2,0.5,0.5
	C96.8,48.1,96.6,48.3,96.4,48.3"/>
<path class="st2" d="M96.4,45.1H55c-0.3,0-0.5-0.2-0.5-0.5c0-0.3,0.2-0.5,0.5-0.5h41.3c0.3,0,0.5,0.2,0.5,0.5
	C96.8,44.9,96.6,45.1,96.4,45.1"/>
<path class="st2" d="M96.5,35.7H82.9c-0.3,0-0.5-0.2-0.5-0.5c0-0.3,0.2-0.5,0.5-0.5h13.5c0.3,0,0.5,0.2,0.5,0.5
	C96.9,35.5,96.7,35.7,96.5,35.7"/>
<path class="st2" d="M68.4,35.3H54.9c-0.3,0-0.5-0.2-0.5-0.5c0-0.3,0.2-0.5,0.5-0.5h13.5c0.3,0,0.5,0.2,0.5,0.5
	C68.9,35.1,68.7,35.3,68.4,35.3"/>
<path class="st2" d="M68.4,37.6H54.9c-0.3,0-0.5-0.2-0.5-0.5c0-0.3,0.2-0.5,0.5-0.5h13.5c0.3,0,0.5,0.2,0.5,0.5
	C68.9,37.4,68.7,37.6,68.4,37.6"/>
<rect x="83.1" y="37.7" class="st1" width="13.9" height="3.9"/>
<path class="st2" d="M82.2,39.6c-0.1-0.1-0.1-0.1-0.2-0.2c-0.1-0.1-0.2-0.1-0.4-0.2c-0.2-0.1-0.3-0.1-0.3-0.2c0,0-0.1-0.1-0.1-0.2
	c0-0.1,0-0.1,0.1-0.2c0.1-0.1,0.1-0.1,0.2-0.1c0.2,0,0.3,0.1,0.4,0.3c0,0,0,0,0,0c0,0,0,0,0.1,0l0.4-0.2c0,0,0-0.1,0-0.1
	c-0.1-0.2-0.2-0.3-0.3-0.4c-0.1-0.1-0.2-0.1-0.4-0.2v-0.3c0,0,0-0.1-0.1-0.1h-0.3c0,0-0.1,0-0.1,0.1V38c-0.1,0-0.2,0.1-0.2,0.1
	c-0.1,0.1-0.2,0.1-0.2,0.2c-0.1,0.1-0.1,0.2-0.1,0.2c0,0.1-0.1,0.2-0.1,0.3c0,0.2,0.1,0.4,0.2,0.6c0.1,0.1,0.3,0.2,0.5,0.3
	c0.1,0.1,0.2,0.1,0.3,0.2c0.1,0,0.1,0.1,0.2,0.1c0.1,0.1,0.1,0.2,0.1,0.3c0,0.1,0,0.2-0.1,0.3c-0.1,0.1-0.2,0.1-0.3,0.1
	c-0.1,0-0.2,0-0.3-0.1c-0.1-0.1-0.1-0.2-0.2-0.4c0,0,0-0.1-0.1,0l-0.4,0.1c0,0,0,0,0,0c0,0,0,0,0,0.1c0.1,0.3,0.2,0.5,0.3,0.7
	c0.1,0.1,0.3,0.2,0.6,0.3v0.3c0,0,0,0.1,0.1,0.1h0.3c0,0,0.1,0,0.1-0.1v-0.4c0.2-0.1,0.4-0.2,0.5-0.4c0.1-0.2,0.2-0.4,0.2-0.6
	C82.4,40,82.3,39.8,82.2,39.6"/>
</svg>
