<?xml version="1.0" encoding="utf-8"?>
<!-- Generator: Adobe Illustrator 22.1.0, SVG Export Plug-In . SVG Version: 6.00 Build 0)  -->
<svg version="1.1" id="Layer_1" xmlns="http://www.w3.org/2000/svg" xmlns:xlink="http://www.w3.org/1999/xlink" x="0px" y="0px"
	 viewBox="0 0 728 90" style="enable-background:new 0 0 728 90;" xml:space="preserve">
<g>
	<path d="M32.1,39.8c-1.9,0-3.7-0.5-4.7-1.1L27,34.9c1.4,0.9,3.1,1.6,4.8,1.6c1.4,0,2.3-0.6,2.3-1.7c0-1-0.6-1.5-2.1-1.9
		c-3.3-0.9-4.8-2.7-4.8-5.2c0-2.8,2.1-5,5.6-5c1.9,0,3.5,0.5,4.2,0.9l-0.7,3.2c-0.7-0.4-2-0.9-3.1-0.9c-1.4,0-2.1,0.6-2.1,1.4
		c0,0.8,0.7,1.3,2,1.6c3.2,0.9,5.1,2.5,5.1,5.5C38.2,37.8,36.1,39.8,32.1,39.8z"/>
	<path d="M47.5,30.9h-3.1v4.4c0,1,0.5,1.4,1.6,1.4c0.4,0,0.7,0,1-0.2l-0.3,2.9c-0.4,0.2-1,0.3-1.8,0.3c-2.7,0-4.2-1.4-4.2-3.7v-5.1
		h-2v-3.1h2v-2.5l3.8-1.4v3.9h3.8L47.5,30.9z"/>
	<path d="M59.8,33l-1.7,1.7h-5.8c0.2,1,1.5,2.1,3.5,2.1c1.2,0,2.5-0.4,3.2-0.9l-0.4,3.3C57.9,39.7,56.5,40,55,40
		c-3.6,0-6.5-2.5-6.5-6.3c0-3.8,2.8-6.2,6.1-6.2c3.3,0,5.3,2.3,5.3,4.7C59.9,32.4,59.9,32.8,59.8,33z M54.7,30.3
		c-1.1,0-2.1,0.9-2.3,1.9h4c0-0.1,0-0.2,0-0.3C56.4,31.1,55.7,30.3,54.7,30.3z"/>
	<path d="M72.2,33l-1.7,1.7h-5.8c0.2,1,1.5,2.1,3.5,2.1c1.2,0,2.5-0.4,3.2-0.9l-0.4,3.3c-0.9,0.5-2.2,0.8-3.7,0.8
		c-3.6,0-6.5-2.5-6.5-6.3c0-3.8,2.8-6.2,6.1-6.2c3.3,0,5.3,2.3,5.3,4.7C72.3,32.4,72.3,32.8,72.2,33z M67.1,30.3
		c-1.1,0-2.1,0.9-2.3,1.9h4c0-0.1,0-0.2,0-0.3C68.8,31.1,68.1,30.3,67.1,30.3z"/>
	<path d="M81.2,31.9c-0.2-0.1-0.8-0.3-1.1-0.3c-1.2,0-2.3,0.6-2.3,2.5v5.5h-3.8V27.8h3.8v2.6h0c0.4-1.8,1.8-2.8,3.4-2.8
		c0.4,0,0.8,0.1,1.1,0.2L81.2,31.9z"/>
	<path d="M97.8,31.6c-0.8-0.5-1.6-0.8-2.5-0.8c-1.7,0-3,1.2-3,2.9c0,1.7,1.3,2.9,3.1,2.9c1,0,1.7-0.2,2.6-0.6l-0.3,3.2
		c-0.8,0.4-1.8,0.6-2.9,0.6c-3.3,0-6.4-2.3-6.4-6.1c0-3.8,3.1-6.2,6.3-6.2c1.6,0,2.8,0.3,3.9,0.9L97.8,31.6z"/>
	<path d="M104.2,40.1c-2.4-0.1-4-1.4-4-4.2V21.1h3.8v14.3c0,1,0.5,1.5,1.6,1.6L104.2,40.1z"/>
	<path d="M117.3,33l-1.7,1.7h-5.8c0.2,1,1.5,2.1,3.5,2.1c1.2,0,2.5-0.4,3.2-0.9l-0.4,3.3c-0.9,0.5-2.2,0.8-3.7,0.8
		c-3.6,0-6.5-2.5-6.5-6.3c0-3.8,2.8-6.2,6.1-6.2c3.3,0,5.3,2.3,5.3,4.7C117.4,32.4,117.4,32.8,117.3,33z M112.2,30.3
		c-1.1,0-2.1,0.9-2.3,1.9h4c0-0.1,0-0.2,0-0.3C113.9,31.1,113.2,30.3,112.2,30.3z"/>
	<path d="M127.2,40.1c-0.7-0.2-1.5-0.7-1.8-1.6c-0.5,1-1.6,1.4-3.1,1.4c-2.1,0-3.9-1.5-3.9-3.9c0-2.2,1.7-3.6,4-3.8l2.3-0.2v-0.4
		c0-0.7-0.6-1.2-1.8-1.2c-1.1,0-2.4,0.4-3.3,0.9l-0.7-2.9c1-0.6,2.6-1,4.1-1c3.1,0,5.3,1.4,5.3,4.3v3.8c0,1.4,0.5,2.1,1.4,2.4
		L127.2,40.1z M124.8,34.4l-1.4,0.1c-1,0.1-1.4,0.8-1.4,1.5c0,0.6,0.5,1.1,1.2,1.1c0.9,0,1.7-0.7,1.7-1.7V34.4z"/>
	<path d="M138.2,31.9c-0.2-0.1-0.8-0.3-1.1-0.3c-1.2,0-2.3,0.6-2.3,2.5v5.5h-3.8V27.8h3.8v2.6h0c0.4-1.8,1.8-2.8,3.4-2.8
		c0.4,0,0.8,0.1,1.1,0.2L138.2,31.9z"/>
	<path d="M151.8,40c-3.6,0-6.4-2.5-6.4-6.3s2.9-6.3,6.4-6.3c3.5,0,6.4,2.5,6.4,6.3S155.3,40,151.8,40z M151.8,30.7
		c-1.4,0-2.7,1.2-2.7,3c0,1.7,1.2,3,2.7,3c1.4,0,2.7-1.2,2.7-3C154.5,32,153.2,30.7,151.8,30.7z"/>
	<path d="M168,24.5c-0.4-0.2-1.1-0.3-1.5-0.3c-1.4,0-2.1,0.8-2.1,2.5v1.1h3.4l-0.8,3.1h-2.6v8.7h-3.7v-8.7h-1.8v-3.1h1.8v-1.4
		c0-3.6,2.3-5.4,5.3-5.4c1.1,0,2.2,0.1,2.8,0.4L168,24.5z"/>
	<path d="M182.3,30.9h-3.1v4.4c0,1,0.5,1.4,1.6,1.4c0.4,0,0.7,0,1-0.2l-0.3,2.9c-0.4,0.2-1,0.3-1.8,0.3c-2.7,0-4.2-1.4-4.2-3.7v-5.1
		h-2v-3.1h2v-2.5l3.8-1.4v3.9h3.8L182.3,30.9z"/>
	<path d="M191.6,39.6v-7.2c0-0.9-0.6-1.6-1.8-1.6c-1.1,0-1.8,0.7-1.8,1.7v7.2h-3.8V21.1h3.8v7.8h0c0.6-0.9,1.7-1.5,3.3-1.5
		c2.6,0,4.1,1.5,4.1,4v8.2H191.6z"/>
	<path d="M208.3,33l-1.7,1.7h-5.8c0.2,1,1.5,2.1,3.5,2.1c1.2,0,2.5-0.4,3.2-0.9l-0.4,3.3c-0.9,0.5-2.2,0.8-3.7,0.8
		c-3.6,0-6.5-2.5-6.5-6.3c0-3.8,2.8-6.2,6.1-6.2c3.3,0,5.3,2.3,5.3,4.7C208.4,32.4,208.4,32.8,208.3,33z M203.2,30.3
		c-1.1,0-2.1,0.9-2.3,1.9h4c0-0.1,0-0.2,0-0.3C204.9,31.1,204.2,30.3,203.2,30.3z"/>
	<path d="M219.5,39.8c-1.6,0-2.8-0.3-3.7-0.8l-0.3-3.4c1,0.7,2.4,1.3,3.7,1.3c0.7,0,1.1-0.4,1.1-0.8c0-0.5-0.4-0.7-1.1-0.9
		c-2.3-0.6-3.6-1.8-3.6-3.8c0-2.3,1.9-3.8,4.4-3.8c1.5,0,2.9,0.4,3.5,0.7l-0.6,2.8c-0.6-0.3-1.5-0.6-2.4-0.6c-0.6,0-1,0.3-1,0.8
		c0,0.4,0.3,0.7,1,0.9c2.7,0.7,3.7,2,3.7,4C224.1,38,222.6,39.8,219.5,39.8z"/>
	<path d="M233.5,39.6V38h0c-0.5,1.2-1.7,2-3.6,2c-2.6,0-4.1-1.4-4.1-3.9v-8.2h3.8V35c0,0.9,0.6,1.6,1.8,1.6c1.1,0,1.8-0.8,1.8-1.7
		v-7.2h3.8v11.8H233.5z"/>
	<path d="M246.5,31.9c-0.2-0.1-0.8-0.3-1.1-0.3c-1.2,0-2.3,0.6-2.3,2.5v5.5h-3.8V27.8h3.8v2.6h0c0.4-1.8,1.8-2.8,3.4-2.8
		c0.4,0,0.8,0.1,1.1,0.2L246.5,31.9z"/>
	<path d="M255.1,39.9c-1.2,0-2.5-0.4-3-0.8v6.4h-3.7V27.8h3.4v1.5h0c0.7-1.2,2-1.8,3.6-1.8c2.9,0,5.7,2.2,5.7,6.2
		C261.1,37.5,258.4,39.9,255.1,39.9z M254.4,30.8c-1.1,0-1.9,0.6-2.3,1.2v3.7c0.4,0.5,1.1,1,2.3,1c1.7,0,2.8-1.3,2.8-3
		S256.1,30.8,254.4,30.8z"/>
	<path d="M270.1,31.9c-0.2-0.1-0.8-0.3-1.1-0.3c-1.2,0-2.3,0.6-2.3,2.5v5.5h-3.8V27.8h3.8v2.6h0c0.4-1.8,1.8-2.8,3.4-2.8
		c0.4,0,0.8,0.1,1.1,0.2L270.1,31.9z"/>
	<path d="M274,26.2c-0.7,0-2.1-1.4-2.1-2.1c0-0.7,1.4-2,2.1-2c0.7,0,2.1,1.4,2.1,2C276,24.8,274.6,26.2,274,26.2z M272,39.6V27.8
		h3.8v11.8H272z"/>
	<path d="M281.9,39.8c-1.6,0-2.8-0.3-3.7-0.8l-0.3-3.4c1,0.7,2.4,1.3,3.7,1.3c0.7,0,1.1-0.4,1.1-0.8c0-0.5-0.4-0.7-1.1-0.9
		c-2.3-0.6-3.6-1.8-3.6-3.8c0-2.3,1.9-3.8,4.4-3.8c1.5,0,2.9,0.4,3.5,0.7l-0.6,2.8c-0.6-0.3-1.5-0.6-2.4-0.6c-0.6,0-1,0.3-1,0.8
		c0,0.4,0.3,0.7,1,0.9c2.7,0.7,3.7,2,3.7,4C286.5,38,285.1,39.8,281.9,39.8z"/>
	<path d="M298.8,33l-1.7,1.7h-5.8c0.2,1,1.5,2.1,3.5,2.1c1.2,0,2.5-0.4,3.2-0.9l-0.4,3.3c-0.9,0.5-2.2,0.8-3.7,0.8
		c-3.6,0-6.5-2.5-6.5-6.3c0-3.8,2.8-6.2,6.1-6.2c3.3,0,5.3,2.3,5.3,4.7C298.9,32.4,298.9,32.8,298.8,33z M293.6,30.3
		c-1.1,0-2.1,0.9-2.3,1.9h4c0-0.1,0-0.2,0-0.3C295.4,31.1,294.7,30.3,293.6,30.3z"/>
	<path d="M304.2,39.8c-1.6,0-2.8-0.3-3.7-0.8l-0.3-3.4c1,0.7,2.4,1.3,3.7,1.3c0.7,0,1.1-0.4,1.1-0.8c0-0.5-0.4-0.7-1.1-0.9
		c-2.3-0.6-3.6-1.8-3.6-3.8c0-2.3,1.9-3.8,4.4-3.8c1.5,0,2.9,0.4,3.5,0.7l-0.6,2.8c-0.6-0.3-1.5-0.6-2.4-0.6c-0.6,0-1,0.3-1,0.8
		c0,0.4,0.3,0.7,1,0.9c2.7,0.7,3.7,2,3.7,4C308.9,38,307.4,39.8,304.2,39.8z"/>
	<path d="M312.4,40c-0.7,0-2.2-1.5-2.2-2.2c0-0.7,1.5-2.1,2.2-2.1c0.7,0,2.2,1.5,2.2,2.1C314.5,38.5,313.1,40,312.4,40z"/>
</g>
</svg>
