<?xml version="1.0" encoding="utf-8"?>
<!-- Generator: Adobe Illustrator 22.1.0, SVG Export Plug-In . SVG Version: 6.00 Build 0)  -->
<svg version="1.1" id="Layer_1" xmlns="http://www.w3.org/2000/svg" xmlns:xlink="http://www.w3.org/1999/xlink" x="0px" y="0px"
	 viewBox="0 0 728 90" style="enable-background:new 0 0 728 90;" xml:space="preserve">
<g>
	<path d="M132.1,28.9c-1.6,0-3.1-0.5-3.9-1l-0.3-3.2c1.1,0.8,2.6,1.3,4,1.3c1.2,0,2-0.6,2-1.4c0-0.8-0.5-1.3-1.8-1.6
		c-2.8-0.7-4-2.3-4-4.4c0-2.3,1.7-4.2,4.8-4.2c1.6,0,2.9,0.5,3.5,0.8l-0.6,2.8c-0.6-0.3-1.7-0.7-2.7-0.7c-1.2,0-1.7,0.5-1.7,1.2
		c0,0.7,0.6,1.1,1.7,1.4c2.7,0.7,4.3,2.1,4.3,4.6C137.3,27.2,135.5,28.9,132.1,28.9z"/>
	<path d="M148.2,23.2l-1.4,1.5h-4.9c0.2,0.8,1.3,1.7,2.9,1.7c1,0,2.1-0.3,2.8-0.7l-0.3,2.8c-0.7,0.4-1.9,0.7-3.2,0.7
		c-3,0-5.5-2.1-5.5-5.4c0-3.2,2.3-5.3,5.2-5.3c2.8,0,4.5,1.9,4.5,4C148.3,22.7,148.2,23,148.2,23.2z M143.8,20.9
		c-0.9,0-1.7,0.7-1.9,1.6h3.4c0-0.1,0-0.1,0-0.2C145.2,21.6,144.6,20.9,143.8,20.9z"/>
	<path d="M158.9,23.2l-1.4,1.5h-4.9c0.2,0.8,1.3,1.7,2.9,1.7c1,0,2.1-0.3,2.8-0.7l-0.3,2.8c-0.7,0.4-1.9,0.7-3.2,0.7
		c-3,0-5.5-2.1-5.5-5.4c0-3.2,2.3-5.3,5.2-5.3c2.8,0,4.5,1.9,4.5,4C159,22.7,159,23,158.9,23.2z M154.5,20.9c-0.9,0-1.7,0.7-1.9,1.6
		h3.4c0-0.1,0-0.1,0-0.2C156,21.6,155.4,20.9,154.5,20.9z"/>
	<path d="M171.9,28.7v-6.1c0-0.7-0.5-1.4-1.5-1.4c-1,0-1.6,0.6-1.6,1.4v6.1h-3.2V13.1h3.2v6.6h0c0.5-0.8,1.4-1.2,2.8-1.2
		c2.2,0,3.5,1.2,3.5,3.3v6.9H171.9z"/>
	<path d="M182.1,29c-3,0-5.4-2.1-5.4-5.3s2.4-5.3,5.4-5.3c3,0,5.4,2.1,5.4,5.3S185.1,29,182.1,29z M182.1,21.2
		c-1.2,0-2.2,1.1-2.2,2.5s1,2.5,2.2,2.5c1.2,0,2.2-1.1,2.2-2.5S183.3,21.2,182.1,21.2z"/>
	<path d="M199.6,28.8h-2.2l-1.3-4c-0.2-0.6-0.4-1.3-0.6-2.1h0c-0.2,0.7-0.4,1.5-0.6,2l-1.3,4h-2.1l-3.5-10.1h2.9l1.2,3.8
		c0.2,0.6,0.4,1.3,0.5,1.9h0c0.1-0.6,0.3-1.3,0.5-1.9l1.3-3.8h2.4l1.3,3.8c0.2,0.6,0.3,1.3,0.5,1.9h0c0.1-0.6,0.3-1.3,0.5-1.9
		l1.3-3.8h2.8L199.6,28.8z"/>
	<path d="M221.5,28.7v-6.1c0-0.7-0.4-1.4-1.4-1.4c-1,0-1.5,0.6-1.5,1.4v6.1h-3.2v-6.1c0-0.7-0.4-1.4-1.4-1.4c-1,0-1.5,0.6-1.5,1.4
		v6.1h-3.2v-10h3v1.3h0c0.4-1.1,1.4-1.6,2.9-1.6c1.4,0,2.5,0.6,2.9,1.6c0.4-1,1.6-1.6,3.1-1.6c2.3,0,3.5,1.2,3.5,3.3v6.9H221.5z"/>
	<path d="M233.4,28.7v-1.4h0c-0.4,1.1-1.5,1.7-3.1,1.7c-2.2,0-3.5-1.2-3.5-3.3v-6.9h3.2v6.1c0,0.7,0.5,1.4,1.5,1.4
		c1,0,1.6-0.6,1.6-1.4v-6.1h3.2v10H233.4z"/>
	<path d="M246,22c-0.7-0.4-1.3-0.6-2.1-0.6c-1.4,0-2.5,1-2.5,2.5c0,1.4,1.1,2.5,2.6,2.5c0.8,0,1.5-0.2,2.2-0.6l-0.3,2.8
		c-0.7,0.3-1.5,0.5-2.4,0.5c-2.8,0-5.4-2-5.4-5.2c0-3.3,2.6-5.2,5.3-5.2c1.3,0,2.4,0.3,3.3,0.7L246,22z"/>
	<path d="M254.5,28.7v-6.1c0-0.7-0.5-1.4-1.5-1.4c-1,0-1.6,0.6-1.6,1.4v6.1h-3.2V13.1h3.2v6.6h0c0.5-0.8,1.4-1.2,2.8-1.2
		c2.2,0,3.5,1.2,3.5,3.3v6.9H254.5z"/>
	<path d="M270.7,27.7c-1.5,4-3.1,5.5-5,6.2l-2-2c1.6-0.6,2.8-1.8,3.7-3.9l-3.6-9.3h3.1l1.5,3.9c0.2,0.6,0.4,1.3,0.6,2h0
		c0.2-0.7,0.4-1.4,0.6-2l1.5-3.9h3L270.7,27.7z"/>
	<path d="M279.9,29c-3,0-5.4-2.1-5.4-5.3s2.4-5.3,5.4-5.3c3,0,5.4,2.1,5.4,5.3S282.8,29,279.9,29z M279.9,21.2
		c-1.2,0-2.2,1.1-2.2,2.5s1,2.5,2.2,2.5c1.2,0,2.2-1.1,2.2-2.5S281,21.2,279.9,21.2z"/>
	<path d="M293.5,28.7v-1.4h0c-0.4,1.1-1.5,1.7-3.1,1.7c-2.2,0-3.5-1.2-3.5-3.3v-6.9h3.2v6.1c0,0.7,0.5,1.4,1.5,1.4
		c1,0,1.6-0.6,1.6-1.4v-6.1h3.2v10H293.5z"/>
	<path d="M304.7,22.2c-0.2-0.1-0.6-0.2-1-0.2c-1,0-2,0.5-2,2.1v4.6h-3.2v-10h3.2V21h0c0.3-1.6,1.5-2.4,2.8-2.4c0.3,0,0.7,0,0.9,0.1
		L304.7,22.2z"/>
	<path d="M317.7,22.2c-0.2-0.1-0.6-0.2-1-0.2c-1,0-2,0.5-2,2.1v4.6h-3.2v-10h3.2V21h0c0.3-1.6,1.5-2.4,2.8-2.4c0.3,0,0.7,0,0.9,0.1
		L317.7,22.2z"/>
	<path d="M328.5,23.2l-1.4,1.5h-4.9c0.2,0.8,1.3,1.7,2.9,1.7c1,0,2.1-0.3,2.8-0.7l-0.3,2.8c-0.7,0.4-1.9,0.7-3.2,0.7
		c-3,0-5.5-2.1-5.5-5.4c0-3.2,2.3-5.3,5.2-5.3c2.8,0,4.5,1.9,4.5,4C328.6,22.7,328.5,23,328.5,23.2z M324.1,20.9
		c-0.9,0-1.7,0.7-1.9,1.6h3.4c0-0.1,0-0.1,0-0.2C325.6,21.6,325,20.9,324.1,20.9z"/>
	<path d="M336.9,21.4h-2.6v3.7c0,0.9,0.5,1.2,1.3,1.2c0.4,0,0.6,0,0.8-0.1l-0.3,2.4c-0.3,0.2-0.9,0.3-1.5,0.3
		c-2.2,0-3.6-1.2-3.6-3.2v-4.3h-1.7v-2.6h1.7v-2.1l3.2-1.2v3.3h3.2L336.9,21.4z"/>
	<path d="M340.4,17.4c-0.6,0-1.7-1.2-1.7-1.7s1.2-1.7,1.7-1.7c0.6,0,1.7,1.1,1.7,1.7S340.9,17.4,340.4,17.4z M338.7,28.7v-10h3.3v10
		H338.7z"/>
	<path d="M350.3,22.2c-0.2-0.1-0.6-0.2-1-0.2c-1,0-2,0.5-2,2.1v4.6h-3.2v-10h3.2V21h0c0.3-1.6,1.5-2.4,2.8-2.4c0.3,0,0.7,0,0.9,0.1
		L350.3,22.2z"/>
	<path d="M361.1,23.2l-1.4,1.5h-4.9c0.2,0.8,1.3,1.7,2.9,1.7c1,0,2.1-0.3,2.8-0.7l-0.3,2.8c-0.7,0.4-1.9,0.7-3.2,0.7
		c-3,0-5.5-2.1-5.5-5.4c0-3.2,2.3-5.3,5.2-5.3c2.8,0,4.5,1.9,4.5,4C361.2,22.7,361.1,23,361.1,23.2z M356.7,20.9
		c-0.9,0-1.7,0.7-1.9,1.6h3.4c0-0.1,0-0.1,0-0.2C358.2,21.6,357.6,20.9,356.7,20.9z"/>
	<path d="M375,28.7v-6.1c0-0.7-0.4-1.4-1.4-1.4c-1,0-1.5,0.6-1.5,1.4v6.1h-3.2v-6.1c0-0.7-0.4-1.4-1.4-1.4c-1,0-1.5,0.6-1.5,1.4v6.1
		h-3.2v-10h3v1.3h0c0.4-1.1,1.4-1.6,2.9-1.6c1.4,0,2.5,0.6,2.9,1.6c0.4-1,1.6-1.6,3.1-1.6c2.3,0,3.5,1.2,3.5,3.3v6.9H375z"/>
	<path d="M389.5,23.2l-1.4,1.5h-4.9c0.2,0.8,1.3,1.7,2.9,1.7c1,0,2.1-0.3,2.8-0.7l-0.3,2.8c-0.7,0.4-1.9,0.7-3.2,0.7
		c-3,0-5.5-2.1-5.5-5.4c0-3.2,2.3-5.3,5.2-5.3c2.8,0,4.5,1.9,4.5,4C389.5,22.7,389.5,23,389.5,23.2z M385.1,20.9
		c-0.9,0-1.7,0.7-1.9,1.6h3.4c0-0.1,0-0.1,0-0.2C386.5,21.6,385.9,20.9,385.1,20.9z"/>
	<path d="M397.4,28.7v-6.1c0-0.7-0.5-1.4-1.5-1.4c-1,0-1.6,0.6-1.6,1.4v6.1h-3.2v-10h3v1.3h0c0.4-1.1,1.4-1.6,3-1.6
		c2.2,0,3.5,1.2,3.5,3.3v6.9H397.4z"/>
	<path d="M409.3,21.4h-2.6v3.7c0,0.9,0.5,1.2,1.3,1.2c0.4,0,0.6,0,0.8-0.1l-0.3,2.4c-0.3,0.2-0.9,0.3-1.5,0.3
		c-2.2,0-3.6-1.2-3.6-3.2v-4.3h-1.7v-2.6h1.7v-2.1l3.2-1.2v3.3h3.2L409.3,21.4z"/>
</g>
<g>
	<path d="M129.7,39.4c-0.6,0-1.7-1.2-1.7-1.7c0-0.6,1.2-1.7,1.7-1.7c0.6,0,1.7,1.1,1.7,1.7C131.4,38.2,130.3,39.4,129.7,39.4z
		 M128.1,50.7v-10h3.3v10H128.1z"/>
	<path d="M139.7,50.7v-6.1c0-0.7-0.5-1.4-1.5-1.4c-1,0-1.6,0.6-1.6,1.4v6.1h-3.2v-10h3v1.3h0c0.4-1.1,1.4-1.7,3-1.7
		c2.2,0,3.5,1.2,3.5,3.3v6.9H139.7z"/>
	<path d="M152.6,44c-0.7-0.4-1.3-0.6-2.1-0.6c-1.4,0-2.5,1-2.5,2.5c0,1.4,1.1,2.5,2.6,2.5c0.8,0,1.5-0.2,2.2-0.6l-0.3,2.8
		c-0.7,0.3-1.5,0.5-2.4,0.5c-2.8,0-5.4-2-5.4-5.2c0-3.3,2.6-5.2,5.3-5.2c1.3,0,2.4,0.3,3.3,0.7L152.6,44z"/>
	<path d="M159.6,51c-3,0-5.4-2.1-5.4-5.3c0-3.2,2.4-5.3,5.4-5.3c3,0,5.4,2.1,5.4,5.3C165,48.9,162.6,51,159.6,51z M159.6,43.2
		c-1.2,0-2.2,1.1-2.2,2.5c0,1.5,1,2.5,2.2,2.5c1.2,0,2.2-1.1,2.2-2.5C161.8,44.3,160.7,43.2,159.6,43.2z"/>
	<path d="M178.9,50.7v-6.1c0-0.7-0.4-1.4-1.4-1.4c-1,0-1.5,0.6-1.5,1.4v6.1h-3.2v-6.1c0-0.7-0.4-1.4-1.4-1.4c-1,0-1.5,0.6-1.5,1.4
		v6.1h-3.2v-10h3v1.3h0c0.4-1.1,1.4-1.7,2.9-1.7c1.4,0,2.5,0.6,2.9,1.6c0.4-1,1.6-1.6,3.1-1.6c2.3,0,3.5,1.2,3.5,3.3v6.9H178.9z"/>
	<path d="M193.3,45.2l-1.4,1.5H187c0.2,0.8,1.3,1.7,2.9,1.7c1,0,2.1-0.3,2.8-0.7l-0.3,2.8c-0.7,0.4-1.9,0.7-3.2,0.7
		c-3,0-5.5-2.1-5.5-5.4c0-3.2,2.3-5.3,5.2-5.3c2.8,0,4.5,1.9,4.5,4C193.4,44.7,193.4,45,193.3,45.2z M188.9,42.9
		c-0.9,0-1.7,0.7-1.9,1.6h3.4c0-0.1,0-0.1,0-0.2C190.4,43.6,189.8,42.9,188.9,42.9z"/>
	<path d="M207.5,44c-0.7-0.4-1.3-0.6-2.1-0.6c-1.4,0-2.5,1-2.5,2.5c0,1.4,1.1,2.5,2.6,2.5c0.8,0,1.5-0.2,2.2-0.6l-0.3,2.8
		c-0.7,0.3-1.5,0.5-2.4,0.5c-2.8,0-5.4-2-5.4-5.2c0-3.3,2.6-5.2,5.3-5.2c1.3,0,2.4,0.3,3.3,0.7L207.5,44z"/>
	<path d="M216.6,51.2c-0.6-0.1-1.3-0.6-1.5-1.3c-0.4,0.8-1.4,1.2-2.6,1.2c-1.8,0-3.3-1.2-3.3-3.3c0-1.8,1.4-3.1,3.4-3.3l2-0.2V44
		c0-0.6-0.5-1-1.6-1c-1,0-2,0.3-2.8,0.8l-0.6-2.4c0.8-0.5,2.2-0.9,3.5-0.9c2.6,0,4.5,1.2,4.5,3.6v3.3c0,1.2,0.4,1.8,1.2,2.1
		L216.6,51.2z M214.6,46.4l-1.2,0.1c-0.8,0.1-1.2,0.7-1.2,1.3c0,0.5,0.4,1,1,1c0.8,0,1.4-0.6,1.4-1.5V46.4z"/>
	<path d="M226.3,50.7v-6.1c0-0.7-0.5-1.4-1.5-1.4c-1,0-1.6,0.6-1.6,1.4v6.1H220v-10h3v1.3h0c0.4-1.1,1.4-1.7,3-1.7
		c2.2,0,3.5,1.2,3.5,3.3v6.9H226.3z"/>
	<path d="M241.3,51c-2.1,0-3.8-0.7-4.8-1.5V35.1h3.1v6.1c0.4-0.3,1.5-0.7,2.5-0.7c2.8,0,5,2,5,5.1C247.2,48.6,245.2,51,241.3,51z
		 M241.6,43.3c-0.9,0-1.6,0.4-1.9,0.8v3.8c0.3,0.2,1,0.5,1.6,0.5c1.7,0,2.7-1.1,2.7-2.6C244,44.4,243,43.3,241.6,43.3z"/>
	<path d="M257.9,45.2l-1.4,1.5h-4.9c0.2,0.8,1.3,1.7,2.9,1.7c1,0,2.1-0.3,2.8-0.7l-0.3,2.8c-0.7,0.4-1.9,0.7-3.2,0.7
		c-3,0-5.5-2.1-5.5-5.4c0-3.2,2.3-5.3,5.2-5.3c2.8,0,4.5,1.9,4.5,4C258,44.7,258,45,257.9,45.2z M253.5,42.9c-0.9,0-1.7,0.7-1.9,1.6
		h3.4c0-0.1,0-0.1,0-0.2C255,43.6,254.4,42.9,253.5,42.9z"/>
	<path d="M260.9,51c-0.6,0-1.8-1.2-1.8-1.8c0-0.6,1.2-1.8,1.8-1.8s1.8,1.2,1.8,1.8C262.7,49.8,261.5,51,260.9,51z"/>
</g>
</svg>
