<?xml version="1.0" encoding="utf-8"?>
<!-- Generator: Adobe Illustrator 22.1.0, SVG Export Plug-In . SVG Version: 6.00 Build 0)  -->
<svg version="1.1" id="Layer_1" xmlns="http://www.w3.org/2000/svg" xmlns:xlink="http://www.w3.org/1999/xlink" x="0px" y="0px"
	 viewBox="0 0 728 90" style="enable-background:new 0 0 728 90;" xml:space="preserve">
<g>
	<path d="M32.9,39.6h-5.6V23h5.6c4.8,0,8.9,3.1,8.9,8.3C41.8,36.4,37.7,39.6,32.9,39.6z M32.6,26.3h-1.3v10h1.3c2.9,0,5.2-1.7,5.2-5
		S35.4,26.3,32.6,26.3z"/>
	<path d="M49.5,40c-3.6,0-6.4-2.5-6.4-6.3s2.9-6.3,6.4-6.3c3.5,0,6.4,2.5,6.4,6.3S53,40,49.5,40z M49.5,30.7c-1.4,0-2.7,1.2-2.7,3
		c0,1.7,1.2,3,2.7,3c1.4,0,2.7-1.2,2.7-3C52.1,32,50.9,30.7,49.5,30.7z"/>
	<path d="M65,39.6v-7.2c0-0.9-0.6-1.6-1.7-1.6c-1.1,0-1.9,0.7-1.9,1.7v7.2h-3.8V27.8H61v1.6h0c0.5-1.2,1.7-2,3.6-2
		c2.6,0,4.1,1.5,4.1,4v8.2H65z"/>
	<path d="M71.4,30.4l-1.2-0.2c0.9-1,1.6-2.5,1.7-3.7c-0.7-0.1-1.7-1.2-1.7-1.8c0-0.8,1.5-2.1,2.2-2.1c0.6,0,2.2,1.3,2.2,2.1
		C74.6,26.4,73,29,71.4,30.4z"/>
	<path d="M84,30.9h-3.1v4.4c0,1,0.5,1.4,1.6,1.4c0.4,0,0.7,0,1-0.2l-0.3,2.9c-0.4,0.2-1,0.3-1.8,0.3c-2.7,0-4.2-1.4-4.2-3.7v-5.1h-2
		v-3.1h2v-2.5l3.8-1.4v3.9h3.8L84,30.9z"/>
	<path d="M96.6,45.6c-3.4,0-5.7-2-5.7-4.4c0-1.8,1.2-2.9,2.4-3.2l-1.5-1.5c0.1-0.8,0.8-1.4,1.4-1.7c-0.9-0.5-1.7-1.7-1.7-3.1
		c0-2.5,1.8-4.2,4.9-4.2c0.7,0,1.2,0.1,1.7,0.2c0.5,0.1,1.1,0.2,1.7,0.2c0.7,0,1.3-0.2,1.8-0.4l0.7,2.9c-0.4,0.2-0.9,0.4-1.5,0.4
		c0.1,0.2,0.3,0.8,0.3,1.2c0,2-1.6,3.6-3.8,3.8c-0.5,0-0.8,0.1-0.8,0.4c0,0.1,0.1,0.3,0.3,0.4l1.8,0.6c2.3,0.8,3.6,2,3.6,4.2
		C102.3,43.8,100,45.6,96.6,45.6z M97.4,40.1L96,39.7c-0.9,0-1.6,0.7-1.6,1.5c0,0.8,0.7,1.5,2.1,1.5c1.4,0,2.1-0.6,2.1-1.3
		C98.6,40.8,98.2,40.3,97.4,40.1z M96.4,30.2c-0.9,0-1.5,0.6-1.5,1.4c0,0.8,0.6,1.4,1.5,1.4c0.8,0,1.5-0.6,1.5-1.4
		C97.9,30.9,97.3,30.2,96.4,30.2z"/>
	<path d="M114.2,33l-1.7,1.7h-5.8c0.2,1,1.5,2.1,3.5,2.1c1.2,0,2.5-0.4,3.2-0.9l-0.4,3.3c-0.9,0.5-2.2,0.8-3.7,0.8
		c-3.6,0-6.5-2.5-6.5-6.3c0-3.8,2.8-6.2,6.1-6.2c3.3,0,5.3,2.3,5.3,4.7C114.3,32.4,114.3,32.8,114.2,33z M109.1,30.3
		c-1.1,0-2.1,0.9-2.3,1.9h4c0-0.1,0-0.2,0-0.3C110.8,31.1,110.1,30.3,109.1,30.3z"/>
	<path d="M123.9,30.9h-3.1v4.4c0,1,0.5,1.4,1.6,1.4c0.4,0,0.7,0,1-0.2l-0.3,2.9c-0.4,0.2-1,0.3-1.8,0.3c-2.7,0-4.2-1.4-4.2-3.7v-5.1
		h-2v-3.1h2v-2.5l3.8-1.4v3.9h3.8L123.9,30.9z"/>
	<path d="M137.1,39.9c-2.5,0-4.5-0.9-5.7-1.7V21.1h3.7v7.2c0.5-0.4,1.7-0.8,3-0.8c3.2,0,5.9,2.3,5.9,6
		C144,37.1,141.7,39.9,137.1,39.9z M137.4,30.8c-1.1,0-1.9,0.5-2.3,0.9v4.5c0.4,0.3,1.2,0.6,1.9,0.6c2,0,3.2-1.3,3.2-3
		C140.2,32.1,139,30.8,137.4,30.8z"/>
	<path d="M149.7,40.1c-2.4-0.1-4-1.4-4-4.2V21.1h3.8v14.3c0,1,0.5,1.5,1.6,1.6L149.7,40.1z"/>
	<path d="M154.3,26.2c-0.7,0-2.1-1.4-2.1-2.1c0-0.7,1.4-2,2.1-2c0.7,0,2.1,1.4,2.1,2C156.3,24.8,155,26.2,154.3,26.2z M152.4,39.6
		V27.8h3.8v11.8H152.4z"/>
	<path d="M165.9,39.6v-7.2c0-0.9-0.6-1.6-1.7-1.6c-1.1,0-1.9,0.7-1.9,1.7v7.2h-3.8V27.8h3.5v1.6h0c0.5-1.2,1.7-2,3.6-2
		c2.6,0,4.1,1.5,4.1,4v8.2H165.9z"/>
	<path d="M180.7,39.6v-1.5h0c-0.6,1.2-2,1.8-3.6,1.8c-2.9,0-5.7-2.2-5.7-6.2c0-3.8,2.7-6.3,6-6.3c1.2,0,2.5,0.4,3,0.8v-7.2h3.7v18.5
		H180.7z M180.3,31.9c-0.4-0.5-1.1-1.1-2.3-1.1c-1.7,0-2.8,1.3-2.8,3s1.2,3,2.8,3c1.1,0,1.9-0.6,2.3-1.2V31.9z"/>
	<path d="M190,39.8c-1.6,0-2.8-0.3-3.7-0.8l-0.3-3.4c1,0.7,2.4,1.3,3.7,1.3c0.7,0,1.1-0.4,1.1-0.8c0-0.5-0.4-0.7-1.1-0.9
		c-2.3-0.6-3.6-1.8-3.6-3.8c0-2.3,1.9-3.8,4.4-3.8c1.5,0,2.9,0.4,3.5,0.7l-0.6,2.8c-0.6-0.3-1.5-0.6-2.4-0.6c-0.6,0-1,0.3-1,0.8
		c0,0.4,0.3,0.7,1,0.9c2.7,0.7,3.7,2,3.7,4C194.7,38,193.2,39.8,190,39.8z"/>
	<path d="M198.2,26.2c-0.7,0-2.1-1.4-2.1-2.1c0-0.7,1.4-2,2.1-2c0.7,0,2.1,1.4,2.1,2C200.3,24.8,198.9,26.2,198.2,26.2z M196.3,39.6
		V27.8h3.8v11.8H196.3z"/>
	<path d="M211.2,39.6v-1.5h0c-0.6,1.2-2,1.8-3.6,1.8c-2.9,0-5.7-2.2-5.7-6.2c0-3.8,2.7-6.3,6-6.3c1.2,0,2.5,0.4,3,0.8v-7.2h3.7v18.5
		H211.2z M210.8,31.9c-0.4-0.5-1.1-1.1-2.3-1.1c-1.7,0-2.8,1.3-2.8,3s1.2,3,2.8,3c1.1,0,1.9-0.6,2.3-1.2V31.9z"/>
	<path d="M227.5,33l-1.7,1.7H220c0.2,1,1.5,2.1,3.5,2.1c1.2,0,2.5-0.4,3.2-0.9l-0.4,3.3c-0.9,0.5-2.2,0.8-3.7,0.8
		c-3.6,0-6.5-2.5-6.5-6.3c0-3.8,2.8-6.2,6.1-6.2c3.3,0,5.3,2.3,5.3,4.7C227.6,32.4,227.5,32.8,227.5,33z M222.3,30.3
		c-1.1,0-2.1,0.9-2.3,1.9h4c0-0.1,0-0.2,0-0.3C224,31.1,223.3,30.3,222.3,30.3z"/>
	<path d="M238,39.6v-1.5h0c-0.6,1.2-2,1.8-3.6,1.8c-2.9,0-5.7-2.2-5.7-6.2c0-3.8,2.7-6.3,6-6.3c1.2,0,2.5,0.4,3,0.8v-7.2h3.7v18.5
		H238z M237.6,31.9c-0.4-0.5-1.1-1.1-2.3-1.1c-1.7,0-2.8,1.3-2.8,3s1.2,3,2.8,3c1.1,0,1.9-0.6,2.3-1.2V31.9z"/>
	<path d="M254.8,39.9c-2.5,0-4.5-0.9-5.7-1.7V21.1h3.7v7.2c0.5-0.4,1.7-0.8,3-0.8c3.2,0,5.9,2.3,5.9,6
		C261.8,37.1,259.5,39.9,254.8,39.9z M255.2,30.8c-1.1,0-1.9,0.5-2.3,0.9v4.5c0.4,0.3,1.2,0.6,1.9,0.6c2,0,3.2-1.3,3.2-3
		C258,32.1,256.8,30.8,255.2,30.8z"/>
	<path d="M270,38.4c-1.8,4.7-3.7,6.4-5.9,7.3l-2.3-2.3c1.9-0.7,3.4-2.1,4.3-4.6l-4.2-11h3.7l1.7,4.6c0.3,0.7,0.5,1.5,0.7,2.3h0.1
		c0.2-0.8,0.5-1.6,0.8-2.3l1.7-4.6h3.5L270,38.4z"/>
	<path d="M288.6,30.9h-3.1v4.4c0,1,0.5,1.4,1.6,1.4c0.4,0,0.7,0,1-0.2l-0.3,2.9c-0.4,0.2-1,0.3-1.8,0.3c-2.7,0-4.2-1.4-4.2-3.7v-5.1
		h-2v-3.1h2v-2.5l3.8-1.4v3.9h3.8L288.6,30.9z"/>
	<path d="M297.9,39.6v-7.2c0-0.9-0.6-1.6-1.8-1.6c-1.1,0-1.8,0.7-1.8,1.7v7.2h-3.8V21.1h3.8v7.8h0c0.6-0.9,1.7-1.5,3.3-1.5
		c2.6,0,4.1,1.5,4.1,4v8.2H297.9z"/>
	<path d="M314.7,33l-1.7,1.7h-5.8c0.2,1,1.5,2.1,3.5,2.1c1.2,0,2.5-0.4,3.2-0.9l-0.4,3.3c-0.9,0.5-2.2,0.8-3.7,0.8
		c-3.6,0-6.5-2.5-6.5-6.3c0-3.8,2.8-6.2,6.1-6.2c3.3,0,5.3,2.3,5.3,4.7C314.8,32.4,314.7,32.8,314.7,33z M309.5,30.3
		c-1.1,0-2.1,0.9-2.3,1.9h4c0-0.1,0-0.2,0-0.3C311.2,31.1,310.5,30.3,309.5,30.3z"/>
	<path d="M336.5,39.6v-7.2c0-0.9-0.4-1.6-1.7-1.6c-1.2,0-1.8,0.7-1.8,1.7v7.2h-3.8v-7.2c0-0.9-0.4-1.6-1.7-1.6
		c-1.2,0-1.8,0.7-1.8,1.7v7.2H322V27.8h3.5v1.6h0c0.5-1.2,1.6-2,3.5-2c1.7,0,3,0.7,3.5,1.9c0.5-1.1,1.9-1.9,3.6-1.9
		c2.7,0,4.2,1.5,4.2,4v8.2H336.5z"/>
	<path d="M350.8,40.1c-0.7-0.2-1.5-0.7-1.8-1.6c-0.5,1-1.6,1.4-3.1,1.4c-2.1,0-3.9-1.5-3.9-3.9c0-2.2,1.7-3.6,4-3.8l2.3-0.2v-0.4
		c0-0.7-0.6-1.2-1.8-1.2c-1.1,0-2.4,0.4-3.3,0.9l-0.7-2.9c1-0.6,2.6-1,4.1-1c3.1,0,5.3,1.4,5.3,4.3v3.8c0,1.4,0.5,2.1,1.4,2.4
		L350.8,40.1z M348.3,34.4l-1.4,0.1c-1,0.1-1.4,0.8-1.4,1.5c0,0.6,0.5,1.1,1.2,1.1c0.9,0,1.7-0.7,1.7-1.7V34.4z"/>
	<path d="M361.8,31.9c-0.2-0.1-0.8-0.3-1.1-0.3c-1.2,0-2.3,0.6-2.3,2.5v5.5h-3.8V27.8h3.8v2.6h0c0.4-1.8,1.8-2.8,3.4-2.8
		c0.4,0,0.8,0.1,1.1,0.2L361.8,31.9z"/>
	<path d="M371,39.6l-3.5-4.8h0v4.8h-3.8V21.1h3.8v11.5h0l3.5-4.8h4.2l-4.1,5.7l4.4,6.1H371z"/>
	<path d="M386.7,33l-1.7,1.7h-5.8c0.2,1,1.5,2.1,3.5,2.1c1.2,0,2.5-0.4,3.3-0.9l-0.4,3.3c-0.9,0.5-2.2,0.8-3.7,0.8
		c-3.6,0-6.5-2.5-6.5-6.3c0-3.8,2.8-6.2,6.1-6.2c3.3,0,5.3,2.3,5.3,4.7C386.8,32.4,386.7,32.8,386.7,33z M381.5,30.3
		c-1.1,0-2.1,0.9-2.3,1.9h4c0-0.1,0-0.2,0-0.3C383.2,31.1,382.5,30.3,381.5,30.3z"/>
	<path d="M396.4,30.9h-3.1v4.4c0,1,0.5,1.4,1.6,1.4c0.4,0,0.7,0,1-0.2l-0.3,2.9c-0.4,0.2-1,0.3-1.8,0.3c-2.7,0-4.2-1.4-4.2-3.7v-5.1
		h-2v-3.1h2v-2.5l3.8-1.4v3.9h3.8L396.4,30.9z"/>
	<path d="M401.8,39.8c-1.6,0-2.8-0.3-3.7-0.8l-0.3-3.4c1,0.7,2.4,1.3,3.7,1.3c0.7,0,1.1-0.4,1.1-0.8c0-0.5-0.4-0.7-1.1-0.9
		c-2.3-0.6-3.6-1.8-3.6-3.8c0-2.3,1.9-3.8,4.4-3.8c1.5,0,2.9,0.4,3.5,0.7l-0.7,2.8c-0.6-0.3-1.5-0.6-2.4-0.6c-0.6,0-1,0.3-1,0.8
		c0,0.4,0.3,0.7,1,0.9c2.7,0.7,3.7,2,3.7,4C406.4,38,404.9,39.8,401.8,39.8z"/>
	<path d="M409.9,40c-0.7,0-2.2-1.5-2.2-2.2c0-0.7,1.5-2.1,2.2-2.1c0.7,0,2.2,1.5,2.2,2.1C412,38.5,410.6,40,409.9,40z"/>
</g>
</svg>
