<?xml version="1.0" encoding="utf-8"?>
<!-- Generator: Adobe Illustrator 22.1.0, SVG Export Plug-In . SVG Version: 6.00 Build 0)  -->
<svg version="1.1" id="Layer_1" xmlns="http://www.w3.org/2000/svg" xmlns:xlink="http://www.w3.org/1999/xlink" x="0px" y="0px"
	 viewBox="0 0 728 90" style="enable-background:new 0 0 728 90;" xml:space="preserve">
<g>
	<path d="M206.5,67v9.2h-2.8V67h-3.3v-2.3h9.4V67H206.5z"/>
	<path d="M214.8,70.9c-0.2-0.1-0.5-0.2-0.8-0.2c-0.8,0-1.6,0.5-1.6,1.7v3.8h-2.6v-8.2h2.6v1.8h0c0.3-1.3,1.2-2,2.3-2
		c0.3,0,0.6,0,0.8,0.1L214.8,70.9z"/>
	<path d="M221.6,75.4c-1.2,3.3-2.5,4.5-4.1,5.1l-1.6-1.6c1.3-0.5,2.3-1.5,3-3.2l-2.9-7.6h2.6l1.2,3.2c0.2,0.5,0.4,1,0.5,1.6h0
		c0.2-0.6,0.3-1.1,0.5-1.6l1.2-3.2h2.4L221.6,75.4z"/>
	<path d="M234.9,70.2h-2.1v3c0,0.7,0.4,1,1.1,1c0.3,0,0.5,0,0.7-0.1l-0.2,2c-0.3,0.1-0.7,0.2-1.2,0.2c-1.8,0-2.9-1-2.9-2.6v-3.5
		h-1.4v-2.2h1.4v-1.7l2.6-1v2.7h2.6L234.9,70.2z"/>
	<path d="M241.5,76.2v-5c0-0.6-0.4-1.1-1.2-1.1c-0.8,0-1.3,0.5-1.3,1.2v5h-2.6V63.4h2.6v5.4h0c0.4-0.6,1.2-1,2.3-1
		c1.8,0,2.9,1,2.9,2.7v5.7H241.5z"/>
	<path d="M253.3,71.7l-1.2,1.2h-4c0.1,0.7,1,1.4,2.4,1.4c0.8,0,1.7-0.3,2.3-0.6l-0.3,2.3c-0.6,0.3-1.5,0.5-2.6,0.5
		c-2.5,0-4.5-1.7-4.5-4.4c0-2.6,1.9-4.3,4.2-4.3c2.3,0,3.7,1.6,3.7,3.3C253.4,71.3,253.4,71.5,253.3,71.7z M249.7,69.8
		c-0.8,0-1.4,0.6-1.6,1.3h2.8c0-0.1,0-0.1,0-0.2C250.9,70.4,250.4,69.8,249.7,69.8z"/>
	<path d="M269.5,76.2l-0.4-4.2c-0.1-0.6-0.1-1.4-0.1-2.1h0c-0.3,0.7-0.6,1.5-1,2.2l-2.2,4.2h-1.1l-2.2-4.2c-0.3-0.6-0.7-1.4-1-2.1h0
		c0,0.7,0,1.5-0.1,2.1l-0.4,4.2h-2.6l1-11.5h2.3l2.5,4.8c0.4,0.7,0.8,1.7,1.2,2.4h0c0.3-0.8,0.7-1.7,1.1-2.4l2.5-4.8h2.2l1,11.5
		H269.5z"/>
	<path d="M278.4,75.4c-1.2,3.3-2.5,4.5-4.1,5.1l-1.6-1.6c1.3-0.5,2.3-1.5,3-3.2l-2.9-7.6h2.6l1.2,3.2c0.2,0.5,0.4,1,0.5,1.6h0
		c0.2-0.6,0.3-1.1,0.5-1.6l1.2-3.2h2.4L278.4,75.4z"/>
	<path d="M290.8,71.7h-1.7v4.5h-2.7V64.8h4.4c2,0,3.7,1.3,3.7,3.5C294.5,70.4,292.8,71.7,290.8,71.7z M290.4,67h-1.3v2.6h1.3
		c0.7,0,1.4-0.4,1.4-1.3C291.8,67.4,291.1,67,290.4,67z"/>
	<path d="M302.9,71.7l-1.2,1.2h-4c0.1,0.7,1,1.4,2.4,1.4c0.8,0,1.7-0.3,2.3-0.6l-0.3,2.3c-0.6,0.3-1.5,0.5-2.6,0.5
		c-2.5,0-4.5-1.7-4.5-4.4c0-2.6,1.9-4.3,4.2-4.3c2.3,0,3.7,1.6,3.7,3.3C303,71.3,302.9,71.5,302.9,71.7z M299.3,69.8
		c-0.8,0-1.4,0.6-1.6,1.3h2.8c0-0.1,0-0.1,0-0.2C300.5,70.4,300,69.8,299.3,69.8z"/>
	<path d="M309.4,70.9c-0.2-0.1-0.5-0.2-0.8-0.2c-0.8,0-1.6,0.5-1.6,1.7v3.8h-2.6v-8.2h2.6v1.8h0c0.3-1.3,1.2-2,2.3-2
		c0.3,0,0.6,0,0.8,0.1L309.4,70.9z"/>
	<path d="M313.4,76.4c-1.1,0-1.9-0.2-2.6-0.6l-0.2-2.3c0.7,0.5,1.7,0.9,2.6,0.9c0.5,0,0.8-0.3,0.8-0.6c0-0.3-0.3-0.5-0.7-0.6
		c-1.6-0.5-2.5-1.2-2.5-2.7c0-1.6,1.3-2.6,3.1-2.6c1,0,2,0.3,2.4,0.5l-0.5,1.9c-0.4-0.2-1-0.4-1.7-0.4c-0.4,0-0.7,0.2-0.7,0.5
		c0,0.3,0.2,0.5,0.7,0.6c1.8,0.5,2.6,1.4,2.6,2.8C316.6,75.2,315.6,76.4,313.4,76.4z"/>
	<path d="M321.9,76.5c-2.5,0-4.4-1.7-4.4-4.3s2-4.3,4.4-4.3c2.4,0,4.4,1.7,4.4,4.3S324.4,76.5,321.9,76.5z M321.9,70.1
		c-1,0-1.8,0.9-1.8,2.1c0,1.2,0.8,2.1,1.8,2.1c1,0,1.8-0.9,1.8-2.1C323.8,71,322.9,70.1,321.9,70.1z"/>
	<path d="M332.9,76.2v-5c0-0.6-0.4-1.1-1.2-1.1c-0.8,0-1.3,0.5-1.3,1.2v5h-2.6v-8.2h2.4v1.1h0c0.3-0.9,1.2-1.3,2.5-1.3
		c1.8,0,2.9,1,2.9,2.7v5.7H332.9z"/>
	<path d="M342.9,76.6c-0.5-0.1-1-0.5-1.3-1.1c-0.4,0.7-1.1,1-2.1,1c-1.4,0-2.7-1-2.7-2.7c0-1.5,1.2-2.5,2.8-2.7l1.6-0.2v-0.3
		c0-0.5-0.4-0.8-1.3-0.8c-0.8,0-1.7,0.3-2.3,0.6l-0.5-2c0.7-0.4,1.8-0.7,2.9-0.7c2.2,0,3.7,1,3.7,3v2.7c0,1,0.4,1.5,1,1.7
		L342.9,76.6z M341.3,72.7l-1,0.1c-0.7,0.1-1,0.5-1,1c0,0.4,0.3,0.8,0.8,0.8c0.6,0,1.2-0.5,1.2-1.2V72.7z"/>
	<path d="M348.5,76.6c-1.7-0.1-2.8-0.9-2.8-2.9V63.4h2.6v9.9c0,0.7,0.4,1,1.1,1.1L348.5,76.6z"/>
	<path d="M359,71.7h-1.7v4.5h-2.7V64.8h4.4c2,0,3.7,1.3,3.7,3.5C362.7,70.4,361,71.7,359,71.7z M358.6,67h-1.3v2.6h1.3
		c0.7,0,1.4-0.4,1.4-1.3C360.1,67.4,359.4,67,358.6,67z"/>
	<path d="M371.2,71.7l-1.2,1.2h-4c0.1,0.7,1,1.4,2.4,1.4c0.8,0,1.7-0.3,2.3-0.6l-0.3,2.3c-0.6,0.3-1.5,0.5-2.6,0.5
		c-2.5,0-4.5-1.7-4.5-4.4c0-2.6,1.9-4.3,4.2-4.3c2.3,0,3.7,1.6,3.7,3.3C371.2,71.3,371.2,71.5,371.2,71.7z M367.6,69.8
		c-0.8,0-1.4,0.6-1.6,1.3h2.8c0-0.1,0-0.1,0-0.2C368.8,70.4,368.3,69.8,367.6,69.8z"/>
	<path d="M377.7,76.2v-5c0-0.6-0.4-1.1-1.2-1.1c-0.8,0-1.3,0.5-1.3,1.2v5h-2.6v-8.2h2.4v1.1h0c0.3-0.9,1.2-1.3,2.5-1.3
		c1.8,0,2.9,1,2.9,2.7v5.7H377.7z"/>
	<path d="M384.7,76.4c-1.1,0-1.9-0.2-2.6-0.6l-0.2-2.3c0.7,0.5,1.7,0.9,2.6,0.9c0.5,0,0.8-0.3,0.8-0.6c0-0.3-0.3-0.5-0.7-0.6
		c-1.6-0.5-2.5-1.2-2.5-2.7c0-1.6,1.3-2.6,3.1-2.6c1,0,2,0.3,2.4,0.5l-0.5,1.9c-0.4-0.2-1-0.4-1.7-0.4c-0.4,0-0.7,0.2-0.7,0.5
		c0,0.3,0.2,0.5,0.7,0.6c1.8,0.5,2.6,1.4,2.6,2.8C387.9,75.2,386.9,76.4,384.7,76.4z"/>
	<path d="M390.6,67c-0.5,0-1.4-1-1.4-1.4c0-0.5,1-1.4,1.4-1.4c0.5,0,1.4,0.9,1.4,1.4C392,66,391,67,390.6,67z M389.2,76.2v-8.2h2.7
		v8.2H389.2z"/>
	<path d="M397.7,76.5c-2.5,0-4.4-1.7-4.4-4.3s2-4.3,4.4-4.3c2.4,0,4.4,1.7,4.4,4.3S400.1,76.5,397.7,76.5z M397.7,70.1
		c-1,0-1.8,0.9-1.8,2.1c0,1.2,0.8,2.1,1.8,2.1c1,0,1.8-0.9,1.8-2.1C399.5,71,398.7,70.1,397.7,70.1z"/>
	<path d="M408.6,76.2v-5c0-0.6-0.4-1.1-1.2-1.1c-0.8,0-1.3,0.5-1.3,1.2v5h-2.6v-8.2h2.4v1.1h0c0.3-0.9,1.2-1.3,2.5-1.3
		c1.8,0,2.9,1,2.9,2.7v5.7H408.6z"/>
	<path d="M423.2,70.7c-0.5-0.3-1.1-0.5-1.7-0.5c-1.2,0-2.1,0.8-2.1,2c0,1.2,0.9,2,2.1,2c0.7,0,1.2-0.1,1.8-0.5L423,76
		c-0.5,0.3-1.2,0.4-2,0.4c-2.3,0-4.4-1.6-4.4-4.2c0-2.7,2.1-4.3,4.4-4.3c1.1,0,2,0.2,2.7,0.6L423.2,70.7z"/>
	<path d="M430.7,76.6c-0.5-0.1-1-0.5-1.3-1.1c-0.4,0.7-1.1,1-2.1,1c-1.4,0-2.7-1-2.7-2.7c0-1.5,1.2-2.5,2.8-2.7L429,71v-0.3
		c0-0.5-0.4-0.8-1.3-0.8c-0.8,0-1.7,0.3-2.3,0.6l-0.5-2c0.7-0.4,1.8-0.7,2.9-0.7c2.2,0,3.7,1,3.7,3v2.7c0,1,0.4,1.5,1,1.7
		L430.7,76.6z M429,72.7l-1,0.1c-0.7,0.1-1,0.5-1,1c0,0.4,0.3,0.8,0.8,0.8c0.6,0,1.2-0.5,1.2-1.2V72.7z"/>
	<path d="M436.2,76.6c-1.7-0.1-2.8-0.9-2.8-2.9V63.4h2.6v9.9c0,0.7,0.4,1,1.1,1.1L436.2,76.6z"/>
	<path d="M444.3,70.7c-0.5-0.3-1.1-0.5-1.7-0.5c-1.2,0-2.1,0.8-2.1,2c0,1.2,0.9,2,2.1,2c0.7,0,1.2-0.1,1.8-0.5l-0.2,2.3
		c-0.5,0.3-1.2,0.4-2,0.4c-2.3,0-4.4-1.6-4.4-4.2c0-2.7,2.1-4.3,4.4-4.3c1.1,0,2,0.2,2.7,0.6L444.3,70.7z"/>
	<path d="M451.4,76.2v-1.1h0c-0.3,0.9-1.2,1.4-2.5,1.4c-1.8,0-2.9-1-2.9-2.7v-5.7h2.6v5c0,0.6,0.4,1.1,1.2,1.1
		c0.8,0,1.3-0.5,1.3-1.2v-5h2.6v8.2H451.4z"/>
	<path d="M458.4,76.6c-1.7-0.1-2.8-0.9-2.8-2.9V63.4h2.6v9.9c0,0.7,0.4,1,1.1,1.1L458.4,76.6z"/>
	<path d="M466.2,76.6c-0.5-0.1-1-0.5-1.3-1.1c-0.4,0.7-1.1,1-2.1,1c-1.4,0-2.7-1-2.7-2.7c0-1.5,1.2-2.5,2.8-2.7l1.6-0.2v-0.3
		c0-0.5-0.4-0.8-1.3-0.8c-0.8,0-1.7,0.3-2.3,0.6l-0.5-2c0.7-0.4,1.8-0.7,2.9-0.7c2.2,0,3.7,1,3.7,3v2.7c0,1,0.4,1.5,1,1.7
		L466.2,76.6z M464.5,72.7l-1,0.1c-0.7,0.1-1,0.5-1,1c0,0.4,0.3,0.8,0.8,0.8c0.6,0,1.2-0.5,1.2-1.2V72.7z"/>
	<path d="M474.2,70.2h-2.1v3c0,0.7,0.4,1,1.1,1c0.3,0,0.5,0,0.7-0.1l-0.2,2c-0.3,0.1-0.7,0.2-1.2,0.2c-1.8,0-2.9-1-2.9-2.6v-3.5
		h-1.4v-2.2h1.4v-1.7l2.6-1v2.7h2.6L474.2,70.2z"/>
	<path d="M479.6,76.5c-2.5,0-4.4-1.7-4.4-4.3s2-4.3,4.4-4.3c2.4,0,4.4,1.7,4.4,4.3S482,76.5,479.6,76.5z M479.6,70.1
		c-1,0-1.8,0.9-1.8,2.1c0,1.2,0.8,2.1,1.8,2.1c1,0,1.8-0.9,1.8-2.1C481.4,71,480.6,70.1,479.6,70.1z"/>
	<path d="M490.4,70.9c-0.2-0.1-0.5-0.2-0.8-0.2c-0.8,0-1.6,0.5-1.6,1.7v3.8h-2.6v-8.2h2.6v1.8h0c0.3-1.3,1.2-2,2.3-2
		c0.3,0,0.6,0,0.8,0.1L490.4,70.9z"/>
	<path d="M492.1,76.5c-0.5,0-1.5-1-1.5-1.5c0-0.5,1-1.5,1.5-1.5c0.5,0,1.5,1,1.5,1.5C493.6,75.5,492.6,76.5,492.1,76.5z"/>
</g>
</svg>
