<?xml version="1.0" encoding="utf-8"?>
<!-- Generator: Adobe Illustrator 22.1.0, SVG Export Plug-In . SVG Version: 6.00 Build 0)  -->
<svg version="1.1" id="Layer_1" xmlns="http://www.w3.org/2000/svg" xmlns:xlink="http://www.w3.org/1999/xlink" x="0px" y="0px"
	 viewBox="0 0 728 90" style="enable-background:new 0 0 728 90;" xml:space="preserve">
<g>
	<path d="M190,40c-4.6,0-9.2-3-9.2-8.7c0-5.7,4.7-8.7,9.1-8.7c2.3,0,4.3,0.6,5.4,1.4l-0.8,3.3c-1-0.7-2.6-1.2-4.2-1.2
		c-3,0-5.5,2-5.5,5.3c0,3.1,2.4,5.1,5.4,5.1c1,0,1.7-0.2,2.3-0.5v-2.6h-2.9v-3.1h6.6v7.9C194.8,39.4,192.7,40,190,40z"/>
	<path d="M209.2,33l-1.7,1.7h-5.8c0.2,1,1.5,2.1,3.5,2.1c1.2,0,2.5-0.4,3.2-0.9l-0.4,3.3c-0.9,0.5-2.2,0.8-3.7,0.8
		c-3.6,0-6.5-2.5-6.5-6.3c0-3.8,2.8-6.2,6.1-6.2c3.3,0,5.3,2.3,5.3,4.7C209.4,32.4,209.3,32.8,209.2,33z M204.1,30.3
		c-1.1,0-2.1,0.9-2.3,1.9h4c0-0.1,0-0.2,0-0.3C205.8,31.1,205.1,30.3,204.1,30.3z"/>
	<path d="M218.9,30.9h-3.1v4.4c0,1,0.5,1.4,1.6,1.4c0.4,0,0.7,0,1-0.2l-0.3,2.9c-0.4,0.2-1,0.3-1.8,0.3c-2.7,0-4.2-1.4-4.2-3.7v-5.1
		h-2v-3.1h2v-2.5l3.8-1.4v3.9h3.8L218.9,30.9z"/>
	<path d="M231.6,45.6c-3.4,0-5.7-2-5.7-4.4c0-1.8,1.2-2.9,2.4-3.2l-1.5-1.5c0.1-0.8,0.8-1.4,1.4-1.7c-0.9-0.5-1.7-1.7-1.7-3.1
		c0-2.5,1.8-4.2,4.9-4.2c0.7,0,1.2,0.1,1.7,0.2c0.5,0.1,1.1,0.2,1.7,0.2c0.7,0,1.3-0.2,1.8-0.4l0.7,2.9c-0.4,0.2-0.9,0.4-1.5,0.4
		c0.1,0.2,0.3,0.8,0.3,1.2c0,2-1.6,3.6-3.8,3.8c-0.5,0-0.8,0.1-0.8,0.4c0,0.1,0.1,0.3,0.3,0.4l1.8,0.6c2.3,0.8,3.6,2,3.6,4.2
		C237.2,43.8,235,45.6,231.6,45.6z M232.4,40.1l-1.4-0.4c-0.9,0-1.6,0.7-1.6,1.5c0,0.8,0.7,1.5,2.1,1.5c1.4,0,2.1-0.6,2.1-1.3
		C233.6,40.8,233.1,40.3,232.4,40.1z M231.3,30.2c-0.9,0-1.5,0.6-1.5,1.4c0,0.8,0.6,1.4,1.5,1.4c0.8,0,1.5-0.6,1.5-1.4
		C232.9,30.9,232.2,30.2,231.3,30.2z"/>
	<path d="M246.2,39.6V38h0c-0.5,1.2-1.7,2-3.6,2c-2.6,0-4.1-1.4-4.1-3.9v-8.2h3.8V35c0,0.9,0.6,1.6,1.8,1.6c1.1,0,1.8-0.8,1.8-1.7
		v-7.2h3.8v11.8H246.2z"/>
	<path d="M260.2,40.1c-0.7-0.2-1.5-0.7-1.8-1.6c-0.5,1-1.6,1.4-3.1,1.4c-2.1,0-3.9-1.5-3.9-3.9c0-2.2,1.7-3.6,4-3.8l2.3-0.2v-0.4
		c0-0.7-0.6-1.2-1.8-1.2c-1.1,0-2.4,0.4-3.3,0.9l-0.7-2.9c1-0.6,2.6-1,4.1-1c3.1,0,5.3,1.4,5.3,4.3v3.8c0,1.4,0.5,2.1,1.4,2.4
		L260.2,40.1z M257.7,34.4l-1.4,0.1c-1,0.1-1.4,0.8-1.4,1.5c0,0.6,0.5,1.1,1.2,1.1c0.9,0,1.7-0.7,1.7-1.7V34.4z"/>
	<path d="M271.2,31.9c-0.2-0.1-0.8-0.3-1.1-0.3c-1.2,0-2.3,0.6-2.3,2.5v5.5h-3.8V27.8h3.8v2.6h0c0.4-1.8,1.8-2.8,3.4-2.8
		c0.4,0,0.8,0.1,1.1,0.2L271.2,31.9z"/>
	<path d="M281.4,40.1c-0.7-0.2-1.5-0.7-1.8-1.6c-0.5,1-1.6,1.4-3.1,1.4c-2.1,0-3.9-1.5-3.9-3.9c0-2.2,1.7-3.6,4-3.8L279,32v-0.4
		c0-0.7-0.6-1.2-1.8-1.2c-1.1,0-2.4,0.4-3.3,0.9l-0.7-2.9c1-0.6,2.6-1,4.1-1c3.1,0,5.3,1.4,5.3,4.3v3.8c0,1.4,0.5,2.1,1.4,2.4
		L281.4,40.1z M279,34.4l-1.4,0.1c-1,0.1-1.4,0.8-1.4,1.5c0,0.6,0.5,1.1,1.2,1.1c0.9,0,1.7-0.7,1.7-1.7V34.4z"/>
	<path d="M292.6,39.6v-7.2c0-0.9-0.6-1.6-1.7-1.6c-1.1,0-1.9,0.7-1.9,1.7v7.2h-3.8V27.8h3.5v1.6h0c0.5-1.2,1.7-2,3.6-2
		c2.6,0,4.1,1.5,4.1,4v8.2H292.6z"/>
	<path d="M306.2,30.9h-3.1v4.4c0,1,0.5,1.4,1.6,1.4c0.4,0,0.7,0,1-0.2l-0.3,2.9c-0.4,0.2-1,0.3-1.8,0.3c-2.7,0-4.2-1.4-4.2-3.7v-5.1
		h-2v-3.1h2v-2.5l3.8-1.4v3.9h3.8L306.2,30.9z"/>
	<path d="M318.5,33l-1.7,1.7h-5.8c0.2,1,1.5,2.1,3.5,2.1c1.2,0,2.5-0.4,3.2-0.9l-0.4,3.3c-0.9,0.5-2.2,0.8-3.7,0.8
		c-3.6,0-6.5-2.5-6.5-6.3c0-3.8,2.8-6.2,6.1-6.2c3.3,0,5.3,2.3,5.3,4.7C318.6,32.4,318.6,32.8,318.5,33z M313.4,30.3
		c-1.1,0-2.1,0.9-2.3,1.9h4c0-0.1,0-0.2,0-0.3C315.1,31.1,314.4,30.3,313.4,30.3z"/>
	<path d="M331,33l-1.7,1.7h-5.8c0.2,1,1.5,2.1,3.5,2.1c1.2,0,2.5-0.4,3.2-0.9l-0.4,3.3c-0.9,0.5-2.2,0.8-3.7,0.8
		c-3.6,0-6.5-2.5-6.5-6.3c0-3.8,2.8-6.2,6.1-6.2c3.3,0,5.3,2.3,5.3,4.7C331.1,32.4,331,32.8,331,33z M325.8,30.3
		c-1.1,0-2.1,0.9-2.3,1.9h4c0-0.1,0-0.2,0-0.3C327.5,31.1,326.8,30.3,325.8,30.3z"/>
	<path d="M341.4,39.6v-1.5h0c-0.6,1.2-2,1.8-3.6,1.8c-2.9,0-5.7-2.2-5.7-6.2c0-3.8,2.7-6.3,6-6.3c1.2,0,2.5,0.4,3,0.8v-7.2h3.7v18.5
		H341.4z M341.1,31.9c-0.4-0.5-1.1-1.1-2.3-1.1c-1.7,0-2.8,1.3-2.8,3s1.2,3,2.8,3c1.1,0,1.9-0.6,2.3-1.2V31.9z"/>
	<path d="M367,39.6v-7.2c0-0.9-0.4-1.6-1.7-1.6c-1.2,0-1.8,0.7-1.8,1.7v7.2h-3.8v-7.2c0-0.9-0.4-1.6-1.7-1.6c-1.2,0-1.8,0.7-1.8,1.7
		v7.2h-3.8V27.8h3.5v1.6h0c0.5-1.2,1.6-2,3.5-2c1.7,0,3,0.7,3.5,1.9c0.5-1.1,1.9-1.9,3.6-1.9c2.7,0,4.2,1.5,4.2,4v8.2H367z"/>
	<path d="M378.9,40c-3.6,0-6.4-2.5-6.4-6.3s2.9-6.3,6.4-6.3c3.5,0,6.4,2.5,6.4,6.3S382.5,40,378.9,40z M378.9,30.7
		c-1.4,0-2.7,1.2-2.7,3c0,1.7,1.2,3,2.7,3c1.4,0,2.7-1.2,2.7-3C381.6,32,380.3,30.7,378.9,30.7z"/>
	<path d="M394.4,39.6v-7.2c0-0.9-0.6-1.6-1.7-1.6c-1.1,0-1.9,0.7-1.9,1.7v7.2H387V27.8h3.5v1.6h0c0.5-1.2,1.7-2,3.6-2
		c2.6,0,4.1,1.5,4.1,4v8.2H394.4z"/>
	<path d="M408.1,30.9H405v4.4c0,1,0.5,1.4,1.6,1.4c0.4,0,0.7,0,1-0.2l-0.3,2.9c-0.4,0.2-1,0.3-1.8,0.3c-2.7,0-4.2-1.4-4.2-3.7v-5.1
		h-2v-3.1h2v-2.5l3.8-1.4v3.9h3.8L408.1,30.9z"/>
	<path d="M417.4,39.6v-7.2c0-0.9-0.6-1.6-1.8-1.6c-1.1,0-1.8,0.7-1.8,1.7v7.2h-3.8V21.1h3.8v7.8h0c0.6-0.9,1.7-1.5,3.3-1.5
		c2.6,0,4.1,1.5,4.1,4v8.2H417.4z"/>
	<path d="M427.4,40.1c-2.4-0.1-4-1.4-4-4.2V21.1h3.8v14.3c0,1,0.5,1.5,1.6,1.6L427.4,40.1z"/>
	<path d="M436.7,38.4c-1.8,4.7-3.7,6.4-5.9,7.3l-2.3-2.3c1.9-0.7,3.4-2.1,4.3-4.6l-4.2-11h3.7l1.7,4.6c0.3,0.7,0.5,1.5,0.7,2.3h0.1
		c0.2-0.8,0.5-1.6,0.8-2.3l1.7-4.6h3.5L436.7,38.4z"/>
</g>
<g>
	<path d="M183.2,52.2c-0.7,0-2.1-1.4-2.1-2.1c0-0.7,1.4-2,2.1-2c0.7,0,2.1,1.4,2.1,2C185.3,50.8,183.9,52.2,183.2,52.2z M181.3,65.6
		V53.8h3.8v11.8H181.3z"/>
	<path d="M194.8,65.6v-7.2c0-0.9-0.6-1.6-1.7-1.6c-1.1,0-1.9,0.7-1.9,1.7v7.2h-3.8V53.8h3.5v1.6h0c0.5-1.2,1.7-2,3.6-2
		c2.6,0,4.1,1.5,4.1,4v8.2H194.8z"/>
	<path d="M209.7,57.6c-0.8-0.5-1.6-0.8-2.5-0.8c-1.7,0-3,1.2-3,2.9c0,1.7,1.3,2.9,3.1,2.9c1,0,1.7-0.2,2.6-0.7l-0.3,3.2
		c-0.8,0.4-1.8,0.6-2.9,0.6c-3.3,0-6.4-2.3-6.4-6.1c0-3.8,3.1-6.2,6.3-6.2c1.6,0,2.8,0.3,3.9,0.9L209.7,57.6z"/>
	<path d="M217.7,66c-3.6,0-6.4-2.5-6.4-6.3s2.9-6.3,6.4-6.3c3.5,0,6.4,2.5,6.4,6.3S221.2,66,217.7,66z M217.7,56.8
		c-1.4,0-2.7,1.2-2.7,3c0,1.7,1.2,3,2.7,3c1.4,0,2.7-1.2,2.7-3C220.3,58,219.1,56.8,217.7,56.8z"/>
	<path d="M240.2,65.6v-7.2c0-0.9-0.4-1.6-1.7-1.6c-1.2,0-1.8,0.7-1.8,1.7v7.2H233v-7.2c0-0.9-0.4-1.6-1.7-1.6
		c-1.2,0-1.8,0.7-1.8,1.7v7.2h-3.8V53.8h3.5v1.6h0c0.5-1.2,1.6-2,3.5-2c1.7,0,3,0.7,3.5,1.9c0.5-1.1,1.9-1.9,3.6-1.9
		c2.7,0,4.2,1.5,4.2,4v8.2H240.2z"/>
	<path d="M257,59l-1.7,1.7h-5.8c0.2,1,1.5,2.1,3.5,2.1c1.2,0,2.5-0.4,3.2-0.9l-0.4,3.3c-0.9,0.5-2.2,0.8-3.7,0.8
		c-3.6,0-6.5-2.5-6.5-6.3c0-3.8,2.8-6.2,6.1-6.2c3.3,0,5.3,2.3,5.3,4.7C257.1,58.4,257.1,58.8,257,59z M251.9,56.3
		c-1.1,0-2.1,0.9-2.3,1.9h4c0-0.1,0-0.2,0-0.3C253.6,57.1,252.9,56.3,251.9,56.3z"/>
	<path d="M272.5,50.5c-0.4-0.2-1.1-0.3-1.5-0.3c-1.4,0-2.1,0.8-2.1,2.5v1.1h3.4l-0.8,3.1h-2.6v8.7h-3.7v-8.7h-1.8v-3.1h1.8v-1.4
		c0-3.6,2.3-5.4,5.3-5.4c1.1,0,2.2,0.1,2.8,0.4L272.5,50.5z"/>
	<path d="M278.9,66c-3.6,0-6.4-2.5-6.4-6.3s2.9-6.3,6.4-6.3c3.5,0,6.4,2.5,6.4,6.3S282.4,66,278.9,66z M278.9,56.8
		c-1.4,0-2.7,1.2-2.7,3c0,1.7,1.2,3,2.7,3c1.4,0,2.7-1.2,2.7-3C281.6,58,280.3,56.8,278.9,56.8z"/>
	<path d="M294.3,57.9c-0.2-0.1-0.8-0.3-1.1-0.3c-1.2,0-2.3,0.6-2.3,2.5v5.5H287V53.8h3.8v2.6h0c0.4-1.8,1.8-2.8,3.4-2.8
		c0.4,0,0.8,0.1,1.1,0.2L294.3,57.9z"/>
	<path d="M306,66.1c-2.4-0.1-4-1.4-4-4.2V47.1h3.8v14.3c0,1,0.5,1.5,1.6,1.6L306,66.1z"/>
	<path d="M310.5,52.2c-0.7,0-2.1-1.4-2.1-2.1c0-0.7,1.4-2,2.1-2c0.7,0,2.1,1.4,2.1,2C312.6,50.8,311.2,52.2,310.5,52.2z M308.6,65.6
		V53.8h3.8v11.8H308.6z"/>
	<path d="M322.9,50.5c-0.4-0.2-1.1-0.3-1.5-0.3c-1.4,0-2.1,0.8-2.1,2.5v1.1h3.4l-0.8,3.1h-2.6v8.7h-3.7v-8.7h-1.8v-3.1h1.8v-1.4
		c0-3.6,2.3-5.4,5.3-5.4c1.1,0,2.2,0.1,2.8,0.4L322.9,50.5z"/>
	<path d="M334.2,59l-1.7,1.7h-5.8c0.2,1,1.5,2.1,3.5,2.1c1.2,0,2.5-0.4,3.2-0.9l-0.4,3.3c-0.9,0.5-2.2,0.8-3.7,0.8
		c-3.6,0-6.5-2.5-6.5-6.3c0-3.8,2.8-6.2,6.1-6.2c3.3,0,5.3,2.3,5.3,4.7C334.3,58.4,334.2,58.8,334.2,59z M329,56.3
		c-1.1,0-2.1,0.9-2.3,1.9h4c0-0.1,0-0.2,0-0.3C330.7,57.1,330,56.3,329,56.3z"/>
	<path d="M337.4,66c-0.7,0-2.2-1.5-2.2-2.2c0-0.7,1.5-2.1,2.2-2.1c0.7,0,2.2,1.5,2.2,2.1C339.6,64.5,338.1,66,337.4,66z"/>
</g>
</svg>
