<?xml version="1.0" encoding="utf-8"?>
<!-- Generator: Adobe Illustrator 22.1.0, SVG Export Plug-In . SVG Version: 6.00 Build 0)  -->
<svg version="1.1" id="Layer_1" xmlns="http://www.w3.org/2000/svg" xmlns:xlink="http://www.w3.org/1999/xlink" x="0px" y="0px"
	 viewBox="0 0 728 90" style="enable-background:new 0 0 728 90;" xml:space="preserve">
<style type="text/css">
	.st0{fill:#F9E038;}
</style>
<path class="st0" d="M543.5,11c0,0-10.3,0-10.3,10.3v9c0,0,0,10.3,10.3,10.3h89.3c0,0,10.3,0,10.3-10.3v-9c0,0,0-10.3-10.3-10.3
	H543.5z"/>
<g>
	<path d="M547.3,24.3c0-0.9-0.3-1.7-1.3-1.7c-1.3,0-1.4,1.7-1.4,2.7c0,1.1,0.1,2.5,1.5,2.5c0.9,0,1.3-0.7,1.4-1.5l1.8,0.1
		c-0.2,1.8-1.5,2.9-3.3,2.9c-2.4,0-3.5-1.9-3.5-4.1c0-2.2,1.2-4.1,3.6-4.1c2,0,3,1.2,3.2,3.1L547.3,24.3z"/>
	<path d="M557.1,29.1h-2l-0.5-1.6H552l-0.5,1.6h-1.6l2.6-8h2.2L557.1,29.1z M554.2,26l-0.9-2.8l-0.8,2.8H554.2z"/>
	<path d="M563,27.6v1.6h-5.1v-8h1.9v6.4H563z"/>
	<path d="M568.3,24.3c0-0.9-0.3-1.7-1.3-1.7c-1.3,0-1.4,1.7-1.4,2.7c0,1.1,0.1,2.5,1.5,2.5c0.9,0,1.3-0.7,1.4-1.5l1.8,0.1
		c-0.2,1.8-1.5,2.9-3.3,2.9c-2.4,0-3.5-1.9-3.5-4.1c0-2.2,1.2-4.1,3.6-4.1c2,0,3,1.2,3.2,3.1L568.3,24.3z"/>
	<path d="M577.7,26c0,0.9,0,1.8-0.7,2.4c-0.6,0.6-1.6,0.8-2.5,0.8c-0.8,0-1.8-0.1-2.4-0.7c-0.8-0.7-0.8-1.6-0.8-2.6v-4.8h2V26
		c0,0.4,0,0.9,0.2,1.2c0.2,0.4,0.7,0.5,1.2,0.5c0.4,0,0.9-0.1,1.2-0.4c0.3-0.4,0.2-0.9,0.2-1.3v-4.8h1.6V26z"/>
	<path d="M584.2,27.6v1.6h-5.1v-8h1.9v6.4H584.2z"/>
	<path d="M591.6,29.1h-2l-0.5-1.6h-2.6l-0.5,1.6h-1.6l2.6-8h2.2L591.6,29.1z M588.6,26l-0.9-2.8l-0.8,2.8H588.6z"/>
	<path d="M597,22.7h-2v6.4h-1.9v-6.4h-2v-1.6h5.9V22.7z"/>
	<path d="M599.8,22.7v1.6h3v1.5h-3v1.8h3.8v1.5H598v-8h5.7v1.5H599.8z"/>
	<path d="M614.4,29.1h-1.6l-3.1-5.4h0v5.4h-1.4v-8h2l2.7,4.7h0v-4.7h1.4V29.1z"/>
	<path d="M616.4,28c-0.6-0.8-0.8-1.9-0.8-2.9c0-2.1,1.1-4.1,3.4-4.1c1.1,0,1.9,0.3,2.5,1.2c0.6,0.8,0.9,1.9,0.9,2.9
		c0,0.9-0.2,2-0.8,2.8c-0.6,0.9-1.6,1.4-2.6,1.4C617.9,29.3,617,28.9,616.4,28z M617.8,23.5c-0.2,0.5-0.3,1.2-0.3,1.7
		c0,1,0.2,2.6,1.5,2.6c0.6,0,1-0.3,1.2-0.9c0.2-0.5,0.2-1.2,0.2-1.7c0-0.6-0.1-1.3-0.3-1.8c-0.2-0.5-0.6-0.8-1.2-0.8
		C618.4,22.6,618,22.9,617.8,23.5z"/>
	<path d="M631,29.1h-1.8l-1.3-5.3h0l-1.3,5.3h-1.8l-2.1-8h1.9l1.2,5.4h0l1.3-5.4h1.7l1.3,5.4h0l0.1-0.3l1.2-5h1.5L631,29.1z"/>
</g>
</svg>
