<?xml version="1.0" encoding="utf-8"?>
<!-- Generator: Adobe Illustrator 22.1.0, SVG Export Plug-In . SVG Version: 6.00 Build 0)  -->
<svg version="1.1" id="Layer_1" xmlns="http://www.w3.org/2000/svg" xmlns:xlink="http://www.w3.org/1999/xlink" x="0px" y="0px"
	 viewBox="0 0 728 90" style="enable-background:new 0 0 728 90;" xml:space="preserve">
<style type="text/css">
	.st0{fill:#005C97;}
	.st1{clip-path:url(#SVGID_2_);fill:#FFFFFF;}
	.st2{clip-path:url(#SVGID_4_);fill:url(#SVGID_5_);}
	.st3{clip-path:url(#SVGID_7_);fill:url(#SVGID_8_);}
	.st4{clip-path:url(#SVGID_10_);fill:url(#SVGID_11_);}
</style>
<path class="st0" d="M587.2,56.5v3.6h-6.4v17.2h-4V60.1h-6.4v-3.6H587.2z M589,77.3h4V66.9V56.5h-4v10.4V77.3z M613.8,77.3h-4.1
	l-2.1-5.1h-7l-2.1,5.1h-4l8.9-21.1h1.8L613.8,77.3z M633.2,77.3h-4.1l-2.1-5.1h-7l-2.1,5.1h-4l8.9-21.1h1.8L633.2,77.3z M606.1,68.8
	l-2.1-5.2l-2.1,5.2H606.1z M625.6,68.8l-2.1-5.2l-2.1,5.2H625.6z"/>
<g>
	<defs>
		<rect id="SVGID_1_" x="536.6" y="48" width="102" height="34.7"/>
	</defs>
	<clipPath id="SVGID_2_">
		<use xlink:href="#SVGID_1_"  style="overflow:visible;"/>
	</clipPath>
	<path class="st1" d="M555.9,78.7c1.8,0,3.4-0.7,4.6-1.9l4.9-4.9c1.1-1.2,1.8-2.7,1.9-4.5V52H552c-1.8,0-3.4,0.7-4.6,1.9l-4.9,4.9
		c-1.1,1.2-1.8,2.7-1.9,4.5v15.3H555.9z"/>
</g>
<g>
	<defs>
		<path id="SVGID_3_" d="M553.7,53.4c-2.8,0-5,2.2-5,5v1.7h10.5v10.5h1.7c2.8,0,5-2.3,5-5V53.4H553.7z"/>
	</defs>
	<clipPath id="SVGID_4_">
		<use xlink:href="#SVGID_3_"  style="overflow:visible;"/>
	</clipPath>
	
		<linearGradient id="SVGID_5_" gradientUnits="userSpaceOnUse" x1="1" y1="91.0835" x2="2" y2="91.0835" gradientTransform="matrix(11.9789 -11.9789 -11.9789 -11.9789 1633.0461 1168.4082)">
		<stop  offset="0" style="stop-color:#9CDBF8"/>
		<stop  offset="0.1" style="stop-color:#9CDBF8"/>
		<stop  offset="0.9" style="stop-color:#009DDA"/>
		<stop  offset="1" style="stop-color:#009DDA"/>
	</linearGradient>
	<polygon class="st2" points="540.1,62 557.3,44.8 574.5,62 557.3,79.2 	"/>
</g>
<g>
	<defs>
		<path id="SVGID_6_" d="M560.9,71.9h-13.5l-5.4,5.4h14c1.4,0,2.6-0.5,3.6-1.5l4.5-4.5l-0.1-0.1C563,71.7,562,71.9,560.9,71.9"/>
	</defs>
	<clipPath id="SVGID_7_">
		<use xlink:href="#SVGID_6_"  style="overflow:visible;"/>
	</clipPath>
	
		<linearGradient id="SVGID_8_" gradientUnits="userSpaceOnUse" x1="0.9547" y1="91.0453" x2="1.9547" y2="91.0453" gradientTransform="matrix(22.0851 0 0 -22.0851 520.8942 2084.988)">
		<stop  offset="0" style="stop-color:#18B0E6"/>
		<stop  offset="0.1617" style="stop-color:#16AAE1"/>
		<stop  offset="0.3752" style="stop-color:#129AD2"/>
		<stop  offset="0.6174" style="stop-color:#0B7EB9"/>
		<stop  offset="0.8793" style="stop-color:#015897"/>
		<stop  offset="0.9" style="stop-color:#005594"/>
		<stop  offset="1" style="stop-color:#005594"/>
	</linearGradient>
	<rect x="542" y="71.2" class="st3" width="22.1" height="6.2"/>
</g>
<g>
	<defs>
		<path id="SVGID_9_" d="M543.5,59.8c-1,1-1.5,2.2-1.5,3.6v14l5.4-5.4V58.4c0-1.1,0.3-2.2,0.8-3.1l-0.1-0.1L543.5,59.8z"/>
	</defs>
	<clipPath id="SVGID_10_">
		<use xlink:href="#SVGID_9_"  style="overflow:visible;"/>
	</clipPath>
	
		<linearGradient id="SVGID_11_" gradientUnits="userSpaceOnUse" x1="1.0453" y1="91.0453" x2="2.0453" y2="91.0453" gradientTransform="matrix(0 -22.0854 -22.0854 0 2555.8306 100.4102)">
		<stop  offset="0" style="stop-color:#0081BC"/>
		<stop  offset="0.4118" style="stop-color:#006EAB"/>
		<stop  offset="0.85" style="stop-color:#005594"/>
		<stop  offset="1" style="stop-color:#005594"/>
	</linearGradient>
	<rect x="542" y="55.2" class="st4" width="6.2" height="22.1"/>
</g>
</svg>
