<svg xmlns="http://www.w3.org/2000/svg" width="320" height="50" viewBox="0 0 320 50"><style>.st0{fill:url(#SVGID_1_)}.st1{fill:url(#SVGID_2_)}.st2{fill:#231f20}</style><g id="Layer_1"><g id="Layer_2_1_"><g id="Layer_3"><g id="Layer_2_2_"><radialGradient id="SVGID_1_" cx="667.009" cy="-2634.538" r="63.316" gradientTransform="matrix(2.3209 0 0 -.1631 -1447.137 -413.688)" gradientUnits="userSpaceOnUse"><stop offset=".272" stop-color="#00c2ff" stop-opacity=".9"/><stop offset=".76" stop-color="#00c2ff" stop-opacity="0"/></radialGradient><path class="st0" d="M-25.771-13.032h353.492v69.479H-25.771z"/></g></g></g><g id="Layer_2_3_"><g id="Layer_3_1_"><g id="Layer_2_4_"><radialGradient id="SVGID_2_" cx="667.511" cy="-2734.933" r="63.316" gradientTransform="matrix(2.0991 0 0 -.1631 -1311.189 -414.13)" gradientUnits="userSpaceOnUse"><stop offset=".272" stop-color="#00c2ff" stop-opacity=".9"/><stop offset=".76" stop-color="#00c2ff" stop-opacity="0"/></radialGradient><path class="st1" d="M-24.604 2.9h319.71v69.479h-319.71z"/></g></g></g></g><g id="Layer_2"><path class="st2" d="M26.493 14.339c-.42-.252-1.106-.462-1.849-.462-1.583 0-2.857 1.064-2.857 2.717 0 1.639 1.261 2.731 2.956 2.731.743 0 1.401-.14 1.863-.392l-.182 1.891c-.477.224-1.121.336-2.031.336-2.311 0-4.791-1.569-4.791-4.594 0-3.026 2.493-4.608 4.791-4.608 1.106 0 1.975.238 2.507.546l-.407 1.835zM30.985 21.231c-1.919 0-3.459-1.359-3.459-3.376s1.541-3.376 3.459-3.376c1.905 0 3.46 1.359 3.46 3.376s-1.555 3.376-3.46 3.376zm0-4.959c-.77 0-1.429.672-1.429 1.611s.659 1.611 1.429 1.611c.757 0 1.429-.672 1.429-1.611s-.672-1.611-1.429-1.611zM39.498 21.035v-3.894c0-.462-.308-.869-.938-.869-.616 0-1.009.392-1.009.896v3.866h-2.059v-6.345h1.891v.854h.014c.252-.673.91-1.051 1.933-1.051 1.387 0 2.227.784 2.227 2.129v4.413h-2.059zM44.915 21.175c-.869 0-1.499-.182-2.017-.448l-.182-1.821c.561.393 1.289.687 1.989.687.378 0 .616-.196.616-.434 0-.266-.21-.378-.574-.49-1.219-.35-1.947-.967-1.947-2.073 0-1.247 1.009-2.045 2.381-2.045.785 0 1.555.21 1.877.378l-.35 1.513c-.308-.168-.812-.351-1.317-.351-.336 0-.56.154-.56.406 0 .238.168.364.56.462 1.429.378 2.017 1.093 2.017 2.157 0 1.078-.784 2.059-2.493 2.059zM51.579 21.231c-1.919 0-3.459-1.359-3.459-3.376s1.541-3.376 3.459-3.376c1.905 0 3.46 1.359 3.46 3.376s-1.555 3.376-3.46 3.376zm0-4.959c-.77 0-1.429.672-1.429 1.611s.659 1.611 1.429 1.611c.757 0 1.429-.672 1.429-1.611s-.673-1.611-1.429-1.611zM58.256 21.287c-1.303-.056-2.171-.728-2.171-2.255v-7.97h2.031v7.718c0 .519.294.799.854.841l-.714 1.666zM60.888 13.821c-.364 0-1.107-.743-1.107-1.106 0-.364.743-1.093 1.107-1.093s1.106.729 1.106 1.093c0 .363-.743 1.106-1.106 1.106zm-1.037 7.214V14.69h2.073v6.345h-2.073zM68.015 21.035v-.785h-.014c-.351.645-1.079.967-1.961.967-1.555 0-3.053-1.177-3.053-3.348 0-2.045 1.457-3.376 3.222-3.376.672 0 1.358.224 1.611.434v-3.866h2.003v9.973h-1.808zm-.196-4.16c-.196-.266-.617-.574-1.247-.574-.896 0-1.527.7-1.527 1.611 0 .91.63 1.611 1.527 1.611.602 0 1.022-.322 1.247-.659v-1.989zM75.659 21.315c-.378-.084-.812-.378-.98-.84-.28.518-.882.77-1.653.77-1.121 0-2.115-.784-2.115-2.101 0-1.163.911-1.947 2.171-2.073l1.261-.126v-.21c0-.378-.308-.63-.994-.63-.617 0-1.303.196-1.765.49l-.364-1.555c.518-.336 1.387-.561 2.227-.561 1.681 0 2.872.771 2.872 2.297v2.073c0 .742.28 1.134.771 1.316l-1.431 1.15zm-1.317-3.054l-.771.07c-.532.042-.77.42-.77.799 0 .336.252.616.644.616.49 0 .896-.378.896-.925v-.56zM81.931 16.37h-1.653v2.354c0 .546.294.77.84.77.238 0 .378-.014.533-.084l-.182 1.555c-.196.098-.546.168-.953.168-1.429 0-2.283-.756-2.283-2.017V16.37h-1.064v-1.681h1.064V13.33l2.045-.743v2.102h2.045l-.392 1.681zM84.127 13.821c-.364 0-1.107-.743-1.107-1.106 0-.364.743-1.093 1.107-1.093s1.106.729 1.106 1.093c.001.363-.742 1.106-1.106 1.106zm-1.036 7.214V14.69h2.073v6.345h-2.073zM90.541 21.035v-3.894c0-.462-.308-.869-.938-.869-.616 0-1.009.392-1.009.896v3.866h-2.059v-6.345h1.891v.854h.014c.252-.673.91-1.051 1.933-1.051 1.387 0 2.227.784 2.227 2.129v4.413h-2.059zM96.602 24.271c-1.849 0-3.082-1.051-3.082-2.381 0-.966.644-1.541 1.303-1.709l-.812-.812c.056-.406.406-.756.771-.911a1.994 1.994 0 0 1-.925-1.695c0-1.345.967-2.283 2.62-2.283.378 0 .672.056.938.126.28.07.588.112.911.112.35 0 .714-.084.995-.21l.378 1.569a1.55 1.55 0 0 1-.784.196c.07.126.154.42.154.645 0 1.064-.84 1.961-2.073 2.045-.252.014-.42.07-.42.238 0 .07.056.154.168.196l.98.35c1.247.448 1.919 1.079 1.919 2.241-.001 1.302-1.192 2.283-3.041 2.283zm.434-2.984l-.756-.21c-.49.014-.854.364-.854.827 0 .434.378.798 1.121.798.729 0 1.121-.336 1.121-.701-.001-.294-.226-.602-.632-.714zm-.56-5.309c-.462 0-.812.35-.812.756 0 .42.35.756.812.756.448 0 .812-.336.812-.756.001-.406-.336-.756-.812-.756zM108.167 21.315c-.378-.084-.812-.378-.98-.84-.28.518-.883.77-1.653.77-1.121 0-2.115-.784-2.115-2.101 0-1.163.911-1.947 2.171-2.073l1.261-.126v-.21c0-.378-.308-.63-.995-.63-.616 0-1.302.196-1.765.49l-.364-1.555c.518-.336 1.387-.561 2.227-.561 1.681 0 2.872.771 2.872 2.297v2.073c0 .742.28 1.134.771 1.316l-1.43 1.15zm-1.317-3.054l-.77.07c-.533.042-.771.42-.771.799 0 .336.252.616.644.616.49 0 .896-.378.896-.925v-.56zM115.041 16.734a2.454 2.454 0 0 0-1.359-.406c-.896 0-1.611.645-1.611 1.569 0 .911.714 1.569 1.653 1.569.532 0 .938-.112 1.387-.35l-.182 1.751c-.42.196-.966.308-1.555.308-1.779 0-3.432-1.261-3.432-3.306 0-2.073 1.667-3.32 3.39-3.32.84 0 1.527.168 2.087.476l-.378 1.709zM121.172 16.734a2.454 2.454 0 0 0-1.359-.406c-.896 0-1.611.645-1.611 1.569 0 .911.714 1.569 1.653 1.569.532 0 .938-.112 1.387-.35l-.182 1.751c-.42.196-.966.308-1.555.308-1.779 0-3.432-1.261-3.432-3.306 0-2.073 1.667-3.32 3.39-3.32.84 0 1.527.168 2.087.476l-.378 1.709zM125.665 21.231c-1.919 0-3.459-1.359-3.459-3.376s1.541-3.376 3.459-3.376c1.905 0 3.46 1.359 3.46 3.376s-1.555 3.376-3.46 3.376zm0-4.959c-.77 0-1.429.672-1.429 1.611s.659 1.611 1.429 1.611c.756 0 1.429-.672 1.429-1.611s-.673-1.611-1.429-1.611zM134.332 21.035v-.869h-.014c-.252.672-.924 1.051-1.947 1.051-1.387 0-2.228-.771-2.228-2.115V14.69h2.059v3.894c0 .462.322.868.953.868.616 0 .995-.406.995-.91V14.69h2.059v6.345h-1.877zM141.556 21.035v-3.894c0-.462-.308-.869-.938-.869-.616 0-1.009.392-1.009.896v3.866h-2.059v-6.345h1.891v.854h.014c.252-.673.91-1.051 1.933-1.051 1.387 0 2.227.784 2.227 2.129v4.413h-2.059zM149.102 16.37h-1.653v2.354c0 .546.294.77.84.77.238 0 .378-.014.533-.084l-.182 1.555c-.196.098-.546.168-.953.168-1.429 0-2.283-.756-2.283-2.017V16.37h-1.064v-1.681h1.064V13.33l2.045-.743v2.102h2.045l-.392 1.681zM152.194 21.175c-.868 0-1.499-.182-2.017-.448l-.182-1.821c.561.393 1.289.687 1.989.687.379 0 .616-.196.616-.434 0-.266-.21-.378-.574-.49-1.218-.35-1.947-.967-1.947-2.073 0-1.247 1.008-2.045 2.381-2.045.784 0 1.555.21 1.877.378l-.351 1.513c-.308-.168-.812-.351-1.316-.351-.336 0-.561.154-.561.406 0 .238.169.364.561.462 1.429.378 2.018 1.093 2.018 2.157 0 1.078-.785 2.059-2.494 2.059zM166.646 21.035v-3.894c0-.462-.225-.869-.896-.869-.658 0-.952.392-.952.896v3.866h-2.06V17.14c0-.462-.224-.869-.896-.869-.658 0-.953.392-.953.896v3.866h-2.06v-6.345h1.905v.854h.014c.252-.673.883-1.051 1.877-1.051.911 0 1.597.364 1.877 1.037.267-.616 1.009-1.037 1.961-1.037 1.443 0 2.241.784 2.241 2.129v4.413h-2.058zM174.512 21.315c-.378-.084-.812-.378-.98-.84-.279.518-.882.77-1.652.77-1.121 0-2.115-.784-2.115-2.101 0-1.163.91-1.947 2.171-2.073l1.261-.126v-.21c0-.378-.308-.63-.994-.63-.616 0-1.303.196-1.766.49l-.364-1.555c.519-.336 1.388-.561 2.228-.561 1.681 0 2.872.771 2.872 2.297v2.073c0 .742.279 1.134.771 1.316l-1.432 1.15zm-1.317-3.054l-.771.07c-.532.042-.771.42-.771.799 0 .336.253.616.645.616.49 0 .896-.378.896-.925v-.56z"/><path class="st2" d="M180.237 20.404c-.967 2.549-1.975 3.474-3.166 3.936l-1.261-1.261c1.022-.392 1.808-1.134 2.325-2.479l-2.283-5.911h1.989l.925 2.465c.14.364.28.798.378 1.247h.028c.126-.435.266-.883.406-1.247l.925-2.465h1.891l-2.157 5.715z"/><g><path class="st2" d="M24.266 35.314c-.378-.084-.812-.378-.98-.841-.28.519-.883.771-1.653.771-1.121 0-2.115-.784-2.115-2.101 0-1.163.911-1.947 2.171-2.073l1.261-.126v-.21c0-.379-.308-.631-.995-.631-.616 0-1.302.196-1.765.49l-.364-1.555c.518-.336 1.387-.561 2.227-.561 1.681 0 2.872.771 2.872 2.298v2.072c0 .743.28 1.135.771 1.317l-1.43 1.15zm-1.317-3.053l-.77.07c-.533.042-.771.42-.771.798 0 .336.252.616.644.616.49 0 .896-.378.896-.924v-.56zM31.126 30.734a2.446 2.446 0 0 0-1.359-.406c-.896 0-1.611.645-1.611 1.568 0 .91.714 1.568 1.653 1.568.532 0 .938-.111 1.387-.35l-.182 1.751c-.42.196-.966.308-1.555.308-1.779 0-3.432-1.26-3.432-3.306 0-2.072 1.667-3.319 3.39-3.319.84 0 1.527.168 2.087.477l-.378 1.709zM36.558 35.034V31.14c0-.463-.322-.869-.953-.869-.616 0-.995.393-.995.896v3.866h-2.059v-9.974h2.031v4.217h.014c.322-.49.911-.784 1.793-.784 1.401 0 2.228.784 2.228 2.129v4.412h-2.059zM41.008 27.82c-.364 0-1.107-.742-1.107-1.106s.743-1.093 1.107-1.093 1.106.729 1.106 1.093-.742 1.106-1.106 1.106zm-1.037 7.214v-6.345h2.073v6.345h-2.073zM49.186 31.504l-.911.925h-3.109c.098.519.798 1.106 1.877 1.106.658 0 1.331-.196 1.751-.476l-.196 1.765c-.476.252-1.205.42-2.017.42-1.933 0-3.488-1.345-3.488-3.418 0-2.045 1.485-3.348 3.306-3.348 1.765 0 2.844 1.219 2.844 2.536a2.7 2.7 0 0 1-.057.49zm-2.788-1.484c-.602 0-1.106.463-1.232 1.037h2.143c0-.042.014-.084.014-.141a.927.927 0 0 0-.925-.896zM53.539 35.09h-1.541l-2.437-6.4h1.989l.896 2.423c.126.336.252.812.351 1.232h.028c.098-.406.238-.896.364-1.232l.896-2.423h1.905l-2.451 6.4zM62.29 31.504l-.911.925H58.27c.098.519.798 1.106 1.877 1.106.658 0 1.331-.196 1.751-.476l-.196 1.765c-.476.252-1.205.42-2.017.42-1.933 0-3.488-1.345-3.488-3.418 0-2.045 1.485-3.348 3.306-3.348 1.765 0 2.844 1.219 2.844 2.536a2.7 2.7 0 0 1-.057.49zm-2.788-1.484c-.602 0-1.106.463-1.232 1.037h2.143c0-.042.014-.084.014-.141a.927.927 0 0 0-.925-.896zM68.546 35.174c-.869 0-1.499-.182-2.017-.448l-.182-1.82c.561.392 1.289.687 1.989.687.378 0 .616-.196.616-.435 0-.267-.21-.378-.574-.49-1.219-.351-1.947-.967-1.947-2.073 0-1.246 1.009-2.045 2.381-2.045.785 0 1.555.21 1.877.378l-.35 1.513c-.308-.168-.812-.35-1.317-.35-.336 0-.56.154-.56.406 0 .238.168.364.56.462 1.429.378 2.017 1.093 2.017 2.157 0 1.077-.784 2.058-2.493 2.058zM75.21 35.23c-1.919 0-3.459-1.359-3.459-3.376s1.541-3.376 3.459-3.376c1.905 0 3.46 1.359 3.46 3.376s-1.555 3.376-3.46 3.376zm0-4.959c-.77 0-1.429.673-1.429 1.611s.659 1.61 1.429 1.61c.756 0 1.429-.672 1.429-1.61s-.673-1.611-1.429-1.611zM87.533 35.034V31.14c0-.463-.224-.869-.896-.869-.658 0-.953.393-.953.896v3.866h-2.059v-3.894c0-.463-.224-.869-.896-.869-.658 0-.953.393-.953.896v3.866h-2.059v-6.345h1.905v.854h.014c.252-.672.883-1.05 1.877-1.05.91 0 1.597.364 1.877 1.036.266-.616 1.008-1.036 1.961-1.036 1.443 0 2.241.784 2.241 2.129v4.412h-2.059zM96.744 31.504l-.911.925h-3.109c.098.519.798 1.106 1.877 1.106.658 0 1.331-.196 1.751-.476l-.196 1.765c-.476.252-1.205.42-2.017.42-1.933 0-3.488-1.345-3.488-3.418 0-2.045 1.485-3.348 3.306-3.348 1.765 0 2.844 1.219 2.844 2.536-.001.154-.03.364-.057.49zm-2.788-1.484c-.602 0-1.106.463-1.232 1.037h2.143c0-.042.014-.084.014-.141a.928.928 0 0 0-.925-.896zM102.132 30.37h-1.653v2.353c0 .547.294.771.84.771.238 0 .378-.014.532-.084l-.182 1.555c-.196.099-.546.168-.953.168-1.429 0-2.283-.756-2.283-2.017V30.37H97.37v-1.681h1.065V27.33l2.045-.742v2.102h2.045l-.393 1.68zM107.285 35.034V31.14c0-.463-.322-.869-.953-.869-.616 0-.995.393-.995.896v3.866h-2.059v-9.974h2.031v4.217h.014c.322-.49.911-.784 1.793-.784 1.401 0 2.228.784 2.228 2.129v4.412h-2.059zM111.735 27.82c-.364 0-1.107-.742-1.107-1.106s.743-1.093 1.107-1.093 1.106.729 1.106 1.093-.742 1.106-1.106 1.106zm-1.037 7.214v-6.345h2.073v6.345h-2.073zM118.148 35.034V31.14c0-.463-.308-.869-.938-.869-.616 0-1.009.393-1.009.896v3.866h-2.059v-6.345h1.891v.854h.014c.252-.672.91-1.05 1.933-1.05 1.387 0 2.227.784 2.227 2.129v4.412h-2.059zM124.209 38.27c-1.849 0-3.082-1.05-3.082-2.381 0-.967.644-1.541 1.303-1.709l-.812-.812c.056-.406.406-.756.771-.91a1.994 1.994 0 0 1-.925-1.695c0-1.345.967-2.283 2.62-2.283.378 0 .672.057.938.126.28.07.588.112.911.112.35 0 .714-.084.995-.21l.378 1.569a1.55 1.55 0 0 1-.784.195c.07.126.154.421.154.645 0 1.064-.84 1.961-2.073 2.045-.252.014-.42.07-.42.238 0 .07.056.154.168.196l.98.35c1.247.448 1.919 1.079 1.919 2.241-.001 1.302-1.191 2.283-3.041 2.283zm.435-2.984l-.756-.21c-.49.014-.854.364-.854.826 0 .435.378.799 1.121.799.729 0 1.121-.336 1.121-.7-.002-.294-.226-.603-.632-.715zm-.561-5.308c-.462 0-.812.351-.812.757 0 .42.35.756.812.756.448 0 .812-.336.812-.756.001-.407-.335-.757-.812-.757zM133.351 35.174c-.869 0-1.499-.182-2.017-.448l-.182-1.82c.561.392 1.289.687 1.989.687.378 0 .616-.196.616-.435 0-.267-.21-.378-.574-.49-1.219-.351-1.947-.967-1.947-2.073 0-1.246 1.009-2.045 2.381-2.045.785 0 1.555.21 1.877.378l-.35 1.513c-.308-.168-.812-.35-1.317-.35-.336 0-.56.154-.56.406 0 .238.168.364.56.462 1.429.378 2.017 1.093 2.017 2.157 0 1.077-.784 2.058-2.493 2.058zM143.728 35.09h-1.415l-.854-2.521a26.9 26.9 0 0 1-.378-1.316h-.028c-.098.477-.224.938-.351 1.303l-.854 2.535h-1.345l-2.213-6.4h1.877l.785 2.409c.112.363.238.812.308 1.218h.028c.07-.392.182-.854.308-1.218l.798-2.409h1.555l.798 2.395c.126.393.21.826.294 1.232h.028c.084-.406.196-.854.322-1.232l.799-2.395h1.751l-2.213 6.399zM152.323 31.504l-.91.925h-3.11c.098.519.798 1.106 1.877 1.106.658 0 1.331-.196 1.75-.476l-.195 1.765c-.477.252-1.205.42-2.018.42-1.933 0-3.488-1.345-3.488-3.418 0-2.045 1.485-3.348 3.306-3.348 1.765 0 2.843 1.219 2.843 2.536 0 .154-.027.364-.055.49zm-2.788-1.484c-.602 0-1.106.463-1.232 1.037h2.143c0-.042.014-.084.014-.141a.927.927 0 0 0-.925-.896zM159.182 31.504l-.91.925h-3.109c.098.519.798 1.106 1.877 1.106.658 0 1.331-.196 1.751-.476l-.196 1.765c-.477.252-1.205.42-2.017.42-1.934 0-3.488-1.345-3.488-3.418 0-2.045 1.484-3.348 3.306-3.348 1.765 0 2.844 1.219 2.844 2.536-.001.154-.03.364-.058.49zm-2.787-1.484c-.603 0-1.106.463-1.232 1.037h2.143c0-.042.015-.084.015-.141a.929.929 0 0 0-.926-.896zM164.572 30.37h-1.653v2.353c0 .547.294.771.841.771.238 0 .378-.014.532-.084l-.183 1.555c-.196.099-.546.168-.952.168-1.429 0-2.284-.756-2.284-2.017V30.37h-1.064v-1.681h1.064V27.33l2.045-.742v2.102h2.045l-.391 1.68zM166.572 35.23c-.378 0-1.162-.784-1.162-1.163 0-.364.784-1.148 1.162-1.148s1.163.784 1.163 1.148c0 .379-.785 1.163-1.163 1.163z"/></g></g></svg>