<svg xmlns="http://www.w3.org/2000/svg" width="320" height="50" viewBox="0 0 320 50"><style>.st0{fill:url(#SVGID_1_)}.st1{fill:#231f20}</style><g id="Layer_2"><g id="Layer_2_1_"><g id="Layer_3"><g id="Layer_2_2_"><radialGradient id="SVGID_1_" cx="654.901" cy="-2677.599" r="56.048" gradientTransform="matrix(2.6752 0 0 -.1631 -1663.407 -414.457)" gradientUnits="userSpaceOnUse"><stop offset=".272" stop-color="#00c2ff" stop-opacity=".9"/><stop offset=".76" stop-color="#00c2ff" stop-opacity="0"/></radialGradient><path class="st0" d="M-40.683-3.445H320v61.503H-40.683z"/></g></g></g></g><g id="Layer_1"><path class="st1" d="M26.542 25.698h-1.415l-.854-2.521c-.126-.392-.252-.84-.378-1.317h-.028c-.098.477-.224.938-.351 1.303l-.854 2.536h-1.345l-2.213-6.401h1.877l.785 2.409c.112.364.238.812.308 1.219h.028c.07-.393.182-.854.308-1.219l.798-2.409h1.555l.798 2.395c.126.392.21.827.294 1.233h.028c.084-.406.196-.854.322-1.233l.799-2.395h1.751l-2.213 6.4zM33.554 25.642v-3.894c0-.462-.322-.869-.953-.869-.616 0-.995.393-.995.896v3.866h-2.059v-9.974h2.031v4.216h.014c.322-.49.911-.784 1.793-.784 1.401 0 2.228.784 2.228 2.129v4.413l-2.059.001zM42.752 22.112l-.911.924h-3.109c.098.519.798 1.106 1.877 1.106.658 0 1.331-.196 1.751-.476l-.196 1.765c-.476.252-1.205.42-2.017.42-1.933 0-3.488-1.345-3.488-3.417 0-2.045 1.485-3.348 3.306-3.348 1.765 0 2.844 1.219 2.844 2.536 0 .154-.029.364-.057.49zm-2.787-1.485c-.602 0-1.106.462-1.232 1.037h2.143c0-.042.014-.084.014-.14a.928.928 0 0 0-.925-.897zM47.848 25.642v-3.894c0-.462-.308-.869-.938-.869-.616 0-1.009.393-1.009.896v3.866h-2.059v-6.345h1.891v.854h.014c.252-.672.91-1.05 1.933-1.05 1.387 0 2.227.784 2.227 2.129v4.413h-2.059zM58.558 20.978h-1.653v2.354c0 .546.294.77.84.77.238 0 .378-.014.532-.084l-.182 1.555c-.196.098-.546.168-.953.168-1.429 0-2.283-.756-2.283-2.017v-2.746h-1.065v-1.681h1.065v-1.359l2.045-.743v2.102h2.045l-.391 1.681zM63.709 25.642v-3.894c0-.462-.322-.869-.953-.869-.616 0-.995.393-.995.896v3.866h-2.059v-9.974h2.031v4.216h.014c.322-.49.911-.784 1.793-.784 1.401 0 2.228.784 2.228 2.129v4.413l-2.059.001zM72.908 22.112l-.911.924h-3.109c.098.519.798 1.106 1.877 1.106.658 0 1.331-.196 1.751-.476l-.196 1.765c-.476.252-1.205.42-2.017.42-1.933 0-3.488-1.345-3.488-3.417 0-2.045 1.485-3.348 3.306-3.348 1.765 0 2.844 1.219 2.844 2.536a2.7 2.7 0 0 1-.057.49zm-2.787-1.485c-.602 0-1.106.462-1.232 1.037h2.143c0-.042.014-.084.014-.14a.929.929 0 0 0-.925-.897zM77.653 25.012c-.966 2.549-1.975 3.474-3.166 3.936l-1.261-1.261c1.022-.392 1.807-1.134 2.325-2.479l-2.283-5.911h1.989l.925 2.465c.14.364.28.798.378 1.247h.028c.126-.435.266-.883.406-1.247l.924-2.465h1.891l-2.156 5.715zM90.731 25.698h-1.415l-.854-2.521c-.126-.392-.252-.84-.378-1.317h-.028c-.098.477-.224.938-.351 1.303l-.854 2.536h-1.345l-2.213-6.401h1.877l.785 2.409c.112.364.238.812.308 1.219h.028c.07-.393.182-.854.308-1.219l.798-2.409h1.555l.798 2.395c.126.392.21.827.294 1.233h.028c.084-.406.196-.854.322-1.233l.799-2.395h1.751l-2.213 6.4zM96.65 25.838c-1.919 0-3.459-1.359-3.459-3.376s1.541-3.376 3.459-3.376c1.905 0 3.46 1.359 3.46 3.376s-1.554 3.376-3.46 3.376zm0-4.959c-.77 0-1.429.672-1.429 1.611s.659 1.611 1.429 1.611c.757 0 1.429-.672 1.429-1.611s-.672-1.611-1.429-1.611zM105.093 21.482a1.53 1.53 0 0 0-.616-.154c-.658 0-1.261.35-1.261 1.359v2.956h-2.059v-6.345h2.031v1.415h.014c.21-.995.952-1.527 1.807-1.527.196 0 .435.028.588.084l-.504 2.212zM110.259 25.642l-1.877-2.563h-.014v2.563h-2.031v-9.974h2.031v6.206h.014l1.905-2.577h2.241l-2.227 3.082 2.353 3.264h-2.395v-.001zM120.703 20.978h-1.653v2.354c0 .546.294.77.84.77.238 0 .378-.014.533-.084l-.182 1.555c-.196.098-.546.168-.953.168-1.429 0-2.283-.756-2.283-2.017v-2.746h-1.064v-1.681h1.064v-1.359l2.045-.743v2.102h2.045l-.392 1.681zM124.888 25.838c-1.919 0-3.459-1.359-3.459-3.376s1.541-3.376 3.459-3.376c1.905 0 3.46 1.359 3.46 3.376s-1.555 3.376-3.46 3.376zm0-4.959c-.77 0-1.429.672-1.429 1.611s.659 1.611 1.429 1.611c.756 0 1.429-.672 1.429-1.611s-.672-1.611-1.429-1.611zM132.028 28.878c-1.849 0-3.082-1.051-3.082-2.382 0-.966.645-1.541 1.303-1.708l-.812-.812c.056-.406.406-.756.771-.91a1.994 1.994 0 0 1-.925-1.695c0-1.345.967-2.283 2.62-2.283.378 0 .672.056.938.126.28.07.588.112.911.112.35 0 .714-.084.994-.21l.378 1.569a1.55 1.55 0 0 1-.784.196c.07.126.154.42.154.645 0 1.064-.84 1.961-2.073 2.045-.252.014-.42.07-.42.238 0 .07.056.154.168.196l.98.35c1.247.448 1.919 1.079 1.919 2.241-.001 1.301-1.191 2.282-3.04 2.282zm.434-2.984l-.756-.21c-.49.014-.854.364-.854.827 0 .434.378.798 1.121.798.729 0 1.121-.336 1.121-.7-.002-.295-.226-.603-.632-.715zm-.56-5.309c-.462 0-.812.35-.812.756 0 .42.35.756.812.756.448 0 .812-.336.812-.756 0-.405-.336-.756-.812-.756zM141.717 22.112l-.911.924h-3.109c.098.519.798 1.106 1.877 1.106.658 0 1.331-.196 1.751-.476l-.196 1.765c-.476.252-1.205.42-2.017.42-1.933 0-3.488-1.345-3.488-3.417 0-2.045 1.485-3.348 3.306-3.348 1.765 0 2.844 1.219 2.844 2.536a2.7 2.7 0 0 1-.057.49zm-2.787-1.485c-.602 0-1.106.462-1.232 1.037h2.143c0-.042.014-.084.014-.14a.929.929 0 0 0-.925-.897zM147.106 20.978h-1.653v2.354c0 .546.294.77.84.77.238 0 .378-.014.532-.084l-.182 1.555c-.196.098-.546.168-.953.168-1.429 0-2.283-.756-2.283-2.017v-2.746h-1.065v-1.681h1.065v-1.359l2.045-.743v2.102h2.045l-.391 1.681zM152.258 25.642v-3.894c0-.462-.322-.869-.953-.869-.616 0-.995.393-.995.896v3.866h-2.059v-9.974h2.031v4.216h.014c.322-.49.911-.784 1.793-.784 1.401 0 2.228.784 2.228 2.129v4.413l-2.059.001zM161.457 22.112l-.91.924h-3.11c.098.519.798 1.106 1.877 1.106.658 0 1.331-.196 1.75-.476l-.195 1.765c-.477.252-1.205.42-2.018.42-1.933 0-3.488-1.345-3.488-3.417 0-2.045 1.485-3.348 3.306-3.348 1.765 0 2.843 1.219 2.843 2.536a2.54 2.54 0 0 1-.055.49zm-2.788-1.485c-.602 0-1.106.462-1.232 1.037h2.143c0-.042.014-.084.014-.14a.928.928 0 0 0-.925-.897zM166.482 21.482a1.53 1.53 0 0 0-.616-.154c-.659 0-1.261.35-1.261 1.359v2.956h-2.06v-6.345h2.031v1.415h.014c.21-.995.953-1.527 1.808-1.527.195 0 .434.028.588.084l-.504 2.212zM167.853 25.838c-.378 0-1.162-.785-1.162-1.163 0-.364.784-1.149 1.162-1.149s1.163.785 1.163 1.149c0 .379-.786 1.163-1.163 1.163z"/></g></svg>