<svg id="Layer_1" xmlns="http://www.w3.org/2000/svg" width="320" height="50" viewBox="0 0 320 50"><style>.st0{fill:#f9e038}.st1{fill:#231f20}</style><path class="st0" d="M262.442 6.776s-5 0-5 5v3.139s0 5 5 5h40.524s5 0 5-5v-3.139s0-5-5-5h-40.524z"/><path class="st1" d="M268.306 14.802v.747h-2.396V11.78h.879v3.021h1.517zM269.655 12.511v.763h1.428v.709h-1.428v.835h1.812v.73h-2.691V11.78h2.691v.731h-1.812zM275.245 15.549h-.95l-.231-.774h-1.219l-.236.774h-.774l1.208-3.769h1.021l1.181 3.769zm-1.385-1.467l-.4-1.324-.401 1.324h.801zM276.629 15.549h-.879V11.78h1.587c.335 0 .676.006.967.192.308.203.479.571.479.939 0 .429-.248.824-.654.972l.698 1.665h-.979l-.576-1.489h-.643v1.49zm0-2.137h.483c.181 0 .379.017.538-.077a.507.507 0 0 0 .22-.428.473.473 0 0 0-.215-.385c-.147-.093-.4-.071-.565-.071h-.461v.961zM282.347 15.549h-.753l-1.444-2.532h-.022v2.532h-.681V11.78h.95l1.258 2.214h.011V11.78h.682v3.769zM286.906 15.549h-.604l-.917-3.071h-.011v3.071h-.742V11.78h1.379l.659 2.258.692-2.258h1.379v3.769h-.879v-3.071h-.022l-.934 3.071zM289.791 15.011c-.275-.39-.396-.879-.396-1.352 0-1 .5-1.934 1.614-1.934.5 0 .896.165 1.198.577.269.368.406.901.406 1.357 0 .429-.115.95-.357 1.308-.291.428-.736.637-1.247.637s-.922-.176-1.218-.593zm.647-2.137c-.088.225-.12.549-.12.786 0 .473.071 1.225.691 1.225.303 0 .468-.148.566-.429.088-.23.115-.543.115-.791 0-.274-.027-.599-.138-.851-.109-.253-.269-.368-.544-.368-.3-.001-.465.153-.57.428zM294.157 15.549h-.879V11.78h1.587c.335 0 .676.006.967.192.308.203.479.571.479.939 0 .429-.247.824-.654.972l.698 1.665h-.979l-.576-1.488h-.643v1.489zm0-2.137h.483c.181 0 .379.017.538-.077a.507.507 0 0 0 .22-.428.474.474 0 0 0-.214-.385c-.148-.093-.401-.071-.566-.071h-.461v.961zM297.853 12.511v.763h1.428v.709h-1.428v.835h1.812v.73h-2.691V11.78h2.691v.731h-1.812z"/></svg>