<svg id="Layer_1" xmlns="http://www.w3.org/2000/svg" width="320" height="50" viewBox="0 0 320 50"><style>.st0{fill:none}.st1{fill:#004b87}.st2{fill:#fff}.st3{fill:url(#SVGID_1_)}.st4{fill:url(#SVGID_2_)}.st5{fill:url(#SVGID_3_)}</style><path class="st0" d="M259.063 24.583h46.525v15.826h-46.525z"/><path class="st1" d="M282.159 28.469v1.636h-2.901v7.853h-1.833v-7.853h-2.901v-1.636h7.635zm.779 9.489h1.834v-9.489h-1.834v9.489zm11.313 0h-1.887l-.975-2.335h-3.214l-.964 2.335h-1.845l4.042-9.616h.802l4.041 9.616zm8.885 0h-1.887l-.975-2.335h-3.215l-.964 2.335h-1.844l4.042-9.616h.801l4.042 9.616zm-12.376-3.885l-.97-2.363-.977 2.363h1.947zm8.885 0l-.97-2.363-.977 2.363h1.947z"/><path class="st2" d="M267.883 38.574c.813 0 1.55-.337 2.08-.876l2.246-2.246c.518-.525.84-1.244.844-2.037v-6.996h-6.986c-.813 0-1.55.337-2.08.876l-2.246 2.246a2.914 2.914 0 0 0-.844 2.037v6.996h6.986z"/><linearGradient id="SVGID_1_" gradientUnits="userSpaceOnUse" x1="266.974" y1="32.498" x2="272.437" y2="27.035"><stop offset=".1" stop-color="#9cdcf8"/><stop offset=".9" stop-color="#009edb"/></linearGradient><path class="st3" d="M266.882 27.035a2.3 2.3 0 0 0-2.301 2.291v.779h4.787v4.785h.768a2.3 2.3 0 0 0 2.301-2.301v-5.555h-5.555z"/><linearGradient id="SVGID_2_" gradientUnits="userSpaceOnUse" x1="261.514" y1="36.554" x2="271.587" y2="36.554"><stop offset="0" stop-color="#14b1e7"/><stop offset=".16" stop-color="#13abe2"/><stop offset=".369" stop-color="#0f9bd3"/><stop offset=".606" stop-color="#0980bc"/><stop offset=".861" stop-color="#015a9b"/><stop offset=".9" stop-color="#005495"/></linearGradient><path class="st4" d="M271.533 35.149a2.892 2.892 0 0 1-1.397.357h-6.171l-2.451 2.451h6.369c.62 0 1.202-.246 1.641-.693l2.063-2.063-.054-.052z"/><linearGradient id="SVGID_3_" gradientUnits="userSpaceOnUse" x1="262.918" y1="37.958" x2="262.918" y2="27.885"><stop offset="0" stop-color="#0082be"/><stop offset=".386" stop-color="#0070ae"/><stop offset=".85" stop-color="#005495"/></linearGradient><path class="st5" d="M264.323 27.938a2.892 2.892 0 0 0-.357 1.397v6.171l-2.451 2.451v-6.369c0-.62.246-1.202.692-1.641l2.063-2.063.053.054z"/></svg>