<?xml version="1.0" encoding="utf-8"?>
<!-- Generator: Adobe Illustrator 24.0.0, SVG Export Plug-In . SVG Version: 6.00 Build 0)  -->
<svg version="1.1" id="Layer_1" xmlns="http://www.w3.org/2000/svg" xmlns:xlink="http://www.w3.org/1999/xlink" x="0px" y="0px"
	 viewBox="0 0 160 600" style="enable-background:new 0 0 160 600;" xml:space="preserve">
<style type="text/css">
	.st0{fill:#FFFFFF;}
</style>
<g>
	<path class="st0" d="M13.3,586.9l-0.7-0.3c1-0.5,1.7-1.2,2.1-2c-0.2,0.2-0.5,0.3-0.8,0.3c-1,0-1.6-0.7-1.6-1.6c0-1,0.7-1.7,1.7-1.7
		c0.9,0,1.7,0.6,1.7,1.8C15.7,584.7,14.7,586.2,13.3,586.9z M14,582.2c-0.5,0-0.9,0.4-0.9,1c0,0.6,0.4,1,1,1c0.4,0,0.8-0.2,1-0.7
		c0-0.1,0-0.2,0-0.2C15,582.7,14.5,582.2,14,582.2z"/>
	<path class="st0" d="M17.5,586.9l-0.7-0.3c1-0.5,1.7-1.2,2.1-2c-0.2,0.2-0.5,0.3-0.8,0.3c-1,0-1.6-0.7-1.6-1.6c0-1,0.7-1.7,1.7-1.7
		c0.9,0,1.7,0.6,1.7,1.8C19.9,584.7,18.9,586.2,17.5,586.9z M18.1,582.2c-0.5,0-0.9,0.4-0.9,1c0,0.6,0.4,1,1,1c0.4,0,0.8-0.2,1-0.7
		c0-0.1,0-0.2,0-0.2C19.1,582.7,18.7,582.2,18.1,582.2z"/>
	<path class="st0" d="M22.3,586.8c-0.9,0-1.7-0.6-1.7-1.8c0-1.4,1-2.8,2.4-3.5l0.7,0.3c-1,0.5-1.7,1.2-2.1,2
		c0.2-0.2,0.4-0.3,0.8-0.3c1,0,1.6,0.7,1.6,1.6C24,586.1,23.3,586.8,22.3,586.8z M22.3,584.2c-0.4,0-0.8,0.2-1,0.7
		c0,0.1,0,0.2,0,0.3c0,0.6,0.5,1.1,1,1.1s0.9-0.4,0.9-1C23.2,584.6,22.9,584.2,22.3,584.2z"/>
	<path class="st0" d="M26.4,586.8c-0.9,0-1.7-0.8-1.7-2.7c0-1.8,0.8-2.6,1.7-2.6c0.9,0,1.7,0.9,1.7,2.6
		C28.2,586,27.4,586.8,26.4,586.8z M26.4,582.2c-0.5,0-1,0.6-1,2c0,1.5,0.5,2,1,2c0.5,0,1-0.6,1-2C27.4,582.7,27,582.2,26.4,582.2z"
		/>
	<path class="st0" d="M29.5,586.7v-4.5l-0.9,0.1l0.1-0.6l1.5-0.1v5.2H29.5z"/>
	<path class="st0" d="M31.1,586.7v-0.1c1.2-1.4,2.1-2.7,2.1-3.5c0-0.6-0.4-0.9-0.8-0.9c-0.4,0-0.7,0.1-1,0.3l-0.2-0.6
		c0.3-0.2,0.7-0.3,1.2-0.3c0.9,0,1.6,0.6,1.6,1.6c0,1-0.9,2.1-1.6,3h1.9v0.6H31.1z"/>
</g>
</svg>
