<?xml version="1.0" encoding="utf-8"?>
<!-- Generator: Adobe Illustrator 24.0.0, SVG Export Plug-In . SVG Version: 6.00 Build 0)  -->
<svg version="1.1" id="Layer_1" xmlns="http://www.w3.org/2000/svg" xmlns:xlink="http://www.w3.org/1999/xlink" x="0px" y="0px"
	 viewBox="0 0 160 600" style="enable-background:new 0 0 160 600;" xml:space="preserve">
<style type="text/css">
	.st0{fill:#F9E039;}
</style>
<g>
	<path class="st0" d="M44.9,109.6c-0.7-0.4-2-0.8-3.3-0.8c-2.8,0-5.1,1.9-5.1,4.8c0,2.9,2.2,4.9,5.3,4.9c1.3,0,2.5-0.2,3.3-0.7
		l-0.3,3.4c-0.8,0.4-2,0.6-3.6,0.6c-4.1,0-8.5-2.8-8.5-8.2c0-5.4,4.4-8.2,8.5-8.2c2,0,3.5,0.4,4.5,1L44.9,109.6z"/>
	<path class="st0" d="M55.2,122c-0.7-0.1-1.4-0.7-1.7-1.5c-0.5,0.9-1.6,1.4-2.9,1.4c-2,0-3.8-1.4-3.8-3.7c0-2.1,1.6-3.5,3.9-3.7
		l2.2-0.2v-0.4c0-0.7-0.5-1.1-1.8-1.1c-1.1,0-2.3,0.4-3.1,0.9l-0.6-2.8c0.9-0.6,2.5-1,4-1c3,0,5.1,1.4,5.1,4.1v3.7
		c0,1.3,0.5,2,1.4,2.3L55.2,122z M52.9,116.6l-1.4,0.1c-0.9,0.1-1.4,0.7-1.4,1.4c0,0.6,0.5,1.1,1.1,1.1c0.9,0,1.6-0.7,1.6-1.6V116.6
		z"/>
	<path class="st0" d="M62.8,122c-2.3-0.1-3.9-1.3-3.9-4v-14.2h3.6v13.8c0,0.9,0.5,1.4,1.5,1.5L62.8,122z"/>
	<path class="st0" d="M74,113.8c-0.7-0.5-1.5-0.7-2.4-0.7c-1.6,0-2.9,1.1-2.9,2.8c0,1.6,1.3,2.8,2.9,2.8c0.9,0,1.7-0.2,2.5-0.6
		l-0.3,3.1c-0.8,0.3-1.7,0.5-2.8,0.5c-3.2,0-6.1-2.2-6.1-5.9c0-3.7,3-5.9,6-5.9c1.5,0,2.7,0.3,3.7,0.9L74,113.8z"/>
	<path class="st0" d="M83.9,121.5V120h0c-0.5,1.2-1.7,1.9-3.5,1.9c-2.5,0-4-1.4-4-3.8v-7.9h3.7v6.9c0,0.8,0.6,1.5,1.7,1.5
		c1.1,0,1.8-0.7,1.8-1.6v-6.9h3.7v11.3H83.9z"/>
	<path class="st0" d="M93.5,122c-2.3-0.1-3.9-1.3-3.9-4v-14.2h3.6v13.8c0,0.9,0.5,1.4,1.5,1.5L93.5,122z"/>
	<path class="st0" d="M104.4,122c-0.7-0.1-1.5-0.7-1.8-1.5c-0.5,0.9-1.6,1.4-2.9,1.4c-2,0-3.8-1.4-3.8-3.7c0-2.1,1.6-3.5,3.9-3.7
		l2.2-0.2v-0.4c0-0.7-0.5-1.1-1.8-1.1c-1.1,0-2.3,0.4-3.1,0.9l-0.6-2.8c0.9-0.6,2.5-1,4-1c3,0,5.1,1.4,5.1,4.1v3.7
		c0,1.3,0.5,2,1.4,2.3L104.4,122z M102,116.6l-1.4,0.1c-0.9,0.1-1.4,0.7-1.4,1.4c0,0.6,0.4,1.1,1.1,1.1c0.9,0,1.6-0.7,1.6-1.6V116.6
		z"/>
	<path class="st0" d="M115.5,113.2h-2.9v4.2c0,1,0.5,1.4,1.5,1.4c0.4,0,0.7,0,1-0.1l-0.3,2.8c-0.3,0.2-1,0.3-1.7,0.3
		c-2.5,0-4.1-1.3-4.1-3.6v-4.9H107v-3h1.9v-2.4l3.6-1.3v3.7h3.6L115.5,113.2z"/>
	<path class="st0" d="M127.6,115.2l-1.6,1.6h-5.5c0.2,0.9,1.4,2,3.3,2c1.2,0,2.4-0.4,3.1-0.8l-0.3,3.1c-0.8,0.5-2.1,0.8-3.6,0.8
		c-3.4,0-6.2-2.4-6.2-6.1c0-3.6,2.6-6,5.9-6c3.1,0,5.1,2.2,5.1,4.5C127.7,114.6,127.6,115,127.6,115.2z M122.6,112.6
		c-1.1,0-2,0.8-2.2,1.8h3.8c0-0.1,0-0.1,0-0.2C124.2,113.4,123.6,112.6,122.6,112.6z"/>
</g>
<g>
	<path class="st0" d="M64.3,146.4c-1.7,4.5-3.5,6.2-5.6,7l-2.2-2.2c1.8-0.7,3.2-2,4.1-4.4l-4.1-10.5H60l1.6,4.4
		c0.2,0.6,0.5,1.4,0.7,2.2h0c0.2-0.8,0.5-1.6,0.7-2.2l1.6-4.4h3.4L64.3,146.4z"/>
	<path class="st0" d="M74.6,147.9c-3.4,0-6.2-2.4-6.2-6s2.7-6,6.2-6c3.4,0,6.2,2.4,6.2,6S78,147.9,74.6,147.9z M74.6,139
		c-1.4,0-2.5,1.2-2.5,2.9c0,1.7,1.2,2.9,2.5,2.9c1.4,0,2.5-1.2,2.5-2.9C77.2,140.2,76,139,74.6,139z"/>
	<path class="st0" d="M90,147.5V146h0c-0.5,1.2-1.6,1.9-3.5,1.9c-2.5,0-4-1.4-4-3.8v-7.9h3.7v6.9c0,0.8,0.6,1.5,1.7,1.5
		c1.1,0,1.8-0.7,1.8-1.6v-6.9h3.7v11.3H90z"/>
	<path class="st0" d="M102.8,140.1c-0.2-0.1-0.7-0.3-1.1-0.3c-1.2,0-2.2,0.6-2.2,2.4v5.3h-3.7v-11.3h3.6v2.5h0
		c0.4-1.8,1.7-2.7,3.2-2.7c0.4,0,0.8,0,1,0.1L102.8,140.1z"/>
</g>
<g>
	<path class="st0" d="M44.2,174c-2.3-0.1-3.9-1.3-3.9-4v-14.2H44v13.8c0,0.9,0.5,1.4,1.5,1.5L44.2,174z"/>
	<path class="st0" d="M48.9,160.6c-0.6,0-2-1.3-2-2s1.3-1.9,2-1.9s2,1.3,2,1.9S49.5,160.6,48.9,160.6z M47,173.5v-11.3h3.7v11.3H47z
		"/>
	<path class="st0" d="M61,159c-0.4-0.2-1-0.3-1.5-0.3c-1.3,0-2,0.8-2,2.4v1.1h3.2l-0.7,3h-2.5v8.3h-3.5v-8.3h-1.7v-3h1.7v-1.3
		c0-3.4,2.2-5.1,5.1-5.1c1,0,2.1,0.1,2.7,0.4L61,159z"/>
	<path class="st0" d="M72.1,167.2l-1.6,1.6h-5.5c0.2,0.9,1.4,2,3.3,2c1.2,0,2.4-0.4,3.1-0.8l-0.3,3.1c-0.9,0.5-2.1,0.8-3.6,0.8
		c-3.4,0-6.2-2.4-6.2-6.1c0-3.6,2.6-6,5.9-6c3.1,0,5.1,2.2,5.1,4.5C72.2,166.6,72.1,167,72.1,167.2z M67.1,164.6
		c-1.1,0-2,0.8-2.2,1.8h3.8c0-0.1,0-0.1,0-0.2C68.8,165.4,68.1,164.6,67.1,164.6z"/>
	<path class="st0" d="M81.7,165.2h-2.9v4.2c0,1,0.5,1.4,1.5,1.4c0.4,0,0.7,0,0.9-0.1l-0.3,2.8c-0.4,0.2-1,0.3-1.7,0.3
		c-2.5,0-4.1-1.3-4.1-3.6v-4.9h-1.9v-3h1.9v-2.4l3.6-1.3v3.7h3.6L81.7,165.2z"/>
	<path class="st0" d="M85.5,160.6c-0.6,0-2-1.3-2-2s1.3-1.9,2-1.9s2,1.3,2,1.9S86.2,160.6,85.5,160.6z M83.7,173.5v-11.3h3.7v11.3
		H83.7z"/>
	<path class="st0" d="M103.7,173.5v-6.9c0-0.8-0.4-1.5-1.6-1.5c-1.2,0-1.7,0.7-1.7,1.6v6.9h-3.7v-6.9c0-0.8-0.4-1.5-1.6-1.5
		c-1.2,0-1.7,0.7-1.7,1.6v6.9h-3.7v-11.3h3.4v1.5h0c0.5-1.2,1.6-1.9,3.3-1.9c1.6,0,2.8,0.6,3.3,1.8c0.5-1.1,1.8-1.8,3.5-1.8
		c2.6,0,4,1.4,4,3.8v7.9H103.7z"/>
	<path class="st0" d="M120.1,167.2l-1.6,1.6h-5.5c0.2,0.9,1.4,2,3.3,2c1.2,0,2.4-0.4,3.1-0.8l-0.3,3.1c-0.8,0.5-2.1,0.8-3.6,0.8
		c-3.4,0-6.2-2.4-6.2-6.1c0-3.6,2.6-6,5.9-6c3.1,0,5.1,2.2,5.1,4.5C120.2,166.6,120.2,167,120.1,167.2z M115.1,164.6
		c-1.1,0-2,0.8-2.2,1.8h3.8c0-0.1,0-0.1,0-0.2C116.8,165.4,116.1,164.6,115.1,164.6z"/>
</g>
<g>
	<path class="st0" d="M32.6,186.6c-0.6,0-2-1.3-2-2s1.3-1.9,2-1.9s2,1.3,2,1.9S33.3,186.6,32.6,186.6z M30.8,199.5v-11.3h3.7v11.3
		H30.8z"/>
	<path class="st0" d="M44,199.5v-6.9c0-0.8-0.5-1.5-1.7-1.5c-1.1,0-1.8,0.7-1.8,1.6v6.9h-3.7v-11.3h3.4v1.5h0
		c0.4-1.2,1.6-1.9,3.4-1.9c2.5,0,4,1.4,4,3.8v7.9H44z"/>
	<path class="st0" d="M58.5,191.8c-0.7-0.5-1.5-0.7-2.4-0.7c-1.6,0-2.9,1.1-2.9,2.8c0,1.6,1.3,2.8,2.9,2.8c0.9,0,1.7-0.2,2.5-0.6
		l-0.3,3.1c-0.8,0.3-1.7,0.5-2.8,0.5c-3.2,0-6.1-2.2-6.1-5.9c0-3.7,3-5.9,6-5.9c1.5,0,2.7,0.3,3.7,0.9L58.5,191.8z"/>
	<path class="st0" d="M66.5,199.9c-3.4,0-6.2-2.4-6.2-6s2.7-6,6.2-6c3.4,0,6.2,2.4,6.2,6S69.9,199.9,66.5,199.9z M66.5,191
		c-1.4,0-2.5,1.2-2.5,2.9c0,1.7,1.2,2.9,2.5,2.9c1.4,0,2.5-1.2,2.5-2.9C69,192.2,67.8,191,66.5,191z"/>
	<path class="st0" d="M88.4,199.5v-6.9c0-0.8-0.4-1.5-1.6-1.5c-1.2,0-1.7,0.7-1.7,1.6v6.9h-3.7v-6.9c0-0.8-0.4-1.5-1.6-1.5
		c-1.2,0-1.7,0.7-1.7,1.6v6.9h-3.7v-11.3h3.4v1.5h0c0.4-1.2,1.6-1.9,3.3-1.9c1.6,0,2.8,0.6,3.3,1.8c0.5-1.1,1.8-1.8,3.5-1.8
		c2.6,0,4,1.4,4,3.8v7.9H88.4z"/>
	<path class="st0" d="M104.8,193.2l-1.6,1.6h-5.5c0.2,0.9,1.4,2,3.3,2c1.2,0,2.4-0.4,3.1-0.8l-0.3,3.1c-0.8,0.5-2.1,0.8-3.6,0.8
		c-3.4,0-6.2-2.4-6.2-6.1c0-3.6,2.6-6,5.9-6c3.1,0,5.1,2.2,5.1,4.5C104.9,192.6,104.8,193,104.8,193.2z M99.8,190.6
		c-1.1,0-2,0.8-2.2,1.8h3.8c0-0.1,0-0.1,0-0.2C101.5,191.4,100.8,190.6,99.8,190.6z"/>
	<path class="st0" d="M114.2,186.6c-0.6,0-2-1.3-2-2s1.3-1.9,2-1.9s2,1.3,2,1.9S114.9,186.6,114.2,186.6z M112.4,199.5v-11.3h3.7
		v11.3H112.4z"/>
	<path class="st0" d="M125.6,199.5v-6.9c0-0.8-0.5-1.5-1.7-1.5c-1.1,0-1.8,0.7-1.8,1.6v6.9h-3.7v-11.3h3.4v1.5h0
		c0.5-1.2,1.6-1.9,3.4-1.9c2.5,0,4,1.4,4,3.8v7.9H125.6z"/>
</g>
<g>
	<path class="st0" d="M24.7,225.8c-0.9,0-2.2-0.2-3-0.5l-0.3-3.2c0.8,0.4,1.7,0.7,2.7,0.7c1.5,0,2.8-0.7,2.8-2.3
		c0-1.2-1.1-2.1-2.5-2.1c-0.1,0-0.2,0-0.5,0.1l-0.6-2.7c1.4-0.3,2.5-1,2.5-1.9c0-0.8-0.6-1.3-1.6-1.3c-0.9,0-1.6,0.2-2.3,0.6
		l-0.7-3.1c0.8-0.4,2.1-0.8,3.5-0.8c3,0,4.9,1.5,4.9,3.8c0,1.7-1.2,2.7-2.3,3c1.7,0.4,3.5,1.9,3.5,4.4
		C30.8,223.9,28.4,225.8,24.7,225.8z"/>
	<path class="st0" d="M38.2,225.9c-3.1,0-5.7-2.6-5.7-8.4c0-5.7,2.6-8.3,5.7-8.3c3.1,0,5.7,2.6,5.7,8.3
		C43.9,223.2,41.3,225.9,38.2,225.9z M38.2,212.3c-1.1,0-2.1,1.7-2.1,5.2c0,3.5,1,5.2,2.1,5.2c1.1,0,2.1-1.7,2.1-5.2
		C40.3,214,39.3,212.3,38.2,212.3z"/>
	<path class="st0" d="M55.1,225.8c-1.5,0-2.7-0.3-3.6-0.8l-0.3-3.2c1,0.7,2.3,1.2,3.5,1.2c0.7,0,1.1-0.4,1.1-0.8
		c0-0.5-0.4-0.7-1-0.9c-2.2-0.6-3.5-1.7-3.5-3.7c0-2.2,1.8-3.6,4.2-3.6c1.4,0,2.8,0.4,3.3,0.7l-0.6,2.7c-0.5-0.3-1.4-0.6-2.3-0.6
		c-0.6,0-1,0.3-1,0.7c0,0.4,0.3,0.6,1,0.8c2.5,0.7,3.6,1.9,3.6,3.8C59.6,224,58.2,225.8,55.1,225.8z"/>
	<path class="st0" d="M71.6,219.2l-1.6,1.6h-5.5c0.2,0.9,1.4,2,3.3,2c1.2,0,2.4-0.4,3.1-0.8l-0.3,3.1c-0.9,0.5-2.1,0.8-3.6,0.8
		c-3.4,0-6.2-2.4-6.2-6.1c0-3.6,2.6-6,5.9-6c3.1,0,5.1,2.2,5.1,4.5C71.7,218.6,71.7,219,71.6,219.2z M66.7,216.6
		c-1.1,0-2,0.8-2.2,1.8h3.8c0-0.1,0-0.1,0-0.2C68.3,217.4,67.6,216.6,66.7,216.6z"/>
	<path class="st0" d="M82.1,217.8c-0.8-0.5-1.5-0.7-2.4-0.7c-1.6,0-2.9,1.1-2.9,2.8c0,1.6,1.3,2.8,2.9,2.8c0.9,0,1.7-0.2,2.5-0.6
		l-0.3,3.1c-0.8,0.3-1.7,0.5-2.8,0.5c-3.2,0-6.1-2.2-6.1-5.9c0-3.7,3-5.9,6-5.9c1.5,0,2.7,0.3,3.7,0.9L82.1,217.8z"/>
	<path class="st0" d="M90,225.9c-3.4,0-6.2-2.4-6.2-6s2.7-6,6.2-6c3.4,0,6.2,2.4,6.2,6S93.4,225.9,90,225.9z M90,217
		c-1.4,0-2.5,1.2-2.5,2.9c0,1.7,1.2,2.9,2.5,2.9c1.3,0,2.5-1.2,2.5-2.9C92.5,218.2,91.3,217,90,217z"/>
	<path class="st0" d="M105.1,225.5v-6.9c0-0.8-0.5-1.5-1.7-1.5c-1.1,0-1.8,0.7-1.8,1.6v6.9H98v-11.3h3.4v1.5h0
		c0.5-1.2,1.6-1.9,3.4-1.9c2.5,0,4,1.4,4,3.8v7.9H105.1z"/>
	<path class="st0" d="M119.6,225.5v-1.4h0c-0.6,1.1-1.9,1.7-3.5,1.7c-2.8,0-5.4-2.1-5.4-6c0-3.6,2.6-6,5.7-6c1.2,0,2.4,0.4,2.9,0.8
		v-6.9h3.6v17.8H119.6z M119.3,218.1c-0.3-0.5-1.1-1-2.2-1c-1.6,0-2.7,1.2-2.7,2.9s1.1,2.9,2.7,2.9c1.1,0,1.8-0.6,2.2-1.2V218.1z"/>
	<path class="st0" d="M128.8,225.8c-1.5,0-2.7-0.3-3.6-0.8l-0.3-3.2c1,0.7,2.3,1.2,3.5,1.2c0.7,0,1.1-0.4,1.1-0.8
		c0-0.5-0.4-0.7-1-0.9c-2.2-0.6-3.5-1.7-3.5-3.7c0-2.2,1.8-3.6,4.2-3.6c1.4,0,2.8,0.4,3.3,0.7l-0.6,2.7c-0.5-0.3-1.4-0.6-2.3-0.6
		c-0.6,0-1,0.3-1,0.7c0,0.4,0.3,0.6,1,0.8c2.5,0.7,3.6,1.9,3.6,3.8C133.3,224,131.9,225.8,128.8,225.8z"/>
	<path class="st0" d="M136.9,225.9c-0.7,0-2.1-1.4-2.1-2.1c0-0.6,1.4-2,2.1-2s2.1,1.4,2.1,2C138.9,224.5,137.5,225.9,136.9,225.9z"
		/>
</g>
</svg>
