<?xml version="1.0" encoding="utf-8"?>
<!-- Generator: Adobe Illustrator 24.0.0, SVG Export Plug-In . SVG Version: 6.00 Build 0)  -->
<svg version="1.1" id="Layer_1" xmlns="http://www.w3.org/2000/svg" xmlns:xlink="http://www.w3.org/1999/xlink" x="0px" y="0px"
	 viewBox="0 0 160 600" style="enable-background:new 0 0 160 600;" xml:space="preserve">
<style type="text/css">
	.st0{fill:#F9E039;}
</style>
<g>
	<path class="st0" d="M58.4,121.5l-4.3-6.3h-1v6.3h-3.7v-15.9h5.8c2.7,0,5.1,1.8,5.1,4.8c0,1.8-1.1,3.4-2.4,4l5.1,7.1H58.4z
		 M54.6,108.7h-1.5v3.6h1.5c1,0,2-0.6,2-1.8C56.6,109.3,55.6,108.7,54.6,108.7z"/>
	<path class="st0" d="M73.6,115.2l-1.6,1.6h-5.5c0.2,0.9,1.4,2,3.3,2c1.2,0,2.4-0.4,3.1-0.8l-0.3,3.1c-0.9,0.5-2.1,0.8-3.6,0.8
		c-3.4,0-6.2-2.4-6.2-6.1c0-3.6,2.6-6,5.9-6c3.1,0,5.1,2.2,5.1,4.5C73.7,114.6,73.6,115,73.6,115.2z M68.6,112.6
		c-1.1,0-2,0.8-2.2,1.8h3.8c0-0.1,0-0.1,0-0.2C70.2,113.4,69.6,112.6,68.6,112.6z"/>
	<path class="st0" d="M83.3,122c-0.7-0.1-1.5-0.7-1.8-1.5c-0.5,0.9-1.6,1.4-2.9,1.4c-2,0-3.8-1.4-3.8-3.7c0-2.1,1.6-3.5,3.9-3.7
		l2.2-0.2v-0.4c0-0.7-0.5-1.1-1.8-1.1c-1.1,0-2.3,0.4-3.1,0.9l-0.6-2.8c0.9-0.6,2.5-1,4-1c3,0,5.1,1.4,5.1,4.1v3.7
		c0,1.3,0.5,2,1.4,2.3L83.3,122z M81,116.6l-1.4,0.1c-0.9,0.1-1.4,0.7-1.4,1.4c0,0.6,0.5,1.1,1.1,1.1c0.9,0,1.6-0.7,1.6-1.6V116.6z"
		/>
	<path class="st0" d="M95.5,121.5v-1.4h0c-0.6,1.1-1.9,1.7-3.5,1.7c-2.8,0-5.4-2.1-5.4-6c0-3.6,2.6-6,5.7-6c1.2,0,2.4,0.4,2.9,0.8
		v-6.9h3.6v17.8H95.5z M95.1,114.1c-0.3-0.5-1.1-1-2.2-1c-1.6,0-2.7,1.2-2.7,2.9s1.1,2.9,2.7,2.9c1.1,0,1.8-0.6,2.2-1.2V114.1z"/>
	<path class="st0" d="M107.8,120.4c-1.7,4.5-3.5,6.2-5.6,7l-2.2-2.2c1.8-0.7,3.2-2,4.1-4.4l-4.1-10.5h3.5l1.6,4.4
		c0.2,0.6,0.5,1.4,0.7,2.2h0.1c0.2-0.8,0.5-1.6,0.7-2.2l1.6-4.4h3.4L107.8,120.4z"/>
</g>
<g>
	<path class="st0" d="M27,139.2h-2.9v4.2c0,1,0.5,1.4,1.5,1.4c0.4,0,0.7,0,1-0.1l-0.3,2.8c-0.4,0.2-1,0.3-1.7,0.3
		c-2.5,0-4.1-1.3-4.1-3.6v-4.9h-1.9v-3h1.9v-2.4l3.6-1.3v3.7h3.6L27,139.2z"/>
	<path class="st0" d="M34.4,147.9c-3.4,0-6.2-2.4-6.2-6s2.7-6,6.2-6c3.4,0,6.2,2.4,6.2,6S37.8,147.9,34.4,147.9z M34.4,139
		c-1.4,0-2.5,1.2-2.5,2.9c0,1.7,1.2,2.9,2.5,2.9c1.4,0,2.5-1.2,2.5-2.9C37,140.2,35.8,139,34.4,139z"/>
	<path class="st0" d="M53.1,153.3c-3.3,0-5.5-1.9-5.5-4.2c0-1.7,1.1-2.7,2.3-3l-1.4-1.4c0.1-0.7,0.7-1.3,1.4-1.6
		c-0.9-0.5-1.6-1.6-1.6-3c0-2.4,1.7-4.1,4.7-4.1c0.7,0,1.2,0.1,1.7,0.2c0.5,0.1,1,0.2,1.6,0.2c0.6,0,1.3-0.1,1.8-0.4l0.7,2.8
		c-0.4,0.2-0.9,0.4-1.4,0.3c0.1,0.2,0.3,0.8,0.3,1.1c0,1.9-1.5,3.5-3.7,3.6c-0.4,0-0.7,0.1-0.7,0.4c0,0.1,0.1,0.3,0.3,0.4l1.7,0.6
		c2.2,0.8,3.4,1.9,3.4,4C58.5,151.5,56.4,153.3,53.1,153.3z M53.9,148l-1.3-0.4c-0.9,0-1.5,0.6-1.5,1.5c0,0.8,0.7,1.4,2,1.4
		c1.3,0,2-0.6,2-1.2C55,148.7,54.6,148.2,53.9,148z M52.9,138.5c-0.8,0-1.4,0.6-1.4,1.3c0,0.8,0.6,1.4,1.4,1.4
		c0.8,0,1.4-0.6,1.4-1.4C54.3,139.1,53.7,138.5,52.9,138.5z"/>
	<path class="st0" d="M61.9,134.6c-0.6,0-2-1.3-2-2s1.3-1.9,2-1.9s2,1.3,2,1.9S62.6,134.6,61.9,134.6z M60.1,147.5v-11.3h3.7v11.3
		H60.1z"/>
	<path class="st0" d="M72.2,147.6h-2.7l-4.3-11.4h3.5l1.6,4.3c0.2,0.6,0.5,1.4,0.6,2.2h0.1c0.2-0.7,0.4-1.6,0.6-2.2l1.6-4.3h3.4
		L72.2,147.6z"/>
	<path class="st0" d="M87.7,141.2l-1.6,1.6h-5.5c0.2,0.9,1.4,2,3.3,2c1.2,0,2.4-0.4,3.1-0.8l-0.4,3.1c-0.8,0.5-2.1,0.8-3.6,0.8
		c-3.4,0-6.2-2.4-6.2-6.1c0-3.6,2.6-6,5.9-6c3.1,0,5.1,2.2,5.1,4.5C87.8,140.6,87.8,141,87.7,141.2z M82.8,138.6
		c-1.1,0-2,0.8-2.2,1.8h3.8c0-0.1,0-0.1,0-0.2C84.4,139.4,83.7,138.6,82.8,138.6z"/>
	<path class="st0" d="M102.2,146.4c-1.7,4.5-3.5,6.2-5.6,7l-2.2-2.2c1.8-0.7,3.2-2,4.1-4.4l-4.1-10.5h3.5l1.6,4.4
		c0.2,0.6,0.5,1.4,0.7,2.2h0.1c0.2-0.8,0.5-1.6,0.7-2.2l1.6-4.4h3.4L102.2,146.4z"/>
	<path class="st0" d="M112.5,147.9c-3.4,0-6.2-2.4-6.2-6s2.7-6,6.2-6c3.4,0,6.2,2.4,6.2,6S115.9,147.9,112.5,147.9z M112.5,139
		c-1.4,0-2.5,1.2-2.5,2.9c0,1.7,1.2,2.9,2.5,2.9c1.3,0,2.5-1.2,2.5-2.9C115.1,140.2,113.9,139,112.5,139z"/>
	<path class="st0" d="M127.9,147.5V146h0c-0.5,1.2-1.6,1.9-3.5,1.9c-2.5,0-4-1.4-4-3.8v-7.9h3.7v6.9c0,0.8,0.6,1.5,1.7,1.5
		c1.1,0,1.8-0.7,1.8-1.6v-6.9h3.7v11.3H127.9z"/>
	<path class="st0" d="M140.7,140.1c-0.2-0.1-0.7-0.3-1.1-0.3c-1.2,0-2.2,0.6-2.2,2.4v5.3h-3.7v-11.3h3.6v2.5h0
		c0.4-1.8,1.7-2.7,3.2-2.7c0.4,0,0.8,0,1,0.1L140.7,140.1z"/>
</g>
<g>
	<path class="st0" d="M31.7,166.1c-0.2-0.1-0.7-0.3-1.1-0.3c-1.2,0-2.2,0.6-2.2,2.4v5.3h-3.7v-11.3h3.6v2.5h0
		c0.4-1.8,1.7-2.7,3.2-2.7c0.3,0,0.8,0,1,0.1L31.7,166.1z"/>
	<path class="st0" d="M44,167.2l-1.6,1.6h-5.5c0.2,0.9,1.4,2,3.3,2c1.2,0,2.4-0.4,3.1-0.8l-0.3,3.1c-0.9,0.5-2.1,0.8-3.6,0.8
		c-3.4,0-6.2-2.4-6.2-6.1c0-3.6,2.6-6,5.9-6c3.1,0,5.1,2.2,5.1,4.5C44.1,166.6,44,167,44,167.2z M39,164.6c-1.1,0-2,0.8-2.2,1.8h3.8
		c0-0.1,0-0.1,0-0.2C40.6,165.4,40,164.6,39,164.6z"/>
	<path class="st0" d="M53.5,165.2h-2.9v4.2c0,1,0.5,1.4,1.5,1.4c0.4,0,0.7,0,1-0.1l-0.3,2.8c-0.4,0.2-1,0.3-1.7,0.3
		c-2.5,0-4.1-1.3-4.1-3.6v-4.9H45v-3h1.9v-2.4l3.6-1.3v3.7h3.6L53.5,165.2z"/>
	<path class="st0" d="M57.4,160.6c-0.6,0-2-1.3-2-2s1.3-1.9,2-1.9s2,1.3,2,1.9S58.1,160.6,57.4,160.6z M55.6,173.5v-11.3h3.7v11.3
		H55.6z"/>
	<path class="st0" d="M68.7,166.1c-0.2-0.1-0.7-0.3-1.1-0.3c-1.2,0-2.2,0.6-2.2,2.4v5.3h-3.7v-11.3h3.6v2.5h0
		c0.4-1.8,1.7-2.7,3.2-2.7c0.3,0,0.8,0,1,0.1L68.7,166.1z"/>
	<path class="st0" d="M81,167.2l-1.6,1.6h-5.5c0.2,0.9,1.4,2,3.3,2c1.2,0,2.4-0.4,3.1-0.8l-0.4,3.1c-0.8,0.5-2.1,0.8-3.6,0.8
		c-3.4,0-6.2-2.4-6.2-6.1c0-3.6,2.6-6,5.9-6c3.1,0,5.1,2.2,5.1,4.5C81.1,166.6,81,167,81,167.2z M76,164.6c-1.1,0-2,0.8-2.2,1.8h3.8
		c0-0.1,0-0.1,0-0.2C77.6,165.4,77,164.6,76,164.6z"/>
	<path class="st0" d="M96.8,173.5v-6.9c0-0.8-0.4-1.5-1.6-1.5c-1.2,0-1.7,0.7-1.7,1.6v6.9h-3.7v-6.9c0-0.8-0.4-1.5-1.6-1.5
		c-1.2,0-1.7,0.7-1.7,1.6v6.9h-3.7v-11.3h3.4v1.5h0c0.5-1.2,1.6-1.9,3.3-1.9c1.6,0,2.8,0.6,3.3,1.8c0.5-1.1,1.8-1.8,3.5-1.8
		c2.6,0,4,1.4,4,3.8v7.9H96.8z"/>
	<path class="st0" d="M113.2,167.2l-1.6,1.6H106c0.2,0.9,1.4,2,3.3,2c1.2,0,2.4-0.4,3.1-0.8l-0.3,3.1c-0.8,0.5-2.1,0.8-3.6,0.8
		c-3.4,0-6.2-2.4-6.2-6.1c0-3.6,2.6-6,5.9-6c3.1,0,5.1,2.2,5.1,4.5C113.3,166.6,113.2,167,113.2,167.2z M108.2,164.6
		c-1.1,0-2,0.8-2.2,1.8h3.8c0-0.1,0-0.1,0-0.2C109.9,165.4,109.2,164.6,108.2,164.6z"/>
	<path class="st0" d="M122.2,173.5v-6.9c0-0.8-0.5-1.5-1.7-1.5c-1.1,0-1.8,0.7-1.8,1.6v6.9h-3.7v-11.3h3.4v1.5h0
		c0.5-1.2,1.6-1.9,3.4-1.9c2.5,0,4,1.4,4,3.8v7.9H122.2z"/>
	<path class="st0" d="M135.7,165.2h-2.9v4.2c0,1,0.5,1.4,1.5,1.4c0.4,0,0.7,0,1-0.1l-0.3,2.8c-0.3,0.2-1,0.3-1.7,0.3
		c-2.5,0-4.1-1.3-4.1-3.6v-4.9h-1.9v-3h1.9v-2.4l3.6-1.3v3.7h3.6L135.7,165.2z"/>
</g>
<g>
	<path class="st0" d="M39.2,199.8c-1.5,0-2.7-0.3-3.6-0.8l-0.3-3.2c1,0.7,2.3,1.2,3.5,1.2c0.7,0,1.1-0.4,1.1-0.8
		c0-0.5-0.4-0.7-1-0.9c-2.2-0.6-3.5-1.7-3.5-3.7c0-2.2,1.8-3.6,4.2-3.6c1.4,0,2.8,0.4,3.3,0.7l-0.6,2.7c-0.5-0.3-1.4-0.6-2.3-0.6
		c-0.6,0-1,0.3-1,0.7c0,0.4,0.3,0.6,1,0.8c2.5,0.7,3.6,1.9,3.6,3.8C43.7,198,42.3,199.8,39.2,199.8z"/>
	<path class="st0" d="M53.4,200c-0.7-0.1-1.4-0.7-1.7-1.5c-0.5,0.9-1.6,1.4-2.9,1.4c-2,0-3.8-1.4-3.8-3.7c0-2.1,1.6-3.5,3.9-3.7
		l2.2-0.2v-0.4c0-0.7-0.5-1.1-1.8-1.1c-1.1,0-2.3,0.4-3.1,0.9l-0.6-2.8c0.9-0.6,2.5-1,4-1c3,0,5.1,1.4,5.1,4.1v3.7
		c0,1.3,0.5,2,1.4,2.3L53.4,200z M51.1,194.6l-1.4,0.1c-0.9,0.1-1.4,0.7-1.4,1.4c0,0.6,0.5,1.1,1.1,1.1c0.9,0,1.6-0.7,1.6-1.6V194.6
		z"/>
	<path class="st0" d="M62.8,199.6h-2.7l-4.3-11.4h3.5l1.6,4.3c0.2,0.6,0.5,1.4,0.6,2.2h0.1c0.2-0.7,0.4-1.6,0.6-2.2l1.6-4.3h3.4
		L62.8,199.6z"/>
	<path class="st0" d="M70.4,186.6c-0.6,0-2-1.3-2-2s1.3-1.9,2-1.9s2,1.3,2,1.9S71,186.6,70.4,186.6z M68.5,199.5v-11.3h3.7v11.3
		H68.5z"/>
	<path class="st0" d="M81.8,199.5v-6.9c0-0.8-0.5-1.5-1.7-1.5c-1.1,0-1.8,0.7-1.8,1.6v6.9h-3.7v-11.3H78v1.5h0
		c0.4-1.2,1.6-1.9,3.4-1.9c2.5,0,4,1.4,4,3.8v7.9H81.8z"/>
	<path class="st0" d="M92.5,205.3c-3.3,0-5.5-1.9-5.5-4.2c0-1.7,1.2-2.7,2.3-3l-1.5-1.4c0.1-0.7,0.7-1.3,1.4-1.6
		c-0.8-0.5-1.6-1.6-1.6-3c0-2.4,1.7-4.1,4.7-4.1c0.7,0,1.2,0.1,1.7,0.2c0.5,0.1,1,0.2,1.6,0.2c0.6,0,1.3-0.1,1.8-0.4l0.7,2.8
		c-0.3,0.2-0.9,0.4-1.4,0.3c0.1,0.2,0.3,0.8,0.3,1.1c0,1.9-1.5,3.5-3.7,3.6c-0.5,0-0.8,0.1-0.8,0.4c0,0.1,0.1,0.3,0.3,0.4l1.8,0.6
		c2.2,0.8,3.4,1.9,3.4,4C98,203.5,95.8,205.3,92.5,205.3z M93.3,200l-1.3-0.4c-0.9,0-1.5,0.6-1.5,1.5c0,0.8,0.7,1.4,2,1.4
		c1.3,0,2-0.6,2-1.2C94.4,200.7,94,200.2,93.3,200z M92.3,190.5c-0.8,0-1.5,0.6-1.5,1.3c0,0.8,0.6,1.4,1.5,1.4
		c0.8,0,1.4-0.6,1.4-1.4C93.8,191.1,93.2,190.5,92.3,190.5z"/>
	<path class="st0" d="M103.1,199.8c-1.5,0-2.7-0.3-3.6-0.8l-0.3-3.2c1,0.7,2.3,1.2,3.5,1.2c0.7,0,1.1-0.4,1.1-0.8
		c0-0.5-0.4-0.7-1-0.9c-2.2-0.6-3.5-1.7-3.5-3.7c0-2.2,1.8-3.6,4.2-3.6c1.4,0,2.8,0.4,3.3,0.7l-0.6,2.7c-0.5-0.3-1.4-0.6-2.3-0.6
		c-0.6,0-1,0.3-1,0.7c0,0.4,0.3,0.6,1,0.8c2.5,0.7,3.6,1.9,3.6,3.8C107.6,198,106.2,199.8,103.1,199.8z"/>
	<path class="st0" d="M123,200c-0.7-0.1-1.5-0.7-1.8-1.5c-0.5,0.9-1.6,1.4-2.9,1.4c-2,0-3.8-1.4-3.8-3.7c0-2.1,1.6-3.5,3.9-3.7
		l2.2-0.2v-0.4c0-0.7-0.5-1.1-1.8-1.1c-1.1,0-2.3,0.4-3.1,0.9l-0.7-2.8c0.9-0.6,2.5-1,4-1c3,0,5.1,1.4,5.1,4.1v3.7
		c0,1.3,0.5,2,1.4,2.3L123,200z M120.6,194.6l-1.4,0.1c-0.9,0.1-1.4,0.7-1.4,1.4c0,0.6,0.4,1.1,1.1,1.1c0.9,0,1.6-0.7,1.6-1.6V194.6
		z"/>
</g>
<g>
	<path class="st0" d="M48.8,225.6h-2.5l-1.5-4.5c-0.2-0.7-0.5-1.5-0.7-2.3H44c-0.2,0.9-0.4,1.7-0.6,2.3l-1.5,4.5h-2.4l-3.9-11.4h3.3
		l1.4,4.3c0.2,0.6,0.4,1.4,0.5,2.2h0.1c0.1-0.7,0.3-1.5,0.5-2.2l1.4-4.3h2.8l1.4,4.3c0.2,0.7,0.4,1.5,0.5,2.2h0
		c0.1-0.7,0.4-1.5,0.6-2.2l1.4-4.3h3.1L48.8,225.6z"/>
	<path class="st0" d="M62,226c-0.7-0.1-1.4-0.7-1.7-1.5c-0.5,0.9-1.6,1.4-2.9,1.4c-2,0-3.8-1.4-3.8-3.7c0-2.1,1.6-3.5,3.9-3.7
		l2.2-0.2v-0.4c0-0.7-0.5-1.1-1.8-1.1c-1.1,0-2.3,0.4-3.1,0.9l-0.6-2.8c0.9-0.6,2.5-1,4-1c3,0,5.1,1.4,5.1,4.1v3.7
		c0,1.3,0.5,2,1.4,2.3L62,226z M59.7,220.6l-1.4,0.1c-0.9,0.1-1.4,0.7-1.4,1.4c0,0.6,0.5,1.1,1.1,1.1c0.9,0,1.6-0.7,1.6-1.6V220.6z"
		/>
	<path class="st0" d="M72.9,225.5l-3.3-4.6h0v4.6h-3.6v-17.8h3.6v11.1h0l3.4-4.6h4l-4,5.5l4.2,5.8H72.9z"/>
	<path class="st0" d="M88.2,219.2l-1.6,1.6H81c0.2,0.9,1.4,2,3.3,2c1.2,0,2.4-0.4,3.1-0.8l-0.3,3.1c-0.8,0.5-2.1,0.8-3.6,0.8
		c-3.4,0-6.2-2.4-6.2-6.1c0-3.6,2.6-6,5.9-6c3.1,0,5.1,2.2,5.1,4.5C88.3,218.6,88.2,219,88.2,219.2z M83.2,216.6
		c-1.1,0-2,0.8-2.2,1.8h3.8c0-0.1,0-0.1,0-0.2C84.9,217.4,84.2,216.6,83.2,216.6z"/>
	<path class="st0" d="M90.1,220v-2.8h6.5v2.8H90.1z"/>
	<path class="st0" d="M106.3,225.5V224h0c-0.5,1.2-1.6,1.9-3.5,1.9c-2.5,0-4-1.4-4-3.8v-7.9h3.7v6.9c0,0.8,0.6,1.5,1.7,1.5
		c1.1,0,1.8-0.7,1.8-1.6v-6.9h3.7v11.3H106.3z"/>
	<path class="st0" d="M118.4,225.8c-1.2,0-2.4-0.4-2.9-0.7v6.2H112v-17.1h3.2v1.4h0c0.6-1.1,1.9-1.7,3.5-1.7c2.8,0,5.4,2.1,5.4,6
		C124.2,223.5,121.6,225.8,118.4,225.8z M117.8,217.1c-1.1,0-1.8,0.6-2.2,1.2v3.5c0.3,0.5,1.1,1,2.2,1c1.6,0,2.7-1.2,2.7-2.8
		S119.4,217.1,117.8,217.1z"/>
</g>
<g>
	<path class="st0" d="M67.2,243.8c-0.7-0.5-1.5-0.7-2.4-0.7c-1.6,0-2.9,1.1-2.9,2.8c0,1.6,1.3,2.8,2.9,2.8c0.9,0,1.7-0.2,2.5-0.6
		l-0.3,3.1c-0.8,0.3-1.7,0.5-2.8,0.5c-3.2,0-6.1-2.2-6.1-5.9c0-3.7,3-5.9,6-5.9c1.5,0,2.7,0.3,3.7,0.9L67.2,243.8z"/>
	<path class="st0" d="M77.5,252c-0.7-0.1-1.4-0.7-1.7-1.5c-0.5,0.9-1.6,1.4-2.9,1.4c-2,0-3.8-1.4-3.8-3.7c0-2.1,1.6-3.5,3.9-3.7
		l2.2-0.2v-0.4c0-0.7-0.5-1.1-1.8-1.1c-1.1,0-2.3,0.4-3.1,0.9l-0.6-2.8c0.9-0.6,2.5-1,4-1c3,0,5.1,1.4,5.1,4.1v3.7
		c0,1.3,0.5,2,1.4,2.3L77.5,252z M75.2,246.6l-1.4,0.1c-1,0.1-1.4,0.7-1.4,1.4c0,0.6,0.5,1.1,1.1,1.1c0.9,0,1.6-0.7,1.6-1.6V246.6z"
		/>
	<path class="st0" d="M85.2,252c-2.3-0.1-3.9-1.3-3.9-4v-14.2h3.6v13.8c0,0.9,0.5,1.4,1.5,1.5L85.2,252z"/>
	<path class="st0" d="M91.7,252c-2.3-0.1-3.9-1.3-3.9-4v-14.2h3.6v13.8c0,0.9,0.5,1.4,1.5,1.5L91.7,252z"/>
	<path class="st0" d="M99.8,243.7c-0.6,0.7-0.9,1.3-0.9,2c0,0.4,0,0.8,0.1,1.1l-3.1-0.6c-0.1-0.5-0.2-0.9-0.2-1.3
		c0-1.3,0.5-2.5,1.4-3.4c0.7-0.7,1-1.1,1-1.9c0-0.5-0.5-1.1-1.4-1.1c-0.9,0-1.7,0.3-2.5,0.8l-0.7-3.1c0.9-0.6,2.1-0.9,3.6-0.9
		c3,0,4.9,1.7,4.9,4.2C101.9,240.9,101.3,242.1,99.8,243.7z M97.5,251.9c-0.7,0-2.1-1.4-2.1-2.1c0-0.6,1.4-2,2.1-2s2.1,1.4,2.1,2
		C99.6,250.5,98.2,251.9,97.5,251.9z"/>
</g>
</svg>
