<?xml version="1.0" encoding="utf-8"?>
<!-- Generator: Adobe Illustrator 24.0.0, SVG Export Plug-In . SVG Version: 6.00 Build 0)  -->
<svg version="1.1" id="Layer_1" xmlns="http://www.w3.org/2000/svg" xmlns:xlink="http://www.w3.org/1999/xlink" x="0px" y="0px"
	 viewBox="0 0 160 600" style="enable-background:new 0 0 160 600;" xml:space="preserve">
<style type="text/css">
	.st0{fill:#F9E039;}
</style>
<g>
	<path class="st0" d="M70.3,121.9c-4.4,0-8.8-2.9-8.8-8.3c0-5.5,4.5-8.4,8.8-8.4c2.2,0,4.1,0.6,5.2,1.3l-0.7,3.2
		c-1-0.6-2.5-1.1-4-1.1c-2.9,0-5.3,1.9-5.3,5.1c0,3,2.3,4.9,5.2,4.9c0.9,0,1.6-0.1,2.2-0.5v-2.5h-2.8v-3h6.3v7.6
		C74.8,121.3,72.9,121.9,70.3,121.9z"/>
	<path class="st0" d="M89,115.2l-1.6,1.6h-5.5c0.2,0.9,1.4,2,3.3,2c1.2,0,2.4-0.4,3.1-0.8l-0.4,3.1c-0.8,0.5-2.1,0.8-3.6,0.8
		c-3.4,0-6.2-2.4-6.2-6.1c0-3.6,2.6-6,5.9-6c3.1,0,5.1,2.2,5.1,4.5C89.1,114.6,89,115,89,115.2z M84,112.6c-1.1,0-2,0.8-2.2,1.8h3.8
		c0-0.1,0-0.1,0-0.2C85.7,113.4,85,112.6,84,112.6z"/>
	<path class="st0" d="M98.6,113.2h-2.9v4.2c0,1,0.5,1.4,1.5,1.4c0.4,0,0.7,0,1-0.1l-0.3,2.8c-0.3,0.2-1,0.3-1.7,0.3
		c-2.5,0-4.1-1.3-4.1-3.6v-4.9h-1.9v-3H92v-2.4l3.6-1.3v3.7h3.6L98.6,113.2z"/>
</g>
<g>
	<path class="st0" d="M26.9,153.3c-3.3,0-5.5-1.9-5.5-4.2c0-1.7,1.1-2.7,2.3-3l-1.4-1.4c0.1-0.7,0.7-1.3,1.4-1.6
		c-0.9-0.5-1.6-1.6-1.6-3c0-2.4,1.7-4.1,4.7-4.1c0.7,0,1.2,0.1,1.7,0.2c0.5,0.1,1,0.2,1.6,0.2c0.6,0,1.3-0.1,1.8-0.4l0.7,2.8
		c-0.4,0.2-0.9,0.4-1.4,0.3c0.1,0.2,0.3,0.8,0.3,1.1c0,1.9-1.5,3.5-3.7,3.6c-0.4,0-0.7,0.1-0.7,0.4c0,0.1,0.1,0.3,0.3,0.4l1.7,0.6
		c2.2,0.8,3.4,1.9,3.4,4C32.4,151.5,30.2,153.3,26.9,153.3z M27.7,148l-1.3-0.4c-0.9,0-1.5,0.6-1.5,1.5c0,0.8,0.7,1.4,2,1.4
		c1.3,0,2-0.6,2-1.2C28.8,148.7,28.4,148.2,27.7,148z M26.7,138.5c-0.8,0-1.4,0.6-1.4,1.3c0,0.8,0.6,1.4,1.4,1.4
		c0.8,0,1.4-0.6,1.4-1.4C28.2,139.1,27.6,138.5,26.7,138.5z"/>
	<path class="st0" d="M41.3,147.5V146h0c-0.4,1.2-1.6,1.9-3.5,1.9c-2.5,0-4-1.4-4-3.8v-7.9h3.7v6.9c0,0.8,0.6,1.5,1.7,1.5
		c1.1,0,1.8-0.7,1.8-1.6v-6.9h3.7v11.3H41.3z"/>
	<path class="st0" d="M54.9,148c-0.7-0.1-1.4-0.7-1.7-1.5c-0.5,0.9-1.6,1.4-2.9,1.4c-2,0-3.8-1.4-3.8-3.7c0-2.1,1.6-3.5,3.9-3.7
		l2.2-0.2v-0.4c0-0.7-0.5-1.1-1.8-1.1c-1.1,0-2.3,0.4-3.1,0.9l-0.6-2.8c0.9-0.6,2.5-1,4-1c3,0,5.1,1.4,5.1,4.1v3.7
		c0,1.3,0.5,2,1.4,2.3L54.9,148z M52.6,142.6l-1.4,0.1c-1,0.1-1.4,0.7-1.4,1.4c0,0.6,0.5,1.1,1.1,1.1c0.9,0,1.6-0.7,1.6-1.6V142.6z"
		/>
	<path class="st0" d="M65.8,140.1c-0.2-0.1-0.7-0.3-1.1-0.3c-1.2,0-2.2,0.6-2.2,2.4v5.3h-3.7v-11.3h3.6v2.5h0
		c0.4-1.8,1.7-2.7,3.2-2.7c0.3,0,0.8,0,1,0.1L65.8,140.1z"/>
	<path class="st0" d="M75.8,148c-0.7-0.1-1.4-0.7-1.7-1.5c-0.5,0.9-1.6,1.4-2.9,1.4c-2,0-3.8-1.4-3.8-3.7c0-2.1,1.6-3.5,3.9-3.7
		l2.2-0.2v-0.4c0-0.7-0.5-1.1-1.8-1.1c-1.1,0-2.3,0.4-3.1,0.9l-0.6-2.8c0.9-0.6,2.5-1,4-1c3,0,5.1,1.4,5.1,4.1v3.7
		c0,1.3,0.5,2,1.4,2.3L75.8,148z M73.5,142.6l-1.4,0.1c-0.9,0.1-1.4,0.7-1.4,1.4c0,0.6,0.5,1.1,1.1,1.1c0.9,0,1.6-0.7,1.6-1.6V142.6
		z"/>
	<path class="st0" d="M86.8,147.5v-6.9c0-0.8-0.5-1.5-1.7-1.5c-1.1,0-1.8,0.7-1.8,1.6v6.9h-3.7v-11.3H83v1.5h0
		c0.5-1.2,1.6-1.9,3.4-1.9c2.5,0,4,1.4,4,3.8v7.9H86.8z"/>
	<path class="st0" d="M100.2,139.2h-2.9v4.2c0,1,0.5,1.4,1.5,1.4c0.4,0,0.7,0,1-0.1l-0.3,2.8c-0.3,0.2-1,0.3-1.7,0.3
		c-2.5,0-4.1-1.3-4.1-3.6v-4.9h-1.9v-3h1.9v-2.4l3.6-1.3v3.7h3.6L100.2,139.2z"/>
	<path class="st0" d="M112.3,141.2l-1.6,1.6h-5.5c0.2,0.9,1.4,2,3.3,2c1.2,0,2.4-0.4,3.1-0.8l-0.3,3.1c-0.8,0.5-2.1,0.8-3.6,0.8
		c-3.4,0-6.2-2.4-6.2-6.1c0-3.6,2.6-6,5.9-6c3.1,0,5.1,2.2,5.1,4.5C112.4,140.6,112.4,141,112.3,141.2z M107.3,138.6
		c-1.1,0-2,0.8-2.2,1.8h3.8c0-0.1,0-0.1,0-0.2C109,139.4,108.3,138.6,107.3,138.6z"/>
	<path class="st0" d="M124.5,141.2l-1.6,1.6h-5.5c0.2,0.9,1.4,2,3.3,2c1.2,0,2.4-0.4,3.1-0.8l-0.3,3.1c-0.8,0.5-2.1,0.8-3.6,0.8
		c-3.4,0-6.2-2.4-6.2-6.1c0-3.6,2.6-6,5.9-6c3.1,0,5.1,2.2,5.1,4.5C124.6,140.6,124.6,141,124.5,141.2z M119.5,138.6
		c-1.1,0-2,0.8-2.2,1.8h3.8c0-0.1,0-0.1,0-0.2C121.2,139.4,120.5,138.6,119.5,138.6z"/>
	<path class="st0" d="M134.9,147.5v-1.4h0c-0.6,1.1-1.9,1.7-3.5,1.7c-2.8,0-5.4-2.1-5.4-6c0-3.6,2.6-6,5.7-6c1.2,0,2.4,0.4,2.9,0.8
		v-6.9h3.6v17.8H134.9z M134.5,140.1c-0.3-0.5-1.1-1-2.2-1c-1.6,0-2.7,1.2-2.7,2.9s1.1,2.9,2.7,2.9c1.1,0,1.8-0.6,2.2-1.2V140.1z"/>
</g>
<g>
	<path class="st0" d="M44.2,174c-2.3-0.1-3.9-1.3-3.9-4v-14.2H44v13.8c0,0.9,0.5,1.4,1.5,1.5L44.2,174z"/>
	<path class="st0" d="M48.8,160.6c-0.6,0-2-1.3-2-2s1.3-1.9,2-1.9s2,1.3,2,1.9S49.5,160.6,48.8,160.6z M47,173.5v-11.3h3.7v11.3H47z
		"/>
	<path class="st0" d="M61,159c-0.4-0.2-1-0.3-1.5-0.3c-1.3,0-2,0.8-2,2.4v1.1h3.2l-0.7,3h-2.5v8.3h-3.5v-8.3h-1.7v-3h1.7v-1.3
		c0-3.4,2.2-5.1,5.1-5.1c1,0,2.1,0.1,2.7,0.4L61,159z"/>
	<path class="st0" d="M72.1,167.2l-1.6,1.6h-5.5c0.2,0.9,1.4,2,3.3,2c1.2,0,2.4-0.4,3.1-0.8l-0.3,3.1c-0.9,0.5-2.1,0.8-3.6,0.8
		c-3.4,0-6.2-2.4-6.2-6.1c0-3.6,2.6-6,5.9-6c3.1,0,5.1,2.2,5.1,4.5C72.2,166.6,72.1,167,72.1,167.2z M67.1,164.6
		c-1.1,0-2,0.8-2.2,1.8h3.8c0-0.1,0-0.1,0-0.2C68.7,165.4,68.1,164.6,67.1,164.6z"/>
	<path class="st0" d="M81.6,165.2h-2.9v4.2c0,1,0.5,1.4,1.5,1.4c0.4,0,0.7,0,0.9-0.1l-0.3,2.8c-0.4,0.2-1,0.3-1.7,0.3
		c-2.5,0-4.1-1.3-4.1-3.6v-4.9h-1.9v-3H75v-2.4l3.6-1.3v3.7h3.6L81.6,165.2z"/>
	<path class="st0" d="M85.5,160.6c-0.6,0-2-1.3-2-2s1.3-1.9,2-1.9s2,1.3,2,1.9S86.2,160.6,85.5,160.6z M83.7,173.5v-11.3h3.7v11.3
		H83.7z"/>
	<path class="st0" d="M103.7,173.5v-6.9c0-0.8-0.4-1.5-1.6-1.5c-1.2,0-1.7,0.7-1.7,1.6v6.9h-3.7v-6.9c0-0.8-0.4-1.5-1.6-1.5
		c-1.2,0-1.7,0.7-1.7,1.6v6.9h-3.7v-11.3h3.4v1.5h0c0.5-1.2,1.6-1.9,3.3-1.9c1.6,0,2.8,0.6,3.3,1.8c0.5-1.1,1.8-1.8,3.5-1.8
		c2.6,0,4,1.4,4,3.8v7.9H103.7z"/>
	<path class="st0" d="M120.1,167.2l-1.6,1.6h-5.5c0.2,0.9,1.4,2,3.3,2c1.2,0,2.4-0.4,3.1-0.8l-0.3,3.1c-0.8,0.5-2.1,0.8-3.6,0.8
		c-3.4,0-6.2-2.4-6.2-6.1c0-3.6,2.6-6,5.9-6c3.1,0,5.1,2.2,5.1,4.5C120.2,166.6,120.1,167,120.1,167.2z M115.1,164.6
		c-1.1,0-2,0.8-2.2,1.8h3.8c0-0.1,0-0.1,0-0.2C116.8,165.4,116.1,164.6,115.1,164.6z"/>
</g>
<g>
	<path class="st0" d="M45,186.6c-0.6,0-2-1.3-2-2s1.3-1.9,2-1.9s2,1.3,2,1.9S45.7,186.6,45,186.6z M43.2,199.5v-11.3h3.7v11.3H43.2z
		"/>
	<path class="st0" d="M56.4,199.5v-6.9c0-0.8-0.5-1.5-1.7-1.5c-1.1,0-1.8,0.7-1.8,1.6v6.9h-3.7v-11.3h3.4v1.5h0
		c0.4-1.2,1.6-1.9,3.4-1.9c2.5,0,4,1.4,4,3.8v7.9H56.4z"/>
	<path class="st0" d="M71,191.8c-0.7-0.5-1.5-0.7-2.4-0.7c-1.6,0-2.9,1.1-2.9,2.8c0,1.6,1.3,2.8,2.9,2.8c0.9,0,1.7-0.2,2.5-0.6
		l-0.3,3.1c-0.8,0.3-1.7,0.5-2.8,0.5c-3.2,0-6.1-2.2-6.1-5.9c0-3.7,3-5.9,6-5.9c1.5,0,2.7,0.3,3.7,0.9L71,191.8z"/>
	<path class="st0" d="M78.9,199.9c-3.4,0-6.2-2.4-6.2-6s2.7-6,6.2-6c3.4,0,6.2,2.4,6.2,6S82.3,199.9,78.9,199.9z M78.9,191
		c-1.4,0-2.5,1.2-2.5,2.9c0,1.7,1.2,2.9,2.5,2.9c1.3,0,2.5-1.2,2.5-2.9C81.4,192.2,80.2,191,78.9,191z"/>
	<path class="st0" d="M100.8,199.5v-6.9c0-0.8-0.4-1.5-1.6-1.5c-1.2,0-1.7,0.7-1.7,1.6v6.9h-3.7v-6.9c0-0.8-0.4-1.5-1.6-1.5
		c-1.2,0-1.7,0.7-1.7,1.6v6.9h-3.7v-11.3h3.4v1.5h0c0.5-1.2,1.6-1.9,3.3-1.9c1.6,0,2.8,0.6,3.3,1.8c0.5-1.1,1.8-1.8,3.5-1.8
		c2.6,0,4,1.4,4,3.8v7.9H100.8z"/>
	<path class="st0" d="M117.2,193.2l-1.6,1.6H110c0.2,0.9,1.4,2,3.3,2c1.2,0,2.4-0.4,3.1-0.8l-0.3,3.1c-0.8,0.5-2.1,0.8-3.6,0.8
		c-3.4,0-6.2-2.4-6.2-6.1c0-3.6,2.6-6,5.9-6c3.1,0,5.1,2.2,5.1,4.5C117.3,192.6,117.3,193,117.2,193.2z M112.2,190.6
		c-1.1,0-2,0.8-2.2,1.8h3.8c0-0.1,0-0.1,0-0.2C113.9,191.4,113.2,190.6,112.2,190.6z"/>
</g>
<g>
	<path class="st0" d="M35.1,217.2h-2.9v4.2c0,1,0.5,1.4,1.5,1.4c0.4,0,0.7,0,0.9-0.1l-0.3,2.8c-0.4,0.2-1,0.3-1.7,0.3
		c-2.5,0-4.1-1.3-4.1-3.6v-4.9h-1.9v-3h1.9v-2.4l3.6-1.3v3.7h3.6L35.1,217.2z"/>
	<path class="st0" d="M44.2,225.5v-6.9c0-0.8-0.6-1.5-1.7-1.5c-1.1,0-1.8,0.7-1.8,1.6v6.9h-3.7v-17.8h3.6v7.5h0
		c0.6-0.9,1.6-1.4,3.2-1.4c2.5,0,4,1.4,4,3.8v7.9H44.2z"/>
	<path class="st0" d="M58.2,226c-0.7-0.1-1.4-0.7-1.7-1.5c-0.5,0.9-1.6,1.4-2.9,1.4c-2,0-3.8-1.4-3.8-3.7c0-2.1,1.6-3.5,3.9-3.7
		l2.2-0.2v-0.4c0-0.7-0.5-1.1-1.8-1.1c-1.1,0-2.3,0.4-3.1,0.9l-0.6-2.8c0.9-0.6,2.5-1,4-1c3,0,5.1,1.4,5.1,4.1v3.7
		c0,1.3,0.5,2,1.4,2.3L58.2,226z M55.8,220.6l-1.4,0.1c-0.9,0.1-1.4,0.7-1.4,1.4c0,0.6,0.5,1.1,1.1,1.1c0.9,0,1.6-0.7,1.6-1.6V220.6
		z"/>
	<path class="st0" d="M69.3,217.2h-2.9v4.2c0,1,0.5,1.4,1.5,1.4c0.4,0,0.7,0,1-0.1l-0.3,2.8c-0.4,0.2-1,0.3-1.7,0.3
		c-2.5,0-4.1-1.3-4.1-3.6v-4.9h-1.9v-3h1.9v-2.4l3.6-1.3v3.7H70L69.3,217.2z"/>
	<path class="st0" d="M84,225.5v-6.9c0-0.8-0.5-1.5-1.7-1.5c-1.1,0-1.8,0.7-1.8,1.6v6.9h-3.7v-11.3h3.4v1.5h0
		c0.5-1.2,1.6-1.9,3.4-1.9c2.5,0,4,1.4,4,3.8v7.9H84z"/>
	<path class="st0" d="M100.4,219.2l-1.6,1.6h-5.5c0.2,0.9,1.4,2,3.3,2c1.2,0,2.4-0.4,3.1-0.8l-0.3,3.1c-0.8,0.5-2.1,0.8-3.6,0.8
		c-3.4,0-6.2-2.4-6.2-6.1c0-3.6,2.6-6,5.9-6c3.1,0,5.1,2.2,5.1,4.5C100.5,218.6,100.4,219,100.4,219.2z M95.4,216.6
		c-1.1,0-2,0.8-2.2,1.8H97c0-0.1,0-0.1,0-0.2C97.1,217.4,96.4,216.6,95.4,216.6z"/>
	<path class="st0" d="M108.1,225.6h-2.8l-4.3-11.4h3.5l1.6,4.3c0.2,0.6,0.5,1.4,0.6,2.2h0c0.2-0.7,0.4-1.6,0.7-2.2l1.6-4.3h3.4
		L108.1,225.6z"/>
	<path class="st0" d="M123.6,219.2l-1.6,1.6h-5.5c0.2,0.9,1.4,2,3.3,2c1.2,0,2.4-0.4,3.1-0.8l-0.3,3.1c-0.8,0.5-2.1,0.8-3.6,0.8
		c-3.4,0-6.2-2.4-6.2-6.1c0-3.6,2.6-6,5.9-6c3.1,0,5.1,2.2,5.1,4.5C123.7,218.6,123.7,219,123.6,219.2z M118.7,216.6
		c-1.1,0-2,0.8-2.2,1.8h3.8c0-0.1,0-0.1,0-0.2C120.3,217.4,119.6,216.6,118.7,216.6z"/>
	<path class="st0" d="M132.6,218.1c-0.2-0.1-0.7-0.3-1.1-0.3c-1.2,0-2.2,0.6-2.2,2.4v5.3h-3.7v-11.3h3.6v2.5h0
		c0.4-1.8,1.7-2.7,3.2-2.7c0.4,0,0.8,0,1,0.1L132.6,218.1z"/>
</g>
<g>
	<path class="st0" d="M41.7,244.1c-0.2-0.1-0.7-0.3-1.1-0.3c-1.2,0-2.2,0.6-2.2,2.4v5.3h-3.7v-11.3h3.6v2.5h0
		c0.4-1.8,1.7-2.7,3.2-2.7c0.3,0,0.8,0,1,0.1L41.7,244.1z"/>
	<path class="st0" d="M51.3,251.5V250h0c-0.4,1.2-1.6,1.9-3.5,1.9c-2.5,0-4-1.4-4-3.8v-7.9h3.7v6.9c0,0.8,0.6,1.5,1.7,1.5
		c1.1,0,1.8-0.7,1.8-1.6v-6.9h3.7v11.3H51.3z"/>
	<path class="st0" d="M64.1,251.5v-6.9c0-0.8-0.5-1.5-1.7-1.5c-1.1,0-1.8,0.7-1.8,1.6v6.9H57v-11.3h3.4v1.5h0
		c0.4-1.2,1.6-1.9,3.4-1.9c2.5,0,4,1.4,4,3.8v7.9H64.1z"/>
	<path class="st0" d="M73.7,251.8c-1.5,0-2.7-0.3-3.6-0.8l-0.3-3.2c1,0.7,2.3,1.2,3.5,1.2c0.7,0,1.1-0.4,1.1-0.8
		c0-0.5-0.4-0.7-1-0.9c-2.2-0.6-3.5-1.7-3.5-3.7c0-2.2,1.8-3.6,4.2-3.6c1.4,0,2.8,0.4,3.3,0.7l-0.6,2.7c-0.5-0.3-1.4-0.6-2.3-0.6
		c-0.6,0-1,0.3-1,0.7c0,0.4,0.3,0.6,1,0.8c2.5,0.7,3.6,1.9,3.6,3.8C78.2,250,76.8,251.8,73.7,251.8z"/>
	<path class="st0" d="M91.3,251.9c-3.4,0-6.2-2.4-6.2-6s2.7-6,6.2-6c3.4,0,6.2,2.4,6.2,6S94.7,251.9,91.3,251.9z M91.3,243
		c-1.4,0-2.5,1.2-2.5,2.9c0,1.7,1.2,2.9,2.5,2.9c1.3,0,2.5-1.2,2.5-2.9C93.9,244.2,92.7,243,91.3,243z"/>
	<path class="st0" d="M106.8,251.5V250h0c-0.5,1.2-1.6,1.9-3.5,1.9c-2.5,0-4-1.4-4-3.8v-7.9h3.7v6.9c0,0.8,0.6,1.5,1.7,1.5
		c1.1,0,1.8-0.7,1.8-1.6v-6.9h3.7v11.3H106.8z"/>
	<path class="st0" d="M120.1,243.2h-2.9v4.2c0,1,0.5,1.4,1.5,1.4c0.4,0,0.7,0,1-0.1l-0.3,2.8c-0.3,0.2-1,0.3-1.7,0.3
		c-2.5,0-4.1-1.3-4.1-3.6v-4.9h-1.9v-3h1.9v-2.4l3.6-1.3v3.7h3.6L120.1,243.2z"/>
	<path class="st0" d="M123.6,251.9c-0.7,0-2.1-1.4-2.1-2.1c0-0.6,1.4-2,2.1-2s2.1,1.4,2.1,2C125.6,250.5,124.2,251.9,123.6,251.9z"
		/>
</g>
</svg>
