<?xml version="1.0" encoding="utf-8"?>
<!-- Generator: Adobe Illustrator 24.0.0, SVG Export Plug-In . SVG Version: 6.00 Build 0)  -->
<svg version="1.1" id="Layer_1" xmlns="http://www.w3.org/2000/svg" xmlns:xlink="http://www.w3.org/1999/xlink" x="0px" y="0px"
	 viewBox="0 0 160 600" style="enable-background:new 0 0 160 600;" xml:space="preserve">
<style type="text/css">
	.st0{fill:#3ABFEF;}
</style>
<path class="st0" d="M23.9,448.3c-5.3,0-9.7,4.3-9.7,9.7v9.5c0,5.3,4.3,9.7,9.7,9.7h112.1c5.3,0,9.7-4.3,9.7-9.7V458
	c0-5.3-4.3-9.7-9.7-9.7H23.9z"/>
<g>
	<path d="M29.2,463.5V462h3.4v4.4h-0.9l-0.3-0.9c-0.6,0.7-1.3,1.1-2.2,1.1c-2.4,0-3.4-2-3.4-4.1c0-2.2,1.1-4.3,3.5-4.3
		c1.8,0,2.9,1.1,3.2,2.8l-1.8,0.2c-0.1-0.8-0.5-1.5-1.4-1.5c-1.3,0-1.5,1.7-1.5,2.8c0,1.1,0.3,2.6,1.6,2.6c0.8,0,1.4-0.6,1.4-1.4
		H29.2z"/>
	<path d="M34.6,465.2c-0.6-0.8-0.9-1.9-0.9-2.9c0-2.2,1.1-4.2,3.5-4.2c1.1,0,1.9,0.4,2.6,1.2c0.6,0.8,0.9,2,0.9,2.9
		c0,0.9-0.2,2.1-0.8,2.8c-0.6,0.9-1.6,1.4-2.7,1.4S35.2,466.1,34.6,465.2z M36,460.6c-0.2,0.5-0.3,1.2-0.3,1.7c0,1,0.2,2.7,1.5,2.7
		c0.7,0,1-0.3,1.2-0.9c0.2-0.5,0.2-1.2,0.2-1.7c0-0.6-0.1-1.3-0.3-1.8c-0.2-0.5-0.6-0.8-1.2-0.8C36.6,459.7,36.2,460,36,460.6z"/>
	<path d="M50.9,459.8h-2v6.5H47v-6.5h-2.1v-1.6h6V459.8z"/>
	<path d="M52.4,465.2c-0.6-0.8-0.9-1.9-0.9-2.9c0-2.2,1.1-4.2,3.5-4.2c1.1,0,1.9,0.4,2.6,1.2c0.6,0.8,0.9,2,0.9,2.9
		c0,0.9-0.2,2.1-0.8,2.8c-0.6,0.9-1.6,1.4-2.7,1.4S53.1,466.1,52.4,465.2z M53.8,460.6c-0.2,0.5-0.3,1.2-0.3,1.7
		c0,1,0.2,2.7,1.5,2.7c0.7,0,1-0.3,1.2-0.9c0.2-0.5,0.2-1.2,0.2-1.7c0-0.6-0.1-1.3-0.3-1.8c-0.2-0.5-0.6-0.8-1.2-0.8
		C54.4,459.7,54,460,53.8,460.6z"/>
	<path d="M67.9,461.4c0-0.9-0.3-1.7-1.4-1.7c-1.3,0-1.5,1.8-1.5,2.7c0,1.1,0.1,2.6,1.6,2.6c0.9,0,1.3-0.7,1.4-1.5l1.9,0.1
		c-0.2,1.9-1.5,3-3.4,3c-2.4,0-3.6-2-3.6-4.2c0-2.3,1.2-4.2,3.7-4.2c2,0,3.1,1.2,3.3,3.2L67.9,461.4z"/>
	<path d="M77.9,466.4h-2.1l-0.5-1.7h-2.6l-0.5,1.7h-1.7l2.6-8.2h2.2L77.9,466.4z M74.9,463.2l-0.9-2.9l-0.9,2.9H74.9z"/>
	<path d="M83.9,464.8v1.6h-5.2v-8.2h1.9v6.5H83.9z"/>
	<path d="M89.3,461.4c0-0.9-0.3-1.7-1.4-1.7c-1.3,0-1.5,1.8-1.5,2.7c0,1.1,0.1,2.6,1.6,2.6c0.9,0,1.3-0.7,1.4-1.5l1.9,0.1
		c-0.2,1.9-1.5,3-3.4,3c-2.4,0-3.6-2-3.6-4.2c0-2.3,1.2-4.2,3.7-4.2c2,0,3.1,1.2,3.3,3.2L89.3,461.4z"/>
	<path d="M98.9,463.1c0,0.9,0,1.8-0.7,2.5c-0.7,0.7-1.6,0.9-2.5,0.9c-0.9,0-1.8-0.1-2.5-0.7c-0.8-0.7-0.8-1.6-0.8-2.6v-4.9h2.1v4.9
		c0,0.4,0,0.9,0.2,1.3c0.2,0.4,0.8,0.5,1.2,0.5c0.4,0,0.9-0.1,1.2-0.4c0.3-0.4,0.2-0.9,0.2-1.4v-4.9h1.6V463.1z"/>
	<path d="M105.5,464.8v1.6h-5.2v-8.2h1.9v6.5H105.5z"/>
	<path d="M113,466.4H111l-0.5-1.7h-2.6l-0.5,1.7h-1.7l2.6-8.2h2.2L113,466.4z M110,463.2l-0.9-2.9l-0.9,2.9H110z"/>
	<path d="M118.6,459.8h-2v6.5h-1.9v-6.5h-2.1v-1.6h6V459.8z"/>
	<path d="M120.1,465.2c-0.6-0.8-0.9-1.9-0.9-2.9c0-2.2,1.1-4.2,3.5-4.2c1.1,0,1.9,0.4,2.6,1.2c0.6,0.8,0.9,2,0.9,2.9
		c0,0.9-0.2,2.1-0.8,2.8c-0.6,0.9-1.6,1.4-2.7,1.4S120.7,466.1,120.1,465.2z M121.5,460.6c-0.2,0.5-0.3,1.2-0.3,1.7
		c0,1,0.2,2.7,1.5,2.7c0.7,0,1-0.3,1.2-0.9c0.2-0.5,0.2-1.2,0.2-1.7c0-0.6-0.1-1.3-0.3-1.8c-0.2-0.5-0.6-0.8-1.2-0.8
		C122.1,459.7,121.7,460,121.5,460.6z"/>
	<path d="M129.3,466.4h-1.9v-8.2h3.4c0.7,0,1.5,0,2.1,0.4c0.7,0.4,1,1.2,1,2c0,0.9-0.5,1.8-1.4,2.1l1.5,3.6H132l-1.2-3.2h-1.4V466.4
		z M129.3,461.7h1c0.4,0,0.8,0,1.2-0.2c0.3-0.2,0.5-0.6,0.5-0.9c0-0.3-0.2-0.7-0.5-0.8c-0.3-0.2-0.9-0.2-1.2-0.2h-1V461.7z"/>
</g>
</svg>
