<svg id="Layer_1" xmlns="http://www.w3.org/2000/svg" viewBox="0 0 300 600"><style>.st0{fill:#3f2718}.st1{fill:#ffdd15}.st2{fill:#e01b22}.st3{fill:#fff}</style><path class="st0" d="M214.9 400.1c-.7.8-1.9.8-2.6.1L197.4 387c-.8-.7-.8-1.9-.1-2.6.7-.8 1.9-.8 2.6-.1l14.8 13.2c.8.6.9 1.8.2 2.6"/><path transform="rotate(-45.001 199.389 398.358)" class="st0" d="M191.1 397.2h16.5v2.2h-16.5z"/><path class="st0" d="M263.6 327h2.3v62.4h-2.3z"/><path class="st1" d="M268.7 328c0 2.2-1.8 4-4 4s-4-1.8-4-4 1.8-4 4-4 4 1.8 4 4M246.5 409.9c-2.5-1.1-3.6-4.1-2.5-6.6l10.8-23.9c1.1-2.5 4.1-3.6 6.6-2.5s3.6 4.1 2.5 6.6l-10.8 23.9c-1.1 2.5-4.1 3.6-6.6 2.5"/><path class="st2" d="M266.4 382.9c-9.9 6.2-12.3 21.5-12.3 21.5h-45.7c-11.2 0-13.1-10.2-13.1-10.2-3.1-16.1-15.5-22.7-20.1-24.6-14.9 11.7-24.5 29.8-24.5 50.2 0 3.9.4 7.8 1.1 11.5h125.4c.7-3.7 1.1-7.6 1.1-11.5-.2-13.8-4.6-26.5-11.9-36.9"/><path class="st0" d="M283.2 446.2H145.6c-5.3 0-9.6-4.3-9.6-9.6s4.3-9.6 9.6-9.6h137.6c5.3 0 9.6 4.3 9.6 9.6-.1 5.3-4.4 9.6-9.6 9.6M170 412.9c0 5.8-3.1 10.5-7 10.5s-7-4.7-7-10.5 3.1-10.5 7-10.5c3.9-.1 7 4.6 7 10.5"/><path class="st3" d="M164.9 402.7c-2.9 1.2-5.1 5.3-5.1 10.1s2.2 8.9 5.1 10.1c2.9-1.2 5.1-5.3 5.1-10.1s-2.2-8.8-5.1-10.1M258.1 407.5h-62c-1.1 0-2.1-.9-2.1-2.1 0-1.1.9-2.1 2.1-2.1h62c1.1 0 2.1.9 2.1 2.1 0 1.2-.9 2.1-2.1 2.1"/></svg>