<svg id="Layer_1" xmlns="http://www.w3.org/2000/svg" viewBox="0 0 300 600"><style>.st0{fill:#03cba2}.st1{fill:#3f2718}.st2{fill:#ffdd15}.st3{fill:#e01b22}.st4{fill:#fff}</style><path class="st0" d="M-403-13h300v600h-300z"/><path class="st1" d="M80.8 387.2c.7.8 1.9.8 2.6.1l14.8-13.2c.8-.7.8-1.9.1-2.6-.7-.8-1.9-.8-2.6-.1L81 384.6c-.8.7-.8 1.8-.2 2.6"/><path transform="rotate(-45.001 96.33 385.472)" class="st1" d="M95.2 377.2h2.2v16.5h-2.2z"/><path class="st1" d="M29.9 317.5h2.3v59.1h-2.3z"/><path class="st2" d="M27 315.1c0 2.2 1.8 4 4 4s4-1.8 4-4-1.8-4-4-4-4 1.8-4 4M49.2 397c2.5-1.1 3.6-4.1 2.5-6.6l-10.8-23.9c-1.1-2.5-4.1-3.6-6.6-2.5s-3.6 4.1-2.5 6.6l10.8 23.9c1.1 2.5 4.1 3.6 6.6 2.5"/><path class="st3" d="M29.4 370c9.9 6.2 12.3 21.5 12.3 21.5h45.7c11.2 0 13.1-10.2 13.1-10.2 3.1-16.1 15.5-22.7 20.1-24.6 14.9 11.7 24.5 29.8 24.5 50.2 0 3.9-.4 7.8-1.1 11.5H18.7c-.7-3.7-1.1-7.6-1.1-11.5 0-13.8 4.4-26.5 11.8-36.9"/><path class="st1" d="M12.6 433.3h137.6c5.3 0 9.6-4.3 9.6-9.6s-4.3-9.6-9.6-9.6H12.6c-5.3 0-9.6 4.3-9.6 9.6s4.3 9.6 9.6 9.6M129.7 400c0 5.8 3.1 10.5 7 10.5s7-4.7 7-10.5-3.1-10.5-7-10.5c-3.9-.1-7 4.6-7 10.5"/><path class="st4" d="M134.8 389.9c2.9 1.2 5.1 5.3 5.1 10.1s-2.2 8.9-5.1 10.1c-2.9-1.2-5.1-5.3-5.1-10.1 0-4.9 2.2-8.9 5.1-10.1M37.6 394.6h62c1.1 0 2.1-.9 2.1-2.1s-.9-2.1-2.1-2.1h-62c-1.1 0-2.1.9-2.1 2.1s1 2.1 2.1 2.1"/></svg>