<svg id="Layer_1" xmlns="http://www.w3.org/2000/svg" viewBox="0 0 300 600"><style>.st0{fill:#03cba2}.st1{fill:#b8e0d2}.st2{fill:#fffdf6}.st3{fill:#898f95}.st4{fill:none}</style><path class="st0" d="M-403-13h300v600h-300z"/><path transform="rotate(-18.897 64.323 364.556)" class="st1" d="M44.6 326H84v77H44.6z"/><path class="st2" d="M96 393.7L57.2 407 32 333.3 70.8 320 96 393.7zm-26.3-71.5l-35.4 12.1 24.1 70.3 35.4-12.1-24.1-70.3z"/><path class="st3" d="M65.5 361.6l11 32.2c.1.4.5.6.9.4s.6-.5.4-.9l-11-32.2c-.1-.4-.5-.6-.9-.4-.3.1-.5.5-.4.9M56.6 370.2l9.3 27.1c.1.4.5.6.9.4.4-.1.6-.5.4-.9l-9.2-27c-.1-.4-.5-.6-.9-.4-.4.1-.6.5-.5.8M45.4 337.5l9.3 27.1c.1.4.5.6.9.4.4-.1.6-.5.4-.9L46.7 337c-.1-.4-.5-.6-.9-.4-.3.2-.5.6-.4.9M50.2 335.9l20.5 59.8c.1.4.5.6.9.4.4-.1.6-.5.4-.9l-20.5-59.8c-.1-.4-.5-.6-.9-.4-.3.2-.5.6-.4.9M63.6 331.2l6.7 19.6c.1.4.5.6.9.4.4-.1.6-.5.4-.9l-6.7-19.6c-.1-.4-.5-.6-.9-.4-.3.1-.5.5-.4.9M78.2 371.5l6.7 19.6c.1.4.5.6.9.4.4-.1.6-.5.4-.9L79.5 371c-.1-.4-.5-.6-.9-.4-.4.1-.6.5-.4.9M74.8 372.7l6.7 19.6c.1.4.5.6.9.4.4-.1.6-.5.4-.9l-6.7-19.6c-.1-.4-.5-.6-.9-.4-.3.1-.5.5-.4.9"/><path transform="rotate(-18.897 61.18 342.369)" class="st2" d="M58.2 331.7h6V353h-6z"/><path class="st3" d="M65.1 353.8c.1.1.3.1.4.3l.5.5c.2.2.4.3.5.4.1 0 .2.1.3 0 .1 0 .2-.1.2-.2.1-.1.1-.2 0-.4s-.3-.4-.6-.4h-.1v-.1l.1-.7c0-.1.1-.1.1-.1.3.1.5.1.7.2.2.1.3.2.4.4l.5-.2c.1 0 .1 0 .1.1l.2.5c0 .1 0 .1-.1.1l-.5.2v.4c0 .2-.1.3-.2.4l-.3.3c-.1.1-.2.2-.4.2-.3.1-.6.1-.9 0-.2-.1-.4-.3-.7-.6l-.4-.4c-.1-.1-.2-.1-.3-.2-.1-.1-.3-.1-.4 0-.2.1-.3.2-.4.3-.1.2-.1.3 0 .5s.2.3.3.4c.1.1.4.1.7.1.1 0 .1 0 .1.1l.1.7v.1h-.1c-.5 0-.8 0-1.1-.1-.3-.1-.5-.4-.7-.7l-.5.2c-.1 0-.1 0-.1-.1l-.2-.5c0-.1 0-.1.1-.1l.5-.2c0-.3.1-.7.3-.9.2-.3.5-.5.8-.6.4-.1.8-.1 1.1.1"/><path class="st4" d="M-13 0h313v600H-13z"/></svg>