<svg id="Layer_1" xmlns="http://www.w3.org/2000/svg" viewBox="0 0 300 600"><style>.st0{fill:#b8e0d2}.st1{fill:#fffdf6}.st2{fill:#898f95}</style><path transform="rotate(-71.101 225.671 373.059)" class="st0" d="M187.2 353.3h77v39.4h-77z"/><path class="st1" d="M194 402.2l38.8 13.3 25.2-73.7-38.8-13.3-25.2 73.7zm26.3-71.4l35.4 12.1-24.1 70.3-35.4-12.1 24.1-70.3z"/><path class="st2" d="M224.5 370.1l-11 32.2c-.1.4-.5.6-.9.4-.4-.1-.6-.5-.4-.9l11-32.2c.1-.4.5-.6.9-.4.3.2.5.6.4.9M233.3 378.8l-9.3 27.1c-.1.4-.5.6-.9.4-.4-.1-.6-.5-.4-.9l9.3-27.1c.1-.4.5-.6.9-.4.4.1.6.5.4.9M244.5 346.1l-9.3 27.1c-.1.4-.5.6-.9.4-.4-.1-.6-.5-.4-.9l9.3-27.1c.1-.4.5-.6.9-.4.4.1.6.5.4.9M239.8 344.5l-20.5 59.8c-.1.4-.5.6-.9.4-.4-.1-.6-.5-.4-.9l20.5-59.8c.1-.4.5-.6.9-.4.3.1.5.5.4.9M226.4 339.7l-6.7 19.6c-.1.4-.5.6-.9.4-.4-.1-.6-.5-.4-.9l6.7-19.6c.1-.4.5-.6.9-.4.3.1.5.5.4.9M211.8 380.1l-6.7 19.6c-.1.4-.5.6-.9.4-.4-.1-.6-.5-.4-.9l6.7-19.6c.1-.4.5-.6.9-.4.3.1.5.5.4.9M215.2 381.2l-6.7 19.6c-.1.4-.5.6-.9.4-.4-.1-.6-.5-.4-.9l6.7-19.6c.1-.4.5-.6.9-.4.3.1.5.5.4.9"/><path transform="rotate(-71.101 228.812 350.896)" class="st1" d="M218.2 347.9h21.3v6h-21.3z"/><path class="st2" d="M224.9 362.3c-.1.1-.3.1-.4.3l-.5.5c-.2.2-.4.3-.5.4-.1 0-.2.1-.3 0-.1 0-.2-.1-.2-.2-.1-.1-.1-.2 0-.4s.3-.4.6-.4h.1v-.1l-.1-.7c0-.1-.1-.1-.1-.1-.3.1-.5.1-.7.2-.2.1-.3.2-.4.4l-.5-.2c-.1 0-.1 0-.1.1l-.2.5c0 .1 0 .1.1.1l.5.2v.4c0 .2.1.3.2.4l.3.3c.1.1.2.2.4.2.3.1.6.1.9 0 .2-.1.4-.3.7-.6l.4-.4c.1-.1.2-.1.3-.2.1-.1.3-.1.4 0 .2.1.3.2.4.3.1.2.1.3 0 .5s-.2.3-.3.4c-.1.1-.4.1-.7.1-.1 0-.1 0-.1.1l-.1.7v.1h.1c.5 0 .8 0 1.1-.1.3-.1.5-.4.7-.7l.5.2c.1 0 .1 0 .1-.1l.2-.5c0-.1 0-.1-.1-.1l-.5-.2c0-.3-.1-.6-.3-.9-.2-.3-.5-.5-.8-.6-.4 0-.8 0-1.1.1"/></svg>