<svg id="Layer_1" xmlns="http://www.w3.org/2000/svg" viewBox="0 0 300 600"><style>.st0{fill:#b9e0d3}.st1{fill:#fffdf6}.st2{fill:#898f94}</style><path class="st0" d="M75.2 99.4h114.2v58.5H75.2z"/><path class="st1" d="M187.4 156.9H77.2v-55.6h110.3v55.6zm-112.9 2.7H190V98.7H74.5v60.9z"/><path class="st2" d="M134.2 126.1H83.8c-.6 0-1-.5-1-1 0-.6.5-1 1-1h50.4c.6 0 1 .5 1 1s-.4 1-1 1M126.3 142.7H83.8c-.6 0-1-.5-1-1 0-.6.5-1 1-1h42.5c.6 0 1 .5 1 1 .1.5-.4 1-1 1M177.6 142.7h-42.5c-.6 0-1-.5-1-1 0-.6.5-1 1-1h42.5c.6 0 1 .5 1 1s-.4 1-1 1M177.6 135.3H83.8c-.6 0-1-.5-1-1 0-.6.5-1 1-1h93.8c.6 0 1 .5 1 1s-.4 1-1 1M177.8 114.1h-30.7c-.6 0-1-.5-1-1 0-.6.5-1 1-1h30.7c.6 0 1 .5 1 1 .1.6-.4 1-1 1M114.2 113.1H83.5c-.6 0-1-.5-1-1 0-.6.5-1 1-1h30.7c.6 0 1 .5 1 1s-.4 1-1 1M114.2 118.3H83.5c-.6 0-1-.5-1-1 0-.6.5-1 1-1h30.7c.6 0 1 .5 1 1 0 .6-.4 1-1 1"/><path class="st1" d="M147.5 118.5h31.6v8.9h-31.6z"/><path class="st2" d="M145.3 122.9c-.1-.1-.3-.3-.6-.4-.2-.1-.5-.3-.9-.5s-.7-.3-.8-.5c-.1-.1-.2-.2-.2-.4s.1-.3.2-.5c.1-.1.3-.2.5-.2.4 0 .7.2.9.6l.1.1h.1l.9-.5c.1 0 .1-.1.1-.2-.2-.4-.4-.7-.7-.9-.2-.2-.5-.3-.8-.4v-.7c0-.1-.1-.2-.2-.2h-.8c-.1 0-.2.1-.2.2v.8c-.2.1-.4.1-.6.2-.2.1-.4.3-.5.4-.1.2-.3.4-.3.6-.1.2-.1.4-.1.7 0 .5.2.9.5 1.3.2.2.6.5 1.2.8.3.1.5.2.7.3.2.1.3.2.4.3.2.1.2.3.2.6s-.1.5-.3.7c-.2.2-.4.3-.7.3-.3 0-.5-.1-.7-.2-.2-.2-.3-.5-.5-.9 0-.1-.1-.1-.2-.1l-1 .2s-.1 0-.1.1v.1c.2.7.4 1.2.7 1.5.3.3.7.5 1.3.6v.8c0 .1.1.2.2.2h.8c.1 0 .2-.1.2-.2v-.8c.5-.2.9-.4 1.2-.8.3-.4.5-.9.5-1.4.1-.7-.1-1.2-.5-1.6"/></svg>