<svg xmlns="http://www.w3.org/2000/svg" viewBox="0 0 300 600"><path d="M267.4 583.7h-.8l1.9-4.5h-2.3v-.6h3.4l-2.2 5.1zM271.1 583.9l-.7-.3c1-.5 1.7-1.2 2.1-2-.2.2-.5.3-.8.3-1 0-1.6-.7-1.6-1.6 0-1 .7-1.7 1.7-1.7.9 0 1.7.6 1.7 1.8-.1 1.3-1.1 2.8-2.4 3.5zm.6-4.7c-.5 0-.9.4-.9 1s.4 1 1 1c.4 0 .8-.2 1-.7v-.2c-.1-.6-.6-1.1-1.1-1.1zM276.8 582.4v1.4h-.7v-1.4h-2l-.1-.6 2.4-3.2h.5v3.1h.6v.6h-.7zm-.7-2.5c-.1.2-.3.4-.5.6l-.9 1.2h1.4v-1.2-.6zM279.3 583.8c-.4 0-.8-.1-1-.2l-.1-.7c.3.2.7.3 1 .3.6 0 1.1-.4 1.1-1 0-.7-.5-1-1.1-1-.4 0-.6 0-.9.1l.1-2.6h2.2l-.1.6h-1.4v1.2h.2c1 0 1.7.6 1.7 1.7.1.8-.6 1.6-1.7 1.6zM282.7 583.8c-.3 0-.6-.1-.8-.2l-.1-.7c.3.1.6.2.9.2.6 0 1.2-.3 1.2-1 0-.5-.5-1-1.1-1h-.1l-.1-.6c.5-.1.9-.4.9-.8s-.3-.6-.7-.6c-.3 0-.5.1-.8.2l-.1-.6c.3-.2.6-.2 1-.2.8 0 1.4.5 1.4 1.2 0 .6-.4.9-.7 1 .6.1 1.1.6 1.1 1.5-.2.9-.8 1.6-2 1.6zM286.1 583.7h-.8l1.9-4.5h-2.3v-.6h3.4l-2.2 5.1z"/></svg>