<svg xmlns="http://www.w3.org/2000/svg" viewBox="0 0 300 600"><path d="M45 85.4c-5.6 0-11.3-3.7-11.3-10.7 0-7 5.8-10.7 11.2-10.7 2.8 0 5.2.8 6.6 1.7l-.9 4.1c-1.2-.8-3.2-1.4-5.2-1.4-3.7 0-6.8 2.5-6.8 6.5 0 3.8 2.9 6.3 6.6 6.3 1.2 0 2.1-.2 2.8-.6v-3.2h-3.6v-3.8h8.1v9.7c-1.6 1.3-4.1 2.1-7.5 2.1zM68.7 76.8l-2.1 2.1h-7.1c.2 1.2 1.8 2.5 4.3 2.5 1.5 0 3-.4 4-1.1l-.4 4c-1.1.6-2.8 1-4.6 1-4.4 0-8-3.1-8-7.8 0-4.7 3.4-7.6 7.6-7.6 4 0 6.5 2.8 6.5 5.8-.1.3-.2.8-.2 1.1zm-6.4-3.4c-1.4 0-2.5 1.1-2.8 2.4h4.9v-.3c0-1-.9-2.1-2.1-2.1zM80.6 74.2h-3.8v5.4c0 1.2.7 1.8 1.9 1.8.5 0 .9 0 1.2-.2l-.4 3.6c-.4.2-1.2.4-2.2.4-3.3 0-5.2-1.7-5.2-4.6v-6.3h-2.4v-3.8h2.4v-3.1l4.7-1.7v4.8h4.7l-.9 3.7zM96.1 92.3c-4.2 0-7-2.4-7-5.4 0-2.2 1.5-3.5 3-3.9l-1.9-1.9c.1-.9.9-1.7 1.8-2.1-1.1-.7-2.1-2-2.1-3.9 0-3.1 2.2-5.2 6-5.2.9 0 1.5.1 2.1.3.6.2 1.3.3 2.1.3s1.6-.2 2.3-.5l.9 3.6c-.4.3-1.2.5-1.8.4.2.3.4 1 .4 1.5 0 2.4-1.9 4.5-4.7 4.7-.6 0-1 .2-1 .5 0 .2.1.4.4.4l2.2.8c2.8 1 4.4 2.5 4.4 5.1-.1 3-2.8 5.3-7.1 5.3zm1-6.8l-1.7-.5c-1.1 0-2 .8-2 1.9 0 1 .9 1.8 2.6 1.8 1.7 0 2.6-.8 2.6-1.6 0-.7-.5-1.4-1.5-1.6zm-1.2-12.2c-1.1 0-1.9.8-1.9 1.7 0 1 .8 1.7 1.9 1.7 1 0 1.9-.8 1.9-1.7-.1-.9-.9-1.7-1.9-1.7zM114.1 84.9v-2c-.6 1.5-2.1 2.4-4.4 2.4-3.2 0-5.1-1.8-5.1-4.8V70.4h4.7v8.9c0 1.1.7 2 2.2 2 1.4 0 2.3-.9 2.3-2.1v-8.8h4.7v14.5h-4.4zM131.2 85.5c-.9-.2-1.9-.9-2.2-1.9-.6 1.2-2 1.8-3.8 1.8-2.6 0-4.8-1.8-4.8-4.8 0-2.7 2.1-4.4 5-4.7l2.9-.3v-.5c0-.9-.7-1.4-2.3-1.4-1.4 0-3 .4-4 1.1l-.8-3.6c1.2-.8 3.2-1.3 5.1-1.3 3.8 0 6.6 1.8 6.6 5.2v4.7c0 1.7.6 2.6 1.8 3l-3.5 2.7zm-3-7l-1.8.2c-1.2.1-1.8 1-1.8 1.8s.6 1.4 1.5 1.4c1.1 0 2-.9 2-2.1v-1.3zM144.8 75.4c-.3-.2-.9-.4-1.4-.4-1.5 0-2.9.8-2.9 3.1v6.8h-4.7V70.4h4.6v3.2c.5-2.3 2.2-3.5 4.1-3.5.4 0 1 .1 1.3.2l-1 5.1zM157.2 85.5c-.9-.2-1.9-.9-2.2-1.9-.6 1.2-2 1.8-3.8 1.8-2.6 0-4.8-1.8-4.8-4.8 0-2.7 2.1-4.4 5-4.7l2.9-.3v-.5c0-.9-.7-1.4-2.3-1.4-1.4 0-3 .4-4 1.1l-.8-3.6c1.2-.8 3.2-1.3 5.1-1.3 3.8 0 6.6 1.8 6.6 5.2v4.7c0 1.7.6 2.6 1.8 3l-3.5 2.7zm-3-7l-1.8.2c-1.2.1-1.8 1-1.8 1.8s.6 1.4 1.5 1.4c1.1 0 2-.9 2-2.1v-1.3zM170.9 84.9V76c0-1.1-.7-2-2.1-2-1.4 0-2.3.9-2.3 2v8.8h-4.7V70.4h4.3v2c.6-1.5 2.1-2.4 4.4-2.4 3.2 0 5.1 1.8 5.1 4.9V85h-4.7zM187.7 74.2h-3.8v5.4c0 1.2.7 1.8 1.9 1.8.5 0 .9 0 1.2-.2l-.4 3.6c-.4.2-1.2.4-2.2.4-3.3 0-5.2-1.7-5.2-4.6v-6.3h-2.4v-3.8h2.4v-3.1l4.7-1.7v4.8h4.7l-.9 3.7zM202.8 76.8l-2.1 2.1h-7.1c.2 1.2 1.8 2.5 4.3 2.5 1.5 0 3-.4 4-1.1l-.4 4c-1.1.6-2.8 1-4.6 1-4.4 0-8-3.1-8-7.8 0-4.7 3.4-7.6 7.6-7.6 4 0 6.5 2.8 6.5 5.8-.1.3-.1.8-.2 1.1zm-6.4-3.4c-1.4 0-2.5 1.1-2.8 2.4h4.9v-.3c0-1-.8-2.1-2.1-2.1zM218 76.8l-2.1 2.1h-7.1c.2 1.2 1.8 2.5 4.3 2.5 1.5 0 3-.4 4-1.1l-.4 4c-1.1.6-2.8 1-4.6 1-4.4 0-8-3.1-8-7.8 0-4.7 3.4-7.6 7.6-7.6 4 0 6.5 2.8 6.5 5.8 0 .3-.1.8-.2 1.1zm-6.3-3.4c-1.4 0-2.5 1.1-2.8 2.4h4.9v-.3c0-1-.9-2.1-2.1-2.1zM230.9 84.9v-1.8c-.8 1.5-2.5 2.2-4.5 2.2-3.6 0-7-2.7-7-7.6 0-4.7 3.3-7.7 7.4-7.7 1.5 0 3.1.5 3.7 1v-8.8h4.6V85h-4.2zm-.5-9.5c-.4-.6-1.4-1.3-2.8-1.3-2 0-3.5 1.6-3.5 3.7s1.4 3.7 3.5 3.7c1.4 0 2.3-.7 2.8-1.5v-4.6z"/><g><path d="M52 115.9V107c0-1.1-.5-2-2-2s-2.2.9-2.2 2v8.8H43V107c0-1.1-.5-2-2-2s-2.2.9-2.2 2v8.8h-4.7v-14.5h4.4v2c.6-1.5 2-2.4 4.3-2.4 2.1 0 3.6.8 4.3 2.4.6-1.4 2.3-2.4 4.5-2.4 3.3 0 5.1 1.8 5.1 4.9v10.1H52zM66.5 116.3c-4.4 0-7.9-3.1-7.9-7.7s3.5-7.7 7.9-7.7 7.9 3.1 7.9 7.7-3.5 7.7-7.9 7.7zm0-11.3c-1.8 0-3.3 1.5-3.3 3.7 0 2.1 1.5 3.7 3.3 3.7 1.7 0 3.3-1.5 3.3-3.7s-1.6-3.7-3.3-3.7zM85.6 115.9V107c0-1.1-.7-2-2.1-2-1.4 0-2.3.9-2.3 2v8.8h-4.7v-14.5h4.3v2c.6-1.5 2.1-2.4 4.4-2.4 3.2 0 5.1 1.8 5.1 4.9v10.1h-4.7zM102.4 105.2h-3.8v5.4c0 1.2.7 1.8 1.9 1.8.5 0 .9 0 1.2-.2l-.4 3.6c-.4.2-1.2.4-2.2.4-3.3 0-5.2-1.7-5.2-4.6v-6.3h-2.4v-3.8h2.4v-3.1l4.7-1.7v4.8h4.7l-.9 3.7zM113.7 115.9V107c0-1.1-.7-2-2.2-2-1.4 0-2.3.9-2.3 2v8.8h-4.7V93.1h4.6v9.6c.7-1.1 2.1-1.8 4.1-1.8 3.2 0 5.1 1.8 5.1 4.9v10.1h-4.6zM126 116.5c-3-.1-5-1.7-5-5.2V93.1h4.6v17.6c0 1.2.7 1.8 2 1.9l-1.6 3.9z"/><path d="M137.5 114.4c-2.2 5.8-4.5 7.9-7.2 9l-2.9-2.9c2.3-.9 4.1-2.6 5.3-5.7l-5.2-13.5h4.5l2.1 5.6c.3.8.6 1.8.9 2.8h.1c.3-1 .6-2 .9-2.8l2.1-5.6h4.3l-4.9 13.1zM153.2 99.4c-.8 0-2.5-1.7-2.5-2.5s1.7-2.5 2.5-2.5 2.5 1.7 2.5 2.5c.1.8-1.6 2.5-2.5 2.5zm-2.3 16.5v-14.5h4.7v14.5h-4.7zM167.5 115.9V107c0-1.1-.7-2-2.1-2-1.4 0-2.3.9-2.3 2v8.8h-4.7v-14.5h4.3v2c.6-1.5 2.1-2.4 4.4-2.4 3.2 0 5.1 1.8 5.1 4.9v10.1h-4.7zM185.7 106.1c-1-.6-2-.9-3.1-.9-2 0-3.7 1.5-3.7 3.6s1.6 3.6 3.8 3.6c1.2 0 2.1-.3 3.2-.8l-.4 4c-1 .4-2.2.7-3.6.7-4.1 0-7.8-2.9-7.8-7.6 0-4.7 3.8-7.6 7.7-7.6 1.9 0 3.5.4 4.8 1.1l-.9 3.9zM195.5 116.3c-4.4 0-7.9-3.1-7.9-7.7s3.5-7.7 7.9-7.7 7.9 3.1 7.9 7.7-3.5 7.7-7.9 7.7zm0-11.3c-1.8 0-3.3 1.5-3.3 3.7 0 2.1 1.5 3.7 3.3 3.7 1.7 0 3.3-1.5 3.3-3.7s-1.6-3.7-3.3-3.7zM223.2 115.9V107c0-1.1-.5-2-2-2s-2.2.9-2.2 2v8.8h-4.7V107c0-1.1-.5-2-2-2s-2.2.9-2.2 2v8.8h-4.7v-14.5h4.4v2c.6-1.5 2-2.4 4.3-2.4 2.1 0 3.6.8 4.3 2.4.6-1.4 2.3-2.4 4.5-2.4 3.3 0 5.1 1.8 5.1 4.9v10.1h-4.8zM243.9 107.8l-2.1 2.1h-7.1c.2 1.2 1.8 2.5 4.3 2.5 1.5 0 3-.4 4-1.1l-.4 4c-1.1.6-2.8 1-4.6 1-4.4 0-8-3.1-8-7.8 0-4.7 3.4-7.6 7.6-7.6 4 0 6.5 2.8 6.5 5.8-.1.4-.2.8-.2 1.1zm-6.4-3.4c-1.4 0-2.5 1.1-2.8 2.4h4.9v-.3c0-1-.9-2.1-2.1-2.1z"/></g><g><path d="M44.2 128.3c-.5-.2-1.3-.4-1.9-.4-1.7 0-2.6 1-2.6 3.1v1.4h4.2l-.9 3.8h-3.2v10.7h-4.5v-10.7h-2.2v-3.8h2.2v-1.7c0-4.4 2.8-6.6 6.5-6.6 1.3 0 2.7.2 3.4.5l-1 3.7zM52 147.3c-4.4 0-7.9-3.1-7.9-7.7s3.5-7.7 7.9-7.7 7.9 3.1 7.9 7.7-3.6 7.7-7.9 7.7zm0-11.3c-1.8 0-3.3 1.5-3.3 3.7 0 2.1 1.5 3.7 3.3 3.7 1.7 0 3.3-1.5 3.3-3.7-.1-2.1-1.6-3.7-3.3-3.7zM70.9 137.4c-.3-.2-.9-.4-1.4-.4-1.5 0-2.9.8-2.9 3.1v6.8h-4.7v-14.5h4.6v3.2c.5-2.3 2.2-3.5 4.1-3.5.4 0 1 .1 1.3.2l-1 5.1zM85.3 147.5c-3-.1-5-1.7-5-5.2v-18.2H85v17.6c0 1.2.7 1.8 2 1.9l-1.7 3.9zM90.8 130.4c-.8 0-2.5-1.7-2.5-2.5s1.7-2.5 2.5-2.5 2.5 1.7 2.5 2.5c.1.8-1.6 2.5-2.5 2.5zm-2.3 16.5v-14.5h4.7v14.5h-4.7zM106 128.3c-.5-.2-1.3-.4-1.9-.4-1.7 0-2.6 1-2.6 3.1v1.4h4.2l-.9 3.8h-3.2v10.7H97v-10.7h-2.2v-3.8H97v-1.7c0-4.4 2.8-6.6 6.5-6.6 1.3 0 2.7.2 3.4.5l-.9 3.7zM119.9 138.8l-2.1 2.1h-7.1c.2 1.2 1.8 2.5 4.3 2.5 1.5 0 3-.4 4-1.1l-.4 4c-1.1.6-2.8 1-4.6 1-4.4 0-8-3.1-8-7.8 0-4.7 3.4-7.6 7.6-7.6 4 0 6.5 2.8 6.5 5.8-.1.4-.2.8-.2 1.1zm-6.4-3.4c-1.4 0-2.5 1.1-2.8 2.4h4.9v-.3c0-1-.9-2.1-2.1-2.1zM123.8 147.3c-.9 0-2.7-1.8-2.7-2.7 0-.8 1.8-2.6 2.7-2.6s2.7 1.8 2.7 2.6c-.1 1-1.8 2.7-2.7 2.7z"/></g></svg>