<svg xmlns="http://www.w3.org/2000/svg" viewBox="0 0 300 600"><path d="M40.1 85.2c-2.3 0-4.5-.7-5.7-1.4l-.5-4.6c1.7 1.2 3.8 2 5.9 2 1.8 0 2.9-.8 2.9-2s-.7-1.9-2.6-2.4c-4-1.1-5.9-3.3-5.9-6.4 0-3.4 2.5-6.1 6.9-6.1 2.3 0 4.3.7 5.1 1.2l-.9 4c-.8-.5-2.5-1.1-3.9-1.1-1.6-.2-2.4.6-2.4 1.6s.9 1.6 2.4 2c3.9 1.1 6.2 3.1 6.2 6.7 0 4-2.5 6.5-7.5 6.5zM59.1 74.2h-3.8v5.4c0 1.2.7 1.8 1.9 1.8.5 0 .9 0 1.2-.2l-.4 3.6c-.4.2-1.2.4-2.2.4-3.3 0-5.2-1.7-5.2-4.6v-6.3h-2.4v-3.8h2.4v-3.1l4.7-1.7v4.8H60l-.9 3.7zM74.2 76.8l-2.1 2.1H65c.2 1.2 1.8 2.5 4.3 2.5 1.5 0 3-.4 4-1.1l-.4 4c-1.1.6-2.8 1-4.6 1-4.4 0-8-3.1-8-7.8 0-4.7 3.4-7.6 7.6-7.6 4 0 6.5 2.8 6.5 5.8 0 .3-.1.8-.2 1.1zm-6.3-3.4c-1.4 0-2.5 1.1-2.8 2.4H70v-.3c0-1-.9-2.1-2.1-2.1zM89.5 76.8l-2.1 2.1h-7.1c.2 1.2 1.8 2.5 4.3 2.5 1.5 0 3-.4 4-1.1l-.4 4c-1.1.6-2.8 1-4.6 1-4.4 0-8-3.1-8-7.8 0-4.7 3.4-7.6 7.6-7.6 4 0 6.5 2.8 6.5 5.8-.1.3-.2.8-.2 1.1zm-6.4-3.4c-1.4 0-2.5 1.1-2.8 2.4h4.9v-.3c0-1-.8-2.1-2.1-2.1zM100.5 75.4c-.3-.2-.9-.4-1.4-.4-1.5 0-2.9.8-2.9 3.1v6.8h-4.7V70.4h4.6v3.2c.5-2.3 2.2-3.5 4.1-3.5.4 0 1 .1 1.3.2l-1 5.1zM121 75.1c-1-.6-2-.9-3.1-.9-2 0-3.7 1.5-3.7 3.6s1.6 3.6 3.8 3.6c1.2 0 2.1-.3 3.2-.8l-.4 4c-1 .4-2.2.7-3.6.7-4.1 0-7.8-2.9-7.8-7.6 0-4.7 3.8-7.6 7.7-7.6 1.9 0 3.5.4 4.8 1.1l-.9 3.9zM128.7 85.5c-3-.1-5-1.7-5-5.2V62.1h4.6v17.6c0 1.2.7 1.8 2 1.9l-1.6 3.9zM144.9 76.8l-2.1 2.1h-7.1c.2 1.2 1.8 2.5 4.3 2.5 1.5 0 3-.4 4-1.1l-.4 4c-1.1.6-2.8 1-4.6 1-4.4 0-8-3.1-8-7.8 0-4.7 3.4-7.6 7.6-7.6 4 0 6.5 2.8 6.5 5.8 0 .3-.1.8-.2 1.1zm-6.3-3.4c-1.4 0-2.5 1.1-2.8 2.4h4.9v-.3c0-1-.9-2.1-2.1-2.1zM157.1 85.5c-.9-.2-1.9-.9-2.2-1.9-.6 1.2-2 1.8-3.8 1.8-2.6 0-4.8-1.8-4.8-4.8 0-2.7 2.1-4.4 5-4.7l2.9-.3v-.5c0-.9-.7-1.4-2.3-1.4-1.4 0-3 .4-4 1.1l-.8-3.6c1.2-.8 3.2-1.3 5.1-1.3 3.8 0 6.6 1.8 6.6 5.2v4.7c0 1.7.6 2.6 1.8 3l-3.5 2.7zm-3.1-7l-1.8.2c-1.2.1-1.8 1-1.8 1.8s.6 1.4 1.5 1.4c1.1 0 2-.9 2-2.1v-1.3zM170.6 75.4c-.3-.2-.9-.4-1.4-.4-1.5 0-2.9.8-2.9 3.1v6.8h-4.7V70.4h4.6v3.2c.5-2.3 2.2-3.5 4.1-3.5.4 0 1 .1 1.3.2l-1 5.1zM187.3 85.3c-4.4 0-7.9-3.1-7.9-7.7s3.5-7.7 7.9-7.7 7.9 3.1 7.9 7.7-3.6 7.7-7.9 7.7zm0-11.3c-1.8 0-3.3 1.5-3.3 3.7 0 2.1 1.5 3.7 3.3 3.7 1.7 0 3.3-1.5 3.3-3.7S189 74 187.3 74zM207.2 66.3c-.5-.2-1.3-.4-1.9-.4-1.7 0-2.6 1-2.6 3.1v1.4h4.2l-.9 3.8h-3.2v10.7h-4.5V74.2h-2.2v-3.8h2.2v-1.7c0-4.4 2.8-6.6 6.5-6.6 1.3 0 2.7.2 3.4.5l-1 3.7z"/><g><path d="M43.8 105.2H40v5.4c0 1.2.7 1.8 1.9 1.8.5 0 .9 0 1.2-.2l-.4 3.6c-.4.2-1.2.4-2.2.4-3.3 0-5.2-1.7-5.2-4.6v-6.3h-2.4v-3.8h2.4v-3.1l4.7-1.7v4.8h4.7l-.9 3.7zM55.1 115.9V107c0-1.1-.7-2-2.2-2-1.4 0-2.3.9-2.3 2v8.8H46V93.1h4.6v9.6c.7-1.1 2.1-1.8 4.1-1.8 3.2 0 5.1 1.8 5.1 4.9v10.1h-4.7zM75.7 107.8l-2.1 2.1h-7.1c.2 1.2 1.8 2.5 4.3 2.5 1.5 0 3-.4 4-1.1l-.4 4c-1.1.6-2.8 1-4.6 1-4.4 0-8-3.1-8-7.8 0-4.7 3.4-7.6 7.6-7.6 4 0 6.5 2.8 6.5 5.8-.1.4-.1.8-.2 1.1zm-6.4-3.4c-1.4 0-2.5 1.1-2.8 2.4h4.9v-.3c.1-1-.8-2.1-2.1-2.1zM89.4 116.2c-2 0-3.4-.4-4.6-1l-.4-4.2c1.3.9 2.9 1.6 4.5 1.6.9 0 1.4-.4 1.4-1s-.5-.9-1.3-1.1c-2.8-.8-4.4-2.2-4.4-4.7 0-2.8 2.3-4.7 5.4-4.7 1.8 0 3.6.5 4.3.9l-.8 3.5c-.7-.4-1.9-.8-3-.8-.8 0-1.3.4-1.3.9s.4.8 1.3 1.1c3.3.9 4.6 2.5 4.6 4.9 0 2.4-1.8 4.6-5.7 4.6zM106.6 115.9v-2c-.6 1.5-2.1 2.4-4.4 2.4-3.2 0-5.1-1.8-5.1-4.8v-10.1h4.7v8.9c0 1.1.7 2 2.2 2 1.4 0 2.3-.9 2.3-2.1v-8.8h4.7v14.5h-4.4zM122.5 106.4c-.3-.2-.9-.4-1.4-.4-1.5 0-2.9.8-2.9 3.1v6.8h-4.7v-14.5h4.6v3.2c.5-2.3 2.2-3.5 4.1-3.5.4 0 1 .1 1.3.2l-1 5.1zM133.1 116.3c-1.5 0-3.1-.5-3.7-1v7.9h-4.6v-21.9h4.1v1.8c.8-1.5 2.5-2.2 4.5-2.2 3.6 0 7 2.7 7 7.6 0 4.8-3.3 7.8-7.3 7.8zm-.9-11.2c-1.4 0-2.3.7-2.8 1.5v4.5c.4.6 1.4 1.3 2.8 1.3 2 0 3.5-1.6 3.5-3.6 0-2.1-1.4-3.7-3.5-3.7zM151.4 106.4c-.3-.2-.9-.4-1.4-.4-1.5 0-2.9.8-2.9 3.1v6.8h-4.7v-14.5h4.6v3.2c.5-2.3 2.2-3.5 4.1-3.5.4 0 1 .1 1.3.2l-1 5.1zM156.2 99.4c-.8 0-2.5-1.7-2.5-2.5s1.7-2.5 2.5-2.5 2.5 1.7 2.5 2.5-1.7 2.5-2.5 2.5zm-2.4 16.5v-14.5h4.7v14.5h-4.7zM165.9 116.2c-2 0-3.4-.4-4.6-1l-.4-4.2c1.3.9 2.9 1.6 4.5 1.6.9 0 1.4-.4 1.4-1s-.5-.9-1.3-1.1c-2.8-.8-4.4-2.2-4.4-4.7 0-2.8 2.3-4.7 5.4-4.7 1.8 0 3.6.5 4.3.9l-.8 3.5c-.7-.4-1.9-.8-3-.8-.8 0-1.3.4-1.3.9s.4.8 1.3 1.1c3.3.9 4.6 2.5 4.6 4.9 0 2.4-1.8 4.6-5.7 4.6zM186.7 107.8l-2.1 2.1h-7.1c.2 1.2 1.8 2.5 4.3 2.5 1.5 0 3-.4 4-1.1l-.4 4c-1.1.6-2.8 1-4.6 1-4.4 0-8-3.1-8-7.8 0-4.7 3.4-7.6 7.6-7.6 4 0 6.5 2.8 6.5 5.8-.1.4-.2.8-.2 1.1zm-6.4-3.4c-1.4 0-2.5 1.1-2.8 2.4h4.9v-.3c0-1-.9-2.1-2.1-2.1zM193.3 116.2c-2 0-3.4-.4-4.6-1l-.4-4.2c1.3.9 2.9 1.6 4.5 1.6.9 0 1.4-.4 1.4-1s-.5-.9-1.3-1.1c-2.8-.8-4.4-2.2-4.4-4.7 0-2.8 2.3-4.7 5.4-4.7 1.8 0 3.6.5 4.3.9l-.8 3.5c-.7-.4-1.9-.8-3-.8-.8 0-1.3.4-1.3.9s.4.8 1.3 1.1c3.3.9 4.6 2.5 4.6 4.9 0 2.4-1.8 4.6-5.7 4.6zM203.3 116.3c-.9 0-2.7-1.8-2.7-2.7 0-.8 1.8-2.6 2.7-2.6s2.7 1.8 2.7 2.6c-.1.9-1.9 2.7-2.7 2.7z"/></g></svg>