<svg xmlns="http://www.w3.org/2000/svg" viewBox="0 0 300 600"><path d="M38 267c-2.1 0-4.1-.6-5.2-1.3l-.4-4.2c1.5 1 3.5 1.8 5.3 1.8 1.6 0 2.6-.7 2.6-1.9 0-1.1-.7-1.7-2.4-2.1-3.6-1-5.3-3-5.3-5.8 0-3.1 2.3-5.5 6.3-5.5 2.1 0 3.9.6 4.6 1l-.8 3.6c-.8-.4-2.2-1-3.5-1-1.6 0-2.3.7-2.3 1.6 0 .9.8 1.4 2.2 1.8 3.5 1 5.7 2.8 5.7 6.1.1 3.6-2.3 5.9-6.8 5.9zM58.9 259.4l-1.9 1.9h-6.4c.2 1.1 1.7 2.3 3.9 2.3 1.4 0 2.8-.4 3.6-1l-.4 3.7c-1 .5-2.5.9-4.2.9-4 0-7.2-2.8-7.2-7.1 0-4.2 3.1-6.9 6.8-6.9 3.7 0 5.9 2.5 5.9 5.2 0 .3-.1.8-.1 1zm-5.8-3c-1.2 0-2.3 1-2.6 2.1H55v-.3c0-.9-.8-1.8-1.9-1.8zM72.7 259.4l-1.9 1.9h-6.4c.2 1.1 1.7 2.3 3.9 2.3 1.4 0 2.8-.4 3.6-1l-.4 3.7c-1 .5-2.5.9-4.2.9-4 0-7.2-2.8-7.2-7.1 0-4.2 3.1-6.9 6.8-6.9 3.7 0 5.9 2.5 5.9 5.2 0 .3 0 .8-.1 1zm-5.8-3c-1.2 0-2.3 1-2.6 2.1h4.4v-.3c.1-.9-.6-1.8-1.8-1.8zM89.3 266.7v-8.1c0-1-.7-1.8-2-1.8s-2.1.8-2.1 1.9v8H81V246h4.2v8.7c.7-1 1.9-1.6 3.7-1.6 2.9 0 4.6 1.6 4.6 4.4v9.1h-4.2zM102.5 267.1c-4 0-7.2-2.8-7.2-7s3.2-7 7.2-7c3.9 0 7.2 2.8 7.2 7-.1 4.2-3.3 7-7.2 7zm0-10.2c-1.6 0-3 1.4-3 3.3s1.4 3.3 3 3.3 3-1.4 3-3.3c-.1-1.9-1.5-3.3-3-3.3zM125.2 266.9h-2.9l-1.8-5.2c-.3-.8-.5-1.7-.8-2.7h-.1c-.2 1-.5 1.9-.7 2.7l-1.8 5.3h-2.8l-4.6-13.3h3.9l1.6 5c.2.8.5 1.7.6 2.5h.1c.1-.8.4-1.8.6-2.5l1.7-5h3.2l1.7 5c.3.8.4 1.7.6 2.6h.1c.2-.8.4-1.8.7-2.6l1.7-5h3.6l-4.6 13.2zM153.5 266.7v-8.1c0-1-.5-1.8-1.9-1.8s-2 .8-2 1.9v8h-4.3v-8.1c0-1-.5-1.8-1.9-1.8s-2 .8-2 1.9v8h-4.3v-13.1h3.9v1.8c.5-1.4 1.8-2.2 3.9-2.2 1.9 0 3.3.8 3.9 2.1.6-1.3 2.1-2.1 4.1-2.1 3 0 4.6 1.6 4.6 4.4v9.1h-4zM168.8 266.7v-1.8c-.5 1.4-1.9 2.2-4 2.2-2.9 0-4.6-1.6-4.6-4.4v-9.1h4.3v8.1c0 1 .7 1.8 2 1.8s2.1-.8 2.1-1.9v-8h4.3v13.1h-4.1zM185.1 257.8c-.9-.6-1.8-.8-2.8-.8-1.9 0-3.3 1.3-3.3 3.2 0 1.9 1.5 3.2 3.4 3.2 1.1 0 1.9-.2 2.9-.7l-.4 3.6c-.9.4-2 .6-3.2.6-3.7 0-7.1-2.6-7.1-6.8 0-4.3 3.5-6.9 7-6.9 1.7 0 3.2.3 4.3 1l-.8 3.6zM196 266.7v-8.1c0-1-.7-1.8-2-1.8s-2.1.8-2.1 1.9v8h-4.3V246h4.2v8.7c.7-1 1.9-1.6 3.7-1.6 2.9 0 4.6 1.6 4.6 4.4v9.1H196zM216.8 265.4c-2 5.3-4.1 7.2-6.6 8.2l-2.6-2.6c2.1-.8 3.7-2.3 4.8-5.1l-4.7-12.2h4.1l1.9 5.1c.3.8.6 1.7.8 2.6h.1c.3-.9.6-1.8.8-2.6l1.9-5.1h3.9l-4.4 11.7zM228.5 267.1c-4 0-7.2-2.8-7.2-7s3.2-7 7.2-7c3.9 0 7.2 2.8 7.2 7s-3.3 7-7.2 7zm0-10.2c-1.6 0-3 1.4-3 3.3s1.4 3.3 3 3.3 3-1.4 3-3.3c-.1-1.9-1.4-3.3-3-3.3zM246.1 266.7v-1.8c-.5 1.4-1.9 2.2-4 2.2-2.9 0-4.6-1.6-4.6-4.4v-9.1h4.3v8.1c0 1 .7 1.8 2 1.8s2.1-.8 2.1-1.9v-8h4.3v13.1h-4.1zM260.6 258.1c-.3-.1-.8-.3-1.3-.3-1.4 0-2.6.7-2.6 2.8v6.1h-4.3v-13.1h4.2v2.9c.4-2.1 2-3.2 3.7-3.2.4 0 .9.1 1.2.2l-.9 4.6z"/><g><path d="M40.7 287.1c-.3-.1-.8-.3-1.3-.3-1.4 0-2.6.7-2.6 2.8v6.1h-4.3v-13.1h4.2v2.9c.4-2.1 2-3.2 3.7-3.2.4 0 .9.1 1.2.2l-.9 4.6zM54.6 288.4l-1.9 1.9h-6.4c.2 1.1 1.7 2.3 3.9 2.3 1.4 0 2.8-.4 3.6-1l-.4 3.7c-1 .5-2.5.9-4.2.9-4 0-7.2-2.8-7.2-7.1 0-4.2 3.1-6.9 6.8-6.9 3.7 0 5.9 2.5 5.9 5.2 0 .3 0 .8-.1 1zm-5.8-3c-1.2 0-2.3 1-2.6 2.1h4.4v-.3c.1-.9-.6-1.8-1.8-1.8zM65.4 286.1H62v4.9c0 1.1.6 1.6 1.7 1.6.5 0 .8 0 1.1-.2l-.4 3.2c-.4.2-1.1.3-2 .3-3 0-4.7-1.6-4.7-4.2V286h-2.2v-3.5h2.2v-2.8l4.2-1.5v4.4h4.2l-.7 3.5zM69.6 280.8c-.8 0-2.3-1.5-2.3-2.3 0-.8 1.5-2.3 2.3-2.3s2.3 1.5 2.3 2.3c0 .8-1.5 2.3-2.3 2.3zm-2.1 14.9v-13.1h4.3v13.1h-4.3zM82.4 287.1c-.3-.1-.8-.3-1.3-.3-1.4 0-2.6.7-2.6 2.8v6.1h-4.3v-13.1h4.2v2.9c.4-2.1 2-3.2 3.7-3.2.4 0 .9.1 1.2.2l-.9 4.6zM96.3 288.4l-1.9 1.9H88c.2 1.1 1.7 2.3 3.9 2.3 1.4 0 2.8-.4 3.6-1l-.4 3.7c-1 .5-2.5.9-4.2.9-4 0-7.2-2.8-7.2-7.1 0-4.2 3.1-6.9 6.8-6.9 3.7 0 5.9 2.5 5.9 5.2 0 .3-.1.8-.1 1zm-5.8-3c-1.2 0-2.3 1-2.6 2.1h4.4v-.3c.1-.9-.7-1.8-1.8-1.8zM114.4 295.7v-8.1c0-1-.5-1.8-1.9-1.8s-2 .8-2 1.9v8h-4.3v-8.1c0-1-.5-1.8-1.9-1.8s-2 .8-2 1.9v8H98v-13.1h3.9v1.8c.5-1.4 1.8-2.2 3.9-2.2 1.9 0 3.3.8 3.9 2.1.6-1.3 2.1-2.1 4.1-2.1 3 0 4.6 1.6 4.6 4.4v9.1h-4zM133.1 288.4l-1.9 1.9h-6.4c.2 1.1 1.7 2.3 3.9 2.3 1.4 0 2.8-.4 3.6-1l-.4 3.7c-1 .5-2.5.9-4.2.9-4 0-7.2-2.8-7.2-7.1 0-4.2 3.1-6.9 6.8-6.9 3.7 0 5.9 2.5 5.9 5.2 0 .3-.1.8-.1 1zm-5.8-3c-1.2 0-2.3 1-2.6 2.1h4.4v-.3c.1-.9-.7-1.8-1.8-1.8zM143.3 295.7v-8.1c0-1-.6-1.8-1.9-1.8-1.3 0-2.1.8-2.1 1.9v8H135v-13.1h3.9v1.8c.5-1.4 1.9-2.2 4-2.2 2.9 0 4.6 1.6 4.6 4.4v9.1h-4.2zM158.5 286.1h-3.4v4.9c0 1.1.6 1.6 1.7 1.6.5 0 .8 0 1.1-.2l-.4 3.2c-.4.2-1.1.3-2 .3-3 0-4.7-1.6-4.7-4.2V286h-2.2v-3.5h2.2v-2.8l4.2-1.5v4.4h4.2l-.7 3.5zM169 280.8c-.8 0-2.3-1.5-2.3-2.3 0-.8 1.5-2.3 2.3-2.3.8 0 2.3 1.5 2.3 2.3 0 .8-1.5 2.3-2.3 2.3zm-2.1 14.9v-13.1h4.3v13.1h-4.3zM181.9 295.7v-8.1c0-1-.6-1.8-1.9-1.8-1.3 0-2.1.8-2.1 1.9v8h-4.3v-13.1h3.9v1.8c.5-1.4 1.9-2.2 4-2.2 2.9 0 4.6 1.6 4.6 4.4v9.1h-4.2zM198.5 286.8c-.9-.6-1.8-.8-2.8-.8-1.9 0-3.3 1.3-3.3 3.2 0 1.9 1.5 3.2 3.4 3.2 1.1 0 1.9-.2 2.9-.7l-.4 3.6c-.9.4-2 .6-3.2.6-3.7 0-7.1-2.6-7.1-6.8 0-4.3 3.5-6.9 7-6.9 1.7 0 3.2.3 4.3 1l-.8 3.6zM207.4 296.1c-4 0-7.2-2.8-7.2-7s3.2-7 7.2-7c3.9 0 7.2 2.8 7.2 7s-3.3 7-7.2 7zm0-10.2c-1.6 0-3 1.4-3 3.3s1.4 3.3 3 3.3 3-1.4 3-3.3-1.4-3.3-3-3.3zM232.5 295.7v-8.1c0-1-.5-1.8-1.9-1.8s-2 .8-2 1.9v8h-4.3v-8.1c0-1-.5-1.8-1.9-1.8s-2 .8-2 1.9v8h-4.3v-13.1h3.9v1.8c.5-1.4 1.8-2.2 3.9-2.2 1.9 0 3.3.8 3.9 2.1.6-1.3 2.1-2.1 4.1-2.1 3 0 4.6 1.6 4.6 4.4v9.1h-4zM251.3 288.4l-1.9 1.9H243c.2 1.1 1.7 2.3 3.9 2.3 1.4 0 2.8-.4 3.6-1l-.4 3.7c-1 .5-2.5.9-4.2.9-4 0-7.2-2.8-7.2-7.1 0-4.2 3.1-6.9 6.8-6.9 3.7 0 5.9 2.5 5.9 5.2 0 .3-.1.8-.1 1zm-5.8-3c-1.2 0-2.3 1-2.6 2.1h4.4v-.3c.1-.9-.7-1.8-1.8-1.8z"/></g><g><path d="M42.6 315.8c-.9-.6-1.8-.8-2.8-.8-1.9 0-3.3 1.3-3.3 3.2 0 1.9 1.5 3.2 3.4 3.2 1.1 0 1.9-.2 2.9-.7l-.4 3.6c-.9.4-2 .6-3.2.6-3.7 0-7.1-2.6-7.1-6.8 0-4.3 3.5-6.9 7-6.9 1.7 0 3.2.3 4.3 1l-.8 3.6zM54.3 325.3c-.8-.2-1.7-.8-2-1.7-.6 1.1-1.8 1.6-3.4 1.6-2.3 0-4.4-1.6-4.4-4.4 0-2.4 1.9-4 4.5-4.3l2.6-.3v-.4c0-.8-.6-1.3-2.1-1.3-1.3 0-2.7.4-3.7 1l-.8-3.2c1.1-.7 2.9-1.2 4.6-1.2 3.5 0 5.9 1.6 5.9 4.8v4.3c0 1.5.6 2.3 1.6 2.7l-2.8 2.4zm-2.7-6.3l-1.6.1c-1.1.1-1.6.9-1.6 1.7 0 .7.5 1.3 1.3 1.3 1 0 1.9-.8 1.9-1.9V319zM66.7 324.7v-8.1c0-1-.6-1.8-1.9-1.8-1.3 0-2.1.8-2.1 1.9v8h-4.3v-13.1h3.9v1.8c.5-1.4 1.9-2.2 4-2.2 2.9 0 4.6 1.6 4.6 4.4v9.1h-4.2zM86 325.1c-2.8 0-5-1-6.3-1.9v-19.1h4.1v8c.6-.4 1.9-.9 3.3-.9 3.6 0 6.6 2.6 6.6 6.7s-2.6 7.2-7.7 7.2zm.3-10.2c-1.2 0-2.1.6-2.6 1v5c.4.3 1.3.6 2.1.6 2.2 0 3.5-1.5 3.5-3.4.1-1.7-1.1-3.2-3-3.2zM107.5 317.4l-1.9 1.9h-6.4c.2 1.1 1.7 2.3 3.9 2.3 1.4 0 2.8-.4 3.6-1l-.4 3.7c-1 .5-2.5.9-4.2.9-4 0-7.2-2.8-7.2-7.1 0-4.2 3.1-6.9 6.8-6.9 3.7 0 5.9 2.5 5.9 5.2 0 .3 0 .8-.1 1zm-5.8-3c-1.2 0-2.3 1-2.6 2.1h4.4v-.3c.1-.9-.6-1.8-1.8-1.8zM111.1 325.1c-.8 0-2.4-1.6-2.4-2.4 0-.8 1.6-2.4 2.4-2.4s2.4 1.6 2.4 2.4c0 .8-1.6 2.4-2.4 2.4z"/></g></svg>