<svg xmlns="http://www.w3.org/2000/svg" viewBox="0 0 300 600"><path d="M41.3 360.9v14.8h-4.5v-14.8h-5.3v-3.7h15.1v3.7h-5.3zM54.3 367.1c-.3-.1-.8-.3-1.3-.3-1.4 0-2.6.7-2.6 2.8v6.1h-4.3v-13.1h4.2v2.9c.4-2.1 2-3.2 3.7-3.2.4 0 .9.1 1.2.2l-.9 4.6zM65 374.4c-2 5.3-4.1 7.2-6.6 8.2l-2.6-2.6c2.1-.8 3.7-2.3 4.8-5.1l-4.7-12.2H60l1.9 5.1c.3.8.6 1.7.8 2.6h.1c.3-.9.6-1.8.8-2.6l1.9-5.1h3.9L65 374.4zM85.8 366.1h-3.4v4.9c0 1.1.6 1.6 1.7 1.6.5 0 .8 0 1.1-.2l-.4 3.2c-.4.2-1.1.3-2 .3-3 0-4.7-1.6-4.7-4.2V366H76v-3.5h2.2v-2.8l4.2-1.5v4.4h4.2l-.8 3.5zM96.1 375.7v-8.1c0-1-.7-1.8-2-1.8s-2.1.8-2.1 1.9v8h-4.3V355H92v8.7c.7-1 1.9-1.6 3.7-1.6 2.9 0 4.6 1.6 4.6 4.4v9.1h-4.2zM114.8 368.4l-1.9 1.9h-6.4c.2 1.1 1.7 2.3 3.9 2.3 1.4 0 2.8-.4 3.6-1l-.4 3.7c-1 .5-2.5.9-4.2.9-4 0-7.2-2.8-7.2-7.1 0-4.2 3.1-6.9 6.8-6.9 3.7 0 5.9 2.5 5.9 5.2 0 .3 0 .8-.1 1zm-5.8-3c-1.2 0-2.3 1-2.6 2.1h4.4v-.3c.2-.9-.6-1.8-1.8-1.8zM140.4 375.7l-.6-6.8c-.1-1-.2-2.2-.2-3.4h-.1c-.4 1.2-1 2.4-1.6 3.5l-3.5 6.8h-1.8l-3.5-6.8c-.6-1-1.1-2.3-1.6-3.5h-.1c0 1.2-.1 2.4-.1 3.4l-.6 6.8h-4.2l1.6-18.5h3.7l4 7.8c.6 1.1 1.4 2.7 1.9 3.9.5-1.2 1.2-2.7 1.8-3.9l4-7.8h3.5l1.6 18.5h-4.2zM154.4 374.4c-2 5.3-4.1 7.2-6.6 8.2l-2.6-2.6c2.1-.8 3.7-2.3 4.8-5.1l-4.7-12.2h4.1l1.9 5.1c.3.8.6 1.7.8 2.6h.1c.3-.9.6-1.8.8-2.6l1.9-5.1h3.9l-4.4 11.7zM173.7 368.5H171v7.3h-4.3v-18.5h7c3.2 0 6 2.1 6 5.6s-2.8 5.6-6 5.6zm-.6-7.6H171v4.1h2.1c1.2 0 2.3-.6 2.3-2.1 0-1.3-1.2-2-2.3-2zM192.9 368.4l-1.9 1.9h-6.4c.2 1.1 1.7 2.3 3.9 2.3 1.4 0 2.8-.4 3.6-1l-.4 3.7c-1 .5-2.5.9-4.2.9-4 0-7.2-2.8-7.2-7.1 0-4.2 3.1-6.9 6.8-6.9 3.7 0 5.9 2.5 5.9 5.2 0 .3-.1.8-.1 1zm-5.8-3c-1.2 0-2.3 1-2.6 2.1h4.4v-.3c.1-.9-.7-1.8-1.8-1.8zM202.9 367.1c-.3-.1-.8-.3-1.3-.3-1.4 0-2.6.7-2.6 2.8v6.1h-4.3v-13.1h4.2v2.9c.4-2.1 2-3.2 3.7-3.2.4 0 .9.1 1.2.2l-.9 4.6zM209 376c-1.8 0-3.1-.4-4.2-.9l-.4-3.8c1.2.8 2.7 1.4 4.1 1.4.8 0 1.3-.4 1.3-.9 0-.6-.4-.8-1.2-1-2.5-.7-4-2-4-4.3 0-2.6 2.1-4.2 4.9-4.2 1.6 0 3.2.4 3.9.8l-.7 3.1c-.6-.3-1.7-.7-2.7-.7-.7 0-1.2.3-1.2.8s.3.8 1.2 1c3 .8 4.2 2.3 4.2 4.5s-1.6 4.2-5.2 4.2zM222.4 376.2c-4 0-7.2-2.8-7.2-7s3.2-7 7.2-7c3.9 0 7.2 2.8 7.2 7 0 4.1-3.2 7-7.2 7zm0-10.3c-1.6 0-3 1.4-3 3.3s1.4 3.3 3 3.3 3-1.4 3-3.3-1.4-3.3-3-3.3zM239.7 375.7v-8.1c0-1-.6-1.8-1.9-1.8-1.3 0-2.1.8-2.1 1.9v8h-4.3v-13.1h3.9v1.8c.5-1.4 1.9-2.2 4-2.2 2.9 0 4.6 1.6 4.6 4.4v9.1h-4.2zM255.6 376.3c-.8-.2-1.7-.8-2-1.7-.6 1.1-1.8 1.6-3.4 1.6-2.3 0-4.4-1.6-4.4-4.4 0-2.4 1.9-4 4.5-4.3l2.6-.3v-.4c0-.8-.6-1.3-2.1-1.3-1.3 0-2.7.4-3.7 1l-.8-3.2c1.1-.7 2.9-1.2 4.6-1.2 3.5 0 5.9 1.6 5.9 4.8v4.3c0 1.5.6 2.3 1.6 2.7l-2.8 2.4zm-2.8-6.3l-1.6.1c-1.1.1-1.6.9-1.6 1.7 0 .7.5 1.3 1.3 1.3 1 0 1.9-.8 1.9-1.9V370zM264.1 376.3c-2.7-.1-4.5-1.5-4.5-4.7v-16.5h4.2v16c0 1.1.6 1.7 1.8 1.7l-1.5 3.5z"/><g><path d="M39.8 397.5h-2.7v7.3h-4.3v-18.5h7c3.2 0 6 2.1 6 5.6s-2.8 5.6-6 5.6zm-.6-7.6h-2.1v4.1h2.1c1.2 0 2.3-.6 2.3-2.1 0-1.3-1.1-2-2.3-2zM59 397.4l-1.9 1.9h-6.4c.2 1.1 1.7 2.3 3.9 2.3 1.4 0 2.8-.4 3.6-1l-.4 3.7c-1 .5-2.5.9-4.2.9-4 0-7.2-2.8-7.2-7.1 0-4.2 3.1-6.9 6.8-6.9 3.7 0 5.9 2.5 5.9 5.2 0 .3 0 .8-.1 1zm-5.8-3c-1.2 0-2.3 1-2.6 2.1H55v-.3c.2-.9-.6-1.8-1.8-1.8zM69.2 404.7v-8.1c0-1-.6-1.8-1.9-1.8-1.3 0-2.1.8-2.1 1.9v8h-4.3v-13.1h3.9v1.8c.5-1.4 1.9-2.2 4-2.2 2.9 0 4.6 1.6 4.6 4.4v9.1h-4.2zM80 405c-1.8 0-3.1-.4-4.2-.9l-.4-3.8c1.2.8 2.7 1.4 4.1 1.4.8 0 1.3-.4 1.3-.9 0-.6-.4-.8-1.2-1-2.5-.7-4-2-4-4.3 0-2.6 2.1-4.2 4.9-4.2 1.6 0 3.2.4 3.9.8l-.7 3.1c-.6-.3-1.7-.7-2.7-.7-.7 0-1.2.3-1.2.8s.3.8 1.2 1c3 .8 4.2 2.3 4.2 4.5S83.6 405 80 405zM89.2 389.8c-.8 0-2.3-1.5-2.3-2.3 0-.8 1.5-2.3 2.3-2.3s2.3 1.5 2.3 2.3c0 .8-1.6 2.3-2.3 2.3zM87 404.7v-13.1h4.3v13.1H87zM100.3 405.2c-4 0-7.2-2.8-7.2-7s3.2-7 7.2-7c3.9 0 7.2 2.8 7.2 7 0 4.1-3.2 7-7.2 7zm0-10.3c-1.6 0-3 1.4-3 3.3s1.4 3.3 3 3.3 3-1.4 3-3.3-1.4-3.3-3-3.3zM117.6 404.7v-8.1c0-1-.6-1.8-1.9-1.8-1.3 0-2.1.8-2.1 1.9v8h-4.3v-13.1h3.9v1.8c.5-1.4 1.9-2.2 4-2.2 2.9 0 4.6 1.6 4.6 4.4v9.1h-4.2zM140.5 395.8c-.9-.6-1.8-.8-2.8-.8-1.9 0-3.3 1.3-3.3 3.2 0 1.9 1.5 3.2 3.4 3.2 1.1 0 1.9-.2 2.9-.7l-.4 3.6c-.9.4-2 .6-3.2.6-3.7 0-7.1-2.6-7.1-6.8 0-4.3 3.5-6.9 7-6.9 1.7 0 3.2.3 4.3 1l-.8 3.6zM152.2 405.3c-.8-.2-1.7-.8-2-1.7-.6 1.1-1.8 1.6-3.4 1.6-2.3 0-4.4-1.6-4.4-4.4 0-2.4 1.9-4 4.5-4.3l2.6-.3v-.4c0-.8-.6-1.3-2.1-1.3-1.3 0-2.7.4-3.7 1l-.8-3.2c1.1-.7 2.9-1.2 4.6-1.2 3.5 0 5.9 1.6 5.9 4.8v4.3c0 1.5.6 2.3 1.6 2.7l-2.8 2.4zm-2.7-6.3l-1.6.1c-1.1.1-1.6.9-1.6 1.7 0 .7.5 1.3 1.3 1.3 1 0 1.9-.8 1.9-1.9V399zM160.7 405.3c-2.7-.1-4.5-1.5-4.5-4.7v-16.5h4.2v16c0 1.1.6 1.7 1.8 1.7l-1.5 3.5zM173.4 395.8c-.9-.6-1.8-.8-2.8-.8-1.9 0-3.3 1.3-3.3 3.2 0 1.9 1.5 3.2 3.4 3.2 1.1 0 1.9-.2 2.9-.7l-.4 3.6c-.9.4-2 .6-3.2.6-3.7 0-7.1-2.6-7.1-6.8 0-4.3 3.5-6.9 7-6.9 1.7 0 3.2.3 4.3 1l-.8 3.6zM184.5 404.7v-1.8c-.5 1.4-1.9 2.2-4 2.2-2.9 0-4.6-1.6-4.6-4.4v-9.1h4.3v8.1c0 1 .7 1.8 2 1.8s2.1-.8 2.1-1.9v-8h4.3v13.1h-4.1zM195.3 405.3c-2.7-.1-4.5-1.5-4.5-4.7v-16.5h4.2v16c0 1.1.6 1.7 1.8 1.7l-1.5 3.5zM207.6 405.3c-.8-.2-1.7-.8-2-1.7-.6 1.1-1.8 1.6-3.4 1.6-2.3 0-4.4-1.6-4.4-4.4 0-2.4 1.9-4 4.5-4.3l2.6-.3v-.4c0-.8-.6-1.3-2.1-1.3-1.3 0-2.7.4-3.7 1l-.8-3.2c1.1-.7 2.9-1.2 4.6-1.2 3.5 0 5.9 1.6 5.9 4.8v4.3c0 1.5.6 2.3 1.6 2.7l-2.8 2.4zm-2.7-6.3l-1.6.1c-1.1.1-1.6.9-1.6 1.7 0 .7.5 1.3 1.3 1.3 1 0 1.9-.8 1.9-1.9V399zM220.2 395.1h-3.4v4.9c0 1.1.6 1.6 1.7 1.6.5 0 .8 0 1.1-.2l-.4 3.2c-.4.2-1.1.3-2 .3-3 0-4.7-1.6-4.7-4.2V395h-2.2v-3.5h2.2v-2.8l4.2-1.5v4.4h4.2l-.7 3.5zM228.4 405.2c-4 0-7.2-2.8-7.2-7s3.2-7 7.2-7c3.9 0 7.2 2.8 7.2 7 0 4.1-3.2 7-7.2 7zm0-10.3c-1.6 0-3 1.4-3 3.3s1.4 3.3 3 3.3 3-1.4 3-3.3-1.4-3.3-3-3.3zM245.6 396.1c-.3-.1-.8-.3-1.3-.3-1.4 0-2.6.7-2.6 2.8v6.1h-4.3v-13.1h4.2v2.9c.4-2.1 2-3.2 3.7-3.2.4 0 .9.1 1.2.2l-.9 4.6zM248 405.2c-.8 0-2.4-1.6-2.4-2.4 0-.8 1.6-2.4 2.4-2.4s2.4 1.6 2.4 2.4c0 .7-1.6 2.4-2.4 2.4z"/></g></svg>