<svg id="Layer_1" xmlns="http://www.w3.org/2000/svg" viewBox="0 0 300 600"><style>.st0{fill:#f9e038}</style><path class="st0" d="M91 434.1s-13 0-13 13v12.8s0 13 13 13h118s13 0 13-13v-12.8s0-13-13-13H91z"/><path d="M101.6 451.1c0-1.1-.4-2.1-1.6-2.1-1.6 0-1.7 2.1-1.7 3.2 0 1.3.2 3 1.8 3 1.1 0 1.5-.9 1.7-1.8l2.2.1c-.2 2.2-1.8 3.5-4 3.5-2.9 0-4.2-2.3-4.2-4.9 0-2.7 1.4-4.9 4.3-4.9 2.4 0 3.6 1.4 3.9 3.7l-2.4.2zM113.3 457h-2.4l-.6-2h-3.1l-.6 2h-2l3.1-9.6h2.6l3 9.6zm-3.5-3.8l-1-3.4-1 3.4h2zM120.4 455.1v1.9h-6.1v-9.6h2.2v7.7h3.9zM126.8 451.1c0-1.1-.4-2.1-1.6-2.1-1.6 0-1.7 2.1-1.7 3.2 0 1.3.2 3 1.8 3 1.1 0 1.5-.9 1.7-1.8l2.2.1c-.2 2.2-1.8 3.5-4 3.5-2.9 0-4.2-2.3-4.2-4.9 0-2.7 1.4-4.9 4.3-4.9 2.4 0 3.6 1.4 3.9 3.7l-2.4.2zM138.1 453.2c0 1.1 0 2.1-.8 2.9-.8.8-1.9 1-3 1-1 0-2.2-.2-2.9-.8-1-.8-1-1.9-1-3.1v-5.8h2.4v5.8c0 .4 0 1.1.2 1.5.3.5.9.6 1.4.6.4 0 1.1-.1 1.4-.5.3-.4.3-1.1.3-1.6v-5.8h1.9v5.8zM145.9 455.1v1.9h-6.1v-9.6h2.2v7.7h3.9zM154.8 457h-2.4l-.6-2h-3.1l-.6 2h-2l3.1-9.6h2.6l3 9.6zm-3.6-3.8l-1-3.4-1 3.4h2zM161.3 449.3h-2.4v7.7h-2.2v-7.7h-2.4v-1.9h7.1v1.9zM164.7 449.2v1.9h3.6v1.8h-3.6v2.1h4.6v1.9h-6.9v-9.6h6.9v1.9h-4.6zM182.2 457h-1.9l-3.7-6.5h-.1v6.5h-1.7v-9.6h2.4l3.2 5.6v-5.6h1.7v9.6zM184.6 455.6c-.7-1-1-2.2-1-3.4 0-2.5 1.3-4.9 4.1-4.9 1.3 0 2.3.4 3.1 1.5.7.9 1 2.3 1 3.5 0 1.1-.3 2.4-.9 3.3-.7 1.1-1.9 1.6-3.2 1.6s-2.3-.5-3.1-1.6zm1.7-5.4c-.2.6-.3 1.4-.3 2 0 1.2.2 3.1 1.8 3.1.8 0 1.2-.4 1.4-1.1.2-.6.3-1.4.3-2 0-.7-.1-1.5-.4-2.2-.3-.6-.7-.9-1.4-.9s-1.2.4-1.4 1.1zM202.1 457h-2.2l-1.6-6.4-1.5 6.4h-2.2l-2.5-9.6h2.3l1.5 6.5 1.6-6.5h2.1l1.6 6.5.1-.4 1.4-6.1h1.8l-2.4 9.6z"/></svg>