<svg id="Layer_1" xmlns="http://www.w3.org/2000/svg" xmlns:xlink="http://www.w3.org/1999/xlink" viewBox="0 0 300 600"><style>.st0{fill:#004b86}.st1{clip-path:url(#SVGID_2_);fill:#fff}.st2{clip-path:url(#SVGID_4_);fill:url(#SVGID_5_)}.st3{clip-path:url(#SVGID_7_);fill:url(#SVGID_8_)}.st4{clip-path:url(#SVGID_10_);fill:url(#SVGID_11_)}</style><path class="st0" d="M150.8 530.6v4.8h-8.5v22.9H137v-22.9h-8.5v-4.8h22.3zm2.2 27.7h5.3v-27.6H153v27.6zm33 0h-5.5l-2.8-6.8h-9.4l-2.8 6.8h-5.4l11.8-28h2.3l11.8 28zm25.9 0h-5.5l-2.8-6.8h-9.4l-2.8 6.8H186l11.8-28h2.3l11.8 28zm-36.1-11.4L173 540l-2.8 6.9h5.6zm26 0L199 540l-2.8 6.9h5.6z"/><defs><path id="SVGID_1_" d="M85 524h130v43.7H85z"/></defs><clipPath id="SVGID_2_"><use xlink:href="#SVGID_1_" overflow="visible"/></clipPath><path class="st1" d="M109.1 560.1c2.4 0 4.5-1 6.1-2.6l6.6-6.5c1.5-1.5 2.4-3.6 2.5-5.9v-20.4h-20.4c-2.4 0-4.5 1-6.1 2.6l-6.5 6.5c-1.5 1.5-2.4 3.6-2.5 5.9v20.4h20.3z"/><defs><path id="SVGID_3_" d="M106.2 526.4c-3.7 0-6.7 3-6.7 6.7v2.3h14v14h2.2c3.7 0 6.7-3 6.7-6.7v-16.2h-16.2z"/></defs><clipPath id="SVGID_4_"><use xlink:href="#SVGID_3_" overflow="visible"/></clipPath><linearGradient id="SVGID_5_" gradientUnits="userSpaceOnUse" x1=".686" y1="601.314" x2="1.686" y2="601.314" gradientTransform="scale(22.5286 -22.5286) rotate(45 757.615 293.497)"><stop offset="0" stop-color="#9bdbf7"/><stop offset=".1" stop-color="#9bdbf7"/><stop offset=".9" stop-color="#009dda"/><stop offset="1" stop-color="#009dda"/></linearGradient><path class="st2" d="M88.1 537.9L111 515l22.9 22.9-22.9 22.9z"/><g><defs><path id="SVGID_6_" d="M115.7 551.1h-18l-7.1 7.1h18.6c1.8 0 3.5-.7 4.8-2l6-6-.2-.2c-1.2.7-2.6 1.1-4.1 1.1"/></defs><clipPath id="SVGID_7_"><use xlink:href="#SVGID_6_" overflow="visible"/></clipPath><linearGradient id="SVGID_8_" gradientUnits="userSpaceOnUse" x1=".659" y1="601" x2="1.659" y2="601" gradientTransform="matrix(29.3698 0 0 -29.3698 71.204 18205.453)"><stop offset="0" stop-color="#14b0e6"/><stop offset=".161" stop-color="#13aae1"/><stop offset=".372" stop-color="#0f9ad2"/><stop offset=".61" stop-color="#097fba"/><stop offset=".867" stop-color="#015999"/><stop offset=".9" stop-color="#005494"/><stop offset="1" stop-color="#005494"/></linearGradient><path class="st3" d="M90.6 550.1H120v8.2H90.6z"/></g><g><defs><path id="SVGID_9_" d="M92.6 534.9c-1.3 1.3-2 3-2 4.8v18.6l7.1-7.1v-18c0-1.5.4-2.9 1-4.1l-.2-.2-5.9 6z"/></defs><clipPath id="SVGID_10_"><use xlink:href="#SVGID_9_" overflow="visible"/></clipPath><linearGradient id="SVGID_11_" gradientUnits="userSpaceOnUse" x1="1" y1="601.341" x2="2" y2="601.341" gradientTransform="matrix(0 -29.3703 -29.3703 0 17756.209 587.642)"><stop offset="0" stop-color="#0081bd"/><stop offset=".377" stop-color="#0070ad"/><stop offset=".85" stop-color="#005494"/><stop offset="1" stop-color="#005494"/></linearGradient><path class="st4" d="M90.6 528.9h8.2v29.4h-8.2z"/></g></svg>