<svg id="Layer_1" xmlns="http://www.w3.org/2000/svg" viewBox="0 0 160 600"><style>.st0{fill:none;stroke:#fff;stroke-width:2.527}.st1{fill:#fff}.st2{fill:none}</style><ellipse transform="rotate(-13.286 122.036 397.274)" class="st0" cx="122.07" cy="397.35" rx="21.67" ry="21.67"/><path class="st1" d="M131.91 395.95h-7.86v-7.86c0-1.09-.89-1.98-1.98-1.98-1.09 0-1.98.89-1.98 1.98v7.86h-7.86c-1.09 0-1.98.89-1.98 1.98 0 1.09.89 1.98 1.98 1.98h7.86v7.86c0 1.09.89 1.98 1.98 1.98 1.09 0 1.98-.89 1.98-1.98v-7.86h7.86c1.09 0 1.98-.89 1.98-1.98 0-1.1-.89-1.98-1.98-1.98"/><path class="st2" d="M110.25 386.11h23.64v23.64h-23.64z"/></svg>