<svg id="Layer_1" xmlns="http://www.w3.org/2000/svg" viewBox="0 0 160 600"><style>.st0{fill:#fff}</style><path class="st0" d="M13.92 586.72v-4.52l-.88.09.14-.61 1.47-.14v5.17h-.73zM17.46 586.82c-.93 0-1.74-.85-1.74-2.65 0-1.79.82-2.65 1.74-2.65.91 0 1.74.86 1.74 2.65 0 1.8-.83 2.65-1.74 2.65zm0-4.66c-.52 0-1.01.56-1.01 2 0 1.46.49 2.01 1.01 2.01.51 0 1.01-.55 1.01-2.01-.01-1.44-.5-2-1.01-2zM21.82 586.82c-.93 0-1.74-.85-1.74-2.65 0-1.79.82-2.65 1.74-2.65.91 0 1.74.86 1.74 2.65.01 1.8-.83 2.65-1.74 2.65zm0-4.66c-.52 0-1.01.56-1.01 2 0 1.46.49 2.01 1.01 2.01.51 0 1.01-.55 1.01-2.01 0-1.44-.5-2-1.01-2zM24.9 586.72v-4.52l-.88.09.14-.61 1.47-.14v5.17h-.73zM28.35 586.82c-.93 0-1.7-.56-1.7-1.51 0-.77.62-1.23 1.01-1.38-.39-.15-.78-.54-.78-1.12 0-.76.63-1.29 1.48-1.29s1.49.54 1.49 1.29c0 .56-.41.97-.78 1.1.38.13 1.01.62 1.01 1.39-.02.96-.8 1.52-1.73 1.52zm-.06-2.55c-.43.13-.96.48-.96 1.01 0 .52.46.9.99.9.54 0 1-.38 1-.9.01-.53-.58-.89-1.03-1.01zm.07-2.14c-.42 0-.78.3-.78.7 0 .35.34.68.81.81.47-.14.75-.46.75-.81 0-.4-.34-.7-.78-.7zM31.42 586.72v-4.52l-.88.09.14-.61 1.47-.14v5.17h-.73zM34.04 586.72h-.78l1.94-4.48h-2.34v-.62h3.38l-2.2 5.1z"/></svg>