<svg id="Layer_1" xmlns="http://www.w3.org/2000/svg" viewBox="0 0 160 600"><style>.st0{fill:#f8df1f}</style><path class="st0" d="M50.56 143.41h-2.47l-2.32-7.05c-.35-1.05-.67-2.15-1.05-3.55h-.05c-.35 1.38-.7 2.52-1.05 3.55l-2.32 7.05h-2.42l-5.32-16.05h3.77l2.07 6.45c.3.97.62 2 .87 3.2h.05c.22-1.2.52-2.2.85-3.2l2.1-6.45h3.32l2.07 6.42c.3.9.6 2.05.85 3.22h.05c.2-1.15.55-2.3.85-3.2l2.12-6.45h3.35l-5.32 16.06zM59.13 130.44c-.65 0-1.97-1.32-1.97-1.97 0-.65 1.32-1.95 1.97-1.95s1.97 1.3 1.97 1.95c.01.65-1.32 1.97-1.97 1.97zm-1.85 12.87v-11.32h3.7v11.32h-3.7zM67.28 143.76c-2.32-.1-3.87-1.3-3.87-4.02v-14.22h3.62v13.77c0 .92.52 1.42 1.52 1.5l-1.27 2.97zM73.86 143.76c-2.32-.1-3.87-1.3-3.87-4.02v-14.22h3.62v13.77c0 .92.52 1.42 1.52 1.5l-1.27 2.97zM89.23 142.19c-1.72 4.55-3.52 6.2-5.65 7.02l-2.25-2.25c1.83-.7 3.22-2.02 4.15-4.42l-4.07-10.55h3.55l1.65 4.4c.25.65.5 1.42.67 2.22h.05c.22-.77.47-1.57.72-2.22l1.65-4.4h3.37l-3.84 10.2zM99.56 143.66c-3.42 0-6.17-2.42-6.17-6.02s2.75-6.02 6.17-6.02c3.4 0 6.17 2.42 6.17 6.02s-2.77 6.02-6.17 6.02zm0-8.85c-1.38 0-2.55 1.2-2.55 2.87 0 1.67 1.17 2.87 2.55 2.87 1.35 0 2.55-1.2 2.55-2.87 0-1.67-1.2-2.87-2.55-2.87zM114.98 143.31v-1.55h-.03c-.45 1.2-1.65 1.87-3.47 1.87-2.47 0-3.97-1.37-3.97-3.77v-7.87h3.67v6.95c0 .82.58 1.55 1.7 1.55 1.1 0 1.77-.73 1.77-1.62V132h3.67v11.32h-3.34zM127.71 135.89c-.22-.12-.72-.27-1.1-.27-1.17 0-2.25.62-2.25 2.42v5.27h-3.67v-11.32h3.62v2.52h.03c.38-1.77 1.7-2.72 3.22-2.72.35 0 .78.05 1.05.15l-.9 3.95z"/><g><path class="st0" d="M32.68 161.89a2.82 2.82 0 0 0-1.1-.27c-1.17 0-2.25.62-2.25 2.42v5.27h-3.67v-11.32h3.62v2.52h.03c.37-1.77 1.7-2.72 3.22-2.72.35 0 .77.05 1.05.15l-.9 3.95zM44.96 163.01l-1.62 1.65h-5.55c.17.92 1.42 1.97 3.35 1.97 1.17 0 2.37-.35 3.12-.85l-.35 3.15c-.85.45-2.15.75-3.6.75-3.45 0-6.22-2.4-6.22-6.1 0-3.65 2.65-5.97 5.9-5.97 3.15 0 5.07 2.17 5.07 4.52 0 .28-.05.66-.1.88zm-4.98-2.64c-1.07 0-1.97.82-2.2 1.85h3.82c0-.08.03-.15.03-.25 0-.78-.67-1.6-1.65-1.6zM54.53 160.99h-2.95v4.2c0 .97.52 1.37 1.5 1.37.43 0 .67-.02.95-.15l-.32 2.77c-.35.17-.97.3-1.7.3-2.55 0-4.07-1.35-4.07-3.6v-4.9h-1.9v-3h1.9v-2.42l3.65-1.32v3.75h3.65l-.71 3zM58.41 156.44c-.65 0-1.97-1.32-1.97-1.97 0-.65 1.32-1.95 1.97-1.95s1.97 1.3 1.97 1.95c0 .65-1.32 1.97-1.97 1.97zm-1.85 12.87v-11.32h3.7v11.32h-3.7zM69.68 161.89c-.23-.12-.73-.27-1.1-.27-1.17 0-2.25.62-2.25 2.42v5.27h-3.67v-11.32h3.62v2.52h.03c.37-1.77 1.7-2.72 3.22-2.72.35 0 .77.05 1.05.15l-.9 3.95zM81.96 163.01l-1.62 1.65h-5.55c.17.92 1.42 1.97 3.35 1.97 1.17 0 2.37-.35 3.12-.85l-.35 3.15c-.85.45-2.15.75-3.6.75-3.45 0-6.22-2.4-6.22-6.1 0-3.65 2.65-5.97 5.9-5.97 3.15 0 5.07 2.17 5.07 4.52 0 .28-.05.66-.1.88zm-4.98-2.64c-1.07 0-1.97.82-2.2 1.85h3.82c0-.08.03-.15.03-.25 0-.78-.67-1.6-1.65-1.6zM97.81 169.31v-6.95c0-.82-.4-1.55-1.6-1.55-1.17 0-1.7.7-1.7 1.6v6.9h-3.67v-6.95c0-.82-.4-1.55-1.6-1.55-1.17 0-1.7.7-1.7 1.6v6.9h-3.67v-11.32h3.4v1.52h.02c.45-1.2 1.58-1.88 3.35-1.88 1.62 0 2.85.65 3.35 1.85.47-1.1 1.8-1.85 3.5-1.85 2.57 0 4 1.4 4 3.8v7.87h-3.68zM114.18 163.01l-1.62 1.65h-5.55c.17.92 1.42 1.97 3.35 1.97 1.17 0 2.37-.35 3.12-.85l-.35 3.15c-.85.45-2.15.75-3.6.75-3.45 0-6.22-2.4-6.22-6.1 0-3.65 2.65-5.97 5.9-5.97 3.15 0 5.07 2.17 5.07 4.52 0 .28-.05.66-.1.88zm-4.97-2.64c-1.08 0-1.97.82-2.2 1.85h3.82c0-.08.03-.15.03-.25 0-.78-.68-1.6-1.65-1.6zM123.23 169.31v-6.95c0-.82-.55-1.55-1.67-1.55-1.1 0-1.8.7-1.8 1.6v6.9h-3.67v-11.32h3.37v1.52h.03c.45-1.2 1.62-1.88 3.45-1.88 2.47 0 3.97 1.4 3.97 3.8v7.87h-3.68zM136.66 160.99h-2.95v4.2c0 .97.52 1.37 1.5 1.37.42 0 .67-.02.95-.15l-.33 2.77c-.35.17-.97.3-1.7.3-2.55 0-4.07-1.35-4.07-3.6v-4.9h-1.9v-3h1.9v-2.42l3.65-1.32v3.75h3.65l-.7 3z"/></g><g><path class="st0" d="M48.93 195.56c-1.55 0-2.67-.33-3.6-.8l-.32-3.25c1 .7 2.3 1.23 3.55 1.23.67 0 1.1-.35 1.1-.77 0-.48-.37-.67-1.02-.88-2.17-.62-3.47-1.72-3.47-3.7 0-2.22 1.8-3.65 4.25-3.65 1.4 0 2.77.38 3.35.67l-.62 2.7c-.55-.3-1.45-.62-2.35-.62-.6 0-1 .27-1 .72 0 .42.3.65 1 .82 2.55.68 3.6 1.95 3.6 3.85-.02 1.93-1.42 3.68-4.47 3.68zM63.16 195.81c-.67-.15-1.45-.67-1.75-1.5-.5.92-1.57 1.37-2.95 1.37-2 0-3.77-1.4-3.77-3.75 0-2.07 1.62-3.47 3.87-3.7l2.25-.23v-.38c0-.67-.55-1.12-1.77-1.12-1.1 0-2.32.35-3.15.88l-.65-2.77c.92-.6 2.47-1 3.97-1 3 0 5.12 1.38 5.12 4.1v3.7c0 1.32.5 2.02 1.38 2.35l-2.55 2.05zm-2.35-5.45l-1.37.12c-.95.07-1.38.75-1.38 1.42 0 .6.45 1.1 1.15 1.1.87 0 1.6-.67 1.6-1.65v-.99zM72.53 195.41h-2.75l-4.35-11.42h3.55l1.6 4.32c.22.6.45 1.45.62 2.2h.05c.17-.72.42-1.6.65-2.2l1.6-4.32h3.4l-4.37 11.42zM80.11 182.44c-.65 0-1.97-1.32-1.97-1.97 0-.65 1.32-1.95 1.97-1.95.65 0 1.97 1.3 1.97 1.95 0 .65-1.32 1.97-1.97 1.97zm-1.85 12.87v-11.32h3.7v11.32h-3.7zM91.48 195.31v-6.95c0-.82-.55-1.55-1.67-1.55-1.1 0-1.8.7-1.8 1.6v6.9h-3.67v-11.32h3.37v1.52h.03c.45-1.2 1.62-1.88 3.45-1.88 2.47 0 3.97 1.4 3.97 3.8v7.87h-3.68zM102.23 201.09c-3.3 0-5.5-1.87-5.5-4.25 0-1.72 1.15-2.75 2.33-3.05l-1.45-1.45c.1-.73.72-1.35 1.38-1.62-.85-.52-1.65-1.6-1.65-3.02 0-2.4 1.72-4.07 4.67-4.07.67 0 1.2.1 1.67.23.5.12 1.05.2 1.62.2.62 0 1.27-.15 1.77-.37l.67 2.8c-.35.2-.9.37-1.4.35.12.23.28.75.28 1.15 0 1.9-1.5 3.5-3.7 3.65-.45.02-.75.12-.75.42 0 .12.1.27.3.35l1.75.62c2.22.8 3.42 1.92 3.42 4 .02 2.31-2.11 4.06-5.41 4.06zm.78-5.33l-1.35-.37c-.87.02-1.52.65-1.52 1.47 0 .77.67 1.42 2 1.42 1.3 0 2-.6 2-1.25-.01-.52-.41-1.07-1.13-1.27zm-1-9.47c-.83 0-1.45.62-1.45 1.35 0 .75.62 1.35 1.45 1.35.8 0 1.45-.6 1.45-1.35 0-.72-.6-1.35-1.45-1.35zM112.81 195.56c-1.55 0-2.67-.33-3.6-.8l-.33-3.25c1 .7 2.3 1.23 3.55 1.23.67 0 1.1-.35 1.1-.77 0-.48-.38-.67-1.02-.88-2.17-.62-3.47-1.72-3.47-3.7 0-2.22 1.8-3.65 4.25-3.65 1.4 0 2.77.38 3.35.67l-.62 2.7c-.55-.3-1.45-.62-2.35-.62-.6 0-1 .27-1 .72 0 .42.3.65 1 .82 2.55.68 3.6 1.95 3.6 3.85-.01 1.93-1.41 3.68-4.46 3.68z"/></g><g><path class="st0" d="M40.21 221.64c-2.4 0-4.35-.82-5.45-1.67v-16.45h3.55v6.87c.47-.38 1.67-.75 2.85-.75 3.12 0 5.7 2.22 5.7 5.8 0 3.5-2.23 6.2-6.65 6.2zm.3-8.77c-1.05 0-1.85.5-2.2.87v4.32c.37.27 1.15.55 1.85.55 1.87 0 3.05-1.27 3.05-2.92 0-1.58-1.1-2.82-2.7-2.82zM59.06 215.01l-1.62 1.65h-5.55c.17.92 1.42 1.97 3.35 1.97 1.17 0 2.37-.35 3.12-.85l-.35 3.15c-.85.45-2.15.75-3.6.75-3.45 0-6.22-2.4-6.22-6.1 0-3.65 2.65-5.97 5.9-5.97 3.15 0 5.07 2.17 5.07 4.52 0 .28-.05.66-.1.88zm-4.98-2.64c-1.07 0-1.97.82-2.2 1.85h3.82c0-.08.03-.15.03-.25 0-.78-.67-1.6-1.65-1.6zM73.56 213.89c-.23-.12-.73-.27-1.1-.27-1.17 0-2.25.62-2.25 2.42v5.27h-3.67v-11.32h3.62v2.52h.03c.37-1.77 1.7-2.72 3.22-2.72.35 0 .77.05 1.05.15l-.9 3.95zM85.83 215.01l-1.62 1.65h-5.55c.17.92 1.42 1.97 3.35 1.97 1.17 0 2.38-.35 3.12-.85l-.35 3.15c-.85.45-2.15.75-3.6.75-3.45 0-6.22-2.4-6.22-6.1 0-3.65 2.65-5.97 5.9-5.97 3.15 0 5.07 2.17 5.07 4.52 0 .28-.05.66-.1.88zm-4.97-2.64c-1.07 0-1.97.82-2.2 1.85h3.82c0-.08.02-.15.02-.25.01-.78-.67-1.6-1.64-1.6zM95.58 221.81c-.67-.15-1.45-.67-1.75-1.5-.5.92-1.57 1.37-2.95 1.37-2 0-3.77-1.4-3.77-3.75 0-2.07 1.62-3.47 3.87-3.7l2.25-.23v-.38c0-.67-.55-1.12-1.77-1.12-1.1 0-2.32.35-3.15.88l-.65-2.77c.92-.6 2.47-1 3.97-1 3 0 5.12 1.38 5.12 4.1v3.7c0 1.32.5 2.02 1.37 2.35l-2.54 2.05zm-2.35-5.45l-1.38.12c-.95.07-1.37.75-1.37 1.42 0 .6.45 1.1 1.15 1.1.88 0 1.6-.67 1.6-1.65v-.99zM107.73 221.31v-1.4h-.02c-.62 1.15-1.92 1.72-3.5 1.72-2.77 0-5.45-2.1-5.45-5.97 0-3.65 2.6-6.02 5.75-6.02 1.2 0 2.42.4 2.87.77v-6.9h3.57v17.8h-3.22zm-.35-7.42c-.35-.47-1.1-1.02-2.22-1.02-1.6 0-2.72 1.25-2.72 2.87s1.12 2.87 2.72 2.87c1.08 0 1.82-.58 2.22-1.17v-3.55zM120.11 220.19c-1.72 4.55-3.52 6.2-5.65 7.02l-2.25-2.25c1.82-.7 3.22-2.02 4.15-4.42l-4.07-10.55h3.55l1.65 4.4c.25.65.5 1.42.67 2.22h.05c.22-.77.47-1.57.72-2.22l1.65-4.4h3.37l-3.84 10.2zM124.88 225.06l-1.15-.2c.85-.98 1.5-2.4 1.65-3.52-.62-.12-1.65-1.2-1.65-1.75 0-.72 1.42-2.05 2.07-2.05.58 0 2.07 1.27 2.07 2.05.01 1.57-1.51 4.12-2.99 5.47z"/></g><g><path class="st0" d="M66.93 238.99h-2.95v4.2c0 .97.52 1.37 1.5 1.37.43 0 .67-.02.95-.15l-.33 2.77c-.35.17-.97.3-1.7.3-2.55 0-4.07-1.35-4.07-3.6v-4.9h-1.9v-3h1.9v-2.42l3.65-1.32v3.75h3.65l-.7 3zM74.33 247.66c-3.42 0-6.17-2.42-6.17-6.02s2.75-6.02 6.17-6.02c3.4 0 6.17 2.42 6.17 6.02s-2.77 6.02-6.17 6.02zm0-8.85c-1.37 0-2.55 1.2-2.55 2.87 0 1.67 1.17 2.87 2.55 2.87 1.35 0 2.55-1.2 2.55-2.87 0-1.67-1.2-2.87-2.55-2.87zM87.96 247.66c-3.42 0-6.17-2.42-6.17-6.02s2.75-6.02 6.17-6.02c3.4 0 6.17 2.42 6.17 6.02s-2.77 6.02-6.17 6.02zm0-8.85c-1.38 0-2.55 1.2-2.55 2.87 0 1.67 1.17 2.87 2.55 2.87 1.35 0 2.55-1.2 2.55-2.87 0-1.67-1.2-2.87-2.55-2.87zM100.98 239.46c-.62.7-.87 1.3-.87 1.97 0 .35.02.77.1 1.1l-3.15-.62c-.12-.5-.17-.87-.17-1.27 0-1.35.52-2.47 1.45-3.45.65-.67.98-1.15.98-1.87 0-.52-.5-1.12-1.38-1.12-.9 0-1.7.32-2.55.82l-.75-3.1c.92-.58 2.15-.95 3.57-.95 2.95 0 4.9 1.7 4.9 4.22 0 1.5-.65 2.68-2.13 4.27zm-2.27 8.2c-.67 0-2.07-1.4-2.07-2.07 0-.65 1.4-2.05 2.07-2.05s2.08 1.4 2.08 2.05c-.01.67-1.38 2.07-2.08 2.07z"/></g></svg>