<svg id="Layer_1" xmlns="http://www.w3.org/2000/svg" viewBox="0 0 160 600"><style>.st0{fill:#f8df1f}</style><path class="st0" d="M47.32 143.26h-2.47l-2.32-7.05c-.35-1.05-.68-2.15-1.05-3.55h-.05c-.35 1.38-.7 2.52-1.05 3.55l-2.32 7.05h-2.42l-5.32-16.05h3.77l2.07 6.45c.3.97.62 2 .87 3.2h.05c.22-1.2.52-2.2.85-3.2l2.1-6.45h3.32l2.07 6.42c.3.9.6 2.05.85 3.22h.05c.2-1.15.55-2.3.85-3.2l2.12-6.45h3.35l-5.32 16.06zM61.22 143.16v-6.95c0-.82-.58-1.55-1.7-1.55-1.1 0-1.77.7-1.77 1.6v6.9h-3.67v-17.8h3.62v7.52h.02c.58-.88 1.62-1.4 3.2-1.4 2.5 0 3.97 1.4 3.97 3.8v7.87h-3.67zM75.17 143.66c-.67-.15-1.45-.67-1.75-1.5-.5.92-1.57 1.37-2.95 1.37-2 0-3.77-1.4-3.77-3.75 0-2.07 1.62-3.47 3.87-3.7l2.25-.23v-.38c0-.67-.55-1.12-1.77-1.12-1.1 0-2.32.35-3.15.88l-.65-2.77c.92-.6 2.47-1 3.97-1 3 0 5.12 1.38 5.12 4.1v3.7c0 1.32.5 2.02 1.38 2.35l-2.55 2.05zm-2.35-5.45l-1.37.12c-.95.07-1.38.75-1.38 1.42 0 .6.45 1.1 1.15 1.1.87 0 1.6-.67 1.6-1.65v-.99zM86.3 134.83h-2.95v4.2c0 .97.53 1.37 1.5 1.37.42 0 .67-.02.95-.15l-.32 2.77c-.35.17-.98.3-1.7.3-2.55 0-4.07-1.35-4.07-3.6v-4.9h-1.9v-3h1.9v-2.42l3.65-1.32v3.75H87l-.7 3zM101.9 143.66c-.67-.15-1.45-.67-1.75-1.5-.5.92-1.57 1.37-2.95 1.37-2 0-3.77-1.4-3.77-3.75 0-2.07 1.62-3.47 3.87-3.7l2.25-.23v-.38c0-.67-.55-1.12-1.77-1.12-1.1 0-2.32.35-3.15.88l-.65-2.77c.92-.6 2.47-1 3.97-1 3 0 5.12 1.38 5.12 4.1v3.7c0 1.32.5 2.02 1.37 2.35l-2.54 2.05zm-2.35-5.45l-1.38.12c-.95.07-1.37.75-1.37 1.42 0 .6.45 1.1 1.15 1.1.88 0 1.6-.67 1.6-1.65v-.99zM110.4 148.93c-3.3 0-5.5-1.87-5.5-4.25 0-1.72 1.15-2.75 2.33-3.05l-1.45-1.45c.1-.73.72-1.35 1.38-1.62-.85-.52-1.65-1.6-1.65-3.02 0-2.4 1.72-4.07 4.67-4.07.67 0 1.2.1 1.67.23.5.12 1.05.2 1.62.2.62 0 1.27-.15 1.77-.37l.67 2.8c-.35.2-.9.37-1.4.35.12.23.28.75.28 1.15 0 1.9-1.5 3.5-3.7 3.65-.45.02-.75.12-.75.42 0 .12.1.27.3.35l1.75.62c2.22.8 3.42 1.92 3.42 4 .01 2.31-2.12 4.06-5.41 4.06zm.77-5.33l-1.35-.37c-.87.02-1.52.65-1.52 1.47 0 .77.67 1.42 2 1.42 1.3 0 2-.6 2-1.25-.01-.52-.4-1.06-1.13-1.27zm-1-9.47c-.83 0-1.45.62-1.45 1.35 0 .75.62 1.35 1.45 1.35.8 0 1.45-.6 1.45-1.35 0-.72-.6-1.35-1.45-1.35zM127.62 136.86l-1.62 1.65h-5.55c.17.92 1.42 1.97 3.35 1.97 1.17 0 2.37-.35 3.12-.85l-.35 3.15c-.85.45-2.15.75-3.6.75-3.45 0-6.22-2.4-6.22-6.1 0-3.65 2.65-5.97 5.9-5.97 3.15 0 5.07 2.17 5.07 4.52 0 .28-.05.65-.1.88zm-4.97-2.65c-1.08 0-1.97.82-2.2 1.85h3.82c0-.08.03-.15.03-.25-.01-.78-.68-1.6-1.65-1.6z"/><g><path class="st0" d="M52.25 169.26h-2.52l-1.52-4.5c-.23-.7-.45-1.5-.67-2.35h-.05c-.17.85-.4 1.67-.62 2.32l-1.52 4.52h-2.4L39 157.83h3.35l1.4 4.3c.2.65.42 1.45.55 2.17h.05c.12-.7.32-1.52.55-2.17l1.42-4.3h2.77l1.42 4.27c.23.7.38 1.47.52 2.2h.05c.15-.73.35-1.52.58-2.2l1.42-4.27h3.12l-3.95 11.43zM59.4 156.28c-.65 0-1.97-1.32-1.97-1.97 0-.65 1.32-1.95 1.97-1.95s1.97 1.3 1.97 1.95c0 .65-1.32 1.97-1.97 1.97zm-1.85 12.88v-11.32h3.7v11.32h-3.7zM67.55 169.6c-2.32-.1-3.87-1.3-3.87-4.02v-14.22h3.62v13.77c0 .92.52 1.42 1.52 1.5l-1.27 2.97zM74.12 169.6c-2.32-.1-3.87-1.3-3.87-4.02v-14.22h3.62v13.77c0 .92.52 1.42 1.52 1.5l-1.27 2.97zM89.5 168.03c-1.72 4.55-3.52 6.2-5.65 7.02l-2.25-2.25c1.83-.7 3.22-2.02 4.15-4.42l-4.07-10.55h3.55l1.65 4.4c.25.65.5 1.42.67 2.22h.05c.22-.77.47-1.57.72-2.22l1.65-4.4h3.37l-3.84 10.2zM99.82 169.51c-3.42 0-6.17-2.42-6.17-6.02s2.75-6.02 6.17-6.02c3.4 0 6.17 2.42 6.17 6.02s-2.77 6.02-6.17 6.02zm0-8.85c-1.38 0-2.55 1.2-2.55 2.87 0 1.67 1.17 2.87 2.55 2.87 1.35 0 2.55-1.2 2.55-2.87 0-1.67-1.2-2.87-2.55-2.87zM115.25 169.16v-1.55h-.03c-.45 1.2-1.65 1.87-3.47 1.87-2.47 0-3.97-1.37-3.97-3.77v-7.87h3.67v6.95c0 .82.58 1.55 1.7 1.55 1.1 0 1.77-.73 1.77-1.62v-6.87h3.67v11.32h-3.34z"/></g><g><path class="st0" d="M40.52 195.48c-2.4 0-4.35-.82-5.45-1.67v-16.45h3.55v6.87c.47-.38 1.67-.75 2.85-.75 3.12 0 5.7 2.22 5.7 5.8 0 3.5-2.22 6.2-6.65 6.2zm.3-8.77c-1.05 0-1.85.5-2.2.87v4.32c.37.27 1.15.55 1.85.55 1.88 0 3.05-1.27 3.05-2.92 0-1.57-1.1-2.82-2.7-2.82zM59.37 188.86l-1.62 1.65H52.2c.17.92 1.42 1.97 3.35 1.97 1.17 0 2.37-.35 3.12-.85l-.35 3.15c-.85.45-2.15.75-3.6.75-3.45 0-6.22-2.4-6.22-6.1 0-3.65 2.65-5.97 5.9-5.97 3.15 0 5.07 2.17 5.07 4.52 0 .28-.05.65-.1.88zm-4.97-2.65c-1.07 0-1.97.82-2.2 1.85h3.82c0-.08.02-.15.02-.25.01-.78-.67-1.6-1.64-1.6zM73.87 187.73a2.82 2.82 0 0 0-1.1-.27c-1.17 0-2.25.62-2.25 2.42v5.27h-3.67v-11.32h3.62v2.52h.03c.37-1.77 1.7-2.72 3.22-2.72.35 0 .77.05 1.05.15l-.9 3.95zM86.15 188.86l-1.62 1.65h-5.55c.17.92 1.42 1.97 3.35 1.97 1.17 0 2.37-.35 3.12-.85l-.35 3.15c-.85.45-2.15.75-3.6.75-3.45 0-6.22-2.4-6.22-6.1 0-3.65 2.65-5.97 5.9-5.97 3.15 0 5.07 2.17 5.07 4.52 0 .28-.05.65-.1.88zm-4.98-2.65c-1.08 0-1.97.82-2.2 1.85h3.82c0-.08.03-.15.03-.25 0-.78-.67-1.6-1.65-1.6zM95.9 195.66c-.67-.15-1.45-.67-1.75-1.5-.5.92-1.57 1.37-2.95 1.37-2 0-3.77-1.4-3.77-3.75 0-2.07 1.62-3.47 3.87-3.7l2.25-.23v-.38c0-.67-.55-1.12-1.77-1.12-1.1 0-2.32.35-3.15.88l-.65-2.77c.92-.6 2.47-1 3.97-1 3 0 5.12 1.38 5.12 4.1v3.7c0 1.32.5 2.02 1.37 2.35l-2.54 2.05zm-2.35-5.45l-1.38.12c-.95.07-1.37.75-1.37 1.42 0 .6.45 1.1 1.15 1.1.88 0 1.6-.67 1.6-1.65v-.99zM108.04 195.16v-1.4h-.02c-.62 1.15-1.92 1.72-3.5 1.72-2.77 0-5.45-2.1-5.45-5.97 0-3.65 2.6-6.02 5.75-6.02 1.2 0 2.42.4 2.87.77v-6.9h3.57v17.8h-3.22zm-.34-7.43c-.35-.47-1.1-1.02-2.22-1.02-1.6 0-2.72 1.25-2.72 2.87s1.12 2.87 2.72 2.87c1.08 0 1.82-.58 2.22-1.17v-3.55zM120.42 194.03c-1.72 4.55-3.52 6.2-5.65 7.02l-2.25-2.25c1.82-.7 3.22-2.02 4.15-4.42l-4.07-10.55h3.55l1.65 4.4c.25.65.5 1.42.67 2.22h.05c.22-.77.47-1.57.72-2.22l1.65-4.4h3.37l-3.84 10.2z"/></g><g><path class="st0" d="M39.95 212.83H37v4.2c0 .97.52 1.37 1.5 1.37.43 0 .67-.02.95-.15l-.32 2.77c-.35.17-.97.3-1.7.3-2.55 0-4.07-1.35-4.07-3.6v-4.9h-1.9v-3h1.9v-2.42l3.65-1.32v3.75h3.65l-.71 3zM47.35 221.51c-3.42 0-6.17-2.42-6.17-6.02s2.75-6.02 6.17-6.02c3.4 0 6.17 2.42 6.17 6.02s-2.77 6.02-6.17 6.02zm0-8.85c-1.37 0-2.55 1.2-2.55 2.87 0 1.67 1.17 2.87 2.55 2.87 1.35 0 2.55-1.2 2.55-2.87 0-1.67-1.2-2.87-2.55-2.87zM67.97 213.73c-.23-.12-.73-.27-1.1-.27-1.17 0-2.25.62-2.25 2.42v5.27h-3.67v-11.32h3.62v2.52h.03c.37-1.77 1.7-2.72 3.22-2.72.35 0 .77.05 1.05.15l-.9 3.95zM80.25 214.86l-1.62 1.65h-5.55c.17.92 1.42 1.97 3.35 1.97 1.17 0 2.37-.35 3.12-.85l-.35 3.15c-.85.45-2.15.75-3.6.75-3.45 0-6.22-2.4-6.22-6.1 0-3.65 2.65-5.97 5.9-5.97 3.15 0 5.07 2.17 5.07 4.52 0 .28-.06.65-.1.88zm-4.98-2.65c-1.07 0-1.97.82-2.2 1.85h3.82c0-.08.02-.15.02-.25.01-.78-.66-1.6-1.64-1.6zM89.8 212.83h-2.95v4.2c0 .97.52 1.37 1.5 1.37.42 0 .67-.02.95-.15l-.33 2.77c-.35.17-.97.3-1.7.3-2.55 0-4.07-1.35-4.07-3.6v-4.9h-1.9v-3h1.9v-2.42l3.65-1.32v3.75h3.65l-.7 3zM93.67 208.28c-.65 0-1.97-1.32-1.97-1.97 0-.65 1.33-1.95 1.97-1.95s1.97 1.3 1.97 1.95c.01.65-1.32 1.97-1.97 1.97zm-1.85 12.88v-11.32h3.7v11.32h-3.7zM104.92 213.73c-.22-.12-.72-.27-1.1-.27-1.17 0-2.25.62-2.25 2.42v5.27H97.9v-11.32h3.62v2.52h.03c.38-1.77 1.7-2.72 3.22-2.72.35 0 .78.05 1.05.15l-.9 3.95zM117.17 214.86l-1.62 1.65H110c.17.92 1.42 1.97 3.35 1.97 1.17 0 2.37-.35 3.12-.85l-.35 3.15c-.85.45-2.15.75-3.6.75-3.45 0-6.22-2.4-6.22-6.1 0-3.65 2.65-5.97 5.9-5.97 3.15 0 5.07 2.17 5.07 4.52 0 .28-.05.65-.1.88zm-4.97-2.65c-1.08 0-1.97.82-2.2 1.85h3.82c0-.08.03-.15.03-.25 0-.78-.68-1.6-1.65-1.6zM124.2 213.31c-.62.7-.87 1.3-.87 1.97 0 .35.02.77.1 1.1l-3.15-.62c-.12-.5-.17-.87-.17-1.27 0-1.35.53-2.47 1.45-3.45.65-.67.98-1.15.98-1.87 0-.52-.5-1.12-1.38-1.12-.9 0-1.7.32-2.55.82l-.75-3.1c.92-.58 2.15-.95 3.57-.95 2.95 0 4.9 1.7 4.9 4.22-.01 1.49-.66 2.67-2.13 4.27zm-2.28 8.2c-.67 0-2.07-1.4-2.07-2.07 0-.65 1.4-2.05 2.07-2.05s2.08 1.4 2.08 2.05c0 .67-1.38 2.07-2.08 2.07z"/></g></svg>