<svg id="Layer_1" xmlns="http://www.w3.org/2000/svg" viewBox="0 0 160 600"><style>.st0{fill:#f8df1f}</style><path class="st0" d="M33.63 130.54v3.15h4.52v3.25h-4.52v6.37h-3.8v-15.95h9.27v3.17h-5.47zM42.33 130.44c-.65 0-1.97-1.32-1.97-1.97 0-.65 1.32-1.95 1.97-1.95s1.97 1.3 1.97 1.95c0 .65-1.32 1.97-1.97 1.97zm-1.85 12.87v-11.32h3.7v11.32h-3.7zM51.38 149.09c-3.3 0-5.5-1.87-5.5-4.25 0-1.72 1.15-2.75 2.32-3.05l-1.45-1.45c.1-.73.73-1.35 1.38-1.62-.85-.52-1.65-1.6-1.65-3.02 0-2.4 1.72-4.07 4.67-4.07.67 0 1.2.1 1.67.23.5.12 1.05.2 1.62.2.62 0 1.27-.15 1.77-.37l.67 2.8c-.35.2-.9.37-1.4.35.12.23.27.75.27 1.15 0 1.9-1.5 3.5-3.7 3.65-.45.02-.75.12-.75.42 0 .12.1.27.3.35l1.75.62c2.22.8 3.42 1.92 3.42 4 .03 2.31-2.09 4.06-5.39 4.06zm.77-5.33l-1.35-.37c-.88.02-1.52.65-1.52 1.47 0 .77.67 1.42 2 1.42 1.3 0 2-.6 2-1.25 0-.52-.4-1.07-1.13-1.27zm-1-9.47c-.82 0-1.45.62-1.45 1.35 0 .75.62 1.35 1.45 1.35.8 0 1.45-.6 1.45-1.35 0-.72-.6-1.35-1.45-1.35zM65.7 143.31v-1.55h-.02c-.45 1.2-1.65 1.87-3.47 1.87-2.47 0-3.97-1.37-3.97-3.77v-7.87h3.67v6.95c0 .82.57 1.55 1.7 1.55 1.1 0 1.77-.73 1.77-1.62V132h3.67v11.32H65.7zM78.43 135.89a2.82 2.82 0 0 0-1.1-.27c-1.17 0-2.25.62-2.25 2.42v5.27H71.4v-11.32h3.62v2.52h.03c.37-1.77 1.7-2.72 3.22-2.72.35 0 .77.05 1.05.15l-.89 3.95zM90.7 137.01l-1.62 1.65h-5.55c.17.92 1.42 1.97 3.35 1.97 1.17 0 2.37-.35 3.12-.85l-.35 3.15c-.85.45-2.15.75-3.6.75-3.45 0-6.22-2.4-6.22-6.1 0-3.65 2.65-5.97 5.9-5.97 3.15 0 5.07 2.17 5.07 4.52 0 .28-.05.66-.1.88zm-4.97-2.64c-1.08 0-1.97.82-2.2 1.85h3.82c0-.08.03-.15.03-.25 0-.78-.68-1.6-1.65-1.6zM103.93 143.66c-3.42 0-6.17-2.42-6.17-6.02s2.75-6.02 6.17-6.02c3.4 0 6.17 2.42 6.17 6.02s-2.77 6.02-6.17 6.02zm0-8.85c-1.38 0-2.55 1.2-2.55 2.87 0 1.67 1.17 2.87 2.55 2.87 1.35 0 2.55-1.2 2.55-2.87 0-1.67-1.2-2.87-2.55-2.87zM119.35 143.31v-1.55h-.03c-.45 1.2-1.65 1.87-3.47 1.87-2.47 0-3.97-1.37-3.97-3.77v-7.87h3.67v6.95c0 .82.58 1.55 1.7 1.55 1.1 0 1.77-.73 1.77-1.62V132h3.67v11.32h-3.34zM132.65 134.99h-2.95v4.2c0 .97.52 1.37 1.5 1.37.42 0 .67-.02.95-.15l-.33 2.77c-.35.17-.97.3-1.7.3-2.55 0-4.07-1.35-4.07-3.6v-4.9h-1.9v-3h1.9v-2.42l3.65-1.32v3.75h3.65l-.7 3z"/><g><path class="st0" d="M65.28 168.19c-1.72 4.55-3.52 6.2-5.65 7.02l-2.25-2.25c1.82-.7 3.22-2.02 4.15-4.42l-4.07-10.55H61l1.65 4.4c.25.65.5 1.42.67 2.22h.05c.23-.77.48-1.57.73-2.22l1.65-4.4h3.37l-3.84 10.2zM75.6 169.66c-3.42 0-6.17-2.42-6.17-6.02s2.75-6.02 6.17-6.02c3.4 0 6.17 2.42 6.17 6.02s-2.77 6.02-6.17 6.02zm0-8.85c-1.37 0-2.55 1.2-2.55 2.87 0 1.67 1.17 2.87 2.55 2.87 1.35 0 2.55-1.2 2.55-2.87 0-1.67-1.2-2.87-2.55-2.87zM91.03 169.31v-1.55H91c-.45 1.2-1.65 1.87-3.47 1.87-2.47 0-3.97-1.37-3.97-3.77v-7.87h3.67v6.95c0 .82.58 1.55 1.7 1.55 1.1 0 1.77-.73 1.77-1.62V158h3.67v11.32h-3.34zM103.75 161.89c-.22-.12-.72-.27-1.1-.27-1.17 0-2.25.62-2.25 2.42v5.27h-3.67v-11.32h3.62v2.52h.03c.38-1.77 1.7-2.72 3.22-2.72.35 0 .78.05 1.05.15l-.9 3.95z"/></g><g><path class="st0" d="M27.95 201.09c-3.3 0-5.5-1.87-5.5-4.25 0-1.72 1.15-2.75 2.32-3.05l-1.45-1.45c.1-.73.73-1.35 1.38-1.62-.85-.52-1.65-1.6-1.65-3.02 0-2.4 1.72-4.07 4.67-4.07.68 0 1.2.1 1.67.23.5.12 1.05.2 1.62.2.62 0 1.27-.15 1.77-.37l.68 2.8c-.35.2-.9.37-1.4.35.12.23.27.75.27 1.15 0 1.9-1.5 3.5-3.7 3.65-.45.02-.75.12-.75.42 0 .12.1.27.3.35l1.75.62c2.22.8 3.42 1.92 3.42 4 .03 2.31-2.1 4.06-5.4 4.06zm.78-5.33l-1.35-.37c-.88.02-1.52.65-1.52 1.47 0 .77.67 1.42 2 1.42 1.3 0 2-.6 2-1.25-.01-.52-.41-1.07-1.13-1.27zm-1-9.47c-.82 0-1.45.62-1.45 1.35 0 .75.62 1.35 1.45 1.35.8 0 1.45-.6 1.45-1.35 0-.72-.6-1.35-1.45-1.35zM42.28 195.31v-1.55h-.02c-.45 1.2-1.65 1.87-3.47 1.87-2.47 0-3.97-1.37-3.97-3.77v-7.87h3.67v6.95c0 .82.57 1.55 1.7 1.55 1.1 0 1.77-.73 1.77-1.62V184h3.67v11.32h-3.35zM55.95 195.81c-.67-.15-1.45-.67-1.75-1.5-.5.92-1.57 1.37-2.95 1.37-2 0-3.77-1.4-3.77-3.75 0-2.07 1.62-3.47 3.87-3.7l2.25-.23v-.38c0-.67-.55-1.12-1.77-1.12-1.1 0-2.32.35-3.15.88l-.65-2.77c.92-.6 2.47-1 3.97-1 3 0 5.12 1.38 5.12 4.1v3.7c0 1.32.5 2.02 1.38 2.35l-2.55 2.05zm-2.35-5.45l-1.38.12c-.95.07-1.37.75-1.37 1.42 0 .6.45 1.1 1.15 1.1.87 0 1.6-.67 1.6-1.65v-.99zM66.78 187.89c-.23-.12-.73-.27-1.1-.27-1.17 0-2.25.62-2.25 2.42v5.27h-3.67v-11.32h3.62v2.52h.03c.37-1.77 1.7-2.72 3.22-2.72.35 0 .77.05 1.05.15l-.9 3.95zM76.83 195.81c-.67-.15-1.45-.67-1.75-1.5-.5.92-1.57 1.37-2.95 1.37-2 0-3.77-1.4-3.77-3.75 0-2.07 1.62-3.47 3.87-3.7l2.25-.23v-.38c0-.67-.55-1.12-1.77-1.12-1.1 0-2.32.35-3.15.88l-.65-2.77c.92-.6 2.47-1 3.97-1 3 0 5.12 1.38 5.12 4.1v3.7c0 1.32.5 2.02 1.38 2.35l-2.55 2.05zm-2.35-5.45l-1.37.12c-.95.07-1.38.75-1.38 1.42 0 .6.45 1.1 1.15 1.1.87 0 1.6-.67 1.6-1.65v-.99zM87.78 195.31v-6.95c0-.82-.55-1.55-1.67-1.55-1.1 0-1.8.7-1.8 1.6v6.9h-3.67v-11.32H84v1.52h.03c.45-1.2 1.62-1.88 3.45-1.88 2.47 0 3.97 1.4 3.97 3.8v7.87h-3.67zM101.23 186.99h-2.95v4.2c0 .97.52 1.37 1.5 1.37.42 0 .67-.02.95-.15l-.33 2.77c-.35.17-.97.3-1.7.3-2.55 0-4.07-1.35-4.07-3.6v-4.9h-1.9v-3h1.9v-2.42l3.65-1.32v3.75h3.65l-.7 3zM113.33 189.01l-1.62 1.65h-5.55c.17.92 1.42 1.97 3.35 1.97 1.17 0 2.37-.35 3.12-.85l-.35 3.15c-.85.45-2.15.75-3.6.75-3.45 0-6.22-2.4-6.22-6.1 0-3.65 2.65-5.97 5.9-5.97 3.15 0 5.07 2.17 5.07 4.52 0 .28-.05.66-.1.88zm-4.98-2.64c-1.08 0-1.97.82-2.2 1.85h3.82c0-.08.03-.15.03-.25 0-.78-.67-1.6-1.65-1.6zM125.53 189.01l-1.62 1.65h-5.55c.17.92 1.42 1.97 3.35 1.97 1.17 0 2.37-.35 3.12-.85l-.35 3.15c-.85.45-2.15.75-3.6.75-3.45 0-6.22-2.4-6.22-6.1 0-3.65 2.65-5.97 5.9-5.97 3.15 0 5.07 2.17 5.07 4.52-.01.28-.05.66-.1.88zm-4.98-2.64c-1.08 0-1.97.82-2.2 1.85h3.82c0-.08.03-.15.03-.25 0-.78-.67-1.6-1.65-1.6zM135.88 195.31v-1.4h-.02c-.62 1.15-1.92 1.72-3.5 1.72-2.77 0-5.45-2.1-5.45-5.97 0-3.65 2.6-6.02 5.75-6.02 1.2 0 2.42.4 2.87.77v-6.9h3.57v17.8h-3.22zm-.35-7.42c-.35-.47-1.1-1.02-2.22-1.02-1.6 0-2.72 1.25-2.72 2.87s1.12 2.87 2.72 2.87c1.08 0 1.82-.58 2.22-1.17v-3.55z"/></g><g><path class="st0" d="M45.23 221.76c-2.32-.1-3.87-1.3-3.87-4.02v-14.22h3.62v13.77c0 .92.52 1.42 1.52 1.5l-1.27 2.97zM49.85 208.44c-.65 0-1.97-1.32-1.97-1.97 0-.65 1.32-1.95 1.97-1.95s1.97 1.3 1.97 1.95c.01.65-1.32 1.97-1.97 1.97zM48 221.31v-11.32h3.7v11.32H48zM62 206.79a4.38 4.38 0 0 0-1.47-.3c-1.35 0-2.05.8-2.05 2.42v1.07h3.25l-.72 3h-2.52v8.32h-3.55v-8.32H53.2v-3h1.72v-1.32c0-3.45 2.22-5.15 5.07-5.15 1.05 0 2.1.12 2.67.37l-.66 2.91zM73.08 215.01l-1.62 1.65H65.9c.17.92 1.42 1.97 3.35 1.97 1.17 0 2.37-.35 3.12-.85l-.35 3.15c-.85.45-2.15.75-3.6.75-3.45 0-6.22-2.4-6.22-6.1 0-3.65 2.65-5.97 5.9-5.97 3.15 0 5.07 2.17 5.07 4.52.01.28-.04.66-.09.88zm-4.98-2.64c-1.07 0-1.97.82-2.2 1.85h3.82c0-.08.02-.15.02-.25.01-.78-.66-1.6-1.64-1.6zM82.65 212.99H79.7v4.2c0 .97.52 1.37 1.5 1.37.42 0 .67-.02.95-.15l-.33 2.77c-.35.17-.97.3-1.7.3-2.55 0-4.07-1.35-4.07-3.6v-4.9h-1.9v-3h1.9v-2.42l3.65-1.32v3.75h3.65l-.7 3zM86.53 208.44c-.65 0-1.97-1.32-1.97-1.97 0-.65 1.33-1.95 1.97-1.95s1.97 1.3 1.97 1.95c0 .65-1.32 1.97-1.97 1.97zm-1.85 12.87v-11.32h3.7v11.32h-3.7zM104.72 221.31v-6.95c0-.82-.4-1.55-1.6-1.55-1.17 0-1.7.7-1.7 1.6v6.9h-3.67v-6.95c0-.82-.4-1.55-1.6-1.55-1.17 0-1.7.7-1.7 1.6v6.9h-3.67v-11.32h3.4v1.52h.02c.45-1.2 1.58-1.88 3.35-1.88 1.62 0 2.85.65 3.35 1.85.47-1.1 1.8-1.85 3.5-1.85 2.57 0 4 1.4 4 3.8v7.87h-3.68zM121.1 215.01l-1.62 1.65h-5.55c.17.92 1.42 1.97 3.35 1.97 1.17 0 2.37-.35 3.12-.85l-.35 3.15c-.85.45-2.15.75-3.6.75-3.45 0-6.22-2.4-6.22-6.1 0-3.65 2.65-5.97 5.9-5.97 3.15 0 5.07 2.17 5.07 4.52 0 .28-.05.66-.1.88zm-4.97-2.64c-1.08 0-1.97.82-2.2 1.85h3.82c0-.08.03-.15.03-.25 0-.78-.68-1.6-1.65-1.6z"/></g><g><path class="st0" d="M31.5 234.44c-.65 0-1.97-1.32-1.97-1.97 0-.65 1.32-1.95 1.97-1.95s1.97 1.3 1.97 1.95c.01.65-1.32 1.97-1.97 1.97zm-1.85 12.87v-11.32h3.7v11.32h-3.7zM42.88 247.31v-6.95c0-.82-.55-1.55-1.67-1.55-1.1 0-1.8.7-1.8 1.6v6.9h-3.67v-11.32h3.37v1.52h.02c.45-1.2 1.62-1.88 3.45-1.88 2.47 0 3.97 1.4 3.97 3.8v7.87h-3.67zM57.43 239.64c-.75-.47-1.52-.72-2.42-.72-1.6 0-2.87 1.15-2.87 2.8 0 1.62 1.27 2.8 2.95 2.8.95 0 1.67-.2 2.47-.62l-.32 3.12c-.75.35-1.72.55-2.77.55-3.17 0-6.12-2.25-6.12-5.9 0-3.7 2.97-5.92 6.05-5.92 1.5 0 2.72.3 3.72.85l-.69 3.04zM65.35 247.66c-3.42 0-6.17-2.42-6.17-6.02s2.75-6.02 6.17-6.02c3.4 0 6.17 2.42 6.17 6.02s-2.77 6.02-6.17 6.02zm0-8.85c-1.37 0-2.55 1.2-2.55 2.87 0 1.67 1.17 2.87 2.55 2.87 1.35 0 2.55-1.2 2.55-2.87 0-1.67-1.2-2.87-2.55-2.87zM87.3 247.31v-6.95c0-.82-.4-1.55-1.6-1.55-1.17 0-1.7.7-1.7 1.6v6.9h-3.67v-6.95c0-.82-.4-1.55-1.6-1.55-1.17 0-1.7.7-1.7 1.6v6.9h-3.67v-11.32h3.4v1.52h.02c.45-1.2 1.57-1.88 3.35-1.88 1.62 0 2.85.65 3.35 1.85.47-1.1 1.8-1.85 3.5-1.85 2.57 0 4 1.4 4 3.8v7.87H87.3zM103.68 241.01l-1.62 1.65H96.5c.17.92 1.42 1.97 3.35 1.97 1.17 0 2.37-.35 3.12-.85l-.35 3.15c-.85.45-2.15.75-3.6.75-3.45 0-6.22-2.4-6.22-6.1 0-3.65 2.65-5.97 5.9-5.97 3.15 0 5.07 2.17 5.07 4.52.01.28-.04.66-.09.88zm-4.98-2.64c-1.08 0-1.97.82-2.2 1.85h3.82c0-.08.03-.15.03-.25 0-.78-.67-1.6-1.65-1.6zM114.85 247.56c-1.55 0-2.67-.33-3.6-.8l-.33-3.25c1 .7 2.3 1.23 3.55 1.23.67 0 1.1-.35 1.1-.77 0-.48-.38-.67-1.02-.88-2.17-.62-3.47-1.72-3.47-3.7 0-2.22 1.8-3.65 4.25-3.65 1.4 0 2.77.38 3.35.67l-.62 2.7c-.55-.3-1.45-.62-2.35-.62-.6 0-1 .27-1 .72 0 .42.3.65 1 .82 2.55.68 3.6 1.95 3.6 3.85-.01 1.93-1.41 3.68-4.46 3.68zM126.68 247.66c-3.42 0-6.17-2.42-6.17-6.02s2.75-6.02 6.17-6.02c3.4 0 6.17 2.42 6.17 6.02s-2.77 6.02-6.17 6.02zm0-8.85c-1.38 0-2.55 1.2-2.55 2.87 0 1.67 1.17 2.87 2.55 2.87 1.35 0 2.55-1.2 2.55-2.87 0-1.67-1.2-2.87-2.55-2.87z"/></g></svg>