<svg id="Layer_1" xmlns="http://www.w3.org/2000/svg" viewBox="0 0 160 600"><style>.st0{fill:#28bdef}</style><path class="st0" d="M31.97 438.19c-5.6 0-10.15 4.54-10.15 10.14v9.97c0 5.6 4.54 10.14 10.15 10.14h97.95c5.6 0 10.15-4.54 10.15-10.14v-9.97c0-5.6-4.54-10.14-10.15-10.14H31.97z"/><path d="M54.89 448.3c1.24 0 2.3.08 3.23.96.92.87 1.32 2.06 1.32 3.29 0 1.15-.35 2.26-1.11 3.12-.85.94-1.9 1.19-3.11 1.19H52.4v-8.56h2.49zm-.49 6.96h.67c.84 0 1.37-.16 1.83-.91.34-.55.47-1.21.47-1.85 0-.67-.2-1.4-.61-1.94-.46-.6-.97-.69-1.69-.69h-.67v5.39zM62.71 456.87h-2v-8.56h2v8.56zM68.75 450.75c-.25-.72-.71-1.01-1.47-1.01-.54 0-1.19.14-1.19.8 0 .62.75.77 1.24.86.7.15 1.64.32 2.23.72.7.46 1.12 1.17 1.12 2.02 0 .84-.4 1.63-1.06 2.15-.69.54-1.62.7-2.48.7-1.61 0-3.07-.7-3.46-2.37l1.85-.42c.25.9.9 1.21 1.78 1.21.57 0 1.34-.21 1.34-.92 0-.71-.97-.85-1.5-.96-1.52-.31-3.02-.76-3.02-2.63 0-.8.31-1.5.92-2.01.62-.52 1.36-.7 2.15-.7 1.5 0 2.72.52 3.25 2.01l-1.7.55zM76.74 451.62c-.01-.95-.34-1.83-1.44-1.83-1.41 0-1.55 1.85-1.55 2.88 0 1.17.14 2.68 1.65 2.68.94 0 1.37-.79 1.49-1.61l1.95.12c-.21 1.96-1.56 3.12-3.53 3.12-2.55 0-3.78-2.07-3.78-4.41 0-2.37 1.27-4.41 3.84-4.41 2.15 0 3.25 1.25 3.47 3.31l-2.1.15zM80.69 455.64c-.62-.89-.9-2-.9-3.07 0-2.27 1.14-4.39 3.67-4.39 1.14 0 2.03.38 2.72 1.31.61.84.92 2.05.92 3.08 0 .97-.26 2.16-.81 2.97-.66.97-1.67 1.45-2.83 1.45s-2.1-.4-2.77-1.35zm1.47-4.85c-.2.51-.27 1.25-.27 1.78 0 1.07.16 2.78 1.57 2.78.69 0 1.06-.34 1.29-.97.2-.52.26-1.24.26-1.8 0-.62-.06-1.36-.31-1.93-.25-.57-.61-.84-1.24-.84-.69 0-1.06.35-1.3.98zM92.2 456.87h-2.16l-2.57-8.56h2.13l1.72 6.12 1.77-6.12h1.68l-2.57 8.56zM97.64 449.96v1.74h3.25v1.61h-3.25v1.9h4.12v1.66h-6.12v-8.56h6.12v1.66h-4.12zM104.92 456.87h-2v-8.56h3.61c.76 0 1.54.01 2.2.44.7.46 1.09 1.3 1.09 2.13 0 .97-.56 1.87-1.49 2.21l1.58 3.78h-2.22l-1.31-3.38h-1.46v3.38zm0-4.86h1.1c.41 0 .86.04 1.22-.17.32-.2.5-.6.5-.97 0-.34-.2-.7-.49-.87-.34-.21-.91-.16-1.29-.16h-1.05v2.17z"/></svg>