<svg id="Layer_1" xmlns="http://www.w3.org/2000/svg" viewBox="0 0 160 600"><style>.st0{fill:#fff}.st1{fill:#000001}</style><path class="st0" d="M97.4 448.41h-2.72c-1.38 0-2.5 1.42-2.5 2.69v-4.23c0-1.27-1.12-2.69-2.5-2.69h-2.72c-1.38 0-2.5 1.42-2.5 2.69v-2.69c0-1.27-1.12-2.69-2.5-2.69h-2.72c-1.38 0-2.5 1.42-2.5 2.69v-10.44c0-1.96-1.73-3.54-3.86-3.54s-3.86 1.59-3.86 3.54v20.6c-2.4-1.65-5.89-4.62-9.09-3.23-2.29 1-1.76 4.06.51 6.34 3.98 3.98 8.19 11.89 9.74 16.44 2.45 7.17 3.83 10.32 3.83 10.32h20.63s2.29-7.37 4.45-11.84c.26-.53.81-1.56.81-5.15V451.1c0-1.27-1.12-2.69-2.5-2.69"/><path class="st1" d="M74.93 482.82h18.7c.7-2.17 2.48-7.47 4.22-11.06.23-.48.67-1.38.67-4.55V451.1c0-.56-.56-1.31-1.12-1.31h-2.72c-.57 0-1.12.75-1.12 1.31 0 .76-.62 1.38-1.38 1.38-.76 0-1.38-.62-1.38-1.38v-4.23c0-.56-.55-1.31-1.12-1.31h-2.72c-.57 0-1.12.75-1.12 1.31 0 .76-.62 1.38-1.38 1.38-.76 0-1.38-.62-1.38-1.38v-2.69c0-.56-.56-1.31-1.12-1.31h-2.72c-.57 0-1.12.75-1.12 1.31 0 .76-.62 1.38-1.38 1.38-.76 0-1.38-.62-1.38-1.38v-10.44c0-1.19-1.11-2.16-2.48-2.16-1.37 0-2.48.97-2.48 2.16v20.6c0 .51-.28.98-.74 1.22-.45.24-1 .21-1.42-.08-.28-.2-.58-.41-.89-.63-1.7-1.21-3.81-2.72-5.66-2.72-.43 0-.82.08-1.21.25-.37.16-.56.39-.62.74-.14.75.29 2.09 1.56 3.36 4.01 4.01 8.35 11.93 10.07 16.97 1.69 4.97 2.89 8.02 3.44 9.37m19.71 2.76H74.01c-.55 0-1.04-.32-1.26-.82-.06-.13-1.44-3.29-3.88-10.43-1.41-4.14-5.47-11.97-9.41-15.91-1.78-1.78-2.67-4.01-2.32-5.83.24-1.25 1.03-2.23 2.23-2.75.73-.32 1.5-.48 2.31-.48 2.17 0 4.21 1.13 5.96 2.32v-17.94c0-2.71 2.35-4.92 5.24-4.92s5.24 2.21 5.24 4.92v6.57c.35-.12.73-.19 1.12-.19h2.72c1.79 0 3.22 1.4 3.7 2.95.4-.16.84-.26 1.3-.26h2.72c2.22 0 3.88 2.15 3.88 4.07v.35c.35-.12.73-.19 1.12-.19h2.72c2.22 0 3.88 2.15 3.88 4.07v16.12c0 3.8-.6 5.04-.93 5.7-2.11 4.37-4.37 11.62-4.4 11.69-.18.57-.71.96-1.31.96"/><path class="st1" d="M76.73 452.03c-.76 0-1.38-.62-1.38-1.38v-6.47c0-.76.62-1.38 1.38-1.38.76 0 1.38.62 1.38 1.38v6.47c0 .76-.62 1.38-1.38 1.38M84.45 454.72c-.76 0-1.38-.62-1.38-1.38v-6.47c0-.76.62-1.38 1.38-1.38.76 0 1.38.62 1.38 1.38v6.47c0 .76-.61 1.38-1.38 1.38M92.18 458.94c-.76 0-1.38-.62-1.38-1.38v-6.47c0-.76.62-1.38 1.38-1.38.76 0 1.38.62 1.38 1.38v6.47c-.01.77-.62 1.38-1.38 1.38"/></svg>