<?xml version="1.0" encoding="utf-8"?>
<!-- Generator: Adobe Illustrator 24.0.0, SVG Export Plug-In . SVG Version: 6.00 Build 0)  -->
<svg version="1.1" id="Layer_1" xmlns="http://www.w3.org/2000/svg" xmlns:xlink="http://www.w3.org/1999/xlink" x="0px" y="0px"
	 viewBox="0 0 300 250" style="enable-background:new 0 0 300 250;" xml:space="preserve">
<style type="text/css">
	.st0{fill:#FFFFFF;}
</style>
<g>
	<path class="st0" d="M11.2,241.9l-0.7-0.3c1-0.5,1.7-1.2,2.1-2c-0.2,0.2-0.5,0.3-0.8,0.3c-1,0-1.6-0.7-1.6-1.6c0-1,0.7-1.7,1.7-1.7
		c0.9,0,1.7,0.6,1.7,1.8C13.6,239.7,12.6,241.2,11.2,241.9z M11.8,237.2c-0.5,0-0.9,0.4-0.9,1c0,0.6,0.4,1,1,1c0.4,0,0.8-0.2,1-0.7
		c0-0.1,0-0.2,0-0.2C12.8,237.7,12.3,237.2,11.8,237.2z"/>
	<path class="st0" d="M15.4,241.9l-0.7-0.3c1-0.5,1.7-1.2,2.1-2c-0.2,0.2-0.5,0.3-0.8,0.3c-1,0-1.6-0.7-1.6-1.6c0-1,0.7-1.7,1.7-1.7
		c0.9,0,1.7,0.6,1.7,1.8C17.7,239.7,16.7,241.2,15.4,241.9z M16,237.2c-0.5,0-0.9,0.4-0.9,1c0,0.6,0.4,1,1,1c0.4,0,0.8-0.2,1-0.7
		c0-0.1,0-0.2,0-0.2C17,237.7,16.5,237.2,16,237.2z"/>
	<path class="st0" d="M20.1,241.8c-0.9,0-1.7-0.6-1.7-1.8c0-1.4,1-2.8,2.4-3.5l0.7,0.3c-1,0.5-1.7,1.2-2.1,2
		c0.2-0.2,0.4-0.3,0.8-0.3c1,0,1.6,0.7,1.6,1.6C21.8,241.1,21.1,241.8,20.1,241.8z M20.2,239.2c-0.4,0-0.8,0.2-1,0.7
		c0,0.1,0,0.2,0,0.3c0,0.6,0.5,1.1,1,1.1s0.9-0.4,0.9-1C21.1,239.6,20.7,239.2,20.2,239.2z"/>
	<path class="st0" d="M24.3,241.8c-0.9,0-1.7-0.8-1.7-2.7c0-1.8,0.8-2.6,1.7-2.6c0.9,0,1.7,0.9,1.7,2.6
		C26,241,25.2,241.8,24.3,241.8z M24.3,237.2c-0.5,0-1,0.6-1,2c0,1.5,0.5,2,1,2c0.5,0,1-0.6,1-2C25.3,237.7,24.8,237.2,24.3,237.2z"
		/>
	<path class="st0" d="M27.4,241.7v-4.5l-0.9,0.1l0.1-0.6l1.5-0.1v5.2H27.4z"/>
	<path class="st0" d="M28.9,241.7v-0.1c1.2-1.4,2.1-2.7,2.1-3.5c0-0.6-0.4-0.9-0.8-0.9c-0.4,0-0.7,0.1-1,0.3l-0.2-0.6
		c0.3-0.2,0.7-0.3,1.2-0.3c0.9,0,1.6,0.6,1.6,1.6c0,1-0.9,2.1-1.6,3H32v0.6H28.9z"/>
</g>
</svg>
