<?xml version="1.0" encoding="utf-8"?>
<!-- Generator: Adobe Illustrator 24.0.0, SVG Export Plug-In . SVG Version: 6.00 Build 0)  -->
<svg version="1.1" id="Layer_1" xmlns="http://www.w3.org/2000/svg" xmlns:xlink="http://www.w3.org/1999/xlink" x="0px" y="0px"
	 viewBox="0 0 300 250" style="enable-background:new 0 0 300 250;" xml:space="preserve">
<style type="text/css">
	.st0{fill:#F8DF1F;}
</style>
<g>
	<path class="st0" d="M83.9,84.8c-4,0-8.1-2.6-8.1-7.7c0-5.1,4.2-7.7,8.1-7.7c2,0,3.8,0.6,4.8,1.2L88,73.6c-0.9-0.6-2.3-1-3.7-1
		c-2.7,0-4.9,1.8-4.9,4.7c0,2.7,2.1,4.6,4.8,4.6c0.9,0,1.5-0.1,2-0.4V79h-2.6v-2.7h5.8v7C88.1,84.3,86.3,84.8,83.9,84.8z"/>
	<path class="st0" d="M101.2,78.6l-1.5,1.5h-5.1c0.2,0.9,1.3,1.8,3.1,1.8c1.1,0,2.2-0.3,2.9-0.8l-0.3,2.9c-0.8,0.4-2,0.7-3.3,0.7
		c-3.2,0-5.7-2.2-5.7-5.6c0-3.4,2.4-5.5,5.4-5.5c2.9,0,4.7,2,4.7,4.2C101.3,78.1,101.2,78.4,101.2,78.6z M96.6,76.2
		c-1,0-1.8,0.8-2,1.7h3.5c0-0.1,0-0.1,0-0.2C98.1,77,97.5,76.2,96.6,76.2z"/>
	<path class="st0" d="M110,76.8h-2.7v3.9c0,0.9,0.5,1.3,1.4,1.3c0.4,0,0.6,0,0.9-0.1l-0.3,2.6c-0.3,0.2-0.9,0.3-1.6,0.3
		c-2.3,0-3.7-1.2-3.7-3.3v-4.5h-1.7V74h1.7v-2.2l3.4-1.2V74h3.4L110,76.8z"/>
	<path class="st0" d="M121.6,89.8c-3,0-5.1-1.7-5.1-3.9c0-1.6,1.1-2.5,2.1-2.8l-1.3-1.3c0.1-0.7,0.7-1.2,1.3-1.5
		c-0.8-0.5-1.5-1.5-1.5-2.8c0-2.2,1.6-3.7,4.3-3.7c0.6,0,1.1,0.1,1.5,0.2c0.5,0.1,1,0.2,1.5,0.2c0.6,0,1.2-0.1,1.6-0.3l0.6,2.6
		c-0.3,0.2-0.8,0.3-1.3,0.3c0.1,0.2,0.3,0.7,0.3,1.1c0,1.7-1.4,3.2-3.4,3.4c-0.4,0-0.7,0.1-0.7,0.4c0,0.1,0.1,0.3,0.3,0.3l1.6,0.6
		c2,0.7,3.1,1.8,3.1,3.7C126.6,88.1,124.6,89.8,121.6,89.8z M122.3,84.9l-1.2-0.3c-0.8,0-1.4,0.6-1.4,1.4c0,0.7,0.6,1.3,1.8,1.3
		c1.2,0,1.8-0.6,1.8-1.1C123.3,85.5,123,85,122.3,84.9z M121.4,76.1c-0.8,0-1.3,0.6-1.3,1.2c0,0.7,0.6,1.2,1.3,1.2
		c0.7,0,1.3-0.6,1.3-1.2C122.7,76.7,122.2,76.1,121.4,76.1z"/>
	<path class="st0" d="M134.8,84.4V83h0c-0.4,1.1-1.5,1.7-3.2,1.7c-2.3,0-3.7-1.3-3.7-3.5V74h3.4v6.4c0,0.8,0.5,1.4,1.6,1.4
		c1,0,1.6-0.7,1.6-1.5V74h3.4v10.4H134.8z"/>
	<path class="st0" d="M147.4,84.9c-0.6-0.1-1.3-0.6-1.6-1.4c-0.5,0.9-1.4,1.3-2.7,1.3c-1.8,0-3.5-1.3-3.5-3.4c0-1.9,1.5-3.2,3.6-3.4
		l2.1-0.2v-0.3c0-0.6-0.5-1-1.6-1c-1,0-2.1,0.3-2.9,0.8l-0.6-2.6c0.9-0.6,2.3-0.9,3.7-0.9c2.8,0,4.7,1.3,4.7,3.8v3.4
		c0,1.2,0.5,1.9,1.3,2.2L147.4,84.9z M145.2,79.9l-1.3,0.1c-0.9,0.1-1.3,0.7-1.3,1.3c0,0.6,0.4,1,1.1,1c0.8,0,1.5-0.6,1.5-1.5V79.9z
		"/>
	<path class="st0" d="M157.3,77.6c-0.2-0.1-0.7-0.3-1-0.3c-1.1,0-2.1,0.6-2.1,2.2v4.9h-3.4V74h3.3v2.3h0c0.3-1.6,1.6-2.5,3-2.5
		c0.3,0,0.7,0,1,0.1L157.3,77.6z"/>
	<path class="st0" d="M166.6,84.9c-0.6-0.1-1.3-0.6-1.6-1.4c-0.5,0.9-1.4,1.3-2.7,1.3c-1.8,0-3.5-1.3-3.5-3.4c0-1.9,1.5-3.2,3.6-3.4
		l2.1-0.2v-0.3c0-0.6-0.5-1-1.6-1c-1,0-2.1,0.3-2.9,0.8l-0.6-2.6c0.9-0.6,2.3-0.9,3.7-0.9c2.8,0,4.7,1.3,4.7,3.8v3.4
		c0,1.2,0.5,1.9,1.3,2.2L166.6,84.9z M164.4,79.9l-1.3,0.1c-0.9,0.1-1.3,0.7-1.3,1.3c0,0.6,0.4,1,1.1,1c0.8,0,1.5-0.6,1.5-1.5V79.9z
		"/>
	<path class="st0" d="M176.7,84.4v-6.4c0-0.8-0.5-1.4-1.5-1.4c-1,0-1.7,0.6-1.7,1.5v6.3h-3.4V74h3.1v1.4h0c0.4-1.1,1.5-1.7,3.2-1.7
		c2.3,0,3.7,1.3,3.7,3.5v7.2H176.7z"/>
	<path class="st0" d="M189,76.8h-2.7v3.9c0,0.9,0.5,1.3,1.4,1.3c0.4,0,0.6,0,0.9-0.1l-0.3,2.6c-0.3,0.2-0.9,0.3-1.6,0.3
		c-2.3,0-3.7-1.2-3.7-3.3v-4.5h-1.7V74h1.7v-2.2l3.4-1.2V74h3.4L189,76.8z"/>
	<path class="st0" d="M200.2,78.6l-1.5,1.5h-5.1c0.2,0.9,1.3,1.8,3.1,1.8c1.1,0,2.2-0.3,2.9-0.8l-0.3,2.9c-0.8,0.4-2,0.7-3.3,0.7
		c-3.2,0-5.7-2.2-5.7-5.6c0-3.4,2.4-5.5,5.4-5.5c2.9,0,4.7,2,4.7,4.2C200.2,78.1,200.2,78.4,200.2,78.6z M195.6,76.2
		c-1,0-1.8,0.8-2,1.7h3.5c0-0.1,0-0.1,0-0.2C197.1,77,196.5,76.2,195.6,76.2z"/>
	<path class="st0" d="M211.4,78.6l-1.5,1.5h-5.1c0.2,0.9,1.3,1.8,3.1,1.8c1.1,0,2.2-0.3,2.9-0.8l-0.3,2.9c-0.8,0.4-2,0.7-3.3,0.7
		c-3.2,0-5.7-2.2-5.7-5.6c0-3.4,2.4-5.5,5.4-5.5c2.9,0,4.7,2,4.7,4.2C211.5,78.1,211.4,78.4,211.4,78.6z M206.8,76.2
		c-1,0-1.8,0.8-2,1.7h3.5c0-0.1,0-0.1,0-0.2C208.3,77,207.7,76.2,206.8,76.2z"/>
	<path class="st0" d="M220.9,84.4v-1.3h0c-0.6,1.1-1.8,1.6-3.2,1.6c-2.6,0-5-1.9-5-5.5c0-3.4,2.4-5.5,5.3-5.5c1.1,0,2.2,0.4,2.6,0.7
		v-6.3h3.3v16.4H220.9z M220.6,77.6c-0.3-0.4-1-0.9-2-0.9c-1.5,0-2.5,1.1-2.5,2.6s1,2.6,2.5,2.6c1,0,1.7-0.5,2-1.1V77.6z"/>
</g>
<g>
	<path class="st0" d="M56.8,108.8c-2.1-0.1-3.6-1.2-3.6-3.7V92.1h3.3v12.7c0,0.9,0.5,1.3,1.4,1.4L56.8,108.8z"/>
	<path class="st0" d="M61,96.6c-0.6,0-1.8-1.2-1.8-1.8c0-0.6,1.2-1.8,1.8-1.8c0.6,0,1.8,1.2,1.8,1.8C62.8,95.4,61.6,96.6,61,96.6z
		 M59.3,108.4V98h3.4v10.4H59.3z"/>
	<path class="st0" d="M72.2,95.1c-0.4-0.2-0.9-0.3-1.4-0.3c-1.2,0-1.9,0.7-1.9,2.2v1h3l-0.7,2.8h-2.3v7.7h-3.3v-7.7h-1.6V98h1.6
		v-1.2c0-3.2,2-4.7,4.7-4.7c1,0,1.9,0.1,2.5,0.3L72.2,95.1z"/>
	<path class="st0" d="M82.4,102.6l-1.5,1.5h-5.1c0.2,0.9,1.3,1.8,3.1,1.8c1.1,0,2.2-0.3,2.9-0.8l-0.3,2.9c-0.8,0.4-2,0.7-3.3,0.7
		c-3.2,0-5.7-2.2-5.7-5.6c0-3.4,2.4-5.5,5.4-5.5c2.9,0,4.7,2,4.7,4.2C82.5,102.1,82.4,102.4,82.4,102.6z M77.8,100.2
		c-1,0-1.8,0.8-2,1.7h3.5c0-0.1,0-0.1,0-0.2C79.3,101,78.7,100.2,77.8,100.2z"/>
	<path class="st0" d="M91.2,100.8h-2.7v3.9c0,0.9,0.5,1.3,1.4,1.3c0.4,0,0.6,0,0.9-0.1l-0.3,2.6c-0.3,0.2-0.9,0.3-1.6,0.3
		c-2.3,0-3.7-1.2-3.7-3.3v-4.5h-1.7V98h1.7v-2.2l3.4-1.2V98h3.4L91.2,100.8z"/>
	<path class="st0" d="M94.8,96.6c-0.6,0-1.8-1.2-1.8-1.8c0-0.6,1.2-1.8,1.8-1.8c0.6,0,1.8,1.2,1.8,1.8
		C96.6,95.4,95.4,96.6,94.8,96.6z M93.1,108.4V98h3.4v10.4H93.1z"/>
	<path class="st0" d="M111.5,108.4V102c0-0.8-0.4-1.4-1.5-1.4c-1.1,0-1.6,0.6-1.6,1.5v6.3h-3.4V102c0-0.8-0.4-1.4-1.5-1.4
		c-1.1,0-1.6,0.6-1.6,1.5v6.3h-3.4V98h3.1v1.4h0c0.4-1.1,1.4-1.7,3.1-1.7c1.5,0,2.6,0.6,3.1,1.7c0.4-1,1.7-1.7,3.2-1.7
		c2.4,0,3.7,1.3,3.7,3.5v7.2H111.5z"/>
	<path class="st0" d="M126.6,102.6l-1.5,1.5H120c0.2,0.9,1.3,1.8,3.1,1.8c1.1,0,2.2-0.3,2.9-0.8l-0.3,2.9c-0.8,0.4-2,0.7-3.3,0.7
		c-3.2,0-5.7-2.2-5.7-5.6c0-3.4,2.4-5.5,5.4-5.5c2.9,0,4.7,2,4.7,4.2C126.7,102.1,126.6,102.4,126.6,102.6z M122,100.2
		c-1,0-1.8,0.8-2,1.7h3.5c0-0.1,0-0.1,0-0.2C123.5,101,122.9,100.2,122,100.2z"/>
	<path class="st0" d="M135.3,96.6c-0.6,0-1.8-1.2-1.8-1.8c0-0.6,1.2-1.8,1.8-1.8c0.6,0,1.8,1.2,1.8,1.8
		C137.1,95.4,135.9,96.6,135.3,96.6z M133.6,108.4V98h3.4v10.4H133.6z"/>
	<path class="st0" d="M145.8,108.4V102c0-0.8-0.5-1.4-1.5-1.4c-1,0-1.7,0.6-1.7,1.5v6.3h-3.4V98h3.1v1.4h0c0.4-1.1,1.5-1.7,3.2-1.7
		c2.3,0,3.7,1.3,3.7,3.5v7.2H145.8z"/>
	<path class="st0" d="M159.2,101.4c-0.7-0.4-1.4-0.7-2.2-0.7c-1.5,0-2.6,1.1-2.6,2.6c0,1.5,1.2,2.6,2.7,2.6c0.9,0,1.5-0.2,2.3-0.6
		l-0.3,2.9c-0.7,0.3-1.6,0.5-2.6,0.5c-2.9,0-5.6-2.1-5.6-5.4c0-3.4,2.7-5.4,5.6-5.4c1.4,0,2.5,0.3,3.4,0.8L159.2,101.4z"/>
	<path class="st0" d="M166.5,108.8c-3.2,0-5.7-2.2-5.7-5.5c0-3.3,2.5-5.5,5.7-5.5c3.1,0,5.7,2.2,5.7,5.5
		C172.2,106.5,169.6,108.8,166.5,108.8z M166.5,100.6c-1.3,0-2.3,1.1-2.3,2.6s1.1,2.6,2.3,2.6c1.2,0,2.3-1.1,2.3-2.6
		S167.7,100.6,166.5,100.6z"/>
	<path class="st0" d="M186.7,108.4V102c0-0.8-0.4-1.4-1.5-1.4c-1.1,0-1.6,0.6-1.6,1.5v6.3h-3.4V102c0-0.8-0.4-1.4-1.5-1.4
		c-1.1,0-1.6,0.6-1.6,1.5v6.3h-3.4V98h3.1v1.4h0c0.4-1.1,1.4-1.7,3.1-1.7c1.5,0,2.6,0.6,3.1,1.7c0.4-1,1.7-1.7,3.2-1.7
		c2.4,0,3.7,1.3,3.7,3.5v7.2H186.7z"/>
	<path class="st0" d="M201.7,102.6l-1.5,1.5h-5.1c0.2,0.9,1.3,1.8,3.1,1.8c1.1,0,2.2-0.3,2.9-0.8l-0.3,2.9c-0.8,0.4-2,0.7-3.3,0.7
		c-3.2,0-5.7-2.2-5.7-5.6c0-3.4,2.4-5.5,5.4-5.5c2.9,0,4.7,2,4.7,4.2C201.8,102.1,201.8,102.4,201.7,102.6z M197.2,100.2
		c-1,0-1.8,0.8-2,1.7h3.5c0-0.1,0-0.1,0-0.2C198.7,101,198.1,100.2,197.2,100.2z"/>
	<path class="st0" d="M215.6,100.8h-2.7v3.9c0,0.9,0.5,1.3,1.4,1.3c0.4,0,0.6,0,0.9-0.1l-0.3,2.6c-0.3,0.2-0.9,0.3-1.6,0.3
		c-2.3,0-3.7-1.2-3.7-3.3v-4.5h-1.7V98h1.7v-2.2l3.4-1.2V98h3.4L215.6,100.8z"/>
	<path class="st0" d="M224.1,108.4V102c0-0.8-0.5-1.4-1.6-1.4c-1,0-1.6,0.6-1.6,1.5v6.3h-3.4V92.1h3.3V99h0c0.5-0.8,1.5-1.3,2.9-1.3
		c2.3,0,3.7,1.3,3.7,3.5v7.2H224.1z"/>
	<path class="st0" d="M236.9,108.9c-0.6-0.1-1.3-0.6-1.6-1.4c-0.5,0.9-1.4,1.3-2.7,1.3c-1.8,0-3.5-1.3-3.5-3.4
		c0-1.9,1.5-3.2,3.6-3.4l2.1-0.2v-0.3c0-0.6-0.5-1-1.6-1c-1,0-2.1,0.3-2.9,0.8l-0.6-2.6c0.9-0.6,2.3-0.9,3.7-0.9
		c2.8,0,4.7,1.3,4.7,3.8v3.4c0,1.2,0.5,1.9,1.3,2.2L236.9,108.9z M234.7,103.9l-1.3,0.1c-0.9,0.1-1.3,0.7-1.3,1.3c0,0.6,0.4,1,1.1,1
		c0.8,0,1.5-0.6,1.5-1.5V103.9z"/>
	<path class="st0" d="M247.1,100.8h-2.7v3.9c0,0.9,0.5,1.3,1.4,1.3c0.4,0,0.6,0,0.9-0.1l-0.3,2.6c-0.3,0.2-0.9,0.3-1.6,0.3
		c-2.3,0-3.7-1.2-3.7-3.3v-4.5h-1.7V98h1.7v-2.2l3.4-1.2V98h3.4L247.1,100.8z"/>
</g>
<g>
	<path class="st0" d="M85.7,132.4V126c0-0.8-0.5-1.4-1.5-1.4c-1,0-1.7,0.6-1.7,1.5v6.3h-3.4V122h3.1v1.4h0c0.4-1.1,1.5-1.7,3.2-1.7
		c2.3,0,3.7,1.3,3.7,3.5v7.2H85.7z"/>
	<path class="st0" d="M100.7,126.6l-1.5,1.5h-5.1c0.2,0.9,1.3,1.8,3.1,1.8c1.1,0,2.2-0.3,2.9-0.8l-0.3,2.9c-0.8,0.4-2,0.7-3.3,0.7
		c-3.2,0-5.7-2.2-5.7-5.6c0-3.4,2.4-5.5,5.4-5.5c2.9,0,4.7,2,4.7,4.2C100.8,126.1,100.8,126.4,100.7,126.6z M96.2,124.2
		c-1,0-1.8,0.8-2,1.7h3.5c0-0.1,0-0.1,0-0.2C97.7,124.9,97,124.2,96.2,124.2z"/>
	<path class="st0" d="M107.8,132.5h-2.5l-4-10.5h3.3l1.5,4c0.2,0.6,0.4,1.3,0.6,2h0c0.2-0.7,0.4-1.5,0.6-2l1.5-4h3.1L107.8,132.5z"
		/>
	<path class="st0" d="M122.1,126.6l-1.5,1.5h-5.1c0.2,0.9,1.3,1.8,3.1,1.8c1.1,0,2.2-0.3,2.9-0.8l-0.3,2.9c-0.8,0.4-2,0.7-3.3,0.7
		c-3.2,0-5.7-2.2-5.7-5.6c0-3.4,2.4-5.5,5.4-5.5c2.9,0,4.7,2,4.7,4.2C122.2,126.1,122.2,126.4,122.1,126.6z M117.6,124.2
		c-1,0-1.8,0.8-2,1.7h3.5c0-0.1,0-0.1,0-0.2C119.1,124.9,118.5,124.2,117.6,124.2z"/>
	<path class="st0" d="M130.4,125.6c-0.2-0.1-0.7-0.3-1-0.3c-1.1,0-2.1,0.6-2.1,2.2v4.9h-3.4V122h3.3v2.3h0c0.3-1.6,1.6-2.5,3-2.5
		c0.3,0,0.7,0,1,0.1L130.4,125.6z"/>
	<path class="st0" d="M144,125.6c-0.2-0.1-0.7-0.3-1-0.3c-1.1,0-2.1,0.6-2.1,2.2v4.9h-3.4V122h3.3v2.3h0c0.3-1.6,1.6-2.5,3-2.5
		c0.3,0,0.7,0,1,0.1L144,125.6z"/>
	<path class="st0" d="M152.8,132.4V131h0c-0.4,1.1-1.5,1.7-3.2,1.7c-2.3,0-3.7-1.3-3.7-3.5V122h3.4v6.4c0,0.8,0.5,1.4,1.6,1.4
		c1,0,1.6-0.7,1.6-1.5V122h3.4v10.4H152.8z"/>
	<path class="st0" d="M164.6,132.4V126c0-0.8-0.5-1.4-1.5-1.4c-1,0-1.7,0.6-1.7,1.5v6.3H158V122h3.1v1.4h0c0.4-1.1,1.5-1.7,3.2-1.7
		c2.3,0,3.7,1.3,3.7,3.5v7.2H164.6z"/>
	<path class="st0" d="M173.5,132.7c-1.4,0-2.5-0.3-3.3-0.7l-0.3-3c0.9,0.6,2.1,1.1,3.3,1.1c0.6,0,1-0.3,1-0.7c0-0.4-0.3-0.6-0.9-0.8
		c-2-0.6-3.2-1.6-3.2-3.4c0-2,1.7-3.4,3.9-3.4c1.3,0,2.6,0.3,3.1,0.6l-0.6,2.5c-0.5-0.3-1.3-0.6-2.2-0.6c-0.6,0-0.9,0.3-0.9,0.7
		c0,0.4,0.3,0.6,0.9,0.8c2.3,0.6,3.3,1.8,3.3,3.5C177.6,131,176.3,132.7,173.5,132.7z"/>
	<path class="st0" d="M189.7,132.7c-3.2,0-5.7-2.2-5.7-5.5s2.5-5.5,5.7-5.5c3.1,0,5.7,2.2,5.7,5.5S192.8,132.7,189.7,132.7z
		 M189.7,124.6c-1.3,0-2.3,1.1-2.3,2.6s1.1,2.6,2.3,2.6c1.2,0,2.3-1.1,2.3-2.6S190.9,124.6,189.7,124.6z"/>
	<path class="st0" d="M203.9,132.4V131h0c-0.4,1.1-1.5,1.7-3.2,1.7c-2.3,0-3.7-1.3-3.7-3.5V122h3.4v6.4c0,0.8,0.5,1.4,1.6,1.4
		c1,0,1.6-0.7,1.6-1.5V122h3.4v10.4H203.9z"/>
	<path class="st0" d="M216.1,124.8h-2.7v3.9c0,0.9,0.5,1.3,1.4,1.3c0.4,0,0.6,0,0.9-0.1l-0.3,2.6c-0.3,0.2-0.9,0.3-1.6,0.3
		c-2.3,0-3.7-1.2-3.7-3.3v-4.5h-1.7V122h1.7v-2.2l3.4-1.2v3.4h3.4L216.1,124.8z"/>
	<path class="st0" d="M219.4,132.7c-0.6,0-1.9-1.3-1.9-1.9c0-0.6,1.3-1.9,1.9-1.9c0.6,0,1.9,1.3,1.9,1.9
		C221.3,131.5,220,132.7,219.4,132.7z"/>
</g>
</svg>
