<?xml version="1.0" encoding="utf-8"?>
<!-- Generator: Adobe Illustrator 24.0.0, SVG Export Plug-In . SVG Version: 6.00 Build 0)  -->
<svg version="1.1" id="Layer_1" xmlns="http://www.w3.org/2000/svg" xmlns:xlink="http://www.w3.org/1999/xlink" x="0px" y="0px"
	 viewBox="0 0 300 250" style="enable-background:new 0 0 300 250;" xml:space="preserve">
<style type="text/css">
	.st0{fill:#F8DF1F;}
</style>
<g>
	<path class="st0" d="M70.8,84.4l-3.9-5.8h-0.9v5.8h-3.4V69.8h5.4c2.5,0,4.7,1.7,4.7,4.4c0,1.7-1,3.1-2.3,3.7l4.7,6.6H70.8z
		 M67.3,72.6h-1.4v3.3h1.4c0.9,0,1.8-0.5,1.8-1.6C69.1,73.2,68.2,72.6,67.3,72.6z"/>
	<path class="st0" d="M84.7,78.6l-1.5,1.5h-5.1c0.2,0.9,1.3,1.8,3.1,1.8c1.1,0,2.2-0.3,2.9-0.8l-0.3,2.9c-0.8,0.4-2,0.7-3.3,0.7
		c-3.2,0-5.7-2.2-5.7-5.6c0-3.4,2.4-5.5,5.4-5.5c2.9,0,4.7,2,4.7,4.2C84.8,78.1,84.8,78.4,84.7,78.6z M80.2,76.2c-1,0-1.8,0.8-2,1.7
		h3.5c0-0.1,0-0.1,0-0.2C81.7,77,81.1,76.2,80.2,76.2z"/>
	<path class="st0" d="M93.7,84.9c-0.6-0.1-1.3-0.6-1.6-1.4c-0.5,0.9-1.4,1.3-2.7,1.3c-1.8,0-3.5-1.3-3.5-3.4c0-1.9,1.5-3.2,3.6-3.4
		l2.1-0.2v-0.3c0-0.6-0.5-1-1.6-1c-1,0-2.1,0.3-2.9,0.8l-0.6-2.6c0.9-0.6,2.3-0.9,3.7-0.9c2.8,0,4.7,1.3,4.7,3.8v3.4
		c0,1.2,0.5,1.9,1.3,2.2L93.7,84.9z M91.6,79.9L90.3,80c-0.9,0.1-1.3,0.7-1.3,1.3c0,0.6,0.4,1,1.1,1c0.8,0,1.5-0.6,1.5-1.5V79.9z"/>
	<path class="st0" d="M104.9,84.4v-1.3h0c-0.6,1.1-1.8,1.6-3.2,1.6c-2.6,0-5-1.9-5-5.5c0-3.4,2.4-5.5,5.3-5.5c1.1,0,2.2,0.4,2.6,0.7
		v-6.3h3.3v16.4H104.9z M104.6,77.6c-0.3-0.4-1-0.9-2-0.9c-1.5,0-2.5,1.1-2.5,2.6s1,2.6,2.5,2.6c1,0,1.7-0.5,2-1.1V77.6z"/>
	<path class="st0" d="M116.3,83.4c-1.6,4.2-3.2,5.7-5.2,6.5l-2.1-2.1c1.7-0.6,3-1.9,3.8-4.1l-3.7-9.7h3.3l1.5,4
		c0.2,0.6,0.5,1.3,0.6,2h0c0.2-0.7,0.4-1.4,0.7-2l1.5-4h3.1L116.3,83.4z"/>
	<path class="st0" d="M133.3,76.8h-2.7v3.9c0,0.9,0.5,1.3,1.4,1.3c0.4,0,0.6,0,0.9-0.1l-0.3,2.6c-0.3,0.2-0.9,0.3-1.6,0.3
		c-2.3,0-3.7-1.2-3.7-3.3v-4.5h-1.7V74h1.7v-2.2l3.4-1.2V74h3.4L133.3,76.8z"/>
	<path class="st0" d="M140.1,84.8c-3.2,0-5.7-2.2-5.7-5.5c0-3.3,2.5-5.5,5.7-5.5c3.1,0,5.7,2.2,5.7,5.5
		C145.8,82.5,143.2,84.8,140.1,84.8z M140.1,76.6c-1.3,0-2.3,1.1-2.3,2.6s1.1,2.6,2.3,2.6c1.2,0,2.3-1.1,2.3-2.6
		S141.3,76.6,140.1,76.6z"/>
	<path class="st0" d="M157.2,89.8c-3,0-5.1-1.7-5.1-3.9c0-1.6,1.1-2.5,2.1-2.8l-1.3-1.3c0.1-0.7,0.7-1.2,1.3-1.5
		c-0.8-0.5-1.5-1.5-1.5-2.8c0-2.2,1.6-3.7,4.3-3.7c0.6,0,1.1,0.1,1.5,0.2c0.5,0.1,1,0.2,1.5,0.2c0.6,0,1.2-0.1,1.6-0.3l0.6,2.6
		c-0.3,0.2-0.8,0.3-1.3,0.3c0.1,0.2,0.3,0.7,0.3,1.1c0,1.7-1.4,3.2-3.4,3.4c-0.4,0-0.7,0.1-0.7,0.4c0,0.1,0.1,0.3,0.3,0.3l1.6,0.6
		c2,0.7,3.2,1.8,3.2,3.7C162.2,88.1,160.3,89.8,157.2,89.8z M157.9,84.9l-1.2-0.3c-0.8,0-1.4,0.6-1.4,1.4c0,0.7,0.6,1.3,1.8,1.3
		c1.2,0,1.8-0.6,1.8-1.1C159,85.5,158.6,85,157.9,84.9z M157,76.1c-0.8,0-1.3,0.6-1.3,1.2c0,0.7,0.6,1.2,1.3,1.2
		c0.7,0,1.3-0.6,1.3-1.2C158.4,76.7,157.8,76.1,157,76.1z"/>
	<path class="st0" d="M165.4,72.6c-0.6,0-1.8-1.2-1.8-1.8c0-0.6,1.2-1.8,1.8-1.8s1.8,1.2,1.8,1.8C167.2,71.4,166,72.6,165.4,72.6z
		 M163.7,84.4V74h3.4v10.4H163.7z"/>
	<path class="st0" d="M174.8,84.5h-2.5l-4-10.5h3.3l1.5,4c0.2,0.6,0.4,1.3,0.6,2h0c0.2-0.7,0.4-1.5,0.6-2l1.5-4h3.1L174.8,84.5z"/>
	<path class="st0" d="M189.2,78.6l-1.5,1.5h-5.1c0.2,0.9,1.3,1.8,3.1,1.8c1.1,0,2.2-0.3,2.9-0.8l-0.3,2.9c-0.8,0.4-2,0.7-3.3,0.7
		c-3.2,0-5.7-2.2-5.7-5.6c0-3.4,2.4-5.5,5.4-5.5c2.9,0,4.7,2,4.7,4.2C189.2,78.1,189.2,78.4,189.2,78.6z M184.6,76.2
		c-1,0-1.8,0.8-2,1.7h3.5c0-0.1,0-0.1,0-0.2C186.1,77,185.5,76.2,184.6,76.2z"/>
	<path class="st0" d="M202.4,83.4c-1.6,4.2-3.2,5.7-5.2,6.5l-2.1-2.1c1.7-0.6,3-1.9,3.8-4.1l-3.7-9.7h3.3l1.5,4
		c0.2,0.6,0.5,1.3,0.6,2h0c0.2-0.7,0.4-1.4,0.7-2l1.5-4h3.1L202.4,83.4z"/>
	<path class="st0" d="M212,84.8c-3.2,0-5.7-2.2-5.7-5.5c0-3.3,2.5-5.5,5.7-5.5c3.1,0,5.7,2.2,5.7,5.5
		C217.6,82.5,215.1,84.8,212,84.8z M212,76.6c-1.3,0-2.3,1.1-2.3,2.6s1.1,2.6,2.3,2.6c1.2,0,2.3-1.1,2.3-2.6S213.2,76.6,212,76.6z"
		/>
	<path class="st0" d="M226.2,84.4V83h0c-0.4,1.1-1.5,1.7-3.2,1.7c-2.3,0-3.7-1.3-3.7-3.5V74h3.4v6.4c0,0.8,0.5,1.4,1.6,1.4
		c1,0,1.6-0.7,1.6-1.5V74h3.4v10.4H226.2z"/>
	<path class="st0" d="M237.9,77.6c-0.2-0.1-0.7-0.3-1-0.3c-1.1,0-2.1,0.6-2.1,2.2v4.9h-3.4V74h3.3v2.3h0c0.3-1.6,1.6-2.5,3-2.5
		c0.3,0,0.7,0,1,0.1L237.9,77.6z"/>
</g>
<g>
	<path class="st0" d="M69,101.6c-0.2-0.1-0.7-0.3-1-0.3c-1.1,0-2.1,0.6-2.1,2.2v4.9h-3.4V98h3.3v2.3h0c0.3-1.6,1.6-2.5,3-2.5
		c0.3,0,0.7,0,1,0.1L69,101.6z"/>
	<path class="st0" d="M80.2,102.6l-1.5,1.5h-5.1c0.2,0.9,1.3,1.8,3.1,1.8c1.1,0,2.2-0.3,2.9-0.8l-0.3,2.9c-0.8,0.4-2,0.7-3.3,0.7
		c-3.2,0-5.7-2.2-5.7-5.6c0-3.4,2.4-5.5,5.4-5.5c2.9,0,4.7,2,4.7,4.2C80.3,102.1,80.3,102.4,80.2,102.6z M75.7,100.2
		c-1,0-1.8,0.8-2,1.7h3.5c0-0.1,0-0.1,0-0.2C77.2,101,76.6,100.2,75.7,100.2z"/>
	<path class="st0" d="M89.1,100.8h-2.7v3.9c0,0.9,0.5,1.3,1.4,1.3c0.4,0,0.6,0,0.9-0.1l-0.3,2.6c-0.3,0.2-0.9,0.3-1.6,0.3
		c-2.3,0-3.7-1.2-3.7-3.3v-4.5h-1.7V98H83v-2.2l3.4-1.2V98h3.4L89.1,100.8z"/>
	<path class="st0" d="M92.6,96.6c-0.6,0-1.8-1.2-1.8-1.8c0-0.6,1.2-1.8,1.8-1.8c0.6,0,1.8,1.2,1.8,1.8
		C94.5,95.4,93.2,96.6,92.6,96.6z M90.9,108.4V98h3.4v10.4H90.9z"/>
	<path class="st0" d="M103,101.6c-0.2-0.1-0.7-0.3-1-0.3c-1.1,0-2.1,0.6-2.1,2.2v4.9h-3.4V98h3.3v2.3h0c0.3-1.6,1.6-2.5,3-2.5
		c0.3,0,0.7,0,1,0.1L103,101.6z"/>
	<path class="st0" d="M114.3,102.6l-1.5,1.5h-5.1c0.2,0.9,1.3,1.8,3.1,1.8c1.1,0,2.2-0.3,2.9-0.8l-0.3,2.9c-0.8,0.4-2,0.7-3.3,0.7
		c-3.2,0-5.7-2.2-5.7-5.6c0-3.4,2.4-5.5,5.4-5.5c2.9,0,4.7,2,4.7,4.2C114.4,102.1,114.4,102.4,114.3,102.6z M109.7,100.2
		c-1,0-1.8,0.8-2,1.7h3.5c0-0.1,0-0.1,0-0.2C111.3,101,110.6,100.2,109.7,100.2z"/>
	<path class="st0" d="M128.9,108.4V102c0-0.8-0.4-1.4-1.5-1.4c-1.1,0-1.6,0.6-1.6,1.5v6.3h-3.4V102c0-0.8-0.4-1.4-1.5-1.4
		c-1.1,0-1.6,0.6-1.6,1.5v6.3h-3.4V98h3.1v1.4h0c0.4-1.1,1.4-1.7,3.1-1.7c1.5,0,2.6,0.6,3.1,1.7c0.4-1,1.7-1.7,3.2-1.7
		c2.4,0,3.7,1.3,3.7,3.5v7.2H128.9z"/>
	<path class="st0" d="M144,102.6l-1.5,1.5h-5.1c0.2,0.9,1.3,1.8,3.1,1.8c1.1,0,2.2-0.3,2.9-0.8l-0.3,2.9c-0.8,0.4-2,0.7-3.3,0.7
		c-3.2,0-5.7-2.2-5.7-5.6c0-3.4,2.4-5.5,5.4-5.5c2.9,0,4.7,2,4.7,4.2C144,102.1,144,102.4,144,102.6z M139.4,100.2
		c-1,0-1.8,0.8-2,1.7h3.5c0-0.1,0-0.1,0-0.2C140.9,101,140.3,100.2,139.4,100.2z"/>
	<path class="st0" d="M152.3,108.4V102c0-0.8-0.5-1.4-1.5-1.4c-1,0-1.7,0.6-1.7,1.5v6.3h-3.4V98h3.1v1.4h0c0.4-1.1,1.5-1.7,3.2-1.7
		c2.3,0,3.7,1.3,3.7,3.5v7.2H152.3z"/>
	<path class="st0" d="M164.7,100.8h-2.7v3.9c0,0.9,0.5,1.3,1.4,1.3c0.4,0,0.6,0,0.9-0.1l-0.3,2.6c-0.3,0.2-0.9,0.3-1.6,0.3
		c-2.3,0-3.7-1.2-3.7-3.3v-4.5h-1.7V98h1.7v-2.2l3.4-1.2V98h3.4L164.7,100.8z"/>
	<path class="st0" d="M175,108.7c-1.4,0-2.5-0.3-3.3-0.7l-0.3-3c0.9,0.6,2.1,1.1,3.3,1.1c0.6,0,1-0.3,1-0.7c0-0.4-0.3-0.6-0.9-0.8
		c-2-0.6-3.2-1.6-3.2-3.4c0-2,1.7-3.4,3.9-3.4c1.3,0,2.6,0.3,3.1,0.6l-0.6,2.5c-0.5-0.3-1.3-0.6-2.2-0.6c-0.6,0-0.9,0.3-0.9,0.7
		c0,0.4,0.3,0.6,0.9,0.8c2.3,0.6,3.3,1.8,3.3,3.5C179.1,107.1,177.8,108.7,175,108.7z"/>
	<path class="st0" d="M188.1,108.9c-0.6-0.1-1.3-0.6-1.6-1.4c-0.5,0.9-1.4,1.3-2.7,1.3c-1.8,0-3.5-1.3-3.5-3.4
		c0-1.9,1.5-3.2,3.6-3.4l2.1-0.2v-0.3c0-0.6-0.5-1-1.6-1c-1,0-2.1,0.3-2.9,0.8l-0.6-2.6c0.9-0.6,2.3-0.9,3.7-0.9
		c2.8,0,4.7,1.3,4.7,3.8v3.4c0,1.2,0.5,1.9,1.3,2.2L188.1,108.9z M186,103.9l-1.3,0.1c-0.9,0.1-1.3,0.7-1.3,1.3c0,0.6,0.4,1,1.1,1
		c0.8,0,1.5-0.6,1.5-1.5V103.9z"/>
	<path class="st0" d="M196.8,108.5h-2.5l-4-10.5h3.3l1.5,4c0.2,0.6,0.4,1.3,0.6,2h0c0.2-0.7,0.4-1.5,0.6-2l1.5-4h3.1L196.8,108.5z"
		/>
	<path class="st0" d="M203.7,96.6c-0.6,0-1.8-1.2-1.8-1.8c0-0.6,1.2-1.8,1.8-1.8s1.8,1.2,1.8,1.8C205.6,95.4,204.3,96.6,203.7,96.6z
		 M202,108.4V98h3.4v10.4H202z"/>
	<path class="st0" d="M214.2,108.4V102c0-0.8-0.5-1.4-1.5-1.4c-1,0-1.7,0.6-1.7,1.5v6.3h-3.4V98h3.1v1.4h0c0.4-1.1,1.5-1.7,3.2-1.7
		c2.3,0,3.7,1.3,3.7,3.5v7.2H214.2z"/>
	<path class="st0" d="M224.1,113.7c-3,0-5.1-1.7-5.1-3.9c0-1.6,1.1-2.5,2.1-2.8l-1.3-1.3c0.1-0.7,0.7-1.2,1.3-1.5
		c-0.8-0.5-1.5-1.5-1.5-2.8c0-2.2,1.6-3.7,4.3-3.7c0.6,0,1.1,0.1,1.5,0.2c0.5,0.1,1,0.2,1.5,0.2c0.6,0,1.2-0.1,1.6-0.3l0.6,2.6
		c-0.3,0.2-0.8,0.3-1.3,0.3c0.1,0.2,0.3,0.7,0.3,1.1c0,1.7-1.4,3.2-3.4,3.4c-0.4,0-0.7,0.1-0.7,0.4c0,0.1,0.1,0.3,0.3,0.3l1.6,0.6
		c2,0.7,3.2,1.8,3.2,3.7C229.1,112.1,227.2,113.7,224.1,113.7z M224.8,108.8l-1.2-0.3c-0.8,0-1.4,0.6-1.4,1.4c0,0.7,0.6,1.3,1.8,1.3
		c1.2,0,1.8-0.6,1.8-1.1C225.9,109.5,225.5,109,224.8,108.8z M223.9,100.1c-0.8,0-1.3,0.6-1.3,1.2c0,0.7,0.6,1.2,1.3,1.2
		c0.7,0,1.3-0.6,1.3-1.2C225.3,100.7,224.7,100.1,223.9,100.1z"/>
	<path class="st0" d="M233.9,108.7c-1.4,0-2.5-0.3-3.3-0.7l-0.3-3c0.9,0.6,2.1,1.1,3.3,1.1c0.6,0,1-0.3,1-0.7c0-0.4-0.3-0.6-0.9-0.8
		c-2-0.6-3.2-1.6-3.2-3.4c0-2,1.7-3.4,3.9-3.4c1.3,0,2.6,0.3,3.1,0.6l-0.6,2.5c-0.5-0.3-1.3-0.6-2.2-0.6c-0.6,0-0.9,0.3-0.9,0.7
		c0,0.4,0.3,0.6,0.9,0.8c2.3,0.6,3.3,1.8,3.3,3.5C238,107.1,236.7,108.7,233.9,108.7z"/>
</g>
<g>
	<path class="st0" d="M85.7,132.9c-0.6-0.1-1.3-0.6-1.6-1.4c-0.5,0.9-1.4,1.3-2.7,1.3c-1.8,0-3.5-1.3-3.5-3.4c0-1.9,1.5-3.2,3.6-3.4
		l2.1-0.2v-0.3c0-0.6-0.5-1-1.6-1c-1,0-2.1,0.3-2.9,0.8l-0.6-2.6c0.9-0.6,2.3-0.9,3.7-0.9c2.8,0,4.7,1.3,4.7,3.8v3.4
		c0,1.2,0.5,1.9,1.3,2.2L85.7,132.9z M83.5,127.9l-1.3,0.1c-0.9,0.1-1.3,0.7-1.3,1.3c0,0.6,0.4,1,1.1,1c0.8,0,1.5-0.6,1.5-1.5V127.9
		z"/>
	<path class="st0" d="M105.8,132.5h-2.3l-1.4-4.1c-0.2-0.6-0.4-1.4-0.6-2.2h0c-0.2,0.8-0.4,1.5-0.6,2.1l-1.4,4.2h-2.2L93.6,122h3.1
		l1.3,4c0.2,0.6,0.4,1.3,0.5,2h0c0.1-0.6,0.3-1.4,0.5-2l1.3-4h2.6l1.3,3.9c0.2,0.6,0.3,1.4,0.5,2h0c0.1-0.7,0.3-1.4,0.5-2l1.3-3.9
		h2.9L105.8,132.5z"/>
	<path class="st0" d="M118,132.9c-0.6-0.1-1.3-0.6-1.6-1.4c-0.5,0.9-1.4,1.3-2.7,1.3c-1.8,0-3.5-1.3-3.5-3.4c0-1.9,1.5-3.2,3.6-3.4
		l2.1-0.2v-0.3c0-0.6-0.5-1-1.6-1c-1,0-2.1,0.3-2.9,0.8l-0.6-2.6c0.9-0.6,2.3-0.9,3.7-0.9c2.8,0,4.7,1.3,4.7,3.8v3.4
		c0,1.2,0.5,1.9,1.3,2.2L118,132.9z M115.9,127.9l-1.3,0.1c-0.9,0.1-1.3,0.7-1.3,1.3c0,0.6,0.4,1,1.1,1c0.8,0,1.5-0.6,1.5-1.5V127.9
		z"/>
	<path class="st0" d="M128,132.4l-3.1-4.2h0v4.2h-3.3v-16.4h3.3v10.2h0l3.1-4.2h3.7l-3.7,5.1l3.9,5.4H128z"/>
	<path class="st0" d="M142.1,126.6l-1.5,1.5h-5.1c0.2,0.9,1.3,1.8,3.1,1.8c1.1,0,2.2-0.3,2.9-0.8l-0.3,2.9c-0.8,0.4-2,0.7-3.3,0.7
		c-3.2,0-5.7-2.2-5.7-5.6c0-3.4,2.4-5.5,5.4-5.5c2.9,0,4.7,2,4.7,4.2C142.2,126.1,142.1,126.4,142.1,126.6z M137.5,124.2
		c-1,0-1.8,0.8-2,1.7h3.5c0-0.1,0-0.1,0-0.2C139,124.9,138.4,124.2,137.5,124.2z"/>
	<path class="st0" d="M143.8,127.4v-2.6h6v2.6H143.8z"/>
	<path class="st0" d="M158.7,132.4V131h0c-0.4,1.1-1.5,1.7-3.2,1.7c-2.3,0-3.7-1.3-3.7-3.5V122h3.4v6.4c0,0.8,0.5,1.4,1.6,1.4
		c1,0,1.6-0.7,1.6-1.5V122h3.4v10.4H158.7z"/>
	<path class="st0" d="M169.9,132.7c-1.1,0-2.2-0.3-2.6-0.7v5.7H164V122h3v1.3h0c0.6-1.1,1.8-1.6,3.2-1.6c2.6,0,5,1.9,5,5.5
		C175.2,130.6,172.8,132.7,169.9,132.7z M169.3,124.7c-1,0-1.7,0.5-2,1.1v3.3c0.3,0.4,1,0.9,2,0.9c1.5,0,2.5-1.1,2.5-2.6
		C171.8,125.8,170.8,124.7,169.3,124.7z"/>
	<path class="st0" d="M190,125.4c-0.7-0.4-1.4-0.7-2.2-0.7c-1.5,0-2.6,1.1-2.6,2.6c0,1.5,1.2,2.6,2.7,2.6c0.9,0,1.5-0.2,2.3-0.6
		l-0.3,2.9c-0.7,0.3-1.6,0.5-2.6,0.5c-2.9,0-5.6-2.1-5.6-5.4c0-3.4,2.7-5.4,5.6-5.4c1.4,0,2.5,0.3,3.4,0.8L190,125.4z"/>
	<path class="st0" d="M199.6,132.9c-0.6-0.1-1.3-0.6-1.6-1.4c-0.5,0.9-1.4,1.3-2.7,1.3c-1.8,0-3.5-1.3-3.5-3.4
		c0-1.9,1.5-3.2,3.6-3.4l2.1-0.2v-0.3c0-0.6-0.5-1-1.6-1c-1,0-2.1,0.3-2.9,0.8l-0.6-2.6c0.9-0.6,2.3-0.9,3.7-0.9
		c2.8,0,4.7,1.3,4.7,3.8v3.4c0,1.2,0.5,1.9,1.3,2.2L199.6,132.9z M197.4,127.9l-1.3,0.1c-0.9,0.1-1.3,0.7-1.3,1.3c0,0.6,0.4,1,1.1,1
		c0.8,0,1.5-0.6,1.5-1.5V127.9z"/>
	<path class="st0" d="M206.6,132.8c-2.1-0.1-3.6-1.2-3.6-3.7v-13.1h3.3v12.7c0,0.9,0.5,1.3,1.4,1.4L206.6,132.8z"/>
	<path class="st0" d="M212.7,132.8c-2.1-0.1-3.6-1.2-3.6-3.7v-13.1h3.3v12.7c0,0.9,0.5,1.3,1.4,1.4L212.7,132.8z"/>
	<path class="st0" d="M220.1,125.2c-0.6,0.6-0.8,1.2-0.8,1.8c0,0.3,0,0.7,0.1,1l-2.9-0.6c-0.1-0.5-0.2-0.8-0.2-1.2
		c0-1.2,0.5-2.3,1.3-3.2c0.6-0.6,0.9-1.1,0.9-1.7c0-0.5-0.5-1-1.3-1c-0.8,0-1.6,0.3-2.3,0.8l-0.7-2.9c0.9-0.5,2-0.9,3.3-0.9
		c2.7,0,4.5,1.6,4.5,3.9C222.1,122.6,221.5,123.7,220.1,125.2z M218,132.7c-0.6,0-1.9-1.3-1.9-1.9c0-0.6,1.3-1.9,1.9-1.9
		s1.9,1.3,1.9,1.9C219.9,131.5,218.7,132.7,218,132.7z"/>
</g>
</svg>
