<?xml version="1.0" encoding="utf-8"?>
<!-- Generator: Adobe Illustrator 24.0.0, SVG Export Plug-In . SVG Version: 6.00 Build 0)  -->
<svg version="1.1" id="Layer_1" xmlns="http://www.w3.org/2000/svg" xmlns:xlink="http://www.w3.org/1999/xlink" x="0px" y="0px"
	 viewBox="0 0 300 250" style="enable-background:new 0 0 300 250;" xml:space="preserve">
<style type="text/css">
	.st0{fill:#28BDEF;}
</style>
<path class="st0" d="M87.1,179.1c-5.3,0-9.7,4.3-9.7,9.7v9.5c0,5.3,4.3,9.7,9.7,9.7h125.8c5.3,0,9.7-4.3,9.7-9.7v-9.5
	c0-5.3-4.3-9.7-9.7-9.7H87.1z"/>
<g>
	<path d="M99.2,194.1v-1.5h3.4v4.4h-0.9l-0.3-0.9c-0.6,0.7-1.3,1.1-2.2,1.1c-2.4,0-3.4-2-3.4-4.1c0-2.2,1.1-4.3,3.5-4.3
		c1.8,0,2.9,1.1,3.2,2.8l-1.8,0.2c-0.1-0.8-0.5-1.5-1.4-1.5c-1.3,0-1.5,1.7-1.5,2.8c0,1.1,0.3,2.6,1.6,2.6c0.8,0,1.4-0.6,1.4-1.4
		H99.2z"/>
	<path d="M104.6,195.8c-0.6-0.8-0.9-1.9-0.9-2.9c0-2.2,1.1-4.2,3.5-4.2c1.1,0,1.9,0.4,2.6,1.2c0.6,0.8,0.9,2,0.9,2.9
		c0,0.9-0.2,2.1-0.8,2.8c-0.6,0.9-1.6,1.4-2.7,1.4S105.2,196.7,104.6,195.8z M106,191.1c-0.2,0.5-0.3,1.2-0.3,1.7
		c0,1,0.2,2.7,1.5,2.7c0.7,0,1-0.3,1.2-0.9c0.2-0.5,0.2-1.2,0.2-1.7c0-0.6-0.1-1.3-0.3-1.8c-0.2-0.5-0.6-0.8-1.2-0.8
		C106.6,190.2,106.2,190.5,106,191.1z"/>
	<path d="M120.9,190.4h-2v6.5H117v-6.5h-2.1v-1.6h6V190.4z"/>
	<path d="M122.4,195.8c-0.6-0.8-0.9-1.9-0.9-2.9c0-2.2,1.1-4.2,3.5-4.2c1.1,0,1.9,0.4,2.6,1.2c0.6,0.8,0.9,2,0.9,2.9
		c0,0.9-0.2,2.1-0.8,2.8c-0.6,0.9-1.6,1.4-2.7,1.4S123.1,196.7,122.4,195.8z M123.8,191.1c-0.2,0.5-0.3,1.2-0.3,1.7
		c0,1,0.2,2.7,1.5,2.7c0.7,0,1-0.3,1.2-0.9c0.2-0.5,0.2-1.2,0.2-1.7c0-0.6-0.1-1.3-0.3-1.8c-0.2-0.5-0.6-0.8-1.2-0.8
		C124.4,190.2,124,190.5,123.8,191.1z"/>
	<path d="M137.9,191.9c0-0.9-0.3-1.7-1.4-1.7c-1.3,0-1.5,1.8-1.5,2.7c0,1.1,0.1,2.6,1.6,2.6c0.9,0,1.3-0.7,1.4-1.5l1.9,0.1
		c-0.2,1.9-1.5,3-3.4,3c-2.4,0-3.6-2-3.6-4.2c0-2.3,1.2-4.2,3.7-4.2c2,0,3.1,1.2,3.3,3.2L137.9,191.9z"/>
	<path d="M147.9,196.9h-2.1l-0.5-1.7h-2.6l-0.5,1.7h-1.7l2.6-8.2h2.2L147.9,196.9z M144.9,193.7l-0.9-2.9l-0.9,2.9H144.9z"/>
	<path d="M153.9,195.3v1.6h-5.2v-8.2h1.9v6.5H153.9z"/>
	<path d="M159.3,191.9c0-0.9-0.3-1.7-1.4-1.7c-1.3,0-1.5,1.8-1.5,2.7c0,1.1,0.1,2.6,1.6,2.6c0.9,0,1.3-0.7,1.4-1.5l1.9,0.1
		c-0.2,1.9-1.5,3-3.4,3c-2.4,0-3.6-2-3.6-4.2c0-2.3,1.2-4.2,3.7-4.2c2,0,3.1,1.2,3.3,3.2L159.3,191.9z"/>
	<path d="M168.9,193.7c0,0.9,0,1.8-0.7,2.5c-0.7,0.7-1.6,0.9-2.5,0.9c-0.9,0-1.8-0.1-2.5-0.7c-0.8-0.7-0.8-1.6-0.8-2.6v-4.9h2.1v4.9
		c0,0.4,0,0.9,0.2,1.3c0.2,0.4,0.8,0.5,1.2,0.5c0.4,0,0.9-0.1,1.2-0.4c0.3-0.4,0.2-0.9,0.2-1.4v-4.9h1.6V193.7z"/>
	<path d="M175.5,195.3v1.6h-5.2v-8.2h1.9v6.5H175.5z"/>
	<path d="M183,196.9H181l-0.5-1.7h-2.6l-0.5,1.7h-1.7l2.6-8.2h2.2L183,196.9z M180,193.7l-0.9-2.9l-0.9,2.9H180z"/>
	<path d="M188.6,190.4h-2v6.5h-1.9v-6.5h-2.1v-1.6h6V190.4z"/>
	<path d="M190.1,195.8c-0.6-0.8-0.9-1.9-0.9-2.9c0-2.2,1.1-4.2,3.5-4.2c1.1,0,1.9,0.4,2.6,1.2c0.6,0.8,0.9,2,0.9,2.9
		c0,0.9-0.2,2.1-0.8,2.8c-0.6,0.9-1.6,1.4-2.7,1.4S190.7,196.7,190.1,195.8z M191.5,191.1c-0.2,0.5-0.3,1.2-0.3,1.7
		c0,1,0.2,2.7,1.5,2.7c0.7,0,1-0.3,1.2-0.9c0.2-0.5,0.2-1.2,0.2-1.7c0-0.6-0.1-1.3-0.3-1.8c-0.2-0.5-0.6-0.8-1.2-0.8
		C192.1,190.2,191.7,190.5,191.5,191.1z"/>
	<path d="M199.3,196.9h-1.9v-8.2h3.4c0.7,0,1.5,0,2.1,0.4c0.7,0.4,1,1.2,1,2c0,0.9-0.5,1.8-1.4,2.1l1.5,3.6H202l-1.2-3.2h-1.4V196.9
		z M199.3,192.3h1c0.4,0,0.8,0,1.2-0.2c0.3-0.2,0.5-0.6,0.5-0.9c0-0.3-0.2-0.7-0.5-0.8c-0.3-0.2-0.9-0.2-1.2-0.2h-1V192.3z"/>
</g>
</svg>
