<?xml version="1.0" encoding="utf-8"?>
<!-- Generator: Adobe Illustrator 17.0.0, SVG Export Plug-In . SVG Version: 6.00 Build 0)  -->
<!DOCTYPE svg PUBLIC "-//W3C//DTD SVG 1.1//EN" "http://www.w3.org/Graphics/SVG/1.1/DTD/svg11.dtd">
<svg version="1.1" id="Layer_2" xmlns="http://www.w3.org/2000/svg" xmlns:xlink="http://www.w3.org/1999/xlink" x="0px" y="0px"
	 width="300px" height="250px" viewBox="0 0 300 250" enable-background="new 0 0 300 250" xml:space="preserve">
<g>
	<path fill="#231F20" d="M266.262,242.564c-0.928,0-1.735-0.647-1.735-1.847c0-1.359,1-2.814,2.367-3.519l0.72,0.336
		c-0.96,0.479-1.711,1.159-2.087,2.047c0.191-0.191,0.447-0.328,0.791-0.328c0.976,0,1.64,0.729,1.64,1.647
		C267.957,241.861,267.237,242.564,266.262,242.564z M266.27,239.926c-0.399,0-0.848,0.152-0.991,0.712
		c-0.008,0.088-0.008,0.176-0.008,0.264c0,0.576,0.479,1.056,1.007,1.056c0.528,0,0.943-0.408,0.943-1.016
		C267.221,240.365,266.829,239.926,266.27,239.926z"/>
	<path fill="#231F20" d="M270.414,242.572c-0.928,0-1.743-0.848-1.743-2.654c0-1.791,0.815-2.646,1.743-2.646
		c0.911,0,1.743,0.855,1.743,2.646C272.157,241.725,271.325,242.572,270.414,242.572z M270.414,237.919
		c-0.521,0-1.008,0.56-1.008,1.999c0,1.455,0.487,2.007,1.008,2.007c0.512,0,1.007-0.552,1.007-2.007
		C271.421,238.479,270.926,237.919,270.414,237.919z"/>
	<path fill="#231F20" d="M274.126,242.564c-0.392,0-0.76-0.088-0.968-0.2l-0.08-0.72c0.32,0.192,0.656,0.28,1.008,0.28
		c0.592,0,1.096-0.376,1.096-1.016c0-0.655-0.504-1.047-1.072-1.047c-0.375,0-0.64,0.048-0.879,0.136l0.08-2.623h2.23l-0.136,0.624
		h-1.399l-0.032,1.239c0.064-0.008,0.145-0.016,0.208-0.016c0.951,0,1.735,0.64,1.735,1.694
		C275.917,241.797,275.301,242.564,274.126,242.564z"/>
	<path fill="#231F20" d="M277.694,242.637l-0.72-0.336c0.976-0.488,1.735-1.151,2.103-2.047c-0.191,0.191-0.455,0.328-0.808,0.328
		c-0.976,0-1.639-0.729-1.639-1.647c0-0.96,0.72-1.663,1.695-1.663c0.927,0,1.734,0.647,1.734,1.847
		C280.061,240.478,279.062,241.933,277.694,242.637z M278.31,237.927c-0.527,0-0.943,0.408-0.943,1.016
		c0,0.576,0.392,1.016,0.951,1.016c0.408,0,0.848-0.168,0.992-0.728c0.008-0.08,0.008-0.16,0.008-0.248
		C279.317,238.407,278.838,237.927,278.31,237.927z"/>
	<path fill="#231F20" d="M282.55,242.564c-0.928,0-1.735-0.647-1.735-1.847c0-1.359,1-2.814,2.367-3.519l0.72,0.336
		c-0.96,0.479-1.711,1.159-2.087,2.047c0.191-0.191,0.447-0.328,0.791-0.328c0.976,0,1.64,0.729,1.64,1.647
		C284.245,241.861,283.525,242.564,282.55,242.564z M282.558,239.926c-0.399,0-0.848,0.152-0.991,0.712
		c-0.008,0.088-0.008,0.176-0.008,0.264c0,0.576,0.479,1.056,1.007,1.056c0.528,0,0.943-0.408,0.943-1.016
		C283.509,240.365,283.117,239.926,282.558,239.926z"/>
	<path fill="#231F20" d="M285.87,242.477h-0.784l1.936-4.478h-2.343v-0.624h3.382L285.87,242.477z"/>
	<path fill="#231F20" d="M291.325,242.564c-0.248-0.056-0.52-0.264-0.576-0.567c-0.168,0.424-0.552,0.567-0.967,0.567
		c-0.72,0-1.168-0.527-1.168-1.111c0-0.703,0.576-1.104,1.191-1.159l0.848-0.08v-0.231c0-0.328-0.191-0.592-0.703-0.592
		c-0.36,0-0.736,0.111-1,0.287l-0.144-0.6c0.328-0.216,0.743-0.312,1.184-0.312c0.808,0,1.391,0.456,1.391,1.312v1.463
		c0,0.328,0.176,0.52,0.408,0.56L291.325,242.564z M290.653,240.813l-0.695,0.063c-0.464,0.04-0.647,0.32-0.647,0.584
		c0,0.256,0.208,0.488,0.535,0.488c0.432,0,0.808-0.328,0.808-0.816V240.813z"/>
</g>
</svg>
