<?xml version="1.0" encoding="utf-8"?>
<!-- Generator: Adobe Illustrator 22.1.0, SVG Export Plug-In . SVG Version: 6.00 Build 0)  -->
<svg version="1.1" id="Layer_1" xmlns="http://www.w3.org/2000/svg" xmlns:xlink="http://www.w3.org/1999/xlink" x="0px" y="0px"
	 viewBox="0 0 300 250" style="enable-background:new 0 0 300 250;" xml:space="preserve">
<style type="text/css">
	.st0{fill:#231F20;}
	.st1{font-family:'Agenda-Bold';}
	.st2{font-size:21px;}
</style>
<g>
	<path class="st0" d="M25.5,35v-5.3h-5.2V35h-3.3V21.6h3.3v5.3h5.2v-5.3h3.3V35H25.5z"/>
	<path class="st0" d="M37.7,35.4c-0.6-0.1-1.2-0.6-1.5-1.3c-0.4,0.8-1.3,1.2-2.5,1.2c-1.7,0-3.2-1.2-3.2-3.1c0-1.7,1.4-2.9,3.3-3.1
		l1.9-0.2v-0.3c0-0.6-0.5-0.9-1.5-0.9c-0.9,0-2,0.3-2.6,0.7L31.1,26c0.8-0.5,2.1-0.8,3.3-0.8c2.5,0,4.3,1.2,4.3,3.4v3.1
		c0,1.1,0.4,1.7,1.2,2L37.7,35.4z M35.7,30.9L34.6,31c-0.8,0.1-1.2,0.6-1.2,1.2c0,0.5,0.4,0.9,1,0.9c0.7,0,1.3-0.6,1.3-1.4V30.9z"/>
	<path class="st0" d="M45.6,35.1h-2.3l-3.7-9.6h3l1.3,3.6c0.2,0.5,0.4,1.2,0.5,1.8h0c0.1-0.6,0.4-1.3,0.5-1.8l1.3-3.6h2.9L45.6,35.1
		z"/>
	<path class="st0" d="M52,24.2c-0.5,0-1.7-1.1-1.7-1.7s1.1-1.6,1.7-1.6s1.7,1.1,1.7,1.6S52.5,24.2,52,24.2z M50.4,35v-9.5h3.1V35
		H50.4z"/>
	<path class="st0" d="M61.6,35v-5.8c0-0.7-0.5-1.3-1.4-1.3c-0.9,0-1.5,0.6-1.5,1.3V35h-3.1v-9.5h2.8v1.3h0c0.4-1,1.4-1.6,2.9-1.6
		c2.1,0,3.3,1.2,3.3,3.2V35H61.6z"/>
	<path class="st0" d="M70.6,39.9c-2.8,0-4.6-1.6-4.6-3.6c0-1.4,1-2.3,2-2.6l-1.2-1.2c0.1-0.6,0.6-1.1,1.2-1.4
		c-0.7-0.4-1.4-1.3-1.4-2.5c0-2,1.4-3.4,3.9-3.4c0.6,0,1,0.1,1.4,0.2c0.4,0.1,0.9,0.2,1.4,0.2c0.5,0,1.1-0.1,1.5-0.3l0.6,2.4
		c-0.3,0.2-0.8,0.3-1.2,0.3c0.1,0.2,0.2,0.6,0.2,1c0,1.6-1.3,2.9-3.1,3.1c-0.4,0-0.6,0.1-0.6,0.4c0,0.1,0.1,0.2,0.3,0.3l1.5,0.5
		c1.9,0.7,2.9,1.6,2.9,3.4C75.2,38.4,73.4,39.9,70.6,39.9z M71.3,35.4l-1.1-0.3c-0.7,0-1.3,0.5-1.3,1.2c0,0.7,0.6,1.2,1.7,1.2
		c1.1,0,1.7-0.5,1.7-1C72.2,36,71.9,35.6,71.3,35.4z M70.5,27.4c-0.7,0-1.2,0.5-1.2,1.1c0,0.6,0.5,1.1,1.2,1.1
		c0.7,0,1.2-0.5,1.2-1.1C71.7,28,71.2,27.4,70.5,27.4z"/>
	<path class="st0" d="M87.6,28h-2.5v3.5c0,0.8,0.4,1.2,1.3,1.2c0.4,0,0.6,0,0.8-0.1l-0.3,2.3c-0.3,0.1-0.8,0.3-1.4,0.3
		c-2.1,0-3.4-1.1-3.4-3V28h-1.6v-2.5h1.6v-2l3.1-1.1v3.1h3.1L87.6,28z"/>
	<path class="st0" d="M93.9,35.3c-2.9,0-5.2-2-5.2-5.1s2.3-5.1,5.2-5.1c2.9,0,5.2,2,5.2,5.1S96.7,35.3,93.9,35.3z M93.9,27.9
		c-1.2,0-2.1,1-2.1,2.4s1,2.4,2.1,2.4c1.1,0,2.1-1,2.1-2.4S95,27.9,93.9,27.9z"/>
	<path class="st0" d="M105.3,35.3c-2.9,0-5.2-2-5.2-5.1s2.3-5.1,5.2-5.1c2.9,0,5.2,2,5.2,5.1S108.2,35.3,105.3,35.3z M105.3,27.9
		c-1.2,0-2.1,1-2.1,2.4s1,2.4,2.1,2.4c1.1,0,2.1-1,2.1-2.4S106.5,27.9,105.3,27.9z"/>
	<path class="st0" d="M128.5,35v-5.8c0-0.7-0.3-1.3-1.3-1.3c-1,0-1.4,0.6-1.4,1.3V35h-3.1v-5.8c0-0.7-0.3-1.3-1.3-1.3
		c-1,0-1.4,0.6-1.4,1.3V35h-3.1v-9.5h2.9v1.3h0c0.4-1,1.3-1.6,2.8-1.6c1.4,0,2.4,0.5,2.8,1.6c0.4-0.9,1.5-1.6,2.9-1.6
		c2.2,0,3.4,1.2,3.4,3.2V35H128.5z"/>
	<path class="st0" d="M140.2,35.4c-0.6-0.1-1.2-0.6-1.5-1.3c-0.4,0.8-1.3,1.2-2.5,1.2c-1.7,0-3.2-1.2-3.2-3.1c0-1.7,1.4-2.9,3.3-3.1
		l1.9-0.2v-0.3c0-0.6-0.5-0.9-1.5-0.9c-0.9,0-2,0.3-2.6,0.7l-0.5-2.3c0.8-0.5,2.1-0.8,3.3-0.8c2.5,0,4.3,1.2,4.3,3.4v3.1
		c0,1.1,0.4,1.7,1.2,2L140.2,35.4z M138.3,30.9l-1.2,0.1c-0.8,0.1-1.2,0.6-1.2,1.2c0,0.5,0.4,0.9,1,0.9c0.7,0,1.3-0.6,1.3-1.4V30.9z
		"/>
	<path class="st0" d="M149.5,35v-5.8c0-0.7-0.5-1.3-1.4-1.3c-0.9,0-1.5,0.6-1.5,1.3V35h-3.1v-9.5h2.8v1.3h0c0.4-1,1.4-1.6,2.9-1.6
		c2.1,0,3.3,1.2,3.3,3.2V35H149.5z"/>
	<path class="st0" d="M159.9,34.1c-1.4,3.8-3,5.2-4.7,5.9l-1.9-1.9c1.5-0.6,2.7-1.7,3.5-3.7l-3.4-8.9h3l1.4,3.7
		c0.2,0.5,0.4,1.2,0.6,1.9h0c0.2-0.7,0.4-1.3,0.6-1.9l1.4-3.7h2.8L159.9,34.1z"/>
	<path class="st0" d="M174.9,28.8c-0.2-0.1-0.6-0.2-0.9-0.2c-1,0-1.9,0.5-1.9,2V35H169v-9.5h3v2.1h0c0.3-1.5,1.4-2.3,2.7-2.3
		c0.3,0,0.7,0,0.9,0.1L174.9,28.8z"/>
	<path class="st0" d="M185.3,29.7l-1.4,1.4h-4.7c0.1,0.8,1.2,1.7,2.8,1.7c1,0,2-0.3,2.6-0.7l-0.3,2.6c-0.7,0.4-1.8,0.6-3,0.6
		c-2.9,0-5.2-2-5.2-5.1c0-3.1,2.2-5,5-5c2.6,0,4.3,1.8,4.3,3.8C185.3,29.2,185.3,29.5,185.3,29.7z M181.1,27.5
		c-0.9,0-1.7,0.7-1.8,1.6h3.2c0-0.1,0-0.1,0-0.2C182.5,28.2,181.9,27.5,181.1,27.5z"/>
	<path class="st0" d="M193.3,28h-2.5v3.5c0,0.8,0.4,1.2,1.3,1.2c0.4,0,0.6,0,0.8-0.1l-0.3,2.3c-0.3,0.1-0.8,0.3-1.4,0.3
		c-2.1,0-3.4-1.1-3.4-3V28h-1.6v-2.5h1.6v-2l3.1-1.1v3.1h3.1L193.3,28z"/>
	<path class="st0" d="M196.6,24.2c-0.5,0-1.7-1.1-1.7-1.7s1.1-1.6,1.7-1.6c0.5,0,1.7,1.1,1.7,1.6S197.1,24.2,196.6,24.2z M195,35
		v-9.5h3.1V35H195z"/>
	<path class="st0" d="M206,28.8c-0.2-0.1-0.6-0.2-0.9-0.2c-1,0-1.9,0.5-1.9,2V35h-3.1v-9.5h3v2.1h0c0.3-1.5,1.4-2.3,2.7-2.3
		c0.3,0,0.7,0,0.9,0.1L206,28.8z"/>
	<path class="st0" d="M216.4,29.7l-1.4,1.4h-4.7c0.1,0.8,1.2,1.7,2.8,1.7c1,0,2-0.3,2.6-0.7l-0.3,2.6c-0.7,0.4-1.8,0.6-3,0.6
		c-2.9,0-5.2-2-5.2-5.1c0-3.1,2.2-5,5-5c2.6,0,4.3,1.8,4.3,3.8C216.5,29.2,216.4,29.5,216.4,29.7z M212.2,27.5
		c-0.9,0-1.7,0.7-1.8,1.6h3.2c0-0.1,0-0.1,0-0.2C213.6,28.2,213,27.5,212.2,27.5z"/>
	<path class="st0" d="M229.7,35v-5.8c0-0.7-0.3-1.3-1.3-1.3c-1,0-1.4,0.6-1.4,1.3V35h-3.1v-5.8c0-0.7-0.3-1.3-1.3-1.3
		c-1,0-1.4,0.6-1.4,1.3V35H218v-9.5h2.9v1.3h0c0.4-1,1.3-1.6,2.8-1.6c1.4,0,2.4,0.5,2.8,1.6c0.4-0.9,1.5-1.6,2.9-1.6
		c2.2,0,3.4,1.2,3.4,3.2V35H229.7z"/>
	<path class="st0" d="M243.5,29.7l-1.4,1.4h-4.7c0.1,0.8,1.2,1.7,2.8,1.7c1,0,2-0.3,2.6-0.7l-0.3,2.6c-0.7,0.4-1.8,0.6-3,0.6
		c-2.9,0-5.2-2-5.2-5.1c0-3.1,2.2-5,5-5c2.6,0,4.3,1.8,4.3,3.8C243.6,29.2,243.5,29.5,243.5,29.7z M239.3,27.5
		c-0.9,0-1.7,0.7-1.8,1.6h3.2c0-0.1,0-0.1,0-0.2C240.7,28.2,240.1,27.5,239.3,27.5z"/>
	<path class="st0" d="M251.1,35v-5.8c0-0.7-0.5-1.3-1.4-1.3c-0.9,0-1.5,0.6-1.5,1.3V35h-3.1v-9.5h2.8v1.3h0c0.4-1,1.4-1.6,2.9-1.6
		c2.1,0,3.3,1.2,3.3,3.2V35H251.1z"/>
	<path class="st0" d="M262.4,28h-2.5v3.5c0,0.8,0.4,1.2,1.3,1.2c0.4,0,0.6,0,0.8-0.1l-0.3,2.3c-0.3,0.1-0.8,0.3-1.4,0.3
		c-2.1,0-3.4-1.1-3.4-3V28h-1.6v-2.5h1.6v-2l3.1-1.1v3.1h3.1L262.4,28z"/>
</g>
<text transform="matrix(1 0 0 1 267.8633 35.0146)" class="st0 st1 st2"> </text>
<g>
	<path class="st0" d="M23.7,56.4c-0.6-0.1-1.2-0.6-1.5-1.3c-0.4,0.8-1.3,1.2-2.5,1.2c-1.7,0-3.2-1.2-3.2-3.1c0-1.7,1.4-2.9,3.3-3.1
		l1.9-0.2v-0.3c0-0.6-0.5-0.9-1.5-0.9c-0.9,0-2,0.3-2.6,0.7L17,47c0.8-0.5,2.1-0.8,3.3-0.8c2.5,0,4.3,1.2,4.3,3.4v3.1
		c0,1.1,0.4,1.7,1.2,2L23.7,56.4z M21.7,51.9L20.5,52c-0.8,0.1-1.2,0.6-1.2,1.2c0,0.5,0.4,0.9,1,0.9c0.7,0,1.3-0.6,1.3-1.4V51.9z"/>
	<path class="st0" d="M33.9,49.6c-0.6-0.4-1.3-0.6-2-0.6c-1.3,0-2.4,1-2.4,2.4c0,1.4,1.1,2.4,2.5,2.4c0.8,0,1.4-0.2,2.1-0.5
		l-0.3,2.6c-0.6,0.3-1.4,0.5-2.3,0.5c-2.7,0-5.1-1.9-5.1-5c0-3.1,2.5-5,5.1-5c1.3,0,2.3,0.3,3.1,0.7L33.9,49.6z"/>
	<path class="st0" d="M43.1,49.6c-0.6-0.4-1.3-0.6-2-0.6c-1.3,0-2.4,1-2.4,2.4c0,1.4,1.1,2.4,2.5,2.4c0.8,0,1.4-0.2,2.1-0.5
		l-0.3,2.6c-0.6,0.3-1.4,0.5-2.3,0.5c-2.7,0-5.1-1.9-5.1-5c0-3.1,2.5-5,5.1-5c1.3,0,2.3,0.3,3.1,0.7L43.1,49.6z"/>
	<path class="st0" d="M49.8,56.3c-2.9,0-5.2-2-5.2-5.1s2.3-5.1,5.2-5.1c2.9,0,5.2,2,5.2,5.1S52.6,56.3,49.8,56.3z M49.8,48.9
		c-1.2,0-2.1,1-2.1,2.4s1,2.4,2.1,2.4c1.1,0,2.1-1,2.1-2.4S50.9,48.9,49.8,48.9z"/>
	<path class="st0" d="M62.8,56v-1.3h0c-0.4,1-1.4,1.6-2.9,1.6c-2.1,0-3.3-1.2-3.3-3.2v-6.6h3.1v5.8c0,0.7,0.5,1.3,1.4,1.3
		c0.9,0,1.5-0.6,1.5-1.4v-5.8h3.1V56H62.8z"/>
	<path class="st0" d="M73.6,56v-5.8c0-0.7-0.5-1.3-1.4-1.3c-0.9,0-1.5,0.6-1.5,1.3V56h-3.1v-9.5h2.8v1.3h0c0.4-1,1.4-1.6,2.9-1.6
		c2.1,0,3.3,1.2,3.3,3.2V56H73.6z"/>
	<path class="st0" d="M84.9,49h-2.5v3.5c0,0.8,0.4,1.2,1.3,1.2c0.4,0,0.6,0,0.8-0.1l-0.3,2.3c-0.3,0.1-0.8,0.3-1.4,0.3
		c-2.1,0-3.4-1.1-3.4-3V49h-1.6v-2.5h1.6v-2l3.1-1.1v3.1h3.1L84.9,49z"/>
	<path class="st0" d="M89.5,56.2c-1.3,0-2.2-0.3-3-0.7l-0.3-2.7c0.8,0.6,1.9,1,3,1c0.6,0,0.9-0.3,0.9-0.7c0-0.4-0.3-0.6-0.9-0.7
		c-1.8-0.5-2.9-1.4-2.9-3.1c0-1.9,1.5-3.1,3.6-3.1c1.2,0,2.3,0.3,2.8,0.6l-0.5,2.3c-0.5-0.3-1.2-0.5-2-0.5c-0.5,0-0.8,0.2-0.8,0.6
		c0,0.4,0.3,0.5,0.8,0.7c2.1,0.6,3,1.6,3,3.2C93.2,54.8,92.1,56.2,89.5,56.2z"/>
	<path class="st0" d="M106.7,49.6c-0.6-0.4-1.3-0.6-2-0.6c-1.3,0-2.4,1-2.4,2.4c0,1.4,1.1,2.4,2.5,2.4c0.8,0,1.4-0.2,2.1-0.5
		l-0.3,2.6c-0.6,0.3-1.4,0.5-2.3,0.5c-2.7,0-5.1-1.9-5.1-5c0-3.1,2.5-5,5.1-5c1.3,0,2.3,0.3,3.1,0.7L106.7,49.6z"/>
	<path class="st0" d="M115.5,56.4c-0.6-0.1-1.2-0.6-1.5-1.3c-0.4,0.8-1.3,1.2-2.5,1.2c-1.7,0-3.2-1.2-3.2-3.1c0-1.7,1.4-2.9,3.3-3.1
		l1.9-0.2v-0.3c0-0.6-0.5-0.9-1.5-0.9c-0.9,0-2,0.3-2.6,0.7l-0.5-2.3c0.8-0.5,2.1-0.8,3.3-0.8c2.5,0,4.3,1.2,4.3,3.4v3.1
		c0,1.1,0.4,1.7,1.2,2L115.5,56.4z M113.5,51.9l-1.2,0.1c-0.8,0.1-1.2,0.6-1.2,1.2c0,0.5,0.4,0.9,1,0.9c0.7,0,1.3-0.6,1.3-1.4V51.9z
		"/>
	<path class="st0" d="M124.7,56v-5.8c0-0.7-0.5-1.3-1.4-1.3c-0.9,0-1.5,0.6-1.5,1.3V56h-3.1v-9.5h2.8v1.3h0c0.4-1,1.4-1.6,2.9-1.6
		c2.1,0,3.3,1.2,3.3,3.2V56H124.7z"/>
	<path class="st0" d="M139,56.3c-2,0-3.7-0.7-4.6-1.4V41.1h3v5.8c0.4-0.3,1.4-0.6,2.4-0.6c2.6,0,4.8,1.9,4.8,4.9
		C144.6,54,142.7,56.3,139,56.3z M139.3,48.9c-0.9,0-1.6,0.4-1.8,0.7v3.6c0.3,0.2,1,0.5,1.6,0.5c1.6,0,2.6-1.1,2.6-2.5
		C141.5,50,140.6,48.9,139.3,48.9z"/>
	<path class="st0" d="M154.8,50.7l-1.4,1.4h-4.7c0.1,0.8,1.2,1.7,2.8,1.7c1,0,2-0.3,2.6-0.7l-0.3,2.6c-0.7,0.4-1.8,0.6-3,0.6
		c-2.9,0-5.2-2-5.2-5.1c0-3.1,2.2-5,5-5c2.6,0,4.3,1.8,4.3,3.8C154.9,50.2,154.9,50.5,154.8,50.7z M150.7,48.5
		c-0.9,0-1.7,0.7-1.8,1.6h3.2c0-0.1,0-0.1,0-0.2C152.1,49.2,151.5,48.5,150.7,48.5z"/>
	<path class="st0" d="M168.4,49.6c-0.6-0.4-1.3-0.6-2-0.6c-1.3,0-2.4,1-2.4,2.4c0,1.4,1.1,2.4,2.5,2.4c0.8,0,1.4-0.2,2.1-0.5
		l-0.3,2.6c-0.6,0.3-1.4,0.5-2.3,0.5c-2.7,0-5.1-1.9-5.1-5c0-3.1,2.5-5,5.1-5c1.3,0,2.3,0.3,3.1,0.7L168.4,49.6z"/>
	<path class="st0" d="M175.1,56.3c-2.9,0-5.2-2-5.2-5.1s2.3-5.1,5.2-5.1c2.9,0,5.2,2,5.2,5.1S178,56.3,175.1,56.3z M175.1,48.9
		c-1.2,0-2.1,1-2.1,2.4s1,2.4,2.1,2.4c1.1,0,2.1-1,2.1-2.4S176.2,48.9,175.1,48.9z"/>
	<path class="st0" d="M184.8,56.2c-1.3,0-2.2-0.3-3-0.7l-0.3-2.7c0.8,0.6,1.9,1,3,1c0.6,0,0.9-0.3,0.9-0.7c0-0.4-0.3-0.6-0.9-0.7
		c-1.8-0.5-2.9-1.4-2.9-3.1c0-1.9,1.5-3.1,3.6-3.1c1.2,0,2.3,0.3,2.8,0.6l-0.5,2.3c-0.5-0.3-1.2-0.5-2-0.5c-0.5,0-0.8,0.2-0.8,0.6
		c0,0.4,0.3,0.5,0.8,0.7c2.1,0.6,3,1.6,3,3.2C188.6,54.8,187.4,56.2,184.8,56.2z"/>
	<path class="st0" d="M196.3,49h-2.5v3.5c0,0.8,0.4,1.2,1.3,1.2c0.4,0,0.6,0,0.8-0.1l-0.3,2.3c-0.3,0.1-0.8,0.3-1.4,0.3
		c-2.1,0-3.4-1.1-3.4-3V49h-1.6v-2.5h1.6v-2l3.1-1.1v3.1h3.1L196.3,49z"/>
	<path class="st0" d="M201.2,56.4c-2-0.1-3.3-1.1-3.3-3.4V41.1h3v11.6c0,0.8,0.4,1.2,1.3,1.3L201.2,56.4z"/>
	<path class="st0" d="M209,55.1c-1.4,3.8-3,5.2-4.7,5.9l-1.9-1.9c1.5-0.6,2.7-1.7,3.5-3.7l-3.4-8.9h3l1.4,3.7
		c0.2,0.5,0.4,1.2,0.6,1.9h0c0.2-0.7,0.4-1.3,0.6-1.9l1.4-3.7h2.8L209,55.1z"/>
	<path class="st0" d="M213.8,56.3c-0.6,0-1.7-1.2-1.7-1.7c0-0.5,1.2-1.7,1.7-1.7c0.6,0,1.7,1.2,1.7,1.7
		C215.6,55.1,214.4,56.3,213.8,56.3z"/>
</g>
</svg>
