<?xml version="1.0" encoding="utf-8"?>
<!-- Generator: Adobe Illustrator 22.1.0, SVG Export Plug-In . SVG Version: 6.00 Build 0)  -->
<svg version="1.1" id="Layer_1" xmlns="http://www.w3.org/2000/svg" xmlns:xlink="http://www.w3.org/1999/xlink" x="0px" y="0px"
	 viewBox="0 0 300 250" style="enable-background:new 0 0 300 250;" xml:space="preserve">
<style type="text/css">
	.st0{fill:#231F20;}
</style>
<g>
	<path class="st0" d="M23.3,33.3l-1.1-2.9h-4.1l-1.1,2.9h-2.9l5-12.9h2.1l5,12.9H23.3z M20.6,25.6c-0.1-0.3-0.3-0.8-0.4-1.2h0
		c-0.1,0.4-0.2,0.9-0.4,1.2L19,28h2.5L20.6,25.6z"/>
	<path class="st0" d="M33.1,27.4c-0.2-0.1-0.6-0.2-0.9-0.2c-0.9,0-1.8,0.5-1.8,1.9v4.2h-2.9v-9.1h2.9v2h0c0.3-1.4,1.4-2.2,2.6-2.2
		c0.3,0,0.6,0,0.8,0.1L33.1,27.4z"/>
	<path class="st0" d="M42.9,28.3l-1.3,1.3h-4.4c0.1,0.7,1.1,1.6,2.7,1.6c0.9,0,1.9-0.3,2.5-0.7L42.1,33c-0.7,0.4-1.7,0.6-2.9,0.6
		c-2.8,0-5-1.9-5-4.9c0-2.9,2.1-4.8,4.7-4.8c2.5,0,4.1,1.7,4.1,3.6C43,27.8,43,28.1,42.9,28.3z M38.9,26.1c-0.9,0-1.6,0.7-1.8,1.5
		h3.1c0-0.1,0-0.1,0-0.2C40.3,26.8,39.7,26.1,38.9,26.1z"/>
	<path class="st0" d="M60.1,33.3v-5.6c0-0.7-0.3-1.2-1.3-1.2c-0.9,0-1.4,0.6-1.4,1.3v5.5h-2.9v-5.6c0-0.7-0.3-1.2-1.3-1.2
		c-0.9,0-1.4,0.6-1.4,1.3v5.5h-2.9v-9.1h2.7v1.2h0c0.4-1,1.3-1.5,2.7-1.5c1.3,0,2.3,0.5,2.7,1.5c0.4-0.9,1.4-1.5,2.8-1.5
		c2.1,0,3.2,1.1,3.2,3v6.3H60.1z"/>
	<path class="st0" d="M70.8,33.3v-1.2h0c-0.4,1-1.3,1.5-2.8,1.5c-2,0-3.2-1.1-3.2-3v-6.3h2.9v5.6c0,0.7,0.5,1.2,1.4,1.2
		c0.9,0,1.4-0.6,1.4-1.3v-5.5h2.9v9.1H70.8z"/>
	<path class="st0" d="M78.5,33.7c-1.9-0.1-3.1-1-3.1-3.2V19.1h2.9v11c0,0.7,0.4,1.1,1.2,1.2L78.5,33.7z"/>
	<path class="st0" d="M86.6,26.6h-2.4V30c0,0.8,0.4,1.1,1.2,1.1c0.3,0,0.5,0,0.8-0.1L86,33.2c-0.3,0.1-0.8,0.2-1.4,0.2
		c-2,0-3.3-1.1-3.3-2.9v-3.9h-1.5v-2.4h1.5v-1.9l2.9-1.1v3h2.9L86.6,26.6z"/>
	<path class="st0" d="M89.8,23c-0.5,0-1.6-1.1-1.6-1.6c0-0.5,1.1-1.6,1.6-1.6s1.6,1,1.6,1.6C91.3,21.9,90.3,23,89.8,23z M88.3,33.3
		v-9.1h3v9.1H88.3z"/>
	<path class="st0" d="M98.3,33.6c-1,0-1.9-0.3-2.3-0.6v5h-2.9V24.2h2.6v1.1h0c0.5-0.9,1.5-1.4,2.8-1.4c2.2,0,4.4,1.7,4.4,4.8
		C102.9,31.7,100.8,33.6,98.3,33.6z M97.8,26.5c-0.9,0-1.5,0.5-1.8,0.9v2.8c0.3,0.4,0.9,0.8,1.8,0.8c1.3,0,2.2-1,2.2-2.3
		S99.1,26.5,97.8,26.5z"/>
	<path class="st0" d="M107.5,33.7c-1.9-0.1-3.1-1-3.1-3.2V19.1h2.9v11c0,0.7,0.4,1.1,1.2,1.2L107.5,33.7z"/>
	<path class="st0" d="M117.9,28.3l-1.3,1.3h-4.4c0.1,0.7,1.1,1.6,2.7,1.6c0.9,0,1.9-0.3,2.5-0.7l-0.3,2.5c-0.7,0.4-1.7,0.6-2.9,0.6
		c-2.8,0-5-1.9-5-4.9c0-2.9,2.1-4.8,4.7-4.8c2.5,0,4.1,1.7,4.1,3.6C118,27.8,117.9,28.1,117.9,28.3z M113.9,26.1
		c-0.9,0-1.6,0.7-1.8,1.5h3.1c0-0.1,0-0.1,0-0.2C115.2,26.8,114.7,26.1,113.9,26.1z"/>
	<path class="st0" d="M129.5,27.4c-0.2-0.1-0.6-0.2-0.9-0.2c-0.9,0-1.8,0.5-1.8,1.9v4.2h-2.9v-9.1h2.9v2h0c0.3-1.4,1.4-2.2,2.6-2.2
		c0.3,0,0.6,0,0.8,0.1L129.5,27.4z"/>
	<path class="st0" d="M139.3,28.3l-1.3,1.3h-4.4c0.1,0.7,1.1,1.6,2.7,1.6c0.9,0,1.9-0.3,2.5-0.7l-0.3,2.5c-0.7,0.4-1.7,0.6-2.9,0.6
		c-2.8,0-5-1.9-5-4.9c0-2.9,2.1-4.8,4.7-4.8c2.5,0,4.1,1.7,4.1,3.6C139.4,27.8,139.4,28.1,139.3,28.3z M135.4,26.1
		c-0.9,0-1.6,0.7-1.8,1.5h3.1c0-0.1,0-0.1,0-0.2C136.7,26.8,136.1,26.1,135.4,26.1z"/>
	<path class="st0" d="M147,26.6h-2.4V30c0,0.8,0.4,1.1,1.2,1.1c0.3,0,0.5,0,0.8-0.1l-0.3,2.2c-0.3,0.1-0.8,0.2-1.4,0.2
		c-2,0-3.3-1.1-3.3-2.9v-3.9h-1.5v-2.4h1.5v-1.9l2.9-1.1v3h2.9L147,26.6z"/>
	<path class="st0" d="M150.1,23c-0.5,0-1.6-1.1-1.6-1.6c0-0.5,1.1-1.6,1.6-1.6c0.5,0,1.6,1,1.6,1.6C151.7,21.9,150.7,23,150.1,23z
		 M148.7,33.3v-9.1h3v9.1H148.7z"/>
	<path class="st0" d="M159.2,27.4c-0.2-0.1-0.6-0.2-0.9-0.2c-0.9,0-1.8,0.5-1.8,1.9v4.2h-2.9v-9.1h2.9v2h0c0.3-1.4,1.4-2.2,2.6-2.2
		c0.3,0,0.6,0,0.8,0.1L159.2,27.4z"/>
	<path class="st0" d="M169,28.3l-1.3,1.3h-4.4c0.1,0.7,1.1,1.6,2.7,1.6c0.9,0,1.9-0.3,2.5-0.7l-0.3,2.5c-0.7,0.4-1.7,0.6-2.9,0.6
		c-2.8,0-5-1.9-5-4.9c0-2.9,2.1-4.8,4.7-4.8c2.5,0,4.1,1.7,4.1,3.6C169.1,27.8,169,28.1,169,28.3z M165,26.1c-0.9,0-1.6,0.7-1.8,1.5
		h3.1c0-0.1,0-0.1,0-0.2C166.3,26.8,165.8,26.1,165,26.1z"/>
	<path class="st0" d="M181.7,33.3v-5.6c0-0.7-0.3-1.2-1.3-1.2c-0.9,0-1.4,0.6-1.4,1.3v5.5h-2.9v-5.6c0-0.7-0.3-1.2-1.3-1.2
		c-0.9,0-1.4,0.6-1.4,1.3v5.5h-2.9v-9.1h2.7v1.2h0c0.4-1,1.3-1.5,2.7-1.5c1.3,0,2.3,0.5,2.7,1.5c0.4-0.9,1.4-1.5,2.8-1.5
		c2.1,0,3.2,1.1,3.2,3v6.3H181.7z"/>
	<path class="st0" d="M194.8,28.3l-1.3,1.3h-4.4c0.1,0.7,1.1,1.6,2.7,1.6c0.9,0,1.9-0.3,2.5-0.7L194,33c-0.7,0.4-1.7,0.6-2.9,0.6
		c-2.8,0-5-1.9-5-4.9c0-2.9,2.1-4.8,4.7-4.8c2.5,0,4.1,1.7,4.1,3.6C194.9,27.8,194.9,28.1,194.8,28.3z M190.8,26.1
		c-0.9,0-1.6,0.7-1.8,1.5h3.1c0-0.1,0-0.1,0-0.2C192.2,26.8,191.6,26.1,190.8,26.1z"/>
	<path class="st0" d="M202.1,33.3v-5.6c0-0.7-0.4-1.2-1.3-1.2c-0.9,0-1.4,0.6-1.4,1.3v5.5h-2.9v-9.1h2.7v1.2h0
		c0.4-1,1.3-1.5,2.8-1.5c2,0,3.2,1.1,3.2,3v6.3H202.1z"/>
	<path class="st0" d="M212.8,26.6h-2.4V30c0,0.8,0.4,1.1,1.2,1.1c0.3,0,0.5,0,0.8-0.1l-0.3,2.2c-0.3,0.1-0.8,0.2-1.4,0.2
		c-2,0-3.3-1.1-3.3-2.9v-3.9H206v-2.4h1.5v-1.9l2.9-1.1v3h2.9L212.8,26.6z"/>
</g>
<g>
	<path class="st0" d="M21.3,52.7c-0.5-0.1-1.2-0.5-1.4-1.2c-0.4,0.7-1.3,1.1-2.4,1.1c-1.6,0-3-1.1-3-3c0-1.7,1.3-2.8,3.1-3l1.8-0.2
		v-0.3c0-0.5-0.4-0.9-1.4-0.9c-0.9,0-1.9,0.3-2.5,0.7L15,43.7c0.7-0.5,2-0.8,3.2-0.8c2.4,0,4.1,1.1,4.1,3.3v3c0,1.1,0.4,1.6,1.1,1.9
		L21.3,52.7z M19.4,48.3l-1.1,0.1c-0.8,0.1-1.1,0.6-1.1,1.1c0,0.5,0.4,0.9,0.9,0.9c0.7,0,1.3-0.5,1.3-1.3V48.3z"/>
	<path class="st0" d="M31.1,46.2c-0.6-0.4-1.2-0.6-1.9-0.6c-1.3,0-2.3,0.9-2.3,2.2c0,1.3,1,2.2,2.4,2.2c0.8,0,1.3-0.2,2-0.5
		l-0.3,2.5c-0.6,0.3-1.4,0.4-2.2,0.4c-2.5,0-4.9-1.8-4.9-4.7c0-3,2.4-4.7,4.8-4.7c1.2,0,2.2,0.2,3,0.7L31.1,46.2z"/>
	<path class="st0" d="M39.8,46.2c-0.6-0.4-1.2-0.6-1.9-0.6c-1.3,0-2.3,0.9-2.3,2.2c0,1.3,1,2.2,2.4,2.2c0.8,0,1.3-0.2,2-0.5
		l-0.3,2.5c-0.6,0.3-1.4,0.4-2.2,0.4c-2.5,0-4.9-1.8-4.9-4.7c0-3,2.4-4.7,4.8-4.7c1.2,0,2.2,0.2,3,0.7L39.8,46.2z"/>
	<path class="st0" d="M46.1,52.6c-2.7,0-4.9-1.9-4.9-4.8c0-2.9,2.2-4.8,4.9-4.8c2.7,0,4.9,1.9,4.9,4.8
		C51.1,50.6,48.9,52.6,46.1,52.6z M46.1,45.5c-1.1,0-2,1-2,2.3s0.9,2.3,2,2.3c1.1,0,2-1,2-2.3S47.2,45.5,46.1,45.5z"/>
	<path class="st0" d="M58.5,52.3v-1.2h0c-0.4,1-1.3,1.5-2.8,1.5c-2,0-3.2-1.1-3.2-3v-6.3h2.9v5.6c0,0.7,0.5,1.2,1.4,1.2
		c0.9,0,1.4-0.6,1.4-1.3v-5.5h2.9v9.1H58.5z"/>
	<path class="st0" d="M68.8,52.3v-5.6c0-0.7-0.4-1.2-1.3-1.2c-0.9,0-1.4,0.6-1.4,1.3v5.5h-2.9v-9.1h2.7v1.2h0c0.4-1,1.3-1.5,2.8-1.5
		c2,0,3.2,1.1,3.2,3v6.3H68.8z"/>
	<path class="st0" d="M79.6,45.6h-2.4V49c0,0.8,0.4,1.1,1.2,1.1c0.3,0,0.5,0,0.8-0.1l-0.3,2.2c-0.3,0.1-0.8,0.2-1.4,0.2
		c-2,0-3.3-1.1-3.3-2.9v-3.9h-1.5v-2.4h1.5v-1.9l2.9-1.1v3h2.9L79.6,45.6z"/>
	<path class="st0" d="M84,52.5c-1.2,0-2.1-0.3-2.9-0.6l-0.3-2.6c0.8,0.6,1.8,1,2.8,1c0.5,0,0.9-0.3,0.9-0.6c0-0.4-0.3-0.5-0.8-0.7
		c-1.7-0.5-2.8-1.4-2.8-3c0-1.8,1.4-2.9,3.4-2.9c1.1,0,2.2,0.3,2.7,0.5l-0.5,2.2c-0.4-0.2-1.2-0.5-1.9-0.5c-0.5,0-0.8,0.2-0.8,0.6
		c0,0.3,0.2,0.5,0.8,0.7c2,0.5,2.9,1.6,2.9,3.1C87.5,51.1,86.4,52.5,84,52.5z"/>
	<path class="st0" d="M100.4,46.2c-0.6-0.4-1.2-0.6-1.9-0.6c-1.3,0-2.3,0.9-2.3,2.2c0,1.3,1,2.2,2.4,2.2c0.8,0,1.3-0.2,2-0.5
		l-0.3,2.5c-0.6,0.3-1.4,0.4-2.2,0.4c-2.5,0-4.9-1.8-4.9-4.7c0-3,2.4-4.7,4.8-4.7c1.2,0,2.2,0.2,3,0.7L100.4,46.2z"/>
	<path class="st0" d="M106.7,52.6c-2.7,0-4.9-1.9-4.9-4.8c0-2.9,2.2-4.8,4.9-4.8c2.7,0,4.9,1.9,4.9,4.8
		C111.7,50.6,109.5,52.6,106.7,52.6z M106.7,45.5c-1.1,0-2,1-2,2.3s0.9,2.3,2,2.3c1.1,0,2-1,2-2.3S107.8,45.5,106.7,45.5z"/>
	<path class="st0" d="M116,52.5c-1.2,0-2.1-0.3-2.9-0.6l-0.3-2.6c0.8,0.6,1.8,1,2.8,1c0.5,0,0.9-0.3,0.9-0.6c0-0.4-0.3-0.5-0.8-0.7
		c-1.7-0.5-2.8-1.4-2.8-3c0-1.8,1.4-2.9,3.4-2.9c1.1,0,2.2,0.3,2.7,0.5l-0.5,2.2c-0.4-0.2-1.2-0.5-1.9-0.5c-0.5,0-0.8,0.2-0.8,0.6
		c0,0.3,0.2,0.5,0.8,0.7c2,0.5,2.9,1.6,2.9,3.1C119.6,51.1,118.4,52.5,116,52.5z"/>
	<path class="st0" d="M126.9,45.6h-2.4V49c0,0.8,0.4,1.1,1.2,1.1c0.3,0,0.5,0,0.8-0.1l-0.3,2.2c-0.3,0.1-0.8,0.2-1.4,0.2
		c-2,0-3.3-1.1-3.3-2.9v-3.9h-1.5v-2.4h1.5v-1.9l2.9-1.1v3h2.9L126.9,45.6z"/>
	<path class="st0" d="M130.1,42c-0.5,0-1.6-1.1-1.6-1.6c0-0.5,1.1-1.6,1.6-1.6s1.6,1,1.6,1.6C131.6,40.9,130.6,42,130.1,42z
		 M128.6,52.3v-9.1h3v9.1H128.6z"/>
	<path class="st0" d="M139.2,52.3v-5.6c0-0.7-0.4-1.2-1.3-1.2c-0.9,0-1.4,0.6-1.4,1.3v5.5h-2.9v-9.1h2.7v1.2h0
		c0.4-1,1.3-1.5,2.8-1.5c2,0,3.2,1.1,3.2,3v6.3H139.2z"/>
	<path class="st0" d="M147.8,56.9c-2.6,0-4.4-1.5-4.4-3.4c0-1.4,0.9-2.2,1.9-2.4l-1.2-1.2c0.1-0.6,0.6-1.1,1.1-1.3
		c-0.7-0.4-1.3-1.3-1.3-2.4c0-1.9,1.4-3.3,3.7-3.3c0.5,0,1,0.1,1.3,0.2c0.4,0.1,0.8,0.2,1.3,0.2c0.5,0,1-0.1,1.4-0.3l0.5,2.2
		c-0.3,0.2-0.7,0.3-1.1,0.3c0.1,0.2,0.2,0.6,0.2,0.9c0,1.5-1.2,2.8-3,2.9c-0.4,0-0.6,0.1-0.6,0.3c0,0.1,0.1,0.2,0.2,0.3l1.4,0.5
		c1.8,0.6,2.7,1.5,2.7,3.2C152.2,55.5,150.5,56.9,147.8,56.9z M148.4,52.7l-1.1-0.3c-0.7,0-1.2,0.5-1.2,1.2c0,0.6,0.5,1.1,1.6,1.1
		c1,0,1.6-0.5,1.6-1C149.3,53.3,149,52.8,148.4,52.7z M147.6,45.1c-0.7,0-1.2,0.5-1.2,1.1c0,0.6,0.5,1.1,1.2,1.1
		c0.6,0,1.2-0.5,1.2-1.1C148.8,45.6,148.3,45.1,147.6,45.1z"/>
	<path class="st0" d="M169.1,52.3v-5.6c0-0.7-0.3-1.2-1.3-1.2c-0.9,0-1.4,0.6-1.4,1.3v5.5h-2.9v-5.6c0-0.7-0.3-1.2-1.3-1.2
		c-0.9,0-1.4,0.6-1.4,1.3v5.5h-2.9v-9.1h2.7v1.2h0c0.4-1,1.3-1.5,2.7-1.5c1.3,0,2.3,0.5,2.7,1.5c0.4-0.9,1.4-1.5,2.8-1.5
		c2.1,0,3.2,1.1,3.2,3v6.3H169.1z"/>
	<path class="st0" d="M178.4,52.6c-2.7,0-4.9-1.9-4.9-4.8c0-2.9,2.2-4.8,4.9-4.8c2.7,0,4.9,1.9,4.9,4.8
		C183.4,50.6,181.1,52.6,178.4,52.6z M178.4,45.5c-1.1,0-2,1-2,2.3s0.9,2.3,2,2.3c1.1,0,2-1,2-2.3S179.5,45.5,178.4,45.5z"/>
	<path class="st0" d="M190.5,46.4c-0.2-0.1-0.6-0.2-0.9-0.2c-0.9,0-1.8,0.5-1.8,1.9v4.2h-2.9v-9.1h2.9v2h0c0.3-1.4,1.4-2.2,2.6-2.2
		c0.3,0,0.6,0,0.8,0.1L190.5,46.4z"/>
	<path class="st0" d="M200.3,47.3l-1.3,1.3h-4.4c0.1,0.7,1.1,1.6,2.7,1.6c0.9,0,1.9-0.3,2.5-0.7l-0.3,2.5c-0.7,0.4-1.7,0.6-2.9,0.6
		c-2.8,0-5-1.9-5-4.9c0-2.9,2.1-4.8,4.7-4.8c2.5,0,4.1,1.7,4.1,3.6C200.4,46.8,200.3,47.1,200.3,47.3z M196.3,45.1
		c-0.9,0-1.6,0.7-1.8,1.5h3.1c0-0.1,0-0.1,0-0.2C197.6,45.8,197.1,45.1,196.3,45.1z"/>
	<path class="st0" d="M212.4,45.6H210V49c0,0.8,0.4,1.1,1.2,1.1c0.3,0,0.5,0,0.8-0.1l-0.3,2.2c-0.3,0.1-0.8,0.2-1.4,0.2
		c-2,0-3.3-1.1-3.3-2.9v-3.9h-1.5v-2.4h1.5v-1.9l2.9-1.1v3h2.9L212.4,45.6z"/>
	<path class="st0" d="M219.7,52.3v-5.6c0-0.7-0.5-1.2-1.4-1.2c-0.9,0-1.4,0.6-1.4,1.3v5.5H214V38.1h2.9v6h0c0.5-0.7,1.3-1.1,2.6-1.1
		c2,0,3.2,1.1,3.2,3v6.3H219.7z"/>
	<path class="st0" d="M230.9,52.7c-0.5-0.1-1.2-0.5-1.4-1.2c-0.4,0.7-1.3,1.1-2.4,1.1c-1.6,0-3-1.1-3-3c0-1.7,1.3-2.8,3.1-3l1.8-0.2
		v-0.3c0-0.5-0.4-0.9-1.4-0.9c-0.9,0-1.9,0.3-2.5,0.7l-0.5-2.2c0.7-0.5,2-0.8,3.2-0.8c2.4,0,4.1,1.1,4.1,3.3v3
		c0,1.1,0.4,1.6,1.1,1.9L230.9,52.7z M229,48.3l-1.1,0.1c-0.8,0.1-1.1,0.6-1.1,1.1c0,0.5,0.4,0.9,0.9,0.9c0.7,0,1.3-0.5,1.3-1.3
		V48.3z"/>
	<path class="st0" d="M239.7,52.3v-5.6c0-0.7-0.4-1.2-1.3-1.2c-0.9,0-1.4,0.6-1.4,1.3v5.5h-2.9v-9.1h2.7v1.2h0
		c0.4-1,1.3-1.5,2.8-1.5c2,0,3.2,1.1,3.2,3v6.3H239.7z"/>
</g>
<g>
	<path class="st0" d="M20.5,70.4c-1.4,3.6-2.8,5-4.5,5.6l-1.8-1.8c1.5-0.6,2.6-1.6,3.3-3.5l-3.3-8.4H17l1.3,3.5
		c0.2,0.5,0.4,1.1,0.5,1.8h0c0.2-0.6,0.4-1.3,0.6-1.8l1.3-3.5h2.7L20.5,70.4z"/>
	<path class="st0" d="M28.8,71.6c-2.7,0-4.9-1.9-4.9-4.8c0-2.9,2.2-4.8,4.9-4.8c2.7,0,4.9,1.9,4.9,4.8
		C33.7,69.6,31.5,71.6,28.8,71.6z M28.8,64.5c-1.1,0-2,1-2,2.3s0.9,2.3,2,2.3c1.1,0,2-1,2-2.3S29.8,64.5,28.8,64.5z"/>
	<path class="st0" d="M41.1,71.3v-1.2h0c-0.4,1-1.3,1.5-2.8,1.5c-2,0-3.2-1.1-3.2-3v-6.3h2.9v5.6c0,0.7,0.5,1.2,1.4,1.2
		c0.9,0,1.4-0.6,1.4-1.3v-5.5h2.9v9.1H41.1z"/>
	<path class="st0" d="M56.2,64.6h-2.4V68c0,0.8,0.4,1.1,1.2,1.1c0.3,0,0.5,0,0.8-0.1l-0.3,2.2c-0.3,0.1-0.8,0.2-1.4,0.2
		c-2,0-3.3-1.1-3.3-2.9v-3.9h-1.5v-2.4h1.5v-1.9l2.9-1.1v3h2.9L56.2,64.6z"/>
	<path class="st0" d="M63.5,71.3v-5.6c0-0.7-0.5-1.2-1.4-1.2c-0.9,0-1.4,0.6-1.4,1.3v5.5h-2.9V57.1h2.9v6h0c0.5-0.7,1.3-1.1,2.6-1.1
		c2,0,3.2,1.1,3.2,3v6.3H63.5z"/>
	<path class="st0" d="M69.8,61c-0.5,0-1.6-1.1-1.6-1.6c0-0.5,1.1-1.6,1.6-1.6s1.6,1,1.6,1.6C71.4,59.9,70.4,61,69.8,61z M68.4,71.3
		v-9.1h3v9.1H68.4z"/>
	<path class="st0" d="M79,71.3v-5.6c0-0.7-0.4-1.2-1.3-1.2c-0.9,0-1.4,0.6-1.4,1.3v5.5h-2.9v-9.1h2.7v1.2h0c0.4-1,1.3-1.5,2.8-1.5
		c2,0,3.2,1.1,3.2,3v6.3H79z"/>
	<path class="st0" d="M89.4,71.3l-2.7-3.7h0v3.7h-2.9V57.1h2.9v8.9h0l2.7-3.7h3.2l-3.2,4.4l3.4,4.7H89.4z"/>
	<path class="st0" d="M98.2,65c-0.5,0.6-0.7,1-0.7,1.6c0,0.3,0,0.6,0.1,0.9L95,67c-0.1-0.4-0.1-0.7-0.1-1c0-1.1,0.4-2,1.2-2.8
		c0.5-0.5,0.8-0.9,0.8-1.5c0-0.4-0.4-0.9-1.1-0.9c-0.7,0-1.4,0.3-2,0.7L93.1,59c0.7-0.5,1.7-0.8,2.9-0.8c2.4,0,3.9,1.4,3.9,3.4
		C99.9,62.8,99.3,63.7,98.2,65z M96.3,71.6c-0.5,0-1.7-1.1-1.7-1.7c0-0.5,1.1-1.6,1.7-1.6s1.7,1.1,1.7,1.6
		C98,70.5,96.9,71.6,96.3,71.6z"/>
</g>
</svg>
