<?xml version="1.0" encoding="utf-8"?>
<!-- Generator: Adobe Illustrator 22.1.0, SVG Export Plug-In . SVG Version: 6.00 Build 0)  -->
<svg version="1.1" id="Layer_1" xmlns="http://www.w3.org/2000/svg" xmlns:xlink="http://www.w3.org/1999/xlink" x="0px" y="0px"
	 viewBox="0 0 300 250" style="enable-background:new 0 0 300 250;" xml:space="preserve">
<style type="text/css">
	.st0{fill:#231F20;}
	.st1{font-family:'Agenda-Bold';}
	.st2{font-size:21px;}
</style>
<g>
	<path class="st0" d="M24.4,36l-1.1-3H19l-1.1,3h-3.1l5.3-13.5h2.2L27.6,36H24.4z M21.5,28c-0.1-0.4-0.3-0.8-0.4-1.2h0
		c-0.1,0.4-0.3,0.9-0.4,1.2l-0.9,2.5h2.6L21.5,28z"/>
	<path class="st0" d="M34.7,36v-5.8c0-0.7-0.5-1.3-1.4-1.3c-0.9,0-1.5,0.6-1.5,1.3V36h-3.1v-9.5h2.8v1.3h0c0.4-1,1.4-1.6,2.9-1.6
		c2.1,0,3.3,1.2,3.3,3.2V36H34.7z"/>
	<path class="st0" d="M46.9,36v-1.2h0c-0.5,1-1.6,1.4-2.9,1.4c-2.3,0-4.6-1.8-4.6-5c0-3.1,2.2-5.1,4.8-5.1c1,0,2,0.3,2.4,0.7v-5.8h3
		V36H46.9z M46.6,29.8c-0.3-0.4-0.9-0.9-1.9-0.9c-1.3,0-2.3,1-2.3,2.4s0.9,2.4,2.3,2.4c0.9,0,1.5-0.5,1.9-1V29.8z"/>
	<path class="st0" d="M60.9,36.3c-2,0-3.7-0.7-4.6-1.4V21.1h3v5.8c0.4-0.3,1.4-0.6,2.4-0.6c2.6,0,4.8,1.9,4.8,4.9
		C66.5,34,64.7,36.3,60.9,36.3z M61.2,28.9c-0.9,0-1.6,0.4-1.8,0.7v3.6c0.3,0.2,1,0.5,1.6,0.5c1.6,0,2.6-1.1,2.6-2.5
		C63.5,30,62.5,28.9,61.2,28.9z"/>
	<path class="st0" d="M73.4,35.1c-1.4,3.8-3,5.2-4.7,5.9l-1.9-1.9c1.5-0.6,2.7-1.7,3.5-3.7l-3.4-8.9h3l1.4,3.7
		c0.2,0.5,0.4,1.2,0.6,1.9h0c0.2-0.7,0.4-1.3,0.6-1.9l1.4-3.7h2.8L73.4,35.1z"/>
	<path class="st0" d="M88,36.3c-1,0-2-0.3-2.4-0.6v5.2h-3V26.5h2.7v1.2h0c0.5-1,1.6-1.4,2.9-1.4c2.3,0,4.6,1.8,4.6,5
		C92.8,34.3,90.6,36.3,88,36.3z M87.4,28.9c-0.9,0-1.5,0.5-1.9,1v3c0.3,0.4,0.9,0.8,1.9,0.8c1.3,0,2.3-1,2.3-2.4
		S88.7,28.9,87.4,28.9z"/>
	<path class="st0" d="M99.1,36.3c-2.9,0-5.2-2-5.2-5.1s2.3-5.1,5.2-5.1c2.9,0,5.2,2,5.2,5.1S102,36.3,99.1,36.3z M99.1,28.9
		c-1.2,0-2.1,1-2.1,2.4s1,2.4,2.1,2.4c1.1,0,2.1-1,2.1-2.4S100.2,28.9,99.1,28.9z"/>
	<path class="st0" d="M112.2,29h-2.5v3.5c0,0.8,0.4,1.2,1.3,1.2c0.4,0,0.6,0,0.8-0.1l-0.3,2.3c-0.3,0.1-0.8,0.3-1.4,0.3
		c-2.1,0-3.4-1.1-3.4-3V29H105v-2.5h1.6v-2l3.1-1.1v3.1h3.1L112.2,29z"/>
	<path class="st0" d="M122.3,30.7l-1.4,1.4h-4.7c0.1,0.8,1.2,1.7,2.8,1.7c1,0,2-0.3,2.6-0.7l-0.3,2.6c-0.7,0.4-1.8,0.6-3,0.6
		c-2.9,0-5.2-2-5.2-5.1c0-3.1,2.2-5,5-5c2.6,0,4.3,1.8,4.3,3.8C122.4,30.2,122.4,30.5,122.3,30.7z M118.1,28.5
		c-0.9,0-1.7,0.7-1.8,1.6h3.2c0-0.1,0-0.1,0-0.2C119.5,29.2,119,28.5,118.1,28.5z"/>
	<path class="st0" d="M130,36v-5.8c0-0.7-0.5-1.3-1.4-1.3c-0.9,0-1.5,0.6-1.5,1.3V36h-3.1v-9.5h2.8v1.3h0c0.4-1,1.4-1.6,2.9-1.6
		c2.1,0,3.3,1.2,3.3,3.2V36H130z"/>
	<path class="st0" d="M141.2,29h-2.5v3.5c0,0.8,0.4,1.2,1.3,1.2c0.4,0,0.6,0,0.8-0.1l-0.3,2.3c-0.3,0.1-0.8,0.3-1.4,0.3
		c-2.1,0-3.4-1.1-3.4-3V29h-1.6v-2.5h1.6v-2l3.1-1.1v3.1h3.1L141.2,29z"/>
	<path class="st0" d="M144.5,25.2c-0.5,0-1.7-1.1-1.7-1.7s1.1-1.6,1.7-1.6s1.7,1.1,1.7,1.6S145.1,25.2,144.5,25.2z M143,36v-9.5h3.1
		V36H143z"/>
	<path class="st0" d="M154.8,36.4c-0.6-0.1-1.2-0.6-1.5-1.3c-0.4,0.8-1.3,1.2-2.5,1.2c-1.7,0-3.2-1.2-3.2-3.1c0-1.7,1.4-2.9,3.3-3.1
		l1.9-0.2v-0.3c0-0.6-0.5-0.9-1.5-0.9c-0.9,0-2,0.3-2.6,0.7l-0.5-2.3c0.8-0.5,2.1-0.8,3.3-0.8c2.5,0,4.3,1.2,4.3,3.4v3.1
		c0,1.1,0.4,1.7,1.2,2L154.8,36.4z M152.8,31.9l-1.2,0.1c-0.8,0.1-1.2,0.6-1.2,1.2c0,0.5,0.4,0.9,1,0.9c0.7,0,1.3-0.6,1.3-1.4V31.9z
		"/>
	<path class="st0" d="M161.2,36.4c-2-0.1-3.3-1.1-3.3-3.4V21.1h3v11.6c0,0.8,0.4,1.2,1.3,1.3L161.2,36.4z"/>
	<path class="st0" d="M166.7,36.4c-2-0.1-3.3-1.1-3.3-3.4V21.1h3v11.6c0,0.8,0.4,1.2,1.3,1.3L166.7,36.4z"/>
	<path class="st0" d="M174.5,35.1c-1.4,3.8-3,5.2-4.7,5.9l-1.9-1.9c1.5-0.6,2.7-1.7,3.5-3.7l-3.4-8.9h3l1.4,3.7
		c0.2,0.5,0.4,1.2,0.6,1.9h0c0.2-0.7,0.4-1.3,0.6-1.9l1.4-3.7h2.8L174.5,35.1z"/>
	<path class="st0" d="M187,36.4c-2-0.1-3.3-1.1-3.3-3.4V21.1h3v11.6c0,0.8,0.4,1.2,1.3,1.3L187,36.4z"/>
	<path class="st0" d="M190.9,25.2c-0.5,0-1.7-1.1-1.7-1.7s1.1-1.6,1.7-1.6c0.5,0,1.7,1.1,1.7,1.6S191.4,25.2,190.9,25.2z M189.3,36
		v-9.5h3.1V36H189.3z"/>
	<path class="st0" d="M206.2,36v-5.8c0-0.7-0.3-1.3-1.3-1.3c-1,0-1.4,0.6-1.4,1.3V36h-3.1v-5.8c0-0.7-0.3-1.3-1.3-1.3
		c-1,0-1.4,0.6-1.4,1.3V36h-3.1v-9.5h2.9v1.3h0c0.4-1,1.3-1.6,2.8-1.6c1.4,0,2.4,0.5,2.8,1.6c0.4-0.9,1.5-1.6,2.9-1.6
		c2.2,0,3.4,1.2,3.4,3.2V36H206.2z"/>
	<path class="st0" d="M212.8,25.2c-0.5,0-1.7-1.1-1.7-1.7s1.1-1.6,1.7-1.6c0.5,0,1.7,1.1,1.7,1.6S213.4,25.2,212.8,25.2z M211.3,36
		v-9.5h3.1V36H211.3z"/>
	<path class="st0" d="M222.7,29h-2.5v3.5c0,0.8,0.4,1.2,1.3,1.2c0.4,0,0.6,0,0.8-0.1l-0.3,2.3c-0.3,0.1-0.8,0.3-1.4,0.3
		c-2.1,0-3.4-1.1-3.4-3V29h-1.6v-2.5h1.6v-2l3.1-1.1v3.1h3.1L222.7,29z"/>
	<path class="st0" d="M226,25.2c-0.5,0-1.7-1.1-1.7-1.7s1.1-1.6,1.7-1.6c0.5,0,1.7,1.1,1.7,1.6S226.5,25.2,226,25.2z M224.4,36v-9.5
		h3.1V36H224.4z"/>
	<path class="st0" d="M235.6,36v-5.8c0-0.7-0.5-1.3-1.4-1.3c-0.9,0-1.5,0.6-1.5,1.3V36h-3.1v-9.5h2.8v1.3h0c0.4-1,1.4-1.6,2.9-1.6
		c2.1,0,3.3,1.2,3.3,3.2V36H235.6z"/>
	<path class="st0" d="M244.7,40.9c-2.8,0-4.6-1.6-4.6-3.6c0-1.4,1-2.3,2-2.6l-1.2-1.2c0.1-0.6,0.6-1.1,1.2-1.4
		c-0.7-0.4-1.4-1.3-1.4-2.5c0-2,1.4-3.4,3.9-3.4c0.6,0,1,0.1,1.4,0.2c0.4,0.1,0.9,0.2,1.4,0.2c0.5,0,1.1-0.1,1.5-0.3l0.6,2.4
		c-0.3,0.2-0.8,0.3-1.2,0.3c0.1,0.2,0.2,0.6,0.2,1c0,1.6-1.3,2.9-3.1,3.1c-0.4,0-0.6,0.1-0.6,0.4c0,0.1,0.1,0.2,0.3,0.3l1.5,0.5
		c1.9,0.7,2.9,1.6,2.9,3.4C249.2,39.4,247.4,40.9,244.7,40.9z M245.3,36.4l-1.1-0.3c-0.7,0-1.3,0.5-1.3,1.2c0,0.7,0.6,1.2,1.7,1.2
		c1.1,0,1.7-0.5,1.7-1C246.2,37,245.9,36.6,245.3,36.4z M244.5,28.4c-0.7,0-1.2,0.5-1.2,1.1c0,0.6,0.5,1.1,1.2,1.1
		c0.7,0,1.2-0.5,1.2-1.1C245.7,29,245.2,28.4,244.5,28.4z"/>
</g>
<text transform="matrix(1 0 0 1 254.3145 36.0146)" class="st0 st1 st2"> </text>
<g>
	<path class="st0" d="M21.4,56.1c-1.4,3.8-3,5.2-4.7,5.9l-1.9-1.9c1.5-0.6,2.7-1.7,3.5-3.7l-3.4-8.9h3l1.4,3.7
		c0.2,0.5,0.4,1.2,0.6,1.9h0c0.2-0.7,0.4-1.3,0.6-1.9l1.4-3.7h2.8L21.4,56.1z"/>
	<path class="st0" d="M30.1,57.3c-2.9,0-5.2-2-5.2-5.1s2.3-5.1,5.2-5.1c2.9,0,5.2,2,5.2,5.1S32.9,57.3,30.1,57.3z M30.1,49.9
		c-1.2,0-2.1,1-2.1,2.4s1,2.4,2.1,2.4c1.1,0,2.1-1,2.1-2.4S31.2,49.9,30.1,49.9z"/>
	<path class="st0" d="M43.1,57v-1.3h0c-0.4,1-1.4,1.6-2.9,1.6c-2.1,0-3.3-1.2-3.3-3.2v-6.6h3.1v5.8c0,0.7,0.5,1.3,1.4,1.3
		c0.9,0,1.5-0.6,1.5-1.4v-5.8h3.1V57H43.1z"/>
	<path class="st0" d="M53.8,50.8c-0.2-0.1-0.6-0.2-0.9-0.2c-1,0-1.9,0.5-1.9,2V57h-3.1v-9.5h3v2.1h0c0.3-1.5,1.4-2.3,2.7-2.3
		c0.3,0,0.7,0,0.9,0.1L53.8,50.8z"/>
	<path class="st0" d="M66.2,50.8c-0.2-0.1-0.6-0.2-0.9-0.2c-1,0-1.9,0.5-1.9,2V57h-3.1v-9.5h3v2.1h0c0.3-1.5,1.4-2.3,2.7-2.3
		c0.3,0,0.7,0,0.9,0.1L66.2,50.8z"/>
	<path class="st0" d="M76.5,51.7l-1.4,1.4h-4.7c0.1,0.8,1.2,1.7,2.8,1.7c1,0,2-0.3,2.6-0.7l-0.3,2.6c-0.7,0.4-1.8,0.6-3,0.6
		c-2.9,0-5.2-2-5.2-5.1c0-3.1,2.2-5,5-5c2.6,0,4.3,1.8,4.3,3.8C76.6,51.2,76.6,51.5,76.5,51.7z M72.3,49.5c-0.9,0-1.7,0.7-1.8,1.6
		h3.2c0-0.1,0-0.1,0-0.2C73.7,50.2,73.2,49.5,72.3,49.5z"/>
	<path class="st0" d="M84.6,50h-2.5v3.5c0,0.8,0.4,1.2,1.3,1.2c0.4,0,0.6,0,0.8-0.1l-0.3,2.3c-0.3,0.1-0.8,0.3-1.4,0.3
		c-2.1,0-3.4-1.1-3.4-3V50h-1.6v-2.5H79v-2l3.1-1.1v3.1h3.1L84.6,50z"/>
	<path class="st0" d="M92.5,57v-1.3h0c-0.4,1-1.4,1.6-2.9,1.6c-2.1,0-3.3-1.2-3.3-3.2v-6.6h3.1v5.8c0,0.7,0.5,1.3,1.4,1.3
		c0.9,0,1.5-0.6,1.5-1.4v-5.8h3.1V57H92.5z"/>
	<path class="st0" d="M103.2,50.8c-0.2-0.1-0.6-0.2-0.9-0.2c-1,0-1.9,0.5-1.9,2V57h-3.1v-9.5h3v2.1h0c0.3-1.5,1.4-2.3,2.7-2.3
		c0.3,0,0.7,0,0.9,0.1L103.2,50.8z"/>
	<path class="st0" d="M111,57v-5.8c0-0.7-0.5-1.3-1.4-1.3c-0.9,0-1.5,0.6-1.5,1.3V57H105v-9.5h2.8v1.3h0c0.4-1,1.4-1.6,2.9-1.6
		c2.1,0,3.3,1.2,3.3,3.2V57H111z"/>
	<path class="st0" d="M119.1,57.2c-1.3,0-2.2-0.3-3-0.7l-0.3-2.7c0.8,0.6,1.9,1,3,1c0.6,0,0.9-0.3,0.9-0.7c0-0.4-0.3-0.6-0.9-0.7
		c-1.8-0.5-2.9-1.4-2.9-3.1c0-1.9,1.5-3.1,3.6-3.1c1.2,0,2.3,0.3,2.8,0.6l-0.5,2.3c-0.5-0.3-1.2-0.5-2-0.5c-0.5,0-0.8,0.2-0.8,0.6
		c0,0.4,0.3,0.5,0.8,0.7c2.1,0.6,3,1.6,3,3.2C122.8,55.8,121.6,57.2,119.1,57.2z"/>
	<path class="st0" d="M125.8,57.3c-0.6,0-1.7-1.2-1.7-1.7c0-0.5,1.2-1.7,1.7-1.7s1.7,1.2,1.7,1.7C127.6,56.1,126.4,57.3,125.8,57.3z
		"/>
</g>
</svg>
