<?xml version="1.0" encoding="utf-8"?>
<!-- Generator: Adobe Illustrator 22.1.0, SVG Export Plug-In . SVG Version: 6.00 Build 0)  -->
<svg version="1.1" id="Layer_1" xmlns="http://www.w3.org/2000/svg" xmlns:xlink="http://www.w3.org/1999/xlink" x="0px" y="0px"
	 viewBox="0 0 300 250" style="enable-background:new 0 0 300 250;" xml:space="preserve">
<style type="text/css">
	.st0{fill:#231F20;}
</style>
<g>
	<path class="st0" d="M16.2,33.3V20.5h3.1v12.8H16.2z"/>
	<path class="st0" d="M27.3,33.3v-5.6c0-0.7-0.4-1.2-1.3-1.2c-0.9,0-1.4,0.6-1.4,1.3v5.5h-2.9v-9.1h2.7v1.2h0c0.4-1,1.3-1.5,2.8-1.5
		c2,0,3.2,1.1,3.2,3v6.3H27.3z"/>
	<path class="st0" d="M44.8,28.3l-1.3,1.3h-4.4c0.1,0.7,1.1,1.6,2.7,1.6c0.9,0,1.9-0.3,2.5-0.7L44,33c-0.7,0.4-1.7,0.6-2.9,0.6
		c-2.8,0-5-1.9-5-4.9c0-2.9,2.1-4.8,4.7-4.8c2.5,0,4.1,1.7,4.1,3.6C44.9,27.8,44.9,28.1,44.8,28.3z M40.9,26.1
		c-0.9,0-1.6,0.7-1.8,1.5h3.1c0-0.1,0-0.1,0-0.2C42.2,26.8,41.6,26.1,40.9,26.1z"/>
	<path class="st0" d="M51.2,33.3l-0.9-1.7c-0.1-0.2-0.3-0.6-0.4-0.9h0c-0.1,0.3-0.3,0.6-0.4,0.9l-0.9,1.7h-2.8l2.6-4.5l-2.5-4.5h3
		l0.9,1.5c0.1,0.2,0.2,0.5,0.4,0.8h0c0.1-0.3,0.3-0.5,0.4-0.8l0.9-1.5H54l-2.5,4.4l2.6,4.7H51.2z"/>
	<path class="st0" d="M61.7,26.6h-2.4V30c0,0.8,0.4,1.1,1.2,1.1c0.3,0,0.5,0,0.8-0.1l-0.3,2.2c-0.3,0.1-0.8,0.2-1.4,0.2
		c-2,0-3.3-1.1-3.3-2.9v-3.9h-1.5v-2.4h1.5v-1.9l2.9-1.1v3h2.9L61.7,26.6z"/>
	<path class="st0" d="M68.9,27.4c-0.2-0.1-0.6-0.2-0.9-0.2c-0.9,0-1.8,0.5-1.8,1.9v4.2h-2.9v-9.1h2.9v2h0c0.3-1.4,1.4-2.2,2.6-2.2
		c0.3,0,0.6,0,0.8,0.1L68.9,27.4z"/>
	<path class="st0" d="M77,33.7c-0.5-0.1-1.2-0.5-1.4-1.2c-0.4,0.7-1.3,1.1-2.4,1.1c-1.6,0-3-1.1-3-3c0-1.7,1.3-2.8,3.1-3l1.8-0.2
		v-0.3c0-0.5-0.4-0.9-1.4-0.9c-0.9,0-1.9,0.3-2.5,0.7l-0.5-2.2c0.7-0.5,2-0.8,3.2-0.8c2.4,0,4.1,1.1,4.1,3.3v3
		c0,1.1,0.4,1.6,1.1,1.9L77,33.7z M75.1,29.3L74,29.4c-0.8,0.1-1.1,0.6-1.1,1.1c0,0.5,0.4,0.9,0.9,0.9c0.7,0,1.3-0.5,1.3-1.3V29.3z"
		/>
</g>
<g>
	<path class="st0" d="M22.3,52.7c-0.5-0.1-1.2-0.5-1.4-1.2c-0.4,0.7-1.3,1.1-2.4,1.1c-1.6,0-3-1.1-3-3c0-1.7,1.3-2.8,3.1-3l1.8-0.2
		v-0.3c0-0.5-0.4-0.9-1.4-0.9c-0.9,0-1.9,0.3-2.5,0.7L16,43.7c0.7-0.5,2-0.8,3.2-0.8c2.4,0,4.1,1.1,4.1,3.3v3c0,1.1,0.4,1.6,1.1,1.9
		L22.3,52.7z M20.4,48.3l-1.1,0.1c-0.8,0.1-1.1,0.6-1.1,1.1c0,0.5,0.4,0.9,0.9,0.9c0.7,0,1.3-0.5,1.3-1.3V48.3z"/>
	<path class="st0" d="M32,52.3v-1.1h0c-0.5,0.9-1.5,1.4-2.8,1.4c-2.2,0-4.4-1.7-4.4-4.8c0-2.9,2.1-4.8,4.6-4.8c1,0,1.9,0.3,2.3,0.6
		v-5.5h2.9v14.2H32z M31.8,46.4c-0.3-0.4-0.9-0.8-1.8-0.8c-1.3,0-2.2,1-2.2,2.3s0.9,2.3,2.2,2.3c0.9,0,1.5-0.5,1.8-0.9V46.4z"/>
	<path class="st0" d="M47.7,52.3v-5.6c0-0.7-0.3-1.2-1.3-1.2c-0.9,0-1.4,0.6-1.4,1.3v5.5h-2.9v-5.6c0-0.7-0.3-1.2-1.3-1.2
		c-0.9,0-1.4,0.6-1.4,1.3v5.5h-2.9v-9.1h2.7v1.2h0c0.4-1,1.3-1.5,2.7-1.5c1.3,0,2.3,0.5,2.7,1.5c0.4-0.9,1.4-1.5,2.8-1.5
		c2.1,0,3.2,1.1,3.2,3v6.3H47.7z"/>
	<path class="st0" d="M54.1,42c-0.5,0-1.6-1.1-1.6-1.6c0-0.5,1.1-1.6,1.6-1.6s1.6,1,1.6,1.6C55.6,40.9,54.6,42,54.1,42z M52.6,52.3
		v-9.1h3v9.1H52.6z"/>
	<path class="st0" d="M63.2,52.3v-5.6c0-0.7-0.4-1.2-1.3-1.2c-0.9,0-1.4,0.6-1.4,1.3v5.5h-2.9v-9.1h2.7v1.2h0c0.4-1,1.3-1.5,2.8-1.5
		c2,0,3.2,1.1,3.2,3v6.3H63.2z"/>
	<path class="st0" d="M69.5,42c-0.5,0-1.6-1.1-1.6-1.6c0-0.5,1.1-1.6,1.6-1.6s1.6,1,1.6,1.6C71.1,40.9,70,42,69.5,42z M68,52.3v-9.1
		h3v9.1H68z"/>
	<path class="st0" d="M75.8,52.5c-1.2,0-2.1-0.3-2.9-0.6l-0.3-2.6c0.8,0.6,1.8,1,2.8,1c0.5,0,0.9-0.3,0.9-0.6c0-0.4-0.3-0.5-0.8-0.7
		c-1.7-0.5-2.8-1.4-2.8-3c0-1.8,1.4-2.9,3.4-2.9c1.1,0,2.2,0.3,2.7,0.5l-0.5,2.2c-0.4-0.2-1.2-0.5-1.9-0.5c-0.5,0-0.8,0.2-0.8,0.6
		c0,0.3,0.2,0.5,0.8,0.7c2,0.5,2.9,1.6,2.9,3.1C79.4,51.1,78.3,52.5,75.8,52.5z"/>
	<path class="st0" d="M86.8,45.6h-2.4V49c0,0.8,0.4,1.1,1.2,1.1c0.3,0,0.5,0,0.8-0.1l-0.3,2.2c-0.3,0.1-0.8,0.2-1.4,0.2
		c-2,0-3.3-1.1-3.3-2.9v-3.9H80v-2.4h1.5v-1.9l2.9-1.1v3h2.9L86.8,45.6z"/>
	<path class="st0" d="M94,46.4c-0.2-0.1-0.6-0.2-0.9-0.2c-0.9,0-1.8,0.5-1.8,1.9v4.2h-2.9v-9.1h2.9v2h0c0.3-1.4,1.4-2.2,2.6-2.2
		c0.3,0,0.6,0,0.8,0.1L94,46.4z"/>
	<path class="st0" d="M102,52.7c-0.5-0.1-1.2-0.5-1.4-1.2c-0.4,0.7-1.3,1.1-2.4,1.1c-1.6,0-3-1.1-3-3c0-1.7,1.3-2.8,3.1-3l1.8-0.2
		v-0.3c0-0.5-0.4-0.9-1.4-0.9c-0.9,0-1.9,0.3-2.5,0.7l-0.5-2.2c0.7-0.5,2-0.8,3.2-0.8c2.4,0,4.1,1.1,4.1,3.3v3
		c0,1.1,0.4,1.6,1.1,1.9L102,52.7z M100.2,48.3l-1.1,0.1C98.3,48.5,98,49,98,49.6c0,0.5,0.4,0.9,0.9,0.9c0.7,0,1.3-0.5,1.3-1.3V48.3
		z"/>
	<path class="st0" d="M111,45.6h-2.4V49c0,0.8,0.4,1.1,1.2,1.1c0.3,0,0.5,0,0.8-0.1l-0.3,2.2c-0.3,0.1-0.8,0.2-1.4,0.2
		c-2,0-3.3-1.1-3.3-2.9v-3.9h-1.5v-2.4h1.5v-1.9l2.9-1.1v3h2.9L111,45.6z"/>
	<path class="st0" d="M114.1,42c-0.5,0-1.6-1.1-1.6-1.6c0-0.5,1.1-1.6,1.6-1.6s1.6,1,1.6,1.6C115.7,40.9,114.6,42,114.1,42z
		 M112.6,52.3v-9.1h3v9.1H112.6z"/>
	<path class="st0" d="M122.3,52.4h-2.2l-3.5-9.1h2.8l1.3,3.5c0.2,0.5,0.4,1.2,0.5,1.8h0c0.1-0.6,0.3-1.3,0.5-1.8l1.3-3.5h2.7
		L122.3,52.4z"/>
	<path class="st0" d="M134.8,47.3l-1.3,1.3h-4.4c0.1,0.7,1.1,1.6,2.7,1.6c0.9,0,1.9-0.3,2.5-0.7L134,52c-0.7,0.4-1.7,0.6-2.9,0.6
		c-2.8,0-5-1.9-5-4.9c0-2.9,2.1-4.8,4.7-4.8c2.5,0,4.1,1.7,4.1,3.6C134.9,46.8,134.8,47.1,134.8,47.3z M130.8,45.1
		c-0.9,0-1.6,0.7-1.8,1.5h3.1c0-0.1,0-0.1,0-0.2C132.1,45.8,131.6,45.1,130.8,45.1z"/>
	<path class="st0" d="M147.1,40.7c-0.3-0.1-0.8-0.2-1.2-0.2c-1.1,0-1.6,0.6-1.6,1.9v0.9h2.6l-0.6,2.4h-2v6.7h-2.8v-6.7h-1.4v-2.4
		h1.4v-1.1c0-2.8,1.8-4.1,4.1-4.1c0.8,0,1.7,0.1,2.1,0.3L147.1,40.7z"/>
	<path class="st0" d="M156,47.3l-1.3,1.3h-4.4c0.1,0.7,1.1,1.6,2.7,1.6c0.9,0,1.9-0.3,2.5-0.7l-0.3,2.5c-0.7,0.4-1.7,0.6-2.9,0.6
		c-2.8,0-5-1.9-5-4.9c0-2.9,2.1-4.8,4.7-4.8c2.5,0,4.1,1.7,4.1,3.6C156.1,46.8,156,47.1,156,47.3z M152,45.1c-0.9,0-1.6,0.7-1.8,1.5
		h3.1c0-0.1,0-0.1,0-0.2C153.3,45.8,152.8,45.1,152,45.1z"/>
	<path class="st0" d="M165.8,47.3l-1.3,1.3H160c0.1,0.7,1.1,1.6,2.7,1.6c0.9,0,1.9-0.3,2.5-0.7l-0.3,2.5c-0.7,0.4-1.7,0.6-2.9,0.6
		c-2.8,0-5-1.9-5-4.9c0-2.9,2.1-4.8,4.7-4.8c2.5,0,4.1,1.7,4.1,3.6C165.9,46.8,165.8,47.1,165.8,47.3z M161.8,45.1
		c-0.9,0-1.6,0.7-1.8,1.5h3.1c0-0.1,0-0.1,0-0.2C163.1,45.8,162.6,45.1,161.8,45.1z"/>
	<path class="st0" d="M170.2,52.5c-1.2,0-2.1-0.3-2.9-0.6l-0.3-2.6c0.8,0.6,1.8,1,2.8,1c0.5,0,0.9-0.3,0.9-0.6
		c0-0.4-0.3-0.5-0.8-0.7c-1.7-0.5-2.8-1.4-2.8-3c0-1.8,1.4-2.9,3.4-2.9c1.1,0,2.2,0.3,2.7,0.5l-0.5,2.2c-0.4-0.2-1.2-0.5-1.9-0.5
		c-0.5,0-0.8,0.2-0.8,0.6c0,0.3,0.2,0.5,0.8,0.7c2,0.5,2.9,1.6,2.9,3.1C173.8,51.1,172.6,52.5,170.2,52.5z"/>
	<path class="st0" d="M176.6,52.6c-0.5,0-1.7-1.1-1.7-1.7c0-0.5,1.1-1.6,1.7-1.6s1.7,1.1,1.7,1.6C178.3,51.5,177.2,52.6,176.6,52.6z
		"/>
</g>
</svg>
