<?xml version="1.0" encoding="utf-8"?>
<!-- Generator: Adobe Illustrator 22.1.0, SVG Export Plug-In . SVG Version: 6.00 Build 0)  -->
<svg version="1.1" id="Layer_1" xmlns="http://www.w3.org/2000/svg" xmlns:xlink="http://www.w3.org/1999/xlink" x="0px" y="0px"
	 viewBox="0 0 300 250" style="enable-background:new 0 0 300 250;" xml:space="preserve">
<style type="text/css">
	.st0{fill:#F9E038;}
</style>
<path class="st0" d="M175.1,139.8c0,0-11,0-11,11v3.7c0,0,0,11,11,11h89.8c0,0,11,0,11-11v-3.7c0,0,0-11-11-11H175.1z"/>
<g>
	<path d="M178.3,155.5h-1.6v-6.9h2.9c0.6,0,1.2,0,1.8,0.3c0.6,0.4,0.9,1,0.9,1.7c0,0.8-0.5,1.5-1.2,1.8l1.3,3h-1.8l-1-2.7h-1.2
		V155.5z M178.3,151.6h0.9c0.3,0,0.7,0,1-0.1c0.3-0.2,0.4-0.5,0.4-0.8c0-0.3-0.2-0.6-0.4-0.7c-0.3-0.2-0.7-0.1-1-0.1h-0.8V151.6z"/>
	<path d="M184.8,150v1.4h2.6v1.3h-2.6v1.5h3.3v1.3h-4.9v-6.9h4.9v1.3H184.8z"/>
	<path d="M194.7,155.5H193l-0.4-1.4h-2.2l-0.4,1.4h-1.4l2.2-6.9h1.9L194.7,155.5z M192.2,152.8l-0.7-2.4l-0.7,2.4H192.2z"/>
	<path d="M197.4,148.6c1,0,1.8,0.1,2.6,0.8c0.7,0.7,1.1,1.6,1.1,2.6c0,0.9-0.3,1.8-0.9,2.5c-0.7,0.7-1.5,0.9-2.5,0.9h-2.3v-6.9
		H197.4z M197,154.2h0.5c0.7,0,1.1-0.1,1.5-0.7c0.3-0.4,0.4-1,0.4-1.5c0-0.5-0.2-1.1-0.5-1.5c-0.4-0.5-0.8-0.5-1.3-0.5H197V154.2z"
		/>
	<path d="M209.6,150h-1.7v5.5h-1.6V150h-1.7v-1.4h5.1V150z"/>
	<path d="M215.7,155.5h-1.6v-2.8H212v2.8h-1.6v-6.9h1.6v2.7h2.1v-2.7h1.6V155.5z"/>
	<path d="M218.6,150v1.4h2.6v1.3h-2.6v1.5h3.3v1.3H217v-6.9h4.9v1.3H218.6z"/>
	<path d="M231.5,155.5h-1.7l-0.4-1.4h-2.2l-0.4,1.4h-1.4l2.2-6.9h1.9L231.5,155.5z M229,152.8l-0.7-2.4l-0.7,2.4H229z"/>
	<path d="M233.9,155.5h-1.6v-6.9h2.9c0.6,0,1.2,0,1.8,0.3c0.6,0.4,0.9,1,0.9,1.7c0,0.8-0.5,1.5-1.2,1.8l1.3,3h-1.8l-1-2.7h-1.2
		V155.5z M233.9,151.6h0.9c0.3,0,0.7,0,1-0.1c0.3-0.2,0.4-0.5,0.4-0.8c0-0.3-0.2-0.6-0.4-0.7c-0.3-0.2-0.7-0.1-1-0.1h-0.8V151.6z"/>
	<path d="M243.4,150h-1.7v5.5h-1.6V150h-1.7v-1.4h5.1V150z"/>
	<path d="M245.9,155.5h-1.6v-6.9h1.6V155.5z"/>
	<path d="M251.1,151.3c0-0.8-0.3-1.5-1.1-1.5c-1.1,0-1.2,1.5-1.2,2.3c0,0.9,0.1,2.1,1.3,2.1c0.8,0,1.1-0.6,1.2-1.3l1.6,0.1
		c-0.2,1.6-1.2,2.5-2.8,2.5c-2,0-3-1.7-3-3.5c0-1.9,1-3.5,3.1-3.5c1.7,0,2.6,1,2.8,2.6L251.1,151.3z"/>
	<path d="M258.2,154.1v1.4h-4.4v-6.9h1.6v5.5H258.2z"/>
	<path d="M260.4,150v1.4h2.6v1.3h-2.6v1.5h3.3v1.3h-4.9v-6.9h4.9v1.3H260.4z"/>
</g>
</svg>
