<?xml version="1.0" encoding="utf-8"?>
<!-- Generator: Adobe Illustrator 22.1.0, SVG Export Plug-In . SVG Version: 6.00 Build 0)  -->
<svg version="1.1" id="Layer_1" xmlns="http://www.w3.org/2000/svg" xmlns:xlink="http://www.w3.org/1999/xlink" x="0px" y="0px"
	 viewBox="0 0 300 250" style="enable-background:new 0 0 300 250;" xml:space="preserve">
<style type="text/css">
	.st0{opacity:0.25;clip-path:url(#SVGID_2_);}
	.st1{clip-path:url(#SVGID_4_);}
	.st2{clip-path:url(#SVGID_6_);fill:#0A0F0F;}
	.st3{clip-path:url(#SVGID_2_);fill:#FFFFFF;}
	.st4{clip-path:url(#SVGID_8_);fill:url(#SVGID_9_);}
	.st5{clip-path:url(#SVGID_11_);fill:url(#SVGID_12_);}
	.st6{clip-path:url(#SVGID_14_);fill:url(#SVGID_15_);}
	.st7{clip-path:url(#SVGID_17_);fill:url(#SVGID_18_);}
	.st8{clip-path:url(#SVGID_20_);fill:url(#SVGID_21_);}
	.st9{clip-path:url(#SVGID_20_);fill:#973B21;}
	.st10{clip-path:url(#SVGID_23_);fill:url(#SVGID_24_);}
	.st11{clip-path:url(#SVGID_26_);fill:url(#SVGID_27_);}
	.st12{clip-path:url(#SVGID_29_);fill:#F6A9C3;}
	.st13{opacity:0.5;clip-path:url(#SVGID_29_);}
	.st14{clip-path:url(#SVGID_31_);}
	.st15{clip-path:url(#SVGID_33_);fill:#FFFFFF;}
	.st16{clip-path:url(#SVGID_29_);fill:#3A3030;}
	.st17{clip-path:url(#SVGID_29_);fill:#D1758A;}
	.st18{clip-path:url(#SVGID_29_);}
	.st19{clip-path:url(#SVGID_29_);fill-rule:evenodd;clip-rule:evenodd;fill:#FFCB12;}
	.st20{clip-path:url(#SVGID_29_);fill-rule:evenodd;clip-rule:evenodd;fill:#EFB535;}
	.st21{clip-path:url(#SVGID_29_);fill-rule:evenodd;clip-rule:evenodd;fill:#FEEBA7;}
	.st22{clip-path:url(#SVGID_29_);fill:#FFCB12;}
	.st23{opacity:0.53;clip-path:url(#SVGID_35_);}
	.st24{clip-path:url(#SVGID_37_);}
	.st25{filter:url(#Adobe_OpacityMaskFilter);}
	.st26{clip-path:url(#SVGID_39_);fill:url(#SVGID_41_);}
	.st27{clip-path:url(#SVGID_39_);mask:url(#SVGID_40_);fill:url(#SVGID_42_);}
	.st28{clip-path:url(#SVGID_44_);}
	.st29{filter:url(#Adobe_OpacityMaskFilter_1_);}
	.st30{clip-path:url(#SVGID_46_);}
	.st31{clip-path:url(#SVGID_49_);fill:url(#SVGID_50_);}
	.st32{clip-path:url(#SVGID_46_);mask:url(#SVGID_47_);fill:url(#SVGID_51_);}
	.st33{clip-path:url(#SVGID_53_);}
	.st34{filter:url(#Adobe_OpacityMaskFilter_2_);}
	.st35{clip-path:url(#SVGID_55_);}
	.st36{clip-path:url(#SVGID_58_);fill:url(#SVGID_59_);}
	.st37{clip-path:url(#SVGID_55_);mask:url(#SVGID_56_);fill:url(#SVGID_60_);}
	.st38{clip-path:url(#SVGID_62_);}
	.st39{clip-path:url(#SVGID_64_);}
	.st40{filter:url(#Adobe_OpacityMaskFilter_3_);}
	.st41{clip-path:url(#SVGID_66_);fill:url(#SVGID_68_);}
	.st42{clip-path:url(#SVGID_66_);mask:url(#SVGID_67_);fill:url(#SVGID_69_);}
	.st43{opacity:0.53;clip-path:url(#SVGID_71_);}
	.st44{clip-path:url(#SVGID_73_);}
	.st45{clip-path:url(#SVGID_75_);fill:url(#SVGID_76_);}
	.st46{clip-path:url(#SVGID_71_);}
	.st47{clip-path:url(#SVGID_78_);}
	.st48{filter:url(#Adobe_OpacityMaskFilter_4_);}
	.st49{clip-path:url(#SVGID_80_);fill:url(#SVGID_82_);}
	.st50{clip-path:url(#SVGID_80_);mask:url(#SVGID_81_);fill:url(#SVGID_83_);}
</style>
<g>
	<defs>
		<rect id="SVGID_1_" x="16.5" y="99.5" width="109.6" height="109.6"/>
	</defs>
	<clipPath id="SVGID_2_">
		<use xlink:href="#SVGID_1_"  style="overflow:visible;"/>
	</clipPath>
	<g class="st0">
		<g>
			<defs>
				<rect id="SVGID_3_" x="16.5" y="124.5" width="84.6" height="84.6"/>
			</defs>
			<clipPath id="SVGID_4_">
				<use xlink:href="#SVGID_3_"  style="overflow:visible;"/>
			</clipPath>
			<g class="st1">
				<defs>
					<rect id="SVGID_5_" x="16.5" y="124.5" width="84.6" height="84.6"/>
				</defs>
				<clipPath id="SVGID_6_">
					<use xlink:href="#SVGID_5_"  style="overflow:visible;"/>
				</clipPath>
				<path class="st2" d="M101.1,200c-4.3,4.2-10.1,6.8-16.6,6.8H18.9v-65.6c0-6.4,2.6-12.3,6.8-16.6l-2.4,2.4
					c-4.2,4.3-6.8,10.1-6.8,16.6v65.7h65.6c6.5,0,12.4-2.6,16.7-6.9L101.1,200z"/>
			</g>
		</g>
	</g>
	<path class="st3" d="M62.5,99.5c-8,0-15.5,3.1-21.3,8.9c-5.7,5.7-8.9,13.2-8.9,21.1v63.7H96c16.6,0,30.1-13.5,30.1-30.1V99.5H62.5z
		"/>
</g>
<g>
	<defs>
		<path id="SVGID_7_" d="M96,193.2H32.4l-13.6,13.6h65.6c6.4,0,12.3-2.6,16.6-6.8l10-10l-0.5-0.5C106.2,191.8,101.3,193.2,96,193.2"
			/>
	</defs>
	<clipPath id="SVGID_8_">
		<use xlink:href="#SVGID_7_"  style="overflow:visible;"/>
	</clipPath>
	
		<linearGradient id="SVGID_9_" gradientUnits="userSpaceOnUse" x1="1.0577" y1="270.9704" x2="2.0577" y2="270.9704" gradientTransform="matrix(0 -17.3256 -17.3256 0 4759.6772 225.2041)">
		<stop  offset="0" style="stop-color:#14B1E7"/>
		<stop  offset="0.1106" style="stop-color:#14ADE2"/>
		<stop  offset="0.2553" style="stop-color:#13A3D8"/>
		<stop  offset="0.419" style="stop-color:#0E92C9"/>
		<stop  offset="0.5966" style="stop-color:#087CB6"/>
		<stop  offset="0.7835" style="stop-color:#0064A1"/>
		<stop  offset="0.89" style="stop-color:#005495"/>
		<stop  offset="1" style="stop-color:#005495"/>
	</linearGradient>
	<rect x="18.9" y="189.5" class="st4" width="92.2" height="17.2"/>
</g>
<g>
	<defs>
		<path id="SVGID_10_" d="M25.6,124.5c-4.2,4.3-6.8,10.1-6.8,16.6v65.6l13.6-13.6v-63.7c0-5.1,1.3-10,3.7-14.3l-0.5-0.5L25.6,124.5z
			"/>
	</defs>
	<clipPath id="SVGID_11_">
		<use xlink:href="#SVGID_10_"  style="overflow:visible;"/>
	</clipPath>
	
		<linearGradient id="SVGID_12_" gradientUnits="userSpaceOnUse" x1="1.0108" y1="254.738" x2="2.0108" y2="254.738" gradientTransform="matrix(0 -92.5641 -92.5641 0 23607.0938 301.048)">
		<stop  offset="0" style="stop-color:#0082BD"/>
		<stop  offset="0.2182" style="stop-color:#0078B4"/>
		<stop  offset="0.6558" style="stop-color:#00609E"/>
		<stop  offset="0.85" style="stop-color:#005495"/>
		<stop  offset="1" style="stop-color:#005495"/>
	</linearGradient>
	<rect x="18.9" y="114.6" class="st5" width="17.3" height="92.1"/>
</g>
<g>
	<defs>
		<path id="SVGID_13_" d="M96,193.2H32.4l-13.6,13.6h65.6c6.4,0,12.3-2.6,16.6-6.8l10-10l-0.5-0.5C106.2,191.8,101.3,193.2,96,193.2
			"/>
	</defs>
	<clipPath id="SVGID_14_">
		<use xlink:href="#SVGID_13_"  style="overflow:visible;"/>
	</clipPath>
	
		<linearGradient id="SVGID_15_" gradientUnits="userSpaceOnUse" x1="-2.7955" y1="251.011" x2="-1.7955" y2="251.011" gradientTransform="matrix(91.1606 0 0 -91.1606 274.0551 23080.4297)">
		<stop  offset="0" style="stop-color:#14B1E7"/>
		<stop  offset="0.1118" style="stop-color:#14ADE2"/>
		<stop  offset="0.2581" style="stop-color:#13A3D8"/>
		<stop  offset="0.4237" style="stop-color:#0E92C9"/>
		<stop  offset="0.6033" style="stop-color:#087CB6"/>
		<stop  offset="0.7923" style="stop-color:#0064A1"/>
		<stop  offset="0.9" style="stop-color:#005495"/>
		<stop  offset="1" style="stop-color:#005495"/>
	</linearGradient>
	<rect x="18.9" y="189.5" class="st6" width="92.2" height="17.2"/>
</g>
<g>
	<defs>
		<path id="SVGID_16_" d="M25.6,124.5c-4.2,4.3-6.8,10.1-6.8,16.6v65.6l13.6-13.6v-63.7c0-5.1,1.3-10,3.7-14.3l-0.5-0.5L25.6,124.5z
			"/>
	</defs>
	<clipPath id="SVGID_17_">
		<use xlink:href="#SVGID_16_"  style="overflow:visible;"/>
	</clipPath>
	
		<linearGradient id="SVGID_18_" gradientUnits="userSpaceOnUse" x1="1.0108" y1="254.738" x2="2.0108" y2="254.738" gradientTransform="matrix(0 -92.5641 -92.5641 0 23607.0938 301.048)">
		<stop  offset="0" style="stop-color:#0082BD"/>
		<stop  offset="0.2182" style="stop-color:#0078B4"/>
		<stop  offset="0.6558" style="stop-color:#00609E"/>
		<stop  offset="0.85" style="stop-color:#005495"/>
		<stop  offset="1" style="stop-color:#005495"/>
	</linearGradient>
	<rect x="18.9" y="114.6" class="st7" width="17.3" height="92.1"/>
</g>
<g>
	<defs>
		<path id="SVGID_19_" d="M62.5,103.3c-14.4,0-26.3,11.9-26.3,26.2v59.9H96c14.5,0,26.3-11.8,26.3-26.3v-59.8H62.5z"/>
	</defs>
	<clipPath id="SVGID_20_">
		<use xlink:href="#SVGID_19_"  style="overflow:visible;"/>
	</clipPath>
	
		<linearGradient id="SVGID_21_" gradientUnits="userSpaceOnUse" x1="-1.0086" y1="253.0204" x2="-8.607995e-03" y2="253.0204" gradientTransform="matrix(85.8804 -85.8804 -85.8804 -85.8804 21852.6152 21831.9629)">
		<stop  offset="0" style="stop-color:#68CEF6"/>
		<stop  offset="0.2641" style="stop-color:#4EA9DE"/>
		<stop  offset="0.6044" style="stop-color:#2E86C5"/>
		<stop  offset="0.8602" style="stop-color:#1373B8"/>
		<stop  offset="1" style="stop-color:#016CB3"/>
		<stop  offset="1" style="stop-color:#016CB3"/>
	</linearGradient>
	<polygon class="st8" points="-6.8,146.3 79.3,60.2 165.4,146.3 79.3,232.4 	"/>
	<rect x="28.3" y="181.5" class="st9" width="97" height="24"/>
</g>
<g>
	<defs>
		<path id="SVGID_22_" d="M75.2,185.8c0,1.6,7.8,2.8,17.4,2.8c5,0,9.4-0.3,12.6-0.9c1.6-0.6,3.2-1.4,4.7-2.3
			c-1-1.4-8.3-2.5-17.3-2.5C83,182.9,75.2,184.2,75.2,185.8"/>
	</defs>
	<clipPath id="SVGID_23_">
		<use xlink:href="#SVGID_22_"  style="overflow:visible;"/>
	</clipPath>
	
		<radialGradient id="SVGID_24_" cx="-27.8068" cy="251.2964" r="1" gradientTransform="matrix(12.0111 0 0 -3.3735 426.4005 1033.3169)" gradientUnits="userSpaceOnUse">
		<stop  offset="0" style="stop-color:#75301A"/>
		<stop  offset="0.3385" style="stop-color:#78311A"/>
		<stop  offset="0.6122" style="stop-color:#80331C"/>
		<stop  offset="0.8625" style="stop-color:#8D381F"/>
		<stop  offset="1" style="stop-color:#973B21"/>
	</radialGradient>
	<rect x="75.2" y="182.9" class="st10" width="34.6" height="5.7"/>
</g>
<g>
	<defs>
		<path id="SVGID_25_" d="M44.9,185.8c0,1.5,7.6,2.7,17,2.7s17-1.2,17-2.7c0-1.5-7.6-2.7-17-2.7S44.9,184.3,44.9,185.8"/>
	</defs>
	<clipPath id="SVGID_26_">
		<use xlink:href="#SVGID_25_"  style="overflow:visible;"/>
	</clipPath>
	
		<radialGradient id="SVGID_27_" cx="-28.4619" cy="251.3154" r="1" gradientTransform="matrix(11.744 0 0 -3.1707 396.0188 982.4319)" gradientUnits="userSpaceOnUse">
		<stop  offset="0" style="stop-color:#75301A"/>
		<stop  offset="0.3385" style="stop-color:#78311A"/>
		<stop  offset="0.6122" style="stop-color:#80331C"/>
		<stop  offset="0.8625" style="stop-color:#8D381F"/>
		<stop  offset="1" style="stop-color:#973B21"/>
	</radialGradient>
	<rect x="44.9" y="183.1" class="st11" width="34" height="5.3"/>
</g>
<g>
	<defs>
		<rect id="SVGID_28_" x="16.5" y="99.5" width="109.6" height="109.6"/>
	</defs>
	<clipPath id="SVGID_29_">
		<use xlink:href="#SVGID_28_"  style="overflow:visible;"/>
	</clipPath>
	<path class="st12" d="M118,155.1c-0.1-1.3-1.7-1.7-2.7-2.2c-3.9-1.9-3.5-6.7-5-10.2c-1.2-2.9-3-5.5-5.1-7.7
		c-2.3-2.7-3.2-3.6-10.8-7.6c-5.8-2.6-12.2-3.9-18.5-3.9c-15.6,0-28.8,7.5-34,18.1c-0.3,0.7-0.6,1.3-0.9,2c-0.9,2.5-1.4,5.1-1.4,7.7
		c0,0.6,0,1.1,0.1,1.7c3.8,3.9,7.7,6.8,11.6,9c1,0.5,2,1,3,1.5c1.3,0.6,2.5,1,3.8,1.5c0.8,0.3,1.5,0.5,2.3,0.7c1,0.3,2,0.5,3,0.7
		c0.8,0.2,1.5,0.3,2.3,0.4c-0.8-0.1-1.5-0.2-2.3-0.4c-1-0.2-2-0.4-3-0.7c-0.8-0.2-1.5-0.4-2.3-0.7c-1.3-0.4-2.5-0.9-3.8-1.5
		c-1-0.4-2-0.9-3-1.5c-4-2.2-7.9-5.1-11.6-9c0.2,1.9,0.6,3.8,1.2,5.6l0,0c2.6,9,14.7,27.2,17.2,27.2h8c1.1,0,1.8-0.4,2.3-1
		c0.6-0.8,0.8-2,0.8-3.2c0-0.7-0.3-3.4-0.1-4.1c0-0.2,0.1-1.2,0.2-1.4c0,0,0,0,0,0c2.1,0.3,4.3,0.9,6.5,0.9c2.7,0,5.3-0.2,7.9-0.7
		c0.5,2.3,1.6,9.5,3.9,9.5c0,0,7.3,0,7.3,0c1,0,3.6-0.4,4.2-1.1c0.2-0.3,0.4-0.8,0.5-1.2c0.4-2.6-0.1-5.2-0.2-7.7c0-0.3,0-0.7,0-1
		c0-0.5,0.1-0.9,0.3-1.3c0.2-0.6,0.7-1.1,1.1-1.6c0.9-0.7,1.8-1.4,2.6-2.2c2.4-2.4,3-3.1,6.4-3.9c2.1-0.5,4.1-1.5,6-2.4
		c0.9-0.5,1.3-1.2,1.3-2.2c0,0,0-0.1,0-0.1c0-1.3,0-2.4,0.5-3.7C117.8,156.5,118.1,155.8,118,155.1 M68.6,167.1
		c1.2,0.1,2.5,0.1,3.7,0.2C71.1,167.2,69.9,167.2,68.6,167.1 M98.2,161.8c-0.2,0.1-0.5,0.2-0.7,0.3c-3.4,1.3-7.1,2.5-11.1,3.5
		c-1.6,0.4-3.1,0.7-4.8,1c-0.7,0.1-1.4,0.2-2.1,0.3c-1.2,0.2-2.4,0.3-3.6,0.3c-0.5,0-1,0.1-1.5,0.1c0.5,0,1,0,1.5-0.1
		c1.2-0.1,2.4-0.2,3.6-0.3c0.7-0.1,1.4-0.2,2.1-0.3c1.6-0.3,3.2-0.6,4.8-1c4.1-1,7.9-2.2,11.1-3.4C97.8,162,98,161.9,98.2,161.8
		c2.9-1.1,5.9-2.4,8.9-2.8C104.1,159.4,101.1,160.7,98.2,161.8 M108.6,158.8c0.4,0,0.7,0,1.1,0C109.3,158.8,108.9,158.8,108.6,158.8
		 M114,159.7c-0.4-0.1-0.7-0.2-1.1-0.3c-0.7-0.2-1.4-0.3-2.1-0.4c0.7,0.1,1.4,0.2,2.1,0.4C113.3,159.4,113.6,159.5,114,159.7
		c0.4,0.1,0.7,0.2,1,0.4C114.7,159.9,114.3,159.8,114,159.7"/>
	<path class="st12" d="M40.6,144.3c-0.8-0.5-1.4-1.2-1.8-2.2c1.8-0.8,3.2-2.1,4.4-3.9c0.9-1.5,1-3.2,0.2-4.4
		c-0.4-0.6-1.5-1.6-3.8-1.4c-1.2,0.1-2.2,0.6-2.9,1.5c-1.4,1.6-1.6,4-1.4,5.7c0,0.3,0.1,0.5,0.1,0.8c-1.4,0.1-2.5,0-3.9-0.3
		c-0.6-0.1-1.4-0.5-2-0.7l-4.2-2c1.8,2.3,8.2,5.7,10.8,5.4c0.6,1.6,1.6,2.8,2.9,3.6c1,0.6,2.1,0.9,3.2,1.1c0.3-0.9,0.6-1.7,1.1-2.5
		C42.4,145,41.4,144.8,40.6,144.3 M38.1,139.2c-0.1-1.2,0.1-2.9,0.8-3.8c0.3-0.3,0.6-0.5,1-0.5c0.1,0,0.2,0,0.2,0
		c0.4,0,0.5,0.1,0.6,0.3c0.2,0.3,0.2,1.1-0.2,1.8c-0.8,1.2-1.4,2-2.5,2.6C38.1,139.5,38.1,139.3,38.1,139.2"/>
	<g class="st13">
		<g>
			<defs>
				<rect id="SVGID_30_" x="44.3" y="128.8" width="18.8" height="18.9"/>
			</defs>
			<clipPath id="SVGID_31_">
				<use xlink:href="#SVGID_30_"  style="overflow:visible;"/>
			</clipPath>
			<g class="st14">
				<defs>
					<rect id="SVGID_32_" x="44.3" y="128.8" width="18.8" height="18.9"/>
				</defs>
				<clipPath id="SVGID_33_">
					<use xlink:href="#SVGID_32_"  style="overflow:visible;"/>
				</clipPath>
				<path class="st15" d="M51.5,134.1c-4.4,3.7-5.8,6.3-6.8,9.8c-0.1,0.4-0.2,0.9-0.3,1.3c-0.1,0.9-0.2,1.7-0.2,2.6c0,0,0-0.1,0-0.1
					c1.1-4,3.7-7.4,7.8-10.5c3-2.3,7.7-4.8,11-5.6c-1.5-0.9-1.8-1.9-1.9-2.7C61.2,128.8,55.1,131.1,51.5,134.1"/>
			</g>
		</g>
	</g>
	<path class="st16" d="M104.7,145.2c-1.1,0.2-1.7,1.5-1.4,3c0.3,1.5,1.3,2.6,2.4,2.4c1.1-0.2,1.7-1.5,1.4-3
		C106.8,146.1,105.8,145,104.7,145.2"/>
	<path class="st12" d="M90.8,130.1c2.5,4.2,7.1,6.2,11.1,4.8c0.4-0.2,0.7-0.6,0.6-1c-0.2-1.7-0.3-3.4,0.1-4.9
		c0.3-1.4,1.1-2.8,2.3-4.2c0.9-1-0.4-2.6-1.9-2.8c-1.6-0.3-3.3,0.1-4.5,0.9c-4.1,2.9-7.1,6-7.4,6.3
		C90.7,129.6,90.5,129.7,90.8,130.1"/>
	<path class="st17" d="M97,132.4c1.1-1,2.6-1.7,4.1-1.8c-0.1-0.5-0.2-0.9-0.1-1.3c0.2-1.5,1-2.3,1.9-3.5c0.2-0.2,0.5-0.8,0.6-1.1
		c0.4-1.1-1.7-1.1-2.4-1c-1.6,0.4-3.4,1.7-4.6,3.4C95.3,128.9,95.4,131.1,97,132.4"/>
	<path class="st18" d="M84,126.4c-4.2-1.4-12.4-1.3-16.6,0.2c-0.7,0.3-1,1-0.5,1.5l0,0c0.4,0.4,1,0.5,1.6,0.3
		c3.4-1.3,11.1-1.6,14.5-0.2c0.5,0.2,1.2,0.1,1.5-0.3l0,0C85.1,127.5,84.8,126.7,84,126.4"/>
	<path class="st19" d="M69.9,128.2c2.1-0.5,4.2-0.8,6.3-0.8c1.8,0,3.6,0.2,5.3,0.6c2.4-1.8,3.9-4.6,3.9-7.9c0-5.5-4.4-9.9-9.9-9.9
		s-9.9,4.4-9.9,9.9C65.7,123.5,67.3,126.5,69.9,128.2"/>
	<path class="st20" d="M71,128c1.7-0.4,3.5-0.5,5.2-0.5c1.3,0,2.6,0.1,3.9,0.3c2.5-1.6,4.2-4.4,4.2-7.6c0-5-4-9-9-9c-5,0-9,4-9,9
		C66.4,123.5,68.3,126.4,71,128"/>
	<path class="st21" d="M71.5,127.9c1.6-0.3,3.2-0.5,4.7-0.5c1.5,0,2.9,0.1,4.3,0.4c2.5-1.6,4.2-4.4,4.2-7.6c0-5-3.9-9-8.8-9
		c-4.9,0-8.8,4-8.8,9C67.1,123.5,68.9,126.3,71.5,127.9"/>
	<path class="st22" d="M71.2,127.9c1.7-0.3,3.3-0.5,5-0.5c1.3,0,2.7,0.1,3.9,0.3c2.5-1.6,4.1-4.4,4.1-7.6c0-5-3.9-9-8.8-9
		c-4.9,0-8.8,4-8.8,9C66.7,123.5,68.6,126.4,71.2,127.9"/>
	<path class="st20" d="M73.6,127.6c0.9-0.1,1.8-0.1,2.6-0.1c0.6,0,1.3,0,1.9,0.1c3.1-1,5.4-3.9,5.4-7.4c0-4.3-3.1-7.7-7.7-7.7
		c-4.3,0-7.7,3.5-7.7,7.7C68,123.7,70.4,126.6,73.6,127.6"/>
	<path class="st21" d="M73.4,127.6c0.9-0.1,1.9-0.2,2.8-0.2c0.5,0,1,0,1.6,0.1c3-1,5.2-3.9,5.2-7.3c0-4.3-3.4-7.7-7.6-7.7
		c-4.2,0-7.6,3.5-7.6,7.7C67.8,123.7,70.2,126.7,73.4,127.6"/>
	<path class="st19" d="M73.6,127.6c0.9-0.1,1.8-0.1,2.6-0.1c0.6,0,1.2,0,1.8,0.1c3-1,5.2-3.9,5.2-7.4c0-4.3-3.4-7.7-7.5-7.7
		c-4.2,0-7.5,3.5-7.5,7.7C68.2,123.7,70.5,126.6,73.6,127.6"/>
</g>
<g>
	<defs>
		<path id="SVGID_34_" d="M76,167.1c1.2-0.1,2.4-0.2,3.6-0.3c0.7-0.1,1.4-0.2,2.1-0.3c1.6-0.3,3.2-0.6,4.8-1c4.1-1,7.9-2.2,11.1-3.5
			c0.2-0.1,0.5-0.2,0.7-0.3c2.9-1.1,5.9-2.4,8.9-2.8c-3.1,0.4-6,1.7-8.9,2.8c-0.2,0.1-0.4,0.2-0.7,0.3c-3.4,1.3-7.1,2.5-11.1,3.5
			c-1.6,0.4-3.1,0.7-4.8,1c-0.7,0.1-1.4,0.2-2.1,0.3C78.4,166.9,77.2,167,76,167.1c-0.5,0-1,0.1-1.5,0.1
			C75,167.2,75.5,167.1,76,167.1 M108.8,158.8c-0.1,0-0.1,0-0.2,0C108.6,158.8,108.7,158.8,108.8,158.8 M109,158.8L109,158.8
			L109,158.8z M41.9,141.6c-0.3,0.7-0.6,1.3-0.9,2c-0.9,2.5-1.4,5.1-1.4,7.7c0,0.6,0,1.1,0.1,1.7c0.2,1.9,0.6,3.8,1.2,5.6h0
			c2.6,9,14.6,27.2,17.2,27.2h8c1.1,0,1.8-0.4,2.3-1c0.6-0.8,0.8-2,0.8-3.2c0-0.7-0.3-3.4-0.1-4.1c0-0.2,0.1-1.2,0.2-1.4
			c0,0,0,0,0,0c2.1,0.3,4.3,0.9,6.5,0.9c2.7,0,5.3-0.2,7.9-0.7c0.4,2.3,1.6,9.5,3.9,9.5c0,0,7.3,0,7.3,0c1,0,3.6-0.4,4.2-1.1
			c0.2-0.3,0.4-0.8,0.5-1.2c0.4-2.6-0.1-5.2-0.2-7.7c0-0.3,0-0.7,0-1c0-0.5,0.1-0.9,0.3-1.3c0.2-0.6,0.7-1.1,1.1-1.6
			c0.9-0.7,1.8-1.4,2.6-2.2c2.4-2.4,3-3.1,6.4-3.9c2.1-0.5,4.1-1.5,6-2.4c0.9-0.5,1.3-1.2,1.3-2.2c0,0,0-0.1,0-0.1
			c0-1.3,0-2.4,0.5-3.7c0.2-0.7,0.5-1.4,0.4-2.1c-0.1-1.3-1.7-1.7-2.7-2.2c-3.9-1.9-3.5-6.7-5-10.2c-1.2-2.9-3-5.5-5.1-7.7
			c-2.3-2.7-3.2-3.6-10.8-7.6c-5.8-2.6-12.2-3.9-18.5-3.9C60.3,123.4,47.1,131,41.9,141.6"/>
	</defs>
	<clipPath id="SVGID_35_">
		<use xlink:href="#SVGID_34_"  style="overflow:visible;"/>
	</clipPath>
	<g class="st23">
		<g>
			<defs>
				<rect id="SVGID_36_" x="39.6" y="153" width="77.5" height="32.9"/>
			</defs>
			<clipPath id="SVGID_37_">
				<use xlink:href="#SVGID_36_"  style="overflow:visible;"/>
			</clipPath>
			<g class="st24">
				<defs>
					<path id="SVGID_38_" d="M39.6,153c0.2,1.9,0.6,3.8,1.2,5.6l0,0c0.9,3,2.8,7,5,11c4.5,8.1,10.5,16.3,12.2,16.3h8.1
						c0.7,0,1.8-0.3,2.1-0.8c1.9-2,0.3-6.1,0.8-7.7c0-0.2,0.1-1.1,0.2-1.3c0,0,0,0,0,0c2.1,0.3,4.3,0.9,6.5,0.9c2.7,0,5.3-0.2,8-0.7
						c0.5,2.3,1.6,9.5,3.9,9.5c0,0,7.3,0,7.3,0c1,0,3.6-0.4,4.2-1.2c1.4-2.7,0.2-6.7,0.3-8.7c0-0.1-0.1-1.2,0-1.2
						c0-0.5,0.1-0.9,0.3-1.3c0.2-0.6,0.7-1.1,1.1-1.6c0.9-0.7,1.8-1.4,2.6-2.2c2.4-2.4,3-3.1,6.4-3.9c2.1-0.5,4.1-1.5,6-2.4
						c0.9-0.5,1.3-1.2,1.3-2.2c0,0,0-0.1,0-0.1c-2.7-1.2-5.6-2.1-8.5-2c-3.9,0.1-7.5,1.8-11.1,3.2c-3.4,1.3-7.1,2.5-11.1,3.5
						C72.2,168.9,54.7,168.6,39.6,153z"/>
				</defs>
				<clipPath id="SVGID_39_">
					<use xlink:href="#SVGID_38_"  style="overflow:visible;"/>
				</clipPath>
				<defs>
					<filter id="Adobe_OpacityMaskFilter" filterUnits="userSpaceOnUse" x="39.6" y="153" width="77.5" height="32.9">
						<feColorMatrix  type="matrix" values="1 0 0 0 0  0 1 0 0 0  0 0 1 0 0  0 0 0 1 0"/>
					</filter>
				</defs>
				<mask maskUnits="userSpaceOnUse" x="39.6" y="153" width="77.5" height="32.9" id="SVGID_40_">
					<g class="st25">
						
							<linearGradient id="SVGID_41_" gradientUnits="userSpaceOnUse" x1="0.9491" y1="233.381" x2="1.9491" y2="233.381" gradientTransform="matrix(0 19.6379 19.6379 0 -4504.7168 140.5842)">
							<stop  offset="0" style="stop-color:#B3B3B3"/>
							<stop  offset="1" style="stop-color:#FFFFFF"/>
						</linearGradient>
						<rect x="39.6" y="153" class="st26" width="77.5" height="32.9"/>
					</g>
				</mask>
				
					<linearGradient id="SVGID_42_" gradientUnits="userSpaceOnUse" x1="0.9491" y1="233.381" x2="1.9491" y2="233.381" gradientTransform="matrix(0 19.6379 19.6379 0 -4504.7168 140.5841)">
					<stop  offset="0" style="stop-color:#F6A9C3"/>
					<stop  offset="1" style="stop-color:#B05F73"/>
				</linearGradient>
				<rect x="39.6" y="153" class="st27" width="77.5" height="32.9"/>
			</g>
		</g>
	</g>
	<g class="st23">
		<g>
			<defs>
				<rect id="SVGID_43_" x="90.2" y="174.3" width="9.6" height="10.5"/>
			</defs>
			<clipPath id="SVGID_44_">
				<use xlink:href="#SVGID_43_"  style="overflow:visible;"/>
			</clipPath>
			<g class="st28">
				<defs>
					<path id="SVGID_45_" d="M99.1,174.4c-2.9,0.5-6.2,1.1-8.5,3c-0.4,0.3-0.5,0.9-0.5,1.5v0.1c0,0.7,0.2,1.6,0.2,2.1
						c0.1,1.1,0.3,2.6,1.4,3.2c0.2,0.1,0.4,0.2,0.7,0.2c1.5,0.3,5,0.7,6.9-0.2c0.7-1.3,0.6-3.8,0.2-7.2c-0.1-0.9-0.1-1.8-0.1-2.8
						C99.3,174.3,99.2,174.3,99.1,174.4"/>
				</defs>
				<clipPath id="SVGID_46_">
					<use xlink:href="#SVGID_45_"  style="overflow:visible;"/>
				</clipPath>
				<defs>
					<filter id="Adobe_OpacityMaskFilter_1_" filterUnits="userSpaceOnUse" x="88.3" y="172.6" width="13.6" height="14.3">
						<feColorMatrix  type="matrix" values="1 0 0 0 0  0 1 0 0 0  0 0 1 0 0  0 0 0 1 0"/>
					</filter>
				</defs>
				<mask maskUnits="userSpaceOnUse" x="88.3" y="172.6" width="13.6" height="14.3" id="SVGID_47_">
					<g class="st29">
						<g>
							<defs>
								
									<rect id="SVGID_48_" x="88.7" y="173.8" transform="matrix(0.177 -0.9842 0.9842 0.177 -98.7963 241.3262)" width="12.5" height="12"/>
							</defs>
							<clipPath id="SVGID_49_" class="st30">
								<use xlink:href="#SVGID_48_"  style="overflow:visible;"/>
							</clipPath>
							
								<linearGradient id="SVGID_50_" gradientUnits="userSpaceOnUse" x1="-76.9979" y1="237.0784" x2="-75.9979" y2="237.0784" gradientTransform="matrix(4.2991 0.7735 0.7735 -4.2991 239.5728 1258.0015)">
								<stop  offset="0" style="stop-color:#000000"/>
								<stop  offset="0.1645" style="stop-color:#414141"/>
								<stop  offset="0.3291" style="stop-color:#7A7A7A"/>
								<stop  offset="0.4889" style="stop-color:#AAAAAA"/>
								<stop  offset="0.6396" style="stop-color:#CFCFCF"/>
								<stop  offset="0.7792" style="stop-color:#E9E9E9"/>
								<stop  offset="0.9033" style="stop-color:#F9F9F9"/>
								<stop  offset="0.9995" style="stop-color:#FFFFFF"/>
								<stop  offset="1" style="stop-color:#FFFFFF"/>
							</linearGradient>
							<polygon class="st31" points="88.4,170.1 104.4,173 101.5,189.4 85.4,186.5 							"/>
						</g>
					</g>
				</mask>
				
					<linearGradient id="SVGID_51_" gradientUnits="userSpaceOnUse" x1="-76.9979" y1="237.0859" x2="-75.9979" y2="237.0859" gradientTransform="matrix(4.2991 0.7735 0.7735 -4.2991 239.5728 1258.0015)">
					<stop  offset="0" style="stop-color:#F393AA"/>
					<stop  offset="0.3074" style="stop-color:#F5A1B8"/>
					<stop  offset="0.6968" style="stop-color:#F6AEC6"/>
					<stop  offset="0.9995" style="stop-color:#F7B3CC"/>
					<stop  offset="1" style="stop-color:#F7B3CC"/>
				</linearGradient>
				<polygon class="st32" points="90.5,172.6 101.9,174.7 99.7,186.9 88.3,184.8 				"/>
			</g>
		</g>
	</g>
	<g class="st23">
		<g>
			<defs>
				<rect id="SVGID_52_" x="59.2" y="177" width="10" height="8.4"/>
			</defs>
			<clipPath id="SVGID_53_">
				<use xlink:href="#SVGID_52_"  style="overflow:visible;"/>
			</clipPath>
			<g class="st33">
				<defs>
					<path id="SVGID_54_" d="M59.8,179.6c-0.4,0.5-0.7,1.5-0.7,2.4v0.1c0,1.3,0.5,2.6,1.5,2.9c1.5,0.5,4.9,0.4,6.4,0.2
						c1.1-0.1,1.4-0.2,1.9-1.9c0,0,0.1-1.1,0.1-1.3v0c-0.1-2.3-0.3-3.4-0.1-4.6c-0.4-0.2-1.2-0.3-2.3-0.3
						C64.6,177,61.4,177.6,59.8,179.6"/>
				</defs>
				<clipPath id="SVGID_55_">
					<use xlink:href="#SVGID_54_"  style="overflow:visible;"/>
				</clipPath>
				<defs>
					<filter id="Adobe_OpacityMaskFilter_2_" filterUnits="userSpaceOnUse" x="57.7" y="175.3" width="13" height="12">
						<feColorMatrix  type="matrix" values="1 0 0 0 0  0 1 0 0 0  0 0 1 0 0  0 0 0 1 0"/>
					</filter>
				</defs>
				<mask maskUnits="userSpaceOnUse" x="57.7" y="175.3" width="13" height="12" id="SVGID_56_">
					<g class="st34">
						<g>
							<defs>
								
									<rect id="SVGID_57_" x="58.7" y="175.3" transform="matrix(0.1778 -0.9841 0.9841 0.1778 -125.6336 211.9349)" width="10.5" height="11.8"/>
							</defs>
							<clipPath id="SVGID_58_" class="st35">
								<use xlink:href="#SVGID_57_"  style="overflow:visible;"/>
							</clipPath>
							
								<linearGradient id="SVGID_59_" gradientUnits="userSpaceOnUse" x1="-41.9601" y1="243.3481" x2="-40.9601" y2="243.3481" gradientTransform="matrix(7.8033 1.4102 1.4102 -7.8033 43.9772 2138.4763)">
								<stop  offset="0" style="stop-color:#000000"/>
								<stop  offset="0.1645" style="stop-color:#414141"/>
								<stop  offset="0.3291" style="stop-color:#7A7A7A"/>
								<stop  offset="0.4889" style="stop-color:#AAAAAA"/>
								<stop  offset="0.6396" style="stop-color:#CFCFCF"/>
								<stop  offset="0.7792" style="stop-color:#E9E9E9"/>
								<stop  offset="0.9033" style="stop-color:#F9F9F9"/>
								<stop  offset="0.9995" style="stop-color:#FFFFFF"/>
								<stop  offset="1" style="stop-color:#FFFFFF"/>
							</linearGradient>
							<polygon class="st36" points="57.7,172.6 72.9,175.3 70.3,189.8 55.1,187 							"/>
						</g>
					</g>
				</mask>
				
					<linearGradient id="SVGID_60_" gradientUnits="userSpaceOnUse" x1="-41.9601" y1="243.333" x2="-40.9601" y2="243.333" gradientTransform="matrix(7.8033 1.4102 1.4102 -7.8033 43.9772 2138.4763)">
					<stop  offset="0" style="stop-color:#F393AA"/>
					<stop  offset="0.3074" style="stop-color:#F5A1B8"/>
					<stop  offset="0.6968" style="stop-color:#F6AEC6"/>
					<stop  offset="0.9995" style="stop-color:#F7B3CC"/>
					<stop  offset="1" style="stop-color:#F7B3CC"/>
				</linearGradient>
				<polygon class="st37" points="59.5,175.3 70.7,177.3 68.9,187.3 57.7,185.3 				"/>
			</g>
		</g>
	</g>
</g>
<g>
	<defs>
		<rect id="SVGID_61_" x="16.5" y="99.5" width="109.6" height="109.6"/>
	</defs>
	<clipPath id="SVGID_62_">
		<use xlink:href="#SVGID_61_"  style="overflow:visible;"/>
	</clipPath>
	<g class="st38">
		<g>
			<defs>
				<rect id="SVGID_63_" x="84.6" y="178.9" width="15.3" height="7"/>
			</defs>
			<clipPath id="SVGID_64_">
				<use xlink:href="#SVGID_63_"  style="overflow:visible;"/>
			</clipPath>
			<g class="st39">
				<defs>
					<path id="SVGID_65_" d="M99.7,178.9l-15.1,1.2c0.6,2.7,1.7,5.7,3.1,5.7c0,0,7.3,0,7.3,0c1,0,3.6-0.4,4.2-1.2
						c0.5-1,0.7-2.1,0.7-3.3v-0.1C99.9,180.4,99.8,179.6,99.7,178.9L99.7,178.9z"/>
				</defs>
				<clipPath id="SVGID_66_">
					<use xlink:href="#SVGID_65_"  style="overflow:visible;"/>
				</clipPath>
				<defs>
					<filter id="Adobe_OpacityMaskFilter_3_" filterUnits="userSpaceOnUse" x="84.6" y="178.9" width="15.3" height="7">
						<feColorMatrix  type="matrix" values="1 0 0 0 0  0 1 0 0 0  0 0 1 0 0  0 0 0 1 0"/>
					</filter>
				</defs>
				<mask maskUnits="userSpaceOnUse" x="84.6" y="178.9" width="15.3" height="7" id="SVGID_67_">
					<g class="st40">
						
							<linearGradient id="SVGID_68_" gradientUnits="userSpaceOnUse" x1="0.8366" y1="194.4637" x2="1.8366" y2="194.4637" gradientTransform="matrix(0 6.1183 6.1183 0 -1097.4546 174.6057)">
							<stop  offset="0" style="stop-color:#000000"/>
							<stop  offset="0.3447" style="stop-color:#020202"/>
							<stop  offset="0.543" style="stop-color:#0B0B0B"/>
							<stop  offset="0.7041" style="stop-color:#191919"/>
							<stop  offset="0.8453" style="stop-color:#2C2C2C"/>
							<stop  offset="0.9723" style="stop-color:#464646"/>
							<stop  offset="0.9995" style="stop-color:#4D4D4D"/>
							<stop  offset="1" style="stop-color:#4D4D4D"/>
						</linearGradient>
						<rect x="84.6" y="178.9" class="st41" width="15.5" height="7"/>
					</g>
				</mask>
				
					<linearGradient id="SVGID_69_" gradientUnits="userSpaceOnUse" x1="0.8366" y1="194.448" x2="1.8366" y2="194.448" gradientTransform="matrix(0 6.1183 6.1183 0 -1097.4546 174.6057)">
					<stop  offset="0" style="stop-color:#000000"/>
					<stop  offset="0.8588" style="stop-color:#000000"/>
					<stop  offset="0.9995" style="stop-color:#000000"/>
					<stop  offset="1" style="stop-color:#000000"/>
				</linearGradient>
				<rect x="84.6" y="178.9" class="st42" width="15.3" height="7"/>
			</g>
		</g>
	</g>
</g>
<g>
	<defs>
		<path id="SVGID_70_" d="M69.1,180.1l-16,0.6c2.3,3,4.2,5.1,5,5.1h8c1.1,0,1.8-0.4,2.3-1c0.6-0.8,0.8-2,0.8-3.2
			C69.2,181.3,69.1,180.8,69.1,180.1l-0.1-1.4C69,179.2,69.1,179.7,69.1,180.1"/>
	</defs>
	<clipPath id="SVGID_71_">
		<use xlink:href="#SVGID_70_"  style="overflow:visible;"/>
	</clipPath>
	<g class="st43">
		<g>
			<defs>
				<rect id="SVGID_72_" x="45.9" y="169.6" width="6.8" height="10.6"/>
			</defs>
			<clipPath id="SVGID_73_">
				<use xlink:href="#SVGID_72_"  style="overflow:visible;"/>
			</clipPath>
			<g class="st44">
				<defs>
					<path id="SVGID_74_" d="M45.9,169.6c2.1,3.8,4.6,7.6,6.8,10.6L45.9,169.6z"/>
				</defs>
				<clipPath id="SVGID_75_">
					<use xlink:href="#SVGID_74_"  style="overflow:visible;"/>
				</clipPath>
				
					<linearGradient id="SVGID_76_" gradientUnits="userSpaceOnUse" x1="0.893" y1="213.9895" x2="1.893" y2="213.9895" gradientTransform="matrix(0 9.3487 9.3487 0 -1951.2832 162.5696)">
					<stop  offset="0" style="stop-color:#F6A9C3"/>
					<stop  offset="0.2865" style="stop-color:#E693AB"/>
					<stop  offset="0.748" style="stop-color:#D47990"/>
					<stop  offset="1" style="stop-color:#CE6F86"/>
				</linearGradient>
				<rect x="45.9" y="169.6" class="st45" width="6.8" height="10.6"/>
			</g>
		</g>
	</g>
	<g class="st46">
		<g>
			<defs>
				<rect id="SVGID_77_" x="52.6" y="180.1" width="16.6" height="5.7"/>
			</defs>
			<clipPath id="SVGID_78_">
				<use xlink:href="#SVGID_77_"  style="overflow:visible;"/>
			</clipPath>
			<g class="st47">
				<defs>
					<path id="SVGID_79_" d="M52.6,180.2c2.4,3.4,4.5,5.6,5.4,5.6h8.1c0.7,0,1.8-0.3,2.1-0.8c0.7-0.8,0.9-1.8,1-3v-0.2
						c0-0.6-0.1-1.2-0.1-1.8L52.6,180.2z"/>
				</defs>
				<clipPath id="SVGID_80_">
					<use xlink:href="#SVGID_79_"  style="overflow:visible;"/>
				</clipPath>
				<defs>
					<filter id="Adobe_OpacityMaskFilter_4_" filterUnits="userSpaceOnUse" x="52.6" y="180.1" width="16.6" height="5.7">
						<feColorMatrix  type="matrix" values="1 0 0 0 0  0 1 0 0 0  0 0 1 0 0  0 0 0 1 0"/>
					</filter>
				</defs>
				<mask maskUnits="userSpaceOnUse" x="52.6" y="180.1" width="16.6" height="5.7" id="SVGID_81_">
					<g class="st48">
						
							<linearGradient id="SVGID_82_" gradientUnits="userSpaceOnUse" x1="0.8014" y1="182.2927" x2="1.8014" y2="182.2927" gradientTransform="matrix(0 5.0343 5.0343 0 -856.7014 176.8177)">
							<stop  offset="0" style="stop-color:#000000"/>
							<stop  offset="0.3447" style="stop-color:#020202"/>
							<stop  offset="0.543" style="stop-color:#0B0B0B"/>
							<stop  offset="0.7041" style="stop-color:#191919"/>
							<stop  offset="0.8453" style="stop-color:#2C2C2C"/>
							<stop  offset="0.9722" style="stop-color:#464646"/>
							<stop  offset="0.9995" style="stop-color:#4D4D4D"/>
							<stop  offset="1" style="stop-color:#4D4D4D"/>
						</linearGradient>
						<rect x="52.6" y="180.1" class="st49" width="16.8" height="5.7"/>
					</g>
				</mask>
				
					<linearGradient id="SVGID_83_" gradientUnits="userSpaceOnUse" x1="0.8014" y1="182.2718" x2="1.8014" y2="182.2718" gradientTransform="matrix(0 5.0343 5.0343 0 -856.7014 176.8177)">
					<stop  offset="0" style="stop-color:#000000"/>
					<stop  offset="0.8588" style="stop-color:#000000"/>
					<stop  offset="0.9995" style="stop-color:#000000"/>
					<stop  offset="1" style="stop-color:#000000"/>
				</linearGradient>
				<rect x="52.6" y="180.1" class="st50" width="16.6" height="5.7"/>
			</g>
		</g>
	</g>
</g>
</svg>
