<?xml version="1.0" encoding="utf-8"?>
<!-- Generator: Adobe Illustrator 22.1.0, SVG Export Plug-In . SVG Version: 6.00 Build 0)  -->
<svg version="1.1" id="Layer_1" xmlns="http://www.w3.org/2000/svg" xmlns:xlink="http://www.w3.org/1999/xlink" x="0px" y="0px"
	 viewBox="0 0 300 250" style="enable-background:new 0 0 300 250;" xml:space="preserve">
<style type="text/css">
	.st0{fill:#FFFFFF;}
	.st1{clip-path:url(#SVGID_2_);fill:#FFFFFF;}
	.st2{clip-path:url(#SVGID_4_);fill:url(#SVGID_5_);}
	.st3{clip-path:url(#SVGID_7_);fill:url(#SVGID_8_);}
	.st4{clip-path:url(#SVGID_10_);fill:url(#SVGID_11_);}
</style>
<path class="st0" d="M221.1,198.1v3.8h-6.8v18.3h-4.3v-18.3h-6.8v-3.8H221.1z M222.9,220.2h4.3v-11.1v-11.1h-4.3v11.1V220.2z
	 M249.3,220.2h-4.4l-2.3-5.5h-7.5l-2.3,5.5h-4.3l9.4-22.4h1.9L249.3,220.2z M270.1,220.2h-4.4l-2.3-5.5h-7.5l-2.3,5.5h-4.3l9.4-22.4
	h1.9L270.1,220.2z M241.2,211.2l-2.3-5.5l-2.3,5.5H241.2z M261.9,211.2l-2.3-5.5l-2.3,5.5H261.9z"/>
<g>
	<defs>
		<rect id="SVGID_1_" x="167.2" y="189" width="108.6" height="37"/>
	</defs>
	<clipPath id="SVGID_2_">
		<use xlink:href="#SVGID_1_"  style="overflow:visible;"/>
	</clipPath>
	<path class="st1" d="M187.8,221.7c1.9,0,3.6-0.8,4.9-2l5.2-5.2c1.2-1.2,2-2.9,2-4.8v-16.3h-16.3c-1.9,0-3.6,0.8-4.9,2l-5.2,5.2
		c-1.2,1.2-2,2.9-2,4.8v16.3H187.8z"/>
</g>
<g>
	<defs>
		<path id="SVGID_3_" d="M185.4,194.7c-3,0-5.4,2.4-5.4,5.4v1.8h11.2v11.2h1.8c3,0,5.4-2.4,5.4-5.4v-13H185.4z"/>
	</defs>
	<clipPath id="SVGID_4_">
		<use xlink:href="#SVGID_3_"  style="overflow:visible;"/>
	</clipPath>
	
		<linearGradient id="SVGID_5_" gradientUnits="userSpaceOnUse" x1="-12.5628" y1="264.6412" x2="-11.5628" y2="264.6412" gradientTransform="matrix(12.7555 -12.7555 -12.7555 -12.7555 3721.54 3422.8855)">
		<stop  offset="0" style="stop-color:#9EDDF9"/>
		<stop  offset="0.1" style="stop-color:#9EDDF9"/>
		<stop  offset="0.9" style="stop-color:#0B9EDA"/>
		<stop  offset="1" style="stop-color:#0B9EDA"/>
	</linearGradient>
	<polygon class="st2" points="170.9,203.9 189.2,185.6 207.6,203.9 189.2,222.3 	"/>
</g>
<g>
	<defs>
		<path id="SVGID_6_" d="M193,214.5h-14.4l-5.7,5.7h14.9c1.4,0,2.8-0.6,3.8-1.6l4.8-4.8l-0.1-0.1C195.3,214.2,194.2,214.5,193,214.5
			"/>
	</defs>
	<clipPath id="SVGID_7_">
		<use xlink:href="#SVGID_6_"  style="overflow:visible;"/>
	</clipPath>
	
		<linearGradient id="SVGID_8_" gradientUnits="userSpaceOnUse" x1="-13.7553" y1="251.0425" x2="-12.7553" y2="251.0425" gradientTransform="matrix(23.517 0 0 -23.517 496.3972 6120.7305)">
		<stop  offset="0" style="stop-color:#1DB0E6"/>
		<stop  offset="0.1146" style="stop-color:#1DACE2"/>
		<stop  offset="0.2645" style="stop-color:#1BA1D7"/>
		<stop  offset="0.434" style="stop-color:#1790C7"/>
		<stop  offset="0.6179" style="stop-color:#137AB4"/>
		<stop  offset="0.8114" style="stop-color:#06619F"/>
		<stop  offset="0.9" style="stop-color:#025595"/>
		<stop  offset="1" style="stop-color:#025595"/>
	</linearGradient>
	<rect x="172.9" y="213.7" class="st3" width="23.5" height="6.6"/>
</g>
<g>
	<defs>
		<path id="SVGID_9_" d="M174.5,201.5c-1,1-1.6,2.4-1.6,3.8v14.9l5.7-5.7v-14.4c0-1.2,0.3-2.3,0.8-3.3l-0.1-0.1L174.5,201.5z"/>
	</defs>
	<clipPath id="SVGID_10_">
		<use xlink:href="#SVGID_9_"  style="overflow:visible;"/>
	</clipPath>
	
		<linearGradient id="SVGID_11_" gradientUnits="userSpaceOnUse" x1="1.0425" y1="265.7551" x2="2.0425" y2="265.7551" gradientTransform="matrix(0 -23.5174 -23.5174 0 6426.0483 244.7595)">
		<stop  offset="0" style="stop-color:#0882BE"/>
		<stop  offset="0.22" style="stop-color:#0778B4"/>
		<stop  offset="0.6562" style="stop-color:#02609E"/>
		<stop  offset="0.85" style="stop-color:#025595"/>
		<stop  offset="1" style="stop-color:#025595"/>
	</linearGradient>
	<rect x="172.9" y="196.7" class="st4" width="6.6" height="23.5"/>
</g>
</svg>
