<?xml version="1.0" encoding="utf-8"?>
<!-- Generator: Adobe Illustrator 22.1.0, SVG Export Plug-In . SVG Version: 6.00 Build 0)  -->
<svg version="1.1" id="Layer_1" xmlns="http://www.w3.org/2000/svg" xmlns:xlink="http://www.w3.org/1999/xlink" x="0px" y="0px"
	 viewBox="0 0 217.8 150.3" style="enable-background:new 0 0 217.8 150.3;" xml:space="preserve">
<style type="text/css">
	.st0{fill:#F6A9C2;}
	.st1{fill:none;}
	.st2{opacity:0.5;fill:#FFFFFF;enable-background:new    ;}
	.st3{fill:#3B3030;}
	.st4{fill:#D2758B;}
	.st5{fill:#010101;}
	.st6{opacity:0.53;clip-path:url(#SVGID_2_);fill:url(#SVGID_3_);enable-background:new    ;}
	.st7{opacity:0.53;clip-path:url(#SVGID_5_);fill:url(#SVGID_6_);enable-background:new    ;}
	.st8{opacity:0.53;clip-path:url(#SVGID_8_);fill:url(#SVGID_9_);enable-background:new    ;}
	.st9{fill:url(#SVGID_10_);}
	.st10{opacity:0.53;clip-path:url(#SVGID_12_);fill:url(#SVGID_13_);enable-background:new    ;}
	.st11{clip-path:url(#SVGID_15_);fill:url(#SVGID_16_);}
</style>
<g>
	<path class="st0" d="M217.8,78c-0.3-3.1-3.9-4-6.3-5.1c-9.2-4.5-8.2-15.8-11.7-24.1c-2.8-6.7-7-12.8-12.1-18.2
		c-5.4-6.4-7.4-8.4-25.4-17.9c-13.5-6.2-28.7-9.2-43.5-9.2C82.3,3.6,51.1,21.3,39,46.3c-0.8,1.5-1.4,3.1-2,4.7
		c-2.2,5.8-3.3,11.9-3.3,18.2c0,1.3,0.1,2.7,0.2,4c8.8,9.1,18,16,27.4,21.1c2.3,1.3,4.7,2.4,7,3.5c2.9,1.3,5.9,2.5,8.8,3.4
		c1.8,0.6,3.5,1.1,5.3,1.6c2.4,0.6,4.7,1.2,7.1,1.7c1.8,0.4,3.5,0.7,5.3,0.9c-1.8-0.3-3.5-0.6-5.3-0.9c-2.4-0.5-4.7-1-7.1-1.7
		c-1.8-0.5-3.5-1-5.3-1.6c-3-1-5.9-2.1-8.8-3.4c-2.4-1-4.7-2.2-7-3.5c-9.3-5.1-18.5-12-27.4-21.1c0.4,4.5,1.3,9,2.8,13.2l0,0
		c6.2,21.1,34.4,63.9,40.5,63.9h18.9c2.5,0,4.2-0.9,5.3-2.3c1.5-1.9,1.9-4.8,1.8-7.6c-0.1-1.7-0.7-7.9-0.3-9.6
		c0.1-0.4,0.3-2.9,0.5-3.3c0,0,0-0.1,0.1-0.1c5,0.7,10.1,2,15.3,2c6.2,0,12.5-0.5,18.7-1.6c1.1,5.4,3.8,22.3,9.1,22.3
		c0,0,17.1-0.1,17.2-0.1c2.4,0,8.5-0.9,9.8-2.7c0.6-0.8,1-1.8,1.2-2.9c1-6-0.2-12.2-0.6-18.2c-0.1-0.8-0.1-1.6,0-2.4
		c0.1-1.1,0.2-2.1,0.6-3.2c0.5-1.4,1.6-2.7,2.6-3.8c2.2-1.6,4.3-3.3,6.2-5.1c5.7-5.6,6.9-7.2,15.1-9.1c5-1.1,9.6-3.4,14.1-5.7
		c2.2-1.1,3-2.9,3-5.2c0-0.1,0-0.2,0-0.3c0-3,0.1-5.6,1.1-8.6C217.3,81.4,218,79.7,217.8,78z M101.8,106.2c2.9,0.2,5.8,0.3,8.7,0.4
		C107.6,106.6,104.7,106.4,101.8,106.2z M171.3,93.8c-0.5,0.2-1.1,0.4-1.6,0.6c-7.9,3-16.7,5.9-26.1,8.1c-3.7,0.9-7.4,1.6-11.2,2.2
		c-1.6,0.3-3.3,0.5-4.9,0.7c-2.8,0.4-5.6,0.6-8.4,0.8c-1.1,0.1-2.3,0.1-3.4,0.2c1.1,0,2.3-0.1,3.4-0.2c2.8-0.2,5.6-0.5,8.4-0.8
		c1.7-0.2,3.3-0.5,4.9-0.7c3.8-0.6,7.6-1.4,11.2-2.2c9.6-2.3,18.5-5.2,26.1-8.1C170.3,94.2,170.8,94,171.3,93.8
		c6.9-2.7,13.8-5.7,21-6.6C185.1,88.1,178.2,91.1,171.3,93.8z M195.7,86.9c0.9,0,1.7,0,2.6,0C197.4,86.9,196.6,86.9,195.7,86.9z
		 M208.4,88.8c-0.8-0.3-1.7-0.5-2.5-0.7c-1.7-0.4-3.3-0.7-5.1-1c1.7,0.2,3.4,0.5,5.1,1C206.8,88.3,207.6,88.5,208.4,88.8
		c0.8,0.3,1.6,0.5,2.5,0.8C210.1,89.3,209.2,89,208.4,88.8z"/>
	<line class="st1" x1="168.6" y1="9.3" x2="169" y2="8.9"/>
	<path class="st0" d="M36,52.7c-1.8-1.1-3.2-2.8-4.3-5.2c4.1-1.8,7.6-4.9,10.4-9.3c2.2-3.5,2.4-7.6,0.4-10.4c-1-1.5-3.6-3.8-8.8-3.3
		C31,24.8,28.6,26,26.9,28c-3.2,3.7-3.8,9.5-3.4,13.3c0.1,0.6,0.2,1.2,0.3,1.8c-3.3,0.2-5.8,0-9.2-0.6c-1.5-0.3-3.3-1.1-4.7-1.6
		L0,36.3c4.3,5.4,19.3,13.4,25.5,12.8c1.5,3.7,3.8,6.6,6.9,8.5c2.3,1.4,4.9,2.2,7.5,2.5c0.6-2,1.4-4,2.6-5.8
		C40.2,54.3,37.9,53.8,36,52.7z M30,40.8c-0.4-2.9,0.2-6.9,2-8.9c0.7-0.8,1.4-1.2,2.4-1.3c0.2,0,0.4,0,0.5,0c0.8,0,1.1,0.2,1.5,0.8
		c0.5,0.7,0.6,2.5-0.5,4.2c-1.8,2.9-3.4,4.8-5.8,6.1C30.1,41.3,30,41.1,30,40.8z"/>
	<path class="st2" d="M61.6,28.7c-10.3,8.6-13.7,14.8-15.9,23.1c-0.3,1-0.5,2-0.7,3c-0.3,2-0.5,4-0.4,6c0-0.1,0-0.2,0.1-0.2
		c2.5-9.3,8.7-17.4,18.3-24.8c7.2-5.5,18.2-11.2,25.8-13.1c-3.6-2.1-4.2-4.4-4.4-6.4C84.4,16.3,70,21.7,61.6,28.7z"/>
	<path class="st3" d="M186.6,54.9c-2.5,0.4-4,3.6-3.4,7.1c0.6,3.5,3.1,6,5.6,5.6s4-3.6,3.4-7.1S189.1,54.4,186.6,54.9z"/>
	<path class="st0" d="M153.9,19.4c5.8,9.9,16.8,14.6,26.1,11.2c1-0.4,1.6-1.4,1.4-2.4c-0.6-4.1-0.7-7.9,0.2-11.5
		c0.8-3.4,2.5-6.6,5.3-9.8c2-2.3-0.9-6.1-4.4-6.7c-3.8-0.6-7.8,0.2-10.6,2.2c-9.5,6.8-16.7,14.1-17.5,14.9
		C153.7,18.1,153.3,18.3,153.9,19.4z"/>
	<path class="st4" d="M168.5,24.6c2.7-2.3,6-3.9,9.6-4.2c-0.2-1.1-0.4-2.1-0.3-3c0.5-3.6,2.2-5.3,4.4-8.2c0.4-0.5,1.3-2,1.5-2.6
		c1-2.6-4.1-2.7-5.6-2.3c-3.8,0.8-8.1,4-10.7,7.9C164.5,16.5,164.8,21.8,168.5,24.6z"/>
	<path class="st5" d="M138.1,10.7c-9.8-3.2-29.2-3-39,0.6c-1.7,0.6-2.3,2.4-1.1,3.6l0.1,0.1c0.9,0.9,2.4,1.2,3.7,0.7
		c8.1-3.1,26.1-3.7,34.1-0.5c1.2,0.5,2.7,0.1,3.5-0.8l0.1-0.1C140.5,13.1,139.8,11.3,138.1,10.7z"/>
	<g>
		<g>
			<g>
				<defs>
					<path id="SVGID_1_" d="M217.8,78c-0.3-3.1-3.9-4-6.3-5.1c-9.2-4.5-8.2-15.8-11.7-24.1c-2.8-6.7-7-12.8-12.1-18.2
						c-5.4-6.4-7.4-8.4-25.4-17.9c-13.5-6.2-28.7-9.2-43.5-9.2C82.3,3.6,51.1,21.3,39,46.3c-0.8,1.5-1.4,3.1-2,4.7
						c-2.2,5.8-3.3,11.9-3.3,18.2c0,1.3,0.1,2.7,0.2,4c8.8,9.1,18,16,27.4,21.1c2.3,1.3,4.7,2.4,7,3.5c2.9,1.3,5.9,2.5,8.8,3.4
						c1.8,0.6,3.5,1.1,5.3,1.6c2.4,0.6,4.7,1.2,7.1,1.7c1.8,0.4,3.5,0.7,5.3,0.9c-1.8-0.3-3.5-0.6-5.3-0.9c-2.4-0.5-4.7-1-7.1-1.7
						c-1.8-0.5-3.5-1-5.3-1.6c-3-1-5.9-2.1-8.8-3.4c-2.4-1-4.7-2.2-7-3.5c-9.3-5.1-18.5-12-27.4-21.1c0.4,4.5,1.3,9,2.8,13.2l0,0
						c6.2,21.1,34.4,63.9,40.5,63.9h18.9c2.5,0,4.2-0.9,5.3-2.3c1.5-1.9,1.9-4.8,1.8-7.6c-0.1-1.7-0.7-7.9-0.3-9.6
						c0.1-0.4,0.3-2.9,0.5-3.3c0,0,0-0.1,0.1-0.1c5,0.7,10.1,2,15.3,2c6.2,0,12.5-0.5,18.7-1.6c1.1,5.4,3.8,22.3,9.1,22.3
						c0,0,17.1-0.1,17.2-0.1c2.4,0,8.5-0.9,9.8-2.7c0.6-0.8,1-1.8,1.2-2.9c1-6-0.2-12.2-0.6-18.2c-0.1-0.8-0.1-1.6,0-2.4
						c0.1-1.1,0.2-2.1,0.6-3.2c0.5-1.4,1.6-2.7,2.6-3.8c2.2-1.6,4.3-3.3,6.2-5.1c5.7-5.6,6.9-7.2,15.1-9.1c5-1.1,9.6-3.4,14.1-5.7
						c2.2-1.1,3-2.9,3-5.2c0-0.1,0-0.2,0-0.3c0-3,0.1-5.6,1.1-8.6C217.3,81.4,218,79.7,217.8,78z M101.8,106.2
						c2.9,0.2,5.8,0.3,8.7,0.4C107.6,106.6,104.7,106.4,101.8,106.2z M171.3,93.8c-0.5,0.2-1.1,0.4-1.6,0.6
						c-7.9,3-16.7,5.9-26.1,8.1c-3.7,0.9-7.4,1.6-11.2,2.2c-1.6,0.3-3.3,0.5-4.9,0.7c-2.8,0.4-5.6,0.6-8.4,0.8
						c-1.1,0.1-2.3,0.1-3.4,0.2c1.1,0,2.3-0.1,3.4-0.2c2.8-0.2,5.6-0.5,8.4-0.8c1.7-0.2,3.3-0.5,4.9-0.7c3.8-0.6,7.6-1.4,11.2-2.2
						c9.6-2.3,18.5-5.2,26.1-8.1C170.3,94.2,170.8,94,171.3,93.8c6.9-2.7,13.8-5.7,21-6.6C185.1,88.1,178.2,91.1,171.3,93.8z
						 M195.7,86.9c0.9,0,1.7,0,2.6,0C197.4,86.9,196.6,86.9,195.7,86.9z M208.4,88.8c-0.8-0.3-1.7-0.5-2.5-0.7
						c-1.7-0.4-3.3-0.7-5.1-1c1.7,0.2,3.4,0.5,5.1,1C206.8,88.3,207.6,88.5,208.4,88.8c0.8,0.3,1.6,0.5,2.5,0.8
						C210.1,89.3,209.2,89,208.4,88.8z"/>
				</defs>
				<clipPath id="SVGID_2_">
					<use xlink:href="#SVGID_1_"  style="overflow:visible;"/>
				</clipPath>
				
					<linearGradient id="SVGID_3_" gradientUnits="userSpaceOnUse" x1="124.85" y1="-264.2457" x2="124.85" y2="-218.0952" gradientTransform="matrix(1 0 0 1 0 352)">
					<stop  offset="0" style="stop-color:#F6A9C2;stop-opacity:0.7"/>
					<stop  offset="1" style="stop-color:#B16073"/>
				</linearGradient>
				<path class="st6" d="M48.3,112.1C59,131.1,73,150.3,77,150.3h18.9c1.6,0,4.2-0.8,5-1.8c4.5-4.6,0.6-14.3,2-18
					c0.1-0.4,0.2-2.6,0.5-3c0,0,0-0.1,0.1-0.1c5,0.7,10.1,2,15.4,2c6.2,0,12.5-0.5,18.7-1.6c1.1,5.4,3.8,22.4,9.1,22.4l17.2-0.1
					c2.4,0,8.5-0.9,9.8-2.7c3.3-6.3,0.5-15.7,0.6-20.6c0-0.2-0.3-2.9,0-2.9c0.1-1.1,0.2-2.1,0.6-3.2c0.5-1.4,1.6-2.7,2.6-3.8
					c2.2-1.6,4.3-3.3,6.2-5.2c5.7-5.6,7-7.3,15.1-9.1c5-1.1,9.6-3.4,14.1-5.7c2.2-1.1,3-2.9,3-5.2c0-0.1,0-0.2,0-0.3
					c-6.4-2.9-13.1-4.9-20-4.7c-9.1,0.3-17.5,4.3-26,7.5c-7.9,3-16.7,5.9-26.1,8.1c-33.5,7.9-74.6,7.2-110-29.4
					c0.4,4.6,1.3,9,2.8,13.2l0,0C38.6,93.3,43,102.7,48.3,112.1"/>
			</g>
		</g>
		<g>
			<g>
				<defs>
					<path id="SVGID_4_" d="M217.8,78c-0.3-3.1-3.9-4-6.3-5.1c-9.2-4.5-8.2-15.8-11.7-24.1c-2.8-6.7-7-12.8-12.1-18.2
						c-5.4-6.4-7.4-8.4-25.4-17.9c-13.5-6.2-28.7-9.2-43.5-9.2C82.3,3.6,51.1,21.3,39,46.3c-0.8,1.5-1.4,3.1-2,4.7
						c-2.2,5.8-3.3,11.9-3.3,18.2c0,1.3,0.1,2.7,0.2,4c8.8,9.1,18,16,27.4,21.1c2.3,1.3,4.7,2.4,7,3.5c2.9,1.3,5.9,2.5,8.8,3.4
						c1.8,0.6,3.5,1.1,5.3,1.6c2.4,0.6,4.7,1.2,7.1,1.7c1.8,0.4,3.5,0.7,5.3,0.9c-1.8-0.3-3.5-0.6-5.3-0.9c-2.4-0.5-4.7-1-7.1-1.7
						c-1.8-0.5-3.5-1-5.3-1.6c-3-1-5.9-2.1-8.8-3.4c-2.4-1-4.7-2.2-7-3.5c-9.3-5.1-18.5-12-27.4-21.1c0.4,4.5,1.3,9,2.8,13.2l0,0
						c6.2,21.1,34.4,63.9,40.5,63.9h18.9c2.5,0,4.2-0.9,5.3-2.3c1.5-1.9,1.9-4.8,1.8-7.6c-0.1-1.7-0.7-7.9-0.3-9.6
						c0.1-0.4,0.3-2.9,0.5-3.3c0,0,0-0.1,0.1-0.1c5,0.7,10.1,2,15.3,2c6.2,0,12.5-0.5,18.7-1.6c1.1,5.4,3.8,22.3,9.1,22.3
						c0,0,17.1-0.1,17.2-0.1c2.4,0,8.5-0.9,9.8-2.7c0.6-0.8,1-1.8,1.2-2.9c1-6-0.2-12.2-0.6-18.2c-0.1-0.8-0.1-1.6,0-2.4
						c0.1-1.1,0.2-2.1,0.6-3.2c0.5-1.4,1.6-2.7,2.6-3.8c2.2-1.6,4.3-3.3,6.2-5.1c5.7-5.6,6.9-7.2,15.1-9.1c5-1.1,9.6-3.4,14.1-5.7
						c2.2-1.1,3-2.9,3-5.2c0-0.1,0-0.2,0-0.3c0-3,0.1-5.6,1.1-8.6C217.3,81.4,218,79.7,217.8,78z M101.8,106.2
						c2.9,0.2,5.8,0.3,8.7,0.4C107.6,106.6,104.7,106.4,101.8,106.2z M171.3,93.8c-0.5,0.2-1.1,0.4-1.6,0.6
						c-7.9,3-16.7,5.9-26.1,8.1c-3.7,0.9-7.4,1.6-11.2,2.2c-1.6,0.3-3.3,0.5-4.9,0.7c-2.8,0.4-5.6,0.6-8.4,0.8
						c-1.1,0.1-2.3,0.1-3.4,0.2c1.1,0,2.3-0.1,3.4-0.2c2.8-0.2,5.6-0.5,8.4-0.8c1.7-0.2,3.3-0.5,4.9-0.7c3.8-0.6,7.6-1.4,11.2-2.2
						c9.6-2.3,18.5-5.2,26.1-8.1C170.3,94.2,170.8,94,171.3,93.8c6.9-2.7,13.8-5.7,21-6.6C185.1,88.1,178.2,91.1,171.3,93.8z
						 M195.7,86.9c0.9,0,1.7,0,2.6,0C197.4,86.9,196.6,86.9,195.7,86.9z M208.4,88.8c-0.8-0.3-1.7-0.5-2.5-0.7
						c-1.7-0.4-3.3-0.7-5.1-1c1.7,0.2,3.4,0.5,5.1,1C206.8,88.3,207.6,88.5,208.4,88.8c0.8,0.3,1.6,0.5,2.5,0.8
						C210.1,89.3,209.2,89,208.4,88.8z"/>
				</defs>
				<clipPath id="SVGID_5_">
					<use xlink:href="#SVGID_4_"  style="overflow:visible;"/>
				</clipPath>
				
					<linearGradient id="SVGID_6_" gradientUnits="userSpaceOnUse" x1="156.819" y1="-218.4464" x2="166.9223" y2="-216.6286" gradientTransform="matrix(1 0 0 1 0 352)">
					<stop  offset="0" style="stop-color:#F493AA;stop-opacity:0"/>
					<stop  offset="0.3074" style="stop-color:#F6A2B8;stop-opacity:0.3076"/>
					<stop  offset="0.6968" style="stop-color:#F5AEC6;stop-opacity:0.6971"/>
					<stop  offset="0.9995" style="stop-color:#F7B3CB"/>
				</linearGradient>
				<path class="st7" d="M173.9,146.7c-4.6,2-12.6,1.1-16.2,0.4c-0.5-0.1-1.1-0.3-1.6-0.5c-2.5-1.4-2.9-5-3.2-7.5
					c-0.3-2.4-1.4-6.9,0.7-8.6c5.4-4.4,13.2-5.9,19.9-7.1c0.2,0,0.4-0.1,0.7-0.1c-0.1,2.3,0,4.5,0.2,6.6
					C175.3,137.7,175.6,143.6,173.9,146.7z"/>
			</g>
		</g>
		<g>
			<g>
				<defs>
					<path id="SVGID_7_" d="M217.8,78c-0.3-3.1-3.9-4-6.3-5.1c-9.2-4.5-8.2-15.8-11.7-24.1c-2.8-6.7-7-12.8-12.1-18.2
						c-5.4-6.4-7.4-8.4-25.4-17.9c-13.5-6.2-28.7-9.2-43.5-9.2C82.3,3.6,51.1,21.3,39,46.3c-0.8,1.5-1.4,3.1-2,4.7
						c-2.2,5.8-3.3,11.9-3.3,18.2c0,1.3,0.1,2.7,0.2,4c8.8,9.1,18,16,27.4,21.1c2.3,1.3,4.7,2.4,7,3.5c2.9,1.3,5.9,2.5,8.8,3.4
						c1.8,0.6,3.5,1.1,5.3,1.6c2.4,0.6,4.7,1.2,7.1,1.7c1.8,0.4,3.5,0.7,5.3,0.9c-1.8-0.3-3.5-0.6-5.3-0.9c-2.4-0.5-4.7-1-7.1-1.7
						c-1.8-0.5-3.5-1-5.3-1.6c-3-1-5.9-2.1-8.8-3.4c-2.4-1-4.7-2.2-7-3.5c-9.3-5.1-18.5-12-27.4-21.1c0.4,4.5,1.3,9,2.8,13.2l0,0
						c6.2,21.1,34.4,63.9,40.5,63.9h18.9c2.5,0,4.2-0.9,5.3-2.3c1.5-1.9,1.9-4.8,1.8-7.6c-0.1-1.7-0.7-7.9-0.3-9.6
						c0.1-0.4,0.3-2.9,0.5-3.3c0,0,0-0.1,0.1-0.1c5,0.7,10.1,2,15.3,2c6.2,0,12.5-0.5,18.7-1.6c1.1,5.4,3.8,22.3,9.1,22.3
						c0,0,17.1-0.1,17.2-0.1c2.4,0,8.5-0.9,9.8-2.7c0.6-0.8,1-1.8,1.2-2.9c1-6-0.2-12.2-0.6-18.2c-0.1-0.8-0.1-1.6,0-2.4
						c0.1-1.1,0.2-2.1,0.6-3.2c0.5-1.4,1.6-2.7,2.6-3.8c2.2-1.6,4.3-3.3,6.2-5.1c5.7-5.6,6.9-7.2,15.1-9.1c5-1.1,9.6-3.4,14.1-5.7
						c2.2-1.1,3-2.9,3-5.2c0-0.1,0-0.2,0-0.3c0-3,0.1-5.6,1.1-8.6C217.3,81.4,218,79.7,217.8,78z M101.8,106.2
						c2.9,0.2,5.8,0.3,8.7,0.4C107.6,106.6,104.7,106.4,101.8,106.2z M171.3,93.8c-0.5,0.2-1.1,0.4-1.6,0.6
						c-7.9,3-16.7,5.9-26.1,8.1c-3.7,0.9-7.4,1.6-11.2,2.2c-1.6,0.3-3.3,0.5-4.9,0.7c-2.8,0.4-5.6,0.6-8.4,0.8
						c-1.1,0.1-2.3,0.1-3.4,0.2c1.1,0,2.3-0.1,3.4-0.2c2.8-0.2,5.6-0.5,8.4-0.8c1.7-0.2,3.3-0.5,4.9-0.7c3.8-0.6,7.6-1.4,11.2-2.2
						c9.6-2.3,18.5-5.2,26.1-8.1C170.3,94.2,170.8,94,171.3,93.8c6.9-2.7,13.8-5.7,21-6.6C185.1,88.1,178.2,91.1,171.3,93.8z
						 M195.7,86.9c0.9,0,1.7,0,2.6,0C197.4,86.9,196.6,86.9,195.7,86.9z M208.4,88.8c-0.8-0.3-1.7-0.5-2.5-0.7
						c-1.7-0.4-3.3-0.7-5.1-1c1.7,0.2,3.4,0.5,5.1,1C206.8,88.3,207.6,88.5,208.4,88.8c0.8,0.3,1.6,0.5,2.5,0.8
						C210.1,89.3,209.2,89,208.4,88.8z"/>
				</defs>
				<clipPath id="SVGID_8_">
					<use xlink:href="#SVGID_7_"  style="overflow:visible;"/>
				</clipPath>
				
					<linearGradient id="SVGID_9_" gradientUnits="userSpaceOnUse" x1="80.9651" y1="-214.8034" x2="99.3035" y2="-211.4892" gradientTransform="matrix(1 0 0 1 0 352)">
					<stop  offset="0" style="stop-color:#F493AA;stop-opacity:0"/>
					<stop  offset="0.3074" style="stop-color:#F6A2B8;stop-opacity:0.3076"/>
					<stop  offset="0.6968" style="stop-color:#F5AEC6;stop-opacity:0.6971"/>
					<stop  offset="0.9995" style="stop-color:#F7B3CB"/>
				</linearGradient>
				<path class="st8" d="M102.9,130.4c-2.7-1.4-16.5-1.5-21.8,5.3c-2.4,3.1-2.3,11.2,2,12.7c3.6,1.3,11.4,0.9,15.2,0.5
					c2.6-0.2,3.3-0.4,4.6-4.4c0,0,0.3-2.8,0.3-3.2C103,135.8,102.5,133.3,102.9,130.4z"/>
			</g>
		</g>
	</g>
	<g>
		
			<linearGradient id="SVGID_10_" gradientUnits="userSpaceOnUse" x1="157.2348" y1="-216.0647" x2="157.2348" y2="-201.6863" gradientTransform="matrix(1 0 0 1 0 352)">
			<stop  offset="0" style="stop-color:#010101;stop-opacity:0"/>
			<stop  offset="0.8588" style="stop-color:#010101;stop-opacity:0.2578"/>
			<stop  offset="0.9995" style="stop-color:#010101;stop-opacity:0.3"/>
		</linearGradient>
		<path class="st9" d="M139.3,136.8c1.5,6.4,3.9,13.4,7.3,13.4l17.2-0.1c2.4,0,8.5-0.9,9.8-2.7c2-3.9,1.7-9.1,1.2-13.6"/>
	</g>
	<g>
		<g>
			<g>
				<defs>
					<path id="SVGID_11_" d="M102.9,136.9c-0.1-1.1-0.1-2.3-0.2-3.3 M65.3,138.4c5.3,7.1,9.8,11.9,11.8,11.9H96
						c2.5,0,4.2-0.9,5.3-2.3c1.5-1.9,1.9-4.8,1.8-7.6c0-0.6-0.1-2-0.2-3.5"/>
				</defs>
				<clipPath id="SVGID_12_">
					<use xlink:href="#SVGID_11_"  style="overflow:visible;"/>
				</clipPath>
				
					<linearGradient id="SVGID_13_" gradientUnits="userSpaceOnUse" x1="56.25" y1="-236.7586" x2="56.25" y2="-214.7885" gradientTransform="matrix(1 0 0 1 0 352)">
					<stop  offset="0" style="stop-color:#F6A9C2"/>
					<stop  offset="0.2987" style="stop-color:#E593AB"/>
					<stop  offset="0.7514" style="stop-color:#D3788F"/>
					<stop  offset="1" style="stop-color:#CE7087"/>
				</linearGradient>
				<path class="st10" d="M48.3,112.1c5,9,10.8,18,15.9,25"/>
			</g>
		</g>
		<g>
			<g>
				<defs>
					<path id="SVGID_14_" d="M102.9,136.9c-0.1-1.1-0.1-2.3-0.2-3.3 M65.3,138.4c5.3,7.1,9.8,11.9,11.8,11.9H96
						c2.5,0,4.2-0.9,5.3-2.3c1.5-1.9,1.9-4.8,1.8-7.6c0-0.6-0.1-2-0.2-3.5"/>
				</defs>
				<clipPath id="SVGID_15_">
					<use xlink:href="#SVGID_14_"  style="overflow:visible;"/>
				</clipPath>
				
					<linearGradient id="SVGID_16_" gradientUnits="userSpaceOnUse" x1="83.6797" y1="-213.4135" x2="83.6797" y2="-201.5823" gradientTransform="matrix(1 0 0 1 0 352)">
					<stop  offset="0" style="stop-color:#010101;stop-opacity:0"/>
					<stop  offset="0.8588" style="stop-color:#010101;stop-opacity:0.2578"/>
					<stop  offset="0.9995" style="stop-color:#010101;stop-opacity:0.3"/>
				</linearGradient>
				<path class="st11" d="M64.2,137.1c5.7,7.9,10.7,13.3,12.8,13.3h18.9c1.6,0,4.2-0.8,5-1.8c2.7-2.8,2.4-7.5,2-11.6"/>
			</g>
		</g>
	</g>
	<path class="st5" d="M104.2,124.5c8.3,2.7,24.7,2.5,33-0.6c1.4-0.5,1.9-2,0.9-3l-0.1-0.1c-0.8-0.8-2-1-3.1-0.6
		c-6.8,2.6-22.1,3.2-28.8,0.5c-1-0.4-2.3-0.1-3,0.7l-0.1,0.1C102.2,122.5,102.8,124,104.2,124.5z"/>
</g>
</svg>
