<svg id="Layer_1" xmlns="http://www.w3.org/2000/svg" viewBox="0 0 600 250"><style>.st0{fill:#3a833f}</style><path class="st0" d="M186.4 182c-3-2.2-9.8-2.5-11.5 1.3 1-3.5-.8-8.4-3.8-10.5-2.7-2-6.3-2.5-9.6-2-6.2 1-11.8 5.6-12.6 11.9-1.3-2-3.5-3.3-6.1-3.3-2.7 0-5.1 1.5-6.3 3.7-2-3.5-8.5-3.2-11.4-1-3.4 2.6-3.8 7.4-2.8 11.5h66.9c1.1-4.3.7-9-2.8-11.6M307.9 182c-2.9-2.2-9.8-2.5-11.5 1.3 1-3.5-.8-8.4-3.8-10.5-2.7-2-6.3-2.5-9.6-2-6.2 1-11.8 5.6-12.6 11.9-1.3-2-3.5-3.3-6.1-3.3-2.7 0-5.1 1.5-6.3 3.7-2-3.5-8.5-3.2-11.4-1-3.4 2.6-3.8 7.4-2.8 11.5h66.9c1-4.3.7-9-2.8-11.6"/></svg>