<svg id="Layer_1" xmlns="http://www.w3.org/2000/svg" viewBox="0 0 300 250"><style>.st0{fill:#231f20}</style><path class="st0" d="M269.9 239.7l-.1.6h-2.6l-.1 1.7c.4-.4.8-.6 1.3-.6s.9.2 1.3.5.5.8.5 1.3-.2 1-.6 1.3c-.4.3-.9.5-1.4.5-.4 0-.8-.1-1.2-.4s-.6-.5-.7-.9l.6-.2c.2.6.7.9 1.3.9.4 0 .8-.1 1-.4.2-.3.4-.6.4-1s-.1-.7-.4-1-.5-.3-.9-.3c-.5 0-.9.2-1.3.7l-.5-.1.2-2.9h3.2zM272.2 242.2c-.7-.3-1-.7-1-1.3 0-.4.2-.7.5-1s.8-.4 1.3-.4 1 .1 1.3.4.5.6.5 1c0 .6-.3 1-1 1.2.6.3.9.5 1 .7.1.2.2.5.2.7 0 .4-.2.8-.5 1.1s-.9.4-1.5.4c-.7 0-1.2-.1-1.5-.4s-.5-.6-.5-1c0-.6.4-1 1.2-1.4zm.8.3c-.9.2-1.4.6-1.4 1.1 0 .3.1.5.4.7.2.2.6.3 1.1.3.4 0 .7-.1 1-.3.2-.2.4-.4.4-.7-.1-.4-.5-.8-1.5-1.1zm.1-.6c.4-.1.8-.3.9-.4s.3-.4.3-.6c0-.3-.1-.5-.3-.6s-.5-.2-.9-.2c-.3 0-.6.1-.8.2s-.3.4-.3.6c0 .2.1.5.4.6s.4.3.7.4zM277.7 245.1c-.6 0-1.1-.3-1.5-.8-.4-.5-.6-1.2-.6-2s.2-1.4.5-2 .8-.8 1.5-.8 1.2.3 1.5.8.5 1.2.5 2c0 .7-.2 1.4-.5 1.9s-.7.9-1.4.9zm0-.5c.5 0 .8-.2 1-.6s.3-.9.3-1.5c0-.7-.1-1.2-.3-1.7s-.6-.7-1-.7-.8.2-1 .6-.3.9-.3 1.6c0 .7.1 1.2.3 1.7s.6.6 1 .6zM282.4 245.1c-.6 0-1.1-.3-1.5-.8-.4-.5-.6-1.2-.6-2s.2-1.4.5-2 .8-.8 1.5-.8 1.2.3 1.5.8.5 1.2.5 2c0 .7-.2 1.4-.5 1.9s-.7.9-1.4.9zm0-.5c.5 0 .8-.2 1-.6s.3-.9.3-1.5c0-.7-.1-1.2-.3-1.7s-.6-.7-1-.7-.8.2-1 .6-.3.9-.3 1.6c0 .7.1 1.2.3 1.7s.6.6 1 .6zM285.2 244l.5-.2c.2.5.6.7 1.1.7.5 0 .9-.2 1.1-.6s.4-1 .4-1.7c-.3.6-.9 1-1.6 1-.5 0-.9-.2-1.2-.5-.3-.3-.5-.8-.5-1.3s.2-.9.5-1.3c.4-.4.8-.5 1.3-.5.7 0 1.2.2 1.5.7.4.5.5 1.1.5 1.9 0 .9-.2 1.6-.6 2.1-.4.5-.9.8-1.6.8-.5 0-1.1-.3-1.4-1.1zm1.8-1.4c.4 0 .7-.1.9-.4s.4-.6.4-.9c0-.3-.1-.6-.4-.9-.2-.2-.5-.4-.9-.4s-.7.1-.9.4c-.2.2-.3.5-.3.9s.1.7.4.9c.2.3.5.4.8.4zM293 245h-.6v-1.3h-2.6v-.4l2.5-3.7h.8v3.6h.9v.5h-1v1.3zm-.7-1.8v-2.5-.6c-.1.2-.2.4-.3.5l-1.7 2.6h2z"/></svg>