<svg id="Layer_1" xmlns="http://www.w3.org/2000/svg" viewBox="0 0 300 250"><style>.st0{fill:#231f20}</style><path class="st0" d="M32.9 88.4c-1.6 4.2-3.2 5.7-5.2 6.5l-2.1-2.1c1.7-.6 3-1.9 3.8-4.1L25.7 79H29l1.5 4c.2.6.5 1.3.6 2 .2-.7.4-1.4.7-2l1.5-4h3.1l-3.5 9.4zM42.4 89.8c-3.2 0-5.7-2.2-5.7-5.5s2.5-5.5 5.7-5.5c3.1 0 5.7 2.2 5.7 5.5 0 3.2-2.5 5.5-5.7 5.5zm0-8.2c-1.3 0-2.3 1.1-2.3 2.6s1.1 2.6 2.3 2.6c1.2 0 2.3-1.1 2.3-2.6s-1-2.6-2.3-2.6zM56.6 89.4V88c-.4 1.1-1.5 1.7-3.2 1.7-2.3 0-3.7-1.3-3.7-3.5V79h3.4v6.4c0 .8.5 1.4 1.6 1.4 1 0 1.6-.7 1.6-1.5V79h3.4v10.4h-3.1zM74.9 82.4c-.7-.4-1.4-.7-2.2-.7-1.5 0-2.6 1.1-2.6 2.6s1.2 2.6 2.7 2.6c.9 0 1.5-.2 2.3-.6l-.3 2.9c-.7.3-1.6.5-2.6.5-2.9 0-5.6-2.1-5.6-5.4 0-3.4 2.7-5.4 5.6-5.4 1.4 0 2.5.3 3.4.8l-.7 2.7zM84.4 89.9c-.6-.1-1.3-.6-1.6-1.4-.5.9-1.4 1.3-2.7 1.3-1.8 0-3.5-1.3-3.5-3.4 0-1.9 1.5-3.2 3.6-3.4l2.1-.2v-.3c0-.6-.5-1-1.6-1-1 0-2.1.3-2.9.8l-.6-2.6c.9-.6 2.3-.9 3.7-.9 2.8 0 4.7 1.3 4.7 3.8V86c0 1.2.5 1.9 1.3 2.2l-2.5 1.7zm-2.1-5L81 85c-.9.1-1.3.7-1.3 1.3 0 .6.4 1 1.1 1 .8 0 1.5-.6 1.5-1.5v-.9zM94.5 89.4V83c0-.8-.5-1.4-1.5-1.4s-1.7.6-1.7 1.5v6.3h-3.4V79H91v1.4c.4-1.1 1.5-1.7 3.2-1.7 2.3 0 3.7 1.3 3.7 3.5v7.2h-3.4zM108.5 89.7c-1.4 0-2.5-.3-3.3-.7l-.3-3c.9.6 2.1 1.1 3.3 1.1.6 0 1-.3 1-.7 0-.4-.3-.6-.9-.8-2-.6-3.2-1.6-3.2-3.4 0-2 1.7-3.4 3.9-3.4 1.3 0 2.6.3 3.1.6l-.6 2.5c-.5-.3-1.3-.6-2.2-.6-.6 0-.9.3-.9.7 0 .4.3.6.9.8 2.3.6 3.3 1.8 3.3 3.5 0 1.8-1.3 3.4-4.1 3.4zM117.9 89.9c-2.1-.1-3.6-1.2-3.6-3.7V73.1h3.3v12.7c0 .9.5 1.3 1.4 1.4l-1.1 2.7zM129.8 83.7l-1.5 1.5h-5.1c.2.9 1.3 1.8 3.1 1.8 1.1 0 2.2-.3 2.9-.8l-.3 2.9c-.8.4-2 .7-3.3.7-3.2 0-5.7-2.2-5.7-5.6 0-3.4 2.4-5.5 5.4-5.5 2.9 0 4.7 2 4.7 4.2-.1.2-.2.5-.2.8zm-4.6-2.5c-1 0-1.8.8-2 1.7h3.5v-.2c0-.7-.6-1.5-1.5-1.5zM141 83.7l-1.5 1.5h-5.1c.2.9 1.3 1.8 3.1 1.8 1.1 0 2.2-.3 2.9-.8l-.3 2.9c-.8.4-2 .7-3.3.7-3.2 0-5.7-2.2-5.7-5.6 0-3.4 2.4-5.5 5.4-5.5 2.9 0 4.7 2 4.7 4.2-.1.2-.2.5-.2.8zm-4.6-2.5c-1 0-1.8.8-2 1.7h3.5v-.2c0-.7-.6-1.5-1.5-1.5zM148.7 89.7c-1.1 0-2.2-.3-2.6-.7v5.7h-3.3V79h3v1.3c.6-1.1 1.8-1.6 3.2-1.6 2.6 0 5 1.9 5 5.5 0 3.4-2.4 5.5-5.3 5.5zm-.6-8c-1 0-1.7.5-2 1.1V86c.3.4 1 .9 2 .9 1.5 0 2.5-1.1 2.5-2.6s-1-2.6-2.5-2.6z"/><g><path class="st0" d="M31.6 114.7c-2.2 0-4-.8-5-1.5V98.1h3.3v6.3c.4-.3 1.5-.7 2.6-.7 2.9 0 5.2 2 5.2 5.3s-2 5.7-6.1 5.7zm.3-8c-1 0-1.7.5-2 .8v4c.3.3 1.1.5 1.7.5 1.7 0 2.8-1.2 2.8-2.7 0-1.5-1-2.6-2.5-2.6zM49 108.7l-1.5 1.5h-5.1c.2.9 1.3 1.8 3.1 1.8 1.1 0 2.2-.3 2.9-.8l-.3 2.9c-.8.4-2 .7-3.3.7-3.2 0-5.7-2.2-5.7-5.6 0-3.4 2.4-5.5 5.4-5.5 2.9 0 4.7 2 4.7 4.2-.2.2-.2.5-.2.8zm-4.6-2.5c-1 0-1.8.8-2 1.7h3.5v-.2c0-.7-.6-1.5-1.5-1.5zM57.8 106.8h-2.7v3.9c0 .9.5 1.3 1.4 1.3.4 0 .6 0 .9-.1l-.3 2.6c-.3.2-.9.3-1.6.3-2.3 0-3.7-1.2-3.7-3.3V107h-1.7v-3h1.7v-2.2l3.4-1.2v3.4h3.4l-.8 2.8zM66.9 106.8h-2.7v3.9c0 .9.5 1.3 1.4 1.3.4 0 .6 0 .9-.1l-.3 2.6c-.3.2-.9.3-1.6.3-2.3 0-3.7-1.2-3.7-3.3V107h-1.7v-3h1.7v-2.2l3.4-1.2v3.4h3.4l-.8 2.8zM78.1 108.7l-1.5 1.5h-5.1c.2.9 1.3 1.8 3.1 1.8 1.1 0 2.2-.3 2.9-.8l-.3 2.9c-.8.4-2 .7-3.3.7-3.2 0-5.7-2.2-5.7-5.6 0-3.4 2.4-5.5 5.4-5.5 2.9 0 4.7 2 4.7 4.2-.2.2-.2.5-.2.8zm-4.6-2.5c-1 0-1.8.8-2 1.7H75v-.2c0-.7-.6-1.5-1.5-1.5zM86.3 107.6c-.2-.1-.7-.3-1-.3-1.1 0-2.1.6-2.1 2.2v4.9h-3.4V104h3.3v2.3c.3-1.6 1.6-2.5 3-2.5.3 0 .7 0 1 .1l-.8 3.7zM88.4 114.8c-.6 0-1.9-1.3-1.9-1.9 0-.6 1.3-1.9 1.9-1.9.6 0 1.9 1.3 1.9 1.9.1.6-1.2 1.9-1.9 1.9z"/></g></svg>