<svg id="Layer_1" xmlns="http://www.w3.org/2000/svg" xmlns:xlink="http://www.w3.org/1999/xlink" viewBox="0 0 300 250"><style>.st0{fill:#48a642}.st1{fill:none;stroke:#981b27;stroke-width:9.917;stroke-miterlimit:10}.st2{fill:#429891}.st3{fill:none;stroke:#981b27;stroke-width:3.127;stroke-miterlimit:10}.st4{fill:#fab016}.st5{fill:#4f131e}.st6{fill:#981b27}.st7{display:none;opacity:.8}.st8{display:inline}.st9{clip-path:url(#SVGID_2_)}.st10{clip-path:url(#SVGID_4_);fill:#cbcbcb}.st11{clip-path:url(#SVGID_6_)}.st12{clip-path:url(#SVGID_8_);fill:#fff}.st13{clip-path:url(#SVGID_10_)}.st14{clip-path:url(#SVGID_12_);fill:#fff}.st15{clip-path:url(#SVGID_14_)}.st16{clip-path:url(#SVGID_16_);fill:#cbcbcb}.st17{clip-path:url(#SVGID_18_)}.st18{clip-path:url(#SVGID_20_);fill:#cbcbcb}.st19{fill:none}</style><path class="st0" d="M-824.1 193.3h2009.6v82.2H-824.1z"/><path class="st1" d="M146.5 194.9h120.8"/><path class="st2" d="M170.2 138.3h24.2v55.3h-24.2z"/><path class="st3" d="M170.2 138.3h24.2v55.3h-24.2z"/><path class="st4" d="M190.4 165.3c0 1.4-1.1 2.5-2.5 2.5s-2.5-1.1-2.5-2.5 1.1-2.5 2.5-2.5c1.3 0 2.5 1.1 2.5 2.5"/><path class="st5" d="M236.9 84.4h10v17.1h-10z"/><path class="st6" d="M249.2 86.5c0 1-.9 1.8-2.1 1.8h-10.4c-1.2 0-2.1-.8-2.1-1.8v-3c0-1 .9-1.8 2.1-1.8h10.4c1.2 0 2.1.8 2.1 1.8v3zM265.2 126.1l-56.8-37.8-56.8 37.8-3-10.8 59.8-39.9 59.8 39.9zM202.5 138.5h10.7v26.3h-10.7zM242.9 138.5h10.8v26.3h-10.8z"/><path class="st1" d="M146.5 194.9h116.1"/><path class="st0" d="M252.6 194.1c-1.7-1.3-5.5-1.5-6.5.8.6-2.1-.5-5-2.1-6.3-1.5-1.2-3.5-1.5-5.4-1.2-3.5.6-6.6 3.3-7.1 7.1-.7-1.2-2-2-3.4-2-1.5 0-2.8.9-3.5 2.2-1.1-2.1-4.8-1.9-6.4-.6-1.9 1.6-2.1 4.4-1.6 6.8h37.5c.6-2.4.4-5.2-1.5-6.8"/><g class="st7"><g class="st8"><defs><path id="SVGID_1_" d="M238.6 71.7h7.8v7.8h-7.8z"/></defs><clipPath id="SVGID_2_"><use xlink:href="#SVGID_1_" overflow="visible"/></clipPath><g class="st9"><defs><path id="SVGID_3_" d="M238.6 71.7h7.8v7.8h-7.8z"/></defs><clipPath id="SVGID_4_"><use xlink:href="#SVGID_3_" overflow="visible"/></clipPath><path class="st10" d="M238.6 75.6c0 2.2 1.8 3.9 3.9 3.9 2.2 0 3.9-1.8 3.9-3.9 0-2.2-1.8-3.9-3.9-3.9-2.2 0-3.9 1.7-3.9 3.9"/></g></g></g><g class="st7"><g class="st8"><defs><path id="SVGID_5_" d="M412.2-321.6H445v32.8h-32.8z"/></defs><clipPath id="SVGID_6_"><use xlink:href="#SVGID_5_" overflow="visible"/></clipPath><g class="st11"><defs><path id="SVGID_7_" d="M412.2-321.6H445v32.8h-32.8z"/></defs><clipPath id="SVGID_8_"><use xlink:href="#SVGID_7_" overflow="visible"/></clipPath><path class="st12" d="M412.2-304.8c.2 9.1 7.7 16.3 16.8 16.1 9.1-.2 16.3-7.7 16.1-16.8-.2-9.1-7.7-16.3-16.8-16.1-9.1.2-16.3 7.7-16.1 16.8"/></g></g></g><g class="st7"><g class="st8"><defs><path id="SVGID_9_" d="M238.5 61.5h7.8v7.8h-7.8z"/></defs><clipPath id="SVGID_10_"><use xlink:href="#SVGID_9_" overflow="visible"/></clipPath><g class="st13"><defs><path id="SVGID_11_" d="M238.5 61.5h7.8v7.8h-7.8z"/></defs><clipPath id="SVGID_12_"><use xlink:href="#SVGID_11_" overflow="visible"/></clipPath><path class="st14" d="M238.5 65.5c0 2.2 1.8 3.9 4 3.8 2.2 0 3.9-1.8 3.8-4 0-2.2-1.8-3.9-4-3.8-2.1.1-3.8 1.9-3.8 4"/></g></g></g><g class="st7"><g class="st8"><defs><path id="SVGID_13_" d="M238.6 61.8h7.8v7.8h-7.8z"/></defs><clipPath id="SVGID_14_"><use xlink:href="#SVGID_13_" overflow="visible"/></clipPath><g class="st15"><defs><path id="SVGID_15_" d="M238.6 61.8h7.8v7.8h-7.8z"/></defs><clipPath id="SVGID_16_"><use xlink:href="#SVGID_15_" overflow="visible"/></clipPath><path class="st16" d="M238.6 65.8c0 2.2 1.8 3.9 3.9 3.9 2.2 0 3.9-1.8 3.9-3.9 0-2.2-1.8-3.9-3.9-3.9-2.2-.1-3.9 1.7-3.9 3.9"/></g></g></g><g class="st7"><g class="st8"><defs><path id="SVGID_17_" d="M238.6 52h7.8v7.8h-7.8z"/></defs><clipPath id="SVGID_18_"><use xlink:href="#SVGID_17_" overflow="visible"/></clipPath><g class="st17"><defs><path id="SVGID_19_" d="M238.6 52h7.8v7.8h-7.8z"/></defs><clipPath id="SVGID_20_"><use xlink:href="#SVGID_19_" overflow="visible"/></clipPath><path class="st18" d="M238.6 55.9c0 2.2 1.8 3.9 3.9 3.9 2.2 0 3.9-1.8 3.9-3.9 0-2.2-1.8-3.9-3.9-3.9-2.2 0-3.9 1.8-3.9 3.9"/></g></g></g><path class="st19" d="M0 30h300v220H0z"/><path class="st19" d="M0 0h300v250H0z"/></svg>