<svg id="Layer_1" xmlns="http://www.w3.org/2000/svg" xmlns:xlink="http://www.w3.org/1999/xlink" viewBox="0 0 300 250"><style>.st0{fill:#00c2ff}.st1{fill:none}.st2{clip-path:url(#SVGID_2_);fill:url(#SVGID_3_)}.st3{clip-path:url(#SVGID_5_);fill:url(#SVGID_6_)}.st4{clip-path:url(#SVGID_8_);fill:url(#SVGID_9_)}.st5{clip-path:url(#SVGID_11_);fill:url(#SVGID_12_)}.st6{fill:#fff}</style><path class="st0" d="M0 0h300v250H0V0zm115.1 209.4c16.5 0 29.9-13.4 29.9-29.9v-68.1H76.9C60.5 111.4 47 125 47 141.2v68.2h68.1z"/><path class="st1" d="M72.8 51h164.6v164.6H72.8z"/><defs><path id="SVGID_1_" d="M115.1 213.7H42.7l-14.8 14.8h80c5-1.1 9.4-3.6 12.9-7l11.3-11.3-.6-.6c-4.8 2.6-10.4 4.1-16.4 4.1"/></defs><clipPath id="SVGID_2_"><use xlink:href="#SVGID_1_" overflow="visible"/></clipPath><linearGradient id="SVGID_3_" gradientUnits="userSpaceOnUse" x1="1.051" y1="251.034" x2="2.051" y2="251.034" gradientTransform="matrix(0 -19.7245 -19.7245 0 5031.545 250.023)"><stop offset="0" stop-color="#10b0e6"/><stop offset=".159" stop-color="#0faae1"/><stop offset=".368" stop-color="#0c9ad2"/><stop offset=".604" stop-color="#077fba"/><stop offset=".858" stop-color="#015999"/><stop offset=".89" stop-color="#005494"/><stop offset="1" stop-color="#005494"/></linearGradient><path class="st2" d="M27.9 209.5h104.3v19H27.9z"/><defs><path id="SVGID_4_" d="M34.9 135.6c-4.8 4.9-7.7 11.5-7.7 18.9v74.1h.7l14.8-14.8v-72.5c0-5.8 1.5-11.3 4.2-16.3l-.6-.6-11.4 11.2z"/></defs><clipPath id="SVGID_5_"><use xlink:href="#SVGID_4_" overflow="visible"/></clipPath><linearGradient id="SVGID_6_" gradientUnits="userSpaceOnUse" x1="1.01" y1="251.01" x2="2.01" y2="251.01" gradientTransform="matrix(0 -105.3802 -105.3802 0 26488.506 336.368)"><stop offset="0" stop-color="#0081bd"/><stop offset=".393" stop-color="#006fac"/><stop offset=".85" stop-color="#005494"/><stop offset="1" stop-color="#005494"/></linearGradient><path class="st3" d="M27.2 124.2h19.6v104.3H27.2z"/><g><defs><path id="SVGID_7_" d="M115.1 213.7H42.7l-14.8 14.8h80c5-1.1 9.4-3.6 12.9-7l11.3-11.3-.6-.6c-4.8 2.6-10.4 4.1-16.4 4.1"/></defs><clipPath id="SVGID_8_"><use xlink:href="#SVGID_7_" overflow="visible"/></clipPath><linearGradient id="SVGID_9_" gradientUnits="userSpaceOnUse" x1=".99" y1="251.013" x2="1.99" y2="251.013" gradientTransform="matrix(103.7824 0 0 -103.7824 -75.14 26269.705)"><stop offset="0" stop-color="#10b0e6"/><stop offset=".161" stop-color="#0faae1"/><stop offset=".372" stop-color="#0c9ad2"/><stop offset=".61" stop-color="#077fba"/><stop offset=".867" stop-color="#015999"/><stop offset=".9" stop-color="#005494"/><stop offset="1" stop-color="#005494"/></linearGradient><path class="st4" d="M27.9 209.5h104.3v19H27.9z"/></g><g><defs><path id="SVGID_10_" d="M115.1 213.7H42.7l-14.8 14.8h80c5-1.1 9.4-3.6 12.9-7l11.3-11.3-.6-.6c-4.8 2.6-10.4 4.1-16.4 4.1"/></defs><clipPath id="SVGID_11_"><use xlink:href="#SVGID_10_" overflow="visible"/></clipPath><linearGradient id="SVGID_12_" gradientUnits="userSpaceOnUse" x1=".99" y1="251.013" x2="1.99" y2="251.013" gradientTransform="matrix(103.7824 0 0 -103.7824 -75.14 26269.705)"><stop offset="0" stop-color="#10b0e6"/><stop offset=".161" stop-color="#0faae1"/><stop offset=".372" stop-color="#0c9ad2"/><stop offset=".61" stop-color="#077fba"/><stop offset=".867" stop-color="#015999"/><stop offset=".9" stop-color="#005494"/><stop offset="1" stop-color="#005494"/></linearGradient><path class="st5" d="M27.9 209.5h104.3v19H27.9z"/></g><path class="st6" d="M76.3 107c-9.1 0-17.7 3.6-24.2 10.1S42 132.1 42 141.2v72.5h72.4c18.9 0 34.3-15.4 34.3-34.3V107H76.3zm68.7 72.4c0 16.5-13.4 29.9-29.9 29.9H47v-68.2c0-16.2 13.5-29.8 29.9-29.8H145v68.1z"/></svg>