<svg xmlns="http://www.w3.org/2000/svg" viewBox="0 0 300 600"><path d="M30.5 55.5v-6.7H24v6.7h-4.1v-17H24v6.7h6.6v-6.7h4.1v17h-4.2zM46.1 56.1c-.7-.2-1.5-.7-1.9-1.6-.5 1-1.7 1.5-3.1 1.5-2.1 0-4-1.5-4-4 0-2.2 1.7-3.7 4.1-3.9l2.4-.2v-.4c0-.7-.6-1.2-1.9-1.2-1.2 0-2.5.4-3.4.9l-.7-3c1-.6 2.6-1.1 4.2-1.1 3.2 0 5.5 1.5 5.5 4.4v3.9c0 1.4.5 2.2 1.5 2.5l-2.7 2.2zm-2.5-5.8l-1.5.1c-1 .1-1.5.8-1.5 1.5 0 .6.5 1.2 1.2 1.2.9 0 1.7-.7 1.7-1.8v-1zM56.1 55.7h-2.9l-4.6-12.2h3.8l1.7 4.6c.2.6.5 1.5.7 2.3h.1c.2-.8.5-1.7.7-2.3l1.7-4.6h3.6l-4.8 12.2zM64.2 41.8c-.7 0-2.1-1.4-2.1-2.1 0-.7 1.4-2.1 2.1-2.1s2.1 1.4 2.1 2.1c0 .7-1.4 2.1-2.1 2.1zm-2 13.7v-12h3.9v12.1h-3.9zM76.4 55.5v-7.4c0-.9-.6-1.7-1.8-1.7-1.2 0-1.9.7-1.9 1.7v7.4h-3.9v-12h3.6v1.6c.5-1.3 1.7-2 3.7-2 2.6 0 4.2 1.5 4.2 4.1v8.4h-3.9zM87.9 61.7c-3.5 0-5.9-2-5.9-4.5 0-1.8 1.2-2.9 2.5-3.3L83 52.4c.1-.8.8-1.4 1.5-1.7-.9-.6-1.8-1.7-1.8-3.2 0-2.6 1.8-4.3 5-4.3.7 0 1.3.1 1.8.2s1.1.2 1.7.2c.7 0 1.4-.2 1.9-.4l.7 3c-.4.2-1 .4-1.5.4.1.2.3.8.3 1.2 0 2-1.6 3.7-3.9 3.9-.5 0-.8.1-.8.5 0 .1.1.3.3.4l1.9.7c2.4.9 3.7 2.1 3.7 4.3-.1 2.2-2.4 4.1-5.9 4.1zm.8-5.7l-1.4-.4c-.9 0-1.6.7-1.6 1.6 0 .8.7 1.5 2.1 1.5 1.4 0 2.1-.6 2.1-1.3 0-.6-.4-1.2-1.2-1.4zm-1-10.1c-.9 0-1.5.7-1.5 1.4 0 .8.7 1.4 1.5 1.4.9 0 1.5-.6 1.5-1.4 0-.7-.6-1.4-1.5-1.4zM109.5 46.7h-3.1v4.5c0 1 .6 1.5 1.6 1.5.5 0 .7 0 1-.2l-.3 3c-.4.2-1 .3-1.8.3-2.7 0-4.3-1.4-4.3-3.8v-5.2h-2v-3.2h2V41l3.9-1.4v4h3.9l-.9 3.1zM117.4 55.9c-3.7 0-6.6-2.6-6.6-6.4s2.9-6.4 6.6-6.4c3.6 0 6.6 2.6 6.6 6.4s-3 6.4-6.6 6.4zm0-9.4c-1.5 0-2.7 1.3-2.7 3.1s1.3 3.1 2.7 3.1c1.4 0 2.7-1.3 2.7-3.1s-1.3-3.1-2.7-3.1zM132 55.9c-3.7 0-6.6-2.6-6.6-6.4s2.9-6.4 6.6-6.4c3.6 0 6.6 2.6 6.6 6.4s-3 6.4-6.6 6.4zm0-9.4c-1.5 0-2.7 1.3-2.7 3.1s1.3 3.1 2.7 3.1c1.4 0 2.7-1.3 2.7-3.1s-1.3-3.1-2.7-3.1zM161.3 55.5v-7.4c0-.9-.4-1.7-1.7-1.7-1.3 0-1.8.7-1.8 1.7v7.4h-3.9v-7.4c0-.9-.4-1.7-1.7-1.7-1.3 0-1.8.7-1.8 1.7v7.4h-3.9v-12h3.6v1.6c.5-1.3 1.7-2 3.6-2 1.7 0 3 .7 3.6 2 .5-1.2 1.9-2 3.7-2 2.7 0 4.3 1.5 4.3 4.1v8.4h-4zM176.3 56.1c-.7-.2-1.5-.7-1.9-1.6-.5 1-1.7 1.5-3.1 1.5-2.1 0-4-1.5-4-4 0-2.2 1.7-3.7 4.1-3.9l2.4-.2v-.4c0-.7-.6-1.2-1.9-1.2-1.2 0-2.5.4-3.4.9l-.7-3c1-.6 2.6-1.1 4.2-1.1 3.2 0 5.5 1.5 5.5 4.4v3.9c0 1.4.5 2.2 1.5 2.5l-2.7 2.2zm-2.5-5.8l-1.5.1c-1 .1-1.5.8-1.5 1.5 0 .6.5 1.2 1.2 1.2.9 0 1.7-.7 1.7-1.8v-1zM188 55.5v-7.4c0-.9-.6-1.7-1.8-1.7-1.2 0-1.9.7-1.9 1.7v7.4h-3.9v-12h3.6v1.6c.5-1.3 1.7-2 3.7-2 2.6 0 4.2 1.5 4.2 4.1v8.4H188zM201.3 54.3c-1.8 4.9-3.8 6.6-6 7.5l-2.4-2.4c1.9-.7 3.4-2.2 4.4-4.7L193 43.4h3.8l1.8 4.7c.3.7.5 1.5.7 2.4h.1c.2-.8.5-1.7.8-2.4l1.8-4.7h3.6l-4.3 10.9z"/><g><path d="M27.1 73c-.2-.1-.8-.3-1.2-.3-1.3 0-2.4.7-2.4 2.6v5.6h-3.9V68.8h3.9v2.7c.4-1.9 1.8-2.9 3.4-2.9.4 0 .8.1 1.1.2l-.9 4.2zM40.3 74.2L38.6 76h-5.9c.2 1 1.5 2.1 3.6 2.1 1.3 0 2.5-.4 3.3-.9l-.4 3.4c-.9.5-2.3.8-3.8.8-3.7 0-6.6-2.6-6.6-6.5s2.8-6.4 6.3-6.4c3.4 0 5.4 2.3 5.4 4.8-.1.2-.2.6-.2.9zm-5.4-2.9c-1.1 0-2.1.9-2.3 2h4.1V73c0-.8-.7-1.7-1.8-1.7zM50.5 72h-3.1v4.5c0 1 .6 1.5 1.6 1.5.5 0 .7 0 1-.2l-.3 3c-.4.2-1 .3-1.8.3-2.7 0-4.3-1.4-4.3-3.8V72h-2v-3.2h2v-2.6l3.9-1.4v4h3.9l-.9 3.2zM54.6 67.1c-.7 0-2.1-1.4-2.1-2.1 0-.7 1.4-2.1 2.1-2.1s2.1 1.4 2.1 2.1c.1.7-1.4 2.1-2.1 2.1zm-1.9 13.8V68.8h3.9v12.1h-3.9zM66.7 73c-.2-.1-.8-.3-1.2-.3-1.3 0-2.4.7-2.4 2.6v5.6h-3.9V68.8H63v2.7c.4-1.9 1.8-2.9 3.4-2.9.4 0 .8.1 1.1.2l-.8 4.2zM79.8 74.2L78.1 76h-5.9c.2 1 1.5 2.1 3.6 2.1 1.3 0 2.5-.4 3.3-.9l-.4 3.4c-.9.5-2.3.8-3.8.8-3.7 0-6.6-2.6-6.6-6.5s2.8-6.4 6.3-6.4c3.4 0 5.4 2.3 5.4 4.8-.1.2-.1.6-.2.9zm-5.3-2.9c-1.1 0-2.1.9-2.3 2h4.1V73c-.1-.8-.8-1.7-1.8-1.7zM96.7 80.9v-7.4c0-.9-.4-1.7-1.7-1.7-1.3 0-1.8.7-1.8 1.7v7.4h-3.9v-7.4c0-.9-.4-1.7-1.7-1.7-1.3 0-1.8.7-1.8 1.7v7.4h-3.9V68.8h3.6v1.6c.5-1.3 1.7-2 3.6-2 1.7 0 3 .7 3.6 2 .5-1.2 1.9-2 3.7-2 2.7 0 4.3 1.5 4.3 4.1v8.4h-4zM114.2 74.2l-1.7 1.8h-5.9c.2 1 1.5 2.1 3.6 2.1 1.3 0 2.5-.4 3.3-.9l-.4 3.4c-.9.5-2.3.8-3.8.8-3.7 0-6.6-2.6-6.6-6.5s2.8-6.4 6.3-6.4c3.4 0 5.4 2.3 5.4 4.8-.1.2-.1.6-.2.9zm-5.3-2.9c-1.1 0-2.1.9-2.3 2h4.1V73c0-.8-.7-1.7-1.8-1.7zM123.9 80.9v-7.4c0-.9-.6-1.7-1.8-1.7-1.2 0-1.9.7-1.9 1.7v7.4h-3.9V68.8h3.6v1.6c.5-1.3 1.7-2 3.7-2 2.6 0 4.2 1.5 4.2 4.1v8.4h-3.9zM138.2 72h-3.1v4.5c0 1 .6 1.5 1.6 1.5.5 0 .7 0 1-.2l-.3 3c-.4.2-1 .3-1.8.3-2.7 0-4.3-1.4-4.3-3.8V72h-2v-3.2h2v-2.6l3.9-1.4v4h3.9l-.9 3.2zM154.9 81.4c-.7-.2-1.5-.7-1.9-1.6-.5 1-1.7 1.5-3.1 1.5-2.1 0-4-1.5-4-4 0-2.2 1.7-3.7 4.1-3.9l2.4-.2v-.4c0-.7-.6-1.2-1.9-1.2-1.2 0-2.5.4-3.4.9l-.7-3c1-.6 2.6-1.1 4.2-1.1 3.2 0 5.5 1.5 5.5 4.4v3.9c0 1.4.5 2.2 1.5 2.5l-2.7 2.2zm-2.5-5.8l-1.5.1c-1 .1-1.5.8-1.5 1.5 0 .6.5 1.2 1.2 1.2.9 0 1.7-.7 1.7-1.8v-1zM167.9 72.7c-.8-.5-1.6-.8-2.6-.8-1.7 0-3.1 1.2-3.1 3 0 1.7 1.4 3 3.1 3 1 0 1.8-.2 2.6-.7l-.3 3.3c-.8.4-1.8.6-3 .6-3.4 0-6.5-2.4-6.5-6.3s3.2-6.3 6.5-6.3c1.6 0 2.9.3 4 .9l-.7 3.3zM179.6 72.7c-.8-.5-1.6-.8-2.6-.8-1.7 0-3.1 1.2-3.1 3 0 1.7 1.4 3 3.1 3 1 0 1.8-.2 2.6-.7l-.3 3.3c-.8.4-1.8.6-3 .6-3.4 0-6.5-2.4-6.5-6.3s3.2-6.3 6.5-6.3c1.6 0 2.9.3 4 .9l-.7 3.3zM188.1 81.3c-3.7 0-6.6-2.6-6.6-6.4s2.9-6.4 6.6-6.4c3.6 0 6.6 2.6 6.6 6.4s-3 6.4-6.6 6.4zm0-9.5c-1.5 0-2.7 1.3-2.7 3.1s1.3 3.1 2.7 3.1c1.4 0 2.7-1.3 2.7-3.1s-1.3-3.1-2.7-3.1zM204.5 80.9v-1.7c-.5 1.3-1.8 2-3.7 2-2.6 0-4.2-1.5-4.2-4v-8.4h3.9v7.4c0 .9.6 1.7 1.8 1.7 1.2 0 1.9-.8 1.9-1.7v-7.3h3.9V81h-3.6zM218.3 80.9v-7.4c0-.9-.6-1.7-1.8-1.7-1.2 0-1.9.7-1.9 1.7v7.4h-3.9V68.8h3.6v1.6c.5-1.3 1.7-2 3.7-2 2.6 0 4.2 1.5 4.2 4.1v8.4h-3.9zM232.6 72h-3.1v4.5c0 1 .6 1.5 1.6 1.5.5 0 .7 0 1-.2l-.3 3c-.4.2-1 .3-1.8.3-2.7 0-4.3-1.4-4.3-3.8V72h-2v-3.2h2v-2.6l3.9-1.4v4h3.9l-.9 3.2zM238.5 81.1c-1.7 0-2.9-.3-3.8-.9l-.3-3.5c1.1.7 2.5 1.3 3.8 1.3.7 0 1.2-.4 1.2-.8 0-.5-.4-.7-1.1-.9-2.3-.7-3.7-1.8-3.7-3.9 0-2.4 1.9-3.9 4.5-3.9 1.5 0 3 .4 3.6.7l-.7 2.9c-.6-.3-1.5-.7-2.5-.7-.6 0-1.1.3-1.1.8s.3.7 1.1.9c2.7.7 3.8 2.1 3.8 4.1-.1 2.1-1.6 3.9-4.8 3.9z"/></g><g><path d="M28.9 98c-.8-.5-1.6-.8-2.6-.8-1.7 0-3.1 1.2-3.1 3 0 1.7 1.4 3 3.1 3 1 0 1.8-.2 2.6-.7l-.3 3.3c-.8.4-1.8.6-3 .6-3.4 0-6.5-2.4-6.5-6.3s3.2-6.3 6.5-6.3c1.6 0 2.9.3 4 .9l-.7 3.3zM40 106.7c-.7-.2-1.5-.7-1.9-1.6-.5 1-1.7 1.5-3.1 1.5-2.1 0-4-1.5-4-4 0-2.2 1.7-3.7 4.1-3.9l2.4-.2V98c0-.7-.6-1.2-1.9-1.2-1.2 0-2.5.4-3.4.9l-.7-3c1-.6 2.6-1.1 4.2-1.1 3.2 0 5.5 1.5 5.5 4.4v3.9c0 1.4.5 2.2 1.5 2.5l-2.7 2.3zm-2.6-5.8l-1.5.1c-1 .1-1.5.8-1.5 1.5 0 .6.5 1.2 1.2 1.2.9 0 1.7-.7 1.7-1.8v-1zM51.7 106.2v-7.4c0-.9-.6-1.7-1.8-1.7-1.2 0-1.9.7-1.9 1.7v7.4h-4V94.1h3.6v1.6c.5-1.3 1.7-2 3.7-2 2.6 0 4.2 1.5 4.2 4.1v8.4h-3.8zM69.9 106.6c-2.6 0-4.6-.9-5.8-1.8V87.2h3.8v7.3c.5-.4 1.8-.8 3-.8 3.3 0 6.1 2.4 6.1 6.2 0 3.8-2.4 6.7-7.1 6.7zm.3-9.4c-1.1 0-2 .5-2.3.9v4.6c.4.3 1.2.6 2 .6 2 0 3.3-1.4 3.3-3.1-.1-1.7-1.3-3-3-3zM90 99.5l-1.7 1.8h-5.9c.2 1 1.5 2.1 3.6 2.1 1.3 0 2.5-.4 3.3-.9l-.4 3.4c-.9.5-2.3.8-3.8.8-3.7 0-6.6-2.6-6.6-6.5s2.8-6.4 6.3-6.4c3.4 0 5.4 2.3 5.4 4.8-.1.3-.2.7-.2.9zm-5.3-2.8c-1.1 0-2.1.9-2.3 2h4.1v-.3c-.1-.9-.8-1.7-1.8-1.7zM107.2 98c-.8-.5-1.6-.8-2.6-.8-1.7 0-3.1 1.2-3.1 3 0 1.7 1.4 3 3.1 3 1 0 1.8-.2 2.6-.7l-.3 3.3c-.8.4-1.8.6-3 .6-3.4 0-6.5-2.4-6.5-6.3s3.2-6.3 6.5-6.3c1.6 0 2.9.3 4 .9l-.7 3.3zM115.7 106.6c-3.7 0-6.6-2.6-6.6-6.4s2.9-6.4 6.6-6.4c3.6 0 6.6 2.6 6.6 6.4s-3 6.4-6.6 6.4zm0-9.5c-1.5 0-2.7 1.3-2.7 3.1s1.3 3.1 2.7 3.1c1.4 0 2.7-1.3 2.7-3.1s-1.3-3.1-2.7-3.1zM128 106.5c-1.7 0-2.9-.3-3.8-.9l-.3-3.5c1.1.7 2.5 1.3 3.8 1.3.7 0 1.2-.4 1.2-.8 0-.5-.4-.7-1.1-.9-2.3-.7-3.7-1.8-3.7-3.9 0-2.4 1.9-3.9 4.5-3.9 1.5 0 3 .4 3.6.7l-.7 2.9c-.6-.3-1.5-.7-2.5-.7-.6 0-1.1.3-1.1.8s.3.7 1.1.9c2.7.7 3.8 2.1 3.8 4.1 0 2-1.5 3.9-4.8 3.9zM142.6 97.3h-3.1v4.5c0 1 .6 1.5 1.6 1.5.5 0 .7 0 1-.2l-.3 3c-.4.2-1 .3-1.8.3-2.7 0-4.3-1.4-4.3-3.8v-5.2h-2v-3.2h2v-2.6l3.9-1.4v4h3.9l-.9 3.1zM148.9 106.7c-2.5-.1-4.1-1.4-4.1-4.3V87.2h3.9v14.7c0 1 .6 1.5 1.6 1.6l-1.4 3.2zM158.8 105c-1.8 4.9-3.8 6.6-6 7.5l-2.4-2.4c1.9-.7 3.4-2.2 4.4-4.7l-4.3-11.3h3.8l1.8 4.7c.3.7.5 1.5.7 2.4h.1c.2-.8.5-1.7.8-2.4l1.8-4.7h3.6l-4.3 10.9zM164.9 106.6c-.7 0-2.2-1.5-2.2-2.2 0-.7 1.5-2.2 2.2-2.2.7 0 2.2 1.5 2.2 2.2 0 .7-1.5 2.2-2.2 2.2z"/></g></svg>