<svg xmlns="http://www.w3.org/2000/svg" viewBox="0 0 300 600"><path d="M17.1 57.9v-17h4.1v17h-4.1zM31.8 57.9v-7.4c0-.9-.6-1.7-1.8-1.7-1.2 0-1.9.7-1.9 1.7v7.4h-3.9v-12h3.6v1.6c.5-1.3 1.7-2 3.7-2 2.6 0 4.2 1.5 4.2 4.1V58h-3.9zM55.2 51.2L53.5 53h-5.9c.2 1 1.5 2.1 3.6 2.1 1.3 0 2.5-.4 3.3-.9l-.4 3.4c-.9.5-2.3.8-3.8.8-3.7 0-6.6-2.6-6.6-6.5s2.8-6.4 6.3-6.4c3.4 0 5.4 2.3 5.4 4.8-.1.3-.1.7-.2.9zm-5.3-2.8c-1.1 0-2.1.9-2.3 2h4.1v-.3c0-.8-.8-1.7-1.8-1.7zM63.6 57.9l-1.2-2.2c-.2-.3-.4-.8-.6-1.2h-.1c-.2.4-.4.9-.6 1.2L60 57.9h-3.8l3.5-6.1-3.3-6h4l1.1 2c.2.3.3.6.5 1 .2-.4.3-.7.5-1l1.1-2h3.8l-3.3 5.8 3.4 6.3h-3.9zM77.7 49.1h-3.1v4.5c0 1 .6 1.5 1.6 1.5.5 0 .7 0 1-.2l-.3 3c-.4.2-1 .3-1.8.3-2.7 0-4.3-1.4-4.3-3.8v-5.2h-2V46h2v-2.6l3.9-1.4v4h3.9l-.9 3.1zM87.3 50c-.2-.1-.8-.3-1.2-.3-1.3 0-2.4.7-2.4 2.6v5.6h-3.9v-12h3.9v2.7c.4-1.9 1.8-2.9 3.4-2.9.4 0 .8.1 1.1.2l-.9 4.1zM98.1 58.5c-.7-.2-1.5-.7-1.9-1.6-.5 1-1.7 1.5-3.1 1.5-2.1 0-4-1.5-4-4 0-2.2 1.7-3.7 4.1-3.9l2.4-.2v-.4c0-.7-.6-1.2-1.9-1.2-1.2 0-2.5.4-3.4.9l-.7-3c1-.6 2.6-1.1 4.2-1.1 3.2 0 5.5 1.5 5.5 4.4v3.9c0 1.4.5 2.2 1.5 2.5l-2.7 2.2zm-2.5-5.8l-1.5.1c-1 .1-1.5.8-1.5 1.5 0 .6.5 1.2 1.2 1.2.9 0 1.7-.7 1.7-1.8v-1z"/><g><path d="M25.1 83.8c-.7-.2-1.5-.7-1.9-1.6-.5 1-1.7 1.5-3.1 1.5-2.1 0-4-1.5-4-4 0-2.2 1.7-3.7 4.1-3.9l2.4-.2v-.4c0-.7-.6-1.2-1.9-1.2-1.2 0-2.5.4-3.4.9l-.7-3c1-.6 2.6-1.1 4.2-1.1 3.2 0 5.5 1.5 5.5 4.4v3.9c0 1.4.5 2.2 1.5 2.5l-2.7 2.2zM22.6 78l-1.5.1c-1 .1-1.5.8-1.5 1.5 0 .6.5 1.2 1.2 1.2.9 0 1.7-.7 1.7-1.8v-1zM38.4 83.3v-1.5c-.7 1.2-2.1 1.8-3.7 1.8-3 0-5.8-2.2-5.8-6.4 0-3.9 2.8-6.4 6.1-6.4 1.3 0 2.6.4 3.1.8v-7.4h3.8v19h-3.5zm-.4-7.9c-.4-.5-1.2-1.1-2.4-1.1-1.7 0-2.9 1.3-2.9 3.1 0 1.7 1.2 3.1 2.9 3.1 1.1 0 1.9-.6 2.4-1.3v-3.8zM59.2 83.3v-7.4c0-.9-.4-1.7-1.7-1.7-1.3 0-1.8.7-1.8 1.7v7.4h-3.9v-7.4c0-.9-.4-1.7-1.7-1.7-1.3 0-1.8.7-1.8 1.7v7.4h-3.9V71.2H48v1.6c.5-1.3 1.7-2 3.6-2 1.7 0 3 .7 3.6 2 .5-1.2 1.9-2 3.7-2 2.7 0 4.3 1.5 4.3 4.1v8.4h-4zM67.7 69.5c-.7 0-2.1-1.4-2.1-2.1 0-.7 1.4-2.1 2.1-2.1s2.1 1.4 2.1 2.1c0 .7-1.5 2.1-2.1 2.1zm-2 13.8V71.2h3.9v12.1h-3.9zM79.8 83.3v-7.4c0-.9-.6-1.7-1.8-1.7-1.2 0-1.9.7-1.9 1.7v7.4h-3.9V71.2h3.6v1.6c.5-1.3 1.7-2 3.7-2 2.6 0 4.2 1.5 4.2 4.1v8.4h-3.9zM88.3 69.5c-.7 0-2.1-1.4-2.1-2.1 0-.7 1.4-2.1 2.1-2.1s2.1 1.4 2.1 2.1c0 .7-1.4 2.1-2.1 2.1zm-2 13.8V71.2h3.9v12.1h-3.9zM96.7 83.5c-1.7 0-2.9-.3-3.8-.9l-.3-3.5c1.1.7 2.5 1.3 3.8 1.3.7 0 1.2-.4 1.2-.8 0-.5-.4-.7-1.1-.9-2.3-.7-3.7-1.8-3.7-3.9 0-2.4 1.9-3.9 4.5-3.9 1.5 0 3 .4 3.6.7l-.7 2.9c-.6-.3-1.5-.7-2.5-.7-.6 0-1.1.3-1.1.8s.3.7 1.1.9c2.7.7 3.8 2.1 3.8 4.1 0 2.1-1.5 3.9-4.8 3.9zM111.5 74.4h-3.1v4.5c0 1 .6 1.5 1.6 1.5.5 0 .7 0 1-.2l-.3 3c-.4.2-1 .3-1.8.3-2.7 0-4.3-1.4-4.3-3.8v-5.2h-2v-3.2h2v-2.6l3.9-1.4v4h3.9l-.9 3.1zM121.2 75.4c-.2-.1-.8-.3-1.2-.3-1.3 0-2.4.7-2.4 2.6v5.6h-3.9V71.2h3.9v2.7c.4-1.9 1.8-2.9 3.4-2.9.4 0 .8.1 1.1.2l-.9 4.2zM132.1 83.8c-.7-.2-1.5-.7-1.9-1.6-.5 1-1.7 1.5-3.1 1.5-2.1 0-4-1.5-4-4 0-2.2 1.7-3.7 4.1-3.9l2.4-.2v-.4c0-.7-.6-1.2-1.9-1.2-1.2 0-2.5.4-3.4.9l-.7-3c1-.6 2.6-1.1 4.2-1.1 3.2 0 5.5 1.5 5.5 4.4v3.9c0 1.4.5 2.2 1.5 2.5l-2.7 2.2zm-2.5-5.8l-1.5.1c-1 .1-1.5.8-1.5 1.5 0 .6.5 1.2 1.2 1.2.9 0 1.7-.7 1.7-1.8v-1zM144.3 74.4h-3.1v4.5c0 1 .6 1.5 1.6 1.5.5 0 .7 0 1-.2l-.3 3c-.4.2-1 .3-1.8.3-2.7 0-4.3-1.4-4.3-3.8v-5.2h-2v-3.2h2v-2.6l3.9-1.4v4h3.9l-.9 3.1zM148.5 69.5c-.7 0-2.1-1.4-2.1-2.1 0-.7 1.4-2.1 2.1-2.1s2.1 1.4 2.1 2.1c0 .7-1.4 2.1-2.1 2.1zm-1.9 13.8V71.2h3.9v12.1h-3.9zM159.7 83.4h-2.9l-4.6-12.2h3.8l1.7 4.6c.2.6.5 1.5.7 2.3h.1c.2-.8.5-1.7.7-2.3l1.7-4.6h3.6l-4.8 12.2zM177 76.6l-1.7 1.8h-5.9c.2 1 1.5 2.1 3.6 2.1 1.3 0 2.5-.4 3.3-.9l-.4 3.4c-.9.5-2.3.8-3.8.8-3.7 0-6.6-2.6-6.6-6.5s2.8-6.4 6.3-6.4c3.4 0 5.4 2.3 5.4 4.8-.1.2-.1.6-.2.9zm-5.3-2.9c-1.1 0-2.1.9-2.3 2h4.1v-.3c0-.8-.7-1.7-1.8-1.7zM193.6 67.8c-.5-.2-1.1-.3-1.6-.3-1.4 0-2.2.9-2.2 2.6v1.1h3.5l-.8 3.2h-2.7v8.9H186v-8.9h-1.8v-3.2h1.8v-1.4c0-3.7 2.4-5.5 5.4-5.5 1.1 0 2.2.1 2.9.4l-.7 3.1zM205.5 76.6l-1.7 1.8h-5.9c.2 1 1.5 2.1 3.6 2.1 1.3 0 2.5-.4 3.3-.9l-.4 3.4c-.9.5-2.3.8-3.8.8-3.7 0-6.6-2.6-6.6-6.5s2.8-6.4 6.3-6.4c3.4 0 5.4 2.3 5.4 4.8-.1.2-.2.6-.2.9zm-5.3-2.9c-1.1 0-2.1.9-2.3 2h4.1v-.3c-.1-.8-.8-1.7-1.8-1.7zM218.5 76.6l-1.7 1.8h-5.9c.2 1 1.5 2.1 3.6 2.1 1.3 0 2.5-.4 3.3-.9l-.4 3.4c-.9.5-2.3.8-3.8.8-3.7 0-6.6-2.6-6.6-6.5s2.8-6.4 6.3-6.4c3.4 0 5.4 2.3 5.4 4.8-.1.2-.1.6-.2.9zm-5.3-2.9c-1.1 0-2.1.9-2.3 2h4.1v-.3c0-.8-.8-1.7-1.8-1.7zM224.4 83.5c-1.7 0-2.9-.3-3.8-.9l-.3-3.5c1.1.7 2.5 1.3 3.8 1.3.7 0 1.2-.4 1.2-.8 0-.5-.4-.7-1.1-.9-2.3-.7-3.7-1.8-3.7-3.9 0-2.4 1.9-3.9 4.5-3.9 1.5 0 3 .4 3.6.7l-.7 2.9c-.6-.3-1.5-.7-2.5-.7-.6 0-1.1.3-1.1.8s.3.7 1.1.9c2.7.7 3.8 2.1 3.8 4.1-.1 2.1-1.6 3.9-4.8 3.9zM233 83.7c-.7 0-2.2-1.5-2.2-2.2 0-.7 1.5-2.2 2.2-2.2.7 0 2.2 1.5 2.2 2.2 0 .7-1.5 2.2-2.2 2.2z"/></g></svg>