<svg id="Layer_1" xmlns="http://www.w3.org/2000/svg" viewBox="0 0 300 600"><style>.st0{fill:#f9e13a}.st1{fill:#010101}</style><path class="st0" d="M46.3 460.5s-14.7 0-14.7 14.7v4.9s0 14.7 14.7 14.7h157s14.7 0 14.7-14.7v-4.9s0-14.7-14.7-14.7h-157z"/><path class="st1" d="M69.3 483.1h-2.1V474H71c.8 0 1.6 0 2.3.5.7.5 1.2 1.4 1.2 2.3 0 1-.6 2-1.6 2.4l1.7 4h-2.4l-1.4-3.6h-1.6v3.5zm0-5.1h1.2c.4 0 .9 0 1.3-.2.3-.2.5-.6.5-1s-.2-.7-.5-.9c-.4-.2-1-.2-1.4-.2h-1.1v2.3zM78 475.8v1.8h3.5v1.7H78v2h4.4v1.8h-6.5V474h6.5v1.8H78zM91.1 483.1h-2.3l-.6-1.9h-3l-.6 1.9h-1.9l2.9-9.1h2.5l3 9.1zm-3.4-3.5l-1-3.2-1 3.2h2zM94.7 474c1.3 0 2.4.1 3.4 1s1.4 2.2 1.4 3.5c0 1.2-.4 2.4-1.2 3.3-.9 1-2 1.3-3.3 1.3h-3V474h2.7zm-.5 7.4h.7c.9 0 1.5-.2 2-1 .4-.6.5-1.3.5-2s-.2-1.5-.7-2.1c-.5-.6-1-.7-1.8-.7h-.7v5.8zM110.5 475.8h-2.3v7.3h-2.1v-7.3h-2.3V474h6.7v1.8zM118.6 483.1h-2.1v-3.8h-2.8v3.8h-2.1V474h2.1v3.6h2.8V474h2.1v9.1zM122.5 475.8v1.8h3.5v1.7h-3.5v2h4.4v1.8h-6.5V474h6.5v1.8h-4.4zM139.1 483.1h-2.3l-.6-1.9h-3l-.6 1.9h-1.9l2.9-9.1h2.5l3 9.1zm-3.3-3.5l-1-3.2-1 3.2h2zM142.3 483.1h-2.1V474h3.8c.8 0 1.6 0 2.3.5.7.5 1.2 1.4 1.2 2.3 0 1-.6 2-1.6 2.4l1.7 4h-2.4l-1.4-3.6h-1.6v3.5zm0-5.1h1.2c.4 0 .9 0 1.3-.2.3-.2.5-.6.5-1s-.2-.7-.5-.9c-.4-.2-1-.2-1.4-.2h-1.1v2.3zM155 475.8h-2.3v7.3h-2.1v-7.3h-2.3V474h6.7v1.8zM158.3 483.1h-2.1V474h2.1v9.1zM165.2 477.5c0-1-.4-2-1.5-2-1.5 0-1.6 2-1.6 3.1 0 1.3.1 2.9 1.8 2.9 1 0 1.5-.8 1.6-1.7l2.1.1c-.2 2.1-1.7 3.3-3.8 3.3-2.7 0-4-2.2-4-4.7s1.4-4.7 4.1-4.7c2.3 0 3.5 1.3 3.7 3.5l-2.4.2zM174.6 481.3v1.8h-5.8V474h2.1v7.3h3.7zM177.6 475.8v1.8h3.5v1.7h-3.5v2h4.4v1.8h-6.5V474h6.5v1.8h-4.4z"/></svg>