<svg id="Layer_1" xmlns="http://www.w3.org/2000/svg" xmlns:xlink="http://www.w3.org/1999/xlink" viewBox="0 0 174 174"><style>.st0{clip-path:url(#SVGID_2_)}.st1{opacity:.25}.st2{clip-path:url(#SVGID_4_)}.st3{clip-path:url(#SVGID_6_);fill:#0a0f0f}.st4{clip-path:url(#SVGID_8_);fill:#fff}.st5{clip-path:url(#SVGID_10_);fill:url(#SVGID_11_)}.st6{clip-path:url(#SVGID_13_);fill:url(#SVGID_14_)}.st7{clip-path:url(#SVGID_16_);fill:url(#SVGID_17_)}.st8{clip-path:url(#SVGID_19_);fill:url(#SVGID_20_)}.st9{clip-path:url(#SVGID_22_);fill:url(#SVGID_23_)}.st10{clip-path:url(#SVGID_25_);fill:#963a21}.st11{clip-path:url(#SVGID_27_);fill:url(#SVGID_28_)}.st12{clip-path:url(#SVGID_30_);fill:url(#SVGID_31_)}.st13,.st14{clip-path:url(#SVGID_33_);fill:#f5a8c2}.st14{clip-path:url(#SVGID_35_)}.st15{clip-path:url(#SVGID_37_)}.st16{opacity:.5}.st17{clip-path:url(#SVGID_39_)}.st18{clip-path:url(#SVGID_41_);fill:#fff}.st19{clip-path:url(#SVGID_43_);fill:#393030}.st20{clip-path:url(#SVGID_45_);fill:#f5a8c2}.st21{clip-path:url(#SVGID_47_);fill:#d07589}.st22{clip-path:url(#SVGID_49_);fill:#231f20}.st23{clip-path:url(#SVGID_51_);fill:#ffcb10}.st24{clip-path:url(#SVGID_53_);fill:#eeb435}.st25{clip-path:url(#SVGID_55_);fill:#ffeba6}.st26{clip-path:url(#SVGID_57_);fill:#ffcb10}.st27{clip-path:url(#SVGID_59_);fill:#eeb435}.st28{clip-path:url(#SVGID_61_);fill:#ffeba6}.st29{clip-path:url(#SVGID_63_);fill:#ffcb10}.st30{clip-path:url(#SVGID_65_)}</style><defs><path id="SVGID_1_" d="M0 0h174v174H0z"/></defs><clipPath id="SVGID_2_"><use xlink:href="#SVGID_1_" overflow="visible"/></clipPath><g class="st0"><g class="st1"><defs><path id="SVGID_3_" class="st1" d="M0 39.9h134.2v134.2H0z"/></defs><clipPath id="SVGID_4_"><use xlink:href="#SVGID_3_" overflow="visible"/></clipPath><g class="st2"><defs><path id="SVGID_5_" d="M0 39.9h134.2v134.2H0z"/></defs><clipPath id="SVGID_6_"><use xlink:href="#SVGID_5_" overflow="visible"/></clipPath><path class="st3" d="M134.2 159.6c-6.8 6.6-16.1 10.7-26.3 10.7H3.8V66.1c0-10.3 4.1-19.5 10.7-26.3l-3.7 3.7C4.1 50.3.1 59.6.1 69.8V174h104.2c10.4 0 19.7-4.1 26.5-10.9l3.4-3.5z"/></g></g><defs><path id="SVGID_7_" d="M0 0h174v174H0z"/></defs><clipPath id="SVGID_8_"><use xlink:href="#SVGID_7_" overflow="visible"/></clipPath><path class="st4" d="M73.1 0C60.5 0 48.5 5 39.4 14.1c-9 9-14.1 21-14.1 33.6v101.2h101c26.4 0 47.8-21.4 47.8-47.7V0h-101z"/><defs><path id="SVGID_9_" d="M126.3 148.7h-101L3.8 170.3H108c10.3 0 19.5-4.1 26.3-10.7l15.8-15.8-.8-.8c-6.9 3.7-14.7 5.7-23 5.7"/></defs><clipPath id="SVGID_10_"><use xlink:href="#SVGID_9_" overflow="visible"/></clipPath><linearGradient id="SVGID_11_" gradientUnits="userSpaceOnUse" x1="-18.239" y1="-180.816" x2="-16.858" y2="-180.816" gradientTransform="rotate(-90 1742.535 -1935.233) scale(19.9142)"><stop offset="0" stop-color="#10b0e6"/><stop offset=".159" stop-color="#0faae1"/><stop offset=".368" stop-color="#0c9ad2"/><stop offset=".604" stop-color="#077fba"/><stop offset=".858" stop-color="#015999"/><stop offset=".89" stop-color="#005494"/><stop offset="1" stop-color="#005494"/></linearGradient><path class="st5" d="M3.8 142.9H150v27.3H3.8z"/><defs><path id="SVGID_12_" d="M14.5 39.9c-6.6 6.7-10.7 16-10.7 26.2v104.2l21.5-21.5V47.6c0-8.1 2.1-15.8 5.9-22.8l-.7-.8-16 15.9z"/></defs><clipPath id="SVGID_13_"><use xlink:href="#SVGID_12_" overflow="visible"/></clipPath><linearGradient id="SVGID_14_" gradientUnits="userSpaceOnUse" x1="-20.73" y1="-181.933" x2="-19.349" y2="-181.933" gradientTransform="matrix(0 -106.3936 106.3938 0 19373.996 -2034.014)"><stop offset="0" stop-color="#0081bd"/><stop offset=".393" stop-color="#006fac"/><stop offset=".85" stop-color="#005494"/><stop offset="1" stop-color="#005494"/></linearGradient><path class="st6" d="M3.8 24h27.3v146.2H3.8z"/><g><defs><path id="SVGID_15_" d="M126.3 148.7h-101L3.8 170.3H108c10.3 0 19.5-4.1 26.3-10.7l15.8-15.8-.8-.8c-6.9 3.7-14.7 5.7-23 5.7"/></defs><clipPath id="SVGID_16_"><use xlink:href="#SVGID_15_" overflow="visible"/></clipPath><linearGradient id="SVGID_17_" gradientUnits="userSpaceOnUse" x1="-21.266" y1="-182.618" x2="-19.885" y2="-182.618" gradientTransform="matrix(104.7805 0 0 104.7804 2232.659 19291.434)"><stop offset="0" stop-color="#10b0e6"/><stop offset=".161" stop-color="#0faae1"/><stop offset=".372" stop-color="#0c9ad2"/><stop offset=".61" stop-color="#077fba"/><stop offset=".867" stop-color="#015999"/><stop offset=".9" stop-color="#005494"/><stop offset="1" stop-color="#005494"/></linearGradient><path class="st7" d="M3.8 142.9H150v27.3H3.8z"/></g><g><defs><path id="SVGID_18_" d="M14.5 39.9c-6.6 6.7-10.7 16-10.7 26.2v104.2l21.5-21.5V47.6c0-8.1 2.1-15.8 5.9-22.8l-.7-.8-16 15.9z"/></defs><clipPath id="SVGID_19_"><use xlink:href="#SVGID_18_" overflow="visible"/></clipPath><linearGradient id="SVGID_20_" gradientUnits="userSpaceOnUse" x1="-20.73" y1="-181.933" x2="-19.349" y2="-181.933" gradientTransform="matrix(0 -106.3936 106.3938 0 19373.996 -2034.014)"><stop offset="0" stop-color="#0081bd"/><stop offset=".393" stop-color="#006fac"/><stop offset=".85" stop-color="#005494"/><stop offset="1" stop-color="#005494"/></linearGradient><path class="st8" d="M3.8 24h27.3v146.2H3.8z"/></g><g><defs><path id="SVGID_21_" d="M73.1 6.1c-22.9 0-41.7 19-41.7 41.5v95.1h94.9c23 0 41.7-18.7 41.7-41.7V6.1H73.1z"/></defs><clipPath id="SVGID_22_"><use xlink:href="#SVGID_21_" overflow="visible"/></clipPath><linearGradient id="SVGID_23_" gradientUnits="userSpaceOnUse" x1="-20.895" y1="-182.292" x2="-19.515" y2="-182.292" gradientTransform="scale(139.599 139.5989) rotate(-45 210.942 -116.135)"><stop offset="0" stop-color="#67cdf5"/><stop offset=".035" stop-color="#63c9f2"/><stop offset=".482" stop-color="#2d97d0"/><stop offset=".817" stop-color="#0c78bb"/><stop offset="1" stop-color="#006cb3"/><stop offset="1" stop-color="#006cb3"/></linearGradient><path class="st9" d="M-36.9 74.4L99.7-62.2 236.3 74.4 99.7 211z"/><g><defs><path id="SVGID_24_" d="M73.1 6.1c-22.9 0-41.7 19-41.7 41.5v95.1h94.9c23 0 41.7-18.7 41.7-41.7V6.1H73.1z"/></defs><clipPath id="SVGID_25_"><use xlink:href="#SVGID_24_" overflow="visible"/></clipPath><path class="st10" d="M18.7 130.2h154v38.1h-154z"/></g></g><g><defs><path id="SVGID_26_" d="M93.2 137c0 2.5 12.3 4.6 27.6 4.6 7.9 0 15-.5 20-1.4 2.6-.9 5.1-2.2 7.4-3.6-1.6-2.3-13.3-4-27.4-4-15.3-.1-27.6 1.9-27.6 4.4"/></defs><clipPath id="SVGID_27_"><use xlink:href="#SVGID_26_" overflow="visible"/></clipPath><radialGradient id="SVGID_28_" cx="-18.723" cy="-200.128" r="1.381" gradientTransform="matrix(13.8056 0 0 3.8775 379.025 912.698)" gradientUnits="userSpaceOnUse"><stop offset="0" stop-color="#75301a"/><stop offset=".378" stop-color="#78311b"/><stop offset=".684" stop-color="#82341d"/><stop offset=".963" stop-color="#933a20"/><stop offset="1" stop-color="#963b21"/></radialGradient><path class="st11" d="M93.2 132.5h55v9h-55z"/></g><g><defs><path id="SVGID_29_" d="M45.2 137c0 2.4 12.1 4.2 26.9 4.2 14.9 0 26.9-1.9 26.9-4.2 0-2.4-12.1-4.2-26.9-4.2-14.9 0-26.9 1.8-26.9 4.2"/></defs><clipPath id="SVGID_30_"><use xlink:href="#SVGID_29_" overflow="visible"/></clipPath><radialGradient id="SVGID_31_" cx="-19.659" cy="-201.287" r="1.381" gradientTransform="matrix(13.4986 0 0 3.6445 337.258 870.262)" gradientUnits="userSpaceOnUse"><stop offset="0" stop-color="#75301a"/><stop offset=".378" stop-color="#78311b"/><stop offset=".684" stop-color="#82341d"/><stop offset=".963" stop-color="#933a20"/><stop offset="1" stop-color="#963b21"/></radialGradient><path class="st12" d="M45.2 132.8h54v8.5h-54z"/></g><g><defs><path id="SVGID_32_" d="M0 0h174v174H0z"/></defs><clipPath id="SVGID_33_"><use xlink:href="#SVGID_32_" overflow="visible"/></clipPath><path class="st13" d="M161.2 88.3c-.2-2.1-2.7-2.7-4.2-3.5-6.2-3-5.6-10.7-7.9-16.3-2-4.6-4.8-8.7-8.2-12.3-3.6-4.3-5-5.7-17.1-12.1-9.1-4.1-19.4-6.2-29.4-6.2-24.6 0-45.8 12-53.9 28.8-.5 1-.9 2.1-1.3 3.2-1.5 3.9-2.3 8.1-2.3 12.3 0 .9 0 1.8.1 2.7 6 6.2 12.1 10.8 18.4 14.3 1.6.8 3.2 1.7 4.8 2.4 2 .9 3.9 1.7 6 2.3 1.2.4 2.4.7 3.6 1.1 1.6.4 3.2.8 4.8 1.1l3.6.6c-1.1-.2-2.4-.4-3.6-.6-1.6-.3-3.2-.7-4.8-1.1-1.2-.3-2.4-.7-3.6-1.1-2-.6-3.9-1.4-6-2.3-1.6-.7-3.2-1.4-4.8-2.4-6.3-3.4-12.5-8.1-18.4-14.3.2 3.1.9 6 1.9 8.9C43.1 108 62.1 137 66.2 137h12.7c1.7 0 2.8-.6 3.6-1.6 1-1.2 1.3-3.2 1.2-5.1 0-1.1-.4-5.4-.2-6.5.1-.3.2-2 .4-2.2v-.1c3.3.5 6.8 1.3 10.4 1.3 4.2 0 8.4-.3 12.6-1 .7 3.6 2.6 15.1 6.1 15.1l11.6-.1c1.7 0 5.7-.6 6.6-1.9.4-.5.6-1.2.8-2 .6-4-.1-8.2-.4-12.3V119c0-.7.2-1.4.4-2.2.3-.9 1-1.8 1.8-2.6 1.4-1 2.9-2.2 4.1-3.5 3.8-3.7 4.7-4.9 10.3-6.1 3.3-.7 6.4-2.3 9.5-3.8 1.4-.7 2-2 2-3.5v-.2c0-2.1.1-3.8.7-5.8.4-.8.9-1.8.8-3m-78.4 19c2 .2 3.9.2 5.9.2-2 .1-4 0-5.9-.2m47-8.4c-.3.1-.7.3-1 .4-5.3 2-11.3 3.9-17.6 5.5-2.5.6-5 1.1-7.6 1.6-1.1.2-2.2.3-3.3.5-1.9.2-3.7.4-5.7.5-.7 0-1.6.1-2.3.1.7 0 1.6-.1 2.3-.1 1.9-.1 3.8-.3 5.7-.5 1.1-.1 2.3-.3 3.3-.5 2.6-.4 5.1-.9 7.6-1.6 6.5-1.6 12.5-3.5 17.6-5.5.2-.1.6-.2 1-.4 4.7-1.8 9.3-3.8 14.2-4.5-5 .7-9.7 2.7-14.2 4.5m16.4-4.7h1.8-1.8m8.5 1.4c-.5-.2-1.1-.3-1.7-.5.7.1 1.2.3 1.7.5s1.1.3 1.7.5c-.5-.2-1-.4-1.7-.5"/><g><defs><path id="SVGID_34_" d="M0 0h174v174H0z"/></defs><clipPath id="SVGID_35_"><use xlink:href="#SVGID_34_" overflow="visible"/></clipPath><path class="st14" d="M38.3 71.2c-1.2-.7-2.2-2-2.9-3.5 2.8-1.2 5.2-3.3 7-6.2 1.6-2.4 1.7-5.1.3-7-.7-.9-2.4-2.6-6-2.2-1.9.2-3.4 1-4.7 2.4-2.2 2.5-2.6 6.4-2.3 9 0 .4.1.8.2 1.2-2.2.1-3.9 0-6.2-.4-1-.2-2.3-.7-3.2-1.1l-6.7-3.1c2.9 3.6 13.1 9.1 17.2 8.6 1 2.5 2.6 4.5 4.7 5.7 1.6.9 3.3 1.4 5.1 1.7.4-1.3.9-2.7 1.8-3.9-1.5-.1-3-.4-4.3-1.2m-4-8c-.2-2 .1-4.7 1.3-6 .4-.5.9-.8 1.7-.8h.4c.5 0 .7.2 1 .5.3.5.4 1.7-.3 2.8-1.2 2-2.3 3.2-3.9 4.1-.2-.3-.2-.5-.2-.6"/></g><g><defs><path id="SVGID_36_" d="M0 0h174v174H0z"/></defs><clipPath id="SVGID_37_"><use xlink:href="#SVGID_36_" overflow="visible"/></clipPath><g class="st15"><g class="st16"><defs><path id="SVGID_38_" class="st16" d="M44.1 46.6h29.8v30H44.1z"/></defs><clipPath id="SVGID_39_"><use xlink:href="#SVGID_38_" overflow="visible"/></clipPath><g class="st17"><defs><path id="SVGID_40_" d="M44.1 46.6h29.8v30H44.1z"/></defs><clipPath id="SVGID_41_"><use xlink:href="#SVGID_40_" overflow="visible"/></clipPath><path class="st18" d="M55.6 55c-6.9 5.8-9.2 9.9-10.8 15.6-.2.7-.3 1.3-.4 2-.2 1.3-.3 2.7-.3 4v-.2c1.7-6.3 5.9-11.8 12.4-16.8 4.9-3.7 12.2-7.6 17.4-8.8-2.4-1.3-2.8-3-3-4.3.2.1-9.6 3.7-15.3 8.5"/></g></g><defs><path id="SVGID_42_" d="M0 0h174v174H0z"/></defs><clipPath id="SVGID_43_"><use xlink:href="#SVGID_42_" overflow="visible"/></clipPath><path class="st19" d="M140 72.6c-1.7.3-2.7 2.5-2.3 4.8.4 2.4 2.1 4 3.7 3.8 1.7-.3 2.7-2.5 2.3-4.8-.3-2.3-2-4-3.7-3.8"/><defs><path id="SVGID_44_" d="M0 0h174v174H0z"/></defs><clipPath id="SVGID_45_"><use xlink:href="#SVGID_44_" overflow="visible"/></clipPath><path class="st20" d="M118 48.7c3.9 6.6 11.4 9.8 17.6 7.6.6-.2 1-.9.9-1.7-.4-2.8-.4-5.3.2-7.8.5-2.3 1.7-4.5 3.6-6.6 1.3-1.6-.6-4.1-2.9-4.6-2.6-.4-5.3.1-7.1 1.4-6.4 4.6-11.3 9.5-11.8 10-.7.8-.9 1-.5 1.7"/><defs><path id="SVGID_46_" d="M0 0h174v174H0z"/></defs><clipPath id="SVGID_47_"><use xlink:href="#SVGID_46_" overflow="visible"/></clipPath><path class="st21" d="M127.8 52.2c1.8-1.6 4-2.6 6.4-2.8-.1-.7-.3-1.4-.2-2 .3-2.4 1.6-3.6 3-5.5.3-.3.8-1.3 1-1.8.6-1.8-2.8-1.8-3.8-1.6-2.6.5-5.5 2.7-7.2 5.4-1.9 2.8-1.7 6.4.8 8.3"/><defs><path id="SVGID_48_" d="M0 0h174v174H0z"/></defs><clipPath id="SVGID_49_"><use xlink:href="#SVGID_48_" overflow="visible"/></clipPath><path class="st22" d="M107.3 42.9c-6.6-2.2-19.7-2-26.4.4-1.1.4-1.6 1.6-.7 2.4l.1.1c.6.6 1.7.8 2.5.5 5.5-2.1 17.6-2.5 23-.4.8.3 1.9.1 2.4-.5v-.1c.7-.9.2-2.1-.9-2.4"/><g><defs><path id="SVGID_50_" d="M0 0h174v174H0z"/></defs><clipPath id="SVGID_51_"><use xlink:href="#SVGID_50_" overflow="visible"/></clipPath><path class="st23" d="M84.8 45.7c3.3-.8 6.7-1.2 10-1.2 2.9 0 5.7.3 8.5.9 3.7-2.9 6.2-7.4 6.2-12.4 0-8.7-7-15.7-15.7-15.7s-15.7 7-15.7 15.7c0 5.1 2.7 9.9 6.7 12.7"/></g><g><defs><path id="SVGID_52_" d="M0 0h174v174H0z"/></defs><clipPath id="SVGID_53_"><use xlink:href="#SVGID_52_" overflow="visible"/></clipPath><path class="st24" d="M86.6 45.3c2.7-.6 5.5-.8 8.3-.8 2.1 0 4.1.2 6.2.5 4-2.5 6.6-6.9 6.6-12 0-7.9-6.4-14.3-14.3-14.3S79.1 25.1 79.1 33c.1 5.2 3.1 9.9 7.5 12.3"/></g><g><defs><path id="SVGID_54_" d="M0 0h174v174H0z"/></defs><clipPath id="SVGID_55_"><use xlink:href="#SVGID_54_" overflow="visible"/></clipPath><path class="st25" d="M87.3 45.2c2.5-.5 5.1-.7 7.6-.7 2.3 0 4.6.2 6.7.5 4-2.5 6.7-7 6.7-12.1 0-7.9-6.2-14.3-14-14.3s-14 6.4-14 14.3c.1 5.2 2.9 9.8 7 12.3"/></g><g><defs><path id="SVGID_56_" d="M0 0h174v174H0z"/></defs><clipPath id="SVGID_57_"><use xlink:href="#SVGID_56_" overflow="visible"/></clipPath><path class="st26" d="M86.9 45.3c2.6-.5 5.3-.8 8-.8 2.2 0 4.2.2 6.2.5 3.9-2.5 6.5-6.9 6.5-12 0-7.9-6.2-14.3-14-14.3-7.7 0-14 6.4-14 14.3.2 5.1 3 9.8 7.3 12.3"/></g><g><defs><path id="SVGID_58_" d="M0 0h174v174H0z"/></defs><clipPath id="SVGID_59_"><use xlink:href="#SVGID_58_" overflow="visible"/></clipPath><path class="st27" d="M90.6 44.6c1.3-.1 2.8-.2 4.1-.2 1 0 2 0 3 .1 5-1.6 8.5-6.2 8.5-11.7 0-6.8-4.9-12.3-12.3-12.3-6.8 0-12.3 5.5-12.3 12.3.2 5.6 4 10.4 9 11.8"/></g><g><defs><path id="SVGID_60_" d="M0 0h174v174H0z"/></defs><clipPath id="SVGID_61_"><use xlink:href="#SVGID_60_" overflow="visible"/></clipPath><path class="st28" d="M90.3 44.6c1.4-.2 3-.3 4.5-.3.8 0 1.7 0 2.5.1 4.8-1.7 8.2-6.2 8.2-11.7 0-6.8-5.4-12.3-12-12.3s-12 5.5-12 12.3c0 5.8 3.7 10.6 8.8 11.9"/></g><g><defs><path id="SVGID_62_" d="M0 0h174v174H0z"/></defs><clipPath id="SVGID_63_"><use xlink:href="#SVGID_62_" overflow="visible"/></clipPath><path class="st29" d="M90.6 44.6c1.3-.1 2.8-.2 4.1-.2.9 0 1.9 0 2.8.1 4.8-1.6 8.3-6.2 8.3-11.7 0-6.8-5.4-12.3-11.9-12.3C87.3 20.5 82 26 82 32.8c0 5.6 3.7 10.4 8.6 11.8"/></g><g><defs><path id="SVGID_64_" d="M94.5 107.4c1.9-.1 3.8-.3 5.7-.5 1.1-.1 2.3-.3 3.3-.5 2.6-.4 5.1-.9 7.6-1.6 6.4-1.6 12.3-3.5 17.4-5.4-5.3 2-11.2 3.9-17.4 5.4-2.5.6-5 1.1-7.6 1.6-1.1.2-2.2.3-3.3.5-1.9.2-3.9.4-5.7.5-.7 0-1.6.1-2.3.1.7 0 1.4-.1 2.3-.1m34.1-8.1c.3-.1.7-.3 1-.4 4.7-1.8 9.3-3.8 14.2-4.5-4.9.6-9.5 2.7-14.2 4.5-.2.2-.6.3-1 .4m18-5.1h-.3.3m.3 0zM40.4 66.8c-.5 1-.9 2.1-1.3 3.2-1.5 3.9-2.3 8.1-2.3 12.3 0 .9 0 1.8.1 2.7.2 3.1.9 6 1.9 8.9 4.2 14.2 23.3 43.2 27.3 43.2h12.7c1.7 0 2.8-.6 3.6-1.6 1-1.2 1.3-3.2 1.2-5.1 0-1.1-.4-5.4-.2-6.5.1-.3.2-2 .4-2.2v-.1c3.3.5 6.8 1.3 10.4 1.3 4.2 0 8.4-.3 12.6-1 .7 3.6 2.6 15.1 6.1 15.1l11.6-.1c1.7 0 5.7-.6 6.6-1.9.4-.5.6-1.2.8-2 .6-4-.1-8.2-.4-12.3v-1.6c0-.7.2-1.4.4-2.2.3-.9 1-1.8 1.8-2.6 1.4-1 2.9-2.2 4.1-3.5 3.8-3.7 4.7-4.9 10.3-6.1 3.3-.7 6.4-2.3 9.5-3.8 1.4-.7 2-2 2-3.5v-.2c0-2.1.1-3.8.7-5.8.3-1.1.8-2.2.7-3.3-.2-2.1-2.7-2.7-4.2-3.5-6.2-3-5.6-10.7-7.9-16.3-2-4.6-4.8-8.7-8.2-12.3-3.6-4.3-5-5.7-17.1-12.1-9.1-4.1-19.4-6.2-29.4-6.2C69.6 38 48.6 50 40.4 66.8"/></defs><clipPath id="SVGID_65_"><use xlink:href="#SVGID_64_" overflow="visible"/></clipPath><g class="st30"><defs><path id="SVGID_66_" d="M36.8 84.9h123v52.2h-123z"/></defs><clipPath id="SVGID_67_"><use xlink:href="#SVGID_66_" overflow="visible"/></clipPath></g></g></g></g></g></g></svg>