<svg id="Layer_1" xmlns="http://www.w3.org/2000/svg" xmlns:xlink="http://www.w3.org/1999/xlink" viewBox="0 0 300 600"><style>.st0,.st1{fill:#fff}.st1{clip-path:url(#SVGID_2_)}.st2{clip-path:url(#SVGID_4_);fill:url(#SVGID_5_)}.st3{clip-path:url(#SVGID_7_);fill:url(#SVGID_8_)}.st4{clip-path:url(#SVGID_10_);fill:url(#SVGID_11_)}</style><path class="st0" d="M97.9 541.1v5.1h-9v24.4h-5.7v-24.4h-9v-5.1h23.7zm2.4 29.5h5.7V541h-5.7v29.6zm35.2 0h-5.9l-3-7.3h-10l-3 7.3h-5.7l12.6-29.9h2.5l12.5 29.9zm27.7 0h-5.9l-3-7.3h-10l-3 7.3h-5.7l12.6-29.9h2.5l12.5 29.9zm-38.5-12.1l-3-7.4-3 7.4h6zm27.6 0l-3-7.4-3 7.4h6z"/><defs><path id="SVGID_1_" d="M26 529h144.8v49.3H26z"/></defs><clipPath id="SVGID_2_"><use xlink:href="#SVGID_1_" overflow="visible"/></clipPath><path class="st1" d="M53.4 572.5c2.5 0 4.8-1 6.5-2.7l7-7c1.6-1.6 2.6-3.9 2.6-6.3v-21.8H47.8c-2.5 0-4.8 1-6.5 2.7l-7 7c-1.6 1.6-2.6 3.9-2.6 6.3v21.8h21.7z"/><defs><path id="SVGID_3_" d="M50.3 536.6c-3.9 0-7.1 3.2-7.2 7.1v2.4H58V561h2.4c4 0 7.2-3.2 7.2-7.2v-17.3H50.3z"/></defs><clipPath id="SVGID_4_"><use xlink:href="#SVGID_3_" overflow="visible"/></clipPath><linearGradient id="SVGID_5_" gradientUnits="userSpaceOnUse" x1="1.951" y1="601.037" x2="3.284" y2="601.037" gradientTransform="scale(18.039 -18.039) rotate(45 764.94 286.206)"><stop offset="0" stop-color="#9eddf9"/><stop offset=".1" stop-color="#9eddf9"/><stop offset=".9" stop-color="#0b9eda"/><stop offset="1" stop-color="#0b9eda"/></linearGradient><path class="st2" d="M30.9 548.8l24.5-24.4 24.4 24.4-24.4 24.5z"/><g><defs><path id="SVGID_6_" d="M60.5 563H41.2l-7.6 7.6h19.8c1.9 0 3.7-.8 5.1-2.2L65 562l-.2-.2c-1.3.8-2.8 1.2-4.3 1.2"/></defs><clipPath id="SVGID_7_"><use xlink:href="#SVGID_6_" overflow="visible"/></clipPath><linearGradient id="SVGID_8_" gradientUnits="userSpaceOnUse" x1="1.315" y1="601.402" x2="2.648" y2="601.402" gradientTransform="matrix(23.517 0 0 -23.517 2.692 14709.385)"><stop offset="0" stop-color="#1db0e6"/><stop offset=".115" stop-color="#1dace2"/><stop offset=".265" stop-color="#1ba1d7"/><stop offset=".434" stop-color="#1790c7"/><stop offset=".618" stop-color="#137ab4"/><stop offset=".811" stop-color="#06619f"/><stop offset=".9" stop-color="#025595"/><stop offset="1" stop-color="#025595"/></linearGradient><path class="st3" d="M33.6 561.9H65v8.7H33.6z"/></g><g><defs><path id="SVGID_9_" d="M35.8 545.7c-1.4 1.4-2.2 3.2-2.2 5.1v19.8l7.6-7.6v-19.2c0-1.6.4-3.1 1.1-4.3l-.2-.2-6.3 6.4z"/></defs><clipPath id="SVGID_10_"><use xlink:href="#SVGID_9_" overflow="visible"/></clipPath><linearGradient id="SVGID_11_" gradientUnits="userSpaceOnUse" x1="1.355" y1="600.639" x2="2.688" y2="600.639" gradientTransform="matrix(0 -23.5174 -23.5174 0 14163.416 602.463)"><stop offset="0" stop-color="#0882be"/><stop offset=".22" stop-color="#0778b4"/><stop offset=".656" stop-color="#02609e"/><stop offset=".85" stop-color="#025595"/><stop offset="1" stop-color="#025595"/></linearGradient><path class="st4" d="M33.6 539.2h8.7v31.4h-8.7z"/></g></svg>