<svg xmlns="http://www.w3.org/2000/svg" width="300" height="50" viewBox="0 0 300 50"><path d="M273.65 46.5c-.7 0-1.3-.49-1.3-1.39 0-1.02.75-2.11 1.77-2.64l.54.25c-.72.36-1.28.87-1.57 1.54.14-.14.34-.25.59-.25.73 0 1.23.55 1.23 1.24.01.72-.53 1.25-1.26 1.25zm0-1.98c-.3 0-.64.11-.74.53-.01.07-.01.13-.01.2 0 .43.36.79.75.79.4 0 .71-.31.71-.76.01-.43-.29-.76-.71-.76zm3.16 1.99c-.7 0-1.31-.64-1.31-1.99 0-1.34.61-1.99 1.31-1.99.68 0 1.31.64 1.31 1.99s-.62 1.99-1.31 1.99zm0-3.49c-.39 0-.75.42-.75 1.5 0 1.09.37 1.5.75 1.5s.76-.41.76-1.5c0-1.08-.37-1.5-.76-1.5zm2.84 3.48c-.29 0-.57-.07-.73-.15l-.06-.54c.24.14.49.21.75.21.44 0 .82-.28.82-.76 0-.49-.38-.79-.8-.79-.28 0-.48.04-.66.1l.06-1.97h1.67l-.1.47h-1.05l-.02.93c.05-.01.11-.01.16-.01.71 0 1.3.48 1.3 1.27.01.66-.46 1.24-1.34 1.24zm2.6.05l-.54-.25c.73-.37 1.3-.86 1.58-1.54a.84.84 0 0 1-.61.25c-.73 0-1.23-.55-1.23-1.24 0-.72.54-1.25 1.27-1.25.7 0 1.3.49 1.3 1.39.01 1.03-.74 2.12-1.77 2.64zm.46-3.53c-.4 0-.71.31-.71.76 0 .43.29.76.71.76.31 0 .63-.13.74-.55.01-.06.01-.12.01-.19a.775.775 0 0 0-.75-.78zm3.18 3.48c-.7 0-1.3-.49-1.3-1.39 0-1.02.75-2.11 1.77-2.64l.54.25c-.72.36-1.28.87-1.57 1.54.14-.14.34-.25.59-.25.73 0 1.23.55 1.23 1.24.01.72-.53 1.25-1.26 1.25zm0-1.98c-.3 0-.64.11-.74.53-.01.07-.01.13-.01.2 0 .43.36.79.75.79.4 0 .71-.31.71-.76.01-.43-.29-.76-.71-.76zm2.53 1.91h-.59l1.45-3.36h-1.76v-.47h2.54l-1.64 3.83zm3.41.07c-.49 0-.97-.19-1.16-.34v-3.99h.55v1.71c.1-.11.46-.23.75-.23.79 0 1.36.59 1.36 1.4 0 .85-.58 1.45-1.5 1.45zm.08-2.36c-.37 0-.61.17-.7.27v1.47c.09.06.35.14.56.14.63 0 1-.38 1-.97 0-.52-.37-.91-.86-.91z" fill="#231F20"/></svg>