<svg id="Layer_1" xmlns="http://www.w3.org/2000/svg" xmlns:xlink="http://www.w3.org/1999/xlink" viewBox="0 0 21.6 21.6" width="27" height="27"><style>.st0{fill:#f2cd1b}.st0,.st1,.st2,.st3,.st4{clip-path:url(#SVGID_2_)}.st1{fill:#d29448}.st2{fill:#f9dd30}.st3{fill:#f8e36a}.st4{fill:#f8b019}.st5{clip-path:url(#SVGID_4_);fill:url(#SVGID_5_)}.st6{clip-path:url(#SVGID_7_);fill:#f8b019}</style><defs><path id="SVGID_1_" d="M0 0h21.6v21.6H0z"/></defs><clipPath id="SVGID_2_"><use xlink:href="#SVGID_1_" overflow="visible"/></clipPath><path class="st0" d="M21.5 10.8v.9c-.1 1.3-.4 2.4-.9 3.5 0 .1-.1.2-.1.2l-.3.6c0 .1-.1.2-.1.2 0 .1-.1.1-.1.2s-.1.1-.1.2c0 0 0 .1-.1.1 0 .1-.1.1-.1.2l-.1.1-.2.2-.1.1-.1.1c-.1.1-.1.2-.2.2l-.3.3-.3.3c-.4.4-.9.8-1.4 1.1-.1.1-.2.1-.2.2-.1.1-.3.2-.4.2l-.1.1c-1.5.9-3.2 1.4-5.1 1.5H9c-.1 0-.3 0-.4-.1H8.3c-.2 0-.3-.1-.5-.1s-.3-.1-.5-.1h-.1c-.1 0-.2-.1-.2-.1-.1 0-.2-.1-.2-.1-.1 0-.2-.1-.2-.1-.1 0-.2-.1-.2-.1s-.1 0-.1-.1c0 0-.1 0-.1-.1 0 0-.1 0-.1-.1-.1 0-.1-.1-.2-.1s-.1-.1-.2-.1l-.9-.6-.1-.1c-.1-.1-.3-.2-.4-.3l-.1-.1c-.1-.1-.2-.1-.2-.2-.1-.1-.2-.1-.2-.2l-.2-.2-.1-.1c-.5-.1-.6-.2-.7-.3-.6-.7-1.2-1.5-1.6-2.3 0-.1-.1-.2-.1-.2-.1-.2-.1-.3-.1-.4 0-.1-.1-.1-.1-.2s-.1-.1-.1-.2-.1-.2-.1-.4c0-.1 0-.1-.1-.2 0-.1 0-.1-.1-.2 0-.1-.1-.3-.1-.4 0-.1 0-.1-.1-.2v-2.5c0-3.2 1.4-6 3.5-8l.2-.2.1-.1c-.2 0-.1 0 0-.1l.1-.1h.1l.1-.1.3-.3c.1 0 .2-.1.3-.2.1-.1.2-.1.3-.2.1 0 .1-.1.2-.1.1-.1.2-.1.3-.2.3-.1.5-.2.7-.3.1 0 .2-.1.3-.1.2-.1.4-.2.6-.2.1 0 .1 0 .2-.1.3-.1.4-.1.6-.2.2 0 .4-.1.6-.1H9c.1 0 .3 0 .4-.1.5 0 .9-.1 1.4-.1H12c.1 0 .3 0 .4.1h.1c.6.1 1.1.2 1.7.4.2.1.4.2.6.2.1 0 .2.1.3.1 0 0 .1 0 .1.1.1 0 .2.1.2.1.1 0 .2.1.2.1s.1 0 .1.1c.2.1.3.2.5.3l.1.1c.1 0 .1.1.2.1s.1.1.2.1c.3.2.4.3.6.4.1 0 .1.1.2.1.1.1.2.2.3.2l.1.1.2.2.1.1.1.1.1.1.1.1.1.1.1.1.1.1.1.1.1.1.1.1.1.1c.1.1.1.2.2.2l.1.1.1.1v.1c0 .1.1.1.1.1v.1l.1.1v.2l.1.1v.2l.1.1c0 .1.1.2.1.3 0 0 0 .1.1.1 0 0 0 .1.1.1 0 0 0 .1.1.1 0 0 0 .1.1.1 0 0 0 .1.1.1.1.1.1.3.2.4v.1c.2.7.2.9.3 1.1v.7c.1.2.1.4.1.7 0 .2.1.3.1.5v.9c.2.2.2.2.2.3"/><path class="st1" d="M20.4 10.8c0 5.3-4.3 9.6-9.6 9.6s-9.6-4.3-9.6-9.6 4.3-9.6 9.6-9.6 9.6 4.3 9.6 9.6"/><path class="st2" d="M20.4 11.5c0 5.3-4.3 9.6-9.6 9.6s-9.6-4.3-9.6-9.6 4.3-9.6 9.6-9.6 9.6 4.3 9.6 9.6"/><path class="st3" d="M10.8 1.9v19.2c5.3 0 9.6-4.3 9.6-9.6v-.4C20.2 6 16 1.9 10.8 1.9"/><path class="st0" d="M12 13c0 .4-.2.7-.6.9v-2.2c.4.3.6.6.6 1.1v.2m-.6-2.8l-.6.6-.4.4-.2.2v2.7c-.7 0-1.5-.3-1.9-.6l-.4 1.2s.1 0 .1.1c.6.3 1.4.5 2.2.5v.7h1.2v-.8c1.3-.3 2.1-1.1 2.1-2.3v-.2c0-1.2-.7-2-2.1-2.5"/><path class="st0" d="M1.3 9.6c0-.1 0-.2.1-.4v-.1c0-.1 0-.2.1-.3v-.2c0-.1.1-.2.1-.3v-.4c0-.1.1-.2.1-.3 0 0 0-.1.1-.1 0-.1.1-.1.1-.2C1.9 7 2 7 2 7c0-.1.1-.3.1-.4 0 0 0-.1.1-.1 0-.1.1-.1.1-.2 0 0 0-.1.1-.1.1-.1.2-.3.2-.4 0 0 0-.1.1-.1 0-.1.1-.1.1-.2.1-.2.2-.3.3-.5 0 0 0-.1.1-.1.5-.7 1.2-1.3 1.9-1.9.1 0 .2-.1.3-.2.6-.4 1.2-.7 1.9-1h.2c.1 0 .1-.1.2-.1s.1 0 .2-.1H8c.1 0 .2 0 .2-.1.1 0 .2 0 .2-.1h.1c.1 0 .2 0 .2-.1h4.5c.1 0 .2.1.4.1.1 0 .1 0 .2.1s.1 0 .2.1h.2c.1 0 .1 0 .2.1.1 0 .2.1.2.1h.3s.1 0 .1.1c.1 0 .1.1.2.1 0 0 .1 0 .1.1.1 0 .1.1.2.1s.1.1.2.1c.1.1.2.1.3.2.1.1.3.2.4.3 0 0 .1 0 .1.1l.1.1c.1.1.2.1.2.2l.1.1.2.2.1.1.1.1.1.1.1.1.1.1.1.1.1.1.1.1.2.2s.1.1.1.2l.1.1.1.1s0 .1.1.1c0 0 .1.1.1.2v.1c0 .1.1.1.1.2 0 0 0 .1.1.1 0 0 0 .1.1.1v.6s0 .1.1.1v.1s0 .1.1.1v4.6c0 .2 0 .4-.1.6v.6c-.9 3.9-4.2 7-8.2 7.4H9.6c-.5 0-1.1 0-1.6-.1h-.2c-.1 0-.2 0-.3-.1h-.3c-.1 0-.1 0-.2-.1-.3-.1-.6-.2-.8-.3-.1 0-.1 0-.2-.1-.1 0-.1-.1-.2-.1 0 0-.1 0-.1-.1h-.2c-.1 0-.1-.1-.2-.1 0 0-.1 0-.1-.1 0 0-.1 0-.1-.1 0 0-.1 0-.1-.1 0 0-.1 0-.1-.1 0 0-.1 0-.1-.1l-.1-.1s-.1 0-.1-.1c0 0-.1 0-.1-.1l-.1-.1c-.1 0-.1-.1-.2-.1l-.1-.1c-.1 0-.1-.1-.2-.1l-.1-.1-.1-.1-.1-.1-.1-.1-.1-.1-.2-.2-.1-.1-.2-.2s0-.1-.1-.1l-.1-.1-.1-.1c-.1-.1-.2-.3-.3-.4 0 0 0-.1-.1-.1-.6-.9-1.1-2-1.4-3.1 0-.1 0-.2-.1-.2v-.6c0-.1 0-.3-.1-.4 0-.2 0-.5-.1-.7v-1c.7.2.7 0 .8-.2m20.2 1V9.6c0-.2 0-.3-.1-.5 0-.2-.1-.4-.1-.7v-.7c-.3-.2-.3-.4-.4-.7v-.1c-.1-.1-.1-.3-.2-.4 0 0 0-.1-.1-.1 0 0 0-.1-.1-.1 0 0 0-.1-.1-.1 0 0 0-.1-.1-.1s0-.1-.1-.1c0-.1-.1-.2-.1-.3 0 0 0-.1-.1-.1v-.2l-.1-.1v-.2l-.1-.1v-.1c0-.1-.1-.1-.1-.1v-.1l-.1-.1-.1-.1c-.1-.1-.1-.2-.2-.2l-.1-.1-.1-.1L19 4s0-.1-.1-.1l-.1-.1-.1-.1-.1-.1-.1-.1-.1-.1-.1-.1-.1-.1L18 3s-.1 0-.1-.1c-.1 0-.1-.1-.2-.1s-.1-.1-.2-.1-.1-.1-.2-.1-.1-.1-.2-.1c-.1-.5-.1-.5-.2-.6s-.1-.1-.2-.1-.1-.1-.2-.1l-.1-.1c-.2-.1-.3-.2-.5-.3 0 0-.1 0-.1-.1-.1 0-.2-.1-.2-.1-.1 0-.2-.1-.2-.1s-.1 0-.1-.1c-.1 0-.2-.1-.3-.1-.2-.1-.4-.2-.6-.2-.5-.2-1.1-.3-1.7-.4h-.1c-.1 0-.3 0-.4-.1H11c-.5 0-.9 0-1.3.1-.1 0-.3 0-.4.1h-.2c-.2 0-.4.1-.6.1-.5 0-.6 0-.8.1-.1 0-.1 0-.2.1-.2 0-.4.1-.6.2-.1 0-.2.1-.3.1-.3.1-.5.2-.7.3-.1.1-.2.1-.3.2-.1 0-.2.1-.2.1-.2.1-.3.2-.4.2-.1.1-.2.2-.3.2l-.3.3-.1.1h-.1l-.1.1c-.1.1-.2.1-.2.2l-.1.1c-.1 0-.2.1-.2.1-2.2 2-3.5 4.8-3.5 8v2.5c0 .1 0 .1.1.2 0 .1.1.3.1.4 0 .1 0 .1.1.2 0 .1 0 .1.1.2 0 .1.1.2.1.4 0 .1.1.1.1.2.2.1.2.1.3.2.3.7.7 1.3 1.1 2 1.4 1.9 3.3 3.3 5.6 4 .2.1.3.1.5.1h.3c.1 0 .2 0 .3.1h2.3c1.9-.1 3.6-.6 5.1-1.5l.1-.1c.1-.1.3-.2.4-.2.1-.1.2-.1.2-.2.5-.3.9-.7 1.4-1.1l.3-.3.3-.3c.1-.1.1-.2.2-.2l.1-.1.1-.1.2-.2.1-.1c0-.1.1-.1.1-.2 0 0 0-.1.1-.1 0-.1.1-.1.1-.2s.1-.1.1-.2.1-.1.1-.2l.3-.6c0-.1.1-.2.1-.2.5-1.1.8-2.3.9-3.5v-.9c.1-.1.1-.1.1-.2"/><path class="st1" d="M11.4 14.2V12c.4.3.6.5.6.9v.2c0 .5-.2.9-.6 1.1M9.7 8.8c.1-.3.2-.6.6-.8v2c-.5-.3-.7-.6-.7-1 0 0 0-.1.1-.2m3.8 4.1c-.1-1.1-.8-1.8-2.1-2.4V7.9c.6.1 1.2.3 1.4.5l.4-1.1s-.1 0-.1-.1c-.4-.2-1-.4-1.7-.5V6h-1.2v.8c-.6.1-1.1.4-1.5.8-.3.4-.5.9-.5 1.4v.2c0 1 .7 1.8 2.1 2.3v2.9c-.7 0-1.5-.3-1.9-.6l-.4.9-.1.3c.6.3 1.4.6 2.3.6v.7h1.2v-.8c1.4-.3 2.1-1.2 2.1-2.4v-.2"/><path class="st4" d="M9.6 8.7c0-.4.2-.8.6-1v1.9c-.3-.2-.5-.4-.5-.8-.1 0-.1-.1-.1-.1M12 13c0 .4-.2.7-.6.9v-2.2c.4.3.6.6.6 1.1v.2m-.6-2.8l-.1-2.7c.7.1 1.2.3 1.5.5l.3-.8.1-.3c-.4-.2-1.1-.5-1.8-.5v-.8h-1.2v.8c-.7.2-1.2.5-1.6 1-.3.4-.4.9-.4 1.4V9c.1.9.7 1.6 2 2.2v2.9c-.7 0-1.5-.3-1.9-.6l-.4 1.2s.1 0 .1.1c.6.3 1.4.5 2.2.5v.7h1.2v-.8c1.3-.3 2.1-1.1 2.1-2.3v-.2c0-1.2-.7-2-2.1-2.5"/><defs><path id="SVGID_3_" d="M.1 10.8C.1 4.9 4.9.1 10.8.1s10.7 4.8 10.7 10.7-4.8 10.7-10.7 10.7S.1 16.7.1 10.8m-.1 0c0 5.6 4.4 10.3 9.9 10.7h1.8c5.3-.4 9.6-4.8 9.9-10.1v-1.3C21.2 4.5 16.5 0 10.8 0 4.8 0 0 4.8 0 10.8"/></defs><clipPath id="SVGID_4_"><use xlink:href="#SVGID_3_" overflow="visible"/></clipPath><linearGradient id="SVGID_5_" gradientUnits="userSpaceOnUse" x1="-115.228" y1="407.91" x2="-114.229" y2="407.91" gradientTransform="matrix(21.5586 0 0 -21.5586 2484.147 8804.712)"><stop offset="0" stop-color="#fff"/><stop offset=".854" stop-color="#faba40"/><stop offset="1" stop-color="#f8b019"/></linearGradient><path class="st5" d="M0 0h21.5v21.5H0z"/><g><defs><path id="SVGID_6_" d="M0 0h21.6v21.6H0z"/></defs><clipPath id="SVGID_7_"><use xlink:href="#SVGID_6_" overflow="visible"/></clipPath><path class="st6" d="M21.4 12.8c-.9 4.9-5.1 8.6-10.2 8.7h-.3c-1.3 0-2.5-.2-3.6-.6h-.1c-.1 0-.2-.1-.2-.1-.1 0-.2-.1-.2-.1-.1 0-.2-.1-.2-.1-.1 0-.2-.1-.2-.1s-.1 0-.1-.1c0 0-.1 0-.1-.1 0 0-.1 0-.1-.1-.1 0-.1-.1-.2-.1s-.1-.1-.2-.1l-.9-.6-.1-.1c-.1-.1-.3-.2-.4-.3l-.1-.1c-.1-.1-.2-.1-.2-.2-.1-.1-.2-.1-.2-.2l-.2-.2-.1-.1c-.2-.2-.4-.4-.6-.7 0 0 0-.1-.1-.1-.1-.1-.1-.2-.2-.2l-.1-.1-.1-.1.5-.5.3-.3s0 .1.1.1l.3.3.1.1.1.1.1.1.1.1.2.2.1.1.1.1.2.2.1.1.1.1s.1 0 .1.1c0 0 .1 0 .1.1 0 0 .1 0 .1.1.1.1.2.1.3.2 0 0 .1 0 .1.1.1.1.3.2.4.3 0 0 .1 0 .1.1 0 0 .1 0 .1.1-.2.1-.1.2.1.3.7.4 1.5.7 2.3.9.3.1.5.1.8.2h1.8c1-.1 2-.3 2.9-.6.1 0 .1-.1.2-.1h.1c.1 0 .2-.1.3-.1l.6-.3c.4-.2.9-.5 1.2-.8.3-.2.6-.5.9-.8.2-.2.5-.5.7-.8 0-.1.1-.1.1-.2.1-.1.1-.2.2-.3 0-.1.1-.1.1-.2.1-.1.1-.2.2-.3 0-.1.1-.1.1-.2.1-.1.1-.2.2-.3 0 0 0-.1.1-.1 0-.1.1-.1.1-.2s.1-.1.1-.2c.1-.1.1-.3.2-.4 0-.1.1-.1.1-.2v-.1c0-.1.1-.1.1-.2v-.1c0-.1.1-.3.1-.5 0-.1 0-.2.1-.2 0-.1.1-.2.1-.3 0-.2.1-.3.1-.5v-.2c0-.3.1-.6.1-.9V8.8c0-.1 0-.1-.1-.2V7.1s0-.1-.1-.1v-.2s0-.1-.1-.1v-.1s0-.1-.1-.1v-.6s0-.1-.1-.1c0 0 0-.1-.1-.1 0-.1-.1-.1-.1-.2v-.2s0-.1-.1-.1c0 0 0-.1-.1-.1l-.1-.1-.1-.1s0-.1-.1-.1l-.1-.1-.1-.1-.1-.1v-.1l-.1-.1-.1-.1c-.7-.1-.8-.2-.8-.2-.1-.1-.3-.2-.4-.4-.1-.1-.2-.1-.2-.2l-.2-.2c-.1 0-.1-.1-.2-.1-.1-.1-.2-.1-.2-.1s-.1 0-.1-.1l.8-.8c.2.1.3.2.5.4.1.1.2.1.2.2l.2.2.1.1h.1l.1.1.4.4.1.1c.3.3.5.6.8 1l.1.1c0 .1.1.1.1.2V5c0 .1.1.1.1.2l.1.1.1.1c.2.3.3.6.5 1 .1.1.1.3.2.4v.1c.2.4.2.6.3.8v.7c.1.2.1.4.1.7 0 .2.1.3.1.5v2.8c.1.3.1.3.1.4"/></g></svg>