<svg xmlns="http://www.w3.org/2000/svg" width="300" height="50" viewBox="0 0 300 50"><path d="M14.38 13.87v7.16h-2.17v-7.16H9.64v-1.78h7.3v1.78h-2.56zm5.71 7.35c-1.92 0-3.46-1.36-3.46-3.38s1.54-3.38 3.46-3.38c1.91 0 3.46 1.36 3.46 3.38s-1.56 3.38-3.46 3.38zm0-4.96c-.77 0-1.43.67-1.43 1.61s.66 1.61 1.43 1.61c.76 0 1.43-.67 1.43-1.61s-.67-1.61-1.43-1.61zm7.73 4.96c-1.92 0-3.46-1.36-3.46-3.38s1.54-3.38 3.46-3.38c1.91 0 3.46 1.36 3.46 3.38s-1.56 3.38-3.46 3.38zm0-4.96c-.77 0-1.43.67-1.43 1.61s.66 1.61 1.43 1.61c.76 0 1.43-.67 1.43-1.61s-.68-1.61-1.43-1.61zm15.55 4.76v-3.89c0-.46-.22-.87-.9-.87-.66 0-.95.39-.95.9v3.87h-2.06v-3.89c0-.46-.22-.87-.9-.87-.66 0-.95.39-.95.9v3.87h-2.06v-6.35h1.91v.85h.01c.25-.67.88-1.05 1.88-1.05.91 0 1.6.36 1.88 1.04.27-.62 1.01-1.04 1.96-1.04 1.44 0 2.24.78 2.24 2.13v4.41h-2.06zm7.93.29c-.38-.08-.81-.38-.98-.84-.28.52-.88.77-1.65.77-1.12 0-2.12-.78-2.12-2.1 0-1.16.91-1.95 2.17-2.07l1.26-.13v-.21c0-.38-.31-.63-.99-.63-.62 0-1.3.2-1.77.49l-.36-1.55c.52-.34 1.39-.56 2.23-.56 1.68 0 2.87.77 2.87 2.3v2.07c0 .74.28 1.13.77 1.32l-1.43 1.14zm-1.32-3.06l-.77.07c-.53.04-.77.42-.77.8 0 .34.25.62.64.62.49 0 .9-.38.9-.92v-.57zm7.56 2.77v-3.89c0-.46-.31-.87-.94-.87-.62 0-1.01.39-1.01.9v3.87h-2.06v-6.35h1.89v.85h.01c.25-.67.91-1.05 1.93-1.05 1.39 0 2.23.78 2.23 2.13v4.41h-2.05zm7.07-.63c-.97 2.55-1.98 3.47-3.17 3.94l-1.26-1.26c1.02-.39 1.81-1.13 2.33-2.48l-2.28-5.91h1.99l.92 2.47c.14.36.28.8.38 1.25h.03c.13-.43.27-.88.41-1.25l.92-2.47h1.89l-2.16 5.71zm10.12-3.53a1.57 1.57 0 0 0-.62-.15c-.66 0-1.26.35-1.26 1.36v2.96h-2.06v-6.35h2.03v1.41h.01c.21-.99.95-1.53 1.81-1.53.2 0 .43.03.59.08l-.5 2.22zm6.97.64l-.91.92h-3.11c.1.52.8 1.11 1.88 1.11.66 0 1.33-.2 1.75-.48l-.2 1.77c-.48.25-1.2.42-2.02.42-1.93 0-3.49-1.34-3.49-3.42 0-2.05 1.48-3.35 3.31-3.35 1.77 0 2.84 1.22 2.84 2.54.01.15-.02.36-.05.49zm-2.78-1.49c-.6 0-1.11.46-1.23 1.04h2.14c0-.04.01-.08.01-.14 0-.44-.38-.9-.92-.9zm8.24.35h-1.65v2.35c0 .55.29.77.84.77.24 0 .38-.01.53-.08l-.18 1.56c-.2.1-.55.17-.95.17-1.43 0-2.28-.76-2.28-2.02v-2.75H82.4v-1.68h1.06v-1.36l2.04-.74v2.1h2.04l-.38 1.68zm2.27-2.55c-.36 0-1.11-.74-1.11-1.11 0-.36.74-1.09 1.11-1.09.36 0 1.11.73 1.11 1.09 0 .37-.75 1.11-1.11 1.11zm-1.04 7.21v-6.35h2.07v6.35h-2.07zm7.45-4.16a1.57 1.57 0 0 0-.62-.15c-.66 0-1.26.35-1.26 1.36v2.96H91.9v-6.35h2.03v1.41h.01c.21-.99.95-1.53 1.81-1.53.2 0 .43.03.59.08l-.5 2.22zm6.97.64l-.91.92h-3.11c.1.52.8 1.11 1.88 1.11.66 0 1.33-.2 1.75-.48l-.2 1.77c-.48.25-1.2.42-2.02.42-1.93 0-3.49-1.34-3.49-3.42 0-2.05 1.48-3.35 3.31-3.35 1.77 0 2.84 1.22 2.84 2.54.01.15-.02.36-.05.49zm-2.78-1.49c-.6 0-1.11.46-1.23 1.04h2.14c0-.04.01-.08.01-.14 0-.44-.38-.9-.92-.9zm11.77 5.01v-3.89c0-.46-.22-.87-.9-.87-.66 0-.95.39-.95.9v3.87h-2.06v-3.89c0-.46-.22-.87-.9-.87-.66 0-.95.39-.95.9v3.87h-2.06v-6.35h1.91v.85h.01c.25-.67.88-1.05 1.88-1.05.91 0 1.6.36 1.88 1.04.27-.62 1.01-1.04 1.96-1.04 1.44 0 2.24.78 2.24 2.13v4.41h-2.06zm9.28-3.52l-.91.92h-3.11c.1.52.8 1.11 1.88 1.11.66 0 1.33-.2 1.75-.48l-.2 1.77c-.48.25-1.2.42-2.02.42-1.93 0-3.49-1.34-3.49-3.42 0-2.05 1.48-3.35 3.31-3.35 1.77 0 2.84 1.22 2.84 2.54.01.15-.02.36-.05.49zm-2.78-1.49c-.6 0-1.11.46-1.23 1.04h2.14c0-.04.01-.08.01-.14 0-.44-.38-.9-.92-.9zm7.96 5.01v-3.89c0-.46-.31-.87-.94-.87-.62 0-1.01.39-1.01.9v3.87h-2.06v-6.35h1.89v.85h.01c.25-.67.91-1.05 1.93-1.05 1.39 0 2.23.78 2.23 2.13v4.41h-2.05zm7.62-4.66h-1.65v2.35c0 .55.29.77.84.77.24 0 .38-.01.53-.08l-.18 1.56c-.2.1-.55.17-.95.17-1.43 0-2.28-.76-2.28-2.02v-2.75h-1.06v-1.68h1.06v-1.36l2.04-.74v2.1h2.05l-.4 1.68zM14.66 35.3c-.38-.08-.81-.38-.98-.84-.28.52-.88.77-1.65.77-1.12 0-2.12-.78-2.12-2.1 0-1.16.91-1.95 2.17-2.07l1.26-.13v-.21c0-.38-.31-.63-.99-.63-.62 0-1.3.2-1.77.49l-.36-1.55c.52-.34 1.39-.56 2.23-.56 1.68 0 2.87.77 2.87 2.3v2.07c0 .74.28 1.13.77 1.32l-1.43 1.14zm-1.32-3.05l-.77.07c-.53.04-.77.42-.77.8 0 .34.25.62.64.62.49 0 .9-.38.9-.92v-.57zm8.26-1.53c-.42-.27-.85-.41-1.36-.41-.9 0-1.61.64-1.61 1.57 0 .91.71 1.57 1.65 1.57.53 0 .94-.11 1.39-.35l-.18 1.75c-.42.2-.97.31-1.55.31-1.78 0-3.43-1.26-3.43-3.31 0-2.07 1.67-3.32 3.39-3.32.84 0 1.53.17 2.09.48l-.39 1.71zm6.2 0c-.42-.27-.85-.41-1.36-.41-.9 0-1.61.64-1.61 1.57 0 .91.71 1.57 1.65 1.57.53 0 .94-.11 1.39-.35l-.18 1.75c-.42.2-.97.31-1.55.31-1.78 0-3.43-1.26-3.43-3.31 0-2.07 1.67-3.32 3.39-3.32.84 0 1.53.17 2.09.48l-.39 1.71zm4.57 4.5c-1.92 0-3.46-1.36-3.46-3.38 0-2.02 1.54-3.38 3.46-3.38 1.91 0 3.46 1.36 3.46 3.38 0 2.02-1.56 3.38-3.46 3.38zm0-4.96c-.77 0-1.43.67-1.43 1.61s.66 1.61 1.43 1.61c.76 0 1.43-.67 1.43-1.61s-.68-1.61-1.43-1.61zm8.73 4.76v-.87h-.01c-.25.67-.92 1.05-1.95 1.05-1.39 0-2.23-.77-2.23-2.11v-4.41h2.06v3.89c0 .46.32.87.95.87.62 0 .99-.41.99-.91v-3.85h2.06v6.35H41.1zm7.3 0v-3.89c0-.46-.31-.87-.94-.87-.62 0-1.01.39-1.01.9v3.87h-2.06v-6.35h1.89v.85h.01c.25-.67.91-1.05 1.93-1.05 1.39 0 2.23.79 2.23 2.13v4.41H48.4zm7.61-4.66h-1.65v2.35c0 .55.29.77.84.77.24 0 .38-.01.53-.08l-.18 1.55c-.2.1-.55.17-.95.17-1.43 0-2.28-.76-2.28-2.02v-2.75h-1.06v-1.68h1.06v-1.36l2.04-.74v2.1h2.05l-.4 1.69zm3.15 4.8c-.87 0-1.5-.18-2.02-.45l-.18-1.82c.56.39 1.29.69 1.99.69.38 0 .62-.2.62-.43 0-.27-.21-.38-.57-.49-1.22-.35-1.95-.97-1.95-2.07 0-1.25 1.01-2.04 2.38-2.04.78 0 1.55.21 1.88.38l-.35 1.51c-.31-.17-.81-.35-1.32-.35-.34 0-.56.15-.56.41 0 .24.17.36.56.46 1.43.38 2.02 1.09 2.02 2.16-.01 1.06-.79 2.04-2.5 2.04z" fill="#231F20"/><g fill="#231F20"><path d="M73.74 35.02v-3.89c0-.46-.22-.87-.9-.87-.66 0-.95.39-.95.9v3.87h-2.06v-3.89c0-.46-.22-.87-.9-.87-.66 0-.95.39-.95.9v3.87h-2.06v-6.35h1.91v.85h.01c.25-.67.88-1.05 1.88-1.05.91 0 1.6.36 1.88 1.04.27-.62 1.01-1.04 1.96-1.04 1.44 0 2.24.79 2.24 2.13v4.41h-2.06zm7.94.28c-.38-.08-.81-.38-.98-.84-.28.52-.88.77-1.65.77-1.12 0-2.12-.78-2.12-2.1 0-1.16.91-1.95 2.17-2.07l1.26-.13v-.21c0-.38-.31-.63-.99-.63-.62 0-1.3.2-1.77.49l-.36-1.55c.52-.34 1.39-.56 2.23-.56 1.68 0 2.87.77 2.87 2.3v2.07c0 .74.28 1.13.77 1.32l-1.43 1.14zm-1.32-3.05l-.77.07c-.53.04-.77.42-.77.8 0 .34.25.62.64.62.49 0 .9-.38.9-.92v-.57z"/><path d="M87.47 34.39c-.97 2.55-1.98 3.47-3.17 3.94l-1.26-1.26c1.02-.39 1.81-1.13 2.33-2.48l-2.28-5.91h1.99l.92 2.46c.14.36.28.8.38 1.25h.03c.13-.43.27-.88.41-1.25l.92-2.47h1.89l-2.16 5.72zm9.3.82c-1.34 0-2.44-.46-3.05-.94v-9.22h1.99v3.85c.27-.21.94-.42 1.6-.42 1.75 0 3.19 1.25 3.19 3.25-.01 1.96-1.25 3.48-3.73 3.48zm.16-4.92c-.59 0-1.04.28-1.23.49v2.42c.21.15.64.31 1.04.31 1.05 0 1.71-.71 1.71-1.64 0-.88-.62-1.58-1.52-1.58zm10.49 1.2l-.91.92h-3.11c.1.52.8 1.11 1.88 1.11.66 0 1.33-.2 1.75-.48l-.2 1.76c-.48.25-1.2.42-2.02.42-1.93 0-3.49-1.34-3.49-3.42 0-2.04 1.48-3.35 3.31-3.35 1.77 0 2.84 1.22 2.84 2.54.01.17-.02.38-.05.5zm-2.79-1.48c-.6 0-1.11.46-1.23 1.04h2.14c0-.04.01-.08.01-.14.01-.44-.37-.9-.92-.9zm11.97.71c-.42-.27-.85-.41-1.36-.41-.9 0-1.61.64-1.61 1.57 0 .91.71 1.57 1.65 1.57.53 0 .94-.11 1.39-.35l-.18 1.75c-.42.2-.97.31-1.55.31-1.78 0-3.43-1.26-3.43-3.31 0-2.07 1.67-3.32 3.39-3.32.84 0 1.53.17 2.09.48l-.39 1.71zm4.55 4.5c-1.92 0-3.46-1.36-3.46-3.38 0-2.02 1.54-3.38 3.46-3.38 1.91 0 3.46 1.36 3.46 3.38 0 2.02-1.55 3.38-3.46 3.38zm0-4.96c-.77 0-1.43.67-1.43 1.61s.66 1.61 1.43 1.61c.76 0 1.43-.67 1.43-1.61s-.67-1.61-1.43-1.61zm6.56 4.9c-.87 0-1.5-.18-2.02-.45l-.18-1.82c.56.39 1.29.69 1.99.69.38 0 .62-.2.62-.43 0-.27-.21-.38-.57-.49-1.22-.35-1.95-.97-1.95-2.07 0-1.25 1.01-2.04 2.38-2.04.78 0 1.55.21 1.88.38l-.35 1.51c-.31-.17-.81-.35-1.32-.35-.34 0-.56.15-.56.41 0 .24.17.36.56.46 1.43.38 2.02 1.09 2.02 2.16-.01 1.06-.8 2.04-2.5 2.04zm7.74-4.8h-1.65v2.35c0 .55.29.77.84.77.24 0 .38-.01.53-.08l-.18 1.55c-.2.1-.55.17-.95.17-1.43 0-2.28-.76-2.28-2.02v-2.75h-1.06v-1.68h1.06v-1.36l2.04-.74v2.1h2.05l-.4 1.69zm3.36 4.92c-1.3-.06-2.17-.73-2.17-2.25v-7.97h2.03v7.72c0 .52.29.8.85.84l-.71 1.66zm5.28-.89c-.97 2.55-1.97 3.47-3.17 3.94l-1.26-1.26c1.02-.39 1.81-1.13 2.32-2.48l-2.28-5.91h1.99l.92 2.47c.14.36.28.8.38 1.25h.03c.13-.43.27-.88.41-1.25l.92-2.47h1.89l-2.15 5.71zm3.3.83c-.38 0-1.16-.78-1.16-1.16 0-.36.78-1.15 1.16-1.15s1.16.78 1.16 1.15c0 .38-.78 1.16-1.16 1.16z"/></g></svg>