<svg id="Layer_1" xmlns="http://www.w3.org/2000/svg" viewBox="0 0 320 50"><style>.st0{fill:#f9e038}.st1{fill:#231f20}</style><path class="st0" d="M256.4 7s-5 0-5 5v3.1s0 5 5 5h47.8s5 0 5-5V12s0-5-5-5h-47.8z"/><path class="st1" d="M262.7 15.7h-.9V12h1.6c.3 0 .7 0 1 .2.3.2.5.6.5.9 0 .4-.2.8-.7 1l.7 1.7h-1l-.6-1.5h-.6v1.4zm0-2.1h.5c.2 0 .4 0 .5-.1.1-.1.2-.3.2-.4 0-.1-.1-.3-.2-.4-.1-.1-.4-.1-.6-.1h-.5v1zm3.7-.9v.8h1.4v.7h-1.4v.8h1.8v.7h-2.7V12h2.7v.7h-1.8zm5.5 3h-1l-.2-.8h-1.2l-.2.8h-.8l1.2-3.8h1l1.2 3.8zm-1.3-1.4l-.4-1.3-.4 1.3h.8zm2.9-2.3c.5 0 1 0 1.4.4.4.4.6.9.6 1.5 0 .5-.2 1-.5 1.4-.4.4-.8.5-1.4.5h-1.2V12h1.1zm-.2 3h.3c.4 0 .6-.1.8-.4.1-.2.2-.5.2-.8 0-.3-.1-.6-.3-.9-.2-.3-.4-.3-.7-.3h-.3V15zm7.4.7h-1l-.2-.8h-1.2l-.2.8h-.8l1.2-3.8h1l1.2 3.8zm-1.4-1.4l-.4-1.3-.4 1.3h.8zm2.8 1.4h-.9V12h1.6c.3 0 .7 0 1 .2.3.2.5.6.5.9 0 .4-.2.8-.7 1l.7 1.7h-1l-.6-1.5h-.6v1.4zm0-2.1h.5c.2 0 .4 0 .5-.1.1-.1.2-.3.2-.4 0-.1-.1-.3-.2-.4-.1-.1-.4-.1-.6-.1h-.5v1zm5.4-.9h-.9v3h-.9v-3h-1V12h2.8v.7zm1.4 3h-.9V12h.9v3.7zm2.9-2.3c0-.4-.1-.8-.6-.8-.6 0-.7.8-.7 1.3s.1 1.2.7 1.2c.4 0 .6-.3.7-.7l.9.1c-.1.9-.7 1.4-1.6 1.4-1.1 0-1.7-.9-1.7-1.9 0-1 .6-1.9 1.7-1.9.9 0 1.4.5 1.5 1.5l-.9-.2zm4 1.6v.7h-2.4V12h.9v3h1.5zm1.3-2.3v.8h1.4v.7h-1.4v.8h1.8v.7h-2.7V12h2.7v.7h-1.8z"/></svg>