<svg id="Layer_1" xmlns="http://www.w3.org/2000/svg" xmlns:xlink="http://www.w3.org/1999/xlink" viewBox="0 0 320 50"><style>.st0,.st1{fill:#fff}.st1{clip-path:url(#SVGID_2_)}.st2{clip-path:url(#SVGID_4_);fill:url(#SVGID_5_)}.st3{clip-path:url(#SVGID_7_);fill:url(#SVGID_8_)}.st4{clip-path:url(#SVGID_10_);fill:url(#SVGID_11_)}</style><path class="st0" d="M279 28.9v1.7h-3.1V39h-2v-8.4h-3.1v-1.7h8.2zm.8 10.1h2V28.8h-2V39zm12.1 0h-2l-1-2.5h-3.4l-1 2.5h-2l4.3-10.3h.9l4.2 10.3zm9.5 0h-2l-1-2.5H295l-1 2.5h-2l4.3-10.3h.9l4.2 10.3zm-13.2-4.1l-1-2.5-1 2.5h2zm9.4 0l-1-2.5-1 2.5h2z"/><defs><path id="SVGID_1_" d="M254.3 24.7H304v16.9h-49.7z"/></defs><clipPath id="SVGID_2_"><use xlink:href="#SVGID_1_" overflow="visible"/></clipPath><path class="st1" d="M263.7 39.7c.9 0 1.7-.4 2.2-.9l2.4-2.4c.6-.6.9-1.3.9-2.2v-7.5h-7.5c-.9 0-1.7.4-2.2.9l-2.4 2.4c-.6.6-.9 1.3-.9 2.2v7.5h7.5z"/><defs><path id="SVGID_3_" d="M262.6 27.3c-1.4 0-2.5 1.1-2.5 2.4v.8h5.1v5.1h.8c1.4 0 2.5-1.1 2.5-2.5v-5.9h-5.9z"/></defs><clipPath id="SVGID_4_"><use xlink:href="#SVGID_3_" overflow="visible"/></clipPath><linearGradient id="SVGID_5_" gradientUnits="userSpaceOnUse" x1="1" y1="51.171" x2="2" y2="51.171" gradientTransform="scale(8.2528 -8.2528) rotate(45 83.041 60.8)"><stop offset="0" stop-color="#9bdbf7"/><stop offset=".1" stop-color="#9bdbf7"/><stop offset=".9" stop-color="#009dda"/><stop offset="1" stop-color="#009dda"/></linearGradient><path class="st2" d="M256 31.5l8.4-8.4 8.4 8.4-8.4 8.4z"/><defs><path id="SVGID_6_" d="M266.1 36.4h-6.6l-2.6 2.6h6.8c.7 0 1.3-.3 1.8-.7l2.2-2.2-.1-.1c-.4.3-.9.4-1.5.4"/></defs><clipPath id="SVGID_7_"><use xlink:href="#SVGID_6_" overflow="visible"/></clipPath><linearGradient id="SVGID_8_" gradientUnits="userSpaceOnUse" x1=".907" y1="51.093" x2="1.907" y2="51.093" gradientTransform="matrix(10.759 0 0 -10.759 247.153 587.22)"><stop offset="0" stop-color="#14b0e6"/><stop offset=".161" stop-color="#13aae1"/><stop offset=".372" stop-color="#0f9ad2"/><stop offset=".61" stop-color="#097fba"/><stop offset=".867" stop-color="#015999"/><stop offset=".9" stop-color="#005494"/><stop offset="1" stop-color="#005494"/></linearGradient><path class="st3" d="M256.9 36h10.8v3h-10.8z"/><g><defs><path id="SVGID_9_" d="M257.7 30.5c-.5.5-.7 1.1-.7 1.8V39l2.6-2.6v-6.6c0-.5.1-1 .4-1.5l-.1-.1-2.2 2.3z"/></defs><clipPath id="SVGID_10_"><use xlink:href="#SVGID_9_" overflow="visible"/></clipPath><linearGradient id="SVGID_11_" gradientUnits="userSpaceOnUse" x1="1.093" y1="51.093" x2="2.093" y2="51.093" gradientTransform="matrix(0 -10.7592 -10.7592 0 808.13 50.77)"><stop offset="0" stop-color="#0081bd"/><stop offset=".377" stop-color="#0070ad"/><stop offset=".85" stop-color="#005494"/><stop offset="1" stop-color="#005494"/></linearGradient><path class="st4" d="M256.9 28.3h3v10.8h-3z"/></g></svg>