<svg xmlns="http://www.w3.org/2000/svg" xmlns:xlink="http://www.w3.org/1999/xlink" width="217.8" height="150.3" viewBox="0 0 217.8 150.3"><path fill="#F6A9C2" d="M217 77.84c-.3-3.09-3.89-3.99-6.28-5.08-9.17-4.48-8.17-15.74-11.66-24.01-2.79-6.68-6.97-12.75-12.06-18.13-5.38-6.38-7.37-8.37-25.31-17.83-13.45-6.18-28.59-9.17-43.34-9.17C82 3.71 50.91 21.35 38.86 46.26c-.8 1.49-1.39 3.09-1.99 4.68-2.19 5.78-3.29 11.86-3.29 18.13 0 1.3.1 2.69.2 3.99 8.77 9.07 17.93 15.94 27.3 21.02 2.29 1.3 4.68 2.39 6.97 3.49 2.89 1.3 5.88 2.49 8.77 3.39 1.79.6 3.49 1.1 5.28 1.59 2.39.6 4.68 1.2 7.07 1.69 1.79.4 3.49.7 5.28.9-1.79-.3-3.49-.6-5.28-.9-2.39-.5-4.68-1-7.07-1.69-1.79-.5-3.49-1-5.28-1.59-2.99-1-5.88-2.09-8.77-3.39-2.39-1-4.68-2.19-6.97-3.49-9.27-5.08-18.44-11.96-27.3-21.02.4 4.48 1.3 8.97 2.79 13.15 6.18 21.02 34.27 63.67 40.35 63.67h18.83c2.49 0 4.18-.9 5.28-2.29 1.49-1.89 1.89-4.78 1.79-7.57-.1-1.69-.7-7.87-.3-9.56.1-.4.3-2.89.5-3.29 0 0 0-.1.1-.1 4.98.7 10.06 1.99 15.24 1.99 6.18 0 12.45-.5 18.63-1.59 1.1 5.38 3.79 22.22 9.07 22.22l17.14-.1c2.39 0 8.47-.9 9.76-2.69.6-.8 1-1.79 1.2-2.89 1-5.98-.2-12.16-.6-18.13-.1-.8-.1-1.59 0-2.39.1-1.1.2-2.09.6-3.19.5-1.39 1.59-2.69 2.59-3.79 2.19-1.59 4.28-3.29 6.18-5.08 5.68-5.58 6.87-7.17 15.04-9.07 4.98-1.1 9.56-3.39 14.05-5.68 2.19-1.1 2.99-2.89 2.99-5.18v-.3c0-2.99.1-5.58 1.1-8.57.39-1.4 1.09-3.1.89-4.79zm-115.57 28.1c2.89.2 5.78.3 8.67.4-2.9-.01-5.78-.2-8.67-.4zm69.24-12.36c-.5.2-1.1.4-1.59.6-7.87 2.99-16.64 5.88-26 8.07-3.69.9-7.37 1.59-11.16 2.19-1.59.3-3.29.5-4.88.7-2.79.4-5.58.6-8.37.8-1.1.1-2.29.1-3.39.2 1.1 0 2.29-.1 3.39-.2 2.79-.2 5.58-.5 8.37-.8 1.69-.2 3.29-.5 4.88-.7 3.79-.6 7.57-1.39 11.16-2.19 9.56-2.29 18.43-5.18 26-8.07.59-.2 1.09-.4 1.59-.6 6.87-2.69 13.75-5.68 20.92-6.58-7.17.9-14.04 3.89-20.92 6.58zm24.31-6.87h2.59-2.59zm12.65 1.89c-.8-.3-1.69-.5-2.49-.7-1.69-.4-3.29-.7-5.08-1 1.69.2 3.39.5 5.08 1 .9.2 1.7.4 2.49.7.8.3 1.59.5 2.49.8-.79-.3-1.69-.6-2.49-.8z"/><path fill="none" d="M167.98 9.39l.4-.4"/><path fill="#F6A9C2" d="M35.87 52.63c-1.79-1.1-3.19-2.79-4.28-5.18 4.08-1.79 7.57-4.88 10.36-9.27 2.19-3.49 2.39-7.57.4-10.36-1-1.49-3.59-3.79-8.77-3.29-2.69.3-5.08 1.49-6.78 3.49-3.19 3.69-3.79 9.47-3.39 13.25.1.6.2 1.2.3 1.79-3.29.2-5.78 0-9.17-.6-1.49-.3-3.29-1.1-4.68-1.59L0 36.29c4.28 5.38 19.23 13.35 25.41 12.75 1.49 3.69 3.79 6.58 6.87 8.47 2.29 1.39 4.88 2.19 7.47 2.49.6-1.99 1.39-3.99 2.59-5.78-2.29.01-4.58-.49-6.47-1.59zm-5.98-11.85c-.4-2.89.2-6.87 1.99-8.87.7-.8 1.39-1.2 2.39-1.3h.5c.8 0 1.1.2 1.49.8.5.7.6 2.49-.5 4.18-1.79 2.89-3.39 4.78-5.78 6.08.01-.4-.09-.59-.09-.89z"/><path opacity=".5" fill="#FFF" d="M61.37 28.72c-10.26 8.57-13.65 14.75-15.84 23.02-.3 1-.5 1.99-.7 2.99-.3 1.99-.5 3.99-.4 5.98 0-.1 0-.2.1-.2 2.49-9.27 8.67-17.34 18.23-24.71 7.17-5.48 18.13-11.16 25.71-13.05-3.59-2.09-4.18-4.38-4.38-6.38 0 0-14.35 5.38-22.72 12.35z"/><path fill="#3B3030" d="M185.91 54.82c-2.49.4-3.99 3.59-3.39 7.07.6 3.49 3.09 5.98 5.58 5.58 2.49-.4 3.99-3.59 3.39-7.07-.59-3.48-3.08-6.07-5.58-5.58z"/><path fill="#F6A9C2" d="M153.33 19.45c5.78 9.86 16.74 14.55 26 11.16 1-.4 1.59-1.39 1.39-2.39-.6-4.08-.7-7.87.2-11.46.8-3.39 2.49-6.58 5.28-9.76 1.99-2.29-.9-6.08-4.38-6.68-3.79-.6-7.77.2-10.56 2.19-9.47 6.78-16.64 14.05-17.44 14.85-.68.8-1.08 1-.49 2.09z"/><path fill="#D2758B" d="M167.88 24.64c2.69-2.29 5.98-3.89 9.56-4.18-.2-1.1-.4-2.09-.3-2.99.5-3.59 2.19-5.28 4.38-8.17.4-.5 1.3-1.99 1.49-2.59 1-2.59-4.08-2.69-5.58-2.29-3.79.8-8.07 3.99-10.66 7.87-2.87 4.28-2.58 9.56 1.11 12.35z"/><path fill="#010101" d="M137.59 10.79c-9.76-3.19-29.09-2.99-38.86.6-1.69.6-2.29 2.39-1.1 3.59l.1.1c.9.9 2.39 1.2 3.69.7 8.07-3.09 26-3.69 33.97-.5 1.2.5 2.69.1 3.49-.8l.1-.1c1-1.2.31-3-1.39-3.59z"/><defs><path id="a" d="M217 77.84c-.3-3.09-3.89-3.99-6.28-5.08-9.17-4.48-8.17-15.74-11.66-24.01-2.79-6.68-6.97-12.75-12.06-18.13-5.38-6.38-7.37-8.37-25.31-17.83-13.45-6.18-28.59-9.17-43.34-9.17C82 3.71 50.91 21.35 38.86 46.26c-.8 1.49-1.39 3.09-1.99 4.68-2.19 5.78-3.29 11.86-3.29 18.13 0 1.3.1 2.69.2 3.99 8.77 9.07 17.93 15.94 27.3 21.02 2.29 1.3 4.68 2.39 6.97 3.49 2.89 1.3 5.88 2.49 8.77 3.39 1.79.6 3.49 1.1 5.28 1.59 2.39.6 4.68 1.2 7.07 1.69 1.79.4 3.49.7 5.28.9-1.79-.3-3.49-.6-5.28-.9-2.39-.5-4.68-1-7.07-1.69-1.79-.5-3.49-1-5.28-1.59-2.99-1-5.88-2.09-8.77-3.39-2.39-1-4.68-2.19-6.97-3.49-9.27-5.08-18.44-11.96-27.3-21.02.4 4.48 1.3 8.97 2.79 13.15 6.18 21.02 34.27 63.67 40.35 63.67h18.83c2.49 0 4.18-.9 5.28-2.29 1.49-1.89 1.89-4.78 1.79-7.57-.1-1.69-.7-7.87-.3-9.56.1-.4.3-2.89.5-3.29 0 0 0-.1.1-.1 4.98.7 10.06 1.99 15.24 1.99 6.18 0 12.45-.5 18.63-1.59 1.1 5.38 3.79 22.22 9.07 22.22l17.14-.1c2.39 0 8.47-.9 9.76-2.69.6-.8 1-1.79 1.2-2.89 1-5.98-.2-12.16-.6-18.13-.1-.8-.1-1.59 0-2.39.1-1.1.2-2.09.6-3.19.5-1.39 1.59-2.69 2.59-3.79 2.19-1.59 4.28-3.29 6.18-5.08 5.68-5.58 6.87-7.17 15.04-9.07 4.98-1.1 9.56-3.39 14.05-5.68 2.19-1.1 2.99-2.89 2.99-5.18v-.3c0-2.99.1-5.58 1.1-8.57.39-1.4 1.09-3.1.89-4.79zm-115.57 28.1c2.89.2 5.78.3 8.67.4-2.9-.01-5.78-.2-8.67-.4zm69.24-12.36c-.5.2-1.1.4-1.59.6-7.87 2.99-16.64 5.88-26 8.07-3.69.9-7.37 1.59-11.16 2.19-1.59.3-3.29.5-4.88.7-2.79.4-5.58.6-8.37.8-1.1.1-2.29.1-3.39.2 1.1 0 2.29-.1 3.39-.2 2.79-.2 5.58-.5 8.37-.8 1.69-.2 3.29-.5 4.88-.7 3.79-.6 7.57-1.39 11.16-2.19 9.56-2.29 18.43-5.18 26-8.07.59-.2 1.09-.4 1.59-.6 6.87-2.69 13.75-5.68 20.92-6.58-7.17.9-14.04 3.89-20.92 6.58zm24.31-6.87h2.59-2.59zm12.65 1.89c-.8-.3-1.69-.5-2.49-.7-1.69-.4-3.29-.7-5.08-1 1.69.2 3.39.5 5.08 1 .9.2 1.7.4 2.49.7.8.3 1.59.5 2.49.8-.79-.3-1.69-.6-2.49-.8z"/></defs><clipPath id="b"><use xlink:href="#a" overflow="visible"/></clipPath><linearGradient id="c" gradientUnits="userSpaceOnUse" x1="413.005" y1="184.247" x2="413.005" y2="138.097" gradientTransform="matrix(.9963 0 0 -.9963 -287.096 271.128)"><stop offset="0" stop-color="#f6a9c2" stop-opacity=".7"/><stop offset="1" stop-color="#b16073"/></linearGradient><path opacity=".53" clip-path="url(#b)" fill="url(#c)" d="M48.12 111.81c10.66 18.93 24.61 38.06 28.59 38.06h18.83c1.59 0 4.18-.8 4.98-1.79 4.48-4.58.6-14.25 1.99-17.93.1-.4.2-2.59.5-2.99 0 0 0-.1.1-.1 4.98.7 10.06 1.99 15.34 1.99 6.18 0 12.45-.5 18.63-1.59 1.1 5.38 3.79 22.32 9.07 22.32l17.14-.1c2.39 0 8.47-.9 9.76-2.69 3.29-6.28.5-15.64.6-20.52 0-.2-.3-2.89 0-2.89.1-1.1.2-2.09.6-3.19.5-1.39 1.59-2.69 2.59-3.79 2.19-1.59 4.28-3.29 6.18-5.18 5.68-5.58 6.97-7.27 15.04-9.07 4.98-1.1 9.56-3.39 14.05-5.68 2.19-1.1 2.99-2.89 2.99-5.18v-.3c-6.38-2.89-13.05-4.88-19.93-4.68-9.07.3-17.44 4.28-25.9 7.47-7.87 2.99-16.64 5.88-26 8.07-33.38 7.87-74.33 7.17-109.6-29.29.4 4.58 1.3 8.97 2.79 13.15 2 7.17 6.38 16.54 11.66 25.9"/><defs><path id="d" d="M217 77.84c-.3-3.09-3.89-3.99-6.28-5.08-9.17-4.48-8.17-15.74-11.66-24.01-2.79-6.68-6.97-12.75-12.06-18.13-5.38-6.38-7.37-8.37-25.31-17.83-13.45-6.18-28.59-9.17-43.34-9.17C82 3.71 50.91 21.35 38.86 46.26c-.8 1.49-1.39 3.09-1.99 4.68-2.19 5.78-3.29 11.86-3.29 18.13 0 1.3.1 2.69.2 3.99 8.77 9.07 17.93 15.94 27.3 21.02 2.29 1.3 4.68 2.39 6.97 3.49 2.89 1.3 5.88 2.49 8.77 3.39 1.79.6 3.49 1.1 5.28 1.59 2.39.6 4.68 1.2 7.07 1.69 1.79.4 3.49.7 5.28.9-1.79-.3-3.49-.6-5.28-.9-2.39-.5-4.68-1-7.07-1.69-1.79-.5-3.49-1-5.28-1.59-2.99-1-5.88-2.09-8.77-3.39-2.39-1-4.68-2.19-6.97-3.49-9.27-5.08-18.44-11.96-27.3-21.02.4 4.48 1.3 8.97 2.79 13.15 6.18 21.02 34.27 63.67 40.35 63.67h18.83c2.49 0 4.18-.9 5.28-2.29 1.49-1.89 1.89-4.78 1.79-7.57-.1-1.69-.7-7.87-.3-9.56.1-.4.3-2.89.5-3.29 0 0 0-.1.1-.1 4.98.7 10.06 1.99 15.24 1.99 6.18 0 12.45-.5 18.63-1.59 1.1 5.38 3.79 22.22 9.07 22.22l17.14-.1c2.39 0 8.47-.9 9.76-2.69.6-.8 1-1.79 1.2-2.89 1-5.98-.2-12.16-.6-18.13-.1-.8-.1-1.59 0-2.39.1-1.1.2-2.09.6-3.19.5-1.39 1.59-2.69 2.59-3.79 2.19-1.59 4.28-3.29 6.18-5.08 5.68-5.58 6.87-7.17 15.04-9.07 4.98-1.1 9.56-3.39 14.05-5.68 2.19-1.1 2.99-2.89 2.99-5.18v-.3c0-2.99.1-5.58 1.1-8.57.39-1.4 1.09-3.1.89-4.79zm-115.57 28.1c2.89.2 5.78.3 8.67.4-2.9-.01-5.78-.2-8.67-.4zm69.24-12.36c-.5.2-1.1.4-1.59.6-7.87 2.99-16.64 5.88-26 8.07-3.69.9-7.37 1.59-11.16 2.19-1.59.3-3.29.5-4.88.7-2.79.4-5.58.6-8.37.8-1.1.1-2.29.1-3.39.2 1.1 0 2.29-.1 3.39-.2 2.79-.2 5.58-.5 8.37-.8 1.69-.2 3.29-.5 4.88-.7 3.79-.6 7.57-1.39 11.16-2.19 9.56-2.29 18.43-5.18 26-8.07.59-.2 1.09-.4 1.59-.6 6.87-2.69 13.75-5.68 20.92-6.58-7.17.9-14.04 3.89-20.92 6.58zm24.31-6.87h2.59-2.59zm12.65 1.89c-.8-.3-1.69-.5-2.49-.7-1.69-.4-3.29-.7-5.08-1 1.69.2 3.39.5 5.08 1 .9.2 1.7.4 2.49.7.8.3 1.59.5 2.49.8-.79-.3-1.69-.6-2.49-.8z"/></defs><clipPath id="e"><use xlink:href="#d" overflow="visible"/></clipPath><linearGradient id="f" gradientUnits="userSpaceOnUse" x1="444.973" y1="138.443" x2="455.076" y2="136.625" gradientTransform="matrix(.9963 0 0 -.9963 -287.096 271.128)"><stop offset="0" stop-color="#f493aa" stop-opacity="0"/><stop offset=".307" stop-color="#f6a2b8" stop-opacity=".308"/><stop offset=".697" stop-color="#f5aec6" stop-opacity=".697"/><stop offset="1" stop-color="#f7b3cb"/></linearGradient><path opacity=".53" clip-path="url(#e)" fill="url(#f)" d="M173.26 146.29c-4.58 1.99-12.55 1.1-16.14.4-.5-.1-1.1-.3-1.59-.5-2.49-1.39-2.89-4.98-3.19-7.47-.3-2.39-1.39-6.87.7-8.57 5.38-4.38 13.15-5.88 19.83-7.07.2 0 .4-.1.7-.1-.1 2.29 0 4.48.2 6.58.89 7.76 1.19 13.64-.51 16.73z"/><defs><path id="g" d="M217 77.84c-.3-3.09-3.89-3.99-6.28-5.08-9.17-4.48-8.17-15.74-11.66-24.01-2.79-6.68-6.97-12.75-12.06-18.13-5.38-6.38-7.37-8.37-25.31-17.83-13.45-6.18-28.59-9.17-43.34-9.17C82 3.71 50.91 21.35 38.86 46.26c-.8 1.49-1.39 3.09-1.99 4.68-2.19 5.78-3.29 11.86-3.29 18.13 0 1.3.1 2.69.2 3.99 8.77 9.07 17.93 15.94 27.3 21.02 2.29 1.3 4.68 2.39 6.97 3.49 2.89 1.3 5.88 2.49 8.77 3.39 1.79.6 3.49 1.1 5.28 1.59 2.39.6 4.68 1.2 7.07 1.69 1.79.4 3.49.7 5.28.9-1.79-.3-3.49-.6-5.28-.9-2.39-.5-4.68-1-7.07-1.69-1.79-.5-3.49-1-5.28-1.59-2.99-1-5.88-2.09-8.77-3.39-2.39-1-4.68-2.19-6.97-3.49-9.27-5.08-18.44-11.96-27.3-21.02.4 4.48 1.3 8.97 2.79 13.15 6.18 21.02 34.27 63.67 40.35 63.67h18.83c2.49 0 4.18-.9 5.28-2.29 1.49-1.89 1.89-4.78 1.79-7.57-.1-1.69-.7-7.87-.3-9.56.1-.4.3-2.89.5-3.29 0 0 0-.1.1-.1 4.98.7 10.06 1.99 15.24 1.99 6.18 0 12.45-.5 18.63-1.59 1.1 5.38 3.79 22.22 9.07 22.22l17.14-.1c2.39 0 8.47-.9 9.76-2.69.6-.8 1-1.79 1.2-2.89 1-5.98-.2-12.16-.6-18.13-.1-.8-.1-1.59 0-2.39.1-1.1.2-2.09.6-3.19.5-1.39 1.59-2.69 2.59-3.79 2.19-1.59 4.28-3.29 6.18-5.08 5.68-5.58 6.87-7.17 15.04-9.07 4.98-1.1 9.56-3.39 14.05-5.68 2.19-1.1 2.99-2.89 2.99-5.18v-.3c0-2.99.1-5.58 1.1-8.57.39-1.4 1.09-3.1.89-4.79zm-115.57 28.1c2.89.2 5.78.3 8.67.4-2.9-.01-5.78-.2-8.67-.4zm69.24-12.36c-.5.2-1.1.4-1.59.6-7.87 2.99-16.64 5.88-26 8.07-3.69.9-7.37 1.59-11.16 2.19-1.59.3-3.29.5-4.88.7-2.79.4-5.58.6-8.37.8-1.1.1-2.29.1-3.39.2 1.1 0 2.29-.1 3.39-.2 2.79-.2 5.58-.5 8.37-.8 1.69-.2 3.29-.5 4.88-.7 3.79-.6 7.57-1.39 11.16-2.19 9.56-2.29 18.43-5.18 26-8.07.59-.2 1.09-.4 1.59-.6 6.87-2.69 13.75-5.68 20.92-6.58-7.17.9-14.04 3.89-20.92 6.58zm24.31-6.87h2.59-2.59zm12.65 1.89c-.8-.3-1.69-.5-2.49-.7-1.69-.4-3.29-.7-5.08-1 1.69.2 3.39.5 5.08 1 .9.2 1.7.4 2.49.7.8.3 1.59.5 2.49.8-.79-.3-1.69-.6-2.49-.8z"/></defs><clipPath id="h"><use xlink:href="#g" overflow="visible"/></clipPath><linearGradient id="i" gradientUnits="userSpaceOnUse" x1="369.119" y1="134.8" x2="387.457" y2="131.486" gradientTransform="matrix(.9963 0 0 -.9963 -287.096 271.128)"><stop offset="0" stop-color="#f493aa" stop-opacity="0"/><stop offset=".307" stop-color="#f6a2b8" stop-opacity=".308"/><stop offset=".697" stop-color="#f5aec6" stop-opacity=".697"/><stop offset="1" stop-color="#f7b3cb"/></linearGradient><path opacity=".53" clip-path="url(#h)" fill="url(#i)" d="M102.52 130.05c-2.69-1.39-16.44-1.49-21.72 5.28-2.39 3.09-2.29 11.16 1.99 12.65 3.59 1.3 11.36.9 15.14.5 2.59-.2 3.29-.4 4.58-4.38 0 0 .3-2.79.3-3.19-.19-5.48-.69-7.97-.29-10.86z"/><g><linearGradient id="j" gradientUnits="userSpaceOnUse" x1="445.39" y1="136.066" x2="445.39" y2="121.688" gradientTransform="matrix(.9963 0 0 -.9963 -287.096 271.128)"><stop offset="0" stop-color="#010101" stop-opacity="0"/><stop offset=".859" stop-color="#010101" stop-opacity=".258"/><stop offset="1" stop-color="#010101" stop-opacity=".3"/></linearGradient><path fill="url(#j)" d="M138.79 136.42c1.49 6.38 3.89 13.35 7.27 13.35l17.14-.1c2.39 0 8.47-.9 9.76-2.69 1.99-3.89 1.69-9.07 1.2-13.55"/></g><g><defs><path id="k" d="M102.52 136.52c-.1-1.1-.1-2.29-.2-3.29m-37.26 4.79c5.28 7.07 9.76 11.86 11.76 11.86h18.83c2.49 0 4.18-.9 5.28-2.29 1.49-1.89 1.89-4.78 1.79-7.57 0-.6-.1-1.99-.2-3.49"/></defs><clipPath id="l"><use xlink:href="#k" overflow="visible"/></clipPath><linearGradient id="m" gradientUnits="userSpaceOnUse" x1="344.405" y1="156.76" x2="344.405" y2="134.79" gradientTransform="matrix(.9963 0 0 -.9963 -287.096 271.128)"><stop offset="0" stop-color="#f6a9c2"/><stop offset=".299" stop-color="#e593ab"/><stop offset=".751" stop-color="#d3788f"/><stop offset="1" stop-color="#ce7087"/></linearGradient><path opacity=".53" clip-path="url(#l)" fill="url(#m)" d="M48.12 111.81c4.98 8.97 10.76 17.93 15.84 24.91"/><defs><path id="n" d="M102.52 136.52c-.1-1.1-.1-2.29-.2-3.29m-37.26 4.79c5.28 7.07 9.76 11.86 11.76 11.86h18.83c2.49 0 4.18-.9 5.28-2.29 1.49-1.89 1.89-4.78 1.79-7.57 0-.6-.1-1.99-.2-3.49"/></defs><clipPath id="o"><use xlink:href="#n" overflow="visible"/></clipPath><linearGradient id="p" gradientUnits="userSpaceOnUse" x1="371.834" y1="133.415" x2="371.834" y2="121.584" gradientTransform="matrix(.9963 0 0 -.9963 -287.096 271.128)"><stop offset="0" stop-color="#010101" stop-opacity="0"/><stop offset=".859" stop-color="#010101" stop-opacity=".258"/><stop offset="1" stop-color="#010101" stop-opacity=".3"/></linearGradient><path clip-path="url(#o)" fill="url(#p)" d="M63.96 136.72c5.68 7.87 10.66 13.25 12.75 13.25h18.83c1.59 0 4.18-.8 4.98-1.79 2.69-2.79 2.39-7.47 1.99-11.56"/></g><path fill="#010101" d="M103.82 124.17c8.27 2.69 24.61 2.49 32.88-.6 1.39-.5 1.89-1.99.9-2.99l-.1-.1c-.8-.8-1.99-1-3.09-.6-6.78 2.59-22.02 3.19-28.69.5-1-.4-2.29-.1-2.99.7l-.1.1c-.81 1-.21 2.49 1.19 2.99z"/></svg>