<svg id="Layer_1" xmlns="http://www.w3.org/2000/svg" viewBox="0 0 300 250"><style>.st0{fill:#fff}.st1{stroke:#fcfcfc;stroke-width:.342;stroke-miterlimit:10}.st1,.st2{fill:none}</style><path class="st0" d="M166.1 68.6h.4c0 1 .3 1.5.8 1.5l3.2-.2c0-.8.4-1.2 1.1-1.2.6.2 1 .3 1.3.3l-.3.8h.3c1.2-.8 2.3-1.3 3.5-1.3l.1 1.2c-1.1.1-1.6.3-1.6.8v.3c1.3-.1 3.3.4 5.9 1.4l4.9-.3c.4-.1.8-.5 1.2-1.3.8.3 1.6.8 2.4 1.4l5.4-1h1.1c2.7.9 4.1 1.6 4.1 2.1-.4 0-.9.5-1.6 1.5l.1.4.5 1.8 1.9-.4L203 78c.3 1.3.5 2.1.5 2.3-.5.1-.8.4-.8.8l1.7 1.8L203 86v.4h.4l1.5-1.3.4.8.1.8-1.6 1.6c.3.4.5 1 .6 1.5-.8.2-1.2 1.2-1.1 3 .4 2 2.2 3 5.3 2.9 1.4 1.2 2.1 2.3 2.1 3.3-1.3.7-2.1 1.5-2.2 2.3 2 1 3.1 1.4 3.5 1.4v.3c.1.5-.4.8-1.4.8l.5 2.6v.8c0 .5-.3.8-.8.8l.5.8v.3c.1.7-.2 1.4-.7 2.3 1.1 0 1.6.5 1.7 1.5l.8-.1 1.4-1.6h.3c.6 0 .9.4.9 1.1-.3 1.8-.6 2.7-1.1 2.7l.5.8v.8c.1.5-.2.8-.8.8l.9 2.6-.3.8.9 4.1.8-.4h.8l.1 1.1c-.8.1-1.2.4-1.2 1.2 0 .4.8 1.3 2.4 2.6 0 .3-1.7 1.2-4.9 2.5-1.2 1.8-1.8 3-1.8 3.4l.4.8c-.1 1-.3 1.5-.7 1.5.3.5.4.9.4 1.2-.3 1-.7 1.5-1 1.5-.9-.8-1.3-1.4-1.3-1.8.2-.5.3-.9.3-1.1-.4 0-.8-.4-1.2-1.1.5-.1.7-.3.7-.8s-.8-.7-2.3-.6l-.1-1.5c1.4-1.3 2.1-2.5 2.2-3.5 2.1-.9 3.5-1.8 4.2-2.9v-.4c-.6.1-1.1-.3-1.7-1-1.6 1.6-3 2.5-4.2 2.9.1.7-.3 1.1-1.1 1.2v.8l.9 1.1c-.7 1.3-1.2 1.9-1.5 1.9.1 1.6 1 2.9 2.9 4l.1.8-4.9 1.8-1.2-.7c-4.1.6-6.6 1.2-7.3 1.8h-.4c-.2 0-.3-.1-.3-.3l-.8.4-2.3-.3c0 .3-.4.7-1.1 1.2h-.8c0-.2-.3-1.2-.9-2.9v-.4l.3-.8c-.2 0-.4-.1-.4-.3 2.6-2.3 3.8-3.6 3.8-4l-.8-.3-.8.1-1.2.8-.3.1c-.5 0-.8-.3-.8-.8.5 0 .8-.3.8-.8-.3 0-.4-.1-.4-.4l.8-.4-.4-.7v-.8l.3-1.8c-.3 0-.4-.1-.4-.4l.8-.3-.4-.8V126c-.1-1.8.8-2.7 2.6-2.8v-.4l-.8-.3.3-.8v-.7l-1.9.4-.4-.7c-1.6.6-2.6.8-3.2.8l-.4-2.2c.1-.9 1-2.2 2.5-3.6 0 .3.2.4.5.4-.1-.6.2-1.3.7-1.9-.6 0-1.1-.1-1.6-.3 0 .5-.3.8-.8.8h-.8c-.5 0-.8-.3-.8-.8l-.2-2.3c.5-1 1.1-1.5 1.9-1.6l-2.9-2.9c-.1-.6-.2-1.1-.4-1.5.2-.5.3-.9.3-1.2v-.3h-.3c0 .8-.6 1.6-1.9 2.3h-.3c-1.5.1-3.3 0-5.5-.1-1.3.3-1.9.7-1.9 1.2v.4l.9 1.1 1.9-.5 3.9-.2 1.1-.8c1.1 1.1 1.6 2.2 1.8 3.3-.8.1-1.6 1-2.3 2.8l-.7.4h-.5c-.6.1-1-.6-1.2-1.8h-.4c.1 1.3-.2 1.9-.8 1.9l.5.8c-.6 2.1-1.4 3.1-2.3 3.1l-.8.1.4 1.8.1.4h-.8c-.5.1-.8-.2-.8-.7l.3-1.9c-1.5 1.6-3.2 2.4-5.1 2.5l.1.8c.8-.1 1.2.2 1.3.7l1.5-.8c.8.4 1.6.7 2.4.7v.8c0 .3-.4.7-1.2 1.2l.4.8c-.7 1.3-1.2 2.5-1.3 3.4.3.5.4.9.4 1.2l-1.5 1.2c-.5 0-.8-.3-.8-.8l-.1-1.8-1.6-.3-2.2 3.1c.3 0 1.5.8 3.7 2.5l-2.1 5.8c-2.8 1.3-4.2 2.1-4.2 2.4v.4c.7-.1 1.1.2 1.2.7 0 .5-.5.8-1.6.8l.1 1.5c.7.6 1.3 2.3 1.8 5.2.4 0 1.5-.9 3.4-2.8h.3l1.3.7h.4c3-.2 5.6-1 7.8-2.6.9.4 1.5.7 1.9.7.1-.6.3-.8.8-.8.3 0 .4.1.4.3 1.7-.8 2.9-1.3 3.5-1.3l1.6 1.4 2.3-1.6.8-.1v1.6l.5-.1c1.5-1.3 2.2-2.3 2.2-3.1-.2 0-.4-.1-.4-.3l.4-.1 2 1.1 1.9-.5c2.2-.1 3.5-.1 3.9-.2-.1-.7.2-1.1.7-1.2l1.7 1.8h.4c4.1-.7 6.6-1.3 7.3-1.8l.3.7-.3.8.8-.1c0-.6.5-1.3 1.5-2.3l-.5-.8v-.3c.5-1 1.1-1.5 1.9-1.6l-.4-.8c1.7-3.1 3.3-4.7 4.9-4.8l.8.3-.3.8c0 .4.3 1.1.8 2.2-.4.3-1 .4-1.9.5l.1 1.8-.3 1.9 3.7 1.8h-.4c.6 1.5.9 2.5.9 3 .1.7-.3 1.8-1 3.4l.5 2.3h-.3l.4.8v.8c0 .6-.1 1.1-.3 1.5.3.4.4.8.4 1.1-3.9 2-5.9 2.9-6.1 2.9-.5-.2-.9-.3-1.3-.3l.1 1.9 2 .3c.4 0 2-1.2 4.6-3.6h.8c1.2.4 1.9.9 2 1.4l-1 1.9c1.2 0 1.9.3 2 1l.1 1.5c-1 1.2-1.5 1.8-1.5 2l1.2 1.4c-.2.4-.3 1-.3 1.5h.8c-.1-1 .2-1.5.7-1.6h.3c1.1 1 1.9 1.4 2.4 1.4v.8c.1.5-.2.8-.7.8l-.8.1-1.7-1.1h-.3v.8c1.9 1.1 2.9 2 2.9 2.5-.2.5-.3.9-.3 1.2.4 0 1 .5 1.7 1.4v.4c-.1.5-.7 1-1.8 1.6-.1-.5-.4-.8-.9-.8-.5.1-.7.4-.7.8v.3c3.2 2 5.1 3.3 5.7 3.9v.3c-2 1.6-3.1 2.4-3.4 2.4v.8l1.6-.1 1.3-.8h.3v.8h-.8l.1.4 1.6 1.4c-.4.1-.7.4-.7.8.7 0 1.1.3 1.2.8l-3.4 2c.1.2-.1.4-.3.4H228l-2.4-1-.3.8c.4 0 .8.4 1.3 1.1l-1.5 1.6.1.8c.7-.1 1.1.6 1.2 1.8l.8-.1-.5-.8c1.8-1.2 2.8-2 2.8-2.3.9-.6 1.9-.9 3-.9h.8c.8.2 1.2 1 1.3 2.2-.7.6-2 1.3-3.9 2.1v.8c.2.5.5.8.9.8 1-.8 1.8-1.3 2.3-1.3 0 .2.1.3.4.3l-.3.8v.8c.8 0 1.3.3 1.3.8-.3.5-.4.9-.4 1.1.4-.2 1-.4 1.9-.4l.5.8c-.4 1-.8 1.5-1.1 1.5l-1.3.1c-.6-.5-1.1-.7-1.5-.7-.6.3-1 .4-1.2.4-.1-.3-.2-.4-.4-.3-1.3.9-1.9 1.9-1.8 3.1 1.4 1.2 2.6 1.7 3.7 1.7.1-.7 1.1-1.1 3-1.3.4 0 .8.4 1.3 1.1v.4c.1.5-.3.8-1.2.8l.1 1.2c3.2 1.3 4.9 3.4 5 6.2l.8 1.1v.8h-.3c-.5 0-.8-.4-.8-1.1h-.3v.8l-.8.1-.4-1.9c-1.5.1-2.4.7-2.7 2 .7 1.7 1.6 3.2 2.6 4.4-.3 0-1.3.3-3.2.9h-.3c-.3 0-1-.6-2.1-1.8l.3-1.8c-.4 0-.9-.2-1.6-.7h-1.2c-.4.1-2.6.7-6.7 1.8l.1 1.5c1.3 1.1 2 1.7 2 1.8-.9 1.8-2.2 2.7-3.8 2.8l.3-.8-.1-1.1h-.8c.1 1.3-.2 1.9-.8 1.9h-.3c-.6-.1-1.1-.6-1.7-1.8 2.3-.8 3.4-1.4 3.4-1.7-.6-1.5-1.2-2.2-1.7-2.2-.2 0-.9.8-2.3 2.3l-.8-.3c-.2.7-.8 1.3-1.8 1.9-.6-.6-1-1.3-1-2.2l-2.7.1c-.1-.8-1.5-2.5-4.2-5.1v-.1l.3-.8-2.8-8.9c-1-1.1-1.8-1.7-2.5-1.8 0 .3-.1.4-.3.4-.3-.5-.4-.9-.4-1.1-.1-.9 1.2-1.8 3.8-2.9-.3-.7-.6-1.1-.9-1.1-.4.3-.8.4-1.1.4l-.4-.8c0-.4.9-1.4 2.6-2.8v-.3c-.4-1-.9-1.5-1.3-1.5 0 .5-.3.8-.8.8-.5-.6-.8-1.1-.8-1.5l-.8.4-1.6.1-.1-.8c1.8-1.1 2.8-1.7 2.8-2l-.1-.4-.5-.7c.3-.4.5-1 .4-1.6v-.8l-1.2.8-.4-.8c.2-.5.3-.9.3-1.1l-2.3 3.4-.3-.7-.2-3.4-.9-1.1c0-.7 1-1.2 3.1-1.7h.4v.8l1.3-.1c7.3-1.7 11-3.1 10.9-4.3l-.1-.4-.3.1c0 .5-.6 1-1.9 1.6-1.1 0-1.6-.6-1.7-1.8-7 .9-10.8 1.7-11.4 2.4h-.4c-.4.1-1-1.2-1.8-3.7 1-1.6 1.5-2.6 1.4-3.1l-.8-.3c0 .3-.1.4-.4.4-.3-.5-.4-.9-.4-1.1-.1-.8.3-1.2 1.2-1.3v-.3h-.8v.4c-.4-.2-1-.3-1.5-.3l-.1-.8c.1-.5.3-.8.8-.8h.3c1 .7 1.9 1 2.8 1l.4-.8-1.2.1v-.4l.3-.8-.8.1-.1-.8 2-.1v-.4c-2.3-.2-3.8-.2-4.4-.2l-.1-1.2c0-.5.5-.8 1.5-.8l-.4-.8c0-.3.1-.4.3-.4 0-.2-.1-.3-.3-.3l.3-2.7-.1-.4c0-.5-.3-.7-.8-.7l-1.2 1.6c.3-.1.5.1.5.3l-.8.4h-.8c-1.2-1-2.2-1.4-2.9-1.3-1.5.3-2.5.4-3.1.5v-.4c-.4.1-1.1.7-2.3 2h-.3c-.3 0-.5-.1-.5-.3l-1.5.8c-2.1-.3-3.2-1.1-3.3-2.5.2 0 .3-.1.3-.4l-.8-.3c-1 2-1.4 3.5-1.4 4.6l1.7.7c-.4 1.6-1.1 2.5-1.8 2.8l-2.8-1.4-.1-.3.8-1.2c-.1-.5-.3-.8-.8-.8.1.4-.3.8-1.2 1.2-2.3-.3-3.6-1.4-3.7-3.2-.1-1.6-.5-2.5-1.3-2.6h-.4v.4c.1.4.4 1.1 1 2.2-.3 2.6-.8 3.9-1.4 3.9h-.4c-.1-1-.6-1.5-1.7-1.4v-.8c.7-1.2 1-2.1 1-2.7l-2.4-1.1c-.4.1-1 .7-1.8 2-1.1-.3-1.7-.7-1.7-1.1-.8.3-1.3.4-1.5.4l-2.3-.3c0 .3-.1.4-.4.4-.1-.5-.3-.8-.8-.8-.5 1.1-1.3 1.6-2.3 1.7l.1.3.8 1.1c.2 3.2-2.3 6.2-7.4 9.1-.5-.2-1-.3-1.6-.3v.4c.3.4.4.8.4 1.1l1.2-.8.8-.1c.4 0 .8.4 1.3 1.1-1.2 2.1-2.2 3.1-3 3.2l.1 1.8h.8v.3c.1.4-.3.8-1.2 1.2l-.8-.3c.1.8-.4 1.2-1.5 1.3l.1 2.3c-1.5 1.3-2.2 2.3-2.2 2.8.2-.1.6 0 1.1.3-.2.5-.3.9-.3 1.2l-.8-.3c.2 2.9-1.3 5.3-4.4 7l.4.7c.1 1.2-2.4 5.3-7.4 12.2l-3.9-.3c0 .5-.3.8-.8.8l-1.9.1c-1-.3-3.6-1.6-7.9-3.9-1.1.1-3-1.3-5.8-3.9-1.8.1-3.4-.7-4.8-2.4l5.7-14c-.3-.4-.4-.8-.4-1.1.7-.1 1.5-1.7 2.5-5l1.1-.1.8.3c-.2-4.2 1.1-6.4 3.7-6.5 0-.3.1-.7.3-1.2l-.6-2.3-.1-.8c.3-1.1 2.6-2.2 7-3.4h.3l-.1-1.8h-.8c.1 1-.2 1.5-.8 1.5l-.8.1c-.4 0-1-.5-1.7-1.4l1.2-.8.8.3.3-.8-.8-1.1v-.4c1.1-1.8 2.7-3.1 4.9-3.9l1.6-.1.1.8c-1.1.1-1.6.3-1.6.8l1.2-.1 2.8-.9-.1-1.5-.4.1c-.4.3-.8.4-1.2.4-.1-.6-.7-1-2-1.1-.5.3-.9.4-1.1.4l-.4-.7c1.5-2.9 3-4.8 4.4-5.5l-.5-1.8c.6-2.1 1-3.1 1.3-3.1s.9 1.1 1.8 3.4c-.2.5-.3.9-.3 1.1.3.5.4.9.5 1.2.6-.1.8-.4.8-1.2-.3-.5-.5-.9-.5-1.2.4-.3 1-.4 1.6-.4l-.1-.8c-2.2-1.9-3.3-3-3.4-3.3 1.8-.8 2.7-2 2.7-3.5-.3-.4-.5-.8-.5-1.1.6-1.8 1-2.7 1.4-2.8.1.4.5.8 1.3 1.1h.4c-.1-.7.6-1.1 1.9-1.2-.1-.4-.5-.8-1.3-1.1v.8h-.3c-.5 0-.8-.3-.8-.8s.4-.8 1.1-.8v-.4l-1.1.1-.1-.8c2.3-1.2 3.4-3.5 3.2-7 .4-2.6 1-3.9 1.8-3.9.3-.1.4.1.4.3l.8-.4.8.3c.4-.6.6-1.5.6-2.7h.8c.5-.1.8.3.8 1.1h.4c.6-.8 1.7-1.2 3.4-1.3.7.7 1.3 1.1 2 1.1.5-.3.9-.4 1.3-.4l-.5-.8.3-2.3c-1.2.3-2.3.9-3.1 1.6-.9-.4-1.6-.7-2-.7l-2.3.5c-.3-.4-.4-.9-.4-1.5l-1.2.8h-.4l-.1-1.8c.5-.1 1.2-1.6 2.2-4.7h.8c.4 1.5 1 2.9 1.8 4.1l1.9-.9c-.6-.8-.8-1.5-.8-2.2l-.2-3.8-.6-1.8c.6-.1.8-.3.8-.8-.6 0-.9-.3-.9-.8v-.1l.4-1.9h.8c-.2.5-.3.9-.3 1.2v.3h.4l.3-1.9c0-.2-.2-.9-.5-2.3.4 0 1.1-.5 2.3-1.6l.8 1.1c1.2-.6 1.8-1.1 1.9-1.6-1.4.1-2.5-.5-3.2-1.8.4-.6.7-1.1.7-1.5l1.2-.1.1.8 1.5-.1-.1-1.1-1.2-1.5c1-.8 2.1-1.2 3.5-1.3h.8c-.1-.6.8-1.4 2.6-2.4.1-.5.3-.8.8-.8.5.1.8.3.8.7v1.2l1.3.7h.4c.4 0 .9-.5 1.5-1.6v-.8l-2-.3-.1-.8c0-.5.5-.8 1.5-.8l-1.7-1.4c0-.3.1-.4.4-.4l-.4-.8.3-2.3-.8-.9v-.8l.3-.8c-.5.1-.8-.2-.8-.7.3-1 .7-1.5 1.1-1.6l-.4-1.8-.1-1.2 3-3.5zM113 194.1l.8-.1-.1-.8c-.6.2-.8.5-.7.9zm.9-2.3c.2 1.5.7 2.2 1.3 2.2h.4c4.2-1.2 6.4-2 6.4-2.4-3.9.3-6.6.4-8.1.2zm.2 3.8l.2 2.3c2.9-.3 4.6-.2 5.4.3h.3v-.3c-3.6-.8-5.5-1.6-5.5-2.2h-.4zm2.9-8.1v1.5h.4l-.1-1.5h-.3zm1.2-6.9v.8c.6-.1.8.1.8.3.9-.6 2-.9 3.1-.9 1.1 1 2.2 1.5 3.3 1.4-.1-.4.3-1.1 1-2l-.4-.7c.5-1.1.7-1.8.7-2.3l-2.3.1c-1.8 1.8-3.9 2.9-6.2 3.3zm1.2 7.1v.4l.8-.1v-.3h-.8zm7.9-6.3l-.4.8v.3l4.9-.4v-.4c0-.6-1.5-.7-4.5-.3zm2.8-24.1c.1 1.7-.7 3.2-2.5 4.6l.1.8h.3c.5-.3.9-.4 1.3-.4l.3.8.8-.4 1.3.7c.5-.8.8-1.7 1-2.7-1.1-2.3-1.9-3.4-2.6-3.4zm-2 12.6v.8c.5 1.3 1.5 1.9 2.9 1.8.1-.6.4-.8.8-.8l.1.8 5.7-.5c.5 0 .7-.3.7-.8v-.4c-5.4-.2-8.1-.5-8.1-.9v-.3l-2.1.3zm5.1-15.4v.8l.4-.1c2.1-.8 3.2-1.3 3.4-1.3l-.1-1.5c-.5 0-.8-.1-.8-.3-1.8 1-2.8 1.8-2.9 2.4zm1 4.9v.8c.3-.1.7.1 1.3.3 4-1 6-1.6 6-2.1v-.3l-4.5.4-2.8.9zm4.2-19.1v.8l.4-.1c.6 0 .8-.3.8-.8l-1.2.1zm.2 5.3c.2 1.5.6 2.2 1.3 2.2h.4c4.2-1.2 6.4-2 6.4-2.4-4 .2-6.7.3-8.1.2zm.2 3.7l.1 2.3c2.9-.3 4.6-.3 5.4.3h.3v-.4c-3.5-.8-5.3-1.5-5.5-2.1h-.3zm.3-18.2l.1.8h.4v-.8h-.5zm5 26.4l-1.9-.3c0 .6-.1 1.1-.3 1.6.6.8.8 1.4.8 1.8l2.8-.5 1.2-.1c.2 0 .4.1.4.3 1.8-.5 2.7-1 2.7-1.6-.1-1.2-.5-2.2-1.3-3-1.6 1.2-3.1 1.8-4.4 1.8zm-1.9-34.5h1.6v-.8h-.8c-.5.2-.8.4-.8.8zm.5 2.3v.4c.1.5.4.7.9.7s.7-.3.7-.8v-.8c-.4.3-.9.5-1.6.5zm.2 41.4l.1.8c.6-.1.8-.3.8-.8h-.9zm.5-27.9c.4 0 2.2.1 5.3.3l.4-.1c0-.2-1.1-.8-3.4-1.8l-.8.1c-.4 0-.9.5-1.5 1.5zm5.3-11.9c.1 1.1-1.7 2.8-5.2 5.1v.4l.4.7c.5-.2.9-.4 1.2-.4l.8.3c1.3-.1 2.1-.8 2.2-2.3h.8c.6.1.9.3.9.7-.3.1-.4.2-.3.4 3.3.2 5.2.3 5.6.3v-.4c-2.5-.4-4.4-2-5.5-4.8h-.9zm7.9 10.8l-1.7-.7c-1.3.7-1.9 1.3-1.8 1.6.1 1.6-.8 2.9-2.6 3.9.5.2.9.3 1.3.3v.8l-2.8.4c0-.5-.3-.7-.8-.7s-.8.4-.8 1.2c.3.7.6 1.1.8 1.1.4-.3.8-.4 1.2-.5.1.5-.3.8-1.2.8l.1 1.5c.5 0 1.8-.8 3.9-2.4l-.4-.8-.1-.8c1.5 2.2 2.7 3.3 3.7 3.3v-.4c-.1-.9.2-1.6.7-2.3 0-.6-1.1-1.1-3.3-1.8v-1.1c2-1.5 3-2.5 3-2.9l.8-.4h.8c.6.1.8.3.8.8l-.3.8c1.1.4 1.9.7 2.4.7.4-.7 1-2 1.8-3.9l-.3.1c-.6.3-1 .4-1.3.4-.8-.8-1.3-1.4-1.3-1.8h-.4c-.5 0-1.2.9-2.2 2.8zm-8.7 24.2c.1.6 0 1.1-.3 1.5.5 1.1 1 1.7 1.6 1.8 0-.2.1-1.2.3-3l-.9-.3h-.7zm0-52.4h.8v1.2c-.5 0-.8-.3-.8-.8v-.4zm1.8 40.6l-.4.8 2.9.7v-.4c-.4-.8-1.2-1.2-2.5-1.1zM151 126v.4l3.2-.2 3.9 2.6h.8c0-.8.4-1.2 1.2-1.2l-.8-1.1c.3-.5.4-.9.4-1.2-2.9-.2-4.3-.4-4.3-.7.4-.1.8-.5 1.2-1.3l-.1-.3c0-.4-.4-.8-1.3-1.1l-1.1.1-3.1 4zm.8-25.4l.1.8c0 .4.4.8 1.2 1.1v-.3l-.5-2.3c-.5.1-.8.3-.8.7zm1 12.5c0 .3.4.7 1.3 1.1.5-.1.8-.3.8-.8-.5.1-.8-.3-.8-1.1l-.4.1c-.6 0-.9.3-.9.7zm1-3.4l.4.8c-.2.5-.3.9-.3 1.1h1.1c-.1-.7.2-1.3.8-1.9l-.8-.3h-.4l-.8.3zm.4-8c1.2 2.2 3 3.2 5.2 3.2.4-2.5.7-4 .7-4.6-.6.1-.9-.2-.9-.7-1.5.8-3.1 1.5-5 2.1zm2.2 65.9c.5.1.8.3.8.7v.4c0 .6-.6 1-1.9 1.2l-.4-.7c0-.4.5-1 1.5-1.6zm11.9-56.2c0 .3-.5.7-1.5 1.2l-6.1.2h-.4l-1.9 1.3.4.7.1.4-.8 1.2.5 1.8 5.3-.5-.1-1.8c.1-.8 1.1-1.2 3.1-1.3l.3-.1.1 1.5c.8-.8 1.5-1.2 1.9-1.2-.1-.5-.3-.8-.8-.8l.7-2.3-.8-.3zm-10 20.9l1.2-.1 3.4-2.4-.8.1c-.6.3-1 .4-1.2.4-.3-.4-.4-.9-.5-1.5h-.3c-.7 0-1.3 1.2-1.8 3.5zm.6-22.5v.3h.8V109c-.5.1-.8.4-.8.8zm7.8-17.7c.1.5-.2.8-.7.8l-.8-.3c-1.3.3-2.3 1-3 2l-.8.1-1.2-.8c.1 1.3-.3 1.9-1.2 1.9l.6 1.9.1 1.5 1.5-.1c.1-2.2.3-3.6.6-4.2 1.3.3 2 1.1 2.1 2.2h-.4l-.8-.3.1.4c1.1 1.1 1.7 1.6 1.7 1.8-.6.1-1.4 1.2-2.6 3.5l-.4.1v.3h.8l2.7-.9c.1.5.4.8.8.8h.4c-.6-.8-.9-1.5-.9-1.9.4 0 .8-.9 1.1-2.7l-1.7-1.8 3-2.1c.6.1.8.3.8.8-.2 0-.3.1-.3.4.5.1.8.3.8.7 1.6-.8 2.5-1.3 2.7-1.3l-.1-1.1c0-.4-.4-.8-1.2-1.1l-1.2.8h-.3l-2.2-1.4zM161 79.4c.7 2 1.3 3.4 1.8 4.1v.3l-.3.1-1.7-1.1c.1 1.8-.1 2.7-.6 2.7-.6 0-.9-.3-.9-.8 0-.2.2-.3.5-.3l-.5-.8c.7-1 1.1-1.8 1.1-2.3-.3-.4-.4-.8-.4-1.1l1-.8zm-1.4 63.8l.1 1.2c.5-.1.7-.3.7-.8v-.3h-.8zm1.8-38.4v.3c.2.5.4.8.8.8l.4-.8-.8-.3h-.4zm1.8 31.8v.4l1.9-.5c0-.5-.3-.7-.8-.7h-.3c-.6.1-.8.4-.8.8zm.5-6.8c.3 0 .7.1 1.2.3l.3-.8-.1-1.1c-.4 0-.8.5-1.4 1.6zm.4-7.2l.1 1.8c2.1.3 3.1 1.1 3.2 2.2l.5-.1c.5 0 .7-.3.7-.8l-.1-2.3-1.9.5h-.4l-.1-1.9-2 .6zm4.9-50l-.3 1.6h-.3l-.9-.3.1.8c.3.4.5.8.5 1.1h.8c.5-.1.8-.3.8-.8l-.2-2.3h-.5zm-1-4.9h.8v.8h-.7l-.1-.8zm.3 31.5c0 .3.5.7 1.6 1v-1.1l-1.6.1zm.6-19.4l.1.8h.3v-.8h-.4zm.9.8v.8l.8-.1v-.8l-.8.1zm.5-13.4h1.1c.1.5-.2.8-.7.8h-.4v-.8zm.8 45.2c.6.6.9 1.3.9 2.2h.4c.3 0 .9-.6 1.8-1.9-.2-1.8-.5-2.7-.9-2.7-.8.3-1.5 1.1-2.2 2.4zm5.4 47.8l.1 1.2c.3-.1.7-.4 1.1-1.2h-1.2zm4.1-64.9c0 .2-.8 1-2.3 2.3.1.5.4.8.8.8.6-.1 1.4-.8 2.3-2.3-.1-.5-.3-.8-.8-.8zm-1 63.7h.8l-.1-.8c-.5.1-.7.3-.7.8zm4.7-11.2l-2.2 2.7v.4h.3c.8-.3 1.8-1.1 3-2.4l-1.1-.7zm3.2-22.1h.3c.6.1.8.3.8.7-.5.7-.8 1.3-.8 1.9l-.8.1c-.4 0-.7-.3-.8-.8.5-1.3.9-1.9 1.3-1.9zm2.2-26.6l-1.9.1-.2 3.8 1.9-.1c-.1-1.2.7-2 2.3-2.3v-.4c-.8.1-1.2-.4-1.3-1.4l-.8.3zm-.3 64.7c.6 0 1 .6 1.3 1.8l-1.2.8h-.3l-1.3-.8c.4-1 .9-1.6 1.5-1.8zm-.5-88.9v.3c0 .6.7 1 2 1.1 0-.3.1-.4.3-.4-.3-.4-.4-.8-.4-1.1l-1.9.1zm3.4 14.6h.8l3.5-1.3v-.3c-2.9.3-4.3.8-4.3 1.6zm.1-14.4l.1.8.3-.1V75l-.4.1zm3 32.1l.4.7c1.3-.3 1.9-.7 1.8-1.2l-.8-.3c-.5.4-1 .7-1.4.8zm.8 9v.3h.4l1.9-.5v-1c-1.5.3-2.3.7-2.3 1.2zm1.2.7v.3h.8v-.3h-.8zm1.9-10.3c.1 1-.3 1.9-1.1 2.7.6 0 .9.1.9.3 2.1-.1 3.7-1 4.9-2.9h-.8l-1.2.8h-.4l-1.7-1h-.6zm-.1-2.7l.8.4.5-.1c.2 0 1.2-1.3 2.9-3.9l-.4-.8c-2.7 1.1-3.9 2.5-3.8 4.4zm2.1 10.1v1.5l-.3.1v.3c.4 0 1.5.2 3.2.6 1.8-.6 2.7-1.5 2.7-2.8l-.8.1-1.2.8-.8.1v-.8l-2.8.1zm.9 25.4c.6.1.8.3.8.7l-.7.4c-.6.1-.9-.2-.9-.7l.8-.4zm3.4-40c0-.2-.1-.3-.4-.3l.1.8.4.8.8-.4h.8v1.1h.8l-.1-2.7c-1 .5-1.8.7-2.4.7zm-.2 26.6c0 .3.4.7 1.3 1h.8v-.3c-.1-.5-.3-.8-.8-.8l-1.3.1zm2.1 19.2v.3c.5 0 .8.5.8 1.5l2.8-.2c0-1 .4-1.5 1.1-1.5v-.3l-1.9.5h-.4c-.5 0-.8-.3-.8-.8-.5.3-1.1.5-1.6.5zm1.2 58.7v.3h.8v-.4l-.8.1zm3.5-33.9l-2-.3-1.3 2.3v.3h1.1l2.3-1.3c.1 1 1 1.6 2.9 1.8l.1.8.8-.1c-.1-1.5.7-2.3 2.2-2.7l1.6.3 1.9-1.2c.4.2 1 .3 1.6.3l.3-.8v-1.1h-.4l-1.2.8c-.7 0-1.5-.2-2.3-.7 0 .3-.1.6-.3 1.1l-.8-.3-1.1.8-1.3.1v-.4l.8-1.2c-1.6.1-2.4 0-2.4-.3-.5.2-1.2.7-2.5 1.8zm-2.5-53.3c0 .6-.2 1.3-.7 1.9 0 .4.9.7 2.8 1-.1-.5.4-.8 1.5-.8 0-.7-.3-1.4-.9-2.2-.2 0-.3.1-.3.3l-2-.3h-.4zm.1 36.3l.8.3h.3c.6-.5 1.1-.8 1.6-.8l-.2-1.5-.3.1c-1 .4-1.7 1-2.2 1.9zm2.5-45.1c.4-.1.9.4 1.3 1.4l-.8.4-1.2.1c0-.3-.1-.7-.4-1.2l1.1-.7zm1.1 68.4h.8l-.1-.8c-.6.2-.8.4-.7.8zm1.9-32.6v-.3c-1.3.2-1.9 1.1-1.8 2.7h.3l2-.5c.7 1.7 1.3 2.6 1.7 2.6h.4c-.1-.5.5-1.5 1.8-3.1v-.4c-.8-1.2-1.3-1.8-1.7-1.8l-2.7.8zm-1.8 20.1v.4c.1.5.4.7.8.7h1.3c-.1-.4.2-.9.7-1.6-.3.1-.4-.1-.4-.3-.9.6-1.7.8-2.4.8zm1.4 5.7l.1 1.2c-.6 0-.8-.3-.8-.8l.7-.4zm3.6 10.4c.1.8-.6 1.4-2.3 1.6v.8c2.1.2 3.4.4 4 .6l1.9-1.3.8.3c.2 0 .3-.1.3-.3l2 .3 1.6-.1-.1-.8c0-.6-.5-1-1.6-1-.6.3-1 .4-1.3.4 0-.5-.3-.8-.8-.8 0 .4-.4.8-1.2 1.2l-.3.1c-.3-.3-1.4-.7-3-1zm-1.9 16h.8v-.8c-.5.1-.8.4-.8.8zm.9 21.6v.8l.8-.1v-.8l-.8.1zm1.8-40.2c0 .7-.4 1.1-1.2 1.2 0 .3.4.7 1.3 1.1h.3c.5-.1.8-.3.8-.8v-.3c-.1-.5-.5-.9-1.2-1.2zm-.4 15.9c.1.7-.2 1.6-.8 2.7l1.7.7c-.1-.8.1-1.2.3-1.2-.4-1.5-.8-2.3-1.2-2.2zm.9-3.9l.1.8c.1.5.4.8.8.8.8-.8 1.4-1.3 1.8-1.3-.3-1.2-.6-1.8-.8-1.8-1.1.5-1.8 1-1.9 1.5zm.3 7.6l.1 1.2.8-.1v-.3c0-.6-.3-.8-.9-.8zm.5-58h.4v.8h-.4v-.8zm5 63v.4h.8v-.4h-.8zm7-1.8l.4-.1.1.8-.5.1v-.8zm9 15.1c1.6.6 2.4 1.1 2.4 1.4v.8c.1.5-.3.8-1.2.8l-2.8-.6v-.4c.8-1.3 1.3-1.9 1.6-2z"/><path class="st1" d="M114.5 195.6c0 .6 1.8 1.3 5.4 2.2v.3h-.3c-.7-.4-2.5-.5-5.4-.3l-.2-2.3h.5zm7.5-4c0 .4-2.1 1.2-6.4 2.4h-.4c-.7.1-1.1-.7-1.3-2.2 1.5.2 4.2.1 8.1-.2zm96.3 25.8v.8l-.8.1v-.8l.8-.1zm21.8-.2v.4l2.8.6c.8 0 1.2-.3 1.2-.8v-.8c-.1-.3-.9-.8-2.4-1.4-.4.1-.9.7-1.6 2zm-30.7-13.4v.4h-.8v-.3l.8-.1zm16.9-1.5h-.8v-.4h.8v.4zm6.3-1.4l.5-.1-.1-.8-.4.1v.8zm-11.5-3.3v.3l-.8.1-.1-1.2c.5.1.8.3.9.8zm-3.7-2.5v.8h-.8c0-.4.3-.7.8-.8zm2.7.3c-.3 0-.4.4-.3 1.2l-1.7-.7c.6-1.1.8-2 .8-2.7.4-.1.8.7 1.2 2.2zm1.6-7.7c.2 0 .5.6.8 1.8-.4 0-1.1.4-1.8 1.3-.4 0-.7-.3-.8-.8l-.1-.8c.1-.4.8-.9 1.9-1.5zm-108 5.6l.1.8-.8.1c-.1-.5.1-.8.7-.9zm108.1-12.4l.3-.1c.8-.4 1.2-.8 1.2-1.2.5 0 .8.3.8.8.3 0 .7-.1 1.3-.4 1.1.1 1.6.4 1.6 1l.1.8-1.6.1-2-.3c0 .2-.1.3-.3.3l-.8-.3-1.9 1.3c-.6-.2-2-.4-4-.6v-.8c1.6-.2 2.4-.8 2.3-1.6 1.3.3 2.4.7 3 1zm-1.3-2.6v.3c0 .5-.3.8-.8.8h-.3c-.8-.4-1.3-.8-1.3-1.1.8-.1 1.2-.4 1.2-1.2.7.5 1.1.9 1.2 1.2zm-100.4 9.4v.3l-.8.1v-.4h.8zm-2.8-.2l.1 1.5h-.4v-1.5h.3zm96.7-11.9l.1.8h-.8c0-.5.2-.7.7-.8zm-82.2 6v.4l-4.9.4v-.3l.4-.8c3-.3 4.5-.2 4.5.3zm82.4-11.7c0 .5.3.8.8.8l-.1-1.2-.7.4zm.2-1.5c0 .2.8.3 2.4.3l-.8 1.2v.4l1.3-.1 1.1-.8.8.3c.2-.4.3-.8.3-1.1.9.4 1.7.7 2.3.7l1.2-.8h.4v1.1l-.3.8c-.6.1-1.1 0-1.6-.3l-1.9 1.2-1.6-.3c-1.5.3-2.2 1.2-2.2 2.7l-.8.1-.1-.8c-1.8-.2-2.8-.8-2.9-1.8l-2.3 1.3h-1.1v-.3l1.3-2.3 2 .3c1.6-1.3 2.3-1.8 2.5-1.8zm-90.1 8.9l2.3-.1c.1.5-.2 1.3-.7 2.3l.4.7c-.7.9-1.1 1.6-1 2-1.1.1-2.2-.4-3.3-1.4-1.1.1-2.2.4-3.1.9 0-.3-.3-.4-.8-.3v-.8c2.4-.4 4.5-1.5 6.2-3.3zm30.6-8.1l.4.7c1.3-.2 1.9-.6 1.9-1.2v-.4c-.1-.4-.3-.6-.8-.7-1 .6-1.5 1.2-1.5 1.6zm60.9-6.2c0 .3.1.4.4.3-.5.7-.7 1.2-.7 1.6h-1.3c-.4.1-.6-.2-.8-.7v-.4c.8 0 1.6-.2 2.4-.8zm-72 3.6c.1.5-.2.8-.8.8l-.1-.8h.9zm44.1-.8l1.3.8h.3l1.2-.8c-.2-1.2-.6-1.8-1.3-1.8-.6 0-1.1.6-1.5 1.8zm-57.9 3.7v.3c.1.4 2.8.7 8.1.9v.4c.1.5-.2.8-.7.8l-5.7.5-.1-.8c-.4 0-.6.3-.8.8-1.4.1-2.3-.6-2.9-1.8v-.8l2.1-.3zm18.6-7.6l.9.3c-.2 1.8-.3 2.8-.3 3-.6-.1-1.1-.7-1.6-1.8.2-.4.3-.9.3-1.5h.7zm29.1-1.7c-.4.7-.8 1.1-1.1 1.2l-.1-1.2h1.2zm2.7-2l.1.8h-.8c-.1-.5.1-.7.7-.8zm-43.5.3l4.5-.4v.3c.1.4-1.9 1.1-6 2.1-.6-.3-1-.4-1.3-.3v-.8l2.8-.9zm-4.3 2.1c-.2 1-.5 1.9-1 2.7l-1.3-.7-.8.4-.3-.8c-.3 0-.8.1-1.3.4h-.3l-.1-.8c1.8-1.4 2.6-2.9 2.5-4.6.8.1 1.6 1.2 2.6 3.4zm15.8-4.8c.8.8 1.3 1.8 1.3 3 .1.6-.8 1.1-2.7 1.6-.1-.2-.2-.3-.4-.3l-1.2.1-2.8.5c0-.4-.3-1.1-.8-1.8.2-.5.3-1 .3-1.6l1.9.3c1.4-.1 2.9-.7 4.4-1.8zm63.7-4.7l.3-.1.2 1.5c-.4.1-1 .3-1.6.8h-.3l-.8-.3c.4-.9 1.1-1.5 2.2-1.9zm-75.9 1c0 .2.3.3.8.3l.1 1.5c-.2 0-1.4.4-3.4 1.3l-.4.1v-.8c0-.6 1-1.4 2.9-2.4zm15.9-1v.4l-2.9-.7.4-.8c1.4 0 2.2.4 2.5 1.1zm33.3-2.6c-1.2 1.3-2.2 2.2-3 2.4h-.3v-.4l2.2-2.7 1.1.7zm-46.3.8c.1.6 1.9 1.3 5.4 2.1v.4h-.3c-.7-.5-2.5-.6-5.4-.3l-.1-2.3h.4zm70-4.6c0 .5.3.8.8.8h.4l1.9-.5v.4c-.7 0-1.1.5-1.1 1.5l-2.8.2c-.1-1-.3-1.5-.8-1.5v-.3c.5-.1 1.1-.3 1.6-.6zm8.9-1.8c.3 0 .9.6 1.7 1.8v.4c-1.2 1.6-1.8 2.6-1.8 3.1h-.4c-.4 0-1-.9-1.7-2.6l-2 .5h-.3c-.1-1.6.6-2.5 1.8-2.7v.3l2.7-.8zm-71.3 2.4c0 .4-2.1 1.2-6.4 2.4h-.4c-.6.1-1-.7-1.3-2.2 1.4.2 4.1.1 8.1-.2zm13.7-2.1v.3c.1.5-.2.8-.7.8l-.1-1.2h.8zm60.2-3.5h.4v-.8h-.4v.8zm-19.2.2c.1.5.4.7.9.7l.7-.4c0-.4-.3-.6-.8-.7l-.8.4zm-61.8.3c.1.5-.2.8-.8.8l-.4.1v-.8l1.2-.1zm5.3-2.9l.8-.1c2.2 1.1 3.4 1.7 3.4 1.8l-.4.1c-3.1-.2-4.9-.3-5.3-.3.6-1 1.1-1.5 1.5-1.5zm19.1-1.5h.4c.5-.1.8.2.8.7l-1.9.5v-.4c-.1-.4.1-.7.7-.8zm-5.2-.9h.4c0 .4.4 1.1 1.3 1.8.3 0 .7-.1 1.3-.4l.3-.1c-.7 2-1.3 3.3-1.8 3.9-.6 0-1.4-.2-2.4-.7l.3-.8c0-.4-.3-.7-.8-.8h-.8l-.8.4c0 .4-1 1.3-3 2.9v1.1c2.2.6 3.3 1.2 3.3 1.8-.5.6-.7 1.4-.7 2.3v.4c-1 .1-2.2-1-3.7-3.3l.1.8.4.8c-2.1 1.6-3.4 2.4-3.9 2.4l-.1-1.5c.8-.1 1.2-.3 1.2-.8-.3.1-.7.2-1.2.5-.3 0-.6-.4-.8-1.1 0-.8.3-1.2.8-1.2.5-.1.8.2.8.7l2.8-.5v-.8c-.3 0-.8-.1-1.3-.3 1.8-1 2.7-2.3 2.6-3.9-.1-.3.6-.9 1.8-1.6l1.7.7c1-1.8 1.7-2.7 2.2-2.7zm-19.2-3.8v.8h-.4l-.1-.8h.5zm20.5-2.3h.3c.1.6.2 1.1.5 1.5.2 0 .6-.1 1.2-.4l.8-.1-3.4 2.4-1.2.1c.5-2.3 1.1-3.5 1.8-3.5zm46.5-2.9c.5 0 .8.3.8.8v.3h-.8c-.8-.3-1.3-.7-1.3-1l1.3-.1zm-41.5 2.3l.1 1.1-.3.8c-.5-.2-.9-.3-1.2-.3.6-1.1 1-1.6 1.4-1.6zm21.3-.6c.1.5.3.8.8.8l.8-.1c0-.6.3-1.3.8-1.9 0-.4-.3-.6-.8-.7h-.3c-.6 0-1 .6-1.3 1.9zm-36.9-.7c1.2 2.8 3 4.4 5.5 4.8v.4c-.4 0-2.3-.1-5.6-.3-.1-.2 0-.4.3-.4 0-.4-.3-.6-.9-.7h-.8c-.1 1.5-.8 2.3-2.2 2.3l-.8-.3c-.3.1-.7.2-1.2.4l-.4-.7v-.4c3.5-2.3 5.3-4.1 5.2-5.1h.9zm-5.2-2.1v.8c.1.5-.2.8-.7.8-.5.1-.8-.2-.9-.7v-.4c.7 0 1.2-.2 1.6-.5zm21.8-2.7l.1 1.9h.4l1.9-.5.1 2.3c.1.5-.2.8-.7.8l-.5.1c-.1-1.1-1.1-1.8-3.2-2.2l-.1-1.8 2-.6zm-12 .1l1.1-.1c.8.3 1.3.7 1.3 1.1l.1.3c-.4.8-.8 1.2-1.2 1.3 0 .2 1.4.4 4.3.7 0 .3-.1.7-.4 1.2l.8 1.1c-.8 0-1.2.4-1.2 1.2h-.8l-3.9-2.6-3.2.2v-.6l3.1-3.8zm-11.1 0h.8v.8h-1.6c0-.4.3-.6.8-.8zm67-5.5l2 .3c0-.2.1-.3.3-.3.6.8.9 1.5.9 2.2-1.1.1-1.6.3-1.5.8-1.8-.3-2.8-.6-2.8-1 .4-.7.7-1.3.7-1.9h.4zm-11.8.5h-.8v-.3h.8v.3zm.4-2.2v1.1l-1.9.5h-.4v-.3c-.1-.6.7-1 2.3-1.3zm5.4-1.1v.8l.8-.1 1.2-.8.8-.1c.1 1.3-.8 2.2-2.7 2.8-1.7-.4-2.7-.6-3.2-.6v-.3l.3-.1V114l2.8-.1zm-34.9-2.1l-.7 2.3c.5 0 .8.3.8.8-.4 0-1.1.4-1.9 1.2l-.1-1.5-.3.1c-2 .1-3 .5-3.1 1.3l.1 1.8-5.3.5-.5-1.8.8-1.2-.1-.4-.4-.7 1.9-1.3h.4l6.1-.2c1-.4 1.5-.8 1.5-1.2l.8.3zm-15.5.6l.4-.1c.1.8.3 1.1.8 1.1 0 .5-.3.8-.8.8-.8-.4-1.3-.8-1.3-1.1.1-.4.4-.7.9-.7zm57.7-3.7c.3.5.4.9.4 1.2l1.2-.1.8-.4c-.4-1-.8-1.5-1.3-1.4l-1.1.7zm-37.9 1.3c.4 0 .7.9.9 2.7-.9 1.3-1.5 1.9-1.8 1.9h-.5c-.1-.9-.4-1.6-.9-2.2.7-1.3 1.4-2.1 2.3-2.4zm-25.5-.1c0 .5.3.8.8.8v-1.2h-.8v.4zm52.1-3.3l1.7 1h.4l1.2-.8h.8c-1.2 1.8-2.9 2.8-4.9 2.9-.1-.2-.4-.3-.9-.3.8-.8 1.1-1.7 1.1-2.7h.6zm-40.2 2.4v1.2h-.8v-.3c-.1-.5.2-.8.8-.9zm-5.2.2h.4l.8.3c-.6.6-.8 1.3-.8 1.9h-1c-.1-.2 0-.6.3-1.1l-.4-.8.7-.3zm42.3-2.9l.8.3c.1.4-.6.8-1.8 1.2l-.4-.7c.3 0 .8-.3 1.4-.8zm-35-1.6l.8.3-.4.8c-.4 0-.7-.3-.8-.8v-.3h.4zm41.1-5.1l.4.8c-1.7 2.6-2.7 3.9-2.9 3.9l-.5.1-.8-.4c-.1-2 1.1-3.4 3.8-4.4zm5-1l.1 2.7h-.8v-1.1h-.8l-.8.4-.4-.8-.1-.8c.3 0 .4.1.4.3.6.1 1.4-.1 2.4-.7zm-17.5.1c.1 1 .5 1.5 1.3 1.4v.4c-1.6.3-2.3 1.1-2.3 2.3l-1.9.1.2-3.8 1.9-.1.8-.3zm-20.6.4v1.1c-1.1-.3-1.6-.7-1.6-1l1.6-.1zm-10.7.5c.1.5.4.7.9.7 0 .6-.2 2.2-.7 4.6-2.2.1-4-1-5.2-3.2 1.9-.6 3.5-1.3 5-2.1zm-6.6.3l.5 2.3v.3c-.8-.3-1.2-.7-1.2-1.1l-.1-.8c0-.4.3-.6.8-.7zm28.7-3.8c-.9 1.5-1.6 2.3-2.3 2.3-.4 0-.6-.3-.8-.8 1.5-1.3 2.3-2.1 2.3-2.3.6 0 .8.3.8.8zm-12.5-2.6h.3l1.2-.8c.8.3 1.2.7 1.2 1.1l.1 1.1c-.2 0-1.1.4-2.7 1.3 0-.4-.3-.6-.8-.7 0-.3.1-.4.3-.4 0-.4-.3-.7-.8-.8l-3 2.1 1.7 1.8c-.3 1.8-.6 2.7-1.1 2.7 0 .4.3 1.1.9 1.9h-.4c-.4 0-.7-.3-.8-.8l-2.7.9h-.8v-.3l.4-.1c1.2-2.3 2-3.5 2.6-3.5 0-.1-.6-.7-1.7-1.8l-.1-.4.8.3h.4c-.1-1.1-.8-1.8-2.1-2.2-.3.6-.5 2-.6 4.2l-1.5.1-.1-1.5-.6-1.9c.8 0 1.2-.6 1.2-1.9l1.2.8.8-.1c.7-1.1 1.7-1.7 3-2l.8.3c.5 0 .7-.3.7-.8l2.2 1.4zm27.8-5.7v.3l-3.5 1.3h-.8c0-.7 1.4-1.2 4.3-1.6zm-26-7.3v.8l-.8.1v-.8l.8-.1zm-1.3-.7v.8h-.3l-.1-.8h.4zm-9.4.4c0 .3.1.6.4 1.1 0 .6-.4 1.3-1.1 2.3l.5.8c-.3 0-.5.1-.5.3.1.5.4.8.9.8s.7-.9.6-2.7l1.7 1.1.3-.1v-.3c-.5-.7-1.1-2.1-1.8-4.1l-1 .8zm32.9-5.2v.8l-.3.1-.1-.8.4-.1zm-2-.2c0 .3.1.6.4 1.1-.2 0-.3.1-.3.4-1.3-.1-2-.5-2-1.1v-.3l1.9-.1zm-21.5-2.2l.2 2.3c0 .5-.3.8-.8.8h-.7c0-.3-.2-.6-.5-1.1l-.1-.8.9.3h.3l.3-1.6h.4zm-6.3-.5l.1 1.2.4 1.8c-.4.1-.8.6-1.1 1.6.1.5.3.7.8.7l-.3.8v.8l.9 1.1-.3 2.3.4.8c-.3 0-.4.1-.4.4l1.7 1.4c-1 .1-1.5.3-1.5.8l.1.8 2 .3v.8c-.6 1.1-1.1 1.6-1.5 1.6h-.4l-1.3-.7v-1.2c-.1-.4-.3-.6-.8-.7-.4 0-.7.3-.8.8-1.8 1.1-2.7 1.9-2.6 2.4h-.8c-1.4.1-2.6.5-3.5 1.3l1.2 1.5.1 1.1-1.5.1-.1-.8-1.2.1c0 .4-.2.9-.7 1.5.7 1.2 1.8 1.8 3.2 1.8-.1.5-.8 1-1.9 1.6l-.8-1.1c-1.1 1.1-1.9 1.6-2.3 1.6.3 1.3.5 2.1.5 2.3l-.3 1.9h-.3v-.3c0-.3.1-.7.3-1.2h-.8l-.4 1.9v.3c.1.5.4.8.9.8 0 .5-.3.8-.8.8l.6 1.8.2 3.8c0 .7.3 1.4.8 2.2l-1.9.9c-.8-1.2-1.4-2.6-1.8-4.1h-.8c-1 3.1-1.7 4.6-2.2 4.7l.1 1.8h.4l1.2-.8c0 .6.1 1.1.4 1.5l2.3-.5c.4 0 1.1.2 2 .7.8-.7 1.9-1.3 3.1-1.6l-.3 2.3.5.8c-.3 0-.8.1-1.3.4-.7 0-1.3-.4-2-1.1-1.7.1-2.9.6-3.4 1.3h-.4c-.1-.8-.3-1.1-.8-1.1h-.8c.1 1.2-.1 2.1-.6 2.7l-.8-.3-.8.4c0-.3-.1-.4-.4-.3-.8 0-1.4 1.3-1.8 3.9.2 3.4-.9 5.7-3.2 7l.1.8 1.1-.1v.4c-.7 0-1.1.3-1.1.8.1.5.3.8.8.8h.3v-.8c.8.3 1.2.7 1.3 1.1-1.3.1-2 .4-1.9 1.2h-.4c-.8-.3-1.2-.7-1.3-1.1-.4.1-.9 1-1.4 2.8 0 .3.2.6.5 1.1.1 1.5-.8 2.7-2.7 3.5.1.3 1.2 1.4 3.4 3.3l.1.8c-.6 0-1.1.1-1.6.4 0 .3.2.7.5 1.2.1.7-.2 1.1-.8 1.2-.1-.3-.2-.7-.5-1.2 0-.2.1-.6.3-1.1-.8-2.2-1.4-3.4-1.8-3.4-.3 0-.8 1-1.3 3.1l.5 1.8c-1.5.8-2.9 2.6-4.4 5.5l.4.7c.2 0 .6-.1 1.1-.4 1.3.1 2 .5 2 1.1.3 0 .7-.1 1.2-.4l.4-.1.1 1.5-2.8.9-1.2.1c0-.5.5-.8 1.6-.8V155l-1.6.1c-2.2.8-3.8 2.2-4.9 3.9v.4l.8 1.1-.3.8-.8-.3-1.2.8c.7 1 1.3 1.4 1.7 1.4l.8-.1c.6 0 .8-.5.8-1.5h.8l.1 1.8h-.3c-4.4 1.2-6.8 2.3-7 3.4l.1.8.6 2.3c-.2.5-.3.9-.3 1.2-2.6.1-3.9 2.3-3.7 6.5l-.8-.3-1.1.1c-1 3.3-1.8 5-2.5 5 0 .3.1.6.4 1.1l-5.7 14c1.4 1.7 3 2.5 4.8 2.4 2.8 2.7 4.7 4 5.8 3.9 4.3 2.3 6.9 3.6 7.9 3.9l1.9-.1c.5-.1.8-.3.8-.8l3.9.3c5-6.9 7.4-11 7.4-12.2l-.4-.7c3.1-1.8 4.5-4.1 4.4-7l.8.3c0-.3.1-.7.3-1.2-.5-.2-.9-.3-1.1-.3-.1-.5.7-1.4 2.2-2.8l-.1-2.3c1.1-.1 1.6-.5 1.5-1.3l.8.3c.8-.4 1.2-.8 1.2-1.2v-.3h-.8l-.1-1.8c.8-.1 1.8-1.1 3-3.2-.4-.7-.9-1.1-1.3-1.1l-.8.1-1.2.8c0-.3-.1-.6-.4-1.1v-.4c.6 0 1.1.1 1.6.3 5.1-2.9 7.5-5.9 7.4-9.1l-.8-1.1-.1-.3c1.1-.1 1.8-.6 2.3-1.7.4 0 .7.3.8.8.3 0 .4-.1.4-.4l2.3.3c.2 0 .7-.1 1.5-.4 0 .4.6.8 1.7 1.1.8-1.3 1.5-2 1.8-2l2.4 1.1c0 .6-.3 1.5-1 2.7v1.1c1.1-.1 1.6.4 1.7 1.4h.4c.6 0 1.1-1.3 1.4-3.9-.6-1.1-1-1.8-1-2.2v-.4h.8c.8.1 1.2 1 1.3 2.6.1 1.8 1.3 2.9 3.7 3.2.8-.4 1.2-.8 1.2-1.2.5 0 .8.3.8.8l-.8 1.2.1.3 2.8 1.4c.8-.2 1.4-1.1 1.8-2.8l-1.7-.7c0-1.1.5-2.7 1.4-4.6l.8.3c0 .3-.1.4-.3.4.1 1.4 1.1 2.2 3.3 2.5l1.5-.8c0 .2.2.3.5.3h.3c1.1-1.3 1.9-2 2.3-2v.4c.6-.1 1.6-.2 3.1-.5.7-.1 1.6.4 2.9 1.3h.8l.8-.4c0-.3-.2-.4-.5-.3l1.2-1.6c.5-.1.8.2.8.7l.1.4-.3 2.7c.2 0 .3.1.3.3-.2 0-.3.1-.3.4l.4.8c-1 0-1.5.3-1.5.8l.1 1.2c.6-.1 2 0 4.4.2v.4l-2 .1.1.8.8-.1-.3.8v.4l1.2-.1-.4.8c-.8 0-1.8-.3-2.8-1h-.3c-.4 0-.7.3-.8.8l.1.8c.6 0 1.1.1 1.5.3v-.4h.8v.3c-.8.1-1.2.5-1.2 1.3 0 .2.1.6.4 1.1.3 0 .4-.1.4-.4l.8.3c.1.5-.4 1.5-1.4 3.1.7 2.5 1.3 3.7 1.8 3.7h.4c.6-.7 4.4-1.5 11.4-2.4.1 1.2.6 1.8 1.7 1.8 1.3-.6 1.9-1.1 1.9-1.6l.3-.1.1.4c.1 1.2-3.6 2.6-10.9 4.3l-1.3.1v-.8h-.4c-2.1.4-3.1 1-3.1 1.7l.9 1.1.2 3.4.3.7 2.3-3.4c0 .2-.1.6-.3 1.1l.4.8 1.2-.8v.8c.1.6-.1 1.1-.4 1.6l.5.7.1.4c0 .3-.9 1-2.8 2l.1.8 1.6-.1.8-.4c.1.4.3.9.8 1.5.5-.1.8-.3.8-.8.4 0 .8.5 1.3 1.5v.3c-1.7 1.4-2.6 2.3-2.6 2.8l.4.8c.3 0 .6-.1 1.1-.4.3 0 .6.4.9 1.1-2.6 1-3.8 2-3.8 2.9 0 .2.1.6.4 1.1.2 0 .3-.1.3-.4.7.1 1.5.7 2.5 1.8l2.8 8.9-.3.8v.3c2.7 2.6 4.1 4.3 4.2 5.1l2.7-.1c.1.9.4 1.6 1 2.2 1.1-.6 1.7-1.3 1.8-1.9l.8.3c1.3-1.6 2.1-2.3 2.3-2.3.5-.1 1.1.7 1.7 2.2 0 .3-1.1.8-3.4 1.7.6 1.1 1.1 1.7 1.7 1.8h.3c.6 0 .8-.6.8-1.9h.8l.1 1.1-.3.8c1.6-.1 2.9-1 3.8-2.8 0-.2-.7-.8-2-1.8l-.9-2c4.1-1.2 6.3-1.8 6.7-1.8h1.2c.7.4 1.2.7 1.6.7l-.3 1.8c1.1 1.2 1.8 1.8 2.1 1.8h.3c1.8-.6 2.9-.9 3.2-.9-1-1.2-1.9-2.7-2.6-4.4.3-1.3 1.2-2 2.7-2l.4 1.9.8-.1v-.8h.3c.1.7.3 1.1.8 1.1h.3v-.8l-.8-1.1c-.1-2.8-1.8-4.9-5-6.2l-.1-1.2c.8 0 1.2-.3 1.2-.8v-.4c-.4-.7-.9-1.1-1.3-1.1-1.9.1-2.9.5-3 1.3-1.1.1-2.3-.5-3.7-1.7-.1-1.2.6-2.2 1.8-3.1.2-.1.4.1.4.3.2 0 .6-.1 1.2-.4.4-.1.9.2 1.5.7l1.3-.1c.3 0 .7-.5 1.1-1.5l-.5-.8c-.9.1-1.5.2-1.9.4 0-.2.1-.6.4-1.1 0-.5-.4-.8-1.3-.8v-.8l.3-.8c-.3 0-.4-.1-.4-.3-.5 0-1.3.4-2.3 1.3-.4 0-.8-.3-.9-.8v-.5c1.9-.8 3.2-1.5 3.9-2.1-.1-1.2-.5-2-1.3-2.2h-.8c-1.1.1-2.1.4-3 .9 0 .4-.9 1.2-2.8 2.3l.5.8-.8.1c-.1-1.3-.4-1.9-1.2-1.8l-.1-.8 1.5-1.6c-.4-.7-.9-1.1-1.3-1.1l.3-.8 2.4 1h.8c.3-.1.4-.2.3-.4l3.4-2c-.1-.5-.4-.8-1.2-.8 0-.4.2-.6.7-.8l-1.6-1.4-.1-.4h.8v-.8h.1l-1.3.8-1.6.1v-.8c.3 0 1.5-.8 3.4-2.4v-.3c-.6-.6-2.5-1.9-5.7-3.9v-.3c-.1-.4.2-.7.7-.8.6 0 .9.3.9.8 1.2-.6 1.8-1.1 1.8-1.6v-.4c-.7-1-1.3-1.4-1.7-1.4 0-.3.1-.7.3-1.2 0-.6-1-1.4-2.9-2.5v-.8h.3l1.7 1.1.8-.1c.5 0 .7-.3.7-.8v-.8c-.6 0-1.4-.5-2.4-1.4h-.3c-.5.1-.7.6-.7 1.6h-.8c-.1-.6 0-1.1.3-1.5l-1.2-1.4c0-.2.5-.8 1.5-2l-.1-1.5c-.1-.7-.8-1-2-1l1-1.9c-.1-.6-.8-1-2-1.4h-.7c-2.6 2.4-4.2 3.6-4.6 3.6l-2-.3-.1-1.9c.3 0 .8.1 1.3.3.2 0 2.3-1 6.1-2.9 0-.3-.1-.6-.4-1.1.2-.4.3-.9.3-1.5v-.8l-.4-.8h.3l-.5-2.3c.7-1.6 1.1-2.8 1-3.4 0-.5-.3-1.5-.9-3h.4l-3.7-1.8.3-1.9-.1-1.8c.9-.1 1.5-.2 1.9-.5-.6-1.1-.8-1.8-.8-2.2l.3-.8-.8-.3c-1.6.1-3.3 1.7-4.9 4.8l.4.8c-.8.1-1.4.6-1.9 1.6v.3l.5.8c-1 1-1.5 1.8-1.5 2.3l-.8.1.3-.8-.3-.7c-.7.6-3.2 1.2-7.3 1.8h-.4l-1.7-1.8c-.5.1-.7.4-.7 1.2-.3.1-1.6.1-3.9.2l-1.9.5-2-1.1-.4.1c.1.2.2.3.4.3.1.8-.7 1.8-2.2 3.1l-.5.1v-1.6l-.8.1-2.3 1.6-1.6-1.4c-.6 0-1.8.4-3.5 1.3 0-.2-.1-.3-.4-.3-.4 0-.7.3-.8.8-.4 0-1-.2-1.9-.7-2.2 1.6-4.8 2.4-7.8 2.6h-.4l-1.3-.7h-.3c-1.9 1.8-3 2.8-3.4 2.8-.6-2.9-1.2-4.6-1.8-5.2l-.1-1.5c1.1-.1 1.6-.3 1.6-.8-.1-.5-.4-.7-1.2-.7v-.4c0-.3 1.4-1.1 4.2-2.4l2.1-5.8c-2.2-1.7-3.4-2.5-3.7-2.5l2.2-3.1 1.6.3.1 1.8c.1.5.3.8.8.8l1.5-1.2c0-.3-.1-.7-.4-1.2.2-.9.6-2.1 1.3-3.4l-.4-.8c.8-.4 1.2-.8 1.2-1.2v-.8c-.8 0-1.6-.2-2.4-.7l-1.5.8c-.1-.5-.5-.7-1.3-.7l-.1-.8c2-.1 3.7-.9 5.1-2.5l-.3 1.9c.1.5.3.7.8.7h.8l-.1-.4-.4-1.8.8-.1c.9 0 1.6-1 2.3-3.1l-.5-.8c.6 0 .8-.6.8-1.9h.4c.2 1.3.6 1.9 1.2 1.8h.5l.7-.4c.7-1.8 1.4-2.7 2.3-2.8-.1-1.1-.7-2.2-1.8-3.3l-1.1.8-3.9.2-1.9.5-.9-1.1v-.4c0-.4.6-.8 1.9-1.2 2.2.1 4.1.1 5.5.1h.3c1.3-.8 1.9-1.6 1.9-2.3h.3v.3c.1.3 0 .7-.3 1.2.2.4.4 1 .4 1.5l2.9 2.9c-.8.1-1.4.6-1.9 1.6l.2 2.3c0 .5.3.8.8.8h.8c.5-.1.8-.3.8-.8.5.2 1 .3 1.6.3-.5.7-.7 1.3-.7 1.9-.3 0-.5-.1-.5-.4-1.6 1.5-2.4 2.7-2.5 3.6l.4 2.2c.6 0 1.6-.3 3.2-.8l.4.7 1.9-.4v.8l-.3.8.8.3v.4c-1.8.1-2.7 1-2.6 2.8v.8l.4.8-.8.3c0 .3.1.4.4.4l-.3 1.8v.8l.4.7-.8.4c0 .3.1.4.4.4 0 .5-.3.8-.8.8.1.5.3.8.8.8l.3-.1 1.2-.8.8-.1.8.3c.1.4-1.2 1.7-3.8 4 .1.2.2.3.4.3l-.3.8v.4c.6 1.7.9 2.7.9 2.9h.8c.7-.4 1.1-.8 1.1-1.2l2.3.3.8-.4c0 .2.1.3.3.3h.4c.7-.7 3.2-1.3 7.3-1.8l1.2.7 4.9-1.8-.1-.8c-1.9-1.1-2.9-2.5-2.9-4 .3 0 .8-.6 1.5-1.9l-.9-1.1v-.8c.8-.1 1.1-.4 1.1-1.2 1.2-.3 2.6-1.3 4.2-2.9.6.7 1.1 1.1 1.7 1v.4c-.7 1-2.1 2-4.2 2.9-.1 1.1-.8 2.2-2.2 3.5l.1 1.5c1.6-.1 2.3.1 2.3.6.1.5-.2.8-.7.8.4.7.8 1.1 1.2 1.1 0 .2-.1.6-.3 1.1 0 .4.4 1.1 1.3 1.8.3 0 .7-.5 1-1.5 0-.3-.1-.7-.4-1.2.3 0 .6-.5.7-1.5l-.4-.8c0-.4.6-1.6 1.8-3.4 3.3-1.3 4.9-2.2 4.9-2.5-1.6-1.3-2.4-2.2-2.4-2.6-.1-.7.3-1.1 1.2-1.2l-.1-1.1h-.8l-.8.4-.9-4.1.3-.8-.9-2.6c.6-.1.8-.3.8-.8v-.8l-.5-.8c.4 0 .8-.9 1.1-2.7-.1-.7-.4-1.1-.9-1.1h-.3l-1.4 1.6-.8.1c-.1-1-.6-1.5-1.7-1.5.5-.8.7-1.6.7-2.3v-.3l-.5-.8c.6-.1.8-.3.8-.8v-.8l-.5-2.6c1-.1 1.5-.3 1.4-.8v-.3c-.4 0-1.6-.5-3.5-1.4.1-.8.8-1.6 2.2-2.3 0-.9-.7-2-2.1-3.3-3.1.1-4.8-.8-5.3-2.9-.1-1.8.3-2.9 1.1-3-.1-.6-.3-1.1-.6-1.5l1.6-1.6-.1-.8-.4-.8-1.5 1.3h-.1v-.4l1.4-3.1-1.7-1.8c0-.4.3-.7.8-.8 0-.2-.2-.9-.5-2.3l-2.4-1.3-1.9.4-.5-1.8-.1-.4c.7-1 1.2-1.5 1.6-1.5-.1-.5-1.4-1.2-4.1-2.1h-1.1l-5.4 1c-.8-.6-1.6-1.1-2.4-1.4-.4.8-.8 1.2-1.2 1.3l-4.9.3c-2.6-1-4.5-1.5-5.9-1.4v-.3c0-.5.5-.8 1.6-.8l-.1-1.2c-1.2.1-2.3.5-3.5 1.3h-.3l.3-.8c-.3 0-.7-.1-1.3-.3-.7 0-1.1.4-1.1 1.2l-3.2.2c-.5 0-.8-.5-.8-1.5h-.4l-2.9 3.3zm5.1-3.6h.7v-.8h-.8l.1.8zm2.2-.5h.4c.5 0 .7-.3.7-.8h-1.1v.8z"/><path class="st2" d="M91 45h172.9v189H91z"/></svg>