<svg id="Layer_1" xmlns="http://www.w3.org/2000/svg" viewBox="0 0 300 250"><style>.st0{fill:#f9e038}</style><path class="st0" d="M34.8 36.4h-2L31 30.7c-.3-.8-.5-1.7-.8-2.8-.3 1.1-.6 2-.8 2.8l-1.9 5.6h-1.9l-4.3-12.8h3l1.7 5.2c.2.8.5 1.6.7 2.6.2-1 .4-1.8.7-2.6l1.7-5.2h2.7l1.7 5.1c.2.7.5 1.6.7 2.6.2-.9.4-1.8.7-2.6l1.7-5.2h2.7l-4.5 13zM46 36.3v-5.6c0-.7-.5-1.2-1.4-1.2-.9 0-1.4.6-1.4 1.3v5.5h-2.9V22.1h2.9v6c.5-.7 1.3-1.1 2.6-1.1 2 0 3.2 1.1 3.2 3v6.3h-3zM55.9 35.4c-1.4 3.6-2.8 5-4.5 5.6l-1.8-1.8c1.5-.6 2.6-1.6 3.3-3.5l-3.3-8.4h2.8l1.3 3.5c.2.5.4 1.1.5 1.8.2-.6.4-1.3.6-1.8l1.3-3.5H59l-3.1 8.1zM71.4 36.3v-1.1c-.5.9-1.5 1.4-2.8 1.4-2.2 0-4.4-1.7-4.4-4.8 0-2.9 2.1-4.8 4.6-4.8 1 0 1.9.3 2.3.6v-5.5H74v14.2h-2.6zm-.2-5.9c-.3-.4-.9-.8-1.8-.8-1.3 0-2.2 1-2.2 2.3s.9 2.3 2.2 2.3c.9 0 1.5-.5 1.8-.9v-2.9zM80.5 36.6c-2.7 0-4.9-1.9-4.9-4.8s2.2-4.8 4.9-4.8 4.9 1.9 4.9 4.8c0 2.8-2.2 4.8-4.9 4.8zm0-7.1c-1.1 0-2 1-2 2.3s.9 2.3 2 2.3 2-1 2-2.3-1-2.3-2-2.3zM95.2 31.3l-1.3 1.3h-4.4c.1.7 1.1 1.6 2.7 1.6.9 0 1.9-.3 2.5-.7l-.4 2.5c-.7.4-1.7.6-2.9.6-2.8 0-5-1.9-5-4.9 0-2.9 2.1-4.8 4.7-4.8 2.5 0 4.1 1.7 4.1 3.6v.8zm-4-2.2c-.9 0-1.6.7-1.8 1.5h3.1v-.2c0-.6-.5-1.3-1.3-1.3zM99.6 36.5c-1.2 0-2.1-.3-2.9-.6l-.3-2.6c.8.6 1.8 1 2.8 1 .5 0 .9-.3.9-.6 0-.4-.3-.5-.8-.7-1.7-.5-2.8-1.4-2.8-3 0-1.8 1.4-2.9 3.4-2.9 1.1 0 2.2.3 2.7.5l-.5 2.2c-.4-.2-1.2-.5-1.9-.5-.5 0-.8.2-.8.6 0 .3.2.5.8.7 2 .5 2.9 1.6 2.9 3.1 0 1.4-1.1 2.8-3.5 2.8zM115.1 26.1v10.2H112V26.1h-3.7v-2.5h10.4v2.5h-3.6zM120 36.3V23.5h3.1v12.8H120zM133.5 36.3l-1.1-2.9h-4.1l-1.1 2.9h-2.9l5-12.9h2.1l5 12.9h-2.9zm-2.7-7.7c-.1-.3-.3-.8-.4-1.2-.1.4-.2.9-.4 1.2l-.9 2.4h2.5l-.8-2.4zM146.5 36.3l-1.1-2.9h-4.1l-1.1 2.9h-2.9l5-12.9h2.1l5 12.9h-2.9zm-2.7-7.7c-.1-.3-.3-.8-.4-1.2-.1.4-.2.9-.4 1.2l-.9 2.4h2.5l-.8-2.4zM155.3 36.3V23.5h3.1v10.2h4.8v2.5h-7.9zM165.8 26c-.5 0-1.6-1.1-1.6-1.6s1.1-1.6 1.6-1.6 1.6 1 1.6 1.6c0 .5-1.1 1.6-1.6 1.6zm-1.5 10.3v-9.1h3v9.1h-3zM175.5 24.7c-.3-.1-.8-.2-1.2-.2-1.1 0-1.6.6-1.6 1.9v.9h2.6l-.6 2.4h-2v6.7h-2.8v-6.7h-1.4v-2.4h1.4v-1.1c0-2.8 1.8-4.1 4.1-4.1.8 0 1.7.1 2.1.3l-.6 2.3zM184.4 31.3l-1.3 1.3h-4.4c.1.7 1.1 1.6 2.7 1.6.9 0 1.9-.3 2.5-.7l-.3 2.5c-.7.4-1.7.6-2.9.6-2.8 0-5-1.9-5-4.9 0-2.9 2.1-4.8 4.7-4.8 2.5 0 4.1 1.7 4.1 3.6 0 .3 0 .6-.1.8zm-4-2.2c-.9 0-1.6.7-1.8 1.5h3.1v-.2c.1-.6-.5-1.3-1.3-1.3zM194.4 40.9c-2.6 0-4.4-1.5-4.4-3.4 0-1.4.9-2.2 1.9-2.4l-1.2-1.2c.1-.6.6-1.1 1.1-1.3-.7-.4-1.3-1.3-1.3-2.4 0-1.9 1.4-3.3 3.7-3.3.5 0 1 .1 1.3.2.4.1.8.2 1.3.2s1-.1 1.4-.3l.5 2.2c-.3.2-.7.3-1.1.3.1.2.2.6.2.9 0 1.5-1.2 2.8-3 2.9-.4 0-.6.1-.6.3 0 .1.1.2.2.3l1.4.5c1.8.6 2.7 1.5 2.7 3.2.3 1.9-1.4 3.3-4.1 3.3zm.7-4.2l-1.1-.3c-.7 0-1.2.5-1.2 1.2 0 .6.5 1.1 1.6 1.1 1 0 1.6-.5 1.6-1 0-.4-.4-.9-.9-1zm-.8-7.6c-.7 0-1.2.5-1.2 1.1 0 .6.5 1.1 1.2 1.1.6 0 1.2-.5 1.2-1.1-.1-.6-.6-1.1-1.2-1.1zM208.2 31.3l-1.3 1.3h-4.4c.1.7 1.1 1.6 2.7 1.6.9 0 1.9-.3 2.5-.7l-.3 2.5c-.7.4-1.7.6-2.9.6-2.8 0-5-1.9-5-4.9 0-2.9 2.1-4.8 4.7-4.8 2.5 0 4.1 1.7 4.1 3.6 0 .3 0 .6-.1.8zm-3.9-2.2c-.9 0-1.6.7-1.8 1.5h3.1v-.2c0-.6-.6-1.3-1.3-1.3zM215.9 29.6h-2.4V33c0 .8.4 1.1 1.2 1.1.3 0 .5 0 .8-.1l-.3 2.2c-.3.1-.8.2-1.4.2-2 0-3.3-1.1-3.3-2.9v-3.9H209v-2.4h1.5v-1.9l2.9-1.1v3h2.9l-.4 2.4z"/><g><path class="st0" d="M23.2 51.3c-.5 0-1.7-1-1.7-1.6 0-1.3 1.2-3.3 2.4-4.4l.9.2c-.7.8-1.2 1.9-1.3 2.8.5.1 1.3 1 1.3 1.4.1.5-1.1 1.6-1.6 1.6zm4.1 0c-.5 0-1.7-1-1.7-1.6 0-1.3 1.2-3.3 2.4-4.4l.9.2c-.7.8-1.2 1.9-1.3 2.8.5.1 1.3 1 1.3 1.4.1.5-1.1 1.6-1.6 1.6zM37 51.6h-2.4V55c0 .8.4 1.1 1.2 1.1.3 0 .5 0 .8-.1l-.3 2.2c-.3.1-.8.2-1.4.2-2 0-3.3-1.1-3.3-2.9v-3.9h-1.5v-2.4h1.5v-1.9l2.9-1.1v3h2.9l-.4 2.4zM43 58.6c-2.7 0-4.9-1.9-4.9-4.8S40.3 49 43 49s4.9 1.9 4.9 4.8c0 2.8-2.2 4.8-4.9 4.8zm0-7.1c-1.1 0-2 1-2 2.3s.9 2.3 2 2.3 2-1 2-2.3-.9-2.3-2-2.3zM54.6 58.6c-1 0-1.9-.3-2.3-.6v5h-2.9V49.2H52v1.1c.5-.9 1.5-1.4 2.8-1.4 2.2 0 4.4 1.7 4.4 4.8 0 3-2.1 4.9-4.6 4.9zm-.6-7.1c-.9 0-1.5.5-1.8.9v2.8c.3.4.9.8 1.8.8 1.3 0 2.2-1 2.2-2.3s-.9-2.2-2.2-2.2zM69.1 62.9c-2.6 0-4.4-1.5-4.4-3.4 0-1.4.9-2.2 1.9-2.4l-1.2-1.2c.1-.6.6-1.1 1.1-1.3-.7-.4-1.3-1.3-1.3-2.4 0-1.9 1.4-3.3 3.7-3.3.5 0 1 .1 1.3.2.4.1.8.2 1.3.2s1-.1 1.4-.3l.5 2.2c-.3.2-.7.3-1.1.3.1.2.2.6.2.9 0 1.5-1.2 2.8-3 2.9-.4 0-.6.1-.6.3 0 .1.1.2.2.3l1.4.5c1.8.6 2.7 1.5 2.7 3.2.3 1.9-1.4 3.3-4.1 3.3zm.7-4.2l-1.1-.3c-.7 0-1.2.5-1.2 1.2 0 .6.5 1.1 1.6 1.1 1 0 1.6-.5 1.6-1 0-.4-.4-.9-.9-1zm-.8-7.6c-.7 0-1.2.5-1.2 1.1 0 .6.5 1.1 1.2 1.1.6 0 1.2-.5 1.2-1.1-.1-.6-.6-1.1-1.2-1.1zM80.3 52.4c-.2-.1-.6-.2-.9-.2-.9 0-1.8.5-1.8 1.9v4.2h-2.9v-9.1h2.9v2c.3-1.4 1.4-2.2 2.6-2.2.3 0 .6 0 .8.1l-.7 3.3zM88.4 58.7c-.5-.1-1.2-.5-1.4-1.2-.4.7-1.3 1.1-2.4 1.1-1.6 0-3-1.1-3-3 0-1.7 1.3-2.8 3.1-3l1.8-.2v-.3c0-.5-.4-.9-1.4-.9-.9 0-1.9.3-2.5.7l-.5-2.2c.7-.5 2-.8 3.2-.8 2.4 0 4.1 1.1 4.1 3.3v3c0 1.1.4 1.6 1.1 1.9l-2.1 1.6zm-1.9-4.4l-1.1.1c-.8.1-1.1.6-1.1 1.1 0 .5.4.9.9.9.7 0 1.3-.5 1.3-1.3v-.8zM98.1 58.3v-1.1c-.5.9-1.5 1.4-2.8 1.4-2.2 0-4.4-1.7-4.4-4.8 0-2.9 2.1-4.8 4.6-4.8 1 0 1.9.3 2.3.6v-5.5h2.9v14.2h-2.6zm-.2-5.9c-.3-.4-.9-.8-1.8-.8-1.3 0-2.2 1-2.2 2.3s.9 2.3 2.2 2.3c.9 0 1.5-.5 1.8-.9v-2.9zM110.9 53.3l-1.3 1.3h-4.4c.1.7 1.1 1.6 2.7 1.6.9 0 1.9-.3 2.5-.7l-.3 2.5c-.7.4-1.7.6-2.9.6-2.8 0-5-1.9-5-4.9 0-2.9 2.1-4.8 4.7-4.8 2.5 0 4.1 1.7 4.1 3.6 0 .3 0 .6-.1.8zm-4-2.2c-.9 0-1.6.7-1.8 1.5h3.1v-.2c.1-.6-.5-1.3-1.3-1.3zM115.3 58.5c-1.2 0-2.1-.3-2.9-.6l-.3-2.6c.8.6 1.8 1 2.8 1 .5 0 .9-.3.9-.6 0-.4-.3-.5-.8-.7-1.7-.5-2.8-1.4-2.8-3 0-1.8 1.4-2.9 3.4-2.9 1.1 0 2.2.3 2.7.5l-.5 2.2c-.4-.2-1.2-.5-1.9-.5-.5 0-.8.2-.8.6 0 .3.2.5.8.7 2 .5 2.9 1.6 2.9 3.1.1 1.4-1 2.8-3.5 2.8zM120.7 51.2l-.9-.2c.7-.8 1.2-1.9 1.3-2.8-.5-.1-1.3-1-1.3-1.4 0-.6 1.1-1.6 1.7-1.6.5 0 1.7 1 1.7 1.6-.1 1.3-1.3 3.4-2.5 4.4zm4.1 0l-.9-.2c.7-.8 1.2-1.9 1.3-2.8-.5-.1-1.3-1-1.3-1.4 0-.6 1.1-1.6 1.7-1.6.5 0 1.7 1 1.7 1.6-.1 1.3-1.3 3.4-2.5 4.4zM133.6 52c-.5.6-.7 1-.7 1.6 0 .3 0 .6.1.9l-2.5-.5c-.1-.4-.1-.7-.1-1 0-1.1.4-2 1.2-2.8.5-.5.8-.9.8-1.5 0-.4-.4-.9-1.1-.9-.7 0-1.4.3-2 .7l-.6-2.5c.7-.5 1.7-.8 2.9-.8 2.4 0 3.9 1.4 3.9 3.4-.2 1.2-.7 2.1-1.9 3.4zm-1.8 6.6c-.5 0-1.7-1.1-1.7-1.7 0-.5 1.1-1.6 1.7-1.6s1.7 1.1 1.7 1.6c-.1.6-1.2 1.7-1.7 1.7z"/></g></svg>