<svg xmlns="http://www.w3.org/2000/svg" viewBox="0 0 300 250"><path d="M30.1 36.3v-5.1h-4.9v5.1H22V23.5h3.1v5H30v-5h3.1v12.8h-3zM43.6 31.3l-1.3 1.3h-4.4c.1.7 1.1 1.6 2.7 1.6.9 0 1.9-.3 2.5-.7l-.4 2.5c-.7.4-1.7.6-2.9.6-2.8 0-5-1.9-5-4.9 0-2.9 2.1-4.8 4.7-4.8 2.5 0 4.1 1.7 4.1 3.6.1.3 0 .6 0 .8zm-4-2.2c-.9 0-1.6.7-1.8 1.5h3.1v-.2c0-.6-.5-1.3-1.3-1.3zM48.2 36.7c-1.9-.1-3.1-1-3.1-3.2V22.1H48v11c0 .7.4 1.1 1.2 1.2l-1 2.4zM55.6 36.6c-1 0-1.9-.3-2.3-.6v5h-2.9V27.2H53v1.1c.5-.9 1.5-1.4 2.8-1.4 2.2 0 4.4 1.7 4.4 4.8 0 3-2.1 4.9-4.6 4.9zm-.5-7.1c-.9 0-1.5.5-1.8.9v2.8c.3.4.9.8 1.8.8 1.3 0 2.2-1 2.2-2.3s-1-2.2-2.2-2.2zM71.3 36.6c-1 0-1.9-.3-2.3-.6v5h-2.9V27.2h2.6v1.1c.5-.9 1.5-1.4 2.8-1.4 2.2 0 4.4 1.7 4.4 4.8 0 3-2.1 4.9-4.6 4.9zm-.5-7.1c-.9 0-1.5.5-1.8.9v2.8c.3.4.9.8 1.8.8 1.3 0 2.2-1 2.2-2.3s-1-2.2-2.2-2.2zM83.3 36.3v-1.2c-.4 1-1.3 1.5-2.8 1.5-2 0-3.2-1.1-3.2-3v-6.3h2.9v5.6c0 .7.5 1.2 1.4 1.2.9 0 1.4-.6 1.4-1.3v-5.5h3v9.1h-2.7zM94 29.6h-2.4V33c0 .8.4 1.1 1.2 1.1.3 0 .5 0 .8-.1l-.3 2.2c-.3.1-.8.2-1.4.2-2 0-3.3-1.1-3.3-2.9v-3.9h-1.5v-2.4h1.5v-1.9l2.9-1.1v3h2.9l-.4 2.4zM105.6 35.4c-1.4 3.6-2.8 5-4.5 5.6l-1.8-1.8c1.5-.6 2.6-1.6 3.3-3.5l-3.3-8.4h2.8l1.3 3.5c.2.5.4 1.1.5 1.8.2-.6.4-1.3.6-1.8l1.3-3.5h2.7l-2.9 8.1zM113.9 36.6c-2.7 0-4.9-1.9-4.9-4.8s2.2-4.8 4.9-4.8 4.9 1.9 4.9 4.8c.1 2.8-2.1 4.8-4.9 4.8zm0-7.1c-1.1 0-2 1-2 2.3s.9 2.3 2 2.3 2-1 2-2.3-.9-2.3-2-2.3zM126.3 36.3v-1.2c-.4 1-1.3 1.5-2.8 1.5-2 0-3.2-1.1-3.2-3v-6.3h2.9v5.6c0 .7.5 1.2 1.4 1.2.9 0 1.4-.6 1.4-1.3v-5.5h2.9v9.1h-2.6zM136.5 30.4c-.2-.1-.6-.2-.9-.2-.9 0-1.8.5-1.8 1.9v4.2h-2.9v-9.1h2.9v2c.3-1.4 1.4-2.2 2.6-2.2.3 0 .6 0 .8.1l-.7 3.3zM153.9 36.3v-5.6c0-.7-.3-1.2-1.3-1.2-.9 0-1.4.6-1.4 1.3v5.5h-2.9v-5.6c0-.7-.3-1.2-1.3-1.2-.9 0-1.4.6-1.4 1.3v5.5h-2.9v-9.1h2.7v1.2c.4-1 1.3-1.5 2.7-1.5 1.3 0 2.3.5 2.7 1.5.4-.9 1.4-1.5 2.8-1.5 2.1 0 3.2 1.1 3.2 3v6.3h-2.9zM160.2 26c-.5 0-1.6-1.1-1.6-1.6s1.1-1.6 1.6-1.6 1.6 1 1.6 1.6c0 .5-1 1.6-1.6 1.6zm-1.4 10.3v-9.1h3v9.1h-3zM169.4 36.3v-5.6c0-.7-.4-1.2-1.3-1.2s-1.4.6-1.4 1.3v5.5h-2.9v-9.1h2.7v1.2c.4-1 1.3-1.5 2.8-1.5 2 0 3.2 1.1 3.2 3v6.3h-3.1zM180.9 36.3v-1.1c-.5.9-1.5 1.4-2.8 1.4-2.2 0-4.4-1.7-4.4-4.8 0-2.9 2.1-4.8 4.6-4.8 1 0 1.9.3 2.3.6v-5.5h2.9v14.2h-2.6zm-.2-5.9c-.3-.4-.9-.8-1.8-.8-1.3 0-2.2 1-2.2 2.3s.9 2.3 2.2 2.3c.9 0 1.5-.5 1.8-.9v-2.9zM196.3 36.7c-.5-.1-1.2-.5-1.4-1.2-.4.7-1.3 1.1-2.4 1.1-1.6 0-3-1.1-3-3 0-1.7 1.3-2.8 3.1-3l1.8-.2v-.3c0-.5-.4-.9-1.4-.9-.9 0-1.9.3-2.5.7l-.5-2.2c.7-.5 2-.8 3.2-.8 2.4 0 4.1 1.1 4.1 3.3v3c0 1.1.4 1.6 1.1 1.9l-2.1 1.6zm-1.9-4.4l-1.1.1c-.8.1-1.1.6-1.1 1.1 0 .5.4.9.9.9.7 0 1.3-.5 1.3-1.3v-.8zM205.1 36.3v-5.6c0-.7-.4-1.2-1.3-1.2s-1.4.6-1.4 1.3v5.5h-2.9v-9.1h2.7v1.2c.4-1 1.3-1.5 2.8-1.5 2 0 3.2 1.1 3.2 3v6.3h-3.1zM216.7 36.3v-1.1c-.5.9-1.5 1.4-2.8 1.4-2.2 0-4.4-1.7-4.4-4.8 0-2.9 2.1-4.8 4.6-4.8 1 0 1.9.3 2.3.6v-5.5h2.9v14.2h-2.6zm-.3-5.9c-.3-.4-.9-.8-1.8-.8-1.3 0-2.2 1-2.2 2.3s.9 2.3 2.2 2.3c.9 0 1.5-.5 1.8-.9v-2.9z"/><g><path d="M28.2 46.7c-.3-.1-.8-.2-1.2-.2-1.1 0-1.6.6-1.6 1.9v.9H28l-.6 2.4h-2v6.7h-2.8v-6.7h-1.4v-2.4h1.4v-1.1c0-2.8 1.8-4.1 4.1-4.1.8 0 1.7.1 2.1.3l-.6 2.3zM35.4 58.7c-.5-.1-1.2-.5-1.4-1.2-.4.7-1.3 1.1-2.4 1.1-1.6 0-3-1.1-3-3 0-1.7 1.3-2.8 3.1-3l1.8-.2v-.3c0-.5-.4-.9-1.4-.9-.9 0-1.9.3-2.5.7l-.6-2.2c.7-.5 2-.8 3.2-.8 2.4 0 4.1 1.1 4.1 3.3v3c0 1.1.4 1.6 1.1 1.9l-2 1.6zm-1.9-4.4l-1.1.1c-.8.1-1.1.6-1.1 1.1 0 .5.4.9.9.9.7 0 1.3-.5 1.3-1.3v-.8zM49.6 58.3v-5.6c0-.7-.3-1.2-1.3-1.2-.9 0-1.4.6-1.4 1.3v5.5H44v-5.6c0-.7-.3-1.2-1.3-1.2-.9 0-1.4.6-1.4 1.3v5.5h-2.9v-9.1h2.7v1.2c.4-1 1.3-1.5 2.7-1.5 1.3 0 2.3.5 2.7 1.5.4-.9 1.4-1.5 2.8-1.5 2.1 0 3.2 1.1 3.2 3v6.3h-2.9zM55.9 48c-.5 0-1.6-1.1-1.6-1.6s1.1-1.6 1.6-1.6 1.6 1 1.6 1.6c0 .5-1 1.6-1.6 1.6zm-1.4 10.3v-9.1h3v9.1h-3zM62.5 58.7c-1.9-.1-3.1-1-3.1-3.2V44.1h2.9v11c0 .7.4 1.1 1.2 1.2l-1 2.4zM69.9 57.4c-1.4 3.6-2.8 5-4.5 5.6l-1.8-1.8c1.5-.6 2.6-1.6 3.3-3.5l-3.3-8.4h2.8l1.3 3.5c.2.5.4 1.1.5 1.8.2-.6.4-1.3.6-1.8l1.3-3.5h2.7l-2.9 8.1zM74.7 51.2l-.9-.2c.7-.8 1.2-1.9 1.3-2.8-.5-.1-1.3-1-1.3-1.4 0-.6 1.1-1.6 1.7-1.6.5 0 1.7 1 1.7 1.6-.1 1.3-1.3 3.4-2.5 4.4zM80.8 58.5c-1.2 0-2.1-.3-2.9-.6l-.3-2.6c.8.6 1.8 1 2.8 1 .5 0 .9-.3.9-.6 0-.4-.3-.5-.8-.7-1.7-.5-2.8-1.4-2.8-3 0-1.8 1.4-2.9 3.4-2.9 1.1 0 2.2.3 2.7.5l-.5 2.2c-.4-.2-1.2-.5-1.9-.5-.5 0-.8.2-.8.6 0 .3.2.5.8.7 2 .5 2.9 1.6 2.9 3.1 0 1.4-1.1 2.8-3.5 2.8zM96.6 46.7c-.3-.1-.8-.2-1.2-.2-1.1 0-1.6.6-1.6 1.9v.9h2.6l-.6 2.4h-2v6.7H91v-6.7h-1.4v-2.4H91v-1.1c0-2.8 1.8-4.1 4.1-4.1.8 0 1.7.1 2.1.3l-.6 2.3zM103.4 58.3v-1.2c-.4 1-1.3 1.5-2.8 1.5-2 0-3.2-1.1-3.2-3v-6.3h2.9v5.6c0 .7.5 1.2 1.4 1.2.9 0 1.4-.6 1.4-1.3v-5.5h2.9v9.1h-2.6zM114 51.6h-2.4V55c0 .8.4 1.1 1.2 1.1.3 0 .5 0 .8-.1l-.3 2.2c-.3.1-.8.2-1.4.2-2 0-3.3-1.1-3.3-2.9v-3.9h-1.5v-2.4h1.5v-1.9l2.9-1.1v3h2.9l-.4 2.4zM121.5 58.3v-1.2c-.4 1-1.3 1.5-2.8 1.5-2 0-3.2-1.1-3.2-3v-6.3h2.9v5.6c0 .7.5 1.2 1.4 1.2.9 0 1.4-.6 1.4-1.3v-5.5h2.9v9.1h-2.6zM131.7 52.4c-.2-.1-.6-.2-.9-.2-.9 0-1.8.5-1.8 1.9v4.2h-2.9v-9.1h2.9v2c.3-1.4 1.4-2.2 2.6-2.2.3 0 .6 0 .8.1l-.7 3.3zM141.6 53.3l-1.3 1.3h-4.4c.1.7 1.1 1.6 2.7 1.6.9 0 1.9-.3 2.5-.7l-.3 2.5c-.7.4-1.7.6-2.9.6-2.8 0-5-1.9-5-4.9 0-2.9 2.1-4.8 4.7-4.8 2.5 0 4.1 1.7 4.1 3.6 0 .3-.1.6-.1.8zm-4-2.2c-.9 0-1.6.7-1.8 1.5h3.1v-.2c0-.6-.5-1.3-1.3-1.3zM154 58.7c-.5-.1-1.2-.5-1.4-1.2-.4.7-1.3 1.1-2.4 1.1-1.6 0-3-1.1-3-3 0-1.7 1.3-2.8 3.1-3l1.8-.2v-.3c0-.5-.4-.9-1.4-.9-.9 0-1.9.3-2.5.7l-.5-2.2c.7-.5 2-.8 3.2-.8 2.4 0 4.1 1.1 4.1 3.3v3c0 1.1.4 1.6 1.1 1.9l-2.1 1.6zm-1.9-4.4l-1.1.1c-.8.1-1.1.6-1.1 1.1 0 .5.4.9.9.9.7 0 1.3-.5 1.3-1.3v-.8zM162.9 51.6h-2.4V55c0 .8.4 1.1 1.2 1.1.3 0 .5 0 .8-.1l-.3 2.2c-.3.1-.8.2-1.4.2-2 0-3.3-1.1-3.3-2.9v-3.9H156v-2.4h1.5v-1.9l2.9-1.1v3h2.9l-.4 2.4zM177.3 53.3l-1.3 1.3h-4.4c.1.7 1.1 1.6 2.7 1.6.9 0 1.9-.3 2.5-.7l-.3 2.5c-.7.4-1.7.6-2.9.6-2.8 0-5-1.9-5-4.9 0-2.9 2.1-4.8 4.7-4.8 2.5 0 4.1 1.7 4.1 3.6 0 .3-.1.6-.1.8zm-4-2.2c-.9 0-1.6.7-1.8 1.5h3.1v-.2c0-.6-.5-1.3-1.3-1.3zM185.1 58.7c-.5-.1-1.2-.5-1.4-1.2-.4.7-1.3 1.1-2.4 1.1-1.6 0-3-1.1-3-3 0-1.7 1.3-2.8 3.1-3l1.8-.2v-.3c0-.5-.4-.9-1.4-.9-.9 0-1.9.3-2.5.7l-.5-2.2c.7-.5 2-.8 3.2-.8 2.4 0 4.1 1.1 4.1 3.3v3c0 1.1.4 1.6 1.1 1.9l-2.1 1.6zm-1.9-4.4l-1.1.1c-.8.1-1.1.6-1.1 1.1 0 .5.4.9.9.9.7 0 1.3-.5 1.3-1.3v-.8zM191.1 58.5c-1.2 0-2.1-.3-2.9-.6l-.3-2.6c.8.6 1.8 1 2.8 1 .5 0 .9-.3.9-.6 0-.4-.3-.5-.8-.7-1.7-.5-2.8-1.4-2.8-3 0-1.8 1.4-2.9 3.4-2.9 1.1 0 2.2.3 2.7.5l-.5 2.2c-.4-.2-1.2-.5-1.9-.5-.5 0-.8.2-.8.6 0 .3.2.5.8.7 2 .5 2.9 1.6 2.9 3.1.1 1.4-1 2.8-3.5 2.8zM204.3 53.3l-1.3 1.3h-4.4c.1.7 1.1 1.6 2.7 1.6.9 0 1.9-.3 2.5-.7l-.3 2.5c-.7.4-1.7.6-2.9.6-2.8 0-5-1.9-5-4.9 0-2.9 2.1-4.8 4.7-4.8 2.5 0 4.1 1.7 4.1 3.6 0 .3 0 .6-.1.8zm-3.9-2.2c-.9 0-1.6.7-1.8 1.5h3.1v-.2c0-.6-.6-1.3-1.3-1.3zM220.3 58.4h-2l-1.2-3.6c-.2-.6-.4-1.2-.5-1.9-.1.7-.3 1.3-.5 1.9l-1.2 3.6H213l-3.2-9.1h2.7l1.1 3.4c.2.5.3 1.2.4 1.7.1-.6.3-1.2.4-1.7l1.1-3.4h2.2l1.1 3.4c.2.6.3 1.2.4 1.8.1-.6.3-1.2.5-1.8l1.1-3.4h2.5l-3 9.1zM226.1 48c-.5 0-1.6-1.1-1.6-1.6s1.1-1.6 1.6-1.6 1.6 1 1.6 1.6c-.1.5-1.1 1.6-1.6 1.6zm-1.5 10.3v-9.1h3v9.1h-3zM235.5 51.6h-2.4V55c0 .8.4 1.1 1.2 1.1.3 0 .5 0 .8-.1l-.3 2.2c-.3.1-.8.2-1.4.2-2 0-3.3-1.1-3.3-2.9v-3.9h-1.5v-2.4h1.5v-1.9l2.9-1.1v3h2.9l-.4 2.4zM242.8 58.3v-5.6c0-.7-.5-1.2-1.4-1.2-.9 0-1.4.6-1.4 1.3v5.5h-2.9V44.1h2.9v6c.5-.7 1.3-1.1 2.6-1.1 2 0 3.2 1.1 3.2 3v6.3h-3z"/></g><g><path d="M27.9 70.1v10.2h-3.1V70.1h-3.7v-2.5h10.4v2.5h-3.6zM32.8 80.3V67.5h3.1v12.8h-3.1zM46.3 80.3l-1.1-2.9h-4.1L40 80.3h-2.9l5-12.9h2.1l5 12.9h-2.9zm-2.7-7.7c-.1-.3-.3-.8-.4-1.2-.1.4-.2.9-.4 1.2L42 75h2.5l-.9-2.4zM59.3 80.3l-1.1-2.9h-4.1L53 80.3h-2.9l5-12.9h2.1l5 12.9h-2.9zm-2.7-7.7c-.1-.3-.3-.8-.4-1.2-.1.4-.2.9-.4 1.2l-.9 2.4h2.5l-.8-2.4zM68.1 80.3V67.5h3.1v10.2H76v2.5h-7.9zM78.6 70c-.5 0-1.6-1.1-1.6-1.6s1.1-1.6 1.6-1.6 1.6 1 1.6 1.6c0 .5-1.1 1.6-1.6 1.6zm-1.5 10.3v-9.1h3v9.1h-3zM88.3 68.7c-.3-.1-.8-.2-1.2-.2-1.1 0-1.6.6-1.6 1.9v.9h2.6l-.6 2.4h-2v6.7h-2.8v-6.7h-1.4v-2.4h1.4v-1.1c0-2.8 1.8-4.1 4.1-4.1.8 0 1.7.1 2.1.3l-.6 2.3zM97.2 75.3l-1.3 1.3h-4.4c.1.7 1.1 1.6 2.7 1.6.9 0 1.9-.3 2.5-.7l-.3 2.5c-.7.4-1.7.6-2.9.6-2.8 0-5-1.9-5-4.9 0-2.9 2.1-4.8 4.7-4.8 2.5 0 4.1 1.7 4.1 3.6 0 .3 0 .6-.1.8zm-3.9-2.2c-.9 0-1.6.7-1.8 1.5h3.1v-.2c0-.6-.6-1.3-1.3-1.3zM104.8 70c-.5 0-1.6-1.1-1.6-1.6s1.1-1.6 1.6-1.6 1.6 1 1.6 1.6c0 .5-1.1 1.6-1.6 1.6zm-1.5 10.3v-9.1h3v9.1h-3zM113.9 80.3v-5.6c0-.7-.4-1.2-1.3-1.2s-1.4.6-1.4 1.3v5.5h-2.9v-9.1h2.7v1.2c.4-1 1.3-1.5 2.8-1.5 2 0 3.2 1.1 3.2 3v6.3h-3.1zM121.6 80.5c-1.2 0-2.1-.3-2.9-.6l-.3-2.6c.8.6 1.8 1 2.8 1 .5 0 .9-.3.9-.6 0-.4-.3-.5-.8-.7-1.7-.5-2.8-1.4-2.8-3 0-1.8 1.4-2.9 3.4-2.9 1.1 0 2.2.3 2.7.5l-.5 2.2c-.4-.2-1.2-.5-1.9-.5-.5 0-.8.2-.8.6 0 .3.2.5.8.7 2 .5 2.9 1.6 2.9 3.1.1 1.4-1 2.8-3.5 2.8zM132.6 80.3v-1.2c-.4 1-1.3 1.5-2.8 1.5-2 0-3.2-1.1-3.2-3v-6.3h2.9v5.6c0 .7.5 1.2 1.4 1.2.9 0 1.4-.6 1.4-1.3v-5.5h2.9v9.1h-2.6zM142.8 74.4c-.2-.1-.6-.2-.9-.2-.9 0-1.8.5-1.8 1.9v4.2h-2.9v-9.1h2.9v2c.3-1.4 1.4-2.2 2.6-2.2.3 0 .6 0 .8.1l-.7 3.3zM150.9 80.7c-.5-.1-1.2-.5-1.4-1.2-.4.7-1.3 1.1-2.4 1.1-1.6 0-3-1.1-3-3 0-1.7 1.3-2.8 3.1-3l1.8-.2v-.3c0-.5-.4-.9-1.4-.9-.9 0-1.9.3-2.5.7l-.5-2.2c.7-.5 2-.8 3.2-.8 2.4 0 4.1 1.1 4.1 3.3v3c0 1.1.4 1.6 1.1 1.9l-2.1 1.6zm-1.9-4.4l-1.1.1c-.8.1-1.1.6-1.1 1.1 0 .5.4.9.9.9.7 0 1.3-.5 1.3-1.3v-.8zM159.6 80.3v-5.6c0-.7-.4-1.2-1.3-1.2s-1.4.6-1.4 1.3v5.5H154v-9.1h2.7v1.2c.4-1 1.3-1.5 2.8-1.5 2 0 3.2 1.1 3.2 3v6.3h-3.1zM171.3 74.2c-.6-.4-1.2-.6-1.9-.6-1.3 0-2.3.9-2.3 2.2 0 1.3 1 2.2 2.4 2.2.8 0 1.3-.2 2-.5l-.3 2.5c-.6.3-1.4.4-2.2.4-2.5 0-4.9-1.8-4.9-4.7 0-3 2.4-4.7 4.8-4.7 1.2 0 2.2.2 3 .7l-.6 2.5zM181.4 75.3l-1.3 1.3h-4.4c.1.7 1.1 1.6 2.7 1.6.9 0 1.9-.3 2.5-.7l-.3 2.5c-.7.4-1.7.6-2.9.6-2.8 0-5-1.9-5-4.9 0-2.9 2.1-4.8 4.7-4.8 2.5 0 4.1 1.7 4.1 3.6 0 .3 0 .6-.1.8zm-4-2.2c-.9 0-1.6.7-1.8 1.5h3.1v-.2c.1-.6-.5-1.3-1.3-1.3zM184.1 80.6c-.5 0-1.7-1.1-1.7-1.7 0-.5 1.1-1.6 1.7-1.6s1.7 1.1 1.7 1.6c0 .6-1.1 1.7-1.7 1.7z"/></g></svg>