<svg id="Layer_1" xmlns="http://www.w3.org/2000/svg" viewBox="0 0 300 250"><style>.st0{fill:#f9e13a}</style><path class="st0" d="M32.3 36.3l-1.1-2.9h-4.1L26 36.3h-2.9l5-12.9h2.1l5 12.9h-2.9zm-2.7-7.7c-.1-.3-.3-.8-.4-1.2-.1.4-.2.9-.4 1.2L28 31h2.5l-.9-2.4zM42.2 36.3v-5.6c0-.7-.4-1.2-1.3-1.2s-1.4.6-1.4 1.3v5.5h-2.9v-9.1h2.7v1.2c.4-1 1.3-1.5 2.8-1.5 2 0 3.2 1.1 3.2 3v6.3h-3.1zM53.8 36.3v-1.1c-.5.9-1.5 1.4-2.8 1.4-2.2 0-4.4-1.7-4.4-4.8 0-2.9 2.1-4.8 4.6-4.8 1 0 1.9.3 2.3.6v-5.5h2.9v14.2h-2.6zm-.3-5.9c-.3-.4-.9-.8-1.8-.8-1.3 0-2.2 1-2.2 2.3s.9 2.3 2.2 2.3c.9 0 1.5-.5 1.8-.9v-2.9zM68.7 26.1v10.2h-3.1V26.1H62v-2.5h10.4v2.5h-3.7zM73.7 36.3V23.5h3.1v12.8h-3.1zM87.2 36.3l-1.1-2.9H82l-1 2.9h-2.9l5-12.9h2.1l5 12.9h-3zm-2.7-7.7c-.1-.3-.3-.8-.4-1.2-.1.4-.2.9-.4 1.2l-.9 2.4h2.5l-.8-2.4zM100.1 36.3L99 33.4h-4l-1.1 2.9H91l5-12.9h2.1l5 12.9h-3zm-2.7-7.7c-.1-.3-.3-.8-.4-1.2-.1.4-.2.9-.4 1.2l-.8 2.4h2.5l-.9-2.4zM109 36.3V23.5h3.1v10.2h4.8v2.5H109zM119.4 26c-.5 0-1.6-1.1-1.6-1.6s1.1-1.6 1.6-1.6 1.6 1 1.6 1.6c0 .5-1 1.6-1.6 1.6zM118 36.3v-9.1h3v9.1h-3zM129.2 24.7c-.3-.1-.8-.2-1.2-.2-1.1 0-1.6.6-1.6 1.9v.9h2.6l-.6 2.4h-2v6.7h-2.8v-6.7h-1.4v-2.4h1.4v-1.1c0-2.8 1.8-4.1 4.1-4.1.8 0 1.7.1 2.1.3l-.6 2.3zM138.1 31.3l-1.3 1.3h-4.4c.1.7 1.1 1.6 2.7 1.6.9 0 1.9-.3 2.5-.7l-.3 2.5c-.7.4-1.7.6-2.9.6-2.8 0-5-1.9-5-4.9 0-2.9 2.1-4.8 4.7-4.8 2.5 0 4.1 1.7 4.1 3.6 0 .3-.1.6-.1.8zm-4-2.2c-.9 0-1.6.7-1.8 1.5h3.1v-.2c0-.6-.5-1.3-1.3-1.3zM154.1 36.4h-2l-1.2-3.6c-.2-.6-.4-1.2-.5-1.9-.1.7-.3 1.3-.5 1.9l-1.2 3.6h-1.9l-3.2-9.1h2.7l1.1 3.4c.2.5.3 1.2.4 1.7.1-.6.3-1.2.4-1.7l1.1-3.4h2.2l1.1 3.4c.2.6.3 1.2.4 1.8.1-.6.3-1.2.5-1.8l1.1-3.4h2.5l-3 9.1zM164.6 36.7c-.5-.1-1.2-.5-1.4-1.2-.4.7-1.3 1.1-2.4 1.1-1.6 0-3-1.1-3-3 0-1.7 1.3-2.8 3.1-3l1.8-.2v-.3c0-.5-.4-.9-1.4-.9-.9 0-1.9.3-2.5.7l-.5-2.2c.7-.5 2-.8 3.2-.8 2.4 0 4.1 1.1 4.1 3.3v3c0 1.1.4 1.6 1.1 1.9l-2.1 1.6zm-1.8-4.4l-1.1.1c-.8.1-1.1.6-1.1 1.1 0 .5.4.9.9.9.7 0 1.3-.5 1.3-1.3v-.8zM170.6 36.5c-1.2 0-2.1-.3-2.9-.6l-.3-2.6c.8.6 1.8 1 2.8 1 .5 0 .9-.3.9-.6 0-.4-.3-.5-.8-.7-1.7-.5-2.8-1.4-2.8-3 0-1.8 1.4-2.9 3.4-2.9 1.1 0 2.2.3 2.7.5l-.5 2.2c-.4-.2-1.2-.5-1.9-.5-.5 0-.8.2-.8.6 0 .3.2.5.8.7 2 .5 2.9 1.6 2.9 3.1.1 1.4-1 2.8-3.5 2.8z"/><g><path class="st0" d="M29.5 52.4c-.2-.1-.6-.2-.9-.2-.9 0-1.8.5-1.8 1.9v4.2h-2.9v-9.1h2.9v2c.3-1.4 1.4-2.2 2.6-2.2.3 0 .6 0 .8.1l-.7 3.3zM37.6 58.7c-.5-.1-1.2-.5-1.4-1.2-.4.7-1.3 1.1-2.4 1.1-1.6 0-3-1.1-3-3 0-1.7 1.3-2.8 3.1-3l1.8-.2v-.3c0-.5-.4-.9-1.4-.9-.9 0-1.9.3-2.5.7l-.5-2.2c.7-.5 2-.8 3.2-.8 2.4 0 4.1 1.1 4.1 3.3v3c0 1.1.4 1.6 1.1 1.9l-2.1 1.6zm-1.9-4.4l-1.1.1c-.8.1-1.1.6-1.1 1.1 0 .5.4.9.9.9.7 0 1.3-.5 1.3-1.3v-.8zM46.5 51.6h-2.4V55c0 .8.4 1.1 1.2 1.1.3 0 .5 0 .8-.1l-.3 2.2c-.3.1-.8.2-1.4.2-2 0-3.3-1.1-3.3-2.9v-3.9h-1.5v-2.4h1.5v-1.9l2.9-1.1v3h2.9l-.4 2.4zM56.2 53.3l-1.3 1.3h-4.4c.1.7 1.1 1.6 2.7 1.6.9 0 1.9-.3 2.5-.7l-.3 2.5c-.7.4-1.7.6-2.9.6-2.8 0-5-1.9-5-4.9 0-2.9 2.1-4.8 4.7-4.8 2.5 0 4.1 1.7 4.1 3.6 0 .3-.1.6-.1.8zm-4-2.2c-.9 0-1.6.7-1.8 1.5h3.1v-.2c0-.6-.5-1.3-1.3-1.3zM64.5 58.3v-1.1c-.5.9-1.5 1.4-2.8 1.4-2.2 0-4.4-1.7-4.4-4.8 0-2.9 2.1-4.8 4.6-4.8 1 0 1.9.3 2.3.6v-5.5h2.9v14.2h-2.6zm-.3-5.9c-.3-.4-.9-.8-1.8-.8-1.3 0-2.2 1-2.2 2.3s.9 2.3 2.2 2.3c.9 0 1.5-.5 1.8-.9v-2.9zM81.8 58.3l-1.1-2.9h-4.1l-1.1 2.9h-2.9l5-12.9h2.1l5 12.9h-2.9zm-2.7-7.7c-.1-.3-.3-.8-.4-1.2-.1.4-.2.9-.4 1.2l-.8 2.4H80l-.9-2.4zM90.3 53.9v2.6h-2.4v-2.6h-2.6v-2.2h2.6v-2.6h2.4v2.6H93v2.2h-2.7zM99.3 53.9v2.6h-2.4v-2.6h-2.6v-2.2h2.6v-2.6h2.4v2.6h2.6v2.2h-2.6zM112.4 58.6c-1.9 0-3.5-.7-4.4-1.3V44.1h2.8v5.5c.4-.3 1.3-.6 2.3-.6 2.5 0 4.6 1.8 4.6 4.6.1 2.8-1.7 5-5.3 5zm.3-7.1c-.8 0-1.5.4-1.8.7v3.5c.3.2.9.4 1.5.4 1.5 0 2.4-1 2.4-2.3 0-1.3-.8-2.3-2.1-2.3zM124.3 57.4c-1.4 3.6-2.8 5-4.5 5.6l-1.8-1.8c1.5-.6 2.6-1.6 3.3-3.5l-3.3-8.4h2.8l1.3 3.5c.2.5.4 1.1.5 1.8.2-.6.4-1.3.6-1.8l1.3-3.5h2.7l-2.9 8.1zM141.4 58.3l-1.1-2.9h-4.1l-1.1 2.9h-2.9l5-12.9h2.1l5 12.9h-2.9zm-2.7-7.7c-.1-.3-.3-.8-.4-1.2-.1.4-.2.9-.4 1.2L137 53h2.5l-.8-2.4zM147.5 58.6c-.5 0-1.7-1.1-1.7-1.7 0-.5 1.1-1.6 1.7-1.6.5 0 1.7 1.1 1.7 1.6-.1.6-1.2 1.7-1.7 1.7zM163.1 58.3l-.4-4.7c-.1-.7-.1-1.5-.1-2.4-.3.8-.7 1.7-1.1 2.4l-2.4 4.7h-1.2l-2.4-4.7c-.4-.7-.8-1.6-1.1-2.4 0 .8 0 1.7-.1 2.3l-.4 4.7H151l1.1-12.8h2.6l2.8 5.4c.4.8.9 1.9 1.3 2.7.3-.8.8-1.9 1.2-2.7l2.8-5.4h2.4l1.1 12.8h-3.2zM169.5 58.6c-.5 0-1.7-1.1-1.7-1.7 0-.5 1.1-1.6 1.7-1.6s1.7 1.1 1.7 1.6c0 .6-1.1 1.7-1.7 1.7zM182 58.3h-4.7V45.5h4.2c2 0 3.7 1.3 3.7 3.4 0 .8-.4 1.7-1.1 2.1 1.1.4 2.2 1.7 2.2 3.3.1 2.5-1.9 4-4.3 4zm-1-10.5h-.9v2.6h.9c.7 0 1.4-.4 1.4-1.3s-.7-1.3-1.4-1.3zm.5 4.9h-1.4V56h1.4c.9 0 1.9-.5 1.9-1.7 0-1.1-.9-1.6-1.9-1.6zM196.3 53.3l-1.3 1.3h-4.4c.1.7 1.1 1.6 2.7 1.6.9 0 1.9-.3 2.5-.7l-.3 2.5c-.7.4-1.7.6-2.9.6-2.8 0-5-1.9-5-4.9 0-2.9 2.1-4.8 4.7-4.8 2.5 0 4.1 1.7 4.1 3.6-.1.3-.1.6-.1.8zm-4-2.2c-.9 0-1.6.7-1.8 1.5h3.1v-.2c0-.6-.5-1.3-1.3-1.3zM200.7 58.5c-1.2 0-2.1-.3-2.9-.6l-.3-2.6c.8.6 1.8 1 2.8 1 .5 0 .9-.3.9-.6 0-.4-.3-.5-.8-.7-1.7-.5-2.8-1.4-2.8-3 0-1.8 1.4-2.9 3.4-2.9 1.1 0 2.2.3 2.7.5l-.5 2.2c-.4-.2-1.2-.5-1.9-.5-.5 0-.8.2-.8.6 0 .3.2.5.8.7 2 .5 2.9 1.6 2.9 3.1 0 1.4-1.1 2.8-3.5 2.8zM211.6 51.6h-2.4V55c0 .8.4 1.1 1.2 1.1.3 0 .5 0 .8-.1l-.3 2.2c-.3.1-.8.2-1.4.2-2 0-3.3-1.1-3.3-2.9v-3.9h-1.5v-2.4h1.5v-1.9l2.9-1.1v3h2.9l-.4 2.4z"/></g><g><path class="st0" d="M30.2 68.7c-.3-.1-.8-.2-1.2-.2-1.1 0-1.6.6-1.6 1.9v.9H30l-.6 2.4h-2v6.7h-2.8v-6.7h-1.4v-2.4h1.4v-1.1c0-2.8 1.8-4.1 4.1-4.1.8 0 1.7.1 2.1.3l-.6 2.3zM35.3 80.6c-2.7 0-4.9-1.9-4.9-4.8s2.2-4.8 4.9-4.8 4.9 1.9 4.9 4.8c.1 2.8-2.1 4.8-4.9 4.8zm0-7.1c-1.1 0-2 1-2 2.3s.9 2.3 2 2.3 2-1 2-2.3-.9-2.3-2-2.3zM47.4 74.4c-.2-.1-.6-.2-.9-.2-.9 0-1.8.5-1.8 1.9v4.2h-2.9v-9.1h2.9v2c.3-1.4 1.4-2.2 2.6-2.2.3 0 .6 0 .8.1l-.7 3.3zM59.9 68.7c-.3-.1-.8-.2-1.2-.2-1.1 0-1.6.6-1.6 1.9v.9h2.6l-.6 2.4h-2v6.7h-2.8v-6.7h-1.4v-2.4h1.4v-1.1c0-2.8 1.8-4.1 4.1-4.1.8 0 1.7.1 2.1.3l-.6 2.3zM62.5 70c-.5 0-1.6-1.1-1.6-1.6s1.1-1.6 1.6-1.6 1.6 1 1.6 1.6c-.1.5-1.1 1.6-1.6 1.6zM61 80.3v-9.1h3v9.1h-3zM71.6 80.3v-5.6c0-.7-.4-1.2-1.3-1.2s-1.4.6-1.4 1.3v5.5H66v-9.1h2.7v1.2c.4-1 1.3-1.5 2.8-1.5 2 0 3.2 1.1 3.2 3v6.3h-3.1zM82.8 80.7c-.5-.1-1.2-.5-1.4-1.2-.4.7-1.3 1.1-2.4 1.1-1.6 0-3-1.1-3-3 0-1.7 1.3-2.8 3.1-3l1.8-.2v-.3c0-.5-.4-.9-1.4-.9-.9 0-1.9.3-2.5.7l-.5-2.2c.7-.5 2-.8 3.2-.8 2.4 0 4.1 1.1 4.1 3.3v3c0 1.1.4 1.6 1.1 1.9l-2.1 1.6zm-1.9-4.4l-1.1.1c-.8.1-1.1.6-1.1 1.1 0 .5.4.9.9.9.7 0 1.3-.5 1.3-1.3v-.8zM91.5 80.3v-5.6c0-.7-.4-1.2-1.3-1.2s-1.4.6-1.4 1.3v5.5h-2.9v-9.1h2.7v1.2c.4-1 1.3-1.5 2.8-1.5 2 0 3.2 1.1 3.2 3v6.3h-3.1zM103.2 74.2c-.6-.4-1.2-.6-1.9-.6-1.3 0-2.3.9-2.3 2.2 0 1.3 1 2.2 2.4 2.2.8 0 1.3-.2 2-.5l-.3 2.5c-.6.3-1.4.4-2.2.4-2.5 0-4.9-1.8-4.9-4.7 0-3 2.4-4.7 4.8-4.7 1.2 0 2.2.2 3 .7l-.6 2.5zM106.7 70c-.5 0-1.6-1.1-1.6-1.6s1.1-1.6 1.6-1.6 1.6 1 1.6 1.6c0 .5-1.1 1.6-1.6 1.6zm-1.5 10.3v-9.1h3v9.1h-3zM116.5 80.7c-.5-.1-1.2-.5-1.4-1.2-.4.7-1.3 1.1-2.4 1.1-1.6 0-3-1.1-3-3 0-1.7 1.3-2.8 3.1-3l1.8-.2v-.3c0-.5-.4-.9-1.4-.9-.9 0-1.9.3-2.5.7l-.5-2.2c.7-.5 2-.8 3.2-.8 2.4 0 4.1 1.1 4.1 3.3v3c0 1.1.4 1.6 1.1 1.9l-2.1 1.6zm-1.9-4.4l-1.1.1c-.8.1-1.1.6-1.1 1.1 0 .5.4.9.9.9.7 0 1.3-.5 1.3-1.3v-.8zM122.6 80.7c-1.9-.1-3.1-1-3.1-3.2V66.1h2.9v11c0 .7.4 1.1 1.2 1.2l-1 2.4zM132.3 80.5c-1.2 0-2.1-.3-2.9-.6l-.3-2.6c.8.6 1.8 1 2.8 1 .5 0 .9-.3.9-.6 0-.4-.3-.5-.8-.7-1.7-.5-2.8-1.4-2.8-3 0-1.8 1.4-2.9 3.4-2.9 1.1 0 2.2.3 2.7.5l-.5 2.2c-.4-.2-1.2-.5-1.9-.5-.5 0-.8.2-.8.6 0 .3.2.5.8.7 2 .5 2.9 1.6 2.9 3.1 0 1.4-1.1 2.8-3.5 2.8zM143.2 73.6h-2.4V77c0 .8.4 1.1 1.2 1.1.3 0 .5 0 .8-.1l-.3 2.2c-.3.1-.8.2-1.4.2-2 0-3.3-1.1-3.3-2.9v-3.9h-1.5v-2.4h1.5v-1.9l2.9-1.1v3h2.9l-.4 2.4zM150.4 74.4c-.2-.1-.6-.2-.9-.2-.9 0-1.8.5-1.8 1.9v4.2h-2.9v-9.1h2.9v2c.3-1.4 1.4-2.2 2.6-2.2.3 0 .6 0 .8.1l-.7 3.3zM160.2 75.3l-1.3 1.3h-4.4c.1.7 1.1 1.6 2.7 1.6.9 0 1.9-.3 2.5-.7l-.3 2.5c-.7.4-1.7.6-2.9.6-2.8 0-5-1.9-5-4.9 0-2.9 2.1-4.8 4.7-4.8 2.5 0 4.1 1.7 4.1 3.6 0 .3 0 .6-.1.8zm-3.9-2.2c-.9 0-1.6.7-1.8 1.5h3.1v-.2c0-.6-.6-1.3-1.3-1.3zM167.5 80.3v-5.6c0-.7-.4-1.2-1.3-1.2s-1.4.6-1.4 1.3v5.5h-2.9v-9.1h2.7v1.2c.4-1 1.3-1.5 2.8-1.5 2 0 3.2 1.1 3.2 3v6.3h-3.1zM176.1 84.9c-2.6 0-4.4-1.5-4.4-3.4 0-1.4.9-2.2 1.9-2.4l-1.2-1.2c.1-.6.6-1.1 1.1-1.3-.7-.4-1.3-1.3-1.3-2.4 0-1.9 1.4-3.3 3.7-3.3.5 0 1 .1 1.3.2.4.1.8.2 1.3.2s1-.1 1.4-.3l.5 2.2c-.3.2-.7.3-1.1.3.1.2.2.6.2.9 0 1.5-1.2 2.8-3 2.9-.4 0-.6.1-.6.3 0 .1.1.2.2.3l1.4.5c1.8.6 2.7 1.5 2.7 3.2.3 1.9-1.4 3.3-4.1 3.3zm.7-4.2l-1.1-.3c-.7 0-1.2.5-1.2 1.2 0 .6.5 1.1 1.6 1.1 1 0 1.6-.5 1.6-1 0-.4-.4-.9-.9-1zm-.8-7.6c-.7 0-1.2.5-1.2 1.1 0 .6.5 1.1 1.2 1.1.6 0 1.2-.5 1.2-1.1-.1-.6-.6-1.1-1.2-1.1zM188.1 73.6h-2.4V77c0 .8.4 1.1 1.2 1.1.3 0 .5 0 .8-.1l-.3 2.2c-.3.1-.8.2-1.4.2-2 0-3.3-1.1-3.3-2.9v-3.9h-1.5v-2.4h1.5v-1.9l2.9-1.1v3h2.9l-.4 2.4zM195.4 80.3v-5.6c0-.7-.5-1.2-1.4-1.2-.9 0-1.4.6-1.4 1.3v5.5h-2.9V66.1h2.9v6c.5-.7 1.3-1.1 2.6-1.1 2 0 3.2 1.1 3.2 3v6.3h-3z"/></g></svg>