<svg id="Layer_1" xmlns="http://www.w3.org/2000/svg" viewBox="0 0 300 250"><style>.st0{fill:#f9e13a}</style><path class="st0" d="M30.3 36.3l-1.1-2.9h-4.1L24 36.3h-2.9l5-12.9h2.1l5 12.9h-2.9zm-2.7-7.7c-.1-.3-.3-.8-.4-1.2-.1.4-.2.9-.4 1.2L26 31h2.5l-.9-2.4zM40.6 24.7c-.3-.1-.8-.2-1.2-.2-1.1 0-1.6.6-1.6 1.9v.9h2.6l-.6 2.4h-2v6.7H35v-6.7h-1.4v-2.4H35v-1.1c0-2.8 1.8-4.1 4.1-4.1.8 0 1.7.1 2.1.3l-.6 2.3zM48 24.7c-.3-.1-.8-.2-1.2-.2-1.1 0-1.6.6-1.6 1.9v.9h2.6l-.6 2.4h-2v6.7h-2.8v-6.7H41v-2.4h1.4v-1.1c0-2.8 1.8-4.1 4.1-4.1.8 0 1.7.1 2.1.3l-.6 2.3zM53.2 36.6c-2.7 0-4.9-1.9-4.9-4.8s2.2-4.8 4.9-4.8 4.9 1.9 4.9 4.8c0 2.8-2.2 4.8-4.9 4.8zm0-7.1c-1.1 0-2 1-2 2.3s.9 2.3 2 2.3 2-1 2-2.3-1-2.3-2-2.3zM65.2 30.4c-.2-.1-.6-.2-.9-.2-.9 0-1.8.5-1.8 1.9v4.2h-2.9v-9.1h2.9v2c.3-1.4 1.4-2.2 2.6-2.2.3 0 .6 0 .8.1l-.7 3.3zM73.5 36.3v-1.1c-.5.9-1.5 1.4-2.8 1.4-2.2 0-4.4-1.7-4.4-4.8 0-2.9 2.1-4.8 4.6-4.8 1 0 1.9.3 2.3.6v-5.5h2.9v14.2h-2.6zm-.3-5.9c-.3-.4-.9-.8-1.8-.8-1.3 0-2.2 1-2.2 2.3s.9 2.3 2.2 2.3c.9 0 1.5-.5 1.8-.9v-2.9zM84.4 36.7c-.5-.1-1.2-.5-1.4-1.2-.4.7-1.3 1.1-2.4 1.1-1.6 0-3-1.1-3-3 0-1.7 1.3-2.8 3.1-3l1.8-.2v-.3c0-.5-.4-.9-1.4-.9-.9 0-1.9.3-2.5.7l-.5-2.2c.7-.5 2-.8 3.2-.8 2.4 0 4.1 1.1 4.1 3.3v3c0 1.1.4 1.6 1.1 1.9l-2.1 1.6zm-1.9-4.4l-1.1.1c-.8.1-1.1.6-1.1 1.1 0 .5.4.9.9.9.7 0 1.3-.5 1.3-1.3v-.8zM91.8 36.6c-1.9 0-3.5-.7-4.4-1.3V22.1h2.8v5.5c.4-.3 1.3-.6 2.3-.6 2.5 0 4.6 1.8 4.6 4.6.1 2.8-1.7 5-5.3 5zm.3-7.1c-.8 0-1.5.4-1.8.7v3.5c.3.2.9.4 1.5.4 1.5 0 2.4-1 2.4-2.3 0-1.3-.8-2.3-2.1-2.3zM100.2 26c-.5 0-1.6-1.1-1.6-1.6s1.1-1.6 1.6-1.6 1.6 1 1.6 1.6c-.1.5-1.1 1.6-1.6 1.6zm-1.5 10.3v-9.1h3v9.1h-3zM106.7 36.7c-1.9-.1-3.1-1-3.1-3.2V22.1h2.9v11c0 .7.4 1.1 1.2 1.2l-1 2.4zM110.4 26c-.5 0-1.6-1.1-1.6-1.6s1.1-1.6 1.6-1.6 1.6 1 1.6 1.6c0 .5-1.1 1.6-1.6 1.6zm-1.5 10.3v-9.1h3v9.1h-3zM119.8 29.6h-2.4V33c0 .8.4 1.1 1.2 1.1.3 0 .5 0 .8-.1l-.3 2.2c-.3.1-.8.2-1.4.2-2 0-3.3-1.1-3.3-2.9v-3.9H113v-2.4h1.5v-1.9l2.9-1.1v3h2.9l-.5 2.4zM127.3 35.4c-1.4 3.6-2.8 5-4.5 5.6l-1.8-1.8c1.5-.6 2.6-1.6 3.3-3.5l-3.3-8.4h2.8l1.3 3.5c.2.5.4 1.1.5 1.8.2-.6.4-1.3.6-1.8l1.3-3.5h2.7l-2.9 8.1zM142.4 36.7c-.5-.1-1.2-.5-1.4-1.2-.4.7-1.3 1.1-2.4 1.1-1.6 0-3-1.1-3-3 0-1.7 1.3-2.8 3.1-3l1.8-.2v-.3c0-.5-.4-.9-1.4-.9-.9 0-1.9.3-2.5.7l-.5-2.2c.7-.5 2-.8 3.2-.8 2.4 0 4.1 1.1 4.1 3.3v3c0 1.1.4 1.6 1.1 1.9l-2.1 1.6zm-1.9-4.4l-1.1.1c-.8.1-1.1.6-1.1 1.1 0 .5.4.9.9.9.7 0 1.3-.5 1.3-1.3v-.8zM151.2 36.3v-5.6c0-.7-.4-1.2-1.3-1.2s-1.4.6-1.4 1.3v5.5h-2.9v-9.1h2.7v1.2c.4-1 1.3-1.5 2.8-1.5 2 0 3.2 1.1 3.2 3v6.3h-3.1zM162.7 36.3v-1.1c-.5.9-1.5 1.4-2.8 1.4-2.2 0-4.4-1.7-4.4-4.8 0-2.9 2.1-4.8 4.6-4.8 1 0 1.9.3 2.3.6v-5.5h2.9v14.2h-2.6zm-.2-5.9c-.3-.4-.9-.8-1.8-.8-1.3 0-2.2 1-2.2 2.3s.9 2.3 2.2 2.3c.9 0 1.5-.5 1.8-.9v-2.9zM178.1 36.7c-.5-.1-1.2-.5-1.4-1.2-.4.7-1.3 1.1-2.4 1.1-1.6 0-3-1.1-3-3 0-1.7 1.3-2.8 3.1-3l1.8-.2v-.3c0-.5-.4-.9-1.4-.9-.9 0-1.9.3-2.5.7l-.5-2.2c.7-.5 2-.8 3.2-.8 2.4 0 4.1 1.1 4.1 3.3v3c0 1.1.4 1.6 1.1 1.9l-2.1 1.6zm-1.9-4.4l-1.1.1c-.8.1-1.1.6-1.1 1.1 0 .5.4.9.9.9.7 0 1.3-.5 1.3-1.3v-.8zM186.9 36.3v-5.6c0-.7-.4-1.2-1.3-1.2s-1.4.6-1.4 1.3v5.5h-2.9v-9.1h2.7v1.2c.4-1 1.3-1.5 2.8-1.5 2 0 3.2 1.1 3.2 3v6.3h-3.1zM204.4 31.3l-1.3 1.3h-4.4c.1.7 1.1 1.6 2.7 1.6.9 0 1.9-.3 2.5-.7l-.3 2.5c-.7.4-1.7.6-2.9.6-2.8 0-5-1.9-5-4.9 0-2.9 2.1-4.8 4.7-4.8 2.5 0 4.1 1.7 4.1 3.6 0 .3 0 .6-.1.8zm-4-2.2c-.9 0-1.6.7-1.8 1.5h3.1v-.2c.1-.6-.5-1.3-1.3-1.3zM212.2 36.7c-.5-.1-1.2-.5-1.4-1.2-.4.7-1.3 1.1-2.4 1.1-1.6 0-3-1.1-3-3 0-1.7 1.3-2.8 3.1-3l1.8-.2v-.3c0-.5-.4-.9-1.4-.9-.9 0-1.9.3-2.5.7l-.5-2.2c.7-.5 2-.8 3.2-.8 2.4 0 4.1 1.1 4.1 3.3v3c0 1.1.4 1.6 1.1 1.9l-2.1 1.6zm-1.8-4.4l-1.1.1c-.8.1-1.1.6-1.1 1.1 0 .5.4.9.9.9.7 0 1.3-.5 1.3-1.3v-.8zM218.2 36.5c-1.2 0-2.1-.3-2.9-.6l-.3-2.6c.8.6 1.8 1 2.8 1 .5 0 .9-.3.9-.6 0-.4-.3-.5-.8-.7-1.7-.5-2.8-1.4-2.8-3 0-1.8 1.4-2.9 3.4-2.9 1.1 0 2.2.3 2.7.5l-.5 2.2c-.4-.2-1.2-.5-1.9-.5-.5 0-.8.2-.8.6 0 .3.2.5.8.7 2 .5 2.9 1.6 2.9 3.1.1 1.4-1 2.8-3.5 2.8zM228.6 35.4c-1.4 3.6-2.8 5-4.5 5.6l-1.8-1.8c1.5-.6 2.6-1.6 3.3-3.5l-3.3-8.4h2.8l1.3 3.5c.2.5.4 1.1.5 1.8.2-.6.4-1.3.6-1.8l1.3-3.5h2.7l-2.9 8.1z"/><g><path class="st0" d="M28.3 58.7c-.5-.1-1.2-.5-1.4-1.2-.4.7-1.3 1.1-2.4 1.1-1.6 0-3-1.1-3-3 0-1.7 1.3-2.8 3.1-3l1.8-.2v-.3c0-.5-.4-.9-1.4-.9-.9 0-1.9.3-2.5.7l-.5-2.2c.7-.5 2-.8 3.2-.8 2.4 0 4.1 1.1 4.1 3.3v3c0 1.1.4 1.6 1.1 1.9l-2.1 1.6zm-1.9-4.4l-1.1.1c-.8.1-1.1.6-1.1 1.1 0 .5.4.9.9.9.7 0 1.3-.5 1.3-1.3v-.8zM36.5 58.6c-1 0-1.9-.3-2.3-.6v5h-2.9V49.2h2.6v1.1c.5-.9 1.5-1.4 2.8-1.4 2.2 0 4.4 1.7 4.4 4.8 0 3-2.1 4.9-4.6 4.9zm-.5-7.1c-.9 0-1.5.5-1.8.9v2.8c.3.4.9.8 1.8.8 1.3 0 2.2-1 2.2-2.3s-.9-2.2-2.2-2.2zM47.8 58.6c-1 0-1.9-.3-2.3-.6v5h-2.9V49.2h2.6v1.1c.5-.9 1.5-1.4 2.8-1.4 2.2 0 4.4 1.7 4.4 4.8 0 3-2.1 4.9-4.6 4.9zm-.5-7.1c-.9 0-1.5.5-1.8.9v2.8c.3.4.9.8 1.8.8 1.3 0 2.2-1 2.2-2.3s-1-2.2-2.2-2.2zM57 58.7c-1.9-.1-3.1-1-3.1-3.2V44.1h2.9v11c0 .7.4 1.1 1.2 1.2l-1 2.4zM60.7 48c-.5 0-1.6-1.1-1.6-1.6s1.1-1.6 1.6-1.6 1.6 1 1.6 1.6c0 .5-1.1 1.6-1.6 1.6zm-1.5 10.3v-9.1h3v9.1h-3zM70.9 52.2c-.6-.4-1.2-.6-1.9-.6-1.3 0-2.3.9-2.3 2.2 0 1.3 1 2.2 2.4 2.2.8 0 1.3-.2 2-.5l-.3 2.5c-.6.3-1.4.4-2.2.4-2.5 0-4.9-1.8-4.9-4.7 0-3 2.4-4.7 4.8-4.7 1.2 0 2.2.2 3 .7l-.6 2.5zM79.2 58.7c-.5-.1-1.2-.5-1.4-1.2-.4.7-1.3 1.1-2.4 1.1-1.6 0-3-1.1-3-3 0-1.7 1.3-2.8 3.1-3l1.8-.2v-.3c0-.5-.4-.9-1.4-.9-.9 0-1.9.3-2.5.7l-.5-2.2c.7-.5 2-.8 3.2-.8 2.4 0 4.1 1.1 4.1 3.3v3c0 1.1.4 1.6 1.1 1.9l-2.1 1.6zm-1.8-4.4l-1.1.1c-.8.1-1.1.6-1.1 1.1 0 .5.4.9.9.9.7 0 1.3-.5 1.3-1.3v-.8zM88.2 51.6h-2.4V55c0 .8.4 1.1 1.2 1.1.3 0 .5 0 .8-.1l-.3 2.2c-.3.1-.8.2-1.4.2-2 0-3.3-1.1-3.3-2.9v-3.9h-1.5v-2.4h1.5v-1.9l2.9-1.1v3h2.9l-.4 2.4zM91.3 48c-.5 0-1.6-1.1-1.6-1.6s1.1-1.6 1.6-1.6 1.6 1 1.6 1.6c0 .5-1.1 1.6-1.6 1.6zm-1.5 10.3v-9.1h3v9.1h-3zM99.2 58.6c-2.7 0-4.9-1.9-4.9-4.8s2.2-4.8 4.9-4.8 4.9 1.9 4.9 4.8c0 2.8-2.2 4.8-4.9 4.8zm0-7.1c-1.1 0-2 1-2 2.3s.9 2.3 2 2.3 2-1 2-2.3-.9-2.3-2-2.3zM111.3 58.3v-5.6c0-.7-.4-1.2-1.3-1.2s-1.4.6-1.4 1.3v5.5h-2.9v-9.1h2.7v1.2c.4-1 1.3-1.5 2.8-1.5 2 0 3.2 1.1 3.2 3v6.3h-3.1zM126.9 46.7c-.3-.1-.8-.2-1.2-.2-1.1 0-1.6.6-1.6 1.9v.9h2.6l-.6 2.4h-2v6.7h-2.8v-6.7h-1.4v-2.4h1.4v-1.1c0-2.8 1.8-4.1 4.1-4.1.8 0 1.7.1 2.1.3l-.6 2.3zM132 58.6c-2.7 0-4.9-1.9-4.9-4.8s2.2-4.8 4.9-4.8 4.9 1.9 4.9 4.8c0 2.8-2.2 4.8-4.9 4.8zm0-7.1c-1.1 0-2 1-2 2.3s.9 2.3 2 2.3 2-1 2-2.3-.9-2.3-2-2.3zM144 52.4c-.2-.1-.6-.2-.9-.2-.9 0-1.8.5-1.8 1.9v4.2h-2.9v-9.1h2.9v2c.3-1.4 1.4-2.2 2.6-2.2.3 0 .6 0 .8.1l-.7 3.3zM156.3 51.6H154V55c0 .8.4 1.1 1.2 1.1.3 0 .5 0 .8-.1l-.3 2.2c-.3.1-.8.2-1.4.2-2 0-3.3-1.1-3.3-2.9v-3.9h-1.5v-2.4h1.5v-1.9l2.9-1.1v3h2.9l-.5 2.4zM166 53.3l-1.3 1.3h-4.4c.1.7 1.1 1.6 2.7 1.6.9 0 1.9-.3 2.5-.7l-.3 2.5c-.7.4-1.7.6-2.9.6-2.8 0-5-1.9-5-4.9 0-2.9 2.1-4.8 4.7-4.8 2.5 0 4.1 1.7 4.1 3.6 0 .3 0 .6-.1.8zm-3.9-2.2c-.9 0-1.6.7-1.8 1.5h3.1v-.2c0-.6-.6-1.3-1.3-1.3zM173.2 52.4c-.2-.1-.6-.2-.9-.2-.9 0-1.8.5-1.8 1.9v4.2h-2.9v-9.1h2.9v2c.3-1.4 1.4-2.2 2.6-2.2.3 0 .6 0 .8.1l-.7 3.3zM186.1 58.3v-5.6c0-.7-.3-1.2-1.3-1.2-.9 0-1.4.6-1.4 1.3v5.5h-2.9v-5.6c0-.7-.3-1.2-1.3-1.2-.9 0-1.4.6-1.4 1.3v5.5h-2.9v-9.1h2.7v1.2c.4-1 1.3-1.5 2.7-1.5 1.3 0 2.3.5 2.7 1.5.4-.9 1.4-1.5 2.8-1.5 2.1 0 3.2 1.1 3.2 3v6.3h-2.9zM198.5 58.7c-1.9-.1-3.1-1-3.1-3.2V44.1h2.9v11c0 .7.4 1.1 1.2 1.2l-1 2.4zM202.2 48c-.5 0-1.6-1.1-1.6-1.6s1.1-1.6 1.6-1.6 1.6 1 1.6 1.6c0 .5-1.1 1.6-1.6 1.6zm-1.5 10.3v-9.1h3v9.1h-3zM211.9 46.7c-.3-.1-.8-.2-1.2-.2-1.1 0-1.6.6-1.6 1.9v.9h2.6l-.6 2.4h-2v6.7h-2.8v-6.7h-1.4v-2.4h1.4v-1.1c0-2.8 1.8-4.1 4.1-4.1.8 0 1.7.1 2.1.3l-.6 2.3zM220.8 53.3l-1.3 1.3h-4.4c.1.7 1.1 1.6 2.7 1.6.9 0 1.9-.3 2.5-.7L220 58c-.7.4-1.7.6-2.9.6-2.8 0-5-1.9-5-4.9 0-2.9 2.1-4.8 4.7-4.8 2.5 0 4.1 1.7 4.1 3.6 0 .3 0 .6-.1.8zm-4-2.2c-.9 0-1.6.7-1.8 1.5h3.1v-.2c.1-.6-.5-1.3-1.3-1.3z"/></g><g><path class="st0" d="M23.5 70c-.5 0-1.6-1.1-1.6-1.6s1.1-1.6 1.6-1.6 1.6 1 1.6 1.6c-.1.5-1.1 1.6-1.6 1.6zM22 80.3v-9.1h3v9.1h-3zM32.6 80.3v-5.6c0-.7-.4-1.2-1.3-1.2s-1.4.6-1.4 1.3v5.5H27v-9.1h2.7v1.2c.4-1 1.3-1.5 2.8-1.5 2 0 3.2 1.1 3.2 3v6.3h-3.1zM40.3 80.5c-1.2 0-2.1-.3-2.9-.6l-.3-2.6c.8.6 1.8 1 2.8 1 .5 0 .9-.3.9-.6 0-.4-.3-.5-.8-.7-1.7-.5-2.8-1.4-2.8-3 0-1.8 1.4-2.9 3.4-2.9 1.1 0 2.2.3 2.7.5l-.5 2.2c-.4-.2-1.2-.5-1.9-.5-.5 0-.8.2-.8.6 0 .3.2.5.8.7 2 .5 2.9 1.6 2.9 3.1.1 1.4-1.1 2.8-3.5 2.8zM51.3 80.3v-1.2c-.4 1-1.3 1.5-2.8 1.5-2 0-3.2-1.1-3.2-3v-6.3h2.9v5.6c0 .7.5 1.2 1.4 1.2.9 0 1.4-.6 1.4-1.3v-5.5h2.9v9.1h-2.6zM61.5 74.4c-.2-.1-.6-.2-.9-.2-.9 0-1.8.5-1.8 1.9v4.2h-2.9v-9.1h2.9v2c.3-1.4 1.4-2.2 2.6-2.2.3 0 .6 0 .8.1l-.7 3.3zM69.5 80.7c-.5-.1-1.2-.5-1.4-1.2-.4.7-1.3 1.1-2.4 1.1-1.6 0-3-1.1-3-3 0-1.7 1.3-2.8 3.1-3l1.8-.2v-.3c0-.5-.4-.9-1.4-.9-.9 0-1.9.3-2.5.7l-.5-2.2c.7-.5 2-.8 3.2-.8 2.4 0 4.1 1.1 4.1 3.3v3c0 1.1.4 1.6 1.1 1.9l-2.1 1.6zm-1.9-4.4l-1.1.1c-.8.1-1.1.6-1.1 1.1 0 .5.4.9.9.9.7 0 1.3-.5 1.3-1.3v-.8zM78.3 80.3v-5.6c0-.7-.4-1.2-1.3-1.2s-1.4.6-1.4 1.3v5.5h-2.9v-9.1h2.7v1.2c.4-1 1.3-1.5 2.8-1.5 2 0 3.2 1.1 3.2 3v6.3h-3.1zM90 74.2c-.6-.4-1.2-.6-1.9-.6-1.3 0-2.3.9-2.3 2.2 0 1.3 1 2.2 2.4 2.2.8 0 1.3-.2 2-.5l-.3 2.5c-.6.3-1.4.4-2.2.4-2.5 0-4.9-1.8-4.9-4.7 0-3 2.4-4.7 4.8-4.7 1.2 0 2.2.2 3 .7l-.6 2.5zM100.1 75.3l-1.3 1.3h-4.4c.1.7 1.1 1.6 2.7 1.6.9 0 1.9-.3 2.5-.7l-.4 2.5c-.7.4-1.7.6-2.9.6-2.8 0-5-1.9-5-4.9 0-2.9 2.1-4.8 4.7-4.8 2.5 0 4.1 1.7 4.1 3.6.1.3 0 .6 0 .8zm-4-2.2c-.9 0-1.6.7-1.8 1.5h3.1v-.2c0-.6-.5-1.3-1.3-1.3zM105.2 76.7v-1.8h20v1.8h-20zM133.5 80.5c-1.2 0-2.1-.3-2.9-.6l-.3-2.6c.8.6 1.8 1 2.8 1 .5 0 .9-.3.9-.6 0-.4-.3-.5-.8-.7-1.7-.5-2.8-1.4-2.8-3 0-1.8 1.4-2.9 3.4-2.9 1.1 0 2.2.3 2.7.5l-.5 2.2c-.4-.2-1.2-.5-1.9-.5-.5 0-.8.2-.8.6 0 .3.2.5.8.7 2 .5 2.9 1.6 2.9 3.1.1 1.4-1 2.8-3.5 2.8zM144.9 80.7c-.5-.1-1.2-.5-1.4-1.2-.4.7-1.3 1.1-2.4 1.1-1.6 0-3-1.1-3-3 0-1.7 1.3-2.8 3.1-3l1.8-.2v-.3c0-.5-.4-.9-1.4-.9-.9 0-1.9.3-2.5.7l-.5-2.2c.7-.5 2-.8 3.2-.8 2.4 0 4.1 1.1 4.1 3.3v3c0 1.1.4 1.6 1.1 1.9l-2.1 1.6zm-1.9-4.4l-1.1.1c-.8.1-1.1.6-1.1 1.1 0 .5.4.9.9.9.7 0 1.3-.5 1.3-1.3v-.8z"/><path class="st0" d="M153.1 79.4c-1.4 3.6-2.8 5-4.5 5.6l-1.8-1.8c1.5-.6 2.6-1.6 3.3-3.5l-3.3-8.4h2.8l1.3 3.5c.2.5.4 1.1.5 1.8.2-.6.4-1.3.6-1.8l1.3-3.5h2.7l-2.9 8.1zM159.8 80.5c-1.2 0-2.1-.3-2.9-.6l-.3-2.6c.8.6 1.8 1 2.8 1 .5 0 .9-.3.9-.6 0-.4-.3-.5-.8-.7-1.7-.5-2.8-1.4-2.8-3 0-1.8 1.4-2.9 3.4-2.9 1.1 0 2.2.3 2.7.5l-.5 2.2c-.4-.2-1.2-.5-1.9-.5-.5 0-.8.2-.8.6 0 .3.2.5.8.7 2 .5 2.9 1.6 2.9 3.1.1 1.4-1 2.8-3.5 2.8zM174.9 74.4c-.2-.1-.6-.2-.9-.2-.9 0-1.8.5-1.8 1.9v4.2h-2.9v-9.1h2.9v2c.3-1.4 1.4-2.2 2.6-2.2.3 0 .6 0 .8.1l-.7 3.3zM184.8 75.3l-1.3 1.3H179c.1.7 1.1 1.6 2.7 1.6.9 0 1.9-.3 2.5-.7l-.3 2.5c-.7.4-1.7.6-2.9.6-2.8 0-5-1.9-5-4.9 0-2.9 2.1-4.8 4.7-4.8 2.5 0 4.1 1.7 4.1 3.6.1.3 0 .6 0 .8zm-4-2.2c-.9 0-1.6.7-1.8 1.5h3.1v-.2c0-.6-.5-1.3-1.3-1.3zM191 80.4h-2.2l-3.5-9.1h2.8l1.3 3.5c.2.5.4 1.2.5 1.8.1-.6.3-1.3.5-1.8l1.3-3.5h2.7l-3.4 9.1zM197 70c-.5 0-1.6-1.1-1.6-1.6s1.1-1.6 1.6-1.6 1.6 1 1.6 1.6c0 .5-1 1.6-1.6 1.6zm-1.4 10.3v-9.1h3v9.1h-3zM208.7 75.3l-1.3 1.3H203c.1.7 1.1 1.6 2.7 1.6.9 0 1.9-.3 2.5-.7l-.3 2.5c-.7.4-1.7.6-2.9.6-2.8 0-5-1.9-5-4.9 0-2.9 2.1-4.8 4.7-4.8 2.5 0 4.1 1.7 4.1 3.6 0 .3 0 .6-.1.8zm-4-2.2c-.9 0-1.6.7-1.8 1.5h3.1v-.2c.1-.6-.5-1.3-1.3-1.3zM219.9 80.4h-2l-1.2-3.6c-.2-.6-.4-1.2-.5-1.9-.1.7-.3 1.3-.5 1.9l-1.2 3.6h-1.9l-3.2-9.1h2.7l1.1 3.4c.2.5.3 1.2.4 1.7.1-.6.3-1.2.4-1.7l1.1-3.4h2.2l1.1 3.4c.2.6.3 1.2.4 1.8.1-.6.3-1.2.5-1.8l1.1-3.4h2.5l-3 9.1zM226.8 80.5c-1.2 0-2.1-.3-2.9-.6l-.3-2.6c.8.6 1.8 1 2.8 1 .5 0 .9-.3.9-.6 0-.4-.3-.5-.8-.7-1.7-.5-2.8-1.4-2.8-3 0-1.8 1.4-2.9 3.4-2.9 1.1 0 2.2.3 2.7.5l-.5 2.2c-.4-.2-1.2-.5-1.9-.5-.5 0-.8.2-.8.6 0 .3.2.5.8.7 2 .5 2.9 1.6 2.9 3.1.1 1.4-1.1 2.8-3.5 2.8zM233.2 80.6c-.5 0-1.7-1.1-1.7-1.7 0-.5 1.1-1.6 1.7-1.6s1.7 1.1 1.7 1.6c0 .6-1.1 1.7-1.7 1.7zM243.1 74.2c-.6-.4-1.2-.6-1.9-.6-1.3 0-2.3.9-2.3 2.2 0 1.3 1 2.2 2.4 2.2.8 0 1.3-.2 2-.5L243 80c-.6.3-1.4.4-2.2.4-2.5 0-4.9-1.8-4.9-4.7 0-3 2.4-4.7 4.8-4.7 1.2 0 2.2.2 3 .7l-.6 2.5zM249.4 80.6c-2.7 0-4.9-1.9-4.9-4.8s2.2-4.8 4.9-4.8 4.9 1.9 4.9 4.8c.1 2.8-2.2 4.8-4.9 4.8zm0-7.1c-1.1 0-2 1-2 2.3s.9 2.3 2 2.3 2-1 2-2.3-.9-2.3-2-2.3zM267 80.3v-5.6c0-.7-.3-1.2-1.3-1.2-.9 0-1.4.6-1.4 1.3v5.5h-2.9v-5.6c0-.7-.3-1.2-1.3-1.2-.9 0-1.4.6-1.4 1.3v5.5h-2.9v-9.1h2.7v1.2c.4-1 1.3-1.5 2.7-1.5 1.3 0 2.3.5 2.7 1.5.4-.9 1.4-1.5 2.8-1.5 2.1 0 3.2 1.1 3.2 3v6.3H267z"/></g></svg>