<svg id="Layer_1" xmlns="http://www.w3.org/2000/svg" viewBox="0 0 300 250"><style>.st0{fill:#f9e038}.st1{fill:#231f20}</style><path class="st0" d="M189.1 120s-11.7 0-11.7 11.7v3.1s0 11.7 11.7 11.7h78.3s11.7 0 11.7-11.7v-3.1s0-11.7-11.7-11.7h-78.3z"/><path class="st1" d="M200 135.8v1.5h-4.8v-7.6h1.8v6.1h3zM202.5 131.2v1.5h2.9v1.4h-2.9v1.7h3.7v1.5h-5.4v-7.6h5.4v1.5h-3.7zM213.6 137.3h-1.9l-.5-1.6h-2.5l-.5 1.6h-1.6l2.4-7.6h2.1l2.5 7.6zm-2.8-2.9l-.8-2.7-.8 2.7h1.6zM216.1 137.3h-1.8v-7.6h3.2c.7 0 1.4 0 1.9.4.6.4 1 1.2 1 1.9 0 .9-.5 1.7-1.3 2l1.4 3.4h-2l-1.2-3H216v2.9zm0-4.3h1c.4 0 .8 0 1.1-.2.3-.2.4-.5.4-.9 0-.3-.2-.6-.4-.8-.3-.2-.8-.1-1.1-.1h-.9v2zM227.4 137.3h-1.5l-2.9-5.1v5.1h-1.4v-7.6h1.9l2.5 4.5v-4.5h1.4v7.6zM236.6 137.3h-1.2l-1.8-6.2v6.2H232v-7.6h2.8l1.3 4.6 1.4-4.6h2.8v7.6h-1.8v-6.2l-1.9 6.2zM242.2 136.2c-.6-.8-.8-1.8-.8-2.7 0-2 1-3.9 3.3-3.9 1 0 1.8.3 2.4 1.2.5.7.8 1.8.8 2.7 0 .9-.2 1.9-.7 2.6-.6.9-1.5 1.3-2.5 1.3s-1.9-.3-2.5-1.2zm1.3-4.3c-.2.5-.2 1.1-.2 1.6 0 1 .1 2.5 1.4 2.5.6 0 .9-.3 1.1-.9.2-.5.2-1.1.2-1.6 0-.6-.1-1.2-.3-1.7-.2-.5-.5-.7-1.1-.7-.6 0-.9.3-1.1.8zM250.7 137.3H249v-7.6h3.2c.7 0 1.4 0 1.9.4.6.4 1 1.2 1 1.9 0 .9-.5 1.7-1.3 2l1.4 3.4h-2l-1.2-3h-1.3v2.9zm0-4.3h1c.4 0 .8 0 1.1-.2.3-.2.4-.5.4-.9 0-.3-.2-.6-.4-.8-.3-.2-.8-.1-1.1-.1h-.9v2zM257.9 131.2v1.5h2.9v1.4h-2.9v1.7h3.7v1.5h-5.4v-7.6h5.4v1.5h-3.7z"/></svg>