<svg id="Layer_1" xmlns="http://www.w3.org/2000/svg" xmlns:xlink="http://www.w3.org/1999/xlink" viewBox="0 0 300 250"><style>.st0{clip-path:url(#SVGID_2_);fill:#fff}.st1{clip-path:url(#SVGID_4_);fill:url(#SVGID_5_)}.st2{clip-path:url(#SVGID_7_);fill:url(#SVGID_8_)}.st3{clip-path:url(#SVGID_10_);fill:url(#SVGID_11_)}.st4{clip-path:url(#SVGID_13_);fill:url(#SVGID_14_)}.st5{clip-path:url(#SVGID_16_);fill:url(#SVGID_17_)}.st6{fill:#626366}.st7{fill:#404041}.st8{fill:#808184}.st9{fill:#231f20}.st10,.st11,.st12,.st13{clip-path:url(#SVGID_19_);fill:#404041}.st11,.st12,.st13{fill:#eaebec}.st12,.st13{fill:#dbdcdd}.st13{fill:#fff}.st14{clip-path:url(#SVGID_21_);fill:url(#SVGID_22_)}.st15{fill:#005494}.st16{fill:#0081bd}.st17{fill:#fff}</style><defs><path id="SVGID_1_" d="M22.3 103h126.4v126.4H22.3z"/></defs><clipPath id="SVGID_2_"><use xlink:href="#SVGID_1_" overflow="visible"/></clipPath><path class="st0" d="M73.8 103c-9.4 0-18.3 3.7-25.1 10.4-6.7 6.7-10.4 15.6-10.4 24.9v75.2h75c19.6 0 35.5-15.9 35.5-35.5v-75h-75z"/><defs><path id="SVGID_3_" d="M113.3 213.5h-75l-15.8 15.8h80.3c6.4-.7 12.1-3.5 16.5-7.8l11.7-11.7-.6-.6c-5.1 2.8-10.9 4.3-17.1 4.3"/></defs><clipPath id="SVGID_4_"><use xlink:href="#SVGID_3_" overflow="visible"/></clipPath><linearGradient id="SVGID_5_" gradientUnits="userSpaceOnUse" x1="1.049" y1="251.045" x2="2.049" y2="251.045" gradientTransform="matrix(0 -20.4333 -20.4333 0 5206.425 251.126)"><stop offset="0" stop-color="#10b0e6"/><stop offset=".159" stop-color="#0faae1"/><stop offset=".368" stop-color="#0c9ad2"/><stop offset=".604" stop-color="#077fba"/><stop offset=".858" stop-color="#015999"/><stop offset=".89" stop-color="#005494"/><stop offset="1" stop-color="#005494"/></linearGradient><path class="st1" d="M22.5 209.2H131v20.2H22.5z"/><defs><path id="SVGID_6_" d="M30.3 132.6c-4.9 5-8 11.9-8 19.5v77.2h.2l15.8-15.8v-75.2c0-6 1.5-11.7 4.4-16.9l-.6-.6-11.8 11.8z"/></defs><clipPath id="SVGID_7_"><use xlink:href="#SVGID_6_" overflow="visible"/></clipPath><linearGradient id="SVGID_8_" gradientUnits="userSpaceOnUse" x1="1.009" y1="251.009" x2="2.009" y2="251.009" gradientTransform="matrix(0 -109.1672 -109.1672 0 27434.45 340.574)"><stop offset="0" stop-color="#0081bd"/><stop offset=".393" stop-color="#006fac"/><stop offset=".85" stop-color="#005494"/><stop offset="1" stop-color="#005494"/></linearGradient><path class="st2" d="M22.3 120.8h20.4v108.5H22.3z"/><defs><path id="SVGID_9_" d="M113.3 213.5h-75l-15.8 15.8h80.3c6.4-.7 12.1-3.5 16.5-7.8l11.7-11.7-.6-.6c-5.1 2.8-10.9 4.3-17.1 4.3"/></defs><clipPath id="SVGID_10_"><use xlink:href="#SVGID_9_" overflow="visible"/></clipPath><linearGradient id="SVGID_11_" gradientUnits="userSpaceOnUse" x1=".991" y1="251.01" x2="1.991" y2="251.01" gradientTransform="matrix(107.5119 0 0 -107.5119 -83.787 27205.848)"><stop offset="0" stop-color="#10b0e6"/><stop offset=".161" stop-color="#0faae1"/><stop offset=".372" stop-color="#0c9ad2"/><stop offset=".61" stop-color="#077fba"/><stop offset=".867" stop-color="#015999"/><stop offset=".9" stop-color="#005494"/><stop offset="1" stop-color="#005494"/></linearGradient><path class="st3" d="M22.5 209.2H131v20.2H22.5z"/><g><defs><path id="SVGID_12_" d="M30.3 132.6c-4.9 5-8 11.9-8 19.5v77.2h.2l15.8-15.8v-75.2c0-6 1.5-11.7 4.4-16.9l-.6-.6-11.8 11.8z"/></defs><clipPath id="SVGID_13_"><use xlink:href="#SVGID_12_" overflow="visible"/></clipPath><linearGradient id="SVGID_14_" gradientUnits="userSpaceOnUse" x1="1.009" y1="251.009" x2="2.009" y2="251.009" gradientTransform="matrix(0 -109.1672 -109.1672 0 27434.45 340.574)"><stop offset="0" stop-color="#0081bd"/><stop offset=".393" stop-color="#006fac"/><stop offset=".85" stop-color="#005494"/><stop offset="1" stop-color="#005494"/></linearGradient><path class="st4" d="M22.3 120.8h20.4v108.5H22.3z"/></g><g><defs><path id="SVGID_15_" d="M73.8 107.5c-17 0-31 14.1-31 30.9V209h70.5c17.1 0 31-13.9 31-31v-70.5H73.8z"/></defs><clipPath id="SVGID_16_"><use xlink:href="#SVGID_15_" overflow="visible"/></clipPath><linearGradient id="SVGID_17_" gradientUnits="userSpaceOnUse" x1="1" y1="251.01" x2="2" y2="251.01" gradientTransform="scale(143.238 -143.238) rotate(45 305.405 123.933)"><stop offset="0" stop-color="#9cdbf8"/><stop offset="1" stop-color="#0088cf"/></linearGradient><path class="st5" d="M-7.9 158.3L93.6 56.8l101.5 101.5L93.6 259.8z"/></g><path class="st6" d="M128.9 190.5H86.8l-9.4 9.3h42.2z"/><path class="st7" d="M126.7 197.8H87.8l-8.1 8.1h38.9z"/><path class="st8" d="M87.8 191.7h38.9v6H87.8z"/><path class="st9" d="M77.4 193.8v6l9.4-9.3.4-6.5z"/><g><defs><path id="SVGID_18_" d="M22.3 103h126.4v126.4H22.3z"/></defs><clipPath id="SVGID_19_"><use xlink:href="#SVGID_18_" overflow="visible"/></clipPath><path class="st10" d="M128.9 185.1c0-.8-.7-1.5-1.5-1.5H88.3c-.8 0-1.5.7-1.5 1.5v5.4H129v-5.4z"/><path class="st11" d="M51.5 194.2l.3 5.4 23.3-1.7-.4-5.3z"/><path class="st12" d="M51.8 198.2v1.4l23.3-1.6-.1-1.5z"/><path class="st13" d="M75.1 198c-.4 0-.8-1.2-.9-2.6-.1-1.5.2-2.7.6-2.7.4 0 .8 1.2.9 2.7 0 1.3-.2 2.5-.6 2.6"/></g><g><defs><path id="SVGID_20_" d="M47.6 204.2l-9.3 9.3h89l9.3-9.3z"/></defs><clipPath id="SVGID_21_"><use xlink:href="#SVGID_20_" overflow="visible"/></clipPath><linearGradient id="SVGID_22_" gradientUnits="userSpaceOnUse" x1=".991" y1="251.009" x2="1.991" y2="251.009" gradientTransform="matrix(115.6361 0 0 -115.6361 -76.512 29234.56)"><stop offset="0" stop-color="#10b0e6"/><stop offset=".087" stop-color="#10b0e6"/><stop offset=".322" stop-color="#0d9dd5"/><stop offset=".796" stop-color="#046ba9"/><stop offset="1" stop-color="#005494"/></linearGradient><path class="st14" d="M38.3 204.2h98.3v9.3H38.3z"/></g><path class="st15" d="M47.6 197.3h89v6.9h-89z"/><path class="st16" d="M47.6 197.3l-9.3 9.3v7l9.3-9.4z"/><g><path class="st17" d="M59.7 131.6h.1c0 .3.1.4.2.4h.8c0-.2.1-.3.3-.3.1.1.2.1.3.1l-.1.2h.1c.3-.2.6-.3.9-.3v.3c-.3 0-.4.1-.4.2v.1c.3 0 .8.1 1.5.4l1.2-.1c.1 0 .2-.1.3-.3.2.1.4.2.6.4l1.3-.3h.3c.7.2 1 .4 1 .5-.1 0-.2.1-.4.4v.1l.1.5.5-.1.7.2c.1.3.1.5.1.6-.1 0-.2.1-.2.2l.4.4-.3.8v.1h.1l.4-.3.1.2v.2l-.4.4c.1.1.1.2.1.4-.2 0-.3.3-.3.8.1.5.6.7 1.3.7.4.3.5.6.5.8-.3.2-.5.4-.5.6.5.2.8.4.9.4v.1c0 .1-.1.2-.4.2l.1.7v.2c0 .1-.1.2-.2.2l.1.2v.1c0 .2 0 .4-.2.6.3 0 .4.1.4.4h.2l.4-.4h.1c.1 0 .2.1.2.3-.1.4-.2.7-.3.7l.1.2v.2c0 .1 0 .2-.2.2l.2.7-.1.2.2 1 .2-.1h.2v.3c-.2 0-.3.1-.3.3 0 .1.2.3.6.7 0 .1-.4.3-1.2.6-.3.5-.5.8-.5.9l.1.2c0 .3-.1.4-.2.4.1.1.1.2.1.3-.1.3-.2.4-.3.4-.2-.2-.3-.4-.3-.5.1-.1.1-.2.1-.3-.1 0-.2-.1-.3-.3.1 0 .2-.1.2-.2s-.2-.2-.6-.1v-.4c.4-.3.5-.6.5-.9.5-.2.9-.5 1.1-.7v-.1c-.1 0-.3-.1-.4-.3-.4.4-.7.6-1.1.7 0 .2-.1.3-.3.3v.2l.2.3c-.2.3-.3.5-.4.5 0 .4.3.7.7 1v.2l-1.2.4-.3-.2c-1 .1-1.6.3-1.8.5h-.1c-.1 0-.1 0-.1-.1l-.2.1-.6-.1c0 .1-.1.2-.3.3h-.2c0-.1-.1-.3-.2-.7v-.1l.1-.2c-.1 0-.1 0-.1-.1.6-.6 1-.9.9-1l-.2-.1h-.2l-.3.2H65c-.1 0-.2-.1-.2-.2.1 0 .2-.1.2-.2-.1 0-.1 0-.1-.1l.2-.1-.1-.2v-.2l.1-.5c-.1 0-.1 0-.1-.1l.2-.1-.1-.2v-.2c0-.4.2-.7.7-.7v-.1l-.2-.1.4-.4v-.2l-.5.1-.1-.2c-.4.1-.7.2-.8.2l-.1-.5c0-.2.2-.5.6-.9 0 .1 0 .1.1.1 0-.2 0-.3.2-.5-.1 0-.3 0-.4-.1 0 .1-.1.2-.2.2h-.2c-.1 0-.2-.1-.2-.2v-.6c.1-.3.3-.4.5-.4l-.7-.7c0-.1 0-.3-.1-.4.1-.1.1-.2.1-.3v-.1H64c0 .2-.2.4-.5.6H62c-.3.1-.5.2-.5.3v.1l.2.3.5-.1h1l.3-.2c.3.3.4.5.4.8-.2 0-.4.2-.6.7l-.2.1H63c-.1 0-.2-.1-.3-.5h-.1c0 .3 0 .5-.2.5l.1.2c-.2.5-.3.8-.6.8h-.2l.1.5v.1h-.2c-.1 0-.2 0-.2-.2l.1-.5c-.4.4-.8.6-1.3.6v.2c.2 0 .3 0 .3.2l.4-.2c.2.1.4.2.6.2v.2c0 .1-.1.2-.3.3l.1.2c-.2.3-.3.6-.3.9.1.1.1.2.1.3l-.4.3c-.1 0-.2-.1-.2-.2v-.5l-.4-.1-.5.8c.1 0 .4.2.9.6l-.5 1.5c-.7.3-1.1.5-1.1.6v.1c.2 0 .3 0 .3.2 0 .1-.1.2-.4.2v.4c.2.1.3.6.5 1.3.1 0 .4-.2.9-.7h.1l.3.2h.1c.8 0 1.4-.3 2-.7.2.1.4.2.5.2 0-.1.1-.2.2-.2s.1 0 .1.1c.4-.2.7-.3.9-.3l.4.4.6-.4h.2v.4h.1c.4-.3.6-.6.5-.8-.1 0-.1 0-.1-.1h.1l.5.3.5-.1h1c0-.2 0-.3.2-.3l.4.5h.2c1-.2 1.6-.3 1.8-.5l.1.2-.1.2h.2c0-.1.1-.3.4-.6l-.1-.2v-.1c.1-.3.3-.4.5-.4l-.1-.2c.4-.8.8-1.2 1.2-1.2l.2.1-.1.2c0 .1.1.3.2.5-.1.1-.3.1-.5.1v.5l-.1.5.9.4h-.1c.2.4.2.6.2.8 0 .2-.1.5-.3.9l.1.6h-.1l.1.2v.2c0 .1 0 .3-.1.4.1.1.1.2.1.3-1 .5-1.5.7-1.5.7-.1-.1-.2-.1-.3-.1v.5l.5.1c.1 0 .5-.3 1.2-.9h.2c.3.1.5.2.5.4l-.3.5c.3 0 .5.1.5.3v.4c-.3.3-.4.5-.4.5l.3.4c-.1.1-.1.2-.1.4h.2c0-.3 0-.4.2-.4h.1c.3.2.5.4.6.4v.2c0 .1 0 .2-.2.2h-.2l-.4-.3h-.1v.2c.5.3.7.5.7.6-.1.1-.1.2-.1.3.1 0 .2.1.4.4v.1c0 .1-.2.3-.5.4 0-.1-.1-.2-.2-.2s-.2.1-.2.2v.1c.8.5 1.3.8 1.4 1v.1c-.5.4-.8.6-.9.6v.2h.4l.3-.2h.1v.2h-.2v.1l.4.4c-.1 0-.2.1-.2.2.2 0 .3.1.3.2l-.9.5c0 .1 0 .1-.1.1h-.2l-.6-.3-.1.2c.1 0 .2.1.3.3l-.4.4v.2c.2 0 .3.1.3.5h.2l-.1-.2c.5-.3.7-.5.7-.6.2-.1.5-.2.8-.2h.2c.2.1.3.2.3.5-.2.2-.5.3-1 .5v.2c0 .1.1.2.2.2.3-.2.4-.3.6-.3 0 .1 0 .1.1.1l-.1.2v.2c.2 0 .3.1.3.2-.1.1-.1.2-.1.3.1-.1.3-.1.5-.1l.1.2c-.1.3-.2.4-.3.4h-.3c-.2-.1-.3-.2-.4-.2-.1.1-.2.1-.3.1 0-.1 0-.1-.1-.1-.3.2-.5.5-.5.8.4.3.7.4.9.4 0-.2.3-.3.8-.3.1 0 .2.1.3.3v.1c0 .1-.1.2-.3.2v.3c.8.3 1.2.9 1.3 1.6l.2.3v.2h-.1c-.1 0-.2-.1-.2-.3h-.1v.2h-.2l-.1-.5c-.4 0-.6.2-.7.5.2.4.4.8.7 1.1-.1 0-.3.1-.8.2h-.1c-.1 0-.3-.2-.5-.5l.1-.5c-.1 0-.2-.1-.4-.2h-.3c-.1 0-.7.2-1.7.5v.4c.3.3.5.4.5.5-.2.4-.5.7-.9.7l.1-.2v-.3h-.2c0 .3 0 .5-.2.5H73c-.1 0-.3-.2-.4-.4.6-.2.9-.4.9-.4-.2-.4-.3-.6-.4-.5l-.6.6-.2-.1c0 .2-.2.3-.5.5-.2-.1-.2-.3-.3-.5h-.7c0-.2-.4-.6-1.1-1.3v-.1l.1-.2-.7-2.2c-.3-.3-.5-.4-.6-.5 0 .1 0 .1-.1.1-.1-.1-.1-.2-.1-.3 0-.2.3-.5.9-.7-.1-.2-.1-.3-.2-.3-.1.1-.2.1-.3.1l-.1-.2c0-.1.2-.3.7-.7v-.9c-.1-.3-.2-.4-.3-.4 0 .1-.1.2-.2.2-.1-.2-.2-.3-.2-.4l-.2.1H68v-.2c.5-.3.7-.4.7-.5v-.1l-.1-.2c.1-.1.1-.2.1-.4v-.1l-.3.2.6-.2c.1-.1.1-.2.1-.3l-.6.9-.1-.2v-.9l-.2-.3c0-.2.3-.3.8-.4v.2h.3c1.8-.4 2.8-.8 2.7-1.1v-.1h-.1c0 .1-.2.3-.5.4-.3 0-.4-.2-.4-.5-1.8.2-2.7.4-2.9.6H68c-.1 0-.3-.3-.4-.9.3-.4.4-.7.4-.8l-.2-.1c0 .1 0 .1-.1.1-.1-.1-.1-.2-.1-.3 0-.2.1-.3.3-.3v-.1h-.2v.1c-.1-.1-.2-.1-.4-.1v-.2c0-.1.1-.2.2-.2h.1c.3.2.5.3.7.3l.1-.2h-.3v-.1l.1-.2H68v-.2h.5v-.1c-.6 0-1-.1-1.1 0v-.3c0-.1.1-.2.4-.2l-.1-.2c0-.1 0-.1.1-.1 0-.1 0-.1-.1-.1l.1-.7v-.1c0-.1-.1-.2-.2-.2l-.3.4c.1 0 .1 0 .1.1l-.2.1H67c-.3-.2-.5-.4-.7-.3-.4.1-.6.1-.8.1v-.1c-.1 0-.3.2-.6.5h-.1c-.1 0-.1 0-.1-.1l-.4.2c-.5-.1-.8-.3-.8-.6.1 0 .1 0 .1-.1l-.2-.1c-.2.5-.4.9-.4 1.2l.4.2c-.1.4-.3.6-.5.7l-.7-.4v-.1l.2-.3c0-.1-.1-.2-.2-.2 0 .1-.1.2-.3.3-.6-.1-.9-.4-.9-.8s-.1-.6-.3-.7h-.2v.1c0 .1.1.3.3.5-.1.6-.2 1-.4 1h-.1c0-.3-.2-.4-.4-.4v-.3c.2-.3.3-.5.3-.7l-.6-.3c-.1 0-.3.2-.5.5-.3-.1-.4-.2-.4-.3-.2.1-.3.1-.4.1l-.6-.1c0 .1 0 .1-.1.1 0-.1-.1-.2-.2-.2-.1.3-.3.4-.6.4v.1l.2.3c0 .8-.6 1.6-1.9 2.3-.1-.1-.3-.1-.4-.1v.1c.1.1.1.2.1.3l.3-.2h.2c.1 0 .2.1.3.3-.3.5-.5.8-.8.8v.5h.2v.1c0 .1-.1.2-.3.3l-.2-.1c0 .2-.1.3-.4.3v.6c-.4.3-.6.6-.5.7.1 0 .1 0 .3.1-.1.1-.1.2-.1.3l-.2-.1c0 .7-.3 1.3-1.1 1.8l.1.2c0 .3-.6 1.3-1.9 3.1l-1-.1c0 .1-.1.2-.2.2H49c-.2-.1-.9-.4-2-1-.3 0-.8-.3-1.5-1-.4 0-.8-.2-1.2-.6l1.4-3.5c-.1-.1-.1-.2-.1-.3.2 0 .4-.4.6-1.3h.3l.5.4c0-1.1.3-1.6.9-1.6 0-.1 0-.2.1-.3l-.1-.6v-.2c.1-.3.7-.5 1.8-.8h.1v-.5h-.2c0 .3 0 .4-.2.4h-.2c-.1 0-.2-.1-.4-.4l.3-.2.2.1.1-.2-.2-.3v-.1c.3-.4.7-.8 1.2-1h.4v.2c-.3 0-.4.1-.4.2h.3l.7-.2v-.4h-.1c-.1.1-.2.1-.3.1 0-.2-.2-.2-.5-.3-.1.1-.2.1-.3.1l-.1-.2c.4-.7.8-1.2 1.1-1.4l-.1-.5c.1-.5.3-.8.3-.8.1 0 .2.3.4.8-.1.1-.1.2-.1.3.1.1.1.2.1.3.1 0 .2-.1.2-.3-.1-.1-.1-.2-.1-.3.1-.1.2-.1.4-.1v-.2l-.8-.8c.5-.2.7-.5.7-.9-.1-.1-.1-.2-.1-.3.1-.4.3-.7.4-.7 0 .1.1.2.3.3h.1c0-.2.1-.3.5-.3 0-.1-.1-.2-.3-.3v.2H53c-.1 0-.2-.1-.2-.2s.1-.2.3-.2v-.1h-.3v-.2c.6-.3.8-.9.8-1.7.1-.6.2-1 .4-1 .1 0 .1 0 .1.1l.2-.1.2.1c.1-.2.2-.4.1-.7h.2c.1 0 .2.1.2.3.1-.2.4-.3.9-.3.2.2.3.3.5.3.1-.1.2-.1.3-.1l-.1-.2.1-.6c-.3.1-.6.2-.8.4-.2-.1-.4-.2-.5-.2l-.6.1c-.1-.1-.1-.2-.1-.4l-.3.2h-.1v-.5c.1 0 .3-.4.5-1.2h.2c.1.4.2.7.4 1l.5-.2c-.1-.2-.2-.4-.2-.5v-.9l-.1-.5c.1 0 .2-.1.2-.2-.1 0-.2-.1-.2-.2v-.1l.1-.5h.2c-.1.1-.1.2-.1.3v.1h.1l.1-.5s0-.2-.1-.6c.1 0 .3-.1.6-.4l.2.3c.3-.1.5-.3.5-.4-.4 0-.6-.1-.8-.4.1-.2.2-.3.2-.4h.3v.2h.4v-.3l-.3-.4c.2-.2.5-.3.9-.3h.2c0-.1.2-.3.7-.6 0-.1.1-.2.2-.2s.2.1.2.2v.3l.3.2h.1c.1 0 .2-.1.4-.4v-.2l-.5-.1v-.2c0-.1.1-.2.4-.2l-.4-.4c0-.1 0-.1.1-.1l-.1-.2.1-.6-.2-.3v-.2l.1-.2c-.1 0-.2 0-.2-.2.1-.3.2-.4.3-.4l-.1-.5v-.3l.2-.5zm-13.3 31.6h.2v-.2c-.2 0-.3.1-.2.2zm.2-.6c.1.4.2.6.3.5h.1c1.1-.3 1.6-.5 1.6-.6-1 .1-1.6.1-2 .1zm0 .9v.6c.7-.1 1.2 0 1.3.1h.1v-.1c-.9-.2-1.4-.4-1.4-.5zm.8-2v.4h.1l-.1-.4zm.3-1.7v.2c.1 0 .2 0 .2.1.2-.1.5-.2.8-.2.3.3.5.4.8.4 0-.1.1-.3.3-.5l-.1-.2c.1-.3.2-.5.2-.6h-.6c-.5.4-1 .7-1.6.8zm.3 1.8v.1h.2v-.1H48zm2-1.6l-.1.2v.1l1.2-.1v-.2c0-.1-.4-.1-1.1 0zm.7-6.1c0 .4-.2.8-.6 1.2v.2h.1c.1-.1.2-.1.3-.1l.1.2.2-.1.3.2c.1-.2.2-.4.3-.7-.4-.6-.6-.9-.7-.9zm-.5 3.2v.2c.1.3.4.5.7.5 0-.1.1-.2.2-.2v.2l1.4-.1c.1 0 .2-.1.2-.2v-.1c-1.3-.1-2-.1-2-.2v-.2l-.5.1zm1.2-3.9v.2h.1c.5-.2.8-.3.9-.3v-.4c-.1 0-.2 0-.2-.1-.5.3-.7.5-.8.6zm.3 1.3v.2c.1 0 .2 0 .3.1 1-.2 1.5-.4 1.5-.5v-.1l-1.1.1-.7.2zm1-4.8v.2h.1c.1 0 .2-.1.2-.2h-.3zm.1 1.3c.1.4.2.6.3.5h.1c1.1-.3 1.6-.5 1.6-.6-1 .1-1.6.1-2 .1zm0 .9v.6c.7-.1 1.2-.1 1.3.1h.1v-.1c-.8-.2-1.2-.4-1.4-.6zm.1-4.5v.2h.1v-.2h-.1zm1.3 6.6l-.5-.1c0 .1 0 .3-.1.4.1.2.2.4.2.5l.7-.1h.3c.1 0 .1 0 .1.1.5-.1.7-.3.7-.4 0-.3-.1-.6-.3-.8-.4.2-.8.4-1.1.4zm-.5-8.7h.4v-.2h-.2c-.1.1-.2.1-.2.2zm.1.6v.1c0 .1.1.2.2.2s.2-.1.2-.2v-.2c-.1 0-.2.1-.4.1zm.1 10.4v.2c.1 0 .2-.1.2-.2h-.2zm.1-7c.1 0 .5 0 1.3.1h.1s-.3-.2-.8-.5h-.2c-.1 0-.2.1-.4.4zm1.3-3c0 .3-.4.7-1.3 1.3v.1l.1.2c.1-.1.2-.1.3-.1l.2.1c.3 0 .5-.2.5-.6h.2c.2 0 .2.1.2.2-.1 0-.1 0-.1.1.8 0 1.3.1 1.4.1v-.1c-.6-.1-1.1-.5-1.4-1.2l-.1-.1zm2 2.7l-.4-.2c-.3.2-.5.3-.5.4 0 .4-.2.7-.7 1 .1.1.2.1.3.1v.2l-.7.1c0-.1-.1-.2-.2-.2s-.2.1-.2.3c.1.2.1.3.2.3.1-.1.2-.1.3-.1 0 .1-.1.2-.3.2v.4c.1 0 .4-.2 1-.6l-.1-.2v-.2c.4.6.7.8.9.8v-.1c0-.2 0-.4.2-.6 0-.1-.3-.3-.8-.4v-.3c.5-.4.8-.6.8-.7l.2-.2.2.1c.1 0 .2.1.2.2l-.1.2c.3.1.5.2.6.2.1-.2.3-.5.4-1h-.1c-.1.1-.2.1-.3.1-.2-.2-.3-.4-.3-.5h-.1c-.1 0-.2.2-.5.7zm-2.2 6.1c0 .1 0 .3-.1.4.1.3.3.4.4.5 0-.1 0-.3.1-.8l-.2-.1h-.2zm0-13.2h.2v.3c-.1 0-.2-.1-.2-.2v-.1zm.5 10.2l-.1.2.7.2v-.1c-.1-.2-.3-.3-.6-.3zm.3-6v.1h.8l1 .7h.2c0-.2.1-.3.3-.3l-.2-.3c.1-.1.1-.2.1-.3-.7-.1-1.1-.1-1.1-.2.1 0 .2-.1.3-.3v-.1c0-.1-.1-.2-.3-.3h-.3l-.8 1zm.2-6.4v.2c0 .1.1.2.3.3v-.1l-.1-.6c-.1 0-.2.1-.2.2zm.3 3.1c0 .1.1.2.3.3.1 0 .2-.1.2-.2-.1 0-.2-.1-.2-.3h-.1c-.2.1-.2.1-.2.2zm.2-.8l.1.2c-.1.1-.1.2-.1.3h.3c0-.2 0-.3.2-.5l-.2-.1h-.1l-.2.1zm.1-2c.3.5.7.8 1.3.8.1-.6.2-1 .2-1.2-.1 0-.2 0-.2-.2-.4.2-.8.4-1.3.6zm.6 16.5c.1 0 .2.1.2.2v.1c0 .1-.2.2-.5.3l-.1-.2c0-.1.1-.2.4-.4zm3-14.1c0 .1-.1.2-.4.3h-1.6l-.5.3.1.2v.1l-.2.3.1.5 1.3-.1v-.5c0-.2.3-.3.8-.3h.1v.4c.2-.2.4-.3.5-.3 0-.1-.1-.2-.2-.2l.2-.6-.2-.1zm-2.6 5.3h.3l.9-.6h-.2c-.1.1-.2.1-.3.1-.1-.1-.1-.2-.1-.4h-.1c-.2 0-.3.3-.5.9zm.2-5.7l.2.1v-.3c-.1 0-.2.1-.2.2zm2-4.5c0 .1 0 .2-.2.2l-.2-.1c-.3.1-.6.2-.8.5h-.2l-.3-.2c0 .3-.1.5-.3.5l.1.5v.4h.4c0-.6.1-.9.1-1.1.3.1.5.3.5.5l-.2-.1v.1l.4.4c-.1 0-.4.3-.7.9h-.1v.1h.2l.7-.2c0 .1.1.2.2.2h.1c-.2-.2-.2-.4-.2-.5.1 0 .2-.2.3-.7l-.4-.4.8-.5c.1 0 .2.1.2.2-.1 0-.1 0-.1.1.1 0 .2.1.2.2.4-.2.6-.3.7-.3v-.3c0-.1-.1-.2-.3-.3l-.3.2h-.1l-.5-.3zm-1.5-3.1c.2.5.3.8.4 1v.1h-.1l-.4-.3c0 .4 0 .7-.1.7s-.2-.1-.2-.2 0-.1.1-.1l-.1-.2c.2-.3.3-.4.3-.6-.1-.1-.1-.2-.1-.3l.2-.1zm-.3 16v.3c.1 0 .2-.1.2-.2v-.1h-.2zm.4-9.7c0 .2.1.3.2.3l.1-.2-.2-.1h-.1zm.5 8v.1l.5-.1c0-.1-.1-.2-.2-.2h-.1c-.2.1-.2.1-.2.2zm.1-1.7c.1 0 .2 0 .3.1l.1-.2v-.3c-.1 0-.3.2-.4.4zm.1-1.8v.5c.5.1.8.3.8.5h.1c.1 0 .2-.1.2-.2v-.6l-.5.1h-.1v-.5l-.5.2zm1.2-12.5l-.1.4h-.1l-.2-.1v.2c.1.1.1.2.1.3h.2c.1 0 .2-.1.2-.2l-.1-.6zm-.2-1.3h.2v.2h-.2v-.2zm.1 7.9c0 .1.1.2.4.3v-.3h-.4zm.1-4.8v.2h.1v-.2h-.1zm.2.2v.2h.2v-.2h-.2zm.2-3.4h.2c0 .1 0 .2-.2.2h-.1v-.2zm.2 11.4c.1.1.2.3.2.5h.1c.1 0 .2-.2.5-.5-.1-.4-.1-.7-.2-.7-.3.1-.5.3-.6.7zm1.3 12v.3c.1 0 .2-.1.3-.3h-.3zm1-16.3c0 .1-.2.3-.6.6 0 .1.1.2.2.2.2 0 .3-.2.6-.6 0-.2 0-.2-.2-.2zm-.2 15.9h.2v-.2c-.2.1-.2.1-.2.2zm1.2-2.8l-.5.7v.1h.1c.2-.1.5-.3.8-.6l-.4-.2zm.8-5.5c.2 0 .3.1.3.2-.1.2-.2.3-.2.5H65c-.1 0-.2-.1-.2-.2.1-.4.2-.5.3-.5zm.5-6.7h-.5v.9h.5c0-.3.2-.5.6-.6v-.1c-.2 0-.3-.1-.3-.4l-.3.2zm-.1 16.3c.2 0 .3.2.3.5l-.3.2h-.1l-.3-.2c.2-.3.3-.5.4-.5zm-.1-22.4c0 .2.2.3.5.4 0-.1 0-.1.1-.1-.1-.1-.1-.2-.1-.3h-.5zm.9 3.7h.2l.9-.3v-.1c-.8.1-1.1.2-1.1.4zm0-3.6v.2h.1v-.2h-.1zm.8 8l.1.2c.3-.1.5-.2.5-.3l-.2-.1c-.2.1-.3.2-.4.2zm.2 2.3l.1.1.5-.1v-.3c-.4.1-.6.2-.6.3zm.3.2l.2.1v-.1h-.2zm.4-2.6c0 .3-.1.5-.3.7.1 0 .2 0 .2.1.5 0 .9-.3 1.2-.7H69l-.3.2h-.1l-.4-.3H68zm0-.7l.2.1h.1c.1 0 .3-.3.7-1l-.1-.2c-.6.3-.9.6-.9 1.1zm.5 2.6v.4h-.1v.1c.1 0 .4 0 .8.1.5-.1.7-.4.7-.7h-.2l-.3.2h-.2v-.2l-.7.1zm.3 6.3c.1 0 .2.1.2.2l-.2.1c-.1 0-.2 0-.2-.2l.2-.1zm.8-10c0-.1 0-.1-.1-.1v.2l.1.2.2-.1h.2v.3h.2v-.7c-.2.1-.4.2-.6.2zm0 6.7c0 .1.1.2.3.3h.2v-.1c0-.1-.1-.2-.2-.2h-.3zm.5 4.8c.1.1.2.2.2.5h.7c0-.3.1-.4.3-.4v-.1l-.5.1h-.1c-.1 0-.2-.1-.2-.2-.1 0-.3.1-.4.1zm.3 14.7l.2.1v-.1h-.2zm.9-8.5l-.5-.1-.3.6v.1h.3l.6-.3c0 .3.3.4.7.4v.2h.2c0-.4.2-.6.5-.7l.4.1.5-.3c.1.1.2.1.4.1l.1-.2v-.3H74l-.3.2c-.2 0-.4-.1-.6-.2 0 .1 0 .2-.1.3l-.2-.1-.3.2h-.3v-.1l.2-.3c-.4 0-.6 0-.6-.1 0 .1-.2.2-.5.5zm-.7-13.4c0 .2-.1.3-.2.5 0 .1.2.2.7.3 0-.1.1-.2.4-.2 0-.2-.1-.4-.2-.5-.1 0-.1 0-.1.1l-.6-.2zm.1 9.2l.2.1h.1c.2-.1.3-.2.4-.2v-.4h-.1c-.3.1-.5.2-.6.5zm.6-11.4c.1 0 .2.1.3.4l-.2.1h-.3c0-.1 0-.2-.1-.3l.3-.2zm.3 17.2h.2v-.2c-.2 0-.3.1-.2.2zm.4-8.2c-.3 0-.5.2-.5.6h.1l.5-.1c.2.4.3.7.4.7h.1c0-.1.1-.4.4-.8v-.1c-.2-.3-.3-.4-.4-.4l-.6.1zm-.4 5.1v.1c0 .1.1.2.2.2h.3c0-.1 0-.2.2-.4-.1 0-.1 0-.1-.1-.2.1-.4.2-.6.2zm.4 1.4v.3c-.1 0-.2-.1-.2-.2l.2-.1zm.9 2.6c0 .2-.2.3-.6.4v.2c.5 0 .9.1 1 .1l.5-.3.2.1c.1 0 .1 0 .1-.1l.5.1h.4v-.2c0-.2-.1-.2-.4-.3-.1.1-.2.1-.3.1 0-.1-.1-.2-.2-.2 0 .1-.1.2-.3.3h-.1c-.2 0-.4-.1-.8-.2zm-.5 4h.2v-.2c-.2 0-.2.1-.2.2zm.2 5.4v.2h.2v-.2h-.2zm.5-10.1c0 .2-.1.3-.3.3 0 .1.1.2.3.3h.1c.1 0 .2-.1.2-.2v-.1l-.3-.3zm-.1 4c0 .2 0 .4-.2.7l.4.2c0-.2 0-.3.1-.3-.1-.4-.2-.6-.3-.6zm.2-.9v.2c0 .1.1.2.2.2.2-.2.4-.3.5-.3-.1-.3-.2-.5-.2-.5-.3.1-.5.2-.5.4zm.1 1.9v.3h.2v-.1c0-.2-.1-.2-.2-.2zm.1-14.6h.1v.2h-.1v-.2zm1.2 15.8v.1h.2v-.1h-.2zm1.8-.4h.1v.2h-.1v-.2zm2.3 3.8c.4.2.6.3.6.4v.2c0 .1-.1.2-.3.2l-.7-.1v-.2c.1-.4.3-.5.4-.5zM92.8 135c.5.5.9 1 1.1 1.5-.1.4-.1.7-.3.8l.1.2c-.1.2-.2.3-.2.4.1 0 .1 0 .1.1l-.6.3c-.1-.1-.2-.1-.3-.1l-.8.5.3.3.4-.1h.4c.1 0 .2.1.2.2-.1 0-.1 0-.1.1.1 0 .1 0 .3.1l.5-.1c.1 0 .2.1.2.2v.1c0 .1-.1.2-.2.2l-.5-.1.1.2v.1c-.2 0-.4.1-.7.4 0 .2.2.4.5.5h.2l.2-.1.1.2c-.1 0-.1 0-.1.1.1 0 .2.1.2.2v.2c-.2.4-.7.6-1.4.6v.1c.4 0 .7.2 1 .6l.4-.1.2.3c-.1.3-.2.4-.3.4v.2c.1.4.1.6.3.6-.1.3-.2.4-.3.4l-.2-.1c-.1.1-.2.1-.3.1 0-.1 0-.1-.1-.1 0 .1-.2.3-.7.4.8.6 1.2.8 1.3.8v.2c-.4 0-.7.3-.7.8.1 0 .1 0 .1.1l-.3.2c.1.2.2.4.5.7v.3l-.1.2.6-.1h.2v.1c-.1.1-.1.2-.1.3h.1c.2-.4.5-.6.8-.6.4.4.6.7.6.8.1 0 .4-.2.8-.5h.4v-.2c.4.1.6.2.8.2l.6-.5h.3l.3.4c.1 0 .3-.2.6-.6.3.1.4.3.4.6.2-.2.5-.3.8-.5.2.2.3.4.3.5-.1 0-.2.1-.2.2.1.1.1.2.1.3h-.1c-.1 0-.1 0-.1-.1-.3.1-.5.2-.8.4l-.3-.2-.3.2H99v.2h.2l.4-.1c0 .1.1.2.3.3h.2c0-.2.3-.4 1-.6.1-.2.2-.3.3-.3l.2.1c0-.1.1-.2.3-.3h.1c.1 0 .1 0 .1.1.1-.1.2-.1.3-.1l-.1-.4v-.2h.1c.1 0 .1 0 .1.1l.8-.2.4.3-.3.5c.1.1.1.2.1.3l-.2.3.2.1c.1 0 .2-.1.2-.2-.1 0-.1 0-.1-.1.4-.2.7-.4 1.1-.4.2-.2.5-.4.7-.7.4-.1.7-.2.8-.2l.1.2-.1.4c.3-.1.5-.4.5-.7 0-.1.1-.2.3-.3.1 0 .2.1.2.3.1 0 .2-.1.2-.2-.1 0-.1 0-.1-.1.1-.1.4-.1.9-.2.1.1.2.1.3.1v.1c-.2.4-.3.7-.3.7h-.1l-.4-.1.1.2v.1c-.2.3-.3.4-.3.5l.2.1h.1c0-.2.1-.3.2-.3s.2.1.3.3v.4h.3l.3-.2.4.1c0-.1 0-.1.1-.1.2.2.3.3.3.4l-.1.2c.1.1.1.2.1.3 0 .1-.1.2-.2.2s-.2-.1-.2-.3l-.3.3-.4-.1c-.2 0-.4.2-.4.7l.3.3v.3h.3v.5c0 .1-.1.2-.2.2.1.3.1.4.2.4.4-.2.6-.3.7-.3l.4.6v.1c-.3.5-.4.7-.5.7h-.1c-.1-.1-.3-.2-.3-.2-.2 0-.4.3-.6 1-.3.2-.7.4-1 .4-.1.3-.2.5-.3.5h-.3l-.3-.2-.3.9h-.3c-.1 0-.2-.1-.3-.3.1-.3.2-.4.3-.4l-.1-.6v-.1c.8-.6 1.2-.9 1.2-1-.1-.1-.1-.2-.1-.3h-.2c0 .2-.3.5-.9.8 0 .1-.1.2-.2.2 0-.1 0-.1-.1-.1l.1-.2v-.1l-.3-.4v-.1l.3-.3c-.1 0-.2-.1-.3-.2 0 .4-.1.6-.3.7h-.1l-.4-.1c0 .2-.3.4-.8.5 0 .6.3.9.8.9v.1c0 .1-.1.2-.4.3l-.3-.3-.3.3-.2-.1-.2.1c-.1 0-.1 0-.3-.1-.4.1-.7.2-.8.2-.1-.1-.2-.1-.3-.1 0 .2-.1.3-.2.3l-.1-.2v-.1c.3-.1.5-.5.7-1.2v-.1H101c-.2.2-.6.5-1.2.8 0 .1 0 .2-.1.3.1.1.1.2.1.3l-.2.1c-.1-.1-.2-.1-.3-.1l-.2.3c.1 0 .2.1.3.3v.1l-.7-.3h-.1c-.1 0-.2 0-.3.1-.3-.2-.6-.3-.8-.3l.1.2c-.1.3-.2.4-.4.4l-.2-.1c-.1.1-.2.1-.3.1 0-.1-.1-.2-.3-.3h-.2c0 .2-.1.3-.3.4l-.2-.3c0-.4.4-.7 1.1-.8 0-.1.1-.2.2-.2l.2.1-.1.2v.2h.4c0-.2.1-.5.2-.7-.2-.1-.3-.2-.3-.3l.1-.2h-.2l-.3.4-.3-.2h-.3c-.4.4-.9.8-1.4 1.2-.1 0-.2-.1-.3-.3v-.1c0-.1.1-.2.2-.2-.2-.4-.3-.7-.3-.8-.1.1-.3.6-.6 1.5h-.2l-.2-.1c0 .1-.1.2-.2.3.1.1.1.2.1.3-.1 0-.3.1-.6.3 0-.1-.1-.2-.2-.2s-.2.2-.4.5l.2.1c.1 0 .3-.1.6-.3l.8.8v.3h-.3v.1l.2.3v.1c-.1 0-.1 0-.1-.1-.4 0-.6.3-.8.8.5.1.7.3.8.5 0 .1-.1.2-.2.2l.1.2v.2c0 .1-.1.2-.2.2-.2-.3-.4-.4-.6-.4h-.2l.2.3-.1.5c0 .2.2.3.5.4 0-.1.1-.2.3-.3.2.1.3.2.3.5-.2.3-.4.4-.6.4 0-.1-.1-.2-.2-.2 0 .3-.1.6-.2.7l.2.3v.3c-.1.3-.3.4-.3.4l-.6-.1v.1l.3.4c-.1 0-.2.1-.3.3.1.1.2.1.5.1 0-.1.1-.2.2-.2h.1c.1 0 .2.1.2.2-.1.2-.2.3-.5.3 0 .1.1.2.4.2v.3c0 .1-.1.2-.2.2-.2-.2-.3-.3-.3-.4h-.1c0 .3-.3.4-.8.4v.1c0 .1.1.2.2.2.1-.1.2-.1.3-.1 0 .2.1.3.3.3v.1c0 .1-.1.2-.3.3l-.3-.2h-.1l.1.2c-.4.4-.7.6-1.1.6l-.1-.2v-.1c0-.1.1-.2.3-.3h.4c0-.1.1-.2.2-.3-.1 0-.2-.2-.2-.6-.1 0-.2.1-.2.2l-.8-.2-.2.3c.1 0 .2.1.2.2l-.2.1c0-.2-.2-.3-.7-.5l-.2.1h-.1c-.1 0-.2-.1-.2-.2s.2-.3.6-.6c0 .1 0 .1.1.1l.4-.5v-.5c-.3 0-.4-.1-.4-.2l-.2.1-.2-.1-.4.1c-.2-.4-.3-.9-.3-1.4v-.3c-.2 0-.3-.1-.3-.2v-.3l.5-.5-.3-.7v-.2c.4-.4.6-.6.8-.6v-.3c-.3 0-.5-.1-.5-.2v-.2c0-.1 0-.1.1-.1-.1-.2-.2-.4-.2-.5l.3-.2-.1-.2v-.1h.4l-.3-.4v-.1l.3-.6-.2-.1-.3.2.1.2v.1h-.3c-.1 0-.2-.3-.3-.9-.1 0-.1 0-.1-.1.1 0 .1 0 .1-.1h-.1l-.4.3c-.2-.1-.4-.2-.6-.2v.1H87l-.2-.1.1-.2v-.1h-.2c-.3.2-.4.3-.4.4h-.2c0-.4.4-.8 1.1-1.2l.3.2c.1 0 .2-.2.3-.6-.1 0-.1 0-.1-.1l-.2.1c-.3-.2-.4-.3-.4-.5h-.2c-.1 0-.3.3-.4.8-.2.2-.4.3-.7.3l.1.2c-.1.2-.2.4-.4.5h-.3l-.4-.1c0 .1-.1.2-.2.2l-.2-.3c0-.1.1-.2.4-.3 0-.1-.1-.3-.3-.6.1-.1.1-.2.1-.3l.4.4h-.1c-.1.6-.1.8-.3.8 0 .1 0 .1.1.1l-.1.4c0 .2.1.3.4.3v.3c-.1 0-.2.1-.3.2-.6-.3-.8-.6-.8-1.1-.1.1-.2.1-.3.1l.1.2v.3l-.2.3v.1c.2 0 .3.1.3.2v.1h-.3v-.2h-.2c0 .1 0 .1-.1.3.1.1.1.2.1.3l-.2.1c-.5-.1-.8-.1-1-.3.1-.4.2-.6.3-.6h.1l.4.1c0-.1.1-.3.3-.6-.2-.4-.4-.6-.6-.8 0 .2-.3.5-.8.7-.3 0-.5-.1-.6-.3v-.1c0-.1.1-.3.2-.7v-.3c-.5 0-.9-.4-.9-1.1-.3-.9-.4-1.3-.4-1.3.3-.4.6-.8 1-1.1 0-.2.4-.6 1.3-1h.1v.5c.1 0 .4-.1.9-.2l.3.2h.1c0-.3.1-.4.3-.4h.3c0-.1.1-.2.2-.2l.3.2h.1c0-.3.4-.6 1.3-.8v.2H86v.2c.3 0 .6-.1.9-.4l.2.3-.3.3c.1 0 .4.2.8.5l.1-.2c-.2 0-.3-.1-.3-.3v-.2l.8-.8c.1 0 .2.2.4.5h.1l-.1-.4c0-.1.1-.2.2-.2h.2c.3.2.4.3.4.5h.1c.1 0 .2-.1.2-.2l-.1-.5h-.1v.2h-.2v-.1c0-.2.3-.4.8-.7v-.4c0-.1-.1-.2-.3-.3l-.3.2-.3-.5v-.1l.4-.8-.1-.6v-.2c0-.1.2-.3.6-.5 0-.1.1-.2.3-.2v-.2l-.4.1h-.3c-.1 0-.2-.1-.2-.2v-.6l.4-.8c-.1-.2-.2-.4-.2-.5l.2-.1c-.1-.2-.2-.4-.2-.5l.4-.3-.1-.2c0-.1.1-.2.3-.2l-.8-.5c0-.6.1-.8.2-.8l-.1-.2v-.3c0-.1.1-.4.3-1-.1 0-.2-.1-.2-.2v-.2c.4-.7.9-1.1 1.5-1.1l-.1-.4c.9-.5 1.4-.8 1.7-.8zm-10.2 19.1c0 .1.1.2.2.2h.1l.1-.4h-.1c-.2 0-.3 0-.3.2zm.9.7v.2h.1l-.1-.2zm.2-1h.2v-.2c-.1 0-.2.1-.2.2zm.3 9.4l.1.2h-.3c0-.1.1-.2.2-.2zm1.6-10.8l.3.4c-.2.1-.3.2-.3.3.1.1.1.2.1.3-.1 0-.2.1-.2.2l-.2-.1H85l.1.4h.3c0-.1.2-.2.7-.3.1-.2.2-.3.2-.4-.1 0-.2-.1-.2-.2l.1-.3-.2-.4c-.3 0-.4.1-.4.1zm1.6-.7h.2v-.2c-.2 0-.2.1-.2.2zm.9 2.8l.1.3c-.1.1-.1.2-.1.3h.3v-.1l-.1-.4h-.2zm1 1.3c0 .1.1.2.2.2 0-.1 0-.1.1-.1 0 .1.1.2.2.2h.1l.5-.4c.1.1.2.1.3.1l.2-.3v-.3h-.1c-.6 0-1.1.2-1.5.6zm.1 7.5h.2v.1l-.2-.1zm.2-1.9v.3c.2 0 .4.1.6.3h.1c0-.1 0-.2.1-.2 0-.1-.2-.2-.5-.4v-.1h-.1c-.2 0-.2 0-.2.1zm.1-4.6v.3c.2-.2.4-.3.5-.3v-.1c-.1.1-.3.1-.5.1zm.5 8.9c.1.1.1.2.1.3l.2-.1h.3v.1c0 .1-.1.2-.3.3h-.1l-.2-.1c0 .1 0 .1-.1.1l-.2-.3v-.1c.1-.2.2-.2.3-.2zm-.1-.6l.1.2h-.1v-.2zm.1-23.4l.2.1v-.1H90zm.6 24.4c.1.2.2.3.4.5v.4c0 .1-.1.2-.2.2h-.2c-.1 0-.3-.3-.5-.8l.5-.3zm-.2-9.2l.3.3h.1v-.1c-.1-.2-.2-.3-.2-.4h-.1c-.1 0-.1.1-.1.2zm0 6.1l.3.1v-.1h-.3zm.3 0c0 .1-.1.2-.2.2.1.1.1.2.1.3h.1c.1 0 .2-.1.2-.2v-.1c0-.1-.1-.2-.2-.2zm1-1.2c.4-.2.5-.3.5-.3v-.1h-.1c-.1 0-.2.1-.4.4zm.4-15.5c0 .1 0 .1-.1.3l.2.1.1-.2c-.1-.2-.1-.2-.2-.2zm0-4.7v.2h.2c-.1-.2-.1-.2-.2-.2zm.1 20.6l.1.3c.2-.1.3-.2.3-.3h-.4zm.5-14.6v.2c.1.1.2.3.2.7.2 0 .3-.1.3-.2l-.1-.4c.1 0 .1 0 .1-.1-.1-.1-.3-.2-.5-.2zm.9-2.4h.3v.1c0 .1-.1.2-.2.2h-.2v-.3zm.2 3.3c.2.3.3.5.3.7h.3c0-.3.1-.4.2-.4 0 .1.1.2.2.2h.1l-.3-.4-.2.1-.6-.2zm.6 4.5c0 .1-.1.2-.2.3l.1.4h.1c0-.3.1-.5.3-.7h-.3zm2.1-.3c-.7.6-1 .8-1.1.8v.4h.1c.1-.1.2-.1.3-.1 0 .1.1.2.2.2 0-.2.1-.3.2-.3h.1l.4.1c0-.1.1-.2.2-.2-.1-.1-.1-.2-.1-.3l.1-.2c-.1-.1-.1-.2-.1-.3.1 0 .1 0 .1-.1-.3.1-.3 0-.4 0zm-.2-2.5l.3.3c-.1 0-.2.1-.2.2h.1c.1 0 .4-.1.8-.3 0 .1.1.2.3.3h.1c.1-.1.3-.2.4-.2v-.3c-.1 0-.3-.1-.4-.2h-.2l-.3.2h-.4c-.1 0-.2-.1-.2-.2-.2.2-.3.2-.3.2zm1.1-1.7c.1.1.1.2.1.3.3 0 .4-.1.4-.3h.3l.6.4h.2v-.2c-.3 0-.4-.1-.4-.2.1-.1.1-.2.1-.3-.2-.1-.3-.1-.3-.2-.1.1-.2.1-.3.1l-.3-.1c-.2.1-.3.2-.4.5zm.1 3.5c0 .2.1.3.2.3l-.3.5c.1.3.2.4.3.4h.1c0-.1.1-.3.2-.6l-.1-.2c0-.2.3-.5.8-.8 0-.1-.1-.2-.3-.3h-.3c-.2.4-.4.6-.5.6l-.1.1zm0 1.3v.3h.3c.1-.2 0-.2-.3-.3zm1.5.4c-.2.4-.4.6-.6.6v.1c0 .1.1.2.4.3.2-.1.4-.3.4-.5 0-.3-.1-.5-.2-.5zm1.4.8h.2v.3c0 .1-.1.2-.3.3-.1 0-.2-.1-.3-.3 0-.1.1-.2.4-.3zm-.3-1.6v.2c.1 0 .3.1.4.2h.1c.1 0 .2-.1.3-.3l-.3-.2c-.3.1-.5.1-.5.1zm.7-3.4c.1 0 .1 0 .3.1.2-.1.6-.2 1.1-.3v-.2c-.2 0-.3 0-.3-.1l-.2.1-.2-.1c-.3.1-.5.2-.7.5zm0 4.5l.1.2h-.1v-.2zm.2-3.1v.3h.1c0-.1 0-.1.1-.3h-.2zm1.2 3.2v.2h.1l-.1-.2zm.2 6.5h.2v.1l-.2-.1zm.2-13.2v.2c.1 0 .2-.1.2-.2h-.2zm1.8-.3h.3v.2c0 .1-.2.2-.7.3h-.1c-.1 0-.2-.1-.2-.2s.1-.2.2-.2c.1.1.2.1.3.1-.1 0 0-.1.2-.2zm-.2 7.3c.1.1.1.4.2.8-.1.2-.2.3-.3.3l-.3-.4v-.4c0-.2.1-.3.4-.3zm.5-2.1c.2 0 .5-.1.8-.3h.3c.1 0 .2.1.2.2l-.2.3v.1c.4 0 .6.1.6.3l-.1.2.3.2-.1.2v.1c.2 0 .3 0 .4.1l.1-.2-.3-.3c0-.1 0-.1.1-.1-.1-.2-.2-.4-.2-.7v-.4c-.3 0-.5-.1-.7-.4h.1c-.8.2-1.2.4-1.3.7zm.3-5.3h.2v.1l-.2-.1zm0 .9v.3h.2c.1 0 .2-.1.3-.3l-.2-.1c-.1.1-.2.1-.3.1zm.6 1v.4c0 .1.1.2.2.2.1-.2.3-.3.4-.3v-.2c-.1 0-.3-.1-.6-.1zm1.4-.5l-.3.6h.2l.3-.2c.1.2.2.3.3.3.2-.2.4-.3.5-.3v-.1c-.1 0-.1 0-.3-.1-.1.1-.2.1-.3.1 0-.1-.2-.3-.4-.3zm2.1-1.2l-.1.2.1.5c-.1.1-.2.1-.3.1l-.2-.1c-.1.1-.2.1-.3.1l-.4-.6v-.1h.1l.3.2c.2-.2.5-.3.8-.3zm-1.2 5.1v.2c.1 0 .2-.1.3-.3v-.1h-.1c-.1.1-.2.1-.2.2zm1.5-2.9c.2 0 .3.1.3.2v.1c0 .1 0 .1-.1.1l.1.2c-.1.1-.1.2-.1.3.1 0 .2.1.2.2v.3c0 .1-.1.2-.2.2h-.3l-.3-.4v.1c.1.3.1.5.1.7l-.3.3h-.1l-.2-.1.1-.2v-.4c-.1 0-.1 0-.3-.1.1-.3.1-.5.2-.5-.1-.2-.2-.3-.2-.4l.2-.1c.1.1.3.2.5.2.1-.5.3-.7.4-.7zm-.3-2.1h.2v.1l-.2-.1zM124.7 135c.5.5.9 1 1.1 1.5-.1.4-.1.7-.3.8l.1.2c-.1.2-.2.3-.2.4.1 0 .1 0 .1.1l-.6.3c-.1-.1-.2-.1-.3-.1l-.8.5.3.3.4-.1h.4c.1 0 .2.1.2.2-.1 0-.1 0-.1.1.1 0 .1 0 .3.1l.5-.1c.1 0 .2.1.2.2v.1c0 .1-.1.2-.2.2l-.5-.1.1.2v.1c-.2 0-.4.1-.7.4 0 .2.2.4.5.5h.2l.2-.1.1.2c-.1 0-.1 0-.1.1.1 0 .2.1.2.2v.2c-.2.4-.7.6-1.4.6v.1c.4 0 .7.2 1 .6l.4-.1.2.3c-.1.3-.2.4-.3.4v.2c.1.4.1.6.3.6-.1.3-.2.4-.3.4l-.2-.1c-.1.1-.2.1-.3.1 0-.1 0-.1-.1-.1 0 .1-.2.3-.7.4.8.6 1.2.8 1.3.8v.2c-.4 0-.7.3-.7.8.1 0 .1 0 .1.1l-.3.2c.1.2.2.4.5.7v.3l-.1.2.6-.1h.2v.1c-.1.1-.1.2-.1.3h.1c.2-.4.5-.6.8-.6.4.4.6.7.6.8.1 0 .4-.2.8-.5h.4v-.2c.4.1.6.2.8.2l.6-.5h.3l.3.4c.1 0 .3-.2.6-.6.3.1.4.3.4.6.2-.2.5-.3.8-.5.2.2.3.4.3.5-.1 0-.2.1-.2.2.1.1.1.2.1.3h-.1c-.1 0-.1 0-.1-.1-.3.1-.5.2-.8.4l-.3-.2-.3.2h-.4v.2h.2l.4-.1c0 .1.1.2.3.3h.2c0-.2.3-.4 1-.6.1-.2.2-.3.3-.3l.2.1c0-.1.1-.2.3-.3h.1c.1 0 .1 0 .1.1.1-.1.2-.1.3-.1l-.1-.4v-.2h.1c.1 0 .1 0 .1.1l.8-.2.4.3-.3.5c.1.1.1.2.1.3l-.2.3.2.1c.1 0 .2-.1.2-.2-.1 0-.1 0-.1-.1.4-.2.7-.4 1.1-.4.2-.2.5-.4.7-.7.4-.1.7-.2.8-.2l.1.2-.1.4c.3-.1.5-.4.5-.7 0-.1.1-.2.3-.3.1 0 .2.1.2.3.1 0 .2-.1.2-.2-.1 0-.1 0-.1-.1.1-.1.4-.1.9-.2.1.1.2.1.3.1v.1c-.2.4-.3.7-.3.7h-.1l-.4-.1.1.2v.1c-.2.3-.3.4-.3.5l.2.1h.1c0-.2.1-.3.2-.3s.2.1.3.3v.4h.3l.3-.2.4.1c0-.1 0-.1.1-.1.2.2.3.3.3.4l-.1.2c.1.1.1.2.1.3 0 .1-.1.2-.2.2s-.2-.1-.2-.3l-.3.3-.4-.1c-.2 0-.4.2-.4.7l.3.3v.3h.3v.5c0 .1-.1.2-.2.2.1.3.1.4.2.4.4-.2.6-.3.7-.3l.4.6v.1c-.3.5-.4.7-.5.7h-.1c-.1-.1-.3-.2-.3-.2-.2 0-.4.3-.6 1-.3.2-.7.4-1 .4-.1.3-.2.5-.3.5h-.3l-.3-.2-.3.9h-.3c-.1 0-.2-.1-.3-.3.1-.3.2-.4.3-.4l-.5-.8v-.1c.8-.6 1.2-.9 1.2-1-.1-.1-.1-.2-.1-.3h-.2c0 .2-.3.5-.9.8 0 .1-.1.2-.2.2 0-.1 0-.1-.1-.1l.1-.2v-.1l-.3-.4v-.1l.3-.3c-.1 0-.2-.1-.3-.2 0 .4-.1.6-.3.7h-.2l-.4-.1c0 .2-.3.4-.8.5 0 .6.3.9.8.9v.1c0 .1-.1.2-.4.3l-.3-.3-.3.3-.2-.1-.2.1c-.1 0-.1 0-.3-.1-.4.1-.7.2-.8.2-.1-.1-.2-.1-.3-.1 0 .2-.1.3-.2.3l-.1-.2v-.1c.3-.1.5-.5.7-1.2v-.1h-.3c-.2.2-.6.5-1.2.8 0 .1 0 .2-.1.3.1.1.1.2.1.3l-.2.1c-.1-.1-.2-.1-.3-.1l-.2.3c.1 0 .2.1.3.3v.1l-.7-.3h-.1c-.1 0-.2 0-.3.1-.3-.2-.6-.3-.8-.3l.1.2c-.1.3-.2.4-.4.4l-.2-.1c-.1.1-.2.1-.3.1 0-.1-.1-.2-.3-.3h-.2c0 .2-.1.3-.3.4l-.2-.3c0-.4.4-.7 1.1-.8 0-.1.1-.2.2-.2l.2.1-.1.2v.2h.4c0-.2.1-.5.2-.7-.2-.1-.3-.2-.3-.3l.1-.2h-.2l-.3.4h-.1l-.3-.2h-.3c-.4.4-.9.8-1.4 1.2-.1 0-.2-.1-.3-.3v-.1c0-.1.1-.2.2-.2-.2-.4-.3-.7-.3-.8-.1.1-.3.6-.6 1.5h-.2l-.2-.1c0 .1-.1.2-.2.3.1.1.1.2.1.3-.1 0-.3.1-.6.3 0-.1-.1-.2-.2-.2s-.2.2-.4.5l.2.1c.1 0 .3-.1.6-.3l.8.8v.3h-.3v.1l.2.3v.1c-.1 0-.1 0-.1-.1-.4 0-.6.3-.8.8.5.1.7.3.8.5 0 .1-.1.2-.2.2l.1.2v.2c0 .1-.1.2-.2.2-.2-.3-.4-.4-.6-.4h-.2l.2.3-.1.5c0 .2.2.3.5.4 0-.1.1-.2.3-.3.2.1.3.2.3.5-.2.3-.4.4-.6.4 0-.1-.1-.2-.2-.2 0 .3-.1.6-.2.7l.3.3v.3c-.1.3-.3.4-.3.4l-.6-.1v.1l.3.4c-.1 0-.2.1-.3.3.1.1.2.1.5.1 0-.1.1-.2.2-.2h.1c.1 0 .2.1.2.2-.1.2-.2.3-.5.3 0 .1.1.2.4.2v.3c0 .1-.1.2-.2.2-.2-.2-.3-.3-.3-.4h-.1c0 .3-.3.4-.8.4v.1c0 .1.1.2.2.2.1-.1.2-.1.3-.1 0 .2.1.3.3.3v.1c0 .1-.1.2-.3.3l-.3-.2h-.1l.1.2c-.4.4-.7.6-1.1.6l-.1-.2v-.1c0-.1.1-.2.3-.3h.4c0-.1.1-.2.2-.3-.1 0-.2-.2-.2-.6-.1 0-.2.1-.2.2l-.8-.2-.2.3c.1 0 .2.1.2.2l-.2.1c0-.2-.2-.3-.7-.5l-.2.1h-.1c-.1 0-.2-.1-.2-.2s.2-.3.6-.6c0 .1 0 .1.1.1l.4-.5v-.3c-.3 0-.4-.1-.4-.2l-.2.1-.2-.1-.4.1c-.2-.4-.3-.9-.3-1.4v-.3c-.2 0-.3-.1-.3-.2v-.3l.5-.5-.3-.7v-.2c.4-.4.6-.6.8-.6v-.3c-.3 0-.5-.1-.5-.2v-.2c0-.1 0-.1.1-.1-.1-.2-.2-.4-.2-.5l.3-.2-.1-.2v-.1h.4l-.3-.4v-.1l.3-.6-.2-.1-.3.2.1.2v.1h-.3c-.1 0-.2-.3-.3-.9-.1 0-.1 0-.1-.1.1 0 .1 0 .1-.1h-.1l-.4.3c-.2-.1-.4-.2-.6-.2v.1h-.1l-.2-.1.1-.2v-.1h.2c-.3.2-.4.3-.4.4h-.2c0-.4.4-.8 1.1-1.2l.3.2c.1 0 .2-.2.3-.6-.1 0-.1 0-.1-.1l-.2.1c-.3-.2-.4-.3-.4-.5h-.2c-.1 0-.3.3-.4.8-.2.2-.4.3-.7.3l.1.2c-.1.2-.2.4-.4.5h-.3l-.4-.1c0 .1-.1.2-.2.2l-.2-.3c0-.1.1-.2.4-.3 0-.1-.1-.3-.3-.6.1-.1.1-.2.1-.3l-.2-.1h-.1c-.1.6-.1.8-.3.8 0 .1 0 .1.1.1l-.1.4c0 .2.1.3.4.3v.3c-.1 0-.2.1-.3.2-.6-.3-.8-.6-.8-1.1-.1.1-.2.1-.3.1l.1.2v.3l-.2.3v.1c.2 0 .3.1.3.2v.1h-.3v-.2h-.2c0 .1 0 .1-.1.3.1.1.1.2.1.3l-.2.1c-.5-.1-.8-.1-1-.3.1-.4.2-.6.3-.6h.1l.4.1c0-.1.1-.3.3-.6-.2-.4-.4-.6-.6-.8 0 .2-.3.5-.8.7-.3 0-.5-.1-.6-.3v-.1c0-.1.1-.3.2-.7v-.3c-.5 0-.9-.4-.9-1.1-.3-.9-.4-1.3-.4-1.3.3-.4.6-.8 1-1.1 0-.2.4-.6 1.3-1h.1v.5c.1 0 .4-.1.9-.2l.3.2h.1c0-.3.1-.4.3-.4h.3c0-.1.1-.2.2-.2l.3.2h.1c0-.3.4-.6 1.3-.8v.2h-.2v.2c.3 0 .6-.1.9-.4l.2.3-.3.3c.1 0 .4.2.8.5l.1-.2c-.2 0-.3-.1-.3-.3v-.2l.8-.8c.1 0 .2.2.4.5h.1l-.1-.4c0-.1.1-.2.2-.2h.2c.3.2.4.3.4.5h.1c.1 0 .2-.1.2-.2l-.1-.5h-.1v.2h-.2v-.1c0-.2.3-.4.8-.7v.1c0-.1-.1-.2-.3-.3l-.3.2-.3-.5v-.1l.4-.8-.1-.6v-.2c0-.1.2-.3.6-.5 0-.1.1-.2.3-.2v-.2l-.4.1h-.3c-.1 0-.2-.1-.2-.2v-.6l.4-.8c-.1-.2-.2-.4-.2-.5l.2-.1c-.1-.2-.2-.4-.2-.5l.4-.3-.1-.2c0-.1.1-.2.3-.2l-.8-.5c0-.6.1-.8.2-.8l-.1-.2v-.3c0-.1.1-.4.3-1-.1 0-.2-.1-.2-.2v-.2c.4-.7.9-1.1 1.5-1.1l-.1-.4c1-.5 1.5-.8 1.8-.8zm-10.3 19.1c0 .1.1.2.2.2h.1l.1-.4h-.1c-.1 0-.2 0-.3.2zm1 .7v.2h.1l-.1-.2zm.2-1h.2v-.2c-.1 0-.2.1-.2.2zm.3 9.4l.1.2h-.3c0-.1.1-.2.2-.2zm1.6-10.8l.3.4c-.2.1-.3.2-.3.3.1.1.1.2.1.3-.1 0-.2.1-.2.2l-.2-.1h-.3l.1.4h.3c0-.1.2-.2.7-.3.1-.2.2-.3.2-.4-.1 0-.2-.1-.2-.2l.1-.3-.2-.4c-.3 0-.4.1-.4.1zm1.6-.7h.2v-.2c-.2 0-.2.1-.2.2zm.9 2.8l.1.3c-.1.1-.1.2-.1.3h.3v-.1l-.1-.4h-.2zm1 1.3c0 .1.1.2.2.2 0-.1 0-.1.1-.1 0 .1.1.2.2.2h.1l.5-.4c.1.1.2.1.3.1l.2-.3v-.3h-.1c-.6 0-1.1.2-1.5.6zm.1 7.5h.2v.1l-.2-.1zm.2-1.9v.3c.2 0 .4.1.6.3h.1c0-.1 0-.2.1-.2 0-.1-.2-.2-.5-.4v-.1h-.1c-.2 0-.2 0-.2.1zm.1-4.6v.3c.2-.2.4-.3.5-.3v-.1h-.1c-.1.1-.2.1-.4.1zm.4 8.9c.1.1.1.2.1.3l.2-.1h.3v.1c0 .1-.1.2-.3.3h-.1l-.2-.1c0 .1 0 .1-.1.1l-.2-.3v-.1c.2-.2.2-.2.3-.2zm0-.6l.1.2h-.1v-.2zm0-23.4l.2.1v-.1h-.2zm.7 24.4c.1.2.2.3.4.5v.4c0 .1-.1.2-.2.2h-.2c-.1 0-.3-.3-.5-.8l.5-.3zm-.2-9.2l.3.3h.1v-.1c-.1-.2-.2-.3-.2-.4h-.1c-.1 0-.1.1-.1.2zm0 6.1l.3.1v-.1h-.3zm.3 0c0 .1-.1.2-.2.2.1.1.1.2.1.3h.1c.1 0 .2-.1.2-.2v-.1c0-.1-.1-.2-.2-.2zm1-1.2c.4-.2.5-.3.5-.3v-.1h-.1c-.1 0-.3.1-.4.4zm.3-15.5c0 .1 0 .1-.1.3l.2.1.1-.2c0-.2 0-.2-.2-.2zm0-4.7v.2h.2c0-.2 0-.2-.2-.2zm.1 20.6l.1.3c.2-.1.3-.2.3-.3h-.4zm.6-14.6v.2c.1.1.2.3.2.7.2 0 .3-.1.3-.2l-.1-.4c.1 0 .1 0 .1-.1-.2-.1-.3-.2-.5-.2zm.9-2.4h.3v.1c0 .1-.1.2-.2.2h-.2v-.3zm.2 3.3c.2.3.3.5.3.7h.3c0-.3.1-.4.2-.4 0 .1.1.2.2.2h.1l-.3-.4-.2.1-.6-.2zm.6 4.5c0 .1-.1.2-.2.3l.1.4h.1c0-.3.1-.5.3-.7h-.3zm2-.3c-.7.6-1 .8-1.1.8v.4h.1c.1-.1.2-.1.3-.1 0 .1.1.2.2.2 0-.2.1-.3.2-.3h.1l.4.1c0-.1.1-.2.2-.2-.1-.1-.1-.2-.1-.3l.1-.2c-.1-.1-.1-.2-.1-.3.1 0 .1 0 .1-.1-.2.1-.3 0-.4 0zm-.1-2.5l.3.3c-.1 0-.2.1-.2.2h.1c.1 0 .4-.1.8-.3 0 .1.1.2.3.3h.1c.1-.1.3-.2.4-.2v-.3c-.1 0-.3-.1-.4-.2h-.2l-.3.2h-.4c-.1 0-.2-.1-.2-.2-.2.2-.3.2-.3.2zm1.1-1.7c.1.1.1.2.1.3.3 0 .4-.1.4-.3h.3l.6.4h.2v-.2c-.3 0-.4-.1-.4-.2.1-.1.1-.2.1-.3-.2-.1-.3-.1-.3-.2-.1.1-.2.1-.3.1l-.3-.1c-.2.1-.3.2-.4.5zm.1 3.5c0 .2.1.3.2.3l-.3.5c.1.3.2.4.3.4h.1c0-.1.1-.3.2-.6l-.1-.2c0-.2.3-.5.8-.8 0-.1-.1-.2-.3-.3h-.3c-.2.4-.4.6-.5.6l-.1.1zm0 1.3v.3h.3c.1-.2 0-.2-.3-.3zm1.5.4c-.2.4-.4.6-.6.6v.1c0 .1.1.2.4.3.2-.1.4-.3.4-.5 0-.3-.1-.5-.2-.5zm1.4.8h.2v.3c0 .1-.1.2-.3.3-.1 0-.2-.1-.3-.3 0-.1.1-.2.4-.3zm-.4-1.6v.2c.1 0 .3.1.4.2h.1c.1 0 .2-.1.3-.3l-.3-.2c-.2.1-.4.1-.5.1zm.8-3.4c.1 0 .1 0 .3.1.2-.1.6-.2 1.1-.3v-.2c-.2 0-.3 0-.3-.1l-.2.1-.2-.1c-.3.1-.5.2-.7.5zm0 4.5l.1.2h-.1v-.2zm.2-3.1v.3h.1c0-.1 0-.1.1-.3h-.2zm1.2 3.2v.2h.1l-.1-.2zm.2 6.5h.2v.1l-.2-.1zm.2-13.2v.2c.1 0 .2-.1.2-.2h-.2zm1.7-.3h.3v.2c0 .1-.2.2-.7.3h-.1c-.1 0-.2-.1-.2-.2s.1-.2.2-.2c.1.1.2.1.3.1l.2-.2zm-.1 7.3c.1.1.1.4.2.8-.1.2-.2.3-.3.3l-.3-.4v-.4c0-.2.1-.3.4-.3zm.5-2.1c.2 0 .5-.1.8-.3h.3c.1 0 .2.1.2.2l-.2.3v.1c.4 0 .6.1.6.3l-.1.2.3.2-.1.2v.1c.2 0 .3 0 .4.1l.1-.2-.3-.3c0-.1 0-.1.1-.1-.1-.2-.2-.4-.2-.7v-.4c-.3 0-.5-.1-.7-.4h-.1c-.6.2-1 .4-1.1.7zm.2-5.3h.2v.1l-.2-.1zm.1.9v.3h.2c.1 0 .2-.1.3-.3l-.2-.1c-.1.1-.2.1-.3.1zm.6 1v.4c0 .1.1.2.2.2.1-.2.3-.3.4-.3v-.2c-.2 0-.4-.1-.6-.1zm1.4-.5l-.3.6h.2l.3-.2c.1.2.2.3.3.3.2-.2.4-.3.5-.3v-.1c-.1 0-.1 0-.3-.1-.1.1-.2.1-.3.1-.1-.1-.2-.3-.4-.3zm2.1-1.2l-.1.2.1.5c-.1.1-.2.1-.3.1l-.2-.1c-.1.1-.2.1-.3.1l-.4-.6v-.1h.1l.3.2c.2-.2.4-.3.8-.3zm-1.2 5.1v.2c.1 0 .2-.1.3-.3v-.1h-.1c-.2.1-.2.1-.2.2zm1.5-2.9c.2 0 .3.1.3.2v.1c0 .1 0 .1-.1.1l.1.2c-.1.1-.1.2-.1.3.1 0 .2.1.2.2v.3c0 .1-.1.2-.2.2h-.3l-.3-.4v.1c.1.3.1.5.1.7l-.3.3h-.1l-.2-.1.1-.2v-.4c-.1 0-.1 0-.3-.1.1-.3.1-.5.2-.5-.1-.2-.2-.3-.2-.4l.2-.1c.1.1.3.2.5.2.1-.5.3-.7.4-.7zm-.3-2.1h.2v.1l-.2-.1z"/></g></svg>