<svg id="Layer_1" xmlns="http://www.w3.org/2000/svg" xmlns:xlink="http://www.w3.org/1999/xlink" viewBox="0 0 300 250"><style>.st0{fill:#0e4c87}.st1{clip-path:url(#SVGID_2_);fill:#fff}.st2{clip-path:url(#SVGID_4_);fill:url(#SVGID_5_)}.st3{clip-path:url(#SVGID_7_);fill:url(#SVGID_8_)}.st4{clip-path:url(#SVGID_10_);fill:url(#SVGID_11_)}</style><path class="st0" d="M228.8 171.3v3.7h-6.5v17.6h-4.1V175h-6.5v-3.7h17.1zm1.8 21.3h4.1v-21.4h-4.1v21.4zm25.4 0h-4.2l-2.2-5.2h-7.2l-2.2 5.2H236l9.1-21.6h1.8l9.1 21.6zm20 0h-4.2l-2.2-5.2h-7.2l-2.2 5.2H256l9.1-21.6h1.8l9.1 21.6zm-27.9-8.7l-2.2-5.3-2.2 5.3h4.4zm20 0l-2.2-5.3-2.2 5.3h4.4z"/><defs><path id="SVGID_1_" d="M178.1 166.2h100.2v33.7H178.1z"/></defs><clipPath id="SVGID_2_"><use xlink:href="#SVGID_1_" overflow="visible"/></clipPath><path class="st1" d="M196.7 194c1.8 0 3.5-.8 4.7-2l5-5c1.2-1.2 1.9-2.8 1.9-4.6v-15.7h-15.7c-1.8 0-3.5.8-4.7 2l-5 5a6.42 6.42 0 0 0-1.9 4.6V194h15.7z"/><defs><path id="SVGID_3_" d="M194.5 168c-2.8 0-5.2 2.3-5.2 5.1v1.8h10.8v10.8h1.7c2.9 0 5.2-2.3 5.2-5.2V168h-12.5z"/></defs><clipPath id="SVGID_4_"><use xlink:href="#SVGID_3_" overflow="visible"/></clipPath><linearGradient id="SVGID_5_" gradientUnits="userSpaceOnUse" x1="1" y1="251.081" x2="2" y2="251.081" gradientTransform="scale(17.365 -17.365) rotate(45 321.722 132.674)"><stop offset="0" stop-color="#9eddf9"/><stop offset=".1" stop-color="#9eddf9"/><stop offset=".9" stop-color="#0b9eda"/><stop offset="1" stop-color="#0b9eda"/></linearGradient><path class="st2" d="M180.5 176.9l17.6-17.7 17.7 17.7-17.7 17.6z"/><g><defs><path id="SVGID_6_" d="M201.8 187.1h-13.9l-5.5 5.5h14.3c1.4 0 2.7-.6 3.7-1.6l4.6-4.6-.1-.1c-.9.5-2 .8-3.1.8"/></defs><clipPath id="SVGID_7_"><use xlink:href="#SVGID_6_" overflow="visible"/></clipPath><linearGradient id="SVGID_8_" gradientUnits="userSpaceOnUse" x1=".956" y1="251.044" x2="1.956" y2="251.044" gradientTransform="matrix(22.6382 0 0 -22.6382 160.767 5872.642)"><stop offset="0" stop-color="#1db0e6"/><stop offset=".115" stop-color="#1dace2"/><stop offset=".265" stop-color="#1ba1d7"/><stop offset=".434" stop-color="#1790c7"/><stop offset=".618" stop-color="#137ab4"/><stop offset=".811" stop-color="#06619f"/><stop offset=".9" stop-color="#025595"/><stop offset="1" stop-color="#025595"/></linearGradient><path class="st3" d="M182.4 186.3H205v6.3h-22.6z"/></g><g><defs><path id="SVGID_9_" d="M184 174.6c-1 1-1.6 2.3-1.6 3.7v14.3l5.5-5.5v-13.9c0-1.1.3-2.2.8-3.1l-.1-.1-4.6 4.6z"/></defs><clipPath id="SVGID_10_"><use xlink:href="#SVGID_9_" overflow="visible"/></clipPath><linearGradient id="SVGID_11_" gradientUnits="userSpaceOnUse" x1="1.044" y1="251.044" x2="2.044" y2="251.044" gradientTransform="matrix(0 -22.6386 -22.6386 0 5868.846 216.237)"><stop offset="0" stop-color="#0882be"/><stop offset=".22" stop-color="#0778b4"/><stop offset=".656" stop-color="#02609e"/><stop offset=".85" stop-color="#025595"/><stop offset="1" stop-color="#025595"/></linearGradient><path class="st4" d="M182.4 170h6.3v22.6h-6.3z"/></g></svg>