<?xml version="1.0" encoding="utf-8"?>
<!-- Generator: Adobe Illustrator 22.1.0, SVG Export Plug-In . SVG Version: 6.00 Build 0)  -->
<svg version="1.1" id="Layer_1" xmlns="http://www.w3.org/2000/svg" xmlns:xlink="http://www.w3.org/1999/xlink" x="0px" y="0px"
	 viewBox="0 0 160 600" style="enable-background:new 0 0 160 600;" xml:space="preserve">
<style type="text/css">
	.st0{fill:#3A833F;}
</style>
<path class="st0" d="M63.2,267.8c-2-1.6-6.7-1.7-8,0.9c0.7-2.4-0.6-5.8-2.6-7.3c-1.9-1.4-4.3-1.8-6.6-1.4c-4.3,0.7-8.2,3.9-8.7,8.2
	c-0.9-1.4-2.5-2.3-4.2-2.3c-1.9,0-3.5,1-4.4,2.6c-1.4-2.4-5.9-2.2-7.9-0.7c-2.4,1.8-2.6,5.1-1.9,7.9h12.4h6h27.8
	C65.8,272.9,65.6,269.7,63.2,267.8"/>
<path class="st0" d="M147.3,267.8c-2-1.6-6.8-1.7-8,0.9c0.7-2.4-0.6-5.8-2.6-7.3c-1.9-1.4-4.3-1.8-6.6-1.4c-4.3,0.7-8.2,3.9-8.7,8.2
	c-0.9-1.4-2.5-2.3-4.2-2.3c-1.9,0-3.5,1-4.4,2.6c-1.4-2.4-5.9-2.2-7.9-0.7c-2.4,1.8-2.6,5.1-1.9,7.9h12.4h6h27.8
	C149.9,272.9,149.7,269.7,147.3,267.8"/>
</svg>
