<?xml version="1.0" encoding="utf-8"?>
<!-- Generator: Adobe Illustrator 22.1.0, SVG Export Plug-In . SVG Version: 6.00 Build 0)  -->
<svg version="1.1" id="Layer_1" xmlns="http://www.w3.org/2000/svg" xmlns:xlink="http://www.w3.org/1999/xlink" x="0px" y="0px"
	 viewBox="0 0 160 600" style="enable-background:new 0 0 160 600;" xml:space="preserve">
<style type="text/css">
	.st0{fill:#231F20;}
</style>
<g>
	<path class="st0" d="M9.5,589.4h-2l-0.2,1.3c0.1,0,0.2,0,0.4,0c0.4,0,0.8,0.1,1.1,0.3c0.4,0.2,0.7,0.7,0.7,1.3c0,1-0.8,1.8-1.9,1.8
		c-0.6,0-1-0.2-1.3-0.3l0.2-0.5c0.2,0.1,0.6,0.3,1.1,0.3c0.7,0,1.2-0.4,1.2-1.1c0-0.7-0.5-1.2-1.5-1.2c-0.3,0-0.5,0-0.7,0.1l0.3-2.5
		h2.5V589.4z"/>
	<path class="st0" d="M10.4,592.7c0-0.7,0.4-1.1,1-1.4l0,0c-0.6-0.3-0.8-0.7-0.8-1.2c0-0.8,0.7-1.4,1.6-1.4c1,0,1.5,0.6,1.5,1.3
		c0,0.4-0.2,0.9-0.9,1.2v0c0.6,0.3,1,0.7,1,1.3c0,0.9-0.8,1.5-1.8,1.5C11.1,594.1,10.4,593.4,10.4,592.7z M13.2,592.6
		c0-0.6-0.4-0.9-1.1-1.1c-0.6,0.2-0.9,0.6-0.9,1.1c0,0.5,0.4,1,1,1C12.8,593.6,13.2,593.2,13.2,592.6z M11.3,590c0,0.5,0.4,0.8,1,1
		c0.4-0.2,0.8-0.5,0.8-0.9c0-0.4-0.2-0.8-0.9-0.8C11.6,589.2,11.3,589.6,11.3,590z"/>
	<path class="st0" d="M18,591.3c0,1.8-0.7,2.7-1.8,2.7c-1,0-1.7-1-1.7-2.7c0-1.7,0.8-2.7,1.8-2.7C17.4,588.7,18,589.7,18,591.3z
		 M15.2,591.4c0,1.4,0.4,2.1,1.1,2.1c0.7,0,1.1-0.8,1.1-2.2c0-1.3-0.3-2.1-1.1-2.1C15.6,589.3,15.2,590,15.2,591.4z"/>
	<path class="st0" d="M22.1,591.3c0,1.8-0.7,2.7-1.8,2.7c-1,0-1.7-1-1.7-2.7c0-1.7,0.8-2.7,1.8-2.7
		C21.5,588.7,22.1,589.7,22.1,591.3z M19.3,591.4c0,1.4,0.4,2.1,1.1,2.1c0.7,0,1.1-0.8,1.1-2.2c0-1.3-0.3-2.1-1.1-2.1
		C19.8,589.3,19.3,590,19.3,591.4z"/>
	<path class="st0" d="M23.2,593.5c0.2,0,0.3,0,0.6,0c0.4-0.1,0.8-0.2,1.1-0.5c0.3-0.3,0.6-0.8,0.7-1.4h0c-0.3,0.4-0.7,0.6-1.2,0.6
		c-0.9,0-1.5-0.7-1.5-1.6c0-1,0.7-1.8,1.8-1.8s1.7,0.9,1.7,2.2c0,1.1-0.4,1.9-0.9,2.4c-0.4,0.4-1,0.6-1.5,0.7c-0.3,0-0.5,0-0.6,0
		V593.5z M23.4,590.5c0,0.6,0.4,1.1,1,1.1c0.5,0,0.8-0.2,1-0.5c0-0.1,0.1-0.1,0.1-0.3c0-0.9-0.3-1.6-1.1-1.6
		C23.9,589.3,23.4,589.8,23.4,590.5z"/>
	<path class="st0" d="M29.1,594v-1.4h-2.4v-0.5l2.3-3.3h0.8v3.2h0.7v0.6h-0.7v1.4H29.1z M29.1,592v-1.7c0-0.3,0-0.5,0-0.8h0
		c-0.2,0.3-0.3,0.5-0.4,0.8l-1.3,1.8v0H29.1z"/>
</g>
</svg>
