<?xml version="1.0" encoding="utf-8"?>
<!-- Generator: Adobe Illustrator 22.1.0, SVG Export Plug-In . SVG Version: 6.00 Build 0)  -->
<svg version="1.1" id="Layer_1" xmlns="http://www.w3.org/2000/svg" xmlns:xlink="http://www.w3.org/1999/xlink" x="0px" y="0px"
	 viewBox="0 0 160 600" style="enable-background:new 0 0 160 600;" xml:space="preserve">
<style type="text/css">
	.st0{fill:#231F20;}
</style>
<g>
	<path class="st0" d="M26.7,45.5v-5.6h-5.4v5.6h-3.4v-14h3.4V37h5.4v-5.5h3.4v14H26.7z"/>
	<path class="st0" d="M41.4,40L40,41.4h-4.9c0.2,0.8,1.3,1.7,2.9,1.7c1,0,2.1-0.3,2.8-0.7l-0.3,2.8c-0.7,0.4-1.9,0.7-3.2,0.7
		c-3,0-5.5-2.1-5.5-5.4c0-3.2,2.3-5.3,5.2-5.3c2.8,0,4.5,1.9,4.5,4C41.5,39.4,41.4,39.8,41.4,40z M37,37.6c-0.9,0-1.7,0.7-1.9,1.6
		h3.4c0-0.1,0-0.1,0-0.2C38.5,38.4,37.9,37.6,37,37.6z"/>
	<path class="st0" d="M46.3,45.9c-2-0.1-3.4-1.1-3.4-3.5V29.8h3.2V42c0,0.8,0.5,1.3,1.3,1.3L46.3,45.9z"/>
	<path class="st0" d="M54.2,45.8c-1.1,0-2.1-0.3-2.5-0.7v5.5h-3.1v-15h2.8v1.2h0c0.5-1,1.7-1.5,3.1-1.5c2.4,0,4.8,1.8,4.8,5.3
		C59.3,43.7,57,45.8,54.2,45.8z M53.6,38.1c-0.9,0-1.6,0.5-2,1v3.1c0.3,0.4,1,0.9,2,0.9c1.4,0,2.4-1.1,2.4-2.5S55,38.1,53.6,38.1z"
		/>
	<path class="st0" d="M71,45.8c-1.1,0-2.1-0.3-2.5-0.7v5.5h-3.1v-15h2.8v1.2h0c0.5-1,1.7-1.5,3.1-1.5c2.4,0,4.8,1.8,4.8,5.3
		C76.1,43.7,73.8,45.8,71,45.8z M70.5,38.1c-0.9,0-1.6,0.5-2,1v3.1c0.3,0.4,1,0.9,2,0.9c1.4,0,2.4-1.1,2.4-2.5S71.9,38.1,70.5,38.1z
		"/>
	<path class="st0" d="M84.1,45.5v-1.4h0c-0.4,1.1-1.5,1.7-3.1,1.7c-2.2,0-3.5-1.2-3.5-3.3v-6.9h3.2v6.1c0,0.7,0.5,1.4,1.5,1.4
		c1,0,1.6-0.6,1.6-1.4v-6.1H87v10H84.1z"/>
	<path class="st0" d="M95.6,38.2H93v3.7c0,0.9,0.5,1.2,1.3,1.2c0.4,0,0.6,0,0.8-0.1l-0.3,2.4c-0.3,0.2-0.9,0.3-1.5,0.3
		c-2.2,0-3.6-1.2-3.6-3.2v-4.3h-1.7v-2.6h1.7v-2.1l3.2-1.2v3.3h3.2L95.6,38.2z"/>
</g>
<g>
	<path class="st0" d="M23.9,70.5c-1.5,4-3.1,5.5-5,6.2l-2-2c1.6-0.6,2.8-1.8,3.7-3.9L17,61.5h3.1l1.5,3.9c0.2,0.6,0.4,1.3,0.6,2h0
		c0.2-0.7,0.4-1.4,0.6-2l1.5-3.9h3L23.9,70.5z"/>
	<path class="st0" d="M32.7,71.8c-3,0-5.4-2.1-5.4-5.3s2.4-5.3,5.4-5.3c3,0,5.4,2.1,5.4,5.3S35.7,71.8,32.7,71.8z M32.7,64
		c-1.2,0-2.2,1.1-2.2,2.5s1,2.5,2.2,2.5c1.2,0,2.2-1.1,2.2-2.5S33.9,64,32.7,64z"/>
	<path class="st0" d="M46.1,71.5v-1.4h0c-0.4,1.1-1.5,1.7-3.1,1.7c-2.2,0-3.5-1.2-3.5-3.3v-6.9h3.2v6.1c0,0.7,0.5,1.4,1.5,1.4
		c1,0,1.6-0.6,1.6-1.4v-6.1h3.2v10H46.1z"/>
	<path class="st0" d="M57.2,65c-0.2-0.1-0.6-0.2-1-0.2c-1,0-2,0.5-2,2.1v4.6H51v-10h3.2v2.2h0c0.3-1.6,1.5-2.4,2.8-2.4
		c0.3,0,0.7,0,0.9,0.1L57.2,65z"/>
	<path class="st0" d="M75.9,71.5v-6.1c0-0.7-0.4-1.4-1.4-1.4c-1,0-1.5,0.6-1.5,1.4v6.1h-3.2v-6.1c0-0.7-0.4-1.4-1.4-1.4
		c-1,0-1.5,0.6-1.5,1.4v6.1h-3.2v-10h3v1.3h0c0.4-1.1,1.4-1.7,2.9-1.7c1.4,0,2.5,0.6,2.9,1.6c0.4-1,1.6-1.6,3.1-1.6
		c2.3,0,3.5,1.2,3.5,3.3v6.9H75.9z"/>
	<path class="st0" d="M82.7,60.2c-0.6,0-1.7-1.2-1.7-1.7c0-0.6,1.2-1.7,1.7-1.7s1.7,1.1,1.7,1.7C84.4,59,83.2,60.2,82.7,60.2z
		 M81,71.5v-10h3.3v10H81z"/>
	<path class="st0" d="M92.5,71.5v-6.1c0-0.7-0.5-1.4-1.5-1.4c-1,0-1.6,0.6-1.6,1.4v6.1h-3.2v-10h3v1.3h0c0.4-1.1,1.4-1.7,3-1.7
		c2.2,0,3.5,1.2,3.5,3.3v6.9H92.5z"/>
	<path class="st0" d="M105,71.5v-1.2h0c-0.6,1-1.7,1.5-3.1,1.5c-2.4,0-4.8-1.8-4.8-5.3c0-3.2,2.3-5.3,5.1-5.3c1.1,0,2.1,0.4,2.5,0.7
		v-6.1h3.1v15.7H105z M104.7,65c-0.3-0.4-1-0.9-2-0.9c-1.4,0-2.4,1.1-2.4,2.5s1,2.5,2.4,2.5c0.9,0,1.6-0.5,2-1V65z"/>
</g>
<g>
	<path class="st0" d="M24.8,98c-0.6-0.1-1.3-0.6-1.5-1.3c-0.4,0.8-1.4,1.2-2.6,1.2c-1.8,0-3.3-1.2-3.3-3.3c0-1.8,1.4-3.1,3.4-3.3
		l2-0.2v-0.3c0-0.6-0.5-1-1.6-1c-1,0-2,0.3-2.8,0.8l-0.6-2.4c0.8-0.5,2.2-0.9,3.5-0.9c2.6,0,4.5,1.2,4.5,3.6v3.3
		c0,1.2,0.4,1.8,1.2,2.1L24.8,98z M22.7,93.2l-1.2,0.1c-0.8,0.1-1.2,0.7-1.2,1.3c0,0.5,0.4,1,1,1c0.8,0,1.4-0.6,1.4-1.5V93.2z"/>
	<path class="st0" d="M34.2,97.5v-6.1c0-0.7-0.5-1.4-1.5-1.4c-1,0-1.6,0.6-1.6,1.4v6.1h-3.2v-10h3v1.3h0c0.4-1.1,1.4-1.7,3-1.7
		c2.2,0,3.5,1.2,3.5,3.3v6.9H34.2z"/>
	<path class="st0" d="M46.8,97.5v-1.2h0c-0.5,1-1.7,1.5-3.1,1.5c-2.4,0-4.8-1.8-4.8-5.3c0-3.2,2.3-5.3,5.1-5.3
		c1.1,0,2.1,0.4,2.5,0.7v-6.1h3.1v15.7H46.8z M46.5,91c-0.3-0.4-1-0.9-2-0.9c-1.4,0-2.4,1.1-2.4,2.5s1,2.5,2.4,2.5
		c0.9,0,1.6-0.5,2-1V91z"/>
	<path class="st0" d="M63.1,84.7c-0.4-0.2-0.9-0.3-1.3-0.3c-1.2,0-1.8,0.7-1.8,2.1v0.9h2.9l-0.6,2.6H60v7.3h-3.1v-7.3h-1.5v-2.6h1.5
		v-1.2c0-3,2-4.5,4.5-4.5c0.9,0,1.8,0.1,2.4,0.3L63.1,84.7z"/>
	<path class="st0" d="M70.8,98c-0.6-0.1-1.3-0.6-1.5-1.3c-0.4,0.8-1.4,1.2-2.6,1.2c-1.8,0-3.3-1.2-3.3-3.3c0-1.8,1.4-3.1,3.4-3.3
		l2-0.2v-0.3c0-0.6-0.5-1-1.6-1c-1,0-2,0.3-2.8,0.8l-0.6-2.4c0.8-0.5,2.2-0.9,3.5-0.9c2.6,0,4.5,1.2,4.5,3.6v3.3
		c0,1.2,0.4,1.8,1.2,2.1L70.8,98z M68.7,93.2l-1.2,0.1c-0.8,0.1-1.2,0.7-1.2,1.3c0,0.5,0.4,1,1,1c0.8,0,1.4-0.6,1.4-1.5V93.2z"/>
	<path class="st0" d="M86.2,97.5v-6.1c0-0.7-0.4-1.4-1.4-1.4c-1,0-1.5,0.6-1.5,1.4v6.1h-3.2v-6.1c0-0.7-0.4-1.4-1.4-1.4
		c-1,0-1.5,0.6-1.5,1.4v6.1h-3.2v-10h3v1.3h0c0.4-1.1,1.4-1.7,2.9-1.7c1.4,0,2.5,0.6,2.9,1.6c0.4-1,1.6-1.6,3.1-1.6
		c2.3,0,3.5,1.2,3.5,3.3v6.9H86.2z"/>
	<path class="st0" d="M93,86.2c-0.6,0-1.7-1.2-1.7-1.7c0-0.6,1.2-1.7,1.7-1.7c0.6,0,1.7,1.1,1.7,1.7C94.7,85,93.6,86.2,93,86.2z
		 M91.4,97.5v-10h3.3v10H91.4z"/>
	<path class="st0" d="M100,97.9c-2-0.1-3.4-1.1-3.4-3.5V81.9h3.2V94c0,0.8,0.5,1.3,1.3,1.3L100,97.9z"/>
	<path class="st0" d="M107.9,96.5c-1.5,4-3.1,5.5-5,6.2l-2-2c1.6-0.6,2.8-1.8,3.7-3.9l-3.6-9.3h3.1l1.5,3.9c0.2,0.6,0.4,1.3,0.6,2h0
		c0.2-0.7,0.4-1.4,0.6-2l1.5-3.9h3L107.9,96.5z"/>
	<path class="st0" d="M113,89.7l-1-0.2c0.7-0.9,1.3-2.1,1.5-3.1c-0.5-0.1-1.5-1.1-1.5-1.5c0-0.6,1.3-1.8,1.8-1.8
		c0.5,0,1.8,1.1,1.8,1.8C115.7,86.3,114.3,88.6,113,89.7z"/>
	<path class="st0" d="M119.5,97.7c-1.4,0-2.4-0.3-3.2-0.7l-0.3-2.9c0.9,0.6,2,1.1,3.1,1.1c0.6,0,1-0.3,1-0.7c0-0.4-0.3-0.6-0.9-0.8
		c-1.9-0.5-3.1-1.5-3.1-3.3c0-2,1.6-3.2,3.7-3.2c1.2,0,2.4,0.3,2.9,0.6l-0.5,2.4c-0.5-0.3-1.3-0.6-2.1-0.6c-0.5,0-0.9,0.2-0.9,0.6
		c0,0.4,0.3,0.6,0.9,0.7c2.2,0.6,3.2,1.7,3.2,3.4C123.4,96.2,122.2,97.7,119.5,97.7z"/>
</g>
<g>
	<path class="st0" d="M24.7,110.7c-0.4-0.2-0.9-0.3-1.3-0.3c-1.2,0-1.8,0.7-1.8,2.1v0.9h2.9l-0.6,2.6h-2.2v7.3h-3.1v-7.3h-1.5v-2.6
		h1.5v-1.2c0-3,2-4.5,4.5-4.5c0.9,0,1.8,0.1,2.4,0.3L24.7,110.7z"/>
	<path class="st0" d="M31.9,123.5v-1.4h0c-0.4,1.1-1.5,1.7-3.1,1.7c-2.2,0-3.5-1.2-3.5-3.3v-6.9h3.2v6.1c0,0.7,0.5,1.4,1.5,1.4
		c1,0,1.6-0.6,1.6-1.4v-6.1h3.2v10H31.9z"/>
	<path class="st0" d="M43.4,116.2h-2.6v3.7c0,0.9,0.5,1.2,1.3,1.2c0.4,0,0.6,0,0.8-0.1l-0.3,2.4c-0.3,0.2-0.9,0.3-1.5,0.3
		c-2.2,0-3.6-1.2-3.6-3.2v-4.3H36v-2.6h1.7v-2.1l3.2-1.2v3.3h3.2L43.4,116.2z"/>
	<path class="st0" d="M51.5,123.5v-1.4h0c-0.4,1.1-1.5,1.7-3.1,1.7c-2.2,0-3.5-1.2-3.5-3.3v-6.9h3.2v6.1c0,0.7,0.5,1.4,1.5,1.4
		c1,0,1.6-0.6,1.6-1.4v-6.1h3.2v10H51.5z"/>
	<path class="st0" d="M62.5,117c-0.2-0.1-0.6-0.2-1-0.2c-1,0-2,0.5-2,2.1v4.6h-3.2v-10h3.2v2.2h0c0.3-1.6,1.5-2.4,2.8-2.4
		c0.3,0,0.7,0,0.9,0.1L62.5,117z"/>
	<path class="st0" d="M73.1,118l-1.4,1.5h-4.9c0.2,0.8,1.3,1.7,2.9,1.7c1,0,2.1-0.3,2.8-0.7l-0.3,2.8c-0.7,0.4-1.9,0.7-3.2,0.7
		c-3,0-5.5-2.1-5.5-5.4c0-3.2,2.3-5.3,5.2-5.3c2.8,0,4.5,1.9,4.5,4C73.2,117.4,73.1,117.8,73.1,118z M68.7,115.6
		c-0.9,0-1.7,0.7-1.9,1.6h3.4c0-0.1,0-0.1,0-0.2C70.2,116.4,69.6,115.6,68.7,115.6z"/>
	<path class="st0" d="M86.3,124c-0.6-0.1-1.3-0.6-1.5-1.3c-0.4,0.8-1.4,1.2-2.6,1.2c-1.8,0-3.3-1.2-3.3-3.3c0-1.8,1.4-3.1,3.4-3.3
		l2-0.2v-0.3c0-0.6-0.5-1-1.6-1c-1,0-2,0.3-2.8,0.8l-0.6-2.4c0.8-0.5,2.2-0.9,3.5-0.9c2.6,0,4.5,1.2,4.5,3.6v3.3
		c0,1.2,0.4,1.8,1.2,2.1L86.3,124z M84.2,119.2l-1.2,0.1c-0.8,0.1-1.2,0.7-1.2,1.3c0,0.5,0.4,1,1,1c0.8,0,1.4-0.6,1.4-1.5V119.2z"/>
	<path class="st0" d="M95.9,116.2h-2.6v3.7c0,0.9,0.5,1.2,1.3,1.2c0.4,0,0.6,0,0.8-0.1l-0.3,2.4c-0.3,0.2-0.9,0.3-1.5,0.3
		c-2.2,0-3.6-1.2-3.6-3.2v-4.3h-1.7v-2.6h1.7v-2.1l3.2-1.2v3.3h3.2L95.9,116.2z"/>
	<path class="st0" d="M111.3,118l-1.4,1.5H105c0.2,0.8,1.3,1.7,2.9,1.7c1,0,2.1-0.3,2.8-0.7l-0.3,2.8c-0.7,0.4-1.9,0.7-3.2,0.7
		c-3,0-5.5-2.1-5.5-5.4c0-3.2,2.3-5.3,5.2-5.3c2.8,0,4.5,1.9,4.5,4C111.4,117.4,111.3,117.8,111.3,118z M106.9,115.6
		c-0.9,0-1.7,0.7-1.9,1.6h3.4c0-0.1,0-0.1,0-0.2C108.4,116.4,107.8,115.6,106.9,115.6z"/>
	<path class="st0" d="M119.7,124c-0.6-0.1-1.3-0.6-1.5-1.3c-0.4,0.8-1.4,1.2-2.6,1.2c-1.8,0-3.3-1.2-3.3-3.3c0-1.8,1.4-3.1,3.4-3.3
		l2-0.2v-0.3c0-0.6-0.5-1-1.6-1c-1,0-2,0.3-2.8,0.8l-0.6-2.4c0.8-0.5,2.2-0.9,3.5-0.9c2.6,0,4.5,1.2,4.5,3.6v3.3
		c0,1.2,0.4,1.8,1.2,2.1L119.7,124z M117.6,119.2l-1.2,0.1c-0.8,0.1-1.2,0.7-1.2,1.3c0,0.5,0.4,1,1,1c0.8,0,1.4-0.6,1.4-1.5V119.2z"
		/>
	<path class="st0" d="M126.1,123.7c-1.4,0-2.4-0.3-3.2-0.7l-0.3-2.9c0.9,0.6,2,1.1,3.1,1.1c0.6,0,1-0.3,1-0.7c0-0.4-0.3-0.6-0.9-0.8
		c-1.9-0.5-3.1-1.5-3.1-3.3c0-2,1.6-3.2,3.7-3.2c1.2,0,2.4,0.3,2.9,0.6l-0.5,2.4c-0.5-0.3-1.3-0.6-2.1-0.6c-0.5,0-0.9,0.2-0.9,0.6
		c0,0.4,0.3,0.6,0.9,0.7c2.2,0.6,3.2,1.7,3.2,3.4C130,122.2,128.8,123.7,126.1,123.7z"/>
	<path class="st0" d="M140.4,118l-1.4,1.5h-4.9c0.2,0.8,1.3,1.7,2.9,1.7c1,0,2.1-0.3,2.8-0.7l-0.3,2.8c-0.7,0.4-1.9,0.7-3.2,0.7
		c-3,0-5.5-2.1-5.5-5.4c0-3.2,2.3-5.3,5.2-5.3c2.8,0,4.5,1.9,4.5,4C140.5,117.4,140.4,117.8,140.4,118z M136,115.6
		c-0.9,0-1.7,0.7-1.9,1.6h3.4c0-0.1,0-0.1,0-0.2C137.5,116.4,136.9,115.6,136,115.6z"/>
</g>
<g>
	<path class="st0" d="M28.7,149.6h-2.2l-1.3-4c-0.2-0.6-0.4-1.3-0.6-2.1h0c-0.2,0.7-0.4,1.5-0.6,2l-1.3,4h-2.1L17,139.6H20l1.2,3.8
		c0.2,0.6,0.4,1.3,0.5,1.9h0c0.1-0.6,0.3-1.3,0.5-1.9l1.3-3.8h2.4l1.3,3.8c0.2,0.6,0.3,1.3,0.5,1.9h0c0.1-0.6,0.3-1.3,0.5-1.9
		l1.3-3.8h2.8L28.7,149.6z"/>
	<path class="st0" d="M34.8,138.2c-0.6,0-1.7-1.2-1.7-1.7c0-0.6,1.2-1.7,1.7-1.7c0.6,0,1.7,1.1,1.7,1.7
		C36.6,137,35.4,138.2,34.8,138.2z M33.2,149.5v-10h3.3v10H33.2z"/>
	<path class="st0" d="M45,142.2h-2.6v3.7c0,0.9,0.5,1.2,1.3,1.2c0.4,0,0.6,0,0.8-0.1l-0.3,2.4c-0.3,0.2-0.9,0.3-1.5,0.3
		c-2.2,0-3.6-1.2-3.6-3.2v-4.3h-1.7v-2.6h1.7v-2.1l3.2-1.2v3.3h3.2L45,142.2z"/>
	<path class="st0" d="M52.9,149.5v-6.1c0-0.7-0.5-1.4-1.5-1.4c-1,0-1.6,0.6-1.6,1.4v6.1h-3.2v-15.7h3.2v6.6h0
		c0.5-0.8,1.4-1.2,2.8-1.2c2.2,0,3.5,1.2,3.5,3.3v6.9H52.9z"/>
	<path class="st0" d="M69.2,138.3v11.2h-3.4v-11.2h-4v-2.8h11.5v2.8H69.2z"/>
	<path class="st0" d="M74.4,149.5v-14h3.4v14H74.4z"/>
	<path class="st0" d="M89,149.5l-1.2-3.2h-4.5l-1.2,3.2h-3.2l5.5-14.1h2.4l5.5,14.1H89z M86,141.1c-0.1-0.4-0.3-0.8-0.4-1.3h0
		c-0.1,0.5-0.3,0.9-0.4,1.3l-0.9,2.6h2.8L86,141.1z"/>
	<path class="st0" d="M103,149.5l-1.2-3.2h-4.5l-1.2,3.2H93l5.5-14.1h2.4l5.5,14.1H103z M100,141.1c-0.1-0.4-0.3-0.8-0.4-1.3h0
		c-0.1,0.5-0.3,0.9-0.4,1.3l-0.9,2.6h2.8L100,141.1z"/>
	<path class="st0" d="M112.3,149.5v-14h3.4v11.2h5.3v2.8H112.3z"/>
	<path class="st0" d="M123.6,138.2c-0.6,0-1.7-1.2-1.7-1.7c0-0.6,1.2-1.7,1.7-1.7c0.6,0,1.7,1.1,1.7,1.7
		C125.3,137,124.2,138.2,123.6,138.2z M122,149.5v-10h3.3v10H122z"/>
	<path class="st0" d="M134.1,136.7c-0.4-0.2-0.9-0.3-1.3-0.3c-1.2,0-1.8,0.7-1.8,2.1v0.9h2.9l-0.6,2.6H131v7.3h-3.1v-7.3h-1.5v-2.6
		h1.5v-1.2c0-3,2-4.5,4.5-4.5c0.9,0,1.8,0.1,2.4,0.3L134.1,136.7z"/>
	<path class="st0" d="M143.6,144l-1.4,1.5h-4.9c0.2,0.8,1.3,1.7,2.9,1.7c1,0,2.1-0.3,2.8-0.7l-0.3,2.8c-0.7,0.4-1.9,0.7-3.2,0.7
		c-3,0-5.5-2.1-5.5-5.4c0-3.2,2.3-5.3,5.2-5.3c2.8,0,4.5,1.9,4.5,4C143.7,143.5,143.7,143.8,143.6,144z M139.3,141.6
		c-0.9,0-1.7,0.7-1.9,1.6h3.4c0-0.1,0-0.1,0-0.2C140.7,142.4,140.1,141.6,139.3,141.6z"/>
</g>
<g>
	<path class="st0" d="M19.5,164.2c-0.6,0-1.7-1.2-1.7-1.7c0-0.6,1.2-1.7,1.7-1.7c0.6,0,1.7,1.1,1.7,1.7
		C21.2,163,20,164.2,19.5,164.2z M17.8,175.5v-10h3.3v10H17.8z"/>
	<path class="st0" d="M29.3,175.5v-6.1c0-0.7-0.5-1.4-1.5-1.4c-1,0-1.6,0.6-1.6,1.4v6.1H23v-10h3v1.3h0c0.4-1.1,1.4-1.7,3-1.7
		c2.2,0,3.5,1.2,3.5,3.3v6.9H29.3z"/>
	<path class="st0" d="M37.6,175.7c-1.4,0-2.4-0.3-3.2-0.7l-0.3-2.9c0.9,0.6,2,1.1,3.1,1.1c0.6,0,1-0.3,1-0.7c0-0.4-0.3-0.6-0.9-0.8
		c-1.9-0.5-3.1-1.5-3.1-3.3c0-2,1.6-3.2,3.7-3.2c1.2,0,2.4,0.3,2.9,0.6l-0.6,2.4c-0.5-0.3-1.3-0.6-2.1-0.6c-0.5,0-0.9,0.2-0.9,0.6
		c0,0.4,0.3,0.6,0.9,0.7c2.2,0.6,3.2,1.7,3.2,3.4C41.5,174.2,40.3,175.7,37.6,175.7z"/>
	<path class="st0" d="M49.4,175.5v-1.4h0c-0.4,1.1-1.5,1.7-3.1,1.7c-2.2,0-3.5-1.2-3.5-3.3v-6.9h3.2v6.1c0,0.7,0.5,1.4,1.5,1.4
		c1,0,1.6-0.6,1.6-1.4v-6.1h3.2v10H49.4z"/>
	<path class="st0" d="M60.5,169c-0.2-0.1-0.6-0.2-1-0.2c-1,0-2,0.5-2,2.1v4.6h-3.2v-10h3.2v2.2h0c0.3-1.6,1.5-2.4,2.8-2.4
		c0.3,0,0.7,0,0.9,0.1L60.5,169z"/>
	<path class="st0" d="M69.1,176c-0.6-0.1-1.3-0.6-1.5-1.3c-0.4,0.8-1.4,1.2-2.6,1.2c-1.8,0-3.3-1.2-3.3-3.3c0-1.8,1.4-3.1,3.4-3.3
		l2-0.2v-0.3c0-0.6-0.5-1-1.6-1c-1,0-2,0.3-2.8,0.8l-0.6-2.4c0.8-0.5,2.2-0.9,3.5-0.9c2.6,0,4.5,1.2,4.5,3.6v3.3
		c0,1.2,0.4,1.8,1.2,2.1L69.1,176z M67,171.2l-1.2,0.1c-0.8,0.1-1.2,0.7-1.2,1.3c0,0.5,0.4,1,1,1c0.8,0,1.4-0.6,1.4-1.5V171.2z"/>
	<path class="st0" d="M78.6,175.5v-6.1c0-0.7-0.5-1.4-1.5-1.4c-1,0-1.6,0.6-1.6,1.4v6.1h-3.2v-10h3v1.3h0c0.4-1.1,1.4-1.7,3-1.7
		c2.2,0,3.5,1.2,3.5,3.3v6.9H78.6z"/>
	<path class="st0" d="M91.2,168.8c-0.7-0.4-1.3-0.6-2.1-0.6c-1.4,0-2.5,1-2.5,2.5c0,1.4,1.1,2.5,2.6,2.5c0.8,0,1.5-0.2,2.2-0.6
		l-0.3,2.8c-0.7,0.3-1.5,0.5-2.4,0.5c-2.8,0-5.4-2-5.4-5.2c0-3.3,2.6-5.2,5.3-5.2c1.3,0,2.4,0.3,3.3,0.7L91.2,168.8z"/>
	<path class="st0" d="M102.1,170l-1.4,1.5h-4.9c0.2,0.8,1.3,1.7,2.9,1.7c1,0,2.1-0.3,2.8-0.7l-0.3,2.8c-0.7,0.4-1.9,0.7-3.2,0.7
		c-3,0-5.5-2.1-5.5-5.4c0-3.2,2.3-5.3,5.2-5.3c2.8,0,4.5,1.9,4.5,4C102.2,169.5,102.2,169.8,102.1,170z M97.7,167.7
		c-0.9,0-1.7,0.7-1.9,1.6h3.4c0-0.1,0-0.1,0-0.2C99.2,168.4,98.6,167.7,97.7,167.7z"/>
	<path class="st0" d="M104.9,175.8c-0.6,0-1.8-1.2-1.8-1.8c0-0.6,1.2-1.8,1.8-1.8s1.8,1.2,1.8,1.8
		C106.7,174.6,105.5,175.8,104.9,175.8z"/>
</g>
</svg>
