<?xml version="1.0" encoding="utf-8"?>
<!-- Generator: Adobe Illustrator 22.1.0, SVG Export Plug-In . SVG Version: 6.00 Build 0)  -->
<svg version="1.1" id="Layer_1" xmlns="http://www.w3.org/2000/svg" xmlns:xlink="http://www.w3.org/1999/xlink" x="0px" y="0px"
	 viewBox="0 0 160 600" style="enable-background:new 0 0 160 600;" xml:space="preserve">
<style type="text/css">
	.st0{fill:#231F20;}
</style>
<g>
	<path class="st0" d="M22.9,115.8c-1.5,4-3.1,5.5-5,6.2l-2-2c1.6-0.6,2.8-1.8,3.7-3.9l-3.6-9.3h3.1l1.5,3.9c0.2,0.6,0.4,1.3,0.6,2h0
		c0.2-0.7,0.4-1.4,0.6-2l1.5-3.9h3L22.9,115.8z"/>
	<path class="st0" d="M31.7,117.1c-3,0-5.4-2.1-5.4-5.3s2.4-5.3,5.4-5.3c3,0,5.4,2.1,5.4,5.3S34.7,117.1,31.7,117.1z M31.7,109.3
		c-1.2,0-2.2,1.1-2.2,2.5s1,2.5,2.2,2.5c1.2,0,2.2-1.1,2.2-2.5S32.9,109.3,31.7,109.3z"/>
	<path class="st0" d="M45.1,116.8v-1.4h0c-0.4,1.1-1.5,1.7-3.1,1.7c-2.2,0-3.5-1.2-3.5-3.3v-6.9h3.2v6.1c0,0.7,0.5,1.4,1.5,1.4
		c1,0,1.6-0.6,1.6-1.4v-6.1h3.2v10H45.1z"/>
	<path class="st0" d="M62.2,110c-0.7-0.4-1.3-0.6-2.1-0.6c-1.4,0-2.5,1-2.5,2.5c0,1.4,1.1,2.5,2.6,2.5c0.8,0,1.5-0.2,2.2-0.6
		l-0.3,2.8c-0.7,0.3-1.5,0.5-2.4,0.5c-2.8,0-5.4-2-5.4-5.2c0-3.3,2.6-5.2,5.3-5.2c1.3,0,2.4,0.3,3.3,0.7L62.2,110z"/>
	<path class="st0" d="M71.1,117.2c-0.6-0.1-1.3-0.6-1.5-1.3c-0.4,0.8-1.4,1.2-2.6,1.2c-1.8,0-3.3-1.2-3.3-3.3c0-1.8,1.4-3.1,3.4-3.3
		l2-0.2V110c0-0.6-0.5-1-1.6-1c-1,0-2,0.3-2.8,0.8l-0.6-2.4c0.8-0.5,2.2-0.9,3.5-0.9c2.6,0,4.5,1.2,4.5,3.6v3.3
		c0,1.2,0.4,1.8,1.2,2.1L71.1,117.2z M69.1,112.4l-1.2,0.1c-0.8,0.1-1.2,0.7-1.2,1.3c0,0.5,0.4,1,1,1c0.8,0,1.4-0.6,1.4-1.5V112.4z"
		/>
	<path class="st0" d="M80.6,116.8v-6.1c0-0.7-0.5-1.4-1.5-1.4c-1,0-1.6,0.6-1.6,1.4v6.1h-3.2v-10h3v1.3h0c0.4-1.1,1.4-1.7,3-1.7
		c2.2,0,3.5,1.2,3.5,3.3v6.9H80.6z"/>
</g>
<g>
	<path class="st0" d="M20,143c-1.4,0-2.4-0.3-3.2-0.7l-0.3-2.9c0.9,0.6,2,1.1,3.1,1.1c0.6,0,1-0.3,1-0.7c0-0.4-0.3-0.6-0.9-0.8
		c-1.9-0.5-3.1-1.5-3.1-3.3c0-2,1.6-3.2,3.7-3.2c1.2,0,2.4,0.3,2.9,0.6l-0.6,2.4c-0.5-0.3-1.3-0.5-2.1-0.5c-0.5,0-0.9,0.2-0.9,0.6
		c0,0.4,0.3,0.6,0.9,0.7c2.2,0.6,3.2,1.7,3.2,3.4C23.9,141.4,22.7,143,20,143z"/>
	<path class="st0" d="M28.7,143.2c-2-0.1-3.4-1.1-3.4-3.5v-12.5h3.2v12.1c0,0.8,0.5,1.3,1.3,1.3L28.7,143.2z"/>
	<path class="st0" d="M39.9,137.2l-1.4,1.5h-4.9c0.2,0.8,1.3,1.7,2.9,1.7c1,0,2.1-0.3,2.8-0.7l-0.3,2.8c-0.7,0.4-1.9,0.7-3.2,0.7
		c-3,0-5.5-2.1-5.5-5.4c0-3.2,2.3-5.3,5.2-5.3c2.8,0,4.5,1.9,4.5,4C40,136.7,39.9,137,39.9,137.2z M35.5,134.9
		c-0.9,0-1.7,0.7-1.9,1.6h3.4c0-0.1,0-0.1,0-0.2C37,135.6,36.4,134.9,35.5,134.9z"/>
	<path class="st0" d="M50.4,137.2l-1.4,1.5h-4.9c0.2,0.8,1.3,1.7,2.9,1.7c1,0,2.1-0.3,2.8-0.7l-0.3,2.8c-0.7,0.4-1.9,0.7-3.2,0.7
		c-3,0-5.5-2.1-5.5-5.4c0-3.2,2.3-5.3,5.2-5.3c2.8,0,4.5,1.9,4.5,4C50.5,136.7,50.5,137,50.4,137.2z M46,134.9
		c-0.9,0-1.7,0.7-1.9,1.6h3.4c0-0.1,0-0.1,0-0.2C47.5,135.6,46.9,134.9,46,134.9z"/>
	<path class="st0" d="M57.6,143.1c-1.1,0-2.1-0.3-2.5-0.7v5.5h-3.1v-15h2.8v1.2h0c0.5-1,1.7-1.5,3.1-1.5c2.4,0,4.8,1.8,4.8,5.3
		C62.6,141,60.3,143.1,57.6,143.1z M57,135.3c-0.9,0-1.6,0.5-2,1v3.1c0.3,0.4,1,0.9,2,0.9c1.4,0,2.4-1.1,2.4-2.5
		S58.4,135.3,57,135.3z"/>
	<path class="st0" d="M73.6,143.1c-2.1,0-3.8-0.7-4.8-1.5v-14.5H72v6.1c0.4-0.3,1.5-0.7,2.5-0.7c2.8,0,5,2,5,5.1
		C79.5,140.7,77.5,143.1,73.6,143.1z M73.9,135.3c-0.9,0-1.6,0.4-1.9,0.8v3.8c0.3,0.2,1,0.5,1.6,0.5c1.7,0,2.7-1.1,2.7-2.6
		C76.3,136.4,75.3,135.3,73.9,135.3z"/>
	<path class="st0" d="M90,137.2l-1.4,1.5h-4.9c0.2,0.8,1.3,1.7,2.9,1.7c1,0,2.1-0.3,2.8-0.7l-0.3,2.8c-0.7,0.4-1.9,0.7-3.2,0.7
		c-3,0-5.5-2.1-5.5-5.4c0-3.2,2.3-5.3,5.2-5.3c2.8,0,4.5,1.9,4.5,4C90.1,136.7,90.1,137,90,137.2z M85.6,134.9
		c-0.9,0-1.7,0.7-1.9,1.6h3.4c0-0.1,0-0.1,0-0.2C87.1,135.6,86.5,134.9,85.6,134.9z"/>
	<path class="st0" d="M98.2,135.4h-2.6v3.7c0,0.9,0.5,1.2,1.3,1.2c0.4,0,0.6,0,0.8-0.1l-0.3,2.4c-0.3,0.2-0.9,0.3-1.5,0.3
		c-2.2,0-3.6-1.2-3.6-3.2v-4.3h-1.7v-2.6h1.7v-2.1l3.2-1.2v3.3h3.2L98.2,135.4z"/>
	<path class="st0" d="M106.8,135.4h-2.6v3.7c0,0.9,0.5,1.2,1.3,1.2c0.4,0,0.6,0,0.8-0.1l-0.3,2.4c-0.3,0.2-0.9,0.3-1.5,0.3
		c-2.2,0-3.6-1.2-3.6-3.2v-4.3h-1.7v-2.6h1.7v-2.1l3.2-1.2v3.3h3.2L106.8,135.4z"/>
	<path class="st0" d="M117.2,137.2l-1.4,1.5h-4.9c0.2,0.8,1.3,1.7,2.9,1.7c1,0,2.1-0.3,2.8-0.7l-0.3,2.8c-0.7,0.4-1.9,0.7-3.2,0.7
		c-3,0-5.5-2.1-5.5-5.4c0-3.2,2.3-5.3,5.2-5.3c2.8,0,4.5,1.9,4.5,4C117.3,136.7,117.3,137,117.2,137.2z M112.8,134.9
		c-0.9,0-1.7,0.7-1.9,1.6h3.4c0-0.1,0-0.1,0-0.2C114.3,135.6,113.7,134.9,112.8,134.9z"/>
	<path class="st0" d="M124.9,136.2c-0.2-0.1-0.6-0.2-1-0.2c-1,0-2,0.5-2,2.1v4.6h-3.2v-10h3.2v2.2h0c0.3-1.6,1.5-2.4,2.8-2.4
		c0.3,0,0.7,0,0.9,0.1L124.9,136.2z"/>
	<path class="st0" d="M126.7,143.1c-0.6,0-1.8-1.2-1.8-1.8c0-0.6,1.2-1.8,1.8-1.8s1.8,1.2,1.8,1.8
		C128.6,141.8,127.3,143.1,126.7,143.1z"/>
</g>
</svg>
