<?xml version="1.0" encoding="utf-8"?>
<!-- Generator: Adobe Illustrator 22.1.0, SVG Export Plug-In . SVG Version: 6.00 Build 0)  -->
<svg version="1.1" id="Layer_1" xmlns="http://www.w3.org/2000/svg" xmlns:xlink="http://www.w3.org/1999/xlink" x="0px" y="0px"
	 viewBox="0 0 160 600" style="enable-background:new 0 0 160 600;" xml:space="preserve">
<style type="text/css">
	.st0{fill:#231F20;}
</style>
<g>
	<path class="st0" d="M31,38.8h-2.2l-2-6.2c-0.3-0.9-0.6-1.9-0.9-3.1h0c-0.3,1.2-0.6,2.2-0.9,3.1l-2,6.2h-2.1L16,24.7h3.3l1.8,5.7
		c0.3,0.9,0.6,1.8,0.8,2.8h0c0.2-1.1,0.5-1.9,0.7-2.8l1.8-5.7h2.9l1.8,5.7c0.3,0.8,0.5,1.8,0.7,2.8h0c0.2-1,0.5-2,0.7-2.8l1.9-5.7
		h2.9L31,38.8z"/>
	<path class="st0" d="M43,38.8v-6.1c0-0.7-0.5-1.4-1.5-1.4c-1,0-1.6,0.6-1.6,1.4v6.1h-3.2V23.1h3.2v6.6h0c0.5-0.8,1.4-1.2,2.8-1.2
		c2.2,0,3.5,1.2,3.5,3.3v6.9H43z"/>
	<path class="st0" d="M57.2,33.2l-1.4,1.5h-4.9c0.2,0.8,1.3,1.7,2.9,1.7c1,0,2.1-0.3,2.8-0.7l-0.3,2.8c-0.7,0.4-1.9,0.7-3.2,0.7
		c-3,0-5.5-2.1-5.5-5.4c0-3.2,2.3-5.3,5.2-5.3c2.8,0,4.5,1.9,4.5,4C57.3,32.7,57.2,33,57.2,33.2z M52.8,30.9c-0.9,0-1.7,0.7-1.9,1.6
		h3.4c0-0.1,0-0.1,0-0.2C54.3,31.6,53.7,30.9,52.8,30.9z"/>
	<path class="st0" d="M64.9,38.8v-6.1c0-0.7-0.5-1.4-1.5-1.4c-1,0-1.6,0.6-1.6,1.4v6.1h-3.2v-10h3v1.3h0c0.4-1.1,1.4-1.7,3-1.7
		c2.2,0,3.5,1.2,3.5,3.3v6.9H64.9z"/>
	<path class="st0" d="M80.8,37.8c-1.5,4-3.1,5.5-5,6.2l-2-2c1.6-0.6,2.8-1.8,3.7-3.9l-3.6-9.3H77l1.5,3.9c0.2,0.6,0.4,1.3,0.6,2h0
		c0.2-0.7,0.4-1.4,0.6-2l1.5-3.9h3L80.8,37.8z"/>
	<path class="st0" d="M89.7,39.1c-3,0-5.4-2.1-5.4-5.3s2.4-5.3,5.4-5.3c3,0,5.4,2.1,5.4,5.3S92.7,39.1,89.7,39.1z M89.7,31.3
		c-1.2,0-2.2,1.1-2.2,2.5s1,2.5,2.2,2.5c1.2,0,2.2-1.1,2.2-2.5S90.9,31.3,89.7,31.3z"/>
	<path class="st0" d="M103.1,38.8v-1.4h0c-0.4,1.1-1.5,1.7-3.1,1.7c-2.2,0-3.5-1.2-3.5-3.3v-6.9h3.2v6.1c0,0.7,0.5,1.4,1.5,1.4
		c1,0,1.6-0.6,1.6-1.4v-6.1h3.2v10H103.1z"/>
</g>
<g>
	<path class="st0" d="M23.1,64.8v-6.1c0-0.7-0.5-1.4-1.5-1.4c-1,0-1.6,0.6-1.6,1.4v6.1h-3.2V49.1H20v6.6h0c0.5-0.8,1.4-1.2,2.8-1.2
		c2.2,0,3.5,1.2,3.5,3.3v6.9H23.1z"/>
	<path class="st0" d="M35.2,65.2c-0.6-0.1-1.3-0.6-1.5-1.3c-0.4,0.8-1.4,1.2-2.6,1.2c-1.8,0-3.3-1.2-3.3-3.3c0-1.8,1.4-3.1,3.4-3.3
		l2-0.2V58c0-0.6-0.5-1-1.6-1c-1,0-2,0.3-2.8,0.8l-0.6-2.4c0.8-0.5,2.2-0.9,3.5-0.9c2.6,0,4.5,1.2,4.5,3.6v3.3
		c0,1.2,0.4,1.8,1.2,2.1L35.2,65.2z M33.1,60.4l-1.2,0.1c-0.8,0.1-1.2,0.7-1.2,1.3c0,0.5,0.4,1,1,1c0.8,0,1.4-0.6,1.4-1.5V60.4z"/>
	<path class="st0" d="M43.3,64.8h-2.4L37,54.8h3.1l1.4,3.8c0.2,0.5,0.4,1.3,0.5,1.9h0c0.2-0.6,0.4-1.4,0.6-1.9l1.4-3.8h3L43.3,64.8z
		"/>
	<path class="st0" d="M56.8,59.2l-1.4,1.5h-4.9c0.2,0.8,1.3,1.7,2.9,1.7c1,0,2.1-0.3,2.8-0.7l-0.3,2.8c-0.7,0.4-1.9,0.7-3.2,0.7
		c-3,0-5.5-2.1-5.5-5.4c0-3.2,2.3-5.3,5.2-5.3c2.8,0,4.5,1.9,4.5,4C56.8,58.7,56.8,59,56.8,59.2z M52.4,56.9c-0.9,0-1.7,0.7-1.9,1.6
		h3.4c0-0.1,0-0.1,0-0.2C53.8,57.6,53.2,56.9,52.4,56.9z"/>
	<path class="st0" d="M66.4,65.1c-2-0.1-3.4-1.1-3.4-3.5V49.1h3.2v12.1c0,0.8,0.5,1.3,1.3,1.3L66.4,65.1z"/>
	<path class="st0" d="M70.3,53.4c-0.6,0-1.7-1.2-1.7-1.7c0-0.6,1.2-1.7,1.7-1.7c0.6,0,1.7,1.1,1.7,1.7C72,52.3,70.9,53.4,70.3,53.4z
		 M68.7,64.8v-10h3.3v10H68.7z"/>
	<path class="st0" d="M80.8,52c-0.4-0.2-0.9-0.3-1.3-0.3c-1.2,0-1.8,0.7-1.8,2.1v0.9h2.9l-0.6,2.6h-2.2v7.3h-3.1v-7.3h-1.5v-2.6h1.5
		v-1.2c0-3,2-4.5,4.5-4.5c0.9,0,1.8,0.1,2.4,0.3L80.8,52z"/>
	<path class="st0" d="M90.4,59.2l-1.4,1.5h-4.9c0.2,0.8,1.3,1.7,2.9,1.7c1,0,2.1-0.3,2.8-0.7l-0.3,2.8c-0.7,0.4-1.9,0.7-3.2,0.7
		c-3,0-5.5-2.1-5.5-5.4c0-3.2,2.3-5.3,5.2-5.3c2.8,0,4.5,1.9,4.5,4C90.5,58.7,90.4,59,90.4,59.2z M86,56.9c-0.9,0-1.7,0.7-1.9,1.6
		h3.4c0-0.1,0-0.1,0-0.2C87.4,57.6,86.9,56.9,86,56.9z"/>
</g>
<g>
	<path class="st0" d="M18.5,79.4c-0.6,0-1.7-1.2-1.7-1.7c0-0.6,1.2-1.7,1.7-1.7c0.6,0,1.7,1.1,1.7,1.7C20.2,78.3,19,79.4,18.5,79.4z
		 M16.8,90.8v-10h3.3v10H16.8z"/>
	<path class="st0" d="M28.3,90.8v-6.1c0-0.7-0.5-1.4-1.5-1.4c-1,0-1.6,0.6-1.6,1.4v6.1H22v-10h3v1.3h0c0.4-1.1,1.4-1.7,3-1.7
		c2.2,0,3.5,1.2,3.5,3.3v6.9H28.3z"/>
	<path class="st0" d="M36.6,91c-1.4,0-2.4-0.3-3.2-0.7l-0.3-2.9c0.9,0.6,2,1.1,3.1,1.1c0.6,0,1-0.3,1-0.7c0-0.4-0.3-0.6-0.9-0.8
		c-1.9-0.5-3.1-1.5-3.1-3.3c0-2,1.6-3.2,3.7-3.2c1.2,0,2.4,0.3,2.9,0.6l-0.6,2.4c-0.5-0.3-1.3-0.6-2.1-0.6c-0.5,0-0.9,0.2-0.9,0.6
		c0,0.4,0.3,0.6,0.9,0.7c2.2,0.6,3.2,1.7,3.2,3.4C40.5,89.4,39.3,91,36.6,91z"/>
	<path class="st0" d="M48.4,90.8v-1.4h0C48,90.4,47,91,45.4,91c-2.2,0-3.5-1.2-3.5-3.3v-6.9h3.2v6.1c0,0.7,0.5,1.4,1.5,1.4
		c1,0,1.6-0.6,1.6-1.4v-6.1h3.2v10H48.4z"/>
	<path class="st0" d="M59.5,84.2c-0.2-0.1-0.6-0.2-1-0.2c-1,0-2,0.5-2,2.1v4.6h-3.2v-10h3.2V83h0c0.3-1.6,1.5-2.4,2.8-2.4
		c0.3,0,0.7,0,0.9,0.1L59.5,84.2z"/>
	<path class="st0" d="M68.1,91.2c-0.6-0.1-1.3-0.6-1.5-1.3c-0.4,0.8-1.4,1.2-2.6,1.2c-1.8,0-3.3-1.2-3.3-3.3c0-1.8,1.4-3.1,3.4-3.3
		l2-0.2V84c0-0.6-0.5-1-1.6-1c-1,0-2,0.3-2.8,0.8l-0.6-2.4c0.8-0.5,2.2-0.9,3.5-0.9c2.6,0,4.5,1.2,4.5,3.6v3.3
		c0,1.2,0.4,1.8,1.2,2.1L68.1,91.2z M66,86.4l-1.2,0.1c-0.8,0.1-1.2,0.7-1.2,1.3c0,0.5,0.4,1,1,1c0.8,0,1.4-0.6,1.4-1.5V86.4z"/>
	<path class="st0" d="M77.6,90.8v-6.1c0-0.7-0.5-1.4-1.5-1.4c-1,0-1.6,0.6-1.6,1.4v6.1h-3.2v-10h3v1.3h0c0.4-1.1,1.4-1.7,3-1.7
		c2.2,0,3.5,1.2,3.5,3.3v6.9H77.6z"/>
	<path class="st0" d="M90.2,84c-0.7-0.4-1.3-0.6-2.1-0.6c-1.4,0-2.5,1-2.5,2.5c0,1.4,1.1,2.5,2.6,2.5c0.8,0,1.5-0.2,2.2-0.6L90,90.5
		c-0.7,0.3-1.5,0.5-2.4,0.5c-2.8,0-5.4-2-5.4-5.2c0-3.3,2.6-5.2,5.3-5.2c1.3,0,2.4,0.3,3.3,0.7L90.2,84z"/>
	<path class="st0" d="M101.1,85.2l-1.4,1.5h-4.9c0.2,0.8,1.3,1.7,2.9,1.7c1,0,2.1-0.3,2.8-0.7l-0.3,2.8c-0.7,0.4-1.9,0.7-3.2,0.7
		c-3,0-5.5-2.1-5.5-5.4c0-3.2,2.3-5.3,5.2-5.3c2.8,0,4.5,1.9,4.5,4C101.2,84.7,101.2,85,101.1,85.2z M96.7,82.9
		c-0.9,0-1.7,0.7-1.9,1.6h3.4c0-0.1,0-0.1,0-0.2C98.2,83.6,97.6,82.9,96.7,82.9z"/>
	<path class="st0" d="M103.1,94.1l-1-0.2c0.7-0.9,1.3-2.1,1.5-3.1c-0.5-0.1-1.5-1.1-1.5-1.5c0-0.6,1.3-1.8,1.8-1.8
		c0.5,0,1.8,1.1,1.8,1.8C105.7,90.6,104.4,92.9,103.1,94.1z"/>
</g>
</svg>
