<?xml version="1.0" encoding="utf-8"?>
<!-- Generator: Adobe Illustrator 22.1.0, SVG Export Plug-In . SVG Version: 6.00 Build 0)  -->
<svg version="1.1" id="Layer_1" xmlns="http://www.w3.org/2000/svg" xmlns:xlink="http://www.w3.org/1999/xlink" x="0px" y="0px"
	 viewBox="0 0 160 600" style="enable-background:new 0 0 160 600;" xml:space="preserve">
<style type="text/css">
	.st0{fill:#48A642;}
	.st1{fill:none;stroke:#981B27;stroke-width:9.009;stroke-miterlimit:10;}
	.st2{fill:#429891;}
	.st3{fill:none;stroke:#981B27;stroke-width:2.84;stroke-miterlimit:10;}
	.st4{fill:#FAB016;}
	.st5{fill:#4F131E;}
	.st6{fill:#981B27;}
	.st7{display:none;fill:none;stroke:#429891;stroke-width:2.158;stroke-miterlimit:10;}
	.st8{display:none;fill:none;stroke:#429891;stroke-width:2.252;stroke-miterlimit:10;}
	.st9{fill:none;}
</style>
<rect x="-153.9" y="275" class="st0" width="446" height="637.3"/>
<line class="st1" x1="24.6" y1="276.5" x2="134.3" y2="276.5"/>
<rect x="46.1" y="225" class="st2" width="22" height="50.2"/>
<rect x="46.1" y="225" class="st3" width="22" height="50.2"/>
<path class="st4" d="M64.4,249.6c0,1.3-1,2.3-2.3,2.3c-1.3,0-2.3-1-2.3-2.3c0-1.3,1-2.3,2.3-2.3C63.4,247.3,64.4,248.3,64.4,249.6"
	/>
<rect x="106.7" y="176" class="st5" width="9.1" height="15.5"/>
<path class="st6" d="M117.9,178c0,0.9-0.9,1.6-1.9,1.6h-9.4c-1.1,0-1.9-0.7-1.9-1.6v-2.8c0-0.9,0.9-1.6,1.9-1.6h9.4
	c1.1,0,1.9,0.7,1.9,1.6V178z"/>
<polygon class="st6" points="132.4,214 80.8,179.6 29.2,214 26.5,204.1 80.8,167.9 135.2,204.1 "/>
<rect x="75.5" y="225.2" class="st6" width="9.7" height="23.9"/>
<rect x="112.1" y="225.2" class="st6" width="9.8" height="23.9"/>
<rect x="86" y="226.3" class="st7" width="25.8" height="21.7"/>
<line class="st7" x1="98.8" y1="226.2" x2="98.8" y2="248.5"/>
<line class="st7" x1="85.6" y1="237.3" x2="112.1" y2="237.3"/>
<rect x="71" y="193.8" class="st8" width="19.3" height="19.3"/>
<line class="st8" x1="80.7" y1="193.7" x2="80.7" y2="213.5"/>
<line class="st8" x1="70.8" y1="203.6" x2="90.6" y2="203.6"/>
<line class="st1" x1="24.6" y1="276.5" x2="130" y2="276.5"/>
<path class="st0" d="M121,275.7c-1.5-1.2-5-1.4-5.9,0.7c0.5-1.9-0.4-4.5-1.9-5.7c-1.4-1.1-3.2-1.4-4.9-1.1c-3.2,0.5-6,3-6.4,6.4
	c-0.7-1.1-1.8-1.8-3.1-1.8c-1.4,0-2.6,0.8-3.2,2c-1-1.9-4.3-1.7-5.8-0.6c-1.8,1.4-1.9,4-1.4,6.2h9.2h4.4h20.5
	C122.9,279.7,122.7,277.2,121,275.7"/>
<rect y="146" class="st9" width="160" height="454"/>
<rect class="st9" width="160" height="600"/>
</svg>
