<?xml version="1.0" encoding="utf-8"?>
<!-- Generator: Adobe Illustrator 22.1.0, SVG Export Plug-In . SVG Version: 6.00 Build 0)  -->
<svg version="1.1" xmlns="http://www.w3.org/2000/svg" xmlns:xlink="http://www.w3.org/1999/xlink" x="0px" y="0px"
	 viewBox="0 0 160 600" style="enable-background:new 0 0 160 600;" xml:space="preserve">
<style type="text/css">
	.st0{fill:#00C2FF;}
	.st1{clip-path:url(#SVGID_2_);fill:url(#SVGID_3_);}
	.st2{clip-path:url(#SVGID_5_);fill:url(#SVGID_6_);}
	.st3{clip-path:url(#SVGID_8_);fill:url(#SVGID_9_);}
	.st4{clip-path:url(#SVGID_11_);fill:url(#SVGID_12_);}
	.st5{fill:#FFFFFF;}
	.st6{fill:none;}
</style>
<g id="Layer_2">
	<path class="st0" d="M0,0h160v600H0V0z M105.7,314.9c15,0,27.3-12.2,27.3-27.2v-62h-62c-14.9,0-27.2,12.3-27.2,27.1v62.1H105.7z"/>
</g>
<g id="Layer_1">
	<g>
		<defs>
			<path id="SVGID_1_" d="M105.7,318.9H39.7l-13.5,13.5h72.9c4.5-1,8.6-3.3,11.8-6.4l10.3-10.3l-0.6-0.6
				C116.2,317.5,111.1,318.9,105.7,318.9"/>
		</defs>
		<clipPath id="SVGID_2_">
			<use xlink:href="#SVGID_1_"  style="overflow:visible;"/>
		</clipPath>
		
			<linearGradient id="SVGID_3_" gradientUnits="userSpaceOnUse" x1="1.0557" y1="600.9834" x2="2.0557" y2="600.9834" gradientTransform="matrix(0 -17.9611 -17.9611 0 10868.0957 352.0345)">
			<stop  offset="0" style="stop-color:#10B0E6"/>
			<stop  offset="0.1593" style="stop-color:#0FAAE1"/>
			<stop  offset="0.3678" style="stop-color:#0C9AD2"/>
			<stop  offset="0.6035" style="stop-color:#077FBA"/>
			<stop  offset="0.8576" style="stop-color:#015999"/>
			<stop  offset="0.89" style="stop-color:#005494"/>
			<stop  offset="1" style="stop-color:#005494"/>
		</linearGradient>
		<rect x="26.3" y="315" class="st1" width="94.9" height="17.3"/>
	</g>
	<g>
		<defs>
			<path id="SVGID_4_" d="M32.7,247.7c-4.3,4.4-7,10.5-7,17.2v67.4h0.6l13.5-13.5v-66.1c0-5.3,1.3-10.3,3.8-14.9l-0.6-0.6
				L32.7,247.7z"/>
		</defs>
		<clipPath id="SVGID_5_">
			<use xlink:href="#SVGID_4_"  style="overflow:visible;"/>
		</clipPath>
		
			<linearGradient id="SVGID_6_" gradientUnits="userSpaceOnUse" x1="1.0104" y1="601" x2="2.0104" y2="601" gradientTransform="matrix(0 -95.9594 -95.9594 0 57706.2109 430.6603)">
			<stop  offset="0" style="stop-color:#0081BD"/>
			<stop  offset="0.3934" style="stop-color:#006FAC"/>
			<stop  offset="0.85" style="stop-color:#005494"/>
			<stop  offset="1" style="stop-color:#005494"/>
		</linearGradient>
		<rect x="25.7" y="237.4" class="st2" width="17.9" height="94.9"/>
	</g>
	<g>
		<defs>
			<path id="SVGID_7_" d="M105.7,318.9H39.7l-13.5,13.5h72.9c4.5-1,8.6-3.3,11.8-6.4l10.3-10.3l-0.6-0.6
				C116.2,317.5,111.1,318.9,105.7,318.9"/>
		</defs>
		<clipPath id="SVGID_8_">
			<use xlink:href="#SVGID_7_"  style="overflow:visible;"/>
		</clipPath>
		
			<linearGradient id="SVGID_9_" gradientUnits="userSpaceOnUse" x1="1" y1="601.0137" x2="2" y2="601.0137" gradientTransform="matrix(94.5044 0 0 -94.5044 -68.4552 57122.1211)">
			<stop  offset="0" style="stop-color:#10B0E6"/>
			<stop  offset="0.1611" style="stop-color:#0FAAE1"/>
			<stop  offset="0.3719" style="stop-color:#0C9AD2"/>
			<stop  offset="0.6102" style="stop-color:#077FBA"/>
			<stop  offset="0.8672" style="stop-color:#015999"/>
			<stop  offset="0.9" style="stop-color:#005494"/>
			<stop  offset="1" style="stop-color:#005494"/>
		</linearGradient>
		<rect x="26.3" y="315" class="st3" width="94.9" height="17.3"/>
	</g>
	<g>
		<defs>
			<path id="SVGID_10_" d="M105.7,318.9H39.7l-13.5,13.5h72.9c4.5-1,8.6-3.3,11.8-6.4l10.3-10.3l-0.6-0.6
				C116.2,317.5,111.1,318.9,105.7,318.9"/>
		</defs>
		<clipPath id="SVGID_11_">
			<use xlink:href="#SVGID_10_"  style="overflow:visible;"/>
		</clipPath>
		
			<linearGradient id="SVGID_12_" gradientUnits="userSpaceOnUse" x1="1" y1="601.0137" x2="2" y2="601.0137" gradientTransform="matrix(94.5044 0 0 -94.5044 -68.4552 57122.1211)">
			<stop  offset="0" style="stop-color:#10B0E6"/>
			<stop  offset="0.1611" style="stop-color:#0FAAE1"/>
			<stop  offset="0.3719" style="stop-color:#0C9AD2"/>
			<stop  offset="0.6102" style="stop-color:#077FBA"/>
			<stop  offset="0.8672" style="stop-color:#015999"/>
			<stop  offset="0.9" style="stop-color:#005494"/>
			<stop  offset="1" style="stop-color:#005494"/>
		</linearGradient>
		<rect x="26.3" y="315" class="st4" width="94.9" height="17.3"/>
	</g>
	<path class="st5" d="M48.3,230.9c-5.9,5.9-9.2,13.7-9.2,21.9v66.1h65.9c17.2,0,31.2-14,31.2-31.2v-66h-66
		C62.1,221.7,54.2,225,48.3,230.9z M132.9,225.7v62c0,15-12.2,27.2-27.3,27.2h-62v-62.1c0-14.8,12.3-27.1,27.2-27.1H132.9z"/>
	<rect x="25.7" y="221.7" class="st6" width="110.6" height="110.6"/>
	<g>
		<rect x="25.7" y="221.7" class="st6" width="110.6" height="110.6"/>
	</g>
</g>
</svg>
