<svg xmlns="http://www.w3.org/2000/svg" width="728" height="90" viewBox="0 0 728 90"><style>.st0{fill:#231f20}</style><g id="Layer_2"><path class="st0" d="M45.617 40.127c-.78-.468-2.054-.858-3.432-.858-2.938 0-5.304 1.976-5.304 5.044 0 3.042 2.34 5.071 5.486 5.071 1.378 0 2.6-.261 3.458-.729l-.338 3.51c-.884.416-2.08.624-3.77.624-4.291 0-8.893-2.912-8.893-8.528s4.628-8.554 8.893-8.554c2.054 0 3.666.442 4.654 1.014l-.754 3.406zM54.3 52.921c-3.562 0-6.422-2.522-6.422-6.267 0-3.745 2.86-6.267 6.422-6.267 3.536 0 6.422 2.522 6.422 6.267 0 3.744-2.886 6.267-6.422 6.267zm0-9.205c-1.43 0-2.652 1.248-2.652 2.99s1.222 2.99 2.652 2.99c1.404 0 2.652-1.248 2.652-2.99s-1.248-2.99-2.652-2.99zM69.978 52.557v-7.229c0-.858-.572-1.612-1.742-1.612-1.144 0-1.872.728-1.872 1.664v7.177h-3.822V40.778h3.51v1.586h.026c.468-1.248 1.69-1.95 3.588-1.95 2.574 0 4.134 1.456 4.134 3.952v8.191h-3.822zM79.91 52.816c-1.612 0-2.782-.338-3.744-.832l-.338-3.38c1.04.728 2.392 1.273 3.692 1.273.702 0 1.144-.363 1.144-.806 0-.494-.39-.702-1.066-.91-2.262-.649-3.614-1.794-3.614-3.848 0-2.314 1.872-3.796 4.42-3.796 1.456 0 2.886.39 3.484.702l-.65 2.808c-.572-.312-1.508-.65-2.444-.65-.624 0-1.04.286-1.04.754 0 .442.312.676 1.04.858 2.652.703 3.744 2.029 3.744 4.004 0 2.003-1.456 3.823-4.628 3.823zM92.312 52.921c-3.562 0-6.422-2.522-6.422-6.267 0-3.745 2.86-6.267 6.422-6.267 3.536 0 6.422 2.522 6.422 6.267 0 3.744-2.886 6.267-6.422 6.267zm0-9.205c-1.43 0-2.652 1.248-2.652 2.99s1.222 2.99 2.652 2.99c1.404 0 2.652-1.248 2.652-2.99s-1.248-2.99-2.652-2.99zM104.688 53.024c-2.418-.104-4.03-1.352-4.03-4.187V34.043h3.77V48.37c0 .962.546 1.482 1.586 1.561l-1.326 3.093zM109.575 39.166c-.676 0-2.054-1.378-2.054-2.054 0-.676 1.378-2.028 2.054-2.028s2.054 1.352 2.054 2.028-1.378 2.054-2.054 2.054zm-1.924 13.391V40.778h3.848v11.779h-3.848zM122.783 52.557v-1.456h-.026c-.65 1.196-2.002 1.794-3.64 1.794-2.886 0-5.668-2.185-5.668-6.214 0-3.797 2.704-6.267 5.98-6.267 1.248 0 2.522.416 2.99.806v-7.176h3.718v18.513h-3.354zm-.364-7.723c-.364-.494-1.144-1.066-2.314-1.066-1.664 0-2.834 1.3-2.834 2.99 0 1.69 1.17 2.99 2.834 2.99a2.74 2.74 0 0 0 2.314-1.222v-3.692zM136.823 53.076c-.702-.155-1.508-.702-1.82-1.56-.52.962-1.638 1.43-3.068 1.43-2.08 0-3.926-1.456-3.926-3.9 0-2.157 1.69-3.614 4.03-3.848l2.34-.234v-.39c0-.702-.572-1.17-1.846-1.17-1.144 0-2.418.364-3.276.91l-.676-2.886c.962-.624 2.574-1.04 4.134-1.04 3.12 0 5.33 1.43 5.33 4.264V48.5c0 1.378.52 2.106 1.43 2.444l-2.652 2.132zm-2.444-5.668l-1.43.13c-.988.078-1.43.78-1.43 1.482 0 .624.468 1.144 1.196 1.144.91 0 1.664-.702 1.664-1.716v-1.04zM148.626 43.898h-3.068v4.369c0 1.014.546 1.43 1.56 1.43.442 0 .702-.026.988-.156l-.338 2.887c-.364.182-1.014.312-1.768.312-2.652 0-4.238-1.404-4.238-3.744V43.9h-1.976v-3.12h1.976v-2.522l3.796-1.378v3.9h3.796l-.728 3.118zM161.444 46.004l-1.69 1.717h-5.772c.182.962 1.482 2.054 3.484 2.054 1.222 0 2.47-.364 3.25-.884l-.364 3.275c-.884.469-2.236.78-3.744.78-3.588 0-6.475-2.496-6.475-6.344 0-3.797 2.756-6.215 6.137-6.215 3.276 0 5.278 2.262 5.278 4.706 0 .287-.051.678-.104.911zm-5.173-2.756c-1.118 0-2.054.858-2.288 1.924h3.978c0-.078.026-.156.026-.26-.001-.806-.703-1.664-1.716-1.664zM178.188 44.574c-.78-.494-1.586-.754-2.522-.754-1.664 0-2.99 1.196-2.99 2.913 0 1.689 1.326 2.912 3.068 2.912.988 0 1.742-.208 2.574-.65l-.338 3.25c-.78.364-1.794.572-2.886.572-3.302 0-6.37-2.34-6.37-6.136 0-3.849 3.094-6.163 6.292-6.163 1.56 0 2.834.312 3.875.884l-.703 3.172zM186.69 52.921c-3.562 0-6.422-2.522-6.422-6.267 0-3.745 2.86-6.267 6.422-6.267 3.536 0 6.422 2.522 6.422 6.267 0 3.744-2.885 6.267-6.422 6.267zm0-9.205c-1.43 0-2.652 1.248-2.652 2.99s1.222 2.99 2.652 2.99c1.404 0 2.652-1.248 2.652-2.99s-1.248-2.99-2.652-2.99zM202.368 52.557v-7.229c0-.858-.572-1.612-1.742-1.612-1.144 0-1.872.728-1.872 1.664v7.177h-3.822V40.778h3.51v1.586h.026c.468-1.248 1.69-1.95 3.588-1.95 2.574 0 4.134 1.456 4.134 3.952v8.191h-3.822zM216.667 37.45a4.485 4.485 0 0 0-1.534-.312c-1.404 0-2.132.832-2.132 2.522v1.118h3.38l-.754 3.12h-2.626v8.659h-3.692v-8.659h-1.794v-3.12h1.794V39.4c0-3.588 2.314-5.356 5.278-5.356 1.092 0 2.184.13 2.782.39l-.702 3.016zM219.761 39.166c-.676 0-2.054-1.378-2.054-2.054 0-.676 1.378-2.028 2.054-2.028s2.054 1.352 2.054 2.028-1.378 2.054-2.054 2.054zm-1.924 13.391V40.778h3.848v11.779h-3.848zM232.969 52.557v-1.456h-.026c-.65 1.196-2.002 1.794-3.64 1.794-2.886 0-5.668-2.185-5.668-6.214 0-3.797 2.704-6.267 5.98-6.267 1.248 0 2.522.416 2.99.806v-7.176h3.718v18.513h-3.354zm-.364-7.723c-.364-.494-1.144-1.066-2.314-1.066-1.664 0-2.834 1.3-2.834 2.99 0 1.69 1.17 2.99 2.834 2.99a2.74 2.74 0 0 0 2.314-1.222v-3.692zM249.505 46.004l-1.69 1.717h-5.772c.182.962 1.482 2.054 3.484 2.054 1.222 0 2.47-.364 3.25-.884l-.364 3.275c-.884.469-2.236.78-3.744.78-3.588 0-6.475-2.496-6.475-6.344 0-3.797 2.756-6.215 6.137-6.215 3.276 0 5.278 2.262 5.278 4.706 0 .287-.052.678-.104.911zm-5.174-2.756c-1.118 0-2.054.858-2.288 1.924h3.978c0-.078.026-.156.026-.26 0-.806-.702-1.664-1.716-1.664zM258.812 52.557v-7.229c0-.858-.572-1.612-1.742-1.612-1.144 0-1.872.728-1.872 1.664v7.177h-3.822V40.778h3.51v1.586h.026c.468-1.248 1.69-1.95 3.588-1.95 2.574 0 4.134 1.456 4.134 3.952v8.191h-3.822zM272.801 43.898h-3.068v4.369c0 1.014.546 1.43 1.561 1.43.442 0 .702-.026.988-.156l-.338 2.887c-.364.182-1.014.312-1.768.312-2.652 0-4.238-1.404-4.238-3.744V43.9h-1.976v-3.12h1.976v-2.522l3.796-1.378v3.9h3.796l-.729 3.118zM278.911 53.024c-2.418-.104-4.03-1.352-4.03-4.187V34.043h3.77V48.37c0 .962.546 1.482 1.586 1.561l-1.326 3.093zM288.999 51.387c-1.794 4.731-3.667 6.448-5.876 7.306l-2.34-2.34c1.898-.728 3.354-2.106 4.316-4.603l-4.238-10.972h3.692l1.716 4.576c.26.676.52 1.482.702 2.314h.052a30.35 30.35 0 0 1 .754-2.314l1.716-4.576h3.51l-4.004 10.609zM313.23 52.66h-2.626l-1.586-4.68a50.607 50.607 0 0 1-.702-2.444h-.052a20.009 20.009 0 0 1-.65 2.418l-1.586 4.706h-2.496l-4.108-11.882h3.484l1.456 4.472c.208.676.442 1.508.572 2.263h.052c.13-.729.338-1.587.572-2.263l1.482-4.472h2.886l1.482 4.446c.234.728.39 1.534.546 2.289h.052a21.01 21.01 0 0 1 .598-2.289l1.482-4.446h3.25L313.23 52.66zM320.77 39.166c-.676 0-2.054-1.378-2.054-2.054 0-.676 1.378-2.028 2.054-2.028s2.054 1.352 2.054 2.028c0 .676-1.378 2.054-2.054 2.054zm-1.924 13.391V40.778h3.848v11.779h-3.848zM332.99 43.898h-3.068v4.369c0 1.014.546 1.43 1.56 1.43.442 0 .702-.026.988-.156l-.338 2.887c-.364.182-1.014.312-1.768.312-2.652 0-4.238-1.404-4.238-3.744V43.9h-1.976v-3.12h1.976v-2.522l3.796-1.378v3.9h3.796l-.728 3.118zM342.506 52.557v-7.229c0-.858-.598-1.612-1.769-1.612-1.144 0-1.846.728-1.846 1.664v7.177h-3.822V34.043h3.77v7.826h.026c.598-.91 1.69-1.456 3.328-1.456 2.601 0 4.134 1.456 4.134 3.952v8.191l-3.821.001zM362.786 53.076c-.702-.155-1.508-.702-1.82-1.56-.52.962-1.638 1.43-3.068 1.43-2.08 0-3.926-1.456-3.926-3.9 0-2.157 1.69-3.614 4.03-3.848l2.34-.234v-.39c0-.702-.572-1.17-1.846-1.17-1.144 0-2.418.364-3.276.91l-.676-2.886c.962-.624 2.574-1.04 4.134-1.04 3.12 0 5.33 1.43 5.33 4.264V48.5c0 1.378.52 2.106 1.43 2.444l-2.652 2.132zm-2.444-5.668l-1.43.13c-.988.078-1.43.78-1.43 1.482 0 .624.468 1.144 1.196 1.144.91 0 1.664-.702 1.664-1.716v-1.04zM380.361 39.27v13.287h-4.03V39.27h-4.759v-3.302h13.547v3.302h-4.758zM386.887 52.557v-16.59h4.03v16.589l-4.03.001zM404.567 52.557l-1.378-3.744h-5.278l-1.378 3.744h-3.797l6.526-16.719h2.782l6.526 16.719h-4.003zm-3.51-9.959c-.156-.442-.363-.988-.494-1.534h-.052c-.13.546-.312 1.118-.468 1.534l-1.118 3.068h3.25l-1.118-3.068zM420.896 52.557l-1.378-3.744h-5.278l-1.378 3.744h-3.797l6.526-16.719h2.782l6.526 16.719h-4.003zm-3.511-9.959c-.156-.442-.363-.988-.494-1.534h-.052c-.13.546-.312 1.118-.468 1.534l-1.118 3.068h3.25l-1.118-3.068zM432.595 52.557v-16.59h4.03v16.589l-4.03.001zM448.923 52.557l-4.446-6.526h-1.065v6.526h-3.874v-16.59h6.058c2.834 0 5.356 1.898 5.356 5.019 0 1.924-1.145 3.51-2.548 4.16l5.278 7.411h-4.759zm-3.926-13.339h-1.586v3.718h1.586c1.04 0 2.08-.572 2.08-1.846 0-1.248-1.04-1.872-2.08-1.872z"/><path class="st0" d="M464.965 52.557l-1.379-3.744h-5.277l-1.379 3.744h-3.796l6.526-16.719h2.782l6.526 16.719h-4.003zm-3.511-9.959c-.155-.442-.364-.988-.494-1.534h-.052c-.13.546-.312 1.118-.468 1.534l-1.118 3.068h3.25l-1.118-3.068z"/></g><path class="st0" d="M471.803 52.804c-.702 0-2.158-1.456-2.158-2.158 0-.677 1.456-2.133 2.158-2.133s2.158 1.456 2.158 2.133c0 .702-1.456 2.158-2.158 2.158z" id="Layer_3"/></svg>