<svg id="Layer_1" xmlns="http://www.w3.org/2000/svg" width="728" height="90" viewBox="0 0 728 90"><style>.st0{fill:#231f20}</style><path class="st0" d="M39.048 28.898H35.98v4.368c0 1.014.546 1.43 1.56 1.43.442 0 .702-.026.988-.156l-.338 2.886c-.364.182-1.014.312-1.768.312-2.652 0-4.238-1.404-4.238-3.744v-5.096h-1.976v-3.12h1.976v-2.522l3.796-1.378v3.9h3.796l-.728 3.12zM48.564 37.556v-7.229c0-.858-.598-1.612-1.769-1.612-1.144 0-1.846.728-1.846 1.664v7.176h-3.822V19.043h3.77v7.826h.026c.598-.91 1.69-1.456 3.328-1.456 2.601 0 4.134 1.456 4.134 3.952v8.19h-3.821zM65.568 31.004l-1.69 1.716h-5.772c.182.962 1.482 2.054 3.484 2.054 1.222 0 2.47-.364 3.25-.884l-.364 3.276c-.884.468-2.236.78-3.744.78-3.588 0-6.474-2.496-6.474-6.344 0-3.796 2.756-6.214 6.136-6.214 3.276 0 5.278 2.262 5.278 4.706 0 .286-.052.676-.104.91zm-5.174-2.756c-1.118 0-2.054.858-2.288 1.924h3.979c0-.078.026-.156.026-.26-.001-.806-.703-1.664-1.717-1.664zM74.304 36.386c-1.794 4.732-3.666 6.448-5.876 7.306l-2.34-2.34c1.898-.728 3.354-2.106 4.316-4.602l-4.238-10.972h3.692l1.716 4.576c.26.676.521 1.482.702 2.314h.052a30.35 30.35 0 0 1 .754-2.314l1.716-4.576h3.51l-4.004 10.608zM94.61 29.574c-.78-.494-1.586-.754-2.522-.754-1.664 0-2.99 1.196-2.99 2.912 0 1.69 1.326 2.912 3.068 2.912.988 0 1.742-.208 2.574-.65l-.338 3.25c-.78.364-1.794.572-2.886.572-3.302 0-6.37-2.34-6.37-6.136 0-3.849 3.094-6.163 6.292-6.163 1.56 0 2.834.312 3.874.884l-.702 3.173zM102.852 37.92c-3.562 0-6.422-2.522-6.422-6.267s2.86-6.266 6.422-6.266c3.536 0 6.422 2.522 6.422 6.266s-2.886 6.267-6.422 6.267zm0-9.204c-1.43 0-2.652 1.248-2.652 2.99 0 1.742 1.222 2.99 2.652 2.99 1.404 0 2.652-1.248 2.652-2.99-.001-1.742-1.249-2.99-2.652-2.99zM118.894 37.556v-1.612h-.026c-.468 1.248-1.716 1.95-3.614 1.95-2.574 0-4.134-1.43-4.134-3.926v-8.19h3.822v7.228c0 .858.598 1.612 1.768 1.612 1.144 0 1.846-.754 1.846-1.69v-7.15h3.822v11.778h-3.484zM128.877 38.024c-2.418-.104-4.03-1.352-4.03-4.186V19.043h3.77V33.37c0 .962.546 1.482 1.586 1.56l-1.326 3.094zM140.421 37.556V36.1h-.026c-.65 1.196-2.002 1.794-3.64 1.794-2.886 0-5.668-2.184-5.668-6.214 0-3.796 2.704-6.267 5.98-6.267 1.248 0 2.522.416 2.99.806v-7.176h3.718v18.513h-3.354zm-.364-7.722c-.364-.494-1.144-1.066-2.314-1.066-1.664 0-2.834 1.3-2.834 2.99s1.17 2.99 2.834 2.99a2.74 2.74 0 0 0 2.314-1.222v-3.692zM160.363 38.076c-.702-.156-1.508-.702-1.82-1.56-.52.962-1.638 1.43-3.068 1.43-2.08 0-3.926-1.456-3.926-3.9 0-2.158 1.69-3.614 4.03-3.848l2.34-.234v-.39c0-.702-.572-1.17-1.846-1.17-1.144 0-2.418.364-3.276.91l-.676-2.886c.962-.624 2.574-1.04 4.134-1.04 3.12 0 5.33 1.43 5.33 4.264V33.5c0 1.378.52 2.106 1.43 2.444l-2.652 2.132zm-2.444-5.668l-1.43.13c-.988.078-1.43.78-1.43 1.482 0 .624.468 1.144 1.196 1.144.91 0 1.664-.702 1.664-1.716v-1.04zM173.025 29.574c-.78-.494-1.586-.754-2.522-.754-1.664 0-2.99 1.196-2.99 2.912 0 1.69 1.326 2.912 3.068 2.912.988 0 1.742-.208 2.574-.65l-.338 3.25c-.78.364-1.794.572-2.886.572-3.302 0-6.37-2.34-6.37-6.136 0-3.849 3.094-6.163 6.292-6.163 1.56 0 2.834.312 3.874.884l-.702 3.173zM183.061 37.556v-7.229c0-.858-.598-1.612-1.769-1.612-1.144 0-1.846.728-1.846 1.664v7.176h-3.822V19.043h3.77v7.826h.026c.598-.91 1.69-1.456 3.328-1.456 2.601 0 4.134 1.456 4.134 3.952v8.19h-3.821zM191.25 24.166c-.676 0-2.054-1.378-2.054-2.054 0-.676 1.378-2.028 2.054-2.028.676 0 2.054 1.352 2.054 2.028 0 .676-1.378 2.054-2.054 2.054zm-1.924 13.39V25.778h3.848v11.778h-3.848zM206.382 31.004l-1.69 1.716h-5.772c.182.962 1.482 2.054 3.484 2.054 1.222 0 2.47-.364 3.25-.884l-.364 3.276c-.884.468-2.236.78-3.744.78-3.588 0-6.475-2.496-6.475-6.344 0-3.796 2.756-6.214 6.137-6.214 3.276 0 5.278 2.262 5.278 4.706 0 .286-.052.676-.104.91zm-5.174-2.756c-1.118 0-2.054.858-2.288 1.924h3.978c0-.078.026-.156.026-.26 0-.806-.702-1.664-1.716-1.664zM214.39 37.66h-2.86l-4.524-11.882h3.692l1.664 4.498c.234.624.468 1.508.65 2.288h.052c.182-.754.442-1.664.676-2.288l1.664-4.498h3.536l-4.55 11.882zM230.562 31.004l-1.69 1.716H223.1c.182.962 1.482 2.054 3.484 2.054 1.222 0 2.47-.364 3.25-.884l-.364 3.276c-.884.468-2.236.78-3.744.78-3.588 0-6.475-2.496-6.475-6.344 0-3.796 2.756-6.214 6.137-6.214 3.276 0 5.278 2.262 5.278 4.706 0 .286-.052.676-.104.91zm-5.174-2.756c-1.118 0-2.054.858-2.288 1.924h3.978c0-.078.026-.156.026-.26 0-.806-.703-1.664-1.716-1.664z"/><g><path class="st0" d="M34.992 63.816c-1.612 0-2.782-.338-3.744-.832l-.338-3.38c1.04.728 2.392 1.273 3.692 1.273.702 0 1.144-.363 1.144-.806 0-.494-.39-.702-1.066-.91-2.262-.649-3.614-1.794-3.614-3.848 0-2.314 1.872-3.797 4.42-3.797 1.456 0 2.886.391 3.484.702l-.65 2.809c-.572-.312-1.508-.65-2.444-.65-.624 0-1.04.286-1.04.754 0 .442.312.677 1.04.858 2.652.702 3.744 2.028 3.744 4.004 0 2.003-1.456 3.823-4.628 3.823zM47.265 63.921c-3.562 0-6.422-2.522-6.422-6.267s2.86-6.267 6.422-6.267c3.536 0 6.422 2.522 6.422 6.267s-2.886 6.267-6.422 6.267zm0-9.205c-1.43 0-2.652 1.248-2.652 2.99s1.222 2.99 2.652 2.99c1.404 0 2.652-1.248 2.652-2.99s-1.249-2.99-2.652-2.99zM70.066 63.557v-7.229c0-.858-.416-1.612-1.664-1.612-1.222 0-1.769.729-1.769 1.664v7.177h-3.822v-7.229c0-.858-.416-1.612-1.664-1.612-1.222 0-1.768.729-1.768 1.664v7.177h-3.822V51.778h3.536v1.586h.026c.468-1.248 1.638-1.95 3.484-1.95 1.69 0 2.964.676 3.484 1.924.494-1.144 1.872-1.924 3.64-1.924 2.678 0 4.16 1.456 4.16 3.952v8.19h-3.821zM87.096 57.004l-1.69 1.717h-5.772c.182.962 1.482 2.054 3.484 2.054 1.222 0 2.47-.364 3.25-.884l-.364 3.275c-.884.469-2.236.78-3.744.78-3.588 0-6.475-2.496-6.475-6.344 0-3.797 2.756-6.215 6.137-6.215 3.276 0 5.278 2.263 5.278 4.706 0 .287-.052.678-.104.911zm-5.174-2.756c-1.118 0-2.054.858-2.288 1.924h3.978c0-.078.026-.155.026-.26 0-.806-.702-1.664-1.716-1.664zM97.028 54.898H93.96v4.368c0 1.014.546 1.43 1.56 1.43.442 0 .702-.026.988-.156l-.338 2.887c-.364.182-1.014.312-1.768.312-2.652 0-4.238-1.404-4.238-3.744v-5.096h-1.976v-3.12h1.976v-2.522l3.796-1.378v3.9h3.796l-.728 3.119zM106.544 63.557v-7.229c0-.858-.598-1.612-1.769-1.612-1.144 0-1.846.729-1.846 1.664v7.177h-3.822V45.043h3.77v7.827h.026c.598-.91 1.69-1.456 3.328-1.456 2.601 0 4.134 1.456 4.134 3.952v8.19h-3.821zM114.733 50.166c-.676 0-2.054-1.378-2.054-2.054 0-.677 1.378-2.028 2.054-2.028.676 0 2.054 1.352 2.054 2.028 0 .676-1.378 2.054-2.054 2.054zm-1.924 13.391V51.778h3.848v11.778h-3.848zM126.563 63.557v-7.229c0-.858-.572-1.612-1.742-1.612-1.144 0-1.872.729-1.872 1.664v7.177h-3.822V51.778h3.51v1.586h.026c.468-1.248 1.69-1.95 3.588-1.95 2.574 0 4.134 1.456 4.134 3.952v8.19h-3.822zM137.769 69.562c-3.432 0-5.72-1.95-5.72-4.42 0-1.794 1.196-2.86 2.418-3.172l-1.508-1.509c.104-.754.754-1.403 1.43-1.689a3.705 3.705 0 0 1-1.716-3.146c0-2.496 1.794-4.238 4.862-4.238.702 0 1.248.104 1.742.234.52.13 1.092.208 1.69.208.65 0 1.326-.156 1.846-.39l.702 2.912c-.364.208-.936.39-1.456.363.13.234.286.78.286 1.196 0 1.977-1.56 3.641-3.848 3.796-.468.026-.78.13-.78.442 0 .13.104.286.312.364l1.82.649c2.314.832 3.562 2.002 3.562 4.16 0 2.42-2.21 4.24-5.642 4.24zm.806-5.538l-1.404-.39c-.91.025-1.586.676-1.586 1.534 0 .806.702 1.481 2.08 1.481 1.352 0 2.08-.624 2.08-1.3 0-.544-.416-1.117-1.17-1.325zm-1.04-9.854c-.858 0-1.508.65-1.508 1.404 0 .78.65 1.404 1.508 1.404.832 0 1.508-.624 1.508-1.404 0-.754-.624-1.404-1.508-1.404zM158.205 55.834a2.842 2.842 0 0 0-1.144-.286c-1.222 0-2.34.65-2.34 2.522v5.486h-3.822V51.778h3.77v2.626h.026c.39-1.847 1.769-2.834 3.354-2.834.364 0 .806.052 1.092.155l-.936 4.109zM170.944 57.004l-1.69 1.717h-5.772c.182.962 1.482 2.054 3.484 2.054 1.222 0 2.47-.364 3.25-.884l-.364 3.275c-.884.469-2.236.78-3.744.78-3.588 0-6.475-2.496-6.475-6.344 0-3.797 2.756-6.215 6.137-6.215 3.276 0 5.278 2.263 5.278 4.706 0 .287-.051.678-.104.911zm-5.173-2.756c-1.118 0-2.054.858-2.288 1.924h3.978c0-.078.026-.155.026-.26-.001-.806-.703-1.664-1.716-1.664zM181.084 64.076c-.702-.155-1.508-.702-1.82-1.56-.52.962-1.638 1.43-3.068 1.43-2.08 0-3.926-1.456-3.926-3.9 0-2.157 1.69-3.613 4.03-3.848l2.34-.234v-.39c0-.702-.572-1.17-1.846-1.17-1.144 0-2.418.364-3.276.91l-.676-2.887c.962-.624 2.574-1.04 4.134-1.04 3.12 0 5.33 1.431 5.33 4.265V59.5c0 1.378.52 2.106 1.43 2.444l-2.652 2.132zm-2.444-5.668l-1.43.13c-.988.078-1.43.78-1.43 1.482 0 .624.468 1.144 1.196 1.144.91 0 1.664-.702 1.664-1.716v-1.04zM189.014 64.024c-2.418-.104-4.03-1.352-4.03-4.187V45.043h3.77V59.37c0 .962.546 1.482 1.586 1.561l-1.326 3.093zM195.826 64.024c-2.418-.104-4.03-1.352-4.03-4.187V45.043h3.77V59.37c0 .962.546 1.482 1.586 1.561l-1.326 3.093zM205.42 62.387c-1.794 4.731-3.666 6.448-5.876 7.307l-2.34-2.341c1.898-.728 3.354-2.106 4.316-4.603l-4.238-10.972h3.692l1.716 4.576c.26.676.521 1.481.702 2.313h.052c.234-.806.494-1.638.754-2.313l1.716-4.576h3.51l-4.004 10.609zM220.552 63.816c-1.612 0-2.782-.338-3.744-.832l-.338-3.38c1.04.728 2.392 1.273 3.692 1.273.702 0 1.144-.363 1.144-.806 0-.494-.39-.702-1.066-.91-2.262-.649-3.614-1.794-3.614-3.848 0-2.314 1.872-3.797 4.42-3.797 1.456 0 2.886.391 3.484.702l-.65 2.809c-.572-.312-1.508-.65-2.444-.65-.624 0-1.04.286-1.04.754 0 .442.312.677 1.04.858 2.652.702 3.744 2.028 3.744 4.004 0 2.003-1.456 3.823-4.628 3.823zM239.74 63.66h-2.626l-1.586-4.68a50.607 50.607 0 0 1-.702-2.444h-.052a20.009 20.009 0 0 1-.65 2.418l-1.586 4.706h-2.496l-4.108-11.882h3.484l1.456 4.472c.208.676.442 1.508.572 2.263h.052c.13-.729.338-1.587.572-2.263l1.482-4.472h2.886l1.482 4.446c.234.728.39 1.533.546 2.288h.052c.156-.755.364-1.587.598-2.288l1.482-4.446h3.25L239.74 63.66zM255.599 57.004l-1.69 1.717h-5.772c.182.962 1.482 2.054 3.484 2.054 1.222 0 2.47-.364 3.25-.884l-.364 3.275c-.884.469-2.236.78-3.744.78-3.588 0-6.474-2.496-6.474-6.344 0-3.797 2.756-6.215 6.136-6.215 3.276 0 5.278 2.263 5.278 4.706 0 .287-.052.678-.104.911zm-5.174-2.756c-1.118 0-2.054.858-2.288 1.924h3.979c0-.078.026-.155.026-.26-.001-.806-.703-1.664-1.717-1.664zM268.261 57.004l-1.69 1.717h-5.772c.182.962 1.482 2.054 3.484 2.054 1.222 0 2.47-.364 3.25-.884l-.364 3.275c-.884.469-2.236.78-3.744.78-3.588 0-6.474-2.496-6.474-6.344 0-3.797 2.756-6.215 6.136-6.215 3.276 0 5.278 2.263 5.278 4.706 0 .287-.052.678-.104.911zm-5.174-2.756c-1.118 0-2.054.858-2.288 1.924h3.979c0-.078.026-.155.026-.26-.001-.806-.703-1.664-1.717-1.664zM278.193 54.898h-3.068v4.368c0 1.014.546 1.43 1.56 1.43.442 0 .702-.026.988-.156l-.338 2.887c-.364.182-1.014.312-1.768.312-2.652 0-4.238-1.404-4.238-3.744v-5.096h-1.976v-3.12h1.976v-2.522l3.796-1.378v3.9h3.796l-.728 3.119zM281.833 63.921c-.702 0-2.158-1.456-2.158-2.158 0-.677 1.456-2.133 2.158-2.133s2.158 1.456 2.158 2.133c-.001.702-1.457 2.158-2.158 2.158z"/></g></svg>