<svg id="Layer_1" xmlns="http://www.w3.org/2000/svg" width="728" height="90" viewBox="0 0 728 90"><style>.st0{fill:#231f20}</style><path class="st0" d="M39.375 31.017v7.41h-3.9v-7.333l-6.214-9.256h4.316l2.73 3.978c.39.546.832 1.326 1.196 2.002h.052a20.39 20.39 0 0 1 1.222-2.002l2.73-3.978h4.03l-6.162 9.179zM50.685 38.791c-3.562 0-6.422-2.522-6.422-6.266s2.86-6.266 6.422-6.266c3.536 0 6.422 2.522 6.422 6.266s-2.886 6.266-6.422 6.266zm0-9.204c-1.43 0-2.652 1.248-2.652 2.99s1.222 2.99 2.652 2.99c1.404 0 2.652-1.248 2.652-2.99s-1.249-2.99-2.652-2.99zM66.726 38.427v-1.612H66.7c-.468 1.248-1.716 1.95-3.614 1.95-2.574 0-4.134-1.43-4.134-3.926v-8.19h3.822v7.228c0 .858.598 1.612 1.768 1.612 1.144 0 1.846-.754 1.846-1.69v-7.15h3.822v11.778h-3.484zM79.959 30.705a2.842 2.842 0 0 0-1.144-.286c-1.222 0-2.34.65-2.34 2.522v5.486h-3.822V26.649h3.77v2.626h.026c.39-1.846 1.769-2.834 3.354-2.834.364 0 .806.052 1.092.156l-.936 4.108zM94.025 38.791c-3.562 0-6.422-2.522-6.422-6.266s2.86-6.266 6.422-6.266c3.536 0 6.422 2.522 6.422 6.266s-2.885 6.266-6.422 6.266zm0-9.204c-1.43 0-2.652 1.248-2.652 2.99s1.222 2.99 2.652 2.99c1.404 0 2.652-1.248 2.652-2.99s-1.247-2.99-2.652-2.99zM106.375 38.896c-2.418-.104-4.03-1.353-4.03-4.187V19.915h3.77v14.327c0 .962.546 1.482 1.586 1.56l-1.326 3.094zM117.919 38.427v-1.456h-.026c-.65 1.196-2.002 1.794-3.64 1.794-2.886 0-5.668-2.184-5.668-6.214 0-3.796 2.704-6.266 5.98-6.266 1.248 0 2.522.416 2.99.806v-7.176h3.718v18.513h-3.354zm-.364-7.722c-.364-.494-1.144-1.066-2.314-1.066-1.664 0-2.834 1.3-2.834 2.99 0 1.69 1.17 2.99 2.834 2.99a2.74 2.74 0 0 0 2.314-1.222v-3.692zM136.821 30.705a2.842 2.842 0 0 0-1.144-.286c-1.222 0-2.34.65-2.34 2.522v5.486h-3.822V26.649h3.77v2.626h.026c.39-1.846 1.768-2.834 3.354-2.834.364 0 .806.052 1.092.156l-.936 4.108zM149.561 31.875l-1.69 1.716h-5.772c.182.962 1.482 2.054 3.484 2.054 1.222 0 2.47-.364 3.25-.884l-.364 3.276c-.884.468-2.236.78-3.744.78-3.588 0-6.474-2.496-6.474-6.344 0-3.796 2.756-6.214 6.136-6.214 3.276 0 5.278 2.262 5.278 4.706 0 .286-.052.676-.104.91zm-5.174-2.756c-1.118 0-2.054.858-2.288 1.924h3.979c0-.078.026-.156.026-.26-.001-.806-.703-1.664-1.717-1.664zM159.493 29.769h-3.068v4.368c0 1.014.546 1.43 1.56 1.43.442 0 .702-.026.988-.156l-.338 2.886c-.364.182-1.014.312-1.768.312-2.652 0-4.238-1.404-4.238-3.744v-5.096h-1.976v-3.12h1.976v-2.522l3.796-1.378v3.9h3.796l-.728 3.12zM163.522 25.037c-.676 0-2.054-1.378-2.054-2.054 0-.676 1.378-2.028 2.054-2.028.676 0 2.054 1.352 2.054 2.028 0 .676-1.378 2.054-2.054 2.054zm-1.924 13.39V26.649h3.848v11.778h-3.848zM175.222 30.705a2.842 2.842 0 0 0-1.144-.286c-1.222 0-2.34.65-2.34 2.522v5.486h-3.822V26.649h3.77v2.626h.026c.39-1.846 1.769-2.834 3.354-2.834.364 0 .806.052 1.092.156l-.936 4.108zM187.962 31.875l-1.69 1.716H180.5c.182.962 1.482 2.054 3.484 2.054 1.222 0 2.47-.364 3.25-.884l-.364 3.276c-.884.468-2.236.78-3.744.78-3.588 0-6.474-2.496-6.474-6.344 0-3.796 2.756-6.214 6.136-6.214 3.276 0 5.278 2.262 5.278 4.706 0 .286-.051.676-.104.91zm-5.174-2.756c-1.118 0-2.054.858-2.288 1.924h3.979c0-.078.026-.156.026-.26-.001-.806-.703-1.664-1.717-1.664zM204.42 38.427v-7.228c0-.858-.416-1.612-1.664-1.612-1.222 0-1.768.728-1.768 1.664v7.176h-3.822v-7.228c0-.858-.416-1.612-1.664-1.612-1.222 0-1.768.728-1.768 1.664v7.176h-3.822V26.649h3.536v1.586h.026c.468-1.248 1.638-1.95 3.484-1.95 1.69 0 2.964.676 3.484 1.924.494-1.144 1.872-1.924 3.64-1.924 2.678 0 4.16 1.456 4.16 3.952v8.19h-3.822zM221.45 31.875l-1.69 1.716h-5.772c.182.962 1.482 2.054 3.484 2.054 1.222 0 2.47-.364 3.25-.884l-.364 3.276c-.884.468-2.236.78-3.744.78-3.588 0-6.475-2.496-6.475-6.344 0-3.796 2.756-6.214 6.137-6.214 3.276 0 5.278 2.262 5.278 4.706 0 .286-.052.676-.104.91zm-5.174-2.756c-1.118 0-2.054.858-2.288 1.924h3.978c0-.078.026-.156.026-.26 0-.806-.702-1.664-1.716-1.664zM230.836 38.427v-7.228c0-.858-.572-1.612-1.742-1.612-1.144 0-1.872.728-1.872 1.664v7.176H223.4V26.649h3.51v1.586h.026c.468-1.248 1.69-1.95 3.588-1.95 2.574 0 4.134 1.456 4.134 3.952v8.19h-3.822zM244.798 29.769h-3.068v4.368c0 1.014.546 1.43 1.561 1.43.442 0 .702-.026.988-.156l-.338 2.886c-.364.182-1.014.312-1.768.312-2.652 0-4.238-1.404-4.238-3.744v-5.096h-1.976v-3.12h1.976v-2.522l3.796-1.378v3.9h3.796l-.729 3.12zM261.021 38.947c-.702-.156-1.508-.702-1.82-1.56-.52.962-1.638 1.43-3.068 1.43-2.08 0-3.926-1.456-3.926-3.9 0-2.158 1.69-3.614 4.03-3.848l2.34-.234v-.39c0-.702-.572-1.17-1.846-1.17-1.144 0-2.418.364-3.276.91l-.676-2.886c.962-.624 2.574-1.04 4.134-1.04 3.12 0 5.33 1.43 5.33 4.264v3.848c0 1.378.52 2.106 1.43 2.444l-2.652 2.132zm-2.443-5.668l-1.43.13c-.988.078-1.43.78-1.43 1.482 0 .624.468 1.144 1.196 1.144.91 0 1.664-.702 1.664-1.716v-1.04zM273.684 30.445c-.78-.494-1.586-.754-2.522-.754-1.664 0-2.99 1.196-2.99 2.912 0 1.69 1.326 2.912 3.068 2.912.988 0 1.742-.208 2.574-.65l-.338 3.25c-.78.364-1.794.572-2.886.572-3.302 0-6.37-2.34-6.37-6.137 0-3.848 3.094-6.162 6.292-6.162 1.56 0 2.834.312 3.875.884l-.703 3.173zM284.967 30.445c-.78-.494-1.586-.754-2.522-.754-1.664 0-2.99 1.196-2.99 2.912 0 1.69 1.326 2.912 3.068 2.912.988 0 1.742-.208 2.574-.65l-.338 3.25c-.78.364-1.794.572-2.886.572-3.302 0-6.37-2.34-6.37-6.137 0-3.848 3.094-6.162 6.292-6.162 1.56 0 2.834.312 3.874.884l-.702 3.173zM293.209 38.791c-3.562 0-6.422-2.522-6.422-6.266s2.86-6.266 6.422-6.266c3.536 0 6.422 2.522 6.422 6.266s-2.886 6.266-6.422 6.266zm0-9.204c-1.43 0-2.652 1.248-2.652 2.99s1.222 2.99 2.652 2.99c1.404 0 2.652-1.248 2.652-2.99s-1.248-2.99-2.652-2.99zM309.25 38.427v-1.612h-.026c-.468 1.248-1.716 1.95-3.614 1.95-2.574 0-4.134-1.43-4.134-3.926v-8.19h3.822v7.228c0 .858.598 1.612 1.768 1.612 1.144 0 1.846-.754 1.846-1.69v-7.15h3.822v11.778h-3.484zM322.614 38.427v-7.228c0-.858-.572-1.612-1.742-1.612-1.144 0-1.872.728-1.872 1.664v7.176h-3.822V26.649h3.51v1.586h.026c.468-1.248 1.69-1.95 3.588-1.95 2.574 0 4.134 1.456 4.134 3.952v8.19h-3.822zM336.576 29.769h-3.068v4.368c0 1.014.546 1.43 1.561 1.43.442 0 .702-.026.988-.156l-.338 2.886c-.364.182-1.014.312-1.768.312-2.652 0-4.238-1.404-4.238-3.744v-5.096h-1.976v-3.12h1.976v-2.522l3.796-1.378v3.9h3.796l-.729 3.12zM342.244 38.688c-1.612 0-2.782-.338-3.744-.832l-.338-3.38c1.04.728 2.392 1.274 3.692 1.274.702 0 1.144-.364 1.144-.806 0-.494-.39-.702-1.066-.91-2.262-.65-3.614-1.794-3.614-3.848 0-2.314 1.872-3.796 4.42-3.796 1.456 0 2.886.39 3.484.702l-.65 2.808c-.572-.312-1.508-.65-2.444-.65-.624 0-1.04.286-1.04.754 0 .442.312.676 1.04.858 2.652.702 3.744 2.028 3.744 4.004 0 2.001-1.456 3.822-4.628 3.822z"/><g><path class="st0" d="M44.652 64.427v-7.229c0-.857-.416-1.612-1.664-1.612-1.222 0-1.768.729-1.768 1.664v7.177h-3.822v-7.229c0-.857-.416-1.612-1.664-1.612-1.222 0-1.768.729-1.768 1.664v7.177h-3.822V52.648h3.536v1.586h.026c.468-1.248 1.638-1.95 3.484-1.95 1.69 0 2.964.676 3.484 1.924.494-1.144 1.872-1.924 3.64-1.924 2.678 0 4.16 1.456 4.16 3.952v8.19h-3.822zM59.186 64.947c-.702-.156-1.508-.702-1.82-1.561-.52.962-1.638 1.43-3.068 1.43-2.08 0-3.926-1.456-3.926-3.899 0-2.158 1.69-3.614 4.03-3.849l2.34-.234v-.39c0-.702-.572-1.17-1.846-1.17-1.144 0-2.418.364-3.276.91l-.676-2.886c.962-.625 2.574-1.041 4.134-1.041 3.12 0 5.33 1.431 5.33 4.265v3.849c0 1.378.52 2.105 1.43 2.443l-2.652 2.133zm-2.444-5.669l-1.43.13c-.988.078-1.43.78-1.43 1.482 0 .624.468 1.145 1.196 1.145.91 0 1.664-.702 1.664-1.717v-1.04z"/><path class="st0" d="M69.716 63.257c-1.794 4.732-3.666 6.448-5.876 7.306l-2.34-2.34c1.898-.728 3.354-2.105 4.316-4.602l-4.238-10.973h3.692l1.716 4.576c.26.676.521 1.482.702 2.314h.052c.234-.807.494-1.639.754-2.314l1.716-4.576h3.51l-4.004 10.609zM86.771 64.765c-2.496 0-4.524-.858-5.668-1.742V45.914h3.692v7.15c.494-.391 1.742-.78 2.964-.78 3.25 0 5.928 2.314 5.928 6.032.001 3.641-2.313 6.449-6.916 6.449zm.313-9.126c-1.092 0-1.924.52-2.288.91v4.498c.39.286 1.196.572 1.924.572 1.95 0 3.172-1.326 3.172-3.043 0-1.638-1.144-2.937-2.808-2.937zM106.375 57.875l-1.69 1.716h-5.772c.182.962 1.482 2.054 3.484 2.054 1.222 0 2.47-.364 3.25-.884l-.364 3.276c-.884.468-2.236.779-3.744.779-3.588 0-6.474-2.496-6.474-6.344 0-3.796 2.756-6.215 6.136-6.215 3.276 0 5.278 2.263 5.278 4.707 0 .286-.051.677-.104.911zm-5.174-2.757c-1.118 0-2.054.858-2.288 1.925h3.979c0-.078.026-.156.026-.261-.001-.805-.703-1.664-1.717-1.664zM119.921 64.765c-2.496 0-4.524-.858-5.668-1.742V45.914h3.692v7.15c.494-.391 1.742-.78 2.964-.78 3.25 0 5.928 2.314 5.928 6.032 0 3.641-2.314 6.449-6.916 6.449zm.312-9.126c-1.092 0-1.924.52-2.288.91v4.498c.39.286 1.196.572 1.924.572 1.95 0 3.172-1.326 3.172-3.043 0-1.638-1.144-2.937-2.808-2.937zM136.483 64.427v-1.612h-.026c-.468 1.248-1.716 1.95-3.614 1.95-2.574 0-4.134-1.43-4.134-3.926v-8.19h3.822v7.229c0 .857.598 1.611 1.768 1.611 1.144 0 1.846-.754 1.846-1.689v-7.15h3.822v11.778h-3.484zM141.787 64.427v-.728l2.938-5.278c.494-.858 1.04-1.847 1.56-2.626l-.026-.026h-4.004v-3.12h8.997v.728l-2.938 5.278c-.494.858-.988 1.742-1.56 2.601l.026.052h4.862v3.12h-9.855zM152.941 64.427v-.728l2.938-5.278c.494-.858 1.04-1.847 1.56-2.626l-.026-.026h-4.004v-3.12h8.997v.728l-2.938 5.278c-.494.858-.988 1.742-1.56 2.601l.026.052h4.862v3.12h-9.855zM166.643 51.036c-.676 0-2.054-1.378-2.054-2.054 0-.677 1.378-2.028 2.054-2.028.676 0 2.054 1.352 2.054 2.028-.001.676-1.379 2.054-2.054 2.054zm-1.925 13.391V52.648h3.848v11.778h-3.848zM178.473 64.427v-7.229c0-.857-.572-1.612-1.742-1.612-1.144 0-1.872.729-1.872 1.664v7.177h-3.822V52.648h3.51v1.586h.026c.468-1.248 1.69-1.95 3.588-1.95 2.574 0 4.134 1.456 4.134 3.952v8.19h-3.822zM189.652 70.433c-3.433 0-5.721-1.95-5.721-4.42 0-1.794 1.196-2.86 2.418-3.172l-1.508-1.508c.104-.755.754-1.404 1.43-1.69a3.705 3.705 0 0 1-1.716-3.146c0-2.496 1.794-4.238 4.862-4.238.702 0 1.248.104 1.742.234.52.13 1.092.208 1.69.208.65 0 1.326-.156 1.846-.39l.702 2.912c-.364.208-.936.39-1.456.363.13.234.286.78.286 1.196 0 1.977-1.561 3.641-3.849 3.796-.468.026-.78.131-.78.442 0 .13.104.286.312.364l1.82.65c2.314.832 3.562 2.002 3.562 4.16.002 2.419-2.208 4.239-5.64 4.239zm.806-5.538l-1.404-.39c-.91.026-1.586.676-1.586 1.534 0 .806.702 1.481 2.08 1.481 1.353 0 2.08-.624 2.08-1.3 0-.545-.416-1.117-1.17-1.325zm-1.04-9.855c-.858 0-1.508.65-1.508 1.404 0 .78.65 1.404 1.508 1.404.832 0 1.508-.624 1.508-1.404 0-.754-.624-1.404-1.508-1.404zM211.128 64.947c-.702-.156-1.508-.702-1.82-1.561-.52.962-1.638 1.43-3.068 1.43-2.08 0-3.926-1.456-3.926-3.899 0-2.158 1.69-3.614 4.03-3.849l2.34-.234v-.39c0-.702-.572-1.17-1.846-1.17-1.144 0-2.418.364-3.276.91l-.676-2.886c.962-.625 2.574-1.041 4.134-1.041 3.12 0 5.33 1.431 5.33 4.265v3.849c0 1.378.52 2.105 1.43 2.443l-2.652 2.133zm-2.444-5.669l-1.43.13c-.988.078-1.43.78-1.43 1.482 0 .624.468 1.145 1.196 1.145.91 0 1.664-.702 1.664-1.717v-1.04zM219.058 64.895c-2.418-.104-4.03-1.352-4.03-4.186V45.914h3.77V60.24c0 .963.546 1.482 1.586 1.561l-1.326 3.094zM227.638 64.791c-3.562 0-6.422-2.522-6.422-6.267s2.86-6.267 6.422-6.267c3.536 0 6.422 2.522 6.422 6.267s-2.886 6.267-6.422 6.267zm0-9.205c-1.43 0-2.652 1.248-2.652 2.99s1.222 2.99 2.652 2.99c1.404 0 2.652-1.248 2.652-2.99s-1.248-2.99-2.652-2.99zM243.367 64.427v-7.229c0-.857-.572-1.612-1.742-1.612-1.144 0-1.872.729-1.872 1.664v7.177h-3.822V52.648h3.51v1.586h.026c.468-1.248 1.69-1.95 3.588-1.95 2.574 0 4.134 1.456 4.134 3.952v8.19h-3.822zM254.547 70.433c-3.432 0-5.72-1.95-5.72-4.42 0-1.794 1.196-2.86 2.418-3.172l-1.508-1.508c.104-.755.754-1.404 1.43-1.69a3.705 3.705 0 0 1-1.716-3.146c0-2.496 1.794-4.238 4.862-4.238.702 0 1.248.104 1.742.234.52.13 1.092.208 1.69.208.65 0 1.326-.156 1.846-.39l.702 2.912c-.364.208-.936.39-1.456.363.13.234.286.78.286 1.196 0 1.977-1.56 3.641-3.848 3.796-.468.026-.78.131-.78.442 0 .13.104.286.312.364l1.82.65c2.314.832 3.562 2.002 3.562 4.16 0 2.419-2.21 4.239-5.642 4.239zm.806-5.538l-1.404-.39c-.91.026-1.586.676-1.586 1.534 0 .806.702 1.481 2.08 1.481 1.352 0 2.08-.624 2.08-1.3 0-.545-.416-1.117-1.17-1.325zm-1.04-9.855c-.858 0-1.508.65-1.508 1.404 0 .78.65 1.404 1.508 1.404.832 0 1.508-.624 1.508-1.404 0-.754-.624-1.404-1.508-1.404zM263.127 64.791c-.702 0-2.158-1.456-2.158-2.158 0-.676 1.456-2.132 2.158-2.132s2.158 1.456 2.158 2.132c0 .702-1.456 2.158-2.158 2.158z"/></g></svg>