<svg id="Layer_1" xmlns="http://www.w3.org/2000/svg" width="728" height="90" viewBox="0 0 728 90"><style>.st0{fill:#231f20}</style><path class="st0" d="M39.155 39.452h-6.136V22.863h5.434c2.574 0 4.862 1.69 4.862 4.395 0 .988-.494 2.236-1.378 2.73 1.456.468 2.886 2.184 2.886 4.29 0 3.224-2.548 5.174-5.668 5.174zm-1.326-13.598h-1.196v3.406h1.196c.962 0 1.846-.494 1.846-1.69 0-1.222-.884-1.716-1.846-1.716zm.65 6.318h-1.846v4.342h1.846c1.222 0 2.47-.65 2.47-2.158 0-1.482-1.222-2.184-2.47-2.184zM54.677 39.452V37.84h-.026c-.468 1.248-1.716 1.95-3.614 1.95-2.574 0-4.134-1.43-4.134-3.926v-8.19h3.822v7.228c0 .858.598 1.612 1.768 1.612 1.144 0 1.846-.754 1.846-1.69v-7.15h3.822v11.778h-3.484zM68.509 30.794h-3.068v4.368c0 1.014.546 1.43 1.56 1.43.442 0 .702-.026.988-.156l-.338 2.886c-.364.182-1.014.312-1.768.312-2.652 0-4.238-1.404-4.238-3.744v-5.096h-1.976v-3.12h1.976v-2.522l3.796-1.378v3.9h3.796l-.728 3.12zM78.44 26.062c-.676 0-2.054-1.378-2.054-2.054 0-.676 1.378-2.028 2.054-2.028.676 0 2.054 1.352 2.054 2.028.001.676-1.378 2.054-2.054 2.054zm-1.924 13.39V27.674h3.848v11.778h-3.848zM91.076 24.346a4.485 4.485 0 0 0-1.534-.312c-1.404 0-2.132.832-2.132 2.522v1.118h3.38l-.754 3.12H87.41v8.658h-3.692v-8.658h-1.794v-3.12h1.794v-1.378c0-3.588 2.314-5.356 5.278-5.356 1.092 0 2.184.13 2.782.39l-.702 3.016zM105.922 30.794h-3.068v4.368c0 1.014.546 1.43 1.56 1.43.442 0 .702-.026.988-.156l-.338 2.886c-.364.182-1.014.312-1.768.312-2.652 0-4.238-1.404-4.238-3.744v-5.096h-1.976v-3.12h1.976v-2.522l3.796-1.378v3.9h3.796l-.728 3.12zM115.438 39.452v-7.229c0-.858-.598-1.612-1.769-1.612-1.144 0-1.846.728-1.846 1.664v7.176h-3.822V20.939h3.77v7.826h.026c.598-.91 1.69-1.456 3.328-1.456 2.601 0 4.134 1.456 4.134 3.952v8.19h-3.821zM132.442 32.9l-1.69 1.716h-5.772c.182.962 1.482 2.054 3.484 2.054 1.222 0 2.47-.364 3.25-.884l-.364 3.276c-.884.468-2.236.78-3.744.78-3.588 0-6.475-2.496-6.475-6.344 0-3.796 2.756-6.214 6.137-6.214 3.276 0 5.278 2.262 5.278 4.706 0 .286-.052.676-.104.91zm-5.174-2.756c-1.118 0-2.054.858-2.288 1.924h3.978c0-.078.026-.156.026-.26 0-.806-.702-1.664-1.716-1.664zM141.178 38.282c-1.794 4.732-3.667 6.448-5.876 7.306l-2.34-2.34c1.898-.728 3.354-2.106 4.316-4.602l-4.238-10.972h3.692l1.716 4.576c.26.676.52 1.482.702 2.314h.052a30.35 30.35 0 0 1 .754-2.314l1.716-4.576h3.51l-4.004 10.608zM165.461 39.556h-2.626l-1.586-4.68a49.956 49.956 0 0 1-.702-2.444h-.052a20.009 20.009 0 0 1-.65 2.418l-1.586 4.706h-2.496l-4.108-11.882h3.484l1.456 4.472c.208.676.442 1.508.572 2.262h.052c.13-.729.338-1.586.572-2.262l1.482-4.472h2.886l1.482 4.446c.234.728.39 1.534.546 2.288h.052c.156-.754.364-1.586.598-2.288l1.482-4.446h3.25l-4.108 11.882zM181.321 32.9l-1.69 1.716h-5.772c.182.962 1.482 2.054 3.484 2.054 1.222 0 2.47-.364 3.25-.884l-.364 3.276c-.884.468-2.236.78-3.744.78-3.588 0-6.474-2.496-6.474-6.344 0-3.796 2.756-6.214 6.136-6.214 3.276 0 5.278 2.262 5.278 4.706 0 .286-.051.676-.104.91zm-5.174-2.756c-1.118 0-2.054.858-2.288 1.924h3.979c0-.078.026-.156.026-.26-.001-.806-.703-1.664-1.717-1.664zM190.577 31.73a2.842 2.842 0 0 0-1.144-.286c-1.222 0-2.34.65-2.34 2.522v5.486h-3.822V27.674h3.77V30.3h.026c.39-1.846 1.768-2.834 3.354-2.834.364 0 .806.052 1.092.156l-.936 4.108zM203.317 32.9l-1.69 1.716h-5.772c.182.962 1.482 2.054 3.484 2.054 1.222 0 2.47-.364 3.25-.884l-.364 3.276c-.884.468-2.236.78-3.744.78-3.588 0-6.475-2.496-6.475-6.344 0-3.796 2.756-6.214 6.137-6.214 3.276 0 5.278 2.262 5.278 4.706 0 .286-.052.676-.104.91zm-5.174-2.756c-1.118 0-2.054.858-2.288 1.924h3.978c0-.078.026-.156.026-.26 0-.806-.702-1.664-1.716-1.664z"/><g><path class="st0" d="M45.811 65.557h-2.626l-1.586-4.681a49.956 49.956 0 0 1-.702-2.444h-.052a20.028 20.028 0 0 1-.65 2.419l-1.586 4.706h-2.496l-4.108-11.883h3.484l1.456 4.473c.208.676.442 1.508.572 2.262h.052c.13-.729.338-1.586.572-2.262l1.482-4.473h2.886l1.482 4.446c.234.728.39 1.534.546 2.288h.052c.156-.754.364-1.586.598-2.288l1.482-4.446h3.25l-4.108 11.883zM56.731 65.816c-3.562 0-6.422-2.522-6.422-6.267s2.86-6.266 6.422-6.266c3.536 0 6.422 2.521 6.422 6.266s-2.886 6.267-6.422 6.267zm0-9.204c-1.43 0-2.652 1.248-2.652 2.99 0 1.741 1.222 2.989 2.652 2.989 1.404 0 2.652-1.248 2.652-2.989 0-1.742-1.248-2.99-2.652-2.99zM72.356 57.73a2.825 2.825 0 0 0-1.144-.286c-1.222 0-2.34.649-2.34 2.521v5.486H65.05V53.674h3.77V56.3h.026c.39-1.846 1.768-2.834 3.354-2.834.364 0 .806.052 1.092.156l-.936 4.108zM81.872 65.452l-3.484-4.758h-.026v4.758h-3.77V46.939h3.77v11.519h.026l3.536-4.784h4.16l-4.134 5.721 4.368 6.058h-4.446zM89.516 52.062c-.676 0-2.054-1.378-2.054-2.054s1.378-2.028 2.054-2.028c.676 0 2.054 1.353 2.054 2.028s-1.378 2.054-2.054 2.054zm-1.924 13.39V53.674h3.848v11.778h-3.848zM101.346 65.452v-7.229c0-.857-.572-1.611-1.742-1.611-1.144 0-1.872.728-1.872 1.664v7.176H93.91V53.674h3.51v1.586h.026c.468-1.248 1.69-1.95 3.588-1.95 2.574 0 4.134 1.456 4.134 3.952v8.19h-3.822zM112.526 71.459c-3.433 0-5.721-1.95-5.721-4.421 0-1.794 1.196-2.859 2.418-3.172l-1.508-1.508c.104-.754.754-1.404 1.43-1.69a3.705 3.705 0 0 1-1.716-3.146c0-2.496 1.794-4.238 4.862-4.238a6.61 6.61 0 0 1 1.742.233c.52.13 1.092.208 1.69.208.65 0 1.326-.155 1.846-.39l.702 2.912c-.364.208-.936.39-1.456.364.13.233.286.779.286 1.195 0 1.977-1.561 3.641-3.849 3.797-.468.025-.78.13-.78.441 0 .13.104.286.312.364l1.82.65c2.314.832 3.562 2.002 3.562 4.16.002 2.421-2.208 4.241-5.64 4.241zm.806-5.539l-1.404-.39c-.91.026-1.586.676-1.586 1.534 0 .806.702 1.482 2.08 1.482 1.353 0 2.08-.624 2.08-1.301-.001-.545-.417-1.117-1.17-1.325zm-1.04-9.854c-.858 0-1.508.649-1.508 1.403 0 .78.65 1.404 1.508 1.404.832 0 1.508-.624 1.508-1.404 0-.753-.624-1.403-1.508-1.403zM133.56 56.794h-3.068v4.368c0 1.014.546 1.43 1.56 1.43.442 0 .702-.025.988-.155l-.338 2.886c-.364.182-1.014.312-1.768.312-2.652 0-4.238-1.404-4.238-3.744v-5.097h-1.976v-3.12h1.976v-2.522l3.796-1.378v3.9h3.796l-.728 3.12zM141.255 65.816c-3.562 0-6.422-2.522-6.422-6.267s2.86-6.266 6.422-6.266c3.536 0 6.422 2.521 6.422 6.266s-2.885 6.267-6.422 6.267zm0-9.204c-1.43 0-2.652 1.248-2.652 2.99 0 1.741 1.222 2.989 2.652 2.989 1.404 0 2.652-1.248 2.652-2.989 0-1.742-1.248-2.99-2.652-2.99zM154.437 71.459c-3.433 0-5.721-1.95-5.721-4.421 0-1.794 1.196-2.859 2.418-3.172l-1.508-1.508c.104-.754.754-1.404 1.43-1.69a3.705 3.705 0 0 1-1.716-3.146c0-2.496 1.794-4.238 4.862-4.238a6.61 6.61 0 0 1 1.742.233c.52.13 1.092.208 1.69.208.65 0 1.326-.155 1.846-.39l.702 2.912c-.364.208-.936.39-1.456.364.13.233.286.779.286 1.195 0 1.977-1.561 3.641-3.849 3.797-.468.025-.78.13-.78.441 0 .13.104.286.312.364l1.82.65c2.314.832 3.562 2.002 3.562 4.16.002 2.421-2.208 4.241-5.64 4.241zm.806-5.539l-1.404-.39c-.91.026-1.586.676-1.586 1.534 0 .806.702 1.482 2.08 1.482 1.353 0 2.08-.624 2.08-1.301 0-.545-.416-1.117-1.17-1.325zm-1.04-9.854c-.858 0-1.508.649-1.508 1.403 0 .78.65 1.404 1.508 1.404.832 0 1.508-.624 1.508-1.404 0-.753-.624-1.403-1.508-1.403zM172.325 58.9l-1.69 1.716h-5.772c.182.962 1.482 2.054 3.484 2.054 1.222 0 2.47-.363 3.25-.884l-.364 3.276c-.884.468-2.236.78-3.744.78-3.588 0-6.475-2.496-6.475-6.345 0-3.796 2.756-6.214 6.137-6.214 3.276 0 5.278 2.262 5.278 4.706 0 .287-.052.677-.104.911zm-5.174-2.756c-1.118 0-2.054.858-2.288 1.925h3.978c0-.078.026-.156.026-.261 0-.806-.702-1.664-1.716-1.664zM182.256 56.794h-3.068v4.368c0 1.014.546 1.43 1.561 1.43.442 0 .702-.025.988-.155l-.338 2.886c-.364.182-1.014.312-1.768.312-2.652 0-4.238-1.404-4.238-3.744v-5.097h-1.976v-3.12h1.976v-2.522l3.796-1.378v3.9h3.796l-.729 3.12zM191.772 65.452v-7.229c0-.857-.598-1.611-1.768-1.611-1.145 0-1.846.728-1.846 1.664v7.176h-3.822V46.939h3.77v7.826h.026c.598-.91 1.69-1.456 3.328-1.456 2.6 0 4.134 1.456 4.134 3.952v8.19h-3.822zM208.75 58.9l-1.69 1.716h-5.772c.182.962 1.482 2.054 3.484 2.054 1.222 0 2.47-.363 3.25-.884l-.364 3.276c-.884.468-2.236.78-3.744.78-3.588 0-6.474-2.496-6.474-6.345 0-3.796 2.756-6.214 6.136-6.214 3.276 0 5.278 2.262 5.278 4.706 0 .287-.052.677-.104.911zm-5.174-2.756c-1.118 0-2.054.858-2.288 1.925h3.979c0-.078.026-.156.026-.261-.001-.806-.703-1.664-1.717-1.664zM218.006 57.73a2.825 2.825 0 0 0-1.144-.286c-1.222 0-2.34.649-2.34 2.521v5.486H210.7V53.674h3.77V56.3h.026c.39-1.846 1.769-2.834 3.354-2.834.364 0 .806.052 1.092.156l-.936 4.108z"/></g></svg>