<svg id="Layer_1" xmlns="http://www.w3.org/2000/svg" width="728" height="90" viewBox="0 0 728 90"><style>.st0{fill:#f9e038}.st1{fill:#231f20}</style><path class="st0" d="M606.016 11s-11 0-11 11v3.674s0 11 11 11h89.825s11 0 11-11V22s0-11-11-11h-89.825z"/><path class="st1" d="M612.479 26.727c-.5-.709-.72-1.599-.72-2.458 0-1.819.909-3.518 2.938-3.518.909 0 1.629.3 2.179 1.049.489.669.739 1.639.739 2.469 0 .779-.21 1.729-.649 2.378-.53.78-1.34 1.16-2.269 1.16-.928-.001-1.678-.321-2.218-1.08zm1.179-3.888c-.159.41-.22 1-.22 1.429 0 .859.13 2.229 1.26 2.229.55 0 .85-.27 1.029-.779.16-.42.21-.99.21-1.439 0-.5-.05-1.089-.25-1.549-.2-.46-.49-.67-.989-.67-.55-.001-.849.279-1.04.779zM620.248 27.706h-1.599V20.85h2.578c.67 0 1.279 0 1.849.39.58.41.89 1 .89 1.709 0 .649-.229 1.309-.739 1.739-.59.49-1.22.48-1.949.48h-1.029v2.538zm.899-3.788c.38 0 .7 0 .979-.3.15-.17.22-.39.22-.609 0-.27-.109-.55-.329-.72-.25-.19-.58-.19-.88-.19h-.89v1.819h.9zM626.448 22.179v1.389h2.599v1.289h-2.599v1.52h3.298v1.329h-4.896V20.85h4.896v1.33h-3.298zM635.926 27.706h-1.369l-2.628-4.607h-.04v4.607h-1.239V20.85h1.729l2.289 4.028h.02V20.85h1.239v6.856zM645.896 27.706h-1.729l-.419-1.409h-2.219l-.431 1.409h-1.409l2.199-6.856h1.859l2.149 6.856zm-2.519-2.668l-.729-2.409-.729 2.409h1.458zM654.217 22.209h-1.72v5.497h-1.599v-5.497h-1.739V20.85h5.058v1.359zM656.678 27.706h-1.6V20.85h1.6v6.856zM663.695 27.706h-1.729l-.419-1.409h-2.219l-.431 1.409h-1.409l2.199-6.856h1.859l2.149 6.856zm-2.518-2.668l-.729-2.409-.729 2.409h1.458zM670.096 27.706h-1.729l-.419-1.409h-2.219l-.431 1.409h-1.409l2.199-6.856h1.859l2.149 6.856zm-2.519-2.668l-.729-2.409-.729 2.409h1.458zM675.478 27.706h-1.6V20.85h1.6v6.856zM678.478 27.706h-1.6V20.85h2.889c.609 0 1.229.01 1.759.35.56.37.87 1.04.87 1.709 0 .78-.45 1.499-1.189 1.769l1.269 3.028h-1.778l-1.05-2.708h-1.169v2.708zm0-3.888h.879c.33 0 .69.03.979-.14.26-.16.4-.479.4-.779a.86.86 0 0 0-.39-.7c-.271-.17-.73-.13-1.03-.13h-.839v1.749zM689.095 27.706h-1.729l-.419-1.409h-2.219l-.431 1.409h-1.409l2.199-6.856h1.859l2.149 6.856zm-2.519-2.668l-.729-2.409-.729 2.409h1.458z"/></svg>