<svg id="Layer_2" xmlns="http://www.w3.org/2000/svg" width="728" height="90" viewBox="0 0 728 90"><style>.st0{fill:none}.st1{fill:#004b87}.st2{fill:#fff}.st3{fill:url(#SVGID_1_)}.st4{fill:url(#SVGID_2_)}.st5{fill:url(#SVGID_3_)}</style><path class="st0" d="M592.833 39.472h114.542v38.934H592.833z"/><path class="st1" d="M649.695 49.033v4.024h-7.142v19.319h-4.513v-19.32h-7.141v-4.024h18.796zm1.919 23.342h4.515V49.033h-4.515v23.342zm27.85 0h-4.646l-2.401-5.744h-7.914l-2.374 5.744h-4.542l9.952-23.656h1.974l9.951 23.656zm21.877 0h-4.645l-2.402-5.744h-7.915l-2.374 5.744h-4.54l9.952-23.656h1.973l9.951 23.656zm-30.472-9.557l-2.387-5.813-2.404 5.813h4.791zm21.877 0l-2.387-5.813-2.404 5.813h4.791z"/><path class="st2" d="M614.549 73.89a7.166 7.166 0 0 0 5.121-2.156l5.53-5.526a7.162 7.162 0 0 0 2.077-5.01V43.987h-17.198a7.168 7.168 0 0 0-5.121 2.156l-5.53 5.525a7.158 7.158 0 0 0-2.077 5.01V73.89h17.198z"/><linearGradient id="SVGID_1_" gradientUnits="userSpaceOnUse" x1="612.309" y1="58.947" x2="625.756" y2="45.499"><stop offset=".1" stop-color="#9cdcf8"/><stop offset=".9" stop-color="#009edb"/></linearGradient><path class="st3" d="M612.084 45.503a5.665 5.665 0 0 0-5.666 5.637v1.917h11.785v11.772h1.891a5.662 5.662 0 0 0 5.665-5.66V45.503h-13.675z"/><linearGradient id="SVGID_2_" gradientUnits="userSpaceOnUse" x1="598.869" y1="68.921" x2="623.667" y2="68.921"><stop offset="0" stop-color="#14b1e7"/><stop offset=".16" stop-color="#13abe2"/><stop offset=".369" stop-color="#0f9bd3"/><stop offset=".606" stop-color="#0980bc"/><stop offset=".861" stop-color="#015a9b"/><stop offset=".9" stop-color="#005495"/></linearGradient><path class="st4" d="M623.535 65.466a7.133 7.133 0 0 1-3.44.878h-15.192l-6.035 6.031h15.68c1.526 0 2.96-.605 4.04-1.704l5.078-5.074-.131-.131z"/><linearGradient id="SVGID_3_" gradientUnits="userSpaceOnUse" x1="602.326" y1="72.375" x2="602.326" y2="47.595"><stop offset="0" stop-color="#0082be"/><stop offset=".386" stop-color="#0070ae"/><stop offset=".85" stop-color="#005495"/></linearGradient><path class="st5" d="M605.782 47.726a7.118 7.118 0 0 0-.879 3.438v15.181l-6.035 6.031v-15.67a5.62 5.62 0 0 1 1.704-4.037l5.078-5.074.132.131z"/></svg>