<svg id="Layer_1" xmlns="http://www.w3.org/2000/svg" viewBox="0 0 160 600"><style>.st0{fill:#3a833f}</style><path class="st0" d="M63.2 267.8c-2-1.6-6.7-1.7-8 .9.7-2.4-.6-5.8-2.6-7.3-1.9-1.4-4.3-1.8-6.6-1.4-4.3.7-8.2 3.9-8.7 8.2-.9-1.4-2.5-2.3-4.2-2.3-1.9 0-3.5 1-4.4 2.6-1.4-2.4-5.9-2.2-7.9-.7-2.4 1.8-2.6 5.1-1.9 7.9h46.2c.7-2.8.5-6-1.9-7.9M147.3 267.8c-2-1.6-6.8-1.7-8 .9.7-2.4-.6-5.8-2.6-7.3-1.9-1.4-4.3-1.8-6.6-1.4-4.3.7-8.2 3.9-8.7 8.2-.9-1.4-2.5-2.3-4.2-2.3-1.9 0-3.5 1-4.4 2.6-1.4-2.4-5.9-2.2-7.9-.7-2.4 1.8-2.6 5.1-1.9 7.9h46.2c.7-2.8.5-6-1.9-7.9"/></svg>