<svg id="Layer_1" xmlns="http://www.w3.org/2000/svg" viewBox="0 0 160 600"><style>.st0{fill:#231f20}</style><path class="st0" d="M22.9 115.8c-1.5 4-3.1 5.5-5 6.2l-2-2c1.6-.6 2.8-1.8 3.7-3.9l-3.6-9.3h3.1l1.5 3.9c.2.6.4 1.3.6 2 .2-.7.4-1.4.6-2l1.5-3.9h3l-3.4 9zM31.7 117.1c-3 0-5.4-2.1-5.4-5.3s2.4-5.3 5.4-5.3c3 0 5.4 2.1 5.4 5.3s-2.4 5.3-5.4 5.3zm0-7.8c-1.2 0-2.2 1.1-2.2 2.5s1 2.5 2.2 2.5c1.2 0 2.2-1.1 2.2-2.5s-1-2.5-2.2-2.5zM45.1 116.8v-1.4c-.4 1.1-1.5 1.7-3.1 1.7-2.2 0-3.5-1.2-3.5-3.3v-6.9h3.2v6.1c0 .7.5 1.4 1.5 1.4s1.6-.6 1.6-1.4v-6.1H48v10h-2.9zM62.2 110c-.7-.4-1.3-.6-2.1-.6-1.4 0-2.5 1-2.5 2.5 0 1.4 1.1 2.5 2.6 2.5.8 0 1.5-.2 2.2-.6l-.3 2.8c-.7.3-1.5.5-2.4.5-2.8 0-5.4-2-5.4-5.2 0-3.3 2.6-5.2 5.3-5.2 1.3 0 2.4.3 3.3.7l-.7 2.6zM71.1 117.2c-.6-.1-1.3-.6-1.5-1.3-.4.8-1.4 1.2-2.6 1.2-1.8 0-3.3-1.2-3.3-3.3 0-1.8 1.4-3.1 3.4-3.3l2-.2v-.3c0-.6-.5-1-1.6-1-1 0-2 .3-2.8.8l-.6-2.4c.8-.5 2.2-.9 3.5-.9 2.6 0 4.5 1.2 4.5 3.6v3.3c0 1.2.4 1.8 1.2 2.1l-2.2 1.7zm-2-4.8l-1.2.1c-.8.1-1.2.7-1.2 1.3 0 .5.4 1 1 1 .8 0 1.4-.6 1.4-1.5v-.9zM80.6 116.8v-6.1c0-.7-.5-1.4-1.5-1.4s-1.6.6-1.6 1.4v6.1h-3.2v-10h3v1.3c.4-1.1 1.4-1.7 3-1.7 2.2 0 3.5 1.2 3.5 3.3v6.9h-3.2z"/><g><path class="st0" d="M20 143c-1.4 0-2.4-.3-3.2-.7l-.3-2.9c.9.6 2 1.1 3.1 1.1.6 0 1-.3 1-.7 0-.4-.3-.6-.9-.8-1.9-.5-3.1-1.5-3.1-3.3 0-2 1.6-3.2 3.7-3.2 1.2 0 2.4.3 2.9.6l-.6 2.4c-.5-.3-1.3-.5-2.1-.5-.5 0-.9.2-.9.6 0 .4.3.6.9.7 2.2.6 3.2 1.7 3.2 3.4.2 1.7-1 3.3-3.7 3.3zM28.7 143.2c-2-.1-3.4-1.1-3.4-3.5v-12.5h3.2v12.1c0 .8.5 1.3 1.3 1.3l-1.1 2.6zM39.9 137.2l-1.4 1.5h-4.9c.2.8 1.3 1.7 2.9 1.7 1 0 2.1-.3 2.8-.7l-.3 2.8c-.7.4-1.9.7-3.2.7-3 0-5.5-2.1-5.5-5.4 0-3.2 2.3-5.3 5.2-5.3 2.8 0 4.5 1.9 4.5 4 0 .2-.1.5-.1.7zm-4.4-2.3c-.9 0-1.7.7-1.9 1.6H37v-.2c0-.7-.6-1.4-1.5-1.4zM50.4 137.2l-1.4 1.5h-4.9c.2.8 1.3 1.7 2.9 1.7 1 0 2.1-.3 2.8-.7l-.3 2.8c-.7.4-1.9.7-3.2.7-3 0-5.5-2.1-5.5-5.4 0-3.2 2.3-5.3 5.2-5.3 2.8 0 4.5 1.9 4.5 4 0 .2 0 .5-.1.7zm-4.4-2.3c-.9 0-1.7.7-1.9 1.6h3.4v-.2c0-.7-.6-1.4-1.5-1.4zM57.6 143.1c-1.1 0-2.1-.3-2.5-.7v5.5H52v-15h2.8v1.2c.5-1 1.7-1.5 3.1-1.5 2.4 0 4.8 1.8 4.8 5.3-.1 3.1-2.4 5.2-5.1 5.2zm-.6-7.8c-.9 0-1.6.5-2 1v3.1c.3.4 1 .9 2 .9 1.4 0 2.4-1.1 2.4-2.5s-1-2.5-2.4-2.5zM73.6 143.1c-2.1 0-3.8-.7-4.8-1.5v-14.5H72v6.1c.4-.3 1.5-.7 2.5-.7 2.8 0 5 2 5 5.1 0 3.1-2 5.5-5.9 5.5zm.3-7.8c-.9 0-1.6.4-1.9.8v3.8c.3.2 1 .5 1.6.5 1.7 0 2.7-1.1 2.7-2.6 0-1.4-1-2.5-2.4-2.5zM90 137.2l-1.4 1.5h-4.9c.2.8 1.3 1.7 2.9 1.7 1 0 2.1-.3 2.8-.7l-.3 2.8c-.7.4-1.9.7-3.2.7-3 0-5.5-2.1-5.5-5.4 0-3.2 2.3-5.3 5.2-5.3 2.8 0 4.5 1.9 4.5 4 0 .2 0 .5-.1.7zm-4.4-2.3c-.9 0-1.7.7-1.9 1.6h3.4v-.2c0-.7-.6-1.4-1.5-1.4zM98.2 135.4h-2.6v3.7c0 .9.5 1.2 1.3 1.2.4 0 .6 0 .8-.1l-.3 2.4c-.3.2-.9.3-1.5.3-2.2 0-3.6-1.2-3.6-3.2v-4.3h-1.7v-2.6h1.7v-2.1l3.2-1.2v3.3h3.2l-.5 2.6zM106.8 135.4h-2.6v3.7c0 .9.5 1.2 1.3 1.2.4 0 .6 0 .8-.1l-.3 2.4c-.3.2-.9.3-1.5.3-2.2 0-3.6-1.2-3.6-3.2v-4.3h-1.7v-2.6h1.7v-2.1l3.2-1.2v3.3h3.2l-.5 2.6zM117.2 137.2l-1.4 1.5h-4.9c.2.8 1.3 1.7 2.9 1.7 1 0 2.1-.3 2.8-.7l-.3 2.8c-.7.4-1.9.7-3.2.7-3 0-5.5-2.1-5.5-5.4 0-3.2 2.3-5.3 5.2-5.3 2.8 0 4.5 1.9 4.5 4 0 .2 0 .5-.1.7zm-4.4-2.3c-.9 0-1.7.7-1.9 1.6h3.4v-.2c0-.7-.6-1.4-1.5-1.4zM124.9 136.2c-.2-.1-.6-.2-1-.2-1 0-2 .5-2 2.1v4.6h-3.2v-10h3.2v2.2c.3-1.6 1.5-2.4 2.8-2.4.3 0 .7 0 .9.1l-.7 3.6zM126.7 143.1c-.6 0-1.8-1.2-1.8-1.8 0-.6 1.2-1.8 1.8-1.8s1.8 1.2 1.8 1.8c.1.5-1.2 1.8-1.8 1.8z"/></g></svg>