<svg id="Layer_1" xmlns="http://www.w3.org/2000/svg" viewBox="0 0 160 600"><style>.st0{fill:#231f20}</style><path class="st0" d="M26.7 45.5v-5.6h-5.4v5.6h-3.4v-14h3.4V37h5.4v-5.5h3.4v14h-3.4zM41.4 40L40 41.4h-4.9c.2.8 1.3 1.7 2.9 1.7 1 0 2.1-.3 2.8-.7l-.3 2.8c-.7.4-1.9.7-3.2.7-3 0-5.5-2.1-5.5-5.4 0-3.2 2.3-5.3 5.2-5.3 2.8 0 4.5 1.9 4.5 4 0 .2-.1.6-.1.8zM37 37.6c-.9 0-1.7.7-1.9 1.6h3.4V39c0-.6-.6-1.4-1.5-1.4zM46.3 45.9c-2-.1-3.4-1.1-3.4-3.5V29.8h3.2V42c0 .8.5 1.3 1.3 1.3l-1.1 2.6zM54.2 45.8c-1.1 0-2.1-.3-2.5-.7v5.5h-3.1v-15h2.8v1.2c.5-1 1.7-1.5 3.1-1.5 2.4 0 4.8 1.8 4.8 5.3 0 3.1-2.3 5.2-5.1 5.2zm-.6-7.7c-.9 0-1.6.5-2 1v3.1c.3.4 1 .9 2 .9 1.4 0 2.4-1.1 2.4-2.5s-1-2.5-2.4-2.5zM71 45.8c-1.1 0-2.1-.3-2.5-.7v5.5h-3.1v-15h2.8v1.2c.5-1 1.7-1.5 3.1-1.5 2.4 0 4.8 1.8 4.8 5.3 0 3.1-2.3 5.2-5.1 5.2zm-.5-7.7c-.9 0-1.6.5-2 1v3.1c.3.4 1 .9 2 .9 1.4 0 2.4-1.1 2.4-2.5s-1-2.5-2.4-2.5zM84.1 45.5v-1.4c-.4 1.1-1.5 1.7-3.1 1.7-2.2 0-3.5-1.2-3.5-3.3v-6.9h3.2v6.1c0 .7.5 1.4 1.5 1.4s1.6-.6 1.6-1.4v-6.1H87v10h-2.9zM95.6 38.2H93v3.7c0 .9.5 1.2 1.3 1.2.4 0 .6 0 .8-.1l-.3 2.4c-.3.2-.9.3-1.5.3-2.2 0-3.6-1.2-3.6-3.2v-4.3H88v-2.6h1.7v-2.1l3.2-1.2v3.3h3.2l-.5 2.6z"/><g><path class="st0" d="M23.9 70.5c-1.5 4-3.1 5.5-5 6.2l-2-2c1.6-.6 2.8-1.8 3.7-3.9L17 61.5h3.1l1.5 3.9c.2.6.4 1.3.6 2 .2-.7.4-1.4.6-2l1.5-3.9h3l-3.4 9zM32.7 71.8c-3 0-5.4-2.1-5.4-5.3s2.4-5.3 5.4-5.3c3 0 5.4 2.1 5.4 5.3s-2.4 5.3-5.4 5.3zm0-7.8c-1.2 0-2.2 1.1-2.2 2.5s1 2.5 2.2 2.5c1.2 0 2.2-1.1 2.2-2.5s-1-2.5-2.2-2.5zM46.1 71.5v-1.4c-.4 1.1-1.5 1.7-3.1 1.7-2.2 0-3.5-1.2-3.5-3.3v-6.9h3.2v6.1c0 .7.5 1.4 1.5 1.4s1.6-.6 1.6-1.4v-6.1H49v10h-2.9zM57.2 65c-.2-.1-.6-.2-1-.2-1 0-2 .5-2 2.1v4.6H51v-10h3.2v2.2c.3-1.6 1.5-2.4 2.8-2.4.3 0 .7 0 .9.1l-.7 3.6zM75.9 71.5v-6.1c0-.7-.4-1.4-1.4-1.4-1 0-1.5.6-1.5 1.4v6.1h-3.2v-6.1c0-.7-.4-1.4-1.4-1.4-1 0-1.5.6-1.5 1.4v6.1h-3.2v-10h3v1.3c.4-1.1 1.4-1.7 2.9-1.7 1.4 0 2.5.6 2.9 1.6.4-1 1.6-1.6 3.1-1.6 2.3 0 3.5 1.2 3.5 3.3v6.9h-3.2zM82.7 60.2c-.6 0-1.7-1.2-1.7-1.7 0-.6 1.2-1.7 1.7-1.7s1.7 1.1 1.7 1.7c0 .5-1.2 1.7-1.7 1.7zM81 71.5v-10h3.3v10H81zM92.5 71.5v-6.1c0-.7-.5-1.4-1.5-1.4s-1.6.6-1.6 1.4v6.1h-3.2v-10h3v1.3c.4-1.1 1.4-1.7 3-1.7 2.2 0 3.5 1.2 3.5 3.3v6.9h-3.2zM105 71.5v-1.2c-.6 1-1.7 1.5-3.1 1.5-2.4 0-4.8-1.8-4.8-5.3 0-3.2 2.3-5.3 5.1-5.3 1.1 0 2.1.4 2.5.7v-6.1h3.1v15.7H105zm-.3-6.5c-.3-.4-1-.9-2-.9-1.4 0-2.4 1.1-2.4 2.5s1 2.5 2.4 2.5c.9 0 1.6-.5 2-1V65z"/></g><g><path class="st0" d="M24.8 98c-.6-.1-1.3-.6-1.5-1.3-.4.8-1.4 1.2-2.6 1.2-1.8 0-3.3-1.2-3.3-3.3 0-1.8 1.4-3.1 3.4-3.3l2-.2v-.3c0-.6-.5-1-1.6-1-1 0-2 .3-2.8.8l-.6-2.4c.8-.5 2.2-.9 3.5-.9 2.6 0 4.5 1.2 4.5 3.6v3.3c0 1.2.4 1.8 1.2 2.1L24.8 98zm-2.1-4.8l-1.2.1c-.8.1-1.2.7-1.2 1.3 0 .5.4 1 1 1 .8 0 1.4-.6 1.4-1.5v-.9zM34.2 97.5v-6.1c0-.7-.5-1.4-1.5-1.4s-1.6.6-1.6 1.4v6.1h-3.2v-10h3v1.3c.4-1.1 1.4-1.7 3-1.7 2.2 0 3.5 1.2 3.5 3.3v6.9h-3.2zM46.8 97.5v-1.2c-.5 1-1.7 1.5-3.1 1.5-2.4 0-4.8-1.8-4.8-5.3 0-3.2 2.3-5.3 5.1-5.3 1.1 0 2.1.4 2.5.7v-6.1h3.1v15.7h-2.8zm-.3-6.5c-.3-.4-1-.9-2-.9-1.4 0-2.4 1.1-2.4 2.5s1 2.5 2.4 2.5c.9 0 1.6-.5 2-1V91zM63.1 84.7c-.4-.2-.9-.3-1.3-.3-1.2 0-1.8.7-1.8 2.1v.9h2.9l-.6 2.6H60v7.3h-3.1V90h-1.5v-2.6h1.5v-1.2c0-3 2-4.5 4.5-4.5.9 0 1.8.1 2.4.3l-.7 2.7zM70.8 98c-.6-.1-1.3-.6-1.5-1.3-.4.8-1.4 1.2-2.6 1.2-1.8 0-3.3-1.2-3.3-3.3 0-1.8 1.4-3.1 3.4-3.3l2-.2v-.3c0-.6-.5-1-1.6-1-1 0-2 .3-2.8.8l-.6-2.4c.8-.5 2.2-.9 3.5-.9 2.6 0 4.5 1.2 4.5 3.6v3.3c0 1.2.4 1.8 1.2 2.1L70.8 98zm-2.1-4.8l-1.2.1c-.8.1-1.2.7-1.2 1.3 0 .5.4 1 1 1 .8 0 1.4-.6 1.4-1.5v-.9zM86.2 97.5v-6.1c0-.7-.4-1.4-1.4-1.4-1 0-1.5.6-1.5 1.4v6.1h-3.2v-6.1c0-.7-.4-1.4-1.4-1.4-1 0-1.5.6-1.5 1.4v6.1H74v-10h3v1.3c.4-1.1 1.4-1.7 2.9-1.7 1.4 0 2.5.6 2.9 1.6.4-1 1.6-1.6 3.1-1.6 2.3 0 3.5 1.2 3.5 3.3v6.9h-3.2zM93 86.2c-.6 0-1.7-1.2-1.7-1.7 0-.6 1.2-1.7 1.7-1.7.6 0 1.7 1.1 1.7 1.7 0 .5-1.1 1.7-1.7 1.7zm-1.6 11.3v-10h3.3v10h-3.3zM100 97.9c-2-.1-3.4-1.1-3.4-3.5V81.9h3.2V94c0 .8.5 1.3 1.3 1.3l-1.1 2.6z"/><path class="st0" d="M107.9 96.5c-1.5 4-3.1 5.5-5 6.2l-2-2c1.6-.6 2.8-1.8 3.7-3.9l-3.6-9.3h3.1l1.5 3.9c.2.6.4 1.3.6 2 .2-.7.4-1.4.6-2l1.5-3.9h3l-3.4 9zM113 89.7l-1-.2c.7-.9 1.3-2.1 1.5-3.1-.5-.1-1.5-1.1-1.5-1.5 0-.6 1.3-1.8 1.8-1.8s1.8 1.1 1.8 1.8c.1 1.4-1.3 3.7-2.6 4.8zM119.5 97.7c-1.4 0-2.4-.3-3.2-.7l-.3-2.9c.9.6 2 1.1 3.1 1.1.6 0 1-.3 1-.7 0-.4-.3-.6-.9-.8-1.9-.5-3.1-1.5-3.1-3.3 0-2 1.6-3.2 3.7-3.2 1.2 0 2.4.3 2.9.6l-.5 2.4c-.5-.3-1.3-.6-2.1-.6-.5 0-.9.2-.9.6 0 .4.3.6.9.7 2.2.6 3.2 1.7 3.2 3.4.1 1.9-1.1 3.4-3.8 3.4z"/></g><g><path class="st0" d="M24.7 110.7c-.4-.2-.9-.3-1.3-.3-1.2 0-1.8.7-1.8 2.1v.9h2.9l-.6 2.6h-2.2v7.3h-3.1V116h-1.5v-2.6h1.5v-1.2c0-3 2-4.5 4.5-4.5.9 0 1.8.1 2.4.3l-.8 2.7zM31.9 123.5v-1.4c-.4 1.1-1.5 1.7-3.1 1.7-2.2 0-3.5-1.2-3.5-3.3v-6.9h3.2v6.1c0 .7.5 1.4 1.5 1.4s1.6-.6 1.6-1.4v-6.1h3.2v10h-2.9zM43.4 116.2h-2.6v3.7c0 .9.5 1.2 1.3 1.2.4 0 .6 0 .8-.1l-.3 2.4c-.3.2-.9.3-1.5.3-2.2 0-3.6-1.2-3.6-3.2v-4.3H36v-2.6h1.7v-2.1l3.2-1.2v3.3h3.2l-.7 2.6zM51.5 123.5v-1.4c-.4 1.1-1.5 1.7-3.1 1.7-2.2 0-3.5-1.2-3.5-3.3v-6.9h3.2v6.1c0 .7.5 1.4 1.5 1.4s1.6-.6 1.6-1.4v-6.1h3.2v10h-2.9zM62.5 117c-.2-.1-.6-.2-1-.2-1 0-2 .5-2 2.1v4.6h-3.2v-10h3.2v2.2c.3-1.6 1.5-2.4 2.8-2.4.3 0 .7 0 .9.1l-.7 3.6zM73.1 118l-1.4 1.5h-4.9c.2.8 1.3 1.7 2.9 1.7 1 0 2.1-.3 2.8-.7l-.3 2.8c-.7.4-1.9.7-3.2.7-3 0-5.5-2.1-5.5-5.4 0-3.2 2.3-5.3 5.2-5.3 2.8 0 4.5 1.9 4.5 4 0 .1-.1.5-.1.7zm-4.4-2.4c-.9 0-1.7.7-1.9 1.6h3.4v-.2c0-.6-.6-1.4-1.5-1.4zM86.3 124c-.6-.1-1.3-.6-1.5-1.3-.4.8-1.4 1.2-2.6 1.2-1.8 0-3.3-1.2-3.3-3.3 0-1.8 1.4-3.1 3.4-3.3l2-.2v-.3c0-.6-.5-1-1.6-1-1 0-2 .3-2.8.8l-.6-2.4c.8-.5 2.2-.9 3.5-.9 2.6 0 4.5 1.2 4.5 3.6v3.3c0 1.2.4 1.8 1.2 2.1l-2.2 1.7zm-2.1-4.8l-1.2.1c-.8.1-1.2.7-1.2 1.3 0 .5.4 1 1 1 .8 0 1.4-.6 1.4-1.5v-.9zM95.9 116.2h-2.6v3.7c0 .9.5 1.2 1.3 1.2.4 0 .6 0 .8-.1l-.3 2.4c-.3.2-.9.3-1.5.3-2.2 0-3.6-1.2-3.6-3.2v-4.3h-1.7v-2.6H90v-2.1l3.2-1.2v3.3h3.2l-.5 2.6zM111.3 118l-1.4 1.5H105c.2.8 1.3 1.7 2.9 1.7 1 0 2.1-.3 2.8-.7l-.3 2.8c-.7.4-1.9.7-3.2.7-3 0-5.5-2.1-5.5-5.4 0-3.2 2.3-5.3 5.2-5.3 2.8 0 4.5 1.9 4.5 4 0 .1-.1.5-.1.7zm-4.4-2.4c-.9 0-1.7.7-1.9 1.6h3.4v-.2c0-.6-.6-1.4-1.5-1.4zM119.7 124c-.6-.1-1.3-.6-1.5-1.3-.4.8-1.4 1.2-2.6 1.2-1.8 0-3.3-1.2-3.3-3.3 0-1.8 1.4-3.1 3.4-3.3l2-.2v-.3c0-.6-.5-1-1.6-1-1 0-2 .3-2.8.8l-.6-2.4c.8-.5 2.2-.9 3.5-.9 2.6 0 4.5 1.2 4.5 3.6v3.3c0 1.2.4 1.8 1.2 2.1l-2.2 1.7zm-2.1-4.8l-1.2.1c-.8.1-1.2.7-1.2 1.3 0 .5.4 1 1 1 .8 0 1.4-.6 1.4-1.5v-.9zM126.1 123.7c-1.4 0-2.4-.3-3.2-.7l-.3-2.9c.9.6 2 1.1 3.1 1.1.6 0 1-.3 1-.7 0-.4-.3-.6-.9-.8-1.9-.5-3.1-1.5-3.1-3.3 0-2 1.6-3.2 3.7-3.2 1.2 0 2.4.3 2.9.6l-.5 2.4c-.5-.3-1.3-.6-2.1-.6-.5 0-.9.2-.9.6 0 .4.3.6.9.7 2.2.6 3.2 1.7 3.2 3.4.1 1.9-1.1 3.4-3.8 3.4zM140.4 118l-1.4 1.5h-4.9c.2.8 1.3 1.7 2.9 1.7 1 0 2.1-.3 2.8-.7l-.3 2.8c-.7.4-1.9.7-3.2.7-3 0-5.5-2.1-5.5-5.4 0-3.2 2.3-5.3 5.2-5.3 2.8 0 4.5 1.9 4.5 4 0 .1-.1.5-.1.7zm-4.4-2.4c-.9 0-1.7.7-1.9 1.6h3.4v-.2c0-.6-.6-1.4-1.5-1.4z"/></g><g><path class="st0" d="M28.7 149.6h-2.2l-1.3-4c-.2-.6-.4-1.3-.6-2.1-.2.7-.4 1.5-.6 2l-1.3 4h-2.1l-3.6-9.9h3l1.2 3.8c.2.6.4 1.3.5 1.9.1-.6.3-1.3.5-1.9l1.3-3.8h2.4l1.3 3.8c.2.6.3 1.3.5 1.9.1-.6.3-1.3.5-1.9l1.3-3.8h2.8l-3.6 10zM34.8 138.2c-.6 0-1.7-1.2-1.7-1.7 0-.6 1.2-1.7 1.7-1.7.6 0 1.7 1.1 1.7 1.7.1.5-1.1 1.7-1.7 1.7zm-1.6 11.3v-10h3.3v10h-3.3zM45 142.2h-2.6v3.7c0 .9.5 1.2 1.3 1.2.4 0 .6 0 .8-.1l-.3 2.4c-.3.2-.9.3-1.5.3-2.2 0-3.6-1.2-3.6-3.2v-4.3h-1.7v-2.6h1.7v-2.1l3.2-1.2v3.3h3.2l-.5 2.6zM52.9 149.5v-6.1c0-.7-.5-1.4-1.5-1.4s-1.6.6-1.6 1.4v6.1h-3.2v-15.7h3.2v6.6c.5-.8 1.4-1.2 2.8-1.2 2.2 0 3.5 1.2 3.5 3.3v6.9h-3.2zM69.2 138.3v11.2h-3.4v-11.2h-4v-2.8h11.5v2.8h-4.1zM74.4 149.5v-14h3.4v14h-3.4zM89 149.5l-1.2-3.2h-4.5l-1.2 3.2h-3.2l5.5-14.1h2.4l5.5 14.1H89zm-3-8.4c-.1-.4-.3-.8-.4-1.3-.1.5-.3.9-.4 1.3l-.9 2.6h2.8l-1.1-2.6zM103 149.5l-1.2-3.2h-4.5l-1.2 3.2H93l5.5-14.1h2.4l5.5 14.1H103zm-3-8.4c-.1-.4-.3-.8-.4-1.3-.1.5-.3.9-.4 1.3l-.9 2.6h2.8l-1.1-2.6zM112.3 149.5v-14h3.4v11.2h5.3v2.8h-8.7zM123.6 138.2c-.6 0-1.7-1.2-1.7-1.7 0-.6 1.2-1.7 1.7-1.7.6 0 1.7 1.1 1.7 1.7 0 .5-1.1 1.7-1.7 1.7zm-1.6 11.3v-10h3.3v10H122zM134.1 136.7c-.4-.2-.9-.3-1.3-.3-1.2 0-1.8.7-1.8 2.1v.9h2.9l-.6 2.6H131v7.3h-3.1V142h-1.5v-2.6h1.5v-1.2c0-3 2-4.5 4.5-4.5.9 0 1.8.1 2.4.3l-.7 2.7zM143.6 144l-1.4 1.5h-4.9c.2.8 1.3 1.7 2.9 1.7 1 0 2.1-.3 2.8-.7l-.3 2.8c-.7.4-1.9.7-3.2.7-3 0-5.5-2.1-5.5-5.4 0-3.2 2.3-5.3 5.2-5.3 2.8 0 4.5 1.9 4.5 4 0 .2 0 .5-.1.7zm-4.3-2.4c-.9 0-1.7.7-1.9 1.6h3.4v-.2c-.1-.6-.7-1.4-1.5-1.4z"/></g><g><path class="st0" d="M19.5 164.2c-.6 0-1.7-1.2-1.7-1.7 0-.6 1.2-1.7 1.7-1.7.6 0 1.7 1.1 1.7 1.7 0 .5-1.2 1.7-1.7 1.7zm-1.7 11.3v-10h3.3v10h-3.3zM29.3 175.5v-6.1c0-.7-.5-1.4-1.5-1.4s-1.6.6-1.6 1.4v6.1H23v-10h3v1.3c.4-1.1 1.4-1.7 3-1.7 2.2 0 3.5 1.2 3.5 3.3v6.9h-3.2zM37.6 175.7c-1.4 0-2.4-.3-3.2-.7l-.3-2.9c.9.6 2 1.1 3.1 1.1.6 0 1-.3 1-.7 0-.4-.3-.6-.9-.8-1.9-.5-3.1-1.5-3.1-3.3 0-2 1.6-3.2 3.7-3.2 1.2 0 2.4.3 2.9.6l-.6 2.4c-.5-.3-1.3-.6-2.1-.6-.5 0-.9.2-.9.6 0 .4.3.6.9.7 2.2.6 3.2 1.7 3.2 3.4.2 1.9-1 3.4-3.7 3.4zM49.4 175.5v-1.4c-.4 1.1-1.5 1.7-3.1 1.7-2.2 0-3.5-1.2-3.5-3.3v-6.9H46v6.1c0 .7.5 1.4 1.5 1.4s1.6-.6 1.6-1.4v-6.1h3.2v10h-2.9zM60.5 169c-.2-.1-.6-.2-1-.2-1 0-2 .5-2 2.1v4.6h-3.2v-10h3.2v2.2c.3-1.6 1.5-2.4 2.8-2.4.3 0 .7 0 .9.1l-.7 3.6zM69.1 176c-.6-.1-1.3-.6-1.5-1.3-.4.8-1.4 1.2-2.6 1.2-1.8 0-3.3-1.2-3.3-3.3 0-1.8 1.4-3.1 3.4-3.3l2-.2v-.3c0-.6-.5-1-1.6-1-1 0-2 .3-2.8.8l-.6-2.4c.8-.5 2.2-.9 3.5-.9 2.6 0 4.5 1.2 4.5 3.6v3.3c0 1.2.4 1.8 1.2 2.1l-2.2 1.7zm-2.1-4.8l-1.2.1c-.8.1-1.2.7-1.2 1.3 0 .5.4 1 1 1 .8 0 1.4-.6 1.4-1.5v-.9zM78.6 175.5v-6.1c0-.7-.5-1.4-1.5-1.4s-1.6.6-1.6 1.4v6.1h-3.2v-10h3v1.3c.4-1.1 1.4-1.7 3-1.7 2.2 0 3.5 1.2 3.5 3.3v6.9h-3.2zM91.2 168.8c-.7-.4-1.3-.6-2.1-.6-1.4 0-2.5 1-2.5 2.5 0 1.4 1.1 2.5 2.6 2.5.8 0 1.5-.2 2.2-.6l-.3 2.8c-.7.3-1.5.5-2.4.5-2.8 0-5.4-2-5.4-5.2 0-3.3 2.6-5.2 5.3-5.2 1.3 0 2.4.3 3.3.7l-.7 2.6zM102.1 170l-1.4 1.5h-4.9c.2.8 1.3 1.7 2.9 1.7 1 0 2.1-.3 2.8-.7l-.3 2.8c-.7.4-1.9.7-3.2.7-3 0-5.5-2.1-5.5-5.4 0-3.2 2.3-5.3 5.2-5.3 2.8 0 4.5 1.9 4.5 4 0 .2 0 .5-.1.7zm-4.4-2.3c-.9 0-1.7.7-1.9 1.6h3.4v-.2c0-.7-.6-1.4-1.5-1.4zM104.9 175.8c-.6 0-1.8-1.2-1.8-1.8 0-.6 1.2-1.8 1.8-1.8s1.8 1.2 1.8 1.8c0 .6-1.2 1.8-1.8 1.8z"/></g></svg>