<svg id="Layer_1" xmlns="http://www.w3.org/2000/svg" viewBox="0 0 160 600"><style>.st0{fill:#231f20}</style><path class="st0" d="M31 38.8h-2.2l-2-6.2c-.3-.9-.6-1.9-.9-3.1-.3 1.2-.6 2.2-.9 3.1l-2 6.2h-2.1L16 24.7h3.3l1.8 5.7c.3.9.6 1.8.8 2.8.2-1.1.5-1.9.7-2.8l1.8-5.7h2.9l1.8 5.7c.3.8.5 1.8.7 2.8.2-1 .5-2 .7-2.8l1.9-5.7h2.9L31 38.8zM43 38.8v-6.1c0-.7-.5-1.4-1.5-1.4s-1.6.6-1.6 1.4v6.1h-3.2V23.1h3.2v6.6c.5-.8 1.4-1.2 2.8-1.2 2.2 0 3.5 1.2 3.5 3.3v6.9H43zM57.2 33.2l-1.4 1.5h-4.9c.2.8 1.3 1.7 2.9 1.7 1 0 2.1-.3 2.8-.7l-.3 2.8c-.7.4-1.9.7-3.2.7-3 0-5.5-2.1-5.5-5.4 0-3.2 2.3-5.3 5.2-5.3 2.8 0 4.5 1.9 4.5 4 0 .2-.1.5-.1.7zm-4.4-2.3c-.9 0-1.7.7-1.9 1.6h3.4v-.2c0-.7-.6-1.4-1.5-1.4zM64.9 38.8v-6.1c0-.7-.5-1.4-1.5-1.4s-1.6.6-1.6 1.4v6.1h-3.2v-10h3v1.3c.4-1.1 1.4-1.7 3-1.7 2.2 0 3.5 1.2 3.5 3.3v6.9h-3.2zM80.8 37.8c-1.5 4-3.1 5.5-5 6.2l-2-2c1.6-.6 2.8-1.8 3.7-3.9l-3.6-9.3H77l1.5 3.9c.2.6.4 1.3.6 2 .2-.7.4-1.4.6-2l1.5-3.9h3l-3.4 9zM89.7 39.1c-3 0-5.4-2.1-5.4-5.3s2.4-5.3 5.4-5.3c3 0 5.4 2.1 5.4 5.3s-2.4 5.3-5.4 5.3zm0-7.8c-1.2 0-2.2 1.1-2.2 2.5s1 2.5 2.2 2.5c1.2 0 2.2-1.1 2.2-2.5s-1-2.5-2.2-2.5zM103.1 38.8v-1.4c-.4 1.1-1.5 1.7-3.1 1.7-2.2 0-3.5-1.2-3.5-3.3v-6.9h3.2V35c0 .7.5 1.4 1.5 1.4s1.6-.6 1.6-1.4v-6.1h3.2v10h-2.9z"/><g><path class="st0" d="M23.1 64.8v-6.1c0-.7-.5-1.4-1.5-1.4s-1.6.6-1.6 1.4v6.1h-3.2V49.1H20v6.6c.5-.8 1.4-1.2 2.8-1.2 2.2 0 3.5 1.2 3.5 3.3v6.9h-3.2zM35.2 65.2c-.6-.1-1.3-.6-1.5-1.3-.4.8-1.4 1.2-2.6 1.2-1.8 0-3.3-1.2-3.3-3.3 0-1.8 1.4-3.1 3.4-3.3l2-.2V58c0-.6-.5-1-1.6-1-1 0-2 .3-2.8.8l-.6-2.4c.8-.5 2.2-.9 3.5-.9 2.6 0 4.5 1.2 4.5 3.6v3.3c0 1.2.4 1.8 1.2 2.1l-2.2 1.7zm-2.1-4.8l-1.2.1c-.8.1-1.2.7-1.2 1.3 0 .5.4 1 1 1 .8 0 1.4-.6 1.4-1.5v-.9zM43.3 64.8h-2.4l-3.9-10h3.1l1.4 3.8c.2.5.4 1.3.5 1.9.2-.6.4-1.4.6-1.9l1.4-3.8h3l-3.7 10zM56.8 59.2l-1.4 1.5h-4.9c.2.8 1.3 1.7 2.9 1.7 1 0 2.1-.3 2.8-.7l-.3 2.8c-.7.4-1.9.7-3.2.7-3 0-5.5-2.1-5.5-5.4 0-3.2 2.3-5.3 5.2-5.3 2.8 0 4.5 1.9 4.5 4-.1.2-.1.5-.1.7zm-4.4-2.3c-.9 0-1.7.7-1.9 1.6h3.4v-.2c-.1-.7-.7-1.4-1.5-1.4zM66.4 65.1c-2-.1-3.4-1.1-3.4-3.5V49.1h3.2v12.1c0 .8.5 1.3 1.3 1.3l-1.1 2.6zM70.3 53.4c-.6 0-1.7-1.2-1.7-1.7 0-.6 1.2-1.7 1.7-1.7.6 0 1.7 1.1 1.7 1.7 0 .6-1.1 1.7-1.7 1.7zm-1.6 11.4v-10H72v10h-3.3zM80.8 52c-.4-.2-.9-.3-1.3-.3-1.2 0-1.8.7-1.8 2.1v.9h2.9l-.6 2.6h-2.2v7.3h-3.1v-7.3h-1.5v-2.6h1.5v-1.2c0-3 2-4.5 4.5-4.5.9 0 1.8.1 2.4.3l-.8 2.7zM90.4 59.2L89 60.7h-4.9c.2.8 1.3 1.7 2.9 1.7 1 0 2.1-.3 2.8-.7l-.3 2.8c-.7.4-1.9.7-3.2.7-3 0-5.5-2.1-5.5-5.4 0-3.2 2.3-5.3 5.2-5.3 2.8 0 4.5 1.9 4.5 4 0 .2-.1.5-.1.7zM86 56.9c-.9 0-1.7.7-1.9 1.6h3.4v-.2c-.1-.7-.6-1.4-1.5-1.4z"/></g><g><path class="st0" d="M18.5 79.4c-.6 0-1.7-1.2-1.7-1.7 0-.6 1.2-1.7 1.7-1.7.6 0 1.7 1.1 1.7 1.7 0 .6-1.2 1.7-1.7 1.7zm-1.7 11.4v-10h3.3v10h-3.3zM28.3 90.8v-6.1c0-.7-.5-1.4-1.5-1.4s-1.6.6-1.6 1.4v6.1H22v-10h3v1.3c.4-1.1 1.4-1.7 3-1.7 2.2 0 3.5 1.2 3.5 3.3v6.9h-3.2zM36.6 91c-1.4 0-2.4-.3-3.2-.7l-.3-2.9c.9.6 2 1.1 3.1 1.1.6 0 1-.3 1-.7 0-.4-.3-.6-.9-.8-1.9-.5-3.1-1.5-3.1-3.3 0-2 1.6-3.2 3.7-3.2 1.2 0 2.4.3 2.9.6l-.6 2.4c-.5-.3-1.3-.6-2.1-.6-.5 0-.9.2-.9.6 0 .4.3.6.9.7 2.2.6 3.2 1.7 3.2 3.4.2 1.8-1 3.4-3.7 3.4zM48.4 90.8v-1.4c-.4 1-1.4 1.6-3 1.6-2.2 0-3.5-1.2-3.5-3.3v-6.9h3.2v6.1c0 .7.5 1.4 1.5 1.4s1.6-.6 1.6-1.4v-6.1h3.2v10h-3zM59.5 84.2c-.2-.1-.6-.2-1-.2-1 0-2 .5-2 2.1v4.6h-3.2v-10h3.2V83c.3-1.6 1.5-2.4 2.8-2.4.3 0 .7 0 .9.1l-.7 3.5zM68.1 91.2c-.6-.1-1.3-.6-1.5-1.3-.4.8-1.4 1.2-2.6 1.2-1.8 0-3.3-1.2-3.3-3.3 0-1.8 1.4-3.1 3.4-3.3l2-.2V84c0-.6-.5-1-1.6-1-1 0-2 .3-2.8.8l-.6-2.4c.8-.5 2.2-.9 3.5-.9 2.6 0 4.5 1.2 4.5 3.6v3.3c0 1.2.4 1.8 1.2 2.1l-2.2 1.7zM66 86.4l-1.2.1c-.8.1-1.2.7-1.2 1.3 0 .5.4 1 1 1 .8 0 1.4-.6 1.4-1.5v-.9zM77.6 90.8v-6.1c0-.7-.5-1.4-1.5-1.4s-1.6.6-1.6 1.4v6.1h-3.2v-10h3v1.3c.4-1.1 1.4-1.7 3-1.7 2.2 0 3.5 1.2 3.5 3.3v6.9h-3.2zM90.2 84c-.7-.4-1.3-.6-2.1-.6-1.4 0-2.5 1-2.5 2.5 0 1.4 1.1 2.5 2.6 2.5.8 0 1.5-.2 2.2-.6l-.4 2.7c-.7.3-1.5.5-2.4.5-2.8 0-5.4-2-5.4-5.2 0-3.3 2.6-5.2 5.3-5.2 1.3 0 2.4.3 3.3.7l-.6 2.7zM101.1 85.2l-1.4 1.5h-4.9c.2.8 1.3 1.7 2.9 1.7 1 0 2.1-.3 2.8-.7l-.3 2.8c-.7.4-1.9.7-3.2.7-3 0-5.5-2.1-5.5-5.4 0-3.2 2.3-5.3 5.2-5.3 2.8 0 4.5 1.9 4.5 4 0 .2 0 .5-.1.7zm-4.4-2.3c-.9 0-1.7.7-1.9 1.6h3.4v-.2c0-.7-.6-1.4-1.5-1.4zM103.1 94.1l-1-.2c.7-.9 1.3-2.1 1.5-3.1-.5-.1-1.5-1.1-1.5-1.5 0-.6 1.3-1.8 1.8-1.8s1.8 1.1 1.8 1.8c0 1.3-1.3 3.6-2.6 4.8z"/></g></svg>