<svg id="Layer_1" xmlns="http://www.w3.org/2000/svg" viewBox="0 0 160 600"><style>.st0{fill:#f9e038}.st1{fill:#231f20}</style><path class="st0" d="M36.5 460s-13 0-13 13v3.5s0 13 13 13h87s13 0 13-13V473s0-13-13-13h-87z"/><path class="st1" d="M48.8 477.6v1.7h-5.4v-8.4h2v6.8h3.4zM51.6 472.5v1.7h3.2v1.6h-3.2v1.9h4.1v1.6h-6v-8.4h6v1.6h-4.1zM63.8 479.3h-2.1l-.5-1.7h-2.7l-.5 1.7h-1.7l2.7-8.4h2.3l2.5 8.4zm-3.1-3.3l-.9-3-.9 3h1.8zM66.6 479.3h-2v-8.4h3.6c.8 0 1.5 0 2.2.4.7.5 1.1 1.3 1.1 2.1 0 1-.6 1.8-1.5 2.2l1.6 3.7h-2.2l-1.3-3.3h-1.4v3.3zm0-4.8h1.1c.4 0 .9 0 1.2-.2.3-.2.5-.6.5-1 0-.3-.2-.7-.5-.9-.3-.2-.9-.2-1.3-.2h-1v2.3zM79.1 479.3h-1.7l-3.2-5.7v5.7h-1.5v-8.4h2.1l2.8 5v-5h1.5v8.4zM89.3 479.3h-1.4l-2.1-6.9v6.9h-1.7v-8.4h3.1l1.5 5.1 1.6-5.1h3.1v8.4h-2v-6.9l-2.1 6.9zM95.4 478.1c-.6-.9-.9-2-.9-3 0-2.2 1.1-4.3 3.6-4.3 1.1 0 2 .4 2.7 1.3.6.8.9 2 .9 3s-.3 2.1-.8 2.9c-.7 1-1.7 1.4-2.8 1.4-1.1 0-2-.4-2.7-1.3zm1.5-4.8c-.2.5-.3 1.2-.3 1.8 0 1.1.2 2.7 1.6 2.7.7 0 1-.3 1.3-1 .2-.5.3-1.2.3-1.8 0-.6-.1-1.3-.3-1.9-.2-.6-.6-.8-1.2-.8-.8 0-1.2.4-1.4 1zM104.9 479.3h-2v-8.4h3.6c.8 0 1.5 0 2.2.4.7.5 1.1 1.3 1.1 2.1 0 1-.6 1.8-1.5 2.2l1.6 3.7h-2.2l-1.3-3.3H105v3.3zm0-4.8h1.1c.4 0 .8 0 1.2-.2.3-.2.5-.6.5-1 0-.3-.2-.7-.5-.9-.3-.2-.9-.2-1.3-.2h-1v2.3zM112.9 472.5v1.7h3.2v1.6h-3.2v1.9h4.1v1.6h-6v-8.4h6v1.6h-4.1z"/></svg>