<svg id="Layer_1" xmlns="http://www.w3.org/2000/svg" viewBox="0 0 160 600"><style>.st0{fill:#48a642}.st1{fill:none;stroke:#981b27;stroke-width:9.009;stroke-miterlimit:10}.st2{fill:#429891}.st3{fill:none;stroke:#981b27;stroke-width:2.84;stroke-miterlimit:10}.st4{fill:#fab016}.st5{fill:#4f131e}.st6{fill:#981b27}.st7,.st8{display:none;stroke:#429891;stroke-miterlimit:10}.st7{fill:none;stroke-width:2.158}.st8{stroke-width:2.252}.st8,.st9{fill:none}</style><path class="st0" d="M-153.9 275h446v637.3h-446z"/><path class="st1" d="M24.6 276.5h109.7"/><path class="st2" d="M46.1 225h22v50.2h-22z"/><path class="st3" d="M46.1 225h22v50.2h-22z"/><path class="st4" d="M64.4 249.6c0 1.3-1 2.3-2.3 2.3-1.3 0-2.3-1-2.3-2.3 0-1.3 1-2.3 2.3-2.3 1.3 0 2.3 1 2.3 2.3"/><path class="st5" d="M106.7 176h9.1v15.5h-9.1z"/><path class="st6" d="M117.9 178c0 .9-.9 1.6-1.9 1.6h-9.4c-1.1 0-1.9-.7-1.9-1.6v-2.8c0-.9.9-1.6 1.9-1.6h9.4c1.1 0 1.9.7 1.9 1.6v2.8zM132.4 214l-51.6-34.4L29.2 214l-2.7-9.9 54.3-36.2 54.4 36.2zM75.5 225.2h9.7v23.9h-9.7zM112.1 225.2h9.8v23.9h-9.8z"/><path class="st7" d="M86 226.3h25.8V248H86zM98.8 226.2v22.3M85.6 237.3h26.5"/><path class="st8" d="M71 193.8h19.3v19.3H71zM80.7 193.7v19.8M70.8 203.6h19.8"/><path class="st1" d="M24.6 276.5H130"/><path class="st0" d="M121 275.7c-1.5-1.2-5-1.4-5.9.7.5-1.9-.4-4.5-1.9-5.7-1.4-1.1-3.2-1.4-4.9-1.1-3.2.5-6 3-6.4 6.4-.7-1.1-1.8-1.8-3.1-1.8-1.4 0-2.6.8-3.2 2-1-1.9-4.3-1.7-5.8-.6-1.8 1.4-1.9 4-1.4 6.2h34.1c.4-2.1.2-4.6-1.5-6.1"/><path class="st9" d="M0 146h160v454H0z"/><path class="st9" d="M0 0h160v600H0z"/></svg>