<svg xmlns="http://www.w3.org/2000/svg" xmlns:xlink="http://www.w3.org/1999/xlink" viewBox="0 0 160 600"><style>.st0{fill:#00c2ff}.st1{clip-path:url(#SVGID_2_);fill:url(#SVGID_3_)}.st2{clip-path:url(#SVGID_5_);fill:url(#SVGID_6_)}.st3{clip-path:url(#SVGID_8_);fill:url(#SVGID_9_)}.st4{clip-path:url(#SVGID_11_);fill:url(#SVGID_12_)}.st5{fill:#fff}.st6{fill:none}</style><path class="st0" d="M0 0h160v600H0V0zm105.7 314.9c15 0 27.3-12.2 27.3-27.2v-62H71c-14.9 0-27.2 12.3-27.2 27.1v62.1h61.9z" id="Layer_2"/><g id="Layer_1"><defs><path id="SVGID_1_" d="M105.7 318.9h-66l-13.5 13.5h72.9c4.5-1 8.6-3.3 11.8-6.4l10.3-10.3-.6-.6c-4.4 2.4-9.5 3.8-14.9 3.8"/></defs><clipPath id="SVGID_2_"><use xlink:href="#SVGID_1_" overflow="visible"/></clipPath><linearGradient id="SVGID_3_" gradientUnits="userSpaceOnUse" x1="1.056" y1="600.983" x2="2.056" y2="600.983" gradientTransform="matrix(0 -17.9611 -17.9611 0 10868.096 352.034)"><stop offset="0" stop-color="#10b0e6"/><stop offset=".159" stop-color="#0faae1"/><stop offset=".368" stop-color="#0c9ad2"/><stop offset=".604" stop-color="#077fba"/><stop offset=".858" stop-color="#015999"/><stop offset=".89" stop-color="#005494"/><stop offset="1" stop-color="#005494"/></linearGradient><path class="st1" d="M26.3 315h94.9v17.3H26.3z"/><defs><path id="SVGID_4_" d="M32.7 247.7c-4.3 4.4-7 10.5-7 17.2v67.4h.6l13.5-13.5v-66.1c0-5.3 1.3-10.3 3.8-14.9l-.6-.6-10.3 10.5z"/></defs><clipPath id="SVGID_5_"><use xlink:href="#SVGID_4_" overflow="visible"/></clipPath><linearGradient id="SVGID_6_" gradientUnits="userSpaceOnUse" x1="1.01" y1="601" x2="2.01" y2="601" gradientTransform="matrix(0 -95.9594 -95.9594 0 57706.21 430.66)"><stop offset="0" stop-color="#0081bd"/><stop offset=".393" stop-color="#006fac"/><stop offset=".85" stop-color="#005494"/><stop offset="1" stop-color="#005494"/></linearGradient><path class="st2" d="M25.7 237.4h17.9v94.9H25.7z"/><g><defs><path id="SVGID_7_" d="M105.7 318.9h-66l-13.5 13.5h72.9c4.5-1 8.6-3.3 11.8-6.4l10.3-10.3-.6-.6c-4.4 2.4-9.5 3.8-14.9 3.8"/></defs><clipPath id="SVGID_8_"><use xlink:href="#SVGID_7_" overflow="visible"/></clipPath><linearGradient id="SVGID_9_" gradientUnits="userSpaceOnUse" x1="1" y1="601.014" x2="2" y2="601.014" gradientTransform="matrix(94.5044 0 0 -94.5044 -68.455 57122.121)"><stop offset="0" stop-color="#10b0e6"/><stop offset=".161" stop-color="#0faae1"/><stop offset=".372" stop-color="#0c9ad2"/><stop offset=".61" stop-color="#077fba"/><stop offset=".867" stop-color="#015999"/><stop offset=".9" stop-color="#005494"/><stop offset="1" stop-color="#005494"/></linearGradient><path class="st3" d="M26.3 315h94.9v17.3H26.3z"/></g><g><defs><path id="SVGID_10_" d="M105.7 318.9h-66l-13.5 13.5h72.9c4.5-1 8.6-3.3 11.8-6.4l10.3-10.3-.6-.6c-4.4 2.4-9.5 3.8-14.9 3.8"/></defs><clipPath id="SVGID_11_"><use xlink:href="#SVGID_10_" overflow="visible"/></clipPath><linearGradient id="SVGID_12_" gradientUnits="userSpaceOnUse" x1="1" y1="601.014" x2="2" y2="601.014" gradientTransform="matrix(94.5044 0 0 -94.5044 -68.455 57122.121)"><stop offset="0" stop-color="#10b0e6"/><stop offset=".161" stop-color="#0faae1"/><stop offset=".372" stop-color="#0c9ad2"/><stop offset=".61" stop-color="#077fba"/><stop offset=".867" stop-color="#015999"/><stop offset=".9" stop-color="#005494"/><stop offset="1" stop-color="#005494"/></linearGradient><path class="st4" d="M26.3 315h94.9v17.3H26.3z"/></g><path class="st5" d="M48.3 230.9c-5.9 5.9-9.2 13.7-9.2 21.9v66.1H105c17.2 0 31.2-14 31.2-31.2v-66h-66c-8.1 0-16 3.3-21.9 9.2zm84.6-5.2v62c0 15-12.2 27.2-27.3 27.2h-62v-62.1c0-14.8 12.3-27.1 27.2-27.1h62.1z"/><path class="st6" d="M25.7 221.7h110.6v110.6H25.7z"/><g><path class="st6" d="M25.7 221.7h110.6v110.6H25.7z"/></g></g></svg>