<?xml version="1.0" encoding="utf-8"?>
<!-- Generator: Adobe Illustrator 22.1.0, SVG Export Plug-In . SVG Version: 6.00 Build 0)  -->
<svg version="1.1" id="Layer_1" xmlns="http://www.w3.org/2000/svg" xmlns:xlink="http://www.w3.org/1999/xlink" x="0px" y="0px"
	 viewBox="0 0 300 250" style="enable-background:new 0 0 300 250;" xml:space="preserve">
<style type="text/css">
	.st0{fill:#FFFFFF;}
	.st1{fill:none;stroke:#FCFCFC;stroke-width:0.342;stroke-miterlimit:10;}
	.st2{fill:none;}
</style>
<g>
	<path class="st0" d="M166.1,68.6h0.4c0,1,0.3,1.5,0.8,1.5l3.2-0.2c0-0.8,0.4-1.2,1.1-1.2c0.6,0.2,1,0.3,1.3,0.3l-0.3,0.8h0.3
		c1.2-0.8,2.3-1.3,3.5-1.3l0.1,1.2c-1.1,0.1-1.6,0.3-1.6,0.8v0.3c1.3-0.1,3.3,0.4,5.9,1.4l4.9-0.3c0.4-0.1,0.8-0.5,1.2-1.3
		c0.8,0.3,1.6,0.8,2.4,1.4l5.4-1h1.1c2.7,0.9,4.1,1.6,4.1,2.1c-0.4,0-0.9,0.5-1.6,1.5l0.1,0.4l0.5,1.8l1.9-0.4L203,78
		c0.3,1.3,0.5,2.1,0.5,2.3c-0.5,0.1-0.8,0.4-0.8,0.8l1.7,1.8l-1.4,3.1v0.4h0.4l1.5-1.3l0.4,0.8l0.1,0.8l-1.6,1.6
		c0.3,0.4,0.5,1,0.6,1.5c-0.8,0.2-1.2,1.2-1.1,3c0.4,2,2.2,3,5.3,2.9c1.4,1.2,2.1,2.3,2.1,3.3c-1.3,0.7-2.1,1.5-2.2,2.3
		c2,1,3.1,1.4,3.5,1.4v0.3c0.1,0.5-0.4,0.8-1.4,0.8l0.5,2.6v0.8c0,0.5-0.3,0.8-0.8,0.8l0.5,0.8v0.3c0.1,0.7-0.2,1.4-0.7,2.3
		c1.1,0,1.6,0.5,1.7,1.5l0.8-0.1l1.4-1.6h0.3c0.6,0,0.9,0.4,0.9,1.1c-0.3,1.8-0.6,2.7-1.1,2.7l0.5,0.8v0.8c0.1,0.5-0.2,0.8-0.8,0.8
		l0.9,2.6l-0.3,0.8l0.9,4.1l0.8-0.4h0.8l0.1,1.1c-0.8,0.1-1.2,0.4-1.2,1.2c0,0.4,0.8,1.3,2.4,2.6c0,0.3-1.7,1.2-4.9,2.5
		c-1.2,1.8-1.8,3-1.8,3.4l0.4,0.8c-0.1,1-0.3,1.5-0.7,1.5c0.3,0.5,0.4,0.9,0.4,1.2c-0.3,1-0.7,1.5-1,1.5c-0.9-0.8-1.3-1.4-1.3-1.8
		c0.2-0.5,0.3-0.9,0.3-1.1c-0.4,0-0.8-0.4-1.2-1.1c0.5-0.1,0.7-0.3,0.7-0.8c0-0.5-0.8-0.7-2.3-0.6l-0.1-1.5c1.4-1.3,2.1-2.5,2.2-3.5
		c2.1-0.9,3.5-1.8,4.2-2.9v-0.4c-0.6,0.1-1.1-0.3-1.7-1c-1.6,1.6-3,2.5-4.2,2.9c0.1,0.7-0.3,1.1-1.1,1.2v0.8l0.9,1.1
		c-0.7,1.3-1.2,1.9-1.5,1.9c0.1,1.6,1,2.9,2.9,4l0.1,0.8l-4.9,1.8l-1.2-0.7c-4.1,0.6-6.6,1.2-7.3,1.8h-0.4c-0.2,0-0.3-0.1-0.3-0.3
		l-0.8,0.4l-2.3-0.3c0,0.3-0.4,0.7-1.1,1.2h-0.8c0-0.2-0.3-1.2-0.9-2.9v-0.4l0.3-0.8c-0.2,0-0.4-0.1-0.4-0.3c2.6-2.3,3.8-3.6,3.8-4
		l-0.8-0.3l-0.8,0.1l-1.2,0.8l-0.3,0.1c-0.5,0-0.8-0.3-0.8-0.8c0.5,0,0.8-0.3,0.8-0.8c-0.3,0-0.4-0.1-0.4-0.4l0.8-0.4l-0.4-0.7v-0.8
		l0.3-1.8c-0.3,0-0.4-0.1-0.4-0.4l0.8-0.3l-0.4-0.8V126c-0.1-1.8,0.8-2.7,2.6-2.8v-0.4l-0.8-0.3l0.3-0.8V121l-1.9,0.4l-0.4-0.7
		c-1.6,0.6-2.6,0.8-3.2,0.8l-0.4-2.2c0.1-0.9,1-2.2,2.5-3.6c0,0.3,0.2,0.4,0.5,0.4c-0.1-0.6,0.2-1.3,0.7-1.9c-0.6,0-1.1-0.1-1.6-0.3
		c0,0.5-0.3,0.8-0.8,0.8h-0.8c-0.5,0-0.8-0.3-0.8-0.8l-0.2-2.3c0.5-1,1.1-1.5,1.9-1.6l-2.9-2.9c-0.1-0.6-0.2-1.1-0.4-1.5
		c0.2-0.5,0.3-0.9,0.3-1.2v-0.3h-0.3c0,0.8-0.6,1.6-1.9,2.3h-0.3c-1.5,0.1-3.3,0-5.5-0.1c-1.3,0.3-1.9,0.7-1.9,1.2v0.4l0.9,1.1
		l1.9-0.5l3.9-0.2l1.1-0.8c1.1,1.1,1.6,2.2,1.8,3.3c-0.8,0.1-1.6,1-2.3,2.8l-0.7,0.4h-0.5c-0.6,0.1-1-0.6-1.2-1.8h-0.4
		c0.1,1.3-0.2,1.9-0.8,1.9l0.5,0.8c-0.6,2.1-1.4,3.1-2.3,3.1l-0.8,0.1l0.4,1.8l0.1,0.4h-0.8c-0.5,0.1-0.8-0.2-0.8-0.7l0.3-1.9
		c-1.5,1.6-3.2,2.4-5.1,2.5l0.1,0.8c0.8-0.1,1.2,0.2,1.3,0.7l1.5-0.8c0.8,0.4,1.6,0.7,2.4,0.7v0.8c0,0.3-0.4,0.7-1.2,1.2l0.4,0.8
		c-0.7,1.3-1.2,2.5-1.3,3.4c0.3,0.5,0.4,0.9,0.4,1.2l-1.5,1.2c-0.5,0-0.8-0.3-0.8-0.8l-0.1-1.8l-1.6-0.3l-2.2,3.1
		c0.3,0,1.5,0.8,3.7,2.5l-2.1,5.8c-2.8,1.3-4.2,2.1-4.2,2.4v0.4c0.7-0.1,1.1,0.2,1.2,0.7c0,0.5-0.5,0.8-1.6,0.8l0.1,1.5
		c0.7,0.6,1.3,2.3,1.8,5.2c0.4,0,1.5-0.9,3.4-2.8h0.3l1.3,0.7h0.4c3-0.2,5.6-1,7.8-2.6c0.9,0.4,1.5,0.7,1.9,0.7
		c0.1-0.6,0.3-0.8,0.8-0.8c0.3,0,0.4,0.1,0.4,0.3c1.7-0.8,2.9-1.3,3.5-1.3l1.6,1.4l2.3-1.6l0.8-0.1v1.6l0.5-0.1
		c1.5-1.3,2.2-2.3,2.2-3.1c-0.2,0-0.4-0.1-0.4-0.3l0.4-0.1l2,1.1l1.9-0.5c2.2-0.1,3.5-0.1,3.9-0.2c-0.1-0.7,0.2-1.1,0.7-1.2l1.7,1.8
		h0.4c4.1-0.7,6.6-1.3,7.3-1.8l0.3,0.7l-0.3,0.8l0.8-0.1c0-0.6,0.5-1.3,1.5-2.3l-0.5-0.8v-0.3c0.5-1,1.1-1.5,1.9-1.6l-0.4-0.8
		c1.7-3.1,3.3-4.7,4.9-4.8l0.8,0.3l-0.3,0.8c0,0.4,0.3,1.1,0.8,2.2c-0.4,0.3-1,0.4-1.9,0.5l0.1,1.8l-0.3,1.9l3.7,1.8h-0.4
		c0.6,1.5,0.9,2.5,0.9,3c0.1,0.7-0.3,1.8-1,3.4l0.5,2.3h-0.3l0.4,0.8v0.8c0,0.6-0.1,1.1-0.3,1.5c0.3,0.4,0.4,0.8,0.4,1.1
		c-3.9,2-5.9,2.9-6.1,2.9c-0.5-0.2-0.9-0.3-1.3-0.3l0.1,1.9l2,0.3c0.4,0,2-1.2,4.6-3.6h0.8c1.2,0.4,1.9,0.9,2,1.4l-1,1.9
		c1.2,0,1.9,0.3,2,1l0.1,1.5c-1,1.2-1.5,1.8-1.5,2l1.2,1.4c-0.2,0.4-0.3,1-0.3,1.5h0.8c-0.1-1,0.2-1.5,0.7-1.6h0.3
		c1.1,1,1.9,1.4,2.4,1.4v0.8c0.1,0.5-0.2,0.8-0.7,0.8l-0.8,0.1l-1.7-1.1h-0.3v0.8c1.9,1.1,2.9,2,2.9,2.5c-0.2,0.5-0.3,0.9-0.3,1.2
		c0.4,0,1,0.5,1.7,1.4v0.4c-0.1,0.5-0.7,1-1.8,1.6c-0.1-0.5-0.4-0.8-0.9-0.8c-0.5,0.1-0.7,0.4-0.7,0.8v0.3c3.2,2,5.1,3.3,5.7,3.9
		v0.3c-2,1.6-3.1,2.4-3.4,2.4v0.8l1.6-0.1l1.3-0.8h0.3v0.8h-0.8l0.1,0.4l1.6,1.4c-0.4,0.1-0.7,0.4-0.7,0.8c0.7,0,1.1,0.3,1.2,0.8
		l-3.4,2c0.1,0.2-0.1,0.4-0.3,0.4H228l-2.4-1l-0.3,0.8c0.4,0,0.8,0.4,1.3,1.1l-1.5,1.6l0.1,0.8c0.7-0.1,1.1,0.6,1.2,1.8l0.8-0.1
		l-0.5-0.8c1.8-1.2,2.8-2,2.8-2.3c0.9-0.6,1.9-0.9,3-0.9h0.8c0.8,0.2,1.2,1,1.3,2.2c-0.7,0.6-2,1.3-3.9,2.1v0.8
		c0.2,0.5,0.5,0.8,0.9,0.8c1-0.8,1.8-1.3,2.3-1.3c0,0.2,0.1,0.3,0.4,0.3l-0.3,0.8v0.8c0.8,0,1.3,0.3,1.3,0.8
		c-0.3,0.5-0.4,0.9-0.4,1.1c0.4-0.2,1-0.4,1.9-0.4l0.5,0.8c-0.4,1-0.8,1.5-1.1,1.5l-1.3,0.1c-0.6-0.5-1.1-0.7-1.5-0.7
		c-0.6,0.3-1,0.4-1.2,0.4c-0.1-0.3-0.2-0.4-0.4-0.3c-1.3,0.9-1.9,1.9-1.8,3.1c1.4,1.2,2.6,1.7,3.7,1.7c0.1-0.7,1.1-1.1,3-1.3
		c0.4,0,0.8,0.4,1.3,1.1v0.4c0.1,0.5-0.3,0.8-1.2,0.8l0.1,1.2c3.2,1.3,4.9,3.4,5,6.2l0.8,1.1v0.8h-0.3c-0.5,0-0.8-0.4-0.8-1.1h-0.3
		v0.8l-0.8,0.1l-0.4-1.9c-1.5,0.1-2.4,0.7-2.7,2c0.7,1.7,1.6,3.2,2.6,4.4c-0.3,0-1.3,0.3-3.2,0.9h-0.3c-0.3,0-1-0.6-2.1-1.8l0.3-1.8
		c-0.4,0-0.9-0.2-1.6-0.7h-1.2c-0.4,0.1-2.6,0.7-6.7,1.8l0.1,1.5c1.3,1.1,2,1.7,2,1.8c-0.9,1.8-2.2,2.7-3.8,2.8l0.3-0.8l-0.1-1.1
		h-0.8c0.1,1.3-0.2,1.9-0.8,1.9h-0.3c-0.6-0.1-1.1-0.6-1.7-1.8c2.3-0.8,3.4-1.4,3.4-1.7c-0.6-1.5-1.2-2.2-1.7-2.2
		c-0.2,0-0.9,0.8-2.3,2.3l-0.8-0.3c-0.2,0.7-0.8,1.3-1.8,1.9c-0.6-0.6-1-1.3-1-2.2l-2.7,0.1c-0.1-0.8-1.5-2.5-4.2-5.1V213l0.3-0.8
		l-2.8-8.9c-1-1.1-1.8-1.7-2.5-1.8c0,0.3-0.1,0.4-0.3,0.4c-0.3-0.5-0.4-0.9-0.4-1.1c-0.1-0.9,1.2-1.8,3.8-2.9
		c-0.3-0.7-0.6-1.1-0.9-1.1c-0.4,0.3-0.8,0.4-1.1,0.4l-0.4-0.8c0-0.4,0.9-1.4,2.6-2.8v-0.3c-0.4-1-0.9-1.5-1.3-1.5
		c0,0.5-0.3,0.8-0.8,0.8c-0.5-0.6-0.8-1.1-0.8-1.5l-0.8,0.4l-1.6,0.1l-0.1-0.8c1.8-1.1,2.8-1.7,2.8-2l-0.1-0.4l-0.5-0.7
		c0.3-0.4,0.5-1,0.4-1.6v-0.8l-1.2,0.8l-0.4-0.8c0.2-0.5,0.3-0.9,0.3-1.1l-2.3,3.4l-0.3-0.7l-0.2-3.4l-0.9-1.1c0-0.7,1-1.2,3.1-1.7
		h0.4v0.8l1.3-0.1c7.3-1.7,11-3.1,10.9-4.3l-0.1-0.4l-0.3,0.1c0,0.5-0.6,1-1.9,1.6c-1.1,0-1.6-0.6-1.7-1.8c-7,0.9-10.8,1.7-11.4,2.4
		h-0.4c-0.4,0.1-1-1.2-1.8-3.7c1-1.6,1.5-2.6,1.4-3.1l-0.8-0.3c0,0.3-0.1,0.4-0.4,0.4c-0.3-0.5-0.4-0.9-0.4-1.1
		c-0.1-0.8,0.3-1.2,1.2-1.3v-0.3h-0.8v0.4c-0.4-0.2-1-0.3-1.5-0.3l-0.1-0.8c0.1-0.5,0.3-0.8,0.8-0.8h0.3c1,0.7,1.9,1,2.8,1l0.4-0.8
		l-1.2,0.1v-0.4l0.3-0.8l-0.8,0.1l-0.1-0.8l2-0.1v-0.4c-2.3-0.2-3.8-0.2-4.4-0.2l-0.1-1.2c0-0.5,0.5-0.8,1.5-0.8l-0.4-0.8
		c0-0.3,0.1-0.4,0.3-0.4c0-0.2-0.1-0.3-0.3-0.3l0.3-2.7l-0.1-0.4c0-0.5-0.3-0.7-0.8-0.7l-1.2,1.6c0.3-0.1,0.5,0.1,0.5,0.3l-0.8,0.4
		h-0.8c-1.2-1-2.2-1.4-2.9-1.3c-1.5,0.3-2.5,0.4-3.1,0.5v-0.4c-0.4,0.1-1.1,0.7-2.3,2h-0.3c-0.3,0-0.5-0.1-0.5-0.3l-1.5,0.8
		c-2.1-0.3-3.2-1.1-3.3-2.5c0.2,0,0.3-0.1,0.3-0.4l-0.8-0.3c-1,2-1.4,3.5-1.4,4.6l1.7,0.7c-0.4,1.6-1.1,2.5-1.8,2.8l-2.8-1.4
		l-0.1-0.3l0.8-1.2c-0.1-0.5-0.3-0.8-0.8-0.8c0.1,0.4-0.3,0.8-1.2,1.2c-2.3-0.3-3.6-1.4-3.7-3.2c-0.1-1.6-0.5-2.5-1.3-2.6H169v0.4
		c0.1,0.4,0.4,1.1,1,2.2c-0.3,2.6-0.8,3.9-1.4,3.9h-0.4c-0.1-1-0.6-1.5-1.7-1.4V163c0.7-1.2,1-2.1,1-2.7l-2.4-1.1
		c-0.4,0.1-1,0.7-1.8,2c-1.1-0.3-1.7-0.7-1.7-1.1c-0.8,0.3-1.3,0.4-1.5,0.4l-2.3-0.3c0,0.3-0.1,0.4-0.4,0.4
		c-0.1-0.5-0.3-0.8-0.8-0.8c-0.5,1.1-1.3,1.6-2.3,1.7l0.1,0.3l0.8,1.1c0.2,3.2-2.3,6.2-7.4,9.1c-0.5-0.2-1-0.3-1.6-0.3v0.4
		c0.3,0.4,0.4,0.8,0.4,1.1l1.2-0.8l0.8-0.1c0.4,0,0.8,0.4,1.3,1.1c-1.2,2.1-2.2,3.1-3,3.2l0.1,1.8h0.8v0.3c0.1,0.4-0.3,0.8-1.2,1.2
		l-0.8-0.3c0.1,0.8-0.4,1.2-1.5,1.3l0.1,2.3c-1.5,1.3-2.2,2.3-2.2,2.8c0.2-0.1,0.6,0,1.1,0.3c-0.2,0.5-0.3,0.9-0.3,1.2l-0.8-0.3
		c0.2,2.9-1.3,5.3-4.4,7l0.4,0.7c0.1,1.2-2.4,5.3-7.4,12.2l-3.9-0.3c0,0.5-0.3,0.8-0.8,0.8l-1.9,0.1c-1-0.3-3.6-1.6-7.9-3.9
		c-1.1,0.1-3-1.3-5.8-3.9c-1.8,0.1-3.4-0.7-4.8-2.4l5.7-14c-0.3-0.4-0.4-0.8-0.4-1.1c0.7-0.1,1.5-1.7,2.5-5l1.1-0.1l0.8,0.3
		c-0.2-4.2,1.1-6.4,3.7-6.5c0-0.3,0.1-0.7,0.3-1.2l-0.6-2.3l-0.1-0.8c0.3-1.1,2.6-2.2,7-3.4h0.3l-0.1-1.8h-0.8
		c0.1,1-0.2,1.5-0.8,1.5l-0.8,0.1c-0.4,0-1-0.5-1.7-1.4l1.2-0.8l0.8,0.3l0.3-0.8l-0.8-1.1v-0.4c1.1-1.8,2.7-3.1,4.9-3.9l1.6-0.1
		l0.1,0.8c-1.1,0.1-1.6,0.3-1.6,0.8l1.2-0.1l2.8-0.9l-0.1-1.5l-0.4,0.1c-0.4,0.3-0.8,0.4-1.2,0.4c-0.1-0.6-0.7-1-2-1.1
		c-0.5,0.3-0.9,0.4-1.1,0.4l-0.4-0.7c1.5-2.9,3-4.8,4.4-5.5l-0.5-1.8c0.6-2.1,1-3.1,1.3-3.1s0.9,1.1,1.8,3.4
		c-0.2,0.5-0.3,0.9-0.3,1.1c0.3,0.5,0.4,0.9,0.5,1.2c0.6-0.1,0.8-0.4,0.8-1.2c-0.3-0.5-0.5-0.9-0.5-1.2c0.4-0.3,1-0.4,1.6-0.4
		l-0.1-0.8c-2.2-1.9-3.3-3-3.4-3.3c1.8-0.8,2.7-2,2.7-3.5c-0.3-0.4-0.5-0.8-0.5-1.1c0.6-1.8,1-2.7,1.4-2.8c0.1,0.4,0.5,0.8,1.3,1.1
		h0.4c-0.1-0.7,0.6-1.1,1.9-1.2c-0.1-0.4-0.5-0.8-1.3-1.1v0.8h-0.3c-0.5,0-0.8-0.3-0.8-0.8c0-0.5,0.4-0.8,1.1-0.8v-0.4l-1.1,0.1
		l-0.1-0.8c2.3-1.2,3.4-3.5,3.2-7c0.4-2.6,1-3.9,1.8-3.9c0.3-0.1,0.4,0.1,0.4,0.3l0.8-0.4l0.8,0.3c0.4-0.6,0.6-1.5,0.6-2.7h0.8
		c0.5-0.1,0.8,0.3,0.8,1.1h0.4c0.6-0.8,1.7-1.2,3.4-1.3c0.7,0.7,1.3,1.1,2,1.1c0.5-0.3,0.9-0.4,1.3-0.4l-0.5-0.8l0.3-2.3
		c-1.2,0.3-2.3,0.9-3.1,1.6c-0.9-0.4-1.6-0.7-2-0.7l-2.3,0.5c-0.3-0.4-0.4-0.9-0.4-1.5l-1.2,0.8h-0.4l-0.1-1.8
		c0.5-0.1,1.2-1.6,2.2-4.7h0.8c0.4,1.5,1,2.9,1.8,4.1l1.9-0.9c-0.6-0.8-0.8-1.5-0.8-2.2l-0.2-3.8l-0.6-1.8c0.6-0.1,0.8-0.3,0.8-0.8
		c-0.6,0-0.9-0.3-0.9-0.8V103l0.4-1.9h0.8c-0.2,0.5-0.3,0.9-0.3,1.2v0.3h0.4l0.3-1.9c0-0.2-0.2-0.9-0.5-2.3c0.4,0,1.1-0.5,2.3-1.6
		l0.8,1.1c1.2-0.6,1.8-1.1,1.9-1.6c-1.4,0.1-2.5-0.5-3.2-1.8c0.4-0.6,0.7-1.1,0.7-1.5l1.2-0.1l0.1,0.8l1.5-0.1l-0.1-1.1l-1.2-1.5
		c1-0.8,2.1-1.2,3.5-1.3h0.8c-0.1-0.6,0.8-1.4,2.6-2.4c0.1-0.5,0.3-0.8,0.8-0.8c0.5,0.1,0.8,0.3,0.8,0.7v1.2l1.3,0.7h0.4
		c0.4,0,0.9-0.5,1.5-1.6v-0.8l-2-0.3l-0.1-0.8c0-0.5,0.5-0.8,1.5-0.8l-1.7-1.4c0-0.3,0.1-0.4,0.4-0.4l-0.4-0.8l0.3-2.3L163,79v-0.8
		l0.3-0.8c-0.5,0.1-0.8-0.2-0.8-0.7c0.3-1,0.7-1.5,1.1-1.6l-0.4-1.8l-0.1-1.2L166.1,68.6z M113,194.1l0.8-0.1l-0.1-0.8
		C113.1,193.4,112.9,193.7,113,194.1z M113.9,191.8c0.2,1.5,0.7,2.2,1.3,2.2h0.4c4.2-1.2,6.4-2,6.4-2.4
		C118.1,191.9,115.4,192,113.9,191.8z M114.1,195.6l0.2,2.3c2.9-0.3,4.6-0.2,5.4,0.3h0.3v-0.3c-3.6-0.8-5.5-1.6-5.5-2.2H114.1z
		 M117,187.5v1.5h0.4l-0.1-1.5H117z M118.2,180.6v0.8c0.6-0.1,0.8,0.1,0.8,0.3c0.9-0.6,2-0.9,3.1-0.9c1.1,1,2.2,1.5,3.3,1.4
		c-0.1-0.4,0.3-1.1,1-2l-0.4-0.7c0.5-1.1,0.7-1.8,0.7-2.3l-2.3,0.1C122.6,179.1,120.5,180.2,118.2,180.6z M119.4,187.7v0.4l0.8-0.1
		v-0.3H119.4z M127.3,181.4l-0.4,0.8v0.3l4.9-0.4v-0.4C131.8,181.1,130.3,181,127.3,181.4z M130.1,157.3c0.1,1.7-0.7,3.2-2.5,4.6
		l0.1,0.8h0.3c0.5-0.3,0.9-0.4,1.3-0.4l0.3,0.8l0.8-0.4l1.3,0.7c0.5-0.8,0.8-1.7,1-2.7C131.6,158.4,130.8,157.3,130.1,157.3z
		 M128.1,169.9v0.8c0.5,1.3,1.5,1.9,2.9,1.8c0.1-0.6,0.4-0.8,0.8-0.8l0.1,0.8l5.7-0.5c0.5,0,0.7-0.3,0.7-0.8v-0.4
		c-5.4-0.2-8.1-0.5-8.1-0.9v-0.3L128.1,169.9z M133.2,154.5v0.8l0.4-0.1c2.1-0.8,3.2-1.3,3.4-1.3l-0.1-1.5c-0.5,0-0.8-0.1-0.8-0.3
		C134.3,153.1,133.3,153.9,133.2,154.5z M134.2,159.4v0.8c0.3-0.1,0.7,0.1,1.3,0.3c4-1,6-1.6,6-2.1v-0.3l-4.5,0.4L134.2,159.4z
		 M138.4,140.3v0.8l0.4-0.1c0.6,0,0.8-0.3,0.8-0.8L138.4,140.3z M138.6,145.6c0.2,1.5,0.6,2.2,1.3,2.2h0.4c4.2-1.2,6.4-2,6.4-2.4
		C142.7,145.6,140,145.7,138.6,145.6z M138.8,149.3l0.1,2.3c2.9-0.3,4.6-0.3,5.4,0.3h0.3v-0.4c-3.5-0.8-5.3-1.5-5.5-2.1H138.8z
		 M139.1,131.1l0.1,0.8h0.4v-0.8H139.1z M144.1,157.5l-1.9-0.3c0,0.6-0.1,1.1-0.3,1.6c0.6,0.8,0.8,1.4,0.8,1.8l2.8-0.5l1.2-0.1
		c0.2,0,0.4,0.1,0.4,0.3c1.8-0.5,2.7-1,2.7-1.6c-0.1-1.2-0.5-2.2-1.3-3C146.9,156.9,145.4,157.5,144.1,157.5z M142.2,123h1.6v-0.8
		H143C142.5,122.4,142.2,122.6,142.2,123z M142.7,125.3v0.4c0.1,0.5,0.4,0.7,0.9,0.7c0.5,0,0.7-0.3,0.7-0.8v-0.8
		C143.9,125.1,143.4,125.3,142.7,125.3z M142.9,166.7l0.1,0.8c0.6-0.1,0.8-0.3,0.8-0.8L142.9,166.7z M143.4,138.8
		c0.4,0,2.2,0.1,5.3,0.3l0.4-0.1c0-0.2-1.1-0.8-3.4-1.8l-0.8,0.1C144.5,137.3,144,137.8,143.4,138.8z M148.7,126.9
		c0.1,1.1-1.7,2.8-5.2,5.1v0.4l0.4,0.7c0.5-0.2,0.9-0.4,1.2-0.4l0.8,0.3c1.3-0.1,2.1-0.8,2.2-2.3h0.8c0.6,0.1,0.9,0.3,0.9,0.7
		c-0.3,0.1-0.4,0.2-0.3,0.4c3.3,0.2,5.2,0.3,5.6,0.3v-0.4c-2.5-0.4-4.4-2-5.5-4.8L148.7,126.9z M156.6,137.7l-1.7-0.7
		c-1.3,0.7-1.9,1.3-1.8,1.6c0.1,1.6-0.8,2.9-2.6,3.9c0.5,0.2,0.9,0.3,1.3,0.3v0.8L149,144c0-0.5-0.3-0.7-0.8-0.7
		c-0.5,0-0.8,0.4-0.8,1.2c0.3,0.7,0.6,1.1,0.8,1.1c0.4-0.3,0.8-0.4,1.2-0.5c0.1,0.5-0.3,0.8-1.2,0.8l0.1,1.5c0.5,0,1.8-0.8,3.9-2.4
		l-0.4-0.8l-0.1-0.8c1.5,2.2,2.7,3.3,3.7,3.3v-0.4c-0.1-0.9,0.2-1.6,0.7-2.3c0-0.6-1.1-1.1-3.3-1.8v-1.1c2-1.5,3-2.5,3-2.9l0.8-0.4
		h0.8c0.6,0.1,0.8,0.3,0.8,0.8l-0.3,0.8c1.1,0.4,1.9,0.7,2.4,0.7c0.4-0.7,1-2,1.8-3.9l-0.3,0.1c-0.6,0.3-1,0.4-1.3,0.4
		c-0.8-0.8-1.3-1.4-1.3-1.8h-0.4C158.3,134.9,157.6,135.8,156.6,137.7z M147.9,161.9c0.1,0.6,0,1.1-0.3,1.5c0.5,1.1,1,1.7,1.6,1.8
		c0-0.2,0.1-1.2,0.3-3l-0.9-0.3H147.9z M147.9,109.5h0.8v1.2c-0.5,0-0.8-0.3-0.8-0.8V109.5z M149.7,150.1l-0.4,0.8l2.9,0.7v-0.4
		C151.8,150.4,151,150,149.7,150.1z M151,126v0.4l3.2-0.2l3.9,2.6h0.8c0-0.8,0.4-1.2,1.2-1.2l-0.8-1.1c0.3-0.5,0.4-0.9,0.4-1.2
		c-2.9-0.2-4.3-0.4-4.3-0.7c0.4-0.1,0.8-0.5,1.2-1.3l-0.1-0.3c0-0.4-0.4-0.8-1.3-1.1l-1.1,0.1L151,126z M151.8,100.6l0.1,0.8
		c0,0.4,0.4,0.8,1.2,1.1v-0.3l-0.5-2.3C152.1,100,151.8,100.2,151.8,100.6z M152.8,113.1c0,0.3,0.4,0.7,1.3,1.1
		c0.5-0.1,0.8-0.3,0.8-0.8c-0.5,0.1-0.8-0.3-0.8-1.1l-0.4,0.1C153.1,112.4,152.8,112.7,152.8,113.1z M153.8,109.7l0.4,0.8
		c-0.2,0.5-0.3,0.9-0.3,1.1h1.1c-0.1-0.7,0.2-1.3,0.8-1.9l-0.8-0.3h-0.4L153.8,109.7z M154.2,101.7c1.2,2.2,3,3.2,5.2,3.2
		c0.4-2.5,0.7-4,0.7-4.6c-0.6,0.1-0.9-0.2-0.9-0.7C157.7,100.4,156.1,101.1,154.2,101.7z M156.4,167.6c0.5,0.1,0.8,0.3,0.8,0.7v0.4
		c0,0.6-0.6,1-1.9,1.2l-0.4-0.7C154.9,168.8,155.4,168.2,156.4,167.6z M168.3,111.4c0,0.3-0.5,0.7-1.5,1.2l-6.1,0.2h-0.4l-1.9,1.3
		l0.4,0.7l0.1,0.4l-0.8,1.2l0.5,1.8l5.3-0.5l-0.1-1.8c0.1-0.8,1.1-1.2,3.1-1.3l0.3-0.1l0.1,1.5c0.8-0.8,1.5-1.2,1.9-1.2
		c-0.1-0.5-0.3-0.8-0.8-0.8l0.7-2.3L168.3,111.4z M158.3,132.3l1.2-0.1l3.4-2.4l-0.8,0.1c-0.6,0.3-1,0.4-1.2,0.4
		c-0.3-0.4-0.4-0.9-0.5-1.5h-0.3C159.4,128.8,158.8,130,158.3,132.3z M158.9,109.8v0.3h0.8V109C159.2,109.1,158.9,109.4,158.9,109.8
		z M166.7,92.1c0.1,0.5-0.2,0.8-0.7,0.8l-0.8-0.3c-1.3,0.3-2.3,1-3,2l-0.8,0.1l-1.2-0.8c0.1,1.3-0.3,1.9-1.2,1.9l0.6,1.9l0.1,1.5
		l1.5-0.1c0.1-2.2,0.3-3.6,0.6-4.2c1.3,0.3,2,1.1,2.1,2.2h-0.4l-0.8-0.3l0.1,0.4c1.1,1.1,1.7,1.6,1.7,1.8c-0.6,0.1-1.4,1.2-2.6,3.5
		l-0.4,0.1v0.3h0.8l2.7-0.9c0.1,0.5,0.4,0.8,0.8,0.8h0.4c-0.6-0.8-0.9-1.5-0.9-1.9c0.4,0,0.8-0.9,1.1-2.7l-1.7-1.8l3-2.1
		c0.6,0.1,0.8,0.3,0.8,0.8c-0.2,0-0.3,0.1-0.3,0.4c0.5,0.1,0.8,0.3,0.8,0.7c1.6-0.8,2.5-1.3,2.7-1.3l-0.1-1.1c0-0.4-0.4-0.8-1.2-1.1
		l-1.2,0.8h-0.3L166.7,92.1z M161,79.4c0.7,2,1.3,3.4,1.8,4.1v0.3l-0.3,0.1l-1.7-1.1c0.1,1.8-0.1,2.7-0.6,2.7
		c-0.6,0-0.9-0.3-0.9-0.8c0-0.2,0.2-0.3,0.5-0.3l-0.5-0.8c0.7-1,1.1-1.8,1.1-2.3c-0.3-0.4-0.4-0.8-0.4-1.1L161,79.4z M159.6,143.2
		l0.1,1.2c0.5-0.1,0.7-0.3,0.7-0.8v-0.3H159.6z M161.4,104.8v0.3c0.2,0.5,0.4,0.8,0.8,0.8l0.4-0.8l-0.8-0.3L161.4,104.8z
		 M163.2,136.6v0.4l1.9-0.5c0-0.5-0.3-0.7-0.8-0.7H164C163.4,135.9,163.2,136.2,163.2,136.6z M163.7,129.8c0.3,0,0.7,0.1,1.2,0.3
		l0.3-0.8l-0.1-1.1C164.7,128.2,164.3,128.7,163.7,129.8z M164.1,122.6l0.1,1.8c2.1,0.3,3.1,1.1,3.2,2.2l0.5-0.1
		c0.5,0,0.7-0.3,0.7-0.8l-0.1-2.3l-1.9,0.5h-0.4l-0.1-1.9L164.1,122.6z M169,72.6l-0.3,1.6h-0.3l-0.9-0.3l0.1,0.8
		c0.3,0.4,0.5,0.8,0.5,1.1h0.8c0.5-0.1,0.8-0.3,0.8-0.8l-0.2-2.3H169z M168,67.7h0.8v0.8h-0.7L168,67.7z M168.3,99.2
		c0,0.3,0.5,0.7,1.6,1v-1.1L168.3,99.2z M168.9,79.8l0.1,0.8h0.3v-0.8H168.9z M169.8,80.6v0.8l0.8-0.1v-0.8L169.8,80.6z M170.3,67.2
		h1.1c0.1,0.5-0.2,0.8-0.7,0.8h-0.4V67.2z M171.1,112.4c0.6,0.6,0.9,1.3,0.9,2.2h0.4c0.3,0,0.9-0.6,1.8-1.9
		c-0.2-1.8-0.5-2.7-0.9-2.7C172.5,110.3,171.8,111.1,171.1,112.4z M176.5,160.2l0.1,1.2c0.3-0.1,0.7-0.4,1.1-1.2H176.5z M180.6,95.3
		c0,0.2-0.8,1-2.3,2.3c0.1,0.5,0.4,0.8,0.8,0.8c0.6-0.1,1.4-0.8,2.3-2.3C181.3,95.6,181.1,95.3,180.6,95.3z M179.6,159h0.8l-0.1-0.8
		C179.8,158.3,179.6,158.5,179.6,159z M184.3,147.8l-2.2,2.7v0.4h0.3c0.8-0.3,1.8-1.1,3-2.4L184.3,147.8z M187.5,125.7h0.3
		c0.6,0.1,0.8,0.3,0.8,0.7c-0.5,0.7-0.8,1.3-0.8,1.9l-0.8,0.1c-0.4,0-0.7-0.3-0.8-0.8C186.7,126.3,187.1,125.7,187.5,125.7z
		 M189.7,99.1l-1.9,0.1l-0.2,3.8l1.9-0.1c-0.1-1.2,0.7-2,2.3-2.3v-0.4c-0.8,0.1-1.2-0.4-1.3-1.4L189.7,99.1z M189.4,163.8
		c0.6,0,1,0.6,1.3,1.8l-1.2,0.8h-0.3l-1.3-0.8C188.3,164.6,188.8,164,189.4,163.8z M188.9,74.9v0.3c0,0.6,0.7,1,2,1.1
		c0-0.3,0.1-0.4,0.3-0.4c-0.3-0.4-0.4-0.8-0.4-1.1L188.9,74.9z M192.3,89.5h0.8l3.5-1.3v-0.3C193.7,88.2,192.3,88.7,192.3,89.5z
		 M192.4,75.1l0.1,0.8l0.3-0.1V75L192.4,75.1z M195.4,107.2l0.4,0.7c1.3-0.3,1.9-0.7,1.8-1.2l-0.8-0.3
		C196.3,106.8,195.8,107.1,195.4,107.2z M196.2,116.2v0.3h0.4l1.9-0.5V115C197,115.3,196.2,115.7,196.2,116.2z M197.4,116.9v0.3h0.8
		v-0.3H197.4z M199.3,106.6c0.1,1-0.3,1.9-1.1,2.7c0.6,0,0.9,0.1,0.9,0.3c2.1-0.1,3.7-1,4.9-2.9h-0.8l-1.2,0.8h-0.4l-1.7-1H199.3z
		 M199.2,103.9l0.8,0.4l0.5-0.1c0.2,0,1.2-1.3,2.9-3.9l-0.4-0.8C200.3,100.6,199.1,102,199.2,103.9z M201.3,114v1.5l-0.3,0.1v0.3
		c0.4,0,1.5,0.2,3.2,0.6c1.8-0.6,2.7-1.5,2.7-2.8l-0.8,0.1l-1.2,0.8l-0.8,0.1v-0.8L201.3,114z M202.2,139.4c0.6,0.1,0.8,0.3,0.8,0.7
		l-0.7,0.4c-0.6,0.1-0.9-0.2-0.9-0.7L202.2,139.4z M205.6,99.4c0-0.2-0.1-0.3-0.4-0.3l0.1,0.8l0.4,0.8l0.8-0.4h0.8v1.1h0.8l-0.1-2.7
		C207,99.2,206.2,99.4,205.6,99.4z M205.4,126c0,0.3,0.4,0.7,1.3,1h0.8v-0.3c-0.1-0.5-0.3-0.8-0.8-0.8L205.4,126z M207.5,145.2v0.3
		c0.5,0,0.8,0.5,0.8,1.5l2.8-0.2c0-1,0.4-1.5,1.1-1.5V145l-1.9,0.5h-0.4c-0.5,0-0.8-0.3-0.8-0.8C208.6,145,208,145.2,207.5,145.2z
		 M208.7,203.9v0.3h0.8v-0.4L208.7,203.9z M212.2,170l-2-0.3l-1.3,2.3v0.3h1.1l2.3-1.3c0.1,1,1,1.6,2.9,1.8l0.1,0.8l0.8-0.1
		c-0.1-1.5,0.7-2.3,2.2-2.7l1.6,0.3l1.9-1.2c0.4,0.2,1,0.3,1.6,0.3l0.3-0.8v-1.1h-0.4l-1.2,0.8c-0.7,0-1.5-0.2-2.3-0.7
		c0,0.3-0.1,0.6-0.3,1.1l-0.8-0.3l-1.1,0.8l-1.3,0.1v-0.4l0.8-1.2c-1.6,0.1-2.4,0-2.4-0.3C214.2,168.4,213.5,168.9,212.2,170z
		 M209.7,116.7c0,0.6-0.2,1.3-0.7,1.9c0,0.4,0.9,0.7,2.8,1c-0.1-0.5,0.4-0.8,1.5-0.8c0-0.7-0.3-1.4-0.9-2.2c-0.2,0-0.3,0.1-0.3,0.3
		l-2-0.3H209.7z M209.8,153l0.8,0.3h0.3c0.6-0.5,1.1-0.8,1.6-0.8l-0.2-1.5l-0.3,0.1C211,151.5,210.3,152.1,209.8,153z M212.3,107.9
		c0.4-0.1,0.9,0.4,1.3,1.4l-0.8,0.4l-1.2,0.1c0-0.3-0.1-0.7-0.4-1.2L212.3,107.9z M213.4,176.3h0.8l-0.1-0.8
		C213.5,175.7,213.3,175.9,213.4,176.3z M215.3,143.7v-0.3c-1.3,0.2-1.9,1.1-1.8,2.7h0.3l2-0.5c0.7,1.7,1.3,2.6,1.7,2.6h0.4
		c-0.1-0.5,0.5-1.5,1.8-3.1v-0.4c-0.8-1.2-1.3-1.8-1.7-1.8L215.3,143.7z M213.5,163.8v0.4c0.1,0.5,0.4,0.7,0.8,0.7h1.3
		c-0.1-0.4,0.2-0.9,0.7-1.6c-0.3,0.1-0.4-0.1-0.4-0.3C215,163.6,214.2,163.8,213.5,163.8z M214.9,169.5l0.1,1.2
		c-0.6,0-0.8-0.3-0.8-0.8L214.9,169.5z M218.5,179.9c0.1,0.8-0.6,1.4-2.3,1.6v0.8c2.1,0.2,3.4,0.4,4,0.6l1.9-1.3l0.8,0.3
		c0.2,0,0.3-0.1,0.3-0.3l2,0.3l1.6-0.1l-0.1-0.8c0-0.6-0.5-1-1.6-1c-0.6,0.3-1,0.4-1.3,0.4c0-0.5-0.3-0.8-0.8-0.8
		c0,0.4-0.4,0.8-1.2,1.2l-0.3,0.1C221.2,180.6,220.1,180.2,218.5,179.9z M216.6,195.9h0.8v-0.8C216.9,195.2,216.6,195.5,216.6,195.9
		z M217.5,217.5v0.8l0.8-0.1v-0.8L217.5,217.5z M219.3,177.3c0,0.7-0.4,1.1-1.2,1.2c0,0.3,0.4,0.7,1.3,1.1h0.3
		c0.5-0.1,0.8-0.3,0.8-0.8v-0.3C220.4,178,220,177.6,219.3,177.3z M218.9,193.2c0.1,0.7-0.2,1.6-0.8,2.7l1.7,0.7
		c-0.1-0.8,0.1-1.2,0.3-1.2C219.7,193.9,219.3,193.1,218.9,193.2z M219.8,189.3l0.1,0.8c0.1,0.5,0.4,0.8,0.8,0.8
		c0.8-0.8,1.4-1.3,1.8-1.3c-0.3-1.2-0.6-1.8-0.8-1.8C220.6,188.3,219.9,188.8,219.8,189.3z M220.1,196.9l0.1,1.2l0.8-0.1v-0.3
		C221,197.1,220.7,196.9,220.1,196.9z M220.6,138.9h0.4v0.8h-0.4V138.9z M225.6,201.9v0.4h0.8v-0.4H225.6z M232.6,200.1l0.4-0.1
		l0.1,0.8l-0.5,0.1V200.1z M241.6,215.2c1.6,0.6,2.4,1.1,2.4,1.4v0.8c0.1,0.5-0.3,0.8-1.2,0.8l-2.8-0.6v-0.4
		C240.8,215.9,241.3,215.3,241.6,215.2z"/>
</g>
<path class="st1" d="M114.5,195.6c0,0.6,1.8,1.3,5.4,2.2v0.3h-0.3c-0.7-0.4-2.5-0.5-5.4-0.3l-0.2-2.3H114.5z M122,191.6
	c0,0.4-2.1,1.2-6.4,2.4h-0.4c-0.7,0.1-1.1-0.7-1.3-2.2C115.4,192,118.1,191.9,122,191.6z M218.3,217.4v0.8l-0.8,0.1v-0.8
	L218.3,217.4z M240.1,217.2v0.4l2.8,0.6c0.8,0,1.2-0.3,1.2-0.8v-0.8c-0.1-0.3-0.9-0.8-2.4-1.4C241.3,215.3,240.8,215.9,240.1,217.2z
	 M209.4,203.8v0.4h-0.8v-0.3L209.4,203.8z M226.3,202.3h-0.8v-0.4h0.8V202.3z M232.6,200.9l0.5-0.1l-0.1-0.8l-0.4,0.1V200.9z
	 M221.1,197.6v0.3l-0.8,0.1l-0.1-1.2C220.7,196.9,221,197.1,221.1,197.6z M217.4,195.1v0.8h-0.8
	C216.6,195.5,216.9,195.2,217.4,195.1z M220.1,195.4c-0.3,0-0.4,0.4-0.3,1.2l-1.7-0.7c0.6-1.1,0.8-2,0.8-2.7
	C219.3,193.1,219.7,193.9,220.1,195.4z M221.7,187.7c0.2,0,0.5,0.6,0.8,1.8c-0.4,0-1.1,0.4-1.8,1.3c-0.4,0-0.7-0.3-0.8-0.8l-0.1-0.8
	C219.9,188.8,220.6,188.3,221.7,187.7z M113.7,193.3l0.1,0.8l-0.8,0.1C112.9,193.7,113.1,193.4,113.7,193.3z M221.8,180.9l0.3-0.1
	c0.8-0.4,1.2-0.8,1.2-1.2c0.5,0,0.8,0.3,0.8,0.8c0.3,0,0.7-0.1,1.3-0.4c1.1,0.1,1.6,0.4,1.6,1l0.1,0.8l-1.6,0.1l-2-0.3
	c0,0.2-0.1,0.3-0.3,0.3l-0.8-0.3l-1.9,1.3c-0.6-0.2-2-0.4-4-0.6v-0.8c1.6-0.2,2.4-0.8,2.3-1.6C220.1,180.2,221.2,180.6,221.8,180.9z
	 M220.5,178.3v0.3c0,0.5-0.3,0.8-0.8,0.8h-0.3c-0.8-0.4-1.3-0.8-1.3-1.1c0.8-0.1,1.2-0.4,1.2-1.2C220,177.6,220.4,178,220.5,178.3z
	 M120.1,187.7v0.3l-0.8,0.1v-0.4H120.1z M117.3,187.5l0.1,1.5H117v-1.5H117.3z M214,175.6l0.1,0.8h-0.8
	C213.3,175.9,213.5,175.7,214,175.6z M131.8,181.6v0.4l-4.9,0.4v-0.3l0.4-0.8C130.3,181,131.8,181.1,131.8,181.6z M214.2,169.9
	c0,0.5,0.3,0.8,0.8,0.8l-0.1-1.2L214.2,169.9z M214.4,168.4c0,0.2,0.8,0.3,2.4,0.3l-0.8,1.2v0.4l1.3-0.1l1.1-0.8l0.8,0.3
	c0.2-0.4,0.3-0.8,0.3-1.1c0.9,0.4,1.7,0.7,2.3,0.7l1.2-0.8h0.4v1.1l-0.3,0.8c-0.6,0.1-1.1,0-1.6-0.3l-1.9,1.2l-1.6-0.3
	c-1.5,0.3-2.2,1.2-2.2,2.7l-0.8,0.1l-0.1-0.8c-1.8-0.2-2.8-0.8-2.9-1.8l-2.3,1.3h-1.1v-0.3l1.3-2.3l2,0.3
	C213.5,168.9,214.2,168.4,214.4,168.4z M124.3,177.3l2.3-0.1c0.1,0.5-0.2,1.3-0.7,2.3l0.4,0.7c-0.7,0.9-1.1,1.6-1,2
	c-1.1,0.1-2.2-0.4-3.3-1.4c-1.1,0.1-2.2,0.4-3.1,0.9c0-0.3-0.3-0.4-0.8-0.3v-0.8C120.5,180.2,122.6,179.1,124.3,177.3z M154.9,169.2
	l0.4,0.7c1.3-0.2,1.9-0.6,1.9-1.2v-0.4c-0.1-0.4-0.3-0.6-0.8-0.7C155.4,168.2,154.9,168.8,154.9,169.2z M215.8,163
	c0,0.3,0.1,0.4,0.4,0.3c-0.5,0.7-0.7,1.2-0.7,1.6h-1.3c-0.4,0.1-0.6-0.2-0.8-0.7v-0.4C214.2,163.8,215,163.6,215.8,163z
	 M143.8,166.6c0.1,0.5-0.2,0.8-0.8,0.8l-0.1-0.8L143.8,166.6z M187.9,165.8l1.3,0.8h0.3l1.2-0.8c-0.2-1.2-0.6-1.8-1.3-1.8
	C188.8,164,188.3,164.6,187.9,165.8z M130,169.5v0.3c0.1,0.4,2.8,0.7,8.1,0.9v0.4c0.1,0.5-0.2,0.8-0.7,0.8l-5.7,0.5l-0.1-0.8
	c-0.4,0-0.6,0.3-0.8,0.8c-1.4,0.1-2.3-0.6-2.9-1.8v-0.8L130,169.5z M148.6,161.9l0.9,0.3c-0.2,1.8-0.3,2.8-0.3,3
	c-0.6-0.1-1.1-0.7-1.6-1.8c0.2-0.4,0.3-0.9,0.3-1.5H148.6z M177.7,160.2c-0.4,0.7-0.8,1.1-1.1,1.2l-0.1-1.2H177.7z M180.4,158.2
	l0.1,0.8h-0.8C179.6,158.5,179.8,158.3,180.4,158.2z M136.9,158.5l4.5-0.4v0.3c0.1,0.4-1.9,1.1-6,2.1c-0.6-0.3-1-0.4-1.3-0.3v-0.8
	L136.9,158.5z M132.6,160.6c-0.2,1-0.5,1.9-1,2.7l-1.3-0.7l-0.8,0.4l-0.3-0.8c-0.3,0-0.8,0.1-1.3,0.4h-0.3l-0.1-0.8
	c1.8-1.4,2.6-2.9,2.5-4.6C130.8,157.3,131.6,158.4,132.6,160.6z M148.4,155.8c0.8,0.8,1.3,1.8,1.3,3c0.1,0.6-0.8,1.1-2.7,1.6
	c-0.1-0.2-0.2-0.3-0.4-0.3l-1.2,0.1l-2.8,0.5c0-0.4-0.3-1.1-0.8-1.8c0.2-0.5,0.3-1,0.3-1.6l1.9,0.3
	C145.4,157.5,146.9,156.9,148.4,155.8z M212.1,151.1l0.3-0.1l0.2,1.5c-0.4,0.1-1,0.3-1.6,0.8h-0.3l-0.8-0.3
	C210.3,152.1,211,151.5,212.1,151.1z M136.2,152.1c0,0.2,0.3,0.3,0.8,0.3l0.1,1.5c-0.2,0-1.4,0.4-3.4,1.3l-0.4,0.1v-0.8
	C133.3,153.9,134.3,153.1,136.2,152.1z M152.1,151.1v0.4l-2.9-0.7l0.4-0.8C151,150,151.8,150.4,152.1,151.1z M185.4,148.5
	c-1.2,1.3-2.2,2.2-3,2.4h-0.3v-0.4l2.2-2.7L185.4,148.5z M139.1,149.3c0.1,0.6,1.9,1.3,5.4,2.1v0.4h-0.3c-0.7-0.5-2.5-0.6-5.4-0.3
	l-0.1-2.3H139.1z M209.1,144.7c0,0.5,0.3,0.8,0.8,0.8h0.4l1.9-0.5v0.4c-0.7,0-1.1,0.5-1.1,1.5l-2.8,0.2c-0.1-1-0.3-1.5-0.8-1.5v-0.3
	C208,145.2,208.6,145,209.1,144.7z M218,142.9c0.3,0,0.9,0.6,1.7,1.8v0.4c-1.2,1.6-1.8,2.6-1.8,3.1h-0.4c-0.4,0-1-0.9-1.7-2.6
	l-2,0.5h-0.3c-0.1-1.6,0.6-2.5,1.8-2.7v0.3L218,142.9z M146.7,145.3c0,0.4-2.1,1.2-6.4,2.4h-0.4c-0.6,0.1-1-0.7-1.3-2.2
	C140,145.7,142.7,145.6,146.7,145.3z M160.4,143.2v0.3c0.1,0.5-0.2,0.8-0.7,0.8l-0.1-1.2H160.4z M220.6,139.7h0.4v-0.8h-0.4V139.7z
	 M201.4,139.9c0.1,0.5,0.4,0.7,0.9,0.7l0.7-0.4c0-0.4-0.3-0.6-0.8-0.7L201.4,139.9z M139.6,140.2c0.1,0.5-0.2,0.8-0.8,0.8l-0.4,0.1
	v-0.8L139.6,140.2z M144.9,137.3l0.8-0.1c2.2,1.1,3.4,1.7,3.4,1.8l-0.4,0.1c-3.1-0.2-4.9-0.3-5.3-0.3
	C144,137.8,144.5,137.3,144.9,137.3z M164,135.8h0.4c0.5-0.1,0.8,0.2,0.8,0.7l-1.9,0.5v-0.4C163.2,136.2,163.4,135.9,164,135.8z
	 M158.8,134.9h0.4c0,0.4,0.4,1.1,1.3,1.8c0.3,0,0.7-0.1,1.3-0.4l0.3-0.1c-0.7,2-1.3,3.3-1.8,3.9c-0.6,0-1.4-0.2-2.4-0.7l0.3-0.8
	c0-0.4-0.3-0.7-0.8-0.8h-0.8l-0.8,0.4c0,0.4-1,1.3-3,2.9v1.1c2.2,0.6,3.3,1.2,3.3,1.8c-0.5,0.6-0.7,1.4-0.7,2.3v0.4
	c-1,0.1-2.2-1-3.7-3.3l0.1,0.8l0.4,0.8c-2.1,1.6-3.4,2.4-3.9,2.4l-0.1-1.5c0.8-0.1,1.2-0.3,1.2-0.8c-0.3,0.1-0.7,0.2-1.2,0.5
	c-0.3,0-0.6-0.4-0.8-1.1c0-0.8,0.3-1.2,0.8-1.2c0.5-0.1,0.8,0.2,0.8,0.7l2.8-0.5v-0.8c-0.3,0-0.8-0.1-1.3-0.3c1.8-1,2.7-2.3,2.6-3.9
	c-0.1-0.3,0.6-0.9,1.8-1.6l1.7,0.7C157.6,135.8,158.3,134.9,158.8,134.9z M139.6,131.1v0.8h-0.4l-0.1-0.8H139.6z M160.1,128.8h0.3
	c0.1,0.6,0.2,1.1,0.5,1.5c0.2,0,0.6-0.1,1.2-0.4l0.8-0.1l-3.4,2.4l-1.2,0.1C158.8,130,159.4,128.8,160.1,128.8z M206.6,125.9
	c0.5,0,0.8,0.3,0.8,0.8v0.3h-0.8c-0.8-0.3-1.3-0.7-1.3-1L206.6,125.9z M165.1,128.2l0.1,1.1l-0.3,0.8c-0.5-0.2-0.9-0.3-1.2-0.3
	C164.3,128.7,164.7,128.2,165.1,128.2z M186.4,127.6c0.1,0.5,0.3,0.8,0.8,0.8l0.8-0.1c0-0.6,0.3-1.3,0.8-1.9c0-0.4-0.3-0.6-0.8-0.7
	h-0.3C187.1,125.7,186.7,126.3,186.4,127.6z M149.5,126.9c1.2,2.8,3,4.4,5.5,4.8v0.4c-0.4,0-2.3-0.1-5.6-0.3c-0.1-0.2,0-0.4,0.3-0.4
	c0-0.4-0.3-0.6-0.9-0.7h-0.8c-0.1,1.5-0.8,2.3-2.2,2.3l-0.8-0.3c-0.3,0.1-0.7,0.2-1.2,0.4l-0.4-0.7v-0.4c3.5-2.3,5.3-4.1,5.2-5.1
	L149.5,126.9z M144.3,124.8v0.8c0.1,0.5-0.2,0.8-0.7,0.8c-0.5,0.1-0.8-0.2-0.9-0.7v-0.4C143.4,125.3,143.9,125.1,144.3,124.8z
	 M166.1,122.1l0.1,1.9h0.4l1.9-0.5l0.1,2.3c0.1,0.5-0.2,0.8-0.7,0.8l-0.5,0.1c-0.1-1.1-1.1-1.8-3.2-2.2l-0.1-1.8L166.1,122.1z
	 M154.1,122.2l1.1-0.1c0.8,0.3,1.3,0.7,1.3,1.1l0.1,0.3c-0.4,0.8-0.8,1.2-1.2,1.3c0,0.2,1.4,0.4,4.3,0.7c0,0.3-0.1,0.7-0.4,1.2
	l0.8,1.1c-0.8,0-1.2,0.4-1.2,1.2h-0.8l-3.9-2.6l-3.2,0.2V126L154.1,122.2z M143,122.2h0.8v0.8h-1.6
	C142.2,122.6,142.5,122.4,143,122.2z M210,116.7l2,0.3c0-0.2,0.1-0.3,0.3-0.3c0.6,0.8,0.9,1.5,0.9,2.2c-1.1,0.1-1.6,0.3-1.5,0.8
	c-1.8-0.3-2.8-0.6-2.8-1c0.4-0.7,0.7-1.3,0.7-1.9H210z M198.2,117.2h-0.8v-0.3h0.8V117.2z M198.6,115v1.1l-1.9,0.5h-0.4v-0.3
	C196.2,115.7,197,115.3,198.6,115z M204,113.9v0.8l0.8-0.1l1.2-0.8l0.8-0.1c0.1,1.3-0.8,2.2-2.7,2.8c-1.7-0.4-2.7-0.6-3.2-0.6v-0.3
	l0.3-0.1V114L204,113.9z M169.1,111.8l-0.7,2.3c0.5,0,0.8,0.3,0.8,0.8c-0.4,0-1.1,0.4-1.9,1.2l-0.1-1.5l-0.3,0.1
	c-2,0.1-3,0.5-3.1,1.3l0.1,1.8l-5.3,0.5l-0.5-1.8l0.8-1.2l-0.1-0.4l-0.4-0.7l1.9-1.3h0.4l6.1-0.2c1-0.4,1.5-0.8,1.5-1.2L169.1,111.8
	z M153.6,112.4l0.4-0.1c0.1,0.8,0.3,1.1,0.8,1.1c0,0.5-0.3,0.8-0.8,0.8c-0.8-0.4-1.3-0.8-1.3-1.1
	C152.8,112.7,153.1,112.4,153.6,112.4z M211.3,108.7c0.3,0.5,0.4,0.9,0.4,1.2l1.2-0.1l0.8-0.4c-0.4-1-0.8-1.5-1.3-1.4L211.3,108.7z
	 M173.4,110c0.4,0,0.7,0.9,0.9,2.7c-0.9,1.3-1.5,1.9-1.8,1.9H172c-0.1-0.9-0.4-1.6-0.9-2.2C171.8,111.1,172.5,110.3,173.4,110z
	 M147.9,109.9c0,0.5,0.3,0.8,0.8,0.8v-1.2h-0.8V109.9z M200,106.6l1.7,1h0.4l1.2-0.8h0.8c-1.2,1.8-2.9,2.8-4.9,2.9
	c-0.1-0.2-0.4-0.3-0.9-0.3c0.8-0.8,1.1-1.7,1.1-2.7H200z M159.8,109v1.2h-0.8v-0.3C158.9,109.4,159.2,109.1,159.8,109z M154.6,109.2
	h0.4l0.8,0.3c-0.6,0.6-0.8,1.3-0.8,1.9H154c-0.1-0.2,0-0.6,0.3-1.1l-0.4-0.8L154.6,109.2z M196.9,106.3l0.8,0.3
	c0.1,0.4-0.6,0.8-1.8,1.2l-0.4-0.7C195.8,107.1,196.3,106.8,196.9,106.3z M161.9,104.7l0.8,0.3l-0.4,0.8c-0.4,0-0.7-0.3-0.8-0.8
	v-0.3L161.9,104.7z M203,99.6l0.4,0.8c-1.7,2.6-2.7,3.9-2.9,3.9l-0.5,0.1l-0.8-0.4C199.1,102,200.3,100.6,203,99.6z M208,98.6
	l0.1,2.7h-0.8v-1.1h-0.8l-0.8,0.4l-0.4-0.8l-0.1-0.8c0.3,0,0.4,0.1,0.4,0.3C206.2,99.4,207,99.2,208,98.6z M190.5,98.7
	c0.1,1,0.5,1.5,1.3,1.4v0.4c-1.6,0.3-2.3,1.1-2.3,2.3l-1.9,0.1l0.2-3.8l1.9-0.1L190.5,98.7z M169.9,99.1v1.1c-1.1-0.3-1.6-0.7-1.6-1
	L169.9,99.1z M159.2,99.6c0.1,0.5,0.4,0.7,0.9,0.7c0,0.6-0.2,2.2-0.7,4.6c-2.2,0.1-4-1-5.2-3.2C156.1,101.1,157.7,100.4,159.2,99.6z
	 M152.6,99.9l0.5,2.3v0.3c-0.8-0.3-1.2-0.7-1.2-1.1l-0.1-0.8C151.8,100.2,152.1,100,152.6,99.9z M181.3,96.1
	c-0.9,1.5-1.6,2.3-2.3,2.3c-0.4,0-0.6-0.3-0.8-0.8c1.5-1.3,2.3-2.1,2.3-2.3C181.1,95.3,181.3,95.6,181.3,96.1z M168.8,93.5h0.3
	l1.2-0.8c0.8,0.3,1.2,0.7,1.2,1.1l0.1,1.1c-0.2,0-1.1,0.4-2.7,1.3c0-0.4-0.3-0.6-0.8-0.7c0-0.3,0.1-0.4,0.3-0.4
	c0-0.4-0.3-0.7-0.8-0.8l-3,2.1l1.7,1.8c-0.3,1.8-0.6,2.7-1.1,2.7c0,0.4,0.3,1.1,0.9,1.9h-0.4c-0.4,0-0.7-0.3-0.8-0.8l-2.7,0.9h-0.8
	v-0.3l0.4-0.1c1.2-2.3,2-3.5,2.6-3.5c0-0.1-0.6-0.7-1.7-1.8l-0.1-0.4l0.8,0.3h0.4c-0.1-1.1-0.8-1.8-2.1-2.2c-0.3,0.6-0.5,2-0.6,4.2
	l-1.5,0.1l-0.1-1.5l-0.6-1.9c0.8,0,1.2-0.6,1.2-1.9l1.2,0.8l0.8-0.1c0.7-1.1,1.7-1.7,3-2l0.8,0.3c0.5,0,0.7-0.3,0.7-0.8L168.8,93.5z
	 M196.6,87.8v0.3l-3.5,1.3h-0.8C192.3,88.7,193.7,88.2,196.6,87.8z M170.6,80.5v0.8l-0.8,0.1v-0.8L170.6,80.5z M169.3,79.8v0.8H169
	l-0.1-0.8H169.3z M159.9,80.2c0,0.3,0.1,0.6,0.4,1.1c0,0.6-0.4,1.3-1.1,2.3l0.5,0.8c-0.3,0-0.5,0.1-0.5,0.3c0.1,0.5,0.4,0.8,0.9,0.8
	c0.5,0,0.7-0.9,0.6-2.7l1.7,1.1l0.3-0.1v-0.3c-0.5-0.7-1.1-2.1-1.8-4.1L159.9,80.2z M192.8,75v0.8l-0.3,0.1l-0.1-0.8L192.8,75z
	 M190.8,74.8c0,0.3,0.1,0.6,0.4,1.1c-0.2,0-0.3,0.1-0.3,0.4c-1.3-0.1-2-0.5-2-1.1v-0.3L190.8,74.8z M169.3,72.6l0.2,2.3
	c0,0.5-0.3,0.8-0.8,0.8H168c0-0.3-0.2-0.6-0.5-1.1l-0.1-0.8l0.9,0.3h0.3l0.3-1.6H169.3z M163,72.1l0.1,1.2l0.4,1.8
	c-0.4,0.1-0.8,0.6-1.1,1.6c0.1,0.5,0.3,0.7,0.8,0.7l-0.3,0.8V79l0.9,1.1l-0.3,2.3l0.4,0.8c-0.3,0-0.4,0.1-0.4,0.4l1.7,1.4
	c-1,0.1-1.5,0.3-1.5,0.8l0.1,0.8l2,0.3v0.8c-0.6,1.1-1.1,1.6-1.5,1.6h-0.4l-1.3-0.7v-1.2c-0.1-0.4-0.3-0.6-0.8-0.7
	c-0.4,0-0.7,0.3-0.8,0.8c-1.8,1.1-2.7,1.9-2.6,2.4h-0.8c-1.4,0.1-2.6,0.5-3.5,1.3l1.2,1.5l0.1,1.1l-1.5,0.1l-0.1-0.8l-1.2,0.1
	c0,0.4-0.2,0.9-0.7,1.5c0.7,1.2,1.8,1.8,3.2,1.8c-0.1,0.5-0.8,1-1.9,1.6l-0.8-1.1c-1.1,1.1-1.9,1.6-2.3,1.6c0.3,1.3,0.5,2.1,0.5,2.3
	l-0.3,1.9H150v-0.3c0-0.3,0.1-0.7,0.3-1.2h-0.8l-0.4,1.9v0.3c0.1,0.5,0.4,0.8,0.9,0.8c0,0.5-0.3,0.8-0.8,0.8l0.6,1.8l0.2,3.8
	c0,0.7,0.3,1.4,0.8,2.2l-1.9,0.9c-0.8-1.2-1.4-2.6-1.8-4.1h-0.8c-1,3.1-1.7,4.6-2.2,4.7l0.1,1.8h0.4l1.2-0.8c0,0.6,0.1,1.1,0.4,1.5
	l2.3-0.5c0.4,0,1.1,0.2,2,0.7c0.8-0.7,1.9-1.3,3.1-1.6l-0.3,2.3l0.5,0.8c-0.3,0-0.8,0.1-1.3,0.4c-0.7,0-1.3-0.4-2-1.1
	c-1.7,0.1-2.9,0.6-3.4,1.3h-0.4c-0.1-0.8-0.3-1.1-0.8-1.1h-0.8c0.1,1.2-0.1,2.1-0.6,2.7l-0.8-0.3l-0.8,0.4c0-0.3-0.1-0.4-0.4-0.3
	c-0.8,0-1.4,1.3-1.8,3.9c0.2,3.4-0.9,5.7-3.2,7l0.1,0.8l1.1-0.1v0.4c-0.7,0-1.1,0.3-1.1,0.8c0.1,0.5,0.3,0.8,0.8,0.8h0.3v-0.8
	c0.8,0.3,1.2,0.7,1.3,1.1c-1.3,0.1-2,0.4-1.9,1.2h-0.4c-0.8-0.3-1.2-0.7-1.3-1.1c-0.4,0.1-0.9,1-1.4,2.8c0,0.3,0.2,0.6,0.5,1.1
	c0.1,1.5-0.8,2.7-2.7,3.5c0.1,0.3,1.2,1.4,3.4,3.3l0.1,0.8c-0.6,0-1.1,0.1-1.6,0.4c0,0.3,0.2,0.7,0.5,1.2c0.1,0.7-0.2,1.1-0.8,1.2
	c-0.1-0.3-0.2-0.7-0.5-1.2c0-0.2,0.1-0.6,0.3-1.1c-0.8-2.2-1.4-3.4-1.8-3.4c-0.3,0-0.8,1-1.3,3.1l0.5,1.8c-1.5,0.8-2.9,2.6-4.4,5.5
	l0.4,0.7c0.2,0,0.6-0.1,1.1-0.4c1.3,0.1,2,0.5,2,1.1c0.3,0,0.7-0.1,1.2-0.4l0.4-0.1l0.1,1.5l-2.8,0.9l-1.2,0.1
	c0-0.5,0.5-0.8,1.6-0.8L130,155l-1.6,0.1c-2.2,0.8-3.8,2.2-4.9,3.9v0.4l0.8,1.1l-0.3,0.8l-0.8-0.3l-1.2,0.8c0.7,1,1.3,1.4,1.7,1.4
	l0.8-0.1c0.6,0,0.8-0.5,0.8-1.5h0.8l0.1,1.8h-0.3c-4.4,1.2-6.8,2.3-7,3.4l0.1,0.8l0.6,2.3c-0.2,0.5-0.3,0.9-0.3,1.2
	c-2.6,0.1-3.9,2.3-3.7,6.5l-0.8-0.3l-1.1,0.1c-1,3.3-1.8,5-2.5,5c0,0.3,0.1,0.6,0.4,1.1l-5.7,14c1.4,1.7,3,2.5,4.8,2.4
	c2.8,2.7,4.7,4,5.8,3.9c4.3,2.3,6.9,3.6,7.9,3.9l1.9-0.1c0.5-0.1,0.8-0.3,0.8-0.8l3.9,0.3c5-6.9,7.4-11,7.4-12.2l-0.4-0.7
	c3.1-1.8,4.5-4.1,4.4-7l0.8,0.3c0-0.3,0.1-0.7,0.3-1.2c-0.5-0.2-0.9-0.3-1.1-0.3c-0.1-0.5,0.7-1.4,2.2-2.8l-0.1-2.3
	c1.1-0.1,1.6-0.5,1.5-1.3l0.8,0.3c0.8-0.4,1.2-0.8,1.2-1.2v-0.3h-0.8l-0.1-1.8c0.8-0.1,1.8-1.1,3-3.2c-0.4-0.7-0.9-1.1-1.3-1.1
	l-0.8,0.1l-1.2,0.8c0-0.3-0.1-0.6-0.4-1.1v-0.4c0.6,0,1.1,0.1,1.6,0.3c5.1-2.9,7.5-5.9,7.4-9.1l-0.8-1.1l-0.1-0.3
	c1.1-0.1,1.8-0.6,2.3-1.7c0.4,0,0.7,0.3,0.8,0.8c0.3,0,0.4-0.1,0.4-0.4l2.3,0.3c0.2,0,0.7-0.1,1.5-0.4c0,0.4,0.6,0.8,1.7,1.1
	c0.8-1.3,1.5-2,1.8-2l2.4,1.1c0,0.6-0.3,1.5-1,2.7v1.1c1.1-0.1,1.6,0.4,1.7,1.4h0.4c0.6,0,1.1-1.3,1.4-3.9c-0.6-1.1-1-1.8-1-2.2
	v-0.4h0.8c0.8,0.1,1.2,1,1.3,2.6c0.1,1.8,1.3,2.9,3.7,3.2c0.8-0.4,1.2-0.8,1.2-1.2c0.5,0,0.8,0.3,0.8,0.8l-0.8,1.2l0.1,0.3l2.8,1.4
	c0.8-0.2,1.4-1.1,1.8-2.8l-1.7-0.7c0-1.1,0.5-2.7,1.4-4.6l0.8,0.3c0,0.3-0.1,0.4-0.3,0.4c0.1,1.4,1.1,2.2,3.3,2.5l1.5-0.8
	c0,0.2,0.2,0.3,0.5,0.3h0.3c1.1-1.3,1.9-2,2.3-2v0.4c0.6-0.1,1.6-0.2,3.1-0.5c0.7-0.1,1.6,0.4,2.9,1.3h0.8l0.8-0.4
	c0-0.3-0.2-0.4-0.5-0.3l1.2-1.6c0.5-0.1,0.8,0.2,0.8,0.7l0.1,0.4l-0.3,2.7c0.2,0,0.3,0.1,0.3,0.3c-0.2,0-0.3,0.1-0.3,0.4l0.4,0.8
	c-1,0-1.5,0.3-1.5,0.8l0.1,1.2c0.6-0.1,2,0,4.4,0.2v0.4l-2,0.1l0.1,0.8l0.8-0.1l-0.3,0.8v0.4l1.2-0.1l-0.4,0.8c-0.8,0-1.8-0.3-2.8-1
	h-0.3c-0.4,0-0.7,0.3-0.8,0.8l0.1,0.8c0.6,0,1.1,0.1,1.5,0.3v-0.4h0.8v0.3c-0.8,0.1-1.2,0.5-1.2,1.3c0,0.2,0.1,0.6,0.4,1.1
	c0.3,0,0.4-0.1,0.4-0.4l0.8,0.3c0.1,0.5-0.4,1.5-1.4,3.1c0.7,2.5,1.3,3.7,1.8,3.7h0.4c0.6-0.7,4.4-1.5,11.4-2.4
	c0.1,1.2,0.6,1.8,1.7,1.8c1.3-0.6,1.9-1.1,1.9-1.6l0.3-0.1l0.1,0.4c0.1,1.2-3.6,2.6-10.9,4.3l-1.3,0.1V181h-0.4
	c-2.1,0.4-3.1,1-3.1,1.7l0.9,1.1l0.2,3.4l0.3,0.7l2.3-3.4c0,0.2-0.1,0.6-0.3,1.1l0.4,0.8l1.2-0.8v0.8c0.1,0.6-0.1,1.1-0.4,1.6
	l0.5,0.7l0.1,0.4c0,0.3-0.9,1-2.8,2l0.1,0.8l1.6-0.1l0.8-0.4c0.1,0.4,0.3,0.9,0.8,1.5c0.5-0.1,0.8-0.3,0.8-0.8
	c0.4,0,0.8,0.5,1.3,1.5v0.3c-1.7,1.4-2.6,2.3-2.6,2.8l0.4,0.8c0.3,0,0.6-0.1,1.1-0.4c0.3,0,0.6,0.4,0.9,1.1c-2.6,1-3.8,2-3.8,2.9
	c0,0.2,0.1,0.6,0.4,1.1c0.2,0,0.3-0.1,0.3-0.4c0.7,0.1,1.5,0.7,2.5,1.8l2.8,8.9l-0.3,0.8v0.3c2.7,2.6,4.1,4.3,4.2,5.1l2.7-0.1
	c0.1,0.9,0.4,1.6,1,2.2c1.1-0.6,1.7-1.3,1.8-1.9l0.8,0.3c1.3-1.6,2.1-2.3,2.3-2.3c0.5-0.1,1.1,0.7,1.7,2.2c0,0.3-1.1,0.8-3.4,1.7
	c0.6,1.1,1.1,1.7,1.7,1.8h0.3c0.6,0,0.8-0.6,0.8-1.9h0.8l0.1,1.1l-0.3,0.8c1.6-0.1,2.9-1,3.8-2.8c0-0.2-0.7-0.8-2-1.8L225,216
	c4.1-1.2,6.3-1.8,6.7-1.8h1.2c0.7,0.4,1.2,0.7,1.6,0.7l-0.3,1.8c1.1,1.2,1.8,1.8,2.1,1.8h0.3c1.8-0.6,2.9-0.9,3.2-0.9
	c-1-1.2-1.9-2.7-2.6-4.4c0.3-1.3,1.2-2,2.7-2l0.4,1.9l0.8-0.1v-0.8h0.3c0.1,0.7,0.3,1.1,0.8,1.1h0.3v-0.8l-0.8-1.1
	c-0.1-2.8-1.8-4.9-5-6.2l-0.1-1.2c0.8,0,1.2-0.3,1.2-0.8v-0.4c-0.4-0.7-0.9-1.1-1.3-1.1c-1.9,0.1-2.9,0.5-3,1.3
	c-1.1,0.1-2.3-0.5-3.7-1.7c-0.1-1.2,0.6-2.2,1.8-3.1c0.2-0.1,0.4,0.1,0.4,0.3c0.2,0,0.6-0.1,1.2-0.4c0.4-0.1,0.9,0.2,1.5,0.7
	l1.3-0.1c0.3,0,0.7-0.5,1.1-1.5l-0.5-0.8c-0.9,0.1-1.5,0.2-1.9,0.4c0-0.2,0.1-0.6,0.4-1.1c0-0.5-0.4-0.8-1.3-0.8v-0.8l0.3-0.8
	c-0.3,0-0.4-0.1-0.4-0.3c-0.5,0-1.3,0.4-2.3,1.3c-0.4,0-0.8-0.3-0.9-0.8V193c1.9-0.8,3.2-1.5,3.9-2.1c-0.1-1.2-0.5-2-1.3-2.2h-0.8
	c-1.1,0.1-2.1,0.4-3,0.9c0,0.4-0.9,1.2-2.8,2.3l0.5,0.8l-0.8,0.1c-0.1-1.3-0.4-1.9-1.2-1.8l-0.1-0.8l1.5-1.6
	c-0.4-0.7-0.9-1.1-1.3-1.1l0.3-0.8l2.4,1h0.8c0.3-0.1,0.4-0.2,0.3-0.4l3.4-2c-0.1-0.5-0.4-0.8-1.2-0.8c0-0.4,0.2-0.6,0.7-0.8
	l-1.6-1.4l-0.1-0.4h0.8v-0.8H231l-1.3,0.8l-1.6,0.1v-0.8c0.3,0,1.5-0.8,3.4-2.4v-0.3c-0.6-0.6-2.5-1.9-5.7-3.9v-0.3
	c-0.1-0.4,0.2-0.7,0.7-0.8c0.6,0,0.9,0.3,0.9,0.8c1.2-0.6,1.8-1.1,1.8-1.6v-0.4c-0.7-1-1.3-1.4-1.7-1.4c0-0.3,0.1-0.7,0.3-1.2
	c0-0.6-1-1.4-2.9-2.5v-0.8h0.3l1.7,1.1l0.8-0.1c0.5,0,0.7-0.3,0.7-0.8v-0.8c-0.6,0-1.4-0.5-2.4-1.4h-0.3c-0.5,0.1-0.7,0.6-0.7,1.6
	h-0.8c-0.1-0.6,0-1.1,0.3-1.5l-1.2-1.4c0-0.2,0.5-0.8,1.5-2l-0.1-1.5c-0.1-0.7-0.8-1-2-1l1-1.9c-0.1-0.6-0.8-1-2-1.4H221
	c-2.6,2.4-4.2,3.6-4.6,3.6l-2-0.3l-0.1-1.9c0.3,0,0.8,0.1,1.3,0.3c0.2,0,2.3-1,6.1-2.9c0-0.3-0.1-0.6-0.4-1.1
	c0.2-0.4,0.3-0.9,0.3-1.5v-0.8l-0.4-0.8h0.3l-0.5-2.3c0.7-1.6,1.1-2.8,1-3.4c0-0.5-0.3-1.5-0.9-3h0.4l-3.7-1.8l0.3-1.9l-0.1-1.8
	c0.9-0.1,1.5-0.2,1.9-0.5c-0.6-1.1-0.8-1.8-0.8-2.2l0.3-0.8l-0.8-0.3c-1.6,0.1-3.3,1.7-4.9,4.8l0.4,0.8c-0.8,0.1-1.4,0.6-1.9,1.6
	v0.3l0.5,0.8c-1,1-1.5,1.8-1.5,2.3l-0.8,0.1l0.3-0.8l-0.3-0.7c-0.7,0.6-3.2,1.2-7.3,1.8h-0.4l-1.7-1.8c-0.5,0.1-0.7,0.4-0.7,1.2
	c-0.3,0.1-1.6,0.1-3.9,0.2l-1.9,0.5l-2-1.1l-0.4,0.1c0.1,0.2,0.2,0.3,0.4,0.3c0.1,0.8-0.7,1.8-2.2,3.1l-0.5,0.1v-1.6l-0.8,0.1
	l-2.3,1.6l-1.6-1.4c-0.6,0-1.8,0.4-3.5,1.3c0-0.2-0.1-0.3-0.4-0.3c-0.4,0-0.7,0.3-0.8,0.8c-0.4,0-1-0.2-1.9-0.7
	c-2.2,1.6-4.8,2.4-7.8,2.6h-0.4l-1.3-0.7h-0.3c-1.9,1.8-3,2.8-3.4,2.8c-0.6-2.9-1.2-4.6-1.8-5.2l-0.1-1.5c1.1-0.1,1.6-0.3,1.6-0.8
	c-0.1-0.5-0.4-0.7-1.2-0.7v-0.4c0-0.3,1.4-1.1,4.2-2.4l2.1-5.8c-2.2-1.7-3.4-2.5-3.7-2.5l2.2-3.1l1.6,0.3l0.1,1.8
	c0.1,0.5,0.3,0.8,0.8,0.8l1.5-1.2c0-0.3-0.1-0.7-0.4-1.2c0.2-0.9,0.6-2.1,1.3-3.4l-0.4-0.8c0.8-0.4,1.2-0.8,1.2-1.2v-0.8
	c-0.8,0-1.6-0.2-2.4-0.7l-1.5,0.8c-0.1-0.5-0.5-0.7-1.3-0.7l-0.1-0.8c2-0.1,3.7-0.9,5.1-2.5l-0.3,1.9c0.1,0.5,0.3,0.7,0.8,0.7h0.8
	l-0.1-0.4l-0.4-1.8l0.8-0.1c0.9,0,1.6-1,2.3-3.1l-0.5-0.8c0.6,0,0.8-0.6,0.8-1.9h0.4c0.2,1.3,0.6,1.9,1.2,1.8h0.5l0.7-0.4
	c0.7-1.8,1.4-2.7,2.3-2.8c-0.1-1.1-0.7-2.2-1.8-3.3l-1.1,0.8l-3.9,0.2l-1.9,0.5l-0.9-1.1v-0.4c0-0.4,0.6-0.8,1.9-1.2
	c2.2,0.1,4.1,0.1,5.5,0.1h0.3c1.3-0.8,1.9-1.6,1.9-2.3h0.3v0.3c0.1,0.3,0,0.7-0.3,1.2c0.2,0.4,0.4,1,0.4,1.5l2.9,2.9
	c-0.8,0.1-1.4,0.6-1.9,1.6l0.2,2.3c0,0.5,0.3,0.8,0.8,0.8h0.8c0.5-0.1,0.8-0.3,0.8-0.8c0.5,0.2,1,0.3,1.6,0.3
	c-0.5,0.7-0.7,1.3-0.7,1.9c-0.3,0-0.5-0.1-0.5-0.4c-1.6,1.5-2.4,2.7-2.5,3.6l0.4,2.2c0.6,0,1.6-0.3,3.2-0.8l0.4,0.7l1.9-0.4v0.8
	l-0.3,0.8l0.8,0.3v0.4c-1.8,0.1-2.7,1-2.6,2.8v0.8l0.4,0.8l-0.8,0.3c0,0.3,0.1,0.4,0.4,0.4l-0.3,1.8v0.8l0.4,0.7l-0.8,0.4
	c0,0.3,0.1,0.4,0.4,0.4c0,0.5-0.3,0.8-0.8,0.8c0.1,0.5,0.3,0.8,0.8,0.8l0.3-0.1l1.2-0.8l0.8-0.1l0.8,0.3c0.1,0.4-1.2,1.7-3.8,4
	c0.1,0.2,0.2,0.3,0.4,0.3l-0.3,0.8v0.4c0.6,1.7,0.9,2.7,0.9,2.9h0.8c0.7-0.4,1.1-0.8,1.1-1.2l2.3,0.3l0.8-0.4c0,0.2,0.1,0.3,0.3,0.3
	h0.4c0.7-0.7,3.2-1.3,7.3-1.8l1.2,0.7l4.9-1.8l-0.1-0.8c-1.9-1.1-2.9-2.5-2.9-4c0.3,0,0.8-0.6,1.5-1.9l-0.9-1.1v-0.8
	c0.8-0.1,1.1-0.4,1.1-1.2c1.2-0.3,2.6-1.3,4.2-2.9c0.6,0.7,1.1,1.1,1.7,1v0.4c-0.7,1-2.1,2-4.2,2.9c-0.1,1.1-0.8,2.2-2.2,3.5
	l0.1,1.5c1.6-0.1,2.3,0.1,2.3,0.6c0.1,0.5-0.2,0.8-0.7,0.8c0.4,0.7,0.8,1.1,1.2,1.1c0,0.2-0.1,0.6-0.3,1.1c0,0.4,0.4,1.1,1.3,1.8
	c0.3,0,0.7-0.5,1-1.5c0-0.3-0.1-0.7-0.4-1.2c0.3,0,0.6-0.5,0.7-1.5l-0.4-0.8c0-0.4,0.6-1.6,1.8-3.4c3.3-1.3,4.9-2.2,4.9-2.5
	c-1.6-1.3-2.4-2.2-2.4-2.6c-0.1-0.7,0.3-1.1,1.2-1.2l-0.1-1.1h-0.8l-0.8,0.4l-0.9-4.1l0.3-0.8l-0.9-2.6c0.6-0.1,0.8-0.3,0.8-0.8
	v-0.8l-0.5-0.8c0.4,0,0.8-0.9,1.1-2.7c-0.1-0.7-0.4-1.1-0.9-1.1h-0.3l-1.4,1.6l-0.8,0.1c-0.1-1-0.6-1.5-1.7-1.5
	c0.5-0.8,0.7-1.6,0.7-2.3v-0.3l-0.5-0.8c0.6-0.1,0.8-0.3,0.8-0.8v-0.8l-0.5-2.6c1-0.1,1.5-0.3,1.4-0.8v-0.3c-0.4,0-1.6-0.5-3.5-1.4
	c0.1-0.8,0.8-1.6,2.2-2.3c0-0.9-0.7-2-2.1-3.3c-3.1,0.1-4.8-0.8-5.3-2.9c-0.1-1.8,0.3-2.9,1.1-3c-0.1-0.6-0.3-1.1-0.6-1.5l1.6-1.6
	l-0.1-0.8l-0.4-0.8l-1.5,1.3H203v-0.4l1.4-3.1l-1.7-1.8c0-0.4,0.3-0.7,0.8-0.8c0-0.2-0.2-0.9-0.5-2.3l-2.4-1.3l-1.9,0.4l-0.5-1.8
	l-0.1-0.4c0.7-1,1.2-1.5,1.6-1.5c-0.1-0.5-1.4-1.2-4.1-2.1h-1.1l-5.4,1c-0.8-0.6-1.6-1.1-2.4-1.4c-0.4,0.8-0.8,1.2-1.2,1.3l-4.9,0.3
	c-2.6-1-4.5-1.5-5.9-1.4v-0.3c0-0.5,0.5-0.8,1.6-0.8l-0.1-1.2c-1.2,0.1-2.3,0.5-3.5,1.3h-0.3l0.3-0.8c-0.3,0-0.7-0.1-1.3-0.3
	c-0.7,0-1.1,0.4-1.1,1.2l-3.2,0.2c-0.5,0-0.8-0.5-0.8-1.5h-0.4L163,72.1z M168.1,68.5h0.7v-0.8H168L168.1,68.5z M170.3,68h0.4
	c0.5,0,0.7-0.3,0.7-0.8h-1.1V68z"/>
<rect x="91" y="45" class="st2" width="172.9" height="189"/>
</svg>
