<?xml version="1.0" encoding="utf-8"?>
<!-- Generator: Adobe Illustrator 22.1.0, SVG Export Plug-In . SVG Version: 6.00 Build 0)  -->
<svg version="1.1" id="Layer_1" xmlns="http://www.w3.org/2000/svg" xmlns:xlink="http://www.w3.org/1999/xlink" x="0px" y="0px"
	 viewBox="0 0 300 250" style="enable-background:new 0 0 300 250;" xml:space="preserve">
<style type="text/css">
	.st0{fill:#231F20;}
</style>
<g>
	<path class="st0" d="M269.9,239.7l-0.1,0.6h-2.6l-0.1,1.7c0.4-0.4,0.8-0.6,1.3-0.6c0.5,0,0.9,0.2,1.3,0.5s0.5,0.8,0.5,1.3
		c0,0.5-0.2,1-0.6,1.3c-0.4,0.3-0.9,0.5-1.4,0.5c-0.4,0-0.8-0.1-1.2-0.4s-0.6-0.5-0.7-0.9l0.6-0.2c0.2,0.6,0.7,0.9,1.3,0.9
		c0.4,0,0.8-0.1,1-0.4c0.3-0.3,0.4-0.6,0.4-1c0-0.4-0.1-0.7-0.4-1s-0.5-0.3-0.9-0.3c-0.5,0-0.9,0.2-1.3,0.7l-0.5-0.1l0.2-2.9H269.9z
		"/>
	<path class="st0" d="M272.2,242.2c-0.7-0.3-1-0.7-1-1.3c0-0.4,0.2-0.7,0.5-1s0.8-0.4,1.3-0.4c0.5,0,1,0.1,1.3,0.4s0.5,0.6,0.5,1
		c0,0.6-0.3,1-1,1.2c0.6,0.3,0.9,0.5,1,0.7c0.1,0.2,0.2,0.5,0.2,0.7c0,0.4-0.2,0.8-0.5,1.1s-0.9,0.4-1.5,0.4c-0.7,0-1.2-0.1-1.5-0.4
		s-0.5-0.6-0.5-1C271,243,271.4,242.6,272.2,242.2z M273,242.5c-0.9,0.2-1.4,0.6-1.4,1.1c0,0.3,0.1,0.5,0.4,0.7
		c0.2,0.2,0.6,0.3,1.1,0.3c0.4,0,0.7-0.1,1-0.3c0.2-0.2,0.4-0.4,0.4-0.7C274.4,243.2,274,242.8,273,242.5z M273.1,241.9
		c0.4-0.1,0.8-0.3,0.9-0.4s0.3-0.4,0.3-0.6c0-0.3-0.1-0.5-0.3-0.6s-0.5-0.2-0.9-0.2c-0.3,0-0.6,0.1-0.8,0.2s-0.3,0.4-0.3,0.6
		c0,0.2,0.1,0.5,0.4,0.6S272.8,241.8,273.1,241.9z"/>
	<path class="st0" d="M279.7,240.8l-0.6,0.2c-0.2-0.5-0.6-0.8-1.1-0.8c-1,0-1.5,0.8-1.5,2.5c0.2-0.4,0.4-0.6,0.7-0.8
		s0.6-0.3,0.9-0.3c0.5,0,0.9,0.2,1.2,0.5c0.3,0.3,0.5,0.8,0.5,1.2c0,0.5-0.2,0.9-0.5,1.3c-0.4,0.4-0.8,0.5-1.4,0.5
		c-0.6,0-1.1-0.2-1.5-0.7c-0.4-0.5-0.6-1.1-0.6-1.9c0-0.8,0.2-1.5,0.5-2s0.9-0.8,1.6-0.8C278.8,239.6,279.4,240,279.7,240.8z
		 M277.8,244.6c0.4,0,0.7-0.1,0.9-0.4s0.4-0.5,0.4-0.9c0-0.3-0.1-0.6-0.4-0.9c-0.2-0.2-0.5-0.4-0.9-0.4c-0.4,0-0.7,0.1-0.9,0.4
		c-0.3,0.3-0.4,0.6-0.4,0.9c0,0.3,0.1,0.6,0.4,0.9C277.2,244.4,277.5,244.6,277.8,244.6z"/>
	<path class="st0" d="M281.6,242.5V242h0.6c0.4,0,0.8-0.1,1-0.3c0.2-0.2,0.3-0.4,0.3-0.7c0-0.3-0.1-0.5-0.3-0.7s-0.5-0.3-0.8-0.3
		c-0.6,0-1,0.3-1.2,0.9l-0.6-0.2c0.3-0.8,1-1.2,1.9-1.2c0.5,0,0.9,0.1,1.3,0.4c0.3,0.3,0.5,0.6,0.5,1c0,0.3-0.1,0.6-0.3,0.8
		s-0.4,0.4-0.7,0.4c0.3,0,0.6,0.2,0.9,0.4s0.4,0.5,0.4,0.9c0,0.4-0.2,0.8-0.5,1.1s-0.9,0.5-1.5,0.5c-0.5,0-0.9-0.1-1.3-0.4
		s-0.6-0.6-0.7-0.9l0.6-0.2c0.2,0.6,0.6,1,1.4,1c0.5,0,0.8-0.1,1-0.3c0.2-0.2,0.3-0.4,0.3-0.7c0-0.3-0.1-0.6-0.4-0.7
		s-0.6-0.3-1.1-0.3H281.6z"/>
	<path class="st0" d="M289.2,244.5v0.5h-3.7v-0.5h1.6v-4.1c-0.5,0.5-1,0.9-1.5,1.2v-0.7c0.7-0.4,1.2-0.8,1.6-1.3h0.5v4.9H289.2z"/>
	<path class="st0" d="M291,242.2c-0.7-0.3-1-0.7-1-1.3c0-0.4,0.2-0.7,0.5-1s0.8-0.4,1.3-0.4c0.5,0,1,0.1,1.3,0.4s0.5,0.6,0.5,1
		c0,0.6-0.3,1-1,1.2c0.6,0.3,0.9,0.5,1,0.7c0.1,0.2,0.2,0.5,0.2,0.7c0,0.4-0.2,0.8-0.5,1.1s-0.9,0.4-1.5,0.4c-0.7,0-1.2-0.1-1.5-0.4
		s-0.5-0.6-0.5-1C289.7,243,290.2,242.6,291,242.2z M291.8,242.5c-0.9,0.2-1.4,0.6-1.4,1.1c0,0.3,0.1,0.5,0.4,0.7
		c0.2,0.2,0.6,0.3,1.1,0.3c0.4,0,0.7-0.1,1-0.3c0.2-0.2,0.4-0.4,0.4-0.7C293.2,243.2,292.7,242.8,291.8,242.5z M291.8,241.9
		c0.4-0.1,0.8-0.3,0.9-0.4s0.3-0.4,0.3-0.6c0-0.3-0.1-0.5-0.3-0.6s-0.5-0.2-0.9-0.2c-0.3,0-0.6,0.1-0.8,0.2s-0.3,0.4-0.3,0.6
		c0,0.2,0.1,0.5,0.4,0.6S291.5,241.8,291.8,241.9z"/>
</g>
</svg>
