<?xml version="1.0" encoding="utf-8"?>
<!-- Generator: Adobe Illustrator 22.1.0, SVG Export Plug-In . SVG Version: 6.00 Build 0)  -->
<svg version="1.1" id="Layer_1" xmlns="http://www.w3.org/2000/svg" xmlns:xlink="http://www.w3.org/1999/xlink" x="0px" y="0px"
	 viewBox="0 0 300 250" style="enable-background:new 0 0 300 250;" xml:space="preserve">
<style type="text/css">
	.st0{fill:#F9E038;}
</style>
<g>
	<path class="st0" d="M34.8,36.4h-2L31,30.7c-0.3-0.8-0.5-1.7-0.8-2.8h0c-0.3,1.1-0.6,2-0.8,2.8l-1.9,5.6h-1.9l-4.3-12.8h3l1.7,5.2
		c0.2,0.8,0.5,1.6,0.7,2.6h0c0.2-1,0.4-1.8,0.7-2.6l1.7-5.2h2.7l1.7,5.1c0.2,0.7,0.5,1.6,0.7,2.6h0c0.2-0.9,0.4-1.8,0.7-2.6l1.7-5.2
		h2.7L34.8,36.4z"/>
	<path class="st0" d="M46,36.3v-5.6c0-0.7-0.5-1.2-1.4-1.2c-0.9,0-1.4,0.6-1.4,1.3v5.5h-2.9V22.1h2.9v6h0c0.5-0.7,1.3-1.1,2.6-1.1
		c2,0,3.2,1.1,3.2,3v6.3H46z"/>
	<path class="st0" d="M55.9,35.4c-1.4,3.6-2.8,5-4.5,5.6l-1.8-1.8c1.5-0.6,2.6-1.6,3.3-3.5l-3.3-8.4h2.8l1.3,3.5
		c0.2,0.5,0.4,1.1,0.5,1.8h0c0.2-0.6,0.4-1.3,0.6-1.8l1.3-3.5H59L55.9,35.4z"/>
	<path class="st0" d="M71.4,36.3v-1.1h0c-0.5,0.9-1.5,1.4-2.8,1.4c-2.2,0-4.4-1.7-4.4-4.8c0-2.9,2.1-4.8,4.6-4.8
		c1,0,1.9,0.3,2.3,0.6v-5.5H74v14.2H71.4z M71.2,30.4c-0.3-0.4-0.9-0.8-1.8-0.8c-1.3,0-2.2,1-2.2,2.3s0.9,2.3,2.2,2.3
		c0.9,0,1.5-0.5,1.8-0.9V30.4z"/>
	<path class="st0" d="M80.5,36.6c-2.7,0-4.9-1.9-4.9-4.8c0-2.9,2.2-4.8,4.9-4.8c2.7,0,4.9,1.9,4.9,4.8
		C85.4,34.6,83.2,36.6,80.5,36.6z M80.5,29.5c-1.1,0-2,1-2,2.3s0.9,2.3,2,2.3c1.1,0,2-1,2-2.3S81.5,29.5,80.5,29.5z"/>
	<path class="st0" d="M95.2,31.3l-1.3,1.3h-4.4c0.1,0.7,1.1,1.6,2.7,1.6c0.9,0,1.9-0.3,2.5-0.7L94.3,36c-0.7,0.4-1.7,0.6-2.9,0.6
		c-2.8,0-5-1.9-5-4.9c0-2.9,2.1-4.8,4.7-4.8c2.5,0,4.1,1.7,4.1,3.6C95.2,30.8,95.2,31.1,95.2,31.3z M91.2,29.1
		c-0.9,0-1.6,0.7-1.8,1.5h3.1c0-0.1,0-0.1,0-0.2C92.5,29.8,92,29.1,91.2,29.1z"/>
	<path class="st0" d="M99.6,36.5c-1.2,0-2.1-0.3-2.9-0.6l-0.3-2.6c0.8,0.6,1.8,1,2.8,1c0.5,0,0.9-0.3,0.9-0.6c0-0.4-0.3-0.5-0.8-0.7
		c-1.7-0.5-2.8-1.4-2.8-3c0-1.8,1.4-2.9,3.4-2.9c1.1,0,2.2,0.3,2.7,0.5l-0.5,2.2c-0.4-0.2-1.2-0.5-1.9-0.5c-0.5,0-0.8,0.2-0.8,0.6
		c0,0.3,0.2,0.5,0.8,0.7c2,0.5,2.9,1.6,2.9,3.1C103.1,35.1,102,36.5,99.6,36.5z"/>
	<path class="st0" d="M115.1,26.1v10.2H112V26.1h-3.7v-2.5h10.4v2.5H115.1z"/>
	<path class="st0" d="M120,36.3V23.5h3.1v12.8H120z"/>
	<path class="st0" d="M133.5,36.3l-1.1-2.9h-4.1l-1.1,2.9h-2.9l5-12.9h2.1l5,12.9H133.5z M130.8,28.6c-0.1-0.3-0.3-0.8-0.4-1.2h0
		c-0.1,0.4-0.2,0.9-0.4,1.2l-0.9,2.4h2.5L130.8,28.6z"/>
	<path class="st0" d="M146.5,36.3l-1.1-2.9h-4.1l-1.1,2.9h-2.9l5-12.9h2.1l5,12.9H146.5z M143.8,28.6c-0.1-0.3-0.3-0.8-0.4-1.2h0
		c-0.1,0.4-0.2,0.9-0.4,1.2l-0.9,2.4h2.5L143.8,28.6z"/>
	<path class="st0" d="M155.3,36.3V23.5h3.1v10.2h4.8v2.5H155.3z"/>
	<path class="st0" d="M165.8,26c-0.5,0-1.6-1.1-1.6-1.6c0-0.5,1.1-1.6,1.6-1.6c0.5,0,1.6,1,1.6,1.6C167.4,24.9,166.3,26,165.8,26z
		 M164.3,36.3v-9.1h3v9.1H164.3z"/>
	<path class="st0" d="M175.5,24.7c-0.3-0.1-0.8-0.2-1.2-0.2c-1.1,0-1.6,0.6-1.6,1.9v0.9h2.6l-0.6,2.4h-2v6.7h-2.8v-6.7h-1.4v-2.4
		h1.4v-1.1c0-2.8,1.8-4.1,4.1-4.1c0.8,0,1.7,0.1,2.1,0.3L175.5,24.7z"/>
	<path class="st0" d="M184.4,31.3l-1.3,1.3h-4.4c0.1,0.7,1.1,1.6,2.7,1.6c0.9,0,1.9-0.3,2.5-0.7l-0.3,2.5c-0.7,0.4-1.7,0.6-2.9,0.6
		c-2.8,0-5-1.9-5-4.9c0-2.9,2.1-4.8,4.7-4.8c2.5,0,4.1,1.7,4.1,3.6C184.5,30.8,184.5,31.1,184.4,31.3z M180.4,29.1
		c-0.9,0-1.6,0.7-1.8,1.5h3.1c0-0.1,0-0.1,0-0.2C181.8,29.8,181.2,29.1,180.4,29.1z"/>
	<path class="st0" d="M194.4,40.9c-2.6,0-4.4-1.5-4.4-3.4c0-1.4,0.9-2.2,1.9-2.4l-1.2-1.2c0.1-0.6,0.6-1.1,1.1-1.3
		c-0.7-0.4-1.3-1.3-1.3-2.4c0-1.9,1.4-3.3,3.7-3.3c0.5,0,1,0.1,1.3,0.2c0.4,0.1,0.8,0.2,1.3,0.2c0.5,0,1-0.1,1.4-0.3l0.5,2.2
		c-0.3,0.2-0.7,0.3-1.1,0.3c0.1,0.2,0.2,0.6,0.2,0.9c0,1.5-1.2,2.8-3,2.9c-0.4,0-0.6,0.1-0.6,0.3c0,0.1,0.1,0.2,0.2,0.3l1.4,0.5
		c1.8,0.6,2.7,1.5,2.7,3.2C198.8,39.5,197.1,40.9,194.4,40.9z M195.1,36.7l-1.1-0.3c-0.7,0-1.2,0.5-1.2,1.2c0,0.6,0.5,1.1,1.6,1.1
		c1,0,1.6-0.5,1.6-1C196,37.3,195.6,36.8,195.1,36.7z M194.3,29.1c-0.7,0-1.2,0.5-1.2,1.1c0,0.6,0.5,1.1,1.2,1.1
		c0.6,0,1.2-0.5,1.2-1.1C195.4,29.6,194.9,29.1,194.3,29.1z"/>
	<path class="st0" d="M208.2,31.3l-1.3,1.3h-4.4c0.1,0.7,1.1,1.6,2.7,1.6c0.9,0,1.9-0.3,2.5-0.7l-0.3,2.5c-0.7,0.4-1.7,0.6-2.9,0.6
		c-2.8,0-5-1.9-5-4.9c0-2.9,2.1-4.8,4.7-4.8c2.5,0,4.1,1.7,4.1,3.6C208.3,30.8,208.3,31.1,208.2,31.3z M204.3,29.1
		c-0.9,0-1.6,0.7-1.8,1.5h3.1c0-0.1,0-0.1,0-0.2C205.6,29.8,205,29.1,204.3,29.1z"/>
	<path class="st0" d="M215.9,29.6h-2.4V33c0,0.8,0.4,1.1,1.2,1.1c0.3,0,0.5,0,0.8-0.1l-0.3,2.2c-0.3,0.1-0.8,0.2-1.4,0.2
		c-2,0-3.3-1.1-3.3-2.9v-3.9h-1.5v-2.4h1.5v-1.9l2.9-1.1v3h2.9L215.9,29.6z"/>
</g>
<g>
	<path class="st0" d="M23.2,51.3c-0.5,0-1.7-1-1.7-1.6c0-1.3,1.2-3.3,2.4-4.4l0.9,0.2c-0.7,0.8-1.2,1.9-1.3,2.8
		c0.5,0.1,1.3,1,1.3,1.4C24.9,50.2,23.7,51.3,23.2,51.3z M27.3,51.3c-0.5,0-1.7-1-1.7-1.6c0-1.3,1.2-3.3,2.4-4.4l0.9,0.2
		c-0.7,0.8-1.2,1.9-1.3,2.8c0.5,0.1,1.3,1,1.3,1.4C29,50.2,27.8,51.3,27.3,51.3z"/>
	<path class="st0" d="M37,51.6h-2.4V55c0,0.8,0.4,1.1,1.2,1.1c0.3,0,0.5,0,0.8-0.1l-0.3,2.2c-0.3,0.1-0.8,0.2-1.4,0.2
		c-2,0-3.3-1.1-3.3-2.9v-3.9h-1.5v-2.4h1.5v-1.9l2.9-1.1v3h2.9L37,51.6z"/>
	<path class="st0" d="M43,58.6c-2.7,0-4.9-1.9-4.9-4.8c0-2.9,2.2-4.8,4.9-4.8c2.7,0,4.9,1.9,4.9,4.8C47.9,56.6,45.7,58.6,43,58.6z
		 M43,51.5c-1.1,0-2,1-2,2.3s0.9,2.3,2,2.3c1.1,0,2-1,2-2.3S44.1,51.5,43,51.5z"/>
	<path class="st0" d="M54.6,58.6c-1,0-1.9-0.3-2.3-0.6v5h-2.9V49.2H52v1.1h0c0.5-0.9,1.5-1.4,2.8-1.4c2.2,0,4.4,1.7,4.4,4.8
		C59.2,56.7,57.1,58.6,54.6,58.6z M54,51.5c-0.9,0-1.5,0.5-1.8,0.9v2.8c0.3,0.4,0.9,0.8,1.8,0.8c1.3,0,2.2-1,2.2-2.3
		S55.3,51.5,54,51.5z"/>
	<path class="st0" d="M69.1,62.9c-2.6,0-4.4-1.5-4.4-3.4c0-1.4,0.9-2.2,1.9-2.4l-1.2-1.2c0.1-0.6,0.6-1.1,1.1-1.3
		c-0.7-0.4-1.3-1.3-1.3-2.4c0-1.9,1.4-3.3,3.7-3.3c0.5,0,1,0.1,1.3,0.2c0.4,0.1,0.8,0.2,1.3,0.2c0.5,0,1-0.1,1.4-0.3l0.5,2.2
		c-0.3,0.2-0.7,0.3-1.1,0.3c0.1,0.2,0.2,0.6,0.2,0.9c0,1.5-1.2,2.8-3,2.9c-0.4,0-0.6,0.1-0.6,0.3c0,0.1,0.1,0.2,0.2,0.3l1.4,0.5
		c1.8,0.6,2.7,1.5,2.7,3.2C73.5,61.5,71.8,62.9,69.1,62.9z M69.8,58.7l-1.1-0.3c-0.7,0-1.2,0.5-1.2,1.2c0,0.6,0.5,1.1,1.6,1.1
		c1,0,1.6-0.5,1.6-1C70.7,59.3,70.3,58.8,69.8,58.7z M69,51.1c-0.7,0-1.2,0.5-1.2,1.1c0,0.6,0.5,1.1,1.2,1.1c0.6,0,1.2-0.5,1.2-1.1
		C70.1,51.6,69.6,51.1,69,51.1z"/>
	<path class="st0" d="M80.3,52.4c-0.2-0.1-0.6-0.2-0.9-0.2c-0.9,0-1.8,0.5-1.8,1.9v4.2h-2.9v-9.1h2.9v2h0c0.3-1.4,1.4-2.2,2.6-2.2
		c0.3,0,0.6,0,0.8,0.1L80.3,52.4z"/>
	<path class="st0" d="M88.4,58.7c-0.5-0.1-1.2-0.5-1.4-1.2c-0.4,0.7-1.3,1.1-2.4,1.1c-1.6,0-3-1.1-3-3c0-1.7,1.3-2.8,3.1-3l1.8-0.2
		v-0.3c0-0.5-0.4-0.9-1.4-0.9c-0.9,0-1.9,0.3-2.5,0.7l-0.5-2.2c0.7-0.5,2-0.8,3.2-0.8c2.4,0,4.1,1.1,4.1,3.3v3
		c0,1.1,0.4,1.6,1.1,1.9L88.4,58.7z M86.5,54.3l-1.1,0.1c-0.8,0.1-1.1,0.6-1.1,1.1c0,0.5,0.4,0.9,0.9,0.9c0.7,0,1.3-0.5,1.3-1.3
		V54.3z"/>
	<path class="st0" d="M98.1,58.3v-1.1h0c-0.5,0.9-1.5,1.4-2.8,1.4c-2.2,0-4.4-1.7-4.4-4.8c0-2.9,2.1-4.8,4.6-4.8
		c1,0,1.9,0.3,2.3,0.6v-5.5h2.9v14.2H98.1z M97.9,52.4c-0.3-0.4-0.9-0.8-1.8-0.8c-1.3,0-2.2,1-2.2,2.3s0.9,2.3,2.2,2.3
		c0.9,0,1.5-0.5,1.8-0.9V52.4z"/>
	<path class="st0" d="M110.9,53.3l-1.3,1.3h-4.4c0.1,0.7,1.1,1.6,2.7,1.6c0.9,0,1.9-0.3,2.5-0.7l-0.3,2.5c-0.7,0.4-1.7,0.6-2.9,0.6
		c-2.8,0-5-1.9-5-4.9c0-2.9,2.1-4.8,4.7-4.8c2.5,0,4.1,1.7,4.1,3.6C111,52.8,111,53.1,110.9,53.3z M106.9,51.1
		c-0.9,0-1.6,0.7-1.8,1.5h3.1c0-0.1,0-0.1,0-0.2C108.3,51.8,107.7,51.1,106.9,51.1z"/>
	<path class="st0" d="M115.3,58.5c-1.2,0-2.1-0.3-2.9-0.6l-0.3-2.6c0.8,0.6,1.8,1,2.8,1c0.5,0,0.9-0.3,0.9-0.6
		c0-0.4-0.3-0.5-0.8-0.7c-1.7-0.5-2.8-1.4-2.8-3c0-1.8,1.4-2.9,3.4-2.9c1.1,0,2.2,0.3,2.7,0.5l-0.5,2.2c-0.4-0.2-1.2-0.5-1.9-0.5
		c-0.5,0-0.8,0.2-0.8,0.6c0,0.3,0.2,0.5,0.8,0.7c2,0.5,2.9,1.6,2.9,3.1C118.9,57.1,117.8,58.5,115.3,58.5z"/>
	<path class="st0" d="M120.7,51.2l-0.9-0.2c0.7-0.8,1.2-1.9,1.3-2.8c-0.5-0.1-1.3-1-1.3-1.4c0-0.6,1.1-1.6,1.7-1.6
		c0.5,0,1.7,1,1.7,1.6C123.1,48.1,121.9,50.2,120.7,51.2z M124.8,51.2l-0.9-0.2c0.7-0.8,1.2-1.9,1.3-2.8c-0.5-0.1-1.3-1-1.3-1.4
		c0-0.6,1.1-1.6,1.7-1.6c0.5,0,1.7,1,1.7,1.6C127.2,48.1,126,50.2,124.8,51.2z"/>
	<path class="st0" d="M133.6,52c-0.5,0.6-0.7,1-0.7,1.6c0,0.3,0,0.6,0.1,0.9l-2.5-0.5c-0.1-0.4-0.1-0.7-0.1-1c0-1.1,0.4-2,1.2-2.8
		c0.5-0.5,0.8-0.9,0.8-1.5c0-0.4-0.4-0.9-1.1-0.9c-0.7,0-1.4,0.3-2,0.7l-0.6-2.5c0.7-0.5,1.7-0.8,2.9-0.8c2.4,0,3.9,1.4,3.9,3.4
		C135.3,49.8,134.8,50.7,133.6,52z M131.8,58.6c-0.5,0-1.7-1.1-1.7-1.7c0-0.5,1.1-1.6,1.7-1.6s1.7,1.1,1.7,1.6
		C133.4,57.5,132.3,58.6,131.8,58.6z"/>
</g>
</svg>
