<?xml version="1.0" encoding="utf-8"?>
<!-- Generator: Adobe Illustrator 22.0.1, SVG Export Plug-In . SVG Version: 6.00 Build 0)  -->
<svg version="1.1" id="Layer_1" xmlns="http://www.w3.org/2000/svg" xmlns:xlink="http://www.w3.org/1999/xlink" x="0px" y="0px"
	 viewBox="0 0 300 250" style="enable-background:new 0 0 300 250;" xml:space="preserve">
<g>
	<path d="M30.1,36.3v-5.1h-4.9v5.1H22V23.5h3.1v5h4.9v-5h3.1v12.8H30.1z"/>
	<path d="M43.6,31.3l-1.3,1.3h-4.4c0.1,0.7,1.1,1.6,2.7,1.6c0.9,0,1.9-0.3,2.5-0.7L42.7,36c-0.7,0.4-1.7,0.6-2.9,0.6
		c-2.8,0-5-1.9-5-4.9c0-2.9,2.1-4.8,4.7-4.8c2.5,0,4.1,1.7,4.1,3.6C43.7,30.8,43.6,31.1,43.6,31.3z M39.6,29.1
		c-0.9,0-1.6,0.7-1.8,1.5h3.1c0-0.1,0-0.1,0-0.2C40.9,29.8,40.4,29.1,39.6,29.1z"/>
	<path d="M48.2,36.7c-1.9-0.1-3.1-1-3.1-3.2V22.1H48v11c0,0.7,0.4,1.1,1.2,1.2L48.2,36.7z"/>
	<path d="M55.6,36.6c-1,0-1.9-0.3-2.3-0.6v5h-2.9V27.2H53v1.1h0c0.5-0.9,1.5-1.4,2.8-1.4c2.2,0,4.4,1.7,4.4,4.8
		C60.2,34.7,58.1,36.6,55.6,36.6z M55.1,29.5c-0.9,0-1.5,0.5-1.8,0.9v2.8c0.3,0.4,0.9,0.8,1.8,0.8c1.3,0,2.2-1,2.2-2.3
		S56.3,29.5,55.1,29.5z"/>
	<path d="M71.3,36.6c-1,0-1.9-0.3-2.3-0.6v5h-2.9V27.2h2.6v1.1h0c0.5-0.9,1.5-1.4,2.8-1.4c2.2,0,4.4,1.7,4.4,4.8
		C75.9,34.7,73.8,36.6,71.3,36.6z M70.8,29.5c-0.9,0-1.5,0.5-1.8,0.9v2.8c0.3,0.4,0.9,0.8,1.8,0.8c1.3,0,2.2-1,2.2-2.3
		S72,29.5,70.8,29.5z"/>
	<path d="M83.3,36.3v-1.2h0c-0.4,1-1.3,1.5-2.8,1.5c-2,0-3.2-1.1-3.2-3v-6.3h2.9v5.6c0,0.7,0.5,1.2,1.4,1.2c0.9,0,1.4-0.6,1.4-1.3
		v-5.5H86v9.1H83.3z"/>
	<path d="M94,29.6h-2.4V33c0,0.8,0.4,1.1,1.2,1.1c0.3,0,0.5,0,0.8-0.1l-0.3,2.2c-0.3,0.1-0.8,0.2-1.4,0.2c-2,0-3.3-1.1-3.3-2.9v-3.9
		h-1.5v-2.4h1.5v-1.9l2.9-1.1v3h2.9L94,29.6z"/>
	<path d="M105.6,35.4c-1.4,3.6-2.8,5-4.5,5.6l-1.8-1.8c1.5-0.6,2.6-1.6,3.3-3.5l-3.3-8.4h2.8l1.3,3.5c0.2,0.5,0.4,1.1,0.5,1.8h0
		c0.2-0.6,0.4-1.3,0.6-1.8l1.3-3.5h2.7L105.6,35.4z"/>
	<path d="M113.9,36.6c-2.7,0-4.9-1.9-4.9-4.8c0-2.9,2.2-4.8,4.9-4.8c2.7,0,4.9,1.9,4.9,4.8C118.9,34.6,116.7,36.6,113.9,36.6z
		 M113.9,29.5c-1.1,0-2,1-2,2.3s0.9,2.3,2,2.3c1.1,0,2-1,2-2.3S115,29.5,113.9,29.5z"/>
	<path d="M126.3,36.3v-1.2h0c-0.4,1-1.3,1.5-2.8,1.5c-2,0-3.2-1.1-3.2-3v-6.3h2.9v5.6c0,0.7,0.5,1.2,1.4,1.2c0.9,0,1.4-0.6,1.4-1.3
		v-5.5h2.9v9.1H126.3z"/>
	<path d="M136.5,30.4c-0.2-0.1-0.6-0.2-0.9-0.2c-0.9,0-1.8,0.5-1.8,1.9v4.2h-2.9v-9.1h2.9v2h0c0.3-1.4,1.4-2.2,2.6-2.2
		c0.3,0,0.6,0,0.8,0.1L136.5,30.4z"/>
	<path d="M153.9,36.3v-5.6c0-0.7-0.3-1.2-1.3-1.2c-0.9,0-1.4,0.6-1.4,1.3v5.5h-2.9v-5.6c0-0.7-0.3-1.2-1.3-1.2
		c-0.9,0-1.4,0.6-1.4,1.3v5.5h-2.9v-9.1h2.7v1.2h0c0.4-1,1.3-1.5,2.7-1.5c1.3,0,2.3,0.5,2.7,1.5c0.4-0.9,1.4-1.5,2.8-1.5
		c2.1,0,3.2,1.1,3.2,3v6.3H153.9z"/>
	<path d="M160.2,26c-0.5,0-1.6-1.1-1.6-1.6c0-0.5,1.1-1.6,1.6-1.6c0.5,0,1.6,1,1.6,1.6C161.8,24.9,160.8,26,160.2,26z M158.8,36.3
		v-9.1h3v9.1H158.8z"/>
	<path d="M169.4,36.3v-5.6c0-0.7-0.4-1.2-1.3-1.2c-0.9,0-1.4,0.6-1.4,1.3v5.5h-2.9v-9.1h2.7v1.2h0c0.4-1,1.3-1.5,2.8-1.5
		c2,0,3.2,1.1,3.2,3v6.3H169.4z"/>
	<path d="M180.9,36.3v-1.1h0c-0.5,0.9-1.5,1.4-2.8,1.4c-2.2,0-4.4-1.7-4.4-4.8c0-2.9,2.1-4.8,4.6-4.8c1,0,1.9,0.3,2.3,0.6v-5.5h2.9
		v14.2H180.9z M180.7,30.4c-0.3-0.4-0.9-0.8-1.8-0.8c-1.3,0-2.2,1-2.2,2.3s0.9,2.3,2.2,2.3c0.9,0,1.5-0.5,1.8-0.9V30.4z"/>
	<path d="M196.3,36.7c-0.5-0.1-1.2-0.5-1.4-1.2c-0.4,0.7-1.3,1.1-2.4,1.1c-1.6,0-3-1.1-3-3c0-1.7,1.3-2.8,3.1-3l1.8-0.2v-0.3
		c0-0.5-0.4-0.9-1.4-0.9c-0.9,0-1.9,0.3-2.5,0.7l-0.5-2.2c0.7-0.5,2-0.8,3.2-0.8c2.4,0,4.1,1.1,4.1,3.3v3c0,1.1,0.4,1.6,1.1,1.9
		L196.3,36.7z M194.4,32.3l-1.1,0.1c-0.8,0.1-1.1,0.6-1.1,1.1c0,0.5,0.4,0.9,0.9,0.9c0.7,0,1.3-0.5,1.3-1.3V32.3z"/>
	<path d="M205.1,36.3v-5.6c0-0.7-0.4-1.2-1.3-1.2c-0.9,0-1.4,0.6-1.4,1.3v5.5h-2.9v-9.1h2.7v1.2h0c0.4-1,1.3-1.5,2.8-1.5
		c2,0,3.2,1.1,3.2,3v6.3H205.1z"/>
	<path d="M216.7,36.3v-1.1h0c-0.5,0.9-1.5,1.4-2.8,1.4c-2.2,0-4.4-1.7-4.4-4.8c0-2.9,2.1-4.8,4.6-4.8c1,0,1.9,0.3,2.3,0.6v-5.5h2.9
		v14.2H216.7z M216.4,30.4c-0.3-0.4-0.9-0.8-1.8-0.8c-1.3,0-2.2,1-2.2,2.3s0.9,2.3,2.2,2.3c0.9,0,1.5-0.5,1.8-0.9V30.4z"/>
</g>
<g>
	<path d="M28.2,46.7c-0.3-0.1-0.8-0.2-1.2-0.2c-1.1,0-1.6,0.6-1.6,1.9v0.9H28l-0.6,2.4h-2v6.7h-2.8v-6.7h-1.4v-2.4h1.4v-1.1
		c0-2.8,1.8-4.1,4.1-4.1c0.8,0,1.7,0.1,2.1,0.3L28.2,46.7z"/>
	<path d="M35.4,58.7c-0.5-0.1-1.2-0.5-1.4-1.2c-0.4,0.7-1.3,1.1-2.4,1.1c-1.6,0-3-1.1-3-3c0-1.7,1.3-2.8,3.1-3l1.8-0.2v-0.3
		c0-0.5-0.4-0.9-1.4-0.9c-0.9,0-1.9,0.3-2.5,0.7L29,49.7c0.7-0.5,2-0.8,3.2-0.8c2.4,0,4.1,1.1,4.1,3.3v3c0,1.1,0.4,1.6,1.1,1.9
		L35.4,58.7z M33.5,54.3l-1.1,0.1c-0.8,0.1-1.1,0.6-1.1,1.1c0,0.5,0.4,0.9,0.9,0.9c0.7,0,1.3-0.5,1.3-1.3V54.3z"/>
	<path d="M49.6,58.3v-5.6c0-0.7-0.3-1.2-1.3-1.2c-0.9,0-1.4,0.6-1.4,1.3v5.5H44v-5.6c0-0.7-0.3-1.2-1.3-1.2c-0.9,0-1.4,0.6-1.4,1.3
		v5.5h-2.9v-9.1h2.7v1.2h0c0.4-1,1.3-1.5,2.7-1.5c1.3,0,2.3,0.5,2.7,1.5c0.4-0.9,1.4-1.5,2.8-1.5c2.1,0,3.2,1.1,3.2,3v6.3H49.6z"/>
	<path d="M55.9,48c-0.5,0-1.6-1.1-1.6-1.6c0-0.5,1.1-1.6,1.6-1.6s1.6,1,1.6,1.6C57.5,46.9,56.5,48,55.9,48z M54.5,58.3v-9.1h3v9.1
		H54.5z"/>
	<path d="M62.5,58.7c-1.9-0.1-3.1-1-3.1-3.2V44.1h2.9v11c0,0.7,0.4,1.1,1.2,1.2L62.5,58.7z"/>
	<path d="M69.9,57.4c-1.4,3.6-2.8,5-4.5,5.6l-1.8-1.8c1.5-0.6,2.6-1.6,3.3-3.5l-3.3-8.4h2.8l1.3,3.5c0.2,0.5,0.4,1.1,0.5,1.8h0
		c0.2-0.6,0.4-1.3,0.6-1.8l1.3-3.5h2.7L69.9,57.4z"/>
	<path d="M74.7,51.2l-0.9-0.2c0.7-0.8,1.2-1.9,1.3-2.8c-0.5-0.1-1.3-1-1.3-1.4c0-0.6,1.1-1.6,1.7-1.6c0.5,0,1.7,1,1.7,1.6
		C77.1,48.1,75.9,50.2,74.7,51.2z"/>
	<path d="M80.8,58.5c-1.2,0-2.1-0.3-2.9-0.6l-0.3-2.6c0.8,0.6,1.8,1,2.8,1c0.5,0,0.9-0.3,0.9-0.6c0-0.4-0.3-0.5-0.8-0.7
		c-1.7-0.5-2.8-1.4-2.8-3c0-1.8,1.4-2.9,3.4-2.9c1.1,0,2.2,0.3,2.7,0.5l-0.5,2.2c-0.4-0.2-1.2-0.5-1.9-0.5c-0.5,0-0.8,0.2-0.8,0.6
		c0,0.3,0.2,0.5,0.8,0.7c2,0.5,2.9,1.6,2.9,3.1C84.3,57.1,83.2,58.5,80.8,58.5z"/>
	<path d="M96.6,46.7c-0.3-0.1-0.8-0.2-1.2-0.2c-1.1,0-1.6,0.6-1.6,1.9v0.9h2.6l-0.6,2.4h-2v6.7h-2.8v-6.7h-1.4v-2.4h1.4v-1.1
		c0-2.8,1.8-4.1,4.1-4.1c0.8,0,1.7,0.1,2.1,0.3L96.6,46.7z"/>
	<path d="M103.4,58.3v-1.2h0c-0.4,1-1.3,1.5-2.8,1.5c-2,0-3.2-1.1-3.2-3v-6.3h2.9v5.6c0,0.7,0.5,1.2,1.4,1.2c0.9,0,1.4-0.6,1.4-1.3
		v-5.5h2.9v9.1H103.4z"/>
	<path d="M114,51.6h-2.4V55c0,0.8,0.4,1.1,1.2,1.1c0.3,0,0.5,0,0.8-0.1l-0.3,2.2c-0.3,0.1-0.8,0.2-1.4,0.2c-2,0-3.3-1.1-3.3-2.9
		v-3.9h-1.5v-2.4h1.5v-1.9l2.9-1.1v3h2.9L114,51.6z"/>
	<path d="M121.5,58.3v-1.2h0c-0.4,1-1.3,1.5-2.8,1.5c-2,0-3.2-1.1-3.2-3v-6.3h2.9v5.6c0,0.7,0.5,1.2,1.4,1.2c0.9,0,1.4-0.6,1.4-1.3
		v-5.5h2.9v9.1H121.5z"/>
	<path d="M131.7,52.4c-0.2-0.1-0.6-0.2-0.9-0.2c-0.9,0-1.8,0.5-1.8,1.9v4.2h-2.9v-9.1h2.9v2h0c0.3-1.4,1.4-2.2,2.6-2.2
		c0.3,0,0.6,0,0.8,0.1L131.7,52.4z"/>
	<path d="M141.6,53.3l-1.3,1.3h-4.4c0.1,0.7,1.1,1.6,2.7,1.6c0.9,0,1.9-0.3,2.5-0.7l-0.3,2.5c-0.7,0.4-1.7,0.6-2.9,0.6
		c-2.8,0-5-1.9-5-4.9c0-2.9,2.1-4.8,4.7-4.8c2.5,0,4.1,1.7,4.1,3.6C141.7,52.8,141.6,53.1,141.6,53.3z M137.6,51.1
		c-0.9,0-1.6,0.7-1.8,1.5h3.1c0-0.1,0-0.1,0-0.2C138.9,51.8,138.4,51.1,137.6,51.1z"/>
	<path d="M154,58.7c-0.5-0.1-1.2-0.5-1.4-1.2c-0.4,0.7-1.3,1.1-2.4,1.1c-1.6,0-3-1.1-3-3c0-1.7,1.3-2.8,3.1-3l1.8-0.2v-0.3
		c0-0.5-0.4-0.9-1.4-0.9c-0.9,0-1.9,0.3-2.5,0.7l-0.5-2.2c0.7-0.5,2-0.8,3.2-0.8c2.4,0,4.1,1.1,4.1,3.3v3c0,1.1,0.4,1.6,1.1,1.9
		L154,58.7z M152.1,54.3l-1.1,0.1c-0.8,0.1-1.1,0.6-1.1,1.1c0,0.5,0.4,0.9,0.9,0.9c0.7,0,1.3-0.5,1.3-1.3V54.3z"/>
	<path d="M162.9,51.6h-2.4V55c0,0.8,0.4,1.1,1.2,1.1c0.3,0,0.5,0,0.8-0.1l-0.3,2.2c-0.3,0.1-0.8,0.2-1.4,0.2c-2,0-3.3-1.1-3.3-2.9
		v-3.9h-1.5v-2.4h1.5v-1.9l2.9-1.1v3h2.9L162.9,51.6z"/>
	<path d="M177.3,53.3l-1.3,1.3h-4.4c0.1,0.7,1.1,1.6,2.7,1.6c0.9,0,1.9-0.3,2.5-0.7l-0.3,2.5c-0.7,0.4-1.7,0.6-2.9,0.6
		c-2.8,0-5-1.9-5-4.9c0-2.9,2.1-4.8,4.7-4.8c2.5,0,4.1,1.7,4.1,3.6C177.4,52.8,177.3,53.1,177.3,53.3z M173.3,51.1
		c-0.9,0-1.6,0.7-1.8,1.5h3.1c0-0.1,0-0.1,0-0.2C174.6,51.8,174.1,51.1,173.3,51.1z"/>
	<path d="M185.1,58.7c-0.5-0.1-1.2-0.5-1.4-1.2c-0.4,0.7-1.3,1.1-2.4,1.1c-1.6,0-3-1.1-3-3c0-1.7,1.3-2.8,3.1-3l1.8-0.2v-0.3
		c0-0.5-0.4-0.9-1.4-0.9c-0.9,0-1.9,0.3-2.5,0.7l-0.5-2.2c0.7-0.5,2-0.8,3.2-0.8c2.4,0,4.1,1.1,4.1,3.3v3c0,1.1,0.4,1.6,1.1,1.9
		L185.1,58.7z M183.2,54.3l-1.1,0.1c-0.8,0.1-1.1,0.6-1.1,1.1c0,0.5,0.4,0.9,0.9,0.9c0.7,0,1.3-0.5,1.3-1.3V54.3z"/>
	<path d="M191.1,58.5c-1.2,0-2.1-0.3-2.9-0.6l-0.3-2.6c0.8,0.6,1.8,1,2.8,1c0.5,0,0.9-0.3,0.9-0.6c0-0.4-0.3-0.5-0.8-0.7
		c-1.7-0.5-2.8-1.4-2.8-3c0-1.8,1.4-2.9,3.4-2.9c1.1,0,2.2,0.3,2.7,0.5l-0.5,2.2c-0.4-0.2-1.2-0.5-1.9-0.5c-0.5,0-0.8,0.2-0.8,0.6
		c0,0.3,0.2,0.5,0.8,0.7c2,0.5,2.9,1.6,2.9,3.1C194.7,57.1,193.6,58.5,191.1,58.5z"/>
	<path d="M204.3,53.3l-1.3,1.3h-4.4c0.1,0.7,1.1,1.6,2.7,1.6c0.9,0,1.9-0.3,2.5-0.7l-0.3,2.5c-0.7,0.4-1.7,0.6-2.9,0.6
		c-2.8,0-5-1.9-5-4.9c0-2.9,2.1-4.8,4.7-4.8c2.5,0,4.1,1.7,4.1,3.6C204.4,52.8,204.4,53.1,204.3,53.3z M200.4,51.1
		c-0.9,0-1.6,0.7-1.8,1.5h3.1c0-0.1,0-0.1,0-0.2C201.7,51.8,201.1,51.1,200.4,51.1z"/>
	<path d="M220.3,58.4h-2l-1.2-3.6c-0.2-0.6-0.4-1.2-0.5-1.9h0c-0.1,0.7-0.3,1.3-0.5,1.9l-1.2,3.6h-1.9l-3.2-9.1h2.7l1.1,3.4
		c0.2,0.5,0.3,1.2,0.4,1.7h0c0.1-0.6,0.3-1.2,0.4-1.7l1.1-3.4h2.2l1.1,3.4c0.2,0.6,0.3,1.2,0.4,1.8h0c0.1-0.6,0.3-1.2,0.5-1.8
		l1.1-3.4h2.5L220.3,58.4z"/>
	<path d="M226.1,48c-0.5,0-1.6-1.1-1.6-1.6c0-0.5,1.1-1.6,1.6-1.6c0.5,0,1.6,1,1.6,1.6C227.6,46.9,226.6,48,226.1,48z M224.6,58.3
		v-9.1h3v9.1H224.6z"/>
	<path d="M235.5,51.6h-2.4V55c0,0.8,0.4,1.1,1.2,1.1c0.3,0,0.5,0,0.8-0.1l-0.3,2.2c-0.3,0.1-0.8,0.2-1.4,0.2c-2,0-3.3-1.1-3.3-2.9
		v-3.9h-1.5v-2.4h1.5v-1.9l2.9-1.1v3h2.9L235.5,51.6z"/>
	<path d="M242.8,58.3v-5.6c0-0.7-0.5-1.2-1.4-1.2c-0.9,0-1.4,0.6-1.4,1.3v5.5h-2.9V44.1h2.9v6h0c0.5-0.7,1.3-1.1,2.6-1.1
		c2,0,3.2,1.1,3.2,3v6.3H242.8z"/>
</g>
<g>
	<path d="M27.9,70.1v10.2h-3.1V70.1h-3.7v-2.5h10.4v2.5H27.9z"/>
	<path d="M32.8,80.3V67.5h3.1v12.8H32.8z"/>
	<path d="M46.3,80.3l-1.1-2.9h-4.1l-1.1,2.9h-2.9l5-12.9h2.1l5,12.9H46.3z M43.6,72.6c-0.1-0.3-0.3-0.8-0.4-1.2h0
		c-0.1,0.4-0.2,0.9-0.4,1.2L42,75h2.5L43.6,72.6z"/>
	<path d="M59.3,80.3l-1.1-2.9h-4.1l-1.1,2.9h-2.9l5-12.9h2.1l5,12.9H59.3z M56.6,72.6c-0.1-0.3-0.3-0.8-0.4-1.2h0
		c-0.1,0.4-0.2,0.9-0.4,1.2L54.9,75h2.5L56.6,72.6z"/>
	<path d="M68.1,80.3V67.5h3.1v10.2H76v2.5H68.1z"/>
	<path d="M78.6,70c-0.5,0-1.6-1.1-1.6-1.6c0-0.5,1.1-1.6,1.6-1.6s1.6,1,1.6,1.6C80.2,68.9,79.1,70,78.6,70z M77.1,80.3v-9.1h3v9.1
		H77.1z"/>
	<path d="M88.3,68.7c-0.3-0.1-0.8-0.2-1.2-0.2c-1.1,0-1.6,0.6-1.6,1.9v0.9h2.6l-0.6,2.4h-2v6.7h-2.8v-6.7h-1.4v-2.4h1.4v-1.1
		c0-2.8,1.8-4.1,4.1-4.1c0.8,0,1.7,0.1,2.1,0.3L88.3,68.7z"/>
	<path d="M97.2,75.3l-1.3,1.3h-4.4c0.1,0.7,1.1,1.6,2.7,1.6c0.9,0,1.9-0.3,2.5-0.7L96.4,80c-0.7,0.4-1.7,0.6-2.9,0.6
		c-2.8,0-5-1.9-5-4.9c0-2.9,2.1-4.8,4.7-4.8c2.5,0,4.1,1.7,4.1,3.6C97.3,74.8,97.3,75.1,97.2,75.3z M93.3,73.1
		c-0.9,0-1.6,0.7-1.8,1.5h3.1c0-0.1,0-0.1,0-0.2C94.6,73.8,94,73.1,93.3,73.1z"/>
	<path d="M104.8,70c-0.5,0-1.6-1.1-1.6-1.6c0-0.5,1.1-1.6,1.6-1.6s1.6,1,1.6,1.6C106.4,68.9,105.3,70,104.8,70z M103.3,80.3v-9.1h3
		v9.1H103.3z"/>
	<path d="M113.9,80.3v-5.6c0-0.7-0.4-1.2-1.3-1.2c-0.9,0-1.4,0.6-1.4,1.3v5.5h-2.9v-9.1h2.7v1.2h0c0.4-1,1.3-1.5,2.8-1.5
		c2,0,3.2,1.1,3.2,3v6.3H113.9z"/>
	<path d="M121.6,80.5c-1.2,0-2.1-0.3-2.9-0.6l-0.3-2.6c0.8,0.6,1.8,1,2.8,1c0.5,0,0.9-0.3,0.9-0.6c0-0.4-0.3-0.5-0.8-0.7
		c-1.7-0.5-2.8-1.4-2.8-3c0-1.8,1.4-2.9,3.4-2.9c1.1,0,2.2,0.3,2.7,0.5l-0.5,2.2c-0.4-0.2-1.2-0.5-1.9-0.5c-0.5,0-0.8,0.2-0.8,0.6
		c0,0.3,0.2,0.5,0.8,0.7c2,0.5,2.9,1.6,2.9,3.1C125.2,79.1,124.1,80.5,121.6,80.5z"/>
	<path d="M132.6,80.3v-1.2h0c-0.4,1-1.3,1.5-2.8,1.5c-2,0-3.2-1.1-3.2-3v-6.3h2.9v5.6c0,0.7,0.5,1.2,1.4,1.2c0.9,0,1.4-0.6,1.4-1.3
		v-5.5h2.9v9.1H132.6z"/>
	<path d="M142.8,74.4c-0.2-0.1-0.6-0.2-0.9-0.2c-0.9,0-1.8,0.5-1.8,1.9v4.2h-2.9v-9.1h2.9v2h0c0.3-1.4,1.4-2.2,2.6-2.2
		c0.3,0,0.6,0,0.8,0.1L142.8,74.4z"/>
	<path d="M150.9,80.7c-0.5-0.1-1.2-0.5-1.4-1.2c-0.4,0.7-1.3,1.1-2.4,1.1c-1.6,0-3-1.1-3-3c0-1.7,1.3-2.8,3.1-3l1.8-0.2v-0.3
		c0-0.5-0.4-0.9-1.4-0.9c-0.9,0-1.9,0.3-2.5,0.7l-0.5-2.2c0.7-0.5,2-0.8,3.2-0.8c2.4,0,4.1,1.1,4.1,3.3v3c0,1.1,0.4,1.6,1.1,1.9
		L150.9,80.7z M149,76.3l-1.1,0.1c-0.8,0.1-1.1,0.6-1.1,1.1c0,0.5,0.4,0.9,0.9,0.9c0.7,0,1.3-0.5,1.3-1.3V76.3z"/>
	<path d="M159.6,80.3v-5.6c0-0.7-0.4-1.2-1.3-1.2c-0.9,0-1.4,0.6-1.4,1.3v5.5h-2.9v-9.1h2.7v1.2h0c0.4-1,1.3-1.5,2.8-1.5
		c2,0,3.2,1.1,3.2,3v6.3H159.6z"/>
	<path d="M171.3,74.2c-0.6-0.4-1.2-0.6-1.9-0.6c-1.3,0-2.3,0.9-2.3,2.2c0,1.3,1,2.2,2.4,2.2c0.8,0,1.3-0.2,2-0.5l-0.3,2.5
		c-0.6,0.3-1.4,0.4-2.2,0.4c-2.5,0-4.9-1.8-4.9-4.7c0-3,2.4-4.7,4.8-4.7c1.2,0,2.2,0.2,3,0.7L171.3,74.2z"/>
	<path d="M181.4,75.3l-1.3,1.3h-4.4c0.1,0.7,1.1,1.6,2.7,1.6c0.9,0,1.9-0.3,2.5-0.7l-0.3,2.5c-0.7,0.4-1.7,0.6-2.9,0.6
		c-2.8,0-5-1.9-5-4.9c0-2.9,2.1-4.8,4.7-4.8c2.5,0,4.1,1.7,4.1,3.6C181.5,74.8,181.5,75.1,181.4,75.3z M177.4,73.1
		c-0.9,0-1.6,0.7-1.8,1.5h3.1c0-0.1,0-0.1,0-0.2C178.8,73.8,178.2,73.1,177.4,73.1z"/>
	<path d="M184.1,80.6c-0.5,0-1.7-1.1-1.7-1.7c0-0.5,1.1-1.6,1.7-1.6s1.7,1.1,1.7,1.6C185.8,79.5,184.7,80.6,184.1,80.6z"/>
</g>
</svg>
