<?xml version="1.0" encoding="utf-8"?>
<!-- Generator: Adobe Illustrator 22.0.1, SVG Export Plug-In . SVG Version: 6.00 Build 0)  -->
<svg version="1.1" id="Layer_1" xmlns="http://www.w3.org/2000/svg" xmlns:xlink="http://www.w3.org/1999/xlink" x="0px" y="0px"
	 viewBox="0 0 300 250" style="enable-background:new 0 0 300 250;" xml:space="preserve">
<style type="text/css">
	.st0{fill:#F9E13A;}
</style>
<g>
	<path class="st0" d="M32.3,36.3l-1.1-2.9h-4.1l-1.1,2.9h-2.9l5-12.9h2.1l5,12.9H32.3z M29.6,28.6c-0.1-0.3-0.3-0.8-0.4-1.2h0
		c-0.1,0.4-0.2,0.9-0.4,1.2L28,31h2.5L29.6,28.6z"/>
	<path class="st0" d="M42.2,36.3v-5.6c0-0.7-0.4-1.2-1.3-1.2c-0.9,0-1.4,0.6-1.4,1.3v5.5h-2.9v-9.1h2.7v1.2h0c0.4-1,1.3-1.5,2.8-1.5
		c2,0,3.2,1.1,3.2,3v6.3H42.2z"/>
	<path class="st0" d="M53.8,36.3v-1.1h0c-0.5,0.9-1.5,1.4-2.8,1.4c-2.2,0-4.4-1.7-4.4-4.8c0-2.9,2.1-4.8,4.6-4.8
		c1,0,1.9,0.3,2.3,0.6v-5.5h2.9v14.2H53.8z M53.5,30.4c-0.3-0.4-0.9-0.8-1.8-0.8c-1.3,0-2.2,1-2.2,2.3s0.9,2.3,2.2,2.3
		c0.9,0,1.5-0.5,1.8-0.9V30.4z"/>
	<path class="st0" d="M68.7,26.1v10.2h-3.1V26.1H62v-2.5h10.4v2.5H68.7z"/>
	<path class="st0" d="M73.7,36.3V23.5h3.1v12.8H73.7z"/>
	<path class="st0" d="M87.2,36.3l-1.1-2.9H82L81,36.3h-2.9l5-12.9h2.1l5,12.9H87.2z M84.5,28.6c-0.1-0.3-0.3-0.8-0.4-1.2h0
		c-0.1,0.4-0.2,0.9-0.4,1.2L82.8,31h2.5L84.5,28.6z"/>
	<path class="st0" d="M100.1,36.3l-1.1-2.9H95l-1.1,2.9H91l5-12.9h2.1l5,12.9H100.1z M97.4,28.6c-0.1-0.3-0.3-0.8-0.4-1.2h0
		c-0.1,0.4-0.2,0.9-0.4,1.2L95.8,31h2.5L97.4,28.6z"/>
	<path class="st0" d="M109,36.3V23.5h3.1v10.2h4.8v2.5H109z"/>
	<path class="st0" d="M119.4,26c-0.5,0-1.6-1.1-1.6-1.6c0-0.5,1.1-1.6,1.6-1.6s1.6,1,1.6,1.6C121,24.9,120,26,119.4,26z M118,36.3
		v-9.1h3v9.1H118z"/>
	<path class="st0" d="M129.2,24.7c-0.3-0.1-0.8-0.2-1.2-0.2c-1.1,0-1.6,0.6-1.6,1.9v0.9h2.6l-0.6,2.4h-2v6.7h-2.8v-6.7h-1.4v-2.4
		h1.4v-1.1c0-2.8,1.8-4.1,4.1-4.1c0.8,0,1.7,0.1,2.1,0.3L129.2,24.7z"/>
	<path class="st0" d="M138.1,31.3l-1.3,1.3h-4.4c0.1,0.7,1.1,1.6,2.7,1.6c0.9,0,1.9-0.3,2.5-0.7l-0.3,2.5c-0.7,0.4-1.7,0.6-2.9,0.6
		c-2.8,0-5-1.9-5-4.9c0-2.9,2.1-4.8,4.7-4.8c2.5,0,4.1,1.7,4.1,3.6C138.2,30.8,138.1,31.1,138.1,31.3z M134.1,29.1
		c-0.9,0-1.6,0.7-1.8,1.5h3.1c0-0.1,0-0.1,0-0.2C135.4,29.8,134.9,29.1,134.1,29.1z"/>
	<path class="st0" d="M154.1,36.4h-2l-1.2-3.6c-0.2-0.6-0.4-1.2-0.5-1.9h0c-0.1,0.7-0.3,1.3-0.5,1.9l-1.2,3.6h-1.9l-3.2-9.1h2.7
		l1.1,3.4c0.2,0.5,0.3,1.2,0.4,1.7h0c0.1-0.6,0.3-1.2,0.4-1.7l1.1-3.4h2.2l1.1,3.4c0.2,0.6,0.3,1.2,0.4,1.8h0
		c0.1-0.6,0.3-1.2,0.5-1.8l1.1-3.4h2.5L154.1,36.4z"/>
	<path class="st0" d="M164.6,36.7c-0.5-0.1-1.2-0.5-1.4-1.2c-0.4,0.7-1.3,1.1-2.4,1.1c-1.6,0-3-1.1-3-3c0-1.7,1.3-2.8,3.1-3l1.8-0.2
		v-0.3c0-0.5-0.4-0.9-1.4-0.9c-0.9,0-1.9,0.3-2.5,0.7l-0.5-2.2c0.7-0.5,2-0.8,3.2-0.8c2.4,0,4.1,1.1,4.1,3.3v3
		c0,1.1,0.4,1.6,1.1,1.9L164.6,36.7z M162.8,32.3l-1.1,0.1c-0.8,0.1-1.1,0.6-1.1,1.1c0,0.5,0.4,0.9,0.9,0.9c0.7,0,1.3-0.5,1.3-1.3
		V32.3z"/>
	<path class="st0" d="M170.6,36.5c-1.2,0-2.1-0.3-2.9-0.6l-0.3-2.6c0.8,0.6,1.8,1,2.8,1c0.5,0,0.9-0.3,0.9-0.6
		c0-0.4-0.3-0.5-0.8-0.7c-1.7-0.5-2.8-1.4-2.8-3c0-1.8,1.4-2.9,3.4-2.9c1.1,0,2.2,0.3,2.7,0.5l-0.5,2.2c-0.4-0.2-1.2-0.5-1.9-0.5
		c-0.5,0-0.8,0.2-0.8,0.6c0,0.3,0.2,0.5,0.8,0.7c2,0.5,2.9,1.6,2.9,3.1C174.2,35.1,173.1,36.5,170.6,36.5z"/>
</g>
<g>
	<path class="st0" d="M29.5,52.4c-0.2-0.1-0.6-0.2-0.9-0.2c-0.9,0-1.8,0.5-1.8,1.9v4.2h-2.9v-9.1h2.9v2h0c0.3-1.4,1.4-2.2,2.6-2.2
		c0.3,0,0.6,0,0.8,0.1L29.5,52.4z"/>
	<path class="st0" d="M37.6,58.7c-0.5-0.1-1.2-0.5-1.4-1.2c-0.4,0.7-1.3,1.1-2.4,1.1c-1.6,0-3-1.1-3-3c0-1.7,1.3-2.8,3.1-3l1.8-0.2
		v-0.3c0-0.5-0.4-0.9-1.4-0.9c-0.9,0-1.9,0.3-2.5,0.7l-0.5-2.2c0.7-0.5,2-0.8,3.2-0.8c2.4,0,4.1,1.1,4.1,3.3v3
		c0,1.1,0.4,1.6,1.1,1.9L37.6,58.7z M35.7,54.3l-1.1,0.1c-0.8,0.1-1.1,0.6-1.1,1.1c0,0.5,0.4,0.9,0.9,0.9c0.7,0,1.3-0.5,1.3-1.3
		V54.3z"/>
	<path class="st0" d="M46.5,51.6h-2.4V55c0,0.8,0.4,1.1,1.2,1.1c0.3,0,0.5,0,0.8-0.1l-0.3,2.2c-0.3,0.1-0.8,0.2-1.4,0.2
		c-2,0-3.3-1.1-3.3-2.9v-3.9h-1.5v-2.4h1.5v-1.9l2.9-1.1v3h2.9L46.5,51.6z"/>
	<path class="st0" d="M56.2,53.3l-1.3,1.3h-4.4c0.1,0.7,1.1,1.6,2.7,1.6c0.9,0,1.9-0.3,2.5-0.7L55.4,58c-0.7,0.4-1.7,0.6-2.9,0.6
		c-2.8,0-5-1.9-5-4.9c0-2.9,2.1-4.8,4.7-4.8c2.5,0,4.1,1.7,4.1,3.6C56.3,52.8,56.2,53.1,56.2,53.3z M52.2,51.1
		c-0.9,0-1.6,0.7-1.8,1.5h3.1c0-0.1,0-0.1,0-0.2C53.5,51.8,53,51.1,52.2,51.1z"/>
	<path class="st0" d="M64.5,58.3v-1.1h0c-0.5,0.9-1.5,1.4-2.8,1.4c-2.2,0-4.4-1.7-4.4-4.8c0-2.9,2.1-4.8,4.6-4.8
		c1,0,1.9,0.3,2.3,0.6v-5.5h2.9v14.2H64.5z M64.2,52.4c-0.3-0.4-0.9-0.8-1.8-0.8c-1.3,0-2.2,1-2.2,2.3s0.9,2.3,2.2,2.3
		c0.9,0,1.5-0.5,1.8-0.9V52.4z"/>
	<path class="st0" d="M81.8,58.3l-1.1-2.9h-4.1l-1.1,2.9h-2.9l5-12.9h2.1l5,12.9H81.8z M79.1,50.6c-0.1-0.3-0.3-0.8-0.4-1.2h0
		c-0.1,0.4-0.2,0.9-0.4,1.2L77.5,53H80L79.1,50.6z"/>
	<path class="st0" d="M90.3,53.9v2.6h-2.4v-2.6h-2.6v-2.2h2.6v-2.6h2.4v2.6H93v2.2H90.3z"/>
	<path class="st0" d="M99.3,53.9v2.6h-2.4v-2.6h-2.6v-2.2h2.6v-2.6h2.4v2.6h2.6v2.2H99.3z"/>
	<path class="st0" d="M112.4,58.6c-1.9,0-3.5-0.7-4.4-1.3V44.1h2.8v5.5c0.4-0.3,1.3-0.6,2.3-0.6c2.5,0,4.6,1.8,4.6,4.6
		C117.8,56.4,116,58.6,112.4,58.6z M112.7,51.5c-0.8,0-1.5,0.4-1.8,0.7v3.5c0.3,0.2,0.9,0.4,1.5,0.4c1.5,0,2.4-1,2.4-2.3
		C114.8,52.5,114,51.5,112.7,51.5z"/>
	<path class="st0" d="M124.3,57.4c-1.4,3.6-2.8,5-4.5,5.6l-1.8-1.8c1.5-0.6,2.6-1.6,3.3-3.5l-3.3-8.4h2.8l1.3,3.5
		c0.2,0.5,0.4,1.1,0.5,1.8h0c0.2-0.6,0.4-1.3,0.6-1.8l1.3-3.5h2.7L124.3,57.4z"/>
	<path class="st0" d="M141.4,58.3l-1.1-2.9h-4.1l-1.1,2.9h-2.9l5-12.9h2.1l5,12.9H141.4z M138.7,50.6c-0.1-0.3-0.3-0.8-0.4-1.2h0
		c-0.1,0.4-0.2,0.9-0.4,1.2l-0.9,2.4h2.5L138.7,50.6z"/>
	<path class="st0" d="M147.5,58.6c-0.5,0-1.7-1.1-1.7-1.7c0-0.5,1.1-1.6,1.7-1.6c0.5,0,1.7,1.1,1.7,1.6
		C149.1,57.5,148,58.6,147.5,58.6z"/>
	<path class="st0" d="M163.1,58.3l-0.4-4.7c-0.1-0.7-0.1-1.5-0.1-2.4h0c-0.3,0.8-0.7,1.7-1.1,2.4l-2.4,4.7h-1.2l-2.4-4.7
		c-0.4-0.7-0.8-1.6-1.1-2.4h0c0,0.8,0,1.7-0.1,2.3l-0.4,4.7h-2.9l1.1-12.8h2.6l2.8,5.4c0.4,0.8,0.9,1.9,1.3,2.7h0
		c0.3-0.8,0.8-1.9,1.2-2.7l2.8-5.4h2.4l1.1,12.8H163.1z"/>
	<path class="st0" d="M169.5,58.6c-0.5,0-1.7-1.1-1.7-1.7c0-0.5,1.1-1.6,1.7-1.6s1.7,1.1,1.7,1.6C171.2,57.5,170.1,58.6,169.5,58.6z
		"/>
	<path class="st0" d="M182,58.3h-4.7V45.5h4.2c2,0,3.7,1.3,3.7,3.4c0,0.8-0.4,1.7-1.1,2.1c1.1,0.4,2.2,1.7,2.2,3.3
		C186.4,56.8,184.4,58.3,182,58.3z M181,47.8h-0.9v2.6h0.9c0.7,0,1.4-0.4,1.4-1.3C182.4,48.2,181.7,47.8,181,47.8z M181.5,52.7h-1.4
		V56h1.4c0.9,0,1.9-0.5,1.9-1.7C183.4,53.2,182.5,52.7,181.5,52.7z"/>
	<path class="st0" d="M196.3,53.3l-1.3,1.3h-4.4c0.1,0.7,1.1,1.6,2.7,1.6c0.9,0,1.9-0.3,2.5-0.7l-0.3,2.5c-0.7,0.4-1.7,0.6-2.9,0.6
		c-2.8,0-5-1.9-5-4.9c0-2.9,2.1-4.8,4.7-4.8c2.5,0,4.1,1.7,4.1,3.6C196.3,52.8,196.3,53.1,196.3,53.3z M192.3,51.1
		c-0.9,0-1.6,0.7-1.8,1.5h3.1c0-0.1,0-0.1,0-0.2C193.6,51.8,193.1,51.1,192.3,51.1z"/>
	<path class="st0" d="M200.7,58.5c-1.2,0-2.1-0.3-2.9-0.6l-0.3-2.6c0.8,0.6,1.8,1,2.8,1c0.5,0,0.9-0.3,0.9-0.6
		c0-0.4-0.3-0.5-0.8-0.7c-1.7-0.5-2.8-1.4-2.8-3c0-1.8,1.4-2.9,3.4-2.9c1.1,0,2.2,0.3,2.7,0.5l-0.5,2.2c-0.4-0.2-1.2-0.5-1.9-0.5
		c-0.5,0-0.8,0.2-0.8,0.6c0,0.3,0.2,0.5,0.8,0.7c2,0.5,2.9,1.6,2.9,3.1C204.2,57.1,203.1,58.5,200.7,58.5z"/>
	<path class="st0" d="M211.6,51.6h-2.4V55c0,0.8,0.4,1.1,1.2,1.1c0.3,0,0.5,0,0.8-0.1l-0.3,2.2c-0.3,0.1-0.8,0.2-1.4,0.2
		c-2,0-3.3-1.1-3.3-2.9v-3.9h-1.5v-2.4h1.5v-1.9l2.9-1.1v3h2.9L211.6,51.6z"/>
</g>
<g>
	<path class="st0" d="M30.2,68.7c-0.3-0.1-0.8-0.2-1.2-0.2c-1.1,0-1.6,0.6-1.6,1.9v0.9H30l-0.6,2.4h-2v6.7h-2.8v-6.7h-1.4v-2.4h1.4
		v-1.1c0-2.8,1.8-4.1,4.1-4.1c0.8,0,1.7,0.1,2.1,0.3L30.2,68.7z"/>
	<path class="st0" d="M35.3,80.6c-2.7,0-4.9-1.9-4.9-4.8c0-2.9,2.2-4.8,4.9-4.8c2.7,0,4.9,1.9,4.9,4.8
		C40.3,78.6,38.1,80.6,35.3,80.6z M35.3,73.5c-1.1,0-2,1-2,2.3s0.9,2.3,2,2.3c1.1,0,2-1,2-2.3S36.4,73.5,35.3,73.5z"/>
	<path class="st0" d="M47.4,74.4c-0.2-0.1-0.6-0.2-0.9-0.2c-0.9,0-1.8,0.5-1.8,1.9v4.2h-2.9v-9.1h2.9v2h0c0.3-1.4,1.4-2.2,2.6-2.2
		c0.3,0,0.6,0,0.8,0.1L47.4,74.4z"/>
	<path class="st0" d="M59.9,68.7c-0.3-0.1-0.8-0.2-1.2-0.2c-1.1,0-1.6,0.6-1.6,1.9v0.9h2.6l-0.6,2.4h-2v6.7h-2.8v-6.7h-1.4v-2.4h1.4
		v-1.1c0-2.8,1.8-4.1,4.1-4.1c0.8,0,1.7,0.1,2.1,0.3L59.9,68.7z"/>
	<path class="st0" d="M62.5,70c-0.5,0-1.6-1.1-1.6-1.6c0-0.5,1.1-1.6,1.6-1.6s1.6,1,1.6,1.6C64,68.9,63,70,62.5,70z M61,80.3v-9.1h3
		v9.1H61z"/>
	<path class="st0" d="M71.6,80.3v-5.6c0-0.7-0.4-1.2-1.3-1.2c-0.9,0-1.4,0.6-1.4,1.3v5.5h-2.9v-9.1h2.7v1.2h0c0.4-1,1.3-1.5,2.8-1.5
		c2,0,3.2,1.1,3.2,3v6.3H71.6z"/>
	<path class="st0" d="M82.8,80.7c-0.5-0.1-1.2-0.5-1.4-1.2c-0.4,0.7-1.3,1.1-2.4,1.1c-1.6,0-3-1.1-3-3c0-1.7,1.3-2.8,3.1-3l1.8-0.2
		v-0.3c0-0.5-0.4-0.9-1.4-0.9c-0.9,0-1.9,0.3-2.5,0.7l-0.5-2.2c0.7-0.5,2-0.8,3.2-0.8c2.4,0,4.1,1.1,4.1,3.3v3
		c0,1.1,0.4,1.6,1.1,1.9L82.8,80.7z M80.9,76.3l-1.1,0.1c-0.8,0.1-1.1,0.6-1.1,1.1c0,0.5,0.4,0.9,0.9,0.9c0.7,0,1.3-0.5,1.3-1.3
		V76.3z"/>
	<path class="st0" d="M91.5,80.3v-5.6c0-0.7-0.4-1.2-1.3-1.2c-0.9,0-1.4,0.6-1.4,1.3v5.5h-2.9v-9.1h2.7v1.2h0c0.4-1,1.3-1.5,2.8-1.5
		c2,0,3.2,1.1,3.2,3v6.3H91.5z"/>
	<path class="st0" d="M103.2,74.2c-0.6-0.4-1.2-0.6-1.9-0.6c-1.3,0-2.3,0.9-2.3,2.2c0,1.3,1,2.2,2.4,2.2c0.8,0,1.3-0.2,2-0.5
		l-0.3,2.5c-0.6,0.3-1.4,0.4-2.2,0.4c-2.5,0-4.9-1.8-4.9-4.7c0-3,2.4-4.7,4.8-4.7c1.2,0,2.2,0.2,3,0.7L103.2,74.2z"/>
	<path class="st0" d="M106.7,70c-0.5,0-1.6-1.1-1.6-1.6c0-0.5,1.1-1.6,1.6-1.6s1.6,1,1.6,1.6C108.3,68.9,107.2,70,106.7,70z
		 M105.2,80.3v-9.1h3v9.1H105.2z"/>
	<path class="st0" d="M116.5,80.7c-0.5-0.1-1.2-0.5-1.4-1.2c-0.4,0.7-1.3,1.1-2.4,1.1c-1.6,0-3-1.1-3-3c0-1.7,1.3-2.8,3.1-3l1.8-0.2
		v-0.3c0-0.5-0.4-0.9-1.4-0.9c-0.9,0-1.9,0.3-2.5,0.7l-0.5-2.2c0.7-0.5,2-0.8,3.2-0.8c2.4,0,4.1,1.1,4.1,3.3v3
		c0,1.1,0.4,1.6,1.1,1.9L116.5,80.7z M114.6,76.3l-1.1,0.1c-0.8,0.1-1.1,0.6-1.1,1.1c0,0.5,0.4,0.9,0.9,0.9c0.7,0,1.3-0.5,1.3-1.3
		V76.3z"/>
	<path class="st0" d="M122.6,80.7c-1.9-0.1-3.1-1-3.1-3.2V66.1h2.9v11c0,0.7,0.4,1.1,1.2,1.2L122.6,80.7z"/>
	<path class="st0" d="M132.3,80.5c-1.2,0-2.1-0.3-2.9-0.6l-0.3-2.6c0.8,0.6,1.8,1,2.8,1c0.5,0,0.9-0.3,0.9-0.6
		c0-0.4-0.3-0.5-0.8-0.7c-1.7-0.5-2.8-1.4-2.8-3c0-1.8,1.4-2.9,3.4-2.9c1.1,0,2.2,0.3,2.7,0.5l-0.5,2.2c-0.4-0.2-1.2-0.5-1.9-0.5
		c-0.5,0-0.8,0.2-0.8,0.6c0,0.3,0.2,0.5,0.8,0.7c2,0.5,2.9,1.6,2.9,3.1C135.8,79.1,134.7,80.5,132.3,80.5z"/>
	<path class="st0" d="M143.2,73.6h-2.4V77c0,0.8,0.4,1.1,1.2,1.1c0.3,0,0.5,0,0.8-0.1l-0.3,2.2c-0.3,0.1-0.8,0.2-1.4,0.2
		c-2,0-3.3-1.1-3.3-2.9v-3.9h-1.5v-2.4h1.5v-1.9l2.9-1.1v3h2.9L143.2,73.6z"/>
	<path class="st0" d="M150.4,74.4c-0.2-0.1-0.6-0.2-0.9-0.2c-0.9,0-1.8,0.5-1.8,1.9v4.2h-2.9v-9.1h2.9v2h0c0.3-1.4,1.4-2.2,2.6-2.2
		c0.3,0,0.6,0,0.8,0.1L150.4,74.4z"/>
	<path class="st0" d="M160.2,75.3l-1.3,1.3h-4.4c0.1,0.7,1.1,1.6,2.7,1.6c0.9,0,1.9-0.3,2.5-0.7l-0.3,2.5c-0.7,0.4-1.7,0.6-2.9,0.6
		c-2.8,0-5-1.9-5-4.9c0-2.9,2.1-4.8,4.7-4.8c2.5,0,4.1,1.7,4.1,3.6C160.3,74.8,160.3,75.1,160.2,75.3z M156.3,73.1
		c-0.9,0-1.6,0.7-1.8,1.5h3.1c0-0.1,0-0.1,0-0.2C157.6,73.8,157,73.1,156.3,73.1z"/>
	<path class="st0" d="M167.5,80.3v-5.6c0-0.7-0.4-1.2-1.3-1.2c-0.9,0-1.4,0.6-1.4,1.3v5.5h-2.9v-9.1h2.7v1.2h0
		c0.4-1,1.3-1.5,2.8-1.5c2,0,3.2,1.1,3.2,3v6.3H167.5z"/>
	<path class="st0" d="M176.1,84.9c-2.6,0-4.4-1.5-4.4-3.4c0-1.4,0.9-2.2,1.9-2.4l-1.2-1.2c0.1-0.6,0.6-1.1,1.1-1.3
		c-0.7-0.4-1.3-1.3-1.3-2.4c0-1.9,1.4-3.3,3.7-3.3c0.5,0,1,0.1,1.3,0.2c0.4,0.1,0.8,0.2,1.3,0.2c0.5,0,1-0.1,1.4-0.3l0.5,2.2
		c-0.3,0.2-0.7,0.3-1.1,0.3c0.1,0.2,0.2,0.6,0.2,0.9c0,1.5-1.2,2.8-3,2.9c-0.4,0-0.6,0.1-0.6,0.3c0,0.1,0.1,0.2,0.2,0.3l1.4,0.5
		c1.8,0.6,2.7,1.5,2.7,3.2C180.5,83.5,178.8,84.9,176.1,84.9z M176.8,80.7l-1.1-0.3c-0.7,0-1.2,0.5-1.2,1.2c0,0.6,0.5,1.1,1.6,1.1
		c1,0,1.6-0.5,1.6-1C177.7,81.3,177.3,80.8,176.8,80.7z M176,73.1c-0.7,0-1.2,0.5-1.2,1.1c0,0.6,0.5,1.1,1.2,1.1
		c0.6,0,1.2-0.5,1.2-1.1C177.1,73.6,176.6,73.1,176,73.1z"/>
	<path class="st0" d="M188.1,73.6h-2.4V77c0,0.8,0.4,1.1,1.2,1.1c0.3,0,0.5,0,0.8-0.1l-0.3,2.2c-0.3,0.1-0.8,0.2-1.4,0.2
		c-2,0-3.3-1.1-3.3-2.9v-3.9h-1.5v-2.4h1.5v-1.9l2.9-1.1v3h2.9L188.1,73.6z"/>
	<path class="st0" d="M195.4,80.3v-5.6c0-0.7-0.5-1.2-1.4-1.2c-0.9,0-1.4,0.6-1.4,1.3v5.5h-2.9V66.1h2.9v6h0
		c0.5-0.7,1.3-1.1,2.6-1.1c2,0,3.2,1.1,3.2,3v6.3H195.4z"/>
</g>
</svg>
