<?xml version="1.0" encoding="utf-8"?>
<!-- Generator: Adobe Illustrator 22.0.1, SVG Export Plug-In . SVG Version: 6.00 Build 0)  -->
<svg version="1.1" id="Layer_1" xmlns="http://www.w3.org/2000/svg" xmlns:xlink="http://www.w3.org/1999/xlink" x="0px" y="0px"
	 viewBox="0 0 300 250" style="enable-background:new 0 0 300 250;" xml:space="preserve">
<style type="text/css">
	.st0{fill:#F9E13A;}
</style>
<g>
	<path class="st0" d="M30.3,36.3l-1.1-2.9h-4.1l-1.1,2.9h-2.9l5-12.9h2.1l5,12.9H30.3z M27.6,28.6c-0.1-0.3-0.3-0.8-0.4-1.2h0
		c-0.1,0.4-0.2,0.9-0.4,1.2L26,31h2.5L27.6,28.6z"/>
	<path class="st0" d="M40.6,24.7c-0.3-0.1-0.8-0.2-1.2-0.2c-1.1,0-1.6,0.6-1.6,1.9v0.9h2.6l-0.6,2.4h-2v6.7h-2.8v-6.7h-1.4v-2.4h1.4
		v-1.1c0-2.8,1.8-4.1,4.1-4.1c0.8,0,1.7,0.1,2.1,0.3L40.6,24.7z"/>
	<path class="st0" d="M48,24.7c-0.3-0.1-0.8-0.2-1.2-0.2c-1.1,0-1.6,0.6-1.6,1.9v0.9h2.6l-0.6,2.4h-2v6.7h-2.8v-6.7H41v-2.4h1.4
		v-1.1c0-2.8,1.8-4.1,4.1-4.1c0.8,0,1.7,0.1,2.1,0.3L48,24.7z"/>
	<path class="st0" d="M53.2,36.6c-2.7,0-4.9-1.9-4.9-4.8c0-2.9,2.2-4.8,4.9-4.8c2.7,0,4.9,1.9,4.9,4.8
		C58.1,34.6,55.9,36.6,53.2,36.6z M53.2,29.5c-1.1,0-2,1-2,2.3s0.9,2.3,2,2.3c1.1,0,2-1,2-2.3S54.2,29.5,53.2,29.5z"/>
	<path class="st0" d="M65.2,30.4c-0.2-0.1-0.6-0.2-0.9-0.2c-0.9,0-1.8,0.5-1.8,1.9v4.2h-2.9v-9.1h2.9v2h0c0.3-1.4,1.4-2.2,2.6-2.2
		c0.3,0,0.6,0,0.8,0.1L65.2,30.4z"/>
	<path class="st0" d="M73.5,36.3v-1.1h0c-0.5,0.9-1.5,1.4-2.8,1.4c-2.2,0-4.4-1.7-4.4-4.8c0-2.9,2.1-4.8,4.6-4.8
		c1,0,1.9,0.3,2.3,0.6v-5.5h2.9v14.2H73.5z M73.2,30.4c-0.3-0.4-0.9-0.8-1.8-0.8c-1.3,0-2.2,1-2.2,2.3s0.9,2.3,2.2,2.3
		c0.9,0,1.5-0.5,1.8-0.9V30.4z"/>
	<path class="st0" d="M84.4,36.7c-0.5-0.1-1.2-0.5-1.4-1.2c-0.4,0.7-1.3,1.1-2.4,1.1c-1.6,0-3-1.1-3-3c0-1.7,1.3-2.8,3.1-3l1.8-0.2
		v-0.3c0-0.5-0.4-0.9-1.4-0.9c-0.9,0-1.9,0.3-2.5,0.7l-0.5-2.2c0.7-0.5,2-0.8,3.2-0.8c2.4,0,4.1,1.1,4.1,3.3v3
		c0,1.1,0.4,1.6,1.1,1.9L84.4,36.7z M82.5,32.3l-1.1,0.1c-0.8,0.1-1.1,0.6-1.1,1.1c0,0.5,0.4,0.9,0.9,0.9c0.7,0,1.3-0.5,1.3-1.3
		V32.3z"/>
	<path class="st0" d="M91.8,36.6c-1.9,0-3.5-0.7-4.4-1.3V22.1h2.8v5.5c0.4-0.3,1.3-0.6,2.3-0.6c2.5,0,4.6,1.8,4.6,4.6
		C97.2,34.4,95.4,36.6,91.8,36.6z M92.1,29.5c-0.8,0-1.5,0.4-1.8,0.7v3.5c0.3,0.2,0.9,0.4,1.5,0.4c1.5,0,2.4-1,2.4-2.3
		C94.2,30.5,93.4,29.5,92.1,29.5z"/>
	<path class="st0" d="M100.2,26c-0.5,0-1.6-1.1-1.6-1.6c0-0.5,1.1-1.6,1.6-1.6s1.6,1,1.6,1.6C101.7,24.9,100.7,26,100.2,26z
		 M98.7,36.3v-9.1h3v9.1H98.7z"/>
	<path class="st0" d="M106.7,36.7c-1.9-0.1-3.1-1-3.1-3.2V22.1h2.9v11c0,0.7,0.4,1.1,1.2,1.2L106.7,36.7z"/>
	<path class="st0" d="M110.4,26c-0.5,0-1.6-1.1-1.6-1.6c0-0.5,1.1-1.6,1.6-1.6s1.6,1,1.6,1.6C112,24.9,110.9,26,110.4,26z
		 M108.9,36.3v-9.1h3v9.1H108.9z"/>
	<path class="st0" d="M119.8,29.6h-2.4V33c0,0.8,0.4,1.1,1.2,1.1c0.3,0,0.5,0,0.8-0.1l-0.3,2.2c-0.3,0.1-0.8,0.2-1.4,0.2
		c-2,0-3.3-1.1-3.3-2.9v-3.9H113v-2.4h1.5v-1.9l2.9-1.1v3h2.9L119.8,29.6z"/>
	<path class="st0" d="M127.3,35.4c-1.4,3.6-2.8,5-4.5,5.6l-1.8-1.8c1.5-0.6,2.6-1.6,3.3-3.5l-3.3-8.4h2.8l1.3,3.5
		c0.2,0.5,0.4,1.1,0.5,1.8h0c0.2-0.6,0.4-1.3,0.6-1.8l1.3-3.5h2.7L127.3,35.4z"/>
	<path class="st0" d="M142.4,36.7c-0.5-0.1-1.2-0.5-1.4-1.2c-0.4,0.7-1.3,1.1-2.4,1.1c-1.6,0-3-1.1-3-3c0-1.7,1.3-2.8,3.1-3l1.8-0.2
		v-0.3c0-0.5-0.4-0.9-1.4-0.9c-0.9,0-1.9,0.3-2.5,0.7l-0.5-2.2c0.7-0.5,2-0.8,3.2-0.8c2.4,0,4.1,1.1,4.1,3.3v3
		c0,1.1,0.4,1.6,1.1,1.9L142.4,36.7z M140.5,32.3l-1.1,0.1c-0.8,0.1-1.1,0.6-1.1,1.1c0,0.5,0.4,0.9,0.9,0.9c0.7,0,1.3-0.5,1.3-1.3
		V32.3z"/>
	<path class="st0" d="M151.2,36.3v-5.6c0-0.7-0.4-1.2-1.3-1.2c-0.9,0-1.4,0.6-1.4,1.3v5.5h-2.9v-9.1h2.7v1.2h0
		c0.4-1,1.3-1.5,2.8-1.5c2,0,3.2,1.1,3.2,3v6.3H151.2z"/>
	<path class="st0" d="M162.7,36.3v-1.1h0c-0.5,0.9-1.5,1.4-2.8,1.4c-2.2,0-4.4-1.7-4.4-4.8c0-2.9,2.1-4.8,4.6-4.8
		c1,0,1.9,0.3,2.3,0.6v-5.5h2.9v14.2H162.7z M162.5,30.4c-0.3-0.4-0.9-0.8-1.8-0.8c-1.3,0-2.2,1-2.2,2.3s0.9,2.3,2.2,2.3
		c0.9,0,1.5-0.5,1.8-0.9V30.4z"/>
	<path class="st0" d="M178.1,36.7c-0.5-0.1-1.2-0.5-1.4-1.2c-0.4,0.7-1.3,1.1-2.4,1.1c-1.6,0-3-1.1-3-3c0-1.7,1.3-2.8,3.1-3l1.8-0.2
		v-0.3c0-0.5-0.4-0.9-1.4-0.9c-0.9,0-1.9,0.3-2.5,0.7l-0.5-2.2c0.7-0.5,2-0.8,3.2-0.8c2.4,0,4.1,1.1,4.1,3.3v3
		c0,1.1,0.4,1.6,1.1,1.9L178.1,36.7z M176.2,32.3l-1.1,0.1c-0.8,0.1-1.1,0.6-1.1,1.1c0,0.5,0.4,0.9,0.9,0.9c0.7,0,1.3-0.5,1.3-1.3
		V32.3z"/>
	<path class="st0" d="M186.9,36.3v-5.6c0-0.7-0.4-1.2-1.3-1.2c-0.9,0-1.4,0.6-1.4,1.3v5.5h-2.9v-9.1h2.7v1.2h0
		c0.4-1,1.3-1.5,2.8-1.5c2,0,3.2,1.1,3.2,3v6.3H186.9z"/>
	<path class="st0" d="M204.4,31.3l-1.3,1.3h-4.4c0.1,0.7,1.1,1.6,2.7,1.6c0.9,0,1.9-0.3,2.5-0.7l-0.3,2.5c-0.7,0.4-1.7,0.6-2.9,0.6
		c-2.8,0-5-1.9-5-4.9c0-2.9,2.1-4.8,4.7-4.8c2.5,0,4.1,1.7,4.1,3.6C204.5,30.8,204.5,31.1,204.4,31.3z M200.4,29.1
		c-0.9,0-1.6,0.7-1.8,1.5h3.1c0-0.1,0-0.1,0-0.2C201.8,29.8,201.2,29.1,200.4,29.1z"/>
	<path class="st0" d="M212.2,36.7c-0.5-0.1-1.2-0.5-1.4-1.2c-0.4,0.7-1.3,1.1-2.4,1.1c-1.6,0-3-1.1-3-3c0-1.7,1.3-2.8,3.1-3l1.8-0.2
		v-0.3c0-0.5-0.4-0.9-1.4-0.9c-0.9,0-1.9,0.3-2.5,0.7l-0.5-2.2c0.7-0.5,2-0.8,3.2-0.8c2.4,0,4.1,1.1,4.1,3.3v3
		c0,1.1,0.4,1.6,1.1,1.9L212.2,36.7z M210.4,32.3l-1.1,0.1c-0.8,0.1-1.1,0.6-1.1,1.1c0,0.5,0.4,0.9,0.9,0.9c0.7,0,1.3-0.5,1.3-1.3
		V32.3z"/>
	<path class="st0" d="M218.2,36.5c-1.2,0-2.1-0.3-2.9-0.6l-0.3-2.6c0.8,0.6,1.8,1,2.8,1c0.5,0,0.9-0.3,0.9-0.6
		c0-0.4-0.3-0.5-0.8-0.7c-1.7-0.5-2.8-1.4-2.8-3c0-1.8,1.4-2.9,3.4-2.9c1.1,0,2.2,0.3,2.7,0.5l-0.5,2.2c-0.4-0.2-1.2-0.5-1.9-0.5
		c-0.5,0-0.8,0.2-0.8,0.6c0,0.3,0.2,0.5,0.8,0.7c2,0.5,2.9,1.6,2.9,3.1C221.8,35.1,220.7,36.5,218.2,36.5z"/>
	<path class="st0" d="M228.6,35.4c-1.4,3.6-2.8,5-4.5,5.6l-1.8-1.8c1.5-0.6,2.6-1.6,3.3-3.5l-3.3-8.4h2.8l1.3,3.5
		c0.2,0.5,0.4,1.1,0.5,1.8h0c0.2-0.6,0.4-1.3,0.6-1.8l1.3-3.5h2.7L228.6,35.4z"/>
</g>
<g>
	<path class="st0" d="M28.3,58.7c-0.5-0.1-1.2-0.5-1.4-1.2c-0.4,0.7-1.3,1.1-2.4,1.1c-1.6,0-3-1.1-3-3c0-1.7,1.3-2.8,3.1-3l1.8-0.2
		v-0.3c0-0.5-0.4-0.9-1.4-0.9c-0.9,0-1.9,0.3-2.5,0.7L22,49.7c0.7-0.5,2-0.8,3.2-0.8c2.4,0,4.1,1.1,4.1,3.3v3c0,1.1,0.4,1.6,1.1,1.9
		L28.3,58.7z M26.4,54.3l-1.1,0.1c-0.8,0.1-1.1,0.6-1.1,1.1c0,0.5,0.4,0.9,0.9,0.9c0.7,0,1.3-0.5,1.3-1.3V54.3z"/>
	<path class="st0" d="M36.5,58.6c-1,0-1.9-0.3-2.3-0.6v5h-2.9V49.2h2.6v1.1h0c0.5-0.9,1.5-1.4,2.8-1.4c2.2,0,4.4,1.7,4.4,4.8
		C41.1,56.7,39,58.6,36.5,58.6z M36,51.5c-0.9,0-1.5,0.5-1.8,0.9v2.8c0.3,0.4,0.9,0.8,1.8,0.8c1.3,0,2.2-1,2.2-2.3
		S37.3,51.5,36,51.5z"/>
	<path class="st0" d="M47.8,58.6c-1,0-1.9-0.3-2.3-0.6v5h-2.9V49.2h2.6v1.1h0c0.5-0.9,1.5-1.4,2.8-1.4c2.2,0,4.4,1.7,4.4,4.8
		C52.4,56.7,50.3,58.6,47.8,58.6z M47.3,51.5c-0.9,0-1.5,0.5-1.8,0.9v2.8c0.3,0.4,0.9,0.8,1.8,0.8c1.3,0,2.2-1,2.2-2.3
		S48.5,51.5,47.3,51.5z"/>
	<path class="st0" d="M57,58.7c-1.9-0.1-3.1-1-3.1-3.2V44.1h2.9v11c0,0.7,0.4,1.1,1.2,1.2L57,58.7z"/>
	<path class="st0" d="M60.7,48c-0.5,0-1.6-1.1-1.6-1.6c0-0.5,1.1-1.6,1.6-1.6s1.6,1,1.6,1.6C62.3,46.9,61.2,48,60.7,48z M59.2,58.3
		v-9.1h3v9.1H59.2z"/>
	<path class="st0" d="M70.9,52.2c-0.6-0.4-1.2-0.6-1.9-0.6c-1.3,0-2.3,0.9-2.3,2.2c0,1.3,1,2.2,2.4,2.2c0.8,0,1.3-0.2,2-0.5
		l-0.3,2.5c-0.6,0.3-1.4,0.4-2.2,0.4c-2.5,0-4.9-1.8-4.9-4.7c0-3,2.4-4.7,4.8-4.7c1.2,0,2.2,0.2,3,0.7L70.9,52.2z"/>
	<path class="st0" d="M79.2,58.7c-0.5-0.1-1.2-0.5-1.4-1.2c-0.4,0.7-1.3,1.1-2.4,1.1c-1.6,0-3-1.1-3-3c0-1.7,1.3-2.8,3.1-3l1.8-0.2
		v-0.3c0-0.5-0.4-0.9-1.4-0.9c-0.9,0-1.9,0.3-2.5,0.7l-0.5-2.2c0.7-0.5,2-0.8,3.2-0.8c2.4,0,4.1,1.1,4.1,3.3v3
		c0,1.1,0.4,1.6,1.1,1.9L79.2,58.7z M77.4,54.3l-1.1,0.1c-0.8,0.1-1.1,0.6-1.1,1.1c0,0.5,0.4,0.9,0.9,0.9c0.7,0,1.3-0.5,1.3-1.3
		V54.3z"/>
	<path class="st0" d="M88.2,51.6h-2.4V55c0,0.8,0.4,1.1,1.2,1.1c0.3,0,0.5,0,0.8-0.1l-0.3,2.2c-0.3,0.1-0.8,0.2-1.4,0.2
		c-2,0-3.3-1.1-3.3-2.9v-3.9h-1.5v-2.4h1.5v-1.9l2.9-1.1v3h2.9L88.2,51.6z"/>
	<path class="st0" d="M91.3,48c-0.5,0-1.6-1.1-1.6-1.6c0-0.5,1.1-1.6,1.6-1.6s1.6,1,1.6,1.6C92.9,46.9,91.8,48,91.3,48z M89.8,58.3
		v-9.1h3v9.1H89.8z"/>
	<path class="st0" d="M99.2,58.6c-2.7,0-4.9-1.9-4.9-4.8c0-2.9,2.2-4.8,4.9-4.8c2.7,0,4.9,1.9,4.9,4.8
		C104.1,56.6,101.9,58.6,99.2,58.6z M99.2,51.5c-1.1,0-2,1-2,2.3s0.9,2.3,2,2.3c1.1,0,2-1,2-2.3S100.3,51.5,99.2,51.5z"/>
	<path class="st0" d="M111.3,58.3v-5.6c0-0.7-0.4-1.2-1.3-1.2c-0.9,0-1.4,0.6-1.4,1.3v5.5h-2.9v-9.1h2.7v1.2h0
		c0.4-1,1.3-1.5,2.8-1.5c2,0,3.2,1.1,3.2,3v6.3H111.3z"/>
	<path class="st0" d="M126.9,46.7c-0.3-0.1-0.8-0.2-1.2-0.2c-1.1,0-1.6,0.6-1.6,1.9v0.9h2.6l-0.6,2.4h-2v6.7h-2.8v-6.7h-1.4v-2.4
		h1.4v-1.1c0-2.8,1.8-4.1,4.1-4.1c0.8,0,1.7,0.1,2.1,0.3L126.9,46.7z"/>
	<path class="st0" d="M132,58.6c-2.7,0-4.9-1.9-4.9-4.8c0-2.9,2.2-4.8,4.9-4.8c2.7,0,4.9,1.9,4.9,4.8
		C136.9,56.6,134.7,58.6,132,58.6z M132,51.5c-1.1,0-2,1-2,2.3s0.9,2.3,2,2.3c1.1,0,2-1,2-2.3S133.1,51.5,132,51.5z"/>
	<path class="st0" d="M144,52.4c-0.2-0.1-0.6-0.2-0.9-0.2c-0.9,0-1.8,0.5-1.8,1.9v4.2h-2.9v-9.1h2.9v2h0c0.3-1.4,1.4-2.2,2.6-2.2
		c0.3,0,0.6,0,0.8,0.1L144,52.4z"/>
	<path class="st0" d="M156.3,51.6H154V55c0,0.8,0.4,1.1,1.2,1.1c0.3,0,0.5,0,0.8-0.1l-0.3,2.2c-0.3,0.1-0.8,0.2-1.4,0.2
		c-2,0-3.3-1.1-3.3-2.9v-3.9h-1.5v-2.4h1.5v-1.9l2.9-1.1v3h2.9L156.3,51.6z"/>
	<path class="st0" d="M166,53.3l-1.3,1.3h-4.4c0.1,0.7,1.1,1.6,2.7,1.6c0.9,0,1.9-0.3,2.5-0.7l-0.3,2.5c-0.7,0.4-1.7,0.6-2.9,0.6
		c-2.8,0-5-1.9-5-4.9c0-2.9,2.1-4.8,4.7-4.8c2.5,0,4.1,1.7,4.1,3.6C166.1,52.8,166.1,53.1,166,53.3z M162.1,51.1
		c-0.9,0-1.6,0.7-1.8,1.5h3.1c0-0.1,0-0.1,0-0.2C163.4,51.8,162.8,51.1,162.1,51.1z"/>
	<path class="st0" d="M173.2,52.4c-0.2-0.1-0.6-0.2-0.9-0.2c-0.9,0-1.8,0.5-1.8,1.9v4.2h-2.9v-9.1h2.9v2h0c0.3-1.4,1.4-2.2,2.6-2.2
		c0.3,0,0.6,0,0.8,0.1L173.2,52.4z"/>
	<path class="st0" d="M186.1,58.3v-5.6c0-0.7-0.3-1.2-1.3-1.2c-0.9,0-1.4,0.6-1.4,1.3v5.5h-2.9v-5.6c0-0.7-0.3-1.2-1.3-1.2
		c-0.9,0-1.4,0.6-1.4,1.3v5.5h-2.9v-9.1h2.7v1.2h0c0.4-1,1.3-1.5,2.7-1.5c1.3,0,2.3,0.5,2.7,1.5c0.4-0.9,1.4-1.5,2.8-1.5
		c2.1,0,3.2,1.1,3.2,3v6.3H186.1z"/>
	<path class="st0" d="M198.5,58.7c-1.9-0.1-3.1-1-3.1-3.2V44.1h2.9v11c0,0.7,0.4,1.1,1.2,1.2L198.5,58.7z"/>
	<path class="st0" d="M202.2,48c-0.5,0-1.6-1.1-1.6-1.6c0-0.5,1.1-1.6,1.6-1.6c0.5,0,1.6,1,1.6,1.6C203.8,46.9,202.7,48,202.2,48z
		 M200.7,58.3v-9.1h3v9.1H200.7z"/>
	<path class="st0" d="M211.9,46.7c-0.3-0.1-0.8-0.2-1.2-0.2c-1.1,0-1.6,0.6-1.6,1.9v0.9h2.6l-0.6,2.4h-2v6.7h-2.8v-6.7h-1.4v-2.4
		h1.4v-1.1c0-2.8,1.8-4.1,4.1-4.1c0.8,0,1.7,0.1,2.1,0.3L211.9,46.7z"/>
	<path class="st0" d="M220.8,53.3l-1.3,1.3h-4.4c0.1,0.7,1.1,1.6,2.7,1.6c0.9,0,1.9-0.3,2.5-0.7L220,58c-0.7,0.4-1.7,0.6-2.9,0.6
		c-2.8,0-5-1.9-5-4.9c0-2.9,2.1-4.8,4.7-4.8c2.5,0,4.1,1.7,4.1,3.6C220.9,52.8,220.9,53.1,220.8,53.3z M216.8,51.1
		c-0.9,0-1.6,0.7-1.8,1.5h3.1c0-0.1,0-0.1,0-0.2C218.2,51.8,217.6,51.1,216.8,51.1z"/>
</g>
<g>
	<path class="st0" d="M23.5,70c-0.5,0-1.6-1.1-1.6-1.6c0-0.5,1.1-1.6,1.6-1.6s1.6,1,1.6,1.6C25,68.9,24,70,23.5,70z M22,80.3v-9.1h3
		v9.1H22z"/>
	<path class="st0" d="M32.6,80.3v-5.6c0-0.7-0.4-1.2-1.3-1.2c-0.9,0-1.4,0.6-1.4,1.3v5.5h-2.9v-9.1h2.7v1.2h0c0.4-1,1.3-1.5,2.8-1.5
		c2,0,3.2,1.1,3.2,3v6.3H32.6z"/>
	<path class="st0" d="M40.3,80.5c-1.2,0-2.1-0.3-2.9-0.6l-0.3-2.6c0.8,0.6,1.8,1,2.8,1c0.5,0,0.9-0.3,0.9-0.6c0-0.4-0.3-0.5-0.8-0.7
		c-1.7-0.5-2.8-1.4-2.8-3c0-1.8,1.4-2.9,3.4-2.9c1.1,0,2.2,0.3,2.7,0.5l-0.5,2.2c-0.4-0.2-1.2-0.5-1.9-0.5c-0.5,0-0.8,0.2-0.8,0.6
		c0,0.3,0.2,0.5,0.8,0.7c2,0.5,2.9,1.6,2.9,3.1C43.9,79.1,42.7,80.5,40.3,80.5z"/>
	<path class="st0" d="M51.3,80.3v-1.2h0c-0.4,1-1.3,1.5-2.8,1.5c-2,0-3.2-1.1-3.2-3v-6.3h2.9v5.6c0,0.7,0.5,1.2,1.4,1.2
		c0.9,0,1.4-0.6,1.4-1.3v-5.5h2.9v9.1H51.3z"/>
	<path class="st0" d="M61.5,74.4c-0.2-0.1-0.6-0.2-0.9-0.2c-0.9,0-1.8,0.5-1.8,1.9v4.2h-2.9v-9.1h2.9v2h0c0.3-1.4,1.4-2.2,2.6-2.2
		c0.3,0,0.6,0,0.8,0.1L61.5,74.4z"/>
	<path class="st0" d="M69.5,80.7c-0.5-0.1-1.2-0.5-1.4-1.2c-0.4,0.7-1.3,1.1-2.4,1.1c-1.6,0-3-1.1-3-3c0-1.7,1.3-2.8,3.1-3l1.8-0.2
		v-0.3c0-0.5-0.4-0.9-1.4-0.9c-0.9,0-1.9,0.3-2.5,0.7l-0.5-2.2c0.7-0.5,2-0.8,3.2-0.8c2.4,0,4.1,1.1,4.1,3.3v3
		c0,1.1,0.4,1.6,1.1,1.9L69.5,80.7z M67.6,76.3l-1.1,0.1c-0.8,0.1-1.1,0.6-1.1,1.1c0,0.5,0.4,0.9,0.9,0.9c0.7,0,1.3-0.5,1.3-1.3
		V76.3z"/>
	<path class="st0" d="M78.3,80.3v-5.6c0-0.7-0.4-1.2-1.3-1.2c-0.9,0-1.4,0.6-1.4,1.3v5.5h-2.9v-9.1h2.7v1.2h0c0.4-1,1.3-1.5,2.8-1.5
		c2,0,3.2,1.1,3.2,3v6.3H78.3z"/>
	<path class="st0" d="M90,74.2c-0.6-0.4-1.2-0.6-1.9-0.6c-1.3,0-2.3,0.9-2.3,2.2c0,1.3,1,2.2,2.4,2.2c0.8,0,1.3-0.2,2-0.5l-0.3,2.5
		c-0.6,0.3-1.4,0.4-2.2,0.4c-2.5,0-4.9-1.8-4.9-4.7c0-3,2.4-4.7,4.8-4.7c1.2,0,2.2,0.2,3,0.7L90,74.2z"/>
	<path class="st0" d="M100.1,75.3l-1.3,1.3h-4.4c0.1,0.7,1.1,1.6,2.7,1.6c0.9,0,1.9-0.3,2.5-0.7L99.2,80c-0.7,0.4-1.7,0.6-2.9,0.6
		c-2.8,0-5-1.9-5-4.9c0-2.9,2.1-4.8,4.7-4.8c2.5,0,4.1,1.7,4.1,3.6C100.2,74.8,100.1,75.1,100.1,75.3z M96.1,73.1
		c-0.9,0-1.6,0.7-1.8,1.5h3.1c0-0.1,0-0.1,0-0.2C97.4,73.8,96.9,73.1,96.1,73.1z"/>
	<path class="st0" d="M105.2,76.7v-1.8h20v1.8H105.2z"/>
	<path class="st0" d="M133.5,80.5c-1.2,0-2.1-0.3-2.9-0.6l-0.3-2.6c0.8,0.6,1.8,1,2.8,1c0.5,0,0.9-0.3,0.9-0.6
		c0-0.4-0.3-0.5-0.8-0.7c-1.7-0.5-2.8-1.4-2.8-3c0-1.8,1.4-2.9,3.4-2.9c1.1,0,2.2,0.3,2.7,0.5l-0.5,2.2c-0.4-0.2-1.2-0.5-1.9-0.5
		c-0.5,0-0.8,0.2-0.8,0.6c0,0.3,0.2,0.5,0.8,0.7c2,0.5,2.9,1.6,2.9,3.1C137.1,79.1,136,80.5,133.5,80.5z"/>
	<path class="st0" d="M144.9,80.7c-0.5-0.1-1.2-0.5-1.4-1.2c-0.4,0.7-1.3,1.1-2.4,1.1c-1.6,0-3-1.1-3-3c0-1.7,1.3-2.8,3.1-3l1.8-0.2
		v-0.3c0-0.5-0.4-0.9-1.4-0.9c-0.9,0-1.9,0.3-2.5,0.7l-0.5-2.2c0.7-0.5,2-0.8,3.2-0.8c2.4,0,4.1,1.1,4.1,3.3v3
		c0,1.1,0.4,1.6,1.1,1.9L144.9,80.7z M143,76.3l-1.1,0.1c-0.8,0.1-1.1,0.6-1.1,1.1c0,0.5,0.4,0.9,0.9,0.9c0.7,0,1.3-0.5,1.3-1.3
		V76.3z"/>
	<path class="st0" d="M153.1,79.4c-1.4,3.6-2.8,5-4.5,5.6l-1.8-1.8c1.5-0.6,2.6-1.6,3.3-3.5l-3.3-8.4h2.8l1.3,3.5
		c0.2,0.5,0.4,1.1,0.5,1.8h0c0.2-0.6,0.4-1.3,0.6-1.8l1.3-3.5h2.7L153.1,79.4z"/>
	<path class="st0" d="M159.8,80.5c-1.2,0-2.1-0.3-2.9-0.6l-0.3-2.6c0.8,0.6,1.8,1,2.8,1c0.5,0,0.9-0.3,0.9-0.6
		c0-0.4-0.3-0.5-0.8-0.7c-1.7-0.5-2.8-1.4-2.8-3c0-1.8,1.4-2.9,3.4-2.9c1.1,0,2.2,0.3,2.7,0.5l-0.5,2.2c-0.4-0.2-1.2-0.5-1.9-0.5
		c-0.5,0-0.8,0.2-0.8,0.6c0,0.3,0.2,0.5,0.8,0.7c2,0.5,2.9,1.6,2.9,3.1C163.4,79.1,162.3,80.5,159.8,80.5z"/>
	<path class="st0" d="M174.9,74.4c-0.2-0.1-0.6-0.2-0.9-0.2c-0.9,0-1.8,0.5-1.8,1.9v4.2h-2.9v-9.1h2.9v2h0c0.3-1.4,1.4-2.2,2.6-2.2
		c0.3,0,0.6,0,0.8,0.1L174.9,74.4z"/>
	<path class="st0" d="M184.8,75.3l-1.3,1.3H179c0.1,0.7,1.1,1.6,2.7,1.6c0.9,0,1.9-0.3,2.5-0.7l-0.3,2.5c-0.7,0.4-1.7,0.6-2.9,0.6
		c-2.8,0-5-1.9-5-4.9c0-2.9,2.1-4.8,4.7-4.8c2.5,0,4.1,1.7,4.1,3.6C184.9,74.8,184.8,75.1,184.8,75.3z M180.8,73.1
		c-0.9,0-1.6,0.7-1.8,1.5h3.1c0-0.1,0-0.1,0-0.2C182.1,73.8,181.6,73.1,180.8,73.1z"/>
	<path class="st0" d="M191,80.4h-2.2l-3.5-9.1h2.8l1.3,3.5c0.2,0.5,0.4,1.2,0.5,1.8h0c0.1-0.6,0.3-1.3,0.5-1.8l1.3-3.5h2.7L191,80.4
		z"/>
	<path class="st0" d="M197,70c-0.5,0-1.6-1.1-1.6-1.6c0-0.5,1.1-1.6,1.6-1.6c0.5,0,1.6,1,1.6,1.6C198.6,68.9,197.6,70,197,70z
		 M195.6,80.3v-9.1h3v9.1H195.6z"/>
	<path class="st0" d="M208.7,75.3l-1.3,1.3H203c0.1,0.7,1.1,1.6,2.7,1.6c0.9,0,1.9-0.3,2.5-0.7l-0.3,2.5c-0.7,0.4-1.7,0.6-2.9,0.6
		c-2.8,0-5-1.9-5-4.9c0-2.9,2.1-4.8,4.7-4.8c2.5,0,4.1,1.7,4.1,3.6C208.8,74.8,208.8,75.1,208.7,75.3z M204.7,73.1
		c-0.9,0-1.6,0.7-1.8,1.5h3.1c0-0.1,0-0.1,0-0.2C206.1,73.8,205.5,73.1,204.7,73.1z"/>
	<path class="st0" d="M219.9,80.4h-2l-1.2-3.6c-0.2-0.6-0.4-1.2-0.5-1.9h0c-0.1,0.7-0.3,1.3-0.5,1.9l-1.2,3.6h-1.9l-3.2-9.1h2.7
		l1.1,3.4c0.2,0.5,0.3,1.2,0.4,1.7h0c0.1-0.6,0.3-1.2,0.4-1.7l1.1-3.4h2.2l1.1,3.4c0.2,0.6,0.3,1.2,0.4,1.8h0
		c0.1-0.6,0.3-1.2,0.5-1.8l1.1-3.4h2.5L219.9,80.4z"/>
	<path class="st0" d="M226.8,80.5c-1.2,0-2.1-0.3-2.9-0.6l-0.3-2.6c0.8,0.6,1.8,1,2.8,1c0.5,0,0.9-0.3,0.9-0.6
		c0-0.4-0.3-0.5-0.8-0.7c-1.7-0.5-2.8-1.4-2.8-3c0-1.8,1.4-2.9,3.4-2.9c1.1,0,2.2,0.3,2.7,0.5l-0.5,2.2c-0.4-0.2-1.2-0.5-1.9-0.5
		c-0.5,0-0.8,0.2-0.8,0.6c0,0.3,0.2,0.5,0.8,0.7c2,0.5,2.9,1.6,2.9,3.1C230.4,79.1,229.2,80.5,226.8,80.5z"/>
	<path class="st0" d="M233.2,80.6c-0.5,0-1.7-1.1-1.7-1.7c0-0.5,1.1-1.6,1.7-1.6s1.7,1.1,1.7,1.6C234.9,79.5,233.8,80.6,233.2,80.6z
		"/>
	<path class="st0" d="M243.1,74.2c-0.6-0.4-1.2-0.6-1.9-0.6c-1.3,0-2.3,0.9-2.3,2.2c0,1.3,1,2.2,2.4,2.2c0.8,0,1.3-0.2,2-0.5
		l-0.3,2.5c-0.6,0.3-1.4,0.4-2.2,0.4c-2.5,0-4.9-1.8-4.9-4.7c0-3,2.4-4.7,4.8-4.7c1.2,0,2.2,0.2,3,0.7L243.1,74.2z"/>
	<path class="st0" d="M249.4,80.6c-2.7,0-4.9-1.9-4.9-4.8c0-2.9,2.2-4.8,4.9-4.8c2.7,0,4.9,1.9,4.9,4.8
		C254.4,78.6,252.1,80.6,249.4,80.6z M249.4,73.5c-1.1,0-2,1-2,2.3s0.9,2.3,2,2.3c1.1,0,2-1,2-2.3S250.5,73.5,249.4,73.5z"/>
	<path class="st0" d="M267,80.3v-5.6c0-0.7-0.3-1.2-1.3-1.2c-0.9,0-1.4,0.6-1.4,1.3v5.5h-2.9v-5.6c0-0.7-0.3-1.2-1.3-1.2
		c-0.9,0-1.4,0.6-1.4,1.3v5.5h-2.9v-9.1h2.7v1.2h0c0.4-1,1.3-1.5,2.7-1.5c1.3,0,2.3,0.5,2.7,1.5c0.4-0.9,1.4-1.5,2.8-1.5
		c2.1,0,3.2,1.1,3.2,3v6.3H267z"/>
</g>
</svg>
