<?xml version="1.0" encoding="utf-8"?>
<!-- Generator: Adobe Illustrator 22.1.0, SVG Export Plug-In . SVG Version: 6.00 Build 0)  -->
<svg version="1.1" id="Layer_1" xmlns="http://www.w3.org/2000/svg" xmlns:xlink="http://www.w3.org/1999/xlink" x="0px" y="0px"
	 viewBox="0 0 300 250" style="enable-background:new 0 0 300 250;" xml:space="preserve">
<style type="text/css">
	.st0{fill:#F9E038;}
	.st1{fill:#231F20;}
</style>
<path class="st0" d="M189.1,120c0,0-11.7,0-11.7,11.7v3.1c0,0,0,11.7,11.7,11.7h78.3c0,0,11.7,0,11.7-11.7v-3.1
	c0,0,0-11.7-11.7-11.7H189.1z"/>
<g>
	<path class="st1" d="M200,135.8v1.5h-4.8v-7.6h1.8v6.1H200z"/>
	<path class="st1" d="M202.5,131.2v1.5h2.9v1.4h-2.9v1.7h3.7v1.5h-5.4v-7.6h5.4v1.5H202.5z"/>
	<path class="st1" d="M213.6,137.3h-1.9l-0.5-1.6h-2.5l-0.5,1.6h-1.6l2.4-7.6h2.1L213.6,137.3z M210.8,134.4l-0.8-2.7l-0.8,2.7
		H210.8z"/>
	<path class="st1" d="M216.1,137.3h-1.8v-7.6h3.2c0.7,0,1.4,0,1.9,0.4c0.6,0.4,1,1.2,1,1.9c0,0.9-0.5,1.7-1.3,2l1.4,3.4h-2l-1.2-3
		h-1.3V137.3z M216.1,133h1c0.4,0,0.8,0,1.1-0.2c0.3-0.2,0.4-0.5,0.4-0.9c0-0.3-0.2-0.6-0.4-0.8c-0.3-0.2-0.8-0.1-1.1-0.1h-0.9V133z
		"/>
	<path class="st1" d="M227.4,137.3h-1.5l-2.9-5.1h0v5.1h-1.4v-7.6h1.9l2.5,4.5h0v-4.5h1.4V137.3z"/>
	<path class="st1" d="M236.6,137.3h-1.2l-1.8-6.2h0v6.2H232v-7.6h2.8l1.3,4.6l1.4-4.6h2.8v7.6h-1.8v-6.2h0L236.6,137.3z"/>
	<path class="st1" d="M242.2,136.2c-0.6-0.8-0.8-1.8-0.8-2.7c0-2,1-3.9,3.3-3.9c1,0,1.8,0.3,2.4,1.2c0.5,0.7,0.8,1.8,0.8,2.7
		c0,0.9-0.2,1.9-0.7,2.6c-0.6,0.9-1.5,1.3-2.5,1.3S242.8,137.1,242.2,136.2z M243.5,131.9c-0.2,0.5-0.2,1.1-0.2,1.6
		c0,1,0.1,2.5,1.4,2.5c0.6,0,0.9-0.3,1.1-0.9c0.2-0.5,0.2-1.1,0.2-1.6c0-0.6-0.1-1.2-0.3-1.7c-0.2-0.5-0.5-0.7-1.1-0.7
		C244,131.1,243.7,131.4,243.5,131.9z"/>
	<path class="st1" d="M250.7,137.3H249v-7.6h3.2c0.7,0,1.4,0,1.9,0.4c0.6,0.4,1,1.2,1,1.9c0,0.9-0.5,1.7-1.3,2l1.4,3.4h-2l-1.2-3
		h-1.3V137.3z M250.7,133h1c0.4,0,0.8,0,1.1-0.2c0.3-0.2,0.4-0.5,0.4-0.9c0-0.3-0.2-0.6-0.4-0.8c-0.3-0.2-0.8-0.1-1.1-0.1h-0.9V133z
		"/>
	<path class="st1" d="M257.9,131.2v1.5h2.9v1.4h-2.9v1.7h3.7v1.5h-5.4v-7.6h5.4v1.5H257.9z"/>
</g>
</svg>
