<?xml version="1.0" encoding="utf-8"?>
<!-- Generator: Adobe Illustrator 22.1.0, SVG Export Plug-In . SVG Version: 6.00 Build 0)  -->
<svg version="1.1" id="Layer_1" xmlns="http://www.w3.org/2000/svg" xmlns:xlink="http://www.w3.org/1999/xlink" x="0px" y="0px"
	 viewBox="0 0 300 250" style="enable-background:new 0 0 300 250;" xml:space="preserve">
<style type="text/css">
	.st0{clip-path:url(#SVGID_2_);fill:#FFFFFF;}
	.st1{clip-path:url(#SVGID_4_);fill:url(#SVGID_5_);}
	.st2{clip-path:url(#SVGID_7_);fill:url(#SVGID_8_);}
	.st3{clip-path:url(#SVGID_10_);fill:url(#SVGID_11_);}
	.st4{clip-path:url(#SVGID_13_);fill:url(#SVGID_14_);}
	.st5{clip-path:url(#SVGID_16_);fill:url(#SVGID_17_);}
	.st6{fill:#626366;}
	.st7{fill:#404041;}
	.st8{fill:#808184;}
	.st9{fill:#231F20;}
	.st10{clip-path:url(#SVGID_19_);fill:#404041;}
	.st11{clip-path:url(#SVGID_19_);fill:#EAEBEC;}
	.st12{clip-path:url(#SVGID_19_);fill:#DBDCDD;}
	.st13{clip-path:url(#SVGID_19_);fill:#FFFFFF;}
	.st14{clip-path:url(#SVGID_21_);fill:url(#SVGID_22_);}
	.st15{fill:#005494;}
	.st16{fill:#0081BD;}
	.st17{fill:#FFFFFF;}
</style>
<g>
	<defs>
		<rect id="SVGID_1_" x="22.3" y="103" width="126.4" height="126.4"/>
	</defs>
	<clipPath id="SVGID_2_">
		<use xlink:href="#SVGID_1_"  style="overflow:visible;"/>
	</clipPath>
	<path class="st0" d="M73.8,103c-9.4,0-18.3,3.7-25.1,10.4c-6.7,6.7-10.4,15.6-10.4,24.9v75.2h75c19.6,0,35.5-15.9,35.5-35.5v-75
		H73.8z"/>
</g>
<g>
	<defs>
		<path id="SVGID_3_" d="M113.3,213.5h-75l-15.8,15.8h80.3c6.4-0.7,12.1-3.5,16.5-7.8l11.7-11.7l-0.6-0.6
			C125.3,212,119.5,213.5,113.3,213.5"/>
	</defs>
	<clipPath id="SVGID_4_">
		<use xlink:href="#SVGID_3_"  style="overflow:visible;"/>
	</clipPath>
	
		<linearGradient id="SVGID_5_" gradientUnits="userSpaceOnUse" x1="1.0489" y1="251.0449" x2="2.0489" y2="251.0449" gradientTransform="matrix(0 -20.4333 -20.4333 0 5206.4248 251.1264)">
		<stop  offset="0" style="stop-color:#10B0E6"/>
		<stop  offset="0.1593" style="stop-color:#0FAAE1"/>
		<stop  offset="0.3678" style="stop-color:#0C9AD2"/>
		<stop  offset="0.6035" style="stop-color:#077FBA"/>
		<stop  offset="0.8576" style="stop-color:#015999"/>
		<stop  offset="0.89" style="stop-color:#005494"/>
		<stop  offset="1" style="stop-color:#005494"/>
	</linearGradient>
	<rect x="22.5" y="209.2" class="st1" width="108.5" height="20.2"/>
</g>
<g>
	<defs>
		<path id="SVGID_6_" d="M30.3,132.6c-4.9,5-8,11.9-8,19.5v77.2h0.2l15.8-15.8v-75.2c0-6,1.5-11.7,4.4-16.9l-0.6-0.6L30.3,132.6z"/>
	</defs>
	<clipPath id="SVGID_7_">
		<use xlink:href="#SVGID_6_"  style="overflow:visible;"/>
	</clipPath>
	
		<linearGradient id="SVGID_8_" gradientUnits="userSpaceOnUse" x1="1.0092" y1="251.0092" x2="2.0092" y2="251.0092" gradientTransform="matrix(0 -109.1672 -109.1672 0 27434.4492 340.5742)">
		<stop  offset="0" style="stop-color:#0081BD"/>
		<stop  offset="0.3934" style="stop-color:#006FAC"/>
		<stop  offset="0.85" style="stop-color:#005494"/>
		<stop  offset="1" style="stop-color:#005494"/>
	</linearGradient>
	<rect x="22.3" y="120.8" class="st2" width="20.4" height="108.5"/>
</g>
<g>
	<defs>
		<path id="SVGID_9_" d="M113.3,213.5h-75l-15.8,15.8h80.3c6.4-0.7,12.1-3.5,16.5-7.8l11.7-11.7l-0.6-0.6
			C125.3,212,119.5,213.5,113.3,213.5"/>
	</defs>
	<clipPath id="SVGID_10_">
		<use xlink:href="#SVGID_9_"  style="overflow:visible;"/>
	</clipPath>
	
		<linearGradient id="SVGID_11_" gradientUnits="userSpaceOnUse" x1="0.9907" y1="251.0101" x2="1.9907" y2="251.0101" gradientTransform="matrix(107.5119 0 0 -107.5119 -83.7871 27205.8477)">
		<stop  offset="0" style="stop-color:#10B0E6"/>
		<stop  offset="0.1611" style="stop-color:#0FAAE1"/>
		<stop  offset="0.3719" style="stop-color:#0C9AD2"/>
		<stop  offset="0.6102" style="stop-color:#077FBA"/>
		<stop  offset="0.8672" style="stop-color:#015999"/>
		<stop  offset="0.9" style="stop-color:#005494"/>
		<stop  offset="1" style="stop-color:#005494"/>
	</linearGradient>
	<rect x="22.5" y="209.2" class="st3" width="108.5" height="20.2"/>
</g>
<g>
	<defs>
		<path id="SVGID_12_" d="M30.3,132.6c-4.9,5-8,11.9-8,19.5v77.2h0.2l15.8-15.8v-75.2c0-6,1.5-11.7,4.4-16.9l-0.6-0.6L30.3,132.6z"
			/>
	</defs>
	<clipPath id="SVGID_13_">
		<use xlink:href="#SVGID_12_"  style="overflow:visible;"/>
	</clipPath>
	
		<linearGradient id="SVGID_14_" gradientUnits="userSpaceOnUse" x1="1.0092" y1="251.0092" x2="2.0092" y2="251.0092" gradientTransform="matrix(0 -109.1672 -109.1672 0 27434.4492 340.5742)">
		<stop  offset="0" style="stop-color:#0081BD"/>
		<stop  offset="0.3934" style="stop-color:#006FAC"/>
		<stop  offset="0.85" style="stop-color:#005494"/>
		<stop  offset="1" style="stop-color:#005494"/>
	</linearGradient>
	<rect x="22.3" y="120.8" class="st4" width="20.4" height="108.5"/>
</g>
<g>
	<defs>
		<path id="SVGID_15_" d="M73.8,107.5c-17,0-31,14.1-31,30.9V209h70.5c17.1,0,31-13.9,31-31v-70.5l0,0H73.8z"/>
	</defs>
	<clipPath id="SVGID_16_">
		<use xlink:href="#SVGID_15_"  style="overflow:visible;"/>
	</clipPath>
	
		<linearGradient id="SVGID_17_" gradientUnits="userSpaceOnUse" x1="1" y1="251.01" x2="2" y2="251.01" gradientTransform="matrix(101.2846 -101.2846 -101.2846 -101.2846 25365.2793 25733.4531)">
		<stop  offset="0" style="stop-color:#9CDBF8"/>
		<stop  offset="1" style="stop-color:#0088CF"/>
	</linearGradient>
	<polygon class="st5" points="-7.9,158.3 93.6,56.8 195.1,158.3 93.6,259.8 	"/>
</g>
<polygon class="st6" points="128.9,190.5 86.8,190.5 77.4,199.8 119.6,199.8 "/>
<polygon class="st7" points="126.7,197.8 87.8,197.8 79.7,205.9 118.6,205.9 "/>
<rect x="87.8" y="191.7" class="st8" width="38.9" height="6"/>
<polygon class="st9" points="77.4,193.8 77.4,199.8 86.8,190.5 87.2,184 "/>
<g>
	<defs>
		<rect id="SVGID_18_" x="22.3" y="103" width="126.4" height="126.4"/>
	</defs>
	<clipPath id="SVGID_19_">
		<use xlink:href="#SVGID_18_"  style="overflow:visible;"/>
	</clipPath>
	<path class="st10" d="M128.9,185.1c0-0.8-0.7-1.5-1.5-1.5H88.3c-0.8,0-1.5,0.7-1.5,1.5c0,0,0,5.4,0,5.4c0,0,42.2,0,42.2,0V185.1z"
		/>
	<polygon class="st11" points="51.5,194.2 51.8,199.6 75.1,197.9 74.7,192.6 	"/>
	<polygon class="st12" points="51.8,198.2 51.8,199.6 75.1,198 75,196.5 	"/>
	<path class="st13" d="M75.1,198c-0.4,0-0.8-1.2-0.9-2.6c-0.1-1.5,0.2-2.7,0.6-2.7c0.4,0,0.8,1.2,0.9,2.7
		C75.7,196.7,75.5,197.9,75.1,198"/>
</g>
<g>
	<defs>
		<polygon id="SVGID_20_" points="47.6,204.2 38.3,213.5 127.3,213.5 136.6,204.2 		"/>
	</defs>
	<clipPath id="SVGID_21_">
		<use xlink:href="#SVGID_20_"  style="overflow:visible;"/>
	</clipPath>
	
		<linearGradient id="SVGID_22_" gradientUnits="userSpaceOnUse" x1="0.9914" y1="251.0087" x2="1.9914" y2="251.0087" gradientTransform="matrix(115.6361 0 0 -115.6361 -76.5117 29234.5605)">
		<stop  offset="0" style="stop-color:#10B0E6"/>
		<stop  offset="8.680120e-02" style="stop-color:#10B0E6"/>
		<stop  offset="0.3215" style="stop-color:#0D9DD5"/>
		<stop  offset="0.7963" style="stop-color:#046BA9"/>
		<stop  offset="1" style="stop-color:#005494"/>
	</linearGradient>
	<rect x="38.3" y="204.2" class="st14" width="98.3" height="9.3"/>
</g>
<rect x="47.6" y="197.3" class="st15" width="89" height="6.9"/>
<polygon class="st16" points="47.6,197.3 38.3,206.6 38.3,213.6 47.6,204.2 "/>
<g>
	<path class="st17" d="M59.7,131.6h0.1c0,0.3,0.1,0.4,0.2,0.4l0.8,0c0-0.2,0.1-0.3,0.3-0.3c0.1,0.1,0.2,0.1,0.3,0.1l-0.1,0.2h0.1
		c0.3-0.2,0.6-0.3,0.9-0.3l0,0.3c-0.3,0-0.4,0.1-0.4,0.2v0.1c0.3,0,0.8,0.1,1.5,0.4l1.2-0.1c0.1,0,0.2-0.1,0.3-0.3
		c0.2,0.1,0.4,0.2,0.6,0.4l1.3-0.3h0.3c0.7,0.2,1,0.4,1,0.5c-0.1,0-0.2,0.1-0.4,0.4l0,0.1l0.1,0.5l0.5-0.1L69,134
		c0.1,0.3,0.1,0.5,0.1,0.6c-0.1,0-0.2,0.1-0.2,0.2l0.4,0.4L69,136v0.1h0.1l0.4-0.3l0.1,0.2l0,0.2l-0.4,0.4c0.1,0.1,0.1,0.2,0.1,0.4
		c-0.2,0-0.3,0.3-0.3,0.8c0.1,0.5,0.6,0.7,1.3,0.7c0.4,0.3,0.5,0.6,0.5,0.8c-0.3,0.2-0.5,0.4-0.5,0.6c0.5,0.2,0.8,0.4,0.9,0.4v0.1
		c0,0.1-0.1,0.2-0.4,0.2l0.1,0.7v0.2c0,0.1-0.1,0.2-0.2,0.2l0.1,0.2v0.1c0,0.2,0,0.4-0.2,0.6c0.3,0,0.4,0.1,0.4,0.4l0.2,0l0.4-0.4
		h0.1c0.1,0,0.2,0.1,0.2,0.3c-0.1,0.4-0.2,0.7-0.3,0.7l0.1,0.2v0.2c0,0.1,0,0.2-0.2,0.2l0.2,0.7l-0.1,0.2l0.2,1l0.2-0.1h0.2l0,0.3
		c-0.2,0-0.3,0.1-0.3,0.3c0,0.1,0.2,0.3,0.6,0.7c0,0.1-0.4,0.3-1.2,0.6c-0.3,0.5-0.5,0.8-0.5,0.9l0.1,0.2c0,0.3-0.1,0.4-0.2,0.4
		c0.1,0.1,0.1,0.2,0.1,0.3c-0.1,0.3-0.2,0.4-0.3,0.4c-0.2-0.2-0.3-0.4-0.3-0.5c0.1-0.1,0.1-0.2,0.1-0.3c-0.1,0-0.2-0.1-0.3-0.3
		c0.1,0,0.2-0.1,0.2-0.2c0-0.1-0.2-0.2-0.6-0.1l0-0.4c0.4-0.3,0.5-0.6,0.5-0.9c0.5-0.2,0.9-0.5,1.1-0.7v-0.1c-0.1,0-0.3-0.1-0.4-0.3
		c-0.4,0.4-0.7,0.6-1.1,0.7c0,0.2-0.1,0.3-0.3,0.3v0.2l0.2,0.3c-0.2,0.3-0.3,0.5-0.4,0.5c0,0.4,0.3,0.7,0.7,1l0,0.2l-1.2,0.4
		l-0.3-0.2c-1,0.1-1.6,0.3-1.8,0.5h-0.1c-0.1,0-0.1,0-0.1-0.1l-0.2,0.1l-0.6-0.1c0,0.1-0.1,0.2-0.3,0.3h-0.2c0-0.1-0.1-0.3-0.2-0.7
		v-0.1l0.1-0.2c-0.1,0-0.1,0-0.1-0.1c0.6-0.6,1-0.9,0.9-1l-0.2-0.1l-0.2,0l-0.3,0.2l-0.1,0c-0.1,0-0.2-0.1-0.2-0.2
		c0.1,0,0.2-0.1,0.2-0.2c-0.1,0-0.1,0-0.1-0.1l0.2-0.1l-0.1-0.2v-0.2l0.1-0.5c-0.1,0-0.1,0-0.1-0.1l0.2-0.1l-0.1-0.2v-0.2
		c0-0.4,0.2-0.7,0.7-0.7v-0.1l-0.2-0.1L66,145v-0.2l-0.5,0.1l-0.1-0.2c-0.4,0.1-0.7,0.2-0.8,0.2l-0.1-0.5c0-0.2,0.2-0.5,0.6-0.9
		c0,0.1,0,0.1,0.1,0.1c0-0.2,0-0.3,0.2-0.5c-0.1,0-0.3,0-0.4-0.1c0,0.1-0.1,0.2-0.2,0.2h-0.2c-0.1,0-0.2-0.1-0.2-0.2l0-0.6
		c0.1-0.3,0.3-0.4,0.5-0.4l-0.7-0.7c0-0.1,0-0.3-0.1-0.4c0.1-0.1,0.1-0.2,0.1-0.3v-0.1H64c0,0.2-0.2,0.4-0.5,0.6h-0.1
		c-0.4,0-0.8,0-1.4,0c-0.3,0.1-0.5,0.2-0.5,0.3v0.1l0.2,0.3l0.5-0.1l1,0l0.3-0.2c0.3,0.3,0.4,0.5,0.4,0.8c-0.2,0-0.4,0.2-0.6,0.7
		l-0.2,0.1h-0.1c-0.1,0-0.2-0.1-0.3-0.5h-0.1c0,0.3,0,0.5-0.2,0.5l0.1,0.2c-0.2,0.5-0.3,0.8-0.6,0.8l-0.2,0l0.1,0.5l0,0.1h-0.2
		c-0.1,0-0.2,0-0.2-0.2l0.1-0.5c-0.4,0.4-0.8,0.6-1.3,0.6l0,0.2c0.2,0,0.3,0,0.3,0.2l0.4-0.2c0.2,0.1,0.4,0.2,0.6,0.2v0.2
		c0,0.1-0.1,0.2-0.3,0.3l0.1,0.2c-0.2,0.3-0.3,0.6-0.3,0.9c0.1,0.1,0.1,0.2,0.1,0.3l-0.4,0.3c-0.1,0-0.2-0.1-0.2-0.2l0-0.5l-0.4-0.1
		l-0.5,0.8c0.1,0,0.4,0.2,0.9,0.6l-0.5,1.5c-0.7,0.3-1.1,0.5-1.1,0.6v0.1c0.2,0,0.3,0,0.3,0.2c0,0.1-0.1,0.2-0.4,0.2l0,0.4
		c0.2,0.1,0.3,0.6,0.5,1.3c0.1,0,0.4-0.2,0.9-0.7h0.1l0.3,0.2h0.1c0.8,0,1.4-0.3,2-0.7c0.2,0.1,0.4,0.2,0.5,0.2
		c0-0.1,0.1-0.2,0.2-0.2c0.1,0,0.1,0,0.1,0.1c0.4-0.2,0.7-0.3,0.9-0.3l0.4,0.4l0.6-0.4l0.2,0v0.4l0.1,0c0.4-0.3,0.6-0.6,0.5-0.8
		c-0.1,0-0.1,0-0.1-0.1l0.1,0l0.5,0.3l0.5-0.1c0.6,0,0.9,0,1,0c0-0.2,0-0.3,0.2-0.3l0.4,0.5H69c1-0.2,1.6-0.3,1.8-0.5l0.1,0.2
		l-0.1,0.2l0.2,0c0-0.1,0.1-0.3,0.4-0.6l-0.1-0.2v-0.1c0.1-0.3,0.3-0.4,0.5-0.4l-0.1-0.2c0.4-0.8,0.8-1.2,1.2-1.2l0.2,0.1l-0.1,0.2
		c0,0.1,0.1,0.3,0.2,0.5c-0.1,0.1-0.3,0.1-0.5,0.1l0,0.5l-0.1,0.5l0.9,0.4h-0.1c0.2,0.4,0.2,0.6,0.2,0.8c0,0.2-0.1,0.5-0.3,0.9
		l0.1,0.6h-0.1l0.1,0.2v0.2c0,0.1,0,0.3-0.1,0.4c0.1,0.1,0.1,0.2,0.1,0.3c-1,0.5-1.5,0.7-1.5,0.7c-0.1-0.1-0.2-0.1-0.3-0.1l0,0.5
		l0.5,0.1c0.1,0,0.5-0.3,1.2-0.9h0.2c0.3,0.1,0.5,0.2,0.5,0.4l-0.3,0.5c0.3,0,0.5,0.1,0.5,0.3l0,0.4c-0.3,0.3-0.4,0.5-0.4,0.5
		l0.3,0.4c-0.1,0.1-0.1,0.2-0.1,0.4h0.2c0-0.3,0-0.4,0.2-0.4h0.1c0.3,0.2,0.5,0.4,0.6,0.4v0.2c0,0.1,0,0.2-0.2,0.2l-0.2,0l-0.4-0.3
		h-0.1v0.2c0.5,0.3,0.7,0.5,0.7,0.6c-0.1,0.1-0.1,0.2-0.1,0.3c0.1,0,0.2,0.1,0.4,0.4v0.1c0,0.1-0.2,0.3-0.5,0.4
		c0-0.1-0.1-0.2-0.2-0.2c-0.1,0-0.2,0.1-0.2,0.2v0.1c0.8,0.5,1.3,0.8,1.4,1v0.1c-0.5,0.4-0.8,0.6-0.9,0.6v0.2l0.4,0l0.3-0.2h0.1v0.2
		h-0.2l0,0.1l0.4,0.4c-0.1,0-0.2,0.1-0.2,0.2c0.2,0,0.3,0.1,0.3,0.2l-0.9,0.5c0,0.1,0,0.1-0.1,0.1h-0.2l-0.6-0.3l-0.1,0.2
		c0.1,0,0.2,0.1,0.3,0.3l-0.4,0.4l0,0.2c0.2,0,0.3,0.1,0.3,0.5l0.2,0l-0.1-0.2c0.5-0.3,0.7-0.5,0.7-0.6c0.2-0.1,0.5-0.2,0.8-0.2h0.2
		c0.2,0.1,0.3,0.2,0.3,0.5c-0.2,0.2-0.5,0.3-1,0.5v0.2c0,0.1,0.1,0.2,0.2,0.2c0.3-0.2,0.4-0.3,0.6-0.3c0,0.1,0,0.1,0.1,0.1l-0.1,0.2
		v0.2c0.2,0,0.3,0.1,0.3,0.2c-0.1,0.1-0.1,0.2-0.1,0.3c0.1-0.1,0.3-0.1,0.5-0.1l0.1,0.2c-0.1,0.3-0.2,0.4-0.3,0.4l-0.3,0
		c-0.2-0.1-0.3-0.2-0.4-0.2c-0.1,0.1-0.2,0.1-0.3,0.1c0-0.1,0-0.1-0.1-0.1c-0.3,0.2-0.5,0.5-0.5,0.8c0.4,0.3,0.7,0.4,0.9,0.4
		c0-0.2,0.3-0.3,0.8-0.3c0.1,0,0.2,0.1,0.3,0.3v0.1c0,0.1-0.1,0.2-0.3,0.2l0,0.3c0.8,0.3,1.2,0.9,1.3,1.6l0.2,0.3v0.2h-0.1
		c-0.1,0-0.2-0.1-0.2-0.3h-0.1v0.2l-0.2,0l-0.1-0.5c-0.4,0-0.6,0.2-0.7,0.5c0.2,0.4,0.4,0.8,0.7,1.1c-0.1,0-0.3,0.1-0.8,0.2h-0.1
		c-0.1,0-0.3-0.2-0.5-0.5l0.1-0.5c-0.1,0-0.2-0.1-0.4-0.2h-0.3c-0.1,0-0.7,0.2-1.7,0.5l0,0.4c0.3,0.3,0.5,0.4,0.5,0.5
		c-0.2,0.4-0.5,0.7-0.9,0.7l0.1-0.2l0-0.3h-0.2c0,0.3,0,0.5-0.2,0.5h-0.1c-0.1,0-0.3-0.2-0.4-0.4c0.6-0.2,0.9-0.4,0.9-0.4
		c-0.2-0.4-0.3-0.6-0.4-0.5c0,0-0.2,0.2-0.6,0.6l-0.2-0.1c0,0.2-0.2,0.3-0.5,0.5c-0.2-0.1-0.2-0.3-0.3-0.5l-0.7,0
		c0-0.2-0.4-0.6-1.1-1.3v-0.1l0.1-0.2l-0.7-2.2c-0.3-0.3-0.5-0.4-0.6-0.5c0,0.1,0,0.1-0.1,0.1c-0.1-0.1-0.1-0.2-0.1-0.3
		c0-0.2,0.3-0.5,0.9-0.7c-0.1-0.2-0.1-0.3-0.2-0.3c-0.1,0.1-0.2,0.1-0.3,0.1l-0.1-0.2c0-0.1,0.2-0.3,0.7-0.7V163
		c-0.1-0.3-0.2-0.4-0.3-0.4c0,0.1-0.1,0.2-0.2,0.2c-0.1-0.2-0.2-0.3-0.2-0.4l-0.2,0.1l-0.4,0l0-0.2c0.5-0.3,0.7-0.4,0.7-0.5l0-0.1
		l-0.1-0.2c0.1-0.1,0.1-0.2,0.1-0.4V161l-0.3,0.2L69,161c0.1-0.1,0.1-0.2,0.1-0.3l-0.6,0.9l-0.1-0.2l0-0.9l-0.2-0.3
		c0-0.2,0.3-0.3,0.8-0.4H69v0.2l0.3,0c1.8-0.4,2.8-0.8,2.7-1.1l0-0.1l-0.1,0c0,0.1-0.2,0.3-0.5,0.4c-0.3,0-0.4-0.2-0.4-0.5
		c-1.8,0.2-2.7,0.4-2.9,0.6h-0.1c-0.1,0-0.3-0.3-0.4-0.9c0.3-0.4,0.4-0.7,0.4-0.8l-0.2-0.1c0,0.1,0,0.1-0.1,0.1
		c-0.1-0.1-0.1-0.2-0.1-0.3c0-0.2,0.1-0.3,0.3-0.3v-0.1h-0.2v0.1c-0.1-0.1-0.2-0.1-0.4-0.1l0-0.2c0-0.1,0.1-0.2,0.2-0.2h0.1
		c0.3,0.2,0.5,0.3,0.7,0.3l0.1-0.2l-0.3,0v-0.1l0.1-0.2l-0.2,0l0-0.2l0.5,0v-0.1c-0.6,0-1-0.1-1.1,0l0-0.3c0-0.1,0.1-0.2,0.4-0.2
		l-0.1-0.2c0-0.1,0-0.1,0.1-0.1c0-0.1,0-0.1-0.1-0.1l0.1-0.7l0-0.1c0-0.1-0.1-0.2-0.2-0.2l-0.3,0.4c0.1,0,0.1,0,0.1,0.1l-0.2,0.1
		h-0.2c-0.3-0.2-0.5-0.4-0.7-0.3c-0.4,0.1-0.6,0.1-0.8,0.1v-0.1c-0.1,0-0.3,0.2-0.6,0.5h-0.1c-0.1,0-0.1,0-0.1-0.1l-0.4,0.2
		c-0.5-0.1-0.8-0.3-0.8-0.6c0.1,0,0.1,0,0.1-0.1l-0.2-0.1c-0.2,0.5-0.4,0.9-0.4,1.2l0.4,0.2c-0.1,0.4-0.3,0.6-0.5,0.7l-0.7-0.4
		l0-0.1l0.2-0.3c0-0.1-0.1-0.2-0.2-0.2c0,0.1-0.1,0.2-0.3,0.3c-0.6-0.1-0.9-0.4-0.9-0.8c0-0.4-0.1-0.6-0.3-0.7h-0.2v0.1
		c0,0.1,0.1,0.3,0.3,0.5c-0.1,0.6-0.2,1-0.4,1h-0.1c0-0.3-0.2-0.4-0.4-0.4v-0.3c0.2-0.3,0.3-0.5,0.3-0.7l-0.6-0.3
		c-0.1,0-0.3,0.2-0.5,0.5c-0.3-0.1-0.4-0.2-0.4-0.3c-0.2,0.1-0.3,0.1-0.4,0.1l-0.6-0.1c0,0.1,0,0.1-0.1,0.1c0-0.1-0.1-0.2-0.2-0.2
		c-0.1,0.3-0.3,0.4-0.6,0.4l0,0.1l0.2,0.3c0,0.8-0.6,1.6-1.9,2.3c-0.1-0.1-0.3-0.1-0.4-0.1v0.1c0.1,0.1,0.1,0.2,0.1,0.3l0.3-0.2
		l0.2,0c0.1,0,0.2,0.1,0.3,0.3c-0.3,0.5-0.5,0.8-0.8,0.8l0,0.5H55v0.1c0,0.1-0.1,0.2-0.3,0.3l-0.2-0.1c0,0.2-0.1,0.3-0.4,0.3l0,0.6
		c-0.4,0.3-0.6,0.6-0.5,0.7c0.1,0,0.1,0,0.3,0.1c-0.1,0.1-0.1,0.2-0.1,0.3l-0.2-0.1c0,0.7-0.3,1.3-1.1,1.8l0.1,0.2
		c0,0.3-0.6,1.3-1.9,3.1l-1-0.1c0,0.1-0.1,0.2-0.2,0.2l-0.5,0c-0.2-0.1-0.9-0.4-2-1c-0.3,0-0.8-0.3-1.5-1c-0.4,0-0.8-0.2-1.2-0.6
		l1.4-3.5c-0.1-0.1-0.1-0.2-0.1-0.3c0.2,0,0.4-0.4,0.6-1.3l0.3,0L47,159c0-1.1,0.3-1.6,0.9-1.6c0-0.1,0-0.2,0.1-0.3l-0.1-0.6l0-0.2
		c0.1-0.3,0.7-0.5,1.8-0.8h0.1l0-0.5h-0.2c0,0.3,0,0.4-0.2,0.4l-0.2,0c-0.1,0-0.2-0.1-0.4-0.4l0.3-0.2l0.2,0.1l0.1-0.2l-0.2-0.3
		v-0.1c0.3-0.4,0.7-0.8,1.2-1l0.4,0l0,0.2c-0.3,0-0.4,0.1-0.4,0.2l0.3,0l0.7-0.2l0-0.4l-0.1,0c-0.1,0.1-0.2,0.1-0.3,0.1
		c0-0.2-0.2-0.2-0.5-0.3c-0.1,0.1-0.2,0.1-0.3,0.1l-0.1-0.2c0.4-0.7,0.8-1.2,1.1-1.4l-0.1-0.5c0.1-0.5,0.3-0.8,0.3-0.8
		c0.1,0,0.2,0.3,0.4,0.8c-0.1,0.1-0.1,0.2-0.1,0.3c0.1,0.1,0.1,0.2,0.1,0.3c0.1,0,0.2-0.1,0.2-0.3c-0.1-0.1-0.1-0.2-0.1-0.3
		c0.1-0.1,0.2-0.1,0.4-0.1l0-0.2c-0.5-0.5-0.8-0.8-0.8-0.8c0.5-0.2,0.7-0.5,0.7-0.9c-0.1-0.1-0.1-0.2-0.1-0.3
		c0.1-0.4,0.3-0.7,0.4-0.7c0,0.1,0.1,0.2,0.3,0.3h0.1c0-0.2,0.1-0.3,0.5-0.3c0-0.1-0.1-0.2-0.3-0.3v0.2h-0.1c-0.1,0-0.2-0.1-0.2-0.2
		c0-0.1,0.1-0.2,0.3-0.2v-0.1l-0.3,0l0-0.2c0.6-0.3,0.8-0.9,0.8-1.7c0.1-0.6,0.2-1,0.4-1c0.1,0,0.1,0,0.1,0.1l0.2-0.1l0.2,0.1
		c0.1-0.2,0.2-0.4,0.1-0.7h0.2c0.1,0,0.2,0.1,0.2,0.3H55c0.1-0.2,0.4-0.3,0.9-0.3c0.2,0.2,0.3,0.3,0.5,0.3c0.1-0.1,0.2-0.1,0.3-0.1
		l-0.1-0.2l0.1-0.6c-0.3,0.1-0.6,0.2-0.8,0.4c-0.2-0.1-0.4-0.2-0.5-0.2l-0.6,0.1c-0.1-0.1-0.1-0.2-0.1-0.4l-0.3,0.2h-0.1l0-0.5
		c0.1,0,0.3-0.4,0.5-1.2h0.2c0.1,0.4,0.2,0.7,0.4,1l0.5-0.2c-0.1-0.2-0.2-0.4-0.2-0.5l0-0.9l-0.1-0.5c0.1,0,0.2-0.1,0.2-0.2
		c-0.1,0-0.2-0.1-0.2-0.2v-0.1l0.1-0.5h0.2c-0.1,0.1-0.1,0.2-0.1,0.3v0.1h0.1l0.1-0.5c0,0,0-0.2-0.1-0.6c0.1,0,0.3-0.1,0.6-0.4
		l0.2,0.3c0.3-0.1,0.5-0.3,0.5-0.4c-0.4,0-0.6-0.1-0.8-0.4c0.1-0.2,0.2-0.3,0.2-0.4l0.3,0l0,0.2l0.4,0l0-0.3l-0.3-0.4
		c0.2-0.2,0.5-0.3,0.9-0.3h0.2c0-0.1,0.2-0.3,0.7-0.6c0-0.1,0.1-0.2,0.2-0.2c0.1,0,0.2,0.1,0.2,0.2v0.3l0.3,0.2h0.1
		c0.1,0,0.2-0.1,0.4-0.4v-0.2l-0.5-0.1l0-0.2c0-0.1,0.1-0.2,0.4-0.2l-0.4-0.4c0-0.1,0-0.1,0.1-0.1l-0.1-0.2l0.1-0.6l-0.2-0.3v-0.2
		l0.1-0.2c-0.1,0-0.2,0-0.2-0.2c0.1-0.3,0.2-0.4,0.3-0.4l-0.1-0.5l0-0.3L59.7,131.6z M46.4,163.2l0.2,0l0-0.2
		C46.4,163,46.3,163.1,46.4,163.2z M46.6,162.6c0.1,0.4,0.2,0.6,0.3,0.5H47c1.1-0.3,1.6-0.5,1.6-0.6C47.6,162.6,47,162.6,46.6,162.6
		z M46.6,163.5l0,0.6c0.7-0.1,1.2,0,1.3,0.1h0.1v-0.1c-0.9-0.2-1.4-0.4-1.4-0.5H46.6z M47.4,161.5v0.4h0.1L47.4,161.5L47.4,161.5z
		 M47.7,159.8v0.2c0.1,0,0.2,0,0.2,0.1c0.2-0.1,0.5-0.2,0.8-0.2c0.3,0.3,0.5,0.4,0.8,0.4c0-0.1,0.1-0.3,0.3-0.5l-0.1-0.2
		c0.1-0.3,0.2-0.5,0.2-0.6l-0.6,0C48.8,159.4,48.3,159.7,47.7,159.8z M48,161.6v0.1l0.2,0v-0.1H48z M50,160l-0.1,0.2v0.1l1.2-0.1
		V160C51.1,159.9,50.7,159.9,50,160z M50.7,153.9c0,0.4-0.2,0.8-0.6,1.2l0,0.2h0.1c0.1-0.1,0.2-0.1,0.3-0.1l0.1,0.2l0.2-0.1l0.3,0.2
		c0.1-0.2,0.2-0.4,0.3-0.7C51,154.2,50.8,153.9,50.7,153.9z M50.2,157.1v0.2c0.1,0.3,0.4,0.5,0.7,0.5c0-0.1,0.1-0.2,0.2-0.2l0,0.2
		l1.4-0.1c0.1,0,0.2-0.1,0.2-0.2v-0.1c-1.3-0.1-2-0.1-2-0.2V157L50.2,157.1z M51.4,153.2v0.2l0.1,0c0.5-0.2,0.8-0.3,0.9-0.3l0-0.4
		c-0.1,0-0.2,0-0.2-0.1C51.7,152.9,51.5,153.1,51.4,153.2z M51.7,154.5v0.2c0.1,0,0.2,0,0.3,0.1c1-0.2,1.5-0.4,1.5-0.5v-0.1
		l-1.1,0.1L51.7,154.5z M52.7,149.7v0.2l0.1,0c0.1,0,0.2-0.1,0.2-0.2L52.7,149.7z M52.8,151c0.1,0.4,0.2,0.6,0.3,0.5h0.1
		c1.1-0.3,1.6-0.5,1.6-0.6C53.8,151,53.2,151,52.8,151z M52.8,151.9l0,0.6c0.7-0.1,1.2-0.1,1.3,0.1h0.1v-0.1
		C53.4,152.3,53,152.1,52.8,151.9L52.8,151.9z M52.9,147.4l0,0.2H53v-0.2H52.9z M54.2,154l-0.5-0.1c0,0.1,0,0.3-0.1,0.4
		c0.1,0.2,0.2,0.4,0.2,0.5l0.7-0.1l0.3,0c0.1,0,0.1,0,0.1,0.1c0.5-0.1,0.7-0.3,0.7-0.4c0-0.3-0.1-0.6-0.3-0.8
		C54.9,153.8,54.5,154,54.2,154z M53.7,145.3h0.4v-0.2h-0.2C53.8,145.2,53.7,145.2,53.7,145.3z M53.8,145.9v0.1
		c0,0.1,0.1,0.2,0.2,0.2c0.1,0,0.2-0.1,0.2-0.2v-0.2C54.1,145.8,54,145.9,53.8,145.9z M53.9,156.3l0,0.2c0.1,0,0.2-0.1,0.2-0.2
		L53.9,156.3z M54,149.3c0.1,0,0.5,0,1.3,0.1l0.1,0c0,0-0.3-0.2-0.8-0.5l-0.2,0C54.3,148.9,54.2,149,54,149.3z M55.3,146.3
		c0,0.3-0.4,0.7-1.3,1.3v0.1l0.1,0.2c0.1-0.1,0.2-0.1,0.3-0.1l0.2,0.1c0.3,0,0.5-0.2,0.5-0.6h0.2c0.2,0,0.2,0.1,0.2,0.2
		c-0.1,0-0.1,0-0.1,0.1c0.8,0,1.3,0.1,1.4,0.1v-0.1c-0.6-0.1-1.1-0.5-1.4-1.2L55.3,146.3z M57.3,149l-0.4-0.2
		c-0.3,0.2-0.5,0.3-0.5,0.4c0,0.4-0.2,0.7-0.7,1c0.1,0.1,0.2,0.1,0.3,0.1v0.2l-0.7,0.1c0-0.1-0.1-0.2-0.2-0.2
		c-0.1,0-0.2,0.1-0.2,0.3c0.1,0.2,0.1,0.3,0.2,0.3c0.1-0.1,0.2-0.1,0.3-0.1c0,0.1-0.1,0.2-0.3,0.2l0,0.4c0.1,0,0.4-0.2,1-0.6
		l-0.1-0.2l0-0.2c0.4,0.6,0.7,0.8,0.9,0.8v-0.1c0-0.2,0-0.4,0.2-0.6c0-0.1-0.3-0.3-0.8-0.4v-0.3c0.5-0.4,0.8-0.6,0.8-0.7L57.3,149
		l0.2,0.1c0.1,0,0.2,0.1,0.2,0.2l-0.1,0.2c0.3,0.1,0.5,0.2,0.6,0.2c0.1-0.2,0.3-0.5,0.4-1l-0.1,0c-0.1,0.1-0.2,0.1-0.3,0.1
		c-0.2-0.2-0.3-0.4-0.3-0.5h-0.1C57.7,148.3,57.6,148.5,57.3,149z M55.1,155.1c0,0.1,0,0.3-0.1,0.4c0.1,0.3,0.3,0.4,0.4,0.5
		c0-0.1,0-0.3,0.1-0.8l-0.2-0.1H55.1z M55.1,141.9h0.2v0.3c-0.1,0-0.2-0.1-0.2-0.2V141.9z M55.6,152.1l-0.1,0.2l0.7,0.2v-0.1
		C56.1,152.2,55.9,152.1,55.6,152.1z M55.9,146.1v0.1l0.8,0l1,0.7h0.2c0-0.2,0.1-0.3,0.3-0.3l-0.2-0.3c0.1-0.1,0.1-0.2,0.1-0.3
		c-0.7-0.1-1.1-0.1-1.1-0.2c0.1,0,0.2-0.1,0.3-0.3l0-0.1c0-0.1-0.1-0.2-0.3-0.3l-0.3,0L55.9,146.1z M56.1,139.7l0,0.2
		c0,0.1,0.1,0.2,0.3,0.3v-0.1l-0.1-0.6C56.2,139.5,56.1,139.6,56.1,139.7z M56.4,142.8c0,0.1,0.1,0.2,0.3,0.3c0.1,0,0.2-0.1,0.2-0.2
		c-0.1,0-0.2-0.1-0.2-0.3l-0.1,0C56.4,142.7,56.4,142.7,56.4,142.8z M56.6,142l0.1,0.2c-0.1,0.1-0.1,0.2-0.1,0.3h0.3
		c0-0.2,0-0.3,0.2-0.5l-0.2-0.1h-0.1L56.6,142z M56.7,140c0.3,0.5,0.7,0.8,1.3,0.8c0.1-0.6,0.2-1,0.2-1.2c-0.1,0-0.2,0-0.2-0.2
		C57.6,139.6,57.2,139.8,56.7,140z M57.3,156.5c0.1,0,0.2,0.1,0.2,0.2v0.1c0,0.1-0.2,0.2-0.5,0.3l-0.1-0.2
		C56.9,156.8,57,156.7,57.3,156.5z M60.3,142.4c0,0.1-0.1,0.2-0.4,0.3l-1.5,0h-0.1l-0.5,0.3l0.1,0.2l0,0.1l-0.2,0.3l0.1,0.5l1.3-0.1
		l0-0.5c0-0.2,0.3-0.3,0.8-0.3l0.1,0l0,0.4c0.2-0.2,0.4-0.3,0.5-0.3c0-0.1-0.1-0.2-0.2-0.2l0.2-0.6L60.3,142.4z M57.7,147.7l0.3,0
		l0.9-0.6l-0.2,0c-0.1,0.1-0.2,0.1-0.3,0.1c-0.1-0.1-0.1-0.2-0.1-0.4h-0.1C58,146.8,57.9,147.1,57.7,147.7z M57.9,142L57.9,142
		l0.2,0.1v-0.3C58,141.8,57.9,141.9,57.9,142z M59.9,137.5c0,0.1,0,0.2-0.2,0.2l-0.2-0.1c-0.3,0.1-0.6,0.2-0.8,0.5l-0.2,0l-0.3-0.2
		c0,0.3-0.1,0.5-0.3,0.5l0.1,0.5l0,0.4l0.4,0c0-0.6,0.1-0.9,0.1-1.1c0.3,0.1,0.5,0.3,0.5,0.5H59l-0.2-0.1l0,0.1
		c0.3,0.3,0.4,0.4,0.4,0.4c-0.1,0-0.4,0.3-0.7,0.9l-0.1,0v0.1h0.2l0.7-0.2c0,0.1,0.1,0.2,0.2,0.2h0.1c-0.2-0.2-0.2-0.4-0.2-0.5
		c0.1,0,0.2-0.2,0.3-0.7l-0.4-0.4l0.8-0.5c0.1,0,0.2,0.1,0.2,0.2c-0.1,0-0.1,0-0.1,0.1c0.1,0,0.2,0.1,0.2,0.2
		c0.4-0.2,0.6-0.3,0.7-0.3l0-0.3c0-0.1-0.1-0.2-0.3-0.3l-0.3,0.2h-0.1L59.9,137.5z M58.4,134.4c0.2,0.5,0.3,0.8,0.4,1v0.1l-0.1,0
		l-0.4-0.3c0,0.4,0,0.7-0.1,0.7c-0.1,0-0.2-0.1-0.2-0.2c0-0.1,0-0.1,0.1-0.1l-0.1-0.2c0.2-0.3,0.3-0.4,0.3-0.6
		c-0.1-0.1-0.1-0.2-0.1-0.3L58.4,134.4z M58.1,150.4l0,0.3c0.1,0,0.2-0.1,0.2-0.2v-0.1H58.1z M58.5,140.7L58.5,140.7
		c0,0.2,0.1,0.3,0.2,0.3l0.1-0.2l-0.2-0.1L58.5,140.7z M59,148.7v0.1l0.5-0.1c0-0.1-0.1-0.2-0.2-0.2h-0.1
		C59,148.6,59,148.6,59,148.7z M59.1,147c0.1,0,0.2,0,0.3,0.1l0.1-0.2l0-0.3C59.4,146.6,59.2,146.8,59.1,147z M59.2,145.2l0,0.5
		c0.5,0.1,0.8,0.3,0.8,0.5l0.1,0c0.1,0,0.2-0.1,0.2-0.2l0-0.6l-0.5,0.1h-0.1l0-0.5L59.2,145.2z M60.4,132.7l-0.1,0.4h-0.1L60,133
		l0,0.2c0.1,0.1,0.1,0.2,0.1,0.3h0.2c0.1,0,0.2-0.1,0.2-0.2L60.4,132.7L60.4,132.7z M60.2,131.4h0.2v0.2h-0.2L60.2,131.4z
		 M60.3,139.3c0,0.1,0.1,0.2,0.4,0.3v-0.3L60.3,139.3z M60.4,134.5l0,0.2h0.1v-0.2H60.4z M60.6,134.7v0.2l0.2,0v-0.2L60.6,134.7z
		 M60.8,131.3H61c0,0.1,0,0.2-0.2,0.2h-0.1V131.3z M61,142.7c0.1,0.1,0.2,0.3,0.2,0.5h0.1c0.1,0,0.2-0.2,0.5-0.5
		c-0.1-0.4-0.1-0.7-0.2-0.7C61.3,142.1,61.1,142.3,61,142.7z M62.3,154.7l0,0.3c0.1,0,0.2-0.1,0.3-0.3H62.3z M63.3,138.4
		c0,0.1-0.2,0.3-0.6,0.6c0,0.1,0.1,0.2,0.2,0.2c0.2,0,0.3-0.2,0.6-0.6C63.5,138.4,63.5,138.4,63.3,138.4z M63.1,154.3h0.2l0-0.2
		C63.1,154.2,63.1,154.2,63.1,154.3z M64.3,151.5l-0.5,0.7v0.1h0.1c0.2-0.1,0.5-0.3,0.8-0.6L64.3,151.5z M65.1,146L65.1,146
		c0.2,0,0.3,0.1,0.3,0.2c-0.1,0.2-0.2,0.3-0.2,0.5l-0.2,0c-0.1,0-0.2-0.1-0.2-0.2C64.9,146.1,65,146,65.1,146z M65.6,139.3l-0.5,0
		l0,0.9l0.5,0c0-0.3,0.2-0.5,0.6-0.6v-0.1c-0.2,0-0.3-0.1-0.3-0.4L65.6,139.3z M65.5,155.6c0.2,0,0.3,0.2,0.3,0.5l-0.3,0.2h-0.1
		l-0.3-0.2C65.3,155.8,65.4,155.6,65.5,155.6z M65.4,133.2L65.4,133.2c0,0.2,0.2,0.3,0.5,0.4c0-0.1,0-0.1,0.1-0.1
		c-0.1-0.1-0.1-0.2-0.1-0.3L65.4,133.2z M66.3,136.9h0.2l0.9-0.3v-0.1C66.6,136.6,66.3,136.7,66.3,136.9z M66.3,133.3l0,0.2l0.1,0
		v-0.2L66.3,133.3z M67.1,141.3l0.1,0.2c0.3-0.1,0.5-0.2,0.5-0.3l-0.2-0.1C67.3,141.2,67.2,141.3,67.1,141.3z M67.3,143.6
		L67.3,143.6l0.1,0.1l0.5-0.1v-0.3C67.5,143.4,67.3,143.5,67.3,143.6z M67.6,143.8L67.6,143.8l0.2,0.1v-0.1H67.6z M68,141.2
		c0,0.3-0.1,0.5-0.3,0.7c0.1,0,0.2,0,0.2,0.1c0.5,0,0.9-0.3,1.2-0.7H69l-0.3,0.2h-0.1l-0.4-0.3H68z M68,140.5l0.2,0.1l0.1,0
		c0.1,0,0.3-0.3,0.7-1l-0.1-0.2C68.3,139.7,68,140,68,140.5z M68.5,143.1v0.4l-0.1,0v0.1c0.1,0,0.4,0,0.8,0.1
		c0.5-0.1,0.7-0.4,0.7-0.7l-0.2,0l-0.3,0.2l-0.2,0V143L68.5,143.1z M68.8,149.4c0.1,0,0.2,0.1,0.2,0.2l-0.2,0.1
		c-0.1,0-0.2,0-0.2-0.2L68.8,149.4z M69.6,139.4c0-0.1,0-0.1-0.1-0.1l0,0.2l0.1,0.2l0.2-0.1H70v0.3h0.2l0-0.7
		C70,139.3,69.8,139.4,69.6,139.4z M69.6,146.1c0,0.1,0.1,0.2,0.3,0.3h0.2v-0.1c0-0.1-0.1-0.2-0.2-0.2L69.6,146.1z M70.1,150.9
		L70.1,150.9c0.1,0.1,0.2,0.2,0.2,0.5l0.7,0c0-0.3,0.1-0.4,0.3-0.4v-0.1l-0.5,0.1h-0.1c-0.1,0-0.2-0.1-0.2-0.2
		C70.4,150.8,70.2,150.9,70.1,150.9z M70.4,165.6L70.4,165.6l0.2,0.1v-0.1L70.4,165.6z M71.3,157.1l-0.5-0.1l-0.3,0.6v0.1h0.3
		l0.6-0.3c0,0.3,0.3,0.4,0.7,0.4l0,0.2l0.2,0c0-0.4,0.2-0.6,0.5-0.7l0.4,0.1l0.5-0.3c0.1,0.1,0.2,0.1,0.4,0.1l0.1-0.2v-0.3H74
		l-0.3,0.2c-0.2,0-0.4-0.1-0.6-0.2c0,0.1,0,0.2-0.1,0.3l-0.2-0.1l-0.3,0.2l-0.3,0v-0.1l0.2-0.3c-0.4,0-0.6,0-0.6-0.1
		C71.8,156.7,71.6,156.8,71.3,157.1z M70.6,143.7c0,0.2-0.1,0.3-0.2,0.5c0,0.1,0.2,0.2,0.7,0.3c0-0.1,0.1-0.2,0.4-0.2
		c0-0.2-0.1-0.4-0.2-0.5c-0.1,0-0.1,0-0.1,0.1L70.6,143.7L70.6,143.7z M70.7,152.9l0.2,0.1H71c0.2-0.1,0.3-0.2,0.4-0.2l0-0.4l-0.1,0
		C71,152.5,70.8,152.6,70.7,152.9z M71.3,141.5c0.1,0,0.2,0.1,0.3,0.4l-0.2,0.1l-0.3,0c0-0.1,0-0.2-0.1-0.3L71.3,141.5z M71.6,158.7
		h0.2l0-0.2C71.6,158.5,71.5,158.6,71.6,158.7z M72,150.5L72,150.5c-0.3,0-0.5,0.2-0.5,0.6h0.1l0.5-0.1c0.2,0.4,0.3,0.7,0.4,0.7h0.1
		c0-0.1,0.1-0.4,0.4-0.8v-0.1c-0.2-0.3-0.3-0.4-0.4-0.4L72,150.5z M71.6,155.6v0.1c0,0.1,0.1,0.2,0.2,0.2h0.3c0-0.1,0-0.2,0.2-0.4
		c-0.1,0-0.1,0-0.1-0.1C72,155.5,71.8,155.6,71.6,155.6z M72,157l0,0.3c-0.1,0-0.2-0.1-0.2-0.2L72,157z M72.9,159.6
		c0,0.2-0.2,0.3-0.6,0.4v0.2c0.5,0,0.9,0.1,1,0.1l0.5-0.3l0.2,0.1c0.1,0,0.1,0,0.1-0.1l0.5,0.1l0.4,0l0-0.2c0-0.2-0.1-0.2-0.4-0.3
		c-0.1,0.1-0.2,0.1-0.3,0.1c0-0.1-0.1-0.2-0.2-0.2c0,0.1-0.1,0.2-0.3,0.3l-0.1,0C73.5,159.8,73.3,159.7,72.9,159.6z M72.4,163.6h0.2
		v-0.2C72.4,163.4,72.4,163.5,72.4,163.6z M72.6,169v0.2l0.2,0V169L72.6,169z M73.1,158.9c0,0.2-0.1,0.3-0.3,0.3
		c0,0.1,0.1,0.2,0.3,0.3h0.1c0.1,0,0.2-0.1,0.2-0.2v-0.1C73.3,159.1,73.2,159,73.1,158.9z M73,162.9c0,0.2,0,0.4-0.2,0.7l0.4,0.2
		c0-0.2,0-0.3,0.1-0.3C73.2,163.1,73.1,162.9,73,162.9z M73.2,162l0,0.2c0,0.1,0.1,0.2,0.2,0.2c0.2-0.2,0.4-0.3,0.5-0.3
		c-0.1-0.3-0.2-0.5-0.2-0.5C73.4,161.7,73.2,161.8,73.2,162z M73.3,163.9l0,0.3l0.2,0v-0.1C73.5,163.9,73.4,163.9,73.3,163.9z
		 M73.4,149.3h0.1v0.2h-0.1V149.3z M74.6,165.1v0.1h0.2v-0.1H74.6z M76.4,164.7l0.1,0l0,0.2l-0.1,0V164.7z M78.7,168.5
		c0.4,0.2,0.6,0.3,0.6,0.4v0.2c0,0.1-0.1,0.2-0.3,0.2l-0.7-0.1V169C78.4,168.6,78.6,168.5,78.7,168.5z"/>
	<path class="st17" d="M92.8,135c0.5,0.5,0.9,1,1.1,1.5c-0.1,0.4-0.1,0.7-0.3,0.8l0.1,0.2c-0.1,0.2-0.2,0.3-0.2,0.4
		c0.1,0,0.1,0,0.1,0.1l-0.6,0.3c-0.1-0.1-0.2-0.1-0.3-0.1l-0.8,0.5l0.3,0.3l0.4-0.1h0.4c0.1,0,0.2,0.1,0.2,0.2c-0.1,0-0.1,0-0.1,0.1
		c0.1,0,0.1,0,0.3,0.1l0.5-0.1c0.1,0,0.2,0.1,0.2,0.2v0.1c0,0.1-0.1,0.2-0.2,0.2l-0.5-0.1l0.1,0.2v0.1c-0.2,0-0.4,0.1-0.7,0.4
		c0,0.2,0.2,0.4,0.5,0.5h0.2l0.2-0.1l0.1,0.2c-0.1,0-0.1,0-0.1,0.1c0.1,0,0.2,0.1,0.2,0.2v0.2c-0.2,0.4-0.7,0.6-1.4,0.6v0.1
		c0.4,0,0.7,0.2,1,0.6l0.4-0.1l0.2,0.3c-0.1,0.3-0.2,0.4-0.3,0.4v0.2c0.1,0.4,0.1,0.6,0.3,0.6c-0.1,0.3-0.2,0.4-0.3,0.4l-0.2-0.1
		c-0.1,0.1-0.2,0.1-0.3,0.1c0-0.1,0-0.1-0.1-0.1c0,0.1-0.2,0.3-0.7,0.4c0.8,0.6,1.2,0.8,1.3,0.8v0.2c-0.4,0-0.7,0.3-0.7,0.8
		c0.1,0,0.1,0,0.1,0.1l-0.3,0.2c0.1,0.2,0.2,0.4,0.5,0.7v0.3l-0.1,0.2l0.6-0.1h0.2v0.1c-0.1,0.1-0.1,0.2-0.1,0.3h0.1
		c0.2-0.4,0.5-0.6,0.8-0.6c0.4,0.4,0.6,0.7,0.6,0.8c0.1,0,0.4-0.2,0.8-0.5h0.4v-0.2c0.4,0.1,0.6,0.2,0.8,0.2l0.6-0.5h0.3l0.3,0.4
		c0.1,0,0.3-0.2,0.6-0.6c0.3,0.1,0.4,0.3,0.4,0.6c0.2-0.2,0.5-0.3,0.8-0.5c0.2,0.2,0.3,0.4,0.3,0.5c-0.1,0-0.2,0.1-0.2,0.2
		c0.1,0.1,0.1,0.2,0.1,0.3h-0.1c-0.1,0-0.1,0-0.1-0.1c-0.3,0.1-0.5,0.2-0.8,0.4l-0.3-0.2l-0.3,0.2H99v0.2h0.2l0.4-0.1
		c0,0.1,0.1,0.2,0.3,0.3h0.2c0-0.2,0.3-0.4,1-0.6c0.1-0.2,0.2-0.3,0.3-0.3l0.2,0.1c0-0.1,0.1-0.2,0.3-0.3h0.1c0.1,0,0.1,0,0.1,0.1
		c0.1-0.1,0.2-0.1,0.3-0.1l-0.1-0.4v-0.2h0.1c0.1,0,0.1,0,0.1,0.1l0.8-0.2l0.4,0.3l-0.3,0.5c0.1,0.1,0.1,0.2,0.1,0.3l-0.2,0.3
		l0.2,0.1c0.1,0,0.2-0.1,0.2-0.2c-0.1,0-0.1,0-0.1-0.1c0.4-0.2,0.7-0.4,1.1-0.4c0.2-0.2,0.5-0.4,0.7-0.7c0.4-0.1,0.7-0.2,0.8-0.2
		l0.1,0.2l-0.1,0.4c0.3-0.1,0.5-0.4,0.5-0.7c0-0.1,0.1-0.2,0.3-0.3c0.1,0,0.2,0.1,0.2,0.3c0.1,0,0.2-0.1,0.2-0.2
		c-0.1,0-0.1,0-0.1-0.1c0.1-0.1,0.4-0.1,0.9-0.2c0.1,0.1,0.2,0.1,0.3,0.1v0.1c-0.2,0.4-0.3,0.7-0.3,0.7h-0.1l-0.4-0.1l0.1,0.2v0.1
		c-0.2,0.3-0.3,0.4-0.3,0.5l0.2,0.1h0.1c0-0.2,0.1-0.3,0.2-0.3c0.1,0,0.2,0.1,0.3,0.3v0.4h0.3l0.3-0.2l0.4,0.1c0-0.1,0-0.1,0.1-0.1
		c0.2,0.2,0.3,0.3,0.3,0.4l-0.1,0.2c0.1,0.1,0.1,0.2,0.1,0.3c0,0.1-0.1,0.2-0.2,0.2s-0.2-0.1-0.2-0.3l-0.3,0.3l-0.4-0.1
		c-0.2,0-0.4,0.2-0.4,0.7l0.3,0.3v0.3h0.3v0.5c0,0.1-0.1,0.2-0.2,0.2c0.1,0.3,0.1,0.4,0.2,0.4c0.4-0.2,0.6-0.3,0.7-0.3l0.4,0.6v0.1
		c-0.3,0.5-0.4,0.7-0.5,0.7h-0.1c-0.1-0.1-0.3-0.2-0.3-0.2c-0.2,0-0.4,0.3-0.6,1c-0.3,0.2-0.7,0.4-1,0.4c-0.1,0.3-0.2,0.5-0.3,0.5
		h-0.3l-0.3-0.2l-0.3,0.9h-0.3c-0.1,0-0.2-0.1-0.3-0.3c0.1-0.3,0.2-0.4,0.3-0.4l-0.1-0.6v-0.1c0.8-0.6,1.2-0.9,1.2-1
		c-0.1-0.1-0.1-0.2-0.1-0.3h-0.2c0,0.2-0.3,0.5-0.9,0.8c0,0.1-0.1,0.2-0.2,0.2c0-0.1,0-0.1-0.1-0.1l0.1-0.2v-0.1l-0.3-0.4v-0.1
		l0.3-0.3c-0.1,0-0.2-0.1-0.3-0.2c0,0.4-0.1,0.6-0.3,0.7h-0.1l-0.4-0.1c0,0.2-0.3,0.4-0.8,0.5c0,0.6,0.3,0.9,0.8,0.9v0.1
		c0,0.1-0.1,0.2-0.4,0.3l-0.3-0.3l-0.3,0.3l-0.2-0.1l-0.2,0.1c-0.1,0-0.1,0-0.3-0.1c-0.4,0.1-0.7,0.2-0.8,0.2
		c-0.1-0.1-0.2-0.1-0.3-0.1c0,0.2-0.1,0.3-0.2,0.3l-0.1-0.2v-0.1c0.3-0.1,0.5-0.5,0.7-1.2v-0.1H101c-0.2,0.2-0.6,0.5-1.2,0.8
		c0,0.1,0,0.2-0.1,0.3c0.1,0.1,0.1,0.2,0.1,0.3l-0.2,0.1c-0.1-0.1-0.2-0.1-0.3-0.1l-0.2,0.3c0.1,0,0.2,0.1,0.3,0.3v0.1l-0.7-0.3
		h-0.1c-0.1,0-0.2,0-0.3,0.1c-0.3-0.2-0.6-0.3-0.8-0.3l0.1,0.2c-0.1,0.3-0.2,0.4-0.4,0.4l-0.2-0.1c-0.1,0.1-0.2,0.1-0.3,0.1
		c0-0.1-0.1-0.2-0.3-0.3h-0.2c0,0.2-0.1,0.3-0.3,0.4l-0.2-0.3c0-0.4,0.4-0.7,1.1-0.8c0-0.1,0.1-0.2,0.2-0.2l0.2,0.1l-0.1,0.2v0.2
		h0.4c0-0.2,0.1-0.5,0.2-0.7c-0.2-0.1-0.3-0.2-0.3-0.3l0.1-0.2h-0.2l-0.3,0.4H97l-0.3-0.2h-0.3c-0.4,0.4-0.9,0.8-1.4,1.2
		c-0.1,0-0.2-0.1-0.3-0.3v-0.1c0-0.1,0.1-0.2,0.2-0.2c-0.2-0.4-0.3-0.7-0.3-0.8c-0.1,0.1-0.3,0.6-0.6,1.5h-0.2l-0.2-0.1
		c0,0.1-0.1,0.2-0.2,0.3c0.1,0.1,0.1,0.2,0.1,0.3c-0.1,0-0.3,0.1-0.6,0.3c0-0.1-0.1-0.2-0.2-0.2c-0.1,0-0.2,0.2-0.4,0.5l0.2,0.1
		c0.1,0,0.3-0.1,0.6-0.3l0.8,0.8v0.3h-0.3v0.1l0.2,0.3v0.1c-0.1,0-0.1,0-0.1-0.1c-0.4,0-0.6,0.3-0.8,0.8c0.5,0.1,0.7,0.3,0.8,0.5
		c0,0.1-0.1,0.2-0.2,0.2l0.1,0.2v0.2c0,0.1-0.1,0.2-0.2,0.2c-0.2-0.3-0.4-0.4-0.6-0.4h-0.2l0.2,0.3l-0.1,0.5c0,0.2,0.2,0.3,0.5,0.4
		c0-0.1,0.1-0.2,0.3-0.3c0.2,0.1,0.3,0.2,0.3,0.5c-0.2,0.3-0.4,0.4-0.6,0.4c0-0.1-0.1-0.2-0.2-0.2c0,0.3-0.1,0.6-0.2,0.7L93,162v0.3
		c-0.1,0.3-0.3,0.4-0.3,0.4l-0.6-0.1v0.1l0.3,0.4c-0.1,0-0.2,0.1-0.3,0.3c0.1,0.1,0.2,0.1,0.5,0.1c0-0.1,0.1-0.2,0.2-0.2h0.1
		c0.1,0,0.2,0.1,0.2,0.2c-0.1,0.2-0.2,0.3-0.5,0.3c0,0.1,0.1,0.2,0.4,0.2v0.3c0,0.1-0.1,0.2-0.2,0.2c-0.2-0.2-0.3-0.3-0.3-0.4h-0.1
		c0,0.3-0.3,0.4-0.8,0.4v0.1c0,0.1,0.1,0.2,0.2,0.2c0.1-0.1,0.2-0.1,0.3-0.1c0,0.2,0.1,0.3,0.3,0.3v0.1c0,0.1-0.1,0.2-0.3,0.3
		l-0.3-0.2h-0.1l0.1,0.2c-0.4,0.4-0.7,0.6-1.1,0.6l-0.1-0.2v-0.1c0-0.1,0.1-0.2,0.3-0.3h0.4c0-0.1,0.1-0.2,0.2-0.3
		c-0.1,0-0.2-0.2-0.2-0.6c-0.1,0-0.2,0.1-0.2,0.2l-0.8-0.2l-0.2,0.3c0.1,0,0.2,0.1,0.2,0.2l-0.2,0.1c0-0.2-0.2-0.3-0.7-0.5l-0.2,0.1
		h-0.1c-0.1,0-0.2-0.1-0.2-0.2c0-0.1,0.2-0.3,0.6-0.6c0,0.1,0,0.1,0.1,0.1l0.4-0.5V163c-0.3,0-0.4-0.1-0.4-0.2l-0.2,0.1l-0.2-0.1
		l-0.4,0.1c-0.2-0.4-0.3-0.9-0.3-1.4v-0.3c-0.2,0-0.3-0.1-0.3-0.2v-0.3c0,0,0.2-0.2,0.5-0.5l-0.3-0.7v-0.2c0.4-0.4,0.6-0.6,0.8-0.6
		v-0.3c-0.3,0-0.5-0.1-0.5-0.2v-0.2c0-0.1,0-0.1,0.1-0.1c-0.1-0.2-0.2-0.4-0.2-0.5l0.3-0.2l-0.1-0.2v-0.1h0.4l-0.3-0.4v-0.1l0.3-0.6
		l-0.2-0.1l-0.3,0.2l0.1,0.2v0.1h-0.3c-0.1,0-0.2-0.3-0.3-0.9c-0.1,0-0.1,0-0.1-0.1c0.1,0,0.1,0,0.1-0.1h-0.1l-0.4,0.3
		c-0.2-0.1-0.4-0.2-0.6-0.2v0.1h-0.1l-0.2-0.1l0.1-0.2v-0.1h-0.2c-0.3,0.2-0.4,0.3-0.4,0.4h-0.2c0-0.4,0.4-0.8,1.1-1.2l0.3,0.2
		c0.1,0,0.2-0.2,0.3-0.6c-0.1,0-0.1,0-0.1-0.1l-0.2,0.1c-0.3-0.2-0.4-0.3-0.4-0.5h-0.2c-0.1,0-0.3,0.3-0.4,0.8
		c-0.2,0.2-0.4,0.3-0.7,0.3l0.1,0.2c-0.1,0.2-0.2,0.4-0.4,0.5h-0.3l-0.4-0.1c0,0.1-0.1,0.2-0.2,0.2l-0.2-0.3c0-0.1,0.1-0.2,0.4-0.3
		c0-0.1-0.1-0.3-0.3-0.6c0.1-0.1,0.1-0.2,0.1-0.3L85,154h-0.1c-0.1,0.6-0.1,0.8-0.3,0.8c0,0.1,0,0.1,0.1,0.1l-0.1,0.4
		c0,0.2,0.1,0.3,0.4,0.3v0.3c-0.1,0-0.2,0.1-0.3,0.2c-0.6-0.3-0.8-0.6-0.8-1.1c-0.1,0.1-0.2,0.1-0.3,0.1l0.1,0.2v0.3l-0.2,0.3v0.1
		c0.2,0,0.3,0.1,0.3,0.2v0.1h-0.3v-0.2h-0.2c0,0.1,0,0.1-0.1,0.3c0.1,0.1,0.1,0.2,0.1,0.3l-0.2,0.1c-0.5-0.1-0.8-0.1-1-0.3
		c0.1-0.4,0.2-0.6,0.3-0.6h0.1l0.4,0.1c0-0.1,0.1-0.3,0.3-0.6c-0.2-0.4-0.4-0.6-0.6-0.8c0,0.2-0.3,0.5-0.8,0.7
		c-0.3,0-0.5-0.1-0.6-0.3v-0.1c0-0.1,0.1-0.3,0.2-0.7v-0.3c-0.5,0-0.9-0.4-0.9-1.1c-0.3-0.9-0.4-1.3-0.4-1.3c0.3-0.4,0.6-0.8,1-1.1
		c0-0.2,0.4-0.6,1.3-1h0.1v0.5c0.1,0,0.4-0.1,0.9-0.2l0.3,0.2h0.1c0-0.3,0.1-0.4,0.3-0.4h0.3c0-0.1,0.1-0.2,0.2-0.2l0.3,0.2h0.1
		c0-0.3,0.4-0.6,1.3-0.8v0.2H86v0.2c0.3,0,0.6-0.1,0.9-0.4l0.2,0.3l-0.3,0.3c0.1,0,0.4,0.2,0.8,0.5l0.1-0.2c-0.2,0-0.3-0.1-0.3-0.3
		v-0.2l0.8-0.8c0.1,0,0.2,0.2,0.4,0.5h0.1l-0.1-0.4c0-0.1,0.1-0.2,0.2-0.2h0.2c0.3,0.2,0.4,0.3,0.4,0.5h0.1c0.1,0,0.2-0.1,0.2-0.2
		l-0.1-0.5h-0.1v0.2h-0.2v-0.1c0-0.2,0.3-0.4,0.8-0.7V147c0-0.1-0.1-0.2-0.3-0.3l-0.3,0.2l-0.3-0.5v-0.1l0.4-0.8l-0.1-0.6v-0.2
		c0-0.1,0.2-0.3,0.6-0.5c0-0.1,0.1-0.2,0.3-0.2v-0.2l-0.4,0.1h-0.3c-0.1,0-0.2-0.1-0.2-0.2v-0.6l0.4-0.8c-0.1-0.2-0.2-0.4-0.2-0.5
		l0.2-0.1c-0.1-0.2-0.2-0.4-0.2-0.5l0.4-0.3l-0.1-0.2c0-0.1,0.1-0.2,0.3-0.2l-0.8-0.5c0-0.6,0.1-0.8,0.2-0.8l-0.1-0.2v-0.3
		c0-0.1,0.1-0.4,0.3-1c-0.1,0-0.2-0.1-0.2-0.2v-0.2c0.4-0.7,0.9-1.1,1.5-1.1l-0.1-0.4C92,135.3,92.5,135,92.8,135z M82.6,154.1
		c0,0.1,0.1,0.2,0.2,0.2h0.1l0.1-0.4h-0.1C82.7,153.9,82.6,153.9,82.6,154.1z M83.5,154.8v0.2h0.1L83.5,154.8L83.5,154.8z
		 M83.7,153.8h0.2v-0.2C83.8,153.6,83.7,153.7,83.7,153.8z M84,163.2L84,163.2l0.1,0.2h-0.3C83.8,163.3,83.9,163.2,84,163.2z
		 M85.6,152.4l0.3,0.4c-0.2,0.1-0.3,0.2-0.3,0.3c0.1,0.1,0.1,0.2,0.1,0.3c-0.1,0-0.2,0.1-0.2,0.2l-0.2-0.1H85l0.1,0.4h0.3
		c0-0.1,0.2-0.2,0.7-0.3c0.1-0.2,0.2-0.3,0.2-0.4c-0.1,0-0.2-0.1-0.2-0.2l0.1-0.3l-0.2-0.4C85.7,152.3,85.6,152.4,85.6,152.4z
		 M87.2,151.7h0.2v-0.2C87.2,151.5,87.2,151.6,87.2,151.7z M88.1,154.5L88.1,154.5l0.1,0.3c-0.1,0.1-0.1,0.2-0.1,0.3h0.3V155
		l-0.1-0.4H88.1z M89.1,155.8c0,0.1,0.1,0.2,0.2,0.2c0-0.1,0-0.1,0.1-0.1c0,0.1,0.1,0.2,0.2,0.2h0.1l0.5-0.4
		c0.1,0.1,0.2,0.1,0.3,0.1l0.2-0.3v-0.3h-0.1C90,155.2,89.5,155.4,89.1,155.8z M89.2,163.3h0.2v0.1L89.2,163.3L89.2,163.3z
		 M89.4,161.4v0.3c0.2,0,0.4,0.1,0.6,0.3h0.1c0-0.1,0-0.2,0.1-0.2c0-0.1-0.2-0.2-0.5-0.4v-0.1h-0.1
		C89.4,161.3,89.4,161.3,89.4,161.4z M89.5,156.8v0.3c0.2-0.2,0.4-0.3,0.5-0.3v-0.1H90C89.9,156.8,89.7,156.8,89.5,156.8z M90,165.7
		c0.1,0.1,0.1,0.2,0.1,0.3l0.2-0.1h0.3v0.1c0,0.1-0.1,0.2-0.3,0.3h-0.1l-0.2-0.1c0,0.1,0,0.1-0.1,0.1l-0.2-0.3v-0.1
		C89.8,165.7,89.9,165.7,90,165.7z M89.9,165.1L89.9,165.1l0.1,0.2h-0.1V165.1z M90,141.7L90,141.7l0.2,0.1v-0.1H90z M90.6,166.1
		L90.6,166.1c0.1,0.2,0.2,0.3,0.4,0.5v0.4c0,0.1-0.1,0.2-0.2,0.2h-0.2c-0.1,0-0.3-0.3-0.5-0.8L90.6,166.1z M90.4,156.9l0.3,0.3h0.1
		v-0.1c-0.1-0.2-0.2-0.3-0.2-0.4h-0.1C90.4,156.7,90.4,156.8,90.4,156.9z M90.4,163L90.4,163l0.3,0.1V163H90.4z M90.7,163
		c0,0.1-0.1,0.2-0.2,0.2c0.1,0.1,0.1,0.2,0.1,0.3h0.1c0.1,0,0.2-0.1,0.2-0.2v-0.1C90.9,163.1,90.8,163,90.7,163z M91.7,161.8
		L91.7,161.8c0.4-0.2,0.5-0.3,0.5-0.3v-0.1h-0.1C92,161.4,91.9,161.5,91.7,161.8z M92.1,146.3c0,0.1,0,0.1-0.1,0.3l0.2,0.1l0.1-0.2
		C92.2,146.3,92.2,146.3,92.1,146.3z M92.1,141.6v0.2h0.2C92.2,141.6,92.2,141.6,92.1,141.6z M92.2,162.2L92.2,162.2l0.1,0.3
		c0.2-0.1,0.3-0.2,0.3-0.3H92.2z M92.7,147.6v0.2c0.1,0.1,0.2,0.3,0.2,0.7c0.2,0,0.3-0.1,0.3-0.2l-0.1-0.4c0.1,0,0.1,0,0.1-0.1
		C93.1,147.7,92.9,147.6,92.7,147.6z M93.6,145.2h0.3v0.1c0,0.1-0.1,0.2-0.2,0.2h-0.2V145.2z M93.8,148.5L93.8,148.5
		c0.2,0.3,0.3,0.5,0.3,0.7h0.3c0-0.3,0.1-0.4,0.2-0.4c0,0.1,0.1,0.2,0.2,0.2h0.1l-0.3-0.4l-0.2,0.1L93.8,148.5z M94.4,153
		c0,0.1-0.1,0.2-0.2,0.3l0.1,0.4h0.1c0-0.3,0.1-0.5,0.3-0.7L94.4,153L94.4,153z M96.5,152.7c-0.7,0.6-1,0.8-1.1,0.8v0.4h0.1
		c0.1-0.1,0.2-0.1,0.3-0.1c0,0.1,0.1,0.2,0.2,0.2c0-0.2,0.1-0.3,0.2-0.3h0.1l0.4,0.1c0-0.1,0.1-0.2,0.2-0.2
		c-0.1-0.1-0.1-0.2-0.1-0.3l0.1-0.2c-0.1-0.1-0.1-0.2-0.1-0.3c0.1,0,0.1,0,0.1-0.1C96.6,152.8,96.6,152.7,96.5,152.7z M96.3,150.2
		l0.3,0.3c-0.1,0-0.2,0.1-0.2,0.2h0.1c0.1,0,0.4-0.1,0.8-0.3c0,0.1,0.1,0.2,0.3,0.3h0.1c0.1-0.1,0.3-0.2,0.4-0.2v-0.3
		c-0.1,0-0.3-0.1-0.4-0.2h-0.2l-0.3,0.2h-0.4c-0.1,0-0.2-0.1-0.2-0.2C96.4,150.2,96.3,150.2,96.3,150.2z M97.4,148.5
		c0.1,0.1,0.1,0.2,0.1,0.3c0.3,0,0.4-0.1,0.4-0.3h0.3l0.6,0.4h0.2v-0.2c-0.3,0-0.4-0.1-0.4-0.2c0.1-0.1,0.1-0.2,0.1-0.3
		c-0.2-0.1-0.3-0.1-0.3-0.2c-0.1,0.1-0.2,0.1-0.3,0.1l-0.3-0.1C97.6,148.1,97.5,148.2,97.4,148.5z M97.5,152L97.5,152
		c0,0.2,0.1,0.3,0.2,0.3l-0.3,0.5c0.1,0.3,0.2,0.4,0.3,0.4h0.1c0-0.1,0.1-0.3,0.2-0.6l-0.1-0.2c0-0.2,0.3-0.5,0.8-0.8
		c0-0.1-0.1-0.2-0.3-0.3h-0.3c-0.2,0.4-0.4,0.6-0.5,0.6L97.5,152z M97.5,153.3v0.3h0.3C97.9,153.4,97.8,153.4,97.5,153.3L97.5,153.3
		z M99,153.7c-0.2,0.4-0.4,0.6-0.6,0.6v0.1c0,0.1,0.1,0.2,0.4,0.3c0.2-0.1,0.4-0.3,0.4-0.5C99.2,153.9,99.1,153.7,99,153.7z
		 M100.4,154.5h0.2v0.3c0,0.1-0.1,0.2-0.3,0.3c-0.1,0-0.2-0.1-0.3-0.3C100,154.7,100.1,154.6,100.4,154.5z M100.1,152.9v0.2
		c0.1,0,0.3,0.1,0.4,0.2h0.1c0.1,0,0.2-0.1,0.3-0.3l-0.3-0.2C100.3,152.9,100.1,152.9,100.1,152.9z M100.8,149.5
		c0.1,0,0.1,0,0.3,0.1c0.2-0.1,0.6-0.2,1.1-0.3v-0.2c-0.2,0-0.3,0-0.3-0.1l-0.2,0.1l-0.2-0.1C101.2,149.1,101,149.2,100.8,149.5z
		 M100.8,154L100.8,154l0.1,0.2h-0.1V154z M101,150.9v0.3h0.1c0-0.1,0-0.1,0.1-0.3L101,150.9z M102.2,154.1v0.2h0.1L102.2,154.1
		L102.2,154.1z M102.4,160.6h0.2v0.1L102.4,160.6L102.4,160.6z M102.6,147.4v0.2c0.1,0,0.2-0.1,0.2-0.2H102.6z M104.4,147.1h0.3v0.2
		c0,0.1-0.2,0.2-0.7,0.3h-0.1c-0.1,0-0.2-0.1-0.2-0.2c0-0.1,0.1-0.2,0.2-0.2c0.1,0.1,0.2,0.1,0.3,0.1
		C104.1,147.3,104.2,147.2,104.4,147.1z M104.2,154.4c0.1,0.1,0.1,0.4,0.2,0.8c-0.1,0.2-0.2,0.3-0.3,0.3l-0.3-0.4v-0.4
		C103.8,154.5,103.9,154.4,104.2,154.4z M104.7,152.3c0.2,0,0.5-0.1,0.8-0.3h0.3c0.1,0,0.2,0.1,0.2,0.2l-0.2,0.3v0.1
		c0.4,0,0.6,0.1,0.6,0.3l-0.1,0.2l0.3,0.2l-0.1,0.2v0.1c0.2,0,0.3,0,0.4,0.1l0.1-0.2l-0.3-0.3c0-0.1,0-0.1,0.1-0.1
		c-0.1-0.2-0.2-0.4-0.2-0.7V152c-0.3,0-0.5-0.1-0.7-0.4H106C105.2,151.8,104.8,152,104.7,152.3z M105,147h0.2v0.1L105,147L105,147z
		 M105,147.9v0.3h0.2c0.1,0,0.2-0.1,0.3-0.3l-0.2-0.1C105.2,147.9,105.1,147.9,105,147.9z M105.6,148.9v0.4c0,0.1,0.1,0.2,0.2,0.2
		c0.1-0.2,0.3-0.3,0.4-0.3V149C106.1,149,105.9,148.9,105.6,148.9z M107,148.4l-0.3,0.6h0.2l0.3-0.2c0.1,0.2,0.2,0.3,0.3,0.3
		c0.2-0.2,0.4-0.3,0.5-0.3v-0.1c-0.1,0-0.1,0-0.3-0.1c-0.1,0.1-0.2,0.1-0.3,0.1C107.4,148.6,107.2,148.4,107,148.4z M109.1,147.2
		l-0.1,0.2l0.1,0.5c-0.1,0.1-0.2,0.1-0.3,0.1l-0.2-0.1c-0.1,0.1-0.2,0.1-0.3,0.1l-0.4-0.6v-0.1h0.1l0.3,0.2
		C108.5,147.3,108.8,147.2,109.1,147.2z M107.9,152.3v0.2c0.1,0,0.2-0.1,0.3-0.3v-0.1h-0.1C108,152.2,107.9,152.2,107.9,152.3z
		 M109.4,149.4L109.4,149.4c0.2,0,0.3,0.1,0.3,0.2v0.1c0,0.1,0,0.1-0.1,0.1l0.1,0.2c-0.1,0.1-0.1,0.2-0.1,0.3c0.1,0,0.2,0.1,0.2,0.2
		v0.3c0,0.1-0.1,0.2-0.2,0.2h-0.3l-0.3-0.4v0.1c0.1,0.3,0.1,0.5,0.1,0.7l-0.3,0.3h-0.1l-0.2-0.1l0.1-0.2V151c-0.1,0-0.1,0-0.3-0.1
		c0.1-0.3,0.1-0.5,0.2-0.5c-0.1-0.2-0.2-0.3-0.2-0.4l0.2-0.1c0.1,0.1,0.3,0.2,0.5,0.2C109.1,149.6,109.3,149.4,109.4,149.4z
		 M109.1,147.3h0.2v0.1L109.1,147.3L109.1,147.3z"/>
	<path class="st17" d="M124.7,135c0.5,0.5,0.9,1,1.1,1.5c-0.1,0.4-0.1,0.7-0.3,0.8l0.1,0.2c-0.1,0.2-0.2,0.3-0.2,0.4
		c0.1,0,0.1,0,0.1,0.1l-0.6,0.3c-0.1-0.1-0.2-0.1-0.3-0.1l-0.8,0.5l0.3,0.3l0.4-0.1h0.4c0.1,0,0.2,0.1,0.2,0.2c-0.1,0-0.1,0-0.1,0.1
		c0.1,0,0.1,0,0.3,0.1l0.5-0.1c0.1,0,0.2,0.1,0.2,0.2v0.1c0,0.1-0.1,0.2-0.2,0.2l-0.5-0.1l0.1,0.2v0.1c-0.2,0-0.4,0.1-0.7,0.4
		c0,0.2,0.2,0.4,0.5,0.5h0.2l0.2-0.1l0.1,0.2c-0.1,0-0.1,0-0.1,0.1c0.1,0,0.2,0.1,0.2,0.2v0.2c-0.2,0.4-0.7,0.6-1.4,0.6v0.1
		c0.4,0,0.7,0.2,1,0.6l0.4-0.1l0.2,0.3c-0.1,0.3-0.2,0.4-0.3,0.4v0.2c0.1,0.4,0.1,0.6,0.3,0.6c-0.1,0.3-0.2,0.4-0.3,0.4l-0.2-0.1
		c-0.1,0.1-0.2,0.1-0.3,0.1c0-0.1,0-0.1-0.1-0.1c0,0.1-0.2,0.3-0.7,0.4c0.8,0.6,1.2,0.8,1.3,0.8v0.2c-0.4,0-0.7,0.3-0.7,0.8
		c0.1,0,0.1,0,0.1,0.1l-0.3,0.2c0.1,0.2,0.2,0.4,0.5,0.7v0.3l-0.1,0.2l0.6-0.1h0.2v0.1c-0.1,0.1-0.1,0.2-0.1,0.3h0.1
		c0.2-0.4,0.5-0.6,0.8-0.6c0.4,0.4,0.6,0.7,0.6,0.8c0.1,0,0.4-0.2,0.8-0.5h0.4v-0.2c0.4,0.1,0.6,0.2,0.8,0.2l0.6-0.5h0.3l0.3,0.4
		c0.1,0,0.3-0.2,0.6-0.6c0.3,0.1,0.4,0.3,0.4,0.6c0.2-0.2,0.5-0.3,0.8-0.5c0.2,0.2,0.3,0.4,0.3,0.5c-0.1,0-0.2,0.1-0.2,0.2
		c0.1,0.1,0.1,0.2,0.1,0.3h-0.1c-0.1,0-0.1,0-0.1-0.1c-0.3,0.1-0.5,0.2-0.8,0.4l-0.3-0.2l-0.3,0.2h-0.4v0.2h0.2l0.4-0.1
		c0,0.1,0.1,0.2,0.3,0.3h0.2c0-0.2,0.3-0.4,1-0.6c0.1-0.2,0.2-0.3,0.3-0.3l0.2,0.1c0-0.1,0.1-0.2,0.3-0.3h0.1c0.1,0,0.1,0,0.1,0.1
		c0.1-0.1,0.2-0.1,0.3-0.1l-0.1-0.4v-0.2h0.1c0.1,0,0.1,0,0.1,0.1l0.8-0.2l0.4,0.3l-0.3,0.5c0.1,0.1,0.1,0.2,0.1,0.3l-0.2,0.3
		l0.2,0.1c0.1,0,0.2-0.1,0.2-0.2c-0.1,0-0.1,0-0.1-0.1c0.4-0.2,0.7-0.4,1.1-0.4c0.2-0.2,0.5-0.4,0.7-0.7c0.4-0.1,0.7-0.2,0.8-0.2
		l0.1,0.2l-0.1,0.4c0.3-0.1,0.5-0.4,0.5-0.7c0-0.1,0.1-0.2,0.3-0.3c0.1,0,0.2,0.1,0.2,0.3c0.1,0,0.2-0.1,0.2-0.2
		c-0.1,0-0.1,0-0.1-0.1c0.1-0.1,0.4-0.1,0.9-0.2c0.1,0.1,0.2,0.1,0.3,0.1v0.1c-0.2,0.4-0.3,0.7-0.3,0.7h-0.1l-0.4-0.1l0.1,0.2v0.1
		c-0.2,0.3-0.3,0.4-0.3,0.5l0.2,0.1h0.1c0-0.2,0.1-0.3,0.2-0.3c0.1,0,0.2,0.1,0.3,0.3v0.4h0.3l0.3-0.2l0.4,0.1c0-0.1,0-0.1,0.1-0.1
		c0.2,0.2,0.3,0.3,0.3,0.4l-0.1,0.2c0.1,0.1,0.1,0.2,0.1,0.3c0,0.1-0.1,0.2-0.2,0.2s-0.2-0.1-0.2-0.3l-0.3,0.3l-0.4-0.1
		c-0.2,0-0.4,0.2-0.4,0.7l0.3,0.3v0.3h0.3v0.5c0,0.1-0.1,0.2-0.2,0.2c0.1,0.3,0.1,0.4,0.2,0.4c0.4-0.2,0.6-0.3,0.7-0.3l0.4,0.6v0.1
		c-0.3,0.5-0.4,0.7-0.5,0.7h-0.1c-0.1-0.1-0.3-0.2-0.3-0.2c-0.2,0-0.4,0.3-0.6,1c-0.3,0.2-0.7,0.4-1,0.4c-0.1,0.3-0.2,0.5-0.3,0.5
		h-0.3l-0.3-0.2l-0.3,0.9h-0.3c-0.1,0-0.2-0.1-0.3-0.3c0.1-0.3,0.2-0.4,0.3-0.4L137,154v-0.1c0.8-0.6,1.2-0.9,1.2-1
		c-0.1-0.1-0.1-0.2-0.1-0.3h-0.2c0,0.2-0.3,0.5-0.9,0.8c0,0.1-0.1,0.2-0.2,0.2c0-0.1,0-0.1-0.1-0.1l0.1-0.2v-0.1l-0.3-0.4v-0.1
		l0.3-0.3c-0.1,0-0.2-0.1-0.3-0.2c0,0.4-0.1,0.6-0.3,0.7H136l-0.4-0.1c0,0.2-0.3,0.4-0.8,0.5c0,0.6,0.3,0.9,0.8,0.9v0.1
		c0,0.1-0.1,0.2-0.4,0.3l-0.3-0.3l-0.3,0.3l-0.2-0.1l-0.2,0.1c-0.1,0-0.1,0-0.3-0.1c-0.4,0.1-0.7,0.2-0.8,0.2
		c-0.1-0.1-0.2-0.1-0.3-0.1c0,0.2-0.1,0.3-0.2,0.3l-0.1-0.2v-0.1c0.3-0.1,0.5-0.5,0.7-1.2v-0.1h-0.3c-0.2,0.2-0.6,0.5-1.2,0.8
		c0,0.1,0,0.2-0.1,0.3c0.1,0.1,0.1,0.2,0.1,0.3l-0.2,0.1c-0.1-0.1-0.2-0.1-0.3-0.1l-0.2,0.3c0.1,0,0.2,0.1,0.3,0.3v0.1l-0.7-0.3
		h-0.1c-0.1,0-0.2,0-0.3,0.1c-0.3-0.2-0.6-0.3-0.8-0.3l0.1,0.2c-0.1,0.3-0.2,0.4-0.4,0.4l-0.2-0.1c-0.1,0.1-0.2,0.1-0.3,0.1
		c0-0.1-0.1-0.2-0.3-0.3h-0.2c0,0.2-0.1,0.3-0.3,0.4l-0.2-0.3c0-0.4,0.4-0.7,1.1-0.8c0-0.1,0.1-0.2,0.2-0.2l0.2,0.1l-0.1,0.2v0.2
		h0.4c0-0.2,0.1-0.5,0.2-0.7c-0.2-0.1-0.3-0.2-0.3-0.3l0.1-0.2h-0.2l-0.3,0.4h-0.1l-0.3-0.2h-0.3c-0.4,0.4-0.9,0.8-1.4,1.2
		c-0.1,0-0.2-0.1-0.3-0.3v-0.1c0-0.1,0.1-0.2,0.2-0.2c-0.2-0.4-0.3-0.7-0.3-0.8c-0.1,0.1-0.3,0.6-0.6,1.5h-0.2l-0.2-0.1
		c0,0.1-0.1,0.2-0.2,0.3c0.1,0.1,0.1,0.2,0.1,0.3c-0.1,0-0.3,0.1-0.6,0.3c0-0.1-0.1-0.2-0.2-0.2c-0.1,0-0.2,0.2-0.4,0.5l0.2,0.1
		c0.1,0,0.3-0.1,0.6-0.3l0.8,0.8v0.3h-0.3v0.1l0.2,0.3v0.1c-0.1,0-0.1,0-0.1-0.1c-0.4,0-0.6,0.3-0.8,0.8c0.5,0.1,0.7,0.3,0.8,0.5
		c0,0.1-0.1,0.2-0.2,0.2l0.1,0.2v0.2c0,0.1-0.1,0.2-0.2,0.2c-0.2-0.3-0.4-0.4-0.6-0.4h-0.2l0.2,0.3l-0.1,0.5c0,0.2,0.2,0.3,0.5,0.4
		c0-0.1,0.1-0.2,0.3-0.3c0.2,0.1,0.3,0.2,0.3,0.5c-0.2,0.3-0.4,0.4-0.6,0.4c0-0.1-0.1-0.2-0.2-0.2c0,0.3-0.1,0.6-0.2,0.7l0.3,0.3
		v0.3c-0.1,0.3-0.3,0.4-0.3,0.4l-0.6-0.1v0.1l0.3,0.4c-0.1,0-0.2,0.1-0.3,0.3c0.1,0.1,0.2,0.1,0.5,0.1c0-0.1,0.1-0.2,0.2-0.2h0.1
		c0.1,0,0.2,0.1,0.2,0.2c-0.1,0.2-0.2,0.3-0.5,0.3c0,0.1,0.1,0.2,0.4,0.2v0.3c0,0.1-0.1,0.2-0.2,0.2c-0.2-0.2-0.3-0.3-0.3-0.4h-0.1
		c0,0.3-0.3,0.4-0.8,0.4v0.1c0,0.1,0.1,0.2,0.2,0.2c0.1-0.1,0.2-0.1,0.3-0.1c0,0.2,0.1,0.3,0.3,0.3v0.1c0,0.1-0.1,0.2-0.3,0.3
		l-0.3-0.2h-0.1l0.1,0.2c-0.4,0.4-0.7,0.6-1.1,0.6l-0.1-0.2v-0.1c0-0.1,0.1-0.2,0.3-0.3h0.4c0-0.1,0.1-0.2,0.2-0.3
		c-0.1,0-0.2-0.2-0.2-0.6c-0.1,0-0.2,0.1-0.2,0.2l-0.8-0.2l-0.2,0.3c0.1,0,0.2,0.1,0.2,0.2l-0.2,0.1c0-0.2-0.2-0.3-0.7-0.5l-0.2,0.1
		h-0.1c-0.1,0-0.2-0.1-0.2-0.2c0-0.1,0.2-0.3,0.6-0.6c0,0.1,0,0.1,0.1,0.1l0.4-0.5V163c-0.3,0-0.4-0.1-0.4-0.2l-0.2,0.1l-0.2-0.1
		l-0.4,0.1c-0.2-0.4-0.3-0.9-0.3-1.4v-0.3c-0.2,0-0.3-0.1-0.3-0.2v-0.3c0,0,0.2-0.2,0.5-0.5l-0.3-0.7v-0.2c0.4-0.4,0.6-0.6,0.8-0.6
		v-0.3c-0.3,0-0.5-0.1-0.5-0.2v-0.2c0-0.1,0-0.1,0.1-0.1c-0.1-0.2-0.2-0.4-0.2-0.5l0.3-0.2l-0.1-0.2v-0.1h0.4l-0.3-0.4v-0.1l0.3-0.6
		l-0.2-0.1l-0.3,0.2l0.1,0.2v0.1h-0.3c-0.1,0-0.2-0.3-0.3-0.9c-0.1,0-0.1,0-0.1-0.1c0.1,0,0.1,0,0.1-0.1h-0.1l-0.4,0.3
		c-0.2-0.1-0.4-0.2-0.6-0.2v0.1h-0.1l-0.2-0.1l0.1-0.2v-0.1H119c-0.3,0.2-0.4,0.3-0.4,0.4h-0.2c0-0.4,0.4-0.8,1.1-1.2l0.3,0.2
		c0.1,0,0.2-0.2,0.3-0.6c-0.1,0-0.1,0-0.1-0.1l-0.2,0.1c-0.3-0.2-0.4-0.3-0.4-0.5h-0.2c-0.1,0-0.3,0.3-0.4,0.8
		c-0.2,0.2-0.4,0.3-0.7,0.3l0.1,0.2c-0.1,0.2-0.2,0.4-0.4,0.5h-0.3l-0.4-0.1c0,0.1-0.1,0.2-0.2,0.2l-0.2-0.3c0-0.1,0.1-0.2,0.4-0.3
		c0-0.1-0.1-0.3-0.3-0.6c0.1-0.1,0.1-0.2,0.1-0.3l-0.2-0.1h-0.1c-0.1,0.6-0.1,0.8-0.3,0.8c0,0.1,0,0.1,0.1,0.1l-0.1,0.4
		c0,0.2,0.1,0.3,0.4,0.3v0.3c-0.1,0-0.2,0.1-0.3,0.2c-0.6-0.3-0.8-0.6-0.8-1.1c-0.1,0.1-0.2,0.1-0.3,0.1l0.1,0.2v0.3l-0.2,0.3v0.1
		c0.2,0,0.3,0.1,0.3,0.2v0.1h-0.3v-0.2h-0.2c0,0.1,0,0.1-0.1,0.3c0.1,0.1,0.1,0.2,0.1,0.3l-0.2,0.1c-0.5-0.1-0.8-0.1-1-0.3
		c0.1-0.4,0.2-0.6,0.3-0.6h0.1l0.4,0.1c0-0.1,0.1-0.3,0.3-0.6c-0.2-0.4-0.4-0.6-0.6-0.8c0,0.2-0.3,0.5-0.8,0.7
		c-0.3,0-0.5-0.1-0.6-0.3v-0.1c0-0.1,0.1-0.3,0.2-0.7v-0.3c-0.5,0-0.9-0.4-0.9-1.1c-0.3-0.9-0.4-1.3-0.4-1.3c0.3-0.4,0.6-0.8,1-1.1
		c0-0.2,0.4-0.6,1.3-1h0.1v0.5c0.1,0,0.4-0.1,0.9-0.2l0.3,0.2h0.1c0-0.3,0.1-0.4,0.3-0.4h0.3c0-0.1,0.1-0.2,0.2-0.2l0.3,0.2h0.1
		c0-0.3,0.4-0.6,1.3-0.8v0.2h-0.2v0.2c0.3,0,0.6-0.1,0.9-0.4l0.2,0.3l-0.3,0.3c0.1,0,0.4,0.2,0.8,0.5l0.1-0.2
		c-0.2,0-0.3-0.1-0.3-0.3v-0.2l0.8-0.8c0.1,0,0.2,0.2,0.4,0.5h0.1l-0.1-0.4c0-0.1,0.1-0.2,0.2-0.2h0.2c0.3,0.2,0.4,0.3,0.4,0.5h0.1
		c0.1,0,0.2-0.1,0.2-0.2l-0.1-0.5h-0.1v0.2h-0.2v-0.1c0-0.2,0.3-0.4,0.8-0.7V147c0-0.1-0.1-0.2-0.3-0.3l-0.3,0.2l-0.3-0.5v-0.1
		l0.4-0.8l-0.1-0.6v-0.2c0-0.1,0.2-0.3,0.6-0.5c0-0.1,0.1-0.2,0.3-0.2v-0.2l-0.4,0.1h-0.3c-0.1,0-0.2-0.1-0.2-0.2v-0.6l0.4-0.8
		c-0.1-0.2-0.2-0.4-0.2-0.5l0.2-0.1c-0.1-0.2-0.2-0.4-0.2-0.5l0.4-0.3l-0.1-0.2c0-0.1,0.1-0.2,0.3-0.2l-0.8-0.5
		c0-0.6,0.1-0.8,0.2-0.8l-0.1-0.2v-0.3c0-0.1,0.1-0.4,0.3-1c-0.1,0-0.2-0.1-0.2-0.2v-0.2c0.4-0.7,0.9-1.1,1.5-1.1l-0.1-0.4
		C123.9,135.3,124.4,135,124.7,135z M114.4,154.1c0,0.1,0.1,0.2,0.2,0.2h0.1l0.1-0.4h-0.1C114.6,153.9,114.5,153.9,114.4,154.1z
		 M115.4,154.8v0.2h0.1L115.4,154.8L115.4,154.8z M115.6,153.8h0.2v-0.2C115.7,153.6,115.6,153.7,115.6,153.8z M115.9,163.2
		L115.9,163.2l0.1,0.2h-0.3C115.7,163.3,115.8,163.2,115.9,163.2z M117.5,152.4l0.3,0.4c-0.2,0.1-0.3,0.2-0.3,0.3
		c0.1,0.1,0.1,0.2,0.1,0.3c-0.1,0-0.2,0.1-0.2,0.2l-0.2-0.1h-0.3l0.1,0.4h0.3c0-0.1,0.2-0.2,0.7-0.3c0.1-0.2,0.2-0.3,0.2-0.4
		c-0.1,0-0.2-0.1-0.2-0.2l0.1-0.3l-0.2-0.4C117.6,152.3,117.5,152.4,117.5,152.4z M119.1,151.7h0.2v-0.2
		C119.1,151.5,119.1,151.6,119.1,151.7z M120,154.5L120,154.5l0.1,0.3c-0.1,0.1-0.1,0.2-0.1,0.3h0.3V155l-0.1-0.4H120z M121,155.8
		c0,0.1,0.1,0.2,0.2,0.2c0-0.1,0-0.1,0.1-0.1c0,0.1,0.1,0.2,0.2,0.2h0.1l0.5-0.4c0.1,0.1,0.2,0.1,0.3,0.1l0.2-0.3v-0.3h-0.1
		C121.9,155.2,121.4,155.4,121,155.8z M121.1,163.3h0.2v0.1L121.1,163.3L121.1,163.3z M121.3,161.4v0.3c0.2,0,0.4,0.1,0.6,0.3h0.1
		c0-0.1,0-0.2,0.1-0.2c0-0.1-0.2-0.2-0.5-0.4v-0.1h-0.1C121.3,161.3,121.3,161.3,121.3,161.4z M121.4,156.8v0.3
		c0.2-0.2,0.4-0.3,0.5-0.3v-0.1h-0.1C121.7,156.8,121.6,156.8,121.4,156.8z M121.8,165.7c0.1,0.1,0.1,0.2,0.1,0.3l0.2-0.1h0.3v0.1
		c0,0.1-0.1,0.2-0.3,0.3h-0.1l-0.2-0.1c0,0.1,0,0.1-0.1,0.1l-0.2-0.3v-0.1C121.7,165.7,121.7,165.7,121.8,165.7z M121.8,165.1
		L121.8,165.1l0.1,0.2h-0.1V165.1z M121.8,141.7L121.8,141.7l0.2,0.1v-0.1H121.8z M122.5,166.1L122.5,166.1c0.1,0.2,0.2,0.3,0.4,0.5
		v0.4c0,0.1-0.1,0.2-0.2,0.2h-0.2c-0.1,0-0.3-0.3-0.5-0.8L122.5,166.1z M122.3,156.9l0.3,0.3h0.1v-0.1c-0.1-0.2-0.2-0.3-0.2-0.4
		h-0.1C122.3,156.7,122.3,156.8,122.3,156.9z M122.3,163L122.3,163l0.3,0.1V163H122.3z M122.6,163c0,0.1-0.1,0.2-0.2,0.2
		c0.1,0.1,0.1,0.2,0.1,0.3h0.1c0.1,0,0.2-0.1,0.2-0.2v-0.1C122.8,163.1,122.7,163,122.6,163z M123.6,161.8L123.6,161.8
		c0.4-0.2,0.5-0.3,0.5-0.3v-0.1H124C123.9,161.4,123.7,161.5,123.6,161.8z M123.9,146.3c0,0.1,0,0.1-0.1,0.3l0.2,0.1l0.1-0.2
		C124.1,146.3,124.1,146.3,123.9,146.3z M123.9,141.6v0.2h0.2C124.1,141.6,124.1,141.6,123.9,141.6z M124,162.2L124,162.2l0.1,0.3
		c0.2-0.1,0.3-0.2,0.3-0.3H124z M124.6,147.6v0.2c0.1,0.1,0.2,0.3,0.2,0.7c0.2,0,0.3-0.1,0.3-0.2l-0.1-0.4c0.1,0,0.1,0,0.1-0.1
		C124.9,147.7,124.8,147.6,124.6,147.6z M125.5,145.2h0.3v0.1c0,0.1-0.1,0.2-0.2,0.2h-0.2V145.2z M125.7,148.5L125.7,148.5
		c0.2,0.3,0.3,0.5,0.3,0.7h0.3c0-0.3,0.1-0.4,0.2-0.4c0,0.1,0.1,0.2,0.2,0.2h0.1l-0.3-0.4l-0.2,0.1L125.7,148.5z M126.3,153
		c0,0.1-0.1,0.2-0.2,0.3l0.1,0.4h0.1c0-0.3,0.1-0.5,0.3-0.7L126.3,153L126.3,153z M128.3,152.7c-0.7,0.6-1,0.8-1.1,0.8v0.4h0.1
		c0.1-0.1,0.2-0.1,0.3-0.1c0,0.1,0.1,0.2,0.2,0.2c0-0.2,0.1-0.3,0.2-0.3h0.1l0.4,0.1c0-0.1,0.1-0.2,0.2-0.2
		c-0.1-0.1-0.1-0.2-0.1-0.3l0.1-0.2c-0.1-0.1-0.1-0.2-0.1-0.3c0.1,0,0.1,0,0.1-0.1C128.5,152.8,128.4,152.7,128.3,152.7z
		 M128.2,150.2l0.3,0.3c-0.1,0-0.2,0.1-0.2,0.2h0.1c0.1,0,0.4-0.1,0.8-0.3c0,0.1,0.1,0.2,0.3,0.3h0.1c0.1-0.1,0.3-0.2,0.4-0.2v-0.3
		c-0.1,0-0.3-0.1-0.4-0.2h-0.2l-0.3,0.2h-0.4c-0.1,0-0.2-0.1-0.2-0.2C128.3,150.2,128.2,150.2,128.2,150.2z M129.3,148.5
		c0.1,0.1,0.1,0.2,0.1,0.3c0.3,0,0.4-0.1,0.4-0.3h0.3l0.6,0.4h0.2v-0.2c-0.3,0-0.4-0.1-0.4-0.2c0.1-0.1,0.1-0.2,0.1-0.3
		c-0.2-0.1-0.3-0.1-0.3-0.2c-0.1,0.1-0.2,0.1-0.3,0.1l-0.3-0.1C129.5,148.1,129.4,148.2,129.3,148.5z M129.4,152L129.4,152
		c0,0.2,0.1,0.3,0.2,0.3l-0.3,0.5c0.1,0.3,0.2,0.4,0.3,0.4h0.1c0-0.1,0.1-0.3,0.2-0.6l-0.1-0.2c0-0.2,0.3-0.5,0.8-0.8
		c0-0.1-0.1-0.2-0.3-0.3H130c-0.2,0.4-0.4,0.6-0.5,0.6L129.4,152z M129.4,153.3v0.3h0.3C129.8,153.4,129.7,153.4,129.4,153.3
		L129.4,153.3z M130.9,153.7c-0.2,0.4-0.4,0.6-0.6,0.6v0.1c0,0.1,0.1,0.2,0.4,0.3c0.2-0.1,0.4-0.3,0.4-0.5
		C131.1,153.9,131,153.7,130.9,153.7z M132.3,154.5h0.2v0.3c0,0.1-0.1,0.2-0.3,0.3c-0.1,0-0.2-0.1-0.3-0.3
		C131.9,154.7,132,154.6,132.3,154.5z M131.9,152.9v0.2c0.1,0,0.3,0.1,0.4,0.2h0.1c0.1,0,0.2-0.1,0.3-0.3l-0.3-0.2
		C132.2,152.9,132,152.9,131.9,152.9z M132.7,149.5c0.1,0,0.1,0,0.3,0.1c0.2-0.1,0.6-0.2,1.1-0.3v-0.2c-0.2,0-0.3,0-0.3-0.1
		l-0.2,0.1l-0.2-0.1C133.1,149.1,132.9,149.2,132.7,149.5z M132.7,154L132.7,154l0.1,0.2h-0.1V154z M132.9,150.9v0.3h0.1
		c0-0.1,0-0.1,0.1-0.3L132.9,150.9z M134.1,154.1v0.2h0.1L134.1,154.1L134.1,154.1z M134.3,160.6h0.2v0.1L134.3,160.6L134.3,160.6z
		 M134.5,147.4v0.2c0.1,0,0.2-0.1,0.2-0.2H134.5z M136.2,147.1h0.3v0.2c0,0.1-0.2,0.2-0.7,0.3h-0.1c-0.1,0-0.2-0.1-0.2-0.2
		c0-0.1,0.1-0.2,0.2-0.2c0.1,0.1,0.2,0.1,0.3,0.1C136,147.3,136.1,147.2,136.2,147.1z M136.1,154.4c0.1,0.1,0.1,0.4,0.2,0.8
		c-0.1,0.2-0.2,0.3-0.3,0.3l-0.3-0.4v-0.4C135.7,154.5,135.8,154.4,136.1,154.4z M136.6,152.3c0.2,0,0.5-0.1,0.8-0.3h0.3
		c0.1,0,0.2,0.1,0.2,0.2l-0.2,0.3v0.1c0.4,0,0.6,0.1,0.6,0.3l-0.1,0.2l0.3,0.2l-0.1,0.2v0.1c0.2,0,0.3,0,0.4,0.1l0.1-0.2l-0.3-0.3
		c0-0.1,0-0.1,0.1-0.1c-0.1-0.2-0.2-0.4-0.2-0.7V152c-0.3,0-0.5-0.1-0.7-0.4h-0.1C137.1,151.8,136.7,152,136.6,152.3z M136.8,147
		h0.2v0.1L136.8,147L136.8,147z M136.9,147.9v0.3h0.2c0.1,0,0.2-0.1,0.3-0.3l-0.2-0.1C137.1,147.9,137,147.9,136.9,147.9z
		 M137.5,148.9v0.4c0,0.1,0.1,0.2,0.2,0.2c0.1-0.2,0.3-0.3,0.4-0.3V149C137.9,149,137.7,148.9,137.5,148.9z M138.9,148.4l-0.3,0.6
		h0.2l0.3-0.2c0.1,0.2,0.2,0.3,0.3,0.3c0.2-0.2,0.4-0.3,0.5-0.3v-0.1c-0.1,0-0.1,0-0.3-0.1c-0.1,0.1-0.2,0.1-0.3,0.1
		C139.2,148.6,139.1,148.4,138.9,148.4z M141,147.2l-0.1,0.2l0.1,0.5c-0.1,0.1-0.2,0.1-0.3,0.1l-0.2-0.1c-0.1,0.1-0.2,0.1-0.3,0.1
		l-0.4-0.6v-0.1h0.1l0.3,0.2C140.4,147.3,140.6,147.2,141,147.2z M139.8,152.3v0.2c0.1,0,0.2-0.1,0.3-0.3v-0.1H140
		C139.8,152.2,139.8,152.2,139.8,152.3z M141.3,149.4L141.3,149.4c0.2,0,0.3,0.1,0.3,0.2v0.1c0,0.1,0,0.1-0.1,0.1l0.1,0.2
		c-0.1,0.1-0.1,0.2-0.1,0.3c0.1,0,0.2,0.1,0.2,0.2v0.3c0,0.1-0.1,0.2-0.2,0.2h-0.3l-0.3-0.4v0.1c0.1,0.3,0.1,0.5,0.1,0.7l-0.3,0.3
		h-0.1l-0.2-0.1l0.1-0.2V151c-0.1,0-0.1,0-0.3-0.1c0.1-0.3,0.1-0.5,0.2-0.5c-0.1-0.2-0.2-0.3-0.2-0.4l0.2-0.1
		c0.1,0.1,0.3,0.2,0.5,0.2C141,149.6,141.2,149.4,141.3,149.4z M141,147.3h0.2v0.1L141,147.3L141,147.3z"/>
</g>
</svg>
