<?xml version="1.0" encoding="utf-8"?>
<!-- Generator: Adobe Illustrator 22.0.1, SVG Export Plug-In . SVG Version: 6.00 Build 0)  -->
<svg version="1.1" id="Layer_1" xmlns="http://www.w3.org/2000/svg" xmlns:xlink="http://www.w3.org/1999/xlink" x="0px" y="0px"
	 viewBox="0 0 300 250" style="enable-background:new 0 0 300 250;" xml:space="preserve">
<style type="text/css">
	.st0{fill:#0E4C87;}
	.st1{clip-path:url(#SVGID_2_);fill:#FFFFFF;}
	.st2{clip-path:url(#SVGID_4_);fill:url(#SVGID_5_);}
	.st3{clip-path:url(#SVGID_7_);fill:url(#SVGID_8_);}
	.st4{clip-path:url(#SVGID_10_);fill:url(#SVGID_11_);}
</style>
<path class="st0" d="M228.8,171.3v3.7h-6.5v17.6h-4.1v-17.6h-6.5v-3.7H228.8z M230.6,192.6h4.1v-10.7v-10.7h-4.1v10.7V192.6z
	 M256,192.6h-4.2l-2.2-5.2h-7.2l-2.2,5.2H236l9.1-21.6h1.8L256,192.6z M276,192.6h-4.2l-2.2-5.2h-7.2l-2.2,5.2H256l9.1-21.6h1.8
	L276,192.6z M248.1,183.9l-2.2-5.3l-2.2,5.3H248.1z M268.1,183.9l-2.2-5.3l-2.2,5.3H268.1z"/>
<g>
	<defs>
		<rect id="SVGID_1_" x="178.1" y="166.2" width="100.2" height="33.7"/>
	</defs>
	<clipPath id="SVGID_2_">
		<use xlink:href="#SVGID_1_"  style="overflow:visible;"/>
	</clipPath>
	<path class="st1" d="M196.7,194c1.8,0,3.5-0.8,4.7-2l5-5c1.2-1.2,1.9-2.8,1.9-4.6v-15.7h-15.7c-1.8,0-3.5,0.8-4.7,2l-5,5
		c-1.2,1.2-1.9,2.8-1.9,4.6V194H196.7z"/>
</g>
<g>
	<defs>
		<path id="SVGID_3_" d="M194.5,168c-2.8,0-5.2,2.3-5.2,5.1v1.8h10.8v10.8h1.7c2.9,0,5.2-2.3,5.2-5.2V168H194.5z"/>
	</defs>
	<clipPath id="SVGID_4_">
		<use xlink:href="#SVGID_3_"  style="overflow:visible;"/>
	</clipPath>
	
		<linearGradient id="SVGID_5_" gradientUnits="userSpaceOnUse" x1="1" y1="251.0814" x2="2" y2="251.0814" gradientTransform="matrix(12.2789 -12.2789 -12.2789 -12.2789 3265.3967 3275.6064)">
		<stop  offset="0" style="stop-color:#9EDDF9"/>
		<stop  offset="0.1" style="stop-color:#9EDDF9"/>
		<stop  offset="0.9" style="stop-color:#0B9EDA"/>
		<stop  offset="1" style="stop-color:#0B9EDA"/>
	</linearGradient>
	<polygon class="st2" points="180.5,176.9 198.1,159.2 215.8,176.9 198.1,194.5 	"/>
</g>
<g>
	<defs>
		<path id="SVGID_6_" d="M201.8,187.1h-13.9l-5.5,5.5h14.3c1.4,0,2.7-0.6,3.7-1.6l4.6-4.6l-0.1-0.1
			C204,186.8,202.9,187.1,201.8,187.1"/>
	</defs>
	<clipPath id="SVGID_7_">
		<use xlink:href="#SVGID_6_"  style="overflow:visible;"/>
	</clipPath>
	
		<linearGradient id="SVGID_8_" gradientUnits="userSpaceOnUse" x1="0.9558" y1="251.0442" x2="1.9558" y2="251.0442" gradientTransform="matrix(22.6382 0 0 -22.6382 160.7669 5872.6416)">
		<stop  offset="0" style="stop-color:#1DB0E6"/>
		<stop  offset="0.1146" style="stop-color:#1DACE2"/>
		<stop  offset="0.2645" style="stop-color:#1BA1D7"/>
		<stop  offset="0.434" style="stop-color:#1790C7"/>
		<stop  offset="0.6179" style="stop-color:#137AB4"/>
		<stop  offset="0.8114" style="stop-color:#06619F"/>
		<stop  offset="0.9" style="stop-color:#025595"/>
		<stop  offset="1" style="stop-color:#025595"/>
	</linearGradient>
	<rect x="182.4" y="186.3" class="st3" width="22.6" height="6.3"/>
</g>
<g>
	<defs>
		<path id="SVGID_9_" d="M184,174.6c-1,1-1.6,2.3-1.6,3.7v14.3l5.5-5.5v-13.9c0-1.1,0.3-2.2,0.8-3.1l-0.1-0.1L184,174.6z"/>
	</defs>
	<clipPath id="SVGID_10_">
		<use xlink:href="#SVGID_9_"  style="overflow:visible;"/>
	</clipPath>
	
		<linearGradient id="SVGID_11_" gradientUnits="userSpaceOnUse" x1="1.0442" y1="251.0442" x2="2.0442" y2="251.0442" gradientTransform="matrix(0 -22.6386 -22.6386 0 5868.8462 216.2367)">
		<stop  offset="0" style="stop-color:#0882BE"/>
		<stop  offset="0.22" style="stop-color:#0778B4"/>
		<stop  offset="0.6562" style="stop-color:#02609E"/>
		<stop  offset="0.85" style="stop-color:#025595"/>
		<stop  offset="1" style="stop-color:#025595"/>
	</linearGradient>
	<rect x="182.4" y="170" class="st4" width="6.3" height="22.6"/>
</g>
</svg>
