<?xml version="1.0" encoding="utf-8"?>
<!-- Generator: Adobe Illustrator 17.0.0, SVG Export Plug-In . SVG Version: 6.00 Build 0)  -->
<!DOCTYPE svg PUBLIC "-//W3C//DTD SVG 1.1//EN" "http://www.w3.org/Graphics/SVG/1.1/DTD/svg11.dtd">
<svg version="1.1" id="Layer_1" xmlns="http://www.w3.org/2000/svg" xmlns:xlink="http://www.w3.org/1999/xlink" x="0px" y="0px"
	 width="320px" height="50px" viewBox="0 0 320 50" style="enable-background:new 0 0 320 50;" xml:space="preserve">
<style type="text/css">
	.st0{fill:#231F20;}
</style>
<g>
	<path class="st0" d="M294.983,46.532c-0.695,0-1.301-0.486-1.301-1.386c0-1.02,0.749-2.11,1.774-2.639l0.54,0.252
		c-0.72,0.36-1.283,0.869-1.565,1.535c0.145-0.144,0.336-0.246,0.594-0.246c0.731,0,1.229,0.546,1.229,1.235
		C296.255,46.004,295.715,46.532,294.983,46.532z M294.989,44.553c-0.3,0-0.636,0.114-0.743,0.534
		c-0.006,0.065-0.006,0.132-0.006,0.197c0,0.432,0.359,0.792,0.755,0.792c0.396,0,0.708-0.306,0.708-0.762
		C295.703,44.883,295.409,44.553,294.989,44.553z"/>
	<path class="st0" d="M298.151,46.538c-0.695,0-1.307-0.636-1.307-1.991c0-1.344,0.611-1.985,1.307-1.985
		c0.684,0,1.308,0.642,1.308,1.985C299.459,45.902,298.835,46.538,298.151,46.538z M298.151,43.048c-0.39,0-0.755,0.42-0.755,1.499
		c0,1.092,0.365,1.505,0.755,1.505c0.384,0,0.756-0.413,0.756-1.505C298.907,43.468,298.535,43.048,298.151,43.048z"/>
	<path class="st0" d="M300.989,46.532c-0.294,0-0.569-0.066-0.726-0.15l-0.06-0.54c0.239,0.145,0.491,0.21,0.755,0.21
		c0.444,0,0.822-0.281,0.822-0.762c0-0.491-0.378-0.785-0.804-0.785c-0.282,0-0.48,0.036-0.66,0.102l0.061-1.967h1.673l-0.103,0.468
		h-1.049l-0.024,0.93c0.048-0.006,0.108-0.012,0.156-0.012c0.714,0,1.302,0.479,1.302,1.271
		C302.333,45.956,301.871,46.532,300.989,46.532z"/>
	<path class="st0" d="M303.588,46.586l-0.54-0.252c0.731-0.366,1.301-0.863,1.577-1.535c-0.144,0.144-0.342,0.246-0.605,0.246
		c-0.731,0-1.229-0.546-1.229-1.235c0-0.72,0.54-1.248,1.271-1.248c0.695,0,1.301,0.486,1.301,1.386
		C305.362,44.967,304.613,46.058,303.588,46.586z M304.049,43.054c-0.396,0-0.707,0.306-0.707,0.762
		c0,0.432,0.294,0.762,0.714,0.762c0.306,0,0.635-0.126,0.743-0.546c0.006-0.061,0.006-0.12,0.006-0.186
		C304.805,43.413,304.445,43.054,304.049,43.054z"/>
	<path class="st0" d="M306.678,46.466h-0.588l1.451-3.358h-1.757V42.64h2.536L306.678,46.466z"/>
	<path class="st0" d="M309.504,46.586l-0.54-0.252c0.731-0.366,1.301-0.863,1.577-1.535c-0.144,0.144-0.342,0.246-0.605,0.246
		c-0.731,0-1.229-0.546-1.229-1.235c0-0.72,0.54-1.248,1.271-1.248c0.695,0,1.301,0.486,1.301,1.386
		C311.278,44.967,310.529,46.058,309.504,46.586z M309.965,43.054c-0.396,0-0.707,0.306-0.707,0.762
		c0,0.432,0.294,0.762,0.714,0.762c0.306,0,0.635-0.126,0.743-0.546c0.006-0.061,0.006-0.12,0.006-0.186
		C310.721,43.413,310.361,43.054,309.965,43.054z"/>
	<path class="st0" d="M313.115,46.532c-0.486,0-0.966-0.187-1.164-0.342v-3.994h0.546v1.715c0.103-0.107,0.456-0.228,0.75-0.228
		c0.785,0,1.361,0.588,1.361,1.403C314.608,45.932,314.032,46.532,313.115,46.532z M313.193,44.175
		c-0.366,0-0.612,0.174-0.696,0.271v1.475c0.09,0.061,0.348,0.145,0.558,0.145c0.63,0,1.002-0.384,1.002-0.966
		C314.057,44.559,313.679,44.175,313.193,44.175z"/>
</g>
</svg>
