<?xml version="1.0" encoding="utf-8"?>
<!-- Generator: Adobe Illustrator 17.0.0, SVG Export Plug-In . SVG Version: 6.00 Build 0)  -->
<!DOCTYPE svg PUBLIC "-//W3C//DTD SVG 1.1//EN" "http://www.w3.org/Graphics/SVG/1.1/DTD/svg11.dtd">
<svg version="1.1" xmlns="http://www.w3.org/2000/svg" xmlns:xlink="http://www.w3.org/1999/xlink" x="0px" y="0px" width="320px"
	 height="50px" viewBox="0 0 320 50" style="enable-background:new 0 0 320 50;" xml:space="preserve">
<style type="text/css">
	.st0{fill:url(#SVGID_1_);}
	.st1{fill:#231F20;}
</style>
<g id="Layer_2">
	<g id="Layer_2_1_">
		<g id="Layer_3">
			<g id="Layer_2_2_">
				
					<radialGradient id="SVGID_1_" cx="667.0466" cy="-2697.7063" r="63.3165" gradientTransform="matrix(2.6752 0 0 -0.1631 -1663.4069 -414.5452)" gradientUnits="userSpaceOnUse">
					<stop  offset="0.2719" style="stop-color:#00C2FF;stop-opacity:0.9"/>
					<stop  offset="0.7601" style="stop-color:#00C2FF;stop-opacity:0"/>
				</radialGradient>
				<rect x="-24.955" y="-3.587" class="st0" width="407.455" height="69.479"/>
			</g>
		</g>
	</g>
</g>
<g id="Layer_1">
	<g>
		<path class="st1" d="M23.247,28.744l-2.396-3.517h-0.574v3.517H18.19v-8.938h3.264c1.527,0,2.886,1.023,2.886,2.704
			c0,1.037-0.617,1.891-1.373,2.241l2.844,3.993H23.247z M21.131,21.558h-0.854v2.003h0.854c0.561,0,1.121-0.309,1.121-0.995
			C22.252,21.894,21.692,21.558,21.131,21.558z"/>
		<path class="st1" d="M31.787,25.214l-0.911,0.925h-3.109c0.098,0.519,0.798,1.106,1.877,1.106c0.658,0,1.331-0.196,1.751-0.476
			l-0.196,1.765c-0.476,0.252-1.205,0.42-2.017,0.42c-1.933,0-3.488-1.345-3.488-3.418c0-2.045,1.485-3.348,3.306-3.348
			c1.765,0,2.844,1.219,2.844,2.536C31.843,24.877,31.814,25.088,31.787,25.214z M28.999,23.729c-0.602,0-1.106,0.462-1.232,1.037
			h2.143c0-0.042,0.014-0.084,0.014-0.14C29.924,24.191,29.545,23.729,28.999,23.729z"/>
		<path class="st1" d="M37.176,24.079h-1.653v2.354c0,0.547,0.294,0.771,0.84,0.771c0.238,0,0.378-0.014,0.532-0.084l-0.182,1.555
			c-0.196,0.099-0.546,0.168-0.953,0.168c-1.429,0-2.283-0.756-2.283-2.017V24.08h-1.065v-1.681h1.065V21.04l2.045-0.743v2.102
			h2.045L37.176,24.079z"/>
		<path class="st1" d="M39.372,21.53c-0.364,0-1.107-0.742-1.107-1.106s0.743-1.093,1.107-1.093s1.106,0.729,1.106,1.093
			S39.736,21.53,39.372,21.53z M38.335,28.744v-6.346h2.073v6.346H38.335z"/>
		<path class="st1" d="M45.715,24.583c-0.126-0.07-0.406-0.154-0.616-0.154c-0.658,0-1.261,0.35-1.261,1.359v2.956h-2.059v-6.346
			h2.031v1.415h0.014c0.21-0.995,0.952-1.527,1.807-1.527c0.196,0,0.435,0.028,0.588,0.084L45.715,24.583z"/>
		<path class="st1" d="M52.619,25.214l-0.911,0.925h-3.109c0.098,0.519,0.798,1.106,1.877,1.106c0.658,0,1.331-0.196,1.751-0.476
			l-0.196,1.765c-0.476,0.252-1.205,0.42-2.017,0.42c-1.933,0-3.488-1.345-3.488-3.418c0-2.045,1.485-3.348,3.306-3.348
			c1.765,0,2.844,1.219,2.844,2.536C52.675,24.877,52.646,25.088,52.619,25.214z M49.831,23.729c-0.602,0-1.106,0.462-1.232,1.037
			h2.143c0-0.042,0.014-0.084,0.014-0.14C50.756,24.191,50.377,23.729,49.831,23.729z"/>
		<path class="st1" d="M61.538,28.744V24.85c0-0.462-0.224-0.869-0.896-0.869c-0.658,0-0.953,0.393-0.953,0.896v3.867H57.63V24.85
			c0-0.462-0.224-0.869-0.896-0.869c-0.658,0-0.953,0.393-0.953,0.896v3.867h-2.059v-6.346h1.905v0.854h0.014
			c0.252-0.672,0.883-1.05,1.877-1.05c0.91,0,1.597,0.364,1.877,1.037c0.266-0.616,1.008-1.037,1.961-1.037
			c1.443,0,2.241,0.784,2.241,2.129v4.413C63.597,28.744,61.538,28.744,61.538,28.744z"/>
		<path class="st1" d="M70.749,25.214l-0.911,0.925h-3.109c0.098,0.519,0.798,1.106,1.877,1.106c0.658,0,1.331-0.196,1.751-0.476
			l-0.196,1.765c-0.476,0.252-1.205,0.42-2.017,0.42c-1.933,0-3.488-1.345-3.488-3.418c0-2.045,1.485-3.348,3.306-3.348
			c1.765,0,2.844,1.219,2.844,2.536C70.805,24.877,70.776,25.088,70.749,25.214z M67.961,23.729c-0.602,0-1.106,0.462-1.232,1.037
			h2.143c0-0.042,0.014-0.084,0.014-0.14C68.886,24.191,68.507,23.729,67.961,23.729z"/>
		<path class="st1" d="M75.857,28.744V24.85c0-0.462-0.308-0.869-0.938-0.869c-0.616,0-1.009,0.393-1.009,0.896v3.867h-2.059v-6.346
			h1.891v0.854h0.014c0.252-0.672,0.91-1.05,1.933-1.05c1.387,0,2.227,0.784,2.227,2.129v4.413
			C77.916,28.744,75.857,28.744,75.857,28.744z"/>
		<path class="st1" d="M83.403,24.079H81.75v2.354c0,0.547,0.294,0.771,0.84,0.771c0.238,0,0.378-0.014,0.532-0.084l-0.182,1.555
			c-0.196,0.099-0.546,0.168-0.953,0.168c-1.429,0-2.283-0.756-2.283-2.017V24.08h-1.065v-1.681h1.065V21.04l2.045-0.743v2.102
			h2.045L83.403,24.079z"/>
		<path class="st1" d="M92.139,29.024c-0.378-0.084-0.812-0.378-0.98-0.841c-0.28,0.519-0.882,0.771-1.653,0.771
			c-1.121,0-2.115-0.784-2.115-2.101c0-1.164,0.911-1.948,2.171-2.074l1.261-0.126v-0.21c0-0.378-0.308-0.63-0.994-0.63
			c-0.617,0-1.303,0.196-1.765,0.49L87.7,22.748c0.518-0.336,1.387-0.561,2.227-0.561c1.681,0,2.872,0.771,2.872,2.297v2.073
			c0,0.743,0.28,1.135,0.771,1.317L92.139,29.024z M90.822,25.97l-0.771,0.07c-0.532,0.042-0.77,0.421-0.77,0.799
			c0,0.337,0.252,0.616,0.644,0.616c0.49,0,0.896-0.378,0.896-0.925L90.822,25.97L90.822,25.97z"/>
		<path class="st1" d="M99,24.443c-0.42-0.266-0.854-0.406-1.359-0.406c-0.896,0-1.611,0.645-1.611,1.569
			c0,0.911,0.714,1.57,1.653,1.57c0.532,0,0.938-0.112,1.387-0.351l-0.182,1.751c-0.42,0.196-0.966,0.308-1.555,0.308
			c-1.779,0-3.432-1.261-3.432-3.306c0-2.073,1.667-3.32,3.39-3.32c0.84,0,1.527,0.168,2.087,0.476L99,24.443z"/>
		<path class="st1" d="M105.117,24.443c-0.42-0.266-0.854-0.406-1.359-0.406c-0.896,0-1.611,0.645-1.611,1.569
			c0,0.911,0.714,1.57,1.653,1.57c0.532,0,0.938-0.112,1.387-0.351l-0.182,1.751c-0.42,0.196-0.966,0.308-1.555,0.308
			c-1.779,0-3.432-1.261-3.432-3.306c0-2.073,1.667-3.32,3.39-3.32c0.84,0,1.527,0.168,2.087,0.476L105.117,24.443z"/>
		<path class="st1" d="M109.596,28.94c-1.919,0-3.459-1.359-3.459-3.376s1.541-3.376,3.459-3.376c1.905,0,3.46,1.359,3.46,3.376
			S111.501,28.94,109.596,28.94z M109.596,23.981c-0.77,0-1.429,0.672-1.429,1.611s0.659,1.611,1.429,1.611
			c0.756,0,1.429-0.673,1.429-1.611S110.353,23.981,109.596,23.981z"/>
		<path class="st1" d="M118.263,28.744v-0.868h-0.014c-0.252,0.672-0.924,1.05-1.947,1.05c-1.387,0-2.228-0.77-2.228-2.114v-4.413
			h2.059v3.895c0,0.462,0.322,0.868,0.953,0.868c0.616,0,0.995-0.406,0.995-0.91v-3.853h2.059v6.346L118.263,28.744L118.263,28.744z
			"/>
		<path class="st1" d="M125.486,28.744V24.85c0-0.462-0.308-0.869-0.938-0.869c-0.616,0-1.009,0.393-1.009,0.896v3.867h-2.059
			v-6.346h1.891v0.854h0.014c0.252-0.672,0.91-1.05,1.933-1.05c1.387,0,2.227,0.784,2.227,2.129v4.413
			C127.545,28.744,125.486,28.744,125.486,28.744z"/>
		<path class="st1" d="M133.032,24.079h-1.653v2.354c0,0.547,0.294,0.771,0.84,0.771c0.238,0,0.378-0.014,0.532-0.084l-0.182,1.555
			c-0.196,0.099-0.546,0.168-0.953,0.168c-1.429,0-2.283-0.756-2.283-2.017V24.08h-1.065v-1.681h1.065V21.04l2.045-0.743v2.102
			h2.045L133.032,24.079z"/>
		<path class="st1" d="M136.125,28.884c-0.869,0-1.499-0.182-2.017-0.448l-0.182-1.82c0.561,0.392,1.289,0.687,1.989,0.687
			c0.378,0,0.616-0.196,0.616-0.435c0-0.267-0.21-0.379-0.574-0.49c-1.219-0.351-1.947-0.967-1.947-2.074
			c0-1.247,1.009-2.045,2.381-2.045c0.785,0,1.555,0.21,1.877,0.378l-0.35,1.513c-0.308-0.168-0.812-0.35-1.317-0.35
			c-0.336,0-0.56,0.154-0.56,0.406c0,0.238,0.168,0.364,0.56,0.462c1.429,0.378,2.017,1.093,2.017,2.158
			C138.618,27.903,137.834,28.884,136.125,28.884z"/>
		<path class="st1" d="M149.764,28.8h-1.415l-0.854-2.521c-0.126-0.392-0.252-0.84-0.378-1.317h-0.028
			c-0.098,0.477-0.224,0.938-0.35,1.303l-0.854,2.535h-1.345l-2.213-6.401h1.877l0.785,2.409c0.112,0.364,0.238,0.812,0.308,1.219
			h0.028c0.07-0.393,0.182-0.854,0.308-1.219l0.798-2.409h1.555l0.798,2.395c0.126,0.392,0.21,0.827,0.294,1.233h0.028
			c0.084-0.406,0.196-0.854,0.322-1.233l0.798-2.395h1.751L149.764,28.8z"/>
		<path class="st1" d="M155.684,28.94c-1.919,0-3.459-1.359-3.459-3.376s1.541-3.376,3.459-3.376c1.905,0,3.46,1.359,3.46,3.376
			S157.589,28.94,155.684,28.94z M155.684,23.981c-0.77,0-1.429,0.672-1.429,1.611s0.659,1.611,1.429,1.611
			c0.757,0,1.429-0.673,1.429-1.611S156.44,23.981,155.684,23.981z"/>
		<path class="st1" d="M164.126,24.583c-0.126-0.07-0.406-0.154-0.616-0.154c-0.659,0-1.261,0.35-1.261,1.359v2.956h-2.06v-6.346
			h2.031v1.415h0.014c0.21-0.995,0.953-1.527,1.808-1.527c0.195,0,0.434,0.028,0.588,0.084L164.126,24.583z"/>
		<path class="st1" d="M169.292,28.744l-1.877-2.563H167.4v2.563h-2.031V18.77h2.031v6.206h0.015l1.904-2.577h2.241l-2.227,3.082
			l2.354,3.264h-2.395V28.744z"/>
		<path class="st1" d="M178.587,28.926c-1.345,0-2.437-0.462-3.054-0.938V18.77h1.989v3.853c0.267-0.21,0.938-0.42,1.597-0.42
			c1.751,0,3.194,1.247,3.194,3.25C182.313,27.413,181.066,28.926,178.587,28.926z M178.756,24.009c-0.589,0-1.037,0.28-1.233,0.49
			v2.423c0.21,0.154,0.645,0.309,1.037,0.309c1.051,0,1.709-0.715,1.709-1.64C180.269,24.709,179.652,24.009,178.756,24.009z"/>
		<path class="st1" d="M189.172,25.214l-0.91,0.925h-3.109c0.098,0.519,0.798,1.106,1.877,1.106c0.658,0,1.331-0.196,1.751-0.476
			l-0.196,1.765c-0.477,0.252-1.205,0.42-2.017,0.42c-1.934,0-3.488-1.345-3.488-3.418c0-2.045,1.484-3.348,3.306-3.348
			c1.765,0,2.844,1.219,2.844,2.536C189.229,24.877,189.2,25.088,189.172,25.214z M186.385,23.729c-0.603,0-1.106,0.462-1.232,1.037
			h2.143c0-0.042,0.015-0.084,0.015-0.14C187.31,24.191,186.931,23.729,186.385,23.729z"/>
		<path class="st1" d="M194.562,24.079h-1.653v2.354c0,0.547,0.294,0.771,0.841,0.771c0.238,0,0.378-0.014,0.532-0.084l-0.183,1.555
			c-0.196,0.099-0.546,0.168-0.952,0.168c-1.429,0-2.283-0.756-2.283-2.017V24.08H189.8v-1.681h1.064V21.04l2.045-0.743v2.102h2.045
			L194.562,24.079z"/>
		<path class="st1" d="M200.162,24.079h-1.653v2.354c0,0.547,0.294,0.771,0.841,0.771c0.238,0,0.378-0.014,0.532-0.084l-0.183,1.555
			c-0.196,0.099-0.546,0.168-0.952,0.168c-1.429,0-2.283-0.756-2.283-2.017V24.08H195.4v-1.681h1.064V21.04l2.045-0.743v2.102h2.045
			L200.162,24.079z"/>
		<path class="st1" d="M206.966,25.214l-0.91,0.925h-3.109c0.098,0.519,0.798,1.106,1.877,1.106c0.658,0,1.331-0.196,1.751-0.476
			l-0.196,1.765c-0.477,0.252-1.205,0.42-2.017,0.42c-1.934,0-3.488-1.345-3.488-3.418c0-2.045,1.484-3.348,3.306-3.348
			c1.765,0,2.844,1.219,2.844,2.536C207.022,24.877,206.994,25.088,206.966,25.214z M204.179,23.729
			c-0.603,0-1.106,0.462-1.232,1.037h2.143c0-0.042,0.015-0.084,0.015-0.14C205.104,24.191,204.725,23.729,204.179,23.729z"/>
		<path class="st1" d="M212.006,24.583c-0.126-0.07-0.406-0.154-0.616-0.154c-0.659,0-1.261,0.35-1.261,1.359v2.956h-2.06v-6.346
			h2.031v1.415h0.014c0.21-0.995,0.953-1.527,1.808-1.527c0.195,0,0.434,0.028,0.588,0.084L212.006,24.583z"/>
	</g>
</g>
</svg>
