<?xml version="1.0" encoding="utf-8"?>
<!-- Generator: Adobe Illustrator 17.0.0, SVG Export Plug-In . SVG Version: 6.00 Build 0)  -->
<!DOCTYPE svg PUBLIC "-//W3C//DTD SVG 1.1//EN" "http://www.w3.org/Graphics/SVG/1.1/DTD/svg11.dtd">
<svg version="1.1" xmlns="http://www.w3.org/2000/svg" xmlns:xlink="http://www.w3.org/1999/xlink" x="0px" y="0px" width="320px"
	 height="50px" viewBox="0 0 320 50" style="enable-background:new 0 0 320 50;" xml:space="preserve">
<style type="text/css">
	.st0{fill:url(#SVGID_1_);}
	.st1{fill:url(#SVGID_2_);}
	.st2{fill:#231F20;}
</style>
<g id="Layer_1">
	<g id="Layer_2_1_">
		<g id="Layer_3">
			<g id="Layer_2_2_">
				
					<radialGradient id="SVGID_1_" cx="667.0085" cy="-2634.5381" r="63.3165" gradientTransform="matrix(2.3209 0 0 -0.1631 -1447.1372 -413.6879)" gradientUnits="userSpaceOnUse">
					<stop  offset="0.2719" style="stop-color:#00C2FF;stop-opacity:0.9"/>
					<stop  offset="0.7601" style="stop-color:#00C2FF;stop-opacity:0"/>
				</radialGradient>
				<rect x="-25.771" y="-13.032" class="st0" width="353.492" height="69.479"/>
			</g>
		</g>
	</g>
	<g id="Layer_2_3_">
		<g id="Layer_3_1_">
			<g id="Layer_2_4_">
				
					<radialGradient id="SVGID_2_" cx="667.5111" cy="-2734.9326" r="63.3165" gradientTransform="matrix(2.0991 0 0 -0.1631 -1311.189 -414.1296)" gradientUnits="userSpaceOnUse">
					<stop  offset="0.2719" style="stop-color:#00C2FF;stop-opacity:0.9"/>
					<stop  offset="0.7601" style="stop-color:#00C2FF;stop-opacity:0"/>
				</radialGradient>
				<rect x="-24.604" y="2.9" class="st1" width="319.71" height="69.479"/>
			</g>
		</g>
	</g>
</g>
<g id="Layer_2">
	<g>
		<path class="st2" d="M26.493,14.339c-0.42-0.252-1.106-0.462-1.849-0.462c-1.583,0-2.857,1.064-2.857,2.717
			c0,1.639,1.261,2.731,2.956,2.731c0.743,0,1.401-0.14,1.863-0.392l-0.182,1.891c-0.477,0.224-1.121,0.336-2.031,0.336
			c-2.311,0-4.791-1.569-4.791-4.594c0-3.026,2.493-4.608,4.791-4.608c1.106,0,1.975,0.238,2.507,0.546L26.493,14.339z"/>
		<path class="st2" d="M30.985,21.231c-1.919,0-3.459-1.359-3.459-3.376s1.541-3.376,3.459-3.376c1.905,0,3.46,1.359,3.46,3.376
			S32.89,21.231,30.985,21.231z M30.985,16.272c-0.77,0-1.429,0.672-1.429,1.611s0.659,1.611,1.429,1.611
			c0.757,0,1.429-0.672,1.429-1.611S31.742,16.272,30.985,16.272z"/>
		<path class="st2" d="M39.498,21.035v-3.894c0-0.462-0.308-0.869-0.938-0.869c-0.616,0-1.009,0.392-1.009,0.896v3.866h-2.059
			v-6.345h1.891v0.854h0.014c0.252-0.673,0.91-1.051,1.933-1.051c1.387,0,2.227,0.784,2.227,2.129v4.413H39.498z"/>
		<path class="st2" d="M44.915,21.175c-0.869,0-1.499-0.182-2.017-0.448l-0.182-1.821c0.561,0.393,1.289,0.687,1.989,0.687
			c0.378,0,0.616-0.196,0.616-0.434c0-0.266-0.21-0.378-0.574-0.49c-1.219-0.35-1.947-0.967-1.947-2.073
			c0-1.247,1.009-2.045,2.381-2.045c0.785,0,1.555,0.21,1.877,0.378l-0.35,1.513c-0.308-0.168-0.812-0.351-1.317-0.351
			c-0.336,0-0.56,0.154-0.56,0.406c0,0.238,0.168,0.364,0.56,0.462c1.429,0.378,2.017,1.093,2.017,2.157
			C47.408,20.194,46.624,21.175,44.915,21.175z"/>
		<path class="st2" d="M51.579,21.231c-1.919,0-3.459-1.359-3.459-3.376s1.541-3.376,3.459-3.376c1.905,0,3.46,1.359,3.46,3.376
			S53.484,21.231,51.579,21.231z M51.579,16.272c-0.77,0-1.429,0.672-1.429,1.611s0.659,1.611,1.429,1.611
			c0.757,0,1.429-0.672,1.429-1.611S52.335,16.272,51.579,16.272z"/>
		<path class="st2" d="M58.256,21.287c-1.303-0.056-2.171-0.728-2.171-2.255v-7.97h2.031v7.718c0,0.519,0.294,0.799,0.854,0.841
			L58.256,21.287z"/>
		<path class="st2" d="M60.888,13.821c-0.364,0-1.107-0.743-1.107-1.106c0-0.364,0.743-1.093,1.107-1.093
			c0.364,0,1.106,0.729,1.106,1.093C61.994,13.078,61.251,13.821,60.888,13.821z M59.851,21.035v-6.345h2.073v6.345H59.851z"/>
		<path class="st2" d="M68.015,21.035V20.25h-0.014c-0.351,0.645-1.079,0.967-1.961,0.967c-1.555,0-3.053-1.177-3.053-3.348
			c0-2.045,1.457-3.376,3.222-3.376c0.672,0,1.358,0.224,1.611,0.434v-3.866h2.003v9.973H68.015z M67.819,16.875
			c-0.196-0.266-0.617-0.574-1.247-0.574c-0.896,0-1.527,0.7-1.527,1.611c0,0.91,0.63,1.611,1.527,1.611
			c0.602,0,1.022-0.322,1.247-0.659V16.875z"/>
		<path class="st2" d="M75.659,21.315c-0.378-0.084-0.812-0.378-0.98-0.84c-0.28,0.518-0.882,0.77-1.653,0.77
			c-1.121,0-2.115-0.784-2.115-2.101c0-1.163,0.911-1.947,2.171-2.073l1.261-0.126v-0.21c0-0.378-0.308-0.63-0.994-0.63
			c-0.617,0-1.303,0.196-1.765,0.49l-0.364-1.555c0.518-0.336,1.387-0.561,2.227-0.561c1.681,0,2.872,0.771,2.872,2.297v2.073
			c0,0.742,0.28,1.134,0.771,1.316L75.659,21.315z M74.342,18.261l-0.771,0.07c-0.532,0.042-0.77,0.42-0.77,0.799
			c0,0.336,0.252,0.616,0.644,0.616c0.49,0,0.896-0.378,0.896-0.925V18.261z"/>
		<path class="st2" d="M81.931,16.37h-1.653v2.354c0,0.546,0.294,0.77,0.84,0.77c0.238,0,0.378-0.014,0.533-0.084l-0.182,1.555
			c-0.196,0.098-0.546,0.168-0.953,0.168c-1.429,0-2.283-0.756-2.283-2.017V16.37h-1.064v-1.681h1.064v-1.359l2.045-0.743v2.102
			h2.045L81.931,16.37z"/>
		<path class="st2" d="M84.127,13.821c-0.364,0-1.107-0.743-1.107-1.106c0-0.364,0.743-1.093,1.107-1.093
			c0.364,0,1.106,0.729,1.106,1.093C85.234,13.078,84.491,13.821,84.127,13.821z M83.091,21.035v-6.345h2.073v6.345H83.091z"/>
		<path class="st2" d="M90.541,21.035v-3.894c0-0.462-0.308-0.869-0.938-0.869c-0.616,0-1.009,0.392-1.009,0.896v3.866h-2.059
			v-6.345h1.891v0.854h0.014c0.252-0.673,0.91-1.051,1.933-1.051c1.387,0,2.227,0.784,2.227,2.129v4.413H90.541z"/>
		<path class="st2" d="M96.602,24.271c-1.849,0-3.082-1.051-3.082-2.381c0-0.966,0.644-1.541,1.303-1.709l-0.812-0.812
			c0.056-0.406,0.406-0.756,0.771-0.911c-0.477-0.294-0.925-0.896-0.925-1.695c0-1.345,0.967-2.283,2.62-2.283
			c0.378,0,0.672,0.056,0.938,0.126c0.28,0.07,0.588,0.112,0.911,0.112c0.35,0,0.714-0.084,0.995-0.21l0.378,1.569
			c-0.196,0.112-0.504,0.21-0.784,0.196c0.07,0.126,0.154,0.42,0.154,0.645c0,1.064-0.84,1.961-2.073,2.045
			c-0.252,0.014-0.42,0.07-0.42,0.238c0,0.07,0.056,0.154,0.168,0.196l0.98,0.35c1.247,0.448,1.919,1.079,1.919,2.241
			C99.642,23.29,98.451,24.271,96.602,24.271z M97.036,21.287l-0.756-0.21c-0.49,0.014-0.854,0.364-0.854,0.827
			c0,0.434,0.378,0.798,1.121,0.798c0.729,0,1.121-0.336,1.121-0.701C97.667,21.707,97.442,21.399,97.036,21.287z M96.476,15.978
			c-0.462,0-0.812,0.35-0.812,0.756c0,0.42,0.35,0.756,0.812,0.756c0.448,0,0.812-0.336,0.812-0.756
			C97.289,16.328,96.952,15.978,96.476,15.978z"/>
		<path class="st2" d="M108.167,21.315c-0.378-0.084-0.812-0.378-0.98-0.84c-0.28,0.518-0.883,0.77-1.653,0.77
			c-1.121,0-2.115-0.784-2.115-2.101c0-1.163,0.911-1.947,2.171-2.073l1.261-0.126v-0.21c0-0.378-0.308-0.63-0.995-0.63
			c-0.616,0-1.302,0.196-1.765,0.49l-0.364-1.555c0.518-0.336,1.387-0.561,2.227-0.561c1.681,0,2.872,0.771,2.872,2.297v2.073
			c0,0.742,0.28,1.134,0.771,1.316L108.167,21.315z M106.85,18.261l-0.77,0.07c-0.533,0.042-0.771,0.42-0.771,0.799
			c0,0.336,0.252,0.616,0.644,0.616c0.49,0,0.896-0.378,0.896-0.925V18.261z"/>
		<path class="st2" d="M115.041,16.734c-0.42-0.266-0.854-0.406-1.359-0.406c-0.896,0-1.611,0.645-1.611,1.569
			c0,0.911,0.714,1.569,1.653,1.569c0.532,0,0.938-0.112,1.387-0.35l-0.182,1.751c-0.42,0.196-0.966,0.308-1.555,0.308
			c-1.779,0-3.432-1.261-3.432-3.306c0-2.073,1.667-3.32,3.39-3.32c0.84,0,1.527,0.168,2.087,0.476L115.041,16.734z"/>
		<path class="st2" d="M121.172,16.734c-0.42-0.266-0.854-0.406-1.359-0.406c-0.896,0-1.611,0.645-1.611,1.569
			c0,0.911,0.714,1.569,1.653,1.569c0.532,0,0.938-0.112,1.387-0.35l-0.182,1.751c-0.42,0.196-0.966,0.308-1.555,0.308
			c-1.779,0-3.432-1.261-3.432-3.306c0-2.073,1.667-3.32,3.39-3.32c0.84,0,1.527,0.168,2.087,0.476L121.172,16.734z"/>
		<path class="st2" d="M125.665,21.231c-1.919,0-3.459-1.359-3.459-3.376s1.541-3.376,3.459-3.376c1.905,0,3.46,1.359,3.46,3.376
			S127.57,21.231,125.665,21.231z M125.665,16.272c-0.77,0-1.429,0.672-1.429,1.611s0.659,1.611,1.429,1.611
			c0.756,0,1.429-0.672,1.429-1.611S126.421,16.272,125.665,16.272z"/>
		<path class="st2" d="M134.332,21.035v-0.869h-0.014c-0.252,0.672-0.924,1.051-1.947,1.051c-1.387,0-2.228-0.771-2.228-2.115
			v-4.412h2.059v3.894c0,0.462,0.322,0.868,0.953,0.868c0.616,0,0.995-0.406,0.995-0.91v-3.852h2.059v6.345H134.332z"/>
		<path class="st2" d="M141.556,21.035v-3.894c0-0.462-0.308-0.869-0.938-0.869c-0.616,0-1.009,0.392-1.009,0.896v3.866h-2.059
			v-6.345h1.891v0.854h0.014c0.252-0.673,0.91-1.051,1.933-1.051c1.387,0,2.227,0.784,2.227,2.129v4.413H141.556z"/>
		<path class="st2" d="M149.102,16.37h-1.653v2.354c0,0.546,0.294,0.77,0.84,0.77c0.238,0,0.378-0.014,0.533-0.084l-0.182,1.555
			c-0.196,0.098-0.546,0.168-0.953,0.168c-1.429,0-2.283-0.756-2.283-2.017V16.37h-1.064v-1.681h1.064v-1.359l2.045-0.743v2.102
			h2.045L149.102,16.37z"/>
		<path class="st2" d="M152.194,21.175c-0.868,0-1.499-0.182-2.017-0.448l-0.182-1.821c0.561,0.393,1.289,0.687,1.989,0.687
			c0.379,0,0.616-0.196,0.616-0.434c0-0.266-0.21-0.378-0.574-0.49c-1.218-0.35-1.947-0.967-1.947-2.073
			c0-1.247,1.008-2.045,2.381-2.045c0.784,0,1.555,0.21,1.877,0.378l-0.351,1.513c-0.308-0.168-0.812-0.351-1.316-0.351
			c-0.336,0-0.561,0.154-0.561,0.406c0,0.238,0.169,0.364,0.561,0.462c1.429,0.378,2.018,1.093,2.018,2.157
			C154.688,20.194,153.903,21.175,152.194,21.175z"/>
		<path class="st2" d="M166.646,21.035v-3.894c0-0.462-0.225-0.869-0.896-0.869c-0.658,0-0.952,0.392-0.952,0.896v3.866h-2.06
			v-3.894c0-0.462-0.224-0.869-0.896-0.869c-0.658,0-0.953,0.392-0.953,0.896v3.866h-2.06v-6.345h1.905v0.854h0.014
			c0.252-0.673,0.883-1.051,1.877-1.051c0.911,0,1.597,0.364,1.877,1.037c0.267-0.616,1.009-1.037,1.961-1.037
			c1.443,0,2.241,0.784,2.241,2.129v4.413H166.646z"/>
		<path class="st2" d="M174.512,21.315c-0.378-0.084-0.812-0.378-0.98-0.84c-0.279,0.518-0.882,0.77-1.652,0.77
			c-1.121,0-2.115-0.784-2.115-2.101c0-1.163,0.91-1.947,2.171-2.073l1.261-0.126v-0.21c0-0.378-0.308-0.63-0.994-0.63
			c-0.616,0-1.303,0.196-1.766,0.49l-0.364-1.555c0.519-0.336,1.388-0.561,2.228-0.561c1.681,0,2.872,0.771,2.872,2.297v2.073
			c0,0.742,0.279,1.134,0.771,1.316L174.512,21.315z M173.195,18.261l-0.771,0.07c-0.532,0.042-0.771,0.42-0.771,0.799
			c0,0.336,0.253,0.616,0.645,0.616c0.49,0,0.896-0.378,0.896-0.925V18.261z"/>
		<path class="st2" d="M180.237,20.404c-0.967,2.549-1.975,3.474-3.166,3.936l-1.261-1.261c1.022-0.392,1.808-1.134,2.325-2.479
			l-2.283-5.911h1.989l0.925,2.465c0.14,0.364,0.28,0.798,0.378,1.247h0.028c0.126-0.435,0.266-0.883,0.406-1.247l0.925-2.465h1.891
			L180.237,20.404z"/>
	</g>
	<g>
		<path class="st2" d="M24.266,35.314c-0.378-0.084-0.812-0.378-0.98-0.841c-0.28,0.519-0.883,0.771-1.653,0.771
			c-1.121,0-2.115-0.784-2.115-2.101c0-1.163,0.911-1.947,2.171-2.073l1.261-0.126v-0.21c0-0.379-0.308-0.631-0.995-0.631
			c-0.616,0-1.302,0.196-1.765,0.49l-0.364-1.555c0.518-0.336,1.387-0.561,2.227-0.561c1.681,0,2.872,0.771,2.872,2.298v2.072
			c0,0.743,0.28,1.135,0.771,1.317L24.266,35.314z M22.949,32.261l-0.77,0.07c-0.533,0.042-0.771,0.42-0.771,0.798
			c0,0.336,0.252,0.616,0.644,0.616c0.49,0,0.896-0.378,0.896-0.924V32.261z"/>
		<path class="st2" d="M31.126,30.734c-0.42-0.267-0.854-0.406-1.359-0.406c-0.896,0-1.611,0.645-1.611,1.568
			c0,0.91,0.714,1.568,1.653,1.568c0.532,0,0.938-0.111,1.387-0.35l-0.182,1.751c-0.42,0.196-0.966,0.308-1.555,0.308
			c-1.779,0-3.432-1.26-3.432-3.306c0-2.072,1.667-3.319,3.39-3.319c0.84,0,1.527,0.168,2.087,0.477L31.126,30.734z"/>
		<path class="st2" d="M36.558,35.034v-3.894c0-0.463-0.322-0.869-0.953-0.869c-0.616,0-0.995,0.393-0.995,0.896v3.866h-2.059
			v-9.974h2.031v4.217h0.014c0.322-0.49,0.911-0.784,1.793-0.784c1.401,0,2.228,0.784,2.228,2.129v4.412H36.558z"/>
		<path class="st2" d="M41.008,27.82c-0.364,0-1.107-0.742-1.107-1.106s0.743-1.093,1.107-1.093c0.364,0,1.106,0.729,1.106,1.093
			S41.372,27.82,41.008,27.82z M39.971,35.034v-6.345h2.073v6.345H39.971z"/>
		<path class="st2" d="M49.186,31.504l-0.911,0.925h-3.109c0.098,0.519,0.798,1.106,1.877,1.106c0.658,0,1.331-0.196,1.751-0.476
			l-0.196,1.765c-0.476,0.252-1.205,0.42-2.017,0.42c-1.933,0-3.488-1.345-3.488-3.418c0-2.045,1.485-3.348,3.306-3.348
			c1.765,0,2.844,1.219,2.844,2.536C49.242,31.168,49.214,31.378,49.186,31.504z M46.398,30.02c-0.602,0-1.106,0.463-1.232,1.037
			h2.143c0-0.042,0.014-0.084,0.014-0.141C47.323,30.482,46.945,30.02,46.398,30.02z"/>
		<path class="st2" d="M53.539,35.09h-1.541l-2.437-6.4h1.989l0.896,2.423c0.126,0.336,0.252,0.812,0.351,1.232h0.028
			c0.098-0.406,0.238-0.896,0.364-1.232l0.896-2.423h1.905L53.539,35.09z"/>
		<path class="st2" d="M62.29,31.504l-0.911,0.925H58.27c0.098,0.519,0.798,1.106,1.877,1.106c0.658,0,1.331-0.196,1.751-0.476
			l-0.196,1.765c-0.476,0.252-1.205,0.42-2.017,0.42c-1.933,0-3.488-1.345-3.488-3.418c0-2.045,1.485-3.348,3.306-3.348
			c1.765,0,2.844,1.219,2.844,2.536C62.346,31.168,62.318,31.378,62.29,31.504z M59.502,30.02c-0.602,0-1.106,0.463-1.232,1.037
			h2.143c0-0.042,0.014-0.084,0.014-0.141C60.427,30.482,60.049,30.02,59.502,30.02z"/>
		<path class="st2" d="M68.546,35.174c-0.869,0-1.499-0.182-2.017-0.448l-0.182-1.82c0.561,0.392,1.289,0.687,1.989,0.687
			c0.378,0,0.616-0.196,0.616-0.435c0-0.267-0.21-0.378-0.574-0.49c-1.219-0.351-1.947-0.967-1.947-2.073
			c0-1.246,1.009-2.045,2.381-2.045c0.785,0,1.555,0.21,1.877,0.378l-0.35,1.513c-0.308-0.168-0.812-0.35-1.317-0.35
			c-0.336,0-0.56,0.154-0.56,0.406c0,0.238,0.168,0.364,0.56,0.462c1.429,0.378,2.017,1.093,2.017,2.157
			C71.039,34.193,70.255,35.174,68.546,35.174z"/>
		<path class="st2" d="M75.21,35.23c-1.919,0-3.459-1.359-3.459-3.376s1.541-3.376,3.459-3.376c1.905,0,3.46,1.359,3.46,3.376
			S77.115,35.23,75.21,35.23z M75.21,30.271c-0.77,0-1.429,0.673-1.429,1.611s0.659,1.61,1.429,1.61c0.756,0,1.429-0.672,1.429-1.61
			S75.966,30.271,75.21,30.271z"/>
		<path class="st2" d="M87.533,35.034v-3.894c0-0.463-0.224-0.869-0.896-0.869c-0.658,0-0.953,0.393-0.953,0.896v3.866h-2.059
			v-3.894c0-0.463-0.224-0.869-0.896-0.869c-0.658,0-0.953,0.393-0.953,0.896v3.866h-2.059v-6.345h1.905v0.854h0.014
			c0.252-0.672,0.883-1.05,1.877-1.05c0.91,0,1.597,0.364,1.877,1.036c0.266-0.616,1.008-1.036,1.961-1.036
			c1.443,0,2.241,0.784,2.241,2.129v4.412H87.533z"/>
		<path class="st2" d="M96.744,31.504l-0.911,0.925h-3.109c0.098,0.519,0.798,1.106,1.877,1.106c0.658,0,1.331-0.196,1.751-0.476
			l-0.196,1.765c-0.476,0.252-1.205,0.42-2.017,0.42c-1.933,0-3.488-1.345-3.488-3.418c0-2.045,1.485-3.348,3.306-3.348
			c1.765,0,2.844,1.219,2.844,2.536C96.8,31.168,96.771,31.378,96.744,31.504z M93.956,30.02c-0.602,0-1.106,0.463-1.232,1.037
			h2.143c0-0.042,0.014-0.084,0.014-0.141C94.88,30.482,94.502,30.02,93.956,30.02z"/>
		<path class="st2" d="M102.132,30.37h-1.653v2.353c0,0.547,0.294,0.771,0.84,0.771c0.238,0,0.378-0.014,0.532-0.084l-0.182,1.555
			c-0.196,0.099-0.546,0.168-0.953,0.168c-1.429,0-2.283-0.756-2.283-2.017V30.37H97.37v-1.681h1.065V27.33l2.045-0.742v2.102h2.045
			L102.132,30.37z"/>
		<path class="st2" d="M107.285,35.034v-3.894c0-0.463-0.322-0.869-0.953-0.869c-0.616,0-0.995,0.393-0.995,0.896v3.866h-2.059
			v-9.974h2.031v4.217h0.014c0.322-0.49,0.911-0.784,1.793-0.784c1.401,0,2.228,0.784,2.228,2.129v4.412H107.285z"/>
		<path class="st2" d="M111.735,27.82c-0.364,0-1.107-0.742-1.107-1.106s0.743-1.093,1.107-1.093c0.364,0,1.106,0.729,1.106,1.093
			S112.099,27.82,111.735,27.82z M110.698,35.034v-6.345h2.073v6.345H110.698z"/>
		<path class="st2" d="M118.148,35.034v-3.894c0-0.463-0.308-0.869-0.938-0.869c-0.616,0-1.009,0.393-1.009,0.896v3.866h-2.059
			v-6.345h1.891v0.854h0.014c0.252-0.672,0.91-1.05,1.933-1.05c1.387,0,2.227,0.784,2.227,2.129v4.412H118.148z"/>
		<path class="st2" d="M124.209,38.27c-1.849,0-3.082-1.05-3.082-2.381c0-0.967,0.644-1.541,1.303-1.709l-0.812-0.812
			c0.056-0.406,0.406-0.756,0.771-0.91c-0.477-0.294-0.925-0.896-0.925-1.695c0-1.345,0.967-2.283,2.62-2.283
			c0.378,0,0.672,0.057,0.938,0.126c0.28,0.07,0.588,0.112,0.911,0.112c0.35,0,0.714-0.084,0.995-0.21l0.378,1.569
			c-0.196,0.111-0.504,0.21-0.784,0.195c0.07,0.126,0.154,0.421,0.154,0.645c0,1.064-0.84,1.961-2.073,2.045
			c-0.252,0.014-0.42,0.07-0.42,0.238c0,0.07,0.056,0.154,0.168,0.196l0.98,0.35c1.247,0.448,1.919,1.079,1.919,2.241
			C127.249,37.289,126.059,38.27,124.209,38.27z M124.644,35.286l-0.756-0.21c-0.49,0.014-0.854,0.364-0.854,0.826
			c0,0.435,0.378,0.799,1.121,0.799c0.729,0,1.121-0.336,1.121-0.7C125.274,35.707,125.05,35.398,124.644,35.286z M124.083,29.978
			c-0.462,0-0.812,0.351-0.812,0.757c0,0.42,0.35,0.756,0.812,0.756c0.448,0,0.812-0.336,0.812-0.756
			C124.896,30.328,124.56,29.978,124.083,29.978z"/>
		<path class="st2" d="M133.351,35.174c-0.869,0-1.499-0.182-2.017-0.448l-0.182-1.82c0.561,0.392,1.289,0.687,1.989,0.687
			c0.378,0,0.616-0.196,0.616-0.435c0-0.267-0.21-0.378-0.574-0.49c-1.219-0.351-1.947-0.967-1.947-2.073
			c0-1.246,1.009-2.045,2.381-2.045c0.785,0,1.555,0.21,1.877,0.378l-0.35,1.513c-0.308-0.168-0.812-0.35-1.317-0.35
			c-0.336,0-0.56,0.154-0.56,0.406c0,0.238,0.168,0.364,0.56,0.462c1.429,0.378,2.017,1.093,2.017,2.157
			C135.844,34.193,135.06,35.174,133.351,35.174z"/>
		<path class="st2" d="M143.728,35.09h-1.415l-0.854-2.521c-0.126-0.392-0.252-0.84-0.378-1.316h-0.028
			c-0.098,0.477-0.224,0.938-0.351,1.303l-0.854,2.535h-1.345l-2.213-6.4h1.877l0.785,2.409c0.112,0.363,0.238,0.812,0.308,1.218
			h0.028c0.07-0.392,0.182-0.854,0.308-1.218l0.798-2.409h1.555l0.798,2.395c0.126,0.393,0.21,0.826,0.294,1.232h0.028
			c0.084-0.406,0.196-0.854,0.322-1.232l0.799-2.395h1.751L143.728,35.09z"/>
		<path class="st2" d="M152.323,31.504l-0.91,0.925h-3.11c0.098,0.519,0.798,1.106,1.877,1.106c0.658,0,1.331-0.196,1.75-0.476
			l-0.195,1.765c-0.477,0.252-1.205,0.42-2.018,0.42c-1.933,0-3.488-1.345-3.488-3.418c0-2.045,1.485-3.348,3.306-3.348
			c1.765,0,2.843,1.219,2.843,2.536C152.378,31.168,152.351,31.378,152.323,31.504z M149.535,30.02
			c-0.602,0-1.106,0.463-1.232,1.037h2.143c0-0.042,0.014-0.084,0.014-0.141C150.459,30.482,150.082,30.02,149.535,30.02z"/>
		<path class="st2" d="M159.182,31.504l-0.91,0.925h-3.109c0.098,0.519,0.798,1.106,1.877,1.106c0.658,0,1.331-0.196,1.751-0.476
			l-0.196,1.765c-0.477,0.252-1.205,0.42-2.017,0.42c-1.934,0-3.488-1.345-3.488-3.418c0-2.045,1.484-3.348,3.306-3.348
			c1.765,0,2.844,1.219,2.844,2.536C159.239,31.168,159.21,31.378,159.182,31.504z M156.395,30.02c-0.603,0-1.106,0.463-1.232,1.037
			h2.143c0-0.042,0.015-0.084,0.015-0.141C157.32,30.482,156.941,30.02,156.395,30.02z"/>
		<path class="st2" d="M164.572,30.37h-1.653v2.353c0,0.547,0.294,0.771,0.841,0.771c0.238,0,0.378-0.014,0.532-0.084l-0.183,1.555
			c-0.196,0.099-0.546,0.168-0.952,0.168c-1.429,0-2.284-0.756-2.284-2.017V30.37h-1.064v-1.681h1.064V27.33l2.045-0.742v2.102
			h2.045L164.572,30.37z"/>
		<path class="st2" d="M166.572,35.23c-0.378,0-1.162-0.784-1.162-1.163c0-0.364,0.784-1.148,1.162-1.148s1.163,0.784,1.163,1.148
			C167.735,34.446,166.95,35.23,166.572,35.23z"/>
	</g>
</g>
</svg>
