<?xml version="1.0" encoding="utf-8"?>
<!-- Generator: Adobe Illustrator 17.0.0, SVG Export Plug-In . SVG Version: 6.00 Build 0)  -->
<!DOCTYPE svg PUBLIC "-//W3C//DTD SVG 1.1//EN" "http://www.w3.org/Graphics/SVG/1.1/DTD/svg11.dtd">
<svg version="1.1" id="Layer_1" xmlns="http://www.w3.org/2000/svg" xmlns:xlink="http://www.w3.org/1999/xlink" x="0px" y="0px"
	 width="320px" height="50px" viewBox="0 0 320 50" style="enable-background:new 0 0 320 50;" xml:space="preserve">
<style type="text/css">
	.st0{fill:#F9E038;}
	.st1{fill:#231F20;}
</style>
<g>
	<path class="st0" d="M262.442,6.776c0,0-5,0-5,5v3.139c0,0,0,5,5,5h40.524c0,0,5,0,5-5v-3.139c0,0,0-5-5-5H262.442z"/>
</g>
<g>
	<path class="st1" d="M268.306,14.802v0.747h-2.396V11.78h0.879v3.021H268.306z"/>
	<path class="st1" d="M269.655,12.511v0.763h1.428v0.709h-1.428v0.835h1.812v0.73h-2.691V11.78h2.691v0.731H269.655z"/>
	<path class="st1" d="M275.245,15.549h-0.95l-0.231-0.774h-1.219l-0.236,0.774h-0.774l1.208-3.769h1.021L275.245,15.549z
		 M273.86,14.082l-0.4-1.324l-0.401,1.324H273.86z"/>
	<path class="st1" d="M276.629,15.549h-0.879V11.78h1.587c0.335,0,0.676,0.006,0.967,0.192c0.308,0.203,0.479,0.571,0.479,0.939
		c0,0.429-0.248,0.824-0.654,0.972l0.698,1.665h-0.979l-0.576-1.489h-0.643V15.549z M276.629,13.412h0.483
		c0.181,0,0.379,0.017,0.538-0.077c0.143-0.088,0.22-0.264,0.22-0.428c0-0.148-0.088-0.308-0.215-0.385
		c-0.147-0.093-0.4-0.071-0.565-0.071h-0.461V13.412z"/>
	<path class="st1" d="M282.347,15.549h-0.753l-1.444-2.532h-0.022v2.532h-0.681V11.78h0.95l1.258,2.214h0.011V11.78h0.682V15.549z"
		/>
	<path class="st1" d="M286.906,15.549h-0.604l-0.917-3.071h-0.011v3.071h-0.742V11.78h1.379l0.659,2.258l0.692-2.258h1.379v3.769
		h-0.879v-3.071h-0.022L286.906,15.549z"/>
	<path class="st1" d="M289.791,15.011c-0.275-0.39-0.396-0.879-0.396-1.352c0-1,0.5-1.934,1.614-1.934
		c0.5,0,0.896,0.165,1.198,0.577c0.269,0.368,0.406,0.901,0.406,1.357c0,0.429-0.115,0.95-0.357,1.308
		c-0.291,0.428-0.736,0.637-1.247,0.637S290.087,15.428,289.791,15.011z M290.438,12.874c-0.088,0.225-0.12,0.549-0.12,0.786
		c0,0.473,0.071,1.225,0.691,1.225c0.303,0,0.468-0.148,0.566-0.429c0.088-0.23,0.115-0.543,0.115-0.791
		c0-0.274-0.027-0.599-0.138-0.851c-0.109-0.253-0.269-0.368-0.544-0.368C290.708,12.445,290.543,12.599,290.438,12.874z"/>
	<path class="st1" d="M294.157,15.549h-0.879V11.78h1.587c0.335,0,0.676,0.006,0.967,0.192c0.308,0.203,0.479,0.571,0.479,0.939
		c0,0.429-0.247,0.824-0.654,0.972l0.698,1.665h-0.979L294.8,14.06h-0.643V15.549z M294.157,13.412h0.483
		c0.181,0,0.379,0.017,0.538-0.077c0.143-0.088,0.22-0.264,0.22-0.428c0-0.148-0.088-0.308-0.214-0.385
		c-0.148-0.093-0.401-0.071-0.566-0.071h-0.461V13.412z"/>
	<path class="st1" d="M297.853,12.511v0.763h1.428v0.709h-1.428v0.835h1.812v0.73h-2.691V11.78h2.691v0.731H297.853z"/>
</g>
</svg>
