<svg id="Layer_1" xmlns="http://www.w3.org/2000/svg" viewBox="0 0 320 50"><style>.st0{fill:#fff}</style><path class="st0" d="M6 43.9v-4l-.8.1.1-.5 1.3-.1v4.5H6zM9.1 44c-.8 0-1.5-.7-1.5-2.3 0-1.6.7-2.3 1.5-2.3s1.5.7 1.5 2.3c0 1.6-.7 2.3-1.5 2.3zm0-4.1c-.5 0-.9.5-.9 1.8s.4 1.8.9 1.8c.4 0 .9-.5.9-1.8-.1-1.3-.5-1.8-.9-1.8zM12.8 44c-.8 0-1.5-.7-1.5-2.3 0-1.6.7-2.3 1.5-2.3s1.5.7 1.5 2.3c.1 1.6-.7 2.3-1.5 2.3zm0-4.1c-.5 0-.9.5-.9 1.8s.4 1.8.9 1.8c.4 0 .9-.5.9-1.8s-.4-1.8-.9-1.8zM15.5 43.9v-4l-.8.1.1-.5 1.3-.1v4.5h-.6zM18.5 44c-.8 0-1.5-.5-1.5-1.3 0-.7.5-1.1.9-1.2-.3-.1-.7-.5-.7-1 0-.7.6-1.1 1.3-1.1s1.3.5 1.3 1.1c0 .5-.4.8-.7 1 .3.1.9.5.9 1.2 0 .8-.7 1.3-1.5 1.3zm-.1-2.2c-.4.1-.8.4-.8.9s.4.8.9.8.9-.3.9-.8c-.1-.5-.6-.8-1-.9zm.1-1.9c-.4 0-.7.3-.7.6s.3.6.7.7c.4-.1.7-.4.7-.7 0-.4-.3-.6-.7-.6zM21.1 43.9v-4l-.8.1.1-.5 1.3-.1v4.5h-.6zM23.4 43.9h-.7l1.7-3.9h-2.1v-.5h3l-1.9 4.4z"/></svg>