<svg id="Layer_1" xmlns="http://www.w3.org/2000/svg" viewBox="0 0 320 50"><style>.st0{fill:#f9e039}</style><path class="st0" d="M79.5 31.8v1.5h2.2v1.6h-2.2V38h-1.8v-7.7h4.4v1.5h-2.6zM83.6 31.7c-.3 0-.9-.6-.9-.9 0-.3.6-.9.9-.9.3 0 .9.6.9.9 0 .3-.6.9-.9.9zm-.9 6.2v-5.4h1.8v5.4h-1.8zM89 37.9v-3.3c0-.4-.3-.7-.8-.7s-.9.3-.9.8V38h-1.8v-5.4h1.6v.7c.2-.6.8-.9 1.7-.9 1.2 0 1.9.7 1.9 1.8V38H89zM92.7 31.7c-.3 0-.9-.6-.9-.9 0-.3.6-.9.9-.9.3 0 .9.6.9.9 0 .3-.6.9-.9.9zm-.9 6.2v-5.4h1.8v5.4h-1.8zM96.4 38c-.7 0-1.3-.2-1.7-.4l-.2-1.6c.5.3 1.1.6 1.7.6.3 0 .5-.2.5-.4s-.2-.3-.5-.4c-1-.3-1.7-.8-1.7-1.8 0-1.1.9-1.8 2-1.8.7 0 1.3.2 1.6.3l-.2 1.5c-.3-.1-.7-.3-1.1-.3-.3 0-.5.1-.5.3 0 .2.1.3.5.4 1.2.3 1.7.9 1.7 1.8 0 1-.6 1.8-2.1 1.8zM102.8 37.9v-3.3c0-.4-.3-.7-.8-.7s-.9.3-.9.8V38h-1.8v-8.5h1.7V33c.3-.4.8-.7 1.5-.7 1.2 0 1.9.7 1.9 1.8v3.8h-1.6zM112.3 34.2c-.4-.2-.7-.3-1.2-.3-.8 0-1.4.6-1.4 1.3 0 .8.6 1.3 1.4 1.3.5 0 .8-.1 1.2-.3l-.2 1.5c-.4.2-.8.3-1.3.3-1.5 0-2.9-1.1-2.9-2.8 0-1.8 1.4-2.8 2.9-2.8.7 0 1.3.1 1.8.4l-.3 1.4zM117.1 38.1c-.3-.1-.7-.3-.8-.7-.2.4-.8.7-1.4.7-1 0-1.8-.7-1.8-1.8 0-1 .8-1.7 1.9-1.8l1.1-.1v-.2c0-.3-.3-.5-.9-.5-.5 0-1.1.2-1.5.4l-.3-1.3c.4-.3 1.2-.5 1.9-.5 1.4 0 2.5.7 2.5 2V36c0 .6.2 1 .7 1.1l-1.4 1zm-1.1-2.6l-.7.1c-.5 0-.7.4-.7.7 0 .3.2.5.6.5.4 0 .8-.3.8-.8v-.5zM120.7 38.1c-1.1 0-1.9-.6-1.9-1.9v-6.8h1.7V36c0 .4.3.7.7.7l-.5 1.4zM126 34.2c-.4-.2-.7-.3-1.2-.3-.8 0-1.4.6-1.4 1.3 0 .8.6 1.3 1.4 1.3.5 0 .8-.1 1.2-.3l-.2 1.5c-.4.2-.8.3-1.3.3-1.5 0-2.9-1.1-2.9-2.8 0-1.8 1.4-2.8 2.9-2.8.7 0 1.3.1 1.8.4l-.3 1.4zM130.7 37.9v-.7c-.2.6-.8.9-1.7.9-1.2 0-1.9-.7-1.9-1.8v-3.8h1.8v3.3c0 .4.3.7.8.7s.9-.3.9-.8v-3.3h1.8v5.4h-1.7zM135.2 38.1c-1.1 0-1.9-.6-1.9-1.9v-6.8h1.7V36c0 .4.3.7.7.7l-.5 1.4zM140.4 38.1c-.3-.1-.7-.3-.8-.7-.2.4-.8.7-1.4.7-1 0-1.8-.7-1.8-1.8 0-1 .8-1.7 1.9-1.8l1.1-.1v-.2c0-.3-.3-.5-.9-.5-.5 0-1.1.2-1.5.4l-.3-1.3c.4-.3 1.2-.5 1.9-.5 1.4 0 2.5.7 2.5 2V36c0 .6.2 1 .7 1.1l-1.4 1zm-1.2-2.6l-.7.1c-.5 0-.7.4-.7.7 0 .3.2.5.6.5.4 0 .8-.3.8-.8v-.5zM145.6 33.9h-1.4v2c0 .5.3.7.7.7.2 0 .3 0 .5-.1l-.2 1.3c-.2.1-.5.1-.8.1-1.2 0-2-.6-2-1.7v-2.4h-.9v-1.4h.9v-1.2l1.8-.6v1.8h1.8l-.4 1.5zM147.4 31.7c-.3 0-.9-.6-.9-.9 0-.3.6-.9.9-.9.3 0 .9.6.9.9 0 .3-.6.9-.9.9zm-.9 6.2v-5.4h1.8v5.4h-1.8zM152.8 37.9v-3.3c0-.4-.3-.7-.8-.7s-.9.3-.9.8V38h-1.8v-5.4h1.6v.7c.2-.6.8-.9 1.7-.9 1.2 0 1.9.7 1.9 1.8V38h-1.7zM157.9 40.7c-1.6 0-2.6-.9-2.6-2 0-.8.6-1.3 1.1-1.5l-.7-.7c0-.3.3-.6.7-.8-.4-.3-.8-.8-.8-1.5 0-1.2.8-2 2.2-2 .3 0 .6 0 .8.1.2.1.5.1.8.1.3 0 .6-.1.9-.2l.3 1.3c-.2.1-.4.2-.7.2.1.1.1.4.1.6 0 .9-.7 1.7-1.8 1.8-.2 0-.4.1-.4.2s0 .1.1.2l.8.3c1.1.4 1.6.9 1.6 1.9.2 1.1-.8 2-2.4 2zm.3-2.6l-.6-.2c-.4 0-.7.3-.7.7 0 .4.3.7 1 .7.6 0 1-.3 1-.6-.1-.2-.3-.5-.7-.6zm-.4-4.5c-.4 0-.7.3-.7.6 0 .4.3.6.7.6.4 0 .7-.3.7-.6s-.3-.6-.7-.6zM161.8 38.1c-.3 0-1-.7-1-1 0-.3.7-1 1-1 .3 0 1 .7 1 1 0 .3-.7 1-1 1z"/></svg>