<svg id="Layer_1" xmlns="http://www.w3.org/2000/svg" viewBox="0 0 320 50"><style>.st0{fill:#f9e039}</style><path class="st0" d="M23.4 22.9h-1.2l-1.1-3.4c-.2-.5-.3-1-.5-1.7-.2.7-.3 1.2-.5 1.7L19 22.9h-1.2l-2.6-7.7H17l1 3.1c.1.5.3 1 .4 1.5.1-.6.3-1.1.4-1.5l1-3.1h1.6l1 3.1c.1.4.3 1 .4 1.5.1-.6.3-1.1.4-1.5l1-3.1h1.6l-2.4 7.7zM27.4 16.7c-.3 0-.9-.6-.9-.9s.6-.9.9-.9c.3 0 .9.6.9.9s-.6.9-.9.9zm-.9 6.2v-5.4h1.8v5.4h-1.8zM31.2 23.1c-1.1 0-1.9-.6-1.9-1.9v-6.8H31V21c0 .4.3.7.7.7l-.5 1.4zM34.3 23.1c-1.1 0-1.9-.6-1.9-1.9v-6.8h1.7V21c0 .4.3.7.7.7l-.5 1.4zM41.5 22.3c-.8 2.2-1.7 3-2.7 3.4l-1.1-1.1c.9-.3 1.5-1 2-2.1l-2-5.1h1.7l.8 2.1c.1.3.2.7.3 1.1.1-.4.2-.8.3-1.1l.8-2.1h1.6l-1.7 4.9zM46.4 23.1c-1.6 0-3-1.2-3-2.9s1.3-2.9 3-2.9c1.6 0 3 1.2 3 2.9s-1.4 2.9-3 2.9zm0-4.3c-.7 0-1.2.6-1.2 1.4 0 .8.6 1.4 1.2 1.4s1.2-.6 1.2-1.4c0-.8-.6-1.4-1.2-1.4zM53.7 22.9v-.7c-.2.5-.8.8-1.7.8-1.2 0-1.9-.7-1.9-1.8v-3.8h1.8v3.3c0 .4.3.7.8.7s.9-.3.9-.8v-3.3h1.8v5.4h-1.7zM59.7 19.3c-.1-.1-.3-.1-.5-.1-.6 0-1.1.3-1.1 1.2v2.5h-1.8v-5.4H58v1.2c.2-.9.8-1.3 1.5-1.3.2 0 .4 0 .5.1l-.3 1.8zM66.6 19.3c-.1-.1-.3-.1-.5-.1-.6 0-1.1.3-1.1 1.2v2.5h-1.8v-5.4H65v1.2c.2-.9.8-1.3 1.5-1.3.2 0 .4 0 .5.1l-.4 1.8zM72.4 19.9l-.8.8H69c.1.4.7.9 1.6.9.6 0 1.1-.2 1.5-.4l-.2 1.5c-.4.2-1 .4-1.7.4-1.7 0-3-1.2-3-2.9 0-1.8 1.3-2.9 2.8-2.9 1.5 0 2.4 1 2.4 2.2.1.1 0 .3 0 .4zM70 18.6c-.5 0-.9.4-1.1.9h1.8v-.1c.1-.4-.2-.8-.7-.8zM76.9 18.9h-1.4v2c0 .5.3.7.7.7.2 0 .3 0 .5-.1l-.2 1.3c-.2.1-.5.1-.8.1-1.2 0-2-.6-2-1.7v-2.4h-.9v-1.4h.9v-1.2l1.8-.6v1.8h1.8l-.4 1.5zM78.7 16.7c-.3 0-.9-.6-.9-.9s.6-.9.9-.9c.3 0 .9.6.9.9s-.6.9-.9.9zm-.9 6.2v-5.4h1.8v5.4h-1.8zM84 19.3c-.1-.1-.3-.1-.5-.1-.6 0-1.1.3-1.1 1.2v2.5h-1.8v-5.4h1.7v1.2c.2-.9.8-1.3 1.5-1.3.2 0 .4 0 .5.1l-.3 1.8zM89.8 19.9l-.8.8h-2.7c.1.4.7.9 1.6.9.6 0 1.1-.2 1.5-.4l-.2 1.5c-.4.2-1 .4-1.7.4-1.7 0-3-1.2-3-2.9 0-1.8 1.3-2.9 2.8-2.9 1.5 0 2.4 1 2.4 2.2.2.1.2.3.1.4zm-2.3-1.3c-.5 0-.9.4-1.1.9h1.8v-.1c0-.4-.3-.8-.7-.8zM97.4 22.9v-3.3c0-.4-.2-.7-.8-.7-.6 0-.8.3-.8.8V23H94v-3.3c0-.4-.2-.7-.8-.7-.6 0-.8.3-.8.8v3.3h-1.8v-5.4h1.6v.7c.2-.6.8-.9 1.6-.9s1.4.3 1.6.9c.2-.5.9-.9 1.7-.9 1.2 0 1.9.7 1.9 1.8v3.8h-1.6zM105.2 19.9l-.8.8h-2.7c.1.4.7.9 1.6.9.6 0 1.1-.2 1.5-.4l-.2 1.5c-.4.2-1 .4-1.7.4-1.7 0-3-1.2-3-2.9 0-1.8 1.3-2.9 2.8-2.9 1.5 0 2.4 1 2.4 2.2.1.1.1.3.1.4zm-2.4-1.3c-.5 0-.9.4-1.1.9h1.8v-.1c.1-.4-.3-.8-.7-.8zM109.4 22.9v-3.3c0-.4-.3-.7-.8-.7s-.9.3-.9.8V23H106v-5.4h1.6v.7c.2-.6.8-.9 1.7-.9 1.2 0 1.9.7 1.9 1.8V23h-1.8zM115.8 18.9h-1.4v2c0 .5.3.7.7.7.2 0 .3 0 .5-.1l-.2 1.3c-.2.1-.5.1-.8.1-1.2 0-2-.6-2-1.7v-2.4h-.9v-1.4h.9v-1.2l1.8-.6v1.8h1.8l-.4 1.5zM121 23c-.7 0-1.3-.2-1.7-.4l-.2-1.6c.5.3 1.1.6 1.7.6.3 0 .5-.2.5-.4s-.2-.3-.5-.4c-1-.3-1.7-.8-1.7-1.8 0-1.1.9-1.8 2-1.8.7 0 1.3.2 1.6.3l-.3 1.3c-.3-.1-.7-.3-1.1-.3-.3 0-.5.1-.5.3 0 .2.1.3.5.4 1.2.3 1.7.9 1.7 1.8.1 1.2-.6 2-2 2zM127.7 23.1c-.3-.1-.7-.3-.8-.7-.2.4-.8.7-1.4.7-1 0-1.8-.7-1.8-1.8 0-1 .8-1.7 1.9-1.8l1.1-.1v-.2c0-.3-.3-.5-.9-.5-.5 0-1.1.2-1.5.4l-.3-1.3c.4-.3 1.2-.5 1.9-.5 1.4 0 2.5.7 2.5 2V21c0 .6.2 1 .7 1.1l-1.4 1zm-1.1-2.6l-.7.1c-.5 0-.7.4-.7.7 0 .3.2.5.6.5.4 0 .8-.3.8-.8v-.5zM132.1 22.9h-1.3l-2.1-5.5h1.7l.8 2.1c.1.3.2.7.3 1.1.1-.3.2-.8.3-1.1l.8-2.1h1.6l-2.1 5.5zM135.7 16.7c-.3 0-.9-.6-.9-.9s.6-.9.9-.9c.3 0 .9.6.9.9s-.6.9-.9.9zm-.9 6.2v-5.4h1.8v5.4h-1.8zM141.1 22.9v-3.3c0-.4-.3-.7-.8-.7s-.9.3-.9.8V23h-1.8v-5.4h1.6v.7c.2-.6.8-.9 1.7-.9 1.2 0 1.9.7 1.9 1.8V23h-1.7zM146.2 25.7c-1.6 0-2.6-.9-2.6-2 0-.8.6-1.3 1.1-1.5l-.7-.7c0-.3.3-.6.7-.8-.4-.3-.8-.8-.8-1.5 0-1.2.8-2 2.2-2 .3 0 .6 0 .8.1.2.1.5.1.8.1.3 0 .6-.1.9-.2l.3 1.3c-.2.1-.4.2-.7.2.1.1.1.4.1.6 0 .9-.7 1.7-1.8 1.8-.2 0-.4.1-.4.2s0 .1.1.2l.8.3c1.1.4 1.6.9 1.6 1.9.2 1.1-.8 2-2.4 2zm.3-2.6l-.6-.2c-.4 0-.7.3-.7.7 0 .4.3.7 1 .7.6 0 1-.3 1-.6-.1-.2-.3-.5-.7-.6zm-.4-4.5c-.4 0-.7.3-.7.6 0 .4.3.6.7.6.4 0 .7-.3.7-.6s-.3-.6-.7-.6zM151.2 23c-.7 0-1.3-.2-1.7-.4l-.2-1.6c.5.3 1.1.6 1.7.6.3 0 .5-.2.5-.4s-.2-.3-.5-.4c-1-.3-1.7-.8-1.7-1.8 0-1.1.9-1.8 2-1.8.7 0 1.3.2 1.6.3l-.3 1.3c-.3-.1-.7-.3-1.1-.3-.3 0-.5.1-.5.3 0 .2.1.3.5.4 1.2.3 1.7.9 1.7 1.8.1 1.2-.6 2-2 2zM159.3 23c-1.2 0-2.1-.4-2.6-.8v-7.9h1.7v3.3c.2-.2.8-.4 1.4-.4 1.5 0 2.7 1.1 2.7 2.8 0 1.7-1.1 3-3.2 3zm.1-4.2c-.5 0-.9.2-1.1.4v2.1c.2.1.6.3.9.3.9 0 1.5-.6 1.5-1.4 0-.8-.5-1.4-1.3-1.4zM168.3 19.9l-.8.8h-2.7c.1.4.7.9 1.6.9.6 0 1.1-.2 1.5-.4l-.2 1.5c-.4.2-1 .4-1.7.4-1.7 0-3-1.2-3-2.9 0-1.8 1.3-2.9 2.8-2.9 1.5 0 2.4 1 2.4 2.2.1.1.1.3.1.4zm-2.4-1.3c-.5 0-.9.4-1.1.9h1.8v-.1c.1-.4-.3-.8-.7-.8zM175 19.3c-.1-.1-.3-.1-.5-.1-.6 0-1.1.3-1.1 1.2v2.5h-1.8v-5.4h1.7v1.2c.2-.9.8-1.3 1.5-1.3.2 0 .4 0 .5.1l-.3 1.8zM180.8 19.9l-.8.8h-2.7c.1.4.7.9 1.6.9.6 0 1.1-.2 1.5-.4l-.2 1.5c-.4.2-1 .4-1.7.4-1.7 0-3-1.2-3-2.9 0-1.8 1.3-2.9 2.8-2.9 1.5 0 2.4 1 2.4 2.2.2.1.1.3.1.4zm-2.4-1.3c-.5 0-.9.4-1.1.9h1.8v-.1c.1-.4-.2-.8-.7-.8zM185.4 23.1c-.3-.1-.7-.3-.8-.7-.2.4-.8.7-1.4.7-1 0-1.8-.7-1.8-1.8 0-1 .8-1.7 1.9-1.8l1.1-.1v-.2c0-.3-.3-.5-.9-.5-.5 0-1.1.2-1.5.4l-.3-1.3c.4-.3 1.2-.5 1.9-.5 1.4 0 2.5.7 2.5 2V21c0 .6.2 1 .7 1.1l-1.4 1zm-1.1-2.6l-.7.1c-.5 0-.7.4-.7.7 0 .3.2.5.6.5.4 0 .8-.3.8-.8v-.5zM191.2 22.9v-.7c-.3.6-.9.8-1.7.8-1.3 0-2.6-1-2.6-2.9 0-1.8 1.2-2.9 2.8-2.9.6 0 1.2.2 1.4.4v-3.3h1.7v8.5h-1.6zm-.2-3.6c-.2-.2-.5-.5-1.1-.5-.8 0-1.3.6-1.3 1.4 0 .8.5 1.4 1.3 1.4.5 0 .9-.3 1.1-.6v-1.7zM197 22.3c-.8 2.2-1.7 3-2.7 3.4l-1.1-1.1c.9-.3 1.5-1 2-2.1l-2-5.1h1.7l.8 2.1c.1.3.2.7.3 1.1.1-.4.2-.8.3-1.1l.8-2.1h1.6l-1.7 4.9zM199.3 24.7l-.6-.1c.4-.5.7-1.2.8-1.7-.3-.1-.8-.6-.8-.8 0-.3.7-1 1-1 .3 0 1 .6 1 1 0 .7-.7 1.9-1.4 2.6zM207.7 18.9h-1.4v2c0 .5.3.7.7.7.2 0 .3 0 .5-.1l-.2 1.3c-.2.1-.5.1-.8.1-1.2 0-2-.6-2-1.7v-2.4h-.9v-1.4h.9v-1.2l1.8-.6v1.8h1.8l-.4 1.5zM211.2 23.1c-1.6 0-3-1.2-3-2.9s1.3-2.9 3-2.9c1.6 0 3 1.2 3 2.9s-1.4 2.9-3 2.9zm0-4.3c-.7 0-1.2.6-1.2 1.4 0 .8.6 1.4 1.2 1.4s1.2-.6 1.2-1.4c0-.8-.6-1.4-1.2-1.4zM217.6 23.1c-1.6 0-3-1.2-3-2.9s1.3-2.9 3-2.9c1.6 0 3 1.2 3 2.9s-1.3 2.9-3 2.9zm0-4.3c-.7 0-1.2.6-1.2 1.4 0 .8.6 1.4 1.2 1.4s1.2-.6 1.2-1.4c.1-.8-.5-1.4-1.2-1.4zM223.8 19.1c-.3.3-.4.6-.4.9v.5l-1.5-.3c-.1-.2-.1-.4-.1-.6 0-.6.3-1.2.7-1.7.3-.3.5-.6.5-.9 0-.3-.2-.5-.7-.5-.4 0-.8.2-1.2.4l-.4-1.5c.4-.3 1-.5 1.7-.5 1.4 0 2.4.8 2.4 2 0 .9-.3 1.5-1 2.2zm-1.1 4c-.3 0-1-.7-1-1 0-.3.7-1 1-1 .3 0 1 .7 1 1 0 .3-.6 1-1 1z"/></svg>