<svg id="Layer_1" xmlns="http://www.w3.org/2000/svg" viewBox="0 0 320 50"><style>.st0{fill:#f9e039}</style><path class="st0" d="M35.3 16.8v1.5h2.2v1.6h-2.2V23h-1.8v-7.7h4.4v1.5h-2.6zM39.4 16.7c-.3 0-.9-.6-.9-.9s.6-.9.9-.9c.3 0 .9.6.9.9s-.6.9-.9.9zm-.9 6.2v-5.4h1.8v5.4h-1.8zM43.7 25.7c-1.6 0-2.6-.9-2.6-2 0-.8.6-1.3 1.1-1.5l-.7-.7c0-.3.3-.6.7-.8-.4-.3-.8-.8-.8-1.5 0-1.2.8-2 2.2-2 .3 0 .6 0 .8.1.2.1.5.1.8.1.3 0 .6-.1.9-.2l.3 1.3c-.2.1-.4.2-.7.2.1.1.1.4.1.6 0 .9-.7 1.7-1.8 1.8-.2 0-.4.1-.4.2s0 .1.1.2l.8.3c1.1.4 1.6.9 1.6 1.9.2 1.1-.9 2-2.4 2zm.3-2.6l-.6-.2c-.4 0-.7.3-.7.7 0 .4.3.7 1 .7.6 0 1-.3 1-.6-.1-.2-.3-.5-.7-.6zm-.4-4.5c-.4 0-.7.3-.7.6 0 .4.3.6.7.6.4 0 .7-.3.7-.6-.1-.3-.3-.6-.7-.6zM50.5 22.9v-.7c-.2.6-.8.9-1.7.9-1.2 0-1.9-.7-1.9-1.8v-3.8h1.8v3.3c0 .4.3.7.8.7s.9-.3.9-.8v-3.3h1.8v5.4h-1.7zM56.5 19.3c-.1-.1-.3-.1-.5-.1-.6 0-1.1.3-1.1 1.2v2.5h-1.8v-5.4h1.7v1.2c.2-.9.8-1.3 1.5-1.3.2 0 .4 0 .5.1l-.3 1.8zM62.3 19.9l-.8.8h-2.7c.1.4.7.9 1.6.9.6 0 1.1-.2 1.5-.4l-.2 1.5c-.4.2-1 .4-1.7.4-1.7 0-3-1.2-3-2.9 0-1.8 1.3-2.9 2.8-2.9 1.5 0 2.4 1 2.4 2.2.1.1.1.3.1.4zm-2.4-1.3c-.5 0-.9.4-1.1.9h1.8v-.1c.1-.4-.2-.8-.7-.8zM68.4 23.1c-1.6 0-3-1.2-3-2.9s1.3-2.9 3-2.9c1.6 0 3 1.2 3 2.9s-1.4 2.9-3 2.9zm0-4.3c-.7 0-1.2.6-1.2 1.4 0 .8.6 1.4 1.2 1.4s1.2-.6 1.2-1.4c0-.8-.5-1.4-1.2-1.4zM75.7 22.9v-.7c-.2.6-.8.9-1.7.9-1.2 0-1.9-.7-1.9-1.8v-3.8h1.8v3.3c0 .4.3.7.8.7s.9-.3.9-.8v-3.3h1.8v5.4h-1.7zM82.1 18.9h-1.4v2c0 .5.3.7.7.7.2 0 .3 0 .5-.1l-.2 1.3c-.2.1-.5.1-.8.1-1.2 0-2-.6-2-1.7v-2.4H78v-1.4h.9v-1.2l1.8-.6v1.8h1.8l-.4 1.5zM88.8 22.3c-.8 2.2-1.7 3-2.7 3.4L85 24.6c.9-.3 1.5-1 2-2.1l-2-5.1h1.7l.8 2.1c.1.3.2.7.3 1.1.1-.4.2-.8.3-1.1l.8-2.1h1.6l-1.7 4.9zM93.7 23.1c-1.6 0-3-1.2-3-2.9s1.3-2.9 3-2.9c1.6 0 3 1.2 3 2.9s-1.4 2.9-3 2.9zm0-4.3c-.7 0-1.2.6-1.2 1.4 0 .8.6 1.4 1.2 1.4s1.2-.6 1.2-1.4c0-.8-.6-1.4-1.2-1.4zM101 22.9v-.7c-.2.6-.8.9-1.7.9-1.2 0-1.9-.7-1.9-1.8v-3.8h1.8v3.3c0 .4.3.7.8.7s.9-.3.9-.8v-3.3h1.8v5.4H101zM107.1 19.3c-.1-.1-.3-.1-.5-.1-.6 0-1.1.3-1.1 1.2v2.5h-1.8v-5.4h1.7v1.2c.2-.9.8-1.3 1.5-1.3.2 0 .4 0 .5.1l-.3 1.8zM113 25.7c-1.6 0-2.6-.9-2.6-2 0-.8.6-1.3 1.1-1.5l-.7-.7c0-.3.3-.6.7-.8-.4-.3-.8-.8-.8-1.5 0-1.2.8-2 2.2-2 .3 0 .6 0 .8.1.2.1.5.1.8.1.3 0 .6-.1.9-.2l.3 1.3c-.2.1-.4.2-.7.2.1.1.1.4.1.6 0 .9-.7 1.7-1.8 1.8-.2 0-.4.1-.4.2s0 .1.1.2l.8.3c1.1.4 1.6.9 1.6 1.9.2 1.1-.8 2-2.4 2zm.4-2.6l-.6-.2c-.4 0-.7.3-.7.7 0 .4.3.7 1 .7.6 0 1-.3 1-.6-.2-.2-.4-.5-.7-.6zm-.5-4.5c-.4 0-.7.3-.7.6 0 .4.3.6.7.6.4 0 .7-.3.7-.6s-.3-.6-.7-.6zM119.8 22.9v-.7c-.2.6-.8.9-1.7.9-1.2 0-1.9-.7-1.9-1.8v-3.8h1.8v3.3c0 .4.3.7.8.7s.9-.3.9-.8v-3.3h1.8v5.4h-1.7zM126.3 23.1c-.3-.1-.7-.3-.8-.7-.2.4-.8.7-1.4.7-1 0-1.8-.7-1.8-1.8 0-1 .8-1.7 1.9-1.8l1.1-.1v-.2c0-.3-.3-.5-.9-.5-.5 0-1.1.2-1.5.4l-.3-1.3c.4-.3 1.2-.5 1.9-.5 1.4 0 2.5.7 2.5 2V21c0 .6.2 1 .7 1.1l-1.4 1zm-1.2-2.6l-.7.1c-.5 0-.7.4-.7.7 0 .3.2.5.6.5.4 0 .8-.3.8-.8v-.5zM131.4 19.3c-.1-.1-.3-.1-.5-.1-.6 0-1.1.3-1.1 1.2v2.5H128v-5.4h1.7v1.2c.2-.9.8-1.3 1.5-1.3.2 0 .4 0 .5.1l-.3 1.8zM136.1 23.1c-.3-.1-.7-.3-.8-.7-.2.4-.8.7-1.4.7-1 0-1.8-.7-1.8-1.8 0-1 .8-1.7 1.9-1.8l1.1-.1v-.2c0-.3-.3-.5-.9-.5-.5 0-1.1.2-1.5.4l-.3-1.3c.4-.3 1.2-.5 1.9-.5 1.4 0 2.5.7 2.5 2V21c0 .6.2 1 .7 1.1l-1.4 1zm-1.1-2.6l-.7.1c-.5 0-.7.4-.7.7 0 .3.2.5.6.5.4 0 .8-.3.8-.8v-.5zM141.3 22.9v-3.3c0-.4-.3-.7-.8-.7s-.9.3-.9.8V23h-1.8v-5.4h1.6v.7c.2-.6.8-.9 1.7-.9 1.2 0 1.9.7 1.9 1.8V23h-1.7zM147.7 18.9h-1.4v2c0 .5.3.7.7.7.2 0 .3 0 .5-.1l-.2 1.3c-.2.1-.5.1-.8.1-1.2 0-2-.6-2-1.7v-2.4h-.9v-1.4h.9v-1.2l1.8-.6v1.8h1.8l-.4 1.5zM153.4 19.9l-.8.8H150c.1.4.7.9 1.6.9.6 0 1.1-.2 1.5-.4l-.2 1.5c-.4.2-1 .4-1.7.4-1.7 0-3-1.2-3-2.9 0-1.8 1.3-2.9 2.8-2.9 1.5 0 2.4 1 2.4 2.2.1.1 0 .3 0 .4zm-2.4-1.3c-.5 0-.9.4-1.1.9h1.8v-.1c.1-.4-.2-.8-.7-.8zM159.2 19.9l-.8.8h-2.7c.1.4.7.9 1.6.9.6 0 1.1-.2 1.5-.4l-.2 1.5c-.4.2-1 .4-1.7.4-1.7 0-3-1.2-3-2.9 0-1.8 1.3-2.9 2.8-2.9 1.5 0 2.4 1 2.4 2.2.1.1.1.3.1.4zm-2.4-1.3c-.5 0-.9.4-1.1.9h1.8v-.1c.1-.4-.2-.8-.7-.8zM164.1 22.9v-.7c-.3.6-.9.8-1.7.8-1.3 0-2.6-1-2.6-2.9 0-1.8 1.2-2.9 2.8-2.9.6 0 1.2.2 1.4.4v-3.3h1.7v8.5h-1.6zm-.2-3.6c-.2-.2-.5-.5-1.1-.5-.8 0-1.3.6-1.3 1.4 0 .8.5 1.4 1.3 1.4.5 0 .9-.3 1.1-.6v-1.7zM171.1 23.1c-1.1 0-1.9-.6-1.9-1.9v-6.8h1.7V21c0 .4.3.7.7.7l-.5 1.4zM173.2 16.7c-.3 0-.9-.6-.9-.9s.6-.9.9-.9c.3 0 .9.6.9.9s-.5.9-.9.9zm-.8 6.2v-5.4h1.8v5.4h-1.8zM179 15.9c-.2-.1-.5-.1-.7-.1-.6 0-1 .4-1 1.2v.5h1.6l-.3 1.4h-1.2v4h-1.7v-4h-.8v-1.4h.8v-.6c0-1.7 1.1-2.5 2.4-2.5.5 0 1 .1 1.3.2l-.4 1.3zM184.2 19.9l-.8.8h-2.7c.1.4.7.9 1.6.9.6 0 1.1-.2 1.5-.4l-.2 1.5c-.4.2-1 .4-1.7.4-1.7 0-3-1.2-3-2.9 0-1.8 1.3-2.9 2.8-2.9 1.5 0 2.4 1 2.4 2.2.2.1.2.3.1.4zm-2.3-1.3c-.5 0-.9.4-1.1.9h1.8v-.1c.1-.4-.3-.8-.7-.8zM188.8 18.9h-1.4v2c0 .5.3.7.7.7.2 0 .3 0 .5-.1l-.2 1.3c-.2.1-.5.1-.8.1-1.2 0-2-.6-2-1.7v-2.4h-.9v-1.4h.9v-1.2l1.8-.6v1.8h1.8l-.4 1.5zM190.5 16.7c-.3 0-.9-.6-.9-.9s.6-.9.9-.9c.3 0 .9.6.9.9s-.5.9-.9.9zm-.8 6.2v-5.4h1.8v5.4h-1.8zM199.2 22.9v-3.3c0-.4-.2-.7-.8-.7-.6 0-.8.3-.8.8V23h-1.8v-3.3c0-.4-.2-.7-.8-.7-.6 0-.8.3-.8.8v3.3h-1.8v-5.4h1.6v.7c.2-.6.8-.9 1.6-.9s1.4.3 1.6.9c.2-.5.9-.9 1.7-.9 1.2 0 1.9.7 1.9 1.8v3.8h-1.6zM207 19.9l-.8.8h-2.7c.1.4.7.9 1.6.9.6 0 1.1-.2 1.5-.4l-.2 1.5c-.4.2-1 .4-1.7.4-1.7 0-3-1.2-3-2.9 0-1.8 1.3-2.9 2.8-2.9 1.5 0 2.4 1 2.4 2.2.1.1.1.3.1.4zm-2.4-1.3c-.5 0-.9.4-1.1.9h1.8v-.1c.1-.4-.2-.8-.7-.8z"/><g><path class="st0" d="M50.5 27.7c-.3 0-.9-.6-.9-.9 0-.3.6-.9.9-.9.3 0 .9.6.9.9.1.3-.6.9-.9.9zm-.9 6.2v-5.4h1.8v5.4h-1.8zM55.9 33.9v-3.3c0-.4-.3-.7-.8-.7s-.9.3-.9.8V34h-1.8v-5.4H54v.7c.2-.6.8-.9 1.7-.9 1.2 0 1.9.7 1.9 1.8V34h-1.7zM62.8 30.2c-.4-.2-.7-.3-1.2-.3-.8 0-1.4.6-1.4 1.3 0 .8.6 1.3 1.4 1.3.5 0 .8-.1 1.2-.3l-.2 1.5c-.4.2-.8.3-1.3.3-1.5 0-2.9-1.1-2.9-2.8 0-1.8 1.4-2.8 2.9-2.8.7 0 1.3.1 1.8.4l-.3 1.4zM66.6 34.1c-1.6 0-3-1.2-3-2.9s1.3-2.9 3-2.9c1.6 0 3 1.2 3 2.9-.1 1.7-1.4 2.9-3 2.9zm0-4.3c-.7 0-1.2.6-1.2 1.4 0 .8.6 1.4 1.2 1.4s1.2-.6 1.2-1.4c0-.8-.6-1.4-1.2-1.4zM77 33.9v-3.3c0-.4-.2-.7-.8-.7-.6 0-.8.3-.8.8V34h-1.8v-3.3c0-.4-.2-.7-.8-.7-.6 0-.8.3-.8.8v3.3h-1.8v-5.4H72v.7c.2-.6.8-.9 1.6-.9s1.4.3 1.6.9c.2-.5.9-.9 1.7-.9 1.2 0 1.9.7 1.9 1.8v3.8H77zM84.8 30.9l-.8.8h-2.7c.1.4.7.9 1.6.9.6 0 1.1-.2 1.5-.4l-.2 1.5c-.4.2-1 .4-1.7.4-1.7 0-3-1.2-3-2.9 0-1.8 1.3-2.9 2.8-2.9 1.5 0 2.4 1 2.4 2.2.2.1.1.3.1.4zm-2.4-1.3c-.5 0-.9.4-1.1.9h1.8v-.1c.1-.4-.2-.8-.7-.8zM90 34c-.7 0-1.3-.2-1.7-.4l-.2-1.6c.5.3 1.1.6 1.7.6.3 0 .5-.2.5-.4s-.2-.3-.5-.4c-1-.3-1.7-.8-1.7-1.8 0-1.1.9-1.8 2-1.8.7 0 1.3.2 1.6.3l-.2 1.5c-.3-.1-.7-.3-1.1-.3-.3 0-.5.1-.5.3 0 .2.1.3.5.4 1.2.3 1.7.9 1.7 1.8 0 1-.7 1.8-2.1 1.8zM95.5 34.1c-1.6 0-3-1.2-3-2.9s1.3-2.9 3-2.9c1.6 0 3 1.2 3 2.9s-1.3 2.9-3 2.9zm0-4.3c-.7 0-1.2.6-1.2 1.4 0 .8.6 1.4 1.2 1.4s1.2-.6 1.2-1.4c.1-.8-.5-1.4-1.2-1.4zM105.2 33.4c-.8 2.2-1.7 3-2.7 3.4l-1.1-1.1c.9-.3 1.5-1 2-2.1l-2-5.1h1.7l.8 2.1c.1.3.2.7.3 1.1.1-.4.2-.8.3-1.1l.8-2.1h1.6l-1.7 4.9zM110.1 34.1c-1.6 0-3-1.2-3-2.9s1.3-2.9 3-2.9c1.6 0 3 1.2 3 2.9-.1 1.7-1.4 2.9-3 2.9zm0-4.3c-.7 0-1.2.6-1.2 1.4 0 .8.6 1.4 1.2 1.4s1.2-.6 1.2-1.4c0-.8-.6-1.4-1.2-1.4zM117.4 33.9v-.7c-.2.6-.8.9-1.7.9-1.2 0-1.9-.7-1.9-1.8v-3.8h1.8v3.3c0 .4.3.7.8.7s.9-.3.9-.8v-3.3h1.8v5.4h-1.7zM126 33.9v-3.3c0-.4-.3-.7-.8-.7s-.9.3-.9.8V34h-1.8v-5.4h1.6v.7c.2-.6.8-.9 1.7-.9 1.2 0 1.9.7 1.9 1.8V34H126zM133.8 30.9l-.8.8h-2.7c.1.4.7.9 1.6.9.6 0 1.1-.2 1.5-.4l-.2 1.5c-.4.2-1 .4-1.7.4-1.7 0-3-1.2-3-2.9 0-1.8 1.3-2.9 2.8-2.9 1.5 0 2.4 1 2.4 2.2.1.1.1.3.1.4zm-2.4-1.3c-.5 0-.9.4-1.1.9h1.8v-.1c.1-.4-.3-.8-.7-.8zM137.4 33.9h-1.3l-2.1-5.5h1.7l.8 2.1c.1.3.2.7.3 1.1.1-.3.2-.8.3-1.1l.8-2.1h1.6l-2.1 5.5zM144.8 30.9l-.8.8h-2.7c.1.4.7.9 1.6.9.6 0 1.1-.2 1.5-.4l-.2 1.5c-.4.2-1 .4-1.7.4-1.7 0-3-1.2-3-2.9 0-1.8 1.3-2.9 2.8-2.9 1.5 0 2.4 1 2.4 2.2.1.1.1.3.1.4zm-2.4-1.3c-.5 0-.9.4-1.1.9h1.8v-.1c.1-.4-.2-.8-.7-.8zM149 30.3c-.1-.1-.3-.1-.5-.1-.6 0-1.1.3-1.1 1.2v2.5h-1.8v-5.4h1.7v1.2c.2-.9.8-1.3 1.5-1.3.2 0 .4 0 .5.1l-.3 1.8zM155.9 30.3c-.1-.1-.3-.1-.5-.1-.6 0-1.1.3-1.1 1.2v2.5h-1.8v-5.4h1.7v1.2c.2-.9.8-1.3 1.5-1.3.2 0 .4 0 .5.1l-.3 1.8zM160.4 33.9v-.7c-.2.6-.8.9-1.7.9-1.2 0-1.9-.7-1.9-1.8v-3.8h1.8v3.3c0 .4.3.7.8.7s.9-.3.9-.8v-3.3h1.8v5.4h-1.7zM166.5 33.9v-3.3c0-.4-.3-.7-.8-.7s-.9.3-.9.8V34H163v-5.4h1.6v.7c.2-.6.8-.9 1.7-.9 1.2 0 1.9.7 1.9 1.8V34h-1.7zM174.5 34.1c-1.6 0-3-1.2-3-2.9s1.3-2.9 3-2.9c1.6 0 3 1.2 3 2.9s-1.3 2.9-3 2.9zm0-4.3c-.7 0-1.2.6-1.2 1.4 0 .8.6 1.4 1.2 1.4s1.2-.6 1.2-1.4c.1-.8-.5-1.4-1.2-1.4zM181.9 33.9v-.7c-.2.6-.8.9-1.7.9-1.2 0-1.9-.7-1.9-1.8v-3.8h1.8v3.3c0 .4.3.7.8.7s.9-.3.9-.8v-3.3h1.8v5.4h-1.7zM188.2 29.9h-1.4v2c0 .5.3.7.7.7.2 0 .3 0 .5-.1l-.2 1.3c-.2.1-.5.1-.8.1-1.2 0-2-.6-2-1.7v-2.4h-.9v-1.4h.9v-1.2l1.8-.6v1.8h1.8l-.4 1.5zM189.8 34.1c-.3 0-1-.7-1-1 0-.3.7-1 1-1 .3 0 1 .7 1 1 0 .3-.7 1-1 1z"/></g></svg>