<svg id="Layer_1" xmlns="http://www.w3.org/2000/svg" viewBox="0 0 320 50"><style>.st0{fill:#3abfef}</style><path class="st0" d="M253.3 26.2c-4.3 0-7.7 3.5-7.7 7.7V36c0 4.3 3.5 7.7 7.7 7.7h50.9c4.3 0 7.7-3.4 7.7-7.7v-2.1c0-4.3-3.5-7.7-7.7-7.7h-50.9z"/><path d="M262.4 31.9c.8 0 1.4 0 2 .6.6.5.8 1.3.8 2s-.2 1.4-.7 1.9c-.5.6-1.2.7-1.9.7h-1.7v-5.3h1.5zm-.3 4.3h.4c.5 0 .8-.1 1.1-.6.2-.3.3-.7.3-1.1 0-.4-.1-.9-.4-1.2-.3-.4-.6-.4-1-.4h-.4v3.3zM267.3 37.2h-1.2v-5.3h1.2v5.3zM271.1 33.5c-.2-.4-.4-.6-.9-.6-.3 0-.7.1-.7.5s.5.5.8.5c.4.1 1 .2 1.4.4.4.3.7.7.7 1.3 0 .5-.2 1-.7 1.3-.4.3-1 .4-1.5.4-1 0-1.9-.4-2.1-1.5l1.1-.3c.2.6.6.7 1.1.7.4 0 .8-.1.8-.6 0-.4-.6-.5-.9-.6-.9-.2-1.9-.5-1.9-1.6 0-.5.2-.9.6-1.2.4-.3.8-.4 1.3-.4.9 0 1.7.3 2 1.2l-1.1.5zM276.1 34c0-.6-.2-1.1-.9-1.1-.9 0-1 1.1-1 1.8s.1 1.7 1 1.7c.6 0 .8-.5.9-1l1.2.1c-.1 1.2-1 1.9-2.2 1.9-1.6 0-2.3-1.3-2.3-2.7 0-1.5.8-2.7 2.4-2.7 1.3 0 2 .8 2.1 2h-1.2zM278.6 36.5c-.4-.5-.6-1.2-.6-1.9 0-1.4.7-2.7 2.3-2.7.7 0 1.3.2 1.7.8.4.5.6 1.3.6 1.9 0 .6-.2 1.3-.5 1.8-.4.6-1 .9-1.8.9-.7 0-1.3-.2-1.7-.8zm.9-3c-.1.3-.2.8-.2 1.1 0 .7.1 1.7 1 1.7.4 0 .7-.2.8-.6.1-.3.2-.8.2-1.1 0-.4 0-.8-.2-1.2s-.4-.5-.8-.5-.7.2-.8.6zM285.7 37.2h-1.3l-1.6-5.3h1.3l1.1 3.8 1.1-3.8h1l-1.6 5.3zM289.1 33v1h2v1h-2v1.2h2.5v1h-3.8v-5.3h3.8v1h-2.5zM293.8 37.2h-1.2v-5.3h2.2c.5 0 .9 0 1.4.3.4.3.7.8.7 1.3 0 .6-.3 1.2-.9 1.4l1 2.3h-1.4l-.8-2.1h-.9v2.1zm0-3h.7c.3 0 .5 0 .8-.1.2-.1.3-.4.3-.6 0-.2-.1-.4-.3-.5-.2-.1-.6-.1-.8-.1h-.6v1.3z"/></svg>