<svg id="Layer_1" xmlns="http://www.w3.org/2000/svg" viewBox="0 0 320 50"><style>.st0{fill:#f9e039}</style><path class="st0" d="M138.9 24.4h-1.2l-1.1-3.4c-.2-.5-.3-1-.5-1.7-.2.7-.3 1.2-.5 1.7l-1.1 3.4h-1.2l-2.6-7.7h1.8l1 3.1c.1.5.3 1 .4 1.5.1-.6.3-1.1.4-1.5l1-3.1h1.6l1 3.1c.1.4.3 1 .4 1.5.1-.6.3-1.1.4-1.5l1-3.1h1.6l-2.4 7.7zM145.5 24.3V21c0-.4-.3-.7-.8-.7s-.9.3-.9.8v3.3H142v-8.5h1.7v3.6c.3-.4.8-.7 1.5-.7 1.2 0 1.9.7 1.9 1.8v3.8h-1.6zM152.1 24.6c-.3-.1-.7-.3-.8-.7-.2.4-.8.7-1.4.7-1 0-1.8-.7-1.8-1.8 0-1 .8-1.7 1.9-1.8l1.1-.1v-.2c0-.3-.3-.5-.9-.5-.5 0-1.1.2-1.5.4l-.3-1.3c.4-.3 1.2-.5 1.9-.5 1.4 0 2.5.7 2.5 2v1.8c0 .6.2 1 .7 1.1l-1.4.9zM151 22l-.7.1c-.5 0-.7.4-.7.7 0 .3.2.5.6.5.4 0 .8-.3.8-.8V22zM157.4 20.3H156v2c0 .5.3.7.7.7.2 0 .3 0 .5-.1l-.2 1.3c-.2.1-.5.1-.8.1-1.2 0-2-.6-2-1.7v-2.4h-.9v-1.4h.9v-1.2l1.8-.6v1.8h1.8l-.4 1.5zM164.6 24.6c-.3-.1-.7-.3-.8-.7-.2.4-.8.7-1.4.7-1 0-1.8-.7-1.8-1.8 0-1 .8-1.7 1.9-1.8l1.1-.1v-.2c0-.3-.3-.5-.9-.5-.5 0-1.1.2-1.5.4l-.3-1.3c.4-.3 1.2-.5 1.9-.5 1.4 0 2.5.7 2.5 2v1.8c0 .6.2 1 .7 1.1l-1.4.9zm-1.1-2.6l-.7.1c-.5 0-.7.4-.7.7 0 .3.2.5.6.5.4 0 .8-.3.8-.8V22zM168.6 27.1c-1.6 0-2.6-.9-2.6-2 0-.8.6-1.3 1.1-1.5l-.7-.7c0-.3.3-.6.7-.8-.4-.3-.8-.8-.8-1.5 0-1.2.8-2 2.2-2 .3 0 .6 0 .8.1.2.1.5.1.8.1.3 0 .6-.1.9-.2l.3 1.3c-.2.1-.4.2-.7.2.1.1.1.4.1.6 0 .9-.7 1.7-1.8 1.8-.2 0-.4.1-.4.2s0 .1.1.2l.8.3c1.1.4 1.6.9 1.6 1.9.2 1.2-.8 2-2.4 2zm.4-2.5l-.6-.2c-.4 0-.7.3-.7.7 0 .4.3.7 1 .7.6 0 1-.3 1-.6-.2-.3-.4-.6-.7-.6zm-.5-4.6c-.4 0-.7.3-.7.6 0 .4.3.6.7.6.4 0 .7-.3.7-.6s-.3-.6-.7-.6zM176.8 21.3l-.8.8h-2.7c.1.4.7.9 1.6.9.6 0 1.1-.2 1.5-.4l-.2 1.5c-.4.2-1 .4-1.7.4-1.7 0-3-1.2-3-2.9 0-1.8 1.3-2.9 2.8-2.9 1.5 0 2.4 1 2.4 2.2.2.1.1.3.1.4zm-2.4-1.3c-.5 0-.9.4-1.1.9h1.8v-.1c.1-.4-.2-.8-.7-.8zM186.2 24.4H185l-.7-2.2c-.1-.3-.2-.7-.3-1.1-.1.4-.2.8-.3 1.1l-.7 2.2h-1.2l-1.9-5.5h1.6l.7 2.1c.1.3.2.7.3 1 .1-.3.2-.7.3-1l.7-2.1h1.3l.7 2.1c.1.3.2.7.3 1.1.1-.3.2-.7.3-1.1l.7-2.1h1.5l-2.1 5.5zM189.5 18.2c-.3 0-.9-.6-.9-.9 0-.3.6-.9.9-.9.3 0 .9.6.9.9.1.2-.5.9-.9.9zm-.8 6.1v-5.4h1.8v5.4h-1.8zM193.4 24.6c-1.1 0-1.9-.6-1.9-1.9v-6.8h1.7v6.6c0 .4.3.7.7.7l-.5 1.4zM196.4 24.6c-1.1 0-1.9-.6-1.9-1.9v-6.8h1.7v6.6c0 .4.3.7.7.7l-.5 1.4zM203.6 23.8c-.8 2.2-1.7 3-2.7 3.4l-1.1-1.1c.9-.3 1.5-1 2-2.1l-2-5.1h1.7l.8 2.1c.1.3.2.7.3 1.1.1-.4.2-.8.3-1.1l.8-2.1h1.6l-1.7 4.9zM208.5 24.5c-1.6 0-3-1.2-3-2.9s1.3-2.9 3-2.9c1.6 0 3 1.2 3 2.9s-1.4 2.9-3 2.9zm0-4.2c-.7 0-1.2.6-1.2 1.4 0 .8.6 1.4 1.2 1.4s1.2-.6 1.2-1.4c0-.9-.6-1.4-1.2-1.4zM215.8 24.3v-.7c-.2.6-.8.9-1.7.9-1.2 0-1.9-.7-1.9-1.8v-3.8h1.8v3.3c0 .4.3.7.8.7s.9-.3.9-.8v-3.3h1.8v5.4h-1.7zM223.6 24.5c-1.2 0-2.1-.4-2.6-.8v-7.9h1.7v3.3c.2-.2.8-.4 1.4-.4 1.5 0 2.7 1.1 2.7 2.8 0 1.7-1 3-3.2 3zm.2-4.2c-.5 0-.9.2-1.1.4v2.1c.2.1.6.3.9.3.9 0 1.5-.6 1.5-1.4 0-.8-.6-1.4-1.3-1.4zM232.6 21.3l-.8.8h-2.7c.1.4.7.9 1.6.9.6 0 1.1-.2 1.5-.4l-.2 1.5c-.4.2-1 .4-1.7.4-1.7 0-3-1.2-3-2.9 0-1.8 1.3-2.9 2.8-2.9 1.5 0 2.4 1 2.4 2.2.1.1.1.3.1.4zm-2.4-1.3c-.5 0-.9.4-1.1.9h1.8v-.1c.1-.4-.2-.8-.7-.8z"/><g><path class="st0" d="M147.8 31.8c-.1-.1-.3-.1-.5-.1-.6 0-1.1.3-1.1 1.2v2.5h-1.8V30h1.7v1.2c.2-.9.8-1.3 1.5-1.3.2 0 .4 0 .5.1l-.3 1.8zM153.6 32.3l-.8.8h-2.7c.1.4.7.9 1.6.9.6 0 1.1-.2 1.5-.4l-.2 1.5c-.4.2-1 .4-1.7.4-1.7 0-3-1.2-3-2.9 0-1.8 1.3-2.9 2.8-2.9 1.5 0 2.4 1 2.4 2.2.2.1.2.3.1.4zm-2.3-1.3c-.5 0-.9.4-1.1.9h1.8v-.1c0-.4-.3-.8-.7-.8zM158.3 35.6c-.3-.1-.7-.3-.8-.7-.2.4-.8.7-1.4.7-1 0-1.8-.7-1.8-1.8 0-1 .8-1.7 1.9-1.8l1.1-.1v-.2c0-.3-.3-.5-.9-.5-.5 0-1.1.2-1.5.4l-.3-1.3c.4-.3 1.2-.5 1.9-.5 1.4 0 2.5.7 2.5 2v1.8c0 .6.2 1 .7 1.1l-1.4.9zm-1.2-2.6l-.7.1c-.5 0-.7.4-.7.7 0 .3.2.5.6.5.4 0 .8-.3.8-.8V33zM164 35.3v-.7c-.3.6-.9.8-1.7.8-1.3 0-2.6-1-2.6-2.9 0-1.8 1.2-2.9 2.8-2.9.6 0 1.2.2 1.4.4v-3.3h1.7v8.5H164zm-.2-3.5c-.2-.2-.5-.5-1.1-.5-.8 0-1.3.6-1.3 1.4s.5 1.4 1.3 1.4c.5 0 .9-.3 1.1-.6v-1.7zM169.9 34.8c-.8 2.2-1.7 3-2.7 3.4l-1.1-1.1c.9-.3 1.5-1 2-2.1l-2-5.1h1.7l.8 2.1c.1.3.2.7.3 1.1.1-.4.2-.8.3-1.1l.8-2.1h1.6l-1.7 4.9zM178.5 31.3h-1.4v2c0 .5.3.7.7.7.2 0 .3 0 .5-.1l-.2 1.3c-.2.1-.5.1-.8.1-1.2 0-2-.6-2-1.7v-2.3h-.9v-1.4h.9v-1.2l1.8-.6v1.8h1.8l-.4 1.4zM182 35.5c-1.6 0-3-1.2-3-2.9s1.3-2.9 3-2.9c1.6 0 3 1.2 3 2.9s-1.4 2.9-3 2.9zm0-4.2c-.7 0-1.2.6-1.2 1.4 0 .8.6 1.4 1.2 1.4s1.2-.6 1.2-1.4c0-.9-.6-1.4-1.2-1.4zM191.6 31.8c-.1-.1-.3-.1-.5-.1-.6 0-1.1.3-1.1 1.2v2.5h-1.8V30h1.7v1.2c.2-.9.8-1.3 1.5-1.3.2 0 .4 0 .5.1l-.3 1.8zM197.4 32.3l-.8.8H194c.1.4.7.9 1.6.9.6 0 1.1-.2 1.5-.4l-.2 1.5c-.4.2-1 .4-1.7.4-1.7 0-3-1.2-3-2.9 0-1.8 1.3-2.9 2.8-2.9 1.5 0 2.4 1 2.4 2.2.1.1.1.3 0 .4zm-2.3-1.3c-.5 0-.9.4-1.1.9h1.8v-.1c0-.4-.3-.8-.7-.8zM202 31.3h-1.4v2c0 .5.3.7.7.7.2 0 .3 0 .5-.1l-.2 1.3c-.2.1-.5.1-.8.1-1.2 0-2-.6-2-1.7v-2.3h-.9v-1.4h.9v-1.2l1.8-.6v1.8h1.8l-.4 1.4zM203.7 29.2c-.3 0-.9-.6-.9-.9 0-.3.6-.9.9-.9.3 0 .9.6.9.9.1.2-.5.9-.9.9zm-.8 6.1v-5.4h1.8v5.4h-1.8zM209.1 31.8c-.1-.1-.3-.1-.5-.1-.6 0-1.1.3-1.1 1.2v2.5h-1.8V30h1.7v1.2c.2-.9.8-1.3 1.5-1.3.2 0 .4 0 .5.1l-.3 1.8zM214.9 32.3l-.8.8h-2.7c.1.4.7.9 1.6.9.6 0 1.1-.2 1.5-.4l-.2 1.5c-.4.2-1 .4-1.7.4-1.7 0-3-1.2-3-2.9 0-1.8 1.3-2.9 2.8-2.9 1.5 0 2.4 1 2.4 2.2.1.1.1.3.1.4zm-2.4-1.3c-.5 0-.9.4-1.1.9h1.8v-.1c.1-.4-.2-.8-.7-.8zM218.2 31.6c-.3.3-.4.6-.4.9v.5l-1.5-.3c-.1-.2-.1-.4-.1-.6 0-.6.3-1.2.7-1.7.3-.3.5-.6.5-.9 0-.3-.2-.5-.7-.5-.4 0-.8.2-1.2.4l-.4-1.5c.4-.3 1-.5 1.7-.5 1.4 0 2.4.8 2.4 2 0 .8-.3 1.4-1 2.2zm-1.1 3.9c-.3 0-1-.7-1-1 0-.3.7-1 1-1 .3 0 1 .7 1 1 0 .3-.7 1-1 1z"/></g></svg>