<svg id="Layer_1" xmlns="http://www.w3.org/2000/svg" viewBox="0 0 320 50"><style>.st0{fill:#fff}</style><path class="st0" d="M61.9 30.5h-1.1c-.6 0-1 .6-1 1.1v-1.7c0-.5-.5-1.1-1-1.1h-1.1c-.6 0-1 .6-1 1.1v-1.1c0-.5-.5-1.1-1-1.1h-1.1c-.6 0-1 .6-1 1.1v-4.3c0-.8-.7-1.5-1.6-1.5-.9 0-1.6.6-1.6 1.5v8.4c-1-.7-2.4-1.9-3.7-1.3-.9.4-.7 1.7.2 2.6 1.6 1.6 3.4 4.9 4 6.7 1 2.9 1.6 4.2 1.6 4.2H61s.9-3 1.8-4.9c.1-.2.3-.6.3-2.1v-6.6c-.2-.4-.7-1-1.2-1"/><path d="M52.7 44.6h7.7c.3-.9 1-3.1 1.7-4.5.1-.2.3-.6.3-1.9v-6.6c0-.2-.2-.5-.5-.5h-1.1c-.2 0-.5.3-.5.5 0 .3-.3.6-.6.6s-.6-.3-.6-.6v-1.7c0-.2-.2-.5-.5-.5h-1.1c-.2 0-.5.3-.5.5 0 .3-.3.6-.6.6s-.6-.3-.6-.6v-1.1c0-.2-.2-.5-.5-.5h-1.1c-.2 0-.5.3-.5.5 0 .3-.3.6-.6.6s-.6-.3-.6-.6v-4.3c0-.5-.5-.9-1-.9-.6 0-1 .4-1 .9v8.4c0 .2-.1.4-.3.5-.2.1-.4.1-.6 0-.1-.1-.2-.2-.4-.3-.3-.5-1.2-1.1-2-1.1-.2 0-.3 0-.5.1l-.3.3c-.1.3.1.9.6 1.4 1.6 1.6 3.4 4.9 4.1 7 .9 2 1.3 3.3 1.6 3.8m8.1 1.1h-8.5c-.2 0-.4-.1-.5-.3 0-.1-.6-1.3-1.6-4.3-.6-1.7-2.2-4.9-3.9-6.5-.7-.7-1.1-1.6-1-2.4.1-.5.4-.9.9-1.1.3-.1.6-.2.9-.2.9 0 1.7.5 2.4 1v-7.4c0-1.1 1-2 2.1-2 1.2 0 2.1.9 2.1 2v2.7c.1-.1.3-.1.5-.1h1.1c.7 0 1.3.6 1.5 1.2.2-.1.3-.1.5-.1h1.1c.9 0 1.6.9 1.6 1.7v.1c.1-.1.3-.1.5-.1h1.1c.9 0 1.6.9 1.6 1.7v6.6c0 1.6-.2 2.1-.4 2.3-.9 1.8-1.8 4.8-1.8 4.8.2.3 0 .4-.2.4"/><path d="M53.4 32c-.3 0-.6-.3-.6-.6v-2.7c0-.3.3-.6.6-.6s.6.3.6.6v2.7c0 .3-.3.6-.6.6M56.6 33.1c-.3 0-.6-.3-.6-.6v-2.7c0-.3.3-.6.6-.6s.6.3.6.6v2.7c-.1.3-.3.6-.6.6M59.7 34.8c-.3 0-.6-.3-.6-.6v-2.7c0-.3.3-.6.6-.6s.6.3.6.6v2.7c0 .4-.2.6-.6.6"/></svg>