<svg id="Layer_1" xmlns="http://www.w3.org/2000/svg" xmlns:xlink="http://www.w3.org/1999/xlink" viewBox="0 0 320 50"><style>.st0,.st1{fill:#fff}.st1{clip-path:url(#SVGID_2_)}.st2{clip-path:url(#SVGID_4_);fill:url(#SVGID_5_)}.st3{clip-path:url(#SVGID_7_);fill:url(#SVGID_8_)}.st4{clip-path:url(#SVGID_10_);fill:url(#SVGID_11_)}</style><path class="st0" d="M279 10.4v1.7h-3v8h-1.9v-8h-3v-1.7h7.9zm.8 9.7h1.9v-9.6h-1.9v9.6zm11.6 0h-1.9l-1-2.4h-3.3l-1 2.4h-1.9l4.1-9.8h.8l4.2 9.8zm9.1 0h-1.9l-1-2.4h-3.3l-1 2.4h-1.9l4.1-9.8h.8l4.2 9.8zm-12.7-4l-1-2.4-1 2.4h2zm9.1 0l-1-2.4-1 2.4h2z"/><defs><path id="SVGID_1_" d="M256 8.1h45.6v15.3H256z"/></defs><clipPath id="SVGID_2_"><use xlink:href="#SVGID_1_" overflow="visible"/></clipPath><path class="st1" d="M264.4 20.7c.8 0 1.6-.3 2.1-.9l2.3-2.3c.5-.5.9-1.3.9-2.1V8.3h-7.1c-.8 0-1.6.3-2.1.9l-2.3 2.3c-.5.5-.9 1.3-.9 2.1v7.2h7.1z"/><defs><path id="SVGID_3_" d="M263.4 8.9c-1.3 0-2.3 1-2.4 2.3v.8h4.9v5h.8c1.3 0 2.4-1.1 2.4-2.3V8.9h-5.7z"/></defs><clipPath id="SVGID_4_"><use xlink:href="#SVGID_3_" overflow="visible"/></clipPath><linearGradient id="SVGID_5_" gradientUnits="userSpaceOnUse" x1="-.343" y1="49.836" x2=".657" y2="49.836" gradientTransform="scale(7.8973 -7.8973) rotate(45 78.89 64.69)"><stop offset="0" stop-color="#9edcf9"/><stop offset=".1" stop-color="#9edcf9"/><stop offset=".9" stop-color="#079dd9"/><stop offset="1" stop-color="#079dd9"/></linearGradient><path class="st2" d="M257 13l8.1-8.1 8 8.1-8 8z"/><g><defs><path id="SVGID_6_" d="M266.7 17.6h-6.3l-2.5 2.5h6.5c.6 0 1.2-.3 1.7-.7l2.1-2.1-.1-.1c-.4.3-.8.4-1.4.4"/></defs><clipPath id="SVGID_7_"><use xlink:href="#SVGID_6_" overflow="visible"/></clipPath><linearGradient id="SVGID_8_" gradientUnits="userSpaceOnUse" x1=".903" y1="49.64" x2="1.903" y2="49.64" gradientTransform="matrix(10.2954 0 0 -10.2954 248.629 529.74)"><stop offset="0" stop-color="#17b0e6"/><stop offset=".114" stop-color="#18ace2"/><stop offset=".264" stop-color="#16a1d7"/><stop offset=".433" stop-color="#1290c7"/><stop offset=".617" stop-color="#0d7ab4"/><stop offset=".81" stop-color="#00619f"/><stop offset=".9" stop-color="#005595"/><stop offset="1" stop-color="#005595"/></linearGradient><path class="st3" d="M257.9 17.2h10.3v2.9h-10.3z"/></g><g><defs><path id="SVGID_9_" d="M258.6 11.9c-.5.4-.7 1-.7 1.7v6.5l2.5-2.5v-6.3c0-.5.1-1 .4-1.4l-.1-.1-2.1 2.1z"/></defs><clipPath id="SVGID_10_"><use xlink:href="#SVGID_9_" overflow="visible"/></clipPath><linearGradient id="SVGID_11_" gradientUnits="userSpaceOnUse" x1="-.36" y1="51.097" x2=".64" y2="51.097" gradientTransform="matrix(0 -10.2956 -10.2956 0 785.434 16.404)"><stop offset="0" stop-color="#0582be"/><stop offset=".219" stop-color="#0478b4"/><stop offset=".653" stop-color="#00609e"/><stop offset=".85" stop-color="#005595"/><stop offset="1" stop-color="#005595"/></linearGradient><path class="st4" d="M257.9 9.8h2.9v10.3h-2.9z"/></g></svg>