<svg id="Layer_1" xmlns="http://www.w3.org/2000/svg" viewBox="0 0 728 90"><style>.st0{fill:#3a833f}</style><path class="st0" d="M454.3 76.5c-1.8-1.4-6-1.6-7.1.8.6-2.2-.5-5.2-2.3-6.5-1.7-1.2-3.9-1.6-5.9-1.3-3.8.6-7.3 3.4-7.8 7.3-.8-1.2-2.2-2-3.8-2-1.7 0-3.1.9-3.9 2.3-1.2-2.2-5.2-2-7-.6-2.1 1.6-2.4 4.5-1.7 7.1H456c.7-2.6.4-5.5-1.7-7.1M529.2 76.5c-1.8-1.4-6-1.6-7.1.8.6-2.2-.5-5.2-2.3-6.5-1.7-1.2-3.9-1.6-5.9-1.3-3.8.6-7.3 3.4-7.8 7.3-.8-1.2-2.2-2-3.8-2-1.7 0-3.1.9-3.9 2.3-1.2-2.2-5.2-2-7-.6-2.1 1.6-2.4 4.5-1.7 7.1H531c.6-2.6.4-5.5-1.8-7.1"/></svg>