<svg id="Layer_1" xmlns="http://www.w3.org/2000/svg" viewBox="0 0 728 90"><style>.st0{fill:#231f20}</style><path class="st0" d="M10.5 78.4h-2l-.2 1.3h.4c.4 0 .8.1 1.1.3.4.2.7.7.7 1.3 0 1-.8 1.8-1.9 1.8-.6 0-1-.2-1.3-.3l.2-.5c.2.1.6.3 1.1.3.7 0 1.2-.4 1.2-1.1 0-.7-.5-1.2-1.5-1.2-.3 0-.5 0-.7.1l.4-2.6h2.5v.6zM11.4 81.7c0-.7.4-1.1 1-1.4-.6-.3-.8-.7-.8-1.2 0-.8.7-1.4 1.6-1.4 1 0 1.5.6 1.5 1.3 0 .4-.2.9-.9 1.2.6.3 1 .7 1 1.3 0 .9-.8 1.5-1.8 1.5-.9.1-1.6-.6-1.6-1.3zm2.8-.1c0-.6-.4-.9-1.1-1.1-.6.2-.9.6-.9 1.1 0 .5.4 1 1 1s1-.4 1-1zM12.3 79c0 .5.4.8 1 1 .4-.2.8-.5.8-.9s-.2-.8-.9-.8c-.6-.1-.9.3-.9.7zM19 80.3c0 1.8-.7 2.7-1.8 2.7-1 0-1.7-1-1.7-2.7 0-1.7.8-2.7 1.8-2.7 1.1.1 1.7 1.1 1.7 2.7zm-2.8.1c0 1.4.4 2.1 1.1 2.1.7 0 1.1-.8 1.1-2.2 0-1.3-.3-2.1-1.1-2.1-.7.1-1.1.8-1.1 2.2zM23.1 80.3c0 1.8-.7 2.7-1.8 2.7-1 0-1.7-1-1.7-2.7 0-1.7.8-2.7 1.8-2.7 1.1.1 1.7 1.1 1.7 2.7zm-2.8.1c0 1.4.4 2.1 1.1 2.1.7 0 1.1-.8 1.1-2.2 0-1.3-.3-2.1-1.1-2.1-.6.1-1.1.8-1.1 2.2zM24.2 82.5h.6c.4-.1.8-.2 1.1-.5.3-.3.6-.8.7-1.4-.3.4-.7.6-1.2.6-.9 0-1.5-.7-1.5-1.6 0-1 .7-1.8 1.8-1.8s1.7.9 1.7 2.2c0 1.1-.4 1.9-.9 2.4-.4.4-1 .6-1.5.7h-.6v-.6zm.2-3c0 .6.4 1.1 1 1.1.5 0 .8-.2 1-.5 0-.1.1-.1.1-.3 0-.9-.3-1.6-1.1-1.6-.5.1-1 .6-1 1.3zM30.1 83v-1.4h-2.4v-.5l2.3-3.3h.8V81h.7v.6h-.7V83h-.7zm0-2v-1.7-.8c-.2.3-.3.5-.4.8L28.4 81h1.7z"/></svg>