<svg id="Layer_1" xmlns="http://www.w3.org/2000/svg" viewBox="0 0 728 90"><style>.st0{fill:#231f20}</style><path class="st0" d="M30 32.5v-5.8h-5.7v5.8h-3.6V17.8h3.6v5.8H30v-5.8h3.6v14.7H30zM45.5 26.7L44 28.2h-5.1c.2.9 1.3 1.8 3.1 1.8 1.1 0 2.2-.3 2.9-.8l-.3 2.9c-.8.4-2 .7-3.3.7-3.2 0-5.7-2.2-5.7-5.6 0-3.4 2.4-5.5 5.4-5.5 2.9 0 4.7 2 4.7 4.2-.1.2-.1.6-.2.8zM41 24.3c-1 0-1.8.8-2 1.7h3.5v-.2c0-.8-.6-1.5-1.5-1.5zM50.9 32.9c-2.1-.1-3.6-1.2-3.6-3.7V16.1h3.3v12.7c0 .9.5 1.3 1.4 1.4l-1.1 2.7zM59.3 32.8c-1.1 0-2.2-.3-2.6-.7v5.7h-3.3V22.1h3v1.3c.6-1.1 1.8-1.6 3.2-1.6 2.6 0 5 1.9 5 5.5 0 3.3-2.4 5.5-5.3 5.5zm-.6-8.1c-1 0-1.7.5-2 1.1v3.3c.3.4 1 .9 2 .9 1.5 0 2.5-1.1 2.5-2.6s-1-2.7-2.5-2.7zM77.4 32.8c-1.1 0-2.2-.3-2.6-.7v5.7h-3.3V22.1h3v1.3c.6-1.1 1.8-1.6 3.2-1.6 2.6 0 5 1.9 5 5.5 0 3.3-2.4 5.5-5.3 5.5zm-.6-8.1c-1 0-1.7.5-2 1.1v3.3c.3.4 1 .9 2 .9 1.5 0 2.5-1.1 2.5-2.6s-1-2.7-2.5-2.7zM91.2 32.5v-1.4c-.4 1.1-1.5 1.7-3.2 1.7-2.3 0-3.7-1.3-3.7-3.5v-7.2h3.4v6.4c0 .8.5 1.4 1.6 1.4 1 0 1.6-.7 1.6-1.5v-6.3h3.4v10.4h-3.1zM103.5 24.8h-2.7v3.9c0 .9.5 1.3 1.4 1.3.4 0 .6 0 .9-.1l-.3 2.6c-.3.2-.9.3-1.6.3-2.3 0-3.7-1.2-3.7-3.3V25h-1.7v-2.8h1.7V20l3.4-1.2v3.4h3.4l-.8 2.6zM116.9 31.5c-1.6 4.2-3.2 5.7-5.2 6.5l-2.1-2.1c1.7-.6 3-1.9 3.8-4.1l-3.7-9.7h3.3l1.5 4c.2.6.5 1.3.6 2 .2-.7.4-1.4.7-2l1.5-4h3.1l-3.5 9.4zM126.4 32.8c-3.2 0-5.7-2.2-5.7-5.5s2.5-5.5 5.7-5.5c3.1 0 5.7 2.2 5.7 5.5s-2.6 5.5-5.7 5.5zm0-8.1c-1.3 0-2.3 1.1-2.3 2.6s1.1 2.6 2.3 2.6c1.2 0 2.3-1.1 2.3-2.6s-1.1-2.6-2.3-2.6zM140.6 32.5v-1.4c-.4 1.1-1.5 1.7-3.2 1.7-2.3 0-3.7-1.3-3.7-3.5v-7.2h3.4v6.4c0 .8.5 1.4 1.6 1.4 1 0 1.6-.7 1.6-1.5v-6.3h3.4v10.4h-3.1zM152.3 25.7c-.2-.1-.7-.3-1-.3-1.1 0-2.1.6-2.1 2.2v4.9h-3.4V22.1h3.3v2.3c.3-1.6 1.6-2.5 3-2.5.3 0 .7 0 1 .1l-.8 3.7zM172.3 32.5v-6.4c0-.8-.4-1.4-1.5-1.4s-1.6.6-1.6 1.5v6.3h-3.4v-6.4c0-.8-.4-1.4-1.5-1.4s-1.6.6-1.6 1.5v6.3h-3.4V22.1h3.1v1.4c.4-1.1 1.4-1.7 3.1-1.7 1.5 0 2.6.6 3.1 1.7.4-1 1.7-1.7 3.2-1.7 2.4 0 3.7 1.3 3.7 3.5v7.2h-3.2zM179.6 20.6c-.6 0-1.8-1.2-1.8-1.8 0-.6 1.2-1.8 1.8-1.8.6 0 1.8 1.2 1.8 1.8 0 .6-1.2 1.8-1.8 1.8zm-1.7 11.9V22.1h3.4v10.4h-3.4zM190 32.5v-6.4c0-.8-.5-1.4-1.5-1.4s-1.7.6-1.7 1.5v6.3h-3.4V22.1h3.1v1.4c.4-1.1 1.5-1.7 3.2-1.7 2.3 0 3.7 1.3 3.7 3.5v7.2H190zM203.4 32.5v-1.3c-.6 1.1-1.8 1.6-3.2 1.6-2.6 0-5-1.9-5-5.5 0-3.4 2.4-5.5 5.3-5.5 1.1 0 2.2.4 2.6.7v-6.3h3.3v16.4h-3zm-.4-6.8c-.3-.4-1-.9-2-.9-1.5 0-2.5 1.1-2.5 2.6s1 2.6 2.5 2.6c1 0 1.7-.5 2-1.1v-3.2zM221 32.9c-.6-.1-1.3-.6-1.6-1.4-.5.9-1.4 1.3-2.7 1.3-1.8 0-3.5-1.3-3.5-3.4 0-1.9 1.5-3.2 3.6-3.4l2.1-.2v-.3c0-.6-.5-1-1.6-1-1 0-2.1.3-2.9.8l-.6-2.6c.9-.6 2.3-.9 3.7-.9 2.8 0 4.7 1.3 4.7 3.8V29c0 1.2.5 1.9 1.3 2.2l-2.5 1.7zm-2.2-5l-1.3.1c-.9.1-1.3.7-1.3 1.3 0 .6.4 1 1.1 1 .8 0 1.5-.6 1.5-1.5v-.9zM231.1 32.5v-6.4c0-.8-.5-1.4-1.5-1.4s-1.7.6-1.7 1.5v6.3h-3.4V22.1h3.1v1.4c.4-1.1 1.5-1.7 3.2-1.7 2.3 0 3.7 1.3 3.7 3.5v7.2h-3.4zM244.4 32.5v-1.3c-.6 1.1-1.8 1.6-3.2 1.6-2.6 0-5-1.9-5-5.5 0-3.4 2.4-5.5 5.3-5.5 1.1 0 2.2.4 2.6.7v-6.3h3.3v16.4h-3zm-.3-6.8c-.3-.4-1-.9-2-.9-1.5 0-2.5 1.1-2.5 2.6s1 2.6 2.5 2.6c1 0 1.7-.5 2-1.1v-3.2zM261.9 19.1c-.4-.2-.9-.3-1.4-.3-1.2 0-1.9.7-1.9 2.2v1h3l-.7 2.8h-2.3v7.7h-3.3v-7.7h-1.6V22h1.6v-1.2c0-3.2 2-4.7 4.7-4.7 1 0 1.9.1 2.5.3l-.6 2.7zM270.1 32.9c-.6-.1-1.3-.6-1.6-1.4-.5.9-1.4 1.3-2.7 1.3-1.8 0-3.5-1.3-3.5-3.4 0-1.9 1.5-3.2 3.6-3.4l2.1-.2v-.3c0-.6-.5-1-1.6-1-1 0-2.1.3-2.9.8l-.6-2.6c.9-.6 2.3-.9 3.7-.9 2.8 0 4.7 1.3 4.7 3.8V29c0 1.2.5 1.9 1.3 2.2l-2.5 1.7zm-2.1-5l-1.3.1c-.9.1-1.3.7-1.3 1.3 0 .6.4 1 1.1 1 .8 0 1.5-.6 1.5-1.5v-.9zM286.5 32.5v-6.4c0-.8-.4-1.4-1.5-1.4s-1.6.6-1.6 1.5v6.3H280v-6.4c0-.8-.4-1.4-1.5-1.4s-1.6.6-1.6 1.5v6.3h-3.4V22.1h3.1v1.4c.4-1.1 1.4-1.7 3.1-1.7 1.5 0 2.6.6 3.1 1.7.4-1 1.7-1.7 3.2-1.7 2.4 0 3.7 1.3 3.7 3.5v7.2h-3.2zM293.8 20.6c-.6 0-1.8-1.2-1.8-1.8 0-.6 1.2-1.8 1.8-1.8.6 0 1.8 1.2 1.8 1.8 0 .6-1.2 1.8-1.8 1.8zm-1.7 11.9V22.1h3.4v10.4h-3.4zM301.3 32.9c-2.1-.1-3.6-1.2-3.6-3.7V16.1h3.3v12.7c0 .9.5 1.3 1.4 1.4l-1.1 2.7zM309.7 31.5c-1.6 4.2-3.2 5.7-5.2 6.5l-2.1-2.1c1.7-.6 3-1.9 3.8-4.1l-3.7-9.7h3.3l1.5 4c.2.6.5 1.3.6 2 .2-.7.4-1.4.7-2l1.5-4h3.1l-3.5 9.4zM315.3 24.4l-1.1-.2c.8-.9 1.4-2.2 1.5-3.2-.6-.1-1.5-1.1-1.5-1.6 0-.7 1.3-1.9 1.9-1.9.5 0 1.9 1.2 1.9 1.9.1 1.4-1.3 3.7-2.7 5zM322.2 32.7c-1.4 0-2.5-.3-3.3-.7l-.3-3c.9.6 2.1 1.1 3.3 1.1.6 0 1-.3 1-.7 0-.4-.3-.6-.9-.8-2-.6-3.2-1.6-3.2-3.4 0-2 1.7-3.4 3.9-3.4 1.3 0 2.6.3 3.1.6l-.6 2.5c-.5-.3-1.3-.6-2.2-.6-.6 0-.9.3-.9.7 0 .4.3.6.9.8 2.3.6 3.3 1.8 3.3 3.5 0 1.8-1.3 3.4-4.1 3.4zM340.4 19.1c-.4-.2-.9-.3-1.4-.3-1.2 0-1.9.7-1.9 2.2v1h3l-.7 2.8h-2.3v7.7h-3.3v-7.7h-1.6V22h1.6v-1.2c0-3.2 2-4.7 4.7-4.7 1 0 1.9.1 2.5.3l-.6 2.7zM348.2 32.5v-1.4c-.4 1.1-1.5 1.7-3.2 1.7-2.3 0-3.7-1.3-3.7-3.5v-7.2h3.4v6.4c0 .8.5 1.4 1.6 1.4 1 0 1.6-.7 1.6-1.5v-6.3h3.4v10.4h-3.1zM360.4 24.8h-2.7v3.9c0 .9.5 1.3 1.4 1.3.4 0 .6 0 .9-.1l-.3 2.6c-.3.2-.9.3-1.6.3-2.3 0-3.7-1.2-3.7-3.3V25h-1.7v-2.8h1.7V20l3.4-1.2v3.4h3.4l-.8 2.6zM369.1 32.5v-1.4c-.4 1.1-1.5 1.7-3.2 1.7-2.3 0-3.7-1.3-3.7-3.5v-7.2h3.4v6.4c0 .8.5 1.4 1.6 1.4 1 0 1.6-.7 1.6-1.5v-6.3h3.4v10.4h-3.1zM380.8 25.7c-.2-.1-.7-.3-1-.3-1.1 0-2.1.6-2.1 2.2v4.9h-3.4V22.1h3.3v2.3c.3-1.6 1.6-2.5 3-2.5.3 0 .7 0 1 .1l-.8 3.7zM392.1 26.7l-1.5 1.5h-5.1c.2.9 1.3 1.8 3.1 1.8 1.1 0 2.2-.3 2.9-.8l-.3 2.9c-.8.4-2 .7-3.3.7-3.2 0-5.7-2.2-5.7-5.6 0-3.4 2.4-5.5 5.4-5.5 2.9 0 4.7 2 4.7 4.2-.2.2-.2.6-.2.8zm-4.6-2.4c-1 0-1.8.8-2 1.7h3.5v-.2c0-.8-.6-1.5-1.5-1.5z"/><g><path class="st0" d="M28 57.9c-.6-.1-1.3-.6-1.6-1.4-.5.9-1.4 1.3-2.7 1.3-1.8 0-3.5-1.3-3.5-3.4 0-1.9 1.5-3.2 3.6-3.4l2.1-.2v-.3c0-.6-.5-1-1.6-1-1 0-2.1.3-2.9.8l-.6-2.6c.9-.6 2.3-.9 3.7-.9 2.8 0 4.7 1.3 4.7 3.8V54c0 1.2.5 1.9 1.3 2.2L28 57.9zm-2.2-5l-1.2.1c-.9.1-1.3.7-1.3 1.3 0 .6.4 1 1.1 1 .8 0 1.5-.6 1.5-1.5v-.9zM38.2 49.8h-2.7v3.9c0 .9.5 1.3 1.4 1.3.4 0 .6 0 .9-.1l-.3 2.6c-.3.2-.9.3-1.6.3-2.3 0-3.7-1.2-3.7-3.3V50h-1.7v-2.8h1.7V45l3.4-1.2v3.4H39l-.8 2.6zM54.8 51.7l-1.5 1.5h-5.1c.2.9 1.3 1.8 3.1 1.8 1.1 0 2.2-.3 2.9-.8l-.3 2.9c-.8.4-2 .7-3.3.7-3.2 0-5.7-2.2-5.7-5.6 0-3.4 2.4-5.5 5.4-5.5 2.9 0 4.7 2 4.7 4.2-.1.2-.2.6-.2.8zm-4.6-2.4c-1 0-1.8.8-2 1.7h3.5v-.2c0-.8-.6-1.5-1.5-1.5zM63.8 57.9c-.6-.1-1.3-.6-1.6-1.4-.5.9-1.4 1.3-2.7 1.3-1.8 0-3.5-1.3-3.5-3.4 0-1.9 1.5-3.2 3.6-3.4l2.1-.2v-.3c0-.6-.5-1-1.6-1-1 0-2.1.3-2.9.8l-.6-2.6c.9-.6 2.3-.9 3.7-.9 2.8 0 4.7 1.3 4.7 3.8V54c0 1.2.5 1.9 1.3 2.2l-2.5 1.7zm-2.2-5l-1.2.1c-.9.1-1.3.7-1.3 1.3 0 .6.4 1 1.1 1 .8 0 1.5-.6 1.5-1.5v-.9zM70.7 57.7c-1.4 0-2.5-.3-3.3-.7l-.4-3c.9.6 2.1 1.1 3.3 1.1.6 0 1-.3 1-.7 0-.4-.3-.6-.9-.8-2-.6-3.2-1.6-3.2-3.4 0-2 1.7-3.4 3.9-3.4 1.3 0 2.6.3 3.1.6l-.6 2.5c-.5-.3-1.3-.6-2.2-.6-.6 0-.9.3-.9.7 0 .4.3.6.9.8 2.3.6 3.3 1.8 3.3 3.5.1 1.8-1.2 3.4-4 3.4zM85.9 51.7l-1.5 1.5h-5.1c.2.9 1.3 1.8 3.1 1.8 1.1 0 2.2-.3 2.9-.8l-.3 2.9c-.8.4-2 .7-3.3.7-3.2 0-5.7-2.2-5.7-5.6 0-3.4 2.4-5.5 5.4-5.5 2.9 0 4.7 2 4.7 4.2-.1.2-.2.6-.2.8zm-4.6-2.4c-1 0-1.8.8-2 1.7h3.5v-.2c0-.8-.6-1.5-1.5-1.5zM104.2 57.6h-2.3l-1.4-4.1c-.2-.6-.4-1.4-.6-2.2-.2.8-.4 1.5-.6 2.1l-1.4 4.2h-2.2L92 47.1h3.1l1.3 4c.2.6.4 1.3.5 2 .1-.6.3-1.4.5-2l1.3-4h2.6l1.3 3.9c.2.6.3 1.4.5 2 .1-.7.3-1.4.5-2l1.3-3.9h2.9l-3.6 10.5zM110.8 45.6c-.6 0-1.8-1.2-1.8-1.8 0-.6 1.2-1.8 1.8-1.8.6 0 1.8 1.2 1.8 1.8.1.6-1.2 1.8-1.8 1.8zm-1.7 11.9V47.1h3.4v10.4h-3.4zM121.7 49.8H119v3.9c0 .9.5 1.3 1.4 1.3.4 0 .6 0 .9-.1l-.3 2.6c-.3.2-.9.3-1.6.3-2.3 0-3.7-1.2-3.7-3.3V50H114v-2.8h1.7V45l3.4-1.2v3.4h3.4l-.8 2.6zM130.1 57.5v-6.4c0-.8-.5-1.4-1.6-1.4-1 0-1.6.6-1.6 1.5v6.3h-3.4V41.1h3.3V48c.5-.8 1.5-1.3 2.9-1.3 2.3 0 3.7 1.3 3.7 3.5v7.2h-3.3zM147.6 45.7v11.8H144V45.7h-4.2v-2.9h12v2.9h-4.2zM153.3 57.5V42.8h3.6v14.7h-3.6zM168.8 57.5l-1.2-3.3h-4.7l-1.2 3.3h-3.4l5.8-14.8h2.5l5.8 14.8h-3.6zm-3.1-8.8c-.1-.4-.3-.9-.4-1.4-.1.5-.3 1-.4 1.4l-1 2.7h2.9l-1.1-2.7zM183.7 57.5l-1.2-3.3h-4.7l-1.2 3.3h-3.4l5.8-14.8h2.5l5.8 14.8h-3.6zm-3.2-8.8c-.1-.4-.3-.9-.4-1.4-.1.5-.3 1-.4 1.4l-1 2.7h2.9l-1.1-2.7zM193.8 57.5V42.8h3.6v11.8h5.5v2.9h-9.1zM205.9 45.6c-.6 0-1.8-1.2-1.8-1.8 0-.6 1.2-1.8 1.8-1.8.6 0 1.8 1.2 1.8 1.8 0 .6-1.2 1.8-1.8 1.8zm-1.7 11.9V47.1h3.4v10.4h-3.4zM217.1 44.1c-.4-.2-.9-.3-1.4-.3-1.2 0-1.9.7-1.9 2.2v1h3l-.7 2.8h-2.3v7.7h-3.3v-7.7H209V47h1.6v-1.2c0-3.2 2-4.7 4.7-4.7 1 0 1.9.1 2.5.3l-.7 2.7zM227.3 51.7l-1.5 1.5h-5.1c.2.9 1.3 1.8 3.1 1.8 1.1 0 2.2-.3 2.9-.8l-.3 2.9c-.8.4-2 .7-3.3.7-3.2 0-5.7-2.2-5.7-5.6 0-3.4 2.4-5.5 5.4-5.5 2.9 0 4.7 2 4.7 4.2-.1.2-.2.6-.2.8zm-4.6-2.4c-1 0-1.8.8-2 1.7h3.5v-.2c0-.8-.6-1.5-1.5-1.5zM236 45.6c-.6 0-1.8-1.2-1.8-1.8 0-.6 1.2-1.8 1.8-1.8.6 0 1.8 1.2 1.8 1.8 0 .6-1.2 1.8-1.8 1.8zm-1.7 11.9V47.1h3.4v10.4h-3.4zM246.4 57.5v-6.4c0-.8-.5-1.4-1.5-1.4s-1.7.6-1.7 1.5v6.3h-3.4V47.1h3.1v1.4c.4-1.1 1.5-1.7 3.2-1.7 2.3 0 3.7 1.3 3.7 3.5v7.2h-3.4zM255.3 57.7c-1.4 0-2.5-.3-3.3-.7l-.3-3c.9.6 2.1 1.1 3.3 1.1.6 0 1-.3 1-.7 0-.4-.3-.6-.9-.8-2-.6-3.2-1.6-3.2-3.4 0-2 1.7-3.4 3.9-3.4 1.3 0 2.6.3 3.1.6l-.6 2.5c-.5-.3-1.3-.6-2.2-.6-.6 0-.9.3-.9.7 0 .4.3.6.9.8 2.3.6 3.3 1.8 3.3 3.5 0 1.8-1.3 3.4-4.1 3.4zM267.9 57.5v-1.4c-.4 1.1-1.5 1.7-3.2 1.7-2.3 0-3.7-1.3-3.7-3.5v-7.2h3.4v6.4c0 .8.5 1.4 1.6 1.4 1 0 1.6-.7 1.6-1.5v-6.3h3.4v10.4h-3.1zM279.6 50.7c-.2-.1-.7-.3-1-.3-1.1 0-2.1.6-2.1 2.2v4.9h-3.4V47.1h3.3v2.3c.3-1.6 1.6-2.5 3-2.5.3 0 .7 0 1 .1l-.8 3.7zM288.9 57.9c-.6-.1-1.3-.6-1.6-1.4-.5.9-1.4 1.3-2.7 1.3-1.8 0-3.5-1.3-3.5-3.4 0-1.9 1.5-3.2 3.6-3.4l2.1-.2v-.3c0-.6-.5-1-1.6-1-1 0-2.1.3-2.9.8l-.6-2.6c.9-.6 2.3-.9 3.7-.9 2.8 0 4.7 1.3 4.7 3.8V54c0 1.2.5 1.9 1.3 2.2l-2.5 1.7zm-2.2-5l-1.3.1c-.9.1-1.3.7-1.3 1.3 0 .6.4 1 1.1 1 .8 0 1.5-.6 1.5-1.5v-.9zM298.9 57.5v-6.4c0-.8-.5-1.4-1.5-1.4s-1.7.6-1.7 1.5v6.3h-3.4V47.1h3.1v1.4c.4-1.1 1.5-1.7 3.2-1.7 2.3 0 3.7 1.3 3.7 3.5v7.2h-3.4zM312.3 50.4c-.7-.4-1.4-.7-2.2-.7-1.5 0-2.6 1.1-2.6 2.6s1.2 2.6 2.7 2.6c.9 0 1.5-.2 2.3-.6l-.3 2.9c-.7.3-1.6.5-2.6.5-2.9 0-5.6-2.1-5.6-5.4 0-3.4 2.7-5.4 5.6-5.4 1.4 0 2.5.3 3.4.8l-.7 2.7zM323.9 51.7l-1.5 1.5h-5.1c.2.9 1.3 1.8 3.1 1.8 1.1 0 2.2-.3 2.9-.8l-.3 2.9c-.8.4-2 .7-3.3.7-3.2 0-5.7-2.2-5.7-5.6 0-3.4 2.4-5.5 5.4-5.5 2.9 0 4.7 2 4.7 4.2-.1.2-.1.6-.2.8zm-4.5-2.4c-1 0-1.8.8-2 1.7h3.5v-.2c0-.8-.7-1.5-1.5-1.5zM327 57.8c-.6 0-1.9-1.3-1.9-1.9 0-.6 1.3-1.9 1.9-1.9.6 0 1.9 1.3 1.9 1.9 0 .6-1.2 1.9-1.9 1.9z"/></g></svg>