<svg id="Layer_1" xmlns="http://www.w3.org/2000/svg" viewBox="0 0 728 90"><style>.st0{fill:#231f20}</style><path class="st0" d="M37.9 24.3h-2.3l-2.1-6.5c-.3-1-.6-2-1-3.3-.3 1.3-.6 2.3-1 3.3l-2.1 6.5h-2.2l-5-14.8h3.5l1.9 5.9c.3.9.6 1.8.8 2.9.2-1.1.5-2 .8-2.9l1.9-5.9h3.1l1.9 5.9c.3.8.6 1.9.8 3 .2-1.1.5-2.1.8-2.9l2-5.9h3.1l-4.9 14.7zM50.7 24.2v-6.4c0-.8-.5-1.4-1.6-1.4-1 0-1.6.6-1.6 1.5v6.3h-3.4V7.8h3.3v6.9c.5-.8 1.5-1.3 2.9-1.3 2.3 0 3.7 1.3 3.7 3.5v7.2h-3.3zM65.7 18.4l-1.5 1.5h-5.1c.2.9 1.3 1.8 3.1 1.8 1.1 0 2.2-.3 2.9-.8l-.3 2.9c-.8.4-2 .7-3.3.7-3.2 0-5.7-2.2-5.7-5.6 0-3.4 2.4-5.5 5.4-5.5 2.9 0 4.7 2 4.7 4.2-.1.2-.1.6-.2.8zm-4.5-2.5c-1 0-1.8.8-2 1.7h3.5v-.2c0-.7-.6-1.5-1.5-1.5zM74.1 24.2v-6.4c0-.8-.5-1.4-1.5-1.4s-1.7.6-1.7 1.5v6.3h-3.4V13.8h3.1v1.4c.4-1.1 1.5-1.7 3.2-1.7 2.3 0 3.7 1.3 3.7 3.5v7.2h-3.4zM91.1 23.1c-1.6 4.2-3.2 5.7-5.2 6.5l-2.1-2.1c1.7-.6 3-1.9 3.8-4.1l-3.7-9.7h3.3l1.5 4c.2.6.5 1.3.6 2 .2-.7.4-1.4.7-2l1.5-4h3.1l-3.5 9.4zM100.6 24.5c-3.2 0-5.7-2.2-5.7-5.5s2.5-5.5 5.7-5.5c3.1 0 5.7 2.2 5.7 5.5s-2.6 5.5-5.7 5.5zm0-8.1c-1.3 0-2.3 1.1-2.3 2.6s1.1 2.6 2.3 2.6c1.2 0 2.3-1.1 2.3-2.6s-1-2.6-2.3-2.6zM114.8 24.2v-1.4c-.4 1.1-1.5 1.7-3.2 1.7-2.3 0-3.7-1.3-3.7-3.5v-7.2h3.4v6.4c0 .8.5 1.4 1.6 1.4 1 0 1.6-.7 1.6-1.5v-6.3h3.4v10.4h-3.1zM131.8 24.2v-6.4c0-.8-.5-1.4-1.6-1.4-1 0-1.6.6-1.6 1.5v6.3h-3.4V7.8h3.3v6.9c.5-.8 1.5-1.3 2.9-1.3 2.3 0 3.7 1.3 3.7 3.5v7.2h-3.3zM144.6 24.6c-.6-.1-1.3-.6-1.6-1.4-.5.9-1.4 1.3-2.7 1.3-1.8 0-3.5-1.3-3.5-3.4 0-1.9 1.5-3.2 3.6-3.4l2.1-.2v-.3c0-.6-.5-1-1.6-1-1 0-2.1.3-2.9.8l-.6-2.6c.9-.6 2.3-.9 3.7-.9 2.8 0 4.7 1.3 4.7 3.8v3.4c0 1.2.5 1.9 1.3 2.2l-2.5 1.7zm-2.1-5l-1.3.1c-.9.1-1.3.7-1.3 1.3 0 .6.4 1 1.1 1 .8 0 1.5-.6 1.5-1.5v-.9zM153.3 24.3h-2.5l-4-10.5h3.3l1.5 4c.2.6.4 1.3.6 2 .2-.7.4-1.5.6-2l1.5-4h3.1l-4.1 10.5zM167.6 18.4l-1.5 1.5H161c.2.9 1.3 1.8 3.1 1.8 1.1 0 2.2-.3 2.9-.8l-.3 2.9c-.8.4-2 .7-3.3.7-3.2 0-5.7-2.2-5.7-5.6 0-3.4 2.4-5.5 5.4-5.5 2.9 0 4.7 2 4.7 4.2-.1.2-.1.6-.2.8zm-4.6-2.5c-1 0-1.8.8-2 1.7h3.5v-.2c.1-.7-.6-1.5-1.5-1.5zM178.1 24.6c-2.1-.1-3.6-1.2-3.6-3.7V7.8h3.3v12.7c0 .9.5 1.3 1.4 1.4l-1.1 2.7zM182.4 12.3c-.6 0-1.8-1.2-1.8-1.8 0-.6 1.2-1.8 1.8-1.8.6 0 1.8 1.2 1.8 1.8 0 .6-1.2 1.8-1.8 1.8zm-1.7 11.9V13.8h3.4v10.4h-3.4zM193.6 10.8c-.4-.2-.9-.3-1.4-.3-1.2 0-1.9.7-1.9 2.2v1h3l-.7 2.8h-2.3v7.7H187v-7.7h-1.6v-2.8h1.6v-1.2c0-3.2 2-4.7 4.7-4.7 1 0 1.9.1 2.5.3l-.6 2.7zM203.8 18.4l-1.5 1.5h-5.1c.2.9 1.3 1.8 3.1 1.8 1.1 0 2.2-.3 2.9-.8l-.3 2.9c-.8.4-2 .7-3.3.7-3.2 0-5.7-2.2-5.7-5.6 0-3.4 2.4-5.5 5.4-5.5 2.9 0 4.7 2 4.7 4.2-.1.2-.2.6-.2.8zm-4.6-2.5c-1 0-1.8.8-2 1.7h3.5v-.2c0-.7-.6-1.5-1.5-1.5zM212.5 12.3c-.6 0-1.8-1.2-1.8-1.8 0-.6 1.2-1.8 1.8-1.8.6 0 1.8 1.2 1.8 1.8 0 .6-1.2 1.8-1.8 1.8zm-1.7 11.9V13.8h3.4v10.4h-3.4zM223 24.2v-6.4c0-.8-.5-1.4-1.5-1.4s-1.7.6-1.7 1.5v6.3h-3.4V13.8h3.1v1.4c.4-1.1 1.5-1.7 3.2-1.7 2.3 0 3.7 1.3 3.7 3.5v7.2H223zM231.8 24.4c-1.4 0-2.5-.3-3.3-.7l-.3-3c.9.6 2.1 1.1 3.3 1.1.6 0 1-.3 1-.7 0-.4-.3-.6-.9-.8-2-.6-3.2-1.6-3.2-3.4 0-2 1.7-3.4 3.9-3.4 1.3 0 2.6.3 3.1.6l-.6 2.5c-.5-.3-1.3-.6-2.2-.6-.6 0-.9.3-.9.7 0 .4.3.6.9.8 2.3.6 3.3 1.8 3.3 3.5 0 1.8-1.2 3.4-4.1 3.4zM244.4 24.2v-1.4c-.4 1.1-1.5 1.7-3.2 1.7-2.3 0-3.7-1.3-3.7-3.5v-7.2h3.4v6.4c0 .8.5 1.4 1.6 1.4 1 0 1.6-.7 1.6-1.5v-6.3h3.4v10.4h-3.1zM256.1 17.3c-.2-.1-.7-.3-1-.3-1.1 0-2.1.6-2.1 2.2v4.9h-3.4V13.8h3.3v2.3c.3-1.6 1.6-2.5 3-2.5.3 0 .7 0 1 .1l-.8 3.6zM265.4 24.6c-.6-.1-1.3-.6-1.6-1.4-.5.9-1.4 1.3-2.7 1.3-1.8 0-3.5-1.3-3.5-3.4 0-1.9 1.5-3.2 3.6-3.4l2.1-.2v-.3c0-.6-.5-1-1.6-1-1 0-2.1.3-2.9.8l-.6-2.6c.9-.6 2.3-.9 3.7-.9 2.8 0 4.7 1.3 4.7 3.8v3.4c0 1.2.5 1.9 1.3 2.2l-2.5 1.7zm-2.2-5l-1.3.1c-.9.1-1.3.7-1.3 1.3 0 .6.4 1 1.1 1 .8 0 1.5-.6 1.5-1.5v-.9zM275.5 24.2v-6.4c0-.8-.5-1.4-1.5-1.4s-1.7.6-1.7 1.5v6.3h-3.4V13.8h3.1v1.4c.4-1.1 1.5-1.7 3.2-1.7 2.3 0 3.7 1.3 3.7 3.5v7.2h-3.4zM288.9 17.1c-.7-.4-1.4-.7-2.2-.7-1.5 0-2.6 1.1-2.6 2.6s1.2 2.6 2.7 2.6c.9 0 1.5-.2 2.3-.6l-.3 2.9c-.7.3-1.6.5-2.6.5-2.9 0-5.6-2.1-5.6-5.4 0-3.4 2.7-5.4 5.6-5.4 1.4 0 2.5.3 3.4.8l-.7 2.7zM300.5 18.4l-1.5 1.5h-5.1c.2.9 1.3 1.8 3.1 1.8 1.1 0 2.2-.3 2.9-.8l-.3 2.9c-.8.4-2 .7-3.3.7-3.2 0-5.7-2.2-5.7-5.6 0-3.4 2.4-5.5 5.4-5.5 2.9 0 4.7 2 4.7 4.2-.1.2-.2.6-.2.8zm-4.6-2.5c-1 0-1.8.8-2 1.7h3.5v-.2c0-.7-.6-1.5-1.5-1.5zM302.7 27.6l-1.1-.2c.8-.9 1.4-2.2 1.5-3.2-.6-.1-1.5-1.1-1.5-1.6 0-.7 1.3-1.9 1.9-1.9.5 0 1.9 1.2 1.9 1.9.1 1.4-1.3 3.8-2.7 5z"/></svg>