<svg id="Layer_1" xmlns="http://www.w3.org/2000/svg" viewBox="0 0 728 90"><style>.st0{fill:#f9e038}.st1{fill:#231f20}</style><path class="st0" d="M579.6 16s-12 0-12 12v4s0 12 12 12H663s12 0 12-12v-4s0-12-12-12h-83.4z"/><path class="st1" d="M591.6 32.8v1.6h-5.1v-8h1.9v6.4h3.2zM594.2 27.9v1.6h3V31h-3v1.8h3.9v1.6h-5.7v-8h5.7V28h-3.9zM605.9 34.4h-2l-.5-1.7h-2.6l-.5 1.7h-1.7l2.6-8h2.2l2.5 8zm-3-3.2l-.9-2.8-.9 2.8h1.8zM608.5 34.4h-1.9v-8h3.4c.7 0 1.4 0 2.1.4.7.4 1 1.2 1 2 0 .9-.5 1.8-1.4 2.1l1.5 3.5h-2.1l-1.2-3.2h-1.4v3.2zm0-4.6h1c.4 0 .8 0 1.1-.2.3-.2.5-.6.5-.9 0-.3-.2-.7-.5-.8-.3-.2-.9-.2-1.2-.2h-1v2.1zM620.4 34.4h-1.6l-3.1-5.4v5.4h-1.5v-8h2l2.7 4.7v-4.7h1.5v8zM630.1 34.4h-1.3l-2-6.5v6.5h-1.6v-8h2.9l1.4 4.8 1.5-4.8h2.9v8H632v-6.5l-1.9 6.5zM636 33.2c-.6-.8-.8-1.9-.8-2.9 0-2.1 1.1-4.1 3.4-4.1 1.1 0 1.9.4 2.6 1.2.6.8.9 1.9.9 2.9 0 .9-.2 2-.8 2.8-.6.9-1.6 1.4-2.7 1.4s-2-.4-2.6-1.3zm1.4-4.5c-.2.5-.3 1.2-.3 1.7 0 1 .2 2.6 1.5 2.6.6 0 1-.3 1.2-.9.2-.5.2-1.2.2-1.7 0-.6-.1-1.3-.3-1.8-.2-.5-.6-.8-1.2-.8-.5-.1-.9.3-1.1.9zM645 34.4h-1.9v-8h3.4c.7 0 1.4 0 2.1.4.7.4 1 1.2 1 2 0 .9-.5 1.8-1.4 2.1l1.5 3.5h-2.1l-1.2-3.2H645v3.2zm0-4.6h1c.4 0 .8 0 1.1-.2.3-.2.5-.6.5-.9 0-.3-.2-.7-.5-.8-.3-.2-.9-.2-1.2-.2h-1v2.1zM652.6 27.9v1.6h3V31h-3v1.8h3.9v1.6h-5.7v-8h5.7V28h-3.9z"/></svg>