<svg id="Layer_1" xmlns="http://www.w3.org/2000/svg" viewBox="0 0 728 90"><style>.st0{fill:none;stroke:#981b27;stroke-width:6.118;stroke-miterlimit:10}.st1{fill:#429891}.st2{fill:none;stroke:#981b27;stroke-width:1.929;stroke-miterlimit:10}.st3{fill:#fab016}.st4{fill:#4f131e}.st5{fill:#981b27}.st6{fill:#48a642}</style><path class="st0" d="M429.7 84.5h74.5"/><path class="st1" d="M444.3 49.5h14.9v34.1h-14.9z"/><path class="st2" d="M444.3 49.5h14.9v34.1h-14.9z"/><path class="st3" d="M456.7 66.2c0 .9-.7 1.5-1.5 1.5-.9 0-1.5-.7-1.5-1.5 0-.9.7-1.5 1.5-1.5.8-.1 1.5.6 1.5 1.5"/><path class="st4" d="M485.5 16.2h6.1v10.5h-6.1z"/><path class="st5" d="M493 17.6c0 .6-.6 1.1-1.3 1.1h-6.4c-.7 0-1.3-.5-1.3-1.1v-1.9c0-.6.6-1.1 1.3-1.1h6.4c.7 0 1.3.5 1.3 1.1v1.9zM502.9 42l-35-23.4L432.8 42l-1.8-6.7 36.9-24.6 36.9 24.6zM464.2 49.6h6.6v16.2h-6.6z"/><path class="st0" d="M429.7 84.5h71.6"/><path class="st6" d="M495.1 84c-1-.8-3.4-.9-4 .5.4-1.3-.3-3.1-1.3-3.9-.9-.7-2.2-.9-3.3-.7-2.1.4-4.1 2-4.4 4.4-.5-.7-1.2-1.2-2.1-1.2-.9 0-1.8.6-2.2 1.4-.7-1.3-2.9-1.2-3.9-.4-1.2 1-1.3 2.7-1 4.2H496c.5-1.6.3-3.4-.9-4.3"/><path class="st5" d="M489.1 49.6h6.7v16.2h-6.7z"/></svg>