<svg id="Layer_1" xmlns="http://www.w3.org/2000/svg" xmlns:xlink="http://www.w3.org/1999/xlink" viewBox="0 0 728 90"><style>.st0{fill:#00c3ff}.st1{fill:none}.st2{clip-path:url(#SVGID_2_);fill:url(#SVGID_3_)}.st3{clip-path:url(#SVGID_5_);fill:url(#SVGID_6_)}.st4{clip-path:url(#SVGID_8_);fill:url(#SVGID_9_)}.st5{clip-path:url(#SVGID_11_);fill:url(#SVGID_12_)}.st6{fill:#fff}</style><path class="st0" d="M0 0h728v90H0V0zm469.5 71.4c10.5 0 19-8.5 19-19V9.2h-43.2c-10.4 0-19 8.6-19 18.9v43.3h43.2z"/><path class="st1" d="M413.7 6.5h77.1v77.1h-77.1z"/><defs><path id="SVGID_1_" d="M469.5 74.2h-45.9l-9.4 9.4h50.7c3.1-.7 6-2.3 8.2-4.5l7.2-7.2-.4-.4c-3.1 1.7-6.7 2.7-10.4 2.7"/></defs><clipPath id="SVGID_2_"><use xlink:href="#SVGID_1_" overflow="visible"/></clipPath><linearGradient id="SVGID_3_" gradientUnits="userSpaceOnUse" x1="1.08" y1="91.063" x2="2.08" y2="91.063" gradientTransform="matrix(0 -12.5119 -12.5119 0 1586.59 97.56)"><stop offset="0" stop-color="#10b0e6"/><stop offset=".159" stop-color="#0faae1"/><stop offset=".368" stop-color="#0c9ad2"/><stop offset=".604" stop-color="#077fba"/><stop offset=".858" stop-color="#015999"/><stop offset=".89" stop-color="#005494"/><stop offset="1" stop-color="#005494"/></linearGradient><path class="st2" d="M414.1 71.5h66.1v12h-66.1z"/><defs><path id="SVGID_4_" d="M418.6 24.6c-3 3.1-4.9 7.3-4.9 12v47h.4l9.4-9.4v-46c0-3.7.9-7.2 2.7-10.3l-.4-.4-7.2 7.1z"/></defs><clipPath id="SVGID_5_"><use xlink:href="#SVGID_4_" overflow="visible"/></clipPath><linearGradient id="SVGID_6_" gradientUnits="userSpaceOnUse" x1="1.015" y1="91.015" x2="2.015" y2="91.015" gradientTransform="matrix(0 -66.8462 -66.8462 0 6503.968 152.33)"><stop offset="0" stop-color="#0081bd"/><stop offset=".393" stop-color="#006fac"/><stop offset=".85" stop-color="#005494"/><stop offset="1" stop-color="#005494"/></linearGradient><path class="st3" d="M413.7 17.4h12.5v66.1h-12.5z"/><g><defs><path id="SVGID_7_" d="M469.5 74.2h-45.9l-9.4 9.4h50.7c3.1-.7 6-2.3 8.2-4.5l7.2-7.2-.4-.4c-3.1 1.7-6.7 2.7-10.4 2.7"/></defs><clipPath id="SVGID_8_"><use xlink:href="#SVGID_7_" overflow="visible"/></clipPath><linearGradient id="SVGID_9_" gradientUnits="userSpaceOnUse" x1=".985" y1="91.018" x2="1.985" y2="91.018" gradientTransform="matrix(65.8326 0 0 -65.8326 349.152 6069.49)"><stop offset="0" stop-color="#10b0e6"/><stop offset=".161" stop-color="#0faae1"/><stop offset=".372" stop-color="#0c9ad2"/><stop offset=".61" stop-color="#077fba"/><stop offset=".867" stop-color="#015999"/><stop offset=".9" stop-color="#005494"/><stop offset="1" stop-color="#005494"/></linearGradient><path class="st4" d="M414.1 71.5h66.1v12h-66.1z"/></g><g><defs><path id="SVGID_10_" d="M469.5 74.2h-45.9l-9.4 9.4h50.7c3.1-.7 6-2.3 8.2-4.5l7.2-7.2-.4-.4c-3.1 1.7-6.7 2.7-10.4 2.7"/></defs><clipPath id="SVGID_11_"><use xlink:href="#SVGID_10_" overflow="visible"/></clipPath><linearGradient id="SVGID_12_" gradientUnits="userSpaceOnUse" x1=".985" y1="91.018" x2="1.985" y2="91.018" gradientTransform="matrix(65.8326 0 0 -65.8326 349.152 6069.49)"><stop offset="0" stop-color="#10b0e6"/><stop offset=".161" stop-color="#0faae1"/><stop offset=".372" stop-color="#0c9ad2"/><stop offset=".61" stop-color="#077fba"/><stop offset=".867" stop-color="#015999"/><stop offset=".9" stop-color="#005494"/><stop offset="1" stop-color="#005494"/></linearGradient><path class="st5" d="M414.1 71.5h66.1v12h-66.1z"/></g><path class="st6" d="M444.8 6.5c-5.8 0-11.2 2.3-15.3 6.4-4.1 4.1-6.4 9.5-6.4 15.3v46H469c12 0 21.8-9.8 21.8-21.7v-46h-46zm43.6 45.9c0 10.5-8.5 19-19 19h-43.2V28.1c0-10.3 8.6-18.9 19-18.9h43.2v43.2z"/><path class="st1" d="M413.7 6.5h77.1v77.1h-77.1z"/><path class="st1" d="M413.7 6.5h77.1v77.1h-77.1z"/></svg>