<svg id="Layer_1" xmlns="http://www.w3.org/2000/svg" xmlns:xlink="http://www.w3.org/1999/xlink" viewBox="0 0 728 90"><style>.st0{fill:#004b86}.st1{clip-path:url(#SVGID_2_);fill:#fff}.st2{clip-path:url(#SVGID_4_);fill:url(#SVGID_5_)}.st3{clip-path:url(#SVGID_7_);fill:url(#SVGID_8_)}.st4{clip-path:url(#SVGID_10_);fill:url(#SVGID_11_)}</style><path class="st0" d="M621.8 57.7V61h-5.9v16h-3.7V61h-5.9v-3.3h15.5zm1.6 19.3h3.7V57.8h-3.7V77zm23 0h-3.8l-2-4.7h-6.5l-2 4.7h-3.7l8.2-19.5h1.6l8.2 19.5zm18.1 0h-3.8l-2-4.7h-6.5l-2 4.7h-3.7l8.2-19.5h1.6l8.2 19.5zm-25.2-7.9l-2-4.8-2 4.8h4zm18.1 0l-2-4.8-2 4.8h4z"/><defs><path id="SVGID_1_" d="M576 53.1h90.6v30.5H576z"/></defs><clipPath id="SVGID_2_"><use xlink:href="#SVGID_1_" overflow="visible"/></clipPath><path class="st1" d="M592.8 78.2c1.7 0 3.1-.7 4.2-1.8l4.6-4.6c1.1-1.1 1.7-2.5 1.7-4.1V53.5h-14.2c-1.7 0-3.1.7-4.2 1.8l-4.6 4.6c-1.1 1.1-1.7 2.5-1.7 4.1v14.2h14.2z"/><defs><path id="SVGID_3_" d="M590.8 54.8c-2.6 0-4.7 2.1-4.7 4.7V61h9.7v9.7h1.6c2.6 0 4.7-2.1 4.7-4.7V54.8h-11.3z"/></defs><clipPath id="SVGID_4_"><use xlink:href="#SVGID_3_" overflow="visible"/></clipPath><linearGradient id="SVGID_5_" gradientUnits="userSpaceOnUse" x1="1" y1="91.09" x2="2" y2="91.09" gradientTransform="scale(15.696 -15.696) rotate(45 134.347 87.69)"><stop offset="0" stop-color="#9bdbf7"/><stop offset=".1" stop-color="#9bdbf7"/><stop offset=".9" stop-color="#009dda"/><stop offset="1" stop-color="#009dda"/></linearGradient><path class="st2" d="M578.1 62.7l16-15.9 16 15.9-16 16z"/><g><defs><path id="SVGID_6_" d="M597.4 72h-12.5l-5 5h12.9c1.3 0 2.4-.5 3.3-1.4l4.2-4.2-.1-.1c-.8.4-1.8.7-2.8.7"/></defs><clipPath id="SVGID_7_"><use xlink:href="#SVGID_6_" overflow="visible"/></clipPath><linearGradient id="SVGID_8_" gradientUnits="userSpaceOnUse" x1=".951" y1="91.049" x2="1.951" y2="91.049" gradientTransform="matrix(20.4625 0 0 -20.4625 560.433 1937.194)"><stop offset="0" stop-color="#14b0e6"/><stop offset=".161" stop-color="#13aae1"/><stop offset=".372" stop-color="#0f9ad2"/><stop offset=".61" stop-color="#097fba"/><stop offset=".867" stop-color="#015999"/><stop offset=".9" stop-color="#005494"/><stop offset="1" stop-color="#005494"/></linearGradient><path class="st3" d="M579.9 71.2h20.5v5.7h-20.5z"/></g><g><defs><path id="SVGID_9_" d="M581.3 60.7c-.9.9-1.4 2.1-1.4 3.3v13l5-5V59.4c0-1 .3-2 .7-2.8l-.1-.1-4.2 4.2z"/></defs><clipPath id="SVGID_10_"><use xlink:href="#SVGID_9_" overflow="visible"/></clipPath><linearGradient id="SVGID_11_" gradientUnits="userSpaceOnUse" x1="1.049" y1="91.049" x2="2.049" y2="91.049" gradientTransform="matrix(0 -20.4628 -20.4628 0 2445.867 98.419)"><stop offset="0" stop-color="#0081bd"/><stop offset=".377" stop-color="#0070ad"/><stop offset=".85" stop-color="#005494"/><stop offset="1" stop-color="#005494"/></linearGradient><path class="st4" d="M579.9 56.5h5.7V77h-5.7z"/></g></svg>