<svg id="Layer_1" xmlns="http://www.w3.org/2000/svg" viewBox="0 0 300 600"><style>.st0{fill:#f9e039}</style><path class="st0" d="M102.6 137.7c-1-.6-2.8-1.2-4.6-1.2-4 0-7.1 2.7-7.1 6.8s3.2 6.8 7.4 6.8c1.9 0 3.5-.4 4.7-1l-.5 4.7c-1.2.6-2.8.8-5.1.8-5.8 0-12-3.9-12-11.5s6.2-11.5 12-11.5c2.8 0 4.9.6 6.3 1.4l-1.1 4.7zM116.6 155.1c-.9-.2-2-.9-2.5-2.1-.7 1.3-2.2 1.9-4.1 1.9-2.8 0-5.3-2-5.3-5.3 0-2.9 2.3-4.9 5.4-5.2l3.2-.3v-.5c0-.9-.8-1.6-2.5-1.6-1.5 0-3.3.5-4.4 1.2l-.9-3.9c1.3-.8 3.5-1.4 5.6-1.4 4.2 0 7.2 1.9 7.2 5.7v5.2c0 1.9.7 2.8 1.9 3.3l-3.6 3zm-3.3-7.6l-1.9.2c-1.3.1-1.9 1.1-1.9 2 0 .8.6 1.5 1.6 1.5 1.2 0 2.2-.9 2.2-2.3v-1.4zM126.8 155.1c-3.3-.1-5.4-1.8-5.4-5.6v-19.9h5.1v19.3c0 1.3.7 2 2.1 2.1l-1.8 4.1zM142 143.7c-1.1-.7-2.1-1-3.4-1-2.2 0-4 1.6-4 3.9s1.8 3.9 4.1 3.9c1.3 0 2.3-.3 3.5-.9l-.5 4.4c-1 .5-2.4.8-3.9.8-4.4 0-8.6-3.2-8.6-8.3 0-5.2 4.2-8.3 8.5-8.3 2.1 0 3.8.4 5.2 1.2l-.9 4.3zM155.4 154.4v-2.2c-.6 1.7-2.3 2.6-4.9 2.6-3.5 0-5.6-1.9-5.6-5.3v-11h5.1v9.7c0 1.2.8 2.2 2.4 2.2 1.5 0 2.5-1 2.5-2.3v-9.6h5.1v15.9h-4.6zM168.5 155.1c-3.3-.1-5.4-1.8-5.4-5.6v-19.9h5.1v19.3c0 1.3.7 2 2.1 2.1l-1.8 4.1zM183.3 155.1c-.9-.2-2-.9-2.5-2.1-.7 1.3-2.2 1.9-4.1 1.9-2.8 0-5.3-2-5.3-5.3 0-2.9 2.3-4.9 5.4-5.2l3.2-.3v-.5c0-.9-.8-1.6-2.5-1.6-1.5 0-3.3.5-4.4 1.2l-.9-3.9c1.3-.8 3.5-1.4 5.6-1.4 4.2 0 7.2 1.9 7.2 5.7v5.2c0 1.9.7 2.8 1.9 3.3l-3.6 3zm-3.3-7.6l-1.9.2c-1.3.1-1.9 1.1-1.9 2 0 .8.6 1.5 1.6 1.5 1.2 0 2.2-.9 2.2-2.3v-1.4zM198.4 142.8h-4.1v5.9c0 1.4.7 1.9 2.1 1.9.6 0 .9 0 1.3-.2l-.5 3.9c-.5.2-1.4.4-2.4.4-3.6 0-5.7-1.9-5.7-5v-6.9h-2.7v-4.2h2.7v-3.4l5.1-1.9v5.3h5.1l-.9 4.2zM214.9 145.6l-2.3 2.3h-7.8c.2 1.3 2 2.8 4.7 2.8 1.6 0 3.3-.5 4.4-1.2l-.5 4.4c-1.2.6-3 1-5 1-4.8 0-8.7-3.4-8.7-8.5s3.7-8.4 8.3-8.4c4.4 0 7.1 3 7.1 6.3-.1.5-.1 1-.2 1.3zm-7-3.7c-1.5 0-2.8 1.2-3.1 2.6h5.4v-.4c0-1-.9-2.2-2.3-2.2z"/><g><path class="st0" d="M128.6 189.9c-2.4 6.4-4.9 8.7-7.9 9.8l-3.2-3.2c2.6-1 4.5-2.8 5.8-6.2l-5.7-14.8h5l2.3 6.2c.4.9.7 2 .9 3.1h.1c.3-1.1.7-2.2 1-3.1l2.3-6.2h4.7l-5.3 14.4zM142.6 191.9c-4.8 0-8.6-3.4-8.6-8.4s3.9-8.4 8.6-8.4c4.8 0 8.6 3.4 8.6 8.4s-3.8 8.4-8.6 8.4zm0-12.4c-1.9 0-3.6 1.7-3.6 4s1.6 4 3.6 4c1.9 0 3.6-1.7 3.6-4s-1.7-4-3.6-4zM163.8 191.4v-2.2c-.6 1.7-2.3 2.6-4.9 2.6-3.5 0-5.6-1.9-5.6-5.3v-11h5.1v9.7c0 1.2.8 2.2 2.4 2.2 1.5 0 2.5-1 2.5-2.3v-9.6h5.1v15.9h-4.6zM181.3 181c-.3-.2-1-.4-1.5-.4-1.6 0-3.2.9-3.2 3.4v7.4h-5.1v-15.9h5.1v3.5c.5-2.5 2.4-3.8 4.5-3.8.5 0 1.1.1 1.5.2l-1.3 5.6z"/></g><g><path class="st0" d="M45.7 229.1c-3.3-.1-5.4-1.8-5.4-5.6v-19.9h5.1v19.3c0 1.3.7 2 2.1 2.1l-1.8 4.1zM51.7 210.4c-.9 0-2.8-1.9-2.8-2.8s1.9-2.7 2.8-2.7c.9 0 2.8 1.8 2.8 2.7s-1.9 2.8-2.8 2.8zm-2.6 18v-15.9h5.2v15.9h-5.2zM68.4 208.1c-.6-.2-1.4-.4-2.1-.4-1.9 0-2.9 1.1-2.9 3.4v1.5H68l-1 4.2h-3.5v11.7h-5v-11.7H56v-4.2h2.4v-1.9c0-4.8 3.1-7.2 7.1-7.2 1.5 0 2.9.2 3.7.5l-.8 4.1zM83.4 219.6l-2.3 2.3h-7.8c.2 1.3 2 2.8 4.7 2.8 1.6 0 3.3-.5 4.4-1.2l-.5 4.4c-1.2.6-3 1-5 1-4.8 0-8.7-3.4-8.7-8.5s3.7-8.4 8.3-8.4c4.4 0 7.1 3 7.1 6.3 0 .5-.1 1-.2 1.3zm-6.9-3.7c-1.5 0-2.8 1.2-3.1 2.6h5.4v-.4c0-1-1-2.2-2.3-2.2zM96.4 216.8h-4.1v5.9c0 1.4.7 1.9 2.1 1.9.6 0 .9 0 1.3-.2l-.5 3.9c-.5.2-1.4.4-2.4.4-3.6 0-5.7-1.9-5.7-5v-6.9h-2.7v-4.2h2.7v-3.4l5.1-1.9v5.3h5.1l-.9 4.2zM101.4 210.4c-.9 0-2.8-1.9-2.8-2.8s1.9-2.7 2.8-2.7c.9 0 2.8 1.8 2.8 2.7s-1.9 2.8-2.8 2.8zm-2.6 18v-15.9h5.2v15.9h-5.2zM126.5 228.4v-9.7c0-1.2-.6-2.2-2.2-2.2s-2.4 1-2.4 2.2v9.7h-5.1v-9.7c0-1.2-.6-2.2-2.2-2.2s-2.4 1-2.4 2.2v9.7H107v-15.9h4.8v2.1c.6-1.7 2.2-2.6 4.7-2.6 2.3 0 4 .9 4.7 2.6.7-1.5 2.5-2.6 4.9-2.6 3.6 0 5.6 2 5.6 5.3v11h-5.2zM149 219.6l-2.3 2.3H139c.2 1.3 2 2.8 4.7 2.8 1.6 0 3.3-.5 4.4-1.2l-.5 4.4c-1.2.6-3 1-5 1-4.8 0-8.7-3.4-8.7-8.5s3.7-8.4 8.3-8.4c4.4 0 7.1 3 7.1 6.3-.1.5-.2 1-.3 1.3zm-6.9-3.7c-1.5 0-2.8 1.2-3.1 2.6h5.4v-.4c0-1-1-2.2-2.3-2.2zM161.6 210.4c-.9 0-2.8-1.9-2.8-2.8s1.9-2.7 2.8-2.7 2.8 1.8 2.8 2.7-1.9 2.8-2.8 2.8zm-2.6 18v-15.9h5.2v15.9H159zM177.2 228.4v-9.7c0-1.2-.8-2.2-2.3-2.2-1.5 0-2.5 1-2.5 2.2v9.7h-5.1v-15.9h4.7v2.1c.6-1.7 2.3-2.6 4.8-2.6 3.5 0 5.6 2 5.6 5.3v11h-5.2zM197.2 217.7c-1-.7-2.1-1-3.4-1-2.2 0-4 1.6-4 3.9s1.8 3.9 4.1 3.9c1.3 0 2.3-.3 3.5-.9l-.5 4.4c-1 .5-2.4.8-3.9.8-4.4 0-8.6-3.2-8.6-8.3 0-5.2 4.2-8.3 8.5-8.3 2.1 0 3.8.4 5.2 1.2l-.9 4.3zM207.9 228.9c-4.8 0-8.6-3.4-8.6-8.4s3.9-8.4 8.6-8.4c4.8 0 8.6 3.4 8.6 8.4s-3.9 8.4-8.6 8.4zm0-12.4c-1.9 0-3.6 1.7-3.6 4s1.6 4 3.6 4c1.9 0 3.6-1.7 3.6-4s-1.7-4-3.6-4zM238.2 228.4v-9.7c0-1.2-.6-2.2-2.2-2.2s-2.4 1-2.4 2.2v9.7h-5.1v-9.7c0-1.2-.6-2.2-2.2-2.2s-2.4 1-2.4 2.2v9.7h-5.1v-15.9h4.8v2.1c.6-1.7 2.2-2.6 4.7-2.6 2.3 0 4 .9 4.7 2.6.7-1.5 2.5-2.6 4.9-2.6 3.6 0 5.6 2 5.6 5.3v11h-5.3zM260.7 219.6l-2.3 2.3h-7.8c.2 1.3 2 2.8 4.7 2.8 1.6 0 3.3-.5 4.4-1.2l-.5 4.4c-1.2.6-3 1-5 1-4.8 0-8.7-3.4-8.7-8.5s3.7-8.4 8.3-8.4c4.4 0 7.1 3 7.1 6.3-.1.5-.1 1-.2 1.3zm-7-3.7c-1.5 0-2.8 1.2-3.1 2.6h5.4v-.4c0-1-.9-2.2-2.3-2.2z"/></g><g><path class="st0" d="M55.9 247.4c-.9 0-2.8-1.9-2.8-2.8s1.9-2.7 2.8-2.7c.9 0 2.8 1.8 2.8 2.7s-1.9 2.8-2.8 2.8zm-2.6 18v-15.9h5.2v15.9h-5.2zM71.5 265.4v-9.7c0-1.2-.8-2.2-2.3-2.2-1.5 0-2.5 1-2.5 2.2v9.7h-5.1v-15.9h4.7v2.1c.6-1.7 2.3-2.6 4.8-2.6 3.5 0 5.6 2 5.6 5.3v11h-5.2zM91.6 265.9c-1.3 0-3.1-.3-4.2-.8l-.5-4.5c1.1.6 2.4 1 3.7 1 2.1 0 3.9-1 3.9-3.2 0-1.7-1.6-3-3.5-3-.2 0-.4 0-.7.1l-.8-3.7c1.9-.4 3.5-1.4 3.5-2.7 0-1.1-.9-1.9-2.2-1.9-1.2 0-2.2.4-3.2.9l-1-4.3c1.2-.6 3-1.1 4.9-1.1 4.2 0 6.8 2.1 6.8 5.4 0 2.3-1.7 3.9-3.2 4.3 2.4.5 4.9 2.7 4.9 6.2.1 4.6-3.3 7.3-8.4 7.3zM110 266c-4.4 0-8.1-3.7-8.1-11.7 0-8 3.6-11.7 8.1-11.7 4.4 0 8 3.7 8 11.7.1 7.9-3.6 11.7-8 11.7zm0-19c-1.6 0-2.9 2.5-2.9 7.3 0 4.9 1.4 7.3 2.9 7.3s2.9-2.3 2.9-7.3c.1-4.9-1.3-7.3-2.9-7.3zM133.1 265.8c-2.2 0-3.7-.5-5-1.1l-.5-4.6c1.4 1 3.2 1.7 5 1.7.9 0 1.5-.5 1.5-1.1 0-.7-.5-.9-1.4-1.2-3-.9-4.9-2.4-4.9-5.2 0-3.1 2.5-5.1 6-5.1 2 0 3.9.5 4.7.9l-.9 3.8c-.8-.4-2-.9-3.3-.9-.8 0-1.4.4-1.4 1s.4.9 1.4 1.2c3.6.9 5 2.7 5 5.4.1 2.7-1.9 5.2-6.2 5.2zM155.8 256.6l-2.3 2.3h-7.8c.2 1.3 2 2.8 4.7 2.8 1.6 0 3.3-.5 4.4-1.2l-.5 4.4c-1.2.6-3 1-5 1-4.8 0-8.7-3.4-8.7-8.5s3.7-8.4 8.3-8.4c4.4 0 7.1 3 7.1 6.3 0 .5-.1 1-.2 1.3zm-6.9-3.7c-1.5 0-2.8 1.2-3.1 2.6h5.4v-.4c0-1-1-2.2-2.3-2.2zM170 254.7c-1-.7-2.1-1-3.4-1-2.2 0-4 1.6-4 3.9s1.8 3.9 4.1 3.9c1.3 0 2.3-.3 3.5-.9l-.5 4.4c-1 .5-2.4.8-3.9.8-4.4 0-8.6-3.2-8.6-8.3 0-5.2 4.2-8.3 8.5-8.3 2.1 0 3.8.4 5.2 1.2l-.9 4.3zM180.6 265.9c-4.8 0-8.6-3.4-8.6-8.4s3.9-8.4 8.6-8.4c4.8 0 8.6 3.4 8.6 8.4s-3.8 8.4-8.6 8.4zm0-12.4c-1.9 0-3.6 1.7-3.6 4s1.6 4 3.6 4c1.9 0 3.6-1.7 3.6-4s-1.7-4-3.6-4zM201.5 265.4v-9.7c0-1.2-.8-2.2-2.3-2.2-1.5 0-2.5 1-2.5 2.2v9.7h-5.1v-15.9h4.7v2.1c.6-1.7 2.3-2.6 4.8-2.6 3.5 0 5.6 2 5.6 5.3v11h-5.2zM221.3 265.4v-2c-.9 1.6-2.7 2.4-4.9 2.4-3.9 0-7.6-2.9-7.6-8.4 0-5.1 3.6-8.4 8.1-8.4 1.7 0 3.4.6 4 1.1v-9.7h5v24.9h-4.6zm-.5-10.4c-.5-.7-1.5-1.4-3.1-1.4-2.2 0-3.8 1.8-3.8 4 0 2.3 1.6 4 3.8 4 1.5 0 2.6-.8 3.1-1.6v-5zM233.9 265.8c-2.2 0-3.7-.5-5-1.1l-.5-4.6c1.4 1 3.2 1.7 5 1.7.9 0 1.5-.5 1.5-1.1 0-.7-.5-.9-1.4-1.2-3-.9-4.9-2.4-4.9-5.2 0-3.1 2.5-5.1 6-5.1 2 0 3.9.5 4.7.9l-.9 3.8c-.8-.4-2-.9-3.3-.9-.8 0-1.4.4-1.4 1s.4.9 1.4 1.2c3.6.9 5 2.7 5 5.4s-2 5.2-6.2 5.2zM244.7 265.9c-.9 0-2.9-2-2.9-2.9 0-.9 2-2.9 2.9-2.9.9 0 2.9 2 2.9 2.9 0 1-1.9 2.9-2.9 2.9z"/></g></svg>