<svg id="Layer_1" xmlns="http://www.w3.org/2000/svg" viewBox="0 0 300 600"><style>.st0{fill:#f9e039}</style><path class="st0" d="M69.6 155.5l-6-8.8h-1.4v8.8H57v-22.3h8.2c3.8 0 7.2 2.6 7.2 6.8 0 2.6-1.5 4.7-3.4 5.6l7.1 10h-6.5zm-5.3-18h-2.1v5h2.1c1.4 0 2.8-.8 2.8-2.5 0-1.6-1.4-2.5-2.8-2.5zM90.4 146.7l-2.3 2.3h-7.8c.2 1.3 2 2.8 4.7 2.8 1.6 0 3.3-.5 4.4-1.2L89 155c-1.2.6-3 1-5 1-4.8 0-8.7-3.4-8.7-8.5s3.7-8.4 8.3-8.4c4.4 0 7.1 3 7.1 6.3-.1.4-.2 1-.3 1.3zm-6.9-3.7c-1.5 0-2.8 1.2-3.1 2.6h5.4v-.4c0-1.1-1-2.2-2.3-2.2zM103.7 156.2c-.9-.2-2-.9-2.5-2.1-.7 1.3-2.2 1.9-4.1 1.9-2.8 0-5.3-2-5.3-5.3 0-2.9 2.3-4.9 5.4-5.2l3.2-.3v-.5c0-.9-.8-1.6-2.5-1.6-1.5 0-3.3.5-4.4 1.2l-.9-3.9c1.3-.8 3.5-1.4 5.6-1.4 4.2 0 7.2 1.9 7.2 5.7v5.2c0 1.9.7 2.8 1.9 3.3l-3.6 3zm-3.3-7.6l-1.9.2c-1.3.1-1.9 1.1-1.9 2 0 .8.6 1.5 1.6 1.5 1.2 0 2.2-.9 2.2-2.3v-1.4zM120.3 155.5v-2c-.9 1.6-2.7 2.4-4.9 2.4-3.9 0-7.6-2.9-7.6-8.4 0-5.1 3.6-8.4 8.1-8.4 1.7 0 3.4.6 4 1.1v-9.7h5v24.9h-4.6zm-.5-10.4c-.5-.7-1.5-1.4-3.1-1.4-2.2 0-3.8 1.8-3.8 4 0 2.3 1.6 4 3.8 4 1.5 0 2.6-.8 3.1-1.6v-5zM137.1 153.9c-2.4 6.4-4.9 8.7-7.9 9.8l-3.2-3.2c2.6-1 4.5-2.8 5.8-6.2l-5.7-14.8h5l2.3 6.2c.4.9.7 2 .9 3.1h.1c.3-1.1.7-2.2 1-3.1l2.3-6.2h4.7l-5.3 14.4zM162.3 143.8h-4.1v5.9c0 1.4.7 1.9 2.1 1.9.6 0 .9 0 1.3-.2l-.5 3.9c-.5.2-1.4.4-2.4.4-3.6 0-5.7-1.9-5.7-5v-6.9h-2.7v-4.2h2.7v-3.4l5.1-1.9v5.3h5.1l-.9 4.2zM172.2 156c-4.8 0-8.6-3.4-8.6-8.4s3.9-8.4 8.6-8.4c4.8 0 8.6 3.4 8.6 8.4s-3.8 8.4-8.6 8.4zm0-12.4c-1.9 0-3.6 1.7-3.6 4s1.6 4 3.6 4c1.9 0 3.6-1.7 3.6-4s-1.7-4-3.6-4zM197.7 163.6c-4.6 0-7.7-2.6-7.7-6 0-2.4 1.6-3.9 3.3-4.3l-2-2c.1-1 1-1.9 1.9-2.3-1.2-.7-2.3-2.2-2.3-4.2 0-3.4 2.4-5.7 6.5-5.7.9 0 1.7.1 2.3.3.7.2 1.5.3 2.3.3.9 0 1.8-.2 2.5-.5l.9 3.9c-.5.3-1.3.5-2 .5.2.3.4 1.1.4 1.6 0 2.7-2.1 4.9-5.2 5.1-.6 0-1 .2-1 .6 0 .2.1.4.4.5l2.5.9c3.1 1.1 4.8 2.7 4.8 5.6 0 3.2-3 5.7-7.6 5.7zm1.1-7.5l-1.9-.5c-1.2 0-2.1.9-2.1 2.1 0 1.1.9 2 2.8 2 1.8 0 2.8-.8 2.8-1.8 0-.7-.6-1.5-1.6-1.8zm-1.4-13.2c-1.2 0-2 .9-2 1.9 0 1.1.9 1.9 2 1.9s2-.8 2-1.9c0-1.1-.8-1.9-2-1.9zM209.7 137.5c-.9 0-2.8-1.9-2.8-2.8s1.9-2.7 2.8-2.7 2.8 1.8 2.8 2.7-1.9 2.8-2.8 2.8zm-2.6 18v-15.9h5.2v15.9h-5.2zM223.6 155.6h-3.9l-6.1-16h5l2.2 6.1c.3.8.6 2 .9 3.1h.1c.2-1 .6-2.2.9-3.1l2.2-6.1h4.8l-6.1 16zM244.9 146.7l-2.3 2.3h-7.8c.2 1.3 2 2.8 4.7 2.8 1.6 0 3.3-.5 4.4-1.2l-.5 4.4c-1.2.6-3 1-5 1-4.8 0-8.7-3.4-8.7-8.5s3.7-8.4 8.3-8.4c4.4 0 7.1 3 7.1 6.3 0 .4-.1 1-.2 1.3zM238 143c-1.5 0-2.8 1.2-3.1 2.6h5.4v-.4c0-1.1-1-2.2-2.3-2.2z"/><g><path class="st0" d="M48.4 190.9c-2.4 6.4-4.9 8.7-7.9 9.8l-3.2-3.2c2.6-1 4.5-2.8 5.8-6.2l-5.7-14.8h5l2.3 6.2c.4.9.7 2 .9 3.1h.1c.3-1.1.7-2.2 1-3.1l2.3-6.2h4.7l-5.3 14.4zM62.4 193c-4.8 0-8.6-3.4-8.6-8.4s3.9-8.4 8.6-8.4c4.8 0 8.6 3.4 8.6 8.4s-3.8 8.4-8.6 8.4zm0-12.4c-1.9 0-3.6 1.7-3.6 4s1.6 4 3.6 4c1.9 0 3.6-1.7 3.6-4s-1.7-4-3.6-4zM83.6 192.5v-2.2c-.6 1.7-2.3 2.6-4.9 2.6-3.5 0-5.6-1.9-5.6-5.3v-11h5.1v9.7c0 1.2.8 2.2 2.4 2.2 1.5 0 2.5-1 2.5-2.3v-9.6h5.1v15.9h-4.6zM101.1 182.1c-.3-.2-1-.4-1.5-.4-1.6 0-3.2.9-3.2 3.4v7.4h-5.1v-15.9h5.1v3.5c.5-2.5 2.4-3.8 4.5-3.8.5 0 1.1.1 1.5.2l-1.3 5.6zM121.1 182.1c-.3-.2-1-.4-1.5-.4-1.6 0-3.2.9-3.2 3.4v7.4h-5.1v-15.9h5.1v3.5c.5-2.5 2.4-3.8 4.5-3.8.5 0 1.1.1 1.5.2l-1.3 5.6zM137.8 183.7l-2.3 2.3h-7.8c.2 1.3 2 2.8 4.7 2.8 1.6 0 3.3-.5 4.4-1.2l-.5 4.4c-1.2.6-3 1-5 1-4.8 0-8.7-3.4-8.7-8.5s3.7-8.4 8.3-8.4c4.4 0 7.1 3 7.1 6.3 0 .4-.1.9-.2 1.3zm-6.9-3.7c-1.5 0-2.8 1.2-3.1 2.6h5.4v-.4c0-1.1-1-2.2-2.3-2.2zM150.8 180.8h-4.1v5.9c0 1.4.7 1.9 2.1 1.9.6 0 .9 0 1.3-.2l-.5 3.9c-.5.2-1.4.4-2.4.4-3.6 0-5.7-1.9-5.7-5v-6.9h-2.7v-4.2h2.7v-3.4l5.1-1.9v5.3h5.1l-.9 4.2zM155.8 174.5c-.9 0-2.8-1.9-2.8-2.8s1.9-2.7 2.8-2.7 2.8 1.8 2.8 2.7-1.9 2.8-2.8 2.8zm-2.6 18v-15.9h5.2v15.9h-5.2zM171.2 182.1c-.3-.2-1-.4-1.5-.4-1.6 0-3.2.9-3.2 3.4v7.4h-5.1v-15.9h5.1v3.5c.5-2.5 2.4-3.8 4.5-3.8.5 0 1.1.1 1.5.2l-1.3 5.6zM188 183.7l-2.3 2.3h-7.8c.2 1.3 2 2.8 4.7 2.8 1.6 0 3.3-.5 4.4-1.2l-.5 4.4c-1.2.6-3 1-5 1-4.8 0-8.7-3.4-8.7-8.5s3.7-8.4 8.3-8.4c4.4 0 7.1 3 7.1 6.3-.1.4-.2.9-.2 1.3zm-7-3.7c-1.5 0-2.8 1.2-3.1 2.6h5.4v-.4c0-1.1-.9-2.2-2.3-2.2zM209.8 192.5v-9.7c0-1.2-.6-2.2-2.2-2.2s-2.4 1-2.4 2.2v9.7H200v-9.7c0-1.2-.6-2.2-2.2-2.2s-2.4 1-2.4 2.2v9.7h-5.1v-15.9h4.8v2.1c.6-1.7 2.2-2.6 4.7-2.6 2.3 0 4 .9 4.7 2.6.7-1.5 2.5-2.6 4.9-2.6 3.6 0 5.6 2 5.6 5.3v11h-5.2zM232.3 183.7L230 186h-7.8c.2 1.3 2 2.8 4.7 2.8 1.6 0 3.3-.5 4.4-1.2l-.5 4.4c-1.2.6-3 1-5 1-4.8 0-8.7-3.4-8.7-8.5s3.7-8.4 8.3-8.4c4.4 0 7.1 3 7.1 6.3-.1.4-.2.9-.2 1.3zm-7-3.7c-1.5 0-2.8 1.2-3.1 2.6h5.4v-.4c0-1.1-.9-2.2-2.3-2.2zM244.6 192.5v-9.7c0-1.2-.8-2.2-2.3-2.2-1.5 0-2.5 1-2.5 2.2v9.7h-5.1v-15.9h4.7v2.1c.6-1.7 2.3-2.6 4.8-2.6 3.5 0 5.6 2 5.6 5.3v11h-5.2zM262.9 180.8h-4.1v5.9c0 1.4.7 1.9 2.1 1.9.6 0 .9 0 1.3-.2l-.5 3.9c-.5.2-1.4.4-2.4.4-3.6 0-5.7-1.9-5.7-5v-6.9H251v-4.2h2.7v-3.4l5.1-1.9v5.3h5.1l-1 4.2z"/></g><g><path class="st0" d="M95 229.8c-2.2 0-3.7-.5-5-1.1l-.5-4.6c1.4 1 3.2 1.7 5 1.7.9 0 1.5-.5 1.5-1.1 0-.7-.5-.9-1.4-1.2-3-.9-4.9-2.4-4.9-5.2 0-3.1 2.5-5.1 6-5.1 2 0 3.9.5 4.7.9l-.9 3.8c-.8-.4-2-.9-3.3-.9-.8 0-1.4.4-1.4 1s.4.9 1.4 1.2c3.6.9 5 2.7 5 5.4 0 2.8-2 5.2-6.2 5.2zM114.5 230.2c-.9-.2-2-.9-2.5-2.1-.7 1.3-2.2 1.9-4.1 1.9-2.8 0-5.3-2-5.3-5.3 0-2.9 2.3-4.9 5.4-5.2l3.2-.3v-.5c0-.9-.8-1.6-2.5-1.6-1.5 0-3.3.5-4.4 1.2l-.9-3.9c1.3-.8 3.5-1.4 5.6-1.4 4.2 0 7.2 1.9 7.2 5.7v5.2c0 1.9.7 2.8 1.9 3.3l-3.6 3zm-3.3-7.7l-1.9.2c-1.3.1-1.9 1.1-1.9 2 0 .8.6 1.5 1.6 1.5 1.2 0 2.2-.9 2.2-2.3v-1.4zM127.2 229.6h-3.9l-6.1-16h5l2.2 6.1c.3.8.6 2 .9 3.1h.1c.2-1 .6-2.2.9-3.1l2.2-6.1h4.8l-6.1 16zM137.3 211.5c-.9 0-2.8-1.9-2.8-2.8s1.9-2.7 2.8-2.7c.9 0 2.8 1.8 2.8 2.7s-1.9 2.8-2.8 2.8zm-2.6 18v-15.9h5.2v15.9h-5.2zM152.9 229.5v-9.7c0-1.2-.8-2.2-2.3-2.2-1.5 0-2.5 1-2.5 2.2v9.7H143v-15.9h4.7v2.1c.6-1.7 2.3-2.6 4.8-2.6 3.5 0 5.6 2 5.6 5.3v11h-5.2zM167.5 237.6c-4.6 0-7.7-2.6-7.7-6 0-2.4 1.6-3.9 3.3-4.3l-2-2c.1-1 1-1.9 1.9-2.3-1.2-.7-2.3-2.2-2.3-4.2 0-3.4 2.4-5.7 6.5-5.7.9 0 1.7.1 2.3.3.7.2 1.5.3 2.3.3.9 0 1.8-.2 2.5-.5l.9 3.9c-.5.3-1.3.5-2 .5.2.3.4 1.1.4 1.6 0 2.7-2.1 4.9-5.2 5.1-.6 0-1 .2-1 .6 0 .2.1.4.4.5l2.5.9c3.1 1.1 4.8 2.7 4.8 5.6 0 3.2-3 5.7-7.6 5.7zm1.1-7.5l-1.9-.5c-1.2 0-2.1.9-2.1 2.1 0 1.1.9 2 2.8 2 1.8 0 2.8-.8 2.8-1.8-.1-.7-.6-1.5-1.6-1.8zm-1.4-13.3c-1.2 0-2 .9-2 1.9 0 1.1.9 1.9 2 1.9s2-.8 2-1.9c0-1-.8-1.9-2-1.9zM181.9 229.8c-2.2 0-3.7-.5-5-1.1l-.5-4.6c1.4 1 3.2 1.7 5 1.7.9 0 1.5-.5 1.5-1.1 0-.7-.5-.9-1.4-1.2-3-.9-4.9-2.4-4.9-5.2 0-3.1 2.5-5.1 6-5.1 2 0 3.9.5 4.7.9l-.9 3.8c-.8-.4-2-.9-3.3-.9-.8 0-1.4.4-1.4 1s.4.9 1.4 1.2c3.6.9 5 2.7 5 5.4 0 2.8-2 5.2-6.2 5.2zM209 230.2c-.9-.2-2-.9-2.5-2.1-.7 1.3-2.2 1.9-4.1 1.9-2.8 0-5.3-2-5.3-5.3 0-2.9 2.3-4.9 5.4-5.2l3.2-.3v-.5c0-.9-.8-1.6-2.5-1.6-1.5 0-3.3.5-4.4 1.2l-.9-3.9c1.3-.8 3.5-1.4 5.6-1.4 4.2 0 7.2 1.9 7.2 5.7v5.2c0 1.9.7 2.8 1.9 3.3l-3.6 3zm-3.3-7.7l-1.9.2c-1.3.1-1.9 1.1-1.9 2 0 .8.6 1.5 1.6 1.5 1.2 0 2.2-.9 2.2-2.3v-1.4z"/></g><g><path class="st0" d="M73.6 266.6h-3.5l-2.1-6.3c-.3-1-.6-2.1-.9-3.3H67c-.2 1.2-.6 2.3-.9 3.3l-2.1 6.3h-3.4l-5.5-16h4.7l2 6c.3.9.6 2 .8 3h.1c.2-1 .5-2.1.8-3l2-6h3.9l2 6c.3 1 .5 2.1.7 3.1H72c.2-1 .5-2.1.8-3.1l2-6h4.4l-5.6 16zM91.7 267.2c-.9-.2-2-.9-2.5-2.1-.7 1.3-2.2 1.9-4.1 1.9-2.8 0-5.3-2-5.3-5.3 0-2.9 2.3-4.9 5.4-5.2l3.2-.3v-.5c0-.9-.8-1.6-2.5-1.6-1.5 0-3.3.5-4.4 1.2l-.9-3.9c1.3-.8 3.5-1.4 5.6-1.4 4.2 0 7.2 1.9 7.2 5.7v5.2c0 1.9.7 2.8 1.9 3.3l-3.6 3zm-3.3-7.7l-1.9.2c-1.3.1-1.9 1.1-1.9 2 0 .8.6 1.5 1.6 1.5 1.2 0 2.2-.9 2.2-2.3v-1.4zM106.5 266.5l-4.7-6.4v6.4h-5.1v-24.9h5.1v15.5l4.8-6.4h5.6l-5.6 7.7 5.9 8.2h-6z"/><path class="st0" d="M127.5 257.7l-2.3 2.3h-7.8c.2 1.3 2 2.8 4.7 2.8 1.6 0 3.3-.5 4.4-1.2l-.5 4.4c-1.2.6-3 1-5 1-4.8 0-8.7-3.4-8.7-8.5s3.7-8.4 8.3-8.4c4.4 0 7.1 3 7.1 6.3-.1.4-.2.9-.2 1.3zm-7-3.8c-1.5 0-2.8 1.2-3.1 2.6h5.4v-.4c0-1-.9-2.2-2.3-2.2zM129.7 258.8v-3.9h9.2v3.9h-9.2zM152 266.5v-2.2c-.6 1.7-2.3 2.6-4.9 2.6-3.5 0-5.6-1.9-5.6-5.3v-11h5.1v9.7c0 1.2.8 2.2 2.4 2.2 1.5 0 2.5-1 2.5-2.3v-9.6h5.1v15.9H152zM168.6 266.9c-1.7 0-3.4-.5-4-1.1v8.7h-5v-23.9h4.5v2c.9-1.6 2.7-2.4 4.9-2.4 3.9 0 7.6 2.9 7.6 8.4.1 5-3.6 8.3-8 8.3zm-.9-12.3c-1.5 0-2.6.8-3.1 1.6v5c.5.7 1.5 1.4 3.1 1.4 2.2 0 3.8-1.7 3.8-4 0-2.2-1.6-4-3.8-4zM198.5 255.7c-1-.7-2.1-1-3.4-1-2.2 0-4 1.6-4 3.9s1.8 3.9 4.1 3.9c1.3 0 2.3-.3 3.5-.9l-.5 4.4c-1 .5-2.4.8-3.9.8-4.4 0-8.6-3.2-8.6-8.3 0-5.2 4.2-8.3 8.5-8.3 2.1 0 3.8.4 5.2 1.2l-.9 4.3zM212.6 267.2c-.9-.2-2-.9-2.5-2.1-.7 1.3-2.2 1.9-4.1 1.9-2.8 0-5.3-2-5.3-5.3 0-2.9 2.3-4.9 5.4-5.2l3.2-.3v-.5c0-.9-.8-1.6-2.5-1.6-1.5 0-3.3.5-4.4 1.2l-.9-3.9c1.3-.8 3.5-1.4 5.6-1.4 4.2 0 7.2 1.9 7.2 5.7v5.2c0 1.9.7 2.8 1.9 3.3l-3.6 3zm-3.3-7.7l-1.9.2c-1.3.1-1.9 1.1-1.9 2 0 .8.6 1.5 1.6 1.5 1.2 0 2.2-.9 2.2-2.3v-1.4zM222.8 267.1c-3.3-.1-5.4-1.8-5.4-5.6v-19.9h5.1v19.3c0 1.3.7 2 2.1 2.1l-1.8 4.1zM231.6 267.1c-3.3-.1-5.4-1.8-5.4-5.6v-19.9h5.1v19.3c0 1.3.7 2 2.1 2.1l-1.8 4.1zM242.4 255.5c-.9 1-1.2 1.8-1.2 2.8 0 .5 0 1.1.1 1.5l-4.4-.9c-.2-.7-.2-1.2-.2-1.8 0-1.9.7-3.5 2-4.8.9-.9 1.4-1.6 1.4-2.6 0-.7-.7-1.6-1.9-1.6-1.3 0-2.4.5-3.6 1.2l-1-4.3c1.3-.8 3-1.3 5-1.3 4.1 0 6.9 2.4 6.9 5.9-.1 2-1 3.6-3.1 5.9zm-3.1 11.5c-.9 0-2.9-2-2.9-2.9 0-.9 2-2.9 2.9-2.9.9 0 2.9 2 2.9 2.9 0 .9-2 2.9-2.9 2.9z"/></g></svg>