<svg id="Layer_1" xmlns="http://www.w3.org/2000/svg" viewBox="0 0 300 600"><style>.st0{fill:#f9e039}</style><path class="st0" d="M136.8 156.6c-6.2 0-12.4-4-12.4-11.7 0-7.7 6.4-11.7 12.3-11.7 3.1 0 5.7.8 7.2 1.9l-1 4.5c-1.4-.9-3.5-1.6-5.7-1.6-4.1 0-7.5 2.7-7.5 7.1 0 4.2 3.2 6.9 7.2 6.9 1.3 0 2.3-.2 3-.7v-3.5H136v-4.2h8.9v10.6c-1.7 1.6-4.5 2.4-8.1 2.4zM162.6 147.3l-2.3 2.3h-7.8c.2 1.3 2 2.8 4.7 2.8 1.6 0 3.3-.5 4.4-1.2l-.5 4.4c-1.2.6-3 1-5 1-4.8 0-8.7-3.4-8.7-8.5s3.7-8.4 8.3-8.4c4.4 0 7.1 3 7.1 6.3-.1.4-.1 1-.2 1.3zm-7-3.7c-1.5 0-2.8 1.2-3.1 2.6h5.4v-.4c0-1.1-.9-2.2-2.3-2.2zM175.6 144.4h-4.1v5.9c0 1.4.7 1.9 2.1 1.9.6 0 .9 0 1.3-.2l-.5 3.9c-.5.2-1.4.4-2.4.4-3.6 0-5.7-1.9-5.7-5v-6.9h-2.7v-4.2h2.7v-3.4l5.1-1.9v5.3h5.1l-.9 4.2zM77.7 201.2c-4.6 0-7.7-2.6-7.7-6 0-2.4 1.6-3.9 3.3-4.3l-2-2c.1-1 1-1.9 1.9-2.3-1.2-.7-2.3-2.2-2.3-4.2 0-3.4 2.4-5.7 6.5-5.7.9 0 1.7.1 2.3.3.7.2 1.5.3 2.3.3.9 0 1.8-.2 2.5-.5l.9 3.9c-.5.3-1.3.5-2 .5.2.3.4 1.1.4 1.6 0 2.7-2.1 4.9-5.2 5.1-.6 0-1 .2-1 .6 0 .2.1.4.4.5l2.5.9c3.1 1.1 4.8 2.7 4.8 5.6 0 3.2-3 5.7-7.6 5.7zm1.1-7.5l-1.9-.5c-1.2 0-2.1.9-2.1 2.1 0 1.1.9 2 2.8 2 1.8 0 2.8-.8 2.8-1.8-.1-.7-.6-1.5-1.6-1.8zm-1.4-13.3c-1.2 0-2 .9-2 1.9 0 1.1.9 1.9 2 1.9s2-.8 2-1.9c0-1-.8-1.9-2-1.9zM97.3 193.1v-2.2c-.6 1.7-2.3 2.6-4.9 2.6-3.5 0-5.6-1.9-5.6-5.3v-11H92v9.7c0 1.2.8 2.2 2.4 2.2 1.5 0 2.5-1 2.5-2.3v-9.6h5.1v15.9h-4.7zM116 193.8c-.9-.2-2-.9-2.5-2.1-.7 1.3-2.2 1.9-4.1 1.9-2.8 0-5.3-2-5.3-5.3 0-2.9 2.3-4.9 5.4-5.2l3.2-.3v-.5c0-.9-.8-1.6-2.5-1.6-1.5 0-3.3.5-4.4 1.2l-.9-3.9c1.3-.8 3.5-1.4 5.6-1.4 4.2 0 7.2 1.9 7.2 5.7v5.2c0 1.9.7 2.8 1.9 3.3l-3.6 3zm-3.2-7.6l-1.9.2c-1.3.1-1.9 1.1-1.9 2 0 .8.6 1.5 1.6 1.5 1.2 0 2.2-.9 2.2-2.3v-1.4zM130.8 182.7c-.3-.2-1-.4-1.5-.4-1.6 0-3.2.9-3.2 3.4v7.4H121v-15.9h5.1v3.5c.5-2.5 2.4-3.8 4.5-3.8.5 0 1.1.1 1.5.2l-1.3 5.6zM144.5 193.8c-.9-.2-2-.9-2.5-2.1-.7 1.3-2.2 1.9-4.1 1.9-2.8 0-5.3-2-5.3-5.3 0-2.9 2.3-4.9 5.4-5.2l3.2-.3v-.5c0-.9-.8-1.6-2.5-1.6-1.5 0-3.3.5-4.4 1.2l-.9-3.9c1.3-.8 3.5-1.4 5.6-1.4 4.2 0 7.2 1.9 7.2 5.7v5.2c0 1.9.7 2.8 1.9 3.3l-3.6 3zm-3.3-7.6l-1.9.2c-1.3.1-1.9 1.1-1.9 2 0 .8.6 1.5 1.6 1.5 1.2 0 2.2-.9 2.2-2.3v-1.4zM159.4 193.1v-9.7c0-1.2-.8-2.2-2.3-2.2-1.5 0-2.5 1-2.5 2.2v9.7h-5.1v-15.9h4.7v2.1c.6-1.7 2.3-2.6 4.8-2.6 3.5 0 5.6 2 5.6 5.3v11h-5.2zM177.8 181.4h-4.1v5.9c0 1.4.7 1.9 2.1 1.9.6 0 .9 0 1.3-.2l-.5 3.9c-.5.2-1.4.4-2.4.4-3.6 0-5.7-1.9-5.7-5v-6.9h-2.7v-4.2h2.7v-3.4l5.1-1.9v5.3h5.1l-.9 4.2zM194.3 184.3l-2.3 2.3h-7.8c.2 1.3 2 2.8 4.7 2.8 1.6 0 3.3-.5 4.4-1.2l-.5 4.4c-1.2.6-3 1-5 1-4.8 0-8.7-3.4-8.7-8.5s3.7-8.4 8.3-8.4c4.4 0 7.1 3 7.1 6.3-.1.4-.2.9-.2 1.3zm-7-3.7c-1.5 0-2.8 1.2-3.1 2.6h5.4v-.4c0-1.1-.9-2.2-2.3-2.2zM210.9 184.3l-2.3 2.3h-7.8c.2 1.3 2 2.8 4.7 2.8 1.6 0 3.3-.5 4.4-1.2l-.5 4.4c-1.2.6-3 1-5 1-4.8 0-8.7-3.4-8.7-8.5s3.7-8.4 8.3-8.4c4.4 0 7.1 3 7.1 6.3 0 .4-.1.9-.2 1.3zm-6.9-3.7c-1.5 0-2.8 1.2-3.1 2.6h5.4v-.4c0-1.1-1-2.2-2.3-2.2zM225 193.1v-2c-.9 1.6-2.7 2.4-4.9 2.4-3.9 0-7.6-2.9-7.6-8.4 0-5.1 3.6-8.4 8.1-8.4 1.7 0 3.4.6 4 1.1v-9.7h5V193H225zm-.5-10.4c-.5-.7-1.5-1.4-3.1-1.4-2.2 0-3.8 1.8-3.8 4 0 2.3 1.6 4 3.8 4 1.5 0 2.6-.8 3.1-1.6v-5z"/><g><path class="st0" d="M101.4 230.7c-3.3-.1-5.4-1.8-5.4-5.6v-19.9h5.1v19.3c0 1.3.7 2 2.1 2.1l-1.8 4.1zM107.5 212.1c-.9 0-2.8-1.9-2.8-2.8s1.9-2.7 2.8-2.7c.9 0 2.8 1.8 2.8 2.7s-1.9 2.8-2.8 2.8zm-2.6 18v-15.9h5.2v15.9h-5.2zM124.1 209.7c-.6-.2-1.4-.4-2.1-.4-1.9 0-2.9 1.1-2.9 3.4v1.5h4.6l-1 4.2h-3.5v11.7h-5v-11.7h-2.4v-4.2h2.4v-1.9c0-4.8 3.1-7.2 7.1-7.2 1.5 0 2.9.2 3.7.5l-.9 4.1zM139.2 221.3l-2.3 2.3h-7.8c.2 1.3 2 2.8 4.7 2.8 1.6 0 3.3-.5 4.4-1.2l-.5 4.4c-1.2.6-3 1-5 1-4.8 0-8.7-3.4-8.7-8.5s3.7-8.4 8.3-8.4c4.4 0 7.1 3 7.1 6.3 0 .4-.1.9-.2 1.3zm-7-3.8c-1.5 0-2.8 1.2-3.1 2.6h5.4v-.4c.1-1-.9-2.2-2.3-2.2zM152.2 218.4h-4.1v5.9c0 1.4.7 1.9 2.1 1.9.6 0 .9 0 1.3-.2l-.5 3.9c-.5.2-1.4.4-2.4.4-3.6 0-5.7-1.9-5.7-5v-6.9h-2.7v-4.2h2.7v-3.4l5.1-1.9v5.3h5.1l-.9 4.2zM157.2 212.1c-.9 0-2.8-1.9-2.8-2.8s1.9-2.7 2.8-2.7 2.8 1.8 2.8 2.7-1.9 2.8-2.8 2.8zm-2.6 18v-15.9h5.2v15.9h-5.2zM182.3 230.1v-9.7c0-1.2-.6-2.2-2.2-2.2s-2.4 1-2.4 2.2v9.7h-5.1v-9.7c0-1.2-.6-2.2-2.2-2.2s-2.4 1-2.4 2.2v9.7h-5.1v-15.9h4.8v2.1c.6-1.7 2.2-2.6 4.7-2.6 2.3 0 4 .9 4.7 2.6.7-1.5 2.5-2.6 4.9-2.6 3.6 0 5.6 2 5.6 5.3v11h-5.3zM204.8 221.3l-2.3 2.3h-7.8c.2 1.3 2 2.8 4.7 2.8 1.6 0 3.3-.5 4.4-1.2l-.5 4.4c-1.2.6-3 1-5 1-4.8 0-8.7-3.4-8.7-8.5s3.7-8.4 8.3-8.4c4.4 0 7.1 3 7.1 6.3-.1.4-.1.9-.2 1.3zm-7-3.8c-1.5 0-2.8 1.2-3.1 2.6h5.4v-.4c0-1-.9-2.2-2.3-2.2z"/></g><g><path class="st0" d="M68.6 249c-.9 0-2.8-1.9-2.8-2.8s1.9-2.7 2.8-2.7c.9 0 2.8 1.8 2.8 2.7s-1.9 2.8-2.8 2.8zM66 267.1v-15.9h5.2v15.9H66zM84.2 267.1v-9.7c0-1.2-.8-2.2-2.3-2.2-1.5 0-2.5 1-2.5 2.2v9.7h-5.1v-15.9H79v2.1c.6-1.7 2.3-2.6 4.8-2.6 3.5 0 5.6 2 5.6 5.3v11h-5.2zM104.1 256.3c-1.1-.7-2.1-1-3.4-1-2.2 0-4 1.6-4 3.9s1.8 3.9 4.1 3.9c1.3 0 2.3-.3 3.5-.9l-.5 4.4c-1 .5-2.4.8-3.9.8-4.4 0-8.6-3.2-8.6-8.3 0-5.2 4.2-8.3 8.5-8.3 2.1 0 3.8.4 5.2 1.2l-.9 4.3zM114.8 267.6c-4.8 0-8.6-3.4-8.6-8.4s3.9-8.4 8.6-8.4c4.8 0 8.6 3.4 8.6 8.4s-3.8 8.4-8.6 8.4zm0-12.4c-1.9 0-3.6 1.7-3.6 4s1.6 4 3.6 4c1.9 0 3.6-1.7 3.6-4s-1.7-4-3.6-4zM145.2 267.1v-9.7c0-1.2-.6-2.2-2.2-2.2s-2.4 1-2.4 2.2v9.7h-5.1v-9.7c0-1.2-.6-2.2-2.2-2.2s-2.4 1-2.4 2.2v9.7h-5.1v-15.9h4.8v2.1c.6-1.7 2.2-2.6 4.7-2.6 2.3 0 4 .9 4.7 2.6.7-1.5 2.5-2.6 4.9-2.6 3.6 0 5.6 2 5.6 5.3v11h-5.3zM167.7 258.3l-2.3 2.3h-7.8c.2 1.3 2 2.8 4.7 2.8 1.6 0 3.3-.5 4.4-1.2l-.5 4.4c-1.2.6-3 1-5 1-4.8 0-8.7-3.4-8.7-8.5s3.7-8.4 8.3-8.4c4.4 0 7.1 3 7.1 6.3-.1.4-.1.9-.2 1.3zm-7-3.8c-1.5 0-2.8 1.2-3.1 2.6h5.4v-.4c0-1-.9-2.2-2.3-2.2zM188.2 255.4H184v5.9c0 1.4.7 1.9 2.1 1.9.6 0 .9 0 1.3-.2l-.5 3.9c-.5.2-1.4.4-2.4.4-3.6 0-5.7-1.9-5.7-5v-6.9h-2.7v-4.2h2.7v-3.4l5.1-1.9v5.3h5.1l-.8 4.2zM200.6 267.1v-9.7c0-1.2-.8-2.2-2.4-2.2-1.5 0-2.5 1-2.5 2.2v9.7h-5.1v-24.9h5.1v10.5c.8-1.2 2.3-2 4.5-2 3.5 0 5.6 2 5.6 5.3v11h-5.2zM219.7 267.8c-.9-.2-2-.9-2.5-2.1-.7 1.3-2.2 1.9-4.1 1.9-2.8 0-5.3-2-5.3-5.3 0-2.9 2.3-4.9 5.4-5.2l3.2-.3v-.5c0-.9-.8-1.6-2.5-1.6-1.5 0-3.3.5-4.4 1.2l-.9-3.9c1.3-.8 3.5-1.4 5.6-1.4 4.2 0 7.2 1.9 7.2 5.7v5.2c0 1.9.7 2.8 1.9 3.3l-3.6 3zm-3.3-7.7l-1.9.2c-1.3.1-1.9 1.1-1.9 2 0 .8.6 1.5 1.6 1.5 1.2 0 2.2-.9 2.2-2.3v-1.4zM234.8 255.4h-4.1v5.9c0 1.4.7 1.9 2.1 1.9.6 0 .9 0 1.3-.2l-.5 3.9c-.5.2-1.4.4-2.4.4-3.6 0-5.7-1.9-5.7-5v-6.9h-2.7v-4.2h2.7v-3.4l5.1-1.9v5.3h5.1l-.9 4.2z"/></g><g><path class="st0" d="M87.3 304.1v-9.7c0-1.2-.8-2.2-2.3-2.2-1.5 0-2.5 1-2.5 2.2v9.7h-5.1v-15.9H82v2.1c.6-1.7 2.3-2.6 4.8-2.6 3.5 0 5.6 2 5.6 5.3v11h-5.1zM109.8 295.2l-2.3 2.3h-7.8c.2 1.3 2 2.8 4.7 2.8 1.6 0 3.3-.5 4.4-1.2l-.5 4.4c-1.2.6-3 1.1-5 1.1-4.8 0-8.7-3.4-8.7-8.5s3.7-8.4 8.3-8.4c4.4 0 7.1 3 7.1 6.3 0 .4-.1.9-.2 1.2zm-7-3.7c-1.5 0-2.8 1.2-3.1 2.6h5.4v-.4c.1-1-.9-2.2-2.3-2.2zM120.2 304.2h-3.9l-6.1-16h5l2.2 6.1c.3.8.6 2 .9 3.1h.1c.2-1 .6-2.2.9-3.1l2.2-6.1h4.8l-6.1 16zM141.5 295.2l-2.3 2.3h-7.8c.2 1.3 2 2.8 4.7 2.8 1.6 0 3.3-.5 4.4-1.2l-.5 4.4c-1.2.6-3 1.1-5 1.1-4.8 0-8.7-3.4-8.7-8.5s3.7-8.4 8.3-8.4c4.4 0 7.1 3 7.1 6.3 0 .4-.1.9-.2 1.2zm-6.9-3.7c-1.5 0-2.8 1.2-3.1 2.6h5.4v-.4c0-1-1-2.2-2.3-2.2zM153.6 293.7c-.3-.2-1-.4-1.5-.4-1.6 0-3.2.9-3.2 3.4v7.4h-5.1v-15.9h5.1v3.5c.5-2.5 2.4-3.8 4.5-3.8.5 0 1.1.1 1.5.2l-1.3 5.6zM173.7 293.7c-.3-.2-1-.4-1.5-.4-1.6 0-3.2.9-3.2 3.4v7.4h-5.1v-15.9h5.1v3.5c.5-2.5 2.4-3.8 4.5-3.8.5 0 1.1.1 1.5.2l-1.3 5.6zM186.6 304.1v-2.2c-.6 1.7-2.3 2.6-4.9 2.6-3.5 0-5.6-1.9-5.6-5.3v-11h5.1v9.7c0 1.2.8 2.2 2.4 2.2 1.5 0 2.5-1 2.5-2.3v-9.6h5.1v15.9h-4.6zM204.2 304.1v-9.7c0-1.2-.8-2.2-2.3-2.2-1.5 0-2.5 1-2.5 2.2v9.7h-5.1v-15.9h4.7v2.1c.6-1.7 2.3-2.6 4.8-2.6 3.5 0 5.6 2 5.6 5.3v11h-5.2zM217.3 304.4c-2.2 0-3.7-.5-5-1.1l-.5-4.5c1.4 1 3.2 1.7 5 1.7.9 0 1.5-.5 1.5-1.1 0-.7-.5-.9-1.4-1.2-3-.9-4.9-2.4-4.9-5.2 0-3.1 2.5-5.1 6-5.1 2 0 3.9.5 4.7.9l-.9 3.8c-.8-.4-2-.9-3.3-.9-.8 0-1.4.4-1.4 1s.4.9 1.4 1.2c3.6.9 5 2.7 5 5.4s-1.9 5.1-6.2 5.1z"/></g><g><path class="st0" d="M131 341.6c-4.8 0-8.6-3.4-8.6-8.4s3.9-8.4 8.6-8.4c4.8 0 8.6 3.4 8.6 8.4s-3.9 8.4-8.6 8.4zm0-12.4c-1.9 0-3.6 1.7-3.6 4s1.6 4 3.6 4c1.9 0 3.6-1.7 3.6-4-.1-2.4-1.8-4-3.6-4zM152.2 341.1v-2.2c-.6 1.7-2.3 2.6-4.9 2.6-3.5 0-5.6-1.9-5.6-5.3v-11h5.1v9.7c0 1.2.8 2.2 2.4 2.2 1.5 0 2.5-1 2.5-2.3v-9.6h5.1v15.9h-4.6zM170.4 329.4h-4.1v5.9c0 1.4.7 1.9 2.1 1.9.6 0 .9 0 1.3-.2l-.5 3.9c-.5.2-1.4.4-2.4.4-3.6 0-5.7-1.9-5.7-5v-6.9h-2.7v-4.2h2.7v-3.4l5.1-1.9v5.3h5.1l-.9 4.2zM174.8 341.6c-.9 0-2.9-2-2.9-2.9 0-.9 2-2.9 2.9-2.9.9 0 2.9 2 2.9 2.9 0 .9-1.9 2.9-2.9 2.9z"/></g></svg>