<svg id="Layer_1" xmlns="http://www.w3.org/2000/svg" viewBox="0 0 300 600"><style>.st0{fill:#3abfef}</style><path class="st0" d="M67.8 460c-7.2 0-13 5.8-13 13v12.8c0 7.2 5.8 13 13 13h164.5c7.2 0 13-5.8 13-13V473c0-7.2-5.8-13-13-13H67.8z"/><path d="M81.6 480.5v-2h4.5v5.9H85l-.4-1.3c-.8 1-1.7 1.4-3 1.4-3.2 0-4.5-2.7-4.5-5.6 0-3 1.5-5.7 4.8-5.7 2.4 0 4 1.4 4.3 3.8l-2.4.3c-.1-1.1-.7-2-1.9-2-1.8 0-2.1 2.4-2.1 3.7 0 1.4.4 3.4 2.2 3.4 1.1 0 1.9-.8 1.8-1.9h-2.2zM88.8 482.7c-.8-1.1-1.2-2.6-1.2-3.9 0-2.9 1.5-5.6 4.7-5.6 1.5 0 2.6.5 3.5 1.7.8 1.1 1.2 2.6 1.2 4 0 1.2-.3 2.8-1 3.8-.8 1.2-2.1 1.9-3.6 1.9-1.5-.1-2.7-.7-3.6-1.9zm1.9-6.2c-.3.7-.4 1.6-.4 2.3 0 1.4.2 3.6 2 3.6.9 0 1.4-.4 1.6-1.2.3-.7.3-1.6.3-2.3 0-.8-.1-1.7-.4-2.5-.3-.7-.8-1.1-1.6-1.1-.7-.1-1.2.4-1.5 1.2zM110.8 475.5H108v8.8h-2.6v-8.8h-2.8v-2.2h8.1v2.2zM112.8 482.7c-.8-1.1-1.2-2.6-1.2-3.9 0-2.9 1.5-5.6 4.7-5.6 1.5 0 2.6.5 3.5 1.7.8 1.1 1.2 2.6 1.2 4 0 1.2-.3 2.8-1 3.8-.8 1.2-2.1 1.9-3.6 1.9-1.5-.1-2.7-.7-3.6-1.9zm1.9-6.2c-.3.7-.4 1.6-.4 2.3 0 1.4.2 3.6 2 3.6.9 0 1.4-.4 1.6-1.2.3-.7.3-1.6.3-2.3 0-.8-.1-1.7-.4-2.5-.3-.7-.8-1.1-1.6-1.1-.7-.1-1.2.4-1.5 1.2zM133.7 477.6c0-1.2-.4-2.4-1.8-2.4-1.8 0-2 2.4-2 3.7 0 1.5.2 3.4 2.1 3.4 1.2 0 1.8-1 1.9-2.1l2.5.2c-.3 2.5-2 4-4.5 4-3.3 0-4.9-2.7-4.9-5.7s1.6-5.7 4.9-5.7c2.8 0 4.2 1.6 4.4 4.2l-2.6.4zM147.1 484.3h-2.8l-.7-2.3H140l-.7 2.3H137l3.5-11h3l3.6 11zm-4-4.3l-1.2-3.9-1.2 3.9h2.4zM155.2 482.1v2.2h-7v-11h2.6v8.8h4.4zM162.5 477.6c0-1.2-.4-2.4-1.8-2.4-1.8 0-2 2.4-2 3.7 0 1.5.2 3.4 2.1 3.4 1.2 0 1.8-1 1.9-2.1l2.5.2c-.3 2.5-2 4-4.5 4-3.3 0-4.8-2.7-4.8-5.7s1.6-5.7 4.9-5.7c2.8 0 4.2 1.6 4.5 4.2l-2.8.4zM175.5 480c0 1.2 0 2.4-.9 3.3-.9.9-2.2 1.2-3.4 1.2-1.2 0-2.5-.2-3.4-.9-1.1-.9-1.1-2.2-1.1-3.6v-6.6h2.8v6.6c0 .5 0 1.2.2 1.7.3.6 1 .7 1.6.7.5 0 1.3-.2 1.6-.6.4-.5.3-1.3.3-1.8v-6.6h2.2v6.6zM184.3 482.1v2.2h-7v-11h2.6v8.8h4.4zM194.5 484.3h-2.8l-.7-2.3h-3.6l-.7 2.3h-2.3l3.5-11h3l3.6 11zm-4.1-4.3l-1.2-3.9-1.2 3.9h2.4zM201.9 475.5h-2.8v8.8h-2.6v-8.8h-2.8v-2.2h8.1v2.2zM204 482.7c-.8-1.1-1.2-2.6-1.2-3.9 0-2.9 1.5-5.6 4.7-5.6 1.5 0 2.6.5 3.5 1.7.8 1.1 1.2 2.6 1.2 4 0 1.2-.3 2.8-1 3.8-.8 1.2-2.1 1.9-3.6 1.9-1.6-.1-2.8-.7-3.6-1.9zm1.8-6.2c-.3.7-.4 1.6-.4 2.3 0 1.4.2 3.6 2 3.6.9 0 1.4-.4 1.6-1.2.3-.7.3-1.6.3-2.3 0-.8-.1-1.7-.4-2.5-.3-.7-.8-1.1-1.6-1.1-.7-.1-1.1.4-1.5 1.2zM216.4 484.3h-2.6v-11h4.6c1 0 2 0 2.8.6.9.6 1.4 1.7 1.4 2.7 0 1.2-.7 2.4-1.9 2.8l2 4.8H220l-1.7-4.3h-1.9v4.4zm0-6.2h1.4c.5 0 1.1 0 1.6-.2.4-.3.6-.8.6-1.2 0-.4-.3-.9-.6-1.1-.4-.3-1.2-.2-1.6-.2h-1.3v2.7z"/></svg>