<svg id="Layer_1" xmlns="http://www.w3.org/2000/svg" xmlns:xlink="http://www.w3.org/1999/xlink" viewBox="0 0 300 600"><style>.st0,.st1{fill:#fff}.st1{clip-path:url(#SVGID_2_)}.st2{clip-path:url(#SVGID_4_);fill:url(#SVGID_5_)}.st3{clip-path:url(#SVGID_7_);fill:url(#SVGID_8_)}.st4{clip-path:url(#SVGID_10_);fill:url(#SVGID_11_)}</style><path class="st0" d="M151.2 50.3V55h-8.4v22.8h-5.3V55H129v-4.8h22.2zm2.2 27.5h5.3V50.3h-5.3v27.5zm32.9 0h-5.5L178 71h-9.3l-2.8 6.8h-5.4l11.7-27.9h2.3l11.8 27.9zm25.8 0h-5.5l-2.8-6.8h-9.3l-2.8 6.8h-5.4L198 49.9h2.3l11.8 27.9zm-35.9-11.2l-2.8-6.9-2.8 6.9h5.6zm25.8 0l-2.8-6.9-2.8 6.9h5.6z"/><defs><path id="SVGID_1_" d="M85.6 43.7h129.5v43.5H85.6z"/></defs><clipPath id="SVGID_2_"><use xlink:href="#SVGID_1_" overflow="visible"/></clipPath><path class="st1" d="M109.7 79.6c2.4 0 4.5-1 6-2.5l6.5-6.5c1.5-1.5 2.4-3.6 2.5-5.9V44.3h-20.3c-2.4 0-4.5 1-6 2.5l-6.5 6.5c-1.5 1.5-2.4 3.6-2.4 5.9v20.3h20.2z"/><defs><path id="SVGID_3_" d="M106.8 46.1c-3.7 0-6.7 3-6.7 6.7V55H114v13.9h2.2c3.7 0 6.7-3 6.7-6.7V46.1h-16.1z"/></defs><clipPath id="SVGID_4_"><use xlink:href="#SVGID_3_" overflow="visible"/></clipPath><linearGradient id="SVGID_5_" gradientUnits="userSpaceOnUse" x1=".717" y1="601.321" x2="1.716" y2="601.321" gradientTransform="scale(22.4446 -22.4446) rotate(45 731.936 304.173)"><stop offset="0" stop-color="#9edcf9"/><stop offset=".1" stop-color="#9edcf9"/><stop offset=".9" stop-color="#079dd9"/><stop offset="1" stop-color="#079dd9"/></linearGradient><path class="st2" d="M88.7 57.5l22.8-22.8 22.8 22.8-22.8 22.8z"/><g><defs><path id="SVGID_6_" d="M116.2 70.7H98.3l-7.1 7.1h18.5c1.8 0 3.5-.7 4.8-2l6-6-.2-.2c-1.2.7-2.6 1.1-4.1 1.1"/></defs><clipPath id="SVGID_7_"><use xlink:href="#SVGID_6_" overflow="visible"/></clipPath><linearGradient id="SVGID_8_" gradientUnits="userSpaceOnUse" x1=".672" y1="601.02" x2="1.672" y2="601.02" gradientTransform="matrix(29.2604 0 0 -29.2604 71.535 17659.857)"><stop offset="0" stop-color="#17b0e6"/><stop offset=".114" stop-color="#18ace2"/><stop offset=".264" stop-color="#16a1d7"/><stop offset=".433" stop-color="#1290c7"/><stop offset=".617" stop-color="#0d7ab4"/><stop offset=".81" stop-color="#00619f"/><stop offset=".9" stop-color="#005595"/><stop offset="1" stop-color="#005595"/></linearGradient><path class="st3" d="M91.2 69.7h29.3v8.2H91.2z"/></g><g><defs><path id="SVGID_9_" d="M93.2 54.6c-1.3 1.3-2 3-2 4.8v18.5l7.1-7.1v-18c0-1.5.4-2.9 1-4.1l-.2-.2-5.9 6.1z"/></defs><clipPath id="SVGID_10_"><use xlink:href="#SVGID_9_" overflow="visible"/></clipPath><linearGradient id="SVGID_11_" gradientUnits="userSpaceOnUse" x1="1.02" y1="601.328" x2="2.021" y2="601.328" gradientTransform="matrix(0 -29.2608 -29.2608 0 17690.633 107.704)"><stop offset="0" stop-color="#0582be"/><stop offset=".219" stop-color="#0478b4"/><stop offset=".653" stop-color="#00609e"/><stop offset=".85" stop-color="#005595"/><stop offset="1" stop-color="#005595"/></linearGradient><path class="st4" d="M91.2 48.6h8.2v29.3h-8.2z"/></g></svg>