<svg id="Layer_1" xmlns="http://www.w3.org/2000/svg" xmlns:xlink="http://www.w3.org/1999/xlink" viewBox="0 0 970 250"><style>.st0{fill:none;stroke:#fff;stroke-width:4.319}.st1{clip-path:url(#SVGID_2_);fill:#fff}</style><path class="st0" d="M606.5 184.3c20.5 0 37-16.6 37-37 0-20.5-16.6-37-37-37-20.5 0-37 16.6-37 37s16.5 37 37 37z"/><defs><path id="SVGID_1_" d="M586.3 128.1h40.4v40.4h-40.4z"/></defs><clipPath id="SVGID_2_"><use xlink:href="#SVGID_1_" overflow="visible"/></clipPath><path class="st1" d="M623.3 144.9h-13.4v-13.4c0-1.9-1.5-3.4-3.4-3.4s-3.4 1.5-3.4 3.4v13.4h-13.4c-1.9 0-3.4 1.5-3.4 3.4s1.5 3.4 3.4 3.4h13.4v13.4c0 1.9 1.5 3.4 3.4 3.4s3.4-1.5 3.4-3.4v-13.4h13.4c1.9 0 3.4-1.5 3.4-3.4s-1.5-3.4-3.4-3.4"/></svg>