<svg id="Layer_1" xmlns="http://www.w3.org/2000/svg" viewBox="0 0 970 250"><style>.st0{fill:#fff}</style><path class="st0" d="M10.6 229.3v-7.9l-1.5.2.2-1.1 2.6-.2v9.1h-1.3zM16.4 229.5c-1.6 0-3.1-1.5-3.1-4.7 0-3.1 1.4-4.6 3.1-4.6 1.6 0 3.1 1.5 3.1 4.6 0 3.2-1.5 4.7-3.1 4.7zm0-8.2c-.9 0-1.8 1-1.8 3.5s.9 3.5 1.8 3.5 1.8-1 1.8-3.5-.9-3.5-1.8-3.5zM23.6 229.5c-1.6 0-3.1-1.5-3.1-4.7 0-3.1 1.4-4.6 3.1-4.6 1.6 0 3.1 1.5 3.1 4.6 0 3.2-1.5 4.7-3.1 4.7zm0-8.2c-.9 0-1.8 1-1.8 3.5s.9 3.5 1.8 3.5 1.8-1 1.8-3.5-.9-3.5-1.8-3.5zM28.9 229.3v-7.9l-1.5.2.2-1.1 2.6-.2v9.1h-1.3zM34.6 229.5c-1.6 0-3-1-3-2.6 0-1.3 1.1-2.2 1.8-2.4-.7-.3-1.4-.9-1.4-2 0-1.3 1.1-2.3 2.6-2.3s2.6.9 2.6 2.3c0 1-.7 1.7-1.4 1.9.7.2 1.8 1.1 1.8 2.4 0 1.7-1.4 2.7-3 2.7zm-.1-4.5c-.8.2-1.7.8-1.7 1.8 0 .9.8 1.6 1.7 1.6 1 0 1.8-.7 1.8-1.6 0-.9-1-1.6-1.8-1.8zm.1-3.7c-.7 0-1.4.5-1.4 1.2 0 .6.6 1.2 1.4 1.4.8-.2 1.3-.8 1.3-1.4.1-.7-.5-1.2-1.3-1.2zM39.7 229.3v-7.9l-1.5.2.2-1.1 2.6-.2v9.1h-1.3zM44.1 229.3h-1.4l3.4-7.8H42v-1.1h5.9l-3.8 8.9z"/></svg>