<svg id="Layer_1" xmlns="http://www.w3.org/2000/svg" viewBox="0 0 970 250"><style>.st0{fill:#f9e039}</style><path class="st0" d="M62.1 94v5.4h7.8v5.6h-7.8v11h-6.5V88.6h16V94h-9.5zM76.9 93.9c-1.1 0-3.4-2.3-3.4-3.4s2.3-3.4 3.4-3.4 3.4 2.2 3.4 3.4c0 1.1-2.2 3.4-3.4 3.4zM73.8 116V96.5h6.4V116h-6.4zM92.3 125.9c-5.7 0-9.5-3.2-9.5-7.3 0-3 2-4.7 4-5.2l-2.5-2.5c.2-1.2 1.2-2.3 2.4-2.8-1.5-.9-2.8-2.8-2.8-5.2 0-4.1 3-7 8-7 1.2 0 2.1.2 2.9.4.9.2 1.8.3 2.8.3 1.1 0 2.2-.3 3.1-.6l1.2 4.8c-.6.3-1.5.6-2.4.6.2.4.5 1.3.5 2 0 3.3-2.6 6-6.4 6.3-.8 0-1.3.2-1.3.7 0 .2.2.5.5.6l3 1.1c3.8 1.4 5.9 3.3 5.9 6.9-.1 3.9-3.7 6.9-9.4 6.9zm1.3-9.1l-2.3-.6c-1.5 0-2.6 1.1-2.6 2.5 0 1.3 1.2 2.5 3.4 2.5s3.4-1 3.4-2.1c.1-1-.6-2-1.9-2.3zm-1.7-16.3c-1.4 0-2.5 1.1-2.5 2.3 0 1.3 1.1 2.3 2.5 2.3s2.5-1 2.5-2.3c0-1.2-1-2.3-2.5-2.3zM116.8 116v-2.7c-.8 2.1-2.8 3.2-6 3.2-4.3 0-6.8-2.4-6.8-6.5V96.5h6.3v12c0 1.4 1 2.7 2.9 2.7s3.1-1.2 3.1-2.8V96.5h6.3V116h-5.8zM138.5 103.2c-.4-.2-1.2-.5-1.9-.5-2 0-3.9 1.1-3.9 4.2v9.1h-6.3V96.5h6.2v4.3c.6-3.1 2.9-4.7 5.5-4.7.6 0 1.3.1 1.8.3l-1.4 6.8zM159.4 105.2l-2.8 2.8H147c.3 1.6 2.5 3.4 5.8 3.4 2 0 4.1-.6 5.4-1.5l-.6 5.4c-1.5.8-3.7 1.3-6.2 1.3-5.9 0-10.7-4.1-10.7-10.5 0-6.3 4.6-10.3 10.1-10.3 5.4 0 8.7 3.7 8.7 7.8 0 .5 0 1.2-.1 1.6zm-8.6-4.6c-1.8 0-3.4 1.4-3.8 3.2h6.6v-.4c0-1.4-1.1-2.8-2.8-2.8zM182.1 116.6c-5.9 0-10.6-4.2-10.6-10.4s4.7-10.4 10.6-10.4c5.8 0 10.6 4.2 10.6 10.4s-4.7 10.4-10.6 10.4zm0-15.2c-2.4 0-4.4 2.1-4.4 4.9s2 4.9 4.4 4.9c2.3 0 4.4-2.1 4.4-4.9s-2.1-4.9-4.4-4.9zM208.5 116v-2.7c-.8 2.1-2.8 3.2-6 3.2-4.3 0-6.8-2.4-6.8-6.5V96.5h6.3v12c0 1.4 1 2.7 2.9 2.7s3.1-1.2 3.1-2.8V96.5h6.3V116h-5.8zM231.2 101.7h-5.1v7.2c0 1.7.9 2.4 2.6 2.4.7 0 1.2 0 1.6-.3l-.6 4.8c-.6.3-1.7.5-2.9.5-4.4 0-7-2.3-7-6.2v-8.4h-3.3v-5.2h3.3v-4.2l6.3-2.3v6.5h6.3l-1.2 5.2zM256.2 114.1c-3 7.8-6.1 10.7-9.7 12.1l-3.9-3.9c3.1-1.2 5.5-3.5 7.1-7.6l-7-18.1h6.1l2.8 7.6c.4 1.1.9 2.5 1.2 3.8h.1c.4-1.3.8-2.7 1.2-3.8l2.8-7.6h5.8l-6.5 17.5zM273.8 116.6c-5.9 0-10.6-4.2-10.6-10.4s4.7-10.4 10.6-10.4c5.8 0 10.6 4.2 10.6 10.4s-4.8 10.4-10.6 10.4zm0-15.2c-2.4 0-4.4 2.1-4.4 4.9s2 4.9 4.4 4.9c2.3 0 4.4-2.1 4.4-4.9s-2.1-4.9-4.4-4.9zM300.2 116v-2.7c-.8 2.1-2.8 3.2-6 3.2-4.3 0-6.8-2.4-6.8-6.5V96.5h6.3v12c0 1.4 1 2.7 2.9 2.7s3.1-1.2 3.1-2.8V96.5h6.3V116h-5.8zM321.9 103.2c-.4-.2-1.2-.5-1.9-.5-2 0-3.9 1.1-3.9 4.2v9.1h-6.3V96.5h6.2v4.3c.6-3.1 2.9-4.7 5.5-4.7.6 0 1.3.1 1.8.3l-1.4 6.8zM344 125.9c-5.7 0-9.5-3.2-9.5-7.3 0-3 2-4.7 4-5.2l-2.5-2.5c.2-1.2 1.2-2.3 2.4-2.8-1.5-.9-2.8-2.8-2.8-5.2 0-4.1 3-7 8-7 1.2 0 2.1.2 2.9.4.9.2 1.8.3 2.8.3 1.1 0 2.2-.3 3.1-.6l1.2 4.8c-.6.3-1.5.6-2.4.6.2.4.5 1.3.5 2 0 3.3-2.6 6-6.4 6.3-.8 0-1.3.2-1.3.7 0 .2.2.5.5.6l3 1.1c3.8 1.4 5.9 3.3 5.9 6.9-.1 3.9-3.8 6.9-9.4 6.9zm1.3-9.1l-2.3-.6c-1.5 0-2.6 1.1-2.6 2.5 0 1.3 1.2 2.5 3.4 2.5s3.4-1 3.4-2.1c0-1-.7-2-1.9-2.3zm-1.7-16.3c-1.4 0-2.5 1.1-2.5 2.3 0 1.3 1.1 2.3 2.5 2.3s2.5-1 2.5-2.3c0-1.2-1.1-2.3-2.5-2.3zM368.4 116v-2.7c-.8 2.1-2.8 3.2-6 3.2-4.3 0-6.8-2.4-6.8-6.5V96.5h6.3v12c0 1.4 1 2.7 2.9 2.7s3.1-1.2 3.1-2.8V96.5h6.3V116h-5.8zM391.8 116.9c-1.2-.3-2.5-1.2-3-2.6-.9 1.6-2.7 2.4-5.1 2.4-3.4 0-6.5-2.4-6.5-6.4 0-3.6 2.8-6 6.7-6.4l3.9-.4v-.6c0-1.2-.9-1.9-3.1-1.9-1.9 0-4 .6-5.4 1.5l-1.1-4.8c1.6-1 4.3-1.7 6.8-1.7 5.2 0 8.8 2.4 8.8 7.1v6.4c0 2.3.9 3.5 2.4 4l-4.4 3.4zm-4.1-9.4l-2.4.2c-1.6.1-2.4 1.3-2.4 2.5 0 1 .8 1.9 2 1.9 1.5 0 2.8-1.2 2.8-2.8v-1.8zM410.3 103.2c-.4-.2-1.2-.5-1.9-.5-2 0-3.9 1.1-3.9 4.2v9.1h-6.3V96.5h6.2v4.3c.6-3.1 2.9-4.7 5.5-4.7.6 0 1.3.1 1.8.3l-1.4 6.8zM427.4 116.9c-1.2-.3-2.5-1.2-3-2.6-.9 1.6-2.7 2.4-5.1 2.4-3.4 0-6.5-2.4-6.5-6.4 0-3.6 2.8-6 6.7-6.4l3.9-.4v-.6c0-1.2-.9-1.9-3.1-1.9-1.9 0-4 .6-5.4 1.5l-1.1-4.8c1.6-1 4.3-1.7 6.8-1.7 5.2 0 8.8 2.4 8.8 7.1v6.4c0 2.3.9 3.5 2.4 4l-4.4 3.4zm-4.1-9.4l-2.4.2c-1.6.1-2.4 1.3-2.4 2.5 0 1 .8 1.9 2 1.9 1.5 0 2.8-1.2 2.8-2.8v-1.8zM446.1 116v-12c0-1.4-.9-2.7-2.9-2.7-1.9 0-3.1 1.2-3.1 2.8V116h-6.3V96.5h5.8v2.6c.8-2.1 2.8-3.2 5.9-3.2 4.3 0 6.8 2.4 6.8 6.5V116h-6.2zM469 101.7h-5.1v7.2c0 1.7.9 2.4 2.6 2.4.7 0 1.2 0 1.6-.3l-.6 4.8c-.6.3-1.7.5-2.9.5-4.4 0-7-2.3-7-6.2v-8.4h-3.3v-5.2h3.3v-4.2l6.3-2.3v6.5h6.3l-1.2 5.2zM489.6 105.2l-2.8 2.8h-9.5c.3 1.6 2.5 3.4 5.8 3.4 2 0 4.1-.6 5.4-1.5l-.6 5.4c-1.5.8-3.7 1.3-6.2 1.3-5.9 0-10.7-4.1-10.7-10.5 0-6.3 4.6-10.3 10.1-10.3 5.4 0 8.7 3.7 8.7 7.8 0 .5-.1 1.2-.2 1.6zm-8.6-4.6c-1.8 0-3.4 1.4-3.8 3.2h6.6v-.4c.1-1.4-1.1-2.8-2.8-2.8zM510.4 105.2l-2.8 2.8h-9.5c.3 1.6 2.5 3.4 5.8 3.4 2 0 4.1-.6 5.4-1.5l-.6 5.4c-1.5.8-3.7 1.3-6.2 1.3-5.9 0-10.7-4.1-10.7-10.5 0-6.3 4.6-10.3 10.1-10.3 5.4 0 8.7 3.7 8.7 7.8 0 .5-.1 1.2-.2 1.6zm-8.5-4.6c-1.8 0-3.4 1.4-3.8 3.2h6.6v-.4c0-1.4-1.2-2.8-2.8-2.8zM528 116v-2.4c-1.1 2-3.3 3-6 3-4.8 0-9.4-3.6-9.4-10.3 0-6.3 4.5-10.4 9.9-10.4 2.1 0 4.2.7 4.9 1.3V85.4h6.1V116H528zm-.6-12.8c-.6-.8-1.9-1.8-3.8-1.8-2.8 0-4.7 2.1-4.7 4.9s1.9 4.9 4.7 4.9c1.8 0 3.1-1 3.8-2v-6zM554 116.8c-4-.2-6.7-2.2-6.7-6.9V85.4h6.2v23.7c0 1.6.9 2.5 2.6 2.6l-2.1 5.1zM561.8 93.9c-1.1 0-3.4-2.3-3.4-3.4s2.3-3.4 3.4-3.4 3.4 2.2 3.4 3.4c0 1.1-2.3 3.4-3.4 3.4zm-3.2 22.1V96.5h6.4V116h-6.4zM582.6 91c-.7-.3-1.8-.5-2.5-.5-2.3 0-3.5 1.4-3.5 4.2v1.8h5.6l-1.2 5.2h-4.3V116h-6.1v-14.3h-3v-5.2h3v-2.3c0-5.9 3.8-8.9 8.7-8.9 1.8 0 3.6.2 4.6.6l-1.3 5.1zM601.4 105.2l-2.8 2.8h-9.5c.3 1.6 2.5 3.4 5.8 3.4 2 0 4.1-.6 5.4-1.5l-.6 5.4c-1.5.8-3.7 1.3-6.2 1.3-5.9 0-10.7-4.1-10.7-10.5 0-6.3 4.6-10.3 10.1-10.3 5.4 0 8.7 3.7 8.7 7.8 0 .5-.1 1.2-.2 1.6zm-8.5-4.6c-1.8 0-3.4 1.4-3.8 3.2h6.6v-.4c0-1.4-1.1-2.8-2.8-2.8zM617.7 101.7h-5.1v7.2c0 1.7.9 2.4 2.6 2.4.7 0 1.2 0 1.6-.3l-.6 4.8c-.6.3-1.7.5-2.9.5-4.4 0-7-2.3-7-6.2v-8.4H603v-5.2h3.3v-4.2l6.3-2.3v6.5h6.3l-1.2 5.2zM624.2 93.9c-1.1 0-3.4-2.3-3.4-3.4s2.3-3.4 3.4-3.4 3.4 2.2 3.4 3.4c0 1.1-2.3 3.4-3.4 3.4zM621 116V96.5h6.4V116H621zM655.3 116v-12c0-1.4-.7-2.7-2.8-2.7-2 0-2.9 1.2-2.9 2.8V116h-6.3v-12c0-1.4-.7-2.7-2.8-2.7-2 0-2.9 1.2-2.9 2.8V116h-6.3V96.5h5.8v2.6c.8-2.1 2.7-3.2 5.8-3.2 2.8 0 4.9 1.1 5.8 3.2.8-1.9 3.1-3.2 6-3.2 4.4 0 6.9 2.4 6.9 6.5V116h-6.3zM683.4 105.2l-2.8 2.8H671c.3 1.6 2.5 3.4 5.8 3.4 2 0 4.1-.6 5.4-1.5l-.6 5.4c-1.5.8-3.7 1.3-6.2 1.3-5.9 0-10.7-4.1-10.7-10.5 0-6.3 4.6-10.3 10.1-10.3 5.4 0 8.7 3.7 8.7 7.8 0 .5-.1 1.2-.1 1.6zm-8.6-4.6c-1.8 0-3.4 1.4-3.8 3.2h6.6v-.4c0-1.4-1.1-2.8-2.8-2.8z"/><g><path class="st0" d="M116.8 138.9c-1.1 0-3.4-2.3-3.4-3.4s2.3-3.4 3.4-3.4 3.4 2.2 3.4 3.4c0 1.1-2.3 3.4-3.4 3.4zm-3.2 22.1v-19.5h6.4V161h-6.4zM136.2 161v-12c0-1.4-.9-2.7-2.9-2.7-1.9 0-3.1 1.2-3.1 2.8V161h-6.3v-19.5h5.8v2.6c.8-2.1 2.8-3.2 5.9-3.2 4.3 0 6.8 2.4 6.8 6.5V161h-6.2zM161.1 147.8c-1.3-.8-2.6-1.2-4.2-1.2-2.8 0-4.9 2-4.9 4.8s2.2 4.8 5.1 4.8c1.6 0 2.9-.3 4.3-1.1l-.6 5.4c-1.3.6-3 .9-4.8.9-5.5 0-10.5-3.9-10.5-10.1 0-6.4 5.1-10.2 10.4-10.2 2.6 0 4.7.5 6.4 1.5l-1.2 5.2zM174.5 161.6c-5.9 0-10.6-4.2-10.6-10.4s4.7-10.4 10.6-10.4c5.8 0 10.6 4.2 10.6 10.4.1 6.3-4.7 10.4-10.6 10.4zm0-15.2c-2.4 0-4.4 2.1-4.4 4.9s2 4.9 4.4 4.9c2.3 0 4.4-2.1 4.4-4.9s-2-4.9-4.4-4.9zM212.1 161v-12c0-1.4-.7-2.7-2.8-2.7-2 0-2.9 1.2-2.9 2.8V161h-6.3v-12c0-1.4-.7-2.7-2.8-2.7-2 0-2.9 1.2-2.9 2.8V161h-6.3v-19.5h5.8v2.6c.8-2.1 2.7-3.2 5.8-3.2 2.8 0 4.9 1.1 5.8 3.2.8-1.9 3.1-3.2 6-3.2 4.4 0 6.9 2.4 6.9 6.5V161h-6.3zM240.2 150.2l-2.8 2.8h-9.5c.3 1.6 2.5 3.4 5.8 3.4 2 0 4.1-.6 5.4-1.5l-.6 5.4c-1.5.8-3.7 1.3-6.2 1.3-5.9 0-10.7-4.1-10.7-10.5 0-6.3 4.6-10.3 10.1-10.3 5.4 0 8.7 3.7 8.7 7.8-.1.6-.2 1.2-.2 1.6zm-8.6-4.6c-1.8 0-3.4 1.4-3.8 3.2h6.6v-.4c0-1.3-1.1-2.8-2.8-2.8zM259.4 161.5c-2.7 0-4.6-.6-6.2-1.4l-.6-5.6c1.7 1.2 4 2.1 6.1 2.1 1.2 0 1.9-.6 1.9-1.3 0-.8-.6-1.2-1.8-1.5-3.7-1.1-6-3-6-6.4 0-3.8 3.1-6.3 7.3-6.3 2.4 0 4.8.6 5.8 1.2l-1.1 4.6c-.9-.5-2.5-1.1-4-1.1-1 0-1.7.5-1.7 1.2s.5 1.1 1.7 1.4c4.4 1.2 6.2 3.4 6.2 6.6 0 3.4-2.4 6.5-7.6 6.5zM279.5 161.6c-5.9 0-10.6-4.2-10.6-10.4s4.7-10.4 10.6-10.4c5.8 0 10.6 4.2 10.6 10.4 0 6.3-4.7 10.4-10.6 10.4zm0-15.2c-2.4 0-4.4 2.1-4.4 4.9s2 4.9 4.4 4.9c2.3 0 4.4-2.1 4.4-4.9s-2.1-4.9-4.4-4.9zM314.9 159.1c-3 7.8-6.1 10.7-9.7 12.1l-3.9-3.9c3.1-1.2 5.5-3.5 7.1-7.6l-7-18.1h6.1l2.8 7.6c.4 1.1.9 2.5 1.2 3.8h.1c.4-1.3.8-2.7 1.2-3.8l2.8-7.6h5.8l-6.5 17.5zM332.4 161.6c-5.9 0-10.6-4.2-10.6-10.4s4.7-10.4 10.6-10.4c5.8 0 10.6 4.2 10.6 10.4.1 6.3-4.7 10.4-10.6 10.4zm0-15.2c-2.4 0-4.4 2.1-4.4 4.9s2 4.9 4.4 4.9c2.3 0 4.4-2.1 4.4-4.9s-2-4.9-4.4-4.9zM358.8 161v-2.7c-.8 2.1-2.8 3.2-6 3.2-4.3 0-6.8-2.4-6.8-6.5v-13.5h6.3v12c0 1.4 1 2.7 2.9 2.7s3.1-1.2 3.1-2.8v-11.8h6.3V161h-5.8zM390.4 161v-12c0-1.4-.9-2.7-2.9-2.7-1.9 0-3.1 1.2-3.1 2.8V161h-6.3v-19.5h5.8v2.6c.8-2.1 2.8-3.2 5.9-3.2 4.3 0 6.8 2.4 6.8 6.5V161h-6.2zM418.4 150.2l-2.8 2.8h-9.5c.3 1.6 2.5 3.4 5.8 3.4 2 0 4.1-.6 5.4-1.5l-.6 5.4c-1.5.8-3.7 1.3-6.2 1.3-5.9 0-10.7-4.1-10.7-10.5 0-6.3 4.6-10.3 10.1-10.3 5.4 0 8.7 3.7 8.7 7.8 0 .6-.1 1.2-.2 1.6zm-8.6-4.6c-1.8 0-3.4 1.4-3.8 3.2h6.6v-.4c.1-1.3-1.1-2.8-2.8-2.8zM431.4 161.2h-4.7l-7.5-19.7h6.1l2.8 7.4c.4 1 .8 2.5 1.1 3.8h.1c.3-1.2.7-2.8 1.1-3.8l2.8-7.4h5.8l-7.6 19.7zM458 150.2l-2.8 2.8h-9.5c.3 1.6 2.5 3.4 5.8 3.4 2 0 4.1-.6 5.4-1.5l-.6 5.4c-1.5.8-3.7 1.3-6.2 1.3-5.9 0-10.7-4.1-10.7-10.5 0-6.3 4.6-10.3 10.1-10.3 5.4 0 8.7 3.7 8.7 7.8 0 .6-.1 1.2-.2 1.6zm-8.6-4.6c-1.8 0-3.4 1.4-3.8 3.2h6.6v-.4c.1-1.3-1.1-2.8-2.8-2.8zM473.2 148.3c-.4-.2-1.2-.5-1.9-.5-2 0-3.9 1.1-3.9 4.2v9.1h-6.3v-19.5h6.2v4.3c.6-3.1 2.9-4.7 5.5-4.7.6 0 1.3.1 1.8.3l-1.4 6.8zM498.7 148.3c-.4-.2-1.2-.5-1.9-.5-2 0-3.9 1.1-3.9 4.2v9.1h-6.3v-19.5h6.2v4.3c.6-3.1 2.9-4.7 5.5-4.7.6 0 1.3.1 1.8.3l-1.4 6.8zM515 161v-2.7c-.8 2.1-2.8 3.2-6 3.2-4.3 0-6.8-2.4-6.8-6.5v-13.5h6.3v12c0 1.4 1 2.7 2.9 2.7s3.1-1.2 3.1-2.8v-11.8h6.3V161H515zM536.9 161v-12c0-1.4-.9-2.7-2.9-2.7-1.9 0-3.1 1.2-3.1 2.8V161h-6.3v-19.5h5.8v2.6c.8-2.1 2.8-3.2 5.9-3.2 4.3 0 6.8 2.4 6.8 6.5V161h-6.2zM566.6 161.6c-5.9 0-10.6-4.2-10.6-10.4s4.7-10.4 10.6-10.4c5.8 0 10.6 4.2 10.6 10.4 0 6.3-4.7 10.4-10.6 10.4zm0-15.2c-2.4 0-4.4 2.1-4.4 4.9s2 4.9 4.4 4.9c2.3 0 4.4-2.1 4.4-4.9s-2.1-4.9-4.4-4.9zM593 161v-2.7c-.8 2.1-2.8 3.2-6 3.2-4.3 0-6.8-2.4-6.8-6.5v-13.5h6.3v12c0 1.4 1 2.7 2.9 2.7s3.1-1.2 3.1-2.8v-11.8h6.3V161H593zM615.7 146.7h-5.1v7.2c0 1.7.9 2.4 2.6 2.4.7 0 1.2 0 1.6-.3l-.6 4.8c-.6.3-1.7.5-2.9.5-4.4 0-7-2.3-7-6.2v-8.4H601v-5.2h3.3v-4.2l6.3-2.3v6.5h6.3l-1.2 5.2zM621.6 161.6c-1.2 0-3.6-2.4-3.6-3.6 0-1.1 2.4-3.5 3.6-3.5 1.2 0 3.6 2.4 3.6 3.5-.1 1.2-2.5 3.6-3.6 3.6z"/></g></svg>