<svg id="Layer_1" xmlns="http://www.w3.org/2000/svg" viewBox="0 0 970 250"><style>.st0{fill:#f9e039}</style><path class="st0" d="M222.2 173.5v5.4h7.8v5.6h-7.8v11h-6.5V168h16v5.5h-9.5zM237.1 173.3c-1.1 0-3.4-2.3-3.4-3.4s2.3-3.4 3.4-3.4 3.4 2.2 3.4 3.4c0 1.1-2.3 3.4-3.4 3.4zm-3.2 22.1V176h6.4v19.5h-6.4zM256.5 195.4v-12c0-1.4-.9-2.7-2.9-2.7-1.9 0-3.1 1.2-3.1 2.8v11.9h-6.3V176h5.8v2.6c.8-2.1 2.8-3.2 5.9-3.2 4.3 0 6.8 2.4 6.8 6.5v13.5h-6.2zM270 173.3c-1.1 0-3.4-2.3-3.4-3.4s2.3-3.4 3.4-3.4 3.4 2.2 3.4 3.4c0 1.1-2.3 3.4-3.4 3.4zm-3.2 22.1V176h6.4v19.5h-6.4zM283.3 195.9c-2.7 0-4.6-.6-6.2-1.4l-.6-5.6c1.7 1.2 4 2.1 6.1 2.1 1.2 0 1.9-.6 1.9-1.3 0-.8-.6-1.2-1.8-1.5-3.7-1.1-6-3-6-6.4 0-3.8 3.1-6.3 7.3-6.3 2.4 0 4.8.6 5.8 1.2l-1.1 4.6c-.9-.5-2.5-1.1-4-1.1-1 0-1.7.5-1.7 1.2s.5 1.1 1.7 1.4c4.4 1.2 6.2 3.4 6.2 6.6.1 3.5-2.3 6.5-7.6 6.5zM306.4 195.4v-12c0-1.4-1-2.7-2.9-2.7s-3.1 1.2-3.1 2.8v11.9h-6.3v-30.6h6.2v12.9c1-1.5 2.8-2.4 5.5-2.4 4.3 0 6.8 2.4 6.8 6.5v13.5h-6.2zM341.1 182.2c-1.3-.8-2.6-1.2-4.2-1.2-2.8 0-4.9 2-4.9 4.8s2.2 4.8 5.1 4.8c1.6 0 2.9-.3 4.3-1.1l-.6 5.4c-1.3.6-3 .9-4.8.9-5.5 0-10.5-3.9-10.5-10.1 0-6.4 5.1-10.2 10.4-10.2 2.6 0 4.7.5 6.4 1.5l-1.2 5.2zM358.8 196.3c-1.2-.3-2.5-1.2-3-2.6-.9 1.6-2.7 2.4-5.1 2.4-3.4 0-6.5-2.4-6.5-6.4 0-3.6 2.8-6 6.7-6.4l3.9-.4v-.6c0-1.2-.9-1.9-3.1-1.9-1.9 0-4 .6-5.4 1.5l-1.1-4.8c1.6-1 4.3-1.7 6.8-1.7 5.2 0 8.8 2.4 8.8 7.1v6.4c0 2.3.9 3.5 2.4 4l-4.4 3.4zm-4.1-9.4l-2.4.2c-1.6.1-2.4 1.3-2.4 2.5 0 1 .8 1.9 2 1.9 1.5 0 2.8-1.2 2.8-2.8v-1.8zM371.7 196.2c-4-.2-6.7-2.2-6.7-6.9v-24.5h6.2v23.7c0 1.6.9 2.5 2.6 2.6l-2.1 5.1zM390.7 182.2c-1.3-.8-2.6-1.2-4.2-1.2-2.8 0-4.9 2-4.9 4.8s2.2 4.8 5.1 4.8c1.6 0 2.9-.3 4.3-1.1l-.6 5.4c-1.3.6-3 .9-4.8.9-5.5 0-10.5-3.9-10.5-10.1 0-6.4 5.1-10.2 10.4-10.2 2.6 0 4.7.5 6.4 1.5l-1.2 5.2zM407.5 195.4v-2.7c-.8 2.1-2.8 3.2-6 3.2-4.3 0-6.8-2.4-6.8-6.5V176h6.3v12c0 1.4 1 2.7 2.9 2.7s3.1-1.2 3.1-2.8V176h6.3v19.5h-5.8zM423.9 196.2c-4-.2-6.7-2.2-6.7-6.9v-24.5h6.2v23.7c0 1.6.9 2.5 2.6 2.6l-2.1 5.1zM442.4 196.3c-1.2-.3-2.5-1.2-3-2.6-.9 1.6-2.7 2.4-5.1 2.4-3.4 0-6.5-2.4-6.5-6.4 0-3.6 2.8-6 6.7-6.4l3.9-.4v-.6c0-1.2-.9-1.9-3.1-1.9-1.9 0-4 .6-5.4 1.5l-1.1-4.8c1.6-1 4.3-1.7 6.8-1.7 5.2 0 8.8 2.4 8.8 7.1v6.4c0 2.3.9 3.5 2.4 4l-4.4 3.4zm-4-9.4l-2.4.2c-1.6.1-2.4 1.3-2.4 2.5 0 1 .8 1.9 2 1.9 1.5 0 2.8-1.2 2.8-2.8v-1.8zM461.4 181.1h-5.1v7.2c0 1.7.9 2.4 2.6 2.4.7 0 1.2 0 1.6-.3l-.6 4.8c-.6.3-1.7.5-2.9.5-4.4 0-7-2.3-7-6.2v-8.4h-3.3V176h3.3v-4.2l6.3-2.3v6.5h6.3l-1.2 5.1zM467.9 173.3c-1.1 0-3.4-2.3-3.4-3.4s2.3-3.4 3.4-3.4 3.4 2.2 3.4 3.4c0 1.1-2.3 3.4-3.4 3.4zm-3.2 22.1V176h6.4v19.5h-6.4zM487.3 195.4v-12c0-1.4-.9-2.7-2.9-2.7-1.9 0-3.1 1.2-3.1 2.8v11.9H475V176h5.8v2.6c.8-2.1 2.8-3.2 5.9-3.2 4.3 0 6.8 2.4 6.8 6.5v13.5h-6.2zM505.6 205.4c-5.7 0-9.5-3.2-9.5-7.3 0-3 2-4.7 4-5.2l-2.5-2.5c.2-1.2 1.2-2.3 2.4-2.8-1.5-.9-2.8-2.8-2.8-5.2 0-4.1 3-7 8-7 1.2 0 2.1.2 2.9.4.9.2 1.8.3 2.8.3 1.1 0 2.2-.3 3.1-.6l1.2 4.8c-.6.3-1.5.6-2.4.6.2.4.5 1.3.5 2 0 3.3-2.6 6-6.4 6.3-.8 0-1.3.2-1.3.7 0 .2.2.5.5.6l3 1.1c3.8 1.4 5.9 3.3 5.9 6.9-.1 3.9-3.7 6.9-9.4 6.9zm1.3-9.2l-2.3-.6c-1.5 0-2.6 1.1-2.6 2.5 0 1.3 1.2 2.5 3.4 2.5s3.4-1 3.4-2.2c.1-.9-.6-1.8-1.9-2.2zm-1.7-16.3c-1.4 0-2.5 1.1-2.5 2.3 0 1.3 1.1 2.3 2.5 2.3s2.5-1 2.5-2.3c0-1.2-1-2.3-2.5-2.3zM519.6 196c-1.2 0-3.6-2.4-3.6-3.6 0-1.1 2.4-3.5 3.6-3.5 1.2 0 3.6 2.4 3.6 3.5 0 1.2-2.5 3.6-3.6 3.6z"/></svg>