<svg id="Layer_1" xmlns="http://www.w3.org/2000/svg" viewBox="0 0 970 250"><style>.st0{fill:#f9e039}</style><path class="st0" d="M148.1 81.6h-4.3l-4-12.1c-.6-1.8-1.2-3.7-1.8-6.1-.6 2.4-1.2 4.3-1.8 6.1l-4 12.1H128L118.8 54h6.5l3.6 11.1c.5 1.7 1.1 3.4 1.5 5.5h.1c.4-2.1.9-3.8 1.5-5.5l3.6-11.1h5.7l3.6 11.1c.5 1.5 1 3.5 1.5 5.5h.1c.3-2 .9-4 1.5-5.5l3.7-11.1h5.8l-9.4 27.6zM162.7 59.3c-1.1 0-3.4-2.3-3.4-3.4s2.3-3.4 3.4-3.4 3.4 2.2 3.4 3.4c0 1.1-2.3 3.4-3.4 3.4zm-3.2 22.1V61.9h6.4v19.5h-6.4zM176.5 82.2c-4-.2-6.7-2.2-6.7-6.9V50.8h6.2v23.7c0 1.6.9 2.5 2.6 2.6l-2.1 5.1zM187.7 82.2c-4-.2-6.7-2.2-6.7-6.9V50.8h6.2v23.7c0 1.6.9 2.5 2.6 2.6l-2.1 5.1zM214.1 79.5c-3 7.8-6.1 10.7-9.7 12.1l-3.9-3.9c3.1-1.2 5.5-3.5 7.1-7.6l-7-18.1h6.1l2.8 7.6c.4 1.1.9 2.5 1.2 3.8h.1c.4-1.3.8-2.7 1.2-3.8l2.8-7.6h5.8l-6.5 17.5zM231.7 82c-5.9 0-10.6-4.2-10.6-10.4s4.7-10.4 10.6-10.4c5.8 0 10.6 4.2 10.6 10.4S237.5 82 231.7 82zm0-15.2c-2.4 0-4.4 2.1-4.4 4.9s2 4.9 4.4 4.9c2.3 0 4.4-2.1 4.4-4.9s-2.1-4.9-4.4-4.9zM258.1 81.4v-2.7c-.8 2.1-2.8 3.2-6 3.2-4.3 0-6.8-2.4-6.8-6.5V61.9h6.3v12c0 1.4 1 2.7 2.9 2.7s3.1-1.2 3.1-2.8V61.9h6.3v19.5h-5.8zM279.8 68.6c-.4-.2-1.2-.5-1.9-.5-2 0-3.9 1.1-3.9 4.2v9.1h-6.3V61.9h6.2v4.3c.6-3.1 2.9-4.7 5.5-4.7.6 0 1.3.1 1.8.3l-1.4 6.8zM305.2 68.6c-.4-.2-1.2-.5-1.9-.5-2 0-3.9 1.1-3.9 4.2v9.1h-6.3V61.9h6.2v4.3c.6-3.1 2.9-4.7 5.5-4.7.6 0 1.3.1 1.8.3l-1.4 6.8zM326.1 70.6l-2.8 2.8h-9.5c.3 1.6 2.5 3.4 5.8 3.4 2 0 4.1-.6 5.4-1.5l-.6 5.4c-1.5.8-3.7 1.3-6.2 1.3-5.9 0-10.7-4.1-10.7-10.5 0-6.3 4.6-10.3 10.1-10.3 5.4 0 8.7 3.7 8.7 7.8 0 .5-.1 1.2-.2 1.6zm-8.5-4.6c-1.8 0-3.4 1.4-3.8 3.2h6.6v-.4c0-1.4-1.2-2.8-2.8-2.8zM342.4 67.1h-5.1v7.2c0 1.7.9 2.4 2.6 2.4.7 0 1.2 0 1.6-.3l-.6 4.8c-.6.3-1.7.5-2.9.5-4.4 0-7-2.3-7-6.2v-8.4h-3.3v-5.2h3.3v-4.2l6.3-2.3v6.5h6.3l-1.2 5.2zM348.9 59.3c-1.1 0-3.4-2.3-3.4-3.4s2.3-3.4 3.4-3.4 3.4 2.2 3.4 3.4c0 1.1-2.3 3.4-3.4 3.4zm-3.2 22.1V61.9h6.4v19.5h-6.4zM368.1 68.6c-.4-.2-1.2-.5-1.9-.5-2 0-3.9 1.1-3.9 4.2v9.1H356V61.9h6.2v4.3c.6-3.1 2.9-4.7 5.5-4.7.6 0 1.3.1 1.8.3l-1.4 6.8zM389 70.6l-2.8 2.8h-9.5c.3 1.6 2.5 3.4 5.8 3.4 2 0 4.1-.6 5.4-1.5l-.6 5.4c-1.5.8-3.7 1.3-6.2 1.3-5.9 0-10.7-4.1-10.7-10.5 0-6.3 4.6-10.3 10.1-10.3 5.4 0 8.7 3.7 8.7 7.8 0 .5-.1 1.2-.2 1.6zm-8.6-4.6c-1.8 0-3.4 1.4-3.8 3.2h6.6v-.4c.1-1.4-1.1-2.8-2.8-2.8zM416.1 81.4v-12c0-1.4-.7-2.7-2.8-2.7-2 0-2.9 1.2-2.9 2.8v11.9h-6.3v-12c0-1.4-.7-2.7-2.8-2.7-2 0-2.9 1.2-2.9 2.8v11.9h-6.3V61.9h5.8v2.6c.8-2.1 2.7-3.2 5.8-3.2 2.8 0 4.9 1.1 5.8 3.2.8-1.9 3.1-3.2 6-3.2 4.4 0 6.9 2.4 6.9 6.5v13.5h-6.3zM444.2 70.6l-2.8 2.8h-9.5c.3 1.6 2.5 3.4 5.8 3.4 2 0 4.1-.6 5.4-1.5l-.6 5.4c-1.5.8-3.7 1.3-6.2 1.3-5.9 0-10.7-4.1-10.7-10.5 0-6.3 4.6-10.3 10.1-10.3 5.4 0 8.7 3.7 8.7 7.8-.1.5-.2 1.2-.2 1.6zm-8.6-4.6c-1.8 0-3.4 1.4-3.8 3.2h6.6v-.4c0-1.4-1.1-2.8-2.8-2.8zM459.6 81.4v-12c0-1.4-.9-2.7-2.9-2.7-1.9 0-3.1 1.2-3.1 2.8v11.9h-6.3V61.9h5.8v2.6c.8-2.1 2.8-3.2 5.9-3.2 4.3 0 6.8 2.4 6.8 6.5v13.5h-6.2zM482.5 67.1h-5.1v7.2c0 1.7.9 2.4 2.6 2.4.7 0 1.2 0 1.6-.3l-.6 4.8c-.6.3-1.7.5-2.9.5-4.4 0-7-2.3-7-6.2v-8.4h-3.3v-5.2h3.3v-4.2l6.3-2.3v6.5h6.3l-1.2 5.2zM501.9 81.8c-2.7 0-4.6-.6-6.2-1.4l-.6-5.6c1.7 1.2 4 2.1 6.1 2.1 1.2 0 1.9-.6 1.9-1.3 0-.8-.6-1.2-1.8-1.5-3.7-1.1-6-3-6-6.4 0-3.8 3.1-6.3 7.3-6.3 2.4 0 4.8.6 5.8 1.2l-1.1 4.6c-.9-.5-2.5-1.1-4-1.1-1 0-1.7.5-1.7 1.2s.5 1.1 1.7 1.4c4.4 1.2 6.2 3.4 6.2 6.6.1 3.5-2.3 6.5-7.6 6.5zM526.2 82.3c-1.2-.3-2.5-1.2-3-2.6-.9 1.6-2.7 2.4-5.1 2.4-3.4 0-6.5-2.4-6.5-6.4 0-3.6 2.8-6 6.7-6.4l3.9-.4v-.6c0-1.2-.9-1.9-3.1-1.9-1.9 0-4 .6-5.4 1.5l-1.1-4.8c1.6-1 4.3-1.7 6.8-1.7 5.2 0 8.8 2.4 8.8 7.1v6.4c0 2.3.9 3.5 2.4 4l-4.4 3.4zm-4-9.4l-2.4.2c-1.6.1-2.4 1.3-2.4 2.5 0 1 .8 1.9 2 1.9 1.5 0 2.8-1.2 2.8-2.8v-1.8zM542.1 81.6h-4.7l-7.5-19.7h6.1l2.8 7.4c.4 1 .8 2.5 1.1 3.8h.1c.3-1.2.7-2.8 1.1-3.8l2.8-7.4h5.8l-7.6 19.7zM554.9 59.3c-1.1 0-3.4-2.3-3.4-3.4s2.3-3.4 3.4-3.4 3.4 2.2 3.4 3.4c0 1.1-2.3 3.4-3.4 3.4zm-3.2 22.1V61.9h6.4v19.5h-6.4zM574.4 81.4v-12c0-1.4-.9-2.7-2.9-2.7-1.9 0-3.1 1.2-3.1 2.8v11.9h-6.3V61.9h5.8v2.6c.8-2.1 2.8-3.2 5.9-3.2 4.3 0 6.8 2.4 6.8 6.5v13.5h-6.2zM592.7 91.3c-5.7 0-9.5-3.2-9.5-7.3 0-3 2-4.7 4-5.2l-2.5-2.5c.2-1.2 1.2-2.3 2.4-2.8-1.5-.9-2.8-2.8-2.8-5.2 0-4.1 3-7 8-7 1.2 0 2.1.2 2.9.4.8.2 1.8.3 2.8.3 1.1 0 2.2-.3 3.1-.6l1.2 4.8c-.6.3-1.5.6-2.4.6.2.4.5 1.3.5 2 0 3.3-2.6 6-6.4 6.3-.8 0-1.3.2-1.3.7 0 .2.2.5.5.6l3 1.1c3.8 1.4 5.9 3.3 5.9 6.9-.1 3.9-3.7 6.9-9.4 6.9zm1.3-9.1l-2.3-.6c-1.5 0-2.6 1.1-2.6 2.5 0 1.3 1.2 2.5 3.4 2.5s3.4-1 3.4-2.1c.1-1-.6-2-1.9-2.3zm-1.7-16.3c-1.4 0-2.5 1.1-2.5 2.3 0 1.3 1.1 2.3 2.5 2.3s2.5-1 2.5-2.3c0-1.2-1-2.3-2.5-2.3zM610.7 81.8c-2.7 0-4.6-.6-6.2-1.4l-.6-5.6c1.7 1.2 4 2.1 6.1 2.1 1.2 0 1.9-.6 1.9-1.3 0-.8-.6-1.2-1.8-1.5-3.7-1.1-6-3-6-6.4 0-3.8 3.1-6.3 7.3-6.3 2.4 0 4.8.6 5.8 1.2l-1.1 4.6c-.9-.5-2.5-1.1-4-1.1-1 0-1.7.5-1.7 1.2s.5 1.1 1.7 1.4c4.4 1.2 6.2 3.4 6.2 6.6.1 3.5-2.4 6.5-7.6 6.5z"/><g><path class="st0" d="M255.4 127c-4.1 0-7.5-1.4-9.4-2.9V95.8h6.1v11.8c.8-.6 2.9-1.3 4.9-1.3 5.4 0 9.8 3.8 9.8 10 0 6-3.8 10.7-11.4 10.7zm.5-15.1c-1.8 0-3.2.9-3.8 1.5v7.4c.6.5 2 .9 3.2.9 3.2 0 5.2-2.2 5.2-5 .1-2.7-1.8-4.8-4.6-4.8zM287.6 115.6l-2.8 2.8h-9.5c.3 1.6 2.5 3.4 5.8 3.4 2 0 4.1-.6 5.4-1.5l-.6 5.4c-1.5.8-3.7 1.3-6.2 1.3-5.9 0-10.7-4.1-10.7-10.5 0-6.3 4.6-10.3 10.1-10.3 5.4 0 8.7 3.7 8.7 7.8 0 .6-.1 1.2-.2 1.6zm-8.5-4.6c-1.8 0-3.4 1.4-3.8 3.2h6.6v-.4c0-1.4-1.1-2.8-2.8-2.8zM312.6 113.6c-.4-.2-1.2-.5-1.9-.5-2 0-3.9 1.1-3.9 4.2v9.1h-6.3v-19.5h6.2v4.3c.6-3.1 2.9-4.7 5.5-4.7.6 0 1.3.1 1.8.3l-1.4 6.8zM333.5 115.6l-2.8 2.8h-9.5c.3 1.6 2.5 3.4 5.8 3.4 2 0 4.1-.6 5.4-1.5l-.6 5.4c-1.5.8-3.7 1.3-6.2 1.3-5.9 0-10.7-4.1-10.7-10.5 0-6.3 4.6-10.3 10.1-10.3 5.4 0 8.7 3.7 8.7 7.8 0 .6-.1 1.2-.2 1.6zm-8.6-4.6c-1.8 0-3.4 1.4-3.8 3.2h6.6v-.4c.1-1.4-1.1-2.8-2.8-2.8zM350.1 127.3c-1.2-.3-2.5-1.2-3-2.6-.9 1.6-2.7 2.4-5.1 2.4-3.4 0-6.5-2.4-6.5-6.4 0-3.6 2.8-6 6.7-6.4l3.9-.4v-.6c0-1.2-.9-1.9-3.1-1.9-1.9 0-4 .6-5.4 1.5l-1.1-4.8c1.6-1 4.3-1.7 6.8-1.7 5.2 0 8.8 2.4 8.8 7.1v6.4c0 2.3.9 3.5 2.4 4l-4.4 3.4zm-4.1-9.4l-2.4.2c-1.6.1-2.4 1.3-2.4 2.5 0 1 .8 1.9 2 1.9 1.5 0 2.8-1.2 2.8-2.8v-1.8zM370.8 126.4V124c-1.1 2-3.3 3-6 3-4.8 0-9.4-3.6-9.4-10.3 0-6.3 4.5-10.4 9.9-10.4 2.1 0 4.2.7 4.9 1.3V95.8h6.1v30.6h-5.5zm-.6-12.8c-.6-.8-1.9-1.8-3.8-1.8-2.8 0-4.7 2.1-4.7 4.9s1.9 4.9 4.7 4.9c1.8 0 3.1-1 3.8-2v-6zM391.8 124.5c-3 7.8-6.1 10.7-9.7 12.1l-3.9-3.9c3.1-1.2 5.5-3.5 7.1-7.6l-7-18.1h6.1l2.8 7.6c.4 1.1.9 2.5 1.2 3.8h.1c.4-1.3.8-2.7 1.2-3.8l2.8-7.6h5.8l-6.5 17.5zM399.8 132.9l-2-.3c1.5-1.7 2.6-4.1 2.8-6.1-1.1-.2-2.8-2.1-2.8-3 0-1.2 2.5-3.5 3.6-3.5 1 0 3.6 2.2 3.6 3.5-.1 2.7-2.7 7-5.2 9.4zM430.8 112.1h-5.1v7.2c0 1.7.9 2.4 2.6 2.4.7 0 1.2 0 1.6-.3l-.6 4.8c-.6.3-1.7.5-2.9.5-4.4 0-7-2.3-7-6.2v-8.4h-3.3v-5.2h3.3v-4.2l6.3-2.3v6.5h6.3l-1.2 5.2zM443.3 127c-5.9 0-10.6-4.2-10.6-10.4s4.7-10.4 10.6-10.4c5.8 0 10.6 4.2 10.6 10.4s-4.7 10.4-10.6 10.4zm0-15.2c-2.4 0-4.4 2.1-4.4 4.9s2 4.9 4.4 4.9c2.3 0 4.4-2.1 4.4-4.9s-2-4.9-4.4-4.9zM466.6 127c-5.9 0-10.6-4.2-10.6-10.4s4.7-10.4 10.6-10.4c5.8 0 10.6 4.2 10.6 10.4s-4.7 10.4-10.6 10.4zm0-15.2c-2.4 0-4.4 2.1-4.4 4.9s2 4.9 4.4 4.9c2.3 0 4.4-2.1 4.4-4.9s-2.1-4.9-4.4-4.9zM488.8 112.9c-1.1 1.2-1.5 2.2-1.5 3.4 0 .6 0 1.3.2 1.9l-5.4-1.1c-.2-.9-.3-1.5-.3-2.2 0-2.3.9-4.3 2.5-5.9 1.1-1.2 1.7-2 1.7-3.2 0-.9-.9-1.9-2.4-1.9s-2.9.6-4.4 1.4l-1.3-5.3c1.6-1 3.7-1.6 6.1-1.6 5.1 0 8.4 2.9 8.4 7.3 0 2.4-1.1 4.5-3.6 7.2zm-4 14.1c-1.2 0-3.6-2.4-3.6-3.6 0-1.1 2.4-3.5 3.6-3.5 1.2 0 3.6 2.4 3.6 3.5 0 1.2-2.4 3.6-3.6 3.6z"/></g></svg>