<svg id="Layer_1" xmlns="http://www.w3.org/2000/svg" viewBox="0 0 970 250"><style>.st0{fill:#f9e039}</style><path class="st0" d="M76.3 70.2H72l-4-12.1c-.6-1.8-1.2-3.7-1.8-6.1h-.1c-.6 2.4-1.2 4.3-1.8 6.1l-4 12.1h-4.2L47 42.6h6.5l3.6 11.1c.5 1.7 1.1 3.4 1.5 5.5h.1c.4-2.1.9-3.8 1.5-5.5l3.6-11.1h5.7l3.5 11c.5 1.5 1 3.5 1.5 5.5h.1c.3-2 .9-4 1.5-5.5l3.7-11.1h5.8l-9.3 27.7zM100 70V58c0-1.4-1-2.7-2.9-2.7S94 56.5 94 58.1V70h-6.3V39.4h6.2v12.9c1-1.5 2.8-2.4 5.5-2.4 4.3 0 6.8 2.4 6.8 6.5V70H100zM123.9 70.9c-1.2-.3-2.5-1.2-3-2.6-.9 1.6-2.7 2.4-5.1 2.4-3.4 0-6.5-2.4-6.5-6.4 0-3.6 2.8-6 6.7-6.4l3.9-.4v-.6c0-1.2-.9-1.9-3.1-1.9-1.9 0-4 .6-5.4 1.5l-1.1-4.8c1.6-1 4.3-1.7 6.8-1.7 5.2 0 8.8 2.4 8.8 7.1v6.4c0 2.3.9 3.5 2.4 4l-4.4 3.4zm-4.1-9.4l-2.4.2c-1.6.1-2.4 1.3-2.4 2.5 0 1 .8 1.9 2 1.9 1.5 0 2.8-1.2 2.8-2.8v-1.8zM142.8 55.7h-5.1v7.2c0 1.7.9 2.4 2.6 2.4.7 0 1.2 0 1.6-.3l-.6 4.8c-.6.3-1.7.5-2.9.5-4.4 0-7-2.3-7-6.2v-8.4h-3.3v-5.2h3.3v-4.2l6.3-2.3v6.5h6.3l-1.2 5.2zM169.6 70.9c-1.2-.3-2.5-1.2-3-2.6-.9 1.6-2.7 2.4-5.1 2.4-3.4 0-6.5-2.4-6.5-6.4 0-3.6 2.8-6 6.7-6.4l3.9-.4v-.6c0-1.2-.9-1.9-3.1-1.9-1.9 0-4 .6-5.4 1.5l-1.1-4.8c1.6-1 4.3-1.7 6.8-1.7 5.2 0 8.8 2.4 8.8 7.1v6.4c0 2.3.9 3.5 2.4 4l-4.4 3.4zm-4-9.4l-2.4.2c-1.6.1-2.4 1.3-2.4 2.5 0 1 .8 1.9 2 1.9 1.5 0 2.8-1.2 2.8-2.8v-1.8zM184 80c-5.7 0-9.5-3.2-9.5-7.3 0-3 2-4.7 4-5.2L176 65c.2-1.2 1.2-2.3 2.4-2.8-1.5-.9-2.8-2.8-2.8-5.2 0-4.1 3-7 8-7 1.2 0 2.1.2 2.9.4.9.2 1.8.3 2.8.3 1.1 0 2.2-.3 3.1-.6l1.2 4.8c-.6.3-1.5.6-2.4.6.2.4.5 1.3.5 2 0 3.3-2.6 6-6.4 6.3-.8 0-1.3.2-1.3.7 0 .2.2.5.5.6l3 1.1c3.8 1.4 5.9 3.3 5.9 6.9 0 3.9-3.7 6.9-9.4 6.9zm1.4-9.2l-2.3-.6c-1.5 0-2.6 1.1-2.6 2.5 0 1.3 1.2 2.5 3.4 2.5s3.4-1 3.4-2.1c0-1-.7-2-1.9-2.3zm-1.8-16.3c-1.4 0-2.5 1.1-2.5 2.3 0 1.3 1.1 2.3 2.5 2.3s2.5-1 2.5-2.3c0-1.2-1-2.3-2.5-2.3zM213.4 59.2l-2.8 2.8h-9.5c.3 1.6 2.5 3.4 5.8 3.4 2 0 4.1-.6 5.4-1.5l-.6 5.4c-1.5.8-3.7 1.3-6.2 1.3-5.9 0-10.7-4.1-10.7-10.5 0-6.3 4.6-10.3 10.1-10.3 5.4 0 8.7 3.7 8.7 7.8 0 .6-.1 1.2-.2 1.6zm-8.5-4.6c-1.8 0-3.4 1.4-3.8 3.2h6.6v-.4c0-1.3-1.1-2.8-2.8-2.8zM247.8 70.2h-4.3l-2.6-7.7c-.4-1.2-.8-2.6-1.2-4h-.1c-.3 1.5-.7 2.9-1.1 4l-2.6 7.8h-4.1L225 50.5h5.8l2.4 7.4c.3 1.1.7 2.5.9 3.7h.1c.2-1.2.6-2.6.9-3.7l2.5-7.4h4.8l2.5 7.4c.4 1.2.6 2.5.9 3.8h.1c.3-1.2.6-2.6 1-3.8l2.5-7.4h5.4l-7 19.7zM259.9 47.9c-1.1 0-3.4-2.3-3.4-3.4s2.3-3.4 3.4-3.4 3.4 2.2 3.4 3.4-2.3 3.4-3.4 3.4zM256.7 70V50.5h6.4V70h-6.4zM273.8 70.8c-4-.2-6.7-2.2-6.7-6.9V39.4h6.2v23.7c0 1.6.9 2.5 2.6 2.6l-2.1 5.1zM284.9 70.8c-4-.2-6.7-2.2-6.7-6.9V39.4h6.2v23.7c0 1.6.9 2.5 2.6 2.6l-2.1 5.1zM311.3 68.1c-3 7.8-6.1 10.7-9.7 12.1l-3.9-3.9c3.1-1.2 5.5-3.5 7.1-7.6l-7-18.1h6.1l2.8 7.6c.4 1.1.9 2.5 1.2 3.8h.1c.4-1.3.8-2.7 1.2-3.8l2.8-7.6h5.8l-6.5 17.5zM328.9 70.6c-5.9 0-10.6-4.2-10.6-10.4s4.7-10.4 10.6-10.4c5.8 0 10.6 4.2 10.6 10.4s-4.8 10.4-10.6 10.4zm0-15.2c-2.4 0-4.4 2.1-4.4 4.9s2 4.9 4.4 4.9c2.3 0 4.4-2.1 4.4-4.9s-2.1-4.9-4.4-4.9zM355.3 70v-2.7c-.8 2.1-2.8 3.2-6 3.2-4.3 0-6.8-2.4-6.8-6.5V50.5h6.3v12c0 1.4 1 2.7 2.9 2.7s3.1-1.2 3.1-2.8V50.5h6.3V70h-5.8zM384.1 70.6c-4.1 0-7.5-1.4-9.4-2.9V39.4h6.1v11.8c.8-.6 2.9-1.3 4.9-1.3 5.4 0 9.8 3.8 9.8 10 0 6-3.8 10.7-11.4 10.7zm.5-15.1c-1.8 0-3.2.9-3.8 1.5v7.4c.6.5 2 .9 3.2.9 3.2 0 5.2-2.2 5.2-5 .1-2.7-1.8-4.8-4.6-4.8zM416.4 59.2l-2.8 2.8H404c.3 1.6 2.5 3.4 5.8 3.4 2 0 4.1-.6 5.4-1.5l-.6 5.4c-1.5.8-3.7 1.3-6.2 1.3-5.9 0-10.7-4.1-10.7-10.5 0-6.3 4.6-10.3 10.1-10.3 5.4 0 8.7 3.7 8.7 7.8 0 .6-.1 1.2-.1 1.6zm-8.6-4.6c-1.8 0-3.4 1.4-3.8 3.2h6.6v-.4c0-1.3-1.1-2.8-2.8-2.8zM441.3 57.3c-.4-.2-1.2-.5-1.9-.5-2 0-3.9 1.1-3.9 4.2v9h-6.3V50.5h6.2v4.3c.6-3.1 2.9-4.7 5.5-4.7.6 0 1.3.1 1.8.3l-1.4 6.9zM462.2 59.2l-2.8 2.8h-9.5c.3 1.6 2.5 3.4 5.8 3.4 2 0 4.1-.6 5.4-1.5l-.6 5.4c-1.5.8-3.7 1.3-6.2 1.3-5.9 0-10.7-4.1-10.7-10.5 0-6.3 4.6-10.3 10.1-10.3 5.4 0 8.7 3.7 8.7 7.8 0 .6-.1 1.2-.2 1.6zm-8.6-4.6c-1.8 0-3.4 1.4-3.8 3.2h6.6v-.4c.1-1.3-1.1-2.8-2.8-2.8zM478.8 70.9c-1.2-.3-2.5-1.2-3-2.6-.9 1.6-2.7 2.4-5.1 2.4-3.4 0-6.5-2.4-6.5-6.4 0-3.6 2.8-6 6.7-6.4l3.9-.4v-.6c0-1.2-.9-1.9-3.1-1.9-1.9 0-4 .6-5.4 1.5l-1.1-4.8c1.6-1 4.3-1.7 6.8-1.7 5.2 0 8.8 2.4 8.8 7.1v6.4c0 2.3.9 3.5 2.4 4l-4.4 3.4zm-4.1-9.4l-2.4.2c-1.6.1-2.4 1.3-2.4 2.5 0 1 .8 1.9 2 1.9 1.5 0 2.8-1.2 2.8-2.8v-1.8zM499.5 70v-2.4c-1.1 2-3.3 3-6 3-4.8 0-9.4-3.6-9.4-10.3 0-6.3 4.5-10.4 9.9-10.4 2.1 0 4.2.7 4.9 1.3V39.4h6.1V70h-5.5zm-.6-12.7c-.6-.8-1.9-1.8-3.8-1.8-2.8 0-4.7 2.1-4.7 4.9s1.9 4.9 4.7 4.9c1.8 0 3.1-1 3.8-2v-6zM520.5 68.1c-3 7.8-6.1 10.7-9.7 12.1l-3.9-3.9c3.1-1.2 5.5-3.5 7.1-7.6l-7-18.1h6.1l2.8 7.6c.4 1.1.9 2.5 1.2 3.8h.1c.4-1.3.8-2.7 1.2-3.8l2.8-7.6h5.8l-6.5 17.5zM552.3 55.7h-5.1v7.2c0 1.7.9 2.4 2.6 2.4.7 0 1.2 0 1.6-.3l-.6 4.8c-.6.3-1.7.5-2.9.5-4.4 0-7-2.3-7-6.2v-8.4h-3.3v-5.2h3.3v-4.2l6.3-2.3v6.5h6.3l-1.2 5.2zM564.8 70.6c-5.9 0-10.6-4.2-10.6-10.4s4.7-10.4 10.6-10.4c5.8 0 10.6 4.2 10.6 10.4s-4.8 10.4-10.6 10.4zm0-15.2c-2.4 0-4.4 2.1-4.4 4.9s2 4.9 4.4 4.9c2.3 0 4.4-2.1 4.4-4.9s-2.1-4.9-4.4-4.9zM600.3 57.3c-.4-.2-1.2-.5-1.9-.5-2 0-3.9 1.1-3.9 4.2v9h-6.3V50.5h6.2v4.3c.6-3.1 2.9-4.7 5.5-4.7.6 0 1.3.1 1.8.3l-1.4 6.9zM621.2 59.2l-2.8 2.8h-9.5c.3 1.6 2.5 3.4 5.8 3.4 2 0 4.1-.6 5.4-1.5l-.6 5.4c-1.5.8-3.7 1.3-6.2 1.3-5.9 0-10.7-4.1-10.7-10.5 0-6.3 4.6-10.3 10.1-10.3 5.4 0 8.7 3.7 8.7 7.8-.1.6-.2 1.2-.2 1.6zm-8.6-4.6c-1.8 0-3.4 1.4-3.8 3.2h6.6v-.4c0-1.3-1.1-2.8-2.8-2.8zM637.4 55.7h-5.1v7.2c0 1.7.9 2.4 2.6 2.4.7 0 1.2 0 1.6-.3l-.6 4.8c-.6.3-1.7.5-2.9.5-4.4 0-7-2.3-7-6.2v-8.4h-3.3v-5.2h3.3v-4.2l6.3-2.3v6.5h6.3l-1.2 5.2zM643.9 47.9c-1.1 0-3.4-2.3-3.4-3.4s2.3-3.4 3.4-3.4 3.4 2.2 3.4 3.4-2.3 3.4-3.4 3.4zM640.7 70V50.5h6.4V70h-6.4zM663.1 57.3c-.4-.2-1.2-.5-1.9-.5-2 0-3.9 1.1-3.9 4.2v9H651V50.5h6.2v4.3c.6-3.1 2.9-4.7 5.5-4.7.6 0 1.3.1 1.8.3l-1.4 6.9zM684 59.2l-2.8 2.8h-9.5c.3 1.6 2.5 3.4 5.8 3.4 2 0 4.1-.6 5.4-1.5l-.6 5.4c-1.5.8-3.7 1.3-6.2 1.3-5.9 0-10.7-4.1-10.7-10.5 0-6.3 4.6-10.3 10.1-10.3 5.4 0 8.7 3.7 8.7 7.8 0 .6-.1 1.2-.2 1.6zm-8.5-4.6c-1.8 0-3.4 1.4-3.8 3.2h6.6v-.4c0-1.3-1.2-2.8-2.8-2.8zM695.8 56.5c-1.1 1.2-1.5 2.2-1.5 3.4 0 .6 0 1.3.2 1.9l-5.4-1.1c-.2-.9-.3-1.5-.3-2.2 0-2.3.9-4.3 2.5-5.9 1.1-1.2 1.7-2 1.7-3.2 0-.9-.9-1.9-2.4-1.9s-2.9.6-4.4 1.4l-1.3-5.3c1.6-1 3.7-1.6 6.1-1.6 5.1 0 8.4 2.9 8.4 7.3.1 2.5-1 4.5-3.6 7.2zm-3.9 14.1c-1.2 0-3.6-2.4-3.6-3.6 0-1.1 2.4-3.5 3.6-3.5s3.6 2.4 3.6 3.5c0 1.2-2.4 3.6-3.6 3.6z"/></svg>