<svg id="Layer_1" xmlns="http://www.w3.org/2000/svg" viewBox="0 0 970 250"><style>.st0{fill:#3abfef}</style><path class="st0" d="M744.4 142.9c-9 0-16.2 7.3-16.2 16.2v16c0 9 7.3 16.2 16.2 16.2h171.7c9 0 16.2-7.3 16.2-16.2v-16c0-9-7.3-16.2-16.2-16.2H744.4z"/><path d="M788.4 159.5c2 0 3.7.1 5.2 1.5s2.1 3.3 2.1 5.3c0 1.8-.6 3.6-1.8 5-1.4 1.5-3 1.9-5 1.9h-4.5v-13.7h4zm-.8 11.2h1.1c1.3 0 2.2-.3 2.9-1.5.5-.9.8-1.9.8-3s-.3-2.2-1-3.1c-.7-1-1.6-1.1-2.7-1.1h-1.1v8.7zM800.9 173.3h-3.2v-13.7h3.2v13.7zM810.6 163.5c-.4-1.2-1.1-1.6-2.4-1.6-.9 0-1.9.2-1.9 1.3 0 1 1.2 1.2 2 1.4 1.1.2 2.6.5 3.6 1.2 1.1.7 1.8 1.9 1.8 3.2 0 1.3-.6 2.6-1.7 3.4-1.1.9-2.6 1.1-4 1.1-2.6 0-4.9-1.1-5.5-3.8l3-.7c.4 1.4 1.4 1.9 2.9 1.9.9 0 2.1-.3 2.1-1.5 0-1.1-1.6-1.4-2.4-1.5-2.4-.5-4.8-1.2-4.8-4.2 0-1.3.5-2.4 1.5-3.2 1-.8 2.2-1.1 3.4-1.1 2.4 0 4.4.8 5.2 3.2l-2.8.9zM823.4 164.9c0-1.5-.5-2.9-2.3-2.9-2.3 0-2.5 3-2.5 4.6 0 1.9.2 4.3 2.6 4.3 1.5 0 2.2-1.3 2.4-2.6l3.1.2c-.3 3.1-2.5 5-5.7 5-4.1 0-6.1-3.3-6.1-7.1s2-7.1 6.2-7.1c3.4 0 5.2 2 5.6 5.3l-3.3.3zM829.7 171.3c-1-1.4-1.4-3.2-1.4-4.9 0-3.6 1.8-7 5.9-7 1.8 0 3.3.6 4.4 2.1 1 1.3 1.5 3.3 1.5 4.9 0 1.6-.4 3.5-1.3 4.8-1.1 1.6-2.7 2.3-4.5 2.3s-3.5-.7-4.6-2.2zm2.4-7.8c-.3.8-.4 2-.4 2.9 0 1.7.3 4.5 2.5 4.5 1.1 0 1.7-.5 2.1-1.6.3-.8.4-2 .4-2.9 0-1-.1-2.2-.5-3.1-.4-.9-1-1.3-2-1.3-1.1 0-1.7.5-2.1 1.5zM848.2 173.3h-3.5l-4.1-13.7h3.4l2.8 9.8 2.8-9.8h2.7l-4.1 13.7zM856.9 162.2v2.8h5.2v2.6h-5.2v3h6.6v2.7h-9.8v-13.7h9.8v2.7h-6.6zM868.6 173.3h-3.2v-13.7h5.8c1.2 0 2.5 0 3.5.7 1.1.7 1.7 2.1 1.7 3.4 0 1.6-.9 3-2.4 3.5l2.5 6.1H873l-2.1-5.4h-2.3v5.4zm0-7.8h1.8c.7 0 1.4.1 2-.3.5-.3.8-1 .8-1.6 0-.5-.3-1.1-.8-1.4-.5-.3-1.5-.3-2.1-.3h-1.7v3.6z"/></svg>