<svg id="Layer_1" xmlns="http://www.w3.org/2000/svg" viewBox="0 0 970 250"><style>.st0{fill:#fff}</style><path class="st0" d="M347.2 176.8h-3.5c-1.8 0-3.2 1.8-3.2 3.4v-5.4c0-1.6-1.4-3.4-3.2-3.4h-3.5c-1.8 0-3.2 1.8-3.2 3.4v-3.4c0-1.6-1.4-3.4-3.2-3.4h-3.5c-1.8 0-3.2 1.8-3.2 3.4v-13.3c0-2.5-2.2-4.5-4.9-4.5s-4.9 2-4.9 4.5v26.1c-3-2.1-7.5-5.9-11.5-4.1-2.9 1.3-2.2 5.2.7 8 5.1 5.1 10.4 15.1 12.4 20.9 3.1 9.1 4.9 13.1 4.9 13.1h26.2s2.9-9.4 5.6-15c.3-.7 1-2 1-6.5v-20.4c.2-1.6-1.3-3.4-3-3.4"/><path d="M318.7 220.5h23.7c.9-2.8 3.1-9.5 5.4-14 .3-.6.9-1.8.9-5.8v-20.5c0-.7-.7-1.7-1.4-1.7h-3.5c-.7 0-1.4 1-1.4 1.7 0 1-.8 1.8-1.7 1.8-1 0-1.8-.8-1.8-1.8v-5.4c0-.7-.7-1.7-1.4-1.7H334c-.7 0-1.4 1-1.4 1.7 0 1-.8 1.8-1.8 1.8s-1.7-.8-1.7-1.8v-3.4c0-.7-.7-1.7-1.4-1.7h-3.5c-.7 0-1.4 1-1.4 1.7 0 1-.8 1.8-1.7 1.8-1 0-1.8-.8-1.8-1.8v-13.3c0-1.5-1.4-2.7-3.1-2.7s-3.1 1.2-3.1 2.7v26.1c0 .6-.4 1.2-.9 1.5-.6.3-1.3.3-1.8-.1-.4-.2-.7-.5-1.1-.8-2.2-1.5-4.8-3.5-7.2-3.5-.5 0-1 .1-1.5.3-.5.2-.7.5-.8.9-.2 1 .4 2.6 2 4.3 5.1 5.1 10.6 15.1 12.8 21.5 1.9 6.6 3.4 10.5 4.1 12.2m25 3.5h-26.2c-.7 0-1.3-.4-1.6-1-.1-.2-1.8-4.2-4.9-13.2-1.8-5.3-6.9-15.2-11.9-20.2-2.3-2.3-3.4-5.1-2.9-7.4.3-1.6 1.3-2.8 2.8-3.5.9-.4 1.9-.6 2.9-.6 2.8 0 5.3 1.4 7.6 2.9v-22.8c0-3.4 3-6.2 6.6-6.2 3.7 0 6.6 2.8 6.6 6.2v8.3c.4-.2.9-.2 1.4-.2h3.5c2.3 0 4.1 1.8 4.7 3.7.5-.2 1.1-.3 1.6-.3h3.5c2.8 0 4.9 2.7 4.9 5.2v.4c.4-.2.9-.2 1.4-.2h3.5c2.8 0 4.9 2.7 4.9 5.2v20.5c0 4.8-.8 6.4-1.2 7.2-2.7 5.5-5.5 14.7-5.6 14.8-.2.7-.8 1.2-1.6 1.2"/><path d="M321 181.4c-1 0-1.8-.8-1.8-1.7v-8.2c0-1 .8-1.7 1.8-1.7s1.7.8 1.7 1.7v8.2c0 .9-.8 1.7-1.7 1.7M330.8 184.8c-1 0-1.7-.8-1.7-1.7v-8.2c0-1 .8-1.7 1.7-1.7 1 0 1.8.8 1.8 1.7v8.2c-.1.9-.9 1.7-1.8 1.7M340.6 190.2c-1 0-1.8-.8-1.8-1.7v-8.2c0-1 .8-1.8 1.8-1.8s1.7.8 1.7 1.8v8.2c0 .9-.8 1.7-1.7 1.7"/></svg>