<?xml version="1.0" encoding="utf-8"?>
<!-- Generator: Adobe Illustrator 24.0.0, SVG Export Plug-In . SVG Version: 6.00 Build 0)  -->
<svg version="1.1" id="Layer_1" xmlns="http://www.w3.org/2000/svg" xmlns:xlink="http://www.w3.org/1999/xlink" x="0px" y="0px"
	 viewBox="0 0 320 50" style="enable-background:new 0 0 320 50;" xml:space="preserve">
<style type="text/css">
	.st0{fill:#F9E039;}
</style>
<g>
	<path class="st0" d="M138.9,24.4h-1.2l-1.1-3.4c-0.2-0.5-0.3-1-0.5-1.7h0c-0.2,0.7-0.3,1.2-0.5,1.7l-1.1,3.4h-1.2l-2.6-7.7h1.8
		l1,3.1c0.1,0.5,0.3,1,0.4,1.5h0c0.1-0.6,0.3-1.1,0.4-1.5l1-3.1h1.6l1,3.1c0.1,0.4,0.3,1,0.4,1.5h0c0.1-0.6,0.3-1.1,0.4-1.5l1-3.1
		h1.6L138.9,24.4z"/>
	<path class="st0" d="M145.5,24.3V21c0-0.4-0.3-0.7-0.8-0.7c-0.5,0-0.9,0.3-0.9,0.8v3.3H142v-8.5h1.7v3.6h0c0.3-0.4,0.8-0.7,1.5-0.7
		c1.2,0,1.9,0.7,1.9,1.8v3.8H145.5z"/>
	<path class="st0" d="M152.1,24.6c-0.3-0.1-0.7-0.3-0.8-0.7c-0.2,0.4-0.8,0.7-1.4,0.7c-1,0-1.8-0.7-1.8-1.8c0-1,0.8-1.7,1.9-1.8
		l1.1-0.1v-0.2c0-0.3-0.3-0.5-0.9-0.5c-0.5,0-1.1,0.2-1.5,0.4l-0.3-1.3c0.4-0.3,1.2-0.5,1.9-0.5c1.4,0,2.5,0.7,2.5,2v1.8
		c0,0.6,0.2,1,0.7,1.1L152.1,24.6z M151,22l-0.7,0.1c-0.5,0-0.7,0.4-0.7,0.7c0,0.3,0.2,0.5,0.6,0.5c0.4,0,0.8-0.3,0.8-0.8V22z"/>
	<path class="st0" d="M157.4,20.3h-1.4v2c0,0.5,0.3,0.7,0.7,0.7c0.2,0,0.3,0,0.5-0.1l-0.2,1.3c-0.2,0.1-0.5,0.1-0.8,0.1
		c-1.2,0-2-0.6-2-1.7v-2.4h-0.9v-1.4h0.9v-1.2l1.8-0.6v1.8h1.8L157.4,20.3z"/>
	<path class="st0" d="M164.6,24.6c-0.3-0.1-0.7-0.3-0.8-0.7c-0.2,0.4-0.8,0.7-1.4,0.7c-1,0-1.8-0.7-1.8-1.8c0-1,0.8-1.7,1.9-1.8
		l1.1-0.1v-0.2c0-0.3-0.3-0.5-0.9-0.5c-0.5,0-1.1,0.2-1.5,0.4l-0.3-1.3c0.4-0.3,1.2-0.5,1.9-0.5c1.4,0,2.5,0.7,2.5,2v1.8
		c0,0.6,0.2,1,0.7,1.1L164.6,24.6z M163.5,22l-0.7,0.1c-0.5,0-0.7,0.4-0.7,0.7c0,0.3,0.2,0.5,0.6,0.5c0.4,0,0.8-0.3,0.8-0.8V22z"/>
	<path class="st0" d="M168.6,27.1c-1.6,0-2.6-0.9-2.6-2c0-0.8,0.6-1.3,1.1-1.5l-0.7-0.7c0-0.3,0.3-0.6,0.7-0.8
		c-0.4-0.3-0.8-0.8-0.8-1.5c0-1.2,0.8-2,2.2-2c0.3,0,0.6,0,0.8,0.1c0.2,0.1,0.5,0.1,0.8,0.1c0.3,0,0.6-0.1,0.9-0.2l0.3,1.3
		c-0.2,0.1-0.4,0.2-0.7,0.2c0.1,0.1,0.1,0.4,0.1,0.6c0,0.9-0.7,1.7-1.8,1.8c-0.2,0-0.4,0.1-0.4,0.2c0,0.1,0,0.1,0.1,0.2l0.8,0.3
		c1.1,0.4,1.6,0.9,1.6,1.9C171.2,26.3,170.2,27.1,168.6,27.1z M169,24.6l-0.6-0.2c-0.4,0-0.7,0.3-0.7,0.7c0,0.4,0.3,0.7,1,0.7
		c0.6,0,1-0.3,1-0.6C169.5,24.9,169.3,24.6,169,24.6z M168.5,20c-0.4,0-0.7,0.3-0.7,0.6c0,0.4,0.3,0.6,0.7,0.6
		c0.4,0,0.7-0.3,0.7-0.6C169.2,20.3,168.9,20,168.5,20z"/>
	<path class="st0" d="M176.8,21.3l-0.8,0.8h-2.7c0.1,0.4,0.7,0.9,1.6,0.9c0.6,0,1.1-0.2,1.5-0.4l-0.2,1.5c-0.4,0.2-1,0.4-1.7,0.4
		c-1.7,0-3-1.2-3-2.9c0-1.8,1.3-2.9,2.8-2.9c1.5,0,2.4,1,2.4,2.2C176.9,21,176.8,21.2,176.8,21.3z M174.4,20c-0.5,0-0.9,0.4-1.1,0.9
		h1.8c0,0,0-0.1,0-0.1C175.2,20.4,174.9,20,174.4,20z"/>
	<path class="st0" d="M186.2,24.4H185l-0.7-2.2c-0.1-0.3-0.2-0.7-0.3-1.1h0c-0.1,0.4-0.2,0.8-0.3,1.1l-0.7,2.2h-1.2l-1.9-5.5h1.6
		l0.7,2.1c0.1,0.3,0.2,0.7,0.3,1h0c0.1-0.3,0.2-0.7,0.3-1l0.7-2.1h1.3l0.7,2.1c0.1,0.3,0.2,0.7,0.3,1.1h0c0.1-0.3,0.2-0.7,0.3-1.1
		l0.7-2.1h1.5L186.2,24.4z"/>
	<path class="st0" d="M189.5,18.2c-0.3,0-0.9-0.6-0.9-0.9c0-0.3,0.6-0.9,0.9-0.9c0.3,0,0.9,0.6,0.9,0.9
		C190.5,17.5,189.9,18.2,189.5,18.2z M188.7,24.3v-5.4h1.8v5.4H188.7z"/>
	<path class="st0" d="M193.4,24.6c-1.1,0-1.9-0.6-1.9-1.9v-6.8h1.7v6.6c0,0.4,0.3,0.7,0.7,0.7L193.4,24.6z"/>
	<path class="st0" d="M196.4,24.6c-1.1,0-1.9-0.6-1.9-1.9v-6.8h1.7v6.6c0,0.4,0.3,0.7,0.7,0.7L196.4,24.6z"/>
	<path class="st0" d="M203.6,23.8c-0.8,2.2-1.7,3-2.7,3.4l-1.1-1.1c0.9-0.3,1.5-1,2-2.1l-2-5.1h1.7l0.8,2.1c0.1,0.3,0.2,0.7,0.3,1.1
		h0c0.1-0.4,0.2-0.8,0.3-1.1l0.8-2.1h1.6L203.6,23.8z"/>
	<path class="st0" d="M208.5,24.5c-1.6,0-3-1.2-3-2.9s1.3-2.9,3-2.9c1.6,0,3,1.2,3,2.9S210.1,24.5,208.5,24.5z M208.5,20.3
		c-0.7,0-1.2,0.6-1.2,1.4c0,0.8,0.6,1.4,1.2,1.4c0.6,0,1.2-0.6,1.2-1.4C209.7,20.8,209.1,20.3,208.5,20.3z"/>
	<path class="st0" d="M215.8,24.3v-0.7h0c-0.2,0.6-0.8,0.9-1.7,0.9c-1.2,0-1.9-0.7-1.9-1.8v-3.8h1.8v3.3c0,0.4,0.3,0.7,0.8,0.7
		c0.5,0,0.9-0.3,0.9-0.8v-3.3h1.8v5.4H215.8z"/>
	<path class="st0" d="M223.6,24.5c-1.2,0-2.1-0.4-2.6-0.8v-7.9h1.7v3.3c0.2-0.2,0.8-0.4,1.4-0.4c1.5,0,2.7,1.1,2.7,2.8
		C226.8,23.2,225.8,24.5,223.6,24.5z M223.8,20.3c-0.5,0-0.9,0.2-1.1,0.4v2.1c0.2,0.1,0.6,0.3,0.9,0.3c0.9,0,1.5-0.6,1.5-1.4
		C225.1,20.9,224.5,20.3,223.8,20.3z"/>
	<path class="st0" d="M232.6,21.3l-0.8,0.8h-2.7c0.1,0.4,0.7,0.9,1.6,0.9c0.6,0,1.1-0.2,1.5-0.4l-0.2,1.5c-0.4,0.2-1,0.4-1.7,0.4
		c-1.7,0-3-1.2-3-2.9c0-1.8,1.3-2.9,2.8-2.9c1.5,0,2.4,1,2.4,2.2C232.6,21,232.6,21.2,232.6,21.3z M230.2,20c-0.5,0-0.9,0.4-1.1,0.9
		h1.8c0,0,0-0.1,0-0.1C231,20.4,230.7,20,230.2,20z"/>
</g>
<g>
	<path class="st0" d="M147.8,31.8c-0.1-0.1-0.3-0.1-0.5-0.1c-0.6,0-1.1,0.3-1.1,1.2v2.5h-1.8v-5.4h1.7v1.2h0
		c0.2-0.9,0.8-1.3,1.5-1.3c0.2,0,0.4,0,0.5,0.1L147.8,31.8z"/>
	<path class="st0" d="M153.6,32.3l-0.8,0.8h-2.7c0.1,0.4,0.7,0.9,1.6,0.9c0.6,0,1.1-0.2,1.5-0.4l-0.2,1.5c-0.4,0.2-1,0.4-1.7,0.4
		c-1.7,0-3-1.2-3-2.9c0-1.8,1.3-2.9,2.8-2.9c1.5,0,2.4,1,2.4,2.2C153.7,32,153.7,32.2,153.6,32.3z M151.3,31c-0.5,0-0.9,0.4-1.1,0.9
		h1.8c0,0,0-0.1,0-0.1C152,31.4,151.7,31,151.3,31z"/>
	<path class="st0" d="M158.3,35.6c-0.3-0.1-0.7-0.3-0.8-0.7c-0.2,0.4-0.8,0.7-1.4,0.7c-1,0-1.8-0.7-1.8-1.8c0-1,0.8-1.7,1.9-1.8
		l1.1-0.1v-0.2c0-0.3-0.3-0.5-0.9-0.5c-0.5,0-1.1,0.2-1.5,0.4l-0.3-1.3c0.4-0.3,1.2-0.5,1.9-0.5c1.4,0,2.5,0.7,2.5,2v1.8
		c0,0.6,0.2,1,0.7,1.1L158.3,35.6z M157.1,33l-0.7,0.1c-0.5,0-0.7,0.4-0.7,0.7c0,0.3,0.2,0.5,0.6,0.5c0.4,0,0.8-0.3,0.8-0.8V33z"/>
	<path class="st0" d="M164,35.3v-0.7h0c-0.3,0.6-0.9,0.8-1.7,0.8c-1.3,0-2.6-1-2.6-2.9c0-1.8,1.2-2.9,2.8-2.9c0.6,0,1.2,0.2,1.4,0.4
		v-3.3h1.7v8.5H164z M163.8,31.8c-0.2-0.2-0.5-0.5-1.1-0.5c-0.8,0-1.3,0.6-1.3,1.4s0.5,1.4,1.3,1.4c0.5,0,0.9-0.3,1.1-0.6V31.8z"/>
	<path class="st0" d="M169.9,34.8c-0.8,2.2-1.7,3-2.7,3.4l-1.1-1.1c0.9-0.3,1.5-1,2-2.1l-2-5.1h1.7l0.8,2.1c0.1,0.3,0.2,0.7,0.3,1.1
		h0c0.1-0.4,0.2-0.8,0.3-1.1l0.8-2.1h1.6L169.9,34.8z"/>
	<path class="st0" d="M178.5,31.3h-1.4v2c0,0.5,0.3,0.7,0.7,0.7c0.2,0,0.3,0,0.5-0.1l-0.2,1.3c-0.2,0.1-0.5,0.1-0.8,0.1
		c-1.2,0-2-0.6-2-1.7v-2.3h-0.9v-1.4h0.9v-1.2l1.8-0.6v1.8h1.8L178.5,31.3z"/>
	<path class="st0" d="M182,35.5c-1.6,0-3-1.2-3-2.9s1.3-2.9,3-2.9c1.6,0,3,1.2,3,2.9S183.6,35.5,182,35.5z M182,31.3
		c-0.7,0-1.2,0.6-1.2,1.4c0,0.8,0.6,1.4,1.2,1.4c0.6,0,1.2-0.6,1.2-1.4C183.2,31.8,182.6,31.3,182,31.3z"/>
	<path class="st0" d="M191.6,31.8c-0.1-0.1-0.3-0.1-0.5-0.1c-0.6,0-1.1,0.3-1.1,1.2v2.5h-1.8v-5.4h1.7v1.2h0
		c0.2-0.9,0.8-1.3,1.5-1.3c0.2,0,0.4,0,0.5,0.1L191.6,31.8z"/>
	<path class="st0" d="M197.4,32.3l-0.8,0.8H194c0.1,0.4,0.7,0.9,1.6,0.9c0.6,0,1.1-0.2,1.5-0.4l-0.2,1.5c-0.4,0.2-1,0.4-1.7,0.4
		c-1.7,0-3-1.2-3-2.9c0-1.8,1.3-2.9,2.8-2.9c1.5,0,2.4,1,2.4,2.2C197.5,32,197.5,32.2,197.4,32.3z M195.1,31c-0.5,0-0.9,0.4-1.1,0.9
		h1.8c0,0,0-0.1,0-0.1C195.8,31.4,195.5,31,195.1,31z"/>
	<path class="st0" d="M202,31.3h-1.4v2c0,0.5,0.3,0.7,0.7,0.7c0.2,0,0.3,0,0.5-0.1l-0.2,1.3c-0.2,0.1-0.5,0.1-0.8,0.1
		c-1.2,0-2-0.6-2-1.7v-2.3h-0.9v-1.4h0.9v-1.2l1.8-0.6v1.8h1.8L202,31.3z"/>
	<path class="st0" d="M203.7,29.2c-0.3,0-0.9-0.6-0.9-0.9c0-0.3,0.6-0.9,0.9-0.9c0.3,0,0.9,0.6,0.9,0.9
		C204.7,28.5,204.1,29.2,203.7,29.2z M202.9,35.3v-5.4h1.8v5.4H202.9z"/>
	<path class="st0" d="M209.1,31.8c-0.1-0.1-0.3-0.1-0.5-0.1c-0.6,0-1.1,0.3-1.1,1.2v2.5h-1.8v-5.4h1.7v1.2h0
		c0.2-0.9,0.8-1.3,1.5-1.3c0.2,0,0.4,0,0.5,0.1L209.1,31.8z"/>
	<path class="st0" d="M214.9,32.3l-0.8,0.8h-2.7c0.1,0.4,0.7,0.9,1.6,0.9c0.6,0,1.1-0.2,1.5-0.4l-0.2,1.5c-0.4,0.2-1,0.4-1.7,0.4
		c-1.7,0-3-1.2-3-2.9c0-1.8,1.3-2.9,2.8-2.9c1.5,0,2.4,1,2.4,2.2C214.9,32,214.9,32.2,214.9,32.3z M212.5,31c-0.5,0-0.9,0.4-1.1,0.9
		h1.8c0,0,0-0.1,0-0.1C213.3,31.4,213,31,212.5,31z"/>
	<path class="st0" d="M218.2,31.6c-0.3,0.3-0.4,0.6-0.4,0.9c0,0.2,0,0.4,0,0.5l-1.5-0.3c-0.1-0.2-0.1-0.4-0.1-0.6
		c0-0.6,0.3-1.2,0.7-1.7c0.3-0.3,0.5-0.6,0.5-0.9c0-0.3-0.2-0.5-0.7-0.5c-0.4,0-0.8,0.2-1.2,0.4l-0.4-1.5c0.4-0.3,1-0.5,1.7-0.5
		c1.4,0,2.4,0.8,2.4,2C219.2,30.2,218.9,30.8,218.2,31.6z M217.1,35.5c-0.3,0-1-0.7-1-1c0-0.3,0.7-1,1-1c0.3,0,1,0.7,1,1
		C218.1,34.8,217.4,35.5,217.1,35.5z"/>
</g>
</svg>
