<?xml version="1.0" encoding="utf-8"?>
<!-- Generator: Adobe Illustrator 24.0.0, SVG Export Plug-In . SVG Version: 6.00 Build 0)  -->
<svg version="1.1" id="Layer_1" xmlns="http://www.w3.org/2000/svg" xmlns:xlink="http://www.w3.org/1999/xlink" x="0px" y="0px"
	 viewBox="0 0 320 50" style="enable-background:new 0 0 320 50;" xml:space="preserve">
<style type="text/css">
	.st0{fill:#F9E039;}
</style>
<g>
	<path class="st0" d="M35.3,16.8v1.5h2.2v1.6h-2.2v3.1h-1.8v-7.7h4.4v1.5H35.3z"/>
	<path class="st0" d="M39.4,16.7c-0.3,0-0.9-0.6-0.9-0.9s0.6-0.9,0.9-0.9c0.3,0,0.9,0.6,0.9,0.9S39.7,16.7,39.4,16.7z M38.5,22.9
		v-5.4h1.8v5.4H38.5z"/>
	<path class="st0" d="M43.7,25.7c-1.6,0-2.6-0.9-2.6-2c0-0.8,0.6-1.3,1.1-1.5l-0.7-0.7c0-0.3,0.3-0.6,0.7-0.8
		c-0.4-0.3-0.8-0.8-0.8-1.5c0-1.2,0.8-2,2.2-2c0.3,0,0.6,0,0.8,0.1c0.2,0.1,0.5,0.1,0.8,0.1c0.3,0,0.6-0.1,0.9-0.2l0.3,1.3
		c-0.2,0.1-0.4,0.2-0.7,0.2c0.1,0.1,0.1,0.4,0.1,0.6c0,0.9-0.7,1.7-1.8,1.8c-0.2,0-0.4,0.1-0.4,0.2c0,0.1,0,0.1,0.1,0.2l0.8,0.3
		c1.1,0.4,1.6,0.9,1.6,1.9C46.3,24.8,45.2,25.7,43.7,25.7z M44,23.1l-0.6-0.2c-0.4,0-0.7,0.3-0.7,0.7c0,0.4,0.3,0.7,1,0.7
		c0.6,0,1-0.3,1-0.6C44.6,23.5,44.4,23.2,44,23.1z M43.6,18.6c-0.4,0-0.7,0.3-0.7,0.6c0,0.4,0.3,0.6,0.7,0.6c0.4,0,0.7-0.3,0.7-0.6
		C44.2,18.9,44,18.6,43.6,18.6z"/>
	<path class="st0" d="M50.5,22.9v-0.7h0c-0.2,0.6-0.8,0.9-1.7,0.9c-1.2,0-1.9-0.7-1.9-1.8v-3.8h1.8v3.3c0,0.4,0.3,0.7,0.8,0.7
		c0.5,0,0.9-0.3,0.9-0.8v-3.3h1.8v5.4H50.5z"/>
	<path class="st0" d="M56.5,19.3c-0.1-0.1-0.3-0.1-0.5-0.1c-0.6,0-1.1,0.3-1.1,1.2v2.5h-1.8v-5.4h1.7v1.2h0c0.2-0.9,0.8-1.3,1.5-1.3
		c0.2,0,0.4,0,0.5,0.1L56.5,19.3z"/>
	<path class="st0" d="M62.3,19.9l-0.8,0.8h-2.7c0.1,0.4,0.7,0.9,1.6,0.9c0.6,0,1.1-0.2,1.5-0.4l-0.2,1.5c-0.4,0.2-1,0.4-1.7,0.4
		c-1.7,0-3-1.2-3-2.9c0-1.8,1.3-2.9,2.8-2.9c1.5,0,2.4,1,2.4,2.2C62.3,19.6,62.3,19.8,62.3,19.9z M59.9,18.6c-0.5,0-0.9,0.4-1.1,0.9
		h1.8c0,0,0-0.1,0-0.1C60.7,19,60.4,18.6,59.9,18.6z"/>
	<path class="st0" d="M68.4,23.1c-1.6,0-3-1.2-3-2.9s1.3-2.9,3-2.9c1.6,0,3,1.2,3,2.9S70,23.1,68.4,23.1z M68.4,18.8
		c-0.7,0-1.2,0.6-1.2,1.4c0,0.8,0.6,1.4,1.2,1.4c0.6,0,1.2-0.6,1.2-1.4C69.6,19.4,69.1,18.8,68.4,18.8z"/>
	<path class="st0" d="M75.7,22.9v-0.7h0c-0.2,0.6-0.8,0.9-1.7,0.9c-1.2,0-1.9-0.7-1.9-1.8v-3.8h1.8v3.3c0,0.4,0.3,0.7,0.8,0.7
		c0.5,0,0.9-0.3,0.9-0.8v-3.3h1.8v5.4H75.7z"/>
	<path class="st0" d="M82.1,18.9h-1.4v2c0,0.5,0.3,0.7,0.7,0.7c0.2,0,0.3,0,0.5-0.1l-0.2,1.3c-0.2,0.1-0.5,0.1-0.8,0.1
		c-1.2,0-2-0.6-2-1.7v-2.4H78v-1.4h0.9v-1.2l1.8-0.6v1.8h1.8L82.1,18.9z"/>
	<path class="st0" d="M88.8,22.3c-0.8,2.2-1.7,3-2.7,3.4L85,24.6c0.9-0.3,1.5-1,2-2.1l-2-5.1h1.7l0.8,2.1c0.1,0.3,0.2,0.7,0.3,1.1h0
		c0.1-0.4,0.2-0.8,0.3-1.1l0.8-2.1h1.6L88.8,22.3z"/>
	<path class="st0" d="M93.7,23.1c-1.6,0-3-1.2-3-2.9s1.3-2.9,3-2.9c1.6,0,3,1.2,3,2.9S95.3,23.1,93.7,23.1z M93.7,18.8
		c-0.7,0-1.2,0.6-1.2,1.4c0,0.8,0.6,1.4,1.2,1.4c0.6,0,1.2-0.6,1.2-1.4C94.9,19.4,94.3,18.8,93.7,18.8z"/>
	<path class="st0" d="M101,22.9v-0.7h0c-0.2,0.6-0.8,0.9-1.7,0.9c-1.2,0-1.9-0.7-1.9-1.8v-3.8h1.8v3.3c0,0.4,0.3,0.7,0.8,0.7
		c0.5,0,0.9-0.3,0.9-0.8v-3.3h1.8v5.4H101z"/>
	<path class="st0" d="M107.1,19.3c-0.1-0.1-0.3-0.1-0.5-0.1c-0.6,0-1.1,0.3-1.1,1.2v2.5h-1.8v-5.4h1.7v1.2h0
		c0.2-0.9,0.8-1.3,1.5-1.3c0.2,0,0.4,0,0.5,0.1L107.1,19.3z"/>
	<path class="st0" d="M113,25.7c-1.6,0-2.6-0.9-2.6-2c0-0.8,0.6-1.3,1.1-1.5l-0.7-0.7c0-0.3,0.3-0.6,0.7-0.8
		c-0.4-0.3-0.8-0.8-0.8-1.5c0-1.2,0.8-2,2.2-2c0.3,0,0.6,0,0.8,0.1c0.2,0.1,0.5,0.1,0.8,0.1c0.3,0,0.6-0.1,0.9-0.2l0.3,1.3
		c-0.2,0.1-0.4,0.2-0.7,0.2c0.1,0.1,0.1,0.4,0.1,0.6c0,0.9-0.7,1.7-1.8,1.8c-0.2,0-0.4,0.1-0.4,0.2c0,0.1,0,0.1,0.1,0.2l0.8,0.3
		c1.1,0.4,1.6,0.9,1.6,1.9C115.6,24.8,114.6,25.7,113,25.7z M113.4,23.1l-0.6-0.2c-0.4,0-0.7,0.3-0.7,0.7c0,0.4,0.3,0.7,1,0.7
		c0.6,0,1-0.3,1-0.6C113.9,23.5,113.7,23.2,113.4,23.1z M112.9,18.6c-0.4,0-0.7,0.3-0.7,0.6c0,0.4,0.3,0.6,0.7,0.6
		c0.4,0,0.7-0.3,0.7-0.6C113.6,18.9,113.3,18.6,112.9,18.6z"/>
	<path class="st0" d="M119.8,22.9v-0.7h0c-0.2,0.6-0.8,0.9-1.7,0.9c-1.2,0-1.9-0.7-1.9-1.8v-3.8h1.8v3.3c0,0.4,0.3,0.7,0.8,0.7
		c0.5,0,0.9-0.3,0.9-0.8v-3.3h1.8v5.4H119.8z"/>
	<path class="st0" d="M126.3,23.1c-0.3-0.1-0.7-0.3-0.8-0.7c-0.2,0.4-0.8,0.7-1.4,0.7c-1,0-1.8-0.7-1.8-1.8c0-1,0.8-1.7,1.9-1.8
		l1.1-0.1v-0.2c0-0.3-0.3-0.5-0.9-0.5c-0.5,0-1.1,0.2-1.5,0.4l-0.3-1.3c0.4-0.3,1.2-0.5,1.9-0.5c1.4,0,2.5,0.7,2.5,2V21
		c0,0.6,0.2,1,0.7,1.1L126.3,23.1z M125.1,20.5l-0.7,0.1c-0.5,0-0.7,0.4-0.7,0.7c0,0.3,0.2,0.5,0.6,0.5c0.4,0,0.8-0.3,0.8-0.8V20.5z
		"/>
	<path class="st0" d="M131.4,19.3c-0.1-0.1-0.3-0.1-0.5-0.1c-0.6,0-1.1,0.3-1.1,1.2v2.5H128v-5.4h1.7v1.2h0c0.2-0.9,0.8-1.3,1.5-1.3
		c0.2,0,0.4,0,0.5,0.1L131.4,19.3z"/>
	<path class="st0" d="M136.1,23.1c-0.3-0.1-0.7-0.3-0.8-0.7c-0.2,0.4-0.8,0.7-1.4,0.7c-1,0-1.8-0.7-1.8-1.8c0-1,0.8-1.7,1.9-1.8
		l1.1-0.1v-0.2c0-0.3-0.3-0.5-0.9-0.5c-0.5,0-1.1,0.2-1.5,0.4l-0.3-1.3c0.4-0.3,1.2-0.5,1.9-0.5c1.4,0,2.5,0.7,2.5,2V21
		c0,0.6,0.2,1,0.7,1.1L136.1,23.1z M135,20.5l-0.7,0.1c-0.5,0-0.7,0.4-0.7,0.7c0,0.3,0.2,0.5,0.6,0.5c0.4,0,0.8-0.3,0.8-0.8V20.5z"
		/>
	<path class="st0" d="M141.3,22.9v-3.3c0-0.4-0.3-0.7-0.8-0.7c-0.5,0-0.9,0.3-0.9,0.8v3.3h-1.8v-5.4h1.6v0.7h0
		c0.2-0.6,0.8-0.9,1.7-0.9c1.2,0,1.9,0.7,1.9,1.8v3.8H141.3z"/>
	<path class="st0" d="M147.7,18.9h-1.4v2c0,0.5,0.3,0.7,0.7,0.7c0.2,0,0.3,0,0.5-0.1l-0.2,1.3c-0.2,0.1-0.5,0.1-0.8,0.1
		c-1.2,0-2-0.6-2-1.7v-2.4h-0.9v-1.4h0.9v-1.2l1.8-0.6v1.8h1.8L147.7,18.9z"/>
	<path class="st0" d="M153.4,19.9l-0.8,0.8H150c0.1,0.4,0.7,0.9,1.6,0.9c0.6,0,1.1-0.2,1.5-0.4l-0.2,1.5c-0.4,0.2-1,0.4-1.7,0.4
		c-1.7,0-3-1.2-3-2.9c0-1.8,1.3-2.9,2.8-2.9c1.5,0,2.4,1,2.4,2.2C153.5,19.6,153.4,19.8,153.4,19.9z M151,18.6
		c-0.5,0-0.9,0.4-1.1,0.9h1.8c0,0,0-0.1,0-0.1C151.8,19,151.5,18.6,151,18.6z"/>
	<path class="st0" d="M159.2,19.9l-0.8,0.8h-2.7c0.1,0.4,0.7,0.9,1.6,0.9c0.6,0,1.1-0.2,1.5-0.4l-0.2,1.5c-0.4,0.2-1,0.4-1.7,0.4
		c-1.7,0-3-1.2-3-2.9c0-1.8,1.3-2.9,2.8-2.9c1.5,0,2.4,1,2.4,2.2C159.2,19.6,159.2,19.8,159.2,19.9z M156.8,18.6
		c-0.5,0-0.9,0.4-1.1,0.9h1.8c0,0,0-0.1,0-0.1C157.6,19,157.3,18.6,156.8,18.6z"/>
	<path class="st0" d="M164.1,22.9v-0.7h0c-0.3,0.6-0.9,0.8-1.7,0.8c-1.3,0-2.6-1-2.6-2.9c0-1.8,1.2-2.9,2.8-2.9
		c0.6,0,1.2,0.2,1.4,0.4v-3.3h1.7v8.5H164.1z M163.9,19.3c-0.2-0.2-0.5-0.5-1.1-0.5c-0.8,0-1.3,0.6-1.3,1.4c0,0.8,0.5,1.4,1.3,1.4
		c0.5,0,0.9-0.3,1.1-0.6V19.3z"/>
	<path class="st0" d="M171.1,23.1c-1.1,0-1.9-0.6-1.9-1.9v-6.8h1.7V21c0,0.4,0.3,0.7,0.7,0.7L171.1,23.1z"/>
	<path class="st0" d="M173.2,16.7c-0.3,0-0.9-0.6-0.9-0.9s0.6-0.9,0.9-0.9c0.3,0,0.9,0.6,0.9,0.9S173.6,16.7,173.2,16.7z
		 M172.4,22.9v-5.4h1.8v5.4H172.4z"/>
	<path class="st0" d="M179,15.9c-0.2-0.1-0.5-0.1-0.7-0.1c-0.6,0-1,0.4-1,1.2v0.5h1.6l-0.3,1.4h-1.2v4h-1.7v-4h-0.8v-1.4h0.8v-0.6
		c0-1.7,1.1-2.5,2.4-2.5c0.5,0,1,0.1,1.3,0.2L179,15.9z"/>
	<path class="st0" d="M184.2,19.9l-0.8,0.8h-2.7c0.1,0.4,0.7,0.9,1.6,0.9c0.6,0,1.1-0.2,1.5-0.4l-0.2,1.5c-0.4,0.2-1,0.4-1.7,0.4
		c-1.7,0-3-1.2-3-2.9c0-1.8,1.3-2.9,2.8-2.9c1.5,0,2.4,1,2.4,2.2C184.3,19.6,184.3,19.8,184.2,19.9z M181.9,18.6
		c-0.5,0-0.9,0.4-1.1,0.9h1.8c0,0,0-0.1,0-0.1C182.7,19,182.3,18.6,181.9,18.6z"/>
	<path class="st0" d="M188.8,18.9h-1.4v2c0,0.5,0.3,0.7,0.7,0.7c0.2,0,0.3,0,0.5-0.1l-0.2,1.3c-0.2,0.1-0.5,0.1-0.8,0.1
		c-1.2,0-2-0.6-2-1.7v-2.4h-0.9v-1.4h0.9v-1.2l1.8-0.6v1.8h1.8L188.8,18.9z"/>
	<path class="st0" d="M190.5,16.7c-0.3,0-0.9-0.6-0.9-0.9s0.6-0.9,0.9-0.9c0.3,0,0.9,0.6,0.9,0.9S190.9,16.7,190.5,16.7z
		 M189.7,22.9v-5.4h1.8v5.4H189.7z"/>
	<path class="st0" d="M199.2,22.9v-3.3c0-0.4-0.2-0.7-0.8-0.7c-0.6,0-0.8,0.3-0.8,0.8v3.3h-1.8v-3.3c0-0.4-0.2-0.7-0.8-0.7
		c-0.6,0-0.8,0.3-0.8,0.8v3.3h-1.8v-5.4h1.6v0.7h0c0.2-0.6,0.8-0.9,1.6-0.9c0.8,0,1.4,0.3,1.6,0.9c0.2-0.5,0.9-0.9,1.7-0.9
		c1.2,0,1.9,0.7,1.9,1.8v3.8H199.2z"/>
	<path class="st0" d="M207,19.9l-0.8,0.8h-2.7c0.1,0.4,0.7,0.9,1.6,0.9c0.6,0,1.1-0.2,1.5-0.4l-0.2,1.5c-0.4,0.2-1,0.4-1.7,0.4
		c-1.7,0-3-1.2-3-2.9c0-1.8,1.3-2.9,2.8-2.9c1.5,0,2.4,1,2.4,2.2C207,19.6,207,19.8,207,19.9z M204.6,18.6c-0.5,0-0.9,0.4-1.1,0.9
		h1.8c0,0,0-0.1,0-0.1C205.4,19,205.1,18.6,204.6,18.6z"/>
</g>
<g>
	<path class="st0" d="M50.5,27.7c-0.3,0-0.9-0.6-0.9-0.9c0-0.3,0.6-0.9,0.9-0.9c0.3,0,0.9,0.6,0.9,0.9
		C51.5,27.1,50.8,27.7,50.5,27.7z M49.6,33.9v-5.4h1.8v5.4H49.6z"/>
	<path class="st0" d="M55.9,33.9v-3.3c0-0.4-0.3-0.7-0.8-0.7c-0.5,0-0.9,0.3-0.9,0.8v3.3h-1.8v-5.4h1.6v0.7h0
		c0.2-0.6,0.8-0.9,1.7-0.9c1.2,0,1.9,0.7,1.9,1.8v3.8H55.9z"/>
	<path class="st0" d="M62.8,30.2c-0.4-0.2-0.7-0.3-1.2-0.3c-0.8,0-1.4,0.6-1.4,1.3c0,0.8,0.6,1.3,1.4,1.3c0.5,0,0.8-0.1,1.2-0.3
		l-0.2,1.5c-0.4,0.2-0.8,0.3-1.3,0.3c-1.5,0-2.9-1.1-2.9-2.8c0-1.8,1.4-2.8,2.9-2.8c0.7,0,1.3,0.1,1.8,0.4L62.8,30.2z"/>
	<path class="st0" d="M66.6,34.1c-1.6,0-3-1.2-3-2.9c0-1.7,1.3-2.9,3-2.9c1.6,0,3,1.2,3,2.9C69.5,32.9,68.2,34.1,66.6,34.1z
		 M66.6,29.8c-0.7,0-1.2,0.6-1.2,1.4c0,0.8,0.6,1.4,1.2,1.4c0.6,0,1.2-0.6,1.2-1.4C67.8,30.4,67.2,29.8,66.6,29.8z"/>
	<path class="st0" d="M77,33.9v-3.3c0-0.4-0.2-0.7-0.8-0.7c-0.6,0-0.8,0.3-0.8,0.8v3.3h-1.8v-3.3c0-0.4-0.2-0.7-0.8-0.7
		c-0.6,0-0.8,0.3-0.8,0.8v3.3h-1.8v-5.4H72v0.7h0c0.2-0.6,0.8-0.9,1.6-0.9c0.8,0,1.4,0.3,1.6,0.9c0.2-0.5,0.9-0.9,1.7-0.9
		c1.2,0,1.9,0.7,1.9,1.8v3.8H77z"/>
	<path class="st0" d="M84.8,30.9L84,31.7h-2.7c0.1,0.4,0.7,0.9,1.6,0.9c0.6,0,1.1-0.2,1.5-0.4l-0.2,1.5c-0.4,0.2-1,0.4-1.7,0.4
		c-1.7,0-3-1.2-3-2.9c0-1.8,1.3-2.9,2.8-2.9c1.5,0,2.4,1,2.4,2.2C84.9,30.6,84.8,30.8,84.8,30.9z M82.4,29.6c-0.5,0-0.9,0.4-1.1,0.9
		h1.8c0,0,0-0.1,0-0.1C83.2,30,82.9,29.6,82.4,29.6z"/>
	<path class="st0" d="M90,34c-0.7,0-1.3-0.2-1.7-0.4l-0.2-1.6c0.5,0.3,1.1,0.6,1.7,0.6c0.3,0,0.5-0.2,0.5-0.4c0-0.2-0.2-0.3-0.5-0.4
		c-1-0.3-1.7-0.8-1.7-1.8c0-1.1,0.9-1.8,2-1.8c0.7,0,1.3,0.2,1.6,0.3L91.5,30c-0.3-0.1-0.7-0.3-1.1-0.3c-0.3,0-0.5,0.1-0.5,0.3
		c0,0.2,0.1,0.3,0.5,0.4c1.2,0.3,1.7,0.9,1.7,1.8C92.1,33.2,91.4,34,90,34z"/>
	<path class="st0" d="M95.5,34.1c-1.6,0-3-1.2-3-2.9c0-1.7,1.3-2.9,3-2.9c1.6,0,3,1.2,3,2.9C98.5,32.9,97.2,34.1,95.5,34.1z
		 M95.5,29.8c-0.7,0-1.2,0.6-1.2,1.4c0,0.8,0.6,1.4,1.2,1.4c0.6,0,1.2-0.6,1.2-1.4C96.8,30.4,96.2,29.8,95.5,29.8z"/>
	<path class="st0" d="M105.2,33.4c-0.8,2.2-1.7,3-2.7,3.4l-1.1-1.1c0.9-0.3,1.5-1,2-2.1l-2-5.1h1.7l0.8,2.1c0.1,0.3,0.2,0.7,0.3,1.1
		h0c0.1-0.4,0.2-0.8,0.3-1.1l0.8-2.1h1.6L105.2,33.4z"/>
	<path class="st0" d="M110.1,34.1c-1.6,0-3-1.2-3-2.9c0-1.7,1.3-2.9,3-2.9c1.6,0,3,1.2,3,2.9C113,32.9,111.7,34.1,110.1,34.1z
		 M110.1,29.8c-0.7,0-1.2,0.6-1.2,1.4c0,0.8,0.6,1.4,1.2,1.4c0.6,0,1.2-0.6,1.2-1.4C111.3,30.4,110.7,29.8,110.1,29.8z"/>
	<path class="st0" d="M117.4,33.9v-0.7h0c-0.2,0.6-0.8,0.9-1.7,0.9c-1.2,0-1.9-0.7-1.9-1.8v-3.8h1.8v3.3c0,0.4,0.3,0.7,0.8,0.7
		c0.5,0,0.9-0.3,0.9-0.8v-3.3h1.8v5.4H117.4z"/>
	<path class="st0" d="M126,33.9v-3.3c0-0.4-0.3-0.7-0.8-0.7c-0.5,0-0.9,0.3-0.9,0.8v3.3h-1.8v-5.4h1.6v0.7h0
		c0.2-0.6,0.8-0.9,1.7-0.9c1.2,0,1.9,0.7,1.9,1.8v3.8H126z"/>
	<path class="st0" d="M133.8,30.9l-0.8,0.8h-2.7c0.1,0.4,0.7,0.9,1.6,0.9c0.6,0,1.1-0.2,1.5-0.4l-0.2,1.5c-0.4,0.2-1,0.4-1.7,0.4
		c-1.7,0-3-1.2-3-2.9c0-1.8,1.3-2.9,2.8-2.9c1.5,0,2.4,1,2.4,2.2C133.8,30.6,133.8,30.8,133.8,30.9z M131.4,29.6
		c-0.5,0-0.9,0.4-1.1,0.9h1.8c0,0,0-0.1,0-0.1C132.2,30,131.8,29.6,131.4,29.6z"/>
	<path class="st0" d="M137.4,33.9h-1.3l-2.1-5.5h1.7l0.8,2.1c0.1,0.3,0.2,0.7,0.3,1.1h0c0.1-0.3,0.2-0.8,0.3-1.1l0.8-2.1h1.6
		L137.4,33.9z"/>
	<path class="st0" d="M144.8,30.9l-0.8,0.8h-2.7c0.1,0.4,0.7,0.9,1.6,0.9c0.6,0,1.1-0.2,1.5-0.4l-0.2,1.5c-0.4,0.2-1,0.4-1.7,0.4
		c-1.7,0-3-1.2-3-2.9c0-1.8,1.3-2.9,2.8-2.9c1.5,0,2.4,1,2.4,2.2C144.8,30.6,144.8,30.8,144.8,30.9z M142.4,29.6
		c-0.5,0-0.9,0.4-1.1,0.9h1.8c0,0,0-0.1,0-0.1C143.2,30,142.9,29.6,142.4,29.6z"/>
	<path class="st0" d="M149,30.3c-0.1-0.1-0.3-0.1-0.5-0.1c-0.6,0-1.1,0.3-1.1,1.2v2.5h-1.8v-5.4h1.7v1.2h0c0.2-0.9,0.8-1.3,1.5-1.3
		c0.2,0,0.4,0,0.5,0.1L149,30.3z"/>
	<path class="st0" d="M155.9,30.3c-0.1-0.1-0.3-0.1-0.5-0.1c-0.6,0-1.1,0.3-1.1,1.2v2.5h-1.8v-5.4h1.7v1.2h0
		c0.2-0.9,0.8-1.3,1.5-1.3c0.2,0,0.4,0,0.5,0.1L155.9,30.3z"/>
	<path class="st0" d="M160.4,33.9v-0.7h0c-0.2,0.6-0.8,0.9-1.7,0.9c-1.2,0-1.9-0.7-1.9-1.8v-3.8h1.8v3.3c0,0.4,0.3,0.7,0.8,0.7
		c0.5,0,0.9-0.3,0.9-0.8v-3.3h1.8v5.4H160.4z"/>
	<path class="st0" d="M166.5,33.9v-3.3c0-0.4-0.3-0.7-0.8-0.7c-0.5,0-0.9,0.3-0.9,0.8v3.3H163v-5.4h1.6v0.7h0
		c0.2-0.6,0.8-0.9,1.7-0.9c1.2,0,1.9,0.7,1.9,1.8v3.8H166.5z"/>
	<path class="st0" d="M174.5,34.1c-1.6,0-3-1.2-3-2.9c0-1.7,1.3-2.9,3-2.9c1.6,0,3,1.2,3,2.9C177.5,32.9,176.2,34.1,174.5,34.1z
		 M174.5,29.8c-0.7,0-1.2,0.6-1.2,1.4c0,0.8,0.6,1.4,1.2,1.4c0.6,0,1.2-0.6,1.2-1.4C175.8,30.4,175.2,29.8,174.5,29.8z"/>
	<path class="st0" d="M181.9,33.9v-0.7h0c-0.2,0.6-0.8,0.9-1.7,0.9c-1.2,0-1.9-0.7-1.9-1.8v-3.8h1.8v3.3c0,0.4,0.3,0.7,0.8,0.7
		c0.5,0,0.9-0.3,0.9-0.8v-3.3h1.8v5.4H181.9z"/>
	<path class="st0" d="M188.2,29.9h-1.4v2c0,0.5,0.3,0.7,0.7,0.7c0.2,0,0.3,0,0.5-0.1l-0.2,1.3c-0.2,0.1-0.5,0.1-0.8,0.1
		c-1.2,0-2-0.6-2-1.7v-2.4h-0.9v-1.4h0.9v-1.2l1.8-0.6v1.8h1.8L188.2,29.9z"/>
	<path class="st0" d="M189.8,34.1c-0.3,0-1-0.7-1-1c0-0.3,0.7-1,1-1c0.3,0,1,0.7,1,1C190.8,33.4,190.1,34.1,189.8,34.1z"/>
</g>
</svg>
