<?xml version="1.0" encoding="utf-8"?>
<!-- Generator: Adobe Illustrator 24.0.0, SVG Export Plug-In . SVG Version: 6.00 Build 0)  -->
<svg version="1.1" id="Layer_1" xmlns="http://www.w3.org/2000/svg" xmlns:xlink="http://www.w3.org/1999/xlink" x="0px" y="0px"
	 viewBox="0 0 320 50" style="enable-background:new 0 0 320 50;" xml:space="preserve">
<style type="text/css">
	.st0{fill:#3ABFEF;}
</style>
<path class="st0" d="M253.3,26.2c-4.3,0-7.7,3.5-7.7,7.7V36c0,4.3,3.5,7.7,7.7,7.7h50.9c4.3,0,7.7-3.4,7.7-7.7v-2.1
	c0-4.3-3.5-7.7-7.7-7.7H253.3z"/>
<g>
	<path d="M262.4,31.9c0.8,0,1.4,0,2,0.6c0.6,0.5,0.8,1.3,0.8,2c0,0.7-0.2,1.4-0.7,1.9c-0.5,0.6-1.2,0.7-1.9,0.7h-1.7v-5.3H262.4z
		 M262.1,36.2h0.4c0.5,0,0.8-0.1,1.1-0.6c0.2-0.3,0.3-0.7,0.3-1.1c0-0.4-0.1-0.9-0.4-1.2c-0.3-0.4-0.6-0.4-1-0.4h-0.4V36.2z"/>
	<path d="M267.3,37.2h-1.2v-5.3h1.2V37.2z"/>
	<path d="M271.1,33.5c-0.2-0.4-0.4-0.6-0.9-0.6c-0.3,0-0.7,0.1-0.7,0.5c0,0.4,0.5,0.5,0.8,0.5c0.4,0.1,1,0.2,1.4,0.4
		c0.4,0.3,0.7,0.7,0.7,1.3c0,0.5-0.2,1-0.7,1.3c-0.4,0.3-1,0.4-1.5,0.4c-1,0-1.9-0.4-2.1-1.5l1.1-0.3c0.2,0.6,0.6,0.7,1.1,0.7
		c0.4,0,0.8-0.1,0.8-0.6c0-0.4-0.6-0.5-0.9-0.6c-0.9-0.2-1.9-0.5-1.9-1.6c0-0.5,0.2-0.9,0.6-1.2c0.4-0.3,0.8-0.4,1.3-0.4
		c0.9,0,1.7,0.3,2,1.2L271.1,33.5z"/>
	<path d="M276.1,34c0-0.6-0.2-1.1-0.9-1.1c-0.9,0-1,1.1-1,1.8c0,0.7,0.1,1.7,1,1.7c0.6,0,0.8-0.5,0.9-1l1.2,0.1
		c-0.1,1.2-1,1.9-2.2,1.9c-1.6,0-2.3-1.3-2.3-2.7c0-1.5,0.8-2.7,2.4-2.7c1.3,0,2,0.8,2.1,2L276.1,34z"/>
	<path d="M278.6,36.5c-0.4-0.5-0.6-1.2-0.6-1.9c0-1.4,0.7-2.7,2.3-2.7c0.7,0,1.3,0.2,1.7,0.8c0.4,0.5,0.6,1.3,0.6,1.9
		c0,0.6-0.2,1.3-0.5,1.8c-0.4,0.6-1,0.9-1.8,0.9C279.6,37.3,279,37.1,278.6,36.5z M279.5,33.5c-0.1,0.3-0.2,0.8-0.2,1.1
		c0,0.7,0.1,1.7,1,1.7c0.4,0,0.7-0.2,0.8-0.6c0.1-0.3,0.2-0.8,0.2-1.1c0-0.4,0-0.8-0.2-1.2s-0.4-0.5-0.8-0.5
		C279.9,32.9,279.6,33.1,279.5,33.5z"/>
	<path d="M285.7,37.2h-1.3l-1.6-5.3h1.3l1.1,3.8l1.1-3.8h1L285.7,37.2z"/>
	<path d="M289.1,33V34h2v1h-2v1.2h2.5v1h-3.8v-5.3h3.8v1H289.1z"/>
	<path d="M293.8,37.2h-1.2v-5.3h2.2c0.5,0,0.9,0,1.4,0.3c0.4,0.3,0.7,0.8,0.7,1.3c0,0.6-0.3,1.2-0.9,1.4l1,2.3h-1.4l-0.8-2.1h-0.9
		V37.2z M293.8,34.2h0.7c0.3,0,0.5,0,0.8-0.1c0.2-0.1,0.3-0.4,0.3-0.6c0-0.2-0.1-0.4-0.3-0.5c-0.2-0.1-0.6-0.1-0.8-0.1h-0.6V34.2z"
		/>
</g>
</svg>
