<?xml version="1.0" encoding="utf-8"?>
<!-- Generator: Adobe Illustrator 24.0.0, SVG Export Plug-In . SVG Version: 6.00 Build 0)  -->
<svg version="1.1" id="Layer_1" xmlns="http://www.w3.org/2000/svg" xmlns:xlink="http://www.w3.org/1999/xlink" x="0px" y="0px"
	 viewBox="0 0 320 50" style="enable-background:new 0 0 320 50;" xml:space="preserve">
<style type="text/css">
	.st0{fill:#FFFFFF;}
	.st1{clip-path:url(#SVGID_2_);fill:#FFFFFF;}
	.st2{clip-path:url(#SVGID_4_);fill:url(#SVGID_5_);}
	.st3{clip-path:url(#SVGID_7_);fill:url(#SVGID_8_);}
	.st4{clip-path:url(#SVGID_10_);fill:url(#SVGID_11_);}
</style>
<path class="st0" d="M279,10.4v1.7h-3v8h-1.9v-8h-3v-1.7H279z M279.8,20.1h1.9v-4.8v-4.8h-1.9v4.8V20.1z M291.4,20.1h-1.9l-1-2.4
	h-3.3l-1,2.4h-1.9l4.1-9.8h0.8L291.4,20.1z M300.5,20.1h-1.9l-1-2.4h-3.3l-1,2.4h-1.9l4.1-9.8h0.8L300.5,20.1z M287.8,16.1l-1-2.4
	l-1,2.4H287.8z M296.9,16.1l-1-2.4l-1,2.4H296.9z"/>
<g>
	<defs>
		<rect id="SVGID_1_" x="256" y="8.1" width="45.6" height="15.3"/>
	</defs>
	<clipPath id="SVGID_2_">
		<use xlink:href="#SVGID_1_"  style="overflow:visible;"/>
	</clipPath>
	<path class="st1" d="M264.4,20.7c0.8,0,1.6-0.3,2.1-0.9l2.3-2.3c0.5-0.5,0.9-1.3,0.9-2.1V8.3h-7.1c-0.8,0-1.6,0.3-2.1,0.9l-2.3,2.3
		c-0.5,0.5-0.9,1.3-0.9,2.1v7.2H264.4z"/>
</g>
<g>
	<defs>
		<path id="SVGID_3_" d="M263.4,8.9c-1.3,0-2.3,1-2.4,2.3v0.8h4.9V17h0.8c1.3,0,2.4-1.1,2.4-2.3V8.9H263.4z"/>
	</defs>
	<clipPath id="SVGID_4_">
		<use xlink:href="#SVGID_3_"  style="overflow:visible;"/>
	</clipPath>
	
		<linearGradient id="SVGID_5_" gradientUnits="userSpaceOnUse" x1="-0.3431" y1="49.8361" x2="0.6569" y2="49.8361" gradientTransform="matrix(5.5842 -5.5842 -5.5842 -5.5842 543.7142 290.906)">
		<stop  offset="0" style="stop-color:#9EDCF9"/>
		<stop  offset="0.1" style="stop-color:#9EDCF9"/>
		<stop  offset="0.9" style="stop-color:#079DD9"/>
		<stop  offset="1" style="stop-color:#079DD9"/>
	</linearGradient>
	<polygon class="st2" points="257,13 265.1,4.9 273.1,13 265.1,21 	"/>
</g>
<g>
	<defs>
		<path id="SVGID_6_" d="M266.7,17.6h-6.3l-2.5,2.5h6.5c0.6,0,1.2-0.3,1.7-0.7l2.1-2.1l-0.1-0.1C267.7,17.5,267.3,17.6,266.7,17.6"
			/>
	</defs>
	<clipPath id="SVGID_7_">
		<use xlink:href="#SVGID_6_"  style="overflow:visible;"/>
	</clipPath>
	
		<linearGradient id="SVGID_8_" gradientUnits="userSpaceOnUse" x1="0.9029" y1="49.6401" x2="1.9029" y2="49.6401" gradientTransform="matrix(10.2954 0 0 -10.2954 248.6285 529.7402)">
		<stop  offset="0" style="stop-color:#17B0E6"/>
		<stop  offset="0.1144" style="stop-color:#18ACE2"/>
		<stop  offset="0.264" style="stop-color:#16A1D7"/>
		<stop  offset="0.4332" style="stop-color:#1290C7"/>
		<stop  offset="0.6169" style="stop-color:#0D7AB4"/>
		<stop  offset="0.81" style="stop-color:#00619F"/>
		<stop  offset="0.9" style="stop-color:#005595"/>
		<stop  offset="1" style="stop-color:#005595"/>
	</linearGradient>
	<rect x="257.9" y="17.2" class="st3" width="10.3" height="2.9"/>
</g>
<g>
	<defs>
		<path id="SVGID_9_" d="M258.6,11.9c-0.5,0.4-0.7,1-0.7,1.7v6.5l2.5-2.5v-6.3c0-0.5,0.1-1,0.4-1.4l-0.1-0.1L258.6,11.9z"/>
	</defs>
	<clipPath id="SVGID_10_">
		<use xlink:href="#SVGID_9_"  style="overflow:visible;"/>
	</clipPath>
	
		<linearGradient id="SVGID_11_" gradientUnits="userSpaceOnUse" x1="-0.3598" y1="51.0971" x2="0.6402" y2="51.0971" gradientTransform="matrix(0 -10.2956 -10.2956 0 785.4345 16.4036)">
		<stop  offset="0" style="stop-color:#0582BE"/>
		<stop  offset="0.2191" style="stop-color:#0478B4"/>
		<stop  offset="0.6535" style="stop-color:#00609E"/>
		<stop  offset="0.85" style="stop-color:#005595"/>
		<stop  offset="1" style="stop-color:#005595"/>
	</linearGradient>
	<rect x="257.9" y="9.8" class="st4" width="2.9" height="10.3"/>
</g>
</svg>
