<svg id="Layer_1" xmlns="http://www.w3.org/2000/svg" viewBox="0 0 320 50"><style>.st0{fill:#fff}</style><path class="st0" d="M5.6 45.3l-.7-.3c.9-.4 1.5-1 1.8-1.8-.2.2-.4.3-.7.3-.9 0-1.4-.6-1.4-1.4 0-.8.6-1.5 1.5-1.5.8 0 1.5.6 1.5 1.6 0 1.2-.8 2.5-2 3.1zm.5-4.1c-.5 0-.8.4-.8.9s.3.9.8.9c.4 0 .7-.1.9-.6v-.2c0-.6-.4-1-.9-1zM9.2 45.3l-.7-.3c.9-.4 1.5-1 1.8-1.8-.2.2-.4.3-.7.3-.9 0-1.4-.6-1.4-1.4 0-.8.6-1.5 1.5-1.5.8 0 1.5.6 1.5 1.6 0 1.2-.8 2.5-2 3.1zm.5-4.1c-.5 0-.8.4-.8.9s.3.9.8.9c.4 0 .7-.1.9-.6v-.2c0-.6-.4-1-.9-1zM13.3 45.2c-.8 0-1.5-.6-1.5-1.6 0-1.2.9-2.5 2.1-3.1l.6.3c-.8.4-1.5 1-1.8 1.8.2-.2.4-.3.7-.3.9 0 1.4.6 1.4 1.4 0 .9-.6 1.5-1.5 1.5zm0-2.3c-.4 0-.7.1-.9.6v.2c0 .5.4.9.9.9s.8-.4.8-.9c.1-.4-.3-.8-.8-.8zM16.9 45.2c-.8 0-1.5-.7-1.5-2.3 0-1.6.7-2.3 1.5-2.3s1.5.8 1.5 2.3c0 1.6-.7 2.3-1.5 2.3zm0-4.1c-.5 0-.9.5-.9 1.8s.4 1.8.9 1.8c.4 0 .9-.5.9-1.8s-.4-1.8-.9-1.8zM19.6 45.1v-4l-.8.1.1-.5 1.3-.1v4.5h-.6zM20.9 45.1V45c1-1.2 1.8-2.3 1.8-3 0-.6-.3-.8-.7-.8-.3 0-.6.1-.9.3l-.1-.6c.3-.2.6-.3 1-.3.8 0 1.4.5 1.4 1.4 0 .9-.8 1.8-1.4 2.6h1.7v.5h-2.8z"/></svg>