<svg id="Layer_1" xmlns="http://www.w3.org/2000/svg" viewBox="0 0 320 50"><style>.st0{fill:#f9e039}</style><path class="st0" d="M86.7 13.6c-.4-.2-1-.4-1.7-.4-1.5 0-2.7 1-2.7 2.5s1.2 2.5 2.7 2.5c.7 0 1.3-.1 1.7-.4l-.2 1.8c-.4.2-1 .3-1.9.3-2.1 0-4.4-1.5-4.4-4.3s2.3-4.3 4.4-4.3c1 0 1.8.2 2.3.5l-.2 1.8zM92 20.1c-.4-.1-.8-.4-.9-.8-.3.5-.8.7-1.5.7-1 0-2-.7-2-1.9 0-1.1.8-1.8 2-1.9l1.2-.1v-.2c0-.4-.3-.6-.9-.6-.6 0-1.2.2-1.6.5l-.3-1.4c.5-.3 1.3-.5 2.1-.5 1.6 0 2.7.7 2.7 2.1v1.9c0 .7.3 1.1.7 1.2l-1.5 1zm-1.3-2.9l-.7.1c-.5 0-.7.4-.7.7 0 .3.2.6.6.6.5 0 .8-.4.8-.9v-.5zM95.8 20.1c-1.2-.1-2-.7-2-2.1v-7.4h1.9v7.2c0 .5.3.7.8.8l-.7 1.5zM101.5 15.8c-.4-.2-.8-.4-1.3-.4-.8 0-1.5.6-1.5 1.5 0 .8.7 1.5 1.5 1.5.5 0 .9-.1 1.3-.3l-.2 1.6c-.4.2-.9.3-1.4.3-1.7 0-3.2-1.2-3.2-3.1 0-1.9 1.5-3.1 3.1-3.1.8 0 1.4.2 1.9.4l-.2 1.6zM106.6 19.8V19c-.2.6-.9 1-1.8 1-1.3 0-2.1-.7-2.1-2v-4.1h1.9v3.6c0 .4.3.8.9.8.6 0 .9-.4.9-.8v-3.6h1.9v5.9h-1.7zM111.5 20.1c-1.2-.1-2-.7-2-2.1v-7.4h1.9v7.2c0 .5.3.7.8.8l-.7 1.5zM117.1 20.1c-.4-.1-.8-.4-.9-.8-.3.5-.8.7-1.5.7-1 0-2-.7-2-1.9 0-1.1.8-1.8 2-1.9l1.2-.1v-.2c0-.4-.3-.6-.9-.6-.6 0-1.2.2-1.6.5l-.3-1.4c.5-.3 1.3-.5 2.1-.5 1.6 0 2.7.7 2.7 2.1v1.9c0 .7.3 1.1.7 1.2l-1.5 1zm-1.3-2.9l-.7.1c-.5 0-.7.4-.7.7 0 .3.2.6.6.6.5 0 .8-.4.8-.9v-.5zM122.8 15.5h-1.5v2.2c0 .5.3.7.8.7.2 0 .4 0 .5-.1l-.2 1.4c-.2.1-.5.2-.9.2-1.3 0-2.1-.7-2.1-1.9v-2.5h-1v-1.6h1v-1.3l1.9-.7v2h1.9l-.4 1.6zM129 16.5l-.8.9h-2.9c.1.5.7 1 1.7 1 .6 0 1.2-.2 1.6-.4l-.2 1.6c-.4.2-1.1.4-1.9.4-1.8 0-3.2-1.2-3.2-3.2 0-1.9 1.4-3.1 3.1-3.1 1.6 0 2.6 1.1 2.6 2.4v.4zm-2.6-1.3c-.6 0-1 .4-1.1 1h2v-.1c-.1-.5-.4-.9-.9-.9zM136.2 19.2c-.9 2.4-1.8 3.2-2.9 3.7l-1.2-1.2c.9-.4 1.7-1.1 2.2-2.3l-2.1-5.5h1.8l.9 2.3c.1.3.3.7.4 1.2.1-.4.2-.8.4-1.2l.9-2.3h1.8l-2.2 5.3zM141.5 20c-1.8 0-3.2-1.3-3.2-3.1s1.4-3.1 3.2-3.1c1.8 0 3.2 1.3 3.2 3.1s-1.4 3.1-3.2 3.1zm0-4.6c-.7 0-1.3.6-1.3 1.5s.6 1.5 1.3 1.5c.7 0 1.3-.6 1.3-1.5s-.6-1.5-1.3-1.5zM149.5 19.8V19c-.2.6-.9 1-1.8 1-1.3 0-2.1-.7-2.1-2v-4.1h1.9v3.6c0 .4.3.8.9.8.6 0 .9-.4.9-.8v-3.6h1.9v5.9h-1.7zM156 16c-.1-.1-.4-.1-.6-.1-.6 0-1.2.3-1.2 1.3v2.7h-1.9V14h1.9v1.3c.2-.9.9-1.4 1.7-1.4.2 0 .4 0 .5.1l-.4 2zM161.9 20.1c-1.2-.1-2-.7-2-2.1v-7.4h1.9v7.2c0 .5.3.7.8.8l-.7 1.5zM164.2 13.1c-.3 0-1-.7-1-1 0-.3.7-1 1-1 .3 0 1 .7 1 1 0 .3-.7 1-1 1zm-1 6.7v-5.9h1.9v5.9h-1.9zM170.4 12.3c-.2-.1-.5-.2-.8-.2-.7 0-1.1.4-1.1 1.3v.6h1.7l-.4 1.6h-1.3v4.3h-1.8v-4.3h-.9V14h.9v-.7c0-1.8 1.2-2.7 2.6-2.7.5 0 1.1.1 1.4.2l-.3 1.5zM176.1 16.5l-.8.9h-2.9c.1.5.7 1 1.7 1 .6 0 1.2-.2 1.6-.4l-.2 1.6c-.4.2-1.1.4-1.9.4-1.8 0-3.2-1.2-3.2-3.2 0-1.9 1.4-3.1 3.1-3.1 1.6 0 2.6 1.1 2.6 2.4.1.1 0 .3 0 .4zm-2.6-1.3c-.6 0-1 .4-1.1 1h2v-.1c0-.5-.4-.9-.9-.9zM181 15.5h-1.5v2.2c0 .5.3.7.8.7.2 0 .4 0 .5-.1l-.2 1.4c-.2.1-.5.2-.9.2-1.3 0-2.1-.7-2.1-1.9v-2.5h-1v-1.6h1v-1.3l1.9-.7v2h1.9l-.4 1.6zM182.9 13.1c-.3 0-1-.7-1-1 0-.3.7-1 1-1 .3 0 1 .7 1 1 0 .3-.6 1-1 1zm-.9 6.7v-5.9h1.9v5.9H182zM192.3 19.8v-3.6c0-.4-.2-.8-.8-.8-.6 0-.9.4-.9.8v3.6h-1.9v-3.6c0-.4-.2-.8-.8-.8-.6 0-.9.4-.9.8v3.6h-2v-5.9h1.8v.8c.2-.6.8-1 1.7-1 .8 0 1.5.3 1.7 1 .2-.6.9-1 1.8-1 1.3 0 2.1.7 2.1 2v4.1h-1.8zM200.7 16.5l-.8.9H197c.1.5.7 1 1.7 1 .6 0 1.2-.2 1.6-.4l-.2 1.6c-.4.2-1.1.4-1.9.4-1.8 0-3.2-1.2-3.2-3.2 0-1.9 1.4-3.1 3.1-3.1 1.6 0 2.6 1.1 2.6 2.4.1.1.1.3 0 .4zm-2.6-1.3c-.6 0-1 .4-1.1 1h2v-.1c0-.5-.4-.9-.9-.9zM205.4 13.1c-.3 0-1-.7-1-1 0-.3.7-1 1-1 .3 0 1 .7 1 1 0 .3-.7 1-1 1zm-1 6.7v-5.9h1.9v5.9h-1.9zM211.2 19.8v-3.6c0-.4-.3-.8-.9-.8-.6 0-.9.4-.9.8v3.6h-1.9v-5.9h1.8v.8c.2-.6.8-1 1.8-1 1.3 0 2.1.7 2.1 2v4.1h-2zM218.7 15.8c-.4-.2-.8-.4-1.3-.4-.8 0-1.5.6-1.5 1.5 0 .8.7 1.5 1.5 1.5.5 0 .9-.1 1.3-.3l-.2 1.6c-.4.2-.9.3-1.4.3-1.7 0-3.2-1.2-3.2-3.1 0-1.9 1.5-3.1 3.1-3.1.8 0 1.4.2 1.9.4l-.2 1.6zM222.8 20c-1.8 0-3.2-1.3-3.2-3.1s1.4-3.1 3.2-3.1c1.8 0 3.2 1.3 3.2 3.1s-1.5 3.1-3.2 3.1zm0-4.6c-.7 0-1.3.6-1.3 1.5s.6 1.5 1.3 1.5c.7 0 1.3-.6 1.3-1.5s-.6-1.5-1.3-1.5zM234.1 19.8v-3.6c0-.4-.2-.8-.8-.8-.6 0-.9.4-.9.8v3.6h-1.9v-3.6c0-.4-.2-.8-.8-.8-.6 0-.9.4-.9.8v3.6h-1.9v-5.9h1.8v.8c.2-.6.8-1 1.7-1 .8 0 1.5.3 1.7 1 .2-.6.9-1 1.8-1 1.3 0 2.1.7 2.1 2v4.1h-1.9zM242.5 16.5l-.8.9h-2.9c.1.5.7 1 1.7 1 .6 0 1.2-.2 1.6-.4l-.2 1.6c-.4.2-1.1.4-1.9.4-1.8 0-3.2-1.2-3.2-3.2 0-1.9 1.4-3.1 3.1-3.1 1.6 0 2.6 1.1 2.6 2.4.1.1 0 .3 0 .4zm-2.6-1.3c-.6 0-1 .4-1.1 1h2v-.1c0-.5-.4-.9-.9-.9z"/><g><path class="st0" d="M126 27.1c-.3 0-1-.7-1-1 0-.3.7-1 1-1s1 .7 1 1c.1.3-.6 1-1 1zm-.9 6.7v-5.9h1.9v5.9h-1.9zM131.9 33.8v-3.6c0-.4-.3-.8-.9-.8-.6 0-.9.4-.9.8v3.6h-1.9v-5.9h1.8v.8c.2-.6.8-1 1.8-1 1.3 0 2.1.7 2.1 2v4.1h-2zM139.3 34c-.5 0-1.1-.1-1.6-.3l-.2-1.7c.4.2.9.4 1.4.4.8 0 1.4-.4 1.4-1.2 0-.6-.6-1.1-1.3-1.1h-.2l-.3-1.4c.7-.1 1.3-.5 1.3-1 0-.4-.3-.7-.8-.7s-.8.1-1.2.3l-.4-1.6c.4-.2 1.1-.4 1.8-.4 1.5 0 2.5.8 2.5 2 0 .9-.6 1.4-1.2 1.6.9.2 1.8 1 1.8 2.3.2 1.8-1.1 2.8-3 2.8zM146.3 34c-1.6 0-3-1.4-3-4.4 0-3 1.4-4.3 3-4.3s3 1.4 3 4.3c-.1 3-1.4 4.4-3 4.4zm0-7c-.6 0-1.1.9-1.1 2.7 0 1.8.5 2.7 1.1 2.7s1.1-.9 1.1-2.7c-.1-1.8-.6-2.7-1.1-2.7zM154.8 34c-.8 0-1.4-.2-1.9-.4l-.2-1.7c.5.4 1.2.6 1.8.6.4 0 .6-.2.6-.4s-.2-.4-.5-.5c-1.1-.3-1.8-.9-1.8-1.9 0-1.2.9-1.9 2.2-1.9.7 0 1.4.2 1.7.4l-.3 1.4c-.3-.2-.8-.3-1.2-.3-.3 0-.5.1-.5.4 0 .2.2.3.5.4 1.3.4 1.9 1 1.9 2 0 .9-.7 1.9-2.3 1.9zM163.3 30.5l-.8.9h-2.9c.1.5.7 1 1.7 1 .6 0 1.2-.2 1.6-.4l-.2 1.6c-.4.2-1.1.4-1.9.4-1.8 0-3.2-1.2-3.2-3.2 0-1.9 1.4-3.1 3.1-3.1 1.6 0 2.6 1.1 2.6 2.4.1.1 0 .3 0 .4zm-2.6-1.3c-.6 0-1 .4-1.1 1h2v-.1c0-.5-.4-.9-.9-.9zM168.6 29.8c-.4-.2-.8-.4-1.3-.4-.8 0-1.5.6-1.5 1.5 0 .8.7 1.5 1.5 1.5.5 0 .9-.1 1.3-.3l-.2 1.6c-.4.2-.9.3-1.4.3-1.7 0-3.2-1.2-3.2-3.1 0-1.9 1.5-3.1 3.1-3.1.8 0 1.4.2 1.9.4l-.2 1.6zM172.7 34c-1.8 0-3.2-1.3-3.2-3.1s1.4-3.1 3.2-3.1c1.8 0 3.2 1.3 3.2 3.1s-1.5 3.1-3.2 3.1zm0-4.6c-.7 0-1.3.6-1.3 1.5s.6 1.5 1.3 1.5c.7 0 1.3-.6 1.3-1.5s-.6-1.5-1.3-1.5zM180.5 33.8v-3.6c0-.4-.3-.8-.9-.8-.6 0-.9.4-.9.8v3.6h-1.9v-5.9h1.8v.8c.2-.6.8-1 1.8-1 1.3 0 2.1.7 2.1 2v4.1h-2zM187.9 33.8v-.7c-.3.6-1 .9-1.8.9-1.4 0-2.8-1.1-2.8-3.1 0-1.9 1.4-3.1 3-3.1.6 0 1.3.2 1.5.4v-3.6h1.9v9.3h-1.8zm-.2-3.8c-.2-.2-.6-.5-1.2-.5-.8 0-1.4.7-1.4 1.5s.6 1.5 1.4 1.5c.6 0 .9-.3 1.2-.6V30zM192.6 34c-.8 0-1.4-.2-1.9-.4l-.2-1.7c.5.4 1.2.6 1.8.6.4 0 .6-.2.6-.4s-.2-.4-.5-.5c-1.1-.3-1.8-.9-1.8-1.9 0-1.2.9-1.9 2.2-1.9.7 0 1.4.2 1.7.4l-.3 1.4c-.3-.2-.8-.3-1.2-.3-.3 0-.5.1-.5.4 0 .2.2.3.5.4 1.3.4 1.9 1 1.9 2 .1.9-.7 1.9-2.3 1.9zM196.7 34c-.4 0-1.1-.7-1.1-1.1 0-.3.7-1.1 1.1-1.1.4 0 1.1.7 1.1 1.1 0 .4-.7 1.1-1.1 1.1z"/></g></svg>