<svg id="Layer_1" xmlns="http://www.w3.org/2000/svg" viewBox="0 0 320 50"><style>.st0{fill:#f9e039}</style><path class="st0" d="M87.9 20l-2.2-3.3h-.5V20h-1.9v-8.3h3c1.4 0 2.7.9 2.7 2.5 0 1-.6 1.8-1.3 2.1l2.6 3.7h-2.4zm-2-6.6h-.8v1.9h.8c.5 0 1-.3 1-.9.1-.7-.5-1-1-1zM95.7 16.8l-.8.9H92c.1.5.7 1 1.7 1 .6 0 1.2-.2 1.6-.4l-.2 1.6c-.4.2-1.1.4-1.9.4-1.8 0-3.2-1.2-3.2-3.2 0-1.9 1.4-3.1 3.1-3.1 1.6 0 2.6 1.1 2.6 2.4v.4zm-2.6-1.4c-.6 0-1 .4-1.1 1h2v-.1c0-.5-.4-.9-.9-.9zM100.7 20.3c-.4-.1-.8-.4-.9-.8-.3.5-.8.7-1.5.7-1 0-2-.7-2-1.9 0-1.1.8-1.8 2-1.9l1.2-.1V16c0-.4-.3-.6-.9-.6-.6 0-1.2.2-1.6.5l-.3-1.4c.5-.3 1.3-.5 2.1-.5 1.6 0 2.7.7 2.7 2.1V18c0 .7.3 1.1.7 1.2l-1.5 1.1zm-1.3-2.8l-.7.1c-.5 0-.7.4-.7.7 0 .3.2.6.6.6.5 0 .8-.4.8-.9v-.5zM106.9 20v-.7c-.3.6-1 .9-1.8.9-1.4 0-2.8-1.1-2.8-3.1 0-1.9 1.4-3.1 3-3.1.6 0 1.3.2 1.5.4v-3.6h1.9V20h-1.8zm-.2-3.8c-.2-.2-.6-.5-1.2-.5-.8 0-1.4.6-1.4 1.5 0 .8.6 1.5 1.4 1.5.6 0 .9-.3 1.2-.6v-1.9zM113.2 19.5c-.9 2.4-1.8 3.2-2.9 3.7l-1.2-1.2c.9-.4 1.7-1.1 2.2-2.3l-2.1-5.5h1.8l.9 2.3c.1.3.3.7.4 1.2.1-.4.2-.8.4-1.2l.9-2.3h1.8l-2.2 5.3zM122.6 15.7H121v2.2c0 .5.3.7.8.7.2 0 .4 0 .5-.1l-.2 1.4c-.2.1-.5.2-.9.2-1.3 0-2.1-.7-2.1-1.9v-2.5h-1v-1.6h1v-1.3l1.9-.7v2h1.9l-.3 1.6zM126.3 20.2c-1.8 0-3.2-1.3-3.2-3.1s1.4-3.1 3.2-3.1c1.8 0 3.2 1.3 3.2 3.1s-1.4 3.1-3.2 3.1zm0-4.6c-.7 0-1.3.6-1.3 1.5s.6 1.5 1.3 1.5c.7 0 1.3-.6 1.3-1.5s-.6-1.5-1.3-1.5zM135.8 23c-1.7 0-2.9-1-2.9-2.2 0-.9.6-1.4 1.2-1.6l-.8-.8c.1-.4.4-.7.7-.8-.4-.3-.9-.8-.9-1.6 0-1.2.9-2.1 2.4-2.1.4 0 .6.1.9.1.3.1.5.1.8.1.3 0 .7-.1.9-.2l.4 1.5c-.2.1-.5.2-.7.2.1.1.1.4.1.6 0 1-.8 1.8-1.9 1.9-.2 0-.4.1-.4.2s.1.1.2.2l.9.3c1.2.4 1.8 1 1.8 2.1.1 1.2-1 2.1-2.7 2.1zm.4-2.7l-.7-.2c-.5 0-.8.3-.8.8 0 .4.4.7 1 .7.7 0 1-.3 1-.6.1-.3-.1-.6-.5-.7zm-.5-5c-.4 0-.8.3-.8.7 0 .4.3.7.8.7.4 0 .8-.3.8-.7-.1-.3-.4-.7-.8-.7zM140.3 13.3c-.3 0-1-.7-1-1s.7-1 1-1 1 .7 1 1-.7 1-1 1zm-1 6.7v-5.9h1.9V20h-1.9zM145.5 20.1h-1.4l-2.3-5.9h1.8l.8 2.2c.1.3.2.8.3 1.1.1-.4.2-.8.3-1.1l.8-2.2h1.8l-2.1 5.9zM153.5 16.8l-.8.9h-2.9c.1.5.7 1 1.7 1 .6 0 1.2-.2 1.6-.4l-.2 1.6c-.4.2-1.1.4-1.9.4-1.8 0-3.2-1.2-3.2-3.2 0-1.9 1.4-3.1 3.1-3.1 1.6 0 2.6 1.1 2.6 2.4.1.1.1.2 0 .4zm-2.5-1.4c-.6 0-1 .4-1.1 1h2v-.1c-.1-.5-.4-.9-.9-.9zM160.8 19.5c-.9 2.4-1.8 3.2-2.9 3.7l-1.2-1.2c.9-.4 1.7-1.1 2.2-2.3l-2.1-5.5h1.8l.9 2.3c.1.3.3.7.4 1.2.1-.4.2-.8.4-1.2l.9-2.3h1.8l-2.2 5.3zM166.1 20.2c-1.8 0-3.2-1.3-3.2-3.1s1.4-3.1 3.2-3.1c1.8 0 3.2 1.3 3.2 3.1s-1.4 3.1-3.2 3.1zm0-4.6c-.7 0-1.3.6-1.3 1.5s.6 1.5 1.3 1.5c.7 0 1.3-.6 1.3-1.5s-.6-1.5-1.3-1.5zM174 20v-.8c-.2.6-.9 1-1.8 1-1.3 0-2.1-.7-2.1-2v-4.1h1.9v3.6c0 .4.3.8.9.8.6 0 .9-.4.9-.8v-3.6h1.9V20H174zM180.6 16.2c-.1-.1-.4-.1-.6-.1-.6 0-1.2.3-1.2 1.3V20h-1.9v-5.9h1.9v1.3c.2-.9.9-1.4 1.7-1.4.2 0 .4 0 .5.1l-.4 2.1zM188 16.2c-.1-.1-.4-.1-.6-.1-.6 0-1.2.3-1.2 1.3V20h-1.9v-5.9h1.9v1.3c.2-.9.9-1.4 1.7-1.4.2 0 .4 0 .5.1l-.4 2.1zM194.3 16.8l-.8.9h-2.9c.1.5.7 1 1.7 1 .6 0 1.2-.2 1.6-.4l-.2 1.6c-.4.2-1.1.4-1.9.4-1.8 0-3.2-1.2-3.2-3.2 0-1.9 1.4-3.1 3.1-3.1 1.6 0 2.6 1.1 2.6 2.4.1.1 0 .2 0 .4zm-2.6-1.4c-.6 0-1 .4-1.1 1h2v-.1c0-.5-.4-.9-.9-.9zM199.2 15.7h-1.5v2.2c0 .5.3.7.8.7.2 0 .4 0 .5-.1l-.2 1.4c-.2.1-.5.2-.9.2-1.3 0-2.1-.7-2.1-1.9v-2.5h-1v-1.6h1v-1.3l1.9-.7v2h1.9l-.4 1.6zM201.1 13.3c-.3 0-1-.7-1-1s.7-1 1-1c.3 0 1 .7 1 1s-.6 1-1 1zm-.9 6.7v-5.9h1.9V20h-1.9zM206.9 16.2c-.1-.1-.4-.1-.6-.1-.6 0-1.2.3-1.2 1.3V20h-1.9v-5.9h1.9v1.3c.2-.9.9-1.4 1.7-1.4.2 0 .4 0 .5.1l-.4 2.1zM213.2 16.8l-.8.9h-2.9c.1.5.7 1 1.7 1 .6 0 1.2-.2 1.6-.4l-.2 1.6c-.4.2-1.1.4-1.9.4-1.8 0-3.2-1.2-3.2-3.2 0-1.9 1.4-3.1 3.1-3.1 1.6 0 2.6 1.1 2.6 2.4v.4zm-2.6-1.4c-.6 0-1 .4-1.1 1h2v-.1c0-.5-.4-.9-.9-.9zM221.3 20v-3.6c0-.4-.2-.8-.8-.8-.6 0-.9.4-.9.8V20h-1.9v-3.6c0-.4-.2-.8-.8-.8-.6 0-.9.4-.9.8V20h-1.9v-5.9h1.8v.8c.2-.6.8-1 1.7-1 .8 0 1.5.3 1.7 1 .2-.6.9-1 1.8-1 1.3 0 2.1.7 2.1 2V20h-1.9zM229.8 16.8l-.8.9h-3c.1.5.7 1 1.7 1 .6 0 1.2-.2 1.6-.4l-.2 1.6c-.4.2-1.1.4-1.9.4-1.8 0-3.2-1.2-3.2-3.2 0-1.9 1.4-3.1 3.1-3.1 1.6 0 2.6 1.1 2.6 2.4.1.1.1.2.1.4zm-2.6-1.4c-.6 0-1 .4-1.1 1h2v-.1c-.1-.5-.4-.9-.9-.9zM234.4 20v-3.6c0-.4-.3-.8-.9-.8-.6 0-.9.4-.9.8V20h-1.9v-5.9h1.8v.8c.2-.6.8-1 1.8-1 1.3 0 2.1.7 2.1 2V20h-2zM241.3 15.7h-1.5v2.2c0 .5.3.7.8.7.2 0 .4 0 .5-.1l-.2 1.4c-.2.1-.5.2-.9.2-1.3 0-2.1-.7-2.1-1.9v-2.5h-1v-1.6h1v-1.3l1.9-.7v2h1.9l-.4 1.6z"/><g><path class="st0" d="M103.9 34.2c-.8 0-1.4-.2-1.9-.4l-.2-1.7c.5.4 1.2.6 1.8.6.4 0 .6-.2.6-.4s-.2-.4-.5-.5c-1.1-.3-1.8-.9-1.8-1.9 0-1.2.9-1.9 2.2-1.9.7 0 1.4.2 1.7.4l-.3 1.4c-.3-.2-.8-.3-1.2-.3-.3 0-.5.1-.5.4 0 .2.2.3.5.4 1.3.4 1.9 1 1.9 2s-.7 1.9-2.3 1.9zM111.2 34.3c-.4-.1-.8-.4-.9-.8-.3.5-.8.7-1.5.7-1 0-2-.7-2-2 0-1.1.8-1.8 2-1.9l1.2-.1V30c0-.4-.3-.6-.9-.6-.6 0-1.2.2-1.6.5l-.3-1.4c.5-.3 1.3-.5 2.1-.5 1.6 0 2.7.7 2.7 2.1V32c0 .7.3 1.1.7 1.2l-1.5 1.1zm-1.2-2.8l-.7.1c-.5 0-.7.4-.7.7 0 .3.2.6.6.6.5 0 .8-.4.8-.9v-.5zM116 34.1h-1.4l-2.3-5.9h1.8l.8 2.2c.1.3.2.8.3 1.1.1-.4.2-.8.3-1.1l.8-2.2h1.8l-2.1 5.9zM119.9 27.3c-.3 0-1-.7-1-1 0-.3.7-1 1-1s1 .7 1 1c0 .4-.7 1-1 1zm-1 6.7v-5.9h1.9V34h-1.9zM125.7 34v-3.6c0-.4-.3-.8-.9-.8-.6 0-.9.4-.9.8V34H122v-5.9h1.8v.8c.2-.6.8-1 1.8-1 1.3 0 2.1.7 2.1 2V34h-2zM131.2 37c-1.7 0-2.9-1-2.9-2.2 0-.9.6-1.4 1.2-1.6l-.8-.8c.1-.4.4-.7.7-.8-.4-.3-.9-.8-.9-1.6 0-1.2.9-2.1 2.4-2.1.4 0 .6.1.9.1.3.1.5.1.8.1.3 0 .7-.1.9-.2l.4 1.5c-.2.1-.5.2-.7.2.1.1.1.4.1.6 0 1-.8 1.8-1.9 1.9-.2 0-.4.1-.4.2s.1.1.2.2l.9.3c1.2.4 1.8 1 1.8 2.1.1 1.2-1 2.1-2.7 2.1zm.4-2.7l-.7-.2c-.5 0-.8.3-.8.8 0 .4.4.7 1 .7.7 0 1-.3 1-.6.1-.3-.1-.6-.5-.7zm-.5-5c-.4 0-.8.3-.8.7 0 .4.3.7.8.7.4 0 .8-.3.8-.7 0-.3-.4-.7-.8-.7zM136.6 34.2c-.8 0-1.4-.2-1.9-.4l-.2-1.7c.5.4 1.2.6 1.8.6.4 0 .6-.2.6-.4s-.2-.4-.5-.5c-1.1-.3-1.8-.9-1.8-1.9 0-1.2.9-1.9 2.2-1.9.7 0 1.4.2 1.7.4l-.3 1.4c-.3-.2-.8-.3-1.2-.3-.3 0-.5.1-.5.4 0 .2.2.3.5.4 1.3.4 1.9 1 1.9 2s-.7 1.9-2.3 1.9zM146.7 34.3c-.4-.1-.8-.4-.9-.8-.3.5-.8.7-1.5.7-1 0-2-.7-2-2 0-1.1.8-1.8 2-1.9l1.2-.1V30c0-.4-.3-.6-.9-.6-.6 0-1.2.2-1.6.5l-.3-1.4c.5-.3 1.3-.5 2.1-.5 1.6 0 2.7.7 2.7 2.1V32c0 .7.3 1.1.7 1.2l-1.5 1.1zm-1.2-2.8l-.7.1c-.5 0-.7.4-.7.7 0 .3.2.6.6.6.5 0 .8-.4.8-.9v-.5zM157.9 34.1h-1.3l-.8-2.3c-.1-.4-.2-.8-.4-1.2-.1.4-.2.9-.3 1.2l-.8 2.4H153l-2.1-5.9h1.7l.7 2.2c.1.3.2.8.3 1.1.1-.4.2-.8.3-1.1l.7-2.2h1.4l.7 2.2c.1.4.2.8.3 1.1.1-.4.2-.8.3-1.1l.7-2.2h1.6l-1.7 5.8zM164.6 34.3c-.4-.1-.8-.4-.9-.8-.3.5-.8.7-1.5.7-1 0-2-.7-2-2 0-1.1.8-1.8 2-1.9l1.2-.1V30c0-.4-.3-.6-.9-.6-.6 0-1.2.2-1.6.5l-.3-1.4c.5-.3 1.3-.5 2.1-.5 1.6 0 2.7.7 2.7 2.1V32c0 .7.3 1.1.7 1.2l-1.5 1.1zm-1.2-2.8l-.7.1c-.5 0-.7.4-.7.7 0 .3.2.6.6.6.5 0 .8-.4.8-.9v-.5zM170.2 34l-1.7-2.4V34h-1.9v-9.3h1.9v5.8l1.8-2.4h2.1l-2.1 2.9 2.2 3h-2.3z"/><path class="st0" d="M178.1 30.8l-.8.9h-2.9c.1.5.7 1 1.7 1 .6 0 1.2-.2 1.6-.4l-.2 1.6c-.4.2-1.1.4-1.9.4-1.8 0-3.2-1.2-3.2-3.2 0-1.9 1.4-3.1 3.1-3.1 1.6 0 2.6 1.1 2.6 2.4v.4zm-2.6-1.4c-.6 0-1 .4-1.1 1h2v-.1c-.1-.5-.4-.9-.9-.9zM178.9 31.2v-1.5h3.4v1.5h-3.4zM187.3 34v-.8c-.2.6-.9 1-1.8 1-1.3 0-2.1-.7-2.1-2v-4.1h1.9v3.6c0 .4.3.8.9.8.6 0 .9-.4.9-.8v-3.6h1.9V34h-1.7zM193.5 34.2c-.6 0-1.3-.2-1.5-.4V37h-1.9v-8.9h1.7v.7c.3-.6 1-.9 1.8-.9 1.4 0 2.8 1.1 2.8 3.1.1 2-1.2 3.2-2.9 3.2zm-.3-4.6c-.6 0-.9.3-1.2.6V32c.2.2.6.5 1.2.5.8 0 1.4-.6 1.4-1.5 0-.7-.6-1.4-1.4-1.4zM204.6 30c-.4-.2-.8-.4-1.3-.4-.8 0-1.5.6-1.5 1.5 0 .8.7 1.5 1.5 1.5.5 0 .9-.1 1.3-.3l-.2 1.6c-.4.2-.9.3-1.4.3-1.7 0-3.2-1.2-3.2-3.1 0-1.9 1.5-3.1 3.1-3.1.8 0 1.4.2 1.9.4l-.2 1.6zM209.9 34.3c-.4-.1-.8-.4-.9-.8-.3.5-.8.7-1.5.7-1 0-2-.7-2-2 0-1.1.8-1.8 2-1.9l1.2-.1V30c0-.4-.3-.6-.9-.6-.6 0-1.2.2-1.6.5l-.3-1.4c.5-.3 1.3-.5 2.1-.5 1.6 0 2.7.7 2.7 2.1V32c0 .7.3 1.1.7 1.2l-1.5 1.1zm-1.2-2.8l-.7.1c-.5 0-.7.4-.7.7 0 .3.2.6.6.6.5 0 .8-.4.8-.9v-.5zM213.8 34.3c-1.2-.1-2-.7-2-2.1v-7.4h1.9V32c0 .5.3.7.8.8l-.7 1.5zM217.1 34.3c-1.2-.1-2-.7-2-2.1v-7.4h1.9V32c0 .5.3.7.8.8l-.7 1.5zM221.2 30c-.3.4-.5.7-.5 1 0 .2 0 .4.1.6l-1.6-.3c-.1-.3-.1-.5-.1-.7 0-.7.3-1.3.8-1.8.3-.4.5-.6.5-1 0-.3-.3-.6-.7-.6-.5 0-.9.2-1.3.4L218 26c.5-.3 1.1-.5 1.9-.5 1.5 0 2.5.9 2.5 2.2-.1.8-.4 1.4-1.2 2.3zm-1.1 4.2c-.4 0-1.1-.7-1.1-1.1 0-.3.7-1.1 1.1-1.1.4 0 1.1.7 1.1 1.1-.1.4-.8 1.1-1.1 1.1z"/></g></svg>