<?xml version="1.0" encoding="utf-8"?>
<!-- Generator: Adobe Illustrator 22.1.0, SVG Export Plug-In . SVG Version: 6.00 Build 0)  -->
<svg version="1.1" id="Layer_1" xmlns="http://www.w3.org/2000/svg" xmlns:xlink="http://www.w3.org/1999/xlink" x="0px" y="0px"
	 viewBox="0 0 160 600" style="enable-background:new 0 0 160 600;" xml:space="preserve">
<style type="text/css">
	.st0{fill:#3F2718;}
	.st1{fill:#FFDD15;}
	.st2{fill:#E01B22;}
	.st3{fill:#FFFFFF;}
</style>
<path class="st0" d="M125.2,367.9L125.2,367.9c-0.4,0.5-1.1,0.5-1.6,0.1l-9-8c-0.5-0.4-0.5-1.1-0.1-1.6c0.4-0.5,1.1-0.5,1.6-0.1l9,8
	C125.5,366.7,125.6,367.4,125.2,367.9"/>
<rect x="110.7" y="366.1" transform="matrix(0.7071 -0.7071 0.7071 0.7071 -225.4708 189.284)" class="st0" width="10" height="1.4"/>
<rect x="154.7" y="325.5" class="st0" width="1.4" height="35.9"/>
<path class="st1" d="M157.8,324.1c0,1.3-1.1,2.4-2.4,2.4c-1.3,0-2.4-1.1-2.4-2.4c0-1.3,1.1-2.4,2.4-2.4
	C156.8,321.6,157.8,322.7,157.8,324.1"/>
<path class="st1" d="M144.4,373.8L144.4,373.8c-1.5-0.7-2.2-2.5-1.5-4l6.5-14.5c0.7-1.5,2.5-2.2,4-1.5c1.5,0.7,2.2,2.5,1.5,4
	l-6.5,14.5C147.7,373.8,145.9,374.5,144.4,373.8"/>
<path class="st2" d="M156.4,357.4c-6,3.8-7.5,13.1-7.5,13.1h-27.8c-6.8,0-8-6.2-8-6.2c-1.9-9.8-9.4-13.8-12.2-15
	c-9.1,7.1-14.9,18.1-14.9,30.5c0,2.4,0.2,4.7,0.6,7h76.2c0.4-2.3,0.6-4.6,0.6-7C163.6,371.5,160.9,363.7,156.4,357.4"/>
<path class="st0" d="M166.6,395.9H83c-3.2,0-5.8-2.6-5.8-5.8c0-3.2,2.6-5.8,5.8-5.8h83.6c3.2,0,5.8,2.6,5.8,5.8
	C172.5,393.3,169.8,395.9,166.6,395.9"/>
<path class="st3" d="M151.4,372.4h-37.6c-0.7,0-1.3-0.6-1.3-1.3s0.6-1.3,1.3-1.3h37.6c0.7,0,1.3,0.6,1.3,1.3
	S152.1,372.4,151.4,372.4"/>
</svg>
