<?xml version="1.0" encoding="utf-8"?>
<!-- Generator: Adobe Illustrator 22.1.0, SVG Export Plug-In . SVG Version: 6.00 Build 0)  -->
<svg version="1.1" id="Layer_1" xmlns="http://www.w3.org/2000/svg" xmlns:xlink="http://www.w3.org/1999/xlink" x="0px" y="0px"
	 viewBox="0 0 160 600" style="enable-background:new 0 0 160 600;" xml:space="preserve">
<style type="text/css">
	.st0{fill:#3F2718;}
	.st1{fill:#FFDD15;}
	.st2{fill:#E01B22;}
	.st3{fill:#FFFFFF;}
</style>
<path class="st0" d="M54.3,356.2L54.3,356.2c0.4,0.5,1.1,0.5,1.6,0.1l9-8c0.5-0.4,0.5-1.1,0.1-1.6c-0.4-0.5-1.1-0.5-1.6-0.1l-9,8
	C53.9,355,53.9,355.8,54.3,356.2"/>
<rect x="63" y="350.1" transform="matrix(0.7071 -0.7071 0.7071 0.7071 -232.4872 149.0713)" class="st0" width="1.4" height="10"/>
<rect x="23.3" y="313.9" class="st0" width="1.4" height="35.9"/>
<path class="st1" d="M21.6,312.4c0,1.3,1.1,2.4,2.4,2.4c1.3,0,2.4-1.1,2.4-2.4c0-1.3-1.1-2.4-2.4-2.4
	C22.7,310,21.6,311.1,21.6,312.4"/>
<path class="st1" d="M35.1,362.2L35.1,362.2c1.5-0.7,2.2-2.5,1.5-4L30,343.6c-0.7-1.5-2.5-2.2-4-1.5c-1.5,0.7-2.2,2.5-1.5,4
	l6.5,14.5C31.7,362.2,33.5,362.8,35.1,362.2"/>
<path class="st2" d="M23,345.8c6,3.8,7.5,13.1,7.5,13.1h27.8c6.8,0,8-6.2,8-6.2c1.9-9.8,9.4-13.8,12.2-15
	c9.1,7.1,14.9,18.1,14.9,30.5c0,2.4-0.2,4.7-0.6,7H16.5c-0.4-2.3-0.6-4.6-0.6-7C15.9,359.8,18.5,352.1,23,345.8"/>
<path class="st0" d="M12.8,384.2h83.6c3.2,0,5.8-2.6,5.8-5.8c0-3.2-2.6-5.8-5.8-5.8H12.8c-3.2,0-5.8,2.6-5.8,5.8
	C7,381.6,9.6,384.2,12.8,384.2"/>
<path class="st3" d="M28,360.7h37.6c0.7,0,1.3-0.6,1.3-1.3s-0.6-1.3-1.3-1.3H28c-0.7,0-1.3,0.6-1.3,1.3S27.3,360.7,28,360.7"/>
</svg>
