<?xml version="1.0" encoding="utf-8"?>
<!-- Generator: Adobe Illustrator 22.1.0, SVG Export Plug-In . SVG Version: 6.00 Build 0)  -->
<svg version="1.1" id="Layer_1" xmlns="http://www.w3.org/2000/svg" xmlns:xlink="http://www.w3.org/1999/xlink" x="0px" y="0px"
	 viewBox="0 0 160 600" style="enable-background:new 0 0 160 600;" xml:space="preserve">
<style type="text/css">
	.st0{fill:#B9E0D3;}
	.st1{fill:#FFFDF6;}
	.st2{fill:#898F94;}
</style>
<rect x="51.5" y="63.8" class="st0" width="77.2" height="39.5"/>
<path class="st1" d="M127.4,102.7H52.9V65.1h74.5V102.7z M51.1,104.4h78.1V63.3H51.1V104.4z"/>
<path class="st2" d="M91.4,81.8H57.3c-0.4,0-0.7-0.3-0.7-0.7c0-0.4,0.3-0.7,0.7-0.7h34.1c0.4,0,0.7,0.3,0.7,0.7
	C92.1,81.5,91.8,81.8,91.4,81.8"/>
<path class="st2" d="M86.1,93.1H57.3c-0.4,0-0.7-0.3-0.7-0.7s0.3-0.7,0.7-0.7h28.7c0.4,0,0.7,0.3,0.7,0.7S86.5,93.1,86.1,93.1"/>
<path class="st2" d="M120.7,93.1H92c-0.4,0-0.7-0.3-0.7-0.7s0.3-0.7,0.7-0.7h28.7c0.4,0,0.7,0.3,0.7,0.7S121.1,93.1,120.7,93.1"/>
<path class="st2" d="M120.7,88H57.3c-0.4,0-0.7-0.3-0.7-0.7c0-0.4,0.3-0.7,0.7-0.7h63.4c0.4,0,0.7,0.3,0.7,0.7
	C121.4,87.7,121.1,88,120.7,88"/>
<path class="st2" d="M120.9,73.7h-20.7c-0.4,0-0.7-0.3-0.7-0.7c0-0.4,0.3-0.7,0.7-0.7h20.7c0.4,0,0.7,0.3,0.7,0.7
	C121.6,73.4,121.3,73.7,120.9,73.7"/>
<path class="st2" d="M77.9,73H57.1c-0.4,0-0.7-0.3-0.7-0.7c0-0.4,0.3-0.7,0.7-0.7h20.7c0.4,0,0.7,0.3,0.7,0.7
	C78.6,72.7,78.3,73,77.9,73"/>
<path class="st2" d="M77.9,76.6H57.1c-0.4,0-0.7-0.3-0.7-0.7c0-0.4,0.3-0.7,0.7-0.7h20.7c0.4,0,0.7,0.3,0.7,0.7
	C78.6,76.3,78.3,76.6,77.9,76.6"/>
<rect x="100.4" y="76.7" class="st1" width="21.4" height="6"/>
<path class="st2" d="M99,79.7c-0.1-0.1-0.2-0.2-0.4-0.3c-0.2-0.1-0.4-0.2-0.6-0.3c-0.3-0.1-0.4-0.2-0.5-0.3
	c-0.1-0.1-0.1-0.2-0.1-0.3c0-0.1,0-0.2,0.1-0.3c0.1-0.1,0.2-0.1,0.4-0.1c0.2,0,0.4,0.1,0.6,0.4c0,0,0,0,0.1,0.1c0,0,0.1,0,0.1,0
	l0.6-0.3c0.1,0,0.1-0.1,0-0.2c-0.1-0.3-0.3-0.5-0.5-0.6c-0.1-0.1-0.3-0.2-0.5-0.2v-0.5c0-0.1,0-0.1-0.1-0.1h-0.5
	c-0.1,0-0.1,0-0.1,0.1v0.5c-0.1,0-0.3,0.1-0.4,0.2c-0.1,0.1-0.3,0.2-0.4,0.3c-0.1,0.1-0.2,0.2-0.2,0.4c-0.1,0.1-0.1,0.3-0.1,0.4
	c0,0.3,0.1,0.6,0.3,0.9c0.1,0.2,0.4,0.3,0.8,0.5c0.2,0.1,0.3,0.2,0.5,0.2c0.1,0.1,0.2,0.1,0.3,0.2c0.1,0.1,0.2,0.2,0.2,0.4
	c0,0.2-0.1,0.3-0.2,0.5c-0.1,0.1-0.3,0.2-0.5,0.2c-0.2,0-0.4-0.1-0.5-0.2c-0.1-0.1-0.2-0.3-0.3-0.6c0-0.1-0.1-0.1-0.1-0.1l-0.7,0.1
	c0,0-0.1,0-0.1,0c0,0,0,0.1,0,0.1c0.1,0.5,0.3,0.8,0.5,1c0.2,0.2,0.5,0.3,0.9,0.4v0.5c0,0.1,0,0.1,0.1,0.1h0.5c0.1,0,0.1,0,0.1-0.1
	v-0.5c0.3-0.1,0.6-0.3,0.8-0.5c0.2-0.3,0.3-0.6,0.3-1C99.3,80.3,99.2,79.9,99,79.7"/>
</svg>
