<?xml version="1.0" encoding="utf-8"?>
<!-- Generator: Adobe Illustrator 22.1.0, SVG Export Plug-In . SVG Version: 6.00 Build 0)  -->
<svg version="1.1" id="Layer_1" xmlns="http://www.w3.org/2000/svg" xmlns:xlink="http://www.w3.org/1999/xlink" x="0px" y="0px"
	 viewBox="0 0 160 600" style="enable-background:new 0 0 160 600;" xml:space="preserve">
<style type="text/css">
	.st0{fill:#B8E0D2;}
	.st1{fill:#FFFDF6;}
	.st2{fill:#898F95;}
</style>
<rect x="32.3" y="319.1" transform="matrix(0.9461 -0.3239 0.3239 0.9461 -108.539 32.7933)" class="st0" width="24" height="46.8"/>
<path class="st1" d="M63.5,360.1l-23.6,8.1l-15.3-44.7l23.6-8.1L63.5,360.1z M47.5,316.8L26,324.1l14.6,42.7l21.5-7.4L47.5,316.8z"
	/>
<path class="st2" d="M45,340.7l6.7,19.5c0.1,0.2,0.3,0.3,0.5,0.3c0.2-0.1,0.3-0.3,0.3-0.5l-6.7-19.5c-0.1-0.2-0.3-0.3-0.5-0.3
	C45,340.2,44.9,340.4,45,340.7"/>
<path class="st2" d="M39.6,345.9l5.6,16.5c0.1,0.2,0.3,0.3,0.5,0.3c0.2-0.1,0.3-0.3,0.3-0.5l-5.6-16.5c-0.1-0.2-0.3-0.3-0.5-0.3
	C39.6,345.5,39.5,345.7,39.6,345.9"/>
<path class="st2" d="M32.8,326.1l5.6,16.5c0.1,0.2,0.3,0.3,0.5,0.3c0.2-0.1,0.3-0.3,0.3-0.5l-5.6-16.5c-0.1-0.2-0.3-0.3-0.5-0.3
	C32.8,325.6,32.7,325.8,32.8,326.1"/>
<path class="st2" d="M35.7,325.1l12.4,36.3c0.1,0.2,0.3,0.3,0.5,0.3c0.2-0.1,0.3-0.3,0.3-0.5l-12.4-36.3c-0.1-0.2-0.3-0.3-0.5-0.3
	C35.7,324.6,35.6,324.8,35.7,325.1"/>
<path class="st2" d="M43.8,322.2l4.1,11.9c0.1,0.2,0.3,0.3,0.5,0.3c0.2-0.1,0.3-0.3,0.3-0.5l-4.1-11.9c-0.1-0.2-0.3-0.3-0.5-0.3
	C43.9,321.7,43.7,322,43.8,322.2"/>
<path class="st2" d="M52.7,346.7l4.1,11.9c0.1,0.2,0.3,0.3,0.5,0.3s0.3-0.3,0.3-0.5l-4.1-11.9c-0.1-0.2-0.3-0.3-0.5-0.3
	C52.7,346.2,52.6,346.5,52.7,346.7"/>
<path class="st2" d="M50.6,347.4l4.1,11.9c0.1,0.2,0.3,0.3,0.5,0.3c0.2-0.1,0.3-0.3,0.3-0.5l-4.1-11.9c-0.1-0.2-0.3-0.3-0.5-0.3
	C50.7,346.9,50.6,347.2,50.6,347.4"/>
<rect x="40.5" y="322.5" transform="matrix(0.9461 -0.3239 0.3239 0.9461 -104.2833 31.4521)" class="st1" width="3.6" height="13"/>
<path class="st2" d="M44.7,335.9c0.1,0,0.2,0.1,0.2,0.2c0.1,0.1,0.2,0.2,0.3,0.3c0.1,0.1,0.2,0.2,0.3,0.2c0.1,0,0.1,0,0.2,0
	c0.1,0,0.1-0.1,0.2-0.1c0-0.1,0-0.1,0-0.2c0-0.1-0.2-0.2-0.4-0.3c0,0,0,0,0,0c0,0,0,0,0,0l0.1-0.4c0,0,0-0.1,0.1-0.1
	c0.2,0,0.3,0.1,0.4,0.1c0.1,0.1,0.2,0.1,0.2,0.3l0.3-0.1c0,0,0.1,0,0.1,0l0.1,0.3c0,0,0,0.1,0,0.1l-0.3,0.1c0,0.1,0,0.2,0,0.3
	c0,0.1-0.1,0.2-0.1,0.3c0,0.1-0.1,0.1-0.2,0.2c-0.1,0.1-0.1,0.1-0.2,0.1c-0.2,0.1-0.4,0.1-0.6,0c-0.1,0-0.3-0.2-0.5-0.4
	c-0.1-0.1-0.2-0.2-0.2-0.2c-0.1-0.1-0.1-0.1-0.2-0.1c-0.1,0-0.2,0-0.3,0c-0.1,0-0.2,0.1-0.2,0.2c0,0.1,0,0.2,0,0.3
	c0,0.1,0.1,0.2,0.2,0.2c0.1,0,0.2,0.1,0.4,0.1c0,0,0.1,0,0.1,0.1l0.1,0.4c0,0,0,0,0,0.1c0,0,0,0,0,0c-0.3,0-0.5,0-0.7-0.1
	c-0.2-0.1-0.3-0.2-0.4-0.4l-0.3,0.1c0,0-0.1,0-0.1,0l-0.1-0.3c0,0,0-0.1,0-0.1l0.3-0.1c0-0.2,0-0.4,0.2-0.6c0.1-0.2,0.3-0.3,0.5-0.4
	C44.3,335.8,44.5,335.8,44.7,335.9"/>
</svg>
