<?xml version="1.0" encoding="utf-8"?>
<!-- Generator: Adobe Illustrator 22.1.0, SVG Export Plug-In . SVG Version: 6.00 Build 0)  -->
<svg version="1.1" id="Layer_1" xmlns="http://www.w3.org/2000/svg" xmlns:xlink="http://www.w3.org/1999/xlink" x="0px" y="0px"
	 viewBox="0 0 160 600" style="enable-background:new 0 0 160 600;" xml:space="preserve">
<style type="text/css">
	.st0{fill:#B8E0D2;}
	.st1{fill:#FFFDF6;}
	.st2{fill:#898F95;}
</style>
<rect x="108.6" y="335.7" transform="matrix(0.3239 -0.9461 0.9461 0.3239 -239.6514 359.9132)" class="st0" width="46.8" height="24"/>
<path class="st1" d="M112.8,365.3l23.6,8.1l15.3-44.7l-23.6-8.1L112.8,365.3z M128.7,322l21.5,7.4L135.6,372l-21.5-7.4L128.7,322z"
	/>
<path class="st2" d="M131.3,345.9l-6.7,19.5c-0.1,0.2-0.3,0.3-0.5,0.3c-0.2-0.1-0.3-0.3-0.3-0.5l6.7-19.5c0.1-0.2,0.3-0.3,0.5-0.3
	C131.2,345.4,131.3,345.6,131.3,345.9"/>
<path class="st2" d="M136.7,351.1l-5.6,16.5c-0.1,0.2-0.3,0.3-0.5,0.3c-0.2-0.1-0.3-0.3-0.3-0.5l5.6-16.5c0.1-0.2,0.3-0.3,0.5-0.3
	C136.6,350.6,136.7,350.9,136.7,351.1"/>
<path class="st2" d="M143.5,331.2l-5.6,16.5c-0.1,0.2-0.3,0.3-0.5,0.3c-0.2-0.1-0.3-0.3-0.3-0.5l5.6-16.5c0.1-0.2,0.3-0.3,0.5-0.3
	C143.4,330.8,143.5,331,143.5,331.2"/>
<path class="st2" d="M140.6,330.3l-12.4,36.3c-0.1,0.2-0.3,0.3-0.5,0.3c-0.2-0.1-0.3-0.3-0.3-0.5l12.4-36.3c0.1-0.2,0.3-0.3,0.5-0.3
	C140.5,329.8,140.7,330,140.6,330.3"/>
<path class="st2" d="M132.4,327.4l-4.1,11.9c-0.1,0.2-0.3,0.3-0.5,0.3c-0.2-0.1-0.3-0.3-0.3-0.5l4.1-11.9c0.1-0.2,0.3-0.3,0.5-0.3
	C132.4,326.9,132.5,327.1,132.4,327.4"/>
<path class="st2" d="M123.6,351.9l-4.1,11.9c-0.1,0.2-0.3,0.3-0.5,0.3c-0.2-0.1-0.3-0.3-0.3-0.5l4.1-11.9c0.1-0.2,0.3-0.3,0.5-0.3
	C123.5,351.4,123.6,351.7,123.6,351.9"/>
<path class="st2" d="M125.6,352.6l-4.1,11.9c-0.1,0.2-0.3,0.3-0.5,0.3c-0.2-0.1-0.3-0.3-0.3-0.5l4.1-11.9c0.1-0.2,0.3-0.3,0.5-0.3
	C125.6,352.1,125.7,352.4,125.6,352.6"/>
<rect x="127.4" y="332.4" transform="matrix(0.3239 -0.9461 0.9461 0.3239 -225.6241 352.6066)" class="st1" width="13" height="3.6"/>
<path class="st2" d="M131.5,341.1c-0.1,0-0.2,0.1-0.2,0.2c-0.1,0.1-0.2,0.2-0.3,0.3c-0.1,0.1-0.2,0.2-0.3,0.2c-0.1,0-0.1,0-0.2,0
	c-0.1,0-0.1-0.1-0.2-0.1c0-0.1,0-0.1,0-0.2c0-0.1,0.2-0.2,0.4-0.3c0,0,0,0,0,0c0,0,0,0,0,0l-0.1-0.4c0,0,0-0.1-0.1-0.1
	c-0.2,0-0.3,0.1-0.4,0.1c-0.1,0.1-0.2,0.1-0.2,0.3l-0.3-0.1c0,0-0.1,0-0.1,0l-0.1,0.3c0,0,0,0.1,0,0.1l0.3,0.1c0,0.1,0,0.2,0,0.3
	c0,0.1,0.1,0.2,0.1,0.3c0,0.1,0.1,0.1,0.2,0.2c0.1,0.1,0.1,0.1,0.2,0.1c0.2,0.1,0.4,0.1,0.6,0c0.1,0,0.3-0.2,0.5-0.4
	c0.1-0.1,0.2-0.2,0.2-0.2c0.1-0.1,0.1-0.1,0.2-0.1c0.1,0,0.2,0,0.3,0c0.1,0,0.2,0.1,0.2,0.2c0,0.1,0,0.2,0,0.3
	c0,0.1-0.1,0.2-0.2,0.2c-0.1,0-0.2,0.1-0.4,0.1c0,0-0.1,0-0.1,0.1l-0.1,0.4c0,0,0,0,0,0.1c0,0,0,0,0,0c0.3,0,0.5,0,0.7-0.1
	c0.2-0.1,0.3-0.2,0.4-0.4l0.3,0.1c0,0,0.1,0,0.1,0l0.1-0.3c0,0,0-0.1,0-0.1l-0.3-0.1c0-0.2,0-0.4-0.2-0.6c-0.1-0.2-0.3-0.3-0.5-0.4
	C131.9,341,131.7,341,131.5,341.1"/>
</svg>
