<?xml version="1.0" encoding="utf-8"?>
<!-- Generator: Adobe Illustrator 22.1.0, SVG Export Plug-In . SVG Version: 6.00 Build 0)  -->
<svg version="1.1" id="Layer_1" xmlns="http://www.w3.org/2000/svg" xmlns:xlink="http://www.w3.org/1999/xlink" x="0px" y="0px"
	 viewBox="0 0 160 600" style="enable-background:new 0 0 160 600;" xml:space="preserve">
<g>
	<path d="M128.4,584.7h-0.8l1.9-4.5h-2.3v-0.6h3.4L128.4,584.7z"/>
	<path d="M132.1,584.9l-0.7-0.3c1-0.5,1.7-1.2,2.1-2c-0.2,0.2-0.5,0.3-0.8,0.3c-1,0-1.6-0.7-1.6-1.6c0-1,0.7-1.7,1.7-1.7
		c0.9,0,1.7,0.6,1.7,1.8C134.4,582.7,133.4,584.2,132.1,584.9z M132.7,580.2c-0.5,0-0.9,0.4-0.9,1c0,0.6,0.4,1,1,1
		c0.4,0,0.8-0.2,1-0.7c0-0.1,0-0.2,0-0.2C133.7,580.7,133.2,580.2,132.7,580.2z"/>
	<path d="M137.8,583.4v1.4h-0.7v-1.4h-2l-0.1-0.6l2.4-3.2h0.5v3.1h0.6v0.6H137.8z M137.1,580.9c-0.1,0.2-0.3,0.4-0.5,0.6l-0.9,1.2
		h1.4v-1.2C137.1,581.3,137.1,581.1,137.1,580.9L137.1,580.9z"/>
	<path d="M140.3,584.8c-0.4,0-0.8-0.1-1-0.2l-0.1-0.7c0.3,0.2,0.7,0.3,1,0.3c0.6,0,1.1-0.4,1.1-1c0-0.7-0.5-1-1.1-1
		c-0.4,0-0.6,0-0.9,0.1l0.1-2.6h2.2l-0.1,0.6h-1.4l0,1.2c0.1,0,0.1,0,0.2,0c1,0,1.7,0.6,1.7,1.7C142.1,584,141.4,584.8,140.3,584.8z
		"/>
	<path d="M143.7,584.8c-0.3,0-0.6-0.1-0.8-0.2l-0.1-0.7c0.3,0.1,0.6,0.2,0.9,0.2c0.6,0,1.2-0.3,1.2-1c0-0.5-0.5-1-1.1-1
		c0,0-0.1,0-0.1,0l-0.1-0.6c0.5-0.1,0.9-0.4,0.9-0.8c0-0.4-0.3-0.6-0.7-0.6c-0.3,0-0.5,0.1-0.8,0.2l-0.1-0.6c0.3-0.2,0.6-0.2,1-0.2
		c0.8,0,1.4,0.5,1.4,1.2c0,0.6-0.4,0.9-0.7,1c0.6,0.1,1.1,0.6,1.1,1.5C145.5,584.1,144.9,584.8,143.7,584.8z"/>
	<path d="M147.1,584.7h-0.8l1.9-4.5h-2.3v-0.6h3.4L147.1,584.7z"/>
</g>
</svg>
