<?xml version="1.0" encoding="utf-8"?>
<!-- Generator: Adobe Illustrator 22.1.0, SVG Export Plug-In . SVG Version: 6.00 Build 0)  -->
<svg version="1.1" id="Layer_1" xmlns="http://www.w3.org/2000/svg" xmlns:xlink="http://www.w3.org/1999/xlink" x="0px" y="0px"
	 viewBox="0 0 160 600" style="enable-background:new 0 0 160 600;" xml:space="preserve">
<g>
	<path d="M23.9,50.6h-5.6V34h5.6c4.8,0,8.9,3.1,8.9,8.3C32.8,47.4,28.7,50.6,23.9,50.6z M23.6,37.3h-1.3v10h1.3c2.9,0,5.2-1.7,5.2-5
		S26.4,37.3,23.6,37.3z"/>
	<path d="M40.5,51c-3.6,0-6.4-2.5-6.4-6.3s2.9-6.3,6.4-6.3c3.5,0,6.4,2.5,6.4,6.3S44,51,40.5,51z M40.5,41.7c-1.4,0-2.7,1.2-2.7,3
		c0,1.7,1.2,3,2.7,3c1.4,0,2.7-1.2,2.7-3C43.1,43,41.9,41.7,40.5,41.7z"/>
	<path d="M56,50.6v-7.2c0-0.9-0.6-1.6-1.7-1.6c-1.1,0-1.9,0.7-1.9,1.7v7.2h-3.8V38.8H52v1.6h0c0.5-1.2,1.7-2,3.6-2
		c2.6,0,4.1,1.5,4.1,4v8.2H56z"/>
	<path d="M62.4,41.4l-1.2-0.2c0.9-1,1.6-2.5,1.7-3.7c-0.7-0.1-1.7-1.2-1.7-1.8c0-0.8,1.5-2.1,2.2-2.1c0.6,0,2.2,1.3,2.2,2.1
		C65.6,37.4,64,40,62.4,41.4z"/>
	<path d="M75,41.9h-3.1v4.4c0,1,0.5,1.4,1.6,1.4c0.4,0,0.7,0,1-0.2l-0.3,2.9c-0.4,0.2-1,0.3-1.8,0.3c-2.7,0-4.2-1.4-4.2-3.7v-5.1h-2
		v-3.1h2v-2.5l3.8-1.4v3.9h3.8L75,41.9z"/>
	<path d="M87.6,56.6c-3.4,0-5.7-2-5.7-4.4c0-1.8,1.2-2.9,2.4-3.2l-1.5-1.5c0.1-0.8,0.8-1.4,1.4-1.7c-0.9-0.5-1.7-1.7-1.7-3.1
		c0-2.5,1.8-4.2,4.9-4.2c0.7,0,1.2,0.1,1.7,0.2c0.5,0.1,1.1,0.2,1.7,0.2c0.6,0,1.3-0.2,1.8-0.4l0.7,2.9c-0.4,0.2-0.9,0.4-1.5,0.4
		c0.1,0.2,0.3,0.8,0.3,1.2c0,2-1.6,3.6-3.8,3.8c-0.5,0-0.8,0.1-0.8,0.4c0,0.1,0.1,0.3,0.3,0.4l1.8,0.6c2.3,0.8,3.6,2,3.6,4.2
		C93.3,54.8,91,56.6,87.6,56.6z M88.4,51.1L87,50.7c-0.9,0-1.6,0.7-1.6,1.5c0,0.8,0.7,1.5,2.1,1.5c1.4,0,2.1-0.6,2.1-1.3
		C89.6,51.8,89.2,51.3,88.4,51.1z M87.4,41.2c-0.9,0-1.5,0.6-1.5,1.4c0,0.8,0.7,1.4,1.5,1.4c0.8,0,1.5-0.6,1.5-1.4
		C88.9,41.9,88.3,41.2,87.4,41.2z"/>
	<path d="M105.3,44l-1.7,1.7h-5.8c0.2,1,1.5,2.1,3.5,2.1c1.2,0,2.5-0.4,3.3-0.9l-0.4,3.3c-0.9,0.5-2.2,0.8-3.7,0.8
		c-3.6,0-6.5-2.5-6.5-6.3c0-3.8,2.8-6.2,6.1-6.2c3.3,0,5.3,2.3,5.3,4.7C105.4,43.4,105.3,43.8,105.3,44z M100.1,41.3
		c-1.1,0-2.1,0.9-2.3,1.9h4c0-0.1,0-0.2,0-0.3C101.8,42.1,101.1,41.3,100.1,41.3z"/>
	<path d="M115,41.9h-3.1v4.4c0,1,0.5,1.4,1.6,1.4c0.4,0,0.7,0,1-0.2l-0.3,2.9c-0.4,0.2-1,0.3-1.8,0.3c-2.7,0-4.2-1.4-4.2-3.7v-5.1
		h-2v-3.1h2v-2.5l3.8-1.4v3.9h3.8L115,41.9z"/>
</g>
<g>
	<path d="M23.9,76.9c-2.5,0-4.5-0.9-5.7-1.7V58.1h3.7v7.2c0.5-0.4,1.7-0.8,3-0.8c3.2,0,5.9,2.3,5.9,6C30.8,74.1,28.5,76.9,23.9,76.9
		z M24.2,67.8c-1.1,0-1.9,0.5-2.3,0.9v4.5c0.4,0.3,1.2,0.6,1.9,0.6c2,0,3.2-1.3,3.2-3C27,69.1,25.9,67.8,24.2,67.8z"/>
	<path d="M36.6,77.1c-2.4-0.1-4-1.4-4-4.2V58.1h3.8v14.3c0,1,0.5,1.5,1.6,1.6L36.6,77.1z"/>
	<path d="M41.1,63.2c-0.7,0-2.1-1.4-2.1-2.1c0-0.7,1.4-2,2.1-2c0.7,0,2.1,1.4,2.1,2C43.2,61.8,41.8,63.2,41.1,63.2z M39.2,76.6V64.8
		H43v11.8H39.2z"/>
	<path d="M52.7,76.6v-7.2c0-0.9-0.6-1.6-1.7-1.6c-1.1,0-1.9,0.7-1.9,1.7v7.2h-3.8V64.8h3.5v1.6h0c0.5-1.2,1.7-2,3.6-2
		c2.6,0,4.1,1.5,4.1,4v8.2H52.7z"/>
	<path d="M67.5,76.6v-1.5h0c-0.6,1.2-2,1.8-3.6,1.8c-2.9,0-5.7-2.2-5.7-6.2c0-3.8,2.7-6.3,6-6.3c1.2,0,2.5,0.4,3,0.8v-7.2h3.7v18.5
		H67.5z M67.1,68.9c-0.4-0.5-1.1-1.1-2.3-1.1c-1.7,0-2.8,1.3-2.8,3s1.2,3,2.8,3c1.1,0,1.9-0.6,2.3-1.2V68.9z"/>
	<path d="M76.9,76.8c-1.6,0-2.8-0.3-3.7-0.8l-0.3-3.4c1,0.7,2.4,1.3,3.7,1.3c0.7,0,1.1-0.4,1.1-0.8c0-0.5-0.4-0.7-1.1-0.9
		c-2.3-0.6-3.6-1.8-3.6-3.8c0-2.3,1.9-3.8,4.4-3.8c1.5,0,2.9,0.4,3.5,0.7l-0.7,2.8c-0.6-0.3-1.5-0.6-2.4-0.6c-0.6,0-1,0.3-1,0.8
		c0,0.4,0.3,0.7,1,0.9c2.7,0.7,3.7,2,3.7,4C81.5,75,80,76.8,76.9,76.8z"/>
	<path d="M85.1,63.2c-0.7,0-2.1-1.4-2.1-2.1c0-0.7,1.4-2,2.1-2s2.1,1.4,2.1,2C87.1,61.8,85.7,63.2,85.1,63.2z M83.1,76.6V64.8H87
		v11.8H83.1z"/>
	<path d="M98,76.6v-1.5h0c-0.7,1.2-2,1.8-3.6,1.8c-2.9,0-5.7-2.2-5.7-6.2c0-3.8,2.7-6.3,6-6.3c1.2,0,2.5,0.4,3,0.8v-7.2h3.7v18.5H98
		z M97.6,68.9c-0.4-0.5-1.1-1.1-2.3-1.1c-1.7,0-2.8,1.3-2.8,3s1.2,3,2.8,3c1.1,0,1.9-0.6,2.3-1.2V68.9z"/>
	<path d="M114.3,70l-1.7,1.7h-5.8c0.2,1,1.5,2.1,3.5,2.1c1.2,0,2.5-0.4,3.2-0.9l-0.4,3.3c-0.9,0.5-2.2,0.8-3.7,0.8
		c-3.6,0-6.5-2.5-6.5-6.3c0-3.8,2.8-6.2,6.1-6.2c3.3,0,5.3,2.3,5.3,4.7C114.4,69.4,114.4,69.8,114.3,70z M109.1,67.3
		c-1.1,0-2.1,0.9-2.3,1.9h4c0-0.1,0-0.2,0-0.3C110.9,68.1,110.2,67.3,109.1,67.3z"/>
	<path d="M124.8,76.6v-1.5h0c-0.7,1.2-2,1.8-3.6,1.8c-2.9,0-5.7-2.2-5.7-6.2c0-3.8,2.7-6.3,6-6.3c1.2,0,2.5,0.4,3,0.8v-7.2h3.7v18.5
		H124.8z M124.4,68.9c-0.4-0.5-1.1-1.1-2.3-1.1c-1.7,0-2.8,1.3-2.8,3s1.2,3,2.8,3c1.1,0,1.9-0.6,2.3-1.2V68.9z"/>
</g>
<g>
	<path d="M23.9,102.9c-2.5,0-4.5-0.9-5.7-1.7V84.1h3.7v7.2c0.5-0.4,1.7-0.8,3-0.8c3.2,0,5.9,2.3,5.9,6
		C30.8,100.1,28.5,102.9,23.9,102.9z M24.2,93.8c-1.1,0-1.9,0.5-2.3,0.9v4.5c0.4,0.3,1.2,0.6,1.9,0.6c2,0,3.2-1.3,3.2-3
		C27,95.1,25.9,93.8,24.2,93.8z"/>
	<path d="M39.1,101.4c-1.8,4.7-3.7,6.4-5.9,7.3l-2.3-2.3c1.9-0.7,3.4-2.1,4.3-4.6l-4.2-11h3.7l1.7,4.6c0.3,0.7,0.5,1.5,0.7,2.3h0.1
		c0.2-0.8,0.5-1.6,0.8-2.3l1.7-4.6h3.5L39.1,101.4z"/>
	<path d="M57.8,93.9h-3.1v4.4c0,1,0.5,1.4,1.6,1.4c0.4,0,0.7,0,1-0.2l-0.3,2.9c-0.4,0.2-1,0.3-1.8,0.3c-2.7,0-4.2-1.4-4.2-3.7v-5.1
		h-2v-3.1h2v-2.5l3.8-1.4v3.9h3.8L57.8,93.9z"/>
	<path d="M67,102.6v-7.2c0-0.9-0.6-1.6-1.8-1.6c-1.1,0-1.8,0.7-1.8,1.7v7.2h-3.8V84.1h3.8v7.8h0c0.6-0.9,1.7-1.5,3.3-1.5
		c2.6,0,4.1,1.5,4.1,4v8.2H67z"/>
	<path d="M83.8,96l-1.7,1.7h-5.8c0.2,1,1.5,2.1,3.5,2.1c1.2,0,2.5-0.4,3.2-0.9l-0.4,3.3c-0.9,0.5-2.2,0.8-3.7,0.8
		c-3.6,0-6.5-2.5-6.5-6.3c0-3.8,2.8-6.2,6.1-6.2c3.3,0,5.3,2.3,5.3,4.7C83.9,95.4,83.8,95.8,83.8,96z M78.6,93.3
		c-1.1,0-2.1,0.9-2.3,1.9h4c0-0.1,0-0.2,0-0.3C80.3,94.1,79.6,93.3,78.6,93.3z"/>
</g>
<g>
	<path d="M32.7,128.6v-7.2c0-0.9-0.4-1.6-1.7-1.6c-1.2,0-1.8,0.7-1.8,1.7v7.2h-3.8v-7.2c0-0.9-0.4-1.6-1.7-1.6
		c-1.2,0-1.8,0.7-1.8,1.7v7.2h-3.8v-11.8h3.5v1.6h0c0.5-1.2,1.6-2,3.5-2c1.7,0,3,0.7,3.5,1.9c0.5-1.1,1.9-1.9,3.6-1.9
		c2.7,0,4.2,1.5,4.2,4v8.2H32.7z"/>
	<path d="M47,129.1c-0.7-0.2-1.5-0.7-1.8-1.6c-0.5,1-1.6,1.4-3.1,1.4c-2.1,0-3.9-1.5-3.9-3.9c0-2.2,1.7-3.6,4-3.8l2.3-0.2v-0.4
		c0-0.7-0.6-1.2-1.8-1.2c-1.1,0-2.4,0.4-3.3,0.9l-0.7-2.9c1-0.6,2.6-1,4.1-1c3.1,0,5.3,1.4,5.3,4.3v3.8c0,1.4,0.5,2.1,1.4,2.4
		L47,129.1z M44.5,123.4l-1.4,0.1c-1,0.1-1.4,0.8-1.4,1.5c0,0.6,0.5,1.1,1.2,1.1c0.9,0,1.7-0.7,1.7-1.7V123.4z"/>
	<path d="M58,120.9c-0.2-0.1-0.8-0.3-1.1-0.3c-1.2,0-2.3,0.6-2.3,2.5v5.5h-3.8v-11.8h3.8v2.6h0c0.4-1.8,1.8-2.8,3.4-2.8
		c0.4,0,0.8,0.1,1.1,0.2L58,120.9z"/>
	<path d="M67.2,128.6l-3.5-4.8h0v4.8H60v-18.5h3.8v11.5h0l3.5-4.8h4.2l-4.1,5.7l4.4,6.1H67.2z"/>
	<path d="M82.9,122l-1.7,1.7h-5.8c0.2,1,1.5,2.1,3.5,2.1c1.2,0,2.5-0.4,3.2-0.9l-0.4,3.3c-0.9,0.5-2.2,0.8-3.7,0.8
		c-3.6,0-6.5-2.5-6.5-6.3c0-3.8,2.8-6.2,6.1-6.2c3.3,0,5.3,2.3,5.3,4.7C83,121.4,82.9,121.8,82.9,122z M77.7,119.3
		c-1.1,0-2.1,0.9-2.3,1.9h4c0-0.1,0-0.2,0-0.3C79.4,120.1,78.7,119.3,77.7,119.3z"/>
	<path d="M92.6,119.9h-3.1v4.4c0,1,0.5,1.4,1.6,1.4c0.4,0,0.7,0,1-0.2l-0.3,2.9c-0.4,0.2-1,0.3-1.8,0.3c-2.7,0-4.2-1.4-4.2-3.7v-5.1
		h-2v-3.1h2v-2.5l3.8-1.4v3.9h3.8L92.6,119.9z"/>
	<path d="M98,128.8c-1.6,0-2.8-0.3-3.7-0.8l-0.3-3.4c1,0.7,2.4,1.3,3.7,1.3c0.7,0,1.1-0.4,1.1-0.8c0-0.5-0.4-0.7-1.1-0.9
		c-2.3-0.6-3.6-1.8-3.6-3.8c0-2.3,1.9-3.8,4.4-3.8c1.5,0,2.9,0.4,3.5,0.7l-0.7,2.8c-0.6-0.3-1.5-0.6-2.4-0.6c-0.6,0-1,0.3-1,0.8
		c0,0.4,0.3,0.7,1,0.9c2.7,0.7,3.7,2,3.7,4C102.6,127,101.1,128.8,98,128.8z"/>
	<path d="M106.1,129c-0.7,0-2.2-1.5-2.2-2.2c0-0.7,1.5-2.1,2.2-2.1s2.2,1.5,2.2,2.1C108.2,127.5,106.8,129,106.1,129z"/>
</g>
</svg>
