<?xml version="1.0" encoding="utf-8"?>
<!-- Generator: Adobe Illustrator 22.1.0, SVG Export Plug-In . SVG Version: 6.00 Build 0)  -->
<svg version="1.1" id="Layer_1" xmlns="http://www.w3.org/2000/svg" xmlns:xlink="http://www.w3.org/1999/xlink" x="0px" y="0px"
	 viewBox="0 0 160 600" style="enable-background:new 0 0 160 600;" xml:space="preserve">
<g>
	<path d="M25.9,341.3v10.2h-3.1v-10.2h-3.7v-2.5h10.4v2.5H25.9z"/>
	<path d="M35.1,345.6c-0.2-0.1-0.6-0.2-0.9-0.2c-0.9,0-1.8,0.5-1.8,1.9v4.2h-2.9v-9.1h2.9v2h0c0.3-1.4,1.4-2.2,2.6-2.2
		c0.3,0,0.6,0,0.8,0.1L35.1,345.6z"/>
	<path d="M42.7,350.6c-1.4,3.6-2.8,5-4.5,5.6l-1.8-1.8c1.5-0.6,2.6-1.6,3.3-3.5l-3.3-8.4h2.8l1.3,3.5c0.2,0.5,0.4,1.1,0.5,1.8h0
		c0.2-0.6,0.4-1.3,0.6-1.8l1.3-3.5h2.7L42.7,350.6z"/>
	<path d="M57.5,344.9h-2.4v3.4c0,0.8,0.4,1.1,1.2,1.1c0.3,0,0.5,0,0.8-0.1l-0.3,2.2c-0.3,0.1-0.8,0.2-1.4,0.2c-2,0-3.3-1.1-3.3-2.9
		v-3.9h-1.5v-2.4h1.5v-1.9l2.9-1.1v3H58L57.5,344.9z"/>
	<path d="M64.8,351.5V346c0-0.7-0.5-1.2-1.4-1.2c-0.9,0-1.4,0.6-1.4,1.3v5.5h-2.9v-14.2H62v6h0c0.5-0.7,1.3-1.1,2.6-1.1
		c2,0,3.2,1.1,3.2,3v6.3H64.8z"/>
	<path d="M77.9,346.5l-1.3,1.3h-4.4c0.1,0.7,1.1,1.6,2.7,1.6c0.9,0,1.9-0.3,2.5-0.7l-0.3,2.5c-0.7,0.4-1.7,0.6-2.9,0.6
		c-2.8,0-5-1.9-5-4.9c0-2.9,2.1-4.8,4.7-4.8c2.5,0,4.1,1.7,4.1,3.6C78,346,77.9,346.3,77.9,346.5z M73.9,344.4
		c-0.9,0-1.6,0.7-1.8,1.5h3.1c0-0.1,0-0.1,0-0.2C75.2,345,74.7,344.4,73.9,344.4z"/>
</g>
<g>
	<path d="M31.8,371.5l-0.4-4.7c-0.1-0.7-0.1-1.5-0.1-2.4h0c-0.3,0.8-0.7,1.7-1.1,2.4l-2.4,4.7h-1.2l-2.4-4.7
		c-0.4-0.7-0.8-1.6-1.1-2.4h0c0,0.8,0,1.7-0.1,2.3l-0.4,4.7h-2.9l1.1-12.8h2.6l2.8,5.4c0.4,0.8,0.9,1.9,1.3,2.7h0
		c0.3-0.8,0.8-1.9,1.2-2.7l2.8-5.4h2.4l1.1,12.8H31.8z"/>
	<path d="M41.8,370.6c-1.4,3.6-2.8,5-4.5,5.6l-1.8-1.8c1.5-0.6,2.6-1.6,3.3-3.5l-3.3-8.4h2.8l1.3,3.5c0.2,0.5,0.4,1.1,0.5,1.8h0
		c0.2-0.6,0.4-1.3,0.6-1.8l1.3-3.5h2.7L41.8,370.6z"/>
	<path d="M55.5,366.5h-1.9v5h-3v-12.8h4.9c2.2,0,4.1,1.5,4.1,3.9C59.6,365,57.7,366.5,55.5,366.5z M55,361.3h-1.4v2.9H55
		c0.8,0,1.6-0.4,1.6-1.4C56.6,361.8,55.8,361.3,55,361.3z"/>
	<path d="M68.9,366.5l-1.3,1.3h-4.4c0.1,0.7,1.1,1.6,2.7,1.6c0.9,0,1.9-0.3,2.5-0.7l-0.3,2.5c-0.7,0.4-1.7,0.6-2.9,0.6
		c-2.8,0-5-1.9-5-4.9c0-2.9,2.1-4.8,4.7-4.8c2.5,0,4.1,1.7,4.1,3.6C69,366,69,366.3,68.9,366.5z M65,364.4c-0.9,0-1.6,0.7-1.8,1.5
		h3.1c0-0.1,0-0.1,0-0.2C66.3,365,65.7,364.4,65,364.4z"/>
	<path d="M76.1,365.6c-0.2-0.1-0.6-0.2-0.9-0.2c-0.9,0-1.8,0.5-1.8,1.9v4.2h-2.9v-9.1h2.9v2h0c0.3-1.4,1.4-2.2,2.6-2.2
		c0.3,0,0.6,0,0.8,0.1L76.1,365.6z"/>
	<path d="M80.6,371.7c-1.2,0-2.1-0.3-2.9-0.6l-0.3-2.6c0.8,0.6,1.8,1,2.8,1c0.5,0,0.9-0.3,0.9-0.6c0-0.4-0.3-0.5-0.8-0.7
		c-1.7-0.5-2.8-1.4-2.8-3c0-1.8,1.4-2.9,3.4-2.9c1.1,0,2.2,0.3,2.7,0.5l-0.5,2.2c-0.4-0.2-1.2-0.5-1.9-0.5c-0.5,0-0.8,0.2-0.8,0.6
		c0,0.3,0.2,0.5,0.8,0.7c2,0.5,2.9,1.6,2.9,3.1C84.1,370.3,83,371.7,80.6,371.7z"/>
	<path d="M90,371.8c-2.7,0-4.9-1.9-4.9-4.8s2.2-4.8,4.9-4.8c2.7,0,4.9,1.9,4.9,4.8S92.8,371.8,90,371.8z M90,364.7c-1.1,0-2,1-2,2.3
		s0.9,2.3,2,2.3c1.1,0,2-1,2-2.3S91.1,364.7,90,364.7z"/>
	<path d="M102.2,371.5V366c0-0.7-0.4-1.2-1.3-1.2c-0.9,0-1.4,0.6-1.4,1.3v5.5h-2.9v-9.1h2.7v1.2h0c0.4-1,1.3-1.5,2.8-1.5
		c2,0,3.2,1.1,3.2,3v6.3H102.2z"/>
	<path d="M113.3,371.9c-0.5-0.1-1.2-0.5-1.4-1.2c-0.4,0.7-1.3,1.1-2.4,1.1c-1.6,0-3-1.1-3-3c0-1.7,1.3-2.8,3.1-3l1.8-0.2v-0.3
		c0-0.5-0.4-0.9-1.4-0.9c-0.9,0-1.9,0.3-2.5,0.7L107,363c0.7-0.5,2-0.8,3.2-0.8c2.4,0,4.1,1.1,4.1,3.3v3c0,1.1,0.4,1.6,1.1,1.9
		L113.3,371.9z M111.5,367.6l-1.1,0.1c-0.8,0.1-1.1,0.6-1.1,1.1c0,0.5,0.4,0.9,0.9,0.9c0.7,0,1.3-0.5,1.3-1.3V367.6z"/>
	<path d="M119.5,371.9c-1.9-0.1-3.1-1-3.1-3.2v-11.4h2.9v11c0,0.7,0.4,1.1,1.2,1.2L119.5,371.9z"/>
</g>
<g>
	<path d="M24.9,386.5H23v5h-3v-12.8h4.9c2.2,0,4.1,1.5,4.1,3.9C29,385,27.1,386.5,24.9,386.5z M24.4,381.3H23v2.9h1.4
		c0.8,0,1.6-0.4,1.6-1.4C26,381.8,25.2,381.3,24.4,381.3z"/>
	<path d="M38.3,386.5l-1.3,1.3h-4.4c0.1,0.7,1.1,1.6,2.7,1.6c0.9,0,1.9-0.3,2.5-0.7l-0.3,2.5c-0.7,0.4-1.7,0.6-2.9,0.6
		c-2.8,0-5-1.9-5-4.9c0-2.9,2.1-4.8,4.7-4.8c2.5,0,4.1,1.7,4.1,3.6C38.4,386,38.4,386.3,38.3,386.5z M34.3,384.4
		c-0.9,0-1.6,0.7-1.8,1.5h3.1c0-0.1,0-0.1,0-0.2C35.7,385,35.1,384.4,34.3,384.4z"/>
	<path d="M45.6,391.5V386c0-0.7-0.4-1.2-1.3-1.2c-0.9,0-1.4,0.6-1.4,1.3v5.5h-2.9v-9.1h2.7v1.2h0c0.4-1,1.3-1.5,2.8-1.5
		c2,0,3.2,1.1,3.2,3v6.3H45.6z"/>
	<path d="M53.3,391.7c-1.2,0-2.1-0.3-2.9-0.6l-0.3-2.6c0.8,0.6,1.8,1,2.8,1c0.5,0,0.9-0.3,0.9-0.6c0-0.4-0.3-0.5-0.8-0.7
		c-1.7-0.5-2.8-1.4-2.8-3c0-1.8,1.4-2.9,3.4-2.9c1.1,0,2.2,0.3,2.7,0.5l-0.5,2.2c-0.4-0.2-1.2-0.5-1.9-0.5c-0.5,0-0.8,0.2-0.8,0.6
		c0,0.3,0.2,0.5,0.8,0.7c2,0.5,2.9,1.6,2.9,3.1C56.9,390.3,55.7,391.7,53.3,391.7z"/>
	<path d="M59.8,381.2c-0.5,0-1.6-1.1-1.6-1.6c0-0.5,1.1-1.6,1.6-1.6s1.6,1,1.6,1.6C61.4,380.2,60.4,381.2,59.8,381.2z M58.4,391.5
		v-9.1h3v9.1H58.4z"/>
	<path d="M67.8,391.8c-2.7,0-4.9-1.9-4.9-4.8s2.2-4.8,4.9-4.8c2.7,0,4.9,1.9,4.9,4.8S70.5,391.8,67.8,391.8z M67.8,384.7
		c-1.1,0-2,1-2,2.3s0.9,2.3,2,2.3c1.1,0,2-1,2-2.3S68.8,384.7,67.8,384.7z"/>
	<path d="M79.9,391.5V386c0-0.7-0.4-1.2-1.3-1.2c-0.9,0-1.4,0.6-1.4,1.3v5.5h-2.9v-9.1h2.7v1.2h0c0.4-1,1.3-1.5,2.8-1.5
		c2,0,3.2,1.1,3.2,3v6.3H79.9z"/>
</g>
<g>
	<path d="M26.8,405.4c-0.6-0.4-1.2-0.6-1.9-0.6c-1.3,0-2.3,0.9-2.3,2.2c0,1.3,1,2.2,2.4,2.2c0.8,0,1.3-0.2,2-0.5l-0.3,2.5
		c-0.6,0.3-1.4,0.4-2.2,0.4c-2.5,0-4.9-1.8-4.9-4.7c0-3,2.4-4.7,4.8-4.7c1.2,0,2.2,0.2,3,0.7L26.8,405.4z"/>
	<path d="M35.1,411.9c-0.5-0.1-1.2-0.5-1.4-1.2c-0.4,0.7-1.3,1.1-2.4,1.1c-1.6,0-3-1.1-3-3c0-1.7,1.3-2.8,3.1-3l1.8-0.2v-0.3
		c0-0.5-0.4-0.9-1.4-0.9c-0.9,0-1.9,0.3-2.5,0.7l-0.5-2.2c0.7-0.5,2-0.8,3.2-0.8c2.4,0,4.1,1.1,4.1,3.3v3c0,1.1,0.4,1.6,1.1,1.9
		L35.1,411.9z M33.2,407.6l-1.1,0.1c-0.8,0.1-1.1,0.6-1.1,1.1c0,0.5,0.4,0.9,0.9,0.9c0.7,0,1.3-0.5,1.3-1.3V407.6z"/>
	<path d="M41.2,411.9c-1.9-0.1-3.1-1-3.1-3.2v-11.4H41v11c0,0.7,0.4,1.1,1.2,1.2L41.2,411.9z"/>
	<path d="M50.2,405.4c-0.6-0.4-1.2-0.6-1.9-0.6c-1.3,0-2.3,0.9-2.3,2.2c0,1.3,1,2.2,2.4,2.2c0.8,0,1.3-0.2,2-0.5l-0.3,2.5
		c-0.6,0.3-1.4,0.4-2.2,0.4c-2.5,0-4.9-1.8-4.9-4.7c0-3,2.4-4.7,4.8-4.7c1.2,0,2.2,0.2,3,0.7L50.2,405.4z"/>
	<path d="M58.1,411.5v-1.2h0c-0.4,1-1.3,1.5-2.8,1.5c-2,0-3.2-1.1-3.2-3v-6.3h2.9v5.6c0,0.7,0.5,1.2,1.4,1.2c0.9,0,1.4-0.6,1.4-1.3
		v-5.5h2.9v9.1H58.1z"/>
	<path d="M65.8,411.9c-1.9-0.1-3.1-1-3.1-3.2v-11.4h2.9v11c0,0.7,0.4,1.1,1.2,1.2L65.8,411.9z"/>
	<path d="M74.5,411.9c-0.5-0.1-1.2-0.5-1.4-1.2c-0.4,0.7-1.3,1.1-2.4,1.1c-1.6,0-3-1.1-3-3c0-1.7,1.3-2.8,3.1-3l1.8-0.2v-0.3
		c0-0.5-0.4-0.9-1.4-0.9c-0.9,0-1.9,0.3-2.5,0.7l-0.5-2.2c0.7-0.5,2-0.8,3.2-0.8c2.4,0,4.1,1.1,4.1,3.3v3c0,1.1,0.4,1.6,1.1,1.9
		L74.5,411.9z M72.6,407.6l-1.1,0.1c-0.8,0.1-1.1,0.6-1.1,1.1c0,0.5,0.4,0.9,0.9,0.9c0.7,0,1.3-0.5,1.3-1.3V407.6z"/>
	<path d="M83.4,404.9H81v3.4c0,0.8,0.4,1.1,1.2,1.1c0.3,0,0.5,0,0.8-0.1l-0.3,2.2c-0.3,0.1-0.8,0.2-1.4,0.2c-2,0-3.3-1.1-3.3-2.9
		v-3.9h-1.5v-2.4h1.5v-1.9l2.9-1.1v3H84L83.4,404.9z"/>
	<path d="M89.4,411.8c-2.7,0-4.9-1.9-4.9-4.8s2.2-4.8,4.9-4.8c2.7,0,4.9,1.9,4.9,4.8S92.1,411.8,89.4,411.8z M89.4,404.7
		c-1.1,0-2,1-2,2.3s0.9,2.3,2,2.3c1.1,0,2-1,2-2.3S90.4,404.7,89.4,404.7z"/>
	<path d="M101.4,405.6c-0.2-0.1-0.6-0.2-0.9-0.2c-0.9,0-1.8,0.5-1.8,1.9v4.2h-2.9v-9.1h2.9v2h0c0.3-1.4,1.4-2.2,2.6-2.2
		c0.3,0,0.6,0,0.8,0.1L101.4,405.6z"/>
	<path d="M103.3,411.8c-0.5,0-1.7-1.1-1.7-1.7c0-0.5,1.1-1.6,1.7-1.6s1.7,1.1,1.7,1.6C105,410.7,103.9,411.8,103.3,411.8z"/>
</g>
</svg>
