<?xml version="1.0" encoding="utf-8"?>
<!-- Generator: Adobe Illustrator 22.1.0, SVG Export Plug-In . SVG Version: 6.00 Build 0)  -->
<svg version="1.1" id="Layer_1" xmlns="http://www.w3.org/2000/svg" xmlns:xlink="http://www.w3.org/1999/xlink" x="0px" y="0px"
	 viewBox="0 0 160 600" style="enable-background:new 0 0 160 600;" xml:space="preserve">
<g>
	<path d="M23.1,50.8c-1.9,0-3.7-0.5-4.7-1.1L18,45.9c1.4,0.9,3.1,1.6,4.8,1.6c1.4,0,2.3-0.6,2.3-1.7c0-1-0.6-1.5-2.1-1.9
		c-3.3-0.9-4.8-2.7-4.8-5.2c0-2.8,2.1-5,5.6-5c1.9,0,3.5,0.5,4.2,0.9l-0.7,3.2c-0.7-0.4-2-0.9-3.1-0.9c-1.4,0-2.1,0.6-2.1,1.4
		c0,0.8,0.7,1.3,2,1.6c3.2,0.9,5.1,2.5,5.1,5.5C29.2,48.8,27.1,50.8,23.1,50.8z"/>
	<path d="M38.5,41.9h-3.1v4.4c0,1,0.5,1.4,1.6,1.4c0.4,0,0.7,0,1-0.2l-0.3,2.9c-0.4,0.2-1,0.3-1.8,0.3c-2.7,0-4.2-1.4-4.2-3.7v-5.1
		h-2v-3.1h2v-2.5l3.8-1.4v3.9h3.8L38.5,41.9z"/>
	<path d="M50.9,44l-1.7,1.7h-5.8c0.2,1,1.5,2.1,3.5,2.1c1.2,0,2.5-0.4,3.2-0.9l-0.4,3.3C48.9,50.7,47.5,51,46,51
		c-3.6,0-6.5-2.5-6.5-6.3c0-3.8,2.8-6.2,6.1-6.2c3.3,0,5.3,2.3,5.3,4.7C51,43.4,50.9,43.8,50.9,44z M45.7,41.3
		c-1.1,0-2.1,0.9-2.3,1.9h4c0-0.1,0-0.2,0-0.3C47.4,42.1,46.7,41.3,45.7,41.3z"/>
	<path d="M63.3,44l-1.7,1.7h-5.8c0.2,1,1.5,2.1,3.5,2.1c1.2,0,2.5-0.4,3.2-0.9l-0.4,3.3c-0.9,0.5-2.2,0.8-3.7,0.8
		c-3.6,0-6.5-2.5-6.5-6.3c0-3.8,2.8-6.2,6.1-6.2c3.3,0,5.3,2.3,5.3,4.7C63.4,43.4,63.3,43.8,63.3,44z M58.1,41.3
		c-1.1,0-2.1,0.9-2.3,1.9h4c0-0.1,0-0.2,0-0.3C59.8,42.1,59.1,41.3,58.1,41.3z"/>
	<path d="M72.3,42.9c-0.2-0.1-0.8-0.3-1.1-0.3c-1.2,0-2.3,0.6-2.3,2.5v5.5H65V38.8h3.8v2.6h0c0.4-1.8,1.8-2.8,3.4-2.8
		c0.4,0,0.8,0.1,1.1,0.2L72.3,42.9z"/>
</g>
<g>
	<path d="M27.2,68.6c-0.8-0.5-1.6-0.8-2.5-0.8c-1.7,0-3,1.2-3,2.9c0,1.7,1.3,2.9,3.1,2.9c1,0,1.7-0.2,2.6-0.6L27,76.3
		c-0.8,0.4-1.8,0.6-2.9,0.6c-3.3,0-6.4-2.3-6.4-6.1c0-3.8,3.1-6.2,6.3-6.2c1.6,0,2.8,0.3,3.9,0.9L27.2,68.6z"/>
	<path d="M33.5,77.1c-2.4-0.1-4-1.4-4-4.2V58.1h3.8v14.3c0,1,0.5,1.5,1.6,1.6L33.5,77.1z"/>
	<path d="M46.7,70L45,71.8h-5.8c0.2,1,1.5,2.1,3.5,2.1c1.2,0,2.5-0.4,3.2-0.9l-0.4,3.3c-0.9,0.5-2.2,0.8-3.7,0.8
		c-3.6,0-6.5-2.5-6.5-6.3c0-3.8,2.8-6.2,6.1-6.2c3.3,0,5.3,2.3,5.3,4.7C46.8,69.4,46.7,69.8,46.7,70z M41.5,67.3
		c-1.1,0-2.1,0.9-2.3,1.9h4c0-0.1,0-0.2,0-0.3C43.2,68.1,42.5,67.3,41.5,67.3z"/>
	<path d="M56.5,77.1c-0.7-0.2-1.5-0.7-1.8-1.6c-0.5,1-1.6,1.4-3.1,1.4c-2.1,0-3.9-1.5-3.9-3.9c0-2.2,1.7-3.6,4-3.8l2.3-0.2v-0.4
		c0-0.7-0.6-1.2-1.8-1.2c-1.1,0-2.4,0.4-3.3,0.9l-0.7-2.9c1-0.6,2.6-1,4.1-1c3.1,0,5.3,1.4,5.3,4.3v3.8c0,1.4,0.5,2.1,1.4,2.4
		L56.5,77.1z M54.1,71.4l-1.4,0.1c-1,0.1-1.4,0.8-1.4,1.5c0,0.6,0.5,1.1,1.2,1.1c0.9,0,1.7-0.7,1.7-1.7V71.4z"/>
	<path d="M67.6,68.9c-0.2-0.1-0.8-0.3-1.1-0.3c-1.2,0-2.3,0.6-2.3,2.5v5.5h-3.8V64.8H64v2.6h0c0.4-1.8,1.8-2.8,3.4-2.8
		c0.4,0,0.8,0.1,1.1,0.2L67.6,68.9z"/>
	<path d="M81.1,77c-3.6,0-6.4-2.5-6.4-6.3s2.9-6.3,6.4-6.3c3.5,0,6.4,2.5,6.4,6.3S84.7,77,81.1,77z M81.1,67.7c-1.4,0-2.7,1.2-2.7,3
		c0,1.7,1.2,3,2.7,3c1.4,0,2.7-1.2,2.7-3C83.8,69,82.5,67.7,81.1,67.7z"/>
	<path d="M97.3,61.5c-0.4-0.2-1.1-0.3-1.5-0.3c-1.4,0-2.1,0.8-2.1,2.5v1.1H97l-0.8,3.1h-2.6v8.7H90v-8.7h-1.8v-3.1H90v-1.4
		c0-3.6,2.3-5.4,5.3-5.4c1.1,0,2.2,0.1,2.8,0.4L97.3,61.5z"/>
	<path d="M111.6,67.9h-3.1v4.4c0,1,0.5,1.4,1.6,1.4c0.4,0,0.7,0,1-0.2l-0.3,2.9c-0.4,0.2-1,0.3-1.8,0.3c-2.7,0-4.2-1.4-4.2-3.7v-5.1
		h-2v-3.1h2v-2.5l3.8-1.4v3.9h3.8L111.6,67.9z"/>
	<path d="M120.9,76.6v-7.2c0-0.9-0.6-1.6-1.8-1.6c-1.1,0-1.8,0.7-1.8,1.7v7.2h-3.8V58.1h3.8v7.8h0c0.6-0.9,1.7-1.5,3.3-1.5
		c2.6,0,4.1,1.5,4.1,4v8.2H120.9z"/>
	<path d="M137.7,70l-1.7,1.7h-5.8c0.2,1,1.5,2.1,3.5,2.1c1.2,0,2.5-0.4,3.3-0.9l-0.4,3.3c-0.9,0.5-2.2,0.8-3.7,0.8
		c-3.6,0-6.5-2.5-6.5-6.3c0-3.8,2.8-6.2,6.1-6.2c3.3,0,5.3,2.3,5.3,4.7C137.8,69.4,137.7,69.8,137.7,70z M132.5,67.3
		c-1.1,0-2.1,0.9-2.3,1.9h4c0-0.1,0-0.2,0-0.3C134.2,68.1,133.5,67.3,132.5,67.3z"/>
</g>
<g>
	<path d="M22,102.8c-1.6,0-2.8-0.3-3.7-0.8l-0.3-3.4c1,0.7,2.4,1.3,3.7,1.3c0.7,0,1.1-0.4,1.1-0.8c0-0.5-0.4-0.7-1.1-0.9
		c-2.3-0.6-3.6-1.8-3.6-3.8c0-2.3,1.9-3.8,4.4-3.8c1.5,0,2.9,0.4,3.5,0.7l-0.6,2.8c-0.6-0.3-1.5-0.6-2.4-0.6c-0.6,0-1,0.3-1,0.8
		c0,0.4,0.3,0.7,1,0.9c2.7,0.7,3.7,2,3.7,4C26.6,101,25.2,102.8,22,102.8z"/>
	<path d="M36,102.6V101h0c-0.5,1.2-1.7,2-3.6,2c-2.6,0-4.1-1.4-4.1-3.9v-8.2H32V98c0,0.9,0.6,1.6,1.8,1.6c1.1,0,1.8-0.8,1.8-1.7
		v-7.2h3.8v11.8H36z"/>
	<path d="M49,94.9c-0.2-0.1-0.8-0.3-1.1-0.3c-1.2,0-2.3,0.6-2.3,2.5v5.5h-3.8V90.8h3.8v2.6h0c0.4-1.8,1.8-2.8,3.4-2.8
		c0.4,0,0.8,0.1,1.1,0.2L49,94.9z"/>
	<path d="M57.6,102.9c-1.2,0-2.5-0.4-3-0.8v6.4h-3.7V90.8h3.4v1.5h0c0.7-1.2,2-1.8,3.6-1.8c2.9,0,5.7,2.2,5.7,6.2
		C63.5,100.5,60.8,102.9,57.6,102.9z M56.9,93.8c-1.1,0-1.9,0.6-2.3,1.2v3.7c0.4,0.5,1.1,1,2.3,1c1.7,0,2.8-1.3,2.8-3
		S58.5,93.8,56.9,93.8z"/>
	<path d="M72.5,94.9c-0.2-0.1-0.8-0.3-1.1-0.3c-1.2,0-2.3,0.6-2.3,2.5v5.5h-3.8V90.8H69v2.6h0c0.4-1.8,1.8-2.8,3.4-2.8
		c0.4,0,0.8,0.1,1.1,0.2L72.5,94.9z"/>
	<path d="M76.4,89.2c-0.7,0-2.1-1.4-2.1-2.1c0-0.7,1.4-2,2.1-2s2.1,1.4,2.1,2C78.5,87.8,77.1,89.2,76.4,89.2z M74.5,102.6V90.8h3.8
		v11.8H74.5z"/>
	<path d="M84.4,102.8c-1.6,0-2.8-0.3-3.7-0.8l-0.3-3.4c1,0.7,2.4,1.3,3.7,1.3c0.7,0,1.1-0.4,1.1-0.8c0-0.5-0.4-0.7-1.1-0.9
		c-2.3-0.6-3.6-1.8-3.6-3.8c0-2.3,1.9-3.8,4.4-3.8c1.5,0,2.9,0.4,3.5,0.7l-0.7,2.8c-0.6-0.3-1.5-0.6-2.4-0.6c-0.6,0-1,0.3-1,0.8
		c0,0.4,0.3,0.7,1,0.9c2.7,0.7,3.7,2,3.7,4C89,101,87.5,102.8,84.4,102.8z"/>
	<path d="M101.3,96l-1.7,1.7h-5.8c0.2,1,1.5,2.1,3.5,2.1c1.2,0,2.5-0.4,3.3-0.9l-0.4,3.3c-0.9,0.5-2.2,0.8-3.7,0.8
		c-3.6,0-6.5-2.5-6.5-6.3c0-3.8,2.8-6.2,6.1-6.2c3.3,0,5.3,2.3,5.3,4.7C101.4,95.4,101.3,95.8,101.3,96z M96.1,93.3
		c-1.1,0-2.1,0.9-2.3,1.9h4c0-0.1,0-0.2,0-0.3C97.8,94.1,97.1,93.3,96.1,93.3z"/>
	<path d="M106.7,102.8c-1.6,0-2.8-0.3-3.7-0.8l-0.3-3.4c1,0.7,2.4,1.3,3.7,1.3c0.7,0,1.1-0.4,1.1-0.8c0-0.5-0.4-0.7-1.1-0.9
		c-2.3-0.6-3.6-1.8-3.6-3.8c0-2.3,1.9-3.8,4.4-3.8c1.5,0,2.9,0.4,3.5,0.7l-0.7,2.8c-0.6-0.3-1.5-0.6-2.4-0.6c-0.6,0-1,0.3-1,0.8
		c0,0.4,0.3,0.7,1,0.9c2.7,0.7,3.7,2,3.7,4C111.4,101,109.9,102.8,106.7,102.8z"/>
	<path d="M114.8,103c-0.7,0-2.2-1.5-2.2-2.2c0-0.7,1.5-2.1,2.2-2.1c0.7,0,2.2,1.5,2.2,2.1C117,101.5,115.5,103,114.8,103z"/>
</g>
</svg>
