<?xml version="1.0" encoding="utf-8"?>
<!-- Generator: Adobe Illustrator 22.1.0, SVG Export Plug-In . SVG Version: 6.00 Build 0)  -->
<svg version="1.1" id="Layer_1" xmlns="http://www.w3.org/2000/svg" xmlns:xlink="http://www.w3.org/1999/xlink" x="0px" y="0px"
	 viewBox="0 0 160 600" style="enable-background:new 0 0 160 600;" xml:space="preserve">
<g>
	<path d="M25.2,189.4c-1.7,0-3.4-0.5-4.3-1.1l-0.4-3.5c1.2,0.9,2.9,1.5,4.4,1.5c1.3,0,2.2-0.6,2.2-1.5c0-0.9-0.6-1.4-2-1.8
		c-3-0.8-4.4-2.5-4.4-4.8c0-2.5,1.9-4.6,5.2-4.6c1.8,0,3.2,0.5,3.8,0.9l-0.7,3c-0.6-0.4-1.8-0.8-2.9-0.8c-1.3,0-1.9,0.6-1.9,1.3
		c0,0.8,0.6,1.2,1.8,1.5c2.9,0.8,4.7,2.3,4.7,5C30.9,187.5,28.9,189.4,25.2,189.4z"/>
	<path d="M42.7,183.1l-1.6,1.6h-5.3c0.2,0.9,1.4,1.9,3.2,1.9c1.1,0,2.3-0.3,3-0.8l-0.3,3c-0.8,0.4-2.1,0.7-3.5,0.7
		c-3.3,0-6-2.3-6-5.9c0-3.5,2.5-5.7,5.7-5.7c3,0,4.9,2.1,4.9,4.3C42.8,182.5,42.8,182.9,42.7,183.1z M37.9,180.6
		c-1,0-1.9,0.8-2.1,1.8h3.7c0-0.1,0-0.1,0-0.2C39.5,181.4,38.9,180.6,37.9,180.6z"/>
	<path d="M54.4,183.1l-1.6,1.6h-5.3c0.2,0.9,1.4,1.9,3.2,1.9c1.1,0,2.3-0.3,3-0.8l-0.3,3c-0.8,0.4-2.1,0.7-3.5,0.7
		c-3.3,0-6-2.3-6-5.9c0-3.5,2.5-5.7,5.7-5.7c3,0,4.9,2.1,4.9,4.3C54.5,182.5,54.5,182.9,54.4,183.1z M49.6,180.6
		c-1,0-1.9,0.8-2.1,1.8h3.7c0-0.1,0-0.1,0-0.2C51.2,181.4,50.6,180.6,49.6,180.6z"/>
	<path d="M68.6,189.2v-6.7c0-0.8-0.6-1.5-1.6-1.5c-1.1,0-1.7,0.7-1.7,1.5v6.6h-3.5v-17.1h3.5v7.2h0c0.6-0.8,1.6-1.3,3.1-1.3
		c2.4,0,3.8,1.3,3.8,3.6v7.6H68.6z"/>
	<path d="M79.7,189.5c-3.3,0-5.9-2.3-5.9-5.8c0-3.5,2.6-5.8,5.9-5.8c3.3,0,5.9,2.3,5.9,5.8C85.6,187.2,83,189.5,79.7,189.5z
		 M79.7,181c-1.3,0-2.4,1.2-2.4,2.8c0,1.6,1.1,2.8,2.4,2.8c1.3,0,2.4-1.2,2.4-2.8C82.2,182.2,81,181,79.7,181z"/>
	<path d="M98.8,189.3h-2.4l-1.5-4.3c-0.2-0.7-0.4-1.4-0.6-2.3h0c-0.2,0.8-0.4,1.6-0.6,2.2l-1.5,4.3h-2.3l-3.8-11h3.2l1.3,4.1
		c0.2,0.6,0.4,1.4,0.5,2.1h0c0.1-0.7,0.3-1.5,0.5-2.1l1.4-4.1h2.7l1.4,4.1c0.2,0.7,0.4,1.4,0.5,2.1h0c0.1-0.7,0.3-1.5,0.6-2.1
		l1.4-4.1h3L98.8,189.3z"/>
</g>
<g>
	<path d="M34.1,213.2v-6.7c0-0.8-0.4-1.5-1.5-1.5c-1.1,0-1.6,0.7-1.6,1.5v6.6h-3.5v-6.7c0-0.8-0.4-1.5-1.5-1.5
		c-1.1,0-1.6,0.7-1.6,1.5v6.6h-3.5v-10.9h3.3v1.5h0c0.4-1.2,1.5-1.8,3.2-1.8c1.6,0,2.7,0.6,3.2,1.8c0.5-1.1,1.7-1.8,3.4-1.8
		c2.5,0,3.8,1.3,3.8,3.6v7.6H34.1z"/>
	<path d="M47,213.2v-1.5h0c-0.4,1.2-1.6,1.8-3.3,1.8c-2.4,0-3.8-1.3-3.8-3.6v-7.6h3.5v6.7c0,0.8,0.6,1.5,1.6,1.5
		c1.1,0,1.7-0.7,1.7-1.6v-6.6h3.5v10.9H47z"/>
	<path d="M60.7,205.8c-0.7-0.5-1.5-0.7-2.3-0.7c-1.5,0-2.8,1.1-2.8,2.7c0,1.6,1.2,2.7,2.8,2.7c0.9,0,1.6-0.2,2.4-0.6l-0.3,3
		c-0.7,0.3-1.7,0.5-2.7,0.5c-3,0-5.9-2.2-5.9-5.7c0-3.6,2.9-5.7,5.8-5.7c1.4,0,2.6,0.3,3.6,0.8L60.7,205.8z"/>
	<path d="M70,213.2v-6.7c0-0.8-0.6-1.5-1.6-1.5c-1.1,0-1.7,0.7-1.7,1.5v6.6h-3.5v-17.1h3.5v7.2h0c0.6-0.8,1.6-1.3,3.1-1.3
		c2.4,0,3.8,1.3,3.8,3.6v7.6H70z"/>
	<path d="M87.8,212.1c-1.7,4.4-3.4,6-5.4,6.7l-2.2-2.2c1.8-0.7,3.1-1.9,4-4.2l-3.9-10.1h3.4l1.6,4.2c0.2,0.6,0.5,1.4,0.6,2.1h0
		c0.2-0.7,0.5-1.5,0.7-2.1l1.6-4.2h3.2L87.8,212.1z"/>
	<path d="M97.7,213.5c-3.3,0-5.9-2.3-5.9-5.8c0-3.5,2.6-5.8,5.9-5.8c3.3,0,5.9,2.3,5.9,5.8C103.6,211.2,101,213.5,97.7,213.5z
		 M97.7,205c-1.3,0-2.4,1.2-2.4,2.8c0,1.6,1.1,2.8,2.4,2.8c1.3,0,2.4-1.2,2.4-2.8C100.1,206.2,99,205,97.7,205z"/>
	<path d="M112.5,213.2v-1.5h0c-0.4,1.2-1.6,1.8-3.3,1.8c-2.4,0-3.8-1.3-3.8-3.6v-7.6h3.5v6.7c0,0.8,0.6,1.5,1.6,1.5
		c1.1,0,1.7-0.7,1.7-1.6v-6.6h3.5v10.9H112.5z"/>
	<path d="M124.7,206c-0.2-0.1-0.7-0.3-1.1-0.3c-1.1,0-2.2,0.6-2.2,2.3v5.1H118v-10.9h3.5v2.4h0c0.4-1.7,1.6-2.6,3.1-2.6
		c0.3,0,0.7,0,1,0.1L124.7,206z"/>
</g>
<g>
	<path d="M27.4,230c-0.2-0.1-0.7-0.3-1.1-0.3c-1.1,0-2.2,0.6-2.2,2.3v5.1h-3.5v-10.9h3.5v2.4h0c0.4-1.7,1.6-2.6,3.1-2.6
		c0.3,0,0.7,0,1,0.1L27.4,230z"/>
	<path d="M39.2,231.1l-1.6,1.6h-5.3c0.2,0.9,1.4,1.9,3.2,1.9c1.1,0,2.3-0.3,3-0.8l-0.3,3c-0.8,0.4-2.1,0.7-3.5,0.7
		c-3.3,0-6-2.3-6-5.9c0-3.5,2.5-5.7,5.7-5.7c3,0,4.9,2.1,4.9,4.3C39.3,230.5,39.3,230.9,39.2,231.1z M34.4,228.6
		c-1,0-1.9,0.8-2.1,1.8H36c0-0.1,0-0.1,0-0.2C36,229.4,35.4,228.6,34.4,228.6z"/>
	<path d="M48.4,229.2h-2.8v4c0,0.9,0.5,1.3,1.4,1.3c0.4,0,0.6,0,0.9-0.1l-0.3,2.7c-0.3,0.2-0.9,0.3-1.6,0.3c-2.4,0-3.9-1.3-3.9-3.5
		v-4.7h-1.8v-2.9h1.8V224l3.5-1.3v3.6h3.5L48.4,229.2z"/>
	<path d="M52.1,224.8c-0.6,0-1.9-1.3-1.9-1.9s1.3-1.9,1.9-1.9s1.9,1.2,1.9,1.9S52.8,224.8,52.1,224.8z M50.4,237.2v-10.9h3.6v10.9
		H50.4z"/>
	<path d="M63,230c-0.2-0.1-0.7-0.3-1.1-0.3c-1.1,0-2.2,0.6-2.2,2.3v5.1h-3.5v-10.9h3.5v2.4h0c0.4-1.7,1.6-2.6,3.1-2.6
		c0.3,0,0.7,0,1,0.1L63,230z"/>
	<path d="M74.7,231.1l-1.6,1.6h-5.3c0.2,0.9,1.4,1.9,3.2,1.9c1.1,0,2.3-0.3,3-0.8l-0.3,3c-0.8,0.4-2.1,0.7-3.5,0.7
		c-3.3,0-6-2.3-6-5.9c0-3.5,2.5-5.7,5.7-5.7c3,0,4.9,2.1,4.9,4.3C74.8,230.5,74.8,230.9,74.7,231.1z M70,228.6c-1,0-1.9,0.8-2.1,1.8
		h3.7c0-0.1,0-0.1,0-0.2C71.6,229.4,70.9,228.6,70,228.6z"/>
	<path d="M90,237.2v-6.7c0-0.8-0.4-1.5-1.5-1.5c-1.1,0-1.6,0.7-1.6,1.5v6.6h-3.5v-6.7c0-0.8-0.4-1.5-1.5-1.5c-1.1,0-1.6,0.7-1.6,1.5
		v6.6h-3.5v-10.9h3.3v1.5h0c0.4-1.2,1.5-1.8,3.2-1.8c1.6,0,2.7,0.6,3.2,1.8c0.5-1.1,1.7-1.8,3.4-1.8c2.5,0,3.8,1.3,3.8,3.6v7.6H90z"
		/>
	<path d="M105.7,231.1l-1.6,1.6h-5.3c0.2,0.9,1.4,1.9,3.2,1.9c1.1,0,2.3-0.3,3-0.8l-0.3,3c-0.8,0.4-2.1,0.7-3.5,0.7
		c-3.3,0-6-2.3-6-5.9c0-3.5,2.5-5.7,5.7-5.7c3,0,4.9,2.1,4.9,4.3C105.8,230.5,105.7,230.9,105.7,231.1z M100.9,228.6
		c-1,0-1.9,0.8-2.1,1.8h3.7c0-0.1,0-0.1,0-0.2C102.5,229.4,101.8,228.6,100.9,228.6z"/>
	<path d="M114.4,237.2v-6.7c0-0.8-0.5-1.5-1.6-1.5c-1.1,0-1.7,0.7-1.7,1.5v6.6h-3.5v-10.9h3.2v1.5h0c0.4-1.2,1.6-1.8,3.3-1.8
		c2.4,0,3.8,1.3,3.8,3.6v7.6H114.4z"/>
	<path d="M127.3,229.2h-2.8v4c0,0.9,0.5,1.3,1.4,1.3c0.4,0,0.6,0,0.9-0.1l-0.3,2.7c-0.3,0.2-0.9,0.3-1.6,0.3c-2.4,0-3.9-1.3-3.9-3.5
		v-4.7h-1.8v-2.9h1.8V224l3.5-1.3v3.6h3.5L127.3,229.2z"/>
</g>
<g>
	<path d="M22.6,248.8c-0.6,0-1.9-1.3-1.9-1.9s1.3-1.9,1.9-1.9s1.9,1.2,1.9,1.9S23.2,248.8,22.6,248.8z M20.8,261.2v-10.9h3.6v10.9
		H20.8z"/>
	<path d="M33.5,261.2v-6.7c0-0.8-0.5-1.5-1.6-1.5c-1.1,0-1.7,0.7-1.7,1.5v6.6h-3.5v-10.9h3.2v1.5h0c0.4-1.2,1.6-1.8,3.3-1.8
		c2.4,0,3.8,1.3,3.8,3.6v7.6H33.5z"/>
	<path d="M47.5,253.8c-0.7-0.5-1.5-0.7-2.3-0.7c-1.5,0-2.8,1.1-2.8,2.7c0,1.6,1.2,2.7,2.8,2.7c0.9,0,1.6-0.2,2.4-0.6l-0.3,3
		c-0.7,0.3-1.7,0.5-2.7,0.5c-3,0-5.9-2.2-5.9-5.7c0-3.6,2.9-5.7,5.8-5.7c1.4,0,2.6,0.3,3.6,0.8L47.5,253.8z"/>
	<path d="M55.1,261.5c-3.3,0-5.9-2.3-5.9-5.8c0-3.5,2.6-5.8,5.9-5.8c3.3,0,5.9,2.3,5.9,5.8C61,259.2,58.4,261.5,55.1,261.5z
		 M55.1,253c-1.3,0-2.4,1.2-2.4,2.8c0,1.6,1.1,2.8,2.4,2.8c1.3,0,2.4-1.2,2.4-2.8C57.6,254.2,56.4,253,55.1,253z"/>
	<path d="M76.2,261.2v-6.7c0-0.8-0.4-1.5-1.5-1.5c-1.1,0-1.6,0.7-1.6,1.5v6.6h-3.5v-6.7c0-0.8-0.4-1.5-1.5-1.5
		c-1.1,0-1.6,0.7-1.6,1.5v6.6h-3.5v-10.9h3.3v1.5h0c0.4-1.2,1.5-1.8,3.2-1.8c1.6,0,2.7,0.6,3.2,1.8c0.5-1.1,1.7-1.8,3.4-1.8
		c2.5,0,3.8,1.3,3.8,3.6v7.6H76.2z"/>
	<path d="M91.9,255.1l-1.6,1.6H85c0.2,0.9,1.4,1.9,3.2,1.9c1.1,0,2.3-0.3,3-0.8l-0.3,3c-0.8,0.4-2.1,0.7-3.5,0.7c-3.3,0-6-2.3-6-5.9
		c0-3.5,2.5-5.7,5.7-5.7c3,0,4.9,2.1,4.9,4.3C92,254.5,92,254.9,91.9,255.1z M87.1,252.6c-1,0-1.9,0.8-2.1,1.8h3.7
		c0-0.1,0-0.1,0-0.2C88.7,253.4,88.1,252.6,87.1,252.6z"/>
</g>
<g>
	<path d="M29,277.8c-0.7-0.5-1.5-0.7-2.3-0.7c-1.5,0-2.8,1.1-2.8,2.7c0,1.6,1.2,2.7,2.8,2.7c0.9,0,1.6-0.2,2.4-0.6l-0.3,3
		c-0.7,0.3-1.7,0.5-2.7,0.5c-3,0-5.9-2.2-5.9-5.7c0-3.6,2.9-5.7,5.8-5.7c1.4,0,2.6,0.3,3.6,0.8L29,277.8z"/>
	<path d="M39,285.6c-0.6-0.1-1.4-0.6-1.7-1.4c-0.5,0.9-1.5,1.3-2.8,1.3c-1.9,0-3.6-1.3-3.6-3.6c0-2,1.6-3.3,3.7-3.6l2.2-0.2v-0.4
		c0-0.6-0.5-1.1-1.7-1.1c-1.1,0-2.2,0.3-3,0.8l-0.6-2.7c0.9-0.6,2.4-1,3.8-1c2.9,0,4.9,1.3,4.9,3.9v3.6c0,1.3,0.5,1.9,1.3,2.3
		L39,285.6z M36.7,280.4l-1.3,0.1c-0.9,0.1-1.3,0.7-1.3,1.4c0,0.6,0.4,1.1,1.1,1.1c0.8,0,1.5-0.6,1.5-1.6V280.4z"/>
	<path d="M49.5,285.2v-6.7c0-0.8-0.5-1.5-1.6-1.5c-1.1,0-1.7,0.7-1.7,1.5v6.6h-3.5v-10.9h3.2v1.5h0c0.4-1.2,1.6-1.8,3.3-1.8
		c2.4,0,3.8,1.3,3.8,3.6v7.6H49.5z"/>
	<path d="M65.9,285.5c-2.3,0-4.2-0.8-5.2-1.6v-15.8H64v6.6c0.5-0.4,1.6-0.7,2.7-0.7c3,0,5.5,2.1,5.5,5.6
		C72.3,282.9,70.1,285.5,65.9,285.5z M66.2,277c-1,0-1.8,0.5-2.1,0.8v4.2c0.4,0.3,1.1,0.5,1.8,0.5c1.8,0,2.9-1.2,2.9-2.8
		C68.7,278.2,67.7,277,66.2,277z"/>
	<path d="M84,279.1l-1.6,1.6h-5.3c0.2,0.9,1.4,1.9,3.2,1.9c1.1,0,2.3-0.3,3-0.8l-0.3,3c-0.8,0.4-2.1,0.7-3.5,0.7c-3.3,0-6-2.3-6-5.9
		c0-3.5,2.5-5.7,5.7-5.7c3,0,4.9,2.1,4.9,4.3C84.1,278.5,84,278.9,84,279.1z M79.2,276.6c-1,0-1.9,0.8-2.1,1.8h3.7
		c0-0.1,0-0.1,0-0.2C80.8,277.4,80.1,276.6,79.2,276.6z"/>
	<path d="M87.2,285.5c-0.6,0-2-1.3-2-2c0-0.6,1.3-2,2-2c0.6,0,2,1.3,2,2C89.2,284.2,87.9,285.5,87.2,285.5z"/>
</g>
</svg>
