<?xml version="1.0" encoding="utf-8"?>
<!-- Generator: Adobe Illustrator 22.1.0, SVG Export Plug-In . SVG Version: 6.00 Build 0)  -->
<svg version="1.1" id="Layer_1" xmlns="http://www.w3.org/2000/svg" xmlns:xlink="http://www.w3.org/1999/xlink" x="0px" y="0px"
	 viewBox="0 0 160 600" style="enable-background:new 0 0 160 600;" xml:space="preserve">
<style type="text/css">
	.st0{fill:#F9E038;}
</style>
<path class="st0" d="M34.1,455.8c0,0-10.6,0-10.6,10.6v9.3c0,0,0,10.6,10.6,10.6h92c0,0,10.6,0,10.6-10.6v-9.3c0,0,0-10.6-10.6-10.6
	H34.1z"/>
<g>
	<path d="M38,469.4c0-0.9-0.3-1.8-1.4-1.8c-1.4,0-1.5,1.8-1.5,2.8c0,1.1,0.1,2.6,1.6,2.6c0.9,0,1.3-0.8,1.4-1.5l1.9,0.1
		c-0.2,1.9-1.5,3-3.4,3c-2.4,0-3.6-2-3.6-4.2c0-2.3,1.2-4.2,3.7-4.2c2.1,0,3.1,1.2,3.3,3.2L38,469.4z"/>
	<path d="M48,474.5H46l-0.5-1.7h-2.7l-0.5,1.7h-1.7l2.6-8.2h2.2L48,474.5z M45,471.3l-0.9-2.9l-0.9,2.9H45z"/>
	<path d="M54.1,472.8v1.6h-5.2v-8.2h1.9v6.6H54.1z"/>
	<path d="M59.6,469.4c0-0.9-0.3-1.8-1.4-1.8c-1.4,0-1.5,1.8-1.5,2.8c0,1.1,0.1,2.6,1.6,2.6c0.9,0,1.3-0.8,1.4-1.5l1.9,0.1
		c-0.2,1.9-1.5,3-3.4,3c-2.4,0-3.6-2-3.6-4.2c0-2.3,1.2-4.2,3.7-4.2c2.1,0,3.1,1.2,3.3,3.2L59.6,469.4z"/>
	<path d="M69.3,471.2c0,0.9,0,1.8-0.7,2.5c-0.7,0.7-1.6,0.9-2.5,0.9c-0.9,0-1.9-0.1-2.5-0.7c-0.8-0.7-0.9-1.7-0.9-2.7v-5h2.1v5
		c0,0.4,0,0.9,0.2,1.3c0.3,0.4,0.8,0.6,1.2,0.6c0.4,0,0.9-0.1,1.2-0.4c0.3-0.4,0.2-0.9,0.2-1.4v-5h1.7V471.2z"/>
	<path d="M76,472.8v1.6h-5.2v-8.2h1.9v6.6H76z"/>
	<path d="M83.6,474.5h-2.1l-0.5-1.7h-2.7l-0.5,1.7h-1.7l2.6-8.2H81L83.6,474.5z M80.5,471.3l-0.9-2.9l-0.9,2.9H80.5z"/>
	<path d="M89.2,467.9h-2.1v6.6h-1.9v-6.6h-2.1v-1.6h6.1V467.9z"/>
	<path d="M92.1,467.8v1.7h3.1v1.5h-3.1v1.8h4v1.6h-5.9v-8.2h5.9v1.6H92.1z"/>
	<path d="M107.1,474.5h-1.6l-3.2-5.5h0v5.5h-1.5v-8.2h2.1l2.7,4.8h0v-4.8h1.5V474.5z"/>
	<path d="M109.2,473.3c-0.6-0.9-0.9-1.9-0.9-3c0-2.2,1.1-4.2,3.5-4.2c1.1,0,2,0.4,2.6,1.3c0.6,0.8,0.9,2,0.9,3
		c0,0.9-0.3,2.1-0.8,2.9c-0.6,0.9-1.6,1.4-2.7,1.4S109.8,474.2,109.2,473.3z M110.6,468.6c-0.2,0.5-0.3,1.2-0.3,1.7
		c0,1,0.2,2.7,1.5,2.7c0.7,0,1-0.3,1.2-0.9c0.2-0.5,0.3-1.2,0.3-1.7c0-0.6-0.1-1.3-0.3-1.9c-0.2-0.6-0.6-0.8-1.2-0.8
		C111.2,467.7,110.8,468,110.6,468.6z"/>
	<path d="M124.2,474.5h-1.9l-1.3-5.4h0l-1.3,5.4h-1.9l-2.1-8.2h2l1.3,5.5h0l1.3-5.5h1.8l1.4,5.5h0l0.1-0.4l1.2-5.2h1.6L124.2,474.5z
		"/>
</g>
</svg>
