<?xml version="1.0" encoding="utf-8"?>
<!-- Generator: Adobe Illustrator 22.1.0, SVG Export Plug-In . SVG Version: 6.00 Build 0)  -->
<svg version="1.1" id="Layer_1" xmlns="http://www.w3.org/2000/svg" xmlns:xlink="http://www.w3.org/1999/xlink" x="0px" y="0px"
	 viewBox="0 0 160 600" style="enable-background:new 0 0 160 600;" xml:space="preserve">
<style type="text/css">
	.st0{fill:#005C97;}
	.st1{clip-path:url(#SVGID_2_);fill:#FFFFFF;}
	.st2{clip-path:url(#SVGID_4_);fill:url(#SVGID_5_);}
	.st3{clip-path:url(#SVGID_7_);fill:url(#SVGID_8_);}
	.st4{clip-path:url(#SVGID_10_);fill:url(#SVGID_11_);}
</style>
<path class="st0" d="M79.6,531.2v3.9h-6.8v18.5h-4.3V535h-6.8v-3.9H79.6z M81.4,553.6h4.3v-11.2v-11.2h-4.3v11.2V553.6z
	 M108.2,553.6h-4.5l-2.3-5.5h-7.6l-2.3,5.5h-4.4l9.5-22.7h1.9L108.2,553.6z M129.1,553.6h-4.5l-2.3-5.5h-7.6l-2.3,5.5h-4.4l9.5-22.7
	h1.9L129.1,553.6z M99.9,544.4l-2.3-5.6l-2.3,5.6H99.9z M120.9,544.4l-2.3-5.6l-2.3,5.6H120.9z"/>
<g>
	<defs>
		<rect id="SVGID_1_" x="25.1" y="522" width="109.8" height="37.4"/>
	</defs>
	<clipPath id="SVGID_2_">
		<use xlink:href="#SVGID_1_"  style="overflow:visible;"/>
	</clipPath>
	<path class="st1" d="M45.9,555c1.9,0,3.7-0.8,4.9-2.1l5.3-5.3c1.2-1.2,2-2.9,2-4.8v-16.5H41.6c-1.9,0-3.7,0.8-4.9,2.1l-5.3,5.3
		c-1.2,1.2-2,2.9-2,4.8V555H45.9z"/>
</g>
<g>
	<defs>
		<path id="SVGID_3_" d="M43.5,527.8c-3,0-5.4,2.4-5.4,5.4v1.8h11.3v11.3h1.8c3,0,5.4-2.4,5.4-5.4v-13.1H43.5z"/>
	</defs>
	<clipPath id="SVGID_4_">
		<use xlink:href="#SVGID_3_"  style="overflow:visible;"/>
	</clipPath>
	
		<linearGradient id="SVGID_5_" gradientUnits="userSpaceOnUse" x1="1" y1="601.0775" x2="2" y2="601.0775" gradientTransform="matrix(12.8988 -12.8988 -12.8988 -12.8988 7784.0239 8306.7529)">
		<stop  offset="0" style="stop-color:#9CDBF8"/>
		<stop  offset="0.1" style="stop-color:#9CDBF8"/>
		<stop  offset="0.9" style="stop-color:#009DDA"/>
		<stop  offset="1" style="stop-color:#009DDA"/>
	</linearGradient>
	<polygon class="st2" points="28.8,537.1 47.4,518.5 65.9,537.1 47.4,555.6 	"/>
</g>
<g>
	<defs>
		<path id="SVGID_6_" d="M51.2,547.8H36.7l-5.8,5.8h15c1.5,0,2.8-0.6,3.9-1.6l4.9-4.9l-0.1-0.1C53.5,547.5,52.4,547.8,51.2,547.8"/>
	</defs>
	<clipPath id="SVGID_7_">
		<use xlink:href="#SVGID_6_"  style="overflow:visible;"/>
	</clipPath>
	
		<linearGradient id="SVGID_8_" gradientUnits="userSpaceOnUse" x1="0.9579" y1="601.0421" x2="1.958" y2="601.0421" gradientTransform="matrix(23.7811 0 0 -23.7811 8.0847 14843.7197)">
		<stop  offset="0" style="stop-color:#18B0E6"/>
		<stop  offset="0.1617" style="stop-color:#16AAE1"/>
		<stop  offset="0.3752" style="stop-color:#129AD2"/>
		<stop  offset="0.6174" style="stop-color:#0B7EB9"/>
		<stop  offset="0.8793" style="stop-color:#015897"/>
		<stop  offset="0.9" style="stop-color:#005594"/>
		<stop  offset="1" style="stop-color:#005594"/>
	</linearGradient>
	<rect x="30.9" y="546.9" class="st3" width="23.8" height="6.6"/>
</g>
<g>
	<defs>
		<path id="SVGID_9_" d="M32.5,534.7c-1.1,1-1.6,2.4-1.6,3.9v15l5.8-5.8v-14.6c0-1.2,0.3-2.3,0.8-3.3l-0.1-0.1L32.5,534.7z"/>
	</defs>
	<clipPath id="SVGID_10_">
		<use xlink:href="#SVGID_9_"  style="overflow:visible;"/>
	</clipPath>
	
		<linearGradient id="SVGID_11_" gradientUnits="userSpaceOnUse" x1="1.042" y1="601.0421" x2="2.042" y2="601.0421" gradientTransform="matrix(0 -23.7815 -23.7815 0 14327.8545 578.3583)">
		<stop  offset="0" style="stop-color:#0081BC"/>
		<stop  offset="0.4118" style="stop-color:#006EAB"/>
		<stop  offset="0.85" style="stop-color:#005594"/>
		<stop  offset="1" style="stop-color:#005594"/>
	</linearGradient>
	<rect x="30.9" y="529.8" class="st4" width="6.6" height="23.8"/>
</g>
</svg>
