<?xml version="1.0" encoding="utf-8"?>
<!-- Generator: Adobe Illustrator 22.1.0, SVG Export Plug-In . SVG Version: 6.00 Build 0)  -->
<svg version="1.1" id="Layer_1" xmlns="http://www.w3.org/2000/svg" xmlns:xlink="http://www.w3.org/1999/xlink" x="0px" y="0px"
	 viewBox="0 0 160 600" style="enable-background:new 0 0 160 600;" xml:space="preserve">
<style type="text/css">
	.st0{fill:#FFFFFF;}
	.st1{fill:none;stroke:#FCFCFC;stroke-width:0.315;stroke-miterlimit:10;}
	.st2{fill:none;}
</style>
<g>
	<path class="st0" d="M69.7,252.8h0.4c0,0.9,0.2,1.4,0.7,1.4l2.9-0.2c0-0.7,0.3-1.1,1-1.1c0.5,0.2,0.9,0.3,1.2,0.3l-0.3,0.7h0.3
		c1.1-0.8,2.2-1.2,3.2-1.2l0.1,1.1c-1,0.1-1.5,0.3-1.5,0.8v0.3c1.2-0.1,3,0.4,5.4,1.3l4.5-0.2c0.4-0.1,0.7-0.4,1.1-1.2
		c0.8,0.3,1.5,0.7,2.2,1.3l5-0.9h1c2.5,0.8,3.7,1.5,3.8,1.9c-0.4,0-0.9,0.5-1.5,1.4l0.1,0.4l0.5,1.7l1.8-0.4l2.2,1.2
		c0.3,1.2,0.5,1.9,0.5,2.1c-0.5,0.1-0.7,0.4-0.7,0.8l1.5,1.6l-1.3,2.9v0.4h0.4l1.4-1.2l0.4,0.7l0.1,0.7l-1.5,1.5
		c0.3,0.4,0.4,0.9,0.5,1.4c-0.8,0.2-1.1,1.1-1,2.8c0.4,1.9,2,2.7,4.9,2.6c1.3,1.1,1.9,2.1,1.9,3c-1.2,0.7-1.9,1.4-2,2.2
		c1.8,0.9,2.9,1.3,3.2,1.3v0.3c0.1,0.5-0.4,0.7-1.3,0.8l0.5,2.4v0.7c0,0.5-0.3,0.7-0.8,0.8l0.5,0.7v0.3c0.1,0.6-0.2,1.3-0.6,2.1
		c1,0,1.5,0.5,1.5,1.4l0.8-0.1l1.3-1.5h0.3c0.5,0,0.8,0.3,0.9,1c-0.3,1.7-0.6,2.5-1,2.5l0.5,0.7v0.7c0.1,0.5-0.2,0.7-0.7,0.8
		l0.9,2.4l-0.3,0.7l0.9,3.8l0.7-0.4h0.8l0.1,1c-0.8,0.1-1.1,0.4-1.1,1.1c0,0.4,0.7,1.2,2.2,2.4c0,0.3-1.5,1.1-4.6,2.3
		c-1.1,1.7-1.7,2.8-1.7,3.2l0.4,0.7c-0.1,0.9-0.3,1.4-0.6,1.4c0.3,0.5,0.4,0.8,0.4,1.1c-0.3,0.9-0.6,1.4-0.9,1.4
		c-0.8-0.7-1.2-1.3-1.2-1.7c0.2-0.5,0.3-0.8,0.3-1c-0.4,0-0.7-0.3-1.1-1c0.5-0.1,0.7-0.3,0.6-0.8c0-0.5-0.7-0.6-2.2-0.5l-0.1-1.4
		c1.3-1.2,2-2.3,2-3.2c1.9-0.8,3.2-1.7,3.9-2.6v-0.4c-0.5,0.1-1-0.3-1.5-0.9c-1.4,1.4-2.7,2.3-3.9,2.6c0.1,0.7-0.3,1-1,1.1v0.7
		l0.9,1c-0.6,1.2-1.1,1.8-1.4,1.8c0.1,1.4,1,2.7,2.7,3.7l0.1,0.7l-4.6,1.6l-1.1-0.6c-3.8,0.5-6.1,1.1-6.7,1.7h-0.4
		c-0.2,0-0.3-0.1-0.3-0.3l-0.8,0.4l-2.2-0.2c0,0.3-0.3,0.7-1,1.1h-0.8c0-0.2-0.3-1.1-0.9-2.7v-0.4l0.3-0.7c-0.2,0-0.3-0.1-0.4-0.3
		c2.4-2.1,3.5-3.4,3.5-3.7l-0.8-0.3l-0.7,0.1l-1.1,0.7l-0.3,0.1c-0.5,0-0.7-0.2-0.8-0.7c0.5,0,0.7-0.2,0.7-0.7
		c-0.3,0-0.4-0.1-0.4-0.4l0.7-0.4l-0.4-0.6v-0.8l0.2-1.7c-0.3,0-0.4-0.1-0.4-0.4l0.7-0.3l-0.4-0.7v-0.7c-0.1-1.7,0.7-2.5,2.4-2.6
		v-0.4l-0.8-0.3l0.3-0.7v-0.7l-1.8,0.4l-0.4-0.6c-1.4,0.5-2.4,0.8-2.9,0.8l-0.4-2c0.1-0.9,0.9-2,2.3-3.3c0,0.3,0.2,0.4,0.5,0.4
		c-0.1-0.6,0.2-1.2,0.6-1.8c-0.5,0-1-0.1-1.5-0.3c0,0.5-0.2,0.7-0.7,0.8h-0.8c-0.5,0-0.7-0.2-0.7-0.7l-0.2-2.1
		c0.5-0.9,1.1-1.4,1.8-1.5l-2.7-2.6c-0.1-0.5-0.2-1-0.4-1.4c0.2-0.5,0.3-0.8,0.2-1.1v-0.3h-0.3c0,0.7-0.6,1.4-1.8,2.2h-0.3
		c-1.3,0.1-3,0-5.1-0.1c-1.2,0.3-1.8,0.7-1.8,1.1v0.4l0.9,1l1.8-0.5l3.6-0.2l1-0.7c1,1,1.5,2,1.6,3c-0.8,0.1-1.5,0.9-2.1,2.6
		l-0.6,0.4h-0.5c-0.5,0.1-0.9-0.5-1.1-1.7H81c0.1,1.2-0.2,1.8-0.7,1.8l0.5,0.7c-0.6,1.9-1.3,2.9-2.1,2.9l-0.7,0.1l0.4,1.7l0.1,0.4
		h-0.7c-0.5,0.1-0.7-0.2-0.8-0.6l0.3-1.8c-1.3,1.4-2.9,2.2-4.7,2.3l0.1,0.7c0.7-0.1,1.1,0.2,1.2,0.6l1.4-0.8
		c0.8,0.4,1.5,0.6,2.2,0.6v0.7c0,0.3-0.4,0.7-1.1,1.1l0.4,0.7c-0.7,1.2-1.1,2.3-1.2,3.2c0.3,0.5,0.4,0.8,0.4,1.1l-1.4,1.1
		c-0.5,0-0.7-0.2-0.8-0.7l-0.1-1.7l-1.5-0.3l-2,2.9c0.3,0,1.4,0.8,3.4,2.3l-1.9,5.3c-2.6,1.2-3.9,1.9-3.9,2.2v0.4
		c0.7-0.1,1,0.2,1.1,0.6c0,0.5-0.5,0.7-1.5,0.8l0.1,1.4c0.6,0.5,1.2,2.1,1.7,4.8c0.4,0,1.4-0.9,3.2-2.6h0.3l1.2,0.6h0.4
		c2.8-0.2,5.2-1,7.2-2.4c0.8,0.4,1.4,0.6,1.8,0.6c0.1-0.5,0.3-0.8,0.7-0.8c0.3,0,0.4,0.1,0.4,0.3c1.6-0.8,2.7-1.2,3.2-1.2l1.5,1.3
		l2.2-1.5l0.7-0.1v1.5l0.5-0.1c1.4-1.2,2.1-2.1,2-2.9c-0.2,0-0.3-0.1-0.4-0.3l0.4-0.1l1.9,1l1.8-0.5c2.1-0.1,3.2-0.1,3.6-0.2
		c-0.1-0.7,0.2-1,0.6-1.1l1.5,1.7h0.4c3.8-0.6,6.1-1.2,6.7-1.7l0.3,0.6l-0.3,0.8l0.7-0.1c0-0.5,0.5-1.2,1.4-2.2l-0.5-0.7v-0.3
		c0.5-0.9,1.1-1.4,1.8-1.5l-0.4-0.7c1.5-2.8,3.1-4.3,4.6-4.4l0.7,0.3l-0.3,0.8c0,0.4,0.3,1,0.8,2c-0.4,0.3-1,0.4-1.8,0.5l0.1,1.7
		l-0.3,1.8l3.4,1.6h-0.4c0.6,1.4,0.9,2.3,0.9,2.8c0.1,0.6-0.3,1.7-0.9,3.2l0.5,2.1h-0.3l0.4,0.7v0.7c0,0.5-0.1,1-0.3,1.4
		c0.3,0.4,0.4,0.7,0.4,1c-3.6,1.8-5.4,2.7-5.6,2.7c-0.5-0.2-0.9-0.3-1.2-0.3l0.1,1.8l1.9,0.2c0.4,0,1.8-1.1,4.3-3.3h0.7
		c1.1,0.4,1.8,0.8,1.9,1.3l-0.9,1.8c1.1,0,1.8,0.3,1.9,0.9l0.1,1.4c-0.9,1.1-1.4,1.7-1.4,1.9l1.1,1.3c-0.2,0.4-0.3,0.9-0.2,1.4h0.8
		c-0.1-0.9,0.2-1.4,0.6-1.5h0.3c1,0.9,1.7,1.3,2.2,1.3v0.7c0.1,0.5-0.2,0.7-0.6,0.7l-0.7,0.1l-1.5-1h-0.3v0.7c1.8,1,2.6,1.8,2.6,2.3
		c-0.2,0.5-0.3,0.8-0.3,1.1c0.4,0,0.9,0.4,1.5,1.3v0.4c-0.1,0.5-0.6,1-1.7,1.5c-0.1-0.5-0.3-0.7-0.9-0.7c-0.5,0.1-0.7,0.4-0.6,0.8
		v0.3c3,1.9,4.7,3.1,5.3,3.6v0.3c-1.8,1.5-2.9,2.2-3.2,2.2v0.7l1.5-0.1l1.2-0.7h0.3v0.7h-0.8l0.1,0.4l1.5,1.3
		c-0.4,0.1-0.6,0.3-0.6,0.7c0.7,0,1,0.2,1.1,0.7l-3.2,1.9c0.1,0.2-0.1,0.3-0.3,0.4h-0.8l-2.2-0.9l-0.3,0.7c0.4,0,0.7,0.3,1.2,1
		l-1.4,1.5l0.1,0.7c0.7-0.1,1,0.5,1.1,1.7l0.8-0.1l-0.5-0.7c1.7-1.1,2.6-1.8,2.6-2.2c0.8-0.5,1.8-0.8,2.8-0.9h0.8
		c0.7,0.2,1.1,0.9,1.2,2c-0.6,0.6-1.8,1.2-3.6,1.9v0.7c0.2,0.5,0.4,0.7,0.9,0.7c0.9-0.8,1.6-1.2,2.1-1.2c0,0.2,0.1,0.3,0.4,0.3
		l-0.3,0.7v0.7c0.8,0,1.2,0.2,1.2,0.7c-0.3,0.5-0.4,0.8-0.4,1c0.4-0.2,1-0.3,1.8-0.4l0.5,0.7c-0.4,0.9-0.7,1.4-1,1.4l-1.2,0.1
		c-0.6-0.5-1-0.7-1.4-0.6c-0.5,0.3-0.9,0.4-1.1,0.4c-0.1-0.3-0.2-0.4-0.4-0.3c-1.2,0.8-1.8,1.8-1.7,2.9c1.3,1.1,2.4,1.6,3.4,1.5
		c0.1-0.7,1-1.1,2.8-1.2c0.4,0,0.7,0.3,1.2,1v0.4c0.1,0.5-0.3,0.7-1.1,0.7l0.1,1.1c3,1.2,4.5,3.1,4.6,5.7l0.8,1v0.7h-0.3
		c-0.5,0-0.7-0.3-0.8-1H139v0.7l-0.8,0.1l-0.4-1.8c-1.4,0.1-2.2,0.7-2.5,1.9c0.7,1.6,1.5,3,2.4,4.1c-0.3,0-1.2,0.3-2.9,0.9h-0.3
		c-0.3,0-1-0.6-1.9-1.7l0.3-1.7c-0.4,0-0.9-0.2-1.5-0.6h-1.1c-0.4,0.1-2.4,0.6-6.2,1.7l0.1,1.4c1.2,1,1.9,1.5,1.9,1.7
		c-0.8,1.7-2,2.5-3.5,2.6l0.3-0.7l-0.1-1h-0.7c0.1,1.2-0.2,1.8-0.7,1.8h-0.3c-0.5-0.1-1-0.6-1.5-1.6c2.1-0.8,3.2-1.3,3.2-1.5
		c-0.6-1.4-1.1-2.1-1.5-2c-0.2,0-0.9,0.7-2.1,2.2l-0.7-0.3c-0.2,0.6-0.7,1.2-1.7,1.8c-0.6-0.5-0.9-1.2-0.9-2l-2.5,0.1
		c-0.1-0.8-1.3-2.3-3.9-4.7V386l0.3-0.8l-2.6-8.2c-0.9-1-1.7-1.6-2.3-1.7c0,0.3-0.1,0.4-0.3,0.4c-0.3-0.5-0.4-0.8-0.4-1
		c-0.1-0.8,1.1-1.7,3.5-2.6c-0.3-0.7-0.5-1-0.9-1c-0.4,0.3-0.7,0.4-1,0.4l-0.4-0.7c0-0.4,0.8-1.3,2.4-2.6v-0.3
		c-0.4-0.9-0.8-1.4-1.2-1.4c0,0.5-0.2,0.7-0.7,0.8c-0.5-0.6-0.7-1-0.8-1.4l-0.7,0.4l-1.5,0.1l-0.1-0.7c1.7-1,2.6-1.6,2.6-1.9
		l-0.1-0.4l-0.5-0.6c0.3-0.4,0.4-0.9,0.4-1.5v-0.7l-1.1,0.8l-0.4-0.7c0.2-0.5,0.3-0.8,0.3-1l-2.1,3.2l-0.3-0.6l-0.2-3.2l-0.9-1
		c0-0.6,1-1.1,2.9-1.5h0.4v0.7l1.2-0.1c6.8-1.5,10.1-2.9,10.1-3.9l-0.1-0.4l-0.3,0.1c0,0.5-0.6,1-1.8,1.5c-1,0-1.5-0.6-1.5-1.7
		c-6.4,0.8-10,1.6-10.5,2.2h-0.4c-0.4,0.1-1-1.1-1.6-3.4c0.9-1.4,1.4-2.4,1.3-2.9l-0.7-0.3c0,0.3-0.1,0.4-0.4,0.4
		c-0.3-0.5-0.4-0.8-0.4-1c-0.1-0.7,0.3-1.1,1.1-1.2v-0.3h-0.8v0.4c-0.4-0.2-0.9-0.3-1.4-0.3l-0.1-0.7c0.1-0.5,0.3-0.7,0.7-0.7h0.3
		c0.9,0.6,1.8,0.9,2.6,0.9l0.4-0.8l-1.1,0.1v-0.4l0.3-0.7l-0.7,0.1l-0.1-0.7l1.9-0.1V343c-2.2-0.2-3.5-0.2-4-0.2l-0.1-1.1
		c0-0.5,0.5-0.7,1.4-0.7l-0.4-0.7c0-0.3,0.1-0.4,0.3-0.4c0-0.2-0.1-0.3-0.3-0.3l0.2-2.5l-0.1-0.4c0-0.5-0.2-0.7-0.7-0.6l-1.1,1.5
		c0.3-0.1,0.5,0.1,0.5,0.3l-0.8,0.4h-0.7c-1.1-0.9-2-1.3-2.6-1.2c-1.3,0.3-2.3,0.4-2.9,0.5v-0.4c-0.4,0.1-1.1,0.7-2.1,1.9h-0.3
		c-0.3,0-0.5-0.1-0.5-0.3l-1.4,0.8c-2-0.3-3-1-3-2.3c0.2,0,0.3-0.1,0.3-0.4l-0.7-0.3c-0.9,1.8-1.3,3.2-1.3,4.3l1.5,0.6
		c-0.4,1.5-1,2.3-1.7,2.6l-2.6-1.3l-0.1-0.3l0.7-1.1c-0.1-0.5-0.3-0.7-0.8-0.7c0.1,0.4-0.3,0.7-1.1,1.1c-2.2-0.3-3.3-1.3-3.4-2.9
		c-0.1-1.5-0.4-2.3-1.2-2.4h-0.8v0.4c0.1,0.4,0.4,1,0.9,2c-0.3,2.4-0.7,3.6-1.3,3.6h-0.4c-0.1-0.9-0.6-1.4-1.5-1.3v-1
		c0.6-1.1,0.9-1.9,0.9-2.5l-2.2-1c-0.4,0.1-0.9,0.7-1.7,1.9c-1-0.3-1.5-0.6-1.5-1c-0.8,0.3-1.2,0.4-1.4,0.4l-2.2-0.2
		c0,0.3-0.1,0.4-0.4,0.4c-0.1-0.5-0.3-0.7-0.7-0.7c-0.5,1-1.2,1.5-2.2,1.5l0.1,0.3l0.7,1c0.2,2.9-2.1,5.7-6.8,8.4
		c-0.5-0.2-1-0.3-1.5-0.3v0.4c0.3,0.4,0.4,0.7,0.4,1l1.1-0.7l0.7-0.1c0.4,0,0.7,0.3,1.2,1c-1.1,1.9-2,2.9-2.8,2.9l0.1,1.7h0.8v0.3
		c0.1,0.4-0.3,0.7-1.1,1.1l-0.7-0.3c0.1,0.7-0.4,1.1-1.4,1.2l0.1,2.1c-1.4,1.2-2.1,2.1-2,2.6c0.2-0.1,0.5,0,1,0.2
		c-0.2,0.5-0.3,0.8-0.3,1.1l-0.7-0.3c0.2,2.7-1.2,4.8-4,6.5l0.4,0.6c0.1,1.1-2.2,4.9-6.8,11.3l-3.6-0.2c0,0.5-0.2,0.7-0.7,0.8
		l-1.8,0.1c-0.9-0.3-3.3-1.5-7.3-3.6c-1,0.1-2.8-1.2-5.3-3.6c-1.7,0.1-3.1-0.6-4.4-2.2l5.3-12.9c-0.3-0.4-0.4-0.7-0.4-1
		c0.6-0.1,1.4-1.6,2.3-4.6l1-0.1l0.8,0.3c-0.2-3.9,1-5.9,3.4-6c0-0.3,0.1-0.6,0.3-1.1l-0.5-2.1l-0.1-0.7c0.3-1,2.4-2,6.5-3.1h0.3
		l-0.1-1.7h-0.7c0.1,0.9-0.2,1.4-0.7,1.4l-0.7,0.1c-0.4,0-0.9-0.4-1.5-1.3l1.1-0.8l0.8,0.3l0.3-0.7l-0.8-1v-0.4
		c1-1.7,2.5-2.9,4.5-3.6l1.5-0.1l0.1,0.7c-1,0.1-1.5,0.3-1.5,0.8l1.1-0.1l2.6-0.9l-0.1-1.4l-0.4,0.1c-0.4,0.3-0.8,0.4-1.1,0.4
		c-0.1-0.6-0.7-0.9-1.9-1c-0.5,0.3-0.8,0.4-1,0.4l-0.4-0.6c1.4-2.7,2.8-4.4,4.1-5.1l-0.5-1.7c0.5-1.9,0.9-2.9,1.2-2.9s0.9,1,1.6,3.1
		c-0.2,0.5-0.3,0.8-0.3,1c0.3,0.5,0.4,0.8,0.5,1.1c0.5-0.1,0.7-0.4,0.7-1.1c-0.3-0.5-0.5-0.8-0.5-1.1c0.4-0.3,0.9-0.4,1.5-0.4
		l-0.1-0.7c-2-1.8-3-2.8-3.1-3c1.7-0.8,2.5-1.9,2.5-3.2c-0.3-0.4-0.5-0.7-0.5-1c0.5-1.7,1-2.5,1.3-2.6c0.1,0.4,0.4,0.7,1.2,1H44
		c-0.1-0.7,0.5-1,1.8-1.1c-0.1-0.4-0.4-0.7-1.2-1v0.7h-0.3c-0.5,0-0.7-0.2-0.8-0.7c0-0.5,0.3-0.7,1-0.7v-0.4l-1,0.1l-0.1-0.7
		c2.1-1.1,3.1-3.3,2.9-6.4c0.4-2.4,0.9-3.6,1.6-3.6c0.3-0.1,0.4,0.1,0.4,0.3l0.8-0.4l0.7,0.3c0.4-0.6,0.6-1.4,0.5-2.5h0.8
		c0.5-0.1,0.7,0.3,0.8,1h0.4c0.5-0.7,1.6-1.1,3.2-1.2c0.6,0.7,1.2,1,1.9,1c0.5-0.3,0.9-0.4,1.2-0.4l-0.5-0.7l0.3-2.1
		c-1.1,0.3-2.1,0.8-2.9,1.5c-0.8-0.4-1.4-0.6-1.9-0.6l-2.2,0.5c-0.3-0.4-0.4-0.9-0.4-1.4l-1.1,0.8h-0.4l-0.1-1.7
		c0.5-0.1,1.1-1.5,2-4.3h0.7c0.4,1.4,0.9,2.7,1.6,3.8l1.8-0.9c-0.5-0.7-0.8-1.4-0.8-2l-0.2-3.5l-0.5-1.7c0.5-0.1,0.8-0.3,0.8-0.8
		c-0.5,0-0.8-0.2-0.9-0.7v-0.3l0.4-1.8h0.7c-0.2,0.5-0.3,0.8-0.3,1.1v0.3h0.4l0.2-1.8c0-0.2-0.2-0.9-0.5-2.1c0.4,0,1.1-0.5,2.1-1.5
		l0.8,1c1.1-0.5,1.7-1,1.8-1.5c-1.3,0.1-2.3-0.5-2.9-1.6c0.4-0.6,0.6-1,0.6-1.4l1.1-0.1l0.1,0.7l1.4-0.1l-0.1-1l-1.1-1.4
		c0.9-0.7,2-1.1,3.2-1.2h0.7c-0.1-0.5,0.7-1.3,2.4-2.2c0.1-0.5,0.3-0.7,0.7-0.7c0.5,0.1,0.7,0.3,0.8,0.6v1.1l1.2,0.6h0.4
		c0.4,0,0.8-0.5,1.4-1.5v-0.7l-1.9-0.2l-0.1-0.7c0-0.5,0.5-0.7,1.4-0.8l-1.5-1.3c0-0.3,0.1-0.4,0.4-0.4l-0.4-0.7l0.3-2.1l-0.9-1
		v-0.7l0.3-0.8c-0.5,0.1-0.7-0.2-0.8-0.6c0.3-0.9,0.6-1.4,1-1.5l-0.4-1.7L67,256L69.7,252.8z M20.8,368.6l0.7-0.1l-0.1-0.7
		C20.9,367.9,20.7,368.2,20.8,368.6z M21.6,366.5c0.2,1.4,0.6,2.1,1.2,2h0.4c3.9-1.1,5.9-1.9,5.9-2.2
		C25.5,366.6,23,366.7,21.6,366.5z M21.8,370l0.2,2.1c2.6-0.3,4.3-0.2,5,0.2h0.3V372c-3.4-0.8-5-1.4-5-2H21.8z M24.5,362.5v1.4h0.4
		l-0.1-1.4H24.5z M25.6,356.1v0.7c0.5-0.1,0.8,0.1,0.8,0.3c0.9-0.5,1.8-0.8,2.9-0.9c1,0.9,2,1.4,3,1.3c-0.1-0.4,0.3-1,0.9-1.9
		l-0.4-0.6c0.5-1,0.7-1.7,0.6-2.2l-2.2,0.1C29.6,354.7,27.7,355.8,25.6,356.1z M26.6,362.7v0.4l0.7-0.1v-0.3H26.6z M34,356.8
		l-0.4,0.7v0.3l4.6-0.4v-0.4C38.1,356.6,36.7,356.5,34,356.8z M36.6,334.6c0.1,1.5-0.7,3-2.3,4.3l0.1,0.7h0.3
		c0.5-0.3,0.9-0.4,1.2-0.4l0.3,0.7l0.7-0.4l1.2,0.6c0.5-0.7,0.8-1.5,0.9-2.5C37.9,335.6,37.2,334.6,36.6,334.6z M34.7,346.2v0.7
		c0.5,1.2,1.3,1.8,2.6,1.7c0.1-0.5,0.3-0.8,0.7-0.8l0.1,0.7l5.3-0.5c0.5,0,0.7-0.2,0.6-0.7V347c-5-0.2-7.5-0.5-7.5-0.9v-0.3
		L34.7,346.2z M39.4,332.1v0.7l0.4-0.1c1.9-0.8,3-1.2,3.2-1.2l-0.1-1.4c-0.5,0-0.7-0.1-0.7-0.3C40.4,330.8,39.5,331.5,39.4,332.1z
		 M40.3,336.6v0.7c0.3-0.1,0.6,0.1,1.2,0.3c3.7-0.9,5.5-1.5,5.5-1.9v-0.3l-4.2,0.4L40.3,336.6z M44.2,318.9v0.7l0.4-0.1
		c0.5,0,0.7-0.2,0.7-0.7L44.2,318.9z M44.4,323.8c0.2,1.4,0.6,2.1,1.2,2H46c3.9-1.1,5.9-1.9,5.9-2.2
		C48.2,323.9,45.7,323.9,44.4,323.8z M44.6,327.3l0.1,2.1c2.6-0.3,4.3-0.2,5,0.2h0.3v-0.4c-3.2-0.7-4.9-1.4-5-1.9H44.6z M44.8,310.5
		l0.1,0.7h0.4v-0.7H44.8z M49.5,334.9l-1.8-0.3c0,0.5-0.1,1-0.3,1.5c0.5,0.7,0.8,1.3,0.8,1.7l2.6-0.5l1.1-0.1c0.2,0,0.3,0.1,0.4,0.3
		c1.7-0.5,2.5-1,2.5-1.5c-0.1-1.1-0.5-2.1-1.2-2.8C52,334.3,50.7,334.8,49.5,334.9z M47.8,303h1.5v-0.7h-0.8
		C48,302.4,47.8,302.6,47.8,303z M48.2,305.1v0.4c0.1,0.5,0.4,0.7,0.9,0.6c0.5,0,0.7-0.2,0.6-0.7v-0.7
		C49.3,304.9,48.8,305.1,48.2,305.1z M48.4,343.3l0.1,0.7c0.5-0.1,0.7-0.3,0.7-0.8L48.4,343.3z M48.9,317.6c0.4,0,2,0.1,4.9,0.3
		l0.4-0.1c0-0.2-1-0.7-3.1-1.7l-0.8,0.1C49.9,316.2,49.4,316.7,48.9,317.6z M53.7,306.6c0.1,1-1.5,2.6-4.8,4.7v0.4l0.4,0.6
		c0.5-0.2,0.8-0.3,1.1-0.4l0.8,0.3c1.2-0.1,1.9-0.8,2-2.2h0.7c0.6,0.1,0.9,0.3,0.9,0.6c-0.3,0.1-0.4,0.2-0.3,0.4
		c3,0.2,4.8,0.2,5.2,0.2v-0.4c-2.3-0.4-4-1.8-5.1-4.4L53.7,306.6z M61,316.5l-1.5-0.6c-1.2,0.7-1.8,1.2-1.7,1.5
		c0.1,1.4-0.7,2.6-2.4,3.6c0.5,0.2,0.9,0.3,1.2,0.3v0.7l-2.6,0.5c0-0.5-0.2-0.7-0.7-0.6c-0.5,0-0.7,0.4-0.7,1.1c0.3,0.7,0.5,1,0.8,1
		c0.4-0.3,0.8-0.4,1.1-0.5c0.1,0.5-0.3,0.7-1.1,0.8l0.1,1.4c0.5,0,1.6-0.7,3.6-2.2l-0.4-0.7l-0.1-0.7c1.3,2.1,2.5,3.1,3.4,3v-0.4
		c-0.1-0.8,0.2-1.5,0.6-2.1c0-0.5-1-1.1-3-1.6v-1c1.9-1.4,2.8-2.3,2.8-2.6l0.7-0.4h0.7c0.5,0.1,0.8,0.3,0.8,0.7l-0.3,0.7
		c1,0.4,1.7,0.6,2.2,0.6c0.4-0.6,1-1.8,1.6-3.6l-0.3,0.1c-0.5,0.3-0.9,0.4-1.2,0.4c-0.8-0.7-1.2-1.3-1.2-1.7H63
		C62.6,314,61.9,314.8,61,316.5z M53,338.9c0.1,0.5,0,1-0.2,1.4c0.5,1,1,1.6,1.5,1.7c0-0.2,0.1-1.1,0.3-2.8l-0.9-0.3H53z M53,290.5
		h0.7v1.1c-0.5,0-0.7-0.2-0.7-0.7V290.5z M54.7,328l-0.4,0.7l2.6,0.6v-0.4C56.6,328.2,55.8,327.9,54.7,328z M55.9,305.8v0.4l2.9-0.2
		l3.6,2.4h0.7c0-0.7,0.4-1.1,1.1-1.1l-0.8-1c0.3-0.5,0.4-0.8,0.4-1.1c-2.6-0.2-3.9-0.4-3.9-0.6c0.4-0.1,0.7-0.4,1.1-1.2l-0.1-0.3
		c0-0.4-0.4-0.7-1.2-1l-1,0.1L55.9,305.8z M56.6,282.3l0.1,0.7c0,0.4,0.4,0.7,1.1,1v-0.3l-0.5-2.1C56.8,281.7,56.6,282,56.6,282.3z
		 M57.5,293.8c0,0.3,0.4,0.6,1.2,1c0.5-0.1,0.7-0.3,0.7-0.8c-0.5,0.1-0.7-0.3-0.8-1l-0.4,0.1C57.8,293.2,57.5,293.4,57.5,293.8z
		 M58.4,290.7l0.4,0.7c-0.2,0.5-0.3,0.8-0.2,1h1c-0.1-0.6,0.2-1.2,0.7-1.8l-0.8-0.3h-0.4L58.4,290.7z M58.8,283.3
		c1.1,2,2.7,3,4.8,2.9c0.4-2.3,0.6-3.7,0.6-4.3c-0.5,0.1-0.8-0.2-0.9-0.6C62.1,282.1,60.5,282.8,58.8,283.3z M60.8,344.1
		c0.5,0.1,0.7,0.3,0.8,0.6v0.4c0,0.5-0.6,0.9-1.8,1.1l-0.4-0.6C59.5,345.2,59.9,344.7,60.8,344.1z M71.8,292.3
		c0,0.3-0.5,0.7-1.4,1.1l-5.6,0.2h-0.4l-1.8,1.2l0.4,0.6l0.1,0.4l-0.7,1.1l0.5,1.7l4.9-0.5l-0.1-1.7c0.1-0.7,1.1-1.1,2.9-1.2
		l0.3-0.1l0.1,1.4c0.8-0.7,1.4-1.1,1.8-1.1c-0.1-0.5-0.3-0.7-0.8-0.7l0.6-2.1L71.8,292.3z M62.6,311.6l1.1-0.1l3.2-2.2l-0.7,0.1
		c-0.5,0.3-0.9,0.4-1.1,0.4c-0.3-0.4-0.4-0.9-0.5-1.4h-0.3C63.6,308.4,63,309.5,62.6,311.6z M63.2,290.8v0.3h0.8v-1.1
		C63.4,290.2,63.2,290.4,63.2,290.8z M70.4,274.4c0.1,0.5-0.2,0.7-0.6,0.7l-0.8-0.3c-1.2,0.3-2.1,0.9-2.8,1.9l-0.8,0.1l-1.1-0.7
		c0.1,1.2-0.3,1.8-1.1,1.8l0.5,1.8l0.1,1.4l1.4-0.1c0.1-2.1,0.3-3.4,0.5-3.9c1.2,0.3,1.9,1,1.9,2h-0.4l-0.8-0.3l0.1,0.4
		c1,1,1.5,1.5,1.5,1.6c-0.5,0.1-1.3,1.1-2.4,3.2l-0.4,0.1v0.3h0.8l2.5-0.9c0.1,0.5,0.4,0.7,0.8,0.7h0.4c-0.6-0.8-0.9-1.4-0.9-1.8
		c0.4,0,0.7-0.8,1-2.5l-1.5-1.6l2.8-1.9c0.5,0.1,0.8,0.3,0.8,0.7c-0.2,0-0.3,0.1-0.3,0.4c0.5,0.1,0.7,0.3,0.7,0.6
		c1.4-0.8,2.3-1.2,2.5-1.2l-0.1-1c0-0.4-0.4-0.7-1.1-1l-1.1,0.8h-0.3L70.4,274.4z M65.1,262.7c0.6,1.9,1.2,3.1,1.6,3.8v0.3l-0.3,0.1
		l-1.5-1c0.1,1.7-0.1,2.5-0.5,2.5c-0.5,0-0.8-0.2-0.9-0.7c0-0.2,0.2-0.3,0.5-0.3l-0.5-0.7c0.7-0.9,1-1.7,1-2.2
		c-0.3-0.4-0.4-0.7-0.4-1L65.1,262.7z M63.8,321.6l0.1,1.1c0.5-0.1,0.7-0.3,0.6-0.8v-0.3H63.8z M65.5,286.2v0.3
		c0.2,0.5,0.4,0.7,0.8,0.7l0.4-0.8l-0.8-0.3L65.5,286.2z M67.1,315.5v0.4l1.8-0.5c0-0.5-0.2-0.7-0.7-0.6h-0.4
		C67.3,314.9,67.1,315.2,67.1,315.5z M67.6,309.2c0.3,0,0.6,0.1,1.1,0.3l0.3-0.8l-0.1-1C68.5,307.8,68.1,308.3,67.6,309.2z
		 M68,302.6l0.1,1.7c1.9,0.3,2.9,1,2.9,2l0.5-0.1c0.5,0,0.7-0.2,0.6-0.7l-0.1-2.1l-1.8,0.5h-0.4l-0.1-1.8L68,302.6z M72.5,256.5
		l-0.3,1.5h-0.3l-0.9-0.3l0.1,0.7c0.3,0.4,0.5,0.7,0.5,1h0.7c0.5-0.1,0.7-0.3,0.7-0.8l-0.2-2.1H72.5z M71.5,252h0.7v0.7h-0.6
		L71.5,252z M71.8,281c0,0.3,0.5,0.6,1.5,0.9v-1L71.8,281z M72.4,263.1l0.1,0.7h0.3v-0.7H72.4z M73.2,263.8v0.7l0.7-0.1v-0.7
		L73.2,263.8z M73.7,251.5h1c0.1,0.5-0.2,0.7-0.6,0.7h-0.4V251.5z M74.4,293.2c0.5,0.5,0.8,1.2,0.9,2h0.4c0.3,0,0.9-0.6,1.7-1.8
		c-0.2-1.7-0.5-2.5-0.9-2.5C75.7,291.2,75,292,74.4,293.2z M79.4,337.3l0.1,1.1c0.3-0.1,0.6-0.4,1-1.1H79.4z M83.1,277.4
		c0,0.2-0.7,0.9-2.1,2.2c0.1,0.5,0.3,0.7,0.7,0.7c0.6-0.1,1.3-0.8,2.1-2.2C83.8,277.7,83.6,277.4,83.1,277.4z M82.3,336.2h0.8
		l-0.1-0.7C82.5,335.5,82.2,335.8,82.3,336.2z M86.5,325.9l-2,2.5v0.4h0.3c0.8-0.3,1.7-1,2.8-2.2L86.5,325.9z M89.6,305.5h0.3
		c0.5,0.1,0.8,0.3,0.8,0.6c-0.5,0.6-0.7,1.2-0.7,1.8l-0.7,0.1c-0.4,0-0.6-0.2-0.7-0.7C88.8,306,89.1,305.5,89.6,305.5z M91.6,280.9
		l-1.8,0.1l-0.2,3.5l1.8-0.1c-0.1-1.1,0.6-1.9,2.1-2.2v-0.4c-0.7,0.1-1.1-0.4-1.2-1.3L91.6,280.9z M91.3,340.7c0.6,0,1,0.6,1.2,1.7
		l-1.1,0.8H91l-1.2-0.7C90.3,341.4,90.7,340.8,91.3,340.7z M90.8,258.6v0.3c0,0.6,0.6,0.9,1.9,1c0-0.3,0.1-0.4,0.3-0.4
		c-0.3-0.4-0.4-0.7-0.4-1L90.8,258.6z M94,272h0.7l3.2-1.2v-0.3C95.3,270.8,94,271.4,94,272z M94,258.8l0.1,0.7l0.3-0.1v-0.7
		L94,258.8z M96.8,288.4l0.4,0.6c1.2-0.3,1.8-0.7,1.7-1.1l-0.7-0.3C97.7,288,97.2,288.3,96.8,288.4z M97.6,296.7v0.3H98l1.8-0.5v-1
		C98.3,295.9,97.6,296.2,97.6,296.7z M98.7,297.3v0.3h0.7v-0.3H98.7z M100.4,287.8c0.1,0.9-0.3,1.8-1,2.5c0.5,0,0.8,0.1,0.9,0.3
		c1.9-0.1,3.4-0.9,4.6-2.6h-0.7l-1.1,0.8h-0.4l-1.5-0.9H100.4z M100.3,285.3l0.7,0.4l0.5-0.1c0.2,0,1.1-1.2,2.7-3.6l-0.4-0.7
		C101.4,282.3,100.2,283.6,100.3,285.3z M102.2,294.7v1.4l-0.3,0.1v0.3c0.4,0,1.4,0.2,2.9,0.5c1.7-0.5,2.5-1.4,2.5-2.6l-0.8,0.1
		l-1.1,0.7l-0.8,0.1v-0.7L102.2,294.7z M103.1,318.1c0.5,0.1,0.8,0.3,0.8,0.6l-0.6,0.4c-0.5,0.1-0.8-0.2-0.9-0.6L103.1,318.1z
		 M106.3,281.2c0-0.2-0.1-0.3-0.4-0.3l0.1,0.7l0.4,0.7l0.8-0.4h0.7v1h0.7l-0.1-2.5C107.5,281,106.8,281.2,106.3,281.2z M106,305.8
		c0,0.3,0.4,0.6,1.2,0.9h0.7v-0.3c-0.1-0.5-0.3-0.7-0.8-0.7L106,305.8z M108,323.5v0.3c0.5,0,0.7,0.5,0.8,1.4l2.6-0.2
		c0-0.9,0.3-1.4,1-1.4v-0.4l-1.8,0.5h-0.4c-0.5,0-0.7-0.2-0.7-0.7C109,323.3,108.5,323.4,108,323.5z M109.1,377.6v0.3h0.7v-0.4
		L109.1,377.6z M112.3,346.3l-1.9-0.2l-1.2,2.2v0.3h1l2.2-1.2c0.1,0.9,0.9,1.5,2.6,1.6l0.1,0.7l0.7-0.1c-0.1-1.3,0.6-2.2,2-2.5
		l1.5,0.2l1.8-1.1c0.4,0.2,0.9,0.3,1.5,0.2l0.3-0.7v-1h-0.4l-1.1,0.8c-0.6,0-1.3-0.2-2.2-0.6c0,0.3-0.1,0.6-0.3,1l-0.8-0.3l-1,0.8
		l-1.2,0.1v-0.4l0.7-1.1c-1.5,0.1-2.2,0-2.2-0.2C114.2,344.8,113.5,345.3,112.3,346.3z M110,297.2c0,0.6-0.2,1.2-0.6,1.8
		c0,0.4,0.9,0.7,2.6,0.9c-0.1-0.5,0.4-0.7,1.4-0.8c0-0.6-0.3-1.3-0.9-2c-0.2,0-0.3,0.1-0.3,0.3l-1.9-0.2H110z M110.1,330.7l0.8,0.3
		h0.3c0.6-0.5,1.1-0.7,1.5-0.8l-0.2-1.4l-0.3,0.1C111.2,329.3,110.5,329.9,110.1,330.7z M112.5,289c0.4-0.1,0.8,0.4,1.2,1.3
		l-0.7,0.4l-1.1,0.1c0-0.3-0.1-0.6-0.4-1.1L112.5,289z M113.4,352.2h0.7l-0.1-0.7C113.5,351.6,113.3,351.8,113.4,352.2z
		 M115.2,322.1v-0.3c-1.2,0.2-1.8,1-1.7,2.5h0.3l1.9-0.5c0.7,1.6,1.2,2.4,1.5,2.4h0.4c-0.1-0.5,0.5-1.4,1.6-2.9v-0.4
		c-0.7-1.1-1.2-1.6-1.5-1.6L115.2,322.1z M113.5,340.7v0.4c0.1,0.5,0.3,0.7,0.7,0.6h1.2c-0.1-0.4,0.2-0.9,0.6-1.5
		c-0.3,0.1-0.4-0.1-0.4-0.3C114.9,340.4,114.2,340.7,113.5,340.7z M114.9,345.8l0.1,1.1c-0.5,0-0.8-0.2-0.8-0.7L114.9,345.8z
		 M118.2,355.5c0.1,0.8-0.6,1.3-2.1,1.5v0.7c1.9,0.2,3.1,0.3,3.7,0.5l1.8-1.2l0.8,0.3c0.2,0,0.3-0.1,0.3-0.3l1.9,0.2l1.5-0.1
		l-0.1-0.7c0-0.6-0.5-0.9-1.5-0.9c-0.5,0.3-0.9,0.4-1.2,0.4c0-0.5-0.2-0.7-0.7-0.7c0,0.4-0.4,0.7-1.1,1.1l-0.3,0.1
		C120.6,356.1,119.6,355.8,118.2,355.5z M116.4,370.2h0.7v-0.7C116.6,369.6,116.4,369.9,116.4,370.2z M117.3,390.2v0.7l0.7-0.1v-0.7
		L117.3,390.2z M118.9,353c0,0.7-0.4,1-1.1,1.1c0,0.3,0.4,0.6,1.2,1h0.3c0.5-0.1,0.7-0.3,0.7-0.8V354
		C119.9,353.7,119.6,353.4,118.9,353z M118.5,367.7c0.1,0.7-0.2,1.5-0.7,2.5l1.5,0.6c-0.1-0.7,0.1-1.1,0.3-1.1
		C119.2,368.4,118.9,367.7,118.5,367.7z M119.3,364.2l0.1,0.7c0.1,0.5,0.4,0.7,0.8,0.7c0.7-0.8,1.3-1.2,1.7-1.2
		c-0.3-1.1-0.6-1.7-0.8-1.7C120,363.2,119.4,363.7,119.3,364.2z M119.7,371.1l0.1,1.1l0.8-0.1v-0.3
		C120.5,371.4,120.2,371.1,119.7,371.1z M120,317.7h0.4v0.7H120V317.7z M124.7,375.8v0.4h0.7v-0.4H124.7z M131.1,374.2l0.4-0.1
		l0.1,0.7l-0.5,0.1V374.2z M139.5,388.1c1.4,0.6,2.2,1,2.2,1.3v0.7c0.1,0.5-0.3,0.7-1.1,0.7l-2.6-0.5v-0.4
		C138.7,388.7,139.2,388.1,139.5,388.1z"/>
</g>
<path class="st1" d="M22.2,370c0,0.6,1.7,1.2,5,2v0.3h-0.3c-0.7-0.4-2.3-0.5-5-0.2l-0.2-2.1H22.2z"/>
<path class="st1" d="M29.1,366.3c0,0.4-2,1.1-5.9,2.2h-0.4c-0.6,0.1-1-0.6-1.2-2C23,366.7,25.5,366.6,29.1,366.3z"/>
<polygon class="st1" points="118,390.1 118,390.8 117.3,390.9 117.3,390.2 "/>
<path class="st1" d="M138.1,389.9v0.4l2.6,0.5c0.8,0,1.1-0.2,1.1-0.7v-0.7c-0.1-0.3-0.8-0.7-2.2-1.3
	C139.2,388.1,138.7,388.7,138.1,389.9z"/>
<polygon class="st1" points="109.8,377.6 109.8,378 109.1,378 109.1,377.6 "/>
<rect x="124.7" y="375.8" class="st1" width="0.7" height="0.4"/>
<polygon class="st1" points="131.1,374.9 131.6,374.8 131.5,374.1 131.1,374.2 "/>
<path class="st1" d="M120.5,371.8v0.3l-0.8,0.1l-0.1-1.1C120.2,371.1,120.5,371.4,120.5,371.8z"/>
<path class="st1" d="M117.1,369.5v0.7h-0.7C116.4,369.9,116.6,369.6,117.1,369.5z"/>
<path class="st1" d="M119.7,369.8c-0.3,0-0.4,0.4-0.3,1.1l-1.5-0.6c0.5-1,0.7-1.8,0.7-2.5C118.9,367.7,119.2,368.4,119.7,369.8z"/>
<path class="st1" d="M121.1,362.7c0.2,0,0.5,0.6,0.8,1.7c-0.4,0-1,0.4-1.7,1.2c-0.4,0-0.7-0.2-0.8-0.7l-0.1-0.7
	C119.4,363.7,120,363.2,121.1,362.7z"/>
<path class="st1" d="M21.4,367.8l0.1,0.7l-0.7,0.1C20.7,368.2,20.9,367.9,21.4,367.8z"/>
<path class="st1" d="M121.2,356.4l0.3-0.1c0.7-0.4,1.1-0.7,1.1-1.1c0.5,0,0.7,0.2,0.7,0.7c0.3,0,0.6-0.1,1.2-0.4
	c1,0.1,1.5,0.4,1.5,0.9l0.1,0.7l-1.5,0.1l-1.9-0.2c0,0.2-0.1,0.3-0.3,0.3l-0.8-0.3l-1.8,1.2c-0.6-0.2-1.8-0.4-3.7-0.5V357
	c1.5-0.2,2.2-0.7,2.1-1.5C119.6,355.8,120.6,356.1,121.2,356.4z"/>
<path class="st1" d="M120,354v0.3c0,0.5-0.2,0.7-0.7,0.8H119c-0.8-0.4-1.2-0.7-1.2-1c0.7-0.1,1.1-0.4,1.1-1.1
	C119.6,353.4,119.9,353.7,120,354z"/>
<polygon class="st1" points="27.3,362.7 27.3,363 26.6,363.1 26.6,362.7 "/>
<polygon class="st1" points="24.8,362.5 24.9,363.9 24.5,363.9 24.5,362.5 "/>
<path class="st1" d="M114,351.5l0.1,0.7h-0.7C113.3,351.8,113.5,351.6,114,351.5z"/>
<path class="st1" d="M38.2,357.1v0.4l-4.6,0.4v-0.3l0.4-0.7C36.7,356.5,38.1,356.6,38.2,357.1z"/>
<path class="st1" d="M114.2,346.2c0,0.5,0.3,0.7,0.8,0.7l-0.1-1.1L114.2,346.2z"/>
<path class="st1" d="M114.4,344.8c0,0.2,0.7,0.3,2.2,0.2l-0.7,1.1v0.4l1.2-0.1l1-0.8l0.8,0.3c0.2-0.4,0.3-0.7,0.3-1
	c0.8,0.4,1.5,0.6,2.2,0.6l1.1-0.8h0.4v1l-0.3,0.7c-0.6,0.1-1.1,0-1.5-0.2l-1.8,1.1l-1.5-0.2c-1.4,0.3-2.1,1.1-2,2.5l-0.7,0.1
	L115,349c-1.7-0.2-2.6-0.7-2.6-1.6l-2.2,1.2h-1v-0.3l1.2-2.2l1.9,0.2C113.5,345.3,114.2,344.8,114.4,344.8z"/>
<path class="st1" d="M31.2,353l2.2-0.1c0,0.5-0.2,1.2-0.6,2.2l0.4,0.6c-0.7,0.8-1,1.4-0.9,1.9c-1,0.1-2-0.4-3-1.3
	c-1,0.1-2,0.3-2.9,0.9c0-0.3-0.3-0.4-0.8-0.3v-0.7C27.7,355.8,29.6,354.7,31.2,353z"/>
<path class="st1" d="M59.5,345.6l0.4,0.6c1.2-0.2,1.8-0.6,1.8-1.1v-0.4c-0.1-0.4-0.3-0.6-0.8-0.6C59.9,344.7,59.5,345.2,59.5,345.6z
	"/>
<path class="st1" d="M115.6,339.9c0,0.3,0.1,0.4,0.4,0.3c-0.5,0.6-0.7,1.1-0.6,1.5h-1.2c-0.4,0.1-0.6-0.2-0.7-0.6v-0.4
	C114.2,340.7,114.9,340.4,115.6,339.9z"/>
<path class="st1" d="M49.2,343.2c0.1,0.5-0.2,0.7-0.7,0.8l-0.1-0.7L49.2,343.2z"/>
<path class="st1" d="M89.9,342.4l1.2,0.7h0.3l1.1-0.8c-0.2-1.1-0.6-1.7-1.2-1.7C90.7,340.8,90.3,341.4,89.9,342.4z"/>
<path class="st1" d="M36.5,345.8v0.3c0,0.4,2.6,0.6,7.5,0.9v0.4c0.1,0.5-0.2,0.7-0.6,0.7l-5.3,0.5l-0.1-0.7c-0.4,0-0.6,0.3-0.7,0.8
	c-1.3,0.1-2.2-0.5-2.6-1.7v-0.7L36.5,345.8z"/>
<path class="st1" d="M53.7,338.9l0.9,0.3c-0.2,1.7-0.3,2.6-0.3,2.8c-0.5-0.1-1-0.7-1.5-1.7c0.2-0.4,0.3-0.9,0.2-1.4H53.7z"/>
<path class="st1" d="M80.5,337.3c-0.4,0.7-0.7,1-1,1.1l-0.1-1.1H80.5z"/>
<path class="st1" d="M83,335.5l0.1,0.7h-0.8C82.2,335.8,82.5,335.5,83,335.5z"/>
<path class="st1" d="M42.8,335.7l4.2-0.4v0.3c0,0.4-1.8,1.1-5.5,1.9c-0.5-0.3-0.9-0.4-1.2-0.3v-0.7L42.8,335.7z"/>
<path class="st1" d="M38.9,337.6c-0.2,0.9-0.5,1.8-0.9,2.5l-1.2-0.6l-0.7,0.4l-0.3-0.7c-0.3,0-0.7,0.1-1.2,0.4h-0.3l-0.1-0.7
	c1.7-1.3,2.4-2.7,2.3-4.3C37.2,334.6,37.9,335.6,38.9,337.6z"/>
<path class="st1" d="M53.4,333.2c0.8,0.7,1.2,1.7,1.2,2.8c0.1,0.5-0.8,1-2.5,1.5c-0.1-0.2-0.2-0.3-0.4-0.3l-1.1,0.1l-2.6,0.5
	c0-0.4-0.3-1-0.8-1.7c0.2-0.5,0.3-1,0.3-1.5l1.8,0.3C50.7,334.8,52,334.3,53.4,333.2z"/>
<path class="st1" d="M112.2,328.9l0.3-0.1l0.2,1.4c-0.4,0.1-0.9,0.3-1.5,0.8h-0.3l-0.8-0.3C110.5,329.9,111.2,329.3,112.2,328.9z"/>
<path class="st1" d="M42.2,329.8c0,0.2,0.2,0.3,0.7,0.3l0.1,1.4c-0.2,0-1.3,0.4-3.2,1.2l-0.4,0.1v-0.7
	C39.5,331.5,40.4,330.8,42.2,329.8z"/>
<path class="st1" d="M56.9,328.9v0.4l-2.6-0.6l0.4-0.7C55.8,327.9,56.6,328.2,56.9,328.9z"/>
<path class="st1" d="M87.6,326.5c-1.1,1.2-2,2-2.8,2.2h-0.3v-0.4l2-2.5L87.6,326.5z"/>
<path class="st1" d="M44.9,327.3c0.1,0.6,1.8,1.2,5,1.9v0.4h-0.3c-0.7-0.5-2.3-0.5-5-0.2l-0.1-2.1H44.9z"/>
<path class="st1" d="M109.4,323c0,0.5,0.2,0.7,0.7,0.7h0.4l1.8-0.5v0.4c-0.7,0-1,0.5-1,1.4l-2.6,0.2c-0.1-0.9-0.3-1.4-0.8-1.4v-0.3
	C108.5,323.4,109,323.3,109.4,323z"/>
<path class="st1" d="M117.6,321.3c0.3,0,0.8,0.5,1.5,1.6v0.4c-1.1,1.4-1.7,2.4-1.6,2.9h-0.4c-0.4,0-0.9-0.8-1.5-2.4l-1.9,0.5h-0.3
	c-0.1-1.4,0.5-2.3,1.7-2.5v0.3L117.6,321.3z"/>
<path class="st1" d="M51.9,323.6c0,0.4-2,1.1-5.9,2.2h-0.4c-0.6,0.1-1-0.6-1.2-2C45.7,323.9,48.2,323.9,51.9,323.6z"/>
<path class="st1" d="M64.5,321.6v0.3c0.1,0.5-0.2,0.7-0.6,0.8l-0.1-1.1H64.5z"/>
<rect x="120" y="317.7" class="st1" width="0.4" height="0.7"/>
<path class="st1" d="M102.4,318.5c0.1,0.5,0.3,0.7,0.9,0.6l0.6-0.4c0-0.4-0.3-0.6-0.8-0.6L102.4,318.5z"/>
<path class="st1" d="M45.3,318.8c0.1,0.5-0.2,0.7-0.7,0.7l-0.4,0.1v-0.7L45.3,318.8z"/>
<path class="st1" d="M50.2,316.2l0.8-0.1c2.1,1,3.1,1.5,3.1,1.7l-0.4,0.1c-2.9-0.2-4.5-0.3-4.9-0.3
	C49.4,316.7,49.9,316.2,50.2,316.2z"/>
<path class="st1" d="M67.8,314.8h0.4c0.5-0.1,0.7,0.2,0.7,0.6l-1.8,0.5v-0.4C67.1,315.2,67.3,314.9,67.8,314.8z"/>
<path class="st1" d="M63,314h0.4c0,0.4,0.4,1,1.2,1.7c0.3,0,0.6-0.1,1.2-0.4l0.3-0.1c-0.7,1.8-1.2,3-1.6,3.6c-0.5,0-1.3-0.2-2.2-0.6
	l0.3-0.7c0-0.4-0.3-0.6-0.8-0.7H61l-0.7,0.4c0,0.4-0.9,1.2-2.8,2.6v1c2,0.6,3,1.1,3,1.6c-0.5,0.6-0.7,1.3-0.6,2.1v0.4
	c-0.9,0.1-2.1-1-3.4-3l0.1,0.7l0.4,0.7c-1.9,1.5-3.1,2.2-3.6,2.2l-0.1-1.4c0.8-0.1,1.1-0.3,1.1-0.8c-0.3,0.1-0.7,0.2-1.1,0.5
	c-0.3,0-0.5-0.3-0.8-1c0-0.7,0.2-1.1,0.7-1.1c0.5-0.1,0.7,0.2,0.7,0.6l2.6-0.5v-0.7c-0.3,0-0.7-0.1-1.2-0.3c1.7-0.9,2.5-2.1,2.4-3.6
	c-0.1-0.3,0.5-0.8,1.7-1.5l1.5,0.6C61.9,314.8,62.6,314,63,314z"/>
<polygon class="st1" points="45.3,310.5 45.3,311.2 44.9,311.2 44.8,310.5 "/>
<path class="st1" d="M64.3,308.3h0.3c0.1,0.5,0.2,1,0.5,1.4c0.2,0,0.6-0.1,1.1-0.4l0.7-0.1l-3.2,2.2l-1.1,0.1
	C63,309.5,63.6,308.4,64.3,308.3z"/>
<path class="st1" d="M107.1,305.7c0.5,0,0.7,0.2,0.8,0.7v0.3h-0.7c-0.8-0.3-1.2-0.6-1.2-0.9L107.1,305.7z"/>
<path class="st1" d="M68.9,307.8l0.1,1l-0.3,0.8c-0.5-0.2-0.8-0.3-1.1-0.3C68.1,308.3,68.5,307.8,68.9,307.8z"/>
<path class="st1" d="M88.5,307.2c0.1,0.5,0.3,0.7,0.7,0.7l0.7-0.1c0-0.6,0.2-1.2,0.7-1.8c0-0.4-0.3-0.6-0.8-0.6h-0.3
	C89.1,305.5,88.8,306,88.5,307.2z"/>
<path class="st1" d="M54.5,306.5c1.1,2.6,2.8,4.1,5.1,4.4v0.4c-0.4,0-2.1-0.1-5.2-0.2c-0.1-0.2,0-0.3,0.3-0.4c0-0.4-0.3-0.6-0.9-0.6
	h-0.7c-0.1,1.4-0.8,2.1-2,2.2l-0.8-0.3c-0.3,0.1-0.6,0.2-1.1,0.4l-0.4-0.6v-0.4c3.2-2.2,4.8-3.7,4.8-4.7L54.5,306.5z"/>
<path class="st1" d="M49.7,304.7v0.7c0.1,0.5-0.2,0.7-0.6,0.7c-0.5,0.1-0.7-0.2-0.9-0.6v-0.4C48.8,305.1,49.3,304.9,49.7,304.7z"/>
<path class="st1" d="M69.7,302.1l0.1,1.8h0.4l1.8-0.5l0.1,2.1c0.1,0.5-0.2,0.7-0.6,0.7l-0.5,0.1c-0.1-1-1-1.7-2.9-2l-0.1-1.7
	L69.7,302.1z"/>
<path class="st1" d="M58.7,302.2l1-0.1c0.8,0.3,1.2,0.6,1.2,1l0.1,0.3c-0.4,0.7-0.7,1.1-1.1,1.2c0,0.2,1.3,0.4,3.9,0.6
	c0,0.3-0.1,0.6-0.4,1.1l0.8,1c-0.7,0-1.1,0.4-1.1,1.1h-0.7l-3.6-2.4l-2.9,0.2v-0.4L58.7,302.2z"/>
<path class="st1" d="M48.5,302.3h0.8v0.7h-1.5C47.8,302.6,48,302.4,48.5,302.3z"/>
<path class="st1" d="M110.3,297.2l1.9,0.2c0-0.2,0.1-0.3,0.3-0.3c0.6,0.7,0.9,1.4,0.9,2c-1,0.1-1.4,0.3-1.4,0.8
	c-1.7-0.3-2.6-0.6-2.6-0.9c0.4-0.6,0.6-1.2,0.6-1.8H110.3z"/>
<rect x="98.7" y="297.3" class="st1" width="0.7" height="0.3"/>
<path class="st1" d="M99.8,295.5v1L98,297h-0.4v-0.3C97.6,296.2,98.3,295.9,99.8,295.5z"/>
<path class="st1" d="M104.7,294.6v0.7l0.8-0.1l1.1-0.7l0.8-0.1c0.1,1.2-0.8,2-2.5,2.6c-1.5-0.4-2.5-0.5-2.9-0.5v-0.3l0.3-0.1v-1.4
	L104.7,294.6z"/>
<path class="st1" d="M72.5,292.6l-0.6,2.1c0.5,0,0.7,0.2,0.8,0.7c-0.4,0-1,0.4-1.8,1.1l-0.1-1.4l-0.3,0.1c-1.8,0.1-2.8,0.4-2.9,1.2
	l0.1,1.7l-4.9,0.5l-0.5-1.7l0.7-1.1l-0.1-0.4l-0.4-0.6l1.8-1.2h0.4l5.6-0.2c0.9-0.4,1.4-0.8,1.4-1.1L72.5,292.6z"/>
<path class="st1" d="M58.2,293.2l0.4-0.1c0.1,0.7,0.3,1.1,0.8,1c0,0.5-0.2,0.7-0.7,0.8c-0.8-0.4-1.2-0.7-1.2-1
	C57.5,293.4,57.8,293.2,58.2,293.2z"/>
<path class="st1" d="M111.5,289.7c0.3,0.5,0.4,0.8,0.4,1.1l1.1-0.1l0.7-0.4c-0.4-0.9-0.7-1.4-1.2-1.3L111.5,289.7z"/>
<path class="st1" d="M76.5,291c0.4,0,0.6,0.8,0.9,2.5c-0.8,1.2-1.4,1.8-1.7,1.8h-0.4c-0.1-0.8-0.3-1.5-0.9-2
	C75,292,75.7,291.2,76.5,291z"/>
<path class="st1" d="M53,290.9c0,0.5,0.2,0.7,0.7,0.7v-1.1H53V290.9z"/>
<path class="st1" d="M101.1,287.8l1.5,0.9h0.4l1.1-0.8h0.7c-1.1,1.7-2.7,2.6-4.6,2.6c-0.1-0.2-0.3-0.3-0.9-0.3
	c0.7-0.7,1.1-1.5,1-2.5H101.1z"/>
<path class="st1" d="M63.9,290.1v1.1h-0.8v-0.3C63.2,290.4,63.4,290.2,63.9,290.1z"/>
<path class="st1" d="M59.1,290.3h0.4l0.8,0.3c-0.5,0.6-0.7,1.2-0.7,1.8h-1c-0.1-0.2,0-0.5,0.2-1l-0.4-0.7L59.1,290.3z"/>
<path class="st1" d="M98.2,287.6l0.7,0.3c0.1,0.4-0.5,0.8-1.7,1.1l-0.4-0.6C97.2,288.3,97.7,288,98.2,287.6z"/>
<path class="st1" d="M65.9,286.1l0.8,0.3l-0.4,0.8c-0.4,0-0.6-0.2-0.8-0.7v-0.3L65.9,286.1z"/>
<path class="st1" d="M103.8,281.4l0.4,0.7c-1.6,2.4-2.5,3.6-2.7,3.6l-0.5,0.1l-0.7-0.4C100.2,283.6,101.4,282.3,103.8,281.4z"/>
<path class="st1" d="M108.4,280.5l0.1,2.5h-0.7v-1h-0.7l-0.8,0.4l-0.4-0.7l-0.1-0.7c0.3,0,0.4,0.1,0.4,0.3
	C106.8,281.2,107.5,281,108.4,280.5z"/>
<path class="st1" d="M92.3,280.5c0.1,0.9,0.4,1.4,1.2,1.3v0.4c-1.4,0.3-2.1,1-2.1,2.2l-1.8,0.1l0.2-3.5l1.8-0.1L92.3,280.5z"/>
<path class="st1" d="M73.3,280.9v1c-1-0.3-1.5-0.6-1.5-0.9L73.3,280.9z"/>
<path class="st1" d="M63.4,281.4c0.1,0.5,0.3,0.7,0.9,0.6c0,0.6-0.2,2-0.6,4.3c-2.1,0.1-3.7-0.9-4.8-2.9
	C60.5,282.8,62.1,282.1,63.4,281.4z"/>
<path class="st1" d="M57.3,281.6l0.5,2.1v0.3c-0.7-0.3-1.1-0.6-1.1-1l-0.1-0.7C56.6,282,56.8,281.7,57.3,281.6z"/>
<path class="st1" d="M83.8,278.1c-0.8,1.4-1.5,2.1-2.1,2.2c-0.4,0-0.6-0.2-0.7-0.7c1.4-1.2,2.1-2,2.1-2.2
	C83.6,277.4,83.8,277.7,83.8,278.1z"/>
<path class="st1" d="M72.3,275.7h0.3l1.1-0.8c0.7,0.3,1.1,0.6,1.1,1l0.1,1c-0.2,0-1,0.4-2.5,1.2c0-0.4-0.2-0.6-0.7-0.6
	c0-0.3,0.1-0.4,0.3-0.4c0-0.4-0.3-0.6-0.8-0.7l-2.8,1.9L70,280c-0.3,1.7-0.6,2.5-1,2.5c0,0.4,0.3,1,0.9,1.8h-0.4
	c-0.4,0-0.7-0.2-0.8-0.7l-2.5,0.9h-0.8v-0.3l0.4-0.1c1.1-2.1,1.9-3.2,2.4-3.2c0-0.1-0.5-0.6-1.5-1.6l-0.1-0.4l0.8,0.3h0.4
	c-0.1-1-0.7-1.7-1.9-2c-0.3,0.5-0.4,1.8-0.5,3.9l-1.4,0.1l-0.1-1.4l-0.5-1.8c0.8,0,1.1-0.6,1.1-1.8l1.1,0.7l0.8-0.1
	c0.7-1,1.6-1.6,2.8-1.9l0.8,0.3c0.5,0,0.7-0.2,0.6-0.7L72.3,275.7z"/>
<path class="st1" d="M97.9,270.5v0.3l-3.2,1.2H94C94,271.4,95.3,270.8,97.9,270.5z"/>
<polygon class="st1" points="73.9,263.7 73.9,264.4 73.2,264.5 73.2,263.8 "/>
<polygon class="st1" points="72.8,263.1 72.8,263.8 72.5,263.8 72.4,263.1 "/>
<path class="st1" d="M64.1,263.5c0,0.3,0.1,0.6,0.4,1c0,0.5-0.3,1.2-1,2.2l0.5,0.7c-0.3,0-0.5,0.1-0.5,0.3c0.1,0.5,0.3,0.7,0.9,0.7
	c0.5,0,0.6-0.8,0.5-2.5l1.5,1l0.3-0.1v-0.3c-0.5-0.7-1-1.9-1.6-3.8L64.1,263.5z"/>
<polygon class="st1" points="94.4,258.7 94.4,259.4 94.1,259.5 94,258.8 "/>
<path class="st1" d="M92.6,258.5c0,0.3,0.1,0.6,0.4,1c-0.2,0-0.3,0.1-0.3,0.4c-1.2-0.1-1.9-0.4-1.9-1v-0.3L92.6,258.5z"/>
<path class="st1" d="M72.8,256.5l0.2,2.1c0,0.5-0.2,0.7-0.7,0.8h-0.7c0-0.3-0.2-0.6-0.5-1l-0.1-0.7l0.9,0.3h0.3l0.3-1.5H72.8z"/>
<path class="st1" d="M67,256l0.1,1.1l0.4,1.7c-0.4,0.1-0.7,0.5-1,1.5c0,0.5,0.3,0.7,0.8,0.6l-0.3,0.8v0.7l0.9,1l-0.3,2.1l0.4,0.7
	c-0.3,0-0.4,0.1-0.4,0.4l1.5,1.3c-0.9,0.1-1.4,0.3-1.4,0.8l0.1,0.7l1.9,0.2v0.7c-0.6,1-1,1.5-1.4,1.5h-0.4l-1.2-0.6V270
	c-0.1-0.4-0.3-0.6-0.8-0.6c-0.4,0-0.6,0.2-0.7,0.7c-1.7,1-2.5,1.7-2.4,2.2H62c-1.3,0.1-2.4,0.4-3.2,1.2l1.1,1.4l0.1,1l-1.4,0.1
	l-0.1-0.7l-1.1,0.1c0,0.4-0.2,0.8-0.6,1.4c0.7,1.1,1.7,1.7,2.9,1.6c-0.1,0.5-0.7,1-1.8,1.5l-0.8-1c-1,1-1.7,1.5-2.1,1.5
	c0.3,1.2,0.5,1.9,0.5,2.1l-0.2,1.8h-0.4v-0.3c0-0.3,0.1-0.6,0.3-1.1h-0.7l-0.4,1.8v0.3c0.1,0.5,0.3,0.7,0.9,0.7
	c0,0.5-0.3,0.7-0.8,0.8l0.5,1.7l0.2,3.5c0,0.6,0.3,1.3,0.8,2l-1.8,0.9c-0.7-1.1-1.3-2.4-1.6-3.8h-0.7c-0.9,2.8-1.5,4.3-2,4.3
	l0.1,1.7H50l1.1-0.8c0,0.5,0.1,1,0.4,1.4l2.2-0.5c0.4,0,1,0.2,1.9,0.6c0.8-0.7,1.7-1.2,2.9-1.5l-0.3,2.1l0.5,0.7
	c-0.3,0-0.7,0.1-1.2,0.4c-0.6,0-1.2-0.3-1.9-1c-1.6,0.1-2.7,0.5-3.2,1.2h-0.4c-0.1-0.7-0.3-1.1-0.8-1h-0.8c0.1,1.1-0.1,1.9-0.5,2.5
	l-0.7-0.3l-0.8,0.4c0-0.3-0.1-0.4-0.4-0.3c-0.7,0-1.3,1.2-1.6,3.6c0.2,3.1-0.8,5.3-2.9,6.4l0.1,0.7l1-0.1v0.4c-0.7,0-1,0.2-1,0.7
	c0.1,0.5,0.3,0.7,0.8,0.7h0.3v-0.7c0.7,0.3,1.1,0.6,1.2,1c-1.2,0.1-1.8,0.4-1.8,1.1h-0.4c-0.7-0.3-1.1-0.6-1.2-1
	c-0.4,0.1-0.8,0.9-1.3,2.6c0,0.3,0.2,0.6,0.5,1c0.1,1.4-0.8,2.5-2.5,3.2c0.1,0.3,1.1,1.3,3.1,3l0.1,0.7c-0.6,0-1.1,0.1-1.5,0.4
	c0,0.3,0.2,0.6,0.5,1.1c0.1,0.7-0.2,1-0.7,1.1c-0.1-0.3-0.2-0.6-0.5-1.1c0-0.2,0.1-0.5,0.3-1c-0.8-2.1-1.3-3.1-1.6-3.1
	c-0.3,0-0.7,1-1.2,2.9l0.5,1.7c-1.3,0.7-2.7,2.4-4.1,5.1l0.4,0.6c0.2,0,0.5-0.1,1-0.4c1.2,0.1,1.8,0.4,1.9,1c0.3,0,0.7-0.1,1.1-0.4
	l0.4-0.1l0.1,1.4l-2.6,0.9l-1.1,0.1c0-0.5,0.5-0.7,1.5-0.8l-0.1-0.7l-1.5,0.1c-2,0.8-3.5,2-4.5,3.6v0.4l0.8,1l-0.3,0.7l-0.8-0.3
	l-1.1,0.8c0.7,0.9,1.2,1.3,1.5,1.3l0.7-0.1c0.5,0,0.7-0.5,0.7-1.4h0.7l0.1,1.7h-0.3c-4.1,1.1-6.2,2.1-6.5,3.1l0.1,0.7l0.5,2.1
	c-0.2,0.5-0.3,0.8-0.3,1.1c-2.4,0.1-3.6,2.1-3.4,6l-0.8-0.3l-1,0.1c-0.9,3-1.7,4.6-2.3,4.6c0,0.3,0.1,0.6,0.4,1L14,371.7
	c1.3,1.6,2.8,2.3,4.4,2.2c2.6,2.5,4.4,3.7,5.3,3.6c4,2.1,6.4,3.3,7.3,3.6l1.8-0.1c0.5-0.1,0.7-0.3,0.7-0.8l3.6,0.2
	c4.6-6.4,6.9-10.2,6.8-11.3l-0.4-0.6c2.8-1.7,4.2-3.8,4-6.5l0.7,0.3c0-0.3,0.1-0.6,0.3-1.1c-0.5-0.2-0.8-0.3-1-0.2
	c-0.1-0.5,0.6-1.3,2-2.6l-0.1-2.1c1-0.1,1.4-0.4,1.4-1.2l0.7,0.3c0.8-0.4,1.1-0.7,1.1-1.1v-0.3h-0.8l-0.1-1.7c0.8,0,1.7-1,2.8-2.9
	c-0.4-0.7-0.8-1-1.2-1l-0.7,0.1l-1.1,0.7c0-0.3-0.1-0.6-0.4-1V348c0.5,0,1,0.1,1.5,0.3c4.7-2.6,7-5.4,6.8-8.4l-0.7-1l-0.1-0.3
	c1-0.1,1.7-0.6,2.2-1.5c0.4,0,0.6,0.2,0.7,0.7c0.3,0,0.4-0.1,0.4-0.4l2.2,0.2c0.2,0,0.6-0.1,1.4-0.4c0,0.4,0.5,0.7,1.5,1
	c0.8-1.2,1.3-1.8,1.7-1.9l2.2,1c0,0.6-0.3,1.4-0.9,2.5v1c1,0,1.5,0.4,1.5,1.3h0.4c0.6,0,1-1.2,1.3-3.6c-0.6-1-0.9-1.7-0.9-2v-0.4
	h0.8c0.7,0.1,1.1,0.9,1.2,2.4c0.1,1.7,1.2,2.6,3.4,2.9c0.8-0.4,1.1-0.7,1.1-1.1c0.5,0,0.7,0.2,0.8,0.7l-0.7,1.1l0.1,0.3l2.6,1.3
	c0.7-0.2,1.3-1.1,1.7-2.6l-1.5-0.6c0-1,0.4-2.5,1.3-4.3l0.7,0.3c0,0.3-0.1,0.4-0.3,0.4c0.1,1.3,1.1,2.1,3,2.3l1.4-0.8
	c0,0.2,0.2,0.3,0.5,0.3h0.3c1-1.2,1.7-1.8,2.1-1.9v0.4c0.6-0.1,1.5-0.2,2.9-0.5c0.6-0.1,1.5,0.4,2.6,1.2h0.7l0.8-0.4
	c0-0.3-0.2-0.4-0.5-0.3l1.1-1.5c0.5-0.1,0.7,0.2,0.7,0.6l0.1,0.4l-0.2,2.5c0.2,0,0.3,0.1,0.3,0.3c-0.2,0-0.3,0.1-0.3,0.4l0.4,0.7
	c-0.9,0-1.4,0.2-1.4,0.7l0.1,1.1c0.5-0.1,1.9,0,4,0.2v0.4l-1.9,0.1l0.1,0.7l0.7-0.1l-0.3,0.7v0.4l1.1-0.1l-0.4,0.8
	c-0.8,0-1.6-0.3-2.6-0.9h-0.3c-0.4,0-0.6,0.2-0.7,0.7l0.1,0.7c0.5,0,1,0.1,1.4,0.3v-0.4h0.8v0.3c-0.8,0.1-1.1,0.4-1.1,1.2
	c0,0.2,0.1,0.5,0.4,1c0.3,0,0.4-0.1,0.4-0.4l0.7,0.3c0.1,0.5-0.4,1.4-1.3,2.9c0.7,2.3,1.2,3.5,1.6,3.4h0.4c0.6-0.7,4.1-1.4,10.5-2.2
	c0.1,1.1,0.6,1.7,1.5,1.7c1.2-0.5,1.8-1,1.8-1.5l0.3-0.1l0.1,0.4c0.1,1.1-3.3,2.4-10.1,3.9l-1.2,0.1v-0.7h-0.4
	c-1.9,0.4-2.9,0.9-2.9,1.5l0.9,1l0.2,3.2l0.3,0.6l2.1-3.2c0,0.2-0.1,0.5-0.3,1l0.4,0.7l1.1-0.8v0.7c0.1,0.6-0.1,1.1-0.4,1.5l0.5,0.6
	l0.1,0.4c0,0.3-0.9,0.9-2.6,1.9l0.1,0.7l1.5-0.1l0.7-0.4c0.1,0.4,0.3,0.8,0.8,1.4c0.5-0.1,0.7-0.3,0.7-0.8c0.4,0,0.7,0.5,1.2,1.4
	v0.3c-1.6,1.3-2.4,2.1-2.4,2.6l0.4,0.7c0.3,0,0.6-0.1,1-0.4c0.3,0,0.6,0.3,0.9,1c-2.4,0.9-3.5,1.8-3.5,2.6c0,0.2,0.1,0.5,0.4,1
	c0.2,0,0.3-0.1,0.3-0.4c0.6,0.1,1.4,0.7,2.3,1.7l2.6,8.2l-0.3,0.8v0.3c2.5,2.4,3.8,3.9,3.9,4.7l2.5-0.1c0.1,0.8,0.4,1.5,0.9,2
	c1-0.6,1.5-1.2,1.7-1.8l0.7,0.3c1.2-1.4,1.9-2.2,2.1-2.2c0.5-0.1,1,0.6,1.5,2c0,0.3-1.1,0.8-3.2,1.5c0.5,1,1,1.6,1.5,1.6h0.3
	c0.5,0,0.7-0.6,0.7-1.8h0.7l0.1,1l-0.3,0.7c1.5,0,2.7-0.9,3.5-2.6c0-0.2-0.6-0.7-1.9-1.7l-0.1-1.4c3.8-1.1,5.8-1.7,6.2-1.7h1.1
	c0.6,0.4,1.1,0.6,1.5,0.6l-0.3,1.7c1,1.1,1.6,1.7,1.9,1.7h0.3c1.7-0.6,2.7-0.9,2.9-0.9c-0.9-1.1-1.7-2.5-2.4-4.1
	c0.3-1.2,1.1-1.8,2.5-1.9l0.4,1.8l0.8-0.1v-0.7h0.3c0.1,0.7,0.3,1,0.8,1h0.3v-0.7l-0.8-1c-0.1-2.6-1.7-4.5-4.6-5.7l-0.1-1.1
	c0.8,0,1.1-0.2,1.1-0.7v-0.4c-0.4-0.7-0.8-1-1.2-1c-1.8,0.1-2.7,0.5-2.8,1.2c-1,0.1-2.1-0.5-3.4-1.5c-0.1-1.1,0.5-2,1.7-2.9
	c0.2,0,0.3,0.1,0.4,0.3c0.2,0,0.6-0.1,1.1-0.4c0.4-0.1,0.8,0.2,1.4,0.6l1.2-0.1c0.3,0,0.6-0.5,1-1.4l-0.5-0.7
	c-0.8,0.1-1.4,0.2-1.8,0.4c0-0.2,0.1-0.5,0.4-1c0-0.5-0.4-0.7-1.2-0.7v-0.7l0.3-0.7c-0.3,0-0.4-0.1-0.4-0.3c-0.5,0-1.2,0.4-2.1,1.2
	c-0.4,0-0.7-0.2-0.9-0.7v-0.7c1.8-0.7,2.9-1.4,3.6-1.9c-0.1-1.1-0.4-1.8-1.2-2H131c-1,0.1-2,0.3-2.8,0.9c0,0.4-0.9,1.1-2.6,2.2
	l0.5,0.7l-0.8,0.1c-0.1-1.2-0.4-1.8-1.1-1.7l-0.1-0.7l1.4-1.5c-0.4-0.7-0.8-1-1.2-1l0.3-0.7l2.2,0.9h0.8c0.3,0,0.4-0.2,0.3-0.4
	l3.2-1.9c-0.1-0.5-0.4-0.7-1.1-0.7c0-0.4,0.2-0.6,0.6-0.7l-1.5-1.3l-0.1-0.4h0.8v-0.7h-0.3l-1.2,0.7l-1.5,0.1v-0.7
	c0.3,0,1.4-0.7,3.2-2.2v-0.3c-0.5-0.6-2.3-1.8-5.3-3.6v-0.3c-0.1-0.4,0.2-0.7,0.6-0.8c0.5,0,0.8,0.2,0.9,0.7c1.1-0.5,1.6-1,1.7-1.5
	v-0.4c-0.7-0.9-1.2-1.3-1.5-1.3c0-0.3,0.1-0.6,0.3-1.1c0-0.5-0.9-1.3-2.6-2.3V343h0.3l1.5,1l0.7-0.1c0.5,0,0.7-0.2,0.6-0.7v-0.7
	c-0.5,0-1.3-0.4-2.2-1.3h-0.3c-0.5,0.1-0.7,0.5-0.6,1.5h-0.8c-0.1-0.5,0-1,0.2-1.4l-1.1-1.3c0-0.2,0.5-0.8,1.4-1.9l-0.1-1.4
	c-0.1-0.6-0.7-0.9-1.9-0.9l0.9-1.8c-0.1-0.5-0.7-1-1.9-1.3h-0.7c-2.4,2.2-3.8,3.3-4.3,3.3l-1.9-0.2l-0.1-1.8c0.3,0,0.7,0.1,1.2,0.3
	c0.2,0,2.1-0.9,5.6-2.7c0-0.3-0.1-0.6-0.4-1c0.2-0.4,0.3-0.9,0.3-1.4v-0.7l-0.4-0.7h0.3l-0.5-2.1c0.7-1.5,1-2.6,0.9-3.2
	c0-0.5-0.3-1.4-0.9-2.8h0.4l-3.4-1.6l0.3-1.8l-0.1-1.7c0.8-0.1,1.4-0.2,1.8-0.5c-0.5-1-0.8-1.6-0.8-2l0.3-0.8l-0.7-0.3
	c-1.5,0.1-3,1.6-4.6,4.4l0.4,0.7c-0.7,0.1-1.3,0.5-1.8,1.5v0.3l0.5,0.7c-0.9,0.9-1.4,1.7-1.4,2.2l-0.7,0.1l0.3-0.8l-0.3-0.6
	c-0.7,0.5-2.9,1.1-6.7,1.7h-0.4l-1.5-1.7c-0.5,0.1-0.7,0.4-0.6,1.1c-0.3,0.1-1.5,0.1-3.6,0.2l-1.8,0.5l-1.9-1l-0.4,0.1
	c0,0.2,0.2,0.3,0.4,0.3c0.1,0.7-0.6,1.7-2,2.9l-0.5,0.1v-1.5l-0.7,0.1l-2.2,1.5l-1.5-1.3c-0.6,0-1.7,0.4-3.2,1.2
	c0-0.2-0.1-0.3-0.4-0.3c-0.4,0-0.6,0.3-0.7,0.8c-0.4,0-1-0.2-1.8-0.6c-2,1.4-4.4,2.2-7.2,2.4h-0.4l-1.2-0.6h-0.3
	c-1.8,1.7-2.8,2.6-3.2,2.6c-0.5-2.7-1.1-4.3-1.7-4.8l-0.1-1.4c1-0.1,1.5-0.3,1.5-0.8c-0.1-0.5-0.4-0.7-1.1-0.6v-0.4
	c0-0.3,1.3-1.1,3.9-2.2l1.9-5.3c-2-1.5-3.1-2.3-3.4-2.3l2-2.9l1.5,0.3l0.1,1.7c0.1,0.5,0.3,0.7,0.8,0.7l1.4-1.1
	c0-0.3-0.1-0.6-0.4-1.1c0.2-0.9,0.6-1.9,1.2-3.2l-0.4-0.7c0.7-0.4,1.1-0.8,1.1-1.1v-0.7c-0.7,0-1.5-0.2-2.2-0.6l-1.4,0.8
	c-0.1-0.5-0.4-0.7-1.2-0.6l-0.1-0.7c1.8-0.1,3.4-0.9,4.7-2.3l-0.3,1.8c0,0.5,0.3,0.7,0.8,0.6h0.7l-0.1-0.4l-0.4-1.7l0.7-0.1
	c0.8,0,1.5-1,2.1-2.9l-0.5-0.7c0.5,0,0.7-0.6,0.7-1.8h0.4c0.2,1.2,0.6,1.8,1.1,1.7h0.5l0.6-0.4c0.6-1.6,1.3-2.5,2.1-2.6
	c-0.1-1-0.6-2-1.6-3l-1,0.7l-3.6,0.2l-1.8,0.5l-0.9-1v-0.4c0-0.4,0.6-0.8,1.8-1.1c2.1,0.1,3.8,0.1,5.1,0.1h0.3
	c1.2-0.7,1.8-1.4,1.8-2.2H86v0.3c0.1,0.3,0,0.6-0.2,1.1c0.2,0.4,0.3,0.9,0.4,1.4l2.7,2.6c-0.7,0.1-1.3,0.5-1.8,1.5l0.2,2.1
	c0,0.5,0.2,0.7,0.7,0.7h0.8c0.5-0.1,0.7-0.3,0.7-0.8c0.5,0.2,1,0.3,1.5,0.3c-0.5,0.6-0.7,1.2-0.6,1.8c-0.3,0-0.5-0.1-0.5-0.4
	c-1.4,1.3-2.2,2.5-2.3,3.3l0.4,2c0.5,0,1.5-0.3,2.9-0.8l0.4,0.6l1.8-0.4v0.7l-0.3,0.7l0.8,0.3v0.4c-1.7,0.1-2.5,0.9-2.4,2.6v0.7
	l0.4,0.7l-0.7,0.3c0,0.3,0.1,0.4,0.4,0.4l-0.2,1.7v0.8l0.4,0.6l-0.7,0.4c0,0.3,0.1,0.4,0.4,0.4c0,0.5-0.2,0.7-0.7,0.7
	c0.1,0.5,0.3,0.7,0.8,0.7l0.3-0.1l1.1-0.7l0.7-0.1l0.8,0.3c0,0.4-1.1,1.6-3.5,3.7c0.1,0.2,0.2,0.3,0.4,0.3l-0.3,0.7v0.4
	c0.6,1.6,0.9,2.5,0.9,2.7h0.8c0.7-0.4,1-0.8,1-1.1l2.2,0.2l0.8-0.4c0,0.2,0.1,0.3,0.3,0.3h0.4c0.7-0.6,2.9-1.2,6.7-1.7l1.1,0.6
	l4.6-1.6l-0.1-0.7c-1.8-1-2.7-2.3-2.7-3.7c0.3,0,0.8-0.6,1.4-1.8l-0.9-1v-0.7c0.7-0.1,1.1-0.4,1-1.1c1.1-0.3,2.4-1.2,3.9-2.6
	c0.5,0.7,1,1,1.5,0.9v0.4c-0.7,0.9-2,1.8-3.9,2.6c-0.1,1-0.7,2.1-2,3.2l0.1,1.4c1.4-0.1,2.2,0.1,2.2,0.5c0.1,0.5-0.2,0.7-0.6,0.8
	c0.4,0.7,0.7,1,1.1,1c0,0.2-0.1,0.5-0.3,1c0,0.4,0.4,1,1.2,1.7c0.3,0,0.6-0.5,0.9-1.4c0-0.3-0.1-0.6-0.4-1.1c0.3,0,0.5-0.5,0.6-1.4
	l-0.4-0.7c0-0.4,0.6-1.5,1.7-3.2c3-1.2,4.6-2,4.6-2.3c-1.5-1.2-2.2-2-2.2-2.4c-0.1-0.7,0.3-1,1.1-1.1l-0.1-1h-0.8l-0.7,0.4l-0.9-3.8
	l0.3-0.7l-0.9-2.4c0.5-0.1,0.7-0.3,0.7-0.8v-0.7l-0.5-0.7c0.4,0,0.7-0.8,1-2.5c-0.1-0.7-0.3-1-0.9-1h-0.3l-1.3,1.5l-0.8,0.1
	c-0.1-0.9-0.6-1.4-1.5-1.4c0.5-0.8,0.7-1.5,0.6-2.1v-0.3l-0.5-0.7c0.5-0.1,0.8-0.3,0.8-0.8v-0.7l-0.5-2.4c0.9-0.1,1.4-0.3,1.3-0.8
	v-0.3c-0.4,0-1.4-0.4-3.2-1.3c0.1-0.8,0.8-1.5,2-2.2c0-0.9-0.6-1.9-1.9-3c-2.8,0.1-4.5-0.8-4.9-2.6c-0.1-1.7,0.2-2.6,1-2.8
	c-0.1-0.5-0.3-1-0.5-1.4l1.5-1.5l-0.1-0.7l-0.4-0.7l-1.4,1.2h-0.4v-0.4l1.3-2.9l-1.5-1.6c0-0.4,0.2-0.7,0.7-0.8
	c0-0.2-0.2-0.9-0.5-2.1l-2.2-1.2l-1.8,0.4l-0.5-1.7l-0.1-0.4c0.6-0.9,1.1-1.4,1.5-1.4c-0.1-0.5-1.3-1.1-3.8-1.9h-1l-5,0.9
	c-0.7-0.6-1.5-1-2.2-1.3c-0.4,0.7-0.7,1.1-1.1,1.2l-4.5,0.2c-2.4-0.9-4.2-1.4-5.4-1.3v-0.3c0-0.5,0.5-0.7,1.5-0.8l-0.1-1.1
	c-1.1,0.1-2.2,0.5-3.2,1.2h-0.3l0.3-0.7c-0.3,0-0.6-0.1-1.2-0.3c-0.7,0-1,0.4-1,1.1l-2.9,0.2c-0.5,0-0.7-0.5-0.7-1.4h-0.4L67,256z"
	/>
<polygon class="st1" points="71.6,252.7 72.2,252.7 72.2,252 71.5,252 "/>
<path class="st1" d="M73.7,252.2h0.4c0.5,0,0.7-0.2,0.6-0.7h-1V252.2z"/>
<rect x="0.5" y="231" class="st2" width="159.5" height="174.4"/>
</svg>
