<?xml version="1.0" encoding="utf-8"?>
<!-- Generator: Adobe Illustrator 22.1.0, SVG Export Plug-In . SVG Version: 6.00 Build 0)  -->
<svg version="1.1" id="Layer_1" xmlns="http://www.w3.org/2000/svg" xmlns:xlink="http://www.w3.org/1999/xlink" x="0px" y="0px"
	 viewBox="0 0 160 600" style="enable-background:new 0 0 160 600;" xml:space="preserve">
<style type="text/css">
	.st0{fill:#231F20;}
</style>
<g>
	<path class="st0" d="M10.9,588.7l-0.1,0.6H8.2L8.1,591c0.4-0.4,0.8-0.6,1.3-0.6c0.5,0,0.9,0.2,1.3,0.5s0.5,0.8,0.5,1.3
		c0,0.5-0.2,1-0.6,1.3c-0.4,0.3-0.9,0.5-1.4,0.5c-0.4,0-0.8-0.1-1.2-0.4s-0.6-0.5-0.7-0.9l0.6-0.2c0.2,0.6,0.7,0.9,1.3,0.9
		c0.4,0,0.8-0.1,1-0.4c0.3-0.3,0.4-0.6,0.4-1c0-0.4-0.1-0.7-0.4-1s-0.5-0.3-0.9-0.3c-0.5,0-0.9,0.2-1.3,0.7l-0.5-0.1l0.2-2.9H10.9z"
		/>
	<path class="st0" d="M13.2,591.2c-0.7-0.3-1-0.7-1-1.3c0-0.4,0.2-0.7,0.5-1s0.8-0.4,1.3-0.4c0.5,0,1,0.1,1.3,0.4s0.5,0.6,0.5,1
		c0,0.6-0.3,1-1,1.2c0.6,0.3,0.9,0.5,1,0.7c0.1,0.2,0.2,0.5,0.2,0.7c0,0.4-0.2,0.8-0.5,1.1s-0.9,0.4-1.5,0.4c-0.7,0-1.2-0.1-1.5-0.4
		s-0.5-0.6-0.5-1C12,592,12.4,591.6,13.2,591.2z M14,591.5c-0.9,0.2-1.4,0.6-1.4,1.1c0,0.3,0.1,0.5,0.4,0.7c0.2,0.2,0.6,0.3,1.1,0.3
		c0.4,0,0.7-0.1,1-0.3c0.2-0.2,0.4-0.4,0.4-0.7C15.4,592.2,15,591.8,14,591.5z M14.1,590.9c0.4-0.1,0.8-0.3,0.9-0.4s0.3-0.4,0.3-0.6
		c0-0.3-0.1-0.5-0.3-0.6s-0.5-0.2-0.9-0.2c-0.3,0-0.6,0.1-0.8,0.2s-0.3,0.4-0.3,0.6c0,0.2,0.1,0.5,0.4,0.6S13.8,590.8,14.1,590.9z"
		/>
	<path class="st0" d="M20.7,589.8l-0.6,0.2c-0.2-0.5-0.6-0.8-1.1-0.8c-1,0-1.5,0.8-1.5,2.5c0.2-0.4,0.4-0.6,0.7-0.8s0.6-0.3,0.9-0.3
		c0.5,0,0.9,0.2,1.2,0.5c0.3,0.3,0.5,0.8,0.5,1.2c0,0.5-0.2,0.9-0.5,1.3c-0.4,0.4-0.8,0.5-1.4,0.5c-0.6,0-1.1-0.2-1.5-0.7
		c-0.4-0.5-0.6-1.1-0.6-1.9c0-0.8,0.2-1.5,0.5-2s0.9-0.8,1.6-0.8C19.8,588.6,20.4,589,20.7,589.8z M18.8,593.6
		c0.4,0,0.7-0.1,0.9-0.4s0.4-0.5,0.4-0.9c0-0.3-0.1-0.6-0.4-0.9c-0.2-0.2-0.5-0.4-0.9-0.4c-0.4,0-0.7,0.1-0.9,0.4
		c-0.3,0.3-0.4,0.6-0.4,0.9c0,0.3,0.1,0.6,0.4,0.9C18.2,593.4,18.5,593.6,18.8,593.6z"/>
	<path class="st0" d="M22.6,591.5V591h0.6c0.4,0,0.8-0.1,1-0.3c0.2-0.2,0.3-0.4,0.3-0.7c0-0.3-0.1-0.5-0.3-0.7s-0.5-0.3-0.8-0.3
		c-0.6,0-1,0.3-1.2,0.9l-0.6-0.2c0.3-0.8,1-1.2,1.9-1.2c0.5,0,0.9,0.1,1.3,0.4c0.3,0.3,0.5,0.6,0.5,1c0,0.3-0.1,0.6-0.3,0.8
		s-0.4,0.4-0.7,0.4c0.3,0,0.6,0.2,0.9,0.4s0.4,0.5,0.4,0.9c0,0.4-0.2,0.8-0.5,1.1s-0.9,0.5-1.5,0.5c-0.5,0-0.9-0.1-1.3-0.4
		s-0.6-0.6-0.7-0.9l0.6-0.2c0.2,0.6,0.6,1,1.4,1c0.5,0,0.8-0.1,1-0.3c0.2-0.2,0.3-0.4,0.3-0.7c0-0.3-0.1-0.6-0.4-0.7
		s-0.6-0.3-1.1-0.3H22.6z"/>
	<path class="st0" d="M30.2,593.5v0.5h-3.7v-0.5h1.6v-4.1c-0.5,0.5-1,0.9-1.5,1.2v-0.7c0.7-0.4,1.2-0.8,1.6-1.3h0.5v4.9H30.2z"/>
	<path class="st0" d="M32,591.2c-0.7-0.3-1-0.7-1-1.3c0-0.4,0.2-0.7,0.5-1s0.8-0.4,1.3-0.4c0.5,0,1,0.1,1.3,0.4s0.5,0.6,0.5,1
		c0,0.6-0.3,1-1,1.2c0.6,0.3,0.9,0.5,1,0.7c0.1,0.2,0.2,0.5,0.2,0.7c0,0.4-0.2,0.8-0.5,1.1s-0.9,0.4-1.5,0.4c-0.7,0-1.2-0.1-1.5-0.4
		s-0.5-0.6-0.5-1C30.7,592,31.2,591.6,32,591.2z M32.8,591.5c-0.9,0.2-1.4,0.6-1.4,1.1c0,0.3,0.1,0.5,0.4,0.7
		c0.2,0.2,0.6,0.3,1.1,0.3c0.4,0,0.7-0.1,1-0.3c0.2-0.2,0.4-0.4,0.4-0.7C34.2,592.2,33.7,591.8,32.8,591.5z M32.8,590.9
		c0.4-0.1,0.8-0.3,0.9-0.4s0.3-0.4,0.3-0.6c0-0.3-0.1-0.5-0.3-0.6s-0.5-0.2-0.9-0.2c-0.3,0-0.6,0.1-0.8,0.2s-0.3,0.4-0.3,0.6
		c0,0.2,0.1,0.5,0.4,0.6S32.5,590.8,32.8,590.9z"/>
</g>
</svg>
