<?xml version="1.0" encoding="utf-8"?>
<!-- Generator: Adobe Illustrator 22.0.1, SVG Export Plug-In . SVG Version: 6.00 Build 0)  -->
<svg version="1.1" id="Layer_1" xmlns="http://www.w3.org/2000/svg" xmlns:xlink="http://www.w3.org/1999/xlink" x="0px" y="0px"
	 viewBox="0 0 160 600" style="enable-background:new 0 0 160 600;" xml:space="preserve">
<style type="text/css">
	.st0{fill:#F9E13A;}
</style>
<g>
	<path class="st0" d="M29.8,44l-1.1-3h-4.3l-1.1,3h-3.1l5.3-13.5h2.2L33,44H29.8z M26.9,36c-0.1-0.4-0.3-0.8-0.4-1.2h0
		c-0.1,0.4-0.3,0.9-0.4,1.2l-0.9,2.5h2.6L26.9,36z"/>
	<path class="st0" d="M46.3,31.8c-0.4-0.1-0.9-0.3-1.2-0.3c-1.1,0-1.7,0.7-1.7,2v0.9h2.6L45.3,37h-2v7h-3v-7h-2.8v7h-3v-7h-1.4v-2.5
		h1.4v-1.1c0-2.9,1.9-4.3,4.3-4.3c1.3,0,2.3,0.3,3.1,0.8c0.7-0.5,1.6-0.8,2.7-0.8c0.9,0,1.8,0.1,2.2,0.3L46.3,31.8z M39.2,31.5
		c-1,0-1.6,0.7-1.6,2.1v0.9h2.8v-1.1c0-0.5,0.1-1,0.2-1.4C40.1,31.6,39.6,31.5,39.2,31.5z"/>
	<path class="st0" d="M51.7,44.3c-2.9,0-5.2-2-5.2-5.1s2.3-5.1,5.2-5.1c2.9,0,5.2,2,5.2,5.1S54.5,44.3,51.7,44.3z M51.7,36.9
		c-1.2,0-2.1,1-2.1,2.4s1,2.4,2.1,2.4c1.1,0,2.1-1,2.1-2.4S52.8,36.9,51.7,36.9z"/>
	<path class="st0" d="M64.3,37.8c-0.2-0.1-0.6-0.2-0.9-0.2c-1,0-1.9,0.5-1.9,2V44h-3.1v-9.5h3v2.1h0c0.3-1.5,1.4-2.3,2.7-2.3
		c0.3,0,0.7,0,0.9,0.1L64.3,37.8z"/>
	<path class="st0" d="M73.1,44v-1.2h0c-0.5,1-1.6,1.4-2.9,1.4c-2.3,0-4.6-1.8-4.6-5c0-3.1,2.2-5.1,4.8-5.1c1,0,2,0.3,2.4,0.7v-5.8h3
		V44H73.1z M72.8,37.8c-0.3-0.4-0.9-0.9-1.9-0.9c-1.3,0-2.3,1-2.3,2.4s0.9,2.4,2.3,2.4c0.9,0,1.5-0.5,1.9-1V37.8z"/>
	<path class="st0" d="M84.5,44.4c-0.6-0.1-1.2-0.6-1.5-1.3c-0.4,0.8-1.3,1.2-2.5,1.2c-1.7,0-3.2-1.2-3.2-3.1c0-1.7,1.4-2.9,3.3-3.1
		l1.9-0.2v-0.3c0-0.6-0.5-0.9-1.5-0.9c-0.9,0-2,0.3-2.6,0.7L77.8,35c0.8-0.5,2.1-0.8,3.3-0.8c2.5,0,4.3,1.2,4.3,3.4v3.1
		c0,1.1,0.4,1.7,1.2,2L84.5,44.4z M82.5,39.9L81.4,40c-0.8,0.1-1.2,0.6-1.2,1.2c0,0.5,0.4,0.9,1,0.9c0.7,0,1.3-0.6,1.3-1.4V39.9z"/>
	<path class="st0" d="M92.3,44.3c-2,0-3.7-0.7-4.6-1.4V29.1h3v5.8c0.4-0.3,1.4-0.6,2.4-0.6c2.6,0,4.8,1.9,4.8,4.9
		C97.9,42,96,44.3,92.3,44.3z M92.6,36.9c-0.9,0-1.6,0.4-1.8,0.7v3.6c0.3,0.2,1,0.5,1.6,0.5c1.6,0,2.6-1.1,2.6-2.5
		C94.8,38,93.9,36.9,92.6,36.9z"/>
	<path class="st0" d="M101,33.2c-0.5,0-1.7-1.1-1.7-1.7s1.1-1.6,1.7-1.6c0.5,0,1.7,1.1,1.7,1.6S101.6,33.2,101,33.2z M99.5,44v-9.5
		h3.1V44H99.5z"/>
	<path class="st0" d="M107.9,44.4c-2-0.1-3.3-1.1-3.3-3.4V29.1h3v11.6c0,0.8,0.4,1.2,1.3,1.3L107.9,44.4z"/>
	<path class="st0" d="M111.8,33.2c-0.5,0-1.7-1.1-1.7-1.7s1.1-1.6,1.7-1.6c0.5,0,1.7,1.1,1.7,1.6S112.3,33.2,111.8,33.2z M110.2,44
		v-9.5h3.1V44H110.2z"/>
	<path class="st0" d="M121.7,37h-2.5v3.5c0,0.8,0.4,1.2,1.3,1.2c0.4,0,0.6,0,0.8-0.1l-0.3,2.3c-0.3,0.1-0.8,0.3-1.4,0.3
		c-2.1,0-3.4-1.1-3.4-3V37h-1.6v-2.5h1.6v-2l3.1-1.1v3.1h3.1L121.7,37z"/>
	<path class="st0" d="M129.5,43.1c-1.4,3.8-3,5.2-4.7,5.9l-1.9-1.9c1.5-0.6,2.7-1.7,3.5-3.7l-3.4-8.9h3l1.4,3.7
		c0.2,0.5,0.4,1.2,0.6,1.9h0c0.2-0.7,0.4-1.3,0.6-1.9l1.4-3.7h2.8L129.5,43.1z"/>
</g>
<g>
	<path class="st0" d="M27.7,70.4c-0.6-0.1-1.2-0.6-1.5-1.3c-0.4,0.8-1.3,1.2-2.5,1.2c-1.7,0-3.2-1.2-3.2-3.1c0-1.7,1.4-2.9,3.3-3.1
		l1.9-0.2v-0.3c0-0.6-0.5-0.9-1.5-0.9c-0.9,0-2,0.3-2.6,0.7L21,61c0.8-0.5,2.1-0.8,3.3-0.8c2.5,0,4.3,1.2,4.3,3.4v3.1
		c0,1.1,0.4,1.7,1.2,2L27.7,70.4z M25.7,65.9L24.5,66c-0.8,0.1-1.2,0.6-1.2,1.2c0,0.5,0.4,0.9,1,0.9c0.7,0,1.3-0.6,1.3-1.4V65.9z"/>
	<path class="st0" d="M36.9,70v-5.8c0-0.7-0.5-1.3-1.4-1.3c-0.9,0-1.5,0.6-1.5,1.3V70h-3.1v-9.5h2.8v1.3h0c0.4-1,1.4-1.6,2.9-1.6
		c2.1,0,3.3,1.2,3.3,3.2V70H36.9z"/>
	<path class="st0" d="M49.1,70v-1.2h0c-0.5,1-1.6,1.4-2.9,1.4c-2.3,0-4.6-1.8-4.6-5c0-3.1,2.2-5.1,4.8-5.1c1,0,2,0.3,2.4,0.7v-5.8h3
		V70H49.1z M48.8,63.8c-0.3-0.4-0.9-0.9-1.9-0.9c-1.3,0-2.3,1-2.3,2.4s0.9,2.4,2.3,2.4c0.9,0,1.5-0.5,1.9-1V63.8z"/>
	<path class="st0" d="M65.2,70.4c-0.6-0.1-1.2-0.6-1.5-1.3c-0.4,0.8-1.3,1.2-2.5,1.2c-1.7,0-3.2-1.2-3.2-3.1c0-1.7,1.4-2.9,3.3-3.1
		l1.9-0.2v-0.3c0-0.6-0.5-0.9-1.5-0.9c-0.9,0-2,0.3-2.6,0.7L58.5,61c0.8-0.5,2.1-0.8,3.3-0.8c2.5,0,4.3,1.2,4.3,3.4v3.1
		c0,1.1,0.4,1.7,1.2,2L65.2,70.4z M63.2,65.9L62,66c-0.8,0.1-1.2,0.6-1.2,1.2c0,0.5,0.4,0.9,1,0.9c0.7,0,1.3-0.6,1.3-1.4V65.9z"/>
	<path class="st0" d="M74.4,70v-5.8c0-0.7-0.5-1.3-1.4-1.3c-0.9,0-1.5,0.6-1.5,1.3V70h-3.1v-9.5h2.8v1.3h0c0.4-1,1.4-1.6,2.9-1.6
		c2.1,0,3.3,1.2,3.3,3.2V70H74.4z"/>
	<path class="st0" d="M92.8,64.7l-1.4,1.4h-4.7c0.1,0.8,1.2,1.7,2.8,1.7c1,0,2-0.3,2.6-0.7l-0.3,2.6c-0.7,0.4-1.8,0.6-3,0.6
		c-2.9,0-5.2-2-5.2-5.1c0-3.1,2.2-5,5-5c2.6,0,4.3,1.8,4.3,3.8C92.9,64.2,92.9,64.5,92.8,64.7z M88.6,62.5c-0.9,0-1.7,0.7-1.8,1.6
		H90c0-0.1,0-0.1,0-0.2C90,63.2,89.5,62.5,88.6,62.5z"/>
	<path class="st0" d="M101,70.4c-0.6-0.1-1.2-0.6-1.5-1.3c-0.4,0.8-1.3,1.2-2.5,1.2c-1.7,0-3.2-1.2-3.2-3.1c0-1.7,1.4-2.9,3.3-3.1
		l1.9-0.2v-0.3c0-0.6-0.5-0.9-1.5-0.9c-0.9,0-2,0.3-2.6,0.7L94.4,61c0.8-0.5,2.1-0.8,3.3-0.8c2.5,0,4.3,1.2,4.3,3.4v3.1
		c0,1.1,0.4,1.7,1.2,2L101,70.4z M99.1,65.9L97.9,66c-0.8,0.1-1.2,0.6-1.2,1.2c0,0.5,0.4,0.9,1,0.9c0.7,0,1.3-0.6,1.3-1.4V65.9z"/>
	<path class="st0" d="M107.3,70.2c-1.3,0-2.2-0.3-3-0.7l-0.3-2.7c0.8,0.6,1.9,1,3,1c0.6,0,0.9-0.3,0.9-0.7c0-0.4-0.3-0.6-0.9-0.7
		c-1.8-0.5-2.9-1.4-2.9-3.1c0-1.9,1.5-3.1,3.6-3.1c1.2,0,2.3,0.3,2.8,0.6l-0.5,2.3c-0.5-0.3-1.2-0.5-2-0.5c-0.5,0-0.8,0.2-0.8,0.6
		c0,0.4,0.3,0.5,0.8,0.7c2.1,0.6,3,1.6,3,3.2C111.1,68.8,109.9,70.2,107.3,70.2z"/>
	<path class="st0" d="M118.3,69.1c-1.4,3.8-3,5.2-4.7,5.9l-1.9-1.9c1.5-0.6,2.7-1.7,3.5-3.7l-3.4-8.9h3l1.4,3.7
		c0.2,0.5,0.4,1.2,0.6,1.9h0c0.2-0.7,0.4-1.3,0.6-1.9l1.4-3.7h2.8L118.3,69.1z"/>
</g>
<g>
	<path class="st0" d="M27.7,96.4c-0.6-0.1-1.2-0.6-1.5-1.3c-0.4,0.8-1.3,1.2-2.5,1.2c-1.7,0-3.2-1.2-3.2-3.1c0-1.7,1.4-2.9,3.3-3.1
		l1.9-0.2v-0.3c0-0.6-0.5-0.9-1.5-0.9c-0.9,0-2,0.3-2.6,0.7L21,87c0.8-0.5,2.1-0.8,3.3-0.8c2.5,0,4.3,1.2,4.3,3.4v3.1
		c0,1.1,0.4,1.7,1.2,2L27.7,96.4z M25.7,91.9L24.5,92c-0.8,0.1-1.2,0.6-1.2,1.2c0,0.5,0.4,0.9,1,0.9c0.7,0,1.3-0.6,1.3-1.4V91.9z"/>
	<path class="st0" d="M36.3,96.3c-1,0-2-0.3-2.4-0.6v5.2h-3V86.5h2.7v1.2h0c0.5-1,1.6-1.4,2.9-1.4c2.3,0,4.6,1.8,4.6,5
		C41.1,94.3,38.9,96.3,36.3,96.3z M35.7,88.9c-0.9,0-1.5,0.5-1.9,1v3c0.3,0.4,0.9,0.8,1.9,0.8c1.3,0,2.3-1,2.3-2.4
		S37.1,88.9,35.7,88.9z"/>
	<path class="st0" d="M48.1,96.3c-1,0-2-0.3-2.4-0.6v5.2h-3V86.5h2.7v1.2h0c0.5-1,1.6-1.4,2.9-1.4c2.3,0,4.6,1.8,4.6,5
		C52.9,94.3,50.8,96.3,48.1,96.3z M47.6,88.9c-0.9,0-1.5,0.5-1.9,1v3c0.3,0.4,0.9,0.8,1.9,0.8c1.3,0,2.3-1,2.3-2.4
		S48.9,88.9,47.6,88.9z"/>
	<path class="st0" d="M57.8,96.4c-2-0.1-3.3-1.1-3.3-3.4V81.1h3v11.6c0,0.8,0.4,1.2,1.3,1.3L57.8,96.4z"/>
	<path class="st0" d="M61.7,85.2c-0.5,0-1.7-1.1-1.7-1.7s1.1-1.6,1.7-1.6s1.7,1.1,1.7,1.6S62.3,85.2,61.7,85.2z M60.2,96v-9.5h3.1
		V96H60.2z"/>
	<path class="st0" d="M72.5,89.6c-0.6-0.4-1.3-0.6-2-0.6c-1.3,0-2.4,1-2.4,2.4c0,1.4,1.1,2.4,2.5,2.4c0.8,0,1.4-0.2,2.1-0.5
		l-0.3,2.6c-0.6,0.3-1.4,0.5-2.3,0.5c-2.7,0-5.1-1.9-5.1-5c0-3.1,2.5-5,5.1-5c1.3,0,2.3,0.3,3.1,0.7L72.5,89.6z"/>
	<path class="st0" d="M81.2,96.4c-0.6-0.1-1.2-0.6-1.5-1.3c-0.4,0.8-1.3,1.2-2.5,1.2c-1.7,0-3.2-1.2-3.2-3.1c0-1.7,1.4-2.9,3.3-3.1
		l1.9-0.2v-0.3c0-0.6-0.5-0.9-1.5-0.9c-0.9,0-2,0.3-2.6,0.7L74.5,87c0.8-0.5,2.1-0.8,3.3-0.8c2.5,0,4.3,1.2,4.3,3.4v3.1
		c0,1.1,0.4,1.7,1.2,2L81.2,96.4z M79.2,91.9L78,92c-0.8,0.1-1.2,0.6-1.2,1.2c0,0.5,0.4,0.9,1,0.9c0.7,0,1.3-0.6,1.3-1.4V91.9z"/>
	<path class="st0" d="M90.5,89h-2.5v3.5c0,0.8,0.4,1.2,1.3,1.2c0.4,0,0.6,0,0.8-0.1l-0.3,2.3c-0.3,0.1-0.8,0.3-1.4,0.3
		c-2.1,0-3.4-1.1-3.4-3V89h-1.6v-2.5H85v-2l3.1-1.1v3.1h3.1L90.5,89z"/>
	<path class="st0" d="M93.8,85.2c-0.5,0-1.7-1.1-1.7-1.7s1.1-1.6,1.7-1.6c0.5,0,1.7,1.1,1.7,1.6S94.4,85.2,93.8,85.2z M92.3,96v-9.5
		h3.1V96H92.3z"/>
	<path class="st0" d="M102.1,96.3c-2.9,0-5.2-2-5.2-5.1s2.3-5.1,5.2-5.1c2.9,0,5.2,2,5.2,5.1S105,96.3,102.1,96.3z M102.1,88.9
		c-1.2,0-2.1,1-2.1,2.4s1,2.4,2.1,2.4c1.1,0,2.1-1,2.1-2.4S103.3,88.9,102.1,88.9z"/>
	<path class="st0" d="M114.9,96v-5.8c0-0.7-0.5-1.3-1.4-1.3c-0.9,0-1.5,0.6-1.5,1.3V96h-3.1v-9.5h2.8v1.3h0c0.4-1,1.4-1.6,2.9-1.6
		c2.1,0,3.3,1.2,3.3,3.2V96H114.9z"/>
</g>
<g>
	<path class="st0" d="M27.6,109.8c-0.4-0.1-0.9-0.3-1.2-0.3c-1.1,0-1.7,0.7-1.7,2v0.9h2.7l-0.6,2.5h-2.1v7h-3v-7h-1.4v-2.5h1.4v-1.1
		c0-2.9,1.9-4.3,4.3-4.3c0.9,0,1.8,0.1,2.2,0.3L27.6,109.8z"/>
	<path class="st0" d="M32.9,122.3c-2.9,0-5.2-2-5.2-5.1s2.3-5.1,5.2-5.1c2.9,0,5.2,2,5.2,5.1S35.8,122.3,32.9,122.3z M32.9,114.9
		c-1.2,0-2.1,1-2.1,2.4s1,2.4,2.1,2.4c1.1,0,2.1-1,2.1-2.4S34.1,114.9,32.9,114.9z"/>
	<path class="st0" d="M45.6,115.8c-0.2-0.1-0.6-0.2-0.9-0.2c-1,0-1.9,0.5-1.9,2v4.4h-3.1v-9.5h3v2.1h0c0.3-1.5,1.4-2.3,2.7-2.3
		c0.3,0,0.7,0,0.9,0.1L45.6,115.8z"/>
	<path class="st0" d="M58.5,115H56v3.5c0,0.8,0.4,1.2,1.3,1.2c0.4,0,0.6,0,0.8-0.1l-0.3,2.3c-0.3,0.1-0.8,0.3-1.4,0.3
		c-2.1,0-3.4-1.1-3.4-3V115h-1.6v-2.5h1.6v-2l3.1-1.1v3.1h3.1L58.5,115z"/>
	<path class="st0" d="M68.7,116.7l-1.4,1.4h-4.7c0.1,0.8,1.2,1.7,2.8,1.7c1,0,2-0.3,2.6-0.7l-0.3,2.6c-0.7,0.4-1.8,0.6-3,0.6
		c-2.9,0-5.2-2-5.2-5.1c0-3.1,2.2-5,5-5c2.6,0,4.3,1.8,4.3,3.8C68.8,116.2,68.7,116.5,68.7,116.7z M64.5,114.5
		c-0.9,0-1.7,0.7-1.8,1.6h3.2c0-0.1,0-0.1,0-0.2C65.9,115.2,65.3,114.5,64.5,114.5z"/>
	<path class="st0" d="M76.2,115.8c-0.2-0.1-0.6-0.2-0.9-0.2c-1,0-1.9,0.5-1.9,2v4.4h-3.1v-9.5h3v2.1h0c0.3-1.5,1.4-2.3,2.7-2.3
		c0.3,0,0.7,0,0.9,0.1L76.2,115.8z"/>
	<path class="st0" d="M89.7,122v-5.8c0-0.7-0.3-1.3-1.3-1.3c-1,0-1.4,0.6-1.4,1.3v5.8h-3.1v-5.8c0-0.7-0.3-1.3-1.3-1.3
		c-1,0-1.4,0.6-1.4,1.3v5.8H78v-9.5h2.9v1.3h0c0.4-1,1.3-1.6,2.8-1.6c1.4,0,2.4,0.5,2.8,1.6c0.4-0.9,1.5-1.6,2.9-1.6
		c2.2,0,3.4,1.2,3.4,3.2v6.6H89.7z"/>
	<path class="st0" d="M102.7,122.4c-2-0.1-3.3-1.1-3.3-3.4v-11.9h3v11.6c0,0.8,0.4,1.2,1.3,1.3L102.7,122.4z"/>
	<path class="st0" d="M106.6,111.2c-0.5,0-1.7-1.1-1.7-1.7s1.1-1.6,1.7-1.6c0.5,0,1.7,1.1,1.7,1.6S107.2,111.2,106.6,111.2z
		 M105.1,122v-9.5h3.1v9.5H105.1z"/>
	<path class="st0" d="M116.8,109.8c-0.4-0.1-0.9-0.3-1.2-0.3c-1.1,0-1.7,0.7-1.7,2v0.9h2.7L116,115h-2.1v7h-3v-7h-1.4v-2.5h1.4v-1.1
		c0-2.9,1.9-4.3,4.3-4.3c0.9,0,1.8,0.1,2.2,0.3L116.8,109.8z"/>
	<path class="st0" d="M126.2,116.7l-1.4,1.4h-4.7c0.1,0.8,1.2,1.7,2.8,1.7c1,0,2-0.3,2.6-0.7l-0.3,2.6c-0.7,0.4-1.8,0.6-3,0.6
		c-2.9,0-5.2-2-5.2-5.1c0-3.1,2.2-5,5-5c2.6,0,4.3,1.8,4.3,3.8C126.3,116.2,126.2,116.5,126.2,116.7z M122,114.5
		c-0.9,0-1.7,0.7-1.8,1.6h3.2c0-0.1,0-0.1,0-0.2C123.4,115.2,122.8,114.5,122,114.5z"/>
</g>
<g>
	<path class="st0" d="M22.6,137.2c-0.5,0-1.7-1.1-1.7-1.7s1.1-1.6,1.7-1.6s1.7,1.1,1.7,1.6S23.1,137.2,22.6,137.2z M21,148v-9.5h3.1
		v9.5H21z"/>
	<path class="st0" d="M32.2,148v-5.8c0-0.7-0.5-1.3-1.4-1.3c-0.9,0-1.5,0.6-1.5,1.3v5.8h-3.1v-9.5H29v1.3h0c0.4-1,1.4-1.6,2.9-1.6
		c2.1,0,3.3,1.2,3.3,3.2v6.6H32.2z"/>
	<path class="st0" d="M40.3,148.2c-1.3,0-2.2-0.3-3-0.7l-0.3-2.7c0.8,0.6,1.9,1,3,1c0.6,0,0.9-0.3,0.9-0.7c0-0.4-0.3-0.6-0.9-0.7
		c-1.8-0.5-2.9-1.4-2.9-3.1c0-1.9,1.5-3.1,3.6-3.1c1.2,0,2.3,0.3,2.8,0.6l-0.5,2.3c-0.5-0.3-1.2-0.5-2-0.5c-0.5,0-0.8,0.2-0.8,0.6
		c0,0.4,0.3,0.5,0.8,0.7c2.1,0.6,3,1.6,3,3.2C44,146.7,42.8,148.2,40.3,148.2z"/>
	<path class="st0" d="M51.8,148v-1.3h0c-0.4,1-1.4,1.6-2.9,1.6c-2.1,0-3.3-1.2-3.3-3.2v-6.6h3.1v5.8c0,0.7,0.5,1.3,1.4,1.3
		c0.9,0,1.5-0.6,1.5-1.4v-5.8h3.1v9.5H51.8z"/>
	<path class="st0" d="M62.5,141.8c-0.2-0.1-0.6-0.2-0.9-0.2c-1,0-1.9,0.5-1.9,2v4.4h-3.1v-9.5h3v2.1h0c0.3-1.5,1.4-2.3,2.7-2.3
		c0.3,0,0.7,0,0.9,0.1L62.5,141.8z"/>
	<path class="st0" d="M70.9,148.4c-0.6-0.1-1.2-0.6-1.5-1.3c-0.4,0.8-1.3,1.2-2.5,1.2c-1.7,0-3.2-1.2-3.2-3.1c0-1.7,1.4-2.9,3.3-3.1
		l1.9-0.2v-0.3c0-0.6-0.5-0.9-1.5-0.9c-0.9,0-2,0.3-2.6,0.7l-0.5-2.3c0.8-0.5,2.1-0.8,3.3-0.8c2.5,0,4.3,1.2,4.3,3.4v3.1
		c0,1.1,0.4,1.7,1.2,2L70.9,148.4z M69,143.8l-1.2,0.1c-0.8,0.1-1.2,0.6-1.2,1.2c0,0.5,0.4,0.9,1,0.9c0.7,0,1.3-0.6,1.3-1.4V143.8z"
		/>
	<path class="st0" d="M80.2,148v-5.8c0-0.7-0.5-1.3-1.4-1.3c-0.9,0-1.5,0.6-1.5,1.3v5.8h-3.1v-9.5H77v1.3h0c0.4-1,1.4-1.6,2.9-1.6
		c2.1,0,3.3,1.2,3.3,3.2v6.6H80.2z"/>
	<path class="st0" d="M92.4,141.6c-0.6-0.4-1.3-0.6-2-0.6c-1.3,0-2.4,1-2.4,2.4c0,1.4,1.1,2.4,2.5,2.4c0.8,0,1.4-0.2,2.1-0.5
		l-0.3,2.6c-0.6,0.3-1.4,0.5-2.3,0.5c-2.7,0-5.1-1.9-5.1-5c0-3.1,2.5-5,5.1-5c1.3,0,2.3,0.3,3.1,0.7L92.4,141.6z"/>
	<path class="st0" d="M103,142.7l-1.4,1.4H97c0.1,0.8,1.2,1.7,2.8,1.7c1,0,2-0.3,2.6-0.7l-0.3,2.6c-0.7,0.4-1.8,0.6-3,0.6
		c-2.9,0-5.2-2-5.2-5.1c0-3.1,2.2-5,5-5c2.6,0,4.3,1.8,4.3,3.8C103.1,142.2,103.1,142.5,103,142.7z M98.9,140.5
		c-0.9,0-1.7,0.7-1.8,1.6h3.2c0-0.1,0-0.1,0-0.2C100.2,141.2,99.7,140.5,98.9,140.5z"/>
	<path class="st0" d="M108.4,144.2v-1.9h21v1.9H108.4z"/>
</g>
<g>
	<path class="st0" d="M24,174.2c-1.3,0-2.2-0.3-3-0.7l-0.3-2.7c0.8,0.6,1.9,1,3,1c0.6,0,0.9-0.3,0.9-0.7c0-0.4-0.3-0.6-0.9-0.7
		c-1.8-0.5-2.9-1.4-2.9-3.1c0-1.9,1.5-3.1,3.6-3.1c1.2,0,2.3,0.3,2.8,0.6l-0.5,2.3c-0.5-0.3-1.2-0.5-2-0.5c-0.5,0-0.8,0.2-0.8,0.6
		c0,0.4,0.3,0.5,0.8,0.7c2.1,0.6,3,1.6,3,3.2C27.8,172.7,26.6,174.2,24,174.2z"/>
	<path class="st0" d="M36,174.4c-0.6-0.1-1.2-0.6-1.5-1.3c-0.4,0.8-1.3,1.2-2.5,1.2c-1.7,0-3.2-1.2-3.2-3.1c0-1.7,1.4-2.9,3.3-3.1
		l1.9-0.2v-0.3c0-0.6-0.5-0.9-1.5-0.9c-0.9,0-2,0.3-2.6,0.7l-0.5-2.3c0.8-0.5,2.1-0.8,3.3-0.8c2.5,0,4.3,1.2,4.3,3.4v3.1
		c0,1.1,0.4,1.7,1.2,2L36,174.4z M34,169.8l-1.2,0.1c-0.8,0.1-1.2,0.6-1.2,1.2c0,0.5,0.4,0.9,1,0.9c0.7,0,1.3-0.6,1.3-1.4V169.8z"/>
	<path class="st0" d="M44.5,173.1c-1.4,3.8-3,5.2-4.7,5.9l-1.9-1.9c1.5-0.6,2.7-1.7,3.5-3.7l-3.4-8.9h3l1.4,3.7
		c0.2,0.5,0.4,1.2,0.6,1.9h0c0.2-0.7,0.4-1.3,0.6-1.9l1.4-3.7h2.8L44.5,173.1z"/>
	<path class="st0" d="M51.6,174.2c-1.3,0-2.2-0.3-3-0.7l-0.3-2.7c0.8,0.6,1.9,1,3,1c0.6,0,0.9-0.3,0.9-0.7c0-0.4-0.3-0.6-0.9-0.7
		c-1.8-0.5-2.9-1.4-2.9-3.1c0-1.9,1.5-3.1,3.6-3.1c1.2,0,2.3,0.3,2.8,0.6l-0.5,2.3c-0.5-0.3-1.2-0.5-2-0.5c-0.5,0-0.8,0.2-0.8,0.6
		c0,0.4,0.3,0.5,0.8,0.7c2.1,0.6,3,1.6,3,3.2C55.4,172.7,54.2,174.2,51.6,174.2z"/>
	<path class="st0" d="M67.5,167.8c-0.2-0.1-0.6-0.2-0.9-0.2c-1,0-1.9,0.5-1.9,2v4.4h-3.1v-9.5h3v2.1h0c0.3-1.5,1.4-2.3,2.7-2.3
		c0.3,0,0.7,0,0.9,0.1L67.5,167.8z"/>
	<path class="st0" d="M77.8,168.7l-1.4,1.4h-4.7c0.1,0.8,1.2,1.7,2.8,1.7c1,0,2-0.3,2.6-0.7l-0.3,2.6c-0.7,0.4-1.8,0.6-3,0.6
		c-2.9,0-5.2-2-5.2-5.1c0-3.1,2.2-5,5-5c2.6,0,4.3,1.8,4.3,3.8C77.9,168.2,77.9,168.5,77.8,168.7z M73.7,166.5
		c-0.9,0-1.7,0.7-1.8,1.6H75c0-0.1,0-0.1,0-0.2C75,167.2,74.5,166.5,73.7,166.5z"/>
	<path class="st0" d="M84.3,174.1H82l-3.7-9.6h3l1.3,3.6c0.2,0.5,0.4,1.2,0.5,1.8h0c0.1-0.6,0.4-1.3,0.5-1.8l1.3-3.6H88L84.3,174.1z
		"/>
	<path class="st0" d="M90.7,163.2c-0.5,0-1.7-1.1-1.7-1.7s1.1-1.6,1.7-1.6c0.5,0,1.7,1.1,1.7,1.6S91.3,163.2,90.7,163.2z M89.2,174
		v-9.5h3.1v9.5H89.2z"/>
	<path class="st0" d="M103,168.7l-1.4,1.4H97c0.1,0.8,1.2,1.7,2.8,1.7c1,0,2-0.3,2.6-0.7l-0.3,2.6c-0.7,0.4-1.8,0.6-3,0.6
		c-2.9,0-5.2-2-5.2-5.1c0-3.1,2.2-5,5-5c2.6,0,4.3,1.8,4.3,3.8C103.1,168.2,103,168.5,103,168.7z M98.8,166.5
		c-0.9,0-1.7,0.7-1.8,1.6h3.2c0-0.1,0-0.1,0-0.2C100.2,167.2,99.6,166.5,98.8,166.5z"/>
	<path class="st0" d="M114.7,174.1h-2.1l-1.3-3.8c-0.2-0.6-0.4-1.3-0.6-2h0c-0.1,0.7-0.3,1.4-0.5,2l-1.3,3.8h-2l-3.3-9.6h2.8
		l1.2,3.6c0.2,0.5,0.4,1.2,0.5,1.8h0c0.1-0.6,0.3-1.3,0.5-1.8l1.2-3.6h2.3l1.2,3.6c0.2,0.6,0.3,1.2,0.4,1.8h0
		c0.1-0.6,0.3-1.3,0.5-1.8l1.2-3.6h2.6L114.7,174.1z"/>
	<path class="st0" d="M122,174.2c-1.3,0-2.2-0.3-3-0.7l-0.3-2.7c0.8,0.6,1.9,1,3,1c0.6,0,0.9-0.3,0.9-0.7c0-0.4-0.3-0.6-0.9-0.7
		c-1.8-0.5-2.9-1.4-2.9-3.1c0-1.9,1.5-3.1,3.6-3.1c1.2,0,2.3,0.3,2.8,0.6l-0.5,2.3c-0.5-0.3-1.2-0.5-2-0.5c-0.5,0-0.8,0.2-0.8,0.6
		c0,0.4,0.3,0.5,0.8,0.7c2.1,0.6,3,1.6,3,3.2C125.7,172.7,124.6,174.2,122,174.2z"/>
	<path class="st0" d="M128.8,174.3c-0.6,0-1.7-1.2-1.7-1.7c0-0.5,1.2-1.7,1.7-1.7c0.6,0,1.7,1.2,1.7,1.7
		C130.5,173.1,129.3,174.3,128.8,174.3z"/>
</g>
<g>
	<path class="st0" d="M28.2,193.6c-0.6-0.4-1.3-0.6-2-0.6c-1.3,0-2.4,1-2.4,2.4c0,1.4,1.1,2.4,2.5,2.4c0.8,0,1.4-0.2,2.1-0.5
		l-0.3,2.6c-0.6,0.3-1.4,0.5-2.3,0.5c-2.7,0-5.1-1.9-5.1-5c0-3.1,2.5-5,5.1-5c1.3,0,2.3,0.3,3.1,0.7L28.2,193.6z"/>
	<path class="st0" d="M34.9,200.3c-2.9,0-5.2-2-5.2-5.1s2.3-5.1,5.2-5.1c2.9,0,5.2,2,5.2,5.1S37.8,200.3,34.9,200.3z M34.9,192.9
		c-1.2,0-2.1,1-2.1,2.4s1,2.4,2.1,2.4c1.1,0,2.1-1,2.1-2.4S36,192.9,34.9,192.9z"/>
	<path class="st0" d="M53.4,200v-5.8c0-0.7-0.3-1.3-1.3-1.3c-1,0-1.4,0.6-1.4,1.3v5.8h-3.1v-5.8c0-0.7-0.3-1.3-1.3-1.3
		c-1,0-1.4,0.6-1.4,1.3v5.8h-3.1v-9.5h2.9v1.3h0c0.4-1,1.3-1.6,2.8-1.6c1.4,0,2.4,0.5,2.8,1.6c0.4-0.9,1.5-1.6,2.9-1.6
		c2.2,0,3.4,1.2,3.4,3.2v6.6H53.4z"/>
</g>
</svg>
