<?xml version="1.0" encoding="utf-8"?>
<!-- Generator: Adobe Illustrator 22.0.1, SVG Export Plug-In . SVG Version: 6.00 Build 0)  -->
<svg version="1.1" id="Layer_1" xmlns="http://www.w3.org/2000/svg" xmlns:xlink="http://www.w3.org/1999/xlink" x="0px" y="0px"
	 viewBox="0 0 160 600" style="enable-background:new 0 0 160 600;" xml:space="preserve">
<g>
	<path d="M25.3,44.8v-5.3h-5.2v5.3h-3.3V31.4h3.3v5.3h5.2v-5.3h3.3v13.4H25.3z"/>
	<path d="M39.3,39.5l-1.4,1.4h-4.7c0.1,0.8,1.2,1.7,2.8,1.7c1,0,2-0.3,2.6-0.7l-0.3,2.6c-0.7,0.4-1.8,0.6-3,0.6
		c-2.9,0-5.2-2-5.2-5.1c0-3.1,2.2-5,5-5c2.6,0,4.3,1.8,4.3,3.8C39.4,39,39.3,39.3,39.3,39.5z M35.1,37.3c-0.9,0-1.7,0.7-1.8,1.6h3.2
		c0-0.1,0-0.1,0-0.2C36.5,38,35.9,37.3,35.1,37.3z"/>
	<path d="M44,45.2c-2-0.1-3.3-1.1-3.3-3.4V29.8h3v11.6c0,0.8,0.4,1.2,1.3,1.3L44,45.2z"/>
	<path d="M51.5,45.1c-1,0-2-0.3-2.4-0.6v5.2h-3V35.3h2.7v1.2h0c0.5-1,1.6-1.4,2.9-1.4c2.3,0,4.6,1.8,4.6,5
		C56.3,43.1,54.1,45.1,51.5,45.1z M50.9,37.7c-0.9,0-1.5,0.5-1.9,1v3c0.3,0.4,0.9,0.8,1.9,0.8c1.3,0,2.3-1,2.3-2.4
		S52.3,37.7,50.9,37.7z"/>
	<path d="M67.6,45.1c-1,0-2-0.3-2.4-0.6v5.2h-3V35.3h2.7v1.2h0c0.5-1,1.6-1.4,2.9-1.4c2.3,0,4.6,1.8,4.6,5
		C72.4,43.1,70.2,45.1,67.6,45.1z M67.1,37.7c-0.9,0-1.5,0.5-1.9,1v3c0.3,0.4,0.9,0.8,1.9,0.8c1.3,0,2.3-1,2.3-2.4
		S68.4,37.7,67.1,37.7z"/>
	<path d="M80.1,44.8v-1.3h0c-0.4,1-1.4,1.6-2.9,1.6c-2.1,0-3.3-1.2-3.3-3.2v-6.6h3.1v5.8c0,0.7,0.5,1.3,1.4,1.3
		c0.9,0,1.5-0.6,1.5-1.4v-5.8h3.1v9.5H80.1z"/>
	<path d="M91.1,37.8h-2.5v3.5c0,0.8,0.4,1.2,1.3,1.2c0.4,0,0.6,0,0.8-0.1l-0.3,2.3c-0.3,0.1-0.8,0.3-1.4,0.3c-2.1,0-3.4-1.1-3.4-3
		v-4.1h-1.6v-2.5h1.6v-2l3.1-1.1v3.1h3.1L91.1,37.8z"/>
</g>
<g>
	<path d="M22.5,69.8c-1.4,3.8-3,5.2-4.7,5.9l-1.9-1.9c1.5-0.6,2.7-1.7,3.5-3.7L16,61.3h3l1.4,3.7c0.2,0.5,0.4,1.2,0.6,1.9h0
		c0.2-0.7,0.4-1.3,0.6-1.9l1.4-3.7h2.8L22.5,69.8z"/>
	<path d="M31,71.1c-2.9,0-5.2-2-5.2-5.1S28.1,61,31,61c2.9,0,5.2,2,5.2,5.1S33.9,71.1,31,71.1z M31,63.7c-1.2,0-2.1,1-2.1,2.4
		s1,2.4,2.1,2.4c1.1,0,2.1-1,2.1-2.4S32.1,63.7,31,63.7z"/>
	<path d="M43.8,70.8v-1.3h0c-0.4,1-1.4,1.6-2.9,1.6c-2.1,0-3.3-1.2-3.3-3.2v-6.6h3.1v5.8c0,0.7,0.5,1.3,1.4,1.3
		c0.9,0,1.5-0.6,1.5-1.4v-5.8h3.1v9.5H43.8z"/>
	<path d="M54.3,64.6c-0.2-0.1-0.6-0.2-0.9-0.2c-1,0-1.9,0.5-1.9,2v4.4h-3.1v-9.5h3v2.1h0c0.3-1.5,1.4-2.3,2.7-2.3
		c0.3,0,0.7,0,0.9,0.1L54.3,64.6z"/>
	<path d="M72.2,70.8V65c0-0.7-0.3-1.3-1.3-1.3c-1,0-1.4,0.6-1.4,1.3v5.8h-3.1V65c0-0.7-0.3-1.3-1.3-1.3c-1,0-1.4,0.6-1.4,1.3v5.8
		h-3.1v-9.5h2.9v1.3h0c0.4-1,1.3-1.6,2.8-1.6c1.4,0,2.4,0.5,2.8,1.6c0.4-0.9,1.5-1.6,2.9-1.6c2.2,0,3.4,1.2,3.4,3.2v6.6H72.2z"/>
	<path d="M78.7,60c-0.5,0-1.7-1.1-1.7-1.7s1.1-1.6,1.7-1.6s1.7,1.1,1.7,1.6S79.2,60,78.7,60z M77.1,70.8v-9.5h3.1v9.5H77.1z"/>
	<path d="M88.1,70.8V65c0-0.7-0.5-1.3-1.4-1.3c-0.9,0-1.5,0.6-1.5,1.3v5.8h-3.1v-9.5h2.8v1.3h0c0.4-1,1.4-1.6,2.9-1.6
		c2.1,0,3.3,1.2,3.3,3.2v6.6H88.1z"/>
	<path d="M100.1,70.8v-1.2h0c-0.5,1-1.6,1.4-2.9,1.4c-2.3,0-4.6-1.8-4.6-5c0-3.1,2.2-5.1,4.8-5.1c1,0,2,0.3,2.4,0.7v-5.8h3v14.9
		H100.1z M99.8,64.6c-0.3-0.4-0.9-0.9-1.9-0.9c-1.3,0-2.3,1-2.3,2.4s0.9,2.4,2.3,2.4c0.9,0,1.5-0.5,1.9-1V64.6z"/>
</g>
<g>
	<path d="M23.4,97.2c-0.6-0.1-1.2-0.6-1.5-1.3c-0.4,0.8-1.3,1.2-2.5,1.2c-1.7,0-3.2-1.2-3.2-3.1c0-1.7,1.4-2.9,3.3-3.1l1.9-0.2v-0.3
		c0-0.6-0.5-0.9-1.5-0.9c-0.9,0-2,0.3-2.6,0.7l-0.5-2.3c0.8-0.5,2.1-0.8,3.3-0.8c2.5,0,4.3,1.2,4.3,3.4v3.1c0,1.1,0.4,1.7,1.2,2
		L23.4,97.2z M21.4,92.6l-1.2,0.1c-0.8,0.1-1.2,0.6-1.2,1.2c0,0.5,0.4,0.9,1,0.9c0.7,0,1.3-0.6,1.3-1.4V92.6z"/>
	<path d="M32.5,96.8V91c0-0.7-0.5-1.3-1.4-1.3c-0.9,0-1.5,0.6-1.5,1.3v5.8h-3.1v-9.5h2.8v1.3h0c0.4-1,1.4-1.6,2.9-1.6
		c2.1,0,3.3,1.2,3.3,3.2v6.6H32.5z"/>
	<path d="M44.5,96.8v-1.2h0c-0.5,1-1.6,1.4-2.9,1.4c-2.3,0-4.6-1.8-4.6-5c0-3.1,2.2-5.1,4.8-5.1c1,0,2,0.3,2.4,0.7v-5.8h3v14.9H44.5
		z M44.2,90.6c-0.3-0.4-0.9-0.9-1.9-0.9c-1.3,0-2.3,1-2.3,2.4s0.9,2.4,2.3,2.4c0.9,0,1.5-0.5,1.9-1V90.6z"/>
	<path d="M60.1,84.6c-0.4-0.1-0.9-0.3-1.2-0.3c-1.1,0-1.7,0.7-1.7,2v0.9h2.7l-0.6,2.5h-2.1v7h-3v-7h-1.4v-2.5h1.4v-1.1
		c0-2.9,1.9-4.3,4.3-4.3c0.9,0,1.8,0.1,2.2,0.3L60.1,84.6z"/>
	<path d="M67.4,97.2c-0.6-0.1-1.2-0.6-1.5-1.3c-0.4,0.8-1.3,1.2-2.5,1.2c-1.7,0-3.2-1.2-3.2-3.1c0-1.7,1.4-2.9,3.3-3.1l1.9-0.2v-0.3
		c0-0.6-0.5-0.9-1.5-0.9c-0.9,0-2,0.3-2.6,0.7l-0.5-2.3c0.8-0.5,2.1-0.8,3.3-0.8c2.5,0,4.3,1.2,4.3,3.4v3.1c0,1.1,0.4,1.7,1.2,2
		L67.4,97.2z M65.4,92.6l-1.2,0.1c-0.8,0.1-1.2,0.6-1.2,1.2c0,0.5,0.4,0.9,1,0.9c0.7,0,1.3-0.6,1.3-1.4V92.6z"/>
	<path d="M82.1,96.8V91c0-0.7-0.3-1.3-1.3-1.3c-1,0-1.4,0.6-1.4,1.3v5.8h-3.1V91c0-0.7-0.3-1.3-1.3-1.3c-1,0-1.4,0.6-1.4,1.3v5.8
		h-3.1v-9.5h2.9v1.3h0c0.4-1,1.3-1.6,2.8-1.6c1.4,0,2.4,0.5,2.8,1.6c0.4-0.9,1.5-1.6,2.9-1.6c2.2,0,3.4,1.2,3.4,3.2v6.6H82.1z"/>
	<path d="M88.6,86c-0.5,0-1.7-1.1-1.7-1.7s1.1-1.6,1.7-1.6c0.5,0,1.7,1.1,1.7,1.6S89.2,86,88.6,86z M87.1,96.8v-9.5h3.1v9.5H87.1z"
		/>
	<path d="M95.3,97.2c-2-0.1-3.3-1.1-3.3-3.4V81.8h3v11.6c0,0.8,0.4,1.2,1.3,1.3L95.3,97.2z"/>
	<path d="M102.8,95.8c-1.4,3.8-3,5.2-4.7,5.9l-1.9-1.9c1.5-0.6,2.7-1.7,3.5-3.7l-3.4-8.9h3l1.4,3.7c0.2,0.5,0.4,1.2,0.6,1.9h0
		c0.2-0.7,0.4-1.3,0.6-1.9l1.4-3.7h2.8L102.8,95.8z"/>
	<path d="M107.7,89.4l-1-0.2c0.7-0.8,1.3-2,1.4-3c-0.5-0.1-1.4-1-1.4-1.5c0-0.6,1.2-1.7,1.7-1.7c0.5,0,1.7,1.1,1.7,1.7
		C110.3,86.1,109,88.2,107.7,89.4z"/>
	<path d="M113.9,97c-1.3,0-2.2-0.3-3-0.7l-0.3-2.7c0.8,0.6,1.9,1,3,1c0.6,0,0.9-0.3,0.9-0.7c0-0.4-0.3-0.6-0.9-0.7
		c-1.8-0.5-2.9-1.4-2.9-3.1c0-1.9,1.5-3.1,3.6-3.1c1.2,0,2.3,0.3,2.8,0.6l-0.5,2.3c-0.5-0.3-1.2-0.5-2-0.5c-0.5,0-0.8,0.2-0.8,0.6
		c0,0.4,0.3,0.5,0.8,0.7c2.1,0.6,3,1.6,3,3.2C117.6,95.5,116.4,97,113.9,97z"/>
</g>
<g>
	<path d="M23.3,110.6c-0.4-0.1-0.9-0.3-1.2-0.3c-1.1,0-1.7,0.7-1.7,2v0.9h2.7l-0.6,2.5h-2.1v7h-3v-7h-1.4v-2.5h1.4v-1.1
		c0-2.9,1.9-4.3,4.3-4.3c0.9,0,1.8,0.1,2.2,0.3L23.3,110.6z"/>
	<path d="M30.2,122.8v-1.3h0c-0.4,1-1.4,1.6-2.9,1.6c-2.1,0-3.3-1.2-3.3-3.2v-6.6H27v5.8c0,0.7,0.5,1.3,1.4,1.3
		c0.9,0,1.5-0.6,1.5-1.4v-5.8H33v9.5H30.2z"/>
	<path d="M41.2,115.8h-2.5v3.5c0,0.8,0.4,1.2,1.3,1.2c0.4,0,0.6,0,0.8-0.1l-0.3,2.3c-0.3,0.1-0.8,0.3-1.4,0.3c-2.1,0-3.4-1.1-3.4-3
		v-4.1h-1.6v-2.5h1.6v-2l3.1-1.1v3.1h3.1L41.2,115.8z"/>
	<path d="M48.9,122.8v-1.3h0c-0.4,1-1.4,1.6-2.9,1.6c-2.1,0-3.3-1.2-3.3-3.2v-6.6h3.1v5.8c0,0.7,0.5,1.3,1.4,1.3
		c0.9,0,1.5-0.6,1.5-1.4v-5.8h3.1v9.5H48.9z"/>
	<path d="M59.4,116.6c-0.2-0.1-0.6-0.2-0.9-0.2c-1,0-1.9,0.5-1.9,2v4.4h-3.1v-9.5h3v2.1h0c0.3-1.5,1.4-2.3,2.7-2.3
		c0.3,0,0.7,0,0.9,0.1L59.4,116.6z"/>
	<path d="M69.6,117.5l-1.4,1.4h-4.7c0.1,0.8,1.2,1.7,2.8,1.7c1,0,2-0.3,2.6-0.7l-0.3,2.6c-0.7,0.4-1.8,0.6-3,0.6
		c-2.9,0-5.2-2-5.2-5.1c0-3.1,2.2-5,5-5c2.6,0,4.3,1.8,4.3,3.8C69.7,117,69.6,117.3,69.6,117.5z M65.4,115.3c-0.9,0-1.7,0.7-1.8,1.6
		h3.2c0-0.1,0-0.1,0-0.2C66.8,116,66.2,115.3,65.4,115.3z"/>
	<path d="M82.2,123.2c-0.6-0.1-1.2-0.6-1.5-1.3c-0.4,0.8-1.3,1.2-2.5,1.2c-1.7,0-3.2-1.2-3.2-3.1c0-1.7,1.4-2.9,3.3-3.1l1.9-0.2
		v-0.3c0-0.6-0.5-0.9-1.5-0.9c-0.9,0-2,0.3-2.6,0.7l-0.5-2.3c0.8-0.5,2.1-0.8,3.3-0.8c2.5,0,4.3,1.2,4.3,3.4v3.1
		c0,1.1,0.4,1.7,1.2,2L82.2,123.2z M80.2,118.6l-1.2,0.1c-0.8,0.1-1.2,0.6-1.2,1.2c0,0.5,0.4,0.9,1,0.9c0.7,0,1.3-0.6,1.3-1.4V118.6
		z"/>
	<path d="M91.4,115.8h-2.5v3.5c0,0.8,0.4,1.2,1.3,1.2c0.4,0,0.6,0,0.8-0.1l-0.3,2.3c-0.3,0.1-0.8,0.3-1.4,0.3c-2.1,0-3.4-1.1-3.4-3
		v-4.1h-1.6v-2.5h1.6v-2l3.1-1.1v3.1H92L91.4,115.8z"/>
	<path d="M106.1,117.5l-1.4,1.4h-4.7c0.1,0.8,1.2,1.7,2.8,1.7c1,0,2-0.3,2.6-0.7l-0.3,2.6c-0.7,0.4-1.8,0.6-3,0.6
		c-2.9,0-5.2-2-5.2-5.1c0-3.1,2.2-5,5-5c2.6,0,4.3,1.8,4.3,3.8C106.2,117,106.2,117.3,106.1,117.5z M101.9,115.3
		c-0.9,0-1.7,0.7-1.8,1.6h3.2c0-0.1,0-0.1,0-0.2C103.3,116,102.8,115.3,101.9,115.3z"/>
	<path d="M114.1,123.2c-0.6-0.1-1.2-0.6-1.5-1.3c-0.4,0.8-1.3,1.2-2.5,1.2c-1.7,0-3.2-1.2-3.2-3.1c0-1.7,1.4-2.9,3.3-3.1l1.9-0.2
		v-0.3c0-0.6-0.5-0.9-1.5-0.9c-0.9,0-2,0.3-2.6,0.7l-0.5-2.3c0.8-0.5,2.1-0.8,3.3-0.8c2.5,0,4.3,1.2,4.3,3.4v3.1
		c0,1.1,0.4,1.7,1.2,2L114.1,123.2z M112.1,118.6l-1.2,0.1c-0.8,0.1-1.2,0.6-1.2,1.2c0,0.5,0.4,0.9,1,0.9c0.7,0,1.3-0.6,1.3-1.4
		V118.6z"/>
	<path d="M120.2,123c-1.3,0-2.2-0.3-3-0.7l-0.3-2.7c0.8,0.6,1.9,1,3,1c0.6,0,0.9-0.3,0.9-0.7c0-0.4-0.3-0.6-0.9-0.7
		c-1.8-0.5-2.9-1.4-2.9-3.1c0-1.9,1.5-3.1,3.6-3.1c1.2,0,2.3,0.3,2.8,0.6l-0.5,2.3c-0.5-0.3-1.2-0.5-2-0.5c-0.5,0-0.8,0.2-0.8,0.6
		c0,0.4,0.3,0.5,0.8,0.7c2.1,0.6,3,1.6,3,3.2C124,121.5,122.8,123,120.2,123z"/>
	<path d="M133.9,117.5l-1.4,1.4h-4.7c0.1,0.8,1.2,1.7,2.8,1.7c1,0,2-0.3,2.6-0.7l-0.3,2.6c-0.7,0.4-1.8,0.6-3,0.6
		c-2.9,0-5.2-2-5.2-5.1c0-3.1,2.2-5,5-5c2.6,0,4.3,1.8,4.3,3.8C134,117,134,117.3,133.9,117.5z M129.7,115.3c-0.9,0-1.7,0.7-1.8,1.6
		h3.2c0-0.1,0-0.1,0-0.2C131.1,116,130.6,115.3,129.7,115.3z"/>
</g>
<g>
	<path d="M27.2,148.9h-2.1l-1.3-3.8c-0.2-0.6-0.4-1.3-0.6-2h0c-0.1,0.7-0.3,1.4-0.5,2l-1.3,3.8h-2l-3.3-9.6h2.8l1.2,3.6
		c0.2,0.5,0.4,1.2,0.5,1.8h0c0.1-0.6,0.3-1.3,0.5-1.8l1.2-3.6h2.3l1.2,3.6c0.2,0.6,0.3,1.2,0.4,1.8h0c0.1-0.6,0.3-1.3,0.5-1.8
		l1.2-3.6h2.6L27.2,148.9z"/>
	<path d="M33,138c-0.5,0-1.7-1.1-1.7-1.7s1.1-1.6,1.7-1.6s1.7,1.1,1.7,1.6S33.5,138,33,138z M31.4,148.8v-9.5h3.1v9.5H31.4z"/>
	<path d="M42.7,141.8h-2.5v3.5c0,0.8,0.4,1.2,1.3,1.2c0.4,0,0.6,0,0.8-0.1l-0.3,2.3c-0.3,0.1-0.8,0.3-1.4,0.3c-2.1,0-3.4-1.1-3.4-3
		v-4.1h-1.6v-2.5h1.6v-2l3.1-1.1v3.1h3.1L42.7,141.8z"/>
	<path d="M50.2,148.8v-5.8c0-0.7-0.5-1.3-1.4-1.3c-0.9,0-1.5,0.6-1.5,1.3v5.8h-3.1v-14.9h3v6.3h0c0.5-0.7,1.4-1.2,2.7-1.2
		c2.1,0,3.3,1.2,3.3,3.2v6.6H50.2z"/>
	<path d="M65.8,138.1v10.7h-3.3v-10.7h-3.8v-2.7h10.9v2.7H65.8z"/>
	<path d="M70.8,148.8v-13.4h3.3v13.4H70.8z"/>
	<path d="M84.7,148.8l-1.1-3h-4.3l-1.1,3h-3.1l5.3-13.5h2.2l5.3,13.5H84.7z M81.9,140.7c-0.1-0.4-0.3-0.8-0.4-1.2h0
		c-0.1,0.4-0.3,0.9-0.4,1.2l-0.9,2.5h2.6L81.9,140.7z"/>
	<path d="M98.1,148.8l-1.1-3h-4.3l-1.1,3h-3.1l5.3-13.5h2.2l5.3,13.5H98.1z M95.3,140.7c-0.1-0.4-0.3-0.8-0.4-1.2h0
		c-0.1,0.4-0.3,0.9-0.4,1.2l-0.9,2.5h2.6L95.3,140.7z"/>
	<path d="M107,148.8v-13.4h3.3v10.7h5v2.7H107z"/>
	<path d="M117.8,138c-0.5,0-1.7-1.1-1.7-1.7s1.1-1.6,1.7-1.6c0.5,0,1.7,1.1,1.7,1.6S118.4,138,117.8,138z M116.3,148.8v-9.5h3.1v9.5
		H116.3z"/>
	<path d="M127.8,136.6c-0.4-0.1-0.9-0.3-1.2-0.3c-1.1,0-1.7,0.7-1.7,2v0.9h2.7l-0.6,2.5h-2.1v7h-3v-7h-1.4v-2.5h1.4v-1.1
		c0-2.9,1.9-4.3,4.3-4.3c0.9,0,1.8,0.1,2.2,0.3L127.8,136.6z"/>
	<path d="M137,143.5l-1.4,1.4h-4.7c0.1,0.8,1.2,1.7,2.8,1.7c1,0,2-0.3,2.6-0.7l-0.3,2.6c-0.7,0.4-1.8,0.6-3,0.6
		c-2.9,0-5.2-2-5.2-5.1c0-3.1,2.2-5,5-5c2.6,0,4.3,1.8,4.3,3.8C137,143,137,143.3,137,143.5z M132.8,141.3c-0.9,0-1.7,0.7-1.8,1.6
		h3.2c0-0.1,0-0.1,0-0.2C134.2,142,133.6,141.3,132.8,141.3z"/>
</g>
<g>
	<path d="M18.3,164c-0.5,0-1.7-1.1-1.7-1.7s1.1-1.6,1.7-1.6s1.7,1.1,1.7,1.6S18.9,164,18.3,164z M16.8,174.8v-9.5h3.1v9.5H16.8z"/>
	<path d="M27.7,174.8v-5.8c0-0.7-0.5-1.3-1.4-1.3c-0.9,0-1.5,0.6-1.5,1.3v5.8h-3.1v-9.5h2.8v1.3h0c0.4-1,1.4-1.6,2.9-1.6
		c2.1,0,3.3,1.2,3.3,3.2v6.6H27.7z"/>
	<path d="M35.6,175c-1.3,0-2.2-0.3-3-0.7l-0.3-2.7c0.8,0.6,1.9,1,3,1c0.6,0,0.9-0.3,0.9-0.7c0-0.4-0.3-0.6-0.9-0.7
		c-1.8-0.5-2.9-1.4-2.9-3.1c0-1.9,1.5-3.1,3.6-3.1c1.2,0,2.3,0.3,2.8,0.6l-0.5,2.3c-0.5-0.3-1.2-0.5-2-0.5c-0.5,0-0.8,0.2-0.8,0.6
		c0,0.4,0.3,0.5,0.8,0.7c2.1,0.6,3,1.6,3,3.2C39.4,173.5,38.2,175,35.6,175z"/>
	<path d="M47,174.8v-1.3h0c-0.4,1-1.4,1.6-2.9,1.6c-2.1,0-3.3-1.2-3.3-3.2v-6.6h3.1v5.8c0,0.7,0.5,1.3,1.4,1.3
		c0.9,0,1.5-0.6,1.5-1.4v-5.8h3.1v9.5H47z"/>
	<path d="M57.5,168.5c-0.2-0.1-0.6-0.2-0.9-0.2c-1,0-1.9,0.5-1.9,2v4.4h-3.1v-9.5h3v2.1h0c0.3-1.5,1.4-2.3,2.7-2.3
		c0.3,0,0.7,0,0.9,0.1L57.5,168.5z"/>
	<path d="M65.7,175.2c-0.6-0.1-1.2-0.6-1.5-1.3c-0.4,0.8-1.3,1.2-2.5,1.2c-1.7,0-3.2-1.2-3.2-3.1c0-1.7,1.4-2.9,3.3-3.1l1.9-0.2
		v-0.3c0-0.6-0.5-0.9-1.5-0.9c-0.9,0-2,0.3-2.6,0.7l-0.5-2.3c0.8-0.5,2.1-0.8,3.3-0.8c2.5,0,4.3,1.2,4.3,3.4v3.1
		c0,1.1,0.4,1.7,1.2,2L65.7,175.2z M63.8,170.6l-1.2,0.1c-0.8,0.1-1.2,0.6-1.2,1.2c0,0.5,0.4,0.9,1,0.9c0.7,0,1.3-0.6,1.3-1.4V170.6
		z"/>
	<path d="M74.8,174.8v-5.8c0-0.7-0.5-1.3-1.4-1.3c-0.9,0-1.5,0.6-1.5,1.3v5.8h-3.1v-9.5h2.8v1.3h0c0.4-1,1.4-1.6,2.9-1.6
		c2.1,0,3.3,1.2,3.3,3.2v6.6H74.8z"/>
	<path d="M86.8,168.3c-0.6-0.4-1.3-0.6-2-0.6c-1.3,0-2.4,1-2.4,2.4c0,1.4,1.1,2.4,2.5,2.4c0.8,0,1.4-0.2,2.1-0.5l-0.3,2.6
		c-0.6,0.3-1.4,0.5-2.3,0.5c-2.7,0-5.1-1.9-5.1-5c0-3.1,2.5-5,5.1-5c1.3,0,2.3,0.3,3.1,0.7L86.8,168.3z"/>
	<path d="M97.2,169.5l-1.4,1.4h-4.7c0.1,0.8,1.2,1.7,2.8,1.7c1,0,2-0.3,2.6-0.7l-0.3,2.6c-0.7,0.4-1.8,0.6-3,0.6
		c-2.9,0-5.2-2-5.2-5.1c0-3.1,2.2-5,5-5c2.6,0,4.3,1.8,4.3,3.8C97.3,169,97.2,169.3,97.2,169.5z M93,167.3c-0.9,0-1.7,0.7-1.8,1.6
		h3.2c0-0.1,0-0.1,0-0.2C94.4,168,93.8,167.3,93,167.3z"/>
	<path d="M99.9,175.1c-0.6,0-1.7-1.2-1.7-1.7c0-0.5,1.2-1.7,1.7-1.7c0.6,0,1.7,1.2,1.7,1.7C101.6,173.9,100.4,175.1,99.9,175.1z"/>
</g>
</svg>
