<?xml version="1.0" encoding="utf-8"?>
<!-- Generator: Adobe Illustrator 22.0.1, SVG Export Plug-In . SVG Version: 6.00 Build 0)  -->
<svg version="1.1" id="Layer_1" xmlns="http://www.w3.org/2000/svg" xmlns:xlink="http://www.w3.org/1999/xlink" x="0px" y="0px"
	 viewBox="0 0 160 600" style="enable-background:new 0 0 160 600;" xml:space="preserve">
<style type="text/css">
	.st0{fill:#F9E13A;}
</style>
<g>
	<path class="st0" d="M25.5,44l-1.1-3h-4.3L19,44H16l5.3-13.5h2.2L28.7,44H25.5z M22.7,36c-0.1-0.4-0.3-0.8-0.4-1.2h0
		c-0.1,0.4-0.3,0.9-0.4,1.2L21,38.5h2.6L22.7,36z"/>
	<path class="st0" d="M35.9,44v-5.8c0-0.7-0.5-1.3-1.4-1.3c-0.9,0-1.5,0.6-1.5,1.3V44h-3.1v-9.5h2.8v1.3h0c0.4-1,1.4-1.6,2.9-1.6
		c2.1,0,3.3,1.2,3.3,3.2V44H35.9z"/>
	<path class="st0" d="M48.1,44v-1.2h0c-0.5,1-1.6,1.4-2.9,1.4c-2.3,0-4.6-1.8-4.6-5c0-3.1,2.2-5.1,4.8-5.1c1,0,2,0.3,2.4,0.7v-5.8h3
		V44H48.1z M47.8,37.8c-0.3-0.4-0.9-0.9-1.9-0.9c-1.3,0-2.3,1-2.3,2.4s0.9,2.4,2.3,2.4c0.9,0,1.5-0.5,1.9-1V37.8z"/>
	<path class="st0" d="M63.8,33.3V44h-3.3V33.3h-3.8v-2.7h10.9v2.7H63.8z"/>
	<path class="st0" d="M68.9,44V30.6h3.3V44H68.9z"/>
	<path class="st0" d="M83.1,44L82,41h-4.3l-1.1,3h-3.1l5.3-13.5H81L86.3,44H83.1z M80.2,36c-0.1-0.4-0.3-0.8-0.4-1.2h0
		c-0.1,0.4-0.3,0.9-0.4,1.2l-0.9,2.5h2.6L80.2,36z"/>
	<path class="st0" d="M96.7,44l-1.1-3h-4.3l-1.1,3h-3.1l5.3-13.5h2.2L99.9,44H96.7z M93.8,36c-0.1-0.4-0.3-0.8-0.4-1.2h0
		c-0.1,0.4-0.3,0.9-0.4,1.2l-0.9,2.5h2.6L93.8,36z"/>
	<path class="st0" d="M106,44V30.6h3.3v10.7h5V44H106z"/>
	<path class="st0" d="M117,33.2c-0.5,0-1.7-1.1-1.7-1.7s1.1-1.6,1.7-1.6c0.5,0,1.7,1.1,1.7,1.6S117.5,33.2,117,33.2z M115.4,44v-9.5
		h3.1V44H115.4z"/>
	<path class="st0" d="M127.2,31.8c-0.4-0.1-0.9-0.3-1.2-0.3c-1.1,0-1.7,0.7-1.7,2v0.9h2.7l-0.6,2.5h-2.1v7h-3v-7h-1.4v-2.5h1.4v-1.1
		c0-2.9,1.9-4.3,4.3-4.3c0.9,0,1.8,0.1,2.2,0.3L127.2,31.8z"/>
	<path class="st0" d="M136.5,38.7l-1.4,1.4h-4.7c0.1,0.8,1.2,1.7,2.8,1.7c1,0,2-0.3,2.6-0.7l-0.3,2.6c-0.7,0.4-1.8,0.6-3,0.6
		c-2.9,0-5.2-2-5.2-5.1c0-3.1,2.2-5,5-5c2.6,0,4.3,1.8,4.3,3.8C136.6,38.2,136.6,38.5,136.5,38.7z M132.4,36.5
		c-0.9,0-1.7,0.7-1.8,1.6h3.2c0-0.1,0-0.1,0-0.2C133.7,37.2,133.2,36.5,132.4,36.5z"/>
</g>
<g>
	<path class="st0" d="M27.2,70.1h-2.1l-1.3-3.8c-0.2-0.6-0.4-1.3-0.6-2h0c-0.1,0.7-0.3,1.4-0.5,2l-1.3,3.8h-2L16,60.5h2.8l1.2,3.6
		c0.2,0.5,0.4,1.2,0.5,1.8h0c0.1-0.6,0.3-1.3,0.5-1.8l1.2-3.6h2.3l1.2,3.6c0.2,0.6,0.3,1.2,0.4,1.8h0c0.1-0.6,0.3-1.3,0.5-1.8
		l1.2-3.6h2.6L27.2,70.1z"/>
	<path class="st0" d="M38.3,70.4c-0.6-0.1-1.2-0.6-1.5-1.3c-0.4,0.8-1.3,1.2-2.5,1.2c-1.7,0-3.2-1.2-3.2-3.1c0-1.7,1.4-2.9,3.3-3.1
		l1.9-0.2v-0.3c0-0.6-0.5-0.9-1.5-0.9c-0.9,0-2,0.3-2.6,0.7L31.6,61c0.8-0.5,2.1-0.8,3.3-0.8c2.5,0,4.3,1.2,4.3,3.4v3.1
		c0,1.1,0.4,1.7,1.2,2L38.3,70.4z M36.3,65.9L35.2,66C34.4,66,34,66.6,34,67.2c0,0.5,0.4,0.9,1,0.9c0.7,0,1.3-0.6,1.3-1.4V65.9z"/>
	<path class="st0" d="M44.6,70.2c-1.3,0-2.2-0.3-3-0.7l-0.3-2.7c0.8,0.6,1.9,1,3,1c0.6,0,0.9-0.3,0.9-0.7c0-0.4-0.3-0.6-0.9-0.7
		c-1.8-0.5-2.9-1.4-2.9-3.1c0-1.9,1.5-3.1,3.6-3.1c1.2,0,2.3,0.3,2.8,0.6l-0.5,2.3c-0.5-0.3-1.2-0.5-2-0.5c-0.5,0-0.8,0.2-0.8,0.6
		c0,0.4,0.3,0.5,0.8,0.7c2.1,0.6,3,1.6,3,3.2C48.3,68.8,47.1,70.2,44.6,70.2z"/>
	<path class="st0" d="M60.4,63.8c-0.2-0.1-0.6-0.2-0.9-0.2c-1,0-1.9,0.5-1.9,2V70h-3.1v-9.5h3v2.1h0c0.3-1.5,1.4-2.3,2.7-2.3
		c0.3,0,0.7,0,0.9,0.1L60.4,63.8z"/>
	<path class="st0" d="M68.9,70.4c-0.6-0.1-1.2-0.6-1.5-1.3c-0.4,0.8-1.3,1.2-2.5,1.2c-1.7,0-3.2-1.2-3.2-3.1c0-1.7,1.4-2.9,3.3-3.1
		l1.9-0.2v-0.3c0-0.6-0.5-0.9-1.5-0.9c-0.9,0-2,0.3-2.6,0.7L62.2,61c0.8-0.5,2.1-0.8,3.3-0.8c2.5,0,4.3,1.2,4.3,3.4v3.1
		c0,1.1,0.4,1.7,1.2,2L68.9,70.4z M66.9,65.9L65.8,66c-0.8,0.1-1.2,0.6-1.2,1.2c0,0.5,0.4,0.9,1,0.9c0.7,0,1.3-0.6,1.3-1.4V65.9z"/>
	<path class="st0" d="M78.3,63h-2.5v3.5c0,0.8,0.4,1.2,1.3,1.2c0.4,0,0.6,0,0.8-0.1l-0.3,2.3c-0.3,0.1-0.8,0.3-1.4,0.3
		c-2.1,0-3.4-1.1-3.4-3V63h-1.6v-2.5h1.6v-2l3.1-1.1v3.1h3.1L78.3,63z"/>
	<path class="st0" d="M88.4,64.7l-1.4,1.4h-4.7c0.1,0.8,1.2,1.7,2.8,1.7c1,0,2-0.3,2.6-0.7l-0.3,2.6c-0.7,0.4-1.8,0.6-3,0.6
		c-2.9,0-5.2-2-5.2-5.1c0-3.1,2.2-5,5-5c2.6,0,4.3,1.8,4.3,3.8C88.5,64.2,88.5,64.5,88.4,64.7z M84.3,62.5c-0.9,0-1.7,0.7-1.8,1.6
		h3.2c0-0.1,0-0.1,0-0.2C85.7,63.2,85.1,62.5,84.3,62.5z"/>
	<path class="st0" d="M97.1,70v-1.2h0c-0.5,1-1.6,1.4-2.9,1.4c-2.3,0-4.6-1.8-4.6-5c0-3.1,2.2-5.1,4.8-5.1c1,0,2,0.3,2.4,0.7v-5.8h3
		V70H97.1z M96.8,63.8c-0.3-0.4-0.9-0.9-1.9-0.9c-1.3,0-2.3,1-2.3,2.4s0.9,2.4,2.3,2.4c0.9,0,1.5-0.5,1.9-1V63.8z"/>
	<path class="st0" d="M115.3,70l-1.1-3H110l-1.1,3h-3.1l5.3-13.5h2.2l5.3,13.5H115.3z M112.5,62c-0.1-0.4-0.3-0.8-0.4-1.2h0
		c-0.1,0.4-0.3,0.9-0.4,1.2l-0.9,2.5h2.6L112.5,62z"/>
	<path class="st0" d="M124.3,65.4v2.7h-2.6v-2.7H119V63h2.8v-2.7h2.6V63h2.8v2.4H124.3z"/>
	<path class="st0" d="M133.7,65.4v2.7h-2.6v-2.7h-2.8V63h2.8v-2.7h2.6V63h2.8v2.4H133.7z"/>
</g>
<g>
	<path class="st0" d="M21.3,96.3c-2,0-3.7-0.7-4.6-1.4V81.1h3v5.8c0.4-0.3,1.4-0.6,2.4-0.6c2.6,0,4.8,1.9,4.8,4.9
		C26.9,94,25.1,96.3,21.3,96.3z M21.6,88.9c-0.9,0-1.6,0.4-1.8,0.7v3.6c0.3,0.2,1,0.5,1.6,0.5c1.6,0,2.6-1.1,2.6-2.5
		C23.9,90,22.9,88.9,21.6,88.9z"/>
	<path class="st0" d="M33.8,95.1c-1.4,3.8-3,5.2-4.7,5.9l-1.9-1.9c1.5-0.6,2.7-1.7,3.5-3.7l-3.4-8.9h3l1.4,3.7
		c0.2,0.5,0.4,1.2,0.6,1.9h0c0.2-0.7,0.4-1.3,0.6-1.9l1.4-3.7H37L33.8,95.1z"/>
	<path class="st0" d="M51.8,96l-1.1-3h-4.3l-1.1,3h-3.1l5.3-13.5h2.2L55,96H51.8z M48.9,88c-0.1-0.4-0.3-0.8-0.4-1.2h0
		c-0.1,0.4-0.3,0.9-0.4,1.2l-0.9,2.5h2.6L48.9,88z"/>
	<path class="st0" d="M58.1,96.3c-0.6,0-1.7-1.2-1.7-1.7c0-0.5,1.2-1.7,1.7-1.7s1.7,1.2,1.7,1.7C59.8,95.1,58.7,96.3,58.1,96.3z"/>
	<path class="st0" d="M74.5,96L74,91.1c-0.1-0.7-0.1-1.6-0.1-2.5h0c-0.3,0.8-0.8,1.8-1.1,2.5l-2.5,4.9h-1.3l-2.6-4.9
		c-0.4-0.8-0.8-1.6-1.1-2.5h0c0,0.9,0,1.7-0.1,2.5L64.7,96h-3l1.2-13.4h2.7l2.9,5.6c0.4,0.8,1,2,1.3,2.9h0c0.3-0.9,0.9-2,1.3-2.9
		l2.9-5.6h2.5L77.7,96H74.5z"/>
	<path class="st0" d="M81.2,96.3c-0.6,0-1.7-1.2-1.7-1.7c0-0.5,1.2-1.7,1.7-1.7c0.6,0,1.7,1.2,1.7,1.7C83,95.1,81.8,96.3,81.2,96.3z
		"/>
	<path class="st0" d="M94.4,96h-5V82.6h4.4c2.1,0,3.9,1.4,3.9,3.5c0,0.8-0.4,1.8-1.1,2.2c1.2,0.4,2.3,1.8,2.3,3.5
		C98.9,94.4,96.9,96,94.4,96z M93.3,85h-1v2.8h1c0.8,0,1.5-0.4,1.5-1.4C94.8,85.4,94.1,85,93.3,85z M93.8,90.1h-1.5v3.5h1.5
		c1,0,2-0.5,2-1.7C95.8,90.7,94.8,90.1,93.8,90.1z"/>
	<path class="st0" d="M109.3,90.7l-1.4,1.4h-4.7c0.1,0.8,1.2,1.7,2.8,1.7c1,0,2-0.3,2.6-0.7l-0.3,2.6c-0.7,0.4-1.8,0.6-3,0.6
		c-2.9,0-5.2-2-5.2-5.1c0-3.1,2.2-5,5-5c2.6,0,4.3,1.8,4.3,3.8C109.4,90.2,109.3,90.5,109.3,90.7z M105.1,88.5
		c-0.9,0-1.7,0.7-1.8,1.6h3.2c0-0.1,0-0.1,0-0.2C106.5,89.2,105.9,88.5,105.1,88.5z"/>
	<path class="st0" d="M113.9,96.2c-1.3,0-2.2-0.3-3-0.7l-0.3-2.7c0.8,0.6,1.9,1,3,1c0.6,0,0.9-0.3,0.9-0.7c0-0.4-0.3-0.6-0.9-0.7
		c-1.8-0.5-2.9-1.4-2.9-3.1c0-1.9,1.5-3.1,3.6-3.1c1.2,0,2.3,0.3,2.8,0.6l-0.5,2.3c-0.5-0.3-1.2-0.5-2-0.5c-0.5,0-0.8,0.2-0.8,0.6
		c0,0.4,0.3,0.5,0.8,0.7c2.1,0.6,3,1.6,3,3.2C117.7,94.8,116.5,96.2,113.9,96.2z"/>
	<path class="st0" d="M125.4,89H123v3.5c0,0.8,0.4,1.2,1.3,1.2c0.4,0,0.6,0,0.8-0.1l-0.3,2.3c-0.3,0.1-0.8,0.3-1.4,0.3
		c-2.1,0-3.4-1.1-3.4-3V89h-1.6v-2.5h1.6v-2l3.1-1.1v3.1h3.1L125.4,89z"/>
</g>
<g>
	<path class="st0" d="M23.3,109.8c-0.4-0.1-0.9-0.3-1.2-0.3c-1.1,0-1.7,0.7-1.7,2v0.9h2.7l-0.6,2.5h-2.1v7h-3v-7h-1.4v-2.5h1.4v-1.1
		c0-2.9,1.9-4.3,4.3-4.3c0.9,0,1.8,0.1,2.2,0.3L23.3,109.8z"/>
	<path class="st0" d="M28.7,122.3c-2.9,0-5.2-2-5.2-5.1s2.3-5.1,5.2-5.1c2.9,0,5.2,2,5.2,5.1S31.5,122.3,28.7,122.3z M28.7,114.9
		c-1.2,0-2.1,1-2.1,2.4s1,2.4,2.1,2.4c1.1,0,2.1-1,2.1-2.4S29.8,114.9,28.7,114.9z"/>
	<path class="st0" d="M41.3,115.8c-0.2-0.1-0.6-0.2-0.9-0.2c-1,0-1.9,0.5-1.9,2v4.4h-3.1v-9.5h3v2.1h0c0.3-1.5,1.4-2.3,2.7-2.3
		c0.3,0,0.7,0,0.9,0.1L41.3,115.8z"/>
	<path class="st0" d="M54.4,122v-7h-2.9v7h-3v-7h-1.4v-2.5h1.4v-1.1c0-2.9,1.9-4.3,4.3-4.3c0.9,0,1.8,0.1,2.2,0.3l-0.6,2.4
		c-0.4-0.1-0.9-0.3-1.2-0.3c-1.1,0-1.7,0.7-1.7,2v0.9h5.9v9.5H54.4z"/>
	<path class="st0" d="M65.4,122v-5.8c0-0.7-0.5-1.3-1.4-1.3c-0.9,0-1.5,0.6-1.5,1.3v5.8h-3.1v-9.5h2.8v1.3h0c0.4-1,1.4-1.6,2.9-1.6
		c2.1,0,3.3,1.2,3.3,3.2v6.6H65.4z"/>
	<path class="st0" d="M77.1,122.4c-0.6-0.1-1.2-0.6-1.5-1.3c-0.4,0.8-1.3,1.2-2.5,1.2c-1.7,0-3.2-1.2-3.2-3.1c0-1.7,1.4-2.9,3.3-3.1
		l1.9-0.2v-0.3c0-0.6-0.5-0.9-1.5-0.9c-0.9,0-2,0.3-2.6,0.7l-0.5-2.3c0.8-0.5,2.1-0.8,3.3-0.8c2.5,0,4.3,1.2,4.3,3.4v3.1
		c0,1.1,0.4,1.7,1.2,2L77.1,122.4z M75.2,117.9L74,118c-0.8,0.1-1.2,0.6-1.2,1.2c0,0.5,0.4,0.9,1,0.9c0.7,0,1.3-0.6,1.3-1.4V117.9z"
		/>
	<path class="st0" d="M86.3,122v-5.8c0-0.7-0.5-1.3-1.4-1.3c-0.9,0-1.5,0.6-1.5,1.3v5.8h-3.1v-9.5h2.8v1.3h0c0.4-1,1.4-1.6,2.9-1.6
		c2.1,0,3.3,1.2,3.3,3.2v6.6H86.3z"/>
	<path class="st0" d="M98.6,115.6c-0.6-0.4-1.3-0.6-2-0.6c-1.3,0-2.4,1-2.4,2.4c0,1.4,1.1,2.4,2.5,2.4c0.8,0,1.4-0.2,2.1-0.5
		l-0.3,2.6c-0.6,0.3-1.4,0.5-2.3,0.5c-2.7,0-5.1-1.9-5.1-5c0-3.1,2.5-5,5.1-5c1.3,0,2.3,0.3,3.1,0.7L98.6,115.6z"/>
	<path class="st0" d="M102.3,111.2c-0.5,0-1.7-1.1-1.7-1.7s1.1-1.6,1.7-1.6c0.5,0,1.7,1.1,1.7,1.6S102.8,111.2,102.3,111.2z
		 M100.7,122v-9.5h3.1v9.5H100.7z"/>
	<path class="st0" d="M112.5,122.4c-0.6-0.1-1.2-0.6-1.5-1.3c-0.4,0.8-1.3,1.2-2.5,1.2c-1.7,0-3.2-1.2-3.2-3.1
		c0-1.7,1.4-2.9,3.3-3.1l1.9-0.2v-0.3c0-0.6-0.5-0.9-1.5-0.9c-0.9,0-2,0.3-2.6,0.7l-0.5-2.3c0.8-0.5,2.1-0.8,3.3-0.8
		c2.5,0,4.3,1.2,4.3,3.4v3.1c0,1.1,0.4,1.7,1.2,2L112.5,122.4z M110.5,117.9l-1.2,0.1c-0.8,0.1-1.2,0.6-1.2,1.2c0,0.5,0.4,0.9,1,0.9
		c0.7,0,1.3-0.6,1.3-1.4V117.9z"/>
	<path class="st0" d="M118.9,122.4c-2-0.1-3.3-1.1-3.3-3.4v-11.9h3v11.6c0,0.8,0.4,1.2,1.3,1.3L118.9,122.4z"/>
</g>
<g>
	<path class="st0" d="M19.8,148.2c-1.3,0-2.2-0.3-3-0.7l-0.3-2.7c0.8,0.6,1.9,1,3,1c0.6,0,0.9-0.3,0.9-0.7c0-0.4-0.3-0.6-0.9-0.7
		c-1.8-0.5-2.9-1.4-2.9-3.1c0-1.9,1.5-3.1,3.6-3.1c1.2,0,2.3,0.3,2.8,0.6l-0.5,2.3c-0.5-0.3-1.2-0.5-2-0.5c-0.5,0-0.8,0.2-0.8,0.6
		c0,0.4,0.3,0.5,0.8,0.7c2.1,0.6,3,1.6,3,3.2C23.5,146.7,22.3,148.2,19.8,148.2z"/>
	<path class="st0" d="M31.3,141h-2.5v3.5c0,0.8,0.4,1.2,1.3,1.2c0.4,0,0.6,0,0.8-0.1l-0.3,2.3c-0.3,0.1-0.8,0.3-1.4,0.3
		c-2.1,0-3.4-1.1-3.4-3V141h-1.6v-2.5h1.6v-2l3.1-1.1v3.1h3.1L31.3,141z"/>
	<path class="st0" d="M38.8,141.8c-0.2-0.1-0.6-0.2-0.9-0.2c-1,0-1.9,0.5-1.9,2v4.4h-3.1v-9.5h3v2.1h0c0.3-1.5,1.4-2.3,2.7-2.3
		c0.3,0,0.7,0,0.9,0.1L38.8,141.8z"/>
	<path class="st0" d="M49.1,142.7l-1.4,1.4h-4.7c0.1,0.8,1.2,1.7,2.8,1.7c1,0,2-0.3,2.6-0.7l-0.3,2.6c-0.7,0.4-1.8,0.6-3,0.6
		c-2.9,0-5.2-2-5.2-5.1c0-3.1,2.2-5,5-5c2.6,0,4.3,1.8,4.3,3.8C49.2,142.2,49.2,142.5,49.1,142.7z M45,140.5c-0.9,0-1.7,0.7-1.8,1.6
		h3.2c0-0.1,0-0.1,0-0.2C46.3,141.2,45.8,140.5,45,140.5z"/>
	<path class="st0" d="M56.8,148v-5.8c0-0.7-0.5-1.3-1.4-1.3c-0.9,0-1.5,0.6-1.5,1.3v5.8h-3.1v-9.5h2.8v1.3h0c0.4-1,1.4-1.6,2.9-1.6
		c2.1,0,3.3,1.2,3.3,3.2v6.6H56.8z"/>
	<path class="st0" d="M65.8,152.9c-2.8,0-4.6-1.6-4.6-3.6c0-1.4,1-2.3,2-2.6l-1.2-1.2c0.1-0.6,0.6-1.1,1.2-1.4
		c-0.7-0.4-1.4-1.3-1.4-2.5c0-2,1.4-3.4,3.9-3.4c0.6,0,1,0.1,1.4,0.2c0.4,0.1,0.9,0.2,1.4,0.2c0.5,0,1.1-0.1,1.5-0.3l0.6,2.4
		c-0.3,0.2-0.8,0.3-1.2,0.3c0.1,0.2,0.2,0.6,0.2,1c0,1.6-1.3,2.9-3.1,3.1c-0.4,0-0.6,0.1-0.6,0.4c0,0.1,0.1,0.2,0.3,0.3l1.5,0.5
		c1.9,0.7,2.9,1.6,2.9,3.4C70.4,151.4,68.6,152.9,65.8,152.9z M66.5,148.4l-1.1-0.3c-0.7,0-1.3,0.5-1.3,1.2c0,0.7,0.6,1.2,1.7,1.2
		c1.1,0,1.7-0.5,1.7-1C67.4,149,67.1,148.6,66.5,148.4z M65.6,140.4c-0.7,0-1.2,0.5-1.2,1.1c0,0.6,0.5,1.1,1.2,1.1
		c0.7,0,1.2-0.5,1.2-1.1C66.9,141,66.4,140.4,65.6,140.4z"/>
	<path class="st0" d="M78.4,141h-2.5v3.5c0,0.8,0.4,1.2,1.3,1.2c0.4,0,0.6,0,0.8-0.1l-0.3,2.3c-0.3,0.1-0.8,0.3-1.4,0.3
		c-2.1,0-3.4-1.1-3.4-3V141h-1.6v-2.5h1.6v-2l3.1-1.1v3.1H79L78.4,141z"/>
	<path class="st0" d="M86.1,148v-5.8c0-0.7-0.5-1.3-1.4-1.3c-0.9,0-1.5,0.6-1.5,1.3v5.8h-3.1v-14.9h3v6.3h0c0.5-0.7,1.4-1.2,2.7-1.2
		c2.1,0,3.3,1.2,3.3,3.2v6.6H86.1z"/>
</g>
</svg>
