<?xml version="1.0" encoding="utf-8"?>
<!-- Generator: Adobe Illustrator 22.0.1, SVG Export Plug-In . SVG Version: 6.00 Build 0)  -->
<svg version="1.1" id="Layer_1" xmlns="http://www.w3.org/2000/svg" xmlns:xlink="http://www.w3.org/1999/xlink" x="0px" y="0px"
	 viewBox="0 0 160 600" style="enable-background:new 0 0 160 600;" xml:space="preserve">
<style type="text/css">
	.st0{fill:#F9E038;}
</style>
<g>
	<path class="st0" d="M32,44.9h-2.1L28,39c-0.3-0.9-0.6-1.8-0.9-3h0c-0.3,1.2-0.6,2.1-0.9,3l-2,5.9h-2l-4.5-13.5h3.2l1.7,5.4
		c0.3,0.8,0.5,1.7,0.7,2.7h0c0.2-1,0.4-1.8,0.7-2.7l1.8-5.4h2.8l1.7,5.4c0.3,0.8,0.5,1.7,0.7,2.7h0c0.2-1,0.5-1.9,0.7-2.7l1.8-5.4
		h2.8L32,44.9z"/>
	<path class="st0" d="M43.5,44.8V39c0-0.7-0.5-1.3-1.4-1.3c-0.9,0-1.5,0.6-1.5,1.3v5.8h-3.1V29.8h3v6.3h0c0.5-0.7,1.4-1.2,2.7-1.2
		c2.1,0,3.3,1.2,3.3,3.2v6.6H43.5z"/>
	<path class="st0" d="M53.8,43.8c-1.4,3.8-3,5.2-4.7,5.9l-1.9-1.9c1.5-0.6,2.7-1.7,3.5-3.7l-3.4-8.9h3l1.4,3.7
		c0.2,0.5,0.4,1.2,0.6,1.9h0c0.2-0.7,0.4-1.3,0.6-1.9l1.4-3.7H57L53.8,43.8z"/>
	<path class="st0" d="M69.6,44.8v-1.2h0c-0.5,1-1.6,1.4-2.9,1.4c-2.3,0-4.6-1.8-4.6-5c0-3.1,2.2-5.1,4.8-5.1c1,0,2,0.3,2.4,0.7v-5.8
		h3v14.9H69.6z M69.4,38.6c-0.3-0.4-0.9-0.9-1.9-0.9c-1.3,0-2.3,1-2.3,2.4s0.9,2.4,2.3,2.4c0.9,0,1.5-0.5,1.9-1V38.6z"/>
	<path class="st0" d="M78.9,45.1c-2.9,0-5.2-2-5.2-5.1s2.3-5.1,5.2-5.1c2.9,0,5.2,2,5.2,5.1S81.8,45.1,78.9,45.1z M78.9,37.7
		c-1.2,0-2.1,1-2.1,2.4s1,2.4,2.1,2.4c1.1,0,2.1-1,2.1-2.4S80.1,37.7,78.9,37.7z"/>
	<path class="st0" d="M94.2,39.5l-1.4,1.4h-4.7c0.1,0.8,1.2,1.7,2.8,1.7c1,0,2-0.3,2.6-0.7l-0.3,2.6c-0.7,0.4-1.8,0.6-3,0.6
		c-2.9,0-5.2-2-5.2-5.1c0-3.1,2.2-5,5-5c2.6,0,4.3,1.8,4.3,3.8C94.3,39,94.2,39.3,94.2,39.5z M90,37.3c-0.9,0-1.7,0.7-1.8,1.6h3.2
		c0-0.1,0-0.1,0-0.2C91.4,38,90.8,37.3,90,37.3z"/>
	<path class="st0" d="M98.6,45c-1.3,0-2.2-0.3-3-0.7l-0.3-2.7c0.8,0.6,1.9,1,3,1c0.6,0,0.9-0.3,0.9-0.7c0-0.4-0.3-0.6-0.9-0.7
		c-1.8-0.5-2.9-1.4-2.9-3.1c0-1.9,1.5-3.1,3.6-3.1c1.2,0,2.3,0.3,2.8,0.6l-0.5,2.3c-0.5-0.3-1.2-0.5-2-0.5c-0.5,0-0.8,0.2-0.8,0.6
		c0,0.4,0.3,0.5,0.8,0.7c2.1,0.6,3,1.6,3,3.2C102.3,43.5,101.2,45,98.6,45z"/>
</g>
<g>
	<path class="st0" d="M24.8,60.1v10.7h-3.3V60.1h-3.8v-2.7h10.9v2.7H24.8z"/>
	<path class="st0" d="M29.7,70.8V57.4H33v13.4H29.7z"/>
	<path class="st0" d="M43.7,70.8l-1.1-3h-4.3l-1.1,3h-3.1l5.3-13.5h2.2l5.3,13.5H43.7z M40.8,62.7c-0.1-0.4-0.3-0.8-0.4-1.2h0
		c-0.1,0.4-0.3,0.9-0.4,1.2l-0.9,2.5h2.6L40.8,62.7z"/>
	<path class="st0" d="M57,70.8l-1.1-3h-4.3l-1.1,3h-3.1l5.3-13.5H55l5.3,13.5H57z M54.2,62.7c-0.1-0.4-0.3-0.8-0.4-1.2h0
		c-0.1,0.4-0.3,0.9-0.4,1.2l-0.9,2.5h2.6L54.2,62.7z"/>
	<path class="st0" d="M66,70.8V57.4h3.3v10.7h5v2.7H66z"/>
	<path class="st0" d="M76.7,60c-0.5,0-1.7-1.1-1.7-1.7s1.1-1.6,1.7-1.6s1.7,1.1,1.7,1.6S77.3,60,76.7,60z M75.2,70.8v-9.5h3.1v9.5
		H75.2z"/>
	<path class="st0" d="M86.8,58.6c-0.4-0.1-0.9-0.3-1.2-0.3c-1.1,0-1.7,0.7-1.7,2v0.9h2.7l-0.6,2.5h-2.1v7h-3v-7h-1.4v-2.5h1.4v-1.1
		c0-2.9,1.9-4.3,4.3-4.3c0.9,0,1.8,0.1,2.2,0.3L86.8,58.6z"/>
	<path class="st0" d="M95.9,65.5l-1.4,1.4h-4.7c0.1,0.8,1.2,1.7,2.8,1.7c1,0,2-0.3,2.6-0.7L95,70.5c-0.7,0.4-1.8,0.6-3,0.6
		c-2.9,0-5.2-2-5.2-5.1c0-3.1,2.2-5,5-5c2.6,0,4.3,1.8,4.3,3.8C96,65,96,65.3,95.9,65.5z M91.7,63.3c-0.9,0-1.7,0.7-1.8,1.6h3.2
		c0-0.1,0-0.1,0-0.2C93.1,64,92.6,63.3,91.7,63.3z"/>
</g>
<g>
	<path class="st0" d="M22.7,101.6c-2.8,0-4.6-1.6-4.6-3.6c0-1.4,1-2.3,2-2.6l-1.2-1.2c0.1-0.6,0.6-1.1,1.2-1.4
		c-0.7-0.4-1.4-1.3-1.4-2.5c0-2,1.4-3.4,3.9-3.4c0.6,0,1,0.1,1.4,0.2c0.4,0.1,0.9,0.2,1.4,0.2c0.5,0,1.1-0.1,1.5-0.3l0.6,2.4
		c-0.3,0.2-0.8,0.3-1.2,0.3c0.1,0.2,0.2,0.6,0.2,1c0,1.6-1.3,2.9-3.1,3.1c-0.4,0-0.6,0.1-0.6,0.4c0,0.1,0.1,0.2,0.3,0.3l1.5,0.5
		c1.9,0.7,2.9,1.6,2.9,3.4C27.2,100.2,25.4,101.6,22.7,101.6z M23.3,97.2l-1.1-0.3c-0.7,0-1.3,0.5-1.3,1.2c0,0.7,0.6,1.2,1.7,1.2
		c1.1,0,1.7-0.5,1.7-1C24.3,97.8,23.9,97.3,23.3,97.2z M22.5,89.2c-0.7,0-1.2,0.5-1.2,1.1c0,0.6,0.5,1.1,1.2,1.1
		c0.7,0,1.2-0.5,1.2-1.1C23.7,89.7,23.2,89.2,22.5,89.2z"/>
	<path class="st0" d="M37,91.5l-1.4,1.4h-4.7c0.1,0.8,1.2,1.7,2.8,1.7c1,0,2-0.3,2.6-0.7l-0.3,2.6c-0.7,0.4-1.8,0.6-3,0.6
		c-2.9,0-5.2-2-5.2-5.1c0-3.1,2.2-5,5-5c2.6,0,4.3,1.8,4.3,3.8C37,91,37,91.3,37,91.5z M32.8,89.3c-0.9,0-1.7,0.7-1.8,1.6h3.2
		c0-0.1,0-0.1,0-0.2C34.2,90,33.6,89.3,32.8,89.3z"/>
	<path class="st0" d="M44.8,89.8h-2.5v3.5c0,0.8,0.4,1.2,1.3,1.2c0.4,0,0.6,0,0.8-0.1l-0.3,2.3c-0.3,0.1-0.8,0.3-1.4,0.3
		c-2.1,0-3.4-1.1-3.4-3v-4.1h-1.6v-2.5h1.6v-2l3.1-1.1v3.1h3.1L44.8,89.8z"/>
	<path class="st0" d="M52.2,89.4c-0.5,0-1.7-1.1-1.7-1.7c0-1.3,1.3-3.5,2.5-4.6l1,0.2c-0.7,0.8-1.3,2-1.4,3c0.5,0.1,1.4,1,1.4,1.5
		C53.9,88.3,52.7,89.4,52.2,89.4z M56.5,89.4c-0.5,0-1.7-1.1-1.7-1.7c0-1.3,1.3-3.5,2.5-4.6l1,0.2c-0.7,0.8-1.3,2-1.4,3
		c0.5,0.1,1.4,1,1.4,1.5C58.2,88.3,57,89.4,56.5,89.4z"/>
	<path class="st0" d="M66.5,89.8H64v3.5c0,0.8,0.4,1.2,1.3,1.2c0.4,0,0.6,0,0.8-0.1l-0.3,2.3c-0.3,0.1-0.8,0.3-1.4,0.3
		c-2.1,0-3.4-1.1-3.4-3v-4.1h-1.6v-2.5H61v-2l3.1-1.1v3.1h3.1L66.5,89.8z"/>
	<path class="st0" d="M72.5,97.1c-2.9,0-5.2-2-5.2-5.1s2.3-5.1,5.2-5.1c2.9,0,5.2,2,5.2,5.1S75.4,97.1,72.5,97.1z M72.5,89.7
		c-1.2,0-2.1,1-2.1,2.4s1,2.4,2.1,2.4c1.1,0,2.1-1,2.1-2.4S73.7,89.7,72.5,89.7z"/>
	<path class="st0" d="M84.5,97.1c-1,0-2-0.3-2.4-0.6v5.2h-3V87.3h2.7v1.2h0c0.5-1,1.6-1.4,2.9-1.4c2.3,0,4.6,1.8,4.6,5
		C89.3,95.1,87.1,97.1,84.5,97.1z M83.9,89.7c-0.9,0-1.5,0.5-1.9,1v3c0.3,0.4,0.9,0.8,1.9,0.8c1.3,0,2.3-1,2.3-2.4
		S85.3,89.7,83.9,89.7z"/>
</g>
<g>
	<path class="st0" d="M22.7,127.6c-2.8,0-4.6-1.6-4.6-3.6c0-1.4,1-2.3,2-2.6l-1.2-1.2c0.1-0.6,0.6-1.1,1.2-1.4
		c-0.7-0.4-1.4-1.3-1.4-2.5c0-2,1.4-3.4,3.9-3.4c0.6,0,1,0.1,1.4,0.2c0.4,0.1,0.9,0.2,1.4,0.2c0.5,0,1.1-0.1,1.5-0.3l0.6,2.4
		c-0.3,0.2-0.8,0.3-1.2,0.3c0.1,0.2,0.2,0.6,0.2,1c0,1.6-1.3,2.9-3.1,3.1c-0.4,0-0.6,0.1-0.6,0.4c0,0.1,0.1,0.2,0.3,0.3l1.5,0.5
		c1.9,0.7,2.9,1.6,2.9,3.4C27.2,126.2,25.4,127.6,22.7,127.6z M23.3,123.2l-1.1-0.3c-0.7,0-1.3,0.5-1.3,1.2c0,0.7,0.6,1.2,1.7,1.2
		c1.1,0,1.7-0.5,1.7-1C24.3,123.8,23.9,123.3,23.3,123.2z M22.5,115.2c-0.7,0-1.2,0.5-1.2,1.1c0,0.6,0.5,1.1,1.2,1.1
		c0.7,0,1.2-0.5,1.2-1.1C23.7,115.7,23.2,115.2,22.5,115.2z"/>
	<path class="st0" d="M34.2,116.6c-0.2-0.1-0.6-0.2-0.9-0.2c-1,0-1.9,0.5-1.9,2v4.4h-3.1v-9.5h3v2.1h0c0.3-1.5,1.4-2.3,2.7-2.3
		c0.3,0,0.7,0,0.9,0.1L34.2,116.6z"/>
	<path class="st0" d="M42.5,123.2c-0.6-0.1-1.2-0.6-1.5-1.3c-0.4,0.8-1.3,1.2-2.5,1.2c-1.7,0-3.2-1.2-3.2-3.1c0-1.7,1.4-2.9,3.3-3.1
		l1.9-0.2v-0.3c0-0.6-0.5-0.9-1.5-0.9c-0.9,0-2,0.3-2.6,0.7l-0.5-2.3c0.8-0.5,2.1-0.8,3.3-0.8c2.5,0,4.3,1.2,4.3,3.4v3.1
		c0,1.1,0.4,1.7,1.2,2L42.5,123.2z M40.5,118.6l-1.2,0.1c-0.8,0.1-1.2,0.6-1.2,1.2c0,0.5,0.4,0.9,1,0.9c0.7,0,1.3-0.6,1.3-1.4V118.6
		z"/>
	<path class="st0" d="M52.5,122.8v-1.2h0c-0.5,1-1.6,1.4-2.9,1.4c-2.3,0-4.6-1.8-4.6-5c0-3.1,2.2-5.1,4.8-5.1c1,0,2,0.3,2.4,0.7
		v-5.8h3v14.9H52.5z M52.2,116.6c-0.3-0.4-0.9-0.9-1.9-0.9c-1.3,0-2.3,1-2.3,2.4s0.9,2.4,2.3,2.4c0.9,0,1.5-0.5,1.9-1V116.6z"/>
	<path class="st0" d="M65.7,117.5l-1.4,1.4h-4.7c0.1,0.8,1.2,1.7,2.8,1.7c1,0,2-0.3,2.6-0.7l-0.3,2.6c-0.7,0.4-1.8,0.6-3,0.6
		c-2.9,0-5.2-2-5.2-5.1c0-3.1,2.2-5,5-5c2.6,0,4.3,1.8,4.3,3.8C65.8,117,65.8,117.3,65.7,117.5z M61.6,115.3c-0.9,0-1.7,0.7-1.8,1.6
		h3.2c0-0.1,0-0.1,0-0.2C62.9,116,62.4,115.3,61.6,115.3z"/>
	<path class="st0" d="M70.2,123c-1.3,0-2.2-0.3-3-0.7l-0.3-2.7c0.8,0.6,1.9,1,3,1c0.6,0,0.9-0.3,0.9-0.7c0-0.4-0.3-0.6-0.9-0.7
		c-1.8-0.5-2.9-1.4-2.9-3.1c0-1.9,1.5-3.1,3.6-3.1c1.2,0,2.3,0.3,2.8,0.6l-0.5,2.3c-0.5-0.3-1.2-0.5-2-0.5c-0.5,0-0.8,0.2-0.8,0.6
		c0,0.4,0.3,0.5,0.8,0.7c2.1,0.6,3,1.6,3,3.2C73.9,121.5,72.7,123,70.2,123z"/>
	<path class="st0" d="M75.7,115.4l-1-0.2c0.7-0.8,1.3-2,1.4-3c-0.5-0.1-1.4-1-1.4-1.5c0-0.6,1.2-1.7,1.7-1.7c0.5,0,1.7,1.1,1.7,1.7
		C78.2,112.1,76.9,114.2,75.7,115.4z M80,115.4l-1-0.2c0.7-0.8,1.3-2,1.4-3c-0.5-0.1-1.4-1-1.4-1.5c0-0.6,1.2-1.7,1.7-1.7
		c0.5,0,1.7,1.1,1.7,1.7C82.5,112.1,81.2,114.2,80,115.4z"/>
	<path class="st0" d="M89,116.2c-0.5,0.6-0.7,1.1-0.7,1.7c0,0.3,0,0.7,0.1,0.9l-2.6-0.5c-0.1-0.4-0.1-0.7-0.1-1.1
		c0-1.1,0.4-2.1,1.2-2.9c0.5-0.6,0.8-1,0.8-1.6c0-0.4-0.4-0.9-1.2-0.9c-0.8,0-1.4,0.3-2.1,0.7l-0.6-2.6c0.8-0.5,1.8-0.8,3-0.8
		c2.5,0,4.1,1.4,4.1,3.5C90.8,113.9,90.2,114.9,89,116.2z M87.1,123.1c-0.6,0-1.7-1.2-1.7-1.7c0-0.5,1.2-1.7,1.7-1.7
		s1.7,1.2,1.7,1.7C88.8,121.9,87.6,123.1,87.1,123.1z"/>
</g>
</svg>
