<?xml version="1.0" encoding="utf-8"?>
<!-- Generator: Adobe Illustrator 22.1.0, SVG Export Plug-In . SVG Version: 6.00 Build 0)  -->
<svg version="1.1" id="Layer_1" xmlns="http://www.w3.org/2000/svg" xmlns:xlink="http://www.w3.org/1999/xlink" x="0px" y="0px"
	 viewBox="0 0 160 600" style="enable-background:new 0 0 160 600;" xml:space="preserve">
<style type="text/css">
	.st0{fill:#F9E038;}
	.st1{fill:#231F20;}
</style>
<path class="st0" d="M36.5,460c0,0-13,0-13,13v3.5c0,0,0,13,13,13h87c0,0,13,0,13-13V473c0,0,0-13-13-13H36.5z"/>
<g>
	<path class="st1" d="M48.8,477.6v1.7h-5.4v-8.4h2v6.8H48.8z"/>
	<path class="st1" d="M51.6,472.5v1.7h3.2v1.6h-3.2v1.9h4.1v1.6h-6v-8.4h6v1.6H51.6z"/>
	<path class="st1" d="M63.8,479.3h-2.1l-0.5-1.7h-2.7l-0.5,1.7h-1.7l2.7-8.4h2.3L63.8,479.3z M60.7,476l-0.9-3l-0.9,3H60.7z"/>
	<path class="st1" d="M66.6,479.3h-2v-8.4h3.6c0.8,0,1.5,0,2.2,0.4c0.7,0.5,1.1,1.3,1.1,2.1c0,1-0.6,1.8-1.5,2.2l1.6,3.7h-2.2
		l-1.3-3.3h-1.4V479.3z M66.6,474.5h1.1c0.4,0,0.9,0,1.2-0.2c0.3-0.2,0.5-0.6,0.5-1c0-0.3-0.2-0.7-0.5-0.9c-0.3-0.2-0.9-0.2-1.3-0.2
		h-1V474.5z"/>
	<path class="st1" d="M79.1,479.3h-1.7l-3.2-5.7h0v5.7h-1.5v-8.4h2.1l2.8,5h0v-5h1.5V479.3z"/>
	<path class="st1" d="M89.3,479.3h-1.4l-2.1-6.9h0v6.9h-1.7v-8.4h3.1l1.5,5.1l1.6-5.1h3.1v8.4h-2v-6.9h0L89.3,479.3z"/>
	<path class="st1" d="M95.4,478.1c-0.6-0.9-0.9-2-0.9-3c0-2.2,1.1-4.3,3.6-4.3c1.1,0,2,0.4,2.7,1.3c0.6,0.8,0.9,2,0.9,3
		c0,1-0.3,2.1-0.8,2.9c-0.7,1-1.7,1.4-2.8,1.4C97,479.4,96.1,479,95.4,478.1z M96.9,473.3c-0.2,0.5-0.3,1.2-0.3,1.8
		c0,1.1,0.2,2.7,1.6,2.7c0.7,0,1-0.3,1.3-1c0.2-0.5,0.3-1.2,0.3-1.8c0-0.6-0.1-1.3-0.3-1.9c-0.2-0.6-0.6-0.8-1.2-0.8
		C97.5,472.3,97.1,472.7,96.9,473.3z"/>
	<path class="st1" d="M104.9,479.3h-2v-8.4h3.6c0.8,0,1.5,0,2.2,0.4c0.7,0.5,1.1,1.3,1.1,2.1c0,1-0.6,1.8-1.5,2.2l1.6,3.7h-2.2
		l-1.3-3.3h-1.4V479.3z M104.9,474.5h1.1c0.4,0,0.8,0,1.2-0.2c0.3-0.2,0.5-0.6,0.5-1c0-0.3-0.2-0.7-0.5-0.9
		c-0.3-0.2-0.9-0.2-1.3-0.2h-1V474.5z"/>
	<path class="st1" d="M112.9,472.5v1.7h3.2v1.6h-3.2v1.9h4.1v1.6h-6v-8.4h6v1.6H112.9z"/>
</g>
</svg>
