<?xml version="1.0" encoding="utf-8"?>
<!-- Generator: Adobe Illustrator 22.1.0, SVG Export Plug-In . SVG Version: 6.00 Build 0)  -->
<svg version="1.1" id="Layer_1" xmlns="http://www.w3.org/2000/svg" xmlns:xlink="http://www.w3.org/1999/xlink" x="0px" y="0px"
	 viewBox="0 0 160 600" style="enable-background:new 0 0 160 600;" xml:space="preserve">
<style type="text/css">
	.st0{clip-path:url(#SVGID_2_);fill:#FFFFFF;}
	.st1{clip-path:url(#SVGID_4_);fill:url(#SVGID_5_);}
	.st2{clip-path:url(#SVGID_7_);fill:url(#SVGID_8_);}
	.st3{clip-path:url(#SVGID_10_);fill:url(#SVGID_11_);}
	.st4{clip-path:url(#SVGID_13_);fill:url(#SVGID_14_);}
	.st5{clip-path:url(#SVGID_16_);fill:url(#SVGID_17_);}
	.st6{fill:#626366;}
	.st7{fill:#404041;}
	.st8{fill:#808184;}
	.st9{fill:#231F20;}
	.st10{clip-path:url(#SVGID_19_);fill:#404041;}
	.st11{clip-path:url(#SVGID_19_);fill:#EAEBEC;}
	.st12{clip-path:url(#SVGID_19_);fill:#DBDCDD;}
	.st13{clip-path:url(#SVGID_19_);fill:#FFFFFF;}
	.st14{clip-path:url(#SVGID_21_);fill:url(#SVGID_22_);}
	.st15{fill:#005494;}
	.st16{fill:#0081BD;}
	.st17{fill:#FFFFFF;}
</style>
<g>
	<defs>
		<rect id="SVGID_1_" x="24.7" y="221.7" width="110.6" height="110.6"/>
	</defs>
	<clipPath id="SVGID_2_">
		<use xlink:href="#SVGID_1_"  style="overflow:visible;"/>
	</clipPath>
	<path class="st0" d="M69.8,221.7c-8.2,0-16,3.2-21.9,9.1c-5.9,5.9-9.1,13.6-9.1,21.8v65.8h65.7c17.1,0,31.1-13.9,31.1-31.1v-65.7
		H69.8z"/>
</g>
<g>
	<defs>
		<path id="SVGID_3_" d="M104.4,318.5H38.7l-13.8,13.8h70.3c5.6-0.6,10.6-3.1,14.4-6.8l10.3-10.3l-0.6-0.6
			C114.8,317.1,109.8,318.5,104.4,318.5"/>
	</defs>
	<clipPath id="SVGID_4_">
		<use xlink:href="#SVGID_3_"  style="overflow:visible;"/>
	</clipPath>
	
		<linearGradient id="SVGID_5_" gradientUnits="userSpaceOnUse" x1="1.0559" y1="601.0519" x2="2.0559" y2="601.0519" gradientTransform="matrix(0 -17.888 -17.888 0 10823.9248 351.5075)">
		<stop  offset="0" style="stop-color:#10B0E6"/>
		<stop  offset="0.1593" style="stop-color:#0FAAE1"/>
		<stop  offset="0.3678" style="stop-color:#0C9AD2"/>
		<stop  offset="0.6035" style="stop-color:#077FBA"/>
		<stop  offset="0.8576" style="stop-color:#015999"/>
		<stop  offset="0.89" style="stop-color:#005494"/>
		<stop  offset="1" style="stop-color:#005494"/>
	</linearGradient>
	<rect x="24.8" y="314.7" class="st1" width="95" height="17.7"/>
</g>
<g>
	<defs>
		<path id="SVGID_6_" d="M31.7,247.6c-4.3,4.4-7,10.4-7,17.1v67.6h0.1l13.8-13.8v-65.8c0-5.2,1.3-10.3,3.8-14.8l-0.6-0.6L31.7,247.6
			z"/>
	</defs>
	<clipPath id="SVGID_7_">
		<use xlink:href="#SVGID_6_"  style="overflow:visible;"/>
	</clipPath>
	
		<linearGradient id="SVGID_8_" gradientUnits="userSpaceOnUse" x1="1.0105" y1="601.0105" x2="2.0105" y2="601.0105" gradientTransform="matrix(0 -95.5682 -95.5682 0 57471.0859 429.8127)">
		<stop  offset="0" style="stop-color:#0081BD"/>
		<stop  offset="0.3934" style="stop-color:#006FAC"/>
		<stop  offset="0.85" style="stop-color:#005494"/>
		<stop  offset="1" style="stop-color:#005494"/>
	</linearGradient>
	<rect x="24.7" y="237.3" class="st2" width="17.8" height="95"/>
</g>
<g>
	<defs>
		<path id="SVGID_9_" d="M104.4,318.5H38.7l-13.8,13.8h70.3c5.6-0.6,10.6-3.1,14.4-6.8l10.3-10.3l-0.6-0.6
			C114.8,317.1,109.8,318.5,104.4,318.5"/>
	</defs>
	<clipPath id="SVGID_10_">
		<use xlink:href="#SVGID_9_"  style="overflow:visible;"/>
	</clipPath>
	
		<linearGradient id="SVGID_11_" gradientUnits="userSpaceOnUse" x1="0.9894" y1="601.0114" x2="1.9894" y2="601.0114" gradientTransform="matrix(94.1191 0 0 -94.1191 -68.0715 56890.1719)">
		<stop  offset="0" style="stop-color:#10B0E6"/>
		<stop  offset="0.1611" style="stop-color:#0FAAE1"/>
		<stop  offset="0.3719" style="stop-color:#0C9AD2"/>
		<stop  offset="0.6102" style="stop-color:#077FBA"/>
		<stop  offset="0.8672" style="stop-color:#015999"/>
		<stop  offset="0.9" style="stop-color:#005494"/>
		<stop  offset="1" style="stop-color:#005494"/>
	</linearGradient>
	<rect x="24.8" y="314.7" class="st3" width="95" height="17.7"/>
</g>
<g>
	<defs>
		<path id="SVGID_12_" d="M31.7,247.6c-4.3,4.4-7,10.4-7,17.1v67.6h0.1l13.8-13.8v-65.8c0-5.2,1.3-10.3,3.8-14.8l-0.6-0.6
			L31.7,247.6z"/>
	</defs>
	<clipPath id="SVGID_13_">
		<use xlink:href="#SVGID_12_"  style="overflow:visible;"/>
	</clipPath>
	
		<linearGradient id="SVGID_14_" gradientUnits="userSpaceOnUse" x1="1.0105" y1="601.0105" x2="2.0105" y2="601.0105" gradientTransform="matrix(0 -95.5682 -95.5682 0 57471.0859 429.8127)">
		<stop  offset="0" style="stop-color:#0081BD"/>
		<stop  offset="0.3934" style="stop-color:#006FAC"/>
		<stop  offset="0.85" style="stop-color:#005494"/>
		<stop  offset="1" style="stop-color:#005494"/>
	</linearGradient>
	<rect x="24.7" y="237.3" class="st4" width="17.8" height="95"/>
</g>
<g>
	<defs>
		<path id="SVGID_15_" d="M69.8,225.7c-14.9,0-27.1,12.3-27.1,27v61.8h61.7c15,0,27.1-12.2,27.1-27.1v-61.7H69.8z"/>
	</defs>
	<clipPath id="SVGID_16_">
		<use xlink:href="#SVGID_15_"  style="overflow:visible;"/>
	</clipPath>
	
		<linearGradient id="SVGID_17_" gradientUnits="userSpaceOnUse" x1="1" y1="601.0114" x2="2" y2="601.0114" gradientTransform="matrix(88.6675 -88.6675 -88.6675 -88.6675 53244.4414 53693.1367)">
		<stop  offset="0" style="stop-color:#9CDBF8"/>
		<stop  offset="1" style="stop-color:#0088CF"/>
	</linearGradient>
	<polygon class="st5" points="-1.8,270.1 87.1,181.2 175.9,270.1 87.1,359 	"/>
</g>
<polygon class="st6" points="118,298.3 81.1,298.3 73,306.5 109.9,306.5 "/>
<polygon class="st7" points="116.1,304.7 82.1,304.7 75,311.8 109,311.8 "/>
<rect x="82.1" y="299.4" class="st8" width="34" height="5.3"/>
<polygon class="st9" points="73,301.2 73,306.5 81.1,298.3 81.5,292.6 "/>
<g>
	<defs>
		<rect id="SVGID_18_" x="24.7" y="221.7" width="110.6" height="110.6"/>
	</defs>
	<clipPath id="SVGID_19_">
		<use xlink:href="#SVGID_18_"  style="overflow:visible;"/>
	</clipPath>
	<path class="st10" d="M118,293.6c0-0.7-0.6-1.3-1.3-1.3H82.4c-0.7,0-1.3,0.6-1.3,1.3c0,0,0,4.8,0,4.8c0,0,36.9,0,36.9,0V293.6z"/>
	<polygon class="st11" points="50.2,301.5 50.5,306.3 70.9,304.8 70.6,300.1 	"/>
	<polygon class="st12" points="50.5,305 50.5,306.3 70.9,304.8 70.8,303.6 	"/>
	<path class="st13" d="M70.9,304.8c-0.4,0-0.7-1-0.8-2.3c-0.1-1.3,0.1-2.4,0.5-2.4c0.4,0,0.7,1,0.8,2.3
		C71.5,303.7,71.2,304.8,70.9,304.8"/>
</g>
<g>
	<defs>
		<polygon id="SVGID_20_" points="46.8,310.3 38.7,318.5 116.6,318.5 124.7,310.3 		"/>
	</defs>
	<clipPath id="SVGID_21_">
		<use xlink:href="#SVGID_20_"  style="overflow:visible;"/>
	</clipPath>
	
		<linearGradient id="SVGID_22_" gradientUnits="userSpaceOnUse" x1="0.9901" y1="601.0099" x2="1.9901" y2="601.0099" gradientTransform="matrix(101.2313 0 0 -101.2313 -61.7024 61155.4297)">
		<stop  offset="0" style="stop-color:#10B0E6"/>
		<stop  offset="8.680120e-02" style="stop-color:#10B0E6"/>
		<stop  offset="0.3215" style="stop-color:#0D9DD5"/>
		<stop  offset="0.7963" style="stop-color:#046BA9"/>
		<stop  offset="1" style="stop-color:#005494"/>
	</linearGradient>
	<rect x="38.7" y="310.3" class="st14" width="86" height="8.2"/>
</g>
<rect x="46.8" y="304.2" class="st15" width="77.9" height="6.1"/>
<polygon class="st16" points="46.8,304.2 38.7,312.4 38.7,318.5 46.8,310.3 "/>
<g>
	<path class="st17" d="M57.4,246.8L57.4,246.8c0.1,0.2,0.1,0.3,0.3,0.3l0.7,0c0-0.2,0.1-0.3,0.2-0.3c0.1,0,0.2,0.1,0.3,0.1l-0.1,0.2
		h0.1c0.3-0.2,0.5-0.3,0.8-0.3l0,0.3c-0.2,0-0.4,0.1-0.4,0.2v0.1c0.3,0,0.7,0.1,1.3,0.3l1.1-0.1c0.1,0,0.2-0.1,0.3-0.3
		c0.2,0.1,0.4,0.2,0.5,0.3l1.2-0.2h0.2c0.6,0.2,0.9,0.4,0.9,0.5c-0.1,0-0.2,0.1-0.4,0.3l0,0.1l0.1,0.4l0.4-0.1l0.5,0.3
		c0.1,0.3,0.1,0.5,0.1,0.5c-0.1,0-0.2,0.1-0.2,0.2l0.4,0.4l-0.3,0.7v0.1h0.1l0.3-0.3l0.1,0.2l0,0.2l-0.4,0.4
		c0.1,0.1,0.1,0.2,0.1,0.3c-0.2,0-0.3,0.3-0.2,0.7c0.1,0.4,0.5,0.7,1.2,0.6c0.3,0.3,0.5,0.5,0.5,0.7c-0.3,0.2-0.5,0.3-0.5,0.5
		c0.4,0.2,0.7,0.3,0.8,0.3v0.1c0,0.1-0.1,0.2-0.3,0.2l0.1,0.6v0.2c0,0.1-0.1,0.2-0.2,0.2l0.1,0.2v0.1c0,0.1,0,0.3-0.1,0.5
		c0.2,0,0.4,0.1,0.4,0.3l0.2,0l0.3-0.4H68c0.1,0,0.2,0.1,0.2,0.2c-0.1,0.4-0.1,0.6-0.2,0.6l0.1,0.2v0.2c0,0.1,0,0.2-0.2,0.2l0.2,0.6
		l-0.1,0.2l0.2,0.9l0.2-0.1h0.2l0,0.2c-0.2,0-0.3,0.1-0.3,0.3c0,0.1,0.2,0.3,0.5,0.6c0,0.1-0.4,0.3-1.1,0.6
		c-0.3,0.4-0.4,0.7-0.4,0.8l0.1,0.2c0,0.2-0.1,0.3-0.1,0.3c0.1,0.1,0.1,0.2,0.1,0.3c-0.1,0.2-0.1,0.3-0.2,0.3
		c-0.2-0.2-0.3-0.3-0.3-0.4c0-0.1,0.1-0.2,0.1-0.2c-0.1,0-0.2-0.1-0.3-0.2c0.1,0,0.2-0.1,0.1-0.2c0-0.1-0.2-0.2-0.5-0.1l0-0.3
		c0.3-0.3,0.5-0.5,0.5-0.8c0.5-0.2,0.8-0.4,0.9-0.6v-0.1c-0.1,0-0.2-0.1-0.4-0.2c-0.3,0.3-0.7,0.6-0.9,0.6c0,0.2-0.1,0.2-0.2,0.3
		v0.2l0.2,0.2c-0.1,0.3-0.3,0.4-0.3,0.4c0,0.3,0.2,0.6,0.6,0.9l0,0.2l-1.1,0.4l-0.3-0.1c-0.9,0.1-1.4,0.3-1.6,0.4h-0.1
		c0,0-0.1,0-0.1-0.1l-0.2,0.1l-0.5-0.1c0,0.1-0.1,0.2-0.2,0.3h-0.2c0,0-0.1-0.3-0.2-0.6v-0.1l0.1-0.2c0,0-0.1,0-0.1-0.1
		c0.6-0.5,0.8-0.8,0.8-0.9L63,261l-0.2,0l-0.3,0.2l-0.1,0c-0.1,0-0.2-0.1-0.2-0.2c0.1,0,0.2-0.1,0.2-0.2c-0.1,0-0.1,0-0.1-0.1
		l0.2-0.1l-0.1-0.1v-0.2l0.1-0.4c-0.1,0-0.1,0-0.1-0.1l0.2-0.1l-0.1-0.2v-0.2c0-0.4,0.2-0.6,0.6-0.6v-0.1l-0.2-0.1l0.1-0.2v-0.2
		l-0.4,0.1l-0.1-0.1c-0.3,0.1-0.6,0.2-0.7,0.2l-0.1-0.5c0-0.2,0.2-0.5,0.6-0.8c0,0.1,0,0.1,0.1,0.1c0-0.1,0-0.3,0.1-0.4
		c-0.1,0-0.2,0-0.4-0.1c0,0.1-0.1,0.2-0.2,0.2h-0.2c-0.1,0-0.2-0.1-0.2-0.2l0-0.5c0.1-0.2,0.3-0.3,0.4-0.4l-0.6-0.6
		c0-0.1,0-0.2-0.1-0.3c0-0.1,0.1-0.2,0.1-0.3v-0.1h-0.1c0,0.2-0.1,0.3-0.4,0.5h-0.1c-0.3,0-0.7,0-1.2,0c-0.3,0.1-0.4,0.2-0.4,0.3
		v0.1l0.2,0.2l0.4-0.1l0.9,0l0.2-0.2c0.2,0.2,0.4,0.5,0.4,0.7c-0.2,0-0.4,0.2-0.5,0.6l-0.1,0.1h-0.1c-0.1,0-0.2-0.1-0.3-0.4h-0.1
		c0,0.3,0,0.4-0.2,0.4L60,257c-0.1,0.5-0.3,0.7-0.5,0.7l-0.2,0l0.1,0.4l0,0.1h-0.2c-0.1,0-0.2,0-0.2-0.1l0.1-0.4
		c-0.3,0.3-0.7,0.5-1.1,0.6l0,0.2c0.2,0,0.3,0,0.3,0.1l0.3-0.2c0.2,0.1,0.4,0.1,0.5,0.1v0.2c0,0.1-0.1,0.2-0.3,0.3l0.1,0.2
		c-0.2,0.3-0.3,0.5-0.3,0.8c0.1,0.1,0.1,0.2,0.1,0.3l-0.3,0.3c-0.1,0-0.2-0.1-0.2-0.2l0-0.4l-0.4-0.1l-0.5,0.7
		c0.1,0,0.3,0.2,0.8,0.6l-0.5,1.3c-0.6,0.3-0.9,0.5-0.9,0.5v0.1c0.2,0,0.2,0,0.3,0.1c0,0.1-0.1,0.2-0.4,0.2l0,0.3
		c0.1,0.1,0.3,0.5,0.4,1.1c0.1,0,0.3-0.2,0.8-0.6h0.1l0.3,0.1h0.1c0.7,0,1.2-0.2,1.7-0.6c0.2,0.1,0.3,0.1,0.4,0.1
		c0-0.1,0.1-0.2,0.2-0.2c0.1,0,0.1,0,0.1,0.1c0.4-0.2,0.6-0.3,0.8-0.3l0.4,0.3l0.5-0.4l0.2,0v0.4l0.1,0c0.3-0.3,0.5-0.5,0.5-0.7
		c0,0-0.1,0-0.1-0.1l0.1,0l0.4,0.2l0.4-0.1c0.5,0,0.8,0,0.8,0c0-0.2,0-0.2,0.1-0.3l0.4,0.4h0.1c0.9-0.1,1.4-0.3,1.6-0.4l0.1,0.1
		l-0.1,0.2l0.2,0c0-0.1,0.1-0.3,0.3-0.5l-0.1-0.2v-0.1c0.1-0.2,0.3-0.3,0.4-0.4l-0.1-0.2c0.4-0.7,0.7-1,1.1-1.1l0.2,0.1l-0.1,0.2
		c0,0.1,0.1,0.2,0.2,0.5c-0.1,0.1-0.2,0.1-0.4,0.1l0,0.4l-0.1,0.4l0.8,0.4h-0.1c0.1,0.3,0.2,0.6,0.2,0.7c0,0.1-0.1,0.4-0.2,0.8
		l0.1,0.5h-0.1l0.1,0.2v0.2c0,0.1,0,0.2-0.1,0.3c0.1,0.1,0.1,0.2,0.1,0.2c-0.8,0.4-1.3,0.6-1.3,0.6c-0.1,0-0.2-0.1-0.3-0.1l0,0.4
		l0.4,0.1c0.1,0,0.4-0.3,1-0.8h0.2c0.3,0.1,0.4,0.2,0.4,0.3l-0.2,0.4c0.3,0,0.4,0.1,0.4,0.2l0,0.3c-0.2,0.3-0.3,0.4-0.3,0.4l0.3,0.3
		c0,0.1-0.1,0.2-0.1,0.3h0.2c0-0.2,0-0.3,0.1-0.4h0.1c0.2,0.2,0.4,0.3,0.5,0.3v0.2c0,0.1,0,0.2-0.1,0.2l-0.2,0l-0.4-0.2h-0.1v0.2
		c0.4,0.2,0.6,0.4,0.6,0.6c0,0.1-0.1,0.2-0.1,0.3c0.1,0,0.2,0.1,0.4,0.3v0.1c0,0.1-0.1,0.2-0.4,0.4c0-0.1-0.1-0.2-0.2-0.2
		c-0.1,0-0.2,0.1-0.1,0.2v0.1c0.7,0.4,1.1,0.7,1.3,0.9v0.1c-0.4,0.4-0.7,0.5-0.8,0.5v0.2l0.4,0l0.3-0.2h0.1v0.2h-0.2l0,0.1l0.4,0.3
		c-0.1,0-0.1,0.1-0.1,0.2c0.2,0,0.2,0.1,0.3,0.2l-0.8,0.4c0,0,0,0.1-0.1,0.1H71l-0.5-0.2l-0.1,0.2c0.1,0,0.2,0.1,0.3,0.2l-0.3,0.4
		l0,0.2c0.2,0,0.2,0.1,0.3,0.4l0.2,0l-0.1-0.2c0.4-0.3,0.6-0.4,0.6-0.5c0.2-0.1,0.4-0.2,0.7-0.2h0.2c0.2,0,0.3,0.2,0.3,0.5
		c-0.1,0.1-0.4,0.3-0.8,0.5v0.2c0,0.1,0.1,0.2,0.2,0.2c0.2-0.2,0.4-0.3,0.5-0.3c0,0,0,0.1,0.1,0.1l-0.1,0.2v0.2
		c0.2,0,0.3,0.1,0.3,0.2c-0.1,0.1-0.1,0.2-0.1,0.2c0.1,0,0.2-0.1,0.4-0.1l0.1,0.2c-0.1,0.2-0.2,0.3-0.2,0.3l-0.3,0
		c-0.1-0.1-0.2-0.2-0.3-0.1c-0.1,0.1-0.2,0.1-0.3,0.1c0-0.1,0-0.1-0.1-0.1c-0.3,0.2-0.4,0.4-0.4,0.7c0.3,0.3,0.6,0.4,0.8,0.4
		c0-0.2,0.2-0.3,0.7-0.3c0.1,0,0.2,0.1,0.3,0.2v0.1c0,0.1-0.1,0.2-0.3,0.2l0,0.3c0.7,0.3,1.1,0.8,1.1,1.4l0.2,0.2v0.2h-0.1
		c-0.1,0-0.2-0.1-0.2-0.2h-0.1v0.2l-0.2,0l-0.1-0.4c-0.3,0-0.5,0.2-0.6,0.4c0.2,0.4,0.4,0.7,0.6,1c-0.1,0-0.3,0.1-0.7,0.2h-0.1
		c-0.1,0-0.2-0.1-0.5-0.4l0.1-0.4c-0.1,0-0.2,0-0.4-0.1h-0.3c-0.1,0-0.6,0.1-1.5,0.4l0,0.3c0.3,0.2,0.4,0.4,0.4,0.4
		c-0.2,0.4-0.5,0.6-0.8,0.6l0.1-0.2l0-0.2h-0.2c0,0.3,0,0.4-0.2,0.4h-0.1c-0.1,0-0.2-0.1-0.4-0.4c0.5-0.2,0.8-0.3,0.8-0.4
		c-0.1-0.3-0.3-0.5-0.4-0.5c0,0-0.2,0.2-0.5,0.5l-0.2-0.1c0,0.1-0.2,0.3-0.4,0.4c-0.1-0.1-0.2-0.3-0.2-0.5l-0.6,0
		c0-0.2-0.3-0.6-0.9-1.1v-0.1l0.1-0.2l-0.6-2c-0.2-0.2-0.4-0.4-0.6-0.4c0,0.1,0,0.1-0.1,0.1c-0.1-0.1-0.1-0.2-0.1-0.2
		c0-0.2,0.3-0.4,0.8-0.6c-0.1-0.2-0.1-0.2-0.2-0.2c-0.1,0.1-0.2,0.1-0.2,0.1l-0.1-0.2c0-0.1,0.2-0.3,0.6-0.6v-0.1
		c-0.1-0.2-0.2-0.3-0.3-0.3c0,0.1-0.1,0.2-0.2,0.2c-0.1-0.1-0.2-0.2-0.2-0.3l-0.2,0.1l-0.4,0l0-0.2c0.4-0.2,0.6-0.4,0.6-0.4l0-0.1
		l-0.1-0.1c0.1-0.1,0.1-0.2,0.1-0.4v-0.2l-0.3,0.2l-0.1-0.2c0-0.1,0.1-0.2,0.1-0.2l-0.5,0.8l-0.1-0.1l0-0.8l-0.2-0.2
		c0-0.1,0.2-0.3,0.7-0.4h0.1v0.2l0.3,0c1.6-0.4,2.4-0.7,2.4-0.9l0-0.1l-0.1,0c0,0.1-0.1,0.2-0.4,0.4c-0.2,0-0.4-0.1-0.4-0.4
		c-1.5,0.2-2.4,0.4-2.5,0.5h-0.1c-0.1,0-0.2-0.3-0.4-0.8c0.2-0.3,0.3-0.6,0.3-0.7l-0.2-0.1c0,0.1,0,0.1-0.1,0.1
		c-0.1-0.1-0.1-0.2-0.1-0.2c0-0.2,0.1-0.3,0.3-0.3v-0.1h-0.2v0.1c-0.1,0-0.2-0.1-0.3-0.1l0-0.2c0-0.1,0.1-0.2,0.2-0.2h0.1
		c0.2,0.1,0.4,0.2,0.6,0.2l0.1-0.2l-0.3,0v-0.1l0.1-0.2l-0.2,0l0-0.2l0.4,0v-0.1c-0.5,0-0.8,0-1,0l0-0.3c0-0.1,0.1-0.2,0.3-0.2
		l-0.1-0.2c0-0.1,0-0.1,0.1-0.1c0,0,0-0.1-0.1-0.1l0.1-0.6l0-0.1c0-0.1-0.1-0.2-0.2-0.1L64,267c0.1,0,0.1,0,0.1,0.1l-0.2,0.1h-0.2
		c-0.3-0.2-0.5-0.3-0.6-0.3c-0.3,0.1-0.5,0.1-0.7,0.1v-0.1c-0.1,0-0.3,0.2-0.5,0.4h-0.1c-0.1,0-0.1,0-0.1-0.1l-0.3,0.2
		c-0.5-0.1-0.7-0.2-0.7-0.6c0,0,0.1,0,0.1-0.1l-0.2-0.1c-0.2,0.4-0.3,0.8-0.3,1l0.4,0.1c-0.1,0.4-0.2,0.6-0.4,0.6l-0.6-0.3l0-0.1
		l0.2-0.3c0-0.1-0.1-0.2-0.2-0.2c0,0.1-0.1,0.2-0.3,0.3c-0.5-0.1-0.8-0.3-0.8-0.7c0-0.4-0.1-0.5-0.3-0.6h-0.2v0.1
		c0,0.1,0.1,0.2,0.2,0.5c-0.1,0.6-0.2,0.8-0.3,0.8h-0.1c0-0.2-0.1-0.3-0.4-0.3v-0.2c0.1-0.3,0.2-0.5,0.2-0.6l-0.5-0.2
		c-0.1,0-0.2,0.2-0.4,0.4c-0.2-0.1-0.4-0.2-0.4-0.2c-0.2,0.1-0.3,0.1-0.3,0.1l-0.5-0.1c0,0.1,0,0.1-0.1,0.1c0-0.1-0.1-0.2-0.2-0.2
		c-0.1,0.2-0.3,0.4-0.5,0.4l0,0.1l0.2,0.2c0,0.7-0.5,1.4-1.6,2c-0.1,0-0.2-0.1-0.4-0.1v0.1c0.1,0.1,0.1,0.2,0.1,0.2l0.3-0.2l0.2,0
		c0.1,0,0.2,0.1,0.3,0.2c-0.3,0.5-0.5,0.7-0.7,0.7l0,0.4h0.2v0.1c0,0.1-0.1,0.2-0.3,0.3l-0.2-0.1c0,0.2-0.1,0.3-0.3,0.3l0,0.5
		c-0.3,0.3-0.5,0.5-0.5,0.6c0,0,0.1,0,0.2,0.1c0,0.1-0.1,0.2-0.1,0.3l-0.2-0.1c0,0.6-0.3,1.2-1,1.5l0.1,0.1c0,0.3-0.5,1.2-1.6,2.7
		l-0.9-0.1c0,0.1-0.1,0.2-0.2,0.2l-0.4,0c-0.2-0.1-0.8-0.4-1.7-0.9c-0.2,0-0.7-0.3-1.3-0.9c-0.4,0-0.7-0.2-1.1-0.5l1.3-3.1
		c-0.1-0.1-0.1-0.2-0.1-0.2c0.1,0,0.3-0.4,0.6-1.1l0.2,0l0.2,0.1c0-0.9,0.2-1.4,0.8-1.4c0-0.1,0-0.1,0.1-0.3l-0.1-0.5l0-0.2
		c0.1-0.2,0.6-0.5,1.5-0.7h0.1l0-0.4h-0.2c0,0.2,0,0.3-0.2,0.3l-0.2,0c-0.1,0-0.2-0.1-0.4-0.3l0.3-0.2l0.2,0.1l0.1-0.2l-0.2-0.2
		v-0.1c0.2-0.4,0.6-0.7,1.1-0.9l0.4,0l0,0.2c-0.2,0-0.4,0.1-0.4,0.2l0.3,0l0.6-0.2l0-0.3l-0.1,0c-0.1,0.1-0.2,0.1-0.3,0.1
		c0-0.1-0.2-0.2-0.4-0.2c-0.1,0.1-0.2,0.1-0.2,0.1l-0.1-0.1c0.3-0.6,0.7-1,1-1.2l-0.1-0.4c0.1-0.5,0.2-0.7,0.3-0.7s0.2,0.2,0.4,0.7
		c0,0.1-0.1,0.2-0.1,0.2c0.1,0.1,0.1,0.2,0.1,0.3c0.1,0,0.2-0.1,0.2-0.3c-0.1-0.1-0.1-0.2-0.1-0.3c0.1-0.1,0.2-0.1,0.4-0.1l0-0.2
		c-0.5-0.4-0.7-0.7-0.7-0.7c0.4-0.2,0.6-0.4,0.6-0.8c-0.1-0.1-0.1-0.2-0.1-0.2c0.1-0.4,0.2-0.6,0.3-0.6c0,0.1,0.1,0.2,0.3,0.2h0.1
		c0-0.2,0.1-0.2,0.4-0.3c0-0.1-0.1-0.2-0.3-0.2v0.2h-0.1c-0.1,0-0.2-0.1-0.2-0.2c0-0.1,0.1-0.2,0.2-0.2v-0.1l-0.2,0l0-0.2
		c0.5-0.3,0.7-0.8,0.7-1.5c0.1-0.6,0.2-0.8,0.4-0.8c0.1,0,0.1,0,0.1,0.1l0.2-0.1l0.2,0.1c0.1-0.1,0.1-0.3,0.1-0.6H53
		c0.1,0,0.2,0.1,0.2,0.2h0.1c0.1-0.2,0.4-0.3,0.8-0.3c0.1,0.2,0.3,0.2,0.4,0.2c0.1-0.1,0.2-0.1,0.3-0.1l-0.1-0.2l0.1-0.5
		c-0.3,0.1-0.5,0.2-0.7,0.4c-0.2-0.1-0.3-0.1-0.4-0.1l-0.5,0.1c-0.1-0.1-0.1-0.2-0.1-0.3l-0.3,0.2h-0.1l0-0.4c0.1,0,0.3-0.4,0.5-1
		h0.2c0.1,0.3,0.2,0.6,0.4,0.9l0.4-0.2c-0.1-0.2-0.2-0.3-0.2-0.5l0-0.8l-0.1-0.4c0.1,0,0.2-0.1,0.2-0.2c-0.1,0-0.2-0.1-0.2-0.2v-0.1
		l0.1-0.4h0.2c0,0.1-0.1,0.2-0.1,0.3v0.1H54l0.1-0.4c0,0,0-0.2-0.1-0.5c0.1,0,0.3-0.1,0.5-0.4l0.2,0.2c0.3-0.1,0.4-0.2,0.4-0.4
		c-0.3,0-0.5-0.1-0.7-0.4c0.1-0.1,0.1-0.2,0.1-0.3l0.3,0l0,0.2l0.3,0l0-0.2l-0.3-0.3c0.2-0.2,0.5-0.3,0.8-0.3h0.2
		c0-0.1,0.2-0.3,0.6-0.5c0-0.1,0.1-0.2,0.2-0.2c0.1,0,0.2,0.1,0.2,0.1v0.3l0.3,0.1H57c0.1,0,0.2-0.1,0.3-0.4v-0.2l-0.4-0.1l0-0.2
		c0-0.1,0.1-0.2,0.3-0.2l-0.4-0.3c0-0.1,0-0.1,0.1-0.1l-0.1-0.2l0.1-0.5l-0.2-0.2v-0.2l0.1-0.2c-0.1,0-0.2,0-0.2-0.1
		c0.1-0.2,0.2-0.3,0.2-0.4l-0.1-0.4l0-0.3L57.4,246.8z M45.7,274.4l0.2,0l0-0.2C45.8,274.2,45.7,274.3,45.7,274.4z M45.9,273.9
		c0,0.3,0.1,0.5,0.3,0.5h0.1c0.9-0.3,1.4-0.4,1.4-0.5C46.9,273.9,46.3,273.9,45.9,273.9z M46,274.7l0,0.5c0.6-0.1,1,0,1.2,0.1h0.1
		v-0.1C46.5,275,46.1,274.8,46,274.7L46,274.7z M46.6,272.9v0.3h0.1L46.6,272.9L46.6,272.9z M46.9,271.4v0.2c0.1,0,0.2,0,0.2,0.1
		c0.2-0.1,0.4-0.2,0.7-0.2c0.2,0.2,0.5,0.3,0.7,0.3c0-0.1,0.1-0.2,0.2-0.4l-0.1-0.1c0.1-0.2,0.2-0.4,0.1-0.5l-0.5,0
		C47.8,271.1,47.4,271.3,46.9,271.4z M47.1,273L47.1,273l0.2,0.1V273H47.1z M48.9,271.6l-0.1,0.2v0.1l1.1-0.1v-0.1
		C49.9,271.5,49.5,271.5,48.9,271.6z M49.5,266.3c0,0.4-0.2,0.7-0.6,1l0,0.2H49c0.1-0.1,0.2-0.1,0.3-0.1l0.1,0.2l0.2-0.1l0.3,0.1
		c0.1-0.2,0.2-0.4,0.2-0.6C49.8,266.5,49.6,266.3,49.5,266.3z M49.1,269.1v0.2c0.1,0.3,0.3,0.4,0.6,0.4c0-0.1,0.1-0.2,0.2-0.2l0,0.2
		l1.3-0.1c0.1,0,0.2-0.1,0.1-0.2v-0.1c-1.2,0-1.8-0.1-1.8-0.2V269L49.1,269.1z M50.2,265.7v0.2l0.1,0c0.5-0.2,0.7-0.3,0.8-0.3l0-0.3
		c-0.1,0-0.2,0-0.2-0.1C50.4,265.4,50.2,265.5,50.2,265.7z M50.4,266.8v0.2c0.1,0,0.2,0,0.3,0.1c0.9-0.2,1.3-0.4,1.3-0.5v-0.1
		l-1,0.1L50.4,266.8z M51.3,262.5v0.2l0.1,0c0.1,0,0.2-0.1,0.2-0.2L51.3,262.5z M51.4,263.7c0,0.3,0.1,0.5,0.3,0.5h0.1
		c0.9-0.3,1.4-0.4,1.4-0.5C52.3,263.7,51.7,263.7,51.4,263.7z M51.4,264.5l0,0.5c0.6-0.1,1-0.1,1.2,0.1h0.1V265
		C51.9,264.8,51.5,264.7,51.4,264.5L51.4,264.5z M51.5,260.5l0,0.2h0.1v-0.2H51.5z M52.6,266.3l-0.4-0.1c0,0.1,0,0.2-0.1,0.4
		c0.1,0.2,0.2,0.3,0.2,0.4l0.6-0.1l0.3,0c0,0,0.1,0,0.1,0.1c0.4-0.1,0.6-0.2,0.6-0.4c0-0.3-0.1-0.5-0.3-0.7
		C53.2,266.2,52.9,266.3,52.6,266.3z M52.2,258.8h0.4v-0.2h-0.2C52.2,258.6,52.2,258.7,52.2,258.8z M52.3,259.2L52.3,259.2
		c0,0.2,0.1,0.3,0.2,0.2c0.1,0,0.2-0.1,0.1-0.2v-0.2C52.5,259.2,52.4,259.2,52.3,259.2z M52.3,268.4l0,0.2c0.1,0,0.2-0.1,0.2-0.2
		L52.3,268.4z M52.4,262.2c0.1,0,0.5,0,1.2,0.1l0.1,0c0,0-0.2-0.2-0.7-0.4l-0.2,0C52.7,261.9,52.6,262,52.4,262.2z M53.6,259.6
		c0,0.2-0.4,0.6-1.1,1.1v0.1l0.1,0.1c0.1,0,0.2-0.1,0.3-0.1L53,261c0.3,0,0.5-0.2,0.5-0.5h0.2c0.1,0,0.2,0.1,0.2,0.1
		c-0.1,0-0.1,0-0.1,0.1c0.7,0,1.1,0.1,1.2,0.1v-0.1c-0.6-0.1-1-0.4-1.2-1.1L53.6,259.6z M55.3,262l-0.4-0.1
		c-0.3,0.2-0.4,0.3-0.4,0.4c0,0.3-0.2,0.6-0.6,0.8c0.1,0,0.2,0.1,0.3,0.1v0.2l-0.6,0.1c0-0.1-0.1-0.2-0.2-0.1
		c-0.1,0-0.2,0.1-0.2,0.3c0.1,0.2,0.1,0.2,0.2,0.2c0.1-0.1,0.2-0.1,0.3-0.1c0,0.1-0.1,0.2-0.3,0.2l0,0.3c0.1,0,0.4-0.2,0.8-0.5
		l-0.1-0.2l0-0.2c0.3,0.5,0.6,0.7,0.8,0.7v-0.1c0-0.2,0-0.4,0.1-0.5c0-0.1-0.2-0.3-0.7-0.4v-0.2c0.4-0.3,0.7-0.5,0.7-0.6L55.3,262
		l0.2,0.1c0.1,0,0.2,0.1,0.2,0.2l-0.1,0.2c0.2,0.1,0.4,0.1,0.5,0.1c0.1-0.1,0.2-0.4,0.4-0.9l-0.1,0c-0.1,0.1-0.2,0.1-0.3,0.1
		c-0.2-0.2-0.3-0.3-0.3-0.4h-0.1C55.7,261.4,55.5,261.6,55.3,262z M53.4,267.3c0,0.1,0,0.2-0.1,0.3c0.1,0.2,0.2,0.4,0.4,0.4
		c0,0,0-0.3,0.1-0.7l-0.2-0.1H53.4z M53.4,255.8h0.2v0.3C53.5,256,53.4,256,53.4,255.8L53.4,255.8z M53.8,264.7l-0.1,0.2l0.6,0.1
		v-0.1C54.3,264.8,54.1,264.7,53.8,264.7z M54.1,259.4L54.1,259.4l0.7,0.1l0.8,0.6h0.2c0-0.2,0.1-0.3,0.3-0.3l-0.2-0.2
		c0.1-0.1,0.1-0.2,0.1-0.3c-0.6,0-0.9-0.1-0.9-0.1c0.1,0,0.2-0.1,0.3-0.3l0-0.1c0-0.1-0.1-0.2-0.3-0.2l-0.2,0L54.1,259.4z
		 M54.3,253.8l0,0.2c0,0.1,0.1,0.2,0.3,0.2v-0.1l-0.1-0.5C54.3,253.7,54.3,253.7,54.3,253.8z M54.5,256.6c0,0.1,0.1,0.2,0.3,0.2
		c0.1,0,0.2-0.1,0.2-0.2c-0.1,0-0.2-0.1-0.2-0.2l-0.1,0C54.6,256.4,54.5,256.5,54.5,256.6z M54.7,255.8l0.1,0.2
		c0,0.1-0.1,0.2-0.1,0.2H55c0-0.1,0-0.3,0.2-0.4l-0.2-0.1h-0.1L54.7,255.8z M54.8,254.1c0.3,0.5,0.7,0.7,1.1,0.7
		c0.1-0.5,0.1-0.9,0.1-1c-0.1,0-0.2,0-0.2-0.1C55.6,253.8,55.2,253.9,54.8,254.1z M55.3,268.6c0.1,0,0.2,0.1,0.2,0.1v0.1
		c0,0.1-0.1,0.2-0.4,0.3l-0.1-0.1C55,268.8,55.1,268.7,55.3,268.6z M57.9,256.2c0,0.1-0.1,0.2-0.3,0.3l-1.3,0h-0.1l-0.4,0.3l0.1,0.1
		l0,0.1l-0.2,0.3l0.1,0.4l1.2-0.1l0-0.4c0-0.2,0.3-0.3,0.7-0.3l0.1,0l0,0.3c0.2-0.2,0.3-0.3,0.4-0.3c0-0.1-0.1-0.2-0.2-0.2l0.1-0.5
		L57.9,256.2z M55.7,260.8l0.3,0l0.8-0.5l-0.2,0c-0.1,0.1-0.2,0.1-0.3,0.1c-0.1-0.1-0.1-0.2-0.1-0.3h-0.1
		C55.9,260,55.8,260.3,55.7,260.8z M55.8,255.9L55.8,255.9l0.2,0.1v-0.3C55.9,255.7,55.8,255.8,55.8,255.9z M57.6,251.9
		c0,0.1,0,0.2-0.1,0.2l-0.2-0.1c-0.3,0.1-0.5,0.2-0.7,0.4l-0.2,0l-0.3-0.2c0,0.3-0.1,0.4-0.3,0.4l0.1,0.4l0,0.3l0.3,0
		c0-0.5,0.1-0.8,0.1-0.9c0.3,0.1,0.4,0.2,0.5,0.5h-0.1l-0.2-0.1l0,0.1c0.2,0.2,0.4,0.4,0.4,0.4c-0.1,0-0.3,0.3-0.6,0.8l-0.1,0v0.1
		h0.2l0.6-0.2c0,0.1,0.1,0.2,0.2,0.2h0.1c-0.1-0.2-0.2-0.3-0.2-0.4c0.1,0,0.2-0.2,0.2-0.6l-0.4-0.4l0.7-0.5c0.1,0,0.2,0.1,0.2,0.2
		c0,0-0.1,0-0.1,0.1c0.1,0,0.2,0.1,0.2,0.1c0.3-0.2,0.5-0.3,0.6-0.3l0-0.2c0-0.1-0.1-0.2-0.3-0.2l-0.3,0.2H58L57.6,251.9z
		 M56.3,249.2c0.1,0.4,0.3,0.7,0.4,0.9v0.1l-0.1,0l-0.4-0.2c0,0.4,0,0.6-0.1,0.6c-0.1,0-0.2-0.1-0.2-0.2c0,0,0-0.1,0.1-0.1l-0.1-0.2
		c0.2-0.2,0.2-0.4,0.2-0.5c-0.1-0.1-0.1-0.2-0.1-0.2L56.3,249.2z M56,263.2l0,0.3c0.1,0,0.2-0.1,0.1-0.2v-0.1H56z M56.4,254.8
		L56.4,254.8c0,0.2,0.1,0.2,0.2,0.2l0.1-0.2L56.4,254.8L56.4,254.8z M56.8,261.7L56.8,261.7l0.4,0c0-0.1-0.1-0.2-0.2-0.1h-0.1
		C56.8,261.6,56.8,261.7,56.8,261.7z M56.9,260.2c0.1,0,0.1,0,0.3,0.1l0.1-0.2l0-0.2C57.1,259.9,57,260,56.9,260.2z M57,258.7l0,0.4
		c0.5,0.1,0.7,0.2,0.7,0.5l0.1,0c0.1,0,0.2-0.1,0.1-0.2l0-0.5l-0.4,0.1h-0.1l0-0.4L57,258.7z M58.1,247.7L58,248h-0.1l-0.2-0.1
		l0,0.2c0.1,0.1,0.1,0.2,0.1,0.2H58c0.1,0,0.2-0.1,0.2-0.2L58.1,247.7L58.1,247.7z M57.8,246.6H58v0.2h-0.1L57.8,246.6z M57.9,253.5
		c0,0.1,0.1,0.1,0.4,0.2v-0.2L57.9,253.5z M58,249.3l0,0.2h0.1L58,249.3L58,249.3z M58.2,249.4v0.2l0.2,0v-0.2L58.2,249.4z
		 M58.3,246.5h0.2c0,0.1,0,0.2-0.1,0.2h-0.1V246.5z M58.5,256.4c0.1,0.1,0.2,0.3,0.2,0.5h0.1c0.1,0,0.2-0.1,0.4-0.4
		c0-0.4-0.1-0.6-0.2-0.6C58.8,256,58.7,256.1,58.5,256.4z M59.7,266.9l0,0.3c0.1,0,0.2-0.1,0.2-0.3H59.7z M60.6,252.7
		c0,0-0.2,0.2-0.5,0.5c0,0.1,0.1,0.2,0.2,0.2c0.1,0,0.3-0.2,0.5-0.5C60.8,252.7,60.7,252.7,60.6,252.7z M60.4,266.7h0.2l0-0.2
		C60.4,266.5,60.4,266.6,60.4,266.7z M61.4,264.2l-0.5,0.6v0.1H61c0.2-0.1,0.4-0.2,0.7-0.5L61.4,264.2z M62.1,259.3L62.1,259.3
		c0.2,0,0.3,0.1,0.3,0.1c-0.1,0.1-0.2,0.3-0.2,0.4l-0.2,0c-0.1,0-0.2-0.1-0.2-0.2C61.9,259.5,62,259.3,62.1,259.3z M62.6,253.5
		l-0.4,0l0,0.8l0.4,0c0-0.3,0.2-0.4,0.5-0.5v-0.1c-0.2,0-0.3-0.1-0.3-0.3L62.6,253.5z M62.5,267.7c0.1,0,0.2,0.1,0.3,0.4l-0.3,0.2
		h-0.1l-0.3-0.2C62.3,267.9,62.4,267.8,62.5,267.7z M62.4,248.2L62.4,248.2c0,0.2,0.1,0.3,0.4,0.3c0-0.1,0-0.1,0.1-0.1
		c-0.1-0.1-0.1-0.2-0.1-0.2L62.4,248.2z M63.2,251.4h0.2l0.8-0.3V251C63.5,251.1,63.2,251.2,63.2,251.4z M63.2,248.2l0,0.2l0.1,0
		L63.2,248.2L63.2,248.2z M63.9,255.3l0.1,0.1c0.3-0.1,0.4-0.2,0.4-0.3l-0.2-0.1C64.1,255.2,63.9,255.3,63.9,255.3z M64,257.3
		L64,257.3L64,257.3l0.5,0V257C64.2,257.1,64,257.1,64,257.3z M64.3,257.4L64.3,257.4l0.2,0.1v-0.1H64.3z M64.7,255.1
		c0,0.2-0.1,0.4-0.2,0.6c0.1,0,0.2,0,0.2,0.1c0.5,0,0.8-0.2,1.1-0.6h-0.2l-0.3,0.2h-0.1l-0.4-0.2H64.7z M64.7,254.5l0.2,0.1l0.1,0
		c0,0,0.3-0.3,0.6-0.8l-0.1-0.2C64.9,253.8,64.7,254.1,64.7,254.5z M65.1,256.8v0.3l-0.1,0v0.1c0.1,0,0.3,0,0.7,0.1
		c0.4-0.1,0.6-0.3,0.6-0.6l-0.2,0l-0.3,0.2l-0.2,0v-0.2L65.1,256.8z M65.4,262.4c0.1,0,0.2,0.1,0.2,0.1l-0.1,0.1
		c-0.1,0-0.2,0-0.2-0.1L65.4,262.4z M66.1,253.6C66.1,253.5,66.1,253.5,66.1,253.6L66.1,253.6l0,0.3l0.2-0.1h0.2v0.2h0.2l0-0.6
		C66.4,253.5,66.2,253.6,66.1,253.6z M66.1,259.4c0,0.1,0.1,0.1,0.3,0.2h0.2v-0.1c0-0.1-0.1-0.2-0.2-0.2L66.1,259.4z M66.5,263.6
		L66.5,263.6c0.1,0.1,0.2,0.2,0.2,0.4l0.6,0c0-0.2,0.1-0.3,0.2-0.3v-0.1l-0.4,0.1H67c-0.1,0-0.2-0.1-0.2-0.2
		C66.8,263.6,66.6,263.6,66.5,263.6z M66.8,276.5L66.8,276.5l0.2,0.1v-0.1L66.8,276.5z M67.5,269.1l-0.4-0.1l-0.3,0.5v0.1H67
		l0.5-0.3c0,0.2,0.2,0.4,0.6,0.4l0,0.2l0.2,0c0-0.3,0.1-0.5,0.5-0.6l0.4,0.1l0.4-0.3c0.1,0,0.2,0.1,0.4,0.1l0.1-0.2v-0.2H70
		l-0.3,0.2c-0.1,0-0.3,0-0.5-0.1c0,0.1,0,0.1-0.1,0.2l-0.2-0.1l-0.2,0.2l-0.3,0V269l0.2-0.3c-0.4,0-0.5,0-0.5-0.1
		C68,268.7,67.8,268.8,67.5,269.1z M67,257.4c0,0.1,0,0.3-0.1,0.4c0,0.1,0.2,0.2,0.6,0.2c0-0.1,0.1-0.2,0.3-0.2
		c0-0.1-0.1-0.3-0.2-0.5c0,0-0.1,0-0.1,0.1L67,257.4L67,257.4z M67,265.3l0.2,0.1h0.1c0.1-0.1,0.3-0.2,0.4-0.2l0-0.3l-0.1,0
		C67.3,265,67.1,265.2,67,265.3z M67.6,255.4c0.1,0,0.2,0.1,0.3,0.3l-0.2,0.1l-0.3,0c0-0.1,0-0.1-0.1-0.3L67.6,255.4z M67.8,270.5
		H68l0-0.2C67.8,270.3,67.8,270.4,67.8,270.5z M68.2,263.3L68.2,263.3c-0.3,0-0.4,0.2-0.4,0.5h0.1l0.4-0.1c0.2,0.4,0.3,0.6,0.4,0.6
		h0.1c0-0.1,0.1-0.3,0.4-0.7v-0.1c-0.2-0.3-0.3-0.4-0.4-0.4L68.2,263.3z M67.8,267.7L67.8,267.7c0,0.2,0.1,0.3,0.2,0.2h0.3
		c0-0.1,0-0.2,0.1-0.4c-0.1,0-0.1,0-0.1-0.1C68.2,267.7,68,267.7,67.8,267.7z M68.2,269l0,0.3c-0.1,0-0.2-0.1-0.2-0.2L68.2,269z
		 M68.9,271.3c0,0.2-0.1,0.3-0.5,0.4v0.2c0.5,0,0.7,0.1,0.9,0.1l0.4-0.3l0.2,0.1c0,0,0.1,0,0.1-0.1l0.4,0.1l0.4,0l0-0.2
		c0-0.1-0.1-0.2-0.4-0.2c-0.1,0.1-0.2,0.1-0.3,0.1c0-0.1-0.1-0.2-0.2-0.2c0,0.1-0.1,0.2-0.3,0.3l-0.1,0
		C69.5,271.4,69.3,271.3,68.9,271.3z M68.5,274.8h0.2v-0.2C68.6,274.6,68.5,274.7,68.5,274.8z M68.7,279.5v0.2l0.2,0v-0.2
		L68.7,279.5z M69.1,270.7c0,0.2-0.1,0.2-0.3,0.3c0,0.1,0.1,0.2,0.3,0.2h0.1c0.1,0,0.2-0.1,0.2-0.2v-0.1
		C69.4,270.8,69.3,270.8,69.1,270.7z M69,274.2c0,0.2,0,0.4-0.2,0.6l0.4,0.1c0-0.2,0-0.3,0.1-0.3C69.2,274.3,69.1,274.2,69,274.2z
		 M69.2,273.3l0,0.2c0,0.1,0.1,0.2,0.2,0.2c0.2-0.2,0.3-0.3,0.4-0.3c-0.1-0.3-0.1-0.4-0.2-0.4C69.4,273.1,69.2,273.2,69.2,273.3z
		 M69.3,275l0,0.3l0.2,0v-0.1C69.5,275,69.4,275,69.3,275z M69.4,262.3L69.4,262.3l0.1,0.2h-0.1V262.3z M70.5,276.1L70.5,276.1
		l0.2,0.1v-0.1H70.5z M72,275.7L72,275.7l0.1,0.1l-0.1,0V275.7z M74,279c0.3,0.1,0.5,0.2,0.5,0.3v0.2c0,0.1-0.1,0.2-0.3,0.2
		l-0.6-0.1v-0.1C73.8,279.2,73.9,279,74,279z"/>
	<path class="st17" d="M86.4,249.7c0.4,0.4,0.7,0.8,1,1.3c0,0.4-0.1,0.6-0.2,0.7l0.1,0.1c-0.1,0.2-0.1,0.3-0.1,0.4
		c0,0,0.1,0,0.1,0.1l-0.5,0.3c-0.1,0-0.2-0.1-0.2-0.1l-0.7,0.4l0.3,0.3l0.4-0.1h0.4c0.1,0,0.1,0.1,0.1,0.1c0,0-0.1,0-0.1,0.1
		c0,0,0.1,0,0.2,0.1l0.4-0.1c0.1,0,0.1,0.1,0.1,0.1v0.1c0,0.1,0,0.1-0.1,0.1l-0.4-0.1l0.1,0.1v0.1c-0.2,0-0.4,0.1-0.6,0.4
		c0,0.2,0.2,0.3,0.4,0.4h0.1l0.1-0.1l0.1,0.1c0,0-0.1,0-0.1,0.1c0.1,0,0.1,0.1,0.1,0.1v0.1c-0.2,0.3-0.6,0.5-1.3,0.5v0.1
		c0.3,0,0.6,0.2,0.9,0.5l0.4-0.1l0.1,0.3c0,0.2-0.1,0.4-0.3,0.4v0.1c0,0.3,0.1,0.5,0.2,0.5c-0.1,0.2-0.2,0.3-0.3,0.4l-0.1-0.1
		c-0.1,0-0.2,0.1-0.2,0.1c0,0,0-0.1-0.1-0.1c0,0.1-0.2,0.2-0.6,0.4c0.7,0.5,1,0.7,1.1,0.7v0.1c-0.4,0-0.6,0.2-0.6,0.7
		c0,0,0.1,0,0.1,0.1l-0.2,0.1c0,0.2,0.2,0.4,0.4,0.6v0.2l-0.1,0.1l0.5-0.1h0.1v0.1c0,0.1-0.1,0.2-0.1,0.2h0.1
		c0.2-0.3,0.4-0.5,0.7-0.5c0.3,0.4,0.5,0.6,0.5,0.7c0.1,0,0.3-0.1,0.7-0.4h0.4v-0.1c0.3,0.1,0.5,0.1,0.7,0.1l0.5-0.4h0.3l0.3,0.4
		c0.1,0,0.2-0.2,0.5-0.5c0.2,0.1,0.4,0.3,0.4,0.5c0.2-0.1,0.4-0.3,0.7-0.4c0.1,0.2,0.2,0.3,0.2,0.4c-0.1,0-0.1,0.1-0.1,0.1
		c0,0.1,0.1,0.2,0.1,0.2h-0.1c0,0-0.1,0-0.1-0.1c-0.3,0.1-0.5,0.2-0.7,0.4l-0.2-0.1l-0.2,0.1h-0.4v0.1h0.1l0.4-0.1
		c0,0.1,0.1,0.2,0.3,0.3h0.1c0-0.2,0.3-0.3,0.9-0.5c0.1-0.2,0.1-0.3,0.2-0.3l0.1,0.1c0-0.1,0.1-0.1,0.2-0.2h0.1c0,0,0.1,0,0.1,0.1
		c0.1,0,0.2-0.1,0.2-0.1l-0.1-0.4v-0.1h0.1c0,0,0.1,0,0.1,0.1l0.7-0.1l0.4,0.2l-0.2,0.4c0,0.1,0.1,0.2,0.1,0.3l-0.1,0.2l0.1,0.1
		c0.1,0,0.1,0,0.1-0.1c0,0-0.1,0-0.1-0.1c0.3-0.2,0.7-0.3,1-0.4c0.2-0.1,0.4-0.3,0.6-0.6c0.4-0.1,0.6-0.1,0.7-0.1l0.1,0.1l-0.1,0.4
		c0.3-0.1,0.4-0.3,0.4-0.6c0-0.1,0.1-0.1,0.2-0.2c0.1,0,0.1,0.1,0.1,0.2c0.1,0,0.1,0,0.1-0.1c0,0-0.1,0-0.1-0.1
		c0.1,0,0.4-0.1,0.8-0.1c0.1,0,0.2,0.1,0.2,0.1v0.1c-0.1,0.4-0.2,0.6-0.3,0.6h-0.1l-0.4-0.1l0.1,0.1v0.1c-0.2,0.2-0.3,0.4-0.3,0.4
		l0.1,0.1H99c0-0.2,0-0.3,0.1-0.3c0.1,0,0.2,0.1,0.3,0.3v0.4h0.2l0.2-0.1l0.4,0.1c0,0,0-0.1,0.1-0.1c0.1,0.2,0.2,0.3,0.2,0.4
		l-0.1,0.1c0,0.1,0.1,0.2,0.1,0.3c0,0.1,0,0.1-0.1,0.1c-0.1,0-0.1-0.1-0.1-0.2l-0.3,0.2l-0.4-0.1c-0.2,0-0.3,0.2-0.4,0.6l0.2,0.3
		v0.2h0.3v0.4c0,0.1,0,0.1-0.1,0.1c0,0.2,0.1,0.4,0.1,0.4c0.4-0.1,0.6-0.2,0.6-0.2l0.4,0.5v0.1c-0.2,0.4-0.4,0.6-0.4,0.6h-0.1
		c-0.1-0.1-0.2-0.1-0.3-0.1c-0.1,0-0.3,0.3-0.5,0.9c-0.3,0.2-0.6,0.3-0.9,0.4c-0.1,0.3-0.2,0.4-0.3,0.4H98l-0.2-0.1l-0.3,0.8h-0.2
		c-0.1,0-0.2-0.1-0.3-0.3c0.1-0.2,0.2-0.3,0.3-0.4l-0.1-0.5v-0.1c0.7-0.5,1-0.8,1-0.9c0-0.1-0.1-0.2-0.1-0.2H98
		c0,0.2-0.3,0.5-0.8,0.7c0,0.1,0,0.1-0.1,0.1c0,0,0-0.1-0.1-0.1l0.1-0.1v-0.1l-0.3-0.4v-0.1l0.2-0.3c-0.1,0-0.2,0-0.3-0.1
		c0,0.3-0.1,0.5-0.3,0.6h-0.1l-0.4-0.1c0,0.2-0.2,0.4-0.7,0.4c0,0.5,0.2,0.8,0.7,0.8v0.1c0,0.1-0.1,0.2-0.4,0.3l-0.3-0.2l-0.3,0.2
		l-0.1-0.1l-0.1,0.1c0,0-0.1,0-0.2-0.1c-0.4,0.1-0.6,0.1-0.7,0.1c-0.1,0-0.2-0.1-0.3-0.1c0,0.1,0,0.2-0.1,0.2l-0.1-0.1V267
		c0.2-0.1,0.4-0.5,0.6-1v-0.1h-0.2c-0.2,0.2-0.5,0.4-1,0.7c0,0.1,0,0.2-0.1,0.3c0,0.1,0.1,0.2,0.1,0.2l-0.1,0.1
		c-0.1,0-0.2-0.1-0.3-0.1l-0.1,0.3c0.1,0,0.1,0.1,0.2,0.2v0.1l-0.6-0.3h-0.1c-0.1,0-0.2,0-0.3,0.1c-0.3-0.2-0.5-0.3-0.7-0.3l0.1,0.1
		c-0.1,0.2-0.2,0.4-0.4,0.4l-0.1-0.1c-0.1,0-0.2,0.1-0.2,0.1c0-0.1-0.1-0.1-0.2-0.2h-0.1c0,0.1-0.1,0.3-0.3,0.4l-0.1-0.2
		c0-0.4,0.3-0.6,1-0.7c0-0.1,0.1-0.1,0.1-0.1l0.1,0.1l-0.1,0.1v0.1h0.4c0-0.2,0-0.4,0.1-0.6c-0.2-0.1-0.3-0.1-0.3-0.2l0.1-0.1h-0.1
		l-0.3,0.4H90l-0.2-0.1h-0.3c-0.3,0.4-0.8,0.7-1.3,1c-0.1,0-0.2-0.1-0.3-0.3V267c0-0.1,0.1-0.1,0.1-0.1c-0.2-0.4-0.3-0.6-0.3-0.7
		c-0.1,0.1-0.2,0.5-0.5,1.3h-0.1l-0.1-0.1c0,0.1,0,0.2-0.1,0.3c0,0.1,0.1,0.2,0.1,0.2c-0.1,0-0.2,0.1-0.5,0.3c0-0.1,0-0.1-0.1-0.1
		c-0.1,0-0.2,0.1-0.4,0.4l0.1,0.1c0.1,0,0.3-0.1,0.5-0.2l0.7,0.7v0.2H87v0.1l0.1,0.2v0.1c0,0-0.1,0-0.1-0.1c-0.3,0-0.5,0.2-0.7,0.7
		c0.4,0.1,0.6,0.3,0.7,0.4c0,0.1,0,0.1-0.1,0.1l0.1,0.1v0.1c0,0.1,0,0.1-0.1,0.1c-0.1-0.2-0.3-0.4-0.5-0.4h-0.1l0.1,0.2l-0.1,0.4
		c0,0.1,0.2,0.3,0.4,0.4c0-0.1,0.1-0.1,0.2-0.2c0.1,0,0.2,0.2,0.2,0.4c-0.2,0.2-0.4,0.4-0.5,0.4c0-0.1,0-0.1-0.1-0.1
		c0,0.3,0,0.5-0.1,0.6l0.2,0.3v0.2c-0.1,0.2-0.2,0.4-0.3,0.4l-0.5-0.1v0.1l0.2,0.4c-0.1,0-0.1,0.1-0.2,0.2c0.1,0,0.2,0.1,0.4,0.1
		c0-0.1,0.1-0.1,0.1-0.1h0.1c0.1,0,0.1,0.1,0.1,0.1c0,0.1-0.2,0.2-0.4,0.2c0,0.1,0.1,0.1,0.4,0.1v0.2c0,0.1,0,0.1-0.1,0.1
		c-0.1-0.2-0.2-0.3-0.2-0.4H86c0,0.2-0.3,0.4-0.7,0.4v0.1c0,0.1,0.1,0.1,0.1,0.1c0.1,0,0.2-0.1,0.3-0.1c0,0.1,0.1,0.2,0.3,0.2v0.1
		c0,0.1-0.1,0.2-0.3,0.3l-0.2-0.1h-0.1l0.1,0.1c-0.3,0.3-0.7,0.5-1,0.5l-0.1-0.1v-0.1c0-0.1,0.1-0.1,0.2-0.2h0.4
		c0-0.1,0-0.2,0.1-0.3c-0.1,0-0.1-0.2-0.1-0.5c-0.1,0-0.1,0.1-0.1,0.1l-0.7-0.1l-0.1,0.2c0.1,0,0.1,0.1,0.1,0.1l-0.1,0.1
		c0-0.1-0.2-0.3-0.6-0.4l-0.1,0.1h-0.1c-0.1,0-0.1,0-0.1-0.1c0,0,0.2-0.2,0.5-0.5c0,0,0,0.1,0.1,0.1l0.4-0.4v-0.2
		c-0.2,0-0.4,0-0.4-0.1l-0.1,0.1l-0.1-0.1l-0.4,0.1c-0.1-0.3-0.2-0.7-0.3-1.3v-0.2c-0.1,0-0.2,0-0.2-0.1v-0.2c0,0,0.1-0.2,0.4-0.4
		l-0.3-0.6v-0.1c0.3-0.3,0.6-0.5,0.7-0.5v-0.2c-0.3,0-0.4,0-0.4-0.1v-0.1c0,0,0-0.1,0.1-0.1c-0.1-0.2-0.1-0.3-0.1-0.4l0.2-0.1
		l-0.1-0.1v-0.1h0.4l-0.3-0.4v-0.1l0.3-0.5l-0.1-0.1l-0.2,0.1l0.1,0.1v0.1h-0.2c-0.1,0-0.2-0.3-0.2-0.8c0,0-0.1,0-0.1-0.1
		c0,0,0.1,0,0.1-0.1h-0.1l-0.4,0.3c-0.1-0.1-0.3-0.1-0.5-0.1v0.1h-0.1l-0.1-0.1l0.1-0.1v-0.1h-0.1c-0.2,0.1-0.4,0.3-0.4,0.4h-0.1
		c0-0.4,0.3-0.7,1-1l0.2,0.1c0.1,0,0.2-0.2,0.3-0.5c0,0-0.1,0-0.1-0.1l-0.1,0.1c-0.2-0.1-0.4-0.3-0.4-0.4h-0.1
		c-0.1,0-0.2,0.2-0.4,0.7c-0.2,0.2-0.4,0.3-0.6,0.3l0.1,0.1c-0.1,0.2-0.2,0.3-0.4,0.4h-0.2l-0.4-0.1c0,0.1,0,0.1-0.1,0.1l-0.1-0.2
		c0-0.1,0.1-0.1,0.4-0.2c0-0.1-0.1-0.3-0.2-0.5c0-0.1,0.1-0.2,0.1-0.2l-0.1-0.1h-0.1c0,0.5-0.1,0.7-0.2,0.7c0,0,0,0.1,0.1,0.1
		l-0.1,0.4c0,0.1,0.1,0.2,0.4,0.2v0.2c-0.1,0-0.2,0-0.3,0.1c-0.5-0.2-0.7-0.6-0.7-1c-0.1,0-0.2,0.1-0.2,0.1l0.1,0.1v0.2l-0.1,0.2
		v0.1c0.1,0,0.2,0,0.2,0.1v0.1h-0.2V268h-0.1c0,0,0,0.1-0.1,0.2c0,0.1,0.1,0.2,0.1,0.2l-0.1,0.1c-0.4,0-0.7-0.1-0.9-0.2
		c0.1-0.3,0.1-0.5,0.2-0.5h0.1l0.4,0.1c0-0.1,0.1-0.3,0.3-0.5c-0.1-0.3-0.3-0.5-0.5-0.7c0,0.2-0.2,0.4-0.7,0.6
		c-0.3,0-0.4-0.1-0.5-0.3v-0.1c0,0,0-0.2,0.1-0.6v-0.2c-0.5,0-0.7-0.3-0.8-1c-0.2-0.8-0.4-1.2-0.4-1.2c0.3-0.4,0.6-0.7,0.9-1
		c0-0.2,0.4-0.5,1.2-0.9h0.1v0.4c0.1,0,0.3,0,0.8-0.1l0.2,0.1h0.1c0-0.2,0.1-0.4,0.2-0.4H79c0-0.1,0.1-0.1,0.1-0.1l0.2,0.1h0.1
		c0-0.3,0.4-0.5,1.1-0.7v0.1h-0.1v0.1c0.3,0,0.6-0.1,0.8-0.4l0.1,0.2l-0.2,0.3c0.1,0,0.3,0.1,0.7,0.4l0.1-0.1
		c-0.2,0-0.3-0.1-0.3-0.2v-0.1l0.7-0.7c0.1,0,0.2,0.1,0.4,0.4h0.1l-0.1-0.4c0-0.1,0.1-0.1,0.1-0.1H83c0.2,0.1,0.4,0.3,0.4,0.4h0.1
		c0.1,0,0.1,0,0.1-0.1l-0.1-0.4h-0.1v0.1h-0.1V261c0-0.2,0.2-0.4,0.7-0.6v-0.2c0-0.1-0.1-0.2-0.3-0.3l-0.3,0.1l-0.2-0.4v-0.1
		l0.4-0.7l-0.1-0.5v-0.1c0-0.1,0.2-0.2,0.5-0.4c0-0.1,0.1-0.1,0.2-0.1v-0.1l-0.4,0.1h-0.2c-0.1,0-0.1,0-0.1-0.1v-0.5l0.4-0.7
		c-0.1-0.2-0.1-0.3-0.1-0.4l0.1-0.1c-0.1-0.2-0.1-0.3-0.1-0.4l0.4-0.2l-0.1-0.1c0-0.1,0.1-0.1,0.3-0.1l-0.7-0.4
		c0-0.5,0.1-0.7,0.1-0.7l-0.1-0.1v-0.3c0-0.1,0.1-0.4,0.3-0.9c-0.1,0-0.1,0-0.1-0.1v-0.1c0.3-0.6,0.8-1,1.3-1l-0.1-0.4
		C85.7,250,86.2,249.7,86.4,249.7z M77.4,266.5c0,0.1,0.1,0.1,0.1,0.1h0.1l0.1-0.4h-0.1C77.6,266.2,77.5,266.3,77.4,266.5z
		 M78.2,267v0.1h0.1L78.2,267L78.2,267z M78.5,266.2h0.1V266C78.5,266,78.5,266.1,78.5,266.2z M78.7,274.4L78.7,274.4l0.1,0.1h-0.2
		C78.5,274.5,78.6,274.4,78.7,274.4z M80.1,265l0.2,0.4c-0.2,0.1-0.3,0.1-0.3,0.2c0,0.1,0.1,0.2,0.1,0.3c-0.1,0-0.1,0.1-0.1,0.1
		l-0.1-0.1h-0.2l0.1,0.4h0.2c0-0.1,0.2-0.2,0.6-0.3c0.1-0.2,0.1-0.3,0.1-0.4c-0.1,0-0.1,0-0.1-0.1l0.1-0.3l-0.1-0.4
		C80.2,264.9,80.1,264.9,80.1,265z M81.5,264.3h0.1v-0.1C81.5,264.2,81.5,264.2,81.5,264.3z M82.3,266.8L82.3,266.8l0.1,0.2
		c0,0.1-0.1,0.2-0.1,0.2h0.3v-0.1l-0.1-0.4H82.3z M83.2,267.9c0,0.1,0.1,0.1,0.1,0.1c0,0,0-0.1,0.1-0.1c0,0.1,0.1,0.1,0.1,0.1h0.1
		l0.4-0.4c0.1,0,0.2,0.1,0.3,0.1l0.1-0.2v-0.2h-0.1C83.9,267.4,83.5,267.6,83.2,267.9z M83.2,274.5h0.1v0.1L83.2,274.5L83.2,274.5z
		 M83.4,272.9v0.2c0.2,0,0.4,0.1,0.5,0.2H84c0-0.1,0-0.1,0.1-0.1c0-0.1-0.1-0.2-0.4-0.4v-0.1h-0.1C83.4,272.7,83.4,272.8,83.4,272.9
		z M83.5,268.8v0.2c0.2-0.1,0.3-0.2,0.4-0.2v-0.1h-0.1C83.8,268.8,83.7,268.8,83.5,268.8z M83.9,276.6c0,0.1,0.1,0.2,0.1,0.2
		l0.1-0.1h0.3v0.1c0,0.1-0.1,0.1-0.2,0.2h-0.1l-0.1-0.1c0,0,0,0.1-0.1,0.1l-0.1-0.2v-0.1C83.8,276.6,83.8,276.6,83.9,276.6z
		 M83.8,276.1L83.8,276.1l0.1,0.1h-0.1V276.1z M83.9,255.6L83.9,255.6l0.1,0.1v-0.1H83.9z M84.5,276.9L84.5,276.9
		c0.1,0.1,0.2,0.3,0.4,0.4v0.4c0,0.1,0,0.1-0.1,0.1h-0.1c-0.1,0-0.3-0.3-0.4-0.7L84.5,276.9z M84.3,268.9l0.3,0.3h0.1v-0.1
		c-0.1-0.2-0.1-0.3-0.1-0.4h-0.1C84.3,268.8,84.3,268.8,84.3,268.9z M84.3,274.2L84.3,274.2l0.2,0.1v-0.1H84.3z M84.6,274.3
		c0,0.1,0,0.1-0.1,0.1c0,0.1,0.1,0.2,0.1,0.2h0.1c0.1,0,0.1,0,0.1-0.1v-0.1C84.7,274.3,84.7,274.3,84.6,274.3z M85.5,273.2
		L85.5,273.2c0.3-0.1,0.4-0.2,0.4-0.3v-0.1h-0.1C85.7,272.8,85.6,273,85.5,273.2z M85.8,259.6c0,0,0,0.1-0.1,0.2l0.1,0.1l0.1-0.1
		C85.9,259.6,85.9,259.6,85.8,259.6z M85.8,255.5v0.1h0.1C85.9,255.5,85.9,255.5,85.8,255.5z M85.8,273.5L85.8,273.5l0.1,0.2
		c0.2-0.1,0.3-0.1,0.3-0.2H85.8z M86.3,260.8v0.1c0.1,0.1,0.1,0.3,0.1,0.6c0.2,0,0.3-0.1,0.3-0.1l-0.1-0.4c0,0,0.1,0,0.1-0.1
		C86.6,260.8,86.5,260.8,86.3,260.8z M87.1,258.6h0.3v0.1c0,0.1,0,0.1-0.1,0.1h-0.1V258.6z M87.3,261.5L87.3,261.5
		c0.1,0.3,0.2,0.4,0.2,0.6h0.2c0-0.2,0-0.4,0.1-0.4c0,0.1,0.1,0.1,0.1,0.1h0.1l-0.3-0.4l-0.1,0.1L87.3,261.5z M87.8,265.5
		c0,0.1,0,0.2-0.1,0.3l0.1,0.4h0.1c0-0.2,0.1-0.4,0.2-0.6L87.8,265.5L87.8,265.5z M89.6,265.2c-0.6,0.5-0.9,0.7-1,0.7v0.4h0.1
		c0.1,0,0.2-0.1,0.2-0.1c0,0.1,0.1,0.1,0.1,0.1c0-0.2,0-0.3,0.1-0.3h0.1l0.4,0.1c0-0.1,0.1-0.1,0.1-0.1c0-0.1-0.1-0.2-0.1-0.2
		l0.1-0.1c0-0.1-0.1-0.2-0.1-0.3c0,0,0.1,0,0.1-0.1C89.8,265.3,89.7,265.3,89.6,265.2z M89.4,263.1l0.2,0.3c-0.1,0-0.1,0.1-0.1,0.1
		h0.1c0.1,0,0.3-0.1,0.7-0.2c0,0.1,0.1,0.1,0.2,0.2h0.1c0.1-0.1,0.2-0.1,0.4-0.1v-0.2c-0.1,0-0.2,0-0.4-0.1h-0.1l-0.2,0.1h-0.4
		c-0.1,0-0.1,0-0.1-0.1C89.6,263,89.5,263.1,89.4,263.1z M90.4,261.5c0,0.1,0.1,0.2,0.1,0.2c0.2,0,0.4-0.1,0.4-0.2h0.2l0.5,0.4h0.1
		v-0.1c-0.2,0-0.4,0-0.4-0.1c0-0.1,0.1-0.2,0.1-0.3c-0.1,0-0.2-0.1-0.2-0.1c-0.1,0-0.2,0.1-0.2,0.1l-0.3-0.1
		C90.6,261.1,90.5,261.3,90.4,261.5z M90.5,264.6L90.5,264.6c0,0.2,0.1,0.2,0.1,0.2l-0.2,0.4c0.1,0.2,0.1,0.4,0.2,0.4h0.1
		c0-0.1,0-0.3,0.1-0.5l-0.1-0.1c0-0.2,0.2-0.4,0.7-0.7c0-0.1-0.1-0.2-0.3-0.3h-0.2c-0.2,0.3-0.3,0.5-0.4,0.5L90.5,264.6z
		 M90.5,265.7v0.2h0.3C90.8,265.9,90.8,265.8,90.5,265.7L90.5,265.7z M91.8,266.1c-0.2,0.3-0.3,0.5-0.5,0.5v0.1
		c0,0.1,0.1,0.2,0.4,0.3c0.2-0.1,0.3-0.2,0.4-0.4C92,266.2,91.9,266.1,91.8,266.1z M93.1,266.8h0.1v0.2c0,0.1-0.1,0.2-0.3,0.3
		c-0.1,0-0.1-0.1-0.2-0.2C92.7,267,92.8,266.9,93.1,266.8z M92.8,265.4v0.1c0.1,0,0.2,0,0.4,0.1h0.1c0.1,0,0.2-0.1,0.3-0.3l-0.2-0.1
		C93,265.4,92.8,265.4,92.8,265.4z M93.4,262.4c0,0,0.1,0,0.2,0.1c0.2-0.1,0.5-0.2,1-0.2v-0.1c-0.2,0-0.3,0-0.3-0.1l-0.1,0.1L94,262
		C93.8,262,93.6,262.2,93.4,262.4z M93.4,266.4L93.4,266.4l0.1,0.1h-0.1V266.4z M93.6,263.7v0.3h0.1c0,0,0-0.1,0.1-0.2L93.6,263.7z
		 M94.6,266.5v0.1h0.1L94.6,266.5L94.6,266.5z M94.8,272.1H95v0.1L94.8,272.1L94.8,272.1z M95,260.6v0.1c0.1,0,0.1,0,0.1-0.1H95z
		 M96.5,260.3h0.2v0.1c0,0.1-0.2,0.2-0.6,0.3h-0.1c-0.1,0-0.1,0-0.1-0.1c0-0.1,0.1-0.1,0.1-0.1c0.1,0,0.2,0.1,0.2,0.1
		C96.3,260.5,96.4,260.4,96.5,260.3z M96.4,266.7c0,0.1,0.1,0.3,0.1,0.7c-0.1,0.2-0.1,0.3-0.2,0.3l-0.3-0.4v-0.4
		C96,266.8,96.1,266.7,96.4,266.7z M96.8,264.9c0.2,0,0.5-0.1,0.7-0.3h0.3c0.1,0,0.1,0.1,0.1,0.1l-0.1,0.2v0.1
		c0.3,0,0.5,0.1,0.5,0.2l-0.1,0.1l0.2,0.1l-0.1,0.1v0.1c0.2,0,0.3,0,0.4,0.1l0.1-0.1l-0.2-0.3c0,0,0-0.1,0.1-0.1
		c-0.1-0.2-0.1-0.4-0.1-0.6v-0.1c-0.3,0-0.5-0.1-0.6-0.4h-0.1C97.3,264.4,96.9,264.6,96.8,264.9z M97,260.2h0.1v0.1L97,260.2
		L97,260.2z M97.1,261v0.2h0.1c0.1,0,0.1-0.1,0.2-0.2l-0.1-0.1C97.2,261,97.2,261,97.1,261z M97.6,261.9v0.4c0,0.1,0.1,0.1,0.1,0.1
		c0.1-0.2,0.2-0.3,0.4-0.3V262C98,262,97.8,261.9,97.6,261.9z M98.8,261.4l-0.3,0.5h0.1l0.3-0.1c0.1,0.2,0.1,0.3,0.2,0.3
		c0.2-0.1,0.3-0.2,0.4-0.2v-0.1c0,0-0.1,0-0.2-0.1c-0.1,0-0.2,0.1-0.2,0.1C99.1,261.6,99,261.5,98.8,261.4z M100.6,260.4l-0.1,0.1
		l0.1,0.4c-0.1,0-0.2,0.1-0.2,0.1l-0.1-0.1c-0.1,0-0.2,0.1-0.3,0.1l-0.4-0.5v-0.1h0.1l0.2,0.1C100.1,260.5,100.4,260.4,100.6,260.4z
		 M99.6,264.9v0.1c0.1,0,0.1-0.1,0.2-0.2v-0.1h-0.1C99.7,264.8,99.6,264.8,99.6,264.9z M100.9,262.3L100.9,262.3
		c0.2,0,0.2,0.1,0.2,0.1v0.1c0,0,0,0.1-0.1,0.1l0.1,0.1c0,0.1-0.1,0.2-0.1,0.2c0.1,0,0.1,0.1,0.1,0.1v0.2c0,0.1,0,0.1-0.1,0.1h-0.2
		l-0.3-0.4v0.1c0,0.3,0.1,0.5,0.1,0.6l-0.3,0.2h-0.1l-0.1-0.1l0.1-0.1v-0.1c0,0-0.1,0-0.2-0.1c0-0.3,0.1-0.4,0.1-0.4
		c-0.1-0.2-0.1-0.3-0.1-0.4l0.1-0.1c0.1,0.1,0.2,0.1,0.4,0.1C100.7,262.5,100.8,262.3,100.9,262.3z M100.6,260.5h0.1v0.1
		L100.6,260.5L100.6,260.5z"/>
	<path class="st17" d="M114.3,249.7c0.4,0.4,0.7,0.8,1,1.3c0,0.4-0.1,0.6-0.2,0.7l0.1,0.1c-0.1,0.2-0.1,0.3-0.1,0.4
		c0,0,0.1,0,0.1,0.1l-0.5,0.3c-0.1,0-0.2-0.1-0.2-0.1l-0.7,0.4l0.3,0.3l0.4-0.1h0.4c0.1,0,0.1,0.1,0.1,0.1c0,0-0.1,0-0.1,0.1
		c0,0,0.1,0,0.2,0.1l0.4-0.1c0.1,0,0.1,0.1,0.1,0.1v0.1c0,0.1,0,0.1-0.1,0.1l-0.4-0.1l0.1,0.1v0.1c-0.2,0-0.4,0.1-0.6,0.4
		c0,0.2,0.2,0.3,0.4,0.4h0.1l0.1-0.1l0.1,0.1c0,0-0.1,0-0.1,0.1c0.1,0,0.1,0.1,0.1,0.1v0.1c-0.2,0.3-0.6,0.5-1.3,0.5v0.1
		c0.3,0,0.6,0.2,0.9,0.5l0.4-0.1l0.1,0.3c0,0.2-0.1,0.4-0.3,0.4v0.1c0,0.3,0.1,0.5,0.2,0.5c-0.1,0.2-0.2,0.3-0.3,0.4l-0.1-0.1
		c-0.1,0-0.2,0.1-0.2,0.1c0,0,0-0.1-0.1-0.1c0,0.1-0.2,0.2-0.6,0.4c0.7,0.5,1,0.7,1.1,0.7v0.1c-0.4,0-0.6,0.2-0.6,0.7
		c0,0,0.1,0,0.1,0.1l-0.2,0.1c0,0.2,0.2,0.4,0.4,0.6v0.2l-0.1,0.1l0.5-0.1h0.1v0.1c0,0.1-0.1,0.2-0.1,0.2h0.1
		c0.2-0.3,0.4-0.5,0.7-0.5c0.3,0.4,0.5,0.6,0.5,0.7c0.1,0,0.3-0.1,0.7-0.4h0.4v-0.1c0.3,0.1,0.5,0.1,0.7,0.1l0.5-0.4h0.3l0.3,0.4
		c0.1,0,0.2-0.2,0.5-0.5c0.2,0.1,0.4,0.3,0.4,0.5c0.2-0.1,0.4-0.3,0.7-0.4c0.1,0.2,0.2,0.3,0.2,0.4c-0.1,0-0.1,0.1-0.1,0.1
		c0,0.1,0.1,0.2,0.1,0.2h-0.1c0,0-0.1,0-0.1-0.1c-0.3,0.1-0.5,0.2-0.7,0.4l-0.2-0.1l-0.2,0.1h-0.4v0.1h0.1l0.4-0.1
		c0,0.1,0.1,0.2,0.3,0.3h0.1c0-0.2,0.3-0.3,0.9-0.5c0.1-0.2,0.1-0.3,0.2-0.3l0.1,0.1c0-0.1,0.1-0.1,0.2-0.2h0.1c0,0,0.1,0,0.1,0.1
		c0.1,0,0.2-0.1,0.2-0.1l-0.1-0.4v-0.1h0.1c0,0,0.1,0,0.1,0.1l0.7-0.1l0.4,0.2l-0.2,0.4c0,0.1,0.1,0.2,0.1,0.3l-0.1,0.2l0.1,0.1
		c0.1,0,0.1,0,0.1-0.1c0,0-0.1,0-0.1-0.1c0.3-0.2,0.7-0.3,1-0.4c0.2-0.1,0.4-0.3,0.6-0.6c0.4-0.1,0.6-0.1,0.7-0.1l0.1,0.1l-0.1,0.4
		c0.3-0.1,0.4-0.3,0.4-0.6c0-0.1,0.1-0.1,0.2-0.2c0.1,0,0.1,0.1,0.1,0.2c0.1,0,0.1,0,0.1-0.1c0,0-0.1,0-0.1-0.1
		c0.1,0,0.4-0.1,0.8-0.1c0.1,0,0.2,0.1,0.2,0.1v0.1c-0.1,0.4-0.2,0.6-0.3,0.6h-0.1l-0.4-0.1l0.1,0.1v0.1c-0.2,0.2-0.3,0.4-0.3,0.4
		l0.1,0.1h0.1c0-0.2,0-0.3,0.1-0.3c0.1,0,0.2,0.1,0.3,0.3v0.4h0.2l0.2-0.1l0.4,0.1c0,0,0-0.1,0.1-0.1c0.1,0.2,0.2,0.3,0.2,0.4
		l-0.1,0.1c0,0.1,0.1,0.2,0.1,0.3c0,0.1,0,0.1-0.1,0.1c-0.1,0-0.1-0.1-0.1-0.2l-0.3,0.2l-0.4-0.1c-0.2,0-0.3,0.2-0.4,0.6l0.2,0.3
		v0.2h0.3v0.4c0,0.1,0,0.1-0.1,0.1c0,0.2,0.1,0.4,0.1,0.4c0.4-0.1,0.6-0.2,0.6-0.2l0.4,0.5v0.1c-0.2,0.4-0.4,0.6-0.4,0.6h-0.1
		c-0.1-0.1-0.2-0.1-0.3-0.1c-0.1,0-0.3,0.3-0.5,0.9c-0.3,0.2-0.6,0.3-0.9,0.4c-0.1,0.3-0.2,0.4-0.3,0.4h-0.2l-0.2-0.1l-0.3,0.8h-0.2
		c-0.1,0-0.2-0.1-0.3-0.3c0.1-0.2,0.2-0.3,0.3-0.4l-0.1-0.5v-0.1c0.7-0.5,1-0.8,1-0.9c0-0.1-0.1-0.2-0.1-0.2h-0.1
		c0,0.2-0.3,0.5-0.8,0.7c0,0.1,0,0.1-0.1,0.1c0,0,0-0.1-0.1-0.1l0.1-0.1v-0.1l-0.3-0.4v-0.1l0.2-0.3c-0.1,0-0.2,0-0.3-0.1
		c0,0.3-0.1,0.5-0.3,0.6h-0.1l-0.4-0.1c0,0.2-0.2,0.4-0.7,0.4c0,0.5,0.2,0.8,0.7,0.8v0.1c0,0.1-0.1,0.2-0.4,0.3l-0.3-0.2l-0.3,0.2
		l-0.1-0.1l-0.1,0.1c0,0-0.1,0-0.2-0.1c-0.4,0.1-0.6,0.1-0.7,0.1c-0.1,0-0.2-0.1-0.3-0.1c0,0.1,0,0.2-0.1,0.2l-0.1-0.1V267
		c0.2-0.1,0.4-0.5,0.6-1v-0.1h-0.2c-0.2,0.2-0.5,0.4-1,0.7c0,0.1,0,0.2-0.1,0.3c0,0.1,0.1,0.2,0.1,0.2l-0.1,0.1
		c-0.1,0-0.2-0.1-0.3-0.1l-0.1,0.3c0.1,0,0.1,0.1,0.2,0.2v0.1l-0.6-0.3h-0.1c-0.1,0-0.2,0-0.3,0.1c-0.3-0.2-0.5-0.3-0.7-0.3l0.1,0.1
		c-0.1,0.2-0.2,0.4-0.4,0.4l-0.1-0.1c-0.1,0-0.2,0.1-0.2,0.1c0-0.1-0.1-0.1-0.2-0.2h-0.1c0,0.1-0.1,0.3-0.3,0.4l-0.1-0.2
		c0-0.4,0.3-0.6,1-0.7c0-0.1,0.1-0.1,0.1-0.1l0.1,0.1l-0.1,0.1v0.1h0.4c0-0.2,0-0.4,0.1-0.6c-0.2-0.1-0.3-0.1-0.3-0.2l0.1-0.1h-0.1
		l-0.3,0.4h-0.1l-0.2-0.1h-0.3c-0.3,0.4-0.8,0.7-1.3,1c-0.1,0-0.2-0.1-0.3-0.3V267c0-0.1,0.1-0.1,0.1-0.1c-0.2-0.4-0.3-0.6-0.3-0.7
		c-0.1,0.1-0.2,0.5-0.5,1.3h-0.1l-0.1-0.1c0,0.1,0,0.2-0.1,0.3c0,0.1,0.1,0.2,0.1,0.2c-0.1,0-0.2,0.1-0.5,0.3c0-0.1,0-0.1-0.1-0.1
		c-0.1,0-0.2,0.1-0.4,0.4l0.1,0.1c0.1,0,0.3-0.1,0.5-0.2l0.7,0.7v0.2h-0.2v0.1l0.1,0.2v0.1c0,0-0.1,0-0.1-0.1
		c-0.3,0-0.5,0.2-0.7,0.7c0.4,0.1,0.6,0.3,0.7,0.4c0,0.1,0,0.1-0.1,0.1l0.1,0.1v0.1c0,0.1,0,0.1-0.1,0.1c-0.1-0.2-0.3-0.4-0.5-0.4
		h-0.1l0.1,0.2l-0.1,0.4c0,0.1,0.2,0.3,0.4,0.4c0-0.1,0.1-0.1,0.2-0.2c0.1,0,0.2,0.2,0.2,0.4c-0.2,0.2-0.4,0.4-0.5,0.4
		c0-0.1,0-0.1-0.1-0.1c0,0.3,0,0.5-0.1,0.6l0.2,0.3v0.2c-0.1,0.2-0.2,0.4-0.3,0.4l-0.5-0.1v0.1l0.2,0.4c-0.1,0-0.1,0.1-0.2,0.2
		c0.1,0,0.2,0.1,0.4,0.1c0-0.1,0.1-0.1,0.1-0.1h0.1c0.1,0,0.1,0.1,0.1,0.1c0,0.1-0.2,0.2-0.4,0.2c0,0.1,0.1,0.1,0.4,0.1v0.2
		c0,0.1,0,0.1-0.1,0.1c-0.1-0.2-0.2-0.3-0.2-0.4H114c0,0.2-0.3,0.4-0.7,0.4v0.1c0,0.1,0.1,0.1,0.1,0.1c0.1,0,0.2-0.1,0.3-0.1
		c0,0.1,0.1,0.2,0.3,0.2v0.1c0,0.1-0.1,0.2-0.3,0.3l-0.2-0.1h-0.1l0.1,0.1c-0.3,0.3-0.7,0.5-1,0.5l-0.1-0.1v-0.1
		c0-0.1,0.1-0.1,0.2-0.2h0.4c0-0.1,0-0.2,0.1-0.3c-0.1,0-0.1-0.2-0.1-0.5c-0.1,0-0.1,0.1-0.1,0.1l-0.7-0.1l-0.1,0.2
		c0.1,0,0.1,0.1,0.1,0.1l-0.1,0.1c0-0.1-0.2-0.3-0.6-0.4l-0.1,0.1h-0.1c-0.1,0-0.1,0-0.1-0.1c0,0,0.2-0.2,0.5-0.5c0,0,0,0.1,0.1,0.1
		l0.4-0.4v-0.2c-0.2,0-0.4,0-0.4-0.1l-0.1,0.1l-0.1-0.1l-0.4,0.1c-0.1-0.3-0.2-0.7-0.3-1.3v-0.2c-0.1,0-0.2,0-0.2-0.1v-0.2
		c0,0,0.1-0.2,0.4-0.4l-0.3-0.6v-0.1c0.3-0.3,0.6-0.5,0.7-0.5v-0.2c-0.3,0-0.4,0-0.4-0.1v-0.1c0,0,0-0.1,0.1-0.1
		c-0.1-0.2-0.1-0.3-0.1-0.4l0.2-0.1l-0.1-0.1v-0.1h0.4l-0.3-0.4v-0.1l0.3-0.5l-0.1-0.1l-0.2,0.1l0.1,0.1v0.1h-0.2
		c-0.1,0-0.2-0.3-0.2-0.8c0,0-0.1,0-0.1-0.1c0,0,0.1,0,0.1-0.1h-0.1l-0.4,0.3c-0.1-0.1-0.3-0.1-0.5-0.1v0.1h-0.1l-0.1-0.1l0.1-0.1
		v-0.1h-0.1c-0.2,0.1-0.4,0.3-0.4,0.4h-0.1c0-0.4,0.3-0.7,1-1l0.2,0.1c0.1,0,0.2-0.2,0.3-0.5c0,0-0.1,0-0.1-0.1l-0.1,0.1
		c-0.2-0.1-0.4-0.3-0.4-0.4h-0.1c-0.1,0-0.2,0.2-0.4,0.7c-0.2,0.2-0.4,0.3-0.6,0.3l0.1,0.1c-0.1,0.2-0.2,0.3-0.4,0.4h-0.2l-0.4-0.1
		c0,0.1,0,0.1-0.1,0.1l-0.1-0.2c0-0.1,0.1-0.1,0.4-0.2c0-0.1-0.1-0.3-0.2-0.5c0-0.1,0.1-0.2,0.1-0.2l-0.1-0.1h-0.1
		c0,0.5-0.1,0.7-0.2,0.7c0,0,0,0.1,0.1,0.1l-0.1,0.4c0,0.1,0.1,0.2,0.4,0.2v0.2c-0.1,0-0.2,0-0.3,0.1c-0.5-0.2-0.7-0.6-0.7-1
		c-0.1,0-0.2,0.1-0.2,0.1l0.1,0.1v0.2l-0.1,0.2v0.1c0.1,0,0.2,0,0.2,0.1v0.1h-0.2V268h-0.1c0,0,0,0.1-0.1,0.2c0,0.1,0.1,0.2,0.1,0.2
		l-0.1,0.1c-0.4,0-0.7-0.1-0.9-0.2c0.1-0.3,0.1-0.5,0.2-0.5h0.1l0.4,0.1c0-0.1,0.1-0.3,0.3-0.5c-0.1-0.3-0.3-0.5-0.5-0.7
		c0,0.2-0.2,0.4-0.7,0.6c-0.3,0-0.4-0.1-0.5-0.3v-0.1c0,0,0-0.2,0.1-0.6v-0.2c-0.5,0-0.7-0.3-0.8-1c-0.2-0.8-0.4-1.2-0.4-1.2
		c0.3-0.4,0.6-0.7,0.9-1c0-0.2,0.4-0.5,1.2-0.9h0.1v0.4c0.1,0,0.3,0,0.8-0.1l0.2,0.1h0.1c0-0.2,0.1-0.4,0.2-0.4h0.2
		c0-0.1,0.1-0.1,0.1-0.1l0.2,0.1h0.1c0-0.3,0.4-0.5,1.1-0.7v0.1h-0.1v0.1c0.3,0,0.6-0.1,0.8-0.4l0.1,0.2l-0.2,0.3
		c0.1,0,0.3,0.1,0.7,0.4l0.1-0.1c-0.2,0-0.3-0.1-0.3-0.2v-0.1l0.7-0.7c0.1,0,0.2,0.1,0.4,0.4h0.1l-0.1-0.4c0-0.1,0.1-0.1,0.1-0.1
		h0.1c0.2,0.1,0.4,0.3,0.4,0.4h0.1c0.1,0,0.1,0,0.1-0.1l-0.1-0.4h-0.1v0.1h-0.1V261c0-0.2,0.2-0.4,0.7-0.6v-0.2
		c0-0.1-0.1-0.2-0.3-0.3l-0.3,0.1l-0.2-0.4v-0.1l0.4-0.7l-0.1-0.5v-0.1c0-0.1,0.2-0.2,0.5-0.4c0-0.1,0.1-0.1,0.2-0.1v-0.1l-0.4,0.1
		h-0.2c-0.1,0-0.1,0-0.1-0.1v-0.5l0.4-0.7c-0.1-0.2-0.1-0.3-0.1-0.4l0.1-0.1c-0.1-0.2-0.1-0.3-0.1-0.4l0.4-0.2l-0.1-0.1
		c0-0.1,0.1-0.1,0.3-0.1l-0.7-0.4c0-0.5,0.1-0.7,0.1-0.7l-0.1-0.1v-0.3c0-0.1,0.1-0.4,0.3-0.9c-0.1,0-0.1,0-0.1-0.1v-0.1
		c0.3-0.6,0.8-1,1.3-1l-0.1-0.4C113.6,250,114.1,249.7,114.3,249.7z M105.3,266.5c0,0.1,0.1,0.1,0.1,0.1h0.1l0.1-0.4h-0.1
		C105.5,266.2,105.4,266.3,105.3,266.5z M106.1,267v0.1h0.1L106.1,267L106.1,267z M106.4,266.2h0.1V266
		C106.4,266,106.4,266.1,106.4,266.2z M106.6,274.4L106.6,274.4l0.1,0.1h-0.2C106.4,274.5,106.5,274.4,106.6,274.4z M108,265
		l0.2,0.4c-0.2,0.1-0.3,0.1-0.3,0.2c0,0.1,0.1,0.2,0.1,0.3c-0.1,0-0.1,0.1-0.1,0.1l-0.1-0.1h-0.2l0.1,0.4h0.2c0-0.1,0.2-0.2,0.6-0.3
		c0.1-0.2,0.1-0.3,0.1-0.4c-0.1,0-0.1,0-0.1-0.1l0.1-0.3l-0.1-0.4C108.1,264.9,108,264.9,108,265z M109.4,264.3h0.1v-0.1
		C109.4,264.2,109.4,264.2,109.4,264.3z M110.2,266.8L110.2,266.8l0.1,0.2c0,0.1-0.1,0.2-0.1,0.2h0.3v-0.1l-0.1-0.4H110.2z
		 M111.1,267.9c0,0.1,0.1,0.1,0.1,0.1c0,0,0-0.1,0.1-0.1c0,0.1,0.1,0.1,0.1,0.1h0.1l0.4-0.4c0.1,0,0.2,0.1,0.3,0.1l0.1-0.2v-0.2
		h-0.1C111.8,267.4,111.4,267.6,111.1,267.9z M111.2,274.5h0.1v0.1L111.2,274.5L111.2,274.5z M111.3,272.9v0.2
		c0.2,0,0.4,0.1,0.5,0.2h0.1c0-0.1,0-0.1,0.1-0.1c0-0.1-0.1-0.2-0.4-0.4v-0.1h-0.1C111.4,272.7,111.3,272.8,111.3,272.9z
		 M111.4,268.8v0.2c0.2-0.1,0.3-0.2,0.4-0.2v-0.1h-0.1C111.7,268.8,111.6,268.8,111.4,268.8z M111.8,276.6c0,0.1,0.1,0.2,0.1,0.2
		l0.1-0.1h0.3v0.1c0,0.1-0.1,0.1-0.2,0.2H112l-0.1-0.1c0,0,0,0.1-0.1,0.1l-0.1-0.2v-0.1C111.7,276.6,111.7,276.6,111.8,276.6z
		 M111.7,276.1L111.7,276.1l0.1,0.1h-0.1V276.1z M111.8,255.6L111.8,255.6l0.1,0.1v-0.1H111.8z M112.4,276.9L112.4,276.9
		c0.1,0.1,0.2,0.3,0.4,0.4v0.4c0,0.1,0,0.1-0.1,0.1h-0.1c-0.1,0-0.3-0.3-0.4-0.7L112.4,276.9z M112.2,268.9l0.3,0.3h0.1v-0.1
		c-0.1-0.2-0.1-0.3-0.1-0.4h-0.1C112.2,268.8,112.2,268.8,112.2,268.9z M112.2,274.2L112.2,274.2l0.2,0.1v-0.1H112.2z M112.5,274.3
		c0,0.1,0,0.1-0.1,0.1c0,0.1,0.1,0.2,0.1,0.2h0.1c0.1,0,0.1,0,0.1-0.1v-0.1C112.6,274.3,112.6,274.3,112.5,274.3z M113.4,273.2
		L113.4,273.2c0.3-0.1,0.4-0.2,0.4-0.3v-0.1h-0.1C113.6,272.8,113.5,273,113.4,273.2z M113.7,259.6c0,0,0,0.1-0.1,0.2l0.1,0.1
		l0.1-0.1C113.8,259.6,113.8,259.6,113.7,259.6z M113.7,255.5v0.1h0.1C113.8,255.5,113.8,255.5,113.7,255.5z M113.7,273.5
		L113.7,273.5l0.1,0.2c0.2-0.1,0.3-0.1,0.3-0.2H113.7z M114.3,260.8v0.1c0.1,0.1,0.1,0.3,0.1,0.6c0.2,0,0.3-0.1,0.3-0.1l-0.1-0.4
		c0,0,0.1,0,0.1-0.1C114.5,260.8,114.4,260.8,114.3,260.8z M115,258.6h0.3v0.1c0,0.1,0,0.1-0.1,0.1H115V258.6z M115.2,261.5
		L115.2,261.5c0.1,0.3,0.2,0.4,0.2,0.6h0.2c0-0.2,0-0.4,0.1-0.4c0,0.1,0.1,0.1,0.1,0.1h0.1l-0.3-0.4l-0.1,0.1L115.2,261.5z
		 M115.7,265.5c0,0.1,0,0.2-0.1,0.3l0.1,0.4h0.1c0-0.2,0.1-0.4,0.2-0.6L115.7,265.5L115.7,265.5z M117.5,265.2
		c-0.6,0.5-0.9,0.7-1,0.7v0.4h0.1c0.1,0,0.2-0.1,0.2-0.1c0,0.1,0.1,0.1,0.1,0.1c0-0.2,0-0.3,0.1-0.3h0.1l0.4,0.1
		c0-0.1,0.1-0.1,0.1-0.1c0-0.1-0.1-0.2-0.1-0.2l0.1-0.1c0-0.1-0.1-0.2-0.1-0.3c0,0,0.1,0,0.1-0.1
		C117.7,265.3,117.6,265.3,117.5,265.2z M117.3,263.1l0.2,0.3c-0.1,0-0.1,0.1-0.1,0.1h0.1c0.1,0,0.3-0.1,0.7-0.2
		c0,0.1,0.1,0.1,0.2,0.2h0.1c0.1-0.1,0.2-0.1,0.4-0.1v-0.2c-0.1,0-0.2,0-0.4-0.1h-0.1l-0.2,0.1h-0.4c-0.1,0-0.1,0-0.1-0.1
		C117.5,263,117.4,263.1,117.3,263.1z M118.3,261.5c0,0.1,0.1,0.2,0.1,0.2c0.2,0,0.4-0.1,0.4-0.2h0.2l0.5,0.4h0.1v-0.1
		c-0.2,0-0.4,0-0.4-0.1c0-0.1,0.1-0.2,0.1-0.3c-0.1,0-0.2-0.1-0.2-0.1c-0.1,0-0.2,0.1-0.2,0.1l-0.3-0.1
		C118.5,261.1,118.4,261.3,118.3,261.5z M118.5,264.6L118.5,264.6c0,0.2,0.1,0.2,0.1,0.2l-0.2,0.4c0.1,0.2,0.1,0.4,0.2,0.4h0.1
		c0-0.1,0-0.3,0.1-0.5l-0.1-0.1c0-0.2,0.2-0.4,0.7-0.7c0-0.1-0.1-0.2-0.3-0.3H119c-0.2,0.3-0.3,0.5-0.4,0.5L118.5,264.6z
		 M118.5,265.7v0.2h0.3C118.7,265.9,118.7,265.8,118.5,265.7L118.5,265.7z M119.7,266.1c-0.2,0.3-0.3,0.5-0.5,0.5v0.1
		c0,0.1,0.1,0.2,0.4,0.3c0.2-0.1,0.3-0.2,0.4-0.4C119.9,266.2,119.8,266.1,119.7,266.1z M121,266.8h0.1v0.2c0,0.1-0.1,0.2-0.3,0.3
		c-0.1,0-0.1-0.1-0.2-0.2C120.6,267,120.7,266.9,121,266.8z M120.7,265.4v0.1c0.1,0,0.2,0,0.4,0.1h0.1c0.1,0,0.2-0.1,0.3-0.3
		l-0.2-0.1C120.9,265.4,120.7,265.4,120.7,265.4z M121.3,262.4c0,0,0.1,0,0.2,0.1c0.2-0.1,0.5-0.2,1-0.2v-0.1c-0.2,0-0.3,0-0.3-0.1
		l-0.1,0.1l-0.1-0.1C121.7,262,121.5,262.2,121.3,262.4z M121.3,266.4L121.3,266.4l0.1,0.1h-0.1V266.4z M121.5,263.7v0.3h0.1
		c0,0,0-0.1,0.1-0.2L121.5,263.7z M122.5,266.5v0.1h0.1L122.5,266.5L122.5,266.5z M122.7,272.1h0.1v0.1L122.7,272.1L122.7,272.1z
		 M122.9,260.6v0.1c0.1,0,0.1,0,0.1-0.1H122.9z M124.4,260.3h0.2v0.1c0,0.1-0.2,0.2-0.6,0.3H124c-0.1,0-0.1,0-0.1-0.1
		c0-0.1,0.1-0.1,0.1-0.1c0.1,0,0.2,0.1,0.2,0.1C124.2,260.5,124.3,260.4,124.4,260.3z M124.3,266.7c0,0.1,0.1,0.3,0.1,0.7
		c-0.1,0.2-0.1,0.3-0.2,0.3l-0.3-0.4v-0.4C123.9,266.8,124,266.7,124.3,266.7z M124.7,264.9c0.2,0,0.5-0.1,0.7-0.3h0.3
		c0.1,0,0.1,0.1,0.1,0.1l-0.1,0.2v0.1c0.3,0,0.5,0.1,0.5,0.2l-0.1,0.1l0.2,0.1l-0.1,0.1v0.1c0.2,0,0.3,0,0.4,0.1l0.1-0.1l-0.2-0.3
		c0,0,0-0.1,0.1-0.1c-0.1-0.2-0.1-0.4-0.1-0.6v-0.1c-0.3,0-0.5-0.1-0.6-0.4h-0.1C125.2,264.4,124.8,264.6,124.7,264.9z M124.9,260.2
		h0.1v0.1L124.9,260.2L124.9,260.2z M125,261v0.2h0.1c0.1,0,0.1-0.1,0.2-0.2l-0.1-0.1C125.1,261,125.1,261,125,261z M125.5,261.9
		v0.4c0,0.1,0.1,0.1,0.1,0.1c0.1-0.2,0.2-0.3,0.4-0.3V262C125.9,262,125.7,261.9,125.5,261.9z M126.7,261.4l-0.3,0.5h0.1l0.3-0.1
		c0.1,0.2,0.1,0.3,0.2,0.3c0.2-0.1,0.3-0.2,0.4-0.2v-0.1c0,0-0.1,0-0.2-0.1c-0.1,0-0.2,0.1-0.2,0.1
		C127,261.6,126.9,261.5,126.7,261.4z M128.6,260.4l-0.1,0.1l0.1,0.4c-0.1,0-0.2,0.1-0.2,0.1l-0.1-0.1c-0.1,0-0.2,0.1-0.3,0.1
		l-0.4-0.5v-0.1h0.1l0.2,0.1C128,260.5,128.3,260.4,128.6,260.4z M127.5,264.9v0.1c0.1,0,0.1-0.1,0.2-0.2v-0.1h-0.1
		C127.6,264.8,127.5,264.8,127.5,264.9z M128.8,262.3L128.8,262.3c0.2,0,0.2,0.1,0.2,0.1v0.1c0,0,0,0.1-0.1,0.1l0.1,0.1
		c0,0.1-0.1,0.2-0.1,0.2c0.1,0,0.1,0.1,0.1,0.1v0.2c0,0.1,0,0.1-0.1,0.1h-0.2l-0.3-0.4v0.1c0,0.3,0.1,0.5,0.1,0.6l-0.3,0.2h-0.1
		l-0.1-0.1l0.1-0.1v-0.1c0,0-0.1,0-0.2-0.1c0-0.3,0.1-0.4,0.1-0.4c-0.1-0.2-0.1-0.3-0.1-0.4l0.1-0.1c0.1,0.1,0.2,0.1,0.4,0.1
		C128.6,262.5,128.7,262.3,128.8,262.3z M128.6,260.5h0.1v0.1L128.6,260.5L128.6,260.5z"/>
</g>
</svg>
