<?xml version="1.0" encoding="utf-8"?>
<!-- Generator: Adobe Illustrator 22.1.0, SVG Export Plug-In . SVG Version: 6.00 Build 0)  -->
<svg version="1.1" id="Layer_1" xmlns="http://www.w3.org/2000/svg" xmlns:xlink="http://www.w3.org/1999/xlink" x="0px" y="0px"
	 viewBox="0 0 160 600" style="enable-background:new 0 0 160 600;" xml:space="preserve">
<style type="text/css">
	.st0{fill:#004B86;}
	.st1{clip-path:url(#SVGID_2_);fill:#FFFFFF;}
	.st2{clip-path:url(#SVGID_4_);fill:url(#SVGID_5_);}
	.st3{clip-path:url(#SVGID_7_);fill:url(#SVGID_8_);}
	.st4{clip-path:url(#SVGID_10_);fill:url(#SVGID_11_);}
</style>
<path class="st0" d="M80.6,527.4v3.9h-6.9v18.7h-4.4v-18.7h-6.9v-3.9H80.6z M82.5,549.9h4.4v-11.3v-11.3h-4.4v11.3V549.9z
	 M109.4,549.9h-4.5l-2.3-5.5h-7.6l-2.3,5.5h-4.4l9.6-22.8h1.9L109.4,549.9z M130.5,549.9H126l-2.3-5.5H116l-2.3,5.5h-4.4l9.6-22.8
	h1.9L130.5,549.9z M101.1,540.7l-2.3-5.6l-2.3,5.6H101.1z M122.2,540.7l-2.3-5.6l-2.3,5.6H122.2z"/>
<g>
	<defs>
		<rect id="SVGID_1_" x="27" y="522" width="105.9" height="35.6"/>
	</defs>
	<clipPath id="SVGID_2_">
		<use xlink:href="#SVGID_1_"  style="overflow:visible;"/>
	</clipPath>
	<path class="st1" d="M46.7,551.4c1.9,0,3.7-0.8,4.9-2.1L57,544c1.2-1.2,2-3,2-4.8v-16.6H42.4c-1.9,0-3.7,0.8-4.9,2.1l-5.3,5.3
		c-1.2,1.2-2,3-2,4.8v16.6H46.7z"/>
</g>
<g>
	<defs>
		<path id="SVGID_3_" d="M44.3,524c-3,0-5.5,2.4-5.5,5.4v1.9h11.4v11.4h1.8c3,0,5.5-2.4,5.5-5.5V524H44.3z"/>
	</defs>
	<clipPath id="SVGID_4_">
		<use xlink:href="#SVGID_3_"  style="overflow:visible;"/>
	</clipPath>
	
		<linearGradient id="SVGID_5_" gradientUnits="userSpaceOnUse" x1="1" y1="601.0771" x2="2" y2="601.0771" gradientTransform="matrix(12.981 -12.981 -12.981 -12.981 7834.1724 8352.5615)">
		<stop  offset="0" style="stop-color:#9BDBF7"/>
		<stop  offset="0.1" style="stop-color:#9BDBF7"/>
		<stop  offset="0.9" style="stop-color:#009DDA"/>
		<stop  offset="1" style="stop-color:#009DDA"/>
	</linearGradient>
	<polygon class="st2" points="29.5,533.3 48.2,514.7 66.9,533.3 48.2,552 	"/>
</g>
<g>
	<defs>
		<path id="SVGID_6_" d="M52.1,544.1H37.4l-5.8,5.8h15.1c1.5,0,2.9-0.6,3.9-1.6l4.9-4.9l-0.1-0.1C54.4,543.8,53.3,544.1,52.1,544.1"
			/>
	</defs>
	<clipPath id="SVGID_7_">
		<use xlink:href="#SVGID_6_"  style="overflow:visible;"/>
	</clipPath>
	
		<linearGradient id="SVGID_8_" gradientUnits="userSpaceOnUse" x1="0.9582" y1="601.0417" x2="1.9582" y2="601.0417" gradientTransform="matrix(23.9328 0 0 -23.9328 8.6422 14931.2188)">
		<stop  offset="0" style="stop-color:#14B0E6"/>
		<stop  offset="0.1611" style="stop-color:#13AAE1"/>
		<stop  offset="0.3718" style="stop-color:#0F9AD2"/>
		<stop  offset="0.6101" style="stop-color:#097FBA"/>
		<stop  offset="0.8669" style="stop-color:#015999"/>
		<stop  offset="0.9" style="stop-color:#005494"/>
		<stop  offset="1" style="stop-color:#005494"/>
	</linearGradient>
	<rect x="31.6" y="543.3" class="st3" width="23.9" height="6.7"/>
</g>
<g>
	<defs>
		<path id="SVGID_9_" d="M33.2,530.9c-1.1,1-1.6,2.4-1.6,3.9v15.1l5.8-5.8v-14.7c0-1.2,0.3-2.3,0.8-3.3l-0.1-0.1L33.2,530.9z"/>
	</defs>
	<clipPath id="SVGID_10_">
		<use xlink:href="#SVGID_9_"  style="overflow:visible;"/>
	</clipPath>
	
		<linearGradient id="SVGID_11_" gradientUnits="userSpaceOnUse" x1="1.0418" y1="601.0418" x2="2.0418" y2="601.0418" gradientTransform="matrix(0 -23.9332 -23.9332 0 14419.7363 574.8798)">
		<stop  offset="0" style="stop-color:#0081BD"/>
		<stop  offset="0.3773" style="stop-color:#0070AD"/>
		<stop  offset="0.85" style="stop-color:#005494"/>
		<stop  offset="1" style="stop-color:#005494"/>
	</linearGradient>
	<rect x="31.6" y="526" class="st4" width="6.7" height="23.9"/>
</g>
</svg>
