<?xml version="1.0" encoding="utf-8"?>
<!-- Generator: Adobe Illustrator 24.0.0, SVG Export Plug-In . SVG Version: 6.00 Build 0)  -->
<svg version="1.1" id="Layer_1" xmlns="http://www.w3.org/2000/svg" xmlns:xlink="http://www.w3.org/1999/xlink" x="0px" y="0px"
	 viewBox="0 0 970 250" style="enable-background:new 0 0 970 250;" xml:space="preserve">
<style type="text/css">
	.st0{fill:none;stroke:#FFFFFF;stroke-width:4.319;}
	.st1{clip-path:url(#SVGID_2_);fill:#FFFFFF;}
</style>
<path class="st0" d="M606.5,184.3c20.5,0,37-16.6,37-37c0-20.5-16.6-37-37-37c-20.5,0-37,16.6-37,37
	C569.5,167.7,586,184.3,606.5,184.3z"/>
<g>
	<defs>
		<rect id="SVGID_1_" x="586.3" y="128.1" width="40.4" height="40.4"/>
	</defs>
	<clipPath id="SVGID_2_">
		<use xlink:href="#SVGID_1_"  style="overflow:visible;"/>
	</clipPath>
	<path class="st1" d="M623.3,144.9h-13.4v-13.4c0-1.9-1.5-3.4-3.4-3.4c-1.9,0-3.4,1.5-3.4,3.4v13.4h-13.4c-1.9,0-3.4,1.5-3.4,3.4
		c0,1.9,1.5,3.4,3.4,3.4h13.4v13.4c0,1.9,1.5,3.4,3.4,3.4c1.9,0,3.4-1.5,3.4-3.4v-13.4h13.4c1.9,0,3.4-1.5,3.4-3.4
		C626.7,146.4,625.2,144.9,623.3,144.9"/>
</g>
</svg>
