<?xml version="1.0" encoding="utf-8"?>
<!-- Generator: Adobe Illustrator 24.0.0, SVG Export Plug-In . SVG Version: 6.00 Build 0)  -->
<svg version="1.1" id="Layer_1" xmlns="http://www.w3.org/2000/svg" xmlns:xlink="http://www.w3.org/1999/xlink" x="0px" y="0px"
	 viewBox="0 0 970 250" style="enable-background:new 0 0 970 250;" xml:space="preserve">
<style type="text/css">
	.st0{fill:#FFFFFF;}
</style>
<g>
	<path class="st0" d="M10.6,229.3v-7.9l-1.5,0.2l0.2-1.1l2.6-0.2v9.1H10.6z"/>
	<path class="st0" d="M16.4,229.5c-1.6,0-3.1-1.5-3.1-4.7c0-3.1,1.4-4.6,3.1-4.6c1.6,0,3.1,1.5,3.1,4.6
		C19.5,228,18,229.5,16.4,229.5z M16.4,221.3c-0.9,0-1.8,1-1.8,3.5c0,2.5,0.9,3.5,1.8,3.5c0.9,0,1.8-1,1.8-3.5
		C18.2,222.3,17.3,221.3,16.4,221.3z"/>
	<path class="st0" d="M23.6,229.5c-1.6,0-3.1-1.5-3.1-4.7c0-3.1,1.4-4.6,3.1-4.6c1.6,0,3.1,1.5,3.1,4.6
		C26.7,228,25.2,229.5,23.6,229.5z M23.6,221.3c-0.9,0-1.8,1-1.8,3.5c0,2.5,0.9,3.5,1.8,3.5c0.9,0,1.8-1,1.8-3.5
		C25.4,222.3,24.5,221.3,23.6,221.3z"/>
	<path class="st0" d="M28.9,229.3v-7.9l-1.5,0.2l0.2-1.1l2.6-0.2v9.1H28.9z"/>
	<path class="st0" d="M34.6,229.5c-1.6,0-3-1-3-2.6c0-1.3,1.1-2.2,1.8-2.4c-0.7-0.3-1.4-0.9-1.4-2c0-1.3,1.1-2.3,2.6-2.3
		s2.6,0.9,2.6,2.3c0,1-0.7,1.7-1.4,1.9c0.7,0.2,1.8,1.1,1.8,2.4C37.6,228.5,36.2,229.5,34.6,229.5z M34.5,225
		c-0.8,0.2-1.7,0.8-1.7,1.8c0,0.9,0.8,1.6,1.7,1.6c1,0,1.8-0.7,1.8-1.6C36.3,225.9,35.3,225.2,34.5,225z M34.6,221.3
		c-0.7,0-1.4,0.5-1.4,1.2c0,0.6,0.6,1.2,1.4,1.4c0.8-0.2,1.3-0.8,1.3-1.4C36,221.8,35.4,221.3,34.6,221.3z"/>
	<path class="st0" d="M39.7,229.3v-7.9l-1.5,0.2l0.2-1.1l2.6-0.2v9.1H39.7z"/>
	<path class="st0" d="M44.1,229.3h-1.4l3.4-7.8H42v-1.1h5.9L44.1,229.3z"/>
</g>
</svg>
