<?xml version="1.0" encoding="utf-8"?>
<!-- Generator: Adobe Illustrator 24.0.0, SVG Export Plug-In . SVG Version: 6.00 Build 0)  -->
<svg version="1.1" id="Layer_1" xmlns="http://www.w3.org/2000/svg" xmlns:xlink="http://www.w3.org/1999/xlink" x="0px" y="0px"
	 viewBox="0 0 970 250" style="enable-background:new 0 0 970 250;" xml:space="preserve">
<style type="text/css">
	.st0{fill:#F9E039;}
</style>
<g>
	<path class="st0" d="M148.1,81.6h-4.3l-4-12.1c-0.6-1.8-1.2-3.7-1.8-6.1H138c-0.6,2.4-1.2,4.3-1.8,6.1l-4,12.1H128L118.8,54h6.5
		l3.6,11.1c0.5,1.7,1.1,3.4,1.5,5.5h0.1c0.4-2.1,0.9-3.8,1.5-5.5l3.6-11.1h5.7l3.6,11.1c0.5,1.5,1,3.5,1.5,5.5h0.1
		c0.3-2,0.9-4,1.5-5.5l3.7-11.1h5.8L148.1,81.6z"/>
	<path class="st0" d="M162.7,59.3c-1.1,0-3.4-2.3-3.4-3.4c0-1.1,2.3-3.4,3.4-3.4c1.1,0,3.4,2.2,3.4,3.4
		C166.1,57,163.8,59.3,162.7,59.3z M159.5,81.4V61.9h6.4v19.5H159.5z"/>
	<path class="st0" d="M176.5,82.2c-4-0.2-6.7-2.2-6.7-6.9V50.8h6.2v23.7c0,1.6,0.9,2.5,2.6,2.6L176.5,82.2z"/>
	<path class="st0" d="M187.7,82.2c-4-0.2-6.7-2.2-6.7-6.9V50.8h6.2v23.7c0,1.6,0.9,2.5,2.6,2.6L187.7,82.2z"/>
	<path class="st0" d="M214.1,79.5c-3,7.8-6.1,10.7-9.7,12.1l-3.9-3.9c3.1-1.2,5.5-3.5,7.1-7.6l-7-18.1h6.1l2.8,7.6
		c0.4,1.1,0.9,2.5,1.2,3.8h0.1c0.4-1.3,0.8-2.7,1.2-3.8l2.8-7.6h5.8L214.1,79.5z"/>
	<path class="st0" d="M231.7,82c-5.9,0-10.6-4.2-10.6-10.4s4.7-10.4,10.6-10.4c5.8,0,10.6,4.2,10.6,10.4S237.5,82,231.7,82z
		 M231.7,66.8c-2.4,0-4.4,2.1-4.4,4.9s2,4.9,4.4,4.9c2.3,0,4.4-2.1,4.4-4.9S234,66.8,231.7,66.8z"/>
	<path class="st0" d="M258.1,81.4v-2.7h0c-0.8,2.1-2.8,3.2-6,3.2c-4.3,0-6.8-2.4-6.8-6.5V61.9h6.3v12c0,1.4,1,2.7,2.9,2.7
		c1.9,0,3.1-1.2,3.1-2.8V61.9h6.3v19.5H258.1z"/>
	<path class="st0" d="M279.8,68.6c-0.4-0.2-1.2-0.5-1.9-0.5c-2,0-3.9,1.1-3.9,4.2v9.1h-6.3V61.9h6.2v4.3h0c0.6-3.1,2.9-4.7,5.5-4.7
		c0.6,0,1.3,0.1,1.8,0.3L279.8,68.6z"/>
	<path class="st0" d="M305.2,68.6c-0.4-0.2-1.2-0.5-1.9-0.5c-2,0-3.9,1.1-3.9,4.2v9.1h-6.3V61.9h6.2v4.3h0c0.6-3.1,2.9-4.7,5.5-4.7
		c0.6,0,1.3,0.1,1.8,0.3L305.2,68.6z"/>
	<path class="st0" d="M326.1,70.6l-2.8,2.8h-9.5c0.3,1.6,2.5,3.4,5.8,3.4c2,0,4.1-0.6,5.4-1.5l-0.6,5.4c-1.5,0.8-3.7,1.3-6.2,1.3
		c-5.9,0-10.7-4.1-10.7-10.5c0-6.3,4.6-10.3,10.1-10.3c5.4,0,8.7,3.7,8.7,7.8C326.3,69.5,326.2,70.2,326.1,70.6z M317.6,66
		c-1.8,0-3.4,1.4-3.8,3.2h6.6c0-0.1,0-0.3,0-0.4C320.4,67.4,319.2,66,317.6,66z"/>
	<path class="st0" d="M342.4,67.1h-5.1v7.2c0,1.7,0.9,2.4,2.6,2.4c0.7,0,1.2,0,1.6-0.3l-0.6,4.8c-0.6,0.3-1.7,0.5-2.9,0.5
		c-4.4,0-7-2.3-7-6.2v-8.4h-3.3v-5.2h3.3v-4.2l6.3-2.3v6.5h6.3L342.4,67.1z"/>
	<path class="st0" d="M348.9,59.3c-1.1,0-3.4-2.3-3.4-3.4c0-1.1,2.3-3.4,3.4-3.4c1.1,0,3.4,2.2,3.4,3.4
		C352.3,57,350,59.3,348.9,59.3z M345.7,81.4V61.9h6.4v19.5H345.7z"/>
	<path class="st0" d="M368.1,68.6c-0.4-0.2-1.2-0.5-1.9-0.5c-2,0-3.9,1.1-3.9,4.2v9.1H356V61.9h6.2v4.3h0c0.6-3.1,2.9-4.7,5.5-4.7
		c0.6,0,1.3,0.1,1.8,0.3L368.1,68.6z"/>
	<path class="st0" d="M389,70.6l-2.8,2.8h-9.5c0.3,1.6,2.5,3.4,5.8,3.4c2,0,4.1-0.6,5.4-1.5l-0.6,5.4c-1.5,0.8-3.7,1.3-6.2,1.3
		c-5.9,0-10.7-4.1-10.7-10.5c0-6.3,4.6-10.3,10.1-10.3c5.4,0,8.7,3.7,8.7,7.8C389.2,69.5,389.1,70.2,389,70.6z M380.4,66
		c-1.8,0-3.4,1.4-3.8,3.2h6.6c0-0.1,0-0.3,0-0.4C383.3,67.4,382.1,66,380.4,66z"/>
	<path class="st0" d="M416.1,81.4v-12c0-1.4-0.7-2.7-2.8-2.7c-2,0-2.9,1.2-2.9,2.8v11.9h-6.3v-12c0-1.4-0.7-2.7-2.8-2.7
		c-2,0-2.9,1.2-2.9,2.8v11.9h-6.3V61.9h5.8v2.6h0c0.8-2.1,2.7-3.2,5.8-3.2c2.8,0,4.9,1.1,5.8,3.2c0.8-1.9,3.1-3.2,6-3.2
		c4.4,0,6.9,2.4,6.9,6.5v13.5H416.1z"/>
	<path class="st0" d="M444.2,70.6l-2.8,2.8h-9.5c0.3,1.6,2.5,3.4,5.8,3.4c2,0,4.1-0.6,5.4-1.5l-0.6,5.4c-1.5,0.8-3.7,1.3-6.2,1.3
		c-5.9,0-10.7-4.1-10.7-10.5c0-6.3,4.6-10.3,10.1-10.3c5.4,0,8.7,3.7,8.7,7.8C444.3,69.5,444.2,70.2,444.2,70.6z M435.6,66
		c-1.8,0-3.4,1.4-3.8,3.2h6.6c0-0.1,0-0.3,0-0.4C438.4,67.4,437.3,66,435.6,66z"/>
	<path class="st0" d="M459.6,81.4v-12c0-1.4-0.9-2.7-2.9-2.7c-1.9,0-3.1,1.2-3.1,2.8v11.9h-6.3V61.9h5.8v2.6h0
		c0.8-2.1,2.8-3.2,5.9-3.2c4.3,0,6.8,2.4,6.8,6.5v13.5H459.6z"/>
	<path class="st0" d="M482.5,67.1h-5.1v7.2c0,1.7,0.9,2.4,2.6,2.4c0.7,0,1.2,0,1.6-0.3l-0.6,4.8c-0.6,0.3-1.7,0.5-2.9,0.5
		c-4.4,0-7-2.3-7-6.2v-8.4h-3.3v-5.2h3.3v-4.2l6.3-2.3v6.5h6.3L482.5,67.1z"/>
	<path class="st0" d="M501.9,81.8c-2.7,0-4.6-0.6-6.2-1.4l-0.6-5.6c1.7,1.2,4,2.1,6.1,2.1c1.2,0,1.9-0.6,1.9-1.3
		c0-0.8-0.6-1.2-1.8-1.5c-3.7-1.1-6-3-6-6.4c0-3.8,3.1-6.3,7.3-6.3c2.4,0,4.8,0.6,5.8,1.2l-1.1,4.6c-0.9-0.5-2.5-1.1-4-1.1
		c-1,0-1.7,0.5-1.7,1.2c0,0.7,0.5,1.1,1.7,1.4c4.4,1.2,6.2,3.4,6.2,6.6C509.6,78.8,507.2,81.8,501.9,81.8z"/>
	<path class="st0" d="M526.2,82.3c-1.2-0.3-2.5-1.2-3-2.6c-0.9,1.6-2.7,2.4-5.1,2.4c-3.4,0-6.5-2.4-6.5-6.4c0-3.6,2.8-6,6.7-6.4
		l3.9-0.4v-0.6c0-1.2-0.9-1.9-3.1-1.9c-1.9,0-4,0.6-5.4,1.5l-1.1-4.8c1.6-1,4.3-1.7,6.8-1.7c5.2,0,8.8,2.4,8.8,7.1v6.4
		c0,2.3,0.9,3.5,2.4,4L526.2,82.3z M522.2,72.9l-2.4,0.2c-1.6,0.1-2.4,1.3-2.4,2.5c0,1,0.8,1.9,2,1.9c1.5,0,2.8-1.2,2.8-2.8V72.9z"
		/>
	<path class="st0" d="M542.1,81.6h-4.7l-7.5-19.7h6.1l2.8,7.4c0.4,1,0.8,2.5,1.1,3.8h0.1c0.3-1.2,0.7-2.8,1.1-3.8l2.8-7.4h5.8
		L542.1,81.6z"/>
	<path class="st0" d="M554.9,59.3c-1.1,0-3.4-2.3-3.4-3.4c0-1.1,2.3-3.4,3.4-3.4s3.4,2.2,3.4,3.4C558.3,57,556,59.3,554.9,59.3z
		 M551.7,81.4V61.9h6.4v19.5H551.7z"/>
	<path class="st0" d="M574.4,81.4v-12c0-1.4-0.9-2.7-2.9-2.7c-1.9,0-3.1,1.2-3.1,2.8v11.9h-6.3V61.9h5.8v2.6h0
		c0.8-2.1,2.8-3.2,5.9-3.2c4.3,0,6.8,2.4,6.8,6.5v13.5H574.4z"/>
	<path class="st0" d="M592.7,91.3c-5.7,0-9.5-3.2-9.5-7.3c0-3,2-4.7,4-5.2l-2.5-2.5c0.2-1.2,1.2-2.3,2.4-2.8
		c-1.5-0.9-2.8-2.8-2.8-5.2c0-4.1,3-7,8-7c1.2,0,2.1,0.2,2.9,0.4C596,61.9,597,62,598,62c1.1,0,2.2-0.3,3.1-0.6l1.2,4.8
		c-0.6,0.3-1.5,0.6-2.4,0.6c0.2,0.4,0.5,1.3,0.5,2c0,3.3-2.6,6-6.4,6.3c-0.8,0-1.3,0.2-1.3,0.7c0,0.2,0.2,0.5,0.5,0.6l3,1.1
		c3.8,1.4,5.9,3.3,5.9,6.9C602,88.3,598.4,91.3,592.7,91.3z M594,82.2l-2.3-0.6c-1.5,0-2.6,1.1-2.6,2.5c0,1.3,1.2,2.5,3.4,2.5
		c2.2,0,3.4-1,3.4-2.1C596,83.5,595.3,82.5,594,82.2z M592.3,65.9c-1.4,0-2.5,1.1-2.5,2.3c0,1.3,1.1,2.3,2.5,2.3
		c1.4,0,2.5-1,2.5-2.3C594.8,67,593.8,65.9,592.3,65.9z"/>
	<path class="st0" d="M610.7,81.8c-2.7,0-4.6-0.6-6.2-1.4l-0.6-5.6c1.7,1.2,4,2.1,6.1,2.1c1.2,0,1.9-0.6,1.9-1.3
		c0-0.8-0.6-1.2-1.8-1.5c-3.7-1.1-6-3-6-6.4c0-3.8,3.1-6.3,7.3-6.3c2.4,0,4.8,0.6,5.8,1.2l-1.1,4.6c-0.9-0.5-2.5-1.1-4-1.1
		c-1,0-1.7,0.5-1.7,1.2c0,0.7,0.5,1.1,1.7,1.4c4.4,1.2,6.2,3.4,6.2,6.6C618.4,78.8,615.9,81.8,610.7,81.8z"/>
</g>
<g>
	<path class="st0" d="M255.4,127c-4.1,0-7.5-1.4-9.4-2.9V95.8h6.1v11.8c0.8-0.6,2.9-1.3,4.9-1.3c5.4,0,9.8,3.8,9.8,10
		C266.8,122.3,263,127,255.4,127z M255.9,111.9c-1.8,0-3.2,0.9-3.8,1.5v7.4c0.6,0.5,2,0.9,3.2,0.9c3.2,0,5.2-2.2,5.2-5
		C260.6,114,258.7,111.9,255.9,111.9z"/>
	<path class="st0" d="M287.6,115.6l-2.8,2.8h-9.5c0.3,1.6,2.5,3.4,5.8,3.4c2,0,4.1-0.6,5.4-1.5l-0.6,5.4c-1.5,0.8-3.7,1.3-6.2,1.3
		c-5.9,0-10.7-4.1-10.7-10.5c0-6.3,4.6-10.3,10.1-10.3c5.4,0,8.7,3.7,8.7,7.8C287.8,114.6,287.7,115.2,287.6,115.6z M279.1,111
		c-1.8,0-3.4,1.4-3.8,3.2h6.6c0-0.1,0-0.3,0-0.4C281.9,112.4,280.8,111,279.1,111z"/>
	<path class="st0" d="M312.6,113.6c-0.4-0.2-1.2-0.5-1.9-0.5c-2,0-3.9,1.1-3.9,4.2v9.1h-6.3v-19.5h6.2v4.3h0
		c0.6-3.1,2.9-4.7,5.5-4.7c0.6,0,1.3,0.1,1.8,0.3L312.6,113.6z"/>
	<path class="st0" d="M333.5,115.6l-2.8,2.8h-9.5c0.3,1.6,2.5,3.4,5.8,3.4c2,0,4.1-0.6,5.4-1.5l-0.6,5.4c-1.5,0.8-3.7,1.3-6.2,1.3
		c-5.9,0-10.7-4.1-10.7-10.5c0-6.3,4.6-10.3,10.1-10.3c5.4,0,8.7,3.7,8.7,7.8C333.7,114.6,333.6,115.2,333.5,115.6z M324.9,111
		c-1.8,0-3.4,1.4-3.8,3.2h6.6c0-0.1,0-0.3,0-0.4C327.8,112.4,326.6,111,324.9,111z"/>
	<path class="st0" d="M350.1,127.3c-1.2-0.3-2.5-1.2-3-2.6c-0.9,1.6-2.7,2.4-5.1,2.4c-3.4,0-6.5-2.4-6.5-6.4c0-3.6,2.8-6,6.7-6.4
		l3.9-0.4v-0.6c0-1.2-0.9-1.9-3.1-1.9c-1.9,0-4,0.6-5.4,1.5l-1.1-4.8c1.6-1,4.3-1.7,6.8-1.7c5.2,0,8.8,2.4,8.8,7.1v6.4
		c0,2.3,0.9,3.5,2.4,4L350.1,127.3z M346,117.9l-2.4,0.2c-1.6,0.1-2.4,1.3-2.4,2.5c0,1,0.8,1.9,2,1.9c1.5,0,2.8-1.2,2.8-2.8V117.9z"
		/>
	<path class="st0" d="M370.8,126.4V124h0c-1.1,2-3.3,3-6,3c-4.8,0-9.4-3.6-9.4-10.3c0-6.3,4.5-10.4,9.9-10.4c2.1,0,4.2,0.7,4.9,1.3
		V95.8h6.1v30.6H370.8z M370.2,113.6c-0.6-0.8-1.9-1.8-3.8-1.8c-2.8,0-4.7,2.1-4.7,4.9s1.9,4.9,4.7,4.9c1.8,0,3.1-1,3.8-2V113.6z"/>
	<path class="st0" d="M391.8,124.5c-3,7.8-6.1,10.7-9.7,12.1l-3.9-3.9c3.1-1.2,5.5-3.5,7.1-7.6l-7-18.1h6.1l2.8,7.6
		c0.4,1.1,0.9,2.5,1.2,3.8h0.1c0.4-1.3,0.8-2.7,1.2-3.8l2.8-7.6h5.8L391.8,124.5z"/>
	<path class="st0" d="M399.8,132.9l-2-0.3c1.5-1.7,2.6-4.1,2.8-6.1c-1.1-0.2-2.8-2.1-2.8-3c0-1.2,2.5-3.5,3.6-3.5
		c1,0,3.6,2.2,3.6,3.5C404.9,126.2,402.3,130.5,399.8,132.9z"/>
	<path class="st0" d="M430.8,112.1h-5.1v7.2c0,1.7,0.9,2.4,2.6,2.4c0.7,0,1.2,0,1.6-0.3l-0.6,4.8c-0.6,0.3-1.7,0.5-2.9,0.5
		c-4.4,0-7-2.3-7-6.2v-8.4h-3.3v-5.2h3.3v-4.2l6.3-2.3v6.5h6.3L430.8,112.1z"/>
	<path class="st0" d="M443.3,127c-5.9,0-10.6-4.2-10.6-10.4s4.7-10.4,10.6-10.4c5.8,0,10.6,4.2,10.6,10.4S449.2,127,443.3,127z
		 M443.3,111.8c-2.4,0-4.4,2.1-4.4,4.9s2,4.9,4.4,4.9c2.3,0,4.4-2.1,4.4-4.9S445.7,111.8,443.3,111.8z"/>
	<path class="st0" d="M466.6,127c-5.9,0-10.6-4.2-10.6-10.4s4.7-10.4,10.6-10.4c5.8,0,10.6,4.2,10.6,10.4S472.5,127,466.6,127z
		 M466.6,111.8c-2.4,0-4.4,2.1-4.4,4.9s2,4.9,4.4,4.9c2.3,0,4.4-2.1,4.4-4.9S468.9,111.8,466.6,111.8z"/>
	<path class="st0" d="M488.8,112.9c-1.1,1.2-1.5,2.2-1.5,3.4c0,0.6,0,1.3,0.2,1.9l-5.4-1.1c-0.2-0.9-0.3-1.5-0.3-2.2
		c0-2.3,0.9-4.3,2.5-5.9c1.1-1.2,1.7-2,1.7-3.2c0-0.9-0.9-1.9-2.4-1.9c-1.5,0-2.9,0.6-4.4,1.4l-1.3-5.3c1.6-1,3.7-1.6,6.1-1.6
		c5.1,0,8.4,2.9,8.4,7.3C492.4,108.1,491.3,110.2,488.8,112.9z M484.8,127c-1.2,0-3.6-2.4-3.6-3.6c0-1.1,2.4-3.5,3.6-3.5
		c1.2,0,3.6,2.4,3.6,3.5C488.4,124.6,486,127,484.8,127z"/>
</g>
</svg>
