<?xml version="1.0" encoding="utf-8"?>
<!-- Generator: Adobe Illustrator 24.0.0, SVG Export Plug-In . SVG Version: 6.00 Build 0)  -->
<svg version="1.1" id="Layer_1" xmlns="http://www.w3.org/2000/svg" xmlns:xlink="http://www.w3.org/1999/xlink" x="0px" y="0px"
	 viewBox="0 0 970 250" style="enable-background:new 0 0 970 250;" xml:space="preserve">
<style type="text/css">
	.st0{fill:#F9E039;}
</style>
<g>
	<path class="st0" d="M222.2,173.5v5.4h7.8v5.6h-7.8v11h-6.5V168h16v5.5H222.2z"/>
	<path class="st0" d="M237.1,173.3c-1.1,0-3.4-2.3-3.4-3.4c0-1.1,2.3-3.4,3.4-3.4c1.1,0,3.4,2.2,3.4,3.4
		C240.5,171,238.2,173.3,237.1,173.3z M233.9,195.4V176h6.4v19.5H233.9z"/>
	<path class="st0" d="M256.5,195.4v-12c0-1.4-0.9-2.7-2.9-2.7c-1.9,0-3.1,1.2-3.1,2.8v11.9h-6.3V176h5.8v2.6h0
		c0.8-2.1,2.8-3.2,5.9-3.2c4.3,0,6.8,2.4,6.8,6.5v13.5H256.5z"/>
	<path class="st0" d="M270,173.3c-1.1,0-3.4-2.3-3.4-3.4c0-1.1,2.3-3.4,3.4-3.4c1.1,0,3.4,2.2,3.4,3.4
		C273.4,171,271.1,173.3,270,173.3z M266.8,195.4V176h6.4v19.5H266.8z"/>
	<path class="st0" d="M283.3,195.9c-2.7,0-4.6-0.6-6.2-1.4l-0.6-5.6c1.7,1.2,4,2.1,6.1,2.1c1.2,0,1.9-0.6,1.9-1.3
		c0-0.8-0.6-1.2-1.8-1.5c-3.7-1.1-6-3-6-6.4c0-3.8,3.1-6.3,7.3-6.3c2.4,0,4.8,0.6,5.8,1.2l-1.1,4.6c-0.9-0.5-2.5-1.1-4-1.1
		c-1,0-1.7,0.5-1.7,1.2c0,0.7,0.5,1.1,1.7,1.4c4.4,1.2,6.2,3.4,6.2,6.6C291,192.9,288.6,195.9,283.3,195.9z"/>
	<path class="st0" d="M306.4,195.4v-12c0-1.4-1-2.7-2.9-2.7c-1.9,0-3.1,1.2-3.1,2.8v11.9h-6.3v-30.6h6.2v12.9h0
		c1-1.5,2.8-2.4,5.5-2.4c4.3,0,6.8,2.4,6.8,6.5v13.5H306.4z"/>
	<path class="st0" d="M341.1,182.2c-1.3-0.8-2.6-1.2-4.2-1.2c-2.8,0-4.9,2-4.9,4.8c0,2.8,2.2,4.8,5.1,4.8c1.6,0,2.9-0.3,4.3-1.1
		l-0.6,5.4c-1.3,0.6-3,0.9-4.8,0.9c-5.5,0-10.5-3.9-10.5-10.1c0-6.4,5.1-10.2,10.4-10.2c2.6,0,4.7,0.5,6.4,1.5L341.1,182.2z"/>
	<path class="st0" d="M358.8,196.3c-1.2-0.3-2.5-1.2-3-2.6c-0.9,1.6-2.7,2.4-5.1,2.4c-3.4,0-6.5-2.4-6.5-6.4c0-3.6,2.8-6,6.7-6.4
		l3.9-0.4v-0.6c0-1.2-0.9-1.9-3.1-1.9c-1.9,0-4,0.6-5.4,1.5l-1.1-4.8c1.6-1,4.3-1.7,6.8-1.7c5.2,0,8.8,2.4,8.8,7.1v6.4
		c0,2.3,0.9,3.5,2.4,4L358.8,196.3z M354.7,186.9l-2.4,0.2c-1.6,0.1-2.4,1.3-2.4,2.5c0,1,0.8,1.9,2,1.9c1.5,0,2.8-1.2,2.8-2.8V186.9
		z"/>
	<path class="st0" d="M371.7,196.2c-4-0.2-6.7-2.2-6.7-6.9v-24.5h6.2v23.7c0,1.6,0.9,2.5,2.6,2.6L371.7,196.2z"/>
	<path class="st0" d="M390.7,182.2c-1.3-0.8-2.6-1.2-4.2-1.2c-2.8,0-4.9,2-4.9,4.8c0,2.8,2.2,4.8,5.1,4.8c1.6,0,2.9-0.3,4.3-1.1
		l-0.6,5.4c-1.3,0.6-3,0.9-4.8,0.9c-5.5,0-10.5-3.9-10.5-10.1c0-6.4,5.1-10.2,10.4-10.2c2.6,0,4.7,0.5,6.4,1.5L390.7,182.2z"/>
	<path class="st0" d="M407.5,195.4v-2.7h0c-0.8,2.1-2.8,3.2-6,3.2c-4.3,0-6.8-2.4-6.8-6.5V176h6.3v12c0,1.4,1,2.7,2.9,2.7
		c1.9,0,3.1-1.2,3.1-2.8V176h6.3v19.5H407.5z"/>
	<path class="st0" d="M423.9,196.2c-4-0.2-6.7-2.2-6.7-6.9v-24.5h6.2v23.7c0,1.6,0.9,2.5,2.6,2.6L423.9,196.2z"/>
	<path class="st0" d="M442.4,196.3c-1.2-0.3-2.5-1.2-3-2.6c-0.9,1.6-2.7,2.4-5.1,2.4c-3.4,0-6.5-2.4-6.5-6.4c0-3.6,2.8-6,6.7-6.4
		l3.9-0.4v-0.6c0-1.2-0.9-1.9-3.1-1.9c-1.9,0-4,0.6-5.4,1.5l-1.1-4.8c1.6-1,4.3-1.7,6.8-1.7c5.2,0,8.8,2.4,8.8,7.1v6.4
		c0,2.3,0.9,3.5,2.4,4L442.4,196.3z M438.4,186.9l-2.4,0.2c-1.6,0.1-2.4,1.3-2.4,2.5c0,1,0.8,1.9,2,1.9c1.5,0,2.8-1.2,2.8-2.8V186.9
		z"/>
	<path class="st0" d="M461.4,181.1h-5.1v7.2c0,1.7,0.9,2.4,2.6,2.4c0.7,0,1.2,0,1.6-0.3l-0.6,4.8c-0.6,0.3-1.7,0.5-2.9,0.5
		c-4.4,0-7-2.3-7-6.2v-8.4h-3.3V176h3.3v-4.2l6.3-2.3v6.5h6.3L461.4,181.1z"/>
	<path class="st0" d="M467.9,173.3c-1.1,0-3.4-2.3-3.4-3.4c0-1.1,2.3-3.4,3.4-3.4c1.1,0,3.4,2.2,3.4,3.4
		C471.3,171,469,173.3,467.9,173.3z M464.7,195.4V176h6.4v19.5H464.7z"/>
	<path class="st0" d="M487.3,195.4v-12c0-1.4-0.9-2.7-2.9-2.7c-1.9,0-3.1,1.2-3.1,2.8v11.9H475V176h5.8v2.6h0
		c0.8-2.1,2.8-3.2,5.9-3.2c4.3,0,6.8,2.4,6.8,6.5v13.5H487.3z"/>
	<path class="st0" d="M505.6,205.4c-5.7,0-9.5-3.2-9.5-7.3c0-3,2-4.7,4-5.2l-2.5-2.5c0.2-1.2,1.2-2.3,2.4-2.8
		c-1.5-0.9-2.8-2.8-2.8-5.2c0-4.1,3-7,8-7c1.2,0,2.1,0.2,2.9,0.4c0.9,0.2,1.8,0.3,2.8,0.3c1.1,0,2.2-0.3,3.1-0.6l1.2,4.8
		c-0.6,0.3-1.5,0.6-2.4,0.6c0.2,0.4,0.5,1.3,0.5,2c0,3.3-2.6,6-6.4,6.3c-0.8,0-1.3,0.2-1.3,0.7c0,0.2,0.2,0.5,0.5,0.6l3,1.1
		c3.8,1.4,5.9,3.3,5.9,6.9C514.9,202.4,511.3,205.4,505.6,205.4z M506.9,196.2l-2.3-0.6c-1.5,0-2.6,1.1-2.6,2.5
		c0,1.3,1.2,2.5,3.4,2.5c2.2,0,3.4-1,3.4-2.2C508.9,197.5,508.2,196.6,506.9,196.2z M505.2,179.9c-1.4,0-2.5,1.1-2.5,2.3
		c0,1.3,1.1,2.3,2.5,2.3c1.4,0,2.5-1,2.5-2.3C507.7,181,506.7,179.9,505.2,179.9z"/>
	<path class="st0" d="M519.6,196c-1.2,0-3.6-2.4-3.6-3.6c0-1.1,2.4-3.5,3.6-3.5c1.2,0,3.6,2.4,3.6,3.5
		C523.2,193.6,520.7,196,519.6,196z"/>
</g>
</svg>
