<?xml version="1.0" encoding="utf-8"?>
<!-- Generator: Adobe Illustrator 24.0.0, SVG Export Plug-In . SVG Version: 6.00 Build 0)  -->
<svg version="1.1" id="Layer_1" xmlns="http://www.w3.org/2000/svg" xmlns:xlink="http://www.w3.org/1999/xlink" x="0px" y="0px"
	 viewBox="0 0 970 250" style="enable-background:new 0 0 970 250;" xml:space="preserve">
<style type="text/css">
	.st0{fill:#F9E039;}
</style>
<g>
	<path class="st0" d="M76.3,70.2h-4.3l-4-12.1c-0.6-1.8-1.2-3.7-1.8-6.1h-0.1c-0.6,2.4-1.2,4.3-1.8,6.1l-4,12.1h-4.2L47,42.6h6.5
		l3.6,11.1c0.5,1.7,1.1,3.4,1.5,5.5h0.1c0.4-2.1,0.9-3.8,1.5-5.5l3.6-11.1h5.7L73,53.6c0.5,1.5,1,3.5,1.5,5.5h0.1
		c0.3-2,0.9-4,1.5-5.5l3.7-11.1h5.8L76.3,70.2z"/>
	<path class="st0" d="M100,70v-12c0-1.4-1-2.7-2.9-2.7c-1.9,0-3.1,1.2-3.1,2.8V70h-6.3V39.4h6.2v12.9h0c1-1.5,2.8-2.4,5.5-2.4
		c4.3,0,6.8,2.4,6.8,6.5V70H100z"/>
	<path class="st0" d="M123.9,70.9c-1.2-0.3-2.5-1.2-3-2.6c-0.9,1.6-2.7,2.4-5.1,2.4c-3.4,0-6.5-2.4-6.5-6.4c0-3.6,2.8-6,6.7-6.4
		l3.9-0.4v-0.6c0-1.2-0.9-1.9-3.1-1.9c-1.9,0-4,0.6-5.4,1.5l-1.1-4.8c1.6-1,4.3-1.7,6.8-1.7c5.2,0,8.8,2.4,8.8,7.1v6.4
		c0,2.3,0.9,3.5,2.4,4L123.9,70.9z M119.8,61.5l-2.4,0.2c-1.6,0.1-2.4,1.3-2.4,2.5c0,1,0.8,1.9,2,1.9c1.5,0,2.8-1.2,2.8-2.8V61.5z"
		/>
	<path class="st0" d="M142.8,55.7h-5.1v7.2c0,1.7,0.9,2.4,2.6,2.4c0.7,0,1.2,0,1.6-0.3l-0.6,4.8c-0.6,0.3-1.7,0.5-2.9,0.5
		c-4.4,0-7-2.3-7-6.2v-8.4h-3.3v-5.2h3.3v-4.2l6.3-2.3v6.5h6.3L142.8,55.7z"/>
	<path class="st0" d="M169.6,70.9c-1.2-0.3-2.5-1.2-3-2.6c-0.9,1.6-2.7,2.4-5.1,2.4c-3.4,0-6.5-2.4-6.5-6.4c0-3.6,2.8-6,6.7-6.4
		l3.9-0.4v-0.6c0-1.2-0.9-1.9-3.1-1.9c-1.9,0-4,0.6-5.4,1.5l-1.1-4.8c1.6-1,4.3-1.7,6.8-1.7c5.2,0,8.8,2.4,8.8,7.1v6.4
		c0,2.3,0.9,3.5,2.4,4L169.6,70.9z M165.6,61.5l-2.4,0.2c-1.6,0.1-2.4,1.3-2.4,2.5c0,1,0.8,1.9,2,1.9c1.5,0,2.8-1.2,2.8-2.8V61.5z"
		/>
	<path class="st0" d="M184,80c-5.7,0-9.5-3.2-9.5-7.3c0-3,2-4.7,4-5.2l-2.5-2.5c0.2-1.2,1.2-2.3,2.4-2.8c-1.5-0.9-2.8-2.8-2.8-5.2
		c0-4.1,3-7,8-7c1.2,0,2.1,0.2,2.9,0.4c0.9,0.2,1.8,0.3,2.8,0.3c1.1,0,2.2-0.3,3.1-0.6l1.2,4.8c-0.6,0.3-1.5,0.6-2.4,0.6
		c0.2,0.4,0.5,1.3,0.5,2c0,3.3-2.6,6-6.4,6.3c-0.8,0-1.3,0.2-1.3,0.7c0,0.2,0.2,0.5,0.5,0.6l3,1.1c3.8,1.4,5.9,3.3,5.9,6.9
		C193.4,77,189.7,80,184,80z M185.4,70.8l-2.3-0.6c-1.5,0-2.6,1.1-2.6,2.5c0,1.3,1.2,2.5,3.4,2.5c2.2,0,3.4-1,3.4-2.1
		C187.3,72.1,186.6,71.1,185.4,70.8z M183.6,54.5c-1.4,0-2.5,1.1-2.5,2.3c0,1.3,1.1,2.3,2.5,2.3c1.4,0,2.5-1,2.5-2.3
		C186.1,55.6,185.1,54.5,183.6,54.5z"/>
	<path class="st0" d="M213.4,59.2l-2.8,2.8h-9.5c0.3,1.6,2.5,3.4,5.8,3.4c2,0,4.1-0.6,5.4-1.5l-0.6,5.4c-1.5,0.8-3.7,1.3-6.2,1.3
		c-5.9,0-10.7-4.1-10.7-10.5c0-6.3,4.6-10.3,10.1-10.3c5.4,0,8.7,3.7,8.7,7.8C213.6,58.2,213.5,58.8,213.4,59.2z M204.9,54.6
		c-1.8,0-3.4,1.4-3.8,3.2h6.6c0-0.1,0-0.3,0-0.4C207.7,56.1,206.6,54.6,204.9,54.6z"/>
	<path class="st0" d="M247.8,70.2h-4.3l-2.6-7.7c-0.4-1.2-0.8-2.6-1.2-4h-0.1c-0.3,1.5-0.7,2.9-1.1,4l-2.6,7.8h-4.1L225,50.5h5.8
		l2.4,7.4c0.3,1.1,0.7,2.5,0.9,3.7h0.1c0.2-1.2,0.6-2.6,0.9-3.7l2.5-7.4h4.8l2.5,7.4c0.4,1.2,0.6,2.5,0.9,3.8h0.1
		c0.3-1.2,0.6-2.6,1-3.8l2.5-7.4h5.4L247.8,70.2z"/>
	<path class="st0" d="M259.9,47.9c-1.1,0-3.4-2.3-3.4-3.4s2.3-3.4,3.4-3.4c1.1,0,3.4,2.2,3.4,3.4S261,47.9,259.9,47.9z M256.7,70
		V50.5h6.4V70H256.7z"/>
	<path class="st0" d="M273.8,70.8c-4-0.2-6.7-2.2-6.7-6.9V39.4h6.2v23.7c0,1.6,0.9,2.5,2.6,2.6L273.8,70.8z"/>
	<path class="st0" d="M284.9,70.8c-4-0.2-6.7-2.2-6.7-6.9V39.4h6.2v23.7c0,1.6,0.9,2.5,2.6,2.6L284.9,70.8z"/>
	<path class="st0" d="M311.3,68.1c-3,7.8-6.1,10.7-9.7,12.1l-3.9-3.9c3.1-1.2,5.5-3.5,7.1-7.6l-7-18.1h6.1l2.8,7.6
		c0.4,1.1,0.9,2.5,1.2,3.8h0.1c0.4-1.3,0.8-2.7,1.2-3.8l2.8-7.6h5.8L311.3,68.1z"/>
	<path class="st0" d="M328.9,70.6c-5.9,0-10.6-4.2-10.6-10.4s4.7-10.4,10.6-10.4c5.8,0,10.6,4.2,10.6,10.4S334.7,70.6,328.9,70.6z
		 M328.9,55.4c-2.4,0-4.4,2.1-4.4,4.9s2,4.9,4.4,4.9c2.3,0,4.4-2.1,4.4-4.9S331.2,55.4,328.9,55.4z"/>
	<path class="st0" d="M355.3,70v-2.7h0c-0.8,2.1-2.8,3.2-6,3.2c-4.3,0-6.8-2.4-6.8-6.5V50.5h6.3v12c0,1.4,1,2.7,2.9,2.7
		c1.9,0,3.1-1.2,3.1-2.8V50.5h6.3V70H355.3z"/>
	<path class="st0" d="M384.1,70.6c-4.1,0-7.5-1.4-9.4-2.9V39.4h6.1v11.8c0.8-0.6,2.9-1.3,4.9-1.3c5.4,0,9.8,3.8,9.8,10
		C395.5,65.9,391.7,70.6,384.1,70.6z M384.6,55.5c-1.8,0-3.2,0.9-3.8,1.5v7.4c0.6,0.5,2,0.9,3.2,0.9c3.2,0,5.2-2.2,5.2-5
		C389.3,57.6,387.4,55.5,384.6,55.5z"/>
	<path class="st0" d="M416.4,59.2l-2.8,2.8H404c0.3,1.6,2.5,3.4,5.8,3.4c2,0,4.1-0.6,5.4-1.5l-0.6,5.4c-1.5,0.8-3.7,1.3-6.2,1.3
		c-5.9,0-10.7-4.1-10.7-10.5c0-6.3,4.6-10.3,10.1-10.3c5.4,0,8.7,3.7,8.7,7.8C416.5,58.2,416.4,58.8,416.4,59.2z M407.8,54.6
		c-1.8,0-3.4,1.4-3.8,3.2h6.6c0-0.1,0-0.3,0-0.4C410.6,56.1,409.5,54.6,407.8,54.6z"/>
	<path class="st0" d="M441.3,57.3c-0.4-0.2-1.2-0.5-1.9-0.5c-2,0-3.9,1.1-3.9,4.2V70h-6.3V50.5h6.2v4.3h0c0.6-3.1,2.9-4.7,5.5-4.7
		c0.6,0,1.3,0.1,1.8,0.3L441.3,57.3z"/>
	<path class="st0" d="M462.2,59.2l-2.8,2.8h-9.5c0.3,1.6,2.5,3.4,5.8,3.4c2,0,4.1-0.6,5.4-1.5l-0.6,5.4c-1.5,0.8-3.7,1.3-6.2,1.3
		c-5.9,0-10.7-4.1-10.7-10.5c0-6.3,4.6-10.3,10.1-10.3c5.4,0,8.7,3.7,8.7,7.8C462.4,58.2,462.3,58.8,462.2,59.2z M453.6,54.6
		c-1.8,0-3.4,1.4-3.8,3.2h6.6c0-0.1,0-0.3,0-0.4C456.5,56.1,455.3,54.6,453.6,54.6z"/>
	<path class="st0" d="M478.8,70.9c-1.2-0.3-2.5-1.2-3-2.6c-0.9,1.6-2.7,2.4-5.1,2.4c-3.4,0-6.5-2.4-6.5-6.4c0-3.6,2.8-6,6.7-6.4
		l3.9-0.4v-0.6c0-1.2-0.9-1.9-3.1-1.9c-1.9,0-4,0.6-5.4,1.5l-1.1-4.8c1.6-1,4.3-1.7,6.8-1.7c5.2,0,8.8,2.4,8.8,7.1v6.4
		c0,2.3,0.9,3.5,2.4,4L478.8,70.9z M474.7,61.5l-2.4,0.2c-1.6,0.1-2.4,1.3-2.4,2.5c0,1,0.8,1.9,2,1.9c1.5,0,2.8-1.2,2.8-2.8V61.5z"
		/>
	<path class="st0" d="M499.5,70v-2.4h0c-1.1,2-3.3,3-6,3c-4.8,0-9.4-3.6-9.4-10.3c0-6.3,4.5-10.4,9.9-10.4c2.1,0,4.2,0.7,4.9,1.3
		V39.4h6.1V70H499.5z M498.9,57.3c-0.6-0.8-1.9-1.8-3.8-1.8c-2.8,0-4.7,2.1-4.7,4.9s1.9,4.9,4.7,4.9c1.8,0,3.1-1,3.8-2V57.3z"/>
	<path class="st0" d="M520.5,68.1c-3,7.8-6.1,10.7-9.7,12.1l-3.9-3.9c3.1-1.2,5.5-3.5,7.1-7.6l-7-18.1h6.1l2.8,7.6
		c0.4,1.1,0.9,2.5,1.2,3.8h0.1c0.4-1.3,0.8-2.7,1.2-3.8l2.8-7.6h5.8L520.5,68.1z"/>
	<path class="st0" d="M552.3,55.7h-5.1v7.2c0,1.7,0.9,2.4,2.6,2.4c0.7,0,1.2,0,1.6-0.3l-0.6,4.8c-0.6,0.3-1.7,0.5-2.9,0.5
		c-4.4,0-7-2.3-7-6.2v-8.4h-3.3v-5.2h3.3v-4.2l6.3-2.3v6.5h6.3L552.3,55.7z"/>
	<path class="st0" d="M564.8,70.6c-5.9,0-10.6-4.2-10.6-10.4s4.7-10.4,10.6-10.4c5.8,0,10.6,4.2,10.6,10.4S570.6,70.6,564.8,70.6z
		 M564.8,55.4c-2.4,0-4.4,2.1-4.4,4.9s2,4.9,4.4,4.9c2.3,0,4.4-2.1,4.4-4.9S567.1,55.4,564.8,55.4z"/>
	<path class="st0" d="M600.3,57.3c-0.4-0.2-1.2-0.5-1.9-0.5c-2,0-3.9,1.1-3.9,4.2V70h-6.3V50.5h6.2v4.3h0c0.6-3.1,2.9-4.7,5.5-4.7
		c0.6,0,1.3,0.1,1.8,0.3L600.3,57.3z"/>
	<path class="st0" d="M621.2,59.2l-2.8,2.8h-9.5c0.3,1.6,2.5,3.4,5.8,3.4c2,0,4.1-0.6,5.4-1.5l-0.6,5.4c-1.5,0.8-3.7,1.3-6.2,1.3
		c-5.9,0-10.7-4.1-10.7-10.5c0-6.3,4.6-10.3,10.1-10.3c5.4,0,8.7,3.7,8.7,7.8C621.3,58.2,621.2,58.8,621.2,59.2z M612.6,54.6
		c-1.8,0-3.4,1.4-3.8,3.2h6.6c0-0.1,0-0.3,0-0.4C615.4,56.1,614.3,54.6,612.6,54.6z"/>
	<path class="st0" d="M637.4,55.7h-5.1v7.2c0,1.7,0.9,2.4,2.6,2.4c0.7,0,1.2,0,1.6-0.3l-0.6,4.8c-0.6,0.3-1.7,0.5-2.9,0.5
		c-4.4,0-7-2.3-7-6.2v-8.4h-3.3v-5.2h3.3v-4.2l6.3-2.3v6.5h6.3L637.4,55.7z"/>
	<path class="st0" d="M643.9,47.9c-1.1,0-3.4-2.3-3.4-3.4s2.3-3.4,3.4-3.4s3.4,2.2,3.4,3.4S645,47.9,643.9,47.9z M640.7,70V50.5h6.4
		V70H640.7z"/>
	<path class="st0" d="M663.1,57.3c-0.4-0.2-1.2-0.5-1.9-0.5c-2,0-3.9,1.1-3.9,4.2V70H651V50.5h6.2v4.3h0c0.6-3.1,2.9-4.7,5.5-4.7
		c0.6,0,1.3,0.1,1.8,0.3L663.1,57.3z"/>
	<path class="st0" d="M684,59.2l-2.8,2.8h-9.5c0.3,1.6,2.5,3.4,5.8,3.4c2,0,4.1-0.6,5.4-1.5l-0.6,5.4c-1.5,0.8-3.7,1.3-6.2,1.3
		c-5.9,0-10.7-4.1-10.7-10.5c0-6.3,4.6-10.3,10.1-10.3c5.4,0,8.7,3.7,8.7,7.8C684.2,58.2,684.1,58.8,684,59.2z M675.5,54.6
		c-1.8,0-3.4,1.4-3.8,3.2h6.6c0-0.1,0-0.3,0-0.4C678.3,56.1,677.1,54.6,675.5,54.6z"/>
	<path class="st0" d="M695.8,56.5c-1.1,1.2-1.5,2.2-1.5,3.4c0,0.6,0,1.3,0.2,1.9l-5.4-1.1c-0.2-0.9-0.3-1.5-0.3-2.2
		c0-2.3,0.9-4.3,2.5-5.9c1.1-1.2,1.7-2,1.7-3.2c0-0.9-0.9-1.9-2.4-1.9c-1.5,0-2.9,0.6-4.4,1.4l-1.3-5.3c1.6-1,3.7-1.6,6.1-1.6
		c5.1,0,8.4,2.9,8.4,7.3C699.5,51.8,698.4,53.8,695.8,56.5z M691.9,70.6c-1.2,0-3.6-2.4-3.6-3.6c0-1.1,2.4-3.5,3.6-3.5
		s3.6,2.4,3.6,3.5C695.5,68.2,693.1,70.6,691.9,70.6z"/>
</g>
</svg>
