<?xml version="1.0" encoding="utf-8"?>
<!-- Generator: Adobe Illustrator 24.0.0, SVG Export Plug-In . SVG Version: 6.00 Build 0)  -->
<svg version="1.1" id="Layer_1" xmlns="http://www.w3.org/2000/svg" xmlns:xlink="http://www.w3.org/1999/xlink" x="0px" y="0px"
	 viewBox="0 0 970 250" style="enable-background:new 0 0 970 250;" xml:space="preserve">
<style type="text/css">
	.st0{fill:#F9E039;}
</style>
<g>
	<path class="st0" d="M62.1,94v5.4h7.8v5.6h-7.8v11h-6.5V88.6h16V94H62.1z"/>
	<path class="st0" d="M76.9,93.9c-1.1,0-3.4-2.3-3.4-3.4c0-1.1,2.3-3.4,3.4-3.4c1.1,0,3.4,2.2,3.4,3.4
		C80.3,91.6,78.1,93.9,76.9,93.9z M73.8,116V96.5h6.4V116H73.8z"/>
	<path class="st0" d="M92.3,125.9c-5.7,0-9.5-3.2-9.5-7.3c0-3,2-4.7,4-5.2l-2.5-2.5c0.2-1.2,1.2-2.3,2.4-2.8
		c-1.5-0.9-2.8-2.8-2.8-5.2c0-4.1,3-7,8-7c1.2,0,2.1,0.2,2.9,0.4c0.9,0.2,1.8,0.3,2.8,0.3c1.1,0,2.2-0.3,3.1-0.6l1.2,4.8
		c-0.6,0.3-1.5,0.6-2.4,0.6c0.2,0.4,0.5,1.3,0.5,2c0,3.3-2.6,6-6.4,6.3c-0.8,0-1.3,0.2-1.3,0.7c0,0.2,0.2,0.5,0.5,0.6l3,1.1
		c3.8,1.4,5.9,3.3,5.9,6.9C101.6,122.9,98,125.9,92.3,125.9z M93.6,116.8l-2.3-0.6c-1.5,0-2.6,1.1-2.6,2.5c0,1.3,1.2,2.5,3.4,2.5
		c2.2,0,3.4-1,3.4-2.1C95.6,118.1,94.9,117.1,93.6,116.8z M91.9,100.5c-1.4,0-2.5,1.1-2.5,2.3c0,1.3,1.1,2.3,2.5,2.3
		c1.4,0,2.5-1,2.5-2.3C94.4,101.6,93.4,100.5,91.9,100.5z"/>
	<path class="st0" d="M116.8,116v-2.7h0c-0.8,2.1-2.8,3.2-6,3.2c-4.3,0-6.8-2.4-6.8-6.5V96.5h6.3v12c0,1.4,1,2.7,2.9,2.7
		c1.9,0,3.1-1.2,3.1-2.8V96.5h6.3V116H116.8z"/>
	<path class="st0" d="M138.5,103.2c-0.4-0.2-1.2-0.5-1.9-0.5c-2,0-3.9,1.1-3.9,4.2v9.1h-6.3V96.5h6.2v4.3h0c0.6-3.1,2.9-4.7,5.5-4.7
		c0.6,0,1.3,0.1,1.8,0.3L138.5,103.2z"/>
	<path class="st0" d="M159.4,105.2l-2.8,2.8H147c0.3,1.6,2.5,3.4,5.8,3.4c2,0,4.1-0.6,5.4-1.5l-0.6,5.4c-1.5,0.8-3.7,1.3-6.2,1.3
		c-5.9,0-10.7-4.1-10.7-10.5c0-6.3,4.6-10.3,10.1-10.3c5.4,0,8.7,3.7,8.7,7.8C159.5,104.1,159.5,104.8,159.4,105.2z M150.8,100.6
		c-1.8,0-3.4,1.4-3.8,3.2h6.6c0-0.1,0-0.3,0-0.4C153.6,102,152.5,100.6,150.8,100.6z"/>
	<path class="st0" d="M182.1,116.6c-5.9,0-10.6-4.2-10.6-10.4s4.7-10.4,10.6-10.4c5.8,0,10.6,4.2,10.6,10.4S188,116.6,182.1,116.6z
		 M182.1,101.4c-2.4,0-4.4,2.1-4.4,4.9s2,4.9,4.4,4.9c2.3,0,4.4-2.1,4.4-4.9S184.4,101.4,182.1,101.4z"/>
	<path class="st0" d="M208.5,116v-2.7h0c-0.8,2.1-2.8,3.2-6,3.2c-4.3,0-6.8-2.4-6.8-6.5V96.5h6.3v12c0,1.4,1,2.7,2.9,2.7
		c1.9,0,3.1-1.2,3.1-2.8V96.5h6.3V116H208.5z"/>
	<path class="st0" d="M231.2,101.7h-5.1v7.2c0,1.7,0.9,2.4,2.6,2.4c0.7,0,1.2,0,1.6-0.3l-0.6,4.8c-0.6,0.3-1.7,0.5-2.9,0.5
		c-4.4,0-7-2.3-7-6.2v-8.4h-3.3v-5.2h3.3v-4.2l6.3-2.3v6.5h6.3L231.2,101.7z"/>
	<path class="st0" d="M256.2,114.1c-3,7.8-6.1,10.7-9.7,12.1l-3.9-3.9c3.1-1.2,5.5-3.5,7.1-7.6l-7-18.1h6.1l2.8,7.6
		c0.4,1.1,0.9,2.5,1.2,3.8h0.1c0.4-1.3,0.8-2.7,1.2-3.8l2.8-7.6h5.8L256.2,114.1z"/>
	<path class="st0" d="M273.8,116.6c-5.9,0-10.6-4.2-10.6-10.4s4.7-10.4,10.6-10.4c5.8,0,10.6,4.2,10.6,10.4S279.6,116.6,273.8,116.6
		z M273.8,101.4c-2.4,0-4.4,2.1-4.4,4.9s2,4.9,4.4,4.9c2.3,0,4.4-2.1,4.4-4.9S276.1,101.4,273.8,101.4z"/>
	<path class="st0" d="M300.2,116v-2.7h0c-0.8,2.1-2.8,3.2-6,3.2c-4.3,0-6.8-2.4-6.8-6.5V96.5h6.3v12c0,1.4,1,2.7,2.9,2.7
		c1.9,0,3.1-1.2,3.1-2.8V96.5h6.3V116H300.2z"/>
	<path class="st0" d="M321.9,103.2c-0.4-0.2-1.2-0.5-1.9-0.5c-2,0-3.9,1.1-3.9,4.2v9.1h-6.3V96.5h6.2v4.3h0c0.6-3.1,2.9-4.7,5.5-4.7
		c0.6,0,1.3,0.1,1.8,0.3L321.9,103.2z"/>
	<path class="st0" d="M344,125.9c-5.7,0-9.5-3.2-9.5-7.3c0-3,2-4.7,4-5.2l-2.5-2.5c0.2-1.2,1.2-2.3,2.4-2.8
		c-1.5-0.9-2.8-2.8-2.8-5.2c0-4.1,3-7,8-7c1.2,0,2.1,0.2,2.9,0.4c0.9,0.2,1.8,0.3,2.8,0.3c1.1,0,2.2-0.3,3.1-0.6l1.2,4.8
		c-0.6,0.3-1.5,0.6-2.4,0.6c0.2,0.4,0.5,1.3,0.5,2c0,3.3-2.6,6-6.4,6.3c-0.8,0-1.3,0.2-1.3,0.7c0,0.2,0.2,0.5,0.5,0.6l3,1.1
		c3.8,1.4,5.9,3.3,5.9,6.9C353.3,122.9,349.6,125.9,344,125.9z M345.3,116.8l-2.3-0.6c-1.5,0-2.6,1.1-2.6,2.5c0,1.3,1.2,2.5,3.4,2.5
		c2.2,0,3.4-1,3.4-2.1C347.2,118.1,346.5,117.1,345.3,116.8z M343.6,100.5c-1.4,0-2.5,1.1-2.5,2.3c0,1.3,1.1,2.3,2.5,2.3
		c1.4,0,2.5-1,2.5-2.3C346.1,101.6,345,100.5,343.6,100.5z"/>
	<path class="st0" d="M368.4,116v-2.7h0c-0.8,2.1-2.8,3.2-6,3.2c-4.3,0-6.8-2.4-6.8-6.5V96.5h6.3v12c0,1.4,1,2.7,2.9,2.7
		c1.9,0,3.1-1.2,3.1-2.8V96.5h6.3V116H368.4z"/>
	<path class="st0" d="M391.8,116.9c-1.2-0.3-2.5-1.2-3-2.6c-0.9,1.6-2.7,2.4-5.1,2.4c-3.4,0-6.5-2.4-6.5-6.4c0-3.6,2.8-6,6.7-6.4
		l3.9-0.4v-0.6c0-1.2-0.9-1.9-3.1-1.9c-1.9,0-4,0.6-5.4,1.5l-1.1-4.8c1.6-1,4.3-1.7,6.8-1.7c5.2,0,8.8,2.4,8.8,7.1v6.4
		c0,2.3,0.9,3.5,2.4,4L391.8,116.9z M387.7,107.5l-2.4,0.2c-1.6,0.1-2.4,1.3-2.4,2.5c0,1,0.8,1.9,2,1.9c1.5,0,2.8-1.2,2.8-2.8V107.5
		z"/>
	<path class="st0" d="M410.3,103.2c-0.4-0.2-1.2-0.5-1.9-0.5c-2,0-3.9,1.1-3.9,4.2v9.1h-6.3V96.5h6.2v4.3h0c0.6-3.1,2.9-4.7,5.5-4.7
		c0.6,0,1.3,0.1,1.8,0.3L410.3,103.2z"/>
	<path class="st0" d="M427.4,116.9c-1.2-0.3-2.5-1.2-3-2.6c-0.9,1.6-2.7,2.4-5.1,2.4c-3.4,0-6.5-2.4-6.5-6.4c0-3.6,2.8-6,6.7-6.4
		l3.9-0.4v-0.6c0-1.2-0.9-1.9-3.1-1.9c-1.9,0-4,0.6-5.4,1.5l-1.1-4.8c1.6-1,4.3-1.7,6.8-1.7c5.2,0,8.8,2.4,8.8,7.1v6.4
		c0,2.3,0.9,3.5,2.4,4L427.4,116.9z M423.3,107.5l-2.4,0.2c-1.6,0.1-2.4,1.3-2.4,2.5c0,1,0.8,1.9,2,1.9c1.5,0,2.8-1.2,2.8-2.8V107.5
		z"/>
	<path class="st0" d="M446.1,116v-12c0-1.4-0.9-2.7-2.9-2.7c-1.9,0-3.1,1.2-3.1,2.8V116h-6.3V96.5h5.8v2.6h0
		c0.8-2.1,2.8-3.2,5.9-3.2c4.3,0,6.8,2.4,6.8,6.5V116H446.1z"/>
	<path class="st0" d="M469,101.7h-5.1v7.2c0,1.7,0.9,2.4,2.6,2.4c0.7,0,1.2,0,1.6-0.3l-0.6,4.8c-0.6,0.3-1.7,0.5-2.9,0.5
		c-4.4,0-7-2.3-7-6.2v-8.4h-3.3v-5.2h3.3v-4.2l6.3-2.3v6.5h6.3L469,101.7z"/>
	<path class="st0" d="M489.6,105.2l-2.8,2.8h-9.5c0.3,1.6,2.5,3.4,5.8,3.4c2,0,4.1-0.6,5.4-1.5l-0.6,5.4c-1.5,0.8-3.7,1.3-6.2,1.3
		c-5.9,0-10.7-4.1-10.7-10.5c0-6.3,4.6-10.3,10.1-10.3c5.4,0,8.7,3.7,8.7,7.8C489.8,104.1,489.7,104.8,489.6,105.2z M481,100.6
		c-1.8,0-3.4,1.4-3.8,3.2h6.6c0-0.1,0-0.3,0-0.4C483.9,102,482.7,100.6,481,100.6z"/>
	<path class="st0" d="M510.4,105.2l-2.8,2.8h-9.5c0.3,1.6,2.5,3.4,5.8,3.4c2,0,4.1-0.6,5.4-1.5l-0.6,5.4c-1.5,0.8-3.7,1.3-6.2,1.3
		c-5.9,0-10.7-4.1-10.7-10.5c0-6.3,4.6-10.3,10.1-10.3c5.4,0,8.7,3.7,8.7,7.8C510.6,104.1,510.5,104.8,510.4,105.2z M501.9,100.6
		c-1.8,0-3.4,1.4-3.8,3.2h6.6c0-0.1,0-0.3,0-0.4C504.7,102,503.5,100.6,501.9,100.6z"/>
	<path class="st0" d="M528,116v-2.4h0c-1.1,2-3.3,3-6,3c-4.8,0-9.4-3.6-9.4-10.3c0-6.3,4.5-10.4,9.9-10.4c2.1,0,4.2,0.7,4.9,1.3
		V85.4h6.1V116H528z M527.4,103.2c-0.6-0.8-1.9-1.8-3.8-1.8c-2.8,0-4.7,2.1-4.7,4.9s1.9,4.9,4.7,4.9c1.8,0,3.1-1,3.8-2V103.2z"/>
	<path class="st0" d="M554,116.8c-4-0.2-6.7-2.2-6.7-6.9V85.4h6.2v23.7c0,1.6,0.9,2.5,2.6,2.6L554,116.8z"/>
	<path class="st0" d="M561.8,93.9c-1.1,0-3.4-2.3-3.4-3.4c0-1.1,2.3-3.4,3.4-3.4s3.4,2.2,3.4,3.4C565.2,91.6,562.9,93.9,561.8,93.9z
		 M558.6,116V96.5h6.4V116H558.6z"/>
	<path class="st0" d="M582.6,91c-0.7-0.3-1.8-0.5-2.5-0.5c-2.3,0-3.5,1.4-3.5,4.2v1.8h5.6l-1.2,5.2h-4.3V116h-6.1v-14.3h-3v-5.2h3
		v-2.3c0-5.9,3.8-8.9,8.7-8.9c1.8,0,3.6,0.2,4.6,0.6L582.6,91z"/>
	<path class="st0" d="M601.4,105.2l-2.8,2.8h-9.5c0.3,1.6,2.5,3.4,5.8,3.4c2,0,4.1-0.6,5.4-1.5l-0.6,5.4c-1.5,0.8-3.7,1.3-6.2,1.3
		c-5.9,0-10.7-4.1-10.7-10.5c0-6.3,4.6-10.3,10.1-10.3c5.4,0,8.7,3.7,8.7,7.8C601.6,104.1,601.5,104.8,601.4,105.2z M592.9,100.6
		c-1.8,0-3.4,1.4-3.8,3.2h6.6c0-0.1,0-0.3,0-0.4C595.7,102,594.6,100.6,592.9,100.6z"/>
	<path class="st0" d="M617.7,101.7h-5.1v7.2c0,1.7,0.9,2.4,2.6,2.4c0.7,0,1.2,0,1.6-0.3l-0.6,4.8c-0.6,0.3-1.7,0.5-2.9,0.5
		c-4.4,0-7-2.3-7-6.2v-8.4h-3.3v-5.2h3.3v-4.2l6.3-2.3v6.5h6.3L617.7,101.7z"/>
	<path class="st0" d="M624.2,93.9c-1.1,0-3.4-2.3-3.4-3.4c0-1.1,2.3-3.4,3.4-3.4s3.4,2.2,3.4,3.4C627.6,91.6,625.3,93.9,624.2,93.9z
		 M621,116V96.5h6.4V116H621z"/>
	<path class="st0" d="M655.3,116v-12c0-1.4-0.7-2.7-2.8-2.7c-2,0-2.9,1.2-2.9,2.8V116h-6.3v-12c0-1.4-0.7-2.7-2.8-2.7
		c-2,0-2.9,1.2-2.9,2.8V116h-6.3V96.5h5.8v2.6h0c0.8-2.1,2.7-3.2,5.8-3.2c2.8,0,4.9,1.1,5.8,3.2c0.8-1.9,3.1-3.2,6-3.2
		c4.4,0,6.9,2.4,6.9,6.5V116H655.3z"/>
	<path class="st0" d="M683.4,105.2l-2.8,2.8H671c0.3,1.6,2.5,3.4,5.8,3.4c2,0,4.1-0.6,5.4-1.5l-0.6,5.4c-1.5,0.8-3.7,1.3-6.2,1.3
		c-5.9,0-10.7-4.1-10.7-10.5c0-6.3,4.6-10.3,10.1-10.3c5.4,0,8.7,3.7,8.7,7.8C683.5,104.1,683.4,104.8,683.4,105.2z M674.8,100.6
		c-1.8,0-3.4,1.4-3.8,3.2h6.6c0-0.1,0-0.3,0-0.4C677.6,102,676.5,100.6,674.8,100.6z"/>
</g>
<g>
	<path class="st0" d="M116.8,138.9c-1.1,0-3.4-2.3-3.4-3.4c0-1.1,2.3-3.4,3.4-3.4c1.1,0,3.4,2.2,3.4,3.4
		C120.2,136.6,117.9,138.9,116.8,138.9z M113.6,161v-19.5h6.4V161H113.6z"/>
	<path class="st0" d="M136.2,161v-12c0-1.4-0.9-2.7-2.9-2.7c-1.9,0-3.1,1.2-3.1,2.8V161h-6.3v-19.5h5.8v2.6h0
		c0.8-2.1,2.8-3.2,5.9-3.2c4.3,0,6.8,2.4,6.8,6.5V161H136.2z"/>
	<path class="st0" d="M161.1,147.8c-1.3-0.8-2.6-1.2-4.2-1.2c-2.8,0-4.9,2-4.9,4.8c0,2.8,2.2,4.8,5.1,4.8c1.6,0,2.9-0.3,4.3-1.1
		l-0.6,5.4c-1.3,0.6-3,0.9-4.8,0.9c-5.5,0-10.5-3.9-10.5-10.1c0-6.4,5.1-10.2,10.4-10.2c2.6,0,4.7,0.5,6.4,1.5L161.1,147.8z"/>
	<path class="st0" d="M174.5,161.6c-5.9,0-10.6-4.2-10.6-10.4c0-6.2,4.7-10.4,10.6-10.4c5.8,0,10.6,4.2,10.6,10.4
		C185.2,157.5,180.4,161.6,174.5,161.6z M174.5,146.4c-2.4,0-4.4,2.1-4.4,4.9s2,4.9,4.4,4.9c2.3,0,4.4-2.1,4.4-4.9
		S176.9,146.4,174.5,146.4z"/>
	<path class="st0" d="M212.1,161v-12c0-1.4-0.7-2.7-2.8-2.7c-2,0-2.9,1.2-2.9,2.8V161h-6.3v-12c0-1.4-0.7-2.7-2.8-2.7
		c-2,0-2.9,1.2-2.9,2.8V161h-6.3v-19.5h5.8v2.6h0c0.8-2.1,2.7-3.2,5.8-3.2c2.8,0,4.9,1.1,5.8,3.2c0.8-1.9,3.1-3.2,6-3.2
		c4.4,0,6.9,2.4,6.9,6.5V161H212.1z"/>
	<path class="st0" d="M240.2,150.2l-2.8,2.8h-9.5c0.3,1.6,2.5,3.4,5.8,3.4c2,0,4.1-0.6,5.4-1.5l-0.6,5.4c-1.5,0.8-3.7,1.3-6.2,1.3
		c-5.9,0-10.7-4.1-10.7-10.5c0-6.3,4.6-10.3,10.1-10.3c5.4,0,8.7,3.7,8.7,7.8C240.3,149.2,240.2,149.8,240.2,150.2z M231.6,145.6
		c-1.8,0-3.4,1.4-3.8,3.2h6.6c0-0.1,0-0.3,0-0.4C234.4,147.1,233.3,145.6,231.6,145.6z"/>
	<path class="st0" d="M259.4,161.5c-2.7,0-4.6-0.6-6.2-1.4l-0.6-5.6c1.7,1.2,4,2.1,6.1,2.1c1.2,0,1.9-0.6,1.9-1.3
		c0-0.8-0.6-1.2-1.8-1.5c-3.7-1.1-6-3-6-6.4c0-3.8,3.1-6.3,7.3-6.3c2.4,0,4.8,0.6,5.8,1.2l-1.1,4.6c-0.9-0.5-2.5-1.1-4-1.1
		c-1,0-1.7,0.5-1.7,1.2c0,0.7,0.5,1.1,1.7,1.4c4.4,1.2,6.2,3.4,6.2,6.6C267,158.4,264.6,161.5,259.4,161.5z"/>
	<path class="st0" d="M279.5,161.6c-5.9,0-10.6-4.2-10.6-10.4c0-6.2,4.7-10.4,10.6-10.4c5.8,0,10.6,4.2,10.6,10.4
		C290.1,157.5,285.4,161.6,279.5,161.6z M279.5,146.4c-2.4,0-4.4,2.1-4.4,4.9s2,4.9,4.4,4.9c2.3,0,4.4-2.1,4.4-4.9
		S281.8,146.4,279.5,146.4z"/>
	<path class="st0" d="M314.9,159.1c-3,7.8-6.1,10.7-9.7,12.1l-3.9-3.9c3.1-1.2,5.5-3.5,7.1-7.6l-7-18.1h6.1l2.8,7.6
		c0.4,1.1,0.9,2.5,1.2,3.8h0.1c0.4-1.3,0.8-2.7,1.2-3.8l2.8-7.6h5.8L314.9,159.1z"/>
	<path class="st0" d="M332.4,161.6c-5.9,0-10.6-4.2-10.6-10.4c0-6.2,4.7-10.4,10.6-10.4c5.8,0,10.6,4.2,10.6,10.4
		C343.1,157.5,338.3,161.6,332.4,161.6z M332.4,146.4c-2.4,0-4.4,2.1-4.4,4.9s2,4.9,4.4,4.9c2.3,0,4.4-2.1,4.4-4.9
		S334.8,146.4,332.4,146.4z"/>
	<path class="st0" d="M358.8,161v-2.7h0c-0.8,2.1-2.8,3.2-6,3.2c-4.3,0-6.8-2.4-6.8-6.5v-13.5h6.3v12c0,1.4,1,2.7,2.9,2.7
		c1.9,0,3.1-1.2,3.1-2.8v-11.8h6.3V161H358.8z"/>
	<path class="st0" d="M390.4,161v-12c0-1.4-0.9-2.7-2.9-2.7c-1.9,0-3.1,1.2-3.1,2.8V161h-6.3v-19.5h5.8v2.6h0
		c0.8-2.1,2.8-3.2,5.9-3.2c4.3,0,6.8,2.4,6.8,6.5V161H390.4z"/>
	<path class="st0" d="M418.4,150.2l-2.8,2.8h-9.5c0.3,1.6,2.5,3.4,5.8,3.4c2,0,4.1-0.6,5.4-1.5l-0.6,5.4c-1.5,0.8-3.7,1.3-6.2,1.3
		c-5.9,0-10.7-4.1-10.7-10.5c0-6.3,4.6-10.3,10.1-10.3c5.4,0,8.7,3.7,8.7,7.8C418.6,149.2,418.5,149.8,418.4,150.2z M409.8,145.6
		c-1.8,0-3.4,1.4-3.8,3.2h6.6c0-0.1,0-0.3,0-0.4C412.7,147.1,411.5,145.6,409.8,145.6z"/>
	<path class="st0" d="M431.4,161.2h-4.7l-7.5-19.7h6.1l2.8,7.4c0.4,1,0.8,2.5,1.1,3.8h0.1c0.3-1.2,0.7-2.8,1.1-3.8l2.8-7.4h5.8
		L431.4,161.2z"/>
	<path class="st0" d="M458,150.2l-2.8,2.8h-9.5c0.3,1.6,2.5,3.4,5.8,3.4c2,0,4.1-0.6,5.4-1.5l-0.6,5.4c-1.5,0.8-3.7,1.3-6.2,1.3
		c-5.9,0-10.7-4.1-10.7-10.5c0-6.3,4.6-10.3,10.1-10.3c5.4,0,8.7,3.7,8.7,7.8C458.2,149.2,458.1,149.8,458,150.2z M449.4,145.6
		c-1.8,0-3.4,1.4-3.8,3.2h6.6c0-0.1,0-0.3,0-0.4C452.3,147.1,451.1,145.6,449.4,145.6z"/>
	<path class="st0" d="M473.2,148.3c-0.4-0.2-1.2-0.5-1.9-0.5c-2,0-3.9,1.1-3.9,4.2v9.1h-6.3v-19.5h6.2v4.3h0
		c0.6-3.1,2.9-4.7,5.5-4.7c0.6,0,1.3,0.1,1.8,0.3L473.2,148.3z"/>
	<path class="st0" d="M498.7,148.3c-0.4-0.2-1.2-0.5-1.9-0.5c-2,0-3.9,1.1-3.9,4.2v9.1h-6.3v-19.5h6.2v4.3h0
		c0.6-3.1,2.9-4.7,5.5-4.7c0.6,0,1.3,0.1,1.8,0.3L498.7,148.3z"/>
	<path class="st0" d="M515,161v-2.7h0c-0.8,2.1-2.8,3.2-6,3.2c-4.3,0-6.8-2.4-6.8-6.5v-13.5h6.3v12c0,1.4,1,2.7,2.9,2.7
		c1.9,0,3.1-1.2,3.1-2.8v-11.8h6.3V161H515z"/>
	<path class="st0" d="M536.9,161v-12c0-1.4-0.9-2.7-2.9-2.7c-1.9,0-3.1,1.2-3.1,2.8V161h-6.3v-19.5h5.8v2.6h0
		c0.8-2.1,2.8-3.2,5.9-3.2c4.3,0,6.8,2.4,6.8,6.5V161H536.9z"/>
	<path class="st0" d="M566.6,161.6c-5.9,0-10.6-4.2-10.6-10.4c0-6.2,4.7-10.4,10.6-10.4c5.8,0,10.6,4.2,10.6,10.4
		C577.2,157.5,572.5,161.6,566.6,161.6z M566.6,146.4c-2.4,0-4.4,2.1-4.4,4.9s2,4.9,4.4,4.9c2.3,0,4.4-2.1,4.4-4.9
		S568.9,146.4,566.6,146.4z"/>
	<path class="st0" d="M593,161v-2.7h0c-0.8,2.1-2.8,3.2-6,3.2c-4.3,0-6.8-2.4-6.8-6.5v-13.5h6.3v12c0,1.4,1,2.7,2.9,2.7
		c1.9,0,3.1-1.2,3.1-2.8v-11.8h6.3V161H593z"/>
	<path class="st0" d="M615.7,146.7h-5.1v7.2c0,1.7,0.9,2.4,2.6,2.4c0.7,0,1.2,0,1.6-0.3l-0.6,4.8c-0.6,0.3-1.7,0.5-2.9,0.5
		c-4.4,0-7-2.3-7-6.2v-8.4h-3.3v-5.2h3.3v-4.2l6.3-2.3v6.5h6.3L615.7,146.7z"/>
	<path class="st0" d="M621.6,161.6c-1.2,0-3.6-2.4-3.6-3.6c0-1.1,2.4-3.5,3.6-3.5c1.2,0,3.6,2.4,3.6,3.5
		C625.1,159.2,622.7,161.6,621.6,161.6z"/>
</g>
</svg>
