<?xml version="1.0" encoding="utf-8"?>
<!-- Generator: Adobe Illustrator 24.0.0, SVG Export Plug-In . SVG Version: 6.00 Build 0)  -->
<svg version="1.1" id="Layer_1" xmlns="http://www.w3.org/2000/svg" xmlns:xlink="http://www.w3.org/1999/xlink" x="0px" y="0px"
	 viewBox="0 0 970 250" style="enable-background:new 0 0 970 250;" xml:space="preserve">
<style type="text/css">
	.st0{fill:#3ABFEF;}
</style>
<path class="st0" d="M744.4,142.9c-9,0-16.2,7.3-16.2,16.2v16c0,9,7.3,16.2,16.2,16.2h171.7c9,0,16.2-7.3,16.2-16.2v-16
	c0-9-7.3-16.2-16.2-16.2H744.4z"/>
<g>
	<path d="M788.4,159.5c2,0,3.7,0.1,5.2,1.5c1.5,1.4,2.1,3.3,2.1,5.3c0,1.8-0.6,3.6-1.8,5c-1.4,1.5-3,1.9-5,1.9h-4.5v-13.7H788.4z
		 M787.6,170.7h1.1c1.3,0,2.2-0.3,2.9-1.5c0.5-0.9,0.8-1.9,0.8-3c0-1.1-0.3-2.2-1-3.1c-0.7-1-1.6-1.1-2.7-1.1h-1.1V170.7z"/>
	<path d="M800.9,173.3h-3.2v-13.7h3.2V173.3z"/>
	<path d="M810.6,163.5c-0.4-1.2-1.1-1.6-2.4-1.6c-0.9,0-1.9,0.2-1.9,1.3c0,1,1.2,1.2,2,1.4c1.1,0.2,2.6,0.5,3.6,1.2
		c1.1,0.7,1.8,1.9,1.8,3.2c0,1.3-0.6,2.6-1.7,3.4c-1.1,0.9-2.6,1.1-4,1.1c-2.6,0-4.9-1.1-5.5-3.8l3-0.7c0.4,1.4,1.4,1.9,2.9,1.9
		c0.9,0,2.1-0.3,2.1-1.5c0-1.1-1.6-1.4-2.4-1.5c-2.4-0.5-4.8-1.2-4.8-4.2c0-1.3,0.5-2.4,1.5-3.2c1-0.8,2.2-1.1,3.4-1.1
		c2.4,0,4.4,0.8,5.2,3.2L810.6,163.5z"/>
	<path d="M823.4,164.9c0-1.5-0.5-2.9-2.3-2.9c-2.3,0-2.5,3-2.5,4.6c0,1.9,0.2,4.3,2.6,4.3c1.5,0,2.2-1.3,2.4-2.6l3.1,0.2
		c-0.3,3.1-2.5,5-5.7,5c-4.1,0-6.1-3.3-6.1-7.1c0-3.8,2-7.1,6.2-7.1c3.4,0,5.2,2,5.6,5.3L823.4,164.9z"/>
	<path d="M829.7,171.3c-1-1.4-1.4-3.2-1.4-4.9c0-3.6,1.8-7,5.9-7c1.8,0,3.3,0.6,4.4,2.1c1,1.3,1.5,3.3,1.5,4.9
		c0,1.6-0.4,3.5-1.3,4.8c-1.1,1.6-2.7,2.3-4.5,2.3S830.8,172.8,829.7,171.3z M832.1,163.5c-0.3,0.8-0.4,2-0.4,2.9
		c0,1.7,0.3,4.5,2.5,4.5c1.1,0,1.7-0.5,2.1-1.6c0.3-0.8,0.4-2,0.4-2.9c0-1-0.1-2.2-0.5-3.1c-0.4-0.9-1-1.3-2-1.3
		C833.1,162,832.5,162.5,832.1,163.5z"/>
	<path d="M848.2,173.3h-3.5l-4.1-13.7h3.4l2.8,9.8l2.8-9.8h2.7L848.2,173.3z"/>
	<path d="M856.9,162.2v2.8h5.2v2.6h-5.2v3h6.6v2.7h-9.8v-13.7h9.8v2.7H856.9z"/>
	<path d="M868.6,173.3h-3.2v-13.7h5.8c1.2,0,2.5,0,3.5,0.7c1.1,0.7,1.7,2.1,1.7,3.4c0,1.6-0.9,3-2.4,3.5l2.5,6.1H873l-2.1-5.4h-2.3
		V173.3z M868.6,165.5h1.8c0.7,0,1.4,0.1,2-0.3c0.5-0.3,0.8-1,0.8-1.6c0-0.5-0.3-1.1-0.8-1.4c-0.5-0.3-1.5-0.3-2.1-0.3h-1.7V165.5z"
		/>
</g>
</svg>
