<?xml version="1.0" encoding="utf-8"?>
<!-- Generator: Adobe Illustrator 24.0.0, SVG Export Plug-In . SVG Version: 6.00 Build 0)  -->
<svg version="1.1" id="Layer_1" xmlns="http://www.w3.org/2000/svg" xmlns:xlink="http://www.w3.org/1999/xlink" x="0px" y="0px"
	 viewBox="0 0 970 250" style="enable-background:new 0 0 970 250;" xml:space="preserve">
<style type="text/css">
	.st0{fill:#FFFFFF;}
</style>
<path class="st0" d="M347.2,176.8h-3.5c-1.8,0-3.2,1.8-3.2,3.4v-5.4c0-1.6-1.4-3.4-3.2-3.4h-3.5c-1.8,0-3.2,1.8-3.2,3.4v-3.4
	c0-1.6-1.4-3.4-3.2-3.4h-3.5c-1.8,0-3.2,1.8-3.2,3.4v-13.3c0-2.5-2.2-4.5-4.9-4.5c-2.7,0-4.9,2-4.9,4.5v26.1
	c-3-2.1-7.5-5.9-11.5-4.1c-2.9,1.3-2.2,5.2,0.7,8c5.1,5.1,10.4,15.1,12.4,20.9c3.1,9.1,4.9,13.1,4.9,13.1h26.2c0,0,2.9-9.4,5.6-15
	c0.3-0.7,1-2,1-6.5v-9.2v-11.2C350.4,178.6,348.9,176.8,347.2,176.8"/>
<path d="M318.7,220.5h23.7c0.9-2.8,3.1-9.5,5.4-14c0.3-0.6,0.9-1.8,0.9-5.8v-20.5c0-0.7-0.7-1.7-1.4-1.7h-3.5c-0.7,0-1.4,1-1.4,1.7
	c0,1-0.8,1.8-1.7,1.8c-1,0-1.8-0.8-1.8-1.8v-5.4c0-0.7-0.7-1.7-1.4-1.7h-3.5c-0.7,0-1.4,1-1.4,1.7c0,1-0.8,1.8-1.8,1.8
	c-1,0-1.7-0.8-1.7-1.8v-3.4c0-0.7-0.7-1.7-1.4-1.7h-3.5c-0.7,0-1.4,1-1.4,1.7c0,1-0.8,1.8-1.7,1.8c-1,0-1.8-0.8-1.8-1.8v-13.3
	c0-1.5-1.4-2.7-3.1-2.7s-3.1,1.2-3.1,2.7v26.1c0,0.6-0.4,1.2-0.9,1.5c-0.6,0.3-1.3,0.3-1.8-0.1c-0.4-0.2-0.7-0.5-1.1-0.8
	c-2.2-1.5-4.8-3.5-7.2-3.5c-0.5,0-1,0.1-1.5,0.3c-0.5,0.2-0.7,0.5-0.8,0.9c-0.2,1,0.4,2.6,2,4.3c5.1,5.1,10.6,15.1,12.8,21.5
	C316.5,214.9,318,218.8,318.7,220.5 M343.7,224h-26.2c-0.7,0-1.3-0.4-1.6-1c-0.1-0.2-1.8-4.2-4.9-13.2c-1.8-5.3-6.9-15.2-11.9-20.2
	c-2.3-2.3-3.4-5.1-2.9-7.4c0.3-1.6,1.3-2.8,2.8-3.5c0.9-0.4,1.9-0.6,2.9-0.6c2.8,0,5.3,1.4,7.6,2.9v-22.8c0-3.4,3-6.2,6.6-6.2
	c3.7,0,6.6,2.8,6.6,6.2v8.3c0.4-0.2,0.9-0.2,1.4-0.2h3.5c2.3,0,4.1,1.8,4.7,3.7c0.5-0.2,1.1-0.3,1.6-0.3h3.5c2.8,0,4.9,2.7,4.9,5.2
	v0.4c0.4-0.2,0.9-0.2,1.4-0.2h3.5c2.8,0,4.9,2.7,4.9,5.2v20.5c0,4.8-0.8,6.4-1.2,7.2c-2.7,5.5-5.5,14.7-5.6,14.8
	C345.1,223.5,344.5,224,343.7,224"/>
<path d="M321,181.4c-1,0-1.8-0.8-1.8-1.7v-8.2c0-1,0.8-1.7,1.8-1.7c1,0,1.7,0.8,1.7,1.7v8.2C322.7,180.6,321.9,181.4,321,181.4"/>
<path d="M330.8,184.8c-1,0-1.7-0.8-1.7-1.7v-8.2c0-1,0.8-1.7,1.7-1.7c1,0,1.8,0.8,1.8,1.7v8.2C332.5,184,331.7,184.8,330.8,184.8"/>
<path d="M340.6,190.2c-1,0-1.8-0.8-1.8-1.7v-8.2c0-1,0.8-1.8,1.8-1.8c1,0,1.7,0.8,1.7,1.8v8.2C342.3,189.4,341.5,190.2,340.6,190.2"
	/>
</svg>
