<?xml version="1.0" encoding="utf-8"?>
<!-- Generator: Adobe Illustrator 24.0.0, SVG Export Plug-In . SVG Version: 6.00 Build 0)  -->
<svg version="1.1" id="Layer_1" xmlns="http://www.w3.org/2000/svg" xmlns:xlink="http://www.w3.org/1999/xlink" x="0px" y="0px"
	 viewBox="0 0 970 250" style="enable-background:new 0 0 970 250;" xml:space="preserve">
<style type="text/css">
	.st0{fill:#FFFFFF;}
	.st1{clip-path:url(#SVGID_2_);fill:#FFFFFF;}
	.st2{clip-path:url(#SVGID_4_);fill:url(#SVGID_5_);}
	.st3{clip-path:url(#SVGID_7_);fill:url(#SVGID_8_);}
	.st4{clip-path:url(#SVGID_10_);fill:url(#SVGID_11_);}
</style>
<path class="st0" d="M847,38.2v6.3h-11.2v30.4h-7.1V44.5h-11.2v-6.3H847z M850,74.9h7.1V56.5V38.2H850v18.4V74.9z M893.8,74.9h-7.3
	l-3.8-9h-12.5l-3.7,9h-7.1l15.7-37.3h3.1L893.8,74.9z M928.3,74.9H921l-3.8-9h-12.5l-3.7,9h-7.1l15.7-37.3h3.1L928.3,74.9z
	 M880.3,59.9l-3.8-9.2l-3.8,9.2H880.3z M914.7,59.9l-3.8-9.2l-3.8,9.2H914.7z"/>
<g>
	<defs>
		<rect id="SVGID_1_" x="759.6" y="29.4" width="172.7" height="58.1"/>
	</defs>
	<clipPath id="SVGID_2_">
		<use xlink:href="#SVGID_1_"  style="overflow:visible;"/>
	</clipPath>
	<path class="st1" d="M791.7,77.3c3.2,0,6-1.3,8.1-3.4l8.7-8.7c2-2,3.3-4.8,3.3-7.9V30.2h-27.1c-3.2,0-6,1.3-8.1,3.4l-8.7,8.7
		c-2,2-3.3,4.8-3.3,7.9v27.1H791.7z"/>
</g>
<g>
	<defs>
		<path id="SVGID_3_" d="M787.8,32.6c-4.9,0-8.9,4-8.9,8.9v3h18.5V63h3c4.9,0,8.9-4,8.9-8.9V32.6H787.8z"/>
	</defs>
	<clipPath id="SVGID_4_">
		<use xlink:href="#SVGID_3_"  style="overflow:visible;"/>
	</clipPath>
	
		<linearGradient id="SVGID_5_" gradientUnits="userSpaceOnUse" x1="0.6693" y1="250.7166" x2="1.6693" y2="250.7166" gradientTransform="matrix(21.1696 -21.1696 -21.1696 -21.1696 6081.543 5375.5024)">
		<stop  offset="0" style="stop-color:#9EDCF9"/>
		<stop  offset="0.1" style="stop-color:#9EDCF9"/>
		<stop  offset="0.9" style="stop-color:#079DD9"/>
		<stop  offset="1" style="stop-color:#079DD9"/>
	</linearGradient>
	<polygon class="st2" points="763.7,47.8 794.1,17.4 824.5,47.8 794.1,78.3 	"/>
</g>
<g>
	<defs>
		<path id="SVGID_6_" d="M800.4,65.4h-23.9l-9.5,9.5h24.7c2.4,0,4.7-1,6.4-2.7l8-8l-0.2-0.2C804.2,64.9,802.4,65.4,800.4,65.4"/>
	</defs>
	<clipPath id="SVGID_7_">
		<use xlink:href="#SVGID_6_"  style="overflow:visible;"/>
	</clipPath>
	
		<linearGradient id="SVGID_8_" gradientUnits="userSpaceOnUse" x1="0.9744" y1="250.6669" x2="1.9744" y2="250.6669" gradientTransform="matrix(39.0298 0 0 -39.0298 728.9645 9852.9561)">
		<stop  offset="0" style="stop-color:#17B0E6"/>
		<stop  offset="0.1144" style="stop-color:#18ACE2"/>
		<stop  offset="0.264" style="stop-color:#16A1D7"/>
		<stop  offset="0.4332" style="stop-color:#1290C7"/>
		<stop  offset="0.6169" style="stop-color:#0D7AB4"/>
		<stop  offset="0.81" style="stop-color:#00619F"/>
		<stop  offset="0.9" style="stop-color:#005595"/>
		<stop  offset="1" style="stop-color:#005595"/>
	</linearGradient>
	<rect x="767" y="64" class="st3" width="39" height="10.9"/>
</g>
<g>
	<defs>
		<path id="SVGID_9_" d="M769.7,43.9c-1.7,1.7-2.7,4-2.7,6.4v24.7l9.5-9.5V41.5c0-2,0.5-3.8,1.4-5.4l-0.2-0.2L769.7,43.9z"/>
	</defs>
	<clipPath id="SVGID_10_">
		<use xlink:href="#SVGID_9_"  style="overflow:visible;"/>
	</clipPath>
	
		<linearGradient id="SVGID_11_" gradientUnits="userSpaceOnUse" x1="0.6669" y1="251.0256" x2="1.6669" y2="251.0256" gradientTransform="matrix(0 -39.0304 -39.0304 0 10570.0547 100.9551)">
		<stop  offset="0" style="stop-color:#0582BE"/>
		<stop  offset="0.2191" style="stop-color:#0478B4"/>
		<stop  offset="0.6535" style="stop-color:#00609E"/>
		<stop  offset="0.85" style="stop-color:#005595"/>
		<stop  offset="1" style="stop-color:#005595"/>
	</linearGradient>
	<rect x="767" y="35.9" class="st4" width="10.9" height="39"/>
</g>
</svg>
