<svg id="Layer_1" xmlns="http://www.w3.org/2000/svg" viewBox="0 0 160 600"><style>.st0{fill:#fff}.st1{stroke:#fcfcfc;stroke-width:.315;stroke-miterlimit:10}.st1,.st2{fill:none}</style><path class="st0" d="M69.7 252.8h.4c0 .9.2 1.4.7 1.4l2.9-.2c0-.7.3-1.1 1-1.1.5.2.9.3 1.2.3l-.3.7h.3c1.1-.8 2.2-1.2 3.2-1.2l.1 1.1c-1 .1-1.5.3-1.5.8v.3c1.2-.1 3 .4 5.4 1.3l4.5-.2c.4-.1.7-.4 1.1-1.2.8.3 1.5.7 2.2 1.3l5-.9h1c2.5.8 3.7 1.5 3.8 1.9-.4 0-.9.5-1.5 1.4l.1.4.5 1.7 1.8-.4 2.2 1.2c.3 1.2.5 1.9.5 2.1-.5.1-.7.4-.7.8l1.5 1.6-1.3 2.9v.4h.4l1.4-1.2.4.7.1.7-1.5 1.5c.3.4.4.9.5 1.4-.8.2-1.1 1.1-1 2.8.4 1.9 2 2.7 4.9 2.6 1.3 1.1 1.9 2.1 1.9 3-1.2.7-1.9 1.4-2 2.2 1.8.9 2.9 1.3 3.2 1.3v.3c.1.5-.4.7-1.3.8l.5 2.4v.7c0 .5-.3.7-.8.8l.5.7v.3c.1.6-.2 1.3-.6 2.1 1 0 1.5.5 1.5 1.4l.8-.1 1.3-1.5h.3c.5 0 .8.3.9 1-.3 1.7-.6 2.5-1 2.5l.5.7v.7c.1.5-.2.7-.7.8l.9 2.4-.3.7.9 3.8.7-.4h.8l.1 1c-.8.1-1.1.4-1.1 1.1 0 .4.7 1.2 2.2 2.4 0 .3-1.5 1.1-4.6 2.3-1.1 1.7-1.7 2.8-1.7 3.2l.4.7c-.1.9-.3 1.4-.6 1.4.3.5.4.8.4 1.1-.3.9-.6 1.4-.9 1.4-.8-.7-1.2-1.3-1.2-1.7.2-.5.3-.8.3-1-.4 0-.7-.3-1.1-1 .5-.1.7-.3.6-.8 0-.5-.7-.6-2.2-.5l-.1-1.4c1.3-1.2 2-2.3 2-3.2 1.9-.8 3.2-1.7 3.9-2.6v-.4c-.5.1-1-.3-1.5-.9-1.4 1.4-2.7 2.3-3.9 2.6.1.7-.3 1-1 1.1v.7l.9 1c-.6 1.2-1.1 1.8-1.4 1.8.1 1.4 1 2.7 2.7 3.7l.1.7-4.6 1.6-1.1-.6c-3.8.5-6.1 1.1-6.7 1.7h-.4c-.2 0-.3-.1-.3-.3l-.8.4-2.2-.2c0 .3-.3.7-1 1.1h-.8c0-.2-.3-1.1-.9-2.7v-.4l.3-.7c-.2 0-.3-.1-.4-.3 2.4-2.1 3.5-3.4 3.5-3.7l-.8-.3-.7.1-1.1.7-.3.1c-.5 0-.7-.2-.8-.7.5 0 .7-.2.7-.7-.3 0-.4-.1-.4-.4l.7-.4-.4-.6v-.8l.2-1.7c-.3 0-.4-.1-.4-.4l.7-.3-.4-.7v-.7c-.1-1.7.7-2.5 2.4-2.6v-.4l-.8-.3.3-.7v-.7l-1.8.4-.4-.6c-1.4.5-2.4.8-2.9.8l-.4-2c.1-.9.9-2 2.3-3.3 0 .3.2.4.5.4-.1-.6.2-1.2.6-1.8-.5 0-1-.1-1.5-.3 0 .5-.2.7-.7.8h-.8c-.5 0-.7-.2-.7-.7l-.2-2.1c.5-.9 1.1-1.4 1.8-1.5l-2.7-2.6c-.1-.5-.2-1-.4-1.4.2-.5.3-.8.2-1.1v-.3h-.3c0 .7-.6 1.4-1.8 2.2h-.3c-1.3.1-3 0-5.1-.1-1.2.3-1.8.7-1.8 1.1v.4l.9 1 1.8-.5 3.6-.2 1-.7c1 1 1.5 2 1.6 3-.8.1-1.5.9-2.1 2.6l-.6.4h-.5c-.5.1-.9-.5-1.1-1.7.1 1.2-.2 1.8-.7 1.8l.5.7c-.6 1.9-1.3 2.9-2.1 2.9l-.7.1.4 1.7.1.4h-.7c-.5.1-.7-.2-.8-.6l.3-1.8c-1.3 1.4-2.9 2.2-4.7 2.3l.1.7c.7-.1 1.1.2 1.2.6l1.4-.8c.8.4 1.5.6 2.2.6v.7c0 .3-.4.7-1.1 1.1l.4.7c-.7 1.2-1.1 2.3-1.2 3.2.3.5.4.8.4 1.1l-1.4 1.1c-.5 0-.7-.2-.8-.7l-.1-1.7-1.5-.3-2 2.9c.3 0 1.4.8 3.4 2.3l-1.9 5.3c-2.6 1.2-3.9 1.9-3.9 2.2v.4c.7-.1 1 .2 1.1.6 0 .5-.5.7-1.5.8l.1 1.4c.6.5 1.2 2.1 1.7 4.8.4 0 1.4-.9 3.2-2.6h.3l1.2.6h.4c2.8-.2 5.2-1 7.2-2.4.8.4 1.4.6 1.8.6.1-.5.3-.8.7-.8.3 0 .4.1.4.3 1.6-.8 2.7-1.2 3.2-1.2l1.5 1.3 2.2-1.5.7-.1v1.5l.5-.1c1.4-1.2 2.1-2.1 2-2.9-.2 0-.3-.1-.4-.3l.4-.1 1.9 1 1.8-.5c2.1-.1 3.2-.1 3.6-.2-.1-.7.2-1 .6-1.1l1.5 1.7h.4c3.8-.6 6.1-1.2 6.7-1.7l.3.6-.3.8.7-.1c0-.5.5-1.2 1.4-2.2l-.5-.7v-.3c.5-.9 1.1-1.4 1.8-1.5l-.4-.7c1.5-2.8 3.1-4.3 4.6-4.4l.7.3-.3.8c0 .4.3 1 .8 2-.4.3-1 .4-1.8.5l.1 1.7-.3 1.8 3.4 1.6h-.4c.6 1.4.9 2.3.9 2.8.1.6-.3 1.7-.9 3.2l.5 2.1h-.3l.4.7v.7c0 .5-.1 1-.3 1.4.3.4.4.7.4 1-3.6 1.8-5.4 2.7-5.6 2.7-.5-.2-.9-.3-1.2-.3l.1 1.8 1.9.2c.4 0 1.8-1.1 4.3-3.3h.7c1.1.4 1.8.8 1.9 1.3l-.9 1.8c1.1 0 1.8.3 1.9.9l.1 1.4c-.9 1.1-1.4 1.7-1.4 1.9l1.1 1.3c-.2.4-.3.9-.2 1.4h.8c-.1-.9.2-1.4.6-1.5h.3c1 .9 1.7 1.3 2.2 1.3v.7c.1.5-.2.7-.6.7l-.7.1-1.5-1h-.3v.7c1.8 1 2.6 1.8 2.6 2.3-.2.5-.3.8-.3 1.1.4 0 .9.4 1.5 1.3v.4c-.1.5-.6 1-1.7 1.5-.1-.5-.3-.7-.9-.7-.5.1-.7.4-.6.8v.3c3 1.9 4.7 3.1 5.3 3.6v.3c-1.8 1.5-2.9 2.2-3.2 2.2v.7l1.5-.1 1.2-.7h.3v.7h-.8l.1.4 1.5 1.3c-.4.1-.6.3-.6.7.7 0 1 .2 1.1.7l-3.2 1.9c.1.2-.1.3-.3.4h-.8l-2.2-.9-.3.7c.4 0 .7.3 1.2 1l-1.4 1.5.1.7c.7-.1 1 .5 1.1 1.7l.8-.1-.5-.7c1.7-1.1 2.6-1.8 2.6-2.2.8-.5 1.8-.8 2.8-.9h.8c.7.2 1.1.9 1.2 2-.6.6-1.8 1.2-3.6 1.9v.7c.2.5.4.7.9.7.9-.8 1.6-1.2 2.1-1.2 0 .2.1.3.4.3l-.3.7v.7c.8 0 1.2.2 1.2.7-.3.5-.4.8-.4 1 .4-.2 1-.3 1.8-.4l.5.7c-.4.9-.7 1.4-1 1.4l-1.2.1c-.6-.5-1-.7-1.4-.6-.5.3-.9.4-1.1.4-.1-.3-.2-.4-.4-.3-1.2.8-1.8 1.8-1.7 2.9 1.3 1.1 2.4 1.6 3.4 1.5.1-.7 1-1.1 2.8-1.2.4 0 .7.3 1.2 1v.4c.1.5-.3.7-1.1.7l.1 1.1c3 1.2 4.5 3.1 4.6 5.7l.8 1v.7h-.3c-.5 0-.7-.3-.8-1H139v.7l-.8.1-.4-1.8c-1.4.1-2.2.7-2.5 1.9.7 1.6 1.5 3 2.4 4.1-.3 0-1.2.3-2.9.9h-.3c-.3 0-1-.6-1.9-1.7l.3-1.7c-.4 0-.9-.2-1.5-.6h-1.1c-.4.1-2.4.6-6.2 1.7l.1 1.4c1.2 1 1.9 1.5 1.9 1.7-.8 1.7-2 2.5-3.5 2.6l.3-.7-.1-1h-.7c.1 1.2-.2 1.8-.7 1.8h-.3c-.5-.1-1-.6-1.5-1.6 2.1-.8 3.2-1.3 3.2-1.5-.6-1.4-1.1-2.1-1.5-2-.2 0-.9.7-2.1 2.2l-.7-.3c-.2.6-.7 1.2-1.7 1.8-.6-.5-.9-1.2-.9-2l-2.5.1c-.1-.8-1.3-2.3-3.9-4.7v-.7l.3-.8-2.6-8.2c-.9-1-1.7-1.6-2.3-1.7 0 .3-.1.4-.3.4-.3-.5-.4-.8-.4-1-.1-.8 1.1-1.7 3.5-2.6-.3-.7-.5-1-.9-1-.4.3-.7.4-1 .4l-.4-.7c0-.4.8-1.3 2.4-2.6v-.3c-.4-.9-.8-1.4-1.2-1.4 0 .5-.2.7-.7.8-.5-.6-.7-1-.8-1.4l-.7.4-1.5.1-.1-.7c1.7-1 2.6-1.6 2.6-1.9l-.1-.4-.5-.6c.3-.4.4-.9.4-1.5v-.7l-1.1.8-.4-.7c.2-.5.3-.8.3-1l-2.1 3.2-.3-.6-.2-3.2-.9-1c0-.6 1-1.1 2.9-1.5h.4v.7l1.2-.1c6.8-1.5 10.1-2.9 10.1-3.9l-.1-.4-.3.1c0 .5-.6 1-1.8 1.5-1 0-1.5-.6-1.5-1.7-6.4.8-10 1.6-10.5 2.2h-.4c-.4.1-1-1.1-1.6-3.4.9-1.4 1.4-2.4 1.3-2.9l-.7-.3c0 .3-.1.4-.4.4-.3-.5-.4-.8-.4-1-.1-.7.3-1.1 1.1-1.2v-.3H99v.4c-.4-.2-.9-.3-1.4-.3l-.1-.7c.1-.5.3-.7.7-.7h.3c.9.6 1.8.9 2.6.9l.4-.8-1.1.1v-.4l.3-.7-.7.1-.1-.7 1.9-.1v-.4c-2.2-.2-3.5-.2-4-.2l-.1-1.1c0-.5.5-.7 1.4-.7l-.4-.7c0-.3.1-.4.3-.4 0-.2-.1-.3-.3-.3l.2-2.5-.1-.4c0-.5-.2-.7-.7-.6l-1.1 1.5c.3-.1.5.1.5.3l-.8.4H96c-1.1-.9-2-1.3-2.6-1.2-1.3.3-2.3.4-2.9.5v-.4c-.4.1-1.1.7-2.1 1.9h-.3c-.3 0-.5-.1-.5-.3l-1.4.8c-2-.3-3-1-3-2.3.2 0 .3-.1.3-.4l-.7-.3c-.9 1.8-1.3 3.2-1.3 4.3l1.5.6c-.4 1.5-1 2.3-1.7 2.6l-2.6-1.3-.1-.3.7-1.1c-.1-.5-.3-.7-.8-.7.1.4-.3.7-1.1 1.1-2.2-.3-3.3-1.3-3.4-2.9-.1-1.5-.4-2.3-1.2-2.4H72v.4c.1.4.4 1 .9 2-.3 2.4-.7 3.6-1.3 3.6h-.4c-.1-.9-.6-1.4-1.5-1.3v-1c.6-1.1.9-1.9.9-2.5l-2.2-1c-.4.1-.9.7-1.7 1.9-1-.3-1.5-.6-1.5-1-.8.3-1.2.4-1.4.4l-2.2-.2c0 .3-.1.4-.4.4-.1-.5-.3-.7-.7-.7-.5 1-1.2 1.5-2.2 1.5l.1.3.7 1c.2 2.9-2.1 5.7-6.8 8.4-.5-.2-1-.3-1.5-.3v.4c.3.4.4.7.4 1l1.1-.7.7-.1c.4 0 .7.3 1.2 1-1.1 1.9-2 2.9-2.8 2.9l.1 1.7h.8v.3c.1.4-.3.7-1.1 1.1l-.7-.3c.1.7-.4 1.1-1.4 1.2l.1 2.1c-1.4 1.2-2.1 2.1-2 2.6.2-.1.5 0 1 .2-.2.5-.3.8-.3 1.1l-.7-.3c.2 2.7-1.2 4.8-4 6.5l.4.6c.1 1.1-2.2 4.9-6.8 11.3l-3.6-.2c0 .5-.2.7-.7.8l-1.8.1c-.9-.3-3.3-1.5-7.3-3.6-1 .1-2.8-1.2-5.3-3.6-1.7.1-3.1-.6-4.4-2.2l5.3-12.9c-.3-.4-.4-.7-.4-1 .6-.1 1.4-1.6 2.3-4.6l1-.1.8.3c-.2-3.9 1-5.9 3.4-6 0-.3.1-.6.3-1.1l-.5-2.1-.1-.7c.3-1 2.4-2 6.5-3.1h.3l-.1-1.7h-.7c.1.9-.2 1.4-.7 1.4l-.7.1c-.4 0-.9-.4-1.5-1.3l1.1-.8.8.3.3-.7-.8-1v-.4c1-1.7 2.5-2.9 4.5-3.6l1.5-.1.1.7c-1 .1-1.5.3-1.5.8l1.1-.1 2.6-.9-.1-1.4-.4.1c-.4.3-.8.4-1.1.4-.1-.6-.7-.9-1.9-1-.5.3-.8.4-1 .4l-.4-.6c1.4-2.7 2.8-4.4 4.1-5.1l-.5-1.7c.5-1.9.9-2.9 1.2-2.9s.9 1 1.6 3.1c-.2.5-.3.8-.3 1 .3.5.4.8.5 1.1.5-.1.7-.4.7-1.1-.3-.5-.5-.8-.5-1.1.4-.3.9-.4 1.5-.4l-.1-.7c-2-1.8-3-2.8-3.1-3 1.7-.8 2.5-1.9 2.5-3.2-.3-.4-.5-.7-.5-1 .5-1.7 1-2.5 1.3-2.6.1.4.4.7 1.2 1h.7c-.1-.7.5-1 1.8-1.1-.1-.4-.4-.7-1.2-1v.7h-.3c-.5 0-.7-.2-.8-.7 0-.5.3-.7 1-.7v-.4l-1 .1-.1-.7c2.1-1.1 3.1-3.3 2.9-6.4.4-2.4.9-3.6 1.6-3.6.3-.1.4.1.4.3l.8-.4.7.3c.4-.6.6-1.4.5-2.5h.8c.5-.1.7.3.8 1h.4c.5-.7 1.6-1.1 3.2-1.2.6.7 1.2 1 1.9 1 .5-.3.9-.4 1.2-.4l-.5-.7.3-2.1c-1.1.3-2.1.8-2.9 1.5-.8-.4-1.4-.6-1.9-.6l-2.2.5c-.3-.4-.4-.9-.4-1.4l-1.1.8h-.4l-.1-1.7c.5-.1 1.1-1.5 2-4.3h.7c.4 1.4.9 2.7 1.6 3.8l1.8-.9c-.5-.7-.8-1.4-.8-2l-.2-3.5-.5-1.7c.5-.1.8-.3.8-.8-.5 0-.8-.2-.9-.7v-.3l.4-1.8h.7c-.2.5-.3.8-.3 1.1v.3h.4l.2-1.8c0-.2-.2-.9-.5-2.1.4 0 1.1-.5 2.1-1.5l.8 1c1.1-.5 1.7-1 1.8-1.5-1.3.1-2.3-.5-2.9-1.6.4-.6.6-1 .6-1.4l1.1-.1.1.7 1.4-.1-.1-1-1.1-1.4c.9-.7 2-1.1 3.2-1.2h.7c-.1-.5.7-1.3 2.4-2.2.1-.5.3-.7.7-.7.5.1.7.3.8.6v1.1l1.2.6h.4c.4 0 .8-.5 1.4-1.5v-.7l-1.9-.2-.1-.7c0-.5.5-.7 1.4-.8l-1.5-1.3c0-.3.1-.4.4-.4l-.4-.7.3-2.1-.9-1v-.7l.3-.8c-.5.1-.7-.2-.8-.6.3-.9.6-1.4 1-1.5l-.4-1.7.2-1.5 2.7-3.2zM20.8 368.6l.7-.1-.1-.7c-.5.1-.7.4-.6.8zm.8-2.1c.2 1.4.6 2.1 1.2 2h.4c3.9-1.1 5.9-1.9 5.9-2.2-3.6.3-6.1.4-7.5.2zm.2 3.5l.2 2.1c2.6-.3 4.3-.2 5 .2h.3v-.3c-3.4-.8-5-1.4-5-2h-.5zm2.7-7.5v1.4h.4l-.1-1.4h-.3zm1.1-6.4v.7c.5-.1.8.1.8.3.9-.5 1.8-.8 2.9-.9 1 .9 2 1.4 3 1.3-.1-.4.3-1 .9-1.9l-.4-.6c.5-1 .7-1.7.6-2.2l-2.2.1c-1.6 1.8-3.5 2.9-5.6 3.2zm1 6.6v.4l.7-.1v-.3h-.7zm7.4-5.9l-.4.7v.3l4.6-.4v-.4c-.1-.4-1.5-.5-4.2-.2zm2.6-22.2c.1 1.5-.7 3-2.3 4.3l.1.7h.3c.5-.3.9-.4 1.2-.4l.3.7.7-.4 1.2.6c.5-.7.8-1.5.9-2.5-1.1-2-1.8-3-2.4-3zm-1.9 11.6v.7c.5 1.2 1.3 1.8 2.6 1.7.1-.5.3-.8.7-.8l.1.7 5.3-.5c.5 0 .7-.2.6-.7v-.3c-5-.2-7.5-.5-7.5-.9v-.3l-1.8.4zm4.7-14.1v.7l.4-.1c1.9-.8 3-1.2 3.2-1.2l-.1-1.4c-.5 0-.7-.1-.7-.3-1.8 1-2.7 1.7-2.8 2.3zm.9 4.5v.7c.3-.1.6.1 1.2.3 3.7-.9 5.5-1.5 5.5-1.9v-.3l-4.2.4-2.5.8zm3.9-17.7v.7l.4-.1c.5 0 .7-.2.7-.7l-1.1.1zm.2 4.9c.2 1.4.6 2.1 1.2 2h.4c3.9-1.1 5.9-1.9 5.9-2.2-3.7.3-6.2.3-7.5.2zm.2 3.5l.1 2.1c2.6-.3 4.3-.2 5 .2h.3v-.4c-3.2-.7-4.9-1.4-5-1.9h-.4zm.2-16.8l.1.7h.4v-.7h-.5zm4.7 24.4l-1.8-.3c0 .5-.1 1-.3 1.5.5.7.8 1.3.8 1.7l2.6-.5 1.1-.1c.2 0 .3.1.4.3 1.7-.5 2.5-1 2.5-1.5-.1-1.1-.5-2.1-1.2-2.8-1.6 1.1-2.9 1.6-4.1 1.7zM47.8 303h1.5v-.7h-.8c-.5.1-.7.3-.7.7zm.4 2.1v.4c.1.5.4.7.9.6.5 0 .7-.2.6-.7v-.7c-.4.2-.9.4-1.5.4zm.2 38.2l.1.7c.5-.1.7-.3.7-.8l-.8.1zm.5-25.7c.4 0 2 .1 4.9.3l.4-.1c0-.2-1-.7-3.1-1.7l-.8.1c-.4 0-.9.5-1.4 1.4zm4.8-11c.1 1-1.5 2.6-4.8 4.7v.4l.4.6c.5-.2.8-.3 1.1-.4l.8.3c1.2-.1 1.9-.8 2-2.2h.7c.6.1.9.3.9.6-.3.1-.4.2-.3.4 3 .2 4.8.2 5.2.2v-.4c-2.3-.4-4-1.8-5.1-4.4l-.9.2zm7.3 9.9l-1.5-.6c-1.2.7-1.8 1.2-1.7 1.5.1 1.4-.7 2.6-2.4 3.6.5.2.9.3 1.2.3v.7l-2.6.5c0-.5-.2-.7-.7-.6-.5 0-.7.4-.7 1.1.3.7.5 1 .8 1 .4-.3.8-.4 1.1-.5.1.5-.3.7-1.1.8l.1 1.4c.5 0 1.6-.7 3.6-2.2l-.4-.7-.1-.7c1.3 2.1 2.5 3.1 3.4 3v-.4c-.1-.8.2-1.5.6-2.1 0-.5-1-1.1-3-1.6v-1c1.9-1.4 2.8-2.3 2.8-2.6l.7-.4h.7c.5.1.8.3.8.7l-.3.7c1 .4 1.7.6 2.2.6.4-.6 1-1.8 1.6-3.6l-.3.1c-.5.3-.9.4-1.2.4-.8-.7-1.2-1.3-1.2-1.7H63c-.4-.2-1.1.6-2 2.3zm-8 22.4c.1.5 0 1-.2 1.4.5 1 1 1.6 1.5 1.7 0-.2.1-1.1.3-2.8l-.9-.3H53zm0-48.4h.7v1.1c-.5 0-.7-.2-.7-.7v-.4zm1.7 37.5l-.4.7 2.6.6v-.4c-.3-.7-1.1-1-2.2-.9zm1.2-22.2v.4l2.9-.2 3.6 2.4h.7c0-.7.4-1.1 1.1-1.1l-.8-1c.3-.5.4-.8.4-1.1-2.6-.2-3.9-.4-3.9-.6.4-.1.7-.4 1.1-1.2l-.1-.3c0-.4-.4-.7-1.2-1l-1 .1-2.8 3.6zm.7-23.5l.1.7c0 .4.4.7 1.1 1v-.3l-.5-2.1c-.5.1-.7.4-.7.7zm.9 11.5c0 .3.4.6 1.2 1 .5-.1.7-.3.7-.8-.5.1-.7-.3-.8-1l-.4.1c-.4.1-.7.3-.7.7zm.9-3.1l.4.7c-.2.5-.3.8-.2 1h1c-.1-.6.2-1.2.7-1.8l-.8-.3h-.4l-.7.4zm.4-7.4c1.1 2 2.7 3 4.8 2.9.4-2.3.6-3.7.6-4.3-.5.1-.8-.2-.9-.6-1.2.8-2.8 1.5-4.5 2zm2 60.8c.5.1.7.3.8.6v.4c0 .5-.6.9-1.8 1.1l-.4-.6c.1-.4.5-.9 1.4-1.5zm11-51.8c0 .3-.5.7-1.4 1.1l-5.6.2h-.4l-1.8 1.2.4.6.1.4-.7 1.1.5 1.7 4.9-.5-.1-1.7c.1-.7 1.1-1.1 2.9-1.2l.3-.1.1 1.4c.8-.7 1.4-1.1 1.8-1.1-.1-.5-.3-.7-.8-.7l.6-2.1-.8-.3zm-9.2 19.3l1.1-.1 3.2-2.2-.7.1c-.5.3-.9.4-1.1.4-.3-.4-.4-.9-.5-1.4h-.3c-.7 0-1.3 1.1-1.7 3.2zm.6-20.8v.3h.8V290c-.6.2-.8.4-.8.8zm7.2-16.4c.1.5-.2.7-.6.7l-.8-.3c-1.2.3-2.1.9-2.8 1.9l-.8.1-1.1-.7c.1 1.2-.3 1.8-1.1 1.8l.5 1.8.1 1.4 1.4-.1c.1-2.1.3-3.4.5-3.9 1.2.3 1.9 1 1.9 2h-.4l-.8-.3.1.4c1 1 1.5 1.5 1.5 1.6-.5.1-1.3 1.1-2.4 3.2l-.4.1v.3h.8l2.5-.9c.1.5.4.7.8.7h.4c-.6-.8-.9-1.4-.9-1.8.4 0 .7-.8 1-2.5l-1.5-1.6 2.8-1.9c.5.1.8.3.8.7-.2 0-.3.1-.3.4.5.1.7.3.7.6 1.4-.8 2.3-1.2 2.5-1.2l-.1-1c0-.4-.4-.7-1.1-1l-1.1.8h-.3l-1.8-1.3zm-5.3-11.7c.6 1.9 1.2 3.1 1.6 3.8v.3l-.3.1-1.5-1c.1 1.7-.1 2.5-.5 2.5-.5 0-.8-.2-.9-.7 0-.2.2-.3.5-.3l-.5-.7c.7-.9 1-1.7 1-2.2-.3-.4-.4-.7-.4-1l1-.8zm-1.3 58.9l.1 1.1c.5-.1.7-.3.6-.8v-.3h-.7zm1.7-35.4v.3c.2.5.4.7.8.7l.4-.8-.8-.3-.4.1zm1.6 29.3v.4l1.8-.5c0-.5-.2-.7-.7-.6h-.4c-.5.1-.7.4-.7.7zm.5-6.3c.3 0 .6.1 1.1.3l.3-.8-.1-1c-.4.1-.8.6-1.3 1.5zm.4-6.6l.1 1.7c1.9.3 2.9 1 2.9 2l.5-.1c.5 0 .7-.2.6-.7l-.1-2.1-1.8.5h-.4l-.1-1.8-1.7.5zm4.5-46.1l-.3 1.5h-.3l-.9-.3.1.7c.3.4.5.7.5 1h.7c.5-.1.7-.3.7-.8l-.2-2.1h-.3zm-1-4.5h.7v.7h-.6l-.1-.7zm.3 29c0 .3.5.6 1.5.9v-1l-1.5.1zm.6-17.9l.1.7h.3v-.7h-.4zm.8.7v.7l.7-.1v-.7l-.7.1zm.5-12.3h1c.1.5-.2.7-.6.7h-.4v-.7zm.7 41.7c.5.5.8 1.2.9 2h.4c.3 0 .9-.6 1.7-1.8-.2-1.7-.5-2.5-.9-2.5-.8.3-1.5 1.1-2.1 2.3zm5 44.1l.1 1.1c.3-.1.6-.4 1-1.1h-1.1zm3.7-59.9c0 .2-.7.9-2.1 2.2.1.5.3.7.7.7.6-.1 1.3-.8 2.1-2.2 0-.4-.2-.7-.7-.7zm-.8 58.8h.8l-.1-.7c-.5 0-.8.3-.7.7zm4.2-10.3l-2 2.5v.4h.3c.8-.3 1.7-1 2.8-2.2l-1.1-.7zm3.1-20.4h.3c.5.1.8.3.8.6-.5.6-.7 1.2-.7 1.8l-.7.1c-.4 0-.6-.2-.7-.7.2-1.3.5-1.8 1-1.8zm2-24.6l-1.8.1-.2 3.5 1.8-.1c-.1-1.1.6-1.9 2.1-2.2v-.4c-.7.1-1.1-.4-1.2-1.3l-.7.4zm-.3 59.8c.6 0 1 .6 1.2 1.7l-1.1.8H91l-1.2-.7c.5-1.1.9-1.7 1.5-1.8zm-.5-82.1v.3c0 .6.6.9 1.9 1 0-.3.1-.4.3-.4-.3-.4-.4-.7-.4-1l-1.8.1zM94 272h.7l3.2-1.2v-.3c-2.6.3-3.9.9-3.9 1.5zm0-13.2l.1.7.3-.1v-.7l-.4.1zm2.8 29.6l.4.6c1.2-.3 1.8-.7 1.7-1.1l-.7-.3c-.5.4-1 .7-1.4.8zm.8 8.3v.3h.4l1.8-.5v-1c-1.5.4-2.2.7-2.2 1.2zm1.1.6v.3h.7v-.3h-.7zm1.7-9.5c.1.9-.3 1.8-1 2.5.5 0 .8.1.9.3 1.9-.1 3.4-.9 4.6-2.6h-.7l-1.1.8h-.4l-1.5-.9h-.8zm-.1-2.5l.7.4.5-.1c.2 0 1.1-1.2 2.7-3.6l-.4-.7c-2.4 1-3.6 2.3-3.5 4zm1.9 9.4v1.4l-.3.1v.3c.4 0 1.4.2 2.9.5 1.7-.5 2.5-1.4 2.5-2.6l-.8.1-1.1.7-.8.1v-.7l-2.4.1zm.9 23.4c.5.1.8.3.8.6l-.6.4c-.5.1-.8-.2-.9-.6l.7-.4zm3.2-36.9c0-.2-.1-.3-.4-.3l.1.7.4.7.8-.4h.7v1h.7l-.1-2.5c-1 .6-1.7.8-2.2.8zm-.3 24.6c0 .3.4.6 1.2.9h.7v-.3c-.1-.5-.3-.7-.8-.7l-1.1.1zm2 17.7v.3c.5 0 .7.5.8 1.4l2.6-.2c0-.9.3-1.4 1-1.4v-.4l-1.8.5h-.4c-.5 0-.7-.2-.7-.7-.5.3-1 .4-1.5.5zm1.1 54.1v.3h.7v-.4l-.7.1zm3.2-31.3l-1.9-.2-1.2 2.2v.3h1l2.2-1.2c.1.9.9 1.5 2.6 1.6l.1.7.7-.1c-.1-1.3.6-2.2 2-2.5l1.5.2 1.8-1.1c.4.2.9.3 1.5.2l.3-.7v-1h-.4l-1.1.8c-.6 0-1.3-.2-2.2-.6 0 .3-.1.6-.3 1l-.8-.3-1 .8-1.2.1v-.4l.7-1.1c-1.5.1-2.2 0-2.2-.2-.2 0-.9.5-2.1 1.5zm-2.3-49.1c0 .6-.2 1.2-.6 1.8 0 .4.9.7 2.6.9-.1-.5.4-.7 1.4-.8 0-.6-.3-1.3-.9-2-.2 0-.3.1-.3.3l-1.9-.2h-.3zm.1 33.5l.8.3h.3c.6-.5 1.1-.7 1.5-.8l-.2-1.4-.3.1c-1 .4-1.7 1-2.1 1.8zm2.4-41.7c.4-.1.8.4 1.2 1.3l-.7.4-1.1.1c0-.3-.1-.6-.4-1.1l1-.7zm.9 63.2h.7l-.1-.7c-.5.1-.7.3-.6.7zm1.8-30.1v-.3c-1.2.2-1.8 1-1.7 2.5h.3l1.9-.5c.7 1.6 1.2 2.4 1.5 2.4h.4c-.1-.5.5-1.4 1.6-2.9v-.4c-.7-1.1-1.2-1.6-1.5-1.6l-2.5.8zm-1.7 18.6v.4c.1.5.3.7.7.6h1.2c-.1-.4.2-.9.6-1.5-.3.1-.4-.1-.4-.3-.7.5-1.4.8-2.1.8zm1.4 5.1l.1 1.1c-.5 0-.8-.2-.8-.7l.7-.4zm3.3 9.7c.1.8-.6 1.3-2.1 1.5v.7c1.9.2 3.1.3 3.7.5l1.8-1.2.8.3c.2 0 .3-.1.3-.3l1.9.2 1.5-.1-.1-.7c0-.6-.5-.9-1.5-.9-.5.3-.9.4-1.2.4 0-.5-.2-.7-.7-.7 0 .4-.4.7-1.1 1.1l-.3.1c-.6-.3-1.6-.6-3-.9zm-1.8 14.7h.7v-.7c-.5.1-.7.4-.7.7zm.9 20v.7l.7-.1v-.7l-.7.1zm1.6-37.2c0 .7-.4 1-1.1 1.1 0 .3.4.6 1.2 1h.3c.5-.1.7-.3.7-.8v-.3c-.1-.3-.4-.6-1.1-1zm-.4 14.7c.1.7-.2 1.5-.7 2.5l1.5.6c-.1-.7.1-1.1.3-1.1-.4-1.3-.7-2-1.1-2zm.8-3.5l.1.7c.1.5.4.7.8.7.7-.8 1.3-1.2 1.7-1.2-.3-1.1-.6-1.7-.8-1.7-1.1.5-1.7 1-1.8 1.5zm.4 6.9l.1 1.1.8-.1v-.3c-.1-.4-.4-.7-.9-.7zm.3-53.4h.4v.7h-.4v-.7zm4.7 58.1v.4h.7v-.4h-.7zm6.4-1.6l.4-.1.1.7-.5.1v-.7zm8.4 13.9c1.4.6 2.2 1 2.2 1.3v.7c.1.5-.3.7-1.1.7l-2.6-.5v-.4c.7-1.2 1.2-1.8 1.5-1.8z"/><path class="st1" d="M22.2 370c0 .6 1.7 1.2 5 2v.3h-.3c-.7-.4-2.3-.5-5-.2l-.2-2.1h.5zM29.1 366.3c0 .4-2 1.1-5.9 2.2h-.4c-.6.1-1-.6-1.2-2 1.4.2 3.9.1 7.5-.2zM118 390.1v.7l-.7.1v-.7zM138.1 389.9v.4l2.6.5c.8 0 1.1-.2 1.1-.7v-.7c-.1-.3-.8-.7-2.2-1.3-.4 0-.9.6-1.5 1.8zM109.8 377.6v.4h-.7v-.4zM124.7 375.8h.7v.4h-.7zM131.1 374.9l.5-.1-.1-.7-.4.1zM120.5 371.8v.3l-.8.1-.1-1.1c.6 0 .9.3.9.7zM117.1 369.5v.7h-.7c0-.3.2-.6.7-.7zM119.7 369.8c-.3 0-.4.4-.3 1.1l-1.5-.6c.5-1 .7-1.8.7-2.5.3-.1.6.6 1.1 2zM121.1 362.7c.2 0 .5.6.8 1.7-.4 0-1 .4-1.7 1.2-.4 0-.7-.2-.8-.7l-.1-.7c.1-.5.7-1 1.8-1.5zM21.4 367.8l.1.7-.7.1c-.1-.4.1-.7.6-.8zM121.2 356.4l.3-.1c.7-.4 1.1-.7 1.1-1.1.5 0 .7.2.7.7.3 0 .6-.1 1.2-.4 1 .1 1.5.4 1.5.9l.1.7-1.5.1-1.9-.2c0 .2-.1.3-.3.3l-.8-.3-1.8 1.2c-.6-.2-1.8-.4-3.7-.5v-.7c1.5-.2 2.2-.7 2.1-1.5 1.4.3 2.4.6 3 .9zM120 354v.3c0 .5-.2.7-.7.8h-.3c-.8-.4-1.2-.7-1.2-1 .7-.1 1.1-.4 1.1-1.1.7.4 1 .7 1.1 1zM27.3 362.7v.3l-.7.1v-.4zM24.8 362.5l.1 1.4h-.4v-1.4zM114 351.5l.1.7h-.7c-.1-.4.1-.6.6-.7zM38.2 357.1v.4l-4.6.4v-.3l.4-.7c2.7-.4 4.1-.3 4.2.2zM114.2 346.2c0 .5.3.7.8.7l-.1-1.1-.7.4z"/><path class="st1" d="M114.4 344.8c0 .2.7.3 2.2.2l-.7 1.1v.4l1.2-.1 1-.8.8.3c.2-.4.3-.7.3-1 .8.4 1.5.6 2.2.6l1.1-.8h.4v1l-.3.7c-.6.1-1.1 0-1.5-.2l-1.8 1.1-1.5-.2c-1.4.3-2.1 1.1-2 2.5l-.7.1-.1-.7c-1.7-.2-2.6-.7-2.6-1.6l-2.2 1.2h-1v-.3l1.2-2.2 1.9.2c1.2-1 1.9-1.5 2.1-1.5zM31.2 353l2.2-.1c0 .5-.2 1.2-.6 2.2l.4.6c-.7.8-1 1.4-.9 1.9-1 .1-2-.4-3-1.3-1 .1-2 .3-2.9.9 0-.3-.3-.4-.8-.3v-.7c2.1-.4 4-1.5 5.6-3.2zM59.5 345.6l.4.6c1.2-.2 1.8-.6 1.8-1.1v-.4c-.1-.4-.3-.6-.8-.6-1 .6-1.4 1.1-1.4 1.5zM115.6 339.9c0 .3.1.4.4.3-.5.6-.7 1.1-.6 1.5h-1.2c-.4.1-.6-.2-.7-.6v-.4c.7 0 1.4-.3 2.1-.8zM49.2 343.2c.1.5-.2.7-.7.8l-.1-.7.8-.1zM89.9 342.4l1.2.7h.3l1.1-.8c-.2-1.1-.6-1.7-1.2-1.7-.6.2-1 .8-1.4 1.8zM36.5 345.8v.3c0 .4 2.6.6 7.5.9v.4c.1.5-.2.7-.6.7l-5.3.5-.1-.7c-.4 0-.6.3-.7.8-1.3.1-2.2-.5-2.6-1.7v-.7l1.8-.5zM53.7 338.9l.9.3c-.2 1.7-.3 2.6-.3 2.8-.5-.1-1-.7-1.5-1.7.2-.4.3-.9.2-1.4h.7zM80.5 337.3c-.4.7-.7 1-1 1.1l-.1-1.1h1.1zM83 335.5l.1.7h-.8c-.1-.4.2-.7.7-.7zM42.8 335.7l4.2-.4v.3c0 .4-1.8 1.1-5.5 1.9-.5-.3-.9-.4-1.2-.3v-.7l2.5-.8zM38.9 337.6c-.2.9-.5 1.8-.9 2.5l-1.2-.6-.7.4-.3-.7c-.3 0-.7.1-1.2.4h-.3l-.1-.7c1.7-1.3 2.4-2.7 2.3-4.3.7 0 1.4 1 2.4 3zM53.4 333.2c.8.7 1.2 1.7 1.2 2.8.1.5-.8 1-2.5 1.5-.1-.2-.2-.3-.4-.3l-1.1.1-2.6.5c0-.4-.3-1-.8-1.7.2-.5.3-1 .3-1.5l1.8.3c1.4-.1 2.7-.6 4.1-1.7zM112.2 328.9l.3-.1.2 1.4c-.4.1-.9.3-1.5.8h-.3l-.8-.3c.4-.8 1.1-1.4 2.1-1.8zM42.2 329.8c0 .2.2.3.7.3l.1 1.4c-.2 0-1.3.4-3.2 1.2l-.4.1v-.7c.1-.6 1-1.3 2.8-2.3zM56.9 328.9v.4l-2.6-.6.4-.7c1.1-.1 1.9.2 2.2.9zM87.6 326.5c-1.1 1.2-2 2-2.8 2.2h-.3v-.4l2-2.5 1.1.7zM44.9 327.3c.1.6 1.8 1.2 5 1.9v.4h-.3c-.7-.5-2.3-.5-5-.2l-.1-2.1h.4zM109.4 323c0 .5.2.7.7.7h.4l1.8-.5v.4c-.7 0-1 .5-1 1.4l-2.6.2c-.1-.9-.3-1.4-.8-1.4v-.3c.6-.1 1.1-.2 1.5-.5zM117.6 321.3c.3 0 .8.5 1.5 1.6v.4c-1.1 1.4-1.7 2.4-1.6 2.9h-.4c-.4 0-.9-.8-1.5-2.4l-1.9.5h-.3c-.1-1.4.5-2.3 1.7-2.5v.3l2.5-.8zM51.9 323.6c0 .4-2 1.1-5.9 2.2h-.4c-.6.1-1-.6-1.2-2 1.3.1 3.8.1 7.5-.2zM64.5 321.6v.3c.1.5-.2.7-.6.8l-.1-1.1h.7zM120 317.7h.4v.7h-.4zM102.4 318.5c.1.5.3.7.9.6l.6-.4c0-.4-.3-.6-.8-.6l-.7.4zM45.3 318.8c.1.5-.2.7-.7.7l-.4.1v-.7l1.1-.1zM50.2 316.2l.8-.1c2.1 1 3.1 1.5 3.1 1.7l-.4.1c-2.9-.2-4.5-.3-4.9-.3.6-.9 1.1-1.4 1.4-1.4zM67.8 314.8h.4c.5-.1.7.2.7.6l-1.8.5v-.4c0-.3.2-.6.7-.7zM63 314h.4c0 .4.4 1 1.2 1.7.3 0 .6-.1 1.2-.4l.3-.1c-.7 1.8-1.2 3-1.6 3.6-.5 0-1.3-.2-2.2-.6l.3-.7c0-.4-.3-.6-.8-.7H61l-.7.4c0 .4-.9 1.2-2.8 2.6v1c2 .6 3 1.1 3 1.6-.5.6-.7 1.3-.6 2.1v.4c-.9.1-2.1-1-3.4-3l.1.7.4.7c-1.9 1.5-3.1 2.2-3.6 2.2l-.1-1.4c.8-.1 1.1-.3 1.1-.8-.3.1-.7.2-1.1.5-.3 0-.5-.3-.8-1 0-.7.2-1.1.7-1.1.5-.1.7.2.7.6l2.6-.5v-.7c-.3 0-.7-.1-1.2-.3 1.7-.9 2.5-2.1 2.4-3.6-.1-.3.5-.8 1.7-1.5l1.5.6c1-1.5 1.7-2.3 2.1-2.3zM45.3 310.5v.7h-.4l-.1-.7zM64.3 308.3h.3c.1.5.2 1 .5 1.4.2 0 .6-.1 1.1-.4l.7-.1-3.2 2.2-1.1.1c.4-2 1-3.1 1.7-3.2zM107.1 305.7c.5 0 .7.2.8.7v.3h-.7c-.8-.3-1.2-.6-1.2-.9l1.1-.1zM68.9 307.8l.1 1-.3.8c-.5-.2-.8-.3-1.1-.3.5-1 .9-1.5 1.3-1.5zM88.5 307.2c.1.5.3.7.7.7l.7-.1c0-.6.2-1.2.7-1.8 0-.4-.3-.6-.8-.6h-.3c-.4.1-.7.6-1 1.8zM54.5 306.5c1.1 2.6 2.8 4.1 5.1 4.4v.4c-.4 0-2.1-.1-5.2-.2-.1-.2 0-.3.3-.4 0-.4-.3-.6-.9-.6h-.7c-.1 1.4-.8 2.1-2 2.2l-.8-.3c-.3.1-.6.2-1.1.4l-.4-.6v-.4c3.2-2.2 4.8-3.7 4.8-4.7l.9-.2zM49.7 304.7v.7c.1.5-.2.7-.6.7-.5.1-.7-.2-.9-.6v-.4c.6 0 1.1-.2 1.5-.4zM69.7 302.1l.1 1.8h.4l1.8-.5.1 2.1c.1.5-.2.7-.6.7l-.5.1c-.1-1-1-1.7-2.9-2l-.1-1.7 1.7-.5zM58.7 302.2l1-.1c.8.3 1.2.6 1.2 1l.1.3c-.4.7-.7 1.1-1.1 1.2 0 .2 1.3.4 3.9.6 0 .3-.1.6-.4 1.1l.8 1c-.7 0-1.1.4-1.1 1.1h-.7l-3.6-2.4-2.9.2v-.4l2.8-3.6zM48.5 302.3h.8v.7h-1.5c0-.4.2-.6.7-.7zM110.3 297.2l1.9.2c0-.2.1-.3.3-.3.6.7.9 1.4.9 2-1 .1-1.4.3-1.4.8-1.7-.3-2.6-.6-2.6-.9.4-.6.6-1.2.6-1.8h.3zM98.7 297.3h.7v.3h-.7zM99.8 295.5v1l-1.8.5h-.4v-.3c0-.5.7-.8 2.2-1.2zM104.7 294.6v.7l.8-.1 1.1-.7.8-.1c.1 1.2-.8 2-2.5 2.6-1.5-.4-2.5-.5-2.9-.5v-.3l.3-.1v-1.4l2.4-.1zM72.5 292.6l-.6 2.1c.5 0 .7.2.8.7-.4 0-1 .4-1.8 1.1l-.1-1.4-.3.1c-1.8.1-2.8.4-2.9 1.2l.1 1.7-4.9.5-.5-1.7.7-1.1-.1-.4-.4-.6 1.8-1.2h.4l5.6-.2c.9-.4 1.4-.8 1.4-1.1l.8.3zM58.2 293.2l.4-.1c.1.7.3 1.1.8 1 0 .5-.2.7-.7.8-.8-.4-1.2-.7-1.2-1 0-.5.3-.7.7-.7zM111.5 289.7c.3.5.4.8.4 1.1l1.1-.1.7-.4c-.4-.9-.7-1.4-1.2-1.3l-1 .7zM76.5 291c.4 0 .6.8.9 2.5-.8 1.2-1.4 1.8-1.7 1.8h-.4c-.1-.8-.3-1.5-.9-2 .6-1.3 1.3-2.1 2.1-2.3zM53 290.9c0 .5.2.7.7.7v-1.1H53v.4zM101.1 287.8l1.5.9h.4l1.1-.8h.7c-1.1 1.7-2.7 2.6-4.6 2.6-.1-.2-.3-.3-.9-.3.7-.7 1.1-1.5 1-2.5h.8zM63.9 290.1v1.1h-.8v-.3c.1-.5.3-.7.8-.8zM59.1 290.3h.4l.8.3c-.5.6-.7 1.2-.7 1.8h-1c-.1-.2 0-.5.2-1l-.4-.7.7-.4zM98.2 287.6l.7.3c.1.4-.5.8-1.7 1.1l-.4-.6c.4-.1.9-.4 1.4-.8zM65.9 286.1l.8.3-.4.8c-.4 0-.6-.2-.8-.7v-.3l.4-.1zM103.8 281.4l.4.7c-1.6 2.4-2.5 3.6-2.7 3.6l-.5.1-.7-.4c-.1-1.8 1.1-3.1 3.5-4zM108.4 280.5l.1 2.5h-.7v-1h-.7l-.8.4-.4-.7-.1-.7c.3 0 .4.1.4.3.6-.1 1.3-.3 2.2-.8zM92.3 280.5c.1.9.4 1.4 1.2 1.3v.4c-1.4.3-2.1 1-2.1 2.2l-1.8.1.2-3.5 1.8-.1.7-.4zM73.3 280.9v1c-1-.3-1.5-.6-1.5-.9l1.5-.1zM63.4 281.4c.1.5.3.7.9.6 0 .6-.2 2-.6 4.3-2.1.1-3.7-.9-4.8-2.9 1.6-.6 3.2-1.3 4.5-2zM57.3 281.6l.5 2.1v.3c-.7-.3-1.1-.6-1.1-1l-.1-.7c0-.3.2-.6.7-.7zM83.8 278.1c-.8 1.4-1.5 2.1-2.1 2.2-.4 0-.6-.2-.7-.7 1.4-1.2 2.1-2 2.1-2.2.5 0 .7.3.7.7z"/><path class="st1" d="M72.3 275.7h.3l1.1-.8c.7.3 1.1.6 1.1 1l.1 1c-.2 0-1 .4-2.5 1.2 0-.4-.2-.6-.7-.6 0-.3.1-.4.3-.4 0-.4-.3-.6-.8-.7l-2.8 1.9L70 280c-.3 1.7-.6 2.5-1 2.5 0 .4.3 1 .9 1.8h-.4c-.4 0-.7-.2-.8-.7l-2.5.9h-.8v-.3l.4-.1c1.1-2.1 1.9-3.2 2.4-3.2 0-.1-.5-.6-1.5-1.6l-.1-.4.8.3h.4c-.1-1-.7-1.7-1.9-2-.3.5-.4 1.8-.5 3.9l-1.4.1-.1-1.4-.5-1.8c.8 0 1.1-.6 1.1-1.8l1.1.7.8-.1c.7-1 1.6-1.6 2.8-1.9l.8.3c.5 0 .7-.2.6-.7l1.7 1.2zM97.9 270.5v.3l-3.2 1.2H94c0-.6 1.3-1.2 3.9-1.5zM73.9 263.7v.7l-.7.1v-.7zM72.8 263.1v.7h-.3l-.1-.7zM64.1 263.5c0 .3.1.6.4 1 0 .5-.3 1.2-1 2.2l.5.7c-.3 0-.5.1-.5.3.1.5.3.7.9.7.5 0 .6-.8.5-2.5l1.5 1 .3-.1v-.3c-.5-.7-1-1.9-1.6-3.8l-1 .8zM94.4 258.7v.7l-.3.1-.1-.7zM92.6 258.5c0 .3.1.6.4 1-.2 0-.3.1-.3.4-1.2-.1-1.9-.4-1.9-1v-.3l1.8-.1zM72.8 256.5l.2 2.1c0 .5-.2.7-.7.8h-.7c0-.3-.2-.6-.5-1l-.1-.7.9.3h.3l.3-1.5h.3z"/><path class="st1" d="M67 256l.1 1.1.4 1.7c-.4.1-.7.5-1 1.5 0 .5.3.7.8.6l-.3.8v.7l.9 1-.3 2.1.4.7c-.3 0-.4.1-.4.4l1.5 1.3c-.9.1-1.4.3-1.4.8l.1.7 1.9.2v.7c-.6 1-1 1.5-1.4 1.5h-.4l-1.2-.6V270c-.1-.4-.3-.6-.8-.6-.4 0-.6.2-.7.7-1.7 1-2.5 1.7-2.4 2.2H62c-1.3.1-2.4.4-3.2 1.2l1.1 1.4.1 1-1.4.1-.1-.7-1.1.1c0 .4-.2.8-.6 1.4.7 1.1 1.7 1.7 2.9 1.6-.1.5-.7 1-1.8 1.5l-.8-1c-1 1-1.7 1.5-2.1 1.5.3 1.2.5 1.9.5 2.1l-.2 1.8h-.4v-.3c0-.3.1-.6.3-1.1h-.7l-.4 1.8v.3c.1.5.3.7.9.7 0 .5-.3.7-.8.8l.5 1.7.2 3.5c0 .6.3 1.3.8 2l-1.8.9c-.7-1.1-1.3-2.4-1.6-3.8h-.7c-.9 2.8-1.5 4.3-2 4.3l.1 1.7h.3l1.1-.8c0 .5.1 1 .4 1.4l2.2-.5c.4 0 1 .2 1.9.6.8-.7 1.7-1.2 2.9-1.5l-.3 2.1.5.7c-.3 0-.7.1-1.2.4-.6 0-1.2-.3-1.9-1-1.6.1-2.7.5-3.2 1.2H52c-.1-.7-.3-1.1-.8-1h-.8c.1 1.1-.1 1.9-.5 2.5l-.7-.3-.8.4c0-.3-.1-.4-.4-.3-.7 0-1.3 1.2-1.6 3.6.2 3.1-.8 5.3-2.9 6.4l.1.7 1-.1v.4c-.7 0-1 .2-1 .7.1.5.3.7.8.7h.3v-.7c.7.3 1.1.6 1.2 1-1.2.1-1.8.4-1.8 1.1h-.4c-.7-.3-1.1-.6-1.2-1-.4.1-.8.9-1.3 2.6 0 .3.2.6.5 1 .1 1.4-.8 2.5-2.5 3.2.1.3 1.1 1.3 3.1 3l.1.7c-.6 0-1.1.1-1.5.4 0 .3.2.6.5 1.1.1.7-.2 1-.7 1.1-.1-.3-.2-.6-.5-1.1 0-.2.1-.5.3-1-.8-2.1-1.3-3.1-1.6-3.1-.3 0-.7 1-1.2 2.9l.5 1.7c-1.3.7-2.7 2.4-4.1 5.1l.4.6c.2 0 .5-.1 1-.4 1.2.1 1.8.4 1.9 1 .3 0 .7-.1 1.1-.4l.4-.1.1 1.4-2.6.9-1.1.1c0-.5.5-.7 1.5-.8l-.1-.7-1.5.1c-2 .8-3.5 2-4.5 3.6v.4l.8 1-.3.7-.8-.3-1.1.8c.7.9 1.2 1.3 1.5 1.3l.7-.1c.5 0 .7-.5.7-1.4h.7l.1 1.7h-.3c-4.1 1.1-6.2 2.1-6.5 3.1l.1.7.5 2.1c-.2.5-.3.8-.3 1.1-2.4.1-3.6 2.1-3.4 6l-.8-.3-1 .1c-.9 3-1.7 4.6-2.3 4.6 0 .3.1.6.4 1L14 371.7c1.3 1.6 2.8 2.3 4.4 2.2 2.6 2.5 4.4 3.7 5.3 3.6 4 2.1 6.4 3.3 7.3 3.6l1.8-.1c.5-.1.7-.3.7-.8l3.6.2c4.6-6.4 6.9-10.2 6.8-11.3l-.4-.6c2.8-1.7 4.2-3.8 4-6.5l.7.3c0-.3.1-.6.3-1.1-.5-.2-.8-.3-1-.2-.1-.5.6-1.3 2-2.6l-.1-2.1c1-.1 1.4-.4 1.4-1.2l.7.3c.8-.4 1.1-.7 1.1-1.1v-.3h-.8l-.1-1.7c.8 0 1.7-1 2.8-2.9-.4-.7-.8-1-1.2-1l-.7.1-1.1.7c0-.3-.1-.6-.4-1v-.2c.5 0 1 .1 1.5.3 4.7-2.6 7-5.4 6.8-8.4l-.7-1-.1-.3c1-.1 1.7-.6 2.2-1.5.4 0 .6.2.7.7.3 0 .4-.1.4-.4l2.2.2c.2 0 .6-.1 1.4-.4 0 .4.5.7 1.5 1 .8-1.2 1.3-1.8 1.7-1.9l2.2 1c0 .6-.3 1.4-.9 2.5v1c1 0 1.5.4 1.5 1.3h.4c.6 0 1-1.2 1.3-3.6-.6-1-.9-1.7-.9-2v-.4h.8c.7.1 1.1.9 1.2 2.4.1 1.7 1.2 2.6 3.4 2.9.8-.4 1.1-.7 1.1-1.1.5 0 .7.2.8.7l-.7 1.1.1.3 2.6 1.3c.7-.2 1.3-1.1 1.7-2.6l-1.5-.6c0-1 .4-2.5 1.3-4.3l.7.3c0 .3-.1.4-.3.4.1 1.3 1.1 2.1 3 2.3l1.4-.8c0 .2.2.3.5.3h.3c1-1.2 1.7-1.8 2.1-1.9v.4c.6-.1 1.5-.2 2.9-.5.6-.1 1.5.4 2.6 1.2h.7l.8-.4c0-.3-.2-.4-.5-.3l1.1-1.5c.5-.1.7.2.7.6l.1.4-.2 2.5c.2 0 .3.1.3.3-.2 0-.3.1-.3.4l.4.7c-.9 0-1.4.2-1.4.7l.1 1.1c.5-.1 1.9 0 4 .2v.4l-1.9.1.1.7.7-.1-.3.7v.4l1.1-.1-.4.8c-.8 0-1.6-.3-2.6-.9h-.3c-.4 0-.6.2-.7.7l.1.7c.5 0 1 .1 1.4.3v-.4h.8v.3c-.8.1-1.1.4-1.1 1.2 0 .2.1.5.4 1 .3 0 .4-.1.4-.4l.7.3c.1.5-.4 1.4-1.3 2.9.7 2.3 1.2 3.5 1.6 3.4h.4c.6-.7 4.1-1.4 10.5-2.2.1 1.1.6 1.7 1.5 1.7 1.2-.5 1.8-1 1.8-1.5l.3-.1.1.4c.1 1.1-3.3 2.4-10.1 3.9l-1.2.1v-.7h-.4c-1.9.4-2.9.9-2.9 1.5l.9 1 .2 3.2.3.6 2.1-3.2c0 .2-.1.5-.3 1l.4.7 1.1-.8v.7c.1.6-.1 1.1-.4 1.5l.5.6.1.4c0 .3-.9.9-2.6 1.9l.1.7 1.5-.1.7-.4c.1.4.3.8.8 1.4.5-.1.7-.3.7-.8.4 0 .7.5 1.2 1.4v.3c-1.6 1.3-2.4 2.1-2.4 2.6l.4.7c.3 0 .6-.1 1-.4.3 0 .6.3.9 1-2.4.9-3.5 1.8-3.5 2.6 0 .2.1.5.4 1 .2 0 .3-.1.3-.4.6.1 1.4.7 2.3 1.7l2.6 8.2-.3.8v.3c2.5 2.4 3.8 3.9 3.9 4.7l2.5-.1c.1.8.4 1.5.9 2 1-.6 1.5-1.2 1.7-1.8l.7.3c1.2-1.4 1.9-2.2 2.1-2.2.5-.1 1 .6 1.5 2 0 .3-1.1.8-3.2 1.5.5 1 1 1.6 1.5 1.6h.3c.5 0 .7-.6.7-1.8h.7l.1 1-.3.7c1.5 0 2.7-.9 3.5-2.6 0-.2-.6-.7-1.9-1.7l-.1-1.4c3.8-1.1 5.8-1.7 6.2-1.7h1.1c.6.4 1.1.6 1.5.6l-.3 1.7c1 1.1 1.6 1.7 1.9 1.7h.3c1.7-.6 2.7-.9 2.9-.9-.9-1.1-1.7-2.5-2.4-4.1.3-1.2 1.1-1.8 2.5-1.9l.4 1.8.8-.1v-.7h.3c.1.7.3 1 .8 1h.3v-.7l-.8-1c-.1-2.6-1.7-4.5-4.6-5.7l-.1-1.1c.8 0 1.1-.2 1.1-.7v-.4c-.4-.7-.8-1-1.2-1-1.8.1-2.7.5-2.8 1.2-1 .1-2.1-.5-3.4-1.5-.1-1.1.5-2 1.7-2.9.2 0 .3.1.4.3.2 0 .6-.1 1.1-.4.4-.1.8.2 1.4.6l1.2-.1c.3 0 .6-.5 1-1.4l-.5-.7c-.8.1-1.4.2-1.8.4 0-.2.1-.5.4-1 0-.5-.4-.7-1.2-.7v-.7l.3-.7c-.3 0-.4-.1-.4-.3-.5 0-1.2.4-2.1 1.2-.4 0-.7-.2-.9-.7v-.7c1.8-.7 2.9-1.4 3.6-1.9-.1-1.1-.4-1.8-1.2-2h-.9c-1 .1-2 .3-2.8.9 0 .4-.9 1.1-2.6 2.2l.5.7-.8.1c-.1-1.2-.4-1.8-1.1-1.7l-.1-.7 1.4-1.5c-.4-.7-.8-1-1.2-1l.3-.7 2.2.9h.8c.3 0 .4-.2.3-.4l3.2-1.9c-.1-.5-.4-.7-1.1-.7 0-.4.2-.6.6-.7l-1.5-1.3-.1-.4h.8v-.7h-.3l-1.2.7-1.5.1v-.7c.3 0 1.4-.7 3.2-2.2v-.3c-.5-.6-2.3-1.8-5.3-3.6v-.3c-.1-.4.2-.7.6-.8.5 0 .8.2.9.7 1.1-.5 1.6-1 1.7-1.5v-.4c-.7-.9-1.2-1.3-1.5-1.3 0-.3.1-.6.3-1.1 0-.5-.9-1.3-2.6-2.3h.3l1.5 1 .7-.1c.5 0 .7-.2.6-.7v-.7c-.5 0-1.3-.4-2.2-1.3h-.3c-.5.1-.7.5-.6 1.5h-.8c-.1-.5 0-1 .2-1.4l-1.1-1.3c0-.2.5-.8 1.4-1.9l-.1-1.4c-.1-.6-.7-.9-1.9-.9l.9-1.8c-.1-.5-.7-1-1.9-1.3h-.7c-2.4 2.2-3.8 3.3-4.3 3.3l-1.9-.2-.1-1.8c.3 0 .7.1 1.2.3.2 0 2.1-.9 5.6-2.7 0-.3-.1-.6-.4-1 .2-.4.3-.9.3-1.4v-.7l-.4-.7h.3l-.5-2.1c.7-1.5 1-2.6.9-3.2 0-.5-.3-1.4-.9-2.8h.4l-3.4-1.6.3-1.8-.1-1.7c.8-.1 1.4-.2 1.8-.5-.5-1-.8-1.6-.8-2l.3-.8-.7-.3c-1.5.1-3 1.6-4.6 4.4l.4.7c-.7.1-1.3.5-1.8 1.5v.3l.5.7c-.9.9-1.4 1.7-1.4 2.2l-.7.1.3-.8-.3-.6c-.7.5-2.9 1.1-6.7 1.7h-.4l-1.5-1.7c-.5.1-.7.4-.6 1.1-.3.1-1.5.1-3.6.2l-1.8.5-1.9-1-.4.1c0 .2.2.3.4.3.1.7-.6 1.7-2 2.9l-.5.1v-1.5l-.7.1-2.2 1.5-1.5-1.3c-.6 0-1.7.4-3.2 1.2 0-.2-.1-.3-.4-.3-.4 0-.6.3-.7.8-.4 0-1-.2-1.8-.6-2 1.4-4.4 2.2-7.2 2.4H73l-1.2-.6h-.3c-1.8 1.7-2.8 2.6-3.2 2.6-.5-2.7-1.1-4.3-1.7-4.8l-.1-1.4c1-.1 1.5-.3 1.5-.8-.1-.5-.4-.7-1.1-.6v-.4c0-.3 1.3-1.1 3.9-2.2l1.9-5.3c-2-1.5-3.1-2.3-3.4-2.3l2-2.9 1.5.3.1 1.7c.1.5.3.7.8.7l1.4-1.1c0-.3-.1-.6-.4-1.1.2-.9.6-1.9 1.2-3.2l-.4-.7c.7-.4 1.1-.8 1.1-1.1v-.7c-.7 0-1.5-.2-2.2-.6l-1.4.8c-.1-.5-.4-.7-1.2-.6l-.1-.7c1.8-.1 3.4-.9 4.7-2.3l-.3 1.8c0 .5.3.7.8.6h.7l-.1-.4-.4-1.7.7-.1c.8 0 1.5-1 2.1-2.9l-.5-.7c.5 0 .7-.6.7-1.8h.4c.2 1.2.6 1.8 1.1 1.7h.5l.6-.4c.6-1.6 1.3-2.5 2.1-2.6-.1-1-.6-2-1.6-3l-1 .7-3.6.2-1.8.5-.9-1v-.4c0-.4.6-.8 1.8-1.1 2.1.1 3.8.1 5.1.1h.3c1.2-.7 1.8-1.4 1.8-2.2H86v.3c.1.3 0 .6-.2 1.1.2.4.3.9.4 1.4l2.7 2.6c-.7.1-1.3.5-1.8 1.5l.2 2.1c0 .5.2.7.7.7h.8c.5-.1.7-.3.7-.8.5.2 1 .3 1.5.3-.5.6-.7 1.2-.6 1.8-.3 0-.5-.1-.5-.4-1.4 1.3-2.2 2.5-2.3 3.3l.4 2c.5 0 1.5-.3 2.9-.8l.4.6 1.8-.4v.7l-.3.7.8.3v.4c-1.7.1-2.5.9-2.4 2.6v.7l.4.7-.7.3c0 .3.1.4.4.4l-.2 1.7v.8l.4.6-.7.4c0 .3.1.4.4.4 0 .5-.2.7-.7.7.1.5.3.7.8.7l.3-.1 1.1-.7.7-.1.8.3c0 .4-1.1 1.6-3.5 3.7.1.2.2.3.4.3l-.3.7v.4c.6 1.6.9 2.5.9 2.7h.8c.7-.4 1-.8 1-1.1l2.2.2.8-.4c0 .2.1.3.3.3h.4c.7-.6 2.9-1.2 6.7-1.7l1.1.6 4.6-1.6-.1-.7c-1.8-1-2.7-2.3-2.7-3.7.3 0 .8-.6 1.4-1.8l-.9-1v-.7c.7-.1 1.1-.4 1-1.1 1.1-.3 2.4-1.2 3.9-2.6.5.7 1 1 1.5.9v.4c-.7.9-2 1.8-3.9 2.6-.1 1-.7 2.1-2 3.2l.1 1.4c1.4-.1 2.2.1 2.2.5.1.5-.2.7-.6.8.4.7.7 1 1.1 1 0 .2-.1.5-.3 1 0 .4.4 1 1.2 1.7.3 0 .6-.5.9-1.4 0-.3-.1-.6-.4-1.1.3 0 .5-.5.6-1.4l-.4-.7c0-.4.6-1.5 1.7-3.2 3-1.2 4.6-2 4.6-2.3-1.5-1.2-2.2-2-2.2-2.4-.1-.7.3-1 1.1-1.1l-.1-1h-.8l-.7.4-.9-3.8.3-.7-.9-2.4c.5-.1.7-.3.7-.8v-.7l-.5-.7c.4 0 .7-.8 1-2.5-.1-.7-.3-1-.9-1h-.3l-1.3 1.5-.8.1c-.1-.9-.6-1.4-1.5-1.4.5-.8.7-1.5.6-2.1v-.3l-.5-.7c.5-.1.8-.3.8-.8v-.7l-.5-2.4c.9-.1 1.4-.3 1.3-.8v-.3c-.4 0-1.4-.4-3.2-1.3.1-.8.8-1.5 2-2.2 0-.9-.6-1.9-1.9-3-2.8.1-4.5-.8-4.9-2.6-.1-1.7.2-2.6 1-2.8-.1-.5-.3-1-.5-1.4l1.5-1.5-.1-.7-.4-.7-1.4 1.2h-.4v-.4l1.3-2.9-1.5-1.6c0-.4.2-.7.7-.8 0-.2-.2-.9-.5-2.1l-2.2-1.2-1.8.4-.5-1.7-.1-.4c.6-.9 1.1-1.4 1.5-1.4-.1-.5-1.3-1.1-3.8-1.9h-1l-5 .9c-.7-.6-1.5-1-2.2-1.3-.4.7-.7 1.1-1.1 1.2l-4.5.2c-2.4-.9-4.2-1.4-5.4-1.3v-.3c0-.5.5-.7 1.5-.8l-.1-1.1c-1.1.1-2.2.5-3.2 1.2h-.3l.3-.7c-.3 0-.6-.1-1.2-.3-.7 0-1 .4-1 1.1l-2.9.2c-.5 0-.7-.5-.7-1.4H70l-3 3.3z"/><path class="st1" d="M71.6 252.7h.6v-.7h-.7zM73.7 252.2h.4c.5 0 .7-.2.6-.7h-1v.7z"/><path class="st2" d="M.5 231H160v174.4H.5z"/></svg>