<svg id="Layer_1" xmlns="http://www.w3.org/2000/svg" viewBox="0 0 160 600"><style>.st0{fill:#231f20}</style><path class="st0" d="M10.9 588.7l-.1.6H8.2l-.1 1.7c.4-.4.8-.6 1.3-.6s.9.2 1.3.5.5.8.5 1.3-.2 1-.6 1.3c-.4.3-.9.5-1.4.5-.4 0-.8-.1-1.2-.4s-.6-.5-.7-.9l.6-.2c.2.6.7.9 1.3.9.4 0 .8-.1 1-.4.3-.3.4-.6.4-1s-.1-.7-.4-1-.5-.3-.9-.3c-.5 0-.9.2-1.3.7l-.5-.1.2-2.9h3.2zM13.2 591.2c-.7-.3-1-.7-1-1.3 0-.4.2-.7.5-1s.8-.4 1.3-.4 1 .1 1.3.4.5.6.5 1c0 .6-.3 1-1 1.2.6.3.9.5 1 .7.1.2.2.5.2.7 0 .4-.2.8-.5 1.1s-.9.4-1.5.4c-.7 0-1.2-.1-1.5-.4s-.5-.6-.5-1c0-.6.4-1 1.2-1.4zm.8.3c-.9.2-1.4.6-1.4 1.1 0 .3.1.5.4.7.2.2.6.3 1.1.3.4 0 .7-.1 1-.3.2-.2.4-.4.4-.7-.1-.4-.5-.8-1.5-1.1zm.1-.6c.4-.1.8-.3.9-.4s.3-.4.3-.6c0-.3-.1-.5-.3-.6s-.5-.2-.9-.2c-.3 0-.6.1-.8.2s-.3.4-.3.6c0 .2.1.5.4.6s.4.3.7.4zM20.7 589.8l-.6.2c-.2-.5-.6-.8-1.1-.8-1 0-1.5.8-1.5 2.5.2-.4.4-.6.7-.8s.6-.3.9-.3c.5 0 .9.2 1.2.5.3.3.5.8.5 1.2 0 .5-.2.9-.5 1.3-.4.4-.8.5-1.4.5-.6 0-1.1-.2-1.5-.7-.4-.5-.6-1.1-.6-1.9 0-.8.2-1.5.5-2s.9-.8 1.6-.8c.9-.1 1.5.3 1.8 1.1zm-1.9 3.8c.4 0 .7-.1.9-.4s.4-.5.4-.9c0-.3-.1-.6-.4-.9-.2-.2-.5-.4-.9-.4s-.7.1-.9.4c-.3.3-.4.6-.4.9 0 .3.1.6.4.9.3.2.6.4.9.4zM22.6 591.5v-.5h.6c.4 0 .8-.1 1-.3.2-.2.3-.4.3-.7 0-.3-.1-.5-.3-.7s-.5-.3-.8-.3c-.6 0-1 .3-1.2.9l-.6-.2c.3-.8 1-1.2 1.9-1.2.5 0 .9.1 1.3.4.3.3.5.6.5 1 0 .3-.1.6-.3.8s-.4.4-.7.4c.3 0 .6.2.9.4s.4.5.4.9-.2.8-.5 1.1-.9.5-1.5.5c-.5 0-.9-.1-1.3-.4s-.6-.6-.7-.9l.6-.2c.2.6.6 1 1.4 1 .5 0 .8-.1 1-.3.2-.2.3-.4.3-.7 0-.3-.1-.6-.4-.7s-.6-.3-1.1-.3h-.8zM30.2 593.5v.5h-3.7v-.5h1.6v-4.1c-.5.5-1 .9-1.5 1.2v-.7c.7-.4 1.2-.8 1.6-1.3h.5v4.9h1.5zM32 591.2c-.7-.3-1-.7-1-1.3 0-.4.2-.7.5-1s.8-.4 1.3-.4 1 .1 1.3.4.5.6.5 1c0 .6-.3 1-1 1.2.6.3.9.5 1 .7.1.2.2.5.2.7 0 .4-.2.8-.5 1.1s-.9.4-1.5.4c-.7 0-1.2-.1-1.5-.4s-.5-.6-.5-1c-.1-.6.4-1 1.2-1.4zm.8.3c-.9.2-1.4.6-1.4 1.1 0 .3.1.5.4.7.2.2.6.3 1.1.3.4 0 .7-.1 1-.3.2-.2.4-.4.4-.7-.1-.4-.6-.8-1.5-1.1zm0-.6c.4-.1.8-.3.9-.4s.3-.4.3-.6c0-.3-.1-.5-.3-.6s-.5-.2-.9-.2c-.3 0-.6.1-.8.2s-.3.4-.3.6c0 .2.1.5.4.6s.4.3.7.4z"/></svg>