<svg id="Layer_1" xmlns="http://www.w3.org/2000/svg" viewBox="0 0 160 600"><style>.st0{fill:#f9e13a}</style><path class="st0" d="M29.8 44l-1.1-3h-4.3l-1.1 3h-3.1l5.3-13.5h2.2L33 44h-3.2zm-2.9-8c-.1-.4-.3-.8-.4-1.2-.1.4-.3.9-.4 1.2l-.9 2.5h2.6l-.9-2.5zM46.3 31.8c-.4-.1-.9-.3-1.2-.3-1.1 0-1.7.7-1.7 2v.9H46l-.7 2.6h-2v7h-3v-7h-2.8v7h-3v-7h-1.4v-2.5h1.4v-1.1c0-2.9 1.9-4.3 4.3-4.3 1.3 0 2.3.3 3.1.8.7-.5 1.6-.8 2.7-.8.9 0 1.8.1 2.2.3l-.5 2.4zm-7.1-.3c-1 0-1.6.7-1.6 2.1v.9h2.8v-1.1c0-.5.1-1 .2-1.4-.5-.4-1-.5-1.4-.5zM51.7 44.3c-2.9 0-5.2-2-5.2-5.1s2.3-5.1 5.2-5.1c2.9 0 5.2 2 5.2 5.1s-2.4 5.1-5.2 5.1zm0-7.4c-1.2 0-2.1 1-2.1 2.4s1 2.4 2.1 2.4 2.1-1 2.1-2.4-1-2.4-2.1-2.4zM64.3 37.8c-.2-.1-.6-.2-.9-.2-1 0-1.9.5-1.9 2V44h-3.1v-9.5h3v2.1c.3-1.5 1.4-2.3 2.7-2.3.3 0 .7 0 .9.1l-.7 3.4zM73.1 44v-1.2c-.5 1-1.6 1.4-2.9 1.4-2.3 0-4.6-1.8-4.6-5 0-3.1 2.2-5.1 4.8-5.1 1 0 2 .3 2.4.7V29h3v15h-2.7zm-.3-6.2c-.3-.4-.9-.9-1.9-.9-1.3 0-2.3 1-2.3 2.4s.9 2.4 2.3 2.4c.9 0 1.5-.5 1.9-1v-2.9zM84.5 44.4c-.6-.1-1.2-.6-1.5-1.3-.4.8-1.3 1.2-2.5 1.2-1.7 0-3.2-1.2-3.2-3.1 0-1.7 1.4-2.9 3.3-3.1l1.9-.2v-.3c0-.6-.5-.9-1.5-.9-.9 0-2 .3-2.6.7l-.6-2.4c.8-.5 2.1-.8 3.3-.8 2.5 0 4.3 1.2 4.3 3.4v3.1c0 1.1.4 1.7 1.2 2l-2.1 1.7zm-2-4.5l-1.1.1c-.8.1-1.2.6-1.2 1.2 0 .5.4.9 1 .9.7 0 1.3-.6 1.3-1.4v-.8zM92.3 44.3c-2 0-3.7-.7-4.6-1.4V29.1h3v5.8c.4-.3 1.4-.6 2.4-.6 2.6 0 4.8 1.9 4.8 4.9 0 2.8-1.9 5.1-5.6 5.1zm.3-7.4c-.9 0-1.6.4-1.8.7v3.6c.3.2 1 .5 1.6.5 1.6 0 2.6-1.1 2.6-2.5-.2-1.2-1.1-2.3-2.4-2.3zM101 33.2c-.5 0-1.7-1.1-1.7-1.7s1.1-1.6 1.7-1.6c.5 0 1.7 1.1 1.7 1.6s-1.1 1.7-1.7 1.7zM99.5 44v-9.5h3.1V44h-3.1zM107.9 44.4c-2-.1-3.3-1.1-3.3-3.4V29.1h3v11.6c0 .8.4 1.2 1.3 1.3l-1 2.4zM111.8 33.2c-.5 0-1.7-1.1-1.7-1.7s1.1-1.6 1.7-1.6c.5 0 1.7 1.1 1.7 1.6s-1.2 1.7-1.7 1.7zM110.2 44v-9.5h3.1V44h-3.1zM121.7 37h-2.5v3.5c0 .8.4 1.2 1.3 1.2.4 0 .6 0 .8-.1l-.3 2.3c-.3.1-.8.3-1.4.3-2.1 0-3.4-1.1-3.4-3V37h-1.6v-2.5h1.6v-2l3.1-1.1v3.1h3.1l-.7 2.5zM129.5 43.1c-1.4 3.8-3 5.2-4.7 5.9l-1.9-1.9c1.5-.6 2.7-1.7 3.5-3.7l-3.4-8.9h3l1.4 3.7c.2.5.4 1.2.6 1.9.2-.7.4-1.3.6-1.9l1.4-3.7h2.8l-3.3 8.6z"/><g><path class="st0" d="M27.7 70.4c-.6-.1-1.2-.6-1.5-1.3-.4.8-1.3 1.2-2.5 1.2-1.7 0-3.2-1.2-3.2-3.1 0-1.7 1.4-2.9 3.3-3.1l1.9-.2v-.3c0-.6-.5-.9-1.5-.9-.9 0-2 .3-2.6.7L21 61c.8-.5 2.1-.8 3.3-.8 2.5 0 4.3 1.2 4.3 3.4v3.1c0 1.1.4 1.7 1.2 2l-2.1 1.7zm-2-4.5l-1.2.1c-.8.1-1.2.6-1.2 1.2 0 .5.4.9 1 .9.7 0 1.3-.6 1.3-1.4v-.8zM36.9 70v-5.8c0-.7-.5-1.3-1.4-1.3-.9 0-1.5.6-1.5 1.3V70h-3.1v-9.5h2.8v1.3c.4-1 1.4-1.6 2.9-1.6 2.1 0 3.3 1.2 3.3 3.2V70h-3zM49.1 70v-1.2c-.5 1-1.6 1.4-2.9 1.4-2.3 0-4.6-1.8-4.6-5 0-3.1 2.2-5.1 4.8-5.1 1 0 2 .3 2.4.7V55h3v15h-2.7zm-.3-6.2c-.3-.4-.9-.9-1.9-.9-1.3 0-2.3 1-2.3 2.4s.9 2.4 2.3 2.4c.9 0 1.5-.5 1.9-1v-2.9zM65.2 70.4c-.6-.1-1.2-.6-1.5-1.3-.4.8-1.3 1.2-2.5 1.2-1.7 0-3.2-1.2-3.2-3.1 0-1.7 1.4-2.9 3.3-3.1l1.9-.2v-.3c0-.6-.5-.9-1.5-.9-.9 0-2 .3-2.6.7l-.6-2.4c.8-.5 2.1-.8 3.3-.8 2.5 0 4.3 1.2 4.3 3.4v3.1c0 1.1.4 1.7 1.2 2l-2.1 1.7zm-2-4.5L62 66c-.8.1-1.2.6-1.2 1.2 0 .5.4.9 1 .9.7 0 1.3-.6 1.3-1.4v-.8zM74.4 70v-5.8c0-.7-.5-1.3-1.4-1.3-.9 0-1.5.6-1.5 1.3V70h-3.1v-9.5h2.8v1.3c.4-1 1.4-1.6 2.9-1.6 2.1 0 3.3 1.2 3.3 3.2V70h-3zM92.8 64.7l-1.4 1.4h-4.7c.1.8 1.2 1.7 2.8 1.7 1 0 2-.3 2.6-.7l-.3 2.6c-.7.4-1.8.6-3 .6-2.9 0-5.2-2-5.2-5.1 0-3.1 2.2-5 5-5 2.6 0 4.3 1.8 4.3 3.8 0 .2 0 .5-.1.7zm-4.2-2.2c-.9 0-1.7.7-1.8 1.6H90v-.2c0-.7-.5-1.4-1.4-1.4zM101 70.4c-.6-.1-1.2-.6-1.5-1.3-.4.8-1.3 1.2-2.5 1.2-1.7 0-3.2-1.2-3.2-3.1 0-1.7 1.4-2.9 3.3-3.1l1.9-.2v-.3c0-.6-.5-.9-1.5-.9-.9 0-2 .3-2.6.7l-.5-2.4c.8-.5 2.1-.8 3.3-.8 2.5 0 4.3 1.2 4.3 3.4v3.1c0 1.1.4 1.7 1.2 2l-2.2 1.7zm-1.9-4.5l-1.2.1c-.8.1-1.2.6-1.2 1.2 0 .5.4.9 1 .9.7 0 1.3-.6 1.3-1.4v-.8zM107.3 70.2c-1.3 0-2.2-.3-3-.7l-.3-2.7c.8.6 1.9 1 3 1 .6 0 .9-.3.9-.7 0-.4-.3-.6-.9-.7-1.8-.5-2.9-1.4-2.9-3.1 0-1.9 1.5-3.1 3.6-3.1 1.2 0 2.3.3 2.8.6l-.5 2.3c-.5-.3-1.2-.5-2-.5-.5 0-.8.2-.8.6 0 .4.3.5.8.7 2.1.6 3 1.6 3 3.2.1 1.7-1.1 3.1-3.7 3.1zM118.3 69.1c-1.4 3.8-3 5.2-4.7 5.9l-1.9-1.9c1.5-.6 2.7-1.7 3.5-3.7l-3.4-8.9h3l1.4 3.7c.2.5.4 1.2.6 1.9.2-.7.4-1.3.6-1.9l1.4-3.7h2.8l-3.3 8.6z"/></g><g><path class="st0" d="M27.7 96.4c-.6-.1-1.2-.6-1.5-1.3-.4.8-1.3 1.2-2.5 1.2-1.7 0-3.2-1.2-3.2-3.1 0-1.7 1.4-2.9 3.3-3.1l1.9-.2v-.3c0-.6-.5-.9-1.5-.9-.9 0-2 .3-2.6.7L21 87c.8-.5 2.1-.8 3.3-.8 2.5 0 4.3 1.2 4.3 3.4v3.1c0 1.1.4 1.7 1.2 2l-2.1 1.7zm-2-4.5l-1.2.1c-.8.1-1.2.6-1.2 1.2 0 .5.4.9 1 .9.7 0 1.3-.6 1.3-1.4v-.8zM36.3 96.3c-1 0-2-.3-2.4-.6v5.2h-3V86.5h2.7v1.2c.5-1 1.6-1.4 2.9-1.4 2.3 0 4.6 1.8 4.6 5 0 3-2.2 5-4.8 5zm-.6-7.4c-.9 0-1.5.5-1.9 1v3c.3.4.9.8 1.9.8 1.3 0 2.3-1 2.3-2.4s-.9-2.4-2.3-2.4zM48.1 96.3c-1 0-2-.3-2.4-.6v5.2h-3V86.5h2.7v1.2c.5-1 1.6-1.4 2.9-1.4 2.3 0 4.6 1.8 4.6 5 0 3-2.1 5-4.8 5zm-.5-7.4c-.9 0-1.5.5-1.9 1v3c.3.4.9.8 1.9.8 1.3 0 2.3-1 2.3-2.4s-1-2.4-2.3-2.4zM57.8 96.4c-2-.1-3.3-1.1-3.3-3.4V81.1h3v11.6c0 .8.4 1.2 1.3 1.3l-1 2.4zM61.7 85.2c-.5 0-1.7-1.1-1.7-1.7s1.1-1.6 1.7-1.6 1.7 1.1 1.7 1.6-1.1 1.7-1.7 1.7zM60.2 96v-9.5h3.1V96h-3.1zM72.5 89.6c-.6-.4-1.3-.6-2-.6-1.3 0-2.4 1-2.4 2.4s1.1 2.4 2.5 2.4c.8 0 1.4-.2 2.1-.5l-.3 2.6c-.6.3-1.4.5-2.3.5-2.7 0-5.1-1.9-5.1-5s2.5-5 5.1-5c1.3 0 2.3.3 3.1.7l-.7 2.5zM81.2 96.4c-.6-.1-1.2-.6-1.5-1.3-.4.8-1.3 1.2-2.5 1.2-1.7 0-3.2-1.2-3.2-3.1 0-1.7 1.4-2.9 3.3-3.1l1.9-.2v-.3c0-.6-.5-.9-1.5-.9-.9 0-2 .3-2.6.7l-.6-2.4c.8-.5 2.1-.8 3.3-.8 2.5 0 4.3 1.2 4.3 3.4v3.1c0 1.1.4 1.7 1.2 2l-2.1 1.7zm-2-4.5L78 92c-.8.1-1.2.6-1.2 1.2 0 .5.4.9 1 .9.7 0 1.3-.6 1.3-1.4v-.8zM90.5 89H88v3.5c0 .8.4 1.2 1.3 1.2.4 0 .6 0 .8-.1l-.3 2.3c-.3.1-.8.3-1.4.3-2.1 0-3.4-1.1-3.4-3V89h-1.6v-2.5H85v-2l3.1-1.1v3.1h3.1l-.7 2.5zM93.8 85.2c-.5 0-1.7-1.1-1.7-1.7s1.1-1.6 1.7-1.6c.5 0 1.7 1.1 1.7 1.6s-1.1 1.7-1.7 1.7zM92.3 96v-9.5h3.1V96h-3.1zM102.1 96.3c-2.9 0-5.2-2-5.2-5.1s2.3-5.1 5.2-5.1c2.9 0 5.2 2 5.2 5.1s-2.3 5.1-5.2 5.1zm0-7.4c-1.2 0-2.1 1-2.1 2.4s1 2.4 2.1 2.4 2.1-1 2.1-2.4-.9-2.4-2.1-2.4zM114.9 96v-5.8c0-.7-.5-1.3-1.4-1.3-.9 0-1.5.6-1.5 1.3V96h-3.1v-9.5h2.8v1.3c.4-1 1.4-1.6 2.9-1.6 2.1 0 3.3 1.2 3.3 3.2V96h-3z"/></g><g><path class="st0" d="M27.6 109.8c-.4-.1-.9-.3-1.2-.3-1.1 0-1.7.7-1.7 2v.9h2.7l-.6 2.5h-2.1v7h-3v-7h-1.4v-2.5h1.4v-1.1c0-2.9 1.9-4.3 4.3-4.3.9 0 1.8.1 2.2.3l-.6 2.5zM32.9 122.3c-2.9 0-5.2-2-5.2-5.1s2.3-5.1 5.2-5.1c2.9 0 5.2 2 5.2 5.1s-2.3 5.1-5.2 5.1zm0-7.4c-1.2 0-2.1 1-2.1 2.4s1 2.4 2.1 2.4 2.1-1 2.1-2.4-.9-2.4-2.1-2.4zM45.6 115.8c-.2-.1-.6-.2-.9-.2-1 0-1.9.5-1.9 2v4.4h-3.1v-9.5h3v2.1c.3-1.5 1.4-2.3 2.7-2.3.3 0 .7 0 .9.1l-.7 3.4zM58.5 115H56v3.5c0 .8.4 1.2 1.3 1.2.4 0 .6 0 .8-.1l-.3 2.3c-.3.1-.8.3-1.4.3-2.1 0-3.4-1.1-3.4-3V115h-1.6v-2.5H53v-2l3.1-1.1v3.1h3.1l-.7 2.5zM68.7 116.7l-1.4 1.4h-4.7c.1.8 1.2 1.7 2.8 1.7 1 0 2-.3 2.6-.7l-.3 2.6c-.7.4-1.8.6-3 .6-2.9 0-5.2-2-5.2-5.1 0-3.1 2.2-5 5-5 2.6 0 4.3 1.8 4.3 3.8 0 .2-.1.5-.1.7zm-4.2-2.2c-.9 0-1.7.7-1.8 1.6h3.2v-.2c0-.7-.6-1.4-1.4-1.4zM76.2 115.8c-.2-.1-.6-.2-.9-.2-1 0-1.9.5-1.9 2v4.4h-3.1v-9.5h3v2.1c.3-1.5 1.4-2.3 2.7-2.3.3 0 .7 0 .9.1l-.7 3.4zM89.7 122v-5.8c0-.7-.3-1.3-1.3-1.3s-1.4.6-1.4 1.3v5.8h-3.1v-5.8c0-.7-.3-1.3-1.3-1.3s-1.4.6-1.4 1.3v5.8H78v-9.5h2.9v1.3c.4-1 1.3-1.6 2.8-1.6 1.4 0 2.4.5 2.8 1.6.4-.9 1.5-1.6 2.9-1.6 2.2 0 3.4 1.2 3.4 3.2v6.6h-3.1zM102.7 122.4c-2-.1-3.3-1.1-3.3-3.4v-11.9h3v11.6c0 .8.4 1.2 1.3 1.3l-1 2.4zM106.6 111.2c-.5 0-1.7-1.1-1.7-1.7s1.1-1.6 1.7-1.6c.5 0 1.7 1.1 1.7 1.6s-1.1 1.7-1.7 1.7zm-1.5 10.8v-9.5h3.1v9.5h-3.1zM116.8 109.8c-.4-.1-.9-.3-1.2-.3-1.1 0-1.7.7-1.7 2v.9h2.7l-.6 2.6h-2.1v7h-3v-7h-1.4v-2.5h1.4v-1.1c0-2.9 1.9-4.3 4.3-4.3.9 0 1.8.1 2.2.3l-.6 2.4zM126.2 116.7l-1.4 1.4h-4.7c.1.8 1.2 1.7 2.8 1.7 1 0 2-.3 2.6-.7l-.3 2.6c-.7.4-1.8.6-3 .6-2.9 0-5.2-2-5.2-5.1 0-3.1 2.2-5 5-5 2.6 0 4.3 1.8 4.3 3.8 0 .2-.1.5-.1.7zm-4.2-2.2c-.9 0-1.7.7-1.8 1.6h3.2v-.2c0-.7-.6-1.4-1.4-1.4z"/></g><g><path class="st0" d="M22.6 137.2c-.5 0-1.7-1.1-1.7-1.7s1.1-1.6 1.7-1.6 1.7 1.1 1.7 1.6-1.2 1.7-1.7 1.7zM21 148v-9.5h3.1v9.5H21zM32.2 148v-5.8c0-.7-.5-1.3-1.4-1.3-.9 0-1.5.6-1.5 1.3v5.8h-3.1v-9.5H29v1.3c.4-1 1.4-1.6 2.9-1.6 2.1 0 3.3 1.2 3.3 3.2v6.6h-3zM40.3 148.2c-1.3 0-2.2-.3-3-.7l-.3-2.7c.8.6 1.9 1 3 1 .6 0 .9-.3.9-.7 0-.4-.3-.6-.9-.7-1.8-.5-2.9-1.4-2.9-3.1 0-1.9 1.5-3.1 3.6-3.1 1.2 0 2.3.3 2.8.6l-.5 2.3c-.5-.3-1.2-.5-2-.5-.5 0-.8.2-.8.6 0 .4.3.5.8.7 2.1.6 3 1.6 3 3.2s-1.2 3.1-3.7 3.1zM51.8 148v-1.3c-.4 1-1.4 1.6-2.9 1.6-2.1 0-3.3-1.2-3.3-3.2v-6.6h3.1v5.8c0 .7.5 1.3 1.4 1.3.9 0 1.5-.6 1.5-1.4v-5.8h3.1v9.5h-2.9zM62.5 141.8c-.2-.1-.6-.2-.9-.2-1 0-1.9.5-1.9 2v4.4h-3.1v-9.5h3v2.1c.3-1.5 1.4-2.3 2.7-2.3.3 0 .7 0 .9.1l-.7 3.4zM70.9 148.4c-.6-.1-1.2-.6-1.5-1.3-.4.8-1.3 1.2-2.5 1.2-1.7 0-3.2-1.2-3.2-3.1 0-1.7 1.4-2.9 3.3-3.1l1.9-.2v-.3c0-.6-.5-.9-1.5-.9-.9 0-2 .3-2.6.7l-.5-2.3c.8-.5 2.1-.8 3.3-.8 2.5 0 4.3 1.2 4.3 3.4v3.1c0 1.1.4 1.7 1.2 2l-2.2 1.6zm-1.9-4.6l-1.2.1c-.8.1-1.2.6-1.2 1.2 0 .5.4.9 1 .9.7 0 1.3-.6 1.3-1.4v-.8zM80.2 148v-5.8c0-.7-.5-1.3-1.4-1.3-.9 0-1.5.6-1.5 1.3v5.8h-3.1v-9.5H77v1.3c.4-1 1.4-1.6 2.9-1.6 2.1 0 3.3 1.2 3.3 3.2v6.6h-3zM92.4 141.6c-.6-.4-1.3-.6-2-.6-1.3 0-2.4 1-2.4 2.4s1.1 2.4 2.5 2.4c.8 0 1.4-.2 2.1-.5l-.3 2.6c-.6.3-1.4.5-2.3.5-2.7 0-5.1-1.9-5.1-5s2.5-5 5.1-5c1.3 0 2.3.3 3.1.7l-.7 2.5zM103 142.7l-1.4 1.4H97c.1.8 1.2 1.7 2.8 1.7 1 0 2-.3 2.6-.7l-.3 2.6c-.7.4-1.8.6-3 .6-2.9 0-5.2-2-5.2-5.1 0-3.1 2.2-5 5-5 2.6 0 4.3 1.8 4.3 3.8-.1.2-.1.5-.2.7zm-4.1-2.2c-.9 0-1.7.7-1.8 1.6h3.2v-.2c-.1-.7-.6-1.4-1.4-1.4zM108.4 144.2v-1.9h21v1.9h-21z"/></g><g><path class="st0" d="M24 174.2c-1.3 0-2.2-.3-3-.7l-.3-2.7c.8.6 1.9 1 3 1 .6 0 .9-.3.9-.7 0-.4-.3-.6-.9-.7-1.8-.5-2.9-1.4-2.9-3.1 0-1.9 1.5-3.1 3.6-3.1 1.2 0 2.3.3 2.8.6l-.5 2.3c-.5-.3-1.2-.5-2-.5-.5 0-.8.2-.8.6 0 .4.3.5.8.7 2.1.6 3 1.6 3 3.2.1 1.6-1.1 3.1-3.7 3.1zM36 174.4c-.6-.1-1.2-.6-1.5-1.3-.4.8-1.3 1.2-2.5 1.2-1.7 0-3.2-1.2-3.2-3.1 0-1.7 1.4-2.9 3.3-3.1l1.9-.2v-.3c0-.6-.5-.9-1.5-.9-.9 0-2 .3-2.6.7l-.5-2.3c.8-.5 2.1-.8 3.3-.8 2.5 0 4.3 1.2 4.3 3.4v3.1c0 1.1.4 1.7 1.2 2l-2.2 1.6zm-2-4.6l-1.2.1c-.8.1-1.2.6-1.2 1.2 0 .5.4.9 1 .9.7 0 1.3-.6 1.3-1.4v-.8z"/><path class="st0" d="M44.5 173.1c-1.4 3.8-3 5.2-4.7 5.9l-1.9-1.9c1.5-.6 2.7-1.7 3.5-3.7l-3.4-8.9h3l1.4 3.7c.2.5.4 1.2.6 1.9.2-.7.4-1.3.6-1.9l1.4-3.7h2.8l-3.3 8.6zM51.6 174.2c-1.3 0-2.2-.3-3-.7l-.3-2.7c.8.6 1.9 1 3 1 .6 0 .9-.3.9-.7 0-.4-.3-.6-.9-.7-1.8-.5-2.9-1.4-2.9-3.1 0-1.9 1.5-3.1 3.6-3.1 1.2 0 2.3.3 2.8.6l-.5 2.3c-.5-.3-1.2-.5-2-.5-.5 0-.8.2-.8.6 0 .4.3.5.8.7 2.1.6 3 1.6 3 3.2.1 1.6-1.1 3.1-3.7 3.1zM67.5 167.8c-.2-.1-.6-.2-.9-.2-1 0-1.9.5-1.9 2v4.4h-3.1v-9.5h3v2.1c.3-1.5 1.4-2.3 2.7-2.3.3 0 .7 0 .9.1l-.7 3.4zM77.8 168.7l-1.4 1.4h-4.7c.1.8 1.2 1.7 2.8 1.7 1 0 2-.3 2.6-.7l-.3 2.6c-.7.4-1.8.6-3 .6-2.9 0-5.2-2-5.2-5.1 0-3.1 2.2-5 5-5 2.6 0 4.3 1.8 4.3 3.8 0 .2 0 .5-.1.7zm-4.1-2.2c-.9 0-1.7.7-1.8 1.6H75v-.2c0-.7-.5-1.4-1.3-1.4zM84.3 174.1H82l-3.7-9.6h3l1.3 3.6c.2.5.4 1.2.5 1.8.1-.6.4-1.3.5-1.8l1.3-3.6H88l-3.7 9.6zM90.7 163.2c-.5 0-1.7-1.1-1.7-1.7s1.1-1.6 1.7-1.6c.5 0 1.7 1.1 1.7 1.6s-1.1 1.7-1.7 1.7zM89.2 174v-9.5h3.1v9.5h-3.1zM103 168.7l-1.4 1.4H97c.1.8 1.2 1.7 2.8 1.7 1 0 2-.3 2.6-.7l-.3 2.6c-.7.4-1.8.6-3 .6-2.9 0-5.2-2-5.2-5.1 0-3.1 2.2-5 5-5 2.6 0 4.3 1.8 4.3 3.8-.1.2-.2.5-.2.7zm-4.2-2.2c-.9 0-1.7.7-1.8 1.6h3.2v-.2c0-.7-.6-1.4-1.4-1.4zM114.7 174.1h-2.1l-1.3-3.8c-.2-.6-.4-1.3-.6-2-.1.7-.3 1.4-.5 2l-1.3 3.8h-2l-3.3-9.6h2.8l1.2 3.6c.2.5.4 1.2.5 1.8.1-.6.3-1.3.5-1.8l1.2-3.6h2.3l1.2 3.6c.2.6.3 1.2.4 1.8.1-.6.3-1.3.5-1.8l1.2-3.6h2.6l-3.3 9.6zM122 174.2c-1.3 0-2.2-.3-3-.7l-.3-2.7c.8.6 1.9 1 3 1 .6 0 .9-.3.9-.7 0-.4-.3-.6-.9-.7-1.8-.5-2.9-1.4-2.9-3.1 0-1.9 1.5-3.1 3.6-3.1 1.2 0 2.3.3 2.8.6l-.5 2.3c-.5-.3-1.2-.5-2-.5-.5 0-.8.2-.8.6 0 .4.3.5.8.7 2.1.6 3 1.6 3 3.2s-1.1 3.1-3.7 3.1zM128.8 174.3c-.6 0-1.7-1.2-1.7-1.7s1.2-1.7 1.7-1.7c.6 0 1.7 1.2 1.7 1.7s-1.2 1.7-1.7 1.7z"/></g><g><path class="st0" d="M28.2 193.6c-.6-.4-1.3-.6-2-.6-1.3 0-2.4 1-2.4 2.4s1.1 2.4 2.5 2.4c.8 0 1.4-.2 2.1-.5l-.3 2.6c-.6.3-1.4.5-2.3.5-2.7 0-5.1-1.9-5.1-5s2.5-5 5.1-5c1.3 0 2.3.3 3.1.7l-.7 2.5zM34.9 200.3c-2.9 0-5.2-2-5.2-5.1s2.3-5.1 5.2-5.1c2.9 0 5.2 2 5.2 5.1s-2.3 5.1-5.2 5.1zm0-7.4c-1.2 0-2.1 1-2.1 2.4s1 2.4 2.1 2.4 2.1-1 2.1-2.4-1-2.4-2.1-2.4zM53.4 200v-5.8c0-.7-.3-1.3-1.3-1.3s-1.4.6-1.4 1.3v5.8h-3.1v-5.8c0-.7-.3-1.3-1.3-1.3s-1.4.6-1.4 1.3v5.8h-3.1v-9.5h2.9v1.3c.4-1 1.3-1.6 2.8-1.6 1.4 0 2.4.5 2.8 1.6.4-.9 1.5-1.6 2.9-1.6 2.2 0 3.4 1.2 3.4 3.2v6.6h-3.2z"/></g></svg>