<svg id="Layer_1" xmlns="http://www.w3.org/2000/svg" viewBox="0 0 160 600"><style>.st0{fill:#f9e13a}</style><path class="st0" d="M25.5 44l-1.1-3h-4.3L19 44h-3l5.3-13.5h2.2L28.7 44h-3.2zm-2.8-8c-.1-.4-.3-.8-.4-1.2-.1.4-.3.9-.4 1.2l-.9 2.5h2.6l-.9-2.5zM35.9 44v-5.8c0-.7-.5-1.3-1.4-1.3-.9 0-1.5.6-1.5 1.3V44h-3.1v-9.5h2.8v1.3c.4-1 1.4-1.6 2.9-1.6 2.1 0 3.3 1.2 3.3 3.2V44h-3zM48.1 44v-1.2c-.5 1-1.6 1.4-2.9 1.4-2.3 0-4.6-1.8-4.6-5 0-3.1 2.2-5.1 4.8-5.1 1 0 2 .3 2.4.7V29h3v15h-2.7zm-.3-6.2c-.3-.4-.9-.9-1.9-.9-1.3 0-2.3 1-2.3 2.4s.9 2.4 2.3 2.4c.9 0 1.5-.5 1.9-1v-2.9zM63.8 33.3V44h-3.3V33.3h-3.8v-2.7h10.9v2.7h-3.8zM68.9 44V30.6h3.3V44h-3.3zM83.1 44L82 41h-4.3l-1.1 3h-3.1l5.3-13.5H81L86.3 44h-3.2zm-2.9-8c-.1-.4-.3-.8-.4-1.2-.1.4-.3.9-.4 1.2l-.9 2.5h2.6l-.9-2.5zM96.7 44l-1.1-3h-4.3l-1.1 3h-3.1l5.3-13.5h2.2L99.9 44h-3.2zm-2.9-8c-.1-.4-.3-.8-.4-1.2-.1.4-.3.9-.4 1.2l-.9 2.5h2.6l-.9-2.5zM106 44V30.6h3.3v10.7h5V44H106zM117 33.2c-.5 0-1.7-1.1-1.7-1.7s1.1-1.6 1.7-1.6c.5 0 1.7 1.1 1.7 1.6s-1.2 1.7-1.7 1.7zM115.4 44v-9.5h3.1V44h-3.1zM127.2 31.8c-.4-.1-.9-.3-1.2-.3-1.1 0-1.7.7-1.7 2v.9h2.7l-.6 2.5h-2.1v7h-3v-7h-1.4v-2.5h1.4v-1.1c0-2.9 1.9-4.3 4.3-4.3.9 0 1.8.1 2.2.3l-.6 2.5zM136.5 38.7l-1.4 1.4h-4.7c.1.8 1.2 1.7 2.8 1.7 1 0 2-.3 2.6-.7l-.3 2.6c-.7.4-1.8.6-3 .6-2.9 0-5.2-2-5.2-5.1 0-3.1 2.2-5 5-5 2.6 0 4.3 1.8 4.3 3.8 0 .2 0 .5-.1.7zm-4.1-2.2c-.9 0-1.7.7-1.8 1.6h3.2v-.2c-.1-.7-.6-1.4-1.4-1.4z"/><g><path class="st0" d="M27.2 70.1h-2.1l-1.3-3.8c-.2-.6-.4-1.3-.6-2-.1.7-.3 1.4-.5 2l-1.3 3.8h-2L16 60.5h2.8l1.2 3.6c.2.5.4 1.2.5 1.8.1-.6.3-1.3.5-1.8l1.2-3.6h2.3l1.2 3.6c.2.6.3 1.2.4 1.8.1-.6.3-1.3.5-1.8l1.2-3.6h2.6l-3.2 9.6zM38.3 70.4c-.6-.1-1.2-.6-1.5-1.3-.4.8-1.3 1.2-2.5 1.2-1.7 0-3.2-1.2-3.2-3.1 0-1.7 1.4-2.9 3.3-3.1l1.9-.2v-.3c0-.6-.5-.9-1.5-.9-.9 0-2 .3-2.6.7l-.6-2.4c.8-.5 2.1-.8 3.3-.8 2.5 0 4.3 1.2 4.3 3.4v3.1c0 1.1.4 1.7 1.2 2l-2.1 1.7zm-2-4.5l-1.1.1c-.8 0-1.2.6-1.2 1.2 0 .5.4.9 1 .9.7 0 1.3-.6 1.3-1.4v-.8zM44.6 70.2c-1.3 0-2.2-.3-3-.7l-.3-2.7c.8.6 1.9 1 3 1 .6 0 .9-.3.9-.7 0-.4-.3-.6-.9-.7-1.8-.5-2.9-1.4-2.9-3.1 0-1.9 1.5-3.1 3.6-3.1 1.2 0 2.3.3 2.8.6l-.5 2.3c-.5-.3-1.2-.5-2-.5-.5 0-.8.2-.8.6 0 .4.3.5.8.7 2.1.6 3 1.6 3 3.2 0 1.7-1.2 3.1-3.7 3.1zM60.4 63.8c-.2-.1-.6-.2-.9-.2-1 0-1.9.5-1.9 2V70h-3.1v-9.5h3v2.1c.3-1.5 1.4-2.3 2.7-2.3.3 0 .7 0 .9.1l-.7 3.4zM68.9 70.4c-.6-.1-1.2-.6-1.5-1.3-.4.8-1.3 1.2-2.5 1.2-1.7 0-3.2-1.2-3.2-3.1 0-1.7 1.4-2.9 3.3-3.1l1.9-.2v-.3c0-.6-.5-.9-1.5-.9-.9 0-2 .3-2.6.7l-.6-2.4c.8-.5 2.1-.8 3.3-.8 2.5 0 4.3 1.2 4.3 3.4v3.1c0 1.1.4 1.7 1.2 2l-2.1 1.7zm-2-4.5l-1.1.1c-.8.1-1.2.6-1.2 1.2 0 .5.4.9 1 .9.7 0 1.3-.6 1.3-1.4v-.8zM78.3 63h-2.5v3.5c0 .8.4 1.2 1.3 1.2.4 0 .6 0 .8-.1l-.3 2.3c-.3.1-.8.3-1.4.3-2.1 0-3.4-1.1-3.4-3V63h-1.6v-2.5h1.6v-2l3.1-1.1v3.1H79l-.7 2.5zM88.4 64.7L87 66.1h-4.7c.1.8 1.2 1.7 2.8 1.7 1 0 2-.3 2.6-.7l-.3 2.6c-.7.4-1.8.6-3 .6-2.9 0-5.2-2-5.2-5.1 0-3.1 2.2-5 5-5 2.6 0 4.3 1.8 4.3 3.8 0 .2 0 .5-.1.7zm-4.1-2.2c-.9 0-1.7.7-1.8 1.6h3.2v-.2c0-.7-.6-1.4-1.4-1.4zM97.1 70v-1.2c-.5 1-1.6 1.4-2.9 1.4-2.3 0-4.6-1.8-4.6-5 0-3.1 2.2-5.1 4.8-5.1 1 0 2 .3 2.4.7V55h3v15h-2.7zm-.3-6.2c-.3-.4-.9-.9-1.9-.9-1.3 0-2.3 1-2.3 2.4s.9 2.4 2.3 2.4c.9 0 1.5-.5 1.9-1v-2.9zM115.3 70l-1.1-3H110l-1.1 3h-3.1l5.3-13.5h2.2l5.3 13.5h-3.3zm-2.8-8c-.1-.4-.3-.8-.4-1.2-.1.4-.3.9-.4 1.2l-.9 2.5h2.6l-.9-2.5zM124.3 65.4v2.7h-2.6v-2.7H119V63h2.8v-2.7h2.6V63h2.8v2.4h-2.9zM133.7 65.4v2.7h-2.6v-2.7h-2.8V63h2.8v-2.7h2.6V63h2.8v2.4h-2.8z"/></g><g><path class="st0" d="M21.3 96.3c-2 0-3.7-.7-4.6-1.4V81.1h3v5.8c.4-.3 1.4-.6 2.4-.6 2.6 0 4.8 1.9 4.8 4.9 0 2.8-1.8 5.1-5.6 5.1zm.3-7.4c-.9 0-1.6.4-1.8.7v3.6c.3.2 1 .5 1.6.5 1.6 0 2.6-1.1 2.6-2.5-.1-1.2-1.1-2.3-2.4-2.3zM33.8 95.1c-1.4 3.8-3 5.2-4.7 5.9l-1.9-1.9c1.5-.6 2.7-1.7 3.5-3.7l-3.4-8.9h3l1.4 3.7c.2.5.4 1.2.6 1.9.2-.7.4-1.3.6-1.9l1.4-3.7H37l-3.2 8.6zM51.8 96l-1.1-3h-4.3l-1.1 3h-3.1l5.3-13.5h2.2L55 96h-3.2zm-2.9-8c-.1-.4-.3-.8-.4-1.2-.1.4-.3.9-.4 1.2l-.9 2.5h2.6l-.9-2.5zM58.1 96.3c-.6 0-1.7-1.2-1.7-1.7s1.2-1.7 1.7-1.7 1.7 1.2 1.7 1.7-1.1 1.7-1.7 1.7zM74.5 96l-.5-4.9c-.1-.7-.1-1.6-.1-2.5-.3.8-.8 1.8-1.1 2.5L70.3 96H69l-2.6-4.9c-.4-.8-.8-1.6-1.1-2.5 0 .9 0 1.7-.1 2.5l-.5 4.9h-3l1.2-13.4h2.7l2.9 5.6c.4.8 1 2 1.3 2.9.3-.9.9-2 1.3-2.9l2.9-5.6h2.5L77.7 96h-3.2zM81.2 96.3c-.6 0-1.7-1.2-1.7-1.7s1.2-1.7 1.7-1.7c.6 0 1.7 1.2 1.7 1.7.1.5-1.1 1.7-1.7 1.7zM94.4 96h-5V82.6h4.4c2.1 0 3.9 1.4 3.9 3.5 0 .8-.4 1.8-1.1 2.2 1.2.4 2.3 1.8 2.3 3.5 0 2.6-2 4.2-4.5 4.2zm-1.1-11h-1v2.8h1c.8 0 1.5-.4 1.5-1.4 0-1-.7-1.4-1.5-1.4zm.5 5.1h-1.5v3.5h1.5c1 0 2-.5 2-1.7s-1-1.8-2-1.8zM109.3 90.7l-1.4 1.4h-4.7c.1.8 1.2 1.7 2.8 1.7 1 0 2-.3 2.6-.7l-.3 2.6c-.7.4-1.8.6-3 .6-2.9 0-5.2-2-5.2-5.1 0-3.1 2.2-5 5-5 2.6 0 4.3 1.8 4.3 3.8 0 .2-.1.5-.1.7zm-4.2-2.2c-.9 0-1.7.7-1.8 1.6h3.2v-.2c0-.7-.6-1.4-1.4-1.4zM113.9 96.2c-1.3 0-2.2-.3-3-.7l-.3-2.7c.8.6 1.9 1 3 1 .6 0 .9-.3.9-.7 0-.4-.3-.6-.9-.7-1.8-.5-2.9-1.4-2.9-3.1 0-1.9 1.5-3.1 3.6-3.1 1.2 0 2.3.3 2.8.6l-.5 2.3c-.5-.3-1.2-.5-2-.5-.5 0-.8.2-.8.6 0 .4.3.5.8.7 2.1.6 3 1.6 3 3.2.1 1.7-1.1 3.1-3.7 3.1zM125.4 89H123v3.5c0 .8.4 1.2 1.3 1.2.4 0 .6 0 .8-.1l-.3 2.3c-.3.1-.8.3-1.4.3-2.1 0-3.4-1.1-3.4-3V89h-1.6v-2.5h1.6v-2l3.1-1.1v3.1h3.1l-.8 2.5z"/></g><g><path class="st0" d="M23.3 109.8c-.4-.1-.9-.3-1.2-.3-1.1 0-1.7.7-1.7 2v.9h2.7l-.6 2.5h-2.1v7h-3v-7H16v-2.5h1.4v-1.1c0-2.9 1.9-4.3 4.3-4.3.9 0 1.8.1 2.2.3l-.6 2.5zM28.7 122.3c-2.9 0-5.2-2-5.2-5.1s2.3-5.1 5.2-5.1c2.9 0 5.2 2 5.2 5.1s-2.4 5.1-5.2 5.1zm0-7.4c-1.2 0-2.1 1-2.1 2.4s1 2.4 2.1 2.4 2.1-1 2.1-2.4-1-2.4-2.1-2.4zM41.3 115.8c-.2-.1-.6-.2-.9-.2-1 0-1.9.5-1.9 2v4.4h-3.1v-9.5h3v2.1c.3-1.5 1.4-2.3 2.7-2.3.3 0 .7 0 .9.1l-.7 3.4zM54.4 122v-7h-2.9v7h-3v-7h-1.4v-2.5h1.4v-1.1c0-2.9 1.9-4.3 4.3-4.3.9 0 1.8.1 2.2.3l-.6 2.4c-.4-.1-.9-.3-1.2-.3-1.1 0-1.7.7-1.7 2v.9h5.9v9.5h-3zM65.4 122v-5.8c0-.7-.5-1.3-1.4-1.3-.9 0-1.5.6-1.5 1.3v5.8h-3.1v-9.5h2.8v1.3c.4-1 1.4-1.6 2.9-1.6 2.1 0 3.3 1.2 3.3 3.2v6.6h-3zM77.1 122.4c-.6-.1-1.2-.6-1.5-1.3-.4.8-1.3 1.2-2.5 1.2-1.7 0-3.2-1.2-3.2-3.1 0-1.7 1.4-2.9 3.3-3.1l1.9-.2v-.3c0-.6-.5-.9-1.5-.9-.9 0-2 .3-2.6.7l-.5-2.3c.8-.5 2.1-.8 3.3-.8 2.5 0 4.3 1.2 4.3 3.4v3.1c0 1.1.4 1.7 1.2 2l-2.2 1.6zm-1.9-4.5l-1.2.1c-.8.1-1.2.6-1.2 1.2 0 .5.4.9 1 .9.7 0 1.3-.6 1.3-1.4v-.8zM86.3 122v-5.8c0-.7-.5-1.3-1.4-1.3-.9 0-1.5.6-1.5 1.3v5.8h-3.1v-9.5h2.8v1.3c.4-1 1.4-1.6 2.9-1.6 2.1 0 3.3 1.2 3.3 3.2v6.6h-3zM98.6 115.6c-.6-.4-1.3-.6-2-.6-1.3 0-2.4 1-2.4 2.4s1.1 2.4 2.5 2.4c.8 0 1.4-.2 2.1-.5l-.3 2.6c-.6.3-1.4.5-2.3.5-2.7 0-5.1-1.9-5.1-5s2.5-5 5.1-5c1.3 0 2.3.3 3.1.7l-.7 2.5zM102.3 111.2c-.5 0-1.7-1.1-1.7-1.7s1.1-1.6 1.7-1.6c.5 0 1.7 1.1 1.7 1.6s-1.2 1.7-1.7 1.7zm-1.6 10.8v-9.5h3.1v9.5h-3.1zM112.5 122.4c-.6-.1-1.2-.6-1.5-1.3-.4.8-1.3 1.2-2.5 1.2-1.7 0-3.2-1.2-3.2-3.1 0-1.7 1.4-2.9 3.3-3.1l1.9-.2v-.3c0-.6-.5-.9-1.5-.9-.9 0-2 .3-2.6.7l-.5-2.3c.8-.5 2.1-.8 3.3-.8 2.5 0 4.3 1.2 4.3 3.4v3.1c0 1.1.4 1.7 1.2 2l-2.2 1.6zm-2-4.5l-1.2.1c-.8.1-1.2.6-1.2 1.2 0 .5.4.9 1 .9.7 0 1.3-.6 1.3-1.4v-.8zM118.9 122.4c-2-.1-3.3-1.1-3.3-3.4v-11.9h3v11.6c0 .8.4 1.2 1.3 1.3l-1 2.4z"/></g><g><path class="st0" d="M19.8 148.2c-1.3 0-2.2-.3-3-.7l-.3-2.7c.8.6 1.9 1 3 1 .6 0 .9-.3.9-.7 0-.4-.3-.6-.9-.7-1.8-.5-2.9-1.4-2.9-3.1 0-1.9 1.5-3.1 3.6-3.1 1.2 0 2.3.3 2.8.6l-.5 2.3c-.5-.3-1.2-.5-2-.5-.5 0-.8.2-.8.6 0 .4.3.5.8.7 2.1.6 3 1.6 3 3.2s-1.2 3.1-3.7 3.1zM31.3 141h-2.5v3.5c0 .8.4 1.2 1.3 1.2.4 0 .6 0 .8-.1l-.3 2.3c-.3.1-.8.3-1.4.3-2.1 0-3.4-1.1-3.4-3V141h-1.6v-2.5h1.6v-2l3.1-1.1v3.1H32l-.7 2.5zM38.8 141.8c-.2-.1-.6-.2-.9-.2-1 0-1.9.5-1.9 2v4.4h-3.1v-9.5h3v2.1c.3-1.5 1.4-2.3 2.7-2.3.3 0 .7 0 .9.1l-.7 3.4zM49.1 142.7l-1.4 1.4H43c.1.8 1.2 1.7 2.8 1.7 1 0 2-.3 2.6-.7l-.3 2.6c-.7.4-1.8.6-3 .6-2.9 0-5.2-2-5.2-5.1 0-3.1 2.2-5 5-5 2.6 0 4.3 1.8 4.3 3.8 0 .2 0 .5-.1.7zm-4.1-2.2c-.9 0-1.7.7-1.8 1.6h3.2v-.2c-.1-.7-.6-1.4-1.4-1.4zM56.8 148v-5.8c0-.7-.5-1.3-1.4-1.3-.9 0-1.5.6-1.5 1.3v5.8h-3.1v-9.5h2.8v1.3c.4-1 1.4-1.6 2.9-1.6 2.1 0 3.3 1.2 3.3 3.2v6.6h-3zM65.8 152.9c-2.8 0-4.6-1.6-4.6-3.6 0-1.4 1-2.3 2-2.6l-1.2-1.2c.1-.6.6-1.1 1.2-1.4-.7-.4-1.4-1.3-1.4-2.5 0-2 1.4-3.4 3.9-3.4.6 0 1 .1 1.4.2.4.1.9.2 1.4.2.5 0 1.1-.1 1.5-.3l.6 2.4c-.3.2-.8.3-1.2.3.1.2.2.6.2 1 0 1.6-1.3 2.9-3.1 3.1-.4 0-.6.1-.6.4 0 .1.1.2.3.3l1.5.5c1.9.7 2.9 1.6 2.9 3.4-.2 1.7-2 3.2-4.8 3.2zm.7-4.5l-1.1-.3c-.7 0-1.3.5-1.3 1.2s.6 1.2 1.7 1.2 1.7-.5 1.7-1c-.1-.5-.4-.9-1-1.1zm-.9-8c-.7 0-1.2.5-1.2 1.1 0 .6.5 1.1 1.2 1.1s1.2-.5 1.2-1.1c.1-.5-.4-1.1-1.2-1.1zM78.4 141h-2.5v3.5c0 .8.4 1.2 1.3 1.2.4 0 .6 0 .8-.1l-.3 2.3c-.3.1-.8.3-1.4.3-2.1 0-3.4-1.1-3.4-3V141h-1.6v-2.5h1.6v-2l3.1-1.1v3.1h3l-.6 2.5zM86.1 148v-5.8c0-.7-.5-1.3-1.4-1.3-.9 0-1.5.6-1.5 1.3v5.8h-3.1v-14.9h3v6.3c.5-.7 1.4-1.2 2.7-1.2 2.1 0 3.3 1.2 3.3 3.2v6.6h-3z"/></g></svg>