<svg xmlns="http://www.w3.org/2000/svg" viewBox="0 0 160 600"><path d="M25.3 44.8v-5.3h-5.2v5.3h-3.3V31.4h3.3v5.3h5.2v-5.3h3.3v13.4h-3.3zM39.3 39.5l-1.4 1.4h-4.7c.1.8 1.2 1.7 2.8 1.7 1 0 2-.3 2.6-.7l-.3 2.6c-.7.4-1.8.6-3 .6-2.9 0-5.2-2-5.2-5.1 0-3.1 2.2-5 5-5 2.6 0 4.3 1.8 4.3 3.8 0 .2-.1.5-.1.7zm-4.2-2.2c-.9 0-1.7.7-1.8 1.6h3.2v-.2c0-.7-.6-1.4-1.4-1.4zM44 45.2c-2-.1-3.3-1.1-3.3-3.4v-12h3v11.6c0 .8.4 1.2 1.3 1.3l-1 2.5zM51.5 45.1c-1 0-2-.3-2.4-.6v5.2h-3V35.3h2.7v1.2c.5-1 1.6-1.4 2.9-1.4 2.3 0 4.6 1.8 4.6 5 0 3-2.2 5-4.8 5zm-.6-7.4c-.9 0-1.5.5-1.9 1v3c.3.4.9.8 1.9.8 1.3 0 2.3-1 2.3-2.4s-.9-2.4-2.3-2.4zM67.6 45.1c-1 0-2-.3-2.4-.6v5.2h-3V35.3h2.7v1.2c.5-1 1.6-1.4 2.9-1.4 2.3 0 4.6 1.8 4.6 5 0 3-2.2 5-4.8 5zm-.5-7.4c-.9 0-1.5.5-1.9 1v3c.3.4.9.8 1.9.8 1.3 0 2.3-1 2.3-2.4s-1-2.4-2.3-2.4zM80.1 44.8v-1.3c-.4 1-1.4 1.6-2.9 1.6-2.1 0-3.3-1.2-3.3-3.2v-6.6H77v5.8c0 .7.5 1.3 1.4 1.3.9 0 1.5-.6 1.5-1.4v-5.8H83v9.5h-2.9zM91.1 37.8h-2.5v3.5c0 .8.4 1.2 1.3 1.2.4 0 .6 0 .8-.1l-.3 2.3c-.3.1-.8.3-1.4.3-2.1 0-3.4-1.1-3.4-3v-4.1H84v-2.5h1.6v-2l3.1-1.1v3.1h3.1l-.7 2.4z"/><g><path d="M22.5 69.8c-1.4 3.8-3 5.2-4.7 5.9l-1.9-1.9c1.5-.6 2.7-1.7 3.5-3.7L16 61.3h3l1.4 3.7c.2.5.4 1.2.6 1.9.2-.7.4-1.3.6-1.9l1.4-3.7h2.8l-3.3 8.5zM31 71.1c-2.9 0-5.2-2-5.2-5.1s2.3-5 5.2-5c2.9 0 5.2 2 5.2 5.1s-2.3 5-5.2 5zm0-7.4c-1.2 0-2.1 1-2.1 2.4s1 2.4 2.1 2.4 2.1-1 2.1-2.4-1-2.4-2.1-2.4zM43.8 70.8v-1.3c-.4 1-1.4 1.6-2.9 1.6-2.1 0-3.3-1.2-3.3-3.2v-6.6h3.1v5.8c0 .7.5 1.3 1.4 1.3.9 0 1.5-.6 1.5-1.4v-5.8h3.1v9.5h-2.9zM54.3 64.6c-.2-.1-.6-.2-.9-.2-1 0-1.9.5-1.9 2v4.4h-3.1v-9.5h3v2.1c.3-1.5 1.4-2.3 2.7-2.3.3 0 .7 0 .9.1l-.7 3.4zM72.2 70.8V65c0-.7-.3-1.3-1.3-1.3s-1.4.6-1.4 1.3v5.8h-3.1V65c0-.7-.3-1.3-1.3-1.3s-1.4.6-1.4 1.3v5.8h-3.1v-9.5h2.9v1.3c.4-1 1.3-1.6 2.8-1.6 1.4 0 2.4.5 2.8 1.6.4-.9 1.5-1.6 2.9-1.6 2.2 0 3.4 1.2 3.4 3.2v6.6h-3.2zM78.7 60c-.5 0-1.7-1.1-1.7-1.7s1.1-1.6 1.7-1.6 1.7 1.1 1.7 1.6-1.2 1.7-1.7 1.7zm-1.6 10.8v-9.5h3.1v9.5h-3.1zM88.1 70.8V65c0-.7-.5-1.3-1.4-1.3-.9 0-1.5.6-1.5 1.3v5.8h-3.1v-9.5h2.8v1.3c.4-1 1.4-1.6 2.9-1.6 2.1 0 3.3 1.2 3.3 3.2v6.6h-3zM100.1 70.8v-1.2c-.5 1-1.6 1.4-2.9 1.4-2.3 0-4.6-1.8-4.6-5 0-3.1 2.2-5.1 4.8-5.1 1 0 2 .3 2.4.7v-5.8h3v14.9h-2.7zm-.3-6.2c-.3-.4-.9-.9-1.9-.9-1.3 0-2.3 1-2.3 2.4s.9 2.4 2.3 2.4c.9 0 1.5-.5 1.9-1v-2.9z"/></g><g><path d="M23.4 97.2c-.6-.1-1.2-.6-1.5-1.3-.4.8-1.3 1.2-2.5 1.2-1.7 0-3.2-1.2-3.2-3.1 0-1.7 1.4-2.9 3.3-3.1l1.9-.2v-.3c0-.6-.5-.9-1.5-.9-.9 0-2 .3-2.6.7l-.5-2.3c.8-.5 2.1-.8 3.3-.8 2.5 0 4.3 1.2 4.3 3.4v3.1c0 1.1.4 1.7 1.2 2l-2.2 1.6zm-2-4.6l-1.2.1c-.8.1-1.2.6-1.2 1.2 0 .5.4.9 1 .9.7 0 1.3-.6 1.3-1.4v-.8zM32.5 96.8V91c0-.7-.5-1.3-1.4-1.3-.9 0-1.5.6-1.5 1.3v5.8h-3.1v-9.5h2.8v1.3c.4-1 1.4-1.6 2.9-1.6 2.1 0 3.3 1.2 3.3 3.2v6.6h-3zM44.5 96.8v-1.2c-.5 1-1.6 1.4-2.9 1.4-2.3 0-4.6-1.8-4.6-5 0-3.1 2.2-5.1 4.8-5.1 1 0 2 .3 2.4.7v-5.8h3v14.9h-2.7zm-.3-6.2c-.3-.4-.9-.9-1.9-.9-1.3 0-2.3 1-2.3 2.4s.9 2.4 2.3 2.4c.9 0 1.5-.5 1.9-1v-2.9zM60.1 84.6c-.4-.1-.9-.3-1.2-.3-1.1 0-1.7.7-1.7 2v.9h2.7l-.6 2.5h-2.1v7h-3v-7h-1.4v-2.5h1.4v-1.1c0-2.9 1.9-4.3 4.3-4.3.9 0 1.8.1 2.2.3l-.6 2.5zM67.4 97.2c-.6-.1-1.2-.6-1.5-1.3-.4.8-1.3 1.2-2.5 1.2-1.7 0-3.2-1.2-3.2-3.1 0-1.7 1.4-2.9 3.3-3.1l1.9-.2v-.3c0-.6-.5-.9-1.5-.9-.9 0-2 .3-2.6.7l-.5-2.3c.8-.5 2.1-.8 3.3-.8 2.5 0 4.3 1.2 4.3 3.4v3.1c0 1.1.4 1.7 1.2 2l-2.2 1.6zm-2-4.6l-1.2.1c-.8.1-1.2.6-1.2 1.2 0 .5.4.9 1 .9.7 0 1.3-.6 1.3-1.4v-.8zM82.1 96.8V91c0-.7-.3-1.3-1.3-1.3s-1.4.6-1.4 1.3v5.8h-3.1V91c0-.7-.3-1.3-1.3-1.3s-1.4.6-1.4 1.3v5.8h-3.1v-9.5h2.9v1.3c.4-1 1.3-1.6 2.8-1.6 1.4 0 2.4.5 2.8 1.6.4-.9 1.5-1.6 2.9-1.6 2.2 0 3.4 1.2 3.4 3.2v6.6h-3.2zM88.6 86c-.5 0-1.7-1.1-1.7-1.7s1.1-1.6 1.7-1.6c.5 0 1.7 1.1 1.7 1.6S89.2 86 88.6 86zm-1.5 10.8v-9.5h3.1v9.5h-3.1zM95.3 97.2c-2-.1-3.3-1.1-3.3-3.4v-12h3v11.6c0 .8.4 1.2 1.3 1.3l-1 2.5z"/><path d="M102.8 95.8c-1.4 3.8-3 5.2-4.7 5.9l-1.9-1.9c1.5-.6 2.7-1.7 3.5-3.7l-3.4-8.9h3l1.4 3.7c.2.5.4 1.2.6 1.9.2-.7.4-1.3.6-1.9l1.4-3.7h2.8l-3.3 8.6zM107.7 89.4l-1-.2c.7-.8 1.3-2 1.4-3-.5-.1-1.4-1-1.4-1.5 0-.6 1.2-1.7 1.7-1.7s1.7 1.1 1.7 1.7c.2 1.4-1.1 3.5-2.4 4.7zM113.9 97c-1.3 0-2.2-.3-3-.7l-.3-2.7c.8.6 1.9 1 3 1 .6 0 .9-.3.9-.7 0-.4-.3-.6-.9-.7-1.8-.5-2.9-1.4-2.9-3.1 0-1.9 1.5-3.1 3.6-3.1 1.2 0 2.3.3 2.8.6l-.5 2.3c-.5-.3-1.2-.5-2-.5-.5 0-.8.2-.8.6 0 .4.3.5.8.7 2.1.6 3 1.6 3 3.2s-1.2 3.1-3.7 3.1z"/></g><g><path d="M23.3 110.6c-.4-.1-.9-.3-1.2-.3-1.1 0-1.7.7-1.7 2v.9h2.7l-.6 2.5h-2.1v7h-3v-7H16v-2.5h1.4v-1.1c0-2.9 1.9-4.3 4.3-4.3.9 0 1.8.1 2.2.3l-.6 2.5zM30.2 122.8v-1.3c-.4 1-1.4 1.6-2.9 1.6-2.1 0-3.3-1.2-3.3-3.2v-6.6h3v5.8c0 .7.5 1.3 1.4 1.3.9 0 1.5-.6 1.5-1.4v-5.8H33v9.5h-2.8zM41.2 115.8h-2.5v3.5c0 .8.4 1.2 1.3 1.2.4 0 .6 0 .8-.1l-.3 2.3c-.3.1-.8.3-1.4.3-2.1 0-3.4-1.1-3.4-3v-4.1h-1.6v-2.5h1.6v-2l3.1-1.1v3.1h3.1l-.7 2.4zM48.9 122.8v-1.3c-.4 1-1.4 1.6-2.9 1.6-2.1 0-3.3-1.2-3.3-3.2v-6.6h3.1v5.8c0 .7.5 1.3 1.4 1.3.9 0 1.5-.6 1.5-1.4v-5.8h3.1v9.5h-2.9zM59.4 116.6c-.2-.1-.6-.2-.9-.2-1 0-1.9.5-1.9 2v4.4h-3.1v-9.5h3v2.1c.3-1.5 1.4-2.3 2.7-2.3.3 0 .7 0 .9.1l-.7 3.4zM69.6 117.5l-1.4 1.4h-4.7c.1.8 1.2 1.7 2.8 1.7 1 0 2-.3 2.6-.7l-.3 2.6c-.7.4-1.8.6-3 .6-2.9 0-5.2-2-5.2-5.1 0-3.1 2.2-5 5-5 2.6 0 4.3 1.8 4.3 3.8 0 .2-.1.5-.1.7zm-4.2-2.2c-.9 0-1.7.7-1.8 1.6h3.2v-.2c0-.7-.6-1.4-1.4-1.4zM82.2 123.2c-.6-.1-1.2-.6-1.5-1.3-.4.8-1.3 1.2-2.5 1.2-1.7 0-3.2-1.2-3.2-3.1 0-1.7 1.4-2.9 3.3-3.1l1.9-.2v-.3c0-.6-.5-.9-1.5-.9-.9 0-2 .3-2.6.7l-.5-2.3c.8-.5 2.1-.8 3.3-.8 2.5 0 4.3 1.2 4.3 3.4v3.1c0 1.1.4 1.7 1.2 2l-2.2 1.6zm-2-4.6l-1.2.1c-.8.1-1.2.6-1.2 1.2 0 .5.4.9 1 .9.7 0 1.3-.6 1.3-1.4v-.8zM91.4 115.8h-2.5v3.5c0 .8.4 1.2 1.3 1.2.4 0 .6 0 .8-.1l-.3 2.3c-.3.1-.8.3-1.4.3-2.1 0-3.4-1.1-3.4-3v-4.1h-1.6v-2.5h1.6v-2l3.1-1.1v3.1h3l-.6 2.4zM106.1 117.5l-1.4 1.4H100c.1.8 1.2 1.7 2.8 1.7 1 0 2-.3 2.6-.7l-.3 2.6c-.7.4-1.8.6-3 .6-2.9 0-5.2-2-5.2-5.1 0-3.1 2.2-5 5-5 2.6 0 4.3 1.8 4.3 3.8 0 .2 0 .5-.1.7zm-4.2-2.2c-.9 0-1.7.7-1.8 1.6h3.2v-.2c0-.7-.5-1.4-1.4-1.4zM114.1 123.2c-.6-.1-1.2-.6-1.5-1.3-.4.8-1.3 1.2-2.5 1.2-1.7 0-3.2-1.2-3.2-3.1 0-1.7 1.4-2.9 3.3-3.1l1.9-.2v-.3c0-.6-.5-.9-1.5-.9-.9 0-2 .3-2.6.7l-.5-2.3c.8-.5 2.1-.8 3.3-.8 2.5 0 4.3 1.2 4.3 3.4v3.1c0 1.1.4 1.7 1.2 2l-2.2 1.6zm-2-4.6l-1.2.1c-.8.1-1.2.6-1.2 1.2 0 .5.4.9 1 .9.7 0 1.3-.6 1.3-1.4v-.8zM120.2 123c-1.3 0-2.2-.3-3-.7l-.3-2.7c.8.6 1.9 1 3 1 .6 0 .9-.3.9-.7 0-.4-.3-.6-.9-.7-1.8-.5-2.9-1.4-2.9-3.1 0-1.9 1.5-3.1 3.6-3.1 1.2 0 2.3.3 2.8.6l-.5 2.3c-.5-.3-1.2-.5-2-.5-.5 0-.8.2-.8.6 0 .4.3.5.8.7 2.1.6 3 1.6 3 3.2.1 1.6-1.1 3.1-3.7 3.1zM133.9 117.5l-1.4 1.4h-4.7c.1.8 1.2 1.7 2.8 1.7 1 0 2-.3 2.6-.7l-.3 2.6c-.7.4-1.8.6-3 .6-2.9 0-5.2-2-5.2-5.1 0-3.1 2.2-5 5-5 2.6 0 4.3 1.8 4.3 3.8 0 .2 0 .5-.1.7zm-4.2-2.2c-.9 0-1.7.7-1.8 1.6h3.2v-.2c0-.7-.5-1.4-1.4-1.4z"/></g><g><path d="M27.2 148.9h-2.1l-1.3-3.8c-.2-.6-.4-1.3-.6-2-.1.7-.3 1.4-.5 2l-1.3 3.8h-2l-3.3-9.6h2.8l1.2 3.6c.2.5.4 1.2.5 1.8.1-.6.3-1.3.5-1.8l1.2-3.6h2.3l1.2 3.6c.2.6.3 1.2.4 1.8.1-.6.3-1.3.5-1.8l1.2-3.6h2.6l-3.3 9.6zM33 138c-.5 0-1.7-1.1-1.7-1.7s1.1-1.6 1.7-1.6 1.7 1.1 1.7 1.6-1.2 1.7-1.7 1.7zm-1.6 10.8v-9.5h3.1v9.5h-3.1zM42.7 141.8h-2.5v3.5c0 .8.4 1.2 1.3 1.2.4 0 .6 0 .8-.1l-.3 2.3c-.3.1-.8.3-1.4.3-2.1 0-3.4-1.1-3.4-3v-4.1h-1.6v-2.5h1.6v-2l3.1-1.1v3.1h3.1l-.7 2.4zM50.2 148.8V143c0-.7-.5-1.3-1.4-1.3-.9 0-1.5.6-1.5 1.3v5.8h-3.1v-14.9h3v6.3c.5-.7 1.4-1.2 2.7-1.2 2.1 0 3.3 1.2 3.3 3.2v6.6h-3zM65.8 138.1v10.7h-3.3v-10.7h-3.8v-2.7h10.9v2.7h-3.8zM70.8 148.8v-13.4h3.3v13.4h-3.3zM84.7 148.8l-1.1-3h-4.3l-1.1 3h-3.1l5.3-13.5h2.2l5.3 13.5h-3.2zm-2.8-8.1c-.1-.4-.3-.8-.4-1.2-.1.4-.3.9-.4 1.2l-.9 2.5h2.6l-.9-2.5zM98.1 148.8l-1.1-3h-4.3l-1.1 3h-3.1l5.3-13.5H96l5.3 13.5h-3.2zm-2.8-8.1c-.1-.4-.3-.8-.4-1.2-.1.4-.3.9-.4 1.2l-.9 2.5h2.6l-.9-2.5zM107 148.8v-13.4h3.3v10.7h5v2.7H107zM117.8 138c-.5 0-1.7-1.1-1.7-1.7s1.1-1.6 1.7-1.6c.5 0 1.7 1.1 1.7 1.6s-1.1 1.7-1.7 1.7zm-1.5 10.8v-9.5h3.1v9.5h-3.1zM127.8 136.6c-.4-.1-.9-.3-1.2-.3-1.1 0-1.7.7-1.7 2v.9h2.7l-.6 2.5h-2.1v7h-3v-7h-1.4v-2.5h1.4v-1.1c0-2.9 1.9-4.3 4.3-4.3.9 0 1.8.1 2.2.3l-.6 2.5zM137 143.5l-1.4 1.4h-4.7c.1.8 1.2 1.7 2.8 1.7 1 0 2-.3 2.6-.7l-.3 2.6c-.7.4-1.8.6-3 .6-2.9 0-5.2-2-5.2-5.1 0-3.1 2.2-5 5-5 2.6 0 4.3 1.8 4.3 3.8-.1.2-.1.5-.1.7zm-4.2-2.2c-.9 0-1.7.7-1.8 1.6h3.2v-.2c0-.7-.6-1.4-1.4-1.4z"/></g><g><path d="M18.3 164c-.5 0-1.7-1.1-1.7-1.7s1.1-1.6 1.7-1.6 1.7 1.1 1.7 1.6-1.1 1.7-1.7 1.7zm-1.5 10.8v-9.5h3.1v9.5h-3.1zM27.7 174.8V169c0-.7-.5-1.3-1.4-1.3-.9 0-1.5.6-1.5 1.3v5.8h-3.1v-9.5h2.8v1.3c.4-1 1.4-1.6 2.9-1.6 2.1 0 3.3 1.2 3.3 3.2v6.6h-3zM35.6 175c-1.3 0-2.2-.3-3-.7l-.3-2.7c.8.6 1.9 1 3 1 .6 0 .9-.3.9-.7 0-.4-.3-.6-.9-.7-1.8-.5-2.9-1.4-2.9-3.1 0-1.9 1.5-3.1 3.6-3.1 1.2 0 2.3.3 2.8.6l-.5 2.3c-.5-.3-1.2-.5-2-.5-.5 0-.8.2-.8.6 0 .4.3.5.8.7 2.1.6 3 1.6 3 3.2.1 1.6-1.1 3.1-3.7 3.1zM47 174.8v-1.3c-.4 1-1.4 1.6-2.9 1.6-2.1 0-3.3-1.2-3.3-3.2v-6.6h3.1v5.8c0 .7.5 1.3 1.4 1.3.9 0 1.5-.6 1.5-1.4v-5.8h3.1v9.5H47zM57.5 168.5c-.2-.1-.6-.2-.9-.2-1 0-1.9.5-1.9 2v4.4h-3.1v-9.5h3v2.1c.3-1.5 1.4-2.3 2.7-2.3.3 0 .7 0 .9.1l-.7 3.4zM65.7 175.2c-.6-.1-1.2-.6-1.5-1.3-.4.8-1.3 1.2-2.5 1.2-1.7 0-3.2-1.2-3.2-3.1 0-1.7 1.4-2.9 3.3-3.1l1.9-.2v-.3c0-.6-.5-.9-1.5-.9-.9 0-2 .3-2.6.7l-.5-2.3c.8-.5 2.1-.8 3.3-.8 2.5 0 4.3 1.2 4.3 3.4v3.1c0 1.1.4 1.7 1.2 2l-2.2 1.6zm-1.9-4.6l-1.2.1c-.8.1-1.2.6-1.2 1.2 0 .5.4.9 1 .9.7 0 1.3-.6 1.3-1.4v-.8zM74.8 174.8V169c0-.7-.5-1.3-1.4-1.3-.9 0-1.5.6-1.5 1.3v5.8h-3.1v-9.5h2.8v1.3c.4-1 1.4-1.6 2.9-1.6 2.1 0 3.3 1.2 3.3 3.2v6.6h-3zM86.8 168.3c-.6-.4-1.3-.6-2-.6-1.3 0-2.4 1-2.4 2.4s1.1 2.4 2.5 2.4c.8 0 1.4-.2 2.1-.5l-.3 2.6c-.6.3-1.4.5-2.3.5-2.7 0-5.1-1.9-5.1-5s2.5-5 5.1-5c1.3 0 2.3.3 3.1.7l-.7 2.5zM97.2 169.5l-1.4 1.4h-4.7c.1.8 1.2 1.7 2.8 1.7 1 0 2-.3 2.6-.7l-.3 2.6c-.7.4-1.8.6-3 .6-2.9 0-5.2-2-5.2-5.1 0-3.1 2.2-5 5-5 2.6 0 4.3 1.8 4.3 3.8 0 .2-.1.5-.1.7zm-4.2-2.2c-.9 0-1.7.7-1.8 1.6h3.2v-.2c0-.7-.6-1.4-1.4-1.4zM99.9 175.1c-.6 0-1.7-1.2-1.7-1.7s1.2-1.7 1.7-1.7c.6 0 1.7 1.2 1.7 1.7s-1.2 1.7-1.7 1.7z"/></g></svg>