<svg id="Layer_1" xmlns="http://www.w3.org/2000/svg" viewBox="0 0 160 600"><style>.st0{fill:#f9e038}</style><path class="st0" d="M32 44.9h-2.1L28 39c-.3-.9-.6-1.8-.9-3-.3 1.2-.6 2.1-.9 3l-2 5.9h-2l-4.5-13.5h3.2l1.7 5.4c.3.8.5 1.7.7 2.7.2-1 .4-1.8.7-2.7l1.8-5.4h2.8l1.7 5.4c.3.8.5 1.7.7 2.7.2-1 .5-1.9.7-2.7l1.8-5.4h2.8L32 44.9zM43.5 44.8V39c0-.7-.5-1.3-1.4-1.3-.9 0-1.5.6-1.5 1.3v5.8h-3.1v-15h3v6.3c.5-.7 1.4-1.2 2.7-1.2 2.1 0 3.3 1.2 3.3 3.2v6.6h-3zM53.8 43.8c-1.4 3.8-3 5.2-4.7 5.9l-1.9-1.9c1.5-.6 2.7-1.7 3.5-3.7l-3.4-8.9h3l1.4 3.7c.2.5.4 1.2.6 1.9.2-.7.4-1.3.6-1.9l1.4-3.7H57l-3.2 8.6zM69.6 44.8v-1.2c-.5 1-1.6 1.4-2.9 1.4-2.3 0-4.6-1.8-4.6-5 0-3.1 2.2-5.1 4.8-5.1 1 0 2 .3 2.4.7v-5.8h3v14.9h-2.7zm-.2-6.2c-.3-.4-.9-.9-1.9-.9-1.3 0-2.3 1-2.3 2.4s.9 2.4 2.3 2.4c.9 0 1.5-.5 1.9-1v-2.9zM78.9 45.1c-2.9 0-5.2-2-5.2-5.1s2.3-5.1 5.2-5.1c2.9 0 5.2 2 5.2 5.1s-2.3 5.1-5.2 5.1zm0-7.4c-1.2 0-2.1 1-2.1 2.4s1 2.4 2.1 2.4 2.1-1 2.1-2.4-.9-2.4-2.1-2.4zM94.2 39.5l-1.4 1.4h-4.7c.1.8 1.2 1.7 2.8 1.7 1 0 2-.3 2.6-.7l-.3 2.6c-.7.4-1.8.6-3 .6-2.9 0-5.2-2-5.2-5.1 0-3.1 2.2-5 5-5 2.6 0 4.3 1.8 4.3 3.8 0 .2-.1.5-.1.7zM90 37.3c-.9 0-1.7.7-1.8 1.6h3.2v-.2c0-.7-.6-1.4-1.4-1.4zM98.6 45c-1.3 0-2.2-.3-3-.7l-.3-2.7c.8.6 1.9 1 3 1 .6 0 .9-.3.9-.7 0-.4-.3-.6-.9-.7-1.8-.5-2.9-1.4-2.9-3.1 0-1.9 1.5-3.1 3.6-3.1 1.2 0 2.3.3 2.8.6l-.5 2.3c-.5-.3-1.2-.5-2-.5-.5 0-.8.2-.8.6 0 .4.3.5.8.7 2.1.6 3 1.6 3 3.2s-1.1 3.1-3.7 3.1z"/><g><path class="st0" d="M24.8 60.1v10.7h-3.3V60.1h-3.8v-2.7h10.9v2.7h-3.8zM29.7 70.8V57.4H33v13.4h-3.3zM43.7 70.8l-1.1-3h-4.3l-1.1 3h-3.1l5.3-13.5h2.2l5.3 13.5h-3.2zm-2.9-8.1c-.1-.4-.3-.8-.4-1.2-.1.4-.3.9-.4 1.2l-.9 2.5h2.6l-.9-2.5zM57 70.8l-1.1-3h-4.3l-1.1 3h-3.1l5.3-13.5H55l5.3 13.5H57zm-2.8-8.1c-.1-.4-.3-.8-.4-1.2-.1.4-.3.9-.4 1.2l-.9 2.5h2.6l-.9-2.5zM66 70.8V57.4h3.3v10.7h5v2.7H66zM76.7 60c-.5 0-1.7-1.1-1.7-1.7s1.1-1.6 1.7-1.6 1.7 1.1 1.7 1.6-1.1 1.7-1.7 1.7zm-1.5 10.8v-9.5h3.1v9.5h-3.1zM86.8 58.6c-.4-.1-.9-.3-1.2-.3-1.1 0-1.7.7-1.7 2v.9h2.7l-.6 2.5h-2.1v7h-3v-7h-1.4v-2.5h1.4v-1.1c0-2.9 1.9-4.3 4.3-4.3.9 0 1.8.1 2.2.3l-.6 2.5zM95.9 65.5l-1.4 1.4h-4.7c.1.8 1.2 1.7 2.8 1.7 1 0 2-.3 2.6-.7l-.2 2.6c-.7.4-1.8.6-3 .6-2.9 0-5.2-2-5.2-5.1 0-3.1 2.2-5 5-5 2.6 0 4.3 1.8 4.3 3.8-.1.2-.1.5-.2.7zm-4.2-2.2c-.9 0-1.7.7-1.8 1.6h3.2v-.2c0-.7-.5-1.4-1.4-1.4z"/></g><g><path class="st0" d="M22.7 101.6c-2.8 0-4.6-1.6-4.6-3.6 0-1.4 1-2.3 2-2.6l-1.2-1.2c.1-.6.6-1.1 1.2-1.4-.7-.4-1.4-1.3-1.4-2.5 0-2 1.4-3.4 3.9-3.4.6 0 1 .1 1.4.2.4.1.9.2 1.4.2.5 0 1.1-.1 1.5-.3l.6 2.4c-.3.2-.8.3-1.2.3.1.2.2.6.2 1 0 1.6-1.3 2.9-3.1 3.1-.4 0-.6.1-.6.4 0 .1.1.2.3.3l1.5.5c1.9.7 2.9 1.6 2.9 3.4-.3 1.8-2.1 3.2-4.8 3.2zm.6-4.4l-1.1-.3c-.7 0-1.3.5-1.3 1.2s.6 1.2 1.7 1.2 1.7-.5 1.7-1-.4-1-1-1.1zm-.8-8c-.7 0-1.2.5-1.2 1.1 0 .6.5 1.1 1.2 1.1s1.2-.5 1.2-1.1c0-.6-.5-1.1-1.2-1.1zM37 91.5l-1.4 1.4h-4.7c.1.8 1.2 1.7 2.8 1.7 1 0 2-.3 2.6-.7l-.3 2.6c-.7.4-1.8.6-3 .6-2.9 0-5.2-2-5.2-5.1 0-3.1 2.2-5 5-5 2.6 0 4.3 1.8 4.3 3.8-.1.2-.1.5-.1.7zm-4.2-2.2c-.9 0-1.7.7-1.8 1.6h3.2v-.2c0-.7-.6-1.4-1.4-1.4zM44.8 89.8h-2.5v3.5c0 .8.4 1.2 1.3 1.2.4 0 .6 0 .8-.1l-.3 2.3c-.3.1-.8.3-1.4.3-2.1 0-3.4-1.1-3.4-3v-4.1h-1.6v-2.5h1.6v-2l3.1-1.1v3.1h3.1l-.7 2.4zM52.2 89.4c-.5 0-1.7-1.1-1.7-1.7 0-1.3 1.3-3.5 2.5-4.6l1 .2c-.7.8-1.3 2-1.4 3 .5.1 1.4 1 1.4 1.5-.1.5-1.3 1.6-1.8 1.6zm4.3 0c-.5 0-1.7-1.1-1.7-1.7 0-1.3 1.3-3.5 2.5-4.6l1 .2c-.7.8-1.3 2-1.4 3 .5.1 1.4 1 1.4 1.5-.1.5-1.3 1.6-1.8 1.6zM66.5 89.8H64v3.5c0 .8.4 1.2 1.3 1.2.4 0 .6 0 .8-.1l-.3 2.3c-.3.1-.8.3-1.4.3-2.1 0-3.4-1.1-3.4-3v-4.1h-1.6v-2.5H61v-2l3.1-1.1v3.1h3.1l-.7 2.4zM72.5 97.1c-2.9 0-5.2-2-5.2-5.1s2.3-5.1 5.2-5.1c2.9 0 5.2 2 5.2 5.1s-2.3 5.1-5.2 5.1zm0-7.4c-1.2 0-2.1 1-2.1 2.4s1 2.4 2.1 2.4 2.1-1 2.1-2.4-.9-2.4-2.1-2.4zM84.5 97.1c-1 0-2-.3-2.4-.6v5.2h-3V87.3h2.7v1.2c.5-1 1.6-1.4 2.9-1.4 2.3 0 4.6 1.8 4.6 5 0 3-2.2 5-4.8 5zm-.6-7.4c-.9 0-1.5.5-1.9 1v3c.3.4.9.8 1.9.8 1.3 0 2.3-1 2.3-2.4s-.9-2.4-2.3-2.4z"/></g><g><path class="st0" d="M22.7 127.6c-2.8 0-4.6-1.6-4.6-3.6 0-1.4 1-2.3 2-2.6l-1.2-1.2c.1-.6.6-1.1 1.2-1.4-.7-.4-1.4-1.3-1.4-2.5 0-2 1.4-3.4 3.9-3.4.6 0 1 .1 1.4.2.4.1.9.2 1.4.2.5 0 1.1-.1 1.5-.3l.6 2.4c-.3.2-.8.3-1.2.3.1.2.2.6.2 1 0 1.6-1.3 2.9-3.1 3.1-.4 0-.6.1-.6.4 0 .1.1.2.3.3l1.5.5c1.9.7 2.9 1.6 2.9 3.4-.3 1.8-2.1 3.2-4.8 3.2zm.6-4.4l-1.1-.3c-.7 0-1.3.5-1.3 1.2s.6 1.2 1.7 1.2 1.7-.5 1.7-1-.4-1-1-1.1zm-.8-8c-.7 0-1.2.5-1.2 1.1 0 .6.5 1.1 1.2 1.1s1.2-.5 1.2-1.1c0-.6-.5-1.1-1.2-1.1zM34.2 116.6c-.2-.1-.6-.2-.9-.2-1 0-1.9.5-1.9 2v4.4h-3.1v-9.5h3v2.1c.3-1.5 1.4-2.3 2.7-2.3.3 0 .7 0 .9.1l-.7 3.4zM42.5 123.2c-.6-.1-1.2-.6-1.5-1.3-.4.8-1.3 1.2-2.5 1.2-1.7 0-3.2-1.2-3.2-3.1 0-1.7 1.4-2.9 3.3-3.1l1.9-.2v-.3c0-.6-.5-.9-1.5-.9-.9 0-2 .3-2.6.7l-.5-2.3c.8-.5 2.1-.8 3.3-.8 2.5 0 4.3 1.2 4.3 3.4v3.1c0 1.1.4 1.7 1.2 2l-2.2 1.6zm-2-4.6l-1.2.1c-.8.1-1.2.6-1.2 1.2 0 .5.4.9 1 .9.7 0 1.3-.6 1.3-1.4v-.8zM52.5 122.8v-1.2c-.5 1-1.6 1.4-2.9 1.4-2.3 0-4.6-1.8-4.6-5 0-3.1 2.2-5.1 4.8-5.1 1 0 2 .3 2.4.7v-5.8h3v14.9h-2.7zm-.3-6.2c-.3-.4-.9-.9-1.9-.9-1.3 0-2.3 1-2.3 2.4s.9 2.4 2.3 2.4c.9 0 1.5-.5 1.9-1v-2.9zM65.7 117.5l-1.4 1.4h-4.7c.1.8 1.2 1.7 2.8 1.7 1 0 2-.3 2.6-.7l-.3 2.6c-.7.4-1.8.6-3 .6-2.9 0-5.2-2-5.2-5.1 0-3.1 2.2-5 5-5 2.6 0 4.3 1.8 4.3 3.8 0 .2 0 .5-.1.7zm-4.1-2.2c-.9 0-1.7.7-1.8 1.6H63v-.2c-.1-.7-.6-1.4-1.4-1.4zM70.2 123c-1.3 0-2.2-.3-3-.7l-.3-2.7c.8.6 1.9 1 3 1 .6 0 .9-.3.9-.7 0-.4-.3-.6-.9-.7-1.8-.5-2.9-1.4-2.9-3.1 0-1.9 1.5-3.1 3.6-3.1 1.2 0 2.3.3 2.8.6l-.5 2.3c-.5-.3-1.2-.5-2-.5-.5 0-.8.2-.8.6 0 .4.3.5.8.7 2.1.6 3 1.6 3 3.2s-1.2 3.1-3.7 3.1zM75.7 115.4l-1-.2c.7-.8 1.3-2 1.4-3-.5-.1-1.4-1-1.4-1.5 0-.6 1.2-1.7 1.7-1.7s1.7 1.1 1.7 1.7c.1 1.4-1.2 3.5-2.4 4.7zm4.3 0l-1-.2c.7-.8 1.3-2 1.4-3-.5-.1-1.4-1-1.4-1.5 0-.6 1.2-1.7 1.7-1.7s1.7 1.1 1.7 1.7c.1 1.4-1.2 3.5-2.4 4.7zM89 116.2c-.5.6-.7 1.1-.7 1.7 0 .3 0 .7.1.9l-2.6-.5c-.1-.4-.1-.7-.1-1.1 0-1.1.4-2.1 1.2-2.9.5-.6.8-1 .8-1.6 0-.4-.4-.9-1.2-.9-.8 0-1.4.3-2.1.7l-.6-2.6c.8-.5 1.8-.8 3-.8 2.5 0 4.1 1.4 4.1 3.5-.1 1.3-.7 2.3-1.9 3.6zm-1.9 6.9c-.6 0-1.7-1.2-1.7-1.7s1.2-1.7 1.7-1.7 1.7 1.2 1.7 1.7-1.2 1.7-1.7 1.7z"/></g></svg>