<svg id="Layer_1" xmlns="http://www.w3.org/2000/svg" xmlns:xlink="http://www.w3.org/1999/xlink" viewBox="0 0 160 600"><style>.st0{clip-path:url(#SVGID_2_);fill:#fff}.st1{clip-path:url(#SVGID_4_);fill:url(#SVGID_5_)}.st2{clip-path:url(#SVGID_7_);fill:url(#SVGID_8_)}.st3{clip-path:url(#SVGID_10_);fill:url(#SVGID_11_)}.st4{clip-path:url(#SVGID_13_);fill:url(#SVGID_14_)}.st5{clip-path:url(#SVGID_16_);fill:url(#SVGID_17_)}.st6{fill:#626366}.st7{fill:#404041}.st8{fill:#808184}.st9{fill:#231f20}.st10,.st11,.st12,.st13{clip-path:url(#SVGID_19_);fill:#404041}.st11,.st12,.st13{fill:#eaebec}.st12,.st13{fill:#dbdcdd}.st13{fill:#fff}.st14{clip-path:url(#SVGID_21_);fill:url(#SVGID_22_)}.st15{fill:#005494}.st16{fill:#0081bd}.st17{fill:#fff}</style><defs><path id="SVGID_1_" d="M24.7 221.7h110.6v110.6H24.7z"/></defs><clipPath id="SVGID_2_"><use xlink:href="#SVGID_1_" overflow="visible"/></clipPath><path class="st0" d="M69.8 221.7c-8.2 0-16 3.2-21.9 9.1-5.9 5.9-9.1 13.6-9.1 21.8v65.8h65.7c17.1 0 31.1-13.9 31.1-31.1v-65.7H69.8z"/><defs><path id="SVGID_3_" d="M104.4 318.5H38.7l-13.8 13.8h70.3c5.6-.6 10.6-3.1 14.4-6.8l10.3-10.3-.6-.6c-4.5 2.5-9.5 3.9-14.9 3.9"/></defs><clipPath id="SVGID_4_"><use xlink:href="#SVGID_3_" overflow="visible"/></clipPath><linearGradient id="SVGID_5_" gradientUnits="userSpaceOnUse" x1="1.056" y1="601.052" x2="2.056" y2="601.052" gradientTransform="matrix(0 -17.888 -17.888 0 10823.925 351.507)"><stop offset="0" stop-color="#10b0e6"/><stop offset=".159" stop-color="#0faae1"/><stop offset=".368" stop-color="#0c9ad2"/><stop offset=".604" stop-color="#077fba"/><stop offset=".858" stop-color="#015999"/><stop offset=".89" stop-color="#005494"/><stop offset="1" stop-color="#005494"/></linearGradient><path class="st1" d="M24.8 314.7h95v17.7h-95z"/><defs><path id="SVGID_6_" d="M31.7 247.6c-4.3 4.4-7 10.4-7 17.1v67.6h.1l13.8-13.8v-65.8c0-5.2 1.3-10.3 3.8-14.8l-.6-.6-10.1 10.3z"/></defs><clipPath id="SVGID_7_"><use xlink:href="#SVGID_6_" overflow="visible"/></clipPath><linearGradient id="SVGID_8_" gradientUnits="userSpaceOnUse" x1="1.01" y1="601.01" x2="2.01" y2="601.01" gradientTransform="matrix(0 -95.5682 -95.5682 0 57471.086 429.813)"><stop offset="0" stop-color="#0081bd"/><stop offset=".393" stop-color="#006fac"/><stop offset=".85" stop-color="#005494"/><stop offset="1" stop-color="#005494"/></linearGradient><path class="st2" d="M24.7 237.3h17.8v95H24.7z"/><defs><path id="SVGID_9_" d="M104.4 318.5H38.7l-13.8 13.8h70.3c5.6-.6 10.6-3.1 14.4-6.8l10.3-10.3-.6-.6c-4.5 2.5-9.5 3.9-14.9 3.9"/></defs><clipPath id="SVGID_10_"><use xlink:href="#SVGID_9_" overflow="visible"/></clipPath><linearGradient id="SVGID_11_" gradientUnits="userSpaceOnUse" x1=".989" y1="601.011" x2="1.989" y2="601.011" gradientTransform="matrix(94.1191 0 0 -94.1191 -68.072 56890.172)"><stop offset="0" stop-color="#10b0e6"/><stop offset=".161" stop-color="#0faae1"/><stop offset=".372" stop-color="#0c9ad2"/><stop offset=".61" stop-color="#077fba"/><stop offset=".867" stop-color="#015999"/><stop offset=".9" stop-color="#005494"/><stop offset="1" stop-color="#005494"/></linearGradient><path class="st3" d="M24.8 314.7h95v17.7h-95z"/><g><defs><path id="SVGID_12_" d="M31.7 247.6c-4.3 4.4-7 10.4-7 17.1v67.6h.1l13.8-13.8v-65.8c0-5.2 1.3-10.3 3.8-14.8l-.6-.6-10.1 10.3z"/></defs><clipPath id="SVGID_13_"><use xlink:href="#SVGID_12_" overflow="visible"/></clipPath><linearGradient id="SVGID_14_" gradientUnits="userSpaceOnUse" x1="1.01" y1="601.01" x2="2.01" y2="601.01" gradientTransform="matrix(0 -95.5682 -95.5682 0 57471.086 429.813)"><stop offset="0" stop-color="#0081bd"/><stop offset=".393" stop-color="#006fac"/><stop offset=".85" stop-color="#005494"/><stop offset="1" stop-color="#005494"/></linearGradient><path class="st4" d="M24.7 237.3h17.8v95H24.7z"/></g><g><defs><path id="SVGID_15_" d="M69.8 225.7c-14.9 0-27.1 12.3-27.1 27v61.8h61.7c15 0 27.1-12.2 27.1-27.1v-61.7H69.8z"/></defs><clipPath id="SVGID_16_"><use xlink:href="#SVGID_15_" overflow="visible"/></clipPath><linearGradient id="SVGID_17_" gradientUnits="userSpaceOnUse" x1="1" y1="601.011" x2="2" y2="601.011" gradientTransform="scale(125.3948 -125.3948) rotate(45 729.182 298.459)"><stop offset="0" stop-color="#9cdbf8"/><stop offset="1" stop-color="#0088cf"/></linearGradient><path class="st5" d="M-1.8 270.1l88.9-88.9 88.8 88.9L87.1 359z"/></g><path class="st6" d="M118 298.3H81.1l-8.1 8.2h36.9z"/><path class="st7" d="M116.1 304.7h-34l-7.1 7.1h34z"/><path class="st8" d="M82.1 299.4h34v5.3h-34z"/><path class="st9" d="M73 301.2v5.3l8.1-8.2.4-5.7z"/><g><defs><path id="SVGID_18_" d="M24.7 221.7h110.6v110.6H24.7z"/></defs><clipPath id="SVGID_19_"><use xlink:href="#SVGID_18_" overflow="visible"/></clipPath><path class="st10" d="M118 293.6c0-.7-.6-1.3-1.3-1.3H82.4c-.7 0-1.3.6-1.3 1.3v4.8H118v-4.8z"/><path class="st11" d="M50.2 301.5l.3 4.8 20.4-1.5-.3-4.7z"/><path class="st12" d="M50.5 305v1.3l20.4-1.5-.1-1.2z"/><path class="st13" d="M70.9 304.8c-.4 0-.7-1-.8-2.3-.1-1.3.1-2.4.5-2.4s.7 1 .8 2.3c.1 1.3-.2 2.4-.5 2.4"/></g><g><defs><path id="SVGID_20_" d="M46.8 310.3l-8.1 8.2h77.9l8.1-8.2z"/></defs><clipPath id="SVGID_21_"><use xlink:href="#SVGID_20_" overflow="visible"/></clipPath><linearGradient id="SVGID_22_" gradientUnits="userSpaceOnUse" x1=".99" y1="601.01" x2="1.99" y2="601.01" gradientTransform="matrix(101.2313 0 0 -101.2313 -61.702 61155.43)"><stop offset="0" stop-color="#10b0e6"/><stop offset=".087" stop-color="#10b0e6"/><stop offset=".322" stop-color="#0d9dd5"/><stop offset=".796" stop-color="#046ba9"/><stop offset="1" stop-color="#005494"/></linearGradient><path class="st14" d="M38.7 310.3h86v8.2h-86z"/></g><path class="st15" d="M46.8 304.2h77.9v6.1H46.8z"/><path class="st16" d="M46.8 304.2l-8.1 8.2v6.1l8.1-8.2z"/><g><path class="st17" d="M57.4 246.8c.1.2.1.3.3.3h.7c0-.2.1-.3.2-.3s.2.1.3.1l-.1.2h.1c.3-.2.5-.3.8-.3v.3c-.2 0-.4.1-.4.2v.1c.3 0 .7.1 1.3.3l1.1-.1c.1 0 .2-.1.3-.3.2.1.4.2.5.3l1.2-.2h.2c.6.2.9.4.9.5-.1 0-.2.1-.4.3v.1l.1.4.4-.1.5.3c.1.3.1.5.1.5-.1 0-.2.1-.2.2l.4.4-.3.7v.1h.1l.3-.3.1.2v.2l-.4.4c.1.1.1.2.1.3-.2 0-.3.3-.2.7.1.4.5.7 1.2.6.3.3.5.5.5.7-.3.2-.5.3-.5.5.4.2.7.3.8.3v.1c0 .1-.1.2-.3.2l.1.6v.2c0 .1-.1.2-.2.2l.1.2v.1c0 .1 0 .3-.1.5.2 0 .4.1.4.3h.2l.3-.4h.1c.1 0 .2.1.2.2-.1.4-.1.6-.2.6l.1.2v.2c0 .1 0 .2-.2.2l.2.6-.1.2.2.9.2-.1h.2v.2c-.2 0-.3.1-.3.3 0 .1.2.3.5.6 0 .1-.4.3-1.1.6-.3.4-.4.7-.4.8l.1.2c0 .2-.1.3-.1.3.1.1.1.2.1.3-.1.2-.1.3-.2.3-.2-.2-.3-.3-.3-.4 0-.1.1-.2.1-.2-.1 0-.2-.1-.3-.2.1 0 .2-.1.1-.2 0-.1-.2-.2-.5-.1v-.3c.3-.3.5-.5.5-.8.5-.2.8-.4.9-.6v-.1c-.1 0-.2-.1-.4-.2-.3.3-.7.6-.9.6 0 .2-.1.2-.2.3v.2l.2.2c-.1.3-.3.4-.3.4 0 .3.2.6.6.9v.2l-1.1.4-.3-.1c-.9.1-1.4.3-1.6.4h-.1s-.1 0-.1-.1l-.2.1-.5-.1c0 .1-.1.2-.2.3h-.2l-.2-.6v-.1l.1-.2s-.1 0-.1-.1c.6-.5.8-.8.8-.9v-.7h-.2l-.3.2h-.1c-.1 0-.2-.1-.2-.2.1 0 .2-.1.2-.2-.1 0-.1 0-.1-.1l.2-.1-.1-.1v-.2l.1-.4c-.1 0-.1 0-.1-.1l.2-.1-.1-.2v-.2c0-.4.2-.6.6-.6v-.1l-.2-.1.1-.2v-.2l-.4.1-.1-.1c-.3.1-.6.2-.7.2l-.1-.5c0-.2.2-.5.6-.8 0 .1 0 .1.1.1 0-.1 0-.3.1-.4-.1 0-.2 0-.4-.1 0 .1-.1.2-.2.2h-.2c-.1 0-.2-.1-.2-.2v-.5c.1-.2.3-.3.4-.4l-.6-.6c0-.1 0-.2-.1-.3 0-.1.1-.2.1-.3v-.1h-.1c0 .2-.1.3-.4.5h-1.3c-.3.1-.4.2-.4.3v.1l.2.2.4-.1h.9l.2-.2c.2.2.4.5.4.7-.2 0-.4.2-.5.6l-.1.1h-.1c-.1 0-.2-.1-.3-.4h-.1c0 .3 0 .4-.2.4l.1.4c-.1.5-.3.7-.5.7h-.2l.1.4v.1h-.2c-.1 0-.2 0-.2-.1l.1-.4c-.3.3-.7.5-1.1.6v.2c.2 0 .3 0 .3.1l.3-.2c.2.1.4.1.5.1v.2c0 .1-.1.2-.3.3l.1.2c-.2.3-.3.5-.3.8.1.1.1.2.1.3l-.3.3c-.1 0-.2-.1-.2-.2v-.4l-.4-.1-.5.7c.1 0 .3.2.8.6l-.5 1.3c-.6.3-.9.5-.9.5v.1c.2 0 .2 0 .3.1 0 .1-.1.2-.4.2v.3c.1.1.3.5.4 1.1.1 0 .3-.2.8-.6h.1l.3.1h.1c.7 0 1.2-.2 1.7-.6.2.1.3.1.4.1 0-.1.1-.2.2-.2s.1 0 .1.1c.4-.2.6-.3.8-.3l.4.3.5-.4h.2v.4h.1c.3-.3.5-.5.5-.7 0 0-.1 0-.1-.1h.1l.4.2.4-.1h.8c0-.2 0-.2.1-.3l.4.4h.1c.9-.1 1.4-.3 1.6-.4l.1.1-.1.2h.2c0-.1.1-.3.3-.5l-.1-.2v-.1c.1-.2.3-.3.4-.4l-.1-.2c.4-.7.7-1 1.1-1.1l.2.1-.1.2c0 .1.1.2.2.5-.1.1-.2.1-.4.1v.4l-.1.4.8.4h-.1c.1.3.2.6.2.7 0 .1-.1.4-.2.8l.1.5h-.1l.1.2v.2c0 .1 0 .2-.1.3.1.1.1.2.1.2-.8.4-1.3.6-1.3.6-.1 0-.2-.1-.3-.1v.4l.4.1c.1 0 .4-.3 1-.8h.2c.3.1.4.2.4.3l-.2.4c.3 0 .4.1.4.2v.3c-.2.3-.3.4-.3.4l.3.3c0 .1-.1.2-.1.3h.2c0-.2 0-.3.1-.4h.1c.2.2.4.3.5.3v.2c0 .1 0 .2-.1.2h-.2l-.4-.2H70v.2c.4.2.6.4.6.6 0 .1-.1.2-.1.3.1 0 .2.1.4.3v.1c0 .1-.1.2-.4.4 0-.1-.1-.2-.2-.2s-.2.1-.1.2v.1c.7.4 1.1.7 1.3.9v.1c-.4.4-.7.5-.8.5v.2h.4l.3-.2h.1v.2h-.2v.1l.4.3c-.1 0-.1.1-.1.2.2 0 .2.1.3.2l-.8.4s0 .1-.1.1l-.5-.2-.1.2c.1 0 .2.1.3.2l-.3.4v.2c.2 0 .2.1.3.4h.2l-.1-.2c.4-.3.6-.4.6-.5.2-.1.4-.2.7-.2h.2c.2 0 .3.2.3.5-.1.1-.4.3-.8.5v.2c0 .1.1.2.2.2.2-.2.4-.3.5-.3 0 0 0 .1.1.1l-.1.2v.2c.2 0 .3.1.3.2-.1.1-.1.2-.1.2.1 0 .2-.1.4-.1l.1.2c-.1.2-.2.3-.2.3h-.3c-.1-.1-.2-.2-.3-.1-.1.1-.2.1-.3.1 0-.1 0-.1-.1-.1-.3.2-.4.4-.4.7.3.3.6.4.8.4 0-.2.2-.3.7-.3.1 0 .2.1.3.2v.1c0 .1-.1.2-.3.2v.3c.7.3 1.1.8 1.1 1.4l.2.2v.2h-.1c-.1 0-.2-.1-.2-.2H74v.2h-.2l-.1-.4c-.3 0-.5.2-.6.4.2.4.4.7.6 1-.1 0-.3.1-.7.2h-.1c-.1 0-.2-.1-.5-.4l.1-.4c-.1 0-.2 0-.4-.1h-.3c-.1 0-.6.1-1.5.4v.3c.3.2.4.4.4.4-.2.4-.5.6-.8.6l.1-.2v-.2h-.2c0 .3 0 .4-.2.4h-.1c-.1 0-.2-.1-.4-.4.5-.2.8-.3.8-.4-.1-.3-.3-.5-.4-.5l-.5.5-.2-.1c0 .1-.2.3-.4.4-.1-.1-.2-.3-.2-.5h-.6c0-.2-.3-.6-.9-1.1v-.1l.1-.2-.6-2c-.2-.2-.4-.4-.6-.4 0 .1 0 .1-.1.1-.1-.1-.1-.2-.1-.2 0-.2.3-.4.8-.6-.1-.2-.1-.2-.2-.2-.1.1-.2.1-.2.1l-.1-.2c0-.1.2-.3.6-.6v-.1c-.1-.2-.2-.3-.3-.3 0 .1-.1.2-.2.2-.1-.1-.2-.2-.2-.3l-.2.1H65v-.2c.4-.2.6-.4.6-.4v-.1l-.1-.1c.1-.1.1-.2.1-.4v-.2l-.3.2-.1-.2c0-.1.1-.2.1-.2l-.5.8-.1-.1v-.8l-.2-.2c0-.1.2-.3.7-.4h.1v.2h.3c1.6-.4 2.4-.7 2.4-.9v-.1h-.1c0 .1-.1.2-.4.4-.2 0-.4-.1-.4-.4-1.5.2-2.4.4-2.5.5h-.1c-.1 0-.2-.3-.4-.8.2-.3.3-.6.3-.7l-.2-.1c0 .1 0 .1-.1.1-.1-.1-.1-.2-.1-.2 0-.2.1-.3.3-.3v-.1h-.2v.1c-.1 0-.2-.1-.3-.1v-.2c0-.1.1-.2.2-.2h.1c.2.1.4.2.6.2l.1-.2h-.3v-.1l.1-.2h-.2v-.2h.4v-.1h-1v-.3c0-.1.1-.2.3-.2l-.1-.2c0-.1 0-.1.1-.1 0 0 0-.1-.1-.1l.1-.6v-.1c0-.1-.1-.2-.2-.1l.1.2c.1 0 .1 0 .1.1l-.2.1h-.2c-.3-.2-.5-.3-.6-.3-.3.1-.5.1-.7.1v-.1c-.1 0-.3.2-.5.4h-.1c-.1 0-.1 0-.1-.1l-.3.2c-.5-.1-.7-.2-.7-.6 0 0 .1 0 .1-.1l-.2-.1c-.2.4-.3.8-.3 1l.4.1c-.1.4-.2.6-.4.6l-.6-.3v-.1l.2-.3c0-.1-.1-.2-.2-.2 0 .1-.1.2-.3.3-.5-.1-.8-.3-.8-.7 0-.4-.1-.5-.3-.6h-.2v.1c0 .1.1.2.2.5-.1.6-.2.8-.3.8h-.1c0-.2-.1-.3-.4-.3v-.2c.1-.3.2-.5.2-.6l-.5-.2c-.1 0-.2.2-.4.4l-.4-.2c-.2.1-.3.1-.3.1l-.5-.1c0 .1 0 .1-.1.1 0-.1-.1-.2-.2-.2-.1.2-.3.4-.5.4v.1l.2.2c0 .7-.5 1.4-1.6 2-.1 0-.2-.1-.4-.1v.1c.1.1.1.2.1.2l.3-.2h.2c.1 0 .2.1.3.2-.3.5-.5.7-.7.7v.4h.2v.1c0 .1-.1.2-.3.3l-.2-.1c0 .2-.1.3-.3.3v.5c-.3.3-.5.5-.5.6 0 0 .1 0 .2.1 0 .1-.1.2-.1.3l-.2-.1c0 .6-.3 1.2-1 1.5l.1.1c0 .3-.5 1.2-1.6 2.7l-.9-.1c0 .1-.1.2-.2.2H48c-.2-.1-.8-.4-1.7-.9-.2 0-.7-.3-1.3-.9-.4 0-.7-.2-1.1-.5l1.3-3.1c-.1-.1-.1-.2-.1-.2.1 0 .3-.4.6-1.1h.2l.2.1c0-.9.2-1.4.8-1.4 0-.1 0-.1.1-.3l-.1-.5v-.2c.1-.2.6-.5 1.5-.7h.1v-.4h-.2c0 .2 0 .3-.2.3h-.2c-.1 0-.2-.1-.4-.3l.3-.2.2.1.1-.2-.2-.2v-.1c.2-.4.6-.7 1.1-.9h.4v.2c-.2 0-.4.1-.4.2h.3l.6-.2v-.3h-.1c-.1.1-.2.1-.3.1 0-.1-.2-.2-.4-.2-.1.1-.2.1-.2.1l-.1-.1c.3-.6.7-1 1-1.2l-.1-.4c.1-.5.2-.7.3-.7s.2.2.4.7c0 .1-.1.2-.1.2.1.1.1.2.1.3.1 0 .2-.1.2-.3-.1-.1-.1-.2-.1-.3.1-.1.2-.1.4-.1v-.2c-.5-.4-.7-.7-.7-.7.4-.2.6-.4.6-.8-.1-.1-.1-.2-.1-.2.1-.4.2-.6.3-.6 0 .1.1.2.3.2h.1c0-.2.1-.2.4-.3 0-.1-.1-.2-.3-.2v.2h-.1c-.1 0-.2-.1-.2-.2s.1-.2.2-.2v-.1h-.2v-.2c.5-.3.7-.8.7-1.5.1-.6.2-.8.4-.8.1 0 .1 0 .1.1l.2-.1.2.1c.1-.1.1-.3.1-.6h.1c.1 0 .2.1.2.2h.1c.1-.2.4-.3.8-.3.1.2.3.2.4.2.1-.1.2-.1.3-.1l-.1-.2.1-.5c-.3.1-.5.2-.7.4-.2-.1-.3-.1-.4-.1l-.5.1c-.1-.1-.1-.2-.1-.3l-.3.2h-.1v-.4c.1 0 .3-.4.5-1h.2c.1.3.2.6.4.9l.4-.2c-.1-.2-.2-.3-.2-.5v-.8l-.1-.4c.1 0 .2-.1.2-.2-.1 0-.2-.1-.2-.2v-.1l.1-.4h.2c0 .1-.1.2-.1.3v.1H54l.1-.4s0-.2-.1-.5c.1 0 .3-.1.5-.4l.2.2c.3-.1.4-.2.4-.4-.3 0-.5-.1-.7-.4.1-.1.1-.2.1-.3h.3v.2h.3v-.2l-.3-.3c.2-.2.5-.3.8-.3h.2c0-.1.2-.3.6-.5 0-.1.1-.2.2-.2s.2.1.2.1v.3l.3.1H57c.1 0 .2-.1.3-.4v-.2l-.4-.1v-.2c0-.1.1-.2.3-.2l-.4-.3c0-.1 0-.1.1-.1l-.1-.2.1-.5-.2-.2v-.2l.1-.2c-.1 0-.2 0-.2-.1.1-.2.2-.3.2-.4l-.1-.4v-.3l.7-.2zm-11.7 27.6h.2v-.2c-.1 0-.2.1-.2.2zm.2-.5c0 .3.1.5.3.5h.1c.9-.3 1.4-.4 1.4-.5h-1.8zm.1.8v.5c.6-.1 1 0 1.2.1h.1v-.1c-.8-.2-1.2-.4-1.3-.5zm.6-1.8v.3h.1l-.1-.3zm.3-1.5v.2c.1 0 .2 0 .2.1.2-.1.4-.2.7-.2.2.2.5.3.7.3 0-.1.1-.2.2-.4l-.1-.1c.1-.2.2-.4.1-.5h-.5c-.4.3-.8.5-1.3.6zm.2 1.6l.2.1v-.1h-.2zm1.8-1.4l-.1.2v.1l1.1-.1v-.1c0-.2-.4-.2-1-.1zm.6-5.3c0 .4-.2.7-.6 1v.2h.1c.1-.1.2-.1.3-.1l.1.2.2-.1.3.1c.1-.2.2-.4.2-.6-.3-.5-.5-.7-.6-.7zm-.4 2.8v.2c.1.3.3.4.6.4 0-.1.1-.2.2-.2v.2l1.3-.1c.1 0 .2-.1.1-.2v-.1c-1.2 0-1.8-.1-1.8-.2v-.1l-.4.1zm1.1-3.4v.2h.1c.5-.2.7-.3.8-.3v-.3c-.1 0-.2 0-.2-.1-.5.2-.7.3-.7.5zm.2 1.1v.2c.1 0 .2 0 .3.1.9-.2 1.3-.4 1.3-.5v-.1l-1 .1-.6.2zm.9-4.3v.2h.1c.1 0 .2-.1.2-.2h-.3zm.1 1.2c0 .3.1.5.3.5h.1c.9-.3 1.4-.4 1.4-.5h-1.8zm0 .8v.5c.6-.1 1-.1 1.2.1h.1v-.1c-.8-.2-1.2-.3-1.3-.5zm.1-4v.2h.1v-.2h-.1zm1.1 5.8l-.4-.1c0 .1 0 .2-.1.4.1.2.2.3.2.4l.6-.1h.3s.1 0 .1.1c.4-.1.6-.2.6-.4 0-.3-.1-.5-.3-.7-.4.3-.7.4-1 .4zm-.4-7.5h.4v-.2h-.2c-.2 0-.2.1-.2.2zm.1.4c0 .2.1.3.2.2.1 0 .2-.1.1-.2v-.2c-.1.2-.2.2-.3.2zm0 9.2v.2c.1 0 .2-.1.2-.2h-.2zm.1-6.2c.1 0 .5 0 1.2.1h.1s-.2-.2-.7-.4h-.2c-.1 0-.2.1-.4.3zm1.2-2.6c0 .2-.4.6-1.1 1.1v.1l.1.1c.1 0 .2-.1.3-.1l.1.2c.3 0 .5-.2.5-.5h.2c.1 0 .2.1.2.1-.1 0-.1 0-.1.1.7 0 1.1.1 1.2.1v-.1c-.6-.1-1-.4-1.2-1.1h-.2zm1.7 2.4l-.4-.1c-.3.2-.4.3-.4.4 0 .3-.2.6-.6.8.1 0 .2.1.3.1v.2l-.6.1c0-.1-.1-.2-.2-.1-.1 0-.2.1-.2.3.1.2.1.2.2.2.1-.1.2-.1.3-.1 0 .1-.1.2-.3.2v.3c.1 0 .4-.2.8-.5l-.1-.2v-.2c.3.5.6.7.8.7v-.1c0-.2 0-.4.1-.5 0-.1-.2-.3-.7-.4v-.2c.4-.3.7-.5.7-.6l.3-.3.2.1c.1 0 .2.1.2.2l-.1.2c.2.1.4.1.5.1.1-.1.2-.4.4-.9h-.1c-.1.1-.2.1-.3.1-.2-.2-.3-.3-.3-.4h-.1s-.2.2-.4.6zm-1.9 5.3c0 .1 0 .2-.1.3.1.2.2.4.4.4 0 0 0-.3.1-.7l-.2-.1h-.2zm0-11.5h.2v.3c-.1-.1-.2-.1-.2-.3zm.4 8.9l-.1.2.6.1v-.1c0-.1-.2-.2-.5-.2zm.3-5.3l.7.1.8.6h.2c0-.2.1-.3.3-.3l-.2-.2c.1-.1.1-.2.1-.3-.6 0-.9-.1-.9-.1.1 0 .2-.1.3-.3v-.1c0-.1-.1-.2-.3-.2h-.2l-.8.8zm.2-5.6v.2c0 .1.1.2.3.2v-.1l-.1-.5c-.2.1-.2.1-.2.2zm.2 2.8c0 .1.1.2.3.2.1 0 .2-.1.2-.2-.1 0-.2-.1-.2-.2h-.1c-.1 0-.2.1-.2.2zm.2-.8l.1.2c0 .1-.1.2-.1.2h.3c0-.1 0-.3.2-.4l-.2-.1h-.1l-.2.1zm.1-1.7c.3.5.7.7 1.1.7.1-.5.1-.9.1-1-.1 0-.2 0-.2-.1-.2.1-.6.2-1 .4zm.5 14.5c.1 0 .2.1.2.1v.1c0 .1-.1.2-.4.3l-.1-.1c0-.2.1-.3.3-.4zm2.6-12.4c0 .1-.1.2-.3.3H56.2l-.4.3.1.1v.1l-.2.3.1.4 1.2-.1v-.4c0-.2.3-.3.7-.3h.1v.3c.2-.2.3-.3.4-.3 0-.1-.1-.2-.2-.2l.1-.5h-.2zm-2.2 4.6h.3l.8-.5h-.2c-.1.1-.2.1-.3.1-.1-.1-.1-.2-.1-.3h-.1c-.2-.1-.3.2-.4.7zm.1-4.9l.2.1v-.3c-.1 0-.2.1-.2.2zm1.8-4c0 .1 0 .2-.1.2l-.2-.1c-.3.1-.5.2-.7.4h-.2l-.3-.2c0 .3-.1.4-.3.4l.1.4v.3h.3c0-.5.1-.8.1-.9.3.1.4.2.5.5h-.1l-.2-.1v.1l.4.4c-.1 0-.3.3-.6.8h-.1v.1h.2l.6-.2c0 .1.1.2.2.2h.1c-.1-.2-.2-.3-.2-.4.1 0 .2-.2.2-.6l-.4-.4.7-.5c.1 0 .2.1.2.2 0 0-.1 0-.1.1.1 0 .2.1.2.1.3-.2.5-.3.6-.3v-.2c0-.1-.1-.2-.3-.2l-.3.2h.1l-.4-.3zm-1.3-2.7c.1.4.3.7.4.9v.1h-.1l-.4-.2c0 .4 0 .6-.1.6s-.2-.1-.2-.2c0 0 0-.1.1-.1l-.1-.2c.2-.2.2-.4.2-.5-.1-.1-.1-.2-.1-.2l.3-.2zm-.3 14v.3c.1 0 .2-.1.1-.2v-.1H56zm.4-8.4c0 .2.1.2.2.2l.1-.2h-.3zm.4 6.9h.4c0-.1-.1-.2-.2-.1h-.1c-.1 0-.1.1-.1.1zm.1-1.5c.1 0 .1 0 .3.1l.1-.2v-.2c-.2 0-.3.1-.4.3zm.1-1.5v.4c.5.1.7.2.7.5h.1c.1 0 .2-.1.1-.2v-.5l-.4.1h-.1v-.4l-.4.1zm1.1-11l-.1.3h-.1l-.2-.1v.2c.1.1.1.2.1.2h.2c.1 0 .2-.1.2-.2l-.1-.4zm-.3-1.1h.2v.2h-.1l-.1-.2zm.1 6.9c0 .1.1.1.4.2v-.2h-.4zm.1-4.2v.2h.1l-.1-.2zm.2.1v.2h.2v-.2h-.2zm.1-2.9h.2c0 .1 0 .2-.1.2h-.1v-.2zm.2 9.9c.1.1.2.3.2.5h.1c.1 0 .2-.1.4-.4 0-.4-.1-.6-.2-.6-.2.1-.3.2-.5.5zm1.2 10.5v.3c.1 0 .2-.1.2-.3h-.2zm.9-14.2l-.5.5c0 .1.1.2.2.2s.3-.2.5-.5c0-.2-.1-.2-.2-.2zm-.2 14h.2v-.2c-.2 0-.2.1-.2.2zm1-2.5l-.5.6v.1h.1c.2-.1.4-.2.7-.5l-.3-.2zm.7-4.9c.2 0 .3.1.3.1-.1.1-.2.3-.2.4H62c-.1 0-.2-.1-.2-.2.1-.1.2-.3.3-.3zm.5-5.8h-.4v.8h.4c0-.3.2-.4.5-.5v-.1c-.2 0-.3-.1-.3-.3l-.2.1zm-.1 14.2c.1 0 .2.1.3.4l-.3.2h-.1l-.3-.2.4-.4zm-.1-19.5c0 .2.1.3.4.3 0-.1 0-.1.1-.1-.1-.1-.1-.2-.1-.2h-.4zm.8 3.2h.2l.8-.3v-.1c-.7.1-1 .2-1 .4zm0-3.2v.2h.1l-.1-.2zm.7 7.1l.1.1c.3-.1.4-.2.4-.3l-.2-.1c-.1.2-.3.3-.3.3zm.1 2h.5v-.3c-.3.1-.5.1-.5.3zm.3.1l.2.1v-.1h-.2zm.4-2.3c0 .2-.1.4-.2.6.1 0 .2 0 .2.1.5 0 .8-.2 1.1-.6h-.2l-.3.2h-.1l-.4-.2h-.1zm0-.6l.2.1h.1s.3-.3.6-.8l-.1-.2c-.6.2-.8.5-.8.9zm.4 2.3v.3H65v.1c.1 0 .3 0 .7.1.4-.1.6-.3.6-.6h-.2l-.3.2h-.2v-.2l-.5.1zm.3 5.6c.1 0 .2.1.2.1l-.1.1c-.1 0-.2 0-.2-.1l.1-.1zm.7-8.8c0-.1 0-.1 0 0v.3l.2-.1h.2v.2h.2v-.6c-.3.1-.5.2-.6.2zm0 5.8c0 .1.1.1.3.2h.2v-.1c0-.1-.1-.2-.2-.2l-.3.1zm.4 4.2c.1.1.2.2.2.4h.6c0-.2.1-.3.2-.3v-.1l-.4.1H67c-.1 0-.2-.1-.2-.2 0 .1-.2.1-.3.1zm.3 12.9l.2.1v-.1h-.2zm.7-7.4l-.4-.1-.3.5v.1h.2l.5-.3c0 .2.2.4.6.4v.2h.2c0-.3.1-.5.5-.6l.4.1.4-.3c.1 0 .2.1.4.1l.1-.2v-.2H70l-.3.2c-.1 0-.3 0-.5-.1 0 .1 0 .1-.1.2l-.2-.1-.2.2h-.3v-.2l.2-.3c-.4 0-.5 0-.5-.1-.1.1-.3.2-.6.5zm-.5-11.7c0 .1 0 .3-.1.4 0 .1.2.2.6.2 0-.1.1-.2.3-.2 0-.1-.1-.3-.2-.5 0 0-.1 0-.1.1H67zm0 7.9l.2.1h.1c.1-.1.3-.2.4-.2v-.3h-.1c-.3.1-.5.3-.6.4zm.6-9.9c.1 0 .2.1.3.3l-.2.1h-.3c0-.1 0-.1-.1-.3l.3-.1zm.2 15.1h.2v-.2c-.2 0-.2.1-.2.2zm.4-7.2c-.3 0-.4.2-.4.5h.1l.4-.1c.2.4.3.6.4.6h.1c0-.1.1-.3.4-.7v-.1c-.2-.3-.3-.4-.4-.4l-.6.2zm-.4 4.4c0 .2.1.3.2.2h.3c0-.1 0-.2.1-.4-.1 0-.1 0-.1-.1-.1.3-.3.3-.5.3zm.4 1.3v.3c-.1 0-.2-.1-.2-.2l.2-.1zm.7 2.3c0 .2-.1.3-.5.4v.2c.5 0 .7.1.9.1l.4-.3.2.1s.1 0 .1-.1l.4.1h.4v-.2c0-.1-.1-.2-.4-.2-.1.1-.2.1-.3.1 0-.1-.1-.2-.2-.2 0 .1-.1.2-.3.3h-.1c0-.2-.2-.3-.6-.3zm-.4 3.5h.2v-.2c-.1 0-.2.1-.2.2zm.2 4.7v.2h.2v-.2h-.2zm.4-8.8c0 .2-.1.2-.3.3 0 .1.1.2.3.2h.1c.1 0 .2-.1.2-.2v-.1c0-.1-.1-.1-.3-.2zm-.1 3.5c0 .2 0 .4-.2.6l.4.1c0-.2 0-.3.1-.3-.1-.3-.2-.4-.3-.4zm.2-.9v.2c0 .1.1.2.2.2.2-.2.3-.3.4-.3-.1-.3-.1-.4-.2-.4-.2.1-.4.2-.4.3zm.1 1.7v.3h.2v-.1c0-.2-.1-.2-.2-.2zm.1-12.7l.1.2h-.1v-.2zm1.1 13.8l.2.1v-.1h-.2zm1.5-.4l.1.1H72v-.1zm2 3.3c.3.1.5.2.5.3v.2c0 .1-.1.2-.3.2l-.6-.1v-.1c.2-.3.3-.5.4-.5zM86.4 249.7c.4.4.7.8 1 1.3 0 .4-.1.6-.2.7l.1.1c-.1.2-.1.3-.1.4 0 0 .1 0 .1.1l-.5.3c-.1 0-.2-.1-.2-.1l-.7.4.3.3.4-.1h.4c.1 0 .1.1.1.1s-.1 0-.1.1c0 0 .1 0 .2.1l.4-.1c.1 0 .1.1.1.1v.1c0 .1 0 .1-.1.1l-.4-.1.1.1v.1c-.2 0-.4.1-.6.4 0 .2.2.3.4.4h.1l.1-.1.1.1s-.1 0-.1.1c.1 0 .1.1.1.1v.1c-.2.3-.6.5-1.3.5v.1c.3 0 .6.2.9.5l.4-.1.1.3c0 .2-.1.4-.3.4v.1c0 .3.1.5.2.5-.1.2-.2.3-.3.4l-.1-.1c-.1 0-.2.1-.2.1s0-.1-.1-.1c0 .1-.2.2-.6.4.7.5 1 .7 1.1.7v.1c-.4 0-.6.2-.6.7 0 0 .1 0 .1.1l-.2.1c0 .2.2.4.4.6v.2l-.1.1.5-.1h.1v.1c0 .1-.1.2-.1.2h.1c.2-.3.4-.5.7-.5.3.4.5.6.5.7.1 0 .3-.1.7-.4h.4v-.1c.3.1.5.1.7.1l.5-.4h.3l.3.4c.1 0 .2-.2.5-.5.2.1.4.3.4.5.2-.1.4-.3.7-.4.1.2.2.3.2.4-.1 0-.1.1-.1.1 0 .1.1.2.1.2h-.1s-.1 0-.1-.1c-.3.1-.5.2-.7.4l-.2-.1-.2.1h-.4v.1h.1l.4-.1c0 .1.1.2.3.3h.1c0-.2.3-.3.9-.5.1-.2.1-.3.2-.3l.1.1c0-.1.1-.1.2-.2h.1s.1 0 .1.1c.1 0 .2-.1.2-.1l-.1-.4v-.1h.1s.1 0 .1.1l.7-.1.4.2-.2.4c0 .1.1.2.1.3l-.1.2.1.1c.1 0 .1 0 .1-.1 0 0-.1 0-.1-.1.3-.2.7-.3 1-.4.2-.1.4-.3.6-.6.4-.1.6-.1.7-.1l.1.1-.1.4c.3-.1.4-.3.4-.6 0-.1.1-.1.2-.2.1 0 .1.1.1.2.1 0 .1 0 .1-.1 0 0-.1 0-.1-.1.1 0 .4-.1.8-.1.1 0 .2.1.2.1v.1c-.1.4-.2.6-.3.6H99l-.4-.1.1.1v.1c-.2.2-.3.4-.3.4l.1.1h.5c0-.2 0-.3.1-.3s.2.1.3.3v.4h.2l.2-.1.4.1s0-.1.1-.1c.1.2.2.3.2.4l-.1.1c0 .1.1.2.1.3 0 .1 0 .1-.1.1s-.1-.1-.1-.2l-.3.2-.4-.1c-.2 0-.3.2-.4.6l.2.3v.2h.3v.4c0 .1 0 .1-.1.1 0 .2.1.4.1.4.4-.1.6-.2.6-.2l.4.5v.1c-.2.4-.4.6-.4.6h-.1c-.1-.1-.2-.1-.3-.1-.1 0-.3.3-.5.9-.3.2-.6.3-.9.4-.1.3-.2.4-.3.4H98l-.2-.1-.3.8h-.2c-.1 0-.2-.1-.3-.3.1-.2.2-.3.3-.4l-.1-.5v-.1c.7-.5 1-.8 1-.9 0-.1-.1-.2-.1-.2H98c0 .2-.3.5-.8.7 0 .1 0 .1-.1.1 0 0 0-.1-.1-.1l.1-.1v-.1l-.3-.4v-.1l.2-.3c-.1 0-.2 0-.3-.1 0 .3-.1.5-.3.6h-.1l-.4-.1c0 .2-.2.4-.7.4 0 .5.2.8.7.8v.1c0 .1-.1.2-.4.3l-.3-.2-.3.2-.1-.1-.1.1s-.1 0-.2-.1c-.4.1-.6.1-.7.1-.1 0-.2-.1-.3-.1 0 .1 0 .2-.1.2l-.1-.1v.5c.2-.1.4-.5.6-1v-.1h-.2c-.2.2-.5.4-1 .7 0 .1 0 .2-.1.3 0 .1.1.2.1.2l-.1.1c-.1 0-.2-.1-.3-.1l-.1.3c.1 0 .1.1.2.2v.1l-.6-.3h-.1c-.1 0-.2 0-.3.1-.3-.2-.5-.3-.7-.3l.1.1c-.1.2-.2.4-.4.4l-.1-.1c-.1 0-.2.1-.2.1 0-.1-.1-.1-.2-.2h-.1c0 .1-.1.3-.3.4l-.1-.2c0-.4.3-.6 1-.7 0-.1.1-.1.1-.1l.1.1-.1.1v.1h.4c0-.2 0-.4.1-.6-.2-.1-.3-.1-.3-.2l.1-.1h-.1l-.3.4H90l-.2-.1h-.3c-.3.4-.8.7-1.3 1-.1 0-.2-.1-.3-.3v-.3c0-.1.1-.1.1-.1-.2-.4-.3-.6-.3-.7-.1.1-.2.5-.5 1.3h-.1l-.1-.1c0 .1 0 .2-.1.3 0 .1.1.2.1.2-.1 0-.2.1-.5.3 0-.1 0-.1-.1-.1s-.2.1-.4.4l.1.1c.1 0 .3-.1.5-.2l.7.7v.2H87v.1l.1.2v.1s-.1 0-.1-.1c-.3 0-.5.2-.7.7.4.1.6.3.7.4 0 .1 0 .1-.1.1l.1.1v.1c0 .1 0 .1-.1.1-.1-.2-.3-.4-.5-.4h-.1l.1.2-.1.4c0 .1.2.3.4.4 0-.1.1-.1.2-.2.1 0 .2.2.2.4-.2.2-.4.4-.5.4 0-.1 0-.1-.1-.1 0 .3 0 .5-.1.6l.2.3v.2c-.1.2-.2.4-.3.4l-.5-.1v.1l.2.4c-.1 0-.1.1-.2.2.1 0 .2.1.4.1 0-.1.1-.1.1-.1h.1c.1 0 .1.1.1.1 0 .1-.2.2-.4.2 0 .1.1.1.4.1v.2c0 .1 0 .1-.1.1-.1-.2-.2-.3-.2-.4H86c0 .2-.3.4-.7.4v.1c0 .1.1.1.1.1.1 0 .2-.1.3-.1 0 .1.1.2.3.2v.1c0 .1-.1.2-.3.3l-.2-.1h-.1l.1.1c-.3.3-.7.5-1 .5l-.1-.1v-.1c0-.1.1-.1.2-.2h.4c0-.1 0-.2.1-.3-.1 0-.1-.2-.1-.5-.1 0-.1.1-.1.1l-.7-.1-.1.2c.1 0 .1.1.1.1l-.1.1c0-.1-.2-.3-.6-.4l-.1.1h-.1c-.1 0-.1 0-.1-.1l.5-.5s0 .1.1.1l.4-.4v-.2c-.2 0-.4 0-.4-.1l-.1.1-.1-.1-.4.1c-.1-.3-.2-.7-.3-1.3v-.2c-.1 0-.2 0-.2-.1v-.2s.1-.2.4-.4l-.3-.6v-.1c.3-.3.6-.5.7-.5v-.2c-.3 0-.4 0-.4-.1v-.1s0-.1.1-.1c-.1-.2-.1-.3-.1-.4l.2-.1-.1-.1v-.1h.4l-.3-.4v-.1l.3-.5-.1-.1-.2.1.1.1v.1h-.2c-.1 0-.2-.3-.2-.8 0 0-.1 0-.1-.1 0 0 .1 0 .1-.1h-.1l-.4.3c-.1-.1-.3-.1-.5-.1v.1h-.1l-.1-.1.1-.1v-.1h-.1c-.2.1-.4.3-.4.4h-.1c0-.4.3-.7 1-1l.2.1c.1 0 .2-.2.3-.5 0 0-.1 0-.1-.1l-.1.1c-.2-.1-.4-.3-.4-.4h-.1c-.1 0-.2.2-.4.7-.2.2-.4.3-.6.3l.1.1c-.1.2-.2.3-.4.4h-.2l-.4-.1c0 .1 0 .1-.1.1l-.1-.2c0-.1.1-.1.4-.2 0-.1-.1-.3-.2-.5 0-.1.1-.2.1-.2l-.1-.1h-.1c0 .5-.1.7-.2.7 0 0 0 .1.1.1l-.1.4c0 .1.1.2.4.2v.2c-.1 0-.2 0-.3.1-.5-.2-.7-.6-.7-1-.1 0-.2.1-.2.1l.1.1v.2l-.1.2v.1c.1 0 .2 0 .2.1v.1h-.2v-.1H79s0 .1-.1.2c0 .1.1.2.1.2l-.1.1c-.4 0-.7-.1-.9-.2.1-.3.1-.5.2-.5h.1l.4.1c0-.1.1-.3.3-.5-.1-.3-.3-.5-.5-.7 0 .2-.2.4-.7.6-.3 0-.4-.1-.5-.3v-.1s0-.2.1-.6v-.2c-.5 0-.7-.3-.8-1-.2-.8-.4-1.2-.4-1.2.3-.4.6-.7.9-1 0-.2.4-.5 1.2-.9h.1v.4c.1 0 .3 0 .8-.1l.2.1h.1c0-.2.1-.4.2-.4H79c0-.1.1-.1.1-.1l.2.1h.1c0-.3.4-.5 1.1-.7v.1h-.1v.1c.3 0 .6-.1.8-.4l.1.2-.2.3c.1 0 .3.1.7.4l.1-.1c-.2 0-.3-.1-.3-.2v-.1l.7-.7c.1 0 .2.1.4.4h.1l-.1-.4c0-.1.1-.1.1-.1h.2c.2.1.4.3.4.4h.1c.1 0 .1 0 .1-.1l-.1-.4h-.1v.1h-.1v.2c0-.2.2-.4.7-.6v-.2c0-.1-.1-.2-.3-.3l-.3.1-.2-.4v-.1l.4-.7-.1-.5v-.1c0-.1.2-.2.5-.4 0-.1.1-.1.2-.1v-.1l-.4.1h-.2c-.1 0-.1 0-.1-.1v-.5l.4-.7c-.1-.2-.1-.3-.1-.4l.1-.1c-.1-.2-.1-.3-.1-.4l.4-.2-.1-.1c0-.1.1-.1.3-.1l-.7-.4c0-.5.1-.7.1-.7l-.1-.1v-.3c0-.1.1-.4.3-.9-.1 0-.1 0-.1-.1v-.1c.3-.6.8-1 1.3-1l-.1-.4c.6-1.1 1.1-1.4 1.3-1.4zm-9 16.8c0 .1.1.1.1.1h.1l.1-.4h-.1s-.1.1-.2.3zm.8.5v.1h.1l-.1-.1zm.3-.8h.1v-.2c-.1 0-.1.1-.1.2zm.2 8.2l.1.1h-.2c-.1 0 0-.1.1-.1zm1.4-9.4l.2.4c-.2.1-.3.1-.3.2s.1.2.1.3c-.1 0-.1.1-.1.1l-.1-.1h-.2l.1.4h.2c0-.1.2-.2.6-.3.1-.2.1-.3.1-.4-.1 0-.1 0-.1-.1l.1-.3-.1-.4c-.4.1-.5.1-.5.2zm1.4-.7h.1v-.1c-.1 0-.1 0-.1.1zm.8 2.5l.1.2c0 .1-.1.2-.1.2h.3v-.1l-.1-.4h-.2zm.9 1.1c0 .1.1.1.1.1s0-.1.1-.1c0 .1.1.1.1.1h.1l.4-.4c.1 0 .2.1.3.1l.1-.2v-.2h-.1c-.4.1-.8.3-1.1.6zm0 6.6h.1v.1l-.1-.1zm.2-1.6v.2c.2 0 .4.1.5.2h.1c0-.1 0-.1.1-.1 0-.1-.1-.2-.4-.4v-.1h-.1c-.2 0-.2.1-.2.2zm.1-4.1v.2c.2-.1.3-.2.4-.2v-.1h-.1c0 .1-.1.1-.3.1zm.4 7.8c0 .1.1.2.1.2l.1-.1h.3v.1c0 .1-.1.1-.2.2h-.1l-.1-.1s0 .1-.1.1l-.1-.2v-.1c0-.1 0-.1.1-.1zm-.1-.5l.1.1h-.1v-.1zm.1-20.5l.1.1v-.1h-.1zm.6 21.3c.1.1.2.3.4.4v.4c0 .1 0 .1-.1.1h-.1c-.1 0-.3-.3-.4-.7l.2-.2zm-.2-8l.3.3h.1v-.1c-.1-.2-.1-.3-.1-.4h-.1c-.2.1-.2.1-.2.2zm0 5.3l.2.1v-.1h-.2zm.3.1c0 .1 0 .1-.1.1 0 .1.1.2.1.2h.1c.1 0 .1 0 .1-.1v-.1c-.1-.1-.1-.1-.2-.1zm.9-1.1c.3-.1.4-.2.4-.3v-.1h-.1c-.1 0-.2.2-.3.4zm.3-13.6s0 .1-.1.2l.1.1.1-.1c0-.2 0-.2-.1-.2zm0-4.1v.1h.1c0-.1 0-.1-.1-.1zm0 18l.1.2c.2-.1.3-.1.3-.2h-.4zm.5-12.7v.1c.1.1.1.3.1.6.2 0 .3-.1.3-.1l-.1-.4s.1 0 .1-.1c-.1-.1-.2-.1-.4-.1zm.8-2.2h.3v.1c0 .1 0 .1-.1.1h-.1v-.2zm.2 2.9c.1.3.2.4.2.6h.2c0-.2 0-.4.1-.4 0 .1.1.1.1.1h.1l-.3-.4-.1.1h-.3zm.5 4c0 .1 0 .2-.1.3l.1.4h.1c0-.2.1-.4.2-.6l-.3-.1zm1.8-.3c-.6.5-.9.7-1 .7v.4h.1c.1 0 .2-.1.2-.1 0 .1.1.1.1.1 0-.2 0-.3.1-.3h.1l.4.1c0-.1.1-.1.1-.1 0-.1-.1-.2-.1-.2l.1-.1c0-.1-.1-.2-.1-.3 0 0 .1 0 .1-.1.1 0 0 0-.1-.1zm-.2-2.1l.2.3c-.1 0-.1.1-.1.1h.1c.1 0 .3-.1.7-.2 0 .1.1.1.2.2h.1c.1-.1.2-.1.4-.1v-.2c-.1 0-.2 0-.4-.1h-.1l-.2.1h-.4c-.1 0-.1 0-.1-.1-.2-.1-.3 0-.4 0zm1-1.6c0 .1.1.2.1.2.2 0 .4-.1.4-.2h.2l.5.4h.1v-.1c-.2 0-.4 0-.4-.1s.1-.2.1-.3c-.1 0-.2-.1-.2-.1-.1 0-.2.1-.2.1l-.3-.1c-.1-.2-.2 0-.3.2zm.1 3.1c0 .2.1.2.1.2l-.2.4c.1.2.1.4.2.4h.1c0-.1 0-.3.1-.5l-.1-.1c0-.2.2-.4.7-.7 0-.1-.1-.2-.3-.3h-.2c-.2.3-.3.5-.4.5v.1zm0 1.1v.2h.3s0-.1-.3-.2zm1.3.4c-.2.3-.3.5-.5.5v.1c0 .1.1.2.4.3.2-.1.3-.2.4-.4-.1-.4-.2-.5-.3-.5zm1.3.7h.1v.2c0 .1-.1.2-.3.3-.1 0-.1-.1-.2-.2 0-.1.1-.2.4-.3zm-.3-1.4v.1c.1 0 .2 0 .4.1h.1c.1 0 .2-.1.3-.3l-.2-.1c-.4.2-.6.2-.6.2zm.6-3s.1 0 .2.1c.2-.1.5-.2 1-.2v-.1c-.2 0-.3 0-.3-.1l-.1.1-.2-.2c-.2 0-.4.2-.6.4zm0 4l.1.1h-.1v-.1zm.2-2.7v.3h.1s0-.1.1-.2l-.2-.1zm1 2.8v.1h.1l-.1-.1zm.2 5.6h.2v.1l-.2-.1zm.2-11.5v.1c.1 0 .1 0 .1-.1H95zm1.5-.3h.2v.1c0 .1-.2.2-.6.3H96c-.1 0-.1 0-.1-.1s.1-.1.1-.1c.1 0 .2.1.2.1l.3-.3zm-.1 6.4c0 .1.1.3.1.7-.1.2-.1.3-.2.3l-.3-.4v-.4c0-.1.1-.2.4-.2zm.4-1.8c.2 0 .5-.1.7-.3h.3c.1 0 .1.1.1.1l-.1.2v.1c.3 0 .5.1.5.2l-.1.1.2.1-.1.1v.1c.2 0 .3 0 .4.1l.1-.1-.2-.3s0-.1.1-.1c-.1-.2-.1-.4-.1-.6v-.1c-.3 0-.5-.1-.6-.4h-.1c-.6.3-1 .5-1.1.8zm.2-4.7h.1v.1l-.1-.1zm.1.8v.2h.1c.1 0 .1-.1.2-.2l-.1-.1c-.1.1-.1.1-.2.1zm.5.9v.4c0 .1.1.1.1.1.1-.2.2-.3.4-.3v-.1c-.1 0-.3-.1-.5-.1zm1.2-.5l-.3.5h.1l.3-.1c.1.2.1.3.2.3.2-.1.3-.2.4-.2v-.1s-.1 0-.2-.1c-.1 0-.2.1-.2.1 0-.2-.1-.3-.3-.4zm1.8-1l-.1.1.1.4c-.1 0-.2.1-.2.1l-.1-.1c-.1 0-.2.1-.3.1l-.4-.5v-.1h.1l.2.1c.2 0 .5-.1.7-.1zm-1 4.5v.1c.1 0 .1-.1.2-.2v-.1h-.1c0 .1-.1.1-.1.2zm1.3-2.6c.2 0 .2.1.2.1v.1s0 .1-.1.1l.1.1c0 .1-.1.2-.1.2.1 0 .1.1.1.1v.2c0 .1 0 .1-.1.1h-.2l-.3-.4v.1c0 .3.1.5.1.6l-.3.2h-.1l-.1-.1.1-.1v-.1s-.1 0-.2-.1c0-.3.1-.4.1-.4-.1-.2-.1-.3-.1-.4l.1-.1c.1.1.2.1.4.1.2-.1.3-.3.4-.3zm-.3-1.8h.1v.1l-.1-.1zM114.3 249.7c.4.4.7.8 1 1.3 0 .4-.1.6-.2.7l.1.1c-.1.2-.1.3-.1.4 0 0 .1 0 .1.1l-.5.3c-.1 0-.2-.1-.2-.1l-.7.4.3.3.4-.1h.4c.1 0 .1.1.1.1s-.1 0-.1.1c0 0 .1 0 .2.1l.4-.1c.1 0 .1.1.1.1v.1c0 .1 0 .1-.1.1l-.4-.1.1.1v.1c-.2 0-.4.1-.6.4 0 .2.2.3.4.4h.1l.1-.1.1.1s-.1 0-.1.1c.1 0 .1.1.1.1v.1c-.2.3-.6.5-1.3.5v.1c.3 0 .6.2.9.5l.4-.1.1.3c0 .2-.1.4-.3.4v.1c0 .3.1.5.2.5-.1.2-.2.3-.3.4l-.1-.1c-.1 0-.2.1-.2.1s0-.1-.1-.1c0 .1-.2.2-.6.4.7.5 1 .7 1.1.7v.1c-.4 0-.6.2-.6.7 0 0 .1 0 .1.1l-.2.1c0 .2.2.4.4.6v.2l-.1.1.5-.1h.1v.1c0 .1-.1.2-.1.2h.1c.2-.3.4-.5.7-.5.3.4.5.6.5.7.1 0 .3-.1.7-.4h.4v-.1c.3.1.5.1.7.1l.5-.4h.3l.3.4c.1 0 .2-.2.5-.5.2.1.4.3.4.5.2-.1.4-.3.7-.4.1.2.2.3.2.4-.1 0-.1.1-.1.1 0 .1.1.2.1.2h-.1s-.1 0-.1-.1c-.3.1-.5.2-.7.4l-.2-.1-.2.1h-.4v.1h.1l.4-.1c0 .1.1.2.3.3h.1c0-.2.3-.3.9-.5.1-.2.1-.3.2-.3l.1.1c0-.1.1-.1.2-.2h.1s.1 0 .1.1c.1 0 .2-.1.2-.1l-.1-.4v-.1h.1s.1 0 .1.1l.7-.1.4.2-.2.4c0 .1.1.2.1.3l-.1.2.1.1c.1 0 .1 0 .1-.1 0 0-.1 0-.1-.1.3-.2.7-.3 1-.4.2-.1.4-.3.6-.6.4-.1.6-.1.7-.1l.1.1-.1.4c.3-.1.4-.3.4-.6 0-.1.1-.1.2-.2.1 0 .1.1.1.2.1 0 .1 0 .1-.1 0 0-.1 0-.1-.1.1 0 .4-.1.8-.1.1 0 .2.1.2.1v.1c-.1.4-.2.6-.3.6h-.1l-.4-.1.1.1v.1c-.2.2-.3.4-.3.4l.1.1h.1c0-.2 0-.3.1-.3s.2.1.3.3v.4h.2l.2-.1.4.1s0-.1.1-.1c.1.2.2.3.2.4l-.1.1c0 .1.1.2.1.3 0 .1 0 .1-.1.1s-.1-.1-.1-.2l-.3.2-.4-.1c-.2 0-.3.2-.4.6l.2.3v.2h.3v.4c0 .1 0 .1-.1.1 0 .2.1.4.1.4.4-.1.6-.2.6-.2l.4.5v.1c-.2.4-.4.6-.4.6h-.1c-.1-.1-.2-.1-.3-.1-.1 0-.3.3-.5.9-.3.2-.6.3-.9.4-.1.3-.2.4-.3.4h-.2l-.2-.1-.3.8h-.2c-.1 0-.2-.1-.3-.3.1-.2.2-.3.3-.4l-.1-.5v-.1c.7-.5 1-.8 1-.9 0-.1-.1-.2-.1-.2h-.1c0 .2-.3.5-.8.7 0 .1 0 .1-.1.1 0 0 0-.1-.1-.1l.1-.1v-.1l-.3-.4v-.1l.2-.3c-.1 0-.2 0-.3-.1 0 .3-.1.5-.3.6h-.1l-.4-.1c0 .2-.2.4-.7.4 0 .5.2.8.7.8v.1c0 .1-.1.2-.4.3l-.3-.2-.3.2-.1-.1-.1.1s-.1 0-.2-.1c-.4.1-.6.1-.7.1-.1 0-.2-.1-.3-.1 0 .1 0 .2-.1.2l-.1-.1v.5c.2-.1.4-.5.6-1v-.1h-.2c-.2.2-.5.4-1 .7 0 .1 0 .2-.1.3 0 .1.1.2.1.2l-.1.1c-.1 0-.2-.1-.3-.1l-.1.3c.1 0 .1.1.2.2v.1l-.6-.3h-.1c-.1 0-.2 0-.3.1-.3-.2-.5-.3-.7-.3l.1.1c-.1.2-.2.4-.4.4l-.1-.1c-.1 0-.2.1-.2.1 0-.1-.1-.1-.2-.2h-.1c0 .1-.1.3-.3.4l-.1-.2c0-.4.3-.6 1-.7 0-.1.1-.1.1-.1l.1.1-.1.1v.1h.4c0-.2 0-.4.1-.6-.2-.1-.3-.1-.3-.2l.1-.1h-.1l-.3.4h-.1l-.2-.1h-.3c-.3.4-.8.7-1.3 1-.1 0-.2-.1-.3-.3v-.3c0-.1.1-.1.1-.1-.2-.4-.3-.6-.3-.7-.1.1-.2.5-.5 1.3h-.1l-.1-.1c0 .1 0 .2-.1.3 0 .1.1.2.1.2-.1 0-.2.1-.5.3 0-.1 0-.1-.1-.1s-.2.1-.4.4l.1.1c.1 0 .3-.1.5-.2l.7.7v.2h-.2v.1l.1.2v.1s-.1 0-.1-.1c-.3 0-.5.2-.7.7.4.1.6.3.7.4 0 .1 0 .1-.1.1l.1.1v.1c0 .1 0 .1-.1.1-.1-.2-.3-.4-.5-.4h-.1l.1.2-.1.4c0 .1.2.3.4.4 0-.1.1-.1.2-.2.1 0 .2.2.2.4-.2.2-.4.4-.5.4 0-.1 0-.1-.1-.1 0 .3 0 .5-.1.6l.2.3v.2c-.1.2-.2.4-.3.4l-.5-.1v.1l.2.4c-.1 0-.1.1-.2.2.1 0 .2.1.4.1 0-.1.1-.1.1-.1h.1c.1 0 .1.1.1.1 0 .1-.2.2-.4.2 0 .1.1.1.4.1v.2c0 .1 0 .1-.1.1-.1-.2-.2-.3-.2-.4h-.1c0 .2-.3.4-.7.4v.1c0 .1.1.1.1.1.1 0 .2-.1.3-.1 0 .1.1.2.3.2v.1c0 .1-.1.2-.3.3l-.2-.1h-.1l.1.1c-.3.3-.7.5-1 .5l-.1-.1v-.1c0-.1.1-.1.2-.2h.4c0-.1 0-.2.1-.3-.1 0-.1-.2-.1-.5-.1 0-.1.1-.1.1l-.7-.1-.1.2c.1 0 .1.1.1.1l-.1.1c0-.1-.2-.3-.6-.4l-.1.1h-.1c-.1 0-.1 0-.1-.1l.5-.5s0 .1.1.1l.4-.4v-.2c-.2 0-.4 0-.4-.1l-.1.1-.1-.1-.4.1c-.1-.3-.2-.7-.3-1.3v-.2c-.1 0-.2 0-.2-.1v-.2s.1-.2.4-.4l-.3-.6v-.1c.3-.3.6-.5.7-.5v-.2c-.3 0-.4 0-.4-.1v-.1s0-.1.1-.1c-.1-.2-.1-.3-.1-.4l.2-.1-.1-.1v-.1h.4l-.3-.4v-.1l.3-.5-.1-.1-.2.1.1.1v.1h-.2c-.1 0-.2-.3-.2-.8 0 0-.1 0-.1-.1 0 0 .1 0 .1-.1h-.1l-.4.3c-.1-.1-.3-.1-.5-.1v.1h-.1l-.1-.1.1-.1v-.1h-.1c-.2.1-.4.3-.4.4h-.1c0-.4.3-.7 1-1l.2.1c.1 0 .2-.2.3-.5 0 0-.1 0-.1-.1l-.1.1c-.2-.1-.4-.3-.4-.4h-.1c-.1 0-.2.2-.4.7-.2.2-.4.3-.6.3l.1.1c-.1.2-.2.3-.4.4h-.2l-.4-.1c0 .1 0 .1-.1.1l-.1-.2c0-.1.1-.1.4-.2 0-.1-.1-.3-.2-.5 0-.1.1-.2.1-.2l-.1-.1h-.1c0 .5-.1.7-.2.7 0 0 0 .1.1.1l-.1.4c0 .1.1.2.4.2v.2c-.1 0-.2 0-.3.1-.5-.2-.7-.6-.7-1-.1 0-.2.1-.2.1l.1.1v.2l-.1.2v.1c.1 0 .2 0 .2.1v.1h-.2v-.1h-.1s0 .1-.1.2c0 .1.1.2.1.2l-.1.1c-.4 0-.7-.1-.9-.2.1-.3.1-.5.2-.5h.1l.4.1c0-.1.1-.3.3-.5-.1-.3-.3-.5-.5-.7 0 .2-.2.4-.7.6-.3 0-.4-.1-.5-.3v-.1s0-.2.1-.6v-.2c-.5 0-.7-.3-.8-1-.2-.8-.4-1.2-.4-1.2.3-.4.6-.7.9-1 0-.2.4-.5 1.2-.9h.1v.4c.1 0 .3 0 .8-.1l.2.1h.1c0-.2.1-.4.2-.4h.2c0-.1.1-.1.1-.1l.2.1h.1c0-.3.4-.5 1.1-.7v.1h-.1v.1c.3 0 .6-.1.8-.4l.1.2-.2.3c.1 0 .3.1.7.4l.1-.1c-.2 0-.3-.1-.3-.2v-.1l.7-.7c.1 0 .2.1.4.4h.1l-.1-.4c0-.1.1-.1.1-.1h.1c.2.1.4.3.4.4h.1c.1 0 .1 0 .1-.1l-.1-.4h-.1v.1h-.1v.2c0-.2.2-.4.7-.6v-.2c0-.1-.1-.2-.3-.3l-.3.1-.2-.4v-.1l.4-.7-.1-.5v-.1c0-.1.2-.2.5-.4 0-.1.1-.1.2-.1v-.1l-.4.1h-.2c-.1 0-.1 0-.1-.1v-.5l.4-.7c-.1-.2-.1-.3-.1-.4l.1-.1c-.1-.2-.1-.3-.1-.4l.4-.2-.1-.1c0-.1.1-.1.3-.1l-.7-.4c0-.5.1-.7.1-.7l-.1-.1v-.3c0-.1.1-.4.3-.9-.1 0-.1 0-.1-.1v-.1c.3-.6.8-1 1.3-1l-.1-.4c-.3-1.1.2-1.4.4-1.4zm-9 16.8c0 .1.1.1.1.1h.1l.1-.4h-.1s-.1.1-.2.3zm.8.5v.1h.1l-.1-.1zm.3-.8h.1v-.2c-.1 0-.1.1-.1.2zm.2 8.2l.1.1h-.2c-.1 0 0-.1.1-.1zm1.4-9.4l.2.4c-.2.1-.3.1-.3.2s.1.2.1.3c-.1 0-.1.1-.1.1l-.1-.1h-.2l.1.4h.2c0-.1.2-.2.6-.3.1-.2.1-.3.1-.4-.1 0-.1 0-.1-.1l.1-.3-.1-.4c-.4.1-.5.1-.5.2zm1.4-.7h.1v-.1c-.1 0-.1 0-.1.1zm.8 2.5l.1.2c0 .1-.1.2-.1.2h.3v-.1l-.1-.4h-.2zm.9 1.1c0 .1.1.1.1.1s0-.1.1-.1c0 .1.1.1.1.1h.1l.4-.4c.1 0 .2.1.3.1l.1-.2v-.2h-.1c-.4.1-.8.3-1.1.6zm.1 6.6h.1v.1l-.1-.1zm.1-1.6v.2c.2 0 .4.1.5.2h.1c0-.1 0-.1.1-.1 0-.1-.1-.2-.4-.4v-.1h-.1c-.1 0-.2.1-.2.2zm.1-4.1v.2c.2-.1.3-.2.4-.2v-.1h-.1c0 .1-.1.1-.3.1zm.4 7.8c0 .1.1.2.1.2l.1-.1h.3v.1c0 .1-.1.1-.2.2h-.1l-.1-.1s0 .1-.1.1l-.1-.2v-.1c0-.1 0-.1.1-.1zm-.1-.5l.1.1h-.1v-.1zm.1-20.5l.1.1v-.1h-.1zm.6 21.3c.1.1.2.3.4.4v.4c0 .1 0 .1-.1.1h-.1c-.1 0-.3-.3-.4-.7l.2-.2zm-.2-8l.3.3h.1v-.1c-.1-.2-.1-.3-.1-.4h-.1c-.2.1-.2.1-.2.2zm0 5.3l.2.1v-.1h-.2zm.3.1c0 .1 0 .1-.1.1 0 .1.1.2.1.2h.1c.1 0 .1 0 .1-.1v-.1c-.1-.1-.1-.1-.2-.1zm.9-1.1c.3-.1.4-.2.4-.3v-.1h-.1c-.1 0-.2.2-.3.4zm.3-13.6s0 .1-.1.2l.1.1.1-.1c0-.2 0-.2-.1-.2zm0-4.1v.1h.1c0-.1 0-.1-.1-.1zm0 18l.1.2c.2-.1.3-.1.3-.2h-.4zm.6-12.7v.1c.1.1.1.3.1.6.2 0 .3-.1.3-.1l-.1-.4s.1 0 .1-.1c-.2-.1-.3-.1-.4-.1zm.7-2.2h.3v.1c0 .1 0 .1-.1.1h-.2v-.2zm.2 2.9c.1.3.2.4.2.6h.2c0-.2 0-.4.1-.4 0 .1.1.1.1.1h.1l-.3-.4-.1.1h-.3zm.5 4c0 .1 0 .2-.1.3l.1.4h.1c0-.2.1-.4.2-.6l-.3-.1zm1.8-.3c-.6.5-.9.7-1 .7v.4h.1c.1 0 .2-.1.2-.1 0 .1.1.1.1.1 0-.2 0-.3.1-.3h.1l.4.1c0-.1.1-.1.1-.1 0-.1-.1-.2-.1-.2l.1-.1c0-.1-.1-.2-.1-.3 0 0 .1 0 .1-.1.1 0 0 0-.1-.1zm-.2-2.1l.2.3c-.1 0-.1.1-.1.1h.1c.1 0 .3-.1.7-.2 0 .1.1.1.2.2h.1c.1-.1.2-.1.4-.1v-.2c-.1 0-.2 0-.4-.1h-.1l-.2.1h-.4c-.1 0-.1 0-.1-.1-.2-.1-.3 0-.4 0zm1-1.6c0 .1.1.2.1.2.2 0 .4-.1.4-.2h.2l.5.4h.1v-.1c-.2 0-.4 0-.4-.1s.1-.2.1-.3c-.1 0-.2-.1-.2-.1-.1 0-.2.1-.2.1l-.3-.1c-.1-.2-.2 0-.3.2zm.2 3.1c0 .2.1.2.1.2l-.2.4c.1.2.1.4.2.4h.1c0-.1 0-.3.1-.5l-.1-.1c0-.2.2-.4.7-.7 0-.1-.1-.2-.3-.3h-.1c-.2.3-.3.5-.4.5l-.1.1zm0 1.1v.2h.3c-.1 0-.1-.1-.3-.2zm1.2.4c-.2.3-.3.5-.5.5v.1c0 .1.1.2.4.3.2-.1.3-.2.4-.4-.1-.4-.2-.5-.3-.5zm1.3.7h.1v.2c0 .1-.1.2-.3.3-.1 0-.1-.1-.2-.2 0-.1.1-.2.4-.3zm-.3-1.4v.1c.1 0 .2 0 .4.1h.1c.1 0 .2-.1.3-.3l-.2-.1c-.4.2-.6.2-.6.2zm.6-3s.1 0 .2.1c.2-.1.5-.2 1-.2v-.1c-.2 0-.3 0-.3-.1l-.1.1-.1-.1c-.3-.1-.5.1-.7.3zm0 4l.1.1h-.1v-.1zm.2-2.7v.3h.1s0-.1.1-.2l-.2-.1zm1 2.8v.1h.1l-.1-.1zm.2 5.6h.1v.1l-.1-.1zm.2-11.5v.1c.1 0 .1 0 .1-.1h-.1zm1.5-.3h.2v.1c0 .1-.2.2-.6.3-.1 0-.1 0-.1-.1s.1-.1.1-.1c.1 0 .2.1.2.1 0-.1.1-.2.2-.3zm-.1 6.4c0 .1.1.3.1.7-.1.2-.1.3-.2.3l-.3-.4v-.4c0-.1.1-.2.4-.2zm.4-1.8c.2 0 .5-.1.7-.3h.3c.1 0 .1.1.1.1l-.1.2v.1c.3 0 .5.1.5.2l-.1.1.2.1-.1.1v.1c.2 0 .3 0 .4.1l.1-.1-.2-.3s0-.1.1-.1c-.1-.2-.1-.4-.1-.6v-.1c-.3 0-.5-.1-.6-.4h-.1c-.6.3-1 .5-1.1.8zm.2-4.7h.1v.1l-.1-.1zm.1.8v.2h.1c.1 0 .1-.1.2-.2l-.1-.1c-.1.1-.1.1-.2.1zm.5.9v.4c0 .1.1.1.1.1.1-.2.2-.3.4-.3v-.1c-.1 0-.3-.1-.5-.1zm1.2-.5l-.3.5h.1l.3-.1c.1.2.1.3.2.3.2-.1.3-.2.4-.2v-.1s-.1 0-.2-.1c-.1 0-.2.1-.2.1 0-.2-.1-.3-.3-.4zm1.9-1l-.1.1.1.4c-.1 0-.2.1-.2.1l-.1-.1c-.1 0-.2.1-.3.1l-.4-.5v-.1h.1l.2.1c.1 0 .4-.1.7-.1zm-1.1 4.5v.1c.1 0 .1-.1.2-.2v-.1h-.1c0 .1-.1.1-.1.2zm1.3-2.6c.2 0 .2.1.2.1v.1s0 .1-.1.1l.1.1c0 .1-.1.2-.1.2.1 0 .1.1.1.1v.2c0 .1 0 .1-.1.1h-.2l-.3-.4v.1c0 .3.1.5.1.6l-.3.2h-.1l-.1-.1.1-.1v-.1s-.1 0-.2-.1c0-.3.1-.4.1-.4-.1-.2-.1-.3-.1-.4l.1-.1c.1.1.2.1.4.1.2-.1.3-.3.4-.3zm-.2-1.8h.1v.1l-.1-.1z"/></g></svg>