<svg id="Layer_1" xmlns="http://www.w3.org/2000/svg" xmlns:xlink="http://www.w3.org/1999/xlink" viewBox="0 0 160 600"><style>.st0{fill:#004b86}.st1{clip-path:url(#SVGID_2_);fill:#fff}.st2{clip-path:url(#SVGID_4_);fill:url(#SVGID_5_)}.st3{clip-path:url(#SVGID_7_);fill:url(#SVGID_8_)}.st4{clip-path:url(#SVGID_10_);fill:url(#SVGID_11_)}</style><path class="st0" d="M80.6 527.4v3.9h-6.9V550h-4.4v-18.7h-6.9v-3.9h18.2zm1.9 22.5h4.4v-22.6h-4.4v22.6zm26.9 0h-4.5l-2.3-5.5H95l-2.3 5.5h-4.4l9.6-22.8h1.9l9.6 22.8zm21.1 0H126l-2.3-5.5H116l-2.3 5.5h-4.4l9.6-22.8h1.9l9.7 22.8zm-29.4-9.2l-2.3-5.6-2.3 5.6h4.6zm21.1 0l-2.3-5.6-2.3 5.6h4.6z"/><defs><path id="SVGID_1_" d="M27 522h105.9v35.6H27z"/></defs><clipPath id="SVGID_2_"><use xlink:href="#SVGID_1_" overflow="visible"/></clipPath><path class="st1" d="M46.7 551.4c1.9 0 3.7-.8 4.9-2.1L57 544c1.2-1.2 2-3 2-4.8v-16.6H42.4c-1.9 0-3.7.8-4.9 2.1l-5.3 5.3c-1.2 1.2-2 3-2 4.8v16.6h16.5z"/><defs><path id="SVGID_3_" d="M44.3 524c-3 0-5.5 2.4-5.5 5.4v1.9h11.4v11.4H52c3 0 5.5-2.4 5.5-5.5V524H44.3z"/></defs><clipPath id="SVGID_4_"><use xlink:href="#SVGID_3_" overflow="visible"/></clipPath><linearGradient id="SVGID_5_" gradientUnits="userSpaceOnUse" x1="1" y1="601.077" x2="2" y2="601.077" gradientTransform="scale(18.358 -18.358) rotate(45 762.588 287.636)"><stop offset="0" stop-color="#9bdbf7"/><stop offset=".1" stop-color="#9bdbf7"/><stop offset=".9" stop-color="#009dda"/><stop offset="1" stop-color="#009dda"/></linearGradient><path class="st2" d="M29.5 533.3l18.7-18.6 18.7 18.6L48.2 552z"/><g><defs><path id="SVGID_6_" d="M52.1 544.1H37.4l-5.8 5.8h15.1c1.5 0 2.9-.6 3.9-1.6l4.9-4.9-.1-.1c-1 .5-2.1.8-3.3.8"/></defs><clipPath id="SVGID_7_"><use xlink:href="#SVGID_6_" overflow="visible"/></clipPath><linearGradient id="SVGID_8_" gradientUnits="userSpaceOnUse" x1=".958" y1="601.042" x2="1.958" y2="601.042" gradientTransform="matrix(23.9328 0 0 -23.9328 8.642 14931.219)"><stop offset="0" stop-color="#14b0e6"/><stop offset=".161" stop-color="#13aae1"/><stop offset=".372" stop-color="#0f9ad2"/><stop offset=".61" stop-color="#097fba"/><stop offset=".867" stop-color="#015999"/><stop offset=".9" stop-color="#005494"/><stop offset="1" stop-color="#005494"/></linearGradient><path class="st3" d="M31.6 543.3h23.9v6.7H31.6z"/></g><g><defs><path id="SVGID_9_" d="M33.2 530.9c-1.1 1-1.6 2.4-1.6 3.9v15.1l5.8-5.8v-14.7c0-1.2.3-2.3.8-3.3l-.1-.1-4.9 4.9z"/></defs><clipPath id="SVGID_10_"><use xlink:href="#SVGID_9_" overflow="visible"/></clipPath><linearGradient id="SVGID_11_" gradientUnits="userSpaceOnUse" x1="1.042" y1="601.042" x2="2.042" y2="601.042" gradientTransform="matrix(0 -23.9332 -23.9332 0 14419.736 574.88)"><stop offset="0" stop-color="#0081bd"/><stop offset=".377" stop-color="#0070ad"/><stop offset=".85" stop-color="#005494"/><stop offset="1" stop-color="#005494"/></linearGradient><path class="st4" d="M31.6 526h6.7v23.9h-6.7z"/></g></svg>