<?xml version="1.0" encoding="utf-8"?>
<!-- Generator: Adobe Illustrator 24.0.0, SVG Export Plug-In . SVG Version: 6.00 Build 0)  -->
<svg version="1.1" id="Layer_1" xmlns="http://www.w3.org/2000/svg" xmlns:xlink="http://www.w3.org/1999/xlink" x="0px" y="0px"
	 viewBox="0 0 728 90" style="enable-background:new 0 0 728 90;" xml:space="preserve">
<style type="text/css">
	.st0{fill:#FFFFFF;}
</style>
<g>
	<path class="st0" d="M10.6,80.6l-0.7-0.3c1-0.5,1.7-1.2,2.1-2c-0.2,0.2-0.5,0.3-0.8,0.3c-1,0-1.6-0.7-1.6-1.6c0-1,0.7-1.7,1.7-1.7
		c0.9,0,1.7,0.6,1.7,1.8C13,78.5,12,79.9,10.6,80.6z M11.2,75.9c-0.5,0-0.9,0.4-0.9,1c0,0.6,0.4,1,1,1c0.4,0,0.8-0.2,1-0.7
		c0-0.1,0-0.2,0-0.2C12.2,76.4,11.7,75.9,11.2,75.9z"/>
	<path class="st0" d="M14.8,80.6L14,80.3c1-0.5,1.7-1.2,2.1-2c-0.2,0.2-0.5,0.3-0.8,0.3c-1,0-1.6-0.7-1.6-1.6c0-1,0.7-1.7,1.7-1.7
		c0.9,0,1.7,0.6,1.7,1.8C17.1,78.5,16.1,79.9,14.8,80.6z M15.4,75.9c-0.5,0-0.9,0.4-0.9,1c0,0.6,0.4,1,1,1c0.4,0,0.8-0.2,1-0.7
		c0-0.1,0-0.2,0-0.2C16.4,76.4,15.9,75.9,15.4,75.9z"/>
	<path class="st0" d="M19.5,80.6c-0.9,0-1.7-0.6-1.7-1.8c0-1.4,1-2.8,2.4-3.5l0.7,0.3c-1,0.5-1.7,1.2-2.1,2c0.2-0.2,0.4-0.3,0.8-0.3
		c1,0,1.6,0.7,1.6,1.6C21.2,79.9,20.5,80.6,19.5,80.6z M19.5,77.9c-0.4,0-0.8,0.2-1,0.7c0,0.1,0,0.2,0,0.3c0,0.6,0.5,1.1,1,1.1
		s0.9-0.4,0.9-1C20.5,78.4,20.1,77.9,19.5,77.9z"/>
	<path class="st0" d="M23.7,80.6c-0.9,0-1.7-0.8-1.7-2.7c0-1.8,0.8-2.6,1.7-2.6c0.9,0,1.7,0.9,1.7,2.6
		C25.4,79.7,24.6,80.6,23.7,80.6z M23.7,75.9c-0.5,0-1,0.6-1,2c0,1.5,0.5,2,1,2c0.5,0,1-0.6,1-2C24.7,76.5,24.2,75.9,23.7,75.9z"/>
	<path class="st0" d="M26.8,80.5V76L25.9,76l0.1-0.6l1.5-0.1v5.2H26.8z"/>
	<path class="st0" d="M28.3,80.5v-0.1c1.2-1.4,2.1-2.7,2.1-3.5c0-0.6-0.4-0.9-0.8-0.9c-0.4,0-0.7,0.1-1,0.3l-0.2-0.6
		c0.3-0.2,0.7-0.3,1.2-0.3c0.9,0,1.6,0.6,1.6,1.6c0,1-0.9,2.1-1.6,3h1.9v0.6H28.3z"/>
</g>
</svg>
