<?xml version="1.0" encoding="utf-8"?>
<!-- Generator: Adobe Illustrator 24.0.0, SVG Export Plug-In . SVG Version: 6.00 Build 0)  -->
<svg version="1.1" id="Layer_1" xmlns="http://www.w3.org/2000/svg" xmlns:xlink="http://www.w3.org/1999/xlink" x="0px" y="0px"
	 viewBox="0 0 728 90" style="enable-background:new 0 0 728 90;" xml:space="preserve">
<style type="text/css">
	.st0{fill:#F9E039;}
</style>
<g>
	<path class="st0" d="M210.8,31.2c-0.7-0.4-1.9-0.8-3.2-0.8c-2.7,0-4.9,1.8-4.9,4.7c0,2.8,2.2,4.7,5.1,4.7c1.3,0,2.4-0.2,3.2-0.7
		l-0.3,3.2c-0.8,0.4-1.9,0.6-3.5,0.6c-4,0-8.2-2.7-8.2-7.9s4.3-7.9,8.2-7.9c1.9,0,3.4,0.4,4.3,0.9L210.8,31.2z"/>
	<path class="st0" d="M220.7,43.1c-0.6-0.1-1.4-0.6-1.7-1.4c-0.5,0.9-1.5,1.3-2.8,1.3c-1.9,0-3.6-1.3-3.6-3.6c0-2,1.6-3.3,3.7-3.6
		l2.2-0.2v-0.4c0-0.6-0.5-1.1-1.7-1.1c-1.1,0-2.2,0.3-3,0.8l-0.6-2.7c0.9-0.6,2.4-1,3.8-1c2.9,0,4.9,1.3,4.9,3.9v3.6
		c0,1.3,0.5,1.9,1.3,2.3L220.7,43.1z M218.5,37.9l-1.3,0.1c-0.9,0.1-1.3,0.7-1.3,1.4c0,0.6,0.4,1.1,1.1,1.1c0.8,0,1.5-0.6,1.5-1.6
		V37.9z"/>
	<path class="st0" d="M228.1,43.1c-2.2-0.1-3.7-1.2-3.7-3.9V25.6h3.5v13.2c0,0.9,0.5,1.4,1.5,1.4L228.1,43.1z"/>
	<path class="st0" d="M238.8,35.3c-0.7-0.5-1.5-0.7-2.3-0.7c-1.5,0-2.8,1.1-2.8,2.7c0,1.6,1.2,2.7,2.8,2.7c0.9,0,1.6-0.2,2.4-0.6
		l-0.3,3c-0.7,0.3-1.7,0.5-2.7,0.5c-3,0-5.9-2.2-5.9-5.7c0-3.6,2.9-5.7,5.8-5.7c1.4,0,2.6,0.3,3.6,0.8L238.8,35.3z"/>
	<path class="st0" d="M248.3,42.7v-1.5h0c-0.4,1.2-1.6,1.8-3.3,1.8c-2.4,0-3.8-1.3-3.8-3.6v-7.6h3.5v6.7c0,0.8,0.6,1.5,1.6,1.5
		c1.1,0,1.7-0.7,1.7-1.6v-6.6h3.5v10.9H248.3z"/>
	<path class="st0" d="M257.6,43.1c-2.2-0.1-3.7-1.2-3.7-3.9V25.6h3.5v13.2c0,0.9,0.5,1.4,1.5,1.4L257.6,43.1z"/>
	<path class="st0" d="M267.9,43.1c-0.6-0.1-1.4-0.6-1.7-1.4c-0.5,0.9-1.5,1.3-2.8,1.3c-1.9,0-3.6-1.3-3.6-3.6c0-2,1.6-3.3,3.7-3.6
		l2.2-0.2v-0.4c0-0.6-0.5-1.1-1.7-1.1c-1.1,0-2.2,0.3-3,0.8l-0.6-2.7c0.9-0.6,2.4-1,3.8-1c2.9,0,4.9,1.3,4.9,3.9v3.6
		c0,1.3,0.5,1.9,1.3,2.3L267.9,43.1z M265.7,37.9l-1.3,0.1c-0.9,0.1-1.3,0.7-1.3,1.4c0,0.6,0.4,1.1,1.1,1.1c0.8,0,1.5-0.6,1.5-1.6
		V37.9z"/>
	<path class="st0" d="M278.6,34.7h-2.8v4c0,0.9,0.5,1.3,1.4,1.3c0.4,0,0.6,0,0.9-0.1l-0.3,2.7c-0.3,0.2-0.9,0.3-1.6,0.3
		c-2.4,0-3.9-1.3-3.9-3.5v-4.7h-1.8v-2.9h1.8v-2.3l3.5-1.3v3.6h3.5L278.6,34.7z"/>
	<path class="st0" d="M290.2,36.6l-1.6,1.6h-5.3c0.2,0.9,1.4,1.9,3.2,1.9c1.1,0,2.3-0.3,3-0.8l-0.3,3c-0.8,0.4-2.1,0.7-3.5,0.7
		c-3.3,0-6-2.3-6-5.9c0-3.5,2.5-5.7,5.7-5.7c3,0,4.9,2.1,4.9,4.3C290.3,36,290.3,36.4,290.2,36.6z M285.5,34.1c-1,0-1.9,0.8-2.1,1.8
		h3.7c0-0.1,0-0.1,0-0.2C287,34.8,286.4,34.1,285.5,34.1z"/>
	<path class="st0" d="M304.1,41.6c-1.7,4.4-3.4,6-5.4,6.7l-2.2-2.2c1.8-0.7,3.1-1.9,4-4.2l-3.9-10.1h3.4l1.6,4.2
		c0.2,0.6,0.5,1.4,0.6,2.1h0c0.2-0.7,0.5-1.5,0.7-2.1l1.6-4.2h3.2L304.1,41.6z"/>
	<path class="st0" d="M314,43c-3.3,0-5.9-2.3-5.9-5.8c0-3.5,2.6-5.8,5.9-5.8c3.3,0,5.9,2.3,5.9,5.8C320,40.7,317.3,43,314,43z
		 M314,34.5c-1.3,0-2.4,1.2-2.4,2.8c0,1.6,1.1,2.8,2.4,2.8c1.3,0,2.4-1.2,2.4-2.8C316.5,35.6,315.3,34.5,314,34.5z"/>
	<path class="st0" d="M328.9,42.7v-1.5h0c-0.4,1.2-1.6,1.8-3.3,1.8c-2.4,0-3.8-1.3-3.8-3.6v-7.6h3.5v6.7c0,0.8,0.6,1.5,1.6,1.5
		c1.1,0,1.7-0.7,1.7-1.6v-6.6h3.5v10.9H328.9z"/>
	<path class="st0" d="M341.1,35.5c-0.2-0.1-0.7-0.3-1.1-0.3c-1.1,0-2.2,0.6-2.2,2.3v5.1h-3.5V31.8h3.5v2.4h0
		c0.4-1.7,1.6-2.6,3.1-2.6c0.3,0,0.7,0,1,0.1L341.1,35.5z"/>
	<path class="st0" d="M352.3,43.1c-2.2-0.1-3.7-1.2-3.7-3.9V25.6h3.5v13.2c0,0.9,0.5,1.4,1.5,1.4L352.3,43.1z"/>
	<path class="st0" d="M356.8,30.3c-0.6,0-1.9-1.3-1.9-1.9s1.3-1.9,1.9-1.9s1.9,1.2,1.9,1.9S357.4,30.3,356.8,30.3z M355,42.7V31.8
		h3.6v10.9H355z"/>
	<path class="st0" d="M368.5,28.7c-0.4-0.2-1-0.3-1.4-0.3c-1.3,0-2,0.8-2,2.3v1h3.1l-0.7,2.9h-2.4v8h-3.4v-8H360v-2.9h1.7v-1.3
		c0-3.3,2.1-4.9,4.9-4.9c1,0,2,0.1,2.6,0.4L368.5,28.7z"/>
	<path class="st0" d="M379.1,36.6l-1.6,1.6h-5.3c0.2,0.9,1.4,1.9,3.2,1.9c1.1,0,2.3-0.3,3-0.8l-0.3,3c-0.8,0.4-2.1,0.7-3.5,0.7
		c-3.3,0-6-2.3-6-5.9c0-3.5,2.5-5.7,5.7-5.7c3,0,4.9,2.1,4.9,4.3C379.2,36,379.2,36.4,379.1,36.6z M374.3,34.1c-1,0-1.9,0.8-2.1,1.8
		h3.7c0-0.1,0-0.1,0-0.2C375.9,34.8,375.3,34.1,374.3,34.1z"/>
	<path class="st0" d="M388.3,34.7h-2.8v4c0,0.9,0.5,1.3,1.4,1.3c0.4,0,0.6,0,0.9-0.1l-0.3,2.7c-0.3,0.2-0.9,0.3-1.6,0.3
		c-2.4,0-3.9-1.3-3.9-3.5v-4.7h-1.8v-2.9h1.8v-2.3l3.5-1.3v3.6h3.5L388.3,34.7z"/>
	<path class="st0" d="M392,30.3c-0.6,0-1.9-1.3-1.9-1.9s1.3-1.9,1.9-1.9s1.9,1.2,1.9,1.9S392.7,30.3,392,30.3z M390.3,42.7V31.8h3.6
		v10.9H390.3z"/>
	<path class="st0" d="M409.5,42.7V36c0-0.8-0.4-1.5-1.5-1.5c-1.1,0-1.6,0.7-1.6,1.5v6.6h-3.5V36c0-0.8-0.4-1.5-1.5-1.5
		c-1.1,0-1.6,0.7-1.6,1.5v6.6h-3.5V31.8h3.3v1.5h0c0.4-1.2,1.5-1.8,3.2-1.8c1.6,0,2.7,0.6,3.2,1.8c0.5-1.1,1.7-1.8,3.4-1.8
		c2.5,0,3.8,1.3,3.8,3.6v7.6H409.5z"/>
	<path class="st0" d="M425.2,36.6l-1.6,1.6h-5.3c0.2,0.9,1.4,1.9,3.2,1.9c1.1,0,2.3-0.3,3-0.8l-0.3,3c-0.8,0.4-2.1,0.7-3.5,0.7
		c-3.3,0-6-2.3-6-5.9c0-3.5,2.5-5.7,5.7-5.7c3,0,4.9,2.1,4.9,4.3C425.3,36,425.3,36.4,425.2,36.6z M420.5,34.1c-1,0-1.9,0.8-2.1,1.8
		h3.7c0-0.1,0-0.1,0-0.2C422,34.8,421.4,34.1,420.5,34.1z"/>
	<path class="st0" d="M434.3,30.3c-0.6,0-1.9-1.3-1.9-1.9s1.3-1.9,1.9-1.9s1.9,1.2,1.9,1.9S434.9,30.3,434.3,30.3z M432.5,42.7V31.8
		h3.6v10.9H432.5z"/>
	<path class="st0" d="M445.3,42.7V36c0-0.8-0.5-1.5-1.6-1.5c-1.1,0-1.7,0.7-1.7,1.5v6.6h-3.5V31.8h3.2v1.5h0
		c0.4-1.2,1.6-1.8,3.3-1.8c2.4,0,3.8,1.3,3.8,3.6v7.6H445.3z"/>
	<path class="st0" d="M459.2,35.3c-0.7-0.5-1.5-0.7-2.3-0.7c-1.5,0-2.8,1.1-2.8,2.7c0,1.6,1.2,2.7,2.8,2.7c0.9,0,1.6-0.2,2.4-0.6
		l-0.3,3c-0.7,0.3-1.7,0.5-2.7,0.5c-3,0-5.9-2.2-5.9-5.7c0-3.6,2.9-5.7,5.8-5.7c1.4,0,2.6,0.3,3.6,0.8L459.2,35.3z"/>
	<path class="st0" d="M466.9,43c-3.3,0-5.9-2.3-5.9-5.8c0-3.5,2.6-5.8,5.9-5.8c3.3,0,5.9,2.3,5.9,5.8C472.8,40.7,470.1,43,466.9,43z
		 M466.9,34.5c-1.3,0-2.4,1.2-2.4,2.8c0,1.6,1.1,2.8,2.4,2.8c1.3,0,2.4-1.2,2.4-2.8C469.3,35.6,468.1,34.5,466.9,34.5z"/>
	<path class="st0" d="M487.9,42.7V36c0-0.8-0.4-1.5-1.5-1.5c-1.1,0-1.6,0.7-1.6,1.5v6.6h-3.5V36c0-0.8-0.4-1.5-1.5-1.5
		c-1.1,0-1.6,0.7-1.6,1.5v6.6h-3.5V31.8h3.3v1.5h0c0.4-1.2,1.5-1.8,3.2-1.8c1.6,0,2.7,0.6,3.2,1.8c0.5-1.1,1.7-1.8,3.4-1.8
		c2.5,0,3.8,1.3,3.8,3.6v7.6H487.9z"/>
	<path class="st0" d="M503.6,36.6l-1.6,1.6h-5.3c0.2,0.9,1.4,1.9,3.2,1.9c1.1,0,2.3-0.3,3-0.8l-0.3,3c-0.8,0.4-2.1,0.7-3.5,0.7
		c-3.3,0-6-2.3-6-5.9c0-3.5,2.5-5.7,5.7-5.7c3,0,4.9,2.1,4.9,4.3C503.7,36,503.7,36.4,503.6,36.6z M498.9,34.1c-1,0-1.9,0.8-2.1,1.8
		h3.7c0-0.1,0-0.1,0-0.2C500.5,34.8,499.8,34.1,498.9,34.1z"/>
</g>
<g>
	<path class="st0" d="M285,55.3c-0.6,0-1.9-1.3-1.9-1.9s1.3-1.9,1.9-1.9s1.9,1.2,1.9,1.9S285.6,55.3,285,55.3z M283.2,67.7V56.8h3.6
		v10.9H283.2z"/>
	<path class="st0" d="M295.9,67.7V61c0-0.8-0.5-1.5-1.6-1.5c-1.1,0-1.7,0.7-1.7,1.5v6.6H289V56.8h3.2v1.5h0c0.4-1.2,1.6-1.8,3.3-1.8
		c2.4,0,3.8,1.3,3.8,3.6v7.6H295.9z"/>
	<path class="st0" d="M310.1,67.9c-0.9,0-2.1-0.2-2.9-0.5l-0.3-3.1c0.7,0.4,1.6,0.7,2.6,0.7c1.4,0,2.7-0.7,2.7-2.2
		c0-1.2-1.1-2.1-2.4-2.1c-0.1,0-0.2,0-0.5,0l-0.6-2.6c1.3-0.3,2.4-1,2.4-1.8c0-0.8-0.6-1.3-1.5-1.3c-0.8,0-1.5,0.2-2.2,0.6l-0.7-3
		c0.8-0.4,2-0.8,3.3-0.8c2.9,0,4.7,1.5,4.7,3.7c0,1.6-1.2,2.6-2.2,2.9c1.6,0.4,3.4,1.8,3.4,4.3C316,66.1,313.6,67.9,310.1,67.9z"/>
	<path class="st0" d="M323,68c-3,0-5.5-2.5-5.5-8c0-5.5,2.5-8,5.5-8c3,0,5.5,2.5,5.5,8C328.5,65.5,326,68,323,68z M323,55
		c-1.1,0-2,1.7-2,5c0,3.4,0.9,5,2,5s2-1.6,2-5C325.1,56.6,324.1,55,323,55z"/>
	<path class="st0" d="M339.3,67.9c-1.5,0-2.6-0.3-3.5-0.8l-0.3-3.1c1,0.7,2.2,1.2,3.4,1.2c0.6,0,1.1-0.3,1.1-0.7
		c0-0.5-0.4-0.6-1-0.8c-2.1-0.6-3.3-1.7-3.3-3.6c0-2.1,1.7-3.5,4.1-3.5c1.3,0,2.7,0.4,3.2,0.6l-0.6,2.6c-0.5-0.3-1.4-0.6-2.3-0.6
		c-0.6,0-1,0.3-1,0.7c0,0.4,0.3,0.6,1,0.8c2.4,0.6,3.5,1.9,3.5,3.7C343.6,66.2,342.3,67.9,339.3,67.9z"/>
	<path class="st0" d="M355.2,61.6l-1.6,1.6h-5.3c0.2,0.9,1.4,1.9,3.2,1.9c1.1,0,2.3-0.3,3-0.8l-0.3,3c-0.8,0.4-2.1,0.7-3.5,0.7
		c-3.3,0-6-2.3-6-5.9c0-3.5,2.5-5.7,5.7-5.7c3,0,4.9,2.1,4.9,4.3C355.3,61,355.3,61.4,355.2,61.6z M350.4,59.1c-1,0-1.9,0.8-2.1,1.8
		h3.7c0-0.1,0-0.1,0-0.2C352,59.9,351.4,59.1,350.4,59.1z"/>
	<path class="st0" d="M365.2,60.3c-0.7-0.5-1.5-0.7-2.3-0.7c-1.5,0-2.8,1.1-2.8,2.7c0,1.6,1.2,2.7,2.8,2.7c0.9,0,1.6-0.2,2.4-0.6
		l-0.3,3c-0.7,0.3-1.7,0.5-2.7,0.5c-3,0-5.9-2.2-5.9-5.7c0-3.6,2.9-5.7,5.8-5.7c1.4,0,2.6,0.3,3.6,0.8L365.2,60.3z"/>
	<path class="st0" d="M372.8,68c-3.3,0-5.9-2.3-5.9-5.8s2.6-5.8,5.9-5.8c3.3,0,5.9,2.3,5.9,5.8S376.1,68,372.8,68z M372.8,59.5
		c-1.3,0-2.4,1.2-2.4,2.8s1.1,2.8,2.4,2.8c1.3,0,2.4-1.2,2.4-2.8S374.1,59.5,372.8,59.5z"/>
	<path class="st0" d="M387.4,67.7V61c0-0.8-0.5-1.5-1.6-1.5c-1.1,0-1.7,0.7-1.7,1.5v6.6h-3.5V56.8h3.2v1.5h0
		c0.4-1.2,1.6-1.8,3.3-1.8c2.4,0,3.8,1.3,3.8,3.6v7.6H387.4z"/>
	<path class="st0" d="M401.3,67.7v-1.3h0c-0.6,1.1-1.8,1.7-3.4,1.7c-2.7,0-5.2-2-5.2-5.7c0-3.5,2.5-5.8,5.5-5.8
		c1.2,0,2.3,0.4,2.8,0.7v-6.6h3.4v17.1H401.3z M401,60.5c-0.3-0.5-1.1-1-2.1-1c-1.5,0-2.6,1.2-2.6,2.8c0,1.6,1.1,2.8,2.6,2.8
		c1,0,1.8-0.6,2.1-1.1V60.5z"/>
	<path class="st0" d="M410.1,67.9c-1.5,0-2.6-0.3-3.5-0.8l-0.3-3.1c1,0.7,2.2,1.2,3.4,1.2c0.6,0,1.1-0.3,1.1-0.7
		c0-0.5-0.4-0.6-1-0.8c-2.1-0.6-3.3-1.7-3.3-3.6c0-2.1,1.7-3.5,4.1-3.5c1.3,0,2.7,0.4,3.2,0.6l-0.6,2.6c-0.5-0.3-1.4-0.6-2.3-0.6
		c-0.6,0-1,0.3-1,0.7c0,0.4,0.3,0.6,1,0.8c2.4,0.6,3.5,1.9,3.5,3.7C414.4,66.2,413.1,67.9,410.1,67.9z"/>
	<path class="st0" d="M417.9,68c-0.6,0-2-1.3-2-2c0-0.6,1.3-2,2-2c0.6,0,2,1.3,2,2C419.9,66.7,418.5,68,417.9,68z"/>
</g>
</svg>
