<?xml version="1.0" encoding="utf-8"?>
<!-- Generator: Adobe Illustrator 24.0.0, SVG Export Plug-In . SVG Version: 6.00 Build 0)  -->
<svg version="1.1" id="Layer_1" xmlns="http://www.w3.org/2000/svg" xmlns:xlink="http://www.w3.org/1999/xlink" x="0px" y="0px"
	 viewBox="0 0 728 90" style="enable-background:new 0 0 728 90;" xml:space="preserve">
<style type="text/css">
	.st0{fill:#F9E039;}
</style>
<g>
	<path class="st0" d="M141.4,41c-4.2,0-8.5-2.8-8.5-8c0-5.3,4.4-8,8.4-8c2.1,0,3.9,0.6,5,1.3l-0.7,3.1c-0.9-0.6-2.4-1.1-3.9-1.1
		c-2.8,0-5.1,1.8-5.1,4.9c0,2.9,2.2,4.8,5,4.8c0.9,0,1.6-0.1,2.1-0.5V35H141v-2.9h6.1v7.3C145.8,40.4,143.9,41,141.4,41z"/>
	<path class="st0" d="M159.4,34.6l-1.6,1.6h-5.3c0.2,0.9,1.4,1.9,3.2,1.9c1.1,0,2.3-0.3,3-0.8l-0.3,3c-0.8,0.4-2.1,0.7-3.5,0.7
		c-3.3,0-6-2.3-6-5.9c0-3.5,2.5-5.7,5.7-5.7c3,0,4.9,2.1,4.9,4.3C159.5,34,159.4,34.4,159.4,34.6z M154.6,32c-1,0-1.9,0.8-2.1,1.8
		h3.7c0-0.1,0-0.1,0-0.2C156.2,32.8,155.6,32,154.6,32z"/>
	<path class="st0" d="M168.6,32.6h-2.8v4c0,0.9,0.5,1.3,1.4,1.3c0.4,0,0.6,0,0.9-0.1l-0.3,2.7c-0.3,0.2-0.9,0.3-1.6,0.3
		c-2.4,0-3.9-1.3-3.9-3.5v-4.7h-1.8v-2.9h1.8v-2.3l3.5-1.3v3.6h3.5L168.6,32.6z"/>
	<path class="st0" d="M180.7,46.2c-3.2,0-5.3-1.8-5.3-4.1c0-1.7,1.1-2.6,2.2-2.9l-1.4-1.4c0.1-0.7,0.7-1.3,1.3-1.6
		c-0.8-0.5-1.6-1.5-1.6-2.9c0-2.3,1.7-3.9,4.5-3.9c0.6,0,1.2,0.1,1.6,0.2c0.5,0.1,1,0.2,1.6,0.2c0.6,0,1.2-0.1,1.7-0.4l0.6,2.7
		c-0.3,0.2-0.9,0.4-1.3,0.3c0.1,0.2,0.3,0.7,0.3,1.1c0,1.8-1.4,3.4-3.6,3.5c-0.4,0-0.7,0.1-0.7,0.4c0,0.1,0.1,0.3,0.3,0.3l1.7,0.6
		c2.1,0.8,3.3,1.8,3.3,3.8C185.9,44.5,183.9,46.2,180.7,46.2z M181.4,41.1l-1.3-0.4c-0.8,0-1.5,0.6-1.5,1.4c0,0.7,0.6,1.4,1.9,1.4
		c1.2,0,1.9-0.6,1.9-1.2C182.5,41.8,182.1,41.3,181.4,41.1z M180.5,32c-0.8,0-1.4,0.6-1.4,1.3c0,0.7,0.6,1.3,1.4,1.3
		c0.8,0,1.4-0.6,1.4-1.3C181.9,32.6,181.3,32,180.5,32z"/>
	<path class="st0" d="M194.5,40.6v-1.5h0c-0.4,1.2-1.6,1.8-3.3,1.8c-2.4,0-3.8-1.3-3.8-3.6v-7.6h3.5v6.7c0,0.8,0.6,1.5,1.6,1.5
		c1.1,0,1.7-0.7,1.7-1.6v-6.6h3.5v10.9H194.5z"/>
	<path class="st0" d="M207.6,41.1c-0.6-0.1-1.4-0.6-1.7-1.4c-0.5,0.9-1.5,1.3-2.8,1.3c-1.9,0-3.6-1.3-3.6-3.6c0-2,1.6-3.3,3.7-3.6
		l2.2-0.2v-0.4c0-0.6-0.5-1.1-1.7-1.1c-1.1,0-2.2,0.3-3,0.8l-0.6-2.7c0.9-0.6,2.4-1,3.8-1c2.9,0,4.9,1.3,4.9,3.9v3.6
		c0,1.3,0.5,1.9,1.3,2.3L207.6,41.1z M205.4,35.9L204,36c-0.9,0.1-1.3,0.7-1.3,1.4c0,0.6,0.4,1.1,1.1,1.1c0.8,0,1.5-0.6,1.5-1.6
		V35.9z"/>
	<path class="st0" d="M218,33.5c-0.2-0.1-0.7-0.3-1.1-0.3c-1.1,0-2.2,0.6-2.2,2.3v5.1h-3.5V29.8h3.5v2.4h0c0.4-1.7,1.6-2.6,3.1-2.6
		c0.3,0,0.7,0,1,0.1L218,33.5z"/>
	<path class="st0" d="M227.7,41.1c-0.6-0.1-1.4-0.6-1.7-1.4c-0.5,0.9-1.5,1.3-2.8,1.3c-1.9,0-3.6-1.3-3.6-3.6c0-2,1.6-3.3,3.7-3.6
		l2.2-0.2v-0.4c0-0.6-0.5-1.1-1.7-1.1c-1.1,0-2.2,0.3-3,0.8l-0.6-2.7c0.9-0.6,2.4-1,3.8-1c2.9,0,4.9,1.3,4.9,3.9v3.6
		c0,1.3,0.5,1.9,1.3,2.3L227.7,41.1z M225.4,35.9l-1.3,0.1c-0.9,0.1-1.3,0.7-1.3,1.4c0,0.6,0.4,1.1,1.1,1.1c0.8,0,1.5-0.6,1.5-1.6
		V35.9z"/>
	<path class="st0" d="M238.2,40.6V34c0-0.8-0.5-1.5-1.6-1.5c-1.1,0-1.7,0.7-1.7,1.5v6.6h-3.5V29.8h3.2v1.5h0
		c0.4-1.2,1.6-1.8,3.3-1.8c2.4,0,3.8,1.3,3.8,3.6v7.6H238.2z"/>
	<path class="st0" d="M251.1,32.6h-2.8v4c0,0.9,0.5,1.3,1.4,1.3c0.4,0,0.6,0,0.9-0.1l-0.3,2.7c-0.3,0.2-0.9,0.3-1.6,0.3
		c-2.4,0-3.9-1.3-3.9-3.5v-4.7h-1.8v-2.9h1.8v-2.3l3.5-1.3v3.6h3.5L251.1,32.6z"/>
	<path class="st0" d="M262.7,34.6l-1.6,1.6h-5.3c0.2,0.9,1.4,1.9,3.2,1.9c1.1,0,2.3-0.3,3-0.8l-0.3,3c-0.8,0.4-2.1,0.7-3.5,0.7
		c-3.3,0-6-2.3-6-5.9c0-3.5,2.5-5.7,5.7-5.7c3,0,4.9,2.1,4.9,4.3C262.8,34,262.8,34.4,262.7,34.6z M257.9,32c-1,0-1.9,0.8-2.1,1.8
		h3.7c0-0.1,0-0.1,0-0.2C259.5,32.8,258.9,32,257.9,32z"/>
	<path class="st0" d="M274.4,34.6l-1.6,1.6h-5.3c0.2,0.9,1.4,1.9,3.2,1.9c1.1,0,2.3-0.3,3-0.8l-0.3,3c-0.8,0.4-2.1,0.7-3.5,0.7
		c-3.3,0-6-2.3-6-5.9c0-3.5,2.5-5.7,5.7-5.7c3,0,4.9,2.1,4.9,4.3C274.5,34,274.5,34.4,274.4,34.6z M269.6,32c-1,0-1.9,0.8-2.1,1.8
		h3.7c0-0.1,0-0.1,0-0.2C271.2,32.8,270.6,32,269.6,32z"/>
	<path class="st0" d="M284.4,40.6v-1.3h0c-0.6,1.1-1.8,1.7-3.4,1.7c-2.7,0-5.2-2-5.2-5.7c0-3.5,2.5-5.8,5.5-5.8
		c1.2,0,2.3,0.4,2.8,0.7v-6.6h3.4v17.1H284.4z M284,33.5c-0.3-0.5-1.1-1-2.1-1c-1.5,0-2.6,1.2-2.6,2.8s1.1,2.8,2.6,2.8
		c1,0,1.8-0.6,2.1-1.1V33.5z"/>
	<path class="st0" d="M298.9,41.1c-2.2-0.1-3.7-1.2-3.7-3.9V23.5h3.5v13.2c0,0.9,0.5,1.4,1.5,1.4L298.9,41.1z"/>
	<path class="st0" d="M303.3,28.3c-0.6,0-1.9-1.3-1.9-1.9s1.3-1.9,1.9-1.9s1.9,1.2,1.9,1.9S303.9,28.3,303.3,28.3z M301.5,40.6V29.8
		h3.6v10.9H301.5z"/>
	<path class="st0" d="M315,26.7c-0.4-0.2-1-0.3-1.4-0.3c-1.3,0-2,0.8-2,2.3v1h3.1l-0.7,2.9h-2.4v8h-3.4v-8h-1.7v-2.9h1.7v-1.3
		c0-3.3,2.1-4.9,4.9-4.9c1,0,2,0.1,2.6,0.4L315,26.7z"/>
	<path class="st0" d="M325.6,34.6l-1.6,1.6h-5.3c0.2,0.9,1.4,1.9,3.2,1.9c1.1,0,2.3-0.3,3-0.8l-0.3,3c-0.8,0.4-2.1,0.7-3.5,0.7
		c-3.3,0-6-2.3-6-5.9c0-3.5,2.5-5.7,5.7-5.7c3,0,4.9,2.1,4.9,4.3C325.7,34,325.7,34.4,325.6,34.6z M320.9,32c-1,0-1.9,0.8-2.1,1.8
		h3.7c0-0.1,0-0.1,0-0.2C322.4,32.8,321.8,32,320.9,32z"/>
	<path class="st0" d="M334.8,32.6H332v4c0,0.9,0.5,1.3,1.4,1.3c0.4,0,0.6,0,0.9-0.1l-0.3,2.7c-0.3,0.2-0.9,0.3-1.6,0.3
		c-2.4,0-3.9-1.3-3.9-3.5v-4.7h-1.8v-2.9h1.8v-2.3l3.5-1.3v3.6h3.5L334.8,32.6z"/>
	<path class="st0" d="M338.6,28.3c-0.6,0-1.9-1.3-1.9-1.9s1.3-1.9,1.9-1.9s1.9,1.2,1.9,1.9S339.2,28.3,338.6,28.3z M336.8,40.6V29.8
		h3.6v10.9H336.8z"/>
	<path class="st0" d="M356,40.6V34c0-0.8-0.4-1.5-1.5-1.5c-1.1,0-1.6,0.7-1.6,1.5v6.6h-3.5V34c0-0.8-0.4-1.5-1.5-1.5
		c-1.1,0-1.6,0.7-1.6,1.5v6.6h-3.5V29.8h3.3v1.5h0c0.4-1.2,1.5-1.8,3.2-1.8c1.6,0,2.7,0.6,3.2,1.8c0.5-1.1,1.7-1.8,3.4-1.8
		c2.5,0,3.8,1.3,3.8,3.6v7.6H356z"/>
	<path class="st0" d="M371.8,34.6l-1.6,1.6h-5.3c0.2,0.9,1.4,1.9,3.2,1.9c1.1,0,2.3-0.3,3-0.8l-0.3,3c-0.8,0.4-2.1,0.7-3.5,0.7
		c-3.3,0-6-2.3-6-5.9c0-3.5,2.5-5.7,5.7-5.7c3,0,4.9,2.1,4.9,4.3C371.9,34,371.8,34.4,371.8,34.6z M367,32c-1,0-1.9,0.8-2.1,1.8h3.7
		c0-0.1,0-0.1,0-0.2C368.6,32.8,367.9,32,367,32z"/>
	<path class="st0" d="M380.8,28.3c-0.6,0-1.9-1.3-1.9-1.9s1.3-1.9,1.9-1.9s1.9,1.2,1.9,1.9S381.5,28.3,380.8,28.3z M379.1,40.6V29.8
		h3.6v10.9H379.1z"/>
	<path class="st0" d="M391.8,40.6V34c0-0.8-0.5-1.5-1.6-1.5c-1.1,0-1.7,0.7-1.7,1.5v6.6h-3.5V29.8h3.2v1.5h0
		c0.4-1.2,1.6-1.8,3.3-1.8c2.4,0,3.8,1.3,3.8,3.6v7.6H391.8z"/>
	<path class="st0" d="M405.8,33.3c-0.7-0.5-1.5-0.7-2.3-0.7c-1.5,0-2.8,1.1-2.8,2.7c0,1.6,1.2,2.7,2.8,2.7c0.9,0,1.6-0.2,2.4-0.6
		l-0.3,3c-0.7,0.3-1.7,0.5-2.7,0.5c-3,0-5.9-2.2-5.9-5.7c0-3.6,2.9-5.7,5.8-5.7c1.4,0,2.6,0.3,3.6,0.8L405.8,33.3z"/>
	<path class="st0" d="M413.4,41c-3.3,0-5.9-2.3-5.9-5.8c0-3.5,2.6-5.8,5.9-5.8c3.3,0,5.9,2.3,5.9,5.8C419.3,38.6,416.6,41,413.4,41z
		 M413.4,32.5c-1.3,0-2.4,1.2-2.4,2.8c0,1.6,1.1,2.8,2.4,2.8c1.3,0,2.4-1.2,2.4-2.8C415.8,33.6,414.7,32.5,413.4,32.5z"/>
	<path class="st0" d="M434.5,40.6V34c0-0.8-0.4-1.5-1.5-1.5c-1.1,0-1.6,0.7-1.6,1.5v6.6h-3.5V34c0-0.8-0.4-1.5-1.5-1.5
		c-1.1,0-1.6,0.7-1.6,1.5v6.6h-3.5V29.8h3.3v1.5h0c0.4-1.2,1.5-1.8,3.2-1.8c1.6,0,2.7,0.6,3.2,1.8c0.5-1.1,1.7-1.8,3.4-1.8
		c2.5,0,3.8,1.3,3.8,3.6v7.6H434.5z"/>
	<path class="st0" d="M450.2,34.6l-1.6,1.6h-5.3c0.2,0.9,1.4,1.9,3.2,1.9c1.1,0,2.3-0.3,3-0.8l-0.3,3c-0.8,0.4-2.1,0.7-3.5,0.7
		c-3.3,0-6-2.3-6-5.9c0-3.5,2.5-5.7,5.7-5.7c3,0,4.9,2.1,4.9,4.3C450.3,34,450.2,34.4,450.2,34.6z M445.4,32c-1,0-1.9,0.8-2.1,1.8
		h3.7c0-0.1,0-0.1,0-0.2C447,32.8,446.3,32,445.4,32z"/>
</g>
<g>
	<path class="st0" d="M201.1,57.6h-2.8v4c0,0.9,0.5,1.3,1.4,1.3c0.4,0,0.6,0,0.9-0.1l-0.3,2.7c-0.3,0.2-0.9,0.3-1.6,0.3
		c-2.4,0-3.9-1.3-3.9-3.5v-4.7h-1.8v-2.9h1.8v-2.3l3.5-1.3v3.6h3.5L201.1,57.6z"/>
	<path class="st0" d="M209.9,65.6V59c0-0.8-0.6-1.5-1.6-1.5c-1.1,0-1.7,0.7-1.7,1.5v6.6H203V48.6h3.5v7.2h0c0.6-0.8,1.6-1.3,3.1-1.3
		c2.4,0,3.8,1.3,3.8,3.6v7.6H209.9z"/>
	<path class="st0" d="M223.3,66.1c-0.6-0.1-1.4-0.6-1.7-1.4c-0.5,0.9-1.5,1.3-2.8,1.3c-1.9,0-3.6-1.3-3.6-3.6c0-2,1.6-3.3,3.7-3.6
		l2.2-0.2v-0.4c0-0.6-0.5-1.1-1.7-1.1c-1.1,0-2.2,0.3-3,0.8l-0.6-2.7c0.9-0.6,2.4-1,3.8-1c2.9,0,4.9,1.3,4.9,3.9v3.6
		c0,1.3,0.5,1.9,1.3,2.3L223.3,66.1z M221,60.9l-1.3,0.1c-0.9,0.1-1.3,0.7-1.3,1.4c0,0.6,0.4,1.1,1.1,1.1c0.8,0,1.5-0.6,1.5-1.6
		V60.9z"/>
	<path class="st0" d="M234,57.6h-2.8v4c0,0.9,0.5,1.3,1.4,1.3c0.4,0,0.6,0,0.9-0.1l-0.3,2.7c-0.3,0.2-0.9,0.3-1.6,0.3
		c-2.4,0-3.9-1.3-3.9-3.5v-4.7h-1.8v-2.9h1.8v-2.3l3.5-1.3v3.6h3.5L234,57.6z"/>
	<path class="st0" d="M248.1,65.6V59c0-0.8-0.5-1.5-1.6-1.5c-1.1,0-1.7,0.7-1.7,1.5v6.6h-3.5V54.8h3.2v1.5h0
		c0.4-1.2,1.6-1.8,3.3-1.8c2.4,0,3.8,1.3,3.8,3.6v7.6H248.1z"/>
	<path class="st0" d="M263.8,59.6l-1.6,1.6h-5.3c0.2,0.9,1.4,1.9,3.2,1.9c1.1,0,2.3-0.3,3-0.8l-0.3,3c-0.8,0.4-2.1,0.7-3.5,0.7
		c-3.3,0-6-2.3-6-5.9c0-3.5,2.5-5.7,5.7-5.7c3,0,4.9,2.1,4.9,4.3C263.9,59,263.9,59.4,263.8,59.6z M259,57c-1,0-1.9,0.8-2.1,1.8h3.7
		c0-0.1,0-0.1,0-0.2C260.6,57.8,260,57,259,57z"/>
	<path class="st0" d="M271.2,65.7h-2.6l-4.2-11h3.4l1.5,4.2c0.2,0.6,0.4,1.4,0.6,2.1h0c0.2-0.7,0.4-1.5,0.6-2.1l1.5-4.2h3.3
		L271.2,65.7z"/>
	<path class="st0" d="M286.2,59.6l-1.6,1.6h-5.3c0.2,0.9,1.4,1.9,3.2,1.9c1.1,0,2.3-0.3,3-0.8l-0.3,3c-0.8,0.4-2.1,0.7-3.5,0.7
		c-3.3,0-6-2.3-6-5.9c0-3.5,2.5-5.7,5.7-5.7c3,0,4.9,2.1,4.9,4.3C286.3,59,286.2,59.4,286.2,59.6z M281.4,57c-1,0-1.9,0.8-2.1,1.8
		h3.7c0-0.1,0-0.1,0-0.2C283,57.8,282.3,57,281.4,57z"/>
	<path class="st0" d="M294.7,58.5c-0.2-0.1-0.7-0.3-1.1-0.3c-1.1,0-2.2,0.6-2.2,2.3v5.1H288V54.8h3.5v2.4h0c0.4-1.7,1.6-2.6,3.1-2.6
		c0.3,0,0.7,0,1,0.1L294.7,58.5z"/>
	<path class="st0" d="M308.9,58.5c-0.2-0.1-0.7-0.3-1.1-0.3c-1.1,0-2.2,0.6-2.2,2.3v5.1h-3.5V54.8h3.5v2.4h0
		c0.4-1.7,1.6-2.6,3.1-2.6c0.3,0,0.7,0,1,0.1L308.9,58.5z"/>
	<path class="st0" d="M318.2,65.6v-1.5h0c-0.4,1.2-1.6,1.8-3.3,1.8c-2.4,0-3.8-1.3-3.8-3.6v-7.6h3.5v6.7c0,0.8,0.6,1.5,1.6,1.5
		c1.1,0,1.7-0.7,1.7-1.6v-6.6h3.5v10.9H318.2z"/>
	<path class="st0" d="M330.5,65.6V59c0-0.8-0.5-1.5-1.6-1.5c-1.1,0-1.7,0.7-1.7,1.5v6.6h-3.5V54.8h3.2v1.5h0
		c0.4-1.2,1.6-1.8,3.3-1.8c2.4,0,3.8,1.3,3.8,3.6v7.6H330.5z"/>
	<path class="st0" d="M339.7,65.9c-1.5,0-2.6-0.3-3.5-0.8L336,62c1,0.7,2.2,1.2,3.4,1.2c0.6,0,1.1-0.3,1.1-0.7c0-0.5-0.4-0.6-1-0.8
		c-2.1-0.6-3.3-1.7-3.3-3.6c0-2.1,1.7-3.5,4.1-3.5c1.3,0,2.7,0.4,3.2,0.6l-0.6,2.6c-0.5-0.3-1.4-0.6-2.3-0.6c-0.6,0-1,0.3-1,0.7
		c0,0.4,0.3,0.6,1,0.8c2.4,0.6,3.5,1.9,3.5,3.7C344,64.2,342.7,65.9,339.7,65.9z"/>
	<path class="st0" d="M356.6,66c-3.3,0-5.9-2.3-5.9-5.8s2.6-5.8,5.9-5.8c3.3,0,5.9,2.3,5.9,5.8S359.9,66,356.6,66z M356.6,57.5
		c-1.3,0-2.4,1.2-2.4,2.8s1.1,2.8,2.4,2.8c1.3,0,2.4-1.2,2.4-2.8S357.9,57.5,356.6,57.5z"/>
	<path class="st0" d="M371.4,65.6v-1.5h0c-0.4,1.2-1.6,1.8-3.3,1.8c-2.4,0-3.8-1.3-3.8-3.6v-7.6h3.5v6.7c0,0.8,0.6,1.5,1.6,1.5
		c1.1,0,1.7-0.7,1.7-1.6v-6.6h3.5v10.9H371.4z"/>
	<path class="st0" d="M384.2,57.6h-2.8v4c0,0.9,0.5,1.3,1.4,1.3c0.4,0,0.6,0,0.9-0.1l-0.3,2.7c-0.3,0.2-0.9,0.3-1.6,0.3
		c-2.4,0-3.9-1.3-3.9-3.5v-4.7H376v-2.9h1.8v-2.3l3.5-1.3v3.6h3.5L384.2,57.6z"/>
	<path class="st0" d="M387.6,66c-0.6,0-2-1.3-2-2c0-0.6,1.3-2,2-2c0.6,0,2,1.3,2,2C389.6,64.6,388.2,66,387.6,66z"/>
</g>
</svg>
