<?xml version="1.0" encoding="utf-8"?>
<!-- Generator: Adobe Illustrator 24.0.0, SVG Export Plug-In . SVG Version: 6.00 Build 0)  -->
<svg version="1.1" id="Layer_1" xmlns="http://www.w3.org/2000/svg" xmlns:xlink="http://www.w3.org/1999/xlink" x="0px" y="0px"
	 viewBox="0 0 728 90" style="enable-background:new 0 0 728 90;" xml:space="preserve">
<style type="text/css">
	.st0{fill:#F9E039;}
</style>
<g>
	<path class="st0" d="M173.7,39.5l-4.1-6h-1v6H165V24.2h5.6c2.6,0,4.9,1.8,4.9,4.6c0,1.8-1.1,3.2-2.4,3.8l4.9,6.8H173.7z
		 M170.1,27.2h-1.5v3.4h1.5c1,0,1.9-0.5,1.9-1.7C172,27.7,171,27.2,170.1,27.2z"/>
	<path class="st0" d="M188.3,33.4l-1.6,1.6h-5.3c0.2,0.9,1.4,1.9,3.2,1.9c1.1,0,2.3-0.3,3-0.8l-0.3,3c-0.8,0.4-2.1,0.7-3.5,0.7
		c-3.3,0-6-2.3-6-5.9c0-3.5,2.5-5.7,5.7-5.7c3,0,4.9,2.1,4.9,4.3C188.3,32.9,188.3,33.2,188.3,33.4z M183.5,30.9
		c-1,0-1.9,0.8-2.1,1.8h3.7c0-0.1,0-0.1,0-0.2C185.1,31.7,184.4,30.9,183.5,30.9z"/>
	<path class="st0" d="M197.6,40c-0.6-0.1-1.4-0.6-1.7-1.4c-0.5,0.9-1.5,1.3-2.8,1.3c-1.9,0-3.6-1.3-3.6-3.6c0-2,1.6-3.3,3.7-3.6
		l2.2-0.2v-0.4c0-0.6-0.5-1.1-1.7-1.1c-1.1,0-2.2,0.3-3,0.8l-0.6-2.7c0.9-0.6,2.4-1,3.8-1c2.9,0,4.9,1.3,4.9,3.9v3.6
		c0,1.3,0.5,1.9,1.3,2.3L197.6,40z M195.4,34.7l-1.3,0.1c-0.9,0.1-1.3,0.7-1.3,1.4c0,0.6,0.4,1.1,1.1,1.1c0.8,0,1.5-0.6,1.5-1.6
		V34.7z"/>
	<path class="st0" d="M209.3,39.5v-1.3h0c-0.6,1.1-1.8,1.7-3.4,1.7c-2.7,0-5.2-2-5.2-5.7c0-3.5,2.5-5.8,5.5-5.8
		c1.2,0,2.3,0.4,2.8,0.7v-6.6h3.4v17.1H209.3z M209,32.4c-0.3-0.5-1.1-1-2.1-1c-1.5,0-2.6,1.2-2.6,2.8s1.1,2.8,2.6,2.8
		c1,0,1.8-0.6,2.1-1.1V32.4z"/>
	<path class="st0" d="M221.2,38.4c-1.7,4.4-3.4,6-5.4,6.7l-2.2-2.2c1.8-0.7,3.1-1.9,4-4.2l-3.9-10.1h3.4l1.6,4.2
		c0.2,0.6,0.5,1.4,0.6,2.1h0c0.2-0.7,0.5-1.5,0.7-2.1l1.6-4.2h3.2L221.2,38.4z"/>
	<path class="st0" d="M238.9,31.5h-2.8v4c0,0.9,0.5,1.3,1.4,1.3c0.4,0,0.6,0,0.9-0.1l-0.3,2.7c-0.3,0.2-0.9,0.3-1.6,0.3
		c-2.4,0-3.9-1.3-3.9-3.5v-4.7h-1.8v-2.9h1.8v-2.3l3.5-1.3v3.6h3.5L238.9,31.5z"/>
	<path class="st0" d="M246,39.8c-3.3,0-5.9-2.3-5.9-5.8c0-3.5,2.6-5.8,5.9-5.8c3.3,0,5.9,2.3,5.9,5.8
		C251.9,37.5,249.3,39.8,246,39.8z M246,31.3c-1.3,0-2.4,1.2-2.4,2.8c0,1.6,1.1,2.8,2.4,2.8c1.3,0,2.4-1.2,2.4-2.8
		C248.4,32.5,247.3,31.3,246,31.3z"/>
	<path class="st0" d="M263.9,45c-3.2,0-5.3-1.8-5.3-4.1c0-1.7,1.1-2.6,2.2-2.9l-1.4-1.4c0.1-0.7,0.7-1.3,1.3-1.6
		c-0.8-0.5-1.6-1.5-1.6-2.9c0-2.3,1.7-3.9,4.5-3.9c0.6,0,1.2,0.1,1.6,0.2c0.5,0.1,1,0.2,1.6,0.2c0.6,0,1.2-0.1,1.7-0.4l0.6,2.7
		c-0.3,0.2-0.9,0.4-1.3,0.3c0.1,0.2,0.3,0.7,0.3,1.1c0,1.8-1.4,3.4-3.6,3.5c-0.4,0-0.7,0.1-0.7,0.4c0,0.1,0.1,0.3,0.3,0.3l1.7,0.6
		c2.1,0.8,3.3,1.8,3.3,3.8C269.1,43.3,267.1,45,263.9,45z M264.6,39.9l-1.3-0.4c-0.8,0-1.5,0.6-1.5,1.4c0,0.7,0.6,1.4,1.9,1.4
		c1.2,0,1.9-0.6,1.9-1.2C265.7,40.6,265.3,40.1,264.6,39.9z M263.7,30.8c-0.8,0-1.4,0.6-1.4,1.3c0,0.7,0.6,1.3,1.4,1.3
		c0.8,0,1.4-0.6,1.4-1.3C265.1,31.4,264.5,30.8,263.7,30.8z"/>
	<path class="st0" d="M272.4,27.1c-0.6,0-1.9-1.3-1.9-1.9s1.3-1.9,1.9-1.9s1.9,1.2,1.9,1.9S273,27.1,272.4,27.1z M270.6,39.5V28.6
		h3.6v10.9H270.6z"/>
	<path class="st0" d="M282.2,39.6h-2.6l-4.2-11h3.4l1.5,4.2c0.2,0.6,0.4,1.4,0.6,2.1h0c0.2-0.7,0.4-1.5,0.6-2.1l1.5-4.2h3.3
		L282.2,39.6z"/>
	<path class="st0" d="M297.2,33.4l-1.6,1.6h-5.3c0.2,0.9,1.4,1.9,3.2,1.9c1.1,0,2.3-0.3,3-0.8l-0.3,3c-0.8,0.4-2.1,0.7-3.5,0.7
		c-3.3,0-6-2.3-6-5.9c0-3.5,2.5-5.7,5.7-5.7c3,0,4.9,2.1,4.9,4.3C297.3,32.9,297.2,33.2,297.2,33.4z M292.4,30.9
		c-1,0-1.9,0.8-2.1,1.8h3.7c0-0.1,0-0.1,0-0.2C294,31.7,293.3,30.9,292.4,30.9z"/>
	<path class="st0" d="M311.1,38.4c-1.7,4.4-3.4,6-5.4,6.7l-2.2-2.2c1.8-0.7,3.1-1.9,4-4.2l-3.9-10.1h3.4l1.6,4.2
		c0.2,0.6,0.5,1.4,0.6,2.1h0c0.2-0.7,0.5-1.5,0.7-2.1l1.6-4.2h3.2L311.1,38.4z"/>
	<path class="st0" d="M321,39.8c-3.3,0-5.9-2.3-5.9-5.8c0-3.5,2.6-5.8,5.9-5.8c3.3,0,5.9,2.3,5.9,5.8
		C326.9,37.5,324.3,39.8,321,39.8z M321,31.3c-1.3,0-2.4,1.2-2.4,2.8c0,1.6,1.1,2.8,2.4,2.8c1.3,0,2.4-1.2,2.4-2.8
		C323.4,32.5,322.3,31.3,321,31.3z"/>
	<path class="st0" d="M335.8,39.5V38h0c-0.4,1.2-1.6,1.8-3.3,1.8c-2.4,0-3.8-1.3-3.8-3.6v-7.6h3.5v6.7c0,0.8,0.6,1.5,1.6,1.5
		c1.1,0,1.7-0.7,1.7-1.6v-6.6h3.5v10.9H335.8z"/>
	<path class="st0" d="M348,32.4c-0.2-0.1-0.7-0.3-1.1-0.3c-1.1,0-2.2,0.6-2.2,2.3v5.1h-3.5V28.6h3.5V31h0c0.4-1.7,1.6-2.6,3.1-2.6
		c0.3,0,0.7,0,1,0.1L348,32.4z"/>
	<path class="st0" d="M362.2,32.4c-0.2-0.1-0.7-0.3-1.1-0.3c-1.1,0-2.2,0.6-2.2,2.3v5.1h-3.5V28.6h3.5V31h0c0.4-1.7,1.6-2.6,3.1-2.6
		c0.3,0,0.7,0,1,0.1L362.2,32.4z"/>
	<path class="st0" d="M374,33.4l-1.6,1.6h-5.3c0.2,0.9,1.4,1.9,3.2,1.9c1.1,0,2.3-0.3,3-0.8l-0.3,3c-0.8,0.4-2.1,0.7-3.5,0.7
		c-3.3,0-6-2.3-6-5.9c0-3.5,2.5-5.7,5.7-5.7c3,0,4.9,2.1,4.9,4.3C374.1,32.9,374.1,33.2,374,33.4z M369.2,30.9c-1,0-1.9,0.8-2.1,1.8
		h3.7c0-0.1,0-0.1,0-0.2C370.8,31.7,370.2,30.9,369.2,30.9z"/>
	<path class="st0" d="M383.2,31.5h-2.8v4c0,0.9,0.5,1.3,1.4,1.3c0.4,0,0.6,0,0.9-0.1l-0.3,2.7c-0.3,0.2-0.9,0.3-1.6,0.3
		c-2.4,0-3.9-1.3-3.9-3.5v-4.7H375v-2.9h1.8v-2.3l3.5-1.3v3.6h3.5L383.2,31.5z"/>
	<path class="st0" d="M386.9,27.1c-0.6,0-1.9-1.3-1.9-1.9s1.3-1.9,1.9-1.9s1.9,1.2,1.9,1.9S387.6,27.1,386.9,27.1z M385.2,39.5V28.6
		h3.6v10.9H385.2z"/>
	<path class="st0" d="M397.8,32.4c-0.2-0.1-0.7-0.3-1.1-0.3c-1.1,0-2.2,0.6-2.2,2.3v5.1H391V28.6h3.5V31h0c0.4-1.7,1.6-2.6,3.1-2.6
		c0.3,0,0.7,0,1,0.1L397.8,32.4z"/>
	<path class="st0" d="M409.6,33.4L408,35h-5.3c0.2,0.9,1.4,1.9,3.2,1.9c1.1,0,2.3-0.3,3-0.8l-0.3,3c-0.8,0.4-2.1,0.7-3.5,0.7
		c-3.3,0-6-2.3-6-5.9c0-3.5,2.5-5.7,5.7-5.7c3,0,4.9,2.1,4.9,4.3C409.6,32.9,409.6,33.2,409.6,33.4z M404.8,30.9
		c-1,0-1.9,0.8-2.1,1.8h3.7c0-0.1,0-0.1,0-0.2C406.4,31.7,405.7,30.9,404.8,30.9z"/>
	<path class="st0" d="M424.8,39.5v-6.7c0-0.8-0.4-1.5-1.5-1.5c-1.1,0-1.6,0.7-1.6,1.5v6.6h-3.5v-6.7c0-0.8-0.4-1.5-1.5-1.5
		c-1.1,0-1.6,0.7-1.6,1.5v6.6h-3.5V28.6h3.3v1.5h0c0.4-1.2,1.5-1.8,3.2-1.8c1.6,0,2.7,0.6,3.2,1.8c0.5-1.1,1.7-1.8,3.4-1.8
		c2.5,0,3.8,1.3,3.8,3.6v7.6H424.8z"/>
	<path class="st0" d="M440.5,33.4l-1.6,1.6h-5.3c0.2,0.9,1.4,1.9,3.2,1.9c1.1,0,2.3-0.3,3-0.8l-0.3,3c-0.8,0.4-2.1,0.7-3.5,0.7
		c-3.3,0-6-2.3-6-5.9c0-3.5,2.5-5.7,5.7-5.7c3,0,4.9,2.1,4.9,4.3C440.6,32.9,440.5,33.2,440.5,33.4z M435.7,30.9
		c-1,0-1.9,0.8-2.1,1.8h3.7c0-0.1,0-0.1,0-0.2C437.3,31.7,436.6,30.9,435.7,30.9z"/>
	<path class="st0" d="M449.2,39.5v-6.7c0-0.8-0.5-1.5-1.6-1.5c-1.1,0-1.7,0.7-1.7,1.5v6.6h-3.5V28.6h3.2v1.5h0
		c0.4-1.2,1.6-1.8,3.3-1.8c2.4,0,3.8,1.3,3.8,3.6v7.6H449.2z"/>
	<path class="st0" d="M462.1,31.5h-2.8v4c0,0.9,0.5,1.3,1.4,1.3c0.4,0,0.6,0,0.9-0.1l-0.3,2.7c-0.3,0.2-0.9,0.3-1.6,0.3
		c-2.4,0-3.9-1.3-3.9-3.5v-4.7h-1.8v-2.9h1.8v-2.3l3.5-1.3v3.6h3.5L462.1,31.5z"/>
	<path class="st0" d="M472.9,39.7c-1.5,0-2.6-0.3-3.5-0.8l-0.3-3.1c1,0.7,2.2,1.2,3.4,1.2c0.6,0,1.1-0.3,1.1-0.7
		c0-0.5-0.4-0.6-1-0.8c-2.1-0.6-3.3-1.7-3.3-3.6c0-2.1,1.7-3.5,4.1-3.5c1.3,0,2.7,0.4,3.2,0.6l-0.6,2.6c-0.5-0.3-1.4-0.6-2.3-0.6
		c-0.6,0-1,0.3-1,0.7c0,0.4,0.3,0.6,1,0.8c2.4,0.6,3.5,1.9,3.5,3.7C477.2,38,475.8,39.7,472.9,39.7z"/>
	<path class="st0" d="M486.6,40c-0.6-0.1-1.4-0.6-1.7-1.4c-0.5,0.9-1.5,1.3-2.8,1.3c-1.9,0-3.6-1.3-3.6-3.6c0-2,1.6-3.3,3.7-3.6
		l2.2-0.2v-0.4c0-0.6-0.5-1.1-1.7-1.1c-1.1,0-2.2,0.3-3,0.8l-0.6-2.7c0.9-0.6,2.4-1,3.8-1c2.9,0,4.9,1.3,4.9,3.9v3.6
		c0,1.3,0.5,1.9,1.3,2.3L486.6,40z M484.3,34.7l-1.3,0.1c-0.9,0.1-1.3,0.7-1.3,1.4c0,0.6,0.4,1.1,1.1,1.1c0.8,0,1.5-0.6,1.5-1.6
		V34.7z"/>
	<path class="st0" d="M495.6,39.6H493l-4.2-11h3.4l1.5,4.2c0.2,0.6,0.4,1.4,0.6,2.1h0c0.2-0.7,0.4-1.5,0.6-2.1l1.5-4.2h3.3
		L495.6,39.6z"/>
	<path class="st0" d="M502.9,27.1c-0.6,0-1.9-1.3-1.9-1.9s1.3-1.9,1.9-1.9s1.9,1.2,1.9,1.9S503.5,27.1,502.9,27.1z M501.1,39.5V28.6
		h3.6v10.9H501.1z"/>
	<path class="st0" d="M513.8,39.5v-6.7c0-0.8-0.5-1.5-1.6-1.5c-1.1,0-1.7,0.7-1.7,1.5v6.6h-3.5V28.6h3.2v1.5h0
		c0.4-1.2,1.6-1.8,3.3-1.8c2.4,0,3.8,1.3,3.8,3.6v7.6H513.8z"/>
	<path class="st0" d="M524.2,45c-3.2,0-5.3-1.8-5.3-4.1c0-1.7,1.1-2.6,2.2-2.9l-1.4-1.4c0.1-0.7,0.7-1.3,1.3-1.6
		c-0.8-0.5-1.6-1.5-1.6-2.9c0-2.3,1.7-3.9,4.5-3.9c0.6,0,1.2,0.1,1.6,0.2c0.5,0.1,1,0.2,1.6,0.2c0.6,0,1.2-0.1,1.7-0.4l0.6,2.7
		c-0.3,0.2-0.9,0.4-1.3,0.3c0.1,0.2,0.3,0.7,0.3,1.1c0,1.8-1.4,3.4-3.6,3.5c-0.4,0-0.7,0.1-0.7,0.4c0,0.1,0.1,0.3,0.3,0.3l1.7,0.6
		c2.1,0.8,3.3,1.8,3.3,3.8C529.4,43.3,527.3,45,524.2,45z M524.9,39.9l-1.3-0.4c-0.8,0-1.5,0.6-1.5,1.4c0,0.7,0.6,1.4,1.9,1.4
		c1.2,0,1.9-0.6,1.9-1.2C526,40.6,525.6,40.1,524.9,39.9z M523.9,30.8c-0.8,0-1.4,0.6-1.4,1.3c0,0.7,0.6,1.3,1.4,1.3
		c0.8,0,1.4-0.6,1.4-1.3C525.3,31.4,524.8,30.8,523.9,30.8z"/>
	<path class="st0" d="M534.3,39.7c-1.5,0-2.6-0.3-3.5-0.8l-0.3-3.1c1,0.7,2.2,1.2,3.4,1.2c0.6,0,1.1-0.3,1.1-0.7
		c0-0.5-0.4-0.6-1-0.8c-2.1-0.6-3.3-1.7-3.3-3.6c0-2.1,1.7-3.5,4.1-3.5c1.3,0,2.7,0.4,3.2,0.6l-0.6,2.6c-0.5-0.3-1.4-0.6-2.3-0.6
		c-0.6,0-1,0.3-1,0.7c0,0.4,0.3,0.6,1,0.8c2.4,0.6,3.5,1.9,3.5,3.7C538.6,38,537.3,39.7,534.3,39.7z"/>
</g>
<g>
	<path class="st0" d="M284.3,65c-0.6-0.1-1.4-0.6-1.7-1.4c-0.5,0.9-1.5,1.3-2.8,1.3c-1.9,0-3.6-1.3-3.6-3.6c0-2,1.6-3.3,3.7-3.6
		l2.2-0.2v-0.4c0-0.6-0.5-1.1-1.7-1.1c-1.1,0-2.2,0.3-3,0.8l-0.6-2.7c0.9-0.6,2.4-1,3.8-1c2.9,0,4.9,1.3,4.9,3.9v3.6
		c0,1.3,0.5,1.9,1.3,2.3L284.3,65z M282.1,59.7l-1.3,0.1c-0.9,0.1-1.3,0.7-1.3,1.4c0,0.6,0.4,1.1,1.1,1.1c0.8,0,1.5-0.6,1.5-1.6
		V59.7z"/>
	<path class="st0" d="M305.4,64.6h-2.4l-1.5-4.3c-0.2-0.7-0.4-1.4-0.6-2.3h0c-0.2,0.8-0.4,1.6-0.6,2.2l-1.5,4.3h-2.3l-3.8-11h3.2
		l1.3,4.1c0.2,0.6,0.4,1.4,0.5,2.1h0c0.1-0.7,0.3-1.5,0.5-2.1l1.4-4.1h2.7l1.4,4.1c0.2,0.7,0.4,1.4,0.5,2.1h0
		c0.1-0.7,0.3-1.5,0.6-2.1l1.4-4.1h3L305.4,64.6z"/>
	<path class="st0" d="M318.1,65c-0.6-0.1-1.4-0.6-1.7-1.4c-0.5,0.9-1.5,1.3-2.8,1.3c-1.9,0-3.6-1.3-3.6-3.6c0-2,1.6-3.3,3.7-3.6
		l2.2-0.2v-0.4c0-0.6-0.5-1.1-1.7-1.1c-1.1,0-2.2,0.3-3,0.8l-0.6-2.7c0.9-0.6,2.4-1,3.8-1c2.9,0,4.9,1.3,4.9,3.9v3.6
		c0,1.3,0.5,1.9,1.3,2.3L318.1,65z M315.8,59.7l-1.3,0.1c-0.9,0.1-1.3,0.7-1.3,1.4c0,0.6,0.4,1.1,1.1,1.1c0.8,0,1.5-0.6,1.5-1.6
		V59.7z"/>
	<path class="st0" d="M328.5,64.5l-3.2-4.4h0v4.4h-3.5V47.4h3.5V58h0l3.3-4.4h3.8l-3.8,5.3l4,5.6H328.5z"/>
	<path class="st0" d="M343.2,58.4l-1.6,1.6h-5.3c0.2,0.9,1.4,1.9,3.2,1.9c1.1,0,2.3-0.3,3-0.8l-0.3,3c-0.8,0.4-2.1,0.7-3.5,0.7
		c-3.3,0-6-2.3-6-5.9c0-3.5,2.5-5.7,5.7-5.7c3,0,4.9,2.1,4.9,4.3C343.3,57.9,343.2,58.2,343.2,58.4z M338.4,55.9
		c-1,0-1.9,0.8-2.1,1.8h3.7c0-0.1,0-0.1,0-0.2C340,56.7,339.4,55.9,338.4,55.9z"/>
	<path class="st0" d="M345,59.2v-2.7h6.3v2.7H345z"/>
	<path class="st0" d="M360.6,64.5V63h0c-0.4,1.2-1.6,1.8-3.3,1.8c-2.4,0-3.8-1.3-3.8-3.6v-7.6h3.5v6.7c0,0.8,0.6,1.5,1.6,1.5
		c1.1,0,1.7-0.7,1.7-1.6v-6.6h3.5v10.9H360.6z"/>
	<path class="st0" d="M372.2,64.8c-1.2,0-2.3-0.4-2.8-0.7v6H366V53.6h3.1V55h0c0.6-1.1,1.8-1.7,3.4-1.7c2.7,0,5.2,2,5.2,5.7
		C377.8,62.5,375.3,64.8,372.2,64.8z M371.6,56.4c-1,0-1.8,0.6-2.1,1.1v3.4c0.3,0.5,1.1,1,2.1,1c1.5,0,2.6-1.2,2.6-2.7
		C374.2,57.6,373.1,56.4,371.6,56.4z"/>
	<path class="st0" d="M393.2,57.1c-0.7-0.5-1.5-0.7-2.3-0.7c-1.5,0-2.8,1.1-2.8,2.7c0,1.6,1.2,2.7,2.8,2.7c0.9,0,1.6-0.2,2.4-0.6
		l-0.3,3c-0.7,0.3-1.7,0.5-2.7,0.5c-3,0-5.9-2.2-5.9-5.7c0-3.6,2.9-5.7,5.8-5.7c1.4,0,2.6,0.3,3.6,0.8L393.2,57.1z"/>
	<path class="st0" d="M403.2,65c-0.6-0.1-1.4-0.6-1.7-1.4c-0.5,0.9-1.5,1.3-2.8,1.3c-1.9,0-3.6-1.3-3.6-3.6c0-2,1.6-3.3,3.7-3.6
		l2.2-0.2v-0.4c0-0.6-0.5-1.1-1.7-1.1c-1.1,0-2.2,0.3-3,0.8l-0.6-2.7c0.9-0.6,2.4-1,3.8-1c2.9,0,4.9,1.3,4.9,3.9v3.6
		c0,1.3,0.5,1.9,1.3,2.3L403.2,65z M400.9,59.7l-1.3,0.1c-0.9,0.1-1.3,0.7-1.3,1.4c0,0.6,0.4,1.1,1.1,1.1c0.8,0,1.5-0.6,1.5-1.6
		V59.7z"/>
	<path class="st0" d="M410.5,64.9c-2.2-0.1-3.7-1.2-3.7-3.9V47.4h3.5v13.2c0,0.9,0.5,1.4,1.5,1.4L410.5,64.9z"/>
	<path class="st0" d="M416.8,64.9c-2.2-0.1-3.7-1.2-3.7-3.9V47.4h3.5v13.2c0,0.9,0.5,1.4,1.5,1.4L416.8,64.9z"/>
	<path class="st0" d="M424.6,57c-0.6,0.7-0.8,1.2-0.8,1.9c0,0.3,0,0.7,0.1,1.1l-3-0.6c-0.1-0.5-0.2-0.8-0.2-1.2
		c0-1.3,0.5-2.4,1.4-3.3c0.6-0.6,0.9-1.1,0.9-1.8c0-0.5-0.5-1.1-1.3-1.1c-0.9,0-1.6,0.3-2.4,0.8l-0.7-3c0.9-0.6,2.1-0.9,3.4-0.9
		c2.8,0,4.7,1.6,4.7,4.1C426.6,54.3,426,55.4,424.6,57z M422.4,64.8c-0.6,0-2-1.3-2-2c0-0.6,1.3-2,2-2c0.6,0,2,1.3,2,2
		C424.4,63.5,423.1,64.8,422.4,64.8z"/>
</g>
</svg>
