<?xml version="1.0" encoding="utf-8"?>
<!-- Generator: Adobe Illustrator 24.0.0, SVG Export Plug-In . SVG Version: 6.00 Build 0)  -->
<svg version="1.1" id="Layer_1" xmlns="http://www.w3.org/2000/svg" xmlns:xlink="http://www.w3.org/1999/xlink" x="0px" y="0px"
	 viewBox="0 0 728 90" style="enable-background:new 0 0 728 90;" xml:space="preserve">
<style type="text/css">
	.st0{fill:#3ABFEF;}
</style>
<path class="st0" d="M584.2,51.3c-5.2,0-9.5,4.2-9.5,9.5V70c0,5.2,4.2,9.5,9.5,9.5h109.9c5.2,0,9.5-4.2,9.5-9.5v-9.3
	c0-5.2-4.2-9.5-9.5-9.5H584.2z"/>
<g>
	<path d="M589.4,66.2v-1.5h3.3v4.3h-0.8l-0.3-0.9c-0.6,0.7-1.2,1-2.2,1c-2.3,0-3.3-1.9-3.3-4c0-2.2,1.1-4.2,3.5-4.2
		c1.7,0,2.9,1,3.1,2.7l-1.8,0.2c-0.1-0.8-0.5-1.5-1.4-1.5c-1.3,0-1.5,1.7-1.5,2.7c0,1,0.3,2.5,1.6,2.5c0.8,0,1.4-0.6,1.3-1.4H589.4z
		"/>
	<path d="M594.6,67.8c-0.6-0.8-0.8-1.9-0.8-2.9c0-2.1,1.1-4.1,3.4-4.1c1.1,0,1.9,0.3,2.5,1.2c0.6,0.8,0.9,1.9,0.9,2.9
		c0,0.9-0.2,2-0.8,2.8c-0.6,0.9-1.6,1.4-2.6,1.4C596.1,69.1,595.3,68.7,594.6,67.8z M596,63.3c-0.2,0.5-0.3,1.2-0.3,1.7
		c0,1,0.2,2.6,1.5,2.6c0.6,0,1-0.3,1.2-0.9c0.2-0.5,0.2-1.2,0.2-1.7c0-0.6-0.1-1.3-0.3-1.8c-0.2-0.5-0.6-0.8-1.2-0.8
		C596.6,62.4,596.2,62.7,596,63.3z"/>
	<path d="M610.6,62.5h-2v6.4h-1.9v-6.4h-2v-1.6h5.9V62.5z"/>
	<path d="M612.1,67.8c-0.6-0.8-0.8-1.9-0.8-2.9c0-2.1,1.1-4.1,3.4-4.1c1.1,0,1.9,0.3,2.5,1.2c0.6,0.8,0.9,1.9,0.9,2.9
		c0,0.9-0.2,2-0.8,2.8c-0.6,0.9-1.6,1.4-2.6,1.4C613.6,69.1,612.7,68.7,612.1,67.8z M613.5,63.3c-0.2,0.5-0.3,1.2-0.3,1.7
		c0,1,0.2,2.6,1.5,2.6c0.6,0,1-0.3,1.2-0.9c0.2-0.5,0.2-1.2,0.2-1.7c0-0.6-0.1-1.3-0.3-1.8c-0.2-0.5-0.6-0.8-1.2-0.8
		C614.1,62.4,613.7,62.7,613.5,63.3z"/>
	<path d="M627.3,64c0-0.9-0.3-1.7-1.3-1.7c-1.3,0-1.4,1.7-1.4,2.7c0,1.1,0.1,2.5,1.5,2.5c0.9,0,1.3-0.7,1.4-1.5l1.8,0.1
		c-0.2,1.8-1.5,2.9-3.3,2.9c-2.4,0-3.5-1.9-3.5-4.1c0-2.2,1.2-4.1,3.6-4.1c2,0,3,1.2,3.2,3.1L627.3,64z"/>
	<path d="M637,68.9h-2l-0.5-1.6H632l-0.5,1.6h-1.6l2.6-8h2.2L637,68.9z M634.1,65.8l-0.9-2.8l-0.8,2.8H634.1z"/>
	<path d="M643,67.4v1.6h-5.1v-8h1.9v6.4H643z"/>
	<path d="M648.3,64c0-0.9-0.3-1.7-1.3-1.7c-1.3,0-1.4,1.7-1.4,2.7c0,1.1,0.1,2.5,1.5,2.5c0.9,0,1.3-0.7,1.4-1.5l1.8,0.1
		c-0.2,1.8-1.5,2.9-3.3,2.9c-2.4,0-3.5-1.9-3.5-4.1c0-2.2,1.2-4.1,3.6-4.1c2,0,3,1.2,3.2,3.1L648.3,64z"/>
	<path d="M657.7,65.8c0,0.9,0,1.8-0.7,2.4c-0.6,0.6-1.6,0.8-2.5,0.8c-0.8,0-1.8-0.1-2.4-0.7c-0.8-0.7-0.8-1.6-0.8-2.6v-4.8h2v4.8
		c0,0.4,0,0.9,0.2,1.2c0.2,0.4,0.7,0.5,1.2,0.5c0.4,0,0.9-0.1,1.2-0.4c0.3-0.4,0.2-0.9,0.2-1.3v-4.8h1.6V65.8z"/>
	<path d="M664.1,67.4v1.6h-5.1v-8h1.9v6.4H664.1z"/>
	<path d="M671.5,68.9h-2l-0.5-1.6h-2.6l-0.5,1.6h-1.6l2.6-8h2.2L671.5,68.9z M668.6,65.8l-0.9-2.8l-0.8,2.8H668.6z"/>
	<path d="M677,62.5h-2v6.4h-1.9v-6.4h-2v-1.6h5.9V62.5z"/>
	<path d="M678.4,67.8c-0.6-0.8-0.8-1.9-0.8-2.9c0-2.1,1.1-4.1,3.4-4.1c1.1,0,1.9,0.3,2.5,1.2c0.6,0.8,0.9,1.9,0.9,2.9
		c0,0.9-0.2,2-0.8,2.8c-0.6,0.9-1.6,1.4-2.6,1.4C679.9,69.1,679.1,68.7,678.4,67.8z M679.8,63.3c-0.2,0.5-0.3,1.2-0.3,1.7
		c0,1,0.2,2.6,1.5,2.6c0.6,0,1-0.3,1.2-0.9c0.2-0.5,0.2-1.2,0.2-1.7c0-0.6-0.1-1.3-0.3-1.8c-0.2-0.5-0.6-0.8-1.2-0.8
		C680.4,62.4,680,62.7,679.8,63.3z"/>
	<path d="M687.5,68.9h-1.9v-8h3.4c0.7,0,1.4,0,2,0.4c0.7,0.4,1,1.2,1,2c0,0.9-0.5,1.7-1.4,2.1l1.5,3.5h-2.1l-1.2-3.2h-1.4V68.9z
		 M687.5,64.4h1c0.4,0,0.8,0,1.1-0.2c0.3-0.2,0.5-0.6,0.5-0.9c0-0.3-0.2-0.7-0.5-0.8c-0.3-0.2-0.8-0.2-1.2-0.2h-1V64.4z"/>
</g>
</svg>
