<?xml version="1.0" encoding="utf-8"?>
<!-- Generator: Adobe Illustrator 24.0.0, SVG Export Plug-In . SVG Version: 6.00 Build 0)  -->
<svg version="1.1" id="Layer_1" xmlns="http://www.w3.org/2000/svg" xmlns:xlink="http://www.w3.org/1999/xlink" x="0px" y="0px"
	 viewBox="0 0 728 90" style="enable-background:new 0 0 728 90;" xml:space="preserve">
<style type="text/css">
	.st0{fill:#FFFFFF;}
	.st1{clip-path:url(#SVGID_2_);fill:#FFFFFF;}
	.st2{clip-path:url(#SVGID_4_);fill:url(#SVGID_5_);}
	.st3{clip-path:url(#SVGID_7_);fill:url(#SVGID_8_);}
	.st4{clip-path:url(#SVGID_10_);fill:url(#SVGID_11_);}
</style>
<path class="st0" d="M655.5,16.8v3.6h-6.3v17.2h-4V20.4h-6.3v-3.6H655.5z M657.2,37.6h4V27.2V16.8h-4v10.4V37.6z M682,37.6h-4.1
	l-2.1-5.1h-7l-2.1,5.1h-4l8.8-21h1.8L682,37.6z M701.4,37.6h-4.1l-2.1-5.1h-7l-2.1,5.1h-4l8.8-21h1.8L701.4,37.6z M674.3,29.1
	l-2.1-5.2l-2.1,5.2H674.3z M693.8,29.1l-2.1-5.2l-2.1,5.2H693.8z"/>
<g>
	<defs>
		<rect id="SVGID_1_" x="606.2" y="11.9" width="97.5" height="32.8"/>
	</defs>
	<clipPath id="SVGID_2_">
		<use xlink:href="#SVGID_1_"  style="overflow:visible;"/>
	</clipPath>
	<path class="st1" d="M624.3,38.9c1.8,0,3.4-0.7,4.5-1.9l4.9-4.9c1.1-1.1,1.8-2.7,1.8-4.5V12.3h-15.3c-1.8,0-3.4,0.7-4.5,1.9
		l-4.9,4.9c-1.1,1.1-1.8,2.7-1.8,4.5v15.3H624.3z"/>
</g>
<g>
	<defs>
		<path id="SVGID_3_" d="M622.1,13.7c-2.8,0-5,2.2-5,5v1.7h10.5v10.5h1.7c2.8,0,5-2.3,5-5V13.7H622.1z"/>
	</defs>
	<clipPath id="SVGID_4_">
		<use xlink:href="#SVGID_3_"  style="overflow:visible;"/>
	</clipPath>
	
		<linearGradient id="SVGID_5_" gradientUnits="userSpaceOnUse" x1="0.9919" y1="91.0648" x2="1.9919" y2="91.0648" gradientTransform="matrix(11.9476 -11.9476 -11.9476 -11.9476 1698.4611 1125.4797)">
		<stop  offset="0" style="stop-color:#9EDCF9"/>
		<stop  offset="0.1" style="stop-color:#9EDCF9"/>
		<stop  offset="0.9" style="stop-color:#079DD9"/>
		<stop  offset="1" style="stop-color:#079DD9"/>
	</linearGradient>
	<polygon class="st2" points="608.5,22.3 625.7,5.1 642.8,22.3 625.7,39.4 	"/>
</g>
<g>
	<defs>
		<path id="SVGID_6_" d="M629.2,32.2h-13.5l-5.4,5.4h13.9c1.4,0,2.6-0.5,3.6-1.5l4.5-4.5l-0.1-0.1C631.4,31.9,630.3,32.2,629.2,32.2
			"/>
	</defs>
	<clipPath id="SVGID_7_">
		<use xlink:href="#SVGID_6_"  style="overflow:visible;"/>
	</clipPath>
	
		<linearGradient id="SVGID_8_" gradientUnits="userSpaceOnUse" x1="0.9605" y1="91.0307" x2="1.9605" y2="91.0307" gradientTransform="matrix(22.0274 0 0 -22.0274 589.2146 2039.6652)">
		<stop  offset="0" style="stop-color:#17B0E6"/>
		<stop  offset="0.1144" style="stop-color:#18ACE2"/>
		<stop  offset="0.264" style="stop-color:#16A1D7"/>
		<stop  offset="0.4332" style="stop-color:#1290C7"/>
		<stop  offset="0.6169" style="stop-color:#0D7AB4"/>
		<stop  offset="0.81" style="stop-color:#00619F"/>
		<stop  offset="0.9" style="stop-color:#005595"/>
		<stop  offset="1" style="stop-color:#005595"/>
	</linearGradient>
	<rect x="610.4" y="31.4" class="st3" width="22" height="6.1"/>
</g>
<g>
	<defs>
		<path id="SVGID_9_" d="M611.9,20c-1,1-1.5,2.2-1.5,3.6v13.9l5.4-5.4V18.7c0-1.1,0.3-2.1,0.8-3.1l-0.1-0.1L611.9,20z"/>
	</defs>
	<clipPath id="SVGID_10_">
		<use xlink:href="#SVGID_9_"  style="overflow:visible;"/>
	</clipPath>
	
		<linearGradient id="SVGID_11_" gradientUnits="userSpaceOnUse" x1="1.0307" y1="91.0396" x2="2.0308" y2="91.0396" gradientTransform="matrix(0 -22.0277 -22.0277 0 2618.8347 60.272)">
		<stop  offset="0" style="stop-color:#0582BE"/>
		<stop  offset="0.2191" style="stop-color:#0478B4"/>
		<stop  offset="0.6535" style="stop-color:#00609E"/>
		<stop  offset="0.85" style="stop-color:#005595"/>
		<stop  offset="1" style="stop-color:#005595"/>
	</linearGradient>
	<rect x="610.4" y="15.5" class="st4" width="6.1" height="22"/>
</g>
</svg>
