<?xml version="1.0" encoding="utf-8"?>
<!-- Generator: Adobe Illustrator 22.1.0, SVG Export Plug-In . SVG Version: 6.00 Build 0)  -->
<svg version="1.1" id="Layer_1" xmlns="http://www.w3.org/2000/svg" xmlns:xlink="http://www.w3.org/1999/xlink" x="0px" y="0px"
	 viewBox="0 0 300 600" style="enable-background:new 0 0 300 600;" xml:space="preserve">
<style type="text/css">
	.st0{fill:#03CBA2;}
	.st1{fill:#3F2718;}
	.st2{fill:#FFDD15;}
	.st3{fill:#E01B22;}
	.st4{fill:#FFFFFF;}
</style>
<rect x="-403" y="-13" class="st0" width="300" height="600"/>
<path class="st1" d="M80.8,387.2L80.8,387.2c0.7,0.8,1.9,0.8,2.6,0.1l14.8-13.2c0.8-0.7,0.8-1.9,0.1-2.6c-0.7-0.8-1.9-0.8-2.6-0.1
	L81,384.6C80.2,385.3,80.2,386.4,80.8,387.2"/>
<rect x="95.2" y="377.2" transform="matrix(0.7071 -0.7071 0.7071 0.7071 -244.3521 181.0197)" class="st1" width="2.2" height="16.5"/>
<rect x="29.9" y="317.5" class="st1" width="2.3" height="59.1"/>
<path class="st2" d="M27,315.1c0,2.2,1.8,4,4,4c2.2,0,4-1.8,4-4c0-2.2-1.8-4-4-4C28.8,311.1,27,312.9,27,315.1"/>
<path class="st2" d="M49.2,397L49.2,397c2.5-1.1,3.6-4.1,2.5-6.6l-10.8-23.9c-1.1-2.5-4.1-3.6-6.6-2.5c-2.5,1.1-3.6,4.1-2.5,6.6
	l10.8,23.9C43.7,397,46.7,398.1,49.2,397"/>
<path class="st3" d="M29.4,370c9.9,6.2,12.3,21.5,12.3,21.5h45.7c11.2,0,13.1-10.2,13.1-10.2c3.1-16.1,15.5-22.7,20.1-24.6
	c14.9,11.7,24.5,29.8,24.5,50.2c0,3.9-0.4,7.8-1.1,11.5H18.7c-0.7-3.7-1.1-7.6-1.1-11.5C17.6,393.1,22,380.4,29.4,370"/>
<path class="st1" d="M12.6,433.3h137.6c5.3,0,9.6-4.3,9.6-9.6c0-5.3-4.3-9.6-9.6-9.6H12.6c-5.3,0-9.6,4.3-9.6,9.6
	C3,429,7.3,433.3,12.6,433.3"/>
<path class="st1" d="M129.7,400c0,5.8,3.1,10.5,7,10.5c3.9,0,7-4.7,7-10.5c0-5.8-3.1-10.5-7-10.5C132.8,389.4,129.7,394.1,129.7,400
	"/>
<path class="st4" d="M134.8,389.9c2.9,1.2,5.1,5.3,5.1,10.1c0,4.8-2.2,8.9-5.1,10.1c-2.9-1.2-5.1-5.3-5.1-10.1
	C129.7,395.1,131.9,391.1,134.8,389.9"/>
<path class="st4" d="M37.6,394.6h62c1.1,0,2.1-0.9,2.1-2.1s-0.9-2.1-2.1-2.1h-62c-1.1,0-2.1,0.9-2.1,2.1S36.5,394.6,37.6,394.6"/>
</svg>
