<?xml version="1.0" encoding="utf-8"?>
<!-- Generator: Adobe Illustrator 22.1.0, SVG Export Plug-In . SVG Version: 6.00 Build 0)  -->
<svg version="1.1" id="Layer_1" xmlns="http://www.w3.org/2000/svg" xmlns:xlink="http://www.w3.org/1999/xlink" x="0px" y="0px"
	 viewBox="0 0 300 600" style="enable-background:new 0 0 300 600;" xml:space="preserve">
<style type="text/css">
	.st0{fill:#3F2718;}
	.st1{fill:#FFDD15;}
	.st2{fill:#E01B22;}
	.st3{fill:#FFFFFF;}
</style>
<path class="st0" d="M214.9,400.1L214.9,400.1c-0.7,0.8-1.9,0.8-2.6,0.1L197.4,387c-0.8-0.7-0.8-1.9-0.1-2.6
	c0.7-0.8,1.9-0.8,2.6-0.1l14.8,13.2C215.5,398.1,215.6,399.3,214.9,400.1"/>
<rect x="191.1" y="397.2" transform="matrix(0.7071 -0.7071 0.7071 0.7071 -223.2777 257.6667)" class="st0" width="16.5" height="2.2"/>
<rect x="263.6" y="327" class="st0" width="2.3" height="62.4"/>
<path class="st1" d="M268.7,328c0,2.2-1.8,4-4,4c-2.2,0-4-1.8-4-4c0-2.2,1.8-4,4-4C266.9,324,268.7,325.8,268.7,328"/>
<path class="st1" d="M246.5,409.9L246.5,409.9c-2.5-1.1-3.6-4.1-2.5-6.6l10.8-23.9c1.1-2.5,4.1-3.6,6.6-2.5c2.5,1.1,3.6,4.1,2.5,6.6
	l-10.8,23.9C252,409.9,249,411,246.5,409.9"/>
<path class="st2" d="M266.4,382.9c-9.9,6.2-12.3,21.5-12.3,21.5h-45.7c-11.2,0-13.1-10.2-13.1-10.2c-3.1-16.1-15.5-22.7-20.1-24.6
	c-14.9,11.7-24.5,29.8-24.5,50.2c0,3.9,0.4,7.8,1.1,11.5h125.4c0.7-3.7,1.1-7.6,1.1-11.5C278.1,406,273.7,393.3,266.4,382.9"/>
<path class="st0" d="M283.2,446.2H145.6c-5.3,0-9.6-4.3-9.6-9.6c0-5.3,4.3-9.6,9.6-9.6h137.6c5.3,0,9.6,4.3,9.6,9.6
	C292.7,441.9,288.4,446.2,283.2,446.2"/>
<path class="st0" d="M170,412.9c0,5.8-3.1,10.5-7,10.5c-3.9,0-7-4.7-7-10.5s3.1-10.5,7-10.5C166.9,402.3,170,407,170,412.9"/>
<path class="st3" d="M164.9,402.7c-2.9,1.2-5.1,5.3-5.1,10.1c0,4.8,2.2,8.9,5.1,10.1c2.9-1.2,5.1-5.3,5.1-10.1
	C170,408,167.8,404,164.9,402.7"/>
<path class="st3" d="M258.1,407.5h-62c-1.1,0-2.1-0.9-2.1-2.1c0-1.1,0.9-2.1,2.1-2.1h62c1.1,0,2.1,0.9,2.1,2.1
	C260.2,406.6,259.3,407.5,258.1,407.5"/>
</svg>
