<?xml version="1.0" encoding="utf-8"?>
<!-- Generator: Adobe Illustrator 22.1.0, SVG Export Plug-In . SVG Version: 6.00 Build 0)  -->
<svg version="1.1" id="Layer_1" xmlns="http://www.w3.org/2000/svg" xmlns:xlink="http://www.w3.org/1999/xlink" x="0px" y="0px"
	 viewBox="0 0 300 600" style="enable-background:new 0 0 300 600;" xml:space="preserve">
<style type="text/css">
	.st0{fill:#B9E0D3;}
	.st1{fill:#FFFDF6;}
	.st2{fill:#898F94;}
</style>
<rect x="75.2" y="99.4" class="st0" width="114.2" height="58.5"/>
<path class="st1" d="M187.4,156.9H77.2v-55.6h110.3V156.9z M74.5,159.6H190V98.7H74.5V159.6z"/>
<path class="st2" d="M134.2,126.1H83.8c-0.6,0-1-0.5-1-1c0-0.6,0.5-1,1-1h50.4c0.6,0,1,0.5,1,1C135.2,125.6,134.8,126.1,134.2,126.1
	"/>
<path class="st2" d="M126.3,142.7H83.8c-0.6,0-1-0.5-1-1c0-0.6,0.5-1,1-1h42.5c0.6,0,1,0.5,1,1C127.4,142.2,126.9,142.7,126.3,142.7
	"/>
<path class="st2" d="M177.6,142.7h-42.5c-0.6,0-1-0.5-1-1c0-0.6,0.5-1,1-1h42.5c0.6,0,1,0.5,1,1
	C178.6,142.2,178.2,142.7,177.6,142.7"/>
<path class="st2" d="M177.6,135.3H83.8c-0.6,0-1-0.5-1-1c0-0.6,0.5-1,1-1h93.8c0.6,0,1,0.5,1,1C178.6,134.8,178.2,135.3,177.6,135.3
	"/>
<path class="st2" d="M177.8,114.1h-30.7c-0.6,0-1-0.5-1-1c0-0.6,0.5-1,1-1h30.7c0.6,0,1,0.5,1,1
	C178.9,113.7,178.4,114.1,177.8,114.1"/>
<path class="st2" d="M114.2,113.1H83.5c-0.6,0-1-0.5-1-1c0-0.6,0.5-1,1-1h30.7c0.6,0,1,0.5,1,1C115.2,112.6,114.8,113.1,114.2,113.1
	"/>
<path class="st2" d="M114.2,118.3H83.5c-0.6,0-1-0.5-1-1c0-0.6,0.5-1,1-1h30.7c0.6,0,1,0.5,1,1C115.2,117.9,114.8,118.3,114.2,118.3
	"/>
<rect x="147.5" y="118.5" class="st1" width="31.6" height="8.9"/>
<path class="st2" d="M145.3,122.9c-0.1-0.1-0.3-0.3-0.6-0.4c-0.2-0.1-0.5-0.3-0.9-0.5c-0.4-0.2-0.7-0.3-0.8-0.5
	c-0.1-0.1-0.2-0.2-0.2-0.4c0-0.2,0.1-0.3,0.2-0.5c0.1-0.1,0.3-0.2,0.5-0.2c0.4,0,0.7,0.2,0.9,0.6c0,0,0.1,0.1,0.1,0.1
	c0,0,0.1,0,0.1,0l0.9-0.5c0.1,0,0.1-0.1,0.1-0.2c-0.2-0.4-0.4-0.7-0.7-0.9c-0.2-0.2-0.5-0.3-0.8-0.4v-0.7c0-0.1-0.1-0.2-0.2-0.2
	h-0.8c-0.1,0-0.2,0.1-0.2,0.2v0.8c-0.2,0.1-0.4,0.1-0.6,0.2c-0.2,0.1-0.4,0.3-0.5,0.4c-0.1,0.2-0.3,0.4-0.3,0.6
	c-0.1,0.2-0.1,0.4-0.1,0.7c0,0.5,0.2,0.9,0.5,1.3c0.2,0.2,0.6,0.5,1.2,0.8c0.3,0.1,0.5,0.2,0.7,0.3c0.2,0.1,0.3,0.2,0.4,0.3
	c0.2,0.1,0.2,0.3,0.2,0.6c0,0.3-0.1,0.5-0.3,0.7c-0.2,0.2-0.4,0.3-0.7,0.3c-0.3,0-0.5-0.1-0.7-0.2c-0.2-0.2-0.3-0.5-0.5-0.9
	c0-0.1-0.1-0.1-0.2-0.1l-1,0.2c0,0-0.1,0-0.1,0.1c0,0,0,0.1,0,0.1c0.2,0.7,0.4,1.2,0.7,1.5c0.3,0.3,0.7,0.5,1.3,0.6v0.8
	c0,0.1,0.1,0.2,0.2,0.2h0.8c0.1,0,0.2-0.1,0.2-0.2v-0.8c0.5-0.2,0.9-0.4,1.2-0.8c0.3-0.4,0.5-0.9,0.5-1.4
	C145.9,123.8,145.7,123.3,145.3,122.9"/>
</svg>
