<?xml version="1.0" encoding="utf-8"?>
<!-- Generator: Adobe Illustrator 22.1.0, SVG Export Plug-In . SVG Version: 6.00 Build 0)  -->
<svg version="1.1" id="Layer_1" xmlns="http://www.w3.org/2000/svg" xmlns:xlink="http://www.w3.org/1999/xlink" x="0px" y="0px"
	 viewBox="0 0 300 600" style="enable-background:new 0 0 300 600;" xml:space="preserve">
<style type="text/css">
	.st0{fill:#03CBA2;}
	.st1{fill:#B8E0D2;}
	.st2{fill:#FFFDF6;}
	.st3{fill:#898F95;}
	.st4{fill:none;}
</style>
<rect x="-403" y="-13" class="st0" width="300" height="600"/>
<rect x="44.6" y="326" transform="matrix(0.9461 -0.3239 0.3239 0.9461 -114.6127 40.4839)" class="st1" width="39.4" height="77"/>
<path class="st2" d="M96,393.7l-38.8,13.3L32,333.3L70.8,320L96,393.7z M69.7,322.2l-35.4,12.1l24.1,70.3l35.4-12.1L69.7,322.2z"/>
<path class="st3" d="M65.5,361.6l11,32.2c0.1,0.4,0.5,0.6,0.9,0.4s0.6-0.5,0.4-0.9l-11-32.2c-0.1-0.4-0.5-0.6-0.9-0.4
	C65.6,360.8,65.4,361.2,65.5,361.6"/>
<path class="st3" d="M56.6,370.2l9.3,27.1c0.1,0.4,0.5,0.6,0.9,0.4c0.4-0.1,0.6-0.5,0.4-0.9L58,369.8c-0.1-0.4-0.5-0.6-0.9-0.4
	C56.7,369.5,56.5,369.9,56.6,370.2"/>
<path class="st3" d="M45.4,337.5l9.3,27.1c0.1,0.4,0.5,0.6,0.9,0.4c0.4-0.1,0.6-0.5,0.4-0.9l-9.3-27.1c-0.1-0.4-0.5-0.6-0.9-0.4
	C45.5,336.8,45.3,337.2,45.4,337.5"/>
<path class="st3" d="M50.2,335.9l20.5,59.8c0.1,0.4,0.5,0.6,0.9,0.4c0.4-0.1,0.6-0.5,0.4-0.9l-20.5-59.8c-0.1-0.4-0.5-0.6-0.9-0.4
	C50.3,335.2,50.1,335.6,50.2,335.9"/>
<path class="st3" d="M63.6,331.2l6.7,19.6c0.1,0.4,0.5,0.6,0.9,0.4c0.4-0.1,0.6-0.5,0.4-0.9l-6.7-19.6c-0.1-0.4-0.5-0.6-0.9-0.4
	C63.7,330.4,63.5,330.8,63.6,331.2"/>
<path class="st3" d="M78.2,371.5l6.7,19.6c0.1,0.4,0.5,0.6,0.9,0.4c0.4-0.1,0.6-0.5,0.4-0.9l-6.7-19.6c-0.1-0.4-0.5-0.6-0.9-0.4
	C78.2,370.7,78,371.1,78.2,371.5"/>
<path class="st3" d="M74.8,372.7l6.7,19.6c0.1,0.4,0.5,0.6,0.9,0.4c0.4-0.1,0.6-0.5,0.4-0.9l-6.7-19.6c-0.1-0.4-0.5-0.6-0.9-0.4
	C74.9,371.9,74.7,372.3,74.8,372.7"/>
<rect x="58.2" y="331.7" transform="matrix(0.9461 -0.3239 0.3239 0.9461 -107.5956 38.2701)" class="st2" width="6" height="21.3"/>
<path class="st3" d="M65.1,353.8c0.1,0.1,0.3,0.1,0.4,0.3c0.1,0.1,0.3,0.3,0.5,0.5c0.2,0.2,0.4,0.3,0.5,0.4c0.1,0,0.2,0.1,0.3,0
	c0.1,0,0.2-0.1,0.2-0.2c0.1-0.1,0.1-0.2,0-0.4c-0.1-0.2-0.3-0.4-0.6-0.4c0,0-0.1,0-0.1,0c0,0,0-0.1,0-0.1l0.1-0.7
	c0-0.1,0.1-0.1,0.1-0.1c0.3,0.1,0.5,0.1,0.7,0.2c0.2,0.1,0.3,0.2,0.4,0.4l0.5-0.2c0.1,0,0.1,0,0.1,0.1l0.2,0.5c0,0.1,0,0.1-0.1,0.1
	l-0.5,0.2c0,0.1,0,0.3,0,0.4c0,0.2-0.1,0.3-0.2,0.4c-0.1,0.1-0.2,0.2-0.3,0.3c-0.1,0.1-0.2,0.2-0.4,0.2c-0.3,0.1-0.6,0.1-0.9,0
	c-0.2-0.1-0.4-0.3-0.7-0.6c-0.1-0.1-0.3-0.3-0.4-0.4c-0.1-0.1-0.2-0.1-0.3-0.2c-0.1-0.1-0.3-0.1-0.4,0c-0.2,0.1-0.3,0.2-0.4,0.3
	c-0.1,0.2-0.1,0.3,0,0.5c0.1,0.2,0.2,0.3,0.3,0.4c0.1,0.1,0.4,0.1,0.7,0.1c0.1,0,0.1,0,0.1,0.1l0.1,0.7c0,0,0,0.1,0,0.1
	c0,0,0,0-0.1,0c-0.5,0-0.8,0-1.1-0.1c-0.3-0.1-0.5-0.4-0.7-0.7l-0.5,0.2c-0.1,0-0.1,0-0.1-0.1l-0.2-0.5c0-0.1,0-0.1,0.1-0.1l0.5-0.2
	c0-0.3,0.1-0.7,0.3-0.9c0.2-0.3,0.5-0.5,0.8-0.6C64.4,353.6,64.8,353.6,65.1,353.8"/>
<rect x="-13" class="st4" width="313" height="600"/>
</svg>
