<?xml version="1.0" encoding="utf-8"?>
<!-- Generator: Adobe Illustrator 22.1.0, SVG Export Plug-In . SVG Version: 6.00 Build 0)  -->
<svg version="1.1" id="Layer_1" xmlns="http://www.w3.org/2000/svg" xmlns:xlink="http://www.w3.org/1999/xlink" x="0px" y="0px"
	 viewBox="0 0 300 600" style="enable-background:new 0 0 300 600;" xml:space="preserve">
<style type="text/css">
	.st0{fill:#B8E0D2;}
	.st1{fill:#FFFDF6;}
	.st2{fill:#898F95;}
</style>
<rect x="187.2" y="353.3" transform="matrix(0.3239 -0.9461 0.9461 0.3239 -200.3745 465.7325)" class="st0" width="77" height="39.4"/>
<path class="st1" d="M194,402.2l38.8,13.3l25.2-73.7l-38.8-13.3L194,402.2z M220.3,330.8l35.4,12.1l-24.1,70.3l-35.4-12.1
	L220.3,330.8z"/>
<path class="st2" d="M224.5,370.1l-11,32.2c-0.1,0.4-0.5,0.6-0.9,0.4c-0.4-0.1-0.6-0.5-0.4-0.9l11-32.2c0.1-0.4,0.5-0.6,0.9-0.4
	C224.4,369.4,224.6,369.8,224.5,370.1"/>
<path class="st2" d="M233.3,378.8l-9.3,27.1c-0.1,0.4-0.5,0.6-0.9,0.4c-0.4-0.1-0.6-0.5-0.4-0.9l9.3-27.1c0.1-0.4,0.5-0.6,0.9-0.4
	C233.3,378,233.5,378.4,233.3,378.8"/>
<path class="st2" d="M244.5,346.1l-9.3,27.1c-0.1,0.4-0.5,0.6-0.9,0.4c-0.4-0.1-0.6-0.5-0.4-0.9l9.3-27.1c0.1-0.4,0.5-0.6,0.9-0.4
	C244.5,345.3,244.7,345.7,244.5,346.1"/>
<path class="st2" d="M239.8,344.5l-20.5,59.8c-0.1,0.4-0.5,0.6-0.9,0.4c-0.4-0.1-0.6-0.5-0.4-0.9l20.5-59.8c0.1-0.4,0.5-0.6,0.9-0.4
	C239.7,343.7,239.9,344.1,239.8,344.5"/>
<path class="st2" d="M226.4,339.7l-6.7,19.6c-0.1,0.4-0.5,0.6-0.9,0.4c-0.4-0.1-0.6-0.5-0.4-0.9l6.7-19.6c0.1-0.4,0.5-0.6,0.9-0.4
	C226.3,338.9,226.5,339.3,226.4,339.7"/>
<path class="st2" d="M211.8,380.1l-6.7,19.6c-0.1,0.4-0.5,0.6-0.9,0.4c-0.4-0.1-0.6-0.5-0.4-0.9l6.7-19.6c0.1-0.4,0.5-0.6,0.9-0.4
	C211.7,379.3,211.9,379.7,211.8,380.1"/>
<path class="st2" d="M215.2,381.2l-6.7,19.6c-0.1,0.4-0.5,0.6-0.9,0.4c-0.4-0.1-0.6-0.5-0.4-0.9l6.7-19.6c0.1-0.4,0.5-0.6,0.9-0.4
	C215.1,380.4,215.3,380.8,215.2,381.2"/>
<rect x="218.2" y="347.9" transform="matrix(0.3239 -0.9461 0.9461 0.3239 -177.2827 453.72)" class="st1" width="21.3" height="6"/>
<path class="st2" d="M224.9,362.3c-0.1,0.1-0.3,0.1-0.4,0.3c-0.1,0.1-0.3,0.3-0.5,0.5c-0.2,0.2-0.4,0.3-0.5,0.4
	c-0.1,0-0.2,0.1-0.3,0c-0.1,0-0.2-0.1-0.2-0.2c-0.1-0.1-0.1-0.2,0-0.4c0.1-0.2,0.3-0.4,0.6-0.4c0,0,0.1,0,0.1,0c0,0,0-0.1,0-0.1
	l-0.1-0.7c0-0.1-0.1-0.1-0.1-0.1c-0.3,0.1-0.5,0.1-0.7,0.2c-0.2,0.1-0.3,0.2-0.4,0.4l-0.5-0.2c-0.1,0-0.1,0-0.1,0.1l-0.2,0.5
	c0,0.1,0,0.1,0.1,0.1l0.5,0.2c0,0.1,0,0.3,0,0.4c0,0.2,0.1,0.3,0.2,0.4c0.1,0.1,0.2,0.2,0.3,0.3c0.1,0.1,0.2,0.2,0.4,0.2
	c0.3,0.1,0.6,0.1,0.9,0c0.2-0.1,0.4-0.3,0.7-0.6c0.1-0.1,0.3-0.3,0.4-0.4c0.1-0.1,0.2-0.1,0.3-0.2c0.1-0.1,0.3-0.1,0.4,0
	c0.2,0.1,0.3,0.2,0.4,0.3c0.1,0.2,0.1,0.3,0,0.5c-0.1,0.2-0.2,0.3-0.3,0.4c-0.1,0.1-0.4,0.1-0.7,0.1c-0.1,0-0.1,0-0.1,0.1l-0.1,0.7
	c0,0,0,0.1,0,0.1c0,0,0,0,0.1,0c0.5,0,0.8,0,1.1-0.1c0.3-0.1,0.5-0.4,0.7-0.7l0.5,0.2c0.1,0,0.1,0,0.1-0.1l0.2-0.5
	c0-0.1,0-0.1-0.1-0.1l-0.5-0.2c0-0.3-0.1-0.6-0.3-0.9c-0.2-0.3-0.5-0.5-0.8-0.6C225.6,362.2,225.2,362.2,224.9,362.3"/>
</svg>
