<?xml version="1.0" encoding="utf-8"?>
<!-- Generator: Adobe Illustrator 22.1.0, SVG Export Plug-In . SVG Version: 6.00 Build 0)  -->
<svg version="1.1" id="Layer_1" xmlns="http://www.w3.org/2000/svg" xmlns:xlink="http://www.w3.org/1999/xlink" x="0px" y="0px"
	 viewBox="0 0 300 600" style="enable-background:new 0 0 300 600;" xml:space="preserve">
<g>
	<path d="M267.4,583.7h-0.8l1.9-4.5h-2.3v-0.6h3.4L267.4,583.7z"/>
	<path d="M271.1,583.9l-0.7-0.3c1-0.5,1.7-1.2,2.1-2c-0.2,0.2-0.5,0.3-0.8,0.3c-1,0-1.6-0.7-1.6-1.6c0-1,0.7-1.7,1.7-1.7
		c0.9,0,1.7,0.6,1.7,1.8C273.4,581.7,272.4,583.2,271.1,583.9z M271.7,579.2c-0.5,0-0.9,0.4-0.9,1c0,0.6,0.4,1,1,1
		c0.4,0,0.8-0.2,1-0.7c0-0.1,0-0.2,0-0.2C272.7,579.7,272.2,579.2,271.7,579.2z"/>
	<path d="M276.8,582.4v1.4h-0.7v-1.4h-2l-0.1-0.6l2.4-3.2h0.5v3.1h0.6v0.6H276.8z M276.1,579.9c-0.1,0.2-0.3,0.4-0.5,0.6l-0.9,1.2
		h1.4v-1.2C276.1,580.3,276.1,580.1,276.1,579.9L276.1,579.9z"/>
	<path d="M279.3,583.8c-0.4,0-0.8-0.1-1-0.2l-0.1-0.7c0.3,0.2,0.7,0.3,1,0.3c0.6,0,1.1-0.4,1.1-1c0-0.7-0.5-1-1.1-1
		c-0.4,0-0.6,0-0.9,0.1l0.1-2.6h2.2l-0.1,0.6h-1.4l0,1.2c0.1,0,0.1,0,0.2,0c1,0,1.7,0.6,1.7,1.7C281.1,583,280.4,583.8,279.3,583.8z
		"/>
	<path d="M282.7,583.8c-0.3,0-0.6-0.1-0.8-0.2l-0.1-0.7c0.3,0.1,0.6,0.2,0.9,0.2c0.6,0,1.2-0.3,1.2-1c0-0.5-0.5-1-1.1-1
		c0,0-0.1,0-0.1,0l-0.1-0.6c0.5-0.1,0.9-0.4,0.9-0.8c0-0.4-0.3-0.6-0.7-0.6c-0.3,0-0.5,0.1-0.8,0.2l-0.1-0.6c0.3-0.2,0.6-0.2,1-0.2
		c0.8,0,1.4,0.5,1.4,1.2c0,0.6-0.4,0.9-0.7,1c0.6,0.1,1.1,0.6,1.1,1.5C284.5,583.1,283.9,583.8,282.7,583.8z"/>
	<path d="M286.1,583.7h-0.8l1.9-4.5h-2.3v-0.6h3.4L286.1,583.7z"/>
</g>
</svg>
