<?xml version="1.0" encoding="utf-8"?>
<!-- Generator: Adobe Illustrator 22.1.0, SVG Export Plug-In . SVG Version: 6.00 Build 0)  -->
<svg version="1.1" id="Layer_1" xmlns="http://www.w3.org/2000/svg" xmlns:xlink="http://www.w3.org/1999/xlink" x="0px" y="0px"
	 viewBox="0 0 300 600" style="enable-background:new 0 0 300 600;" xml:space="preserve">
<g>
	<path d="M42.9,84.9H36V64.5h6.9c5.9,0,10.9,3.8,10.9,10.2C53.8,81,48.8,84.9,42.9,84.9z M42.4,68.5h-1.6v12.3h1.6
		c3.5,0,6.4-2,6.4-6.1S46,68.5,42.4,68.5z"/>
	<path d="M63.2,85.3c-4.4,0-7.9-3.1-7.9-7.7c0-4.6,3.5-7.7,7.9-7.7c4.4,0,7.9,3.1,7.9,7.7C71.1,82.2,67.6,85.3,63.2,85.3z M63.2,74
		c-1.8,0-3.3,1.5-3.3,3.7c0,2.1,1.5,3.7,3.3,3.7c1.7,0,3.3-1.5,3.3-3.7C66.5,75.5,64.9,74,63.2,74z"/>
	<path d="M82.2,84.9V76c0-1.1-0.7-2-2.1-2c-1.4,0-2.3,0.9-2.3,2v8.8h-4.7V70.4h4.3v2h0c0.6-1.5,2.1-2.4,4.4-2.4
		c3.2,0,5.1,1.8,5.1,4.9v10.1H82.2z"/>
	<path d="M90.2,73.6l-1.5-0.3c1.1-1.2,1.9-3.1,2.1-4.5c-0.8-0.2-2.1-1.5-2.1-2.2c0-0.9,1.8-2.6,2.7-2.6c0.7,0,2.7,1.6,2.7,2.6
		C94,68.6,92.1,71.9,90.2,73.6z"/>
	<path d="M105.6,74.2h-3.8v5.4c0,1.2,0.7,1.8,1.9,1.8c0.5,0,0.9,0,1.2-0.2l-0.4,3.6c-0.4,0.2-1.2,0.4-2.2,0.4
		c-3.3,0-5.2-1.7-5.2-4.6v-6.3h-2.4v-3.8h2.4v-3.1l4.7-1.7v4.8h4.7L105.6,74.2z"/>
	<path d="M121.2,92.3c-4.2,0-7-2.4-7-5.4c0-2.2,1.5-3.5,3-3.9l-1.9-1.9c0.1-0.9,0.9-1.7,1.8-2.1c-1.1-0.7-2.1-2-2.1-3.9
		c0-3.1,2.2-5.2,6-5.2c0.9,0,1.5,0.1,2.1,0.3c0.6,0.2,1.3,0.3,2.1,0.3c0.8,0,1.6-0.2,2.3-0.5l0.9,3.6c-0.4,0.3-1.2,0.5-1.8,0.4
		c0.2,0.3,0.4,1,0.4,1.5c0,2.4-1.9,4.5-4.7,4.7c-0.6,0-1,0.2-1,0.5c0,0.2,0.1,0.4,0.4,0.4l2.2,0.8c2.8,1,4.4,2.5,4.4,5.1
		C128.1,90,125.4,92.3,121.2,92.3z M122.2,85.5l-1.7-0.5c-1.1,0-2,0.8-2,1.9c0,1,0.9,1.8,2.6,1.8c1.7,0,2.6-0.8,2.6-1.6
		C123.6,86.4,123.1,85.7,122.2,85.5z M120.9,73.3c-1.1,0-1.9,0.8-1.9,1.7c0,1,0.8,1.7,1.9,1.7c1,0,1.9-0.8,1.9-1.7
		C122.7,74.1,122,73.3,120.9,73.3z"/>
	<path d="M142.8,76.8l-2.1,2.1h-7.1c0.2,1.2,1.8,2.5,4.3,2.5c1.5,0,3-0.4,4-1.1l-0.4,4c-1.1,0.6-2.8,1-4.6,1c-4.4,0-8-3.1-8-7.8
		c0-4.7,3.4-7.6,7.6-7.6c4,0,6.5,2.8,6.5,5.8C143,76,142.9,76.5,142.8,76.8z M136.5,73.4c-1.4,0-2.5,1.1-2.8,2.4h4.9
		c0-0.1,0-0.2,0-0.3C138.6,74.5,137.7,73.4,136.5,73.4z"/>
	<path d="M154.7,74.2H151v5.4c0,1.2,0.7,1.8,1.9,1.8c0.5,0,0.9,0,1.2-0.2l-0.4,3.6c-0.4,0.2-1.2,0.4-2.2,0.4c-3.3,0-5.2-1.7-5.2-4.6
		v-6.3h-2.4v-3.8h2.4v-3.1l4.7-1.7v4.8h4.7L154.7,74.2z"/>
</g>
<g>
	<path d="M42.9,116.3c-3.1,0-5.6-1.1-7-2.1V93.1h4.5v8.8c0.6-0.5,2.1-1,3.6-1c4,0,7.3,2.8,7.3,7.4C51.4,112.8,48.5,116.3,42.9,116.3
		z M43.2,105.1c-1.3,0-2.4,0.6-2.8,1.1v5.5c0.5,0.4,1.5,0.7,2.4,0.7c2.4,0,3.9-1.6,3.9-3.7C46.7,106.7,45.3,105.1,43.2,105.1z"/>
	<path d="M58.4,116.5c-3-0.1-5-1.7-5-5.2V93.1h4.6v17.6c0,1.2,0.7,1.8,2,1.9L58.4,116.5z"/>
	<path d="M63.9,99.4c-0.8,0-2.5-1.7-2.5-2.5c0-0.8,1.7-2.5,2.5-2.5c0.8,0,2.5,1.7,2.5,2.5C66.4,97.7,64.7,99.4,63.9,99.4z
		 M61.5,115.9v-14.5h4.7v14.5H61.5z"/>
	<path d="M78.2,115.9V107c0-1.1-0.7-2-2.1-2c-1.4,0-2.3,0.9-2.3,2v8.8H69v-14.5h4.3v2h0c0.6-1.5,2.1-2.4,4.4-2.4
		c3.2,0,5.1,1.8,5.1,4.9v10.1H78.2z"/>
	<path d="M96.3,115.9v-1.8h0c-0.8,1.5-2.5,2.2-4.5,2.2c-3.6,0-7-2.7-7-7.6c0-4.7,3.3-7.7,7.4-7.7c1.5,0,3.1,0.5,3.7,1v-8.8h4.6v22.8
		H96.3z M95.9,106.4c-0.4-0.6-1.4-1.3-2.8-1.3c-2,0-3.5,1.6-3.5,3.7c0,2.1,1.4,3.7,3.5,3.7c1.4,0,2.3-0.7,2.8-1.5V106.4z"/>
	<path d="M107.8,116.2c-2,0-3.4-0.4-4.6-1l-0.4-4.2c1.3,0.9,2.9,1.6,4.5,1.6c0.9,0,1.4-0.4,1.4-1c0-0.6-0.5-0.9-1.3-1.1
		c-2.8-0.8-4.4-2.2-4.4-4.7c0-2.8,2.3-4.7,5.4-4.7c1.8,0,3.6,0.5,4.3,0.9l-0.8,3.5c-0.7-0.4-1.9-0.8-3-0.8c-0.8,0-1.3,0.4-1.3,0.9
		c0,0.5,0.4,0.8,1.3,1.1c3.3,0.9,4.6,2.5,4.6,4.9C113.5,114,111.7,116.2,107.8,116.2z"/>
	<path d="M117.9,99.4c-0.8,0-2.5-1.7-2.5-2.5c0-0.8,1.7-2.5,2.5-2.5c0.8,0,2.5,1.7,2.5,2.5C120.4,97.7,118.7,99.4,117.9,99.4z
		 M115.5,115.9v-14.5h4.7v14.5H115.5z"/>
	<path d="M133.7,115.9v-1.8h0c-0.8,1.5-2.5,2.2-4.5,2.2c-3.6,0-7-2.7-7-7.6c0-4.7,3.3-7.7,7.4-7.7c1.5,0,3.1,0.5,3.7,1v-8.8h4.6
		v22.8H133.7z M133.3,106.4c-0.4-0.6-1.4-1.3-2.8-1.3c-2,0-3.5,1.6-3.5,3.7c0,2.1,1.4,3.7,3.5,3.7c1.4,0,2.3-0.7,2.8-1.5V106.4z"/>
	<path d="M153.8,107.8l-2.1,2.1h-7.1c0.2,1.2,1.8,2.5,4.3,2.5c1.5,0,3-0.4,4-1.1l-0.4,4c-1.1,0.6-2.8,1-4.6,1c-4.4,0-8-3.1-8-7.8
		c0-4.7,3.4-7.6,7.6-7.6c4,0,6.5,2.8,6.5,5.8C153.9,107.1,153.8,107.5,153.8,107.8z M147.4,104.4c-1.4,0-2.5,1.1-2.8,2.4h4.9
		c0-0.1,0-0.2,0-0.3C149.5,105.5,148.6,104.4,147.4,104.4z"/>
	<path d="M166.6,115.9v-1.8h0c-0.8,1.5-2.5,2.2-4.5,2.2c-3.6,0-7-2.7-7-7.6c0-4.7,3.3-7.7,7.4-7.7c1.5,0,3.1,0.5,3.7,1v-8.8h4.6
		v22.8H166.6z M166.2,106.4c-0.4-0.6-1.4-1.3-2.8-1.3c-2,0-3.5,1.6-3.5,3.7c0,2.1,1.4,3.7,3.5,3.7c1.4,0,2.3-0.7,2.8-1.5V106.4z"/>
	<path d="M187.4,116.3c-3.1,0-5.6-1.1-7-2.1V93.1h4.5v8.8c0.6-0.5,2.1-1,3.6-1c4,0,7.3,2.8,7.3,7.4
		C195.9,112.8,193,116.3,187.4,116.3z M187.8,105.1c-1.3,0-2.4,0.6-2.8,1.1v5.5c0.5,0.4,1.5,0.7,2.4,0.7c2.4,0,3.9-1.6,3.9-3.7
		C191.2,106.7,189.8,105.1,187.8,105.1z"/>
	<path d="M206,114.4c-2.2,5.8-4.5,7.9-7.2,9l-2.9-2.9c2.3-0.9,4.1-2.6,5.3-5.7l-5.2-13.5h4.5l2.1,5.6c0.3,0.8,0.6,1.8,0.9,2.8h0.1
		c0.3-1,0.6-2,0.9-2.8l2.1-5.6h4.3L206,114.4z"/>
</g>
<g>
	<path d="M45.5,136.2h-3.8v5.4c0,1.2,0.7,1.8,1.9,1.8c0.5,0,0.9,0,1.2-0.2l-0.4,3.6c-0.4,0.2-1.2,0.4-2.2,0.4
		c-3.3,0-5.2-1.7-5.2-4.6v-6.3h-2.4v-3.8H37v-3.1l4.7-1.7v4.8h4.7L45.5,136.2z"/>
	<path d="M56.8,146.9V138c0-1.1-0.7-2-2.2-2c-1.4,0-2.3,0.9-2.3,2v8.8h-4.7v-22.8h4.6v9.6h0c0.7-1.1,2.1-1.8,4.1-1.8
		c3.2,0,5.1,1.8,5.1,4.9v10.1H56.8z"/>
	<path d="M77.4,138.8l-2.1,2.1h-7.1c0.2,1.2,1.8,2.5,4.3,2.5c1.5,0,3-0.4,4-1.1l-0.4,4c-1.1,0.6-2.8,1-4.6,1c-4.4,0-8-3.1-8-7.8
		c0-4.7,3.4-7.6,7.6-7.6c4,0,6.5,2.8,6.5,5.8C77.5,138.1,77.5,138.5,77.4,138.8z M71.1,135.4c-1.4,0-2.5,1.1-2.8,2.4h4.9
		c0-0.1,0-0.2,0-0.3C73.2,136.5,72.3,135.4,71.1,135.4z"/>
	<path d="M104.3,146.9V138c0-1.1-0.5-2-2-2c-1.5,0-2.2,0.9-2.2,2v8.8h-4.7V138c0-1.1-0.5-2-2-2c-1.5,0-2.2,0.9-2.2,2v8.8h-4.7v-14.5
		h4.4v2h0c0.6-1.5,2-2.4,4.3-2.4c2.1,0,3.6,0.8,4.3,2.4c0.6-1.4,2.3-2.4,4.5-2.4c3.3,0,5.1,1.8,5.1,4.9v10.1H104.3z"/>
	<path d="M121.8,147.5c-0.9-0.2-1.9-0.9-2.2-1.9c-0.6,1.2-2,1.8-3.8,1.8c-2.6,0-4.8-1.8-4.8-4.8c0-2.7,2.1-4.4,5-4.7l2.9-0.3v-0.5
		c0-0.9-0.7-1.4-2.3-1.4c-1.4,0-3,0.4-4,1.1l-0.8-3.6c1.2-0.8,3.2-1.3,5.1-1.3c3.8,0,6.6,1.8,6.6,5.2v4.7c0,1.7,0.6,2.6,1.8,3
		L121.8,147.5z M118.8,140.6l-1.8,0.2c-1.2,0.1-1.8,1-1.8,1.8c0,0.8,0.6,1.4,1.5,1.4c1.1,0,2-0.9,2-2.1V140.6z"/>
	<path d="M135.3,137.4c-0.3-0.2-0.9-0.4-1.4-0.4c-1.5,0-2.9,0.8-2.9,3.1v6.8h-4.7v-14.5h4.6v3.2h0c0.5-2.3,2.2-3.5,4.1-3.5
		c0.4,0,1,0.1,1.3,0.2L135.3,137.4z"/>
	<path d="M146.7,146.9l-4.3-5.9h0v5.9h-4.6v-22.8h4.6v14.2h0l4.4-5.9h5.1l-5.1,7l5.4,7.5H146.7z"/>
	<path d="M165.9,138.8l-2.1,2.1h-7.1c0.2,1.2,1.8,2.5,4.3,2.5c1.5,0,3-0.4,4-1.1l-0.4,4c-1.1,0.6-2.8,1-4.6,1c-4.4,0-8-3.1-8-7.8
		c0-4.7,3.4-7.6,7.6-7.6c4,0,6.5,2.8,6.5,5.8C166,138.1,165.9,138.5,165.9,138.8z M159.5,135.4c-1.4,0-2.5,1.1-2.8,2.4h4.9
		c0-0.1,0-0.2,0-0.3C161.6,136.5,160.7,135.4,159.5,135.4z"/>
	<path d="M177.8,136.2H174v5.4c0,1.2,0.7,1.8,1.9,1.8c0.5,0,0.9,0,1.2-0.2l-0.4,3.6c-0.4,0.2-1.2,0.4-2.2,0.4
		c-3.3,0-5.2-1.7-5.2-4.6v-6.3h-2.4v-3.8h2.4v-3.1l4.7-1.7v4.8h4.7L177.8,136.2z"/>
	<path d="M184.4,147.2c-2,0-3.4-0.4-4.6-1l-0.4-4.2c1.3,0.9,2.9,1.6,4.5,1.6c0.9,0,1.4-0.4,1.4-1c0-0.6-0.5-0.9-1.3-1.1
		c-2.8-0.8-4.4-2.2-4.4-4.7c0-2.8,2.3-4.7,5.4-4.7c1.8,0,3.6,0.5,4.3,0.9l-0.8,3.5c-0.7-0.4-1.9-0.8-3-0.8c-0.8,0-1.3,0.4-1.3,0.9
		c0,0.5,0.4,0.8,1.3,1.1c3.3,0.9,4.6,2.5,4.6,4.9C190.1,145,188.3,147.2,184.4,147.2z"/>
	<path d="M194.3,147.3c-0.9,0-2.7-1.8-2.7-2.7c0-0.8,1.8-2.6,2.7-2.6s2.7,1.8,2.7,2.6C197,145.6,195.2,147.3,194.3,147.3z"/>
</g>
</svg>
