<?xml version="1.0" encoding="utf-8"?>
<!-- Generator: Adobe Illustrator 22.1.0, SVG Export Plug-In . SVG Version: 6.00 Build 0)  -->
<svg version="1.1" id="Layer_1" xmlns="http://www.w3.org/2000/svg" xmlns:xlink="http://www.w3.org/1999/xlink" x="0px" y="0px"
	 viewBox="0 0 300 600" style="enable-background:new 0 0 300 600;" xml:space="preserve">
<g>
	<path d="M38,267c-2.1,0-4.1-0.6-5.2-1.3l-0.4-4.2c1.5,1,3.5,1.8,5.3,1.8c1.6,0,2.6-0.7,2.6-1.9c0-1.1-0.7-1.7-2.4-2.1
		c-3.6-1-5.3-3-5.3-5.8c0-3.1,2.3-5.5,6.3-5.5c2.1,0,3.9,0.6,4.6,1l-0.8,3.6c-0.8-0.4-2.2-1-3.5-1c-1.6,0-2.3,0.7-2.3,1.6
		c0,0.9,0.8,1.4,2.2,1.8c3.5,1,5.7,2.8,5.7,6.1C44.9,264.7,42.5,267,38,267z"/>
	<path d="M58.9,259.4l-1.9,1.9h-6.4c0.2,1.1,1.7,2.3,3.9,2.3c1.4,0,2.8-0.4,3.6-1l-0.4,3.7c-1,0.5-2.5,0.9-4.2,0.9
		c-4,0-7.2-2.8-7.2-7.1c0-4.2,3.1-6.9,6.8-6.9c3.7,0,5.9,2.5,5.9,5.2C59,258.7,58.9,259.2,58.9,259.4z M53.1,256.4
		c-1.2,0-2.3,1-2.6,2.1H55c0-0.1,0-0.2,0-0.3C55,257.3,54.2,256.4,53.1,256.4z"/>
	<path d="M72.7,259.4l-1.9,1.9h-6.4c0.2,1.1,1.7,2.3,3.9,2.3c1.4,0,2.8-0.4,3.6-1l-0.4,3.7c-1,0.5-2.5,0.9-4.2,0.9
		c-4,0-7.2-2.8-7.2-7.1c0-4.2,3.1-6.9,6.8-6.9c3.7,0,5.9,2.5,5.9,5.2C72.8,258.7,72.8,259.2,72.7,259.4z M66.9,256.4
		c-1.2,0-2.3,1-2.6,2.1h4.4c0-0.1,0-0.2,0-0.3C68.8,257.3,68.1,256.4,66.9,256.4z"/>
	<path d="M89.3,266.7v-8.1c0-1-0.7-1.8-2-1.8c-1.3,0-2.1,0.8-2.1,1.9v8H81v-20.7h4.2v8.7h0c0.7-1,1.9-1.6,3.7-1.6
		c2.9,0,4.6,1.6,4.6,4.4v9.1H89.3z"/>
	<path d="M102.5,267.1c-4,0-7.2-2.8-7.2-7c0-4.2,3.2-7,7.2-7c3.9,0,7.2,2.8,7.2,7C109.6,264.3,106.4,267.1,102.5,267.1z
		 M102.5,256.9c-1.6,0-3,1.4-3,3.3c0,1.9,1.4,3.3,3,3.3c1.6,0,3-1.4,3-3.3C105.4,258.3,104,256.9,102.5,256.9z"/>
	<path d="M125.2,266.9h-2.9l-1.8-5.2c-0.3-0.8-0.5-1.7-0.8-2.7h-0.1c-0.2,1-0.5,1.9-0.7,2.7l-1.8,5.3h-2.8l-4.6-13.3h3.9l1.6,5
		c0.2,0.8,0.5,1.7,0.6,2.5h0.1c0.1-0.8,0.4-1.8,0.6-2.5l1.7-5h3.2l1.7,5c0.3,0.8,0.4,1.7,0.6,2.6h0.1c0.2-0.8,0.4-1.8,0.7-2.6l1.7-5
		h3.6L125.2,266.9z"/>
	<path d="M153.5,266.7v-8.1c0-1-0.5-1.8-1.9-1.8c-1.4,0-2,0.8-2,1.9v8h-4.3v-8.1c0-1-0.5-1.8-1.9-1.8c-1.4,0-2,0.8-2,1.9v8h-4.3
		v-13.1h3.9v1.8h0c0.5-1.4,1.8-2.2,3.9-2.2c1.9,0,3.3,0.8,3.9,2.1c0.6-1.3,2.1-2.1,4.1-2.1c3,0,4.6,1.6,4.6,4.4v9.1H153.5z"/>
	<path d="M168.8,266.7v-1.8h0c-0.5,1.4-1.9,2.2-4,2.2c-2.9,0-4.6-1.6-4.6-4.4v-9.1h4.3v8.1c0,1,0.7,1.8,2,1.8c1.3,0,2.1-0.8,2.1-1.9
		v-8h4.3v13.1H168.8z"/>
	<path d="M185.1,257.8c-0.9-0.6-1.8-0.8-2.8-0.8c-1.9,0-3.3,1.3-3.3,3.2c0,1.9,1.5,3.2,3.4,3.2c1.1,0,1.9-0.2,2.9-0.7l-0.4,3.6
		c-0.9,0.4-2,0.6-3.2,0.6c-3.7,0-7.1-2.6-7.1-6.8c0-4.3,3.5-6.9,7-6.9c1.7,0,3.2,0.3,4.3,1L185.1,257.8z"/>
	<path d="M196,266.7v-8.1c0-1-0.7-1.8-2-1.8c-1.3,0-2.1,0.8-2.1,1.9v8h-4.3v-20.7h4.2v8.7h0c0.7-1,1.9-1.6,3.7-1.6
		c2.9,0,4.6,1.6,4.6,4.4v9.1H196z"/>
	<path d="M216.8,265.4c-2,5.3-4.1,7.2-6.6,8.2l-2.6-2.6c2.1-0.8,3.7-2.3,4.8-5.1l-4.7-12.2h4.1l1.9,5.1c0.3,0.8,0.6,1.7,0.8,2.6h0.1
		c0.3-0.9,0.6-1.8,0.8-2.6l1.9-5.1h3.9L216.8,265.4z"/>
	<path d="M228.5,267.1c-4,0-7.2-2.8-7.2-7c0-4.2,3.2-7,7.2-7c3.9,0,7.2,2.8,7.2,7C235.7,264.3,232.4,267.1,228.5,267.1z
		 M228.5,256.9c-1.6,0-3,1.4-3,3.3c0,1.9,1.4,3.3,3,3.3c1.6,0,3-1.4,3-3.3C231.4,258.3,230.1,256.9,228.5,256.9z"/>
	<path d="M246.1,266.7v-1.8h0c-0.5,1.4-1.9,2.2-4,2.2c-2.9,0-4.6-1.6-4.6-4.4v-9.1h4.3v8.1c0,1,0.7,1.8,2,1.8c1.3,0,2.1-0.8,2.1-1.9
		v-8h4.3v13.1H246.1z"/>
	<path d="M260.6,258.1c-0.3-0.1-0.8-0.3-1.3-0.3c-1.4,0-2.6,0.7-2.6,2.8v6.1h-4.3v-13.1h4.2v2.9h0c0.4-2.1,2-3.2,3.7-3.2
		c0.4,0,0.9,0.1,1.2,0.2L260.6,258.1z"/>
</g>
<g>
	<path d="M40.7,287.1c-0.3-0.1-0.8-0.3-1.3-0.3c-1.4,0-2.6,0.7-2.6,2.8v6.1h-4.3v-13.1h4.2v2.9h0c0.4-2.1,2-3.2,3.7-3.2
		c0.4,0,0.9,0.1,1.2,0.2L40.7,287.1z"/>
	<path d="M54.6,288.4l-1.9,1.9h-6.4c0.2,1.1,1.7,2.3,3.9,2.3c1.4,0,2.8-0.4,3.6-1l-0.4,3.7c-1,0.5-2.5,0.9-4.2,0.9
		c-4,0-7.2-2.8-7.2-7.1c0-4.2,3.1-6.9,6.8-6.9c3.7,0,5.9,2.5,5.9,5.2C54.7,287.7,54.7,288.2,54.6,288.4z M48.8,285.4
		c-1.2,0-2.3,1-2.6,2.1h4.4c0-0.1,0-0.2,0-0.3C50.7,286.3,50,285.4,48.8,285.4z"/>
	<path d="M65.4,286.1H62v4.9c0,1.1,0.6,1.6,1.7,1.6c0.5,0,0.8,0,1.1-0.2l-0.4,3.2c-0.4,0.2-1.1,0.3-2,0.3c-3,0-4.7-1.6-4.7-4.2v-5.7
		h-2.2v-3.5h2.2v-2.8l4.2-1.5v4.4h4.2L65.4,286.1z"/>
	<path d="M69.6,280.8c-0.8,0-2.3-1.5-2.3-2.3c0-0.8,1.5-2.3,2.3-2.3s2.3,1.5,2.3,2.3C71.9,279.3,70.4,280.8,69.6,280.8z M67.5,295.7
		v-13.1h4.3v13.1H67.5z"/>
	<path d="M82.4,287.1c-0.3-0.1-0.8-0.3-1.3-0.3c-1.4,0-2.6,0.7-2.6,2.8v6.1h-4.3v-13.1h4.2v2.9h0c0.4-2.1,2-3.2,3.7-3.2
		c0.4,0,0.9,0.1,1.2,0.2L82.4,287.1z"/>
	<path d="M96.3,288.4l-1.9,1.9H88c0.2,1.1,1.7,2.3,3.9,2.3c1.4,0,2.8-0.4,3.6-1l-0.4,3.7c-1,0.5-2.5,0.9-4.2,0.9
		c-4,0-7.2-2.8-7.2-7.1c0-4.2,3.1-6.9,6.8-6.9c3.7,0,5.9,2.5,5.9,5.2C96.4,287.7,96.3,288.2,96.3,288.4z M90.5,285.4
		c-1.2,0-2.3,1-2.6,2.1h4.4c0-0.1,0-0.2,0-0.3C92.4,286.3,91.6,285.4,90.5,285.4z"/>
	<path d="M114.4,295.7v-8.1c0-1-0.5-1.8-1.9-1.8c-1.4,0-2,0.8-2,1.9v8h-4.3v-8.1c0-1-0.5-1.8-1.9-1.8c-1.4,0-2,0.8-2,1.9v8h-4.3
		v-13.1h3.9v1.8h0c0.5-1.4,1.8-2.2,3.9-2.2c1.9,0,3.3,0.8,3.9,2.1c0.6-1.3,2.1-2.1,4.1-2.1c3,0,4.6,1.6,4.6,4.4v9.1H114.4z"/>
	<path d="M133.1,288.4l-1.9,1.9h-6.4c0.2,1.1,1.7,2.3,3.9,2.3c1.4,0,2.8-0.4,3.6-1l-0.4,3.7c-1,0.5-2.5,0.9-4.2,0.9
		c-4,0-7.2-2.8-7.2-7.1c0-4.2,3.1-6.9,6.8-6.9c3.7,0,5.9,2.5,5.9,5.2C133.2,287.7,133.1,288.2,133.1,288.4z M127.3,285.4
		c-1.2,0-2.3,1-2.6,2.1h4.4c0-0.1,0-0.2,0-0.3C129.2,286.3,128.4,285.4,127.3,285.4z"/>
	<path d="M143.3,295.7v-8.1c0-1-0.6-1.8-1.9-1.8c-1.3,0-2.1,0.8-2.1,1.9v8H135v-13.1h3.9v1.8h0c0.5-1.4,1.9-2.2,4-2.2
		c2.9,0,4.6,1.6,4.6,4.4v9.1H143.3z"/>
	<path d="M158.5,286.1h-3.4v4.9c0,1.1,0.6,1.6,1.7,1.6c0.5,0,0.8,0,1.1-0.2l-0.4,3.2c-0.4,0.2-1.1,0.3-2,0.3c-3,0-4.7-1.6-4.7-4.2
		v-5.7h-2.2v-3.5h2.2v-2.8l4.2-1.5v4.4h4.2L158.5,286.1z"/>
	<path d="M169,280.8c-0.8,0-2.3-1.5-2.3-2.3c0-0.8,1.5-2.3,2.3-2.3c0.8,0,2.3,1.5,2.3,2.3C171.3,279.3,169.8,280.8,169,280.8z
		 M166.9,295.7v-13.1h4.3v13.1H166.9z"/>
	<path d="M181.9,295.7v-8.1c0-1-0.6-1.8-1.9-1.8c-1.3,0-2.1,0.8-2.1,1.9v8h-4.3v-13.1h3.9v1.8h0c0.5-1.4,1.9-2.2,4-2.2
		c2.9,0,4.6,1.6,4.6,4.4v9.1H181.9z"/>
	<path d="M198.5,286.8c-0.9-0.6-1.8-0.8-2.8-0.8c-1.9,0-3.3,1.3-3.3,3.2c0,1.9,1.5,3.2,3.4,3.2c1.1,0,1.9-0.2,2.9-0.7l-0.4,3.6
		c-0.9,0.4-2,0.6-3.2,0.6c-3.7,0-7.1-2.6-7.1-6.8c0-4.3,3.5-6.9,7-6.9c1.7,0,3.2,0.3,4.3,1L198.5,286.8z"/>
	<path d="M207.4,296.1c-4,0-7.2-2.8-7.2-7c0-4.2,3.2-7,7.2-7c3.9,0,7.2,2.8,7.2,7C214.6,293.3,211.3,296.1,207.4,296.1z
		 M207.4,285.9c-1.6,0-3,1.4-3,3.3c0,1.9,1.4,3.3,3,3.3c1.6,0,3-1.4,3-3.3C210.4,287.3,209,285.9,207.4,285.9z"/>
	<path d="M232.5,295.7v-8.1c0-1-0.5-1.8-1.9-1.8c-1.4,0-2,0.8-2,1.9v8h-4.3v-8.1c0-1-0.5-1.8-1.9-1.8c-1.4,0-2,0.8-2,1.9v8h-4.3
		v-13.1h3.9v1.8h0c0.5-1.4,1.8-2.2,3.9-2.2c1.9,0,3.3,0.8,3.9,2.1c0.6-1.3,2.1-2.1,4.1-2.1c3,0,4.6,1.6,4.6,4.4v9.1H232.5z"/>
	<path d="M251.3,288.4l-1.9,1.9h-6.4c0.2,1.1,1.7,2.3,3.9,2.3c1.4,0,2.8-0.4,3.6-1l-0.4,3.7c-1,0.5-2.5,0.9-4.2,0.9
		c-4,0-7.2-2.8-7.2-7.1c0-4.2,3.1-6.9,6.8-6.9c3.7,0,5.9,2.5,5.9,5.2C251.4,287.7,251.3,288.2,251.3,288.4z M245.5,285.4
		c-1.2,0-2.3,1-2.6,2.1h4.4c0-0.1,0-0.2,0-0.3C247.4,286.3,246.6,285.4,245.5,285.4z"/>
</g>
<g>
	<path d="M42.6,315.8c-0.9-0.6-1.8-0.8-2.8-0.8c-1.9,0-3.3,1.3-3.3,3.2c0,1.9,1.5,3.2,3.4,3.2c1.1,0,1.9-0.2,2.9-0.7l-0.4,3.6
		c-0.9,0.4-2,0.6-3.2,0.6c-3.7,0-7.1-2.6-7.1-6.8c0-4.3,3.5-6.9,7-6.9c1.7,0,3.2,0.3,4.3,1L42.6,315.8z"/>
	<path d="M54.3,325.3c-0.8-0.2-1.7-0.8-2-1.7c-0.6,1.1-1.8,1.6-3.4,1.6c-2.3,0-4.4-1.6-4.4-4.4c0-2.4,1.9-4,4.5-4.3l2.6-0.3v-0.4
		c0-0.8-0.6-1.3-2.1-1.3c-1.3,0-2.7,0.4-3.7,1l-0.8-3.2c1.1-0.7,2.9-1.2,4.6-1.2c3.5,0,5.9,1.6,5.9,4.8v4.3c0,1.5,0.6,2.3,1.6,2.7
		L54.3,325.3z M51.6,319l-1.6,0.1c-1.1,0.1-1.6,0.9-1.6,1.7c0,0.7,0.5,1.3,1.3,1.3c1,0,1.9-0.8,1.9-1.9V319z"/>
	<path d="M66.7,324.7v-8.1c0-1-0.6-1.8-1.9-1.8c-1.3,0-2.1,0.8-2.1,1.9v8h-4.3v-13.1h3.9v1.8h0c0.5-1.4,1.9-2.2,4-2.2
		c2.9,0,4.6,1.6,4.6,4.4v9.1H66.7z"/>
	<path d="M86,325.1c-2.8,0-5-1-6.3-1.9v-19.1h4.1v8c0.6-0.4,1.9-0.9,3.3-0.9c3.6,0,6.6,2.6,6.6,6.7C93.7,322,91.1,325.1,86,325.1z
		 M86.3,314.9c-1.2,0-2.1,0.6-2.6,1v5c0.4,0.3,1.3,0.6,2.1,0.6c2.2,0,3.5-1.5,3.5-3.4C89.4,316.4,88.2,314.9,86.3,314.9z"/>
	<path d="M107.5,317.4l-1.9,1.9h-6.4c0.2,1.1,1.7,2.3,3.9,2.3c1.4,0,2.8-0.4,3.6-1l-0.4,3.7c-1,0.5-2.5,0.9-4.2,0.9
		c-4,0-7.2-2.8-7.2-7.1c0-4.2,3.1-6.9,6.8-6.9c3.7,0,5.9,2.5,5.9,5.2C107.6,316.7,107.6,317.2,107.5,317.4z M101.7,314.4
		c-1.2,0-2.3,1-2.6,2.1h4.4c0-0.1,0-0.2,0-0.3C103.6,315.3,102.9,314.4,101.7,314.4z"/>
	<path d="M111.1,325.1c-0.8,0-2.4-1.6-2.4-2.4c0-0.8,1.6-2.4,2.4-2.4s2.4,1.6,2.4,2.4C113.5,323.5,111.9,325.1,111.1,325.1z"/>
</g>
</svg>
