<?xml version="1.0" encoding="utf-8"?>
<!-- Generator: Adobe Illustrator 22.1.0, SVG Export Plug-In . SVG Version: 6.00 Build 0)  -->
<svg version="1.1" id="Layer_1" xmlns="http://www.w3.org/2000/svg" xmlns:xlink="http://www.w3.org/1999/xlink" x="0px" y="0px"
	 viewBox="0 0 300 600" style="enable-background:new 0 0 300 600;" xml:space="preserve">
<g>
	<path d="M45,85.4c-5.6,0-11.3-3.7-11.3-10.7c0-7,5.8-10.7,11.2-10.7c2.8,0,5.2,0.8,6.6,1.7l-0.9,4.1c-1.2-0.8-3.2-1.4-5.2-1.4
		c-3.7,0-6.8,2.5-6.8,6.5c0,3.8,2.9,6.3,6.6,6.3c1.2,0,2.1-0.2,2.8-0.6v-3.2h-3.6v-3.8h8.1v9.7C50.9,84.6,48.4,85.4,45,85.4z"/>
	<path d="M68.7,76.8l-2.1,2.1h-7.1c0.2,1.2,1.8,2.5,4.3,2.5c1.5,0,3-0.4,4-1.1l-0.4,4c-1.1,0.6-2.8,1-4.6,1c-4.4,0-8-3.1-8-7.8
		c0-4.7,3.4-7.6,7.6-7.6c4,0,6.5,2.8,6.5,5.8C68.8,76,68.7,76.5,68.7,76.8z M62.3,73.4c-1.4,0-2.5,1.1-2.8,2.4h4.9
		c0-0.1,0-0.2,0-0.3C64.4,74.5,63.5,73.4,62.3,73.4z"/>
	<path d="M80.6,74.2h-3.8v5.4c0,1.2,0.7,1.8,1.9,1.8c0.5,0,0.9,0,1.2-0.2l-0.4,3.6c-0.4,0.2-1.2,0.4-2.2,0.4c-3.3,0-5.2-1.7-5.2-4.6
		v-6.3h-2.4v-3.8h2.4v-3.1l4.7-1.7v4.8h4.7L80.6,74.2z"/>
	<path d="M96.1,92.3c-4.2,0-7-2.4-7-5.4c0-2.2,1.5-3.5,3-3.9l-1.9-1.9c0.1-0.9,0.9-1.7,1.8-2.1c-1.1-0.7-2.1-2-2.1-3.9
		c0-3.1,2.2-5.2,6-5.2c0.9,0,1.5,0.1,2.1,0.3c0.6,0.2,1.3,0.3,2.1,0.3c0.8,0,1.6-0.2,2.3-0.5l0.9,3.6c-0.4,0.3-1.2,0.5-1.8,0.4
		c0.2,0.3,0.4,1,0.4,1.5c0,2.4-1.9,4.5-4.7,4.7c-0.6,0-1,0.2-1,0.5c0,0.2,0.1,0.4,0.4,0.4l2.2,0.8c2.8,1,4.4,2.5,4.4,5.1
		C103.1,90,100.4,92.3,96.1,92.3z M97.1,85.5L95.4,85c-1.1,0-2,0.8-2,1.9c0,1,0.9,1.8,2.6,1.8c1.7,0,2.6-0.8,2.6-1.6
		C98.6,86.4,98.1,85.7,97.1,85.5z M95.9,73.3c-1.1,0-1.9,0.8-1.9,1.7c0,1,0.8,1.7,1.9,1.7c1,0,1.9-0.8,1.9-1.7
		C97.7,74.1,96.9,73.3,95.9,73.3z"/>
	<path d="M114.1,84.9v-2h0c-0.6,1.5-2.1,2.4-4.4,2.4c-3.2,0-5.1-1.8-5.1-4.8V70.4h4.7v8.9c0,1.1,0.7,2,2.2,2c1.4,0,2.3-0.9,2.3-2.1
		v-8.8h4.7v14.5H114.1z"/>
	<path d="M131.2,85.5c-0.9-0.2-1.9-0.9-2.2-1.9c-0.6,1.2-2,1.8-3.8,1.8c-2.6,0-4.8-1.8-4.8-4.8c0-2.7,2.1-4.4,5-4.7l2.9-0.3v-0.5
		c0-0.9-0.7-1.4-2.3-1.4c-1.4,0-3,0.4-4,1.1l-0.8-3.6c1.2-0.8,3.2-1.3,5.1-1.3c3.8,0,6.6,1.8,6.6,5.2v4.7c0,1.7,0.6,2.6,1.8,3
		L131.2,85.5z M128.2,78.5l-1.8,0.2c-1.2,0.1-1.8,1-1.8,1.8c0,0.8,0.6,1.4,1.5,1.4c1.1,0,2-0.9,2-2.1V78.5z"/>
	<path d="M144.8,75.4c-0.3-0.2-0.9-0.4-1.4-0.4c-1.5,0-2.9,0.8-2.9,3.1v6.8h-4.7V70.4h4.6v3.2h0c0.5-2.3,2.2-3.5,4.1-3.5
		c0.4,0,1,0.1,1.3,0.2L144.8,75.4z"/>
	<path d="M157.2,85.5c-0.9-0.2-1.9-0.9-2.2-1.9c-0.6,1.2-2,1.8-3.8,1.8c-2.6,0-4.8-1.8-4.8-4.8c0-2.7,2.1-4.4,5-4.7l2.9-0.3v-0.5
		c0-0.9-0.7-1.4-2.3-1.4c-1.4,0-3,0.4-4,1.1l-0.8-3.6c1.2-0.8,3.2-1.3,5.1-1.3c3.8,0,6.6,1.8,6.6,5.2v4.7c0,1.7,0.6,2.6,1.8,3
		L157.2,85.5z M154.2,78.5l-1.8,0.2c-1.2,0.1-1.8,1-1.8,1.8c0,0.8,0.6,1.4,1.5,1.4c1.1,0,2-0.9,2-2.1V78.5z"/>
	<path d="M170.9,84.9V76c0-1.1-0.7-2-2.1-2c-1.4,0-2.3,0.9-2.3,2v8.8h-4.7V70.4h4.3v2h0c0.6-1.5,2.1-2.4,4.4-2.4
		c3.2,0,5.1,1.8,5.1,4.9v10.1H170.9z"/>
	<path d="M187.7,74.2h-3.8v5.4c0,1.2,0.7,1.8,1.9,1.8c0.5,0,0.9,0,1.2-0.2l-0.4,3.6c-0.4,0.2-1.2,0.4-2.2,0.4
		c-3.3,0-5.2-1.7-5.2-4.6v-6.3h-2.4v-3.8h2.4v-3.1l4.7-1.7v4.8h4.7L187.7,74.2z"/>
	<path d="M202.8,76.8l-2.1,2.1h-7.1c0.2,1.2,1.8,2.5,4.3,2.5c1.5,0,3-0.4,4-1.1l-0.4,4c-1.1,0.6-2.8,1-4.6,1c-4.4,0-8-3.1-8-7.8
		c0-4.7,3.4-7.6,7.6-7.6c4,0,6.5,2.8,6.5,5.8C202.9,76,202.9,76.5,202.8,76.8z M196.4,73.4c-1.4,0-2.5,1.1-2.8,2.4h4.9
		c0-0.1,0-0.2,0-0.3C198.5,74.5,197.7,73.4,196.4,73.4z"/>
	<path d="M218,76.8l-2.1,2.1h-7.1c0.2,1.2,1.8,2.5,4.3,2.5c1.5,0,3-0.4,4-1.1l-0.4,4c-1.1,0.6-2.8,1-4.6,1c-4.4,0-8-3.1-8-7.8
		c0-4.7,3.4-7.6,7.6-7.6c4,0,6.5,2.8,6.5,5.8C218.2,76,218.1,76.5,218,76.8z M211.7,73.4c-1.4,0-2.5,1.1-2.8,2.4h4.9
		c0-0.1,0-0.2,0-0.3C213.8,74.5,212.9,73.4,211.7,73.4z"/>
	<path d="M230.9,84.9v-1.8h0c-0.8,1.5-2.5,2.2-4.5,2.2c-3.6,0-7-2.7-7-7.6c0-4.7,3.3-7.7,7.4-7.7c1.5,0,3.1,0.5,3.7,1v-8.8h4.6v22.8
		H230.9z M230.4,75.4c-0.4-0.6-1.4-1.3-2.8-1.3c-2,0-3.5,1.6-3.5,3.7c0,2.1,1.4,3.7,3.5,3.7c1.4,0,2.3-0.7,2.8-1.5V75.4z"/>
</g>
<g>
	<path d="M52,115.9V107c0-1.1-0.5-2-2-2c-1.5,0-2.2,0.9-2.2,2v8.8H43V107c0-1.1-0.5-2-2-2c-1.5,0-2.2,0.9-2.2,2v8.8h-4.7v-14.5h4.4
		v2h0c0.6-1.5,2-2.4,4.3-2.4c2.1,0,3.6,0.8,4.3,2.4c0.6-1.4,2.3-2.4,4.5-2.4c3.3,0,5.1,1.8,5.1,4.9v10.1H52z"/>
	<path d="M66.5,116.3c-4.4,0-7.9-3.1-7.9-7.7c0-4.6,3.5-7.7,7.9-7.7c4.4,0,7.9,3.1,7.9,7.7C74.4,113.2,70.9,116.3,66.5,116.3z
		 M66.5,105c-1.8,0-3.3,1.5-3.3,3.7c0,2.1,1.5,3.7,3.3,3.7c1.7,0,3.3-1.5,3.3-3.7C69.8,106.5,68.2,105,66.5,105z"/>
	<path d="M85.6,115.9V107c0-1.1-0.7-2-2.1-2c-1.4,0-2.3,0.9-2.3,2v8.8h-4.7v-14.5h4.3v2h0c0.6-1.5,2.1-2.4,4.4-2.4
		c3.2,0,5.1,1.8,5.1,4.9v10.1H85.6z"/>
	<path d="M102.4,105.2h-3.8v5.4c0,1.2,0.7,1.8,1.9,1.8c0.5,0,0.9,0,1.2-0.2l-0.4,3.6c-0.4,0.2-1.2,0.4-2.2,0.4
		c-3.3,0-5.2-1.7-5.2-4.6v-6.3h-2.4v-3.8h2.4v-3.1l4.7-1.7v4.8h4.7L102.4,105.2z"/>
	<path d="M113.7,115.9V107c0-1.1-0.7-2-2.2-2c-1.4,0-2.3,0.9-2.3,2v8.8h-4.7V93.1h4.6v9.6h0c0.7-1.1,2.1-1.8,4.1-1.8
		c3.2,0,5.1,1.8,5.1,4.9v10.1H113.7z"/>
	<path d="M126,116.5c-3-0.1-5-1.7-5-5.2V93.1h4.6v17.6c0,1.2,0.7,1.8,2,1.9L126,116.5z"/>
	<path d="M137.5,114.4c-2.2,5.8-4.5,7.9-7.2,9l-2.9-2.9c2.3-0.9,4.1-2.6,5.3-5.7l-5.2-13.5h4.5l2.1,5.6c0.3,0.8,0.6,1.8,0.9,2.8h0.1
		c0.3-1,0.6-2,0.9-2.8l2.1-5.6h4.3L137.5,114.4z"/>
	<path d="M153.2,99.4c-0.8,0-2.5-1.7-2.5-2.5c0-0.8,1.7-2.5,2.5-2.5s2.5,1.7,2.5,2.5C155.8,97.7,154.1,99.4,153.2,99.4z
		 M150.9,115.9v-14.5h4.7v14.5H150.9z"/>
	<path d="M167.5,115.9V107c0-1.1-0.7-2-2.1-2c-1.4,0-2.3,0.9-2.3,2v8.8h-4.7v-14.5h4.3v2h0c0.6-1.5,2.1-2.4,4.4-2.4
		c3.2,0,5.1,1.8,5.1,4.9v10.1H167.5z"/>
	<path d="M185.7,106.1c-1-0.6-2-0.9-3.1-0.9c-2,0-3.7,1.5-3.7,3.6c0,2.1,1.6,3.6,3.8,3.6c1.2,0,2.1-0.3,3.2-0.8l-0.4,4
		c-1,0.4-2.2,0.7-3.6,0.7c-4.1,0-7.8-2.9-7.8-7.6c0-4.7,3.8-7.6,7.7-7.6c1.9,0,3.5,0.4,4.8,1.1L185.7,106.1z"/>
	<path d="M195.5,116.3c-4.4,0-7.9-3.1-7.9-7.7c0-4.6,3.5-7.7,7.9-7.7c4.4,0,7.9,3.1,7.9,7.7C203.4,113.2,199.9,116.3,195.5,116.3z
		 M195.5,105c-1.8,0-3.3,1.5-3.3,3.7c0,2.1,1.5,3.7,3.3,3.7c1.7,0,3.3-1.5,3.3-3.7C198.8,106.5,197.2,105,195.5,105z"/>
	<path d="M223.2,115.9V107c0-1.1-0.5-2-2-2c-1.5,0-2.2,0.9-2.2,2v8.8h-4.7V107c0-1.1-0.5-2-2-2c-1.5,0-2.2,0.9-2.2,2v8.8h-4.7v-14.5
		h4.4v2h0c0.6-1.5,2-2.4,4.3-2.4c2.1,0,3.6,0.8,4.3,2.4c0.6-1.4,2.3-2.4,4.5-2.4c3.3,0,5.1,1.8,5.1,4.9v10.1H223.2z"/>
	<path d="M243.9,107.8l-2.1,2.1h-7.1c0.2,1.2,1.8,2.5,4.3,2.5c1.5,0,3-0.4,4-1.1l-0.4,4c-1.1,0.6-2.8,1-4.6,1c-4.4,0-8-3.1-8-7.8
		c0-4.7,3.4-7.6,7.6-7.6c4,0,6.5,2.8,6.5,5.8C244,107.1,243.9,107.5,243.9,107.8z M237.5,104.4c-1.4,0-2.5,1.1-2.8,2.4h4.9
		c0-0.1,0-0.2,0-0.3C239.6,105.5,238.7,104.4,237.5,104.4z"/>
</g>
<g>
	<path d="M44.2,128.3c-0.5-0.2-1.3-0.4-1.9-0.4c-1.7,0-2.6,1-2.6,3.1v1.4h4.2l-0.9,3.8h-3.2v10.7h-4.5v-10.7h-2.2v-3.8h2.2v-1.7
		c0-4.4,2.8-6.6,6.5-6.6c1.3,0,2.7,0.2,3.4,0.5L44.2,128.3z"/>
	<path d="M52,147.3c-4.4,0-7.9-3.1-7.9-7.7c0-4.6,3.5-7.7,7.9-7.7c4.4,0,7.9,3.1,7.9,7.7C59.9,144.2,56.3,147.3,52,147.3z M52,136
		c-1.8,0-3.3,1.5-3.3,3.7c0,2.1,1.5,3.7,3.3,3.7c1.7,0,3.3-1.5,3.3-3.7C55.2,137.6,53.7,136,52,136z"/>
	<path d="M70.9,137.4c-0.3-0.2-0.9-0.4-1.4-0.4c-1.5,0-2.9,0.8-2.9,3.1v6.8h-4.7v-14.5h4.6v3.2h0c0.5-2.3,2.2-3.5,4.1-3.5
		c0.4,0,1,0.1,1.3,0.2L70.9,137.4z"/>
	<path d="M85.3,147.5c-3-0.1-5-1.7-5-5.2v-18.2H85v17.6c0,1.2,0.7,1.8,2,1.9L85.3,147.5z"/>
	<path d="M90.8,130.4c-0.8,0-2.5-1.7-2.5-2.5c0-0.8,1.7-2.5,2.5-2.5s2.5,1.7,2.5,2.5C93.4,128.7,91.7,130.4,90.8,130.4z M88.5,146.9
		v-14.5h4.7v14.5H88.5z"/>
	<path d="M106,128.3c-0.5-0.2-1.3-0.4-1.9-0.4c-1.7,0-2.6,1-2.6,3.1v1.4h4.2l-0.9,3.8h-3.2v10.7H97v-10.7h-2.2v-3.8H97v-1.7
		c0-4.4,2.8-6.6,6.5-6.6c1.3,0,2.7,0.2,3.4,0.5L106,128.3z"/>
	<path d="M119.9,138.8l-2.1,2.1h-7.1c0.2,1.2,1.8,2.5,4.3,2.5c1.5,0,3-0.4,4-1.1l-0.4,4c-1.1,0.6-2.8,1-4.6,1c-4.4,0-8-3.1-8-7.8
		c0-4.7,3.4-7.6,7.6-7.6c4,0,6.5,2.8,6.5,5.8C120,138.1,119.9,138.5,119.9,138.8z M113.5,135.4c-1.4,0-2.5,1.1-2.8,2.4h4.9
		c0-0.1,0-0.2,0-0.3C115.6,136.5,114.7,135.4,113.5,135.4z"/>
	<path d="M123.8,147.3c-0.9,0-2.7-1.8-2.7-2.7c0-0.8,1.8-2.6,2.7-2.6s2.7,1.8,2.7,2.6C126.4,145.6,124.7,147.3,123.8,147.3z"/>
</g>
</svg>
