<?xml version="1.0" encoding="utf-8"?>
<!-- Generator: Adobe Illustrator 22.1.0, SVG Export Plug-In . SVG Version: 6.00 Build 0)  -->
<svg version="1.1" id="Layer_1" xmlns="http://www.w3.org/2000/svg" xmlns:xlink="http://www.w3.org/1999/xlink" x="0px" y="0px"
	 viewBox="0 0 300 600" style="enable-background:new 0 0 300 600;" xml:space="preserve">
<g>
	<path d="M40.1,85.2c-2.3,0-4.5-0.7-5.7-1.4l-0.5-4.6c1.7,1.2,3.8,2,5.9,2c1.8,0,2.9-0.8,2.9-2c0-1.2-0.7-1.9-2.6-2.4
		c-4-1.1-5.9-3.3-5.9-6.4c0-3.4,2.5-6.1,6.9-6.1c2.3,0,4.3,0.7,5.1,1.2l-0.9,4c-0.8-0.5-2.5-1.1-3.9-1.1C39.8,68.2,39,69,39,70
		c0,1,0.9,1.6,2.4,2c3.9,1.1,6.2,3.1,6.2,6.7C47.6,82.7,45.1,85.2,40.1,85.2z"/>
	<path d="M59.1,74.2h-3.8v5.4c0,1.2,0.7,1.8,1.9,1.8c0.5,0,0.9,0,1.2-0.2l-0.4,3.6c-0.4,0.2-1.2,0.4-2.2,0.4c-3.3,0-5.2-1.7-5.2-4.6
		v-6.3h-2.4v-3.8h2.4v-3.1l4.7-1.7v4.8H60L59.1,74.2z"/>
	<path d="M74.2,76.8l-2.1,2.1h-7.1c0.2,1.2,1.8,2.5,4.3,2.5c1.5,0,3-0.4,4-1.1l-0.4,4c-1.1,0.6-2.8,1-4.6,1c-4.4,0-8-3.1-8-7.8
		c0-4.7,3.4-7.6,7.6-7.6c4,0,6.5,2.8,6.5,5.8C74.4,76,74.3,76.5,74.2,76.8z M67.9,73.4c-1.4,0-2.5,1.1-2.8,2.4H70c0-0.1,0-0.2,0-0.3
		C70,74.5,69.1,73.4,67.9,73.4z"/>
	<path d="M89.5,76.8l-2.1,2.1h-7.1c0.2,1.2,1.8,2.5,4.3,2.5c1.5,0,3-0.4,4-1.1l-0.4,4c-1.1,0.6-2.8,1-4.6,1c-4.4,0-8-3.1-8-7.8
		c0-4.7,3.4-7.6,7.6-7.6c4,0,6.5,2.8,6.5,5.8C89.6,76,89.5,76.5,89.5,76.8z M83.1,73.4c-1.4,0-2.5,1.1-2.8,2.4h4.9
		c0-0.1,0-0.2,0-0.3C85.2,74.5,84.4,73.4,83.1,73.4z"/>
	<path d="M100.5,75.4c-0.3-0.2-0.9-0.4-1.4-0.4c-1.5,0-2.9,0.8-2.9,3.1v6.8h-4.7V70.4h4.6v3.2h0c0.5-2.3,2.2-3.5,4.1-3.5
		c0.4,0,1,0.1,1.3,0.2L100.5,75.4z"/>
	<path d="M121,75.1c-1-0.6-2-0.9-3.1-0.9c-2,0-3.7,1.5-3.7,3.6c0,2.1,1.6,3.6,3.8,3.6c1.2,0,2.1-0.3,3.2-0.8l-0.4,4
		c-1,0.4-2.2,0.7-3.6,0.7c-4.1,0-7.8-2.9-7.8-7.6c0-4.7,3.8-7.6,7.7-7.6c1.9,0,3.5,0.4,4.8,1.1L121,75.1z"/>
	<path d="M128.7,85.5c-3-0.1-5-1.7-5-5.2V62.1h4.6v17.6c0,1.2,0.7,1.8,2,1.9L128.7,85.5z"/>
	<path d="M144.9,76.8l-2.1,2.1h-7.1c0.2,1.2,1.8,2.5,4.3,2.5c1.5,0,3-0.4,4-1.1l-0.4,4c-1.1,0.6-2.8,1-4.6,1c-4.4,0-8-3.1-8-7.8
		c0-4.7,3.4-7.6,7.6-7.6c4,0,6.5,2.8,6.5,5.8C145.1,76,145,76.5,144.9,76.8z M138.6,73.4c-1.4,0-2.5,1.1-2.8,2.4h4.9
		c0-0.1,0-0.2,0-0.3C140.7,74.5,139.8,73.4,138.6,73.4z"/>
	<path d="M157.1,85.5c-0.9-0.2-1.9-0.9-2.2-1.9c-0.6,1.2-2,1.8-3.8,1.8c-2.6,0-4.8-1.8-4.8-4.8c0-2.7,2.1-4.4,5-4.7l2.9-0.3v-0.5
		c0-0.9-0.7-1.4-2.3-1.4c-1.4,0-3,0.4-4,1.1l-0.8-3.6c1.2-0.8,3.2-1.3,5.1-1.3c3.8,0,6.6,1.8,6.6,5.2v4.7c0,1.7,0.6,2.6,1.8,3
		L157.1,85.5z M154,78.5l-1.8,0.2c-1.2,0.1-1.8,1-1.8,1.8c0,0.8,0.6,1.4,1.5,1.4c1.1,0,2-0.9,2-2.1V78.5z"/>
	<path d="M170.6,75.4c-0.3-0.2-0.9-0.4-1.4-0.4c-1.5,0-2.9,0.8-2.9,3.1v6.8h-4.7V70.4h4.6v3.2h0c0.5-2.3,2.2-3.5,4.1-3.5
		c0.4,0,1,0.1,1.3,0.2L170.6,75.4z"/>
	<path d="M187.3,85.3c-4.4,0-7.9-3.1-7.9-7.7c0-4.6,3.5-7.7,7.9-7.7c4.4,0,7.9,3.1,7.9,7.7C195.2,82.2,191.6,85.3,187.3,85.3z
		 M187.3,74c-1.8,0-3.3,1.5-3.3,3.7c0,2.1,1.5,3.7,3.3,3.7c1.7,0,3.3-1.5,3.3-3.7C190.6,75.5,189,74,187.3,74z"/>
	<path d="M207.2,66.3c-0.5-0.2-1.3-0.4-1.9-0.4c-1.7,0-2.6,1-2.6,3.1v1.4h4.2l-0.9,3.8h-3.2v10.7h-4.5V74.2h-2.2v-3.8h2.2v-1.7
		c0-4.4,2.8-6.6,6.5-6.6c1.3,0,2.7,0.2,3.4,0.5L207.2,66.3z"/>
</g>
<g>
	<path d="M43.8,105.2H40v5.4c0,1.2,0.7,1.8,1.9,1.8c0.5,0,0.9,0,1.2-0.2l-0.4,3.6c-0.4,0.2-1.2,0.4-2.2,0.4c-3.3,0-5.2-1.7-5.2-4.6
		v-6.3h-2.4v-3.8h2.4v-3.1l4.7-1.7v4.8h4.7L43.8,105.2z"/>
	<path d="M55.1,115.9V107c0-1.1-0.7-2-2.2-2c-1.4,0-2.3,0.9-2.3,2v8.8H46V93.1h4.6v9.6h0c0.7-1.1,2.1-1.8,4.1-1.8
		c3.2,0,5.1,1.8,5.1,4.9v10.1H55.1z"/>
	<path d="M75.7,107.8l-2.1,2.1h-7.1c0.2,1.2,1.8,2.5,4.3,2.5c1.5,0,3-0.4,4-1.1l-0.4,4c-1.1,0.6-2.8,1-4.6,1c-4.4,0-8-3.1-8-7.8
		c0-4.7,3.4-7.6,7.6-7.6c4,0,6.5,2.8,6.5,5.8C75.8,107.1,75.8,107.5,75.7,107.8z M69.3,104.4c-1.4,0-2.5,1.1-2.8,2.4h4.9
		c0-0.1,0-0.2,0-0.3C71.5,105.5,70.6,104.4,69.3,104.4z"/>
	<path d="M89.4,116.2c-2,0-3.4-0.4-4.6-1l-0.4-4.2c1.3,0.9,2.9,1.6,4.5,1.6c0.9,0,1.4-0.4,1.4-1c0-0.6-0.5-0.9-1.3-1.1
		c-2.8-0.8-4.4-2.2-4.4-4.7c0-2.8,2.3-4.7,5.4-4.7c1.8,0,3.6,0.5,4.3,0.9l-0.8,3.5c-0.7-0.4-1.9-0.8-3-0.8c-0.8,0-1.3,0.4-1.3,0.9
		c0,0.5,0.4,0.8,1.3,1.1c3.3,0.9,4.6,2.5,4.6,4.9C95.1,114,93.3,116.2,89.4,116.2z"/>
	<path d="M106.6,115.9v-2h0c-0.6,1.5-2.1,2.4-4.4,2.4c-3.2,0-5.1-1.8-5.1-4.8v-10.1h4.7v8.9c0,1.1,0.7,2,2.2,2
		c1.4,0,2.3-0.9,2.3-2.1v-8.8h4.7v14.5H106.6z"/>
	<path d="M122.5,106.4c-0.3-0.2-0.9-0.4-1.4-0.4c-1.5,0-2.9,0.8-2.9,3.1v6.8h-4.7v-14.5h4.6v3.2h0c0.5-2.3,2.2-3.5,4.1-3.5
		c0.4,0,1,0.1,1.3,0.2L122.5,106.4z"/>
	<path d="M133.1,116.3c-1.5,0-3.1-0.5-3.7-1v7.9h-4.6v-21.9h4.1v1.8h0c0.8-1.5,2.5-2.2,4.5-2.2c3.6,0,7,2.7,7,7.6
		C140.4,113.3,137.1,116.3,133.1,116.3z M132.2,105.1c-1.4,0-2.3,0.7-2.8,1.5v4.5c0.4,0.6,1.4,1.3,2.8,1.3c2,0,3.5-1.6,3.5-3.6
		C135.7,106.7,134.3,105.1,132.2,105.1z"/>
	<path d="M151.4,106.4c-0.3-0.2-0.9-0.4-1.4-0.4c-1.5,0-2.9,0.8-2.9,3.1v6.8h-4.7v-14.5h4.6v3.2h0c0.5-2.3,2.2-3.5,4.1-3.5
		c0.4,0,1,0.1,1.3,0.2L151.4,106.4z"/>
	<path d="M156.2,99.4c-0.8,0-2.5-1.7-2.5-2.5c0-0.8,1.7-2.5,2.5-2.5s2.5,1.7,2.5,2.5C158.7,97.7,157,99.4,156.2,99.4z M153.8,115.9
		v-14.5h4.7v14.5H153.8z"/>
	<path d="M165.9,116.2c-2,0-3.4-0.4-4.6-1l-0.4-4.2c1.3,0.9,2.9,1.6,4.5,1.6c0.9,0,1.4-0.4,1.4-1c0-0.6-0.5-0.9-1.3-1.1
		c-2.8-0.8-4.4-2.2-4.4-4.7c0-2.8,2.3-4.7,5.4-4.7c1.8,0,3.6,0.5,4.3,0.9l-0.8,3.5c-0.7-0.4-1.9-0.8-3-0.8c-0.8,0-1.3,0.4-1.3,0.9
		c0,0.5,0.4,0.8,1.3,1.1c3.3,0.9,4.6,2.5,4.6,4.9C171.6,114,169.8,116.2,165.9,116.2z"/>
	<path d="M186.7,107.8l-2.1,2.1h-7.1c0.2,1.2,1.8,2.5,4.3,2.5c1.5,0,3-0.4,4-1.1l-0.4,4c-1.1,0.6-2.8,1-4.6,1c-4.4,0-8-3.1-8-7.8
		c0-4.7,3.4-7.6,7.6-7.6c4,0,6.5,2.8,6.5,5.8C186.8,107.1,186.7,107.5,186.7,107.8z M180.3,104.4c-1.4,0-2.5,1.1-2.8,2.4h4.9
		c0-0.1,0-0.2,0-0.3C182.4,105.5,181.5,104.4,180.3,104.4z"/>
	<path d="M193.3,116.2c-2,0-3.4-0.4-4.6-1l-0.4-4.2c1.3,0.9,2.9,1.6,4.5,1.6c0.9,0,1.4-0.4,1.4-1c0-0.6-0.5-0.9-1.3-1.1
		c-2.8-0.8-4.4-2.2-4.4-4.7c0-2.8,2.3-4.7,5.4-4.7c1.8,0,3.6,0.5,4.3,0.9l-0.8,3.5c-0.7-0.4-1.9-0.8-3-0.8c-0.8,0-1.3,0.4-1.3,0.9
		c0,0.5,0.4,0.8,1.3,1.1c3.3,0.9,4.6,2.5,4.6,4.9C199,114,197.2,116.2,193.3,116.2z"/>
	<path d="M203.3,116.3c-0.9,0-2.7-1.8-2.7-2.7c0-0.8,1.8-2.6,2.7-2.6s2.7,1.8,2.7,2.6C205.9,114.5,204.1,116.3,203.3,116.3z"/>
</g>
</svg>
