<?xml version="1.0" encoding="utf-8"?>
<!-- Generator: Adobe Illustrator 22.1.0, SVG Export Plug-In . SVG Version: 6.00 Build 0)  -->
<svg version="1.1" id="Layer_1" xmlns="http://www.w3.org/2000/svg" xmlns:xlink="http://www.w3.org/1999/xlink" x="0px" y="0px"
	 viewBox="0 0 300 600" style="enable-background:new 0 0 300 600;" xml:space="preserve">
<g>
	<path d="M41.3,360.9v14.8h-4.5v-14.8h-5.3v-3.7h15.1v3.7H41.3z"/>
	<path d="M54.3,367.1c-0.3-0.1-0.8-0.3-1.3-0.3c-1.4,0-2.6,0.7-2.6,2.8v6.1h-4.3v-13.1h4.2v2.9h0c0.4-2.1,2-3.2,3.7-3.2
		c0.4,0,0.9,0.1,1.2,0.2L54.3,367.1z"/>
	<path d="M65,374.4c-2,5.3-4.1,7.2-6.6,8.2l-2.6-2.6c2.1-0.8,3.7-2.3,4.8-5.1l-4.7-12.2H60l1.9,5.1c0.3,0.8,0.6,1.7,0.8,2.6h0.1
		c0.3-0.9,0.6-1.8,0.8-2.6l1.9-5.1h3.9L65,374.4z"/>
	<path d="M85.8,366.1h-3.4v4.9c0,1.1,0.6,1.6,1.7,1.6c0.5,0,0.8,0,1.1-0.2l-0.4,3.2c-0.4,0.2-1.1,0.3-2,0.3c-3,0-4.7-1.6-4.7-4.2
		v-5.7H76v-3.5h2.2v-2.8l4.2-1.5v4.4h4.2L85.8,366.1z"/>
	<path d="M96.1,375.7v-8.1c0-1-0.7-1.8-2-1.8c-1.3,0-2.1,0.8-2.1,1.9v8h-4.3v-20.7H92v8.7h0c0.7-1,1.9-1.6,3.7-1.6
		c2.9,0,4.6,1.6,4.6,4.4v9.1H96.1z"/>
	<path d="M114.8,368.4l-1.9,1.9h-6.4c0.2,1.1,1.7,2.3,3.9,2.3c1.4,0,2.8-0.4,3.6-1l-0.4,3.7c-1,0.5-2.5,0.9-4.2,0.9
		c-4,0-7.2-2.8-7.2-7.1c0-4.2,3.1-6.9,6.8-6.9c3.7,0,5.9,2.5,5.9,5.2C114.9,367.7,114.9,368.2,114.8,368.4z M109,365.4
		c-1.2,0-2.3,1-2.6,2.1h4.4c0-0.1,0-0.2,0-0.3C111,366.3,110.2,365.4,109,365.4z"/>
	<path d="M140.4,375.7l-0.6-6.8c-0.1-1-0.2-2.2-0.2-3.4h-0.1c-0.4,1.2-1,2.4-1.6,3.5l-3.5,6.8h-1.8l-3.5-6.8c-0.6-1-1.1-2.3-1.6-3.5
		h-0.1c0,1.2-0.1,2.4-0.1,3.4l-0.6,6.8h-4.2l1.6-18.5h3.7l4,7.8c0.6,1.1,1.4,2.7,1.9,3.9h0c0.5-1.2,1.2-2.7,1.8-3.9l4-7.8h3.5
		l1.6,18.5H140.4z"/>
	<path d="M154.4,374.4c-2,5.3-4.1,7.2-6.6,8.2l-2.6-2.6c2.1-0.8,3.7-2.3,4.8-5.1l-4.7-12.2h4.1l1.9,5.1c0.3,0.8,0.6,1.7,0.8,2.6h0.1
		c0.3-0.9,0.6-1.8,0.8-2.6l1.9-5.1h3.9L154.4,374.4z"/>
	<path d="M173.7,368.5H171v7.3h-4.3v-18.5h7c3.2,0,6,2.1,6,5.6S176.9,368.5,173.7,368.5z M173.1,360.9H171v4.1h2.1
		c1.2,0,2.3-0.6,2.3-2.1C175.4,361.6,174.2,360.9,173.1,360.9z"/>
	<path d="M192.9,368.4l-1.9,1.9h-6.4c0.2,1.1,1.7,2.3,3.9,2.3c1.4,0,2.8-0.4,3.6-1l-0.4,3.7c-1,0.5-2.5,0.9-4.2,0.9
		c-4,0-7.2-2.8-7.2-7.1c0-4.2,3.1-6.9,6.8-6.9c3.7,0,5.9,2.5,5.9,5.2C193,367.7,192.9,368.2,192.9,368.4z M187.1,365.4
		c-1.2,0-2.3,1-2.6,2.1h4.4c0-0.1,0-0.2,0-0.3C189,366.3,188.2,365.4,187.1,365.4z"/>
	<path d="M202.9,367.1c-0.3-0.1-0.8-0.3-1.3-0.3c-1.4,0-2.6,0.7-2.6,2.8v6.1h-4.3v-13.1h4.2v2.9h0c0.4-2.1,2-3.2,3.7-3.2
		c0.4,0,0.9,0.1,1.2,0.2L202.9,367.1z"/>
	<path d="M209,376c-1.8,0-3.1-0.4-4.2-0.9l-0.4-3.8c1.2,0.8,2.7,1.4,4.1,1.4c0.8,0,1.3-0.4,1.3-0.9c0-0.6-0.4-0.8-1.2-1
		c-2.5-0.7-4-2-4-4.3c0-2.6,2.1-4.2,4.9-4.2c1.6,0,3.2,0.4,3.9,0.8l-0.7,3.1c-0.6-0.3-1.7-0.7-2.7-0.7c-0.7,0-1.2,0.3-1.2,0.8
		c0,0.5,0.3,0.8,1.2,1c3,0.8,4.2,2.3,4.2,4.5C214.2,374,212.6,376,209,376z"/>
	<path d="M222.4,376.2c-4,0-7.2-2.8-7.2-7c0-4.2,3.2-7,7.2-7c3.9,0,7.2,2.8,7.2,7C229.6,373.3,226.4,376.2,222.4,376.2z
		 M222.4,365.9c-1.6,0-3,1.4-3,3.3s1.4,3.3,3,3.3c1.6,0,3-1.4,3-3.3S224,365.9,222.4,365.9z"/>
	<path d="M239.7,375.7v-8.1c0-1-0.6-1.8-1.9-1.8c-1.3,0-2.1,0.8-2.1,1.9v8h-4.3v-13.1h3.9v1.8h0c0.5-1.4,1.9-2.2,4-2.2
		c2.9,0,4.6,1.6,4.6,4.4v9.1H239.7z"/>
	<path d="M255.6,376.3c-0.8-0.2-1.7-0.8-2-1.7c-0.6,1.1-1.8,1.6-3.4,1.6c-2.3,0-4.4-1.6-4.4-4.4c0-2.4,1.9-4,4.5-4.3l2.6-0.3v-0.4
		c0-0.8-0.6-1.3-2.1-1.3c-1.3,0-2.7,0.4-3.7,1l-0.8-3.2c1.1-0.7,2.9-1.2,4.6-1.2c3.5,0,5.9,1.6,5.9,4.8v4.3c0,1.5,0.6,2.3,1.6,2.7
		L255.6,376.3z M252.8,370l-1.6,0.1c-1.1,0.1-1.6,0.9-1.6,1.7c0,0.7,0.5,1.3,1.3,1.3c1,0,1.9-0.8,1.9-1.9V370z"/>
	<path d="M264.1,376.3c-2.7-0.1-4.5-1.5-4.5-4.7v-16.5h4.2v16c0,1.1,0.6,1.7,1.8,1.7L264.1,376.3z"/>
</g>
<g>
	<path d="M39.8,397.5h-2.7v7.3h-4.3v-18.5h7c3.2,0,6,2.1,6,5.6S43,397.5,39.8,397.5z M39.2,389.9h-2.1v4.1h2.1
		c1.2,0,2.3-0.6,2.3-2.1C41.5,390.6,40.4,389.9,39.2,389.9z"/>
	<path d="M59,397.4l-1.9,1.9h-6.4c0.2,1.1,1.7,2.3,3.9,2.3c1.4,0,2.8-0.4,3.6-1l-0.4,3.7c-1,0.5-2.5,0.9-4.2,0.9
		c-4,0-7.2-2.8-7.2-7.1c0-4.2,3.1-6.9,6.8-6.9c3.7,0,5.9,2.5,5.9,5.2C59.1,396.7,59.1,397.2,59,397.4z M53.2,394.4
		c-1.2,0-2.3,1-2.6,2.1h4.4c0-0.1,0-0.2,0-0.3C55.2,395.3,54.4,394.4,53.2,394.4z"/>
	<path d="M69.2,404.7v-8.1c0-1-0.6-1.8-1.9-1.8c-1.3,0-2.1,0.8-2.1,1.9v8h-4.3v-13.1h3.9v1.8h0c0.5-1.4,1.9-2.2,4-2.2
		c2.9,0,4.6,1.6,4.6,4.4v9.1H69.2z"/>
	<path d="M80,405c-1.8,0-3.1-0.4-4.2-0.9l-0.4-3.8c1.2,0.8,2.7,1.4,4.1,1.4c0.8,0,1.3-0.4,1.3-0.9c0-0.6-0.4-0.8-1.2-1
		c-2.5-0.7-4-2-4-4.3c0-2.6,2.1-4.2,4.9-4.2c1.6,0,3.2,0.4,3.9,0.8l-0.7,3.1c-0.6-0.3-1.7-0.7-2.7-0.7c-0.7,0-1.2,0.3-1.2,0.8
		c0,0.5,0.3,0.8,1.2,1c3,0.8,4.2,2.3,4.2,4.5C85.2,403,83.6,405,80,405z"/>
	<path d="M89.2,389.8c-0.8,0-2.3-1.5-2.3-2.3c0-0.8,1.5-2.3,2.3-2.3s2.3,1.5,2.3,2.3C91.5,388.3,89.9,389.8,89.2,389.8z M87,404.7
		v-13.1h4.3v13.1H87z"/>
	<path d="M100.3,405.2c-4,0-7.2-2.8-7.2-7c0-4.2,3.2-7,7.2-7c3.9,0,7.2,2.8,7.2,7C107.5,402.3,104.3,405.2,100.3,405.2z
		 M100.3,394.9c-1.6,0-3,1.4-3,3.3s1.4,3.3,3,3.3c1.6,0,3-1.4,3-3.3S101.9,394.9,100.3,394.9z"/>
	<path d="M117.6,404.7v-8.1c0-1-0.6-1.8-1.9-1.8c-1.3,0-2.1,0.8-2.1,1.9v8h-4.3v-13.1h3.9v1.8h0c0.5-1.4,1.9-2.2,4-2.2
		c2.9,0,4.6,1.6,4.6,4.4v9.1H117.6z"/>
	<path d="M140.5,395.8c-0.9-0.6-1.8-0.8-2.8-0.8c-1.9,0-3.3,1.3-3.3,3.2c0,1.9,1.5,3.2,3.4,3.2c1.1,0,1.9-0.2,2.9-0.7l-0.4,3.6
		c-0.9,0.4-2,0.6-3.2,0.6c-3.7,0-7.1-2.6-7.1-6.8c0-4.3,3.5-6.9,7-6.9c1.7,0,3.2,0.3,4.3,1L140.5,395.8z"/>
	<path d="M152.2,405.3c-0.8-0.2-1.7-0.8-2-1.7c-0.6,1.1-1.8,1.6-3.4,1.6c-2.3,0-4.4-1.6-4.4-4.4c0-2.4,1.9-4,4.5-4.3l2.6-0.3v-0.4
		c0-0.8-0.6-1.3-2.1-1.3c-1.3,0-2.7,0.4-3.7,1l-0.8-3.2c1.1-0.7,2.9-1.2,4.6-1.2c3.5,0,5.9,1.6,5.9,4.8v4.3c0,1.5,0.6,2.3,1.6,2.7
		L152.2,405.3z M149.5,399l-1.6,0.1c-1.1,0.1-1.6,0.9-1.6,1.7c0,0.7,0.5,1.3,1.3,1.3c1,0,1.9-0.8,1.9-1.9V399z"/>
	<path d="M160.7,405.3c-2.7-0.1-4.5-1.5-4.5-4.7v-16.5h4.2v16c0,1.1,0.6,1.7,1.8,1.7L160.7,405.3z"/>
	<path d="M173.4,395.8c-0.9-0.6-1.8-0.8-2.8-0.8c-1.9,0-3.3,1.3-3.3,3.2c0,1.9,1.5,3.2,3.4,3.2c1.1,0,1.9-0.2,2.9-0.7l-0.4,3.6
		c-0.9,0.4-2,0.6-3.2,0.6c-3.7,0-7.1-2.6-7.1-6.8c0-4.3,3.5-6.9,7-6.9c1.7,0,3.2,0.3,4.3,1L173.4,395.8z"/>
	<path d="M184.5,404.7v-1.8h0c-0.5,1.4-1.9,2.2-4,2.2c-2.9,0-4.6-1.6-4.6-4.4v-9.1h4.3v8.1c0,1,0.7,1.8,2,1.8c1.3,0,2.1-0.8,2.1-1.9
		v-8h4.3v13.1H184.5z"/>
	<path d="M195.3,405.3c-2.7-0.1-4.5-1.5-4.5-4.7v-16.5h4.2v16c0,1.1,0.6,1.7,1.8,1.7L195.3,405.3z"/>
	<path d="M207.6,405.3c-0.8-0.2-1.7-0.8-2-1.7c-0.6,1.1-1.8,1.6-3.4,1.6c-2.3,0-4.4-1.6-4.4-4.4c0-2.4,1.9-4,4.5-4.3l2.6-0.3v-0.4
		c0-0.8-0.6-1.3-2.1-1.3c-1.3,0-2.7,0.4-3.7,1l-0.8-3.2c1.1-0.7,2.9-1.2,4.6-1.2c3.5,0,5.9,1.6,5.9,4.8v4.3c0,1.5,0.6,2.3,1.6,2.7
		L207.6,405.3z M204.9,399l-1.6,0.1c-1.1,0.1-1.6,0.9-1.6,1.7c0,0.7,0.5,1.3,1.3,1.3c1,0,1.9-0.8,1.9-1.9V399z"/>
	<path d="M220.2,395.1h-3.4v4.9c0,1.1,0.6,1.6,1.7,1.6c0.5,0,0.8,0,1.1-0.2l-0.4,3.2c-0.4,0.2-1.1,0.3-2,0.3c-3,0-4.7-1.6-4.7-4.2
		v-5.7h-2.2v-3.5h2.2v-2.8l4.2-1.5v4.4h4.2L220.2,395.1z"/>
	<path d="M228.4,405.2c-4,0-7.2-2.8-7.2-7c0-4.2,3.2-7,7.2-7c3.9,0,7.2,2.8,7.2,7C235.6,402.3,232.4,405.2,228.4,405.2z
		 M228.4,394.9c-1.6,0-3,1.4-3,3.3s1.4,3.3,3,3.3c1.6,0,3-1.4,3-3.3S230,394.9,228.4,394.9z"/>
	<path d="M245.6,396.1c-0.3-0.1-0.8-0.3-1.3-0.3c-1.4,0-2.6,0.7-2.6,2.8v6.1h-4.3v-13.1h4.2v2.9h0c0.4-2.1,2-3.2,3.7-3.2
		c0.4,0,0.9,0.1,1.2,0.2L245.6,396.1z"/>
	<path d="M248,405.2c-0.8,0-2.4-1.6-2.4-2.4c0-0.8,1.6-2.4,2.4-2.4s2.4,1.6,2.4,2.4C250.4,403.5,248.8,405.2,248,405.2z"/>
</g>
</svg>
