<?xml version="1.0" encoding="utf-8"?>
<!-- Generator: Adobe Illustrator 22.1.0, SVG Export Plug-In . SVG Version: 6.00 Build 0)  -->
<svg version="1.1" id="Layer_1" xmlns="http://www.w3.org/2000/svg" xmlns:xlink="http://www.w3.org/1999/xlink" x="0px" y="0px"
	 viewBox="0 0 300 600" style="enable-background:new 0 0 300 600;" xml:space="preserve">
<style type="text/css">
	.st0{fill:#F9E038;}
</style>
<path class="st0" d="M91,434.1c0,0-13,0-13,13v12.8c0,0,0,13,13,13h118c0,0,13,0,13-13v-12.8c0,0,0-13-13-13H91z"/>
<g>
	<path d="M101.6,451.1c0-1.1-0.4-2.1-1.6-2.1c-1.6,0-1.7,2.1-1.7,3.2c0,1.3,0.2,3,1.8,3c1.1,0,1.5-0.9,1.7-1.8l2.2,0.1
		c-0.2,2.2-1.8,3.5-4,3.5c-2.9,0-4.2-2.3-4.2-4.9c0-2.7,1.4-4.9,4.3-4.9c2.4,0,3.6,1.4,3.9,3.7L101.6,451.1z"/>
	<path d="M113.3,457h-2.4l-0.6-2h-3.1l-0.6,2h-2l3.1-9.6h2.6L113.3,457z M109.8,453.2l-1-3.4l-1,3.4H109.8z"/>
	<path d="M120.4,455.1v1.9h-6.1v-9.6h2.2v7.7H120.4z"/>
	<path d="M126.8,451.1c0-1.1-0.4-2.1-1.6-2.1c-1.6,0-1.7,2.1-1.7,3.2c0,1.3,0.2,3,1.8,3c1.1,0,1.5-0.9,1.7-1.8l2.2,0.1
		c-0.2,2.2-1.8,3.5-4,3.5c-2.9,0-4.2-2.3-4.2-4.9c0-2.7,1.4-4.9,4.3-4.9c2.4,0,3.6,1.4,3.9,3.7L126.8,451.1z"/>
	<path d="M138.1,453.2c0,1.1,0,2.1-0.8,2.9c-0.8,0.8-1.9,1-3,1c-1,0-2.2-0.2-2.9-0.8c-1-0.8-1-1.9-1-3.1v-5.8h2.4v5.8
		c0,0.4,0,1.1,0.2,1.5c0.3,0.5,0.9,0.6,1.4,0.6c0.4,0,1.1-0.1,1.4-0.5c0.3-0.4,0.3-1.1,0.3-1.6v-5.8h1.9V453.2z"/>
	<path d="M145.9,455.1v1.9h-6.1v-9.6h2.2v7.7H145.9z"/>
	<path d="M154.8,457h-2.4l-0.6-2h-3.1l-0.6,2h-2l3.1-9.6h2.6L154.8,457z M151.2,453.2l-1-3.4l-1,3.4H151.2z"/>
	<path d="M161.3,449.3h-2.4v7.7h-2.2v-7.7h-2.4v-1.9h7.1V449.3z"/>
	<path d="M164.7,449.2v1.9h3.6v1.8h-3.6v2.1h4.6v1.9h-6.9v-9.6h6.9v1.9H164.7z"/>
	<path d="M182.2,457h-1.9l-3.7-6.5h-0.1v6.5h-1.7v-9.6h2.4l3.2,5.6h0v-5.6h1.7V457z"/>
	<path d="M184.6,455.6c-0.7-1-1-2.2-1-3.4c0-2.5,1.3-4.9,4.1-4.9c1.3,0,2.3,0.4,3.1,1.5c0.7,0.9,1,2.3,1,3.5c0,1.1-0.3,2.4-0.9,3.3
		c-0.7,1.1-1.9,1.6-3.2,1.6S185.4,456.7,184.6,455.6z M186.3,450.2c-0.2,0.6-0.3,1.4-0.3,2c0,1.2,0.2,3.1,1.8,3.1
		c0.8,0,1.2-0.4,1.4-1.1c0.2-0.6,0.3-1.4,0.3-2c0-0.7-0.1-1.5-0.4-2.2c-0.3-0.6-0.7-0.9-1.4-0.9C187,449.1,186.5,449.5,186.3,450.2z
		"/>
	<path d="M202.1,457h-2.2l-1.6-6.4h0l-1.5,6.4h-2.2l-2.5-9.6h2.3l1.5,6.5h0l1.6-6.5h2.1l1.6,6.5h0l0.1-0.4l1.4-6.1h1.8L202.1,457z"
		/>
</g>
</svg>
