<?xml version="1.0" encoding="utf-8"?>
<!-- Generator: Adobe Illustrator 24.0.0, SVG Export Plug-In . SVG Version: 6.00 Build 0)  -->
<svg version="1.1" id="Layer_1" xmlns="http://www.w3.org/2000/svg" xmlns:xlink="http://www.w3.org/1999/xlink" x="0px" y="0px"
	 viewBox="0 0 160 600" style="enable-background:new 0 0 160 600;" xml:space="preserve">
<style type="text/css">
	.st0{fill:none;stroke:#FFFFFF;stroke-width:2.527;}
	.st1{fill:#FFFFFF;}
	.st2{fill:none;}
</style>
<ellipse transform="matrix(0.9732 -0.2298 0.2298 0.9732 -88.0276 38.6763)" class="st0" cx="122.07" cy="397.35" rx="21.67" ry="21.67"/>
<path class="st1" d="M131.91,395.95h-7.86v-7.86c0-1.09-0.89-1.98-1.98-1.98c-1.09,0-1.98,0.89-1.98,1.98v7.86h-7.86
	c-1.09,0-1.98,0.89-1.98,1.98c0,1.09,0.89,1.98,1.98,1.98h7.86v7.86c0,1.09,0.89,1.98,1.98,1.98c1.09,0,1.98-0.89,1.98-1.98v-7.86
	h7.86c1.09,0,1.98-0.89,1.98-1.98C133.89,396.83,133,395.95,131.91,395.95"/>
<rect x="110.25" y="386.11" class="st2" width="23.64" height="23.64"/>
</svg>
