<?xml version="1.0" encoding="utf-8"?>
<!-- Generator: Adobe Illustrator 24.0.0, SVG Export Plug-In . SVG Version: 6.00 Build 0)  -->
<svg version="1.1" id="Layer_1" xmlns="http://www.w3.org/2000/svg" xmlns:xlink="http://www.w3.org/1999/xlink" x="0px" y="0px"
	 viewBox="0 0 160 600" style="enable-background:new 0 0 160 600;" xml:space="preserve">
<style type="text/css">
	.st0{fill:#FFFFFF;}
</style>
<g>
	<path class="st0" d="M13.92,586.72v-4.52l-0.88,0.09l0.14-0.61l1.47-0.14v5.17H13.92z"/>
	<path class="st0" d="M17.46,586.82c-0.93,0-1.74-0.85-1.74-2.65c0-1.79,0.82-2.65,1.74-2.65c0.91,0,1.74,0.86,1.74,2.65
		C19.2,585.97,18.37,586.82,17.46,586.82z M17.46,582.16c-0.52,0-1.01,0.56-1.01,2c0,1.46,0.49,2.01,1.01,2.01
		c0.51,0,1.01-0.55,1.01-2.01C18.46,582.72,17.97,582.16,17.46,582.16z"/>
	<path class="st0" d="M21.82,586.82c-0.93,0-1.74-0.85-1.74-2.65c0-1.79,0.82-2.65,1.74-2.65c0.91,0,1.74,0.86,1.74,2.65
		C23.57,585.97,22.73,586.82,21.82,586.82z M21.82,582.16c-0.52,0-1.01,0.56-1.01,2c0,1.46,0.49,2.01,1.01,2.01
		c0.51,0,1.01-0.55,1.01-2.01C22.83,582.72,22.33,582.16,21.82,582.16z"/>
	<path class="st0" d="M24.9,586.72v-4.52l-0.88,0.09l0.14-0.61l1.47-0.14v5.17H24.9z"/>
	<path class="st0" d="M28.35,586.82c-0.93,0-1.7-0.56-1.7-1.51c0-0.77,0.62-1.23,1.01-1.38c-0.39-0.15-0.78-0.54-0.78-1.12
		c0-0.76,0.63-1.29,1.48-1.29s1.49,0.54,1.49,1.29c0,0.56-0.41,0.97-0.78,1.1c0.38,0.13,1.01,0.62,1.01,1.39
		C30.06,586.26,29.28,586.82,28.35,586.82z M28.29,584.27c-0.43,0.13-0.96,0.48-0.96,1.01c0,0.52,0.46,0.9,0.99,0.9
		c0.54,0,1-0.38,1-0.9C29.33,584.75,28.74,584.39,28.29,584.27z M28.36,582.13c-0.42,0-0.78,0.3-0.78,0.7
		c0,0.35,0.34,0.68,0.81,0.81c0.47-0.14,0.75-0.46,0.75-0.81C29.14,582.43,28.8,582.13,28.36,582.13z"/>
	<path class="st0" d="M31.42,586.72v-4.52l-0.88,0.09l0.14-0.61l1.47-0.14v5.17H31.42z"/>
	<path class="st0" d="M34.04,586.72h-0.78l1.94-4.48h-2.34v-0.62h3.38L34.04,586.72z"/>
</g>
</svg>
