<?xml version="1.0" encoding="utf-8"?>
<!-- Generator: Adobe Illustrator 24.0.0, SVG Export Plug-In . SVG Version: 6.00 Build 0)  -->
<svg version="1.1" id="Layer_1" xmlns="http://www.w3.org/2000/svg" xmlns:xlink="http://www.w3.org/1999/xlink" x="0px" y="0px"
	 viewBox="0 0 160 600" style="enable-background:new 0 0 160 600;" xml:space="preserve">
<style type="text/css">
	.st0{fill:#F8DF1F;}
</style>
<g>
	<path class="st0" d="M47.32,143.26h-2.47l-2.32-7.05c-0.35-1.05-0.68-2.15-1.05-3.55h-0.05c-0.35,1.38-0.7,2.52-1.05,3.55
		l-2.32,7.05h-2.42l-5.32-16.05h3.77l2.07,6.45c0.3,0.97,0.62,2,0.87,3.2h0.05c0.22-1.2,0.52-2.2,0.85-3.2l2.1-6.45h3.32l2.07,6.42
		c0.3,0.9,0.6,2.05,0.85,3.22h0.05c0.2-1.15,0.55-2.3,0.85-3.2l2.12-6.45h3.35L47.32,143.26z"/>
	<path class="st0" d="M61.22,143.16v-6.95c0-0.82-0.58-1.55-1.7-1.55c-1.1,0-1.77,0.7-1.77,1.6v6.9h-3.67v-17.8h3.62v7.52h0.02
		c0.58-0.88,1.62-1.4,3.2-1.4c2.5,0,3.97,1.4,3.97,3.8v7.87H61.22z"/>
	<path class="st0" d="M75.17,143.66c-0.67-0.15-1.45-0.67-1.75-1.5c-0.5,0.92-1.57,1.37-2.95,1.37c-2,0-3.77-1.4-3.77-3.75
		c0-2.07,1.62-3.47,3.87-3.7l2.25-0.23v-0.38c0-0.67-0.55-1.12-1.77-1.12c-1.1,0-2.32,0.35-3.15,0.88l-0.65-2.77
		c0.92-0.6,2.47-1,3.97-1c3,0,5.12,1.38,5.12,4.1v3.7c0,1.32,0.5,2.02,1.38,2.35L75.17,143.66z M72.82,138.21l-1.37,0.12
		c-0.95,0.07-1.38,0.75-1.38,1.42c0,0.6,0.45,1.1,1.15,1.1c0.87,0,1.6-0.67,1.6-1.65V138.21z"/>
	<path class="st0" d="M86.3,134.83h-2.95v4.2c0,0.97,0.53,1.37,1.5,1.37c0.42,0,0.67-0.02,0.95-0.15l-0.32,2.77
		c-0.35,0.17-0.98,0.3-1.7,0.3c-2.55,0-4.07-1.35-4.07-3.6v-4.9h-1.9v-3h1.9v-2.42l3.65-1.32v3.75H87L86.3,134.83z"/>
	<path class="st0" d="M101.9,143.66c-0.67-0.15-1.45-0.67-1.75-1.5c-0.5,0.92-1.57,1.37-2.95,1.37c-2,0-3.77-1.4-3.77-3.75
		c0-2.07,1.62-3.47,3.87-3.7l2.25-0.23v-0.38c0-0.67-0.55-1.12-1.77-1.12c-1.1,0-2.32,0.35-3.15,0.88l-0.65-2.77
		c0.92-0.6,2.47-1,3.97-1c3,0,5.12,1.38,5.12,4.1v3.7c0,1.32,0.5,2.02,1.37,2.35L101.9,143.66z M99.55,138.21l-1.38,0.12
		c-0.95,0.07-1.37,0.75-1.37,1.42c0,0.6,0.45,1.1,1.15,1.1c0.88,0,1.6-0.67,1.6-1.65V138.21z"/>
	<path class="st0" d="M110.4,148.93c-3.3,0-5.5-1.87-5.5-4.25c0-1.72,1.15-2.75,2.33-3.05l-1.45-1.45c0.1-0.73,0.72-1.35,1.38-1.62
		c-0.85-0.52-1.65-1.6-1.65-3.02c0-2.4,1.72-4.07,4.67-4.07c0.67,0,1.2,0.1,1.67,0.23c0.5,0.12,1.05,0.2,1.62,0.2
		c0.62,0,1.27-0.15,1.77-0.37l0.67,2.8c-0.35,0.2-0.9,0.37-1.4,0.35c0.12,0.23,0.28,0.75,0.28,1.15c0,1.9-1.5,3.5-3.7,3.65
		c-0.45,0.02-0.75,0.12-0.75,0.42c0,0.12,0.1,0.27,0.3,0.35l1.75,0.62c2.22,0.8,3.42,1.92,3.42,4
		C115.82,147.18,113.69,148.93,110.4,148.93z M111.17,143.6l-1.35-0.37c-0.87,0.02-1.52,0.65-1.52,1.47c0,0.77,0.67,1.42,2,1.42
		c1.3,0,2-0.6,2-1.25C112.29,144.35,111.9,143.81,111.17,143.6z M110.17,134.13c-0.83,0-1.45,0.62-1.45,1.35
		c0,0.75,0.62,1.35,1.45,1.35c0.8,0,1.45-0.6,1.45-1.35C111.62,134.76,111.02,134.13,110.17,134.13z"/>
	<path class="st0" d="M127.62,136.86l-1.62,1.65h-5.55c0.17,0.92,1.42,1.97,3.35,1.97c1.17,0,2.37-0.35,3.12-0.85l-0.35,3.15
		c-0.85,0.45-2.15,0.75-3.6,0.75c-3.45,0-6.22-2.4-6.22-6.1c0-3.65,2.65-5.97,5.9-5.97c3.15,0,5.07,2.17,5.07,4.52
		C127.72,136.26,127.67,136.63,127.62,136.86z M122.65,134.21c-1.08,0-1.97,0.82-2.2,1.85h3.82c0-0.08,0.03-0.15,0.03-0.25
		C124.29,135.03,123.62,134.21,122.65,134.21z"/>
</g>
<g>
	<path class="st0" d="M52.25,169.26h-2.52l-1.52-4.5c-0.23-0.7-0.45-1.5-0.67-2.35h-0.05c-0.17,0.85-0.4,1.67-0.62,2.32l-1.52,4.52
		h-2.4l-3.95-11.42h3.35l1.4,4.3c0.2,0.65,0.42,1.45,0.55,2.17h0.05c0.12-0.7,0.32-1.52,0.55-2.17l1.42-4.3h2.77l1.42,4.27
		c0.23,0.7,0.38,1.47,0.52,2.2h0.05c0.15-0.73,0.35-1.52,0.58-2.2l1.42-4.27h3.12L52.25,169.26z"/>
	<path class="st0" d="M59.4,156.28c-0.65,0-1.97-1.32-1.97-1.97c0-0.65,1.32-1.95,1.97-1.95s1.97,1.3,1.97,1.95
		C61.37,154.96,60.05,156.28,59.4,156.28z M57.55,169.16v-11.32h3.7v11.32H57.55z"/>
	<path class="st0" d="M67.55,169.6c-2.32-0.1-3.87-1.3-3.87-4.02v-14.22h3.62v13.77c0,0.92,0.52,1.42,1.52,1.5L67.55,169.6z"/>
	<path class="st0" d="M74.12,169.6c-2.32-0.1-3.87-1.3-3.87-4.02v-14.22h3.62v13.77c0,0.92,0.52,1.42,1.52,1.5L74.12,169.6z"/>
	<path class="st0" d="M89.5,168.03c-1.72,4.55-3.52,6.2-5.65,7.02l-2.25-2.25c1.83-0.7,3.22-2.02,4.15-4.42l-4.07-10.55h3.55
		l1.65,4.4c0.25,0.65,0.5,1.42,0.67,2.22h0.05c0.22-0.77,0.47-1.57,0.72-2.22l1.65-4.4h3.37L89.5,168.03z"/>
	<path class="st0" d="M99.82,169.51c-3.42,0-6.17-2.42-6.17-6.02s2.75-6.02,6.17-6.02c3.4,0,6.17,2.42,6.17,6.02
		S103.22,169.51,99.82,169.51z M99.82,160.66c-1.38,0-2.55,1.2-2.55,2.87c0,1.67,1.17,2.87,2.55,2.87c1.35,0,2.55-1.2,2.55-2.87
		C102.37,161.86,101.17,160.66,99.82,160.66z"/>
	<path class="st0" d="M115.25,169.16v-1.55h-0.03c-0.45,1.2-1.65,1.87-3.47,1.87c-2.47,0-3.97-1.37-3.97-3.77v-7.87h3.67v6.95
		c0,0.82,0.58,1.55,1.7,1.55c1.1,0,1.77-0.73,1.77-1.62v-6.87h3.67v11.32H115.25z"/>
</g>
<g>
	<path class="st0" d="M40.52,195.48c-2.4,0-4.35-0.82-5.45-1.67v-16.45h3.55v6.87c0.47-0.38,1.67-0.75,2.85-0.75
		c3.12,0,5.7,2.22,5.7,5.8C47.17,192.78,44.95,195.48,40.52,195.48z M40.82,186.71c-1.05,0-1.85,0.5-2.2,0.87v4.32
		c0.37,0.27,1.15,0.55,1.85,0.55c1.88,0,3.05-1.27,3.05-2.92C43.52,187.96,42.42,186.71,40.82,186.71z"/>
	<path class="st0" d="M59.37,188.86l-1.62,1.65H52.2c0.17,0.92,1.42,1.97,3.35,1.97c1.17,0,2.37-0.35,3.12-0.85l-0.35,3.15
		c-0.85,0.45-2.15,0.75-3.6,0.75c-3.45,0-6.22-2.4-6.22-6.1c0-3.65,2.65-5.97,5.9-5.97c3.15,0,5.07,2.17,5.07,4.52
		C59.47,188.26,59.42,188.63,59.37,188.86z M54.4,186.21c-1.07,0-1.97,0.82-2.2,1.85h3.82c0-0.08,0.02-0.15,0.02-0.25
		C56.05,187.03,55.37,186.21,54.4,186.21z"/>
	<path class="st0" d="M73.87,187.73c-0.23-0.12-0.72-0.27-1.1-0.27c-1.17,0-2.25,0.62-2.25,2.42v5.27h-3.67v-11.32h3.62v2.52h0.03
		c0.37-1.77,1.7-2.72,3.22-2.72c0.35,0,0.77,0.05,1.05,0.15L73.87,187.73z"/>
	<path class="st0" d="M86.15,188.86l-1.62,1.65h-5.55c0.17,0.92,1.42,1.97,3.35,1.97c1.17,0,2.37-0.35,3.12-0.85l-0.35,3.15
		c-0.85,0.45-2.15,0.75-3.6,0.75c-3.45,0-6.22-2.4-6.22-6.1c0-3.65,2.65-5.97,5.9-5.97c3.15,0,5.07,2.17,5.07,4.52
		C86.25,188.26,86.2,188.63,86.15,188.86z M81.17,186.21c-1.08,0-1.97,0.82-2.2,1.85h3.82c0-0.08,0.03-0.15,0.03-0.25
		C82.82,187.03,82.15,186.21,81.17,186.21z"/>
	<path class="st0" d="M95.9,195.66c-0.67-0.15-1.45-0.67-1.75-1.5c-0.5,0.92-1.57,1.37-2.95,1.37c-2,0-3.77-1.4-3.77-3.75
		c0-2.07,1.62-3.47,3.87-3.7l2.25-0.23v-0.38c0-0.67-0.55-1.12-1.77-1.12c-1.1,0-2.32,0.35-3.15,0.88l-0.65-2.77
		c0.92-0.6,2.47-1,3.97-1c3,0,5.12,1.38,5.12,4.1v3.7c0,1.32,0.5,2.02,1.37,2.35L95.9,195.66z M93.55,190.21l-1.38,0.12
		c-0.95,0.07-1.37,0.75-1.37,1.42c0,0.6,0.45,1.1,1.15,1.1c0.88,0,1.6-0.67,1.6-1.65V190.21z"/>
	<path class="st0" d="M108.04,195.16v-1.4h-0.02c-0.62,1.15-1.92,1.72-3.5,1.72c-2.77,0-5.45-2.1-5.45-5.97
		c0-3.65,2.6-6.02,5.75-6.02c1.2,0,2.42,0.4,2.87,0.77v-6.9h3.57v17.8H108.04z M107.7,187.73c-0.35-0.47-1.1-1.02-2.22-1.02
		c-1.6,0-2.72,1.25-2.72,2.87s1.12,2.87,2.72,2.87c1.08,0,1.82-0.58,2.22-1.17V187.73z"/>
	<path class="st0" d="M120.42,194.03c-1.72,4.55-3.52,6.2-5.65,7.02l-2.25-2.25c1.82-0.7,3.22-2.02,4.15-4.42l-4.07-10.55h3.55
		l1.65,4.4c0.25,0.65,0.5,1.42,0.67,2.22h0.05c0.22-0.77,0.47-1.57,0.72-2.22l1.65-4.4h3.37L120.42,194.03z"/>
</g>
<g>
	<path class="st0" d="M39.95,212.83H37v4.2c0,0.97,0.52,1.37,1.5,1.37c0.43,0,0.67-0.02,0.95-0.15l-0.32,2.77
		c-0.35,0.17-0.97,0.3-1.7,0.3c-2.55,0-4.07-1.35-4.07-3.6v-4.9h-1.9v-3h1.9v-2.42l3.65-1.32v3.75h3.65L39.95,212.83z"/>
	<path class="st0" d="M47.35,221.51c-3.42,0-6.17-2.42-6.17-6.02s2.75-6.02,6.17-6.02c3.4,0,6.17,2.42,6.17,6.02
		S50.75,221.51,47.35,221.51z M47.35,212.66c-1.37,0-2.55,1.2-2.55,2.87c0,1.67,1.17,2.87,2.55,2.87c1.35,0,2.55-1.2,2.55-2.87
		C49.9,213.86,48.7,212.66,47.35,212.66z"/>
	<path class="st0" d="M67.97,213.73c-0.23-0.12-0.73-0.27-1.1-0.27c-1.17,0-2.25,0.62-2.25,2.42v5.27h-3.67v-11.32h3.62v2.52h0.03
		c0.37-1.77,1.7-2.72,3.22-2.72c0.35,0,0.77,0.05,1.05,0.15L67.97,213.73z"/>
	<path class="st0" d="M80.25,214.86l-1.62,1.65h-5.55c0.17,0.92,1.42,1.97,3.35,1.97c1.17,0,2.37-0.35,3.12-0.85l-0.35,3.15
		c-0.85,0.45-2.15,0.75-3.6,0.75c-3.45,0-6.22-2.4-6.22-6.1c0-3.65,2.65-5.97,5.9-5.97c3.15,0,5.07,2.17,5.07,4.52
		C80.35,214.26,80.29,214.63,80.25,214.86z M75.27,212.21c-1.07,0-1.97,0.82-2.2,1.85h3.82c0-0.08,0.02-0.15,0.02-0.25
		C76.92,213.03,76.25,212.21,75.27,212.21z"/>
	<path class="st0" d="M89.8,212.83h-2.95v4.2c0,0.97,0.52,1.37,1.5,1.37c0.42,0,0.67-0.02,0.95-0.15l-0.33,2.77
		c-0.35,0.17-0.97,0.3-1.7,0.3c-2.55,0-4.07-1.35-4.07-3.6v-4.9h-1.9v-3h1.9v-2.42l3.65-1.32v3.75h3.65L89.8,212.83z"/>
	<path class="st0" d="M93.67,208.28c-0.65,0-1.97-1.32-1.97-1.97c0-0.65,1.33-1.95,1.97-1.95s1.97,1.3,1.97,1.95
		C95.65,206.96,94.32,208.28,93.67,208.28z M91.82,221.16v-11.32h3.7v11.32H91.82z"/>
	<path class="st0" d="M104.92,213.73c-0.22-0.12-0.72-0.27-1.1-0.27c-1.17,0-2.25,0.62-2.25,2.42v5.27H97.9v-11.32h3.62v2.52h0.03
		c0.38-1.77,1.7-2.72,3.22-2.72c0.35,0,0.78,0.05,1.05,0.15L104.92,213.73z"/>
	<path class="st0" d="M117.17,214.86l-1.62,1.65H110c0.17,0.92,1.42,1.97,3.35,1.97c1.17,0,2.37-0.35,3.12-0.85l-0.35,3.15
		c-0.85,0.45-2.15,0.75-3.6,0.75c-3.45,0-6.22-2.4-6.22-6.1c0-3.65,2.65-5.97,5.9-5.97c3.15,0,5.07,2.17,5.07,4.52
		C117.27,214.26,117.22,214.63,117.17,214.86z M112.2,212.21c-1.08,0-1.97,0.82-2.2,1.85h3.82c0-0.08,0.03-0.15,0.03-0.25
		C113.85,213.03,113.17,212.21,112.2,212.21z"/>
	<path class="st0" d="M124.2,213.31c-0.62,0.7-0.87,1.3-0.87,1.97c0,0.35,0.02,0.77,0.1,1.1l-3.15-0.62
		c-0.12-0.5-0.17-0.87-0.17-1.27c0-1.35,0.53-2.47,1.45-3.45c0.65-0.67,0.98-1.15,0.98-1.87c0-0.52-0.5-1.12-1.38-1.12
		c-0.9,0-1.7,0.32-2.55,0.82l-0.75-3.1c0.92-0.58,2.15-0.95,3.57-0.95c2.95,0,4.9,1.7,4.9,4.22
		C126.32,210.53,125.67,211.71,124.2,213.31z M121.92,221.51c-0.67,0-2.07-1.4-2.07-2.07c0-0.65,1.4-2.05,2.07-2.05
		s2.08,1.4,2.08,2.05C124,220.11,122.62,221.51,121.92,221.51z"/>
</g>
</svg>
