<?xml version="1.0" encoding="utf-8"?>
<!-- Generator: Adobe Illustrator 24.0.0, SVG Export Plug-In . SVG Version: 6.00 Build 0)  -->
<svg version="1.1" id="Layer_1" xmlns="http://www.w3.org/2000/svg" xmlns:xlink="http://www.w3.org/1999/xlink" x="0px" y="0px"
	 viewBox="0 0 160 600" style="enable-background:new 0 0 160 600;" xml:space="preserve">
<style type="text/css">
	.st0{fill:#F8DF1F;}
</style>
<g>
	<path class="st0" d="M50.56,143.41h-2.47l-2.32-7.05c-0.35-1.05-0.67-2.15-1.05-3.55h-0.05c-0.35,1.38-0.7,2.52-1.05,3.55
		l-2.32,7.05h-2.42l-5.32-16.05h3.77l2.07,6.45c0.3,0.97,0.62,2,0.87,3.2h0.05c0.22-1.2,0.52-2.2,0.85-3.2l2.1-6.45h3.32l2.07,6.42
		c0.3,0.9,0.6,2.05,0.85,3.22h0.05c0.2-1.15,0.55-2.3,0.85-3.2l2.12-6.45h3.35L50.56,143.41z"/>
	<path class="st0" d="M59.13,130.44c-0.65,0-1.97-1.32-1.97-1.97c0-0.65,1.32-1.95,1.97-1.95s1.97,1.3,1.97,1.95
		C61.11,129.12,59.78,130.44,59.13,130.44z M57.28,143.31v-11.32h3.7v11.32H57.28z"/>
	<path class="st0" d="M67.28,143.76c-2.32-0.1-3.87-1.3-3.87-4.02v-14.22h3.62v13.77c0,0.92,0.52,1.42,1.52,1.5L67.28,143.76z"/>
	<path class="st0" d="M73.86,143.76c-2.32-0.1-3.87-1.3-3.87-4.02v-14.22h3.62v13.77c0,0.92,0.52,1.42,1.52,1.5L73.86,143.76z"/>
	<path class="st0" d="M89.23,142.19c-1.72,4.55-3.52,6.2-5.65,7.02l-2.25-2.25c1.83-0.7,3.22-2.02,4.15-4.42l-4.07-10.55h3.55
		l1.65,4.4c0.25,0.65,0.5,1.42,0.67,2.22h0.05c0.22-0.77,0.47-1.57,0.72-2.22l1.65-4.4h3.37L89.23,142.19z"/>
	<path class="st0" d="M99.56,143.66c-3.42,0-6.17-2.42-6.17-6.02s2.75-6.02,6.17-6.02c3.4,0,6.17,2.42,6.17,6.02
		S102.96,143.66,99.56,143.66z M99.56,134.81c-1.38,0-2.55,1.2-2.55,2.87c0,1.67,1.17,2.87,2.55,2.87c1.35,0,2.55-1.2,2.55-2.87
		C102.11,136.01,100.91,134.81,99.56,134.81z"/>
	<path class="st0" d="M114.98,143.31v-1.55h-0.03c-0.45,1.2-1.65,1.87-3.47,1.87c-2.47,0-3.97-1.37-3.97-3.77v-7.87h3.67v6.95
		c0,0.82,0.58,1.55,1.7,1.55c1.1,0,1.77-0.73,1.77-1.62v-6.87h3.67v11.32H114.98z"/>
	<path class="st0" d="M127.71,135.89c-0.22-0.12-0.72-0.27-1.1-0.27c-1.17,0-2.25,0.62-2.25,2.42v5.27h-3.67v-11.32h3.62v2.52h0.03
		c0.38-1.77,1.7-2.72,3.22-2.72c0.35,0,0.78,0.05,1.05,0.15L127.71,135.89z"/>
</g>
<g>
	<path class="st0" d="M32.68,161.89c-0.23-0.12-0.72-0.27-1.1-0.27c-1.17,0-2.25,0.62-2.25,2.42v5.27h-3.67v-11.32h3.62v2.52h0.03
		c0.37-1.77,1.7-2.72,3.22-2.72c0.35,0,0.77,0.05,1.05,0.15L32.68,161.89z"/>
	<path class="st0" d="M44.96,163.01l-1.62,1.65h-5.55c0.17,0.92,1.42,1.97,3.35,1.97c1.17,0,2.37-0.35,3.12-0.85l-0.35,3.15
		c-0.85,0.45-2.15,0.75-3.6,0.75c-3.45,0-6.22-2.4-6.22-6.1c0-3.65,2.65-5.97,5.9-5.97c3.15,0,5.07,2.17,5.07,4.52
		C45.06,162.41,45.01,162.79,44.96,163.01z M39.98,160.37c-1.07,0-1.97,0.82-2.2,1.85h3.82c0-0.08,0.03-0.15,0.03-0.25
		C41.63,161.19,40.96,160.37,39.98,160.37z"/>
	<path class="st0" d="M54.53,160.99h-2.95v4.2c0,0.97,0.52,1.37,1.5,1.37c0.43,0,0.67-0.02,0.95-0.15l-0.32,2.77
		c-0.35,0.17-0.97,0.3-1.7,0.3c-2.55,0-4.07-1.35-4.07-3.6v-4.9h-1.9v-3h1.9v-2.42l3.65-1.32v3.75h3.65L54.53,160.99z"/>
	<path class="st0" d="M58.41,156.44c-0.65,0-1.97-1.32-1.97-1.97c0-0.65,1.32-1.95,1.97-1.95s1.97,1.3,1.97,1.95
		C60.38,155.12,59.06,156.44,58.41,156.44z M56.56,169.31v-11.32h3.7v11.32H56.56z"/>
	<path class="st0" d="M69.68,161.89c-0.23-0.12-0.73-0.27-1.1-0.27c-1.17,0-2.25,0.62-2.25,2.42v5.27h-3.67v-11.32h3.62v2.52h0.03
		c0.37-1.77,1.7-2.72,3.22-2.72c0.35,0,0.77,0.05,1.05,0.15L69.68,161.89z"/>
	<path class="st0" d="M81.96,163.01l-1.62,1.65h-5.55c0.17,0.92,1.42,1.97,3.35,1.97c1.17,0,2.37-0.35,3.12-0.85l-0.35,3.15
		c-0.85,0.45-2.15,0.75-3.6,0.75c-3.45,0-6.22-2.4-6.22-6.1c0-3.65,2.65-5.97,5.9-5.97c3.15,0,5.07,2.17,5.07,4.52
		C82.06,162.41,82.01,162.79,81.96,163.01z M76.98,160.37c-1.07,0-1.97,0.82-2.2,1.85h3.82c0-0.08,0.03-0.15,0.03-0.25
		C78.63,161.19,77.96,160.37,76.98,160.37z"/>
	<path class="st0" d="M97.81,169.31v-6.95c0-0.82-0.4-1.55-1.6-1.55c-1.17,0-1.7,0.7-1.7,1.6v6.9h-3.67v-6.95
		c0-0.82-0.4-1.55-1.6-1.55c-1.17,0-1.7,0.7-1.7,1.6v6.9h-3.67v-11.32h3.4v1.52h0.02c0.45-1.2,1.58-1.88,3.35-1.88
		c1.62,0,2.85,0.65,3.35,1.85c0.47-1.1,1.8-1.85,3.5-1.85c2.57,0,4,1.4,4,3.8v7.87H97.81z"/>
	<path class="st0" d="M114.18,163.01l-1.62,1.65h-5.55c0.17,0.92,1.42,1.97,3.35,1.97c1.17,0,2.37-0.35,3.12-0.85l-0.35,3.15
		c-0.85,0.45-2.15,0.75-3.6,0.75c-3.45,0-6.22-2.4-6.22-6.1c0-3.65,2.65-5.97,5.9-5.97c3.15,0,5.07,2.17,5.07,4.52
		C114.28,162.41,114.23,162.79,114.18,163.01z M109.21,160.37c-1.08,0-1.97,0.82-2.2,1.85h3.82c0-0.08,0.03-0.15,0.03-0.25
		C110.86,161.19,110.18,160.37,109.21,160.37z"/>
	<path class="st0" d="M123.23,169.31v-6.95c0-0.82-0.55-1.55-1.67-1.55c-1.1,0-1.8,0.7-1.8,1.6v6.9h-3.67v-11.32h3.37v1.52h0.03
		c0.45-1.2,1.62-1.88,3.45-1.88c2.47,0,3.97,1.4,3.97,3.8v7.87H123.23z"/>
	<path class="st0" d="M136.66,160.99h-2.95v4.2c0,0.97,0.52,1.37,1.5,1.37c0.42,0,0.67-0.02,0.95-0.15l-0.33,2.77
		c-0.35,0.17-0.97,0.3-1.7,0.3c-2.55,0-4.07-1.35-4.07-3.6v-4.9h-1.9v-3h1.9v-2.42l3.65-1.32v3.75h3.65L136.66,160.99z"/>
</g>
<g>
	<path class="st0" d="M48.93,195.56c-1.55,0-2.67-0.33-3.6-0.8l-0.32-3.25c1,0.7,2.3,1.23,3.55,1.23c0.67,0,1.1-0.35,1.1-0.77
		c0-0.48-0.37-0.67-1.02-0.88c-2.17-0.62-3.47-1.72-3.47-3.7c0-2.22,1.8-3.65,4.25-3.65c1.4,0,2.77,0.38,3.35,0.67l-0.62,2.7
		c-0.55-0.3-1.45-0.62-2.35-0.62c-0.6,0-1,0.27-1,0.72c0,0.42,0.3,0.65,1,0.82c2.55,0.68,3.6,1.95,3.6,3.85
		C53.38,193.81,51.98,195.56,48.93,195.56z"/>
	<path class="st0" d="M63.16,195.81c-0.67-0.15-1.45-0.67-1.75-1.5c-0.5,0.92-1.57,1.37-2.95,1.37c-2,0-3.77-1.4-3.77-3.75
		c0-2.07,1.62-3.47,3.87-3.7l2.25-0.23v-0.38c0-0.67-0.55-1.12-1.77-1.12c-1.1,0-2.32,0.35-3.15,0.88l-0.65-2.77
		c0.92-0.6,2.47-1,3.97-1c3,0,5.12,1.38,5.12,4.1v3.7c0,1.32,0.5,2.02,1.38,2.35L63.16,195.81z M60.81,190.36l-1.37,0.12
		c-0.95,0.07-1.38,0.75-1.38,1.42c0,0.6,0.45,1.1,1.15,1.1c0.87,0,1.6-0.67,1.6-1.65V190.36z"/>
	<path class="st0" d="M72.53,195.41h-2.75l-4.35-11.42h3.55l1.6,4.32c0.22,0.6,0.45,1.45,0.62,2.2h0.05c0.17-0.72,0.42-1.6,0.65-2.2
		l1.6-4.32h3.4L72.53,195.41z"/>
	<path class="st0" d="M80.11,182.44c-0.65,0-1.97-1.32-1.97-1.97c0-0.65,1.32-1.95,1.97-1.95c0.65,0,1.97,1.3,1.97,1.95
		C82.08,181.12,80.76,182.44,80.11,182.44z M78.26,195.31v-11.32h3.7v11.32H78.26z"/>
	<path class="st0" d="M91.48,195.31v-6.95c0-0.82-0.55-1.55-1.67-1.55c-1.1,0-1.8,0.7-1.8,1.6v6.9h-3.67v-11.32h3.37v1.52h0.03
		c0.45-1.2,1.62-1.88,3.45-1.88c2.47,0,3.97,1.4,3.97,3.8v7.87H91.48z"/>
	<path class="st0" d="M102.23,201.09c-3.3,0-5.5-1.87-5.5-4.25c0-1.72,1.15-2.75,2.33-3.05l-1.45-1.45c0.1-0.73,0.72-1.35,1.38-1.62
		c-0.85-0.52-1.65-1.6-1.65-3.02c0-2.4,1.72-4.07,4.67-4.07c0.67,0,1.2,0.1,1.67,0.23c0.5,0.12,1.05,0.2,1.62,0.2
		c0.62,0,1.27-0.15,1.77-0.37l0.67,2.8c-0.35,0.2-0.9,0.37-1.4,0.35c0.12,0.23,0.28,0.75,0.28,1.15c0,1.9-1.5,3.5-3.7,3.65
		c-0.45,0.02-0.75,0.12-0.75,0.42c0,0.12,0.1,0.27,0.3,0.35l1.75,0.62c2.22,0.8,3.42,1.92,3.42,4
		C107.66,199.34,105.53,201.09,102.23,201.09z M103.01,195.76l-1.35-0.37c-0.87,0.02-1.52,0.65-1.52,1.47c0,0.77,0.67,1.42,2,1.42
		c1.3,0,2-0.6,2-1.25C104.13,196.51,103.73,195.96,103.01,195.76z M102.01,186.29c-0.83,0-1.45,0.62-1.45,1.35
		c0,0.75,0.62,1.35,1.45,1.35c0.8,0,1.45-0.6,1.45-1.35C103.46,186.92,102.86,186.29,102.01,186.29z"/>
	<path class="st0" d="M112.81,195.56c-1.55,0-2.67-0.33-3.6-0.8l-0.33-3.25c1,0.7,2.3,1.23,3.55,1.23c0.67,0,1.1-0.35,1.1-0.77
		c0-0.48-0.38-0.67-1.02-0.88c-2.17-0.62-3.47-1.72-3.47-3.7c0-2.22,1.8-3.65,4.25-3.65c1.4,0,2.77,0.38,3.35,0.67l-0.62,2.7
		c-0.55-0.3-1.45-0.62-2.35-0.62c-0.6,0-1,0.27-1,0.72c0,0.42,0.3,0.65,1,0.82c2.55,0.68,3.6,1.95,3.6,3.85
		C117.26,193.81,115.86,195.56,112.81,195.56z"/>
</g>
<g>
	<path class="st0" d="M40.21,221.64c-2.4,0-4.35-0.82-5.45-1.67v-16.45h3.55v6.87c0.47-0.38,1.67-0.75,2.85-0.75
		c3.12,0,5.7,2.22,5.7,5.8C46.86,218.94,44.63,221.64,40.21,221.64z M40.51,212.87c-1.05,0-1.85,0.5-2.2,0.87v4.32
		c0.37,0.27,1.15,0.55,1.85,0.55c1.87,0,3.05-1.27,3.05-2.92C43.21,214.11,42.11,212.87,40.51,212.87z"/>
	<path class="st0" d="M59.06,215.01l-1.62,1.65h-5.55c0.17,0.92,1.42,1.97,3.35,1.97c1.17,0,2.37-0.35,3.12-0.85l-0.35,3.15
		c-0.85,0.45-2.15,0.75-3.6,0.75c-3.45,0-6.22-2.4-6.22-6.1c0-3.65,2.65-5.97,5.9-5.97c3.15,0,5.07,2.17,5.07,4.52
		C59.16,214.41,59.11,214.79,59.06,215.01z M54.08,212.37c-1.07,0-1.97,0.82-2.2,1.85h3.82c0-0.08,0.03-0.15,0.03-0.25
		C55.73,213.19,55.06,212.37,54.08,212.37z"/>
	<path class="st0" d="M73.56,213.89c-0.23-0.12-0.73-0.27-1.1-0.27c-1.17,0-2.25,0.62-2.25,2.42v5.27h-3.67v-11.32h3.62v2.52h0.03
		c0.37-1.77,1.7-2.72,3.22-2.72c0.35,0,0.77,0.05,1.05,0.15L73.56,213.89z"/>
	<path class="st0" d="M85.83,215.01l-1.62,1.65h-5.55c0.17,0.92,1.42,1.97,3.35,1.97c1.17,0,2.38-0.35,3.12-0.85l-0.35,3.15
		c-0.85,0.45-2.15,0.75-3.6,0.75c-3.45,0-6.22-2.4-6.22-6.1c0-3.65,2.65-5.97,5.9-5.97c3.15,0,5.07,2.17,5.07,4.52
		C85.93,214.41,85.88,214.79,85.83,215.01z M80.86,212.37c-1.07,0-1.97,0.82-2.2,1.85h3.82c0-0.08,0.02-0.15,0.02-0.25
		C82.51,213.19,81.83,212.37,80.86,212.37z"/>
	<path class="st0" d="M95.58,221.81c-0.67-0.15-1.45-0.67-1.75-1.5c-0.5,0.92-1.57,1.37-2.95,1.37c-2,0-3.77-1.4-3.77-3.75
		c0-2.07,1.62-3.47,3.87-3.7l2.25-0.23v-0.38c0-0.67-0.55-1.12-1.77-1.12c-1.1,0-2.32,0.35-3.15,0.88l-0.65-2.77
		c0.92-0.6,2.47-1,3.97-1c3,0,5.12,1.38,5.12,4.1v3.7c0,1.32,0.5,2.02,1.37,2.35L95.58,221.81z M93.23,216.36l-1.38,0.12
		c-0.95,0.07-1.37,0.75-1.37,1.42c0,0.6,0.45,1.1,1.15,1.1c0.88,0,1.6-0.67,1.6-1.65V216.36z"/>
	<path class="st0" d="M107.73,221.31v-1.4h-0.02c-0.62,1.15-1.92,1.72-3.5,1.72c-2.77,0-5.45-2.1-5.45-5.97
		c0-3.65,2.6-6.02,5.75-6.02c1.2,0,2.42,0.4,2.87,0.77v-6.9h3.57v17.8H107.73z M107.38,213.89c-0.35-0.47-1.1-1.02-2.22-1.02
		c-1.6,0-2.72,1.25-2.72,2.87s1.12,2.87,2.72,2.87c1.08,0,1.82-0.58,2.22-1.17V213.89z"/>
	<path class="st0" d="M120.11,220.19c-1.72,4.55-3.52,6.2-5.65,7.02l-2.25-2.25c1.82-0.7,3.22-2.02,4.15-4.42l-4.07-10.55h3.55
		l1.65,4.4c0.25,0.65,0.5,1.42,0.67,2.22h0.05c0.22-0.77,0.47-1.57,0.72-2.22l1.65-4.4h3.37L120.11,220.19z"/>
	<path class="st0" d="M124.88,225.06l-1.15-0.2c0.85-0.98,1.5-2.4,1.65-3.52c-0.62-0.12-1.65-1.2-1.65-1.75
		c0-0.72,1.42-2.05,2.07-2.05c0.58,0,2.07,1.27,2.07,2.05C127.88,221.16,126.36,223.71,124.88,225.06z"/>
</g>
<g>
	<path class="st0" d="M66.93,238.99h-2.95v4.2c0,0.97,0.52,1.37,1.5,1.37c0.43,0,0.67-0.02,0.95-0.15l-0.33,2.77
		c-0.35,0.17-0.97,0.3-1.7,0.3c-2.55,0-4.07-1.35-4.07-3.6v-4.9h-1.9v-3h1.9v-2.42l3.65-1.32v3.75h3.65L66.93,238.99z"/>
	<path class="st0" d="M74.33,247.66c-3.42,0-6.17-2.42-6.17-6.02s2.75-6.02,6.17-6.02c3.4,0,6.17,2.42,6.17,6.02
		S77.73,247.66,74.33,247.66z M74.33,238.81c-1.37,0-2.55,1.2-2.55,2.87c0,1.67,1.17,2.87,2.55,2.87c1.35,0,2.55-1.2,2.55-2.87
		C76.88,240.01,75.68,238.81,74.33,238.81z"/>
	<path class="st0" d="M87.96,247.66c-3.42,0-6.17-2.42-6.17-6.02s2.75-6.02,6.17-6.02c3.4,0,6.17,2.42,6.17,6.02
		S91.36,247.66,87.96,247.66z M87.96,238.81c-1.38,0-2.55,1.2-2.55,2.87c0,1.67,1.17,2.87,2.55,2.87c1.35,0,2.55-1.2,2.55-2.87
		C90.51,240.01,89.31,238.81,87.96,238.81z"/>
	<path class="st0" d="M100.98,239.46c-0.62,0.7-0.87,1.3-0.87,1.97c0,0.35,0.02,0.77,0.1,1.1l-3.15-0.62
		c-0.12-0.5-0.17-0.87-0.17-1.27c0-1.35,0.52-2.47,1.45-3.45c0.65-0.67,0.98-1.15,0.98-1.87c0-0.52-0.5-1.12-1.38-1.12
		c-0.9,0-1.7,0.32-2.55,0.82l-0.75-3.1c0.92-0.58,2.15-0.95,3.57-0.95c2.95,0,4.9,1.7,4.9,4.22
		C103.11,236.69,102.46,237.87,100.98,239.46z M98.71,247.66c-0.67,0-2.07-1.4-2.07-2.07c0-0.65,1.4-2.05,2.07-2.05
		s2.08,1.4,2.08,2.05C100.78,246.26,99.41,247.66,98.71,247.66z"/>
</g>
</svg>
