<?xml version="1.0" encoding="utf-8"?>
<!-- Generator: Adobe Illustrator 24.0.0, SVG Export Plug-In . SVG Version: 6.00 Build 0)  -->
<svg version="1.1" id="Layer_1" xmlns="http://www.w3.org/2000/svg" xmlns:xlink="http://www.w3.org/1999/xlink" x="0px" y="0px"
	 viewBox="0 0 160 600" style="enable-background:new 0 0 160 600;" xml:space="preserve">
<style type="text/css">
	.st0{fill:#F8DF1F;}
</style>
<g>
	<path class="st0" d="M33.63,130.54v3.15h4.52v3.25h-4.52v6.37h-3.8v-15.95h9.27v3.17H33.63z"/>
	<path class="st0" d="M42.33,130.44c-0.65,0-1.97-1.32-1.97-1.97c0-0.65,1.32-1.95,1.97-1.95s1.97,1.3,1.97,1.95
		C44.3,129.12,42.98,130.44,42.33,130.44z M40.48,143.31v-11.32h3.7v11.32H40.48z"/>
	<path class="st0" d="M51.38,149.09c-3.3,0-5.5-1.87-5.5-4.25c0-1.72,1.15-2.75,2.32-3.05l-1.45-1.45c0.1-0.73,0.73-1.35,1.38-1.62
		c-0.85-0.52-1.65-1.6-1.65-3.02c0-2.4,1.72-4.07,4.67-4.07c0.67,0,1.2,0.1,1.67,0.23c0.5,0.12,1.05,0.2,1.62,0.2
		c0.62,0,1.27-0.15,1.77-0.37l0.67,2.8c-0.35,0.2-0.9,0.37-1.4,0.35c0.12,0.23,0.27,0.75,0.27,1.15c0,1.9-1.5,3.5-3.7,3.65
		c-0.45,0.02-0.75,0.12-0.75,0.42c0,0.12,0.1,0.27,0.3,0.35l1.75,0.62c2.22,0.8,3.42,1.92,3.42,4
		C56.8,147.34,54.68,149.09,51.38,149.09z M52.15,143.76l-1.35-0.37c-0.88,0.02-1.52,0.65-1.52,1.47c0,0.77,0.67,1.42,2,1.42
		c1.3,0,2-0.6,2-1.25C53.28,144.51,52.88,143.96,52.15,143.76z M51.15,134.29c-0.82,0-1.45,0.62-1.45,1.35
		c0,0.75,0.62,1.35,1.45,1.35c0.8,0,1.45-0.6,1.45-1.35C52.6,134.92,52,134.29,51.15,134.29z"/>
	<path class="st0" d="M65.7,143.31v-1.55h-0.02c-0.45,1.2-1.65,1.87-3.47,1.87c-2.47,0-3.97-1.37-3.97-3.77v-7.87h3.67v6.95
		c0,0.82,0.57,1.55,1.7,1.55c1.1,0,1.77-0.73,1.77-1.62v-6.87h3.67v11.32H65.7z"/>
	<path class="st0" d="M78.43,135.89c-0.23-0.12-0.72-0.27-1.1-0.27c-1.17,0-2.25,0.62-2.25,2.42v5.27H71.4v-11.32h3.62v2.52h0.03
		c0.37-1.77,1.7-2.72,3.22-2.72c0.35,0,0.77,0.05,1.05,0.15L78.43,135.89z"/>
	<path class="st0" d="M90.7,137.01l-1.62,1.65h-5.55c0.17,0.92,1.42,1.97,3.35,1.97c1.17,0,2.37-0.35,3.12-0.85l-0.35,3.15
		c-0.85,0.45-2.15,0.75-3.6,0.75c-3.45,0-6.22-2.4-6.22-6.1c0-3.65,2.65-5.97,5.9-5.97c3.15,0,5.07,2.17,5.07,4.52
		C90.8,136.41,90.75,136.79,90.7,137.01z M85.73,134.37c-1.08,0-1.97,0.82-2.2,1.85h3.82c0-0.08,0.03-0.15,0.03-0.25
		C87.38,135.19,86.7,134.37,85.73,134.37z"/>
	<path class="st0" d="M103.93,143.66c-3.42,0-6.17-2.42-6.17-6.02s2.75-6.02,6.17-6.02c3.4,0,6.17,2.42,6.17,6.02
		S107.33,143.66,103.93,143.66z M103.93,134.81c-1.38,0-2.55,1.2-2.55,2.87c0,1.67,1.17,2.87,2.55,2.87c1.35,0,2.55-1.2,2.55-2.87
		C106.48,136.01,105.28,134.81,103.93,134.81z"/>
	<path class="st0" d="M119.35,143.31v-1.55h-0.03c-0.45,1.2-1.65,1.87-3.47,1.87c-2.47,0-3.97-1.37-3.97-3.77v-7.87h3.67v6.95
		c0,0.82,0.58,1.55,1.7,1.55c1.1,0,1.77-0.73,1.77-1.62v-6.87h3.67v11.32H119.35z"/>
	<path class="st0" d="M132.65,134.99h-2.95v4.2c0,0.97,0.52,1.37,1.5,1.37c0.42,0,0.67-0.02,0.95-0.15l-0.33,2.77
		c-0.35,0.17-0.97,0.3-1.7,0.3c-2.55,0-4.07-1.35-4.07-3.6v-4.9h-1.9v-3h1.9v-2.42l3.65-1.32v3.75h3.65L132.65,134.99z"/>
</g>
<g>
	<path class="st0" d="M65.28,168.19c-1.72,4.55-3.52,6.2-5.65,7.02l-2.25-2.25c1.82-0.7,3.22-2.02,4.15-4.42l-4.07-10.55H61
		l1.65,4.4c0.25,0.65,0.5,1.42,0.67,2.22h0.05c0.23-0.77,0.48-1.57,0.73-2.22l1.65-4.4h3.37L65.28,168.19z"/>
	<path class="st0" d="M75.6,169.66c-3.42,0-6.17-2.42-6.17-6.02s2.75-6.02,6.17-6.02c3.4,0,6.17,2.42,6.17,6.02
		S79,169.66,75.6,169.66z M75.6,160.81c-1.37,0-2.55,1.2-2.55,2.87c0,1.67,1.17,2.87,2.55,2.87c1.35,0,2.55-1.2,2.55-2.87
		C78.15,162.01,76.95,160.81,75.6,160.81z"/>
	<path class="st0" d="M91.03,169.31v-1.55H91c-0.45,1.2-1.65,1.87-3.47,1.87c-2.47,0-3.97-1.37-3.97-3.77v-7.87h3.67v6.95
		c0,0.82,0.58,1.55,1.7,1.55c1.1,0,1.77-0.73,1.77-1.62v-6.87h3.67v11.32H91.03z"/>
	<path class="st0" d="M103.75,161.89c-0.22-0.12-0.72-0.27-1.1-0.27c-1.17,0-2.25,0.62-2.25,2.42v5.27h-3.67v-11.32h3.62v2.52h0.03
		c0.38-1.77,1.7-2.72,3.22-2.72c0.35,0,0.78,0.05,1.05,0.15L103.75,161.89z"/>
</g>
<g>
	<path class="st0" d="M27.95,201.09c-3.3,0-5.5-1.87-5.5-4.25c0-1.72,1.15-2.75,2.32-3.05l-1.45-1.45c0.1-0.73,0.73-1.35,1.38-1.62
		c-0.85-0.52-1.65-1.6-1.65-3.02c0-2.4,1.72-4.07,4.67-4.07c0.68,0,1.2,0.1,1.67,0.23c0.5,0.12,1.05,0.2,1.62,0.2
		c0.62,0,1.27-0.15,1.77-0.37l0.68,2.8c-0.35,0.2-0.9,0.37-1.4,0.35c0.12,0.23,0.27,0.75,0.27,1.15c0,1.9-1.5,3.5-3.7,3.65
		c-0.45,0.02-0.75,0.12-0.75,0.42c0,0.12,0.1,0.27,0.3,0.35l1.75,0.62c2.22,0.8,3.42,1.92,3.42,4
		C33.38,199.34,31.25,201.09,27.95,201.09z M28.73,195.76l-1.35-0.37c-0.88,0.02-1.52,0.65-1.52,1.47c0,0.77,0.67,1.42,2,1.42
		c1.3,0,2-0.6,2-1.25C29.85,196.51,29.45,195.96,28.73,195.76z M27.73,186.29c-0.82,0-1.45,0.62-1.45,1.35
		c0,0.75,0.62,1.35,1.45,1.35c0.8,0,1.45-0.6,1.45-1.35C29.18,186.92,28.58,186.29,27.73,186.29z"/>
	<path class="st0" d="M42.28,195.31v-1.55h-0.02c-0.45,1.2-1.65,1.87-3.47,1.87c-2.47,0-3.97-1.37-3.97-3.77v-7.87h3.67v6.95
		c0,0.82,0.57,1.55,1.7,1.55c1.1,0,1.77-0.73,1.77-1.62v-6.87h3.67v11.32H42.28z"/>
	<path class="st0" d="M55.95,195.81c-0.67-0.15-1.45-0.67-1.75-1.5c-0.5,0.92-1.57,1.37-2.95,1.37c-2,0-3.77-1.4-3.77-3.75
		c0-2.07,1.62-3.47,3.87-3.7l2.25-0.23v-0.38c0-0.67-0.55-1.12-1.77-1.12c-1.1,0-2.32,0.35-3.15,0.88l-0.65-2.77
		c0.92-0.6,2.47-1,3.97-1c3,0,5.12,1.38,5.12,4.1v3.7c0,1.32,0.5,2.02,1.38,2.35L55.95,195.81z M53.6,190.36l-1.38,0.12
		c-0.95,0.07-1.37,0.75-1.37,1.42c0,0.6,0.45,1.1,1.15,1.1c0.87,0,1.6-0.67,1.6-1.65V190.36z"/>
	<path class="st0" d="M66.78,187.89c-0.23-0.12-0.73-0.27-1.1-0.27c-1.17,0-2.25,0.62-2.25,2.42v5.27h-3.67v-11.32h3.62v2.52h0.03
		c0.37-1.77,1.7-2.72,3.22-2.72c0.35,0,0.77,0.05,1.05,0.15L66.78,187.89z"/>
	<path class="st0" d="M76.83,195.81c-0.67-0.15-1.45-0.67-1.75-1.5c-0.5,0.92-1.57,1.37-2.95,1.37c-2,0-3.77-1.4-3.77-3.75
		c0-2.07,1.62-3.47,3.87-3.7l2.25-0.23v-0.38c0-0.67-0.55-1.12-1.77-1.12c-1.1,0-2.32,0.35-3.15,0.88l-0.65-2.77
		c0.92-0.6,2.47-1,3.97-1c3,0,5.12,1.38,5.12,4.1v3.7c0,1.32,0.5,2.02,1.38,2.35L76.83,195.81z M74.48,190.36l-1.37,0.12
		c-0.95,0.07-1.38,0.75-1.38,1.42c0,0.6,0.45,1.1,1.15,1.1c0.87,0,1.6-0.67,1.6-1.65V190.36z"/>
	<path class="st0" d="M87.78,195.31v-6.95c0-0.82-0.55-1.55-1.67-1.55c-1.1,0-1.8,0.7-1.8,1.6v6.9h-3.67v-11.32H84v1.52h0.03
		c0.45-1.2,1.62-1.88,3.45-1.88c2.47,0,3.97,1.4,3.97,3.8v7.87H87.78z"/>
	<path class="st0" d="M101.23,186.99h-2.95v4.2c0,0.97,0.52,1.37,1.5,1.37c0.42,0,0.67-0.02,0.95-0.15l-0.33,2.77
		c-0.35,0.17-0.97,0.3-1.7,0.3c-2.55,0-4.07-1.35-4.07-3.6v-4.9h-1.9v-3h1.9v-2.42l3.65-1.32v3.75h3.65L101.23,186.99z"/>
	<path class="st0" d="M113.33,189.01l-1.62,1.65h-5.55c0.17,0.92,1.42,1.97,3.35,1.97c1.17,0,2.37-0.35,3.12-0.85l-0.35,3.15
		c-0.85,0.45-2.15,0.75-3.6,0.75c-3.45,0-6.22-2.4-6.22-6.1c0-3.65,2.65-5.97,5.9-5.97c3.15,0,5.07,2.17,5.07,4.52
		C113.43,188.41,113.38,188.79,113.33,189.01z M108.35,186.37c-1.08,0-1.97,0.82-2.2,1.85h3.82c0-0.08,0.03-0.15,0.03-0.25
		C110,187.19,109.33,186.37,108.35,186.37z"/>
	<path class="st0" d="M125.53,189.01l-1.62,1.65h-5.55c0.17,0.92,1.42,1.97,3.35,1.97c1.17,0,2.37-0.35,3.12-0.85l-0.35,3.15
		c-0.85,0.45-2.15,0.75-3.6,0.75c-3.45,0-6.22-2.4-6.22-6.1c0-3.65,2.65-5.97,5.9-5.97c3.15,0,5.07,2.17,5.07,4.52
		C125.62,188.41,125.58,188.79,125.53,189.01z M120.55,186.37c-1.08,0-1.97,0.82-2.2,1.85h3.82c0-0.08,0.03-0.15,0.03-0.25
		C122.2,187.19,121.53,186.37,120.55,186.37z"/>
	<path class="st0" d="M135.88,195.31v-1.4h-0.02c-0.62,1.15-1.92,1.72-3.5,1.72c-2.77,0-5.45-2.1-5.45-5.97
		c0-3.65,2.6-6.02,5.75-6.02c1.2,0,2.42,0.4,2.87,0.77v-6.9h3.57v17.8H135.88z M135.53,187.89c-0.35-0.47-1.1-1.02-2.22-1.02
		c-1.6,0-2.72,1.25-2.72,2.87s1.12,2.87,2.72,2.87c1.08,0,1.82-0.58,2.22-1.17V187.89z"/>
</g>
<g>
	<path class="st0" d="M45.23,221.76c-2.32-0.1-3.87-1.3-3.87-4.02v-14.22h3.62v13.77c0,0.92,0.52,1.42,1.52,1.5L45.23,221.76z"/>
	<path class="st0" d="M49.85,208.44c-0.65,0-1.97-1.32-1.97-1.97c0-0.65,1.32-1.95,1.97-1.95s1.97,1.3,1.97,1.95
		C51.83,207.12,50.5,208.44,49.85,208.44z M48,221.31v-11.32h3.7v11.32H48z"/>
	<path class="st0" d="M62,206.79c-0.42-0.17-1.02-0.3-1.47-0.3c-1.35,0-2.05,0.8-2.05,2.42v1.07h3.25l-0.72,3h-2.52v8.32h-3.55
		v-8.32H53.2v-3h1.72v-1.32c0-3.45,2.22-5.15,5.07-5.15c1.05,0,2.1,0.12,2.67,0.37L62,206.79z"/>
	<path class="st0" d="M73.08,215.01l-1.62,1.65H65.9c0.17,0.92,1.42,1.97,3.35,1.97c1.17,0,2.37-0.35,3.12-0.85l-0.35,3.15
		c-0.85,0.45-2.15,0.75-3.6,0.75c-3.45,0-6.22-2.4-6.22-6.1c0-3.65,2.65-5.97,5.9-5.97c3.15,0,5.07,2.17,5.07,4.52
		C73.18,214.41,73.13,214.79,73.08,215.01z M68.1,212.37c-1.07,0-1.97,0.82-2.2,1.85h3.82c0-0.08,0.02-0.15,0.02-0.25
		C69.75,213.19,69.08,212.37,68.1,212.37z"/>
	<path class="st0" d="M82.65,212.99H79.7v4.2c0,0.97,0.52,1.37,1.5,1.37c0.42,0,0.67-0.02,0.95-0.15l-0.33,2.77
		c-0.35,0.17-0.97,0.3-1.7,0.3c-2.55,0-4.07-1.35-4.07-3.6v-4.9h-1.9v-3h1.9v-2.42l3.65-1.32v3.75h3.65L82.65,212.99z"/>
	<path class="st0" d="M86.53,208.44c-0.65,0-1.97-1.32-1.97-1.97c0-0.65,1.33-1.95,1.97-1.95s1.97,1.3,1.97,1.95
		C88.5,207.12,87.18,208.44,86.53,208.44z M84.68,221.31v-11.32h3.7v11.32H84.68z"/>
	<path class="st0" d="M104.72,221.31v-6.95c0-0.82-0.4-1.55-1.6-1.55c-1.17,0-1.7,0.7-1.7,1.6v6.9h-3.67v-6.95
		c0-0.82-0.4-1.55-1.6-1.55c-1.17,0-1.7,0.7-1.7,1.6v6.9h-3.67v-11.32h3.4v1.52h0.02c0.45-1.2,1.58-1.88,3.35-1.88
		c1.62,0,2.85,0.65,3.35,1.85c0.47-1.1,1.8-1.85,3.5-1.85c2.57,0,4,1.4,4,3.8v7.87H104.72z"/>
	<path class="st0" d="M121.1,215.01l-1.62,1.65h-5.55c0.17,0.92,1.42,1.97,3.35,1.97c1.17,0,2.37-0.35,3.12-0.85l-0.35,3.15
		c-0.85,0.45-2.15,0.75-3.6,0.75c-3.45,0-6.22-2.4-6.22-6.1c0-3.65,2.65-5.97,5.9-5.97c3.15,0,5.07,2.17,5.07,4.52
		C121.2,214.41,121.15,214.79,121.1,215.01z M116.13,212.37c-1.08,0-1.97,0.82-2.2,1.85h3.82c0-0.08,0.03-0.15,0.03-0.25
		C117.78,213.19,117.1,212.37,116.13,212.37z"/>
</g>
<g>
	<path class="st0" d="M31.5,234.44c-0.65,0-1.97-1.32-1.97-1.97c0-0.65,1.32-1.95,1.97-1.95s1.97,1.3,1.97,1.95
		C33.48,233.12,32.15,234.44,31.5,234.44z M29.65,247.31v-11.32h3.7v11.32H29.65z"/>
	<path class="st0" d="M42.88,247.31v-6.95c0-0.82-0.55-1.55-1.67-1.55c-1.1,0-1.8,0.7-1.8,1.6v6.9h-3.67v-11.32h3.37v1.52h0.02
		c0.45-1.2,1.62-1.88,3.45-1.88c2.47,0,3.97,1.4,3.97,3.8v7.87H42.88z"/>
	<path class="st0" d="M57.43,239.64c-0.75-0.47-1.52-0.72-2.42-0.72c-1.6,0-2.87,1.15-2.87,2.8c0,1.62,1.27,2.8,2.95,2.8
		c0.95,0,1.67-0.2,2.47-0.62l-0.32,3.12c-0.75,0.35-1.72,0.55-2.77,0.55c-3.17,0-6.12-2.25-6.12-5.9c0-3.7,2.97-5.92,6.05-5.92
		c1.5,0,2.72,0.3,3.72,0.85L57.43,239.64z"/>
	<path class="st0" d="M65.35,247.66c-3.42,0-6.17-2.42-6.17-6.02s2.75-6.02,6.17-6.02c3.4,0,6.17,2.42,6.17,6.02
		S68.75,247.66,65.35,247.66z M65.35,238.81c-1.37,0-2.55,1.2-2.55,2.87c0,1.67,1.17,2.87,2.55,2.87c1.35,0,2.55-1.2,2.55-2.87
		C67.9,240.01,66.7,238.81,65.35,238.81z"/>
	<path class="st0" d="M87.3,247.31v-6.95c0-0.82-0.4-1.55-1.6-1.55c-1.17,0-1.7,0.7-1.7,1.6v6.9h-3.67v-6.95
		c0-0.82-0.4-1.55-1.6-1.55c-1.17,0-1.7,0.7-1.7,1.6v6.9h-3.67v-11.32h3.4v1.52h0.02c0.45-1.2,1.57-1.88,3.35-1.88
		c1.62,0,2.85,0.65,3.35,1.85c0.47-1.1,1.8-1.85,3.5-1.85c2.57,0,4,1.4,4,3.8v7.87H87.3z"/>
	<path class="st0" d="M103.68,241.01l-1.62,1.65H96.5c0.17,0.92,1.42,1.97,3.35,1.97c1.17,0,2.37-0.35,3.12-0.85l-0.35,3.15
		c-0.85,0.45-2.15,0.75-3.6,0.75c-3.45,0-6.22-2.4-6.22-6.1c0-3.65,2.65-5.97,5.9-5.97c3.15,0,5.07,2.17,5.07,4.52
		C103.78,240.41,103.73,240.79,103.68,241.01z M98.7,238.37c-1.08,0-1.97,0.82-2.2,1.85h3.82c0-0.08,0.03-0.15,0.03-0.25
		C100.35,239.19,99.68,238.37,98.7,238.37z"/>
	<path class="st0" d="M114.85,247.56c-1.55,0-2.67-0.33-3.6-0.8l-0.33-3.25c1,0.7,2.3,1.23,3.55,1.23c0.67,0,1.1-0.35,1.1-0.77
		c0-0.48-0.38-0.67-1.02-0.88c-2.17-0.62-3.47-1.72-3.47-3.7c0-2.22,1.8-3.65,4.25-3.65c1.4,0,2.77,0.38,3.35,0.67l-0.62,2.7
		c-0.55-0.3-1.45-0.62-2.35-0.62c-0.6,0-1,0.27-1,0.72c0,0.42,0.3,0.65,1,0.82c2.55,0.68,3.6,1.95,3.6,3.85
		C119.3,245.81,117.9,247.56,114.85,247.56z"/>
	<path class="st0" d="M126.68,247.66c-3.42,0-6.17-2.42-6.17-6.02s2.75-6.02,6.17-6.02c3.4,0,6.17,2.42,6.17,6.02
		S130.08,247.66,126.68,247.66z M126.68,238.81c-1.38,0-2.55,1.2-2.55,2.87c0,1.67,1.17,2.87,2.55,2.87c1.35,0,2.55-1.2,2.55-2.87
		C129.23,240.01,128.03,238.81,126.68,238.81z"/>
</g>
</svg>
