<?xml version="1.0" encoding="utf-8"?>
<!-- Generator: Adobe Illustrator 24.0.0, SVG Export Plug-In . SVG Version: 6.00 Build 0)  -->
<svg version="1.1" id="Layer_1" xmlns="http://www.w3.org/2000/svg" xmlns:xlink="http://www.w3.org/1999/xlink" x="0px" y="0px"
	 viewBox="0 0 160 600" style="enable-background:new 0 0 160 600;" xml:space="preserve">
<style type="text/css">
	.st0{fill:#F8DF1F;}
</style>
<g>
	<path class="st0" d="M38.2,272.19c-1.72,4.55-3.52,6.2-5.65,7.02l-2.25-2.25c1.82-0.7,3.22-2.02,4.15-4.42l-4.07-10.55h3.55
		l1.65,4.4c0.25,0.65,0.5,1.42,0.67,2.22h0.05c0.23-0.77,0.48-1.57,0.73-2.22l1.65-4.4h3.37L38.2,272.19z"/>
	<path class="st0" d="M48.53,273.66c-3.42,0-6.17-2.42-6.17-6.02s2.75-6.02,6.17-6.02c3.4,0,6.17,2.42,6.17,6.02
		S51.93,273.66,48.53,273.66z M48.53,264.81c-1.37,0-2.55,1.2-2.55,2.87c0,1.67,1.17,2.87,2.55,2.87c1.35,0,2.55-1.2,2.55-2.87
		C51.08,266.01,49.88,264.81,48.53,264.81z"/>
	<path class="st0" d="M63.95,273.31v-1.55h-0.02c-0.45,1.2-1.65,1.87-3.47,1.87c-2.47,0-3.97-1.37-3.97-3.77v-7.87h3.67v6.95
		c0,0.82,0.57,1.55,1.7,1.55c1.1,0,1.77-0.73,1.77-1.62v-6.87h3.67v11.32H63.95z"/>
	<path class="st0" d="M82.3,273.31v-6.95c0-0.82-0.55-1.55-1.67-1.55c-1.1,0-1.8,0.7-1.8,1.6v6.9h-3.67v-11.32h3.37v1.52h0.02
		c0.45-1.2,1.62-1.88,3.45-1.88c2.47,0,3.97,1.4,3.97,3.8v7.87H82.3z"/>
	<path class="st0" d="M98.65,267.01l-1.62,1.65h-5.55c0.17,0.92,1.42,1.97,3.35,1.97c1.17,0,2.37-0.35,3.12-0.85l-0.35,3.15
		c-0.85,0.45-2.15,0.75-3.6,0.75c-3.45,0-6.22-2.4-6.22-6.1c0-3.65,2.65-5.97,5.9-5.97c3.15,0,5.07,2.17,5.07,4.52
		C98.75,266.41,98.7,266.79,98.65,267.01z M93.68,264.37c-1.08,0-1.97,0.82-2.2,1.85h3.82c0-0.08,0.03-0.15,0.03-0.25
		C95.33,265.19,94.65,264.37,93.68,264.37z"/>
	<path class="st0" d="M106.35,273.41h-2.75l-4.35-11.42h3.55l1.6,4.32c0.23,0.6,0.45,1.45,0.62,2.2h0.05
		c0.17-0.72,0.42-1.6,0.65-2.2l1.6-4.32h3.4L106.35,273.41z"/>
	<path class="st0" d="M121.9,267.01l-1.62,1.65h-5.55c0.17,0.92,1.42,1.97,3.35,1.97c1.17,0,2.37-0.35,3.12-0.85l-0.35,3.15
		c-0.85,0.45-2.15,0.75-3.6,0.75c-3.45,0-6.22-2.4-6.22-6.1c0-3.65,2.65-5.97,5.9-5.97c3.15,0,5.07,2.17,5.07,4.52
		C122,266.41,121.95,266.79,121.9,267.01z M116.93,264.37c-1.08,0-1.97,0.82-2.2,1.85h3.82c0-0.08,0.03-0.15,0.03-0.25
		C118.58,265.19,117.9,264.37,116.93,264.37z"/>
	<path class="st0" d="M130.83,265.89c-0.22-0.12-0.72-0.27-1.1-0.27c-1.17,0-2.25,0.62-2.25,2.42v5.27h-3.67v-11.32h3.62v2.52h0.03
		c0.38-1.77,1.7-2.72,3.22-2.72c0.35,0,0.78,0.05,1.05,0.15L130.83,265.89z"/>
</g>
<g>
	<path class="st0" d="M47.7,291.89c-0.23-0.12-0.73-0.27-1.1-0.27c-1.17,0-2.25,0.62-2.25,2.42v5.27h-3.67v-11.32h3.62v2.52h0.03
		c0.37-1.77,1.7-2.72,3.22-2.72c0.35,0,0.77,0.05,1.05,0.15L47.7,291.89z"/>
	<path class="st0" d="M57.28,299.31v-1.55h-0.02c-0.45,1.2-1.65,1.87-3.47,1.87c-2.47,0-3.97-1.37-3.97-3.77v-7.87h3.67v6.95
		c0,0.82,0.57,1.55,1.7,1.55c1.1,0,1.77-0.73,1.77-1.62v-6.87h3.67v11.32H57.28z"/>
	<path class="st0" d="M70.13,299.31v-6.95c0-0.82-0.55-1.55-1.67-1.55c-1.1,0-1.8,0.7-1.8,1.6v6.9h-3.67v-11.32h3.37v1.52h0.02
		c0.45-1.2,1.62-1.88,3.45-1.88c2.47,0,3.97,1.4,3.97,3.8v7.87H70.13z"/>
	<path class="st0" d="M87.4,299.66c-3.42,0-6.17-2.42-6.17-6.02s2.75-6.02,6.17-6.02c3.4,0,6.17,2.42,6.17,6.02
		S90.8,299.66,87.4,299.66z M87.4,290.81c-1.38,0-2.55,1.2-2.55,2.87c0,1.67,1.17,2.87,2.55,2.87c1.35,0,2.55-1.2,2.55-2.87
		C89.95,292.01,88.75,290.81,87.4,290.81z"/>
	<path class="st0" d="M102.83,299.31v-1.55h-0.03c-0.45,1.2-1.65,1.87-3.47,1.87c-2.47,0-3.97-1.37-3.97-3.77v-7.87h3.67v6.95
		c0,0.82,0.58,1.55,1.7,1.55c1.1,0,1.77-0.73,1.77-1.62v-6.87h3.67v11.32H102.83z"/>
	<path class="st0" d="M116.13,290.99h-2.95v4.2c0,0.97,0.52,1.37,1.5,1.37c0.42,0,0.67-0.02,0.95-0.15l-0.33,2.77
		c-0.35,0.17-0.97,0.3-1.7,0.3c-2.55,0-4.07-1.35-4.07-3.6v-4.9h-1.9v-3h1.9v-2.42l3.65-1.32v3.75h3.65L116.13,290.99z"/>
	<path class="st0" d="M119.63,299.66c-0.67,0-2.07-1.4-2.07-2.07c0-0.65,1.4-2.05,2.07-2.05s2.07,1.4,2.07,2.05
		C121.7,298.26,120.3,299.66,119.63,299.66z"/>
</g>
</svg>
