<?xml version="1.0" encoding="utf-8"?>
<!-- Generator: Adobe Illustrator 24.0.0, SVG Export Plug-In . SVG Version: 6.00 Build 0)  -->
<svg version="1.1" id="Layer_1" xmlns="http://www.w3.org/2000/svg" xmlns:xlink="http://www.w3.org/1999/xlink" x="0px" y="0px"
	 viewBox="0 0 160 600" style="enable-background:new 0 0 160 600;" xml:space="preserve">
<style type="text/css">
	.st0{fill:#28BDEF;}
</style>
<path class="st0" d="M31.97,438.19c-5.6,0-10.15,4.54-10.15,10.14v9.97c0,5.6,4.54,10.14,10.15,10.14h97.95
	c5.6,0,10.15-4.54,10.15-10.14v-9.97c0-5.6-4.54-10.14-10.15-10.14H31.97z"/>
<g>
	<path d="M54.89,448.3c1.24,0,2.3,0.08,3.23,0.96c0.92,0.87,1.32,2.06,1.32,3.29c0,1.15-0.35,2.26-1.11,3.12
		c-0.85,0.94-1.9,1.19-3.11,1.19h-2.82v-8.56H54.89z M54.4,455.26h0.67c0.84,0,1.37-0.16,1.83-0.91c0.34-0.55,0.47-1.21,0.47-1.85
		c0-0.67-0.2-1.4-0.61-1.94c-0.46-0.6-0.97-0.69-1.69-0.69H54.4V455.26z"/>
	<path d="M62.71,456.87h-2v-8.56h2V456.87z"/>
	<path d="M68.75,450.75c-0.25-0.72-0.71-1.01-1.47-1.01c-0.54,0-1.19,0.14-1.19,0.8c0,0.62,0.75,0.77,1.24,0.86
		c0.7,0.15,1.64,0.32,2.23,0.72c0.7,0.46,1.12,1.17,1.12,2.02c0,0.84-0.4,1.63-1.06,2.15c-0.69,0.54-1.62,0.7-2.48,0.7
		c-1.61,0-3.07-0.7-3.46-2.37l1.85-0.42c0.25,0.9,0.9,1.21,1.78,1.21c0.57,0,1.34-0.21,1.34-0.92c0-0.71-0.97-0.85-1.5-0.96
		c-1.52-0.31-3.02-0.76-3.02-2.63c0-0.8,0.31-1.5,0.92-2.01c0.62-0.52,1.36-0.7,2.15-0.7c1.5,0,2.72,0.52,3.25,2.01L68.75,450.75z"
		/>
	<path d="M76.74,451.62c-0.01-0.95-0.34-1.83-1.44-1.83c-1.41,0-1.55,1.85-1.55,2.88c0,1.17,0.14,2.68,1.65,2.68
		c0.94,0,1.37-0.79,1.49-1.61l1.95,0.12c-0.21,1.96-1.56,3.12-3.53,3.12c-2.55,0-3.78-2.07-3.78-4.41c0-2.37,1.27-4.41,3.84-4.41
		c2.15,0,3.25,1.25,3.47,3.31L76.74,451.62z"/>
	<path d="M80.69,455.64c-0.62-0.89-0.9-2-0.9-3.07c0-2.27,1.14-4.39,3.67-4.39c1.14,0,2.03,0.38,2.72,1.31
		c0.61,0.84,0.92,2.05,0.92,3.08c0,0.97-0.26,2.16-0.81,2.97c-0.66,0.97-1.67,1.45-2.83,1.45S81.36,456.59,80.69,455.64z
		 M82.16,450.79c-0.2,0.51-0.27,1.25-0.27,1.78c0,1.07,0.16,2.78,1.57,2.78c0.69,0,1.06-0.34,1.29-0.97c0.2-0.52,0.26-1.24,0.26-1.8
		c0-0.62-0.06-1.36-0.31-1.93c-0.25-0.57-0.61-0.84-1.24-0.84C82.77,449.81,82.4,450.16,82.16,450.79z"/>
	<path d="M92.2,456.87h-2.16l-2.57-8.56h2.13l1.72,6.12l1.77-6.12h1.68L92.2,456.87z"/>
	<path d="M97.64,449.96v1.74h3.25v1.61h-3.25v1.9h4.12v1.66h-6.12v-8.56h6.12v1.66H97.64z"/>
	<path d="M104.92,456.87h-2v-8.56h3.61c0.76,0,1.54,0.01,2.2,0.44c0.7,0.46,1.09,1.3,1.09,2.13c0,0.97-0.56,1.87-1.49,2.21
		l1.58,3.78h-2.22l-1.31-3.38h-1.46V456.87z M104.92,452.01h1.1c0.41,0,0.86,0.04,1.22-0.17c0.32-0.2,0.5-0.6,0.5-0.97
		c0-0.34-0.2-0.7-0.49-0.87c-0.34-0.21-0.91-0.16-1.29-0.16h-1.05V452.01z"/>
</g>
</svg>
