<?xml version="1.0" encoding="utf-8"?>
<!-- Generator: Adobe Illustrator 24.0.0, SVG Export Plug-In . SVG Version: 6.00 Build 0)  -->
<svg version="1.1" id="Layer_1" xmlns="http://www.w3.org/2000/svg" xmlns:xlink="http://www.w3.org/1999/xlink" x="0px" y="0px"
	 viewBox="0 0 160 600" style="enable-background:new 0 0 160 600;" xml:space="preserve">
<style type="text/css">
	.st0{fill:#FFFFFF;}
	.st1{fill:#000001;}
</style>
<path class="st0" d="M97.4,448.41h-2.72c-1.38,0-2.5,1.42-2.5,2.69v-4.23c0-1.27-1.12-2.69-2.5-2.69h-2.72
	c-1.38,0-2.5,1.42-2.5,2.69v-2.69c0-1.27-1.12-2.69-2.5-2.69h-2.72c-1.38,0-2.5,1.42-2.5,2.69v-10.44c0-1.96-1.73-3.54-3.86-3.54
	c-2.13,0-3.86,1.59-3.86,3.54v20.6c-2.4-1.65-5.89-4.62-9.09-3.23c-2.29,1-1.76,4.06,0.51,6.34c3.98,3.98,8.19,11.89,9.74,16.44
	c2.45,7.17,3.83,10.32,3.83,10.32h20.63c0,0,2.29-7.37,4.45-11.84c0.26-0.53,0.81-1.56,0.81-5.15v-7.26v-8.86
	C99.9,449.83,98.78,448.41,97.4,448.41"/>
<path class="st1" d="M74.93,482.82h18.7c0.7-2.17,2.48-7.47,4.22-11.06c0.23-0.48,0.67-1.38,0.67-4.55V451.1
	c0-0.56-0.56-1.31-1.12-1.31h-2.72c-0.57,0-1.12,0.75-1.12,1.31c0,0.76-0.62,1.38-1.38,1.38c-0.76,0-1.38-0.62-1.38-1.38v-4.23
	c0-0.56-0.55-1.31-1.12-1.31h-2.72c-0.57,0-1.12,0.75-1.12,1.31c0,0.76-0.62,1.38-1.38,1.38c-0.76,0-1.38-0.62-1.38-1.38v-2.69
	c0-0.56-0.56-1.31-1.12-1.31h-2.72c-0.57,0-1.12,0.75-1.12,1.31c0,0.76-0.62,1.38-1.38,1.38c-0.76,0-1.38-0.62-1.38-1.38v-10.44
	c0-1.19-1.11-2.16-2.48-2.16c-1.37,0-2.48,0.97-2.48,2.16v20.6c0,0.51-0.28,0.98-0.74,1.22c-0.45,0.24-1,0.21-1.42-0.08
	c-0.28-0.2-0.58-0.41-0.89-0.63c-1.7-1.21-3.81-2.72-5.66-2.72c-0.43,0-0.82,0.08-1.21,0.25c-0.37,0.16-0.56,0.39-0.62,0.74
	c-0.14,0.75,0.29,2.09,1.56,3.36c4.01,4.01,8.35,11.93,10.07,16.97C73.18,478.42,74.38,481.47,74.93,482.82 M94.64,485.58H74.01
	c-0.55,0-1.04-0.32-1.26-0.82c-0.06-0.13-1.44-3.29-3.88-10.43c-1.41-4.14-5.47-11.97-9.41-15.91c-1.78-1.78-2.67-4.01-2.32-5.83
	c0.24-1.25,1.03-2.23,2.23-2.75c0.73-0.32,1.5-0.48,2.31-0.48c2.17,0,4.21,1.13,5.96,2.32v-17.94c0-2.71,2.35-4.92,5.24-4.92
	c2.89,0,5.24,2.21,5.24,4.92v6.57c0.35-0.12,0.73-0.19,1.12-0.19h2.72c1.79,0,3.22,1.4,3.7,2.95c0.4-0.16,0.84-0.26,1.3-0.26h2.72
	c2.22,0,3.88,2.15,3.88,4.07v0.35c0.35-0.12,0.73-0.19,1.12-0.19h2.72c2.22,0,3.88,2.15,3.88,4.07v16.12c0,3.8-0.6,5.04-0.93,5.7
	c-2.11,4.37-4.37,11.62-4.4,11.69C95.77,485.19,95.24,485.58,94.64,485.58"/>
<path class="st1" d="M76.73,452.03c-0.76,0-1.38-0.62-1.38-1.38v-6.47c0-0.76,0.62-1.38,1.38-1.38c0.76,0,1.38,0.62,1.38,1.38v6.47
	C78.11,451.41,77.49,452.03,76.73,452.03"/>
<path class="st1" d="M84.45,454.72c-0.76,0-1.38-0.62-1.38-1.38v-6.47c0-0.76,0.62-1.38,1.38-1.38c0.76,0,1.38,0.62,1.38,1.38v6.47
	C85.83,454.1,85.22,454.72,84.45,454.72"/>
<path class="st1" d="M92.18,458.94c-0.76,0-1.38-0.62-1.38-1.38v-6.47c0-0.76,0.62-1.38,1.38-1.38c0.76,0,1.38,0.62,1.38,1.38v6.47
	C93.55,458.33,92.94,458.94,92.18,458.94"/>
</svg>
