<svg xmlns="http://www.w3.org/2000/svg" width="728" height="90" viewBox="0 0 728 90"><g fill="#231F20"><path d="M695.989 86.44c-.927 0-1.734-.647-1.734-1.847 0-1.359.999-2.814 2.366-3.519l.72.336c-.959.479-1.711 1.159-2.087 2.047.192-.191.448-.328.792-.328.976 0 1.639.729 1.639 1.647 0 .961-.72 1.664-1.696 1.664zm.009-2.638c-.4 0-.848.152-.992.712-.008.088-.008.176-.008.264 0 .576.479 1.056 1.008 1.056.527 0 .943-.408.943-1.016 0-.577-.391-1.016-.951-1.016zM700.142 86.448c-.928 0-1.743-.848-1.743-2.654 0-1.791.815-2.646 1.743-2.646.911 0 1.743.855 1.743 2.646 0 1.807-.832 2.654-1.743 2.654zm0-4.653c-.52 0-1.008.56-1.008 1.999 0 1.455.488 2.007 1.008 2.007.512 0 1.008-.552 1.008-2.007-.001-1.44-.497-1.999-1.008-1.999zM703.862 86.44c-.392 0-.76-.088-.968-.2l-.08-.72c.32.192.656.28 1.008.28.592 0 1.095-.376 1.095-1.016 0-.655-.503-1.047-1.071-1.047-.375 0-.64.048-.879.136l.08-2.623h2.23l-.136.624h-1.399l-.032 1.239c.064-.008.145-.016.208-.016.951 0 1.735.64 1.735 1.694 0 .882-.616 1.649-1.791 1.649zM707.262 86.513l-.72-.336c.976-.488 1.735-1.151 2.104-2.047a1.11 1.11 0 0 1-.808.328c-.976 0-1.64-.729-1.64-1.647 0-.96.72-1.663 1.695-1.663.928 0 1.735.647 1.735 1.847.001 1.359-.999 2.814-2.366 3.518zm.616-4.71c-.528 0-.943.408-.943 1.016 0 .576.392 1.016.951 1.016.407 0 .848-.168.991-.728.008-.08.008-.16.008-.248 0-.576-.48-1.056-1.007-1.056zM712.134 86.44c-.928 0-1.735-.647-1.735-1.847 0-1.359 1-2.814 2.367-3.519l.72.336c-.96.479-1.712 1.159-2.087 2.047a1.08 1.08 0 0 1 .791-.328c.976 0 1.64.729 1.64 1.647-.001.961-.721 1.664-1.696 1.664zm.008-2.638c-.399 0-.848.152-.991.712-.008.088-.008.176-.008.264 0 .576.479 1.056 1.007 1.056.528 0 .943-.408.943-1.016 0-.577-.392-1.016-.951-1.016zM715.47 86.353h-.783l1.935-4.478h-2.343v-.624h3.382l-2.191 5.102zM720.94 86.44c-.247-.056-.52-.264-.575-.567-.168.424-.552.567-.968.567-.72 0-1.167-.527-1.167-1.111 0-.703.575-1.104 1.191-1.159l.848-.08v-.231c0-.328-.192-.592-.704-.592-.359 0-.735.111-.999.287l-.145-.6c.328-.216.744-.312 1.184-.312.808 0 1.392.456 1.392 1.312v1.463c0 .328.176.52.407.56l-.464.463zm-.67-1.751l-.696.063c-.464.04-.647.32-.647.584 0 .256.208.488.536.488a.797.797 0 0 0 .808-.816v-.319z"/></g></svg>