<svg id="Layer_1" xmlns="http://www.w3.org/2000/svg" viewBox="0 0 728 90"><style>.st0{fill:#231f20}.st1{font-family:&apos;Agenda-Bold&apos;}.st2{font-size:26px}</style><path class="st0" d="M31.1 38.4l-1.4-3.7h-5.3L23 38.4h-3.8l6.5-16.7h2.8L35 38.4h-3.9zm-3.5-10c-.2-.4-.4-1-.5-1.5H27c-.1.5-.3 1.1-.5 1.5l-1.1 3.1h3.2l-1-3.1zm16.2 2.3c-.2-.1-.8-.3-1.1-.3-1.2 0-2.3.6-2.3 2.5v5.5h-3.8V26.6h3.8v2.6c.4-1.8 1.8-2.8 3.4-2.8.4 0 .8.1 1.1.2l-1.1 4.1zm12.7 1.1l-1.7 1.7H49c.2 1 1.5 2.1 3.5 2.1 1.2 0 2.5-.4 3.2-.9l-.3 3.3c-.9.5-2.2.8-3.7.8-3.6 0-6.5-2.5-6.5-6.3s2.8-6.2 6.1-6.2 5.3 2.3 5.3 4.7c0 .2 0 .6-.1.8zm-5.2-2.7c-1.1 0-2.1.9-2.3 1.9h4v-.3c.1-.8-.6-1.6-1.7-1.6zm27.5 9.3v-7.2c0-.9-.4-1.6-1.7-1.6-1.2 0-1.8.7-1.8 1.7v7.2h-3.8v-7.2c0-.9-.4-1.6-1.7-1.6-1.2 0-1.8.7-1.8 1.7v7.2h-3.8v-12h3.5v1.6c.5-1.2 1.6-2 3.5-2 1.7 0 3 .7 3.5 1.9.5-1.1 1.9-1.9 3.6-1.9 2.7 0 4.2 1.5 4.2 4v8.2h-3.7zm14 0v-1.6c-.5 1.2-1.7 1.9-3.6 1.9-2.6 0-4.1-1.4-4.1-3.9v-8.2h3.8v7.2c0 .9.6 1.6 1.8 1.6 1.1 0 1.8-.8 1.8-1.7v-7.1h3.8v11.8h-3.5zm10 .5c-2.4-.1-4-1.4-4-4.2V19.9h3.8v14.3c0 1 .5 1.5 1.6 1.6l-1.4 3.1zm10.4-9.2h-3.1v4.4c0 1 .5 1.4 1.6 1.4.4 0 .7 0 1-.2l-.3 2.9c-.4.2-1 .3-1.8.3-2.7 0-4.2-1.4-4.2-3.7v-5.1h-2v-3.1h2v-2.5l3.8-1.4v3.9h3.8l-.8 3.1zm4.1-4.7c-.7 0-2.1-1.4-2.1-2.1 0-.7 1.4-2 2.1-2 .7 0 2.1 1.4 2.1 2-.1.7-1.4 2.1-2.1 2.1zm-1.9 13.4V26.6h3.8v11.8h-3.8zm13 .3c-1.2 0-2.5-.4-3-.8v6.4h-3.7V26.6h3.4v1.5c.7-1.2 2-1.8 3.6-1.8 2.9 0 5.7 2.2 5.7 6.2 0 3.8-2.7 6.2-6 6.2zm-.7-9.1c-1.1 0-1.9.6-2.3 1.2v3.7c.4.5 1.1 1 2.3 1 1.7 0 2.8-1.3 2.8-3 0-1.6-1.1-2.9-2.8-2.9zm12.6 9.3c-2.4-.1-4-1.4-4-4.2V19.9h3.8v14.3c0 1 .5 1.5 1.6 1.6l-1.4 3.1zm13.5-7.1l-1.7 1.7h-5.8c.2 1 1.5 2.1 3.5 2.1 1.2 0 2.5-.4 3.2-.9l-.4 3.3c-.9.5-2.2.8-3.7.8-3.6 0-6.5-2.5-6.5-6.3s2.8-6.2 6.1-6.2 5.3 2.3 5.3 4.7c.1.2 0 .6 0 .8zm-5.2-2.7c-1.1 0-2.1.9-2.3 1.9h4v-.3c0-.8-.7-1.6-1.7-1.6zm20.3 1.6c-.2-.1-.8-.3-1.1-.3-1.2 0-2.3.6-2.3 2.5v5.5h-3.8V26.6h3.8v2.6c.4-1.8 1.8-2.8 3.4-2.8.4 0 .8.1 1.1.2l-1.1 4.1zm12.7 1.1l-1.7 1.7h-5.8c.2 1 1.5 2.1 3.5 2.1 1.2 0 2.5-.4 3.2-.9l-.4 3.3c-.9.5-2.2.8-3.7.8-3.6 0-6.5-2.5-6.5-6.3s2.8-6.2 6.1-6.2 5.3 2.3 5.3 4.7c.1.2.1.6 0 .8zm-5.2-2.7c-1.1 0-2.1.9-2.3 1.9h4v-.3c0-.8-.7-1.6-1.7-1.6zm15.1.6h-3.1v4.4c0 1 .5 1.4 1.6 1.4.4 0 .7 0 1-.2l-.3 2.9c-.4.2-1 .3-1.8.3-2.7 0-4.2-1.4-4.2-3.7v-5.1h-2v-3.1h2v-2.5l3.8-1.4v3.9h3.8l-.8 3.1zm4.1-4.7c-.7 0-2.1-1.4-2.1-2.1 0-.7 1.4-2 2.1-2 .7 0 2.1 1.4 2.1 2-.1.7-1.5 2.1-2.1 2.1zm-2 13.4V26.6h3.8v11.8h-3.8zm13.7-7.7c-.2-.1-.8-.3-1.1-.3-1.2 0-2.3.6-2.3 2.5v5.5H200V26.6h3.8v2.6c.4-1.8 1.8-2.8 3.4-2.8.4 0 .8.1 1.1.2l-1 4.1zm12.7 1.1l-1.7 1.7h-5.8c.2 1 1.5 2.1 3.5 2.1 1.2 0 2.5-.4 3.2-.9l-.4 3.3c-.9.5-2.2.8-3.7.8-3.6 0-6.5-2.5-6.5-6.3s2.8-6.2 6.1-6.2 5.3 2.3 5.3 4.7c.1.2.1.6 0 .8zm-5.2-2.7c-1.1 0-2.1.9-2.3 1.9h4v-.3c0-.8-.7-1.6-1.7-1.6zm21.7 9.3v-7.2c0-.9-.4-1.6-1.7-1.6-1.2 0-1.8.7-1.8 1.7v7.2h-3.8v-7.2c0-.9-.4-1.6-1.7-1.6-1.2 0-1.8.7-1.8 1.7v7.2H222v-12h3.5v1.6c.5-1.2 1.6-2 3.5-2 1.7 0 3 .7 3.5 1.9.5-1.1 1.9-1.9 3.6-1.9 2.7 0 4.2 1.5 4.2 4v8.2h-3.8zm17-6.6l-1.7 1.7H246c.2 1 1.5 2.1 3.5 2.1 1.2 0 2.5-.4 3.2-.9l-.4 3.3c-.9.5-2.2.8-3.7.8-3.6 0-6.5-2.5-6.5-6.3s2.8-6.2 6.1-6.2 5.3 2.3 5.3 4.7c.1.2 0 .6 0 .8zm-5.2-2.7c-1.1 0-2.1.9-2.3 1.9h4v-.3c0-.8-.7-1.6-1.7-1.6zm14.6 9.3v-7.2c0-.9-.6-1.6-1.7-1.6s-1.9.7-1.9 1.7v7.2h-3.8V26.6h3.5v1.6c.5-1.2 1.7-2 3.6-2 2.6 0 4.1 1.5 4.1 4v8.2h-3.8zm13.9-8.7h-3.1v4.4c0 1 .5 1.4 1.6 1.4.4 0 .7 0 1-.2l-.3 2.9c-.4.2-1 .3-1.8.3-2.7 0-4.2-1.4-4.2-3.7v-5.1h-2v-3.1h2v-2.5l3.8-1.4v3.9h3.8l-.8 3.1zm16.3 9.2c-.7-.2-1.5-.7-1.8-1.6-.5 1-1.6 1.4-3.1 1.4-2.1 0-3.9-1.5-3.9-3.9 0-2.2 1.7-3.6 4-3.8l2.3-.2v-.4c0-.7-.6-1.2-1.8-1.2-1.1 0-2.4.4-3.3.9l-.7-2.9c1-.6 2.6-1 4.1-1 3.1 0 5.3 1.4 5.3 4.3v3.8c0 1.4.5 2.1 1.4 2.4l-2.5 2.2zm-2.5-5.7l-1.4.1c-1 .1-1.4.8-1.4 1.5 0 .6.5 1.1 1.2 1.1.9 0 1.7-.7 1.7-1.7v-1zm15.1-2.8c-.8-.5-1.6-.8-2.5-.8-1.7 0-3 1.2-3 2.9s1.3 2.9 3.1 2.9c1 0 1.7-.2 2.6-.6l-.3 3.2c-.8.4-1.8.6-2.9.6-3.3 0-6.4-2.3-6.4-6.1s3.1-6.2 6.3-6.2c1.6 0 2.8.3 3.9.9l-.8 3.2zm11.3 0c-.8-.5-1.6-.8-2.5-.8-1.7 0-3 1.2-3 2.9s1.3 2.9 3.1 2.9c1 0 1.7-.2 2.6-.6l-.3 3.2c-.8.4-1.8.6-2.9.6-3.3 0-6.4-2.3-6.4-6.1s3.1-6.2 6.3-6.2c1.6 0 2.8.3 3.9.9l-.8 3.2zm8.2 8.4c-3.6 0-6.4-2.5-6.4-6.3s2.9-6.3 6.4-6.3c3.5 0 6.4 2.5 6.4 6.3s-2.8 6.3-6.4 6.3zm0-9.3c-1.4 0-2.7 1.2-2.7 3s1.2 3 2.7 3c1.4 0 2.7-1.2 2.7-3s-1.2-3-2.7-3zm16.1 8.9v-1.6c-.5 1.2-1.7 1.9-3.6 1.9-2.6 0-4.1-1.4-4.1-3.9v-8.2h3.8v7.2c0 .9.6 1.6 1.8 1.6 1.1 0 1.8-.8 1.8-1.7v-7.1h3.8v11.8h-3.5zm13.4 0v-7.2c0-.9-.6-1.6-1.7-1.6s-1.9.7-1.9 1.7v7.2h-3.8V26.6h3.5v1.6c.5-1.2 1.7-2 3.6-2 2.6 0 4.1 1.5 4.1 4v8.2h-3.8zm13.9-8.7h-3.1v4.4c0 1 .5 1.4 1.6 1.4.4 0 .7 0 1-.2l-.3 2.9c-.4.2-1 .3-1.8.3-2.7 0-4.2-1.4-4.2-3.7v-5.1h-2v-3.1h2v-2.5l3.8-1.4v3.9h3.8l-.8 3.1zm5.7 9c-1.6 0-2.8-.3-3.7-.8l-.3-3.4c1 .7 2.4 1.3 3.7 1.3.7 0 1.1-.4 1.1-.8 0-.5-.4-.7-1.1-.9-2.3-.7-3.6-1.8-3.6-3.8 0-2.3 1.9-3.8 4.4-3.8 1.5 0 2.9.4 3.5.7l-.7 2.8c-.6-.3-1.5-.6-2.4-.6-.6 0-1 .3-1 .8 0 .4.3.7 1 .9 2.7.7 3.7 2 3.7 4 0 1.7-1.4 3.6-4.6 3.6zM29.2 57.4c-.8-.5-1.6-.8-2.5-.8-1.7 0-3 1.2-3 2.9s1.3 2.9 3.1 2.9c1 0 1.7-.2 2.6-.7l-.4 3.4c-.8.4-1.8.6-2.9.6-3.3 0-6.4-2.3-6.4-6.1s3.1-6.2 6.3-6.2c1.6 0 2.8.3 3.9.9l-.7 3.1zm8.2 8.3c-3.6 0-6.4-2.5-6.4-6.3s2.9-6.3 6.4-6.3c3.5 0 6.4 2.5 6.4 6.3s-2.9 6.3-6.4 6.3zm0-9.2c-1.4 0-2.7 1.2-2.7 3s1.2 3 2.7 3c1.4 0 2.7-1.2 2.7-3s-1.3-3-2.7-3zm12 9.1c-1.6 0-2.8-.3-3.7-.8l-.3-3.4c1 .7 2.4 1.3 3.7 1.3.7 0 1.1-.4 1.1-.8 0-.5-.4-.7-1.1-.9-2.3-.6-3.6-1.8-3.6-3.8 0-2.3 1.9-3.8 4.4-3.8 1.5 0 2.9.4 3.5.7l-.6 2.8c-.6-.3-1.5-.7-2.4-.7-.6 0-1 .3-1 .8 0 .4.3.7 1 .9 2.7.7 3.7 2 3.7 4-.1 1.9-1.5 3.7-4.7 3.7zm14.2-8.9h-3.1v4.4c0 1 .5 1.4 1.6 1.4.4 0 .7 0 1-.2l-.3 2.9c-.4.2-1 .3-1.8.3-2.7 0-4.2-1.4-4.2-3.7v-5.1h-2v-3.1h2v-2.5l3.8-1.4v3.9h3.8l-.8 3.1zm4-4.7c-.7 0-2.1-1.4-2.1-2.1s1.4-2 2.1-2c.7 0 2.1 1.4 2.1 2S68.3 52 67.6 52zm-1.9 13.4V53.6h3.8v11.8h-3.8zm13.7 0v-7.2c0-.9-.6-1.6-1.7-1.6s-1.9.7-1.9 1.7v7.2H72V53.6h3.5v1.6c.5-1.2 1.7-2 3.6-2 2.6 0 4.1 1.5 4.1 4v8.2h-3.8zm11.2 6c-3.4 0-5.7-2-5.7-4.4 0-1.8 1.2-2.9 2.4-3.2l-1.5-1.5c.1-.8.8-1.4 1.4-1.7-.9-.5-1.7-1.7-1.7-3.1 0-2.5 1.8-4.2 4.9-4.2.7 0 1.2.1 1.7.2s1.1.2 1.7.2c.7 0 1.3-.2 1.8-.4l.7 2.9c-.4.2-.9.4-1.5.4.1.2.3.8.3 1.2 0 2-1.6 3.6-3.8 3.8-.5 0-.8.1-.8.4 0 .1.1.3.3.4l1.8.7c2.3.8 3.6 2 3.6 4.2.1 2.3-2.1 4.1-5.6 4.1zm.8-5.6l-1.4-.3c-.9 0-1.6.7-1.6 1.5s.7 1.5 2.1 1.5c1.4 0 2.1-.6 2.1-1.3 0-.6-.4-1.1-1.2-1.4zm-1-9.8c-.9 0-1.5.7-1.5 1.4 0 .8.6 1.4 1.5 1.4.8 0 1.5-.6 1.5-1.4 0-.8-.6-1.4-1.5-1.4zm27.9 9.4v-7.2c0-.9-.4-1.6-1.7-1.6-1.2 0-1.8.7-1.8 1.7v7.2H111v-7.2c0-.9-.4-1.6-1.7-1.6-1.2 0-1.8.7-1.8 1.7v7.2h-3.8v-12h3.5v1.6c.5-1.2 1.6-2 3.5-2 1.7 0 3 .7 3.5 1.9.5-1.1 1.9-1.9 3.6-1.9 2.7 0 4.2 1.5 4.2 4v8.2h-3.7zm12.1.3c-3.6 0-6.4-2.5-6.4-6.3s2.9-6.3 6.4-6.3c3.5 0 6.4 2.5 6.4 6.3s-2.9 6.3-6.4 6.3zm0-9.2c-1.4 0-2.7 1.2-2.7 3s1.2 3 2.7 3c1.4 0 2.7-1.2 2.7-3s-1.3-3-2.7-3zm15.6 1.2c-.2-.1-.8-.3-1.1-.3-1.2 0-2.3.7-2.3 2.5v5.5h-3.8V53.6h3.8v2.6c.4-1.8 1.8-2.8 3.4-2.8.4 0 .8.1 1.1.2l-1.1 4.1zm12.7 1.1l-1.7 1.7h-5.8c.2 1 1.5 2.1 3.5 2.1 1.2 0 2.5-.4 3.2-.9l-.4 3.3c-.9.5-2.2.8-3.7.8-3.6 0-6.5-2.5-6.5-6.3s2.8-6.2 6.1-6.2 5.3 2.3 5.3 4.7c.1.2 0 .6 0 .8zm-5.2-2.7c-1.1 0-2.1.9-2.3 1.9h4v-.3c0-.8-.7-1.6-1.7-1.6zm20.9.6h-3.1v4.4c0 1 .5 1.4 1.6 1.4.4 0 .7 0 1-.2l-.3 2.9c-.4.2-1 .3-1.8.3-2.7 0-4.2-1.4-4.2-3.7v-5.1h-2v-3.1h2v-2.5l3.8-1.4v3.9h3.8l-.8 3.1zm9.5 8.7v-7.2c0-.9-.6-1.6-1.8-1.6-1.1 0-1.8.7-1.8 1.7v7.2h-3.8V46.9h3.8v7.8c.6-.9 1.7-1.5 3.3-1.5 2.6 0 4.1 1.5 4.1 4v8.2h-3.8zm14.5.5c-.7-.2-1.5-.7-1.8-1.6-.5 1-1.6 1.4-3.1 1.4-2.1 0-3.9-1.5-3.9-3.9 0-2.2 1.7-3.6 4-3.8l2.3-.2v-.4c0-.7-.6-1.2-1.8-1.2-1.1 0-2.4.4-3.3.9l-.7-2.9c1-.6 2.6-1 4.1-1 3.1 0 5.3 1.4 5.3 4.3v3.8c0 1.4.5 2.1 1.4 2.4l-2.5 2.2zm-2.4-5.7l-1.4.1c-1 .1-1.4.8-1.4 1.5 0 .6.5 1.1 1.2 1.1.9 0 1.7-.7 1.7-1.7v-1zm13.8 5.2v-7.2c0-.9-.6-1.6-1.7-1.6s-1.9.7-1.9 1.7v7.2h-3.8V53.6h3.5v1.6c.5-1.2 1.7-2 3.6-2 2.6 0 4.1 1.5 4.1 4v8.2h-3.8zm19.2-1.2c-1.8 4.7-3.7 6.4-5.9 7.3l-2.3-2.3c1.9-.7 3.4-2.1 4.3-4.6l-4.2-11h3.7l1.7 4.6c.3.7.5 1.5.7 2.3h.1c.2-.8.5-1.6.8-2.3l1.7-4.6h3.5L229 64.2zm10.8 1.5c-3.6 0-6.4-2.5-6.4-6.3s2.9-6.3 6.4-6.3c3.5 0 6.4 2.5 6.4 6.3s-2.9 6.3-6.4 6.3zm0-9.2c-1.4 0-2.7 1.2-2.7 3s1.2 3 2.7 3c1.4 0 2.7-1.2 2.7-3s-1.3-3-2.7-3zm16 8.9v-1.6c-.5 1.2-1.7 2-3.6 2-2.6 0-4.1-1.4-4.1-3.9v-8.2h3.8v7.2c0 .9.6 1.6 1.8 1.6 1.1 0 1.8-.8 1.8-1.7v-7.2h3.8v11.8h-3.5zm19.6-8.7h-3.1v4.4c0 1 .5 1.4 1.6 1.4.4 0 .7 0 1-.2l-.3 2.9c-.4.2-1 .3-1.8.3-2.7 0-4.2-1.4-4.2-3.7v-5.1h-2v-3.1h2v-2.5l3.8-1.4v3.9h3.8l-.8 3.1zm9.5 8.7v-7.2c0-.9-.6-1.6-1.8-1.6-1.1 0-1.8.7-1.8 1.7v7.2h-3.8V46.9h3.8v7.8c.6-.9 1.7-1.5 3.3-1.5 2.6 0 4.1 1.5 4.1 4v8.2h-3.8zm8.2-13.4c-.7 0-2.1-1.4-2.1-2.1s1.4-2 2.1-2c.7 0 2.1 1.4 2.1 2s-1.5 2.1-2.1 2.1zm-2 13.4V53.6h3.8v11.8h-3.8zm13.8 0v-7.2c0-.9-.6-1.6-1.7-1.6s-1.9.7-1.9 1.7v7.2h-3.8V53.6h3.5v1.6c.5-1.2 1.7-2 3.6-2 2.6 0 4.1 1.5 4.1 4v8.2h-3.8zm13.6 0l-3.5-4.8v4.8h-3.8V46.9h3.8v11.5l3.5-4.8h4.2l-4.1 5.7 4.4 6.1h-4.5zm11.3-8.2c-.7.7-.9 1.4-.9 2.1 0 .4 0 .8.1 1.1l-3.3-.7c-.1-.5-.2-.9-.2-1.3 0-1.4.5-2.6 1.5-3.6.7-.7 1-1.2 1-2 0-.5-.5-1.2-1.4-1.2-.9 0-1.8.3-2.7.9l-.8-3.2c1-.6 2.2-1 3.7-1 3.1 0 5.1 1.8 5.1 4.4.1 1.6-.6 2.8-2.1 4.5zm-2.4 8.5c-.7 0-2.2-1.5-2.2-2.2 0-.7 1.5-2.1 2.2-2.1s2.2 1.5 2.2 2.1c0 .8-1.5 2.2-2.2 2.2z"/></svg>