<svg id="Layer_1" xmlns="http://www.w3.org/2000/svg" viewBox="0 0 728 90"><style>.st0{fill:#231f20}</style><path class="st0" d="M18.6 52.6V36h4v16.6h-4zM32.9 52.6v-7.2c0-.9-.6-1.6-1.7-1.6s-1.9.7-1.9 1.7v7.2h-3.8V40.8H29v1.6c.5-1.2 1.7-2 3.6-2 2.6 0 4.1 1.5 4.1 4v8.2h-3.8zM55.7 46L54 47.7h-5.8c.2 1 1.5 2.1 3.5 2.1 1.2 0 2.5-.4 3.2-.9l-.4 3.3c-.9.5-2.2.8-3.7.8-3.6 0-6.5-2.5-6.5-6.3s2.8-6.2 6.1-6.2 5.3 2.3 5.3 4.7c.1.2.1.6 0 .8zm-5.1-2.7c-1.1 0-2.1.9-2.3 1.9h4v-.3c0-.8-.7-1.6-1.7-1.6zM63.9 52.6l-1.2-2.2c-.2-.3-.4-.8-.5-1.1h-.1c-.2.4-.4.8-.6 1.1l-1.2 2.2h-3.7l3.4-5.9-3.2-5.9h3.9l1.1 2c.2.3.3.6.5 1h.1c.2-.4.3-.7.5-1l1.1-2h3.7l-3.2 5.7 3.4 6.1h-4zM77.6 43.9h-3.1v4.4c0 1 .5 1.4 1.6 1.4.4 0 .7 0 1-.2l-.3 2.9c-.4.2-1 .3-1.8.3-2.7 0-4.2-1.4-4.2-3.7v-5.1h-2v-3.1h2v-2.5l3.8-1.4v3.9h3.8l-.8 3.1zM86.9 44.9c-.2-.1-.8-.3-1.1-.3-1.2 0-2.3.6-2.3 2.5v5.5h-3.8V40.8h3.8v2.6c.4-1.8 1.8-2.8 3.4-2.8.4 0 .8.1 1.1.2l-1.1 4.1zM97.4 53.1c-.7-.2-1.5-.7-1.8-1.6-.5 1-1.6 1.4-3.1 1.4-2.1 0-3.9-1.5-3.9-3.9 0-2.2 1.7-3.6 4-3.8l2.3-.2v-.4c0-.7-.6-1.2-1.8-1.2-1.1 0-2.4.4-3.3.9l-.7-2.9c1-.6 2.6-1 4.1-1 3.1 0 5.3 1.4 5.3 4.3v3.8c0 1.4.5 2.1 1.4 2.4l-2.5 2.2zm-2.5-5.7l-1.4.1c-1 .1-1.4.8-1.4 1.5 0 .6.5 1.1 1.2 1.1.9 0 1.7-.7 1.7-1.7v-1zM115.5 53.1c-.7-.2-1.5-.7-1.8-1.6-.5 1-1.6 1.4-3.1 1.4-2.1 0-3.9-1.5-3.9-3.9 0-2.2 1.7-3.6 4-3.8l2.3-.2v-.4c0-.7-.6-1.2-1.8-1.2-1.1 0-2.4.4-3.3.9l-.7-2.9c1-.6 2.6-1 4.1-1 3.1 0 5.3 1.4 5.3 4.3v3.8c0 1.4.5 2.1 1.4 2.4l-2.5 2.2zm-2.4-5.7l-1.4.1c-1 .1-1.4.8-1.4 1.5 0 .6.5 1.1 1.2 1.1.9 0 1.7-.7 1.7-1.7v-1zM128.1 52.6v-1.5c-.6 1.2-2 1.8-3.6 1.8-2.9 0-5.7-2.2-5.7-6.2 0-3.8 2.7-6.3 6-6.3 1.2 0 2.5.4 3 .8V34h3.7v18.5h-3.4zm-.3-7.7c-.4-.5-1.1-1.1-2.3-1.1-1.7 0-2.8 1.3-2.8 3s1.2 3 2.8 3c1.1 0 1.9-.6 2.3-1.2v-3.7zM148.5 52.6v-7.2c0-.9-.4-1.6-1.7-1.6-1.2 0-1.8.7-1.8 1.7v7.2h-3.8v-7.2c0-.9-.4-1.6-1.7-1.6-1.2 0-1.8.7-1.8 1.7v7.2H134v-12h3.5v1.6c.5-1.2 1.6-2 3.5-2 1.7 0 3 .7 3.5 1.9.5-1.1 1.9-1.9 3.6-1.9 2.7 0 4.2 1.5 4.2 4v8.2h-3.8zM156.7 39.2c-.7 0-2.1-1.4-2.1-2.1 0-.7 1.4-2 2.1-2 .7 0 2.1 1.4 2.1 2 0 .7-1.4 2.1-2.1 2.1zm-1.9 13.4V40.8h3.8v11.8h-3.8zM168.5 52.6v-7.2c0-.9-.6-1.6-1.7-1.6s-1.9.7-1.9 1.7v7.2h-3.8V40.8h3.5v1.6c.5-1.2 1.7-2 3.6-2 2.6 0 4.1 1.5 4.1 4v8.2h-3.8zM176.7 39.2c-.7 0-2.1-1.4-2.1-2.1 0-.7 1.4-2 2.1-2 .7 0 2.1 1.4 2.1 2 0 .7-1.4 2.1-2.1 2.1zm-1.9 13.4V40.8h3.8v11.8h-3.8zM184.9 52.8c-1.6 0-2.8-.3-3.7-.8l-.3-3.4c1 .7 2.4 1.3 3.7 1.3.7 0 1.1-.4 1.1-.8 0-.5-.4-.7-1.1-.9-2.3-.6-3.6-1.8-3.6-3.8 0-2.3 1.9-3.8 4.4-3.8 1.5 0 2.9.4 3.5.7l-.6 2.8c-.6-.3-1.5-.6-2.4-.6-.6 0-1 .3-1 .8 0 .4.3.7 1 .9 2.7.7 3.7 2 3.7 4-.1 1.8-1.5 3.6-4.7 3.6zM199.1 43.9H196v4.4c0 1 .5 1.4 1.6 1.4.4 0 .7 0 1-.2l-.3 2.9c-.4.2-1 .3-1.8.3-2.7 0-4.2-1.4-4.2-3.7v-5.1h-2v-3.1h2v-2.5l3.8-1.4v3.9h3.8l-.8 3.1zM208.4 44.9c-.2-.1-.8-.3-1.1-.3-1.2 0-2.3.6-2.3 2.5v5.5h-3.8V40.8h3.8v2.6c.4-1.8 1.8-2.8 3.4-2.8.4 0 .8.1 1.1.2l-1.1 4.1zM218.9 53.1c-.7-.2-1.5-.7-1.8-1.6-.5 1-1.6 1.4-3.1 1.4-2.1 0-3.9-1.5-3.9-3.9 0-2.2 1.7-3.6 4-3.8l2.3-.2v-.4c0-.7-.6-1.2-1.8-1.2-1.1 0-2.4.4-3.3.9l-.7-2.9c1-.6 2.6-1 4.1-1 3.1 0 5.3 1.4 5.3 4.3v3.8c0 1.4.5 2.1 1.4 2.4l-2.5 2.2zm-2.5-5.7l-1.4.1c-1 .1-1.4.8-1.4 1.5 0 .6.5 1.1 1.2 1.1.9 0 1.7-.7 1.7-1.7v-1zM230.4 43.9h-3.1v4.4c0 1 .5 1.4 1.6 1.4.4 0 .7 0 1-.2l-.3 2.9c-.4.2-1 .3-1.8.3-2.7 0-4.2-1.4-4.2-3.7v-5.1h-2v-3.1h2v-2.5l3.8-1.4v3.9h3.8l-.8 3.1zM234.4 39.2c-.7 0-2.1-1.4-2.1-2.1 0-.7 1.4-2 2.1-2 .7 0 2.1 1.4 2.1 2 0 .7-1.4 2.1-2.1 2.1zm-1.9 13.4V40.8h3.8v11.8h-3.8zM245.1 52.7h-2.9l-4.5-11.9h3.7l1.7 4.5c.2.6.5 1.5.6 2.3h.1c.2-.8.4-1.7.7-2.3l1.7-4.5h3.5l-4.6 11.9zM261.3 46l-1.7 1.7h-5.8c.2 1 1.5 2.1 3.5 2.1 1.2 0 2.5-.4 3.2-.9l-.4 3.3c-.9.5-2.2.8-3.7.8-3.6 0-6.5-2.5-6.5-6.3s2.8-6.2 6.1-6.2 5.3 2.3 5.3 4.7c.1.2 0 .6 0 .8zm-5.2-2.7c-1.1 0-2.1.9-2.3 1.9h4v-.3c0-.8-.7-1.6-1.7-1.6zM277.3 37.5c-.4-.2-1.1-.3-1.5-.3-1.4 0-2.1.8-2.1 2.5v1.1h3.4l-.8 3.1h-2.6v8.7H270v-8.7h-1.8v-3.1h1.8v-1.4c0-3.6 2.3-5.4 5.3-5.4 1.1 0 2.2.1 2.8.4l-.8 3.1zM288.8 46l-1.7 1.7h-5.8c.2 1 1.5 2.1 3.5 2.1 1.2 0 2.5-.4 3.2-.9l-.4 3.3c-.9.5-2.2.8-3.7.8-3.6 0-6.5-2.5-6.5-6.3s2.8-6.2 6.1-6.2 5.3 2.3 5.3 4.7c.1.2 0 .6 0 .8zm-5.2-2.7c-1.1 0-2.1.9-2.3 1.9h4v-.3c0-.8-.7-1.6-1.7-1.6zM301.4 46l-1.7 1.7H294c.2 1 1.5 2.1 3.5 2.1 1.2 0 2.5-.4 3.2-.9l-.4 3.3c-.9.5-2.2.8-3.7.8-3.6 0-6.5-2.5-6.5-6.3s2.8-6.2 6.1-6.2 5.3 2.3 5.3 4.7c0 .2 0 .6-.1.8zm-5.1-2.7c-1.1 0-2.1.9-2.3 1.9h4v-.3c0-.8-.7-1.6-1.7-1.6zM307.1 52.8c-1.6 0-2.8-.3-3.7-.8l-.3-3.4c1 .7 2.4 1.3 3.7 1.3.7 0 1.1-.4 1.1-.8 0-.5-.4-.7-1.1-.9-2.3-.6-3.6-1.8-3.6-3.8 0-2.3 1.9-3.8 4.4-3.8 1.5 0 2.9.4 3.5.7l-.6 2.8c-.6-.3-1.5-.6-2.4-.6-.6 0-1 .3-1 .8 0 .4.3.7 1 .9 2.7.7 3.7 2 3.7 4 0 1.8-1.5 3.6-4.7 3.6zM315.5 53c-.7 0-2.2-1.5-2.2-2.2 0-.7 1.5-2.1 2.2-2.1.7 0 2.2 1.5 2.2 2.1-.1.7-1.5 2.2-2.2 2.2z"/></svg>