<svg id="Layer_1" xmlns="http://www.w3.org/2000/svg" viewBox="0 0 728 90"><style>.st0{fill:#f9e038}.st1{fill:#231f20}</style><path class="st0" d="M604 11s-11 0-11 11v3.7s0 11 11 11h89.8s11 0 11-11V22s0-11-11-11H604z"/><path class="st1" d="M606.6 26.7H605v-6.9h2.9c.6 0 1.2 0 1.8.4.6.4.9 1 .9 1.7 0 .8-.5 1.5-1.2 1.8l1.3 3h-1.8l-1-2.7h-1.2v2.7zm0-3.9h.9c.3 0 .7 0 1-.1.3-.2.4-.5.4-.8 0-.3-.2-.6-.4-.7-.3-.2-.7-.1-1-.1h-.8v1.7zM613.1 21.2v1.4h2.6v1.3h-2.6v1.5h3.3v1.3h-4.9v-6.9h4.9v1.3h-3.3zM623 26.7h-1.7l-.4-1.4h-2.2l-.4 1.4h-1.4l2.2-6.9h1.9l2 6.9zm-2.5-2.7l-.7-2.4-.8 2.4h1.5zM625.7 19.8c1 0 1.8.1 2.6.8.7.7 1.1 1.6 1.1 2.6 0 .9-.3 1.8-.9 2.5-.7.8-1.5.9-2.5.9h-2.3v-6.9h2zm-.4 5.6h.5c.7 0 1.1-.1 1.5-.7.3-.4.4-1 .4-1.5s-.2-1.1-.5-1.5c-.4-.5-.8-.5-1.3-.5h-.5v4.2zM637.9 21.2h-1.7v5.5h-1.6v-5.5h-1.7v-1.4h5.1v1.4zM644 26.7h-1.6v-2.8h-2.1v2.8h-1.6v-6.9h1.6v2.7h2.1v-2.7h1.6v6.9zM646.9 21.2v1.4h2.6v1.3h-2.6v1.5h3.3v1.3h-4.9v-6.9h4.9v1.3h-3.3zM659.8 26.7h-1.7l-.4-1.4h-2.2l-.4 1.4h-1.4l2.2-6.9h1.9l2 6.9zm-2.5-2.7l-.7-2.4-.7 2.4h1.4zM662.2 26.7h-1.6v-6.9h2.9c.6 0 1.2 0 1.8.4.6.4.9 1 .9 1.7 0 .8-.5 1.5-1.2 1.8l1.3 3h-1.8l-1-2.7h-1.2v2.7zm0-3.9h.9c.3 0 .7 0 1-.1.3-.2.4-.5.4-.8 0-.3-.2-.6-.4-.7-.3-.2-.7-.1-1-.1h-.8v1.7zM671.7 21.2H670v5.5h-1.6v-5.5h-1.7v-1.4h5.1v1.4zM674.2 26.7h-1.6v-6.9h1.6v6.9zM679.4 22.5c0-.8-.3-1.5-1.1-1.5-1.1 0-1.2 1.5-1.2 2.3 0 .9.1 2.1 1.3 2.1.8 0 1.1-.6 1.2-1.3l1.6.1c-.2 1.6-1.2 2.5-2.8 2.5-2 0-3-1.7-3-3.5 0-1.9 1-3.5 3.1-3.5 1.7 0 2.6 1 2.8 2.6l-1.9.2zM686.5 25.3v1.4h-4.4v-6.9h1.6v5.5h2.8zM688.7 21.2v1.4h2.6v1.3h-2.6v1.5h3.3v1.3h-4.9v-6.9h4.9v1.3h-3.3z"/></svg>