<svg id="Layer_1" xmlns="http://www.w3.org/2000/svg" xmlns:xlink="http://www.w3.org/1999/xlink" viewBox="0 0 728 90" enable-background="new 0 0 728 90"><style>.st0{opacity:.25;clip-path:url(#SVGID_2_)}.st1{clip-path:url(#SVGID_4_)}.st2{clip-path:url(#SVGID_6_);fill:#0a0f0f}.st3{clip-path:url(#SVGID_2_);fill:#fff}.st4{clip-path:url(#SVGID_8_);fill:url(#SVGID_9_)}.st5{clip-path:url(#SVGID_11_);fill:url(#SVGID_12_)}.st6{clip-path:url(#SVGID_14_);fill:url(#SVGID_15_)}.st7{clip-path:url(#SVGID_17_);fill:url(#SVGID_18_)}.st8,.st9{clip-path:url(#SVGID_20_);fill:url(#SVGID_21_)}.st9{fill:#963a21}.st10{clip-path:url(#SVGID_23_);fill:url(#SVGID_24_)}.st11{clip-path:url(#SVGID_26_);fill:url(#SVGID_27_)}.st12,.st13{clip-path:url(#SVGID_29_)}.st12{fill:#f5a8c2}.st13{opacity:.5}.st14{clip-path:url(#SVGID_31_)}.st15{clip-path:url(#SVGID_33_);fill:#fff}.st16,.st17,.st18{clip-path:url(#SVGID_29_);fill:#393030}.st17,.st18{fill:#d07589}.st18{fill:#231f20}.st19,.st20{fill-rule:evenodd;clip-rule:evenodd}.st19{clip-path:url(#SVGID_29_);fill:#ffcb10}.st20{fill:#eeb435}.st20,.st21,.st22{clip-path:url(#SVGID_29_)}.st21{fill-rule:evenodd;clip-rule:evenodd;fill:#ffeba6}.st22{fill:#ffcb10}.st23{opacity:.53;clip-path:url(#SVGID_35_)}.st24{clip-path:url(#SVGID_37_)}.st25{filter:url(#Adobe_OpacityMaskFilter)}.st26,.st27{clip-path:url(#SVGID_39_);fill:url(#SVGID_41_)}.st27{mask:url(#SVGID_40_);fill:url(#SVGID_42_)}.st28{clip-path:url(#SVGID_44_)}.st29{filter:url(#Adobe_OpacityMaskFilter_1_)}.st30{clip-path:url(#SVGID_46_)}.st31{clip-path:url(#SVGID_49_);fill:url(#SVGID_50_)}.st32{clip-path:url(#SVGID_46_);mask:url(#SVGID_47_);fill:url(#SVGID_51_)}.st33{clip-path:url(#SVGID_53_)}.st34{filter:url(#Adobe_OpacityMaskFilter_2_)}.st35{clip-path:url(#SVGID_55_)}.st36{clip-path:url(#SVGID_58_);fill:url(#SVGID_59_)}.st37{clip-path:url(#SVGID_55_);mask:url(#SVGID_56_);fill:url(#SVGID_60_)}.st38{clip-path:url(#SVGID_62_)}.st39{clip-path:url(#SVGID_64_)}.st40{filter:url(#Adobe_OpacityMaskFilter_3_)}.st41,.st42{clip-path:url(#SVGID_66_);fill:url(#SVGID_68_)}.st42{mask:url(#SVGID_67_);fill:url(#SVGID_69_)}.st43{opacity:.53;clip-path:url(#SVGID_71_)}.st44{clip-path:url(#SVGID_73_)}.st45{clip-path:url(#SVGID_75_);fill:url(#SVGID_76_)}.st46{clip-path:url(#SVGID_71_)}.st47{clip-path:url(#SVGID_78_)}.st48{filter:url(#Adobe_OpacityMaskFilter_4_)}.st49,.st50{clip-path:url(#SVGID_80_);fill:url(#SVGID_82_)}.st50{mask:url(#SVGID_81_);fill:url(#SVGID_83_)}</style><defs><path id="SVGID_1_" d="M479.9 10H551v71.1h-71.1z"/></defs><clipPath id="SVGID_2_"><use xlink:href="#SVGID_1_" overflow="visible"/></clipPath><g class="st0"><defs><path id="SVGID_3_" d="M479.9 26.3h54.8v54.8h-54.8z"/></defs><clipPath id="SVGID_4_"><use xlink:href="#SVGID_3_" overflow="visible"/></clipPath><g class="st1"><defs><path id="SVGID_5_" d="M479.9 26.3h54.8v54.8h-54.8z"/></defs><clipPath id="SVGID_6_"><use xlink:href="#SVGID_5_" overflow="visible"/></clipPath><path class="st2" d="M534.8 75.2c-2.8 2.7-6.6 4.4-10.7 4.4h-42.5V37c0-4.2 1.7-8 4.4-10.7l-1.5 1.5c-2.7 2.8-4.4 6.6-4.4 10.7v42.6h42.5c4.2 0 8-1.7 10.8-4.5l1.4-1.4z"/></g></g><path class="st3" d="M509.8 10c-5.2 0-10.1 2-13.8 5.7-3.7 3.7-5.7 8.6-5.7 13.7v41.3h41.2c10.8 0 19.5-8.8 19.5-19.5V10h-41.2z"/><defs><path id="SVGID_7_" d="M531.5 70.8h-41.2l-8.8 8.8H524c4.2 0 8-1.7 10.7-4.4l6.5-6.5-.3-.3c-2.8 1.5-6 2.4-9.4 2.4"/></defs><clipPath id="SVGID_8_"><use xlink:href="#SVGID_7_" overflow="visible"/></clipPath><linearGradient id="SVGID_9_" gradientUnits="userSpaceOnUse" x1="1.089" y1="91.089" x2="2.089" y2="91.089" gradientTransform="matrix(0 -11.23 -11.23 0 1534.284 91.86)"><stop offset="0" stop-color="#10b0e6"/><stop offset=".159" stop-color="#0faae1"/><stop offset=".368" stop-color="#0c9ad2"/><stop offset=".604" stop-color="#077fba"/><stop offset=".858" stop-color="#015999"/><stop offset=".89" stop-color="#005494"/><stop offset="1" stop-color="#005494"/></linearGradient><path class="st4" d="M481.5 68.4h59.7v11.2h-59.7z"/><defs><path id="SVGID_10_" d="M485.9 26.3c-2.7 2.8-4.4 6.6-4.4 10.7v42.5l8.8-8.8V29.5c0-3.3.8-6.5 2.4-9.3l-.4-.4-6.4 6.5z"/></defs><clipPath id="SVGID_11_"><use xlink:href="#SVGID_10_" overflow="visible"/></clipPath><linearGradient id="SVGID_12_" gradientUnits="userSpaceOnUse" x1="1.017" y1="91.017" x2="2.017" y2="91.017" gradientTransform="matrix(0 -59.9976 -59.9976 0 5947.863 141.02)"><stop offset="0" stop-color="#0081bd"/><stop offset=".393" stop-color="#006fac"/><stop offset=".85" stop-color="#005494"/><stop offset="1" stop-color="#005494"/></linearGradient><path class="st5" d="M481.5 19.8h11.2v59.7h-11.2z"/><g><defs><path id="SVGID_13_" d="M531.5 70.8h-41.2l-8.8 8.8H524c4.2 0 8-1.7 10.7-4.4l6.5-6.5-.3-.3c-2.8 1.5-6 2.4-9.4 2.4"/></defs><clipPath id="SVGID_14_"><use xlink:href="#SVGID_13_" overflow="visible"/></clipPath><linearGradient id="SVGID_15_" gradientUnits="userSpaceOnUse" x1=".983" y1="91.017" x2="1.983" y2="91.017" gradientTransform="matrix(59.0879 0 0 -59.0879 423.626 5451.947)"><stop offset="0" stop-color="#10b0e6"/><stop offset=".161" stop-color="#0faae1"/><stop offset=".372" stop-color="#0c9ad2"/><stop offset=".61" stop-color="#077fba"/><stop offset=".867" stop-color="#015999"/><stop offset=".9" stop-color="#005494"/><stop offset="1" stop-color="#005494"/></linearGradient><path class="st6" d="M481.5 68.4h59.7v11.2h-59.7z"/></g><g><defs><path id="SVGID_16_" d="M485.9 26.3c-2.7 2.8-4.4 6.6-4.4 10.7v42.5l8.8-8.8V29.5c0-3.3.8-6.5 2.4-9.3l-.4-.4-6.4 6.5z"/></defs><clipPath id="SVGID_17_"><use xlink:href="#SVGID_16_" overflow="visible"/></clipPath><linearGradient id="SVGID_18_" gradientUnits="userSpaceOnUse" x1="1.017" y1="91.017" x2="2.017" y2="91.017" gradientTransform="matrix(0 -59.9976 -59.9976 0 5947.863 141.02)"><stop offset="0" stop-color="#0081bd"/><stop offset=".393" stop-color="#006fac"/><stop offset=".85" stop-color="#005494"/><stop offset="1" stop-color="#005494"/></linearGradient><path class="st7" d="M481.5 19.8h11.2v59.7h-11.2z"/></g><g><defs><path id="SVGID_19_" d="M509.8 12.5c-9.3 0-17 7.7-17 17v38.8h38.8c9.4 0 17-7.6 17-17V12.5h-38.8z"/></defs><clipPath id="SVGID_20_"><use xlink:href="#SVGID_19_" overflow="visible"/></clipPath><linearGradient id="SVGID_21_" gradientUnits="userSpaceOnUse" x1="1" y1="91.018" x2="2" y2="91.018" gradientTransform="scale(78.7228 -78.7228) rotate(45 114.544 51.428)"><stop offset="0" stop-color="#67cdf5"/><stop offset=".035" stop-color="#63c9f2"/><stop offset=".482" stop-color="#2d97d0"/><stop offset=".817" stop-color="#0c78bb"/><stop offset="1" stop-color="#006cb3"/><stop offset="1" stop-color="#006cb3"/></linearGradient><path class="st8" d="M464.9 40.4l55.7-55.8 55.8 55.8-55.8 55.8z"/><path class="st9" d="M487.6 63.2h62.9v15.6h-62.9z"/></g><g><defs><path id="SVGID_22_" d="M518 65.9c0 1 5 1.8 11.3 1.8 3.2 0 6.1-.2 8.2-.6 1.1-.4 2.1-.9 3-1.5-.6-.9-5.4-1.6-11.2-1.6-6.3.1-11.3.9-11.3 1.9"/></defs><clipPath id="SVGID_23_"><use xlink:href="#SVGID_22_" overflow="visible"/></clipPath><radialGradient id="SVGID_24_" cx=".872" cy="91.457" r="1" gradientTransform="matrix(7.7853 0 0 -2.1866 522.372 265.798)" gradientUnits="userSpaceOnUse"><stop offset="0" stop-color="#75301a"/><stop offset=".378" stop-color="#78311b"/><stop offset=".684" stop-color="#82341d"/><stop offset=".963" stop-color="#933a20"/><stop offset="1" stop-color="#963b21"/></radialGradient><path class="st10" d="M518 64.1h22.5v3.7H518z"/></g><g><defs><path id="SVGID_25_" d="M498.4 65.9c0 1 4.9 1.7 11 1.7s11-.8 11-1.7c0-1-4.9-1.7-11-1.7s-11 .8-11 1.7"/></defs><clipPath id="SVGID_26_"><use xlink:href="#SVGID_25_" overflow="visible"/></clipPath><radialGradient id="SVGID_27_" cx=".869" cy="91.487" r="1" gradientTransform="matrix(7.6121 0 0 -2.0552 502.68 253.845)" gradientUnits="userSpaceOnUse"><stop offset="0" stop-color="#75301a"/><stop offset=".378" stop-color="#78311b"/><stop offset=".684" stop-color="#82341d"/><stop offset=".963" stop-color="#933a20"/><stop offset="1" stop-color="#963b21"/></radialGradient><path class="st11" d="M498.4 64.2h22v3.5h-22z"/></g><g><defs><path id="SVGID_28_" d="M479.9 10H551v71.1h-71.1z"/></defs><clipPath id="SVGID_29_"><use xlink:href="#SVGID_28_" overflow="visible"/></clipPath><path class="st12" d="M545.7 46.1c-.1-.8-1.1-1.1-1.7-1.4-2.5-1.2-2.3-4.4-3.2-6.6-.8-1.9-1.9-3.5-3.3-5-1.5-1.8-2-2.3-7-4.9-3.7-1.7-7.9-2.5-12-2.5-10.1 0-18.7 4.9-22 11.8-.2.4-.4.9-.6 1.3-.6 1.6-.9 3.3-.9 5v1.1c2.4 2.5 5 4.4 7.5 5.8.6.3 1.3.7 1.9 1 .8.4 1.6.7 2.4 1 .5.2 1 .3 1.5.4.7.2 1.3.3 2 .5l1.5.3-1.5-.3c-.6-.1-1.3-.3-2-.5-.5-.1-1-.3-1.5-.4-.8-.3-1.6-.6-2.4-1-.6-.3-1.3-.6-1.9-1-2.6-1.4-5.1-3.3-7.5-5.8.1 1.3.4 2.5.8 3.6 1.7 5.8 9.5 17.6 11.2 17.6h5.2c.7 0 1.2-.3 1.5-.6.4-.5.5-1.3.5-2.1 0-.5-.2-2.2-.1-2.7 0-.1.1-.8.1-.9 1.4.2 2.8.6 4.2.6 1.7 0 3.4-.1 5.1-.4.3 1.5 1 6.2 2.5 6.2h4.7c.7 0 2.3-.2 2.7-.7.2-.2.3-.5.3-.8.3-1.7-.1-3.4-.2-5v-.6c0-.3.1-.6.2-.9.1-.4.4-.7.7-1 .6-.4 1.2-.9 1.7-1.4 1.6-1.5 1.9-2 4.2-2.5 1.4-.3 2.6-.9 3.9-1.6.6-.3.8-.8.8-1.4v-.1c0-.8 0-1.5.3-2.4.3-.8.5-1.3.4-1.7m-32 7.7c.8.1 1.6.1 2.4.1-.8 0-1.6 0-2.4-.1m19.2-3.4c-.1.1-.3.1-.4.2-2.2.8-4.6 1.6-7.2 2.2-1 .2-2 .4-3.1.6-.5.1-.9.1-1.4.2-.8.1-1.5.2-2.3.2h-.9.9c.8-.1 1.6-.1 2.3-.2.5-.1.9-.1 1.4-.2 1.1-.2 2.1-.4 3.1-.6 2.7-.6 5.1-1.4 7.2-2.2.1-.1.3-.1.4-.2 1.9-.7 3.8-1.6 5.8-1.8-2 .2-3.9 1.1-5.8 1.8m6.7-1.9h.7-.7m3.5.5c-.2-.1-.5-.1-.7-.2-.5-.1-.9-.2-1.4-.3.5.1.9.1 1.4.3.3.1.5.2.7.2.2.1.5.1.7.2-.2 0-.4-.1-.7-.2"/><path class="st12" d="M495.6 39.1c-.5-.3-.9-.8-1.2-1.4 1.1-.5 2.1-1.3 2.9-2.6.6-1 .7-2.1.1-2.9-.3-.4-1-1.1-2.4-.9-.7.1-1.4.4-1.9 1-.9 1-1.1 2.6-.9 3.7 0 .2 0 .3.1.5-.9.1-1.6 0-2.5-.2-.4-.1-.9-.3-1.3-.4l-2.7-1.3c1.2 1.5 5.3 3.7 7 3.5.4 1 1.1 1.8 1.9 2.3.6.4 1.4.6 2.1.7.2-.6.4-1.1.7-1.6-.8 0-1.4-.1-1.9-.4m-1.7-3.3c-.1-.8.1-1.9.5-2.5.2-.2.4-.3.7-.4h.2c.2 0 .3.1.4.2.1.2.2.7-.1 1.2-.5.8-.9 1.3-1.6 1.7 0-.1-.1-.1-.1-.2"/><g class="st13"><defs><path id="SVGID_30_" d="M498 29h12.2v12.3H498z"/></defs><clipPath id="SVGID_31_"><use xlink:href="#SVGID_30_" overflow="visible"/></clipPath><g class="st14"><defs><path id="SVGID_32_" d="M498 29h12.2v12.3H498z"/></defs><clipPath id="SVGID_33_"><use xlink:href="#SVGID_32_" overflow="visible"/></clipPath><path class="st15" d="M502.6 32.5c-2.8 2.4-3.8 4.1-4.4 6.4-.1.3-.1.6-.2.8-.1.6-.1 1.1-.1 1.7v-.1c.7-2.6 2.4-4.8 5.1-6.8 2-1.5 5-3.1 7.1-3.6-1-.6-1.1-1.2-1.2-1.8 0-.1-3.9 1.4-6.3 3.4"/></g></g><path class="st16" d="M537.1 39.7c-.7.1-1.1 1-.9 2 .2 1 .9 1.7 1.5 1.6.7-.1 1.1-1 .9-2-.1-1.1-.8-1.7-1.5-1.6"/><path class="st12" d="M528.1 29.9c1.6 2.7 4.6 4 7.2 3.1.3-.1.4-.4.4-.7-.2-1.1-.2-2.2.1-3.2.2-.9.7-1.8 1.5-2.7.6-.6-.2-1.7-1.2-1.8-1.1-.2-2.1 0-2.9.6-2.6 1.9-4.6 3.9-4.8 4.1-.4.2-.5.3-.3.6"/><path class="st17" d="M532.1 31.3c.7-.6 1.7-1.1 2.6-1.1-.1-.3-.1-.6-.1-.8.1-1 .6-1.5 1.2-2.2.1-.1.4-.6.4-.7.3-.7-1.1-.7-1.5-.6-1.1.2-2.2 1.1-3 2.2-.7 1-.6 2.4.4 3.2"/><path class="st18" d="M523.7 27.5c-2.7-.9-8-.8-10.8.2-.5.2-.6.6-.3 1 .2.3.7.3 1 .2 2.2-.9 7.2-1 9.4-.1.3.1.8 0 1-.2.4-.5.2-.9-.3-1.1"/><path class="st19" d="M514.6 28.7c1.4-.3 2.7-.5 4.1-.5 1.2 0 2.3.1 3.5.4 1.5-1.2 2.5-3 2.5-5.1 0-3.5-2.9-6.4-6.4-6.4s-6.4 2.9-6.4 6.4c-.1 2.1 1 4 2.7 5.2"/><path class="st20" d="M515.3 28.5c1.1-.2 2.3-.4 3.4-.4.9 0 1.7.1 2.5.2 1.6-1 2.7-2.8 2.7-4.9 0-3.2-2.6-5.8-5.8-5.8s-5.8 2.6-5.8 5.8c0 2.2 1.2 4.1 3 5.1"/><path class="st21" d="M515.6 28.4c1-.2 2.1-.3 3.1-.3.9 0 1.9.1 2.8.2 1.6-1 2.7-2.9 2.7-5 0-3.2-2.6-5.8-5.7-5.8s-5.7 2.6-5.7 5.8c-.1 2.3 1.1 4.1 2.8 5.1"/><path class="st22" d="M515.4 28.5c1.1-.2 2.2-.3 3.2-.3.9 0 1.7.1 2.6.2 1.6-1 2.7-2.8 2.7-4.9 0-3.2-2.5-5.8-5.7-5.8-3.1 0-5.7 2.6-5.7 5.8 0 2.1 1.2 4 2.9 5"/><path class="st20" d="M517 28.2c.6-.1 1.1-.1 1.7-.1h1.2c2-.6 3.5-2.5 3.5-4.8 0-2.8-2-5-5-5-2.8 0-5 2.2-5 5-.1 2.4 1.5 4.3 3.6 4.9"/><path class="st21" d="M516.8 28.2c.6-.1 1.2-.1 1.8-.1h1c2-.7 3.4-2.5 3.4-4.8 0-2.8-2.2-5-4.9-5s-4.9 2.2-4.9 5c0 2.4 1.5 4.4 3.6 4.9"/><path class="st19" d="M517 28.2c.6-.1 1.1-.1 1.7-.1h1.1c2-.7 3.4-2.5 3.4-4.8 0-2.8-2.2-5-4.9-5s-4.9 2.2-4.9 5c0 2.4 1.5 4.3 3.6 4.9"/></g><g><defs><path id="SVGID_34_" d="M518.5 53.9c.8-.1 1.6-.1 2.3-.2.5-.1.9-.1 1.4-.2 1.1-.2 2.1-.4 3.1-.6 2.6-.6 5-1.4 7.1-2.2-2.1.8-4.5 1.6-7.1 2.2-1 .2-2 .4-3.1.6-.5.1-.9.1-1.4.2-.7 0-1.5.1-2.3.2h-.9.9m14-3.3c.1-.1.3-.1.4-.2 1.9-.7 3.8-1.6 5.8-1.8-2 .3-3.9 1.1-5.8 1.8-.1.1-.3.1-.4.2m7.3-2.1h-.1.1m.1 0zm-43.5-11.2c-.2.4-.4.9-.6 1.3-.6 1.6-.9 3.3-.9 5v1.1c.1 1.3.4 2.5.8 3.6 1.7 5.8 9.5 17.6 11.2 17.6h5.2c.7 0 1.2-.2 1.5-.6.4-.5.5-1.3.5-2.1 0-.5-.2-2.2-.1-2.7 0-.1.1-.8.1-.9 1.4.2 2.8.6 4.2.6 1.7 0 3.4-.1 5.1-.4.3 1.5 1 6.2 2.5 6.2h4.7c.7 0 2.3-.2 2.7-.7.2-.2.3-.5.3-.8.3-1.7-.1-3.4-.2-5v-.6c0-.3.1-.6.2-.9.1-.4.4-.7.7-1 .6-.4 1.2-.9 1.7-1.4 1.6-1.5 1.9-2 4.2-2.5 1.4-.3 2.6-.9 3.9-1.6.6-.3.8-.8.8-1.4V50c0-.8 0-1.5.3-2.4.1-.4.3-.9.3-1.4-.1-.8-1.1-1.1-1.7-1.4-2.5-1.2-2.3-4.4-3.2-6.6-.8-1.9-1.9-3.5-3.3-5-1.5-1.8-2-2.3-7-4.9-3.7-1.7-7.9-2.5-12-2.5-9.9-.3-18.5 4.6-21.9 11.5"/></defs><clipPath id="SVGID_35_"><use xlink:href="#SVGID_34_" overflow="visible"/></clipPath><g class="st23"><defs><path id="SVGID_36_" d="M494.9 44.7h50.3V66h-50.3z"/></defs><clipPath id="SVGID_37_"><use xlink:href="#SVGID_36_" overflow="visible"/></clipPath><g class="st24"><defs><path id="SVGID_38_" d="M494.9 44.7c.1 1.3.4 2.5.8 3.7.6 1.9 1.8 4.5 3.3 7.1 2.9 5.2 6.8 10.5 7.9 10.5h5.2c.4 0 1.2-.2 1.4-.5 1.2-1.3.2-3.9.5-5 0-.1.1-.7.1-.8 1.4.2 2.8.6 4.2.6 1.7 0 3.5-.1 5.2-.4.3 1.5 1 6.2 2.5 6.2h4.7c.7 0 2.3-.2 2.7-.7.9-1.7.1-4.3.2-5.7 0-.1-.1-.8 0-.8 0-.3.1-.6.2-.9.1-.4.4-.7.7-1 .6-.4 1.2-.9 1.7-1.4 1.6-1.5 1.9-2 4.2-2.5 1.4-.3 2.6-.9 3.9-1.6.6-.3.8-.8.8-1.4V50c-1.8-.8-3.6-1.4-5.5-1.3-2.5.1-4.8 1.2-7.2 2.1-2.2.8-4.6 1.6-7.2 2.2-9.1 2-20.5 1.8-30.3-8.3z"/></defs><clipPath id="SVGID_39_"><use xlink:href="#SVGID_38_" overflow="visible"/></clipPath><defs><filter id="Adobe_OpacityMaskFilter" filterUnits="userSpaceOnUse" x="494.9" y="44.7" width="50.3" height="21.3"><feColorMatrix values="1 0 0 0 0 0 1 0 0 0 0 0 1 0 0 0 0 0 1 0"/></filter></defs><mask maskUnits="userSpaceOnUse" x="494.9" y="44.7" width="50.3" height="21.3" id="SVGID_40_"><g class="st25"><linearGradient id="SVGID_41_" gradientUnits="userSpaceOnUse" x1=".921" y1="90.921" x2="1.921" y2="90.921" gradientTransform="matrix(0 12.7288 12.7288 0 -637.247 37.011)"><stop offset="0" stop-color="#b3b3b3"/><stop offset="1" stop-color="#fff"/></linearGradient><path class="st26" d="M494.9 44.7h50.3V66h-50.3z"/></g></mask><linearGradient id="SVGID_42_" gradientUnits="userSpaceOnUse" x1=".921" y1="90.921" x2="1.921" y2="90.921" gradientTransform="matrix(0 12.7288 12.7288 0 -637.247 37.011)"><stop offset="0" stop-color="#f5a8c2"/><stop offset="1" stop-color="#af5f73"/></linearGradient><path class="st27" d="M494.9 44.7h50.3V66h-50.3z"/></g></g><g class="st23"><defs><path id="SVGID_43_" d="M527.7 58.5h6.3v6.8h-6.3z"/></defs><clipPath id="SVGID_44_"><use xlink:href="#SVGID_43_" overflow="visible"/></clipPath><g class="st28"><defs><path id="SVGID_45_" d="M533.5 58.5c-1.9.4-4 .7-5.5 2-.2.2-.3.6-.3.9v.1c0 .5.1 1 .1 1.3.1.7.2 1.7.9 2.1.1.1.3.1.4.1.5.1 1.4.2 2.3.2h.1c.7 0 1.5-.1 2-.3.4-.9.4-2.5.1-4.7-.1-.6-.1-1.2-.1-1.8.1.1.1.1 0 .1"/></defs><clipPath id="SVGID_46_"><use xlink:href="#SVGID_45_" overflow="visible"/></clipPath><defs><filter id="Adobe_OpacityMaskFilter_1_" filterUnits="userSpaceOnUse" x="526.5" y="57.4" width="8.8" height="9"><feColorMatrix values="1 0 0 0 0 0 1 0 0 0 0 0 1 0 0 0 0 0 1 0"/></filter></defs><mask maskUnits="userSpaceOnUse" x="526.5" y="57.4" width="8.8" height="9" id="SVGID_47_"><g class="st29"><defs><path id="SVGID_48_" transform="rotate(-79.799 530.78 62.033)" d="M526.7 58.2h8.1V66h-8.1z"/></defs><clipPath id="SVGID_49_" class="st30"><use xlink:href="#SVGID_48_" overflow="visible"/></clipPath><linearGradient id="SVGID_50_" gradientUnits="userSpaceOnUse" x1=".59" y1="91.165" x2="1.59" y2="91.165" gradientTransform="matrix(2.7866 .5014 .5014 -2.7866 481.497 315.437)"><stop offset="0"/><stop offset=".165" stop-color="#414141"/><stop offset=".329" stop-color="#7a7a7a"/><stop offset=".489" stop-color="#aaa"/><stop offset=".64" stop-color="#cfcfcf"/><stop offset=".779" stop-color="#e9e9e9"/><stop offset=".903" stop-color="#f9f9f9"/><stop offset="1" stop-color="#fff"/><stop offset="1" stop-color="#fff"/></linearGradient><path class="st31" d="M526.5 55.8l10.4 1.9-1.9 10.6-10.4-1.9z"/></g></mask><linearGradient id="SVGID_51_" gradientUnits="userSpaceOnUse" x1=".59" y1="91.21" x2="1.59" y2="91.21" gradientTransform="matrix(2.7866 .5014 .5014 -2.7866 481.497 315.437)"><stop offset="0" stop-color="#f393a9"/><stop offset=".242" stop-color="#f49eb5"/><stop offset=".668" stop-color="#f6acc5"/><stop offset="1" stop-color="#f6b1cb"/><stop offset="1" stop-color="#f6b1cb"/></linearGradient><path class="st32" d="M527.9 57.4l7.4 1.3-1.4 7.8-7.4-1.4z"/></g></g><g class="st23"><defs><path id="SVGID_52_" d="M507.6 60.3h6.5v5.4h-6.5z"/></defs><clipPath id="SVGID_53_"><use xlink:href="#SVGID_52_" overflow="visible"/></clipPath><g class="st33"><defs><path id="SVGID_54_" d="M508 62c-.3.4-.4.9-.4 1.5v.1c0 .8.3 1.7 1 1.9 1 .4 3.1.2 4.2.1.7-.1.9-.1 1.3-1.2 0 0 .1-.7.1-.9-.1-1.5-.2-2.2-.1-3-.2-.1-.8-.2-1.5-.2-1.5 0-3.6.4-4.6 1.7"/></defs><clipPath id="SVGID_55_"><use xlink:href="#SVGID_54_" overflow="visible"/></clipPath><defs><filter id="Adobe_OpacityMaskFilter_2_" filterUnits="userSpaceOnUse" x="506.6" y="59.1" width="8.4" height="7.8"><feColorMatrix values="1 0 0 0 0 0 1 0 0 0 0 0 1 0 0 0 0 0 1 0"/></filter></defs><mask maskUnits="userSpaceOnUse" x="506.6" y="59.1" width="8.4" height="7.8" id="SVGID_56_"><g class="st34"><defs><path id="SVGID_57_" transform="rotate(-79.753 510.735 62.945)" d="M507.3 59.1h6.8v7.7h-6.8z"/></defs><clipPath id="SVGID_58_" class="st35"><use xlink:href="#SVGID_57_" overflow="visible"/></clipPath><linearGradient id="SVGID_59_" gradientUnits="userSpaceOnUse" x1=".774" y1="91.141" x2="1.774" y2="91.141" gradientTransform="matrix(5.0579 .9141 .9141 -5.0579 420.748 522.726)"><stop offset="0"/><stop offset=".165" stop-color="#414141"/><stop offset=".329" stop-color="#7a7a7a"/><stop offset=".489" stop-color="#aaa"/><stop offset=".64" stop-color="#cfcfcf"/><stop offset=".779" stop-color="#e9e9e9"/><stop offset=".903" stop-color="#f9f9f9"/><stop offset="1" stop-color="#fff"/><stop offset="1" stop-color="#fff"/></linearGradient><path class="st36" d="M506.7 57.4l9.8 1.8-1.7 9.3-9.8-1.8z"/></g></mask><linearGradient id="SVGID_60_" gradientUnits="userSpaceOnUse" x1=".774" y1="91.126" x2="1.774" y2="91.126" gradientTransform="matrix(5.0579 .9141 .9141 -5.0579 420.748 522.726)"><stop offset="0" stop-color="#f393a9"/><stop offset=".242" stop-color="#f49eb5"/><stop offset=".668" stop-color="#f6acc5"/><stop offset="1" stop-color="#f6b1cb"/><stop offset="1" stop-color="#f6b1cb"/></linearGradient><path class="st37" d="M507.8 59.1l7.3 1.4-1.2 6.5-7.3-1.4z"/></g></g></g><g><defs><path id="SVGID_61_" d="M479.9 10H551v71.1h-71.1z"/></defs><clipPath id="SVGID_62_"><use xlink:href="#SVGID_61_" overflow="visible"/></clipPath><g class="st38"><defs><path id="SVGID_63_" d="M524.1 61.5h9.9V66h-9.9z"/></defs><clipPath id="SVGID_64_"><use xlink:href="#SVGID_63_" overflow="visible"/></clipPath><g class="st39"><defs><path id="SVGID_65_" d="M524.1 62.3c.4 1.8 1.1 3.7 2 3.7h4.7c.7 0 2.3-.2 2.7-.7.3-.6.4-1.4.4-2.1V63c0-.5-.1-1-.1-1.5l-9.7.8z"/></defs><clipPath id="SVGID_66_"><use xlink:href="#SVGID_65_" overflow="visible"/></clipPath><defs><filter id="Adobe_OpacityMaskFilter_3_" filterUnits="userSpaceOnUse" x="524.1" y="61.5" width="9.9" height="4.5"><feColorMatrix values="1 0 0 0 0 0 1 0 0 0 0 0 1 0 0 0 0 0 1 0"/></filter></defs><mask maskUnits="userSpaceOnUse" x="524.1" y="61.5" width="9.9" height="4.5" id="SVGID_67_"><g class="st40"><linearGradient id="SVGID_68_" gradientUnits="userSpaceOnUse" x1=".748" y1="90.763" x2="1.748" y2="90.763" gradientTransform="matrix(0 3.9657 3.9657 0 169.16 59.063)"><stop offset="0"/><stop offset=".345" stop-color="#020202"/><stop offset=".543" stop-color="#0b0b0b"/><stop offset=".704" stop-color="#191919"/><stop offset=".845" stop-color="#2c2c2c"/><stop offset=".972" stop-color="#464646"/><stop offset="1" stop-color="#4d4d4d"/><stop offset="1" stop-color="#4d4d4d"/></linearGradient><path class="st41" d="M524.1 61.5h10V66h-10z"/></g></mask><linearGradient id="SVGID_69_" gradientUnits="userSpaceOnUse" x1=".748" y1="90.748" x2="1.748" y2="90.748" gradientTransform="matrix(0 3.9657 3.9657 0 169.16 59.063)"><stop offset="0" stop-color="#231f20"/><stop offset=".859" stop-color="#231f20"/><stop offset="1" stop-color="#231f20"/><stop offset="1" stop-color="#231f20"/></linearGradient><path class="st42" d="M524.1 61.5h9.9V66h-9.9z"/></g></g></g><g><defs><path id="SVGID_70_" d="M514 62.3l-10.4.4c1.5 2 2.7 3.3 3.3 3.3h5.2c.7 0 1.2-.2 1.5-.6.4-.5.5-1.3.5-2.1 0-.2 0-.6-.1-1v-.9.9"/></defs><clipPath id="SVGID_71_"><use xlink:href="#SVGID_70_" overflow="visible"/></clipPath><g class="st43"><defs><path id="SVGID_72_" d="M499 55.5h4.4v6.9H499z"/></defs><clipPath id="SVGID_73_"><use xlink:href="#SVGID_72_" overflow="visible"/></clipPath><g class="st44"><defs><path id="SVGID_74_" d="M499 55.5c1.4 2.5 3 5 4.4 6.9l-4.4-6.9z"/></defs><clipPath id="SVGID_75_"><use xlink:href="#SVGID_74_" overflow="visible"/></clipPath><linearGradient id="SVGID_76_" gradientUnits="userSpaceOnUse" x1=".835" y1="90.835" x2="1.835" y2="90.835" gradientTransform="matrix(0 6.0596 6.0596 0 -49.247 51.262)"><stop offset="0" stop-color="#f5a8c2"/><stop offset=".203" stop-color="#eb9ab3"/><stop offset=".718" stop-color="#d57b92"/><stop offset="1" stop-color="#cd6f85"/></linearGradient><path class="st45" d="M499 55.5h4.4v6.9H499z"/></g></g><g class="st46"><defs><path id="SVGID_77_" d="M503.4 62.3h10.7V66h-10.7z"/></defs><clipPath id="SVGID_78_"><use xlink:href="#SVGID_77_" overflow="visible"/></clipPath><g class="st47"><defs><path id="SVGID_79_" d="M503.4 62.4c1.6 2.2 2.9 3.7 3.5 3.7h5.2c.4 0 1.2-.2 1.4-.5.5-.5.6-1.2.6-1.9v-.1c0-.4 0-.8-.1-1.2h-10.6z"/></defs><clipPath id="SVGID_80_"><use xlink:href="#SVGID_79_" overflow="visible"/></clipPath><defs><filter id="Adobe_OpacityMaskFilter_4_" filterUnits="userSpaceOnUse" x="503.4" y="62.3" width="10.7" height="3.7"><feColorMatrix values="1 0 0 0 0 0 1 0 0 0 0 0 1 0 0 0 0 0 1 0"/></filter></defs><mask maskUnits="userSpaceOnUse" x="503.4" y="62.3" width="10.7" height="3.7" id="SVGID_81_"><g class="st48"><linearGradient id="SVGID_82_" gradientUnits="userSpaceOnUse" x1=".694" y1="90.714" x2="1.694" y2="90.714" gradientTransform="matrix(0 3.2631 3.2631 0 212.798 60.497)"><stop offset="0"/><stop offset=".345" stop-color="#020202"/><stop offset=".543" stop-color="#0b0b0b"/><stop offset=".704" stop-color="#191919"/><stop offset=".845" stop-color="#2c2c2c"/><stop offset=".972" stop-color="#464646"/><stop offset="1" stop-color="#4d4d4d"/><stop offset="1" stop-color="#4d4d4d"/></linearGradient><path class="st49" d="M503.4 62.3h10.9V66h-10.9z"/></g></mask><linearGradient id="SVGID_83_" gradientUnits="userSpaceOnUse" x1=".694" y1="90.694" x2="1.694" y2="90.694" gradientTransform="matrix(0 3.2631 3.2631 0 212.798 60.497)"><stop offset="0" stop-color="#231f20"/><stop offset=".859" stop-color="#231f20"/><stop offset="1" stop-color="#231f20"/><stop offset="1" stop-color="#231f20"/></linearGradient><path class="st50" d="M503.4 62.3h10.7V66h-10.7z"/></g></g></g></svg>