<svg id="Layer_1" xmlns="http://www.w3.org/2000/svg" xmlns:xlink="http://www.w3.org/1999/xlink" width="728" height="90" viewBox="0 0 728 90"><style>.st0{fill:#f6a9c2}.st1{fill:none}.st2{opacity:.5;fill:#fff;enable-background:new}.st3{fill:#3b3030}.st4{fill:#d2758b}.st5{fill:#010101}.st6,.st7,.st8{opacity:.53;clip-path:url(#SVGID_2_);fill:url(#SVGID_3_);enable-background:new}.st7,.st8{clip-path:url(#SVGID_5_);fill:url(#SVGID_6_)}.st8{clip-path:url(#SVGID_8_);fill:url(#SVGID_9_)}.st9{fill:url(#SVGID_10_)}.st10{opacity:.53;clip-path:url(#SVGID_12_);fill:url(#SVGID_13_);enable-background:new}.st11{clip-path:url(#SVGID_15_);fill:url(#SVGID_16_)}</style><path class="st0" d="M588.836 39.529c-.121-1.253-1.577-1.617-2.547-2.062-3.719-1.819-3.315-6.387-4.73-9.742-1.132-2.708-2.83-5.174-4.891-7.357-2.183-2.587-2.991-3.396-10.268-7.236-5.457-2.506-11.602-3.719-17.585-3.719-14.755.04-27.368 7.196-32.259 17.302-.323.606-.566 1.253-.808 1.9a20.635 20.635 0 0 0-1.334 7.357c0 .526.04 1.091.081 1.617 3.557 3.679 7.276 6.468 11.076 8.53.93.526 1.9.97 2.83 1.415 1.172.526 2.385 1.011 3.557 1.374.728.243 1.415.445 2.143.647.97.243 1.9.485 2.87.687.728.162 1.415.283 2.142.364-.728-.121-1.415-.243-2.142-.364-.97-.202-1.9-.404-2.87-.687a42.563 42.563 0 0 1-2.143-.647 37.994 37.994 0 0 1-3.557-1.374c-.97-.404-1.9-.889-2.83-1.415-3.76-2.062-7.479-4.851-11.076-8.53.162 1.819.526 3.638 1.132 5.336 2.506 8.53 13.906 25.831 16.372 25.831h7.64c1.011 0 1.698-.364 2.142-.93.606-.768.768-1.94.728-3.072-.04-.687-.283-3.194-.121-3.881.04-.162.121-1.172.202-1.334 0 0 0-.04.04-.04 2.021.283 4.083.808 6.185.808 2.506 0 5.053-.202 7.559-.647.445 2.183 1.536 9.015 3.679 9.015l6.953-.04c.97 0 3.436-.364 3.962-1.091.243-.323.404-.728.485-1.172.404-2.425-.081-4.932-.243-7.357a3.935 3.935 0 0 1 0-.97c.04-.445.081-.849.243-1.294.202-.566.647-1.091 1.051-1.536a25.202 25.202 0 0 0 2.506-2.062c2.304-2.264 2.789-2.911 6.104-3.679 2.021-.445 3.881-1.374 5.7-2.304.889-.445 1.213-1.172 1.213-2.102v-.121c0-1.213.04-2.264.445-3.477.161-.566.444-1.254.364-1.941zm-46.893 11.4c1.172.081 2.345.121 3.517.162-1.173 0-2.345-.081-3.517-.162zm28.095-5.013c-.202.081-.445.162-.647.243-3.194 1.213-6.751 2.385-10.551 3.274a55.642 55.642 0 0 1-4.528.889c-.647.121-1.334.202-1.981.283-1.132.162-2.264.243-3.396.323-.445.04-.93.04-1.374.081.445 0 .93-.04 1.374-.081 1.132-.081 2.264-.202 3.396-.323.687-.081 1.334-.202 1.981-.283 1.536-.243 3.072-.566 4.528-.889a86.285 86.285 0 0 0 10.551-3.274c.243-.081.445-.162.647-.243 2.789-1.091 5.579-2.304 8.489-2.668-2.91.364-5.7 1.577-8.489 2.668zm9.864-2.789h1.051-1.051zm5.134.768c-.323-.121-.687-.202-1.011-.283a30.59 30.59 0 0 0-2.062-.404c.687.081 1.374.202 2.062.404.364.081.687.162 1.011.283.323.121.647.202 1.011.323a9.94 9.94 0 0 0-1.011-.323z"/><path class="st1" d="M568.947 11.757l.161-.161"/><path class="st0" d="M515.343 29.302c-.728-.445-1.294-1.132-1.738-2.102 1.657-.728 3.072-1.981 4.204-3.76.889-1.415.97-3.072.162-4.204-.404-.606-1.455-1.536-3.557-1.334-1.091.121-2.062.606-2.749 1.415-1.294 1.496-1.536 3.84-1.374 5.376l.121.728c-1.334.081-2.345 0-3.719-.243-.606-.121-1.334-.445-1.9-.647l-4.002-1.86c1.738 2.183 7.802 5.417 10.308 5.174.606 1.496 1.536 2.668 2.789 3.436.93.566 1.981.889 3.032 1.011.243-.808.566-1.617 1.051-2.345-.93.002-1.86-.201-2.628-.645zm-2.425-4.811c-.162-1.172.081-2.789.808-3.598.283-.323.566-.485.97-.526h.202c.323 0 .445.081.606.323.202.283.243 1.011-.202 1.698-.728 1.172-1.374 1.94-2.345 2.466.001-.161-.039-.242-.039-.363z"/><path class="st2" d="M525.692 19.6c-4.164 3.477-5.538 5.983-6.427 9.338-.121.404-.202.808-.283 1.213-.121.808-.202 1.617-.162 2.425 0-.04 0-.081.04-.081 1.011-3.76 3.517-7.034 7.398-10.025 2.911-2.223 7.357-4.528 10.43-5.296-1.455-.849-1.698-1.779-1.779-2.587 0 0-5.821 2.183-9.217 5.013z"/><path class="st3" d="M576.223 30.191c-1.011.162-1.617 1.455-1.374 2.87.243 1.415 1.253 2.425 2.264 2.264 1.011-.162 1.617-1.455 1.374-2.87-.243-1.415-1.253-2.466-2.264-2.264z"/><path class="st0" d="M563.004 15.84c2.345 4.002 6.791 5.902 10.551 4.528.404-.162.647-.566.566-.97-.243-1.657-.283-3.194.081-4.649.323-1.374 1.011-2.668 2.143-3.962.809-.93-.364-2.466-1.779-2.708-1.536-.243-3.153.081-4.285.889-3.84 2.749-6.751 5.7-7.074 6.023-.284.324-.445.405-.203.849z"/><path class="st4" d="M568.906 17.942c1.091-.93 2.426-1.577 3.881-1.698-.081-.445-.162-.849-.121-1.213.202-1.455.889-2.143 1.779-3.315.162-.202.526-.808.606-1.051.404-1.051-1.657-1.091-2.264-.93-1.536.323-3.274 1.617-4.325 3.194-1.173 1.739-1.052 3.882.444 5.013z"/><path class="st5" d="M556.617 12.323c-3.962-1.294-11.804-1.213-15.766.243-.687.243-.93.97-.445 1.455l.04.04c.364.364.97.485 1.496.283 3.274-1.253 10.551-1.496 13.785-.202.485.202 1.091.04 1.415-.323l.04-.04c.405-.485.122-1.213-.565-1.456z"/><defs><path id="SVGID_1_" d="M588.836 39.529c-.121-1.253-1.577-1.617-2.547-2.062-3.719-1.819-3.315-6.387-4.73-9.742-1.132-2.708-2.83-5.174-4.891-7.357-2.183-2.587-2.991-3.396-10.268-7.236-5.457-2.506-11.602-3.719-17.585-3.719-14.755.04-27.368 7.196-32.259 17.302-.323.606-.566 1.253-.808 1.9a20.635 20.635 0 0 0-1.334 7.357c0 .526.04 1.091.081 1.617 3.557 3.679 7.276 6.468 11.076 8.53.93.526 1.9.97 2.83 1.415 1.172.526 2.385 1.011 3.557 1.374.728.243 1.415.445 2.143.647.97.243 1.9.485 2.87.687.728.162 1.415.283 2.142.364-.728-.121-1.415-.243-2.142-.364-.97-.202-1.9-.404-2.87-.687a42.563 42.563 0 0 1-2.143-.647 37.994 37.994 0 0 1-3.557-1.374c-.97-.404-1.9-.889-2.83-1.415-3.76-2.062-7.479-4.851-11.076-8.53.162 1.819.526 3.638 1.132 5.336 2.506 8.53 13.906 25.831 16.372 25.831h7.64c1.011 0 1.698-.364 2.142-.93.606-.768.768-1.94.728-3.072-.04-.687-.283-3.194-.121-3.881.04-.162.121-1.172.202-1.334 0 0 0-.04.04-.04 2.021.283 4.083.808 6.185.808 2.506 0 5.053-.202 7.559-.647.445 2.183 1.536 9.015 3.679 9.015l6.953-.04c.97 0 3.436-.364 3.962-1.091.243-.323.404-.728.485-1.172.404-2.425-.081-4.932-.243-7.357a3.935 3.935 0 0 1 0-.97c.04-.445.081-.849.243-1.294.202-.566.647-1.091 1.051-1.536a25.202 25.202 0 0 0 2.506-2.062c2.304-2.264 2.789-2.911 6.104-3.679 2.021-.445 3.881-1.374 5.7-2.304.889-.445 1.213-1.172 1.213-2.102v-.121c0-1.213.04-2.264.445-3.477.161-.566.444-1.254.364-1.941zm-46.893 11.4c1.172.081 2.345.121 3.517.162-1.173 0-2.345-.081-3.517-.162zm28.095-5.013c-.202.081-.445.162-.647.243-3.194 1.213-6.751 2.385-10.551 3.274a55.642 55.642 0 0 1-4.528.889c-.647.121-1.334.202-1.981.283-1.132.162-2.264.243-3.396.323-.445.04-.93.04-1.374.081.445 0 .93-.04 1.374-.081 1.132-.081 2.264-.202 3.396-.323.687-.081 1.334-.202 1.981-.283 1.536-.243 3.072-.566 4.528-.889a86.285 86.285 0 0 0 10.551-3.274c.243-.081.445-.162.647-.243 2.789-1.091 5.579-2.304 8.489-2.668-2.91.364-5.7 1.577-8.489 2.668zm9.864-2.789h1.051-1.051zm5.134.768c-.323-.121-.687-.202-1.011-.283a30.59 30.59 0 0 0-2.062-.404c.687.081 1.374.202 2.062.404.364.081.687.162 1.011.283.323.121.647.202 1.011.323a9.94 9.94 0 0 0-1.011-.323z"/></defs><clipPath id="SVGID_2_"><use xlink:href="#SVGID_1_" overflow="visible"/></clipPath><linearGradient id="SVGID_3_" gradientUnits="userSpaceOnUse" x1="474.73" y1="-65.134" x2="474.73" y2="-96.29" gradientTransform="matrix(.5988 0 0 -.5988 266.991 4.47)"><stop offset="0" stop-color="#f6a9c2" stop-opacity=".7"/><stop offset="1" stop-color="#b16073"/></linearGradient><path class="st6" d="M520.316 53.314c4.325 7.681 9.985 15.442 11.602 15.442h7.64c.647 0 1.698-.323 2.021-.728 1.819-1.86.243-5.781.808-7.276.04-.162.081-1.051.202-1.213 0 0 0-.04.04-.04 2.021.283 4.083.808 6.225.808 2.506 0 5.053-.202 7.559-.647.445 2.183 1.536 9.055 3.679 9.055l6.953-.04c.97 0 3.436-.364 3.962-1.091 1.334-2.547.202-6.347.243-8.327 0-.081-.121-1.172 0-1.172.04-.445.081-.849.243-1.294.202-.566.647-1.091 1.051-1.536.889-.647 1.738-1.334 2.506-2.102 2.304-2.264 2.83-2.951 6.104-3.679 2.021-.445 3.881-1.374 5.7-2.304.889-.445 1.213-1.172 1.213-2.102v-.121c-2.587-1.172-5.296-1.981-8.085-1.9-3.679.121-7.074 1.738-10.51 3.032-3.194 1.213-6.751 2.385-10.551 3.274-13.542 3.194-30.157 2.911-44.467-11.885.162 1.86.526 3.638 1.132 5.336.808 2.91 2.587 6.71 4.73 10.51"/><g><defs><path id="SVGID_4_" d="M588.836 39.529c-.121-1.253-1.577-1.617-2.547-2.062-3.719-1.819-3.315-6.387-4.73-9.742-1.132-2.708-2.83-5.174-4.891-7.357-2.183-2.587-2.991-3.396-10.268-7.236-5.457-2.506-11.602-3.719-17.585-3.719-14.755.04-27.368 7.196-32.259 17.302-.323.606-.566 1.253-.808 1.9a20.635 20.635 0 0 0-1.334 7.357c0 .526.04 1.091.081 1.617 3.557 3.679 7.276 6.468 11.076 8.53.93.526 1.9.97 2.83 1.415 1.172.526 2.385 1.011 3.557 1.374.728.243 1.415.445 2.143.647.97.243 1.9.485 2.87.687.728.162 1.415.283 2.142.364-.728-.121-1.415-.243-2.142-.364-.97-.202-1.9-.404-2.87-.687a42.563 42.563 0 0 1-2.143-.647 37.994 37.994 0 0 1-3.557-1.374c-.97-.404-1.9-.889-2.83-1.415-3.76-2.062-7.479-4.851-11.076-8.53.162 1.819.526 3.638 1.132 5.336 2.506 8.53 13.906 25.831 16.372 25.831h7.64c1.011 0 1.698-.364 2.142-.93.606-.768.768-1.94.728-3.072-.04-.687-.283-3.194-.121-3.881.04-.162.121-1.172.202-1.334 0 0 0-.04.04-.04 2.021.283 4.083.808 6.185.808 2.506 0 5.053-.202 7.559-.647.445 2.183 1.536 9.015 3.679 9.015l6.953-.04c.97 0 3.436-.364 3.962-1.091.243-.323.404-.728.485-1.172.404-2.425-.081-4.932-.243-7.357a3.935 3.935 0 0 1 0-.97c.04-.445.081-.849.243-1.294.202-.566.647-1.091 1.051-1.536a25.202 25.202 0 0 0 2.506-2.062c2.304-2.264 2.789-2.911 6.104-3.679 2.021-.445 3.881-1.374 5.7-2.304.889-.445 1.213-1.172 1.213-2.102v-.121c0-1.213.04-2.264.445-3.477.161-.566.444-1.254.364-1.941zm-46.893 11.4c1.172.081 2.345.121 3.517.162-1.173 0-2.345-.081-3.517-.162zm28.095-5.013c-.202.081-.445.162-.647.243-3.194 1.213-6.751 2.385-10.551 3.274a55.642 55.642 0 0 1-4.528.889c-.647.121-1.334.202-1.981.283-1.132.162-2.264.243-3.396.323-.445.04-.93.04-1.374.081.445 0 .93-.04 1.374-.081 1.132-.081 2.264-.202 3.396-.323.687-.081 1.334-.202 1.981-.283 1.536-.243 3.072-.566 4.528-.889a86.285 86.285 0 0 0 10.551-3.274c.243-.081.445-.162.647-.243 2.789-1.091 5.579-2.304 8.489-2.668-2.91.364-5.7 1.577-8.489 2.668zm9.864-2.789h1.051-1.051zm5.134.768c-.323-.121-.687-.202-1.011-.283a30.59 30.59 0 0 0-2.062-.404c.687.081 1.374.202 2.062.404.364.081.687.162 1.011.283.323.121.647.202 1.011.323a9.94 9.94 0 0 0-1.011-.323z"/></defs><clipPath id="SVGID_5_"><use xlink:href="#SVGID_4_" overflow="visible"/></clipPath><linearGradient id="SVGID_6_" gradientUnits="userSpaceOnUse" x1="496.312" y1="-96.056" x2="503.132" y2="-97.283" gradientTransform="matrix(.5988 0 0 -.5988 266.991 4.47)"><stop offset="0" stop-color="#f493aa" stop-opacity="0"/><stop offset=".307" stop-color="#f6a2b8" stop-opacity=".308"/><stop offset=".697" stop-color="#f5aec6" stop-opacity=".697"/><stop offset="1" stop-color="#f7b3cb"/></linearGradient><path class="st7" d="M571.089 67.301c-1.86.808-5.094.445-6.549.162a3.92 3.92 0 0 1-.647-.202c-1.011-.566-1.172-2.021-1.294-3.032-.121-.97-.566-2.789.283-3.477 2.183-1.779 5.336-2.385 8.044-2.87.081 0 .162-.04.283-.04-.04.93 0 1.819.081 2.668.365 3.153.486 5.538-.201 6.791z"/></g><g><defs><path id="SVGID_7_" d="M588.836 39.529c-.121-1.253-1.577-1.617-2.547-2.062-3.719-1.819-3.315-6.387-4.73-9.742-1.132-2.708-2.83-5.174-4.891-7.357-2.183-2.587-2.991-3.396-10.268-7.236-5.457-2.506-11.602-3.719-17.585-3.719-14.755.04-27.368 7.196-32.259 17.302-.323.606-.566 1.253-.808 1.9a20.635 20.635 0 0 0-1.334 7.357c0 .526.04 1.091.081 1.617 3.557 3.679 7.276 6.468 11.076 8.53.93.526 1.9.97 2.83 1.415 1.172.526 2.385 1.011 3.557 1.374.728.243 1.415.445 2.143.647.97.243 1.9.485 2.87.687.728.162 1.415.283 2.142.364-.728-.121-1.415-.243-2.142-.364-.97-.202-1.9-.404-2.87-.687a42.563 42.563 0 0 1-2.143-.647 37.994 37.994 0 0 1-3.557-1.374c-.97-.404-1.9-.889-2.83-1.415-3.76-2.062-7.479-4.851-11.076-8.53.162 1.819.526 3.638 1.132 5.336 2.506 8.53 13.906 25.831 16.372 25.831h7.64c1.011 0 1.698-.364 2.142-.93.606-.768.768-1.94.728-3.072-.04-.687-.283-3.194-.121-3.881.04-.162.121-1.172.202-1.334 0 0 0-.04.04-.04 2.021.283 4.083.808 6.185.808 2.506 0 5.053-.202 7.559-.647.445 2.183 1.536 9.015 3.679 9.015l6.953-.04c.97 0 3.436-.364 3.962-1.091.243-.323.404-.728.485-1.172.404-2.425-.081-4.932-.243-7.357a3.935 3.935 0 0 1 0-.97c.04-.445.081-.849.243-1.294.202-.566.647-1.091 1.051-1.536a25.202 25.202 0 0 0 2.506-2.062c2.304-2.264 2.789-2.911 6.104-3.679 2.021-.445 3.881-1.374 5.7-2.304.889-.445 1.213-1.172 1.213-2.102v-.121c0-1.213.04-2.264.445-3.477.161-.566.444-1.254.364-1.941zm-46.893 11.4c1.172.081 2.345.121 3.517.162-1.173 0-2.345-.081-3.517-.162zm28.095-5.013c-.202.081-.445.162-.647.243-3.194 1.213-6.751 2.385-10.551 3.274a55.642 55.642 0 0 1-4.528.889c-.647.121-1.334.202-1.981.283-1.132.162-2.264.243-3.396.323-.445.04-.93.04-1.374.081.445 0 .93-.04 1.374-.081 1.132-.081 2.264-.202 3.396-.323.687-.081 1.334-.202 1.981-.283 1.536-.243 3.072-.566 4.528-.889a86.285 86.285 0 0 0 10.551-3.274c.243-.081.445-.162.647-.243 2.789-1.091 5.579-2.304 8.489-2.668-2.91.364-5.7 1.577-8.489 2.668zm9.864-2.789h1.051-1.051zm5.134.768c-.323-.121-.687-.202-1.011-.283a30.59 30.59 0 0 0-2.062-.404c.687.081 1.374.202 2.062.404.364.081.687.162 1.011.283.323.121.647.202 1.011.323a9.94 9.94 0 0 0-1.011-.323z"/></defs><clipPath id="SVGID_8_"><use xlink:href="#SVGID_7_" overflow="visible"/></clipPath><linearGradient id="SVGID_9_" gradientUnits="userSpaceOnUse" x1="445.103" y1="-98.515" x2="457.483" y2="-100.753" gradientTransform="matrix(.5988 0 0 -.5988 266.991 4.47)"><stop offset="0" stop-color="#f493aa" stop-opacity="0"/><stop offset=".307" stop-color="#f6a2b8" stop-opacity=".308"/><stop offset=".697" stop-color="#f5aec6" stop-opacity=".697"/><stop offset="1" stop-color="#f7b3cb"/></linearGradient><path class="st8" d="M542.387 60.712c-1.091-.566-6.67-.606-8.813 2.143-.97 1.253-.93 4.528.808 5.134 1.455.526 4.608.364 6.145.202 1.051-.081 1.334-.162 1.859-1.779 0 0 .121-1.132.121-1.294-.079-2.223-.281-3.234-.12-4.406z"/></g><g><linearGradient id="SVGID_10_" gradientUnits="userSpaceOnUse" x1="496.593" y1="-97.66" x2="496.593" y2="-107.367" gradientTransform="matrix(.5988 0 0 -.5988 266.991 4.47)"><stop offset="0" stop-color="#010101" stop-opacity="0"/><stop offset=".859" stop-color="#010101" stop-opacity=".258"/><stop offset="1" stop-color="#010101" stop-opacity=".3"/></linearGradient><path class="st9" d="M557.102 63.299c.606 2.587 1.577 5.417 2.951 5.417l6.953-.04c.97 0 3.436-.364 3.962-1.091.808-1.577.687-3.679.485-5.498"/></g><g><defs><path id="SVGID_11_" d="M542.387 63.339c-.04-.445-.04-.93-.081-1.334m-15.118 1.941c2.143 2.87 3.962 4.811 4.77 4.811h7.64c1.011 0 1.698-.364 2.143-.93.606-.768.768-1.94.728-3.072 0-.243-.04-.808-.081-1.415"/></defs><clipPath id="SVGID_12_"><use xlink:href="#SVGID_11_" overflow="visible"/></clipPath><linearGradient id="SVGID_13_" gradientUnits="userSpaceOnUse" x1="428.419" y1="-83.69" x2="428.419" y2="-98.522" gradientTransform="matrix(.5988 0 0 -.5988 266.991 4.47)"><stop offset="0" stop-color="#f6a9c2"/><stop offset=".299" stop-color="#e593ab"/><stop offset=".751" stop-color="#d3788f"/><stop offset="1" stop-color="#ce7087"/></linearGradient><path class="st10" d="M520.316 53.314c2.021 3.638 4.366 7.276 6.428 10.106"/><g><defs><path id="SVGID_14_" d="M542.387 63.339c-.04-.445-.04-.93-.081-1.334m-15.118 1.941c2.143 2.87 3.962 4.811 4.77 4.811h7.64c1.011 0 1.698-.364 2.143-.93.606-.768.768-1.94.728-3.072 0-.243-.04-.808-.081-1.415"/></defs><clipPath id="SVGID_15_"><use xlink:href="#SVGID_14_" overflow="visible"/></clipPath><linearGradient id="SVGID_16_" gradientUnits="userSpaceOnUse" x1="446.937" y1="-99.45" x2="446.937" y2="-107.438" gradientTransform="matrix(.5988 0 0 -.5988 266.991 4.47)"><stop offset="0" stop-color="#010101" stop-opacity="0"/><stop offset=".859" stop-color="#010101" stop-opacity=".258"/><stop offset="1" stop-color="#010101" stop-opacity=".3"/></linearGradient><path class="st11" d="M526.743 63.42c2.304 3.194 4.325 5.376 5.174 5.376h7.64c.647 0 1.698-.323 2.021-.728 1.091-1.132.97-3.032.808-4.689"/></g></g><path class="st5" d="M542.913 58.327c3.355 1.091 9.985 1.011 13.34-.243.566-.202.768-.808.364-1.213l-.04-.04c-.323-.323-.808-.404-1.253-.243-2.749 1.051-8.934 1.294-11.642.202-.404-.162-.93-.04-1.213.283l-.04.04c-.325.405-.082 1.012.484 1.214z"/></svg>