<?xml version="1.0" encoding="utf-8"?>
<!-- Generator: Adobe Illustrator 22.1.0, SVG Export Plug-In . SVG Version: 6.00 Build 0)  -->
<svg version="1.1" id="Layer_1" xmlns="http://www.w3.org/2000/svg" xmlns:xlink="http://www.w3.org/1999/xlink" x="0px" y="0px"
	 viewBox="0 0 320 50" style="enable-background:new 0 0 320 50;" xml:space="preserve">
<style type="text/css">
	.st0{fill:#B8E0D2;}
	.st1{fill:#FFFDF6;}
	.st2{fill:#898F95;}
	.st3{fill:#3F2718;}
	.st4{fill:#FFDD15;}
	.st5{fill:#E01B22;}
	.st6{fill:#FFFFFF;}
</style>
<rect x="287.2" y="14.1" transform="matrix(0.3239 -0.9461 0.9461 0.3239 183.0517 296.1877)" class="st0" width="23.1" height="11.9"/>
<path class="st1" d="M289.2,28.8l11.7,4l7.6-22.1l-11.7-4L289.2,28.8z M297.1,7.3l10.7,3.6l-7.2,21.1l-10.7-3.6L297.1,7.3z"/>
<path class="st2" d="M298.4,19.1l-3.3,9.7c0,0.1-0.2,0.2-0.3,0.1c-0.1,0-0.2-0.2-0.1-0.3L298,19c0-0.1,0.2-0.2,0.3-0.1
	C298.4,18.9,298.4,19,298.4,19.1"/>
<path class="st2" d="M301.1,21.7l-2.8,8.2c0,0.1-0.2,0.2-0.3,0.1c-0.1,0-0.2-0.2-0.1-0.3l2.8-8.2c0-0.1,0.2-0.2,0.3-0.1
	C301,21.5,301.1,21.6,301.1,21.7"/>
<path class="st2" d="M304.4,11.9l-2.8,8.2c0,0.1-0.2,0.2-0.3,0.1c-0.1,0-0.2-0.2-0.1-0.3l2.8-8.2c0-0.1,0.2-0.2,0.3-0.1
	C304.4,11.7,304.5,11.8,304.4,11.9"/>
<path class="st2" d="M303,11.4l-6.2,18c0,0.1-0.2,0.2-0.3,0.1c-0.1,0-0.2-0.2-0.1-0.3l6.2-18c0-0.1,0.2-0.2,0.3-0.1
	C303,11.2,303,11.3,303,11.4"/>
<path class="st2" d="M299,10l-2,5.9c0,0.1-0.2,0.2-0.3,0.1c-0.1,0-0.2-0.2-0.1-0.3l2-5.9c0-0.1,0.2-0.2,0.3-0.1
	C298.9,9.8,299,9.9,299,10"/>
<path class="st2" d="M294.6,22.1l-2,5.9c0,0.1-0.2,0.2-0.3,0.1c-0.1,0-0.2-0.2-0.1-0.3l2-5.9c0-0.1,0.2-0.2,0.3-0.1
	C294.6,21.9,294.6,22,294.6,22.1"/>
<path class="st2" d="M295.6,22.5l-2,5.9c0,0.1-0.2,0.2-0.3,0.1c-0.1,0-0.2-0.2-0.1-0.3l2-5.9c0-0.1,0.2-0.2,0.3-0.1
	C295.6,22.2,295.6,22.4,295.6,22.5"/>
<rect x="296.5" y="12.5" transform="matrix(0.3239 -0.9461 0.9461 0.3239 189.9857 292.5687)" class="st1" width="6.4" height="1.8"/>
<path class="st2" d="M298.5,16.8c0,0-0.1,0-0.1,0.1c0,0-0.1,0.1-0.2,0.1c-0.1,0.1-0.1,0.1-0.1,0.1c0,0-0.1,0-0.1,0
	c0,0-0.1,0-0.1-0.1c0,0,0-0.1,0-0.1c0-0.1,0.1-0.1,0.2-0.1c0,0,0,0,0,0s0,0,0,0l0-0.2c0,0,0,0,0,0c-0.1,0-0.2,0-0.2,0.1
	c0,0-0.1,0.1-0.1,0.1l-0.1,0c0,0,0,0,0,0l-0.1,0.1c0,0,0,0,0,0l0.1,0c0,0,0,0.1,0,0.1c0,0,0,0.1,0,0.1c0,0,0,0.1,0.1,0.1
	c0,0,0.1,0,0.1,0.1c0.1,0,0.2,0,0.3,0c0.1,0,0.1-0.1,0.2-0.2c0,0,0.1-0.1,0.1-0.1c0,0,0.1,0,0.1-0.1c0,0,0.1,0,0.1,0
	c0.1,0,0.1,0.1,0.1,0.1c0,0,0,0.1,0,0.2c0,0.1-0.1,0.1-0.1,0.1c0,0-0.1,0-0.2,0c0,0,0,0,0,0l0,0.2c0,0,0,0,0,0c0,0,0,0,0,0
	c0.1,0,0.3,0,0.3,0c0.1,0,0.1-0.1,0.2-0.2l0.1,0c0,0,0,0,0,0l0.1-0.1c0,0,0,0,0,0l-0.2-0.1c0-0.1,0-0.2-0.1-0.3
	c-0.1-0.1-0.1-0.2-0.2-0.2C298.7,16.7,298.6,16.7,298.5,16.8"/>
<path class="st3" d="M295.4,30L295.4,30c-0.2,0.2-0.6,0.2-0.8,0l-4.5-4c-0.2-0.2-0.2-0.6,0-0.8c0.2-0.2,0.6-0.2,0.8,0l4.5,4
	C295.6,29.4,295.6,29.8,295.4,30"/>
<rect x="288.2" y="29.2" transform="matrix(0.7071 -0.7071 0.7071 0.7071 64.2833 214.2118)" class="st3" width="5" height="0.7"/>
<rect x="310" y="9.1" class="st3" width="0.7" height="17.8"/>
<path class="st4" d="M311.6,8.3c0,0.7-0.5,1.2-1.2,1.2c-0.7,0-1.2-0.5-1.2-1.2c0-0.7,0.5-1.2,1.2-1.2C311,7.1,311.6,7.7,311.6,8.3"
	/>
<path class="st4" d="M304.9,33L304.9,33c-0.8-0.3-1.1-1.2-0.8-2l3.2-7.2c0.3-0.8,1.2-1.1,2-0.8c0.8,0.3,1.1,1.2,0.8,2l-3.2,7.2
	C306.5,33,305.6,33.3,304.9,33"/>
<path class="st5" d="M310.9,24.9c-3,1.9-3.7,6.5-3.7,6.5h-13.7c-3.4,0-3.9-3.1-3.9-3.1c-0.9-4.8-4.7-6.8-6-7.4
	c-4.5,3.5-7.4,9-7.4,15.1c0,1.2,0.1,2.3,0.3,3.5h37.7c0.2-1.1,0.3-2.3,0.3-3.5C314.4,31.8,313.1,28,310.9,24.9"/>
<path class="st3" d="M315.9,43.9h-41.4c-1.6,0-2.9-1.3-2.9-2.9c0-1.6,1.3-2.9,2.9-2.9h41.4c1.6,0,2.9,1.3,2.9,2.9
	C318.8,42.6,317.5,43.9,315.9,43.9"/>
<path class="st3" d="M281.9,33.9c0,1.8-0.9,3.2-2.1,3.2c-1.2,0-2.1-1.4-2.1-3.2s0.9-3.2,2.1-3.2C280.9,30.7,281.9,32.1,281.9,33.9"
	/>
<path class="st6" d="M280.3,30.8c-0.9,0.4-1.5,1.6-1.5,3c0,1.5,0.7,2.7,1.5,3c0.9-0.4,1.5-1.6,1.5-3
	C281.9,32.4,281.2,31.2,280.3,30.8"/>
<path class="st6" d="M308.4,32.3h-18.6c-0.3,0-0.6-0.3-0.6-0.6c0-0.3,0.3-0.6,0.6-0.6h18.6c0.3,0,0.6,0.3,0.6,0.6
	C309,32,308.7,32.3,308.4,32.3"/>
</svg>
