<?xml version="1.0" encoding="utf-8"?>
<!-- Generator: Adobe Illustrator 22.1.0, SVG Export Plug-In . SVG Version: 6.00 Build 0)  -->
<svg version="1.1" id="Layer_1" xmlns="http://www.w3.org/2000/svg" xmlns:xlink="http://www.w3.org/1999/xlink" x="0px" y="0px"
	 viewBox="0 0 320 50" style="enable-background:new 0 0 320 50;" xml:space="preserve">
<style type="text/css">
	.st0{fill:#B8E0D2;}
	.st1{fill:#FFFDF6;}
	.st2{fill:#898F95;}
	.st3{fill:#3F2718;}
	.st4{fill:#FFDD15;}
	.st5{fill:#E01B22;}
	.st6{fill:#FFFFFF;}
</style>
<rect x="13.5" y="11.1" transform="matrix(0.9461 -0.3239 0.3239 0.9461 -6.3016 7.5181)" class="st0" width="11.9" height="23.1"/>
<path class="st1" d="M29,31.5l-11.7,4L9.7,13.3l11.7-4L29,31.5z M21,10l-10.7,3.6l7.2,21.1l10.7-3.6L21,10z"/>
<path class="st2" d="M19.8,21.8l3.3,9.7c0,0.1,0.2,0.2,0.3,0.1c0.1,0,0.2-0.2,0.1-0.3l-3.3-9.7c0-0.1-0.2-0.2-0.3-0.1
	C19.8,21.6,19.8,21.7,19.8,21.8"/>
<path class="st2" d="M17.1,24.4l2.8,8.2c0,0.1,0.2,0.2,0.3,0.1c0.1,0,0.2-0.2,0.1-0.3l-2.8-8.2c0-0.1-0.2-0.2-0.3-0.1
	C17.2,24.2,17.1,24.3,17.1,24.4"/>
<path class="st2" d="M13.8,14.6l2.8,8.2c0,0.1,0.2,0.2,0.3,0.1c0.1,0,0.2-0.2,0.1-0.3l-2.8-8.2c0-0.1-0.2-0.2-0.3-0.1
	C13.8,14.3,13.7,14.5,13.8,14.6"/>
<path class="st2" d="M15.2,14.1l6.2,18c0,0.1,0.2,0.2,0.3,0.1c0.1,0,0.2-0.2,0.1-0.3l-6.2-18c0-0.1-0.2-0.2-0.3-0.1
	C15.2,13.9,15.1,14,15.2,14.1"/>
<path class="st2" d="M19.2,12.7l2,5.9c0,0.1,0.2,0.2,0.3,0.1c0.1,0,0.2-0.2,0.1-0.3l-2-5.9c0-0.1-0.2-0.2-0.3-0.1
	C19.2,12.4,19.2,12.5,19.2,12.7"/>
<path class="st2" d="M23.6,24.8l2,5.9c0,0.1,0.2,0.2,0.3,0.1c0.1,0,0.2-0.2,0.1-0.3l-2-5.9c0-0.1-0.2-0.2-0.3-0.1
	C23.6,24.6,23.6,24.7,23.6,24.8"/>
<path class="st2" d="M22.6,25.1l2,5.9c0,0.1,0.2,0.2,0.3,0.1c0.1,0,0.2-0.2,0.1-0.3L23,25c0-0.1-0.2-0.2-0.3-0.1
	C22.6,24.9,22.6,25,22.6,25.1"/>
<rect x="17.6" y="12.8" transform="matrix(0.9461 -0.3239 0.3239 0.9461 -4.1935 6.8541)" class="st1" width="1.8" height="6.4"/>
<path class="st2" d="M19.7,19.5c0,0,0.1,0,0.1,0.1c0,0,0.1,0.1,0.2,0.1c0.1,0.1,0.1,0.1,0.1,0.1c0,0,0.1,0,0.1,0c0,0,0.1,0,0.1-0.1
	c0,0,0-0.1,0-0.1c0-0.1-0.1-0.1-0.2-0.1c0,0,0,0,0,0c0,0,0,0,0,0l0-0.2c0,0,0,0,0,0c0.1,0,0.2,0,0.2,0.1c0,0,0.1,0.1,0.1,0.1l0.1,0
	c0,0,0,0,0,0l0.1,0.1c0,0,0,0,0,0l-0.1,0c0,0,0,0.1,0,0.1c0,0,0,0.1,0,0.1c0,0,0,0.1-0.1,0.1c0,0-0.1,0-0.1,0.1c-0.1,0-0.2,0-0.3,0
	c-0.1,0-0.1-0.1-0.2-0.2c0,0-0.1-0.1-0.1-0.1c0,0-0.1,0-0.1-0.1c0,0-0.1,0-0.1,0c-0.1,0-0.1,0.1-0.1,0.1c0,0,0,0.1,0,0.2
	c0,0.1,0.1,0.1,0.1,0.1c0,0,0.1,0,0.2,0c0,0,0,0,0,0l0,0.2c0,0,0,0,0,0c0,0,0,0,0,0c-0.1,0-0.3,0-0.3,0c-0.1,0-0.1-0.1-0.2-0.2
	l-0.1,0c0,0,0,0,0,0L18.9,20c0,0,0,0,0,0l0.2-0.1c0-0.1,0-0.2,0.1-0.3c0.1-0.1,0.1-0.2,0.2-0.2C19.5,19.4,19.6,19.4,19.7,19.5"/>
<path class="st3" d="M24.4,29.5L24.4,29.5c0.2,0.2,0.6,0.2,0.8,0l4.5-4c0.2-0.2,0.2-0.6,0-0.8c-0.2-0.2-0.6-0.2-0.8,0l-4.5,4
	C24.2,28.9,24.2,29.3,24.4,29.5"/>
<rect x="28.7" y="26.5" transform="matrix(0.6162 -0.7876 0.7876 0.6162 -11.6753 34.0182)" class="st3" width="0.7" height="5"/>
<rect x="9.1" y="8.5" class="st3" width="0.7" height="17.8"/>
<path class="st4" d="M8.2,7.8C8.2,8.5,8.8,9,9.4,9s1.2-0.5,1.2-1.2c0-0.7-0.5-1.2-1.2-1.2S8.2,7.2,8.2,7.8"/>
<path class="st4" d="M14.9,32.4L14.9,32.4c0.8-0.3,1.1-1.2,0.8-2l-3.2-7.2c-0.3-0.8-1.2-1.1-2-0.8c-0.8,0.3-1.1,1.2-0.8,2l3.2,7.2
	C13.2,32.4,14.1,32.8,14.9,32.4"/>
<path class="st5" d="M8.9,24.3c3,1.9,3.7,6.5,3.7,6.5h13.7c3.4,0,3.9-3.1,3.9-3.1c0.9-4.8,4.7-6.8,6-7.4c4.5,3.5,7.4,9,7.4,15.1
	c0,1.2-0.1,2.3-0.3,3.5H5.7c-0.2-1.1-0.3-2.3-0.3-3.5C5.4,31.3,6.7,27.5,8.9,24.3"/>
<path class="st3" d="M3.9,43.4h41.4c1.6,0,2.9-1.3,2.9-2.9c0-1.6-1.3-2.9-2.9-2.9H3.9c-1.6,0-2.9,1.3-2.9,2.9
	C1,42.1,2.3,43.4,3.9,43.4"/>
<path class="st3" d="M37.9,33.3c0,1.8,0.9,3.2,2.1,3.2c1.2,0,2.1-1.4,2.1-3.2c0-1.8-0.9-3.2-2.1-3.2C38.8,30.2,37.9,31.6,37.9,33.3"
	/>
<path class="st6" d="M39.4,30.3c0.9,0.4,1.5,1.6,1.5,3c0,1.5-0.7,2.7-1.5,3c-0.9-0.4-1.5-1.6-1.5-3C37.9,31.9,38.6,30.7,39.4,30.3"
	/>
<path class="st6" d="M11.4,31.7H30c0.3,0,0.6-0.3,0.6-0.6c0-0.3-0.3-0.6-0.6-0.6H11.4c-0.3,0-0.6,0.3-0.6,0.6
	C10.8,31.5,11.1,31.7,11.4,31.7"/>
</svg>
