<?xml version="1.0" encoding="utf-8"?>
<!-- Generator: Adobe Illustrator 22.1.0, SVG Export Plug-In . SVG Version: 6.00 Build 0)  -->
<svg version="1.1" id="Layer_1" xmlns="http://www.w3.org/2000/svg" xmlns:xlink="http://www.w3.org/1999/xlink" x="0px" y="0px"
	 viewBox="0 0 300 50" style="enable-background:new 0 0 300 50;" xml:space="preserve">
<style type="text/css">
	.st0{fill:#231F20;}
</style>
<g>
	<path class="st0" d="M78.1,25.5c-2.1,0-4.2-1.4-4.2-4c0-2.6,2.2-4,4.2-4c1.1,0,2,0.3,2.5,0.6l-0.3,1.5c-0.5-0.3-1.2-0.5-1.9-0.5
		c-1.4,0-2.6,0.9-2.6,2.4c0,1.4,1.1,2.4,2.5,2.4c0.4,0,0.8-0.1,1-0.2v-1.2h-1.3V21h3v3.6C80.3,25.2,79.3,25.5,78.1,25.5z"/>
	<path class="st0" d="M87.2,22.3l-0.8,0.8h-2.7c0.1,0.4,0.7,0.9,1.6,0.9c0.6,0,1.1-0.2,1.5-0.4l-0.2,1.5c-0.4,0.2-1,0.4-1.7,0.4
		c-1.7,0-3-1.2-3-2.9c0-1.8,1.3-2.9,2.8-2.9c1.5,0,2.4,1,2.4,2.2C87.3,22,87.3,22.2,87.2,22.3z M84.9,21c-0.5,0-0.9,0.4-1.1,0.9h1.8
		c0,0,0-0.1,0-0.1C85.6,21.4,85.3,21,84.9,21z"/>
	<path class="st0" d="M92,21.3h-1.4v2c0,0.5,0.3,0.7,0.7,0.7c0.2,0,0.3,0,0.5-0.1l-0.2,1.3c-0.2,0.1-0.5,0.1-0.8,0.1
		c-1.2,0-2-0.6-2-1.7v-2.4h-0.9v-1.4h0.9v-1.2l1.8-0.6v1.8h1.8L92,21.3z"/>
	<path class="st0" d="M98.3,28.1c-1.6,0-2.6-0.9-2.6-2c0-0.8,0.6-1.3,1.1-1.5l-0.7-0.7c0-0.3,0.3-0.6,0.7-0.8
		c-0.4-0.3-0.8-0.8-0.8-1.5c0-1.2,0.8-2,2.2-2c0.3,0,0.6,0,0.8,0.1c0.2,0.1,0.5,0.1,0.8,0.1c0.3,0,0.6-0.1,0.9-0.2l0.3,1.3
		c-0.2,0.1-0.4,0.2-0.7,0.2c0.1,0.1,0.1,0.4,0.1,0.6c0,0.9-0.7,1.7-1.8,1.8c-0.2,0-0.4,0.1-0.4,0.2c0,0.1,0,0.1,0.1,0.2l0.8,0.3
		c1.1,0.4,1.6,0.9,1.6,1.9C100.9,27.2,99.9,28.1,98.3,28.1z M98.7,25.5L98,25.3c-0.4,0-0.7,0.3-0.7,0.7c0,0.4,0.3,0.7,1,0.7
		c0.6,0,1-0.3,1-0.6C99.2,25.9,99,25.6,98.7,25.5z M98.2,21c-0.4,0-0.7,0.3-0.7,0.6c0,0.4,0.3,0.6,0.7,0.6c0.4,0,0.7-0.3,0.7-0.6
		C98.9,21.3,98.6,21,98.2,21z"/>
	<path class="st0" d="M105.3,25.3v-0.7h0c-0.2,0.6-0.8,0.9-1.7,0.9c-1.2,0-1.9-0.7-1.9-1.8v-3.8h1.8v3.3c0,0.4,0.3,0.7,0.8,0.7
		c0.5,0,0.9-0.3,0.9-0.8v-3.3h1.8v5.4H105.3z"/>
	<path class="st0" d="M112,25.5c-0.3-0.1-0.7-0.3-0.8-0.7c-0.2,0.4-0.8,0.7-1.4,0.7c-1,0-1.8-0.7-1.8-1.8c0-1,0.8-1.7,1.9-1.8
		l1.1-0.1v-0.2c0-0.3-0.3-0.5-0.9-0.5c-0.5,0-1.1,0.2-1.5,0.4l-0.3-1.3c0.4-0.3,1.2-0.5,1.9-0.5c1.4,0,2.5,0.7,2.5,2v1.8
		c0,0.6,0.2,1,0.7,1.1L112,25.5z M110.9,22.9l-0.7,0.1c-0.5,0-0.7,0.4-0.7,0.7c0,0.3,0.2,0.5,0.6,0.5c0.4,0,0.8-0.3,0.8-0.8V22.9z"
		/>
	<path class="st0" d="M117.4,21.7c-0.1-0.1-0.3-0.1-0.5-0.1c-0.6,0-1.1,0.3-1.1,1.2v2.5H114v-5.4h1.7v1.2h0c0.2-0.9,0.8-1.3,1.5-1.3
		c0.2,0,0.4,0,0.5,0.1L117.4,21.7z"/>
	<path class="st0" d="M122.4,25.5c-0.3-0.1-0.7-0.3-0.8-0.7c-0.2,0.4-0.8,0.7-1.4,0.7c-1,0-1.8-0.7-1.8-1.8c0-1,0.8-1.7,1.9-1.8
		l1.1-0.1v-0.2c0-0.3-0.3-0.5-0.9-0.5c-0.5,0-1.1,0.2-1.5,0.4l-0.3-1.3c0.4-0.3,1.2-0.5,1.9-0.5c1.4,0,2.5,0.7,2.5,2v1.8
		c0,0.6,0.2,1,0.7,1.1L122.4,25.5z M121.2,22.9l-0.7,0.1c-0.5,0-0.7,0.4-0.7,0.7c0,0.3,0.2,0.5,0.6,0.5c0.4,0,0.8-0.3,0.8-0.8V22.9z
		"/>
	<path class="st0" d="M127.8,25.3V22c0-0.4-0.3-0.7-0.8-0.7c-0.5,0-0.9,0.3-0.9,0.8v3.3h-1.8v-5.4h1.6v0.7h0
		c0.2-0.6,0.8-0.9,1.7-0.9c1.2,0,1.9,0.7,1.9,1.8v3.8H127.8z"/>
	<path class="st0" d="M134.4,21.3H133v2c0,0.5,0.3,0.7,0.7,0.7c0.2,0,0.3,0,0.5-0.1l-0.2,1.3c-0.2,0.1-0.5,0.1-0.8,0.1
		c-1.2,0-2-0.6-2-1.7v-2.4h-0.9v-1.4h0.9v-1.2l1.8-0.6v1.8h1.8L134.4,21.3z"/>
	<path class="st0" d="M140.3,22.3l-0.8,0.8h-2.7c0.1,0.4,0.7,0.9,1.6,0.9c0.6,0,1.1-0.2,1.5-0.4l-0.2,1.5c-0.4,0.2-1,0.4-1.7,0.4
		c-1.7,0-3-1.2-3-2.9c0-1.8,1.3-2.9,2.8-2.9c1.5,0,2.4,1,2.4,2.2C140.4,22,140.4,22.2,140.3,22.3z M137.9,21c-0.5,0-0.9,0.4-1.1,0.9
		h1.8c0,0,0-0.1,0-0.1C138.7,21.4,138.4,21,137.9,21z"/>
	<path class="st0" d="M146.3,22.3l-0.8,0.8h-2.7c0.1,0.4,0.7,0.9,1.6,0.9c0.6,0,1.1-0.2,1.5-0.4l-0.2,1.5c-0.4,0.2-1,0.4-1.7,0.4
		c-1.7,0-3-1.2-3-2.9c0-1.8,1.3-2.9,2.8-2.9c1.5,0,2.4,1,2.4,2.2C146.4,22,146.4,22.2,146.3,22.3z M143.9,21c-0.5,0-0.9,0.4-1.1,0.9
		h1.8c0,0,0-0.1,0-0.1C144.7,21.4,144.4,21,143.9,21z"/>
	<path class="st0" d="M151.4,25.3v-0.7h0c-0.3,0.6-0.9,0.8-1.7,0.8c-1.3,0-2.6-1-2.6-2.9c0-1.8,1.2-2.9,2.8-2.9
		c0.6,0,1.2,0.2,1.4,0.4v-3.3h1.7v8.5H151.4z M151.3,21.7c-0.2-0.2-0.5-0.5-1.1-0.5c-0.8,0-1.3,0.6-1.3,1.4c0,0.8,0.5,1.4,1.3,1.4
		c0.5,0,0.9-0.3,1.1-0.6V21.7z"/>
	<path class="st0" d="M163.7,25.3V22c0-0.4-0.2-0.7-0.8-0.7c-0.6,0-0.8,0.3-0.8,0.8v3.3h-1.8V22c0-0.4-0.2-0.7-0.8-0.7
		c-0.6,0-0.8,0.3-0.8,0.8v3.3H157v-5.4h1.6v0.7h0c0.2-0.6,0.8-0.9,1.6-0.9c0.8,0,1.4,0.3,1.6,0.9c0.2-0.5,0.9-0.9,1.7-0.9
		c1.2,0,1.9,0.7,1.9,1.8v3.8H163.7z"/>
	<path class="st0" d="M169.5,25.5c-1.6,0-3-1.2-3-2.9s1.3-2.9,3-2.9c1.6,0,3,1.2,3,2.9S171.1,25.5,169.5,25.5z M169.5,21.2
		c-0.7,0-1.2,0.6-1.2,1.4c0,0.8,0.6,1.4,1.2,1.4c0.6,0,1.2-0.6,1.2-1.4C170.7,21.8,170.1,21.2,169.5,21.2z"/>
	<path class="st0" d="M176.9,25.3V22c0-0.4-0.3-0.7-0.8-0.7c-0.5,0-0.9,0.3-0.9,0.8v3.3h-1.8v-5.4h1.6v0.7h0
		c0.2-0.6,0.8-0.9,1.7-0.9c1.2,0,1.9,0.7,1.9,1.8v3.8H176.9z"/>
	<path class="st0" d="M183.5,21.3h-1.4v2c0,0.5,0.3,0.7,0.7,0.7c0.2,0,0.3,0,0.5-0.1l-0.2,1.3c-0.2,0.1-0.5,0.1-0.8,0.1
		c-1.2,0-2-0.6-2-1.7v-2.4h-0.9v-1.4h0.9v-1.2l1.8-0.6v1.8h1.8L183.5,21.3z"/>
	<path class="st0" d="M188,25.3V22c0-0.4-0.3-0.7-0.8-0.7c-0.5,0-0.9,0.3-0.9,0.8v3.3h-1.8v-8.5h1.7v3.6h0c0.3-0.4,0.8-0.7,1.5-0.7
		c1.2,0,1.9,0.7,1.9,1.8v3.8H188z"/>
	<path class="st0" d="M192.9,25.5c-1.1,0-1.9-0.6-1.9-1.9v-6.8h1.7v6.6c0,0.4,0.3,0.7,0.7,0.7L192.9,25.5z"/>
	<path class="st0" d="M197.5,24.8c-0.8,2.2-1.7,3-2.7,3.4l-1.1-1.1c0.9-0.3,1.5-1,2-2.1l-2-5.1h1.7l0.8,2.1c0.1,0.3,0.2,0.7,0.3,1.1
		h0c0.1-0.4,0.2-0.8,0.3-1.1l0.8-2.1h1.6L197.5,24.8z"/>
	<path class="st0" d="M203.9,19.1c-0.3,0-0.9-0.6-0.9-0.9c0-0.3,0.6-0.9,0.9-0.9c0.3,0,0.9,0.6,0.9,0.9
		C204.8,18.5,204.2,19.1,203.9,19.1z M203,25.3v-5.4h1.8v5.4H203z"/>
	<path class="st0" d="M209.5,25.3V22c0-0.4-0.3-0.7-0.8-0.7c-0.5,0-0.9,0.3-0.9,0.8v3.3h-1.8v-5.4h1.6v0.7h0
		c0.2-0.6,0.8-0.9,1.7-0.9c1.2,0,1.9,0.7,1.9,1.8v3.8H209.5z"/>
	<path class="st0" d="M216.7,21.6c-0.4-0.2-0.7-0.3-1.2-0.3c-0.8,0-1.4,0.6-1.4,1.3c0,0.8,0.6,1.3,1.4,1.3c0.5,0,0.8-0.1,1.2-0.3
		l-0.2,1.5c-0.4,0.2-0.8,0.3-1.3,0.3c-1.5,0-2.9-1.1-2.9-2.8c0-1.8,1.4-2.8,2.9-2.8c0.7,0,1.3,0.1,1.8,0.4L216.7,21.6z"/>
	<path class="st0" d="M220.6,25.5c-1.6,0-3-1.2-3-2.9s1.3-2.9,3-2.9c1.6,0,3,1.2,3,2.9S222.2,25.5,220.6,25.5z M220.6,21.2
		c-0.7,0-1.2,0.6-1.2,1.4c0,0.8,0.6,1.4,1.2,1.4c0.6,0,1.2-0.6,1.2-1.4C221.8,21.8,221.3,21.2,220.6,21.2z"/>
	<path class="st0" d="M231.3,25.3V22c0-0.4-0.2-0.7-0.8-0.7c-0.6,0-0.8,0.3-0.8,0.8v3.3H228V22c0-0.4-0.2-0.7-0.8-0.7
		c-0.6,0-0.8,0.3-0.8,0.8v3.3h-1.8v-5.4h1.6v0.7h0c0.2-0.6,0.8-0.9,1.6-0.9c0.8,0,1.4,0.3,1.6,0.9c0.2-0.5,0.9-0.9,1.7-0.9
		c1.2,0,1.9,0.7,1.9,1.8v3.8H231.3z"/>
	<path class="st0" d="M239.3,22.3l-0.8,0.8h-2.7c0.1,0.4,0.7,0.9,1.6,0.9c0.6,0,1.1-0.2,1.5-0.4l-0.2,1.5c-0.4,0.2-1,0.4-1.7,0.4
		c-1.7,0-3-1.2-3-2.9c0-1.8,1.3-2.9,2.8-2.9c1.5,0,2.4,1,2.4,2.2C239.4,22,239.3,22.2,239.3,22.3z M236.9,21c-0.5,0-0.9,0.4-1.1,0.9
		h1.8c0,0,0-0.1,0-0.1C237.7,21.4,237.4,21,236.9,21z"/>
	<path class="st0" d="M246.9,18.3c-0.2-0.1-0.5-0.1-0.7-0.1c-0.6,0-1,0.4-1,1.2v0.5h1.6l-0.3,1.4h-1.2v4h-1.7v-4h-0.8v-1.4h0.8v-0.6
		c0-1.7,1.1-2.5,2.4-2.5c0.5,0,1,0.1,1.3,0.2L246.9,18.3z"/>
	<path class="st0" d="M250.1,25.5c-1.6,0-3-1.2-3-2.9s1.3-2.9,3-2.9c1.6,0,3,1.2,3,2.9S251.8,25.5,250.1,25.5z M250.1,21.2
		c-0.7,0-1.2,0.6-1.2,1.4c0,0.8,0.6,1.4,1.2,1.4c0.6,0,1.2-0.6,1.2-1.4C251.4,21.8,250.8,21.2,250.1,21.2z"/>
	<path class="st0" d="M257.5,21.7c-0.1-0.1-0.3-0.1-0.5-0.1c-0.6,0-1.1,0.3-1.1,1.2v2.5h-1.8v-5.4h1.7v1.2h0
		c0.2-0.9,0.8-1.3,1.5-1.3c0.2,0,0.4,0,0.5,0.1L257.5,21.7z"/>
	<path class="st0" d="M263.4,25.5c-1.1,0-1.9-0.6-1.9-1.9v-6.8h1.7v6.6c0,0.4,0.3,0.7,0.7,0.7L263.4,25.5z"/>
	<path class="st0" d="M265.8,19.1c-0.3,0-0.9-0.6-0.9-0.9c0-0.3,0.6-0.9,0.9-0.9c0.3,0,0.9,0.6,0.9,0.9
		C266.7,18.5,266.1,19.1,265.8,19.1z M264.9,25.3v-5.4h1.8v5.4H264.9z"/>
	<path class="st0" d="M271.7,18.3c-0.2-0.1-0.5-0.1-0.7-0.1c-0.6,0-1,0.4-1,1.2v0.5h1.6l-0.3,1.4H270v4h-1.7v-4h-0.8v-1.4h0.8v-0.6
		c0-1.7,1.1-2.5,2.4-2.5c0.5,0,1,0.1,1.3,0.2L271.7,18.3z"/>
	<path class="st0" d="M277.2,22.3l-0.8,0.8h-2.7c0.1,0.4,0.7,0.9,1.6,0.9c0.6,0,1.1-0.2,1.5-0.4l-0.2,1.5c-0.4,0.2-1,0.4-1.7,0.4
		c-1.7,0-3-1.2-3-2.9c0-1.8,1.3-2.9,2.8-2.9c1.5,0,2.4,1,2.4,2.2C277.3,22,277.2,22.2,277.2,22.3z M274.8,21c-0.5,0-0.9,0.4-1.1,0.9
		h1.8c0,0,0-0.1,0-0.1C275.6,21.4,275.3,21,274.8,21z"/>
	<path class="st0" d="M279,25.5c-0.3,0-1-0.7-1-1c0-0.3,0.7-1,1-1c0.3,0,1,0.7,1,1C280,24.8,279.3,25.5,279,25.5z"/>
</g>
</svg>
