<?xml version="1.0" encoding="utf-8"?>
<!-- Generator: Adobe Illustrator 22.1.0, SVG Export Plug-In . SVG Version: 6.00 Build 0)  -->
<svg version="1.1" id="Layer_1" xmlns="http://www.w3.org/2000/svg" xmlns:xlink="http://www.w3.org/1999/xlink" x="0px" y="0px"
	 viewBox="0 0 300 50" style="enable-background:new 0 0 300 50;" xml:space="preserve">
<style type="text/css">
	.st0{fill:#231F20;}
</style>
<g>
	<path class="st0" d="M179.8,20.2h-2.6v-7.7h2.6c2.2,0,4.1,1.4,4.1,3.8C183.9,18.7,182,20.2,179.8,20.2z M179.6,14H179v4.6h0.6
		c1.3,0,2.4-0.8,2.4-2.3S180.9,14,179.6,14z"/>
	<path class="st0" d="M187.7,20.3c-1.6,0-3-1.2-3-2.9s1.3-2.9,3-2.9c1.6,0,3,1.2,3,2.9S189.3,20.3,187.7,20.3z M187.7,16.1
		c-0.7,0-1.2,0.6-1.2,1.4c0,0.8,0.6,1.4,1.2,1.4c0.6,0,1.2-0.6,1.2-1.4C188.9,16.7,188.3,16.1,187.7,16.1z"/>
	<path class="st0" d="M195.1,20.2v-3.3c0-0.4-0.3-0.7-0.8-0.7c-0.5,0-0.9,0.3-0.9,0.8v3.3h-1.8v-5.4h1.6v0.7h0
		c0.2-0.6,0.8-0.9,1.7-0.9c1.2,0,1.9,0.7,1.9,1.8v3.8H195.1z"/>
	<path class="st0" d="M198.4,15.9l-0.6-0.1c0.4-0.5,0.7-1.2,0.8-1.7c-0.3-0.1-0.8-0.6-0.8-0.8c0-0.3,0.7-1,1-1c0.3,0,1,0.6,1,1
		C199.8,14.1,199.1,15.3,198.4,15.9z"/>
	<path class="st0" d="M204.4,16.2H203v2c0,0.5,0.3,0.7,0.7,0.7c0.2,0,0.3,0,0.5-0.1l-0.2,1.3c-0.2,0.1-0.5,0.1-0.8,0.1
		c-1.2,0-2-0.6-2-1.7v-2.4h-0.9v-1.4h0.9v-1.2l1.8-0.6v1.8h1.8L204.4,16.2z"/>
	<path class="st0" d="M210.7,22.9c-1.6,0-2.6-0.9-2.6-2c0-0.8,0.6-1.3,1.1-1.5l-0.7-0.7c0-0.3,0.3-0.6,0.7-0.8
		c-0.4-0.3-0.8-0.8-0.8-1.5c0-1.2,0.8-2,2.2-2c0.3,0,0.6,0,0.8,0.1c0.2,0.1,0.5,0.1,0.8,0.1c0.3,0,0.6-0.1,0.9-0.2l0.3,1.3
		c-0.2,0.1-0.4,0.2-0.7,0.2c0.1,0.1,0.1,0.4,0.1,0.6c0,0.9-0.7,1.7-1.8,1.8c-0.2,0-0.4,0.1-0.4,0.2c0,0.1,0,0.1,0.1,0.2l0.8,0.3
		c1.1,0.4,1.6,0.9,1.6,1.9C213.3,22.1,212.3,22.9,210.7,22.9z M211.1,20.4l-0.6-0.2c-0.4,0-0.7,0.3-0.7,0.7c0,0.4,0.3,0.7,1,0.7
		c0.6,0,1-0.3,1-0.6C211.6,20.7,211.4,20.5,211.1,20.4z M210.6,15.8c-0.4,0-0.7,0.3-0.7,0.6c0,0.4,0.3,0.6,0.7,0.6
		c0.4,0,0.7-0.3,0.7-0.6C211.3,16.1,211,15.8,210.6,15.8z"/>
	<path class="st0" d="M219.1,17.1l-0.8,0.8h-2.7c0.1,0.4,0.7,0.9,1.6,0.9c0.6,0,1.1-0.2,1.5-0.4l-0.2,1.5c-0.4,0.2-1,0.4-1.7,0.4
		c-1.7,0-3-1.2-3-2.9c0-1.8,1.3-2.9,2.8-2.9c1.5,0,2.4,1,2.4,2.2C219.2,16.9,219.1,17,219.1,17.1z M216.7,15.9
		c-0.5,0-0.9,0.4-1.1,0.9h1.8c0,0,0-0.1,0-0.1C217.5,16.3,217.2,15.9,216.7,15.9z"/>
	<path class="st0" d="M223.9,16.2h-1.4v2c0,0.5,0.3,0.7,0.7,0.7c0.2,0,0.3,0,0.5-0.1l-0.2,1.3c-0.2,0.1-0.5,0.1-0.8,0.1
		c-1.2,0-2-0.6-2-1.7v-2.4h-0.9v-1.4h0.9v-1.2l1.8-0.6v1.8h1.8L223.9,16.2z"/>
	<path class="st0" d="M230.4,20.3c-1.2,0-2.1-0.4-2.6-0.8v-7.9h1.7v3.3c0.2-0.2,0.8-0.4,1.4-0.4c1.5,0,2.7,1.1,2.7,2.8
		C233.6,19,232.5,20.3,230.4,20.3z M230.6,16.1c-0.5,0-0.9,0.2-1.1,0.4v2.1c0.2,0.1,0.6,0.3,0.9,0.3c0.9,0,1.5-0.6,1.5-1.4
		C231.8,16.7,231.3,16.1,230.6,16.1z"/>
	<path class="st0" d="M236.5,20.4c-1.1,0-1.9-0.6-1.9-1.9v-6.8h1.7v6.6c0,0.4,0.3,0.7,0.7,0.7L236.5,20.4z"/>
	<path class="st0" d="M238.9,14c-0.3,0-0.9-0.6-0.9-0.9s0.6-0.9,0.9-0.9c0.3,0,0.9,0.6,0.9,0.9S239.2,14,238.9,14z M238,20.2v-5.4
		h1.8v5.4H238z"/>
	<path class="st0" d="M244.5,20.2v-3.3c0-0.4-0.3-0.7-0.8-0.7c-0.5,0-0.9,0.3-0.9,0.8v3.3h-1.8v-5.4h1.6v0.7h0
		c0.2-0.6,0.8-0.9,1.7-0.9c1.2,0,1.9,0.7,1.9,1.8v3.8H244.5z"/>
	<path class="st0" d="M251.6,20.2v-0.7h0c-0.3,0.6-0.9,0.8-1.7,0.8c-1.3,0-2.6-1-2.6-2.9c0-1.8,1.2-2.9,2.8-2.9
		c0.6,0,1.2,0.2,1.4,0.4v-3.3h1.7v8.5H251.6z M251.4,16.6c-0.2-0.2-0.5-0.5-1.1-0.5c-0.8,0-1.3,0.6-1.3,1.4c0,0.8,0.5,1.4,1.3,1.4
		c0.5,0,0.9-0.3,1.1-0.6V16.6z"/>
	<path class="st0" d="M256.2,20.3c-0.7,0-1.3-0.2-1.7-0.4l-0.2-1.6c0.5,0.3,1.1,0.6,1.7,0.6c0.3,0,0.5-0.2,0.5-0.4
		c0-0.2-0.2-0.3-0.5-0.4c-1-0.3-1.7-0.8-1.7-1.8c0-1.1,0.9-1.8,2-1.8c0.7,0,1.3,0.2,1.6,0.3l-0.3,1.3c-0.3-0.1-0.7-0.3-1.1-0.3
		c-0.3,0-0.5,0.1-0.5,0.3c0,0.2,0.1,0.3,0.5,0.4c1.2,0.3,1.7,0.9,1.7,1.8C258.3,19.5,257.7,20.3,256.2,20.3z"/>
	<path class="st0" d="M260.3,14c-0.3,0-0.9-0.6-0.9-0.9s0.6-0.9,0.9-0.9c0.3,0,0.9,0.6,0.9,0.9S260.6,14,260.3,14z M259.4,20.2v-5.4
		h1.8v5.4H259.4z"/>
	<path class="st0" d="M266.5,20.2v-0.7h0c-0.3,0.6-0.9,0.8-1.7,0.8c-1.3,0-2.6-1-2.6-2.9c0-1.8,1.2-2.9,2.8-2.9
		c0.6,0,1.2,0.2,1.4,0.4v-3.3h1.7v8.5H266.5z M266.3,16.6c-0.2-0.2-0.5-0.5-1.1-0.5c-0.8,0-1.3,0.6-1.3,1.4c0,0.8,0.5,1.4,1.3,1.4
		c0.5,0,0.9-0.3,1.1-0.6V16.6z"/>
	<path class="st0" d="M274.3,17.1l-0.8,0.8h-2.7c0.1,0.4,0.7,0.9,1.6,0.9c0.6,0,1.1-0.2,1.5-0.4l-0.2,1.5c-0.4,0.2-1,0.4-1.7,0.4
		c-1.7,0-3-1.2-3-2.9c0-1.8,1.3-2.9,2.8-2.9c1.5,0,2.4,1,2.4,2.2C274.3,16.9,274.3,17,274.3,17.1z M271.9,15.9
		c-0.5,0-0.9,0.4-1.1,0.9h1.8c0,0,0-0.1,0-0.1C272.7,16.3,272.4,15.9,271.9,15.9z"/>
	<path class="st0" d="M279.4,20.2v-0.7h0c-0.3,0.6-0.9,0.8-1.7,0.8c-1.3,0-2.6-1-2.6-2.9c0-1.8,1.2-2.9,2.8-2.9
		c0.6,0,1.2,0.2,1.4,0.4v-3.3h1.7v8.5H279.4z M279.2,16.6c-0.2-0.2-0.5-0.5-1.1-0.5c-0.8,0-1.3,0.6-1.3,1.4c0,0.8,0.5,1.4,1.3,1.4
		c0.5,0,0.9-0.3,1.1-0.6V16.6z"/>
</g>
<g>
	<path class="st0" d="M179.8,32.3c-1.2,0-2.1-0.4-2.6-0.8v-7.9h1.7v3.3c0.2-0.2,0.8-0.4,1.4-0.4c1.5,0,2.7,1.1,2.7,2.8
		C182.9,31,181.9,32.3,179.8,32.3z M179.9,28.1c-0.5,0-0.9,0.2-1.1,0.4v2.1c0.2,0.1,0.6,0.3,0.9,0.3c0.9,0,1.5-0.6,1.5-1.4
		C181.2,28.7,180.7,28.1,179.9,28.1z"/>
	<path class="st0" d="M187,31.6c-0.8,2.2-1.7,3-2.7,3.4l-1.1-1.1c0.9-0.3,1.5-1,2-2.1l-2-5.1h1.7l0.8,2.1c0.1,0.3,0.2,0.7,0.3,1.1h0
		c0.1-0.4,0.2-0.8,0.3-1.1l0.8-2.1h1.6L187,31.6z"/>
	<path class="st0" d="M196.1,28.2h-1.4v2c0,0.5,0.3,0.7,0.7,0.7c0.2,0,0.3,0,0.5-0.1l-0.2,1.3c-0.2,0.1-0.5,0.1-0.8,0.1
		c-1.2,0-2-0.6-2-1.7v-2.4H192v-1.4h0.9v-1.2l1.8-0.6v1.8h1.8L196.1,28.2z"/>
	<path class="st0" d="M200.7,32.2v-3.3c0-0.4-0.3-0.7-0.8-0.7c-0.5,0-0.9,0.3-0.9,0.8v3.3h-1.8v-8.5h1.7v3.6h0
		c0.3-0.4,0.8-0.7,1.5-0.7c1.2,0,1.9,0.7,1.9,1.8v3.8H200.7z"/>
	<path class="st0" d="M208.7,29.1l-0.8,0.8h-2.7c0.1,0.4,0.7,0.9,1.6,0.9c0.6,0,1.1-0.2,1.5-0.4l-0.2,1.5c-0.4,0.2-1,0.4-1.7,0.4
		c-1.7,0-3-1.2-3-2.9c0-1.8,1.3-2.9,2.8-2.9c1.5,0,2.4,1,2.4,2.2C208.7,28.9,208.7,29,208.7,29.1z M206.3,27.9
		c-0.5,0-0.9,0.4-1.1,0.9h1.8c0,0,0-0.1,0-0.1C207.1,28.3,206.7,27.9,206.3,27.9z"/>
	<path class="st0" d="M219.2,32.2v-3.3c0-0.4-0.2-0.7-0.8-0.7c-0.6,0-0.8,0.3-0.8,0.8v3.3h-1.8v-3.3c0-0.4-0.2-0.7-0.8-0.7
		c-0.6,0-0.8,0.3-0.8,0.8v3.3h-1.8v-5.4h1.6v0.7h0c0.2-0.6,0.8-0.9,1.6-0.9c0.8,0,1.4,0.3,1.6,0.9c0.2-0.5,0.9-0.9,1.7-0.9
		c1.2,0,1.9,0.7,1.9,1.8v3.8H219.2z"/>
	<path class="st0" d="M226,32.4c-0.3-0.1-0.7-0.3-0.8-0.7c-0.2,0.4-0.8,0.7-1.4,0.7c-1,0-1.8-0.7-1.8-1.8c0-1,0.8-1.7,1.9-1.8
		l1.1-0.1v-0.2c0-0.3-0.3-0.5-0.9-0.5c-0.5,0-1.1,0.2-1.5,0.4l-0.3-1.3c0.4-0.3,1.2-0.5,1.9-0.5c1.4,0,2.5,0.7,2.5,2v1.8
		c0,0.6,0.2,1,0.7,1.1L226,32.4z M224.9,29.8l-0.7,0.1c-0.5,0-0.7,0.4-0.7,0.7c0,0.3,0.2,0.5,0.6,0.5c0.4,0,0.8-0.3,0.8-0.8V29.8z"
		/>
	<path class="st0" d="M231.4,28.6c-0.1-0.1-0.3-0.1-0.5-0.1c-0.6,0-1.1,0.3-1.1,1.2v2.5H228v-5.4h1.7v1.2h0c0.2-0.9,0.8-1.3,1.5-1.3
		c0.2,0,0.4,0,0.5,0.1L231.4,28.6z"/>
	<path class="st0" d="M235.9,32.2l-1.6-2.2h0v2.2h-1.7v-8.5h1.7v5.3h0l1.6-2.2h1.9l-1.9,2.6l2,2.8H235.9z"/>
	<path class="st0" d="M243.4,29.1l-0.8,0.8H240c0.1,0.4,0.7,0.9,1.6,0.9c0.6,0,1.1-0.2,1.5-0.4l-0.2,1.5c-0.4,0.2-1,0.4-1.7,0.4
		c-1.7,0-3-1.2-3-2.9c0-1.8,1.3-2.9,2.8-2.9c1.5,0,2.4,1,2.4,2.2C243.5,28.9,243.4,29,243.4,29.1z M241,27.9c-0.5,0-0.9,0.4-1.1,0.9
		h1.8c0,0,0-0.1,0-0.1C241.8,28.3,241.5,27.9,241,27.9z"/>
	<path class="st0" d="M248.2,28.2h-1.4v2c0,0.5,0.3,0.7,0.7,0.7c0.2,0,0.3,0,0.5-0.1l-0.2,1.3c-0.2,0.1-0.5,0.1-0.8,0.1
		c-1.2,0-2-0.6-2-1.7v-2.4h-0.9v-1.4h0.9v-1.2l1.8-0.6v1.8h1.8L248.2,28.2z"/>
	<path class="st0" d="M251,32.3c-0.7,0-1.3-0.2-1.7-0.4l-0.2-1.6c0.5,0.3,1.1,0.6,1.7,0.6c0.3,0,0.5-0.2,0.5-0.4
		c0-0.2-0.2-0.3-0.5-0.4c-1-0.3-1.7-0.8-1.7-1.8c0-1.1,0.9-1.8,2-1.8c0.7,0,1.3,0.2,1.6,0.3l-0.3,1.3c-0.3-0.1-0.7-0.3-1.1-0.3
		c-0.3,0-0.5,0.1-0.5,0.3c0,0.2,0.1,0.3,0.5,0.4c1.2,0.3,1.7,0.9,1.7,1.8C253.1,31.5,252.4,32.3,251,32.3z"/>
	<path class="st0" d="M255,32.3c-0.3,0-1-0.7-1-1c0-0.3,0.7-1,1-1c0.3,0,1,0.7,1,1C256,31.7,255.3,32.3,255,32.3z"/>
</g>
</svg>
