<?xml version="1.0" encoding="utf-8"?>
<!-- Generator: Adobe Illustrator 22.1.0, SVG Export Plug-In . SVG Version: 6.00 Build 0)  -->
<svg version="1.1" id="Layer_1" xmlns="http://www.w3.org/2000/svg" xmlns:xlink="http://www.w3.org/1999/xlink" x="0px" y="0px"
	 viewBox="0 0 300 50" style="enable-background:new 0 0 300 50;" xml:space="preserve">
<style type="text/css">
	.st0{fill:#231F20;}
</style>
<g>
	<path class="st0" d="M84.8,26.6c-0.9,0-1.7-0.3-2.1-0.5l-0.2-1.7c0.6,0.4,1.4,0.7,2.2,0.7c0.7,0,1.1-0.3,1.1-0.8
		c0-0.4-0.3-0.7-1-0.9c-1.5-0.4-2.2-1.2-2.2-2.4c0-1.3,0.9-2.3,2.6-2.3c0.9,0,1.6,0.3,1.9,0.4l-0.3,1.5c-0.3-0.2-0.9-0.4-1.5-0.4
		c-0.6,0-0.9,0.3-0.9,0.7c0,0.4,0.3,0.6,0.9,0.8c1.5,0.4,2.3,1.2,2.3,2.5C87.6,25.7,86.7,26.6,84.8,26.6z"/>
	<path class="st0" d="M92.2,22.5h-1.4v2c0,0.5,0.3,0.7,0.7,0.7c0.2,0,0.3,0,0.5-0.1l-0.2,1.3c-0.2,0.1-0.5,0.1-0.8,0.1
		c-1.2,0-2-0.6-2-1.7v-2.4h-0.9v-1.4H89v-1.2l1.8-0.6v1.8h1.8L92.2,22.5z"/>
	<path class="st0" d="M98.2,23.5l-0.8,0.8h-2.7c0.1,0.4,0.7,0.9,1.6,0.9c0.6,0,1.1-0.2,1.5-0.4l-0.2,1.5c-0.4,0.2-1,0.4-1.7,0.4
		c-1.7,0-3-1.2-3-2.9c0-1.8,1.3-2.9,2.8-2.9c1.5,0,2.4,1,2.4,2.2C98.2,23.2,98.2,23.4,98.2,23.5z M95.8,22.2c-0.5,0-0.9,0.4-1.1,0.9
		h1.8c0,0,0-0.1,0-0.1C96.6,22.6,96.2,22.2,95.8,22.2z"/>
	<path class="st0" d="M104.2,23.5l-0.8,0.8h-2.7c0.1,0.4,0.7,0.9,1.6,0.9c0.6,0,1.1-0.2,1.5-0.4l-0.2,1.5c-0.4,0.2-1,0.4-1.7,0.4
		c-1.7,0-3-1.2-3-2.9c0-1.8,1.3-2.9,2.8-2.9c1.5,0,2.4,1,2.4,2.2C104.2,23.2,104.2,23.4,104.2,23.5z M101.8,22.2
		c-0.5,0-0.9,0.4-1.1,0.9h1.8c0,0,0-0.1,0-0.1C102.6,22.6,102.2,22.2,101.8,22.2z"/>
	<path class="st0" d="M108.6,23c-0.1-0.1-0.3-0.1-0.5-0.1c-0.6,0-1.1,0.3-1.1,1.2v2.5h-1.8v-5.4h1.7v1.2h0c0.2-0.9,0.8-1.3,1.5-1.3
		c0.2,0,0.4,0,0.5,0.1L108.6,23z"/>
	<path class="st0" d="M116.7,22.9c-0.4-0.2-0.7-0.3-1.2-0.3c-0.8,0-1.4,0.6-1.4,1.3c0,0.8,0.6,1.3,1.4,1.3c0.5,0,0.8-0.1,1.2-0.3
		l-0.2,1.5c-0.4,0.2-0.8,0.3-1.3,0.3c-1.5,0-2.9-1.1-2.9-2.8c0-1.8,1.4-2.8,2.9-2.8c0.7,0,1.3,0.1,1.8,0.4L116.7,22.9z"/>
	<path class="st0" d="M119.9,26.8c-1.1,0-1.9-0.6-1.9-1.9V18h1.7v6.6c0,0.4,0.3,0.7,0.7,0.7L119.9,26.8z"/>
	<path class="st0" d="M126.3,23.5l-0.8,0.8h-2.7c0.1,0.4,0.7,0.9,1.6,0.9c0.6,0,1.1-0.2,1.5-0.4l-0.2,1.5c-0.4,0.2-1,0.4-1.7,0.4
		c-1.7,0-3-1.2-3-2.9c0-1.8,1.3-2.9,2.8-2.9c1.5,0,2.4,1,2.4,2.2C126.3,23.2,126.3,23.4,126.3,23.5z M123.9,22.2
		c-0.5,0-0.9,0.4-1.1,0.9h1.8c0,0,0-0.1,0-0.1C124.7,22.6,124.4,22.2,123.9,22.2z"/>
	<path class="st0" d="M131.1,26.8c-0.3-0.1-0.7-0.3-0.8-0.7c-0.2,0.4-0.8,0.7-1.4,0.7c-1,0-1.8-0.7-1.8-1.8c0-1,0.8-1.7,1.9-1.8
		L130,23v-0.2c0-0.3-0.3-0.5-0.9-0.5c-0.5,0-1.1,0.2-1.5,0.4l-0.3-1.3c0.4-0.3,1.2-0.5,1.9-0.5c1.4,0,2.5,0.7,2.5,2v1.8
		c0,0.6,0.2,1,0.7,1.1L131.1,26.8z M130,24.2l-0.7,0.1c-0.5,0-0.7,0.4-0.7,0.7c0,0.3,0.2,0.5,0.6,0.5c0.4,0,0.8-0.3,0.8-0.8V24.2z"
		/>
	<path class="st0" d="M136.5,23c-0.1-0.1-0.3-0.1-0.5-0.1c-0.6,0-1.1,0.3-1.1,1.2v2.5h-1.8v-5.4h1.7v1.2h0c0.2-0.9,0.8-1.3,1.5-1.3
		c0.2,0,0.4,0,0.5,0.1L136.5,23z"/>
	<path class="st0" d="M143.2,26.7c-1.6,0-3-1.2-3-2.9s1.3-2.9,3-2.9c1.6,0,3,1.2,3,2.9S144.8,26.7,143.2,26.7z M143.2,22.5
		c-0.7,0-1.2,0.6-1.2,1.4c0,0.8,0.6,1.4,1.2,1.4c0.6,0,1.2-0.6,1.2-1.4C144.4,23,143.8,22.5,143.2,22.5z"/>
	<path class="st0" d="M150.9,19.6c-0.2-0.1-0.5-0.1-0.7-0.1c-0.6,0-1,0.4-1,1.2v0.5h1.6l-0.3,1.4h-1.2v4h-1.7v-4h-0.8v-1.4h0.8v-0.6
		c0-1.7,1.1-2.5,2.4-2.5c0.5,0,1,0.1,1.3,0.2L150.9,19.6z"/>
	<path class="st0" d="M158,22.5h-1.4v2c0,0.5,0.3,0.7,0.7,0.7c0.2,0,0.3,0,0.5-0.1l-0.2,1.3c-0.2,0.1-0.5,0.1-0.8,0.1
		c-1.2,0-2-0.6-2-1.7v-2.4h-0.9v-1.4h0.9v-1.2l1.8-0.6v1.8h1.8L158,22.5z"/>
	<path class="st0" d="M162.6,26.5v-3.3c0-0.4-0.3-0.7-0.8-0.7c-0.5,0-0.9,0.3-0.9,0.8v3.3h-1.8V18h1.7v3.6h0
		c0.3-0.4,0.8-0.7,1.5-0.7c1.2,0,1.9,0.7,1.9,1.8v3.8H162.6z"/>
	<path class="st0" d="M170.6,23.5l-0.8,0.8h-2.7c0.1,0.4,0.7,0.9,1.6,0.9c0.6,0,1.1-0.2,1.5-0.4l-0.2,1.5c-0.4,0.2-1,0.4-1.7,0.4
		c-1.7,0-3-1.2-3-2.9c0-1.8,1.3-2.9,2.8-2.9c1.5,0,2.4,1,2.4,2.2C170.6,23.2,170.6,23.4,170.6,23.5z M168.2,22.2
		c-0.5,0-0.9,0.4-1.1,0.9h1.8c0,0,0-0.1,0-0.1C169,22.6,168.6,22.2,168.2,22.2z"/>
	<path class="st0" d="M176.1,26.7c-0.7,0-1.3-0.2-1.7-0.4l-0.2-1.6c0.5,0.3,1.1,0.6,1.7,0.6c0.3,0,0.5-0.2,0.5-0.4
		c0-0.2-0.2-0.3-0.5-0.4c-1-0.3-1.7-0.8-1.7-1.8c0-1.1,0.9-1.8,2-1.8c0.7,0,1.3,0.2,1.6,0.3l-0.3,1.3c-0.3-0.1-0.7-0.3-1.1-0.3
		c-0.3,0-0.5,0.1-0.5,0.3c0,0.2,0.1,0.3,0.5,0.4c1.2,0.3,1.7,0.9,1.7,1.8C178.3,25.8,177.6,26.7,176.1,26.7z"/>
	<path class="st0" d="M182.9,26.5v-0.7h0c-0.2,0.6-0.8,0.9-1.7,0.9c-1.2,0-1.9-0.7-1.9-1.8v-3.8h1.8v3.3c0,0.4,0.3,0.7,0.8,0.7
		c0.5,0,0.9-0.3,0.9-0.8v-3.3h1.8v5.4H182.9z"/>
	<path class="st0" d="M189.1,23c-0.1-0.1-0.3-0.1-0.5-0.1c-0.6,0-1.1,0.3-1.1,1.2v2.5h-1.8v-5.4h1.7v1.2h0c0.2-0.9,0.8-1.3,1.5-1.3
		c0.2,0,0.4,0,0.5,0.1L189.1,23z"/>
	<path class="st0" d="M193.4,26.7c-0.6,0-1.2-0.2-1.4-0.4v3h-1.7v-8.2h1.5v0.7h0c0.3-0.6,0.9-0.8,1.7-0.8c1.3,0,2.6,1,2.6,2.9
		C196.2,25.6,194.9,26.7,193.4,26.7z M193.1,22.5c-0.5,0-0.9,0.3-1.1,0.6v1.7c0.2,0.2,0.5,0.5,1.1,0.5c0.8,0,1.3-0.6,1.3-1.4
		C194.4,23.1,193.8,22.5,193.1,22.5z"/>
	<path class="st0" d="M200.6,23c-0.1-0.1-0.3-0.1-0.5-0.1c-0.6,0-1.1,0.3-1.1,1.2v2.5h-1.8v-5.4h1.7v1.2h0c0.2-0.9,0.8-1.3,1.5-1.3
		c0.2,0,0.4,0,0.5,0.1L200.6,23z"/>
	<path class="st0" d="M202.6,20.4c-0.3,0-0.9-0.6-0.9-0.9c0-0.3,0.6-0.9,0.9-0.9c0.3,0,0.9,0.6,0.9,0.9
		C203.6,19.7,203,20.4,202.6,20.4z M201.8,26.5v-5.4h1.8v5.4H201.8z"/>
	<path class="st0" d="M206.6,26.7c-0.7,0-1.3-0.2-1.7-0.4l-0.2-1.6c0.5,0.3,1.1,0.6,1.7,0.6c0.3,0,0.5-0.2,0.5-0.4
		c0-0.2-0.2-0.3-0.5-0.4c-1-0.3-1.7-0.8-1.7-1.8c0-1.1,0.9-1.8,2-1.8c0.7,0,1.3,0.2,1.6,0.3l-0.3,1.3c-0.3-0.1-0.7-0.3-1.1-0.3
		c-0.3,0-0.5,0.1-0.5,0.3c0,0.2,0.1,0.3,0.5,0.4c1.2,0.3,1.7,0.9,1.7,1.8C208.7,25.8,208,26.7,206.6,26.7z"/>
	<path class="st0" d="M214.7,23.5l-0.8,0.8h-2.7c0.1,0.4,0.7,0.9,1.6,0.9c0.6,0,1.1-0.2,1.5-0.4l-0.2,1.5c-0.4,0.2-1,0.4-1.7,0.4
		c-1.7,0-3-1.2-3-2.9c0-1.8,1.3-2.9,2.8-2.9c1.5,0,2.4,1,2.4,2.2C214.7,23.2,214.7,23.4,214.7,23.5z M212.3,22.2
		c-0.5,0-0.9,0.4-1.1,0.9h1.8c0,0,0-0.1,0-0.1C213.1,22.6,212.7,22.2,212.3,22.2z"/>
	<path class="st0" d="M217.4,26.7c-0.7,0-1.3-0.2-1.7-0.4l-0.2-1.6c0.5,0.3,1.1,0.6,1.7,0.6c0.3,0,0.5-0.2,0.5-0.4
		c0-0.2-0.2-0.3-0.5-0.4c-1-0.3-1.7-0.8-1.7-1.8c0-1.1,0.9-1.8,2-1.8c0.7,0,1.3,0.2,1.6,0.3l-0.3,1.3c-0.3-0.1-0.7-0.3-1.1-0.3
		c-0.3,0-0.5,0.1-0.5,0.3c0,0.2,0.1,0.3,0.5,0.4c1.2,0.3,1.7,0.9,1.7,1.8C219.6,25.8,218.9,26.7,217.4,26.7z"/>
	<path class="st0" d="M221.4,26.7c-0.3,0-1-0.7-1-1c0-0.3,0.7-1,1-1c0.3,0,1,0.7,1,1C222.4,26,221.8,26.7,221.4,26.7z"/>
</g>
</svg>
