<?xml version="1.0" encoding="utf-8"?>
<!-- Generator: Adobe Illustrator 22.1.0, SVG Export Plug-In . SVG Version: 6.00 Build 0)  -->
<svg version="1.1" id="Layer_1" xmlns="http://www.w3.org/2000/svg" xmlns:xlink="http://www.w3.org/1999/xlink" x="0px" y="0px"
	 viewBox="0 0 300 50" style="enable-background:new 0 0 300 50;" xml:space="preserve">
<style type="text/css">
	.st0{fill:#231F20;}
</style>
<g>
	<path class="st0" d="M76.3,15.5c-0.9,0-1.7-0.3-2.1-0.5l-0.2-1.7c0.6,0.4,1.4,0.7,2.2,0.7c0.7,0,1.1-0.3,1.1-0.8
		c0-0.4-0.3-0.7-1-0.9c-1.5-0.4-2.2-1.2-2.2-2.4c0-1.3,0.9-2.3,2.6-2.3c0.9,0,1.6,0.3,1.9,0.4l-0.3,1.5c-0.3-0.2-0.9-0.4-1.5-0.4
		c-0.6,0-0.9,0.3-0.9,0.7c0,0.4,0.3,0.6,0.9,0.8c1.5,0.4,2.3,1.2,2.3,2.5C79.1,14.5,78.1,15.5,76.3,15.5z"/>
	<path class="st0" d="M85.1,12.3l-0.8,0.8h-2.7c0.1,0.4,0.7,0.9,1.6,0.9c0.6,0,1.1-0.2,1.5-0.4l-0.2,1.5c-0.4,0.2-1,0.4-1.7,0.4
		c-1.7,0-3-1.2-3-2.9c0-1.8,1.3-2.9,2.8-2.9c1.5,0,2.4,1,2.4,2.2C85.2,12.1,85.2,12.2,85.1,12.3z M82.8,11.1c-0.5,0-0.9,0.4-1.1,0.9
		h1.8c0,0,0-0.1,0-0.1C83.6,11.5,83.2,11.1,82.8,11.1z"/>
	<path class="st0" d="M91.1,12.3l-0.8,0.8h-2.7c0.1,0.4,0.7,0.9,1.6,0.9c0.6,0,1.1-0.2,1.5-0.4l-0.2,1.5c-0.4,0.2-1,0.4-1.7,0.4
		c-1.7,0-3-1.2-3-2.9c0-1.8,1.3-2.9,2.8-2.9c1.5,0,2.4,1,2.4,2.2C91.2,12.1,91.2,12.2,91.1,12.3z M88.8,11.1c-0.5,0-0.9,0.4-1.1,0.9
		h1.8c0,0,0-0.1,0-0.1C89.6,11.5,89.2,11.1,88.8,11.1z"/>
	<path class="st0" d="M98.5,15.4V12c0-0.4-0.3-0.7-0.8-0.7c-0.5,0-0.9,0.3-0.9,0.8v3.3H95V6.8h1.7v3.6h0c0.3-0.4,0.8-0.7,1.5-0.7
		c1.2,0,1.9,0.7,1.9,1.8v3.8H98.5z"/>
	<path class="st0" d="M104.2,15.5c-1.6,0-3-1.2-3-2.9s1.3-2.9,3-2.9c1.6,0,3,1.2,3,2.9S105.8,15.5,104.2,15.5z M104.2,11.3
		c-0.7,0-1.2,0.6-1.2,1.4c0,0.8,0.6,1.4,1.2,1.4c0.6,0,1.2-0.6,1.2-1.4C105.4,11.9,104.8,11.3,104.2,11.3z"/>
	<path class="st0" d="M113.9,15.4h-1.2l-0.7-2.2c-0.1-0.3-0.2-0.7-0.3-1.1h0c-0.1,0.4-0.2,0.8-0.3,1.1l-0.7,2.2h-1.2l-1.9-5.5h1.6
		l0.7,2.1c0.1,0.3,0.2,0.7,0.3,1h0c0.1-0.3,0.2-0.7,0.3-1l0.7-2.1h1.3L113,12c0.1,0.3,0.2,0.7,0.3,1.1h0c0.1-0.3,0.2-0.7,0.3-1.1
		l0.7-2.1h1.5L113.9,15.4z"/>
	<path class="st0" d="M126.1,15.4V12c0-0.4-0.2-0.7-0.8-0.7c-0.6,0-0.8,0.3-0.8,0.8v3.3h-1.8V12c0-0.4-0.2-0.7-0.8-0.7
		c-0.6,0-0.8,0.3-0.8,0.8v3.3h-1.8V9.9h1.6v0.7h0c0.2-0.6,0.8-0.9,1.6-0.9c0.8,0,1.4,0.3,1.6,0.9c0.2-0.5,0.9-0.9,1.7-0.9
		c1.2,0,1.9,0.7,1.9,1.8v3.8H126.1z"/>
	<path class="st0" d="M132.7,15.4v-0.7h0c-0.2,0.6-0.8,0.9-1.7,0.9c-1.2,0-1.9-0.7-1.9-1.8V9.9h1.8v3.3c0,0.4,0.3,0.7,0.8,0.7
		c0.5,0,0.9-0.3,0.9-0.8V9.9h1.8v5.4H132.7z"/>
	<path class="st0" d="M139.7,11.7c-0.4-0.2-0.7-0.3-1.2-0.3c-0.8,0-1.4,0.6-1.4,1.3c0,0.8,0.6,1.3,1.4,1.3c0.5,0,0.8-0.1,1.2-0.3
		l-0.2,1.5c-0.4,0.2-0.8,0.3-1.3,0.3c-1.5,0-2.9-1.1-2.9-2.8c0-1.8,1.4-2.8,2.9-2.8c0.7,0,1.3,0.1,1.8,0.4L139.7,11.7z"/>
	<path class="st0" d="M144.5,15.4V12c0-0.4-0.3-0.7-0.8-0.7c-0.5,0-0.9,0.3-0.9,0.8v3.3h-1.8V6.8h1.7v3.6h0c0.3-0.4,0.8-0.7,1.5-0.7
		c1.2,0,1.9,0.7,1.9,1.8v3.8H144.5z"/>
	<path class="st0" d="M153.6,14.8c-0.8,2.2-1.7,3-2.7,3.4l-1.1-1.1c0.9-0.3,1.5-1,2-2.1l-2-5.1h1.7l0.8,2.1c0.1,0.3,0.2,0.7,0.3,1.1
		h0c0.1-0.4,0.2-0.8,0.3-1.1l0.8-2.1h1.6L153.6,14.8z"/>
	<path class="st0" d="M158.7,15.5c-1.6,0-3-1.2-3-2.9s1.3-2.9,3-2.9c1.6,0,3,1.2,3,2.9S160.4,15.5,158.7,15.5z M158.7,11.3
		c-0.7,0-1.2,0.6-1.2,1.4c0,0.8,0.6,1.4,1.2,1.4c0.6,0,1.2-0.6,1.2-1.4C160,11.9,159.4,11.3,158.7,11.3z"/>
	<path class="st0" d="M166.3,15.4v-0.7h0c-0.2,0.6-0.8,0.9-1.7,0.9c-1.2,0-1.9-0.7-1.9-1.8V9.9h1.8v3.3c0,0.4,0.3,0.7,0.8,0.7
		c0.5,0,0.9-0.3,0.9-0.8V9.9h1.8v5.4H166.3z"/>
	<path class="st0" d="M172.6,11.8c-0.1-0.1-0.3-0.1-0.5-0.1c-0.6,0-1.1,0.3-1.1,1.2v2.5h-1.8V9.9h1.7v1.2h0c0.2-0.9,0.8-1.3,1.5-1.3
		c0.2,0,0.4,0,0.5,0.1L172.6,11.8z"/>
</g>
<g>
	<path class="st0" d="M77.4,23.8c-0.1-0.1-0.3-0.1-0.5-0.1c-0.6,0-1.1,0.3-1.1,1.2v2.5H74v-5.4h1.7v1.2h0c0.2-0.9,0.8-1.3,1.5-1.3
		c0.2,0,0.4,0,0.5,0.1L77.4,23.8z"/>
	<path class="st0" d="M83.4,24.3l-0.8,0.8H80c0.1,0.4,0.7,0.9,1.6,0.9c0.6,0,1.1-0.2,1.5-0.4l-0.2,1.5c-0.4,0.2-1,0.4-1.7,0.4
		c-1.7,0-3-1.2-3-2.9c0-1.8,1.3-2.9,2.8-2.9c1.5,0,2.4,1,2.4,2.2C83.4,24.1,83.4,24.2,83.4,24.3z M81,23.1c-0.5,0-0.9,0.4-1.1,0.9
		h1.8c0,0,0-0.1,0-0.1C81.8,23.5,81.5,23.1,81,23.1z"/>
	<path class="st0" d="M88.2,23.4h-1.4v2c0,0.5,0.3,0.7,0.7,0.7c0.2,0,0.3,0,0.5-0.1l-0.2,1.3c-0.2,0.1-0.5,0.1-0.8,0.1
		c-1.2,0-2-0.6-2-1.7v-2.4h-0.9v-1.4H85v-1.2l1.8-0.6v1.8h1.8L88.2,23.4z"/>
	<path class="st0" d="M90.2,21.2c-0.3,0-0.9-0.6-0.9-0.9s0.6-0.9,0.9-0.9c0.3,0,0.9,0.6,0.9,0.9S90.5,21.2,90.2,21.2z M89.3,27.4
		v-5.4H91v5.4H89.3z"/>
	<path class="st0" d="M95.7,23.8c-0.1-0.1-0.3-0.1-0.5-0.1c-0.6,0-1.1,0.3-1.1,1.2v2.5h-1.8v-5.4h1.7v1.2h0c0.2-0.9,0.8-1.3,1.5-1.3
		c0.2,0,0.4,0,0.5,0.1L95.7,23.8z"/>
	<path class="st0" d="M101.8,24.3l-0.8,0.8h-2.7c0.1,0.4,0.7,0.9,1.6,0.9c0.6,0,1.1-0.2,1.5-0.4l-0.2,1.5c-0.4,0.2-1,0.4-1.7,0.4
		c-1.7,0-3-1.2-3-2.9c0-1.8,1.3-2.9,2.8-2.9c1.5,0,2.4,1,2.4,2.2C101.8,24.1,101.8,24.2,101.8,24.3z M99.4,23.1
		c-0.5,0-0.9,0.4-1.1,0.9h1.8c0,0,0-0.1,0-0.1C100.2,23.5,99.8,23.1,99.4,23.1z"/>
	<path class="st0" d="M109.5,27.4V24c0-0.4-0.2-0.7-0.8-0.7c-0.6,0-0.8,0.3-0.8,0.8v3.3h-1.8V24c0-0.4-0.2-0.7-0.8-0.7
		c-0.6,0-0.8,0.3-0.8,0.8v3.3h-1.8v-5.4h1.6v0.7h0c0.2-0.6,0.8-0.9,1.6-0.9c0.8,0,1.4,0.3,1.6,0.9c0.2-0.5,0.9-0.9,1.7-0.9
		c1.2,0,1.9,0.7,1.9,1.8v3.8H109.5z"/>
	<path class="st0" d="M117.5,24.3l-0.8,0.8h-2.7c0.1,0.4,0.7,0.9,1.6,0.9c0.6,0,1.1-0.2,1.5-0.4l-0.2,1.5c-0.4,0.2-1,0.4-1.7,0.4
		c-1.7,0-3-1.2-3-2.9c0-1.8,1.3-2.9,2.8-2.9c1.5,0,2.4,1,2.4,2.2C117.6,24.1,117.6,24.2,117.5,24.3z M115.2,23.1
		c-0.5,0-0.9,0.4-1.1,0.9h1.8c0,0,0-0.1,0-0.1C115.9,23.5,115.6,23.1,115.2,23.1z"/>
	<path class="st0" d="M122,27.4V24c0-0.4-0.3-0.7-0.8-0.7c-0.5,0-0.9,0.3-0.9,0.8v3.3h-1.8v-5.4h1.6v0.7h0c0.2-0.6,0.8-0.9,1.7-0.9
		c1.2,0,1.9,0.7,1.9,1.8v3.8H122z"/>
	<path class="st0" d="M128.6,23.4h-1.4v2c0,0.5,0.3,0.7,0.7,0.7c0.2,0,0.3,0,0.5-0.1l-0.2,1.3c-0.2,0.1-0.5,0.1-0.8,0.1
		c-1.2,0-2-0.6-2-1.7v-2.4h-0.9v-1.4h0.9v-1.2l1.8-0.6v1.8h1.8L128.6,23.4z"/>
	<path class="st0" d="M133.4,21.2c-0.3,0-0.9-0.6-0.9-0.9s0.6-0.9,0.9-0.9c0.3,0,0.9,0.6,0.9,0.9S133.8,21.2,133.4,21.2z
		 M132.6,27.4v-5.4h1.8v5.4H132.6z"/>
	<path class="st0" d="M139.1,27.4V24c0-0.4-0.3-0.7-0.8-0.7c-0.5,0-0.9,0.3-0.9,0.8v3.3h-1.8v-5.4h1.6v0.7h0
		c0.2-0.6,0.8-0.9,1.7-0.9c1.2,0,1.9,0.7,1.9,1.8v3.8H139.1z"/>
	<path class="st0" d="M146.2,23.7c-0.4-0.2-0.7-0.3-1.2-0.3c-0.8,0-1.4,0.6-1.4,1.3c0,0.8,0.6,1.3,1.4,1.3c0.5,0,0.8-0.1,1.2-0.3
		l-0.2,1.5c-0.4,0.2-0.8,0.3-1.3,0.3c-1.5,0-2.9-1.1-2.9-2.8c0-1.8,1.4-2.8,2.9-2.8c0.7,0,1.3,0.1,1.8,0.4L146.2,23.7z"/>
	<path class="st0" d="M150.2,27.5c-1.6,0-3-1.2-3-2.9s1.3-2.9,3-2.9c1.6,0,3,1.2,3,2.9S151.8,27.5,150.2,27.5z M150.2,23.3
		c-0.7,0-1.2,0.6-1.2,1.4c0,0.8,0.6,1.4,1.2,1.4c0.6,0,1.2-0.6,1.2-1.4C151.4,23.9,150.8,23.3,150.2,23.3z"/>
	<path class="st0" d="M160.9,27.4V24c0-0.4-0.2-0.7-0.8-0.7c-0.6,0-0.8,0.3-0.8,0.8v3.3h-1.8V24c0-0.4-0.2-0.7-0.8-0.7
		c-0.6,0-0.8,0.3-0.8,0.8v3.3h-1.8v-5.4h1.6v0.7h0c0.2-0.6,0.8-0.9,1.6-0.9c0.8,0,1.4,0.3,1.6,0.9c0.2-0.5,0.9-0.9,1.7-0.9
		c1.2,0,1.9,0.7,1.9,1.8v3.8H160.9z"/>
	<path class="st0" d="M168.9,24.3l-0.8,0.8h-2.7c0.1,0.4,0.7,0.9,1.6,0.9c0.6,0,1.1-0.2,1.5-0.4l-0.2,1.5c-0.4,0.2-1,0.4-1.7,0.4
		c-1.7,0-3-1.2-3-2.9c0-1.8,1.3-2.9,2.8-2.9c1.5,0,2.4,1,2.4,2.2C168.9,24.1,168.9,24.2,168.9,24.3z M166.5,23.1
		c-0.5,0-0.9,0.4-1.1,0.9h1.8c0,0,0-0.1,0-0.1C167.3,23.5,167,23.1,166.5,23.1z"/>
</g>
<g>
	<path class="st0" d="M78.2,35.7c-0.4-0.2-0.7-0.3-1.2-0.3c-0.8,0-1.4,0.6-1.4,1.3c0,0.8,0.6,1.3,1.4,1.3c0.5,0,0.8-0.1,1.2-0.3
		l-0.2,1.5c-0.4,0.2-0.8,0.3-1.3,0.3c-1.5,0-2.9-1.1-2.9-2.8c0-1.8,1.4-2.8,2.9-2.8c0.7,0,1.3,0.1,1.8,0.4L78.2,35.7z"/>
	<path class="st0" d="M83.3,39.6c-0.3-0.1-0.7-0.3-0.8-0.7c-0.2,0.4-0.8,0.7-1.4,0.7c-1,0-1.8-0.7-1.8-1.8c0-1,0.8-1.7,1.9-1.8
		l1.1-0.1v-0.2c0-0.3-0.3-0.5-0.9-0.5c-0.5,0-1.1,0.2-1.5,0.4l-0.3-1.3c0.4-0.3,1.2-0.5,1.9-0.5c1.4,0,2.5,0.7,2.5,2v1.8
		c0,0.6,0.2,1,0.7,1.1L83.3,39.6z M82.2,37l-0.7,0.1c-0.5,0-0.7,0.4-0.7,0.7c0,0.3,0.2,0.5,0.6,0.5c0.4,0,0.8-0.3,0.8-0.8V37z"/>
	<path class="st0" d="M88.7,39.4V36c0-0.4-0.3-0.7-0.8-0.7c-0.5,0-0.9,0.3-0.9,0.8v3.3h-1.8v-5.4h1.6v0.7h0c0.2-0.6,0.8-0.9,1.7-0.9
		c1.2,0,1.9,0.7,1.9,1.8v3.8H88.7z"/>
	<path class="st0" d="M97.1,39.5c-1.2,0-2.1-0.4-2.6-0.8v-7.9h1.7v3.3c0.2-0.2,0.8-0.4,1.4-0.4c1.5,0,2.7,1.1,2.7,2.8
		C100.3,38.2,99.2,39.5,97.1,39.5z M97.3,35.3c-0.5,0-0.9,0.2-1.1,0.4v2.1c0.2,0.1,0.6,0.3,0.9,0.3c0.9,0,1.5-0.6,1.5-1.4
		C98.6,35.9,98,35.3,97.3,35.3z"/>
	<path class="st0" d="M106.3,36.3l-0.8,0.8h-2.7c0.1,0.4,0.7,0.9,1.6,0.9c0.6,0,1.1-0.2,1.5-0.4l-0.2,1.5c-0.4,0.2-1,0.4-1.7,0.4
		c-1.7,0-3-1.2-3-2.9c0-1.8,1.3-2.9,2.8-2.9c1.5,0,2.4,1,2.4,2.2C106.4,36.1,106.3,36.2,106.3,36.3z M103.9,35.1
		c-0.5,0-0.9,0.4-1.1,0.9h1.8c0,0,0-0.1,0-0.1C104.7,35.5,104.4,35.1,103.9,35.1z"/>
	<path class="st0" d="M108.1,39.5c-0.3,0-1-0.7-1-1c0-0.3,0.7-1,1-1c0.3,0,1,0.7,1,1C109.1,38.9,108.4,39.5,108.1,39.5z"/>
</g>
</svg>
