<?xml version="1.0" encoding="utf-8"?>
<!-- Generator: Adobe Illustrator 22.1.0, SVG Export Plug-In . SVG Version: 6.00 Build 0)  -->
<svg version="1.1" id="Layer_1" xmlns="http://www.w3.org/2000/svg" xmlns:xlink="http://www.w3.org/1999/xlink" x="0px" y="0px"
	 viewBox="0 0 300 50" style="enable-background:new 0 0 300 50;" xml:space="preserve">
<style type="text/css">
	.st0{fill:#F9E038;}
	.st1{fill:#231F20;}
</style>
<path class="st0" d="M205.5,6.8c0,0-6,0-6,6v3.8c0,0,0,6,6,6h57c0,0,6,0,6-6v-3.8c0,0,0-6-6-6H205.5z"/>
<g>
	<path class="st1" d="M209.4,13.9c0-0.5-0.2-1-0.8-1c-0.8,0-0.9,1-0.9,1.6c0,0.7,0.1,1.5,0.9,1.5c0.5,0,0.8-0.4,0.8-0.9l1.1,0.1
		c-0.1,1.1-0.9,1.8-2,1.8c-1.4,0-2.1-1.2-2.1-2.5c0-1.3,0.7-2.5,2.2-2.5c1.2,0,1.8,0.7,1.9,1.9L209.4,13.9z"/>
	<path class="st1" d="M215.3,16.8h-1.2l-0.3-1h-1.6l-0.3,1h-1l1.5-4.8h1.3L215.3,16.8z M213.5,14.9l-0.5-1.7l-0.5,1.7H213.5z"/>
	<path class="st1" d="M218.9,15.8v1h-3.1V12h1.1v3.9H218.9z"/>
	<path class="st1" d="M222.1,13.9c0-0.5-0.2-1-0.8-1c-0.8,0-0.9,1-0.9,1.6c0,0.7,0.1,1.5,0.9,1.5c0.5,0,0.8-0.4,0.8-0.9l1.1,0.1
		c-0.1,1.1-0.9,1.8-2,1.8c-1.4,0-2.1-1.2-2.1-2.5c0-1.3,0.7-2.5,2.2-2.5c1.2,0,1.8,0.7,1.9,1.9L222.1,13.9z"/>
	<path class="st1" d="M227.9,14.9c0,0.5,0,1.1-0.4,1.5c-0.4,0.4-1,0.5-1.5,0.5c-0.5,0-1.1-0.1-1.5-0.4c-0.5-0.4-0.5-1-0.5-1.6V12
		h1.2v2.9c0,0.2,0,0.5,0.1,0.7c0.1,0.3,0.4,0.3,0.7,0.3c0.2,0,0.6-0.1,0.7-0.3c0.2-0.2,0.1-0.6,0.1-0.8V12h1V14.9z"/>
	<path class="st1" d="M231.9,15.8v1h-3.1V12h1.1v3.9H231.9z"/>
	<path class="st1" d="M236.6,16.8h-1.2l-0.3-1h-1.6l-0.3,1h-1l1.5-4.8h1.3L236.6,16.8z M234.8,14.9l-0.5-1.7l-0.5,1.7H234.8z"/>
	<path class="st1" d="M240,12.9h-1.2v3.9h-1.1v-3.9h-1.2v-1h3.5V12.9z"/>
	<path class="st1" d="M241.7,12.9v1h1.8v0.9h-1.8v1.1h2.3v0.9h-3.4V12h3.4v0.9H241.7z"/>
	<path class="st1" d="M250.3,16.8h-1l-1.8-3.2h0v3.2h-0.9V12h1.2l1.6,2.8h0V12h0.9V16.8z"/>
	<path class="st1" d="M251.6,16.1c-0.4-0.5-0.5-1.1-0.5-1.7c0-1.3,0.6-2.5,2.1-2.5c0.6,0,1.1,0.2,1.5,0.7c0.3,0.5,0.5,1.1,0.5,1.7
		c0,0.5-0.1,1.2-0.5,1.7c-0.4,0.5-0.9,0.8-1.6,0.8S252,16.6,251.6,16.1z M252.4,13.4c-0.1,0.3-0.2,0.7-0.2,1c0,0.6,0.1,1.6,0.9,1.6
		c0.4,0,0.6-0.2,0.7-0.5c0.1-0.3,0.1-0.7,0.1-1c0-0.4,0-0.8-0.2-1.1c-0.1-0.3-0.3-0.5-0.7-0.5C252.8,12.8,252.6,13,252.4,13.4z"/>
	<path class="st1" d="M260.5,16.8h-1.1l-0.8-3.2h0l-0.8,3.2h-1.1l-1.2-4.8h1.1l0.7,3.2h0l0.8-3.2h1l0.8,3.2h0l0-0.2l0.7-3h0.9
		L260.5,16.8z"/>
</g>
</svg>
