<?xml version="1.0" encoding="utf-8"?>
<!-- Generator: Adobe Illustrator 17.0.0, SVG Export Plug-In . SVG Version: 6.00 Build 0)  -->
<!DOCTYPE svg PUBLIC "-//W3C//DTD SVG 1.1//EN" "http://www.w3.org/Graphics/SVG/1.1/DTD/svg11.dtd">
<svg version="1.1" id="Layer_1" xmlns="http://www.w3.org/2000/svg" xmlns:xlink="http://www.w3.org/1999/xlink" x="0px" y="0px"
	 width="160px" height="600px" viewBox="0 0 160 600" style="enable-background:new 0 0 160 600;" xml:space="preserve">
<style type="text/css">
	.st0{fill:#231F20;}
</style>
<g>
	<path class="st0" d="M123.055,591.808c-0.928,0-1.734-0.647-1.734-1.847c0-1.359,0.999-2.814,2.366-3.519l0.72,0.336
		c-0.96,0.479-1.711,1.159-2.087,2.047c0.191-0.191,0.447-0.328,0.792-0.328c0.975,0,1.639,0.728,1.639,1.647
		C124.75,591.104,124.03,591.808,123.055,591.808z M123.062,589.169c-0.399,0-0.848,0.152-0.991,0.712
		c-0.008,0.088-0.008,0.176-0.008,0.264c0,0.576,0.479,1.056,1.008,1.056c0.527,0,0.943-0.408,0.943-1.016
		C124.015,589.609,123.623,589.169,123.062,589.169z"/>
	<path class="st0" d="M127.206,591.815c-0.927,0-1.743-0.848-1.743-2.654c0-1.791,0.816-2.646,1.743-2.646
		c0.912,0,1.743,0.855,1.743,2.646C128.949,590.968,128.118,591.815,127.206,591.815z M127.206,587.162
		c-0.52,0-1.007,0.56-1.007,1.999c0,1.455,0.487,2.007,1.007,2.007c0.512,0,1.008-0.552,1.008-2.007
		C128.214,587.722,127.718,587.162,127.206,587.162z"/>
	<path class="st0" d="M130.927,591.808c-0.392,0-0.76-0.088-0.968-0.2l-0.08-0.719c0.32,0.191,0.656,0.279,1.008,0.279
		c0.592,0,1.096-0.376,1.096-1.016c0-0.655-0.504-1.047-1.071-1.047c-0.376,0-0.64,0.048-0.88,0.136l0.08-2.623h2.23l-0.136,0.624
		h-1.399l-0.032,1.239c0.064-0.008,0.145-0.016,0.208-0.016c0.952,0,1.735,0.64,1.735,1.694
		C132.718,591.04,132.103,591.808,130.927,591.808z"/>
	<path class="st0" d="M134.326,591.88l-0.719-0.336c0.975-0.488,1.734-1.151,2.103-2.047c-0.192,0.191-0.456,0.328-0.808,0.328
		c-0.976,0-1.639-0.728-1.639-1.647c0-0.96,0.719-1.663,1.694-1.663c0.928,0,1.735,0.647,1.735,1.847
		C136.693,589.721,135.694,591.176,134.326,591.88z M134.942,587.17c-0.527,0-0.943,0.408-0.943,1.016
		c0,0.576,0.392,1.016,0.951,1.016c0.408,0,0.848-0.168,0.991-0.728c0.009-0.08,0.009-0.16,0.009-0.248
		C135.95,587.65,135.47,587.17,134.942,587.17z"/>
	<path class="st0" d="M138.375,591.72h-0.783l1.935-4.478h-2.343v-0.624h3.382L138.375,591.72z"/>
	<path class="st0" d="M142.07,591.88l-0.719-0.336c0.975-0.488,1.734-1.151,2.103-2.047c-0.192,0.191-0.456,0.328-0.808,0.328
		c-0.976,0-1.639-0.728-1.639-1.647c0-0.96,0.719-1.663,1.694-1.663c0.928,0,1.735,0.647,1.735,1.847
		C144.438,589.721,143.438,591.176,142.07,591.88z M142.687,587.17c-0.527,0-0.943,0.408-0.943,1.016
		c0,0.576,0.392,1.016,0.951,1.016c0.408,0,0.848-0.168,0.991-0.728c0.009-0.08,0.009-0.16,0.009-0.248
		C143.694,587.65,143.214,587.17,142.687,587.17z"/>
	<path class="st0" d="M147.774,591.808c-0.248-0.056-0.52-0.264-0.575-0.567c-0.168,0.424-0.552,0.567-0.968,0.567
		c-0.72,0-1.167-0.527-1.167-1.111c0-0.704,0.575-1.104,1.191-1.159l0.847-0.08v-0.232c0-0.327-0.191-0.591-0.703-0.591
		c-0.36,0-0.735,0.111-1,0.287l-0.144-0.6c0.328-0.216,0.744-0.312,1.184-0.312c0.808,0,1.391,0.456,1.391,1.312v1.463
		c0,0.328,0.177,0.52,0.408,0.56L147.774,591.808z M147.103,590.057l-0.695,0.064c-0.464,0.039-0.647,0.319-0.647,0.583
		c0,0.256,0.208,0.488,0.535,0.488c0.433,0,0.808-0.328,0.808-0.815V590.057z"/>
</g>
</svg>
