<?xml version="1.0" encoding="utf-8"?>
<!-- Generator: Adobe Illustrator 17.0.0, SVG Export Plug-In . SVG Version: 6.00 Build 0)  -->
<!DOCTYPE svg PUBLIC "-//W3C//DTD SVG 1.1//EN" "http://www.w3.org/Graphics/SVG/1.1/DTD/svg11.dtd">
<svg version="1.1" id="Layer_1" xmlns="http://www.w3.org/2000/svg" xmlns:xlink="http://www.w3.org/1999/xlink" x="0px" y="0px"
	 width="160px" height="600px" viewBox="0 0 160 600" style="enable-background:new 0 0 160 600;" xml:space="preserve">
<style type="text/css">
	.st0{fill:#231F20;}
</style>
<g>
	<path class="st0" d="M20.965,51.36H15.3V36.046h5.017c2.376,0,4.488,1.56,4.488,4.057c0,0.912-0.456,2.064-1.272,2.52
		c1.344,0.432,2.664,2.016,2.664,3.96C26.197,49.56,23.845,51.36,20.965,51.36z M19.741,38.807h-1.104v3.145h1.104
		c0.888,0,1.704-0.456,1.704-1.56C21.445,39.263,20.629,38.807,19.741,38.807z M20.341,44.639h-1.704v4.008h1.704
		c1.128,0,2.28-0.6,2.28-1.992C22.621,45.287,21.493,44.639,20.341,44.639z"/>
	<path class="st0" d="M35.293,51.36v-1.488h-0.024c-0.432,1.152-1.584,1.8-3.336,1.8c-2.376,0-3.816-1.32-3.816-3.625v-7.561h3.528
		v6.673c0,0.792,0.552,1.488,1.632,1.488c1.056,0,1.705-0.696,1.705-1.56v-6.601h3.528V51.36H35.293z"/>
	<path class="st0" d="M48.061,43.367h-2.832v4.032c0,0.936,0.504,1.32,1.44,1.32c0.408,0,0.648-0.024,0.912-0.144l-0.312,2.664
		c-0.336,0.168-0.936,0.288-1.632,0.288c-2.448,0-3.913-1.296-3.913-3.456v-4.705H39.9v-2.88h1.824v-2.328l3.504-1.272v3.6h3.504
		L48.061,43.367z"/>
	<path class="st0" d="M57.228,38.999c-0.624,0-1.896-1.272-1.896-1.896s1.272-1.872,1.896-1.872s1.896,1.248,1.896,1.872
		S57.852,38.999,57.228,38.999z M55.452,51.36V40.487h3.552V51.36H55.452z"/>
	<path class="st0" d="M68.892,37.415c-0.408-0.168-0.984-0.288-1.416-0.288c-1.296,0-1.968,0.768-1.968,2.329v1.032h3.12
		l-0.696,2.88h-2.424v7.993H62.1v-7.993h-1.656v-2.88H62.1v-1.272c0-3.312,2.136-4.944,4.873-4.944c1.008,0,2.016,0.12,2.568,0.36
		L68.892,37.415z"/>
</g>
<g>
	<path class="st0" d="M22.405,67.367h-2.832v4.032c0,0.936,0.504,1.32,1.44,1.32c0.408,0,0.648-0.024,0.912-0.144l-0.312,2.664
		c-0.336,0.168-0.936,0.288-1.632,0.288c-2.448,0-3.913-1.296-3.913-3.456v-4.705h-1.824v-2.88h1.824v-2.328l3.504-1.272v3.6h3.504
		L22.405,67.367z"/>
	<path class="st0" d="M31.213,75.36v-6.672c0-0.792-0.552-1.488-1.632-1.488c-1.056,0-1.705,0.672-1.705,1.536v6.625h-3.528V58.271
		h3.48v7.225h0.024c0.552-0.84,1.56-1.344,3.072-1.344c2.4,0,3.816,1.344,3.816,3.648v7.561H31.213z"/>
	<path class="st0" d="M46.909,69.312l-1.56,1.584h-5.329c0.168,0.888,1.368,1.896,3.216,1.896c1.128,0,2.28-0.336,3-0.816L45.901,75
		c-0.816,0.432-2.064,0.72-3.456,0.72c-3.312,0-5.977-2.304-5.977-5.856c0-3.504,2.544-5.736,5.665-5.736
		c3.024,0,4.873,2.088,4.873,4.344C47.005,68.735,46.957,69.095,46.909,69.312z M42.133,66.767c-1.032,0-1.896,0.792-2.112,1.776
		h3.672c0-0.072,0.024-0.144,0.024-0.24C43.717,67.559,43.069,66.767,42.133,66.767z"/>
	<path class="st0" d="M54.996,74.28c-1.656,4.368-3.384,5.953-5.424,6.745l-2.16-2.16c1.752-0.672,3.096-1.944,3.984-4.249
		l-3.912-10.129h3.408l1.584,4.225c0.24,0.624,0.48,1.368,0.648,2.136h0.048c0.216-0.744,0.456-1.512,0.696-2.136l1.584-4.225h3.241
		L54.996,74.28z"/>
	<path class="st0" d="M77.413,75.456h-2.424l-1.464-4.32c-0.216-0.672-0.433-1.44-0.648-2.256h-0.048
		c-0.168,0.816-0.384,1.608-0.6,2.232l-1.465,4.345H68.46l-3.792-10.969h3.216l1.344,4.128c0.192,0.624,0.408,1.392,0.528,2.088
		h0.048c0.12-0.672,0.312-1.464,0.528-2.088l1.368-4.128h2.664l1.368,4.104c0.216,0.672,0.36,1.416,0.504,2.112h0.048
		c0.145-0.696,0.336-1.464,0.553-2.112l1.368-4.104h3L77.413,75.456z"/>
	<path class="st0" d="M92.076,69.312l-1.561,1.584h-5.328c0.168,0.888,1.368,1.896,3.216,1.896c1.128,0,2.28-0.336,3-0.816
		L91.067,75c-0.815,0.432-2.063,0.72-3.456,0.72c-3.312,0-5.977-2.304-5.977-5.856c0-3.504,2.544-5.736,5.664-5.736
		c3.024,0,4.873,2.088,4.873,4.344C92.172,68.735,92.124,69.095,92.076,69.312z M87.299,66.767c-1.031,0-1.896,0.792-2.111,1.776
		h3.672c0-0.072,0.024-0.144,0.024-0.24C88.884,67.559,88.235,66.767,87.299,66.767z"/>
	<path class="st0" d="M100.644,68.231c-0.216-0.12-0.696-0.264-1.057-0.264c-1.128,0-2.16,0.6-2.16,2.328v5.064h-3.528V64.487h3.48
		v2.424h0.024c0.36-1.704,1.632-2.616,3.096-2.616c0.337,0,0.744,0.048,1.009,0.144L100.644,68.231z"/>
	<path class="st0" d="M112.428,69.312l-1.561,1.584h-5.328c0.168,0.888,1.368,1.896,3.216,1.896c1.128,0,2.28-0.336,3-0.816
		L111.419,75c-0.815,0.432-2.063,0.72-3.456,0.72c-3.312,0-5.977-2.304-5.977-5.856c0-3.504,2.544-5.736,5.664-5.736
		c3.024,0,4.873,2.088,4.873,4.344C112.523,68.735,112.476,69.095,112.428,69.312z M107.65,66.767c-1.031,0-1.896,0.792-2.111,1.776
		h3.672c0-0.072,0.024-0.144,0.024-0.24C109.235,67.559,108.587,66.767,107.65,66.767z"/>
</g>
<g>
	<path class="st0" d="M27.109,99.456h-2.424l-1.464-4.32c-0.216-0.672-0.432-1.44-0.648-2.256h-0.048
		c-0.168,0.816-0.384,1.608-0.6,2.232l-1.464,4.345h-2.304l-3.792-10.969h3.216l1.344,4.128c0.192,0.624,0.408,1.392,0.528,2.088
		H19.5c0.12-0.672,0.312-1.464,0.528-2.088l1.368-4.128h2.664l1.368,4.104c0.216,0.672,0.36,1.416,0.504,2.112h0.048
		c0.144-0.696,0.336-1.464,0.552-2.112l1.368-4.104h3L27.109,99.456z"/>
	<path class="st0" d="M37.213,99.696c-3.289,0-5.929-2.328-5.929-5.784c0-3.457,2.64-5.785,5.929-5.785
		c3.264,0,5.928,2.328,5.928,5.785C43.141,97.368,40.477,99.696,37.213,99.696z M37.213,91.199c-1.32,0-2.448,1.152-2.448,2.76
		c0,1.608,1.128,2.76,2.448,2.76c1.296,0,2.448-1.152,2.448-2.76C39.661,92.351,38.509,91.199,37.213,91.199z"/>
	<path class="st0" d="M51.637,92.231c-0.216-0.12-0.696-0.264-1.056-0.264c-1.128,0-2.16,0.6-2.16,2.328v5.064h-3.528V88.487h3.48
		v2.424h0.024c0.36-1.704,1.632-2.616,3.096-2.616c0.336,0,0.744,0.048,1.008,0.144L51.637,92.231z"/>
	<path class="st0" d="M60.444,99.36l-3.216-4.393h-0.024v4.393h-3.48V82.271h3.48v10.633h0.024l3.265-4.417h3.84l-3.816,5.281
		l4.032,5.592H60.444z"/>
	<path class="st0" d="M67.524,86.999c-0.624,0-1.896-1.272-1.896-1.896s1.272-1.872,1.896-1.872s1.896,1.248,1.896,1.872
		S68.148,86.999,67.524,86.999z M65.748,99.36V88.487H69.3V99.36H65.748z"/>
	<path class="st0" d="M78.468,99.36v-6.672c0-0.792-0.528-1.488-1.608-1.488c-1.056,0-1.729,0.672-1.729,1.536v6.625h-3.528V88.487
		h3.24v1.464h0.024c0.432-1.152,1.561-1.8,3.312-1.8c2.376,0,3.816,1.344,3.816,3.648v7.561H78.468z"/>
	<path class="st0" d="M88.812,104.904c-3.168,0-5.28-1.8-5.28-4.08c0-1.656,1.104-2.641,2.232-2.929l-1.393-1.392
		c0.097-0.696,0.696-1.296,1.32-1.56c-0.816-0.504-1.584-1.536-1.584-2.904c0-2.304,1.656-3.912,4.488-3.912
		c0.648,0,1.152,0.096,1.608,0.216c0.479,0.12,1.008,0.192,1.56,0.192c0.601,0,1.225-0.144,1.704-0.36l0.648,2.688
		c-0.336,0.192-0.864,0.36-1.344,0.336c0.12,0.216,0.264,0.72,0.264,1.104c0,1.824-1.44,3.36-3.553,3.504
		c-0.432,0.024-0.72,0.12-0.72,0.408c0,0.12,0.096,0.264,0.288,0.336l1.68,0.6c2.137,0.768,3.289,1.848,3.289,3.84
		C94.021,103.224,91.98,104.904,88.812,104.904z M89.556,99.792l-1.296-0.36c-0.84,0.024-1.464,0.625-1.464,1.417
		c0,0.744,0.647,1.368,1.92,1.368c1.248,0,1.92-0.576,1.92-1.2C90.636,100.512,90.252,99.984,89.556,99.792z M88.596,90.695
		c-0.792,0-1.393,0.6-1.393,1.296c0,0.72,0.601,1.296,1.393,1.296c0.769,0,1.393-0.576,1.393-1.296
		C89.988,91.295,89.412,90.695,88.596,90.695z"/>
</g>
<g>
	<path class="st0" d="M22.405,115.367h-2.832v4.032c0,0.936,0.504,1.32,1.44,1.32c0.408,0,0.648-0.024,0.912-0.144l-0.312,2.664
		c-0.336,0.168-0.936,0.288-1.632,0.288c-2.448,0-3.913-1.296-3.913-3.456v-4.705h-1.824v-2.88h1.824v-2.328l3.504-1.272v3.6h3.504
		L22.405,115.367z"/>
	<path class="st0" d="M29.509,123.696c-3.289,0-5.929-2.328-5.929-5.784c0-3.457,2.64-5.785,5.929-5.785
		c3.264,0,5.928,2.328,5.928,5.785C35.437,121.368,32.773,123.696,29.509,123.696z M29.509,115.199c-1.32,0-2.448,1.152-2.448,2.76
		c0,1.608,1.128,2.76,2.448,2.76c1.296,0,2.448-1.152,2.448-2.76C31.957,116.351,30.805,115.199,29.509,115.199z"/>
	<path class="st0" d="M41.7,128.904c-3.168,0-5.28-1.8-5.28-4.08c0-1.656,1.104-2.641,2.232-2.929l-1.392-1.392
		c0.096-0.696,0.696-1.296,1.32-1.56c-0.816-0.504-1.584-1.536-1.584-2.904c0-2.304,1.656-3.912,4.488-3.912
		c0.648,0,1.152,0.096,1.608,0.216c0.48,0.12,1.008,0.192,1.561,0.192c0.6,0,1.224-0.144,1.704-0.36l0.648,2.688
		c-0.336,0.192-0.864,0.36-1.344,0.336c0.12,0.216,0.264,0.72,0.264,1.104c0,1.824-1.44,3.36-3.552,3.504
		c-0.432,0.024-0.72,0.12-0.72,0.408c0,0.12,0.096,0.264,0.288,0.336l1.68,0.6c2.136,0.768,3.288,1.848,3.288,3.84
		C46.909,127.224,44.869,128.904,41.7,128.904z M42.444,123.792l-1.296-0.36c-0.84,0.024-1.464,0.625-1.464,1.417
		c0,0.744,0.648,1.368,1.92,1.368c1.248,0,1.92-0.576,1.92-1.2C43.524,124.512,43.141,123.984,42.444,123.792z M41.484,114.695
		c-0.792,0-1.392,0.6-1.392,1.296c0,0.72,0.6,1.296,1.392,1.296c0.768,0,1.392-0.576,1.392-1.296
		C42.876,115.295,42.3,114.695,41.484,114.695z"/>
	<path class="st0" d="M58.236,117.312l-1.56,1.584h-5.329c0.168,0.888,1.368,1.896,3.216,1.896c1.128,0,2.28-0.336,3-0.816
		L57.228,123c-0.816,0.432-2.064,0.72-3.456,0.72c-3.312,0-5.977-2.304-5.977-5.856c0-3.504,2.544-5.736,5.665-5.736
		c3.024,0,4.873,2.088,4.873,4.344C58.333,116.735,58.284,117.095,58.236,117.312z M53.46,114.767c-1.032,0-1.896,0.792-2.112,1.776
		h3.672c0-0.072,0.024-0.144,0.024-0.24C55.044,115.559,54.396,114.767,53.46,114.767z"/>
	<path class="st0" d="M67.428,115.367h-2.833v4.032c0,0.936,0.505,1.32,1.44,1.32c0.408,0,0.648-0.024,0.912-0.144l-0.312,2.664
		c-0.336,0.168-0.937,0.288-1.633,0.288c-2.448,0-3.912-1.296-3.912-3.456v-4.705h-1.824v-2.88h1.824v-2.328l3.504-1.272v3.6H68.1
		L67.428,115.367z"/>
	<path class="st0" d="M76.236,123.36v-6.672c0-0.792-0.552-1.488-1.632-1.488c-1.057,0-1.704,0.672-1.704,1.536v6.625h-3.528
		v-17.089h3.48v7.225h0.023c0.552-0.84,1.561-1.344,3.072-1.344c2.4,0,3.816,1.344,3.816,3.648v7.561H76.236z"/>
	<path class="st0" d="M91.956,117.312l-1.561,1.584h-5.328c0.168,0.888,1.368,1.896,3.216,1.896c1.128,0,2.28-0.336,3-0.816
		L90.947,123c-0.815,0.432-2.063,0.72-3.456,0.72c-3.312,0-5.977-2.304-5.977-5.856c0-3.504,2.544-5.736,5.664-5.736
		c3.024,0,4.873,2.088,4.873,4.344C92.052,116.735,92.004,117.095,91.956,117.312z M87.179,114.767
		c-1.031,0-1.896,0.792-2.111,1.776h3.672c0-0.072,0.024-0.144,0.024-0.24C88.764,115.559,88.115,114.767,87.179,114.767z"/>
	<path class="st0" d="M100.523,116.231c-0.216-0.12-0.696-0.264-1.057-0.264c-1.128,0-2.16,0.6-2.16,2.328v5.064h-3.528v-10.873
		h3.48v2.424h0.024c0.36-1.704,1.632-2.616,3.096-2.616c0.337,0,0.744,0.048,1.009,0.144L100.523,116.231z"/>
</g>
</svg>
