<?xml version="1.0" encoding="utf-8"?>
<!-- Generator: Adobe Illustrator 17.0.0, SVG Export Plug-In . SVG Version: 6.00 Build 0)  -->
<!DOCTYPE svg PUBLIC "-//W3C//DTD SVG 1.1//EN" "http://www.w3.org/Graphics/SVG/1.1/DTD/svg11.dtd">
<svg version="1.1" id="Layer_1" xmlns="http://www.w3.org/2000/svg" xmlns:xlink="http://www.w3.org/1999/xlink" x="0px" y="0px"
	 width="160px" height="600px" viewBox="0 0 160 600" style="enable-background:new 0 0 160 600;" xml:space="preserve">
<style type="text/css">
	.st0{fill:#231F20;}
</style>
<g>
	<path class="st0" d="M22.253,39.367h-2.832v4.032c0,0.936,0.504,1.32,1.44,1.32c0.408,0,0.648-0.024,0.912-0.144l-0.312,2.664
		c-0.336,0.168-0.936,0.288-1.632,0.288c-2.448,0-3.913-1.296-3.913-3.456v-4.705h-1.824v-2.88h1.824v-2.328l3.504-1.272v3.6h3.504
		L22.253,39.367z"/>
	<path class="st0" d="M31.062,47.36v-6.672c0-0.792-0.552-1.488-1.632-1.488c-1.056,0-1.705,0.672-1.705,1.536v6.625h-3.528V30.271
		h3.48v7.225h0.024c0.552-0.84,1.56-1.344,3.072-1.344c2.4,0,3.816,1.344,3.816,3.648v7.561H31.062z"/>
	<path class="st0" d="M46.758,41.312l-1.56,1.584h-5.329c0.168,0.888,1.368,1.896,3.216,1.896c1.128,0,2.28-0.336,3-0.816L45.75,47
		c-0.816,0.432-2.064,0.72-3.456,0.72c-3.312,0-5.977-2.304-5.977-5.856c0-3.504,2.544-5.736,5.665-5.736
		c3.024,0,4.873,2.088,4.873,4.344C46.854,40.735,46.806,41.095,46.758,41.312z M41.981,38.767c-1.032,0-1.896,0.792-2.112,1.776
		h3.672c0-0.072,0.024-0.144,0.024-0.24C43.565,39.559,42.917,38.767,41.981,38.767z"/>
	<path class="st0" d="M54.846,46.28c-1.656,4.368-3.385,5.953-5.425,6.745l-2.16-2.16c1.752-0.672,3.097-1.944,3.984-4.249
		l-3.912-10.129h3.408l1.584,4.225c0.24,0.624,0.48,1.368,0.648,2.136h0.048c0.216-0.744,0.456-1.512,0.696-2.136l1.584-4.225h3.24
		L54.846,46.28z"/>
	<path class="st0" d="M73.589,39.991c-0.72-0.456-1.464-0.696-2.328-0.696c-1.536,0-2.761,1.104-2.761,2.688
		c0,1.56,1.225,2.688,2.833,2.688c0.912,0,1.607-0.192,2.376-0.6l-0.312,3c-0.72,0.336-1.655,0.528-2.664,0.528
		c-3.048,0-5.88-2.161-5.88-5.665c0-3.552,2.855-5.688,5.809-5.688c1.439,0,2.616,0.288,3.576,0.816L73.589,39.991z"/>
	<path class="st0" d="M81.221,47.696c-3.288,0-5.928-2.328-5.928-5.784c0-3.457,2.64-5.785,5.928-5.785
		c3.265,0,5.929,2.328,5.929,5.785C87.149,45.368,84.485,47.696,81.221,47.696z M81.221,39.199c-1.319,0-2.448,1.152-2.448,2.76
		c0,1.608,1.129,2.76,2.448,2.76c1.297,0,2.448-1.152,2.448-2.76C83.669,40.351,82.518,39.199,81.221,39.199z"/>
	<path class="st0" d="M96.028,47.36v-1.488h-0.023c-0.433,1.152-1.584,1.8-3.337,1.8c-2.376,0-3.816-1.32-3.816-3.625v-7.561h3.528
		v6.673c0,0.792,0.553,1.488,1.633,1.488c1.056,0,1.704-0.696,1.704-1.56v-6.601h3.528V47.36H96.028z"/>
	<path class="st0" d="M105.268,47.792c-2.231-0.096-3.72-1.248-3.72-3.864V30.271h3.48v13.225c0,0.888,0.504,1.368,1.464,1.44
		L105.268,47.792z"/>
	<path class="st0" d="M115.925,47.36v-1.344h-0.023c-0.601,1.104-1.849,1.656-3.36,1.656c-2.665,0-5.232-2.016-5.232-5.736
		c0-3.504,2.496-5.785,5.521-5.785c1.151,0,2.328,0.384,2.76,0.744v-6.625h3.433V47.36H115.925z M115.589,40.231
		c-0.336-0.456-1.056-0.984-2.136-0.984c-1.536,0-2.616,1.2-2.616,2.76s1.08,2.76,2.616,2.76c1.031,0,1.752-0.552,2.136-1.128
		V40.231z"/>
</g>
<g>
	<path class="st0" d="M22.662,71.84c-0.648-0.144-1.392-0.648-1.68-1.44c-0.48,0.888-1.512,1.32-2.832,1.32
		c-1.92,0-3.625-1.344-3.625-3.6c0-1.992,1.56-3.336,3.72-3.552l2.16-0.216v-0.36c0-0.648-0.528-1.08-1.704-1.08
		c-1.056,0-2.232,0.336-3.024,0.84l-0.625-2.664c0.888-0.576,2.376-0.96,3.816-0.96c2.88,0,4.92,1.32,4.92,3.937v3.552
		c0,1.272,0.48,1.944,1.32,2.256L22.662,71.84z M20.405,66.607l-1.32,0.12c-0.912,0.072-1.32,0.72-1.32,1.368
		c0,0.576,0.432,1.056,1.104,1.056c0.84,0,1.536-0.648,1.536-1.584V66.607z"/>
	<path class="st0" d="M34.373,63.991c-0.72-0.456-1.464-0.696-2.328-0.696c-1.536,0-2.76,1.104-2.76,2.688
		c0,1.56,1.224,2.688,2.832,2.688c0.912,0,1.608-0.192,2.376-0.6l-0.312,3c-0.72,0.336-1.656,0.528-2.665,0.528
		c-3.048,0-5.88-2.161-5.88-5.665c0-3.552,2.856-5.688,5.809-5.688c1.44,0,2.616,0.288,3.576,0.816L34.373,63.991z"/>
	<path class="st0" d="M43.661,71.36v-6.672c0-0.792-0.552-1.488-1.632-1.488c-1.056,0-1.705,0.672-1.705,1.536v6.625h-3.528V54.271
		h3.48v7.225h0.024c0.552-0.84,1.56-1.344,3.072-1.344c2.4,0,3.816,1.344,3.816,3.648v7.561H43.661z"/>
	<path class="st0" d="M51.244,58.999c-0.624,0-1.896-1.272-1.896-1.896s1.272-1.872,1.896-1.872s1.896,1.248,1.896,1.872
		S51.868,58.999,51.244,58.999z M49.468,71.36V60.487h3.553V71.36H49.468z"/>
	<path class="st0" d="M65.237,65.312l-1.561,1.584h-5.328c0.168,0.888,1.368,1.896,3.216,1.896c1.128,0,2.28-0.336,3-0.816
		L64.229,71c-0.815,0.432-2.063,0.72-3.456,0.72c-3.312,0-5.977-2.304-5.977-5.856c0-3.504,2.544-5.736,5.664-5.736
		c3.024,0,4.873,2.088,4.873,4.344C65.333,64.735,65.285,65.095,65.237,65.312z M60.46,62.767c-1.031,0-1.896,0.792-2.111,1.776
		h3.672c0-0.072,0.024-0.144,0.024-0.24C62.045,63.559,61.396,62.767,60.46,62.767z"/>
	<path class="st0" d="M72.628,71.456h-2.641l-4.176-10.969h3.408l1.536,4.152c0.216,0.576,0.432,1.392,0.6,2.112h0.048
		c0.169-0.696,0.408-1.536,0.625-2.112l1.536-4.152h3.264L72.628,71.456z"/>
	<path class="st0" d="M87.581,65.312l-1.561,1.584h-5.328c0.168,0.888,1.368,1.896,3.216,1.896c1.128,0,2.28-0.336,3-0.816
		L86.572,71c-0.815,0.432-2.063,0.72-3.456,0.72c-3.312,0-5.977-2.304-5.977-5.856c0-3.504,2.544-5.736,5.664-5.736
		c3.024,0,4.873,2.088,4.873,4.344C87.677,64.735,87.629,65.095,87.581,65.312z M82.804,62.767c-1.031,0-1.896,0.792-2.111,1.776
		h3.672c0-0.072,0.024-0.144,0.024-0.24C84.389,63.559,83.74,62.767,82.804,62.767z"/>
</g>
<g>
	<path class="st0" d="M18.509,95.6c-1.488,0-2.568-0.312-3.457-0.768l-0.312-3.121c0.96,0.672,2.208,1.176,3.409,1.176
		c0.648,0,1.056-0.336,1.056-0.744c0-0.456-0.36-0.648-0.984-0.84c-2.088-0.6-3.336-1.656-3.336-3.553
		c0-2.136,1.729-3.504,4.081-3.504c1.344,0,2.664,0.36,3.216,0.648l-0.6,2.592c-0.528-0.288-1.392-0.6-2.256-0.6
		c-0.576,0-0.96,0.264-0.96,0.696c0,0.408,0.288,0.624,0.96,0.792c2.448,0.648,3.457,1.872,3.457,3.696
		C22.782,93.92,21.438,95.6,18.509,95.6z"/>
	<path class="st0" d="M29.861,95.696c-3.289,0-5.929-2.328-5.929-5.784c0-3.457,2.64-5.785,5.929-5.785
		c3.264,0,5.928,2.328,5.928,5.785C35.79,93.368,33.125,95.696,29.861,95.696z M29.861,87.199c-1.32,0-2.448,1.152-2.448,2.76
		c0,1.608,1.128,2.76,2.448,2.76c1.296,0,2.448-1.152,2.448-2.76C32.31,88.351,31.157,87.199,29.861,87.199z"/>
	<path class="st0" d="M50.934,95.36v-6.672c0-0.792-0.384-1.488-1.536-1.488c-1.128,0-1.632,0.672-1.632,1.536v6.625h-3.529v-6.672
		c0-0.792-0.384-1.488-1.536-1.488c-1.128,0-1.632,0.672-1.632,1.536v6.625h-3.528V84.487h3.264v1.464h0.024
		c0.432-1.152,1.512-1.8,3.216-1.8c1.56,0,2.736,0.624,3.217,1.776c0.456-1.056,1.728-1.776,3.36-1.776
		c2.472,0,3.84,1.344,3.84,3.648v7.561H50.934z"/>
	<path class="st0" d="M66.654,89.312l-1.561,1.584h-5.328c0.168,0.888,1.368,1.896,3.216,1.896c1.128,0,2.28-0.336,3-0.816
		L65.646,95c-0.815,0.432-2.063,0.72-3.456,0.72c-3.312,0-5.977-2.304-5.977-5.856c0-3.504,2.544-5.736,5.664-5.736
		c3.024,0,4.873,2.088,4.873,4.344C66.75,88.735,66.702,89.095,66.654,89.312z M61.877,86.767c-1.031,0-1.896,0.792-2.111,1.776
		h3.672c0-0.072,0.024-0.144,0.024-0.24C63.462,87.559,62.813,86.767,61.877,86.767z"/>
	<path class="st0" d="M75.845,87.367h-2.832v4.032c0,0.936,0.504,1.32,1.44,1.32c0.407,0,0.647-0.024,0.912-0.144l-0.312,2.664
		c-0.336,0.168-0.936,0.288-1.632,0.288c-2.448,0-3.912-1.296-3.912-3.456v-4.705h-1.824v-2.88h1.824v-2.328l3.504-1.272v3.6h3.504
		L75.845,87.367z"/>
	<path class="st0" d="M84.652,95.36v-6.672c0-0.792-0.552-1.488-1.632-1.488c-1.057,0-1.704,0.672-1.704,1.536v6.625h-3.528V78.271
		h3.48v7.225h0.023c0.552-0.84,1.561-1.344,3.072-1.344c2.4,0,3.816,1.344,3.816,3.648v7.561H84.652z"/>
	<path class="st0" d="M92.236,82.999c-0.624,0-1.896-1.272-1.896-1.896s1.272-1.872,1.896-1.872s1.896,1.248,1.896,1.872
		S92.86,82.999,92.236,82.999z M90.46,95.36V84.487h3.553V95.36H90.46z"/>
	<path class="st0" d="M103.181,95.36v-6.672c0-0.792-0.528-1.488-1.608-1.488c-1.056,0-1.729,0.672-1.729,1.536v6.625h-3.528V84.487
		h3.24v1.464h0.024c0.432-1.152,1.561-1.8,3.312-1.8c2.376,0,3.816,1.344,3.816,3.648v7.561H103.181z"/>
	<path class="st0" d="M113.524,100.904c-3.168,0-5.28-1.8-5.28-4.08c0-1.656,1.104-2.641,2.232-2.929l-1.393-1.392
		c0.097-0.696,0.696-1.296,1.32-1.56c-0.816-0.504-1.584-1.536-1.584-2.904c0-2.304,1.656-3.912,4.488-3.912
		c0.648,0,1.152,0.096,1.608,0.216c0.479,0.12,1.008,0.192,1.56,0.192c0.601,0,1.225-0.144,1.704-0.36l0.648,2.688
		c-0.336,0.192-0.864,0.36-1.344,0.336c0.12,0.216,0.264,0.72,0.264,1.104c0,1.824-1.44,3.36-3.553,3.504
		c-0.432,0.024-0.72,0.12-0.72,0.408c0,0.12,0.096,0.264,0.288,0.336l1.68,0.6c2.137,0.768,3.289,1.848,3.289,3.84
		C118.733,99.224,116.693,100.904,113.524,100.904z M114.269,95.792l-1.296-0.36c-0.84,0.024-1.464,0.625-1.464,1.417
		c0,0.744,0.647,1.368,1.92,1.368c1.248,0,1.92-0.576,1.92-1.2C115.349,96.512,114.965,95.984,114.269,95.792z M113.309,86.695
		c-0.792,0-1.393,0.6-1.393,1.296c0,0.72,0.601,1.296,1.393,1.296c0.769,0,1.393-0.576,1.393-1.296
		C114.701,87.295,114.125,86.695,113.309,86.695z"/>
</g>
<g>
	<path class="st0" d="M21.702,112.231c-0.216-0.12-0.696-0.264-1.056-0.264c-1.128,0-2.16,0.6-2.16,2.328v5.064h-3.528v-10.873h3.48
		v2.424h0.024c0.36-1.704,1.632-2.616,3.096-2.616c0.336,0,0.744,0.048,1.008,0.144L21.702,112.231z"/>
	<path class="st0" d="M33.486,113.312l-1.56,1.584h-5.329c0.168,0.888,1.368,1.896,3.216,1.896c1.128,0,2.28-0.336,3-0.816
		L32.478,119c-0.816,0.432-2.064,0.72-3.456,0.72c-3.312,0-5.977-2.304-5.977-5.856c0-3.504,2.544-5.736,5.665-5.736
		c3.024,0,4.873,2.088,4.873,4.344C33.582,112.735,33.534,113.095,33.486,113.312z M28.709,110.767
		c-1.032,0-1.896,0.792-2.112,1.776h3.672c0-0.072,0.024-0.144,0.024-0.24C30.293,111.559,29.646,110.767,28.709,110.767z"/>
	<path class="st0" d="M42.869,119.84c-0.648-0.144-1.392-0.648-1.68-1.44c-0.48,0.888-1.512,1.32-2.832,1.32
		c-1.92,0-3.625-1.344-3.625-3.6c0-1.992,1.56-3.336,3.72-3.552l2.16-0.216v-0.36c0-0.648-0.528-1.08-1.704-1.08
		c-1.056,0-2.232,0.336-3.024,0.84l-0.624-2.664c0.888-0.576,2.376-0.96,3.816-0.96c2.88,0,4.92,1.32,4.92,3.937v3.552
		c0,1.272,0.48,1.944,1.32,2.256L42.869,119.84z M40.613,114.607l-1.32,0.12c-0.912,0.072-1.32,0.72-1.32,1.368
		c0,0.576,0.432,1.056,1.104,1.056c0.84,0,1.536-0.648,1.536-1.584V114.607z"/>
	<path class="st0" d="M50.213,119.792c-2.232-0.096-3.721-1.248-3.721-3.864v-13.657h3.48v13.225c0,0.888,0.504,1.368,1.464,1.44
		L50.213,119.792z"/>
	<path class="st0" d="M56.524,119.792c-2.231-0.096-3.72-1.248-3.72-3.864v-13.657h3.48v13.225c0,0.888,0.504,1.368,1.464,1.44
		L56.524,119.792z"/>
	<path class="st0" d="M65.381,118.28c-1.656,4.368-3.385,5.953-5.425,6.745l-2.16-2.16c1.752-0.672,3.097-1.944,3.984-4.249
		l-3.912-10.129h3.408l1.584,4.225c0.24,0.624,0.48,1.368,0.648,2.136h0.048c0.216-0.744,0.456-1.512,0.696-2.136l1.584-4.225h3.24
		L65.381,118.28z"/>
	<path class="st0" d="M79.349,119.6c-1.488,0-2.568-0.312-3.456-0.768l-0.312-3.121c0.96,0.672,2.208,1.176,3.408,1.176
		c0.648,0,1.057-0.336,1.057-0.744c0-0.456-0.36-0.648-0.984-0.84c-2.088-0.6-3.336-1.656-3.336-3.553
		c0-2.136,1.728-3.504,4.08-3.504c1.344,0,2.664,0.36,3.216,0.648l-0.6,2.592c-0.528-0.288-1.393-0.6-2.256-0.6
		c-0.576,0-0.96,0.264-0.96,0.696c0,0.408,0.287,0.624,0.96,0.792c2.448,0.648,3.456,1.872,3.456,3.696
		C83.621,117.92,82.277,119.6,79.349,119.6z"/>
	<path class="st0" d="M97.086,119.456h-2.425l-1.464-4.32c-0.216-0.672-0.433-1.44-0.648-2.256h-0.048
		c-0.168,0.816-0.384,1.608-0.6,2.232l-1.465,4.345h-2.304l-3.792-10.969h3.216l1.344,4.128c0.192,0.624,0.408,1.392,0.528,2.088
		h0.048c0.12-0.672,0.312-1.464,0.528-2.088l1.368-4.128h2.664l1.368,4.104c0.216,0.672,0.36,1.416,0.504,2.112h0.048
		c0.145-0.696,0.336-1.464,0.553-2.112l1.368-4.104h3L97.086,119.456z"/>
	<path class="st0" d="M111.749,113.312l-1.561,1.584h-5.328c0.168,0.888,1.368,1.896,3.216,1.896c1.128,0,2.28-0.336,3-0.816
		L110.74,119c-0.815,0.432-2.063,0.72-3.456,0.72c-3.312,0-5.977-2.304-5.977-5.856c0-3.504,2.544-5.736,5.664-5.736
		c3.024,0,4.873,2.088,4.873,4.344C111.845,112.735,111.797,113.095,111.749,113.312z M106.972,110.767
		c-1.031,0-1.896,0.792-2.111,1.776h3.672c0-0.072,0.024-0.144,0.024-0.24C108.557,111.559,107.908,110.767,106.972,110.767z"/>
	<path class="st0" d="M123.461,113.312l-1.561,1.584h-5.328c0.168,0.888,1.368,1.896,3.216,1.896c1.128,0,2.28-0.336,3-0.816
		L122.452,119c-0.815,0.432-2.063,0.72-3.456,0.72c-3.312,0-5.977-2.304-5.977-5.856c0-3.504,2.544-5.736,5.664-5.736
		c3.024,0,4.873,2.088,4.873,4.344C123.557,112.735,123.509,113.095,123.461,113.312z M118.684,110.767
		c-1.031,0-1.896,0.792-2.111,1.776h3.672c0-0.072,0.024-0.144,0.024-0.24C120.269,111.559,119.62,110.767,118.684,110.767z"/>
	<path class="st0" d="M132.651,111.367h-2.832v4.032c0,0.936,0.504,1.32,1.44,1.32c0.407,0,0.647-0.024,0.912-0.144l-0.312,2.664
		c-0.336,0.168-0.936,0.288-1.632,0.288c-2.448,0-3.912-1.296-3.912-3.456v-4.705h-1.824v-2.88h1.824v-2.328l3.504-1.272v3.6h3.504
		L132.651,111.367z"/>
	<path class="st0" d="M136.011,119.696c-0.647,0-1.992-1.344-1.992-1.992c0-0.624,1.345-1.968,1.992-1.968
		c0.648,0,1.992,1.344,1.992,1.968C138.003,118.352,136.659,119.696,136.011,119.696z"/>
</g>
</svg>
