<?xml version="1.0" encoding="utf-8"?>
<!-- Generator: Adobe Illustrator 17.0.0, SVG Export Plug-In . SVG Version: 6.00 Build 0)  -->
<!DOCTYPE svg PUBLIC "-//W3C//DTD SVG 1.1//EN" "http://www.w3.org/Graphics/SVG/1.1/DTD/svg11.dtd">
<svg version="1.1" id="Layer_2" xmlns="http://www.w3.org/2000/svg" xmlns:xlink="http://www.w3.org/1999/xlink" x="0px" y="0px"
	 width="160px" height="600px" viewBox="0 0 160 600" style="enable-background:new 0 0 160 600;" xml:space="preserve">
<style type="text/css">
	.st0{fill:#231F20;}
</style>
<g>
	<path class="st0" d="M24.577,37.887c-0.72-0.432-1.896-0.792-3.168-0.792c-2.712,0-4.896,1.824-4.896,4.656
		c0,2.809,2.16,4.681,5.064,4.681c1.272,0,2.4-0.24,3.192-0.672L24.457,49c-0.816,0.384-1.92,0.576-3.48,0.576
		c-3.96,0-8.208-2.688-8.208-7.873s4.272-7.896,8.208-7.896c1.896,0,3.384,0.408,4.296,0.936L24.577,37.887z"/>
	<path class="st0" d="M32.208,49.696c-3.289,0-5.929-2.328-5.929-5.784c0-3.457,2.64-5.785,5.929-5.785
		c3.264,0,5.928,2.328,5.928,5.785C38.137,47.368,35.473,49.696,32.208,49.696z M32.208,41.199c-1.32,0-2.448,1.152-2.448,2.76
		c0,1.608,1.128,2.76,2.448,2.76c1.296,0,2.448-1.152,2.448-2.76C34.657,42.351,33.504,41.199,32.208,41.199z"/>
	<path class="st0" d="M46.752,49.36v-6.672c0-0.792-0.528-1.488-1.608-1.488c-1.056,0-1.728,0.672-1.728,1.536v6.625h-3.528V38.487
		h3.24v1.464h0.024c0.432-1.152,1.56-1.8,3.312-1.8c2.376,0,3.816,1.344,3.816,3.648v7.561H46.752z"/>
	<path class="st0" d="M55.992,49.6c-1.488,0-2.568-0.312-3.457-0.768l-0.312-3.121c0.96,0.672,2.208,1.176,3.409,1.176
		c0.648,0,1.056-0.336,1.056-0.744c0-0.456-0.36-0.648-0.984-0.84c-2.088-0.6-3.336-1.656-3.336-3.553
		c0-2.136,1.729-3.504,4.081-3.504c1.344,0,2.664,0.36,3.216,0.648l-0.6,2.592c-0.528-0.288-1.392-0.6-2.256-0.6
		c-0.576,0-0.96,0.264-0.96,0.696c0,0.408,0.288,0.624,0.96,0.792c2.448,0.648,3.457,1.872,3.457,3.696
		C60.264,47.92,58.92,49.6,55.992,49.6z"/>
	<path class="st0" d="M67.344,49.696c-3.289,0-5.929-2.328-5.929-5.784c0-3.457,2.64-5.785,5.929-5.785
		c3.264,0,5.928,2.328,5.928,5.785C73.272,47.368,70.608,49.696,67.344,49.696z M67.344,41.199c-1.32,0-2.448,1.152-2.448,2.76
		c0,1.608,1.128,2.76,2.448,2.76c1.296,0,2.448-1.152,2.448-2.76C69.792,42.351,68.64,41.199,67.344,41.199z"/>
	<path class="st0" d="M78.768,49.792c-2.232-0.096-3.721-1.248-3.721-3.864V32.271h3.48v13.225c0,0.888,0.504,1.368,1.464,1.44
		L78.768,49.792z"/>
	<path class="st0" d="M83.207,36.999c-0.624,0-1.896-1.272-1.896-1.896s1.272-1.872,1.896-1.872s1.896,1.248,1.896,1.872
		S83.831,36.999,83.207,36.999z M81.431,49.36V38.487h3.553V49.36H81.431z"/>
	<path class="st0" d="M95.375,49.36v-1.344h-0.023c-0.601,1.104-1.849,1.656-3.36,1.656c-2.665,0-5.232-2.016-5.232-5.736
		c0-3.504,2.496-5.785,5.521-5.785c1.151,0,2.328,0.384,2.76,0.744v-6.625h3.433V49.36H95.375z M95.039,42.231
		c-0.336-0.456-1.056-0.984-2.136-0.984c-1.536,0-2.616,1.2-2.616,2.76s1.08,2.76,2.616,2.76c1.031,0,1.752-0.552,2.136-1.128
		V42.231z"/>
	<path class="st0" d="M108.407,49.84c-0.648-0.144-1.393-0.648-1.68-1.44c-0.48,0.888-1.513,1.32-2.833,1.32
		c-1.92,0-3.624-1.344-3.624-3.6c0-1.992,1.561-3.336,3.721-3.552l2.16-0.216v-0.36c0-0.648-0.528-1.08-1.704-1.08
		c-1.057,0-2.232,0.336-3.024,0.84l-0.624-2.664c0.888-0.576,2.376-0.96,3.816-0.96c2.88,0,4.92,1.32,4.92,3.937v3.552
		c0,1.272,0.48,1.944,1.32,2.256L108.407,49.84z M106.151,44.607l-1.32,0.12c-0.912,0.072-1.32,0.72-1.32,1.368
		c0,0.576,0.432,1.056,1.104,1.056c0.84,0,1.536-0.648,1.536-1.584V44.607z"/>
	<path class="st0" d="M119.087,41.367h-2.832v4.032c0,0.936,0.504,1.32,1.44,1.32c0.407,0,0.647-0.024,0.912-0.144l-0.312,2.664
		c-0.336,0.168-0.936,0.288-1.632,0.288c-2.448,0-3.912-1.296-3.912-3.456v-4.705h-1.824v-2.88h1.824v-2.328l3.504-1.272v3.6h3.504
		L119.087,41.367z"/>
	<path class="st0" d="M130.68,43.312l-1.561,1.584h-5.328c0.168,0.888,1.368,1.896,3.216,1.896c1.128,0,2.28-0.336,3-0.816
		L129.671,49c-0.815,0.432-2.063,0.72-3.456,0.72c-3.312,0-5.977-2.304-5.977-5.856c0-3.504,2.544-5.736,5.664-5.736
		c3.024,0,4.873,2.088,4.873,4.344C130.775,42.735,130.728,43.095,130.68,43.312z M125.902,40.767c-1.031,0-1.896,0.792-2.111,1.776
		h3.672c0-0.072,0.024-0.144,0.024-0.24C127.487,41.559,126.839,40.767,125.902,40.767z"/>
</g>
<g>
	<path class="st0" d="M21.385,65.991c-0.72-0.456-1.464-0.696-2.328-0.696c-1.536,0-2.76,1.104-2.76,2.688
		c0,1.56,1.224,2.688,2.832,2.688c0.912,0,1.608-0.192,2.376-0.6l-0.312,3c-0.72,0.336-1.656,0.528-2.665,0.528
		c-3.048,0-5.88-2.161-5.88-5.665c0-3.552,2.856-5.688,5.809-5.688c1.44,0,2.616,0.288,3.576,0.816L21.385,65.991z"/>
	<path class="st0" d="M29.017,73.696c-3.289,0-5.929-2.328-5.929-5.784c0-3.457,2.64-5.785,5.929-5.785
		c3.264,0,5.928,2.328,5.928,5.785C34.945,71.368,32.281,73.696,29.017,73.696z M29.017,65.199c-1.32,0-2.448,1.152-2.448,2.76
		c0,1.608,1.128,2.76,2.448,2.76c1.296,0,2.448-1.152,2.448-2.76C31.465,66.351,30.312,65.199,29.017,65.199z"/>
	<path class="st0" d="M43.561,73.36v-6.672c0-0.792-0.528-1.488-1.608-1.488c-1.056,0-1.728,0.672-1.728,1.536v6.625h-3.528V62.487
		h3.24v1.464h0.024c0.432-1.152,1.56-1.8,3.312-1.8c2.376,0,3.816,1.344,3.816,3.648v7.561H43.561z"/>
	<path class="st0" d="M56.832,59.415c-0.408-0.168-0.984-0.288-1.416-0.288c-1.296,0-1.968,0.768-1.968,2.329v1.032h3.121
		l-0.696,2.88h-2.424v7.993H50.04v-7.993h-1.656v-2.88h1.656v-1.272c0-3.312,2.136-4.944,4.873-4.944c1.008,0,2.016,0.12,2.568,0.36
		L56.832,59.415z"/>
	<path class="st0" d="M59.879,60.999c-0.624,0-1.896-1.272-1.896-1.896s1.272-1.872,1.896-1.872s1.896,1.248,1.896,1.872
		S60.503,60.999,59.879,60.999z M58.104,73.36V62.487h3.552V73.36H58.104z"/>
	<path class="st0" d="M72.072,73.36v-1.344h-0.024c-0.6,1.104-1.848,1.656-3.36,1.656c-2.664,0-5.232-2.016-5.232-5.736
		c0-3.504,2.496-5.785,5.521-5.785c1.152,0,2.328,0.384,2.76,0.744v-6.625h3.432V73.36H72.072z M71.736,66.231
		c-0.336-0.456-1.056-0.984-2.136-0.984c-1.536,0-2.616,1.2-2.616,2.76s1.08,2.76,2.616,2.76c1.032,0,1.752-0.552,2.136-1.128
		V66.231z"/>
	<path class="st0" d="M87.384,67.312l-1.561,1.584h-5.328c0.168,0.888,1.368,1.896,3.217,1.896c1.128,0,2.279-0.336,3-0.816
		L86.376,73c-0.816,0.432-2.064,0.72-3.457,0.72c-3.312,0-5.976-2.304-5.976-5.856c0-3.504,2.544-5.736,5.665-5.736
		c3.024,0,4.872,2.088,4.872,4.344C87.479,66.735,87.432,67.095,87.384,67.312z M82.607,64.767c-1.032,0-1.896,0.792-2.112,1.776
		h3.673c0-0.072,0.023-0.144,0.023-0.24C84.191,65.559,83.544,64.767,82.607,64.767z"/>
	<path class="st0" d="M96.071,73.36v-6.672c0-0.792-0.528-1.488-1.608-1.488c-1.056,0-1.729,0.672-1.729,1.536v6.625h-3.528V62.487
		h3.24v1.464h0.024c0.432-1.152,1.561-1.8,3.312-1.8c2.376,0,3.816,1.344,3.816,3.648v7.561H96.071z"/>
	<path class="st0" d="M108.983,65.367h-2.832v4.032c0,0.936,0.504,1.32,1.44,1.32c0.407,0,0.647-0.024,0.912-0.144l-0.312,2.664
		c-0.336,0.168-0.936,0.288-1.632,0.288c-2.448,0-3.912-1.296-3.912-3.456v-4.705h-1.824v-2.88h1.824v-2.328l3.504-1.272v3.6h3.504
		L108.983,65.367z"/>
	<path class="st0" d="M114.599,73.792c-2.231-0.096-3.72-1.248-3.72-3.864V56.271h3.48v13.225c0,0.888,0.504,1.368,1.464,1.44
		L114.599,73.792z"/>
	<path class="st0" d="M123.455,72.28c-1.656,4.368-3.385,5.953-5.425,6.745l-2.16-2.16c1.752-0.672,3.097-1.944,3.984-4.249
		l-3.912-10.129h3.408l1.584,4.225c0.24,0.624,0.48,1.368,0.648,2.136h0.048c0.216-0.744,0.456-1.512,0.696-2.136l1.584-4.225h3.24
		L123.455,72.28z"/>
</g>
<g>
	<path class="st0" d="M25.057,97.456h-2.424l-1.464-4.32c-0.216-0.672-0.432-1.44-0.648-2.256h-0.048
		c-0.168,0.816-0.384,1.608-0.6,2.232l-1.464,4.345h-2.304l-3.792-10.969h3.216l1.344,4.128c0.192,0.624,0.408,1.392,0.528,2.088
		h0.048c0.12-0.672,0.312-1.464,0.528-2.088l1.368-4.128h2.664l1.368,4.104c0.216,0.672,0.36,1.416,0.504,2.112h0.048
		c0.144-0.696,0.336-1.464,0.552-2.112l1.368-4.104h3L25.057,97.456z"/>
	<path class="st0" d="M31.944,84.999c-0.624,0-1.896-1.272-1.896-1.896s1.272-1.872,1.896-1.872s1.896,1.248,1.896,1.872
		S32.568,84.999,31.944,84.999z M30.168,97.36V86.487h3.552V97.36H30.168z"/>
	<path class="st0" d="M43.248,89.367h-2.832v4.032c0,0.936,0.504,1.32,1.44,1.32c0.408,0,0.648-0.024,0.912-0.144l-0.312,2.664
		c-0.336,0.168-0.936,0.288-1.632,0.288c-2.448,0-3.913-1.296-3.913-3.456v-4.705h-1.824v-2.88h1.824v-2.328l3.504-1.272v3.6h3.504
		L43.248,89.367z"/>
	<path class="st0" d="M52.056,97.36v-6.672c0-0.792-0.552-1.488-1.632-1.488c-1.056,0-1.705,0.672-1.705,1.536v6.625h-3.528V80.271
		h3.48v7.225h0.024c0.552-0.84,1.56-1.344,3.072-1.344c2.4,0,3.816,1.344,3.816,3.648v7.561H52.056z"/>
	<path class="st0" d="M70.824,97.84c-0.648-0.144-1.392-0.648-1.68-1.44c-0.48,0.888-1.512,1.32-2.832,1.32
		c-1.92,0-3.625-1.344-3.625-3.6c0-1.992,1.56-3.336,3.72-3.552l2.16-0.216v-0.36c0-0.648-0.528-1.08-1.704-1.08
		c-1.056,0-2.232,0.336-3.024,0.84l-0.625-2.664c0.888-0.576,2.376-0.96,3.816-0.96c2.88,0,4.92,1.32,4.92,3.937v3.552
		c0,1.272,0.48,1.944,1.32,2.256L70.824,97.84z M68.567,92.607l-1.32,0.12c-0.912,0.072-1.32,0.72-1.32,1.368
		c0,0.576,0.432,1.056,1.104,1.056c0.84,0,1.536-0.648,1.536-1.584V92.607z"/>
</g>
<g>
	<path class="st0" d="M20.281,109.095v12.265h-3.72v-12.265h-4.393v-3.048h12.505v3.048H20.281z"/>
	<path class="st0" d="M26.184,121.36v-15.313h3.72v15.313H26.184z"/>
	<path class="st0" d="M42.337,121.36l-1.272-3.457h-4.872l-1.272,3.457h-3.504l6.024-15.433h2.568l6.024,15.433H42.337z
		 M39.097,112.167c-0.144-0.408-0.336-0.912-0.456-1.416h-0.048c-0.12,0.504-0.288,1.032-0.432,1.416L37.128,115h3L39.097,112.167z"
		/>
	<path class="st0" d="M57.865,121.36l-1.272-3.457H51.72l-1.272,3.457h-3.504l6.024-15.433h2.568l6.025,15.433H57.865z
		 M54.625,112.167c-0.144-0.408-0.336-0.912-0.456-1.416H54.12c-0.12,0.504-0.288,1.032-0.432,1.416L52.656,115h3L54.625,112.167z"
		/>
	<path class="st0" d="M68.712,121.36v-15.313h3.72v15.313H68.712z"/>
	<path class="st0" d="M84.024,121.36l-4.104-6.024h-0.984v6.024h-3.576v-15.313h5.593c2.616,0,4.944,1.752,4.944,4.632
		c0,1.776-1.057,3.241-2.353,3.84l4.873,6.841H84.024z M80.399,109.047h-1.464v3.432h1.464c0.961,0,1.921-0.528,1.921-1.704
		C82.32,109.623,81.36,109.047,80.399,109.047z"/>
	<path class="st0" d="M99.793,121.36l-1.272-3.457h-4.872l-1.272,3.457h-3.504l6.024-15.433h2.568l6.024,15.433H99.793z
		 M96.553,112.167c-0.145-0.408-0.336-0.912-0.456-1.416h-0.048c-0.12,0.504-0.288,1.032-0.433,1.416L94.584,115h3.001
		L96.553,112.167z"/>
	<path class="st0" d="M107.016,121.696c-0.647,0-1.992-1.344-1.992-1.992c0-0.624,1.345-1.968,1.992-1.968
		c0.648,0,1.992,1.344,1.992,1.968C109.008,120.352,107.664,121.696,107.016,121.696z"/>
</g>
</svg>
