<?xml version="1.0" encoding="utf-8"?>
<!-- Generator: Adobe Illustrator 17.0.0, SVG Export Plug-In . SVG Version: 6.00 Build 0)  -->
<!DOCTYPE svg PUBLIC "-//W3C//DTD SVG 1.1//EN" "http://www.w3.org/Graphics/SVG/1.1/DTD/svg11.dtd">
<svg version="1.1" id="Layer_1" xmlns="http://www.w3.org/2000/svg" xmlns:xlink="http://www.w3.org/1999/xlink" x="0px" y="0px"
	 width="160px" height="600px" viewBox="0 0 160 600" style="enable-background:new 0 0 160 600;" xml:space="preserve">
<style type="text/css">
	.st0{fill:#231F20;}
</style>
<g>
	<path class="st0" d="M24.043,44.919v6.841h-3.6v-6.769l-5.736-8.545h3.984l2.521,3.672c0.36,0.504,0.768,1.224,1.104,1.848h0.048
		c0.312-0.6,0.792-1.368,1.128-1.848l2.52-3.672h3.72L24.043,44.919z"/>
	<path class="st0" d="M34.483,52.096c-3.289,0-5.929-2.328-5.929-5.784c0-3.457,2.64-5.785,5.929-5.785
		c3.264,0,5.928,2.328,5.928,5.785C40.412,49.768,37.748,52.096,34.483,52.096z M34.483,43.599c-1.32,0-2.448,1.152-2.448,2.76
		c0,1.608,1.128,2.76,2.448,2.76c1.296,0,2.448-1.152,2.448-2.76C36.932,44.751,35.779,43.599,34.483,43.599z"/>
	<path class="st0" d="M49.292,51.76v-1.488h-0.024c-0.432,1.152-1.584,1.8-3.336,1.8c-2.376,0-3.816-1.32-3.816-3.625v-7.561h3.528
		v6.673c0,0.792,0.552,1.488,1.632,1.488c1.056,0,1.705-0.696,1.705-1.56v-6.601h3.528V51.76H49.292z"/>
	<path class="st0" d="M61.507,44.631c-0.216-0.12-0.696-0.264-1.056-0.264c-1.128,0-2.16,0.6-2.16,2.328v5.064h-3.528V40.887h3.48
		v2.424h0.024c0.36-1.704,1.632-2.616,3.096-2.616c0.336,0,0.744,0.048,1.008,0.144L61.507,44.631z"/>
	<path class="st0" d="M74.491,52.096c-3.289,0-5.929-2.328-5.929-5.784c0-3.457,2.64-5.785,5.929-5.785
		c3.265,0,5.929,2.328,5.929,5.785C80.419,49.768,77.755,52.096,74.491,52.096z M74.491,43.599c-1.32,0-2.448,1.152-2.448,2.76
		c0,1.608,1.128,2.76,2.448,2.76c1.296,0,2.448-1.152,2.448-2.76C76.939,44.751,75.787,43.599,74.491,43.599z"/>
	<path class="st0" d="M85.913,52.192c-2.231-0.096-3.72-1.248-3.72-3.864V34.67h3.48v13.225c0,0.888,0.504,1.368,1.464,1.44
		L85.913,52.192z"/>
	<path class="st0" d="M96.594,51.76v-1.344H96.57c-0.601,1.104-1.849,1.656-3.36,1.656c-2.665,0-5.232-2.016-5.232-5.736
		c0-3.504,2.496-5.785,5.521-5.785c1.151,0,2.328,0.384,2.76,0.744V34.67h3.433V51.76H96.594z M96.258,44.631
		c-0.336-0.456-1.056-0.984-2.136-0.984c-1.536,0-2.616,1.2-2.616,2.76s1.08,2.76,2.616,2.76c1.031,0,1.752-0.552,2.136-1.128
		V44.631z"/>
</g>
<g>
	<path class="st0" d="M22.268,68.631c-0.216-0.12-0.696-0.264-1.056-0.264c-1.128,0-2.16,0.6-2.16,2.328v5.064h-3.528V64.887h3.48
		v2.424h0.024c0.36-1.704,1.632-2.616,3.096-2.616c0.336,0,0.744,0.048,1.008,0.144L22.268,68.631z"/>
	<path class="st0" d="M34.052,69.711l-1.56,1.584h-5.329c0.168,0.888,1.368,1.896,3.216,1.896c1.128,0,2.28-0.336,3-0.816
		L33.043,75.4c-0.816,0.432-2.064,0.72-3.456,0.72c-3.312,0-5.977-2.304-5.977-5.856c0-3.504,2.544-5.736,5.665-5.736
		c3.024,0,4.873,2.088,4.873,4.344C34.148,69.135,34.1,69.495,34.052,69.711z M29.275,67.167c-1.032,0-1.896,0.792-2.112,1.776
		h3.672c0-0.072,0.024-0.144,0.024-0.24C30.859,67.959,30.211,67.167,29.275,67.167z"/>
	<path class="st0" d="M43.243,67.767h-2.832v4.032c0,0.936,0.504,1.32,1.44,1.32c0.408,0,0.648-0.024,0.912-0.144l-0.312,2.664
		c-0.336,0.168-0.936,0.288-1.632,0.288c-2.448,0-3.913-1.296-3.913-3.456v-4.705h-1.824v-2.88h1.824v-2.328l3.504-1.272v3.6h3.504
		L43.243,67.767z"/>
	<path class="st0" d="M46.986,63.399c-0.624,0-1.896-1.272-1.896-1.896s1.272-1.872,1.896-1.872s1.896,1.248,1.896,1.872
		S47.61,63.399,46.986,63.399z M45.21,75.76V64.887h3.552V75.76H45.21z"/>
	<path class="st0" d="M57.811,68.631c-0.216-0.12-0.696-0.264-1.056-0.264c-1.128,0-2.16,0.6-2.16,2.328v5.064h-3.528V64.887h3.48
		v2.424h0.024c0.36-1.704,1.632-2.616,3.096-2.616c0.336,0,0.744,0.048,1.008,0.144L57.811,68.631z"/>
	<path class="st0" d="M69.595,69.711l-1.56,1.584h-5.329c0.168,0.888,1.368,1.896,3.216,1.896c1.128,0,2.28-0.336,3-0.816
		L68.587,75.4c-0.816,0.432-2.064,0.72-3.456,0.72c-3.312,0-5.977-2.304-5.977-5.856c0-3.504,2.544-5.736,5.665-5.736
		c3.024,0,4.873,2.088,4.873,4.344C69.691,69.135,69.643,69.495,69.595,69.711z M64.819,67.167c-1.032,0-1.896,0.792-2.112,1.776
		h3.672c0-0.072,0.024-0.144,0.024-0.24C66.403,67.959,65.755,67.167,64.819,67.167z"/>
	<path class="st0" d="M84.811,75.76v-6.672c0-0.792-0.384-1.488-1.536-1.488c-1.128,0-1.632,0.672-1.632,1.536v6.625h-3.528v-6.672
		c0-0.792-0.385-1.488-1.536-1.488c-1.128,0-1.632,0.672-1.632,1.536v6.625h-3.528V64.887h3.264v1.464h0.024
		c0.432-1.152,1.512-1.8,3.216-1.8c1.561,0,2.736,0.624,3.216,1.776c0.456-1.056,1.728-1.776,3.36-1.776
		c2.472,0,3.84,1.344,3.84,3.648v7.561H84.811z"/>
	<path class="st0" d="M100.53,69.711l-1.561,1.584h-5.328c0.168,0.888,1.368,1.896,3.216,1.896c1.128,0,2.28-0.336,3-0.816
		L99.521,75.4c-0.815,0.432-2.063,0.72-3.456,0.72c-3.312,0-5.977-2.304-5.977-5.856c0-3.504,2.544-5.736,5.664-5.736
		c3.024,0,4.873,2.088,4.873,4.344C100.626,69.135,100.578,69.495,100.53,69.711z M95.753,67.167c-1.031,0-1.896,0.792-2.111,1.776
		h3.672c0-0.072,0.024-0.144,0.024-0.24C97.338,67.959,96.689,67.167,95.753,67.167z"/>
	<path class="st0" d="M109.218,75.76v-6.672c0-0.792-0.528-1.488-1.608-1.488c-1.056,0-1.729,0.672-1.729,1.536v6.625h-3.528V64.887
		h3.24v1.464h0.024c0.432-1.152,1.561-1.8,3.312-1.8c2.376,0,3.816,1.344,3.816,3.648v7.561H109.218z"/>
	<path class="st0" d="M122.13,67.767h-2.832v4.032c0,0.936,0.504,1.32,1.44,1.32c0.407,0,0.647-0.024,0.912-0.144l-0.312,2.664
		c-0.336,0.168-0.936,0.288-1.632,0.288c-2.448,0-3.912-1.296-3.912-3.456v-4.705h-1.824v-2.88h1.824v-2.328l3.504-1.272v3.6h3.504
		L122.13,67.767z"/>
</g>
<g>
	<path class="st0" d="M23.228,100.24c-0.648-0.144-1.392-0.648-1.68-1.44c-0.48,0.888-1.512,1.32-2.832,1.32
		c-1.92,0-3.625-1.344-3.625-3.6c0-1.992,1.56-3.336,3.72-3.552l2.16-0.216v-0.36c0-0.648-0.528-1.08-1.704-1.08
		c-1.056,0-2.232,0.336-3.024,0.84l-0.625-2.664c0.888-0.576,2.376-0.96,3.816-0.96c2.88,0,4.92,1.32,4.92,3.936v3.553
		c0,1.272,0.48,1.944,1.32,2.256L23.228,100.24z M20.971,95.007l-1.32,0.12c-0.912,0.072-1.32,0.72-1.32,1.368
		c0,0.576,0.432,1.056,1.104,1.056c0.84,0,1.536-0.648,1.536-1.584V95.007z"/>
	<path class="st0" d="M34.939,92.391c-0.72-0.456-1.464-0.696-2.328-0.696c-1.536,0-2.76,1.104-2.76,2.688
		c0,1.56,1.224,2.688,2.832,2.688c0.912,0,1.608-0.192,2.376-0.6l-0.312,3c-0.72,0.336-1.656,0.528-2.665,0.528
		c-3.048,0-5.88-2.16-5.88-5.665c0-3.552,2.856-5.688,5.809-5.688c1.44,0,2.616,0.288,3.576,0.816L34.939,92.391z"/>
	<path class="st0" d="M45.379,92.391c-0.72-0.456-1.464-0.696-2.328-0.696c-1.536,0-2.76,1.104-2.76,2.688
		c0,1.56,1.224,2.688,2.832,2.688c0.912,0,1.608-0.192,2.376-0.6l-0.312,3c-0.72,0.336-1.656,0.528-2.664,0.528
		c-3.048,0-5.881-2.16-5.881-5.665c0-3.552,2.856-5.688,5.809-5.688c1.44,0,2.616,0.288,3.576,0.816L45.379,92.391z"/>
	<path class="st0" d="M53.011,100.096c-3.289,0-5.929-2.328-5.929-5.784c0-3.457,2.64-5.785,5.929-5.785
		c3.264,0,5.928,2.328,5.928,5.785C58.939,97.768,56.275,100.096,53.011,100.096z M53.011,91.599c-1.32,0-2.448,1.152-2.448,2.76
		c0,1.608,1.128,2.76,2.448,2.76c1.296,0,2.448-1.152,2.448-2.76C55.459,92.751,54.307,91.599,53.011,91.599z"/>
	<path class="st0" d="M67.819,99.76v-1.488h-0.024c-0.432,1.152-1.584,1.8-3.336,1.8c-2.376,0-3.816-1.32-3.816-3.625v-7.561h3.528
		v6.673c0,0.792,0.552,1.488,1.632,1.488c1.056,0,1.705-0.696,1.705-1.56v-6.601h3.528V99.76H67.819z"/>
	<path class="st0" d="M80.155,99.76v-6.672c0-0.792-0.528-1.488-1.608-1.488c-1.056,0-1.729,0.672-1.729,1.536v6.625H73.29V88.887
		h3.24v1.464h0.024c0.432-1.152,1.561-1.8,3.312-1.8c2.375,0,3.816,1.344,3.816,3.648v7.561H80.155z"/>
	<path class="st0" d="M93.065,91.767h-2.832v4.032c0,0.936,0.504,1.32,1.44,1.32c0.407,0,0.647-0.024,0.912-0.144l-0.312,2.664
		c-0.336,0.168-0.936,0.288-1.632,0.288c-2.448,0-3.912-1.296-3.912-3.456v-4.705h-1.824v-2.88h1.824v-2.328l3.504-1.272v3.6h3.504
		L93.065,91.767z"/>
	<path class="st0" d="M98.321,100c-1.488,0-2.568-0.312-3.456-0.768l-0.312-3.121c0.96,0.672,2.208,1.176,3.408,1.176
		c0.648,0,1.057-0.336,1.057-0.744c0-0.456-0.36-0.648-0.984-0.84c-2.088-0.6-3.336-1.656-3.336-3.553
		c0-2.136,1.728-3.504,4.08-3.504c1.344,0,2.664,0.36,3.216,0.648l-0.6,2.592c-0.528-0.288-1.393-0.6-2.256-0.6
		c-0.576,0-0.96,0.264-0.96,0.696c0,0.408,0.287,0.624,0.96,0.792c2.448,0.648,3.456,1.872,3.456,3.696
		C102.594,98.32,101.25,100,98.321,100z"/>
</g>
<g>
	<path class="st0" d="M28.916,123.76v-6.672c0-0.792-0.384-1.488-1.536-1.488c-1.128,0-1.632,0.672-1.632,1.536v6.625h-3.528v-6.672
		c0-0.792-0.384-1.488-1.536-1.488c-1.128,0-1.632,0.672-1.632,1.536v6.625h-3.528v-10.873h3.264v1.464h0.024
		c0.432-1.152,1.512-1.8,3.216-1.8c1.56,0,2.736,0.624,3.216,1.776c0.456-1.056,1.728-1.776,3.36-1.776
		c2.472,0,3.84,1.344,3.84,3.648v7.561H28.916z"/>
	<path class="st0" d="M42.332,124.24c-0.648-0.144-1.392-0.648-1.68-1.44c-0.48,0.888-1.512,1.32-2.832,1.32
		c-1.92,0-3.625-1.344-3.625-3.6c0-1.992,1.56-3.336,3.72-3.552l2.16-0.216v-0.36c0-0.648-0.528-1.08-1.704-1.08
		c-1.056,0-2.232,0.336-3.024,0.84l-0.624-2.664c0.888-0.576,2.376-0.96,3.816-0.96c2.88,0,4.92,1.32,4.92,3.936v3.553
		c0,1.272,0.48,1.944,1.32,2.256L42.332,124.24z M40.075,119.007l-1.32,0.12c-0.912,0.072-1.32,0.72-1.32,1.368
		c0,0.576,0.432,1.056,1.104,1.056c0.84,0,1.536-0.648,1.536-1.584V119.007z"/>
	<path class="st0" d="M52.075,122.68c-1.656,4.368-3.384,5.953-5.424,6.745l-2.16-2.16c1.752-0.672,3.096-1.944,3.984-4.249
		l-3.912-10.129h3.408l1.584,4.225c0.24,0.624,0.48,1.368,0.648,2.136h0.048c0.216-0.744,0.456-1.512,0.696-2.136l1.584-4.225h3.241
		L52.075,122.68z"/>
	<path class="st0" d="M67.819,124.072c-2.304,0-4.177-0.792-5.233-1.608V106.67h3.409v6.601c0.456-0.36,1.608-0.72,2.736-0.72
		c3,0,5.473,2.136,5.473,5.568C74.204,121.479,72.067,124.072,67.819,124.072z M68.107,115.647c-1.008,0-1.776,0.48-2.112,0.84
		v4.152c0.36,0.264,1.104,0.528,1.776,0.528c1.8,0,2.928-1.224,2.928-2.808C70.699,116.847,69.643,115.647,68.107,115.647z"/>
	<path class="st0" d="M85.915,117.711l-1.561,1.584h-5.328c0.168,0.888,1.368,1.896,3.215,1.896c1.128,0,2.28-0.336,3-0.816
		l-0.336,3.024c-0.815,0.432-2.063,0.72-3.456,0.72c-3.312,0-5.976-2.304-5.976-5.856c0-3.504,2.544-5.736,5.664-5.736
		c3.024,0,4.873,2.088,4.873,4.344C86.011,117.135,85.963,117.495,85.915,117.711z M81.138,115.167
		c-1.031,0-1.895,0.792-2.111,1.776h3.671c0-0.072,0.024-0.144,0.024-0.24C82.723,115.959,82.074,115.167,81.138,115.167z"/>
</g>
<g>
	<path class="st0" d="M20.852,148.072c-2.304,0-4.177-0.792-5.233-1.608V130.67h3.409v6.601c0.456-0.36,1.608-0.72,2.736-0.72
		c3,0,5.473,2.136,5.473,5.568C27.236,145.479,25.1,148.072,20.852,148.072z M21.139,139.647c-1.008,0-1.776,0.48-2.112,0.84v4.152
		c0.36,0.264,1.104,0.528,1.776,0.528c1.8,0,2.928-1.224,2.928-2.808C23.731,140.847,22.675,139.647,21.139,139.647z"/>
	<path class="st0" d="M36.164,147.76v-1.488h-0.024c-0.432,1.152-1.584,1.8-3.336,1.8c-2.376,0-3.816-1.32-3.816-3.625v-7.561h3.528
		v6.673c0,0.792,0.552,1.488,1.632,1.488c1.056,0,1.705-0.696,1.705-1.56v-6.601h3.528v10.873H36.164z"/>
	<path class="st0" d="M41.059,147.76v-0.672l2.712-4.873c0.456-0.792,0.96-1.704,1.44-2.424l-0.024-0.024h-3.696v-2.88h8.305v0.672
		l-2.712,4.872c-0.456,0.792-0.912,1.608-1.44,2.4l0.024,0.048h4.488v2.88H41.059z"/>
	<path class="st0" d="M51.378,147.76v-0.672l2.712-4.873c0.456-0.792,0.96-1.704,1.44-2.424l-0.024-0.024h-3.696v-2.88h8.305v0.672
		l-2.712,4.872c-0.456,0.792-0.912,1.608-1.44,2.4l0.024,0.048h4.488v2.88H51.378z"/>
	<path class="st0" d="M64.051,135.399c-0.624,0-1.896-1.272-1.896-1.896s1.272-1.872,1.896-1.872s1.896,1.248,1.896,1.872
		S64.675,135.399,64.051,135.399z M62.275,147.76v-10.873h3.552v10.873H62.275z"/>
	<path class="st0" d="M74.995,147.76v-6.672c0-0.792-0.528-1.488-1.608-1.488c-1.056,0-1.728,0.672-1.728,1.536v6.625H68.13v-10.873
		h3.24v1.464h0.024c0.432-1.152,1.56-1.8,3.312-1.8c2.376,0,3.816,1.344,3.816,3.648v7.561H74.995z"/>
	<path class="st0" d="M85.338,153.304c-3.168,0-5.28-1.8-5.28-4.08c0-1.656,1.104-2.641,2.232-2.929l-1.392-1.392
		c0.097-0.696,0.696-1.296,1.32-1.56c-0.816-0.504-1.583-1.536-1.583-2.904c0-2.304,1.656-3.912,4.488-3.912
		c0.648,0,1.152,0.096,1.608,0.216c0.479,0.12,1.008,0.192,1.56,0.192c0.601,0,1.225-0.144,1.704-0.36l0.648,2.688
		c-0.336,0.192-0.864,0.36-1.344,0.336c0.12,0.216,0.264,0.72,0.264,1.104c0,1.824-1.44,3.36-3.553,3.504
		c-0.432,0.024-0.72,0.12-0.72,0.408c0,0.12,0.096,0.264,0.288,0.336l1.68,0.6c2.137,0.768,3.289,1.848,3.289,3.84
		C90.547,151.624,88.507,153.304,85.338,153.304z M86.082,148.192l-1.296-0.36c-0.84,0.024-1.464,0.625-1.464,1.417
		c0,0.744,0.647,1.368,1.92,1.368c1.248,0,1.92-0.576,1.92-1.2C87.162,148.912,86.778,148.384,86.082,148.192z M85.122,139.095
		c-0.792,0-1.393,0.6-1.393,1.296c0,0.72,0.601,1.296,1.393,1.296c0.769,0,1.393-0.576,1.393-1.296
		C86.515,139.695,85.938,139.095,85.122,139.095z"/>
</g>
<g>
	<path class="st0" d="M23.228,172.24c-0.648-0.144-1.392-0.648-1.68-1.44c-0.48,0.888-1.512,1.32-2.832,1.32
		c-1.92,0-3.625-1.344-3.625-3.6c0-1.992,1.56-3.336,3.72-3.552l2.16-0.216v-0.36c0-0.648-0.528-1.08-1.704-1.08
		c-1.056,0-2.232,0.336-3.024,0.84l-0.625-2.664c0.888-0.576,2.376-0.96,3.816-0.96c2.88,0,4.92,1.32,4.92,3.936v3.553
		c0,1.272,0.48,1.944,1.32,2.256L23.228,172.24z M20.971,167.007l-1.32,0.12c-0.912,0.072-1.32,0.72-1.32,1.368
		c0,0.576,0.432,1.056,1.104,1.056c0.84,0,1.536-0.648,1.536-1.584V167.007z"/>
	<path class="st0" d="M30.571,172.192c-2.232-0.096-3.721-1.248-3.721-3.864V154.67h3.48v13.225c0,0.888,0.504,1.368,1.464,1.44
		L30.571,172.192z"/>
	<path class="st0" d="M38.515,172.096c-3.289,0-5.929-2.328-5.929-5.784c0-3.457,2.64-5.785,5.929-5.785
		c3.264,0,5.928,2.328,5.928,5.785C44.443,169.768,41.779,172.096,38.515,172.096z M38.515,163.599c-1.32,0-2.448,1.152-2.448,2.76
		c0,1.608,1.128,2.76,2.448,2.76c1.296,0,2.448-1.152,2.448-2.76C40.963,164.751,39.811,163.599,38.515,163.599z"/>
	<path class="st0" d="M53.059,171.76v-6.672c0-0.792-0.528-1.488-1.608-1.488c-1.056,0-1.728,0.672-1.728,1.536v6.625h-3.528
		v-10.873h3.24v1.464h0.024c0.432-1.152,1.56-1.8,3.312-1.8c2.376,0,3.816,1.344,3.816,3.648v7.561H53.059z"/>
	<path class="st0" d="M63.402,177.304c-3.168,0-5.28-1.8-5.28-4.08c0-1.656,1.104-2.641,2.232-2.929l-1.392-1.392
		c0.096-0.696,0.696-1.296,1.32-1.56c-0.816-0.504-1.584-1.536-1.584-2.904c0-2.304,1.656-3.912,4.488-3.912
		c0.648,0,1.152,0.096,1.608,0.216c0.48,0.12,1.008,0.192,1.561,0.192c0.6,0,1.224-0.144,1.704-0.36l0.648,2.688
		c-0.336,0.192-0.864,0.36-1.344,0.336c0.12,0.216,0.264,0.72,0.264,1.104c0,1.824-1.44,3.36-3.552,3.504
		c-0.432,0.024-0.72,0.12-0.72,0.408c0,0.12,0.096,0.264,0.288,0.336l1.68,0.6c2.136,0.768,3.288,1.848,3.288,3.84
		C68.611,175.624,66.571,177.304,63.402,177.304z M64.146,172.192l-1.296-0.36c-0.84,0.024-1.464,0.625-1.464,1.417
		c0,0.744,0.648,1.368,1.92,1.368c1.248,0,1.92-0.576,1.92-1.2C65.227,172.912,64.843,172.384,64.146,172.192z M63.187,163.095
		c-0.792,0-1.392,0.6-1.392,1.296c0,0.72,0.6,1.296,1.392,1.296c0.768,0,1.392-0.576,1.392-1.296
		C64.579,163.695,64.002,163.095,63.187,163.095z"/>
	<path class="st0" d="M71.346,172.096c-0.648,0-1.992-1.344-1.992-1.992c0-0.624,1.344-1.968,1.992-1.968
		c0.648,0,1.992,1.344,1.992,1.968C73.338,170.751,71.994,172.096,71.346,172.096z"/>
</g>
</svg>
