<?xml version="1.0" encoding="utf-8"?>
<!-- Generator: Adobe Illustrator 17.0.0, SVG Export Plug-In . SVG Version: 6.00 Build 0)  -->
<!DOCTYPE svg PUBLIC "-//W3C//DTD SVG 1.1//EN" "http://www.w3.org/Graphics/SVG/1.1/DTD/svg11.dtd">
<svg version="1.1" id="Layer_1" xmlns="http://www.w3.org/2000/svg" xmlns:xlink="http://www.w3.org/1999/xlink" x="0px" y="0px"
	 width="160px" height="600px" viewBox="0 0 160 600" style="enable-background:new 0 0 160 600;" xml:space="preserve">
<style type="text/css">
	.st0{fill:#F9E038;}
	.st1{enable-background:new    ;}
</style>
<path class="st0" d="M36,486c0,0-11,0-11,11v3.674c0,0,0,11,11,11h89.825c0,0,11,0,11-11V497c0,0,0-11-11-11H36z"/>
<g class="st1">
	<path d="M43.229,501.306c-0.499-0.709-0.719-1.597-0.719-2.455c0-1.816,0.908-3.513,2.934-3.513c0.908,0,1.626,0.299,2.175,1.048
		c0.489,0.668,0.739,1.637,0.739,2.465c0,0.778-0.209,1.727-0.649,2.375c-0.529,0.778-1.337,1.157-2.265,1.157
		S43.769,502.063,43.229,501.306z M44.407,497.423c-0.16,0.409-0.22,0.998-0.22,1.428c0,0.858,0.13,2.226,1.257,2.226
		c0.549,0,0.848-0.27,1.028-0.779c0.16-0.419,0.209-0.987,0.209-1.437c0-0.499-0.05-1.088-0.25-1.547
		c-0.199-0.459-0.489-0.669-0.988-0.669C44.896,496.645,44.597,496.925,44.407,497.423z"/>
	<path d="M50.983,502.283h-1.597v-6.846h2.575c0.668,0,1.277,0,1.846,0.389c0.579,0.409,0.888,0.998,0.888,1.707
		c0,0.648-0.229,1.308-0.738,1.736c-0.589,0.489-1.218,0.479-1.946,0.479h-1.028V502.283z M51.881,498.501
		c0.379,0,0.699,0,0.978-0.299c0.15-0.17,0.22-0.39,0.22-0.609c0-0.27-0.11-0.549-0.329-0.719c-0.25-0.189-0.579-0.189-0.878-0.189
		h-0.888v1.816H51.881z"/>
	<path d="M57.17,496.765v1.387h2.595v1.288H57.17v1.517h3.293v1.327h-4.89v-6.846h4.89v1.327H57.17z"/>
	<path d="M66.63,502.283h-1.367l-2.625-4.601h-0.04v4.601h-1.237v-6.846h1.727l2.285,4.021h0.02v-4.021h1.237V502.283z"/>
	<path d="M76.579,502.283h-1.726l-0.419-1.407h-2.215l-0.429,1.407h-1.407l2.195-6.846h1.856L76.579,502.283z M74.064,499.619
		l-0.729-2.405l-0.729,2.405H74.064z"/>
	<path d="M84.882,496.795h-1.717v5.488h-1.597v-5.488h-1.736v-1.357h5.049V496.795z"/>
	<path d="M87.336,502.283h-1.597v-6.846h1.597V502.283z"/>
	<path d="M94.342,502.283h-1.727l-0.419-1.407H89.98l-0.429,1.407h-1.407l2.195-6.846h1.856L94.342,502.283z M91.827,499.619
		l-0.729-2.405l-0.729,2.405H91.827z"/>
	<path d="M100.729,502.283h-1.727l-0.419-1.407h-2.216l-0.429,1.407h-1.407l2.195-6.846h1.856L100.729,502.283z M98.214,499.619
		l-0.729-2.405l-0.729,2.405H98.214z"/>
	<path d="M106.097,502.283H104.5v-6.846h1.597V502.283z"/>
	<path d="M109.091,502.283h-1.597v-6.846h2.884c0.609,0,1.228,0.01,1.757,0.35c0.559,0.369,0.868,1.037,0.868,1.706
		c0,0.778-0.449,1.497-1.188,1.767l1.267,3.023h-1.775l-1.048-2.704h-1.168V502.283z M109.091,498.401h0.878
		c0.329,0,0.688,0.03,0.979-0.14c0.259-0.16,0.398-0.479,0.398-0.778c0-0.27-0.159-0.559-0.389-0.699
		c-0.27-0.169-0.729-0.129-1.028-0.129h-0.838V498.401z"/>
	<path d="M119.688,502.283h-1.727l-0.419-1.407h-2.216l-0.429,1.407h-1.407l2.195-6.846h1.856L119.688,502.283z M117.174,499.619
		l-0.729-2.405l-0.729,2.405H117.174z"/>
</g>
</svg>
