<?xml version="1.0" encoding="utf-8"?>
<!-- Generator: Adobe Illustrator 17.0.0, SVG Export Plug-In . SVG Version: 6.00 Build 0)  -->
<!DOCTYPE svg PUBLIC "-//W3C//DTD SVG 1.1//EN" "http://www.w3.org/Graphics/SVG/1.1/DTD/svg11.dtd">
<svg version="1.1" id="Layer_1" xmlns="http://www.w3.org/2000/svg" xmlns:xlink="http://www.w3.org/1999/xlink" x="0px" y="0px"
	 width="160px" height="600px" viewBox="0 0 160 600" style="enable-background:new 0 0 160 600;" xml:space="preserve">
<style type="text/css">
	.st0{fill:none;}
	.st1{fill:#004B87;}
	.st2{fill:#FFFFFF;}
	.st3{fill:url(#SVGID_1_);}
	.st4{fill:url(#SVGID_2_);}
	.st5{fill:url(#SVGID_3_);}
</style>
<g>
	<rect x="23.667" y="538.218" class="st0" width="112.001" height="38.098"/>
	<g>
		<path class="st1" d="M79.267,547.573v3.938h-6.983v18.904H67.87v-18.904h-6.983v-3.938H79.267z M81.143,570.415h4.415v-11.422
			v-11.42h-4.415v11.42V570.415z M108.375,570.415h-4.542l-2.348-5.621h-7.738l-2.321,5.621h-4.441l9.731-23.148h1.93
			L108.375,570.415z M129.766,570.415h-4.542l-2.348-5.621h-7.739l-2.321,5.621h-4.44l9.731-23.148h1.929L129.766,570.415z
			 M99.971,561.063l-2.334-5.688l-2.351,5.688H99.971z M121.362,561.063l-2.334-5.688l-2.351,5.688H121.362z"/>
		<g>
			<path class="st2" d="M44.9,571.897c1.957,0,3.731-0.81,5.007-2.11l5.408-5.407c1.247-1.263,2.022-2.995,2.031-4.903v-16.842
				H40.53c-1.957,0-3.731,0.81-5.008,2.11l-5.407,5.407c-1.248,1.263-2.022,2.995-2.031,4.903v16.842H44.9z"/>
			<linearGradient id="SVGID_1_" gradientUnits="userSpaceOnUse" x1="42.7106" y1="557.2717" x2="55.8627" y2="544.1196">
				<stop  offset="0.1" style="stop-color:#9CDCF8"/>
				<stop  offset="0.9" style="stop-color:#009EDB"/>
			</linearGradient>
			<path class="st3" d="M42.49,544.119c-3.052,0-5.526,2.468-5.54,5.516v1.876h11.524v11.519h1.849c3.06,0,5.54-2.48,5.54-5.538
				v-13.373H42.49z"/>
			<linearGradient id="SVGID_2_" gradientUnits="userSpaceOnUse" x1="29.5679" y1="567.0347" x2="53.8161" y2="567.0347">
				<stop  offset="0" style="stop-color:#14B1E7"/>
				<stop  offset="0.16" style="stop-color:#13ABE2"/>
				<stop  offset="0.3694" style="stop-color:#0F9BD3"/>
				<stop  offset="0.6062" style="stop-color:#0980BC"/>
				<stop  offset="0.8614" style="stop-color:#015A9B"/>
				<stop  offset="0.9" style="stop-color:#005495"/>
			</linearGradient>
			<path class="st4" d="M53.687,563.654c-0.999,0.548-2.146,0.86-3.364,0.86H35.469l-5.901,5.901H44.9
				c1.492,0,2.895-0.592,3.95-1.667l4.965-4.965L53.687,563.654z"/>
			<linearGradient id="SVGID_3_" gradientUnits="userSpaceOnUse" x1="32.9482" y1="570.4152" x2="32.9482" y2="546.1666">
				<stop  offset="0" style="stop-color:#0082BE"/>
				<stop  offset="0.386" style="stop-color:#0070AE"/>
				<stop  offset="0.85" style="stop-color:#005495"/>
			</linearGradient>
			<path class="st5" d="M36.328,546.295c-0.548,0.999-0.86,2.146-0.86,3.364v14.855l-5.901,5.901v-15.333
				c0-1.491,0.592-2.895,1.666-3.95l4.966-4.965L36.328,546.295z"/>
		</g>
	</g>
</g>
</svg>
