<svg id="Layer_1" xmlns="http://www.w3.org/2000/svg" viewBox="0 0 728 90"><style>.st0{fill:#f9e039}</style><path class="st0" d="M210.8 31.2c-.7-.4-1.9-.8-3.2-.8-2.7 0-4.9 1.8-4.9 4.7 0 2.8 2.2 4.7 5.1 4.7 1.3 0 2.4-.2 3.2-.7l-.3 3.2c-.8.4-1.9.6-3.5.6-4 0-8.2-2.7-8.2-7.9s4.3-7.9 8.2-7.9c1.9 0 3.4.4 4.3.9l-.7 3.2zM220.7 43.1c-.6-.1-1.4-.6-1.7-1.4-.5.9-1.5 1.3-2.8 1.3-1.9 0-3.6-1.3-3.6-3.6 0-2 1.6-3.3 3.7-3.6l2.2-.2v-.4c0-.6-.5-1.1-1.7-1.1-1.1 0-2.2.3-3 .8l-.6-2.7c.9-.6 2.4-1 3.8-1 2.9 0 4.9 1.3 4.9 3.9v3.6c0 1.3.5 1.9 1.3 2.3l-2.5 2.1zm-2.2-5.2l-1.3.1c-.9.1-1.3.7-1.3 1.4 0 .6.4 1.1 1.1 1.1.8 0 1.5-.6 1.5-1.6v-1zM228.1 43.1c-2.2-.1-3.7-1.2-3.7-3.9V25.6h3.5v13.2c0 .9.5 1.4 1.5 1.4l-1.3 2.9zM238.8 35.3c-.7-.5-1.5-.7-2.3-.7-1.5 0-2.8 1.1-2.8 2.7s1.2 2.7 2.8 2.7c.9 0 1.6-.2 2.4-.6l-.3 3c-.7.3-1.7.5-2.7.5-3 0-5.9-2.2-5.9-5.7 0-3.6 2.9-5.7 5.8-5.7 1.4 0 2.6.3 3.6.8l-.6 3zM248.3 42.7v-1.5c-.4 1.2-1.6 1.8-3.3 1.8-2.4 0-3.8-1.3-3.8-3.6v-7.6h3.5v6.7c0 .8.6 1.5 1.6 1.5 1.1 0 1.7-.7 1.7-1.6v-6.6h3.5v10.9h-3.2zM257.6 43.1c-2.2-.1-3.7-1.2-3.7-3.9V25.6h3.5v13.2c0 .9.5 1.4 1.5 1.4l-1.3 2.9zM267.9 43.1c-.6-.1-1.4-.6-1.7-1.4-.5.9-1.5 1.3-2.8 1.3-1.9 0-3.6-1.3-3.6-3.6 0-2 1.6-3.3 3.7-3.6l2.2-.2v-.4c0-.6-.5-1.1-1.7-1.1-1.1 0-2.2.3-3 .8l-.6-2.7c.9-.6 2.4-1 3.8-1 2.9 0 4.9 1.3 4.9 3.9v3.6c0 1.3.5 1.9 1.3 2.3l-2.5 2.1zm-2.2-5.2l-1.3.1c-.9.1-1.3.7-1.3 1.4 0 .6.4 1.1 1.1 1.1.8 0 1.5-.6 1.5-1.6v-1zM278.6 34.7h-2.8v4c0 .9.5 1.3 1.4 1.3.4 0 .6 0 .9-.1l-.3 2.7c-.3.2-.9.3-1.6.3-2.4 0-3.9-1.3-3.9-3.5v-4.7h-1.8v-2.9h1.8v-2.3l3.5-1.3v3.6h3.5l-.7 2.9zM290.2 36.6l-1.6 1.6h-5.3c.2.9 1.4 1.9 3.2 1.9 1.1 0 2.3-.3 3-.8l-.3 3c-.8.4-2.1.7-3.5.7-3.3 0-6-2.3-6-5.9 0-3.5 2.5-5.7 5.7-5.7 3 0 4.9 2.1 4.9 4.3 0 .3 0 .7-.1.9zm-4.7-2.5c-1 0-1.9.8-2.1 1.8h3.7v-.2c-.1-.9-.7-1.6-1.6-1.6zM304.1 41.6c-1.7 4.4-3.4 6-5.4 6.7l-2.2-2.2c1.8-.7 3.1-1.9 4-4.2l-3.9-10.1h3.4l1.6 4.2c.2.6.5 1.4.6 2.1.2-.7.5-1.5.7-2.1l1.6-4.2h3.2l-3.6 9.8zM314 43c-3.3 0-5.9-2.3-5.9-5.8s2.6-5.8 5.9-5.8c3.3 0 5.9 2.3 5.9 5.8.1 3.5-2.6 5.8-5.9 5.8zm0-8.5c-1.3 0-2.4 1.2-2.4 2.8 0 1.6 1.1 2.8 2.4 2.8 1.3 0 2.4-1.2 2.4-2.8.1-1.7-1.1-2.8-2.4-2.8zM328.9 42.7v-1.5c-.4 1.2-1.6 1.8-3.3 1.8-2.4 0-3.8-1.3-3.8-3.6v-7.6h3.5v6.7c0 .8.6 1.5 1.6 1.5 1.1 0 1.7-.7 1.7-1.6v-6.6h3.5v10.9h-3.2zM341.1 35.5c-.2-.1-.7-.3-1.1-.3-1.1 0-2.2.6-2.2 2.3v5.1h-3.5V31.8h3.5v2.4c.4-1.7 1.6-2.6 3.1-2.6.3 0 .7 0 1 .1l-.8 3.8zM352.3 43.1c-2.2-.1-3.7-1.2-3.7-3.9V25.6h3.5v13.2c0 .9.5 1.4 1.5 1.4l-1.3 2.9zM356.8 30.3c-.6 0-1.9-1.3-1.9-1.9s1.3-1.9 1.9-1.9 1.9 1.2 1.9 1.9-1.3 1.9-1.9 1.9zM355 42.7V31.8h3.6v10.9H355zM368.5 28.7c-.4-.2-1-.3-1.4-.3-1.3 0-2 .8-2 2.3v1h3.1l-.7 2.9h-2.4v8h-3.4v-8H360v-2.9h1.7v-1.3c0-3.3 2.1-4.9 4.9-4.9 1 0 2 .1 2.6.4l-.7 2.8zM379.1 36.6l-1.6 1.6h-5.3c.2.9 1.4 1.9 3.2 1.9 1.1 0 2.3-.3 3-.8l-.3 3c-.8.4-2.1.7-3.5.7-3.3 0-6-2.3-6-5.9 0-3.5 2.5-5.7 5.7-5.7 3 0 4.9 2.1 4.9 4.3 0 .3 0 .7-.1.9zm-4.8-2.5c-1 0-1.9.8-2.1 1.8h3.7v-.2c0-.9-.6-1.6-1.6-1.6zM388.3 34.7h-2.8v4c0 .9.5 1.3 1.4 1.3.4 0 .6 0 .9-.1l-.3 2.7c-.3.2-.9.3-1.6.3-2.4 0-3.9-1.3-3.9-3.5v-4.7h-1.8v-2.9h1.8v-2.3l3.5-1.3v3.6h3.5l-.7 2.9zM392 30.3c-.6 0-1.9-1.3-1.9-1.9s1.3-1.9 1.9-1.9 1.9 1.2 1.9 1.9-1.2 1.9-1.9 1.9zm-1.7 12.4V31.8h3.6v10.9h-3.6zM409.5 42.7V36c0-.8-.4-1.5-1.5-1.5s-1.6.7-1.6 1.5v6.6h-3.5V36c0-.8-.4-1.5-1.5-1.5s-1.6.7-1.6 1.5v6.6h-3.5V31.8h3.3v1.5c.4-1.2 1.5-1.8 3.2-1.8 1.6 0 2.7.6 3.2 1.8.5-1.1 1.7-1.8 3.4-1.8 2.5 0 3.8 1.3 3.8 3.6v7.6h-3.7zM425.2 36.6l-1.6 1.6h-5.3c.2.9 1.4 1.9 3.2 1.9 1.1 0 2.3-.3 3-.8l-.3 3c-.8.4-2.1.7-3.5.7-3.3 0-6-2.3-6-5.9 0-3.5 2.5-5.7 5.7-5.7 3 0 4.9 2.1 4.9 4.3 0 .3 0 .7-.1.9zm-4.7-2.5c-1 0-1.9.8-2.1 1.8h3.7v-.2c-.1-.9-.7-1.6-1.6-1.6zM434.3 30.3c-.6 0-1.9-1.3-1.9-1.9s1.3-1.9 1.9-1.9 1.9 1.2 1.9 1.9-1.3 1.9-1.9 1.9zm-1.8 12.4V31.8h3.6v10.9h-3.6zM445.3 42.7V36c0-.8-.5-1.5-1.6-1.5s-1.7.7-1.7 1.5v6.6h-3.5V31.8h3.2v1.5c.4-1.2 1.6-1.8 3.3-1.8 2.4 0 3.8 1.3 3.8 3.6v7.6h-3.5zM459.2 35.3c-.7-.5-1.5-.7-2.3-.7-1.5 0-2.8 1.1-2.8 2.7s1.2 2.7 2.8 2.7c.9 0 1.6-.2 2.4-.6l-.3 3c-.7.3-1.7.5-2.7.5-3 0-5.9-2.2-5.9-5.7 0-3.6 2.9-5.7 5.8-5.7 1.4 0 2.6.3 3.6.8l-.6 3zM466.9 43c-3.3 0-5.9-2.3-5.9-5.8s2.6-5.8 5.9-5.8c3.3 0 5.9 2.3 5.9 5.8s-2.7 5.8-5.9 5.8zm0-8.5c-1.3 0-2.4 1.2-2.4 2.8 0 1.6 1.1 2.8 2.4 2.8 1.3 0 2.4-1.2 2.4-2.8 0-1.7-1.2-2.8-2.4-2.8zM487.9 42.7V36c0-.8-.4-1.5-1.5-1.5s-1.6.7-1.6 1.5v6.6h-3.5V36c0-.8-.4-1.5-1.5-1.5s-1.6.7-1.6 1.5v6.6h-3.5V31.8h3.3v1.5c.4-1.2 1.5-1.8 3.2-1.8 1.6 0 2.7.6 3.2 1.8.5-1.1 1.7-1.8 3.4-1.8 2.5 0 3.8 1.3 3.8 3.6v7.6h-3.7zM503.6 36.6l-1.6 1.6h-5.3c.2.9 1.4 1.9 3.2 1.9 1.1 0 2.3-.3 3-.8l-.3 3c-.8.4-2.1.7-3.5.7-3.3 0-6-2.3-6-5.9 0-3.5 2.5-5.7 5.7-5.7 3 0 4.9 2.1 4.9 4.3 0 .3 0 .7-.1.9zm-4.7-2.5c-1 0-1.9.8-2.1 1.8h3.7v-.2c0-.9-.7-1.6-1.6-1.6z"/><g><path class="st0" d="M285 55.3c-.6 0-1.9-1.3-1.9-1.9s1.3-1.9 1.9-1.9 1.9 1.2 1.9 1.9-1.3 1.9-1.9 1.9zm-1.8 12.4V56.8h3.6v10.9h-3.6zM295.9 67.7V61c0-.8-.5-1.5-1.6-1.5s-1.7.7-1.7 1.5v6.6H289V56.8h3.2v1.5c.4-1.2 1.6-1.8 3.3-1.8 2.4 0 3.8 1.3 3.8 3.6v7.6h-3.4zM310.1 67.9c-.9 0-2.1-.2-2.9-.5l-.3-3.1c.7.4 1.6.7 2.6.7 1.4 0 2.7-.7 2.7-2.2 0-1.2-1.1-2.1-2.4-2.1h-.5l-.6-2.6c1.3-.3 2.4-1 2.4-1.8s-.6-1.3-1.5-1.3c-.8 0-1.5.2-2.2.6l-.7-3c.8-.4 2-.8 3.3-.8 2.9 0 4.7 1.5 4.7 3.7 0 1.6-1.2 2.6-2.2 2.9 1.6.4 3.4 1.8 3.4 4.3.1 3.4-2.3 5.2-5.8 5.2zM323 68c-3 0-5.5-2.5-5.5-8s2.5-8 5.5-8 5.5 2.5 5.5 8-2.5 8-5.5 8zm0-13c-1.1 0-2 1.7-2 5 0 3.4.9 5 2 5s2-1.6 2-5c.1-3.4-.9-5-2-5zM339.3 67.9c-1.5 0-2.6-.3-3.5-.8l-.3-3.1c1 .7 2.2 1.2 3.4 1.2.6 0 1.1-.3 1.1-.7 0-.5-.4-.6-1-.8-2.1-.6-3.3-1.7-3.3-3.6 0-2.1 1.7-3.5 4.1-3.5 1.3 0 2.7.4 3.2.6l-.6 2.6c-.5-.3-1.4-.6-2.3-.6-.6 0-1 .3-1 .7 0 .4.3.6 1 .8 2.4.6 3.5 1.9 3.5 3.7 0 1.8-1.3 3.5-4.3 3.5zM355.2 61.6l-1.6 1.6h-5.3c.2.9 1.4 1.9 3.2 1.9 1.1 0 2.3-.3 3-.8l-.3 3c-.8.4-2.1.7-3.5.7-3.3 0-6-2.3-6-5.9 0-3.5 2.5-5.7 5.7-5.7 3 0 4.9 2.1 4.9 4.3 0 .3 0 .7-.1.9zm-4.8-2.5c-1 0-1.9.8-2.1 1.8h3.7v-.2c0-.8-.6-1.6-1.6-1.6zM365.2 60.3c-.7-.5-1.5-.7-2.3-.7-1.5 0-2.8 1.1-2.8 2.7s1.2 2.7 2.8 2.7c.9 0 1.6-.2 2.4-.6l-.3 3c-.7.3-1.7.5-2.7.5-3 0-5.9-2.2-5.9-5.7 0-3.6 2.9-5.7 5.8-5.7 1.4 0 2.6.3 3.6.8l-.6 3zM372.8 68c-3.3 0-5.9-2.3-5.9-5.8s2.6-5.8 5.9-5.8c3.3 0 5.9 2.3 5.9 5.8s-2.6 5.8-5.9 5.8zm0-8.5c-1.3 0-2.4 1.2-2.4 2.8s1.1 2.8 2.4 2.8c1.3 0 2.4-1.2 2.4-2.8s-1.1-2.8-2.4-2.8zM387.4 67.7V61c0-.8-.5-1.5-1.6-1.5s-1.7.7-1.7 1.5v6.6h-3.5V56.8h3.2v1.5c.4-1.2 1.6-1.8 3.3-1.8 2.4 0 3.8 1.3 3.8 3.6v7.6h-3.5zM401.3 67.7v-1.3c-.6 1.1-1.8 1.7-3.4 1.7-2.7 0-5.2-2-5.2-5.7 0-3.5 2.5-5.8 5.5-5.8 1.2 0 2.3.4 2.8.7v-6.6h3.4v17.1h-3.1zm-.3-7.2c-.3-.5-1.1-1-2.1-1-1.5 0-2.6 1.2-2.6 2.8 0 1.6 1.1 2.8 2.6 2.8 1 0 1.8-.6 2.1-1.1v-3.5zM410.1 67.9c-1.5 0-2.6-.3-3.5-.8l-.3-3.1c1 .7 2.2 1.2 3.4 1.2.6 0 1.1-.3 1.1-.7 0-.5-.4-.6-1-.8-2.1-.6-3.3-1.7-3.3-3.6 0-2.1 1.7-3.5 4.1-3.5 1.3 0 2.7.4 3.2.6l-.6 2.6c-.5-.3-1.4-.6-2.3-.6-.6 0-1 .3-1 .7 0 .4.3.6 1 .8 2.4.6 3.5 1.9 3.5 3.7 0 1.8-1.3 3.5-4.3 3.5zM417.9 68c-.6 0-2-1.3-2-2 0-.6 1.3-2 2-2 .6 0 2 1.3 2 2s-1.4 2-2 2z"/></g></svg>