<svg id="Layer_1" xmlns="http://www.w3.org/2000/svg" viewBox="0 0 728 90"><style>.st0{fill:#f9e039}</style><path class="st0" d="M141.4 41c-4.2 0-8.5-2.8-8.5-8 0-5.3 4.4-8 8.4-8 2.1 0 3.9.6 5 1.3l-.7 3.1c-.9-.6-2.4-1.1-3.9-1.1-2.8 0-5.1 1.8-5.1 4.9 0 2.9 2.2 4.8 5 4.8.9 0 1.6-.1 2.1-.5V35H141v-2.9h6.1v7.3c-1.3 1-3.2 1.6-5.7 1.6zM159.4 34.6l-1.6 1.6h-5.3c.2.9 1.4 1.9 3.2 1.9 1.1 0 2.3-.3 3-.8l-.3 3c-.8.4-2.1.7-3.5.7-3.3 0-6-2.3-6-5.9 0-3.5 2.5-5.7 5.7-5.7 3 0 4.9 2.1 4.9 4.3 0 .3-.1.7-.1.9zm-4.8-2.6c-1 0-1.9.8-2.1 1.8h3.7v-.2c0-.8-.6-1.6-1.6-1.6zM168.6 32.6h-2.8v4c0 .9.5 1.3 1.4 1.3.4 0 .6 0 .9-.1l-.3 2.7c-.3.2-.9.3-1.6.3-2.4 0-3.9-1.3-3.9-3.5v-4.7h-1.8v-2.9h1.8v-2.3l3.5-1.3v3.6h3.5l-.7 2.9zM180.7 46.2c-3.2 0-5.3-1.8-5.3-4.1 0-1.7 1.1-2.6 2.2-2.9l-1.4-1.4c.1-.7.7-1.3 1.3-1.6-.8-.5-1.6-1.5-1.6-2.9 0-2.3 1.7-3.9 4.5-3.9.6 0 1.2.1 1.6.2.5.1 1 .2 1.6.2.6 0 1.2-.1 1.7-.4l.6 2.7c-.3.2-.9.4-1.3.3.1.2.3.7.3 1.1 0 1.8-1.4 3.4-3.6 3.5-.4 0-.7.1-.7.4 0 .1.1.3.3.3l1.7.6c2.1.8 3.3 1.8 3.3 3.8 0 2.4-2 4.1-5.2 4.1zm.7-5.1l-1.3-.4c-.8 0-1.5.6-1.5 1.4 0 .7.6 1.4 1.9 1.4 1.2 0 1.9-.6 1.9-1.2.1-.5-.3-1-1-1.2zm-.9-9.1c-.8 0-1.4.6-1.4 1.3 0 .7.6 1.3 1.4 1.3.8 0 1.4-.6 1.4-1.3 0-.7-.6-1.3-1.4-1.3zM194.5 40.6v-1.5c-.4 1.2-1.6 1.8-3.3 1.8-2.4 0-3.8-1.3-3.8-3.6v-7.6h3.5v6.7c0 .8.6 1.5 1.6 1.5 1.1 0 1.7-.7 1.7-1.6v-6.6h3.5v10.9h-3.2zM207.6 41.1c-.6-.1-1.4-.6-1.7-1.4-.5.9-1.5 1.3-2.8 1.3-1.9 0-3.6-1.3-3.6-3.6 0-2 1.6-3.3 3.7-3.6l2.2-.2v-.4c0-.6-.5-1.1-1.7-1.1-1.1 0-2.2.3-3 .8l-.6-2.7c.9-.6 2.4-1 3.8-1 2.9 0 4.9 1.3 4.9 3.9v3.6c0 1.3.5 1.9 1.3 2.3l-2.5 2.1zm-2.2-5.2l-1.4.1c-.9.1-1.3.7-1.3 1.4 0 .6.4 1.1 1.1 1.1.8 0 1.5-.6 1.5-1.6v-1zM218 33.5c-.2-.1-.7-.3-1.1-.3-1.1 0-2.2.6-2.2 2.3v5.1h-3.5V29.8h3.5v2.4c.4-1.7 1.6-2.6 3.1-2.6.3 0 .7 0 1 .1l-.8 3.8zM227.7 41.1c-.6-.1-1.4-.6-1.7-1.4-.5.9-1.5 1.3-2.8 1.3-1.9 0-3.6-1.3-3.6-3.6 0-2 1.6-3.3 3.7-3.6l2.2-.2v-.4c0-.6-.5-1.1-1.7-1.1-1.1 0-2.2.3-3 .8l-.6-2.7c.9-.6 2.4-1 3.8-1 2.9 0 4.9 1.3 4.9 3.9v3.6c0 1.3.5 1.9 1.3 2.3l-2.5 2.1zm-2.3-5.2l-1.3.1c-.9.1-1.3.7-1.3 1.4 0 .6.4 1.1 1.1 1.1.8 0 1.5-.6 1.5-1.6v-1zM238.2 40.6V34c0-.8-.5-1.5-1.6-1.5s-1.7.7-1.7 1.5v6.6h-3.5V29.8h3.2v1.5c.4-1.2 1.6-1.8 3.3-1.8 2.4 0 3.8 1.3 3.8 3.6v7.6h-3.5zM251.1 32.6h-2.8v4c0 .9.5 1.3 1.4 1.3.4 0 .6 0 .9-.1l-.3 2.7c-.3.2-.9.3-1.6.3-2.4 0-3.9-1.3-3.9-3.5v-4.7H243v-2.9h1.8v-2.3l3.5-1.3v3.6h3.5l-.7 2.9zM262.7 34.6l-1.6 1.6h-5.3c.2.9 1.4 1.9 3.2 1.9 1.1 0 2.3-.3 3-.8l-.3 3c-.8.4-2.1.7-3.5.7-3.3 0-6-2.3-6-5.9 0-3.5 2.5-5.7 5.7-5.7 3 0 4.9 2.1 4.9 4.3 0 .3 0 .7-.1.9zm-4.8-2.6c-1 0-1.9.8-2.1 1.8h3.7v-.2c0-.8-.6-1.6-1.6-1.6zM274.4 34.6l-1.6 1.6h-5.3c.2.9 1.4 1.9 3.2 1.9 1.1 0 2.3-.3 3-.8l-.3 3c-.8.4-2.1.7-3.5.7-3.3 0-6-2.3-6-5.9 0-3.5 2.5-5.7 5.7-5.7 3 0 4.9 2.1 4.9 4.3 0 .3 0 .7-.1.9zm-4.8-2.6c-1 0-1.9.8-2.1 1.8h3.7v-.2c0-.8-.6-1.6-1.6-1.6zM284.4 40.6v-1.3c-.6 1.1-1.8 1.7-3.4 1.7-2.7 0-5.2-2-5.2-5.7 0-3.5 2.5-5.8 5.5-5.8 1.2 0 2.3.4 2.8.7v-6.6h3.4v17.1h-3.1zm-.4-7.1c-.3-.5-1.1-1-2.1-1-1.5 0-2.6 1.2-2.6 2.8s1.1 2.8 2.6 2.8c1 0 1.8-.6 2.1-1.1v-3.5zM298.9 41.1c-2.2-.1-3.7-1.2-3.7-3.9V23.5h3.5v13.2c0 .9.5 1.4 1.5 1.4l-1.3 3zM303.3 28.3c-.6 0-1.9-1.3-1.9-1.9s1.3-1.9 1.9-1.9 1.9 1.2 1.9 1.9-1.3 1.9-1.9 1.9zm-1.8 12.3V29.8h3.6v10.9h-3.6zM315 26.7c-.4-.2-1-.3-1.4-.3-1.3 0-2 .8-2 2.3v1h3.1l-.7 2.9h-2.4v8h-3.4v-8h-1.7v-2.9h1.7v-1.3c0-3.3 2.1-4.9 4.9-4.9 1 0 2 .1 2.6.4l-.7 2.8zM325.6 34.6l-1.6 1.6h-5.3c.2.9 1.4 1.9 3.2 1.9 1.1 0 2.3-.3 3-.8l-.3 3c-.8.4-2.1.7-3.5.7-3.3 0-6-2.3-6-5.9 0-3.5 2.5-5.7 5.7-5.7 3 0 4.9 2.1 4.9 4.3 0 .3 0 .7-.1.9zm-4.7-2.6c-1 0-1.9.8-2.1 1.8h3.7v-.2c-.1-.8-.7-1.6-1.6-1.6zM334.8 32.6H332v4c0 .9.5 1.3 1.4 1.3.4 0 .6 0 .9-.1l-.3 2.7c-.3.2-.9.3-1.6.3-2.4 0-3.9-1.3-3.9-3.5v-4.7h-1.8v-2.9h1.8v-2.3l3.5-1.3v3.6h3.5l-.7 2.9zM338.6 28.3c-.6 0-1.9-1.3-1.9-1.9s1.3-1.9 1.9-1.9 1.9 1.2 1.9 1.9-1.3 1.9-1.9 1.9zm-1.8 12.3V29.8h3.6v10.9h-3.6zM356 40.6V34c0-.8-.4-1.5-1.5-1.5s-1.6.7-1.6 1.5v6.6h-3.5V34c0-.8-.4-1.5-1.5-1.5s-1.6.7-1.6 1.5v6.6h-3.5V29.8h3.3v1.5c.4-1.2 1.5-1.8 3.2-1.8 1.6 0 2.7.6 3.2 1.8.5-1.1 1.7-1.8 3.4-1.8 2.5 0 3.8 1.3 3.8 3.6v7.6H356zM371.8 34.6l-1.6 1.6h-5.3c.2.9 1.4 1.9 3.2 1.9 1.1 0 2.3-.3 3-.8l-.3 3c-.8.4-2.1.7-3.5.7-3.3 0-6-2.3-6-5.9 0-3.5 2.5-5.7 5.7-5.7 3 0 4.9 2.1 4.9 4.3 0 .3-.1.7-.1.9zM367 32c-1 0-1.9.8-2.1 1.8h3.7v-.2c0-.8-.7-1.6-1.6-1.6zM380.8 28.3c-.6 0-1.9-1.3-1.9-1.9s1.3-1.9 1.9-1.9 1.9 1.2 1.9 1.9-1.2 1.9-1.9 1.9zm-1.7 12.3V29.8h3.6v10.9h-3.6zM391.8 40.6V34c0-.8-.5-1.5-1.6-1.5s-1.7.7-1.7 1.5v6.6H385V29.8h3.2v1.5c.4-1.2 1.6-1.8 3.3-1.8 2.4 0 3.8 1.3 3.8 3.6v7.6h-3.5zM405.8 33.3c-.7-.5-1.5-.7-2.3-.7-1.5 0-2.8 1.1-2.8 2.7s1.2 2.7 2.8 2.7c.9 0 1.6-.2 2.4-.6l-.3 3c-.7.3-1.7.5-2.7.5-3 0-5.9-2.2-5.9-5.7 0-3.6 2.9-5.7 5.8-5.7 1.4 0 2.6.3 3.6.8l-.6 3zM413.4 41c-3.3 0-5.9-2.3-5.9-5.8s2.6-5.8 5.9-5.8c3.3 0 5.9 2.3 5.9 5.8 0 3.4-2.7 5.8-5.9 5.8zm0-8.5c-1.3 0-2.4 1.2-2.4 2.8 0 1.6 1.1 2.8 2.4 2.8 1.3 0 2.4-1.2 2.4-2.8 0-1.7-1.1-2.8-2.4-2.8zM434.5 40.6V34c0-.8-.4-1.5-1.5-1.5s-1.6.7-1.6 1.5v6.6h-3.5V34c0-.8-.4-1.5-1.5-1.5s-1.6.7-1.6 1.5v6.6h-3.5V29.8h3.3v1.5c.4-1.2 1.5-1.8 3.2-1.8 1.6 0 2.7.6 3.2 1.8.5-1.1 1.7-1.8 3.4-1.8 2.5 0 3.8 1.3 3.8 3.6v7.6h-3.7zM450.2 34.6l-1.6 1.6h-5.3c.2.9 1.4 1.9 3.2 1.9 1.1 0 2.3-.3 3-.8l-.3 3c-.8.4-2.1.7-3.5.7-3.3 0-6-2.3-6-5.9 0-3.5 2.5-5.7 5.7-5.7 3 0 4.9 2.1 4.9 4.3 0 .3-.1.7-.1.9zm-4.8-2.6c-1 0-1.9.8-2.1 1.8h3.7v-.2c0-.8-.7-1.6-1.6-1.6z"/><g><path class="st0" d="M201.1 57.6h-2.8v4c0 .9.5 1.3 1.4 1.3.4 0 .6 0 .9-.1l-.3 2.7c-.3.2-.9.3-1.6.3-2.4 0-3.9-1.3-3.9-3.5v-4.7H193v-2.9h1.8v-2.3l3.5-1.3v3.6h3.5l-.7 2.9zM209.9 65.6V59c0-.8-.6-1.5-1.6-1.5-1.1 0-1.7.7-1.7 1.5v6.6H203v-17h3.5v7.2c.6-.8 1.6-1.3 3.1-1.3 2.4 0 3.8 1.3 3.8 3.6v7.6h-3.5zM223.3 66.1c-.6-.1-1.4-.6-1.7-1.4-.5.9-1.5 1.3-2.8 1.3-1.9 0-3.6-1.3-3.6-3.6 0-2 1.6-3.3 3.7-3.6l2.2-.2v-.4c0-.6-.5-1.1-1.7-1.1-1.1 0-2.2.3-3 .8l-.6-2.7c.9-.6 2.4-1 3.8-1 2.9 0 4.9 1.3 4.9 3.9v3.6c0 1.3.5 1.9 1.3 2.3l-2.5 2.1zm-2.3-5.2l-1.3.1c-.9.1-1.3.7-1.3 1.4 0 .6.4 1.1 1.1 1.1.8 0 1.5-.6 1.5-1.6v-1zM234 57.6h-2.8v4c0 .9.5 1.3 1.4 1.3.4 0 .6 0 .9-.1l-.3 2.7c-.3.2-.9.3-1.6.3-2.4 0-3.9-1.3-3.9-3.5v-4.7h-1.8v-2.9h1.8v-2.3l3.5-1.3v3.6h3.5l-.7 2.9zM248.1 65.6V59c0-.8-.5-1.5-1.6-1.5s-1.7.7-1.7 1.5v6.6h-3.5V54.8h3.2v1.5c.4-1.2 1.6-1.8 3.3-1.8 2.4 0 3.8 1.3 3.8 3.6v7.6h-3.5zM263.8 59.6l-1.6 1.6h-5.3c.2.9 1.4 1.9 3.2 1.9 1.1 0 2.3-.3 3-.8l-.3 3c-.8.4-2.1.7-3.5.7-3.3 0-6-2.3-6-5.9 0-3.5 2.5-5.7 5.7-5.7 3 0 4.9 2.1 4.9 4.3 0 .3 0 .7-.1.9zM259 57c-1 0-1.9.8-2.1 1.8h3.7v-.2c0-.8-.6-1.6-1.6-1.6zM271.2 65.7h-2.6l-4.2-11h3.4l1.5 4.2c.2.6.4 1.4.6 2.1.2-.7.4-1.5.6-2.1l1.5-4.2h3.3l-4.1 11zM286.2 59.6l-1.6 1.6h-5.3c.2.9 1.4 1.9 3.2 1.9 1.1 0 2.3-.3 3-.8l-.3 3c-.8.4-2.1.7-3.5.7-3.3 0-6-2.3-6-5.9 0-3.5 2.5-5.7 5.7-5.7 3 0 4.9 2.1 4.9 4.3 0 .3-.1.7-.1.9zm-4.8-2.6c-1 0-1.9.8-2.1 1.8h3.7v-.2c0-.8-.7-1.6-1.6-1.6zM294.7 58.5c-.2-.1-.7-.3-1.1-.3-1.1 0-2.2.6-2.2 2.3v5.1H288V54.8h3.5v2.4c.4-1.7 1.6-2.6 3.1-2.6.3 0 .7 0 1 .1l-.9 3.8zM308.9 58.5c-.2-.1-.7-.3-1.1-.3-1.1 0-2.2.6-2.2 2.3v5.1h-3.5V54.8h3.5v2.4c.4-1.7 1.6-2.6 3.1-2.6.3 0 .7 0 1 .1l-.8 3.8zM318.2 65.6v-1.5c-.4 1.2-1.6 1.8-3.3 1.8-2.4 0-3.8-1.3-3.8-3.6v-7.6h3.5v6.7c0 .8.6 1.5 1.6 1.5 1.1 0 1.7-.7 1.7-1.6v-6.6h3.5v10.9h-3.2zM330.5 65.6V59c0-.8-.5-1.5-1.6-1.5s-1.7.7-1.7 1.5v6.6h-3.5V54.8h3.2v1.5c.4-1.2 1.6-1.8 3.3-1.8 2.4 0 3.8 1.3 3.8 3.6v7.6h-3.5zM339.7 65.9c-1.5 0-2.6-.3-3.5-.8L336 62c1 .7 2.2 1.2 3.4 1.2.6 0 1.1-.3 1.1-.7 0-.5-.4-.6-1-.8-2.1-.6-3.3-1.7-3.3-3.6 0-2.1 1.7-3.5 4.1-3.5 1.3 0 2.7.4 3.2.6l-.6 2.6c-.5-.3-1.4-.6-2.3-.6-.6 0-1 .3-1 .7 0 .4.3.6 1 .8 2.4.6 3.5 1.9 3.5 3.7-.1 1.8-1.4 3.5-4.4 3.5zM356.6 66c-3.3 0-5.9-2.3-5.9-5.8s2.6-5.8 5.9-5.8c3.3 0 5.9 2.3 5.9 5.8s-2.6 5.8-5.9 5.8zm0-8.5c-1.3 0-2.4 1.2-2.4 2.8s1.1 2.8 2.4 2.8c1.3 0 2.4-1.2 2.4-2.8s-1.1-2.8-2.4-2.8zM371.4 65.6v-1.5c-.4 1.2-1.6 1.8-3.3 1.8-2.4 0-3.8-1.3-3.8-3.6v-7.6h3.5v6.7c0 .8.6 1.5 1.6 1.5 1.1 0 1.7-.7 1.7-1.6v-6.6h3.5v10.9h-3.2zM384.2 57.6h-2.8v4c0 .9.5 1.3 1.4 1.3.4 0 .6 0 .9-.1l-.3 2.7c-.3.2-.9.3-1.6.3-2.4 0-3.9-1.3-3.9-3.5v-4.7H376v-2.9h1.8v-2.3l3.5-1.3v3.6h3.5l-.6 2.9zM387.6 66c-.6 0-2-1.3-2-2 0-.6 1.3-2 2-2 .6 0 2 1.3 2 2 0 .6-1.4 2-2 2z"/></g></svg>