<svg id="Layer_1" xmlns="http://www.w3.org/2000/svg" viewBox="0 0 728 90"><style>.st0{fill:#f9e039}</style><path class="st0" d="M173.7 39.5l-4.1-6h-1v6H165V24.2h5.6c2.6 0 4.9 1.8 4.9 4.6 0 1.8-1.1 3.2-2.4 3.8l4.9 6.8h-4.3zm-3.6-12.3h-1.5v3.4h1.5c1 0 1.9-.5 1.9-1.7s-1-1.7-1.9-1.7zM188.3 33.4l-1.6 1.6h-5.3c.2.9 1.4 1.9 3.2 1.9 1.1 0 2.3-.3 3-.8l-.3 3c-.8.4-2.1.7-3.5.7-3.3 0-6-2.3-6-5.9 0-3.5 2.5-5.7 5.7-5.7 3 0 4.9 2.1 4.9 4.3-.1.4-.1.7-.1.9zm-4.8-2.5c-1 0-1.9.8-2.1 1.8h3.7v-.2c0-.8-.7-1.6-1.6-1.6zM197.6 40c-.6-.1-1.4-.6-1.7-1.4-.5.9-1.5 1.3-2.8 1.3-1.9 0-3.6-1.3-3.6-3.6 0-2 1.6-3.3 3.7-3.6l2.2-.2v-.4c0-.6-.5-1.1-1.7-1.1-1.1 0-2.2.3-3 .8l-.6-2.7c.9-.6 2.4-1 3.8-1 2.9 0 4.9 1.3 4.9 3.9v3.6c0 1.3.5 1.9 1.3 2.3l-2.5 2.1zm-2.2-5.3l-1.3.1c-.9.1-1.3.7-1.3 1.4 0 .6.4 1.1 1.1 1.1.8 0 1.5-.6 1.5-1.6v-1zM209.3 39.5v-1.3c-.6 1.1-1.8 1.7-3.4 1.7-2.7 0-5.2-2-5.2-5.7 0-3.5 2.5-5.8 5.5-5.8 1.2 0 2.3.4 2.8.7v-6.6h3.4v17.1h-3.1zm-.3-7.1c-.3-.5-1.1-1-2.1-1-1.5 0-2.6 1.2-2.6 2.8s1.1 2.8 2.6 2.8c1 0 1.8-.6 2.1-1.1v-3.5zM221.2 38.4c-1.7 4.4-3.4 6-5.4 6.7l-2.2-2.2c1.8-.7 3.1-1.9 4-4.2l-3.9-10.1h3.4l1.6 4.2c.2.6.5 1.4.6 2.1.2-.7.5-1.5.7-2.1l1.6-4.2h3.2l-3.6 9.8zM238.9 31.5h-2.8v4c0 .9.5 1.3 1.4 1.3.4 0 .6 0 .9-.1l-.3 2.7c-.3.2-.9.3-1.6.3-2.4 0-3.9-1.3-3.9-3.5v-4.7h-1.8v-2.9h1.8v-2.3l3.5-1.3v3.6h3.5l-.7 2.9zM246 39.8c-3.3 0-5.9-2.3-5.9-5.8s2.6-5.8 5.9-5.8c3.3 0 5.9 2.3 5.9 5.8s-2.6 5.8-5.9 5.8zm0-8.5c-1.3 0-2.4 1.2-2.4 2.8 0 1.6 1.1 2.8 2.4 2.8 1.3 0 2.4-1.2 2.4-2.8 0-1.6-1.1-2.8-2.4-2.8zM263.9 45c-3.2 0-5.3-1.8-5.3-4.1 0-1.7 1.1-2.6 2.2-2.9l-1.4-1.4c.1-.7.7-1.3 1.3-1.6-.8-.5-1.6-1.5-1.6-2.9 0-2.3 1.7-3.9 4.5-3.9.6 0 1.2.1 1.6.2.5.1 1 .2 1.6.2.6 0 1.2-.1 1.7-.4l.6 2.7c-.3.2-.9.4-1.3.3.1.2.3.7.3 1.1 0 1.8-1.4 3.4-3.6 3.5-.4 0-.7.1-.7.4 0 .1.1.3.3.3l1.7.6c2.1.8 3.3 1.8 3.3 3.8 0 2.4-2 4.1-5.2 4.1zm.7-5.1l-1.3-.4c-.8 0-1.5.6-1.5 1.4 0 .7.6 1.4 1.9 1.4 1.2 0 1.9-.6 1.9-1.2.1-.5-.3-1-1-1.2zm-.9-9.1c-.8 0-1.4.6-1.4 1.3 0 .7.6 1.3 1.4 1.3.8 0 1.4-.6 1.4-1.3 0-.7-.6-1.3-1.4-1.3zM272.4 27.1c-.6 0-1.9-1.3-1.9-1.9s1.3-1.9 1.9-1.9 1.9 1.2 1.9 1.9-1.3 1.9-1.9 1.9zm-1.8 12.4V28.6h3.6v10.9h-3.6zM282.2 39.6h-2.6l-4.2-11h3.4l1.5 4.2c.2.6.4 1.4.6 2.1.2-.7.4-1.5.6-2.1l1.5-4.2h3.3l-4.1 11zM297.2 33.4l-1.6 1.6h-5.3c.2.9 1.4 1.9 3.2 1.9 1.1 0 2.3-.3 3-.8l-.3 3c-.8.4-2.1.7-3.5.7-3.3 0-6-2.3-6-5.9 0-3.5 2.5-5.7 5.7-5.7 3 0 4.9 2.1 4.9 4.3 0 .4-.1.7-.1.9zm-4.8-2.5c-1 0-1.9.8-2.1 1.8h3.7v-.2c0-.8-.7-1.6-1.6-1.6zM311.1 38.4c-1.7 4.4-3.4 6-5.4 6.7l-2.2-2.2c1.8-.7 3.1-1.9 4-4.2l-3.9-10.1h3.4l1.6 4.2c.2.6.5 1.4.6 2.1.2-.7.5-1.5.7-2.1l1.6-4.2h3.2l-3.6 9.8zM321 39.8c-3.3 0-5.9-2.3-5.9-5.8s2.6-5.8 5.9-5.8c3.3 0 5.9 2.3 5.9 5.8s-2.6 5.8-5.9 5.8zm0-8.5c-1.3 0-2.4 1.2-2.4 2.8 0 1.6 1.1 2.8 2.4 2.8 1.3 0 2.4-1.2 2.4-2.8 0-1.6-1.1-2.8-2.4-2.8zM335.8 39.5V38c-.4 1.2-1.6 1.8-3.3 1.8-2.4 0-3.8-1.3-3.8-3.6v-7.6h3.5v6.7c0 .8.6 1.5 1.6 1.5 1.1 0 1.7-.7 1.7-1.6v-6.6h3.5v10.9h-3.2zM348 32.4c-.2-.1-.7-.3-1.1-.3-1.1 0-2.2.6-2.2 2.3v5.1h-3.5V28.6h3.5V31c.4-1.7 1.6-2.6 3.1-2.6.3 0 .7 0 1 .1l-.8 3.9zM362.2 32.4c-.2-.1-.7-.3-1.1-.3-1.1 0-2.2.6-2.2 2.3v5.1h-3.5V28.6h3.5V31c.4-1.7 1.6-2.6 3.1-2.6.3 0 .7 0 1 .1l-.8 3.9zM374 33.4l-1.6 1.6h-5.3c.2.9 1.4 1.9 3.2 1.9 1.1 0 2.3-.3 3-.8l-.3 3c-.8.4-2.1.7-3.5.7-3.3 0-6-2.3-6-5.9 0-3.5 2.5-5.7 5.7-5.7 3 0 4.9 2.1 4.9 4.3 0 .4 0 .7-.1.9zm-4.8-2.5c-1 0-1.9.8-2.1 1.8h3.7v-.2c0-.8-.6-1.6-1.6-1.6zM383.2 31.5h-2.8v4c0 .9.5 1.3 1.4 1.3.4 0 .6 0 .9-.1l-.3 2.7c-.3.2-.9.3-1.6.3-2.4 0-3.9-1.3-3.9-3.5v-4.7H375v-2.9h1.8v-2.3l3.5-1.3v3.6h3.5l-.6 2.9zM386.9 27.1c-.6 0-1.9-1.3-1.9-1.9s1.3-1.9 1.9-1.9 1.9 1.2 1.9 1.9-1.2 1.9-1.9 1.9zm-1.7 12.4V28.6h3.6v10.9h-3.6zM397.8 32.4c-.2-.1-.7-.3-1.1-.3-1.1 0-2.2.6-2.2 2.3v5.1H391V28.6h3.5V31c.4-1.7 1.6-2.6 3.1-2.6.3 0 .7 0 1 .1l-.8 3.9zM409.6 33.4L408 35h-5.3c.2.9 1.4 1.9 3.2 1.9 1.1 0 2.3-.3 3-.8l-.3 3c-.8.4-2.1.7-3.5.7-3.3 0-6-2.3-6-5.9 0-3.5 2.5-5.7 5.7-5.7 3 0 4.9 2.1 4.9 4.3-.1.4-.1.7-.1.9zm-4.8-2.5c-1 0-1.9.8-2.1 1.8h3.7v-.2c0-.8-.7-1.6-1.6-1.6zM424.8 39.5v-6.7c0-.8-.4-1.5-1.5-1.5s-1.6.7-1.6 1.5v6.6h-3.5v-6.7c0-.8-.4-1.5-1.5-1.5s-1.6.7-1.6 1.5v6.6h-3.5V28.6h3.3v1.5c.4-1.2 1.5-1.8 3.2-1.8 1.6 0 2.7.6 3.2 1.8.5-1.1 1.7-1.8 3.4-1.8 2.5 0 3.8 1.3 3.8 3.6v7.6h-3.7zM440.5 33.4l-1.6 1.6h-5.3c.2.9 1.4 1.9 3.2 1.9 1.1 0 2.3-.3 3-.8l-.3 3c-.8.4-2.1.7-3.5.7-3.3 0-6-2.3-6-5.9 0-3.5 2.5-5.7 5.7-5.7 3 0 4.9 2.1 4.9 4.3 0 .4-.1.7-.1.9zm-4.8-2.5c-1 0-1.9.8-2.1 1.8h3.7v-.2c0-.8-.7-1.6-1.6-1.6zM449.2 39.5v-6.7c0-.8-.5-1.5-1.6-1.5s-1.7.7-1.7 1.5v6.6h-3.5V28.6h3.2v1.5c.4-1.2 1.6-1.8 3.3-1.8 2.4 0 3.8 1.3 3.8 3.6v7.6h-3.5zM462.1 31.5h-2.8v4c0 .9.5 1.3 1.4 1.3.4 0 .6 0 .9-.1l-.3 2.7c-.3.2-.9.3-1.6.3-2.4 0-3.9-1.3-3.9-3.5v-4.7H454v-2.9h1.8v-2.3l3.5-1.3v3.6h3.5l-.7 2.9zM472.9 39.7c-1.5 0-2.6-.3-3.5-.8l-.3-3.1c1 .7 2.2 1.2 3.4 1.2.6 0 1.1-.3 1.1-.7 0-.5-.4-.6-1-.8-2.1-.6-3.3-1.7-3.3-3.6 0-2.1 1.7-3.5 4.1-3.5 1.3 0 2.7.4 3.2.6l-.6 2.6c-.5-.3-1.4-.6-2.3-.6-.6 0-1 .3-1 .7 0 .4.3.6 1 .8 2.4.6 3.5 1.9 3.5 3.7 0 1.8-1.4 3.5-4.3 3.5zM486.6 40c-.6-.1-1.4-.6-1.7-1.4-.5.9-1.5 1.3-2.8 1.3-1.9 0-3.6-1.3-3.6-3.6 0-2 1.6-3.3 3.7-3.6l2.2-.2v-.4c0-.6-.5-1.1-1.7-1.1-1.1 0-2.2.3-3 .8l-.6-2.7c.9-.6 2.4-1 3.8-1 2.9 0 4.9 1.3 4.9 3.9v3.6c0 1.3.5 1.9 1.3 2.3l-2.5 2.1zm-2.3-5.3l-1.3.1c-.9.1-1.3.7-1.3 1.4 0 .6.4 1.1 1.1 1.1.8 0 1.5-.6 1.5-1.6v-1zM495.6 39.6H493l-4.2-11h3.4l1.5 4.2c.2.6.4 1.4.6 2.1.2-.7.4-1.5.6-2.1l1.5-4.2h3.3l-4.1 11zM502.9 27.1c-.6 0-1.9-1.3-1.9-1.9s1.3-1.9 1.9-1.9 1.9 1.2 1.9 1.9-1.3 1.9-1.9 1.9zm-1.8 12.4V28.6h3.6v10.9h-3.6zM513.8 39.5v-6.7c0-.8-.5-1.5-1.6-1.5s-1.7.7-1.7 1.5v6.6H507V28.6h3.2v1.5c.4-1.2 1.6-1.8 3.3-1.8 2.4 0 3.8 1.3 3.8 3.6v7.6h-3.5zM524.2 45c-3.2 0-5.3-1.8-5.3-4.1 0-1.7 1.1-2.6 2.2-2.9l-1.4-1.4c.1-.7.7-1.3 1.3-1.6-.8-.5-1.6-1.5-1.6-2.9 0-2.3 1.7-3.9 4.5-3.9.6 0 1.2.1 1.6.2.5.1 1 .2 1.6.2.6 0 1.2-.1 1.7-.4l.6 2.7c-.3.2-.9.4-1.3.3.1.2.3.7.3 1.1 0 1.8-1.4 3.4-3.6 3.5-.4 0-.7.1-.7.4 0 .1.1.3.3.3l1.7.6c2.1.8 3.3 1.8 3.3 3.8 0 2.4-2.1 4.1-5.2 4.1zm.7-5.1l-1.3-.4c-.8 0-1.5.6-1.5 1.4 0 .7.6 1.4 1.9 1.4 1.2 0 1.9-.6 1.9-1.2.1-.5-.3-1-1-1.2zm-1-9.1c-.8 0-1.4.6-1.4 1.3 0 .7.6 1.3 1.4 1.3.8 0 1.4-.6 1.4-1.3 0-.7-.5-1.3-1.4-1.3zM534.3 39.7c-1.5 0-2.6-.3-3.5-.8l-.3-3.1c1 .7 2.2 1.2 3.4 1.2.6 0 1.1-.3 1.1-.7 0-.5-.4-.6-1-.8-2.1-.6-3.3-1.7-3.3-3.6 0-2.1 1.7-3.5 4.1-3.5 1.3 0 2.7.4 3.2.6l-.6 2.6c-.5-.3-1.4-.6-2.3-.6-.6 0-1 .3-1 .7 0 .4.3.6 1 .8 2.4.6 3.5 1.9 3.5 3.7 0 1.8-1.3 3.5-4.3 3.5z"/><g><path class="st0" d="M284.3 65c-.6-.1-1.4-.6-1.7-1.4-.5.9-1.5 1.3-2.8 1.3-1.9 0-3.6-1.3-3.6-3.6 0-2 1.6-3.3 3.7-3.6l2.2-.2v-.4c0-.6-.5-1.1-1.7-1.1-1.1 0-2.2.3-3 .8l-.6-2.7c.9-.6 2.4-1 3.8-1 2.9 0 4.9 1.3 4.9 3.9v3.6c0 1.3.5 1.9 1.3 2.3l-2.5 2.1zm-2.2-5.3l-1.3.1c-.9.1-1.3.7-1.3 1.4 0 .6.4 1.1 1.1 1.1.8 0 1.5-.6 1.5-1.6v-1zM305.4 64.6H303l-1.5-4.3c-.2-.7-.4-1.4-.6-2.3-.2.8-.4 1.6-.6 2.2l-1.5 4.3h-2.3l-3.8-11h3.2l1.3 4.1c.2.6.4 1.4.5 2.1.1-.7.3-1.5.5-2.1l1.4-4.1h2.7l1.4 4.1c.2.7.4 1.4.5 2.1.1-.7.3-1.5.6-2.1l1.4-4.1h3l-3.8 11.1zM318.1 65c-.6-.1-1.4-.6-1.7-1.4-.5.9-1.5 1.3-2.8 1.3-1.9 0-3.6-1.3-3.6-3.6 0-2 1.6-3.3 3.7-3.6l2.2-.2v-.4c0-.6-.5-1.1-1.7-1.1-1.1 0-2.2.3-3 .8l-.6-2.7c.9-.6 2.4-1 3.8-1 2.9 0 4.9 1.3 4.9 3.9v3.6c0 1.3.5 1.9 1.3 2.3l-2.5 2.1zm-2.3-5.3l-1.3.1c-.9.1-1.3.7-1.3 1.4 0 .6.4 1.1 1.1 1.1.8 0 1.5-.6 1.5-1.6v-1zM328.5 64.5l-3.2-4.4v4.4h-3.5V47.4h3.5V58l3.3-4.4h3.8l-3.8 5.3 4 5.6h-4.1zM343.2 58.4l-1.6 1.6h-5.3c.2.9 1.4 1.9 3.2 1.9 1.1 0 2.3-.3 3-.8l-.3 3c-.8.4-2.1.7-3.5.7-3.3 0-6-2.3-6-5.9 0-3.5 2.5-5.7 5.7-5.7 3 0 4.9 2.1 4.9 4.3 0 .4-.1.7-.1.9zm-4.8-2.5c-1 0-1.9.8-2.1 1.8h3.7v-.2c0-.8-.6-1.6-1.6-1.6zM345 59.2v-2.7h6.3v2.7H345zM360.6 64.5V63c-.4 1.2-1.6 1.8-3.3 1.8-2.4 0-3.8-1.3-3.8-3.6v-7.6h3.5v6.7c0 .8.6 1.5 1.6 1.5 1.1 0 1.7-.7 1.7-1.6v-6.6h3.5v10.9h-3.2zM372.2 64.8c-1.2 0-2.3-.4-2.8-.7v6H366V53.6h3.1V55c.6-1.1 1.8-1.7 3.4-1.7 2.7 0 5.2 2 5.2 5.7.1 3.5-2.4 5.8-5.5 5.8zm-.6-8.4c-1 0-1.8.6-2.1 1.1v3.4c.3.5 1.1 1 2.1 1 1.5 0 2.6-1.2 2.6-2.7 0-1.6-1.1-2.8-2.6-2.8zM393.2 57.1c-.7-.5-1.5-.7-2.3-.7-1.5 0-2.8 1.1-2.8 2.7s1.2 2.7 2.8 2.7c.9 0 1.6-.2 2.4-.6l-.3 3c-.7.3-1.7.5-2.7.5-3 0-5.9-2.2-5.9-5.7 0-3.6 2.9-5.7 5.8-5.7 1.4 0 2.6.3 3.6.8l-.6 3zM403.2 65c-.6-.1-1.4-.6-1.7-1.4-.5.9-1.5 1.3-2.8 1.3-1.9 0-3.6-1.3-3.6-3.6 0-2 1.6-3.3 3.7-3.6l2.2-.2v-.4c0-.6-.5-1.1-1.7-1.1-1.1 0-2.2.3-3 .8l-.6-2.7c.9-.6 2.4-1 3.8-1 2.9 0 4.9 1.3 4.9 3.9v3.6c0 1.3.5 1.9 1.3 2.3l-2.5 2.1zm-2.3-5.3l-1.3.1c-.9.1-1.3.7-1.3 1.4 0 .6.4 1.1 1.1 1.1.8 0 1.5-.6 1.5-1.6v-1zM410.5 64.9c-2.2-.1-3.7-1.2-3.7-3.9V47.4h3.5v13.2c0 .9.5 1.4 1.5 1.4l-1.3 2.9zM416.8 64.9c-2.2-.1-3.7-1.2-3.7-3.9V47.4h3.5v13.2c0 .9.5 1.4 1.5 1.4l-1.3 2.9zM424.6 57c-.6.7-.8 1.2-.8 1.9 0 .3 0 .7.1 1.1l-3-.6c-.1-.5-.2-.8-.2-1.2 0-1.3.5-2.4 1.4-3.3.6-.6.9-1.1.9-1.8 0-.5-.5-1.1-1.3-1.1-.9 0-1.6.3-2.4.8l-.7-3c.9-.6 2.1-.9 3.4-.9 2.8 0 4.7 1.6 4.7 4.1-.1 1.3-.7 2.4-2.1 4zm-2.2 7.8c-.6 0-2-1.3-2-2 0-.6 1.3-2 2-2 .6 0 2 1.3 2 2s-1.3 2-2 2z"/></g></svg>