<svg id="Layer_1" xmlns="http://www.w3.org/2000/svg" viewBox="0 0 728 90"><style>.st0{fill:#3abfef}</style><path class="st0" d="M584.2 51.3c-5.2 0-9.5 4.2-9.5 9.5V70c0 5.2 4.2 9.5 9.5 9.5h109.9c5.2 0 9.5-4.2 9.5-9.5v-9.3c0-5.2-4.2-9.5-9.5-9.5H584.2z"/><path d="M589.4 66.2v-1.5h3.3V69h-.8l-.3-.9c-.6.7-1.2 1-2.2 1-2.3 0-3.3-1.9-3.3-4 0-2.2 1.1-4.2 3.5-4.2 1.7 0 2.9 1 3.1 2.7l-1.8.2c-.1-.8-.5-1.5-1.4-1.5-1.3 0-1.5 1.7-1.5 2.7 0 1 .3 2.5 1.6 2.5.8 0 1.4-.6 1.3-1.4h-1.5zM594.6 67.8c-.6-.8-.8-1.9-.8-2.9 0-2.1 1.1-4.1 3.4-4.1 1.1 0 1.9.3 2.5 1.2.6.8.9 1.9.9 2.9 0 .9-.2 2-.8 2.8-.6.9-1.6 1.4-2.6 1.4-1.1 0-1.9-.4-2.6-1.3zm1.4-4.5c-.2.5-.3 1.2-.3 1.7 0 1 .2 2.6 1.5 2.6.6 0 1-.3 1.2-.9.2-.5.2-1.2.2-1.7 0-.6-.1-1.3-.3-1.8-.2-.5-.6-.8-1.2-.8-.5 0-.9.3-1.1.9zM610.6 62.5h-2v6.4h-1.9v-6.4h-2v-1.6h5.9v1.6zM612.1 67.8c-.6-.8-.8-1.9-.8-2.9 0-2.1 1.1-4.1 3.4-4.1 1.1 0 1.9.3 2.5 1.2.6.8.9 1.9.9 2.9 0 .9-.2 2-.8 2.8-.6.9-1.6 1.4-2.6 1.4-1.1 0-2-.4-2.6-1.3zm1.4-4.5c-.2.5-.3 1.2-.3 1.7 0 1 .2 2.6 1.5 2.6.6 0 1-.3 1.2-.9.2-.5.2-1.2.2-1.7 0-.6-.1-1.3-.3-1.8-.2-.5-.6-.8-1.2-.8-.5 0-.9.3-1.1.9zM627.3 64c0-.9-.3-1.7-1.3-1.7-1.3 0-1.4 1.7-1.4 2.7 0 1.1.1 2.5 1.5 2.5.9 0 1.3-.7 1.4-1.5l1.8.1c-.2 1.8-1.5 2.9-3.3 2.9-2.4 0-3.5-1.9-3.5-4.1 0-2.2 1.2-4.1 3.6-4.1 2 0 3 1.2 3.2 3.1l-2 .1zM637 68.9h-2l-.5-1.6H632l-.5 1.6h-1.6l2.6-8h2.2l2.3 8zm-2.9-3.1l-.9-2.8-.8 2.8h1.7zM643 67.4V69h-5.1v-8h1.9v6.4h3.2zM648.3 64c0-.9-.3-1.7-1.3-1.7-1.3 0-1.4 1.7-1.4 2.7 0 1.1.1 2.5 1.5 2.5.9 0 1.3-.7 1.4-1.5l1.8.1c-.2 1.8-1.5 2.9-3.3 2.9-2.4 0-3.5-1.9-3.5-4.1 0-2.2 1.2-4.1 3.6-4.1 2 0 3 1.2 3.2 3.1l-2 .1zM657.7 65.8c0 .9 0 1.8-.7 2.4-.6.6-1.6.8-2.5.8-.8 0-1.8-.1-2.4-.7-.8-.7-.8-1.6-.8-2.6v-4.8h2v4.8c0 .4 0 .9.2 1.2.2.4.7.5 1.2.5.4 0 .9-.1 1.2-.4.3-.4.2-.9.2-1.3v-4.8h1.6v4.9zM664.1 67.4V69H659v-8h1.9v6.4h3.2zM671.5 68.9h-2l-.5-1.6h-2.6l-.5 1.6h-1.6l2.6-8h2.2l2.4 8zm-2.9-3.1l-.9-2.8-.8 2.8h1.7zM677 62.5h-2v6.4h-1.9v-6.4h-2v-1.6h5.9v1.6zM678.4 67.8c-.6-.8-.8-1.9-.8-2.9 0-2.1 1.1-4.1 3.4-4.1 1.1 0 1.9.3 2.5 1.2.6.8.9 1.9.9 2.9 0 .9-.2 2-.8 2.8-.6.9-1.6 1.4-2.6 1.4-1.1 0-1.9-.4-2.6-1.3zm1.4-4.5c-.2.5-.3 1.2-.3 1.7 0 1 .2 2.6 1.5 2.6.6 0 1-.3 1.2-.9.2-.5.2-1.2.2-1.7 0-.6-.1-1.3-.3-1.8-.2-.5-.6-.8-1.2-.8-.5 0-.9.3-1.1.9zM687.5 68.9h-1.9v-8h3.4c.7 0 1.4 0 2 .4.7.4 1 1.2 1 2 0 .9-.5 1.7-1.4 2.1l1.5 3.5H690l-1.2-3.2h-1.4v3.2zm0-4.5h1c.4 0 .8 0 1.1-.2.3-.2.5-.6.5-.9 0-.3-.2-.7-.5-.8-.3-.2-.8-.2-1.2-.2h-1v2.1z"/></svg>