<?xml version="1.0" encoding="utf-8"?>
<!-- Generator: Adobe Illustrator 17.0.0, SVG Export Plug-In . SVG Version: 6.00 Build 0)  -->
<!DOCTYPE svg PUBLIC "-//W3C//DTD SVG 1.1//EN" "http://www.w3.org/Graphics/SVG/1.1/DTD/svg11.dtd">
<svg version="1.1" id="Layer_1" xmlns="http://www.w3.org/2000/svg" xmlns:xlink="http://www.w3.org/1999/xlink" x="0px" y="0px"
	 width="300px" height="250px" viewBox="0.5 425.5 300 250" style="enable-background:new 0.5 425.5 300 250;" xml:space="preserve"
	>
<style type="text/css">
	.st0{fill:none;stroke:#000000;stroke-miterlimit:10;}
</style>
<path id="path1" class="st0" d="M-124.3,462.523c80.5-20.054,172.8-19.239,234.7,2.399c10.1,3.531,69.3,25.079,68,59.755
	c-0.9,22.408-27.2,54.278-85.3,60.66C15.9,593.803-66.8,551.839-55,530.11c11.9-22.001,127.3-35.944,210.7-17.519
	c54.2,11.996,94,37.483,98.7,65.504c6.8,40.923-64.8,67.224-98.7,79.673C125.2,668.95,60.9,692.581-7,682.531
	c-37.2-5.523-78.9-21.639-76-37.438c4.4-24.309,113.6-42.462,200-41.647c96.2,0.905,166.2,25.396,204,38.614
	c51.9,18.153,85.1,37.935,104.7,51.607"/>
<path id="path2" class="st0" d="M153.8,694.255c-15.4-6.836-84.5-37.619-65.2-67.134c1.9-2.942,9-13.671,29.3-18.153
	c49.2-10.865,146.2,21.231,139.8,42.96c-5.9,19.964-100.4,35.038-175.6,26.573c-11.6-1.313-94.6-11.317-116.3-46.401
	c-17.2-27.75,12.8-57.084,56.3-70.801c73.8-23.223,187.1-1.539,239.9,13.716c56.6,16.342,77.9,35.129,99.5,31.19
	c24.2-4.436,33-34.495,5.4-48.438c-47.1-23.812-201.6-1.403-206.9,20.19c-6,24.807,188.4,34.993,208.2,83.929"/>
<path id="path3" class="st0" d="M140.7,685.066c17.7-0.136,20.3,19.149,55.4,26.98c48,10.774,133.4-5.115,141.7-24.762
	c9.7-22.951-91-39.294-81.2-67.858c5.7-16.614,42.8-19.783,39.4-31.824c-5-17.745-92.8-37.981-156.1-23.766
	c-45.9,10.276-67.3,35.989-62.5,55.636c5.2,21.276,40.1,30.511,29.8,38.479c-11.7,8.963-72.5,9.869-98.5-5.478
	C-17,637.216,2,612.273,33.8,603.219c45.5-12.947,109.5,8.646,124.2,13.581c63,21.231,113.2,65.912,75.2,90.991
	c-24.2,15.98-74.3,17.519-93.8,18.153C84,727.619,23,716.528-12.3,693.441c-33.9-22.137-51.5-60.208-11.3-75.735
	c40.5-15.663,123.9-2.309,166.8,18.379c74.7,36.079,51.2,106.246-5.1,116.794"/>
<path id="path4" class="st0" d="M254.1,728.343c-35.8-31.19-24.2-62.517,14.1-74.286c24.5-7.515,65.4-8.737,88.4,0.679
	c30.2,12.404,23.7,40.923-5.1,53.508c-48.8,21.276-184.3,6.519-253-31.326c-73.4-40.471-46-93.707-36.4-108.827
	c37.4-58.623,157-93.888,170.2-86.645C476.3,615.216-15.5,721.779,7,725.355"/>
<path id="path5" class="st0" d="M560,518.793c-18-9.371-38.2-13.852-49.5-16.252c-15.1-3.169-307.1-62.607-442.4,2.988
	c-5.1,2.445-69.9,34.767-48,66.319c27.3,39.158,176.3,59.755,236.4,35.898c42-16.704,47.2-57.99,9.1-71.344
	c-15.2-5.342-37.1-6.111-54-3.667c-32.8,4.799-55.7,23.314-52,37.709c8.5,33.363,200.8,25.124,222.7,55.998
	c11.9,16.704-24.3,45.314-193.2,97.057"/>
<path id="path6" class="st0" d="M-61.7,506.57c22.9,11.861,75.1,12.358,112.7,5.432c62.9-11.589,60-39.339,110.7-44.952
	c45.2-5.025,107.5,10.412,117.3,30.466c13.2,27.026-69.2,61.294-133.3,54.64c-30.3-3.124-61.8-15.935-63.3-31.1
	c-2.1-21.005,54.3-39.429,101.3-37.709c56.2,2.037,88.3,32.367,92,54.006c5.8,34.404-55.8,72.612-121.3,71.842
	c-53-0.634-107.4-26.754-97.3-41.059c8.7-12.313,67.6-19.104,104.7-10.276c49.2,11.77,52.6,49.434,32,73.653
	c-25.1,29.561-91.7,45.857-150,47.985c-12.2,0.453-56.4,1.766-100-10.276c-49-13.535-93.6-43.685-79.3-51.924
	c31.6-18.198,371.2,61.294,353.3,91.443c-7.2,12.177-75.1,19.737-278.7,12.992"/>
<path id="path7" class="st0" d="M-15.7,797.514c104.9-30.33,120.1-45.812,114.7-54.323c-4.8-7.469-23.8-7.152-52-18.108
	c-41.3-16.025-73.5-45.043-55.3-60.389c8.9-7.515,29.3-11.181,112-14.169c149.4-5.478,208.3,1.766,218-8.148
	c3.7-3.803,1.5-11.272-123.3-66.093c-82.7-36.306-102.6-42.191-100.7-53.734c4.2-24.355,100.9-42.96,170-47.397
	c22.2-1.403,47.2-3.033,76.7,0.589c91.5,11.272,165.4,65.459,138.7,88.41c-44.5,38.207-329.8-42.236-530.7,19.602
	c-112.3,34.631-177.3,107.152-130.7,139.791C-125,760.891,85,753.558,343,703.943"/>
<path id="path8" class="st0" d="M-24.3,747.99c0.1-6.971,1.2-16.84,6-28.384c8.1-19.42,21-50.068,57.3-54.911
	c37.9-5.07,94.5,18.832,119.3,42.87c26.6,25.803,9.5,44.907,36,51.29c32.1,7.786,86.4-13.309,93.3-15.98
	c39.8-15.437,93.9-49.796,67.3-86.328c-26.4-36.306-113-47.759-135.3-50.701c-57.2-7.56-105.6-2.716-151.3,2.128
	c-140.2,14.803-169.9,46.899-242,39.248c-50.5-5.387-92-27.116-100-48.891c-12.2-33.454,57.4-60.525,92.7-74.241
	c65.3-25.396,134.7-31.055,183.3-34.993c57.5-4.708,123.4-10.095,167.4,6.609c28.4,10.774,33.3,25.26,41.3,38.026
	c16.3,25.894,55.9,61.566,162,100.497"/>
<path id="path9" class="st0" d="M-43,521.645c93.8-33.363,215.3-32.322,282.7-3.621c59.5,25.351,61.8,65.912,43.3,92.666
	c-37.9,54.73-176.4,70.937-238,78.18c-55.5,6.473-163.6,19.149-209.3-5.161c-49.6-26.347-8-86.554,76-115.572
	c87.8-30.33,209.7-22.318,288,0.317c70.5,20.371,119.9,56.767,121.3,94.748c0.4,11.453,1.8,48.528-57.3,65.776
	c-30.5,8.918-78,12.811-114.7,3.938c-60.9-14.758-38.3-51.652-94-77.274c-62.6-28.791-179-33.273-196.7-19.601
	c-13.4,10.367,21.4,37.981,210,109.868"/>
<path id="path10" class="st0" d="M-33.7,809.872c170.6-28.384,210-46.174,206.7-57.627c-5.2-18.062-115-16.523-138.7-47.397
	c-15.7-20.552,11-49.841,54-59.755c60.2-13.898,126,16.252,156,3.622c25.8-10.819,11.4-47.261-35.3-63.965
	c-54-19.33-126-3.214-144.7-19.013c-12.2-10.321,4.2-29.38,32.7-38.614c59.2-19.194,143.4,13.037,188.7-5.749
	c19.8-8.194,24.4-22.951,16-32.594c-19.6-22.634-124.9-27.342-194.7-17.202c-117.2,17.021-215.2,87.731-184,140.334
	c52.1,87.822,443.8,90.493,444,140.017c0.1,16.342-42.4,37.302-202.7,61.883"/>
<path id="path11" class="st0" d="M-176.519,780.697c13.9,0.362,104,2.037,152-26.573c20-11.906,25-24.536,27.3-30.783
	c13.4-35.898-35.1-52.467-31.3-82.073c1.7-13.717,15.2-33.997,75.3-57.944"/>
<path id="path12" class="st0" d="M325.119,774.432c-198.3-10.412-247.1-24.762-250-36.804c-3.4-14.033,55.6-24.717,49.3-42.87
	c-6.9-19.873-83.7-24.219-82-35.627c2.5-16.478,164.7-16.976,170.7-34.993c2.4-7.152-19.5-17.836-106-34.404"/>
<path id="path13" class="st0" d="M-184.869,510.27c30.6-2.807,100.2-7.017,174,8.148c28.1,5.749,49.9,12.947,66,19.33"/>
<path id="path14" class="st0" d="M118.632,403.278c82.7,31.009,104.8,64.463,97.4,72.747c-11.6,12.856-70.2,8.873-84,25.351
	c-8.5,10.186,1.9,26.075,24.7,29.289c21.3,3.033,51.5-5.342,52-14.169c0.5-7.56-20.7-13.807-36.7-15.708
	c-28.8-3.395-53.3,13.943-78,29.561"/>
<path id="path15" class="st0" d="M-119.7,420.876C-71.9,414.131,5.4,406.209,99,410.6c56.3,2.626,174.7,8.148,189.3,33.499
	c14.2,24.581-72.4,62.471-162.7,68.492c-12.5,0.86-88.5,5.93-142.7-18.108c-5.7-2.535-53.2-23.585-40-38.931
	c24.8-28.836,262.8-35.853,314,8.465c21.6,18.696,3,40.652-16,63.06c-8.3,9.823-66.8,75.78-202,94.16
	c-108.6,14.758-184-12.449-206.7,2.716c-24.5,16.387,36.8,66.002,130,82.978c103.2,18.787,203.9-10.05,239.3-20.235
	c31.2-8.918,68.5-19.647,76-38.026c2.1-5.115,7.4-24.445-62-57.039c-101.9-47.849-244-67.496-343.3-76.052"/>
<path id="path16" class="st0" d="M-120.3,417.254C26.9,394.439,146.1,402.27,175,428.119c21.4,19.194-7.8,47.578-36,63.965
	c-87.5,50.928-247.6,34.676-258.7,59.438c-9.3,20.914,91.1,63.014,193.4,53.734c57-5.206,108.1-25.758,121.3-49.796
	c15-27.252-27.2-43.322-11.3-51.607c37.9-19.783,350.3,34.631,350,107.152c-0.1,20.281-24.6,45.812-68,56.45
	c-150.4,36.849-489.3-114.349-704-221.23"/>
<path id="path17" class="st0" d="M-64.3,708.47c116.9-4.663,148.8-17.7,156.7-28.655c8.4-11.679-12.5-18.651-40.7-56.722
	c-22.9-31.055-37.9-52.15-16-65.776c20.5-12.766,61.7-11.634,63.3-20.235c1.2-6.292-19.8-12.268-37.3-16.297"/>
<path id="path-right" class="st0" d="M140.3,740.475c30.1,2.852,48,0.136,58.7-2.716c60.5-16.297,62.3-84.97-4-129.786
	c-41.9-28.338-87.3-31.009-88-46.491c-0.7-16.523,49.9-39.112,260-67.315"/>
<path id="path-left" class="st0" d="M-73.7,709.375c17-43.549,48.3-62.2,83.3-67.904c29.3-4.753,48.1,1.72,66-5.432
	c30.8-12.313-9.1-38.117,11.3-77.546c3.6-6.926,12.7-23.811,41.3-39.837c39.4-22.046,106.7-37.437,179.5-34.721
	c73.4,2.716,120.1,22.634,133.3,28.655"/>
<path id="path-middle" class="st0" d="M85,746.813c-15.3-13.988-28.6-32.594-13.3-49.207c17.1-18.651,55.6-18.832,66.7-36.532
	c11.3-18.062-23.3-26.754-30.7-54.006c-5.8-21.503,8.3-43.911,30-57.944c44-28.429,144.2-38.705,248-25.668"/>
</svg>
