<?xml version="1.0" encoding="utf-8"?>
<!-- Generator: Adobe Illustrator 17.0.0, SVG Export Plug-In . SVG Version: 6.00 Build 0)  -->
<!DOCTYPE svg PUBLIC "-//W3C//DTD SVG 1.1//EN" "http://www.w3.org/Graphics/SVG/1.1/DTD/svg11.dtd">
<svg version="1.1" id="Layer_1" xmlns="http://www.w3.org/2000/svg" xmlns:xlink="http://www.w3.org/1999/xlink" x="0px" y="0px"
	 width="728px" height="90px" viewBox="0 0 728 90" style="enable-background:new 0 0 728 90;" xml:space="preserve">
<style type="text/css">
	.st0{fill:none;stroke:#000000;stroke-miterlimit:10;}
</style>
<path id="path1" class="st0" d="M214.142,164.791c-44.3-40.913-42.5-87.824,5.3-119.284c7.8-5.133,55.4-35.221,132-34.56
	c49.5,0.457,119.9,13.824,134,43.353c18.7,39.236-74,81.267-122,75.27c-48.6-6.048-79.4-64.699-38.7-107.086
	c26.5-27.547,82.8-47.774,144.7-50.163c90.4-3.456,148.5,32.934,176,50.163c24.7,15.501,76.9,48.181,54.7,82.69
	c-12.2,18.906-47.8,40.1-82.7,38.626c-53.7-2.236-93.8-57.736-92-101.648c2-48.893,56.1-84.469,85.3-103.681
	c40.1-26.378,83.8-43.251,114-53.213"/>
<path id="path2" class="st0" d="M726.042,23.45c-15.1,7.827-83.1,42.946-148.3,33.137c-6.5-0.966-30.2-4.574-40.1-14.891
	c-24-25.005,46.9-74.304,94.9-71.052c44.1,2.999,77.4,51.027,58.7,89.247c-2.9,5.896-25,48.079-102.5,59.108
	c-61.3,8.742-126.1-6.505-156.4-28.614c-51.3-37.508-3.4-95.091,30.3-121.926c36.1-28.766,77.6-39.592,68.9-50.57
	c-9.8-12.299-76.2-16.772-107-2.744c-52.6,23.938-3.1,102.461,44.6,105.154c54.8,3.049,77.3-95.752,185.4-105.815"/>
<path id="path3" class="st0" d="M705.742,30.108c-0.3-8.996,42.3-10.317,59.6-28.156c23.8-24.395-11.3-67.799-54.7-72.017
	c-50.7-4.93-86.8,46.25-149.9,41.269c-36.7-2.897-43.7-21.753-70.3-20.025c-39.2,2.541-83.9,47.165-52.5,79.336
	c22.7,23.328,79.5,34.204,122.9,31.765c47-2.643,67.4-20.38,85-15.146c19.8,5.946,21.8,36.847-12.1,50.061
	c-33.7,13.062-88.8,3.405-108.8-12.757c-28.6-23.125,19.1-55.652,30-63.123c46.9-32.019,145.6-57.533,201-38.22
	c35.3,12.299,38.7,37.762,40.1,47.673c3.7,28.156-20.8,59.159-71.8,77.1c-48.9,17.229-133,26.174-167.3,5.743
	c-34.6-20.584-5.1-62.971,40.6-84.774c79.7-37.965,234.7-26.022,258,2.592"/>
<path id="path4" class="st0" d="M801.342-27.526c-68.9,18.195-138.1,12.299-164.1-7.166c-16.6-12.452-19.3-33.239,1.5-44.928
	c27.4-15.349,90.4-12.045,118.2,2.592c47,24.802,14.4,93.668-69.2,128.584c-89.4,37.305-207,23.379-240.4,18.5
	c-129.5-19.008-207.4-79.793-191.4-86.502c295.5-124.01,530.9,125.941,538.8,114.506"/>
<path id="path5" class="st0" d="M338.442-182.996c-20.7,9.148-30.6,19.415-35.9,25.158c-7,7.674-138.3,156.08,6.6,224.845
	c5.4,2.592,76.8,35.526,146.5,24.395c86.5-13.875,132-89.602,79.3-120.148c-36.9-21.346-128.1-23.989-157.6-4.625
	c-11.8,7.725-13.5,18.856-8.1,27.445c10.6,16.67,51.5,28.309,83.3,26.428c73.7-4.32,55.5-102.054,123.7-113.185
	c36.9-6.048,100.1,12.35,214.4,98.192"/>
<path id="path6" class="st0" d="M311.442,132.976c26.2-11.639,27.3-38.169,12-57.278c-25.6-31.968-86.9-30.494-99.3-56.262
	c-11.1-22.972,23-54.636,67.3-59.616c59.7-6.709,135.4,35.17,120.7,67.748c-6.9,15.4-35.2,31.409-68.7,32.171
	c-46.4,1.067-87.1-27.597-83.3-51.485c4.5-28.563,71.5-44.877,119.3-46.758c76-2.948,160.4,28.36,158.7,61.649
	c-1.4,26.937-59.1,54.585-90.7,49.452c-27.2-4.422-42.2-34.357-22.7-53.213c26-25.005,109.2-26.733,162.7-16.264
	c65.3,12.757,101.3,46.605,106,76.236c1,6.201,3.9,28.665-22.7,50.824c-29.9,24.904-96.5,47.571-114.7,40.303
	c-40.2-16.06,135.4-188.658,202-179.561c26.9,3.659,43.6,38.169,28.7,141.646"/>
<path id="path7" class="st0" d="M954.142,109.597c-67-53.314-101.2-61.039-120-58.295c-16.5,2.44-15.8,12.096-40,26.428
	c-35.4,20.99-99.5,37.356-133.4,28.106c-16.6-4.523-24.7-14.891-31.3-56.923c-12.1-75.931,3.9-105.866-18-110.796
	c-8.4-1.88-24.9-0.762-146,62.666c-80.2,42.031-93.2,52.145-118.7,51.18c-53.8-2.135-94.9-51.281-104.7-86.4
	c-3.1-11.283-6.7-23.989,1.3-38.982c24.9-46.504,144.6-84.063,195.3-70.493c84.4,22.617-93.3,167.617,43.3,269.722
	c76.5,57.075,236.7,90.111,308.8,66.427c82.5-27.089,66.3-133.819-43.3-264.945"/>
<path id="path8" class="st0" d="M844.742,113.968c-15.4-0.051-37.2-0.61-62.7-3.049c-42.9-4.117-110.6-10.673-121.3-29.122
	c-11.2-19.262,41.6-48.029,94.7-60.633c57-13.519,99.2-4.828,113.3-18.297c17.2-16.314-29.4-43.912-35.3-47.419
	c-34.1-20.228-110-47.724-190.7-34.204c-80.2,13.417-105.5,57.431-112,68.765c-16.7,29.071-6,53.67,4.7,76.896
	c32.7,71.255,103.6,86.35,86.7,122.994c-11.9,25.666-59.9,46.758-108,50.824c-73.9,6.201-133.7-29.173-164-47.114
	c-56.1-33.188-68.6-68.46-77.3-93.16c-10.4-29.224-22.3-62.717,14.6-85.079c23.8-14.434,55.8-16.924,84-20.99
	c57.2-8.284,136-28.411,222-82.335"/>
<path id="path9" class="st0" d="M344.742,123.472c-73.7-47.673-71.4-109.424-8-143.679c56-30.24,145.6-31.409,204.7-22.007
	c120.9,19.262,156.7,89.653,172.7,120.961c14.3,28.207,42.3,83.148-11.4,106.374c-58.2,25.209-191.2,4.066-255.3-38.626
	c-67-44.623-49.3-106.578,0.7-146.373c45-35.831,125.4-60.938,209.3-61.649c25.3-0.203,107.2-0.915,145.3,29.122
	c19.7,15.501,28.3,39.643,8.7,58.295c-32.6,30.952-114.1,19.466-170.7,47.774c-63.6,31.816-73.5,90.975-43.3,99.97
	c22.9,6.81,83.9-10.876,242.7-106.73"/>
<path id="path10" class="st0" d="M981.442,118.745c-62.7-86.705-102-106.73-127.3-105.053c-39.9,2.643-36.5,58.447-104.7,70.493
	c-45.4,7.979-110.1-5.591-132-27.445c-30.7-30.596,35.9-64.038,8-79.285c-23.9-13.113-104.4-5.794-141.3,17.941
	c-42.7,27.445-7.1,64.038-42,73.542c-22.8,6.201-64.9-2.135-85.3-16.619c-42.4-30.088,28.8-72.881-12.7-95.905
	c-18.1-10.063-50.7-12.401-72-8.132c-50,9.961-60.4,63.479-38,98.954c37.6,59.566,193.8,109.373,310,93.516
	c194-26.479,199.9-225.556,309.3-225.658c36.1-0.051,82.4,21.549,136.7,103.02"/>
<path id="path11" class="st0" d="M977.474,163.975c0.8-7.065,4.5-52.857-58.7-77.252c-26.3-10.165-54.2-12.706-68-13.875
	c-79.3-6.81-144.608,0.399-206.608-12.143c-27.333-8.075-49.792,20.326-102.692-10.219"/>
<path id="path12" class="st0" d="M956.635-93.885c-23,100.784-54.7,125.586-81.3,127.06c-31,1.728-54.6-28.258-94.7-25.056
	c-43.9,3.507-53.5,42.54-78.7,41.676c-36.4-1.271-42.302-21.026-82.102-24.075c-15.8-1.22-34.598-52.771-71.198-8.808"/>
<path id="path13" class="st0" d="M306.645,116.065C302.25,91.469,310.833,7.5,399.033,39.274
	c35.801,13.356,78.155,5.735,114.111,13.356"/>
<path id="path14" class="st0" d="M244.289-52.97C295.175,12.612,361.705,47.135,380.412,48.736
	c29.051,2.422,30.829-31.899,67.878-28.218c22.896,2.291,54.512,18.636,57.321,33.114c2.687,13.545-20.161,24.19-38.814,18.498
	c-15.987-4.836-25.452-20.498-26.677-30.419c-2.149-17.838,38.564-19.352,75.693-22.136"/>
<path id="path15" class="st0" d="M122.142,162.454c-14.9-24.294-32.4-63.581-22.7-111.152c5.8-28.614,18-88.789,74-96.209
	c54.3-7.217,138,36.796,151.3,82.69c1.9,6.353,13.1,44.979-40,72.526c-5.6,2.897-52.1,27.038-86,20.33
	c-63.7-12.604-79.2-133.565,18.7-159.587c41.3-10.978,89.8-1.525,139.3,8.132c21.7,4.218,167.4,33.95,208,102.664
	c32.6,55.195-27.5,93.516,6,105.053c36.2,12.452,145.8-18.703,183.3-66.071c41.5-52.45-22.2-103.63-44.7-121.621
	c-19.7-15.857-43.4-34.814-84-38.626c-11.3-1.067-54-3.761-126,31.511c-105.7,51.789-149.1,124.01-168,174.478"/>
<path id="path16" class="st0" d="M114.142,162.758c-50.4-74.813-33.1-135.395,24-150.083c42.4-10.876,105.1,3.964,141.3,18.297
	c112.5,44.471,76.6,125.84,131.3,131.481c46.2,4.727,139.2-46.301,118.7-98.293c-11.5-28.97-56.9-54.941-110-61.649
	c-60.2-7.624-95.7,13.824-114,5.743c-43.7-19.262,76.5-178.036,236.7-177.883c44.8,0.051,101.2,12.503,124.7,34.56
	c81.4,76.439-252.6,248.681-488.7,357.8"/>
<path id="path17" class="st0" d="M757.442,134.297c-10.3-59.413-39.1-75.626-63.3-79.641c-25.8-4.269-41.2,6.353-125.3,20.685
	c-68.6,11.639-115.2,19.262-145.3,8.132c-28.2-10.419-25.7-31.358-44.7-32.171c-13.9-0.61-27.1,10.063-36,18.957"/>
<path id="path-right" class="st0" d="M828.142,30.312c6.3-15.298,0.3-24.395-6-29.834c-36-30.748-187.7-31.663-286.7,2.033
	c-62.6,21.295-68.5,44.369-102.7,44.725c-36.5,0.356-86.4-25.361-148.7-132.142"/>
<path id="path-left" class="st0" d="M759.442,139.075c-96.2-8.64-137.4-24.548-150-42.336c-10.5-14.891,3.8-24.446-12-33.544
	c-27.2-15.654-84.2,4.625-171.3-5.743c-15.3-1.83-52.6-6.455-88-20.99c-48.7-20.025-82.7-54.229-76.7-91.229
	c6-37.305,50-61.039,63.3-67.748"/>
<path id="path-middle" class="st0" d="M842.142,58.417c-30.9,7.776-72,14.536-108.7,6.76c-41.2-8.691-41.6-28.258-80.7-33.899
	c-39.9-5.743-59.1,11.842-119.3,15.603c-47.5,2.948-97-4.218-128-15.247c-62.8-22.362-85.5-73.288-56.7-126.043"/>
</svg>
