<svg id="Layer_1" xmlns="http://www.w3.org/2000/svg" viewBox="0 0 300 600"><style>.st0{fill:none;stroke:#fff;stroke-width:2.512}.st1{fill:#fff}.st2{fill:none}</style><circle class="st0" cx="224.71" cy="433.03" r="21.55"/><path class="st1" d="M234.49 431.63h-7.82v-7.81c0-1.09-.88-1.97-1.97-1.97-1.09 0-1.97.88-1.97 1.97v7.81h-7.81c-1.09 0-1.97.88-1.97 1.97 0 1.09.88 1.97 1.97 1.97h7.81v7.82c0 1.09.88 1.97 1.97 1.97 1.09 0 1.97-.88 1.97-1.97v-7.82h7.82c1.09 0 1.97-.88 1.97-1.97 0-1.09-.88-1.97-1.97-1.97"/><path class="st2" d="M212.96 421.85h23.5v23.5h-23.5z"/></svg>