<svg id="Layer_1" xmlns="http://www.w3.org/2000/svg" viewBox="0 0 300 600"><style>.st0{fill:#f8df1f}</style><path class="st0" d="M39.97 311.01v4.16h5.97v4.29h-5.97v8.42h-5.02v-21.06H47.2v4.19h-7.23zM51.09 310.88c-.86 0-2.61-1.75-2.61-2.61 0-.86 1.75-2.57 2.61-2.57s2.61 1.72 2.61 2.57c0 .85-1.75 2.61-2.61 2.61zm-2.44 16.99v-14.95h4.88v14.95h-4.88zM65.75 327.87v-9.18c0-1.09-.73-2.05-2.21-2.05-1.45 0-2.38.92-2.38 2.11v9.11h-4.85v-14.95h4.46v2.01h.03c.59-1.58 2.15-2.48 4.55-2.48 3.27 0 5.25 1.85 5.25 5.02v10.4h-4.85zM75.81 310.88c-.86 0-2.61-1.75-2.61-2.61 0-.86 1.75-2.57 2.61-2.57s2.61 1.72 2.61 2.57c0 .85-1.75 2.61-2.61 2.61zm-2.44 16.99v-14.95h4.88v14.95h-4.88zM85.81 328.2c-2.05 0-3.53-.43-4.75-1.06l-.43-4.29c1.32.92 3.04 1.62 4.69 1.62.89 0 1.45-.46 1.45-1.02 0-.63-.5-.89-1.35-1.16-2.87-.83-4.59-2.28-4.59-4.88 0-2.94 2.38-4.82 5.61-4.82 1.85 0 3.66.5 4.42.89l-.83 3.56c-.73-.4-1.91-.83-3.1-.83-.79 0-1.32.36-1.32.96 0 .56.4.86 1.32 1.09 3.37.89 4.75 2.57 4.75 5.08.01 2.55-1.84 4.86-5.87 4.86zM103.23 327.87v-9.18c0-1.09-.76-2.05-2.24-2.05-1.45 0-2.34.92-2.34 2.11v9.11H93.8v-23.5h4.79v9.93h.03c.76-1.15 2.15-1.85 4.22-1.85 3.3 0 5.25 1.85 5.25 5.02v10.4h-4.86zM129.24 317.74c-.99-.63-2.01-.96-3.2-.96-2.11 0-3.8 1.52-3.8 3.7 0 2.15 1.68 3.7 3.89 3.7 1.25 0 2.21-.26 3.27-.83l-.43 4.12c-.99.46-2.28.73-3.66.73-4.19 0-8.09-2.97-8.09-7.79 0-4.88 3.93-7.82 7.99-7.82 1.98 0 3.6.4 4.92 1.12l-.89 4.03zM142.5 328.53c-.89-.2-1.91-.89-2.31-1.98-.66 1.22-2.08 1.82-3.89 1.82-2.64 0-4.98-1.85-4.98-4.95 0-2.74 2.15-4.59 5.12-4.88l2.97-.3v-.5c0-.89-.73-1.49-2.34-1.49-1.45 0-3.07.46-4.16 1.16l-.86-3.66c1.22-.79 3.27-1.32 5.25-1.32 3.96 0 6.77 1.82 6.77 5.41v4.88c0 1.75.66 2.67 1.82 3.1l-3.39 2.71zm-3.1-7.19l-1.82.17c-1.25.1-1.81.99-1.81 1.88 0 .79.59 1.45 1.52 1.45 1.16 0 2.11-.89 2.11-2.18v-1.32zM152.17 328.47c-3.07-.13-5.12-1.72-5.12-5.31v-18.78h4.79v18.19c0 1.22.69 1.88 2.01 1.98l-1.68 3.92zM166.53 317.74c-.99-.63-2.01-.96-3.2-.96-2.11 0-3.79 1.52-3.79 3.7 0 2.15 1.68 3.7 3.89 3.7 1.25 0 2.21-.26 3.27-.83l-.43 4.12c-.99.46-2.28.73-3.66.73-4.19 0-8.09-2.97-8.09-7.79 0-4.88 3.93-7.82 7.99-7.82 1.98 0 3.6.4 4.92 1.12l-.9 4.03zM179.17 327.87v-2.05h-.03c-.59 1.58-2.18 2.47-4.59 2.47-3.27 0-5.25-1.81-5.25-4.98v-10.4h4.85v9.18c0 1.09.76 2.05 2.24 2.05 1.45 0 2.34-.96 2.34-2.15v-9.08h4.85v14.95h-4.41zM191.47 328.47c-3.07-.13-5.12-1.72-5.12-5.31v-18.78h4.79v18.19c0 1.22.69 1.88 2.01 1.98l-1.68 3.92zM205.37 328.53c-.89-.2-1.91-.89-2.31-1.98-.66 1.22-2.08 1.82-3.89 1.82-2.64 0-4.98-1.85-4.98-4.95 0-2.74 2.15-4.59 5.12-4.88l2.97-.3v-.5c0-.89-.73-1.49-2.34-1.49-1.45 0-3.07.46-4.16 1.16l-.86-3.66c1.22-.79 3.27-1.32 5.25-1.32 3.96 0 6.77 1.82 6.77 5.41v4.88c0 1.75.66 2.67 1.82 3.1l-3.39 2.71zm-3.1-7.19l-1.82.17c-1.25.1-1.82.99-1.82 1.88 0 .79.59 1.45 1.52 1.45 1.16 0 2.11-.89 2.11-2.18v-1.32zM219.62 316.88h-3.89v5.54c0 1.29.69 1.81 1.98 1.81.56 0 .89-.03 1.25-.2l-.43 3.66c-.46.23-1.29.4-2.24.4-3.37 0-5.38-1.78-5.38-4.75v-6.47h-2.51v-3.96h2.51v-3.2l4.82-1.75v4.95h4.82l-.93 3.97zM224.34 310.88c-.86 0-2.61-1.75-2.61-2.61 0-.86 1.75-2.57 2.61-2.57s2.61 1.72 2.61 2.57c0 .85-1.75 2.61-2.61 2.61zm-2.44 16.99v-14.95h4.88v14.95h-4.88zM238.99 327.87v-9.18c0-1.09-.73-2.05-2.21-2.05-1.45 0-2.38.92-2.38 2.11v9.11h-4.85v-14.95h4.46v2.01h.03c.59-1.58 2.15-2.48 4.55-2.48 3.27 0 5.25 1.85 5.25 5.02v10.4h-4.85zM252.82 335.5c-4.36 0-7.26-2.48-7.26-5.61 0-2.28 1.52-3.63 3.07-4.03l-1.91-1.91c.13-.96.96-1.78 1.81-2.15a4.7 4.7 0 0 1-2.18-3.99c0-3.17 2.28-5.38 6.17-5.38.89 0 1.58.13 2.21.3.66.17 1.39.26 2.15.26.83 0 1.68-.2 2.34-.5l.89 3.7c-.46.26-1.19.5-1.85.46.17.3.36.99.36 1.52 0 2.51-1.98 4.62-4.88 4.82-.59.03-.99.17-.99.56 0 .17.13.36.4.46l2.31.83c2.94 1.06 4.52 2.54 4.52 5.28 0 3.07-2.8 5.38-7.16 5.38zm1.02-7.03l-1.78-.5c-1.16.03-2.01.86-2.01 1.95 0 1.02.89 1.88 2.64 1.88 1.72 0 2.64-.79 2.64-1.65 0-.69-.53-1.42-1.49-1.68zm-1.32-12.51c-1.09 0-1.91.83-1.91 1.78 0 .99.83 1.78 1.91 1.78 1.06 0 1.91-.79 1.91-1.78.01-.96-.78-1.78-1.91-1.78zM263.31 328.33c-.89 0-2.74-1.85-2.74-2.74 0-.86 1.85-2.71 2.74-2.71.89 0 2.74 1.85 2.74 2.71 0 .9-1.84 2.74-2.74 2.74z"/></svg>