<svg id="Layer_1" xmlns="http://www.w3.org/2000/svg" viewBox="0 0 300 600"><style>.st0{fill:#f8df1f}</style><path class="st0" d="M106.3 173.04h-3.27l-3.07-9.31c-.46-1.39-.89-2.84-1.39-4.69h-.07a57.8 57.8 0 0 1-1.39 4.69l-3.07 9.31h-3.2l-7.03-21.19h4.98l2.74 8.52c.4 1.29.83 2.64 1.16 4.22h.07c.3-1.58.69-2.9 1.12-4.22l2.77-8.52h4.39l2.74 8.48c.4 1.19.79 2.71 1.12 4.26h.07c.26-1.52.73-3.04 1.12-4.22l2.81-8.52h4.42l-7.02 21.19zM124.25 172.9v-9.18c0-1.09-.76-2.05-2.24-2.05-1.45 0-2.34.92-2.34 2.11v9.11h-4.85v-23.5h4.79v9.93h.03c.76-1.16 2.15-1.85 4.22-1.85 3.3 0 5.25 1.85 5.25 5.02v10.4h-4.86zM142.3 173.56c-.89-.2-1.91-.89-2.31-1.98-.66 1.22-2.08 1.82-3.89 1.82-2.64 0-4.98-1.85-4.98-4.95 0-2.74 2.15-4.59 5.12-4.88l2.97-.3v-.5c0-.89-.73-1.49-2.34-1.49-1.45 0-3.07.46-4.16 1.16l-.86-3.66c1.22-.79 3.27-1.32 5.25-1.32 3.96 0 6.77 1.82 6.77 5.41v4.88c0 1.75.66 2.67 1.82 3.1l-3.39 2.71zm-3.1-7.19l-1.82.17c-1.25.1-1.81.99-1.81 1.88 0 .79.59 1.45 1.52 1.45 1.16 0 2.11-.89 2.11-2.18v-1.32zM156.56 161.91h-3.89v5.54c0 1.29.69 1.82 1.98 1.82.56 0 .89-.03 1.25-.2l-.43 3.66c-.46.23-1.29.4-2.24.4-3.37 0-5.38-1.78-5.38-4.75v-6.47h-2.51v-3.96h2.51v-3.2l4.82-1.75v4.95h4.82l-.93 3.96zM176.52 173.56c-.89-.2-1.91-.89-2.31-1.98-.66 1.22-2.08 1.82-3.89 1.82-2.64 0-4.98-1.85-4.98-4.95 0-2.74 2.15-4.59 5.12-4.88l2.97-.3v-.5c0-.89-.73-1.49-2.34-1.49-1.45 0-3.07.46-4.16 1.16l-.86-3.66c1.22-.79 3.27-1.32 5.25-1.32 3.96 0 6.77 1.82 6.77 5.41v4.88c0 1.75.66 2.67 1.82 3.1l-3.39 2.71zm-3.1-7.19l-1.82.17c-1.25.1-1.82.99-1.82 1.88 0 .79.59 1.45 1.52 1.45 1.16 0 2.11-.89 2.11-2.18v-1.32zM187.35 180.53c-4.36 0-7.26-2.48-7.26-5.61 0-2.28 1.52-3.63 3.07-4.03l-1.91-1.91c.13-.96.96-1.78 1.81-2.15a4.7 4.7 0 0 1-2.18-3.99c0-3.17 2.28-5.38 6.17-5.38.89 0 1.58.13 2.21.3.66.17 1.39.26 2.15.26.83 0 1.68-.2 2.34-.5l.89 3.7c-.46.26-1.19.5-1.85.46.16.3.36.99.36 1.52 0 2.51-1.98 4.62-4.88 4.82-.59.03-.99.17-.99.56 0 .17.13.36.4.46l2.31.82c2.94 1.06 4.52 2.54 4.52 5.28 0 3.08-2.81 5.39-7.16 5.39zm1.02-7.03l-1.78-.5c-1.16.03-2.01.86-2.01 1.95 0 1.02.89 1.88 2.64 1.88 1.72 0 2.64-.79 2.64-1.65 0-.69-.53-1.42-1.49-1.68zm-1.32-12.51c-1.09 0-1.91.83-1.91 1.78 0 .99.83 1.78 1.91 1.78 1.06 0 1.91-.79 1.91-1.78 0-.96-.79-1.78-1.91-1.78zM209.69 164.59l-2.14 2.18h-7.33c.23 1.22 1.88 2.61 4.42 2.61 1.55 0 3.14-.46 4.13-1.12l-.46 4.16c-1.12.59-2.84.99-4.75.99-4.55 0-8.22-3.17-8.22-8.05 0-4.82 3.5-7.89 7.79-7.89 4.16 0 6.7 2.87 6.7 5.97-.01.35-.08.85-.14 1.15zm-6.57-3.5c-1.42 0-2.61 1.09-2.9 2.44h5.05c0-.1.03-.2.03-.33 0-1.02-.89-2.11-2.18-2.11z"/><g><path class="st0" d="M50.96 204.02h-3.33l-2.01-5.94c-.3-.92-.59-1.98-.89-3.1h-.07c-.23 1.12-.53 2.21-.83 3.07l-2.01 5.97h-3.17l-5.21-15.08h4.42l1.85 5.68c.26.86.56 1.91.73 2.87h.07c.17-.92.43-2.01.73-2.87l1.88-5.68h3.66l1.88 5.64c.3.92.5 1.95.69 2.9h.07c.2-.96.46-2.01.76-2.9l1.88-5.64h4.13l-5.23 15.08zM60 186.89c-.86 0-2.61-1.75-2.61-2.61 0-.86 1.75-2.57 2.61-2.57s2.61 1.72 2.61 2.57c0 .86-1.75 2.61-2.61 2.61zm-2.44 17v-14.95h4.88v14.95h-4.88zM70.36 204.49c-3.07-.13-5.12-1.72-5.12-5.31V180.4h4.79v18.19c0 1.22.69 1.88 2.01 1.98l-1.68 3.92zM78.65 204.49c-3.07-.13-5.12-1.72-5.12-5.31V180.4h4.79v18.19c0 1.22.69 1.88 2.01 1.98l-1.68 3.92zM98.28 202.41c-2.28 6.01-4.65 8.19-7.46 9.27l-2.97-2.97c2.41-.92 4.26-2.67 5.48-5.84l-5.38-13.93h4.69l2.18 5.81c.33.86.66 1.88.89 2.94h.07c.3-1.02.63-2.08.96-2.94l2.18-5.81h4.46l-5.1 13.47zM111.51 204.35c-4.52 0-8.15-3.2-8.15-7.95s3.63-7.95 8.15-7.95c4.49 0 8.15 3.2 8.15 7.95.01 4.75-3.66 7.95-8.15 7.95zm0-11.68c-1.82 0-3.37 1.58-3.37 3.8 0 2.21 1.55 3.8 3.37 3.8 1.78 0 3.37-1.58 3.37-3.8 0-2.22-1.58-3.8-3.37-3.8zM131.51 203.89v-2.05h-.03c-.59 1.58-2.18 2.48-4.59 2.48-3.27 0-5.25-1.82-5.25-4.98v-10.4h4.85v9.18c0 1.09.76 2.05 2.24 2.05 1.45 0 2.34-.96 2.34-2.15v-9.08h4.85v14.95h-4.41zM152.96 204.32c-3.17 0-5.74-1.09-7.2-2.21v-21.72h4.69v9.08c.63-.5 2.21-.99 3.76-.99 4.13 0 7.53 2.94 7.53 7.66 0 4.62-2.94 8.18-8.78 8.18zm.4-11.58c-1.39 0-2.44.66-2.91 1.16v5.71c.5.36 1.52.73 2.44.73 2.48 0 4.03-1.68 4.03-3.86 0-2.09-1.45-3.74-3.56-3.74zM177.45 195.57l-2.14 2.18h-7.33c.23 1.22 1.88 2.61 4.42 2.61 1.55 0 3.14-.46 4.13-1.12l-.46 4.16c-1.12.59-2.84.99-4.75.99-4.55 0-8.22-3.17-8.22-8.05 0-4.82 3.5-7.89 7.79-7.89 4.16 0 6.7 2.87 6.7 5.97-.01.36-.08.86-.14 1.15zm-6.57-3.49c-1.42 0-2.61 1.09-2.9 2.44h5.05c0-.1.03-.2.03-.33 0-1.03-.89-2.11-2.18-2.11zM195.96 194.09c-.3-.17-.96-.36-1.45-.36-1.55 0-2.97.83-2.97 3.2v6.96h-4.85v-14.95h4.79v3.33h.03c.5-2.34 2.25-3.6 4.26-3.6.46 0 1.02.07 1.39.2l-1.2 5.22zM211.73 195.57l-2.14 2.18h-7.33c.23 1.22 1.88 2.61 4.42 2.61 1.55 0 3.14-.46 4.13-1.12l-.46 4.16c-1.12.59-2.84.99-4.75.99-4.55 0-8.22-3.17-8.22-8.05 0-4.82 3.5-7.89 7.79-7.89 4.16 0 6.7 2.87 6.7 5.97 0 .36-.07.86-.14 1.15zm-6.56-3.49c-1.42 0-2.61 1.09-2.9 2.44h5.05c0-.1.03-.2.03-.33-.01-1.03-.9-2.11-2.18-2.11zM224.21 204.55c-.89-.2-1.91-.89-2.31-1.98-.66 1.22-2.08 1.82-3.89 1.82-2.64 0-4.98-1.85-4.98-4.95 0-2.74 2.15-4.59 5.12-4.88l2.97-.3v-.5c0-.89-.73-1.49-2.34-1.49-1.45 0-3.07.46-4.16 1.16l-.86-3.66c1.22-.79 3.27-1.32 5.25-1.32 3.96 0 6.77 1.82 6.77 5.41v4.88c0 1.75.66 2.67 1.82 3.1l-3.39 2.71zm-3.11-7.19l-1.82.17c-1.25.1-1.82.99-1.82 1.88 0 .79.59 1.45 1.52 1.45 1.16 0 2.11-.89 2.11-2.18v-1.32zM239.82 203.89v-1.85h-.03c-.83 1.52-2.54 2.28-4.62 2.28-3.66 0-7.19-2.77-7.19-7.89 0-4.82 3.43-7.95 7.59-7.95 1.58 0 3.2.53 3.79 1.02v-9.11h4.72v23.5h-4.26zm-.47-9.8c-.46-.63-1.45-1.35-2.94-1.35-2.11 0-3.6 1.65-3.6 3.8s1.49 3.8 3.6 3.8c1.42 0 2.41-.76 2.94-1.55v-4.7zM255.75 202.41c-2.28 6.01-4.65 8.19-7.46 9.27l-2.97-2.97c2.41-.92 4.26-2.67 5.48-5.84l-5.38-13.93h4.69l2.18 5.81c.33.86.66 1.88.89 2.94h.07c.3-1.02.63-2.08.96-2.94l2.18-5.81h4.46l-5.1 13.47z"/></g><g><path class="st0" d="M96.96 223.89h-3.89v5.54c0 1.29.69 1.82 1.98 1.82.56 0 .89-.03 1.25-.2l-.43 3.66c-.46.23-1.29.4-2.24.4-3.37 0-5.38-1.78-5.38-4.75v-6.47h-2.51v-3.96h2.51v-3.2l4.82-1.75v4.95h4.82l-.93 3.96zM106.33 235.34c-4.52 0-8.15-3.2-8.15-7.95s3.63-7.95 8.15-7.95c4.49 0 8.15 3.2 8.15 7.95.01 4.75-3.66 7.95-8.15 7.95zm0-11.68c-1.82 0-3.37 1.58-3.37 3.8 0 2.21 1.55 3.8 3.37 3.8 1.78 0 3.37-1.58 3.37-3.8 0-2.22-1.58-3.8-3.37-3.8zM132.93 225.08c-.3-.17-.96-.36-1.45-.36-1.55 0-2.97.83-2.97 3.2v6.96h-4.85v-14.95h4.79v3.33h.03c.5-2.34 2.24-3.6 4.26-3.6.46 0 1.02.07 1.39.2l-1.2 5.22zM148.71 226.56l-2.14 2.18h-7.33c.23 1.22 1.88 2.61 4.42 2.61 1.55 0 3.14-.46 4.13-1.12l-.46 4.16c-1.12.59-2.84.99-4.75.99-4.55 0-8.22-3.17-8.22-8.05 0-4.82 3.5-7.89 7.79-7.89 4.16 0 6.7 2.87 6.7 5.97-.01.36-.08.85-.14 1.15zm-6.57-3.5c-1.42 0-2.61 1.09-2.9 2.44h5.05c0-.1.03-.2.03-.33 0-1.02-.9-2.11-2.18-2.11zM160.98 223.89h-3.89v5.54c0 1.29.69 1.82 1.98 1.82.56 0 .89-.03 1.25-.2l-.43 3.66c-.46.23-1.29.4-2.24.4-3.37 0-5.38-1.78-5.38-4.75v-6.47h-2.51v-3.96h2.51v-3.2l4.82-1.75v4.95h4.82l-.93 3.96zM165.7 217.88c-.86 0-2.61-1.75-2.61-2.61 0-.86 1.75-2.57 2.61-2.57s2.61 1.72 2.61 2.57c0 .86-1.75 2.61-2.61 2.61zm-2.44 17v-14.95h4.88v14.95h-4.88zM180.19 225.08c-.3-.17-.96-.36-1.45-.36-1.55 0-2.97.83-2.97 3.2v6.96h-4.85v-14.95h4.79v3.33h.03c.5-2.34 2.25-3.6 4.26-3.6.46 0 1.02.07 1.39.2l-1.2 5.22zM195.99 226.56l-2.14 2.18h-7.33c.23 1.22 1.88 2.61 4.42 2.61 1.55 0 3.14-.46 4.13-1.12l-.46 4.16c-1.12.59-2.84.99-4.75.99-4.55 0-8.22-3.17-8.22-8.05 0-4.82 3.5-7.89 7.79-7.89 4.16 0 6.7 2.87 6.7 5.97 0 .36-.07.85-.14 1.15zm-6.56-3.5c-1.42 0-2.61 1.09-2.9 2.44h5.05c0-.1.03-.2.03-.33-.01-1.02-.9-2.11-2.18-2.11zM204.84 224.51c-.83.92-1.16 1.72-1.16 2.61 0 .46.03 1.02.13 1.45l-4.16-.83c-.17-.66-.23-1.16-.23-1.68 0-1.78.69-3.27 1.91-4.55.86-.89 1.29-1.52 1.29-2.48 0-.69-.66-1.49-1.82-1.49-1.19 0-2.24.43-3.37 1.09l-.99-4.09c1.22-.76 2.84-1.25 4.72-1.25 3.89 0 6.47 2.24 6.47 5.58.01 1.98-.85 3.53-2.79 5.64zm-3.01 10.83c-.89 0-2.74-1.85-2.74-2.74 0-.86 1.85-2.71 2.74-2.71.89 0 2.74 1.85 2.74 2.71 0 .89-1.81 2.74-2.74 2.74z"/></g></svg>