<svg id="Layer_1" xmlns="http://www.w3.org/2000/svg" viewBox="0 0 300 600"><style>.st0{fill:#f8df1f}</style><path class="st0" d="M112.81 266.19c-2.05 0-3.53-.43-4.75-1.06l-.43-4.29c1.32.92 3.04 1.62 4.69 1.62.89 0 1.45-.46 1.45-1.02 0-.63-.5-.89-1.35-1.15-2.87-.83-4.59-2.28-4.59-4.88 0-2.94 2.38-4.82 5.61-4.82 1.85 0 3.66.5 4.42.89l-.83 3.56c-.73-.4-1.91-.83-3.1-.83-.79 0-1.32.36-1.32.96 0 .56.4.86 1.32 1.09 3.37.89 4.75 2.57 4.75 5.08 0 2.54-1.84 4.85-5.87 4.85zM128.02 266.33c-4.52 0-8.15-3.2-8.15-7.95s3.63-7.95 8.15-7.95c4.49 0 8.15 3.2 8.15 7.95s-3.66 7.95-8.15 7.95zm0-11.69c-1.82 0-3.37 1.58-3.37 3.8 0 2.21 1.55 3.8 3.37 3.8 1.78 0 3.37-1.58 3.37-3.8 0-2.21-1.58-3.8-3.37-3.8zM154.59 264.38c-2.28 6.01-4.65 8.19-7.46 9.27l-2.97-2.97c2.41-.92 4.26-2.67 5.48-5.84l-5.38-13.93h4.69l2.18 5.81c.33.86.66 1.88.89 2.94h.07c.3-1.02.63-2.08.96-2.94l2.18-5.81h4.46l-5.1 13.47zM167.82 266.33c-4.52 0-8.15-3.2-8.15-7.95s3.63-7.95 8.15-7.95c4.49 0 8.15 3.2 8.15 7.95s-3.66 7.95-8.15 7.95zm0-11.69c-1.81 0-3.37 1.58-3.37 3.8 0 2.21 1.55 3.8 3.37 3.8 1.78 0 3.37-1.58 3.37-3.8 0-2.21-1.59-3.8-3.37-3.8zM187.82 265.86v-2.05h-.03c-.59 1.58-2.18 2.48-4.59 2.48-3.27 0-5.25-1.82-5.25-4.98v-10.4h4.85v9.18c0 1.09.76 2.05 2.24 2.05 1.45 0 2.34-.96 2.34-2.15v-9.08h4.85v14.95h-4.41z"/><g><path class="st0" d="M66.81 296.85v-9.18c0-1.09-.73-2.05-2.21-2.05-1.45 0-2.38.92-2.38 2.11v9.11h-4.85V281.9h4.46v2.01h.03c.59-1.58 2.15-2.48 4.55-2.48 3.27 0 5.25 1.85 5.25 5.02v10.4h-4.85zM88 288.53l-2.15 2.18h-7.33c.23 1.22 1.88 2.61 4.42 2.61 1.55 0 3.14-.46 4.13-1.12l-.46 4.16c-1.12.59-2.84.99-4.75.99-4.55 0-8.22-3.17-8.22-8.05 0-4.82 3.5-7.89 7.79-7.89 4.16 0 6.7 2.87 6.7 5.97 0 .36-.07.86-.13 1.15zm-6.57-3.49c-1.42 0-2.61 1.09-2.9 2.44h5.05c0-.1.03-.2.03-.33 0-1.02-.9-2.11-2.18-2.11zM97.76 296.98h-3.63l-5.74-15.08h4.69l2.11 5.71c.3.79.59 1.91.83 2.9h.07c.23-.96.56-2.11.86-2.9l2.11-5.71h4.49l-5.79 15.08zM117.89 288.53l-2.15 2.18h-7.33c.23 1.22 1.88 2.61 4.42 2.61 1.55 0 3.14-.46 4.13-1.12l-.46 4.16c-1.12.59-2.84.99-4.75.99-4.55 0-8.22-3.17-8.22-8.05 0-4.82 3.5-7.89 7.79-7.89 4.16 0 6.7 2.87 6.7 5.97 0 .36-.06.86-.13 1.15zm-6.57-3.49c-1.42 0-2.61 1.09-2.9 2.44h5.05c0-.1.03-.2.03-.33 0-1.02-.89-2.11-2.18-2.11zM129.31 287.05c-.3-.17-.96-.36-1.45-.36-1.55 0-2.97.83-2.97 3.2v6.96h-4.85V281.9h4.79v3.33h.03c.5-2.34 2.24-3.6 4.26-3.6.46 0 1.02.07 1.39.2l-1.2 5.22zM148.22 287.05c-.3-.17-.96-.36-1.45-.36-1.55 0-2.97.83-2.97 3.2v6.96h-4.85V281.9h4.79v3.33h.03c.5-2.34 2.24-3.6 4.26-3.6.46 0 1.02.07 1.39.2l-1.2 5.22zM160.46 296.85v-2.05h-.03c-.59 1.58-2.18 2.48-4.59 2.48-3.27 0-5.25-1.82-5.25-4.98v-10.4h4.85v9.18c0 1.09.76 2.05 2.24 2.05 1.45 0 2.34-.96 2.34-2.15v-9.08h4.85v14.95h-4.41zM177.06 296.85v-9.18c0-1.09-.73-2.05-2.21-2.05-1.45 0-2.38.92-2.38 2.11v9.11h-4.85V281.9h4.46v2.01h.03c.59-1.58 2.15-2.48 4.55-2.48 3.27 0 5.25 1.85 5.25 5.02v10.4h-4.85zM199.2 297.31c-4.52 0-8.15-3.2-8.15-7.95s3.63-7.95 8.15-7.95c4.49 0 8.15 3.2 8.15 7.95s-3.66 7.95-8.15 7.95zm0-11.68c-1.81 0-3.37 1.58-3.37 3.8 0 2.21 1.55 3.8 3.37 3.8 1.78 0 3.37-1.58 3.37-3.8 0-2.22-1.59-3.8-3.37-3.8zM219.2 296.85v-2.05h-.03c-.59 1.58-2.18 2.48-4.59 2.48-3.27 0-5.25-1.82-5.25-4.98v-10.4h4.85v9.18c0 1.09.76 2.05 2.24 2.05 1.45 0 2.34-.96 2.34-2.15v-9.08h4.85v14.95h-4.41zM236.39 285.86h-3.89v5.54c0 1.29.69 1.82 1.98 1.82.56 0 .89-.03 1.25-.2l-.43 3.66c-.46.23-1.29.4-2.24.4-3.37 0-5.38-1.78-5.38-4.75v-6.47h-2.51v-3.96h2.51v-3.2l4.82-1.75v4.95h4.82l-.93 3.96zM240.62 297.31c-.89 0-2.74-1.85-2.74-2.74 0-.86 1.85-2.71 2.74-2.71.89 0 2.74 1.85 2.74 2.71 0 .9-1.85 2.74-2.74 2.74z"/></g></svg>