<svg id="Layer_1" xmlns="http://www.w3.org/2000/svg" viewBox="0 0 300 600"><style>.st0{fill:#28bdef}</style><path class="st0" d="M81.32 487.23c-7.18 0-13 5.82-13 13V513c0 7.18 5.82 13 13 13h137.37c7.18 0 13-5.82 13-13v-12.77c0-7.18-5.82-13-13-13H81.32z"/><path d="M116.55 500.54c1.58 0 2.95.1 4.15 1.23 1.18 1.12 1.7 2.64 1.7 4.23 0 1.47-.45 2.9-1.42 4-1.09 1.2-2.43 1.52-3.99 1.52h-3.62v-10.98h3.18zm-.63 8.92h.86c1.07 0 1.76-.21 2.35-1.17.43-.7.61-1.55.61-2.37 0-.86-.26-1.79-.78-2.48-.59-.77-1.25-.88-2.16-.88h-.88v6.9zM126.56 511.52H124v-10.98h2.56v10.98zM134.31 503.68c-.32-.93-.91-1.3-1.89-1.3-.69 0-1.52.18-1.52 1.02 0 .8.96.99 1.58 1.1.9.19 2.1.42 2.87.93.9.59 1.44 1.5 1.44 2.59 0 1.07-.51 2.1-1.36 2.75-.88.69-2.08.9-3.19.9-2.06 0-3.94-.9-4.43-3.04l2.37-.54c.32 1.15 1.15 1.55 2.29 1.55.74 0 1.71-.27 1.71-1.18 0-.91-1.25-1.09-1.92-1.23-1.95-.4-3.87-.98-3.87-3.38 0-1.02.4-1.92 1.18-2.58.8-.67 1.74-.9 2.75-.9 1.92 0 3.49.67 4.16 2.58l-2.17.73zM144.55 504.8c-.02-1.22-.43-2.35-1.84-2.35-1.81 0-1.98 2.37-1.98 3.7 0 1.5.18 3.44 2.11 3.44 1.2 0 1.76-1.01 1.91-2.07l2.5.16c-.27 2.51-2 4-4.53 4-3.27 0-4.85-2.66-4.85-5.65 0-3.04 1.63-5.65 4.93-5.65 2.75 0 4.16 1.6 4.45 4.24l-2.7.18zM149.6 509.95c-.8-1.14-1.15-2.56-1.15-3.94 0-2.91 1.46-5.63 4.71-5.63 1.46 0 2.61.48 3.49 1.68.78 1.07 1.18 2.62 1.18 3.95 0 1.25-.34 2.77-1.04 3.81-.85 1.25-2.14 1.86-3.63 1.86-1.49 0-2.7-.51-3.56-1.73zm1.89-6.23c-.26.66-.35 1.6-.35 2.29 0 1.38.21 3.57 2.02 3.57.88 0 1.36-.43 1.65-1.25.26-.67.34-1.58.34-2.3 0-.8-.08-1.75-.4-2.48-.32-.74-.78-1.07-1.58-1.07-.9 0-1.38.44-1.68 1.24zM164.35 511.52h-2.77l-3.3-10.98h2.74l2.21 7.84 2.27-7.84h2.16l-3.31 10.98zM171.33 502.67v2.22h4.16v2.07h-4.16v2.43h5.28v2.13h-7.84v-10.98h7.84v2.13h-5.28zM180.66 511.52h-2.56v-10.98h4.63c.98 0 1.97.02 2.82.56.9.59 1.39 1.66 1.39 2.74 0 1.25-.72 2.4-1.9 2.83l2.03 4.85h-2.85l-1.68-4.34h-1.87v4.34zm0-6.23h1.41c.53 0 1.1.05 1.57-.22.42-.26.64-.77.64-1.25 0-.43-.26-.9-.62-1.12-.43-.27-1.17-.21-1.65-.21h-1.34v2.8z"/></svg>