<svg id="Layer_1" xmlns="http://www.w3.org/2000/svg" viewBox="0 0 300 600"><style>.st0{fill:#fff}.st1{fill:#000001}</style><path class="st0" d="M168.19 484.26h-3.45c-1.75 0-3.17 1.8-3.17 3.41v-5.36c0-1.61-1.42-3.41-3.17-3.41h-3.45c-1.76 0-3.18 1.8-3.18 3.41v-3.42c0-1.61-1.42-3.41-3.17-3.41h-3.45c-1.75 0-3.17 1.8-3.17 3.41v-13.25c0-2.48-2.19-4.5-4.9-4.5-2.71 0-4.9 2.01-4.9 4.5v26.14c-3.04-2.09-7.48-5.87-11.54-4.1-2.91 1.27-2.24 5.15.65 8.05 5.06 5.06 10.39 15.08 12.37 20.86 3.11 9.1 4.87 13.1 4.87 13.1h26.18s2.91-9.35 5.65-15.02c.32-.67 1.03-1.99 1.03-6.53v-20.46c-.03-1.62-1.45-3.42-3.2-3.42"/><path class="st1" d="M139.67 527.93h23.73c.89-2.75 3.15-9.48 5.35-14.04.3-.61.85-1.76.85-5.77v-20.46c0-.71-.71-1.66-1.43-1.66h-3.45c-.72 0-1.42.95-1.42 1.66 0 .97-.78 1.75-1.75 1.75s-1.75-.78-1.75-1.75v-5.36c0-.71-.7-1.66-1.43-1.66h-3.45c-.72 0-1.42.95-1.42 1.66 0 .97-.78 1.75-1.75 1.75-.96 0-1.75-.78-1.75-1.75v-3.42c0-.71-.71-1.66-1.43-1.66h-3.45c-.72 0-1.43.95-1.43 1.66 0 .97-.78 1.75-1.75 1.75s-1.75-.78-1.75-1.75v-13.25c0-1.51-1.41-2.75-3.15-2.75s-3.15 1.23-3.15 2.75v26.14c0 .65-.36 1.24-.94 1.55-.57.3-1.27.26-1.8-.11-.36-.25-.74-.52-1.13-.8-2.15-1.54-4.83-3.45-7.19-3.45-.54 0-1.05.1-1.53.31-.46.2-.71.49-.79.94-.18.96.36 2.65 1.98 4.27 5.09 5.09 10.6 15.14 12.78 21.53 2.19 6.34 3.71 10.21 4.4 11.92m25.02 3.5h-26.18c-.69 0-1.32-.41-1.6-1.04-.07-.17-1.83-4.18-4.92-13.24-1.79-5.25-6.94-15.19-11.95-20.19-2.25-2.26-3.38-5.09-2.95-7.39.3-1.59 1.31-2.83 2.83-3.5.92-.4 1.91-.6 2.93-.6 2.76 0 5.34 1.43 7.56 2.94v-22.77c0-3.44 2.98-6.24 6.65-6.24s6.65 2.8 6.65 6.24v8.33c.45-.15.93-.24 1.43-.24h3.45c2.28 0 4.08 1.77 4.7 3.74a4.3 4.3 0 0 1 1.65-.33h3.45c2.82 0 4.92 2.73 4.92 5.16v.45c.45-.15.93-.24 1.42-.24h3.45c2.82 0 4.92 2.72 4.92 5.16v20.46c0 4.82-.76 6.39-1.18 7.24-2.68 5.54-5.55 14.75-5.58 14.84a1.72 1.72 0 0 1-1.65 1.22"/><path class="st1" d="M141.96 488.85c-.97 0-1.75-.78-1.75-1.75v-8.21c0-.97.78-1.75 1.75-1.75s1.75.78 1.75 1.75v8.21c0 .96-.78 1.75-1.75 1.75M151.76 492.26c-.97 0-1.75-.78-1.75-1.75v-8.21c0-.97.78-1.75 1.75-1.75s1.75.78 1.75 1.75v8.21c0 .97-.78 1.75-1.75 1.75M161.56 497.63c-.97 0-1.75-.78-1.75-1.75v-8.21c0-.97.78-1.75 1.75-1.75s1.75.78 1.75 1.75v8.21c0 .96-.78 1.75-1.75 1.75"/></svg>