<svg id="Layer_1" xmlns="http://www.w3.org/2000/svg" xmlns:xlink="http://www.w3.org/1999/xlink" viewBox="0 0 300 600"><style>.st0,.st1{fill:#fff}.st1{clip-path:url(#SVGID_2_)}.st2{clip-path:url(#SVGID_4_);fill:url(#SVGID_5_)}.st3{clip-path:url(#SVGID_7_);fill:url(#SVGID_8_)}.st4{clip-path:url(#SVGID_10_);fill:url(#SVGID_11_)}</style><path class="st0" d="M150.77 32.12v4.77h-8.46v22.9h-5.35v-22.9h-8.46v-4.77h22.27zm2.27 27.67h5.35V32.12h-5.35v27.67zm32.99 0h-5.5l-2.84-6.81h-9.37l-2.81 6.81h-5.38l11.79-28.04h2.34l11.77 28.04zm25.91 0h-5.5l-2.85-6.81h-9.37l-2.81 6.81h-5.38l11.79-28.04h2.34l11.78 28.04zm-36.09-11.33l-2.83-6.89-2.85 6.89h5.68zm25.91 0l-2.83-6.89-2.85 6.89h5.68z"/><defs><path id="SVGID_1_" d="M85.01 25.52H215v43.71H85.01z"/></defs><clipPath id="SVGID_2_"><use xlink:href="#SVGID_1_" overflow="visible"/></clipPath><path class="st1" d="M109.14 61.58c2.37 0 4.52-.98 6.06-2.56l6.55-6.55a8.494 8.494 0 0 0 2.46-5.94v-20.4h-20.37c-2.37 0-4.52.98-6.06 2.55l-6.55 6.55a8.494 8.494 0 0 0-2.46 5.94v20.4h20.37z"/><defs><path id="SVGID_3_" d="M106.23 27.94c-3.7 0-6.69 2.99-6.71 6.68v2.27h13.96v13.95h2.24c3.71 0 6.71-3 6.71-6.71v-16.2h-16.2z"/></defs><clipPath id="SVGID_4_"><use xlink:href="#SVGID_3_" overflow="visible"/></clipPath><linearGradient id="SVGID_5_" gradientUnits="userSpaceOnUse" x1=".686" y1="601.314" x2="1.686" y2="601.314" gradientTransform="scale(22.5286 -22.5286) rotate(45 730.906 304.56)"><stop offset="0" stop-color="#9adbf8"/><stop offset=".1" stop-color="#9adbf8"/><stop offset=".9" stop-color="#009ad8"/><stop offset="1" stop-color="#009ad8"/></linearGradient><path class="st2" d="M88.06 39.39l22.91-22.9 22.91 22.9-22.91 22.91z"/><g><defs><path id="SVGID_6_" d="M115.71 52.64H97.72l-7.15 7.15h18.57c1.81 0 3.51-.72 4.78-2.02l6.01-6.01-.16-.16a8.361 8.361 0 0 1-4.06 1.04"/></defs><clipPath id="SVGID_7_"><use xlink:href="#SVGID_6_" overflow="visible"/></clipPath><linearGradient id="SVGID_8_" gradientUnits="userSpaceOnUse" x1=".659" y1="601" x2="1.659" y2="601" gradientTransform="matrix(29.3698 0 0 -29.3698 71.204 17706.97)"><stop offset="0" stop-color="#00aee6"/><stop offset=".111" stop-color="#00aae1"/><stop offset=".255" stop-color="#009fd5"/><stop offset=".419" stop-color="#008ec3"/><stop offset=".596" stop-color="#0078ae"/><stop offset=".783" stop-color="#015f98"/><stop offset=".9" stop-color="#084e8a"/><stop offset="1" stop-color="#084e8a"/></linearGradient><path class="st3" d="M90.57 51.6h29.37v8.19H90.57z"/></g><g><defs><path id="SVGID_9_" d="M92.59 36.43a6.675 6.675 0 0 0-2.02 4.78v18.57l7.15-7.15V34.65c0-1.47.38-2.86 1.04-4.07l-.15-.16-6.02 6.01z"/></defs><clipPath id="SVGID_10_"><use xlink:href="#SVGID_9_" overflow="visible"/></clipPath><linearGradient id="SVGID_11_" gradientUnits="userSpaceOnUse" x1="1" y1="601.341" x2="2" y2="601.341" gradientTransform="matrix(0 -29.3703 -29.3703 0 17756.209 89.16)"><stop offset="0" stop-color="#007ebd"/><stop offset=".211" stop-color="#0073b1"/><stop offset=".63" stop-color="#005c97"/><stop offset=".85" stop-color="#084e8a"/><stop offset="1" stop-color="#084e8a"/></linearGradient><path class="st4" d="M90.57 30.42h8.19v29.37h-8.19z"/></g></svg>