<?xml version="1.0" encoding="utf-8"?>
<!-- Generator: Adobe Illustrator 24.0.0, SVG Export Plug-In . SVG Version: 6.00 Build 0)  -->
<svg version="1.1" id="Layer_1" xmlns="http://www.w3.org/2000/svg" xmlns:xlink="http://www.w3.org/1999/xlink" x="0px" y="0px"
	 viewBox="0 0 300 600" style="enable-background:new 0 0 300 600;" xml:space="preserve">
<style type="text/css">
	.st0{fill:none;stroke:#FFFFFF;stroke-width:2.512;}
	.st1{fill:#FFFFFF;}
	.st2{fill:none;}
</style>
<circle class="st0" cx="224.71" cy="433.03" r="21.55"/>
<path class="st1" d="M234.49,431.63h-7.82v-7.81c0-1.09-0.88-1.97-1.97-1.97c-1.09,0-1.97,0.88-1.97,1.97v7.81h-7.81
	c-1.09,0-1.97,0.88-1.97,1.97c0,1.09,0.88,1.97,1.97,1.97h7.81v7.82c0,1.09,0.88,1.97,1.97,1.97c1.09,0,1.97-0.88,1.97-1.97v-7.82
	h7.82c1.09,0,1.97-0.88,1.97-1.97C236.46,432.51,235.58,431.63,234.49,431.63"/>
<rect x="212.96" y="421.85" class="st2" width="23.5" height="23.5"/>
</svg>
