<?xml version="1.0" encoding="utf-8"?>
<!-- Generator: Adobe Illustrator 24.0.0, SVG Export Plug-In . SVG Version: 6.00 Build 0)  -->
<svg version="1.1" id="Layer_1" xmlns="http://www.w3.org/2000/svg" xmlns:xlink="http://www.w3.org/1999/xlink" x="0px" y="0px"
	 viewBox="0 0 300 600" style="enable-background:new 0 0 300 600;" xml:space="preserve">
<style type="text/css">
	.st0{fill:#FFFFFF;}
</style>
<g>
	<path class="st0" d="M17.05,585.09v-4.52l-0.88,0.09l0.14-0.61l1.47-0.14v5.17H17.05z"/>
	<path class="st0" d="M20.59,585.19c-0.93,0-1.74-0.85-1.74-2.65c0-1.79,0.82-2.65,1.74-2.65c0.91,0,1.74,0.86,1.74,2.65
		C22.33,584.34,21.5,585.19,20.59,585.19z M20.59,580.53c-0.52,0-1.01,0.56-1.01,2c0,1.46,0.49,2.01,1.01,2.01
		c0.51,0,1.01-0.55,1.01-2.01C21.6,581.09,21.1,580.53,20.59,580.53z"/>
	<path class="st0" d="M24.96,585.19c-0.93,0-1.74-0.85-1.74-2.65c0-1.79,0.82-2.65,1.74-2.65c0.91,0,1.74,0.86,1.74,2.65
		C26.7,584.34,25.87,585.19,24.96,585.19z M24.96,580.53c-0.52,0-1.01,0.56-1.01,2c0,1.46,0.49,2.01,1.01,2.01
		c0.51,0,1.01-0.55,1.01-2.01C25.96,581.09,25.47,580.53,24.96,580.53z"/>
	<path class="st0" d="M28.03,585.09v-4.52l-0.88,0.09l0.14-0.61l1.47-0.14v5.17H28.03z"/>
	<path class="st0" d="M31.48,585.19c-0.93,0-1.7-0.56-1.7-1.51c0-0.77,0.62-1.23,1.01-1.38c-0.39-0.15-0.78-0.54-0.78-1.12
		c0-0.76,0.63-1.29,1.48-1.29s1.49,0.54,1.49,1.29c0,0.56-0.41,0.97-0.78,1.1c0.38,0.13,1.01,0.62,1.01,1.39
		C33.19,584.63,32.41,585.19,31.48,585.19z M31.43,582.64c-0.43,0.13-0.96,0.48-0.96,1.01c0,0.52,0.46,0.9,0.99,0.9
		c0.54,0,1-0.38,1-0.9C32.46,583.12,31.88,582.76,31.43,582.64z M31.49,580.5c-0.42,0-0.78,0.3-0.78,0.7c0,0.35,0.34,0.68,0.81,0.81
		c0.47-0.14,0.75-0.46,0.75-0.81C32.27,580.8,31.93,580.5,31.49,580.5z"/>
	<path class="st0" d="M34.55,585.09v-4.52l-0.88,0.09l0.14-0.61l1.47-0.14v5.17H34.55z"/>
	<path class="st0" d="M37.17,585.09h-0.78l1.94-4.48h-2.34v-0.62h3.38L37.17,585.09z"/>
</g>
</svg>
