<?xml version="1.0" encoding="utf-8"?>
<!-- Generator: Adobe Illustrator 24.0.0, SVG Export Plug-In . SVG Version: 6.00 Build 0)  -->
<svg version="1.1" id="Layer_1" xmlns="http://www.w3.org/2000/svg" xmlns:xlink="http://www.w3.org/1999/xlink" x="0px" y="0px"
	 viewBox="0 0 300 600" style="enable-background:new 0 0 300 600;" xml:space="preserve">
<style type="text/css">
	.st0{fill:#F8DF1F;}
</style>
<g>
	<path class="st0" d="M106.3,173.04h-3.27l-3.07-9.31c-0.46-1.39-0.89-2.84-1.39-4.69h-0.07c-0.46,1.81-0.92,3.33-1.39,4.69
		l-3.07,9.31h-3.2l-7.03-21.19h4.98l2.74,8.52c0.4,1.29,0.83,2.64,1.16,4.22h0.07c0.3-1.58,0.69-2.9,1.12-4.22l2.77-8.52h4.39
		l2.74,8.48c0.4,1.19,0.79,2.71,1.12,4.26h0.07c0.26-1.52,0.73-3.04,1.12-4.22l2.81-8.52h4.42L106.3,173.04z"/>
	<path class="st0" d="M124.25,172.9v-9.18c0-1.09-0.76-2.05-2.24-2.05c-1.45,0-2.34,0.92-2.34,2.11v9.11h-4.85v-23.5h4.79v9.93h0.03
		c0.76-1.16,2.15-1.85,4.22-1.85c3.3,0,5.25,1.85,5.25,5.02v10.4H124.25z"/>
	<path class="st0" d="M142.3,173.56c-0.89-0.2-1.91-0.89-2.31-1.98c-0.66,1.22-2.08,1.82-3.89,1.82c-2.64,0-4.98-1.85-4.98-4.95
		c0-2.74,2.15-4.59,5.12-4.88l2.97-0.3v-0.5c0-0.89-0.73-1.49-2.34-1.49c-1.45,0-3.07,0.46-4.16,1.16l-0.86-3.66
		c1.22-0.79,3.27-1.32,5.25-1.32c3.96,0,6.77,1.82,6.77,5.41v4.88c0,1.75,0.66,2.67,1.82,3.1L142.3,173.56z M139.2,166.37
		l-1.82,0.17c-1.25,0.1-1.81,0.99-1.81,1.88c0,0.79,0.59,1.45,1.52,1.45c1.16,0,2.11-0.89,2.11-2.18V166.37z"/>
	<path class="st0" d="M156.56,161.91h-3.89v5.54c0,1.29,0.69,1.82,1.98,1.82c0.56,0,0.89-0.03,1.25-0.2l-0.43,3.66
		c-0.46,0.23-1.29,0.4-2.24,0.4c-3.37,0-5.38-1.78-5.38-4.75v-6.47h-2.51v-3.96h2.51v-3.2l4.82-1.75v4.95h4.82L156.56,161.91z"/>
	<path class="st0" d="M176.52,173.56c-0.89-0.2-1.91-0.89-2.31-1.98c-0.66,1.22-2.08,1.82-3.89,1.82c-2.64,0-4.98-1.85-4.98-4.95
		c0-2.74,2.15-4.59,5.12-4.88l2.97-0.3v-0.5c0-0.89-0.73-1.49-2.34-1.49c-1.45,0-3.07,0.46-4.16,1.16l-0.86-3.66
		c1.22-0.79,3.27-1.32,5.25-1.32c3.96,0,6.77,1.82,6.77,5.41v4.88c0,1.75,0.66,2.67,1.82,3.1L176.52,173.56z M173.42,166.37
		l-1.82,0.17c-1.25,0.1-1.82,0.99-1.82,1.88c0,0.79,0.59,1.45,1.52,1.45c1.16,0,2.11-0.89,2.11-2.18V166.37z"/>
	<path class="st0" d="M187.35,180.53c-4.36,0-7.26-2.48-7.26-5.61c0-2.28,1.52-3.63,3.07-4.03l-1.91-1.91
		c0.13-0.96,0.96-1.78,1.81-2.15c-1.12-0.69-2.18-2.11-2.18-3.99c0-3.17,2.28-5.38,6.17-5.38c0.89,0,1.58,0.13,2.21,0.3
		c0.66,0.17,1.39,0.26,2.15,0.26c0.83,0,1.68-0.2,2.34-0.5l0.89,3.7c-0.46,0.26-1.19,0.5-1.85,0.46c0.16,0.3,0.36,0.99,0.36,1.52
		c0,2.51-1.98,4.62-4.88,4.82c-0.59,0.03-0.99,0.17-0.99,0.56c0,0.17,0.13,0.36,0.4,0.46l2.31,0.82c2.94,1.06,4.52,2.54,4.52,5.28
		C194.51,178.22,191.7,180.53,187.35,180.53z M188.37,173.5l-1.78-0.5c-1.16,0.03-2.01,0.86-2.01,1.95c0,1.02,0.89,1.88,2.64,1.88
		c1.72,0,2.64-0.79,2.64-1.65C189.86,174.49,189.33,173.76,188.37,173.5z M187.05,160.99c-1.09,0-1.91,0.83-1.91,1.78
		c0,0.99,0.83,1.78,1.91,1.78c1.06,0,1.91-0.79,1.91-1.78C188.96,161.81,188.17,160.99,187.05,160.99z"/>
	<path class="st0" d="M209.69,164.59l-2.14,2.18h-7.33c0.23,1.22,1.88,2.61,4.42,2.61c1.55,0,3.14-0.46,4.13-1.12l-0.46,4.16
		c-1.12,0.59-2.84,0.99-4.75,0.99c-4.55,0-8.22-3.17-8.22-8.05c0-4.82,3.5-7.89,7.79-7.89c4.16,0,6.7,2.87,6.7,5.97
		C209.82,163.79,209.75,164.29,209.69,164.59z M203.12,161.09c-1.42,0-2.61,1.09-2.9,2.44h5.05c0-0.1,0.03-0.2,0.03-0.33
		C205.3,162.18,204.41,161.09,203.12,161.09z"/>
</g>
<g>
	<path class="st0" d="M50.96,204.02h-3.33l-2.01-5.94c-0.3-0.92-0.59-1.98-0.89-3.1h-0.07c-0.23,1.12-0.53,2.21-0.83,3.07
		l-2.01,5.97h-3.17l-5.21-15.08h4.42l1.85,5.68c0.26,0.86,0.56,1.91,0.73,2.87h0.07c0.17-0.92,0.43-2.01,0.73-2.87l1.88-5.68h3.66
		l1.88,5.64c0.3,0.92,0.5,1.95,0.69,2.9h0.07c0.2-0.96,0.46-2.01,0.76-2.9l1.88-5.64h4.13L50.96,204.02z"/>
	<path class="st0" d="M60,186.89c-0.86,0-2.61-1.75-2.61-2.61c0-0.86,1.75-2.57,2.61-2.57s2.61,1.72,2.61,2.57
		C62.61,185.14,60.86,186.89,60,186.89z M57.56,203.89v-14.95h4.88v14.95H57.56z"/>
	<path class="st0" d="M70.36,204.49c-3.07-0.13-5.12-1.72-5.12-5.31v-18.78h4.79v18.19c0,1.22,0.69,1.88,2.01,1.98L70.36,204.49z"/>
	<path class="st0" d="M78.65,204.49c-3.07-0.13-5.12-1.72-5.12-5.31v-18.78h4.79v18.19c0,1.22,0.69,1.88,2.01,1.98L78.65,204.49z"/>
	<path class="st0" d="M98.28,202.41c-2.28,6.01-4.65,8.19-7.46,9.27l-2.97-2.97c2.41-0.92,4.26-2.67,5.48-5.84l-5.38-13.93h4.69
		l2.18,5.81c0.33,0.86,0.66,1.88,0.89,2.94h0.07c0.3-1.02,0.63-2.08,0.96-2.94l2.18-5.81h4.46L98.28,202.41z"/>
	<path class="st0" d="M111.51,204.35c-4.52,0-8.15-3.2-8.15-7.95c0-4.75,3.63-7.95,8.15-7.95c4.49,0,8.15,3.2,8.15,7.95
		C119.67,201.15,116,204.35,111.51,204.35z M111.51,192.67c-1.82,0-3.37,1.58-3.37,3.8c0,2.21,1.55,3.8,3.37,3.8
		c1.78,0,3.37-1.58,3.37-3.8C114.88,194.25,113.3,192.67,111.51,192.67z"/>
	<path class="st0" d="M131.51,203.89v-2.05h-0.03c-0.59,1.58-2.18,2.48-4.59,2.48c-3.27,0-5.25-1.82-5.25-4.98v-10.4h4.85v9.18
		c0,1.09,0.76,2.05,2.24,2.05c1.45,0,2.34-0.96,2.34-2.15v-9.08h4.85v14.95H131.51z"/>
	<path class="st0" d="M152.96,204.32c-3.17,0-5.74-1.09-7.2-2.21v-21.72h4.69v9.08c0.63-0.5,2.21-0.99,3.76-0.99
		c4.13,0,7.53,2.94,7.53,7.66C161.74,200.76,158.8,204.32,152.96,204.32z M153.36,192.74c-1.39,0-2.44,0.66-2.91,1.16v5.71
		c0.5,0.36,1.52,0.73,2.44,0.73c2.48,0,4.03-1.68,4.03-3.86C156.92,194.39,155.47,192.74,153.36,192.74z"/>
	<path class="st0" d="M177.45,195.57l-2.14,2.18h-7.33c0.23,1.22,1.88,2.61,4.42,2.61c1.55,0,3.14-0.46,4.13-1.12l-0.46,4.16
		c-1.12,0.59-2.84,0.99-4.75,0.99c-4.55,0-8.22-3.17-8.22-8.05c0-4.82,3.5-7.89,7.79-7.89c4.16,0,6.7,2.87,6.7,5.97
		C177.58,194.78,177.51,195.28,177.45,195.57z M170.88,192.08c-1.42,0-2.61,1.09-2.9,2.44h5.05c0-0.1,0.03-0.2,0.03-0.33
		C173.06,193.16,172.17,192.08,170.88,192.08z"/>
	<path class="st0" d="M195.96,194.09c-0.3-0.17-0.96-0.36-1.45-0.36c-1.55,0-2.97,0.83-2.97,3.2v6.96h-4.85v-14.95h4.79v3.33h0.03
		c0.5-2.34,2.25-3.6,4.26-3.6c0.46,0,1.02,0.07,1.39,0.2L195.96,194.09z"/>
	<path class="st0" d="M211.73,195.57l-2.14,2.18h-7.33c0.23,1.22,1.88,2.61,4.42,2.61c1.55,0,3.14-0.46,4.13-1.12l-0.46,4.16
		c-1.12,0.59-2.84,0.99-4.75,0.99c-4.55,0-8.22-3.17-8.22-8.05c0-4.82,3.5-7.89,7.79-7.89c4.16,0,6.7,2.87,6.7,5.97
		C211.87,194.78,211.8,195.28,211.73,195.57z M205.17,192.08c-1.42,0-2.61,1.09-2.9,2.44h5.05c0-0.1,0.03-0.2,0.03-0.33
		C207.34,193.16,206.45,192.08,205.17,192.08z"/>
	<path class="st0" d="M224.21,204.55c-0.89-0.2-1.91-0.89-2.31-1.98c-0.66,1.22-2.08,1.82-3.89,1.82c-2.64,0-4.98-1.85-4.98-4.95
		c0-2.74,2.15-4.59,5.12-4.88l2.97-0.3v-0.5c0-0.89-0.73-1.49-2.34-1.49c-1.45,0-3.07,0.46-4.16,1.16l-0.86-3.66
		c1.22-0.79,3.27-1.32,5.25-1.32c3.96,0,6.77,1.82,6.77,5.41v4.88c0,1.75,0.66,2.67,1.82,3.1L224.21,204.55z M221.1,197.36
		l-1.82,0.17c-1.25,0.1-1.82,0.99-1.82,1.88c0,0.79,0.59,1.45,1.52,1.45c1.16,0,2.11-0.89,2.11-2.18V197.36z"/>
	<path class="st0" d="M239.82,203.89v-1.85h-0.03c-0.83,1.52-2.54,2.28-4.62,2.28c-3.66,0-7.19-2.77-7.19-7.89
		c0-4.82,3.43-7.95,7.59-7.95c1.58,0,3.2,0.53,3.79,1.02v-9.11h4.72v23.5H239.82z M239.35,194.09c-0.46-0.63-1.45-1.35-2.94-1.35
		c-2.11,0-3.6,1.65-3.6,3.8c0,2.15,1.49,3.8,3.6,3.8c1.42,0,2.41-0.76,2.94-1.55V194.09z"/>
	<path class="st0" d="M255.75,202.41c-2.28,6.01-4.65,8.19-7.46,9.27l-2.97-2.97c2.41-0.92,4.26-2.67,5.48-5.84l-5.38-13.93h4.69
		l2.18,5.81c0.33,0.86,0.66,1.88,0.89,2.94h0.07c0.3-1.02,0.63-2.08,0.96-2.94l2.18-5.81h4.46L255.75,202.41z"/>
</g>
<g>
	<path class="st0" d="M96.96,223.89h-3.89v5.54c0,1.29,0.69,1.82,1.98,1.82c0.56,0,0.89-0.03,1.25-0.2l-0.43,3.66
		c-0.46,0.23-1.29,0.4-2.24,0.4c-3.37,0-5.38-1.78-5.38-4.75v-6.47h-2.51v-3.96h2.51v-3.2l4.82-1.75v4.95h4.82L96.96,223.89z"/>
	<path class="st0" d="M106.33,235.34c-4.52,0-8.15-3.2-8.15-7.95c0-4.75,3.63-7.95,8.15-7.95c4.49,0,8.15,3.2,8.15,7.95
		C114.49,232.14,110.82,235.34,106.33,235.34z M106.33,223.66c-1.82,0-3.37,1.58-3.37,3.8c0,2.21,1.55,3.8,3.37,3.8
		c1.78,0,3.37-1.58,3.37-3.8C109.7,225.24,108.12,223.66,106.33,223.66z"/>
	<path class="st0" d="M132.93,225.08c-0.3-0.17-0.96-0.36-1.45-0.36c-1.55,0-2.97,0.83-2.97,3.2v6.96h-4.85v-14.95h4.79v3.33h0.03
		c0.5-2.34,2.24-3.6,4.26-3.6c0.46,0,1.02,0.07,1.39,0.2L132.93,225.08z"/>
	<path class="st0" d="M148.71,226.56l-2.14,2.18h-7.33c0.23,1.22,1.88,2.61,4.42,2.61c1.55,0,3.14-0.46,4.13-1.12l-0.46,4.16
		c-1.12,0.59-2.84,0.99-4.75,0.99c-4.55,0-8.22-3.17-8.22-8.05c0-4.82,3.5-7.89,7.79-7.89c4.16,0,6.7,2.87,6.7,5.97
		C148.84,225.77,148.77,226.26,148.71,226.56z M142.14,223.06c-1.42,0-2.61,1.09-2.9,2.44h5.05c0-0.1,0.03-0.2,0.03-0.33
		C144.32,224.15,143.42,223.06,142.14,223.06z"/>
	<path class="st0" d="M160.98,223.89h-3.89v5.54c0,1.29,0.69,1.82,1.98,1.82c0.56,0,0.89-0.03,1.25-0.2l-0.43,3.66
		c-0.46,0.23-1.29,0.4-2.24,0.4c-3.37,0-5.38-1.78-5.38-4.75v-6.47h-2.51v-3.96h2.51v-3.2l4.82-1.75v4.95h4.82L160.98,223.89z"/>
	<path class="st0" d="M165.7,217.88c-0.86,0-2.61-1.75-2.61-2.61c0-0.86,1.75-2.57,2.61-2.57s2.61,1.72,2.61,2.57
		C168.31,216.13,166.56,217.88,165.7,217.88z M163.26,234.88v-14.95h4.88v14.95H163.26z"/>
	<path class="st0" d="M180.19,225.08c-0.3-0.17-0.96-0.36-1.45-0.36c-1.55,0-2.97,0.83-2.97,3.2v6.96h-4.85v-14.95h4.79v3.33h0.03
		c0.5-2.34,2.25-3.6,4.26-3.6c0.46,0,1.02,0.07,1.39,0.2L180.19,225.08z"/>
	<path class="st0" d="M195.99,226.56l-2.14,2.18h-7.33c0.23,1.22,1.88,2.61,4.42,2.61c1.55,0,3.14-0.46,4.13-1.12l-0.46,4.16
		c-1.12,0.59-2.84,0.99-4.75,0.99c-4.55,0-8.22-3.17-8.22-8.05c0-4.82,3.5-7.89,7.79-7.89c4.16,0,6.7,2.87,6.7,5.97
		C196.13,225.77,196.06,226.26,195.99,226.56z M189.43,223.06c-1.42,0-2.61,1.09-2.9,2.44h5.05c0-0.1,0.03-0.2,0.03-0.33
		C191.6,224.15,190.71,223.06,189.43,223.06z"/>
	<path class="st0" d="M204.84,224.51c-0.83,0.92-1.16,1.72-1.16,2.61c0,0.46,0.03,1.02,0.13,1.45l-4.16-0.83
		c-0.17-0.66-0.23-1.16-0.23-1.68c0-1.78,0.69-3.27,1.91-4.55c0.86-0.89,1.29-1.52,1.29-2.48c0-0.69-0.66-1.49-1.82-1.49
		c-1.19,0-2.24,0.43-3.37,1.09l-0.99-4.09c1.22-0.76,2.84-1.25,4.72-1.25c3.89,0,6.47,2.24,6.47,5.58
		C207.64,220.85,206.78,222.4,204.84,224.51z M201.83,235.34c-0.89,0-2.74-1.85-2.74-2.74c0-0.86,1.85-2.71,2.74-2.71
		c0.89,0,2.74,1.85,2.74,2.71C204.57,233.49,202.76,235.34,201.83,235.34z"/>
</g>
</svg>
