<?xml version="1.0" encoding="utf-8"?>
<!-- Generator: Adobe Illustrator 24.0.0, SVG Export Plug-In . SVG Version: 6.00 Build 0)  -->
<svg version="1.1" id="Layer_1" xmlns="http://www.w3.org/2000/svg" xmlns:xlink="http://www.w3.org/1999/xlink" x="0px" y="0px"
	 viewBox="0 0 300 600" style="enable-background:new 0 0 300 600;" xml:space="preserve">
<style type="text/css">
	.st0{fill:#F8DF1F;}
</style>
<g>
	<path class="st0" d="M54.99,156.04v4.16h5.97v4.29h-5.97v8.42h-5.02v-21.06h12.24v4.19H54.99z"/>
	<path class="st0" d="M66.11,155.91c-0.86,0-2.61-1.75-2.61-2.61c0-0.86,1.75-2.57,2.61-2.57s2.61,1.72,2.61,2.57
		C68.72,154.16,66.97,155.91,66.11,155.91z M63.67,172.9v-14.95h4.88v14.95H63.67z"/>
	<path class="st0" d="M77.66,180.53c-4.36,0-7.26-2.48-7.26-5.61c0-2.28,1.52-3.63,3.07-4.03l-1.91-1.91
		c0.13-0.96,0.96-1.78,1.82-2.15c-1.12-0.69-2.18-2.11-2.18-3.99c0-3.17,2.28-5.38,6.17-5.38c0.89,0,1.58,0.13,2.21,0.3
		c0.66,0.17,1.39,0.26,2.15,0.26c0.83,0,1.68-0.2,2.34-0.5l0.89,3.7c-0.46,0.26-1.19,0.5-1.85,0.46c0.17,0.3,0.36,0.99,0.36,1.52
		c0,2.51-1.98,4.62-4.88,4.82c-0.59,0.03-0.99,0.17-0.99,0.56c0,0.17,0.13,0.36,0.4,0.46l2.31,0.82c2.94,1.06,4.52,2.54,4.52,5.28
		C84.83,178.22,82.02,180.53,77.66,180.53z M78.69,173.5L76.9,173c-1.15,0.03-2.01,0.86-2.01,1.95c0,1.02,0.89,1.88,2.64,1.88
		c1.72,0,2.64-0.79,2.64-1.65C80.17,174.49,79.64,173.76,78.69,173.5z M77.37,160.99c-1.09,0-1.91,0.83-1.91,1.78
		c0,0.99,0.83,1.78,1.91,1.78c1.06,0,1.91-0.79,1.91-1.78C79.28,161.81,78.49,160.99,77.37,160.99z"/>
	<path class="st0" d="M96.18,172.9v-2.05h-0.03c-0.59,1.58-2.18,2.48-4.59,2.48c-3.27,0-5.25-1.82-5.25-4.98v-10.4h4.85v9.18
		c0,1.09,0.76,2.05,2.24,2.05c1.45,0,2.34-0.96,2.34-2.15v-9.08h4.85v14.95H96.18z"/>
	<path class="st0" d="M112.61,163.1c-0.3-0.17-0.96-0.36-1.45-0.36c-1.55,0-2.97,0.83-2.97,3.2v6.96h-4.85v-14.95h4.79v3.33h0.03
		c0.5-2.34,2.24-3.6,4.26-3.6c0.46,0,1.02,0.07,1.39,0.2L112.61,163.1z"/>
	<path class="st0" d="M128.39,164.59l-2.15,2.18h-7.33c0.23,1.22,1.88,2.61,4.42,2.61c1.55,0,3.14-0.46,4.13-1.12l-0.46,4.16
		c-1.12,0.59-2.84,0.99-4.75,0.99c-4.55,0-8.22-3.17-8.22-8.05c0-4.82,3.5-7.89,7.79-7.89c4.16,0,6.7,2.87,6.7,5.97
		C128.52,163.79,128.45,164.29,128.39,164.59z M121.82,161.09c-1.42,0-2.61,1.09-2.9,2.44h5.05c0-0.1,0.03-0.2,0.03-0.33
		C124,162.18,123.1,161.09,121.82,161.09z"/>
	<path class="st0" d="M145.25,173.37c-4.52,0-8.15-3.2-8.15-7.95c0-4.75,3.63-7.95,8.15-7.95c4.49,0,8.15,3.2,8.15,7.95
		C153.4,170.16,149.74,173.37,145.25,173.37z M145.25,161.68c-1.82,0-3.37,1.58-3.37,3.8c0,2.21,1.55,3.8,3.37,3.8
		c1.78,0,3.37-1.58,3.37-3.8C148.61,163.27,147.03,161.68,145.25,161.68z"/>
	<path class="st0" d="M165.25,172.9v-2.05h-0.03c-0.59,1.58-2.18,2.48-4.59,2.48c-3.27,0-5.25-1.82-5.25-4.98v-10.4h4.85v9.18
		c0,1.09,0.76,2.05,2.24,2.05c1.45,0,2.34-0.96,2.34-2.15v-9.08h4.85v14.95H165.25z"/>
	<path class="st0" d="M182.44,161.91h-3.89v5.54c0,1.29,0.69,1.82,1.98,1.82c0.56,0,0.89-0.03,1.25-0.2l-0.43,3.66
		c-0.46,0.23-1.29,0.4-2.24,0.4c-3.37,0-5.38-1.78-5.38-4.75v-6.47h-2.51v-3.96h2.51v-3.2l4.82-1.75v4.95h4.82L182.44,161.91z"/>
	<path class="st0" d="M200.98,171.42c-2.28,6.01-4.65,8.19-7.46,9.27l-2.97-2.97c2.41-0.92,4.26-2.67,5.48-5.84l-5.38-13.93h4.69
		l2.18,5.81c0.33,0.86,0.66,1.88,0.89,2.94h0.07c0.3-1.02,0.63-2.08,0.96-2.94l2.18-5.81h4.46L200.98,171.42z"/>
	<path class="st0" d="M214.22,173.37c-4.52,0-8.15-3.2-8.15-7.95c0-4.75,3.63-7.95,8.15-7.95c4.49,0,8.15,3.2,8.15,7.95
		C222.37,170.16,218.71,173.37,214.22,173.37z M214.22,161.68c-1.81,0-3.37,1.58-3.37,3.8c0,2.21,1.55,3.8,3.37,3.8
		c1.78,0,3.37-1.58,3.37-3.8C217.58,163.27,216,161.68,214.22,161.68z"/>
	<path class="st0" d="M234.21,172.9v-2.05h-0.03c-0.59,1.58-2.18,2.48-4.59,2.48c-3.27,0-5.25-1.82-5.25-4.98v-10.4h4.85v9.18
		c0,1.09,0.76,2.05,2.24,2.05c1.45,0,2.34-0.96,2.34-2.15v-9.08h4.85v14.95H234.21z"/>
	<path class="st0" d="M250.65,163.1c-0.3-0.17-0.96-0.36-1.45-0.36c-1.55,0-2.97,0.83-2.97,3.2v6.96h-4.85v-14.95h4.79v3.33h0.03
		c0.5-2.34,2.25-3.6,4.26-3.6c0.46,0,1.02,0.07,1.39,0.2L250.65,163.1z"/>
</g>
<g>
	<path class="st0" d="M81.79,211.52c-4.36,0-7.26-2.48-7.26-5.61c0-2.28,1.52-3.63,3.07-4.03l-1.91-1.91
		c0.13-0.96,0.96-1.78,1.82-2.15c-1.12-0.69-2.18-2.11-2.18-3.99c0-3.17,2.28-5.38,6.17-5.38c0.89,0,1.58,0.13,2.21,0.3
		c0.66,0.17,1.39,0.26,2.15,0.26c0.83,0,1.68-0.2,2.34-0.5l0.89,3.7c-0.46,0.26-1.19,0.5-1.85,0.46c0.17,0.3,0.36,0.99,0.36,1.52
		c0,2.51-1.98,4.62-4.88,4.82c-0.59,0.03-0.99,0.17-0.99,0.56c0,0.17,0.13,0.36,0.4,0.46l2.31,0.82c2.94,1.06,4.52,2.54,4.52,5.28
		C88.95,209.21,86.15,211.52,81.79,211.52z M82.81,204.49l-1.78-0.5c-1.15,0.03-2.01,0.86-2.01,1.95c0,1.02,0.89,1.88,2.64,1.88
		c1.72,0,2.64-0.79,2.64-1.65C84.3,205.48,83.77,204.75,82.81,204.49z M81.49,191.98c-1.09,0-1.91,0.83-1.91,1.78
		c0,0.99,0.83,1.78,1.91,1.78c1.06,0,1.91-0.79,1.91-1.78C83.41,192.8,82.62,191.98,81.49,191.98z"/>
	<path class="st0" d="M100.3,203.89v-2.05h-0.03c-0.59,1.58-2.18,2.48-4.59,2.48c-3.27,0-5.25-1.82-5.25-4.98v-10.4h4.85v9.18
		c0,1.09,0.76,2.05,2.24,2.05c1.45,0,2.34-0.96,2.34-2.15v-9.08h4.85v14.95H100.3z"/>
	<path class="st0" d="M117.99,204.55c-0.89-0.2-1.91-0.89-2.31-1.98c-0.66,1.22-2.08,1.82-3.89,1.82c-2.64,0-4.98-1.85-4.98-4.95
		c0-2.74,2.15-4.59,5.12-4.88l2.97-0.3v-0.5c0-0.89-0.73-1.49-2.34-1.49c-1.45,0-3.07,0.46-4.16,1.16l-0.86-3.66
		c1.22-0.79,3.27-1.32,5.25-1.32c3.96,0,6.77,1.82,6.77,5.41v4.88c0,1.75,0.66,2.67,1.81,3.1L117.99,204.55z M114.89,197.36
		l-1.82,0.17c-1.25,0.1-1.81,0.99-1.81,1.88c0,0.79,0.59,1.45,1.52,1.45c1.16,0,2.11-0.89,2.11-2.18V197.36z"/>
	<path class="st0" d="M131.92,194.09c-0.3-0.17-0.96-0.36-1.45-0.36c-1.55,0-2.97,0.83-2.97,3.2v6.96h-4.85v-14.95h4.79v3.33h0.03
		c0.5-2.34,2.24-3.6,4.26-3.6c0.46,0,1.02,0.07,1.39,0.2L131.92,194.09z"/>
	<path class="st0" d="M144.79,204.55c-0.89-0.2-1.91-0.89-2.31-1.98c-0.66,1.22-2.08,1.82-3.9,1.82c-2.64,0-4.98-1.85-4.98-4.95
		c0-2.74,2.15-4.59,5.12-4.88l2.97-0.3v-0.5c0-0.89-0.73-1.49-2.34-1.49c-1.45,0-3.07,0.46-4.16,1.16l-0.86-3.66
		c1.22-0.79,3.27-1.32,5.25-1.32c3.96,0,6.77,1.82,6.77,5.41v4.88c0,1.75,0.66,2.67,1.82,3.1L144.79,204.55z M141.68,197.36
		l-1.81,0.17c-1.25,0.1-1.81,0.99-1.81,1.88c0,0.79,0.59,1.45,1.52,1.45c1.16,0,2.11-0.89,2.11-2.18V197.36z"/>
	<path class="st0" d="M158.88,203.89v-9.18c0-1.09-0.73-2.05-2.21-2.05c-1.45,0-2.38,0.92-2.38,2.11v9.11h-4.85v-14.95h4.46v2.01
		h0.03c0.59-1.58,2.15-2.48,4.55-2.48c3.27,0,5.25,1.85,5.25,5.02v10.4H158.88z"/>
	<path class="st0" d="M176.23,192.9h-3.89v5.54c0,1.29,0.69,1.82,1.98,1.82c0.56,0,0.89-0.03,1.25-0.2l-0.43,3.66
		c-0.46,0.23-1.29,0.4-2.24,0.4c-3.37,0-5.38-1.78-5.38-4.75v-6.47h-2.51v-3.96h2.51v-3.2l4.82-1.75v4.95h4.82L176.23,192.9z"/>
	<path class="st0" d="M191.78,195.57l-2.14,2.18h-7.33c0.23,1.22,1.88,2.61,4.42,2.61c1.55,0,3.14-0.46,4.13-1.12l-0.46,4.16
		c-1.12,0.59-2.84,0.99-4.75,0.99c-4.55,0-8.22-3.17-8.22-8.05c0-4.82,3.5-7.89,7.79-7.89c4.16,0,6.7,2.87,6.7,5.97
		C191.91,194.78,191.84,195.28,191.78,195.57z M185.21,192.08c-1.42,0-2.61,1.09-2.9,2.44h5.05c0-0.1,0.03-0.2,0.03-0.33
		C187.39,193.16,186.5,192.08,185.21,192.08z"/>
	<path class="st0" d="M207.49,195.57l-2.14,2.18h-7.33c0.23,1.22,1.88,2.61,4.42,2.61c1.55,0,3.14-0.46,4.13-1.12l-0.46,4.16
		c-1.12,0.59-2.84,0.99-4.75,0.99c-4.55,0-8.22-3.17-8.22-8.05c0-4.82,3.5-7.89,7.79-7.89c4.16,0,6.7,2.87,6.7,5.97
		C207.62,194.78,207.55,195.28,207.49,195.57z M200.92,192.08c-1.42,0-2.61,1.09-2.9,2.44h5.05c0-0.1,0.03-0.2,0.03-0.33
		C203.1,193.16,202.21,192.08,200.92,192.08z"/>
	<path class="st0" d="M220.75,203.89v-1.85h-0.03c-0.83,1.52-2.54,2.28-4.62,2.28c-3.66,0-7.19-2.77-7.19-7.89
		c0-4.82,3.43-7.95,7.59-7.95c1.58,0,3.2,0.53,3.79,1.02v-9.11h4.72v23.5H220.75z M220.29,194.09c-0.46-0.63-1.45-1.35-2.94-1.35
		c-2.11,0-3.6,1.65-3.6,3.8c0,2.15,1.49,3.8,3.6,3.8c1.42,0,2.41-0.76,2.94-1.55V194.09z"/>
</g>
<g>
	<path class="st0" d="M51.63,235.47c-3.07-0.13-5.12-1.72-5.12-5.31v-18.78h4.79v18.19c0,1.22,0.69,1.88,2.01,1.98L51.63,235.47z"/>
	<path class="st0" d="M57.34,217.88c-0.86,0-2.61-1.75-2.61-2.61c0-0.86,1.75-2.57,2.61-2.57s2.61,1.72,2.61,2.57
		C59.94,216.13,58.19,217.88,57.34,217.88z M54.89,234.88v-14.95h4.88v14.95H54.89z"/>
	<path class="st0" d="M73.01,215.7c-0.56-0.23-1.35-0.4-1.95-0.4c-1.78,0-2.71,1.06-2.71,3.2v1.42h4.29l-0.96,3.96h-3.33v10.99
		h-4.69v-10.99h-2.28v-3.96h2.28v-1.75c0-4.55,2.94-6.8,6.7-6.8c1.39,0,2.77,0.17,3.53,0.5L73.01,215.7z"/>
	<path class="st0" d="M87.24,226.56l-2.15,2.18h-7.33c0.23,1.22,1.88,2.61,4.42,2.61c1.55,0,3.14-0.46,4.13-1.12l-0.46,4.16
		c-1.12,0.59-2.84,0.99-4.75,0.99c-4.55,0-8.22-3.17-8.22-8.05c0-4.82,3.5-7.89,7.79-7.89c4.16,0,6.7,2.87,6.7,5.97
		C87.37,225.77,87.3,226.26,87.24,226.56z M80.67,223.06c-1.42,0-2.61,1.09-2.9,2.44h5.05c0-0.1,0.03-0.2,0.03-0.33
		C82.85,224.15,81.95,223.06,80.67,223.06z"/>
	<path class="st0" d="M99.51,223.89h-3.89v5.54c0,1.29,0.69,1.82,1.98,1.82c0.56,0,0.89-0.03,1.25-0.2l-0.43,3.66
		c-0.46,0.23-1.29,0.4-2.24,0.4c-3.37,0-5.38-1.78-5.38-4.75v-6.47h-2.51v-3.96h2.51v-3.2l4.82-1.75v4.95h4.82L99.51,223.89z"/>
	<path class="st0" d="M104.23,217.88c-0.86,0-2.61-1.75-2.61-2.61c0-0.86,1.75-2.57,2.61-2.57s2.61,1.72,2.61,2.57
		C106.84,216.13,105.09,217.88,104.23,217.88z M101.79,234.88v-14.95h4.88v14.95H101.79z"/>
	<path class="st0" d="M127.89,234.88v-9.18c0-1.09-0.53-2.05-2.11-2.05c-1.55,0-2.24,0.92-2.24,2.11v9.11h-4.85v-9.18
		c0-1.09-0.53-2.05-2.11-2.05c-1.55,0-2.24,0.92-2.24,2.11v9.11h-4.85v-14.95h4.49v2.01H114c0.59-1.58,2.08-2.48,4.42-2.48
		c2.15,0,3.76,0.86,4.42,2.44c0.63-1.45,2.38-2.44,4.62-2.44c3.4,0,5.28,1.85,5.28,5.02v10.4H127.89z"/>
	<path class="st0" d="M149.14,226.56l-2.15,2.18h-7.33c0.23,1.22,1.88,2.61,4.42,2.61c1.55,0,3.14-0.46,4.13-1.12l-0.46,4.16
		c-1.12,0.59-2.84,0.99-4.75,0.99c-4.56,0-8.22-3.17-8.22-8.05c0-4.82,3.5-7.89,7.79-7.89c4.16,0,6.7,2.87,6.7,5.97
		C149.27,225.77,149.21,226.26,149.14,226.56z M142.57,223.06c-1.42,0-2.61,1.09-2.9,2.44h5.05c0-0.1,0.03-0.2,0.03-0.33
		C144.75,224.15,143.86,223.06,142.57,223.06z"/>
	<path class="st0" d="M160.99,217.88c-0.86,0-2.61-1.75-2.61-2.61c0-0.86,1.75-2.57,2.61-2.57s2.61,1.72,2.61,2.57
		C163.59,216.13,161.85,217.88,160.99,217.88z M158.54,234.88v-14.95h4.88v14.95H158.54z"/>
	<path class="st0" d="M175.67,234.88v-9.18c0-1.09-0.73-2.05-2.21-2.05c-1.45,0-2.38,0.92-2.38,2.11v9.11h-4.85v-14.95h4.46v2.01
		h0.03c0.59-1.58,2.15-2.48,4.55-2.48c3.27,0,5.25,1.85,5.25,5.02v10.4H175.67z"/>
	<path class="st0" d="M194.52,224.75c-0.99-0.63-2.01-0.96-3.2-0.96c-2.11,0-3.79,1.52-3.79,3.7c0,2.15,1.68,3.7,3.89,3.7
		c1.25,0,2.21-0.26,3.27-0.83l-0.43,4.13c-0.99,0.46-2.28,0.73-3.66,0.73c-4.19,0-8.09-2.97-8.09-7.79c0-4.88,3.93-7.82,7.99-7.82
		c1.98,0,3.6,0.4,4.92,1.12L194.52,224.75z"/>
	<path class="st0" d="M204.58,235.34c-4.52,0-8.15-3.2-8.15-7.95c0-4.75,3.63-7.95,8.15-7.95c4.49,0,8.15,3.2,8.15,7.95
		C212.73,232.14,209.07,235.34,204.58,235.34z M204.58,223.66c-1.81,0-3.37,1.58-3.37,3.8c0,2.21,1.55,3.8,3.37,3.8
		c1.78,0,3.37-1.58,3.37-3.8C207.95,225.24,206.36,223.66,204.58,223.66z"/>
	<path class="st0" d="M233.16,234.88v-9.18c0-1.09-0.53-2.05-2.11-2.05c-1.55,0-2.24,0.92-2.24,2.11v9.11h-4.85v-9.18
		c0-1.09-0.53-2.05-2.11-2.05c-1.55,0-2.24,0.92-2.24,2.11v9.11h-4.85v-14.95h4.49v2.01h0.03c0.59-1.58,2.08-2.48,4.42-2.48
		c2.15,0,3.76,0.86,4.42,2.44c0.63-1.45,2.38-2.44,4.62-2.44c3.4,0,5.28,1.85,5.28,5.02v10.4H233.16z"/>
	<path class="st0" d="M254.41,226.56l-2.14,2.18h-7.33c0.23,1.22,1.88,2.61,4.42,2.61c1.55,0,3.14-0.46,4.13-1.12l-0.46,4.16
		c-1.12,0.59-2.84,0.99-4.75,0.99c-4.55,0-8.22-3.17-8.22-8.05c0-4.82,3.5-7.89,7.79-7.89c4.16,0,6.7,2.87,6.7,5.97
		C254.54,225.77,254.48,226.26,254.41,226.56z M247.84,223.06c-1.42,0-2.61,1.09-2.9,2.44h5.05c0-0.1,0.03-0.2,0.03-0.33
		C250.02,224.15,249.13,223.06,247.84,223.06z"/>
</g>
</svg>
