<?xml version="1.0" encoding="utf-8"?>
<!-- Generator: Adobe Illustrator 24.0.0, SVG Export Plug-In . SVG Version: 6.00 Build 0)  -->
<svg version="1.1" id="Layer_1" xmlns="http://www.w3.org/2000/svg" xmlns:xlink="http://www.w3.org/1999/xlink" x="0px" y="0px"
	 viewBox="0 0 300 600" style="enable-background:new 0 0 300 600;" xml:space="preserve">
<style type="text/css">
	.st0{fill:#F8DF1F;}
</style>
<g>
	<path class="st0" d="M112.36,172.04h-3.27l-3.07-9.31c-0.46-1.39-0.89-2.84-1.39-4.69h-0.07c-0.46,1.81-0.92,3.33-1.39,4.69
		l-3.07,9.31h-3.2l-7.03-21.19h4.98l2.74,8.52c0.4,1.29,0.83,2.64,1.16,4.22h0.07c0.3-1.58,0.69-2.9,1.12-4.22l2.77-8.52h4.39
		l2.74,8.48c0.4,1.19,0.79,2.71,1.12,4.26h0.07c0.26-1.52,0.73-3.04,1.12-4.22l2.81-8.52h4.42L112.36,172.04z"/>
	<path class="st0" d="M123.28,154.91c-0.86,0-2.61-1.75-2.61-2.61c0-0.86,1.75-2.57,2.61-2.57s2.61,1.72,2.61,2.57
		C125.88,153.16,124.13,154.91,123.28,154.91z M120.83,171.9v-14.95h4.88v14.95H120.83z"/>
	<path class="st0" d="M133.64,172.5c-3.07-0.13-5.12-1.72-5.12-5.31V148.4h4.79v18.19c0,1.22,0.69,1.88,2.01,1.98L133.64,172.5z"/>
	<path class="st0" d="M141.92,172.5c-3.07-0.13-5.12-1.72-5.12-5.31V148.4h4.79v18.19c0,1.22,0.69,1.88,2.01,1.98L141.92,172.5z"/>
	<path class="st0" d="M161.59,170.42c-2.28,6.01-4.65,8.19-7.46,9.27l-2.97-2.97c2.41-0.92,4.26-2.67,5.48-5.84l-5.38-13.93h4.69
		l2.18,5.81c0.33,0.86,0.66,1.88,0.89,2.94h0.07c0.3-1.02,0.63-2.08,0.96-2.94l2.18-5.81h4.46L161.59,170.42z"/>
	<path class="st0" d="M174.82,172.37c-4.52,0-8.15-3.2-8.15-7.95c0-4.75,3.63-7.95,8.15-7.95c4.49,0,8.15,3.2,8.15,7.95
		C182.97,169.16,179.31,172.37,174.82,172.37z M174.82,160.68c-1.81,0-3.37,1.58-3.37,3.8c0,2.21,1.55,3.8,3.37,3.8
		c1.78,0,3.37-1.58,3.37-3.8C178.19,162.27,176.6,160.68,174.82,160.68z"/>
	<path class="st0" d="M194.82,171.9v-2.05h-0.03c-0.59,1.58-2.18,2.48-4.59,2.48c-3.27,0-5.25-1.82-5.25-4.98v-10.4h4.85v9.18
		c0,1.09,0.76,2.05,2.24,2.05c1.45,0,2.34-0.96,2.34-2.15v-9.08h4.85v14.95H194.82z"/>
	<path class="st0" d="M211.25,162.1c-0.3-0.17-0.96-0.36-1.45-0.36c-1.55,0-2.97,0.83-2.97,3.2v6.96h-4.85v-14.95h4.79v3.33h0.03
		c0.5-2.34,2.25-3.6,4.26-3.6c0.46,0,1.02,0.07,1.39,0.2L211.25,162.1z"/>
</g>
<g>
	<path class="st0" d="M38.14,193.09c-0.3-0.17-0.96-0.36-1.45-0.36c-1.55,0-2.97,0.83-2.97,3.2v6.96h-4.85v-14.95h4.79v3.33h0.03
		c0.5-2.34,2.24-3.6,4.26-3.6c0.46,0,1.02,0.07,1.39,0.2L38.14,193.09z"/>
	<path class="st0" d="M53.91,194.57l-2.15,2.18h-7.33c0.23,1.22,1.88,2.61,4.42,2.61c1.55,0,3.14-0.46,4.13-1.12l-0.46,4.16
		c-1.12,0.59-2.84,0.99-4.75,0.99c-4.55,0-8.22-3.17-8.22-8.05c0-4.82,3.5-7.89,7.79-7.89c4.16,0,6.7,2.87,6.7,5.97
		C54.04,193.78,53.98,194.28,53.91,194.57z M47.34,191.08c-1.42,0-2.61,1.09-2.9,2.44h5.05c0-0.1,0.03-0.2,0.03-0.33
		C49.52,192.16,48.63,191.08,47.34,191.08z"/>
	<path class="st0" d="M66.19,191.9h-3.89v5.54c0,1.29,0.69,1.82,1.98,1.82c0.56,0,0.89-0.03,1.25-0.2l-0.43,3.66
		c-0.46,0.23-1.29,0.4-2.24,0.4c-3.37,0-5.38-1.78-5.38-4.75v-6.47h-2.51v-3.96h2.51v-3.2l4.82-1.75v4.95h4.82L66.19,191.9z"/>
	<path class="st0" d="M70.91,185.89c-0.86,0-2.61-1.75-2.61-2.61c0-0.86,1.75-2.57,2.61-2.57s2.61,1.72,2.61,2.57
		C73.51,184.14,71.76,185.89,70.91,185.89z M68.46,202.89v-14.95h4.88v14.95H68.46z"/>
	<path class="st0" d="M85.43,193.09c-0.3-0.17-0.96-0.36-1.45-0.36c-1.55,0-2.97,0.83-2.97,3.2v6.96h-4.85v-14.95h4.79v3.33h0.03
		c0.5-2.34,2.24-3.6,4.26-3.6c0.46,0,1.02,0.07,1.39,0.2L85.43,193.09z"/>
	<path class="st0" d="M101.2,194.57l-2.15,2.18h-7.33c0.23,1.22,1.88,2.61,4.42,2.61c1.55,0,3.14-0.46,4.13-1.12l-0.46,4.16
		c-1.12,0.59-2.84,0.99-4.75,0.99c-4.55,0-8.22-3.17-8.22-8.05c0-4.82,3.5-7.89,7.79-7.89c4.16,0,6.7,2.87,6.7,5.97
		C101.33,193.78,101.27,194.28,101.2,194.57z M94.63,191.08c-1.42,0-2.61,1.09-2.9,2.44h5.05c0-0.1,0.03-0.2,0.03-0.33
		C96.81,192.16,95.92,191.08,94.63,191.08z"/>
	<path class="st0" d="M121.76,202.89v-9.18c0-1.09-0.53-2.05-2.11-2.05c-1.55,0-2.24,0.92-2.24,2.11v9.11h-4.85v-9.18
		c0-1.09-0.53-2.05-2.11-2.05c-1.55,0-2.24,0.92-2.24,2.11v9.11h-4.85v-14.95h4.49v2.01h0.03c0.59-1.58,2.08-2.48,4.42-2.48
		c2.15,0,3.76,0.86,4.42,2.44c0.63-1.45,2.38-2.44,4.62-2.44c3.4,0,5.28,1.85,5.28,5.02v10.4H121.76z"/>
	<path class="st0" d="M143.01,194.57l-2.15,2.18h-7.33c0.23,1.22,1.88,2.61,4.42,2.61c1.55,0,3.14-0.46,4.13-1.12l-0.46,4.16
		c-1.12,0.59-2.84,0.99-4.75,0.99c-4.55,0-8.22-3.17-8.22-8.05c0-4.82,3.5-7.89,7.79-7.89c4.16,0,6.7,2.87,6.7,5.97
		C143.14,193.78,143.08,194.28,143.01,194.57z M136.44,191.08c-1.42,0-2.61,1.09-2.9,2.44h5.05c0-0.1,0.03-0.2,0.03-0.33
		C138.62,192.16,137.73,191.08,136.44,191.08z"/>
	<path class="st0" d="M154.59,202.89v-9.18c0-1.09-0.73-2.05-2.21-2.05c-1.45,0-2.38,0.92-2.38,2.11v9.11h-4.85v-14.95h4.46v2.01
		h0.03c0.59-1.58,2.15-2.48,4.55-2.48c3.27,0,5.25,1.85,5.25,5.02v10.4H154.59z"/>
	<path class="st0" d="M171.92,191.9h-3.89v5.54c0,1.29,0.69,1.82,1.98,1.82c0.56,0,0.89-0.03,1.25-0.2l-0.43,3.66
		c-0.46,0.23-1.29,0.4-2.24,0.4c-3.37,0-5.38-1.78-5.38-4.75v-6.47h-2.51v-3.96h2.51v-3.2l4.82-1.75v4.95h4.82L171.92,191.9z"/>
	<path class="st0" d="M186.14,203.22c-2.05,0-3.53-0.43-4.75-1.06l-0.43-4.29c1.32,0.92,3.04,1.62,4.69,1.62
		c0.89,0,1.45-0.46,1.45-1.02c0-0.63-0.5-0.89-1.35-1.15c-2.87-0.83-4.59-2.28-4.59-4.88c0-2.94,2.38-4.82,5.61-4.82
		c1.85,0,3.66,0.5,4.42,0.89l-0.83,3.56c-0.73-0.4-1.91-0.83-3.1-0.83c-0.79,0-1.32,0.36-1.32,0.96c0,0.56,0.4,0.86,1.32,1.09
		c3.37,0.89,4.75,2.57,4.75,5.08C192.01,200.91,190.17,203.22,186.14,203.22z"/>
	<path class="st0" d="M204.52,203.55c-0.89-0.2-1.91-0.89-2.31-1.98c-0.66,1.22-2.08,1.82-3.89,1.82c-2.64,0-4.98-1.85-4.98-4.95
		c0-2.74,2.15-4.59,5.12-4.88l2.97-0.3v-0.5c0-0.89-0.73-1.49-2.34-1.49c-1.45,0-3.07,0.46-4.16,1.16l-0.86-3.66
		c1.22-0.79,3.27-1.32,5.25-1.32c3.96,0,6.77,1.82,6.77,5.41v4.88c0,1.75,0.66,2.67,1.82,3.1L204.52,203.55z M201.42,196.36
		l-1.82,0.17c-1.25,0.1-1.82,0.99-1.82,1.88c0,0.79,0.59,1.45,1.52,1.45c1.16,0,2.11-0.89,2.11-2.18V196.36z"/>
	<path class="st0" d="M216.5,203.02h-3.63l-5.74-15.08h4.69l2.11,5.71c0.3,0.79,0.59,1.91,0.83,2.9h0.07
		c0.23-0.96,0.56-2.11,0.86-2.9l2.11-5.71h4.49L216.5,203.02z"/>
	<path class="st0" d="M226.1,185.89c-0.86,0-2.61-1.75-2.61-2.61c0-0.86,1.75-2.57,2.61-2.57s2.61,1.72,2.61,2.57
		C228.71,184.14,226.96,185.89,226.1,185.89z M223.66,202.89v-14.95h4.88v14.95H223.66z"/>
	<path class="st0" d="M240.79,202.89v-9.18c0-1.09-0.73-2.05-2.21-2.05c-1.45,0-2.38,0.92-2.38,2.11v9.11h-4.85v-14.95h4.46v2.01
		h0.03c0.59-1.58,2.15-2.48,4.55-2.48c3.27,0,5.25,1.85,5.25,5.02v10.4H240.79z"/>
	<path class="st0" d="M254.58,210.52c-4.36,0-7.26-2.48-7.26-5.61c0-2.28,1.52-3.63,3.07-4.03l-1.91-1.91
		c0.13-0.96,0.96-1.78,1.81-2.15c-1.12-0.69-2.18-2.11-2.18-3.99c0-3.17,2.28-5.38,6.17-5.38c0.89,0,1.58,0.13,2.21,0.3
		c0.66,0.17,1.39,0.26,2.15,0.26c0.83,0,1.68-0.2,2.34-0.5l0.89,3.7c-0.46,0.26-1.19,0.5-1.85,0.46c0.16,0.3,0.36,0.99,0.36,1.52
		c0,2.51-1.98,4.62-4.88,4.82c-0.59,0.03-0.99,0.17-0.99,0.56c0,0.17,0.13,0.36,0.4,0.46l2.31,0.82c2.94,1.06,4.52,2.54,4.52,5.28
		C261.74,208.21,258.94,210.52,254.58,210.52z M255.6,203.49l-1.78-0.5c-1.16,0.03-2.01,0.86-2.01,1.95c0,1.02,0.89,1.88,2.64,1.88
		c1.72,0,2.64-0.79,2.64-1.65C257.09,204.48,256.56,203.75,255.6,203.49z M254.28,190.98c-1.09,0-1.91,0.83-1.91,1.78
		c0,0.99,0.83,1.78,1.91,1.78c1.06,0,1.91-0.79,1.91-1.78C256.2,191.8,255.41,190.98,254.28,190.98z"/>
	<path class="st0" d="M268.14,203.22c-2.05,0-3.53-0.43-4.75-1.06l-0.43-4.29c1.32,0.92,3.04,1.62,4.69,1.62
		c0.89,0,1.45-0.46,1.45-1.02c0-0.63-0.5-0.89-1.35-1.15c-2.87-0.83-4.59-2.28-4.59-4.88c0-2.94,2.38-4.82,5.61-4.82
		c1.85,0,3.66,0.5,4.42,0.89l-0.83,3.56c-0.73-0.4-1.91-0.83-3.1-0.83c-0.79,0-1.32,0.36-1.32,0.96c0,0.56,0.4,0.86,1.32,1.09
		c3.37,0.89,4.75,2.57,4.75,5.08C274.02,200.91,272.17,203.22,268.14,203.22z"/>
</g>
<g>
	<path class="st0" d="M65.79,234.31c-3.17,0-5.74-1.09-7.2-2.21v-21.72h4.69v9.08c0.63-0.5,2.21-0.99,3.76-0.99
		c4.13,0,7.53,2.94,7.53,7.66C74.57,230.74,71.63,234.31,65.79,234.31z M66.19,222.72c-1.39,0-2.44,0.66-2.9,1.16v5.71
		c0.5,0.36,1.52,0.73,2.44,0.73c2.48,0,4.03-1.68,4.03-3.86C69.75,224.37,68.3,222.72,66.19,222.72z"/>
	<path class="st0" d="M90.28,225.56l-2.15,2.18h-7.33c0.23,1.22,1.88,2.61,4.42,2.61c1.55,0,3.14-0.46,4.13-1.12l-0.46,4.16
		c-1.12,0.59-2.84,0.99-4.75,0.99c-4.55,0-8.22-3.17-8.22-8.05c0-4.82,3.5-7.89,7.79-7.89c4.16,0,6.7,2.87,6.7,5.97
		C90.41,224.77,90.34,225.26,90.28,225.56z M83.71,222.06c-1.42,0-2.61,1.09-2.9,2.44h5.05c0-0.1,0.03-0.2,0.03-0.33
		C85.89,223.15,85,222.06,83.71,222.06z"/>
	<path class="st0" d="M108.79,224.08c-0.3-0.17-0.96-0.36-1.45-0.36c-1.55,0-2.97,0.83-2.97,3.2v6.96h-4.85v-14.95h4.79v3.33h0.03
		c0.5-2.34,2.24-3.6,4.26-3.6c0.46,0,1.02,0.07,1.39,0.2L108.79,224.08z"/>
	<path class="st0" d="M124.6,225.56l-2.15,2.18h-7.33c0.23,1.22,1.88,2.61,4.42,2.61c1.55,0,3.14-0.46,4.13-1.12l-0.46,4.16
		c-1.12,0.59-2.84,0.99-4.75,0.99c-4.55,0-8.22-3.17-8.22-8.05c0-4.82,3.5-7.89,7.79-7.89c4.16,0,6.7,2.87,6.7,5.97
		C124.73,224.77,124.66,225.26,124.6,225.56z M118.03,222.06c-1.42,0-2.61,1.09-2.9,2.44h5.05c0-0.1,0.03-0.2,0.03-0.33
		C120.21,223.15,119.32,222.06,118.03,222.06z"/>
	<path class="st0" d="M137.07,234.54c-0.89-0.2-1.91-0.89-2.31-1.98c-0.66,1.22-2.08,1.82-3.89,1.82c-2.64,0-4.98-1.85-4.98-4.95
		c0-2.74,2.15-4.59,5.12-4.88l2.97-0.3v-0.5c0-0.89-0.73-1.49-2.34-1.49c-1.45,0-3.07,0.46-4.16,1.16l-0.86-3.66
		c1.22-0.79,3.27-1.32,5.25-1.32c3.96,0,6.77,1.82,6.77,5.41v4.88c0,1.75,0.66,2.67,1.81,3.1L137.07,234.54z M133.97,227.34
		l-1.82,0.17c-1.25,0.1-1.81,0.99-1.81,1.88c0,0.79,0.59,1.45,1.52,1.45c1.16,0,2.11-0.89,2.11-2.18V227.34z"/>
	<path class="st0" d="M152.68,233.88v-1.85h-0.03c-0.83,1.52-2.54,2.28-4.62,2.28c-3.66,0-7.2-2.77-7.2-7.89
		c0-4.82,3.43-7.95,7.59-7.95c1.58,0,3.2,0.53,3.8,1.02v-9.11h4.72v23.5H152.68z M152.22,224.08c-0.46-0.63-1.45-1.35-2.94-1.35
		c-2.11,0-3.6,1.65-3.6,3.8c0,2.15,1.49,3.8,3.6,3.8c1.42,0,2.41-0.76,2.94-1.55V224.08z"/>
	<path class="st0" d="M168.62,232.39c-2.28,6.01-4.65,8.19-7.46,9.27l-2.97-2.97c2.41-0.92,4.26-2.67,5.48-5.84l-5.38-13.93h4.69
		l2.18,5.81c0.33,0.86,0.66,1.88,0.89,2.94h0.07c0.3-1.02,0.63-2.08,0.96-2.94l2.18-5.81h4.46L168.62,232.39z"/>
	<path class="st0" d="M174.49,238.83l-1.52-0.26c1.12-1.29,1.98-3.17,2.18-4.65c-0.83-0.17-2.18-1.58-2.18-2.31
		c0-0.96,1.88-2.71,2.74-2.71c0.76,0,2.74,1.68,2.74,2.71C178.45,233.68,176.44,237.05,174.49,238.83z"/>
	<path class="st0" d="M197.66,222.89h-3.89v5.54c0,1.29,0.69,1.82,1.98,1.82c0.56,0,0.89-0.03,1.25-0.2l-0.43,3.66
		c-0.46,0.23-1.29,0.4-2.24,0.4c-3.37,0-5.38-1.78-5.38-4.75v-6.47h-2.51v-3.96h2.51v-3.2l4.82-1.75v4.95h4.82L197.66,222.89z"/>
	<path class="st0" d="M207,234.34c-4.52,0-8.15-3.2-8.15-7.95c0-4.75,3.63-7.95,8.15-7.95c4.49,0,8.15,3.2,8.15,7.95
		C215.15,231.14,211.48,234.34,207,234.34z M207,222.66c-1.81,0-3.37,1.58-3.37,3.8c0,2.21,1.55,3.8,3.37,3.8
		c1.78,0,3.37-1.58,3.37-3.8C210.36,224.24,208.78,222.66,207,222.66z"/>
	<path class="st0" d="M224.58,234.34c-4.52,0-8.15-3.2-8.15-7.95c0-4.75,3.63-7.95,8.15-7.95c4.49,0,8.15,3.2,8.15,7.95
		C232.74,231.14,229.07,234.34,224.58,234.34z M224.58,222.66c-1.81,0-3.37,1.58-3.37,3.8c0,2.21,1.55,3.8,3.37,3.8
		c1.78,0,3.37-1.58,3.37-3.8C227.95,224.24,226.37,222.66,224.58,222.66z"/>
	<path class="st0" d="M241.35,223.51c-0.83,0.92-1.16,1.72-1.16,2.61c0,0.46,0.03,1.02,0.13,1.45l-4.16-0.83
		c-0.17-0.66-0.23-1.16-0.23-1.68c0-1.78,0.69-3.27,1.91-4.55c0.86-0.89,1.29-1.52,1.29-2.48c0-0.69-0.66-1.49-1.82-1.49
		c-1.19,0-2.24,0.43-3.37,1.09l-0.99-4.09c1.22-0.76,2.84-1.25,4.72-1.25c3.89,0,6.47,2.24,6.47,5.58
		C244.15,219.85,243.3,221.4,241.35,223.51z M238.34,234.34c-0.89,0-2.74-1.85-2.74-2.74c0-0.86,1.85-2.71,2.74-2.71
		c0.89,0,2.74,1.85,2.74,2.71C241.08,232.49,239.27,234.34,238.34,234.34z"/>
</g>
</svg>
