<?xml version="1.0" encoding="utf-8"?>
<!-- Generator: Adobe Illustrator 24.0.0, SVG Export Plug-In . SVG Version: 6.00 Build 0)  -->
<svg version="1.1" id="Layer_1" xmlns="http://www.w3.org/2000/svg" xmlns:xlink="http://www.w3.org/1999/xlink" x="0px" y="0px"
	 viewBox="0 0 300 600" style="enable-background:new 0 0 300 600;" xml:space="preserve">
<style type="text/css">
	.st0{fill:#F8DF1F;}
</style>
<g>
	<path class="st0" d="M39.97,311.01v4.16h5.97v4.29h-5.97v8.42h-5.02v-21.06H47.2v4.19H39.97z"/>
	<path class="st0" d="M51.09,310.88c-0.86,0-2.61-1.75-2.61-2.61c0-0.86,1.75-2.57,2.61-2.57s2.61,1.72,2.61,2.57
		C53.7,309.12,51.95,310.88,51.09,310.88z M48.65,327.87v-14.95h4.88v14.95H48.65z"/>
	<path class="st0" d="M65.75,327.87v-9.18c0-1.09-0.73-2.05-2.21-2.05c-1.45,0-2.38,0.92-2.38,2.11v9.11h-4.85v-14.95h4.46v2.01
		h0.03c0.59-1.58,2.15-2.48,4.55-2.48c3.27,0,5.25,1.85,5.25,5.02v10.4H65.75z"/>
	<path class="st0" d="M75.81,310.88c-0.86,0-2.61-1.75-2.61-2.61c0-0.86,1.75-2.57,2.61-2.57s2.61,1.72,2.61,2.57
		C78.42,309.12,76.67,310.88,75.81,310.88z M73.37,327.87v-14.95h4.88v14.95H73.37z"/>
	<path class="st0" d="M85.81,328.2c-2.05,0-3.53-0.43-4.75-1.06l-0.43-4.29c1.32,0.92,3.04,1.62,4.69,1.62
		c0.89,0,1.45-0.46,1.45-1.02c0-0.63-0.5-0.89-1.35-1.16c-2.87-0.83-4.59-2.28-4.59-4.88c0-2.94,2.38-4.82,5.61-4.82
		c1.85,0,3.66,0.5,4.42,0.89l-0.83,3.56c-0.73-0.4-1.91-0.83-3.1-0.83c-0.79,0-1.32,0.36-1.32,0.96c0,0.56,0.4,0.86,1.32,1.09
		c3.37,0.89,4.75,2.57,4.75,5.08C91.69,325.89,89.84,328.2,85.81,328.2z"/>
	<path class="st0" d="M103.23,327.87v-9.18c0-1.09-0.76-2.05-2.24-2.05c-1.45,0-2.34,0.92-2.34,2.11v9.11h-4.85v-23.5h4.79v9.93
		h0.03c0.76-1.15,2.15-1.85,4.22-1.85c3.3,0,5.25,1.85,5.25,5.02v10.4H103.23z"/>
	<path class="st0" d="M129.24,317.74c-0.99-0.63-2.01-0.96-3.2-0.96c-2.11,0-3.8,1.52-3.8,3.7c0,2.15,1.68,3.7,3.89,3.7
		c1.25,0,2.21-0.26,3.27-0.83l-0.43,4.12c-0.99,0.46-2.28,0.73-3.66,0.73c-4.19,0-8.09-2.97-8.09-7.79c0-4.88,3.93-7.82,7.99-7.82
		c1.98,0,3.6,0.4,4.92,1.12L129.24,317.74z"/>
	<path class="st0" d="M142.5,328.53c-0.89-0.2-1.91-0.89-2.31-1.98c-0.66,1.22-2.08,1.82-3.89,1.82c-2.64,0-4.98-1.85-4.98-4.95
		c0-2.74,2.15-4.59,5.12-4.88l2.97-0.3v-0.5c0-0.89-0.73-1.49-2.34-1.49c-1.45,0-3.07,0.46-4.16,1.16l-0.86-3.66
		c1.22-0.79,3.27-1.32,5.25-1.32c3.96,0,6.77,1.82,6.77,5.41v4.88c0,1.75,0.66,2.67,1.82,3.1L142.5,328.53z M139.4,321.34
		l-1.82,0.17c-1.25,0.1-1.81,0.99-1.81,1.88c0,0.79,0.59,1.45,1.52,1.45c1.16,0,2.11-0.89,2.11-2.18V321.34z"/>
	<path class="st0" d="M152.17,328.47c-3.07-0.13-5.12-1.72-5.12-5.31v-18.78h4.79v18.19c0,1.22,0.69,1.88,2.01,1.98L152.17,328.47z"
		/>
	<path class="st0" d="M166.53,317.74c-0.99-0.63-2.01-0.96-3.2-0.96c-2.11,0-3.79,1.52-3.79,3.7c0,2.15,1.68,3.7,3.89,3.7
		c1.25,0,2.21-0.26,3.27-0.83l-0.43,4.12c-0.99,0.46-2.28,0.73-3.66,0.73c-4.19,0-8.09-2.97-8.09-7.79c0-4.88,3.93-7.82,7.99-7.82
		c1.98,0,3.6,0.4,4.92,1.12L166.53,317.74z"/>
	<path class="st0" d="M179.17,327.87v-2.05h-0.03c-0.59,1.58-2.18,2.47-4.59,2.47c-3.27,0-5.25-1.81-5.25-4.98v-10.4h4.85v9.18
		c0,1.09,0.76,2.05,2.24,2.05c1.45,0,2.34-0.96,2.34-2.15v-9.08h4.85v14.95H179.17z"/>
	<path class="st0" d="M191.47,328.47c-3.07-0.13-5.12-1.72-5.12-5.31v-18.78h4.79v18.19c0,1.22,0.69,1.88,2.01,1.98L191.47,328.47z"
		/>
	<path class="st0" d="M205.37,328.53c-0.89-0.2-1.91-0.89-2.31-1.98c-0.66,1.22-2.08,1.82-3.89,1.82c-2.64,0-4.98-1.85-4.98-4.95
		c0-2.74,2.15-4.59,5.12-4.88l2.97-0.3v-0.5c0-0.89-0.73-1.49-2.34-1.49c-1.45,0-3.07,0.46-4.16,1.16l-0.86-3.66
		c1.22-0.79,3.27-1.32,5.25-1.32c3.96,0,6.77,1.82,6.77,5.41v4.88c0,1.75,0.66,2.67,1.82,3.1L205.37,328.53z M202.27,321.34
		l-1.82,0.17c-1.25,0.1-1.82,0.99-1.82,1.88c0,0.79,0.59,1.45,1.52,1.45c1.16,0,2.11-0.89,2.11-2.18V321.34z"/>
	<path class="st0" d="M219.62,316.88h-3.89v5.54c0,1.29,0.69,1.81,1.98,1.81c0.56,0,0.89-0.03,1.25-0.2l-0.43,3.66
		c-0.46,0.23-1.29,0.4-2.24,0.4c-3.37,0-5.38-1.78-5.38-4.75v-6.47h-2.51v-3.96h2.51v-3.2l4.82-1.75v4.95h4.82L219.62,316.88z"/>
	<path class="st0" d="M224.34,310.88c-0.86,0-2.61-1.75-2.61-2.61c0-0.86,1.75-2.57,2.61-2.57s2.61,1.72,2.61,2.57
		C226.95,309.12,225.2,310.88,224.34,310.88z M221.9,327.87v-14.95h4.88v14.95H221.9z"/>
	<path class="st0" d="M238.99,327.87v-9.18c0-1.09-0.73-2.05-2.21-2.05c-1.45,0-2.38,0.92-2.38,2.11v9.11h-4.85v-14.95h4.46v2.01
		h0.03c0.59-1.58,2.15-2.48,4.55-2.48c3.27,0,5.25,1.85,5.25,5.02v10.4H238.99z"/>
	<path class="st0" d="M252.82,335.5c-4.36,0-7.26-2.48-7.26-5.61c0-2.28,1.52-3.63,3.07-4.03l-1.91-1.91
		c0.13-0.96,0.96-1.78,1.81-2.15c-1.12-0.69-2.18-2.11-2.18-3.99c0-3.17,2.28-5.38,6.17-5.38c0.89,0,1.58,0.13,2.21,0.3
		c0.66,0.17,1.39,0.26,2.15,0.26c0.83,0,1.68-0.2,2.34-0.5l0.89,3.7c-0.46,0.26-1.19,0.5-1.85,0.46c0.17,0.3,0.36,0.99,0.36,1.52
		c0,2.51-1.98,4.62-4.88,4.82c-0.59,0.03-0.99,0.17-0.99,0.56c0,0.17,0.13,0.36,0.4,0.46l2.31,0.83c2.94,1.06,4.52,2.54,4.52,5.28
		C259.98,333.19,257.18,335.5,252.82,335.5z M253.84,328.47l-1.78-0.5c-1.16,0.03-2.01,0.86-2.01,1.95c0,1.02,0.89,1.88,2.64,1.88
		c1.72,0,2.64-0.79,2.64-1.65C255.33,329.46,254.8,328.73,253.84,328.47z M252.52,315.96c-1.09,0-1.91,0.83-1.91,1.78
		c0,0.99,0.83,1.78,1.91,1.78c1.06,0,1.91-0.79,1.91-1.78C254.44,316.78,253.65,315.96,252.52,315.96z"/>
	<path class="st0" d="M263.31,328.33c-0.89,0-2.74-1.85-2.74-2.74c0-0.86,1.85-2.71,2.74-2.71c0.89,0,2.74,1.85,2.74,2.71
		C266.05,326.49,264.21,328.33,263.31,328.33z"/>
</g>
</svg>
