<?xml version="1.0" encoding="utf-8"?>
<!-- Generator: Adobe Illustrator 24.0.0, SVG Export Plug-In . SVG Version: 6.00 Build 0)  -->
<svg version="1.1" id="Layer_1" xmlns="http://www.w3.org/2000/svg" xmlns:xlink="http://www.w3.org/1999/xlink" x="0px" y="0px"
	 viewBox="0 0 300 600" style="enable-background:new 0 0 300 600;" xml:space="preserve">
<style type="text/css">
	.st0{fill:#F8DF1F;}
</style>
<g>
	<path class="st0" d="M112.81,266.19c-2.05,0-3.53-0.43-4.75-1.06l-0.43-4.29c1.32,0.92,3.04,1.62,4.69,1.62
		c0.89,0,1.45-0.46,1.45-1.02c0-0.63-0.5-0.89-1.35-1.15c-2.87-0.83-4.59-2.28-4.59-4.88c0-2.94,2.38-4.82,5.61-4.82
		c1.85,0,3.66,0.5,4.42,0.89l-0.83,3.56c-0.73-0.4-1.91-0.83-3.1-0.83c-0.79,0-1.32,0.36-1.32,0.96c0,0.56,0.4,0.86,1.32,1.09
		c3.37,0.89,4.75,2.57,4.75,5.08C118.68,263.88,116.84,266.19,112.81,266.19z"/>
	<path class="st0" d="M128.02,266.33c-4.52,0-8.15-3.2-8.15-7.95c0-4.75,3.63-7.95,8.15-7.95c4.49,0,8.15,3.2,8.15,7.95
		C136.17,263.13,132.51,266.33,128.02,266.33z M128.02,254.64c-1.82,0-3.37,1.58-3.37,3.8c0,2.21,1.55,3.8,3.37,3.8
		c1.78,0,3.37-1.58,3.37-3.8C131.39,256.23,129.81,254.64,128.02,254.64z"/>
	<path class="st0" d="M154.59,264.38c-2.28,6.01-4.65,8.19-7.46,9.27l-2.97-2.97c2.41-0.92,4.26-2.67,5.48-5.84l-5.38-13.93h4.69
		l2.18,5.81c0.33,0.86,0.66,1.88,0.89,2.94h0.07c0.3-1.02,0.63-2.08,0.96-2.94l2.18-5.81h4.46L154.59,264.38z"/>
	<path class="st0" d="M167.82,266.33c-4.52,0-8.15-3.2-8.15-7.95c0-4.75,3.63-7.95,8.15-7.95c4.49,0,8.15,3.2,8.15,7.95
		C175.97,263.13,172.31,266.33,167.82,266.33z M167.82,254.64c-1.81,0-3.37,1.58-3.37,3.8c0,2.21,1.55,3.8,3.37,3.8
		c1.78,0,3.37-1.58,3.37-3.8C171.19,256.23,169.6,254.64,167.82,254.64z"/>
	<path class="st0" d="M187.82,265.86v-2.05h-0.03c-0.59,1.58-2.18,2.48-4.59,2.48c-3.27,0-5.25-1.82-5.25-4.98v-10.4h4.85v9.18
		c0,1.09,0.76,2.05,2.24,2.05c1.45,0,2.34-0.96,2.34-2.15v-9.08h4.85v14.95H187.82z"/>
</g>
<g>
	<path class="st0" d="M66.81,296.85v-9.18c0-1.09-0.73-2.05-2.21-2.05c-1.45,0-2.38,0.92-2.38,2.11v9.11h-4.85V281.9h4.46v2.01h0.03
		c0.59-1.58,2.15-2.48,4.55-2.48c3.27,0,5.25,1.85,5.25,5.02v10.4H66.81z"/>
	<path class="st0" d="M88,288.53l-2.15,2.18h-7.33c0.23,1.22,1.88,2.61,4.42,2.61c1.55,0,3.14-0.46,4.13-1.12l-0.46,4.16
		c-1.12,0.59-2.84,0.99-4.75,0.99c-4.55,0-8.22-3.17-8.22-8.05c0-4.82,3.5-7.89,7.79-7.89c4.16,0,6.7,2.87,6.7,5.97
		C88.13,287.74,88.06,288.24,88,288.53z M81.43,285.04c-1.42,0-2.61,1.09-2.9,2.44h5.05c0-0.1,0.03-0.2,0.03-0.33
		C83.61,286.13,82.71,285.04,81.43,285.04z"/>
	<path class="st0" d="M97.76,296.98h-3.63l-5.74-15.08h4.69l2.11,5.71c0.3,0.79,0.59,1.91,0.83,2.9h0.07
		c0.23-0.96,0.56-2.11,0.86-2.9l2.11-5.71h4.49L97.76,296.98z"/>
	<path class="st0" d="M117.89,288.53l-2.15,2.18h-7.33c0.23,1.22,1.88,2.61,4.42,2.61c1.55,0,3.14-0.46,4.13-1.12l-0.46,4.16
		c-1.12,0.59-2.84,0.99-4.75,0.99c-4.55,0-8.22-3.17-8.22-8.05c0-4.82,3.5-7.89,7.79-7.89c4.16,0,6.7,2.87,6.7,5.97
		C118.02,287.74,117.96,288.24,117.89,288.53z M111.32,285.04c-1.42,0-2.61,1.09-2.9,2.44h5.05c0-0.1,0.03-0.2,0.03-0.33
		C113.5,286.13,112.61,285.04,111.32,285.04z"/>
	<path class="st0" d="M129.31,287.05c-0.3-0.17-0.96-0.36-1.45-0.36c-1.55,0-2.97,0.83-2.97,3.2v6.96h-4.85V281.9h4.79v3.33h0.03
		c0.5-2.34,2.24-3.6,4.26-3.6c0.46,0,1.02,0.07,1.39,0.2L129.31,287.05z"/>
	<path class="st0" d="M148.22,287.05c-0.3-0.17-0.96-0.36-1.45-0.36c-1.55,0-2.97,0.83-2.97,3.2v6.96h-4.85V281.9h4.79v3.33h0.03
		c0.5-2.34,2.24-3.6,4.26-3.6c0.46,0,1.02,0.07,1.39,0.2L148.22,287.05z"/>
	<path class="st0" d="M160.46,296.85v-2.05h-0.03c-0.59,1.58-2.18,2.48-4.59,2.48c-3.27,0-5.25-1.82-5.25-4.98v-10.4h4.85v9.18
		c0,1.09,0.76,2.05,2.24,2.05c1.45,0,2.34-0.96,2.34-2.15v-9.08h4.85v14.95H160.46z"/>
	<path class="st0" d="M177.06,296.85v-9.18c0-1.09-0.73-2.05-2.21-2.05c-1.45,0-2.38,0.92-2.38,2.11v9.11h-4.85V281.9h4.46v2.01
		h0.03c0.59-1.58,2.15-2.48,4.55-2.48c3.27,0,5.25,1.85,5.25,5.02v10.4H177.06z"/>
	<path class="st0" d="M199.2,297.31c-4.52,0-8.15-3.2-8.15-7.95c0-4.75,3.63-7.95,8.15-7.95c4.49,0,8.15,3.2,8.15,7.95
		C207.35,294.11,203.69,297.31,199.2,297.31z M199.2,285.63c-1.81,0-3.37,1.58-3.37,3.8c0,2.21,1.55,3.8,3.37,3.8
		c1.78,0,3.37-1.58,3.37-3.8C202.57,287.21,200.98,285.63,199.2,285.63z"/>
	<path class="st0" d="M219.2,296.85v-2.05h-0.03c-0.59,1.58-2.18,2.48-4.59,2.48c-3.27,0-5.25-1.82-5.25-4.98v-10.4h4.85v9.18
		c0,1.09,0.76,2.05,2.24,2.05c1.45,0,2.34-0.96,2.34-2.15v-9.08h4.85v14.95H219.2z"/>
	<path class="st0" d="M236.39,285.86h-3.89v5.54c0,1.29,0.69,1.82,1.98,1.82c0.56,0,0.89-0.03,1.25-0.2l-0.43,3.66
		c-0.46,0.23-1.29,0.4-2.24,0.4c-3.37,0-5.38-1.78-5.38-4.75v-6.47h-2.51v-3.96h2.51v-3.2l4.82-1.75v4.95h4.82L236.39,285.86z"/>
	<path class="st0" d="M240.62,297.31c-0.89,0-2.74-1.85-2.74-2.74c0-0.86,1.85-2.71,2.74-2.71c0.89,0,2.74,1.85,2.74,2.71
		C243.36,295.47,241.51,297.31,240.62,297.31z"/>
</g>
</svg>
