<?xml version="1.0" encoding="utf-8"?>
<!-- Generator: Adobe Illustrator 24.0.0, SVG Export Plug-In . SVG Version: 6.00 Build 0)  -->
<svg version="1.1" id="Layer_1" xmlns="http://www.w3.org/2000/svg" xmlns:xlink="http://www.w3.org/1999/xlink" x="0px" y="0px"
	 viewBox="0 0 300 600" style="enable-background:new 0 0 300 600;" xml:space="preserve">
<style type="text/css">
	.st0{fill:#28BDEF;}
</style>
<path class="st0" d="M81.32,487.23c-7.18,0-13,5.82-13,13V513c0,7.18,5.82,13,13,13h137.37c7.18,0,13-5.82,13-13v-12.77
	c0-7.18-5.82-13-13-13H81.32z"/>
<g>
	<path d="M116.55,500.54c1.58,0,2.95,0.1,4.15,1.23c1.18,1.12,1.7,2.64,1.7,4.23c0,1.47-0.45,2.9-1.42,4
		c-1.09,1.2-2.43,1.52-3.99,1.52h-3.62v-10.98H116.55z M115.92,509.46h0.86c1.07,0,1.76-0.21,2.35-1.17
		c0.43-0.7,0.61-1.55,0.61-2.37c0-0.86-0.26-1.79-0.78-2.48c-0.59-0.77-1.25-0.88-2.16-0.88h-0.88V509.46z"/>
	<path d="M126.56,511.52H124v-10.98h2.56V511.52z"/>
	<path d="M134.31,503.68c-0.32-0.93-0.91-1.3-1.89-1.3c-0.69,0-1.52,0.18-1.52,1.02c0,0.8,0.96,0.99,1.58,1.1
		c0.9,0.19,2.1,0.42,2.87,0.93c0.9,0.59,1.44,1.5,1.44,2.59c0,1.07-0.51,2.1-1.36,2.75c-0.88,0.69-2.08,0.9-3.19,0.9
		c-2.06,0-3.94-0.9-4.43-3.04l2.37-0.54c0.32,1.15,1.15,1.55,2.29,1.55c0.74,0,1.71-0.27,1.71-1.18c0-0.91-1.25-1.09-1.92-1.23
		c-1.95-0.4-3.87-0.98-3.87-3.38c0-1.02,0.4-1.92,1.18-2.58c0.8-0.67,1.74-0.9,2.75-0.9c1.92,0,3.49,0.67,4.16,2.58L134.31,503.68z"
		/>
	<path d="M144.55,504.8c-0.02-1.22-0.43-2.35-1.84-2.35c-1.81,0-1.98,2.37-1.98,3.7c0,1.5,0.18,3.44,2.11,3.44
		c1.2,0,1.76-1.01,1.91-2.07l2.5,0.16c-0.27,2.51-2,4-4.53,4c-3.27,0-4.85-2.66-4.85-5.65c0-3.04,1.63-5.65,4.93-5.65
		c2.75,0,4.16,1.6,4.45,4.24L144.55,504.8z"/>
	<path d="M149.6,509.95c-0.8-1.14-1.15-2.56-1.15-3.94c0-2.91,1.46-5.63,4.71-5.63c1.46,0,2.61,0.48,3.49,1.68
		c0.78,1.07,1.18,2.62,1.18,3.95c0,1.25-0.34,2.77-1.04,3.81c-0.85,1.25-2.14,1.86-3.63,1.86
		C151.67,511.68,150.46,511.17,149.6,509.95z M151.49,503.72c-0.26,0.66-0.35,1.6-0.35,2.29c0,1.38,0.21,3.57,2.02,3.57
		c0.88,0,1.36-0.43,1.65-1.25c0.26-0.67,0.34-1.58,0.34-2.3c0-0.8-0.08-1.75-0.4-2.48c-0.32-0.74-0.78-1.07-1.58-1.07
		C152.27,502.48,151.79,502.92,151.49,503.72z"/>
	<path d="M164.35,511.52h-2.77l-3.3-10.98h2.74l2.21,7.84l2.27-7.84h2.16L164.35,511.52z"/>
	<path d="M171.33,502.67v2.22h4.16v2.07h-4.16v2.43h5.28v2.13h-7.84v-10.98h7.84v2.13H171.33z"/>
	<path d="M180.66,511.52h-2.56v-10.98h4.63c0.98,0,1.97,0.02,2.82,0.56c0.9,0.59,1.39,1.66,1.39,2.74c0,1.25-0.72,2.4-1.9,2.83
		l2.03,4.85h-2.85l-1.68-4.34h-1.87V511.52z M180.66,505.29h1.41c0.53,0,1.1,0.05,1.57-0.22c0.42-0.26,0.64-0.77,0.64-1.25
		c0-0.43-0.26-0.9-0.62-1.12c-0.43-0.27-1.17-0.21-1.65-0.21h-1.34V505.29z"/>
</g>
</svg>
