<?xml version="1.0" encoding="utf-8"?>
<!-- Generator: Adobe Illustrator 24.0.0, SVG Export Plug-In . SVG Version: 6.00 Build 0)  -->
<svg version="1.1" id="Layer_1" xmlns="http://www.w3.org/2000/svg" xmlns:xlink="http://www.w3.org/1999/xlink" x="0px" y="0px"
	 viewBox="0 0 300 600" style="enable-background:new 0 0 300 600;" xml:space="preserve">
<style type="text/css">
	.st0{fill:#FFFFFF;}
	.st1{fill:#000001;}
</style>
<path class="st0" d="M168.19,484.26h-3.45c-1.75,0-3.17,1.8-3.17,3.41v-5.36c0-1.61-1.42-3.41-3.17-3.41h-3.45
	c-1.76,0-3.18,1.8-3.18,3.41v-3.42c0-1.61-1.42-3.41-3.17-3.41h-3.45c-1.75,0-3.17,1.8-3.17,3.41v-13.25c0-2.48-2.19-4.5-4.9-4.5
	c-2.71,0-4.9,2.01-4.9,4.5v26.14c-3.04-2.09-7.48-5.87-11.54-4.1c-2.91,1.27-2.24,5.15,0.65,8.05c5.06,5.06,10.39,15.08,12.37,20.86
	c3.11,9.1,4.87,13.1,4.87,13.1h26.18c0,0,2.91-9.35,5.65-15.02c0.32-0.67,1.03-1.99,1.03-6.53v-9.22v-11.24
	C171.36,486.06,169.94,484.26,168.19,484.26"/>
<path class="st1" d="M139.67,527.93h23.73c0.89-2.75,3.15-9.48,5.35-14.04c0.3-0.61,0.85-1.76,0.85-5.77v-20.46
	c0-0.71-0.71-1.66-1.43-1.66h-3.45c-0.72,0-1.42,0.95-1.42,1.66c0,0.97-0.78,1.75-1.75,1.75c-0.97,0-1.75-0.78-1.75-1.75v-5.36
	c0-0.71-0.7-1.66-1.43-1.66h-3.45c-0.72,0-1.42,0.95-1.42,1.66c0,0.97-0.78,1.75-1.75,1.75c-0.96,0-1.75-0.78-1.75-1.75v-3.42
	c0-0.71-0.71-1.66-1.43-1.66h-3.45c-0.72,0-1.43,0.95-1.43,1.66c0,0.97-0.78,1.75-1.75,1.75c-0.97,0-1.75-0.78-1.75-1.75v-13.25
	c0-1.51-1.41-2.75-3.15-2.75c-1.74,0-3.15,1.23-3.15,2.75v26.14c0,0.65-0.36,1.24-0.94,1.55c-0.57,0.3-1.27,0.26-1.8-0.11
	c-0.36-0.25-0.74-0.52-1.13-0.8c-2.15-1.54-4.83-3.45-7.19-3.45c-0.54,0-1.05,0.1-1.53,0.31c-0.46,0.2-0.71,0.49-0.79,0.94
	c-0.18,0.96,0.36,2.65,1.98,4.27c5.09,5.09,10.6,15.14,12.78,21.53C137.46,522.35,138.98,526.22,139.67,527.93 M164.69,531.43
	h-26.18c-0.69,0-1.32-0.41-1.6-1.04c-0.07-0.17-1.83-4.18-4.92-13.24c-1.79-5.25-6.94-15.19-11.95-20.19
	c-2.25-2.26-3.38-5.09-2.95-7.39c0.3-1.59,1.31-2.83,2.83-3.5c0.92-0.4,1.91-0.6,2.93-0.6c2.76,0,5.34,1.43,7.56,2.94v-22.77
	c0-3.44,2.98-6.24,6.65-6.24s6.65,2.8,6.65,6.24v8.33c0.45-0.15,0.93-0.24,1.43-0.24h3.45c2.28,0,4.08,1.77,4.7,3.74
	c0.51-0.21,1.06-0.33,1.65-0.33h3.45c2.82,0,4.92,2.73,4.92,5.16v0.45c0.45-0.15,0.93-0.24,1.42-0.24h3.45
	c2.82,0,4.92,2.72,4.92,5.16v20.46c0,4.82-0.76,6.39-1.18,7.24c-2.68,5.54-5.55,14.75-5.58,14.84
	C166.13,530.93,165.45,531.43,164.69,531.43"/>
<path class="st1" d="M141.96,488.85c-0.97,0-1.75-0.78-1.75-1.75v-8.21c0-0.97,0.78-1.75,1.75-1.75c0.97,0,1.75,0.78,1.75,1.75v8.21
	C143.71,488.06,142.93,488.85,141.96,488.85"/>
<path class="st1" d="M151.76,492.26c-0.97,0-1.75-0.78-1.75-1.75v-8.21c0-0.97,0.78-1.75,1.75-1.75c0.97,0,1.75,0.78,1.75,1.75v8.21
	C153.51,491.48,152.73,492.26,151.76,492.26"/>
<path class="st1" d="M161.56,497.63c-0.97,0-1.75-0.78-1.75-1.75v-8.21c0-0.97,0.78-1.75,1.75-1.75c0.97,0,1.75,0.78,1.75,1.75v8.21
	C163.31,496.84,162.53,497.63,161.56,497.63"/>
</svg>
