<?xml version="1.0" encoding="utf-8"?>
<!-- Generator: Adobe Illustrator 24.0.0, SVG Export Plug-In . SVG Version: 6.00 Build 0)  -->
<svg version="1.1" id="Layer_1" xmlns="http://www.w3.org/2000/svg" xmlns:xlink="http://www.w3.org/1999/xlink" x="0px" y="0px"
	 viewBox="0 0 300 600" style="enable-background:new 0 0 300 600;" xml:space="preserve">
<style type="text/css">
	.st0{fill:#FFFFFF;}
	.st1{clip-path:url(#SVGID_2_);fill:#FFFFFF;}
	.st2{clip-path:url(#SVGID_4_);fill:url(#SVGID_5_);}
	.st3{clip-path:url(#SVGID_7_);fill:url(#SVGID_8_);}
	.st4{clip-path:url(#SVGID_10_);fill:url(#SVGID_11_);}
</style>
<path class="st0" d="M150.77,32.12v4.77h-8.46v22.9h-5.35v-22.9h-8.46v-4.77H150.77z M153.04,59.79h5.35V45.96V32.12h-5.35v13.83
	V59.79z M186.03,59.79h-5.5l-2.84-6.81h-9.37l-2.81,6.81h-5.38l11.79-28.04h2.34L186.03,59.79z M211.94,59.79h-5.5l-2.85-6.81h-9.37
	l-2.81,6.81h-5.38l11.79-28.04h2.34L211.94,59.79z M175.85,48.46l-2.83-6.89l-2.85,6.89H175.85z M201.76,48.46l-2.83-6.89
	l-2.85,6.89H201.76z"/>
<g>
	<defs>
		<rect id="SVGID_1_" x="85.01" y="25.52" width="129.99" height="43.71"/>
	</defs>
	<clipPath id="SVGID_2_">
		<use xlink:href="#SVGID_1_"  style="overflow:visible;"/>
	</clipPath>
	<path class="st1" d="M109.14,61.58c2.37,0,4.52-0.98,6.06-2.56l6.55-6.55c1.51-1.53,2.45-3.63,2.46-5.94v-20.4h-20.37
		c-2.37,0-4.52,0.98-6.06,2.55l-6.55,6.55c-1.51,1.53-2.45,3.63-2.46,5.94v20.4H109.14z"/>
</g>
<g>
	<defs>
		<path id="SVGID_3_" d="M106.23,27.94c-3.7,0-6.69,2.99-6.71,6.68v2.27h13.96v13.95h2.24c3.71,0,6.71-3,6.71-6.71v-16.2H106.23z"/>
	</defs>
	<clipPath id="SVGID_4_">
		<use xlink:href="#SVGID_3_"  style="overflow:visible;"/>
	</clipPath>
	
		<linearGradient id="SVGID_5_" gradientUnits="userSpaceOnUse" x1="0.6861" y1="601.3139" x2="1.6861" y2="601.3139" gradientTransform="matrix(15.9301 -15.9301 -15.9301 -15.9301 9674.5371 9633.7744)">
		<stop  offset="0" style="stop-color:#9ADBF8"/>
		<stop  offset="0.1" style="stop-color:#9ADBF8"/>
		<stop  offset="0.9" style="stop-color:#009AD8"/>
		<stop  offset="1" style="stop-color:#009AD8"/>
	</linearGradient>
	<polygon class="st2" points="88.06,39.39 110.97,16.49 133.88,39.39 110.97,62.3 	"/>
</g>
<g>
	<defs>
		<path id="SVGID_6_" d="M115.71,52.64H97.72l-7.15,7.15h18.57c1.81,0,3.51-0.72,4.78-2.02l6.01-6.01l-0.16-0.16
			C118.58,52.26,117.19,52.64,115.71,52.64"/>
	</defs>
	<clipPath id="SVGID_7_">
		<use xlink:href="#SVGID_6_"  style="overflow:visible;"/>
	</clipPath>
	
		<linearGradient id="SVGID_8_" gradientUnits="userSpaceOnUse" x1="0.6595" y1="601" x2="1.6595" y2="601" gradientTransform="matrix(29.3698 0 0 -29.3698 71.2039 17706.9707)">
		<stop  offset="0" style="stop-color:#00AEE6"/>
		<stop  offset="0.1106" style="stop-color:#00AAE1"/>
		<stop  offset="0.2553" style="stop-color:#009FD5"/>
		<stop  offset="0.4189" style="stop-color:#008EC3"/>
		<stop  offset="0.5964" style="stop-color:#0078AE"/>
		<stop  offset="0.7831" style="stop-color:#015F98"/>
		<stop  offset="0.9" style="stop-color:#084E8A"/>
		<stop  offset="1" style="stop-color:#084E8A"/>
	</linearGradient>
	<rect x="90.57" y="51.6" class="st3" width="29.37" height="8.19"/>
</g>
<g>
	<defs>
		<path id="SVGID_9_" d="M92.59,36.43c-1.3,1.28-2.02,2.98-2.02,4.78v18.57l7.15-7.15V34.65c0-1.47,0.38-2.86,1.04-4.07l-0.15-0.16
			L92.59,36.43z"/>
	</defs>
	<clipPath id="SVGID_10_">
		<use xlink:href="#SVGID_9_"  style="overflow:visible;"/>
	</clipPath>
	
		<linearGradient id="SVGID_11_" gradientUnits="userSpaceOnUse" x1="1" y1="601.3405" x2="2" y2="601.3405" gradientTransform="matrix(0 -29.3703 -29.3703 0 17756.209 89.1597)">
		<stop  offset="0" style="stop-color:#007EBD"/>
		<stop  offset="0.2112" style="stop-color:#0073B1"/>
		<stop  offset="0.6298" style="stop-color:#005C97"/>
		<stop  offset="0.85" style="stop-color:#084E8A"/>
		<stop  offset="1" style="stop-color:#084E8A"/>
	</linearGradient>
	<rect x="90.57" y="30.42" class="st4" width="8.19" height="29.37"/>
</g>
</svg>
