<svg id="Layer_1" xmlns="http://www.w3.org/2000/svg" viewBox="0 0 320 50"><style>.st0{fill:#b8e0d2}.st1{fill:#fffdf6}.st2{fill:#898f95}.st3{fill:#3f2718}.st4{fill:#ffdd15}.st5{fill:#e01b22}.st6{fill:#fff}</style><path transform="rotate(-71.101 298.757 20.017)" class="st0" d="M287.2 14.1h23.1V26h-23.1z"/><path class="st1" d="M289.2 28.8l11.7 4 7.6-22.1-11.7-4-7.6 22.1zm7.9-21.5l10.7 3.6-7.2 21.1-10.7-3.6 7.2-21.1z"/><path class="st2" d="M298.4 19.1l-3.3 9.7c0 .1-.2.2-.3.1-.1 0-.2-.2-.1-.3L298 19c0-.1.2-.2.3-.1.1 0 .1.1.1.2M301.1 21.7l-2.8 8.2c0 .1-.2.2-.3.1-.1 0-.2-.2-.1-.3l2.8-8.2c0-.1.2-.2.3-.1 0 .1.1.2.1.3M304.4 11.9l-2.8 8.2c0 .1-.2.2-.3.1-.1 0-.2-.2-.1-.3l2.8-8.2c0-.1.2-.2.3-.1.1.1.2.2.1.3M303 11.4l-6.2 18c0 .1-.2.2-.3.1-.1 0-.2-.2-.1-.3l6.2-18c0-.1.2-.2.3-.1.1.1.1.2.1.3M299 10l-2 5.9c0 .1-.2.2-.3.1-.1 0-.2-.2-.1-.3l2-5.9c0-.1.2-.2.3-.1 0 .1.1.2.1.3M294.6 22.1l-2 5.9c0 .1-.2.2-.3.1-.1 0-.2-.2-.1-.3l2-5.9c0-.1.2-.2.3-.1.1.1.1.2.1.3M295.6 22.5l-2 5.9c0 .1-.2.2-.3.1-.1 0-.2-.2-.1-.3l2-5.9c0-.1.2-.2.3-.1.1 0 .1.2.1.3"/><path transform="rotate(-71.101 299.692 13.356)" class="st1" d="M296.5 12.5h6.4v1.8h-6.4z"/><path class="st2" d="M298.5 16.8s-.1 0-.1.1c0 0-.1.1-.2.1l-.1.1h-.1s-.1 0-.1-.1v-.1c0-.1.1-.1.2-.1v-.2c-.1 0-.2 0-.2.1l-.1.1h-.1l-.1.1h.1v.2s0 .1.1.1c0 0 .1 0 .1.1h.3c.1 0 .1-.1.2-.2l.1-.1s.1 0 .1-.1h.1c.1 0 .1.1.1.1v.2c0 .1-.1.1-.1.1h-.2v.2h.3c.1 0 .1-.1.2-.2h.1l.1-.1-.2-.1c0-.1 0-.2-.1-.3-.1-.1-.1-.2-.2-.2 0 .1-.1.1-.2.2"/><path class="st3" d="M295.4 30c-.2.2-.6.2-.8 0l-4.5-4c-.2-.2-.2-.6 0-.8.2-.2.6-.2.8 0l4.5 4c.2.2.2.6 0 .8"/><path transform="rotate(-45.001 290.72 29.513)" class="st3" d="M288.2 29.2h5v.7h-5z"/><path class="st3" d="M310 9.1h.7v17.8h-.7z"/><path class="st4" d="M311.6 8.3c0 .7-.5 1.2-1.2 1.2s-1.2-.5-1.2-1.2.5-1.2 1.2-1.2c.6 0 1.2.6 1.2 1.2M304.9 33c-.8-.3-1.1-1.2-.8-2l3.2-7.2c.3-.8 1.2-1.1 2-.8.8.3 1.1 1.2.8 2l-3.2 7.2c-.4.8-1.3 1.1-2 .8"/><path class="st5" d="M310.9 24.9c-3 1.9-3.7 6.5-3.7 6.5h-13.7c-3.4 0-3.9-3.1-3.9-3.1-.9-4.8-4.7-6.8-6-7.4-4.5 3.5-7.4 9-7.4 15.1 0 1.2.1 2.3.3 3.5h37.7c.2-1.1.3-2.3.3-3.5-.1-4.2-1.4-8-3.6-11.1"/><path class="st3" d="M315.9 43.9h-41.4c-1.6 0-2.9-1.3-2.9-2.9 0-1.6 1.3-2.9 2.9-2.9h41.4c1.6 0 2.9 1.3 2.9 2.9 0 1.6-1.3 2.9-2.9 2.9M281.9 33.9c0 1.8-.9 3.2-2.1 3.2-1.2 0-2.1-1.4-2.1-3.2s.9-3.2 2.1-3.2c1.1 0 2.1 1.4 2.1 3.2"/><path class="st6" d="M280.3 30.8c-.9.4-1.5 1.6-1.5 3 0 1.5.7 2.7 1.5 3 .9-.4 1.5-1.6 1.5-3 .1-1.4-.6-2.6-1.5-3M308.4 32.3h-18.6c-.3 0-.6-.3-.6-.6s.3-.6.6-.6h18.6c.3 0 .6.3.6.6s-.3.6-.6.6"/></svg>