<svg id="Layer_1" xmlns="http://www.w3.org/2000/svg" viewBox="0 0 320 50"><style>.st0{fill:#b8e0d2}.st1{fill:#fffdf6}.st2{fill:#898f95}.st3{fill:#3f2718}.st4{fill:#ffdd15}.st5{fill:#e01b22}.st6{fill:#fff}</style><path transform="rotate(-18.897 19.435 22.69)" class="st0" d="M13.5 11.1h11.9v23.1H13.5z"/><path class="st1" d="M29 31.5l-11.7 4-7.6-22.2 11.7-4L29 31.5zM21 10l-10.7 3.6 7.2 21.1 10.7-3.6L21 10z"/><path class="st2" d="M19.8 21.8l3.3 9.7c0 .1.2.2.3.1.1 0 .2-.2.1-.3l-3.3-9.7c0-.1-.2-.2-.3-.1-.1.1-.1.2-.1.3M17.1 24.4l2.8 8.2c0 .1.2.2.3.1.1 0 .2-.2.1-.3l-2.8-8.2c0-.1-.2-.2-.3-.1 0 .1-.1.2-.1.3M13.8 14.6l2.8 8.2c0 .1.2.2.3.1.1 0 .2-.2.1-.3l-2.8-8.2c0-.1-.2-.2-.3-.1-.1 0-.2.2-.1.3M15.2 14.1l6.2 18c0 .1.2.2.3.1.1 0 .2-.2.1-.3l-6.2-18c0-.1-.2-.2-.3-.1-.1.1-.2.2-.1.3M19.2 12.7l2 5.9c0 .1.2.2.3.1.1 0 .2-.2.1-.3l-2-5.9c0-.1-.2-.2-.3-.1-.1 0-.1.1-.1.3M23.6 24.8l2 5.9c0 .1.2.2.3.1.1 0 .2-.2.1-.3l-2-5.9c0-.1-.2-.2-.3-.1-.1.1-.1.2-.1.3M22.6 25.1l2 5.9c0 .1.2.2.3.1.1 0 .2-.2.1-.3L23 25c0-.1-.2-.2-.3-.1-.1 0-.1.1-.1.2"/><path transform="rotate(-18.897 18.495 16.025)" class="st1" d="M17.6 12.8h1.8v6.4h-1.8z"/><path class="st2" d="M19.7 19.5s.1 0 .1.1c0 0 .1.1.2.1l.1.1h.1s.1 0 .1-.1v-.1c0-.1-.1-.1-.2-.1v-.2c.1 0 .2 0 .2.1l.1.1h.1l.1.1h-.1v.2s0 .1-.1.1c0 0-.1 0-.1.1H20c-.1 0-.1-.1-.2-.2l-.1-.1s-.1 0-.1-.1h-.1c-.1 0-.1.1-.1.1v.2c0 .1.1.1.1.1h.2v.2h-.3c-.1 0-.1-.1-.2-.2H18.9l.2-.1c0-.1 0-.2.1-.3.1-.1.1-.2.2-.2s.2 0 .3.1"/><path class="st3" d="M24.4 29.5c.2.2.6.2.8 0l4.5-4c.2-.2.2-.6 0-.8-.2-.2-.6-.2-.8 0l-4.5 4c-.2.2-.2.6 0 .8"/><path transform="rotate(-51.961 29.066 28.988)" class="st3" d="M28.7 26.5h.7v5h-.7z"/><path class="st3" d="M9.1 8.5h.7v17.8h-.7z"/><path class="st4" d="M8.2 7.8c0 .7.6 1.2 1.2 1.2s1.2-.5 1.2-1.2-.5-1.2-1.2-1.2-1.2.6-1.2 1.2M14.9 32.4c.8-.3 1.1-1.2.8-2l-3.2-7.2c-.3-.8-1.2-1.1-2-.8-.8.3-1.1 1.2-.8 2l3.2 7.2c.3.8 1.2 1.2 2 .8"/><path class="st5" d="M8.9 24.3c3 1.9 3.7 6.5 3.7 6.5h13.7c3.4 0 3.9-3.1 3.9-3.1.9-4.8 4.7-6.8 6-7.4 4.5 3.5 7.4 9 7.4 15.1 0 1.2-.1 2.3-.3 3.5H5.7c-.2-1.1-.3-2.3-.3-3.5 0-4.1 1.3-7.9 3.5-11.1"/><path class="st3" d="M3.9 43.4h41.4c1.6 0 2.9-1.3 2.9-2.9 0-1.6-1.3-2.9-2.9-2.9H3.9c-1.6 0-2.9 1.3-2.9 2.9 0 1.6 1.3 2.9 2.9 2.9M37.9 33.3c0 1.8.9 3.2 2.1 3.2 1.2 0 2.1-1.4 2.1-3.2 0-1.8-.9-3.2-2.1-3.2-1.2.1-2.1 1.5-2.1 3.2"/><path class="st6" d="M39.4 30.3c.9.4 1.5 1.6 1.5 3 0 1.5-.7 2.7-1.5 3-.9-.4-1.5-1.6-1.5-3s.7-2.6 1.5-3M11.4 31.7H30c.3 0 .6-.3.6-.6s-.3-.6-.6-.6H11.4c-.3 0-.6.3-.6.6 0 .4.3.6.6.6"/></svg>