<svg id="Layer_1" xmlns="http://www.w3.org/2000/svg" viewBox="0 0 300 50"><style>.st0{fill:#231f20}</style><path class="st0" d="M84.8 26.6c-.9 0-1.7-.3-2.1-.5l-.2-1.7c.6.4 1.4.7 2.2.7.7 0 1.1-.3 1.1-.8 0-.4-.3-.7-1-.9-1.5-.4-2.2-1.2-2.2-2.4 0-1.3.9-2.3 2.6-2.3.9 0 1.6.3 1.9.4l-.3 1.5c-.3-.2-.9-.4-1.5-.4s-.9.3-.9.7c0 .4.3.6.9.8 1.5.4 2.3 1.2 2.3 2.5 0 1.5-.9 2.4-2.8 2.4zM92.2 22.5h-1.4v2c0 .5.3.7.7.7.2 0 .3 0 .5-.1l-.2 1.3c-.2.1-.5.1-.8.1-1.2 0-2-.6-2-1.7v-2.4h-.9V21h.9v-1.2l1.8-.6V21h1.8l-.4 1.5zM98.2 23.5l-.8.8h-2.7c.1.4.7.9 1.6.9.6 0 1.1-.2 1.5-.4l-.2 1.5c-.4.2-1 .4-1.7.4-1.7 0-3-1.2-3-2.9 0-1.8 1.3-2.9 2.8-2.9 1.5 0 2.4 1 2.4 2.2.1.1.1.3.1.4zm-2.4-1.3c-.5 0-.9.4-1.1.9h1.8V23c.1-.4-.3-.8-.7-.8zM104.2 23.5l-.8.8h-2.7c.1.4.7.9 1.6.9.6 0 1.1-.2 1.5-.4l-.2 1.5c-.4.2-1 .4-1.7.4-1.7 0-3-1.2-3-2.9 0-1.8 1.3-2.9 2.8-2.9 1.5 0 2.4 1 2.4 2.2.1.1.1.3.1.4zm-2.4-1.3c-.5 0-.9.4-1.1.9h1.8V23c.1-.4-.3-.8-.7-.8zM108.6 23c-.1-.1-.3-.1-.5-.1-.6 0-1.1.3-1.1 1.2v2.5h-1.8v-5.4h1.7v1.2c.2-.9.8-1.3 1.5-1.3.2 0 .4 0 .5.1l-.3 1.8zM116.7 22.9c-.4-.2-.7-.3-1.2-.3-.8 0-1.4.6-1.4 1.3 0 .8.6 1.3 1.4 1.3.5 0 .8-.1 1.2-.3l-.2 1.5c-.4.2-.8.3-1.3.3-1.5 0-2.9-1.1-2.9-2.8 0-1.8 1.4-2.8 2.9-2.8.7 0 1.3.1 1.8.4l-.3 1.4zM119.9 26.8c-1.1 0-1.9-.6-1.9-1.9V18h1.7v6.6c0 .4.3.7.7.7l-.5 1.5zM126.3 23.5l-.8.8h-2.7c.1.4.7.9 1.6.9.6 0 1.1-.2 1.5-.4l-.2 1.5c-.4.2-1 .4-1.7.4-1.7 0-3-1.2-3-2.9 0-1.8 1.3-2.9 2.8-2.9 1.5 0 2.4 1 2.4 2.2.1.1.1.3.1.4zm-2.4-1.3c-.5 0-.9.4-1.1.9h1.8V23c.1-.4-.2-.8-.7-.8zM131.1 26.8c-.3-.1-.7-.3-.8-.7-.2.4-.8.7-1.4.7-1 0-1.8-.7-1.8-1.8 0-1 .8-1.7 1.9-1.8l1-.2v-.2c0-.3-.3-.5-.9-.5-.5 0-1.1.2-1.5.4l-.3-1.3c.4-.3 1.2-.5 1.9-.5 1.4 0 2.5.7 2.5 2v1.8c0 .6.2 1 .7 1.1l-1.3 1zm-1.1-2.6l-.7.1c-.5 0-.7.4-.7.7 0 .3.2.5.6.5.4 0 .8-.3.8-.8v-.5zM136.5 23c-.1-.1-.3-.1-.5-.1-.6 0-1.1.3-1.1 1.2v2.5h-1.8v-5.4h1.7v1.2c.2-.9.8-1.3 1.5-1.3.2 0 .4 0 .5.1l-.3 1.8zM143.2 26.7c-1.6 0-3-1.2-3-2.9s1.3-2.9 3-2.9c1.6 0 3 1.2 3 2.9s-1.4 2.9-3 2.9zm0-4.2c-.7 0-1.2.6-1.2 1.4 0 .8.6 1.4 1.2 1.4s1.2-.6 1.2-1.4c0-.9-.6-1.4-1.2-1.4zM150.9 19.6c-.2-.1-.5-.1-.7-.1-.6 0-1 .4-1 1.2v.5h1.6l-.3 1.4h-1.2v4h-1.7v-4h-.8v-1.4h.8v-.6c0-1.7 1.1-2.5 2.4-2.5.5 0 1 .1 1.3.2l-.4 1.3zM158 22.5h-1.4v2c0 .5.3.7.7.7.2 0 .3 0 .5-.1l-.2 1.3c-.2.1-.5.1-.8.1-1.2 0-2-.6-2-1.7v-2.4h-.9V21h.9v-1.2l1.8-.6V21h1.8l-.4 1.5zM162.6 26.5v-3.3c0-.4-.3-.7-.8-.7s-.9.3-.9.8v3.3h-1.8V18h1.7v3.6c.3-.4.8-.7 1.5-.7 1.2 0 1.9.7 1.9 1.8v3.8h-1.6zM170.6 23.5l-.8.8h-2.7c.1.4.7.9 1.6.9.6 0 1.1-.2 1.5-.4l-.2 1.5c-.4.2-1 .4-1.7.4-1.7 0-3-1.2-3-2.9 0-1.8 1.3-2.9 2.8-2.9 1.5 0 2.4 1 2.4 2.2.1.1.1.3.1.4zm-2.4-1.3c-.5 0-.9.4-1.1.9h1.8V23c.1-.4-.3-.8-.7-.8zM176.1 26.7c-.7 0-1.3-.2-1.7-.4l-.2-1.6c.5.3 1.1.6 1.7.6.3 0 .5-.2.5-.4s-.2-.3-.5-.4c-1-.3-1.7-.8-1.7-1.8 0-1.1.9-1.8 2-1.8.7 0 1.3.2 1.6.3l-.3 1.3c-.3-.1-.7-.3-1.1-.3-.3 0-.5.1-.5.3 0 .2.1.3.5.4 1.2.3 1.7.9 1.7 1.8.2 1.1-.5 2-2 2zM182.9 26.5v-.7c-.2.6-.8.9-1.7.9-1.2 0-1.9-.7-1.9-1.8v-3.8h1.8v3.3c0 .4.3.7.8.7s.9-.3.9-.8V21h1.8v5.4h-1.7zM189.1 23c-.1-.1-.3-.1-.5-.1-.6 0-1.1.3-1.1 1.2v2.5h-1.8v-5.4h1.7v1.2c.2-.9.8-1.3 1.5-1.3.2 0 .4 0 .5.1l-.3 1.8zM193.4 26.7c-.6 0-1.2-.2-1.4-.4v3h-1.7v-8.2h1.5v.7c.3-.6.9-.8 1.7-.8 1.3 0 2.6 1 2.6 2.9.1 1.7-1.2 2.8-2.7 2.8zm-.3-4.2c-.5 0-.9.3-1.1.6v1.7c.2.2.5.5 1.1.5.8 0 1.3-.6 1.3-1.4 0-.8-.6-1.4-1.3-1.4zM200.6 23c-.1-.1-.3-.1-.5-.1-.6 0-1.1.3-1.1 1.2v2.5h-1.8v-5.4h1.7v1.2c.2-.9.8-1.3 1.5-1.3.2 0 .4 0 .5.1l-.3 1.8zM202.6 20.4c-.3 0-.9-.6-.9-.9 0-.3.6-.9.9-.9.3 0 .9.6.9.9.1.2-.5.9-.9.9zm-.8 6.1v-5.4h1.8v5.4h-1.8zM206.6 26.7c-.7 0-1.3-.2-1.7-.4l-.2-1.6c.5.3 1.1.6 1.7.6.3 0 .5-.2.5-.4s-.2-.3-.5-.4c-1-.3-1.7-.8-1.7-1.8 0-1.1.9-1.8 2-1.8.7 0 1.3.2 1.6.3l-.3 1.3c-.3-.1-.7-.3-1.1-.3-.3 0-.5.1-.5.3 0 .2.1.3.5.4 1.2.3 1.7.9 1.7 1.8.1 1.1-.6 2-2 2zM214.7 23.5l-.8.8h-2.7c.1.4.7.9 1.6.9.6 0 1.1-.2 1.5-.4l-.2 1.5c-.4.2-1 .4-1.7.4-1.7 0-3-1.2-3-2.9 0-1.8 1.3-2.9 2.8-2.9 1.5 0 2.4 1 2.4 2.2.1.1.1.3.1.4zm-2.4-1.3c-.5 0-.9.4-1.1.9h1.8V23c.1-.4-.3-.8-.7-.8zM217.4 26.7c-.7 0-1.3-.2-1.7-.4l-.2-1.6c.5.3 1.1.6 1.7.6.3 0 .5-.2.5-.4s-.2-.3-.5-.4c-1-.3-1.7-.8-1.7-1.8 0-1.1.9-1.8 2-1.8.7 0 1.3.2 1.6.3l-.3 1.3c-.3-.1-.7-.3-1.1-.3-.3 0-.5.1-.5.3 0 .2.1.3.5.4 1.2.3 1.7.9 1.7 1.8.2 1.1-.5 2-2 2zM221.4 26.7c-.3 0-1-.7-1-1 0-.3.7-1 1-1 .3 0 1 .7 1 1 0 .3-.6 1-1 1z"/></svg>