<svg id="Layer_1" xmlns="http://www.w3.org/2000/svg" viewBox="0 0 300 50"><style>.st0{fill:#231f20}</style><path class="st0" d="M179.8 20.2h-2.6v-7.7h2.6c2.2 0 4.1 1.4 4.1 3.8s-1.9 3.9-4.1 3.9zm-.2-6.2h-.6v4.6h.6c1.3 0 2.4-.8 2.4-2.3s-1.1-2.3-2.4-2.3zM187.7 20.3c-1.6 0-3-1.2-3-2.9s1.3-2.9 3-2.9c1.6 0 3 1.2 3 2.9s-1.4 2.9-3 2.9zm0-4.2c-.7 0-1.2.6-1.2 1.4 0 .8.6 1.4 1.2 1.4s1.2-.6 1.2-1.4c0-.8-.6-1.4-1.2-1.4zM195.1 20.2v-3.3c0-.4-.3-.7-.8-.7s-.9.3-.9.8v3.3h-1.8v-5.4h1.6v.7c.2-.6.8-.9 1.7-.9 1.2 0 1.9.7 1.9 1.8v3.8h-1.7zM198.4 15.9l-.6-.1c.4-.5.7-1.2.8-1.7-.3-.1-.8-.6-.8-.8 0-.3.7-1 1-1 .3 0 1 .6 1 1 0 .8-.7 2-1.4 2.6zM204.4 16.2H203v2c0 .5.3.7.7.7.2 0 .3 0 .5-.1l-.2 1.3c-.2.1-.5.1-.8.1-1.2 0-2-.6-2-1.7v-2.4h-.9v-1.4h.9v-1.2l1.8-.6v1.8h1.8l-.4 1.5zM210.7 22.9c-1.6 0-2.6-.9-2.6-2 0-.8.6-1.3 1.1-1.5l-.7-.7c0-.3.3-.6.7-.8-.4-.3-.8-.8-.8-1.5 0-1.2.8-2 2.2-2 .3 0 .6 0 .8.1.2.1.5.1.8.1.3 0 .6-.1.9-.2l.3 1.3c-.2.1-.4.2-.7.2.1.1.1.4.1.6 0 .9-.7 1.7-1.8 1.8-.2 0-.4.1-.4.2s0 .1.1.2l.8.3c1.1.4 1.6.9 1.6 1.9.2 1.2-.8 2-2.4 2zm.4-2.5l-.6-.2c-.4 0-.7.3-.7.7 0 .4.3.7 1 .7.6 0 1-.3 1-.6-.2-.3-.4-.5-.7-.6zm-.5-4.6c-.4 0-.7.3-.7.6 0 .4.3.6.7.6.4 0 .7-.3.7-.6s-.3-.6-.7-.6zM219.1 17.1l-.8.8h-2.7c.1.4.7.9 1.6.9.6 0 1.1-.2 1.5-.4l-.2 1.5c-.4.2-1 .4-1.7.4-1.7 0-3-1.2-3-2.9 0-1.8 1.3-2.9 2.8-2.9 1.5 0 2.4 1 2.4 2.2.2.2.1.3.1.4zm-2.4-1.2c-.5 0-.9.4-1.1.9h1.8v-.1c.1-.4-.2-.8-.7-.8zM223.9 16.2h-1.4v2c0 .5.3.7.7.7.2 0 .3 0 .5-.1l-.2 1.3c-.2.1-.5.1-.8.1-1.2 0-2-.6-2-1.7v-2.4h-.9v-1.4h.9v-1.2l1.8-.6v1.8h1.8l-.4 1.5zM230.4 20.3c-1.2 0-2.1-.4-2.6-.8v-7.9h1.7v3.3c.2-.2.8-.4 1.4-.4 1.5 0 2.7 1.1 2.7 2.8 0 1.7-1.1 3-3.2 3zm.2-4.2c-.5 0-.9.2-1.1.4v2.1c.2.1.6.3.9.3.9 0 1.5-.6 1.5-1.4-.1-.8-.6-1.4-1.3-1.4zM236.5 20.4c-1.1 0-1.9-.6-1.9-1.9v-6.8h1.7v6.6c0 .4.3.7.7.7l-.5 1.4zM238.9 14c-.3 0-.9-.6-.9-.9s.6-.9.9-.9c.3 0 .9.6.9.9s-.6.9-.9.9zm-.9 6.2v-5.4h1.8v5.4H238zM244.5 20.2v-3.3c0-.4-.3-.7-.8-.7s-.9.3-.9.8v3.3H241v-5.4h1.6v.7c.2-.6.8-.9 1.7-.9 1.2 0 1.9.7 1.9 1.8v3.8h-1.7zM251.6 20.2v-.7c-.3.6-.9.8-1.7.8-1.3 0-2.6-1-2.6-2.9 0-1.8 1.2-2.9 2.8-2.9.6 0 1.2.2 1.4.4v-3.3h1.7v8.5h-1.6zm-.2-3.6c-.2-.2-.5-.5-1.1-.5-.8 0-1.3.6-1.3 1.4 0 .8.5 1.4 1.3 1.4.5 0 .9-.3 1.1-.6v-1.7zM256.2 20.3c-.7 0-1.3-.2-1.7-.4l-.2-1.6c.5.3 1.1.6 1.7.6.3 0 .5-.2.5-.4s-.2-.3-.5-.4c-1-.3-1.7-.8-1.7-1.8 0-1.1.9-1.8 2-1.8.7 0 1.3.2 1.6.3l-.3 1.3c-.3-.1-.7-.3-1.1-.3-.3 0-.5.1-.5.3 0 .2.1.3.5.4 1.2.3 1.7.9 1.7 1.8.1 1.2-.5 2-2 2zM260.3 14c-.3 0-.9-.6-.9-.9s.6-.9.9-.9c.3 0 .9.6.9.9s-.6.9-.9.9zm-.9 6.2v-5.4h1.8v5.4h-1.8zM266.5 20.2v-.7c-.3.6-.9.8-1.7.8-1.3 0-2.6-1-2.6-2.9 0-1.8 1.2-2.9 2.8-2.9.6 0 1.2.2 1.4.4v-3.3h1.7v8.5h-1.6zm-.2-3.6c-.2-.2-.5-.5-1.1-.5-.8 0-1.3.6-1.3 1.4 0 .8.5 1.4 1.3 1.4.5 0 .9-.3 1.1-.6v-1.7zM274.3 17.1l-.8.8h-2.7c.1.4.7.9 1.6.9.6 0 1.1-.2 1.5-.4l-.2 1.5c-.4.2-1 .4-1.7.4-1.7 0-3-1.2-3-2.9 0-1.8 1.3-2.9 2.8-2.9 1.5 0 2.4 1 2.4 2.2.1.2.1.3.1.4zm-2.4-1.2c-.5 0-.9.4-1.1.9h1.8v-.1c.1-.4-.2-.8-.7-.8zM279.4 20.2v-.7c-.3.6-.9.8-1.7.8-1.3 0-2.6-1-2.6-2.9 0-1.8 1.2-2.9 2.8-2.9.6 0 1.2.2 1.4.4v-3.3h1.7v8.5h-1.6zm-.2-3.6c-.2-.2-.5-.5-1.1-.5-.8 0-1.3.6-1.3 1.4 0 .8.5 1.4 1.3 1.4.5 0 .9-.3 1.1-.6v-1.7z"/><g><path class="st0" d="M179.8 32.3c-1.2 0-2.1-.4-2.6-.8v-7.9h1.7v3.3c.2-.2.8-.4 1.4-.4 1.5 0 2.7 1.1 2.7 2.8-.1 1.7-1.1 3-3.2 3zm.1-4.2c-.5 0-.9.2-1.1.4v2.1c.2.1.6.3.9.3.9 0 1.5-.6 1.5-1.4 0-.8-.5-1.4-1.3-1.4zM187 31.6c-.8 2.2-1.7 3-2.7 3.4l-1.1-1.1c.9-.3 1.5-1 2-2.1l-2-5.1h1.7l.8 2.1c.1.3.2.7.3 1.1.1-.4.2-.8.3-1.1l.8-2.1h1.6l-1.7 4.9zM196.1 28.2h-1.4v2c0 .5.3.7.7.7.2 0 .3 0 .5-.1l-.2 1.3c-.2.1-.5.1-.8.1-1.2 0-2-.6-2-1.7v-2.4h-.9v-1.4h.9v-1.2l1.8-.6v1.8h1.8l-.4 1.5zM200.7 32.2v-3.3c0-.4-.3-.7-.8-.7s-.9.3-.9.8v3.3h-1.8v-8.5h1.7v3.6c.3-.4.8-.7 1.5-.7 1.2 0 1.9.7 1.9 1.8v3.8h-1.6zM208.7 29.1l-.8.8h-2.7c.1.4.7.9 1.6.9.6 0 1.1-.2 1.5-.4l-.2 1.5c-.4.2-1 .4-1.7.4-1.7 0-3-1.2-3-2.9 0-1.8 1.3-2.9 2.8-2.9 1.5 0 2.4 1 2.4 2.2.1.2.1.3.1.4zm-2.4-1.2c-.5 0-.9.4-1.1.9h1.8v-.1c.1-.4-.3-.8-.7-.8zM219.2 32.2v-3.3c0-.4-.2-.7-.8-.7-.6 0-.8.3-.8.8v3.3h-1.8V29c0-.4-.2-.7-.8-.7-.6 0-.8.3-.8.8v3.3h-1.8V27h1.6v.7c.2-.6.8-.9 1.6-.9s1.4.3 1.6.9c.2-.5.9-.9 1.7-.9 1.2 0 1.9.7 1.9 1.8v3.8h-1.6zM226 32.4c-.3-.1-.7-.3-.8-.7-.2.4-.8.7-1.4.7-1 0-1.8-.7-1.8-1.8 0-1 .8-1.7 1.9-1.8l1.1-.1v-.2c0-.3-.3-.5-.9-.5-.5 0-1.1.2-1.5.4l-.3-1.3c.4-.3 1.2-.5 1.9-.5 1.4 0 2.5.7 2.5 2v1.8c0 .6.2 1 .7 1.1l-1.4.9zm-1.1-2.6l-.7.1c-.5 0-.7.4-.7.7 0 .3.2.5.6.5.4 0 .8-.3.8-.8v-.5zM231.4 28.6c-.1-.1-.3-.1-.5-.1-.6 0-1.1.3-1.1 1.2v2.5H228v-5.4h1.7V28c.2-.9.8-1.3 1.5-1.3.2 0 .4 0 .5.1l-.3 1.8zM235.9 32.2l-1.6-2.2v2.2h-1.7v-8.5h1.7V29l1.6-2.2h1.9l-1.9 2.6 2 2.8h-2zM243.4 29.1l-.8.8H240c.1.4.7.9 1.6.9.6 0 1.1-.2 1.5-.4l-.2 1.5c-.4.2-1 .4-1.7.4-1.7 0-3-1.2-3-2.9 0-1.8 1.3-2.9 2.8-2.9 1.5 0 2.4 1 2.4 2.2.1.2 0 .3 0 .4zm-2.4-1.2c-.5 0-.9.4-1.1.9h1.8v-.1c.1-.4-.2-.8-.7-.8zM248.2 28.2h-1.4v2c0 .5.3.7.7.7.2 0 .3 0 .5-.1l-.2 1.3c-.2.1-.5.1-.8.1-1.2 0-2-.6-2-1.7v-2.4h-.9v-1.4h.9v-1.2l1.8-.6v1.8h1.8l-.4 1.5zM251 32.3c-.7 0-1.3-.2-1.7-.4l-.2-1.6c.5.3 1.1.6 1.7.6.3 0 .5-.2.5-.4s-.2-.3-.5-.4c-1-.3-1.7-.8-1.7-1.8 0-1.1.9-1.8 2-1.8.7 0 1.3.2 1.6.3l-.3 1.3c-.3-.1-.7-.3-1.1-.3-.3 0-.5.1-.5.3 0 .2.1.3.5.4 1.2.3 1.7.9 1.7 1.8.1 1.2-.6 2-2 2zM255 32.3c-.3 0-1-.7-1-1 0-.3.7-1 1-1 .3 0 1 .7 1 1 0 .4-.7 1-1 1z"/></g></svg>