<svg xmlns="http://www.w3.org/2000/svg" viewBox="0 0 728 90"><path d="M206.5 67v9.2h-2.8V67h-3.3v-2.3h9.4V67h-3.3zM214.8 70.9c-.2-.1-.5-.2-.8-.2-.8 0-1.6.5-1.6 1.7v3.8h-2.6V68h2.6v1.8c.3-1.3 1.2-2 2.3-2 .3 0 .6 0 .8.1l-.7 3zM221.6 75.4c-1.2 3.3-2.5 4.5-4.1 5.1l-1.6-1.6c1.3-.5 2.3-1.5 3-3.2l-2.9-7.6h2.6l1.2 3.2c.2.5.4 1 .5 1.6.2-.6.3-1.1.5-1.6l1.2-3.2h2.4l-2.8 7.3zM234.9 70.2h-2.1v3c0 .7.4 1 1.1 1 .3 0 .5 0 .7-.1l-.2 2c-.3.1-.7.2-1.2.2-1.8 0-2.9-1-2.9-2.6v-3.5h-1.4V68h1.4v-1.7l2.6-1V68h2.6l-.6 2.2zM241.5 76.2v-5c0-.6-.4-1.1-1.2-1.1-.8 0-1.3.5-1.3 1.2v5h-2.6V63.4h2.6v5.4c.4-.6 1.2-1 2.3-1 1.8 0 2.9 1 2.9 2.7v5.7h-2.7zM253.3 71.7l-1.2 1.2h-4c.1.7 1 1.4 2.4 1.4.8 0 1.7-.3 2.3-.6l-.3 2.3c-.6.3-1.5.5-2.6.5-2.5 0-4.5-1.7-4.5-4.4 0-2.6 1.9-4.3 4.2-4.3 2.3 0 3.7 1.6 3.7 3.3.1.2.1.4 0 .6zm-3.6-1.9c-.8 0-1.4.6-1.6 1.3h2.8v-.2c0-.5-.5-1.1-1.2-1.1zM269.5 76.2l-.4-4.2c-.1-.6-.1-1.4-.1-2.1-.3.7-.6 1.5-1 2.2l-2.2 4.2h-1.1l-2.2-4.2c-.3-.6-.7-1.4-1-2.1 0 .7 0 1.5-.1 2.1l-.4 4.2h-2.6l1-11.5h2.3l2.5 4.8c.4.7.8 1.7 1.2 2.4.3-.8.7-1.7 1.1-2.4l2.5-4.8h2.2l1 11.5h-2.7zM278.4 75.4c-1.2 3.3-2.5 4.5-4.1 5.1l-1.6-1.6c1.3-.5 2.3-1.5 3-3.2l-2.9-7.6h2.6l1.2 3.2c.2.5.4 1 .5 1.6.2-.6.3-1.1.5-1.6l1.2-3.2h2.4l-2.8 7.3zM290.8 71.7h-1.7v4.5h-2.7V64.8h4.4c2 0 3.7 1.3 3.7 3.5 0 2.1-1.7 3.4-3.7 3.4zm-.4-4.7h-1.3v2.6h1.3c.7 0 1.4-.4 1.4-1.3s-.7-1.3-1.4-1.3zM302.9 71.7l-1.2 1.2h-4c.1.7 1 1.4 2.4 1.4.8 0 1.7-.3 2.3-.6l-.3 2.3c-.6.3-1.5.5-2.6.5-2.5 0-4.5-1.7-4.5-4.4 0-2.6 1.9-4.3 4.2-4.3 2.3 0 3.7 1.6 3.7 3.3.1.2 0 .4 0 .6zm-3.6-1.9c-.8 0-1.4.6-1.6 1.3h2.8v-.2c0-.5-.5-1.1-1.2-1.1zM309.4 70.9c-.2-.1-.5-.2-.8-.2-.8 0-1.6.5-1.6 1.7v3.8h-2.6V68h2.6v1.8c.3-1.3 1.2-2 2.3-2 .3 0 .6 0 .8.1l-.7 3zM313.4 76.4c-1.1 0-1.9-.2-2.6-.6l-.2-2.3c.7.5 1.7.9 2.6.9.5 0 .8-.3.8-.6s-.3-.5-.7-.6c-1.6-.5-2.5-1.2-2.5-2.7 0-1.6 1.3-2.6 3.1-2.6 1 0 2 .3 2.4.5l-.5 1.9c-.4-.2-1-.4-1.7-.4-.4 0-.7.2-.7.5s.2.5.7.6c1.8.5 2.6 1.4 2.6 2.8-.1 1.4-1.1 2.6-3.3 2.6zM321.9 76.5c-2.5 0-4.4-1.7-4.4-4.3s2-4.3 4.4-4.3c2.4 0 4.4 1.7 4.4 4.3s-1.9 4.3-4.4 4.3zm0-6.4c-1 0-1.8.9-1.8 2.1 0 1.2.8 2.1 1.8 2.1s1.8-.9 1.8-2.1c.1-1.2-.8-2.1-1.8-2.1zM332.9 76.2v-5c0-.6-.4-1.1-1.2-1.1-.8 0-1.3.5-1.3 1.2v5h-2.6v-8.2h2.4v1.1c.3-.9 1.2-1.3 2.5-1.3 1.8 0 2.9 1 2.9 2.7v5.7h-2.7zM342.9 76.6c-.5-.1-1-.5-1.3-1.1-.4.7-1.1 1-2.1 1-1.4 0-2.7-1-2.7-2.7 0-1.5 1.2-2.5 2.8-2.7l1.6-.2v-.3c0-.5-.4-.8-1.3-.8-.8 0-1.7.3-2.3.6l-.5-2c.7-.4 1.8-.7 2.9-.7 2.2 0 3.7 1 3.7 3v2.7c0 1 .4 1.5 1 1.7l-1.8 1.5zm-1.6-3.9l-1 .1c-.7.1-1 .5-1 1 0 .4.3.8.8.8.6 0 1.2-.5 1.2-1.2v-.7zM348.5 76.6c-1.7-.1-2.8-.9-2.8-2.9V63.4h2.6v9.9c0 .7.4 1 1.1 1.1l-.9 2.2zM359 71.7h-1.7v4.5h-2.7V64.8h4.4c2 0 3.7 1.3 3.7 3.5 0 2.1-1.7 3.4-3.7 3.4zm-.4-4.7h-1.3v2.6h1.3c.7 0 1.4-.4 1.4-1.3.1-.9-.6-1.3-1.4-1.3zM371.2 71.7l-1.2 1.2h-4c.1.7 1 1.4 2.4 1.4.8 0 1.7-.3 2.3-.6l-.3 2.3c-.6.3-1.5.5-2.6.5-2.5 0-4.5-1.7-4.5-4.4 0-2.6 1.9-4.3 4.2-4.3 2.3 0 3.7 1.6 3.7 3.3v.6zm-3.6-1.9c-.8 0-1.4.6-1.6 1.3h2.8v-.2c0-.5-.5-1.1-1.2-1.1zM377.7 76.2v-5c0-.6-.4-1.1-1.2-1.1-.8 0-1.3.5-1.3 1.2v5h-2.6v-8.2h2.4v1.1c.3-.9 1.2-1.3 2.5-1.3 1.8 0 2.9 1 2.9 2.7v5.7h-2.7zM384.7 76.4c-1.1 0-1.9-.2-2.6-.6l-.2-2.3c.7.5 1.7.9 2.6.9.5 0 .8-.3.8-.6s-.3-.5-.7-.6c-1.6-.5-2.5-1.2-2.5-2.7 0-1.6 1.3-2.6 3.1-2.6 1 0 2 .3 2.4.5l-.5 1.9c-.4-.2-1-.4-1.7-.4-.4 0-.7.2-.7.5s.2.5.7.6c1.8.5 2.6 1.4 2.6 2.8-.1 1.4-1.1 2.6-3.3 2.6zM390.6 67c-.5 0-1.4-1-1.4-1.4 0-.5 1-1.4 1.4-1.4.5 0 1.4.9 1.4 1.4 0 .4-1 1.4-1.4 1.4zm-1.4 9.2V68h2.7v8.2h-2.7zM397.7 76.5c-2.5 0-4.4-1.7-4.4-4.3s2-4.3 4.4-4.3c2.4 0 4.4 1.7 4.4 4.3s-2 4.3-4.4 4.3zm0-6.4c-1 0-1.8.9-1.8 2.1 0 1.2.8 2.1 1.8 2.1s1.8-.9 1.8-2.1c0-1.2-.8-2.1-1.8-2.1zM408.6 76.2v-5c0-.6-.4-1.1-1.2-1.1-.8 0-1.3.5-1.3 1.2v5h-2.6v-8.2h2.4v1.1c.3-.9 1.2-1.3 2.5-1.3 1.8 0 2.9 1 2.9 2.7v5.7h-2.7zM423.2 70.7c-.5-.3-1.1-.5-1.7-.5-1.2 0-2.1.8-2.1 2s.9 2 2.1 2c.7 0 1.2-.1 1.8-.5L423 76c-.5.3-1.2.4-2 .4-2.3 0-4.4-1.6-4.4-4.2 0-2.7 2.1-4.3 4.4-4.3 1.1 0 2 .2 2.7.6l-.5 2.2zM430.7 76.6c-.5-.1-1-.5-1.3-1.1-.4.7-1.1 1-2.1 1-1.4 0-2.7-1-2.7-2.7 0-1.5 1.2-2.5 2.8-2.7l1.6-.1v-.3c0-.5-.4-.8-1.3-.8-.8 0-1.7.3-2.3.6l-.5-2c.7-.4 1.8-.7 2.9-.7 2.2 0 3.7 1 3.7 3v2.7c0 1 .4 1.5 1 1.7l-1.8 1.4zm-1.7-3.9l-1 .1c-.7.1-1 .5-1 1 0 .4.3.8.8.8.6 0 1.2-.5 1.2-1.2v-.7zM436.2 76.6c-1.7-.1-2.8-.9-2.8-2.9V63.4h2.6v9.9c0 .7.4 1 1.1 1.1l-.9 2.2zM444.3 70.7c-.5-.3-1.1-.5-1.7-.5-1.2 0-2.1.8-2.1 2s.9 2 2.1 2c.7 0 1.2-.1 1.8-.5l-.2 2.3c-.5.3-1.2.4-2 .4-2.3 0-4.4-1.6-4.4-4.2 0-2.7 2.1-4.3 4.4-4.3 1.1 0 2 .2 2.7.6l-.6 2.2zM451.4 76.2v-1.1c-.3.9-1.2 1.4-2.5 1.4-1.8 0-2.9-1-2.9-2.7v-5.7h2.6v5c0 .6.4 1.1 1.2 1.1.8 0 1.3-.5 1.3-1.2v-5h2.6v8.2h-2.3zM458.4 76.6c-1.7-.1-2.8-.9-2.8-2.9V63.4h2.6v9.9c0 .7.4 1 1.1 1.1l-.9 2.2zM466.2 76.6c-.5-.1-1-.5-1.3-1.1-.4.7-1.1 1-2.1 1-1.4 0-2.7-1-2.7-2.7 0-1.5 1.2-2.5 2.8-2.7l1.6-.2v-.3c0-.5-.4-.8-1.3-.8-.8 0-1.7.3-2.3.6l-.5-2c.7-.4 1.8-.7 2.9-.7 2.2 0 3.7 1 3.7 3v2.7c0 1 .4 1.5 1 1.7l-1.8 1.5zm-1.7-3.9l-1 .1c-.7.1-1 .5-1 1 0 .4.3.8.8.8.6 0 1.2-.5 1.2-1.2v-.7zM474.2 70.2h-2.1v3c0 .7.4 1 1.1 1 .3 0 .5 0 .7-.1l-.2 2c-.3.1-.7.2-1.2.2-1.8 0-2.9-1-2.9-2.6v-3.5h-1.4V68h1.4v-1.7l2.6-1V68h2.6l-.6 2.2zM479.6 76.5c-2.5 0-4.4-1.7-4.4-4.3s2-4.3 4.4-4.3c2.4 0 4.4 1.7 4.4 4.3s-2 4.3-4.4 4.3zm0-6.4c-1 0-1.8.9-1.8 2.1 0 1.2.8 2.1 1.8 2.1s1.8-.9 1.8-2.1c0-1.2-.8-2.1-1.8-2.1zM490.4 70.9c-.2-.1-.5-.2-.8-.2-.8 0-1.6.5-1.6 1.7v3.8h-2.6V68h2.6v1.8c.3-1.3 1.2-2 2.3-2 .3 0 .6 0 .8.1l-.7 3zM492.1 76.5c-.5 0-1.5-1-1.5-1.5s1-1.5 1.5-1.5 1.5 1 1.5 1.5-1 1.5-1.5 1.5z"/></svg>