<svg id="Layer_1" xmlns="http://www.w3.org/2000/svg" viewBox="0 0 300 50"><style>.st0{fill:#231f20}</style><path class="st0" d="M78.1 25.5c-2.1 0-4.2-1.4-4.2-4s2.2-4 4.2-4c1.1 0 2 .3 2.5.6l-.3 1.5c-.5-.3-1.2-.5-1.9-.5-1.4 0-2.6.9-2.6 2.4 0 1.4 1.1 2.4 2.5 2.4.4 0 .8-.1 1-.2v-1.2H78V21h3v3.6c-.7.6-1.7.9-2.9.9zM87.2 22.3l-.8.8h-2.7c.1.4.7.9 1.6.9.6 0 1.1-.2 1.5-.4l-.2 1.5c-.4.2-1 .4-1.7.4-1.7 0-3-1.2-3-2.9 0-1.8 1.3-2.9 2.8-2.9 1.5 0 2.4 1 2.4 2.2.2.1.2.3.1.4zM84.9 21c-.5 0-.9.4-1.1.9h1.8v-.1c0-.4-.3-.8-.7-.8zM92 21.3h-1.4v2c0 .5.3.7.7.7.2 0 .3 0 .5-.1l-.2 1.3c-.2.1-.5.1-.8.1-1.2 0-2-.6-2-1.7v-2.4h-.9v-1.4h.9v-1.2l1.8-.6v1.8h1.8l-.4 1.5zM98.3 28.1c-1.6 0-2.6-.9-2.6-2 0-.8.6-1.3 1.1-1.5l-.7-.7c0-.3.3-.6.7-.8-.4-.3-.8-.8-.8-1.5 0-1.2.8-2 2.2-2 .3 0 .6 0 .8.1.2.1.5.1.8.1.3 0 .6-.1.9-.2l.3 1.3c-.2.1-.4.2-.7.2.1.1.1.4.1.6 0 .9-.7 1.7-1.8 1.8-.2 0-.4.1-.4.2s0 .1.1.2l.8.3c1.1.4 1.6.9 1.6 1.9.2 1.1-.8 2-2.4 2zm.4-2.6l-.7-.2c-.4 0-.7.3-.7.7 0 .4.3.7 1 .7.6 0 1-.3 1-.6-.1-.2-.3-.5-.6-.6zm-.5-4.5c-.4 0-.7.3-.7.6 0 .4.3.6.7.6.4 0 .7-.3.7-.6s-.3-.6-.7-.6zM105.3 25.3v-.7c-.2.6-.8.9-1.7.9-1.2 0-1.9-.7-1.9-1.8v-3.8h1.8v3.3c0 .4.3.7.8.7s.9-.3.9-.8v-3.3h1.8v5.4h-1.7zM112 25.5c-.3-.1-.7-.3-.8-.7-.2.4-.8.7-1.4.7-1 0-1.8-.7-1.8-1.8 0-1 .8-1.7 1.9-1.8l1.1-.1v-.2c0-.3-.3-.5-.9-.5-.5 0-1.1.2-1.5.4l-.3-1.3c.4-.3 1.2-.5 1.9-.5 1.4 0 2.5.7 2.5 2v1.8c0 .6.2 1 .7 1.1l-1.4.9zm-1.1-2.6l-.7.1c-.5 0-.7.4-.7.7 0 .3.2.5.6.5.4 0 .8-.3.8-.8v-.5zM117.4 21.7c-.1-.1-.3-.1-.5-.1-.6 0-1.1.3-1.1 1.2v2.5H114v-5.4h1.7v1.2c.2-.9.8-1.3 1.5-1.3.2 0 .4 0 .5.1l-.3 1.8zM122.4 25.5c-.3-.1-.7-.3-.8-.7-.2.4-.8.7-1.4.7-1 0-1.8-.7-1.8-1.8 0-1 .8-1.7 1.9-1.8l1.1-.1v-.2c0-.3-.3-.5-.9-.5-.5 0-1.1.2-1.5.4l-.3-1.3c.4-.3 1.2-.5 1.9-.5 1.4 0 2.5.7 2.5 2v1.8c0 .6.2 1 .7 1.1l-1.4.9zm-1.2-2.6l-.7.1c-.5 0-.7.4-.7.7 0 .3.2.5.6.5.4 0 .8-.3.8-.8v-.5zM127.8 25.3V22c0-.4-.3-.7-.8-.7s-.9.3-.9.8v3.3h-1.8V20h1.6v.7c.2-.6.8-.9 1.7-.9 1.2 0 1.9.7 1.9 1.8v3.8h-1.7zM134.4 21.3H133v2c0 .5.3.7.7.7.2 0 .3 0 .5-.1l-.2 1.3c-.2.1-.5.1-.8.1-1.2 0-2-.6-2-1.7v-2.4h-.9v-1.4h.9v-1.2l1.8-.6v1.8h1.8l-.4 1.5zM140.3 22.3l-.8.8h-2.7c.1.4.7.9 1.6.9.6 0 1.1-.2 1.5-.4l-.2 1.5c-.4.2-1 .4-1.7.4-1.7 0-3-1.2-3-2.9 0-1.8 1.3-2.9 2.8-2.9 1.5 0 2.4 1 2.4 2.2.2.1.2.3.1.4zm-2.4-1.3c-.5 0-.9.4-1.1.9h1.8v-.1c.1-.4-.2-.8-.7-.8zM146.3 22.3l-.8.8h-2.7c.1.4.7.9 1.6.9.6 0 1.1-.2 1.5-.4l-.2 1.5c-.4.2-1 .4-1.7.4-1.7 0-3-1.2-3-2.9 0-1.8 1.3-2.9 2.8-2.9 1.5 0 2.4 1 2.4 2.2.2.1.2.3.1.4zm-2.4-1.3c-.5 0-.9.4-1.1.9h1.8v-.1c.1-.4-.2-.8-.7-.8zM151.4 25.3v-.7c-.3.6-.9.8-1.7.8-1.3 0-2.6-1-2.6-2.9 0-1.8 1.2-2.9 2.8-2.9.6 0 1.2.2 1.4.4v-3.3h1.7v8.5h-1.6zm-.1-3.6c-.2-.2-.5-.5-1.1-.5-.8 0-1.3.6-1.3 1.4 0 .8.5 1.4 1.3 1.4.5 0 .9-.3 1.1-.6v-1.7zM163.7 25.3V22c0-.4-.2-.7-.8-.7-.6 0-.8.3-.8.8v3.3h-1.8V22c0-.4-.2-.7-.8-.7-.6 0-.8.3-.8.8v3.3H157V20h1.6v.7c.2-.6.8-.9 1.6-.9s1.4.3 1.6.9c.2-.5.9-.9 1.7-.9 1.2 0 1.9.7 1.9 1.8v3.8h-1.7zM169.5 25.5c-1.6 0-3-1.2-3-2.9s1.3-2.9 3-2.9c1.6 0 3 1.2 3 2.9s-1.4 2.9-3 2.9zm0-4.3c-.7 0-1.2.6-1.2 1.4 0 .8.6 1.4 1.2 1.4s1.2-.6 1.2-1.4c0-.8-.6-1.4-1.2-1.4zM176.9 25.3V22c0-.4-.3-.7-.8-.7s-.9.3-.9.8v3.3h-1.8V20h1.6v.7c.2-.6.8-.9 1.7-.9 1.2 0 1.9.7 1.9 1.8v3.8h-1.7zM183.5 21.3h-1.4v2c0 .5.3.7.7.7.2 0 .3 0 .5-.1l-.2 1.3c-.2.1-.5.1-.8.1-1.2 0-2-.6-2-1.7v-2.4h-.9v-1.4h.9v-1.2l1.8-.6v1.8h1.8l-.4 1.5zM188 25.3V22c0-.4-.3-.7-.8-.7s-.9.3-.9.8v3.3h-1.8v-8.5h1.7v3.6c.3-.4.8-.7 1.5-.7 1.2 0 1.9.7 1.9 1.8v3.8H188zM192.9 25.5c-1.1 0-1.9-.6-1.9-1.9v-6.8h1.7v6.6c0 .4.3.7.7.7l-.5 1.4zM197.5 24.8c-.8 2.2-1.7 3-2.7 3.4l-1.1-1.1c.9-.3 1.5-1 2-2.1l-2-5.1h1.7l.8 2.1c.1.3.2.7.3 1.1.1-.4.2-.8.3-1.1l.8-2.1h1.6l-1.7 4.9zM203.9 19.1c-.3 0-.9-.6-.9-.9 0-.3.6-.9.9-.9.3 0 .9.6.9.9 0 .3-.6.9-.9.9zm-.9 6.2v-5.4h1.8v5.4H203zM209.5 25.3V22c0-.4-.3-.7-.8-.7s-.9.3-.9.8v3.3H206V20h1.6v.7c.2-.6.8-.9 1.7-.9 1.2 0 1.9.7 1.9 1.8v3.8h-1.7zM216.7 21.6c-.4-.2-.7-.3-1.2-.3-.8 0-1.4.6-1.4 1.3 0 .8.6 1.3 1.4 1.3.5 0 .8-.1 1.2-.3l-.2 1.5c-.4.2-.8.3-1.3.3-1.5 0-2.9-1.1-2.9-2.8 0-1.8 1.4-2.8 2.9-2.8.7 0 1.3.1 1.8.4l-.3 1.4zM220.6 25.5c-1.6 0-3-1.2-3-2.9s1.3-2.9 3-2.9c1.6 0 3 1.2 3 2.9s-1.4 2.9-3 2.9zm0-4.3c-.7 0-1.2.6-1.2 1.4 0 .8.6 1.4 1.2 1.4s1.2-.6 1.2-1.4c0-.8-.5-1.4-1.2-1.4zM231.3 25.3V22c0-.4-.2-.7-.8-.7-.6 0-.8.3-.8.8v3.3H228V22c0-.4-.2-.7-.8-.7-.6 0-.8.3-.8.8v3.3h-1.8V20h1.6v.7c.2-.6.8-.9 1.6-.9s1.4.3 1.6.9c.2-.5.9-.9 1.7-.9 1.2 0 1.9.7 1.9 1.8v3.8h-1.7zM239.3 22.3l-.8.8h-2.7c.1.4.7.9 1.6.9.6 0 1.1-.2 1.5-.4l-.2 1.5c-.4.2-1 .4-1.7.4-1.7 0-3-1.2-3-2.9 0-1.8 1.3-2.9 2.8-2.9 1.5 0 2.4 1 2.4 2.2.2.1.1.3.1.4zm-2.4-1.3c-.5 0-.9.4-1.1.9h1.8v-.1c.1-.4-.2-.8-.7-.8zM246.9 18.3c-.2-.1-.5-.1-.7-.1-.6 0-1 .4-1 1.2v.5h1.6l-.3 1.4h-1.2v4h-1.7v-4h-.8v-1.4h.8v-.6c0-1.7 1.1-2.5 2.4-2.5.5 0 1 .1 1.3.2l-.4 1.3zM250.1 25.5c-1.6 0-3-1.2-3-2.9s1.3-2.9 3-2.9c1.6 0 3 1.2 3 2.9s-1.3 2.9-3 2.9zm0-4.3c-.7 0-1.2.6-1.2 1.4 0 .8.6 1.4 1.2 1.4s1.2-.6 1.2-1.4c.1-.8-.5-1.4-1.2-1.4zM257.5 21.7c-.1-.1-.3-.1-.5-.1-.6 0-1.1.3-1.1 1.2v2.5h-1.8v-5.4h1.7v1.2c.2-.9.8-1.3 1.5-1.3.2 0 .4 0 .5.1l-.3 1.8zM263.4 25.5c-1.1 0-1.9-.6-1.9-1.9v-6.8h1.7v6.6c0 .4.3.7.7.7l-.5 1.4zM265.8 19.1c-.3 0-.9-.6-.9-.9 0-.3.6-.9.9-.9.3 0 .9.6.9.9 0 .3-.6.9-.9.9zm-.9 6.2v-5.4h1.8v5.4h-1.8zM271.7 18.3c-.2-.1-.5-.1-.7-.1-.6 0-1 .4-1 1.2v.5h1.6l-.3 1.4H270v4h-1.7v-4h-.8v-1.4h.8v-.6c0-1.7 1.1-2.5 2.4-2.5.5 0 1 .1 1.3.2l-.3 1.3zM277.2 22.3l-.8.8h-2.7c.1.4.7.9 1.6.9.6 0 1.1-.2 1.5-.4l-.2 1.5c-.4.2-1 .4-1.7.4-1.7 0-3-1.2-3-2.9 0-1.8 1.3-2.9 2.8-2.9 1.5 0 2.4 1 2.4 2.2.2.1.1.3.1.4zm-2.4-1.3c-.5 0-.9.4-1.1.9h1.8v-.1c.1-.4-.2-.8-.7-.8zM279 25.5c-.3 0-1-.7-1-1 0-.3.7-1 1-1 .3 0 1 .7 1 1 0 .3-.7 1-1 1z"/></svg>