<svg id="Layer_1" xmlns="http://www.w3.org/2000/svg" viewBox="0 0 300 50"><style>.st0{fill:#f9e038}.st1{fill:#231f20}</style><path class="st0" d="M205.5 6.8s-6 0-6 6v3.8s0 6 6 6h57s6 0 6-6v-3.8s0-6-6-6h-57z"/><path class="st1" d="M209.4 13.9c0-.5-.2-1-.8-1-.8 0-.9 1-.9 1.6 0 .7.1 1.5.9 1.5.5 0 .8-.4.8-.9l1.1.1c-.1 1.1-.9 1.8-2 1.8-1.4 0-2.1-1.2-2.1-2.5s.7-2.5 2.2-2.5c1.2 0 1.8.7 1.9 1.9h-1.1zM215.3 16.8h-1.2l-.3-1h-1.6l-.3 1h-1l1.5-4.8h1.3l1.6 4.8zm-1.8-1.9l-.5-1.7-.5 1.7h1zM218.9 15.8v1h-3.1V12h1.1v3.9h2zM222.1 13.9c0-.5-.2-1-.8-1-.8 0-.9 1-.9 1.6 0 .7.1 1.5.9 1.5.5 0 .8-.4.8-.9l1.1.1c-.1 1.1-.9 1.8-2 1.8-1.4 0-2.1-1.2-2.1-2.5s.7-2.5 2.2-2.5c1.2 0 1.8.7 1.9 1.9h-1.1zM227.9 14.9c0 .5 0 1.1-.4 1.5-.4.4-1 .5-1.5.5s-1.1-.1-1.5-.4c-.5-.4-.5-1-.5-1.6V12h1.2v2.9c0 .2 0 .5.1.7.1.3.4.3.7.3.2 0 .6-.1.7-.3.2-.2.1-.6.1-.8V12h1v2.9zM231.9 15.8v1h-3.1V12h1.1v3.9h2zM236.6 16.8h-1.2l-.3-1h-1.6l-.3 1h-1l1.5-4.8h1.3l1.6 4.8zm-1.8-1.9l-.5-1.7-.5 1.7h1zM240 12.9h-1.2v3.9h-1.1v-3.9h-1.2v-1h3.5v1zM241.7 12.9v1h1.8v.9h-1.8v1.1h2.3v.9h-3.4V12h3.4v.9h-2.3zM250.3 16.8h-1l-1.8-3.2v3.2h-.9V12h1.2l1.6 2.8V12h.9v4.8zM251.6 16.1c-.4-.5-.5-1.1-.5-1.7 0-1.3.6-2.5 2.1-2.5.6 0 1.1.2 1.5.7.3.5.5 1.1.5 1.7 0 .5-.1 1.2-.5 1.7s-.9.8-1.6.8-1.1-.2-1.5-.7zm.8-2.7c-.1.3-.2.7-.2 1 0 .6.1 1.6.9 1.6.4 0 .6-.2.7-.5.1-.3.1-.7.1-1 0-.4 0-.8-.2-1.1-.1-.3-.3-.5-.7-.5-.2-.1-.4.1-.6.5zM260.5 16.8h-1.1l-.8-3.2-.8 3.2h-1.1l-1.2-4.8h1.1l.7 3.2.8-3.2h1l.8 3.2V15l.7-3h.9l-1 4.8z"/></svg>