<svg id="Layer_1" xmlns="http://www.w3.org/2000/svg" viewBox="0 0 300 250"><style>.st0{fill:#402718}.st1{fill:#ffde17}.st2{fill:#e11b22}.st3{fill:#fff}</style><path class="st0" d="M59.4 162.6c.5.6 1.4.6 2 .1l11.1-9.9c.6-.5.6-1.4.1-2-.5-.6-1.4-.6-2-.1l-11.1 9.9c-.6.6-.6 1.5-.1 2"/><path transform="rotate(-45.001 70.999 161.338)" class="st0" d="M70.2 155.1h1.7v12.4h-1.7z"/><path class="st0" d="M21.2 110.3h1.7v44.3h-1.7z"/><path class="st1" d="M18 108.6c0 1.6 1.3 3 3 3 1.6 0 3-1.3 3-3 0-1.6-1.3-3-3-3-1.6 0-3 1.3-3 3M35.7 170c1.9-.9 2.7-3.1 1.9-5l-8.1-17.9c-.9-1.9-3.1-2.7-5-1.9-1.9.9-2.7 3.1-1.9 5l8.1 17.9c.8 1.9 3.1 2.7 5 1.9"/><path class="st2" d="M20.8 149.7c7.4 4.6 9.2 16.1 9.2 16.1h34.3c8.4 0 9.8-7.7 9.8-7.7 2.4-12.1 11.6-17 15.1-18.5 11.2 8.8 18.4 22.4 18.4 37.7 0 3-.3 5.8-.8 8.6h-94c-.5-2.8-.8-5.7-.8-8.6 0-10.2 3.2-19.8 8.8-27.6"/><path class="st0" d="M8.2 197.2h103.2c3.9 0 7.2-3.2 7.2-7.2 0-3.9-3.2-7.2-7.2-7.2H8.2C4.3 182.8 1 186 1 190s3.2 7.2 7.2 7.2M93 172.2c0 4.4 2.3 7.9 5.2 7.9 2.9 0 5.2-3.5 5.2-7.9s-2.3-7.9-5.2-7.9c-2.8 0-5.2 3.5-5.2 7.9"/><path class="st3" d="M96.9 164.6c2.2.9 3.8 4 3.8 7.6s-1.6 6.6-3.8 7.6c-2.2-.9-3.8-4-3.8-7.6s1.6-6.6 3.8-7.6M27 168.2h46.5c.9 0 1.5-.7 1.5-1.5s-.7-1.5-1.5-1.5H27c-.9 0-1.5.7-1.5 1.5s.6 1.5 1.5 1.5"/></svg>