<svg id="Layer_1" xmlns="http://www.w3.org/2000/svg" viewBox="0 0 300 250"><style>.st0{fill:#b9e1d3}.st1{fill:#fffef6}.st2{fill:#8a9096}</style><path transform="rotate(-18.897 45.99 145.645)" class="st0" d="M31.2 116.8h29.6v57.7H31.2z"/><path class="st1" d="M69.7 167.5l-29.1 10-18.9-55.2 29.1-10 18.9 55.2zM50 113.9L23.4 123l18.1 52.7 26.6-9.1L50 113.9z"/><path class="st2" d="M46.9 143.4l8.3 24.1c.1.3.4.4.7.3.3-.1.4-.4.3-.7L47.9 143c-.1-.3-.4-.4-.7-.3-.3.1-.4.4-.3.7M40.2 149.9l7 20.3c.1.3.4.4.7.3.3-.1.4-.4.3-.7l-7-20.3c-.1-.3-.4-.4-.7-.3-.2.1-.4.4-.3.7M31.8 125.4l7 20.3c.1.3.4.4.7.3.3-.1.4-.4.3-.7l-7-20.3c-.1-.3-.4-.4-.7-.3-.2.1-.4.4-.3.7M35.4 124.2L50.7 169c.1.3.4.4.7.3.3-.1.4-.4.3-.7l-15.4-44.9c-.1-.3-.4-.4-.7-.3-.2.2-.3.5-.2.8M45.5 120.6l5 14.7c.1.3.4.4.7.3.3-.1.4-.4.3-.7l-5-14.7c-.1-.3-.4-.4-.7-.3-.3.1-.4.4-.3.7M56.4 150.9l5 14.7c.1.3.4.4.7.3.3-.1.4-.4.3-.7l-5-14.7c-.1-.3-.4-.4-.7-.3-.3.1-.4.4-.3.7M53.9 151.7l5 14.7c.1.3.4.4.7.3.3-.1.4-.4.3-.7l-5-14.7c-.1-.3-.4-.4-.7-.3-.3.2-.4.5-.3.7"/><path transform="rotate(-18.904 43.619 128.987)" class="st1" d="M41.4 121h4.5v16h-4.5z"/><path class="st2" d="M46.6 137.6c.1 0 .2.1.3.2l.4.4.3.3h.2c.1 0 .1-.1.2-.2v-.3c-.1-.2-.2-.3-.4-.3h-.1v-.1l.1-.5.1-.1c.2 0 .4.1.5.2l.3.3.4-.1s.1 0 .1.1l.1.4s0 .1-.1.1l-.4.1v.3c0 .1-.1.2-.1.3-.1.1-.1.2-.2.2-.1.1-.2.1-.3.2-.2.1-.5.1-.7 0-.1-.1-.3-.2-.6-.4l-.3-.3c-.1-.1-.1-.1-.2-.1h-.3c-.1 0-.2.1-.3.2-.1.1-.1.2 0 .4 0 .1.1.2.2.3.1.1.3.1.5.1 0 0 .1 0 .1.1l.1.5v.1h-.1c-.3 0-.6 0-.8-.1-.2-.1-.4-.3-.5-.5l-.4.1s-.1 0-.1-.1l-.1-.4s0-.1.1-.1l.4-.1c0-.3.1-.5.2-.7.1-.2.4-.4.6-.5.3-.1.5-.1.8 0"/></svg>