<svg id="Layer_1" xmlns="http://www.w3.org/2000/svg" viewBox="0 0 300 250"><style>.st0{fill:#b9e1d3}.st1{fill:#fffef6}.st2{fill:#8a9096}</style><path transform="rotate(-71.101 179.001 152.032)" class="st0" d="M150.1 137.2h57.7v29.6h-57.7z"/><path class="st1" d="M155.3 173.9l29.1 10 18.9-55.2-29.1-10-18.9 55.2zm19.7-53.6l26.6 9.1-18.1 52.7-26.6-9.1 18.1-52.7z"/><path class="st2" d="M178.1 149.8l-8.3 24.1c-.1.3-.4.4-.7.3-.3-.1-.4-.4-.3-.7l8.3-24.1c.1-.3.4-.4.7-.3.2.2.4.5.3.7M184.8 156.3l-7 20.3c-.1.3-.4.4-.7.3-.3-.1-.4-.4-.3-.7l7-20.3c.1-.3.4-.4.7-.3.2.2.4.5.3.7M193.2 131.8l-7 20.3c-.1.3-.4.4-.7.3-.3-.1-.4-.4-.3-.7l7-20.3c.1-.3.4-.4.7-.3.2.1.4.4.3.7M189.6 130.6l-15.4 44.9c-.1.3-.4.4-.7.3-.3-.1-.4-.4-.3-.7l15.4-44.9c.1-.3.4-.4.7-.3.2.1.4.4.3.7M179.5 127l-5 14.7c-.1.3-.4.4-.7.3-.3-.1-.4-.4-.3-.7l5-14.7c.1-.3.4-.4.7-.3.3.1.4.4.3.7M168.6 157.3l-5 14.7c-.1.3-.4.4-.7.3-.3-.1-.4-.4-.3-.7l5-14.7c.1-.3.4-.4.7-.3.3.1.4.4.3.7M171.1 158.1l-5 14.7c-.1.3-.4.4-.7.3-.3-.1-.4-.4-.3-.7l5-14.7c.1-.3.4-.4.7-.3.3.2.4.5.3.7"/><path transform="rotate(-71.096 181.36 135.405)" class="st1" d="M173.4 133.2h16v4.5h-16z"/><path class="st2" d="M178.4 144c-.1 0-.2.1-.3.2l-.4.4-.3.3h-.2c-.1 0-.1-.1-.2-.2v-.3c.1-.2.2-.3.4-.3h.1v-.1l-.1-.5-.1-.1c-.2 0-.4.1-.5.2l-.3.3-.4-.1s-.1 0-.1.1l-.1.4s0 .1.1.1l.4.1v.3c0 .1.1.2.1.3s.1.2.2.2c.1.1.2.1.3.2.2.1.5.1.7 0 .1-.1.3-.2.6-.4l.3-.3c.1-.1.1-.1.2-.1h.3c.1 0 .2.1.3.2.1.1.1.2 0 .4 0 .1-.1.2-.2.3-.1.1-.3.1-.5.1 0 0-.1 0-.1.1l-.1.5v.1h.1c.3 0 .6 0 .8-.1.2-.1.4-.3.5-.5l.4.1s.1 0 .1-.1l.1-.4s0-.1-.1-.1l-.4-.1c0-.3-.1-.5-.2-.7-.1-.2-.4-.4-.6-.5-.3-.1-.5-.1-.8 0"/></svg>