<svg id="Layer_1" xmlns="http://www.w3.org/2000/svg" viewBox="0 0 74.2 39.1"><style>.st0{fill:#b9e0d3}.st1{fill:#fffdf6}.st2{fill:#898f94}</style><path class="st0" d="M.4.4h73.3V38H.4z"/><path class="st1" d="M72.5 37.4H1.7V1.7h70.8v35.7zM0 39.1h74.2V0H0v39.1z"/><path class="st2" d="M38.3 17.6H5.9c-.4 0-.7-.3-.7-.7 0-.4.3-.7.7-.7h32.4c.4 0 .7.3.7.7 0 .4-.3.7-.7.7M33.2 28.2H5.9c-.4 0-.7-.3-.7-.7 0-.4.3-.7.7-.7h27.3c.4 0 .7.3.7.7 0 .4-.3.7-.7.7M66.2 28.2H38.9c-.4 0-.7-.3-.7-.7 0-.4.3-.7.7-.7h27.3c.4 0 .7.3.7.7-.1.4-.4.7-.7.7M66.2 23.5H5.9c-.4 0-.7-.3-.7-.7 0-.4.3-.7.7-.7h60.2c.4 0 .7.3.7.7 0 .4-.3.7-.6.7M66.3 9.9H46.6c-.4 0-.7-.3-.7-.7 0-.4.3-.7.7-.7h19.7c.4 0 .7.3.7.7 0 .4-.3.7-.7.7M25.5 9.2H5.7c-.4 0-.7-.3-.7-.7 0-.4.3-.7.7-.7h19.7c.4 0 .7.3.7.7 0 .4-.3.7-.6.7M25.5 12.6H5.7c-.4 0-.7-.3-.7-.7 0-.4.3-.7.7-.7h19.7c.4 0 .7.3.7.7 0 .4-.3.7-.6.7"/><path class="st1" d="M46.8 12.7h20.3v5.7H46.8z"/><path class="st2" d="M45.5 15.5c-.1-.1-.2-.2-.4-.3-.2-.1-.3-.2-.6-.3-.3-.1-.4-.2-.5-.3-.1-.1-.1-.2-.1-.3 0-.1 0-.2.1-.3.1-.1.2-.1.3-.1.2 0 .4.1.6.4l.1.1h.1l.6-.3c.1 0 .1-.1 0-.1-.1-.2-.3-.4-.4-.6-.1-.1-.3-.2-.5-.2v-.5c0-.1 0-.1-.1-.1h-.5c-.1 0-.1 0-.1.1v.5c-.1 0-.3.1-.4.2l-.3.3c-.1.1-.2.2-.2.4 0 .1-.1.3-.1.4 0 .3.1.6.3.8.1.2.4.3.8.5.2.1.3.2.4.2.1.1.2.1.2.2.1.1.1.2.1.4s-.1.3-.2.4c-.1.1-.3.2-.5.2s-.3 0-.4-.1c-.1-.1-.2-.3-.3-.6 0-.1-.1-.1-.1-.1l-.6.1h-.1v.1c.1.4.3.8.5 1 .2.2.5.3.8.4v.5c0 .1 0 .1.1.1h.5c.1 0 .1 0 .1-.1V18c.3-.1.6-.3.8-.5.2-.3.3-.6.3-.9 0-.5-.1-.8-.3-1.1"/></svg>