<svg xmlns="http://www.w3.org/2000/svg" viewBox="0 0 300 250"><path d="M33.4 38.8c-1.9 0-3.7-.5-4.7-1.1l-.4-3.8c1.4.9 3.1 1.6 4.8 1.6 1.4 0 2.3-.6 2.3-1.7 0-1-.6-1.5-2.1-1.9-3.3-.9-4.8-2.7-4.8-5.2 0-2.8 2.1-5 5.6-5 1.9 0 3.5.5 4.2.9l-.7 3.2c-.7-.4-2-.9-3.1-.9-1.4 0-2.1.6-2.1 1.4 0 .8.7 1.3 2 1.6 3.2.9 5.1 2.5 5.1 5.5 0 3.4-2.1 5.4-6.1 5.4zM48.9 29.9h-3.1v4.4c0 1 .5 1.4 1.6 1.4.4 0 .7 0 1-.2l-.4 3c-.4.2-1 .3-1.8.3-2.7 0-4.2-1.4-4.2-3.7V30h-2v-3.1h2v-2.5l3.8-1.4v3.9h3.8l-.7 3zM61.2 32.1l-1.7 1.7h-5.8c.2 1 1.5 2.1 3.5 2.1 1.2 0 2.5-.4 3.2-.9l-.4 3.3c-.9.5-2.2.8-3.7.8-3.6 0-6.5-2.5-6.5-6.3s2.8-6.2 6.1-6.2 5.3 2.3 5.3 4.7c.1.1 0 .5 0 .8zM56 29.3c-1.1 0-2.1.9-2.3 1.9h4v-.3c0-.7-.7-1.6-1.7-1.6zM73.6 32.1l-1.7 1.7h-5.8c.2 1 1.5 2.1 3.5 2.1 1.2 0 2.5-.4 3.2-.9l-.4 3.3c-.9.5-2.2.8-3.7.8-3.6 0-6.5-2.5-6.5-6.3s2.8-6.2 6.1-6.2 5.3 2.3 5.3 4.7c.1.1 0 .5 0 .8zm-5.2-2.8c-1.1 0-2.1.9-2.3 1.9h4v-.3c0-.7-.7-1.6-1.7-1.6zM82.6 30.9c-.2-.1-.8-.3-1.1-.3-1.2 0-2.3.6-2.3 2.5v5.5h-3.8V26.8h3.8v2.6c.4-1.8 1.8-2.8 3.4-2.8.4 0 .8.1 1.1.2l-1.1 4.1zM99.2 30.6c-.8-.5-1.6-.8-2.5-.8-1.7 0-3 1.2-3 2.9s1.3 2.9 3.1 2.9c1 0 1.7-.2 2.6-.6l-.4 3.3c-.8.4-1.8.6-2.9.6-3.3 0-6.4-2.3-6.4-6.1s3.1-6.2 6.3-6.2c1.6 0 2.8.3 3.9.9l-.7 3.1zM105.5 39.1c-2.4-.1-4-1.4-4-4.2V20.1h3.8v14.3c0 1 .5 1.5 1.6 1.6l-1.4 3.1zM118.7 32.1l-1.7 1.7h-5.8c.2 1 1.5 2.1 3.5 2.1 1.2 0 2.5-.4 3.2-.9l-.4 3.3c-.9.5-2.2.8-3.7.8-3.6 0-6.5-2.5-6.5-6.3s2.8-6.2 6.1-6.2 5.3 2.3 5.3 4.7c.1.1.1.5 0 .8zm-5.2-2.8c-1.1 0-2.1.9-2.3 1.9h4v-.3c0-.7-.7-1.6-1.7-1.6zM128.6 39.1c-.7-.2-1.5-.7-1.8-1.6-.5 1-1.6 1.4-3.1 1.4-2.1 0-3.9-1.5-3.9-3.9 0-2.2 1.7-3.6 4-3.8l2.3-.2v-.4c0-.7-.6-1.2-1.8-1.2-1.1 0-2.4.4-3.3.9l-.7-2.9c1-.6 2.6-1 4.1-1 3.1 0 5.3 1.4 5.3 4.3v3.8c0 1.4.5 2.1 1.4 2.4l-2.5 2.2zm-2.5-5.6l-1.4.1c-1 .1-1.4.8-1.4 1.5 0 .6.5 1.1 1.2 1.1.9 0 1.7-.7 1.7-1.7v-1zM139.6 30.9c-.2-.1-.8-.3-1.1-.3-1.2 0-2.3.6-2.3 2.5v5.5h-3.8V26.8h3.8v2.6c.4-1.8 1.8-2.8 3.4-2.8.4 0 .8.1 1.1.2l-1.1 4.1zM153.2 39c-3.6 0-6.4-2.5-6.4-6.3s2.9-6.3 6.4-6.3c3.5 0 6.4 2.5 6.4 6.3s-2.9 6.3-6.4 6.3zm0-9.2c-1.4 0-2.7 1.2-2.7 3 0 1.7 1.2 3 2.7 3 1.4 0 2.7-1.2 2.7-3-.1-1.8-1.3-3-2.7-3zM169.3 23.5c-.4-.2-1.1-.3-1.5-.3-1.4 0-2.1.8-2.1 2.5v1.1h3.4l-.8 3.1h-2.6v8.7H162v-8.7h-1.8v-3.1h1.8v-1.4c0-3.6 2.3-5.4 5.3-5.4 1.1 0 2.2.1 2.8.4l-.8 3.1z"/><g><path d="M36.4 55.9h-3.1v4.4c0 1 .5 1.4 1.6 1.4.4 0 .7 0 1-.2l-.3 2.9c-.4.2-1 .3-1.8.3-2.7 0-4.2-1.4-4.2-3.7v-5.1h-2v-3.1h2v-2.5l3.8-1.4v3.9h3.8l-.8 3.1zM45.6 64.6v-7.2c0-.9-.6-1.6-1.8-1.6-1.1 0-1.8.7-1.8 1.7v7.2h-3.8V46.1H42v7.8c.6-.9 1.7-1.5 3.3-1.5 2.6 0 4.1 1.5 4.1 4v8.2h-3.8zM62.4 58.1l-1.7 1.7h-5.8c.2 1 1.5 2.1 3.5 2.1 1.2 0 2.5-.4 3.2-.9l-.4 3.3c-.9.5-2.2.8-3.7.8-3.6 0-6.5-2.5-6.5-6.3s2.8-6.2 6.1-6.2 5.3 2.3 5.3 4.7c.1.1.1.5 0 .8zm-5.2-2.8c-1.1 0-2.1.9-2.3 1.9h4v-.3c.1-.7-.6-1.6-1.7-1.6zM73.6 64.9c-1.6 0-2.8-.3-3.7-.8l-.3-3.4c1 .7 2.4 1.3 3.7 1.3.7 0 1.1-.4 1.1-.8 0-.5-.4-.7-1.1-.9-2.3-.6-3.6-1.8-3.6-3.8 0-2.3 1.9-3.8 4.4-3.8 1.5 0 2.9.4 3.5.7l-.6 2.8c-.6-.3-1.5-.6-2.4-.6-.6 0-1 .3-1 .8 0 .4.3.7 1 .9 2.7.7 3.7 2 3.7 4-.1 1.7-1.6 3.6-4.7 3.6zM87.5 64.6V63c-.5 1.2-1.7 2-3.6 2-2.6 0-4.1-1.4-4.1-3.9v-8.2h3.8v7.2c0 .9.6 1.6 1.8 1.6 1.1 0 1.8-.8 1.8-1.7v-7.2H91v11.8h-3.5zM100.5 56.9c-.2-.1-.8-.3-1.1-.3-1.2 0-2.3.6-2.3 2.5v5.5h-3.8V52.8H97v2.6c.4-1.8 1.8-2.8 3.4-2.8.4 0 .8.1 1.1.2l-1 4.1zM109.2 64.9c-1.2 0-2.5-.4-3-.8v6.4h-3.7V52.8h3.4v1.5c.7-1.2 2-1.8 3.6-1.8 2.9 0 5.7 2.2 5.7 6.2-.1 3.8-2.8 6.2-6 6.2zm-.7-9.1c-1.1 0-1.9.6-2.3 1.2v3.7c.4.5 1.1 1 2.3 1 1.7 0 2.8-1.3 2.8-3s-1.2-2.9-2.8-2.9zM124.1 56.9c-.2-.1-.8-.3-1.1-.3-1.2 0-2.3.6-2.3 2.5v5.5h-3.8V52.8h3.8v2.6c.4-1.8 1.8-2.8 3.4-2.8.4 0 .8.1 1.1.2l-1.1 4.1zM128 51.2c-.7 0-2.1-1.4-2.1-2.1 0-.7 1.4-2 2.1-2 .7 0 2.1 1.4 2.1 2 0 .7-1.4 2.1-2.1 2.1zm-1.9 13.4V52.8h3.8v11.8h-3.8zM136 64.9c-1.6 0-2.8-.3-3.7-.8l-.3-3.4c1 .7 2.4 1.3 3.7 1.3.7 0 1.1-.4 1.1-.8 0-.5-.4-.7-1.1-.9-2.3-.6-3.6-1.8-3.6-3.8 0-2.3 1.9-3.8 4.4-3.8 1.5 0 2.9.4 3.5.7l-.6 2.8c-.6-.3-1.5-.6-2.4-.6-.6 0-1 .3-1 .8 0 .4.3.7 1 .9 2.7.7 3.7 2 3.7 4-.1 1.7-1.5 3.6-4.7 3.6zM152.9 58.1l-1.7 1.7h-5.8c.2 1 1.5 2.1 3.5 2.1 1.2 0 2.5-.4 3.3-.9l-.4 3.3c-.9.5-2.2.8-3.7.8-3.6 0-6.5-2.5-6.5-6.3s2.8-6.2 6.1-6.2 5.3 2.3 5.3 4.7c0 .1-.1.5-.1.8zm-5.2-2.8c-1.1 0-2.1.9-2.3 1.9h4v-.3c0-.7-.7-1.6-1.7-1.6zM158.3 64.9c-1.6 0-2.8-.3-3.7-.8l-.3-3.4c1 .7 2.4 1.3 3.7 1.3.7 0 1.1-.4 1.1-.8 0-.5-.4-.7-1.1-.9-2.3-.6-3.6-1.8-3.6-3.8 0-2.3 1.9-3.8 4.4-3.8 1.5 0 2.9.4 3.5.7l-.7 2.8c-.6-.3-1.5-.6-2.4-.6-.6 0-1 .3-1 .8 0 .4.3.7 1 .9 2.7.7 3.7 2 3.7 4 .1 1.7-1.4 3.6-4.6 3.6zM166.4 65c-.7 0-2.2-1.5-2.2-2.2 0-.7 1.5-2.1 2.2-2.1s2.2 1.5 2.2 2.1c0 .7-1.5 2.2-2.2 2.2z"/></g></svg>