<svg xmlns="http://www.w3.org/2000/svg" viewBox="0 0 300 250"><path d="M37.4 39c-4.6 0-9.2-3-9.2-8.7 0-5.7 4.7-8.7 9.1-8.7 2.3 0 4.3.6 5.4 1.4l-.8 3.3c-1-.7-2.6-1.2-4.2-1.2-3 0-5.5 2-5.5 5.3 0 3.1 2.4 5.1 5.4 5.1 1 0 1.7-.2 2.3-.5v-2.6H37v-3.1h6.6v7.9c-1.5 1.2-3.5 1.8-6.2 1.8zM56.6 32.1l-1.7 1.7h-5.8c.2 1 1.5 2.1 3.5 2.1 1.2 0 2.5-.4 3.2-.9l-.4 3.3c-.9.5-2.2.8-3.7.8-3.6 0-6.5-2.5-6.5-6.3s2.8-6.2 6.1-6.2 5.3 2.3 5.3 4.7c.1.1 0 .5 0 .8zm-5.2-2.8c-1.1 0-2.1.9-2.3 1.9h4v-.3c0-.7-.7-1.6-1.7-1.6zM66.3 29.9h-3.1v4.4c0 1 .5 1.4 1.6 1.4.4 0 .7 0 1-.2l-.3 2.9c-.4.2-1 .3-1.8.3-2.7 0-4.2-1.4-4.2-3.7v-5.1h-2v-3.1h2v-2.5l3.8-1.4v3.9H67l-.7 3.1zM78.9 44.6c-3.4 0-5.7-2-5.7-4.4 0-1.8 1.2-2.9 2.4-3.2l-1.5-1.5c.1-.8.8-1.4 1.4-1.7-.9-.5-1.7-1.7-1.7-3.1 0-2.5 1.8-4.2 4.9-4.2.7 0 1.2.1 1.7.2s1.1.2 1.7.2c.7 0 1.3-.2 1.8-.4l.7 2.9c-.4.2-.9.4-1.5.4.1.2.3.8.3 1.2 0 2-1.6 3.6-3.8 3.8-.5 0-.8.1-.8.4 0 .1.1.3.3.4l1.8.6c2.3.8 3.6 2 3.6 4.2.1 2.4-2.1 4.2-5.6 4.2zm.8-5.5l-1.4-.4c-.9 0-1.6.7-1.6 1.5s.7 1.5 2.1 1.5c1.4 0 2.1-.6 2.1-1.3 0-.5-.4-1.1-1.2-1.3zm-1-9.9c-.9 0-1.5.6-1.5 1.4 0 .8.6 1.4 1.5 1.4.8 0 1.5-.6 1.5-1.4 0-.7-.6-1.4-1.5-1.4zM93.6 38.6V37c-.5 1.2-1.7 2-3.6 2-2.6 0-4.1-1.4-4.1-3.9v-8.2h3.8v7.2c0 .9.6 1.6 1.8 1.6 1.1 0 1.8-.8 1.8-1.7v-7.2H97v11.8h-3.4zM107.5 39.1c-.7-.2-1.5-.7-1.8-1.6-.5 1-1.6 1.4-3.1 1.4-2.1 0-3.9-1.5-3.9-3.9 0-2.2 1.7-3.6 4-3.8l2.3-.2v-.4c0-.7-.6-1.2-1.8-1.2-1.1 0-2.4.4-3.3.9l-.7-2.9c1-.6 2.6-1 4.1-1 3.1 0 5.3 1.4 5.3 4.3v3.8c0 1.4.5 2.1 1.4 2.4l-2.5 2.2zm-2.4-5.6l-1.4.1c-1 .1-1.4.8-1.4 1.5 0 .6.5 1.1 1.2 1.1.9 0 1.7-.7 1.7-1.7v-1zM118.5 30.9c-.2-.1-.8-.3-1.1-.3-1.2 0-2.3.6-2.3 2.5v5.5h-3.8V26.8h3.8v2.6c.4-1.8 1.8-2.8 3.4-2.8.4 0 .8.1 1.1.2l-1.1 4.1zM128.7 39.1c-.7-.2-1.5-.7-1.8-1.6-.5 1-1.6 1.4-3.1 1.4-2.1 0-3.9-1.5-3.9-3.9 0-2.2 1.7-3.6 4-3.8l2.3-.2v-.4c0-.7-.6-1.2-1.8-1.2-1.1 0-2.4.4-3.3.9l-.7-2.9c1-.6 2.6-1 4.1-1 3.1 0 5.3 1.4 5.3 4.3v3.8c0 1.4.5 2.1 1.4 2.4l-2.5 2.2zm-2.4-5.6l-1.4.1c-1 .1-1.4.8-1.4 1.5 0 .6.5 1.1 1.2 1.1.9 0 1.7-.7 1.7-1.7v-1zM139.9 38.6v-7.2c0-.9-.6-1.6-1.7-1.6s-1.9.7-1.9 1.7v7.2h-3.8V26.8h3.5v1.6c.5-1.2 1.7-2 3.6-2 2.6 0 4.1 1.5 4.1 4v8.2h-3.8zM153.6 29.9h-3.1v4.4c0 1 .5 1.4 1.6 1.4.4 0 .7 0 1-.2l-.3 2.9c-.4.2-1 .3-1.8.3-2.7 0-4.2-1.4-4.2-3.7v-5.1h-2v-3.1h2v-2.5l3.8-1.4v3.9h3.8l-.8 3.1zM165.9 32.1l-1.7 1.7h-5.8c.2 1 1.5 2.1 3.5 2.1 1.2 0 2.5-.4 3.3-.9l-.4 3.3c-.9.5-2.2.8-3.7.8-3.6 0-6.5-2.5-6.5-6.3s2.8-6.2 6.1-6.2 5.3 2.3 5.3 4.7c0 .1-.1.5-.1.8zm-5.2-2.8c-1.1 0-2.1.9-2.3 1.9h4v-.3c0-.7-.7-1.6-1.7-1.6zM178.3 32.1l-1.7 1.7h-5.8c.2 1 1.5 2.1 3.5 2.1 1.2 0 2.5-.4 3.3-.9l-.4 3.3c-.9.5-2.2.8-3.7.8-3.6 0-6.5-2.5-6.5-6.3s2.8-6.2 6.1-6.2 5.3 2.3 5.3 4.7c0 .1 0 .5-.1.8zm-5.2-2.8c-1.1 0-2.1.9-2.3 1.9h4v-.3c.1-.7-.6-1.6-1.7-1.6zM188.8 38.6v-1.5c-.7 1.2-2 1.8-3.6 1.8-2.9 0-5.7-2.2-5.7-6.2 0-3.8 2.7-6.3 6-6.3 1.2 0 2.5.4 3 .8V20h3.7v18.5h-3.4zm-.4-7.7c-.4-.5-1.1-1.1-2.3-1.1-1.7 0-2.8 1.3-2.8 3s1.2 3 2.8 3c1.1 0 1.9-.6 2.3-1.2v-3.7z"/><g><path d="M43 64.6v-7.2c0-.9-.4-1.6-1.7-1.6-1.2 0-1.8.7-1.8 1.7v7.2h-3.8v-7.2c0-.9-.4-1.6-1.7-1.6-1.2 0-1.8.7-1.8 1.7v7.2h-3.8v-12H32v1.6c.5-1.2 1.6-2 3.5-2 1.7 0 3 .7 3.5 1.9.5-1.1 1.9-1.9 3.6-1.9 2.7 0 4.2 1.5 4.2 4v8.2H43zM54.9 65c-3.6 0-6.4-2.5-6.4-6.3s2.9-6.3 6.4-6.3c3.5 0 6.4 2.5 6.4 6.3S58.4 65 54.9 65zm0-9.2c-1.4 0-2.7 1.2-2.7 3 0 1.7 1.2 3 2.7 3 1.4 0 2.7-1.2 2.7-3-.1-1.8-1.3-3-2.7-3zM70.4 64.6v-7.2c0-.9-.6-1.6-1.7-1.6s-1.9.7-1.9 1.7v7.2H63V52.8h3.5v1.6c.5-1.2 1.7-2 3.6-2 2.6 0 4.1 1.5 4.1 4v8.2h-3.8zM84.1 55.9H81v4.4c0 1 .5 1.4 1.6 1.4.4 0 .7 0 1-.2l-.3 2.9c-.4.2-1 .3-1.8.3-2.7 0-4.2-1.4-4.2-3.7v-5.1h-2v-3.1h2v-2.5l3.8-1.4v3.9h3.8l-.8 3.1zM93.4 64.6v-7.2c0-.9-.6-1.6-1.8-1.6-1.1 0-1.8.7-1.8 1.7v7.2H86V46.1h3.8v7.8c.6-.9 1.7-1.5 3.3-1.5 2.6 0 4.1 1.5 4.1 4v8.2h-3.8zM103.4 65.1c-2.4-.1-4-1.4-4-4.2V46.1h3.8v14.3c0 1 .5 1.5 1.6 1.6l-1.4 3.1z"/><path d="M112.7 63.4c-1.8 4.7-3.7 6.4-5.9 7.3l-2.3-2.3c1.9-.7 3.4-2.1 4.3-4.6l-4.2-11h3.7l1.7 4.6c.3.7.5 1.5.7 2.3h.1c.2-.8.5-1.6.8-2.3l1.7-4.6h3.5l-4.1 10.6zM125.5 51.2c-.7 0-2.1-1.4-2.1-2.1 0-.7 1.4-2 2.1-2 .7 0 2.1 1.4 2.1 2 0 .7-1.4 2.1-2.1 2.1zm-1.9 13.4V52.8h3.8v11.8h-3.8zM137.1 64.6v-7.2c0-.9-.6-1.6-1.7-1.6s-1.9.7-1.9 1.7v7.2h-3.8V52.8h3.5v1.6c.5-1.2 1.7-2 3.6-2 2.6 0 4.1 1.5 4.1 4v8.2h-3.8zM152 56.6c-.8-.5-1.6-.8-2.5-.8-1.7 0-3 1.2-3 2.9s1.3 2.9 3.1 2.9c1 0 1.7-.2 2.6-.6l-.3 3.2c-.8.4-1.8.6-2.9.6-3.3 0-6.4-2.3-6.4-6.1s3.1-6.2 6.3-6.2c1.6 0 2.8.3 3.9.9l-.8 3.2zM160 65c-3.6 0-6.4-2.5-6.4-6.3s2.9-6.3 6.4-6.3c3.5 0 6.4 2.5 6.4 6.3S163.5 65 160 65zm0-9.2c-1.4 0-2.7 1.2-2.7 3 0 1.7 1.2 3 2.7 3 1.4 0 2.7-1.2 2.7-3s-1.3-3-2.7-3zM182.6 64.6v-7.2c0-.9-.4-1.6-1.7-1.6-1.2 0-1.8.7-1.8 1.7v7.2h-3.8v-7.2c0-.9-.4-1.6-1.7-1.6-1.2 0-1.8.7-1.8 1.7v7.2H168v-12h3.5v1.6c.5-1.2 1.6-2 3.5-2 1.7 0 3 .7 3.5 1.9.5-1.1 1.9-1.9 3.6-1.9 2.7 0 4.2 1.5 4.2 4v8.2h-3.7zM199.4 58.1l-1.7 1.7h-5.8c.2 1 1.5 2.1 3.5 2.1 1.2 0 2.5-.4 3.2-.9l-.4 3.3c-.9.5-2.2.8-3.7.8-3.6 0-6.5-2.5-6.5-6.3s2.8-6.2 6.1-6.2 5.3 2.3 5.3 4.7c.1.1.1.5 0 .8zm-5.2-2.8c-1.1 0-2.1.9-2.3 1.9h4v-.3c0-.7-.7-1.6-1.7-1.6z"/></g><g><path d="M36.7 75.5c-.4-.2-1.1-.3-1.5-.3-1.4 0-2.1.8-2.1 2.5v1.1h3.4l-.8 3.1H33v8.7h-3.7v-8.7h-1.8v-3.1h1.8v-1.4c0-3.6 2.3-5.4 5.3-5.4 1.1 0 2.2.1 2.8.4l-.7 3.1zM43 91c-3.6 0-6.4-2.5-6.4-6.3s2.9-6.3 6.4-6.3c3.5 0 6.4 2.5 6.4 6.3S46.6 91 43 91zm0-9.2c-1.4 0-2.7 1.2-2.7 3 0 1.7 1.2 3 2.7 3 1.4 0 2.7-1.2 2.7-3s-1.3-3-2.7-3zM58.4 82.9c-.2-.1-.8-.3-1.1-.3-1.2 0-2.3.6-2.3 2.5v5.5h-3.8V78.8H55v2.6c.4-1.8 1.8-2.8 3.4-2.8.4 0 .8.1 1.1.2l-1.1 4.1zM70.1 91.1c-2.4-.1-4-1.4-4-4.2V72.1h3.8v14.3c0 1 .5 1.5 1.6 1.6l-1.4 3.1zM74.7 77.2c-.7 0-2.1-1.4-2.1-2.1 0-.7 1.4-2 2.1-2 .7 0 2.1 1.4 2.1 2-.1.7-1.4 2.1-2.1 2.1zm-1.9 13.4V78.8h3.8v11.8h-3.8zM87.1 75.5c-.4-.2-1.1-.3-1.5-.3-1.4 0-2.1.8-2.1 2.5v1.1h3.4l-.9 3.1h-2.6v8.7h-3.7v-8.7h-1.8v-3.1h1.8v-1.4c0-3.6 2.3-5.4 5.3-5.4 1.1 0 2.2.1 2.8.4l-.7 3.1zM98.3 84.1l-1.7 1.7h-5.8c.2 1 1.5 2.1 3.5 2.1 1.2 0 2.5-.4 3.2-.9l-.4 3.3c-.8.4-2.1.7-3.6.7-3.6 0-6.5-2.5-6.5-6.3s2.8-6.2 6.1-6.2 5.3 2.3 5.3 4.7c0 .2 0 .6-.1.9zm-5.2-2.8c-1.1 0-2.1.9-2.3 1.9h4v-.3c.1-.7-.6-1.6-1.7-1.6zM101.5 91c-.7 0-2.2-1.5-2.2-2.2 0-.7 1.5-2.1 2.2-2.1.7 0 2.2 1.5 2.2 2.1 0 .7-1.5 2.2-2.2 2.2z"/></g></svg>