<svg xmlns="http://www.w3.org/2000/svg" viewBox="0 0 300 250"><path d="M34.3 38.6h-5.6V22h5.6c4.8 0 8.9 3.1 8.9 8.3 0 5.2-4.1 8.3-8.9 8.3zm-.4-13.3h-1.3v10h1.3c2.9 0 5.2-1.7 5.2-5s-2.3-5-5.2-5zM50.8 39c-3.6 0-6.4-2.5-6.4-6.3s2.9-6.3 6.4-6.3c3.5 0 6.4 2.5 6.4 6.3S54.4 39 50.8 39zm0-9.2c-1.4 0-2.7 1.2-2.7 3 0 1.7 1.2 3 2.7 3 1.4 0 2.7-1.2 2.7-3s-1.3-3-2.7-3zM66.3 38.6v-7.2c0-.9-.6-1.6-1.7-1.6s-1.9.7-1.9 1.7v7.2h-3.8V26.8h3.5v1.6c.5-1.2 1.7-2 3.6-2 2.6 0 4.1 1.5 4.1 4v8.2h-3.8zM72.8 29.4l-1.2-.2c.9-1 1.6-2.5 1.7-3.7-.7-.1-1.7-1.2-1.7-1.8 0-.8 1.5-2.1 2.2-2.1.6 0 2.2 1.3 2.2 2.1-.1 1.7-1.7 4.3-3.2 5.7zM85.3 29.9h-3.1v4.4c0 1 .5 1.4 1.6 1.4.4 0 .7 0 1-.2l-.3 2.9c-.4.2-1 .3-1.8.3-2.7 0-4.2-1.4-4.2-3.7v-5.1h-2v-3.1h2v-2.5l3.8-1.4v3.9h3.8l-.8 3.1zM98 44.6c-3.4 0-5.7-2-5.7-4.4 0-1.8 1.2-2.9 2.4-3.2l-1.5-1.5c.1-.8.8-1.4 1.4-1.7-.9-.5-1.7-1.7-1.7-3.1 0-2.5 1.8-4.2 4.9-4.2.7 0 1.2.1 1.7.2s1.1.2 1.7.2c.7 0 1.3-.2 1.8-.4l.7 2.9c-.4.2-.9.4-1.5.4.1.2.3.8.3 1.2 0 2-1.6 3.6-3.8 3.8-.5 0-.8.1-.8.4 0 .1.1.3.3.4l1.8.6c2.3.8 3.6 2 3.6 4.2 0 2.4-2.2 4.2-5.6 4.2zm.8-5.5l-1.4-.4c-.9 0-1.6.7-1.6 1.5s.7 1.5 2.1 1.5c1.4 0 2.1-.6 2.1-1.3-.1-.5-.5-1.1-1.2-1.3zm-1.1-9.9c-.9 0-1.5.6-1.5 1.4 0 .8.6 1.4 1.5 1.4.8 0 1.5-.6 1.5-1.4 0-.7-.6-1.4-1.5-1.4zM115.6 32.1l-1.7 1.7h-5.8c.2 1 1.5 2.1 3.5 2.1 1.2 0 2.5-.4 3.2-.9l-.4 3.3c-.9.5-2.2.8-3.7.8-3.6 0-6.5-2.5-6.5-6.3s2.8-6.2 6.1-6.2 5.3 2.3 5.3 4.7c.1.1 0 .5 0 .8zm-5.2-2.8c-1.1 0-2.1.9-2.3 1.9h4v-.3c0-.7-.7-1.6-1.7-1.6zM125.3 29.9h-3.1v4.4c0 1 .5 1.4 1.6 1.4.4 0 .7 0 1-.2l-.3 2.9c-.4.2-1 .3-1.8.3-2.7 0-4.2-1.4-4.2-3.7v-5.1h-2v-3.1h2v-2.5l3.8-1.4v3.9h3.8l-.8 3.1zM138.4 38.9c-2.5 0-4.5-.9-5.7-1.7V20.1h3.7v7.2c.5-.4 1.7-.8 3-.8 3.2 0 5.9 2.3 5.9 6 0 3.6-2.3 6.4-6.9 6.4zm.3-9.1c-1.1 0-1.9.5-2.3.9v4.5c.4.3 1.2.6 1.9.6 2 0 3.2-1.3 3.2-3 .1-1.7-1.1-3-2.8-3zM151.1 39.1c-2.4-.1-4-1.4-4-4.2V20.1h3.8v14.3c0 1 .5 1.5 1.6 1.6l-1.4 3.1zM155.6 25.2c-.7 0-2.1-1.4-2.1-2.1 0-.7 1.4-2 2.1-2s2.1 1.4 2.1 2c0 .7-1.4 2.1-2.1 2.1zm-1.9 13.4V26.8h3.8v11.8h-3.8zM167.2 38.6v-7.2c0-.9-.6-1.6-1.7-1.6s-1.9.7-1.9 1.7v7.2h-3.8V26.8h3.5v1.6c.5-1.2 1.7-2 3.6-2 2.6 0 4.1 1.5 4.1 4v8.2h-3.8zM182 38.6v-1.5c-.7 1.2-2 1.8-3.6 1.8-2.9 0-5.7-2.2-5.7-6.2 0-3.8 2.7-6.3 6-6.3 1.2 0 2.5.4 3 .8V20h3.7v18.5H182zm-.4-7.7c-.4-.5-1.1-1.1-2.3-1.1-1.7 0-2.8 1.3-2.8 3s1.2 3 2.8 3c1.1 0 1.9-.6 2.3-1.2v-3.7zM191.4 38.9c-1.6 0-2.8-.3-3.7-.8l-.3-3.4c1 .7 2.4 1.3 3.7 1.3.7 0 1.1-.4 1.1-.8 0-.5-.4-.7-1.1-.9-2.3-.6-3.6-1.8-3.6-3.8 0-2.3 1.9-3.8 4.4-3.8 1.5 0 2.9.4 3.5.7l-.7 2.8c-.6-.3-1.5-.6-2.4-.6-.6 0-1 .3-1 .8 0 .4.3.7 1 .9 2.7.7 3.7 2 3.7 4 0 1.7-1.5 3.6-4.6 3.6zM199.6 25.2c-.7 0-2.1-1.4-2.1-2.1 0-.7 1.4-2 2.1-2s2.1 1.4 2.1 2c-.1.7-1.4 2.1-2.1 2.1zm-1.9 13.4V26.8h3.8v11.8h-3.8zM212.5 38.6v-1.5c-.7 1.2-2 1.8-3.6 1.8-2.9 0-5.7-2.2-5.7-6.2 0-3.8 2.7-6.3 6-6.3 1.2 0 2.5.4 3 .8V20h3.7v18.5h-3.4zm-.4-7.7c-.4-.5-1.1-1.1-2.3-1.1-1.7 0-2.8 1.3-2.8 3s1.2 3 2.8 3c1.1 0 1.9-.6 2.3-1.2v-3.7zM228.8 32.1l-1.7 1.7h-5.8c.2 1 1.5 2.1 3.5 2.1 1.2 0 2.5-.4 3.3-.9l-.4 3.3c-.9.5-2.2.8-3.7.8-3.6 0-6.5-2.5-6.5-6.3s2.8-6.2 6.1-6.2 5.3 2.3 5.3 4.7c0 .1 0 .5-.1.8zm-5.1-2.8c-1.1 0-2.1.9-2.3 1.9h4v-.3c0-.7-.7-1.6-1.7-1.6zM239.3 38.6v-1.5c-.7 1.2-2 1.8-3.6 1.8-2.9 0-5.7-2.2-5.7-6.2 0-3.8 2.7-6.3 6-6.3 1.2 0 2.5.4 3 .8V20h3.7v18.5h-3.4zm-.4-7.7c-.4-.5-1.1-1.1-2.3-1.1-1.7 0-2.8 1.3-2.8 3s1.2 3 2.8 3c1.1 0 1.9-.6 2.3-1.2v-3.7z"/><g><path d="M34.3 64.9c-2.5 0-4.5-.9-5.7-1.7V46.1h3.7v7.2c.5-.4 1.7-.8 3-.8 3.2 0 5.9 2.3 5.9 6 0 3.6-2.3 6.4-6.9 6.4zm.3-9.1c-1.1 0-1.9.5-2.3.9v4.5c.4.3 1.2.6 1.9.6 2 0 3.2-1.3 3.2-3s-1.2-3-2.8-3zM49.4 63.4c-1.8 4.7-3.7 6.4-5.9 7.3l-2.3-2.3c1.9-.7 3.4-2.1 4.3-4.6l-4.2-11H45l1.7 4.6c.3.7.5 1.5.7 2.3h.1c.2-.8.5-1.6.8-2.3l1.7-4.6h3.5l-4.1 10.6zM68.1 55.9H65v4.4c0 1 .5 1.4 1.6 1.4.4 0 .7 0 1-.2l-.3 2.9c-.4.2-1 .3-1.8.3-2.7 0-4.2-1.4-4.2-3.7v-5.1h-2v-3.1h2v-2.5l3.8-1.4v3.9h3.8l-.8 3.1zM77.3 64.6v-7.2c0-.9-.6-1.6-1.8-1.6-1.1 0-1.8.7-1.8 1.7v7.2h-3.8V46.1h3.8v7.8c.6-.9 1.7-1.5 3.3-1.5 2.6 0 4.1 1.5 4.1 4v8.2h-3.8zM94.1 58.1l-1.7 1.7h-5.8c.2 1 1.5 2.1 3.5 2.1 1.2 0 2.5-.4 3.2-.9l-.3 3.2c-.9.5-2.2.8-3.7.8-3.6 0-6.5-2.5-6.5-6.3s2.8-6.2 6.1-6.2 5.3 2.3 5.3 4.7c0 .2-.1.6-.1.9zm-5.2-2.8c-1.1 0-2.1.9-2.3 1.9h4v-.3c0-.7-.7-1.6-1.7-1.6zM115.9 64.6v-7.2c0-.9-.4-1.6-1.7-1.6-1.2 0-1.8.7-1.8 1.7v7.2h-3.8v-7.2c0-.9-.4-1.6-1.7-1.6-1.2 0-1.8.7-1.8 1.7v7.2h-3.8v-12h3.5v1.6c.5-1.2 1.6-2 3.5-2 1.7 0 3 .7 3.5 1.9.5-1.1 1.9-1.9 3.6-1.9 2.7 0 4.2 1.5 4.2 4v8.2h-3.7zM130.2 65.1c-.7-.2-1.5-.7-1.8-1.6-.5 1-1.6 1.4-3.1 1.4-2.1 0-3.9-1.5-3.9-3.9 0-2.2 1.7-3.6 4-3.8l2.3-.2v-.4c0-.7-.6-1.2-1.8-1.2-1.1 0-2.4.4-3.3.9l-.7-2.9c1-.6 2.6-1 4.1-1 3.1 0 5.3 1.4 5.3 4.3v3.8c0 1.4.5 2.1 1.4 2.4l-2.5 2.2zm-2.5-5.6l-1.4.1c-1 .1-1.4.8-1.4 1.5 0 .6.5 1.1 1.2 1.1.9 0 1.7-.7 1.7-1.7v-1zM141.2 56.9c-.2-.1-.8-.3-1.1-.3-1.2 0-2.3.6-2.3 2.5v5.5H134V52.8h3.8v2.6c.4-1.8 1.8-2.8 3.4-2.8.4 0 .8.1 1.1.2l-1.1 4.1zM150.4 64.6l-3.5-4.8v4.8h-3.8V46.1h3.8v11.5l3.5-4.8h4.2l-4.1 5.7 4.4 6.1h-4.5z"/><path d="M166.1 58.1l-1.7 1.7h-5.8c.2 1 1.5 2.1 3.5 2.1 1.2 0 2.5-.4 3.3-.9l-.4 3.3c-.9.5-2.2.8-3.7.8-3.6 0-6.5-2.5-6.5-6.3s2.8-6.2 6.1-6.2 5.3 2.3 5.3 4.7c0 .1-.1.5-.1.8zm-5.2-2.8c-1.1 0-2.1.9-2.3 1.9h4v-.3c0-.7-.7-1.6-1.7-1.6zM175.8 55.9h-3.1v4.4c0 1 .5 1.4 1.6 1.4.4 0 .7 0 1-.2l-.3 2.9c-.4.2-1 .3-1.8.3-2.7 0-4.2-1.4-4.2-3.7v-5.1h-2v-3.1h2v-2.5l3.8-1.4v3.9h3.8l-.8 3.1zM181.2 64.9c-1.6 0-2.8-.3-3.7-.8l-.3-3.4c1 .7 2.4 1.3 3.7 1.3.7 0 1.1-.4 1.1-.8 0-.5-.4-.7-1.1-.9-2.3-.6-3.6-1.8-3.6-3.8 0-2.3 1.9-3.8 4.4-3.8 1.5 0 2.9.4 3.5.7l-.7 2.8c-.6-.3-1.5-.6-2.4-.6-.6 0-1 .3-1 .8 0 .4.3.7 1 .9 2.7.7 3.7 2 3.7 4 0 1.7-1.5 3.6-4.6 3.6zM189.3 65c-.7 0-2.2-1.5-2.2-2.2 0-.7 1.5-2.1 2.2-2.1.7 0 2.2 1.5 2.2 2.1-.1.7-1.5 2.2-2.2 2.2z"/></g></svg>