<svg id="Layer_1" xmlns="http://www.w3.org/2000/svg" viewBox="0 0 300 250"><style>.st0{fill:#f9e038}</style><path class="st0" d="M29.5 204.8s-9.9 0-9.9 9.9v8.7s0 9.9 9.9 9.9h85.9s9.9 0 9.9-9.9v-8.7s0-9.9-9.9-9.9H29.5z"/><path d="M34.2 217.5c0-.8-.3-1.6-1.3-1.6-1.2 0-1.4 1.6-1.4 2.5 0 1 .1 2.4 1.5 2.4.8 0 1.2-.7 1.3-1.4l1.7.1c-.2 1.7-1.4 2.8-3.1 2.8-2.2 0-3.3-1.8-3.3-3.9 0-2.1 1.1-3.9 3.4-3.9 1.9 0 2.9 1.1 3.1 2.9l-1.9.1zM43.4 222.1h-1.9l-.5-1.6h-2.4l-.5 1.6h-1.6l2.4-7.5h2l2.5 7.5zm-2.7-2.9l-.8-2.7-.8 2.7h1.6zM49 220.6v1.5h-4.8v-7.5H46v6.1h3zM54 217.5c0-.8-.3-1.6-1.3-1.6-1.2 0-1.4 1.6-1.4 2.5 0 1 .1 2.4 1.5 2.4.8 0 1.2-.7 1.3-1.4l1.7.1c-.2 1.7-1.4 2.8-3.1 2.8-2.2 0-3.3-1.8-3.3-3.9 0-2.1 1.1-3.9 3.4-3.9 1.9 0 2.9 1.1 3.1 2.9l-1.9.1zM63 219.2c0 .8 0 1.7-.6 2.3-.6.6-1.5.8-2.3.8-.8 0-1.7-.1-2.3-.6-.7-.6-.8-1.5-.8-2.4v-4.6h1.9v4.6c0 .4 0 .9.2 1.2.2.4.7.5 1.1.5.4 0 .9-.1 1.1-.4.2-.3.2-.9.2-1.3v-4.6H63v4.5zM69 220.6v1.5h-4.8v-7.5H66v6.1h3zM76 222.1h-1.9l-.5-1.6h-2.4l-.5 1.6h-1.6l2.4-7.5h2l2.5 7.5zm-2.8-2.9l-.8-2.7-.8 2.7h1.6zM81.1 216.1h-1.9v6.1h-1.8v-6.1h-1.9v-1.5h5.6v1.5zM83.8 216.1v1.5h2.9v1.4h-2.9v1.7h3.6v1.5H82v-7.5h5.4v1.5h-3.6zM97.5 222.1H96l-2.9-5.1v5.1h-1.4v-7.5h1.9l2.5 4.4v-4.4h1.4v7.5zM99.5 221.1c-.6-.8-.8-1.8-.8-2.7 0-2 1-3.9 3.2-3.9 1 0 1.8.3 2.4 1.2.5.7.8 1.8.8 2.7 0 .9-.2 1.9-.7 2.6-.6.9-1.5 1.3-2.5 1.3s-1.8-.4-2.4-1.2zm1.3-4.3c-.2.5-.2 1.1-.2 1.6 0 .9.1 2.5 1.4 2.5.6 0 .9-.3 1.1-.9.2-.5.2-1.1.2-1.6s-.1-1.2-.3-1.7c-.2-.5-.5-.7-1.1-.7-.6-.1-.9.2-1.1.8zM113.2 222.1h-1.7l-1.2-5-1.2 5h-1.7l-1.9-7.5h1.8l1.2 5.1 1.2-5.1h1.6l1.3 5.1.1-.3 1.1-4.8h1.5l-2.1 7.5z"/></svg>