<svg id="Layer_1" xmlns="http://www.w3.org/2000/svg" xmlns:xlink="http://www.w3.org/1999/xlink" viewBox="0 0 300 250"><style>.st0{fill:#005c97}.st1{clip-path:url(#SVGID_2_);fill:#fff}.st2{clip-path:url(#SVGID_4_);fill:url(#SVGID_5_)}.st3{clip-path:url(#SVGID_7_);fill:url(#SVGID_8_)}.st4{clip-path:url(#SVGID_10_);fill:url(#SVGID_11_)}</style><path class="st0" d="M230.7 206.1v3.7H224v17.9h-4.2v-17.9h-6.6v-3.7h17.5zm1.7 21.6h4.2v-21.6h-4.2v21.6zm25.8 0h-4.3l-2.2-5.3h-7.3l-2.2 5.3H238l9.2-21.9h1.8l9.2 21.9zm20.3 0h-4.3l-2.2-5.3h-7.3l-2.2 5.3h-4.2l9.2-21.9h1.8l9.2 21.9zm-28.2-8.9l-2.2-5.4-2.2 5.4h4.4zm20.2 0l-2.2-5.4-2.2 5.4h4.4z"/><defs><path id="SVGID_1_" d="M178 197.2h106.1v36.1H178z"/></defs><clipPath id="SVGID_2_"><use xlink:href="#SVGID_1_" overflow="visible"/></clipPath><path class="st1" d="M198.1 229.1c1.9 0 3.5-.8 4.7-2l5.1-5.1c1.2-1.2 1.9-2.8 1.9-4.6v-15.9H194c-1.9 0-3.5.8-4.7 2l-5.1 5.1a6.42 6.42 0 0 0-1.9 4.6v15.9h15.8z"/><defs><path id="SVGID_3_" d="M195.8 202.8c-2.9 0-5.2 2.3-5.2 5.2v1.8h10.9v10.9h1.8c2.9 0 5.2-2.3 5.2-5.2v-12.7h-12.7z"/></defs><clipPath id="SVGID_4_"><use xlink:href="#SVGID_3_" overflow="visible"/></clipPath><linearGradient id="SVGID_5_" gradientUnits="userSpaceOnUse" x1=".96" y1="251.04" x2="1.96" y2="251.04" gradientTransform="scale(17.6142 -17.6142) rotate(45 323.828 131.686)"><stop offset="0" stop-color="#9cdbf8"/><stop offset=".1" stop-color="#9cdbf8"/><stop offset=".9" stop-color="#009dda"/><stop offset="1" stop-color="#009dda"/></linearGradient><path class="st2" d="M181.6 211.7l17.9-17.9 17.9 17.9-17.9 18z"/><g><defs><path id="SVGID_6_" d="M203.2 222.1h-14.1l-5.6 5.6H198c1.4 0 2.7-.6 3.7-1.6l4.7-4.7-.1-.1c-.8.5-1.9.8-3.1.8"/></defs><clipPath id="SVGID_7_"><use xlink:href="#SVGID_6_" overflow="visible"/></clipPath><linearGradient id="SVGID_8_" gradientUnits="userSpaceOnUse" x1=".956" y1="251" x2="1.956" y2="251" gradientTransform="matrix(22.9632 0 0 -22.9632 161.625 5988.247)"><stop offset="0" stop-color="#18b0e6"/><stop offset=".162" stop-color="#16aae1"/><stop offset=".375" stop-color="#129ad2"/><stop offset=".617" stop-color="#0b7eb9"/><stop offset=".879" stop-color="#015897"/><stop offset=".9" stop-color="#005594"/><stop offset="1" stop-color="#005594"/></linearGradient><path class="st3" d="M183.6 221.3h23v6.4h-23z"/></g><g><defs><path id="SVGID_9_" d="M185.2 209.4c-1 1-1.6 2.3-1.6 3.7v14.5l5.6-5.6v-14c0-1.2.3-2.2.8-3.2l-.1-.1-4.7 4.7z"/></defs><clipPath id="SVGID_10_"><use xlink:href="#SVGID_9_" overflow="visible"/></clipPath><linearGradient id="SVGID_11_" gradientUnits="userSpaceOnUse" x1="1" y1="251.043" x2="2" y2="251.043" gradientTransform="matrix(0 -22.9635 -22.9635 0 5951.632 250.656)"><stop offset="0" stop-color="#0081bc"/><stop offset=".412" stop-color="#006eab"/><stop offset=".85" stop-color="#005594"/><stop offset="1" stop-color="#005594"/></linearGradient><path class="st4" d="M183.6 204.7h6.4v23h-6.4z"/></g></svg>