<?xml version="1.0" encoding="utf-8"?>
<!-- Generator: Adobe Illustrator 22.1.0, SVG Export Plug-In . SVG Version: 6.00 Build 0)  -->
<svg version="1.1" id="Layer_1" xmlns="http://www.w3.org/2000/svg" xmlns:xlink="http://www.w3.org/1999/xlink" x="0px" y="0px"
	 viewBox="0 0 360 650" style="enable-background:new 0 0 360 650;" xml:space="preserve">
<style type="text/css">
	.st0{fill:#3A833F;}
</style>
<path class="st0" d="M129.1,501.3c-5.9-4.5-19.6-5.1-23.2,2.6c2.1-7.1-1.7-16.8-7.6-21.2c-5.5-4.1-12.6-5.1-19.2-4.1
	c-12.5,1.9-23.8,11.3-25.4,24c-2.6-4-7.1-6.7-12.3-6.7c-5.5,0-10.2,3-12.7,7.4c-4-7.1-17.1-6.5-22.9-2.1c-6.9,5.3-7.7,14.8-5.6,23.1
	h36.2h17.6h80.9C136.8,516.1,136.1,506.6,129.1,501.3"/>
<path class="st0" d="M373.7,501.3c-5.9-4.5-19.6-5.1-23.2,2.6c2.1-7.1-1.7-16.8-7.6-21.2c-5.5-4.1-12.6-5.1-19.2-4.1
	c-12.5,1.9-23.8,11.3-25.4,24c-2.6-4-7.1-6.7-12.3-6.7c-5.5,0-10.2,3-12.7,7.4c-4-7.1-17.1-6.5-22.9-2.1c-6.9,5.3-7.7,14.8-5.6,23.1
	h36.2h17.6h80.9C381.4,516.1,380.6,506.6,373.7,501.3"/>
</svg>
