<?xml version="1.0" encoding="utf-8"?>
<!-- Generator: Adobe Illustrator 22.1.0, SVG Export Plug-In . SVG Version: 6.00 Build 0)  -->
<svg version="1.1" id="Layer_1" xmlns="http://www.w3.org/2000/svg" xmlns:xlink="http://www.w3.org/1999/xlink" x="0px" y="0px"
	 viewBox="0 0 300 600" style="enable-background:new 0 0 300 600;" xml:space="preserve">
<style type="text/css">
	.st0{fill:#231F20;}
</style>
<g>
	<path class="st0" d="M15.6,583h-2.2l-0.2,1.5c0.1,0,0.3,0,0.5,0c0.4,0,0.9,0.1,1.2,0.3c0.5,0.3,0.8,0.8,0.8,1.5c0,1.1-0.9,2-2.1,2
		c-0.6,0-1.2-0.2-1.4-0.4l0.2-0.6c0.2,0.1,0.7,0.3,1.2,0.3c0.7,0,1.4-0.5,1.4-1.2c0-0.7-0.5-1.3-1.7-1.3c-0.3,0-0.6,0-0.8,0.1
		l0.4-2.8h2.8V583z"/>
	<path class="st0" d="M16.6,586.6c0-0.7,0.4-1.2,1.1-1.5l0,0c-0.6-0.3-0.9-0.8-0.9-1.3c0-0.9,0.8-1.5,1.8-1.5c1.1,0,1.7,0.7,1.7,1.4
		c0,0.5-0.2,1-0.9,1.3v0c0.7,0.3,1.2,0.8,1.2,1.5c0,1-0.9,1.7-2,1.7C17.3,588.2,16.6,587.4,16.6,586.6z M19.7,586.6
		c0-0.7-0.5-1-1.3-1.3c-0.7,0.2-1,0.6-1,1.2c0,0.6,0.4,1.1,1.2,1.1C19.3,587.6,19.7,587.2,19.7,586.6z M17.6,583.7
		c0,0.6,0.4,0.9,1.1,1.1c0.5-0.2,0.9-0.5,0.9-1c0-0.5-0.3-0.9-1-0.9C17.9,582.8,17.6,583.2,17.6,583.7z"/>
	<path class="st0" d="M25,585.1c0,2-0.7,3-2,3c-1.1,0-1.9-1.1-1.9-3c0-1.9,0.8-3,2-3C24.4,582.2,25,583.3,25,585.1z M21.9,585.2
		c0,1.5,0.5,2.3,1.2,2.3c0.8,0,1.2-0.9,1.2-2.4c0-1.4-0.4-2.3-1.2-2.3C22.4,582.8,21.9,583.6,21.9,585.2z"/>
	<path class="st0" d="M29.6,585.1c0,2-0.7,3-2,3c-1.1,0-1.9-1.1-1.9-3c0-1.9,0.8-3,2-3C28.9,582.2,29.6,583.3,29.6,585.1z
		 M26.5,585.2c0,1.5,0.5,2.3,1.2,2.3c0.8,0,1.2-0.9,1.2-2.4c0-1.4-0.4-2.3-1.2-2.3C27,582.8,26.5,583.6,26.5,585.2z"/>
	<path class="st0" d="M30.8,587.5c0.2,0,0.4,0,0.6,0c0.5-0.1,0.9-0.2,1.2-0.6c0.4-0.3,0.7-0.9,0.8-1.5h0c-0.3,0.4-0.8,0.6-1.4,0.6
		c-1,0-1.7-0.8-1.7-1.8c0-1.1,0.8-2,2-2s1.9,1,1.9,2.4c0,1.3-0.4,2.2-1,2.7c-0.4,0.4-1.1,0.7-1.7,0.8c-0.3,0-0.5,0.1-0.7,0V587.5z
		 M31,584.2c0,0.7,0.4,1.2,1.1,1.2c0.5,0,0.9-0.3,1.1-0.6c0-0.1,0.1-0.2,0.1-0.3c0-1-0.4-1.7-1.2-1.7C31.5,582.8,31,583.4,31,584.2z
		"/>
	<path class="st0" d="M37.3,588.1v-1.6h-2.7V586l2.6-3.7H38v3.6h0.8v0.6H38v1.6H37.3z M37.3,585.9V584c0-0.3,0-0.6,0-0.9h0
		c-0.2,0.3-0.3,0.6-0.5,0.9l-1.4,2v0H37.3z"/>
</g>
</svg>
