<?xml version="1.0" encoding="utf-8"?>
<!-- Generator: Adobe Illustrator 22.1.0, SVG Export Plug-In . SVG Version: 6.00 Build 0)  -->
<svg version="1.1" id="Layer_1" xmlns="http://www.w3.org/2000/svg" xmlns:xlink="http://www.w3.org/1999/xlink" x="0px" y="0px"
	 viewBox="0 0 300 600" style="enable-background:new 0 0 300 600;" xml:space="preserve">
<style type="text/css">
	.st0{fill:#231F20;}
</style>
<g>
	<path class="st0" d="M50,59.8h-2.9l-2.7-8.2c-0.4-1.2-0.8-2.5-1.2-4.1h-0.1c-0.4,1.6-0.8,2.9-1.2,4.1l-2.7,8.2h-2.8l-6.2-18.6h4.4
		l2.4,7.5c0.3,1.1,0.7,2.3,1,3.7h0.1c0.3-1.4,0.6-2.5,1-3.7l2.4-7.5h3.9l2.4,7.4c0.3,1,0.7,2.4,1,3.7h0.1c0.2-1.3,0.6-2.7,1-3.7
		l2.5-7.5h3.9L50,59.8z"/>
	<path class="st0" d="M66.1,59.7v-8.1c0-1-0.7-1.8-2-1.8c-1.3,0-2.1,0.8-2.1,1.9v8h-4.3V39.1H62v8.7h0c0.7-1,1.9-1.6,3.7-1.6
		c2.9,0,4.6,1.6,4.6,4.4v9.1H66.1z"/>
	<path class="st0" d="M85,52.4l-1.9,1.9h-6.4c0.2,1.1,1.7,2.3,3.9,2.3c1.4,0,2.8-0.4,3.6-1l-0.4,3.6c-1,0.5-2.5,0.9-4.2,0.9
		c-4,0-7.2-2.8-7.2-7.1c0-4.2,3.1-6.9,6.8-6.9c3.6,0,5.9,2.5,5.9,5.2C85.1,51.7,85.1,52.1,85,52.4z M79.3,49.3c-1.2,0-2.3,1-2.5,2.1
		h4.4c0-0.1,0-0.2,0-0.3C81.2,50.3,80.4,49.3,79.3,49.3z"/>
	<path class="st0" d="M95.5,59.7v-8.1c0-1-0.6-1.8-1.9-1.8c-1.3,0-2.1,0.8-2.1,1.9v8h-4.3V46.6h3.9v1.8h0c0.5-1.4,1.9-2.2,4-2.2
		c2.9,0,4.6,1.6,4.6,4.4v9.1H95.5z"/>
	<path class="st0" d="M116.9,58.4c-2,5.3-4.1,7.2-6.5,8.1l-2.6-2.6c2.1-0.8,3.7-2.3,4.8-5.1l-4.7-12.2h4.1l1.9,5.1
		c0.3,0.8,0.6,1.7,0.8,2.6h0.1c0.3-0.9,0.6-1.8,0.8-2.6l1.9-5.1h3.9L116.9,58.4z"/>
	<path class="st0" d="M128.9,60.1c-4,0-7.2-2.8-7.2-7s3.2-7,7.2-7c3.9,0,7.2,2.8,7.2,7S132.8,60.1,128.9,60.1z M128.9,49.9
		c-1.6,0-3,1.4-3,3.3s1.4,3.3,3,3.3c1.6,0,3-1.4,3-3.3S130.4,49.9,128.9,49.9z"/>
	<path class="st0" d="M146.7,59.7v-1.8h0c-0.5,1.4-1.9,2.2-4,2.2c-2.9,0-4.6-1.6-4.6-4.4v-9.1h4.3v8.1c0,1,0.7,1.8,2,1.8
		c1.3,0,2.1-0.8,2.1-1.9v-8h4.3v13.1H146.7z"/>
	<path class="st0" d="M168.1,59.7v-8.1c0-1-0.7-1.8-2-1.8c-1.3,0-2.1,0.8-2.1,1.9v8h-4.3V39.1h4.2v8.7h0c0.7-1,1.9-1.6,3.7-1.6
		c2.9,0,4.6,1.6,4.6,4.4v9.1H168.1z"/>
	<path class="st0" d="M184.2,60.3c-0.8-0.2-1.7-0.8-2-1.7c-0.6,1.1-1.8,1.6-3.4,1.6c-2.3,0-4.4-1.6-4.4-4.3c0-2.4,1.9-4,4.5-4.3
		l2.6-0.3v-0.4c0-0.8-0.6-1.3-2.1-1.3c-1.3,0-2.7,0.4-3.6,1l-0.8-3.2c1.1-0.7,2.9-1.2,4.6-1.2c3.5,0,5.9,1.6,5.9,4.7v4.3
		c0,1.5,0.6,2.3,1.6,2.7L184.2,60.3z M181.5,54l-1.6,0.1c-1.1,0.1-1.6,0.9-1.6,1.7c0,0.7,0.5,1.3,1.3,1.3c1,0,1.9-0.8,1.9-1.9V54z"
		/>
	<path class="st0" d="M195.1,59.8h-3.2l-5-13.2h4.1l1.9,5c0.3,0.7,0.5,1.7,0.7,2.5h0.1c0.2-0.8,0.5-1.9,0.8-2.5l1.9-5h3.9
		L195.1,59.8z"/>
	<path class="st0" d="M213.1,52.4l-1.9,1.9h-6.4c0.2,1.1,1.7,2.3,3.9,2.3c1.4,0,2.8-0.4,3.6-1l-0.4,3.6c-1,0.5-2.5,0.9-4.2,0.9
		c-4,0-7.2-2.8-7.2-7.1c0-4.2,3.1-6.9,6.8-6.9c3.6,0,5.9,2.5,5.9,5.2C213.2,51.7,213.2,52.1,213.1,52.4z M207.3,49.3
		c-1.2,0-2.3,1-2.5,2.1h4.4c0-0.1,0-0.2,0-0.3C209.3,50.3,208.5,49.3,207.3,49.3z"/>
	<path class="st0" d="M226.4,60.2c-2.7-0.1-4.5-1.5-4.5-4.7V39.1h4.2v16c0,1.1,0.6,1.7,1.8,1.7L226.4,60.2z"/>
	<path class="st0" d="M231.7,44.8c-0.8,0-2.3-1.5-2.3-2.3s1.5-2.3,2.3-2.3s2.3,1.5,2.3,2.3S232.5,44.8,231.7,44.8z M229.6,59.7V46.6
		h4.3v13.1H229.6z"/>
	<path class="st0" d="M245.8,42.9c-0.5-0.2-1.2-0.3-1.7-0.3c-1.6,0-2.4,0.9-2.4,2.8v1.2h3.8l-0.8,3.5h-2.9v9.6h-4.1v-9.6h-2v-3.5h2
		V45c0-4,2.6-6,5.9-6c1.2,0,2.4,0.1,3.1,0.4L245.8,42.9z"/>
	<path class="st0" d="M258.6,52.4l-1.9,1.9h-6.4c0.2,1.1,1.7,2.3,3.9,2.3c1.4,0,2.8-0.4,3.6-1l-0.4,3.6c-1,0.5-2.5,0.9-4.2,0.9
		c-4,0-7.2-2.8-7.2-7.1c0-4.2,3.1-6.9,6.8-6.9c3.6,0,5.9,2.5,5.9,5.2C258.7,51.7,258.7,52.1,258.6,52.4z M252.9,49.3
		c-1.2,0-2.3,1-2.5,2.1h4.4c0-0.1,0-0.2,0-0.3C254.8,50.3,254,49.3,252.9,49.3z"/>
</g>
<g>
	<path class="st0" d="M33.6,76c-0.8,0-2.3-1.5-2.3-2.3c0-0.8,1.5-2.3,2.3-2.3c0.8,0,2.3,1.5,2.3,2.3C35.9,74.4,34.3,76,33.6,76z
		 M31.4,90.9V77.8h4.3v13.1H31.4z"/>
	<path class="st0" d="M46.7,90.9v-8.1c0-1-0.6-1.8-1.9-1.8c-1.3,0-2.1,0.8-2.1,1.9v8h-4.3V77.8h3.9v1.8h0c0.5-1.4,1.9-2.2,4-2.2
		c2.9,0,4.6,1.6,4.6,4.4v9.1H46.7z"/>
	<path class="st0" d="M57.9,91.2c-1.8,0-3.1-0.4-4.2-0.9l-0.4-3.8c1.2,0.8,2.7,1.4,4.1,1.4c0.8,0,1.3-0.4,1.3-0.9
		c0-0.6-0.4-0.8-1.2-1c-2.5-0.7-4-2-4-4.3c0-2.6,2.1-4.2,4.9-4.2c1.6,0,3.2,0.4,3.9,0.8l-0.7,3.1c-0.6-0.3-1.7-0.7-2.7-0.7
		c-0.7,0-1.2,0.3-1.2,0.8c0,0.5,0.3,0.8,1.2,1c3,0.8,4.2,2.3,4.2,4.5C63,89.1,61.4,91.2,57.9,91.2z"/>
	<path class="st0" d="M73.7,90.9v-1.8h0c-0.5,1.4-1.9,2.2-4,2.2c-2.9,0-4.6-1.6-4.6-4.4v-9.1h4.3v8.1c0,1,0.7,1.8,2,1.8
		c1.3,0,2.1-0.8,2.1-1.9v-8h4.3v13.1H73.7z"/>
	<path class="st0" d="M88.5,82.3c-0.3-0.1-0.8-0.3-1.3-0.3c-1.4,0-2.6,0.7-2.6,2.8v6.1h-4.3V77.8h4.2v2.9h0c0.4-2.1,2-3.2,3.7-3.2
		c0.4,0,0.9,0.1,1.2,0.2L88.5,82.3z"/>
	<path class="st0" d="M100.1,91.5c-0.8-0.2-1.7-0.8-2-1.7c-0.6,1.1-1.8,1.6-3.4,1.6c-2.3,0-4.4-1.6-4.4-4.3c0-2.4,1.9-4,4.5-4.3
		l2.6-0.3V82c0-0.8-0.6-1.3-2.1-1.3c-1.3,0-2.7,0.4-3.6,1l-0.8-3.2c1.1-0.7,2.9-1.2,4.6-1.2c3.5,0,5.9,1.6,5.9,4.7v4.3
		c0,1.5,0.6,2.3,1.6,2.7L100.1,91.5z M97.4,85.1l-1.6,0.1c-1.1,0.1-1.6,0.9-1.6,1.7c0,0.7,0.5,1.3,1.3,1.3c1,0,1.9-0.8,1.9-1.9V85.1
		z"/>
	<path class="st0" d="M112.8,90.9v-8.1c0-1-0.6-1.8-1.9-1.8c-1.3,0-2.1,0.8-2.1,1.9v8h-4.3V77.8h3.9v1.8h0c0.5-1.4,1.9-2.2,4-2.2
		c2.9,0,4.6,1.6,4.6,4.4v9.1H112.8z"/>
	<path class="st0" d="M129.6,82c-0.9-0.6-1.8-0.8-2.8-0.8c-1.9,0-3.3,1.3-3.3,3.2c0,1.9,1.5,3.2,3.4,3.2c1.1,0,1.9-0.2,2.9-0.7
		l-0.4,3.6c-0.9,0.4-2,0.6-3.2,0.6c-3.7,0-7.1-2.6-7.1-6.8c0-4.3,3.4-6.9,7-6.9c1.7,0,3.2,0.3,4.3,1L129.6,82z"/>
	<path class="st0" d="M144.2,83.6l-1.9,1.9h-6.4c0.2,1.1,1.7,2.3,3.9,2.3c1.4,0,2.8-0.4,3.6-1l-0.4,3.6c-1,0.5-2.5,0.9-4.2,0.9
		c-4,0-7.2-2.8-7.2-7.1c0-4.2,3.1-6.9,6.8-6.9c3.6,0,5.9,2.5,5.9,5.2C144.3,82.9,144.3,83.3,144.2,83.6z M138.5,80.5
		c-1.2,0-2.3,1-2.5,2.1h4.4c0-0.1,0-0.2,0-0.3C140.4,81.5,139.6,80.5,138.5,80.5z"/>
	<path class="st0" d="M147,95.2l-1.3-0.2c1-1.1,1.7-2.8,1.9-4.1c-0.7-0.1-1.9-1.4-1.9-2c0-0.8,1.7-2.4,2.4-2.4
		c0.7,0,2.4,1.5,2.4,2.4C150.5,90.7,148.7,93.7,147,95.2z"/>
</g>
</svg>
