<?xml version="1.0" encoding="utf-8"?>
<!-- Generator: Adobe Illustrator 22.1.0, SVG Export Plug-In . SVG Version: 6.00 Build 0)  -->
<svg version="1.1" id="Layer_1" xmlns="http://www.w3.org/2000/svg" xmlns:xlink="http://www.w3.org/1999/xlink" x="0px" y="0px"
	 viewBox="0 0 300 600" style="enable-background:new 0 0 300 600;" xml:space="preserve">
<style type="text/css">
	.st0{fill:#231F20;}
</style>
<path class="st0" d="M167.2,89.6c-2,5.3-4.1,7.2-6.5,8.1l-2.6-2.6c2.1-0.8,3.7-2.3,4.8-5.1l-4.7-12.2h4.1l1.9,5.1
	c0.3,0.8,0.6,1.7,0.8,2.6h0.1c0.3-0.9,0.6-1.8,0.8-2.6l1.9-5.1h3.9L167.2,89.6z"/>
<path class="st0" d="M179.2,91.3c-4,0-7.2-2.8-7.2-7s3.2-7,7.2-7c3.9,0,7.2,2.8,7.2,7S183.1,91.3,179.2,91.3z M179.2,81
	c-1.6,0-3,1.4-3,3.3s1.4,3.3,3,3.3c1.6,0,3-1.4,3-3.3S180.7,81,179.2,81z"/>
<path class="st0" d="M197,90.9v-1.8h0c-0.5,1.4-1.9,2.2-4,2.2c-2.9,0-4.6-1.6-4.6-4.4v-9.1h4.3v8.1c0,1,0.7,1.8,2,1.8
	c1.3,0,2.1-0.8,2.1-1.9v-8h4.3v13.1H197z"/>
<path class="st0" d="M220.1,82c-0.9-0.6-1.8-0.8-2.8-0.8c-1.9,0-3.3,1.3-3.3,3.2c0,1.9,1.5,3.2,3.4,3.2c1.1,0,1.9-0.2,2.9-0.7
	l-0.4,3.6c-0.9,0.4-2,0.6-3.2,0.6c-3.7,0-7.1-2.6-7.1-6.8c0-4.3,3.4-6.9,7-6.9c1.7,0,3.2,0.3,4.3,1L220.1,82z"/>
<path class="st0" d="M232,91.5c-0.8-0.2-1.7-0.8-2-1.7c-0.6,1.1-1.8,1.6-3.4,1.6c-2.3,0-4.4-1.6-4.4-4.3c0-2.4,1.9-4,4.5-4.3
	l2.6-0.3V82c0-0.8-0.6-1.3-2.1-1.3c-1.3,0-2.7,0.4-3.6,1l-0.8-3.2c1.1-0.7,2.9-1.2,4.6-1.2c3.5,0,5.9,1.6,5.9,4.7v4.3
	c0,1.5,0.6,2.3,1.6,2.7L232,91.5z M229.3,85.1l-1.6,0.1c-1.1,0.1-1.6,0.9-1.6,1.7c0,0.7,0.5,1.3,1.3,1.3c1,0,1.9-0.8,1.9-1.9V85.1z"
	/>
<path class="st0" d="M244.7,90.9v-8.1c0-1-0.6-1.8-1.9-1.8c-1.3,0-2.1,0.8-2.1,1.9v8h-4.3V77.8h3.9v1.8h0c0.5-1.4,1.9-2.2,4-2.2
	c2.9,0,4.6,1.6,4.6,4.4v9.1H244.7z"/>
<g>
	<path class="st0" d="M35.6,122.4c-1.8,0-3.1-0.4-4.2-0.9l-0.4-3.8c1.2,0.8,2.7,1.4,4.1,1.4c0.8,0,1.3-0.4,1.3-0.9
		c0-0.6-0.4-0.8-1.2-1c-2.5-0.7-4-2-4-4.3c0-2.6,2.1-4.2,4.9-4.2c1.6,0,3.2,0.4,3.9,0.8l-0.7,3.1c-0.6-0.3-1.7-0.7-2.7-0.7
		c-0.7,0-1.2,0.3-1.2,0.8c0,0.5,0.3,0.8,1.2,1c3,0.8,4.2,2.3,4.2,4.5C40.7,120.3,39.1,122.4,35.6,122.4z"/>
	<path class="st0" d="M47.3,122.6c-2.7-0.1-4.5-1.5-4.5-4.7v-16.5H47v16c0,1.1,0.6,1.7,1.8,1.7L47.3,122.6z"/>
	<path class="st0" d="M62.3,114.8l-1.9,1.9h-6.4c0.2,1.1,1.7,2.3,3.9,2.3c1.4,0,2.8-0.4,3.6-1l-0.4,3.6c-1,0.5-2.5,0.9-4.2,0.9
		c-4,0-7.2-2.8-7.2-7.1c0-4.2,3.1-6.9,6.8-6.9c3.6,0,5.9,2.5,5.9,5.2C62.4,114.1,62.3,114.5,62.3,114.8z M56.5,111.7
		c-1.2,0-2.3,1-2.5,2.1h4.4c0-0.1,0-0.2,0-0.3C58.4,112.7,57.6,111.7,56.5,111.7z"/>
	<path class="st0" d="M76.4,114.8l-1.9,1.9H68c0.2,1.1,1.7,2.3,3.9,2.3c1.4,0,2.8-0.4,3.6-1l-0.4,3.6c-1,0.5-2.5,0.9-4.2,0.9
		c-4,0-7.2-2.8-7.2-7.1c0-4.2,3.1-6.9,6.8-6.9c3.6,0,5.9,2.5,5.9,5.2C76.5,114.1,76.4,114.5,76.4,114.8z M70.6,111.7
		c-1.2,0-2.3,1-2.5,2.1h4.4c0-0.1,0-0.2,0-0.3C72.5,112.7,71.7,111.7,70.6,111.7z"/>
	<path class="st0" d="M86,122.4c-1.4,0-2.8-0.4-3.3-0.9v7.2h-4.1v-19.8h3.7v1.6h0c0.7-1.3,2.2-2,4.1-2c3.2,0,6.3,2.4,6.3,6.9
		C92.7,119.7,89.7,122.4,86,122.4z M85.3,112.3c-1.2,0-2.1,0.7-2.6,1.4v4.1c0.4,0.6,1.3,1.2,2.6,1.2c1.9,0,3.2-1.4,3.2-3.3
		C88.4,113.7,87.1,112.3,85.3,112.3z"/>
	<path class="st0" d="M107.7,122.4c-2.8,0-5-1-6.3-1.9v-19.1h4.1v8c0.6-0.4,1.9-0.9,3.3-0.9c3.6,0,6.6,2.6,6.6,6.7
		C115.4,119.3,112.8,122.4,107.7,122.4z M108.1,112.3c-1.2,0-2.1,0.6-2.5,1v5c0.4,0.3,1.3,0.6,2.1,0.6c2.2,0,3.5-1.5,3.5-3.4
		C111.2,113.7,109.9,112.3,108.1,112.3z"/>
	<path class="st0" d="M129.5,114.8l-1.9,1.9h-6.4c0.2,1.1,1.7,2.3,3.9,2.3c1.4,0,2.8-0.4,3.6-1l-0.4,3.6c-1,0.5-2.5,0.9-4.2,0.9
		c-4,0-7.2-2.8-7.2-7.1c0-4.2,3.1-6.9,6.8-6.9c3.6,0,5.9,2.5,5.9,5.2C129.7,114.1,129.6,114.5,129.5,114.8z M123.8,111.7
		c-1.2,0-2.3,1-2.5,2.1h4.4c0-0.1,0-0.2,0-0.3C125.7,112.7,124.9,111.7,123.8,111.7z"/>
	<path class="st0" d="M140.6,112.4h-3.4v4.9c0,1.1,0.6,1.6,1.7,1.6c0.5,0,0.8,0,1.1-0.2l-0.4,3.2c-0.4,0.2-1.1,0.3-2,0.3
		c-3,0-4.7-1.6-4.7-4.2v-5.7h-2.2v-3.5h2.2v-2.8l4.2-1.5v4.3h4.2L140.6,112.4z"/>
	<path class="st0" d="M152.1,112.4h-3.4v4.9c0,1.1,0.6,1.6,1.7,1.6c0.5,0,0.8,0,1.1-0.2l-0.4,3.2c-0.4,0.2-1.1,0.3-2,0.3
		c-3,0-4.7-1.6-4.7-4.2v-5.7h-2.2v-3.5h2.2v-2.8l4.2-1.5v4.3h4.2L152.1,112.4z"/>
	<path class="st0" d="M166.1,114.8l-1.9,1.9h-6.4c0.2,1.1,1.7,2.3,3.9,2.3c1.4,0,2.8-0.4,3.6-1l-0.4,3.6c-1,0.5-2.5,0.9-4.2,0.9
		c-4,0-7.2-2.8-7.2-7.1c0-4.2,3.1-6.9,6.8-6.9c3.6,0,5.9,2.5,5.9,5.2C166.2,114.1,166.1,114.5,166.1,114.8z M160.3,111.7
		c-1.2,0-2.3,1-2.5,2.1h4.4c0-0.1,0-0.2,0-0.3C162.2,112.7,161.5,111.7,160.3,111.7z"/>
	<path class="st0" d="M176.4,113.5c-0.3-0.1-0.8-0.3-1.3-0.3c-1.4,0-2.6,0.7-2.6,2.8v6.1h-4.3v-13.1h4.2v2.9h0
		c0.4-2.1,2-3.2,3.7-3.2c0.4,0,0.9,0.1,1.2,0.2L176.4,113.5z"/>
	<path class="st0" d="M179.1,122.5c-0.8,0-2.4-1.6-2.4-2.4c0-0.8,1.6-2.4,2.4-2.4s2.4,1.6,2.4,2.4
		C181.5,120.9,179.9,122.5,179.1,122.5z"/>
</g>
</svg>
