<?xml version="1.0" encoding="utf-8"?>
<!-- Generator: Adobe Illustrator 22.1.0, SVG Export Plug-In . SVG Version: 6.00 Build 0)  -->
<svg version="1.1" id="Layer_1" xmlns="http://www.w3.org/2000/svg" xmlns:xlink="http://www.w3.org/1999/xlink" x="0px" y="0px"
	 viewBox="0 0 300 600" style="enable-background:new 0 0 300 600;" xml:space="preserve">
<style type="text/css">
	.st0{fill:#231F20;}
</style>
<path class="st0" d="M45,60.1v-7.3h-7.1v7.3h-4.5V41.8h4.5V49H45v-7.2h4.5v18.4H45z"/>
<path class="st0" d="M64.5,52.9l-1.9,1.9h-6.4c0.2,1.1,1.6,2.3,3.9,2.3c1.4,0,2.7-0.4,3.6-1l-0.4,3.6c-1,0.5-2.5,0.9-4.1,0.9
	c-4,0-7.2-2.8-7.2-7c0-4.2,3.1-6.9,6.8-6.9c3.6,0,5.8,2.5,5.8,5.2C64.6,52.2,64.5,52.6,64.5,52.9z M58.7,49.8c-1.2,0-2.3,1-2.5,2.1
	h4.4c0-0.1,0-0.2,0-0.3C60.6,50.8,59.8,49.8,58.7,49.8z"/>
<path class="st0" d="M71.1,60.7c-2.7-0.1-4.5-1.5-4.5-4.6V39.6h4.2v15.9c0,1.1,0.6,1.6,1.8,1.7L71.1,60.7z"/>
<path class="st0" d="M81.7,60.5c-1.4,0-2.8-0.4-3.3-0.9v7.1h-4.1V47.1H78v1.6h0c0.7-1.3,2.2-2,4-2c3.2,0,6.3,2.4,6.3,6.9
	C88.4,57.8,85.4,60.5,81.7,60.5z M81,50.4c-1.2,0-2.1,0.7-2.6,1.4v4.1c0.4,0.5,1.3,1.2,2.6,1.2c1.8,0,3.1-1.4,3.1-3.3
	S82.8,50.4,81,50.4z"/>
<path class="st0" d="M104.3,60.5c-1.4,0-2.8-0.4-3.3-0.9v7.1h-4.1V47.1h3.7v1.6h0c0.7-1.3,2.2-2,4-2c3.2,0,6.3,2.4,6.3,6.9
	C111,57.8,108,60.5,104.3,60.5z M103.6,50.4c-1.2,0-2.1,0.7-2.6,1.4v4.1c0.4,0.5,1.3,1.2,2.6,1.2c1.8,0,3.1-1.4,3.1-3.3
	S105.4,50.4,103.6,50.4z"/>
<path class="st0" d="M121.6,60.1v-1.8h0c-0.5,1.4-1.9,2.2-4,2.2c-2.9,0-4.6-1.6-4.6-4.3v-9.1h4.2v8c0,1,0.7,1.8,2,1.8
	c1.3,0,2-0.8,2-1.9v-7.9h4.2v13H121.6z"/>
<path class="st0" d="M136.9,50.5h-3.4v4.8c0,1.1,0.6,1.6,1.7,1.6c0.5,0,0.8,0,1.1-0.2L136,60c-0.4,0.2-1.1,0.3-2,0.3
	c-2.9,0-4.7-1.6-4.7-4.1v-5.6h-2.2v-3.5h2.2v-2.8l4.2-1.5v4.3h4.2L136.9,50.5z"/>
<path class="st0" d="M153.7,58.8c-2,5.2-4.1,7.1-6.5,8.1l-2.6-2.6c2.1-0.8,3.7-2.3,4.8-5.1l-4.7-12.2h4.1l1.9,5.1
	c0.3,0.7,0.6,1.6,0.8,2.6h0.1c0.3-0.9,0.5-1.8,0.8-2.6l1.9-5.1h3.9L153.7,58.8z"/>
<path class="st0" d="M165.6,60.5c-3.9,0-7.1-2.8-7.1-6.9c0-4.1,3.2-6.9,7.1-6.9c3.9,0,7.1,2.8,7.1,6.9
	C172.7,57.7,169.5,60.5,165.6,60.5z M165.6,50.3c-1.6,0-2.9,1.4-2.9,3.3s1.4,3.3,2.9,3.3c1.6,0,2.9-1.4,2.9-3.3
	S167.1,50.3,165.6,50.3z"/>
<path class="st0" d="M183.3,60.1v-1.8h0c-0.5,1.4-1.9,2.2-4,2.2c-2.9,0-4.6-1.6-4.6-4.3v-9.1h4.2v8c0,1,0.7,1.8,2,1.8
	c1.3,0,2-0.8,2-1.9v-7.9h4.2v13H183.3z"/>
<path class="st0" d="M198,51.6c-0.3-0.1-0.8-0.3-1.3-0.3c-1.4,0-2.6,0.7-2.6,2.8v6.1h-4.2v-13h4.2V50h0c0.4-2,2-3.1,3.7-3.1
	c0.4,0,0.9,0.1,1.2,0.2L198,51.6z"/>
<path class="st0" d="M223,60.1v-8c0-1-0.5-1.8-1.8-1.8c-1.4,0-2,0.8-2,1.8v7.9H215v-8c0-1-0.5-1.8-1.8-1.8c-1.4,0-2,0.8-2,1.8v7.9
	h-4.2v-13h3.9v1.8h0c0.5-1.4,1.8-2.2,3.9-2.2c1.9,0,3.3,0.7,3.9,2.1c0.5-1.3,2.1-2.1,4-2.1c3,0,4.6,1.6,4.6,4.4v9.1H223z"/>
<path class="st0" d="M232.1,45.3c-0.7,0-2.3-1.5-2.3-2.3c0-0.7,1.5-2.2,2.3-2.2c0.7,0,2.3,1.5,2.3,2.2
	C234.4,43.8,232.9,45.3,232.1,45.3z M230,60.1v-13h4.3v13H230z"/>
<path class="st0" d="M245.2,60.1v-8c0-1-0.6-1.8-1.9-1.8c-1.3,0-2.1,0.8-2.1,1.8v7.9H237v-13h3.9v1.8h0c0.5-1.4,1.9-2.2,4-2.2
	c2.9,0,4.6,1.6,4.6,4.4v9.1H245.2z"/>
<path class="st0" d="M261.9,60.1v-1.6h0c-0.7,1.3-2.2,2-4,2c-3.2,0-6.3-2.4-6.3-6.9c0-4.2,3-6.9,6.6-6.9c1.4,0,2.8,0.5,3.3,0.9v-7.9
	h4.1v20.5H261.9z M261.5,51.6c-0.4-0.5-1.3-1.2-2.6-1.2c-1.8,0-3.1,1.4-3.1,3.3s1.3,3.3,3.1,3.3c1.2,0,2.1-0.7,2.6-1.4V51.6z"/>
<path class="st0" d="M42.5,91.7c-0.8-0.2-1.7-0.8-2-1.7c-0.6,1.1-1.8,1.6-3.4,1.6c-2.3,0-4.3-1.6-4.3-4.3c0-2.4,1.9-4,4.5-4.3
	l2.6-0.3v-0.4c0-0.8-0.6-1.3-2-1.3c-1.3,0-2.7,0.4-3.6,1l-0.7-3.2c1.1-0.7,2.9-1.2,4.6-1.2c3.5,0,5.9,1.6,5.9,4.7v4.3
	c0,1.5,0.6,2.3,1.6,2.7L42.5,91.7z M39.8,85.4l-1.6,0.1c-1.1,0.1-1.6,0.9-1.6,1.6c0,0.7,0.5,1.3,1.3,1.3c1,0,1.8-0.8,1.8-1.9V85.4z"
	/>
<path class="st0" d="M55.1,91.1v-8c0-1-0.6-1.8-1.9-1.8c-1.3,0-2.1,0.8-2.1,1.8v7.9h-4.2v-13h3.9v1.8h0c0.5-1.4,1.9-2.2,4-2.2
	c2.9,0,4.6,1.6,4.6,4.4v9.1H55.1z"/>
<path class="st0" d="M71.7,91.1v-1.6h0c-0.7,1.3-2.2,2-4,2c-3.2,0-6.3-2.4-6.3-6.9c0-4.2,3-6.9,6.6-6.9c1.4,0,2.8,0.5,3.3,0.9v-7.9
	h4.1v20.5H71.7z M71.3,82.6c-0.4-0.5-1.3-1.2-2.6-1.2c-1.8,0-3.1,1.4-3.1,3.3s1.3,3.3,3.1,3.3c1.2,0,2.1-0.7,2.6-1.4V82.6z"/>
<path class="st0" d="M93.7,74.4c-0.5-0.2-1.2-0.3-1.7-0.3c-1.6,0-2.4,0.9-2.4,2.8v1.2h3.7l-0.8,3.5h-2.9v9.6h-4.1v-9.6h-2v-3.5h2
	v-1.5c0-4,2.6-5.9,5.8-5.9c1.2,0,2.4,0.1,3.1,0.4L93.7,74.4z"/>
<path class="st0" d="M103.9,91.7c-0.8-0.2-1.7-0.8-2-1.7c-0.6,1.1-1.8,1.6-3.4,1.6c-2.3,0-4.3-1.6-4.3-4.3c0-2.4,1.9-4,4.5-4.3
	l2.6-0.3v-0.4c0-0.8-0.6-1.3-2-1.3c-1.3,0-2.7,0.4-3.6,1l-0.7-3.2c1.1-0.7,2.9-1.2,4.6-1.2c3.5,0,5.9,1.6,5.9,4.7v4.3
	c0,1.5,0.6,2.3,1.6,2.7L103.9,91.7z M101.2,85.4l-1.6,0.1c-1.1,0.1-1.6,0.9-1.6,1.6c0,0.7,0.5,1.3,1.3,1.3c1,0,1.8-0.8,1.8-1.9V85.4
	z"/>
<path class="st0" d="M124.4,91.1v-8c0-1-0.5-1.8-1.8-1.8c-1.4,0-2,0.8-2,1.8v7.9h-4.2v-8c0-1-0.5-1.8-1.8-1.8c-1.4,0-2,0.8-2,1.8
	v7.9h-4.2v-13h3.9v1.8h0c0.5-1.4,1.8-2.2,3.9-2.2c1.9,0,3.3,0.7,3.9,2.1c0.5-1.3,2.1-2.1,4-2.1c3,0,4.6,1.6,4.6,4.4v9.1H124.4z"/>
<path class="st0" d="M133.5,76.3c-0.7,0-2.3-1.5-2.3-2.3c0-0.7,1.5-2.2,2.3-2.2s2.3,1.5,2.3,2.2C135.8,74.8,134.2,76.3,133.5,76.3z
	 M131.4,91.1v-13h4.3v13H131.4z"/>
<path class="st0" d="M142.9,91.7c-2.7-0.1-4.5-1.5-4.5-4.6V70.6h4.2v15.9c0,1.1,0.6,1.6,1.8,1.7L142.9,91.7z"/>
<path class="st0" d="M153.5,89.9c-2,5.2-4.1,7.1-6.5,8.1l-2.6-2.6c2.1-0.8,3.7-2.3,4.8-5.1l-4.7-12.2h4.1l1.9,5.1
	c0.3,0.7,0.6,1.6,0.8,2.6h0.1c0.3-0.9,0.5-1.8,0.8-2.6l1.9-5.1h3.9L153.5,89.9z"/>
<path class="st0" d="M160.4,81l-1.3-0.2c1-1.1,1.7-2.8,1.9-4.1c-0.7-0.1-1.9-1.4-1.9-2c0-0.8,1.6-2.4,2.4-2.4c0.7,0,2.4,1.5,2.4,2.4
	C163.9,76.5,162.1,79.4,160.4,81z"/>
<path class="st0" d="M169.1,91.4c-1.8,0-3.1-0.4-4.1-0.9l-0.4-3.7c1.2,0.8,2.6,1.4,4.1,1.4c0.8,0,1.3-0.4,1.3-0.9
	c0-0.5-0.4-0.8-1.2-1c-2.5-0.7-4-2-4-4.3c0-2.6,2.1-4.2,4.9-4.2c1.6,0,3.2,0.4,3.9,0.8l-0.7,3.1c-0.6-0.3-1.7-0.7-2.7-0.7
	c-0.7,0-1.2,0.3-1.2,0.8c0,0.5,0.3,0.7,1.2,1c2.9,0.8,4.1,2.2,4.1,4.4C174.2,89.4,172.6,91.4,169.1,91.4z"/>
<path class="st0" d="M191.8,74.4c-0.5-0.2-1.2-0.3-1.7-0.3c-1.6,0-2.4,0.9-2.4,2.8v1.2h3.7l-0.8,3.5h-2.9v9.6h-4.1v-9.6h-2v-3.5h2
	v-1.5c0-4,2.6-5.9,5.8-5.9c1.2,0,2.4,0.1,3.1,0.4L191.8,74.4z"/>
<path class="st0" d="M201.5,91.1v-1.8h0c-0.5,1.4-1.9,2.2-4,2.2c-2.9,0-4.6-1.6-4.6-4.3v-9.1h4.2v8c0,1,0.7,1.8,2,1.8
	c1.3,0,2-0.8,2-1.9v-7.9h4.2v13H201.5z"/>
<path class="st0" d="M216.8,81.6h-3.4v4.8c0,1.1,0.6,1.6,1.7,1.6c0.5,0,0.8,0,1.1-0.2l-0.4,3.2c-0.4,0.2-1.1,0.3-2,0.3
	c-2.9,0-4.7-1.6-4.7-4.1v-5.6H207v-3.5h2.2v-2.8l4.2-1.5v4.3h4.2L216.8,81.6z"/>
<path class="st0" d="M227.6,91.1v-1.8h0c-0.5,1.4-1.9,2.2-4,2.2c-2.9,0-4.6-1.6-4.6-4.3v-9.1h4.2v8c0,1,0.7,1.8,2,1.8
	c1.3,0,2-0.8,2-1.9v-7.9h4.2v13H227.6z"/>
<path class="st0" d="M242.3,82.6c-0.3-0.1-0.8-0.3-1.3-0.3c-1.4,0-2.6,0.7-2.6,2.8v6.1h-4.2v-13h4.2V81h0c0.4-2,2-3.1,3.7-3.1
	c0.4,0,0.9,0.1,1.2,0.2L242.3,82.6z"/>
<path class="st0" d="M256.4,83.9l-1.9,1.9h-6.4c0.2,1.1,1.6,2.3,3.9,2.3c1.4,0,2.7-0.4,3.6-1l-0.4,3.6c-1,0.5-2.5,0.9-4.1,0.9
	c-4,0-7.2-2.8-7.2-7c0-4.2,3.1-6.9,6.8-6.9c3.6,0,5.8,2.5,5.8,5.2C256.5,83.2,256.4,83.6,256.4,83.9z M250.7,80.8
	c-1.2,0-2.3,1-2.5,2.1h4.4c0-0.1,0-0.2,0-0.3C252.6,81.8,251.8,80.8,250.7,80.8z"/>
<path class="st0" d="M42.5,122.7c-0.8-0.2-1.7-0.8-2-1.7c-0.6,1.1-1.8,1.6-3.4,1.6c-2.3,0-4.3-1.6-4.3-4.3c0-2.4,1.9-4,4.5-4.3
	l2.6-0.3v-0.4c0-0.8-0.6-1.3-2-1.3c-1.3,0-2.7,0.4-3.6,1l-0.7-3.2c1.1-0.7,2.9-1.2,4.6-1.2c3.5,0,5.9,1.6,5.9,4.7v4.3
	c0,1.5,0.6,2.3,1.6,2.7L42.5,122.7z M39.8,116.5l-1.6,0.1c-1.1,0.1-1.6,0.9-1.6,1.6c0,0.7,0.5,1.3,1.3,1.3c1,0,1.8-0.8,1.8-1.9
	V116.5z"/>
<path class="st0" d="M55.3,112.6h-3.4v4.8c0,1.1,0.6,1.6,1.7,1.6c0.5,0,0.8,0,1.1-0.2l-0.4,3.2c-0.4,0.2-1.1,0.3-2,0.3
	c-2.9,0-4.7-1.6-4.7-4.1v-5.6h-2.2v-3.5h2.2v-2.8l4.2-1.5v4.3h4.2L55.3,112.6z"/>
<path class="st0" d="M76,114.9l-1.9,1.9h-6.4c0.2,1.1,1.6,2.3,3.9,2.3c1.4,0,2.7-0.4,3.6-1l-0.4,3.6c-1,0.5-2.5,0.9-4.1,0.9
	c-4,0-7.2-2.8-7.2-7c0-4.2,3.1-6.9,6.8-6.9c3.6,0,5.8,2.5,5.8,5.2C76.1,114.2,76.1,114.6,76,114.9z M70.3,111.8
	c-1.2,0-2.3,1-2.5,2.1h4.4c0-0.1,0-0.2,0-0.3C72.2,112.8,71.4,111.8,70.3,111.8z"/>
<path class="st0" d="M87.2,122.7c-0.8-0.2-1.7-0.8-2-1.7c-0.6,1.1-1.8,1.6-3.4,1.6c-2.3,0-4.3-1.6-4.3-4.3c0-2.4,1.9-4,4.5-4.3
	l2.6-0.3v-0.4c0-0.8-0.6-1.3-2-1.3c-1.3,0-2.7,0.4-3.6,1l-0.7-3.2c1.1-0.7,2.9-1.2,4.6-1.2c3.5,0,5.9,1.6,5.9,4.7v4.3
	c0,1.5,0.6,2.3,1.6,2.7L87.2,122.7z M84.5,116.5l-1.6,0.1c-1.1,0.1-1.6,0.9-1.6,1.6c0,0.7,0.5,1.3,1.3,1.3c1,0,1.8-0.8,1.8-1.9
	V116.5z"/>
<path class="st0" d="M95.8,122.4c-1.8,0-3.1-0.4-4.1-0.9l-0.4-3.7c1.2,0.8,2.6,1.4,4.1,1.4c0.8,0,1.3-0.4,1.3-0.9
	c0-0.5-0.4-0.8-1.2-1c-2.5-0.7-4-2-4-4.3c0-2.6,2.1-4.2,4.9-4.2c1.6,0,3.2,0.4,3.9,0.8l-0.7,3.1c-0.6-0.3-1.7-0.7-2.7-0.7
	c-0.7,0-1.2,0.3-1.2,0.8c0,0.5,0.3,0.7,1.2,1c2.9,0.8,4.1,2.2,4.1,4.4C101,120.4,99.4,122.4,95.8,122.4z"/>
<path class="st0" d="M114.8,114.9l-1.9,1.9h-6.4c0.2,1.1,1.6,2.3,3.9,2.3c1.4,0,2.7-0.4,3.6-1l-0.4,3.6c-1,0.5-2.5,0.9-4.1,0.9
	c-4,0-7.2-2.8-7.2-7c0-4.2,3.1-6.9,6.8-6.9c3.6,0,5.8,2.5,5.8,5.2C115,114.2,114.9,114.6,114.8,114.9z M109.1,111.8
	c-1.2,0-2.3,1-2.5,2.1h4.4c0-0.1,0-0.2,0-0.3C111,112.8,110.2,111.8,109.1,111.8z"/>
<path class="st0" d="M137.8,122.3h-2.9l-1.8-5.2c-0.3-0.8-0.5-1.7-0.8-2.7h-0.1c-0.2,1-0.5,1.9-0.7,2.7l-1.8,5.2h-2.8l-4.5-13.2h3.9
	l1.6,5c0.2,0.7,0.5,1.7,0.6,2.5h0.1c0.1-0.8,0.4-1.8,0.6-2.5l1.6-5h3.2l1.6,4.9c0.3,0.8,0.4,1.7,0.6,2.5h0.1
	c0.2-0.8,0.4-1.8,0.7-2.5l1.6-4.9h3.6L137.8,122.3z"/>
<path class="st0" d="M146.1,107.3c-0.7,0-2.3-1.5-2.3-2.3c0-0.7,1.5-2.2,2.3-2.2s2.3,1.5,2.3,2.2
	C148.4,105.8,146.8,107.3,146.1,107.3z M143.9,122.2v-13h4.3v13H143.9z"/>
<path class="st0" d="M159.6,112.6h-3.4v4.8c0,1.1,0.6,1.6,1.7,1.6c0.5,0,0.8,0,1.1-0.2l-0.4,3.2c-0.4,0.2-1.1,0.3-2,0.3
	c-2.9,0-4.7-1.6-4.7-4.1v-5.6h-2.2v-3.5h2.2v-2.8l4.2-1.5v4.3h4.2L159.6,112.6z"/>
<path class="st0" d="M170.2,122.2v-8c0-1-0.7-1.8-2-1.8c-1.3,0-2,0.8-2,1.8v7.9h-4.2v-20.5h4.2v8.7h0c0.7-1,1.9-1.6,3.7-1.6
	c2.9,0,4.6,1.6,4.6,4.4v9.1H170.2z"/>
<path class="st0" d="M192.1,107.4v14.7h-4.5v-14.7h-5.3v-3.7h15v3.7H192.1z"/>
<path class="st0" d="M199.1,122.2v-18.4h4.5v18.4H199.1z"/>
<path class="st0" d="M218.5,122.2L217,118h-5.8l-1.5,4.1h-4.2l7.2-18.5h3.1l7.2,18.5H218.5z M214.6,111.1c-0.2-0.5-0.4-1.1-0.5-1.7
	H214c-0.1,0.6-0.3,1.2-0.5,1.7l-1.2,3.4h3.6L214.6,111.1z"/>
<path class="st0" d="M237.1,122.2l-1.5-4.1h-5.8l-1.5,4.1H224l7.2-18.5h3.1l7.2,18.5H237.1z M233.2,111.1c-0.2-0.5-0.4-1.1-0.5-1.7
	h-0.1c-0.1,0.6-0.3,1.2-0.5,1.7l-1.2,3.4h3.6L233.2,111.1z"/>
<path class="st0" d="M33.5,153.2v-18.4h4.5v14.7h6.9v3.7H33.5z"/>
<path class="st0" d="M48.5,138.3c-0.7,0-2.3-1.5-2.3-2.3c0-0.7,1.5-2.2,2.3-2.2s2.3,1.5,2.3,2.2C50.8,136.8,49.3,138.3,48.5,138.3z
	 M46.4,153.2v-13h4.3v13H46.4z"/>
<path class="st0" d="M62.5,136.4c-0.5-0.2-1.2-0.3-1.7-0.3c-1.6,0-2.4,0.9-2.4,2.8v1.2h3.7l-0.8,3.5h-2.9v9.6h-4.1v-9.6h-2v-3.5h2
	v-1.5c0-4,2.6-5.9,5.8-5.9c1.2,0,2.4,0.1,3.1,0.4L62.5,136.4z"/>
<path class="st0" d="M75.3,145.9l-1.9,1.9H67c0.2,1.1,1.6,2.3,3.9,2.3c1.4,0,2.7-0.4,3.6-1l-0.4,3.6c-1,0.5-2.5,0.9-4.1,0.9
	c-4,0-7.2-2.8-7.2-7c0-4.2,3.1-6.9,6.8-6.9c3.6,0,5.8,2.5,5.8,5.2C75.4,145.2,75.3,145.7,75.3,145.9z M69.6,142.9
	c-1.2,0-2.3,1-2.5,2.1h4.4c0-0.1,0-0.2,0-0.3C71.5,143.8,70.7,142.9,69.6,142.9z"/>
<path class="st0" d="M86.2,138.3c-0.7,0-2.3-1.5-2.3-2.3c0-0.7,1.5-2.2,2.3-2.2s2.3,1.5,2.3,2.2C88.4,136.8,86.9,138.3,86.2,138.3z
	 M84,153.2v-13h4.3v13H84z"/>
<path class="st0" d="M99.3,153.2v-8c0-1-0.6-1.8-1.9-1.8c-1.3,0-2.1,0.8-2.1,1.8v7.9H91v-13h3.9v1.8h0c0.5-1.4,1.9-2.2,4-2.2
	c2.9,0,4.6,1.6,4.6,4.4v9.1H99.3z"/>
<path class="st0" d="M110.3,153.5c-1.8,0-3.1-0.4-4.1-0.9l-0.4-3.7c1.2,0.8,2.6,1.4,4.1,1.4c0.8,0,1.3-0.4,1.3-0.9
	c0-0.5-0.4-0.8-1.2-1c-2.5-0.7-4-2-4-4.3c0-2.6,2.1-4.2,4.9-4.2c1.6,0,3.2,0.4,3.9,0.8l-0.7,3.1c-0.6-0.3-1.7-0.7-2.7-0.7
	c-0.7,0-1.2,0.3-1.2,0.8c0,0.5,0.3,0.7,1.2,1c2.9,0.8,4.1,2.2,4.1,4.4C115.5,151.4,113.9,153.5,110.3,153.5z"/>
<path class="st0" d="M126.1,153.2v-1.8h0c-0.5,1.4-1.9,2.2-4,2.2c-2.9,0-4.6-1.6-4.6-4.3v-9.1h4.2v8c0,1,0.7,1.8,2,1.8
	c1.3,0,2-0.8,2-1.9v-7.9h4.2v13H126.1z"/>
<path class="st0" d="M140.7,144.6c-0.3-0.1-0.8-0.3-1.3-0.3c-1.4,0-2.6,0.7-2.6,2.8v6.1h-4.2v-13h4.2v2.9h0c0.4-2,2-3.1,3.7-3.1
	c0.4,0,0.9,0.1,1.2,0.2L140.7,144.6z"/>
<path class="st0" d="M152.3,153.7c-0.8-0.2-1.7-0.8-2-1.7c-0.6,1.1-1.8,1.6-3.4,1.6c-2.3,0-4.3-1.6-4.3-4.3c0-2.4,1.9-4,4.5-4.3
	l2.6-0.3v-0.4c0-0.8-0.6-1.3-2-1.3c-1.3,0-2.7,0.4-3.6,1l-0.7-3.2c1.1-0.7,2.9-1.2,4.6-1.2c3.5,0,5.9,1.6,5.9,4.7v4.3
	c0,1.5,0.6,2.3,1.6,2.7L152.3,153.7z M149.6,147.5l-1.6,0.1c-1.1,0.1-1.6,0.9-1.6,1.6c0,0.7,0.5,1.3,1.3,1.3c1,0,1.8-0.8,1.8-1.9
	V147.5z"/>
<path class="st0" d="M164.9,153.2v-8c0-1-0.6-1.8-1.9-1.8c-1.3,0-2.1,0.8-2.1,1.8v7.9h-4.2v-13h3.9v1.8h0c0.5-1.4,1.9-2.2,4-2.2
	c2.9,0,4.6,1.6,4.6,4.4v9.1H164.9z"/>
<path class="st0" d="M181.7,144.3c-0.9-0.5-1.8-0.8-2.8-0.8c-1.8,0-3.3,1.3-3.3,3.2c0,1.9,1.5,3.2,3.4,3.2c1.1,0,1.9-0.2,2.9-0.7
	l-0.4,3.6c-0.9,0.4-2,0.6-3.2,0.6c-3.7,0-7.1-2.6-7.1-6.8c0-4.3,3.4-6.8,7-6.8c1.7,0,3.1,0.3,4.3,1L181.7,144.3z"/>
<path class="st0" d="M196.2,145.9l-1.9,1.9h-6.4c0.2,1.1,1.6,2.3,3.9,2.3c1.4,0,2.7-0.4,3.6-1l-0.4,3.6c-1,0.5-2.5,0.9-4.1,0.9
	c-4,0-7.2-2.8-7.2-7c0-4.2,3.1-6.9,6.8-6.9c3.6,0,5.8,2.5,5.8,5.2C196.3,145.2,196.2,145.7,196.2,145.9z M190.4,142.9
	c-1.2,0-2.3,1-2.5,2.1h4.4c0-0.1,0-0.2,0-0.3C192.3,143.8,191.6,142.9,190.4,142.9z"/>
<path class="st0" d="M200,153.6c-0.8,0-2.4-1.6-2.4-2.4c0-0.7,1.6-2.4,2.4-2.4s2.4,1.6,2.4,2.4C202.4,152,200.8,153.6,200,153.6z"/>
</svg>
