<?xml version="1.0" encoding="utf-8"?>
<!-- Generator: Adobe Illustrator 22.1.0, SVG Export Plug-In . SVG Version: 6.00 Build 0)  -->
<svg version="1.1" id="Layer_1" xmlns="http://www.w3.org/2000/svg" xmlns:xlink="http://www.w3.org/1999/xlink" x="0px" y="0px"
	 viewBox="0 0 300 600" style="enable-background:new 0 0 300 600;" xml:space="preserve">
<style type="text/css">
	.st0{clip-path:url(#SVGID_2_);fill:#F9E038;}
	.st1{fill:#231F20;}
</style>
<g>
	<defs>
		<rect id="SVGID_1_" width="303" height="600.5"/>
	</defs>
	<clipPath id="SVGID_2_">
		<use xlink:href="#SVGID_1_"  style="overflow:visible;"/>
	</clipPath>
	<path class="st0" d="M96.4,459.8c0,0-16,0-16,16v4.3c0,0,0,16,16,16h107.5c0,0,16,0,16-16v-4.3c0,0,0-16-16-16H96.4z"/>
</g>
<g>
	<path class="st1" d="M111.6,481.5v2.1H105v-10.4h2.4v8.4H111.6z"/>
	<path class="st1" d="M115,475.2v2.1h4v2h-4v2.3h5v2h-7.5v-10.4h7.5v2H115z"/>
	<path class="st1" d="M130.1,483.6h-2.6l-0.6-2.1h-3.4l-0.7,2.1h-2.1l3.3-10.4h2.8L130.1,483.6z M126.3,479.5l-1.1-3.7l-1.1,3.7
		H126.3z"/>
	<path class="st1" d="M133.6,483.6h-2.4v-10.4h4.4c0.9,0,1.9,0,2.7,0.5c0.9,0.6,1.3,1.6,1.3,2.6c0,1.2-0.7,2.3-1.8,2.7l1.9,4.6h-2.7
		l-1.6-4.1h-1.8V483.6z M133.6,477.7h1.3c0.5,0,1,0,1.5-0.2c0.4-0.2,0.6-0.7,0.6-1.2c0-0.4-0.2-0.9-0.6-1.1
		c-0.4-0.3-1.1-0.2-1.6-0.2h-1.3V477.7z"/>
	<path class="st1" d="M149,483.6h-2.1l-4-7h-0.1v7H141v-10.4h2.6l3.5,6.1h0v-6.1h1.9V483.6z"/>
	<path class="st1" d="M161.6,483.6h-1.7l-2.5-8.5h0v8.5h-2.1v-10.4h3.8l1.8,6.3l1.9-6.3h3.8v10.4h-2.4v-8.5h-0.1L161.6,483.6z"/>
	<path class="st1" d="M169.2,482.1c-0.8-1.1-1.1-2.4-1.1-3.7c0-2.8,1.4-5.4,4.5-5.4c1.4,0,2.5,0.5,3.3,1.6c0.7,1,1.1,2.5,1.1,3.8
		c0,1.2-0.3,2.6-1,3.6c-0.8,1.2-2,1.8-3.5,1.8S170,483.3,169.2,482.1z M171,476.2c-0.2,0.6-0.3,1.5-0.3,2.2c0,1.3,0.2,3.4,1.9,3.4
		c0.8,0,1.3-0.4,1.6-1.2c0.2-0.6,0.3-1.5,0.3-2.2c0-0.8-0.1-1.7-0.4-2.4c-0.3-0.7-0.7-1-1.5-1C171.8,475,171.3,475.4,171,476.2z"/>
	<path class="st1" d="M180.9,483.6h-2.4v-10.4h4.4c0.9,0,1.9,0,2.7,0.5c0.9,0.6,1.3,1.6,1.3,2.6c0,1.2-0.7,2.3-1.8,2.7l1.9,4.6h-2.7
		l-1.6-4.1h-1.8V483.6z M180.9,477.7h1.3c0.5,0,1,0,1.5-0.2c0.4-0.2,0.6-0.7,0.6-1.2c0-0.4-0.2-0.9-0.6-1.1
		c-0.4-0.3-1.1-0.2-1.6-0.2h-1.3V477.7z"/>
	<path class="st1" d="M190.8,475.2v2.1h4v2h-4v2.3h5v2h-7.5v-10.4h7.5v2H190.8z"/>
</g>
</svg>
