<?xml version="1.0" encoding="utf-8"?>
<!-- Generator: Adobe Illustrator 22.1.0, SVG Export Plug-In . SVG Version: 6.00 Build 0)  -->
<svg version="1.1" id="Layer_1" xmlns="http://www.w3.org/2000/svg" xmlns:xlink="http://www.w3.org/1999/xlink" x="0px" y="0px"
	 viewBox="0 0 300 650" style="enable-background:new 0 0 300 650;" xml:space="preserve">
<style type="text/css">
	.st0{fill:#48A642;}
	.st1{fill:none;stroke:#981B27;stroke-width:18.001;stroke-miterlimit:10;}
	.st2{fill:#429891;}
	.st3{fill:none;stroke:#981B27;stroke-width:5.675;stroke-miterlimit:10;}
	.st4{fill:#4F131E;}
	.st5{fill:#981B27;}
</style>
<rect x="-1935.5" y="524.1" class="st0" width="4046.1" height="165.6"/>
<line class="st1" x1="18.7" y1="527.4" x2="262" y2="527.4"/>
<rect x="66.4" y="413.3" class="st2" width="48.8" height="111.3"/>
<rect x="66.4" y="413.3" class="st3" width="48.8" height="111.3"/>
<rect x="200.8" y="304.8" class="st4" width="20.1" height="34.4"/>
<path class="st5" d="M225.5,309.1c0,2-1.9,3.6-4.2,3.6h-20.9c-2.3,0-4.2-1.6-4.2-3.6V303c0-2,1.9-3.6,4.2-3.6h20.9
	c2.3,0,4.2,1.6,4.2,3.6V309.1z"/>
<polygon class="st5" points="257.7,388.8 143.4,312.6 29,388.8 22.9,367 143.4,286.7 263.8,367 "/>
<rect x="131.5" y="413.8" class="st5" width="21.5" height="52.9"/>
<rect x="212.8" y="413.8" class="st5" width="21.8" height="52.9"/>
<line class="st1" x1="18.7" y1="527.4" x2="252.4" y2="527.4"/>
<path class="st0" d="M232.3,525.8c-3.3-2.7-11-3-13,1.6c1.2-4.2-0.9-10-4.3-12.6c-3.1-2.4-7.1-3-10.8-2.4c-7,1.2-13.4,6.7-14.3,14.2
	c-1.5-2.4-4-4-6.9-4c-3.1,0-5.7,1.8-7.1,4.4c-2.2-4.2-9.6-3.8-12.8-1.2c-3.9,3.1-4.3,8.8-3.1,13.7h20.3h9.8h45.4
	C236.7,534.6,236.2,528.9,232.3,525.8"/>
</svg>
