<?xml version="1.0" encoding="utf-8"?>
<!-- Generator: Adobe Illustrator 22.1.0, SVG Export Plug-In . SVG Version: 6.00 Build 0)  -->
<svg version="1.1" id="Layer_1" xmlns="http://www.w3.org/2000/svg" xmlns:xlink="http://www.w3.org/1999/xlink" x="0px" y="0px"
	 viewBox="0 0 300 600" style="enable-background:new 0 0 300 600;" xml:space="preserve">
<style type="text/css">
	.st0{fill:#FFFFFF;}
</style>
<g>
	<path class="st0" d="M127.3,201.2h0.6c0,1.5,0.4,2.2,1.1,2.2l4.7-0.2c0-1.2,0.5-1.7,1.6-1.7c0.8,0.3,1.4,0.5,1.9,0.5l-0.5,1.1h0.5
		c1.7-1.2,3.5-1.9,5.2-2l0.1,1.7c-1.6,0.1-2.4,0.5-2.4,1.2v0.5c2-0.1,4.9,0.6,8.7,2.1l7.2-0.4c0.6-0.1,1.2-0.7,1.7-1.9
		c1.2,0.5,2.4,1.2,3.6,2.1l8-1.5h1.6c4,1.3,6,2.4,6.1,3.1c-0.6,0-1.4,0.7-2.4,2.2l0.1,0.6l0.7,2.7l2.9-0.6l3.6,2
		c0.5,2,0.7,3.1,0.7,3.4c-0.7,0.2-1.1,0.6-1.1,1.2l2.5,2.6l-2.1,4.6v0.6h0.6l2.2-1.9l0.6,1.1l0.1,1.1l-2.4,2.4
		c0.4,0.7,0.7,1.4,0.9,2.2c-1.2,0.2-1.8,1.7-1.6,4.5c0.7,3,3.3,4.4,7.8,4.2c2.1,1.8,3.1,3.4,3.1,4.8c-2,1.1-3.1,2.2-3.2,3.5
		c2.9,1.4,4.6,2.1,5.2,2.1v0.5c0.1,0.7-0.6,1.2-2.1,1.2l0.7,3.9v1.1c0,0.7-0.4,1.2-1.2,1.2l0.7,1.1v0.5c0.1,1-0.2,2.1-1,3.4
		c1.6,0,2.4,0.7,2.5,2.2l1.2-0.1l2.1-2.4h0.5c0.8,0,1.3,0.5,1.4,1.6c-0.4,2.7-1,4-1.6,4l0.7,1.1v1.1c0.1,0.7-0.3,1.2-1.1,1.2
		l1.4,3.9l-0.5,1.1l1.4,6.1l1.1-0.6h1.2l0.1,1.6c-1.2,0.1-1.8,0.7-1.7,1.7c0,0.7,1.2,1.9,3.6,3.9c0,0.5-2.4,1.7-7.3,3.7
		c-1.8,2.7-2.7,4.4-2.7,5.1l0.6,1.1c-0.2,1.5-0.5,2.2-1,2.2c0.4,0.7,0.6,1.3,0.6,1.7c-0.5,1.5-1,2.2-1.5,2.2c-1.3-1.2-2-2.1-2-2.7
		c0.3-0.7,0.5-1.3,0.5-1.6c-0.6,0-1.2-0.5-1.7-1.6c0.7-0.1,1.1-0.5,1-1.2c0-0.7-1.2-1-3.5-0.9l-0.1-2.2c2.1-1.9,3.1-3.6,3.2-5.2
		c3.1-1.3,5.1-2.7,6.2-4.2v-0.6c-0.8,0.1-1.7-0.4-2.5-1.5c-2.3,2.3-4.4,3.7-6.2,4.2c0.1,1.1-0.5,1.7-1.6,1.7v1.1l1.4,1.6
		c-1,1.9-1.7,2.9-2.2,2.9c0.1,2.3,1.5,4.3,4.3,6l0.1,1.1l-7.3,2.6l-1.7-1c-6.1,0.8-9.7,1.7-10.8,2.7H170c-0.3,0-0.5-0.2-0.5-0.5
		l-1.2,0.6l-3.5-0.4c0,0.5-0.5,1.1-1.6,1.7h-1.2c0-0.3-0.5-1.8-1.4-4.3v-0.6l0.5-1.1c-0.3,0-0.5-0.2-0.6-0.5c3.8-3.4,5.7-5.4,5.6-6
		l-1.2-0.5l-1.1,0.1l-1.7,1.1l-0.5,0.1c-0.7,0-1.2-0.4-1.2-1.1c0.7,0,1.1-0.4,1.1-1.1c-0.4,0-0.6-0.2-0.6-0.6l1.1-0.6l-0.6-1v-1.2
		l0.4-2.7c-0.4,0-0.6-0.2-0.6-0.6l1.1-0.5l-0.6-1.1v-1.1c-0.2-2.6,1.1-4,3.9-4.1v-0.6L164,281l0.5-1.1v-1.1l-2.9,0.6l-0.6-1
		c-2.3,0.8-3.9,1.2-4.7,1.2l-0.6-3.2c0.2-1.4,1.4-3.2,3.7-5.3c0,0.4,0.2,0.6,0.7,0.6c-0.1-0.9,0.2-1.9,1-2.9c-0.8,0-1.6-0.2-2.4-0.5
		c0,0.7-0.4,1.2-1.1,1.2h-1.2c-0.7,0-1.1-0.4-1.1-1.1l-0.2-3.4c0.7-1.5,1.7-2.3,2.9-2.4l-4.3-4.2c-0.1-0.8-0.3-1.6-0.6-2.2
		c0.3-0.7,0.5-1.3,0.4-1.7v-0.5h-0.5c0,1.2-1,2.3-2.9,3.5h-0.5c-2.2,0.1-4.9,0-8.2-0.1c-1.9,0.5-2.9,1.1-2.9,1.7v0.6l1.4,1.6
		l2.9-0.7l5.8-0.2l1.6-1.1c1.6,1.6,2.4,3.2,2.6,4.8c-1.2,0.1-2.4,1.4-3.4,4.1l-1,0.6h-0.7c-0.8,0.1-1.4-0.8-1.7-2.7h-0.6
		c0.1,1.9-0.3,2.9-1.1,2.9l0.7,1.1c-0.9,3.1-2,4.6-3.4,4.6l-1.1,0.1l0.6,2.7l0.1,0.6h-1.1c-0.7,0.1-1.2-0.2-1.2-1l0.5-2.9
		c-2.2,2.3-4.7,3.6-7.6,3.7l0.1,1.1c1.2-0.1,1.8,0.2,1.9,1l2.2-1.2c1.2,0.7,2.4,1,3.6,1v1.1c0,0.5-0.6,1.1-1.7,1.7l0.6,1.1
		c-1.1,2-1.7,3.7-2,5.1c0.4,0.7,0.6,1.3,0.6,1.7l-2.2,1.7c-0.7,0-1.2-0.4-1.2-1.1l-0.1-2.7l-2.4-0.5l-3.2,4.6c0.4,0,2.2,1.2,5.5,3.7
		l-3.1,8.6c-4.1,1.9-6.2,3.1-6.2,3.6v0.6c1.1-0.1,1.7,0.2,1.7,1c0,0.7-0.8,1.2-2.4,1.2l0.1,2.2c1,0.8,1.9,3.4,2.7,7.7
		c0.6,0,2.3-1.4,5.1-4.1h0.5l1.9,1h0.6c4.5-0.2,8.3-1.5,11.6-3.9c1.3,0.7,2.3,1,2.9,1c0.1-0.8,0.5-1.2,1.1-1.2
		c0.4,0,0.6,0.2,0.6,0.5c2.6-1.2,4.3-1.9,5.2-1.9l2.4,2.1l3.5-2.4l1.1-0.1v2.4l0.7-0.1c2.2-1.9,3.3-3.4,3.2-4.6
		c-0.3,0-0.5-0.2-0.6-0.5l0.6-0.1l3,1.6l2.9-0.7c3.3-0.1,5.2-0.2,5.7-0.2c-0.1-1.1,0.2-1.7,1-1.7l2.5,2.7h0.6
		c6.1-1,9.7-1.9,10.8-2.7l0.5,1l-0.5,1.2l1.1-0.1c0-0.8,0.7-2,2.2-3.5l-0.7-1.1v-0.5c0.7-1.5,1.7-2.3,2.9-2.4l-0.6-1.1
		c2.5-4.6,4.9-6.9,7.3-7.1l1.1,0.5l-0.5,1.2c0,0.6,0.4,1.7,1.2,3.2c-0.6,0.4-1.5,0.7-2.9,0.7l0.1,2.7l-0.5,2.9l5.5,2.6h-0.6
		c0.9,2.2,1.4,3.7,1.4,4.5c0.1,1-0.4,2.7-1.5,5.1l0.7,3.4h-0.5l0.6,1.1v1.1c0,0.8-0.2,1.6-0.5,2.2c0.4,0.7,0.6,1.2,0.6,1.6
		c-5.7,2.9-8.7,4.3-9.1,4.3c-0.7-0.3-1.4-0.5-1.9-0.5l0.1,2.9l3,0.4c0.7,0,2.9-1.8,6.8-5.3h1.1c1.8,0.6,2.8,1.3,3,2.1l-1.5,2.9
		c1.8,0,2.8,0.5,3,1.5l0.1,2.2c-1.5,1.7-2.2,2.7-2.2,3l1.7,2.1c-0.3,0.7-0.5,1.4-0.4,2.2h1.2c-0.1-1.5,0.2-2.3,1-2.4h0.5
		c1.6,1.4,2.8,2.1,3.6,2.1v1.1c0.1,0.7-0.2,1.1-1,1.1l-1.1,0.1l-2.5-1.6h-0.5v1.1c2.8,1.7,4.2,2.9,4.2,3.7c-0.3,0.7-0.5,1.3-0.5,1.7
		c0.6,0,1.4,0.7,2.5,2.1v0.6c-0.1,0.7-1,1.5-2.7,2.4c-0.1-0.7-0.5-1.1-1.4-1.1c-0.7,0.2-1.1,0.6-1,1.2v0.5c4.8,3,7.6,4.9,8.4,5.8
		v0.5c-2.9,2.4-4.6,3.6-5.1,3.6v1.1l2.4-0.1l1.9-1.1h0.5v1.1h-1.2l0.1,0.6l2.4,2.1c-0.7,0.2-1,0.5-1,1.1c1.1,0,1.7,0.4,1.7,1.1
		l-5.1,3c0.1,0.3-0.1,0.5-0.5,0.6h-1.2l-3.6-1.5l-0.5,1.1c0.6,0,1.2,0.5,1.9,1.6l-2.2,2.4l0.1,1.1c1.1-0.1,1.7,0.8,1.7,2.7l1.2-0.1
		L217,384c2.7-1.7,4.1-2.9,4.1-3.5c1.3-0.8,2.8-1.3,4.5-1.4h1.2c1.2,0.3,1.8,1.4,1.9,3.2c-1,0.9-2.9,1.9-5.7,3.1v1.1
		c0.2,0.7,0.7,1.1,1.4,1.1c1.5-1.2,2.6-1.9,3.4-1.9c0,0.3,0.2,0.5,0.6,0.5l-0.5,1.1v1.1c1.2,0,1.9,0.4,1.9,1.1
		c-0.4,0.7-0.6,1.3-0.6,1.6c0.6-0.3,1.5-0.5,2.9-0.6l0.7,1.1c-0.6,1.5-1.1,2.2-1.6,2.2l-1.9,0.1c-0.9-0.7-1.7-1.1-2.2-1
		c-0.8,0.4-1.4,0.6-1.7,0.6c-0.1-0.4-0.3-0.6-0.6-0.5c-1.9,1.3-2.8,2.9-2.7,4.6c2.1,1.7,3.9,2.6,5.5,2.5c0.2-1.1,1.7-1.7,4.5-1.9
		c0.6,0,1.2,0.5,1.9,1.6v0.6c0.1,0.7-0.5,1.1-1.7,1.1l0.1,1.7c4.8,2,7.3,5.1,7.5,9.2l1.2,1.6v1.1h-0.5c-0.7,0-1.2-0.5-1.2-1.6h-0.5
		v1.1l-1.2,0.1l-0.6-2.9c-2.2,0.1-3.6,1.1-4,3c1.1,2.6,2.4,4.8,3.9,6.6c-0.4,0-2,0.5-4.7,1.4h-0.5c-0.5,0-1.5-0.9-3.1-2.7l0.5-2.7
		c-0.6,0-1.4-0.3-2.4-1h-1.7c-0.6,0.1-3.9,1-9.9,2.7l0.1,2.2c2,1.6,3,2.5,3,2.7c-1.3,2.7-3.2,4-5.6,4.1l0.5-1.1l-0.1-1.6h-1.1
		c0.1,1.9-0.3,2.9-1.1,2.9h-0.5c-0.8-0.1-1.7-1-2.5-2.6c3.4-1.2,5.1-2.1,5.1-2.5c-0.9-2.2-1.7-3.3-2.5-3.2c-0.2,0-1.4,1.2-3.4,3.5
		l-1.1-0.5c-0.2,1-1.2,1.9-2.7,2.9c-0.9-0.8-1.4-1.9-1.5-3.2l-4,0.1c-0.1-1.2-2.2-3.8-6.2-7.6v-0.5l0.5-1.2l-4.1-13.2
		c-1.5-1.7-2.7-2.6-3.7-2.7c0,0.4-0.2,0.6-0.5,0.6c-0.4-0.7-0.6-1.3-0.6-1.6c-0.1-1.3,1.8-2.7,5.6-4.2c-0.4-1.1-0.9-1.6-1.4-1.6
		c-0.7,0.4-1.2,0.6-1.6,0.6l-0.6-1.1c0-0.7,1.3-2,3.9-4.1V386c-0.7-1.5-1.3-2.2-1.9-2.2c0,0.7-0.4,1.2-1.1,1.2
		c-0.7-0.9-1.2-1.7-1.2-2.2l-1.1,0.6l-2.4,0.1l-0.1-1.1c2.7-1.6,4.1-2.6,4.1-3l-0.1-0.6l-0.7-1c0.5-0.7,0.7-1.4,0.6-2.4v-1.1
		l-1.7,1.2l-0.6-1.1c0.3-0.7,0.5-1.3,0.5-1.6l-3.4,5.1l-0.5-1l-0.2-5.1l-1.4-1.6c0-1,1.5-1.8,4.6-2.5h0.6v1.1l1.9-0.1
		c10.8-2.5,16.2-4.6,16.1-6.3l-0.1-0.6l-0.5,0.1c0,0.7-1,1.5-2.9,2.4c-1.6,0-2.4-0.9-2.5-2.7c-10.4,1.3-16,2.5-16.9,3.6h-0.6
		c-0.7,0.1-1.5-1.7-2.6-5.5c1.5-2.3,2.2-3.9,2.1-4.6l-1.1-0.5c0,0.4-0.2,0.6-0.6,0.6c-0.4-0.7-0.6-1.3-0.6-1.6
		c-0.1-1.2,0.5-1.8,1.7-1.9v-0.5h-1.2v0.6c-0.7-0.3-1.4-0.5-2.2-0.5l-0.1-1.1c0.1-0.7,0.5-1.1,1.1-1.1h0.5c1.5,1,2.9,1.5,4.1,1.5
		l0.6-1.2l-1.7,0.1v-0.6l0.5-1.1l-1.1,0.1l-0.1-1.1l3-0.1V346c-3.5-0.2-5.6-0.3-6.5-0.2l-0.1-1.7c0-0.7,0.7-1.1,2.2-1.1l-0.6-1.1
		c0-0.4,0.2-0.6,0.5-0.6c0-0.3-0.2-0.5-0.5-0.5l0.4-4l-0.1-0.6c0-0.7-0.4-1.1-1.1-1l-1.7,2.4c0.5-0.1,0.7,0.1,0.7,0.5l-1.2,0.6h-1.1
		c-1.8-1.4-3.2-2.1-4.2-2c-2.2,0.4-3.7,0.7-4.6,0.7v-0.6c-0.6,0.1-1.7,1.1-3.4,3h-0.5c-0.5,0-0.7-0.2-0.7-0.5l-2.2,1.2
		c-3.1-0.4-4.8-1.7-4.8-3.7c0.3,0,0.5-0.2,0.5-0.6l-1.1-0.5c-1.4,2.9-2.1,5.2-2.1,6.8l2.5,1c-0.7,2.4-1.6,3.8-2.7,4.1l-4.1-2.1
		l-0.1-0.5l1.1-1.7c-0.1-0.7-0.5-1.1-1.2-1.1c0.1,0.6-0.5,1.2-1.7,1.7c-3.5-0.5-5.3-2.1-5.5-4.7c-0.1-2.4-0.7-3.7-1.9-3.9h-1.2v0.6
		c0.1,0.6,0.6,1.7,1.5,3.2c-0.5,3.8-1.2,5.7-2.1,5.7h-0.6c-0.1-1.5-0.9-2.2-2.5-2.1V341c1-1.7,1.5-3.1,1.5-4l-3.6-1.6
		c-0.6,0.1-1.5,1.1-2.7,3c-1.7-0.5-2.5-1-2.5-1.6c-1.2,0.4-2,0.6-2.2,0.6l-3.5-0.4c0,0.4-0.2,0.6-0.6,0.6c-0.1-0.7-0.5-1.1-1.1-1.1
		c-0.7,1.6-1.9,2.4-3.5,2.5l0.1,0.5l1.1,1.6c0.2,4.7-3.4,9.2-10.9,13.4c-0.7-0.3-1.5-0.5-2.4-0.5v0.6c0.4,0.7,0.6,1.2,0.6,1.6
		l1.7-1.1l1.1-0.1c0.6,0,1.2,0.5,1.9,1.6c-1.7,3.1-3.2,4.6-4.5,4.7l0.1,2.7h1.2v0.5c0.1,0.6-0.5,1.2-1.7,1.7l-1.1-0.5
		c0.1,1.2-0.7,1.8-2.2,1.9l0.1,3.4c-2.2,2-3.3,3.4-3.2,4.1c0.3-0.1,0.9,0,1.6,0.4c-0.3,0.7-0.5,1.3-0.5,1.7l-1.1-0.5
		c0.2,4.3-1.9,7.8-6.5,10.4l0.6,1c0.1,1.8-3.6,7.9-10.9,18.1L69,406c0,0.7-0.4,1.2-1.1,1.2l-2.9,0.1c-1.4-0.5-5.3-2.4-11.7-5.8
		c-1.6,0.1-4.4-1.9-8.6-5.8c-2.7,0.2-5-1-7.1-3.6l8.4-20.7c-0.4-0.7-0.6-1.2-0.6-1.6c1-0.1,2.2-2.6,3.7-7.5l1.6-0.1l1.2,0.5
		c-0.2-6.3,1.6-9.5,5.5-9.7c0-0.4,0.2-1,0.5-1.7l-0.9-3.4l-0.1-1.1c0.4-1.6,3.9-3.2,10.4-5H68l-0.1-2.7h-1.1
		c0.1,1.5-0.3,2.2-1.1,2.2l-1.1,0.1c-0.6,0-1.4-0.7-2.5-2.1l1.7-1.2l1.2,0.5l0.5-1.1l-1.2-1.6v-0.6c1.6-2.6,4-4.6,7.2-5.8l2.4-0.1
		l0.1,1.1c-1.6,0.1-2.4,0.5-2.4,1.2l1.7-0.1l4.1-1.4l-0.1-2.2l-0.6,0.1c-0.7,0.4-1.2,0.6-1.7,0.6c-0.1-0.9-1.1-1.4-3-1.6
		c-0.7,0.4-1.3,0.6-1.6,0.6l-0.6-1c2.2-4.3,4.4-7,6.6-8.2l-0.7-2.7c0.8-3.1,1.5-4.6,2-4.6s1.4,1.7,2.6,5c-0.3,0.7-0.5,1.3-0.5,1.6
		c0.4,0.7,0.7,1.3,0.7,1.7c0.8-0.1,1.2-0.7,1.1-1.7c-0.5-0.7-0.7-1.3-0.7-1.7c0.7-0.4,1.4-0.6,2.4-0.6l-0.1-1.1
		c-3.2-2.8-4.9-4.4-5-4.8c2.7-1.2,4.1-3,4-5.2c-0.5-0.7-0.7-1.2-0.7-1.6c0.8-2.6,1.5-4,2.1-4.1c0.1,0.6,0.7,1.1,1.9,1.6h0.6
		c-0.1-1.1,0.9-1.7,2.9-1.7c-0.1-0.6-0.7-1.1-1.9-1.6v1.1h-0.5c-0.7,0-1.2-0.4-1.2-1.1c0-0.7,0.5-1.1,1.6-1.1v-0.6l-1.6,0.1
		l-0.1-1.1c3.4-1.8,5-5.3,4.7-10.3c0.6-3.8,1.4-5.7,2.6-5.7c0.4-0.1,0.6,0.1,0.6,0.5l1.2-0.6l1.1,0.5c0.7-0.9,1-2.2,0.9-4h1.2
		c0.7-0.1,1.2,0.5,1.2,1.6h0.6c0.8-1.2,2.5-1.8,5.1-2c1,1.1,2,1.6,3,1.6c0.7-0.4,1.4-0.6,1.9-0.6l-0.7-1.1l0.5-3.4
		c-1.8,0.5-3.4,1.3-4.6,2.4c-1.3-0.7-2.3-1-3-1l-3.5,0.7c-0.4-0.7-0.6-1.4-0.6-2.2l-1.7,1.2H95l-0.1-2.7c0.7-0.1,1.8-2.4,3.2-7h1.1
		c0.6,2.2,1.4,4.3,2.6,6.1l2.9-1.4c-0.8-1.2-1.2-2.2-1.2-3.2l-0.2-5.6l-0.9-2.7c0.8-0.1,1.2-0.5,1.2-1.2c-0.8,0-1.3-0.4-1.4-1.1
		v-0.5l0.6-2.9h1.1c-0.3,0.7-0.5,1.3-0.5,1.7v0.5h0.6l0.4-2.9c0-0.2-0.2-1.4-0.7-3.4c0.6,0,1.7-0.8,3.4-2.4l1.2,1.6
		c1.7-0.8,2.7-1.6,2.9-2.4c-2.1,0.1-3.6-0.8-4.7-2.6c0.7-0.9,1-1.7,1-2.2l1.7-0.1l0.1,1.1l2.2-0.1l-0.1-1.6l-1.7-2.2
		c1.4-1.2,3.1-1.8,5.2-1.9h1.1c-0.1-0.8,1.2-2,3.9-3.6c0.1-0.7,0.5-1.1,1.1-1.1c0.7,0.1,1.2,0.4,1.2,1v1.7l1.9,1h0.6
		c0.6,0,1.3-0.8,2.2-2.4v-1.1l-3-0.4l-0.1-1.1c0-0.7,0.7-1.2,2.2-1.2l-2.5-2.1c0-0.4,0.2-0.6,0.6-0.6l-0.6-1.1l0.5-3.4l-1.4-1.6
		v-1.1l0.5-1.2c-0.7,0.1-1.2-0.2-1.2-1c0.5-1.5,1-2.3,1.6-2.4l-0.6-2.7l-0.1-1.7L127.3,201.2z M48.6,387.1l1.1-0.1l-0.1-1.1
		C48.9,386,48.6,386.5,48.6,387.1z M50,383.8c0.3,2.2,1,3.3,2,3.2h0.6c6.3-1.8,9.4-3,9.4-3.6C56.2,383.9,52.2,384,50,383.8z
		 M50.3,389.4l0.2,3.4c4.2-0.4,6.9-0.3,8,0.4H59v-0.5c-5.4-1.2-8.1-2.3-8.1-3.2H50.3z M54.6,377.3v2.2h0.6l-0.1-2.2H54.6z
		 M56.3,367.1v1.1c0.8-0.1,1.2,0.1,1.2,0.5c1.4-0.8,2.9-1.3,4.6-1.4c1.6,1.5,3.2,2.2,4.8,2.1c-0.1-0.7,0.4-1.7,1.5-3l-0.6-1
		c0.7-1.6,1.1-2.7,1-3.5l-3.5,0.1C62.8,364.9,59.8,366.5,56.3,367.1z M58.1,377.7v0.6l1.1-0.1v-0.5H58.1z M69.9,368.2l-0.6,1.1v0.5
		l7.3-0.6v-0.6C76.5,367.9,74.3,367.7,69.9,368.2z M74,332.6c0.2,2.5-1.1,4.8-3.7,6.8l0.1,1.1h0.5c0.7-0.4,1.4-0.6,1.9-0.6l0.5,1.1
		l1.1-0.6l1.9,1c0.7-1.2,1.2-2.5,1.5-4C76.2,334.2,75,332.6,74,332.6z M71,351.2v1.1c0.7,1.9,2.2,2.8,4.2,2.7
		c0.2-0.8,0.5-1.2,1.1-1.2l0.1,1.1l8.4-0.7c0.7,0,1.1-0.4,1-1.1v-0.6c-8-0.3-12-0.8-12.1-1.4v-0.5L71,351.2z M78.6,328.5v1.1
		l0.6-0.1c3.1-1.2,4.8-1.9,5.1-1.9l-0.1-2.2c-0.7,0-1.1-0.2-1.1-0.5C80.2,326.4,78.7,327.6,78.6,328.5z M80.1,335.7v1.1
		c0.4-0.1,1,0.1,1.9,0.5c6-1.4,8.9-2.4,8.8-3.1v-0.5l-6.7,0.6L80.1,335.7z M86.3,307.4v1.1l0.6-0.1c0.8,0,1.2-0.4,1.1-1.1
		L86.3,307.4z M86.7,315.2c0.3,2.2,1,3.3,1.9,3.2h0.6c6.3-1.8,9.4-3,9.4-3.6C92.7,315.3,88.7,315.4,86.7,315.2z M86.9,320.8l0.1,3.4
		c4.2-0.5,6.9-0.4,8,0.4h0.5v-0.6c-5.2-1.2-7.9-2.2-8.1-3.1H86.9z M87.3,293.8l0.1,1.1H88v-1.1H87.3z M94.7,333l-2.9-0.5
		c0,0.8-0.2,1.6-0.5,2.4c0.8,1.2,1.2,2.1,1.2,2.7l4.1-0.7l1.7-0.1c0.3,0,0.5,0.2,0.6,0.5c2.7-0.7,4.1-1.5,4-2.4
		c-0.1-1.8-0.7-3.3-2-4.5C98.8,332,96.7,332.9,94.7,333z M92,281.8h2.4v-1.1h-1.2C92.4,280.8,92,281.2,92,281.8z M92.7,285.1v0.6
		c0.2,0.7,0.6,1.1,1.4,1c0.7,0,1.1-0.4,1-1.1v-1.1C94.4,284.9,93.7,285.1,92.7,285.1z M93,346.5l0.1,1.1c0.8-0.1,1.2-0.5,1.1-1.2
		L93,346.5z M93.7,305.3c0.6,0,3.2,0.2,7.8,0.5l0.6-0.1c0-0.2-1.7-1.2-5-2.7L96,303C95.4,303,94.6,303.8,93.7,305.3z M101.6,287.6
		c0.1,1.6-2.5,4.1-7.7,7.6v0.6l0.6,1c0.7-0.3,1.3-0.5,1.7-0.6l1.2,0.5c2-0.1,3.1-1.2,3.2-3.5h1.1c0.9,0.1,1.4,0.4,1.4,1
		c-0.5,0.1-0.7,0.3-0.5,0.6c4.9,0.2,7.7,0.4,8.3,0.4v-0.6c-3.7-0.6-6.5-2.9-8.2-7.1L101.6,287.6z M113.2,303.5l-2.5-1
		c-1.9,1.1-2.8,1.9-2.7,2.4c0.1,2.3-1.2,4.2-3.9,5.7c0.7,0.3,1.4,0.5,1.9,0.5v1.1l-4.1,0.7c0-0.7-0.4-1.1-1.1-1
		c-0.7,0-1.1,0.6-1.1,1.7c0.4,1.1,0.8,1.6,1.2,1.6c0.7-0.4,1.2-0.7,1.7-0.7c0.1,0.7-0.5,1.2-1.7,1.2l0.1,2.2c0.7,0,2.6-1.2,5.7-3.6
		l-0.6-1.1l-0.1-1.1c2.2,3.3,4,4.9,5.5,4.8v-0.6c-0.1-1.3,0.2-2.4,1-3.4c0-0.8-1.6-1.7-4.8-2.6v-1.6c3-2.2,4.5-3.6,4.5-4.2l1.1-0.6
		h1.1c0.8,0.1,1.2,0.5,1.2,1.1l-0.5,1.1c1.6,0.7,2.8,1,3.6,1c0.7-1,1.5-2.9,2.6-5.8l-0.5,0.1c-0.8,0.4-1.4,0.6-1.9,0.6
		c-1.2-1.2-1.9-2.1-1.9-2.7h-0.6C115.8,299.4,114.7,300.8,113.2,303.5z M100.3,339.4c0.1,0.8,0,1.6-0.4,2.2c0.7,1.7,1.5,2.6,2.4,2.7
		c0-0.3,0.2-1.8,0.5-4.5l-1.4-0.5H100.3z M100.4,261.8h1.1v1.7c-0.7,0-1.1-0.4-1.1-1.1V261.8z M103.1,321.9l-0.6,1.1l4.2,1v-0.6
		C106.2,322.3,105,321.8,103.1,321.9z M105,286.2v0.6l4.7-0.2l5.7,3.9h1.1c0-1.2,0.6-1.7,1.7-1.7l-1.2-1.6c0.4-0.7,0.6-1.3,0.6-1.7
		c-4.2-0.3-6.3-0.7-6.3-1c0.6-0.1,1.2-0.7,1.7-1.9L113,282c0-0.6-0.6-1.1-1.9-1.6l-1.6,0.1L105,286.2z M106.2,248.6l0.1,1.1
		c0,0.6,0.6,1.1,1.7,1.6v-0.5l-0.7-3.4C106.5,247.7,106.2,248,106.2,248.6z M107.6,267.1c0,0.5,0.6,1,1.9,1.6
		c0.7-0.1,1.1-0.5,1.1-1.2c-0.7,0.1-1.2-0.5-1.2-1.6l-0.6,0.1C108,266.1,107.6,266.5,107.6,267.1z M109.1,262l0.6,1.1
		c-0.3,0.7-0.5,1.3-0.4,1.6h1.6c-0.1-1,0.3-1.9,1.1-2.9l-1.2-0.5h-0.6L109.1,262z M109.8,250.2c1.8,3.2,4.4,4.8,7.7,4.7
		c0.7-3.6,1-5.9,1-6.8c-0.8,0.1-1.3-0.2-1.4-1C114.9,248.3,112.5,249.3,109.8,250.2z M113,347.9c0.7,0.1,1.2,0.4,1.2,1v0.6
		c0,0.8-1,1.4-2.9,1.7l-0.6-1C110.8,349.6,111.5,348.8,113,347.9z M130.6,264.6c0,0.5-0.7,1.1-2.2,1.7l-9.1,0.2h-0.6l-2.9,1.9l0.6,1
		l0.1,0.6l-1.1,1.7l0.7,2.7l7.8-0.7l-0.1-2.7c0.2-1.2,1.7-1.8,4.6-1.9l0.5-0.1l0.1,2.2c1.2-1.2,2.2-1.7,2.9-1.7
		c-0.1-0.7-0.5-1.1-1.2-1.1l1-3.4L130.6,264.6z M115.7,295.6l1.7-0.1l5.1-3.6l-1.1,0.1c-0.8,0.4-1.4,0.6-1.7,0.6
		c-0.4-0.7-0.7-1.4-0.7-2.2h-0.5C117.4,290.4,116.5,292.2,115.7,295.6z M116.7,262.3v0.5h1.2V261
		C117.1,261.2,116.7,261.6,116.7,262.3z M128.3,235.9c0.1,0.7-0.2,1.1-1,1.1l-1.2-0.5c-1.9,0.4-3.4,1.4-4.5,3l-1.2,0.1l-1.7-1.1
		c0.1,1.9-0.5,2.9-1.7,2.9l0.9,2.9l0.1,2.2l2.2-0.1c0.2-3.3,0.5-5.4,0.9-6.2c2,0.5,3,1.6,3.1,3.2h-0.6l-1.2-0.5l0.1,0.6
		c1.7,1.6,2.5,2.4,2.5,2.6c-0.8,0.1-2.1,1.8-3.9,5.2l-0.6,0.1v0.5h1.2l4-1.4c0.2,0.7,0.6,1.1,1.2,1.1h0.6c-0.9-1.2-1.4-2.2-1.4-2.9
		c0.7,0,1.2-1.3,1.6-4l-2.5-2.6l4.5-3.1c0.8,0.1,1.2,0.5,1.2,1.1c-0.3,0-0.5,0.2-0.5,0.6c0.7,0.1,1.1,0.4,1.1,1
		c2.3-1.2,3.6-1.9,4-1.9l-0.1-1.6c0-0.6-0.6-1.1-1.7-1.6l-1.7,1.2h-0.5L128.3,235.9z M119.8,217.2c1,3,1.9,5,2.6,6.1v0.5l-0.5,0.1
		l-2.5-1.6c0.2,2.7-0.1,4-0.9,4c-0.8,0-1.3-0.4-1.4-1.1c0-0.3,0.2-0.5,0.7-0.5l-0.7-1.1c1.1-1.5,1.6-2.6,1.6-3.5
		c-0.4-0.7-0.6-1.2-0.6-1.6L119.8,217.2z M117.7,311.7l0.1,1.7c0.7-0.1,1.1-0.5,1-1.2v-0.5H117.7z M120.4,254.8v0.5
		c0.2,0.7,0.7,1.1,1.2,1.1l0.6-1.2l-1.2-0.5L120.4,254.8z M123.1,301.9v0.6l2.9-0.7c0-0.7-0.4-1.1-1.1-1h-0.6
		C123.3,300.9,123,301.3,123.1,301.9z M123.8,291.8c0.4,0,1,0.2,1.7,0.5l0.5-1.2l-0.1-1.6C125.3,289.5,124.6,290.3,123.8,291.8z
		 M124.4,281.2l0.1,2.7c3.1,0.5,4.6,1.6,4.7,3.2l0.7-0.1c0.7,0,1.1-0.4,1-1.1l-0.1-3.4l-2.9,0.7h-0.6l-0.1-2.9L124.4,281.2z
		 M131.6,207.1l-0.5,2.4h-0.5l-1.4-0.5l0.1,1.1c0.5,0.7,0.7,1.2,0.7,1.6h1.1c0.7-0.1,1.1-0.5,1.1-1.2l-0.2-3.4H131.6z M130.1,199.9
		h1.1v1.1h-1L130.1,199.9z M130.6,246.5c0,0.5,0.8,1,2.4,1.5v-1.6L130.6,246.5z M131.5,217.8l0.1,1.1h0.5v-1.1H131.5z M132.9,218.9
		v1.1l1.1-0.1v-1.1L132.9,218.9z M133.6,199.2h1.6c0.1,0.7-0.2,1.1-1,1.1h-0.6V199.2z M134.7,266.1c0.8,0.8,1.3,1.9,1.4,3.2h0.6
		c0.5,0,1.4-1,2.7-2.9c-0.3-2.6-0.8-4-1.4-4C136.8,262.9,135.7,264.1,134.7,266.1z M142.8,336.9l0.1,1.7c0.5-0.1,1-0.7,1.6-1.7
		H142.8z M148.8,240.8c0,0.3-1.1,1.5-3.4,3.5c0.2,0.7,0.5,1.1,1.1,1.1c0.9-0.1,2-1.2,3.4-3.5C149.9,241.2,149.5,240.8,148.8,240.8z
		 M147.4,335.1h1.2l-0.1-1.1C147.7,334,147.3,334.4,147.4,335.1z M154.2,318.5l-3.2,4v0.6h0.5c1.2-0.4,2.7-1.6,4.5-3.6L154.2,318.5z
		 M159.1,285.7h0.5c0.8,0.1,1.2,0.4,1.2,1c-0.7,1-1.1,1.9-1.1,2.9l-1.1,0.1c-0.7,0-1-0.4-1.1-1.1
		C157.9,286.7,158.4,285.7,159.1,285.7z M162.3,246.4l-2.9,0.1l-0.2,5.6l2.9-0.1c-0.1-1.8,1-3,3.4-3.5v-0.6
		c-1.2,0.1-1.8-0.6-1.9-2.1L162.3,246.4z M161.8,342.3c0.9,0,1.5,0.9,1.9,2.7l-1.7,1.2h-0.5l-1.9-1.1
		C160.2,343.5,161,342.5,161.8,342.3z M161.1,210.5v0.5c0,0.9,1,1.4,3,1.6c0-0.4,0.2-0.6,0.5-0.6c-0.4-0.7-0.6-1.2-0.6-1.6
		L161.1,210.5z M166.2,232.1h1.1l5.2-2v-0.5C168.3,230.2,166.2,231,166.2,232.1z M166.3,210.8l0.1,1.1l0.5-0.1v-1.1L166.3,210.8z
		 M170.8,258.3l0.6,1c1.9-0.5,2.8-1.1,2.7-1.7l-1.1-0.5C172.1,257.8,171.3,258.2,170.8,258.3z M172,271.7v0.5h0.6l2.9-0.7v-1.6
		C173.2,270.3,172,271,172,271.7z M173.7,272.7v0.5h1.1v-0.5H173.7z M176.5,257.4c0.1,1.5-0.5,2.8-1.6,4c0.8,0,1.3,0.2,1.4,0.5
		c3.1-0.1,5.5-1.5,7.3-4.2h-1.1l-1.7,1.2h-0.6l-2.5-1.5H176.5z M176.3,253.5l1.1,0.6l0.7-0.1c0.3,0,1.8-1.9,4.3-5.7l-0.6-1.1
		C178,248.5,176.2,250.6,176.3,253.5z M179.5,268.5v2.2l-0.5,0.1v0.5c0.7,0,2.2,0.3,4.7,0.9c2.7-0.8,4.1-2.2,4-4.1l-1.2,0.1
		l-1.7,1.1l-1.2,0.1v-1.1L179.5,268.5z M180.8,306.1c0.8,0.1,1.2,0.4,1.2,1l-1,0.6c-0.8,0.1-1.3-0.2-1.4-1L180.8,306.1z
		 M185.9,246.9c0-0.3-0.2-0.5-0.6-0.5l0.1,1.1l0.6,1.1l1.2-0.6h1.1v1.6h1.1l-0.1-4C187.9,246.5,186.7,246.9,185.9,246.9z
		 M185.5,286.2c0,0.5,0.6,1,1.9,1.5h1.1v-0.5c-0.1-0.7-0.5-1.1-1.2-1.1L185.5,286.2z M188.6,314.7v0.5c0.7,0,1.2,0.7,1.2,2.2
		l4.1-0.2c0-1.5,0.5-2.2,1.6-2.2v-0.6l-2.9,0.7h-0.6c-0.7,0-1.1-0.4-1.1-1.1C190.3,314.4,189.5,314.6,188.6,314.7z M190.4,401.7v0.5
		h1.1v-0.6L190.4,401.7z M195.6,351.3l-3-0.4l-2,3.5v0.5h1.6l3.5-1.9c0.1,1.5,1.5,2.4,4.2,2.6l0.1,1.1l1.1-0.1c-0.1-2.2,1-3.5,3.2-4
		l2.4,0.4l2.9-1.7c0.7,0.3,1.4,0.5,2.4,0.4l0.5-1.1V349h-0.6l-1.7,1.2c-1,0-2.2-0.3-3.5-1c0,0.4-0.2,1-0.5,1.6l-1.2-0.5l-1.6,1.2
		l-1.9,0.1v-0.6l1.1-1.7c-2.4,0.1-3.6,0-3.6-0.4C198.6,349,197.5,349.8,195.6,351.3z M191.9,272.5c0,0.9-0.3,1.9-1,2.9
		c0,0.6,1.4,1.1,4.1,1.5c-0.1-0.7,0.7-1.2,2.2-1.2c0-1-0.5-2.1-1.4-3.2c-0.3,0-0.5,0.2-0.5,0.5l-3-0.4H191.9z M192.1,326.2l1.2,0.5
		h0.5c0.9-0.7,1.7-1.2,2.4-1.2l-0.2-2.2l-0.5,0.1C193.9,324,192.8,324.9,192.1,326.2z M195.8,259.4c0.7-0.1,1.3,0.6,1.9,2.1
		l-1.1,0.6l-1.7,0.1c0-0.4-0.2-1-0.6-1.7L195.8,259.4z M197.3,360.8h1.1l-0.1-1.1C197.6,359.8,197.3,360.2,197.3,360.8z
		 M200.2,312.5V312c-1.9,0.3-2.8,1.7-2.7,4h0.5l3-0.7c1.1,2.6,1.9,3.9,2.5,3.9h0.6c-0.1-0.7,0.8-2.3,2.6-4.6v-0.6
		c-1.2-1.7-2-2.6-2.5-2.6L200.2,312.5z M197.6,342.3v0.6c0.2,0.7,0.5,1.1,1.1,1h1.9c-0.1-0.6,0.2-1.4,1-2.4
		c-0.4,0.1-0.6-0.1-0.6-0.5C199.8,341.9,198.7,342.3,197.6,342.3z M199.7,350.6l0.1,1.7c-0.8,0-1.2-0.4-1.2-1.1L199.7,350.6z
		 M205,366.1c0.2,1.2-1,2-3.4,2.4v1.1c3.1,0.2,5,0.5,6,0.9l2.9-1.9l1.2,0.5c0.3,0,0.5-0.2,0.5-0.5l3,0.4l2.4-0.1l-0.1-1.1
		c0-0.9-0.8-1.4-2.4-1.5c-0.8,0.4-1.5,0.6-1.9,0.6c0-0.7-0.4-1.1-1.1-1.1c0,0.6-0.6,1.2-1.7,1.7l-0.5,0.1
		C209,367,207.4,366.5,205,366.1z M202.2,389.7h1.1v-1.1C202.6,388.8,202.2,389.1,202.2,389.7z M203.6,421.8v1.1l1.1-0.1v-1.1
		L203.6,421.8z M206.2,362.1c0,1.1-0.6,1.7-1.7,1.7c0,0.5,0.6,1,1.9,1.6h0.5c0.7-0.1,1.1-0.5,1.1-1.2v-0.5
		C207.8,363.2,207.2,362.6,206.2,362.1z M205.5,385.8c0.1,1.1-0.3,2.4-1.1,4l2.5,1c-0.1-1.2,0.1-1.7,0.5-1.7
		C206.7,386.7,206.1,385.7,205.5,385.8z M206.9,380l0.1,1.1c0.2,0.7,0.6,1.1,1.2,1.1c1.2-1.2,2.1-1.9,2.7-1.9
		c-0.5-1.8-0.9-2.7-1.2-2.7C208,378.5,207.1,379.3,206.9,380z M207.4,391.2l0.1,1.7l1.2-0.1v-0.5
		C208.7,391.6,208.2,391.2,207.4,391.2z M208,305.4h0.6v1.1H208V305.4z M215.5,398.7v0.6h1.1v-0.6H215.5z M225.8,396.1l0.6-0.1
		l0.1,1.1l-0.7,0.1V396.1z M239.2,418.4c2.3,0.9,3.5,1.6,3.6,2.1v1.1c0.1,0.7-0.5,1.1-1.7,1.1l-4.1-0.9v-0.6
		C238,419.5,238.7,418.5,239.2,418.4z"/>
</g>
</svg>
