<?xml version="1.0" encoding="utf-8"?>
<!-- Generator: Adobe Illustrator 22.1.0, SVG Export Plug-In . SVG Version: 6.00 Build 0)  -->
<svg version="1.1" id="Layer_1" xmlns="http://www.w3.org/2000/svg" xmlns:xlink="http://www.w3.org/1999/xlink" x="0px" y="0px"
	 viewBox="0 0 300 600" style="enable-background:new 0 0 300 600;" xml:space="preserve">
<style type="text/css">
	.st0{fill:#231F20;}
</style>
<g>
	<path class="st0" d="M23.4,581.4h-2.2l-0.2,1.5c0.1,0,0.3,0,0.5,0c0.4,0,0.9,0.1,1.2,0.3c0.5,0.3,0.8,0.8,0.8,1.5
		c0,1.1-0.9,2-2.1,2c-0.6,0-1.2-0.2-1.4-0.4l0.2-0.6c0.2,0.1,0.7,0.3,1.2,0.3c0.7,0,1.4-0.5,1.4-1.3c0-0.7-0.5-1.3-1.7-1.3
		c-0.3,0-0.6,0-0.8,0.1l0.4-2.8h2.8V581.4z"/>
	<path class="st0" d="M24.4,585.1c0-0.7,0.4-1.2,1.1-1.5l0,0c-0.6-0.3-0.9-0.8-0.9-1.3c0-0.9,0.8-1.5,1.8-1.5c1.1,0,1.7,0.7,1.7,1.4
		c0,0.5-0.2,1-1,1.3v0c0.7,0.3,1.2,0.8,1.2,1.5c0,1-0.9,1.7-2,1.7C25.2,586.6,24.4,585.9,24.4,585.1z M27.5,585c0-0.7-0.5-1-1.3-1.3
		c-0.7,0.2-1,0.6-1,1.2c0,0.6,0.4,1.1,1.2,1.1C27.1,586.1,27.5,585.6,27.5,585z M25.4,582.1c0,0.6,0.4,0.9,1.1,1.1
		c0.5-0.2,0.9-0.5,0.9-1c0-0.5-0.3-0.9-1-0.9C25.7,581.2,25.4,581.7,25.4,582.1z"/>
	<path class="st0" d="M32.4,581.3c-0.2,0-0.4,0-0.6,0c-1.2,0.2-1.9,1.1-2,2.1h0c0.3-0.4,0.8-0.7,1.4-0.7c1,0,1.7,0.7,1.7,1.9
		c0,1.1-0.7,2-1.9,2c-1.2,0-2-1-2-2.5c0-1.1,0.4-2,1-2.6c0.5-0.5,1.1-0.8,1.8-0.9c0.2,0,0.4,0,0.6,0V581.3z M32.1,584.6
		c0-0.8-0.5-1.3-1.2-1.3c-0.5,0-0.9,0.3-1.1,0.7c-0.1,0.1-0.1,0.2-0.1,0.3c0,1,0.5,1.7,1.3,1.7C31.7,586,32.1,585.5,32.1,584.6z"/>
	<path class="st0" d="M33.8,585.6c0.2,0.1,0.7,0.4,1.3,0.4c1,0,1.3-0.6,1.3-1.1c0-0.8-0.7-1.2-1.5-1.2h-0.4v-0.6h0.4
		c0.6,0,1.3-0.3,1.3-1c0-0.5-0.3-0.9-1-0.9c-0.5,0-0.9,0.2-1.2,0.4l-0.2-0.6c0.3-0.2,0.9-0.4,1.5-0.4c1.1,0,1.7,0.7,1.7,1.4
		c0,0.6-0.4,1.1-1.1,1.4v0c0.7,0.1,1.3,0.7,1.3,1.5c0,0.9-0.7,1.7-2.1,1.7c-0.6,0-1.2-0.2-1.5-0.4L33.8,585.6z"/>
	<path class="st0" d="M39.9,581.5L39.9,581.5l-1,0.5l-0.2-0.6l1.3-0.7h0.7v5.8h-0.8V581.5z"/>
	<path class="st0" d="M42.7,585.1c0-0.7,0.4-1.2,1.1-1.5l0,0c-0.6-0.3-0.9-0.8-0.9-1.3c0-0.9,0.8-1.5,1.8-1.5c1.1,0,1.7,0.7,1.7,1.4
		c0,0.5-0.2,1-1,1.3v0c0.7,0.3,1.2,0.8,1.2,1.5c0,1-0.9,1.7-2,1.7C43.4,586.6,42.7,585.9,42.7,585.1z M45.8,585c0-0.7-0.5-1-1.3-1.3
		c-0.7,0.2-1,0.6-1,1.2c0,0.6,0.4,1.1,1.2,1.1C45.3,586.1,45.8,585.6,45.8,585z M43.6,582.1c0,0.6,0.4,0.9,1.1,1.1
		c0.5-0.2,0.9-0.5,0.9-1c0-0.5-0.3-0.9-1-0.9C44,581.2,43.6,581.7,43.6,582.1z"/>
</g>
</svg>
