<?xml version="1.0" encoding="utf-8"?>
<!-- Generator: Adobe Illustrator 22.1.0, SVG Export Plug-In . SVG Version: 6.00 Build 0)  -->
<svg version="1.1" id="Layer_1" xmlns="http://www.w3.org/2000/svg" xmlns:xlink="http://www.w3.org/1999/xlink" x="0px" y="0px"
	 viewBox="0 0 300 600" style="enable-background:new 0 0 300 600;" xml:space="preserve">
<style type="text/css">
	.st0{fill:#F9E038;}
</style>
<g>
	<path class="st0" d="M38.9,62.6l-1.4-3.8h-5.4l-1.4,3.8h-3.9l6.7-17.2h2.9L43,62.6H38.9z M35.3,52.4c-0.2-0.5-0.4-1-0.5-1.6h-0.1
		c-0.1,0.6-0.3,1.1-0.5,1.6l-1.1,3.1h3.3L35.3,52.4z"/>
	<path class="st0" d="M52.6,47.1c-0.5-0.2-1.1-0.3-1.6-0.3c-1.4,0-2.2,0.9-2.2,2.6v1.1h3.5l-0.8,3.2h-2.7v8.9H45v-8.9h-1.8v-3.2H45
		v-1.4c0-3.7,2.4-5.5,5.4-5.5c1.1,0,2.2,0.1,2.9,0.4L52.6,47.1z"/>
	<path class="st0" d="M62.5,47.1c-0.5-0.2-1.1-0.3-1.6-0.3c-1.4,0-2.2,0.9-2.2,2.6v1.1h3.5l-0.8,3.2h-2.7v8.9H55v-8.9h-1.8v-3.2H55
		v-1.4c0-3.7,2.4-5.5,5.4-5.5c1.1,0,2.2,0.1,2.9,0.4L62.5,47.1z"/>
	<path class="st0" d="M69.3,63c-3.7,0-6.6-2.6-6.6-6.4s2.9-6.4,6.6-6.4c3.6,0,6.6,2.6,6.6,6.4S72.9,63,69.3,63z M69.3,53.6
		c-1.5,0-2.7,1.3-2.7,3.1c0,1.8,1.3,3.1,2.7,3.1c1.4,0,2.7-1.3,2.7-3.1C72,54.8,70.7,53.6,69.3,53.6z"/>
	<path class="st0" d="M85.3,54.7c-0.2-0.1-0.8-0.3-1.2-0.3c-1.3,0-2.4,0.7-2.4,2.6v5.6h-3.9V50.6h3.9v2.7h0c0.4-1.9,1.8-2.9,3.4-2.9
		c0.4,0,0.8,0.1,1.1,0.2L85.3,54.7z"/>
	<path class="st0" d="M96.4,62.6v-1.5h0c-0.7,1.2-2.1,1.8-3.7,1.8c-3,0-5.8-2.2-5.8-6.4c0-3.9,2.8-6.4,6.1-6.4
		c1.3,0,2.6,0.4,3.1,0.8v-7.4h3.8v19H96.4z M96,54.7c-0.4-0.5-1.2-1.1-2.4-1.1c-1.7,0-2.9,1.3-2.9,3.1c0,1.7,1.2,3.1,2.9,3.1
		c1.1,0,1.9-0.6,2.4-1.3V54.7z"/>
	<path class="st0" d="M110.9,63.2c-0.7-0.2-1.5-0.7-1.9-1.6c-0.5,1-1.7,1.5-3.1,1.5c-2.1,0-4-1.5-4-4c0-2.2,1.7-3.7,4.1-3.9l2.4-0.2
		v-0.4c0-0.7-0.6-1.2-1.9-1.2c-1.2,0-2.5,0.4-3.4,0.9l-0.7-3c1-0.6,2.6-1.1,4.2-1.1c3.2,0,5.5,1.5,5.5,4.4v3.9
		c0,1.4,0.5,2.2,1.5,2.5L110.9,63.2z M108.4,57.4l-1.5,0.1c-1,0.1-1.5,0.8-1.5,1.5c0,0.6,0.5,1.2,1.2,1.2c0.9,0,1.7-0.7,1.7-1.8
		V57.4z"/>
	<path class="st0" d="M120.8,63c-2.6,0-4.6-0.9-5.8-1.8V43.6h3.8V51c0.5-0.4,1.8-0.8,3-0.8c3.3,0,6.1,2.4,6.1,6.2
		C127.9,60.1,125.5,63,120.8,63z M121.1,53.6c-1.1,0-2,0.5-2.3,0.9v4.6c0.4,0.3,1.2,0.6,2,0.6c2,0,3.3-1.4,3.3-3.1
		C124,55,122.8,53.6,121.1,53.6z"/>
	<path class="st0" d="M131.8,48.9c-0.7,0-2.1-1.4-2.1-2.1c0-0.7,1.4-2.1,2.1-2.1s2.1,1.4,2.1,2.1C133.9,47.5,132.5,48.9,131.8,48.9z
		 M129.9,62.6V50.6h3.9v12.1H129.9z"/>
	<path class="st0" d="M140.5,63.1c-2.5-0.1-4.1-1.4-4.1-4.3V43.6h3.9v14.7c0,1,0.6,1.5,1.6,1.6L140.5,63.1z"/>
	<path class="st0" d="M145.5,48.9c-0.7,0-2.1-1.4-2.1-2.1c0-0.7,1.4-2.1,2.1-2.1s2.1,1.4,2.1,2.1C147.6,47.5,146.2,48.9,145.5,48.9z
		 M143.5,62.6V50.6h3.9v12.1H143.5z"/>
	<path class="st0" d="M158,53.8h-3.1v4.5c0,1,0.6,1.5,1.6,1.5c0.5,0,0.7,0,1-0.2l-0.3,3c-0.4,0.2-1,0.3-1.8,0.3
		c-2.7,0-4.3-1.4-4.3-3.8v-5.2h-2v-3.2h2V48l3.9-1.4v4h3.9L158,53.8z"/>
	<path class="st0" d="M167.9,61.4c-1.8,4.9-3.8,6.6-6,7.5l-2.4-2.4c1.9-0.7,3.4-2.2,4.4-4.7l-4.3-11.3h3.8l1.8,4.7
		c0.3,0.7,0.5,1.5,0.7,2.4h0.1c0.2-0.8,0.5-1.7,0.8-2.4l1.8-4.7h3.6L167.9,61.4z"/>
	<path class="st0" d="M188.1,63.2c-0.7-0.2-1.5-0.7-1.9-1.6c-0.5,1-1.7,1.5-3.1,1.5c-2.1,0-4-1.5-4-4c0-2.2,1.7-3.7,4.1-3.9l2.4-0.2
		v-0.4c0-0.7-0.6-1.2-1.9-1.2c-1.2,0-2.5,0.4-3.4,0.9l-0.7-3c1-0.6,2.6-1.1,4.2-1.1c3.2,0,5.5,1.5,5.5,4.4v3.9
		c0,1.4,0.5,2.2,1.5,2.5L188.1,63.2z M185.6,57.4l-1.5,0.1c-1,0.1-1.5,0.8-1.5,1.5c0,0.6,0.5,1.2,1.2,1.2c0.9,0,1.7-0.7,1.7-1.8
		V57.4z"/>
	<path class="st0" d="M199.8,62.6v-7.4c0-0.9-0.6-1.7-1.8-1.7c-1.2,0-1.9,0.7-1.9,1.7v7.4h-3.9V50.6h3.6v1.6h0c0.5-1.3,1.7-2,3.7-2
		c2.6,0,4.2,1.5,4.2,4.1v8.4H199.8z"/>
	<path class="st0" d="M215.2,62.6v-1.5h0c-0.7,1.2-2.1,1.8-3.7,1.8c-3,0-5.8-2.2-5.8-6.4c0-3.9,2.8-6.4,6.1-6.4
		c1.3,0,2.6,0.4,3.1,0.8v-7.4h3.8v19H215.2z M214.8,54.7c-0.4-0.5-1.2-1.1-2.4-1.1c-1.7,0-2.9,1.3-2.9,3.1c0,1.7,1.2,3.1,2.9,3.1
		c1.1,0,1.9-0.6,2.4-1.3V54.7z"/>
</g>
<g>
	<path class="st0" d="M36.2,94.3c-0.7-0.2-1.5-0.7-1.9-1.6c-0.5,1-1.7,1.5-3.1,1.5c-2.1,0-4-1.5-4-4c0-2.2,1.7-3.7,4.1-3.9l2.4-0.2
		v-0.4c0-0.7-0.6-1.2-1.9-1.2c-1.2,0-2.5,0.4-3.4,0.9l-0.7-3c1-0.6,2.6-1.1,4.2-1.1c3.2,0,5.5,1.5,5.5,4.4v3.9
		c0,1.4,0.5,2.2,1.5,2.5L36.2,94.3z M33.7,88.5l-1.5,0.1c-1,0.1-1.5,0.8-1.5,1.5c0,0.6,0.5,1.2,1.2,1.2c0.9,0,1.7-0.7,1.7-1.8V88.5z
		"/>
	<path class="st0" d="M47.9,93.8v-7.4c0-0.9-0.6-1.7-1.8-1.7c-1.2,0-1.9,0.7-1.9,1.7v7.4h-3.9V81.7h3.6v1.6h0c0.5-1.3,1.7-2,3.7-2
		c2.6,0,4.2,1.5,4.2,4.1v8.4H47.9z"/>
	<path class="st0" d="M71.3,87l-1.7,1.8h-5.9c0.2,1,1.5,2.1,3.6,2.1c1.3,0,2.5-0.4,3.3-0.9l-0.4,3.4c-0.9,0.5-2.3,0.8-3.8,0.8
		c-3.7,0-6.6-2.6-6.6-6.5c0-3.9,2.8-6.4,6.3-6.4c3.4,0,5.4,2.3,5.4,4.8C71.4,86.4,71.4,86.8,71.3,87z M66,84.2c-1.1,0-2.1,0.9-2.3,2
		h4.1c0-0.1,0-0.2,0-0.3C67.8,85.1,67.1,84.2,66,84.2z"/>
	<path class="st0" d="M81.8,94.3c-0.7-0.2-1.5-0.7-1.9-1.6c-0.5,1-1.7,1.5-3.1,1.5c-2.1,0-4-1.5-4-4c0-2.2,1.7-3.7,4.1-3.9l2.4-0.2
		v-0.4c0-0.7-0.6-1.2-1.9-1.2c-1.2,0-2.5,0.4-3.4,0.9l-0.7-3c1-0.6,2.6-1.1,4.2-1.1c3.2,0,5.5,1.5,5.5,4.4v3.9
		c0,1.4,0.5,2.2,1.5,2.5L81.8,94.3z M79.3,88.5l-1.5,0.1c-1,0.1-1.5,0.8-1.5,1.5c0,0.6,0.5,1.2,1.2,1.2c0.9,0,1.7-0.7,1.7-1.8V88.5z
		"/>
	<path class="st0" d="M89.7,94c-1.7,0-2.9-0.3-3.8-0.9l-0.3-3.5c1.1,0.7,2.5,1.3,3.8,1.3c0.7,0,1.2-0.4,1.2-0.8
		c0-0.5-0.4-0.7-1.1-0.9c-2.3-0.7-3.7-1.8-3.7-3.9c0-2.4,1.9-3.9,4.5-3.9c1.5,0,3,0.4,3.6,0.7L93.1,85c-0.6-0.3-1.5-0.7-2.5-0.7
		c-0.6,0-1.1,0.3-1.1,0.8c0,0.5,0.3,0.7,1.1,0.9c2.7,0.7,3.8,2.1,3.8,4.1C94.5,92.2,93,94,89.7,94z"/>
	<path class="st0" d="M103.6,92.6c-1.8,4.9-3.8,6.6-6,7.5l-2.4-2.4c1.9-0.7,3.4-2.2,4.4-4.7l-4.3-11.3H99l1.8,4.7
		c0.3,0.7,0.5,1.5,0.7,2.4h0.1c0.2-0.8,0.5-1.7,0.8-2.4l1.8-4.7h3.6L103.6,92.6z"/>
	<path class="st0" d="M123.7,94.3c-0.7-0.2-1.5-0.7-1.9-1.6c-0.5,1-1.7,1.5-3.1,1.5c-2.1,0-4-1.5-4-4c0-2.2,1.7-3.7,4.1-3.9l2.4-0.2
		v-0.4c0-0.7-0.6-1.2-1.9-1.2c-1.2,0-2.5,0.4-3.4,0.9l-0.7-3c1-0.6,2.6-1.1,4.2-1.1c3.2,0,5.5,1.5,5.5,4.4v3.9
		c0,1.4,0.5,2.2,1.5,2.5L123.7,94.3z M121.2,88.5l-1.5,0.1c-1,0.1-1.5,0.8-1.5,1.5c0,0.6,0.5,1.2,1.2,1.2c0.9,0,1.7-0.7,1.7-1.8
		V88.5z"/>
	<path class="st0" d="M134.7,94.1c-1.3,0-2.6-0.4-3.1-0.8v6.6h-3.8V81.7h3.4v1.5h0c0.7-1.2,2.1-1.8,3.7-1.8c3,0,5.8,2.2,5.8,6.4
		C140.8,91.6,138,94.1,134.7,94.1z M134,84.7c-1.1,0-1.9,0.6-2.4,1.3v3.8c0.4,0.5,1.2,1.1,2.4,1.1c1.7,0,2.9-1.3,2.9-3
		C136.9,86.1,135.7,84.7,134,84.7z"/>
	<path class="st0" d="M149.7,94.1c-1.3,0-2.6-0.4-3.1-0.8v6.6h-3.8V81.7h3.4v1.5h0c0.7-1.2,2.1-1.8,3.7-1.8c3,0,5.8,2.2,5.8,6.4
		C155.8,91.6,153,94.1,149.7,94.1z M149,84.7c-1.1,0-1.9,0.6-2.4,1.3v3.8c0.4,0.5,1.2,1.1,2.4,1.1c1.7,0,2.9-1.3,2.9-3
		C151.9,86.1,150.7,84.7,149,84.7z"/>
	<path class="st0" d="M161.9,94.2c-2.5-0.1-4.1-1.4-4.1-4.3V74.8h3.9v14.7c0,1,0.6,1.5,1.6,1.6L161.9,94.2z"/>
	<path class="st0" d="M166.9,80c-0.7,0-2.1-1.4-2.1-2.1c0-0.7,1.4-2.1,2.1-2.1c0.7,0,2.1,1.4,2.1,2.1C169,78.6,167.5,80,166.9,80z
		 M164.9,93.8V81.7h3.9v12.1H164.9z"/>
	<path class="st0" d="M180.5,85.6c-0.8-0.5-1.6-0.8-2.6-0.8c-1.7,0-3.1,1.2-3.1,3c0,1.7,1.4,3,3.1,3c1,0,1.8-0.2,2.6-0.7l-0.3,3.3
		c-0.8,0.4-1.8,0.6-3,0.6c-3.4,0-6.5-2.4-6.5-6.3c0-3.9,3.2-6.3,6.5-6.3c1.6,0,2.9,0.3,4,0.9L180.5,85.6z"/>
	<path class="st0" d="M191.5,94.3c-0.7-0.2-1.5-0.7-1.9-1.6c-0.5,1-1.7,1.5-3.1,1.5c-2.1,0-4-1.5-4-4c0-2.2,1.7-3.7,4.1-3.9L189,86
		v-0.4c0-0.7-0.6-1.2-1.9-1.2c-1.2,0-2.5,0.4-3.4,0.9l-0.7-3c1-0.6,2.6-1.1,4.2-1.1c3.2,0,5.5,1.5,5.5,4.4v3.9
		c0,1.4,0.5,2.2,1.5,2.5L191.5,94.3z M189,88.5l-1.5,0.1c-1,0.1-1.5,0.8-1.5,1.5c0,0.6,0.5,1.2,1.2,1.2c0.9,0,1.7-0.7,1.7-1.8V88.5z
		"/>
	<path class="st0" d="M203.4,84.9h-3.1v4.5c0,1,0.6,1.5,1.6,1.5c0.5,0,0.7,0,1-0.2l-0.3,3c-0.4,0.2-1,0.3-1.8,0.3
		c-2.7,0-4.3-1.4-4.3-3.8v-5.2h-2v-3.2h2v-2.6l3.9-1.4v4h3.9L203.4,84.9z"/>
	<path class="st0" d="M207.5,80c-0.7,0-2.1-1.4-2.1-2.1c0-0.7,1.4-2.1,2.1-2.1c0.7,0,2.1,1.4,2.1,2.1C209.7,78.6,208.2,80,207.5,80z
		 M205.6,93.8V81.7h3.9v12.1H205.6z"/>
	<path class="st0" d="M218.1,94.1c-3.7,0-6.6-2.6-6.6-6.4s2.9-6.4,6.6-6.4c3.6,0,6.6,2.6,6.6,6.4S221.7,94.1,218.1,94.1z
		 M218.1,84.7c-1.5,0-2.7,1.3-2.7,3.1c0,1.8,1.3,3.1,2.7,3.1c1.4,0,2.7-1.3,2.7-3.1C220.8,86,219.5,84.7,218.1,84.7z"/>
	<path class="st0" d="M234.2,93.8v-7.4c0-0.9-0.6-1.7-1.8-1.7c-1.2,0-1.9,0.7-1.9,1.7v7.4h-3.9V81.7h3.6v1.6h0c0.5-1.3,1.7-2,3.7-2
		c2.6,0,4.2,1.5,4.2,4.1v8.4H234.2z"/>
	<path class="st0" d="M255,78.3c-0.5-0.2-1.1-0.3-1.6-0.3c-1.4,0-2.2,0.9-2.2,2.6v1.1h3.5l-0.8,3.2h-2.7v8.9h-3.8v-8.9h-1.8v-3.2
		h1.8v-1.4c0-3.7,2.4-5.5,5.4-5.5c1.1,0,2.2,0.1,2.9,0.4L255,78.3z"/>
	<path class="st0" d="M261.8,94.1c-3.7,0-6.6-2.6-6.6-6.4s2.9-6.4,6.6-6.4c3.6,0,6.6,2.6,6.6,6.4S265.4,94.1,261.8,94.1z
		 M261.8,84.7c-1.5,0-2.7,1.3-2.7,3.1c0,1.8,1.3,3.1,2.7,3.1c1.4,0,2.7-1.3,2.7-3.1C264.5,86,263.2,84.7,261.8,84.7z"/>
	<path class="st0" d="M277.8,85.8c-0.2-0.1-0.8-0.3-1.2-0.3c-1.3,0-2.4,0.7-2.4,2.6v5.6h-3.9V81.7h3.9v2.7h0
		c0.4-1.9,1.8-2.9,3.4-2.9c0.4,0,0.8,0.1,1.1,0.2L277.8,85.8z"/>
</g>
<g>
	<path class="st0" d="M35.8,116h-3.1v4.5c0,1,0.6,1.5,1.6,1.5c0.5,0,0.7,0,1-0.2l-0.3,3c-0.4,0.2-1,0.3-1.8,0.3
		c-2.7,0-4.3-1.4-4.3-3.8V116h-2v-3.2h2v-2.6l3.9-1.4v4h3.9L35.8,116z"/>
	<path class="st0" d="M48.7,118.2l-1.7,1.8H41c0.2,1,1.5,2.1,3.6,2.1c1.3,0,2.5-0.4,3.3-0.9l-0.4,3.4c-0.9,0.5-2.3,0.8-3.8,0.8
		c-3.7,0-6.6-2.6-6.6-6.5c0-3.9,2.8-6.4,6.3-6.4c3.4,0,5.4,2.3,5.4,4.8C48.8,117.5,48.7,117.9,48.7,118.2z M43.4,115.3
		c-1.1,0-2.1,0.9-2.3,2h4.1c0-0.1,0-0.2,0-0.3C45.1,116.2,44.4,115.3,43.4,115.3z"/>
	<path class="st0" d="M58.2,117c-0.2-0.1-0.8-0.3-1.2-0.3c-1.3,0-2.4,0.7-2.4,2.6v5.6h-3.9v-12.1h3.9v2.7h0c0.4-1.9,1.8-2.9,3.4-2.9
		c0.4,0,0.8,0.1,1.1,0.2L58.2,117z"/>
	<path class="st0" d="M75.4,124.9v-7.4c0-0.9-0.4-1.7-1.7-1.7c-1.3,0-1.8,0.7-1.8,1.7v7.4h-3.9v-7.4c0-0.9-0.4-1.7-1.7-1.7
		c-1.3,0-1.8,0.7-1.8,1.7v7.4h-3.9v-12.1h3.6v1.6h0c0.5-1.3,1.7-2,3.6-2c1.7,0,3,0.7,3.6,2c0.5-1.2,1.9-2,3.7-2
		c2.7,0,4.3,1.5,4.3,4.1v8.4H75.4z"/>
	<path class="st0" d="M91.9,125.4c-2.5-0.1-4.1-1.4-4.1-4.3v-15.2h3.9v14.7c0,1,0.6,1.5,1.6,1.6L91.9,125.4z"/>
	<path class="st0" d="M96.8,111.1c-0.7,0-2.1-1.4-2.1-2.1c0-0.7,1.4-2.1,2.1-2.1s2.1,1.4,2.1,2.1C98.9,109.7,97.5,111.1,96.8,111.1z
		 M94.9,124.9v-12.1h3.9v12.1H94.9z"/>
	<path class="st0" d="M109.8,109.4c-0.5-0.2-1.1-0.3-1.6-0.3c-1.4,0-2.2,0.9-2.2,2.6v1.1h3.5l-0.8,3.2H106v8.9h-3.8V116h-1.8v-3.2
		h1.8v-1.4c0-3.7,2.4-5.5,5.4-5.5c1.1,0,2.2,0.1,2.9,0.4L109.8,109.4z"/>
	<path class="st0" d="M121.6,118.2l-1.7,1.8H114c0.2,1,1.5,2.1,3.6,2.1c1.3,0,2.5-0.4,3.3-0.9l-0.4,3.4c-0.9,0.5-2.3,0.8-3.8,0.8
		c-3.7,0-6.6-2.6-6.6-6.5c0-3.9,2.8-6.4,6.3-6.4c3.4,0,5.4,2.3,5.4,4.8C121.7,117.5,121.7,117.9,121.6,118.2z M116.3,115.3
		c-1.1,0-2.1,0.9-2.3,2h4.1c0-0.1,0-0.2,0-0.3C118.1,116.2,117.4,115.3,116.3,115.3z"/>
	<path class="st0" d="M131.7,111.1c-0.7,0-2.1-1.4-2.1-2.1c0-0.7,1.4-2.1,2.1-2.1s2.1,1.4,2.1,2.1
		C133.8,109.7,132.4,111.1,131.7,111.1z M129.7,124.9v-12.1h3.9v12.1H129.7z"/>
	<path class="st0" d="M143.9,124.9v-7.4c0-0.9-0.6-1.7-1.8-1.7c-1.2,0-1.9,0.7-1.9,1.7v7.4h-3.9v-12.1h3.6v1.6h0
		c0.5-1.3,1.7-2,3.7-2c2.6,0,4.2,1.5,4.2,4.1v8.4H143.9z"/>
	<path class="st0" d="M154.1,125.1c-1.7,0-2.9-0.3-3.8-0.9l-0.3-3.5c1.1,0.7,2.5,1.3,3.8,1.3c0.7,0,1.2-0.4,1.2-0.8
		c0-0.5-0.4-0.7-1.1-0.9c-2.3-0.7-3.7-1.8-3.7-3.9c0-2.4,1.9-3.9,4.5-3.9c1.5,0,3,0.4,3.6,0.7l-0.7,2.9c-0.6-0.3-1.5-0.7-2.5-0.7
		c-0.6,0-1.1,0.3-1.1,0.8c0,0.5,0.3,0.7,1.1,0.9c2.7,0.7,3.8,2.1,3.8,4.1C158.9,123.3,157.4,125.1,154.1,125.1z"/>
	<path class="st0" d="M168.7,124.9v-1.7h0c-0.5,1.3-1.8,2-3.7,2c-2.6,0-4.2-1.5-4.2-4v-8.4h3.9v7.4c0,0.9,0.6,1.7,1.8,1.7
		c1.2,0,1.9-0.8,1.9-1.7v-7.3h3.9v12.1H168.7z"/>
	<path class="st0" d="M182.3,117c-0.2-0.1-0.8-0.3-1.2-0.3c-1.3,0-2.4,0.7-2.4,2.6v5.6h-3.9v-12.1h3.9v2.7h0
		c0.4-1.9,1.8-2.9,3.4-2.9c0.4,0,0.8,0.1,1.1,0.2L182.3,117z"/>
	<path class="st0" d="M193,125.4c-0.7-0.2-1.5-0.7-1.9-1.6c-0.5,1-1.7,1.5-3.1,1.5c-2.1,0-4-1.5-4-4c0-2.2,1.7-3.7,4.1-3.9l2.4-0.2
		v-0.4c0-0.7-0.6-1.2-1.9-1.2c-1.2,0-2.5,0.4-3.4,0.9l-0.7-3c1-0.6,2.6-1.1,4.2-1.1c3.2,0,5.5,1.5,5.5,4.4v3.9
		c0,1.4,0.5,2.2,1.5,2.5L193,125.4z M190.5,119.6l-1.5,0.1c-1,0.1-1.5,0.8-1.5,1.5c0,0.6,0.5,1.2,1.2,1.2c0.9,0,1.7-0.7,1.7-1.8
		V119.6z"/>
	<path class="st0" d="M204.7,124.9v-7.4c0-0.9-0.6-1.7-1.8-1.7c-1.2,0-1.9,0.7-1.9,1.7v7.4h-3.9v-12.1h3.6v1.6h0
		c0.5-1.3,1.7-2,3.7-2c2.6,0,4.2,1.5,4.2,4.1v8.4H204.7z"/>
	<path class="st0" d="M220.2,116.7c-0.8-0.5-1.6-0.8-2.6-0.8c-1.7,0-3.1,1.2-3.1,3c0,1.7,1.4,3,3.1,3c1,0,1.8-0.2,2.6-0.7l-0.3,3.3
		c-0.8,0.4-1.8,0.6-3,0.6c-3.4,0-6.5-2.4-6.5-6.3c0-3.9,3.2-6.3,6.5-6.3c1.6,0,2.9,0.3,4,0.9L220.2,116.7z"/>
	<path class="st0" d="M233.7,118.2l-1.7,1.8h-5.9c0.2,1,1.5,2.1,3.6,2.1c1.3,0,2.5-0.4,3.3-0.9l-0.4,3.4c-0.9,0.5-2.3,0.8-3.8,0.8
		c-3.7,0-6.6-2.6-6.6-6.5c0-3.9,2.8-6.4,6.3-6.4c3.4,0,5.4,2.3,5.4,4.8C233.8,117.5,233.8,117.9,233.7,118.2z M228.4,115.3
		c-1.1,0-2.1,0.9-2.3,2h4.1c0-0.1,0-0.2,0-0.3C230.2,116.2,229.4,115.3,228.4,115.3z"/>
	<path class="st0" d="M240.5,120v-2.4h26.7v2.4H240.5z"/>
</g>
<g>
	<path class="st0" d="M31.6,156.3c-1.7,0-2.9-0.3-3.8-0.9l-0.3-3.5c1.1,0.7,2.5,1.3,3.8,1.3c0.7,0,1.2-0.4,1.2-0.8
		c0-0.5-0.4-0.7-1.1-0.9c-2.3-0.7-3.7-1.8-3.7-3.9c0-2.4,1.9-3.9,4.5-3.9c1.5,0,3,0.4,3.6,0.7l-0.7,2.9c-0.6-0.3-1.5-0.7-2.5-0.7
		c-0.6,0-1.1,0.3-1.1,0.8c0,0.5,0.3,0.7,1.1,0.9c2.7,0.7,3.8,2.1,3.8,4.1C36.4,154.4,34.9,156.3,31.6,156.3z"/>
	<path class="st0" d="M46.8,156.5c-0.7-0.2-1.5-0.7-1.9-1.6c-0.5,1-1.7,1.5-3.1,1.5c-2.1,0-4-1.5-4-4c0-2.2,1.7-3.7,4.1-3.9l2.4-0.2
		v-0.4c0-0.7-0.6-1.2-1.9-1.2c-1.2,0-2.5,0.4-3.4,0.9l-0.7-3c1-0.6,2.6-1.1,4.2-1.1c3.2,0,5.5,1.5,5.5,4.4v3.9
		c0,1.4,0.5,2.2,1.5,2.5L46.8,156.5z M44.3,150.7l-1.5,0.1c-1,0.1-1.5,0.8-1.5,1.5c0,0.6,0.5,1.2,1.2,1.2c0.9,0,1.7-0.7,1.7-1.8
		V150.7z"/>
	<path class="st0" d="M57.6,154.8c-1.8,4.9-3.8,6.6-6,7.5l-2.4-2.4c1.9-0.7,3.4-2.2,4.4-4.7l-4.3-11.3h3.8l1.8,4.7
		c0.3,0.7,0.5,1.5,0.7,2.4h0.1c0.2-0.8,0.5-1.7,0.8-2.4l1.8-4.7h3.6L57.6,154.8z"/>
	<path class="st0" d="M66.6,156.3c-1.7,0-2.9-0.3-3.8-0.9l-0.3-3.5c1.1,0.7,2.5,1.3,3.8,1.3c0.7,0,1.2-0.4,1.2-0.8
		c0-0.5-0.4-0.7-1.1-0.9c-2.3-0.7-3.7-1.8-3.7-3.9c0-2.4,1.9-3.9,4.5-3.9c1.5,0,3,0.4,3.6,0.7l-0.7,2.9c-0.6-0.3-1.5-0.7-2.5-0.7
		c-0.6,0-1.1,0.3-1.1,0.8c0,0.5,0.3,0.7,1.1,0.9c2.7,0.7,3.8,2.1,3.8,4.1C71.4,154.4,69.9,156.3,66.6,156.3z"/>
	<path class="st0" d="M86.8,148.1c-0.2-0.1-0.8-0.3-1.2-0.3c-1.3,0-2.4,0.7-2.4,2.6v5.6h-3.9v-12.1h3.9v2.7h0
		c0.4-1.9,1.8-2.9,3.4-2.9c0.4,0,0.8,0.1,1.1,0.2L86.8,148.1z"/>
	<path class="st0" d="M99.9,149.3l-1.7,1.8h-5.9c0.2,1,1.5,2.1,3.6,2.1c1.3,0,2.5-0.4,3.3-0.9l-0.4,3.4c-0.9,0.5-2.3,0.8-3.8,0.8
		c-3.7,0-6.6-2.6-6.6-6.5c0-3.9,2.8-6.4,6.3-6.4c3.4,0,5.4,2.3,5.4,4.8C100,148.6,99.9,149,99.9,149.3z M94.6,146.4
		c-1.1,0-2.1,0.9-2.3,2h4.1c0-0.1,0-0.2,0-0.3C96.3,147.3,95.6,146.4,94.6,146.4z"/>
	<path class="st0" d="M108.1,156.1h-2.9l-4.6-12.2h3.8l1.7,4.6c0.2,0.6,0.5,1.5,0.7,2.3h0.1c0.2-0.8,0.5-1.7,0.7-2.3l1.7-4.6h3.6
		L108.1,156.1z"/>
	<path class="st0" d="M116.2,142.3c-0.7,0-2.1-1.4-2.1-2.1c0-0.7,1.4-2.1,2.1-2.1s2.1,1.4,2.1,2.1
		C118.3,140.8,116.9,142.3,116.2,142.3z M114.2,156v-12.1h3.9V156H114.2z"/>
	<path class="st0" d="M131.7,149.3L130,151h-5.9c0.2,1,1.5,2.1,3.6,2.1c1.3,0,2.5-0.4,3.3-0.9l-0.4,3.4c-0.9,0.5-2.3,0.8-3.8,0.8
		c-3.7,0-6.6-2.6-6.6-6.5c0-3.9,2.8-6.4,6.3-6.4c3.4,0,5.4,2.3,5.4,4.8C131.8,148.6,131.8,149,131.7,149.3z M126.4,146.4
		c-1.1,0-2.1,0.9-2.3,2h4.1c0-0.1,0-0.2,0-0.3C128.2,147.3,127.5,146.4,126.4,146.4z"/>
	<path class="st0" d="M146.6,156.1h-2.7l-1.6-4.8c-0.2-0.7-0.5-1.6-0.7-2.5h-0.1c-0.2,0.9-0.4,1.8-0.7,2.5l-1.6,4.8h-2.6l-4.2-12.2
		h3.6l1.5,4.6c0.2,0.7,0.5,1.5,0.6,2.3h0.1c0.1-0.7,0.3-1.6,0.6-2.3l1.5-4.6h3l1.5,4.6c0.2,0.7,0.4,1.6,0.6,2.3h0.1
		c0.2-0.8,0.4-1.6,0.6-2.3l1.5-4.6h3.3L146.6,156.1z"/>
	<path class="st0" d="M155.8,156.3c-1.7,0-2.9-0.3-3.8-0.9l-0.3-3.5c1.1,0.7,2.5,1.3,3.8,1.3c0.7,0,1.2-0.4,1.2-0.8
		c0-0.5-0.4-0.7-1.1-0.9c-2.3-0.7-3.7-1.8-3.7-3.9c0-2.4,1.9-3.9,4.5-3.9c1.5,0,3,0.4,3.6,0.7l-0.7,2.9c-0.6-0.3-1.5-0.7-2.5-0.7
		c-0.6,0-1.1,0.3-1.1,0.8c0,0.5,0.3,0.7,1.1,0.9c2.7,0.7,3.8,2.1,3.8,4.1C160.6,154.4,159.1,156.3,155.8,156.3z"/>
	<path class="st0" d="M164.4,156.4c-0.7,0-2.2-1.5-2.2-2.2c0-0.7,1.5-2.2,2.2-2.2c0.7,0,2.2,1.5,2.2,2.2
		C166.6,154.9,165.1,156.4,164.4,156.4z"/>
	<path class="st0" d="M177.5,147.8c-0.8-0.5-1.6-0.8-2.6-0.8c-1.7,0-3.1,1.2-3.1,3c0,1.7,1.4,3,3.1,3c1,0,1.8-0.2,2.6-0.7l-0.3,3.3
		c-0.8,0.4-1.8,0.6-3,0.6c-3.4,0-6.5-2.4-6.5-6.3c0-3.9,3.2-6.3,6.5-6.3c1.6,0,2.9,0.3,4,0.9L177.5,147.8z"/>
	<path class="st0" d="M185.9,156.4c-3.7,0-6.6-2.6-6.6-6.4s2.9-6.4,6.6-6.4c3.6,0,6.6,2.6,6.6,6.4S189.6,156.4,185.9,156.4z
		 M185.9,146.9c-1.5,0-2.7,1.3-2.7,3.1c0,1.8,1.3,3.1,2.7,3.1c1.4,0,2.7-1.3,2.7-3.1C188.7,148.2,187.4,146.9,185.9,146.9z"/>
	<path class="st0" d="M209.4,156v-7.4c0-0.9-0.4-1.7-1.7-1.7c-1.3,0-1.8,0.7-1.8,1.7v7.4h-3.9v-7.4c0-0.9-0.4-1.7-1.7-1.7
		c-1.3,0-1.8,0.7-1.8,1.7v7.4h-3.9v-12.1h3.6v1.6h0c0.5-1.3,1.7-2,3.6-2c1.7,0,3,0.7,3.6,2c0.5-1.2,1.9-2,3.7-2
		c2.7,0,4.3,1.5,4.3,4.1v8.4H209.4z"/>
</g>
</svg>
