<?xml version="1.0" encoding="utf-8"?>
<!-- Generator: Adobe Illustrator 22.1.0, SVG Export Plug-In . SVG Version: 6.00 Build 0)  -->
<svg version="1.1" id="Layer_1" xmlns="http://www.w3.org/2000/svg" xmlns:xlink="http://www.w3.org/1999/xlink" x="0px" y="0px"
	 viewBox="0 0 300 600" style="enable-background:new 0 0 300 600;" xml:space="preserve">
<style type="text/css">
	.st0{fill:#F9E038;}
</style>
<g>
	<path class="st0" d="M38.9,62.6l-1.4-3.8h-5.4l-1.4,3.8h-3.9l6.7-17.2h2.9L43,62.6H38.9z M35.3,52.4c-0.2-0.5-0.4-1-0.5-1.6h-0.1
		c-0.1,0.6-0.3,1.1-0.5,1.6l-1.1,3.1h3.3L35.3,52.4z"/>
	<path class="st0" d="M52.1,62.6v-7.4c0-0.9-0.6-1.7-1.8-1.7c-1.2,0-1.9,0.7-1.9,1.7v7.4h-3.9V50.6h3.6v1.6h0c0.5-1.3,1.7-2,3.7-2
		c2.6,0,4.2,1.5,4.2,4.1v8.4H52.1z"/>
	<path class="st0" d="M67.5,62.6v-1.5h0c-0.7,1.2-2.1,1.8-3.7,1.8c-3,0-5.8-2.2-5.8-6.4c0-3.9,2.8-6.4,6.1-6.4
		c1.3,0,2.6,0.4,3.1,0.8v-7.4H71v19H67.5z M67.1,54.7c-0.4-0.5-1.2-1.1-2.4-1.1c-1.7,0-2.9,1.3-2.9,3.1c0,1.7,1.2,3.1,2.9,3.1
		c1.1,0,1.9-0.6,2.4-1.3V54.7z"/>
	<path class="st0" d="M87.4,49v13.6h-4.1V49h-4.9v-3.4h13.9V49H87.4z"/>
	<path class="st0" d="M94,62.6v-17h4.1v17H94z"/>
	<path class="st0" d="M111.9,62.6l-1.4-3.8h-5.4l-1.4,3.8h-3.9l6.7-17.2h2.9l6.7,17.2H111.9z M108.3,52.4c-0.2-0.5-0.4-1-0.5-1.6
		h-0.1c-0.1,0.6-0.3,1.1-0.5,1.6l-1.1,3.1h3.3L108.3,52.4z"/>
	<path class="st0" d="M129.2,62.6l-1.4-3.8h-5.4l-1.4,3.8h-3.9l6.7-17.2h2.9l6.7,17.2H129.2z M125.6,52.4c-0.2-0.5-0.4-1-0.5-1.6
		H125c-0.1,0.6-0.3,1.1-0.5,1.6l-1.1,3.1h3.3L125.6,52.4z"/>
	<path class="st0" d="M141,62.6v-17h4.1v13.6h6.4v3.4H141z"/>
	<path class="st0" d="M155,48.9c-0.7,0-2.1-1.4-2.1-2.1c0-0.7,1.4-2.1,2.1-2.1c0.7,0,2.1,1.4,2.1,2.1
		C157.1,47.5,155.7,48.9,155,48.9z M153,62.6V50.6h3.9v12.1H153z"/>
	<path class="st0" d="M167.9,47.1c-0.5-0.2-1.1-0.3-1.6-0.3c-1.4,0-2.2,0.9-2.2,2.6v1.1h3.5l-0.8,3.2h-2.7v8.9h-3.8v-8.9h-1.8v-3.2
		h1.8v-1.4c0-3.7,2.4-5.5,5.4-5.5c1.1,0,2.2,0.1,2.9,0.4L167.9,47.1z"/>
	<path class="st0" d="M179.8,55.9l-1.7,1.8h-5.9c0.2,1,1.5,2.1,3.6,2.1c1.3,0,2.5-0.4,3.3-0.9l-0.4,3.4c-0.9,0.5-2.3,0.8-3.8,0.8
		c-3.7,0-6.6-2.6-6.6-6.5c0-3.9,2.8-6.4,6.3-6.4c3.4,0,5.4,2.3,5.4,4.8C179.9,55.3,179.8,55.7,179.8,55.9z M174.5,53.1
		c-1.1,0-2.1,0.9-2.3,2h4.1c0-0.1,0-0.2,0-0.3C176.2,54,175.5,53.1,174.5,53.1z"/>
</g>
<g>
	<path class="st0" d="M41,93.9h-2.7l-1.6-4.8c-0.2-0.7-0.5-1.6-0.7-2.5h-0.1c-0.2,0.9-0.4,1.8-0.7,2.5l-1.6,4.8h-2.6l-4.2-12.2h3.6
		l1.5,4.6c0.2,0.7,0.5,1.5,0.6,2.3h0.1c0.1-0.7,0.3-1.6,0.6-2.3l1.5-4.6h3l1.5,4.6c0.2,0.7,0.4,1.6,0.6,2.3h0.1
		c0.2-0.8,0.4-1.6,0.6-2.3l1.5-4.6h3.3L41,93.9z"/>
	<path class="st0" d="M55.1,94.3c-0.7-0.2-1.5-0.7-1.9-1.6c-0.5,1-1.7,1.5-3.1,1.5c-2.1,0-4-1.5-4-4c0-2.2,1.7-3.7,4.1-3.9l2.4-0.2
		v-0.4c0-0.7-0.6-1.2-1.9-1.2c-1.2,0-2.5,0.4-3.4,0.9l-0.7-3c1-0.6,2.6-1.1,4.2-1.1c3.2,0,5.5,1.5,5.5,4.4v3.9
		c0,1.4,0.5,2.2,1.5,2.5L55.1,94.3z M52.6,88.5l-1.5,0.1c-1,0.1-1.5,0.8-1.5,1.5c0,0.6,0.5,1.2,1.2,1.2c0.9,0,1.7-0.7,1.7-1.8V88.5z
		"/>
	<path class="st0" d="M63.1,94c-1.7,0-2.9-0.3-3.8-0.9l-0.3-3.5c1.1,0.7,2.5,1.3,3.8,1.3c0.7,0,1.2-0.4,1.2-0.8
		c0-0.5-0.4-0.7-1.1-0.9c-2.3-0.7-3.7-1.8-3.7-3.9c0-2.4,1.9-3.9,4.5-3.9c1.5,0,3,0.4,3.6,0.7L66.5,85c-0.6-0.3-1.5-0.7-2.5-0.7
		c-0.6,0-1.1,0.3-1.1,0.8c0,0.5,0.3,0.7,1.1,0.9c2.7,0.7,3.8,2.1,3.8,4.1C67.8,92.2,66.3,94,63.1,94z"/>
	<path class="st0" d="M83.2,85.8c-0.2-0.1-0.8-0.3-1.2-0.3c-1.3,0-2.4,0.7-2.4,2.6v5.6h-3.9V81.7h3.9v2.7h0c0.4-1.9,1.8-2.9,3.4-2.9
		c0.4,0,0.8,0.1,1.1,0.2L83.2,85.8z"/>
	<path class="st0" d="M93.9,94.3c-0.7-0.2-1.5-0.7-1.9-1.6c-0.5,1-1.7,1.5-3.1,1.5c-2.1,0-4-1.5-4-4c0-2.2,1.7-3.7,4.1-3.9l2.4-0.2
		v-0.4c0-0.7-0.6-1.2-1.9-1.2c-1.2,0-2.5,0.4-3.4,0.9l-0.7-3c1-0.6,2.6-1.1,4.2-1.1c3.2,0,5.5,1.5,5.5,4.4v3.9
		c0,1.4,0.5,2.2,1.5,2.5L93.9,94.3z M91.4,88.5L90,88.6c-1,0.1-1.5,0.8-1.5,1.5c0,0.6,0.5,1.2,1.2,1.2c0.9,0,1.7-0.7,1.7-1.8V88.5z"
		/>
	<path class="st0" d="M105.8,84.9h-3.1v4.5c0,1,0.6,1.5,1.6,1.5c0.5,0,0.7,0,1-0.2l-0.3,3c-0.4,0.2-1,0.3-1.8,0.3
		c-2.7,0-4.3-1.4-4.3-3.8v-5.2h-2v-3.2h2v-2.6l3.9-1.4v4h3.9L105.8,84.9z"/>
	<path class="st0" d="M118.7,87l-1.7,1.8h-5.9c0.2,1,1.5,2.1,3.6,2.1c1.3,0,2.5-0.4,3.3-0.9l-0.4,3.4c-0.9,0.5-2.3,0.8-3.8,0.8
		c-3.7,0-6.6-2.6-6.6-6.5c0-3.9,2.8-6.4,6.3-6.4c3.4,0,5.4,2.3,5.4,4.8C118.8,86.4,118.8,86.8,118.7,87z M113.4,84.2
		c-1.1,0-2.1,0.9-2.3,2h4.1c0-0.1,0-0.2,0-0.3C115.2,85.1,114.5,84.2,113.4,84.2z"/>
	<path class="st0" d="M129.8,93.8v-1.5h0c-0.7,1.2-2.1,1.8-3.7,1.8c-3,0-5.8-2.2-5.8-6.4c0-3.9,2.8-6.4,6.1-6.4
		c1.3,0,2.6,0.4,3.1,0.8v-7.4h3.8v19H129.8z M129.4,85.8c-0.4-0.5-1.2-1.1-2.4-1.1c-1.7,0-2.9,1.3-2.9,3.1c0,1.7,1.2,3.1,2.9,3.1
		c1.1,0,1.9-0.6,2.4-1.3V85.8z"/>
	<path class="st0" d="M152.9,93.8l-1.4-3.8h-5.4l-1.4,3.8h-3.9l6.7-17.2h2.9l6.7,17.2H152.9z M149.3,83.5c-0.2-0.5-0.4-1-0.5-1.6
		h-0.1c-0.1,0.6-0.3,1.1-0.5,1.6l-1.1,3.1h3.3L149.3,83.5z"/>
	<path class="st0" d="M164.2,87.9v3.4H161v-3.4h-3.5v-3h3.5v-3.4h3.3v3.4h3.5v3H164.2z"/>
	<path class="st0" d="M176.1,87.9v3.4h-3.3v-3.4h-3.5v-3h3.5v-3.4h3.3v3.4h3.5v3H176.1z"/>
	<path class="st0" d="M193.7,94.1c-2.6,0-4.6-0.9-5.8-1.8V74.8h3.8v7.3c0.5-0.4,1.8-0.8,3-0.8c3.3,0,6.1,2.4,6.1,6.2
		C200.7,91.2,198.4,94.1,193.7,94.1z M194,84.7c-1.1,0-2,0.5-2.3,0.9v4.6c0.4,0.3,1.2,0.6,2,0.6c2,0,3.3-1.4,3.3-3.1
		C196.9,86.1,195.7,84.7,194,84.7z"/>
	<path class="st0" d="M209.5,92.6c-1.8,4.9-3.8,6.6-6,7.5l-2.4-2.4c1.9-0.7,3.4-2.2,4.4-4.7l-4.3-11.3h3.8l1.8,4.7
		c0.3,0.7,0.5,1.5,0.7,2.4h0.1c0.2-0.8,0.5-1.7,0.8-2.4l1.8-4.7h3.6L209.5,92.6z"/>
</g>
<g>
	<path class="st0" d="M38.9,124.9l-1.4-3.8h-5.4l-1.4,3.8h-3.9l6.7-17.2h2.9l6.7,17.2H38.9z M35.3,114.7c-0.2-0.5-0.4-1-0.5-1.6
		h-0.1c-0.1,0.6-0.3,1.1-0.5,1.6l-1.1,3.1h3.3L35.3,114.7z"/>
	<path class="st0" d="M47,125.2c-0.7,0-2.2-1.5-2.2-2.2c0-0.7,1.5-2.2,2.2-2.2s2.2,1.5,2.2,2.2C49.2,123.8,47.7,125.2,47,125.2z"/>
	<path class="st0" d="M67.8,124.9l-0.6-6.3c-0.1-0.9-0.2-2.1-0.2-3.1H67c-0.4,1.1-1,2.2-1.4,3.2l-3.2,6.3h-1.7l-3.3-6.3
		c-0.5-1-1-2.1-1.4-3.2h-0.1c0,1.1-0.1,2.2-0.1,3.1l-0.5,6.3h-3.8l1.5-17h3.4L60,115c0.5,1,1.3,2.5,1.7,3.6h0
		c0.4-1.1,1.1-2.5,1.7-3.6l3.7-7.1h3.2l1.5,17H67.8z"/>
	<path class="st0" d="M76.3,125.2c-0.7,0-2.2-1.5-2.2-2.2c0-0.7,1.5-2.2,2.2-2.2s2.2,1.5,2.2,2.2C78.5,123.8,77,125.2,76.3,125.2z"
		/>
	<path class="st0" d="M93,124.9h-6.3v-17h5.6c2.6,0,5,1.7,5,4.5c0,1-0.5,2.3-1.4,2.8c1.5,0.5,3,2.2,3,4.4
		C98.8,122.9,96.2,124.9,93,124.9z M91.6,110.9h-1.2v3.5h1.2c1,0,1.9-0.5,1.9-1.7C93.5,111.4,92.6,110.9,91.6,110.9z M92.3,117.4
		h-1.9v4.5h1.9c1.3,0,2.5-0.7,2.5-2.2C94.8,118.1,93.6,117.4,92.3,117.4z"/>
	<path class="st0" d="M111.9,118.2l-1.7,1.8h-5.9c0.2,1,1.5,2.1,3.6,2.1c1.3,0,2.5-0.4,3.3-0.9l-0.4,3.4c-0.9,0.5-2.3,0.8-3.8,0.8
		c-3.7,0-6.6-2.6-6.6-6.5c0-3.9,2.8-6.4,6.3-6.4c3.4,0,5.4,2.3,5.4,4.8C112.1,117.5,112,117.9,111.9,118.2z M106.6,115.3
		c-1.1,0-2.1,0.9-2.3,2h4.1c0-0.1,0-0.2,0-0.3C108.4,116.2,107.7,115.3,106.6,115.3z"/>
	<path class="st0" d="M117.8,125.1c-1.7,0-2.9-0.3-3.8-0.9l-0.3-3.5c1.1,0.7,2.5,1.3,3.8,1.3c0.7,0,1.2-0.4,1.2-0.8
		c0-0.5-0.4-0.7-1.1-0.9c-2.3-0.7-3.7-1.8-3.7-3.9c0-2.4,1.9-3.9,4.5-3.9c1.5,0,3,0.4,3.6,0.7l-0.7,2.9c-0.6-0.3-1.5-0.7-2.5-0.7
		c-0.6,0-1.1,0.3-1.1,0.8c0,0.5,0.3,0.7,1.1,0.9c2.7,0.7,3.8,2.1,3.8,4.1C122.6,123.3,121.1,125.1,117.8,125.1z"/>
	<path class="st0" d="M132.4,116h-3.1v4.5c0,1,0.6,1.5,1.6,1.5c0.5,0,0.7,0,1-0.2l-0.3,3c-0.4,0.2-1,0.3-1.8,0.3
		c-2.7,0-4.3-1.4-4.3-3.8V116h-2v-3.2h2v-2.6l3.9-1.4v4h3.9L132.4,116z"/>
	<path class="st0" d="M148.9,109.4c-0.5-0.2-1.1-0.3-1.6-0.3c-1.4,0-2.2,0.9-2.2,2.6v1.1h3.5l-0.8,3.2h-2.7v8.9h-3.8V116h-1.8v-3.2
		h1.8v-1.4c0-3.7,2.4-5.5,5.4-5.5c1.1,0,2.2,0.1,2.9,0.4L148.9,109.4z"/>
	<path class="st0" d="M155.7,125.2c-3.7,0-6.6-2.6-6.6-6.4s2.9-6.4,6.6-6.4c3.6,0,6.6,2.6,6.6,6.4S159.3,125.2,155.7,125.2z
		 M155.7,115.8c-1.5,0-2.7,1.3-2.7,3.1c0,1.8,1.3,3.1,2.7,3.1c1.4,0,2.7-1.3,2.7-3.1C158.4,117.1,157.1,115.8,155.7,115.8z"/>
	<path class="st0" d="M171.7,117c-0.2-0.1-0.8-0.3-1.2-0.3c-1.3,0-2.4,0.7-2.4,2.6v5.6h-3.9v-12.1h3.9v2.7h0
		c0.4-1.9,1.8-2.9,3.4-2.9c0.4,0,0.8,0.1,1.1,0.2L171.7,117z"/>
</g>
<g>
	<path class="st0" d="M36.1,140.5c-0.5-0.2-1.1-0.3-1.6-0.3c-1.4,0-2.2,0.9-2.2,2.6v1.1h3.5l-0.8,3.2h-2.7v8.9h-3.8v-8.9h-1.8v-3.2
		h1.8v-1.4c0-3.7,2.4-5.5,5.4-5.5c1.1,0,2.2,0.1,2.9,0.4L36.1,140.5z"/>
	<path class="st0" d="M39.5,142.3c-0.7,0-2.1-1.4-2.1-2.1c0-0.7,1.4-2.1,2.1-2.1s2.1,1.4,2.1,2.1C41.6,140.8,40.2,142.3,39.5,142.3z
		 M37.5,156v-12.1h3.9V156H37.5z"/>
	<path class="st0" d="M51.7,156v-7.4c0-0.9-0.6-1.7-1.8-1.7c-1.2,0-1.9,0.7-1.9,1.7v7.4H44v-12.1h3.6v1.6h0c0.5-1.3,1.7-2,3.7-2
		c2.6,0,4.2,1.5,4.2,4.1v8.4H51.7z"/>
	<path class="st0" d="M66.5,156.5c-0.7-0.2-1.5-0.7-1.9-1.6c-0.5,1-1.7,1.5-3.1,1.5c-2.1,0-4-1.5-4-4c0-2.2,1.7-3.7,4.1-3.9l2.4-0.2
		v-0.4c0-0.7-0.6-1.2-1.9-1.2c-1.2,0-2.5,0.4-3.4,0.9l-0.7-3c1-0.6,2.6-1.1,4.2-1.1c3.2,0,5.5,1.5,5.5,4.4v3.9
		c0,1.4,0.5,2.2,1.5,2.5L66.5,156.5z M64,150.7l-1.5,0.1c-1,0.1-1.5,0.8-1.5,1.5c0,0.6,0.5,1.2,1.2,1.2c0.9,0,1.7-0.7,1.7-1.8V150.7
		z"/>
	<path class="st0" d="M78.2,156v-7.4c0-0.9-0.6-1.7-1.8-1.7c-1.2,0-1.9,0.7-1.9,1.7v7.4h-3.9v-12.1h3.6v1.6h0c0.5-1.3,1.7-2,3.7-2
		c2.6,0,4.2,1.5,4.2,4.1v8.4H78.2z"/>
	<path class="st0" d="M93.7,147.8c-0.8-0.5-1.6-0.8-2.6-0.8c-1.7,0-3.1,1.2-3.1,3c0,1.7,1.4,3,3.1,3c1,0,1.8-0.2,2.6-0.7l-0.3,3.3
		c-0.8,0.4-1.8,0.6-3,0.6c-3.4,0-6.5-2.4-6.5-6.3c0-3.9,3.2-6.3,6.5-6.3c1.6,0,2.9,0.3,4,0.9L93.7,147.8z"/>
	<path class="st0" d="M98.4,142.3c-0.7,0-2.1-1.4-2.1-2.1c0-0.7,1.4-2.1,2.1-2.1s2.1,1.4,2.1,2.1C100.5,140.8,99.1,142.3,98.4,142.3
		z M96.4,156v-12.1h3.9V156H96.4z"/>
	<path class="st0" d="M111.4,156.5c-0.7-0.2-1.5-0.7-1.9-1.6c-0.5,1-1.7,1.5-3.1,1.5c-2.1,0-4-1.5-4-4c0-2.2,1.7-3.7,4.1-3.9
		l2.4-0.2v-0.4c0-0.7-0.6-1.2-1.9-1.2c-1.2,0-2.5,0.4-3.4,0.9l-0.7-3c1-0.6,2.6-1.1,4.2-1.1c3.2,0,5.5,1.5,5.5,4.4v3.9
		c0,1.4,0.5,2.2,1.5,2.5L111.4,156.5z M108.9,150.7l-1.5,0.1c-1,0.1-1.5,0.8-1.5,1.5c0,0.6,0.5,1.2,1.2,1.2c0.9,0,1.7-0.7,1.7-1.8
		V150.7z"/>
	<path class="st0" d="M119.5,156.5c-2.5-0.1-4.1-1.4-4.1-4.3V137h3.9v14.7c0,1,0.6,1.5,1.6,1.6L119.5,156.5z"/>
	<path class="st0" d="M132.5,156.3c-1.7,0-2.9-0.3-3.8-0.9l-0.3-3.5c1.1,0.7,2.5,1.3,3.8,1.3c0.7,0,1.2-0.4,1.2-0.8
		c0-0.5-0.4-0.7-1.1-0.9c-2.3-0.7-3.7-1.8-3.7-3.9c0-2.4,1.9-3.9,4.5-3.9c1.5,0,3,0.4,3.6,0.7l-0.7,2.9c-0.6-0.3-1.5-0.7-2.5-0.7
		c-0.6,0-1.1,0.3-1.1,0.8c0,0.5,0.3,0.7,1.1,0.9c2.7,0.7,3.8,2.1,3.8,4.1C137.2,154.4,135.7,156.3,132.5,156.3z"/>
	<path class="st0" d="M147,147.1h-3.1v4.5c0,1,0.6,1.5,1.6,1.5c0.5,0,0.7,0,1-0.2l-0.3,3c-0.4,0.2-1,0.3-1.8,0.3
		c-2.7,0-4.3-1.4-4.3-3.8v-5.2h-2v-3.2h2v-2.6l3.9-1.4v4h3.9L147,147.1z"/>
	<path class="st0" d="M156.6,148.1c-0.2-0.1-0.8-0.3-1.2-0.3c-1.3,0-2.4,0.7-2.4,2.6v5.6h-3.9v-12.1h3.9v2.7h0
		c0.4-1.9,1.8-2.9,3.4-2.9c0.4,0,0.8,0.1,1.1,0.2L156.6,148.1z"/>
	<path class="st0" d="M169.7,149.3L168,151h-5.9c0.2,1,1.5,2.1,3.6,2.1c1.3,0,2.5-0.4,3.3-0.9l-0.4,3.4c-0.9,0.5-2.3,0.8-3.8,0.8
		c-3.7,0-6.6-2.6-6.6-6.5c0-3.9,2.8-6.4,6.3-6.4c3.4,0,5.4,2.3,5.4,4.8C169.8,148.6,169.8,149,169.7,149.3z M164.4,146.4
		c-1.1,0-2.1,0.9-2.3,2h4.1c0-0.1,0-0.2,0-0.3C166.2,147.3,165.4,146.4,164.4,146.4z"/>
	<path class="st0" d="M179.4,156v-7.4c0-0.9-0.6-1.7-1.8-1.7c-1.2,0-1.9,0.7-1.9,1.7v7.4h-3.9v-12.1h3.6v1.6h0c0.5-1.3,1.7-2,3.7-2
		c2.6,0,4.2,1.5,4.2,4.1v8.4H179.4z"/>
	<path class="st0" d="M190.9,162.2c-3.5,0-5.9-2-5.9-4.5c0-1.8,1.2-2.9,2.5-3.3l-1.5-1.5c0.1-0.8,0.8-1.4,1.5-1.7
		c-0.9-0.6-1.8-1.7-1.8-3.2c0-2.6,1.8-4.3,5-4.3c0.7,0,1.3,0.1,1.8,0.2c0.5,0.1,1.1,0.2,1.7,0.2c0.7,0,1.4-0.2,1.9-0.4l0.7,3
		c-0.4,0.2-1,0.4-1.5,0.4c0.1,0.2,0.3,0.8,0.3,1.2c0,2-1.6,3.7-3.9,3.9c-0.5,0-0.8,0.1-0.8,0.5c0,0.1,0.1,0.3,0.3,0.4l1.9,0.7
		c2.4,0.9,3.7,2.1,3.7,4.3C196.6,160.3,194.4,162.2,190.9,162.2z M191.7,156.5l-1.4-0.4c-0.9,0-1.6,0.7-1.6,1.6
		c0,0.8,0.7,1.5,2.1,1.5c1.4,0,2.1-0.6,2.1-1.3C192.9,157.3,192.5,156.7,191.7,156.5z M190.6,146.4c-0.9,0-1.5,0.7-1.5,1.4
		c0,0.8,0.7,1.4,1.5,1.4c0.9,0,1.5-0.6,1.5-1.4C192.2,147,191.5,146.4,190.6,146.4z"/>
	<path class="st0" d="M206.7,147.1h-3.1v4.5c0,1,0.6,1.5,1.6,1.5c0.5,0,0.7,0,1-0.2l-0.3,3c-0.4,0.2-1,0.3-1.8,0.3
		c-2.7,0-4.3-1.4-4.3-3.8v-5.2h-2v-3.2h2v-2.6l3.9-1.4v4h3.9L206.7,147.1z"/>
	<path class="st0" d="M216.5,156v-7.4c0-0.9-0.6-1.7-1.8-1.7c-1.2,0-1.9,0.7-1.9,1.7v7.4h-3.9v-19h3.9v8h0c0.6-0.9,1.7-1.5,3.4-1.5
		c2.7,0,4.2,1.5,4.2,4.1v8.4H216.5z"/>
</g>
</svg>
