<?xml version="1.0" encoding="utf-8"?>
<!-- Generator: Adobe Illustrator 22.1.0, SVG Export Plug-In . SVG Version: 6.00 Build 0)  -->
<svg version="1.1" id="Layer_1" xmlns="http://www.w3.org/2000/svg" xmlns:xlink="http://www.w3.org/1999/xlink" x="0px" y="0px"
	 viewBox="0 0 300 600" style="enable-background:new 0 0 300 600;" xml:space="preserve">
<style type="text/css">
	.st0{fill:#F9E038;}
</style>
<g>
	<path class="st0" d="M43.6,62.7H41l-2.5-7.5c-0.4-1.1-0.7-2.3-1.1-3.8h-0.1c-0.4,1.5-0.7,2.7-1.1,3.8l-2.5,7.5h-2.6l-5.7-17.1h4
		l2.2,6.9c0.3,1,0.7,2.1,0.9,3.4h0.1c0.2-1.3,0.6-2.3,0.9-3.4l2.2-6.9h3.5l2.2,6.9c0.3,1,0.6,2.2,0.9,3.4h0.1
		c0.2-1.2,0.6-2.5,0.9-3.4l2.3-6.9h3.6L43.6,62.7z"/>
	<path class="st0" d="M58.4,62.6v-7.4c0-0.9-0.6-1.7-1.8-1.7c-1.2,0-1.9,0.7-1.9,1.7v7.4h-3.9v-19h3.9v8h0c0.6-0.9,1.7-1.5,3.4-1.5
		c2.7,0,4.2,1.5,4.2,4.1v8.4H58.4z"/>
	<path class="st0" d="M71.7,61.4c-1.8,4.9-3.8,6.6-6,7.5l-2.4-2.4c1.9-0.7,3.4-2.2,4.4-4.7l-4.3-11.3h3.8l1.8,4.7
		c0.3,0.7,0.5,1.5,0.7,2.4h0.1c0.2-0.8,0.5-1.7,0.8-2.4l1.8-4.7h3.6L71.7,61.4z"/>
	<path class="st0" d="M92.4,62.6v-1.5h0c-0.7,1.2-2.1,1.8-3.7,1.8c-3,0-5.8-2.2-5.8-6.4c0-3.9,2.8-6.4,6.1-6.4
		c1.3,0,2.6,0.4,3.1,0.8v-7.4h3.8v19H92.4z M92,54.7c-0.4-0.5-1.2-1.1-2.4-1.1c-1.7,0-2.9,1.3-2.9,3.1c0,1.7,1.2,3.1,2.9,3.1
		c1.1,0,1.9-0.6,2.4-1.3V54.7z"/>
	<path class="st0" d="M104.4,63c-3.7,0-6.6-2.6-6.6-6.4s2.9-6.4,6.6-6.4c3.6,0,6.6,2.6,6.6,6.4S108,63,104.4,63z M104.4,53.6
		c-1.5,0-2.7,1.3-2.7,3.1c0,1.8,1.3,3.1,2.7,3.1c1.4,0,2.7-1.3,2.7-3.1C107.1,54.8,105.8,53.6,104.4,53.6z"/>
	<path class="st0" d="M124,55.9l-1.7,1.8h-5.9c0.2,1,1.5,2.1,3.6,2.1c1.3,0,2.5-0.4,3.3-0.9l-0.4,3.4c-0.9,0.5-2.3,0.8-3.8,0.8
		c-3.7,0-6.6-2.6-6.6-6.5c0-3.9,2.8-6.4,6.3-6.4c3.4,0,5.4,2.3,5.4,4.8C124.1,55.3,124,55.7,124,55.9z M118.7,53.1
		c-1.1,0-2.1,0.9-2.3,2h4.1c0-0.1,0-0.2,0-0.3C120.4,54,119.7,53.1,118.7,53.1z"/>
	<path class="st0" d="M129.9,62.9c-1.7,0-2.9-0.3-3.8-0.9l-0.3-3.5c1.1,0.7,2.5,1.3,3.8,1.3c0.7,0,1.2-0.4,1.2-0.8
		c0-0.5-0.4-0.7-1.1-0.9c-2.3-0.7-3.7-1.8-3.7-3.9c0-2.4,1.9-3.9,4.5-3.9c1.5,0,3,0.4,3.6,0.7l-0.7,2.9c-0.6-0.3-1.5-0.7-2.5-0.7
		c-0.6,0-1.1,0.3-1.1,0.8c0,0.5,0.3,0.7,1.1,0.9c2.7,0.7,3.8,2.1,3.8,4.1C134.6,61,133.1,62.9,129.9,62.9z"/>
	<path class="st0" d="M150.5,49v13.6h-4.1V49h-4.9v-3.4h13.9V49H150.5z"/>
	<path class="st0" d="M157.1,62.6v-17h4.1v17H157.1z"/>
	<path class="st0" d="M175,62.6l-1.4-3.8h-5.4l-1.4,3.8h-3.9l6.7-17.2h2.9l6.7,17.2H175z M171.4,52.4c-0.2-0.5-0.4-1-0.5-1.6h-0.1
		c-0.1,0.6-0.3,1.1-0.5,1.6l-1.1,3.1h3.3L171.4,52.4z"/>
	<path class="st0" d="M192.3,62.6l-1.4-3.8h-5.4l-1.4,3.8h-3.9l6.7-17.2h2.9l6.7,17.2H192.3z M188.7,52.4c-0.2-0.5-0.4-1-0.5-1.6
		h-0.1c-0.1,0.6-0.3,1.1-0.5,1.6l-1.1,3.1h3.3L188.7,52.4z"/>
	<path class="st0" d="M204.1,62.6v-17h4.1v13.6h6.4v3.4H204.1z"/>
	<path class="st0" d="M218,48.9c-0.7,0-2.1-1.4-2.1-2.1c0-0.7,1.4-2.1,2.1-2.1c0.7,0,2.1,1.4,2.1,2.1
		C220.1,47.5,218.7,48.9,218,48.9z M216.1,62.6V50.6h3.9v12.1H216.1z"/>
	<path class="st0" d="M231,47.1c-0.5-0.2-1.1-0.3-1.6-0.3c-1.4,0-2.2,0.9-2.2,2.6v1.1h3.5l-0.8,3.2h-2.7v8.9h-3.8v-8.9h-1.8v-3.2
		h1.8v-1.4c0-3.7,2.4-5.5,5.4-5.5c1.1,0,2.2,0.1,2.9,0.4L231,47.1z"/>
	<path class="st0" d="M242.8,55.9l-1.7,1.8h-5.9c0.2,1,1.5,2.1,3.6,2.1c1.3,0,2.5-0.4,3.3-0.9l-0.4,3.4c-0.9,0.5-2.3,0.8-3.8,0.8
		c-3.7,0-6.6-2.6-6.6-6.5c0-3.9,2.8-6.4,6.3-6.4c3.4,0,5.4,2.3,5.4,4.8C242.9,55.3,242.9,55.7,242.8,55.9z M237.5,53.1
		c-1.1,0-2.1,0.9-2.3,2h4.1c0-0.1,0-0.2,0-0.3C239.3,54,238.6,53.1,237.5,53.1z"/>
</g>
<g>
	<path class="st0" d="M31.7,99.9c-3.5,0-5.9-2-5.9-4.5c0-1.8,1.2-2.9,2.5-3.3l-1.5-1.5c0.1-0.8,0.8-1.4,1.5-1.7
		c-0.9-0.6-1.8-1.7-1.8-3.2c0-2.6,1.8-4.3,5-4.3c0.7,0,1.3,0.1,1.8,0.2c0.5,0.1,1.1,0.2,1.7,0.2c0.7,0,1.4-0.2,1.9-0.4l0.7,3
		c-0.4,0.2-1,0.4-1.5,0.4c0.1,0.2,0.3,0.8,0.3,1.2c0,2-1.6,3.7-3.9,3.9c-0.5,0-0.8,0.1-0.8,0.5c0,0.1,0.1,0.3,0.3,0.4l1.9,0.7
		c2.4,0.9,3.7,2.1,3.7,4.3C37.5,98.1,35.3,99.9,31.7,99.9z M32.6,94.2l-1.4-0.4c-0.9,0-1.6,0.7-1.6,1.6c0,0.8,0.7,1.5,2.1,1.5
		c1.4,0,2.1-0.6,2.1-1.3C33.8,95,33.3,94.4,32.6,94.2z M31.5,84.1c-0.9,0-1.5,0.7-1.5,1.4c0,0.8,0.7,1.4,1.5,1.4
		c0.9,0,1.5-0.6,1.5-1.4C33.1,84.8,32.4,84.1,31.5,84.1z"/>
	<path class="st0" d="M50.1,87l-1.7,1.8h-5.9c0.2,1,1.5,2.1,3.6,2.1c1.3,0,2.5-0.4,3.3-0.9L49,93.4c-0.9,0.5-2.3,0.8-3.8,0.8
		c-3.7,0-6.6-2.6-6.6-6.5c0-3.9,2.8-6.4,6.3-6.4c3.4,0,5.4,2.3,5.4,4.8C50.2,86.4,50.2,86.8,50.1,87z M44.8,84.2
		c-1.1,0-2.1,0.9-2.3,2h4.1c0-0.1,0-0.2,0-0.3C46.6,85.1,45.9,84.2,44.8,84.2z"/>
	<path class="st0" d="M60.3,84.9h-3.1v4.5c0,1,0.6,1.5,1.6,1.5c0.5,0,0.7,0,1-0.2l-0.3,3c-0.4,0.2-1,0.3-1.8,0.3
		c-2.7,0-4.3-1.4-4.3-3.8v-5.2h-2v-3.2h2v-2.6l3.9-1.4v4h3.9L60.3,84.9z"/>
	<path class="st0" d="M70.2,84.4c-0.6,0-2.2-1.4-2.2-2.2c0-1.7,1.6-4.4,3.2-5.8l1.2,0.2c-0.9,1-1.6,2.6-1.8,3.8
		c0.7,0.1,1.8,1.3,1.8,1.9C72.4,83,70.9,84.4,70.2,84.4z M75.7,84.4c-0.6,0-2.2-1.4-2.2-2.2c0-1.7,1.6-4.4,3.2-5.8l1.2,0.2
		c-0.9,1-1.6,2.6-1.8,3.8c0.7,0.1,1.8,1.3,1.8,1.9C77.9,83,76.4,84.4,75.7,84.4z"/>
	<path class="st0" d="M88.6,84.9h-3.1v4.5c0,1,0.6,1.5,1.6,1.5c0.5,0,0.7,0,1-0.2l-0.3,3c-0.4,0.2-1,0.3-1.8,0.3
		c-2.7,0-4.3-1.4-4.3-3.8v-5.2h-2v-3.2h2v-2.6l3.9-1.4v4h3.9L88.6,84.9z"/>
	<path class="st0" d="M96.5,94.1c-3.7,0-6.6-2.6-6.6-6.4s2.9-6.4,6.6-6.4c3.6,0,6.6,2.6,6.6,6.4S100.1,94.1,96.5,94.1z M96.5,84.7
		c-1.5,0-2.7,1.3-2.7,3.1c0,1.8,1.3,3.1,2.7,3.1c1.4,0,2.7-1.3,2.7-3.1C99.2,86,98,84.7,96.5,84.7z"/>
	<path class="st0" d="M111.9,94.1c-1.3,0-2.6-0.4-3.1-0.8v6.6h-3.8V81.7h3.4v1.5h0c0.7-1.2,2.1-1.8,3.7-1.8c3,0,5.8,2.2,5.8,6.4
		C118.1,91.6,115.3,94.1,111.9,94.1z M111.2,84.7c-1.1,0-1.9,0.6-2.4,1.3v3.8c0.4,0.5,1.2,1.1,2.4,1.1c1.7,0,2.9-1.3,2.9-3
		C114.1,86.1,112.9,84.7,111.2,84.7z"/>
	<path class="st0" d="M131.4,99.9c-3.5,0-5.9-2-5.9-4.5c0-1.8,1.2-2.9,2.5-3.3l-1.5-1.5c0.1-0.8,0.8-1.4,1.5-1.7
		c-0.9-0.6-1.8-1.7-1.8-3.2c0-2.6,1.8-4.3,5-4.3c0.7,0,1.3,0.1,1.8,0.2c0.5,0.1,1.1,0.2,1.7,0.2c0.7,0,1.4-0.2,1.9-0.4l0.7,3
		c-0.4,0.2-1,0.4-1.5,0.4c0.1,0.2,0.3,0.8,0.3,1.2c0,2-1.6,3.7-3.9,3.9c-0.5,0-0.8,0.1-0.8,0.5c0,0.1,0.1,0.3,0.3,0.4l1.9,0.7
		c2.4,0.9,3.7,2.1,3.7,4.3C137.2,98.1,134.9,99.9,131.4,99.9z M132.2,94.2l-1.4-0.4c-0.9,0-1.6,0.7-1.6,1.6c0,0.8,0.7,1.5,2.1,1.5
		c1.4,0,2.1-0.6,2.1-1.3C133.4,95,133,94.4,132.2,94.2z M131.1,84.1c-0.9,0-1.5,0.7-1.5,1.4c0,0.8,0.7,1.4,1.5,1.4
		c0.9,0,1.5-0.6,1.5-1.4C132.7,84.8,132,84.1,131.1,84.1z"/>
	<path class="st0" d="M146.3,85.8c-0.2-0.1-0.8-0.3-1.2-0.3c-1.3,0-2.4,0.7-2.4,2.6v5.6h-3.9V81.7h3.9v2.7h0
		c0.4-1.9,1.8-2.9,3.4-2.9c0.4,0,0.8,0.1,1.1,0.2L146.3,85.8z"/>
	<path class="st0" d="M157.1,94.3c-0.7-0.2-1.5-0.7-1.9-1.6c-0.5,1-1.7,1.5-3.1,1.5c-2.1,0-4-1.5-4-4c0-2.2,1.7-3.7,4.1-3.9l2.4-0.2
		v-0.4c0-0.7-0.6-1.2-1.9-1.2c-1.2,0-2.5,0.4-3.4,0.9l-0.7-3c1-0.6,2.6-1.1,4.2-1.1c3.2,0,5.5,1.5,5.5,4.4v3.9
		c0,1.4,0.5,2.2,1.5,2.5L157.1,94.3z M154.5,88.5l-1.5,0.1c-1,0.1-1.5,0.8-1.5,1.5c0,0.6,0.5,1.2,1.2,1.2c0.9,0,1.7-0.7,1.7-1.8
		V88.5z"/>
	<path class="st0" d="M170,93.8v-1.5h0c-0.7,1.2-2.1,1.8-3.7,1.8c-3,0-5.8-2.2-5.8-6.4c0-3.9,2.8-6.4,6.1-6.4c1.3,0,2.6,0.4,3.1,0.8
		v-7.4h3.8v19H170z M169.6,85.8c-0.4-0.5-1.2-1.1-2.4-1.1c-1.7,0-2.9,1.3-2.9,3.1c0,1.7,1.2,3.1,2.9,3.1c1.1,0,1.9-0.6,2.4-1.3V85.8
		z"/>
	<path class="st0" d="M187,87l-1.7,1.8h-5.9c0.2,1,1.5,2.1,3.6,2.1c1.3,0,2.5-0.4,3.3-0.9l-0.4,3.4c-0.9,0.5-2.3,0.8-3.8,0.8
		c-3.7,0-6.6-2.6-6.6-6.5c0-3.9,2.8-6.4,6.3-6.4c3.4,0,5.4,2.3,5.4,4.8C187.1,86.4,187.1,86.8,187,87z M181.7,84.2
		c-1.1,0-2.1,0.9-2.3,2h4.1c0-0.1,0-0.2,0-0.3C183.5,85.1,182.8,84.2,181.7,84.2z"/>
	<path class="st0" d="M192.9,94c-1.7,0-2.9-0.3-3.8-0.9l-0.3-3.5c1.1,0.7,2.5,1.3,3.8,1.3c0.7,0,1.2-0.4,1.2-0.8
		c0-0.5-0.4-0.7-1.1-0.9c-2.3-0.7-3.7-1.8-3.7-3.9c0-2.4,1.9-3.9,4.5-3.9c1.5,0,3,0.4,3.6,0.7l-0.7,2.9c-0.6-0.3-1.5-0.7-2.5-0.7
		c-0.6,0-1.1,0.3-1.1,0.8c0,0.5,0.3,0.7,1.1,0.9c2.7,0.7,3.8,2.1,3.8,4.1C197.6,92.2,196.1,94,192.9,94z"/>
	<path class="st0" d="M200.1,84.3l-1.2-0.2c0.9-1,1.6-2.6,1.8-3.8c-0.7-0.1-1.8-1.3-1.8-1.9c0-0.8,1.5-2.2,2.2-2.2
		c0.6,0,2.2,1.4,2.2,2.2C203.3,80.2,201.6,82.9,200.1,84.3z M205.5,84.3l-1.2-0.2c0.9-1,1.6-2.6,1.8-3.8c-0.7-0.1-1.8-1.3-1.8-1.9
		c0-0.8,1.5-2.2,2.2-2.2c0.6,0,2.2,1.4,2.2,2.2C208.7,80.2,207.1,82.9,205.5,84.3z"/>
	<path class="st0" d="M217.2,85.4c-0.7,0.7-0.9,1.4-0.9,2.1c0,0.4,0,0.8,0.1,1.2L213,88c-0.1-0.5-0.2-0.9-0.2-1.4
		c0-1.4,0.6-2.6,1.5-3.7c0.7-0.7,1-1.2,1-2c0-0.6-0.5-1.2-1.5-1.2c-1,0-1.8,0.3-2.7,0.9l-0.8-3.3c1-0.6,2.3-1,3.8-1
		c3.1,0,5.2,1.8,5.2,4.5C219.5,82.4,218.8,83.7,217.2,85.4z M214.8,94.1c-0.7,0-2.2-1.5-2.2-2.2c0-0.7,1.5-2.2,2.2-2.2
		c0.7,0,2.2,1.5,2.2,2.2C217,92.6,215.5,94.1,214.8,94.1z"/>
</g>
</svg>
