<?xml version="1.0" encoding="utf-8"?>
<!-- Generator: Adobe Illustrator 22.1.0, SVG Export Plug-In . SVG Version: 6.00 Build 0)  -->
<svg version="1.1" id="Layer_1" xmlns="http://www.w3.org/2000/svg" xmlns:xlink="http://www.w3.org/1999/xlink" x="0px" y="0px"
	 viewBox="0 0 300 600" style="enable-background:new 0 0 300 600;" xml:space="preserve">
<style type="text/css">
	.st0{clip-path:url(#SVGID_2_);fill:#FFFFFF;}
	.st1{clip-path:url(#SVGID_4_);fill:url(#SVGID_5_);}
	.st2{clip-path:url(#SVGID_7_);fill:url(#SVGID_8_);}
	.st3{clip-path:url(#SVGID_10_);fill:url(#SVGID_11_);}
	.st4{clip-path:url(#SVGID_13_);fill:url(#SVGID_14_);}
	.st5{clip-path:url(#SVGID_16_);fill:url(#SVGID_17_);}
	.st6{fill:#626366;}
	.st7{fill:#404041;}
	.st8{fill:#808184;}
	.st9{fill:#231F20;}
	.st10{clip-path:url(#SVGID_19_);fill:#404041;}
	.st11{clip-path:url(#SVGID_19_);fill:#EAEBEC;}
	.st12{clip-path:url(#SVGID_19_);fill:#DBDCDD;}
	.st13{clip-path:url(#SVGID_19_);fill:#FFFFFF;}
	.st14{clip-path:url(#SVGID_21_);fill:url(#SVGID_22_);}
	.st15{fill:#005494;}
	.st16{fill:#0081BD;}
	.st17{fill:#FFFFFF;}
</style>
<g>
	<defs>
		<rect id="SVGID_1_" x="43.6" y="193.6" width="212.7" height="212.7"/>
	</defs>
	<clipPath id="SVGID_2_">
		<use xlink:href="#SVGID_1_"  style="overflow:visible;"/>
	</clipPath>
	<path class="st0" d="M130.3,193.6c-15.9,0-30.8,6.2-42.2,17.6c-11.3,11.3-17.6,26.2-17.6,42v126.5h126.3c33,0,59.8-26.8,59.8-59.8
		V193.6H130.3z"/>
</g>
<g>
	<defs>
		<path id="SVGID_3_" d="M196.8,379.7H70.5v0l-26.6,26.6h135.2c10.8-1.2,20.4-6,27.8-13.1l19.8-19.8l-1.1-1.1
			C217,377.1,207.2,379.7,196.8,379.7"/>
	</defs>
	<clipPath id="SVGID_4_">
		<use xlink:href="#SVGID_3_"  style="overflow:visible;"/>
	</clipPath>
	
		<linearGradient id="SVGID_5_" gradientUnits="userSpaceOnUse" x1="1.6559" y1="600.5915" x2="2.7671" y2="600.5915" gradientTransform="matrix(0 -30.9599 -30.9599 0 18729.4805 458.1897)">
		<stop  offset="0" style="stop-color:#10B0E6"/>
		<stop  offset="0.1593" style="stop-color:#0FAAE1"/>
		<stop  offset="0.3678" style="stop-color:#0C9AD2"/>
		<stop  offset="0.6035" style="stop-color:#077FBA"/>
		<stop  offset="0.8576" style="stop-color:#015999"/>
		<stop  offset="0.89" style="stop-color:#005494"/>
		<stop  offset="1" style="stop-color:#005494"/>
	</linearGradient>
	<rect x="43.9" y="372.4" class="st1" width="182.7" height="34"/>
</g>
<g>
	<defs>
		<path id="SVGID_6_" d="M57,243.4c-8.3,8.5-13.4,20.1-13.4,32.9v130h0.3l26.6-26.6V253.2c0-10.1,2.6-19.8,7.4-28.4l-1.1-1.1
			L57,243.4z"/>
	</defs>
	<clipPath id="SVGID_7_">
		<use xlink:href="#SVGID_6_"  style="overflow:visible;"/>
	</clipPath>
	
		<linearGradient id="SVGID_8_" gradientUnits="userSpaceOnUse" x1="1.122" y1="600.9693" x2="2.2332" y2="600.9693" gradientTransform="matrix(0 -165.4063 -165.4063 0 99464.8359 593.7178)">
		<stop  offset="0" style="stop-color:#0081BD"/>
		<stop  offset="0.3934" style="stop-color:#006FAC"/>
		<stop  offset="0.85" style="stop-color:#005494"/>
		<stop  offset="1" style="stop-color:#005494"/>
	</linearGradient>
	<rect x="43.6" y="223.7" class="st2" width="34.3" height="182.7"/>
</g>
<g>
	<defs>
		<path id="SVGID_9_" d="M196.8,379.7H70.5v0l-26.6,26.6h135.2c10.8-1.2,20.4-6,27.8-13.1l19.8-19.8l-1.1-1.1
			C217,377.1,207.2,379.7,196.8,379.7"/>
	</defs>
	<clipPath id="SVGID_10_">
		<use xlink:href="#SVGID_9_"  style="overflow:visible;"/>
	</clipPath>
	
		<linearGradient id="SVGID_11_" gradientUnits="userSpaceOnUse" x1="1.0211" y1="601.1362" x2="2.1322" y2="601.1362" gradientTransform="matrix(162.8983 0 0 -162.8983 -122.0245 98313.4219)">
		<stop  offset="0" style="stop-color:#10B0E6"/>
		<stop  offset="0.1611" style="stop-color:#0FAAE1"/>
		<stop  offset="0.3719" style="stop-color:#0C9AD2"/>
		<stop  offset="0.6102" style="stop-color:#077FBA"/>
		<stop  offset="0.8672" style="stop-color:#015999"/>
		<stop  offset="0.9" style="stop-color:#005494"/>
		<stop  offset="1" style="stop-color:#005494"/>
	</linearGradient>
	<rect x="43.9" y="372.4" class="st3" width="182.7" height="34"/>
</g>
<g>
	<defs>
		<path id="SVGID_12_" d="M57,243.4c-8.3,8.5-13.4,20.1-13.4,32.9v130h0.3l26.6-26.6V253.2c0-10.1,2.6-19.8,7.4-28.4l-1.1-1.1
			L57,243.4z"/>
	</defs>
	<clipPath id="SVGID_13_">
		<use xlink:href="#SVGID_12_"  style="overflow:visible;"/>
	</clipPath>
	
		<linearGradient id="SVGID_14_" gradientUnits="userSpaceOnUse" x1="1.122" y1="600.9693" x2="2.2332" y2="600.9693" gradientTransform="matrix(0 -165.4063 -165.4063 0 99464.8359 593.7178)">
		<stop  offset="0" style="stop-color:#0081BD"/>
		<stop  offset="0.3934" style="stop-color:#006FAC"/>
		<stop  offset="0.85" style="stop-color:#005494"/>
		<stop  offset="1" style="stop-color:#005494"/>
	</linearGradient>
	<rect x="43.6" y="223.7" class="st4" width="34.3" height="182.7"/>
</g>
<g>
	<defs>
		<path id="SVGID_15_" d="M130.3,201.2c-28.6,0-52.2,23.7-52.2,52v118.9h118.7c28.8,0,52.2-23.4,52.2-52.2V201.2H130.3z"/>
	</defs>
	<clipPath id="SVGID_16_">
		<use xlink:href="#SVGID_15_"  style="overflow:visible;"/>
	</clipPath>
	
		<linearGradient id="SVGID_17_" gradientUnits="userSpaceOnUse" x1="1.1" y1="601.0554" x2="2.2111" y2="601.0554" gradientTransform="matrix(153.4628 -153.4628 -153.4628 -153.4628 92149.5 92780.1094)">
		<stop  offset="0" style="stop-color:#9CDBF8"/>
		<stop  offset="1" style="stop-color:#0088CF"/>
	</linearGradient>
	<polygon class="st5" points="-7.3,286.7 163.6,115.8 334.5,286.7 163.6,457.6 	"/>
</g>
<polygon class="st6" points="223.1,341 152.1,341 136.4,356.6 207.4,356.6 "/>
<polygon class="st7" points="219.4,353.1 153.9,353.2 140.3,366.8 205.7,366.8 "/>
<rect x="153.9" y="343" class="st8" width="65.4" height="10.2"/>
<polygon class="st9" points="136.4,346.5 136.4,356.6 152.1,340.9 152.9,330 "/>
<g>
	<defs>
		<rect id="SVGID_18_" x="43.6" y="193.6" width="212.7" height="212.7"/>
	</defs>
	<clipPath id="SVGID_19_">
		<use xlink:href="#SVGID_18_"  style="overflow:visible;"/>
	</clipPath>
	<path class="st10" d="M223.1,331.8c0-1.4-1.1-2.5-2.5-2.5h-65.9c-1.4,0-2.5,1.1-2.5,2.5c0,0,0,9.2,0,9.2c0,0,71,0,71,0V331.8z"/>
	<polygon class="st11" points="92.8,347.2 93.3,356.2 132.4,353.5 131.9,344.4 	"/>
	<polygon class="st12" points="93.2,353.8 93.3,356.2 132.4,353.5 132.3,351.1 	"/>
	<path class="st13" d="M132.4,353.5c-0.7,0-1.4-2-1.5-4.5c-0.2-2.5,0.3-4.6,1-4.6c0.7,0,1.4,2,1.5,4.5
		C133.6,351.4,133.1,353.4,132.4,353.5"/>
</g>
<g>
	<defs>
		<polygon id="SVGID_20_" points="86.2,364.1 70.5,379.7 220.3,379.7 236,364.1 		"/>
	</defs>
	<clipPath id="SVGID_21_">
		<use xlink:href="#SVGID_20_"  style="overflow:visible;"/>
	</clipPath>
	
		<linearGradient id="SVGID_22_" gradientUnits="userSpaceOnUse" x1="1.0344" y1="601.1359" x2="2.1455" y2="601.1359" gradientTransform="matrix(175.2078 0 0 -175.2078 -111.0011 105695.5938)">
		<stop  offset="0" style="stop-color:#10B0E6"/>
		<stop  offset="8.680120e-02" style="stop-color:#10B0E6"/>
		<stop  offset="0.3215" style="stop-color:#0D9DD5"/>
		<stop  offset="0.7963" style="stop-color:#046BA9"/>
		<stop  offset="1" style="stop-color:#005494"/>
	</linearGradient>
	<rect x="70.5" y="364.1" class="st14" width="165.5" height="15.7"/>
</g>
<rect x="86.2" y="352.4" class="st15" width="149.8" height="11.7"/>
<polygon class="st16" points="86.2,352.4 70.5,368.1 70.5,379.8 86.2,364.1 "/>
<g>
	<path class="st17" d="M115.7,225.3h0.2c0,0.5,0.1,0.7,0.4,0.7l1.6-0.1c0-0.4,0.2-0.6,0.5-0.6c0.3,0.1,0.5,0.2,0.6,0.2l-0.2,0.4h0.2
		c0.6-0.4,1.1-0.6,1.7-0.7l0,0.6c-0.5,0-0.8,0.2-0.8,0.4v0.2c0.7,0,1.6,0.2,2.9,0.7l2.4-0.1c0.2,0,0.4-0.2,0.6-0.6
		c0.4,0.2,0.8,0.4,1.2,0.7l2.6-0.5h0.5c1.3,0.4,2,0.8,2,1c-0.2,0-0.4,0.2-0.8,0.7l0,0.2l0.2,0.9l0.9-0.2l1.2,0.7
		c0.2,0.7,0.2,1,0.2,1.1c-0.2,0.1-0.4,0.2-0.4,0.4l0.8,0.9l-0.7,1.5v0.2h0.2l0.7-0.6l0.2,0.4l0,0.4l-0.8,0.8
		c0.1,0.2,0.2,0.5,0.3,0.7c-0.4,0.1-0.6,0.6-0.5,1.5c0.2,1,1.1,1.4,2.6,1.4c0.7,0.6,1,1.1,1,1.6c-0.7,0.4-1,0.7-1.1,1.1
		c1,0.5,1.5,0.7,1.7,0.7v0.2c0,0.2-0.2,0.4-0.7,0.4l0.2,1.3v0.4c0,0.2-0.1,0.4-0.4,0.4l0.2,0.4v0.2c0,0.3-0.1,0.7-0.3,1.1
		c0.5,0,0.8,0.2,0.8,0.7l0.4,0l0.7-0.8h0.2c0.3,0,0.4,0.2,0.4,0.5c-0.1,0.9-0.3,1.3-0.5,1.3l0.2,0.4v0.4c0,0.2-0.1,0.4-0.4,0.4
		l0.4,1.3l-0.2,0.4l0.4,2l0.4-0.2h0.4l0,0.5c-0.4,0-0.6,0.2-0.6,0.6c0,0.2,0.4,0.6,1.2,1.3c0,0.2-0.8,0.6-2.4,1.2
		c-0.6,0.9-0.9,1.5-0.9,1.7l0.2,0.4c-0.1,0.5-0.2,0.7-0.3,0.7c0.1,0.2,0.2,0.4,0.2,0.6c-0.2,0.5-0.3,0.7-0.5,0.7
		c-0.4-0.4-0.7-0.7-0.7-0.9c0.1-0.2,0.2-0.4,0.2-0.5c-0.2,0-0.4-0.2-0.6-0.5c0.2,0,0.4-0.2,0.3-0.4c0-0.2-0.4-0.3-1.1-0.3l0-0.7
		c0.7-0.6,1-1.2,1.1-1.7c1-0.4,1.7-0.9,2-1.4v-0.2c-0.3,0-0.5-0.1-0.8-0.5c-0.8,0.8-1.4,1.2-2,1.4c0,0.4-0.1,0.5-0.5,0.6v0.4
		l0.4,0.5c-0.3,0.6-0.6,0.9-0.7,0.9c0,0.8,0.5,1.4,1.4,2l0,0.4l-2.4,0.9l-0.6-0.3c-2,0.3-3.2,0.6-3.5,0.9h-0.2
		c-0.1,0-0.2-0.1-0.2-0.2l-0.4,0.2l-1.1-0.1c0,0.2-0.2,0.4-0.5,0.6H127c0-0.1-0.1-0.6-0.4-1.4v-0.2l0.2-0.4c-0.1,0-0.2-0.1-0.2-0.2
		c1.3-1.1,1.9-1.8,1.8-2l-0.4-0.2l-0.4,0l-0.6,0.4l-0.2,0c-0.2,0-0.4-0.1-0.4-0.4c0.2,0,0.4-0.1,0.4-0.4c-0.1,0-0.2-0.1-0.2-0.2
		l0.4-0.2l-0.2-0.3v-0.4l0.1-0.9c-0.1,0-0.2-0.1-0.2-0.2l0.4-0.2l-0.2-0.4v-0.4c-0.1-0.9,0.4-1.3,1.3-1.3v-0.2l-0.4-0.2l0.2-0.4
		v-0.4L127,251l-0.2-0.3c-0.8,0.3-1.3,0.4-1.6,0.4L125,250c0.1-0.5,0.5-1,1.2-1.8c0,0.1,0.1,0.2,0.2,0.2c0-0.3,0.1-0.6,0.3-0.9
		c-0.3,0-0.5-0.1-0.8-0.2c0,0.2-0.1,0.4-0.4,0.4h-0.4c-0.2,0-0.4-0.1-0.4-0.4l-0.1-1.1c0.2-0.5,0.6-0.7,0.9-0.8l-1.4-1.4
		c0-0.3-0.1-0.5-0.2-0.7c0.1-0.2,0.1-0.4,0.1-0.6v-0.2h-0.2c0,0.4-0.3,0.8-0.9,1.1H123c-0.7,0-1.6,0-2.7,0c-0.6,0.2-0.9,0.4-0.9,0.6
		v0.2l0.4,0.5l0.9-0.2l1.9-0.1l0.5-0.4c0.5,0.5,0.8,1,0.9,1.6c-0.4,0-0.8,0.5-1.1,1.3l-0.3,0.2h-0.2c-0.3,0-0.5-0.3-0.6-0.9h-0.2
		c0,0.6-0.1,0.9-0.4,0.9l0.2,0.4c-0.3,1-0.7,1.5-1.1,1.5l-0.4,0l0.2,0.9l0,0.2h-0.4c-0.2,0-0.4-0.1-0.4-0.3l0.2-0.9
		c-0.7,0.8-1.5,1.2-2.5,1.2l0,0.4c0.4,0,0.6,0.1,0.6,0.3l0.7-0.4c0.4,0.2,0.8,0.3,1.2,0.3v0.4c0,0.2-0.2,0.4-0.6,0.6l0.2,0.4
		c-0.4,0.7-0.6,1.2-0.7,1.7c0.1,0.2,0.2,0.4,0.2,0.6l-0.7,0.6c-0.2,0-0.4-0.1-0.4-0.4l0-0.9l-0.8-0.2l-1.1,1.5
		c0.1,0,0.7,0.4,1.8,1.2l-1,2.8c-1.4,0.6-2,1-2,1.2v0.2c0.4,0,0.5,0.1,0.6,0.3c0,0.2-0.3,0.4-0.8,0.4l0,0.7c0.3,0.3,0.6,1.1,0.9,2.5
		c0.2,0,0.7-0.4,1.7-1.3h0.2l0.6,0.3h0.2c1.5-0.1,2.7-0.5,3.8-1.3c0.4,0.2,0.7,0.3,0.9,0.3c0-0.3,0.1-0.4,0.4-0.4
		c0.1,0,0.2,0.1,0.2,0.2c0.8-0.4,1.4-0.6,1.7-0.6l0.8,0.7l1.1-0.8l0.4,0v0.8l0.2,0c0.7-0.6,1.1-1.1,1.1-1.5c-0.1,0-0.2-0.1-0.2-0.2
		l0.2,0l1,0.5l0.9-0.2c1.1,0,1.7-0.1,1.9-0.1c0-0.4,0.1-0.5,0.3-0.6l0.8,0.9h0.2c2-0.3,3.2-0.6,3.5-0.9l0.2,0.3l-0.2,0.4l0.4,0
		c0-0.3,0.2-0.7,0.7-1.1l-0.2-0.4v-0.2c0.2-0.5,0.6-0.7,0.9-0.8l-0.2-0.4c0.8-1.5,1.6-2.3,2.4-2.3l0.4,0.2l-0.2,0.4
		c0,0.2,0.1,0.5,0.4,1.1c-0.2,0.1-0.5,0.2-0.9,0.2l0,0.9l-0.2,0.9l1.8,0.9h-0.2c0.3,0.7,0.4,1.2,0.4,1.5c0,0.3-0.1,0.9-0.5,1.7
		l0.2,1.1h-0.2l0.2,0.4v0.4c0,0.3-0.1,0.5-0.2,0.7c0.1,0.2,0.2,0.4,0.2,0.5c-1.9,1-2.9,1.4-3,1.4c-0.2-0.1-0.4-0.2-0.6-0.2l0,0.9
		l1,0.1c0.2,0,1-0.6,2.2-1.8h0.4c0.6,0.2,0.9,0.4,1,0.7l-0.5,0.9c0.6,0,0.9,0.2,1,0.5l0,0.7c-0.5,0.6-0.7,0.9-0.7,1l0.6,0.7
		c-0.1,0.2-0.1,0.5-0.1,0.7h0.4c0-0.5,0.1-0.7,0.3-0.8h0.2c0.5,0.5,0.9,0.7,1.2,0.7v0.4c0,0.2-0.1,0.4-0.3,0.4l-0.4,0l-0.8-0.5h-0.2
		v0.4c0.9,0.5,1.4,1,1.4,1.2c-0.1,0.2-0.2,0.4-0.2,0.6c0.2,0,0.5,0.2,0.8,0.7v0.2c0,0.2-0.3,0.5-0.9,0.8c0-0.2-0.2-0.4-0.4-0.4
		c-0.2,0.1-0.4,0.2-0.3,0.4v0.2c1.6,1,2.5,1.6,2.8,1.9v0.2c-1,0.8-1.5,1.2-1.7,1.2v0.4l0.8,0l0.6-0.4h0.2v0.4H147l0,0.2l0.8,0.7
		c-0.2,0.1-0.3,0.2-0.3,0.4c0.4,0,0.5,0.1,0.6,0.4l-1.7,1c0,0.1,0,0.2-0.2,0.2h-0.4l-1.2-0.5l-0.2,0.4c0.2,0,0.4,0.2,0.6,0.5
		l-0.7,0.8l0,0.4c0.4,0,0.5,0.3,0.6,0.9l0.4,0l-0.2-0.4c0.9-0.6,1.3-1,1.3-1.1c0.4-0.3,0.9-0.4,1.5-0.4h0.4c0.4,0.1,0.6,0.5,0.6,1.1
		c-0.3,0.3-1,0.6-1.9,1v0.4c0.1,0.2,0.2,0.4,0.4,0.4c0.5-0.4,0.9-0.6,1.1-0.6c0,0.1,0.1,0.2,0.2,0.2l-0.2,0.4v0.4
		c0.4,0,0.6,0.1,0.6,0.4c-0.1,0.2-0.2,0.4-0.2,0.5c0.2-0.1,0.5-0.2,0.9-0.2l0.2,0.4c-0.2,0.5-0.4,0.7-0.5,0.7l-0.6,0
		c-0.3-0.2-0.5-0.4-0.7-0.3c-0.3,0.1-0.5,0.2-0.6,0.2c0-0.1-0.1-0.2-0.2-0.2c-0.6,0.4-0.9,0.9-0.9,1.5c0.7,0.6,1.3,0.8,1.8,0.8
		c0.1-0.4,0.5-0.6,1.5-0.6c0.2,0,0.4,0.2,0.6,0.5v0.2c0,0.2-0.2,0.4-0.6,0.4l0,0.6c1.6,0.7,2.4,1.7,2.4,3l0.4,0.5v0.4h-0.2
		c-0.2,0-0.4-0.2-0.4-0.5h-0.2v0.4l-0.4,0l-0.2-0.9c-0.7,0-1.2,0.4-1.3,1c0.4,0.8,0.8,1.6,1.3,2.2c-0.1,0-0.7,0.1-1.6,0.4h-0.2
		c-0.2,0-0.5-0.3-1-0.9l0.2-0.9c-0.2,0-0.4-0.1-0.8-0.3h-0.6c-0.2,0-1.3,0.3-3.3,0.9l0,0.7c0.7,0.5,1,0.8,1,0.9
		c-0.4,0.9-1,1.3-1.8,1.3l0.2-0.4l0-0.5h-0.4c0,0.6-0.1,0.9-0.4,0.9h-0.2c-0.3,0-0.5-0.3-0.8-0.9c1.1-0.4,1.7-0.7,1.7-0.8
		c-0.3-0.7-0.6-1.1-0.8-1.1c-0.1,0-0.4,0.4-1.1,1.1l-0.4-0.2c-0.1,0.3-0.4,0.6-0.9,0.9c-0.3-0.3-0.5-0.6-0.5-1.1l-1.3,0
		c0-0.4-0.7-1.2-2-2.5v-0.2l0.2-0.4l-1.3-4.3c-0.5-0.5-0.9-0.8-1.2-0.9c0,0.1-0.1,0.2-0.2,0.2c-0.1-0.2-0.2-0.4-0.2-0.5
		c0-0.4,0.6-0.9,1.8-1.4c-0.1-0.4-0.3-0.5-0.4-0.5c-0.2,0.1-0.4,0.2-0.5,0.2l-0.2-0.4c0-0.2,0.4-0.7,1.3-1.3V286
		c-0.2-0.5-0.4-0.7-0.6-0.7c0,0.2-0.1,0.4-0.4,0.4c-0.2-0.3-0.4-0.5-0.4-0.7l-0.4,0.2l-0.8,0l0-0.4c0.9-0.5,1.3-0.8,1.3-1l0-0.2
		l-0.2-0.3c0.2-0.2,0.2-0.5,0.2-0.8v-0.4l-0.6,0.4l-0.2-0.4c0.1-0.2,0.2-0.4,0.2-0.5l-1.1,1.7l-0.2-0.3l-0.1-1.7l-0.4-0.5
		c0-0.3,0.5-0.6,1.5-0.8h0.2v0.4l0.6,0c3.6-0.8,5.3-1.5,5.3-2.1l0-0.2l-0.2,0c0,0.2-0.3,0.5-0.9,0.8c-0.5,0-0.8-0.3-0.8-0.9
		c-3.4,0.4-5.3,0.8-5.5,1.2h-0.2c-0.2,0-0.5-0.6-0.9-1.8c0.5-0.8,0.7-1.3,0.7-1.5l-0.4-0.2c0,0.1-0.1,0.2-0.2,0.2
		c-0.1-0.2-0.2-0.4-0.2-0.5c0-0.4,0.2-0.6,0.6-0.6v-0.2h-0.4v0.2c-0.2-0.1-0.5-0.2-0.7-0.2l0-0.4c0-0.2,0.1-0.4,0.4-0.4h0.2
		c0.5,0.3,0.9,0.5,1.3,0.5l0.2-0.4l-0.6,0v-0.2l0.2-0.4l-0.4,0l0-0.4l1,0v-0.2c-1.1-0.1-1.9-0.1-2.1-0.1l0-0.6
		c0-0.2,0.2-0.4,0.7-0.4l-0.2-0.4c0-0.1,0.1-0.2,0.2-0.2c0-0.1-0.1-0.2-0.2-0.2l0.1-1.3l0-0.2c0-0.2-0.1-0.4-0.4-0.3l-0.6,0.8
		c0.2,0,0.2,0,0.2,0.2l-0.4,0.2h-0.4c-0.6-0.5-1.1-0.7-1.4-0.7c-0.7,0.1-1.2,0.2-1.5,0.2v-0.2c-0.2,0-0.6,0.4-1.1,1h-0.2
		c-0.2,0-0.2-0.1-0.2-0.2l-0.7,0.4c-1-0.1-1.6-0.5-1.6-1.2c0.1,0,0.2-0.1,0.2-0.2l-0.4-0.2c-0.5,1-0.7,1.7-0.7,2.2l0.8,0.3
		c-0.2,0.8-0.5,1.2-0.9,1.3l-1.3-0.7l0-0.2l0.4-0.6c0-0.2-0.2-0.4-0.4-0.4c0,0.2-0.2,0.4-0.6,0.6c-1.1-0.2-1.7-0.7-1.8-1.6
		c0-0.8-0.2-1.2-0.6-1.3h-0.4v0.2c0,0.2,0.2,0.5,0.5,1.1c-0.2,1.3-0.4,1.9-0.7,1.9h-0.2c0-0.5-0.3-0.7-0.8-0.7v-0.5
		c0.3-0.6,0.5-1,0.5-1.3l-1.2-0.5c-0.2,0-0.5,0.4-0.9,1c-0.5-0.2-0.8-0.3-0.8-0.5c-0.4,0.1-0.7,0.2-0.7,0.2l-1.1-0.1
		c0,0.1-0.1,0.2-0.2,0.2c0-0.2-0.1-0.4-0.4-0.4c-0.2,0.5-0.6,0.8-1.1,0.8l0,0.2l0.4,0.5c0.1,1.6-1.1,3-3.6,4.4
		c-0.2-0.1-0.5-0.2-0.8-0.2v0.2c0.1,0.2,0.2,0.4,0.2,0.5l0.6-0.4l0.4,0c0.2,0,0.4,0.2,0.6,0.5c-0.6,1-1.1,1.5-1.5,1.6l0,0.9h0.4v0.2
		c0,0.2-0.2,0.4-0.6,0.6l-0.4-0.2c0,0.4-0.2,0.6-0.7,0.6l0,1.1c-0.7,0.7-1.1,1.1-1.1,1.3c0.1,0,0.3,0,0.5,0.1
		c-0.1,0.2-0.2,0.4-0.2,0.6l-0.4-0.2c0.1,1.4-0.6,2.6-2.1,3.4l0.2,0.3c0,0.6-1.2,2.6-3.6,6l-1.9-0.1c0,0.2-0.1,0.4-0.4,0.4l-0.9,0
		c-0.5-0.2-1.7-0.8-3.8-1.9c-0.5,0-1.5-0.6-2.8-1.9c-0.9,0.1-1.6-0.3-2.3-1.2l2.8-6.8c-0.1-0.2-0.2-0.4-0.2-0.5
		c0.3,0,0.7-0.8,1.2-2.4l0.5,0l0.4,0.2c-0.1-2.1,0.5-3.1,1.8-3.2c0-0.1,0.1-0.3,0.2-0.6l-0.3-1.1l0-0.4c0.1-0.5,1.3-1.1,3.4-1.6h0.2
		l0-0.9h-0.4c0,0.5-0.1,0.7-0.4,0.7l-0.4,0c-0.2,0-0.5-0.2-0.8-0.7l0.6-0.4l0.4,0.2l0.2-0.4l-0.4-0.5v-0.2c0.5-0.9,1.3-1.5,2.4-1.9
		l0.8,0l0,0.4c-0.5,0-0.8,0.2-0.8,0.4l0.6,0l1.3-0.4l0-0.7l-0.2,0c-0.2,0.1-0.4,0.2-0.6,0.2c0-0.3-0.4-0.5-1-0.5
		c-0.2,0.1-0.4,0.2-0.5,0.2l-0.2-0.3c0.7-1.4,1.5-2.3,2.2-2.7l-0.2-0.9c0.3-1,0.5-1.5,0.7-1.5c0.2,0,0.4,0.5,0.9,1.6
		c-0.1,0.2-0.2,0.4-0.2,0.5c0.1,0.2,0.2,0.4,0.2,0.6c0.3,0,0.4-0.2,0.4-0.6c-0.2-0.2-0.2-0.4-0.2-0.6c0.2-0.1,0.5-0.2,0.8-0.2l0-0.4
		c-1.1-0.9-1.6-1.5-1.6-1.6c0.9-0.4,1.3-1,1.3-1.7c-0.2-0.2-0.2-0.4-0.2-0.5c0.3-0.9,0.5-1.3,0.7-1.3c0,0.2,0.2,0.4,0.6,0.5h0.2
		c0-0.4,0.3-0.5,0.9-0.6c0-0.2-0.2-0.4-0.6-0.5v0.4h-0.2c-0.2,0-0.4-0.1-0.4-0.4c0-0.2,0.2-0.4,0.5-0.4v-0.2l-0.5,0l0-0.4
		c1.1-0.6,1.6-1.7,1.6-3.4c0.2-1.3,0.5-1.9,0.9-1.9c0.1,0,0.2,0,0.2,0.2l0.4-0.2l0.4,0.2c0.2-0.3,0.3-0.7,0.3-1.3h0.4
		c0.2,0,0.4,0.1,0.4,0.5h0.2c0.3-0.4,0.8-0.6,1.7-0.7c0.3,0.4,0.7,0.5,1,0.5c0.2-0.1,0.4-0.2,0.6-0.2l-0.2-0.4l0.2-1.1
		c-0.6,0.2-1.1,0.4-1.5,0.8c-0.4-0.2-0.8-0.3-1-0.3l-1.1,0.2c-0.1-0.2-0.2-0.5-0.2-0.7l-0.6,0.4H105l0-0.9c0.2,0,0.6-0.8,1.1-2.3
		h0.4c0.2,0.7,0.5,1.4,0.9,2l0.9-0.4c-0.3-0.4-0.4-0.7-0.4-1.1l-0.1-1.8l-0.3-0.9c0.3,0,0.4-0.2,0.4-0.4c-0.3,0-0.4-0.1-0.4-0.4V242
		l0.2-0.9h0.4c-0.1,0.2-0.2,0.4-0.2,0.6v0.2h0.2l0.1-0.9c0-0.1-0.1-0.4-0.2-1.1c0.2,0,0.6-0.3,1.1-0.8l0.4,0.5
		c0.6-0.3,0.9-0.5,0.9-0.8c-0.7,0-1.2-0.3-1.6-0.9c0.2-0.3,0.3-0.5,0.3-0.7l0.6,0l0,0.4l0.7,0l0-0.5l-0.6-0.7c0.5-0.4,1-0.6,1.7-0.6
		h0.4c0-0.3,0.4-0.7,1.3-1.2c0-0.2,0.1-0.4,0.4-0.4c0.2,0,0.4,0.1,0.4,0.3v0.6l0.6,0.3h0.2c0.2,0,0.4-0.3,0.7-0.8v-0.4l-1-0.1l0-0.4
		c0-0.2,0.2-0.4,0.7-0.4l-0.8-0.7c0-0.1,0.1-0.2,0.2-0.2l-0.2-0.4l0.2-1.1l-0.4-0.5V230l0.2-0.4c-0.2,0-0.4-0.1-0.4-0.3
		c0.2-0.5,0.3-0.7,0.5-0.8l-0.2-0.9l0-0.6L115.7,225.3z M89.8,286.4l0.4,0l0-0.4C89.9,286,89.8,286.1,89.8,286.4z M90.3,285.3
		c0.1,0.7,0.3,1.1,0.7,1.1h0.2c2.1-0.6,3.1-1,3.1-1.2C92.3,285.3,91,285.3,90.3,285.3z M90.4,287.1l0.1,1.1c1.4-0.1,2.3-0.1,2.6,0.1
		h0.2v-0.2c-1.8-0.4-2.7-0.8-2.7-1.1H90.4z M91.8,283.1v0.7H92l0-0.7H91.8z M92.4,279.8v0.4c0.3,0,0.4,0,0.4,0.2
		c0.5-0.3,1-0.4,1.5-0.4c0.5,0.5,1,0.7,1.6,0.7c0-0.2,0.1-0.5,0.5-1l-0.2-0.3c0.2-0.5,0.4-0.9,0.3-1.1l-1.1,0
		C94.5,279.1,93.5,279.6,92.4,279.8z M92.9,283.3v0.2l0.4,0v-0.2H92.9z M96.8,280.2l-0.2,0.4v0.2l2.4-0.2v-0.2
		C99,280,98.2,280,96.8,280.2z M98.1,268.4c0.1,0.8-0.4,1.6-1.2,2.2l0,0.4h0.2c0.2-0.1,0.4-0.2,0.6-0.2l0.2,0.4l0.4-0.2l0.6,0.3
		c0.2-0.4,0.4-0.8,0.5-1.3C98.9,269,98.5,268.4,98.1,268.4z M97.2,274.6v0.4c0.2,0.6,0.7,0.9,1.4,0.9c0.1-0.3,0.2-0.4,0.4-0.4l0,0.4
		l2.8-0.2c0.2,0,0.4-0.1,0.3-0.4V275c-2.6-0.1-3.9-0.3-4-0.4v-0.2L97.2,274.6z M99.7,267.1v0.4l0.2,0c1-0.4,1.6-0.6,1.7-0.6l0-0.7
		c-0.2,0-0.4-0.1-0.4-0.2C100.2,266.4,99.7,266.8,99.7,267.1z M100.1,269.5v0.4c0.1,0,0.3,0,0.6,0.2c2-0.5,2.9-0.8,2.9-1v-0.2
		l-2.2,0.2L100.1,269.5z M102.2,260.2v0.4l0.2,0c0.3,0,0.4-0.1,0.4-0.4L102.2,260.2z M102.3,262.7c0.1,0.7,0.3,1.1,0.6,1.1h0.2
		c2.1-0.6,3.1-1,3.1-1.2C104.3,262.8,103,262.8,102.3,262.7z M102.4,264.6l0,1.1c1.4-0.2,2.3-0.1,2.6,0.1h0.2v-0.2
		c-1.7-0.4-2.6-0.7-2.7-1H102.4z M102.5,255.7l0,0.4h0.2v-0.4H102.5z M105,268.6l-0.9-0.2c0,0.3-0.1,0.5-0.2,0.8
		c0.3,0.4,0.4,0.7,0.4,0.9l1.3-0.2l0.6,0c0.1,0,0.2,0.1,0.2,0.2c0.9-0.2,1.3-0.5,1.3-0.8c0-0.6-0.2-1.1-0.7-1.5
		C106.3,268.3,105.6,268.5,105,268.6z M104.1,251.8h0.8v-0.4h-0.4C104.2,251.4,104.1,251.6,104.1,251.8z M104.3,252.9v0.2
		c0.1,0.2,0.2,0.4,0.4,0.3c0.2,0,0.4-0.1,0.3-0.4v-0.4C104.9,252.8,104.6,252.9,104.3,252.9z M104.4,273l0,0.4
		c0.3,0,0.4-0.2,0.4-0.4L104.4,273z M104.6,259.5c0.2,0,1,0.1,2.6,0.2l0.2,0c0-0.1-0.5-0.4-1.6-0.9l-0.4,0
		C105.2,258.7,104.9,259,104.6,259.5z M107.2,253.7c0,0.5-0.8,1.3-2.5,2.5v0.2l0.2,0.3c0.2-0.1,0.4-0.2,0.6-0.2l0.4,0.2
		c0.7,0,1-0.4,1.1-1.1h0.4c0.3,0,0.4,0.1,0.4,0.3c-0.2,0-0.2,0.1-0.2,0.2c1.6,0.1,2.5,0.1,2.7,0.1V256c-1.2-0.2-2.1-1-2.7-2.3
		L107.2,253.7z M111,258.9l-0.8-0.3c-0.6,0.4-0.9,0.6-0.9,0.8c0,0.8-0.4,1.4-1.3,1.9c0.2,0.1,0.4,0.2,0.6,0.2v0.4l-1.3,0.2
		c0-0.2-0.1-0.4-0.4-0.3c-0.2,0-0.4,0.2-0.4,0.6c0.1,0.4,0.3,0.5,0.4,0.5c0.2-0.1,0.4-0.2,0.6-0.2c0,0.2-0.2,0.4-0.6,0.4l0,0.7
		c0.2,0,0.9-0.4,1.9-1.2l-0.2-0.4l0-0.4c0.7,1.1,1.3,1.6,1.8,1.6v-0.2c0-0.4,0.1-0.8,0.3-1.1c0-0.3-0.5-0.6-1.6-0.9v-0.5
		c1-0.7,1.5-1.2,1.5-1.4l0.4-0.2h0.4c0.3,0,0.4,0.1,0.4,0.4l-0.2,0.4c0.5,0.2,0.9,0.3,1.2,0.3c0.2-0.3,0.5-1,0.9-1.9l-0.2,0
		c-0.3,0.1-0.5,0.2-0.6,0.2c-0.4-0.4-0.6-0.7-0.6-0.9h-0.2C111.9,257.6,111.5,258,111,258.9z M106.8,270.7c0,0.3,0,0.5-0.1,0.7
		c0.2,0.5,0.5,0.8,0.8,0.9c0-0.1,0.1-0.6,0.2-1.5l-0.4-0.2H106.8z M106.8,245.2h0.4v0.6c-0.2,0-0.4-0.1-0.4-0.4V245.2z M107.7,264.9
		l-0.2,0.4l1.4,0.3v-0.2C108.7,265.1,108.3,264.9,107.7,264.9z M108.3,253.2v0.2l1.6-0.1l1.9,1.3h0.4c0-0.4,0.2-0.6,0.6-0.6
		l-0.4-0.5c0.1-0.2,0.2-0.4,0.2-0.6c-1.4-0.1-2.1-0.2-2.1-0.3c0.2,0,0.4-0.2,0.6-0.6l0-0.2c0-0.2-0.2-0.4-0.6-0.5l-0.5,0
		L108.3,253.2z M108.7,240.9l0,0.4c0,0.2,0.2,0.4,0.6,0.5v-0.2l-0.2-1.1C108.8,240.6,108.7,240.7,108.7,240.9z M109.2,246.9
		c0,0.2,0.2,0.3,0.6,0.5c0.2,0,0.4-0.2,0.4-0.4c-0.2,0-0.4-0.1-0.4-0.5l-0.2,0C109.3,246.6,109.2,246.7,109.2,246.9z M109.7,245.3
		l0.2,0.4c-0.1,0.2-0.1,0.4-0.1,0.5h0.5c0-0.3,0.1-0.6,0.4-0.9l-0.4-0.2h-0.2L109.7,245.3z M109.9,241.4c0.6,1.1,1.4,1.6,2.5,1.6
		c0.2-1.2,0.3-1.9,0.3-2.2c-0.3,0-0.4-0.1-0.4-0.3C111.6,240.8,110.8,241.1,109.9,241.4z M111,273.5c0.2,0,0.4,0.1,0.4,0.3v0.2
		c0,0.3-0.3,0.5-0.9,0.6l-0.2-0.3C110.2,274,110.5,273.8,111,273.5z M116.8,246.1c0,0.2-0.2,0.4-0.7,0.6l-3,0.1h-0.2l-0.9,0.6
		l0.2,0.3l0,0.2l-0.4,0.6l0.2,0.9l2.6-0.2l0-0.9c0.1-0.4,0.6-0.6,1.5-0.6l0.2,0l0,0.7c0.4-0.4,0.7-0.6,0.9-0.6
		c0-0.2-0.2-0.4-0.4-0.4l0.3-1.1L116.8,246.1z M111.9,256.3l0.6,0l1.7-1.2l-0.4,0c-0.3,0.1-0.5,0.2-0.6,0.2
		c-0.1-0.2-0.2-0.5-0.2-0.7h-0.2C112.4,254.6,112.1,255.2,111.9,256.3z M112.2,245.4v0.2h0.4v-0.6
		C112.3,245,112.2,245.1,112.2,245.4z M116,236.7c0,0.2-0.1,0.4-0.3,0.4l-0.4-0.2c-0.6,0.1-1.1,0.5-1.5,1l-0.4,0l-0.6-0.4
		c0,0.6-0.2,0.9-0.6,0.9l0.3,0.9l0,0.7l0.7,0c0.1-1.1,0.1-1.8,0.3-2c0.7,0.2,1,0.5,1,1.1h-0.2L114,239l0,0.2
		c0.5,0.5,0.8,0.8,0.8,0.9c-0.3,0-0.7,0.6-1.3,1.7l-0.2,0v0.2h0.4l1.3-0.4c0.1,0.2,0.2,0.4,0.4,0.4h0.2c-0.3-0.4-0.4-0.7-0.4-0.9
		c0.2,0,0.4-0.4,0.5-1.3l-0.8-0.9l1.5-1c0.3,0,0.4,0.1,0.4,0.4c-0.1,0-0.2,0.1-0.2,0.2c0.2,0,0.4,0.1,0.4,0.3
		c0.8-0.4,1.2-0.6,1.3-0.6l0-0.5c0-0.2-0.2-0.4-0.6-0.5l-0.6,0.4H117L116,236.7z M113.2,230.5c0.3,1,0.6,1.6,0.9,2v0.2l-0.2,0
		l-0.8-0.5c0.1,0.9,0,1.3-0.3,1.3c-0.3,0-0.4-0.1-0.4-0.4c0-0.1,0.1-0.2,0.2-0.2l-0.2-0.4c0.4-0.5,0.5-0.9,0.5-1.1
		c-0.1-0.2-0.2-0.4-0.2-0.5L113.2,230.5z M112.5,261.6l0,0.6c0.2,0,0.4-0.2,0.3-0.4v-0.2H112.5z M113.4,242.9v0.2
		c0.1,0.2,0.2,0.4,0.4,0.4l0.2-0.4l-0.4-0.2L113.4,242.9z M114.3,258.4v0.2l0.9-0.2c0-0.2-0.1-0.4-0.4-0.3h-0.2
		C114.4,258.1,114.2,258.2,114.3,258.4z M114.5,255.1c0.1,0,0.3,0.1,0.6,0.2l0.2-0.4l0-0.5C115,254.3,114.8,254.5,114.5,255.1z
		 M114.7,251.6l0,0.9c1,0.2,1.5,0.5,1.6,1.1l0.2,0c0.2,0,0.4-0.1,0.3-0.4l0-1.1l-0.9,0.2h-0.2l0-0.9L114.7,251.6z M117.1,227.2
		l-0.2,0.8h-0.2l-0.4-0.2l0,0.4c0.2,0.2,0.2,0.4,0.2,0.5h0.4c0.2,0,0.4-0.2,0.4-0.4l-0.1-1.1H117.1z M116.6,224.9h0.4v0.4h-0.3
		L116.6,224.9z M116.8,240.2c0,0.2,0.3,0.3,0.8,0.5v-0.5L116.8,240.2z M117,230.7l0,0.4h0.2v-0.4H117z M117.5,231.1v0.4l0.4,0v-0.4
		L117.5,231.1z M117.7,224.6h0.5c0,0.2-0.1,0.4-0.3,0.4h-0.2V224.6z M118.1,246.6c0.3,0.3,0.4,0.6,0.4,1.1h0.2
		c0.2,0,0.5-0.3,0.9-0.9c-0.1-0.9-0.3-1.3-0.4-1.3C118.8,245.6,118.4,246,118.1,246.6z M120.8,269.9l0,0.6c0.2,0,0.3-0.2,0.5-0.6
		H120.8z M122.7,238.3c0,0.1-0.4,0.5-1.1,1.1c0.1,0.2,0.2,0.4,0.4,0.4c0.3,0,0.7-0.4,1.1-1.1C123.1,238.4,123,238.3,122.7,238.3z
		 M122.3,269.3h0.4l0-0.4C122.4,268.9,122.2,269,122.3,269.3z M124.5,263.8l-1.1,1.3v0.2h0.2c0.4-0.1,0.9-0.5,1.5-1.2L124.5,263.8z
		 M126.1,253.1h0.2c0.3,0,0.4,0.1,0.4,0.3c-0.2,0.3-0.4,0.6-0.4,0.9l-0.4,0c-0.2,0-0.3-0.1-0.4-0.4
		C125.7,253.4,125.9,253.1,126.1,253.1z M127.2,240.1l-0.9,0l-0.1,1.8l0.9,0c0-0.6,0.3-1,1.1-1.1v-0.2c-0.4,0-0.6-0.2-0.6-0.7
		L127.2,240.1z M127,271.6c0.3,0,0.5,0.3,0.6,0.9l-0.6,0.4h-0.2l-0.6-0.4C126.5,272,126.7,271.7,127,271.6z M126.8,228.3v0.2
		c0,0.3,0.3,0.5,1,0.5c0-0.1,0.1-0.2,0.2-0.2c-0.1-0.2-0.2-0.4-0.2-0.5L126.8,228.3z M128.4,235.4h0.4l1.7-0.7v-0.2
		C129.1,234.8,128.4,235.1,128.4,235.4z M128.5,228.5l0,0.4l0.2,0v-0.4L128.5,228.5z M129.9,244l0.2,0.3c0.6-0.2,0.9-0.4,0.9-0.6
		l-0.4-0.2C130.4,243.9,130.1,244,129.9,244z M130.3,248.5v0.2h0.2l0.9-0.2v-0.5C130.7,248,130.3,248.2,130.3,248.5z M130.9,248.8
		v0.2h0.4v-0.2H130.9z M131.8,243.8c0,0.5-0.1,0.9-0.5,1.3c0.3,0,0.4,0.1,0.4,0.2c1,0,1.8-0.5,2.4-1.4h-0.4l-0.6,0.4H133l-0.8-0.5
		H131.8z M131.8,242.5l0.4,0.2l0.2,0c0.1,0,0.6-0.6,1.4-1.9l-0.2-0.4C132.3,240.8,131.7,241.5,131.8,242.5z M132.8,247.4v0.7l-0.2,0
		v0.2c0.2,0,0.7,0.1,1.6,0.3c0.9-0.3,1.3-0.7,1.3-1.3l-0.4,0l-0.6,0.4l-0.4,0v-0.4L132.8,247.4z M133.2,259.8c0.3,0,0.4,0.1,0.4,0.3
		l-0.3,0.2c-0.3,0-0.4-0.1-0.4-0.3L133.2,259.8z M134.9,240.3c0-0.1-0.1-0.2-0.2-0.2l0,0.4l0.2,0.4l0.4-0.2h0.4v0.5h0.4l0-1.3
		C135.6,240.2,135.2,240.3,134.9,240.3z M134.8,253.2c0,0.2,0.2,0.3,0.6,0.5h0.4v-0.2c0-0.2-0.2-0.4-0.4-0.4L134.8,253.2z
		 M135.8,262.6v0.2c0.2,0,0.4,0.2,0.4,0.7l1.3-0.1c0-0.5,0.2-0.7,0.5-0.7v-0.2l-0.9,0.2H137c-0.2,0-0.4-0.1-0.4-0.4
		C136.3,262.5,136.1,262.5,135.8,262.6z M136.4,291.1v0.2h0.4v-0.2L136.4,291.1z M138.1,274.6l-1-0.1l-0.7,1.1v0.2h0.5l1.1-0.6
		c0,0.5,0.5,0.8,1.4,0.9l0,0.4l0.4,0c0-0.7,0.3-1.1,1.1-1.3l0.8,0.1l0.9-0.6c0.2,0.1,0.5,0.1,0.8,0.1l0.2-0.4v-0.5h-0.2l-0.6,0.4
		c-0.3,0-0.7-0.1-1.1-0.3c0,0.1-0.1,0.3-0.2,0.5l-0.4-0.2l-0.5,0.4l-0.6,0v-0.2l0.4-0.6c-0.8,0-1.2,0-1.2-0.1
		C139.1,273.8,138.7,274.1,138.1,274.6z M136.9,248.7c0,0.3-0.1,0.6-0.3,0.9c0,0.2,0.4,0.4,1.3,0.5c0-0.2,0.2-0.4,0.7-0.4
		c0-0.3-0.1-0.7-0.4-1.1c-0.1,0-0.2,0.1-0.2,0.2l-1-0.1H136.9z M137,266.4l0.4,0.2h0.2c0.3-0.2,0.6-0.4,0.8-0.4l-0.1-0.7l-0.2,0
		C137.5,265.6,137.2,265.9,137,266.4z M138.2,244.4c0.2,0,0.4,0.2,0.6,0.7l-0.4,0.2l-0.6,0c0-0.1-0.1-0.3-0.2-0.6L138.2,244.4z
		 M138.7,277.7h0.4l0-0.4C138.7,277.4,138.6,277.5,138.7,277.7z M139.6,261.8v-0.2c-0.6,0.1-0.9,0.5-0.9,1.3h0.2l1-0.2
		c0.4,0.8,0.6,1.3,0.8,1.3h0.2c0-0.2,0.3-0.7,0.9-1.5v-0.2c-0.4-0.6-0.7-0.9-0.8-0.9L139.6,261.8z M138.7,271.6v0.2
		c0.1,0.2,0.2,0.4,0.4,0.3h0.6c0-0.2,0.1-0.4,0.3-0.8c-0.1,0-0.2,0-0.2-0.2C139.5,271.5,139.1,271.6,138.7,271.6z M139.4,274.4
		l0,0.6c-0.3,0-0.4-0.1-0.4-0.4L139.4,274.4z M141.2,279.5c0.1,0.4-0.3,0.7-1.1,0.8v0.4c1,0.1,1.7,0.2,2,0.3l0.9-0.6l0.4,0.2
		c0.1,0,0.2-0.1,0.2-0.2l1,0.1l0.8,0l0-0.4c0-0.3-0.3-0.5-0.8-0.5c-0.3,0.1-0.5,0.2-0.6,0.2c0-0.2-0.1-0.4-0.4-0.4
		c0,0.2-0.2,0.4-0.6,0.6l-0.2,0C142.5,279.8,142,279.6,141.2,279.5z M140.3,287.2h0.4v-0.4C140.4,286.9,140.3,287,140.3,287.2z
		 M140.7,297.7v0.4l0.4,0v-0.4L140.7,297.7z M141.6,278.2c0,0.4-0.2,0.5-0.6,0.6c0,0.2,0.2,0.3,0.6,0.5h0.2c0.2,0,0.4-0.2,0.4-0.4
		v-0.2C142.1,278.5,141.9,278.3,141.6,278.2z M141.4,285.9c0,0.4-0.1,0.8-0.4,1.3l0.8,0.3c0-0.4,0-0.6,0.2-0.6
		C141.8,286.2,141.5,285.9,141.4,285.9z M141.8,284l0,0.4c0.1,0.2,0.2,0.4,0.4,0.4c0.4-0.4,0.7-0.6,0.9-0.6
		c-0.2-0.6-0.3-0.9-0.4-0.9C142.2,283.5,141.9,283.8,141.8,284z M142,287.7l0,0.6l0.4,0v-0.2C142.4,287.8,142.2,287.7,142,287.7z
		 M142.2,259.5h0.2v0.4h-0.2V259.5z M144.6,290.2v0.2h0.4v-0.2H144.6z M148,289.3l0.2,0l0,0.4l-0.2,0V289.3z M152.4,296.6
		c0.8,0.3,1.2,0.5,1.2,0.7v0.4c0,0.2-0.2,0.4-0.6,0.4l-1.3-0.3v-0.2C152,297,152.3,296.7,152.4,296.6z"/>
</g>
<g>
	<path class="st17" d="M173.5,248.3c0.7,0.7,1.3,1.4,1.6,2.2c-0.1,0.6-0.2,1-0.4,1.2l0.1,0.2c-0.2,0.3-0.2,0.5-0.2,0.6
		c0.1,0,0.1,0,0.1,0.1l-0.9,0.5c-0.2-0.1-0.3-0.1-0.4-0.1l-1.2,0.7l0.5,0.5l0.6-0.1h0.6c0.2,0,0.2,0.1,0.2,0.2c-0.1,0-0.1,0-0.1,0.1
		c0.1,0,0.2,0,0.4,0.1l0.7-0.1c0.2,0,0.2,0.1,0.2,0.2v0.1c0,0.2-0.1,0.2-0.2,0.2l-0.7-0.1l0.1,0.2v0.1c-0.3,0-0.6,0.2-1,0.6
		c0.1,0.3,0.3,0.5,0.7,0.7h0.2l0.2-0.1l0.1,0.2c-0.1,0-0.1,0-0.1,0.1c0.2,0,0.2,0.1,0.2,0.2v0.2c-0.3,0.6-1,0.9-2.1,0.9v0.1
		c0.6,0,1.1,0.3,1.5,0.9l0.6-0.1l0.2,0.5c-0.1,0.4-0.2,0.6-0.5,0.6v0.2c0.1,0.6,0.2,0.8,0.4,0.9c-0.2,0.4-0.3,0.6-0.5,0.6l-0.2-0.1
		c-0.2,0.1-0.3,0.1-0.4,0.1c0-0.1,0-0.1-0.1-0.1c0,0.2-0.3,0.4-1,0.6c1.1,0.8,1.8,1.2,1.9,1.2v0.2c-0.7,0-1,0.4-1,1.1
		c0.1,0,0.1,0,0.1,0.1l-0.4,0.2c0.1,0.3,0.3,0.6,0.7,1v0.4l-0.1,0.2l0.9-0.1h0.2v0.1c-0.1,0.2-0.1,0.3-0.1,0.4h0.1
		c0.3-0.6,0.7-0.9,1.2-0.9c0.6,0.6,0.9,1,0.9,1.1c0.1,0,0.6-0.2,1.2-0.7h0.6v-0.2c0.5,0.2,0.9,0.2,1.1,0.2l0.9-0.7h0.5l0.5,0.6
		c0.1,0,0.4-0.3,0.9-0.9c0.4,0.2,0.6,0.5,0.6,0.9c0.3-0.2,0.7-0.5,1.2-0.7c0.2,0.3,0.4,0.6,0.4,0.7c-0.2,0-0.2,0.1-0.2,0.2
		c0.1,0.2,0.1,0.3,0.1,0.4h-0.1c-0.1,0-0.1,0-0.1-0.1c-0.4,0.1-0.8,0.4-1.1,0.6l-0.4-0.2l-0.4,0.2h-0.6v0.2h0.2l0.6-0.1
		c0,0.1,0.2,0.3,0.5,0.5h0.2c0-0.3,0.5-0.6,1.5-0.9c0.1-0.3,0.2-0.5,0.4-0.5l0.2,0.1c0-0.1,0.1-0.2,0.4-0.4h0.1c0.1,0,0.1,0,0.1,0.1
		c0.2-0.1,0.3-0.1,0.4-0.1l-0.1-0.6v-0.2h0.1c0.1,0,0.1,0,0.1,0.1l1.1-0.2l0.6,0.4l-0.4,0.7c0.1,0.1,0.1,0.3,0.1,0.5l-0.2,0.4
		l0.2,0.1c0.2,0,0.2-0.1,0.2-0.2c-0.1,0-0.1,0-0.1-0.1c0.6-0.3,1.1-0.5,1.6-0.6c0.3-0.2,0.7-0.6,1-1c0.6-0.2,1-0.2,1.1-0.2l0.1,0.2
		l-0.1,0.6c0.5-0.2,0.7-0.5,0.7-1c0-0.1,0.1-0.2,0.4-0.4c0.2,0,0.2,0.1,0.2,0.4c0.2,0,0.2-0.1,0.2-0.2c-0.1,0-0.1,0-0.1-0.1
		c0.2-0.1,0.6-0.2,1.4-0.2c0.2,0.1,0.3,0.1,0.4,0.1v0.1c-0.2,0.7-0.4,1-0.5,1h-0.1l-0.6-0.1l0.1,0.2v0.1c-0.3,0.4-0.5,0.7-0.5,0.7
		l0.2,0.1h0.1c0-0.3,0.1-0.5,0.2-0.5c0.1,0,0.3,0.2,0.5,0.5v0.6h0.4l0.4-0.2l0.6,0.1c0-0.1,0-0.1,0.1-0.1c0.2,0.3,0.4,0.5,0.4,0.6
		l-0.1,0.2c0.1,0.1,0.1,0.3,0.1,0.5c0,0.2-0.1,0.2-0.2,0.2s-0.2-0.1-0.2-0.4l-0.5,0.4l-0.6-0.1c-0.3,0-0.5,0.3-0.6,1l0.4,0.5v0.4
		h0.5v0.7c0,0.2-0.1,0.2-0.2,0.2c0.1,0.4,0.2,0.6,0.2,0.6c0.6-0.2,0.9-0.4,1-0.4l0.6,0.9v0.1c-0.4,0.7-0.6,1-0.7,1h-0.1
		c-0.2-0.2-0.4-0.2-0.5-0.2c-0.2,0-0.5,0.5-0.9,1.5c-0.5,0.3-1,0.5-1.5,0.6c-0.2,0.5-0.3,0.7-0.5,0.7h-0.4l-0.4-0.2l-0.5,1.4h-0.4
		c-0.1,0-0.3-0.2-0.5-0.5c0.2-0.4,0.3-0.6,0.5-0.6l-0.1-0.9v-0.1c1.2-0.9,1.7-1.4,1.7-1.5c-0.1-0.2-0.1-0.3-0.1-0.4h-0.2
		c0,0.4-0.5,0.8-1.4,1.2c0,0.2-0.1,0.2-0.2,0.2c0-0.1,0-0.1-0.1-0.1l0.1-0.2v-0.1l-0.5-0.6v-0.1l0.4-0.5c-0.1,0-0.3-0.1-0.5-0.2
		c0,0.6-0.2,0.9-0.5,1h-0.1l-0.6-0.1c0,0.4-0.4,0.6-1.2,0.7c0,0.8,0.4,1.3,1.1,1.4v0.1c0,0.1-0.2,0.3-0.6,0.5l-0.5-0.4l-0.5,0.4
		l-0.2-0.1l-0.2,0.1c-0.1,0-0.2,0-0.4-0.1c-0.6,0.2-1,0.2-1.1,0.2c-0.1-0.1-0.3-0.1-0.5-0.1c0,0.2-0.1,0.4-0.2,0.4l-0.1-0.2v-0.1
		c0.4-0.2,0.7-0.8,1-1.7v-0.1h-0.4c-0.3,0.4-0.8,0.7-1.7,1.1c0,0.2,0,0.4-0.1,0.5c0.1,0.2,0.1,0.3,0.1,0.4l-0.2,0.1
		c-0.1-0.1-0.3-0.1-0.5-0.1l-0.2,0.5c0.1,0,0.2,0.1,0.4,0.4v0.1l-1-0.5H182c-0.2,0-0.4,0-0.5,0.1c-0.5-0.3-0.9-0.5-1.1-0.5l0.1,0.2
		c-0.1,0.4-0.4,0.6-0.6,0.6l-0.2-0.1c-0.2,0.1-0.3,0.1-0.4,0.1c0-0.1-0.1-0.2-0.4-0.4h-0.2c0,0.2-0.2,0.5-0.5,0.6l-0.2-0.4
		c0-0.6,0.5-1,1.6-1.2c0-0.2,0.1-0.2,0.2-0.2l0.2,0.1l-0.1,0.2v0.2h0.6c0-0.4,0.1-0.7,0.2-1c-0.3-0.1-0.5-0.2-0.5-0.4l0.1-0.2h-0.2
		l-0.5,0.6h-0.1l-0.4-0.2h-0.5c-0.6,0.7-1.3,1.2-2.1,1.7c-0.1,0-0.3-0.2-0.5-0.5v-0.1c0-0.2,0.1-0.2,0.2-0.2c-0.3-0.6-0.5-1-0.5-1.1
		c-0.1,0.2-0.4,0.9-0.9,2.2h-0.2l-0.2-0.1c0,0.1-0.1,0.3-0.2,0.5c0.1,0.2,0.1,0.3,0.1,0.4c-0.1,0-0.4,0.2-0.9,0.5
		c0-0.2-0.1-0.2-0.2-0.2c-0.1,0-0.3,0.2-0.6,0.7l0.2,0.1c0.2,0,0.5-0.1,0.9-0.4l1.1,1.2v0.4h-0.4v0.1l0.2,0.4v0.1
		c-0.1,0-0.1,0-0.1-0.1c-0.5,0-0.9,0.4-1.1,1.1c0.7,0.2,1.1,0.5,1.1,0.7c0,0.2-0.1,0.2-0.2,0.2l0.1,0.2v0.2c0,0.2-0.1,0.2-0.2,0.2
		c-0.2-0.4-0.5-0.6-0.9-0.6h-0.2l0.2,0.4l-0.1,0.7c0.1,0.2,0.3,0.5,0.7,0.6c0-0.1,0.1-0.2,0.4-0.4c0.2,0.1,0.4,0.3,0.4,0.7
		c-0.3,0.4-0.6,0.6-0.9,0.6c0-0.2-0.1-0.2-0.2-0.2c0,0.5-0.1,0.8-0.2,1l0.4,0.5v0.4c-0.2,0.4-0.4,0.6-0.5,0.6l-0.9-0.1v0.1l0.4,0.6
		c-0.1,0-0.2,0.1-0.4,0.4c0.1,0.1,0.4,0.1,0.7,0.1c0-0.2,0.1-0.2,0.2-0.2h0.1c0.2,0,0.2,0.1,0.2,0.2c-0.1,0.2-0.3,0.4-0.7,0.4
		c0,0.2,0.2,0.2,0.6,0.2v0.4c0,0.2-0.1,0.2-0.2,0.2c-0.2-0.3-0.4-0.5-0.4-0.6h-0.1c0,0.4-0.5,0.6-1.2,0.6v0.1c0,0.2,0.1,0.2,0.2,0.2
		c0.1-0.1,0.3-0.1,0.5-0.1c0,0.2,0.2,0.4,0.5,0.4v0.1c0,0.1-0.2,0.3-0.5,0.5l-0.4-0.2h-0.1l0.1,0.2c-0.6,0.6-1.1,0.9-1.6,0.9
		l-0.1-0.2v-0.1c0-0.1,0.1-0.2,0.4-0.4h0.6c0-0.1,0.1-0.3,0.2-0.5c-0.2,0-0.2-0.3-0.2-0.9c-0.2,0-0.2,0.1-0.2,0.2l-1.2-0.2l-0.2,0.4
		c0.2,0,0.2,0.1,0.2,0.2l-0.2,0.1c0-0.2-0.3-0.5-1-0.7l-0.2,0.1h-0.1c-0.2,0-0.2-0.1-0.2-0.2c0-0.1,0.3-0.4,0.9-0.9
		c0,0.1,0,0.1,0.1,0.1l0.6-0.7v-0.4c-0.4,0-0.6-0.1-0.6-0.2l-0.2,0.1l-0.2-0.1l-0.6,0.1c-0.2-0.6-0.4-1.3-0.5-2.1v-0.4
		c-0.2,0-0.4-0.1-0.4-0.2v-0.4c0-0.1,0.2-0.3,0.7-0.7l-0.5-1v-0.2c0.5-0.6,0.9-0.9,1.2-0.9v-0.4c-0.5,0-0.7-0.1-0.7-0.2v-0.2
		c0-0.1,0-0.1,0.1-0.1c-0.2-0.3-0.2-0.5-0.2-0.7l0.4-0.2l-0.1-0.2v-0.1h0.6l-0.5-0.6v-0.1l0.5-0.9l-0.2-0.1l-0.4,0.2l0.1,0.2v0.1
		h-0.4c-0.2,0-0.3-0.5-0.4-1.4c-0.1,0-0.1,0-0.1-0.1c0.1,0,0.1,0,0.1-0.1h-0.1l-0.6,0.5c-0.2-0.2-0.5-0.2-0.9-0.2v0.1h-0.1l-0.2-0.1
		l0.1-0.2v-0.1h-0.2c-0.4,0.2-0.6,0.4-0.6,0.6h-0.2c0-0.6,0.5-1.2,1.6-1.7l0.4,0.2c0.1,0,0.3-0.3,0.5-0.9c-0.1,0-0.1,0-0.1-0.1
		l-0.2,0.1c-0.4-0.2-0.6-0.5-0.6-0.7h-0.2c-0.2,0-0.4,0.4-0.6,1.1c-0.3,0.3-0.6,0.5-1,0.5l0.1,0.2c-0.1,0.3-0.3,0.6-0.6,0.7H163
		l-0.6-0.1c0,0.2-0.1,0.2-0.2,0.2l-0.2-0.4c0-0.1,0.2-0.2,0.6-0.4c0-0.2-0.1-0.5-0.4-0.9c0.1-0.2,0.1-0.3,0.1-0.4l-0.2-0.1h-0.1
		c-0.1,0.8-0.2,1.2-0.4,1.2c0,0.1,0,0.1,0.1,0.1l-0.1,0.6c0,0.2,0.2,0.4,0.6,0.4v0.4c-0.1,0-0.3,0.1-0.5,0.2
		c-0.8-0.4-1.2-0.9-1.2-1.6c-0.2,0.1-0.3,0.1-0.4,0.1l0.1,0.2v0.4l-0.2,0.4v0.1c0.2,0,0.4,0.1,0.4,0.2v0.1h-0.4V279h-0.2
		c0,0.1,0,0.2-0.1,0.4c0.1,0.2,0.1,0.3,0.1,0.4l-0.2,0.1c-0.7-0.1-1.2-0.2-1.5-0.4c0.1-0.6,0.2-0.9,0.4-0.9h0.1l0.6,0.1
		c0-0.2,0.2-0.5,0.5-0.9c-0.2-0.5-0.5-0.9-0.9-1.1c0,0.4-0.4,0.7-1.1,1c-0.4,0-0.7-0.2-0.9-0.5v-0.1c0-0.1,0.1-0.4,0.2-1v-0.4
		c-0.8,0-1.3-0.5-1.4-1.6c-0.4-1.3-0.6-1.9-0.6-2c0.4-0.6,0.9-1.2,1.5-1.6c0-0.4,0.7-0.8,2-1.5h0.1v0.7c0.1,0,0.6-0.1,1.4-0.2
		l0.4,0.2h0.1c0.1-0.4,0.2-0.6,0.4-0.6h0.4c0-0.2,0.1-0.2,0.2-0.2l0.4,0.2h0.1c0-0.5,0.6-0.8,1.9-1.1v0.2h-0.2v0.2
		c0.5,0,0.9-0.2,1.4-0.6l0.2,0.4l-0.4,0.5c0.2,0,0.6,0.2,1.1,0.7l0.1-0.2c-0.3,0-0.5-0.1-0.5-0.4v-0.2l1.1-1.2
		c0.1,0,0.3,0.2,0.6,0.7h0.1l-0.1-0.6c0-0.2,0.1-0.2,0.2-0.2h0.2c0.4,0.2,0.6,0.5,0.6,0.7h0.1c0.2,0,0.2-0.1,0.2-0.2l-0.1-0.7h-0.1
		v0.2h-0.2v-0.1c0-0.3,0.4-0.6,1.2-1v-0.4c0-0.1-0.2-0.3-0.5-0.5l-0.5,0.2l-0.4-0.7v-0.1l0.6-1.1l-0.1-0.9v-0.2
		c0-0.1,0.3-0.4,0.9-0.7c0-0.2,0.1-0.2,0.4-0.2v-0.2l-0.6,0.1h-0.4c-0.2,0-0.2-0.1-0.2-0.2v-0.9l0.6-1.1c-0.2-0.3-0.2-0.6-0.2-0.7
		l0.2-0.1c-0.2-0.3-0.2-0.6-0.2-0.7l0.6-0.4l-0.1-0.2c0-0.2,0.2-0.2,0.5-0.2l-1.1-0.7c0-0.8,0.1-1.2,0.2-1.2l-0.1-0.2V254
		c0-0.2,0.2-0.7,0.5-1.5c-0.2,0-0.2-0.1-0.2-0.2V252c0.5-1.1,1.3-1.6,2.2-1.6l-0.1-0.6C172.3,248.8,173.1,248.3,173.5,248.3z
		 M158.4,276.4c0,0.2,0.1,0.2,0.2,0.2h0.1l0.1-0.6h-0.1C158.7,276,158.5,276.1,158.4,276.4z M159.8,277.4v0.2h0.1v-0.2H159.8z
		 M160.1,275.9h0.2v-0.2C160.2,275.6,160.1,275.7,160.1,275.9z M160.5,289.7h0.1v0.2h-0.4C160.3,289.8,160.4,289.7,160.5,289.7z
		 M162.9,273.9l0.4,0.6c-0.3,0.1-0.5,0.2-0.5,0.4c0.1,0.1,0.1,0.3,0.1,0.5c-0.2,0-0.2,0.1-0.2,0.2l-0.2-0.1H162l0.1,0.6h0.4
		c0-0.1,0.3-0.3,1-0.5c0.2-0.3,0.2-0.5,0.2-0.6c-0.2,0-0.2-0.1-0.2-0.2l0.1-0.5l-0.2-0.6C163,273.7,162.9,273.8,162.9,273.9z
		 M165.2,272.8h0.2v-0.2C165.3,272.6,165.2,272.6,165.2,272.8z M166.6,277v0.1l0.1,0.2c-0.1,0.2-0.1,0.3-0.1,0.4h0.5v-0.1l-0.1-0.6
		H166.6z M168,278.8c0,0.2,0.1,0.2,0.2,0.2c0-0.1,0-0.1,0.1-0.1c0,0.2,0.1,0.2,0.2,0.2h0.1l0.7-0.6c0.1,0.1,0.3,0.1,0.5,0.1l0.2-0.4
		V278h-0.1C169.3,278,168.6,278.3,168,278.8z M168.2,289.8h0.2v0.1h-0.2V289.8z M168.4,287.1v0.4c0.3,0,0.6,0.1,0.9,0.4h0.1
		c0-0.2,0-0.2,0.1-0.2c0-0.1-0.2-0.3-0.7-0.6v-0.1h-0.1C168.5,286.9,168.4,287,168.4,287.1z M168.7,280.3v0.4
		c0.3-0.2,0.6-0.4,0.7-0.4v-0.1h-0.1C169.1,280.3,168.9,280.3,168.7,280.3z M169.3,293.3c0.1,0.2,0.1,0.3,0.1,0.4l0.2-0.1h0.5v0.1
		c0,0.1-0.1,0.2-0.4,0.4h-0.1l-0.2-0.1c0,0.1,0,0.1-0.1,0.1l-0.2-0.4v-0.1C169.1,293.4,169.1,293.3,169.3,293.3z M169.2,292.6h0.1
		v0.2h-0.1V292.6z M169.3,258.2v0.1h0.2v-0.1H169.3z M170.3,293.9h0.1c0,0.2,0.2,0.5,0.5,0.7v0.6c0,0.2-0.1,0.2-0.2,0.2h-0.2
		c-0.2,0-0.4-0.4-0.7-1.2L170.3,293.9z M169.9,280.5l0.5,0.5h0.1v-0.1c-0.2-0.3-0.2-0.5-0.2-0.6h-0.1
		C170,280.2,169.9,280.3,169.9,280.5z M169.9,289.4v0.1h0.4v-0.1H169.9z M170.4,289.5c0,0.2-0.1,0.2-0.2,0.2
		c0.1,0.2,0.1,0.3,0.1,0.4h0.1c0.2,0,0.2-0.1,0.2-0.2v-0.1C170.6,289.6,170.6,289.5,170.4,289.5z M171.9,287.6h0.1
		c0.4-0.2,0.6-0.4,0.6-0.5V287h-0.1C172.3,287.1,172.1,287.3,171.9,287.6z M172.4,264.9c0,0.1,0,0.2-0.1,0.4l0.2,0.1l0.1-0.2
		C172.6,265,172.5,264.9,172.4,264.9z M172.4,257.9v0.2h0.2C172.6,258,172.5,257.9,172.4,257.9z M172.5,288.2v0.1l0.1,0.2
		c0.3-0.1,0.5-0.2,0.5-0.4H172.5z M173.4,266.9v0.2c0.2,0.2,0.2,0.5,0.2,1c0.3-0.1,0.5-0.1,0.5-0.2l-0.1-0.6c0.1,0,0.1,0,0.1-0.1
		C173.8,266.9,173.6,266.9,173.4,266.9z M174.6,263.3h0.5v0.1c0,0.2-0.1,0.2-0.2,0.2h-0.2V263.3z M175,268.1v0.1
		c0.2,0.3,0.4,0.6,0.4,0.9h0.4c0-0.4,0.1-0.6,0.2-0.6c0,0.2,0.1,0.2,0.2,0.2h0.1l-0.5-0.6l-0.2,0.1L175,268.1z M175.8,274.8
		c0,0.1-0.1,0.3-0.2,0.5l0.1,0.6h0.1c0-0.4,0.1-0.7,0.4-1l-0.2-0.1H175.8z M178.8,274.3c-1,0.8-1.5,1.2-1.6,1.2v0.6h0.1
		c0.2-0.1,0.3-0.1,0.4-0.1c0,0.2,0.1,0.2,0.2,0.2c0-0.3,0.1-0.5,0.2-0.5h0.1l0.6,0.1c0-0.2,0.1-0.2,0.2-0.2
		c-0.1-0.2-0.1-0.3-0.1-0.4l0.1-0.2c-0.1-0.1-0.1-0.3-0.1-0.5c0.1,0,0.1,0,0.1-0.1C179.1,274.4,179,274.4,178.8,274.3z M178.6,270.7
		l0.4,0.5c-0.2,0-0.2,0.1-0.2,0.2h0.1c0.1,0,0.5-0.1,1.1-0.4c0,0.1,0.1,0.2,0.4,0.4h0.1c0.2-0.2,0.4-0.2,0.6-0.2v-0.4
		c-0.2,0-0.4-0.1-0.6-0.2h-0.2l-0.4,0.2h-0.6c-0.2,0-0.2-0.1-0.2-0.2C178.8,270.6,178.6,270.7,178.6,270.7z M180.2,268.1
		c0.1,0.2,0.1,0.3,0.1,0.4c0.4,0,0.6-0.1,0.6-0.4h0.4l0.9,0.6h0.2v-0.2c-0.4,0-0.6-0.1-0.6-0.2c0.1-0.1,0.1-0.3,0.1-0.5
		c-0.2-0.1-0.4-0.2-0.4-0.2c-0.2,0.1-0.3,0.1-0.4,0.1l-0.5-0.1C180.5,267.5,180.3,267.7,180.2,268.1z M180.4,273.3v0.1
		c0,0.2,0.1,0.2,0.2,0.2l-0.4,0.7c0.1,0.4,0.2,0.6,0.4,0.6h0.1c0-0.2,0.1-0.5,0.2-0.9l-0.1-0.2c0-0.3,0.4-0.7,1.2-1.2
		c0-0.1-0.2-0.3-0.5-0.5h-0.4c-0.3,0.6-0.6,0.9-0.7,0.9L180.4,273.3z M180.4,275.1v0.4h0.5c0-0.1-0.1-0.2-0.4-0.4H180.4z
		 M182.5,275.8c-0.3,0.6-0.6,0.9-0.9,0.9v0.1c0,0.1,0.2,0.3,0.6,0.5c0.3-0.2,0.5-0.4,0.6-0.7C182.8,276,182.7,275.8,182.5,275.8z
		 M184.6,276.9h0.2v0.4c0,0.1-0.2,0.3-0.5,0.5c-0.1,0-0.2-0.1-0.4-0.4C184,277.2,184.2,277.1,184.6,276.9z M184.1,274.6v0.2
		c0.2,0,0.4,0.1,0.6,0.2h0.1c0.1,0,0.3-0.2,0.5-0.5l-0.4-0.2C184.5,274.6,184.2,274.6,184.1,274.6z M185.2,269.6
		c0.1,0,0.2,0,0.4,0.1c0.4-0.2,0.9-0.3,1.6-0.4v-0.2c-0.3,0-0.5,0-0.5-0.1l-0.2,0.1l-0.2-0.1C185.8,269,185.5,269.2,185.2,269.6z
		 M185.2,276.2h0.1v0.2h-0.1V276.2z M185.5,271.7v0.5h0.1c0-0.1,0-0.2,0.1-0.4L185.5,271.7z M187.2,276.4v0.2h0.1v-0.2H187.2z
		 M187.6,285.9h0.2v0.1h-0.2V285.9z M187.8,266.5v0.2c0.2,0,0.2-0.1,0.2-0.2H187.8z M190.4,266.1h0.4v0.2c0,0.1-0.3,0.3-1,0.5h-0.1
		c-0.2,0-0.2-0.1-0.2-0.2c0-0.2,0.1-0.2,0.2-0.2c0.2,0.1,0.3,0.1,0.4,0.1C190.1,266.4,190.2,266.2,190.4,266.1z M190.2,276.7
		c0.1,0.1,0.2,0.5,0.2,1.1c-0.1,0.3-0.2,0.5-0.4,0.5l-0.5-0.6v-0.6C189.6,277,189.8,276.8,190.2,276.7z M190.9,273.8
		c0.3,0,0.8-0.2,1.2-0.5h0.5c0.2,0,0.2,0.1,0.2,0.2l-0.2,0.4v0.1c0.6,0.1,0.9,0.2,0.9,0.4l-0.1,0.2l0.4,0.2l-0.1,0.2v0.1
		c0.3,0,0.5,0,0.6,0.1l0.1-0.2l-0.4-0.5c0-0.1,0-0.1,0.1-0.1c-0.2-0.3-0.2-0.6-0.2-1v-0.2c-0.5,0-0.8-0.2-1-0.6h-0.1
		C191.7,272.9,191.1,273.3,190.9,273.8z M191.3,265.9h0.2v0.1h-0.2V265.9z M191.4,267.2v0.4h0.2c0.1,0,0.2-0.1,0.4-0.4l-0.2-0.1
		C191.6,267.2,191.5,267.2,191.4,267.2z M192.3,268.7v0.6c0,0.2,0.1,0.2,0.2,0.2c0.2-0.3,0.4-0.5,0.6-0.5v-0.2
		C192.9,268.8,192.6,268.8,192.3,268.7z M194.3,268l-0.5,0.9h0.2l0.5-0.2c0.1,0.3,0.2,0.5,0.4,0.5c0.3-0.2,0.6-0.4,0.7-0.4v-0.1
		c-0.1,0-0.2,0-0.4-0.1c-0.2,0.1-0.3,0.1-0.4,0.1C194.8,268.3,194.6,268,194.3,268z M197.4,266.2l-0.1,0.2l0.1,0.7
		c-0.2,0.1-0.3,0.1-0.4,0.1l-0.2-0.1c-0.1,0.1-0.3,0.1-0.5,0.1l-0.6-0.9v-0.1h0.1l0.4,0.2C196.5,266.4,196.9,266.2,197.4,266.2z
		 M195.6,273.8v0.2c0.1,0,0.2-0.1,0.4-0.4v-0.1h-0.1C195.7,273.5,195.6,273.6,195.6,273.8z M197.8,269.4h0.1c0.2,0,0.2,0.1,0.2,0.2
		v0.1c0,0.1,0,0.1-0.1,0.1l0.1,0.2c-0.1,0.2-0.1,0.3-0.1,0.4c0.2,0,0.2,0.1,0.2,0.2v0.4c0,0.2-0.1,0.2-0.2,0.2h-0.4l-0.5-0.6v0.1
		c0.1,0.5,0.1,0.8,0.1,1l-0.5,0.4h-0.1l-0.2-0.1l0.1-0.2v-0.1c-0.1,0-0.2,0-0.4-0.1c0.1-0.5,0.2-0.7,0.2-0.7
		c-0.2-0.3-0.2-0.5-0.2-0.6l0.2-0.1c0.2,0.2,0.4,0.2,0.7,0.2C197.4,269.8,197.6,269.4,197.8,269.4z M197.4,266.4h0.2v0.1h-0.2V266.4
		z"/>
	<path class="st17" d="M220.3,248.3c0.7,0.7,1.3,1.4,1.6,2.2c-0.1,0.6-0.2,1-0.4,1.2l0.1,0.2c-0.2,0.3-0.2,0.5-0.2,0.6
		c0.1,0,0.1,0,0.1,0.1l-0.9,0.5c-0.2-0.1-0.3-0.1-0.4-0.1l-1.2,0.7l0.5,0.5l0.6-0.1h0.6c0.2,0,0.2,0.1,0.2,0.2c-0.1,0-0.1,0-0.1,0.1
		c0.1,0,0.2,0,0.4,0.1l0.7-0.1c0.2,0,0.2,0.1,0.2,0.2v0.1c0,0.2-0.1,0.2-0.2,0.2l-0.7-0.1l0.1,0.2v0.1c-0.3,0-0.6,0.2-1,0.6
		c0.1,0.3,0.3,0.5,0.7,0.7h0.2l0.2-0.1l0.1,0.2c-0.1,0-0.1,0-0.1,0.1c0.2,0,0.2,0.1,0.2,0.2v0.2c-0.3,0.6-1,0.9-2.1,0.9v0.1
		c0.6,0,1.1,0.3,1.5,0.9l0.6-0.1l0.2,0.5c-0.1,0.4-0.2,0.6-0.5,0.6v0.2c0.1,0.6,0.2,0.8,0.4,0.9c-0.2,0.4-0.3,0.6-0.5,0.6l-0.2-0.1
		c-0.2,0.1-0.3,0.1-0.4,0.1c0-0.1,0-0.1-0.1-0.1c0,0.2-0.3,0.4-1,0.6c1.1,0.8,1.8,1.2,1.9,1.2v0.2c-0.7,0-1,0.4-1,1.1
		c0.1,0,0.1,0,0.1,0.1l-0.4,0.2c0.1,0.3,0.3,0.6,0.7,1v0.4l-0.1,0.2l0.9-0.1h0.2v0.1c-0.1,0.2-0.1,0.3-0.1,0.4h0.1
		c0.3-0.6,0.7-0.9,1.2-0.9c0.6,0.6,0.9,1,0.9,1.1c0.1,0,0.6-0.2,1.2-0.7h0.6v-0.2c0.5,0.2,0.9,0.2,1.1,0.2l0.9-0.7h0.5l0.5,0.6
		c0.1,0,0.4-0.3,0.9-0.9c0.4,0.2,0.6,0.5,0.6,0.9c0.3-0.2,0.7-0.5,1.2-0.7c0.2,0.3,0.4,0.6,0.4,0.7c-0.2,0-0.2,0.1-0.2,0.2
		c0.1,0.2,0.1,0.3,0.1,0.4h-0.1c-0.1,0-0.1,0-0.1-0.1c-0.4,0.1-0.8,0.4-1.1,0.6l-0.4-0.2l-0.4,0.2h-0.6v0.2h0.2l0.6-0.1
		c0,0.1,0.2,0.3,0.5,0.5h0.2c0-0.3,0.5-0.6,1.5-0.9c0.1-0.3,0.2-0.5,0.4-0.5l0.2,0.1c0-0.1,0.1-0.2,0.4-0.4h0.1c0.1,0,0.1,0,0.1,0.1
		c0.2-0.1,0.3-0.1,0.4-0.1l-0.1-0.6v-0.2h0.1c0.1,0,0.1,0,0.1,0.1l1.1-0.2l0.6,0.4l-0.4,0.7c0.1,0.1,0.1,0.3,0.1,0.5l-0.2,0.4
		l0.2,0.1c0.2,0,0.2-0.1,0.2-0.2c-0.1,0-0.1,0-0.1-0.1c0.6-0.3,1.1-0.5,1.6-0.6c0.3-0.2,0.7-0.6,1-1c0.6-0.2,1-0.2,1.1-0.2l0.1,0.2
		l-0.1,0.6c0.5-0.2,0.7-0.5,0.7-1c0-0.1,0.1-0.2,0.4-0.4c0.2,0,0.2,0.1,0.2,0.4c0.2,0,0.2-0.1,0.2-0.2c-0.1,0-0.1,0-0.1-0.1
		c0.2-0.1,0.6-0.2,1.4-0.2c0.2,0.1,0.3,0.1,0.4,0.1v0.1c-0.2,0.7-0.4,1-0.5,1h-0.1l-0.6-0.1l0.1,0.2v0.1c-0.3,0.4-0.5,0.7-0.5,0.7
		l0.2,0.1h0.1c0-0.3,0.1-0.5,0.2-0.5c0.1,0,0.3,0.2,0.5,0.5v0.6h0.4l0.4-0.2l0.6,0.1c0-0.1,0-0.1,0.1-0.1c0.2,0.3,0.4,0.5,0.4,0.6
		l-0.1,0.2c0.1,0.1,0.1,0.3,0.1,0.5c0,0.2-0.1,0.2-0.2,0.2s-0.2-0.1-0.2-0.4l-0.5,0.4l-0.6-0.1c-0.3,0-0.5,0.3-0.6,1l0.4,0.5v0.4
		h0.5v0.7c0,0.2-0.1,0.2-0.2,0.2c0.1,0.4,0.2,0.6,0.2,0.6c0.6-0.2,0.9-0.4,1-0.4l0.6,0.9v0.1c-0.4,0.7-0.6,1-0.7,1h-0.1
		c-0.2-0.2-0.4-0.2-0.5-0.2c-0.2,0-0.5,0.5-0.9,1.5c-0.5,0.3-1,0.5-1.5,0.6c-0.2,0.5-0.3,0.7-0.5,0.7h-0.4l-0.4-0.2l-0.5,1.4h-0.4
		c-0.1,0-0.3-0.2-0.5-0.5c0.2-0.4,0.3-0.6,0.5-0.6l-0.1-0.9v-0.1c1.2-0.9,1.7-1.4,1.7-1.5c-0.1-0.2-0.1-0.3-0.1-0.4h-0.2
		c0,0.4-0.5,0.8-1.4,1.2c0,0.2-0.1,0.2-0.2,0.2c0-0.1,0-0.1-0.1-0.1l0.1-0.2v-0.1l-0.5-0.6v-0.1l0.4-0.5c-0.1,0-0.3-0.1-0.5-0.2
		c0,0.6-0.2,0.9-0.5,1h-0.1l-0.6-0.1c0,0.4-0.4,0.6-1.2,0.7c0,0.8,0.4,1.3,1.1,1.4v0.1c0,0.1-0.2,0.3-0.6,0.5L235,277l-0.5,0.4
		l-0.2-0.1l-0.2,0.1c-0.1,0-0.2,0-0.4-0.1c-0.6,0.2-1,0.2-1.1,0.2c-0.1-0.1-0.3-0.1-0.5-0.1c0,0.2-0.1,0.4-0.2,0.4l-0.1-0.2v-0.1
		c0.4-0.2,0.7-0.8,1-1.7v-0.1h-0.4c-0.3,0.4-0.8,0.7-1.7,1.1c0,0.2,0,0.4-0.1,0.5c0.1,0.2,0.1,0.3,0.1,0.4l-0.2,0.1
		c-0.1-0.1-0.3-0.1-0.5-0.1l-0.2,0.5c0.1,0,0.2,0.1,0.4,0.4v0.1l-1-0.5h-0.1c-0.2,0-0.4,0-0.5,0.1c-0.5-0.3-0.9-0.5-1.1-0.5l0.1,0.2
		c-0.1,0.4-0.4,0.6-0.6,0.6l-0.2-0.1c-0.2,0.1-0.3,0.1-0.4,0.1c0-0.1-0.1-0.2-0.4-0.4h-0.2c0,0.2-0.2,0.5-0.5,0.6l-0.2-0.4
		c0-0.6,0.5-1,1.6-1.2c0-0.2,0.1-0.2,0.2-0.2l0.2,0.1l-0.1,0.2v0.2h0.6c0-0.4,0.1-0.7,0.2-1c-0.3-0.1-0.5-0.2-0.5-0.4l0.1-0.2H227
		l-0.5,0.6h-0.1l-0.4-0.2h-0.5c-0.6,0.7-1.3,1.2-2.1,1.7c-0.1,0-0.3-0.2-0.5-0.5v-0.1c0-0.2,0.1-0.2,0.2-0.2c-0.3-0.6-0.5-1-0.5-1.1
		c-0.1,0.2-0.4,0.9-0.9,2.2h-0.2l-0.2-0.1c0,0.1-0.1,0.3-0.2,0.5c0.1,0.2,0.1,0.3,0.1,0.4c-0.1,0-0.4,0.2-0.9,0.5
		c0-0.2-0.1-0.2-0.2-0.2c-0.1,0-0.3,0.2-0.6,0.7l0.2,0.1c0.2,0,0.5-0.1,0.9-0.4l1.1,1.2v0.4h-0.4v0.1l0.2,0.4v0.1
		c-0.1,0-0.1,0-0.1-0.1c-0.5,0-0.9,0.4-1.1,1.1c0.7,0.2,1.1,0.5,1.1,0.7c0,0.2-0.1,0.2-0.2,0.2l0.1,0.2v0.2c0,0.2-0.1,0.2-0.2,0.2
		c-0.2-0.4-0.5-0.6-0.9-0.6h-0.2l0.2,0.4l-0.1,0.7c0.1,0.2,0.3,0.5,0.7,0.6c0-0.1,0.1-0.2,0.4-0.4c0.2,0.1,0.4,0.3,0.4,0.7
		c-0.3,0.4-0.6,0.6-0.9,0.6c0-0.2-0.1-0.2-0.2-0.2c0,0.5-0.1,0.8-0.2,1l0.4,0.5v0.4c-0.2,0.4-0.4,0.6-0.5,0.6l-0.9-0.1v0.1l0.4,0.6
		c-0.1,0-0.2,0.1-0.4,0.4c0.1,0.1,0.4,0.1,0.7,0.1c0-0.2,0.1-0.2,0.2-0.2h0.1c0.2,0,0.2,0.1,0.2,0.2c-0.1,0.2-0.3,0.4-0.7,0.4
		c0,0.2,0.2,0.2,0.6,0.2v0.4c0,0.2-0.1,0.2-0.2,0.2c-0.2-0.3-0.4-0.5-0.4-0.6h-0.1c0,0.4-0.5,0.6-1.2,0.6v0.1c0,0.2,0.1,0.2,0.2,0.2
		c0.1-0.1,0.3-0.1,0.5-0.1c0,0.2,0.2,0.4,0.5,0.4v0.1c0,0.1-0.2,0.3-0.5,0.5l-0.4-0.2h-0.1l0.1,0.2c-0.6,0.6-1.1,0.9-1.6,0.9
		l-0.1-0.2v-0.1c0-0.1,0.1-0.2,0.4-0.4h0.6c0-0.1,0.1-0.3,0.2-0.5c-0.2,0-0.2-0.3-0.2-0.9c-0.2,0-0.2,0.1-0.2,0.2l-1.2-0.2l-0.2,0.4
		c0.2,0,0.2,0.1,0.2,0.2l-0.2,0.1c0-0.2-0.3-0.5-1-0.7l-0.2,0.1H215c-0.2,0-0.2-0.1-0.2-0.2c0-0.1,0.3-0.4,0.9-0.9
		c0,0.1,0,0.1,0.1,0.1l0.6-0.7v-0.4c-0.4,0-0.6-0.1-0.6-0.2l-0.2,0.1l-0.2-0.1l-0.6,0.1c-0.2-0.6-0.4-1.3-0.5-2.1v-0.4
		c-0.2,0-0.4-0.1-0.4-0.2v-0.4c0-0.1,0.2-0.3,0.7-0.7l-0.5-1v-0.2c0.5-0.6,0.9-0.9,1.2-0.9v-0.4c-0.5,0-0.7-0.1-0.7-0.2v-0.2
		c0-0.1,0-0.1,0.1-0.1c-0.2-0.3-0.2-0.5-0.2-0.7l0.4-0.2l-0.1-0.2v-0.1h0.6l-0.5-0.6v-0.1l0.5-0.9l-0.2-0.1l-0.4,0.2l0.1,0.2v0.1
		h-0.4c-0.2,0-0.3-0.5-0.4-1.4c-0.1,0-0.1,0-0.1-0.1c0.1,0,0.1,0,0.1-0.1h-0.1l-0.6,0.5c-0.2-0.2-0.5-0.2-0.9-0.2v0.1h-0.1l-0.2-0.1
		l0.1-0.2v-0.1h-0.2c-0.4,0.2-0.6,0.4-0.6,0.6H211c0-0.6,0.5-1.2,1.6-1.7l0.4,0.2c0.1,0,0.3-0.3,0.5-0.9c-0.1,0-0.1,0-0.1-0.1
		l-0.2,0.1c-0.4-0.2-0.6-0.5-0.6-0.7h-0.2c-0.2,0-0.4,0.4-0.6,1.1c-0.3,0.3-0.6,0.5-1,0.5l0.1,0.2c-0.1,0.3-0.3,0.6-0.6,0.7h-0.4
		l-0.6-0.1c0,0.2-0.1,0.2-0.2,0.2l-0.2-0.4c0-0.1,0.2-0.2,0.6-0.4c0-0.2-0.1-0.5-0.4-0.9c0.1-0.2,0.1-0.3,0.1-0.4l-0.2-0.1h-0.1
		c-0.1,0.8-0.2,1.2-0.4,1.2c0,0.1,0,0.1,0.1,0.1l-0.1,0.6c0,0.2,0.2,0.4,0.6,0.4v0.4c-0.1,0-0.3,0.1-0.5,0.2
		c-0.8-0.4-1.2-0.9-1.2-1.6c-0.2,0.1-0.3,0.1-0.4,0.1l0.1,0.2v0.4l-0.2,0.4v0.1c0.2,0,0.4,0.1,0.4,0.2v0.1h-0.4V279h-0.2
		c0,0.1,0,0.2-0.1,0.4c0.1,0.2,0.1,0.3,0.1,0.4l-0.2,0.1c-0.7-0.1-1.2-0.2-1.5-0.4c0.1-0.6,0.2-0.9,0.4-0.9h0.1l0.6,0.1
		c0-0.2,0.2-0.5,0.5-0.9c-0.2-0.5-0.5-0.9-0.9-1.1c0,0.4-0.4,0.7-1.1,1c-0.4,0-0.7-0.2-0.9-0.5v-0.1c0-0.1,0.1-0.4,0.2-1v-0.4
		c-0.8,0-1.3-0.5-1.4-1.6c-0.4-1.3-0.6-1.9-0.6-2c0.4-0.6,0.9-1.2,1.5-1.6c0-0.4,0.7-0.8,2-1.5h0.1v0.7c0.1,0,0.6-0.1,1.4-0.2
		l0.4,0.2h0.1c0.1-0.4,0.2-0.6,0.4-0.6h0.4c0-0.2,0.1-0.2,0.2-0.2l0.4,0.2h0.1c0-0.5,0.6-0.8,1.9-1.1v0.2h-0.2v0.2
		c0.5,0,0.9-0.2,1.4-0.6l0.2,0.4l-0.4,0.5c0.2,0,0.6,0.2,1.1,0.7l0.1-0.2c-0.3,0-0.5-0.1-0.5-0.4v-0.2l1.1-1.2
		c0.1,0,0.3,0.2,0.6,0.7h0.1l-0.1-0.6c0-0.2,0.1-0.2,0.2-0.2h0.2c0.4,0.2,0.6,0.5,0.6,0.7h0.1c0.2,0,0.2-0.1,0.2-0.2l-0.1-0.7h-0.1
		v0.2H215v-0.1c0-0.3,0.4-0.6,1.2-1v-0.4c0-0.1-0.2-0.3-0.5-0.5l-0.5,0.2l-0.4-0.7v-0.1l0.6-1.1l-0.1-0.9v-0.2
		c0-0.1,0.3-0.4,0.9-0.7c0-0.2,0.1-0.2,0.4-0.2v-0.2l-0.6,0.1h-0.4c-0.2,0-0.2-0.1-0.2-0.2v-0.9l0.6-1.1c-0.2-0.3-0.2-0.6-0.2-0.7
		l0.2-0.1c-0.2-0.3-0.2-0.6-0.2-0.7l0.6-0.4l-0.1-0.2c0-0.2,0.2-0.2,0.5-0.2l-1.1-0.7c0-0.8,0.1-1.2,0.2-1.2l-0.1-0.2V254
		c0-0.2,0.2-0.7,0.5-1.5c-0.2,0-0.2-0.1-0.2-0.2V252c0.5-1.1,1.3-1.6,2.2-1.6l-0.1-0.6C219.1,248.8,219.9,248.3,220.3,248.3z
		 M205.2,276.4c0,0.2,0.1,0.2,0.2,0.2h0.1l0.1-0.6h-0.1C205.5,276,205.3,276.1,205.2,276.4z M206.6,277.4v0.2h0.1v-0.2H206.6z
		 M206.9,275.9h0.2v-0.2C207,275.6,206.9,275.7,206.9,275.9z M207.3,289.7h0.1v0.2h-0.4C207.1,289.8,207.2,289.7,207.3,289.7z
		 M209.7,273.9l0.4,0.6c-0.3,0.1-0.5,0.2-0.5,0.4c0.1,0.1,0.1,0.3,0.1,0.5c-0.2,0-0.2,0.1-0.2,0.2l-0.2-0.1h-0.4l0.1,0.6h0.4
		c0-0.1,0.3-0.3,1-0.5c0.2-0.3,0.2-0.5,0.2-0.6c-0.2,0-0.2-0.1-0.2-0.2l0.1-0.5l-0.2-0.6C209.8,273.7,209.7,273.8,209.7,273.9z
		 M212,272.8h0.2v-0.2C212.1,272.6,212,272.6,212,272.8z M213.4,277v0.1l0.1,0.2c-0.1,0.2-0.1,0.3-0.1,0.4h0.5v-0.1l-0.1-0.6H213.4z
		 M214.9,278.8c0,0.2,0.1,0.2,0.2,0.2c0-0.1,0-0.1,0.1-0.1c0,0.2,0.1,0.2,0.2,0.2h0.1l0.7-0.6c0.1,0.1,0.3,0.1,0.5,0.1l0.2-0.4V278
		H217C216.1,278,215.4,278.3,214.9,278.8z M215,289.8h0.2v0.1H215V289.8z M215.2,287.1v0.4c0.3,0,0.6,0.1,0.9,0.4h0.1
		c0-0.2,0-0.2,0.1-0.2c0-0.1-0.2-0.3-0.7-0.6v-0.1h-0.1C215.3,286.9,215.2,287,215.2,287.1z M215.5,280.3v0.4
		c0.3-0.2,0.6-0.4,0.7-0.4v-0.1h-0.1C215.9,280.3,215.7,280.3,215.5,280.3z M216.1,293.3c0.1,0.2,0.1,0.3,0.1,0.4l0.2-0.1h0.5v0.1
		c0,0.1-0.1,0.2-0.4,0.4h-0.1l-0.2-0.1c0,0.1,0,0.1-0.1,0.1l-0.2-0.4v-0.1C215.9,293.4,215.9,293.3,216.1,293.3z M216,292.6h0.1v0.2
		H216V292.6z M216.1,258.2v0.1h0.2v-0.1H216.1z M217.1,293.9h0.1c0,0.2,0.2,0.5,0.5,0.7v0.6c0,0.2-0.1,0.2-0.2,0.2h-0.2
		c-0.2,0-0.4-0.4-0.7-1.2L217.1,293.9z M216.7,280.5l0.5,0.5h0.1v-0.1c-0.2-0.3-0.2-0.5-0.2-0.6H217
		C216.8,280.2,216.7,280.3,216.7,280.5z M216.7,289.4v0.1h0.4v-0.1H216.7z M217.2,289.5c0,0.2-0.1,0.2-0.2,0.2
		c0.1,0.2,0.1,0.3,0.1,0.4h0.1c0.2,0,0.2-0.1,0.2-0.2v-0.1C217.4,289.6,217.4,289.5,217.2,289.5z M218.7,287.6h0.1
		c0.4-0.2,0.6-0.4,0.6-0.5V287h-0.1C219.1,287.1,218.9,287.3,218.7,287.6z M219.2,264.9c0,0.1,0,0.2-0.1,0.4l0.2,0.1l0.1-0.2
		C219.4,265,219.3,264.9,219.2,264.9z M219.2,257.9v0.2h0.2C219.4,258,219.3,257.9,219.2,257.9z M219.3,288.2v0.1l0.1,0.2
		c0.3-0.1,0.5-0.2,0.5-0.4H219.3z M220.2,266.9v0.2c0.2,0.2,0.2,0.5,0.2,1c0.3-0.1,0.5-0.1,0.5-0.2l-0.1-0.6c0.1,0,0.1,0,0.1-0.1
		C220.6,266.9,220.4,266.9,220.2,266.9z M221.4,263.3h0.5v0.1c0,0.2-0.1,0.2-0.2,0.2h-0.2V263.3z M221.8,268.1v0.1
		c0.2,0.3,0.4,0.6,0.4,0.9h0.4c0-0.4,0.1-0.6,0.2-0.6c0,0.2,0.1,0.2,0.2,0.2h0.1l-0.5-0.6l-0.2,0.1L221.8,268.1z M222.6,274.8
		c0,0.1-0.1,0.3-0.2,0.5l0.1,0.6h0.1c0-0.4,0.1-0.7,0.4-1l-0.2-0.1H222.6z M225.6,274.3c-1,0.8-1.5,1.2-1.6,1.2v0.6h0.1
		c0.2-0.1,0.3-0.1,0.4-0.1c0,0.2,0.1,0.2,0.2,0.2c0-0.3,0.1-0.5,0.2-0.5h0.1l0.6,0.1c0-0.2,0.1-0.2,0.2-0.2
		c-0.1-0.2-0.1-0.3-0.1-0.4l0.1-0.2c-0.1-0.1-0.1-0.3-0.1-0.5c0.1,0,0.1,0,0.1-0.1C225.9,274.4,225.8,274.4,225.6,274.3z
		 M225.4,270.7l0.4,0.5c-0.2,0-0.2,0.1-0.2,0.2h0.1c0.1,0,0.5-0.1,1.1-0.4c0,0.1,0.1,0.2,0.4,0.4h0.1c0.2-0.2,0.4-0.2,0.6-0.2v-0.4
		c-0.2,0-0.4-0.1-0.6-0.2H227l-0.4,0.2H226c-0.2,0-0.2-0.1-0.2-0.2C225.6,270.6,225.4,270.7,225.4,270.7z M227,268.1
		c0.1,0.2,0.1,0.3,0.1,0.4c0.4,0,0.6-0.1,0.6-0.4h0.4l0.9,0.6h0.2v-0.2c-0.4,0-0.6-0.1-0.6-0.2c0.1-0.1,0.1-0.3,0.1-0.5
		c-0.2-0.1-0.4-0.2-0.4-0.2c-0.2,0.1-0.3,0.1-0.4,0.1l-0.5-0.1C227.3,267.5,227.1,267.7,227,268.1z M227.2,273.3v0.1
		c0,0.2,0.1,0.2,0.2,0.2l-0.4,0.7c0.1,0.4,0.2,0.6,0.4,0.6h0.1c0-0.2,0.1-0.5,0.2-0.9l-0.1-0.2c0-0.3,0.4-0.7,1.2-1.2
		c0-0.1-0.2-0.3-0.5-0.5h-0.4c-0.3,0.6-0.6,0.9-0.7,0.9L227.2,273.3z M227.2,275.1v0.4h0.5c0-0.1-0.1-0.2-0.4-0.4H227.2z
		 M229.3,275.8c-0.3,0.6-0.6,0.9-0.9,0.9v0.1c0,0.1,0.2,0.3,0.6,0.5c0.3-0.2,0.5-0.4,0.6-0.7C229.6,276,229.5,275.8,229.3,275.8z
		 M231.4,276.9h0.2v0.4c0,0.1-0.2,0.3-0.5,0.5c-0.1,0-0.2-0.1-0.4-0.4C230.8,277.2,231,277.1,231.4,276.9z M230.9,274.6v0.2
		c0.2,0,0.4,0.1,0.6,0.2h0.1c0.1,0,0.3-0.2,0.5-0.5l-0.4-0.2C231.3,274.6,231,274.6,230.9,274.6z M232,269.6c0.1,0,0.2,0,0.4,0.1
		c0.4-0.2,0.9-0.3,1.6-0.4v-0.2c-0.3,0-0.5,0-0.5-0.1l-0.2,0.1L233,269C232.6,269,232.3,269.2,232,269.6z M232,276.2h0.1v0.2H232
		V276.2z M232.3,271.7v0.5h0.1c0-0.1,0-0.2,0.1-0.4L232.3,271.7z M234,276.4v0.2h0.1v-0.2H234z M234.4,285.9h0.2v0.1h-0.2V285.9z
		 M234.6,266.5v0.2c0.2,0,0.2-0.1,0.2-0.2H234.6z M237.2,266.1h0.4v0.2c0,0.1-0.3,0.3-1,0.5h-0.1c-0.2,0-0.2-0.1-0.2-0.2
		c0-0.2,0.1-0.2,0.2-0.2c0.2,0.1,0.3,0.1,0.4,0.1C236.9,266.4,237,266.2,237.2,266.1z M237,276.7c0.1,0.1,0.2,0.5,0.2,1.1
		c-0.1,0.3-0.2,0.5-0.4,0.5l-0.5-0.6v-0.6C236.4,277,236.6,276.8,237,276.7z M237.7,273.8c0.3,0,0.8-0.2,1.2-0.5h0.5
		c0.2,0,0.2,0.1,0.2,0.2l-0.2,0.4v0.1c0.6,0.1,0.9,0.2,0.9,0.4l-0.1,0.2l0.4,0.2l-0.1,0.2v0.1c0.3,0,0.5,0,0.6,0.1l0.1-0.2l-0.4-0.5
		c0-0.1,0-0.1,0.1-0.1c-0.2-0.3-0.2-0.6-0.2-1v-0.2c-0.5,0-0.8-0.2-1-0.6h-0.1C238.5,272.9,237.9,273.3,237.7,273.8z M238.1,265.9
		h0.2v0.1h-0.2V265.9z M238.2,267.2v0.4h0.2c0.1,0,0.2-0.1,0.4-0.4l-0.2-0.1C238.4,267.2,238.3,267.2,238.2,267.2z M239.1,268.7v0.6
		c0,0.2,0.1,0.2,0.2,0.2c0.2-0.3,0.4-0.5,0.6-0.5v-0.2C239.7,268.8,239.4,268.8,239.1,268.7z M241.1,268l-0.5,0.9h0.2l0.5-0.2
		c0.1,0.3,0.2,0.5,0.4,0.5c0.3-0.2,0.6-0.4,0.7-0.4v-0.1c-0.1,0-0.2,0-0.4-0.1c-0.2,0.1-0.3,0.1-0.4,0.1
		C241.6,268.3,241.4,268,241.1,268z M244.2,266.2l-0.1,0.2l0.1,0.7c-0.2,0.1-0.3,0.1-0.4,0.1l-0.2-0.1c-0.1,0.1-0.3,0.1-0.5,0.1
		l-0.6-0.9v-0.1h0.1l0.4,0.2C243.3,266.4,243.7,266.2,244.2,266.2z M242.4,273.8v0.2c0.1,0,0.2-0.1,0.4-0.4v-0.1h-0.1
		C242.5,273.5,242.4,273.6,242.4,273.8z M244.6,269.4h0.1c0.2,0,0.2,0.1,0.2,0.2v0.1c0,0.1,0,0.1-0.1,0.1l0.1,0.2
		c-0.1,0.2-0.1,0.3-0.1,0.4c0.2,0,0.2,0.1,0.2,0.2v0.4c0,0.2-0.1,0.2-0.2,0.2h-0.4l-0.5-0.6v0.1c0.1,0.5,0.1,0.8,0.1,1l-0.5,0.4
		h-0.1l-0.2-0.1l0.1-0.2v-0.1c-0.1,0-0.2,0-0.4-0.1c0.1-0.5,0.2-0.7,0.2-0.7c-0.2-0.3-0.2-0.5-0.2-0.6l0.2-0.1
		c0.2,0.2,0.4,0.2,0.7,0.2C244.2,269.8,244.4,269.4,244.6,269.4z M244.2,266.4h0.2v0.1h-0.2V266.4z"/>
</g>
</svg>
