<?xml version="1.0" encoding="utf-8"?>
<!-- Generator: Adobe Illustrator 22.1.0, SVG Export Plug-In . SVG Version: 6.00 Build 0)  -->
<svg version="1.1" id="Layer_1" xmlns="http://www.w3.org/2000/svg" xmlns:xlink="http://www.w3.org/1999/xlink" x="0px" y="0px"
	 viewBox="0 0 300 600" style="enable-background:new 0 0 300 600;" xml:space="preserve">
<style type="text/css">
	.st0{fill:#004B86;}
	.st1{clip-path:url(#SVGID_2_);fill:#FFFFFF;}
	.st2{clip-path:url(#SVGID_4_);fill:url(#SVGID_5_);}
	.st3{clip-path:url(#SVGID_7_);fill:url(#SVGID_8_);}
	.st4{clip-path:url(#SVGID_10_);fill:url(#SVGID_11_);}
</style>
<path class="st0" d="M151.1,540.2v4.8h-8.5v22.9h-5.4v-22.9h-8.5v-4.8H151.1z M153.3,567.9h5.4V554v-13.8h-5.4V554V567.9z
	 M186.3,567.9h-5.5L178,561h-9.4l-2.8,6.8h-5.4l11.8-28.1h2.3L186.3,567.9z M212.3,567.9h-5.5l-2.8-6.8h-9.4l-2.8,6.8h-5.4
	l11.8-28.1h2.3L212.3,567.9z M176.2,556.5l-2.8-6.9l-2.9,6.9H176.2z M202.1,556.5l-2.8-6.9l-2.9,6.9H202.1z"/>
<g>
	<defs>
		<rect id="SVGID_1_" x="85.2" y="533.5" width="130.1" height="43.8"/>
	</defs>
	<clipPath id="SVGID_2_">
		<use xlink:href="#SVGID_1_"  style="overflow:visible;"/>
	</clipPath>
	<path class="st1" d="M109.4,569.6c2.4,0,4.5-1,6.1-2.6l6.6-6.6c1.5-1.5,2.5-3.6,2.5-5.9v-20.4h-20.4c-2.4,0-4.5,1-6.1,2.6l-6.6,6.6
		c-1.5,1.5-2.5,3.6-2.5,5.9v20.4H109.4z"/>
</g>
<g>
	<defs>
		<path id="SVGID_3_" d="M106.5,536c-3.7,0-6.7,3-6.7,6.7v2.3h14v14h2.2c3.7,0,6.7-3,6.7-6.7V536H106.5z"/>
	</defs>
	<clipPath id="SVGID_4_">
		<use xlink:href="#SVGID_3_"  style="overflow:visible;"/>
	</clipPath>
	
		<linearGradient id="SVGID_5_" gradientUnits="userSpaceOnUse" x1="1.3253" y1="600.6241" x2="2.431" y2="600.6241" gradientTransform="matrix(14.4234 -14.4234 -14.4234 -14.4234 8750.6357 9234.0576)">
		<stop  offset="0" style="stop-color:#9BDBF7"/>
		<stop  offset="0.1" style="stop-color:#9BDBF7"/>
		<stop  offset="0.9" style="stop-color:#009DDA"/>
		<stop  offset="1" style="stop-color:#009DDA"/>
	</linearGradient>
	<polygon class="st2" points="88.3,547.4 111.2,524.5 134.1,547.4 111.2,570.4 	"/>
</g>
<g>
	<defs>
		<path id="SVGID_6_" d="M116,560.7h-18l-7.2,7.2h18.6c1.8,0,3.5-0.7,4.8-2l6-6l-0.2-0.2C118.8,560.3,117.4,560.7,116,560.7"/>
	</defs>
	<clipPath id="SVGID_7_">
		<use xlink:href="#SVGID_6_"  style="overflow:visible;"/>
	</clipPath>
	
		<linearGradient id="SVGID_8_" gradientUnits="userSpaceOnUse" x1="1.323" y1="600.9299" x2="2.4288" y2="600.9299" gradientTransform="matrix(26.592 0 0 -26.592 55.6024 16543.6758)">
		<stop  offset="0" style="stop-color:#14B0E6"/>
		<stop  offset="0.1611" style="stop-color:#13AAE1"/>
		<stop  offset="0.3718" style="stop-color:#0F9AD2"/>
		<stop  offset="0.6101" style="stop-color:#097FBA"/>
		<stop  offset="0.8669" style="stop-color:#015999"/>
		<stop  offset="0.9" style="stop-color:#005494"/>
		<stop  offset="1" style="stop-color:#005494"/>
	</linearGradient>
	<rect x="90.8" y="559.7" class="st3" width="29.4" height="8.2"/>
</g>
<g>
	<defs>
		<path id="SVGID_9_" d="M92.8,544.5c-1.3,1.3-2,3-2,4.8v18.6l7.2-7.2v-18c0-1.5,0.4-2.9,1-4.1l-0.2-0.2L92.8,544.5z"/>
	</defs>
	<clipPath id="SVGID_10_">
		<use xlink:href="#SVGID_9_"  style="overflow:visible;"/>
	</clipPath>
	
		<linearGradient id="SVGID_11_" gradientUnits="userSpaceOnUse" x1="0.9152" y1="600.6623" x2="2.021" y2="600.6623" gradientTransform="matrix(0 -26.5924 -26.5924 0 16067.9277 592.1896)">
		<stop  offset="0" style="stop-color:#0081BD"/>
		<stop  offset="0.3773" style="stop-color:#0070AD"/>
		<stop  offset="0.85" style="stop-color:#005494"/>
		<stop  offset="1" style="stop-color:#005494"/>
	</linearGradient>
	<rect x="90.8" y="538.4" class="st4" width="8.2" height="29.4"/>
</g>
</svg>
