<?xml version="1.0" encoding="utf-8"?>
<!-- Generator: Adobe Illustrator 22.1.0, SVG Export Plug-In . SVG Version: 6.00 Build 0)  -->
<svg version="1.1" id="Layer_1" xmlns="http://www.w3.org/2000/svg" xmlns:xlink="http://www.w3.org/1999/xlink" x="0px" y="0px"
	 viewBox="0 0 728 90" style="enable-background:new 0 0 728 90;" xml:space="preserve">
<style type="text/css">
	.st0{fill:#FFFFFF;}
	.st1{fill:none;stroke:#FBFBFB;stroke-width:0.158;stroke-miterlimit:10;}
	.st2{fill:none;}
</style>
<g>
	<path class="st0" d="M486.3,10.9h0.2c0,0.5,0.1,0.7,0.3,0.7l1.5-0.1c0-0.4,0.2-0.5,0.5-0.5c0.3,0.1,0.5,0.2,0.6,0.2l-0.2,0.3h0.2
		c0.5-0.4,1.1-0.6,1.6-0.6l0,0.5c-0.5,0-0.7,0.2-0.7,0.4V12c0.6,0,1.5,0.2,2.7,0.7l2.3-0.1c0.2,0,0.4-0.2,0.5-0.6
		c0.4,0.2,0.8,0.4,1.1,0.7l2.5-0.5h0.5c1.2,0.4,1.9,0.7,1.9,1c-0.2,0-0.4,0.2-0.7,0.7l0,0.2l0.2,0.9l0.9-0.2l1.1,0.6
		c0.2,0.6,0.2,1,0.2,1c-0.2,0.1-0.3,0.2-0.3,0.4l0.8,0.8l-0.7,1.4v0.2h0.2l0.7-0.6l0.2,0.3l0,0.3l-0.7,0.7c0.1,0.2,0.2,0.4,0.3,0.7
		c-0.4,0.1-0.6,0.5-0.5,1.4c0.2,0.9,1,1.4,2.4,1.3c0.6,0.6,1,1.1,1,1.5c-0.6,0.3-1,0.7-1,1.1c0.9,0.4,1.4,0.7,1.6,0.7v0.2
		c0,0.2-0.2,0.4-0.7,0.4l0.2,1.2v0.3c0,0.2-0.1,0.4-0.4,0.4l0.2,0.3v0.2c0,0.3-0.1,0.7-0.3,1c0.5,0,0.8,0.2,0.8,0.7l0.4,0l0.7-0.7
		h0.2c0.3,0,0.4,0.2,0.4,0.5c-0.1,0.8-0.3,1.2-0.5,1.2l0.2,0.3v0.3c0,0.2-0.1,0.4-0.3,0.4l0.4,1.2l-0.2,0.3l0.4,1.9l0.3-0.2h0.4
		l0,0.5c-0.4,0-0.6,0.2-0.5,0.5c0,0.2,0.4,0.6,1.1,1.2c0,0.2-0.8,0.5-2.3,1.2c-0.6,0.9-0.9,1.4-0.9,1.6l0.2,0.3
		c-0.1,0.5-0.2,0.7-0.3,0.7c0.1,0.2,0.2,0.4,0.2,0.5c-0.2,0.5-0.3,0.7-0.5,0.7c-0.4-0.4-0.6-0.6-0.6-0.9c0.1-0.2,0.2-0.4,0.2-0.5
		c-0.2,0-0.4-0.2-0.5-0.5c0.2,0,0.3-0.2,0.3-0.4c0-0.2-0.4-0.3-1.1-0.3l0-0.7c0.6-0.6,1-1.1,1-1.6c1-0.4,1.6-0.9,1.9-1.3v-0.2
		c-0.3,0-0.5-0.1-0.8-0.5c-0.7,0.7-1.4,1.2-1.9,1.3c0,0.3-0.1,0.5-0.5,0.5v0.3l0.4,0.5c-0.3,0.6-0.5,0.9-0.7,0.9
		c0,0.7,0.5,1.3,1.4,1.9l0,0.3l-2.3,0.8l-0.5-0.3c-1.9,0.3-3,0.5-3.4,0.9h-0.2c-0.1,0-0.2-0.1-0.2-0.2l-0.4,0.2l-1.1-0.1
		c0,0.2-0.2,0.3-0.5,0.5h-0.4c0-0.1-0.1-0.6-0.4-1.4v-0.2l0.2-0.3c-0.1,0-0.2-0.1-0.2-0.2c1.2-1.1,1.8-1.7,1.7-1.9l-0.4-0.2l-0.3,0
		l-0.5,0.3l-0.2,0c-0.2,0-0.4-0.1-0.4-0.3c0.2,0,0.3-0.1,0.3-0.3c-0.1,0-0.2-0.1-0.2-0.2l0.3-0.2l-0.2-0.3v-0.4l0.1-0.9
		c-0.1,0-0.2-0.1-0.2-0.2l0.3-0.2l-0.2-0.3v-0.3c-0.1-0.8,0.3-1.3,1.2-1.3V36l-0.4-0.2l0.2-0.3v-0.3l-0.9,0.2l-0.2-0.3
		c-0.7,0.3-1.2,0.4-1.5,0.4l-0.2-1c0.1-0.4,0.4-1,1.2-1.7c0,0.1,0.1,0.2,0.2,0.2c0-0.3,0.1-0.6,0.3-0.9c-0.3,0-0.5-0.1-0.7-0.2
		c0,0.2-0.1,0.4-0.3,0.4h-0.4c-0.2,0-0.3-0.1-0.3-0.3l-0.1-1c0.2-0.5,0.5-0.7,0.9-0.7l-1.4-1.3c0-0.3-0.1-0.5-0.2-0.7
		c0.1-0.2,0.1-0.4,0.1-0.5v-0.2h-0.2c0,0.4-0.3,0.7-0.9,1.1h-0.2c-0.7,0-1.5,0-2.6,0c-0.6,0.2-0.9,0.3-0.9,0.5v0.2l0.4,0.5l0.9-0.2
		l1.8-0.1l0.5-0.3c0.5,0.5,0.8,1,0.8,1.5c-0.4,0-0.7,0.5-1,1.3l-0.3,0.2h-0.2c-0.3,0-0.4-0.3-0.5-0.9H492c0,0.6-0.1,0.9-0.3,0.9
		l0.2,0.3c-0.3,1-0.6,1.4-1,1.4l-0.3,0l0.2,0.9l0,0.2h-0.3c-0.2,0-0.4-0.1-0.4-0.3l0.2-0.9c-0.7,0.7-1.5,1.1-2.4,1.2l0,0.3
		c0.4,0,0.6,0.1,0.6,0.3l0.7-0.4c0.4,0.2,0.8,0.3,1.1,0.3v0.3c0,0.2-0.2,0.3-0.5,0.5l0.2,0.3c-0.3,0.6-0.5,1.2-0.6,1.6
		c0.1,0.2,0.2,0.4,0.2,0.5l-0.7,0.5c-0.2,0-0.4-0.1-0.4-0.3l0-0.9l-0.7-0.2l-1,1.4c0.1,0,0.7,0.4,1.7,1.2l-1,2.7
		c-1.3,0.6-1.9,1-1.9,1.1v0.2c0.3,0,0.5,0.1,0.5,0.3c0,0.2-0.2,0.4-0.7,0.4l0,0.7c0.3,0.3,0.6,1.1,0.9,2.4c0.2,0,0.7-0.4,1.6-1.3
		h0.2l0.6,0.3h0.2c1.4-0.1,2.6-0.5,3.6-1.2c0.4,0.2,0.7,0.3,0.9,0.3c0-0.3,0.1-0.4,0.3-0.4c0.1,0,0.2,0.1,0.2,0.2
		c0.8-0.4,1.3-0.6,1.6-0.6l0.7,0.7l1.1-0.7l0.3,0v0.7l0.2,0c0.7-0.6,1-1.1,1-1.4c-0.1,0-0.2-0.1-0.2-0.2l0.2,0l0.9,0.5l0.9-0.2
		c1,0,1.6-0.1,1.8-0.1c0-0.3,0.1-0.5,0.3-0.5l0.8,0.9h0.2c1.9-0.3,3-0.6,3.4-0.9l0.2,0.3l-0.2,0.4l0.3,0c0-0.3,0.2-0.6,0.7-1.1
		l-0.2-0.3v-0.2c0.2-0.5,0.5-0.7,0.9-0.7l-0.2-0.3c0.8-1.4,1.5-2.2,2.3-2.2l0.3,0.2l-0.2,0.4c0,0.2,0.1,0.5,0.4,1
		c-0.2,0.1-0.5,0.2-0.9,0.2l0,0.9l-0.2,0.9l1.7,0.8h-0.2c0.3,0.7,0.4,1.2,0.4,1.4c0,0.3-0.1,0.8-0.5,1.6l0.2,1h-0.2l0.2,0.3v0.3
		c0,0.3-0.1,0.5-0.2,0.7c0.1,0.2,0.2,0.4,0.2,0.5c-1.8,0.9-2.7,1.4-2.8,1.4c-0.2-0.1-0.4-0.2-0.6-0.2l0,0.9l0.9,0.1
		c0.2,0,0.9-0.6,2.1-1.7h0.3c0.6,0.2,0.9,0.4,0.9,0.7l-0.5,0.9c0.6,0,0.9,0.2,0.9,0.5l0,0.7c-0.5,0.5-0.7,0.9-0.7,0.9l0.5,0.7
		c-0.1,0.2-0.1,0.4-0.1,0.7h0.4c0-0.5,0.1-0.7,0.3-0.7h0.2c0.5,0.4,0.9,0.7,1.1,0.7v0.3c0,0.2-0.1,0.3-0.3,0.3l-0.3,0l-0.8-0.5h-0.2
		v0.3c0.9,0.5,1.3,0.9,1.3,1.2c-0.1,0.2-0.2,0.4-0.2,0.5c0.2,0,0.4,0.2,0.8,0.7v0.2c0,0.2-0.3,0.5-0.9,0.7c0-0.2-0.2-0.3-0.4-0.3
		c-0.2,0.1-0.3,0.2-0.3,0.4V60c1.5,0.9,2.4,1.5,2.6,1.8V62c-0.9,0.8-1.4,1.1-1.6,1.1v0.3l0.7,0l0.6-0.3h0.2v0.3h-0.4l0,0.2l0.7,0.7
		c-0.2,0.1-0.3,0.2-0.3,0.3c0.3,0,0.5,0.1,0.5,0.3l-1.6,0.9c0,0.1,0,0.2-0.2,0.2H515l-1.1-0.5l-0.2,0.3c0.2,0,0.4,0.2,0.6,0.5
		l-0.7,0.7l0,0.3c0.3,0,0.5,0.3,0.5,0.9l0.4,0l-0.2-0.3c0.9-0.5,1.3-0.9,1.3-1.1c0.4-0.3,0.9-0.4,1.4-0.4h0.4c0.4,0.1,0.6,0.4,0.6,1
		c-0.3,0.3-0.9,0.6-1.8,1v0.3c0.1,0.2,0.2,0.3,0.4,0.3c0.5-0.4,0.8-0.6,1-0.6c0,0.1,0.1,0.2,0.2,0.2l-0.2,0.3v0.3
		c0.4,0,0.6,0.1,0.6,0.3c-0.1,0.2-0.2,0.4-0.2,0.5c0.2-0.1,0.5-0.2,0.9-0.2l0.2,0.3c-0.2,0.5-0.3,0.7-0.5,0.7l-0.6,0
		c-0.3-0.2-0.5-0.3-0.7-0.3c-0.3,0.1-0.4,0.2-0.5,0.2c0-0.1-0.1-0.2-0.2-0.2c-0.6,0.4-0.9,0.9-0.9,1.4c0.6,0.5,1.2,0.8,1.7,0.8
		c0.1-0.3,0.5-0.5,1.4-0.6c0.2,0,0.4,0.2,0.6,0.5v0.2c0,0.2-0.2,0.3-0.5,0.3l0,0.5c1.5,0.6,2.3,1.6,2.3,2.9l0.4,0.5v0.3h-0.2
		c-0.2,0-0.4-0.2-0.4-0.5h-0.2v0.3l-0.4,0l-0.2-0.9c-0.7,0-1.1,0.3-1.2,0.9c0.3,0.8,0.7,1.5,1.2,2.1c-0.1,0-0.6,0.1-1.5,0.4h-0.2
		c-0.2,0-0.5-0.3-1-0.9l0.2-0.9c-0.2,0-0.4-0.1-0.7-0.3h-0.5c-0.2,0-1.2,0.3-3.1,0.9l0,0.7c0.6,0.5,0.9,0.8,0.9,0.9
		c-0.4,0.8-1,1.3-1.7,1.3l0.2-0.3l0-0.5h-0.3c0,0.6-0.1,0.9-0.3,0.9h-0.2c-0.3,0-0.5-0.3-0.8-0.8c1.1-0.4,1.6-0.6,1.6-0.8
		c-0.3-0.7-0.5-1-0.8-1c-0.1,0-0.4,0.4-1,1.1l-0.3-0.2c-0.1,0.3-0.4,0.6-0.9,0.9c-0.3-0.3-0.4-0.6-0.5-1l-1.2,0
		c0-0.4-0.7-1.2-1.9-2.4v-0.2l0.2-0.4l-1.3-4.1c-0.5-0.5-0.9-0.8-1.2-0.9c0,0.1-0.1,0.2-0.2,0.2c-0.1-0.2-0.2-0.4-0.2-0.5
		c0-0.4,0.6-0.9,1.7-1.3c-0.1-0.3-0.3-0.5-0.4-0.5c-0.2,0.1-0.4,0.2-0.5,0.2l-0.2-0.3c0-0.2,0.4-0.6,1.2-1.3v-0.2
		c-0.2-0.5-0.4-0.7-0.6-0.7c0,0.2-0.1,0.4-0.3,0.4c-0.2-0.3-0.4-0.5-0.4-0.7l-0.3,0.2l-0.7,0l0-0.3c0.9-0.5,1.3-0.8,1.3-0.9l0-0.2
		l-0.2-0.3c0.2-0.2,0.2-0.5,0.2-0.7V65l-0.5,0.4l-0.2-0.3c0.1-0.2,0.2-0.4,0.2-0.5l-1,1.6l-0.2-0.3l-0.1-1.6l-0.4-0.5
		c0-0.3,0.5-0.6,1.4-0.8h0.2v0.3l0.6,0c3.4-0.8,5.1-1.4,5-2l0-0.2l-0.2,0c0,0.2-0.3,0.5-0.9,0.7c-0.5,0-0.8-0.3-0.8-0.9
		c-3.2,0.4-5,0.8-5.3,1.1h-0.2c-0.2,0-0.5-0.5-0.8-1.7c0.5-0.7,0.7-1.2,0.7-1.4l-0.3-0.2c0,0.1-0.1,0.2-0.2,0.2
		c-0.1-0.2-0.2-0.4-0.2-0.5c0-0.4,0.2-0.6,0.5-0.6v-0.2h-0.4V58c-0.2-0.1-0.4-0.2-0.7-0.2l0-0.3c0-0.2,0.1-0.3,0.3-0.3h0.2
		c0.5,0.3,0.9,0.5,1.3,0.5l0.2-0.4l-0.5,0v-0.2l0.2-0.3l-0.3,0l0-0.3l0.9,0v-0.2c-1.1-0.1-1.8-0.1-2-0.1l0-0.5
		c0-0.2,0.2-0.3,0.7-0.3l-0.2-0.3c0-0.1,0.1-0.2,0.2-0.2c0-0.1-0.1-0.2-0.2-0.2l0.1-1.2l0-0.2c0-0.2-0.1-0.3-0.3-0.3l-0.5,0.7
		c0.2,0,0.2,0,0.2,0.2l-0.4,0.2h-0.3c-0.6-0.4-1-0.6-1.3-0.6c-0.7,0.1-1.2,0.2-1.4,0.2v-0.2c-0.2,0-0.5,0.3-1,0.9h-0.2
		c-0.2,0-0.2-0.1-0.2-0.2l-0.7,0.4c-1-0.1-1.5-0.5-1.5-1.2c0.1,0,0.2-0.1,0.2-0.2l-0.3-0.2c-0.4,0.9-0.7,1.6-0.7,2.1l0.8,0.3
		c-0.2,0.8-0.5,1.2-0.9,1.3L491,56l0-0.2l0.3-0.5c0-0.2-0.2-0.3-0.4-0.3c0,0.2-0.2,0.4-0.5,0.5c-1.1-0.2-1.7-0.6-1.7-1.5
		c0-0.8-0.2-1.2-0.6-1.2h-0.4V53c0,0.2,0.2,0.5,0.5,1c-0.2,1.2-0.4,1.8-0.7,1.8h-0.2c0-0.5-0.3-0.7-0.8-0.7v-0.5
		c0.3-0.5,0.5-1,0.5-1.2l-1.1-0.5c-0.2,0-0.5,0.3-0.9,0.9c-0.5-0.2-0.8-0.3-0.8-0.5c-0.4,0.1-0.6,0.2-0.7,0.2l-1.1-0.1
		c0,0.1-0.1,0.2-0.2,0.2c0-0.2-0.1-0.3-0.3-0.3c-0.2,0.5-0.6,0.8-1.1,0.8l0,0.2l0.3,0.5c0.1,1.5-1.1,2.9-3.4,4.2
		c-0.2-0.1-0.5-0.2-0.7-0.2v0.2c0.1,0.2,0.2,0.4,0.2,0.5l0.5-0.3l0.3,0c0.2,0,0.4,0.2,0.6,0.5c-0.5,1-1,1.4-1.4,1.5l0,0.9h0.4V62
		c0,0.2-0.2,0.4-0.5,0.5l-0.3-0.2c0,0.4-0.2,0.6-0.7,0.6l0,1c-0.7,0.6-1,1-1,1.3c0.1,0,0.3,0,0.5,0.1c-0.1,0.2-0.2,0.4-0.2,0.5
		l-0.3-0.2c0.1,1.3-0.6,2.4-2,3.3l0.2,0.3c0,0.6-1.1,2.5-3.4,5.7l-1.8-0.1c0,0.2-0.1,0.4-0.3,0.4l-0.9,0c-0.4-0.2-1.7-0.8-3.6-1.8
		c-0.5,0-1.4-0.6-2.7-1.8c-0.8,0.1-1.6-0.3-2.2-1.1l2.6-6.5c-0.1-0.2-0.2-0.4-0.2-0.5c0.3,0,0.7-0.8,1.2-2.3l0.5,0l0.4,0.2
		c-0.1-2,0.5-3,1.7-3c0-0.1,0.1-0.3,0.2-0.5l-0.3-1l0-0.3c0.1-0.5,1.2-1,3.3-1.6h0.2l0-0.9h-0.3c0,0.5-0.1,0.7-0.3,0.7l-0.3,0
		c-0.2,0-0.4-0.2-0.8-0.7l0.5-0.4l0.4,0.2l0.2-0.3l-0.4-0.5v-0.2c0.5-0.8,1.2-1.4,2.2-1.8l0.7,0l0,0.3c-0.5,0-0.7,0.2-0.7,0.4l0.5,0
		l1.3-0.4l0-0.7l-0.2,0c-0.2,0.1-0.4,0.2-0.5,0.2c0-0.3-0.3-0.5-0.9-0.5c-0.2,0.1-0.4,0.2-0.5,0.2l-0.2-0.3c0.7-1.3,1.4-2.2,2.1-2.6
		l-0.2-0.9c0.3-1,0.5-1.4,0.6-1.4c0.2,0,0.4,0.5,0.8,1.6c-0.1,0.2-0.2,0.4-0.2,0.5c0.1,0.2,0.2,0.4,0.2,0.5c0.3,0,0.4-0.2,0.3-0.5
		c-0.2-0.2-0.2-0.4-0.2-0.5c0.2-0.1,0.5-0.2,0.7-0.2l0-0.3c-1-0.9-1.5-1.4-1.6-1.5c0.9-0.4,1.3-0.9,1.2-1.6
		c-0.2-0.2-0.2-0.4-0.2-0.5c0.3-0.8,0.5-1.3,0.7-1.3c0,0.2,0.2,0.3,0.6,0.5h0.2c0-0.3,0.3-0.5,0.9-0.5c0-0.2-0.2-0.3-0.6-0.5v0.3
		h-0.2c-0.2,0-0.4-0.1-0.4-0.3c0-0.2,0.2-0.3,0.5-0.3v-0.2l-0.5,0l0-0.3c1.1-0.6,1.6-1.6,1.5-3.2c0.2-1.2,0.5-1.8,0.8-1.8
		c0.1,0,0.2,0,0.2,0.2l0.4-0.2l0.3,0.2c0.2-0.3,0.3-0.7,0.3-1.2h0.4c0.2,0,0.4,0.1,0.4,0.5h0.2c0.3-0.4,0.8-0.6,1.6-0.6
		c0.3,0.3,0.6,0.5,0.9,0.5c0.2-0.1,0.4-0.2,0.6-0.2l-0.2-0.3l0.2-1c-0.6,0.2-1,0.4-1.4,0.7c-0.4-0.2-0.7-0.3-0.9-0.3l-1.1,0.2
		c-0.1-0.2-0.2-0.4-0.2-0.7l-0.5,0.4h-0.2l0-0.9c0.2,0,0.6-0.8,1-2.2h0.3c0.2,0.7,0.5,1.3,0.8,1.9l0.9-0.4c-0.3-0.4-0.4-0.7-0.4-1
		l-0.1-1.7l-0.3-0.9c0.3,0,0.4-0.2,0.4-0.4c-0.3,0-0.4-0.1-0.4-0.3v-0.2l0.2-0.9h0.3c-0.1,0.2-0.2,0.4-0.2,0.5v0.2h0.2l0.1-0.9
		c0-0.1-0.1-0.4-0.2-1c0.2,0,0.5-0.2,1-0.7l0.4,0.5c0.5-0.3,0.8-0.5,0.9-0.7c-0.6,0-1.1-0.2-1.5-0.8c0.2-0.3,0.3-0.5,0.3-0.7l0.5,0
		l0,0.3l0.7,0l0-0.5l-0.5-0.7c0.4-0.4,1-0.6,1.6-0.6h0.3c0-0.3,0.4-0.6,1.2-1.1c0-0.2,0.1-0.3,0.3-0.3c0.2,0,0.4,0.1,0.4,0.3v0.5
		l0.6,0.3h0.2c0.2,0,0.4-0.2,0.7-0.7v-0.3l-0.9-0.1l0-0.3c0-0.2,0.2-0.4,0.7-0.4l-0.8-0.7c0-0.1,0.1-0.2,0.2-0.2l-0.2-0.3l0.2-1
		l-0.4-0.5v-0.3L485,15c-0.2,0-0.4-0.1-0.4-0.3c0.2-0.5,0.3-0.7,0.5-0.7l-0.2-0.9l0-0.5L486.3,10.9z M461.8,69l0.3,0l0-0.3
		C461.8,68.7,461.7,68.8,461.8,69z M462.2,68c0.1,0.7,0.3,1,0.6,1h0.2c2-0.6,2.9-0.9,2.9-1.1C464.1,68,462.9,68,462.2,68z
		 M462.3,69.7l0.1,1c1.3-0.1,2.1-0.1,2.5,0.1h0.2v-0.2c-1.7-0.4-2.5-0.7-2.5-1H462.3z M463.6,65.9v0.7h0.2l0-0.7H463.6z M464.2,62.8
		v0.3c0.3,0,0.4,0,0.4,0.2c0.4-0.3,0.9-0.4,1.4-0.4c0.5,0.5,1,0.7,1.5,0.7c0-0.2,0.1-0.5,0.5-0.9l-0.2-0.3c0.2-0.5,0.3-0.9,0.3-1.1
		l-1.1,0C466.2,62.1,465.3,62.6,464.2,62.8z M464.7,66.1v0.2l0.3,0v-0.2H464.7z M468.4,63.1l-0.2,0.3v0.2l2.3-0.2v-0.2
		C470.5,63,469.8,63,468.4,63.1z M469.7,52c0.1,0.8-0.3,1.5-1.2,2.1l0,0.3h0.2c0.2-0.1,0.4-0.2,0.6-0.2l0.2,0.3l0.3-0.2l0.6,0.3
		c0.2-0.4,0.4-0.8,0.5-1.2C470.4,52.5,470,52,469.7,52z M468.7,57.8v0.3c0.2,0.6,0.7,0.9,1.3,0.9c0.1-0.3,0.2-0.4,0.3-0.4l0,0.3
		l2.6-0.2c0.2,0,0.3-0.1,0.3-0.3v-0.2c-2.5-0.1-3.7-0.2-3.8-0.4v-0.2L468.7,57.8z M471.1,50.7V51l0.2,0c1-0.4,1.5-0.6,1.6-0.6l0-0.7
		c-0.2,0-0.3-0.1-0.3-0.2C471.6,50,471.2,50.4,471.1,50.7z M471.6,52.9v0.3c0.1,0,0.3,0,0.6,0.2c1.9-0.4,2.8-0.8,2.8-1v-0.2
		l-2.1,0.2L471.6,52.9z M473.5,44.1v0.3l0.2,0c0.3,0,0.4-0.1,0.3-0.3L473.5,44.1z M473.6,46.5c0.1,0.7,0.3,1,0.6,1h0.2
		c2-0.6,2.9-0.9,2.9-1.1C475.5,46.6,474.3,46.6,473.6,46.5z M473.7,48.3l0,1c1.3-0.2,2.1-0.1,2.5,0.1h0.2v-0.2
		c-1.6-0.4-2.5-0.7-2.5-1H473.7z M473.8,39.9l0,0.3h0.2v-0.3H473.8z M476.2,52.1l-0.9-0.2c0,0.3-0.1,0.5-0.2,0.7
		c0.3,0.4,0.4,0.6,0.4,0.9l1.3-0.2l0.5,0c0.1,0,0.2,0.1,0.2,0.2c0.9-0.2,1.3-0.5,1.2-0.7c0-0.6-0.2-1-0.6-1.4
		C477.4,51.8,476.8,52.1,476.2,52.1z M475.3,36.1h0.7v-0.3h-0.4C475.4,35.8,475.3,35.9,475.3,36.1z M475.5,37.1v0.2
		c0.1,0.2,0.2,0.3,0.4,0.3c0.2,0,0.3-0.1,0.3-0.3V37C476.1,37.1,475.8,37.1,475.5,37.1z M475.6,56.3l0,0.3c0.3,0,0.4-0.2,0.3-0.4
		L475.6,56.3z M475.9,43.4c0.2,0,1,0.1,2.4,0.2l0.2,0c0-0.1-0.5-0.4-1.6-0.9l-0.4,0C476.4,42.7,476.1,43,475.9,43.4z M478.3,37.9
		c0,0.5-0.8,1.3-2.4,2.4v0.2l0.2,0.3c0.2-0.1,0.4-0.2,0.5-0.2l0.4,0.2c0.6,0,1-0.4,1-1.1h0.3c0.3,0,0.4,0.1,0.4,0.3
		c-0.2,0-0.2,0.1-0.2,0.2c1.5,0.1,2.4,0.1,2.6,0.1v-0.2c-1.2-0.2-2-0.9-2.6-2.2L478.3,37.9z M481.9,42.9l-0.8-0.3
		c-0.6,0.3-0.9,0.6-0.9,0.7c0,0.7-0.4,1.3-1.2,1.8c0.2,0.1,0.4,0.2,0.6,0.2v0.3l-1.3,0.2c0-0.2-0.1-0.3-0.3-0.3
		c-0.2,0-0.3,0.2-0.3,0.5c0.1,0.3,0.3,0.5,0.4,0.5c0.2-0.1,0.4-0.2,0.5-0.2c0,0.2-0.2,0.4-0.5,0.4l0,0.7c0.2,0,0.8-0.4,1.8-1.1
		l-0.2-0.3l0-0.3c0.7,1,1.2,1.5,1.7,1.5v-0.2c0-0.4,0.1-0.8,0.3-1c0-0.3-0.5-0.5-1.5-0.8v-0.5c0.9-0.7,1.4-1.1,1.4-1.3l0.3-0.2h0.3
		c0.3,0,0.4,0.1,0.4,0.3l-0.2,0.3c0.5,0.2,0.9,0.3,1.1,0.3c0.2-0.3,0.5-0.9,0.8-1.8l-0.2,0c-0.3,0.1-0.5,0.2-0.6,0.2
		c-0.4-0.4-0.6-0.6-0.6-0.9H483C482.7,41.6,482.4,42,481.9,42.9z M477.9,54.1c0,0.3,0,0.5-0.1,0.7c0.2,0.5,0.5,0.8,0.7,0.9
		c0-0.1,0.1-0.6,0.2-1.4l-0.4-0.2H477.9z M477.9,29.9h0.3v0.5c-0.2,0-0.3-0.1-0.3-0.3V29.9z M478.8,48.6l-0.2,0.3l1.3,0.3v-0.2
		C479.7,48.8,479.4,48.6,478.8,48.6z M479.4,37.5v0.2l1.5-0.1l1.8,1.2h0.3c0-0.4,0.2-0.5,0.5-0.5l-0.4-0.5c0.1-0.2,0.2-0.4,0.2-0.5
		c-1.3-0.1-2-0.2-2-0.3c0.2,0,0.4-0.2,0.5-0.6l0-0.2c0-0.2-0.2-0.3-0.6-0.5l-0.5,0L479.4,37.5z M479.7,25.7l0,0.3
		c0,0.2,0.2,0.3,0.5,0.5v-0.2l-0.2-1C479.8,25.4,479.7,25.6,479.7,25.7z M480.2,31.5c0,0.2,0.2,0.3,0.6,0.5c0.2,0,0.3-0.2,0.3-0.4
		c-0.2,0-0.4-0.1-0.4-0.5l-0.2,0C480.3,31.2,480.2,31.3,480.2,31.5z M480.7,29.9l0.2,0.3c-0.1,0.2-0.1,0.4-0.1,0.5h0.5
		c0-0.3,0.1-0.6,0.3-0.9l-0.4-0.2H481L480.7,29.9z M480.9,26.2c0.6,1,1.4,1.5,2.4,1.5c0.2-1.1,0.3-1.8,0.3-2.1
		c-0.3,0-0.4-0.1-0.4-0.3C482.5,25.6,481.7,26,480.9,26.2z M481.9,56.7c0.2,0,0.4,0.1,0.4,0.3v0.2c0,0.3-0.3,0.4-0.9,0.5l-0.2-0.3
		C481.2,57.3,481.4,57,481.9,56.7z M487.4,30.7c0,0.2-0.2,0.3-0.7,0.5l-2.8,0.1h-0.2l-0.9,0.6l0.2,0.3l0,0.2l-0.3,0.5l0.2,0.9
		l2.4-0.2l0-0.9c0.1-0.4,0.5-0.6,1.4-0.6l0.2,0l0,0.7c0.4-0.4,0.7-0.5,0.9-0.5c0-0.2-0.2-0.3-0.4-0.3l0.3-1L487.4,30.7z M482.7,40.4
		l0.5,0l1.6-1.1l-0.3,0c-0.3,0.1-0.4,0.2-0.5,0.2c-0.1-0.2-0.2-0.4-0.2-0.7h-0.2C483.2,38.8,483,39.3,482.7,40.4z M483,30v0.2h0.4
		v-0.5C483.2,29.7,483,29.8,483,30z M486.6,21.8c0,0.2-0.1,0.3-0.3,0.3l-0.4-0.2c-0.6,0.1-1.1,0.4-1.4,0.9l-0.4,0l-0.5-0.3
		c0,0.6-0.2,0.9-0.5,0.9l0.3,0.9l0,0.7l0.7,0c0.1-1,0.1-1.7,0.3-1.9c0.6,0.2,0.9,0.5,1,1h-0.2l-0.4-0.2l0,0.2
		c0.5,0.5,0.8,0.8,0.8,0.8c-0.3,0-0.7,0.6-1.2,1.6l-0.2,0v0.2h0.4l1.2-0.4c0.1,0.2,0.2,0.3,0.4,0.3h0.2c-0.3-0.4-0.4-0.7-0.4-0.9
		c0.2,0,0.4-0.4,0.5-1.2l-0.8-0.8l1.4-1c0.3,0,0.4,0.1,0.4,0.3c-0.1,0-0.2,0.1-0.2,0.2c0.2,0,0.3,0.1,0.3,0.3
		c0.7-0.4,1.1-0.6,1.2-0.6l0-0.5c0-0.2-0.2-0.3-0.5-0.5l-0.5,0.4h-0.2L486.6,21.8z M484,15.9c0.3,0.9,0.6,1.6,0.8,1.9V18l-0.2,0
		l-0.8-0.5c0.1,0.8,0,1.2-0.3,1.2c-0.3,0-0.4-0.1-0.4-0.3c0-0.1,0.1-0.2,0.2-0.2l-0.2-0.3c0.3-0.5,0.5-0.8,0.5-1.1
		c-0.1-0.2-0.2-0.4-0.2-0.5L484,15.9z M483.3,45.5l0,0.5c0.2,0,0.3-0.2,0.3-0.4v-0.2H483.3z M484.2,27.7v0.2
		c0.1,0.2,0.2,0.3,0.4,0.3l0.2-0.4l-0.4-0.2L484.2,27.7z M485,42.4v0.2l0.9-0.2c0-0.2-0.1-0.3-0.3-0.3h-0.2
		C485.1,42.1,485,42.2,485,42.4z M485.2,39.2c0.1,0,0.3,0.1,0.5,0.2l0.2-0.4l0-0.5C485.7,38.5,485.5,38.8,485.2,39.2z M485.4,35.9
		l0,0.9c1,0.2,1.4,0.5,1.5,1l0.2,0c0.2,0,0.3-0.1,0.3-0.3l0-1l-0.9,0.2h-0.2l0-0.9L485.4,35.9z M487.7,12.8l-0.2,0.7h-0.2l-0.4-0.2
		l0,0.3c0.2,0.2,0.2,0.4,0.2,0.5h0.3c0.2,0,0.3-0.2,0.3-0.4l-0.1-1H487.7z M487.2,10.5h0.3v0.3h-0.3L487.2,10.5z M487.4,25.1
		c0,0.2,0.2,0.3,0.7,0.5V25L487.4,25.1z M487.6,16.1l0,0.3h0.2v-0.3H487.6z M488.1,16.5v0.3l0.3,0v-0.3L488.1,16.5z M488.3,10.3h0.5
		c0,0.2-0.1,0.3-0.3,0.3h-0.2V10.3z M488.7,31.2c0.3,0.3,0.4,0.6,0.4,1h0.2c0.2,0,0.4-0.3,0.9-0.9c-0.1-0.8-0.2-1.2-0.4-1.2
		C489.3,30.2,489,30.6,488.7,31.2z M491.2,53.3l0,0.5c0.2,0,0.3-0.2,0.5-0.5H491.2z M493,23.3c0,0.1-0.3,0.5-1,1.1
		c0.1,0.2,0.2,0.3,0.3,0.3c0.3,0,0.6-0.4,1-1.1C493.4,23.4,493.3,23.3,493,23.3z M492.6,52.7h0.4l0-0.3
		C492.7,52.4,492.6,52.5,492.6,52.7z M494.8,47.6l-1,1.2V49h0.2c0.4-0.1,0.9-0.5,1.4-1.1L494.8,47.6z M496.3,37.3h0.2
		c0.3,0,0.4,0.1,0.4,0.3c-0.2,0.3-0.3,0.6-0.3,0.9l-0.3,0c-0.2,0-0.3-0.1-0.3-0.3C495.9,37.6,496.1,37.3,496.3,37.3z M497.3,25
		l-0.9,0l-0.1,1.7l0.9,0c0-0.6,0.3-0.9,1-1.1v-0.2c-0.4,0-0.6-0.2-0.6-0.7L497.3,25z M497.1,55c0.3,0,0.5,0.3,0.6,0.9l-0.5,0.4H497
		l-0.6-0.3C496.6,55.4,496.9,55.1,497.1,55z M496.9,13.8V14c0,0.3,0.3,0.5,0.9,0.5c0-0.1,0.1-0.2,0.2-0.2c-0.1-0.2-0.2-0.4-0.2-0.5
		L496.9,13.8z M498.5,20.6h0.3l1.6-0.6v-0.2C499.1,20,498.5,20.2,498.5,20.6z M498.5,13.9l0,0.3l0.2,0v-0.3L498.5,13.9z M499.9,28.8
		l0.2,0.3c0.6-0.2,0.9-0.3,0.9-0.5l-0.3-0.2C500.3,28.6,500.1,28.7,499.9,28.8z M500.3,33v0.2h0.2l0.9-0.2v-0.5
		C500.7,32.5,500.3,32.7,500.3,33z M500.8,33.3v0.2h0.3v-0.2H500.8z M501.7,28.5c0,0.5-0.1,0.9-0.5,1.2c0.3,0,0.4,0.1,0.4,0.2
		c1,0,1.7-0.5,2.3-1.3h-0.3L503,29h-0.2l-0.8-0.5H501.7z M501.7,27.2l0.3,0.2l0.2,0c0.1,0,0.6-0.6,1.4-1.8l-0.2-0.3
		C502.2,25.7,501.6,26.4,501.7,27.2z M502.6,31.9v0.7l-0.2,0v0.2c0.2,0,0.7,0.1,1.5,0.3c0.9-0.3,1.3-0.7,1.2-1.3l-0.4,0l-0.5,0.3
		l-0.4,0v-0.3L502.6,31.9z M503.1,43.7c0.3,0,0.4,0.1,0.4,0.3l-0.3,0.2c-0.3,0-0.4-0.1-0.4-0.3L503.1,43.7z M504.6,25.2
		c0-0.1-0.1-0.2-0.2-0.2l0,0.3l0.2,0.3l0.4-0.2h0.3V26h0.3l0-1.2C505.3,25.1,504.9,25.2,504.6,25.2z M504.5,37.5
		c0,0.2,0.2,0.3,0.6,0.5h0.3v-0.2c0-0.2-0.2-0.3-0.4-0.3L504.5,37.5z M505.5,46.4v0.2c0.2,0,0.4,0.2,0.4,0.7l1.3-0.1
		c0-0.5,0.2-0.7,0.5-0.7v-0.2l-0.9,0.2h-0.2c-0.2,0-0.3-0.1-0.3-0.3C506,46.3,505.8,46.4,505.5,46.4z M506,73.5v0.2h0.3v-0.2
		L506,73.5z M507.7,57.8l-0.9-0.1l-0.6,1.1V59h0.5l1.1-0.6c0,0.5,0.5,0.7,1.3,0.8l0,0.3l0.3,0c0-0.7,0.3-1.1,1-1.2l0.7,0.1l0.9-0.5
		c0.2,0.1,0.5,0.1,0.7,0.1l0.2-0.3v-0.5h-0.2l-0.5,0.4c-0.3,0-0.7-0.1-1.1-0.3c0,0.1-0.1,0.3-0.2,0.5l-0.4-0.2l-0.5,0.4l-0.6,0v-0.2
		l0.3-0.5c-0.8,0-1.1,0-1.1-0.1C508.6,57.1,508.3,57.3,507.7,57.8z M506.5,33.2c0,0.3-0.1,0.6-0.3,0.9c0,0.2,0.4,0.3,1.3,0.5
		c0-0.2,0.2-0.4,0.7-0.4c0-0.3-0.1-0.6-0.4-1c-0.1,0-0.2,0.1-0.2,0.2l-0.9-0.1H506.5z M506.6,50l0.4,0.2h0.2
		c0.3-0.2,0.5-0.4,0.7-0.4l-0.1-0.7l-0.2,0C507.1,49.3,506.8,49.6,506.6,50z M507.8,29.1c0.2,0,0.4,0.2,0.6,0.7L508,30l-0.5,0
		c0-0.1-0.1-0.3-0.2-0.5L507.8,29.1z M508.2,60.8h0.3l0-0.3C508.3,60.5,508.2,60.6,508.2,60.8z M509.1,45.7v-0.2
		c-0.6,0.1-0.9,0.5-0.9,1.2h0.2l0.9-0.2c0.3,0.8,0.6,1.2,0.8,1.2h0.2c0-0.2,0.2-0.7,0.8-1.4v-0.2c-0.4-0.5-0.6-0.8-0.8-0.8
		L509.1,45.7z M508.3,55v0.2c0.1,0.2,0.2,0.3,0.3,0.3h0.6c0-0.2,0.1-0.4,0.3-0.7c-0.1,0-0.2,0-0.2-0.2C509,54.9,508.6,55,508.3,55z
		 M509,57.6l0,0.5c-0.3,0-0.4-0.1-0.4-0.3L509,57.6z M510.6,62.4c0.1,0.4-0.3,0.6-1,0.7v0.3c1,0.1,1.6,0.2,1.9,0.3l0.9-0.6l0.4,0.2
		c0.1,0,0.2-0.1,0.2-0.2l0.9,0.1l0.7,0l0-0.3c0-0.3-0.2-0.4-0.7-0.5c-0.3,0.1-0.5,0.2-0.6,0.2c0-0.2-0.1-0.3-0.3-0.3
		c0,0.2-0.2,0.4-0.5,0.5l-0.2,0C511.8,62.7,511.3,62.6,510.6,62.4z M509.7,69.8h0.3v-0.3C509.8,69.5,509.7,69.6,509.7,69.8z
		 M510.2,79.8v0.3l0.3,0v-0.3L510.2,79.8z M511,61.2c0,0.3-0.2,0.5-0.5,0.5c0,0.2,0.2,0.3,0.6,0.5h0.2c0.2,0,0.3-0.2,0.3-0.4v-0.2
		C511.5,61.5,511.3,61.4,511,61.2z M510.8,68.6c0,0.3-0.1,0.8-0.3,1.2l0.8,0.3c0-0.4,0-0.5,0.2-0.5C511.2,68.9,511,68.6,510.8,68.6z
		 M511.2,66.8l0,0.3c0.1,0.2,0.2,0.3,0.4,0.3c0.4-0.4,0.6-0.6,0.9-0.6c-0.2-0.6-0.3-0.9-0.4-0.9C511.6,66.3,511.3,66.6,511.2,66.8z
		 M511.4,70.3l0,0.5l0.4,0v-0.2C511.8,70.4,511.6,70.3,511.4,70.3z M511.6,43.5h0.2v0.3h-0.2V43.5z M513.9,72.6v0.2h0.3v-0.2H513.9z
		 M517.1,71.8l0.2,0l0,0.3l-0.2,0V71.8z M521.3,78.8c0.7,0.3,1.1,0.5,1.1,0.7v0.3c0,0.2-0.2,0.3-0.5,0.3l-1.3-0.3v-0.2
		C520.9,79.1,521.1,78.8,521.3,78.8z"/>
</g>
<path class="st1" d="M462.5,69.7c0,0.3,0.8,0.6,2.5,1v0.2h-0.2c-0.3-0.2-1.2-0.2-2.5-0.1l-0.1-1H462.5z M466,67.8
	c0,0.2-1,0.6-2.9,1.1h-0.2c-0.3,0-0.5-0.3-0.6-1C462.9,68,464.1,68,466,67.8z M510.5,79.8v0.3l-0.3,0v-0.3L510.5,79.8z M520.6,79.7
	v0.2l1.3,0.3c0.4,0,0.6-0.1,0.5-0.3v-0.3c0-0.2-0.4-0.4-1.1-0.7C521.1,78.8,520.9,79.1,520.6,79.7z M506.4,73.5v0.2H506v-0.2
	L506.4,73.5z M514.2,72.8h-0.3v-0.2h0.3V72.8z M517.1,72.1l0.2,0l0-0.3l-0.2,0V72.1z M511.8,70.6v0.2l-0.4,0l0-0.5
	C511.6,70.3,511.8,70.4,511.8,70.6z M510.1,69.5v0.3h-0.3C509.7,69.6,509.8,69.5,510.1,69.5z M511.4,69.6c-0.1,0-0.2,0.2-0.2,0.5
	l-0.8-0.3c0.3-0.5,0.4-0.9,0.3-1.2C511,68.6,511.2,68.9,511.4,69.6z M512.1,66.1c0.1,0,0.2,0.3,0.4,0.9c-0.2,0-0.5,0.2-0.9,0.6
	c-0.2,0-0.3-0.1-0.4-0.3l0-0.3C511.3,66.6,511.6,66.3,512.1,66.1z M462.1,68.6l0,0.3l-0.3,0C461.7,68.8,461.8,68.7,462.1,68.6z
	 M512.1,62.9l0.2,0c0.4-0.2,0.5-0.4,0.5-0.5c0.2,0,0.4,0.1,0.4,0.3c0.1,0,0.3-0.1,0.6-0.2c0.5,0,0.7,0.2,0.7,0.5l0,0.3l-0.7,0
	l-0.9-0.1c0,0.1-0.1,0.2-0.2,0.2l-0.4-0.2l-0.9,0.6c-0.3-0.1-0.9-0.2-1.9-0.3v-0.3c0.8-0.1,1.1-0.3,1-0.7
	C511.3,62.6,511.9,62.7,512.1,62.9z M511.5,61.7v0.2c0,0.2-0.1,0.4-0.3,0.4H511c-0.4-0.2-0.6-0.3-0.6-0.5c0.4,0,0.5-0.2,0.5-0.5
	C511.3,61.4,511.5,61.5,511.5,61.7z M465.1,66.1v0.2l-0.3,0v-0.2H465.1z M463.8,65.9l0,0.7h-0.2v-0.7H463.8z M508.5,60.4l0,0.4h-0.3
	C508.2,60.6,508.3,60.5,508.5,60.4z M470.5,63.2v0.2l-2.3,0.2v-0.2l0.2-0.3C469.8,63,470.5,63,470.5,63.2z M508.6,57.8
	c0,0.2,0.1,0.3,0.4,0.3l0-0.5L508.6,57.8z M508.7,57.1c0,0.1,0.4,0.1,1.1,0.1l-0.3,0.5v0.2l0.6,0l0.5-0.4l0.4,0.2
	c0.1-0.2,0.2-0.4,0.2-0.5c0.4,0.2,0.8,0.3,1.1,0.3l0.5-0.4h0.2v0.5l-0.2,0.3c-0.3,0-0.5,0-0.7-0.1l-0.9,0.5l-0.7-0.1
	c-0.7,0.2-1,0.6-1,1.2l-0.3,0l0-0.3c-0.9-0.1-1.3-0.4-1.3-0.8l-1.1,0.6h-0.5v-0.2l0.6-1.1l0.9,0.1C508.3,57.3,508.6,57.1,508.7,57.1
	z M467,61.2l1.1,0c0,0.2-0.1,0.6-0.3,1.1l0.2,0.3c-0.3,0.4-0.5,0.7-0.5,0.9c-0.5,0-1-0.2-1.5-0.7c-0.5,0-1,0.2-1.4,0.4
	c0-0.1-0.1-0.2-0.4-0.2v-0.3C465.3,62.6,466.2,62.1,467,61.2z M481.2,57.5l0.2,0.3c0.6-0.1,0.9-0.3,0.9-0.5v-0.2
	c0-0.2-0.2-0.3-0.4-0.3C481.4,57,481.2,57.3,481.2,57.5z M509.3,54.6c0,0.1,0.1,0.2,0.2,0.2c-0.2,0.3-0.3,0.6-0.3,0.7h-0.6
	c-0.2,0-0.3-0.1-0.3-0.3V55C508.6,55,509,54.9,509.3,54.6z M476,56.3c0,0.2-0.1,0.4-0.3,0.4l0-0.3L476,56.3z M496.4,55.9l0.6,0.3
	h0.2l0.5-0.4c-0.1-0.6-0.3-0.9-0.6-0.9C496.9,55.1,496.6,55.4,496.4,55.9z M469.6,57.6v0.2c0,0.2,1.3,0.3,3.8,0.4v0.2
	c0,0.2-0.1,0.3-0.3,0.3l-2.6,0.2l0-0.3c-0.2,0-0.3,0.1-0.3,0.4c-0.6,0-1.1-0.3-1.3-0.9v-0.3L469.6,57.6z M478.3,54.1l0.4,0.2
	c-0.1,0.8-0.2,1.3-0.2,1.4c-0.3-0.1-0.5-0.3-0.7-0.9c0.1-0.2,0.1-0.4,0.1-0.7H478.3z M491.7,53.3c-0.2,0.3-0.3,0.5-0.5,0.5l0-0.5
	H491.7z M493,52.4l0,0.3h-0.4C492.6,52.5,492.7,52.4,493,52.4z M472.8,52.5l2.1-0.2v0.2c0,0.2-0.9,0.5-2.8,1
	c-0.3-0.1-0.5-0.2-0.6-0.2v-0.3L472.8,52.5z M470.8,53.5c-0.1,0.5-0.2,0.9-0.5,1.2l-0.6-0.3l-0.3,0.2l-0.2-0.3
	c-0.2,0-0.3,0.1-0.6,0.2h-0.2l0-0.3c0.8-0.6,1.2-1.4,1.2-2.1C470,52,470.4,52.5,470.8,53.5z M478.1,51.3c0.4,0.4,0.6,0.8,0.6,1.4
	c0,0.3-0.4,0.5-1.2,0.7c0-0.1-0.1-0.2-0.2-0.2l-0.5,0l-1.3,0.2c0-0.2-0.1-0.5-0.4-0.9c0.1-0.2,0.2-0.5,0.2-0.7l0.9,0.2
	C476.8,52.1,477.4,51.8,478.1,51.3z M507.6,49.1l0.2,0l0.1,0.7c-0.2,0-0.5,0.2-0.7,0.4H507l-0.4-0.2
	C506.8,49.6,507.1,49.3,507.6,49.1z M472.5,49.6c0,0.1,0.1,0.2,0.3,0.2l0,0.7c-0.1,0-0.6,0.2-1.6,0.6l-0.2,0v-0.3
	C471.2,50.4,471.6,50,472.5,49.6z M479.9,49.1v0.2l-1.3-0.3l0.2-0.3C479.4,48.6,479.7,48.8,479.9,49.1z M495.3,47.9
	c-0.5,0.6-1,1-1.4,1.1h-0.2v-0.2l1-1.2L495.3,47.9z M473.9,48.3c0.1,0.3,0.9,0.6,2.5,1v0.2h-0.2c-0.3-0.2-1.2-0.3-2.5-0.1l0-1H473.9
	z M506.2,46.1c0,0.2,0.1,0.3,0.3,0.3h0.2l0.9-0.2v0.2c-0.3,0-0.5,0.2-0.5,0.7l-1.3,0.1c0-0.5-0.2-0.7-0.4-0.7v-0.2
	C505.8,46.4,506,46.3,506.2,46.1z M510.4,45.3c0.2,0,0.4,0.3,0.8,0.8v0.2c-0.6,0.7-0.8,1.2-0.8,1.4h-0.2c-0.2,0-0.4-0.4-0.8-1.2
	l-0.9,0.2h-0.2c0-0.7,0.3-1.1,0.9-1.2v0.2L510.4,45.3z M477.4,46.4c0,0.2-1,0.6-2.9,1.1h-0.2c-0.3,0-0.5-0.3-0.6-1
	C474.3,46.6,475.5,46.6,477.4,46.4z M483.7,45.5v0.2c0,0.2-0.1,0.4-0.3,0.4l0-0.5H483.7z M511.6,43.8h0.2v-0.3h-0.2V43.8z
	 M502.7,43.9c0,0.2,0.2,0.3,0.4,0.3l0.3-0.2c0-0.2-0.1-0.3-0.4-0.3L502.7,43.9z M474.1,44.1c0,0.2-0.1,0.4-0.3,0.4l-0.2,0v-0.3
	L474.1,44.1z M476.6,42.7l0.4,0c1,0.5,1.6,0.8,1.6,0.9l-0.2,0c-1.4-0.1-2.3-0.2-2.4-0.2C476.1,43,476.4,42.7,476.6,42.7z M485.4,42
	h0.2c0.2,0,0.3,0.1,0.3,0.3l-0.9,0.2v-0.2C485,42.2,485.1,42.1,485.4,42z M483,41.6h0.2c0,0.2,0.2,0.5,0.6,0.9
	c0.1,0,0.3-0.1,0.6-0.2l0.2,0c-0.3,0.9-0.6,1.5-0.8,1.8c-0.3,0-0.6-0.1-1.1-0.3l0.2-0.4c0-0.2-0.1-0.3-0.4-0.3h-0.3l-0.4,0.2
	c0,0.2-0.5,0.6-1.4,1.3v0.5c1,0.3,1.5,0.6,1.5,0.8c-0.2,0.3-0.3,0.6-0.3,1v0.2c-0.5,0-1-0.5-1.7-1.5l0,0.3l0.2,0.3
	c-1,0.8-1.6,1.1-1.8,1.1l0-0.7c0.4,0,0.6-0.2,0.5-0.4c-0.2,0-0.3,0.1-0.5,0.2c-0.1,0-0.3-0.2-0.4-0.5c0-0.4,0.1-0.5,0.3-0.5
	c0.2,0,0.3,0.1,0.3,0.3l1.3-0.2v-0.3c-0.2,0-0.3-0.1-0.6-0.2c0.8-0.5,1.2-1.1,1.2-1.8c0-0.2,0.3-0.4,0.9-0.7l0.8,0.3
	C482.4,42,482.7,41.6,483,41.6z M474.1,39.9v0.3h-0.2l0-0.3H474.1z M483.6,38.8h0.2c0,0.3,0.1,0.5,0.2,0.7c0.1,0,0.3-0.1,0.5-0.2
	l0.3,0l-1.6,1.1l-0.5,0C483,39.3,483.2,38.8,483.6,38.8z M505.1,37.5c0.2,0,0.4,0.1,0.4,0.3V38h-0.3c-0.4-0.2-0.6-0.3-0.6-0.5
	L505.1,37.5z M485.9,38.5l0,0.5l-0.2,0.4c-0.2-0.1-0.4-0.2-0.5-0.2C485.5,38.8,485.7,38.5,485.9,38.5z M495.8,38.2
	c0,0.2,0.1,0.3,0.3,0.3l0.3,0c0-0.3,0.1-0.6,0.4-0.9c0-0.2-0.1-0.3-0.4-0.3h-0.2C496.1,37.3,495.9,37.6,495.8,38.2z M478.7,37.9
	c0.5,1.3,1.4,2,2.6,2.2v0.2c-0.2,0-1.1,0-2.6-0.1c-0.1-0.1,0-0.2,0.2-0.2c0-0.2-0.1-0.3-0.4-0.3H478c-0.1,0.7-0.4,1.1-1,1.1
	l-0.4-0.2c-0.1,0-0.3,0.1-0.5,0.2l-0.2-0.3v-0.2c1.6-1.1,2.4-1.9,2.4-2.4L478.7,37.9z M476.3,37v0.3c0,0.2-0.1,0.3-0.3,0.3
	c-0.2,0-0.4-0.1-0.4-0.3v-0.2C475.8,37.1,476.1,37.1,476.3,37z M486.3,35.7l0,0.9h0.2l0.9-0.2l0,1c0,0.2-0.1,0.4-0.3,0.4l-0.2,0
	c0-0.5-0.5-0.9-1.5-1l0-0.9L486.3,35.7z M480.8,35.7l0.5,0c0.4,0.2,0.6,0.3,0.6,0.5l0,0.2c-0.2,0.4-0.4,0.6-0.5,0.6
	c0,0.1,0.7,0.2,2,0.3c0,0.1-0.1,0.3-0.2,0.5l0.4,0.5c-0.4,0-0.5,0.2-0.5,0.5h-0.4l-1.8-1.2l-1.5,0.1v-0.2L480.8,35.7z M475.7,35.7
	h0.4v0.3h-0.7C475.3,35.9,475.4,35.8,475.7,35.7z M506.7,33.2l0.9,0.1c0-0.1,0.1-0.2,0.2-0.2c0.3,0.4,0.4,0.7,0.4,1
	c-0.5,0-0.7,0.2-0.7,0.4c-0.9-0.1-1.3-0.3-1.3-0.5c0.2-0.3,0.3-0.6,0.3-0.9H506.7z M501.2,33.4h-0.3v-0.2h0.3V33.4z M501.4,32.4v0.5
	l-0.9,0.2h-0.2V33C500.3,32.7,500.7,32.5,501.4,32.4z M503.9,31.9v0.3l0.4,0l0.5-0.3l0.4,0c0,0.6-0.4,1-1.2,1.3
	c-0.8-0.2-1.3-0.3-1.5-0.3v-0.2l0.2,0v-0.7L503.9,31.9z M487.7,30.9l-0.3,1c0.2,0,0.4,0.1,0.4,0.3c-0.2,0-0.5,0.2-0.9,0.5l0-0.7
	l-0.2,0c-0.9,0-1.4,0.2-1.4,0.6l0,0.9l-2.4,0.2l-0.2-0.9l0.4-0.5l0-0.2l-0.2-0.3l0.9-0.6h0.2l2.8-0.1c0.5-0.2,0.7-0.4,0.7-0.5
	L487.7,30.9z M480.5,31.2l0.2,0c0,0.4,0.2,0.5,0.4,0.5c0,0.2-0.1,0.4-0.3,0.4c-0.4-0.2-0.6-0.3-0.6-0.5
	C480.2,31.3,480.3,31.2,480.5,31.2z M507.2,29.5c0.1,0.2,0.2,0.4,0.2,0.5l0.5,0l0.3-0.2c-0.2-0.5-0.4-0.7-0.6-0.7L507.2,29.5z
	 M489.7,30.1c0.2,0,0.3,0.4,0.4,1.2c-0.4,0.6-0.7,0.9-0.9,0.9h-0.2c0-0.4-0.2-0.8-0.4-1C489,30.6,489.3,30.2,489.7,30.1z M477.9,30
	c0,0.2,0.1,0.3,0.3,0.3v-0.5h-0.3V30z M502,28.5l0.8,0.5h0.2l0.5-0.4h0.3c-0.6,0.9-1.3,1.3-2.3,1.3c0-0.1-0.2-0.2-0.4-0.2
	c0.4-0.4,0.5-0.8,0.5-1.2H502z M483.4,29.6v0.5H483V30C483,29.8,483.2,29.7,483.4,29.6z M481,29.7h0.2l0.4,0.2
	c-0.3,0.3-0.4,0.6-0.3,0.9h-0.5c0-0.1,0-0.3,0.1-0.5l-0.2-0.3L481,29.7z M500.6,28.4l0.3,0.2c0,0.2-0.3,0.4-0.9,0.5l-0.2-0.3
	C500.1,28.7,500.3,28.6,500.6,28.4z M484.4,27.6l0.4,0.2l-0.2,0.4c-0.2,0-0.3-0.1-0.4-0.3v-0.2L484.4,27.6z M503.4,25.3l0.2,0.3
	c-0.8,1.2-1.3,1.8-1.4,1.8l-0.2,0l-0.3-0.2C501.6,26.4,502.2,25.7,503.4,25.3z M505.7,24.8l0,1.2h-0.3v-0.5h-0.4l-0.4,0.2l-0.2-0.3
	l0-0.3c0.1,0,0.2,0.1,0.2,0.2C504.9,25.2,505.3,25.1,505.7,24.8z M497.7,24.8c0,0.5,0.2,0.7,0.6,0.7v0.2c-0.7,0.2-1.1,0.5-1,1.1
	l-0.9,0l0.1-1.7l0.9,0L497.7,24.8z M488.1,25v0.5c-0.5-0.2-0.7-0.3-0.7-0.5L488.1,25z M483.1,25.3c0,0.2,0.2,0.3,0.4,0.3
	c0,0.3-0.1,1-0.3,2.1c-1,0-1.8-0.5-2.4-1.5C481.7,26,482.5,25.6,483.1,25.3z M480.1,25.4l0.2,1v0.2c-0.4-0.2-0.5-0.3-0.5-0.5l0-0.3
	C479.7,25.6,479.8,25.4,480.1,25.4z M493.4,23.6c-0.4,0.7-0.8,1.1-1,1.1c-0.2,0-0.3-0.1-0.3-0.3c0.7-0.6,1-1,1-1.1
	C493.3,23.3,493.4,23.4,493.4,23.6z M487.6,22.4h0.2l0.5-0.4c0.4,0.2,0.5,0.3,0.5,0.5l0,0.5c-0.1,0-0.5,0.2-1.2,0.6
	c0-0.2-0.1-0.3-0.3-0.3c0-0.1,0.1-0.2,0.2-0.2c0-0.2-0.1-0.3-0.4-0.3l-1.4,1l0.8,0.8c-0.1,0.8-0.3,1.2-0.5,1.2
	c0,0.2,0.1,0.5,0.4,0.9h-0.2c-0.2,0-0.3-0.1-0.4-0.3l-1.2,0.4h-0.4v-0.2l0.2,0c0.5-1.1,0.9-1.6,1.2-1.6c0-0.1-0.3-0.3-0.8-0.8l0-0.2
	l0.4,0.2h0.2c0-0.5-0.3-0.9-1-1c-0.1,0.3-0.2,0.9-0.3,1.9l-0.7,0l0-0.7l-0.3-0.9c0.4,0,0.6-0.3,0.5-0.9l0.5,0.3l0.4,0
	c0.3-0.5,0.8-0.8,1.4-0.9l0.4,0.2c0.2,0,0.3-0.1,0.3-0.4L487.6,22.4z M500.5,19.8V20l-1.6,0.6h-0.3C498.5,20.2,499.1,20,500.5,19.8z
	 M488.4,16.4v0.3l-0.3,0v-0.3L488.4,16.4z M487.8,16.1v0.3h-0.2l0-0.3H487.8z M483.5,16.3c0,0.1,0.1,0.3,0.2,0.5
	c0,0.3-0.2,0.6-0.5,1.1l0.2,0.3c-0.2,0-0.2,0.1-0.2,0.2c0,0.2,0.2,0.3,0.4,0.3c0.2,0,0.3-0.4,0.3-1.2l0.8,0.5l0.2,0v-0.2
	c-0.2-0.3-0.5-1-0.8-1.9L483.5,16.3z M498.7,13.9v0.3l-0.2,0l0-0.3L498.7,13.9z M497.8,13.8c0,0.1,0.1,0.3,0.2,0.5
	c-0.1,0-0.2,0.1-0.2,0.2c-0.6-0.1-0.9-0.2-0.9-0.5v-0.2L497.8,13.8z M487.8,12.8l0.1,1c0,0.2-0.1,0.4-0.3,0.4h-0.3
	c0-0.1-0.1-0.3-0.2-0.5l0-0.3l0.4,0.2h0.2l0.2-0.7H487.8z M484.9,12.5l0,0.5l0.2,0.9c-0.2,0-0.4,0.3-0.5,0.7c0,0.2,0.2,0.3,0.4,0.3
	l-0.2,0.4v0.4l0.4,0.5l-0.2,1l0.2,0.3c-0.1,0-0.2,0.1-0.2,0.2l0.8,0.7c-0.5,0-0.7,0.2-0.7,0.4l0,0.3l0.9,0.1v0.3
	c-0.3,0.5-0.5,0.7-0.7,0.7h-0.2l-0.6-0.3v-0.5c0-0.2-0.2-0.3-0.4-0.3c-0.2,0-0.3,0.1-0.4,0.3c-0.8,0.5-1.2,0.9-1.2,1.1h-0.3
	c-0.6,0-1.2,0.2-1.6,0.6l0.5,0.7l0,0.5l-0.7,0l0-0.3l-0.5,0c0,0.2-0.1,0.4-0.3,0.7c0.3,0.6,0.8,0.8,1.5,0.8
	c-0.1,0.2-0.3,0.5-0.9,0.7L480,24c-0.5,0.5-0.9,0.7-1,0.7c0.2,0.6,0.2,1,0.2,1l-0.1,0.9h-0.2v-0.2c0-0.1,0.1-0.3,0.2-0.5h-0.3
	l-0.2,0.9V27c0,0.2,0.2,0.3,0.4,0.3c0,0.2-0.1,0.4-0.4,0.4l0.3,0.9l0.1,1.7c0,0.3,0.1,0.6,0.4,1l-0.9,0.4c-0.4-0.6-0.6-1.2-0.8-1.9
	h-0.4c-0.4,1.4-0.8,2.1-1,2.2l0,0.9h0.2l0.5-0.4c0,0.3,0.1,0.5,0.2,0.7l1.1-0.2c0.2,0,0.5,0.1,0.9,0.3c0.4-0.3,0.9-0.6,1.4-0.7
	l-0.2,1l0.2,0.4c-0.2,0-0.3,0.1-0.6,0.2c-0.3,0-0.6-0.2-0.9-0.5c-0.8,0.1-1.3,0.3-1.6,0.6h-0.2c0-0.4-0.2-0.5-0.4-0.5h-0.4
	c0,0.5-0.1,1-0.3,1.2l-0.3-0.2l-0.4,0.2c0-0.1-0.1-0.2-0.2-0.2c-0.4,0-0.6,0.6-0.8,1.8c0.1,1.6-0.4,2.7-1.5,3.2l0,0.3l0.5,0v0.2
	c-0.3,0-0.5,0.1-0.5,0.4c0,0.2,0.2,0.3,0.4,0.3h0.2v-0.3c0.4,0.2,0.6,0.3,0.6,0.5c-0.6,0-0.9,0.2-0.9,0.5h-0.2
	c-0.4-0.2-0.6-0.3-0.6-0.5c-0.2,0-0.4,0.5-0.7,1.3c0,0.1,0.1,0.3,0.2,0.5c0,0.7-0.4,1.2-1.2,1.6c0,0.1,0.5,0.6,1.6,1.5l0,0.4
	c-0.3,0-0.5,0.1-0.7,0.2c0,0.1,0.1,0.3,0.2,0.5c0,0.3-0.1,0.5-0.3,0.5c0-0.1-0.1-0.3-0.2-0.5c0-0.1,0.1-0.3,0.2-0.5
	c-0.4-1-0.7-1.6-0.8-1.6c-0.2,0-0.4,0.5-0.6,1.4l0.2,0.9c-0.7,0.4-1.4,1.2-2.1,2.6l0.2,0.3c0.1,0,0.3-0.1,0.5-0.2
	c0.6,0.1,0.9,0.2,0.9,0.5c0.2,0,0.3-0.1,0.5-0.2l0.2,0l0,0.7l-1.3,0.4l-0.5,0c0-0.2,0.2-0.4,0.7-0.4l0-0.3l-0.7,0
	c-1,0.4-1.8,1-2.3,1.8V53l0.4,0.5l-0.2,0.3l-0.4-0.2l-0.5,0.4c0.3,0.4,0.6,0.7,0.8,0.7l0.3,0c0.3,0,0.4-0.2,0.3-0.7h0.3l0,0.9h-0.2
	c-2,0.5-3.1,1.1-3.3,1.6l0,0.3l0.3,1c-0.1,0.2-0.2,0.4-0.2,0.5c-1.2,0.1-1.8,1.1-1.7,3l-0.4-0.2l-0.5,0c-0.5,1.5-0.9,2.3-1.2,2.3
	c0,0.1,0.1,0.3,0.2,0.5l-2.6,6.5c0.6,0.8,1.4,1.2,2.2,1.1c1.3,1.2,2.2,1.8,2.7,1.8c2,1.1,3.2,1.7,3.6,1.8l0.9,0
	c0.2,0,0.4-0.2,0.4-0.4L470,75c2.3-3.2,3.4-5.1,3.4-5.7l-0.2-0.3c1.4-0.8,2.1-1.9,2-3.3l0.3,0.2c0-0.1,0.1-0.3,0.2-0.5
	c-0.2-0.1-0.4-0.1-0.5-0.1c0-0.2,0.3-0.7,1-1.3l0-1c0.5,0,0.7-0.2,0.7-0.6l0.3,0.2c0.4-0.2,0.6-0.4,0.5-0.5v-0.2h-0.4l0-0.9
	c0.4,0,0.9-0.5,1.4-1.5c-0.2-0.3-0.4-0.5-0.6-0.5l-0.3,0l-0.5,0.4c0-0.1-0.1-0.3-0.2-0.5v-0.2c0.3,0,0.5,0.1,0.7,0.2
	c2.4-1.3,3.5-2.7,3.4-4.2l-0.3-0.5l0-0.2c0.5,0,0.9-0.3,1.1-0.8c0.2,0,0.3,0.1,0.3,0.3c0.1,0,0.2-0.1,0.2-0.2l1.1,0.1
	c0.1,0,0.3-0.1,0.7-0.2c0,0.2,0.3,0.3,0.8,0.5c0.4-0.6,0.7-0.9,0.9-0.9l1.1,0.5c0,0.3-0.2,0.7-0.5,1.2v0.5c0.5,0,0.8,0.2,0.8,0.7
	h0.2c0.3,0,0.5-0.6,0.7-1.8c-0.3-0.5-0.4-0.8-0.5-1v-0.2h0.4c0.4,0.1,0.6,0.5,0.6,1.2c0.1,0.8,0.6,1.3,1.7,1.5
	c0.4-0.2,0.6-0.4,0.5-0.5c0.2,0,0.4,0.1,0.4,0.3l-0.3,0.5l0,0.2l1.3,0.7c0.4-0.1,0.6-0.5,0.9-1.3l-0.8-0.3c0-0.5,0.2-1.2,0.7-2.1
	l0.3,0.2c0,0.1-0.1,0.2-0.2,0.2c0,0.6,0.5,1,1.5,1.2l0.7-0.4c0,0.1,0.1,0.2,0.2,0.2h0.2c0.5-0.6,0.9-0.9,1-0.9v0.2
	c0.3,0,0.8-0.1,1.4-0.2c0.3,0,0.8,0.2,1.3,0.6h0.3l0.4-0.2c0-0.1-0.1-0.2-0.2-0.2l0.5-0.7c0.2,0,0.3,0.1,0.3,0.3l0,0.2l-0.1,1.2
	c0.1,0,0.2,0.1,0.2,0.2c-0.1,0-0.2,0.1-0.2,0.2l0.2,0.3c-0.5,0-0.7,0.1-0.7,0.3l0,0.5c0.3,0,0.9,0,2,0.1v0.2l-0.9,0l0,0.3l0.3,0
	l-0.2,0.3v0.2l0.5,0l-0.2,0.4c-0.4,0-0.8-0.2-1.3-0.5h-0.2c-0.2,0-0.3,0.1-0.3,0.3l0,0.3c0.3,0,0.5,0.1,0.7,0.2v-0.2h0.4v0.2
	c-0.4,0-0.6,0.2-0.5,0.6c0,0.1,0.1,0.3,0.2,0.5c0.1,0,0.2-0.1,0.2-0.2l0.3,0.2c0,0.2-0.2,0.7-0.7,1.4c0.3,1.2,0.6,1.7,0.8,1.7h0.2
	c0.3-0.3,2-0.7,5.3-1.1c0,0.6,0.3,0.9,0.8,0.9c0.6-0.3,0.9-0.5,0.9-0.7l0.2,0l0,0.2c0,0.5-1.7,1.2-5,2l-0.6,0V63h-0.2
	c-1,0.2-1.4,0.5-1.4,0.8l0.4,0.5l0.1,1.6l0.2,0.3l1-1.6c0,0.1-0.1,0.3-0.2,0.5l0.2,0.4l0.5-0.4v0.3c0,0.3,0,0.5-0.2,0.7l0.2,0.3
	l0,0.2c0,0.1-0.4,0.4-1.3,0.9l0,0.3l0.7,0l0.3-0.2c0,0.2,0.2,0.4,0.4,0.7c0.2,0,0.3-0.2,0.3-0.4c0.2,0,0.4,0.2,0.6,0.7v0.2
	c-0.8,0.6-1.2,1.1-1.2,1.3l0.2,0.3c0.1,0,0.3-0.1,0.5-0.2c0.2,0,0.3,0.2,0.4,0.5c-1.2,0.5-1.8,0.9-1.7,1.3c0,0.1,0.1,0.3,0.2,0.5
	c0.1,0,0.2-0.1,0.2-0.2c0.3,0.1,0.7,0.3,1.2,0.9l1.3,4.1l-0.2,0.4v0.2c1.3,1.2,1.9,2,1.9,2.4l1.2,0c0,0.4,0.2,0.8,0.5,1
	c0.5-0.3,0.8-0.6,0.9-0.9l0.3,0.2c0.6-0.7,1-1.1,1-1.1c0.2,0,0.5,0.3,0.8,1c0,0.1-0.5,0.4-1.6,0.8c0.3,0.5,0.5,0.8,0.8,0.8h0.2
	c0.3,0,0.4-0.3,0.3-0.9h0.3l0,0.5l-0.2,0.3c0.8,0,1.3-0.5,1.7-1.3c0-0.1-0.3-0.4-0.9-0.9l0-0.7c1.9-0.5,2.9-0.8,3.1-0.9h0.5
	c0.3,0.2,0.6,0.3,0.7,0.3l-0.2,0.9c0.5,0.6,0.8,0.9,1,0.9h0.2c0.9-0.3,1.3-0.4,1.5-0.4c-0.5-0.6-0.9-1.3-1.2-2.1
	c0.1-0.6,0.5-0.9,1.2-0.9l0.2,0.9l0.4,0v-0.3h0.2c0,0.3,0.2,0.5,0.4,0.5h0.2v-0.3l-0.4-0.5c-0.1-1.3-0.8-2.3-2.3-2.9l0-0.5
	c0.4,0,0.6-0.1,0.5-0.3v-0.2c-0.2-0.3-0.4-0.5-0.6-0.5c-0.9,0.1-1.3,0.2-1.4,0.6c-0.5,0-1.1-0.2-1.7-0.8c0-0.5,0.3-1,0.9-1.4
	c0.1,0,0.2,0,0.2,0.2c0.1,0,0.3-0.1,0.5-0.2c0.2,0,0.4,0.1,0.7,0.3l0.6,0c0.2,0,0.3-0.2,0.5-0.7l-0.2-0.3c-0.4,0-0.7,0.1-0.9,0.2
	c0-0.1,0.1-0.3,0.2-0.5c0-0.2-0.2-0.3-0.6-0.3v-0.3l0.2-0.3c-0.1,0-0.2-0.1-0.2-0.2c-0.2,0-0.6,0.2-1,0.6c-0.2,0-0.4-0.1-0.4-0.3
	v-0.3c0.9-0.4,1.5-0.7,1.8-1c0-0.6-0.2-0.9-0.6-1H517c-0.5,0-1,0.2-1.4,0.4c0,0.2-0.4,0.5-1.3,1.1l0.2,0.3l-0.4,0
	c0-0.6-0.2-0.9-0.5-0.9l0-0.3l0.7-0.7c-0.2-0.3-0.4-0.5-0.6-0.5l0.2-0.4l1.1,0.5h0.4c0.1,0,0.2-0.1,0.2-0.2l1.6-0.9
	c0-0.2-0.2-0.3-0.5-0.3c0-0.2,0.1-0.3,0.3-0.4l-0.7-0.7l0-0.2h0.4v-0.4h-0.2l-0.6,0.4l-0.7,0v-0.3c0.2,0,0.7-0.4,1.6-1.1v-0.2
	c-0.3-0.3-1.1-0.9-2.6-1.8v-0.2c0-0.2,0.1-0.3,0.3-0.4c0.3,0,0.4,0.1,0.4,0.3c0.5-0.3,0.8-0.5,0.9-0.7v-0.2
	c-0.3-0.4-0.6-0.7-0.8-0.7c0-0.1,0.1-0.3,0.2-0.5c0-0.3-0.4-0.6-1.3-1.2v-0.3h0.2l0.8,0.5l0.3,0c0.2,0,0.3-0.1,0.3-0.3v-0.3
	c-0.3,0-0.6-0.2-1.1-0.7H514c-0.2,0-0.3,0.3-0.3,0.7h-0.4c0-0.3,0-0.5,0.1-0.7l-0.5-0.7c0-0.1,0.2-0.4,0.7-0.9l0-0.7
	c-0.1-0.3-0.4-0.5-0.9-0.5l0.5-0.9c-0.1-0.3-0.4-0.5-0.9-0.7h-0.3c-1.2,1.1-1.9,1.7-2.1,1.7l-0.9-0.1l0-0.9c0.2,0,0.3,0.1,0.6,0.2
	c0.1,0,1-0.5,2.8-1.4c0-0.1-0.1-0.3-0.2-0.5c0.1-0.2,0.2-0.4,0.2-0.7v-0.3l-0.2-0.3h0.2l-0.2-1c0.3-0.8,0.5-1.3,0.5-1.6
	c0-0.2-0.1-0.7-0.4-1.4h0.2l-1.7-0.8l0.2-0.9l0-0.9c0.4,0,0.7-0.1,0.9-0.2c-0.3-0.5-0.4-0.8-0.4-1l0.2-0.4l-0.3-0.2
	c-0.8,0.1-1.5,0.8-2.3,2.2l0.2,0.3c-0.4,0-0.7,0.3-0.9,0.7v0.2l0.2,0.3c-0.5,0.5-0.7,0.8-0.7,1.1l-0.3,0l0.2-0.4l-0.2-0.3
	c-0.3,0.3-1.5,0.5-3.4,0.9h-0.2l-0.8-0.9c-0.2,0-0.3,0.2-0.3,0.5c-0.2,0-0.8,0.1-1.8,0.1l-0.9,0.2l-0.9-0.5l-0.2,0
	c0,0.1,0.1,0.2,0.2,0.2c0,0.4-0.3,0.8-1,1.4l-0.2,0v-0.7l-0.4,0l-1.1,0.7l-0.7-0.7c-0.3,0-0.8,0.2-1.6,0.6c0-0.1-0.1-0.2-0.2-0.2
	c-0.2,0-0.3,0.1-0.4,0.4c-0.2,0-0.5-0.1-0.9-0.3c-1,0.7-2.2,1.1-3.6,1.2h-0.2l-0.6-0.3h-0.2c-0.9,0.9-1.4,1.3-1.6,1.3
	c-0.3-1.3-0.5-2.1-0.9-2.4l0-0.7c0.5,0,0.7-0.2,0.7-0.4c0-0.2-0.2-0.3-0.5-0.3v-0.2c0-0.2,0.6-0.5,1.9-1.1l1-2.7
	c-1-0.8-1.6-1.2-1.7-1.2l1-1.4l0.7,0.2l0,0.9c0,0.2,0.2,0.3,0.4,0.3l0.7-0.5c0-0.1-0.1-0.3-0.2-0.5c0.1-0.4,0.3-1,0.6-1.6l-0.2-0.3
	c0.4-0.2,0.5-0.4,0.5-0.5v-0.3c-0.4,0-0.7-0.1-1.1-0.3l-0.7,0.4c0-0.2-0.2-0.3-0.6-0.3l0-0.3c0.9-0.1,1.7-0.4,2.4-1.2l-0.2,0.9
	c0,0.2,0.2,0.3,0.4,0.3h0.3l0-0.2l-0.2-0.9l0.4,0c0.4,0,0.8-0.5,1-1.4l-0.2-0.3c0.3,0,0.4-0.3,0.3-0.9h0.2c0.1,0.6,0.3,0.9,0.5,0.9
	h0.2l0.3-0.2c0.3-0.8,0.7-1.3,1-1.3c-0.1-0.5-0.3-1-0.8-1.5l-0.5,0.3l-1.8,0.1l-0.9,0.2l-0.4-0.5V29c0-0.2,0.3-0.4,0.9-0.5
	c1,0.1,1.9,0.1,2.6,0h0.2c0.6-0.4,0.9-0.7,0.9-1.1h0.2v0.2c0,0.1,0,0.3-0.1,0.5c0.1,0.2,0.2,0.4,0.2,0.7l1.4,1.3
	c-0.4,0-0.7,0.3-0.9,0.7l0.1,1c0,0.2,0.1,0.3,0.3,0.3h0.4c0.2,0,0.4-0.2,0.4-0.4c0.2,0.1,0.5,0.2,0.7,0.2c-0.2,0.3-0.3,0.6-0.3,0.9
	c-0.2,0-0.2-0.1-0.2-0.2c-0.7,0.7-1.1,1.2-1.2,1.7l0.2,1c0.3,0,0.8-0.1,1.5-0.4l0.2,0.3l0.9-0.2v0.3l-0.2,0.3l0.4,0.2v0.2
	c-0.9,0-1.3,0.5-1.2,1.3v0.3l0.2,0.3l-0.4,0.2c0,0.1,0.1,0.2,0.2,0.2l-0.1,0.9v0.4l0.2,0.3l-0.3,0.2c0,0.1,0.1,0.2,0.2,0.2
	c0,0.2-0.1,0.3-0.4,0.3c0,0.2,0.2,0.3,0.4,0.3l0.2,0l0.5-0.4l0.3,0l0.4,0.2c0,0.2-0.6,0.8-1.7,1.9c0,0.1,0.1,0.2,0.2,0.2l-0.2,0.3
	v0.2c0.3,0.8,0.4,1.3,0.4,1.4h0.4c0.3-0.2,0.5-0.4,0.5-0.5l1.1,0.1l0.4-0.2c0,0.1,0.1,0.2,0.2,0.2h0.2c0.3-0.3,1.5-0.6,3.4-0.9
	l0.5,0.3l2.3-0.8l0-0.3c-0.9-0.5-1.3-1.1-1.4-1.9c0.2,0,0.4-0.3,0.7-0.9l-0.4-0.5V39c0.4,0,0.5-0.2,0.5-0.5c0.6-0.2,1.2-0.6,1.9-1.3
	c0.3,0.3,0.5,0.5,0.8,0.5v0.2c-0.3,0.5-1,0.9-1.9,1.3c0,0.5-0.4,1-1,1.6l0,0.7c0.7-0.1,1.1,0,1.1,0.3c0,0.2-0.1,0.4-0.3,0.4
	c0.2,0.3,0.4,0.5,0.5,0.5c0,0.1-0.1,0.3-0.2,0.5c0,0.2,0.2,0.5,0.6,0.9c0.2,0,0.3-0.2,0.5-0.7c0-0.1-0.1-0.3-0.2-0.5
	c0.2,0,0.3-0.2,0.3-0.7l-0.2-0.3c0-0.2,0.3-0.7,0.9-1.6c1.5-0.6,2.3-1,2.3-1.2c-0.8-0.6-1.1-1-1.1-1.2c0-0.3,0.2-0.5,0.5-0.5l0-0.5
	h-0.4l-0.3,0.2l-0.4-1.9l0.2-0.3l-0.4-1.2c0.3,0,0.4-0.2,0.3-0.4v-0.3l-0.2-0.3c0.2,0,0.4-0.4,0.5-1.2c0-0.3-0.2-0.5-0.4-0.5h-0.2
	l-0.7,0.7l-0.4,0c0-0.5-0.3-0.7-0.8-0.7c0.2-0.4,0.3-0.7,0.3-1v-0.2l-0.2-0.3c0.3,0,0.4-0.2,0.4-0.4v-0.3l-0.2-1.2
	c0.5,0,0.7-0.2,0.7-0.4v-0.2c-0.2,0-0.7-0.2-1.6-0.7c0.1-0.4,0.4-0.7,1-1.1c0-0.4-0.3-0.9-1-1.5c-1.4,0.1-2.2-0.4-2.4-1.3
	c-0.1-0.9,0.1-1.3,0.5-1.4c-0.1-0.3-0.1-0.5-0.3-0.7l0.7-0.7l0-0.3l-0.2-0.4l-0.7,0.6h-0.2v-0.2l0.7-1.4l-0.8-0.8
	c0-0.2,0.1-0.3,0.3-0.4c0-0.1-0.1-0.4-0.2-1l-1.1-0.6l-0.9,0.2l-0.2-0.9l0-0.2c0.3-0.5,0.6-0.7,0.7-0.7c0-0.2-0.7-0.6-1.9-1h-0.5
	l-2.5,0.5c-0.4-0.3-0.7-0.5-1.1-0.7c-0.2,0.4-0.4,0.6-0.5,0.6l-2.3,0.1c-1.2-0.5-2.1-0.7-2.7-0.7v-0.2c0-0.2,0.2-0.4,0.7-0.4l0-0.5
	c-0.5,0-1.1,0.2-1.6,0.6h-0.2l0.2-0.3c-0.1,0-0.3-0.1-0.6-0.2c-0.3,0-0.5,0.2-0.5,0.5l-1.5,0.1c-0.2,0-0.3-0.2-0.3-0.7h-0.2
	L484.9,12.5z M487.3,10.9h0.3v-0.3h-0.3L487.3,10.9z M488.3,10.6h0.2c0.2,0,0.3-0.1,0.3-0.3h-0.5V10.6z"/>
<rect x="451.6" class="st2" width="80" height="87.5"/>
</svg>
