<?xml version="1.0" encoding="utf-8"?>
<!-- Generator: Adobe Illustrator 22.1.0, SVG Export Plug-In . SVG Version: 6.00 Build 0)  -->
<svg version="1.1" id="Layer_1" xmlns="http://www.w3.org/2000/svg" xmlns:xlink="http://www.w3.org/1999/xlink" x="0px" y="0px"
	 viewBox="0 0 728 90" style="enable-background:new 0 0 728 90;" xml:space="preserve">
<style type="text/css">
	.st0{fill:#231F20;}
</style>
<g>
	<path class="st0" d="M696.9,78.7l-0.1,0.6h-2.6l-0.1,1.7c0.4-0.4,0.8-0.6,1.3-0.6c0.5,0,0.9,0.2,1.3,0.5s0.5,0.8,0.5,1.3
		c0,0.5-0.2,1-0.6,1.3c-0.4,0.3-0.9,0.5-1.4,0.5c-0.4,0-0.8-0.1-1.2-0.4s-0.6-0.5-0.7-0.9l0.6-0.2c0.2,0.6,0.7,0.9,1.3,0.9
		c0.4,0,0.8-0.1,1-0.4c0.2-0.3,0.4-0.6,0.4-1c0-0.4-0.1-0.7-0.4-1s-0.5-0.3-0.9-0.3c-0.5,0-0.9,0.2-1.3,0.7l-0.5-0.1l0.2-2.9H696.9z
		"/>
	<path class="st0" d="M699.2,81.2c-0.7-0.3-1-0.7-1-1.3c0-0.4,0.2-0.7,0.5-1s0.8-0.4,1.3-0.4c0.5,0,1,0.1,1.3,0.4s0.5,0.6,0.5,1
		c0,0.6-0.3,1-1,1.2c0.6,0.3,0.9,0.5,1,0.7c0.1,0.2,0.2,0.5,0.2,0.7c0,0.4-0.2,0.8-0.5,1.1s-0.9,0.4-1.5,0.4c-0.7,0-1.2-0.1-1.5-0.4
		s-0.5-0.6-0.5-1C698,82,698.4,81.6,699.2,81.2z M700,81.5c-0.9,0.2-1.4,0.6-1.4,1.1c0,0.3,0.1,0.5,0.4,0.7c0.2,0.2,0.6,0.3,1.1,0.3
		c0.4,0,0.7-0.1,1-0.3c0.2-0.2,0.4-0.4,0.4-0.7C701.4,82.2,701,81.8,700,81.5z M700.1,80.9c0.4-0.1,0.8-0.3,0.9-0.4s0.3-0.4,0.3-0.6
		c0-0.3-0.1-0.5-0.3-0.6s-0.5-0.2-0.9-0.2c-0.3,0-0.6,0.1-0.8,0.2s-0.3,0.4-0.3,0.6c0,0.2,0.1,0.5,0.4,0.6S699.8,80.8,700.1,80.9z"
		/>
	<path class="st0" d="M706.7,79.8l-0.6,0.2c-0.2-0.5-0.6-0.8-1.1-0.8c-1,0-1.5,0.8-1.5,2.5c0.2-0.4,0.4-0.6,0.7-0.8s0.6-0.3,0.9-0.3
		c0.5,0,0.9,0.2,1.2,0.5c0.3,0.3,0.5,0.8,0.5,1.2c0,0.5-0.2,0.9-0.5,1.3c-0.4,0.4-0.8,0.5-1.4,0.5c-0.6,0-1.1-0.2-1.5-0.7
		c-0.4-0.5-0.6-1.1-0.6-1.9c0-0.8,0.2-1.5,0.5-2s0.9-0.8,1.6-0.8C705.8,78.6,706.4,79,706.7,79.8z M704.8,83.6
		c0.4,0,0.7-0.1,0.9-0.4s0.4-0.5,0.4-0.9c0-0.3-0.1-0.6-0.4-0.9c-0.2-0.2-0.5-0.4-0.9-0.4c-0.4,0-0.7,0.1-0.9,0.4
		c-0.3,0.3-0.4,0.6-0.4,0.9c0,0.3,0.1,0.6,0.4,0.9C704.2,83.4,704.5,83.6,704.8,83.6z"/>
	<path class="st0" d="M708.6,81.5V81h0.6c0.4,0,0.8-0.1,1-0.3c0.2-0.2,0.3-0.4,0.3-0.7c0-0.3-0.1-0.5-0.3-0.7s-0.5-0.3-0.8-0.3
		c-0.6,0-1,0.3-1.2,0.9l-0.6-0.2c0.3-0.8,1-1.2,1.9-1.2c0.5,0,0.9,0.1,1.3,0.4c0.3,0.3,0.5,0.6,0.5,1c0,0.3-0.1,0.6-0.3,0.8
		s-0.4,0.4-0.7,0.4c0.3,0,0.6,0.2,0.9,0.4s0.4,0.5,0.4,0.9c0,0.4-0.2,0.8-0.5,1.1s-0.9,0.5-1.5,0.5c-0.5,0-0.9-0.1-1.3-0.4
		s-0.6-0.6-0.7-0.9l0.6-0.2c0.2,0.6,0.7,1,1.4,1c0.5,0,0.8-0.1,1-0.3c0.2-0.2,0.3-0.4,0.3-0.7c0-0.3-0.1-0.6-0.4-0.7
		s-0.6-0.3-1.1-0.3H708.6z"/>
	<path class="st0" d="M716.2,83.5V84h-3.7v-0.5h1.6v-4.1c-0.5,0.5-1,0.9-1.5,1.2v-0.7c0.7-0.4,1.2-0.8,1.6-1.3h0.5v4.9H716.2z"/>
	<path class="st0" d="M718,81.2c-0.7-0.3-1-0.7-1-1.3c0-0.4,0.2-0.7,0.5-1s0.8-0.4,1.3-0.4c0.5,0,1,0.1,1.3,0.4s0.5,0.6,0.5,1
		c0,0.6-0.3,1-1,1.2c0.6,0.3,0.9,0.5,1,0.7c0.1,0.2,0.2,0.5,0.2,0.7c0,0.4-0.2,0.8-0.5,1.1s-0.9,0.4-1.5,0.4c-0.7,0-1.2-0.1-1.5-0.4
		s-0.5-0.6-0.5-1C716.7,82,717.2,81.6,718,81.2z M718.8,81.5c-0.9,0.2-1.4,0.6-1.4,1.1c0,0.3,0.1,0.5,0.4,0.7
		c0.2,0.2,0.6,0.3,1.1,0.3c0.4,0,0.7-0.1,1-0.3c0.2-0.2,0.4-0.4,0.4-0.7C720.2,82.2,719.7,81.8,718.8,81.5z M718.8,80.9
		c0.4-0.1,0.8-0.3,0.9-0.4s0.3-0.4,0.3-0.6c0-0.3-0.1-0.5-0.3-0.6s-0.5-0.2-0.9-0.2c-0.3,0-0.6,0.1-0.8,0.2s-0.3,0.4-0.3,0.6
		c0,0.2,0.1,0.5,0.4,0.6S718.5,80.8,718.8,80.9z"/>
</g>
</svg>
