<?xml version="1.0" encoding="utf-8"?>
<!-- Generator: Adobe Illustrator 22.0.1, SVG Export Plug-In . SVG Version: 6.00 Build 0)  -->
<svg version="1.1" id="Layer_1" xmlns="http://www.w3.org/2000/svg" xmlns:xlink="http://www.w3.org/1999/xlink" x="0px" y="0px"
	 viewBox="0 0 728 90" style="enable-background:new 0 0 728 90;" xml:space="preserve">
<style type="text/css">
	.st0{fill:#F9E038;}
</style>
<g>
	<path class="st0" d="M36.7,39.9l-1.2-3.3h-4.7l-1.2,3.3h-3.4L32,25.1h2.5l5.8,14.8H36.7z M33.6,31.1c-0.1-0.4-0.3-0.9-0.4-1.4h0
		c-0.1,0.5-0.3,1-0.4,1.4l-1,2.7h2.9L33.6,31.1z"/>
	<path class="st0" d="M47.8,39.9v-6.4c0-0.8-0.5-1.4-1.5-1.4c-1,0-1.7,0.6-1.7,1.5v6.3h-3.4V29.5h3.1v1.4h0c0.4-1.1,1.5-1.7,3.2-1.7
		c2.3,0,3.7,1.3,3.7,3.5v7.2H47.8z"/>
	<path class="st0" d="M61,39.9v-1.3h0c-0.6,1.1-1.8,1.6-3.2,1.6c-2.6,0-5-1.9-5-5.5c0-3.4,2.4-5.5,5.3-5.5c1.1,0,2.2,0.4,2.6,0.7
		v-6.3h3.3v16.4H61z M60.6,33.1c-0.3-0.4-1-0.9-2-0.9c-1.5,0-2.5,1.1-2.5,2.6s1,2.6,2.5,2.6c1,0,1.7-0.5,2-1.1V33.1z"/>
	<path class="st0" d="M77.7,28.2v11.8h-3.6V28.2h-4.2v-2.9h12v2.9H77.7z"/>
	<path class="st0" d="M83.1,39.9V25.2h3.6v14.7H83.1z"/>
	<path class="st0" d="M98.4,39.9l-1.2-3.3h-4.7l-1.2,3.3h-3.4l5.8-14.8h2.5l5.8,14.8H98.4z M95.3,31.1c-0.1-0.4-0.3-0.9-0.4-1.4h0
		c-0.1,0.5-0.3,1-0.4,1.4l-1,2.7h2.9L95.3,31.1z"/>
	<path class="st0" d="M113,39.9l-1.2-3.3h-4.7l-1.2,3.3h-3.4l5.8-14.8h2.5l5.8,14.8H113z M109.9,31.1c-0.1-0.4-0.3-0.9-0.4-1.4h0
		c-0.1,0.5-0.3,1-0.4,1.4l-1,2.7h2.9L109.9,31.1z"/>
	<path class="st0" d="M122.8,39.9V25.2h3.6V37h5.5v2.9H122.8z"/>
	<path class="st0" d="M134.6,28.1c-0.6,0-1.8-1.2-1.8-1.8c0-0.6,1.2-1.8,1.8-1.8c0.6,0,1.8,1.2,1.8,1.8
		C136.4,26.8,135.2,28.1,134.6,28.1z M132.9,39.9V29.5h3.4v10.4H132.9z"/>
	<path class="st0" d="M145.6,26.5c-0.4-0.2-0.9-0.3-1.4-0.3c-1.2,0-1.9,0.7-1.9,2.2v1h3l-0.7,2.8h-2.3v7.7H139v-7.7h-1.6v-2.8h1.6
		v-1.2c0-3.2,2-4.7,4.7-4.7c1,0,1.9,0.1,2.5,0.3L145.6,26.5z"/>
	<path class="st0" d="M155.5,34.1l-1.5,1.5h-5.1c0.2,0.9,1.3,1.8,3.1,1.8c1.1,0,2.2-0.3,2.9-0.8l-0.3,2.9c-0.8,0.4-2,0.7-3.3,0.7
		c-3.2,0-5.7-2.2-5.7-5.6c0-3.4,2.4-5.5,5.4-5.5c2.9,0,4.7,2,4.7,4.2C155.6,33.6,155.6,33.9,155.5,34.1z M151,31.7
		c-1,0-1.8,0.8-2,1.7h3.5c0-0.1,0-0.1,0-0.2C152.5,32.4,151.9,31.7,151,31.7z"/>
	<path class="st0" d="M173.5,40h-2.3l-1.4-4.1c-0.2-0.6-0.4-1.4-0.6-2.2h0c-0.2,0.8-0.4,1.5-0.6,2.1l-1.4,4.2h-2.2l-3.6-10.5h3.1
		l1.3,4c0.2,0.6,0.4,1.3,0.5,2h0c0.1-0.6,0.3-1.4,0.5-2l1.3-4h2.6l1.3,3.9c0.2,0.6,0.3,1.4,0.5,2h0c0.1-0.7,0.3-1.4,0.5-2l1.3-3.9
		h2.9L173.5,40z"/>
	<path class="st0" d="M185.4,40.4c-0.6-0.1-1.3-0.6-1.6-1.4c-0.5,0.9-1.4,1.3-2.7,1.3c-1.8,0-3.5-1.3-3.5-3.4c0-1.9,1.5-3.2,3.6-3.4
		l2.1-0.2v-0.3c0-0.6-0.5-1-1.6-1c-1,0-2.1,0.3-2.9,0.8l-0.6-2.6c0.9-0.6,2.3-0.9,3.7-0.9c2.8,0,4.7,1.3,4.7,3.8v3.4
		c0,1.2,0.5,1.9,1.3,2.2L185.4,40.4z M183.2,35.4l-1.3,0.1c-0.9,0.1-1.3,0.7-1.3,1.3c0,0.6,0.4,1,1.1,1c0.8,0,1.5-0.6,1.5-1.5V35.4z
		"/>
	<path class="st0" d="M192.1,40.1c-1.4,0-2.5-0.3-3.3-0.7l-0.3-3c0.9,0.6,2.1,1.1,3.3,1.1c0.6,0,1-0.3,1-0.7c0-0.4-0.3-0.6-0.9-0.8
		c-2-0.6-3.2-1.6-3.2-3.4c0-2,1.7-3.4,3.9-3.4c1.3,0,2.6,0.3,3.1,0.6l-0.6,2.5c-0.5-0.3-1.3-0.6-2.2-0.6c-0.6,0-0.9,0.3-0.9,0.7
		c0,0.4,0.3,0.6,0.9,0.8c2.3,0.6,3.3,1.8,3.3,3.5C196.2,38.5,194.9,40.1,192.1,40.1z"/>
	<path class="st0" d="M209,33.1c-0.2-0.1-0.7-0.3-1-0.3c-1.1,0-2.1,0.6-2.1,2.2v4.9h-3.4V29.5h3.3v2.3h0c0.3-1.6,1.6-2.5,3-2.5
		c0.3,0,0.7,0,1,0.1L209,33.1z"/>
	<path class="st0" d="M218,40.4c-0.6-0.1-1.3-0.6-1.6-1.4c-0.5,0.9-1.4,1.3-2.7,1.3c-1.8,0-3.5-1.3-3.5-3.4c0-1.9,1.5-3.2,3.6-3.4
		l2.1-0.2v-0.3c0-0.6-0.5-1-1.6-1c-1,0-2.1,0.3-2.9,0.8l-0.6-2.6c0.9-0.6,2.3-0.9,3.7-0.9c2.8,0,4.7,1.3,4.7,3.8v3.4
		c0,1.2,0.5,1.9,1.3,2.2L218,40.4z M215.9,35.4l-1.3,0.1c-0.9,0.1-1.3,0.7-1.3,1.3c0,0.6,0.4,1,1.1,1c0.8,0,1.5-0.6,1.5-1.5V35.4z"
		/>
	<path class="st0" d="M228,32.3h-2.7v3.9c0,0.9,0.5,1.3,1.4,1.3c0.4,0,0.6,0,0.9-0.1l-0.3,2.6c-0.3,0.2-0.9,0.3-1.6,0.3
		c-2.3,0-3.7-1.2-3.7-3.3v-4.5h-1.7v-2.8h1.7v-2.2l3.4-1.2v3.4h3.4L228,32.3z"/>
	<path class="st0" d="M238.9,34.1l-1.5,1.5h-5.1c0.2,0.9,1.3,1.8,3.1,1.8c1.1,0,2.2-0.3,2.9-0.8l-0.3,2.9c-0.8,0.4-2,0.7-3.3,0.7
		c-3.2,0-5.7-2.2-5.7-5.6c0-3.4,2.4-5.5,5.4-5.5c2.9,0,4.7,2,4.7,4.2C239,33.6,239,33.9,238.9,34.1z M234.4,31.7c-1,0-1.8,0.8-2,1.7
		h3.5c0-0.1,0-0.1,0-0.2C235.9,32.4,235.2,31.7,234.4,31.7z"/>
	<path class="st0" d="M248.2,39.9v-1.3h0c-0.6,1.1-1.8,1.6-3.2,1.6c-2.6,0-5-1.9-5-5.5c0-3.4,2.4-5.5,5.3-5.5c1.1,0,2.2,0.4,2.6,0.7
		v-6.3h3.3v16.4H248.2z M247.9,33.1c-0.3-0.4-1-0.9-2-0.9c-1.5,0-2.5,1.1-2.5,2.6s1,2.6,2.5,2.6c1,0,1.7-0.5,2-1.1V33.1z"/>
	<path class="st0" d="M267.7,39.9l-1.2-3.3h-4.7l-1.2,3.3h-3.4l5.8-14.8h2.5l5.8,14.8H267.7z M264.6,31.1c-0.1-0.4-0.3-0.9-0.4-1.4
		h0c-0.1,0.5-0.3,1-0.4,1.4l-1,2.7h2.9L264.6,31.1z"/>
	<path class="st0" d="M277.2,34.8v3h-2.8v-3h-3v-2.6h3v-3h2.8v3h3v2.6H277.2z"/>
	<path class="st0" d="M287.3,34.8v3h-2.8v-3h-3v-2.6h3v-3h2.8v3h3v2.6H287.3z"/>
	<path class="st0" d="M302,40.2c-2.2,0-4-0.8-5-1.5V23.5h3.3v6.3c0.4-0.3,1.5-0.7,2.6-0.7c2.9,0,5.2,2,5.2,5.3
		C308.1,37.7,306,40.2,302,40.2z M302.2,32.1c-1,0-1.7,0.5-2,0.8v4c0.3,0.3,1.1,0.5,1.7,0.5c1.7,0,2.8-1.2,2.8-2.7
		C304.7,33.3,303.7,32.1,302.2,32.1z"/>
	<path class="st0" d="M315.4,38.9c-1.6,4.2-3.2,5.7-5.2,6.5l-2.1-2.1c1.7-0.6,3-1.9,3.8-4.1l-3.7-9.7h3.3l1.5,4
		c0.2,0.6,0.5,1.3,0.6,2h0c0.2-0.7,0.4-1.4,0.7-2l1.5-4h3.1L315.4,38.9z"/>
</g>
<g>
	<path class="st0" d="M36.7,64.9l-1.2-3.3h-4.7l-1.2,3.3h-3.4L32,50.1h2.5l5.8,14.8H36.7z M33.6,56.1c-0.1-0.4-0.3-0.9-0.4-1.4h0
		c-0.1,0.5-0.3,1-0.4,1.4l-1,2.7h2.9L33.6,56.1z"/>
	<path class="st0" d="M43.4,65.2c-0.6,0-1.9-1.3-1.9-1.9c0-0.6,1.3-1.9,1.9-1.9c0.6,0,1.9,1.3,1.9,1.9C45.3,63.9,44,65.2,43.4,65.2z
		"/>
	<path class="st0" d="M61.1,64.9l-0.5-5.4c-0.1-0.8-0.1-1.8-0.1-2.7h0c-0.3,0.9-0.8,1.9-1.2,2.8L56.4,65H55l-2.8-5.4
		c-0.4-0.8-0.9-1.8-1.2-2.7h0c0,0.9,0,1.9-0.1,2.7l-0.5,5.4H47l1.3-14.7h2.9l3.2,6.2c0.5,0.9,1.1,2.2,1.5,3.1h0
		c0.4-1,0.9-2.2,1.4-3.1l3.2-6.2h2.8l1.3,14.7H61.1z"/>
	<path class="st0" d="M68.3,65.2c-0.6,0-1.9-1.3-1.9-1.9c0-0.6,1.3-1.9,1.9-1.9c0.6,0,1.9,1.3,1.9,1.9
		C70.2,63.9,68.9,65.2,68.3,65.2z"/>
	<path class="st0" d="M82.2,64.9h-5.4V50.2h4.8c2.3,0,4.3,1.5,4.3,3.9c0,0.9-0.4,2-1.2,2.4c1.3,0.4,2.6,1.9,2.6,3.8
		C87.2,63.2,85,64.9,82.2,64.9z M81.1,52.9H80v3h1.1c0.9,0,1.6-0.4,1.6-1.5C82.7,53.3,81.9,52.9,81.1,52.9z M81.6,58.5H80v3.8h1.6
		c1.1,0,2.2-0.6,2.2-1.9C83.8,59.1,82.7,58.5,81.6,58.5z"/>
	<path class="st0" d="M98.4,59.1l-1.5,1.5h-5.1c0.2,0.9,1.3,1.8,3.1,1.8c1.1,0,2.2-0.3,2.9-0.8l-0.3,2.9c-0.8,0.4-2,0.7-3.3,0.7
		c-3.2,0-5.7-2.2-5.7-5.6c0-3.4,2.4-5.5,5.4-5.5c2.9,0,4.7,2,4.7,4.2C98.5,58.6,98.4,58.9,98.4,59.1z M93.8,56.7c-1,0-1.8,0.8-2,1.7
		h3.5c0-0.1,0-0.1,0-0.2C95.3,57.4,94.7,56.7,93.8,56.7z"/>
	<path class="st0" d="M103.2,65.1c-1.4,0-2.5-0.3-3.3-0.7l-0.3-3c0.9,0.6,2.1,1.1,3.3,1.1c0.6,0,1-0.3,1-0.7c0-0.4-0.3-0.6-0.9-0.8
		c-2-0.6-3.2-1.6-3.2-3.4c0-2,1.7-3.4,3.9-3.4c1.3,0,2.6,0.3,3.1,0.6l-0.6,2.5c-0.5-0.3-1.3-0.6-2.2-0.6c-0.6,0-0.9,0.3-0.9,0.7
		c0,0.4,0.3,0.6,0.9,0.8c2.3,0.6,3.3,1.8,3.3,3.5C107.3,63.5,106,65.1,103.2,65.1z"/>
	<path class="st0" d="M115.6,57.3h-2.7v3.9c0,0.9,0.5,1.3,1.4,1.3c0.4,0,0.6,0,0.9-0.1l-0.3,2.6c-0.3,0.2-0.9,0.3-1.6,0.3
		c-2.3,0-3.7-1.2-3.7-3.3v-4.5h-1.7v-2.8h1.7v-2.2l3.4-1.2v3.5h3.4L115.6,57.3z"/>
	<path class="st0" d="M129.4,51.5c-0.4-0.2-0.9-0.3-1.4-0.3c-1.2,0-1.9,0.7-1.9,2.2v1h3l-0.7,2.8h-2.3v7.7h-3.3v-7.7h-1.6v-2.8h1.6
		v-1.2c0-3.2,2-4.7,4.7-4.7c1,0,1.9,0.1,2.5,0.3L129.4,51.5z"/>
	<path class="st0" d="M135,65.2c-3.2,0-5.7-2.2-5.7-5.5s2.5-5.5,5.7-5.5c3.1,0,5.7,2.2,5.7,5.5S138.1,65.2,135,65.2z M135,57.1
		c-1.3,0-2.3,1.1-2.3,2.6s1.1,2.6,2.3,2.6c1.2,0,2.3-1.1,2.3-2.6S136.2,57.1,135,57.1z"/>
	<path class="st0" d="M148.6,58.1c-0.2-0.1-0.7-0.3-1-0.3c-1.1,0-2.1,0.6-2.1,2.2v4.9h-3.4V54.5h3.3v2.3h0c0.3-1.6,1.6-2.5,3-2.5
		c0.3,0,0.7,0,1,0.1L148.6,58.1z"/>
	<path class="st0" d="M156.6,64.9v-8.4h-1.9v-3.2h1.9v-0.4c0-1.5,0.4-2.6,1.3-3.4s2-1.2,3.5-1.2c1,0,1.9,0.1,2.8,0.4l-0.5,2.9
		c-0.6-0.1-1-0.2-1.4-0.2c-1,0-1.4,0.5-1.4,1.4v0.4h2.6v3.2h-2.6v8.4H156.6z M165.2,51.5v-3h4.2v3H165.2z M165.3,64.9V52.8h4.2v12.1
		H165.3z"/>
	<path class="st0" d="M178.3,64.9v-6.4c0-0.8-0.5-1.4-1.5-1.4c-1,0-1.7,0.6-1.7,1.5v6.3h-3.4V54.5h3.1v1.4h0
		c0.4-1.1,1.5-1.7,3.2-1.7c2.3,0,3.7,1.3,3.7,3.5v7.2H178.3z"/>
	<path class="st0" d="M190.9,65.4c-0.6-0.1-1.3-0.6-1.6-1.4c-0.5,0.9-1.4,1.3-2.7,1.3c-1.8,0-3.5-1.3-3.5-3.4c0-1.9,1.5-3.2,3.6-3.4
		l2.1-0.2v-0.3c0-0.6-0.5-1-1.6-1c-1,0-2.1,0.3-2.9,0.8l-0.6-2.6c0.9-0.6,2.3-0.9,3.7-0.9c2.8,0,4.7,1.3,4.7,3.8v3.4
		c0,1.2,0.5,1.9,1.3,2.2L190.9,65.4z M188.7,60.4l-1.3,0.1c-0.9,0.1-1.3,0.7-1.3,1.3c0,0.6,0.4,1,1.1,1c0.8,0,1.5-0.6,1.5-1.5V60.4z
		"/>
	<path class="st0" d="M200.8,64.9v-6.4c0-0.8-0.5-1.4-1.5-1.4c-1,0-1.7,0.6-1.7,1.5v6.3h-3.4V54.5h3.1v1.4h0
		c0.4-1.1,1.5-1.7,3.2-1.7c2.3,0,3.7,1.3,3.7,3.5v7.2H200.8z"/>
	<path class="st0" d="M213.9,57.8c-0.7-0.4-1.4-0.7-2.2-0.7c-1.5,0-2.6,1.1-2.6,2.6c0,1.5,1.2,2.6,2.7,2.6c0.9,0,1.5-0.2,2.3-0.6
		l-0.3,2.9c-0.7,0.3-1.6,0.5-2.6,0.5c-2.9,0-5.6-2.1-5.6-5.4c0-3.4,2.7-5.4,5.6-5.4c1.4,0,2.5,0.3,3.4,0.8L213.9,57.8z"/>
	<path class="st0" d="M217.7,53.1c-0.6,0-1.8-1.2-1.8-1.8c0-0.6,1.2-1.8,1.8-1.8c0.6,0,1.8,1.2,1.8,1.8
		C219.5,51.8,218.3,53.1,217.7,53.1z M216,64.9V54.5h3.4v10.4H216z"/>
	<path class="st0" d="M228.7,65.4c-0.6-0.1-1.3-0.6-1.6-1.4c-0.5,0.9-1.4,1.3-2.7,1.3c-1.8,0-3.5-1.3-3.5-3.4c0-1.9,1.5-3.2,3.6-3.4
		l2.1-0.2v-0.3c0-0.6-0.5-1-1.6-1c-1,0-2.1,0.3-2.9,0.8l-0.6-2.6c0.9-0.6,2.3-0.9,3.7-0.9c2.8,0,4.7,1.3,4.7,3.8v3.4
		c0,1.2,0.5,1.9,1.3,2.2L228.7,65.4z M226.6,60.4l-1.3,0.1c-0.9,0.1-1.3,0.7-1.3,1.3c0,0.6,0.4,1,1.1,1c0.8,0,1.5-0.6,1.5-1.5V60.4z
		"/>
	<path class="st0" d="M235.5,65.3c-2.1-0.1-3.6-1.2-3.6-3.7V48.5h3.3v12.7c0,0.9,0.5,1.3,1.4,1.4L235.5,65.3z"/>
	<path class="st0" d="M246.2,65.1c-1.4,0-2.5-0.3-3.3-0.7l-0.3-3c0.9,0.6,2.1,1.1,3.3,1.1c0.6,0,1-0.3,1-0.7c0-0.4-0.3-0.6-0.9-0.8
		c-2-0.6-3.2-1.6-3.2-3.4c0-2,1.7-3.4,3.9-3.4c1.3,0,2.6,0.3,3.1,0.6l-0.6,2.5c-0.5-0.3-1.3-0.6-2.2-0.6c-0.6,0-0.9,0.3-0.9,0.7
		c0,0.4,0.3,0.6,0.9,0.8c2.3,0.6,3.3,1.8,3.3,3.5C250.3,63.5,249,65.1,246.2,65.1z"/>
	<path class="st0" d="M258.6,57.3h-2.7v3.9c0,0.9,0.5,1.3,1.4,1.3c0.4,0,0.6,0,0.9-0.1l-0.3,2.6c-0.3,0.2-0.9,0.3-1.6,0.3
		c-2.3,0-3.7-1.2-3.7-3.3v-4.5h-1.7v-2.8h1.7v-2.2l3.4-1.2v3.5h3.4L258.6,57.3z"/>
	<path class="st0" d="M266.6,58.1c-0.2-0.1-0.7-0.3-1-0.3c-1.1,0-2.1,0.6-2.1,2.2v4.9h-3.4V54.5h3.3v2.3h0c0.3-1.6,1.6-2.5,3-2.5
		c0.3,0,0.7,0,1,0.1L266.6,58.1z"/>
	<path class="st0" d="M277.7,59.1l-1.5,1.5h-5.1c0.2,0.9,1.3,1.8,3.1,1.8c1.1,0,2.2-0.3,2.9-0.8l-0.3,2.9c-0.8,0.4-2,0.7-3.3,0.7
		c-3.2,0-5.7-2.2-5.7-5.6c0-3.4,2.4-5.5,5.4-5.5c2.9,0,4.7,2,4.7,4.2C277.8,58.6,277.7,58.9,277.7,59.1z M273.1,56.7
		c-1,0-1.8,0.8-2,1.7h3.5c0-0.1,0-0.1,0-0.2C274.6,57.4,274,56.7,273.1,56.7z"/>
	<path class="st0" d="M285.8,64.9v-6.4c0-0.8-0.5-1.4-1.5-1.4c-1,0-1.7,0.6-1.7,1.5v6.3h-3.4V54.5h3.1v1.4h0
		c0.4-1.1,1.5-1.7,3.2-1.7c2.3,0,3.7,1.3,3.7,3.5v7.2H285.8z"/>
	<path class="st0" d="M295.5,70.2c-3,0-5.1-1.7-5.1-3.9c0-1.6,1.1-2.5,2.1-2.8l-1.3-1.3c0.1-0.7,0.7-1.2,1.3-1.5
		c-0.8-0.5-1.5-1.5-1.5-2.8c0-2.2,1.6-3.7,4.3-3.7c0.6,0,1.1,0.1,1.5,0.2c0.5,0.1,1,0.2,1.5,0.2c0.6,0,1.2-0.1,1.6-0.3l0.6,2.6
		c-0.3,0.2-0.8,0.3-1.3,0.3c0.1,0.2,0.3,0.7,0.3,1.1c0,1.7-1.4,3.2-3.4,3.4c-0.4,0-0.7,0.1-0.7,0.4c0,0.1,0.1,0.3,0.3,0.3l1.6,0.6
		c2,0.7,3.1,1.8,3.1,3.7C300.5,68.6,298.5,70.2,295.5,70.2z M296.2,65.3L295,65c-0.8,0-1.4,0.6-1.4,1.4c0,0.7,0.6,1.3,1.8,1.3
		c1.2,0,1.8-0.6,1.8-1.1C297.2,66,296.9,65.5,296.2,65.3z M295.3,56.6c-0.8,0-1.3,0.6-1.3,1.2c0,0.7,0.6,1.2,1.3,1.2
		c0.7,0,1.3-0.6,1.3-1.2C296.6,57.2,296.1,56.6,295.3,56.6z"/>
	<path class="st0" d="M309,57.3h-2.7v3.9c0,0.9,0.5,1.3,1.4,1.3c0.4,0,0.6,0,0.9-0.1l-0.3,2.6c-0.3,0.2-0.9,0.3-1.6,0.3
		c-2.3,0-3.7-1.2-3.7-3.3v-4.5h-1.7v-2.8h1.7v-2.2l3.4-1.2v3.5h3.4L309,57.3z"/>
	<path class="st0" d="M317.2,64.9v-6.4c0-0.8-0.5-1.4-1.6-1.4c-1,0-1.6,0.6-1.6,1.5v6.3h-3.4V48.5h3.3v6.9h0
		c0.5-0.8,1.5-1.3,2.9-1.3c2.3,0,3.7,1.3,3.7,3.5v7.2H317.2z"/>
</g>
</svg>
