<?xml version="1.0" encoding="utf-8"?>
<!-- Generator: Adobe Illustrator 22.0.1, SVG Export Plug-In . SVG Version: 6.00 Build 0)  -->
<svg version="1.1" id="Layer_1" xmlns="http://www.w3.org/2000/svg" xmlns:xlink="http://www.w3.org/1999/xlink" x="0px" y="0px"
	 viewBox="0 0 728 90" style="enable-background:new 0 0 728 90;" xml:space="preserve">
<style type="text/css">
	.st0{fill:#F9E038;}
</style>
<g>
	<path class="st0" d="M41.9,40h-2.3l-2.1-6.5c-0.3-1-0.6-2-1-3.3h0c-0.3,1.3-0.6,2.3-1,3.3L33.4,40h-2.2l-4.9-14.8h3.5l1.9,5.9
		c0.3,0.9,0.6,1.8,0.8,2.9h0c0.2-1.1,0.5-2,0.8-2.9l1.9-5.9h3.1l1.9,5.9c0.3,0.8,0.6,1.9,0.8,3h0c0.2-1.1,0.5-2.1,0.8-2.9l2-5.9h3.1
		L41.9,40z"/>
	<path class="st0" d="M54.4,39.9v-6.4c0-0.8-0.5-1.4-1.6-1.4c-1,0-1.6,0.6-1.6,1.5v6.3h-3.4V23.5h3.3v6.9h0c0.5-0.8,1.5-1.3,2.9-1.3
		c2.3,0,3.7,1.3,3.7,3.5v7.2H54.4z"/>
	<path class="st0" d="M65.6,38.8c-1.6,4.2-3.2,5.7-5.2,6.5l-2.1-2.1c1.7-0.6,3-1.9,3.8-4.1l-3.7-9.7h3.3l1.5,4
		c0.2,0.6,0.5,1.3,0.6,2h0c0.2-0.7,0.4-1.4,0.7-2l1.5-4h3.1L65.6,38.8z"/>
	<path class="st0" d="M83.1,39.9v-1.3h0c-0.6,1.1-1.8,1.6-3.2,1.6c-2.6,0-5-1.9-5-5.5c0-3.4,2.4-5.5,5.3-5.5c1.1,0,2.2,0.4,2.6,0.7
		v-6.3H86v16.4H83.1z M82.7,33.1c-0.3-0.4-1-0.9-2-0.9c-1.5,0-2.5,1.1-2.5,2.6s1,2.6,2.5,2.6c1,0,1.7-0.5,2-1.1V33.1z"/>
	<path class="st0" d="M93.2,40.2c-3.2,0-5.7-2.2-5.7-5.5c0-3.3,2.5-5.5,5.7-5.5c3.1,0,5.7,2.2,5.7,5.5C98.9,38,96.3,40.2,93.2,40.2z
		 M93.2,32.1c-1.3,0-2.3,1.1-2.3,2.6s1.1,2.6,2.3,2.6c1.2,0,2.3-1.1,2.3-2.6S94.4,32.1,93.2,32.1z"/>
	<path class="st0" d="M109.9,34.1l-1.5,1.5h-5.1c0.2,0.9,1.3,1.8,3.1,1.8c1.1,0,2.2-0.3,2.9-0.8l-0.3,2.9c-0.8,0.4-2,0.7-3.3,0.7
		c-3.2,0-5.7-2.2-5.7-5.6c0-3.4,2.4-5.5,5.4-5.5c2.9,0,4.7,2,4.7,4.2C110,33.5,109.9,33.9,109.9,34.1z M105.3,31.7
		c-1,0-1.8,0.8-2,1.7h3.5c0-0.1,0-0.1,0-0.2C106.8,32.4,106.2,31.7,105.3,31.7z"/>
	<path class="st0" d="M114.7,40.1c-1.4,0-2.5-0.3-3.3-0.7l-0.3-3c0.9,0.6,2.1,1.1,3.3,1.1c0.6,0,1-0.3,1-0.7c0-0.4-0.3-0.6-0.9-0.8
		c-2-0.6-3.2-1.6-3.2-3.4c0-2,1.7-3.4,3.9-3.4c1.3,0,2.6,0.3,3.1,0.6l-0.6,2.5c-0.5-0.3-1.3-0.6-2.2-0.6c-0.6,0-0.9,0.3-0.9,0.7
		c0,0.4,0.3,0.6,0.9,0.8c2.3,0.6,3.3,1.8,3.3,3.5C118.8,38.5,117.5,40.1,114.7,40.1z"/>
	<path class="st0" d="M132.1,28.1v11.8h-3.6V28.1h-4.2v-2.9h12v2.9H132.1z"/>
	<path class="st0" d="M137.5,39.9V25.2h3.6v14.7H137.5z"/>
	<path class="st0" d="M152.8,39.9l-1.2-3.3h-4.7l-1.2,3.3h-3.4l5.8-14.8h2.5l5.8,14.8H152.8z M149.7,31.1c-0.1-0.4-0.3-0.9-0.4-1.4
		h0c-0.1,0.5-0.3,1-0.4,1.4l-1,2.7h2.9L149.7,31.1z"/>
	<path class="st0" d="M167.4,39.9l-1.2-3.3h-4.7l-1.2,3.3H157l5.8-14.8h2.5l5.8,14.8H167.4z M164.3,31.1c-0.1-0.4-0.3-0.9-0.4-1.4h0
		c-0.1,0.5-0.3,1-0.4,1.4l-1,2.7h2.9L164.3,31.1z"/>
	<path class="st0" d="M177.2,39.9V25.2h3.6V37h5.5v2.9H177.2z"/>
	<path class="st0" d="M189,28c-0.6,0-1.8-1.2-1.8-1.8c0-0.6,1.2-1.8,1.8-1.8c0.6,0,1.8,1.2,1.8,1.8C190.8,26.8,189.6,28,189,28z
		 M187.3,39.9V29.5h3.4v10.4H187.3z"/>
	<path class="st0" d="M199.9,26.5c-0.4-0.2-0.9-0.3-1.4-0.3c-1.2,0-1.9,0.7-1.9,2.2v1h3l-0.7,2.8h-2.3v7.7h-3.3v-7.7h-1.6v-2.8h1.6
		v-1.2c0-3.2,2-4.7,4.7-4.7c1,0,1.9,0.1,2.5,0.3L199.9,26.5z"/>
	<path class="st0" d="M209.9,34.1l-1.5,1.5h-5.1c0.2,0.9,1.3,1.8,3.1,1.8c1.1,0,2.2-0.3,2.9-0.8l-0.3,2.9c-0.8,0.4-2,0.7-3.3,0.7
		c-3.2,0-5.7-2.2-5.7-5.6c0-3.4,2.4-5.5,5.4-5.5c2.9,0,4.7,2,4.7,4.2C210,33.5,210,33.9,209.9,34.1z M205.4,31.7c-1,0-1.8,0.8-2,1.7
		h3.5c0-0.1,0-0.1,0-0.2C206.9,32.4,206.2,31.7,205.4,31.7z"/>
	<path class="st0" d="M221,45.2c-3,0-5.1-1.7-5.1-3.9c0-1.6,1.1-2.5,2.1-2.8l-1.3-1.3c0.1-0.7,0.7-1.2,1.3-1.5
		c-0.8-0.5-1.5-1.5-1.5-2.8c0-2.2,1.6-3.7,4.3-3.7c0.6,0,1.1,0.1,1.5,0.2c0.5,0.1,1,0.2,1.5,0.2c0.6,0,1.2-0.1,1.6-0.3l0.6,2.6
		c-0.3,0.2-0.8,0.3-1.3,0.3c0.1,0.2,0.3,0.7,0.3,1.1c0,1.7-1.4,3.2-3.4,3.4c-0.4,0-0.7,0.1-0.7,0.4c0,0.1,0.1,0.3,0.3,0.3l1.6,0.6
		c2,0.7,3.1,1.8,3.1,3.7C226,43.6,224.1,45.2,221,45.2z M221.7,40.3l-1.2-0.3c-0.8,0-1.4,0.6-1.4,1.4c0,0.7,0.6,1.3,1.8,1.3
		c1.2,0,1.8-0.6,1.8-1.1C222.8,41,222.4,40.5,221.7,40.3z M220.8,31.6c-0.8,0-1.3,0.6-1.3,1.2c0,0.7,0.6,1.2,1.3,1.2
		c0.7,0,1.3-0.6,1.3-1.2C222.2,32.2,221.6,31.6,220.8,31.6z"/>
	<path class="st0" d="M236.7,34.1l-1.5,1.5h-5.1c0.2,0.9,1.3,1.8,3.1,1.8c1.1,0,2.2-0.3,2.9-0.8l-0.3,2.9c-0.8,0.4-2,0.7-3.3,0.7
		c-3.2,0-5.7-2.2-5.7-5.6c0-3.4,2.4-5.5,5.4-5.5c2.9,0,4.7,2,4.7,4.2C236.7,33.5,236.7,33.9,236.7,34.1z M232.1,31.7
		c-1,0-1.8,0.8-2,1.7h3.5c0-0.1,0-0.1,0-0.2C233.6,32.4,233,31.7,232.1,31.7z"/>
	<path class="st0" d="M245.3,32.2h-2.7v3.9c0,0.9,0.5,1.3,1.4,1.3c0.4,0,0.6,0,0.9-0.1l-0.3,2.6c-0.3,0.2-0.9,0.3-1.6,0.3
		c-2.3,0-3.7-1.2-3.7-3.3v-4.5h-1.7v-2.8h1.7v-2.2l3.4-1.2v3.4h3.4L245.3,32.2z"/>
	<path class="st0" d="M253.3,31.8c-0.5,0-1.9-1.2-1.9-1.9c0-1.4,1.4-3.8,2.8-5l1.1,0.2c-0.8,0.9-1.4,2.2-1.5,3.2
		c0.6,0.1,1.5,1.1,1.5,1.6C255.2,30.6,253.9,31.8,253.3,31.8z M258,31.8c-0.5,0-1.9-1.2-1.9-1.9c0-1.4,1.4-3.8,2.8-5l1.1,0.2
		c-0.8,0.9-1.4,2.2-1.5,3.2c0.6,0.1,1.5,1.1,1.5,1.6C260,30.6,258.6,31.8,258,31.8z"/>
	<path class="st0" d="M269,32.2h-2.7v3.9c0,0.9,0.5,1.3,1.4,1.3c0.4,0,0.6,0,0.9-0.1l-0.3,2.6c-0.3,0.2-0.9,0.3-1.6,0.3
		c-2.3,0-3.7-1.2-3.7-3.3v-4.5h-1.7v-2.8h1.7v-2.2l3.4-1.2v3.4h3.4L269,32.2z"/>
	<path class="st0" d="M275.6,40.2c-3.2,0-5.7-2.2-5.7-5.5c0-3.3,2.5-5.5,5.7-5.5c3.1,0,5.7,2.2,5.7,5.5
		C281.2,38,278.7,40.2,275.6,40.2z M275.6,32.1c-1.3,0-2.3,1.1-2.3,2.6s1.1,2.6,2.3,2.6c1.2,0,2.3-1.1,2.3-2.6
		S276.8,32.1,275.6,32.1z"/>
	<path class="st0" d="M288.7,40.2c-1.1,0-2.2-0.3-2.6-0.7v5.7h-3.3V29.5h3v1.3h0c0.6-1.1,1.8-1.6,3.2-1.6c2.6,0,5,1.9,5,5.5
		C293.9,38,291.6,40.2,288.7,40.2z M288.1,32.1c-1,0-1.7,0.5-2,1.1v3.3c0.3,0.4,1,0.9,2,0.9c1.5,0,2.5-1.1,2.5-2.6
		S289.5,32.1,288.1,32.1z"/>
	<path class="st0" d="M305,45.2c-3,0-5.1-1.7-5.1-3.9c0-1.6,1.1-2.5,2.1-2.8l-1.3-1.3c0.1-0.7,0.7-1.2,1.3-1.5
		c-0.8-0.5-1.5-1.5-1.5-2.8c0-2.2,1.6-3.7,4.3-3.7c0.6,0,1.1,0.1,1.5,0.2c0.5,0.1,1,0.2,1.5,0.2c0.6,0,1.2-0.1,1.6-0.3l0.6,2.6
		c-0.3,0.2-0.8,0.3-1.3,0.3c0.1,0.2,0.3,0.7,0.3,1.1c0,1.7-1.4,3.2-3.4,3.4c-0.4,0-0.7,0.1-0.7,0.4c0,0.1,0.1,0.3,0.3,0.3l1.6,0.6
		c2,0.7,3.1,1.8,3.1,3.7C310,43.6,308,45.2,305,45.2z M305.7,40.3l-1.2-0.3c-0.8,0-1.4,0.6-1.4,1.4c0,0.7,0.6,1.3,1.8,1.3
		c1.2,0,1.8-0.6,1.8-1.1C306.7,41,306.4,40.5,305.7,40.3z M304.8,31.6c-0.8,0-1.3,0.6-1.3,1.2c0,0.7,0.6,1.2,1.3,1.2
		c0.7,0,1.3-0.6,1.3-1.2C306.1,32.2,305.6,31.6,304.8,31.6z"/>
	<path class="st0" d="M317.6,33.1c-0.2-0.1-0.7-0.3-1-0.3c-1.1,0-2.1,0.6-2.1,2.2v4.9h-3.4V29.5h3.3v2.3h0c0.3-1.6,1.6-2.5,3-2.5
		c0.3,0,0.7,0,1,0.1L317.6,33.1z"/>
	<path class="st0" d="M326.7,40.3c-0.6-0.1-1.3-0.6-1.6-1.4c-0.5,0.9-1.4,1.3-2.7,1.3c-1.8,0-3.5-1.3-3.5-3.4c0-1.9,1.5-3.2,3.6-3.4
		l2.1-0.2v-0.3c0-0.6-0.5-1-1.6-1c-1,0-2.1,0.3-2.9,0.8l-0.6-2.6c0.9-0.6,2.3-0.9,3.7-0.9c2.8,0,4.7,1.3,4.7,3.8v3.4
		c0,1.2,0.5,1.9,1.3,2.2L326.7,40.3z M324.5,35.3l-1.3,0.1c-0.9,0.1-1.3,0.7-1.3,1.3c0,0.6,0.4,1,1.1,1c0.8,0,1.5-0.6,1.5-1.5V35.3z
		"/>
	<path class="st0" d="M337.6,39.9v-1.3h0c-0.6,1.1-1.8,1.6-3.2,1.6c-2.6,0-5-1.9-5-5.5c0-3.4,2.4-5.5,5.3-5.5c1.1,0,2.2,0.4,2.6,0.7
		v-6.3h3.3v16.4H337.6z M337.3,33.1c-0.3-0.4-1-0.9-2-0.9c-1.5,0-2.5,1.1-2.5,2.6s1,2.6,2.5,2.6c1,0,1.7-0.5,2-1.1V33.1z"/>
	<path class="st0" d="M352.1,34.1l-1.5,1.5h-5.1c0.2,0.9,1.3,1.8,3.1,1.8c1.1,0,2.2-0.3,2.9-0.8l-0.3,2.9c-0.8,0.4-2,0.7-3.3,0.7
		c-3.2,0-5.7-2.2-5.7-5.6c0-3.4,2.4-5.5,5.4-5.5c2.9,0,4.7,2,4.7,4.2C352.2,33.5,352.1,33.9,352.1,34.1z M347.5,31.7
		c-1,0-1.8,0.8-2,1.7h3.5c0-0.1,0-0.1,0-0.2C349,32.4,348.4,31.7,347.5,31.7z"/>
	<path class="st0" d="M356.9,40.1c-1.4,0-2.5-0.3-3.3-0.7l-0.3-3c0.9,0.6,2.1,1.1,3.3,1.1c0.6,0,1-0.3,1-0.7c0-0.4-0.3-0.6-0.9-0.8
		c-2-0.6-3.2-1.6-3.2-3.4c0-2,1.7-3.4,3.9-3.4c1.3,0,2.6,0.3,3.1,0.6l-0.6,2.5c-0.5-0.3-1.3-0.6-2.2-0.6c-0.6,0-0.9,0.3-0.9,0.7
		c0,0.4,0.3,0.6,0.9,0.8c2.3,0.6,3.3,1.8,3.3,3.5C361,38.5,359.7,40.1,356.9,40.1z"/>
	<path class="st0" d="M362.9,31.8l-1.1-0.2c0.8-0.9,1.4-2.2,1.5-3.2c-0.6-0.1-1.5-1.1-1.5-1.6c0-0.7,1.3-1.9,1.9-1.9
		c0.5,0,1.9,1.2,1.9,1.9C365.7,28.2,364.3,30.5,362.9,31.8z M367.6,31.8l-1.1-0.2c0.8-0.9,1.4-2.2,1.5-3.2c-0.6-0.1-1.5-1.1-1.5-1.6
		c0-0.7,1.3-1.9,1.9-1.9c0.5,0,1.9,1.2,1.9,1.9C370.4,28.2,369,30.5,367.6,31.8z"/>
	<path class="st0" d="M377.5,32.7c-0.6,0.6-0.8,1.2-0.8,1.8c0,0.3,0,0.7,0.1,1l-2.9-0.6c-0.1-0.5-0.2-0.8-0.2-1.2
		c0-1.2,0.5-2.3,1.3-3.2c0.6-0.6,0.9-1.1,0.9-1.7c0-0.5-0.5-1-1.3-1c-0.8,0-1.6,0.3-2.3,0.8l-0.7-2.9c0.9-0.5,2-0.9,3.3-0.9
		c2.7,0,4.5,1.6,4.5,3.9C379.4,30.1,378.8,31.2,377.5,32.7z M375.4,40.2c-0.6,0-1.9-1.3-1.9-1.9c0-0.6,1.3-1.9,1.9-1.9
		s1.9,1.3,1.9,1.9C377.3,38.9,376,40.2,375.4,40.2z"/>
</g>
</svg>
