<?xml version="1.0" encoding="utf-8"?>
<!-- Generator: Adobe Illustrator 22.0.1, SVG Export Plug-In . SVG Version: 6.00 Build 0)  -->
<svg version="1.1" id="Layer_1" xmlns="http://www.w3.org/2000/svg" xmlns:xlink="http://www.w3.org/1999/xlink" x="0px" y="0px"
	 viewBox="0 0 728 90" style="enable-background:new 0 0 728 90;" xml:space="preserve">
<g>
	<path d="M30,34.5v-5.8h-5.7v5.8h-3.6V19.8h3.6v5.8H30v-5.8h3.6v14.7H30z"/>
	<path d="M45.5,28.7L44,30.2h-5.1c0.2,0.9,1.3,1.8,3.1,1.8c1.1,0,2.2-0.3,2.9-0.8l-0.3,2.9c-0.8,0.4-2,0.7-3.3,0.7
		c-3.2,0-5.7-2.2-5.7-5.6c0-3.4,2.4-5.5,5.4-5.5c2.9,0,4.7,2,4.7,4.2C45.6,28.1,45.6,28.5,45.5,28.7z M41,26.3c-1,0-1.8,0.8-2,1.7
		h3.5c0-0.1,0-0.1,0-0.2C42.5,27,41.9,26.3,41,26.3z"/>
	<path d="M50.9,34.9c-2.1-0.1-3.6-1.2-3.6-3.7V18.1h3.3v12.7c0,0.9,0.5,1.3,1.4,1.4L50.9,34.9z"/>
	<path d="M59.3,34.8c-1.1,0-2.2-0.3-2.6-0.7v5.7h-3.3V24.1h3v1.3h0c0.6-1.1,1.8-1.6,3.2-1.6c2.6,0,5,1.9,5,5.5
		C64.6,32.6,62.2,34.8,59.3,34.8z M58.7,26.7c-1,0-1.7,0.5-2,1.1v3.3c0.3,0.4,1,0.9,2,0.9c1.5,0,2.5-1.1,2.5-2.6
		S60.2,26.7,58.7,26.7z"/>
	<path d="M77.4,34.8c-1.1,0-2.2-0.3-2.6-0.7v5.7h-3.3V24.1h3v1.3h0c0.6-1.1,1.8-1.6,3.2-1.6c2.6,0,5,1.9,5,5.5
		C82.7,32.6,80.3,34.8,77.4,34.8z M76.8,26.7c-1,0-1.7,0.5-2,1.1v3.3c0.3,0.4,1,0.9,2,0.9c1.5,0,2.5-1.1,2.5-2.6
		S78.3,26.7,76.8,26.7z"/>
	<path d="M91.2,34.5v-1.4h0c-0.4,1.1-1.5,1.7-3.2,1.7c-2.3,0-3.7-1.3-3.7-3.5v-7.2h3.4v6.4c0,0.8,0.5,1.4,1.6,1.4
		c1,0,1.6-0.7,1.6-1.5v-6.3h3.4v10.4H91.2z"/>
	<path d="M103.5,26.8h-2.7v3.9c0,0.9,0.5,1.3,1.4,1.3c0.4,0,0.6,0,0.9-0.1l-0.3,2.6c-0.3,0.2-0.9,0.3-1.6,0.3
		c-2.3,0-3.7-1.2-3.7-3.3v-4.5h-1.7v-2.8h1.7v-2.2l3.4-1.2v3.4h3.4L103.5,26.8z"/>
	<path d="M116.9,33.5c-1.6,4.2-3.2,5.7-5.2,6.5l-2.1-2.1c1.7-0.6,3-1.9,3.8-4.1l-3.7-9.7h3.3l1.5,4c0.2,0.6,0.5,1.3,0.6,2h0
		c0.2-0.7,0.4-1.4,0.7-2l1.5-4h3.1L116.9,33.5z"/>
	<path d="M126.4,34.8c-3.2,0-5.7-2.2-5.7-5.5c0-3.3,2.5-5.5,5.7-5.5c3.1,0,5.7,2.2,5.7,5.5C132.1,32.6,129.5,34.8,126.4,34.8z
		 M126.4,26.7c-1.3,0-2.3,1.1-2.3,2.6s1.1,2.6,2.3,2.6c1.2,0,2.3-1.1,2.3-2.6S127.6,26.7,126.4,26.7z"/>
	<path d="M140.6,34.5v-1.4h0c-0.4,1.1-1.5,1.7-3.2,1.7c-2.3,0-3.7-1.3-3.7-3.5v-7.2h3.4v6.4c0,0.8,0.5,1.4,1.6,1.4
		c1,0,1.6-0.7,1.6-1.5v-6.3h3.4v10.4H140.6z"/>
	<path d="M152.3,27.7c-0.2-0.1-0.7-0.3-1-0.3c-1.1,0-2.1,0.6-2.1,2.2v4.9h-3.4V24.1h3.3v2.3h0c0.3-1.6,1.6-2.5,3-2.5
		c0.3,0,0.7,0,1,0.1L152.3,27.7z"/>
	<path d="M172.3,34.5v-6.4c0-0.8-0.4-1.4-1.5-1.4c-1.1,0-1.6,0.6-1.6,1.5v6.3h-3.4v-6.4c0-0.8-0.4-1.4-1.5-1.4
		c-1.1,0-1.6,0.6-1.6,1.5v6.3h-3.4V24.1h3.1v1.4h0c0.4-1.1,1.4-1.7,3.1-1.7c1.5,0,2.6,0.6,3.1,1.7c0.4-1,1.7-1.7,3.2-1.7
		c2.4,0,3.7,1.3,3.7,3.5v7.2H172.3z"/>
	<path d="M179.6,22.6c-0.6,0-1.8-1.2-1.8-1.8c0-0.6,1.2-1.8,1.8-1.8c0.6,0,1.8,1.2,1.8,1.8C181.4,21.4,180.2,22.6,179.6,22.6z
		 M177.9,34.5V24.1h3.4v10.4H177.9z"/>
	<path d="M190,34.5v-6.4c0-0.8-0.5-1.4-1.5-1.4c-1,0-1.7,0.6-1.7,1.5v6.3h-3.4V24.1h3.1v1.4h0c0.4-1.1,1.5-1.7,3.2-1.7
		c2.3,0,3.7,1.3,3.7,3.5v7.2H190z"/>
	<path d="M203.4,34.5v-1.3h0c-0.6,1.1-1.8,1.6-3.2,1.6c-2.6,0-5-1.9-5-5.5c0-3.4,2.4-5.5,5.3-5.5c1.1,0,2.2,0.4,2.6,0.7v-6.3h3.3
		v16.4H203.4z M203,27.7c-0.3-0.4-1-0.9-2-0.9c-1.5,0-2.5,1.1-2.5,2.6s1,2.6,2.5,2.6c1,0,1.7-0.5,2-1.1V27.7z"/>
	<path d="M221,34.9c-0.6-0.1-1.3-0.6-1.6-1.4c-0.5,0.9-1.4,1.3-2.7,1.3c-1.8,0-3.5-1.3-3.5-3.4c0-1.9,1.5-3.2,3.6-3.4l2.1-0.2v-0.3
		c0-0.6-0.5-1-1.6-1c-1,0-2.1,0.3-2.9,0.8l-0.6-2.6c0.9-0.6,2.3-0.9,3.7-0.9c2.8,0,4.7,1.3,4.7,3.8v3.4c0,1.2,0.5,1.9,1.3,2.2
		L221,34.9z M218.8,29.9l-1.3,0.1c-0.9,0.1-1.3,0.7-1.3,1.3c0,0.6,0.4,1,1.1,1c0.8,0,1.5-0.6,1.5-1.5V29.9z"/>
	<path d="M231.1,34.5v-6.4c0-0.8-0.5-1.4-1.5-1.4c-1,0-1.7,0.6-1.7,1.5v6.3h-3.4V24.1h3.1v1.4h0c0.4-1.1,1.5-1.7,3.2-1.7
		c2.3,0,3.7,1.3,3.7,3.5v7.2H231.1z"/>
	<path d="M244.4,34.5v-1.3h0c-0.6,1.1-1.8,1.6-3.2,1.6c-2.6,0-5-1.9-5-5.5c0-3.4,2.4-5.5,5.3-5.5c1.1,0,2.2,0.4,2.6,0.7v-6.3h3.3
		v16.4H244.4z M244.1,27.7c-0.3-0.4-1-0.9-2-0.9c-1.5,0-2.5,1.1-2.5,2.6s1,2.6,2.5,2.6c1,0,1.7-0.5,2-1.1V27.7z"/>
	<path d="M261.9,21.1c-0.4-0.2-0.9-0.3-1.4-0.3c-1.2,0-1.9,0.7-1.9,2.2v1h3l-0.7,2.8h-2.3v7.7h-3.3v-7.7h-1.6v-2.8h1.6v-1.2
		c0-3.2,2-4.7,4.7-4.7c1,0,1.9,0.1,2.5,0.3L261.9,21.1z"/>
	<path d="M270.1,34.9c-0.6-0.1-1.3-0.6-1.6-1.4c-0.5,0.9-1.4,1.3-2.7,1.3c-1.8,0-3.5-1.3-3.5-3.4c0-1.9,1.5-3.2,3.6-3.4l2.1-0.2
		v-0.3c0-0.6-0.5-1-1.6-1c-1,0-2.1,0.3-2.9,0.8l-0.6-2.6c0.9-0.6,2.3-0.9,3.7-0.9c2.8,0,4.7,1.3,4.7,3.8v3.4c0,1.2,0.5,1.9,1.3,2.2
		L270.1,34.9z M268,29.9l-1.3,0.1c-0.9,0.1-1.3,0.7-1.3,1.3c0,0.6,0.4,1,1.1,1c0.8,0,1.5-0.6,1.5-1.5V29.9z"/>
	<path d="M286.5,34.5v-6.4c0-0.8-0.4-1.4-1.5-1.4c-1.1,0-1.6,0.6-1.6,1.5v6.3H280v-6.4c0-0.8-0.4-1.4-1.5-1.4
		c-1.1,0-1.6,0.6-1.6,1.5v6.3h-3.4V24.1h3.1v1.4h0c0.4-1.1,1.4-1.7,3.1-1.7c1.5,0,2.6,0.6,3.1,1.7c0.4-1,1.7-1.7,3.2-1.7
		c2.4,0,3.7,1.3,3.7,3.5v7.2H286.5z"/>
	<path d="M293.8,22.6c-0.6,0-1.8-1.2-1.8-1.8c0-0.6,1.2-1.8,1.8-1.8c0.6,0,1.8,1.2,1.8,1.8C295.6,21.4,294.4,22.6,293.8,22.6z
		 M292.1,34.5V24.1h3.4v10.4H292.1z"/>
	<path d="M301.3,34.9c-2.1-0.1-3.6-1.2-3.6-3.7V18.1h3.3v12.7c0,0.9,0.5,1.3,1.4,1.4L301.3,34.9z"/>
	<path d="M309.7,33.5c-1.6,4.2-3.2,5.7-5.2,6.5l-2.1-2.1c1.7-0.6,3-1.9,3.8-4.1l-3.7-9.7h3.3l1.5,4c0.2,0.6,0.5,1.3,0.6,2h0
		c0.2-0.7,0.4-1.4,0.7-2l1.5-4h3.1L309.7,33.5z"/>
	<path d="M315.3,26.4l-1.1-0.2c0.8-0.9,1.4-2.2,1.5-3.2c-0.6-0.1-1.5-1.1-1.5-1.6c0-0.7,1.3-1.9,1.9-1.9c0.5,0,1.9,1.2,1.9,1.9
		C318.1,22.8,316.7,25.1,315.3,26.4z"/>
	<path d="M322.2,34.7c-1.4,0-2.5-0.3-3.3-0.7l-0.3-3c0.9,0.6,2.1,1.1,3.3,1.1c0.6,0,1-0.3,1-0.7c0-0.4-0.3-0.6-0.9-0.8
		c-2-0.6-3.2-1.6-3.2-3.4c0-2,1.7-3.4,3.9-3.4c1.3,0,2.6,0.3,3.1,0.6l-0.6,2.5c-0.5-0.3-1.3-0.6-2.2-0.6c-0.6,0-0.9,0.3-0.9,0.7
		c0,0.4,0.3,0.6,0.9,0.8c2.3,0.6,3.3,1.8,3.3,3.5C326.3,33.1,325,34.7,322.2,34.7z"/>
	<path d="M340.4,21.1c-0.4-0.2-0.9-0.3-1.4-0.3c-1.2,0-1.9,0.7-1.9,2.2v1h3l-0.7,2.8h-2.3v7.7h-3.3v-7.7h-1.6v-2.8h1.6v-1.2
		c0-3.2,2-4.7,4.7-4.7c1,0,1.9,0.1,2.5,0.3L340.4,21.1z"/>
	<path d="M348.2,34.5v-1.4h0c-0.4,1.1-1.5,1.7-3.2,1.7c-2.3,0-3.7-1.3-3.7-3.5v-7.2h3.4v6.4c0,0.8,0.5,1.4,1.6,1.4
		c1,0,1.6-0.7,1.6-1.5v-6.3h3.4v10.4H348.2z"/>
	<path d="M360.4,26.8h-2.7v3.9c0,0.9,0.5,1.3,1.4,1.3c0.4,0,0.6,0,0.9-0.1l-0.3,2.6c-0.3,0.2-0.9,0.3-1.6,0.3
		c-2.3,0-3.7-1.2-3.7-3.3v-4.5h-1.7v-2.8h1.7v-2.2l3.4-1.2v3.4h3.4L360.4,26.8z"/>
	<path d="M369.1,34.5v-1.4h0c-0.4,1.1-1.5,1.7-3.2,1.7c-2.3,0-3.7-1.3-3.7-3.5v-7.2h3.4v6.4c0,0.8,0.5,1.4,1.6,1.4
		c1,0,1.6-0.7,1.6-1.5v-6.3h3.4v10.4H369.1z"/>
	<path d="M380.8,27.7c-0.2-0.1-0.7-0.3-1-0.3c-1.1,0-2.1,0.6-2.1,2.2v4.9h-3.4V24.1h3.3v2.3h0c0.3-1.6,1.6-2.5,3-2.5
		c0.3,0,0.7,0,1,0.1L380.8,27.7z"/>
	<path d="M392.1,28.7l-1.5,1.5h-5.1c0.2,0.9,1.3,1.8,3.1,1.8c1.1,0,2.2-0.3,2.9-0.8l-0.3,2.9c-0.8,0.4-2,0.7-3.3,0.7
		c-3.2,0-5.7-2.2-5.7-5.6c0-3.4,2.4-5.5,5.4-5.5c2.9,0,4.7,2,4.7,4.2C392.1,28.1,392.1,28.5,392.1,28.7z M387.5,26.3
		c-1,0-1.8,0.8-2,1.7h3.5c0-0.1,0-0.1,0-0.2C389,27,388.4,26.3,387.5,26.3z"/>
</g>
<g>
	<path d="M28,59.9c-0.6-0.1-1.3-0.6-1.6-1.4c-0.5,0.9-1.4,1.3-2.7,1.3c-1.8,0-3.5-1.3-3.5-3.4c0-1.9,1.5-3.2,3.6-3.4l2.1-0.2v-0.3
		c0-0.6-0.5-1-1.6-1c-1,0-2.1,0.3-2.9,0.8l-0.6-2.6c0.9-0.6,2.3-0.9,3.7-0.9c2.8,0,4.7,1.3,4.7,3.8v3.4c0,1.2,0.5,1.9,1.3,2.2
		L28,59.9z M25.8,54.9L24.6,55c-0.9,0.1-1.3,0.7-1.3,1.3c0,0.6,0.4,1,1.1,1c0.8,0,1.5-0.6,1.5-1.5V54.9z"/>
	<path d="M38.2,51.8h-2.7v3.9c0,0.9,0.5,1.3,1.4,1.3c0.4,0,0.6,0,0.9-0.1l-0.3,2.6c-0.3,0.2-0.9,0.3-1.6,0.3c-2.3,0-3.7-1.2-3.7-3.3
		v-4.5h-1.7v-2.8h1.7v-2.2l3.4-1.2v3.4h3.4L38.2,51.8z"/>
	<path d="M54.8,53.7l-1.5,1.5h-5.1c0.2,0.9,1.3,1.8,3.1,1.8c1.1,0,2.2-0.3,2.9-0.8l-0.3,2.9c-0.8,0.4-2,0.7-3.3,0.7
		c-3.2,0-5.7-2.2-5.7-5.6c0-3.4,2.4-5.5,5.4-5.5c2.9,0,4.7,2,4.7,4.2C54.9,53.1,54.8,53.5,54.8,53.7z M50.2,51.3c-1,0-1.8,0.8-2,1.7
		h3.5c0-0.1,0-0.1,0-0.2C51.7,52,51.1,51.3,50.2,51.3z"/>
	<path d="M63.8,59.9c-0.6-0.1-1.3-0.6-1.6-1.4c-0.5,0.9-1.4,1.3-2.7,1.3c-1.8,0-3.5-1.3-3.5-3.4c0-1.9,1.5-3.2,3.6-3.4l2.1-0.2v-0.3
		c0-0.6-0.5-1-1.6-1c-1,0-2.1,0.3-2.9,0.8l-0.6-2.6c0.9-0.6,2.3-0.9,3.7-0.9c2.8,0,4.7,1.3,4.7,3.8v3.4c0,1.2,0.5,1.9,1.3,2.2
		L63.8,59.9z M61.6,54.9L60.4,55c-0.9,0.1-1.3,0.7-1.3,1.3c0,0.6,0.4,1,1.1,1c0.8,0,1.5-0.6,1.5-1.5V54.9z"/>
	<path d="M70.7,59.7c-1.4,0-2.5-0.3-3.3-0.7L67,56c0.9,0.6,2.1,1.1,3.3,1.1c0.6,0,1-0.3,1-0.7c0-0.4-0.3-0.6-0.9-0.8
		c-2-0.6-3.2-1.6-3.2-3.4c0-2,1.7-3.4,3.9-3.4c1.3,0,2.6,0.3,3.1,0.6l-0.6,2.5c-0.5-0.3-1.3-0.6-2.2-0.6c-0.6,0-0.9,0.3-0.9,0.7
		c0,0.4,0.3,0.6,0.9,0.8c2.3,0.6,3.3,1.8,3.3,3.5C74.8,58.1,73.5,59.7,70.7,59.7z"/>
	<path d="M85.9,53.7l-1.5,1.5h-5.1c0.2,0.9,1.3,1.8,3.1,1.8c1.1,0,2.2-0.3,2.9-0.8l-0.3,2.9c-0.8,0.4-2,0.7-3.3,0.7
		c-3.2,0-5.7-2.2-5.7-5.6c0-3.4,2.4-5.5,5.4-5.5c2.9,0,4.7,2,4.7,4.2C86,53.1,85.9,53.5,85.9,53.7z M81.3,51.3c-1,0-1.8,0.8-2,1.7
		h3.5c0-0.1,0-0.1,0-0.2C82.8,52,82.2,51.3,81.3,51.3z"/>
	<path d="M104.2,59.6h-2.3l-1.4-4.1c-0.2-0.6-0.4-1.4-0.6-2.2h0c-0.2,0.8-0.4,1.5-0.6,2.1l-1.4,4.2h-2.2L92,49.1h3.1l1.3,4
		c0.2,0.6,0.4,1.3,0.5,2h0c0.1-0.6,0.3-1.4,0.5-2l1.3-4h2.6l1.3,3.9c0.2,0.6,0.3,1.4,0.5,2h0c0.1-0.7,0.3-1.4,0.5-2l1.3-3.9h2.9
		L104.2,59.6z"/>
	<path d="M110.8,47.6c-0.6,0-1.8-1.2-1.8-1.8s1.2-1.8,1.8-1.8c0.6,0,1.8,1.2,1.8,1.8S111.4,47.6,110.8,47.6z M109.1,59.5V49.1h3.4
		v10.4H109.1z"/>
	<path d="M121.7,51.8H119v3.9c0,0.9,0.5,1.3,1.4,1.3c0.4,0,0.6,0,0.9-0.1l-0.3,2.6c-0.3,0.2-0.9,0.3-1.6,0.3c-2.3,0-3.7-1.2-3.7-3.3
		v-4.5h-1.7v-2.8h1.7v-2.2l3.4-1.2v3.4h3.4L121.7,51.8z"/>
	<path d="M130.1,59.5v-6.4c0-0.8-0.5-1.4-1.6-1.4c-1,0-1.6,0.6-1.6,1.5v6.3h-3.4V43.1h3.3V50h0c0.5-0.8,1.5-1.3,2.9-1.3
		c2.3,0,3.7,1.3,3.7,3.5v7.2H130.1z"/>
	<path d="M147.6,47.7v11.8h-3.6V47.7h-4.2v-2.9h12v2.9H147.6z"/>
	<path d="M153.3,59.5V44.8h3.6v14.7H153.3z"/>
	<path d="M168.8,59.5l-1.2-3.3h-4.7l-1.2,3.3h-3.4l5.8-14.8h2.5l5.8,14.8H168.8z M165.7,50.7c-0.1-0.4-0.3-0.9-0.4-1.4h0
		c-0.1,0.5-0.3,1-0.4,1.4l-1,2.7h2.9L165.7,50.7z"/>
	<path d="M183.7,59.5l-1.2-3.3h-4.7l-1.2,3.3h-3.4l5.8-14.8h2.5l5.8,14.8H183.7z M180.5,50.7c-0.1-0.4-0.3-0.9-0.4-1.4h0
		c-0.1,0.5-0.3,1-0.4,1.4l-1,2.7h2.9L180.5,50.7z"/>
	<path d="M193.8,59.5V44.8h3.6v11.8h5.5v2.9H193.8z"/>
	<path d="M205.9,47.6c-0.6,0-1.8-1.2-1.8-1.8s1.2-1.8,1.8-1.8c0.6,0,1.8,1.2,1.8,1.8S206.5,47.6,205.9,47.6z M204.2,59.5V49.1h3.4
		v10.4H204.2z"/>
	<path d="M217.1,46.1c-0.4-0.2-0.9-0.3-1.4-0.3c-1.2,0-1.9,0.7-1.9,2.2v1h3l-0.7,2.8h-2.3v7.7h-3.3v-7.7H209v-2.8h1.6v-1.2
		c0-3.2,2-4.7,4.7-4.7c1,0,1.9,0.1,2.5,0.3L217.1,46.1z"/>
	<path d="M227.3,53.7l-1.5,1.5h-5.1c0.2,0.9,1.3,1.8,3.1,1.8c1.1,0,2.2-0.3,2.9-0.8l-0.3,2.9c-0.8,0.4-2,0.7-3.3,0.7
		c-3.2,0-5.7-2.2-5.7-5.6c0-3.4,2.4-5.5,5.4-5.5c2.9,0,4.7,2,4.7,4.2C227.4,53.1,227.3,53.5,227.3,53.7z M222.7,51.3
		c-1,0-1.8,0.8-2,1.7h3.5c0-0.1,0-0.1,0-0.2C224.2,52,223.6,51.3,222.7,51.3z"/>
	<path d="M236,47.6c-0.6,0-1.8-1.2-1.8-1.8s1.2-1.8,1.8-1.8c0.6,0,1.8,1.2,1.8,1.8S236.6,47.6,236,47.6z M234.3,59.5V49.1h3.4v10.4
		H234.3z"/>
	<path d="M246.4,59.5v-6.4c0-0.8-0.5-1.4-1.5-1.4c-1,0-1.7,0.6-1.7,1.5v6.3h-3.4V49.1h3.1v1.4h0c0.4-1.1,1.5-1.7,3.2-1.7
		c2.3,0,3.7,1.3,3.7,3.5v7.2H246.4z"/>
	<path d="M255.3,59.7c-1.4,0-2.5-0.3-3.3-0.7l-0.3-3c0.9,0.6,2.1,1.1,3.3,1.1c0.6,0,1-0.3,1-0.7c0-0.4-0.3-0.6-0.9-0.8
		c-2-0.6-3.2-1.6-3.2-3.4c0-2,1.7-3.4,3.9-3.4c1.3,0,2.6,0.3,3.1,0.6l-0.6,2.5c-0.5-0.3-1.3-0.6-2.2-0.6c-0.6,0-0.9,0.3-0.9,0.7
		c0,0.4,0.3,0.6,0.9,0.8c2.3,0.6,3.3,1.8,3.3,3.5C259.4,58.1,258.1,59.7,255.3,59.7z"/>
	<path d="M267.9,59.5v-1.4h0c-0.4,1.1-1.5,1.7-3.2,1.7c-2.3,0-3.7-1.3-3.7-3.5v-7.2h3.4v6.4c0,0.8,0.5,1.4,1.6,1.4
		c1,0,1.6-0.7,1.6-1.5v-6.3h3.4v10.4H267.9z"/>
	<path d="M279.6,52.7c-0.2-0.1-0.7-0.3-1-0.3c-1.1,0-2.1,0.6-2.1,2.2v4.9h-3.4V49.1h3.3v2.3h0c0.3-1.6,1.6-2.5,3-2.5
		c0.3,0,0.7,0,1,0.1L279.6,52.7z"/>
	<path d="M288.9,59.9c-0.6-0.1-1.3-0.6-1.6-1.4c-0.5,0.9-1.4,1.3-2.7,1.3c-1.8,0-3.5-1.3-3.5-3.4c0-1.9,1.5-3.2,3.6-3.4l2.1-0.2
		v-0.3c0-0.6-0.5-1-1.6-1c-1,0-2.1,0.3-2.9,0.8l-0.6-2.6c0.9-0.6,2.3-0.9,3.7-0.9c2.8,0,4.7,1.3,4.7,3.8v3.4c0,1.2,0.5,1.9,1.3,2.2
		L288.9,59.9z M286.7,54.9l-1.3,0.1c-0.9,0.1-1.3,0.7-1.3,1.3c0,0.6,0.4,1,1.1,1c0.8,0,1.5-0.6,1.5-1.5V54.9z"/>
	<path d="M298.9,59.5v-6.4c0-0.8-0.5-1.4-1.5-1.4c-1,0-1.7,0.6-1.7,1.5v6.3h-3.4V49.1h3.1v1.4h0c0.4-1.1,1.5-1.7,3.2-1.7
		c2.3,0,3.7,1.3,3.7,3.5v7.2H298.9z"/>
	<path d="M312.3,52.4c-0.7-0.4-1.4-0.7-2.2-0.7c-1.5,0-2.6,1.1-2.6,2.6c0,1.5,1.2,2.6,2.7,2.6c0.9,0,1.5-0.2,2.3-0.6l-0.3,2.9
		c-0.7,0.3-1.6,0.5-2.6,0.5c-2.9,0-5.6-2.1-5.6-5.4c0-3.4,2.7-5.4,5.6-5.4c1.4,0,2.5,0.3,3.4,0.8L312.3,52.4z"/>
	<path d="M323.9,53.7l-1.5,1.5h-5.1c0.2,0.9,1.3,1.8,3.1,1.8c1.1,0,2.2-0.3,2.9-0.8l-0.3,2.9c-0.8,0.4-2,0.7-3.3,0.7
		c-3.2,0-5.7-2.2-5.7-5.6c0-3.4,2.4-5.5,5.4-5.5c2.9,0,4.7,2,4.7,4.2C324,53.1,324,53.5,323.9,53.7z M319.4,51.3c-1,0-1.8,0.8-2,1.7
		h3.5c0-0.1,0-0.1,0-0.2C320.9,52,320.2,51.3,319.4,51.3z"/>
	<path d="M327,59.8c-0.6,0-1.9-1.3-1.9-1.9c0-0.6,1.3-1.9,1.9-1.9c0.6,0,1.9,1.3,1.9,1.9C328.9,58.5,327.7,59.8,327,59.8z"/>
</g>
</svg>
