<?xml version="1.0" encoding="utf-8"?>
<!-- Generator: Adobe Illustrator 22.0.1, SVG Export Plug-In . SVG Version: 6.00 Build 0)  -->
<svg version="1.1" id="Layer_1" xmlns="http://www.w3.org/2000/svg" xmlns:xlink="http://www.w3.org/1999/xlink" x="0px" y="0px"
	 viewBox="0 0 728 90" style="enable-background:new 0 0 728 90;" xml:space="preserve">
<style type="text/css">
	.st0{fill:#F9E038;}
</style>
<g>
	<path class="st0" d="M34,57.8h-2.7v3.9c0,0.9,0.5,1.3,1.4,1.3c0.4,0,0.6,0,0.9-0.1l-0.3,2.6c-0.3,0.2-0.9,0.3-1.6,0.3
		c-2.3,0-3.7-1.2-3.7-3.3v-4.5h-1.7v-2.8h1.7v-2.2l3.4-1.2v3.4h3.4L34,57.8z"/>
	<path class="st0" d="M44.9,59.7l-1.5,1.5h-5.1c0.2,0.9,1.3,1.8,3.1,1.8c1.1,0,2.2-0.3,2.9-0.8l-0.3,2.9c-0.8,0.4-2,0.7-3.3,0.7
		c-3.2,0-5.7-2.2-5.7-5.6c0-3.4,2.4-5.5,5.4-5.5c2.9,0,4.7,2,4.7,4.2C45,59.1,44.9,59.5,44.9,59.7z M40.3,57.3c-1,0-1.8,0.8-2,1.7
		h3.5c0-0.1,0-0.1,0-0.2C41.8,58,41.2,57.3,40.3,57.3z"/>
	<path class="st0" d="M52.9,58.7c-0.2-0.1-0.7-0.3-1-0.3c-1.1,0-2.1,0.6-2.1,2.2v4.9h-3.4V55.1h3.3v2.3h0c0.3-1.6,1.6-2.5,3-2.5
		c0.3,0,0.7,0,1,0.1L52.9,58.7z"/>
	<path class="st0" d="M67.5,65.5v-6.4c0-0.8-0.4-1.4-1.5-1.4c-1.1,0-1.6,0.6-1.6,1.5v6.3H61v-6.4c0-0.8-0.4-1.4-1.5-1.4
		c-1.1,0-1.6,0.6-1.6,1.5v6.3h-3.4V55.1h3.1v1.4h0c0.4-1.1,1.4-1.7,3.1-1.7c1.5,0,2.6,0.6,3.1,1.7c0.4-1,1.7-1.7,3.2-1.7
		c2.4,0,3.7,1.3,3.7,3.5v7.2H67.5z"/>
	<path class="st0" d="M81.3,65.9c-2.1-0.1-3.6-1.2-3.6-3.7V49.1h3.3v12.7c0,0.9,0.5,1.3,1.4,1.4L81.3,65.9z"/>
	<path class="st0" d="M85.3,53.7c-0.6,0-1.8-1.2-1.8-1.8s1.2-1.8,1.8-1.8c0.6,0,1.8,1.2,1.8,1.8S85.9,53.7,85.3,53.7z M83.6,65.5
		V55.1H87v10.4H83.6z"/>
	<path class="st0" d="M96.3,52.1c-0.4-0.2-0.9-0.3-1.4-0.3c-1.2,0-1.9,0.7-1.9,2.2v1h3l-0.7,2.8h-2.3v7.7h-3.3v-7.7h-1.6v-2.8h1.6
		v-1.2c0-3.2,2-4.7,4.7-4.7c1,0,1.9,0.1,2.5,0.3L96.3,52.1z"/>
	<path class="st0" d="M106.3,59.7l-1.5,1.5h-5.1c0.2,0.9,1.3,1.8,3.1,1.8c1.1,0,2.2-0.3,2.9-0.8l-0.3,2.9c-0.8,0.4-2,0.7-3.3,0.7
		c-3.2,0-5.7-2.2-5.7-5.6c0-3.4,2.4-5.5,5.4-5.5c2.9,0,4.7,2,4.7,4.2C106.4,59.1,106.3,59.5,106.3,59.7z M101.7,57.3
		c-1,0-1.8,0.8-2,1.7h3.5c0-0.1,0-0.1,0-0.2C103.2,58,102.6,57.3,101.7,57.3z"/>
	<path class="st0" d="M114.6,53.7c-0.6,0-1.8-1.2-1.8-1.8s1.2-1.8,1.8-1.8c0.6,0,1.8,1.2,1.8,1.8S115.2,53.7,114.6,53.7z
		 M112.9,65.5V55.1h3.4v10.4H112.9z"/>
	<path class="st0" d="M124.9,65.5v-6.4c0-0.8-0.5-1.4-1.5-1.4c-1,0-1.7,0.6-1.7,1.5v6.3h-3.4V55.1h3.1v1.4h0
		c0.4-1.1,1.5-1.7,3.2-1.7c2.3,0,3.7,1.3,3.7,3.5v7.2H124.9z"/>
	<path class="st0" d="M133.5,65.7c-1.4,0-2.5-0.3-3.3-0.7l-0.3-3c0.9,0.6,2.1,1.1,3.3,1.1c0.6,0,1-0.3,1-0.7c0-0.4-0.3-0.6-0.9-0.8
		c-2-0.6-3.2-1.6-3.2-3.4c0-2,1.7-3.4,3.9-3.4c1.3,0,2.6,0.3,3.1,0.6l-0.6,2.5c-0.5-0.3-1.3-0.6-2.2-0.6c-0.6,0-0.9,0.3-0.9,0.7
		c0,0.4,0.3,0.6,0.9,0.8c2.3,0.6,3.3,1.8,3.3,3.5C137.6,64.1,136.3,65.7,133.5,65.7z"/>
	<path class="st0" d="M145.9,65.5v-1.4h0c-0.4,1.1-1.5,1.7-3.2,1.7c-2.3,0-3.7-1.3-3.7-3.5v-7.2h3.4v6.4c0,0.8,0.5,1.4,1.6,1.4
		c1,0,1.6-0.7,1.6-1.5v-6.3h3.4v10.4H145.9z"/>
	<path class="st0" d="M157.4,58.7c-0.2-0.1-0.7-0.3-1-0.3c-1.1,0-2.1,0.6-2.1,2.2v4.9h-3.4V55.1h3.3v2.3h0c0.3-1.6,1.6-2.5,3-2.5
		c0.3,0,0.7,0,1,0.1L157.4,58.7z"/>
	<path class="st0" d="M166.4,66c-0.6-0.1-1.3-0.6-1.6-1.4c-0.5,0.9-1.4,1.3-2.7,1.3c-1.8,0-3.5-1.3-3.5-3.4c0-1.9,1.5-3.2,3.6-3.4
		l2.1-0.2v-0.3c0-0.6-0.5-1-1.6-1c-1,0-2.1,0.3-2.9,0.8l-0.6-2.6c0.9-0.6,2.3-0.9,3.7-0.9c2.8,0,4.7,1.3,4.7,3.8v3.4
		c0,1.2,0.5,1.9,1.3,2.2L166.4,66z M164.2,60.9l-1.3,0.1c-0.9,0.1-1.3,0.7-1.3,1.3c0,0.6,0.4,1,1.1,1c0.8,0,1.5-0.6,1.5-1.5V60.9z"
		/>
	<path class="st0" d="M176.3,65.5v-6.4c0-0.8-0.5-1.4-1.5-1.4c-1,0-1.7,0.6-1.7,1.5v6.3h-3.4V55.1h3.1v1.4h0
		c0.4-1.1,1.5-1.7,3.2-1.7c2.3,0,3.7,1.3,3.7,3.5v7.2H176.3z"/>
	<path class="st0" d="M189.5,58.4c-0.7-0.4-1.4-0.7-2.2-0.7c-1.5,0-2.6,1.1-2.6,2.6c0,1.5,1.2,2.6,2.7,2.6c0.9,0,1.5-0.2,2.3-0.6
		l-0.3,2.9c-0.7,0.3-1.6,0.5-2.6,0.5c-2.9,0-5.6-2.1-5.6-5.4c0-3.4,2.7-5.4,5.6-5.4c1.4,0,2.5,0.3,3.4,0.8L189.5,58.4z"/>
	<path class="st0" d="M200.8,59.7l-1.5,1.5h-5.1c0.2,0.9,1.3,1.8,3.1,1.8c1.1,0,2.2-0.3,2.9-0.8l-0.3,2.9c-0.8,0.4-2,0.7-3.3,0.7
		c-3.2,0-5.7-2.2-5.7-5.6c0-3.4,2.4-5.5,5.4-5.5c2.9,0,4.7,2,4.7,4.2C200.9,59.1,200.9,59.5,200.8,59.7z M196.3,57.3
		c-1,0-1.8,0.8-2,1.7h3.5c0-0.1,0-0.1,0-0.2C197.8,58,197.2,57.3,196.3,57.3z"/>
	<path class="st0" d="M207,60.4v-2.6h6v2.6H207z"/>
	<path class="st0" d="M223,65.7c-1.4,0-2.5-0.3-3.3-0.7l-0.3-3c0.9,0.6,2.1,1.1,3.3,1.1c0.6,0,1-0.3,1-0.7c0-0.4-0.3-0.6-0.9-0.8
		c-2-0.6-3.2-1.6-3.2-3.4c0-2,1.7-3.4,3.9-3.4c1.3,0,2.6,0.3,3.1,0.6L226,58c-0.5-0.3-1.3-0.6-2.2-0.6c-0.6,0-0.9,0.3-0.9,0.7
		c0,0.4,0.3,0.6,0.9,0.8c2.3,0.6,3.3,1.8,3.3,3.5C227.1,64.1,225.8,65.7,223,65.7z"/>
	<path class="st0" d="M235.9,66c-0.6-0.1-1.3-0.6-1.6-1.4c-0.5,0.9-1.4,1.3-2.7,1.3c-1.8,0-3.5-1.3-3.5-3.4c0-1.9,1.5-3.2,3.6-3.4
		l2.1-0.2v-0.3c0-0.6-0.5-1-1.6-1c-1,0-2.1,0.3-2.9,0.8l-0.6-2.6c0.9-0.6,2.3-0.9,3.7-0.9c2.8,0,4.7,1.3,4.7,3.8v3.4
		c0,1.2,0.5,1.9,1.3,2.2L235.9,66z M233.7,60.9l-1.3,0.1c-0.9,0.1-1.3,0.7-1.3,1.3c0,0.6,0.4,1,1.1,1c0.8,0,1.5-0.6,1.5-1.5V60.9z"
		/>
	<path class="st0" d="M245,64.5c-1.6,4.2-3.2,5.7-5.2,6.5l-2.1-2.1c1.7-0.6,3-1.9,3.8-4.1l-3.7-9.7h3.3l1.5,4c0.2,0.6,0.5,1.3,0.6,2
		h0c0.2-0.7,0.4-1.4,0.7-2l1.5-4h3.1L245,64.5z"/>
	<path class="st0" d="M252.5,65.7c-1.4,0-2.5-0.3-3.3-0.7l-0.3-3c0.9,0.6,2.1,1.1,3.3,1.1c0.6,0,1-0.3,1-0.7c0-0.4-0.3-0.6-0.9-0.8
		c-2-0.6-3.2-1.6-3.2-3.4c0-2,1.7-3.4,3.9-3.4c1.3,0,2.6,0.3,3.1,0.6l-0.6,2.5c-0.5-0.3-1.3-0.6-2.2-0.6c-0.6,0-0.9,0.3-0.9,0.7
		c0,0.4,0.3,0.6,0.9,0.8c2.3,0.6,3.3,1.8,3.3,3.5C256.6,64.1,255.3,65.7,252.5,65.7z"/>
	<path class="st0" d="M269.4,58.7c-0.2-0.1-0.7-0.3-1-0.3c-1.1,0-2.1,0.6-2.1,2.2v4.9H263V55.1h3.3v2.3h0c0.3-1.6,1.6-2.5,3-2.5
		c0.3,0,0.7,0,1,0.1L269.4,58.7z"/>
	<path class="st0" d="M280.5,59.7l-1.5,1.5h-5.1c0.2,0.9,1.3,1.8,3.1,1.8c1.1,0,2.2-0.3,2.9-0.8l-0.3,2.9c-0.8,0.4-2,0.7-3.3,0.7
		c-3.2,0-5.7-2.2-5.7-5.6c0-3.4,2.4-5.5,5.4-5.5c2.9,0,4.7,2,4.7,4.2C280.6,59.1,280.6,59.5,280.5,59.7z M275.9,57.3
		c-1,0-1.8,0.8-2,1.7h3.5c0-0.1,0-0.1,0-0.2C277.5,58,276.8,57.3,275.9,57.3z"/>
	<path class="st0" d="M287.4,65.6h-2.5l-4-10.5h3.3l1.5,4c0.2,0.6,0.4,1.3,0.6,2h0c0.2-0.7,0.4-1.5,0.6-2l1.5-4h3.1L287.4,65.6z"/>
	<path class="st0" d="M294.1,53.7c-0.6,0-1.8-1.2-1.8-1.8s1.2-1.8,1.8-1.8c0.6,0,1.8,1.2,1.8,1.8S294.7,53.7,294.1,53.7z
		 M292.4,65.5V55.1h3.4v10.4H292.4z"/>
	<path class="st0" d="M307.3,59.7l-1.5,1.5h-5.1c0.2,0.9,1.3,1.8,3.1,1.8c1.1,0,2.2-0.3,2.9-0.8l-0.3,2.9c-0.8,0.4-2,0.7-3.3,0.7
		c-3.2,0-5.7-2.2-5.7-5.6c0-3.4,2.4-5.5,5.4-5.5c2.9,0,4.7,2,4.7,4.2C307.4,59.1,307.3,59.5,307.3,59.7z M302.7,57.3
		c-1,0-1.8,0.8-2,1.7h3.5c0-0.1,0-0.1,0-0.2C304.2,58,303.6,57.3,302.7,57.3z"/>
	<path class="st0" d="M319.9,65.6h-2.3l-1.4-4.1c-0.2-0.6-0.4-1.4-0.6-2.2h0c-0.2,0.8-0.4,1.5-0.6,2.1l-1.4,4.2h-2.2l-3.6-10.5h3.1
		l1.3,4c0.2,0.6,0.4,1.3,0.5,2h0c0.1-0.6,0.3-1.4,0.5-2l1.3-4h2.6l1.3,3.9c0.2,0.6,0.3,1.4,0.5,2h0c0.1-0.7,0.3-1.4,0.5-2l1.3-3.9
		h2.9L319.9,65.6z"/>
	<path class="st0" d="M327.6,65.7c-1.4,0-2.5-0.3-3.3-0.7l-0.3-3c0.9,0.6,2.1,1.1,3.3,1.1c0.6,0,1-0.3,1-0.7c0-0.4-0.3-0.6-0.9-0.8
		c-2-0.6-3.2-1.6-3.2-3.4c0-2,1.7-3.4,3.9-3.4c1.3,0,2.6,0.3,3.1,0.6l-0.6,2.5c-0.5-0.3-1.3-0.6-2.2-0.6c-0.6,0-0.9,0.3-0.9,0.7
		c0,0.4,0.3,0.6,0.9,0.8c2.3,0.6,3.3,1.8,3.3,3.5C331.7,64.1,330.4,65.7,327.6,65.7z"/>
	<path class="st0" d="M334.8,65.8c-0.6,0-1.9-1.3-1.9-1.9c0-0.6,1.3-1.9,1.9-1.9c0.6,0,1.9,1.3,1.9,1.9
		C336.7,64.5,335.4,65.8,334.8,65.8z"/>
	<path class="st0" d="M345.8,58.4c-0.7-0.4-1.4-0.7-2.2-0.7c-1.5,0-2.6,1.1-2.6,2.6c0,1.5,1.2,2.6,2.7,2.6c0.9,0,1.5-0.2,2.3-0.6
		l-0.3,2.9c-0.7,0.3-1.6,0.5-2.6,0.5c-2.9,0-5.6-2.1-5.6-5.4c0-3.4,2.7-5.4,5.6-5.4c1.4,0,2.5,0.3,3.4,0.8L345.8,58.4z"/>
	<path class="st0" d="M352.9,65.8c-3.2,0-5.7-2.2-5.7-5.5s2.5-5.5,5.7-5.5c3.1,0,5.7,2.2,5.7,5.5S356,65.8,352.9,65.8z M352.9,57.7
		c-1.3,0-2.3,1.1-2.3,2.6s1.1,2.6,2.3,2.6c1.2,0,2.3-1.1,2.3-2.6S354.1,57.7,352.9,57.7z"/>
	<path class="st0" d="M372.9,65.5v-6.4c0-0.8-0.4-1.4-1.5-1.4c-1.1,0-1.6,0.6-1.6,1.5v6.3h-3.4v-6.4c0-0.8-0.4-1.4-1.5-1.4
		c-1.1,0-1.6,0.6-1.6,1.5v6.3H360V55.1h3.1v1.4h0c0.4-1.1,1.4-1.7,3.1-1.7c1.5,0,2.6,0.6,3.1,1.7c0.4-1,1.7-1.7,3.2-1.7
		c2.4,0,3.7,1.3,3.7,3.5v7.2H372.9z"/>
</g>
<g>
	<g>
		<path class="st0" d="M36,40.3L34.8,37h-4.7l-1.2,3.3h-3.4l5.8-14.8h2.5l5.8,14.8H36z M32.9,31.5c-0.1-0.4-0.3-0.9-0.4-1.4h0
			c-0.1,0.5-0.3,1-0.4,1.4l-1,2.7h2.9L32.9,31.5z"/>
		<path class="st0" d="M47.9,26.9c-0.4-0.2-0.9-0.3-1.4-0.3c-1.2,0-1.9,0.7-1.9,2.2v1h3L47,32.6h-2.3v7.7h-3.3v-7.7h-1.6v-2.8h1.6
			v-1.2c0-3.2,2-4.7,4.7-4.7c1,0,1.9,0.1,2.5,0.3L47.9,26.9z"/>
		<path class="st0" d="M55.9,26.9c-0.4-0.2-0.9-0.3-1.4-0.3c-1.2,0-1.9,0.7-1.9,2.2v1h3L55,32.6h-2.3v7.7h-3.3v-7.7h-1.6v-2.8h1.6
			v-1.2c0-3.2,2-4.7,4.7-4.7c1,0,1.9,0.1,2.5,0.3L55.9,26.9z"/>
		<path class="st0" d="M61.9,40.6c-3.2,0-5.7-2.2-5.7-5.5c0-3.3,2.5-5.5,5.7-5.5c3.1,0,5.7,2.2,5.7,5.5
			C67.6,38.4,65.1,40.6,61.9,40.6z M61.9,32.5c-1.3,0-2.3,1.1-2.3,2.6s1.1,2.6,2.3,2.6c1.2,0,2.3-1.1,2.3-2.6S63.2,32.5,61.9,32.5z"
			/>
		<path class="st0" d="M75.5,33.5c-0.2-0.1-0.7-0.3-1-0.3c-1.1,0-2.1,0.6-2.1,2.2v4.9H69V29.9h3.3v2.3h0c0.3-1.6,1.6-2.5,3-2.5
			c0.3,0,0.7,0,1,0.1L75.5,33.5z"/>
		<path class="st0" d="M85.1,40.3V39h0c-0.6,1.1-1.8,1.6-3.2,1.6c-2.6,0-5-1.9-5-5.5c0-3.4,2.4-5.5,5.3-5.5c1.1,0,2.2,0.4,2.6,0.7
			v-6.3h3.3v16.4H85.1z M84.8,33.5c-0.3-0.4-1-0.9-2-0.9c-1.5,0-2.5,1.1-2.5,2.6s1,2.6,2.5,2.6c1,0,1.7-0.5,2-1.1V33.5z"/>
		<path class="st0" d="M97.3,40.8c-0.6-0.1-1.3-0.6-1.6-1.4c-0.5,0.9-1.4,1.3-2.7,1.3c-1.8,0-3.5-1.3-3.5-3.4c0-1.9,1.5-3.2,3.6-3.4
			l2.1-0.2v-0.3c0-0.6-0.5-1-1.6-1c-1,0-2.1,0.3-2.9,0.8l-0.6-2.6c0.9-0.6,2.3-0.9,3.7-0.9c2.8,0,4.7,1.3,4.7,3.8v3.4
			c0,1.2,0.5,1.9,1.3,2.2L97.3,40.8z M95.2,35.7l-1.3,0.1c-0.9,0.1-1.3,0.7-1.3,1.3c0,0.6,0.4,1,1.1,1c0.8,0,1.5-0.6,1.5-1.5V35.7z"
			/>
		<path class="st0" d="M105.7,40.6c-2.2,0-4-0.8-5-1.5V23.9h3.3v6.3c0.4-0.3,1.5-0.7,2.6-0.7c2.9,0,5.2,2,5.2,5.3
			C111.8,38.1,109.8,40.6,105.7,40.6z M106,32.5c-1,0-1.7,0.5-2,0.8v4c0.3,0.3,1.1,0.5,1.7,0.5c1.7,0,2.8-1.2,2.8-2.7
			C108.5,33.7,107.5,32.5,106,32.5z"/>
		<path class="st0" d="M115.1,28.5c-0.6,0-1.8-1.2-1.8-1.8c0-0.6,1.2-1.8,1.8-1.8c0.6,0,1.8,1.2,1.8,1.8
			C116.9,27.2,115.7,28.5,115.1,28.5z M113.4,40.3V29.9h3.4v10.4H113.4z"/>
		<path class="st0" d="M122.4,40.7c-2.1-0.1-3.6-1.2-3.6-3.7V23.9h3.3v12.7c0,0.9,0.5,1.3,1.4,1.4L122.4,40.7z"/>
		<path class="st0" d="M126.5,28.5c-0.6,0-1.8-1.2-1.8-1.8c0-0.6,1.2-1.8,1.8-1.8c0.6,0,1.8,1.2,1.8,1.8
			C128.3,27.2,127.1,28.5,126.5,28.5z M124.8,40.3V29.9h3.4v10.4H124.8z"/>
		<path class="st0" d="M137.1,32.6h-2.7v3.9c0,0.9,0.5,1.3,1.4,1.3c0.4,0,0.6,0,0.9-0.1l-0.3,2.6c-0.3,0.2-0.9,0.3-1.6,0.3
			c-2.3,0-3.7-1.2-3.7-3.3v-4.5h-1.7v-2.8h1.7v-2.2l3.4-1.2v3.4h3.4L137.1,32.6z"/>
		<path class="st0" d="M145.1,39.3c-1.6,4.2-3.2,5.7-5.2,6.5l-2.1-2.1c1.7-0.6,3-1.9,3.8-4.1l-3.7-9.7h3.3l1.5,4
			c0.2,0.6,0.5,1.3,0.6,2h0c0.2-0.7,0.4-1.4,0.7-2l1.5-4h3.1L145.1,39.3z"/>
		<path class="st0" d="M162.1,40.8c-0.6-0.1-1.3-0.6-1.6-1.4c-0.5,0.9-1.4,1.3-2.7,1.3c-1.8,0-3.5-1.3-3.5-3.4
			c0-1.9,1.5-3.2,3.6-3.4l2.1-0.2v-0.3c0-0.6-0.5-1-1.6-1c-1,0-2.1,0.3-2.9,0.8l-0.6-2.6c0.9-0.6,2.3-0.9,3.7-0.9
			c2.8,0,4.7,1.3,4.7,3.8v3.4c0,1.2,0.5,1.9,1.3,2.2L162.1,40.8z M159.9,35.7l-1.3,0.1c-0.9,0.1-1.3,0.7-1.3,1.3c0,0.6,0.4,1,1.1,1
			c0.8,0,1.5-0.6,1.5-1.5V35.7z"/>
		<path class="st0" d="M171.9,40.3v-6.4c0-0.8-0.5-1.4-1.5-1.4c-1,0-1.7,0.6-1.7,1.5v6.3h-3.4V29.9h3.1v1.4h0
			c0.4-1.1,1.5-1.7,3.2-1.7c2.3,0,3.7,1.3,3.7,3.5v7.2H171.9z"/>
		<path class="st0" d="M185,40.3V39h0c-0.6,1.1-1.8,1.6-3.2,1.6c-2.6,0-5-1.9-5-5.5c0-3.4,2.4-5.5,5.3-5.5c1.1,0,2.2,0.4,2.6,0.7
			v-6.3h3.3v16.4H185z M184.6,33.5c-0.3-0.4-1-0.9-2-0.9c-1.5,0-2.5,1.1-2.5,2.6s1,2.6,2.5,2.6c1,0,1.7-0.5,2-1.1V33.5z"/>
		<path class="st0" d="M202.2,40.8c-0.6-0.1-1.3-0.6-1.6-1.4c-0.5,0.9-1.4,1.3-2.7,1.3c-1.8,0-3.5-1.3-3.5-3.4
			c0-1.9,1.5-3.2,3.6-3.4l2.1-0.2v-0.3c0-0.6-0.5-1-1.6-1c-1,0-2.1,0.3-2.9,0.8l-0.6-2.6c0.9-0.6,2.3-0.9,3.7-0.9
			c2.8,0,4.7,1.3,4.7,3.8v3.4c0,1.2,0.5,1.9,1.3,2.2L202.2,40.8z M200,35.7l-1.3,0.1c-0.9,0.1-1.3,0.7-1.3,1.3c0,0.6,0.4,1,1.1,1
			c0.8,0,1.5-0.6,1.5-1.5V35.7z"/>
		<path class="st0" d="M212,40.3v-6.4c0-0.8-0.5-1.4-1.5-1.4c-1,0-1.7,0.6-1.7,1.5v6.3h-3.4V29.9h3.1v1.4h0c0.4-1.1,1.5-1.7,3.2-1.7
			c2.3,0,3.7,1.3,3.7,3.5v7.2H212z"/>
		<path class="st0" d="M231.8,34.5l-1.5,1.5h-5.1c0.2,0.9,1.3,1.8,3.1,1.8c1.1,0,2.2-0.3,2.9-0.8l-0.3,2.9c-0.8,0.4-2,0.7-3.3,0.7
			c-3.2,0-5.7-2.2-5.7-5.6c0-3.4,2.4-5.5,5.4-5.5c2.9,0,4.7,2,4.7,4.2C231.9,33.9,231.9,34.3,231.8,34.5z M227.2,32.1
			c-1,0-1.8,0.8-2,1.7h3.5c0-0.1,0-0.1,0-0.2C228.8,32.8,228.1,32.1,227.2,32.1z"/>
		<path class="st0" d="M240.7,40.8c-0.6-0.1-1.3-0.6-1.6-1.4c-0.5,0.9-1.4,1.3-2.7,1.3c-1.8,0-3.5-1.3-3.5-3.4
			c0-1.9,1.5-3.2,3.6-3.4l2.1-0.2v-0.3c0-0.6-0.5-1-1.6-1c-1,0-2.1,0.3-2.9,0.8l-0.6-2.6c0.9-0.6,2.3-0.9,3.7-0.9
			c2.8,0,4.7,1.3,4.7,3.8v3.4c0,1.2,0.5,1.9,1.3,2.2L240.7,40.8z M238.5,35.7l-1.3,0.1c-0.9,0.1-1.3,0.7-1.3,1.3c0,0.6,0.4,1,1.1,1
			c0.8,0,1.5-0.6,1.5-1.5V35.7z"/>
		<path class="st0" d="M247.3,40.5c-1.4,0-2.5-0.3-3.3-0.7l-0.3-3c0.9,0.6,2.1,1.1,3.3,1.1c0.6,0,1-0.3,1-0.7c0-0.4-0.3-0.6-0.9-0.8
			c-2-0.6-3.2-1.6-3.2-3.4c0-2,1.7-3.4,3.9-3.4c1.3,0,2.6,0.3,3.1,0.6l-0.6,2.5c-0.5-0.3-1.3-0.6-2.2-0.6c-0.6,0-0.9,0.3-0.9,0.7
			c0,0.4,0.3,0.6,0.9,0.8c2.3,0.6,3.3,1.8,3.3,3.5C251.4,38.9,250.2,40.5,247.3,40.5z"/>
		<path class="st0" d="M259.3,39.3c-1.6,4.2-3.2,5.7-5.2,6.5l-2.1-2.1c1.7-0.6,3-1.9,3.8-4.1l-3.7-9.7h3.3l1.5,4
			c0.2,0.6,0.5,1.3,0.6,2h0c0.2-0.7,0.4-1.4,0.7-2l1.5-4h3.1L259.3,39.3z"/>
		<path class="st0" d="M276.2,40.8c-0.6-0.1-1.3-0.6-1.6-1.4c-0.5,0.9-1.4,1.3-2.7,1.3c-1.8,0-3.5-1.3-3.5-3.4
			c0-1.9,1.5-3.2,3.6-3.4l2.1-0.2v-0.3c0-0.6-0.5-1-1.6-1c-1,0-2.1,0.3-2.9,0.8l-0.6-2.6c0.9-0.6,2.3-0.9,3.7-0.9
			c2.8,0,4.7,1.3,4.7,3.8v3.4c0,1.2,0.5,1.9,1.3,2.2L276.2,40.8z M274.1,35.7l-1.3,0.1c-0.9,0.1-1.3,0.7-1.3,1.3c0,0.6,0.4,1,1.1,1
			c0.8,0,1.5-0.6,1.5-1.5V35.7z"/>
		<path class="st0" d="M285.4,40.6c-1.1,0-2.2-0.3-2.6-0.7v5.7h-3.3V29.9h3v1.3h0c0.6-1.1,1.8-1.6,3.2-1.6c2.6,0,5,1.9,5,5.5
			C290.7,38.4,288.3,40.6,285.4,40.6z M284.8,32.5c-1,0-1.7,0.5-2,1.1v3.3c0.3,0.4,1,0.9,2,0.9c1.5,0,2.5-1.1,2.5-2.6
			S286.3,32.5,284.8,32.5z"/>
		<path class="st0" d="M298.1,40.6c-1.1,0-2.2-0.3-2.6-0.7v5.7h-3.3V29.9h3v1.3h0c0.6-1.1,1.8-1.6,3.2-1.6c2.6,0,5,1.9,5,5.5
			C303.4,38.4,301,40.6,298.1,40.6z M297.5,32.5c-1,0-1.7,0.5-2,1.1v3.3c0.3,0.4,1,0.9,2,0.9c1.5,0,2.5-1.1,2.5-2.6
			S298.9,32.5,297.5,32.5z"/>
		<path class="st0" d="M308.4,40.7c-2.1-0.1-3.6-1.2-3.6-3.7V23.9h3.3v12.7c0,0.9,0.5,1.3,1.4,1.4L308.4,40.7z"/>
		<path class="st0" d="M312.6,28.5c-0.6,0-1.8-1.2-1.8-1.8c0-0.6,1.2-1.8,1.8-1.8c0.6,0,1.8,1.2,1.8,1.8
			C314.4,27.2,313.2,28.5,312.6,28.5z M310.9,40.3V29.9h3.4v10.4H310.9z"/>
		<path class="st0" d="M324.2,33.2c-0.7-0.4-1.4-0.7-2.2-0.7c-1.5,0-2.6,1.1-2.6,2.6c0,1.5,1.2,2.6,2.7,2.6c0.9,0,1.5-0.2,2.3-0.6
			L324,40c-0.7,0.3-1.6,0.5-2.6,0.5c-2.9,0-5.6-2.1-5.6-5.4c0-3.4,2.7-5.4,5.6-5.4c1.4,0,2.5,0.3,3.4,0.8L324.2,33.2z"/>
		<path class="st0" d="M333.6,40.8c-0.6-0.1-1.3-0.6-1.6-1.4c-0.5,0.9-1.4,1.3-2.7,1.3c-1.8,0-3.5-1.3-3.5-3.4
			c0-1.9,1.5-3.2,3.6-3.4l2.1-0.2v-0.3c0-0.6-0.5-1-1.6-1c-1,0-2.1,0.3-2.9,0.8l-0.6-2.6c0.9-0.6,2.3-0.9,3.7-0.9
			c2.8,0,4.7,1.3,4.7,3.8v3.4c0,1.2,0.5,1.9,1.3,2.2L333.6,40.8z M331.5,35.7l-1.3,0.1c-0.9,0.1-1.3,0.7-1.3,1.3c0,0.6,0.4,1,1.1,1
			c0.8,0,1.5-0.6,1.5-1.5V35.7z"/>
		<path class="st0" d="M343.9,32.6h-2.7v3.9c0,0.9,0.5,1.3,1.4,1.3c0.4,0,0.6,0,0.9-0.1l-0.3,2.6c-0.3,0.2-0.9,0.3-1.6,0.3
			c-2.3,0-3.7-1.2-3.7-3.3v-4.5h-1.7v-2.8h1.7v-2.2l3.4-1.2v3.4h3.4L343.9,32.6z"/>
		<path class="st0" d="M347.3,28.5c-0.6,0-1.8-1.2-1.8-1.8c0-0.6,1.2-1.8,1.8-1.8s1.8,1.2,1.8,1.8C349.1,27.2,347.9,28.5,347.3,28.5
			z M345.6,40.3V29.9h3.4v10.4H345.6z"/>
		<path class="st0" d="M356.2,40.6c-3.2,0-5.7-2.2-5.7-5.5c0-3.3,2.5-5.5,5.7-5.5c3.1,0,5.7,2.2,5.7,5.5
			C361.9,38.4,359.3,40.6,356.2,40.6z M356.2,32.5c-1.3,0-2.3,1.1-2.3,2.6s1.1,2.6,2.3,2.6c1.2,0,2.3-1.1,2.3-2.6
			S357.4,32.5,356.2,32.5z"/>
		<path class="st0" d="M369.9,40.3v-6.4c0-0.8-0.5-1.4-1.5-1.4c-1,0-1.7,0.6-1.7,1.5v6.3h-3.4V29.9h3.1v1.4h0
			c0.4-1.1,1.5-1.7,3.2-1.7c2.3,0,3.7,1.3,3.7,3.5v7.2H369.9z"/>
		<path class="st0" d="M387.3,26.9c-0.4-0.2-0.9-0.3-1.4-0.3c-1.2,0-1.9,0.7-1.9,2.2v1h3l-0.7,2.8h-2.3v7.7h-3.3v-7.7h-1.6v-2.8h1.6
			v-1.2c0-3.2,2-4.7,4.7-4.7c1,0,1.9,0.1,2.5,0.3L387.3,26.9z"/>
		<path class="st0" d="M393.3,40.6c-3.2,0-5.7-2.2-5.7-5.5c0-3.3,2.5-5.5,5.7-5.5c3.1,0,5.7,2.2,5.7,5.5
			C399,38.4,396.5,40.6,393.3,40.6z M393.3,32.5c-1.3,0-2.3,1.1-2.3,2.6s1.1,2.6,2.3,2.6c1.2,0,2.3-1.1,2.3-2.6
			S394.6,32.5,393.3,32.5z"/>
		<path class="st0" d="M406.9,33.5c-0.2-0.1-0.7-0.3-1-0.3c-1.1,0-2.1,0.6-2.1,2.2v4.9h-3.4V29.9h3.3v2.3h0c0.3-1.6,1.6-2.5,3-2.5
			c0.3,0,0.7,0,1,0.1L406.9,33.5z"/>
	</g>
</g>
</svg>
