<?xml version="1.0" encoding="utf-8"?>
<!-- Generator: Adobe Illustrator 22.1.0, SVG Export Plug-In . SVG Version: 6.00 Build 0)  -->
<svg version="1.1" id="Layer_1" xmlns="http://www.w3.org/2000/svg" xmlns:xlink="http://www.w3.org/1999/xlink" x="0px" y="0px"
	 viewBox="0 0 728 90" style="enable-background:new 0 0 728 90;" xml:space="preserve">
<style type="text/css">
	.st0{fill:#F9E038;}
	.st1{fill:#231F20;}
</style>
<path class="st0" d="M579.6,16c0,0-12,0-12,12V32c0,0,0,12,12,12H663c0,0,12,0,12-12V28c0,0,0-12-12-12H579.6z"/>
<g>
	<path class="st1" d="M591.6,32.8v1.6h-5.1v-8h1.9v6.4H591.6z"/>
	<path class="st1" d="M594.2,27.9v1.6h3V31h-3v1.8h3.9v1.6h-5.7v-8h5.7v1.6H594.2z"/>
	<path class="st1" d="M605.9,34.4h-2l-0.5-1.7h-2.6l-0.5,1.7h-1.7l2.6-8h2.2L605.9,34.4z M602.9,31.2l-0.9-2.8l-0.9,2.8H602.9z"/>
	<path class="st1" d="M608.5,34.4h-1.9v-8h3.4c0.7,0,1.4,0,2.1,0.4c0.7,0.4,1,1.2,1,2c0,0.9-0.5,1.8-1.4,2.1l1.5,3.5h-2.1l-1.2-3.2
		h-1.4V34.4z M608.5,29.8h1c0.4,0,0.8,0,1.1-0.2c0.3-0.2,0.5-0.6,0.5-0.9c0-0.3-0.2-0.7-0.5-0.8c-0.3-0.2-0.9-0.2-1.2-0.2h-1V29.8z"
		/>
	<path class="st1" d="M620.4,34.4h-1.6l-3.1-5.4h0v5.4h-1.5v-8h2l2.7,4.7h0v-4.7h1.5V34.4z"/>
	<path class="st1" d="M630.1,34.4h-1.3l-2-6.5h0v6.5h-1.6v-8h2.9l1.4,4.8l1.5-4.8h2.9v8h-1.9v-6.5h0L630.1,34.4z"/>
	<path class="st1" d="M636,33.2c-0.6-0.8-0.8-1.9-0.8-2.9c0-2.1,1.1-4.1,3.4-4.1c1.1,0,1.9,0.4,2.6,1.2c0.6,0.8,0.9,1.9,0.9,2.9
		c0,0.9-0.2,2-0.8,2.8c-0.6,0.9-1.6,1.4-2.7,1.4C637.5,34.5,636.6,34.1,636,33.2z M637.4,28.7c-0.2,0.5-0.3,1.2-0.3,1.7
		c0,1,0.2,2.6,1.5,2.6c0.6,0,1-0.3,1.2-0.9c0.2-0.5,0.2-1.2,0.2-1.7c0-0.6-0.1-1.3-0.3-1.8c-0.2-0.5-0.6-0.8-1.2-0.8
		C638,27.7,637.6,28.1,637.4,28.7z"/>
	<path class="st1" d="M645,34.4h-1.9v-8h3.4c0.7,0,1.4,0,2.1,0.4c0.7,0.4,1,1.2,1,2c0,0.9-0.5,1.8-1.4,2.1l1.5,3.5h-2.1l-1.2-3.2
		H645V34.4z M645,29.8h1c0.4,0,0.8,0,1.1-0.2c0.3-0.2,0.5-0.6,0.5-0.9c0-0.3-0.2-0.7-0.5-0.8c-0.3-0.2-0.9-0.2-1.2-0.2h-1V29.8z"/>
	<path class="st1" d="M652.6,27.9v1.6h3V31h-3v1.8h3.9v1.6h-5.7v-8h5.7v1.6H652.6z"/>
</g>
</svg>
