<?xml version="1.0" encoding="utf-8"?>
<!-- Generator: Adobe Illustrator 22.1.0, SVG Export Plug-In . SVG Version: 6.00 Build 0)  -->
<svg version="1.1" id="Layer_1" xmlns="http://www.w3.org/2000/svg" xmlns:xlink="http://www.w3.org/1999/xlink" x="0px" y="0px"
	 viewBox="0 0 728 90" style="enable-background:new 0 0 728 90;" xml:space="preserve">
<style type="text/css">
	.st0{clip-path:url(#SVGID_2_);fill:#FFFFFF;}
	.st1{clip-path:url(#SVGID_4_);fill:url(#SVGID_5_);}
	.st2{clip-path:url(#SVGID_7_);fill:url(#SVGID_8_);}
	.st3{clip-path:url(#SVGID_10_);fill:url(#SVGID_11_);}
	.st4{clip-path:url(#SVGID_13_);fill:url(#SVGID_14_);}
	.st5{clip-path:url(#SVGID_16_);fill:url(#SVGID_17_);}
	.st6{fill:#626366;}
	.st7{fill:#404041;}
	.st8{fill:#808184;}
	.st9{fill:#231F20;}
	.st10{clip-path:url(#SVGID_19_);fill:#404041;}
	.st11{clip-path:url(#SVGID_19_);fill:#EAEBEC;}
	.st12{clip-path:url(#SVGID_19_);fill:#DBDCDD;}
	.st13{clip-path:url(#SVGID_19_);fill:#FFFFFF;}
	.st14{clip-path:url(#SVGID_21_);fill:url(#SVGID_22_);}
	.st15{fill:#005494;}
	.st16{fill:#0081BD;}
	.st17{fill:#FFFFFF;}
</style>
<g>
	<defs>
		<rect id="SVGID_1_" x="413.7" y="6.5" width="77.1" height="77.1"/>
	</defs>
	<clipPath id="SVGID_2_">
		<use xlink:href="#SVGID_1_"  style="overflow:visible;"/>
	</clipPath>
	<path class="st0" d="M445.1,6.5c-5.7,0-11.2,2.3-15.3,6.4c-4.1,4.1-6.4,9.5-6.4,15.2v45.8h45.8c11.9,0,21.7-9.7,21.7-21.7V6.5
		H445.1z"/>
</g>
<g>
	<defs>
		<path id="SVGID_3_" d="M469.2,73.9h-45.8v0l-9.6,9.6h49c3.9-0.4,7.4-2.2,10.1-4.8l7.2-7.2l-0.4-0.4
			C476.5,72.9,473,73.9,469.2,73.9"/>
	</defs>
	<clipPath id="SVGID_4_">
		<use xlink:href="#SVGID_3_"  style="overflow:visible;"/>
	</clipPath>
	
		<linearGradient id="SVGID_5_" gradientUnits="userSpaceOnUse" x1="1.0803" y1="91.0762" x2="2.0803" y2="91.0762" gradientTransform="matrix(0 -12.4609 -12.4609 0 1581.8154 97.1921)">
		<stop  offset="0" style="stop-color:#10B0E6"/>
		<stop  offset="0.1593" style="stop-color:#0FAAE1"/>
		<stop  offset="0.3678" style="stop-color:#0C9AD2"/>
		<stop  offset="0.6035" style="stop-color:#077FBA"/>
		<stop  offset="0.8576" style="stop-color:#015999"/>
		<stop  offset="0.89" style="stop-color:#005494"/>
		<stop  offset="1" style="stop-color:#005494"/>
	</linearGradient>
	<rect x="413.8" y="71.2" class="st1" width="66.2" height="12.3"/>
</g>
<g>
	<defs>
		<path id="SVGID_6_" d="M418.6,24.5c-3,3.1-4.9,7.3-4.9,11.9v47.1h0.1l9.6-9.6V28.1c0-3.6,0.9-7.2,2.7-10.3l-0.4-0.4L418.6,24.5z"
			/>
	</defs>
	<clipPath id="SVGID_7_">
		<use xlink:href="#SVGID_6_"  style="overflow:visible;"/>
	</clipPath>
	
		<linearGradient id="SVGID_8_" gradientUnits="userSpaceOnUse" x1="1.015" y1="91.015" x2="2.015" y2="91.015" gradientTransform="matrix(0 -66.5737 -66.5737 0 6479.1465 151.7403)">
		<stop  offset="0" style="stop-color:#0081BD"/>
		<stop  offset="0.3934" style="stop-color:#006FAC"/>
		<stop  offset="0.85" style="stop-color:#005494"/>
		<stop  offset="1" style="stop-color:#005494"/>
	</linearGradient>
	<rect x="413.7" y="17.4" class="st2" width="12.4" height="66.2"/>
</g>
<g>
	<defs>
		<path id="SVGID_9_" d="M469.2,73.9h-45.8v0l-9.6,9.6h49c3.9-0.4,7.4-2.2,10.1-4.8l7.2-7.2l-0.4-0.4
			C476.5,72.9,473,73.9,469.2,73.9"/>
	</defs>
	<clipPath id="SVGID_10_">
		<use xlink:href="#SVGID_9_"  style="overflow:visible;"/>
	</clipPath>
	
		<linearGradient id="SVGID_11_" gradientUnits="userSpaceOnUse" x1="0.9847" y1="91.016" x2="1.9847" y2="91.016" gradientTransform="matrix(65.5643 0 0 -65.5643 349.4191 6044.7783)">
		<stop  offset="0" style="stop-color:#10B0E6"/>
		<stop  offset="0.1611" style="stop-color:#0FAAE1"/>
		<stop  offset="0.3719" style="stop-color:#0C9AD2"/>
		<stop  offset="0.6102" style="stop-color:#077FBA"/>
		<stop  offset="0.8672" style="stop-color:#015999"/>
		<stop  offset="0.9" style="stop-color:#005494"/>
		<stop  offset="1" style="stop-color:#005494"/>
	</linearGradient>
	<rect x="413.8" y="71.2" class="st3" width="66.2" height="12.3"/>
</g>
<g>
	<defs>
		<path id="SVGID_12_" d="M418.6,24.5c-3,3.1-4.9,7.3-4.9,11.9v47.1h0.1l9.6-9.6V28.1c0-3.6,0.9-7.2,2.7-10.3l-0.4-0.4L418.6,24.5z"
			/>
	</defs>
	<clipPath id="SVGID_13_">
		<use xlink:href="#SVGID_12_"  style="overflow:visible;"/>
	</clipPath>
	
		<linearGradient id="SVGID_14_" gradientUnits="userSpaceOnUse" x1="1.015" y1="91.015" x2="2.015" y2="91.015" gradientTransform="matrix(0 -66.5737 -66.5737 0 6479.1465 151.7403)">
		<stop  offset="0" style="stop-color:#0081BD"/>
		<stop  offset="0.3934" style="stop-color:#006FAC"/>
		<stop  offset="0.85" style="stop-color:#005494"/>
		<stop  offset="1" style="stop-color:#005494"/>
	</linearGradient>
	<rect x="413.7" y="17.4" class="st4" width="12.4" height="66.2"/>
</g>
<g>
	<defs>
		<path id="SVGID_15_" d="M445.1,9.2c-10.4,0-18.9,8.6-18.9,18.8v43.1h43c10.4,0,18.9-8.5,18.9-18.9v-43H445.1z"/>
	</defs>
	<clipPath id="SVGID_16_">
		<use xlink:href="#SVGID_15_"  style="overflow:visible;"/>
	</clipPath>
	
		<linearGradient id="SVGID_17_" gradientUnits="userSpaceOnUse" x1="1" y1="91.0163" x2="2" y2="91.0163" gradientTransform="matrix(61.7667 -61.7667 -61.7667 -61.7667 5986.4302 5754.4858)">
		<stop  offset="0" style="stop-color:#9CDBF8"/>
		<stop  offset="1" style="stop-color:#0088CF"/>
	</linearGradient>
	<polygon class="st5" points="395.3,40.2 457.2,-21.7 519.1,40.2 457.2,102.1 	"/>
</g>
<polygon class="st6" points="478.7,59.8 453,59.8 447.4,65.5 473.1,65.5 "/>
<polygon class="st7" points="477.4,64.3 453.7,64.3 448.7,69.2 472.5,69.2 "/>
<rect x="453.7" y="60.6" class="st8" width="23.7" height="3.7"/>
<polygon class="st9" points="447.4,61.8 447.4,65.5 453,59.8 453.3,55.9 "/>
<g>
	<defs>
		<rect id="SVGID_18_" x="413.7" y="6.5" width="77.1" height="77.1"/>
	</defs>
	<clipPath id="SVGID_19_">
		<use xlink:href="#SVGID_18_"  style="overflow:visible;"/>
	</clipPath>
	<path class="st10" d="M478.7,56.5c0-0.5-0.4-0.9-0.9-0.9H454c-0.5,0-0.9,0.4-0.9,0.9c0,0,0,3.3,0,3.3c0,0,25.7,0,25.7,0V56.5z"/>
	<polygon class="st11" points="431.5,62.1 431.7,65.4 445.9,64.4 445.7,61.1 	"/>
	<polygon class="st12" points="431.7,64.5 431.7,65.4 445.9,64.4 445.9,63.5 	"/>
	<path class="st13" d="M445.9,64.4c-0.3,0-0.5-0.7-0.6-1.6c-0.1-0.9,0.1-1.7,0.4-1.7c0.2,0,0.5,0.7,0.6,1.6
		C446.3,63.6,446.2,64.4,445.9,64.4"/>
</g>
<g>
	<defs>
		<polygon id="SVGID_20_" points="429.2,68.2 423.5,73.9 477.7,73.9 483.4,68.2 		"/>
	</defs>
	<clipPath id="SVGID_21_">
		<use xlink:href="#SVGID_20_"  style="overflow:visible;"/>
	</clipPath>
	
		<linearGradient id="SVGID_22_" gradientUnits="userSpaceOnUse" x1="0.9858" y1="91.0142" x2="1.9858" y2="91.0142" gradientTransform="matrix(70.5187 0 0 -70.5187 353.8559 6489.2476)">
		<stop  offset="0" style="stop-color:#10B0E6"/>
		<stop  offset="8.680120e-02" style="stop-color:#10B0E6"/>
		<stop  offset="0.3215" style="stop-color:#0D9DD5"/>
		<stop  offset="0.7963" style="stop-color:#046BA9"/>
		<stop  offset="1" style="stop-color:#005494"/>
	</linearGradient>
	<rect x="423.5" y="68.2" class="st14" width="59.9" height="5.7"/>
</g>
<rect x="429.2" y="64" class="st15" width="54.3" height="4.2"/>
<polygon class="st16" points="429.2,64 423.5,69.7 423.5,73.9 429.2,68.2 "/>
<g>
	<path class="st17" d="M436.5,23.9L436.5,23.9c0.1,0.2,0.1,0.2,0.2,0.2l0.5,0c0-0.1,0.1-0.2,0.2-0.2c0.1,0,0.1,0.1,0.2,0.1l-0.1,0.1
		h0.1c0.2-0.1,0.4-0.2,0.5-0.2l0,0.2c-0.2,0-0.2,0.1-0.2,0.1v0.1c0.2,0,0.5,0.1,0.9,0.2l0.7,0c0.1,0,0.1-0.1,0.2-0.2
		c0.1,0.1,0.3,0.1,0.4,0.2l0.8-0.2h0.2c0.4,0.1,0.6,0.2,0.6,0.3c-0.1,0-0.1,0.1-0.2,0.2l0,0.1l0.1,0.3l0.3-0.1l0.4,0.2
		c0.1,0.2,0.1,0.3,0.1,0.3c-0.1,0-0.1,0.1-0.1,0.1l0.3,0.3l-0.2,0.5v0.1h0.1l0.2-0.2l0.1,0.1l0,0.1l-0.2,0.2c0,0.1,0.1,0.1,0.1,0.2
		c-0.1,0-0.2,0.2-0.2,0.5c0.1,0.3,0.3,0.5,0.8,0.4c0.2,0.2,0.3,0.4,0.3,0.5c-0.2,0.1-0.3,0.2-0.3,0.4c0.3,0.1,0.5,0.2,0.5,0.2v0.1
		c0,0.1-0.1,0.1-0.2,0.1l0.1,0.4v0.1c0,0.1,0,0.1-0.1,0.1l0.1,0.1v0.1c0,0.1,0,0.2-0.1,0.3c0.2,0,0.2,0.1,0.3,0.2l0.1,0l0.2-0.2h0.1
		c0.1,0,0.1,0.1,0.1,0.2c0,0.3-0.1,0.4-0.2,0.4l0.1,0.1v0.1c0,0.1,0,0.1-0.1,0.1l0.1,0.4l-0.1,0.1l0.1,0.6l0.1-0.1h0.1l0,0.2
		c-0.1,0-0.2,0.1-0.2,0.2c0,0.1,0.1,0.2,0.4,0.4c0,0.1-0.3,0.2-0.8,0.4c-0.2,0.3-0.3,0.5-0.3,0.5l0.1,0.1c0,0.2-0.1,0.2-0.1,0.2
		c0,0.1,0.1,0.1,0.1,0.2c-0.1,0.2-0.1,0.2-0.2,0.2c-0.1-0.1-0.2-0.2-0.2-0.3c0-0.1,0.1-0.1,0.1-0.2c-0.1,0-0.1-0.1-0.2-0.2
		c0.1,0,0.1-0.1,0.1-0.1c0-0.1-0.1-0.1-0.4-0.1l0-0.2c0.2-0.2,0.3-0.4,0.3-0.5c0.3-0.1,0.5-0.3,0.6-0.4v-0.1c-0.1,0-0.2,0-0.3-0.2
		c-0.2,0.2-0.5,0.4-0.6,0.4c0,0.1,0,0.2-0.2,0.2v0.1l0.1,0.2c-0.1,0.2-0.2,0.3-0.2,0.3c0,0.2,0.2,0.4,0.4,0.6l0,0.1l-0.8,0.3
		l-0.2-0.1c-0.6,0.1-1,0.2-1.1,0.3h-0.1c0,0-0.1,0-0.1-0.1l-0.1,0.1l-0.4,0c0,0.1-0.1,0.1-0.2,0.2h-0.1c0,0,0-0.2-0.1-0.4v-0.1
		l0.1-0.1c0,0-0.1,0-0.1-0.1c0.4-0.4,0.6-0.6,0.6-0.6l-0.1-0.1l-0.1,0l-0.2,0.1l-0.1,0c-0.1,0-0.1,0-0.1-0.1c0.1,0,0.1,0,0.1-0.1
		c0,0-0.1,0-0.1-0.1l0.1-0.1l-0.1-0.1v-0.1l0-0.3c0,0-0.1,0-0.1-0.1l0.1-0.1l-0.1-0.1v-0.1c0-0.3,0.1-0.4,0.4-0.4v-0.1l-0.1-0.1
		l0.1-0.1V32l-0.3,0.1l-0.1-0.1c-0.2,0.1-0.4,0.1-0.5,0.1l-0.1-0.3c0-0.1,0.1-0.3,0.4-0.6c0,0,0,0.1,0.1,0.1c0-0.1,0-0.2,0.1-0.3
		c-0.1,0-0.2,0-0.2-0.1c0,0.1,0,0.1-0.1,0.1h-0.1c-0.1,0-0.1,0-0.1-0.1l0-0.3c0.1-0.2,0.2-0.2,0.3-0.2l-0.5-0.4c0-0.1,0-0.2-0.1-0.2
		c0-0.1,0-0.1,0-0.2v-0.1h-0.1c0,0.1-0.1,0.2-0.3,0.4h-0.1c-0.2,0-0.5,0-0.8,0c-0.2,0.1-0.3,0.1-0.3,0.2V30l0.1,0.2l0.3-0.1l0.6,0
		l0.2-0.1c0.2,0.2,0.3,0.3,0.3,0.5c-0.1,0-0.2,0.1-0.3,0.4l-0.1,0.1h-0.1c-0.1,0-0.1-0.1-0.2-0.3h-0.1c0,0.2,0,0.3-0.1,0.3l0.1,0.1
		c-0.1,0.3-0.2,0.5-0.3,0.5l-0.1,0l0.1,0.3l0,0.1h-0.1c-0.1,0-0.1,0-0.1-0.1l0.1-0.3c-0.2,0.2-0.5,0.4-0.8,0.4l0,0.1
		c0.1,0,0.2,0,0.2,0.1l0.2-0.1c0.1,0.1,0.3,0.1,0.4,0.1v0.1c0,0.1-0.1,0.1-0.2,0.2l0.1,0.1c-0.1,0.2-0.2,0.4-0.2,0.5
		c0,0.1,0.1,0.1,0.1,0.2l-0.2,0.2c-0.1,0-0.1,0-0.1-0.1l0-0.3l-0.2-0.1l-0.3,0.5c0,0,0.2,0.1,0.6,0.4l-0.3,0.9
		c-0.4,0.2-0.6,0.3-0.6,0.4v0.1c0.1,0,0.2,0,0.2,0.1c0,0.1-0.1,0.1-0.2,0.1l0,0.2c0.1,0.1,0.2,0.4,0.3,0.8c0.1,0,0.2-0.1,0.5-0.4
		h0.1l0.2,0.1h0.1c0.5,0,0.9-0.2,1.2-0.4c0.1,0.1,0.2,0.1,0.3,0.1c0-0.1,0-0.1,0.1-0.1c0,0,0.1,0,0.1,0.1c0.3-0.1,0.4-0.2,0.5-0.2
		l0.2,0.2l0.4-0.2l0.1,0v0.2l0.1,0c0.2-0.2,0.3-0.4,0.3-0.5c0,0-0.1,0-0.1-0.1l0.1,0l0.3,0.2l0.3-0.1c0.3,0,0.5,0,0.6,0
		c0-0.1,0-0.2,0.1-0.2l0.3,0.3h0.1c0.6-0.1,1-0.2,1.1-0.3l0.1,0.1l-0.1,0.1l0.1,0c0-0.1,0.1-0.2,0.2-0.4l-0.1-0.1v-0.1
		c0.1-0.2,0.2-0.2,0.3-0.2l-0.1-0.1c0.3-0.5,0.5-0.7,0.8-0.7l0.1,0.1l-0.1,0.1c0,0.1,0,0.2,0.1,0.3c-0.1,0-0.2,0.1-0.3,0.1l0,0.3
		l-0.1,0.3l0.6,0.3h-0.1c0.1,0.2,0.1,0.4,0.1,0.5c0,0.1,0,0.3-0.2,0.5l0.1,0.3H445l0.1,0.1v0.1c0,0.1,0,0.2-0.1,0.2
		c0,0.1,0.1,0.1,0.1,0.2c-0.6,0.3-0.9,0.4-0.9,0.4c-0.1,0-0.1-0.1-0.2-0.1l0,0.3l0.3,0c0.1,0,0.3-0.2,0.7-0.6h0.1
		c0.2,0.1,0.3,0.1,0.3,0.2l-0.2,0.3c0.2,0,0.3,0.1,0.3,0.2l0,0.2c-0.2,0.2-0.2,0.3-0.2,0.3l0.2,0.2c0,0.1,0,0.1,0,0.2h0.1
		c0-0.2,0-0.2,0.1-0.2h0.1c0.2,0.1,0.3,0.2,0.4,0.2V39c0,0.1,0,0.1-0.1,0.1l-0.1,0l-0.3-0.2h-0.1V39c0.3,0.2,0.4,0.3,0.4,0.4
		c0,0.1-0.1,0.1-0.1,0.2c0.1,0,0.1,0.1,0.3,0.2v0.1c0,0.1-0.1,0.2-0.3,0.2c0-0.1-0.1-0.1-0.1-0.1c-0.1,0-0.1,0.1-0.1,0.1v0.1
		c0.5,0.3,0.8,0.5,0.9,0.6v0.1c-0.3,0.2-0.5,0.4-0.5,0.4v0.1l0.2,0l0.2-0.1h0.1v0.1h-0.1l0,0.1l0.2,0.2c-0.1,0-0.1,0.1-0.1,0.1
		c0.1,0,0.2,0,0.2,0.1l-0.5,0.3c0,0,0,0.1-0.1,0.1H446l-0.4-0.2l-0.1,0.1c0.1,0,0.1,0.1,0.2,0.2l-0.2,0.2l0,0.1
		c0.1,0,0.2,0.1,0.2,0.3l0.1,0l-0.1-0.1c0.3-0.2,0.4-0.3,0.4-0.4c0.1-0.1,0.3-0.1,0.5-0.1h0.1c0.1,0,0.2,0.1,0.2,0.3
		c-0.1,0.1-0.3,0.2-0.6,0.3v0.1c0,0.1,0.1,0.1,0.1,0.1c0.2-0.1,0.3-0.2,0.3-0.2c0,0,0,0.1,0.1,0.1l-0.1,0.1v0.1c0.1,0,0.2,0,0.2,0.1
		c0,0.1-0.1,0.1-0.1,0.2c0.1,0,0.2-0.1,0.3-0.1l0.1,0.1c-0.1,0.2-0.1,0.2-0.2,0.2l-0.2,0c-0.1-0.1-0.2-0.1-0.2-0.1
		c-0.1,0-0.1,0.1-0.2,0.1c0,0,0-0.1-0.1-0.1c-0.2,0.1-0.3,0.3-0.3,0.5c0.2,0.2,0.4,0.3,0.6,0.3c0-0.1,0.2-0.2,0.5-0.2
		c0.1,0,0.1,0.1,0.2,0.2v0.1c0,0.1-0.1,0.1-0.2,0.1l0,0.2c0.5,0.2,0.8,0.5,0.8,1l0.1,0.2v0.1h-0.1c-0.1,0-0.1-0.1-0.1-0.2H448v0.1
		l-0.1,0l-0.1-0.3c-0.2,0-0.4,0.1-0.4,0.3c0.1,0.3,0.2,0.5,0.4,0.7c0,0-0.2,0-0.5,0.1h-0.1c-0.1,0-0.2-0.1-0.3-0.3l0.1-0.3
		c-0.1,0-0.1,0-0.2-0.1h-0.2c-0.1,0-0.4,0.1-1,0.3l0,0.2c0.2,0.2,0.3,0.3,0.3,0.3c-0.1,0.3-0.3,0.4-0.6,0.4l0.1-0.1l0-0.2h-0.1
		c0,0.2,0,0.3-0.1,0.3h-0.1c-0.1,0-0.2-0.1-0.3-0.3c0.4-0.1,0.5-0.2,0.5-0.3c-0.1-0.2-0.2-0.3-0.3-0.3c0,0-0.1,0.1-0.3,0.4l-0.1-0.1
		c0,0.1-0.1,0.2-0.3,0.3c-0.1-0.1-0.1-0.2-0.2-0.3l-0.4,0c0-0.1-0.2-0.4-0.6-0.8v-0.1l0.1-0.1l-0.4-1.4c-0.2-0.2-0.3-0.3-0.4-0.3
		c0,0,0,0.1-0.1,0.1c0-0.1-0.1-0.1-0.1-0.2c0-0.1,0.2-0.3,0.6-0.4c0-0.1-0.1-0.2-0.1-0.2c-0.1,0-0.1,0.1-0.2,0.1l-0.1-0.1
		c0-0.1,0.1-0.2,0.4-0.4V43c-0.1-0.2-0.1-0.2-0.2-0.2c0,0.1,0,0.1-0.1,0.1c-0.1-0.1-0.1-0.2-0.1-0.2l-0.1,0.1l-0.2,0l0-0.1
		c0.3-0.2,0.4-0.3,0.4-0.3l0-0.1l-0.1-0.1c0.1-0.1,0.1-0.1,0.1-0.2v-0.1l-0.2,0.1l-0.1-0.1c0-0.1,0.1-0.1,0.1-0.2l-0.3,0.5l-0.1-0.1
		l0-0.5l-0.1-0.2c0-0.1,0.2-0.2,0.5-0.3h0.1v0.1l0.2,0c1.1-0.3,1.7-0.5,1.7-0.7l0-0.1l-0.1,0c0,0.1-0.1,0.2-0.3,0.2
		c-0.2,0-0.2-0.1-0.3-0.3c-1.1,0.1-1.7,0.3-1.7,0.4h-0.1c-0.1,0-0.2-0.2-0.3-0.6c0.2-0.2,0.2-0.4,0.2-0.5l-0.1-0.1
		c0,0,0,0.1-0.1,0.1c0-0.1-0.1-0.1-0.1-0.2c0-0.1,0.1-0.2,0.2-0.2v-0.1h-0.1v0.1c-0.1,0-0.1-0.1-0.2-0.1l0-0.1c0-0.1,0-0.1,0.1-0.1
		h0.1c0.2,0.1,0.3,0.2,0.4,0.2l0.1-0.1l-0.2,0v-0.1l0.1-0.1l-0.1,0l0-0.1l0.3,0v-0.1c-0.4,0-0.6,0-0.7,0l0-0.2
		c0-0.1,0.1-0.1,0.2-0.1l-0.1-0.1c0,0,0-0.1,0.1-0.1c0,0,0-0.1-0.1-0.1l0-0.4l0-0.1c0-0.1,0-0.1-0.1-0.1l-0.2,0.2
		c0.1,0,0.1,0,0.1,0.1l-0.1,0.1h-0.1c-0.2-0.1-0.3-0.2-0.4-0.2c-0.2,0-0.4,0.1-0.5,0.1v-0.1c-0.1,0-0.2,0.1-0.3,0.3h-0.1
		c-0.1,0-0.1,0-0.1-0.1l-0.2,0.1c-0.3,0-0.5-0.2-0.5-0.4c0,0,0.1,0,0.1-0.1l-0.1-0.1c-0.1,0.3-0.2,0.5-0.2,0.7l0.3,0.1
		c-0.1,0.2-0.2,0.4-0.3,0.4l-0.4-0.2l0-0.1l0.1-0.2c0-0.1-0.1-0.1-0.1-0.1c0,0.1-0.1,0.1-0.2,0.2c-0.4-0.1-0.5-0.2-0.6-0.5
		c0-0.2-0.1-0.4-0.2-0.4H437v0.1c0,0.1,0.1,0.2,0.2,0.3c-0.1,0.4-0.1,0.6-0.2,0.6h-0.1c0-0.2-0.1-0.2-0.3-0.2v-0.2
		c0.1-0.2,0.2-0.3,0.2-0.4l-0.4-0.2c-0.1,0-0.2,0.1-0.3,0.3c-0.2-0.1-0.3-0.1-0.3-0.2c-0.1,0-0.2,0.1-0.2,0.1l-0.4,0
		c0,0,0,0.1-0.1,0.1c0-0.1,0-0.1-0.1-0.1c-0.1,0.2-0.2,0.2-0.4,0.3l0,0.1l0.1,0.2c0,0.5-0.4,1-1.1,1.4c-0.1,0-0.2-0.1-0.2-0.1v0.1
		c0,0.1,0.1,0.1,0.1,0.2l0.2-0.1l0.1,0c0.1,0,0.1,0.1,0.2,0.2c-0.2,0.3-0.3,0.5-0.5,0.5l0,0.3h0.1v0.1c0,0.1-0.1,0.1-0.2,0.2
		l-0.1-0.1c0,0.1-0.1,0.2-0.2,0.2l0,0.3c-0.2,0.2-0.3,0.3-0.3,0.4c0,0,0.1,0,0.2,0c0,0.1-0.1,0.1-0.1,0.2l-0.1-0.1
		c0,0.4-0.2,0.8-0.7,1.1l0.1,0.1c0,0.2-0.4,0.8-1.1,1.9l-0.6,0c0,0.1,0,0.1-0.1,0.1l-0.3,0c-0.1-0.1-0.5-0.3-1.2-0.6
		c-0.2,0-0.5-0.2-0.9-0.6c-0.3,0-0.5-0.1-0.7-0.4l0.9-2.1c0-0.1-0.1-0.1-0.1-0.2c0.1,0,0.2-0.3,0.4-0.8l0.2,0l0.1,0.1
		c0-0.7,0.2-1,0.6-1c0,0,0-0.1,0.1-0.2l-0.1-0.3l0-0.1c0-0.2,0.4-0.3,1.1-0.5h0.1l0-0.3h-0.1c0,0.2,0,0.2-0.1,0.2l-0.1,0
		c-0.1,0-0.1-0.1-0.3-0.2l0.2-0.1l0.1,0.1l0.1-0.1l-0.1-0.2v-0.1c0.2-0.3,0.4-0.5,0.7-0.6l0.2,0l0,0.1c-0.2,0-0.2,0.1-0.2,0.1l0.2,0
		l0.4-0.1l0-0.2l-0.1,0c-0.1,0-0.1,0.1-0.2,0.1c0-0.1-0.1-0.1-0.3-0.2c-0.1,0-0.1,0.1-0.2,0.1l-0.1-0.1c0.2-0.4,0.5-0.7,0.7-0.8
		l-0.1-0.3c0.1-0.3,0.2-0.5,0.2-0.5c0.1,0,0.1,0.2,0.3,0.5c0,0.1-0.1,0.1-0.1,0.2c0,0.1,0.1,0.1,0.1,0.2c0.1,0,0.1-0.1,0.1-0.2
		c-0.1-0.1-0.1-0.1-0.1-0.2c0.1,0,0.1-0.1,0.2-0.1l0-0.1c-0.3-0.3-0.5-0.5-0.5-0.5c0.3-0.1,0.4-0.3,0.4-0.5
		c-0.1-0.1-0.1-0.1-0.1-0.2c0.1-0.3,0.2-0.4,0.2-0.4c0,0.1,0.1,0.1,0.2,0.2h0.1c0-0.1,0.1-0.2,0.3-0.2c0-0.1-0.1-0.1-0.2-0.2v0.1
		h-0.1c-0.1,0-0.1,0-0.1-0.1c0-0.1,0.1-0.1,0.2-0.1v-0.1l-0.2,0l0-0.1c0.4-0.2,0.5-0.5,0.5-1.1c0.1-0.4,0.1-0.6,0.3-0.6
		c0,0,0.1,0,0.1,0.1l0.1-0.1l0.1,0.1c0.1-0.1,0.1-0.2,0.1-0.4h0.1c0.1,0,0.1,0,0.1,0.2h0.1c0.1-0.1,0.3-0.2,0.5-0.2
		c0.1,0.1,0.2,0.2,0.3,0.2c0.1,0,0.1-0.1,0.2-0.1l-0.1-0.1l0.1-0.3c-0.2,0.1-0.3,0.1-0.5,0.2c-0.1-0.1-0.2-0.1-0.3-0.1l-0.4,0.1
		c0-0.1-0.1-0.1-0.1-0.2l-0.2,0.1h-0.1l0-0.3c0.1,0,0.2-0.2,0.3-0.7h0.1c0.1,0.2,0.2,0.4,0.3,0.6l0.3-0.1c-0.1-0.1-0.1-0.2-0.1-0.3
		l0-0.6l-0.1-0.3c0.1,0,0.1-0.1,0.1-0.1c-0.1,0-0.1,0-0.1-0.1v-0.1l0.1-0.3h0.1c0,0.1-0.1,0.1-0.1,0.2v0.1h0.1l0-0.3
		c0,0,0-0.1-0.1-0.3c0.1,0,0.2-0.1,0.3-0.2l0.1,0.2c0.2-0.1,0.3-0.2,0.3-0.2c-0.2,0-0.4-0.1-0.5-0.3c0.1-0.1,0.1-0.2,0.1-0.2l0.2,0
		l0,0.1l0.2,0l0-0.2l-0.2-0.2c0.1-0.1,0.3-0.2,0.5-0.2h0.1c0-0.1,0.1-0.2,0.4-0.4c0-0.1,0-0.1,0.1-0.1c0.1,0,0.1,0,0.1,0.1V27
		l0.2,0.1h0.1c0.1,0,0.1-0.1,0.2-0.2v-0.1l-0.3,0l0-0.1c0-0.1,0.1-0.1,0.2-0.1l-0.3-0.2c0,0,0-0.1,0.1-0.1l-0.1-0.1l0.1-0.3
		l-0.1-0.2v-0.1l0.1-0.1c-0.1,0-0.1,0-0.1-0.1c0.1-0.2,0.1-0.2,0.2-0.2l-0.1-0.3l0-0.2L436.5,23.9z M428.4,43.2l0.1,0l0-0.1
		C428.4,43.1,428.4,43.1,428.4,43.2z M428.5,42.8c0,0.2,0.1,0.3,0.2,0.3h0.1c0.7-0.2,1-0.3,1-0.4C429.2,42.8,428.8,42.8,428.5,42.8z
		 M428.6,43.4l0,0.3c0.4,0,0.7,0,0.8,0h0.1v-0.1C428.9,43.6,428.6,43.5,428.6,43.4L428.6,43.4z M429,42.1v0.2h0.1L429,42.1L429,42.1
		z M429.2,41.1v0.1c0.1,0,0.1,0,0.1,0.1c0.1-0.1,0.3-0.1,0.5-0.1c0.2,0.2,0.3,0.2,0.5,0.2c0-0.1,0-0.2,0.2-0.3l-0.1-0.1
		c0.1-0.2,0.1-0.3,0.1-0.4l-0.4,0C429.9,40.9,429.6,41,429.2,41.1z M429.4,42.2L429.4,42.2l0.1,0.1v-0.1H429.4z M430.6,41.2
		l-0.1,0.1v0.1l0.8-0.1v-0.1C431.3,41.2,431,41.2,430.6,41.2z M431,37.5c0,0.3-0.1,0.5-0.4,0.7l0,0.1h0.1c0.1,0,0.1-0.1,0.2-0.1
		l0.1,0.1l0.1-0.1l0.2,0.1c0.1-0.1,0.1-0.3,0.2-0.4C431.2,37.7,431.1,37.5,431,37.5z M430.7,39.5v0.1c0.1,0.2,0.2,0.3,0.4,0.3
		c0-0.1,0.1-0.1,0.1-0.1l0,0.1l0.9-0.1c0.1,0,0.1,0,0.1-0.1v-0.1c-0.8,0-1.2-0.1-1.2-0.1v-0.1L430.7,39.5z M431.5,37.1v0.1l0.1,0
		c0.3-0.1,0.5-0.2,0.5-0.2l0-0.2c-0.1,0-0.1,0-0.1-0.1C431.7,36.9,431.5,37,431.5,37.1z M431.6,37.8V38c0,0,0.1,0,0.2,0.1
		c0.6-0.1,0.9-0.3,0.9-0.3v-0.1l-0.7,0.1L431.6,37.8z M432.3,34.9V35l0.1,0c0.1,0,0.1,0,0.1-0.1L432.3,34.9z M432.3,35.7
		c0,0.2,0.1,0.3,0.2,0.3h0.1c0.7-0.2,1-0.3,1-0.4C433,35.7,432.5,35.8,432.3,35.7z M432.4,36.3l0,0.3c0.4-0.1,0.7,0,0.8,0h0.1v-0.1
		C432.7,36.5,432.4,36.4,432.4,36.3L432.4,36.3z M432.4,33.5l0,0.1h0.1L432.4,33.5L432.4,33.5z M433.2,37.6l-0.3-0.1
		c0,0.1,0,0.2-0.1,0.2c0.1,0.1,0.1,0.2,0.1,0.3l0.4-0.1l0.2,0c0,0,0.1,0,0.1,0.1c0.3-0.1,0.4-0.2,0.4-0.2c0-0.2-0.1-0.3-0.2-0.5
		C433.6,37.5,433.4,37.6,433.2,37.6z M432.9,32.3h0.2v-0.1H433C432.9,32.2,432.9,32.2,432.9,32.3z M433,32.6L433,32.6
		c0,0.1,0.1,0.2,0.1,0.2c0.1,0,0.1,0,0.1-0.1v-0.1C433.1,32.6,433,32.6,433,32.6z M433,39l0,0.1c0.1,0,0.1-0.1,0.1-0.1L433,39z
		 M433.1,34.7c0.1,0,0.3,0,0.8,0.1l0.1,0c0,0-0.2-0.1-0.5-0.3l-0.1,0C433.2,34.5,433.2,34.5,433.1,34.7z M433.9,32.9
		c0,0.2-0.3,0.4-0.8,0.8v0.1l0.1,0.1c0.1,0,0.1-0.1,0.2-0.1l0.1,0.1c0.2,0,0.3-0.1,0.3-0.4h0.1c0.1,0,0.1,0,0.1,0.1
		c-0.1,0-0.1,0-0.1,0.1c0.5,0,0.8,0,0.9,0v-0.1c-0.4-0.1-0.7-0.3-0.8-0.7L433.9,32.9z M435.1,34.5l-0.3-0.1
		c-0.2,0.1-0.3,0.2-0.3,0.2c0,0.2-0.1,0.4-0.4,0.6c0.1,0,0.1,0.1,0.2,0.1v0.1l-0.4,0.1c0-0.1,0-0.1-0.1-0.1c-0.1,0-0.1,0.1-0.1,0.2
		c0,0.1,0.1,0.2,0.1,0.2c0.1,0,0.1-0.1,0.2-0.1c0,0.1-0.1,0.1-0.2,0.1l0,0.2c0.1,0,0.3-0.1,0.6-0.4l-0.1-0.1l0-0.1
		c0.2,0.3,0.4,0.5,0.6,0.5v-0.1c0-0.1,0-0.3,0.1-0.3c0-0.1-0.2-0.2-0.5-0.3v-0.2c0.3-0.2,0.5-0.4,0.5-0.4L435.1,34.5l0.1,0.1
		c0.1,0,0.1,0,0.1,0.1l-0.1,0.1c0.2,0.1,0.3,0.1,0.4,0.1c0.1-0.1,0.2-0.3,0.3-0.6l-0.1,0c-0.1,0-0.1,0.1-0.2,0.1
		c-0.1-0.1-0.2-0.2-0.2-0.3h-0.1C435.3,34.1,435.2,34.2,435.1,34.5z M433.7,38.2c0,0.1,0,0.2,0,0.2c0.1,0.2,0.2,0.3,0.2,0.3
		c0,0,0-0.2,0.1-0.5l-0.1-0.1H433.7z M433.8,30.2h0.1v0.2C433.8,30.4,433.8,30.3,433.8,30.2L433.8,30.2z M434,36.4l-0.1,0.1l0.4,0.1
		v-0.1C434.3,36.5,434.2,36.4,434,36.4z M434.2,32.7L434.2,32.7l0.5,0l0.6,0.4h0.1c0-0.1,0.1-0.2,0.2-0.2l-0.1-0.2
		c0-0.1,0.1-0.1,0.1-0.2c-0.4,0-0.7-0.1-0.7-0.1c0.1,0,0.1-0.1,0.2-0.2l0-0.1c0-0.1-0.1-0.1-0.2-0.2l-0.2,0L434.2,32.7z M434.3,28.8
		l0,0.1c0,0.1,0.1,0.1,0.2,0.2v-0.1l-0.1-0.3C434.4,28.7,434.3,28.8,434.3,28.8z M434.5,30.8c0,0.1,0.1,0.1,0.2,0.2
		c0.1,0,0.1-0.1,0.1-0.1c-0.1,0-0.1,0-0.1-0.2l-0.1,0C434.5,30.7,434.5,30.7,434.5,30.8z M434.7,30.2l0.1,0.1c0,0.1,0,0.1,0,0.2h0.2
		c0-0.1,0-0.2,0.1-0.3l-0.1-0.1h-0.1L434.7,30.2z M434.7,29c0.2,0.3,0.5,0.5,0.8,0.5c0.1-0.4,0.1-0.6,0.1-0.7c-0.1,0-0.1,0-0.1-0.1
		C435.2,28.8,435,28.9,434.7,29z M435,39.1c0.1,0,0.1,0,0.1,0.1v0.1c0,0.1-0.1,0.1-0.3,0.2l-0.1-0.1C434.8,39.3,434.9,39.2,435,39.1
		z M436.9,30.5c0,0.1-0.1,0.1-0.2,0.2l-0.9,0h-0.1l-0.3,0.2l0.1,0.1l0,0.1l-0.1,0.2l0.1,0.3l0.8-0.1l0-0.3c0-0.1,0.2-0.2,0.5-0.2
		l0.1,0l0,0.2c0.1-0.1,0.2-0.2,0.3-0.2c0-0.1-0.1-0.1-0.1-0.1l0.1-0.3L436.9,30.5z M435.3,33.7l0.2,0l0.5-0.4l-0.1,0
		c-0.1,0-0.1,0.1-0.2,0.1c0-0.1-0.1-0.1-0.1-0.2h-0.1C435.5,33.2,435.4,33.3,435.3,33.7z M435.4,30.3L435.4,30.3l0.1,0.1v-0.2
		C435.5,30.1,435.4,30.2,435.4,30.3z M436.6,27.5c0,0.1,0,0.1-0.1,0.1l-0.1-0.1c-0.2,0-0.4,0.1-0.5,0.3l-0.1,0l-0.2-0.1
		c0,0.2-0.1,0.3-0.2,0.3l0.1,0.3l0,0.2l0.2,0c0-0.3,0-0.6,0.1-0.6c0.2,0.1,0.3,0.2,0.3,0.3h-0.1l-0.1-0.1l0,0.1
		c0.2,0.2,0.3,0.3,0.3,0.3c-0.1,0-0.2,0.2-0.4,0.5l-0.1,0v0.1h0.1l0.4-0.1c0,0.1,0.1,0.1,0.1,0.1h0.1c-0.1-0.1-0.1-0.2-0.1-0.3
		c0.1,0,0.1-0.1,0.2-0.4l-0.3-0.3l0.5-0.3c0.1,0,0.1,0,0.1,0.1c0,0-0.1,0-0.1,0.1c0.1,0,0.1,0,0.1,0.1c0.2-0.1,0.4-0.2,0.4-0.2
		l0-0.2c0-0.1-0.1-0.1-0.2-0.2l-0.2,0.1h-0.1L436.6,27.5z M435.8,25.6c0.1,0.3,0.2,0.5,0.3,0.6v0.1l-0.1,0l-0.3-0.2
		c0,0.3,0,0.4-0.1,0.4c-0.1,0-0.1,0-0.1-0.1c0,0,0-0.1,0.1-0.1l-0.1-0.1c0.1-0.2,0.2-0.3,0.2-0.4c0-0.1-0.1-0.1-0.1-0.2L435.8,25.6z
		 M435.5,35.4l0,0.2c0.1,0,0.1-0.1,0.1-0.1v-0.1H435.5z M435.8,29.5L435.8,29.5c0,0.1,0.1,0.2,0.1,0.2l0.1-0.1L435.8,29.5
		L435.8,29.5z M436.1,34.4L436.1,34.4l0.3,0c0-0.1,0-0.1-0.1-0.1h-0.1C436.1,34.3,436.1,34.3,436.1,34.4z M436.2,33.3
		c0,0,0.1,0,0.2,0.1l0.1-0.1l0-0.2C436.3,33.1,436.3,33.2,436.2,33.3z M436.2,32.2l0,0.3c0.3,0.1,0.5,0.2,0.5,0.3l0.1,0
		c0.1,0,0.1,0,0.1-0.1l0-0.3l-0.3,0.1h-0.1l0-0.3L436.2,32.2z M437,24.6l-0.1,0.2h-0.1l-0.1-0.1l0,0.1c0.1,0.1,0.1,0.1,0.1,0.2h0.1
		c0.1,0,0.1-0.1,0.1-0.1L437,24.6L437,24.6z M436.8,23.8h0.1v0.1h-0.1L436.8,23.8z M436.9,28.6c0,0.1,0.1,0.1,0.2,0.2v-0.2
		L436.9,28.6z M437,25.7l0,0.1h0.1L437,25.7L437,25.7z M437.1,25.8v0.1l0.1,0v-0.1L437.1,25.8z M437.2,23.7h0.2c0,0.1,0,0.1-0.1,0.1
		h-0.1V23.7z M437.3,30.7c0.1,0.1,0.1,0.2,0.1,0.3h0.1c0.1,0,0.1-0.1,0.3-0.3c0-0.3-0.1-0.4-0.1-0.4
		C437.5,30.3,437.4,30.5,437.3,30.7z M438.1,38l0,0.2c0.1,0,0.1-0.1,0.2-0.2H438.1z M438.7,28c0,0-0.1,0.2-0.3,0.4
		c0,0.1,0.1,0.1,0.1,0.1c0.1,0,0.2-0.1,0.3-0.4C438.9,28.1,438.8,28,438.7,28z M438.6,37.8h0.1l0-0.1
		C438.6,37.7,438.6,37.7,438.6,37.8z M439.3,36.1l-0.3,0.4v0.1h0.1c0.1,0,0.3-0.2,0.5-0.4L439.3,36.1z M439.8,32.7L439.8,32.7
		c0.1,0,0.2,0,0.2,0.1c-0.1,0.1-0.1,0.2-0.1,0.3l-0.1,0c-0.1,0-0.1,0-0.1-0.1C439.7,32.8,439.7,32.7,439.8,32.7z M440.1,28.6l-0.3,0
		l0,0.6l0.3,0c0-0.2,0.1-0.3,0.3-0.4v-0.1c-0.1,0-0.2-0.1-0.2-0.2L440.1,28.6z M440.1,38.5c0.1,0,0.2,0.1,0.2,0.3l-0.2,0.1h-0.1
		l-0.2-0.1C439.9,38.7,440,38.6,440.1,38.5z M440,24.9L440,24.9c0,0.1,0.1,0.2,0.3,0.2c0,0,0-0.1,0.1-0.1c0-0.1-0.1-0.1-0.1-0.2
		L440,24.9z M440.5,27.1h0.1l0.5-0.2v-0.1C440.8,26.9,440.5,27,440.5,27.1z M440.6,24.9l0,0.1l0.1,0L440.6,24.9L440.6,24.9z
		 M441,29.8l0.1,0.1c0.2-0.1,0.3-0.1,0.3-0.2l-0.1-0.1C441.2,29.8,441.1,29.8,441,29.8z M441.1,31.2L441.1,31.2L441.1,31.2l0.4,0V31
		C441.3,31.1,441.1,31.2,441.1,31.2z M441.3,31.3L441.3,31.3l0.1,0.1v-0.1H441.3z M441.6,29.8c0,0.2,0,0.3-0.2,0.4
		c0.1,0,0.1,0,0.1,0.1c0.3,0,0.6-0.2,0.8-0.4h-0.1l-0.2,0.1H442l-0.3-0.2H441.6z M441.6,29.3l0.1,0.1l0.1,0c0,0,0.2-0.2,0.4-0.6
		l-0.1-0.1C441.8,28.8,441.6,29.1,441.6,29.3z M441.9,30.9v0.2l-0.1,0v0.1c0.1,0,0.2,0,0.5,0.1c0.3-0.1,0.4-0.2,0.4-0.4l-0.1,0
		l-0.2,0.1l-0.1,0v-0.1L441.9,30.9z M442.1,34.8c0.1,0,0.1,0,0.1,0.1l-0.1,0.1c-0.1,0-0.1,0-0.1-0.1L442.1,34.8z M442.6,28.7
		C442.6,28.6,442.6,28.6,442.6,28.7L442.6,28.7l0,0.2l0.1-0.1h0.1v0.2h0.1l0-0.4C442.8,28.6,442.7,28.7,442.6,28.7z M442.5,32.7
		c0,0.1,0.1,0.1,0.2,0.2h0.1v-0.1c0-0.1-0.1-0.1-0.1-0.1L442.5,32.7z M442.9,35.7L442.9,35.7c0.1,0.1,0.1,0.1,0.1,0.3l0.4,0
		c0-0.2,0.1-0.2,0.2-0.2v-0.1l-0.3,0.1h-0.1c-0.1,0-0.1,0-0.1-0.1C443,35.6,443,35.7,442.9,35.7z M443,44.7L443,44.7l0.1,0.1v-0.1
		L443,44.7z M443.6,39.5l-0.3,0l-0.2,0.4v0.1h0.2l0.4-0.2c0,0.2,0.2,0.2,0.4,0.3l0,0.1l0.1,0c0-0.2,0.1-0.4,0.3-0.4l0.2,0l0.3-0.2
		c0.1,0,0.1,0,0.2,0l0.1-0.1v-0.2h-0.1l-0.2,0.1c-0.1,0-0.2,0-0.4-0.1c0,0,0,0.1-0.1,0.2l-0.1-0.1l-0.2,0.1l-0.2,0v-0.1l0.1-0.2
		c-0.2,0-0.4,0-0.4,0C443.9,39.2,443.8,39.3,443.6,39.5z M443.2,31.3c0,0.1,0,0.2-0.1,0.3c0,0.1,0.1,0.1,0.4,0.2
		c0-0.1,0.1-0.1,0.2-0.1c0-0.1,0-0.2-0.1-0.3c0,0-0.1,0-0.1,0.1L443.2,31.3L443.2,31.3z M443.2,36.9l0.1,0.1h0.1
		c0.1-0.1,0.2-0.1,0.2-0.1l0-0.2l-0.1,0C443.4,36.6,443.3,36.7,443.2,36.9z M443.6,30c0.1,0,0.1,0.1,0.2,0.2l-0.1,0.1l-0.2,0
		c0,0,0-0.1-0.1-0.2L443.6,30z M443.8,40.4h0.1l0-0.1C443.8,40.3,443.8,40.4,443.8,40.4z M444.1,35.4L444.1,35.4
		c-0.2,0-0.3,0.1-0.3,0.4h0.1l0.3-0.1c0.1,0.3,0.2,0.4,0.3,0.4h0.1c0-0.1,0.1-0.2,0.3-0.5v-0.1c-0.1-0.2-0.2-0.3-0.3-0.3L444.1,35.4
		z M443.8,38.5L443.8,38.5c0,0.1,0.1,0.2,0.1,0.2h0.2c0-0.1,0-0.1,0.1-0.2c0,0-0.1,0-0.1-0.1C444,38.5,443.9,38.5,443.8,38.5z
		 M444,39.4l0,0.2c-0.1,0-0.1,0-0.1-0.1L444,39.4z M444.6,41c0,0.1-0.1,0.2-0.3,0.2v0.1c0.3,0,0.5,0.1,0.6,0.1l0.3-0.2l0.1,0.1
		c0,0,0.1,0,0.1-0.1l0.3,0l0.2,0l0-0.1c0-0.1-0.1-0.1-0.2-0.2c-0.1,0-0.2,0.1-0.2,0.1c0-0.1,0-0.1-0.1-0.1c0,0.1-0.1,0.1-0.2,0.2
		l-0.1,0C445,41.1,444.8,41,444.6,41z M444.3,43.4h0.1v-0.1C444.3,43.3,444.3,43.4,444.3,43.4z M444.4,46.7v0.1l0.1,0v-0.1
		L444.4,46.7z M444.7,40.6c0,0.1-0.1,0.2-0.2,0.2c0,0.1,0.1,0.1,0.2,0.2h0.1c0.1,0,0.1-0.1,0.1-0.1v-0.1
		C444.8,40.7,444.8,40.6,444.7,40.6z M444.6,43c0,0.1,0,0.2-0.1,0.4l0.3,0.1c0-0.1,0-0.2,0.1-0.2C444.7,43.1,444.7,43,444.6,43z
		 M444.8,42.4l0,0.1c0,0.1,0.1,0.1,0.1,0.1c0.1-0.1,0.2-0.2,0.3-0.2c-0.1-0.2-0.1-0.3-0.1-0.3C444.9,42.3,444.8,42.4,444.8,42.4z
		 M444.8,43.6l0,0.2l0.1,0v-0.1C444.9,43.6,444.9,43.6,444.8,43.6z M444.9,34.7L444.9,34.7l0.1,0.1h-0.1V34.7z M445.6,44.4
		L445.6,44.4l0.1,0.1v-0.1H445.6z M446.7,44.1L446.7,44.1l0.1,0.1l-0.1,0V44.1z M448.1,46.4c0.2,0.1,0.4,0.2,0.4,0.2v0.1
		c0,0.1-0.1,0.1-0.2,0.1l-0.4-0.1v-0.1C448,46.5,448,46.4,448.1,46.4z"/>
	<path class="st17" d="M456.7,26c0.3,0.3,0.5,0.6,0.7,0.9c0,0.3-0.1,0.4-0.2,0.5l0.1,0.1c-0.1,0.1-0.1,0.2-0.1,0.3
		c0,0,0.1,0,0.1,0.1l-0.4,0.2c-0.1,0-0.1-0.1-0.2-0.1l-0.5,0.3l0.2,0.2l0.3-0.1h0.3c0.1,0,0.1,0,0.1,0.1c0,0-0.1,0-0.1,0.1
		c0,0,0.1,0,0.2,0.1l0.3-0.1c0.1,0,0.1,0,0.1,0.1v0.1c0,0.1,0,0.1-0.1,0.1l-0.3-0.1l0.1,0.1V29c-0.1,0-0.2,0.1-0.4,0.3
		c0,0.1,0.1,0.2,0.3,0.3h0.1l0.1-0.1l0.1,0.1c0,0-0.1,0-0.1,0.1c0.1,0,0.1,0,0.1,0.1v0.1c-0.1,0.2-0.4,0.4-0.9,0.4v0.1
		c0.2,0,0.4,0.1,0.6,0.4l0.3-0.1l0.1,0.2c0,0.2-0.1,0.3-0.2,0.3v0.1c0,0.2,0.1,0.4,0.2,0.4c-0.1,0.2-0.1,0.2-0.2,0.3l-0.1-0.1
		c-0.1,0-0.1,0.1-0.2,0.1c0,0,0-0.1-0.1-0.1c0,0.1-0.1,0.2-0.4,0.3c0.5,0.3,0.7,0.5,0.8,0.5v0.1c-0.3,0-0.4,0.2-0.4,0.5
		c0,0,0.1,0,0.1,0.1l-0.2,0.1c0,0.1,0.1,0.3,0.3,0.4v0.2l-0.1,0.1l0.4-0.1h0.1v0.1c0,0.1-0.1,0.1-0.1,0.2h0.1
		c0.1-0.2,0.3-0.4,0.5-0.4c0.2,0.3,0.4,0.4,0.4,0.5c0.1,0,0.2-0.1,0.5-0.3h0.3v-0.1c0.2,0.1,0.4,0.1,0.5,0.1l0.4-0.3h0.2l0.2,0.3
		c0,0,0.2-0.1,0.4-0.4c0.2,0.1,0.3,0.2,0.3,0.4c0.1-0.1,0.3-0.2,0.5-0.3c0.1,0.1,0.2,0.2,0.2,0.3c-0.1,0-0.1,0-0.1,0.1
		c0,0.1,0.1,0.1,0.1,0.2h-0.1c0,0-0.1,0-0.1-0.1c-0.2,0.1-0.3,0.1-0.5,0.3l-0.2-0.1l-0.2,0.1h-0.3v0.1h0.1l0.3-0.1
		c0,0.1,0.1,0.1,0.2,0.2h0.1c0-0.1,0.2-0.2,0.6-0.4c0.1-0.1,0.1-0.2,0.2-0.2l0.1,0.1c0-0.1,0.1-0.1,0.2-0.2h0.1c0,0,0.1,0,0.1,0.1
		c0.1,0,0.1-0.1,0.2-0.1l-0.1-0.3v-0.1h0.1c0,0,0.1,0,0.1,0.1l0.5-0.1l0.3,0.2l-0.2,0.3c0,0.1,0.1,0.1,0.1,0.2l-0.1,0.2l0.1,0.1
		c0.1,0,0.1,0,0.1-0.1c0,0-0.1,0-0.1-0.1c0.2-0.1,0.5-0.2,0.7-0.3c0.1-0.1,0.3-0.2,0.4-0.4c0.3-0.1,0.4-0.1,0.5-0.1l0.1,0.1
		l-0.1,0.3c0.2-0.1,0.3-0.2,0.3-0.4c0-0.1,0.1-0.1,0.2-0.2c0.1,0,0.1,0.1,0.1,0.2c0.1,0,0.1,0,0.1-0.1c0,0-0.1,0-0.1-0.1
		c0.1,0,0.3-0.1,0.6-0.1c0.1,0,0.1,0.1,0.2,0.1v0.1c-0.1,0.3-0.2,0.4-0.2,0.4h-0.1l-0.3-0.1l0.1,0.1v0.1c-0.1,0.2-0.2,0.3-0.2,0.3
		l0.1,0.1h0.1c0-0.1,0-0.2,0.1-0.2c0.1,0,0.1,0.1,0.2,0.2v0.3h0.2l0.2-0.1l0.3,0.1c0,0,0-0.1,0.1-0.1c0.1,0.1,0.2,0.2,0.2,0.3
		l-0.1,0.1c0,0.1,0.1,0.1,0.1,0.2c0,0.1,0,0.1-0.1,0.1s-0.1-0.1-0.1-0.2l-0.2,0.2l-0.3-0.1c-0.1,0-0.2,0.1-0.3,0.4l0.2,0.2v0.2h0.2
		v0.3c0,0.1,0,0.1-0.1,0.1c0,0.2,0.1,0.3,0.1,0.3c0.2-0.1,0.4-0.2,0.4-0.2l0.3,0.4v0.1c-0.2,0.3-0.3,0.4-0.3,0.4h-0.1
		c-0.1-0.1-0.2-0.1-0.2-0.1c-0.1,0-0.2,0.2-0.4,0.6c-0.2,0.1-0.4,0.2-0.6,0.3c-0.1,0.2-0.1,0.3-0.2,0.3h-0.2l-0.2-0.1l-0.2,0.6h-0.2
		c-0.1,0-0.1-0.1-0.2-0.2c0.1-0.2,0.1-0.2,0.2-0.3l-0.1-0.4v-0.1c0.5-0.4,0.7-0.6,0.7-0.6c0-0.1-0.1-0.1-0.1-0.2h-0.1
		c0,0.1-0.2,0.3-0.6,0.5c0,0.1,0,0.1-0.1,0.1c0,0,0-0.1-0.1-0.1l0.1-0.1v-0.1l-0.2-0.3v-0.1l0.2-0.2c-0.1,0-0.1,0-0.2-0.1
		c0,0.2-0.1,0.4-0.2,0.4h-0.1l-0.3-0.1c0,0.1-0.2,0.2-0.5,0.3c0,0.4,0.2,0.5,0.5,0.6v0.1c0,0-0.1,0.1-0.3,0.2l-0.2-0.2l-0.2,0.2
		l-0.1-0.1l-0.1,0.1c0,0-0.1,0-0.2-0.1c-0.3,0.1-0.4,0.1-0.5,0.1c-0.1,0-0.1-0.1-0.2-0.1c0,0.1,0,0.2-0.1,0.2l-0.1-0.1v-0.1
		c0.2-0.1,0.3-0.3,0.4-0.7v-0.1h-0.2c-0.1,0.1-0.4,0.3-0.7,0.5c0,0.1,0,0.1-0.1,0.2c0,0.1,0.1,0.1,0.1,0.2l-0.1,0.1
		c-0.1,0-0.1-0.1-0.2-0.1l-0.1,0.2c0.1,0,0.1,0.1,0.2,0.2v0.1l-0.4-0.2h-0.1c-0.1,0-0.1,0-0.2,0.1c-0.2-0.1-0.4-0.2-0.5-0.2l0.1,0.1
		c-0.1,0.2-0.1,0.3-0.3,0.3l-0.1-0.1c-0.1,0-0.1,0.1-0.2,0.1c0-0.1-0.1-0.1-0.2-0.2h-0.1c0,0.1-0.1,0.2-0.2,0.3l-0.1-0.2
		c0-0.3,0.2-0.4,0.7-0.5c0-0.1,0-0.1,0.1-0.1l0.1,0.1l-0.1,0.1v0.1h0.3c0-0.1,0-0.3,0.1-0.4c-0.1-0.1-0.2-0.1-0.2-0.2l0.1-0.1h-0.1
		l-0.2,0.3h-0.1l-0.2-0.1h-0.2c-0.2,0.3-0.5,0.5-0.9,0.7c-0.1,0-0.1-0.1-0.2-0.2v-0.1c0-0.1,0-0.1,0.1-0.1c-0.1-0.2-0.2-0.4-0.2-0.5
		c-0.1,0.1-0.2,0.4-0.4,0.9h-0.1l-0.1-0.1c0,0.1,0,0.1-0.1,0.2c0,0.1,0.1,0.1,0.1,0.2c0,0-0.2,0.1-0.4,0.2c0-0.1,0-0.1-0.1-0.1
		c-0.1,0-0.1,0.1-0.3,0.3l0.1,0.1c0.1,0,0.2-0.1,0.4-0.2l0.5,0.5v0.2h-0.2v0.1l0.1,0.2V40c0,0-0.1,0-0.1-0.1c-0.2,0-0.4,0.2-0.5,0.5
		c0.3,0.1,0.4,0.2,0.5,0.3c0,0.1,0,0.1-0.1,0.1l0.1,0.1V41c0,0.1,0,0.1-0.1,0.1c-0.1-0.2-0.2-0.3-0.4-0.3h-0.1l0.1,0.2l-0.1,0.3
		c0,0.1,0.1,0.2,0.3,0.3c0-0.1,0.1-0.1,0.2-0.2c0.1,0,0.2,0.1,0.2,0.3c-0.1,0.2-0.3,0.3-0.4,0.3c0-0.1,0-0.1-0.1-0.1
		c0,0.2,0,0.3-0.1,0.4l0.2,0.2v0.2c-0.1,0.2-0.2,0.3-0.2,0.3l-0.4-0.1v0.1l0.2,0.3c-0.1,0-0.1,0.1-0.2,0.2c0,0,0.1,0.1,0.3,0.1
		c0-0.1,0-0.1,0.1-0.1h0.1c0.1,0,0.1,0,0.1,0.1c0,0.1-0.1,0.2-0.3,0.2c0,0.1,0.1,0.1,0.3,0.1v0.2c0,0.1,0,0.1-0.1,0.1
		c-0.1-0.1-0.2-0.2-0.2-0.3h-0.1c0,0.2-0.2,0.3-0.5,0.3v0.1c0,0.1,0,0.1,0.1,0.1c0.1,0,0.1-0.1,0.2-0.1c0,0.1,0.1,0.2,0.2,0.2v0.1
		c0,0.1-0.1,0.1-0.2,0.2l-0.2-0.1h-0.1l0.1,0.1c-0.2,0.2-0.5,0.4-0.7,0.4l-0.1-0.1v-0.1c0-0.1,0.1-0.1,0.2-0.2h0.3
		c0-0.1,0-0.1,0.1-0.2c-0.1,0-0.1-0.1-0.1-0.4c-0.1,0-0.1,0-0.1,0.1l-0.5-0.1l-0.1,0.2c0.1,0,0.1,0,0.1,0.1l-0.1,0.1
		c0-0.1-0.1-0.2-0.4-0.3l-0.1,0.1h-0.1c-0.1,0-0.1,0-0.1-0.1c0,0,0.1-0.2,0.4-0.4c0,0,0,0.1,0.1,0.1l0.3-0.3V43
		c-0.2,0-0.3,0-0.3-0.1l-0.1,0.1l-0.1-0.1l-0.3,0.1c-0.1-0.2-0.2-0.5-0.2-0.9V42c-0.1,0-0.2,0-0.2-0.1v-0.2c0,0,0.1-0.1,0.3-0.3
		l-0.2-0.4v-0.1c0.2-0.2,0.4-0.4,0.5-0.4v-0.2c-0.2,0-0.3,0-0.3-0.1v-0.1c0,0,0-0.1,0.1-0.1c-0.1-0.1-0.1-0.2-0.1-0.3l0.2-0.1
		l-0.1-0.1v-0.1h0.3l-0.2-0.3v-0.1l0.2-0.4l-0.1-0.1l-0.2,0.1l0.1,0.1v0.1h-0.2c-0.1,0-0.1-0.2-0.2-0.6c0,0-0.1,0-0.1-0.1
		c0,0,0.1,0,0.1-0.1h-0.1l-0.3,0.2c-0.1-0.1-0.2-0.1-0.4-0.1v0.1h-0.1l-0.1-0.1l0.1-0.1v-0.1h-0.1c-0.2,0.1-0.3,0.2-0.3,0.3h-0.1
		c0-0.2,0.2-0.5,0.7-0.7l0.2,0.1c0,0,0.1-0.1,0.2-0.4c0,0-0.1,0-0.1-0.1l-0.1,0.1c-0.2-0.1-0.3-0.2-0.3-0.3h-0.1
		c-0.1,0-0.2,0.2-0.3,0.5c-0.1,0.1-0.3,0.2-0.4,0.2l0.1,0.1c0,0.1-0.1,0.2-0.3,0.3h-0.2l-0.3-0.1c0,0.1,0,0.1-0.1,0.1l-0.1-0.2
		c0-0.1,0.1-0.1,0.3-0.2c0-0.1-0.1-0.2-0.2-0.4c0-0.1,0.1-0.1,0.1-0.2l-0.1-0.1h-0.1c0,0.3-0.1,0.5-0.2,0.5c0,0,0,0.1,0.1,0.1
		l-0.1,0.3c0,0.1,0.1,0.2,0.3,0.2v0.2c-0.1,0-0.1,0-0.2,0.1c-0.3-0.2-0.5-0.4-0.5-0.7c-0.1,0-0.1,0.1-0.2,0.1l0.1,0.1v0.2l-0.1,0.2
		v0.1c0.1,0,0.2,0,0.2,0.1v0.1h-0.2v-0.1H451c0,0,0,0.1-0.1,0.2c0,0.1,0.1,0.1,0.1,0.2l-0.1,0.1c-0.3,0-0.5-0.1-0.6-0.2
		c0-0.2,0.1-0.4,0.2-0.4h0.1l0.3,0.1c0-0.1,0.1-0.2,0.2-0.4c-0.1-0.2-0.2-0.4-0.4-0.5c0,0.1-0.2,0.3-0.5,0.4c-0.2,0-0.3-0.1-0.4-0.2
		v-0.1c0,0,0-0.2,0.1-0.4v-0.2c-0.3,0-0.5-0.2-0.6-0.7c-0.2-0.5-0.3-0.8-0.3-0.8c0.2-0.3,0.4-0.5,0.6-0.7c0-0.1,0.3-0.4,0.8-0.6h0.1
		v0.3c0,0,0.2,0,0.6-0.1l0.2,0.1h0.1c0-0.2,0.1-0.3,0.2-0.3h0.2c0-0.1,0-0.1,0.1-0.1l0.2,0.1h0.1c0-0.2,0.3-0.3,0.8-0.5v0.1h-0.1
		v0.1c0.2,0,0.4-0.1,0.6-0.3l0.1,0.2l-0.2,0.2c0.1,0,0.2,0.1,0.5,0.3l0.1-0.1c-0.1,0-0.2-0.1-0.2-0.2v-0.1l0.5-0.5
		c0,0,0.1,0.1,0.3,0.3h0.1l-0.1-0.3c0-0.1,0-0.1,0.1-0.1h0.1c0.2,0.1,0.3,0.2,0.3,0.3h0.1c0.1,0,0.1,0,0.1-0.1l-0.1-0.3h-0.1v0.1
		h-0.1v-0.1c0-0.1,0.2-0.2,0.5-0.4v-0.2c0-0.1-0.1-0.1-0.2-0.2l-0.2,0.1l-0.2-0.3v-0.1l0.3-0.5l-0.1-0.4v-0.1c0-0.1,0.1-0.2,0.4-0.3
		c0-0.1,0.1-0.1,0.2-0.1v-0.1l-0.3,0.1h-0.2c-0.1,0-0.1,0-0.1-0.1V31l0.3-0.5c-0.1-0.1-0.1-0.2-0.1-0.3l0.1-0.1
		c-0.1-0.1-0.1-0.2-0.1-0.3l0.3-0.2l-0.1-0.1c0-0.1,0.1-0.1,0.2-0.1l-0.5-0.3c0-0.3,0.1-0.5,0.1-0.5l-0.1-0.1v-0.2
		c0-0.1,0.1-0.3,0.2-0.6c-0.1,0-0.1,0-0.1-0.1v-0.1c0.2-0.4,0.5-0.7,0.9-0.7l-0.1-0.3C456.2,26.2,456.6,26,456.7,26z M450.5,37.6
		c0,0.1,0,0.1,0.1,0.1h0.1l0.1-0.3h-0.1C450.6,37.5,450.5,37.5,450.5,37.6z M451,38.1v0.1h0.1L451,38.1L451,38.1z M451.2,37.4h0.1
		v-0.1C451.2,37.3,451.2,37.4,451.2,37.4z M451.3,43.2L451.3,43.2l0.1,0.1h-0.2C451.2,43.2,451.3,43.2,451.3,43.2z M452.3,36.6
		l0.2,0.3c-0.1,0.1-0.2,0.1-0.2,0.2c0,0.1,0.1,0.1,0.1,0.2c-0.1,0-0.1,0-0.1,0.1l-0.1-0.1H452l0.1,0.3h0.2c0-0.1,0.1-0.1,0.4-0.2
		c0.1-0.1,0.1-0.2,0.1-0.3c-0.1,0-0.1,0-0.1-0.1l0.1-0.2l-0.1-0.3C452.4,36.5,452.3,36.6,452.3,36.6z M453.3,36.2h0.1V36
		C453.3,36.1,453.3,36.1,453.3,36.2z M453.9,37.9L453.9,37.9l0.1,0.2c0,0.1-0.1,0.1-0.1,0.2h0.2v-0.1l-0.1-0.3H453.9z M454.5,38.7
		c0,0.1,0,0.1,0.1,0.1c0,0,0-0.1,0.1-0.1c0,0.1,0,0.1,0.1,0.1h0.1l0.3-0.3c0.1,0,0.1,0.1,0.2,0.1l0.1-0.2v-0.2h-0.1
		C455,38.3,454.7,38.4,454.5,38.7z M454.5,43.2h0.1v0.1L454.5,43.2L454.5,43.2z M454.6,42.1v0.2c0.1,0,0.3,0.1,0.4,0.2h0.1
		c0-0.1,0-0.1,0.1-0.1c0-0.1-0.1-0.1-0.3-0.3V42h-0.1C454.7,42,454.6,42,454.6,42.1z M454.7,39.3v0.2c0.1-0.1,0.2-0.2,0.3-0.2v-0.1
		H455C454.9,39.3,454.8,39.3,454.7,39.3z M455,44.7c0,0.1,0.1,0.1,0.1,0.2l0.1-0.1h0.2v0.1c0,0.1-0.1,0.1-0.2,0.2h-0.1l-0.1-0.1
		c0,0,0,0.1-0.1,0.1l-0.1-0.2v-0.1C454.9,44.7,454.9,44.7,455,44.7z M454.9,44.4L454.9,44.4l0.1,0.1h-0.1V44.4z M455,30.1L455,30.1
		l0.1,0.1v-0.1H455z M455.4,44.9L455.4,44.9c0.1,0.1,0.1,0.2,0.3,0.3v0.3c0,0.1,0,0.1-0.1,0.1h-0.1c-0.1,0-0.2-0.2-0.3-0.5
		L455.4,44.9z M455.2,39.3l0.2,0.2h0.1v-0.1c-0.1-0.1-0.1-0.2-0.1-0.3h-0.1C455.3,39.2,455.2,39.3,455.2,39.3z M455.2,43L455.2,43
		l0.2,0.1V43H455.2z M455.5,43.1c0,0.1,0,0.1-0.1,0.1c0,0.1,0.1,0.1,0.1,0.2h0.1c0.1,0,0.1,0,0.1-0.1v-0.1
		C455.6,43.1,455.5,43.1,455.5,43.1z M456.1,42.3L456.1,42.3c0.2-0.1,0.3-0.2,0.3-0.2v-0.1h-0.1C456.2,42.1,456.1,42.2,456.1,42.3z
		 M456.3,32.9c0,0,0,0.1-0.1,0.2l0.1,0.1l0.1-0.1C456.4,32.9,456.3,32.9,456.3,32.9z M456.3,30v0.1h0.1C456.4,30,456.3,30,456.3,30z
		 M456.3,42.6L456.3,42.6l0.1,0.2c0.1-0.1,0.2-0.1,0.2-0.2H456.3z M456.7,33.7v0.1c0.1,0.1,0.1,0.2,0.1,0.4c0.1,0,0.2-0.1,0.2-0.1
		l-0.1-0.3c0,0,0.1,0,0.1-0.1C456.9,33.7,456.8,33.7,456.7,33.7z M457.2,32.2h0.2v0.1c0,0.1,0,0.1-0.1,0.1h-0.1V32.2z M457.4,34.2
		L457.4,34.2c0.1,0.2,0.2,0.3,0.2,0.4h0.2c0-0.2,0-0.3,0.1-0.3c0,0.1,0,0.1,0.1,0.1h0.1l-0.2-0.3l-0.1,0.1L457.4,34.2z M457.7,37
		c0,0.1,0,0.1-0.1,0.2l0.1,0.3h0.1c0-0.2,0.1-0.3,0.2-0.4L457.7,37L457.7,37z M458.9,36.8c-0.4,0.3-0.6,0.5-0.7,0.5v0.3h0.1
		c0.1,0,0.1-0.1,0.2-0.1c0,0.1,0,0.1,0.1,0.1c0-0.1,0-0.2,0.1-0.2h0.1l0.3,0.1c0-0.1,0-0.1,0.1-0.1c0-0.1-0.1-0.1-0.1-0.2l0.1-0.1
		c0-0.1-0.1-0.1-0.1-0.2c0,0,0.1,0,0.1-0.1C459.1,36.8,459,36.8,458.9,36.8z M458.8,35.3l0.2,0.2c-0.1,0-0.1,0-0.1,0.1h0.1
		c0.1,0,0.2-0.1,0.5-0.2c0,0.1,0.1,0.1,0.2,0.2h0.1c0.1-0.1,0.2-0.1,0.3-0.1v-0.2c-0.1,0-0.2,0-0.3-0.1h-0.1l-0.2,0.1h-0.3
		c-0.1,0-0.1,0-0.1-0.1C458.9,35.3,458.9,35.3,458.8,35.3z M459.5,34.2c0,0.1,0.1,0.1,0.1,0.2c0.2,0,0.3-0.1,0.3-0.2h0.2l0.4,0.3
		h0.1v-0.1c-0.2,0-0.3,0-0.3-0.1c0-0.1,0.1-0.1,0.1-0.2c-0.1,0-0.2-0.1-0.2-0.1c-0.1,0-0.1,0.1-0.2,0.1l-0.2-0.1
		C459.6,33.9,459.6,34,459.5,34.2z M459.6,36.4L459.6,36.4c0,0.1,0,0.2,0.1,0.2l-0.2,0.3c0,0.2,0.1,0.3,0.2,0.3h0.1
		c0-0.1,0-0.2,0.1-0.4l-0.1-0.1c0-0.1,0.2-0.3,0.5-0.5c0-0.1-0.1-0.1-0.2-0.2H460c-0.1,0.2-0.2,0.4-0.3,0.4L459.6,36.4z M459.6,37.1
		v0.2h0.2C459.8,37.2,459.8,37.2,459.6,37.1L459.6,37.1z M460.5,37.4c-0.1,0.2-0.2,0.4-0.4,0.4v0.1c0,0,0.1,0.1,0.3,0.2
		c0.1-0.1,0.2-0.2,0.3-0.3C460.6,37.5,460.6,37.4,460.5,37.4z M461.4,37.8h0.1V38c0,0.1-0.1,0.1-0.2,0.2c-0.1,0-0.1-0.1-0.2-0.2
		C461.1,38,461.2,37.9,461.4,37.8z M461.2,36.9V37c0.1,0,0.2,0,0.3,0.1h0.1c0.1,0,0.1-0.1,0.2-0.2l-0.2-0.1
		C461.3,36.9,461.2,36.9,461.2,36.9z M461.6,34.8c0,0,0.1,0,0.2,0.1c0.1-0.1,0.4-0.1,0.7-0.2v-0.1c-0.1,0-0.2,0-0.2-0.1l-0.1,0.1
		l-0.1-0.1C461.9,34.6,461.7,34.6,461.6,34.8z M461.6,37.6L461.6,37.6l0.1,0.1h-0.1V37.6z M461.7,35.7v0.2h0.1c0,0,0-0.1,0.1-0.2
		L461.7,35.7z M462.4,37.6v0.1h0.1L462.4,37.6L462.4,37.6z M462.6,41.6h0.1v0.1L462.6,41.6L462.6,41.6z M462.7,33.5v0.1
		c0.1,0,0.1,0,0.1-0.1H462.7z M463.8,33.4h0.2v0.1c0,0-0.1,0.1-0.4,0.2h-0.1c-0.1,0-0.1,0-0.1-0.1c0-0.1,0-0.1,0.1-0.1
		c0.1,0,0.1,0.1,0.2,0.1C463.6,33.5,463.7,33.4,463.8,33.4z M463.7,37.8c0,0.1,0.1,0.2,0.1,0.5c-0.1,0.1-0.1,0.2-0.2,0.2l-0.2-0.3
		v-0.3C463.4,37.9,463.5,37.8,463.7,37.8z M464,36.6c0.1,0,0.3-0.1,0.5-0.2h0.2c0.1,0,0.1,0,0.1,0.1l-0.1,0.2v0.1
		c0.2,0,0.4,0.1,0.4,0.2l-0.1,0.1l0.2,0.1l-0.1,0.1v0.1c0.1,0,0.2,0,0.3,0.1l0.1-0.1l-0.2-0.2c0,0,0-0.1,0.1-0.1
		c-0.1-0.1-0.1-0.3-0.1-0.4v-0.1c-0.2,0-0.3-0.1-0.4-0.3h-0.1C464.3,36.2,464,36.4,464,36.6z M464.1,33.3h0.1v0.1L464.1,33.3
		L464.1,33.3z M464.2,33.8V34h0.1c0.1,0,0.1-0.1,0.2-0.2l-0.1-0.1C464.3,33.8,464.2,33.8,464.2,33.8z M464.5,34.5v0.3
		c0,0.1,0,0.1,0.1,0.1c0.1-0.1,0.2-0.2,0.3-0.2v-0.1C464.8,34.5,464.7,34.5,464.5,34.5z M465.4,34.1l-0.2,0.4h0.1l0.2-0.1
		c0.1,0.1,0.1,0.2,0.2,0.2c0.1-0.1,0.2-0.2,0.3-0.2v-0.1c0,0-0.1,0-0.2-0.1c-0.1,0-0.1,0.1-0.2,0.1
		C465.6,34.3,465.5,34.2,465.4,34.1z M466.6,33.4l-0.1,0.1l0.1,0.3c-0.1,0-0.1,0.1-0.2,0.1l-0.1-0.1c-0.1,0-0.1,0.1-0.2,0.1
		l-0.3-0.4v-0.1h0.1l0.2,0.1C466.3,33.5,466.5,33.4,466.6,33.4z M465.9,36.6v0.1c0.1,0,0.1-0.1,0.2-0.2v-0.1H466
		C466,36.5,465.9,36.5,465.9,36.6z M466.9,34.8L466.9,34.8c0.1,0,0.2,0,0.2,0.1v0.1c0,0,0,0.1-0.1,0.1l0.1,0.1
		c0,0.1-0.1,0.1-0.1,0.2c0.1,0,0.1,0,0.1,0.1v0.2c0,0.1,0,0.1-0.1,0.1h-0.2l-0.2-0.3v0.1c0,0.2,0.1,0.3,0.1,0.4l-0.2,0.2h-0.1
		l-0.1-0.1l0.1-0.1v-0.1c0,0-0.1,0-0.2-0.1c0-0.2,0.1-0.3,0.1-0.3c-0.1-0.1-0.1-0.2-0.1-0.3l0.1-0.1c0.1,0.1,0.2,0.1,0.3,0.1
		C466.7,34.9,466.8,34.8,466.9,34.8z M466.6,33.5h0.1v0.1L466.6,33.5L466.6,33.5z"/>
	<path class="st17" d="M476.2,26c0.3,0.3,0.5,0.6,0.7,0.9c0,0.3-0.1,0.4-0.2,0.5l0.1,0.1c-0.1,0.1-0.1,0.2-0.1,0.3
		c0,0,0.1,0,0.1,0.1l-0.4,0.2c-0.1,0-0.1-0.1-0.2-0.1l-0.5,0.3l0.2,0.2l0.3-0.1h0.3c0.1,0,0.1,0,0.1,0.1c0,0-0.1,0-0.1,0.1
		c0,0,0.1,0,0.2,0.1l0.3-0.1c0.1,0,0.1,0,0.1,0.1v0.1c0,0.1,0,0.1-0.1,0.1l-0.3-0.1l0.1,0.1V29c-0.1,0-0.2,0.1-0.4,0.3
		c0,0.1,0.1,0.2,0.3,0.3h0.1l0.1-0.1l0.1,0.1c0,0-0.1,0-0.1,0.1c0.1,0,0.1,0,0.1,0.1v0.1c-0.1,0.2-0.4,0.4-0.9,0.4v0.1
		c0.2,0,0.4,0.1,0.6,0.4l0.3-0.1l0.1,0.2c0,0.2-0.1,0.3-0.2,0.3v0.1c0,0.2,0.1,0.4,0.2,0.4c-0.1,0.2-0.1,0.2-0.2,0.3l-0.1-0.1
		c-0.1,0-0.1,0.1-0.2,0.1c0,0,0-0.1-0.1-0.1c0,0.1-0.1,0.2-0.4,0.3c0.5,0.3,0.7,0.5,0.8,0.5v0.1c-0.3,0-0.4,0.2-0.4,0.5
		c0,0,0.1,0,0.1,0.1l-0.2,0.1c0,0.1,0.1,0.3,0.3,0.4v0.2l-0.1,0.1l0.4-0.1h0.1v0.1c0,0.1-0.1,0.1-0.1,0.2h0.1
		c0.1-0.2,0.3-0.4,0.5-0.4c0.2,0.3,0.4,0.4,0.4,0.5c0.1,0,0.2-0.1,0.5-0.3h0.3v-0.1c0.2,0.1,0.4,0.1,0.5,0.1l0.4-0.3h0.2l0.2,0.3
		c0,0,0.2-0.1,0.4-0.4c0.2,0.1,0.3,0.2,0.3,0.4c0.1-0.1,0.3-0.2,0.5-0.3c0.1,0.1,0.2,0.2,0.2,0.3c-0.1,0-0.1,0-0.1,0.1
		c0,0.1,0.1,0.1,0.1,0.2H481c0,0-0.1,0-0.1-0.1c-0.2,0.1-0.3,0.1-0.5,0.3l-0.2-0.1l-0.2,0.1h-0.3v0.1h0.1l0.3-0.1
		c0,0.1,0.1,0.1,0.2,0.2h0.1c0-0.1,0.2-0.2,0.6-0.4c0.1-0.1,0.1-0.2,0.2-0.2l0.1,0.1c0-0.1,0.1-0.1,0.2-0.2h0.1c0,0,0.1,0,0.1,0.1
		c0.1,0,0.1-0.1,0.2-0.1l-0.1-0.3v-0.1h0.1c0,0,0.1,0,0.1,0.1l0.5-0.1l0.3,0.2l-0.2,0.3c0,0.1,0.1,0.1,0.1,0.2l-0.1,0.2l0.1,0.1
		c0.1,0,0.1,0,0.1-0.1c0,0-0.1,0-0.1-0.1c0.2-0.1,0.5-0.2,0.7-0.3c0.1-0.1,0.3-0.2,0.4-0.4c0.3-0.1,0.4-0.1,0.5-0.1l0.1,0.1
		l-0.1,0.3c0.2-0.1,0.3-0.2,0.3-0.4c0-0.1,0.1-0.1,0.2-0.2c0.1,0,0.1,0.1,0.1,0.2c0.1,0,0.1,0,0.1-0.1c0,0-0.1,0-0.1-0.1
		c0.1,0,0.3-0.1,0.6-0.1c0.1,0,0.1,0.1,0.2,0.1v0.1c-0.1,0.3-0.2,0.4-0.2,0.4h-0.1l-0.3-0.1l0.1,0.1v0.1c-0.1,0.2-0.2,0.3-0.2,0.3
		l0.1,0.1h0.1c0-0.1,0-0.2,0.1-0.2c0.1,0,0.1,0.1,0.2,0.2v0.3h0.2l0.2-0.1l0.3,0.1c0,0,0-0.1,0.1-0.1c0.1,0.1,0.2,0.2,0.2,0.3
		l-0.1,0.1c0,0.1,0.1,0.1,0.1,0.2c0,0.1,0,0.1-0.1,0.1s-0.1-0.1-0.1-0.2l-0.2,0.2l-0.3-0.1c-0.1,0-0.2,0.1-0.3,0.4l0.2,0.2v0.2h0.2
		v0.3c0,0.1,0,0.1-0.1,0.1c0,0.2,0.1,0.3,0.1,0.3c0.2-0.1,0.4-0.2,0.4-0.2l0.3,0.4v0.1c-0.2,0.3-0.3,0.4-0.3,0.4h-0.1
		c-0.1-0.1-0.2-0.1-0.2-0.1c-0.1,0-0.2,0.2-0.4,0.6c-0.2,0.1-0.4,0.2-0.6,0.3c-0.1,0.2-0.1,0.3-0.2,0.3h-0.2l-0.2-0.1l-0.2,0.6h-0.2
		c-0.1,0-0.1-0.1-0.2-0.2c0.1-0.2,0.1-0.2,0.2-0.3l-0.1-0.4v-0.1c0.5-0.4,0.7-0.6,0.7-0.6c0-0.1-0.1-0.1-0.1-0.2h-0.1
		c0,0.1-0.2,0.3-0.6,0.5c0,0.1,0,0.1-0.1,0.1c0,0,0-0.1-0.1-0.1l0.1-0.1v-0.1l-0.2-0.3v-0.1l0.2-0.2c-0.1,0-0.1,0-0.2-0.1
		c0,0.2-0.1,0.4-0.2,0.4h-0.1l-0.3-0.1c0,0.1-0.2,0.2-0.5,0.3c0,0.4,0.2,0.5,0.5,0.6v0.1c0,0-0.1,0.1-0.3,0.2l-0.2-0.2l-0.2,0.2
		L482,38l-0.1,0.1c0,0-0.1,0-0.2-0.1c-0.3,0.1-0.4,0.1-0.5,0.1c-0.1,0-0.1-0.1-0.2-0.1c0,0.1,0,0.2-0.1,0.2l-0.1-0.1v-0.1
		c0.2-0.1,0.3-0.3,0.4-0.7v-0.1h-0.2c-0.1,0.1-0.4,0.3-0.7,0.5c0,0.1,0,0.1-0.1,0.2c0,0.1,0.1,0.1,0.1,0.2l-0.1,0.1
		c-0.1,0-0.1-0.1-0.2-0.1l-0.1,0.2c0.1,0,0.1,0.1,0.2,0.2v0.1l-0.4-0.2h-0.1c-0.1,0-0.1,0-0.2,0.1c-0.2-0.1-0.4-0.2-0.5-0.2l0.1,0.1
		c-0.1,0.2-0.1,0.3-0.3,0.3l-0.1-0.1c-0.1,0-0.1,0.1-0.2,0.1c0-0.1-0.1-0.1-0.2-0.2h-0.1c0,0.1-0.1,0.2-0.2,0.3l-0.1-0.2
		c0-0.3,0.2-0.4,0.7-0.5c0-0.1,0-0.1,0.1-0.1l0.1,0.1l-0.1,0.1v0.1h0.3c0-0.1,0-0.3,0.1-0.4c-0.1-0.1-0.2-0.1-0.2-0.2l0.1-0.1h-0.1
		l-0.2,0.3h-0.1l-0.2-0.1h-0.2c-0.2,0.3-0.5,0.5-0.9,0.7c-0.1,0-0.1-0.1-0.2-0.2v-0.1c0-0.1,0-0.1,0.1-0.1c-0.1-0.2-0.2-0.4-0.2-0.5
		c-0.1,0.1-0.2,0.4-0.4,0.9h-0.1l-0.1-0.1c0,0.1,0,0.1-0.1,0.2c0,0.1,0.1,0.1,0.1,0.2c0,0-0.2,0.1-0.4,0.2c0-0.1,0-0.1-0.1-0.1
		c-0.1,0-0.1,0.1-0.3,0.3l0.1,0.1c0.1,0,0.2-0.1,0.4-0.2l0.5,0.5v0.2h-0.2v0.1l0.1,0.2V40c0,0-0.1,0-0.1-0.1c-0.2,0-0.4,0.2-0.5,0.5
		c0.3,0.1,0.4,0.2,0.5,0.3c0,0.1,0,0.1-0.1,0.1l0.1,0.1V41c0,0.1,0,0.1-0.1,0.1c-0.1-0.2-0.2-0.3-0.4-0.3H476l0.1,0.2l-0.1,0.3
		c0,0.1,0.1,0.2,0.3,0.3c0-0.1,0.1-0.1,0.2-0.2c0.1,0,0.2,0.1,0.2,0.3c-0.1,0.2-0.3,0.3-0.4,0.3c0-0.1,0-0.1-0.1-0.1
		c0,0.2,0,0.3-0.1,0.4l0.2,0.2v0.2c-0.1,0.2-0.2,0.3-0.2,0.3l-0.4-0.1v0.1l0.2,0.3c-0.1,0-0.1,0.1-0.2,0.2c0,0,0.1,0.1,0.3,0.1
		c0-0.1,0-0.1,0.1-0.1h0.1c0.1,0,0.1,0,0.1,0.1c0,0.1-0.1,0.2-0.3,0.2c0,0.1,0.1,0.1,0.3,0.1v0.2c0,0.1,0,0.1-0.1,0.1
		c-0.1-0.1-0.2-0.2-0.2-0.3h-0.1c0,0.2-0.2,0.3-0.5,0.3v0.1c0,0.1,0,0.1,0.1,0.1c0.1,0,0.1-0.1,0.2-0.1c0,0.1,0.1,0.2,0.2,0.2v0.1
		c0,0.1-0.1,0.1-0.2,0.2l-0.2-0.1h-0.1l0.1,0.1c-0.2,0.2-0.5,0.4-0.7,0.4l-0.1-0.1v-0.1c0-0.1,0.1-0.1,0.2-0.2h0.3
		c0-0.1,0-0.1,0.1-0.2c-0.1,0-0.1-0.1-0.1-0.4c-0.1,0-0.1,0-0.1,0.1l-0.5-0.1l-0.1,0.2c0.1,0,0.1,0,0.1,0.1l-0.1,0.1
		c0-0.1-0.1-0.2-0.4-0.3l-0.1,0.1H474c-0.1,0-0.1,0-0.1-0.1c0,0,0.1-0.2,0.4-0.4c0,0,0,0.1,0.1,0.1l0.3-0.3V43c-0.2,0-0.3,0-0.3-0.1
		l-0.1,0.1l-0.1-0.1l-0.3,0.1c-0.1-0.2-0.2-0.5-0.2-0.9V42c-0.1,0-0.2,0-0.2-0.1v-0.2c0,0,0.1-0.1,0.3-0.3l-0.2-0.4v-0.1
		c0.2-0.2,0.4-0.4,0.5-0.4v-0.2c-0.2,0-0.3,0-0.3-0.1v-0.1c0,0,0-0.1,0.1-0.1c-0.1-0.1-0.1-0.2-0.1-0.3l0.2-0.1l-0.1-0.1v-0.1h0.3
		l-0.2-0.3v-0.1l0.2-0.4l-0.1-0.1l-0.2,0.1l0.1,0.1v0.1h-0.2c-0.1,0-0.1-0.2-0.2-0.6c0,0-0.1,0-0.1-0.1c0,0,0.1,0,0.1-0.1h-0.1
		l-0.3,0.2c-0.1-0.1-0.2-0.1-0.4-0.1v0.1h-0.1l-0.1-0.1l0.1-0.1v-0.1h-0.1c-0.2,0.1-0.3,0.2-0.3,0.3h-0.1c0-0.2,0.2-0.5,0.7-0.7
		l0.2,0.1c0,0,0.1-0.1,0.2-0.4c0,0-0.1,0-0.1-0.1l-0.1,0.1c-0.2-0.1-0.3-0.2-0.3-0.3h-0.1c-0.1,0-0.2,0.2-0.3,0.5
		c-0.1,0.1-0.3,0.2-0.4,0.2l0.1,0.1c0,0.1-0.1,0.2-0.3,0.3h-0.2l-0.3-0.1c0,0.1,0,0.1-0.1,0.1l-0.1-0.2c0-0.1,0.1-0.1,0.3-0.2
		c0-0.1-0.1-0.2-0.2-0.4c0-0.1,0.1-0.1,0.1-0.2l-0.1-0.1h-0.1c0,0.3-0.1,0.5-0.2,0.5c0,0,0,0.1,0.1,0.1l-0.1,0.3
		c0,0.1,0.1,0.2,0.3,0.2v0.2c-0.1,0-0.1,0-0.2,0.1c-0.3-0.2-0.5-0.4-0.5-0.7c-0.1,0-0.1,0.1-0.2,0.1l0.1,0.1v0.2l-0.1,0.2v0.1
		c0.1,0,0.2,0,0.2,0.1v0.1h-0.2v-0.1h-0.1c0,0,0,0.1-0.1,0.2c0,0.1,0.1,0.1,0.1,0.2l-0.1,0.1c-0.3,0-0.5-0.1-0.6-0.2
		c0-0.2,0.1-0.4,0.2-0.4h0.1l0.3,0.1c0-0.1,0.1-0.2,0.2-0.4c-0.1-0.2-0.2-0.4-0.4-0.5c0,0.1-0.2,0.3-0.5,0.4c-0.2,0-0.3-0.1-0.4-0.2
		v-0.1c0,0,0-0.2,0.1-0.4v-0.2c-0.3,0-0.5-0.2-0.6-0.7c-0.2-0.5-0.3-0.8-0.3-0.8c0.2-0.3,0.4-0.5,0.6-0.7c0-0.1,0.3-0.4,0.8-0.6h0.1
		v0.3c0,0,0.2,0,0.6-0.1l0.2,0.1h0.1c0-0.2,0.1-0.3,0.2-0.3h0.2c0-0.1,0-0.1,0.1-0.1l0.2,0.1h0.1c0-0.2,0.3-0.3,0.8-0.5v0.1H472v0.1
		c0.2,0,0.4-0.1,0.6-0.3l0.1,0.2l-0.2,0.2c0.1,0,0.2,0.1,0.5,0.3l0.1-0.1c-0.1,0-0.2-0.1-0.2-0.2v-0.1l0.5-0.5c0,0,0.1,0.1,0.3,0.3
		h0.1l-0.1-0.3c0-0.1,0-0.1,0.1-0.1h0.1c0.2,0.1,0.3,0.2,0.3,0.3h0.1c0.1,0,0.1,0,0.1-0.1l-0.1-0.3h-0.1v0.1H474v-0.1
		c0-0.1,0.2-0.2,0.5-0.4v-0.2c0-0.1-0.1-0.1-0.2-0.2l-0.2,0.1l-0.2-0.3v-0.1l0.3-0.5l-0.1-0.4v-0.1c0-0.1,0.1-0.2,0.4-0.3
		c0-0.1,0.1-0.1,0.2-0.1v-0.1l-0.3,0.1h-0.2c-0.1,0-0.1,0-0.1-0.1V31l0.3-0.5c-0.1-0.1-0.1-0.2-0.1-0.3l0.1-0.1
		c-0.1-0.1-0.1-0.2-0.1-0.3l0.3-0.2l-0.1-0.1c0-0.1,0.1-0.1,0.2-0.1l-0.5-0.3c0-0.3,0.1-0.5,0.1-0.5l-0.1-0.1v-0.2
		c0-0.1,0.1-0.3,0.2-0.6c-0.1,0-0.1,0-0.1-0.1v-0.1c0.2-0.4,0.5-0.7,0.9-0.7l-0.1-0.3C475.7,26.2,476,26,476.2,26z M469.9,37.6
		c0,0.1,0,0.1,0.1,0.1h0.1l0.1-0.3h-0.1C470,37.5,470,37.5,469.9,37.6z M470.5,38.1v0.1h0.1L470.5,38.1L470.5,38.1z M470.6,37.4h0.1
		v-0.1C470.7,37.3,470.6,37.4,470.6,37.4z M470.8,43.2L470.8,43.2l0.1,0.1h-0.2C470.7,43.2,470.7,43.2,470.8,43.2z M471.8,36.6
		l0.2,0.3c-0.1,0.1-0.2,0.1-0.2,0.2c0,0.1,0.1,0.1,0.1,0.2c-0.1,0-0.1,0-0.1,0.1l-0.1-0.1h-0.2l0.1,0.3h0.2c0-0.1,0.1-0.1,0.4-0.2
		c0.1-0.1,0.1-0.2,0.1-0.3c-0.1,0-0.1,0-0.1-0.1l0.1-0.2l-0.1-0.3C471.8,36.5,471.8,36.6,471.8,36.6z M472.7,36.2h0.1V36
		C472.8,36.1,472.7,36.1,472.7,36.2z M473.3,37.9L473.3,37.9l0.1,0.2c0,0.1-0.1,0.1-0.1,0.2h0.2v-0.1l-0.1-0.3H473.3z M473.9,38.7
		c0,0.1,0,0.1,0.1,0.1c0,0,0-0.1,0.1-0.1c0,0.1,0,0.1,0.1,0.1h0.1l0.3-0.3c0.1,0,0.1,0.1,0.2,0.1l0.1-0.2v-0.2h-0.1
		C474.4,38.3,474.1,38.4,473.9,38.7z M474,43.2h0.1v0.1L474,43.2L474,43.2z M474.1,42.1v0.2c0.1,0,0.3,0.1,0.4,0.2h0.1
		c0-0.1,0-0.1,0.1-0.1c0-0.1-0.1-0.1-0.3-0.3V42h-0.1C474.1,42,474.1,42,474.1,42.1z M474.2,39.3v0.2c0.1-0.1,0.2-0.2,0.3-0.2v-0.1
		h-0.1C474.4,39.3,474.3,39.3,474.2,39.3z M474.4,44.7c0,0.1,0.1,0.1,0.1,0.2l0.1-0.1h0.2v0.1c0,0.1-0.1,0.1-0.2,0.2h-0.1l-0.1-0.1
		c0,0,0,0.1-0.1,0.1l-0.1-0.2v-0.1C474.3,44.7,474.4,44.7,474.4,44.7z M474.4,44.4L474.4,44.4l0.1,0.1h-0.1V44.4z M474.4,30.1
		L474.4,30.1l0.1,0.1v-0.1H474.4z M474.8,44.9L474.8,44.9c0.1,0.1,0.1,0.2,0.3,0.3v0.3c0,0.1,0,0.1-0.1,0.1h-0.1
		c-0.1,0-0.2-0.2-0.3-0.5L474.8,44.9z M474.7,39.3l0.2,0.2h0.1v-0.1c-0.1-0.1-0.1-0.2-0.1-0.3h-0.1
		C474.7,39.2,474.7,39.3,474.7,39.3z M474.7,43L474.7,43l0.2,0.1V43H474.7z M474.9,43.1c0,0.1,0,0.1-0.1,0.1c0,0.1,0.1,0.1,0.1,0.2
		h0.1c0.1,0,0.1,0,0.1-0.1v-0.1C475,43.1,475,43.1,474.9,43.1z M475.5,42.3L475.5,42.3c0.2-0.1,0.3-0.2,0.3-0.2v-0.1h-0.1
		C475.7,42.1,475.6,42.2,475.5,42.3z M475.7,32.9c0,0,0,0.1-0.1,0.2l0.1,0.1l0.1-0.1C475.8,32.9,475.8,32.9,475.7,32.9z M475.7,30
		v0.1h0.1C475.8,30,475.8,30,475.7,30z M475.8,42.6L475.8,42.6l0.1,0.2c0.1-0.1,0.2-0.1,0.2-0.2H475.8z M476.1,33.7v0.1
		c0.1,0.1,0.1,0.2,0.1,0.4c0.1,0,0.2-0.1,0.2-0.1l-0.1-0.3c0,0,0.1,0,0.1-0.1C476.3,33.7,476.2,33.7,476.1,33.7z M476.6,32.2h0.2
		v0.1c0,0.1,0,0.1-0.1,0.1h-0.1V32.2z M476.8,34.2L476.8,34.2c0.1,0.2,0.2,0.3,0.2,0.4h0.2c0-0.2,0-0.3,0.1-0.3c0,0.1,0,0.1,0.1,0.1
		h0.1l-0.2-0.3l-0.1,0.1L476.8,34.2z M477.2,37c0,0.1,0,0.1-0.1,0.2l0.1,0.3h0.1c0-0.2,0.1-0.3,0.2-0.4L477.2,37L477.2,37z
		 M478.4,36.8c-0.4,0.3-0.6,0.5-0.7,0.5v0.3h0.1c0.1,0,0.1-0.1,0.2-0.1c0,0.1,0,0.1,0.1,0.1c0-0.1,0-0.2,0.1-0.2h0.1l0.3,0.1
		c0-0.1,0-0.1,0.1-0.1c0-0.1-0.1-0.1-0.1-0.2l0.1-0.1c0-0.1-0.1-0.1-0.1-0.2c0,0,0.1,0,0.1-0.1C478.5,36.8,478.5,36.8,478.4,36.8z
		 M478.3,35.3l0.2,0.2c-0.1,0-0.1,0-0.1,0.1h0.1c0.1,0,0.2-0.1,0.5-0.2c0,0.1,0.1,0.1,0.2,0.2h0.1c0.1-0.1,0.2-0.1,0.3-0.1v-0.2
		c-0.1,0-0.2,0-0.3-0.1h-0.1l-0.2,0.1h-0.3c-0.1,0-0.1,0-0.1-0.1C478.4,35.3,478.3,35.3,478.3,35.3z M478.9,34.2
		c0,0.1,0.1,0.1,0.1,0.2c0.2,0,0.3-0.1,0.3-0.2h0.2l0.4,0.3h0.1v-0.1c-0.2,0-0.3,0-0.3-0.1c0-0.1,0.1-0.1,0.1-0.2
		c-0.1,0-0.2-0.1-0.2-0.1c-0.1,0-0.1,0.1-0.2,0.1l-0.2-0.1C479.1,33.9,479,34,478.9,34.2z M479.1,36.4L479.1,36.4
		c0,0.1,0,0.2,0.1,0.2l-0.2,0.3c0,0.2,0.1,0.3,0.2,0.3h0.1c0-0.1,0-0.2,0.1-0.4l-0.1-0.1c0-0.1,0.2-0.3,0.5-0.5
		c0-0.1-0.1-0.1-0.2-0.2h-0.2c-0.1,0.2-0.2,0.4-0.3,0.4L479.1,36.4z M479.1,37.1v0.2h0.2C479.3,37.2,479.2,37.2,479.1,37.1
		L479.1,37.1z M479.9,37.4c-0.1,0.2-0.2,0.4-0.4,0.4v0.1c0,0,0.1,0.1,0.3,0.2c0.1-0.1,0.2-0.2,0.3-0.3C480,37.5,480,37.4,479.9,37.4
		z M480.8,37.8h0.1V38c0,0.1-0.1,0.1-0.2,0.2c-0.1,0-0.1-0.1-0.2-0.2C480.5,38,480.6,37.9,480.8,37.8z M480.6,36.9V37
		c0.1,0,0.2,0,0.3,0.1h0.1c0.1,0,0.1-0.1,0.2-0.2l-0.2-0.1C480.7,36.9,480.6,36.9,480.6,36.9z M481.1,34.8c0,0,0.1,0,0.2,0.1
		c0.1-0.1,0.4-0.1,0.7-0.2v-0.1c-0.1,0-0.2,0-0.2-0.1l-0.1,0.1l-0.1-0.1C481.3,34.6,481.2,34.6,481.1,34.8z M481.1,37.6L481.1,37.6
		l0.1,0.1h-0.1V37.6z M481.2,35.7v0.2h0.1c0,0,0-0.1,0.1-0.2L481.2,35.7z M481.9,37.6v0.1h0.1L481.9,37.6L481.9,37.6z M482,41.6h0.1
		v0.1L482,41.6L482,41.6z M482.1,33.5v0.1c0.1,0,0.1,0,0.1-0.1H482.1z M483.2,33.4h0.2v0.1c0,0-0.1,0.1-0.4,0.2h-0.1
		c-0.1,0-0.1,0-0.1-0.1c0-0.1,0-0.1,0.1-0.1c0.1,0,0.1,0.1,0.2,0.1C483.1,33.5,483.1,33.4,483.2,33.4z M483.1,37.8
		c0,0.1,0.1,0.2,0.1,0.5c-0.1,0.1-0.1,0.2-0.2,0.2l-0.2-0.3v-0.3C482.9,37.9,482.9,37.8,483.1,37.8z M483.4,36.6
		c0.1,0,0.3-0.1,0.5-0.2h0.2c0.1,0,0.1,0,0.1,0.1l-0.1,0.2v0.1c0.2,0,0.4,0.1,0.4,0.2l-0.1,0.1l0.2,0.1l-0.1,0.1v0.1
		c0.1,0,0.2,0,0.3,0.1l0.1-0.1l-0.2-0.2c0,0,0-0.1,0.1-0.1c-0.1-0.1-0.1-0.3-0.1-0.4v-0.1c-0.2,0-0.3-0.1-0.4-0.3h-0.1
		C483.7,36.2,483.5,36.4,483.4,36.6z M483.6,33.3h0.1v0.1L483.6,33.3L483.6,33.3z M483.6,33.8V34h0.1c0.1,0,0.1-0.1,0.2-0.2
		l-0.1-0.1C483.7,33.8,483.7,33.8,483.6,33.8z M484,34.5v0.3c0,0.1,0,0.1,0.1,0.1c0.1-0.1,0.2-0.2,0.3-0.2v-0.1
		C484.2,34.5,484.1,34.5,484,34.5z M484.8,34.1l-0.2,0.4h0.1l0.2-0.1c0.1,0.1,0.1,0.2,0.2,0.2c0.1-0.1,0.2-0.2,0.3-0.2v-0.1
		c0,0-0.1,0-0.2-0.1c-0.1,0-0.1,0.1-0.2,0.1C485,34.3,484.9,34.2,484.8,34.1z M486.1,33.4l-0.1,0.1l0.1,0.3c-0.1,0-0.1,0.1-0.2,0.1
		l-0.1-0.1c-0.1,0-0.1,0.1-0.2,0.1l-0.3-0.4v-0.1h0.1l0.2,0.1C485.7,33.5,485.9,33.4,486.1,33.4z M485.4,36.6v0.1
		c0.1,0,0.1-0.1,0.2-0.2v-0.1h-0.1C485.4,36.5,485.4,36.5,485.4,36.6z M486.3,34.8L486.3,34.8c0.1,0,0.2,0,0.2,0.1v0.1
		c0,0,0,0.1-0.1,0.1l0.1,0.1c0,0.1-0.1,0.1-0.1,0.2c0.1,0,0.1,0,0.1,0.1v0.2c0,0.1,0,0.1-0.1,0.1h-0.2l-0.2-0.3v0.1
		c0,0.2,0.1,0.3,0.1,0.4l-0.2,0.2h-0.1l-0.1-0.1l0.1-0.1v-0.1c0,0-0.1,0-0.2-0.1c0-0.2,0.1-0.3,0.1-0.3c-0.1-0.1-0.1-0.2-0.1-0.3
		l0.1-0.1c0.1,0.1,0.2,0.1,0.3,0.1C486.1,34.9,486.2,34.8,486.3,34.8z M486.1,33.5h0.1v0.1L486.1,33.5L486.1,33.5z"/>
</g>
</svg>
