<?xml version="1.0" encoding="utf-8"?>
<!-- Generator: Adobe Illustrator 22.0.1, SVG Export Plug-In . SVG Version: 6.00 Build 0)  -->
<svg version="1.1" id="Layer_1" xmlns="http://www.w3.org/2000/svg" xmlns:xlink="http://www.w3.org/1999/xlink" x="0px" y="0px"
	 viewBox="0 0 728 90" style="enable-background:new 0 0 728 90;" xml:space="preserve">
<style type="text/css">
	.st0{fill:#0E4C87;}
	.st1{clip-path:url(#SVGID_2_);fill:#FFFFFF;}
	.st2{clip-path:url(#SVGID_4_);fill:url(#SVGID_5_);}
	.st3{clip-path:url(#SVGID_7_);fill:url(#SVGID_8_);}
	.st4{clip-path:url(#SVGID_10_);fill:url(#SVGID_11_);}
</style>
<path class="st0" d="M621.8,57.7V61h-5.9v16h-3.7V61h-5.9v-3.3H621.8z M623.4,77h3.7v-9.6v-9.6h-3.7v9.6V77z M646.4,77h-3.8l-2-4.7
	h-6.5l-2,4.7h-3.7l8.2-19.5h1.6L646.4,77z M664.5,77h-3.8l-2-4.7h-6.5l-2,4.7h-3.7l8.2-19.5h1.6L664.5,77z M639.3,69.1l-2-4.8
	l-2,4.8H639.3z M657.4,69.1l-2-4.8l-2,4.8H657.4z"/>
<g>
	<defs>
		<rect id="SVGID_1_" x="576" y="53.1" width="90.6" height="30.5"/>
	</defs>
	<clipPath id="SVGID_2_">
		<use xlink:href="#SVGID_1_"  style="overflow:visible;"/>
	</clipPath>
	<path class="st1" d="M592.8,78.2c1.7,0,3.1-0.7,4.2-1.8l4.6-4.6c1.1-1.1,1.7-2.5,1.7-4.1V53.5h-14.2c-1.7,0-3.1,0.7-4.2,1.8
		l-4.6,4.6c-1.1,1.1-1.7,2.5-1.7,4.1v14.2H592.8z"/>
</g>
<g>
	<defs>
		<path id="SVGID_3_" d="M590.8,54.8c-2.6,0-4.7,2.1-4.7,4.7V61h9.7v9.7h1.6c2.6,0,4.7-2.1,4.7-4.7V54.8H590.8z"/>
	</defs>
	<clipPath id="SVGID_4_">
		<use xlink:href="#SVGID_3_"  style="overflow:visible;"/>
	</clipPath>
	
		<linearGradient id="SVGID_5_" gradientUnits="userSpaceOnUse" x1="1" y1="91.0901" x2="2" y2="91.0901" gradientTransform="matrix(11.0988 -11.0988 -11.0988 -11.0988 1590.8779 1087.953)">
		<stop  offset="0" style="stop-color:#9EDDF9"/>
		<stop  offset="0.1" style="stop-color:#9EDDF9"/>
		<stop  offset="0.9" style="stop-color:#0B9EDA"/>
		<stop  offset="1" style="stop-color:#0B9EDA"/>
	</linearGradient>
	<polygon class="st2" points="578.1,62.7 594.1,46.8 610.1,62.7 594.1,78.7 	"/>
</g>
<g>
	<defs>
		<path id="SVGID_6_" d="M597.4,72h-12.5l-5,5h12.9c1.3,0,2.4-0.5,3.3-1.4l4.2-4.2l-0.1-0.1C599.4,71.7,598.4,72,597.4,72"/>
	</defs>
	<clipPath id="SVGID_7_">
		<use xlink:href="#SVGID_6_"  style="overflow:visible;"/>
	</clipPath>
	
		<linearGradient id="SVGID_8_" gradientUnits="userSpaceOnUse" x1="0.9511" y1="91.0489" x2="1.9511" y2="91.0489" gradientTransform="matrix(20.4625 0 0 -20.4625 560.4333 1937.194)">
		<stop  offset="0" style="stop-color:#1DB0E6"/>
		<stop  offset="0.1146" style="stop-color:#1DACE2"/>
		<stop  offset="0.2645" style="stop-color:#1BA1D7"/>
		<stop  offset="0.434" style="stop-color:#1790C7"/>
		<stop  offset="0.6179" style="stop-color:#137AB4"/>
		<stop  offset="0.8114" style="stop-color:#06619F"/>
		<stop  offset="0.9" style="stop-color:#025595"/>
		<stop  offset="1" style="stop-color:#025595"/>
	</linearGradient>
	<rect x="579.9" y="71.2" class="st3" width="20.5" height="5.7"/>
</g>
<g>
	<defs>
		<path id="SVGID_9_" d="M581.3,60.7c-0.9,0.9-1.4,2.1-1.4,3.3V77l5-5V59.4c0-1,0.3-2,0.7-2.8l-0.1-0.1L581.3,60.7z"/>
	</defs>
	<clipPath id="SVGID_10_">
		<use xlink:href="#SVGID_9_"  style="overflow:visible;"/>
	</clipPath>
	
		<linearGradient id="SVGID_11_" gradientUnits="userSpaceOnUse" x1="1.0489" y1="91.0489" x2="2.0489" y2="91.0489" gradientTransform="matrix(0 -20.4628 -20.4628 0 2445.8672 98.4186)">
		<stop  offset="0" style="stop-color:#0882BE"/>
		<stop  offset="0.22" style="stop-color:#0778B4"/>
		<stop  offset="0.6562" style="stop-color:#02609E"/>
		<stop  offset="0.85" style="stop-color:#025595"/>
		<stop  offset="1" style="stop-color:#025595"/>
	</linearGradient>
	<rect x="579.9" y="56.5" class="st4" width="5.7" height="20.5"/>
</g>
</svg>
