<?xml version="1.0" encoding="utf-8"?>
<!-- Generator: Adobe Illustrator 17.0.0, SVG Export Plug-In . SVG Version: 6.00 Build 0)  -->
<!DOCTYPE svg PUBLIC "-//W3C//DTD SVG 1.1//EN" "http://www.w3.org/Graphics/SVG/1.1/DTD/svg11.dtd">
<svg version="1.1" id="Layer_1" xmlns="http://www.w3.org/2000/svg" xmlns:xlink="http://www.w3.org/1999/xlink" x="0px" y="0px"
	 width="160px" height="600px" viewBox="0 0 160 600" enable-background="new 0 0 160 600" xml:space="preserve">
<g enable-background="new    ">
	<path fill="#231F20" d="M127.055,593.808c-0.928,0-1.734-0.647-1.734-1.847c0-1.359,0.999-2.814,2.366-3.519l0.72,0.336
		c-0.959,0.479-1.711,1.159-2.087,2.047c0.192-0.191,0.448-0.328,0.792-0.328c0.975,0,1.639,0.729,1.639,1.647
		C128.75,593.104,128.03,593.808,127.055,593.808z M127.062,591.169c-0.399,0-0.848,0.152-0.991,0.712
		c-0.008,0.088-0.008,0.176-0.008,0.264c0,0.576,0.479,1.056,1.007,1.056c0.528,0,0.943-0.408,0.943-1.016
		C128.014,591.608,127.623,591.169,127.062,591.169z"/>
</g>
<g enable-background="new    ">
	<path fill="#231F20" d="M131.207,593.815c-0.928,0-1.743-0.848-1.743-2.654c0-1.791,0.815-2.646,1.743-2.646
		c0.911,0,1.742,0.855,1.742,2.646C132.949,592.968,132.118,593.815,131.207,593.815z M131.207,589.162
		c-0.521,0-1.008,0.56-1.008,1.999c0,1.455,0.487,2.007,1.008,2.007c0.512,0,1.007-0.552,1.007-2.007
		C132.214,589.722,131.719,589.162,131.207,589.162z"/>
</g>
<g enable-background="new    ">
	<path fill="#231F20" d="M134.927,593.808c-0.392,0-0.76-0.088-0.967-0.2l-0.08-0.72c0.319,0.192,0.655,0.28,1.007,0.28
		c0.592,0,1.096-0.376,1.096-1.016c0-0.655-0.504-1.047-1.071-1.047c-0.376,0-0.64,0.048-0.88,0.136l0.08-2.623h2.23l-0.136,0.624
		h-1.399l-0.031,1.239c0.063-0.008,0.144-0.016,0.208-0.016c0.951,0,1.734,0.64,1.734,1.694
		C136.718,593.04,136.103,593.808,134.927,593.808z"/>
</g>
<g enable-background="new    ">
	<path fill="#231F20" d="M138.326,593.88l-0.72-0.336c0.976-0.488,1.735-1.151,2.104-2.047c-0.192,0.191-0.456,0.328-0.808,0.328
		c-0.976,0-1.64-0.729-1.64-1.647c0-0.96,0.72-1.663,1.695-1.663c0.928,0,1.735,0.647,1.735,1.847
		C140.693,591.721,139.693,593.176,138.326,593.88z M138.942,589.17c-0.528,0-0.943,0.408-0.943,1.016
		c0,0.576,0.392,1.016,0.951,1.016c0.407,0,0.848-0.168,0.991-0.728c0.008-0.08,0.008-0.16,0.008-0.248
		C139.949,589.65,139.47,589.17,138.942,589.17z"/>
</g>
<g enable-background="new    ">
	<path fill="#231F20" d="M143.103,593.808c-0.927,0-1.734-0.647-1.734-1.847c0-1.359,0.999-2.814,2.366-3.519l0.72,0.336
		c-0.959,0.479-1.711,1.159-2.087,2.047c0.192-0.191,0.448-0.328,0.792-0.328c0.976,0,1.639,0.729,1.639,1.647
		C144.798,593.104,144.078,593.808,143.103,593.808z M143.111,591.169c-0.4,0-0.848,0.152-0.992,0.712
		c-0.008,0.088-0.008,0.176-0.008,0.264c0,0.576,0.479,1.056,1.008,1.056c0.527,0,0.943-0.408,0.943-1.016
		C144.062,591.608,143.671,591.169,143.111,591.169z"/>
</g>
<g enable-background="new    ">
	<path fill="#231F20" d="M146.415,593.72h-0.783l1.935-4.478h-2.343v-0.624h3.382L146.415,593.72z"/>
</g>
<g enable-background="new    ">
	<path fill="#231F20" d="M151.55,593.808c-0.247-0.056-0.52-0.264-0.575-0.567c-0.168,0.424-0.552,0.567-0.968,0.567
		c-0.72,0-1.167-0.527-1.167-1.111c0-0.703,0.575-1.104,1.191-1.159l0.848-0.08v-0.231c0-0.328-0.192-0.592-0.704-0.592
		c-0.359,0-0.735,0.111-0.999,0.287l-0.145-0.6c0.328-0.216,0.744-0.312,1.184-0.312c0.808,0,1.392,0.456,1.392,1.312v1.463
		c0,0.328,0.176,0.52,0.407,0.56L151.55,593.808z M150.879,592.057l-0.696,0.063c-0.464,0.04-0.647,0.32-0.647,0.584
		c0,0.256,0.208,0.488,0.536,0.488c0.432,0,0.808-0.328,0.808-0.816V592.057z"/>
</g>
</svg>
