<?xml version="1.0" encoding="utf-8"?>
<!-- Generator: Adobe Illustrator 22.1.0, SVG Export Plug-In . SVG Version: 6.00 Build 0)  -->
<svg version="1.1" id="Layer_1" xmlns="http://www.w3.org/2000/svg" xmlns:xlink="http://www.w3.org/1999/xlink" x="0px" y="0px"
	 viewBox="0 0 160 600" style="enable-background:new 0 0 160 600;" xml:space="preserve">
<style type="text/css">
	.st0{fill:#231F20;}
</style>
<g>
	<path class="st0" d="M23.6,43.6l-1.2-3.3h-4.6l-1.2,3.3h-3.3L19,29h2.4l5.7,14.6H23.6z M20.6,34.9c-0.1-0.4-0.3-0.9-0.4-1.3h0
		c-0.1,0.5-0.3,1-0.4,1.3l-1,2.7h2.8L20.6,34.9z"/>
	<path class="st0" d="M34.8,43.6v-6.3c0-0.7-0.5-1.4-1.5-1.4c-1,0-1.6,0.6-1.6,1.5v6.3h-3.3V33.3h3.1v1.4h0c0.4-1.1,1.5-1.7,3.1-1.7
		c2.2,0,3.6,1.3,3.6,3.4v7.1H34.8z"/>
	<path class="st0" d="M48,43.6v-1.3h0c-0.6,1-1.7,1.6-3.2,1.6c-2.5,0-4.9-1.9-4.9-5.4c0-3.3,2.4-5.5,5.2-5.5c1.1,0,2.2,0.4,2.6,0.7
		v-6.3h3.2v16.1H48z M47.7,36.9c-0.3-0.4-1-0.9-2-0.9c-1.5,0-2.5,1.1-2.5,2.6c0,1.5,1,2.6,2.5,2.6c1,0,1.7-0.5,2-1.1V36.9z"/>
	<path class="st0" d="M63.1,43.9c-2.2,0-3.9-0.7-4.9-1.5V27.5h3.2v6.2c0.4-0.3,1.5-0.7,2.6-0.7c2.8,0,5.2,2,5.2,5.3
		C69.2,41.4,67.1,43.9,63.1,43.9z M63.4,35.9c-1,0-1.7,0.5-2,0.8v3.9c0.3,0.2,1,0.5,1.7,0.5c1.7,0,2.8-1.2,2.8-2.7
		C65.9,37.1,64.9,35.9,63.4,35.9z"/>
	<path class="st0" d="M76.6,42.6c-1.6,4.1-3.2,5.6-5.1,6.4l-2-2c1.7-0.6,2.9-1.8,3.8-4l-3.7-9.6h3.2l1.5,4c0.2,0.6,0.5,1.3,0.6,2h0
		c0.2-0.7,0.4-1.4,0.7-2l1.5-4h3.1L76.6,42.6z"/>
</g>
<g>
	<path class="st0" d="M19.9,65.6c-1.1,0-2.2-0.3-2.6-0.7v5.6h-3.2V55H17v1.3h0c0.6-1,1.7-1.6,3.2-1.6c2.5,0,4.9,1.9,4.9,5.4
		C25.2,63.4,22.8,65.6,19.9,65.6z M19.4,57.6c-1,0-1.7,0.5-2,1.1v3.2c0.3,0.4,1,0.9,2,0.9c1.5,0,2.5-1.1,2.5-2.6
		C21.8,58.7,20.8,57.6,19.4,57.6z"/>
	<path class="st0" d="M32,65.6c-3.1,0-5.6-2.2-5.6-5.5s2.5-5.5,5.6-5.5c3.1,0,5.6,2.2,5.6,5.5S35.1,65.6,32,65.6z M32,57.6
		c-1.2,0-2.3,1.1-2.3,2.6c0,1.5,1.1,2.6,2.3,2.6c1.2,0,2.3-1.1,2.3-2.6C34.3,58.7,33.2,57.6,32,57.6z"/>
	<path class="st0" d="M46.1,57.7h-2.7v3.8c0,0.9,0.5,1.2,1.4,1.2c0.4,0,0.6,0,0.9-0.1l-0.3,2.5c-0.3,0.2-0.9,0.3-1.5,0.3
		c-2.3,0-3.7-1.2-3.7-3.3v-4.4h-1.7V55h1.7v-2.2l3.3-1.2V55h3.3L46.1,57.7z"/>
	<path class="st0" d="M57.1,59.6l-1.5,1.5h-5c0.2,0.8,1.3,1.8,3,1.8c1.1,0,2.2-0.3,2.8-0.8l-0.3,2.9c-0.8,0.4-1.9,0.7-3.3,0.7
		c-3.1,0-5.6-2.2-5.6-5.5c0-3.3,2.4-5.4,5.4-5.4c2.9,0,4.6,2,4.6,4.1C57.1,59,57.1,59.4,57.1,59.6z M52.5,57.2c-1,0-1.8,0.7-2,1.7
		H54c0-0.1,0-0.1,0-0.2C54,57.9,53.4,57.2,52.5,57.2z"/>
	<path class="st0" d="M65.3,65.3V59c0-0.7-0.5-1.4-1.5-1.4c-1,0-1.6,0.6-1.6,1.5v6.3h-3.3V55h3.1v1.4h0c0.4-1.1,1.5-1.7,3.1-1.7
		c2.2,0,3.6,1.3,3.6,3.4v7.1H65.3z"/>
	<path class="st0" d="M77.5,57.7h-2.7v3.8c0,0.9,0.5,1.2,1.4,1.2c0.4,0,0.6,0,0.9-0.1l-0.3,2.5c-0.3,0.2-0.9,0.3-1.5,0.3
		c-2.3,0-3.7-1.2-3.7-3.3v-4.4h-1.7V55h1.7v-2.2l3.3-1.2V55h3.3L77.5,57.7z"/>
	<path class="st0" d="M81,53.6c-0.6,0-1.8-1.2-1.8-1.8S80.4,50,81,50c0.6,0,1.8,1.2,1.8,1.8S81.6,53.6,81,53.6z M79.3,65.3V55h3.4
		v10.3H79.3z"/>
	<path class="st0" d="M92.1,65.7c-0.6-0.1-1.3-0.6-1.6-1.4c-0.5,0.8-1.4,1.2-2.7,1.2c-1.8,0-3.4-1.3-3.4-3.4c0-1.9,1.5-3.2,3.5-3.4
		l2-0.2v-0.3c0-0.6-0.5-1-1.6-1c-1,0-2.1,0.3-2.9,0.8l-0.6-2.5c0.8-0.5,2.2-0.9,3.6-0.9c2.7,0,4.6,1.2,4.6,3.7v3.4
		c0,1.2,0.5,1.8,1.2,2.1L92.1,65.7z M89.9,60.8l-1.2,0.1c-0.9,0.1-1.2,0.7-1.2,1.3c0,0.5,0.4,1,1,1c0.8,0,1.5-0.6,1.5-1.5V60.8z"/>
	<path class="st0" d="M99,65.7c-2.1-0.1-3.5-1.2-3.5-3.7V49.1h3.3v12.5c0,0.8,0.5,1.3,1.4,1.4L99,65.7z"/>
	<path class="st0" d="M105,65.7c-2.1-0.1-3.5-1.2-3.5-3.7V49.1h3.3v12.5c0,0.8,0.5,1.3,1.4,1.4L105,65.7z"/>
	<path class="st0" d="M113.3,64.3c-1.6,4.1-3.2,5.6-5.1,6.4l-2-2c1.7-0.6,2.9-1.8,3.8-4l-3.7-9.6h3.2l1.5,4c0.2,0.6,0.5,1.3,0.6,2h0
		c0.2-0.7,0.4-1.4,0.7-2l1.5-4h3.1L113.3,64.3z"/>
</g>
<g>
	<path class="st0" d="M17.7,89.4c-2.1-0.1-3.5-1.2-3.5-3.7V72.8h3.3v12.5c0,0.8,0.5,1.3,1.4,1.4L17.7,89.4z"/>
	<path class="st0" d="M21.9,77.3c-0.6,0-1.8-1.2-1.8-1.8c0-0.6,1.2-1.8,1.8-1.8c0.6,0,1.8,1.2,1.8,1.8
		C23.7,76.1,22.5,77.3,21.9,77.3z M20.2,89V78.7h3.4V89H20.2z"/>
	<path class="st0" d="M38.4,89v-6.3c0-0.7-0.4-1.4-1.5-1.4c-1.1,0-1.5,0.6-1.5,1.5V89h-3.3v-6.3c0-0.7-0.4-1.4-1.5-1.4
		c-1.1,0-1.5,0.6-1.5,1.5V89h-3.3V78.7h3.1v1.4h0c0.4-1.1,1.4-1.7,3-1.7c1.5,0,2.6,0.6,3,1.7c0.4-1,1.6-1.7,3.2-1.7
		c2.3,0,3.6,1.3,3.6,3.4V89H38.4z"/>
	<path class="st0" d="M45.6,77.3c-0.6,0-1.8-1.2-1.8-1.8c0-0.6,1.2-1.8,1.8-1.8c0.6,0,1.8,1.2,1.8,1.8
		C47.4,76.1,46.2,77.3,45.6,77.3z M43.9,89V78.7h3.4V89H43.9z"/>
	<path class="st0" d="M56.3,81.4h-2.7v3.8c0,0.9,0.5,1.2,1.4,1.2c0.4,0,0.6,0,0.9-0.1l-0.3,2.5c-0.3,0.2-0.9,0.3-1.5,0.3
		c-2.3,0-3.7-1.2-3.7-3.3v-4.4h-1.7v-2.7h1.7v-2.2l3.3-1.2v3.4h3.3L56.3,81.4z"/>
	<path class="st0" d="M59.8,77.3c-0.6,0-1.8-1.2-1.8-1.8c0-0.6,1.2-1.8,1.8-1.8c0.6,0,1.8,1.2,1.8,1.8
		C61.6,76.1,60.4,77.3,59.8,77.3z M58.2,89V78.7h3.4V89H58.2z"/>
	<path class="st0" d="M70.2,89v-6.3c0-0.7-0.5-1.4-1.5-1.4c-1,0-1.6,0.6-1.6,1.5V89h-3.3V78.7h3.1v1.4h0c0.4-1.1,1.5-1.7,3.1-1.7
		c2.2,0,3.6,1.3,3.6,3.4V89H70.2z"/>
	<path class="st0" d="M80,94.2c-3,0-5-1.7-5-3.9c0-1.6,1-2.5,2.1-2.8l-1.3-1.3c0.1-0.7,0.7-1.2,1.2-1.5c-0.8-0.5-1.5-1.5-1.5-2.7
		c0-2.2,1.6-3.7,4.2-3.7c0.6,0,1.1,0.1,1.5,0.2c0.5,0.1,1,0.2,1.5,0.2c0.6,0,1.2-0.1,1.6-0.3l0.6,2.5c-0.3,0.2-0.8,0.3-1.3,0.3
		c0.1,0.2,0.2,0.7,0.2,1c0,1.7-1.4,3.2-3.4,3.3c-0.4,0-0.7,0.1-0.7,0.4c0,0.1,0.1,0.2,0.3,0.3l1.6,0.6c2,0.7,3.1,1.7,3.1,3.6
		C84.9,92.6,83,94.2,80,94.2z M80.7,89.4L79.4,89c-0.8,0-1.4,0.6-1.4,1.3c0,0.7,0.6,1.3,1.8,1.3c1.2,0,1.8-0.5,1.8-1.1
		C81.7,90,81.3,89.5,80.7,89.4z M79.8,80.8c-0.7,0-1.3,0.6-1.3,1.2c0,0.7,0.6,1.2,1.3,1.2c0.7,0,1.3-0.5,1.3-1.2
		C81.1,81.3,80.5,80.8,79.8,80.8z"/>
	<path class="st0" d="M97.7,87.9c-1.6,4.1-3.2,5.6-5.1,6.4l-2-2c1.7-0.6,2.9-1.8,3.8-4l-3.7-9.6h3.2l1.5,4c0.2,0.6,0.5,1.3,0.6,2h0
		c0.2-0.7,0.4-1.4,0.7-2l1.5-4h3.1L97.7,87.9z"/>
	<path class="st0" d="M107.1,89.3c-3.1,0-5.6-2.2-5.6-5.5s2.5-5.5,5.6-5.5c3.1,0,5.6,2.2,5.6,5.5S110.2,89.3,107.1,89.3z
		 M107.1,81.2c-1.2,0-2.3,1.1-2.3,2.6c0,1.5,1.1,2.6,2.3,2.6c1.2,0,2.3-1.1,2.3-2.6C109.4,82.3,108.4,81.2,107.1,81.2z"/>
	<path class="st0" d="M121.1,89v-1.4h0c-0.4,1.1-1.5,1.7-3.2,1.7c-2.2,0-3.6-1.2-3.6-3.4v-7.1h3.3V85c0,0.7,0.5,1.4,1.5,1.4
		c1,0,1.6-0.7,1.6-1.5v-6.2h3.3V89H121.1z"/>
	<path class="st0" d="M132.7,82.2c-0.2-0.1-0.7-0.2-1-0.2c-1.1,0-2,0.6-2,2.2V89h-3.3V78.7h3.3V81h0c0.3-1.6,1.5-2.5,2.9-2.5
		c0.3,0,0.7,0,1,0.1L132.7,82.2z"/>
</g>
<g>
	<path class="st0" d="M20.5,104.9c-0.2-0.1-0.7-0.2-1-0.2c-1.1,0-2,0.6-2,2.2v4.8h-3.3v-10.3h3.3v2.3h0c0.3-1.6,1.5-2.5,2.9-2.5
		c0.3,0,0.7,0,1,0.1L20.5,104.9z"/>
	<path class="st0" d="M31.6,105.9l-1.5,1.5h-5c0.2,0.8,1.3,1.8,3,1.8c1.1,0,2.2-0.3,2.8-0.8l-0.3,2.9c-0.8,0.4-1.9,0.7-3.3,0.7
		c-3.1,0-5.6-2.2-5.6-5.5c0-3.3,2.4-5.4,5.4-5.4c2.9,0,4.6,2,4.6,4.1C31.7,105.4,31.6,105.7,31.6,105.9z M27.1,103.5
		c-1,0-1.8,0.7-2,1.7h3.5c0-0.1,0-0.1,0-0.2C28.6,104.3,28,103.5,27.1,103.5z"/>
	<path class="st0" d="M40.3,104.1h-2.7v3.8c0,0.9,0.5,1.2,1.4,1.2c0.4,0,0.6,0,0.9-0.1l-0.3,2.5c-0.3,0.2-0.9,0.3-1.5,0.3
		c-2.3,0-3.7-1.2-3.7-3.3v-4.4h-1.7v-2.7h1.7v-2.2l3.3-1.2v3.4h3.3L40.3,104.1z"/>
	<path class="st0" d="M48.8,111.6v-1.4h0c-0.4,1.1-1.5,1.7-3.2,1.7c-2.2,0-3.6-1.2-3.6-3.4v-7.1h3.3v6.3c0,0.7,0.5,1.4,1.5,1.4
		c1,0,1.6-0.7,1.6-1.5v-6.2h3.3v10.3H48.8z"/>
	<path class="st0" d="M60.4,104.9c-0.2-0.1-0.7-0.2-1-0.2c-1.1,0-2,0.6-2,2.2v4.8H54v-10.3h3.3v2.3h0c0.3-1.6,1.5-2.5,2.9-2.5
		c0.3,0,0.7,0,1,0.1L60.4,104.9z"/>
	<path class="st0" d="M68.8,111.6v-6.3c0-0.7-0.5-1.4-1.5-1.4c-1,0-1.6,0.6-1.6,1.5v6.3h-3.3v-10.3h3.1v1.4h0
		c0.4-1.1,1.5-1.7,3.1-1.7c2.2,0,3.6,1.3,3.6,3.4v7.1H68.8z"/>
	<path class="st0" d="M77.5,111.9c-1.4,0-2.4-0.3-3.3-0.7l-0.3-2.9c0.9,0.6,2.1,1.1,3.2,1.1c0.6,0,1-0.3,1-0.7
		c0-0.4-0.3-0.6-0.9-0.8c-2-0.6-3.2-1.6-3.2-3.4c0-2,1.6-3.3,3.9-3.3c1.3,0,2.5,0.3,3,0.6l-0.6,2.4c-0.5-0.3-1.3-0.6-2.1-0.6
		c-0.5,0-0.9,0.2-0.9,0.7c0,0.4,0.3,0.6,0.9,0.7c2.3,0.6,3.3,1.8,3.3,3.5C81.6,110.3,80.3,111.9,77.5,111.9z"/>
	<path class="st0" d="M84.8,112c-0.6,0-1.9-1.3-1.9-1.9c0-0.6,1.3-1.9,1.9-1.9s1.9,1.3,1.9,1.9C86.7,110.7,85.4,112,84.8,112z"/>
</g>
</svg>
