<?xml version="1.0" encoding="utf-8"?>
<!-- Generator: Adobe Illustrator 22.1.0, SVG Export Plug-In . SVG Version: 6.00 Build 0)  -->
<svg version="1.1" id="Layer_1" xmlns="http://www.w3.org/2000/svg" xmlns:xlink="http://www.w3.org/1999/xlink" x="0px" y="0px"
	 viewBox="0 0 160 600" style="enable-background:new 0 0 160 600;" xml:space="preserve">
<style type="text/css">
	.st0{fill:#231F20;}
</style>
<g>
	<path class="st0" d="M24.1,42l-1.2-3.3h-4.6L17.1,42h-3.3l5.7-14.6h2.4L27.6,42H24.1z M21.1,33.3c-0.1-0.4-0.3-0.9-0.4-1.3h0
		c-0.1,0.5-0.3,1-0.4,1.3l-1,2.7H22L21.1,33.3z"/>
	<path class="st0" d="M35.2,35.3c-0.2-0.1-0.7-0.2-1-0.2c-1.1,0-2,0.6-2,2.2V42h-3.3V31.7h3.3V34h0c0.3-1.6,1.5-2.5,2.9-2.5
		c0.3,0,0.7,0,1,0.1L35.2,35.3z"/>
	<path class="st0" d="M46.3,36.3l-1.5,1.5h-5c0.2,0.8,1.3,1.8,3,1.8c1.1,0,2.2-0.3,2.8-0.8l-0.3,2.9c-0.8,0.4-1.9,0.7-3.3,0.7
		c-3.1,0-5.6-2.2-5.6-5.5c0-3.3,2.4-5.4,5.4-5.4c2.9,0,4.6,2,4.6,4.1C46.4,35.8,46.4,36.1,46.3,36.3z M41.8,33.9c-1,0-1.8,0.7-2,1.7
		h3.5c0-0.1,0-0.1,0-0.2C43.3,34.6,42.7,33.9,41.8,33.9z"/>
	<path class="st0" d="M65.8,42v-6.3c0-0.7-0.4-1.4-1.5-1.4c-1.1,0-1.5,0.6-1.5,1.5V42h-3.3v-6.3c0-0.7-0.4-1.4-1.5-1.4
		c-1.1,0-1.5,0.6-1.5,1.5V42h-3.3V31.7h3.1v1.4h0c0.4-1.1,1.4-1.7,3-1.7c1.5,0,2.6,0.6,3,1.7c0.4-1,1.6-1.7,3.2-1.7
		c2.3,0,3.6,1.3,3.6,3.4V42H65.8z"/>
	<path class="st0" d="M78,42v-1.4h0c-0.4,1.1-1.5,1.7-3.2,1.7c-2.2,0-3.6-1.2-3.6-3.4v-7.1h3.3V38c0,0.7,0.5,1.4,1.5,1.4
		c1,0,1.6-0.7,1.6-1.5v-6.2H81V42H78z"/>
	<path class="st0" d="M86.7,42.4c-2.1-0.1-3.5-1.2-3.5-3.7V25.9h3.3v12.5c0,0.8,0.5,1.3,1.4,1.4L86.7,42.4z"/>
	<path class="st0" d="M95.9,34.5h-2.7v3.8c0,0.9,0.5,1.2,1.4,1.2c0.4,0,0.6,0,0.9-0.1l-0.3,2.5c-0.3,0.2-0.9,0.3-1.5,0.3
		c-2.3,0-3.7-1.2-3.7-3.3v-4.4h-1.7v-2.7h1.7v-2.2l3.3-1.2v3.4h3.3L95.9,34.5z"/>
	<path class="st0" d="M99.5,30.3c-0.6,0-1.8-1.2-1.8-1.8s1.2-1.8,1.8-1.8s1.8,1.2,1.8,1.8S100,30.3,99.5,30.3z M97.8,42V31.7h3.4V42
		H97.8z"/>
	<path class="st0" d="M109.2,42.3c-1.1,0-2.2-0.3-2.6-0.7v5.6h-3.2V31.7h2.9V33h0c0.6-1,1.7-1.6,3.2-1.6c2.5,0,4.9,1.9,4.9,5.4
		C114.4,40.2,112,42.3,109.2,42.3z M108.6,34.4c-1,0-1.7,0.5-2,1.1v3.2c0.3,0.4,1,0.9,2,0.9c1.5,0,2.5-1.1,2.5-2.6
		C111,35.5,110,34.4,108.6,34.4z"/>
	<path class="st0" d="M119.6,42.4c-2.1-0.1-3.5-1.2-3.5-3.7V25.9h3.3v12.5c0,0.8,0.5,1.3,1.4,1.4L119.6,42.4z"/>
	<path class="st0" d="M131.3,36.3l-1.5,1.5h-5c0.2,0.8,1.3,1.8,3,1.8c1.1,0,2.2-0.3,2.8-0.8l-0.3,2.9c-0.8,0.4-2,0.7-3.3,0.7
		c-3.1,0-5.6-2.2-5.6-5.5c0-3.3,2.4-5.4,5.4-5.4c2.9,0,4.6,2,4.6,4.1C131.4,35.8,131.4,36.1,131.3,36.3z M126.8,33.9
		c-1,0-1.8,0.7-2,1.7h3.5c0-0.1,0-0.1,0-0.2C128.3,34.6,127.7,33.9,126.8,33.9z"/>
</g>
<g>
	<path class="st0" d="M20.9,58c-0.2-0.1-0.7-0.2-1-0.2c-1.1,0-2,0.6-2,2.2v4.8h-3.3V54.4h3.3v2.3h0c0.3-1.6,1.5-2.5,2.9-2.5
		c0.3,0,0.7,0,1,0.1L20.9,58z"/>
	<path class="st0" d="M32.1,59l-1.5,1.5h-5c0.2,0.8,1.3,1.8,3,1.8c1.1,0,2.2-0.3,2.8-0.8l-0.3,2.9c-0.8,0.4-1.9,0.7-3.3,0.7
		c-3.1,0-5.6-2.2-5.6-5.5c0-3.3,2.4-5.4,5.4-5.4c2.9,0,4.6,2,4.6,4.1C32.2,58.4,32.1,58.8,32.1,59z M27.6,56.6c-1,0-1.8,0.7-2,1.7
		H29c0-0.1,0-0.1,0-0.2C29.1,57.3,28.4,56.6,27.6,56.6z"/>
	<path class="st0" d="M40.8,57.1h-2.7V61c0,0.9,0.5,1.2,1.4,1.2c0.4,0,0.6,0,0.9-0.1L40,64.6c-0.3,0.2-0.9,0.3-1.5,0.3
		c-2.3,0-3.7-1.2-3.7-3.3v-4.4h-1.7v-2.7h1.7v-2.2l3.3-1.2v3.4h3.3L40.8,57.1z"/>
	<path class="st0" d="M44.3,53c-0.6,0-1.8-1.2-1.8-1.8c0-0.6,1.2-1.8,1.8-1.8c0.6,0,1.8,1.2,1.8,1.8C46.1,51.8,44.9,53,44.3,53z
		 M42.6,64.7V54.4H46v10.3H42.6z"/>
	<path class="st0" d="M54.5,58c-0.2-0.1-0.7-0.2-1-0.2c-1.1,0-2,0.6-2,2.2v4.8h-3.3V54.4h3.3v2.3h0c0.3-1.6,1.5-2.5,2.9-2.5
		c0.3,0,0.7,0,1,0.1L54.5,58z"/>
	<path class="st0" d="M65.7,59l-1.5,1.5h-5c0.2,0.8,1.3,1.8,3,1.8c1.1,0,2.2-0.3,2.8-0.8l-0.3,2.9c-0.8,0.4-1.9,0.7-3.3,0.7
		c-3.1,0-5.6-2.2-5.6-5.5c0-3.3,2.4-5.4,5.4-5.4c2.9,0,4.6,2,4.6,4.1C65.8,58.4,65.7,58.8,65.7,59z M61.2,56.6c-1,0-1.8,0.7-2,1.7
		h3.5c0-0.1,0-0.1,0-0.2C62.6,57.3,62,56.6,61.2,56.6z"/>
	<path class="st0" d="M80.1,64.7v-6.3c0-0.7-0.4-1.4-1.5-1.4c-1.1,0-1.5,0.6-1.5,1.5v6.3h-3.3v-6.3c0-0.7-0.4-1.4-1.5-1.4
		c-1.1,0-1.5,0.6-1.5,1.5v6.3h-3.3V54.4h3.1v1.4h0c0.4-1.1,1.4-1.7,3-1.7c1.5,0,2.6,0.6,3,1.7c0.4-1,1.6-1.7,3.2-1.7
		c2.3,0,3.6,1.3,3.6,3.4v7.1H80.1z"/>
	<path class="st0" d="M94.9,59l-1.5,1.5h-5c0.2,0.8,1.3,1.8,3,1.8c1.1,0,2.2-0.3,2.8-0.8L94,64.4c-0.8,0.4-2,0.7-3.3,0.7
		c-3.1,0-5.6-2.2-5.6-5.5c0-3.3,2.4-5.4,5.4-5.4c2.9,0,4.6,2,4.6,4.1C95,58.4,95,58.8,94.9,59z M90.4,56.6c-1,0-1.8,0.7-2,1.7h3.5
		c0-0.1,0-0.1,0-0.2C91.9,57.3,91.3,56.6,90.4,56.6z"/>
	<path class="st0" d="M103.2,64.7v-6.3c0-0.7-0.5-1.4-1.5-1.4c-1,0-1.6,0.6-1.6,1.5v6.3h-3.3V54.4h3.1v1.4h0
		c0.4-1.1,1.5-1.7,3.1-1.7c2.2,0,3.6,1.3,3.6,3.4v7.1H103.2z"/>
	<path class="st0" d="M115.4,57.1h-2.7V61c0,0.9,0.5,1.2,1.4,1.2c0.4,0,0.6,0,0.9-0.1l-0.3,2.5c-0.3,0.2-0.9,0.3-1.5,0.3
		c-2.3,0-3.7-1.2-3.7-3.3v-4.4h-1.7v-2.7h1.7v-2.2l3.3-1.2v3.4h3.3L115.4,57.1z"/>
</g>
<g>
	<path class="st0" d="M21.8,87.8c-0.6-0.1-1.3-0.6-1.6-1.4c-0.5,0.8-1.4,1.2-2.7,1.2c-1.8,0-3.4-1.3-3.4-3.4c0-1.9,1.5-3.2,3.5-3.4
		l2-0.2v-0.3c0-0.6-0.5-1-1.6-1c-1,0-2.1,0.3-2.9,0.8l-0.6-2.5c0.8-0.5,2.2-0.9,3.6-0.9c2.7,0,4.6,1.2,4.6,3.7v3.4
		c0,1.2,0.5,1.8,1.2,2.1L21.8,87.8z M19.7,82.9L18.5,83c-0.9,0.1-1.2,0.7-1.2,1.3c0,0.5,0.4,1,1,1c0.8,0,1.5-0.6,1.5-1.5V82.9z"/>
	<path class="st0" d="M32.9,80.4c-0.7-0.4-1.4-0.7-2.2-0.7c-1.5,0-2.6,1-2.6,2.5c0,1.5,1.2,2.5,2.7,2.5c0.9,0,1.5-0.2,2.2-0.6
		l-0.3,2.8c-0.7,0.3-1.6,0.5-2.5,0.5c-2.9,0-5.6-2-5.6-5.4c0-3.4,2.7-5.4,5.5-5.4c1.4,0,2.5,0.3,3.4,0.8L32.9,80.4z"/>
	<path class="st0" d="M42.8,80.4c-0.7-0.4-1.4-0.7-2.2-0.7c-1.5,0-2.6,1-2.6,2.5c0,1.5,1.2,2.5,2.7,2.5c0.9,0,1.5-0.2,2.2-0.6
		l-0.3,2.8c-0.7,0.3-1.6,0.5-2.5,0.5c-2.9,0-5.6-2-5.6-5.4c0-3.4,2.7-5.4,5.5-5.4c1.4,0,2.5,0.3,3.4,0.8L42.8,80.4z"/>
	<path class="st0" d="M50,87.7c-3.1,0-5.6-2.2-5.6-5.5s2.5-5.5,5.6-5.5c3.1,0,5.6,2.2,5.6,5.5S53.1,87.7,50,87.7z M50,79.7
		c-1.2,0-2.3,1.1-2.3,2.6c0,1.5,1.1,2.6,2.3,2.6c1.2,0,2.3-1.1,2.3-2.6C52.3,80.8,51.2,79.7,50,79.7z"/>
	<path class="st0" d="M64,87.4V86h0c-0.4,1.1-1.5,1.7-3.2,1.7c-2.2,0-3.6-1.2-3.6-3.4v-7.1h3.3v6.3c0,0.7,0.5,1.4,1.5,1.4
		c1,0,1.6-0.7,1.6-1.5v-6.2H67v10.3H64z"/>
	<path class="st0" d="M75.6,87.4v-6.3c0-0.7-0.5-1.4-1.5-1.4c-1,0-1.6,0.6-1.6,1.5v6.3h-3.3V77.1h3.1v1.4h0c0.4-1.1,1.5-1.7,3.1-1.7
		c2.2,0,3.6,1.3,3.6,3.4v7.1H75.6z"/>
	<path class="st0" d="M87.8,79.8h-2.7v3.8c0,0.9,0.5,1.2,1.4,1.2c0.4,0,0.6,0,0.9-0.1l-0.3,2.5c-0.3,0.2-0.9,0.3-1.5,0.3
		c-2.3,0-3.7-1.2-3.7-3.3v-4.4h-1.7v-2.7h1.7v-2.2l3.3-1.2v3.4h3.3L87.8,79.8z"/>
	<path class="st0" d="M92.8,87.6c-1.4,0-2.4-0.3-3.3-0.7l-0.3-2.9c0.9,0.6,2.1,1.1,3.2,1.1c0.6,0,1-0.3,1-0.7c0-0.4-0.3-0.6-0.9-0.8
		c-2-0.6-3.2-1.6-3.2-3.4c0-2,1.6-3.3,3.9-3.3c1.3,0,2.5,0.3,3,0.6l-0.6,2.4c-0.5-0.3-1.3-0.6-2.1-0.6c-0.5,0-0.9,0.2-0.9,0.7
		c0,0.4,0.3,0.6,0.9,0.7c2.3,0.6,3.3,1.8,3.3,3.5C96.8,86,95.6,87.6,92.8,87.6z"/>
</g>
<g>
	<path class="st0" d="M22.4,103.1c-0.7-0.4-1.4-0.7-2.2-0.7c-1.5,0-2.6,1-2.6,2.5c0,1.5,1.2,2.5,2.7,2.5c0.9,0,1.5-0.2,2.2-0.6
		l-0.3,2.8c-0.7,0.3-1.6,0.5-2.5,0.5c-2.9,0-5.6-2-5.6-5.4c0-3.4,2.7-5.4,5.5-5.4c1.4,0,2.5,0.3,3.4,0.8L22.4,103.1z"/>
	<path class="st0" d="M29.6,110.4c-3.1,0-5.6-2.2-5.6-5.5s2.5-5.5,5.6-5.5c3.1,0,5.6,2.2,5.6,5.5S32.7,110.4,29.6,110.4z
		 M29.6,102.3c-1.2,0-2.3,1.1-2.3,2.6c0,1.5,1.1,2.6,2.3,2.6c1.2,0,2.3-1.1,2.3-2.6C32,103.4,30.9,102.3,29.6,102.3z"/>
	<path class="st0" d="M40.1,110.3c-1.4,0-2.4-0.3-3.3-0.7l-0.3-2.9c0.9,0.6,2.1,1.1,3.2,1.1c0.6,0,1-0.3,1-0.7
		c0-0.4-0.3-0.6-0.9-0.8c-2-0.6-3.2-1.6-3.2-3.4c0-2,1.6-3.3,3.9-3.3c1.3,0,2.5,0.3,3,0.6l-0.6,2.4c-0.5-0.3-1.3-0.6-2.1-0.6
		c-0.5,0-0.9,0.2-0.9,0.7c0,0.4,0.3,0.6,0.9,0.7c2.3,0.6,3.3,1.8,3.3,3.5C44.2,108.7,42.9,110.3,40.1,110.3z"/>
	<path class="st0" d="M52.5,102.5h-2.7v3.8c0,0.9,0.5,1.2,1.4,1.2c0.4,0,0.6,0,0.9-0.1l-0.3,2.5c-0.3,0.2-0.9,0.3-1.5,0.3
		c-2.3,0-3.7-1.2-3.7-3.3v-4.4h-1.7v-2.7h1.7v-2.2l3.3-1.2v3.4h3.3L52.5,102.5z"/>
	<path class="st0" d="M56,98.4c-0.6,0-1.8-1.2-1.8-1.8s1.2-1.8,1.8-1.8c0.6,0,1.8,1.2,1.8,1.8S56.6,98.4,56,98.4z M54.4,110.1V99.8
		h3.4v10.3H54.4z"/>
	<path class="st0" d="M66.4,110.1v-6.3c0-0.7-0.5-1.4-1.5-1.4c-1,0-1.6,0.6-1.6,1.5v6.3h-3.3V99.8H63v1.4h0c0.4-1.1,1.5-1.7,3.1-1.7
		c2.2,0,3.6,1.3,3.6,3.4v7.1H66.4z"/>
	<path class="st0" d="M76.2,115.3c-3,0-5-1.7-5-3.9c0-1.6,1-2.5,2.1-2.8l-1.3-1.3c0.1-0.7,0.7-1.2,1.2-1.5c-0.8-0.5-1.5-1.5-1.5-2.7
		c0-2.2,1.6-3.7,4.2-3.7c0.6,0,1.1,0.1,1.5,0.2c0.5,0.1,1,0.2,1.5,0.2c0.6,0,1.2-0.1,1.6-0.3l0.6,2.5c-0.3,0.2-0.8,0.3-1.3,0.3
		c0.1,0.2,0.2,0.7,0.2,1c0,1.7-1.4,3.2-3.4,3.3c-0.4,0-0.7,0.1-0.7,0.4c0,0.1,0.1,0.2,0.3,0.3L78,108c2,0.7,3.1,1.7,3.1,3.6
		C81.1,113.7,79.2,115.3,76.2,115.3z M76.9,110.5l-1.2-0.3c-0.8,0-1.4,0.6-1.4,1.3c0,0.7,0.6,1.3,1.8,1.3c1.2,0,1.8-0.5,1.8-1.1
		C77.9,111.1,77.5,110.6,76.9,110.5z M76,101.9c-0.7,0-1.3,0.6-1.3,1.2c0,0.7,0.6,1.2,1.3,1.2c0.7,0,1.3-0.5,1.3-1.2
		C77.3,102.4,76.8,101.9,76,101.9z"/>
</g>
<g>
	<path class="st0" d="M27.2,132.7v-6.3c0-0.7-0.4-1.4-1.5-1.4c-1.1,0-1.5,0.6-1.5,1.5v6.3h-3.3v-6.3c0-0.7-0.4-1.4-1.5-1.4
		c-1.1,0-1.5,0.6-1.5,1.5v6.3h-3.3v-10.3h3.1v1.4h0c0.4-1.1,1.4-1.7,3-1.7c1.5,0,2.6,0.6,3,1.7c0.4-1,1.6-1.7,3.2-1.7
		c2.3,0,3.6,1.3,3.6,3.4v7.1H27.2z"/>
	<path class="st0" d="M37.8,133.1c-3.1,0-5.6-2.2-5.6-5.5s2.5-5.5,5.6-5.5c3.1,0,5.6,2.2,5.6,5.5S40.9,133.1,37.8,133.1z M37.8,125
		c-1.2,0-2.3,1.1-2.3,2.6c0,1.5,1.1,2.6,2.3,2.6c1.2,0,2.3-1.1,2.3-2.6C40.1,126.1,39,125,37.8,125z"/>
	<path class="st0" d="M51.4,126c-0.2-0.1-0.7-0.2-1-0.2c-1.1,0-2,0.6-2,2.2v4.8H45v-10.3h3.3v2.3h0c0.3-1.6,1.5-2.5,2.9-2.5
		c0.3,0,0.7,0,1,0.1L51.4,126z"/>
	<path class="st0" d="M62.6,127l-1.5,1.5h-5c0.2,0.8,1.3,1.8,3,1.8c1.1,0,2.2-0.3,2.8-0.8l-0.3,2.9c-0.8,0.4-1.9,0.7-3.3,0.7
		c-3.1,0-5.6-2.2-5.6-5.5c0-3.3,2.4-5.4,5.4-5.4c2.9,0,4.6,2,4.6,4.1C62.6,126.5,62.6,126.8,62.6,127z M58,124.6c-1,0-1.8,0.7-2,1.7
		h3.5c0-0.1,0-0.1,0-0.2C59.5,125.4,58.9,124.6,58,124.6z"/>
	<path class="st0" d="M76.2,125.2h-2.7v3.8c0,0.9,0.5,1.2,1.4,1.2c0.4,0,0.6,0,0.9-0.1l-0.3,2.5c-0.3,0.2-0.9,0.3-1.5,0.3
		c-2.3,0-3.7-1.2-3.7-3.3v-4.4h-1.7v-2.7h1.7v-2.2l3.3-1.2v3.4h3.3L76.2,125.2z"/>
	<path class="st0" d="M84.6,132.7v-6.3c0-0.7-0.5-1.4-1.5-1.4c-1,0-1.6,0.6-1.6,1.5v6.3h-3.3v-16.1h3.3v6.8h0
		c0.5-0.8,1.5-1.3,2.9-1.3c2.3,0,3.6,1.3,3.6,3.4v7.1H84.6z"/>
	<path class="st0" d="M97.2,133.2c-0.6-0.1-1.3-0.6-1.6-1.4c-0.5,0.8-1.4,1.2-2.7,1.2c-1.8,0-3.4-1.3-3.4-3.4c0-1.9,1.5-3.2,3.5-3.4
		l2-0.2v-0.3c0-0.6-0.5-1-1.6-1c-1,0-2.1,0.3-2.9,0.8L90,123c0.8-0.5,2.2-0.9,3.6-0.9c2.7,0,4.6,1.2,4.6,3.7v3.4
		c0,1.2,0.5,1.8,1.2,2.1L97.2,133.2z M95.1,128.2l-1.2,0.1c-0.9,0.1-1.2,0.7-1.2,1.3c0,0.5,0.4,1,1,1c0.8,0,1.5-0.6,1.5-1.5V128.2z"
		/>
	<path class="st0" d="M107.2,132.7v-6.3c0-0.7-0.5-1.4-1.5-1.4c-1,0-1.6,0.6-1.6,1.5v6.3h-3.3v-10.3h3.1v1.4h0
		c0.4-1.1,1.5-1.7,3.1-1.7c2.2,0,3.6,1.3,3.6,3.4v7.1H107.2z"/>
</g>
<g>
	<path class="st0" d="M20.9,154.4c-1.6,4.1-3.2,5.6-5.1,6.4l-2-2c1.7-0.6,2.9-1.8,3.8-4l-3.7-9.6H17l1.5,4c0.2,0.6,0.5,1.3,0.6,2h0
		c0.2-0.7,0.4-1.4,0.7-2l1.5-4h3.1L20.9,154.4z"/>
	<path class="st0" d="M30.3,155.7c-3.1,0-5.6-2.2-5.6-5.5s2.5-5.5,5.6-5.5c3.1,0,5.6,2.2,5.6,5.5S33.4,155.7,30.3,155.7z
		 M30.3,147.7c-1.2,0-2.3,1.1-2.3,2.6c0,1.5,1.1,2.6,2.3,2.6c1.2,0,2.3-1.1,2.3-2.6C32.6,148.8,31.5,147.7,30.3,147.7z"/>
	<path class="st0" d="M44.3,155.4V154h0c-0.4,1.1-1.5,1.7-3.2,1.7c-2.2,0-3.6-1.2-3.6-3.4v-7.1h3.3v6.3c0,0.7,0.5,1.4,1.5,1.4
		c1,0,1.6-0.7,1.6-1.5v-6.2h3.3v10.3H44.3z"/>
	<path class="st0" d="M61.3,147.9h-2.7v3.8c0,0.9,0.5,1.2,1.4,1.2c0.4,0,0.6,0,0.9-0.1l-0.3,2.5c-0.3,0.2-0.9,0.3-1.5,0.3
		c-2.3,0-3.7-1.2-3.7-3.3v-4.4h-1.7v-2.7h1.7v-2.2l3.3-1.2v3.4H62L61.3,147.9z"/>
	<path class="st0" d="M69.7,155.4v-6.3c0-0.7-0.5-1.4-1.5-1.4c-1,0-1.6,0.6-1.6,1.5v6.3h-3.3v-16.1h3.3v6.8h0
		c0.5-0.8,1.5-1.3,2.9-1.3c2.3,0,3.6,1.3,3.6,3.4v7.1H69.7z"/>
	<path class="st0" d="M76.8,143.7c-0.6,0-1.8-1.2-1.8-1.8c0-0.6,1.2-1.8,1.8-1.8c0.6,0,1.8,1.2,1.8,1.8
		C78.6,142.5,77.4,143.7,76.8,143.7z M75.1,155.4v-10.3h3.4v10.3H75.1z"/>
	<path class="st0" d="M87.2,155.4v-6.3c0-0.7-0.5-1.4-1.5-1.4c-1,0-1.6,0.6-1.6,1.5v6.3h-3.3v-10.3h3.1v1.4h0
		c0.4-1.1,1.5-1.7,3.1-1.7c2.2,0,3.6,1.3,3.6,3.4v7.1H87.2z"/>
	<path class="st0" d="M99,155.4l-3-4.1h0v4.1h-3.3v-16.1H96v10h0l3.1-4.2h3.6l-3.6,5l3.8,5.3H99z"/>
	<path class="st0" d="M108.9,148.3c-0.6,0.6-0.8,1.2-0.8,1.8c0,0.3,0,0.7,0.1,1l-2.9-0.6c-0.1-0.5-0.2-0.8-0.2-1.2
		c0-1.2,0.5-2.2,1.3-3.1c0.6-0.6,0.9-1,0.9-1.7c0-0.5-0.5-1-1.2-1c-0.8,0-1.5,0.3-2.3,0.7l-0.7-2.8c0.8-0.5,2-0.9,3.2-0.9
		c2.7,0,4.4,1.5,4.4,3.8C110.8,145.8,110.2,146.8,108.9,148.3z M106.8,155.7c-0.6,0-1.9-1.3-1.9-1.9c0-0.6,1.3-1.9,1.9-1.9
		s1.9,1.3,1.9,1.9C108.7,154.5,107.5,155.7,106.8,155.7z"/>
</g>
</svg>
