<?xml version="1.0" encoding="utf-8"?>
<!-- Generator: Adobe Illustrator 22.1.0, SVG Export Plug-In . SVG Version: 6.00 Build 0)  -->
<svg version="1.1" id="Layer_1" xmlns="http://www.w3.org/2000/svg" xmlns:xlink="http://www.w3.org/1999/xlink" x="0px" y="0px"
	 viewBox="0 0 160 600" style="enable-background:new 0 0 160 600;" xml:space="preserve">
<style type="text/css">
	.st0{fill:#231F20;}
</style>
<g>
	<path class="st0" d="M14.4,42.2V27.8h3.5v14.5H14.4z"/>
	<path class="st0" d="M26.9,42.2v-6.3c0-0.7-0.5-1.4-1.5-1.4c-1,0-1.6,0.6-1.6,1.5v6.3h-3.3V31.9h3.1v1.4h0c0.4-1.1,1.5-1.7,3.1-1.7
		c2.2,0,3.6,1.3,3.6,3.4v7.1H26.9z"/>
	<path class="st0" d="M46.8,36.5L45.3,38h-5c0.2,0.8,1.3,1.8,3,1.8c1.1,0,2.2-0.3,2.8-0.8l-0.3,2.9c-0.8,0.4-1.9,0.7-3.3,0.7
		c-3.1,0-5.6-2.2-5.6-5.5c0-3.3,2.4-5.4,5.4-5.4c2.9,0,4.6,2,4.6,4.1C46.9,36,46.9,36.3,46.8,36.5z M42.3,34.1c-1,0-1.8,0.7-2,1.7
		h3.5c0-0.1,0-0.1,0-0.2C43.8,34.8,43.2,34.1,42.3,34.1z"/>
	<path class="st0" d="M54,42.2l-1-1.9c-0.2-0.3-0.3-0.7-0.5-1h0c-0.1,0.3-0.3,0.7-0.5,1l-1,1.9h-3.2l2.9-5.1l-2.8-5.1h3.4l1,1.7
		c0.2,0.3,0.3,0.5,0.4,0.9h0c0.1-0.3,0.3-0.6,0.5-0.9l1-1.7h3.2l-2.8,4.9l2.9,5.3H54z"/>
	<path class="st0" d="M65.9,34.7h-2.7v3.8c0,0.9,0.5,1.2,1.4,1.2c0.4,0,0.6,0,0.9-0.1l-0.3,2.5c-0.3,0.2-0.9,0.3-1.5,0.3
		c-2.3,0-3.7-1.2-3.7-3.3v-4.4h-1.7v-2.7h1.7v-2.2l3.3-1.2v3.4h3.3L65.9,34.7z"/>
	<path class="st0" d="M74.1,35.5c-0.2-0.1-0.7-0.2-1-0.2c-1.1,0-2,0.6-2,2.2v4.8h-3.3V31.9H71v2.3h0c0.3-1.6,1.5-2.5,2.9-2.5
		c0.3,0,0.7,0,1,0.1L74.1,35.5z"/>
	<path class="st0" d="M83.2,42.7c-0.6-0.1-1.3-0.6-1.6-1.4c-0.5,0.8-1.4,1.2-2.7,1.2c-1.8,0-3.4-1.3-3.4-3.4c0-1.9,1.5-3.2,3.5-3.4
		l2-0.2v-0.3c0-0.6-0.5-1-1.6-1c-1,0-2.1,0.3-2.9,0.8L76,32.5c0.8-0.5,2.2-0.9,3.6-0.9c2.7,0,4.6,1.2,4.6,3.7v3.4
		c0,1.2,0.5,1.8,1.2,2.1L83.2,42.7z M81.1,37.7l-1.2,0.1c-0.9,0.1-1.2,0.7-1.2,1.3c0,0.5,0.4,1,1,1c0.8,0,1.5-0.6,1.5-1.5V37.7z"/>
</g>
<g>
	<path class="st0" d="M21.3,65.3c-0.6-0.1-1.3-0.6-1.6-1.4c-0.5,0.8-1.4,1.2-2.7,1.2c-1.8,0-3.4-1.3-3.4-3.4c0-1.9,1.5-3.2,3.5-3.4
		l2-0.2v-0.3c0-0.6-0.5-1-1.6-1c-1,0-2.1,0.3-2.9,0.8l-0.6-2.5c0.8-0.5,2.2-0.9,3.6-0.9c2.7,0,4.6,1.2,4.6,3.7v3.4
		c0,1.2,0.5,1.8,1.2,2.1L21.3,65.3z M19.1,60.4l-1.2,0.1c-0.9,0.1-1.2,0.7-1.2,1.3c0,0.5,0.4,1,1,1c0.8,0,1.5-0.6,1.5-1.5V60.4z"/>
	<path class="st0" d="M32.3,64.9v-1.3h0c-0.6,1-1.7,1.6-3.2,1.6c-2.5,0-4.9-1.9-4.9-5.4c0-3.3,2.4-5.5,5.2-5.5
		c1.1,0,2.2,0.4,2.6,0.7v-6.3h3.2v16.1H32.3z M32,58.2c-0.3-0.4-1-0.9-2-0.9c-1.5,0-2.5,1.1-2.5,2.6c0,1.5,1,2.6,2.5,2.6
		c1,0,1.7-0.5,2-1.1V58.2z"/>
	<path class="st0" d="M50.1,64.9v-6.3c0-0.7-0.4-1.4-1.5-1.4c-1.1,0-1.5,0.6-1.5,1.5v6.3h-3.3v-6.3c0-0.7-0.4-1.4-1.5-1.4
		c-1.1,0-1.5,0.6-1.5,1.5v6.3h-3.3V54.6h3.1V56h0c0.4-1.1,1.4-1.7,3-1.7c1.5,0,2.6,0.6,3,1.7c0.4-1,1.6-1.7,3.2-1.7
		c2.3,0,3.6,1.3,3.6,3.4v7.1H50.1z"/>
	<path class="st0" d="M57.2,53.2c-0.6,0-1.8-1.2-1.8-1.8s1.2-1.8,1.8-1.8c0.6,0,1.8,1.2,1.8,1.8S57.8,53.2,57.2,53.2z M55.6,64.9
		V54.6h3.4v10.3H55.6z"/>
	<path class="st0" d="M67.6,64.9v-6.3c0-0.7-0.5-1.4-1.5-1.4c-1,0-1.6,0.6-1.6,1.5v6.3h-3.3V54.6h3.1V56h0c0.4-1.1,1.5-1.7,3.1-1.7
		c2.2,0,3.6,1.3,3.6,3.4v7.1H67.6z"/>
	<path class="st0" d="M74.8,53.2c-0.6,0-1.8-1.2-1.8-1.8s1.2-1.8,1.8-1.8c0.6,0,1.8,1.2,1.8,1.8S75.3,53.2,74.8,53.2z M73.1,64.9
		V54.6h3.4v10.3H73.1z"/>
	<path class="st0" d="M81.9,65.1c-1.4,0-2.4-0.3-3.3-0.7l-0.3-2.9c0.9,0.6,2.1,1.1,3.2,1.1c0.6,0,1-0.3,1-0.7c0-0.4-0.3-0.6-0.9-0.8
		c-2-0.6-3.2-1.6-3.2-3.4c0-2,1.6-3.3,3.9-3.3c1.3,0,2.5,0.3,3,0.6l-0.6,2.4c-0.5-0.3-1.3-0.6-2.1-0.6c-0.5,0-0.9,0.2-0.9,0.7
		c0,0.4,0.3,0.6,0.9,0.7c2.3,0.6,3.3,1.8,3.3,3.5C85.9,63.5,84.7,65.1,81.9,65.1z"/>
	<path class="st0" d="M94.3,57.3h-2.7v3.8c0,0.9,0.5,1.2,1.4,1.2c0.4,0,0.6,0,0.9-0.1l-0.3,2.5c-0.3,0.2-0.9,0.3-1.5,0.3
		c-2.3,0-3.7-1.2-3.7-3.3v-4.4h-1.7v-2.7h1.7v-2.2l3.3-1.2v3.4h3.3L94.3,57.3z"/>
	<path class="st0" d="M102.4,58.2c-0.2-0.1-0.7-0.2-1-0.2c-1.1,0-2,0.6-2,2.2v4.8h-3.3V54.6h3.3v2.3h0c0.3-1.6,1.5-2.5,2.9-2.5
		c0.3,0,0.7,0,1,0.1L102.4,58.2z"/>
	<path class="st0" d="M111.6,65.3c-0.6-0.1-1.3-0.6-1.6-1.4c-0.5,0.8-1.4,1.2-2.7,1.2c-1.8,0-3.4-1.3-3.4-3.4c0-1.9,1.5-3.2,3.5-3.4
		l2-0.2v-0.3c0-0.6-0.5-1-1.6-1c-1,0-2.1,0.3-2.9,0.8l-0.6-2.5c0.8-0.5,2.2-0.9,3.6-0.9c2.7,0,4.6,1.2,4.6,3.7v3.4
		c0,1.2,0.5,1.8,1.2,2.1L111.6,65.3z M109.5,60.4l-1.2,0.1c-0.9,0.1-1.2,0.7-1.2,1.3c0,0.5,0.4,1,1,1c0.8,0,1.5-0.6,1.5-1.5V60.4z"
		/>
	<path class="st0" d="M121.7,57.3H119v3.8c0,0.9,0.5,1.2,1.4,1.2c0.4,0,0.6,0,0.9-0.1l-0.3,2.5c-0.3,0.2-0.9,0.3-1.5,0.3
		c-2.3,0-3.7-1.2-3.7-3.3v-4.4H114v-2.7h1.7v-2.2l3.3-1.2v3.4h3.3L121.7,57.3z"/>
	<path class="st0" d="M125.2,53.2c-0.6,0-1.8-1.2-1.8-1.8s1.2-1.8,1.8-1.8s1.8,1.2,1.8,1.8S125.8,53.2,125.2,53.2z M123.5,64.9V54.6
		h3.4v10.3H123.5z"/>
	<path class="st0" d="M134.6,65h-2.5l-3.9-10.4h3.2l1.5,3.9c0.2,0.5,0.4,1.3,0.6,2h0c0.2-0.7,0.4-1.5,0.6-2l1.5-3.9h3.1L134.6,65z"
		/>
	<path class="st0" d="M148.7,59.2l-1.5,1.5h-5c0.2,0.8,1.3,1.8,3,1.8c1.1,0,2.2-0.3,2.8-0.8l-0.3,2.9c-0.8,0.4-2,0.7-3.3,0.7
		c-3.1,0-5.6-2.2-5.6-5.5c0-3.3,2.4-5.4,5.4-5.4c2.9,0,4.6,2,4.6,4.1C148.8,58.6,148.7,59,148.7,59.2z M144.2,56.8
		c-1,0-1.8,0.7-2,1.7h3.5c0-0.1,0-0.1,0-0.2C145.7,57.5,145.1,56.8,144.2,56.8z"/>
</g>
<g>
	<path class="st0" d="M21.2,74.4c-0.4-0.2-0.9-0.3-1.3-0.3c-1.2,0-1.9,0.7-1.9,2.2v1h2.9L20.3,80H18v7.6h-3.2V80h-1.6v-2.7h1.6v-1.2
		c0-3.1,2-4.7,4.6-4.7c1,0,1.9,0.1,2.4,0.3L21.2,74.4z"/>
	<path class="st0" d="M31.2,81.9l-1.5,1.5h-5c0.2,0.8,1.3,1.8,3,1.8c1.1,0,2.2-0.3,2.8-0.8l-0.3,2.9c-0.8,0.4-1.9,0.7-3.3,0.7
		c-3.1,0-5.6-2.2-5.6-5.5c0-3.3,2.4-5.4,5.4-5.4c2.9,0,4.6,2,4.6,4.1C31.3,81.3,31.3,81.7,31.2,81.9z M26.7,79.5c-1,0-1.8,0.7-2,1.7
		h3.5c0-0.1,0-0.1,0-0.2C28.2,80.2,27.6,79.5,26.7,79.5z"/>
	<path class="st0" d="M42.3,81.9l-1.5,1.5h-5c0.2,0.8,1.3,1.8,3,1.8c1.1,0,2.2-0.3,2.8-0.8l-0.3,2.9c-0.8,0.4-1.9,0.7-3.3,0.7
		c-3.1,0-5.6-2.2-5.6-5.5c0-3.3,2.4-5.4,5.4-5.4c2.9,0,4.6,2,4.6,4.1C42.4,81.3,42.3,81.7,42.3,81.9z M37.8,79.5c-1,0-1.8,0.7-2,1.7
		h3.5c0-0.1,0-0.1,0-0.2C39.3,80.2,38.7,79.5,37.8,79.5z"/>
	<path class="st0" d="M47.3,87.8c-1.4,0-2.4-0.3-3.3-0.7l-0.3-2.9c0.9,0.6,2.1,1.1,3.2,1.1c0.6,0,1-0.3,1-0.7c0-0.4-0.3-0.6-0.9-0.8
		c-2-0.6-3.2-1.6-3.2-3.4c0-2,1.6-3.3,3.9-3.3c1.3,0,2.5,0.3,3,0.6l-0.6,2.4c-0.5-0.3-1.3-0.6-2.1-0.6c-0.5,0-0.9,0.2-0.9,0.7
		c0,0.4,0.3,0.6,0.9,0.7c2.3,0.6,3.3,1.8,3.3,3.5C51.3,86.2,50.1,87.8,47.3,87.8z"/>
	<path class="st0" d="M54.6,87.9c-0.6,0-1.9-1.3-1.9-1.9c0-0.6,1.3-1.9,1.9-1.9c0.6,0,1.9,1.3,1.9,1.9
		C56.5,86.6,55.2,87.9,54.6,87.9z"/>
</g>
</svg>
