<?xml version="1.0" encoding="utf-8"?>
<!-- Generator: Adobe Illustrator 22.1.0, SVG Export Plug-In . SVG Version: 6.00 Build 0)  -->
<svg version="1.1" id="Layer_1" xmlns="http://www.w3.org/2000/svg" xmlns:xlink="http://www.w3.org/1999/xlink" x="0px" y="0px"
	 viewBox="0 0 160 600" style="enable-background:new 0 0 160 600;" xml:space="preserve">
<style type="text/css">
	.st0{fill:#231F20;}
</style>
<g>
	<path class="st0" d="M24.3,42.2v-5.7h-5.6v5.7h-3.5V27.8h3.5v5.7h5.6v-5.7h3.5v14.5H24.3z"/>
	<path class="st0" d="M37.4,42.7c-0.6-0.1-1.3-0.6-1.6-1.4c-0.5,0.8-1.4,1.2-2.7,1.2c-1.8,0-3.4-1.3-3.4-3.4c0-1.9,1.5-3.2,3.5-3.4
		l2-0.2v-0.3c0-0.6-0.5-1-1.6-1c-1,0-2.1,0.3-2.9,0.8l-0.6-2.5c0.8-0.5,2.2-0.9,3.6-0.9c2.7,0,4.6,1.2,4.6,3.7v3.4
		c0,1.2,0.5,1.8,1.2,2.1L37.4,42.7z M35.3,37.7l-1.2,0.1c-0.9,0.1-1.2,0.7-1.2,1.3c0,0.5,0.4,1,1,1c0.8,0,1.5-0.6,1.5-1.5V37.7z"/>
	<path class="st0" d="M46,42.3h-2.5l-3.9-10.4h3.2l1.5,3.9c0.2,0.5,0.4,1.3,0.6,2h0c0.2-0.7,0.4-1.5,0.6-2l1.5-3.9h3.1L46,42.3z"/>
	<path class="st0" d="M52.8,30.5c-0.6,0-1.8-1.2-1.8-1.8s1.2-1.8,1.8-1.8c0.6,0,1.8,1.2,1.8,1.8S53.4,30.5,52.8,30.5z M51.2,42.2
		V31.9h3.4v10.3H51.2z"/>
	<path class="st0" d="M63.2,42.2v-6.3c0-0.7-0.5-1.4-1.5-1.4c-1,0-1.6,0.6-1.6,1.5v6.3h-3.3V31.9h3.1v1.4h0c0.4-1.1,1.5-1.7,3.1-1.7
		c2.2,0,3.6,1.3,3.6,3.4v7.1H63.2z"/>
	<path class="st0" d="M73,47.5c-3,0-5-1.7-5-3.9c0-1.6,1-2.5,2.1-2.8l-1.3-1.3c0.1-0.7,0.7-1.2,1.2-1.5c-0.8-0.5-1.5-1.5-1.5-2.7
		c0-2.2,1.6-3.7,4.2-3.7c0.6,0,1.1,0.1,1.5,0.2c0.5,0.1,1,0.2,1.5,0.2c0.6,0,1.2-0.1,1.6-0.3l0.6,2.5c-0.3,0.2-0.8,0.3-1.3,0.3
		c0.1,0.2,0.2,0.7,0.2,1c0,1.7-1.4,3.2-3.4,3.3c-0.4,0-0.7,0.1-0.7,0.4c0,0.1,0.1,0.2,0.3,0.3l1.6,0.6c2,0.7,3.1,1.7,3.1,3.6
		C77.9,45.9,76,47.5,73,47.5z M73.7,42.6l-1.2-0.3c-0.8,0-1.4,0.6-1.4,1.3c0,0.7,0.6,1.3,1.8,1.3c1.2,0,1.8-0.5,1.8-1.1
		C74.7,43.3,74.3,42.8,73.7,42.6z M72.8,34c-0.7,0-1.3,0.6-1.3,1.2c0,0.7,0.6,1.2,1.3,1.2c0.7,0,1.3-0.5,1.3-1.2
		C74.1,34.6,73.5,34,72.8,34z"/>
</g>
<g>
	<path class="st0" d="M21.9,57.3h-2.7v3.8c0,0.9,0.5,1.2,1.4,1.2c0.4,0,0.6,0,0.9-0.1l-0.3,2.5c-0.3,0.2-0.9,0.3-1.5,0.3
		c-2.3,0-3.7-1.2-3.7-3.3v-4.4h-1.7v-2.7h1.7v-2.2l3.3-1.2v3.4h3.3L21.9,57.3z"/>
	<path class="st0" d="M28.6,65.2c-3.1,0-5.6-2.2-5.6-5.5s2.5-5.5,5.6-5.5c3.1,0,5.6,2.2,5.6,5.5S31.7,65.2,28.6,65.2z M28.6,57.2
		c-1.2,0-2.3,1.1-2.3,2.6c0,1.5,1.1,2.6,2.3,2.6c1.2,0,2.3-1.1,2.3-2.6C30.9,58.3,29.9,57.2,28.6,57.2z"/>
	<path class="st0" d="M41,65.2c-3.1,0-5.6-2.2-5.6-5.5s2.5-5.5,5.6-5.5c3.1,0,5.6,2.2,5.6,5.5S44.1,65.2,41,65.2z M41,57.2
		c-1.2,0-2.3,1.1-2.3,2.6c0,1.5,1.1,2.6,2.3,2.6c1.2,0,2.3-1.1,2.3-2.6C43.3,58.3,42.2,57.2,41,57.2z"/>
	<path class="st0" d="M66,64.9v-6.3c0-0.7-0.4-1.4-1.5-1.4c-1.1,0-1.5,0.6-1.5,1.5v6.3h-3.3v-6.3c0-0.7-0.4-1.4-1.5-1.4
		c-1.1,0-1.5,0.6-1.5,1.5v6.3h-3.3V54.6h3.1V56h0c0.4-1.1,1.4-1.7,3-1.7c1.5,0,2.6,0.6,3,1.7c0.4-1,1.6-1.7,3.2-1.7
		c2.3,0,3.6,1.3,3.6,3.4v7.1H66z"/>
	<path class="st0" d="M78.7,65.3c-0.6-0.1-1.3-0.6-1.6-1.4c-0.5,0.8-1.4,1.2-2.7,1.2c-1.8,0-3.4-1.3-3.4-3.4c0-1.9,1.5-3.2,3.5-3.4
		l2-0.2v-0.3c0-0.6-0.5-1-1.6-1c-1,0-2.1,0.3-2.9,0.8l-0.6-2.5c0.8-0.5,2.2-0.9,3.6-0.9c2.7,0,4.6,1.2,4.6,3.7v3.4
		c0,1.2,0.5,1.8,1.2,2.1L78.7,65.3z M76.6,60.4l-1.2,0.1c-0.9,0.1-1.2,0.7-1.2,1.3c0,0.5,0.4,1,1,1c0.8,0,1.5-0.6,1.5-1.5V60.4z"/>
	<path class="st0" d="M88.7,64.9v-6.3c0-0.7-0.5-1.4-1.5-1.4c-1,0-1.6,0.6-1.6,1.5v6.3h-3.3V54.6h3.1V56h0c0.4-1.1,1.5-1.7,3.1-1.7
		c2.2,0,3.6,1.3,3.6,3.4v7.1H88.7z"/>
	<path class="st0" d="M99.9,63.9c-1.6,4.1-3.2,5.6-5.1,6.4l-2-2c1.7-0.6,2.9-1.8,3.8-4l-3.7-9.6h3.2l1.5,4c0.2,0.6,0.5,1.3,0.6,2h0
		c0.2-0.7,0.4-1.4,0.7-2l1.5-4h3.1L99.9,63.9z"/>
</g>
<g>
	<path class="st0" d="M21.4,80.8c-0.2-0.1-0.7-0.2-1-0.2c-1.1,0-2,0.6-2,2.2v4.8H15V77.3h3.3v2.3h0c0.3-1.6,1.5-2.5,2.9-2.5
		c0.3,0,0.7,0,1,0.1L21.4,80.8z"/>
	<path class="st0" d="M32.5,81.9L31,83.4h-5c0.2,0.8,1.3,1.8,3,1.8c1.1,0,2.2-0.3,2.8-0.8l-0.3,2.9c-0.8,0.4-1.9,0.7-3.3,0.7
		c-3.1,0-5.6-2.2-5.6-5.5c0-3.3,2.4-5.4,5.4-5.4c2.9,0,4.6,2,4.6,4.1C32.6,81.3,32.5,81.7,32.5,81.9z M28,79.5c-1,0-1.8,0.7-2,1.7
		h3.5c0-0.1,0-0.1,0-0.2C29.5,80.2,28.9,79.5,28,79.5z"/>
	<path class="st0" d="M41.2,80h-2.7v3.8c0,0.9,0.5,1.2,1.4,1.2c0.4,0,0.6,0,0.9-0.1l-0.3,2.5c-0.3,0.2-0.9,0.3-1.5,0.3
		c-2.3,0-3.7-1.2-3.7-3.3V80h-1.7v-2.7h1.7v-2.2l3.3-1.2v3.4h3.3L41.2,80z"/>
	<path class="st0" d="M44.7,75.9c-0.6,0-1.8-1.2-1.8-1.8c0-0.6,1.2-1.8,1.8-1.8c0.6,0,1.8,1.2,1.8,1.8
		C46.5,74.7,45.3,75.9,44.7,75.9z M43.1,87.6V77.3h3.4v10.3H43.1z"/>
	<path class="st0" d="M55,80.8c-0.2-0.1-0.7-0.2-1-0.2c-1.1,0-2,0.6-2,2.2v4.8h-3.3V77.3h3.3v2.3h0c0.3-1.6,1.5-2.5,2.9-2.5
		c0.3,0,0.7,0,1,0.1L55,80.8z"/>
	<path class="st0" d="M66.1,81.9l-1.5,1.5h-5c0.2,0.8,1.3,1.8,3,1.8c1.1,0,2.2-0.3,2.8-0.8l-0.3,2.9c-0.8,0.4-1.9,0.7-3.3,0.7
		c-3.1,0-5.6-2.2-5.6-5.5c0-3.3,2.4-5.4,5.4-5.4c2.9,0,4.6,2,4.6,4.1C66.2,81.3,66.1,81.7,66.1,81.9z M61.6,79.5c-1,0-1.8,0.7-2,1.7
		h3.5c0-0.1,0-0.1,0-0.2C63.1,80.2,62.5,79.5,61.6,79.5z"/>
	<path class="st0" d="M80.5,87.6v-6.3c0-0.7-0.4-1.4-1.5-1.4c-1.1,0-1.5,0.6-1.5,1.5v6.3h-3.3v-6.3c0-0.7-0.4-1.4-1.5-1.4
		c-1.1,0-1.5,0.6-1.5,1.5v6.3h-3.3V77.3h3.1v1.4h0c0.4-1.1,1.4-1.7,3-1.7c1.5,0,2.6,0.6,3,1.7c0.4-1,1.6-1.7,3.2-1.7
		c2.3,0,3.6,1.3,3.6,3.4v7.1H80.5z"/>
	<path class="st0" d="M95.3,81.9l-1.5,1.5h-5c0.2,0.8,1.3,1.8,3,1.8c1.1,0,2.2-0.3,2.8-0.8l-0.3,2.9c-0.8,0.4-2,0.7-3.3,0.7
		c-3.1,0-5.6-2.2-5.6-5.5c0-3.3,2.4-5.4,5.4-5.4c2.9,0,4.6,2,4.6,4.1C95.4,81.3,95.4,81.7,95.3,81.9z M90.8,79.5c-1,0-1.8,0.7-2,1.7
		h3.5c0-0.1,0-0.1,0-0.2C92.3,80.2,91.7,79.5,90.8,79.5z"/>
	<path class="st0" d="M103.6,87.6v-6.3c0-0.7-0.5-1.4-1.5-1.4c-1,0-1.6,0.6-1.6,1.5v6.3h-3.3V77.3h3.1v1.4h0
		c0.4-1.1,1.5-1.7,3.1-1.7c2.2,0,3.6,1.3,3.6,3.4v7.1H103.6z"/>
	<path class="st0" d="M115.8,80h-2.7v3.8c0,0.9,0.5,1.2,1.4,1.2c0.4,0,0.6,0,0.9-0.1l-0.3,2.5c-0.3,0.2-0.9,0.3-1.5,0.3
		c-2.3,0-3.7-1.2-3.7-3.3V80h-1.7v-2.7h1.7v-2.2l3.3-1.2v3.4h3.3L115.8,80z"/>
</g>
<g>
	<path class="st0" d="M22.3,110.7c-0.6-0.1-1.3-0.6-1.6-1.4c-0.5,0.8-1.4,1.2-2.7,1.2c-1.8,0-3.4-1.3-3.4-3.4c0-1.9,1.5-3.2,3.5-3.4
		l2-0.2v-0.3c0-0.6-0.5-1-1.6-1c-1,0-2.1,0.3-2.9,0.8l-0.6-2.5c0.8-0.5,2.2-0.9,3.6-0.9c2.7,0,4.6,1.2,4.6,3.7v3.4
		c0,1.2,0.5,1.8,1.2,2.1L22.3,110.7z M20.1,105.8l-1.2,0.1c-0.9,0.1-1.2,0.7-1.2,1.3c0,0.5,0.4,1,1,1c0.8,0,1.5-0.6,1.5-1.5V105.8z"
		/>
	<path class="st0" d="M33.3,103.3c-0.7-0.4-1.4-0.7-2.2-0.7c-1.5,0-2.6,1-2.6,2.5c0,1.5,1.2,2.5,2.7,2.5c0.9,0,1.5-0.2,2.2-0.6
		l-0.3,2.8c-0.7,0.3-1.6,0.5-2.5,0.5c-2.9,0-5.6-2-5.6-5.4c0-3.4,2.7-5.4,5.5-5.4c1.4,0,2.5,0.3,3.4,0.8L33.3,103.3z"/>
	<path class="st0" d="M43.2,103.3c-0.7-0.4-1.4-0.7-2.2-0.7c-1.5,0-2.6,1-2.6,2.5c0,1.5,1.2,2.5,2.7,2.5c0.9,0,1.5-0.2,2.2-0.6
		L43,110c-0.7,0.3-1.6,0.5-2.5,0.5c-2.9,0-5.6-2-5.6-5.4c0-3.4,2.7-5.4,5.5-5.4c1.4,0,2.5,0.3,3.4,0.8L43.2,103.3z"/>
	<path class="st0" d="M50.4,110.6c-3.1,0-5.6-2.2-5.6-5.5s2.5-5.5,5.6-5.5c3.1,0,5.6,2.2,5.6,5.5S53.5,110.6,50.4,110.6z
		 M50.4,102.5c-1.2,0-2.3,1.1-2.3,2.6c0,1.5,1.1,2.6,2.3,2.6c1.2,0,2.3-1.1,2.3-2.6C52.7,103.6,51.6,102.5,50.4,102.5z"/>
	<path class="st0" d="M64.4,110.3v-1.4h0c-0.4,1.1-1.5,1.7-3.2,1.7c-2.2,0-3.6-1.2-3.6-3.4V100H61v6.3c0,0.7,0.5,1.4,1.5,1.4
		c1,0,1.6-0.7,1.6-1.5V100h3.3v10.3H64.4z"/>
	<path class="st0" d="M76.1,110.3V104c0-0.7-0.5-1.4-1.5-1.4c-1,0-1.6,0.6-1.6,1.5v6.3h-3.3V100h3.1v1.4h0c0.4-1.1,1.5-1.7,3.1-1.7
		c2.2,0,3.6,1.3,3.6,3.4v7.1H76.1z"/>
	<path class="st0" d="M88.3,102.7h-2.7v3.8c0,0.9,0.5,1.2,1.4,1.2c0.4,0,0.6,0,0.9-0.1l-0.3,2.5c-0.3,0.2-0.9,0.3-1.5,0.3
		c-2.3,0-3.7-1.2-3.7-3.3v-4.4h-1.7V100h1.7v-2.2l3.3-1.2v3.4h3.3L88.3,102.7z"/>
	<path class="st0" d="M93.2,110.5c-1.4,0-2.4-0.3-3.3-0.7l-0.3-2.9c0.9,0.6,2.1,1.1,3.2,1.1c0.6,0,1-0.3,1-0.7
		c0-0.4-0.3-0.6-0.9-0.8c-2-0.6-3.2-1.6-3.2-3.4c0-2,1.6-3.3,3.9-3.3c1.3,0,2.5,0.3,3,0.6l-0.6,2.4c-0.5-0.3-1.3-0.6-2.1-0.6
		c-0.5,0-0.9,0.2-0.9,0.7c0,0.4,0.3,0.6,0.9,0.7c2.3,0.6,3.3,1.8,3.3,3.5C97.3,108.9,96,110.5,93.2,110.5z"/>
	<path class="st0" d="M111.9,103.3c-0.7-0.4-1.4-0.7-2.2-0.7c-1.5,0-2.6,1-2.6,2.5c0,1.5,1.2,2.5,2.7,2.5c0.9,0,1.5-0.2,2.2-0.6
		l-0.3,2.8c-0.7,0.3-1.6,0.5-2.5,0.5c-2.9,0-5.6-2-5.6-5.4c0-3.4,2.7-5.4,5.5-5.4c1.4,0,2.5,0.3,3.4,0.8L111.9,103.3z"/>
	<path class="st0" d="M121.2,110.7c-0.6-0.1-1.3-0.6-1.6-1.4c-0.5,0.8-1.4,1.2-2.7,1.2c-1.8,0-3.4-1.3-3.4-3.4
		c0-1.9,1.5-3.2,3.5-3.4l2-0.2v-0.3c0-0.6-0.5-1-1.6-1c-1,0-2.1,0.3-2.9,0.8l-0.6-2.5c0.8-0.5,2.2-0.9,3.6-0.9
		c2.7,0,4.6,1.2,4.6,3.7v3.4c0,1.2,0.5,1.8,1.2,2.1L121.2,110.7z M119.1,105.8l-1.2,0.1c-0.9,0.1-1.2,0.7-1.2,1.3c0,0.5,0.4,1,1,1
		c0.8,0,1.5-0.6,1.5-1.5V105.8z"/>
	<path class="st0" d="M131.2,110.3V104c0-0.7-0.5-1.4-1.5-1.4c-1,0-1.6,0.6-1.6,1.5v6.3h-3.3V100h3.1v1.4h0c0.4-1.1,1.5-1.7,3.1-1.7
		c2.2,0,3.6,1.3,3.6,3.4v7.1H131.2z"/>
</g>
<g>
	<path class="st0" d="M20,133.2c-2.2,0-3.9-0.7-4.9-1.5v-14.9h3.2v6.2c0.4-0.3,1.5-0.7,2.6-0.7c2.8,0,5.2,2,5.2,5.3
		C26.1,130.8,24,133.2,20,133.2z M20.3,125.3c-1,0-1.7,0.5-2,0.8v3.9c0.3,0.2,1,0.5,1.7,0.5c1.7,0,2.8-1.2,2.8-2.7
		C22.8,126.4,21.8,125.3,20.3,125.3z"/>
	<path class="st0" d="M37.1,127.2l-1.5,1.5h-5c0.2,0.8,1.3,1.8,3,1.8c1.1,0,2.2-0.3,2.8-0.8l-0.3,2.9c-0.8,0.4-1.9,0.7-3.3,0.7
		c-3.1,0-5.6-2.2-5.6-5.5c0-3.3,2.4-5.4,5.4-5.4c2.9,0,4.6,2,4.6,4.1C37.2,126.7,37.2,127,37.1,127.2z M32.6,124.8
		c-1,0-1.8,0.7-2,1.7h3.5c0-0.1,0-0.1,0-0.2C34.1,125.6,33.5,124.8,32.6,124.8z"/>
	<path class="st0" d="M51.8,126c-0.7-0.4-1.4-0.7-2.2-0.7c-1.5,0-2.6,1-2.6,2.5c0,1.5,1.2,2.5,2.7,2.5c0.9,0,1.5-0.2,2.2-0.6
		l-0.3,2.8c-0.7,0.3-1.6,0.5-2.5,0.5c-2.9,0-5.6-2-5.6-5.4c0-3.4,2.7-5.4,5.5-5.4c1.4,0,2.5,0.3,3.4,0.8L51.8,126z"/>
	<path class="st0" d="M59,133.3c-3.1,0-5.6-2.2-5.6-5.5s2.5-5.5,5.6-5.5c3.1,0,5.6,2.2,5.6,5.5S62.1,133.3,59,133.3z M59,125.2
		c-1.2,0-2.3,1.1-2.3,2.6c0,1.5,1.1,2.6,2.3,2.6c1.2,0,2.3-1.1,2.3-2.6C61.3,126.3,60.2,125.2,59,125.2z"/>
	<path class="st0" d="M69.5,133.2c-1.4,0-2.4-0.3-3.3-0.7l-0.3-2.9c0.9,0.6,2.1,1.1,3.2,1.1c0.6,0,1-0.3,1-0.7
		c0-0.4-0.3-0.6-0.9-0.8c-2-0.6-3.2-1.6-3.2-3.4c0-2,1.6-3.3,3.9-3.3c1.3,0,2.5,0.3,3,0.6l-0.6,2.4c-0.5-0.3-1.3-0.6-2.1-0.6
		c-0.5,0-0.9,0.2-0.9,0.7c0,0.4,0.3,0.6,0.9,0.7c2.3,0.6,3.3,1.8,3.3,3.5C73.5,131.6,72.2,133.2,69.5,133.2z"/>
	<path class="st0" d="M81.9,125.4h-2.7v3.8c0,0.9,0.5,1.2,1.4,1.2c0.4,0,0.6,0,0.9-0.1l-0.3,2.5c-0.3,0.2-0.9,0.3-1.5,0.3
		c-2.3,0-3.7-1.2-3.7-3.3v-4.4h-1.7v-2.7h1.7v-2.2l3.3-1.2v3.4h3.3L81.9,125.4z"/>
	<path class="st0" d="M87.2,133.3c-2.1-0.1-3.5-1.2-3.5-3.7v-12.9H87v12.5c0,0.8,0.5,1.3,1.4,1.4L87.2,133.3z"/>
	<path class="st0" d="M95.6,131.9c-1.6,4.1-3.2,5.6-5.1,6.4l-2-2c1.7-0.6,2.9-1.8,3.8-4l-3.7-9.6h3.2l1.5,4c0.2,0.6,0.5,1.3,0.6,2h0
		c0.2-0.7,0.4-1.4,0.7-2l1.5-4H99L95.6,131.9z"/>
	<path class="st0" d="M100.7,133.3c-0.6,0-1.9-1.3-1.9-1.9c0-0.6,1.3-1.9,1.9-1.9s1.9,1.3,1.9,1.9
		C102.6,132,101.3,133.3,100.7,133.3z"/>
</g>
</svg>
