<?xml version="1.0" encoding="utf-8"?>
<!-- Generator: Adobe Illustrator 17.0.0, SVG Export Plug-In . SVG Version: 6.00 Build 0)  -->
<!DOCTYPE svg PUBLIC "-//W3C//DTD SVG 1.1//EN" "http://www.w3.org/Graphics/SVG/1.1/DTD/svg11.dtd">
<svg version="1.1" id="Layer_1" xmlns="http://www.w3.org/2000/svg" xmlns:xlink="http://www.w3.org/1999/xlink" x="0px" y="0px"
	 width="160px" height="600px" viewBox="0 0 160 600" enable-background="new 0 0 160 600" xml:space="preserve">
<path fill="#F9E038" d="M37.016,486c0,0-11,0-11,11v3.674c0,0,0,11,11,11h89.825c0,0,11,0,11-11V497c0,0,0-11-11-11H37.016z"/>
<g>
	<path fill="#231F20" d="M39.579,502.706h-1.599v-6.856h2.889c0.61,0,1.229,0.01,1.759,0.35c0.56,0.37,0.87,1.04,0.87,1.709
		c0,0.78-0.45,1.5-1.189,1.77l1.27,3.028h-1.779l-1.05-2.709h-1.169V502.706z M39.579,498.818h0.88c0.33,0,0.689,0.03,0.979-0.14
		c0.26-0.16,0.399-0.48,0.399-0.78c0-0.27-0.16-0.56-0.39-0.699c-0.27-0.17-0.729-0.13-1.029-0.13h-0.84V498.818z"/>
	<path fill="#231F20" d="M46.149,497.179v1.39h2.599v1.289h-2.599v1.52h3.298v1.329H44.55v-6.856h4.897v1.329H46.149z"/>
	<path fill="#231F20" d="M55.997,502.706h-1.729l-0.42-1.409h-2.219l-0.43,1.409H49.79l2.199-6.856h1.859L55.997,502.706z
		 M53.478,500.037l-0.729-2.408l-0.73,2.408H53.478z"/>
	<path fill="#231F20" d="M58.718,495.85c0.99,0,1.839,0.061,2.589,0.77c0.74,0.7,1.059,1.649,1.059,2.639
		c0,0.92-0.28,1.81-0.889,2.499c-0.68,0.749-1.519,0.949-2.489,0.949h-2.259v-6.856H58.718z M58.329,501.417h0.54
		c0.67,0,1.1-0.13,1.469-0.729c0.27-0.44,0.38-0.97,0.38-1.479c0-0.54-0.16-1.119-0.49-1.549c-0.37-0.48-0.779-0.55-1.349-0.55
		h-0.55V501.417z"/>
	<path fill="#231F20" d="M70.917,497.209h-1.719v5.497h-1.599v-5.497h-1.739v-1.359h5.057V497.209z"/>
	<path fill="#231F20" d="M77.046,502.706h-1.599v-2.828h-2.119v2.828h-1.599v-6.856h1.599v2.679h2.119v-2.679h1.599V502.706z"/>
	<path fill="#231F20" d="M79.948,497.179v1.39h2.599v1.289h-2.599v1.52h3.298v1.329h-4.897v-6.856h4.897v1.329H79.948z"/>
	<path fill="#231F20" d="M92.796,502.706h-1.729l-0.419-1.409h-2.219l-0.431,1.409h-1.409l2.199-6.856h1.859L92.796,502.706z
		 M90.277,500.037l-0.729-2.408l-0.729,2.408H90.277z"/>
	<path fill="#231F20" d="M95.178,502.706h-1.6v-6.856h2.889c0.609,0,1.229,0.01,1.759,0.35c0.56,0.37,0.87,1.04,0.87,1.709
		c0,0.78-0.45,1.5-1.189,1.77l1.269,3.028h-1.778l-1.05-2.709h-1.169V502.706z M95.178,498.818h0.879c0.33,0,0.69,0.03,0.979-0.14
		c0.26-0.16,0.4-0.48,0.4-0.78c0-0.27-0.16-0.56-0.39-0.699c-0.271-0.17-0.73-0.13-1.03-0.13h-0.839V498.818z"/>
	<path fill="#231F20" d="M104.717,497.209h-1.72v5.497h-1.599v-5.497h-1.739v-1.359h5.058V497.209z"/>
	<path fill="#231F20" d="M107.178,502.706h-1.6v-6.856h1.6V502.706z"/>
	<path fill="#231F20" d="M112.416,498.509c-0.01-0.76-0.27-1.47-1.149-1.47c-1.129,0-1.239,1.479-1.239,2.309
		c0,0.939,0.11,2.149,1.319,2.149c0.75,0,1.1-0.63,1.189-1.29l1.56,0.101c-0.17,1.569-1.25,2.498-2.829,2.498
		c-2.039,0-3.028-1.659-3.028-3.527c0-1.899,1.02-3.528,3.078-3.528c1.72,0,2.599,0.999,2.779,2.648L112.416,498.509z"/>
	<path fill="#231F20" d="M119.466,501.347v1.359h-4.357v-6.856h1.599v5.497H119.466z"/>
	<path fill="#231F20" d="M121.747,497.179v1.39h2.599v1.289h-2.599v1.52h3.298v1.329h-4.896v-6.856h4.896v1.329H121.747z"/>
</g>
</svg>
