<?xml version="1.0" encoding="utf-8"?>
<!-- Generator: Adobe Illustrator 22.1.0, SVG Export Plug-In . SVG Version: 6.00 Build 0)  -->
<svg version="1.1" id="Layer_1" xmlns="http://www.w3.org/2000/svg" xmlns:xlink="http://www.w3.org/1999/xlink" x="0px" y="0px"
	 viewBox="0 0 160 600" style="enable-background:new 0 0 160 600;" xml:space="preserve">
<style type="text/css">
	.st0{opacity:0.25;clip-path:url(#SVGID_2_);}
	.st1{clip-path:url(#SVGID_4_);}
	.st2{clip-path:url(#SVGID_6_);fill:#0A0F0F;}
	.st3{clip-path:url(#SVGID_2_);fill:#FFFFFF;}
	.st4{clip-path:url(#SVGID_8_);fill:url(#SVGID_9_);}
	.st5{clip-path:url(#SVGID_11_);fill:url(#SVGID_12_);}
	.st6{clip-path:url(#SVGID_14_);fill:url(#SVGID_15_);}
	.st7{clip-path:url(#SVGID_17_);fill:url(#SVGID_18_);}
	.st8{clip-path:url(#SVGID_20_);fill:url(#SVGID_21_);}
	.st9{clip-path:url(#SVGID_23_);fill:#963A21;}
	.st10{clip-path:url(#SVGID_25_);fill:url(#SVGID_26_);}
	.st11{clip-path:url(#SVGID_28_);fill:url(#SVGID_29_);}
	.st12{clip-path:url(#SVGID_31_);fill:#F5A8C2;}
	.st13{opacity:0.5;clip-path:url(#SVGID_31_);}
	.st14{clip-path:url(#SVGID_33_);}
	.st15{clip-path:url(#SVGID_35_);fill:#FFFFFF;}
	.st16{clip-path:url(#SVGID_31_);fill:#393030;}
	.st17{clip-path:url(#SVGID_31_);fill:#D07589;}
	.st18{clip-path:url(#SVGID_31_);fill:#231F20;}
	.st19{clip-path:url(#SVGID_31_);fill-rule:evenodd;clip-rule:evenodd;fill:#FFCB10;}
	.st20{clip-path:url(#SVGID_31_);fill-rule:evenodd;clip-rule:evenodd;fill:#EEB435;}
	.st21{clip-path:url(#SVGID_31_);fill-rule:evenodd;clip-rule:evenodd;fill:#FFEBA6;}
	.st22{clip-path:url(#SVGID_31_);fill:#FFCB10;}
	.st23{opacity:0.53;clip-path:url(#SVGID_37_);}
	.st24{clip-path:url(#SVGID_39_);}
	.st25{filter:url(#Adobe_OpacityMaskFilter);}
	.st26{clip-path:url(#SVGID_41_);fill:url(#SVGID_43_);}
	.st27{clip-path:url(#SVGID_41_);mask:url(#SVGID_42_);fill:url(#SVGID_44_);}
	.st28{clip-path:url(#SVGID_46_);}
	.st29{filter:url(#Adobe_OpacityMaskFilter_1_);}
	.st30{clip-path:url(#SVGID_48_);}
	.st31{clip-path:url(#SVGID_51_);fill:url(#SVGID_52_);}
	.st32{clip-path:url(#SVGID_48_);mask:url(#SVGID_49_);fill:url(#SVGID_53_);}
	.st33{clip-path:url(#SVGID_55_);}
	.st34{filter:url(#Adobe_OpacityMaskFilter_2_);}
	.st35{clip-path:url(#SVGID_57_);}
	.st36{clip-path:url(#SVGID_60_);fill:url(#SVGID_61_);}
	.st37{clip-path:url(#SVGID_57_);mask:url(#SVGID_58_);fill:url(#SVGID_62_);}
	.st38{clip-path:url(#SVGID_64_);}
	.st39{clip-path:url(#SVGID_66_);}
	.st40{filter:url(#Adobe_OpacityMaskFilter_3_);}
	.st41{clip-path:url(#SVGID_68_);fill:url(#SVGID_70_);}
	.st42{clip-path:url(#SVGID_68_);mask:url(#SVGID_69_);fill:url(#SVGID_71_);}
	.st43{opacity:0.53;clip-path:url(#SVGID_73_);}
	.st44{clip-path:url(#SVGID_75_);}
	.st45{clip-path:url(#SVGID_77_);fill:url(#SVGID_78_);}
	.st46{clip-path:url(#SVGID_73_);}
	.st47{clip-path:url(#SVGID_80_);}
	.st48{filter:url(#Adobe_OpacityMaskFilter_4_);}
	.st49{clip-path:url(#SVGID_82_);fill:url(#SVGID_84_);}
	.st50{clip-path:url(#SVGID_82_);mask:url(#SVGID_83_);fill:url(#SVGID_85_);}
</style>
<g>
	<defs>
		<rect id="SVGID_1_" x="14" y="254" width="129.6" height="129.6"/>
	</defs>
	<clipPath id="SVGID_2_">
		<use xlink:href="#SVGID_1_"  style="overflow:visible;"/>
	</clipPath>
	<g class="st0">
		<g>
			<defs>
				<rect id="SVGID_3_" x="14" y="283.7" width="100" height="100"/>
			</defs>
			<clipPath id="SVGID_4_">
				<use xlink:href="#SVGID_3_"  style="overflow:visible;"/>
			</clipPath>
			<g class="st1">
				<defs>
					<rect id="SVGID_5_" x="14" y="283.7" width="100" height="100"/>
				</defs>
				<clipPath id="SVGID_6_">
					<use xlink:href="#SVGID_5_"  style="overflow:visible;"/>
				</clipPath>
				<path class="st2" d="M114,372.8c-5.1,4.9-12,8-19.6,8H16.8v-77.6c0-7.6,3-14.5,8-19.6l-2.8,2.8c-4.9,5.1-8,12-8,19.6v77.6h77.6
					c7.7,0,14.7-3.1,19.7-8.1L114,372.8z"/>
			</g>
		</g>
	</g>
	<path class="st3" d="M68.4,254c-9.4,0-18.4,3.7-25.1,10.5c-6.7,6.7-10.5,15.6-10.5,25v75.3H108c19.6,0,35.6-16,35.6-35.6V254H68.4z
		"/>
</g>
<g>
	<defs>
		<path id="SVGID_7_" d="M108,364.8H32.8v0l-16,16h77.6c7.6,0,14.5-3,19.6-8l11.8-11.8l-0.6-0.6C120,363.2,114.2,364.8,108,364.8"/>
	</defs>
	<clipPath id="SVGID_8_">
		<use xlink:href="#SVGID_7_"  style="overflow:visible;"/>
	</clipPath>
	
		<linearGradient id="SVGID_9_" gradientUnits="userSpaceOnUse" x1="1.0488" y1="601.0488" x2="2.0488" y2="601.0488" gradientTransform="matrix(0 -20.4779 -20.4779 0 12379.4971 402.4476)">
		<stop  offset="0" style="stop-color:#10B0E6"/>
		<stop  offset="0.1593" style="stop-color:#0FAAE1"/>
		<stop  offset="0.3678" style="stop-color:#0C9AD2"/>
		<stop  offset="0.6035" style="stop-color:#077FBA"/>
		<stop  offset="0.8576" style="stop-color:#015999"/>
		<stop  offset="0.89" style="stop-color:#005494"/>
		<stop  offset="1" style="stop-color:#005494"/>
	</linearGradient>
	<rect x="16.8" y="360.4" class="st4" width="108.9" height="20.4"/>
</g>
<g>
	<defs>
		<path id="SVGID_10_" d="M24.8,283.7c-4.9,5.1-8,12-8,19.6v77.6l16-16v-75.3c0-6,1.5-11.8,4.4-16.9l-0.6-0.6L24.8,283.7z"/>
	</defs>
	<clipPath id="SVGID_11_">
		<use xlink:href="#SVGID_10_"  style="overflow:visible;"/>
	</clipPath>
	
		<linearGradient id="SVGID_12_" gradientUnits="userSpaceOnUse" x1="1.0091" y1="601.0092" x2="2.0091" y2="601.0092" gradientTransform="matrix(0 -109.4055 -109.4055 0 65780.7344 492.0907)">
		<stop  offset="0" style="stop-color:#0081BD"/>
		<stop  offset="0.3934" style="stop-color:#006FAC"/>
		<stop  offset="0.85" style="stop-color:#005494"/>
		<stop  offset="1" style="stop-color:#005494"/>
	</linearGradient>
	<rect x="16.8" y="271.9" class="st5" width="20.4" height="108.9"/>
</g>
<g>
	<defs>
		<path id="SVGID_13_" d="M108,364.8H32.8v0l-16,16h77.6c7.6,0,14.5-3,19.6-8l11.8-11.8l-0.6-0.6C120,363.2,114.2,364.8,108,364.8"
			/>
	</defs>
	<clipPath id="SVGID_14_">
		<use xlink:href="#SVGID_13_"  style="overflow:visible;"/>
	</clipPath>
	
		<linearGradient id="SVGID_15_" gradientUnits="userSpaceOnUse" x1="0.9907" y1="601.0093" x2="1.9907" y2="601.0093" gradientTransform="matrix(107.7467 0 0 -107.7467 -89.5236 65127.3477)">
		<stop  offset="0" style="stop-color:#10B0E6"/>
		<stop  offset="0.1611" style="stop-color:#0FAAE1"/>
		<stop  offset="0.3719" style="stop-color:#0C9AD2"/>
		<stop  offset="0.6102" style="stop-color:#077FBA"/>
		<stop  offset="0.8672" style="stop-color:#015999"/>
		<stop  offset="0.9" style="stop-color:#005494"/>
		<stop  offset="1" style="stop-color:#005494"/>
	</linearGradient>
	<rect x="16.8" y="360.4" class="st6" width="108.9" height="20.4"/>
</g>
<g>
	<defs>
		<path id="SVGID_16_" d="M24.8,283.7c-4.9,5.1-8,12-8,19.6v77.6l16-16v-75.3c0-6,1.5-11.8,4.4-16.9l-0.6-0.6L24.8,283.7z"/>
	</defs>
	<clipPath id="SVGID_17_">
		<use xlink:href="#SVGID_16_"  style="overflow:visible;"/>
	</clipPath>
	
		<linearGradient id="SVGID_18_" gradientUnits="userSpaceOnUse" x1="1.0091" y1="601.0092" x2="2.0091" y2="601.0092" gradientTransform="matrix(0 -109.4055 -109.4055 0 65780.7344 492.0907)">
		<stop  offset="0" style="stop-color:#0081BD"/>
		<stop  offset="0.3934" style="stop-color:#006FAC"/>
		<stop  offset="0.85" style="stop-color:#005494"/>
		<stop  offset="1" style="stop-color:#005494"/>
	</linearGradient>
	<rect x="16.8" y="271.9" class="st7" width="20.4" height="108.9"/>
</g>
<g>
	<defs>
		<path id="SVGID_19_" d="M68.4,258.5c-17,0-31.1,14.1-31.1,30.9v70.8l0,0H108c17.1,0,31.1-13.9,31.1-31.1v-70.7H68.4z"/>
	</defs>
	<clipPath id="SVGID_20_">
		<use xlink:href="#SVGID_19_"  style="overflow:visible;"/>
	</clipPath>
	
		<linearGradient id="SVGID_21_" gradientUnits="userSpaceOnUse" x1="1" y1="601.01" x2="2" y2="601.01" gradientTransform="matrix(101.5057 -101.5057 -101.5057 -101.5057 60942.1016 61467.4023)">
		<stop  offset="0" style="stop-color:#67CDF5"/>
		<stop  offset="3.486007e-02" style="stop-color:#63C9F2"/>
		<stop  offset="0.4816" style="stop-color:#2D97D0"/>
		<stop  offset="0.8167" style="stop-color:#0C78BB"/>
		<stop  offset="1" style="stop-color:#006CB3"/>
		<stop  offset="1" style="stop-color:#006CB3"/>
	</linearGradient>
	<polygon class="st8" points="-13.5,309.4 88.2,207.7 190,309.4 88.2,411.1 	"/>
</g>
<g>
	<defs>
		<path id="SVGID_22_" d="M68.4,258.5c-17,0-31.1,14.1-31.1,30.9v70.8H108c17.1,0,31.1-13.9,31.1-31.1v-70.7H68.4z"/>
	</defs>
	<clipPath id="SVGID_23_">
		<use xlink:href="#SVGID_22_"  style="overflow:visible;"/>
	</clipPath>
	<rect x="27.9" y="350.9" class="st9" width="114.7" height="28.4"/>
</g>
<g>
	<defs>
		<path id="SVGID_24_" d="M83.4,356c0,1.9,9.2,3.4,20.5,3.4c5.9,0,11.2-0.4,14.9-1c1.9-0.7,3.8-1.6,5.5-2.7c-1.2-1.7-9.9-3-20.4-3
			C92.6,352.7,83.4,354.2,83.4,356"/>
	</defs>
	<clipPath id="SVGID_25_">
		<use xlink:href="#SVGID_24_"  style="overflow:visible;"/>
	</clipPath>
	
		<radialGradient id="SVGID_26_" cx="0.9296" cy="601.2508" r="1" gradientTransform="matrix(14.1964 0 0 -3.9873 90.5399 2753.144)" gradientUnits="userSpaceOnUse">
		<stop  offset="0" style="stop-color:#75301A"/>
		<stop  offset="0.378" style="stop-color:#78311B"/>
		<stop  offset="0.6837" style="stop-color:#82341D"/>
		<stop  offset="0.9633" style="stop-color:#933A20"/>
		<stop  offset="1" style="stop-color:#963B21"/>
	</radialGradient>
	<rect x="83.4" y="352.7" class="st10" width="41" height="6.7"/>
</g>
<g>
	<defs>
		<path id="SVGID_27_" d="M47.6,356c0,1.7,8.7,3.1,19.6,3.2h1c10.9,0,19.6-1.4,19.6-3.2c0-1.7-9-3.2-20.1-3.2
			C56.6,352.9,47.6,354.3,47.6,356"/>
	</defs>
	<clipPath id="SVGID_28_">
		<use xlink:href="#SVGID_27_"  style="overflow:visible;"/>
	</clipPath>
	
		<radialGradient id="SVGID_29_" cx="0.928" cy="601.2668" r="1" gradientTransform="matrix(13.8807 0 0 -3.7476 54.6305 2609.1162)" gradientUnits="userSpaceOnUse">
		<stop  offset="0" style="stop-color:#75301A"/>
		<stop  offset="0.378" style="stop-color:#78311B"/>
		<stop  offset="0.6837" style="stop-color:#82341D"/>
		<stop  offset="0.9633" style="stop-color:#933A20"/>
		<stop  offset="1" style="stop-color:#963B21"/>
	</radialGradient>
	<rect x="47.6" y="352.9" class="st11" width="40.2" height="6.3"/>
</g>
<g>
	<defs>
		<rect id="SVGID_30_" x="14" y="254" width="129.6" height="129.6"/>
	</defs>
	<clipPath id="SVGID_31_">
		<use xlink:href="#SVGID_30_"  style="overflow:visible;"/>
	</clipPath>
	<path class="st12" d="M134,319.8c-0.1-1.5-2-2-3.2-2.6c-4.6-2.3-4.1-8-5.9-12.1c-1.4-3.4-3.5-6.5-6.1-9.1c-2.7-3.2-3.7-4.2-12.8-9
		c-6.8-3.1-14.4-4.6-21.9-4.6c-18.4,0-34.1,8.9-40.1,21.4c-0.4,0.8-0.7,1.6-1,2.4c-1.1,2.9-1.7,6-1.7,9.2c0,0.7,0,1.3,0.1,2
		c4.4,4.6,9.1,8.1,13.8,10.6c1.2,0.6,2.4,1.2,3.5,1.7c1.5,0.7,3,1.2,4.4,1.7c0.9,0.3,1.8,0.6,2.7,0.8c1.2,0.3,2.4,0.6,3.6,0.8
		c0.9,0.2,1.8,0.3,2.7,0.5c-0.9-0.1-1.8-0.3-2.7-0.5c-1.2-0.2-2.4-0.5-3.6-0.8c-0.9-0.2-1.8-0.5-2.7-0.8c-1.5-0.5-3-1.1-4.4-1.7
		c-1.2-0.5-2.4-1.1-3.5-1.7c-4.7-2.6-9.3-6-13.8-10.6c0.2,2.3,0.7,4.5,1.4,6.6l0,0c3.1,10.6,17.3,32.1,20.3,32.1h9.5
		c1.3,0,2.1-0.5,2.7-1.2c0.8-1,1-2.4,0.9-3.8c0-0.8-0.3-4-0.1-4.8c0.1-0.2,0.1-1.4,0.3-1.6c0,0,0,0,0-0.1c2.5,0.4,5.1,1,7.7,1
		c3.1,0,6.3-0.3,9.4-0.8c0.5,2.7,1.9,11.2,4.6,11.2c0,0,8.6,0,8.6,0c1.2,0,4.3-0.4,4.9-1.4c0.3-0.4,0.5-0.9,0.6-1.4
		c0.5-3-0.1-6.1-0.3-9.1c0-0.4,0-0.8,0-1.2c0-0.5,0.1-1.1,0.3-1.6c0.3-0.7,0.8-1.3,1.3-1.9c1.1-0.8,2.2-1.7,3.1-2.6
		c2.9-2.8,3.5-3.6,7.6-4.6c2.5-0.6,4.8-1.7,7.1-2.9c1.1-0.5,1.5-1.4,1.5-2.6c0,0,0-0.1,0-0.1c0-1.5,0.1-2.8,0.6-4.3
		C133.7,321.4,134,320.6,134,319.8 M75.6,333.9c1.5,0.1,2.9,0.2,4.4,0.2C78.5,334.1,77.1,334,75.6,333.9 M110.6,327.7
		c-0.3,0.1-0.5,0.2-0.8,0.3c-4,1.5-8.4,3-13.1,4.1c-1.8,0.4-3.7,0.8-5.6,1.1c-0.8,0.1-1.7,0.3-2.5,0.4c-1.4,0.2-2.8,0.3-4.2,0.4
		c-0.6,0-1.1,0.1-1.7,0.1c0.6,0,1.1-0.1,1.7-0.1c1.4-0.1,2.8-0.2,4.2-0.4c0.8-0.1,1.7-0.2,2.5-0.4c1.9-0.3,3.8-0.7,5.6-1.1
		c4.8-1.2,9.3-2.6,13.1-4.1C110,327.9,110.3,327.8,110.6,327.7c3.5-1.3,6.9-2.9,10.6-3.3C117.5,324.8,114,326.3,110.6,327.7
		 M122.8,324.2c0.4,0,0.9,0,1.3,0C123.7,324.2,123.3,324.2,122.8,324.2 M129.2,325.2c-0.4-0.1-0.8-0.2-1.2-0.4
		c-0.8-0.2-1.7-0.4-2.5-0.5c0.9,0.1,1.7,0.3,2.5,0.5C128.4,324.9,128.8,325,129.2,325.2c0.4,0.1,0.8,0.3,1.2,0.4
		C130.1,325.4,129.6,325.3,129.2,325.2"/>
	<path class="st12" d="M42.5,307c-0.9-0.6-1.6-1.4-2.1-2.6c2.1-0.9,3.8-2.5,5.2-4.7c1.1-1.8,1.2-3.8,0.2-5.2
		c-0.5-0.7-1.8-1.9-4.4-1.6c-1.4,0.1-2.6,0.8-3.4,1.8c-1.6,1.9-1.9,4.8-1.7,6.7c0,0.3,0.1,0.6,0.1,0.9c-1.6,0.1-2.9,0-4.6-0.3
		c-0.7-0.1-1.7-0.5-2.4-0.8l-5-2.3c2.2,2.7,9.7,6.8,12.8,6.4c0.8,1.9,1.9,3.3,3.5,4.3c1.2,0.7,2.5,1.1,3.8,1.3c0.3-1,0.7-2,1.3-2.9
		C44.6,307.8,43.5,307.6,42.5,307 M39.5,301c-0.2-1.5,0.1-3.5,1-4.5c0.3-0.4,0.7-0.6,1.2-0.6c0.1,0,0.2,0,0.3,0
		c0.4,0,0.6,0.1,0.8,0.4c0.3,0.4,0.3,1.2-0.3,2.1c-0.9,1.5-1.7,2.4-2.9,3.1C39.5,301.3,39.5,301.2,39.5,301"/>
	<g class="st13">
		<g>
			<defs>
				<rect id="SVGID_32_" x="46.8" y="288.7" width="22.2" height="22.4"/>
			</defs>
			<clipPath id="SVGID_33_">
				<use xlink:href="#SVGID_32_"  style="overflow:visible;"/>
			</clipPath>
			<g class="st14">
				<defs>
					<rect id="SVGID_34_" x="46.8" y="288.7" width="22.2" height="22.4"/>
				</defs>
				<clipPath id="SVGID_35_">
					<use xlink:href="#SVGID_34_"  style="overflow:visible;"/>
				</clipPath>
				<path class="st15" d="M55.4,294.9c-5.2,4.3-6.9,7.4-8,11.6c-0.1,0.5-0.2,1-0.3,1.5c-0.2,1-0.2,2-0.2,3c0,0,0-0.1,0-0.1
					c1.3-4.7,4.4-8.8,9.2-12.5c3.6-2.7,9.1-5.6,13-6.6c-1.8-1-2.1-2.2-2.2-3.2C66.9,288.7,59.6,291.4,55.4,294.9"/>
			</g>
		</g>
	</g>
	<path class="st16" d="M118.3,308.1c-1.2,0.2-2,1.8-1.7,3.6c0.3,1.8,1.6,3,2.8,2.8c1.2-0.2,2-1.8,1.7-3.6
		C120.8,309.2,119.5,307.9,118.3,308.1"/>
	<path class="st12" d="M101.8,290.3c2.9,5,8.5,7.3,13.1,5.6c0.5-0.2,0.8-0.7,0.7-1.2c-0.3-2.1-0.3-4,0.1-5.8
		c0.4-1.7,1.2-3.3,2.7-4.9c1-1.1-0.4-3.1-2.2-3.4c-1.9-0.3-3.9,0.1-5.3,1.1c-4.8,3.4-8.4,7.1-8.8,7.5
		C101.7,289.6,101.5,289.7,101.8,290.3"/>
	<path class="st17" d="M109.2,292.9c1.3-1.2,3-2,4.8-2.1c-0.1-0.5-0.2-1.1-0.1-1.5c0.2-1.8,1.1-2.7,2.2-4.1c0.2-0.3,0.7-1,0.8-1.3
		c0.5-1.3-2.1-1.3-2.8-1.2c-1.9,0.4-4.1,2-5.4,4C107.2,288.8,107.3,291.5,109.2,292.9"/>
	<path class="st18" d="M93.8,285.9c-4.9-1.6-14.7-1.5-19.6,0.3c-0.9,0.3-1.1,1.2-0.6,1.8l0,0c0.4,0.5,1.2,0.6,1.8,0.4
		c4.1-1.6,13.1-1.9,17.1-0.3c0.6,0.3,1.4,0.1,1.8-0.4l0,0C95.1,287.1,94.7,286.2,93.8,285.9"/>
	<path class="st19" d="M77.1,288c2.5-0.6,5-1,7.5-1c2.2,0,4.3,0.2,6.3,0.7c2.8-2.1,4.6-5.5,4.6-9.3c0-6.5-5.2-11.7-11.7-11.7
		s-11.7,5.2-11.7,11.7C72.1,282.4,74.1,285.9,77.1,288"/>
	<path class="st20" d="M78.5,287.7c2-0.4,4.1-0.6,6.2-0.6c1.6,0,3.1,0.1,4.6,0.4c3-1.9,5-5.2,5-9c0-5.9-4.8-10.6-10.6-10.6
		S73,272.6,73,278.4C73,282.4,75.2,285.9,78.5,287.7"/>
	<path class="st21" d="M79,287.6c1.9-0.4,3.7-0.5,5.6-0.5c1.7,0,3.4,0.1,5,0.4c3-1.9,5-5.2,5-9c0-5.9-4.7-10.6-10.4-10.6
		c-5.7,0-10.4,4.8-10.4,10.6C73.8,282.4,75.9,285.8,79,287.6"/>
	<path class="st22" d="M78.7,287.7c2-0.4,3.9-0.6,5.9-0.6c1.6,0,3.1,0.1,4.7,0.4c2.9-1.9,4.9-5.2,4.9-9c0-5.9-4.6-10.6-10.4-10.6
		c-5.7,0-10.4,4.8-10.4,10.6C73.4,282.4,75.5,285.8,78.7,287.7"/>
	<path class="st20" d="M81.5,287.2c1-0.1,2.1-0.2,3.1-0.2c0.8,0,1.5,0,2.2,0.1c3.7-1.2,6.3-4.6,6.3-8.7c0-5.1-3.6-9.2-9.2-9.2
		c-5.1,0-9.2,4.1-9.2,9.2C74.9,282.6,77.7,286.1,81.5,287.2"/>
	<path class="st21" d="M81.3,287.3c1.1-0.1,2.2-0.2,3.3-0.2c0.6,0,1.2,0,1.8,0.1c3.6-1.2,6.1-4.6,6.1-8.7c0-5.1-4-9.2-9-9.2
		s-9,4.1-9,9.2C74.7,282.7,77.5,286.2,81.3,287.3"/>
	<path class="st19" d="M81.5,287.2c1-0.1,2.1-0.2,3.1-0.2c0.7,0,1.4,0,2.1,0.1c3.6-1.2,6.1-4.6,6.1-8.7c0-5.1-4-9.2-8.9-9.2
		c-4.9,0-8.9,4.1-8.9,9.2C75.1,282.6,77.8,286.1,81.5,287.2"/>
</g>
<g>
	<defs>
		<path id="SVGID_36_" d="M84.3,334c1.4-0.1,2.8-0.2,4.2-0.4c0.8-0.1,1.7-0.2,2.5-0.4c1.9-0.3,3.8-0.7,5.6-1.1c4.8-1.2,9.2-2.6,13-4
			c-3.9,1.5-8.3,2.9-13,4c-1.8,0.4-3.7,0.8-5.6,1.1c-0.8,0.1-1.7,0.3-2.5,0.4C87.1,333.7,85.7,333.9,84.3,334
			c-0.6,0-1.1,0.1-1.7,0.1C83.2,334,83.7,334,84.3,334 M109.8,328c0.3-0.1,0.5-0.2,0.8-0.3c3.5-1.3,6.9-2.9,10.6-3.3
			c-3.6,0.5-7.1,2-10.6,3.3C110.3,327.8,110,327.9,109.8,328L109.8,328 M123.1,324.2c-0.1,0-0.2,0-0.2,0
			C122.9,324.2,123,324.2,123.1,324.2 M123.3,324.2L123.3,324.2L123.3,324.2z M44,303.8c-0.4,0.8-0.7,1.6-1,2.4
			c-1.1,2.9-1.7,6-1.7,9.2c0,0.7,0,1.3,0.1,2c0.2,2.3,0.7,4.5,1.4,6.6h0c3.1,10.6,17.3,32.1,20.3,32.1h9.5c1.3,0,2.1-0.5,2.7-1.2
			c0.8-1,1-2.4,0.9-3.8c0-0.8-0.3-4-0.1-4.8c0.1-0.2,0.1-1.4,0.3-1.6c0,0,0,0,0-0.1c2.5,0.4,5.1,1,7.7,1c3.1,0,6.3-0.3,9.4-0.8
			c0.5,2.7,1.9,11.2,4.6,11.2c0,0,8.6,0,8.6,0c1.2,0,4.3-0.4,4.9-1.4c0.3-0.4,0.5-0.9,0.6-1.4c0.5-3-0.1-6.1-0.3-9.1
			c0-0.4,0-0.8,0-1.2c0-0.5,0.1-1.1,0.3-1.6c0.3-0.7,0.8-1.3,1.3-1.9c1.1-0.8,2.2-1.7,3.1-2.6c2.9-2.8,3.5-3.6,7.6-4.6
			c2.5-0.6,4.8-1.7,7.1-2.8c1.1-0.5,1.5-1.4,1.5-2.6c0,0,0-0.1,0-0.1c0-1.5,0.1-2.8,0.6-4.3c0.3-0.8,0.6-1.6,0.5-2.5
			c-0.1-1.5-2-2-3.2-2.6c-4.6-2.3-4.1-8-5.9-12.1c-1.4-3.4-3.5-6.5-6.1-9.1c-2.7-3.2-3.7-4.2-12.8-9c-6.8-3.1-14.4-4.6-21.9-4.6
			C65.8,282.3,50.1,291.2,44,303.8"/>
	</defs>
	<clipPath id="SVGID_37_">
		<use xlink:href="#SVGID_36_"  style="overflow:visible;"/>
	</clipPath>
	<g class="st23">
		<g>
			<defs>
				<rect id="SVGID_38_" x="41.3" y="317.3" width="91.6" height="38.9"/>
			</defs>
			<clipPath id="SVGID_39_">
				<use xlink:href="#SVGID_38_"  style="overflow:visible;"/>
			</clipPath>
			<g class="st24">
				<defs>
					<path id="SVGID_40_" d="M41.3,317.3c0.2,2.3,0.7,4.5,1.4,6.7l0,0c1,3.5,3.3,8.2,5.9,13c5.4,9.6,12.4,19.2,14.4,19.2h9.5
						c0.8,0,2.1-0.4,2.5-0.9c2.2-2.3,0.3-7.2,1-9c0.1-0.2,0.1-1.3,0.2-1.5c0,0,0,0,0-0.1c2.5,0.4,5.1,1,7.7,1c3.1,0,6.3-0.3,9.4-0.8
						c0.5,2.7,1.9,11.2,4.6,11.2c0,0,8.6,0,8.6,0c1.2,0,4.3-0.4,4.9-1.4c1.7-3.2,0.2-7.9,0.3-10.3c0-0.1-0.1-1.5,0-1.5
						c0-0.5,0.1-1.1,0.3-1.6c0.3-0.7,0.8-1.3,1.3-1.9c1.1-0.8,2.2-1.7,3.1-2.6c2.9-2.8,3.5-3.7,7.6-4.6c2.5-0.6,4.8-1.7,7.1-2.9
						c1.1-0.5,1.5-1.4,1.5-2.6c0,0,0,0,0-0.1v-0.1c-3.2-1.5-6.6-2.5-10.1-2.4c-4.6,0.1-8.8,2.2-13.1,3.8c-4,1.5-8.4,3-13.2,4.1
						C79.8,336,59.1,335.7,41.3,317.3z"/>
				</defs>
				<clipPath id="SVGID_41_">
					<use xlink:href="#SVGID_40_"  style="overflow:visible;"/>
				</clipPath>
				<defs>
					<filter id="Adobe_OpacityMaskFilter" filterUnits="userSpaceOnUse" x="41.3" y="317.3" width="91.6" height="38.9">
						<feColorMatrix  type="matrix" values="1 0 0 0 0  0 1 0 0 0  0 0 1 0 0  0 0 0 1 0"/>
					</filter>
				</defs>
				<mask maskUnits="userSpaceOnUse" x="41.3" y="317.3" width="91.6" height="38.9" id="SVGID_42_">
					<g class="st25">
						
							<linearGradient id="SVGID_43_" gradientUnits="userSpaceOnUse" x1="0.9569" y1="600.957" x2="1.9569" y2="600.957" gradientTransform="matrix(0 23.2109 23.2109 0 -13861.5596 302.4316)">
							<stop  offset="0" style="stop-color:#B3B3B3"/>
							<stop  offset="1" style="stop-color:#FFFFFF"/>
						</linearGradient>
						<rect x="41.3" y="317.3" class="st26" width="91.6" height="38.9"/>
					</g>
				</mask>
				
					<linearGradient id="SVGID_44_" gradientUnits="userSpaceOnUse" x1="0.9569" y1="600.9569" x2="1.9569" y2="600.9569" gradientTransform="matrix(0 23.2109 23.2109 0 -13861.5586 302.4316)">
					<stop  offset="0" style="stop-color:#F5A8C2"/>
					<stop  offset="1" style="stop-color:#AF5F73"/>
				</linearGradient>
				<rect x="41.3" y="317.3" class="st27" width="91.6" height="38.9"/>
			</g>
		</g>
	</g>
	<g class="st23">
		<g>
			<defs>
				<rect id="SVGID_45_" x="101.1" y="342.5" width="11.4" height="12.4"/>
			</defs>
			<clipPath id="SVGID_46_">
				<use xlink:href="#SVGID_45_"  style="overflow:visible;"/>
			</clipPath>
			<g class="st28">
				<defs>
					<path id="SVGID_47_" d="M111.7,342.5c-3.4,0.6-7.3,1.4-10,3.6c-0.5,0.4-0.6,1-0.6,1.7v0.1c0,0.9,0.2,1.8,0.3,2.5
						c0.1,1.3,0.3,3.1,1.6,3.8c0.2,0.1,0.5,0.2,0.8,0.3c1,0.2,2.6,0.4,4.2,0.4h0.1c1.4,0,2.8-0.2,3.8-0.6c0.4-0.8,0.6-1.9,0.6-3.4
						v-0.2c0-1.4-0.1-3-0.4-4.9c-0.1-1-0.1-2.1-0.1-3.3C111.9,342.5,111.8,342.5,111.7,342.5"/>
				</defs>
				<clipPath id="SVGID_48_">
					<use xlink:href="#SVGID_47_"  style="overflow:visible;"/>
				</clipPath>
				<defs>
					<filter id="Adobe_OpacityMaskFilter_1_" filterUnits="userSpaceOnUse" x="98.9" y="340.5" width="15.7" height="16.4">
						<feColorMatrix  type="matrix" values="1 0 0 0 0  0 1 0 0 0  0 0 1 0 0  0 0 0 1 0"/>
					</filter>
				</defs>
				<mask maskUnits="userSpaceOnUse" x="98.9" y="340.5" width="15.7" height="16.4" id="SVGID_49_">
					<g class="st29">
						<g>
							<defs>
								
									<rect id="SVGID_50_" x="99.3" y="341.8" transform="matrix(0.1771 -0.9842 0.9842 0.1771 -255.5864 392.1077)" width="14.8" height="14.1"/>
							</defs>
							<clipPath id="SVGID_51_" class="st30">
								<use xlink:href="#SVGID_50_"  style="overflow:visible;"/>
							</clipPath>
							
								<linearGradient id="SVGID_52_" gradientUnits="userSpaceOnUse" x1="0.7751" y1="601.0362" x2="1.7751" y2="601.0362" gradientTransform="matrix(5.0813 0.9143 0.9143 -5.0813 -450.2771 3401.6252)">
								<stop  offset="0" style="stop-color:#000000"/>
								<stop  offset="0.1645" style="stop-color:#414141"/>
								<stop  offset="0.3291" style="stop-color:#7A7A7A"/>
								<stop  offset="0.4889" style="stop-color:#AAAAAA"/>
								<stop  offset="0.6396" style="stop-color:#CFCFCF"/>
								<stop  offset="0.7792" style="stop-color:#E9E9E9"/>
								<stop  offset="0.9033" style="stop-color:#F9F9F9"/>
								<stop  offset="0.9995" style="stop-color:#FFFFFF"/>
								<stop  offset="1" style="stop-color:#FFFFFF"/>
							</linearGradient>
							<polygon class="st31" points="98.9,337.5 117.9,340.9 114.4,360.3 95.5,356.9 							"/>
						</g>
					</g>
				</mask>
				
					<linearGradient id="SVGID_53_" gradientUnits="userSpaceOnUse" x1="0.7751" y1="601.0772" x2="1.7751" y2="601.0772" gradientTransform="matrix(5.0813 0.9143 0.9143 -5.0813 -450.2771 3401.6255)">
					<stop  offset="0" style="stop-color:#F393A9"/>
					<stop  offset="0.2419" style="stop-color:#F49EB5"/>
					<stop  offset="0.6681" style="stop-color:#F6ACC5"/>
					<stop  offset="0.9995" style="stop-color:#F6B1CB"/>
					<stop  offset="1" style="stop-color:#F6B1CB"/>
				</linearGradient>
				<polygon class="st32" points="101.4,340.5 114.6,342.9 112.1,356.9 98.9,354.5 				"/>
			</g>
		</g>
	</g>
	<g class="st23">
		<g>
			<defs>
				<rect id="SVGID_54_" x="64.4" y="345.7" width="11.9" height="9.9"/>
			</defs>
			<clipPath id="SVGID_55_">
				<use xlink:href="#SVGID_54_"  style="overflow:visible;"/>
			</clipPath>
			<g class="st33">
				<defs>
					<path id="SVGID_56_" d="M65.2,348.7c-1.2,1.6-1.2,5.6,1,6.4c1.8,0.6,5.7,0.4,7.6,0.3c1.3-0.1,1.7-0.2,2.3-2.2
						c0,0,0.2-1.3,0.2-1.6v0c-0.1-2.8-0.3-4-0.1-5.5c-0.4-0.2-1.4-0.4-2.7-0.4C70.8,345.7,67,346.4,65.2,348.7"/>
				</defs>
				<clipPath id="SVGID_57_">
					<use xlink:href="#SVGID_56_"  style="overflow:visible;"/>
				</clipPath>
				<defs>
					<filter id="Adobe_OpacityMaskFilter_2_" filterUnits="userSpaceOnUse" x="62.3" y="343.6" width="15.8" height="14.4">
						<feColorMatrix  type="matrix" values="1 0 0 0 0  0 1 0 0 0  0 0 1 0 0  0 0 0 1 0"/>
					</filter>
				</defs>
				<mask maskUnits="userSpaceOnUse" x="62.3" y="343.6" width="15.8" height="14.4" id="SVGID_58_">
					<g class="st34">
						<g>
							<defs>
								
									<rect id="SVGID_59_" x="63.9" y="343.6" transform="matrix(0.1779 -0.9841 0.9841 0.1779 -287.2815 357.256)" width="12.5" height="14"/>
							</defs>
							<clipPath id="SVGID_60_" class="st35">
								<use xlink:href="#SVGID_59_"  style="overflow:visible;"/>
							</clipPath>
							
								<linearGradient id="SVGID_61_" gradientUnits="userSpaceOnUse" x1="0.876" y1="601.0698" x2="1.876" y2="601.0698" gradientTransform="matrix(9.2231 1.6668 1.6668 -9.2231 -944.8508 5891.9072)">
								<stop  offset="0" style="stop-color:#000000"/>
								<stop  offset="0.1645" style="stop-color:#414141"/>
								<stop  offset="0.3291" style="stop-color:#7A7A7A"/>
								<stop  offset="0.4889" style="stop-color:#AAAAAA"/>
								<stop  offset="0.6396" style="stop-color:#CFCFCF"/>
								<stop  offset="0.7792" style="stop-color:#E9E9E9"/>
								<stop  offset="0.9033" style="stop-color:#F9F9F9"/>
								<stop  offset="0.9995" style="stop-color:#FFFFFF"/>
								<stop  offset="1" style="stop-color:#FFFFFF"/>
							</linearGradient>
							<polygon class="st36" points="62.7,340.4 80.7,343.7 77.6,360.7 59.6,357.5 							"/>
						</g>
					</g>
				</mask>
				
					<linearGradient id="SVGID_62_" gradientUnits="userSpaceOnUse" x1="0.876" y1="601.0508" x2="1.876" y2="601.0508" gradientTransform="matrix(9.2231 1.6668 1.6668 -9.2231 -944.8506 5891.9067)">
					<stop  offset="0" style="stop-color:#F393A9"/>
					<stop  offset="0.2419" style="stop-color:#F49EB5"/>
					<stop  offset="0.6681" style="stop-color:#F6ACC5"/>
					<stop  offset="0.9995" style="stop-color:#F6B1CB"/>
					<stop  offset="1" style="stop-color:#F6B1CB"/>
				</linearGradient>
				<polygon class="st37" points="64.4,343.6 78.1,346 75.9,357.9 62.3,355.5 				"/>
			</g>
		</g>
	</g>
</g>
<g>
	<defs>
		<rect id="SVGID_63_" x="14" y="254" width="129.6" height="129.6"/>
	</defs>
	<clipPath id="SVGID_64_">
		<use xlink:href="#SVGID_63_"  style="overflow:visible;"/>
	</clipPath>
	<g class="st38">
		<g>
			<defs>
				<rect id="SVGID_65_" x="94.5" y="347.9" width="18.1" height="8.2"/>
			</defs>
			<clipPath id="SVGID_66_">
				<use xlink:href="#SVGID_65_"  style="overflow:visible;"/>
			</clipPath>
			<g class="st39">
				<defs>
					<path id="SVGID_67_" d="M112.3,347.9l-17.9,1.5v0c0.8,3.2,2,6.8,3.7,6.8c0,0,8.6,0,8.6,0c1.2,0,4.3-0.4,4.9-1.4
						C112.8,352.7,112.6,350.1,112.3,347.9L112.3,347.9z"/>
				</defs>
				<clipPath id="SVGID_68_">
					<use xlink:href="#SVGID_67_"  style="overflow:visible;"/>
				</clipPath>
				<defs>
					<filter id="Adobe_OpacityMaskFilter_3_" filterUnits="userSpaceOnUse" x="94.5" y="347.9" width="18.3" height="8.2">
						<feColorMatrix  type="matrix" values="1 0 0 0 0  0 1 0 0 0  0 0 1 0 0  0 0 0 1 0"/>
					</filter>
				</defs>
				<mask maskUnits="userSpaceOnUse" x="94.5" y="347.9" width="18.3" height="8.2" id="SVGID_69_">
					<g class="st40">
						
							<linearGradient id="SVGID_70_" gradientUnits="userSpaceOnUse" x1="0.8617" y1="600.8773" x2="1.8617" y2="600.8773" gradientTransform="matrix(0 7.2314 7.2314 0 -4241.5713 342.6431)">
							<stop  offset="0" style="stop-color:#000000"/>
							<stop  offset="0.3447" style="stop-color:#020202"/>
							<stop  offset="0.543" style="stop-color:#0B0B0B"/>
							<stop  offset="0.7041" style="stop-color:#191919"/>
							<stop  offset="0.8453" style="stop-color:#2C2C2C"/>
							<stop  offset="0.9723" style="stop-color:#464646"/>
							<stop  offset="0.9995" style="stop-color:#4D4D4D"/>
							<stop  offset="1" style="stop-color:#4D4D4D"/>
						</linearGradient>
						<rect x="94.5" y="347.9" class="st41" width="18.3" height="8.2"/>
					</g>
				</mask>
				
					<linearGradient id="SVGID_71_" gradientUnits="userSpaceOnUse" x1="0.8617" y1="600.8774" x2="1.8617" y2="600.8774" gradientTransform="matrix(0 7.2314 7.2314 0 -4241.5713 342.6431)">
					<stop  offset="0" style="stop-color:#231F20"/>
					<stop  offset="0.8588" style="stop-color:#231F20"/>
					<stop  offset="0.9995" style="stop-color:#231F20"/>
					<stop  offset="1" style="stop-color:#231F20"/>
				</linearGradient>
				<rect x="94.5" y="347.9" class="st42" width="18.3" height="8.2"/>
			</g>
		</g>
	</g>
</g>
<g>
	<defs>
		<path id="SVGID_72_" d="M76.2,349.4l-18.9,0.7c2.7,3.6,4.9,6,5.9,6h9.5c1.3,0,2.1-0.5,2.7-1.2c0.8-1,1-2.4,0.9-3.8
			C76.3,350.8,76.2,350.1,76.2,349.4l-0.1-1.7C76.1,348.2,76.1,348.8,76.2,349.4"/>
	</defs>
	<clipPath id="SVGID_73_">
		<use xlink:href="#SVGID_72_"  style="overflow:visible;"/>
	</clipPath>
	<g class="st43">
		<g>
			<defs>
				<rect id="SVGID_74_" x="48.7" y="336.9" width="8" height="12.6"/>
			</defs>
			<clipPath id="SVGID_75_">
				<use xlink:href="#SVGID_74_"  style="overflow:visible;"/>
			</clipPath>
			<g class="st44">
				<defs>
					<path id="SVGID_76_" d="M56.7,349.5l-8-12.6C51.2,341.4,54.1,345.9,56.7,349.5"/>
				</defs>
				<clipPath id="SVGID_77_">
					<use xlink:href="#SVGID_76_"  style="overflow:visible;"/>
				</clipPath>
				
					<linearGradient id="SVGID_78_" gradientUnits="userSpaceOnUse" x1="0.9095" y1="600.9095" x2="1.9095" y2="600.9095" gradientTransform="matrix(0 11.0496 11.0496 0 -6587.1177 328.4171)">
					<stop  offset="0" style="stop-color:#F5A8C2"/>
					<stop  offset="0.2027" style="stop-color:#EB9AB3"/>
					<stop  offset="0.7184" style="stop-color:#D57B92"/>
					<stop  offset="1" style="stop-color:#CD6F85"/>
				</linearGradient>
				<rect x="48.7" y="336.9" class="st45" width="8" height="12.6"/>
			</g>
		</g>
	</g>
	<g class="st46">
		<g>
			<defs>
				<rect id="SVGID_79_" x="56.7" y="349.4" width="19.6" height="6.8"/>
			</defs>
			<clipPath id="SVGID_80_">
				<use xlink:href="#SVGID_79_"  style="overflow:visible;"/>
			</clipPath>
			<g class="st47">
				<defs>
					<path id="SVGID_81_" d="M56.7,349.5c2.9,4,5.4,6.7,6.4,6.7h9.5c0.8,0,2.1-0.4,2.5-0.9c0.9-0.9,1.1-2.2,1.1-3.6v-0.1
						c0-0.7-0.1-1.5-0.1-2.2L56.7,349.5z"/>
				</defs>
				<clipPath id="SVGID_82_">
					<use xlink:href="#SVGID_81_"  style="overflow:visible;"/>
				</clipPath>
				<defs>
					<filter id="Adobe_OpacityMaskFilter_4_" filterUnits="userSpaceOnUse" x="56.7" y="349.4" width="19.6" height="6.8">
						<feColorMatrix  type="matrix" values="1 0 0 0 0  0 1 0 0 0  0 0 1 0 0  0 0 0 1 0"/>
					</filter>
				</defs>
				<mask maskUnits="userSpaceOnUse" x="56.7" y="349.4" width="19.6" height="6.8" id="SVGID_83_">
					<g class="st48">
						
							<linearGradient id="SVGID_84_" gradientUnits="userSpaceOnUse" x1="0.8319" y1="600.8527" x2="1.8319" y2="600.8527" gradientTransform="matrix(0 5.9503 5.9503 0 -3508.6165 345.2576)">
							<stop  offset="0" style="stop-color:#000000"/>
							<stop  offset="0.3447" style="stop-color:#020202"/>
							<stop  offset="0.543" style="stop-color:#0B0B0B"/>
							<stop  offset="0.7041" style="stop-color:#191919"/>
							<stop  offset="0.8453" style="stop-color:#2C2C2C"/>
							<stop  offset="0.9722" style="stop-color:#464646"/>
							<stop  offset="0.9995" style="stop-color:#4D4D4D"/>
							<stop  offset="1" style="stop-color:#4D4D4D"/>
						</linearGradient>
						<rect x="56.7" y="349.4" class="st49" width="19.8" height="6.8"/>
					</g>
				</mask>
				
					<linearGradient id="SVGID_85_" gradientUnits="userSpaceOnUse" x1="0.8319" y1="600.8319" x2="1.8319" y2="600.8319" gradientTransform="matrix(0 5.9503 5.9503 0 -3508.6165 345.2576)">
					<stop  offset="0" style="stop-color:#231F20"/>
					<stop  offset="0.8588" style="stop-color:#231F20"/>
					<stop  offset="0.9995" style="stop-color:#231F20"/>
					<stop  offset="1" style="stop-color:#231F20"/>
				</linearGradient>
				<rect x="56.7" y="349.4" class="st50" width="19.6" height="6.8"/>
			</g>
		</g>
	</g>
</g>
</svg>
