<?xml version="1.0" encoding="utf-8"?>
<!-- Generator: Adobe Illustrator 22.1.0, SVG Export Plug-In . SVG Version: 6.00 Build 0)  -->
<svg version="1.1" id="Layer_1" xmlns="http://www.w3.org/2000/svg" xmlns:xlink="http://www.w3.org/1999/xlink" x="0px" y="0px"
	 viewBox="0 0 160 600" style="enable-background:new 0 0 160 600;" xml:space="preserve">
<style type="text/css">
	.st0{fill:#FFFFFF;}
	.st1{clip-path:url(#SVGID_2_);fill:#FFFFFF;}
	.st2{clip-path:url(#SVGID_4_);fill:url(#SVGID_5_);}
	.st3{clip-path:url(#SVGID_7_);fill:url(#SVGID_8_);}
	.st4{clip-path:url(#SVGID_10_);fill:url(#SVGID_11_);}
</style>
<path class="st0" d="M75.9,552.1v3.8h-6.8v18.3h-4.3v-18.3h-6.8v-3.8H75.9z M77.7,574.3H82v-11.1v-11.1h-4.3v11.1V574.3z
	 M104.2,574.3h-4.4l-2.3-5.5H90l-2.3,5.5h-4.3l9.4-22.5h1.9L104.2,574.3z M124.9,574.3h-4.4l-2.3-5.5h-7.5l-2.3,5.5h-4.3l9.4-22.5
	h1.9L124.9,574.3z M96,565.2l-2.3-5.5l-2.3,5.5H96z M116.7,565.2l-2.3-5.5l-2.3,5.5H116.7z"/>
<g>
	<defs>
		<rect id="SVGID_1_" x="22" y="543" width="108.6" height="37"/>
	</defs>
	<clipPath id="SVGID_2_">
		<use xlink:href="#SVGID_1_"  style="overflow:visible;"/>
	</clipPath>
	<path class="st1" d="M42.6,575.7c1.9,0,3.6-0.8,4.9-2l5.2-5.2c1.2-1.2,2-2.9,2-4.8v-16.3H38.4c-1.9,0-3.6,0.8-4.9,2l-5.2,5.2
		c-1.2,1.2-2,2.9-2,4.8v16.3H42.6z"/>
</g>
<g>
	<defs>
		<path id="SVGID_3_" d="M40.3,548.8c-3,0-5.4,2.4-5.4,5.3v1.8h11.2v11.2h1.8c3,0,5.4-2.4,5.4-5.4v-13H40.3z"/>
	</defs>
	<clipPath id="SVGID_4_">
		<use xlink:href="#SVGID_3_"  style="overflow:visible;"/>
	</clipPath>
	
		<linearGradient id="SVGID_5_" gradientUnits="userSpaceOnUse" x1="1" y1="601.0784" x2="2" y2="601.0784" gradientTransform="matrix(12.7555 -12.7555 -12.7555 -12.7555 7694.7803 8241.3516)">
		<stop  offset="0" style="stop-color:#9BDBF7"/>
		<stop  offset="0.1" style="stop-color:#9BDBF7"/>
		<stop  offset="0.9" style="stop-color:#009DDA"/>
		<stop  offset="1" style="stop-color:#009DDA"/>
	</linearGradient>
	<polygon class="st2" points="25.7,557.9 44.1,539.6 62.4,557.9 44.1,576.3 	"/>
</g>
<g>
	<defs>
		<path id="SVGID_6_" d="M47.9,568.6H33.4l-5.7,5.7h14.9c1.4,0,2.8-0.6,3.8-1.6l4.8-4.8l-0.1-0.1C50.1,568.3,49,568.6,47.9,568.6"/>
	</defs>
	<clipPath id="SVGID_7_">
		<use xlink:href="#SVGID_6_"  style="overflow:visible;"/>
	</clipPath>
	
		<linearGradient id="SVGID_8_" gradientUnits="userSpaceOnUse" x1="0.9575" y1="601.0425" x2="1.9575" y2="601.0425" gradientTransform="matrix(23.517 0 0 -23.517 5.2063 14705.7148)">
		<stop  offset="0" style="stop-color:#14B0E6"/>
		<stop  offset="0.1611" style="stop-color:#13AAE1"/>
		<stop  offset="0.3718" style="stop-color:#0F9AD2"/>
		<stop  offset="0.6101" style="stop-color:#097FBA"/>
		<stop  offset="0.8669" style="stop-color:#015999"/>
		<stop  offset="0.9" style="stop-color:#005494"/>
		<stop  offset="1" style="stop-color:#005494"/>
	</linearGradient>
	<rect x="27.7" y="567.7" class="st3" width="23.5" height="6.6"/>
</g>
<g>
	<defs>
		<path id="SVGID_9_" d="M29.3,555.6c-1,1-1.6,2.4-1.6,3.8v14.9l5.7-5.7v-14.4c0-1.2,0.3-2.3,0.8-3.3l-0.1-0.1L29.3,555.6z"/>
	</defs>
	<clipPath id="SVGID_10_">
		<use xlink:href="#SVGID_9_"  style="overflow:visible;"/>
	</clipPath>
	
		<linearGradient id="SVGID_11_" gradientUnits="userSpaceOnUse" x1="1.0425" y1="601.0425" x2="2.0425" y2="601.0425" gradientTransform="matrix(0 -23.5174 -23.5174 0 14165.9307 598.794)">
		<stop  offset="0" style="stop-color:#0081BD"/>
		<stop  offset="0.3773" style="stop-color:#0070AD"/>
		<stop  offset="0.85" style="stop-color:#005494"/>
		<stop  offset="1" style="stop-color:#005494"/>
	</linearGradient>
	<rect x="27.7" y="550.8" class="st4" width="6.6" height="23.5"/>
</g>
</svg>
