<?xml version="1.0" encoding="utf-8"?>
<!-- Generator: Adobe Illustrator 17.0.0, SVG Export Plug-In . SVG Version: 6.00 Build 0)  -->
<!DOCTYPE svg PUBLIC "-//W3C//DTD SVG 1.1//EN" "http://www.w3.org/Graphics/SVG/1.1/DTD/svg11.dtd">
<svg version="1.1" id="Layer_1" xmlns="http://www.w3.org/2000/svg" xmlns:xlink="http://www.w3.org/1999/xlink" x="0px" y="0px"
	 width="160px" height="600px" viewBox="0 0 160 600" enable-background="new 0 0 160 600" xml:space="preserve">
<g>
	<path fill="#F6A9C2" d="M133.87,299.97c-0.16-1.65-2.08-2.13-3.36-2.72c-4.91-2.4-4.37-8.43-6.24-12.85
		c-1.49-3.57-3.73-6.83-6.45-9.71c-2.88-3.41-3.95-4.48-13.55-9.55c-7.2-3.31-15.31-4.91-23.2-4.91
		c-19.47,0.05-36.11,9.49-42.56,22.83c-0.43,0.8-0.75,1.65-1.07,2.51c-1.17,3.09-1.76,6.35-1.76,9.71c0,0.69,0.05,1.44,0.11,2.13
		c4.69,4.85,9.6,8.53,14.61,11.25c1.23,0.69,2.51,1.28,3.73,1.87c1.55,0.69,3.15,1.33,4.69,1.81c0.96,0.32,1.87,0.59,2.83,0.85
		c1.28,0.32,2.51,0.64,3.79,0.91c0.96,0.21,1.87,0.37,2.83,0.48c-0.96-0.16-1.87-0.32-2.83-0.48c-1.28-0.27-2.51-0.53-3.79-0.91
		c-0.96-0.27-1.87-0.53-2.83-0.85c-1.6-0.53-3.15-1.12-4.69-1.81c-1.28-0.53-2.51-1.17-3.73-1.87c-4.96-2.72-9.87-6.4-14.61-11.25
		c0.21,2.4,0.69,4.8,1.49,7.04l0,0c3.31,11.25,18.35,34.08,21.6,34.08h10.08c1.33,0,2.24-0.48,2.83-1.23
		c0.8-1.01,1.01-2.56,0.96-4.05c-0.05-0.91-0.37-4.21-0.16-5.12c0.05-0.21,0.16-1.55,0.27-1.76c0,0,0-0.05,0.05-0.05
		c2.67,0.37,5.39,1.07,8.16,1.07c3.31,0,6.67-0.27,9.97-0.85c0.59,2.88,2.03,11.89,4.85,11.89c0,0,9.12-0.05,9.17-0.05
		c1.28,0,4.53-0.48,5.23-1.44c0.32-0.43,0.53-0.96,0.64-1.55c0.53-3.2-0.11-6.51-0.32-9.71c-0.05-0.43-0.05-0.85,0-1.28
		c0.05-0.59,0.11-1.12,0.32-1.71c0.27-0.75,0.85-1.44,1.39-2.03c1.17-0.85,2.29-1.76,3.31-2.72c3.04-2.99,3.68-3.84,8.05-4.85
		c2.67-0.59,5.12-1.81,7.52-3.04c1.17-0.59,1.6-1.55,1.6-2.77c0-0.05,0-0.11,0-0.16c0-1.6,0.05-2.99,0.59-4.59
		C133.6,301.79,133.97,300.88,133.87,299.97z M72,315.01c1.55,0.11,3.09,0.16,4.64,0.21C75.09,315.23,73.55,315.12,72,315.01z
		 M109.07,308.4c-0.27,0.11-0.59,0.21-0.85,0.32c-4.21,1.6-8.91,3.15-13.92,4.32c-1.97,0.48-3.95,0.85-5.97,1.17
		c-0.85,0.16-1.76,0.27-2.61,0.37c-1.49,0.21-2.99,0.32-4.48,0.43c-0.59,0.05-1.23,0.05-1.81,0.11c0.59,0,1.23-0.05,1.81-0.11
		c1.49-0.11,2.99-0.27,4.48-0.43c0.91-0.11,1.76-0.27,2.61-0.37c2.03-0.32,4.05-0.75,5.97-1.17c5.12-1.23,9.87-2.77,13.92-4.32
		C108.53,308.61,108.8,308.51,109.07,308.4c3.68-1.44,7.36-3.04,11.2-3.52C116.43,305.36,112.75,306.96,109.07,308.4z
		 M122.08,304.72c0.48,0,0.91,0,1.39,0C122.99,304.72,122.56,304.72,122.08,304.72z M128.85,305.73c-0.43-0.16-0.91-0.27-1.33-0.37
		c-0.91-0.21-1.76-0.37-2.72-0.53c0.91,0.11,1.81,0.27,2.72,0.53C128,305.47,128.43,305.57,128.85,305.73
		c0.43,0.16,0.85,0.27,1.33,0.43C129.76,306,129.28,305.84,128.85,305.73z"/>
	<line fill="none" x1="107.63" y1="263.33" x2="107.84" y2="263.12"/>
	<path fill="#F6A9C2" d="M36.91,286.48c-0.96-0.59-1.71-1.49-2.29-2.77c2.19-0.96,4.05-2.61,5.55-4.96
		c1.17-1.87,1.28-4.05,0.21-5.55c-0.53-0.8-1.92-2.03-4.69-1.76c-1.44,0.16-2.72,0.8-3.63,1.87c-1.71,1.97-2.03,5.07-1.81,7.09
		c0.05,0.32,0.11,0.64,0.16,0.96c-1.76,0.11-3.09,0-4.91-0.32c-0.8-0.16-1.76-0.59-2.51-0.85l-5.28-2.45
		c2.29,2.88,10.29,7.15,13.6,6.83c0.8,1.97,2.03,3.52,3.68,4.53c1.23,0.75,2.61,1.17,4,1.33c0.32-1.07,0.75-2.13,1.39-3.09
		C39.15,287.33,37.92,287.07,36.91,286.48z M33.71,280.13c-0.21-1.55,0.11-3.68,1.07-4.75c0.37-0.43,0.75-0.64,1.28-0.69
		c0.11,0,0.21,0,0.27,0c0.43,0,0.59,0.11,0.8,0.43c0.27,0.37,0.32,1.33-0.27,2.24c-0.96,1.55-1.81,2.56-3.09,3.25
		C33.76,280.4,33.71,280.29,33.71,280.13z"/>
	<path opacity="0.5" fill="#FFFFFF" enable-background="new    " d="M50.56,273.68c-5.49,4.59-7.31,7.89-8.48,12.32
		c-0.16,0.53-0.27,1.07-0.37,1.6c-0.16,1.07-0.27,2.13-0.21,3.2c0-0.05,0-0.11,0.05-0.11c1.33-4.96,4.64-9.28,9.76-13.23
		c3.84-2.93,9.71-5.97,13.76-6.99c-1.92-1.12-2.24-2.35-2.35-3.41C62.72,267.07,55.04,269.95,50.56,273.68z"/>
	<path fill="#3B3030" d="M117.23,287.65c-1.33,0.21-2.13,1.92-1.81,3.79c0.32,1.87,1.65,3.2,2.99,2.99
		c1.33-0.21,2.13-1.92,1.81-3.79C119.89,288.77,118.56,287.39,117.23,287.65z"/>
	<path fill="#F6A9C2" d="M99.79,268.72c3.09,5.28,8.96,7.79,13.92,5.97c0.53-0.21,0.85-0.75,0.75-1.28
		c-0.32-2.19-0.37-4.21,0.11-6.13c0.43-1.81,1.33-3.52,2.83-5.23c1.07-1.23-0.48-3.25-2.35-3.57c-2.03-0.32-4.16,0.11-5.65,1.17
		c-5.07,3.63-8.91,7.52-9.33,7.95C99.68,268.03,99.47,268.13,99.79,268.72z"/>
	<path fill="#D2758B" d="M107.57,271.49c1.44-1.23,3.2-2.08,5.12-2.24c-0.11-0.59-0.21-1.12-0.16-1.6c0.27-1.92,1.17-2.83,2.35-4.37
		c0.21-0.27,0.69-1.07,0.8-1.39c0.53-1.39-2.19-1.44-2.99-1.23c-2.03,0.43-4.32,2.13-5.71,4.21
		C105.44,267.17,105.6,270,107.57,271.49z"/>
	<path fill="#010101" d="M91.36,264.08c-5.23-1.71-15.57-1.6-20.8,0.32c-0.91,0.32-1.23,1.28-0.59,1.92l0.05,0.05
		c0.48,0.48,1.28,0.64,1.97,0.37c4.32-1.65,13.92-1.97,18.19-0.27c0.64,0.27,1.44,0.05,1.87-0.43l0.05-0.05
		C92.64,265.36,92.27,264.4,91.36,264.08z"/>
	<g>
		<g>
			<g>
				<defs>
					<path id="SVGID_1_" d="M133.87,299.97c-0.16-1.65-2.08-2.13-3.36-2.72c-4.91-2.4-4.37-8.43-6.24-12.85
						c-1.49-3.57-3.73-6.83-6.45-9.71c-2.88-3.41-3.95-4.48-13.55-9.55c-7.2-3.31-15.31-4.91-23.2-4.91
						c-19.47,0.05-36.11,9.49-42.56,22.83c-0.43,0.8-0.75,1.65-1.07,2.51c-1.17,3.09-1.76,6.35-1.76,9.71
						c0,0.69,0.05,1.44,0.11,2.13c4.69,4.85,9.6,8.53,14.61,11.25c1.23,0.69,2.51,1.28,3.73,1.87c1.55,0.69,3.15,1.33,4.69,1.81
						c0.96,0.32,1.87,0.59,2.83,0.85c1.28,0.32,2.51,0.64,3.79,0.91c0.96,0.21,1.87,0.37,2.83,0.48c-0.96-0.16-1.87-0.32-2.83-0.48
						c-1.28-0.27-2.51-0.53-3.79-0.91c-0.96-0.27-1.87-0.53-2.83-0.85c-1.6-0.53-3.15-1.12-4.69-1.81
						c-1.28-0.53-2.51-1.17-3.73-1.87c-4.96-2.72-9.87-6.4-14.61-11.25c0.21,2.4,0.69,4.8,1.49,7.04l0,0
						c3.31,11.25,18.35,34.08,21.6,34.08h10.08c1.33,0,2.24-0.48,2.83-1.23c0.8-1.01,1.01-2.56,0.96-4.05
						c-0.05-0.91-0.37-4.21-0.16-5.12c0.05-0.21,0.16-1.55,0.27-1.76c0,0,0-0.05,0.05-0.05c2.67,0.37,5.39,1.07,8.16,1.07
						c3.31,0,6.67-0.27,9.97-0.85c0.59,2.88,2.03,11.89,4.85,11.89c0,0,9.12-0.05,9.17-0.05c1.28,0,4.53-0.48,5.23-1.44
						c0.32-0.43,0.53-0.96,0.64-1.55c0.53-3.2-0.11-6.51-0.32-9.71c-0.05-0.43-0.05-0.85,0-1.28c0.05-0.59,0.11-1.12,0.32-1.71
						c0.27-0.75,0.85-1.44,1.39-2.03c1.17-0.85,2.29-1.76,3.31-2.72c3.04-2.99,3.68-3.84,8.05-4.85c2.67-0.59,5.12-1.81,7.52-3.04
						c1.17-0.59,1.6-1.55,1.6-2.77c0-0.05,0-0.11,0-0.16c0-1.6,0.05-2.99,0.59-4.59C133.6,301.79,133.97,300.88,133.87,299.97z
						 M72,315.01c1.55,0.11,3.09,0.16,4.64,0.21C75.09,315.23,73.55,315.12,72,315.01z M109.07,308.4
						c-0.27,0.11-0.59,0.21-0.85,0.32c-4.21,1.6-8.91,3.15-13.92,4.32c-1.97,0.48-3.95,0.85-5.97,1.17
						c-0.85,0.16-1.76,0.27-2.61,0.37c-1.49,0.21-2.99,0.32-4.48,0.43c-0.59,0.05-1.23,0.05-1.81,0.11c0.59,0,1.23-0.05,1.81-0.11
						c1.49-0.11,2.99-0.27,4.48-0.43c0.91-0.11,1.76-0.27,2.61-0.37c2.03-0.32,4.05-0.75,5.97-1.17c5.12-1.23,9.87-2.77,13.92-4.32
						C108.53,308.61,108.8,308.51,109.07,308.4c3.68-1.44,7.36-3.04,11.2-3.52C116.43,305.36,112.75,306.96,109.07,308.4z
						 M122.08,304.72c0.48,0,0.91,0,1.39,0C122.99,304.72,122.56,304.72,122.08,304.72z M128.85,305.73
						c-0.43-0.16-0.91-0.27-1.33-0.37c-0.91-0.21-1.76-0.37-2.72-0.53c0.91,0.11,1.81,0.27,2.72,0.53
						C128,305.47,128.43,305.57,128.85,305.73c0.43,0.16,0.85,0.27,1.33,0.43C129.76,306,129.28,305.84,128.85,305.73z"/>
				</defs>
				<clipPath id="SVGID_2_">
					<use xlink:href="#SVGID_1_"  overflow="visible"/>
				</clipPath>
				
					<linearGradient id="SVGID_3_" gradientUnits="userSpaceOnUse" x1="580.925" y1="486.8344" x2="580.925" y2="532.9849" gradientTransform="matrix(0.5333 0 0 0.5333 -225.5333 45.5333)">
					<stop  offset="0" style="stop-color:#F6A9C2;stop-opacity:0.7"/>
					<stop  offset="1" style="stop-color:#B16073"/>
				</linearGradient>
				<path opacity="0.53" clip-path="url(#SVGID_2_)" fill="url(#SVGID_3_)" enable-background="new    " d="M43.47,318.16
					c5.71,10.13,13.17,20.37,15.31,20.37h10.08c0.85,0,2.24-0.43,2.67-0.96c2.4-2.45,0.32-7.63,1.07-9.6
					c0.05-0.21,0.11-1.39,0.27-1.6c0,0,0-0.05,0.05-0.05c2.67,0.37,5.39,1.07,8.21,1.07c3.31,0,6.67-0.27,9.97-0.85
					c0.59,2.88,2.03,11.95,4.85,11.95l9.17-0.05c1.28,0,4.53-0.48,5.23-1.44c1.76-3.36,0.27-8.37,0.32-10.99
					c0-0.11-0.16-1.55,0-1.55c0.05-0.59,0.11-1.12,0.32-1.71c0.27-0.75,0.85-1.44,1.39-2.03c1.17-0.85,2.29-1.76,3.31-2.77
					c3.04-2.99,3.73-3.89,8.05-4.85c2.67-0.59,5.12-1.81,7.52-3.04c1.17-0.59,1.6-1.55,1.6-2.77c0-0.05,0-0.11,0-0.16
					c-3.41-1.55-6.99-2.61-10.67-2.51c-4.85,0.16-9.33,2.29-13.87,4c-4.21,1.6-8.91,3.15-13.92,4.32
					c-17.87,4.21-39.79,3.84-58.67-15.68c0.21,2.45,0.69,4.8,1.49,7.04l0,0C38.29,308.13,40.64,313.15,43.47,318.16"/>
			</g>
		</g>
		<g>
			<g>
				<defs>
					<path id="SVGID_4_" d="M133.87,299.97c-0.16-1.65-2.08-2.13-3.36-2.72c-4.91-2.4-4.37-8.43-6.24-12.85
						c-1.49-3.57-3.73-6.83-6.45-9.71c-2.88-3.41-3.95-4.48-13.55-9.55c-7.2-3.31-15.31-4.91-23.2-4.91
						c-19.47,0.05-36.11,9.49-42.56,22.83c-0.43,0.8-0.75,1.65-1.07,2.51c-1.17,3.09-1.76,6.35-1.76,9.71
						c0,0.69,0.05,1.44,0.11,2.13c4.69,4.85,9.6,8.53,14.61,11.25c1.23,0.69,2.51,1.28,3.73,1.87c1.55,0.69,3.15,1.33,4.69,1.81
						c0.96,0.32,1.87,0.59,2.83,0.85c1.28,0.32,2.51,0.64,3.79,0.91c0.96,0.21,1.87,0.37,2.83,0.48c-0.96-0.16-1.87-0.32-2.83-0.48
						c-1.28-0.27-2.51-0.53-3.79-0.91c-0.96-0.27-1.87-0.53-2.83-0.85c-1.6-0.53-3.15-1.12-4.69-1.81
						c-1.28-0.53-2.51-1.17-3.73-1.87c-4.96-2.72-9.87-6.4-14.61-11.25c0.21,2.4,0.69,4.8,1.49,7.04l0,0
						c3.31,11.25,18.35,34.08,21.6,34.08h10.08c1.33,0,2.24-0.48,2.83-1.23c0.8-1.01,1.01-2.56,0.96-4.05
						c-0.05-0.91-0.37-4.21-0.16-5.12c0.05-0.21,0.16-1.55,0.27-1.76c0,0,0-0.05,0.05-0.05c2.67,0.37,5.39,1.07,8.16,1.07
						c3.31,0,6.67-0.27,9.97-0.85c0.59,2.88,2.03,11.89,4.85,11.89c0,0,9.12-0.05,9.17-0.05c1.28,0,4.53-0.48,5.23-1.44
						c0.32-0.43,0.53-0.96,0.64-1.55c0.53-3.2-0.11-6.51-0.32-9.71c-0.05-0.43-0.05-0.85,0-1.28c0.05-0.59,0.11-1.12,0.32-1.71
						c0.27-0.75,0.85-1.44,1.39-2.03c1.17-0.85,2.29-1.76,3.31-2.72c3.04-2.99,3.68-3.84,8.05-4.85c2.67-0.59,5.12-1.81,7.52-3.04
						c1.17-0.59,1.6-1.55,1.6-2.77c0-0.05,0-0.11,0-0.16c0-1.6,0.05-2.99,0.59-4.59C133.6,301.79,133.97,300.88,133.87,299.97z
						 M72,315.01c1.55,0.11,3.09,0.16,4.64,0.21C75.09,315.23,73.55,315.12,72,315.01z M109.07,308.4
						c-0.27,0.11-0.59,0.21-0.85,0.32c-4.21,1.6-8.91,3.15-13.92,4.32c-1.97,0.48-3.95,0.85-5.97,1.17
						c-0.85,0.16-1.76,0.27-2.61,0.37c-1.49,0.21-2.99,0.32-4.48,0.43c-0.59,0.05-1.23,0.05-1.81,0.11c0.59,0,1.23-0.05,1.81-0.11
						c1.49-0.11,2.99-0.27,4.48-0.43c0.91-0.11,1.76-0.27,2.61-0.37c2.03-0.32,4.05-0.75,5.97-1.17c5.12-1.23,9.87-2.77,13.92-4.32
						C108.53,308.61,108.8,308.51,109.07,308.4c3.68-1.44,7.36-3.04,11.2-3.52C116.43,305.36,112.75,306.96,109.07,308.4z
						 M122.08,304.72c0.48,0,0.91,0,1.39,0C122.99,304.72,122.56,304.72,122.08,304.72z M128.85,305.73
						c-0.43-0.16-0.91-0.27-1.33-0.37c-0.91-0.21-1.76-0.37-2.72-0.53c0.91,0.11,1.81,0.27,2.72,0.53
						C128,305.47,128.43,305.57,128.85,305.73c0.43,0.16,0.85,0.27,1.33,0.43C129.76,306,129.28,305.84,128.85,305.73z"/>
				</defs>
				<clipPath id="SVGID_5_">
					<use xlink:href="#SVGID_4_"  overflow="visible"/>
				</clipPath>
				
					<linearGradient id="SVGID_6_" gradientUnits="userSpaceOnUse" x1="612.894" y1="532.6337" x2="622.9973" y2="534.4515" gradientTransform="matrix(0.5333 0 0 0.5333 -225.5333 45.5333)">
					<stop  offset="0" style="stop-color:#F493AA;stop-opacity:0"/>
					<stop  offset="0.3074" style="stop-color:#F6A2B8;stop-opacity:0.3076"/>
					<stop  offset="0.6968" style="stop-color:#F5AEC6;stop-opacity:0.6971"/>
					<stop  offset="0.9995" style="stop-color:#F7B3CB"/>
				</linearGradient>
				<path opacity="0.53" clip-path="url(#SVGID_5_)" fill="url(#SVGID_6_)" enable-background="new    " d="M110.45,336.61
					c-2.45,1.07-6.72,0.59-8.64,0.21c-0.27-0.05-0.59-0.16-0.85-0.27c-1.33-0.75-1.55-2.67-1.71-4c-0.16-1.28-0.75-3.68,0.37-4.59
					c2.88-2.35,7.04-3.15,10.61-3.79c0.11,0,0.21-0.05,0.37-0.05c-0.05,1.23,0,2.4,0.11,3.52
					C111.2,331.81,111.36,334.96,110.45,336.61z"/>
			</g>
		</g>
		<g>
			<g>
				<defs>
					<path id="SVGID_7_" d="M133.87,299.97c-0.16-1.65-2.08-2.13-3.36-2.72c-4.91-2.4-4.37-8.43-6.24-12.85
						c-1.49-3.57-3.73-6.83-6.45-9.71c-2.88-3.41-3.95-4.48-13.55-9.55c-7.2-3.31-15.31-4.91-23.2-4.91
						c-19.47,0.05-36.11,9.49-42.56,22.83c-0.43,0.8-0.75,1.65-1.07,2.51c-1.17,3.09-1.76,6.35-1.76,9.71
						c0,0.69,0.05,1.44,0.11,2.13c4.69,4.85,9.6,8.53,14.61,11.25c1.23,0.69,2.51,1.28,3.73,1.87c1.55,0.69,3.15,1.33,4.69,1.81
						c0.96,0.32,1.87,0.59,2.83,0.85c1.28,0.32,2.51,0.64,3.79,0.91c0.96,0.21,1.87,0.37,2.83,0.48c-0.96-0.16-1.87-0.32-2.83-0.48
						c-1.28-0.27-2.51-0.53-3.79-0.91c-0.96-0.27-1.87-0.53-2.83-0.85c-1.6-0.53-3.15-1.12-4.69-1.81
						c-1.28-0.53-2.51-1.17-3.73-1.87c-4.96-2.72-9.87-6.4-14.61-11.25c0.21,2.4,0.69,4.8,1.49,7.04l0,0
						c3.31,11.25,18.35,34.08,21.6,34.08h10.08c1.33,0,2.24-0.48,2.83-1.23c0.8-1.01,1.01-2.56,0.96-4.05
						c-0.05-0.91-0.37-4.21-0.16-5.12c0.05-0.21,0.16-1.55,0.27-1.76c0,0,0-0.05,0.05-0.05c2.67,0.37,5.39,1.07,8.16,1.07
						c3.31,0,6.67-0.27,9.97-0.85c0.59,2.88,2.03,11.89,4.85,11.89c0,0,9.12-0.05,9.17-0.05c1.28,0,4.53-0.48,5.23-1.44
						c0.32-0.43,0.53-0.96,0.64-1.55c0.53-3.2-0.11-6.51-0.32-9.71c-0.05-0.43-0.05-0.85,0-1.28c0.05-0.59,0.11-1.12,0.32-1.71
						c0.27-0.75,0.85-1.44,1.39-2.03c1.17-0.85,2.29-1.76,3.31-2.72c3.04-2.99,3.68-3.84,8.05-4.85c2.67-0.59,5.12-1.81,7.52-3.04
						c1.17-0.59,1.6-1.55,1.6-2.77c0-0.05,0-0.11,0-0.16c0-1.6,0.05-2.99,0.59-4.59C133.6,301.79,133.97,300.88,133.87,299.97z
						 M72,315.01c1.55,0.11,3.09,0.16,4.64,0.21C75.09,315.23,73.55,315.12,72,315.01z M109.07,308.4
						c-0.27,0.11-0.59,0.21-0.85,0.32c-4.21,1.6-8.91,3.15-13.92,4.32c-1.97,0.48-3.95,0.85-5.97,1.17
						c-0.85,0.16-1.76,0.27-2.61,0.37c-1.49,0.21-2.99,0.32-4.48,0.43c-0.59,0.05-1.23,0.05-1.81,0.11c0.59,0,1.23-0.05,1.81-0.11
						c1.49-0.11,2.99-0.27,4.48-0.43c0.91-0.11,1.76-0.27,2.61-0.37c2.03-0.32,4.05-0.75,5.97-1.17c5.12-1.23,9.87-2.77,13.92-4.32
						C108.53,308.61,108.8,308.51,109.07,308.4c3.68-1.44,7.36-3.04,11.2-3.52C116.43,305.36,112.75,306.96,109.07,308.4z
						 M122.08,304.72c0.48,0,0.91,0,1.39,0C122.99,304.72,122.56,304.72,122.08,304.72z M128.85,305.73
						c-0.43-0.16-0.91-0.27-1.33-0.37c-0.91-0.21-1.76-0.37-2.72-0.53c0.91,0.11,1.81,0.27,2.72,0.53
						C128,305.47,128.43,305.57,128.85,305.73c0.43,0.16,0.85,0.27,1.33,0.43C129.76,306,129.28,305.84,128.85,305.73z"/>
				</defs>
				<clipPath id="SVGID_8_">
					<use xlink:href="#SVGID_7_"  overflow="visible"/>
				</clipPath>
				
					<linearGradient id="SVGID_9_" gradientUnits="userSpaceOnUse" x1="537.0401" y1="536.2767" x2="555.3785" y2="539.5909" gradientTransform="matrix(0.5333 0 0 0.5333 -225.5333 45.5333)">
					<stop  offset="0" style="stop-color:#F493AA;stop-opacity:0"/>
					<stop  offset="0.3074" style="stop-color:#F6A2B8;stop-opacity:0.3076"/>
					<stop  offset="0.6968" style="stop-color:#F5AEC6;stop-opacity:0.6971"/>
					<stop  offset="0.9995" style="stop-color:#F7B3CB"/>
				</linearGradient>
				<path opacity="0.53" clip-path="url(#SVGID_8_)" fill="url(#SVGID_9_)" enable-background="new    " d="M72.59,327.92
					c-1.44-0.75-8.8-0.8-11.63,2.83c-1.28,1.65-1.23,5.97,1.07,6.77c1.92,0.69,6.08,0.48,8.11,0.27c1.39-0.11,1.76-0.21,2.45-2.35
					c0,0,0.16-1.49,0.16-1.71C72.64,330.8,72.37,329.47,72.59,327.92z"/>
			</g>
		</g>
	</g>
	<g>
		
			<linearGradient id="SVGID_10_" gradientUnits="userSpaceOnUse" x1="613.3098" y1="535.0154" x2="613.3098" y2="549.3938" gradientTransform="matrix(0.5333 0 0 0.5333 -225.5333 45.5333)">
			<stop  offset="0" style="stop-color:#010101;stop-opacity:0"/>
			<stop  offset="0.8588" style="stop-color:#010101;stop-opacity:0.2578"/>
			<stop  offset="0.9995" style="stop-color:#010101;stop-opacity:0.3"/>
		</linearGradient>
		<path fill="url(#SVGID_10_)" d="M92,331.33c0.8,3.41,2.08,7.15,3.89,7.15l9.17-0.05c1.28,0,4.53-0.48,5.23-1.44
			c1.07-2.08,0.91-4.85,0.64-7.25"/>
	</g>
	<g>
		<g>
			<g>
				<defs>
					<path id="SVGID_11_" d="M72.59,331.39c-0.05-0.59-0.05-1.23-0.11-1.76 M52.53,332.19c2.83,3.79,5.23,6.35,6.29,6.35h10.08
						c1.33,0,2.24-0.48,2.83-1.23c0.8-1.01,1.01-2.56,0.96-4.05c0-0.32-0.05-1.07-0.11-1.87"/>
				</defs>
				<clipPath id="SVGID_12_">
					<use xlink:href="#SVGID_11_"  overflow="visible"/>
				</clipPath>
				
					<linearGradient id="SVGID_13_" gradientUnits="userSpaceOnUse" x1="512.325" y1="514.3215" x2="512.325" y2="536.2916" gradientTransform="matrix(0.5333 0 0 0.5333 -225.5333 45.5333)">
					<stop  offset="0" style="stop-color:#F6A9C2"/>
					<stop  offset="0.2987" style="stop-color:#E593AB"/>
					<stop  offset="0.7514" style="stop-color:#D3788F"/>
					<stop  offset="1" style="stop-color:#CE7087"/>
				</linearGradient>
				<path opacity="0.53" clip-path="url(#SVGID_12_)" fill="url(#SVGID_13_)" enable-background="new    " d="M43.47,318.16
					c2.67,4.8,5.76,9.6,8.48,13.33"/>
			</g>
		</g>
		<g>
			<g>
				<defs>
					<path id="SVGID_14_" d="M72.59,331.39c-0.05-0.59-0.05-1.23-0.11-1.76 M52.53,332.19c2.83,3.79,5.23,6.35,6.29,6.35h10.08
						c1.33,0,2.24-0.48,2.83-1.23c0.8-1.01,1.01-2.56,0.96-4.05c0-0.32-0.05-1.07-0.11-1.87"/>
				</defs>
				<clipPath id="SVGID_15_">
					<use xlink:href="#SVGID_14_"  overflow="visible"/>
				</clipPath>
				
					<linearGradient id="SVGID_16_" gradientUnits="userSpaceOnUse" x1="539.7546" y1="537.6667" x2="539.7546" y2="549.4978" gradientTransform="matrix(0.5333 0 0 0.5333 -225.5333 45.5333)">
					<stop  offset="0" style="stop-color:#010101;stop-opacity:0"/>
					<stop  offset="0.8588" style="stop-color:#010101;stop-opacity:0.2578"/>
					<stop  offset="0.9995" style="stop-color:#010101;stop-opacity:0.3"/>
				</linearGradient>
				<path clip-path="url(#SVGID_15_)" fill="url(#SVGID_16_)" d="M51.95,331.49c3.04,4.21,5.71,7.09,6.83,7.09h10.08
					c0.85,0,2.24-0.43,2.67-0.96c1.44-1.49,1.28-4,1.07-6.19"/>
			</g>
		</g>
	</g>
	<path fill="#010101" d="M73.28,324.77c4.43,1.44,13.17,1.33,17.6-0.32c0.75-0.27,1.01-1.07,0.48-1.6l-0.05-0.05
		c-0.43-0.43-1.07-0.53-1.65-0.32c-3.63,1.39-11.79,1.71-15.36,0.27c-0.53-0.21-1.23-0.05-1.6,0.37l-0.05,0.05
		C72.21,323.71,72.53,324.51,73.28,324.77z"/>
</g>
</svg>
