<svg id="Layer_1" xmlns="http://www.w3.org/2000/svg" viewBox="0 0 160 600"><style>.st0{fill:#3f2718}.st1{fill:#ffdd15}.st2{fill:#e01b22}.st3{fill:#fff}</style><path class="st0" d="M54.3 356.2c.4.5 1.1.5 1.6.1l9-8c.5-.4.5-1.1.1-1.6s-1.1-.5-1.6-.1l-9 8c-.5.4-.5 1.2-.1 1.6"/><path transform="rotate(-45.001 63.698 355.175)" class="st0" d="M63 350.1h1.4v10H63z"/><path class="st0" d="M23.3 313.9h1.4v35.9h-1.4z"/><path class="st1" d="M21.6 312.4c0 1.3 1.1 2.4 2.4 2.4 1.3 0 2.4-1.1 2.4-2.4 0-1.3-1.1-2.4-2.4-2.4-1.3 0-2.4 1.1-2.4 2.4M35.1 362.2c1.5-.7 2.2-2.5 1.5-4L30 343.6c-.7-1.5-2.5-2.2-4-1.5-1.5.7-2.2 2.5-1.5 4l6.5 14.5c.7 1.6 2.5 2.2 4.1 1.6"/><path class="st2" d="M23 345.8c6 3.8 7.5 13.1 7.5 13.1h27.8c6.8 0 8-6.2 8-6.2 1.9-9.8 9.4-13.8 12.2-15 9.1 7.1 14.9 18.1 14.9 30.5 0 2.4-.2 4.7-.6 7H16.5c-.4-2.3-.6-4.6-.6-7 0-8.4 2.6-16.1 7.1-22.4"/><path class="st0" d="M12.8 384.2h83.6c3.2 0 5.8-2.6 5.8-5.8 0-3.2-2.6-5.8-5.8-5.8H12.8c-3.2 0-5.8 2.6-5.8 5.8 0 3.2 2.6 5.8 5.8 5.8"/><path class="st3" d="M28 360.7h37.6c.7 0 1.3-.6 1.3-1.3s-.6-1.3-1.3-1.3H28c-.7 0-1.3.6-1.3 1.3s.6 1.3 1.3 1.3"/></svg>