<svg id="Layer_1" xmlns="http://www.w3.org/2000/svg" viewBox="0 0 160 600"><style>.st0{fill:#b9e0d3}.st1{fill:#fffdf6}.st2{fill:#898f94}</style><path class="st0" d="M51.5 63.8h77.2v39.5H51.5z"/><path class="st1" d="M127.4 102.7H52.9V65.1h74.5v37.6zm-76.3 1.7h78.1V63.3H51.1v41.1z"/><path class="st2" d="M91.4 81.8H57.3c-.4 0-.7-.3-.7-.7 0-.4.3-.7.7-.7h34.1c.4 0 .7.3.7.7 0 .4-.3.7-.7.7M86.1 93.1H57.3c-.4 0-.7-.3-.7-.7s.3-.7.7-.7H86c.4 0 .7.3.7.7s-.2.7-.6.7M120.7 93.1H92c-.4 0-.7-.3-.7-.7s.3-.7.7-.7h28.7c.4 0 .7.3.7.7s-.3.7-.7.7M120.7 88H57.3c-.4 0-.7-.3-.7-.7 0-.4.3-.7.7-.7h63.4c.4 0 .7.3.7.7 0 .4-.3.7-.7.7M120.9 73.7h-20.7c-.4 0-.7-.3-.7-.7 0-.4.3-.7.7-.7h20.7c.4 0 .7.3.7.7 0 .4-.3.7-.7.7M77.9 73H57.1c-.4 0-.7-.3-.7-.7 0-.4.3-.7.7-.7h20.7c.4 0 .7.3.7.7.1.4-.2.7-.6.7M77.9 76.6H57.1c-.4 0-.7-.3-.7-.7 0-.4.3-.7.7-.7h20.7c.4 0 .7.3.7.7.1.4-.2.7-.6.7"/><path class="st1" d="M100.4 76.7h21.4v6h-21.4z"/><path class="st2" d="M99 79.7c-.1-.1-.2-.2-.4-.3l-.6-.3c-.3-.1-.4-.2-.5-.3-.1-.1-.1-.2-.1-.3 0-.1 0-.2.1-.3.1-.1.2-.1.4-.1s.4.1.6.4l.1.1h.1l.6-.3c.1 0 .1-.1 0-.2-.1-.3-.3-.5-.5-.6-.1-.1-.3-.2-.5-.2v-.5c0-.1 0-.1-.1-.1h-.5c-.1 0-.1 0-.1.1v.5c-.1 0-.3.1-.4.2-.1.1-.3.2-.4.3-.1.1-.2.2-.2.4-.1.1-.1.3-.1.4 0 .3.1.6.3.9.1.2.4.3.8.5.2.1.3.2.5.2.1.1.2.1.3.2.1.1.2.2.2.4s-.1.3-.2.5c-.1.1-.3.2-.5.2s-.4-.1-.5-.2c-.1-.1-.2-.3-.3-.6 0-.1-.1-.1-.1-.1l-.7.1h-.1v.1c.1.5.3.8.5 1 .2.2.5.3.9.4v.5c0 .1 0 .1.1.1h.5c.1 0 .1 0 .1-.1v-.5c.3-.1.6-.3.8-.5.2-.3.3-.6.3-1-.1-.4-.2-.8-.4-1"/></svg>