<svg id="Layer_1" xmlns="http://www.w3.org/2000/svg" viewBox="0 0 160 600"><style>.st0{fill:#b8e0d2}.st1{fill:#fffdf6}.st2{fill:#898f95}</style><path transform="rotate(-71.101 131.995 347.63)" class="st0" d="M108.6 335.7h46.8v24h-46.8z"/><path class="st1" d="M112.8 365.3l23.6 8.1 15.3-44.7-23.6-8.1-15.3 44.7zm15.9-43.3l21.5 7.4-14.6 42.6-21.5-7.4 14.6-42.6z"/><path class="st2" d="M131.3 345.9l-6.7 19.5c-.1.2-.3.3-.5.3-.2-.1-.3-.3-.3-.5l6.7-19.5c.1-.2.3-.3.5-.3s.3.2.3.5M136.7 351.1l-5.6 16.5c-.1.2-.3.3-.5.3-.2-.1-.3-.3-.3-.5l5.6-16.5c.1-.2.3-.3.5-.3s.3.3.3.5M143.5 331.2l-5.6 16.5c-.1.2-.3.3-.5.3-.2-.1-.3-.3-.3-.5l5.6-16.5c.1-.2.3-.3.5-.3.2.1.3.3.3.5M140.6 330.3l-12.4 36.3c-.1.2-.3.3-.5.3-.2-.1-.3-.3-.3-.5l12.4-36.3c.1-.2.3-.3.5-.3s.4.2.3.5M132.4 327.4l-4.1 11.9c-.1.2-.3.3-.5.3-.2-.1-.3-.3-.3-.5l4.1-11.9c.1-.2.3-.3.5-.3.3 0 .4.2.3.5M123.6 351.9l-4.1 11.9c-.1.2-.3.3-.5.3-.2-.1-.3-.3-.3-.5l4.1-11.9c.1-.2.3-.3.5-.3s.3.3.3.5M125.6 352.6l-4.1 11.9c-.1.2-.3.3-.5.3-.2-.1-.3-.3-.3-.5l4.1-11.9c.1-.2.3-.3.5-.3.3 0 .4.3.3.5"/><path transform="rotate(-71.101 133.896 334.163)" class="st1" d="M127.4 332.4h13v3.6h-13z"/><path class="st2" d="M131.5 341.1c-.1 0-.2.1-.2.2l-.3.3c-.1.1-.2.2-.3.2h-.2c-.1 0-.1-.1-.2-.1v-.2c0-.1.2-.2.4-.3l-.1-.4s0-.1-.1-.1c-.2 0-.3.1-.4.1-.1.1-.2.1-.2.3l-.3-.1h-.1l-.1.3v.1l.3.1v.3c0 .1.1.2.1.3 0 .1.1.1.2.2s.1.1.2.1c.2.1.4.1.6 0 .1 0 .3-.2.5-.4l.2-.2c.1-.1.1-.1.2-.1h.3c.1 0 .2.1.2.2v.3c0 .1-.1.2-.2.2s-.2.1-.4.1c0 0-.1 0-.1.1l-.1.4v.1c.3 0 .5 0 .7-.1.2-.1.3-.2.4-.4l.3.1h.1l.1-.3v-.1l-.3-.1c0-.2 0-.4-.2-.6-.1-.2-.3-.3-.5-.4-.1-.2-.3-.2-.5-.1"/></svg>