<svg id="Layer_1" xmlns="http://www.w3.org/2000/svg" viewBox="0 0 160 600"><style>.st0{fill:#b8e0d2}.st1{fill:#fffdf6}.st2{fill:#898f95}</style><path transform="rotate(-18.897 44.256 342.465)" class="st0" d="M32.3 319.1h24v46.8h-24z"/><path class="st1" d="M63.5 360.1l-23.6 8.1-15.3-44.7 23.6-8.1 15.3 44.7zm-16-43.3L26 324.1l14.6 42.7 21.5-7.4-14.6-42.6z"/><path class="st2" d="M45 340.7l6.7 19.5c.1.2.3.3.5.3.2-.1.3-.3.3-.5l-6.7-19.5c-.1-.2-.3-.3-.5-.3-.3 0-.4.2-.3.5M39.6 345.9l5.6 16.5c.1.2.3.3.5.3.2-.1.3-.3.3-.5l-5.6-16.5c-.1-.2-.3-.3-.5-.3-.3.1-.4.3-.3.5M32.8 326.1l5.6 16.5c.1.2.3.3.5.3.2-.1.3-.3.3-.5l-5.6-16.5c-.1-.2-.3-.3-.5-.3-.3 0-.4.2-.3.5M35.7 325.1l12.4 36.3c.1.2.3.3.5.3.2-.1.3-.3.3-.5l-12.4-36.3c-.1-.2-.3-.3-.5-.3-.3 0-.4.2-.3.5M43.8 322.2l4.1 11.9c.1.2.3.3.5.3.2-.1.3-.3.3-.5L44.6 322c-.1-.2-.3-.3-.5-.3s-.4.3-.3.5M52.7 346.7l4.1 11.9c.1.2.3.3.5.3s.3-.3.3-.5l-4.1-11.9c-.1-.2-.3-.3-.5-.3-.3 0-.4.3-.3.5M50.6 347.4l4.1 11.9c.1.2.3.3.5.3.2-.1.3-.3.3-.5l-4.1-11.9c-.1-.2-.3-.3-.5-.3s-.3.3-.3.5"/><path transform="rotate(-18.897 42.354 329.01)" class="st1" d="M40.5 322.5h3.6v13h-3.6z"/><path class="st2" d="M44.7 335.9c.1 0 .2.1.2.2l.3.3c.1.1.2.2.3.2h.2c.1 0 .1-.1.2-.1v-.2c0-.1-.2-.2-.4-.3l.1-.4s0-.1.1-.1c.2 0 .3.1.4.1.1.1.2.1.2.3l.3-.1h.1l.1.3v.1l-.3.1v.3c0 .1-.1.2-.1.3 0 .1-.1.1-.2.2s-.1.1-.2.1c-.2.1-.4.1-.6 0-.1 0-.3-.2-.5-.4l-.2-.2c-.1-.1-.1-.1-.2-.1h-.3c-.1 0-.2.1-.2.2v.3c0 .1.1.2.2.2s.2.1.4.1c0 0 .1 0 .1.1l.1.4v.1c-.3 0-.5 0-.7-.1-.2-.1-.3-.2-.4-.4l-.3.1h-.1l-.1-.3v-.1l.3-.1c0-.2 0-.4.2-.6.1-.2.3-.3.5-.4.1-.2.3-.2.5-.1"/></svg>