<svg xmlns="http://www.w3.org/2000/svg" viewBox="0 0 160 600"><path d="M25.9 341.3v10.2h-3.1v-10.2h-3.7v-2.5h10.4v2.5h-3.6zM35.1 345.6c-.2-.1-.6-.2-.9-.2-.9 0-1.8.5-1.8 1.9v4.2h-2.9v-9.1h2.9v2c.3-1.4 1.4-2.2 2.6-2.2.3 0 .6 0 .8.1l-.7 3.3zM42.7 350.6c-1.4 3.6-2.8 5-4.5 5.6l-1.8-1.8c1.5-.6 2.6-1.6 3.3-3.5l-3.3-8.4h2.8l1.3 3.5c.2.5.4 1.1.5 1.8.2-.6.4-1.3.6-1.8l1.3-3.5h2.7l-2.9 8.1zM57.5 344.9h-2.4v3.4c0 .8.4 1.1 1.2 1.1.3 0 .5 0 .8-.1l-.3 2.2c-.3.1-.8.2-1.4.2-2 0-3.3-1.1-3.3-2.9v-3.9h-1.5v-2.4h1.5v-1.9l2.9-1.1v3h3l-.5 2.4zM64.8 351.5V346c0-.7-.5-1.2-1.4-1.2-.9 0-1.4.6-1.4 1.3v5.5h-2.9v-14.2H62v6c.5-.7 1.3-1.1 2.6-1.1 2 0 3.2 1.1 3.2 3v6.3h-3zM77.9 346.5l-1.3 1.3h-4.4c.1.7 1.1 1.6 2.7 1.6.9 0 1.9-.3 2.5-.7l-.3 2.5c-.7.4-1.7.6-2.9.6-2.8 0-5-1.9-5-4.9 0-2.9 2.1-4.8 4.7-4.8 2.5 0 4.1 1.7 4.1 3.6 0 .3-.1.6-.1.8zm-4-2.1c-.9 0-1.6.7-1.8 1.5h3.1v-.2c0-.7-.5-1.3-1.3-1.3z"/><g><path d="M31.8 371.5l-.4-4.7c-.1-.7-.1-1.5-.1-2.4-.3.8-.7 1.7-1.1 2.4l-2.4 4.7h-1.2l-2.4-4.7c-.4-.7-.8-1.6-1.1-2.4 0 .8 0 1.7-.1 2.3l-.4 4.7h-2.9l1.1-12.8h2.6l2.8 5.4c.4.8.9 1.9 1.3 2.7.3-.8.8-1.9 1.2-2.7l2.8-5.4h2.4l1.1 12.8h-3.2zM41.8 370.6c-1.4 3.6-2.8 5-4.5 5.6l-1.8-1.8c1.5-.6 2.6-1.6 3.3-3.5l-3.3-8.4h2.8l1.3 3.5c.2.5.4 1.1.5 1.8.2-.6.4-1.3.6-1.8l1.3-3.5h2.7l-2.9 8.1zM55.5 366.5h-1.9v5h-3v-12.8h4.9c2.2 0 4.1 1.5 4.1 3.9s-1.9 3.9-4.1 3.9zm-.5-5.2h-1.4v2.9H55c.8 0 1.6-.4 1.6-1.4 0-1-.8-1.5-1.6-1.5zM68.9 366.5l-1.3 1.3h-4.4c.1.7 1.1 1.6 2.7 1.6.9 0 1.9-.3 2.5-.7l-.3 2.5c-.7.4-1.7.6-2.9.6-2.8 0-5-1.9-5-4.9 0-2.9 2.1-4.8 4.7-4.8 2.5 0 4.1 1.7 4.1 3.6 0 .3 0 .6-.1.8zm-3.9-2.1c-.9 0-1.6.7-1.8 1.5h3.1v-.2c0-.7-.6-1.3-1.3-1.3zM76.1 365.6c-.2-.1-.6-.2-.9-.2-.9 0-1.8.5-1.8 1.9v4.2h-2.9v-9.1h2.9v2c.3-1.4 1.4-2.2 2.6-2.2.3 0 .6 0 .8.1l-.7 3.3zM80.6 371.7c-1.2 0-2.1-.3-2.9-.6l-.3-2.6c.8.6 1.8 1 2.8 1 .5 0 .9-.3.9-.6 0-.4-.3-.5-.8-.7-1.7-.5-2.8-1.4-2.8-3 0-1.8 1.4-2.9 3.4-2.9 1.1 0 2.2.3 2.7.5l-.5 2.2c-.4-.2-1.2-.5-1.9-.5-.5 0-.8.2-.8.6 0 .3.2.5.8.7 2 .5 2.9 1.6 2.9 3.1 0 1.4-1.1 2.8-3.5 2.8zM90 371.8c-2.7 0-4.9-1.9-4.9-4.8s2.2-4.8 4.9-4.8 4.9 1.9 4.9 4.8-2.1 4.8-4.9 4.8zm0-7.1c-1.1 0-2 1-2 2.3s.9 2.3 2 2.3 2-1 2-2.3-.9-2.3-2-2.3zM102.2 371.5V366c0-.7-.4-1.2-1.3-1.2s-1.4.6-1.4 1.3v5.5h-2.9v-9.1h2.7v1.2c.4-1 1.3-1.5 2.8-1.5 2 0 3.2 1.1 3.2 3v6.3h-3.1zM113.3 371.9c-.5-.1-1.2-.5-1.4-1.2-.4.7-1.3 1.1-2.4 1.1-1.6 0-3-1.1-3-3 0-1.7 1.3-2.8 3.1-3l1.8-.2v-.3c0-.5-.4-.9-1.4-.9-.9 0-1.9.3-2.5.7l-.5-2.1c.7-.5 2-.8 3.2-.8 2.4 0 4.1 1.1 4.1 3.3v3c0 1.1.4 1.6 1.1 1.9l-2.1 1.5zm-1.8-4.3l-1.1.1c-.8.1-1.1.6-1.1 1.1 0 .5.4.9.9.9.7 0 1.3-.5 1.3-1.3v-.8zM119.5 371.9c-1.9-.1-3.1-1-3.1-3.2v-11.4h2.9v11c0 .7.4 1.1 1.2 1.2l-1 2.4z"/></g><g><path d="M24.9 386.5H23v5h-3v-12.8h4.9c2.2 0 4.1 1.5 4.1 3.9s-1.9 3.9-4.1 3.9zm-.5-5.2H23v2.9h1.4c.8 0 1.6-.4 1.6-1.4 0-1-.8-1.5-1.6-1.5zM38.3 386.5l-1.3 1.3h-4.4c.1.7 1.1 1.6 2.7 1.6.9 0 1.9-.3 2.5-.7l-.3 2.5c-.7.4-1.7.6-2.9.6-2.8 0-5-1.9-5-4.9 0-2.9 2.1-4.8 4.7-4.8 2.5 0 4.1 1.7 4.1 3.6 0 .3 0 .6-.1.8zm-4-2.1c-.9 0-1.6.7-1.8 1.5h3.1v-.2c.1-.7-.5-1.3-1.3-1.3zM45.6 391.5V386c0-.7-.4-1.2-1.3-1.2s-1.4.6-1.4 1.3v5.5H40v-9.1h2.7v1.2c.4-1 1.3-1.5 2.8-1.5 2 0 3.2 1.1 3.2 3v6.3h-3.1zM53.3 391.7c-1.2 0-2.1-.3-2.9-.6l-.3-2.6c.8.6 1.8 1 2.8 1 .5 0 .9-.3.9-.6 0-.4-.3-.5-.8-.7-1.7-.5-2.8-1.4-2.8-3 0-1.8 1.4-2.9 3.4-2.9 1.1 0 2.2.3 2.7.5l-.5 2.2c-.4-.2-1.2-.5-1.9-.5-.5 0-.8.2-.8.6 0 .3.2.5.8.7 2 .5 2.9 1.6 2.9 3.1.1 1.4-1.1 2.8-3.5 2.8zM59.8 381.2c-.5 0-1.6-1.1-1.6-1.6s1.1-1.6 1.6-1.6 1.6 1 1.6 1.6c0 .6-1 1.6-1.6 1.6zm-1.4 10.3v-9.1h3v9.1h-3zM67.8 391.8c-2.7 0-4.9-1.9-4.9-4.8s2.2-4.8 4.9-4.8 4.9 1.9 4.9 4.8-2.2 4.8-4.9 4.8zm0-7.1c-1.1 0-2 1-2 2.3s.9 2.3 2 2.3 2-1 2-2.3-1-2.3-2-2.3zM79.9 391.5V386c0-.7-.4-1.2-1.3-1.2s-1.4.6-1.4 1.3v5.5h-2.9v-9.1H77v1.2c.4-1 1.3-1.5 2.8-1.5 2 0 3.2 1.1 3.2 3v6.3h-3.1z"/></g><g><path d="M26.8 405.4c-.6-.4-1.2-.6-1.9-.6-1.3 0-2.3.9-2.3 2.2 0 1.3 1 2.2 2.4 2.2.8 0 1.3-.2 2-.5l-.3 2.5c-.6.3-1.4.4-2.2.4-2.5 0-4.9-1.8-4.9-4.7 0-3 2.4-4.7 4.8-4.7 1.2 0 2.2.2 3 .7l-.6 2.5zM35.1 411.9c-.5-.1-1.2-.5-1.4-1.2-.4.7-1.3 1.1-2.4 1.1-1.6 0-3-1.1-3-3 0-1.7 1.3-2.8 3.1-3l1.8-.2v-.3c0-.5-.4-.9-1.4-.9-.9 0-1.9.3-2.5.7l-.5-2.2c.7-.5 2-.8 3.2-.8 2.4 0 4.1 1.1 4.1 3.3v3c0 1.1.4 1.6 1.1 1.9l-2.1 1.6zm-1.9-4.3l-1.1.1c-.8.1-1.1.6-1.1 1.1 0 .5.4.9.9.9.7 0 1.3-.5 1.3-1.3v-.8zM41.2 411.9c-1.9-.1-3.1-1-3.1-3.2v-11.4H41v11c0 .7.4 1.1 1.2 1.2l-1 2.4zM50.2 405.4c-.6-.4-1.2-.6-1.9-.6-1.3 0-2.3.9-2.3 2.2 0 1.3 1 2.2 2.4 2.2.8 0 1.3-.2 2-.5l-.3 2.5c-.6.3-1.4.4-2.2.4-2.5 0-4.9-1.8-4.9-4.7 0-3 2.4-4.7 4.8-4.7 1.2 0 2.2.2 3 .7l-.6 2.5zM58.1 411.5v-1.2c-.4 1-1.3 1.5-2.8 1.5-2 0-3.2-1.1-3.2-3v-6.3H55v5.6c0 .7.5 1.2 1.4 1.2.9 0 1.4-.6 1.4-1.3v-5.5h2.9v9.1h-2.6zM65.8 411.9c-1.9-.1-3.1-1-3.1-3.2v-11.4h2.9v11c0 .7.4 1.1 1.2 1.2l-1 2.4zM74.5 411.9c-.5-.1-1.2-.5-1.4-1.2-.4.7-1.3 1.1-2.4 1.1-1.6 0-3-1.1-3-3 0-1.7 1.3-2.8 3.1-3l1.8-.2v-.3c0-.5-.4-.9-1.4-.9-.9 0-1.9.3-2.5.7l-.5-2.2c.7-.5 2-.8 3.2-.8 2.4 0 4.1 1.1 4.1 3.3v3c0 1.1.4 1.6 1.1 1.9l-2.1 1.6zm-1.9-4.3l-1.1.1c-.8.1-1.1.6-1.1 1.1 0 .5.4.9.9.9.7 0 1.3-.5 1.3-1.3v-.8zM83.4 404.9H81v3.4c0 .8.4 1.1 1.2 1.1.3 0 .5 0 .8-.1l-.3 2.2c-.3.1-.8.2-1.4.2-2 0-3.3-1.1-3.3-2.9v-3.9h-1.5v-2.4H78v-1.9l2.9-1.1v3H84l-.6 2.4zM89.4 411.8c-2.7 0-4.9-1.9-4.9-4.8s2.2-4.8 4.9-4.8 4.9 1.9 4.9 4.8-2.2 4.8-4.9 4.8zm0-7.1c-1.1 0-2 1-2 2.3s.9 2.3 2 2.3 2-1 2-2.3-1-2.3-2-2.3zM101.4 405.6c-.2-.1-.6-.2-.9-.2-.9 0-1.8.5-1.8 1.9v4.2h-2.9v-9.1h2.9v2c.3-1.4 1.4-2.2 2.6-2.2.3 0 .6 0 .8.1l-.7 3.3zM103.3 411.8c-.5 0-1.7-1.1-1.7-1.7 0-.5 1.1-1.6 1.7-1.6s1.7 1.1 1.7 1.6c0 .6-1.1 1.7-1.7 1.7z"/></g></svg>