<svg xmlns="http://www.w3.org/2000/svg" viewBox="0 0 160 600"><path d="M25.2 189.4c-1.7 0-3.4-.5-4.3-1.1l-.4-3.5c1.2.9 2.9 1.5 4.4 1.5 1.3 0 2.2-.6 2.2-1.5s-.6-1.4-2-1.8c-3-.8-4.4-2.5-4.4-4.8 0-2.5 1.9-4.6 5.2-4.6 1.8 0 3.2.5 3.8.9l-.7 3c-.6-.4-1.8-.8-2.9-.8-1.3 0-1.9.6-1.9 1.3 0 .8.6 1.2 1.8 1.5 2.9.8 4.7 2.3 4.7 5 .2 3-1.8 4.9-5.5 4.9zM42.7 183.1l-1.6 1.6h-5.3c.2.9 1.4 1.9 3.2 1.9 1.1 0 2.3-.3 3-.8l-.3 3c-.8.4-2.1.7-3.5.7-3.3 0-6-2.3-6-5.9 0-3.5 2.5-5.7 5.7-5.7 3 0 4.9 2.1 4.9 4.3 0 .3 0 .7-.1.9zm-4.8-2.5c-1 0-1.9.8-2.1 1.8h3.7v-.2c0-.8-.6-1.6-1.6-1.6zM54.4 183.1l-1.6 1.6h-5.3c.2.9 1.4 1.9 3.2 1.9 1.1 0 2.3-.3 3-.8l-.3 3c-.8.4-2.1.7-3.5.7-3.3 0-6-2.3-6-5.9 0-3.5 2.5-5.7 5.7-5.7 3 0 4.9 2.1 4.9 4.3 0 .3 0 .7-.1.9zm-4.8-2.5c-1 0-1.9.8-2.1 1.8h3.7v-.2c0-.8-.6-1.6-1.6-1.6zM68.6 189.2v-6.7c0-.8-.6-1.5-1.6-1.5-1.1 0-1.7.7-1.7 1.5v6.6h-3.5V172h3.5v7.2c.6-.8 1.6-1.3 3.1-1.3 2.4 0 3.8 1.3 3.8 3.6v7.6h-3.6zM79.7 189.5c-3.3 0-5.9-2.3-5.9-5.8s2.6-5.8 5.9-5.8c3.3 0 5.9 2.3 5.9 5.8s-2.6 5.8-5.9 5.8zm0-8.5c-1.3 0-2.4 1.2-2.4 2.8 0 1.6 1.1 2.8 2.4 2.8 1.3 0 2.4-1.2 2.4-2.8.1-1.6-1.1-2.8-2.4-2.8zM98.8 189.3h-2.4l-1.5-4.3c-.2-.7-.4-1.4-.6-2.3-.2.8-.4 1.6-.6 2.2l-1.5 4.3h-2.3l-3.8-11h3.2l1.3 4.1c.2.6.4 1.4.5 2.1.1-.7.3-1.5.5-2.1l1.4-4.1h2.7l1.4 4.1c.2.7.4 1.4.5 2.1.1-.7.3-1.5.6-2.1l1.4-4.1h3l-3.8 11.1z"/><g><path d="M34.1 213.2v-6.7c0-.8-.4-1.5-1.5-1.5s-1.6.7-1.6 1.5v6.6h-3.5v-6.7c0-.8-.4-1.5-1.5-1.5s-1.6.7-1.6 1.5v6.6h-3.5v-10.9h3.3v1.5c.4-1.2 1.5-1.8 3.2-1.8 1.6 0 2.7.6 3.2 1.8.5-1.1 1.7-1.8 3.4-1.8 2.5 0 3.8 1.3 3.8 3.6v7.6h-3.7zM47 213.2v-1.5c-.4 1.2-1.6 1.8-3.3 1.8-2.4 0-3.8-1.3-3.8-3.6v-7.6h3.5v6.7c0 .8.6 1.5 1.6 1.5 1.1 0 1.7-.7 1.7-1.6v-6.6h3.5v10.9H47zM60.7 205.8c-.7-.5-1.5-.7-2.3-.7-1.5 0-2.8 1.1-2.8 2.7s1.2 2.7 2.8 2.7c.9 0 1.6-.2 2.4-.6l-.3 3c-.7.3-1.7.5-2.7.5-3 0-5.9-2.2-5.9-5.7 0-3.6 2.9-5.7 5.8-5.7 1.4 0 2.6.3 3.6.8l-.6 3zM70 213.2v-6.7c0-.8-.6-1.5-1.6-1.5-1.1 0-1.7.7-1.7 1.5v6.6h-3.5V196h3.5v7.2c.6-.8 1.6-1.3 3.1-1.3 2.4 0 3.8 1.3 3.8 3.6v7.6H70zM87.8 212.1c-1.7 4.4-3.4 6-5.4 6.7l-2.2-2.2c1.8-.7 3.1-1.9 4-4.2l-3.9-10.1h3.4l1.6 4.2c.2.6.5 1.4.6 2.1.2-.7.5-1.5.7-2.1l1.6-4.2h3.2l-3.6 9.8zM97.7 213.5c-3.3 0-5.9-2.3-5.9-5.8s2.6-5.8 5.9-5.8c3.3 0 5.9 2.3 5.9 5.8s-2.6 5.8-5.9 5.8zm0-8.5c-1.3 0-2.4 1.2-2.4 2.8 0 1.6 1.1 2.8 2.4 2.8 1.3 0 2.4-1.2 2.4-2.8 0-1.6-1.1-2.8-2.4-2.8zM112.5 213.2v-1.5c-.4 1.2-1.6 1.8-3.3 1.8-2.4 0-3.8-1.3-3.8-3.6v-7.6h3.5v6.7c0 .8.6 1.5 1.6 1.5 1.1 0 1.7-.7 1.7-1.6v-6.6h3.5v10.9h-3.2zM124.7 206c-.2-.1-.7-.3-1.1-.3-1.1 0-2.2.6-2.2 2.3v5.1H118v-10.9h3.5v2.4c.4-1.7 1.6-2.6 3.1-2.6.3 0 .7 0 1 .1l-.9 3.9z"/></g><g><path d="M27.4 230c-.2-.1-.7-.3-1.1-.3-1.1 0-2.2.6-2.2 2.3v5.1h-3.5v-10.9h3.5v2.4c.4-1.7 1.6-2.6 3.1-2.6.3 0 .7 0 1 .1l-.8 3.9zM39.2 231.1l-1.6 1.6h-5.3c.2.9 1.4 1.9 3.2 1.9 1.1 0 2.3-.3 3-.8l-.3 3c-.8.4-2.1.7-3.5.7-3.3 0-6-2.3-6-5.9 0-3.5 2.5-5.7 5.7-5.7 3 0 4.9 2.1 4.9 4.3 0 .3 0 .7-.1.9zm-4.8-2.5c-1 0-1.9.8-2.1 1.8H36v-.2c0-.8-.6-1.6-1.6-1.6zM48.4 229.2h-2.8v4c0 .9.5 1.3 1.4 1.3.4 0 .6 0 .9-.1l-.3 2.7c-.3.2-.9.3-1.6.3-2.4 0-3.9-1.3-3.9-3.5v-4.7h-1.8v-2.9h1.8V224l3.5-1.3v3.6h3.5l-.7 2.9zM52.1 224.8c-.6 0-1.9-1.3-1.9-1.9s1.3-1.9 1.9-1.9 1.9 1.2 1.9 1.9-1.2 1.9-1.9 1.9zm-1.7 12.4v-10.9H54v10.9h-3.6zM63 230c-.2-.1-.7-.3-1.1-.3-1.1 0-2.2.6-2.2 2.3v5.1h-3.5v-10.9h3.5v2.4c.4-1.7 1.6-2.6 3.1-2.6.3 0 .7 0 1 .1L63 230zM74.7 231.1l-1.6 1.6h-5.3c.2.9 1.4 1.9 3.2 1.9 1.1 0 2.3-.3 3-.8l-.3 3c-.8.4-2.1.7-3.5.7-3.3 0-6-2.3-6-5.9 0-3.5 2.5-5.7 5.7-5.7 3 0 4.9 2.1 4.9 4.3 0 .3 0 .7-.1.9zm-4.7-2.5c-1 0-1.9.8-2.1 1.8h3.7v-.2c0-.8-.7-1.6-1.6-1.6zM90 237.2v-6.7c0-.8-.4-1.5-1.5-1.5s-1.6.7-1.6 1.5v6.6h-3.5v-6.7c0-.8-.4-1.5-1.5-1.5s-1.6.7-1.6 1.5v6.6h-3.5v-10.9h3.3v1.5c.4-1.2 1.5-1.8 3.2-1.8 1.6 0 2.7.6 3.2 1.8.5-1.1 1.7-1.8 3.4-1.8 2.5 0 3.8 1.3 3.8 3.6v7.6H90zM105.7 231.1l-1.6 1.6h-5.3c.2.9 1.4 1.9 3.2 1.9 1.1 0 2.3-.3 3-.8l-.3 3c-.8.4-2.1.7-3.5.7-3.3 0-6-2.3-6-5.9 0-3.5 2.5-5.7 5.7-5.7 3 0 4.9 2.1 4.9 4.3 0 .3-.1.7-.1.9zm-4.8-2.5c-1 0-1.9.8-2.1 1.8h3.7v-.2c0-.8-.7-1.6-1.6-1.6zM114.4 237.2v-6.7c0-.8-.5-1.5-1.6-1.5s-1.7.7-1.7 1.5v6.6h-3.5v-10.9h3.2v1.5c.4-1.2 1.6-1.8 3.3-1.8 2.4 0 3.8 1.3 3.8 3.6v7.6h-3.5zM127.3 229.2h-2.8v4c0 .9.5 1.3 1.4 1.3.4 0 .6 0 .9-.1l-.3 2.7c-.3.2-.9.3-1.6.3-2.4 0-3.9-1.3-3.9-3.5v-4.7h-1.8v-2.9h1.8V224l3.5-1.3v3.6h3.5l-.7 2.9z"/></g><g><path d="M22.6 248.8c-.6 0-1.9-1.3-1.9-1.9s1.3-1.9 1.9-1.9 1.9 1.2 1.9 1.9-1.3 1.9-1.9 1.9zm-1.8 12.4v-10.9h3.6v10.9h-3.6zM33.5 261.2v-6.7c0-.8-.5-1.5-1.6-1.5s-1.7.7-1.7 1.5v6.6h-3.5v-10.9h3.2v1.5c.4-1.2 1.6-1.8 3.3-1.8 2.4 0 3.8 1.3 3.8 3.6v7.6h-3.5zM47.5 253.8c-.7-.5-1.5-.7-2.3-.7-1.5 0-2.8 1.1-2.8 2.7s1.2 2.7 2.8 2.7c.9 0 1.6-.2 2.4-.6l-.3 3c-.7.3-1.7.5-2.7.5-3 0-5.9-2.2-5.9-5.7 0-3.6 2.9-5.7 5.8-5.7 1.4 0 2.6.3 3.6.8l-.6 3zM55.1 261.5c-3.3 0-5.9-2.3-5.9-5.8s2.6-5.8 5.9-5.8c3.3 0 5.9 2.3 5.9 5.8s-2.6 5.8-5.9 5.8zm0-8.5c-1.3 0-2.4 1.2-2.4 2.8 0 1.6 1.1 2.8 2.4 2.8 1.3 0 2.4-1.2 2.4-2.8.1-1.6-1.1-2.8-2.4-2.8zM76.2 261.2v-6.7c0-.8-.4-1.5-1.5-1.5s-1.6.7-1.6 1.5v6.6h-3.5v-6.7c0-.8-.4-1.5-1.5-1.5s-1.6.7-1.6 1.5v6.6H63v-10.9h3.3v1.5c.4-1.2 1.5-1.8 3.2-1.8 1.6 0 2.7.6 3.2 1.8.5-1.1 1.7-1.8 3.4-1.8 2.5 0 3.8 1.3 3.8 3.6v7.6h-3.7zM91.9 255.1l-1.6 1.6H85c.2.9 1.4 1.9 3.2 1.9 1.1 0 2.3-.3 3-.8l-.3 3c-.8.4-2.1.7-3.5.7-3.3 0-6-2.3-6-5.9 0-3.5 2.5-5.7 5.7-5.7 3 0 4.9 2.1 4.9 4.3 0 .3 0 .7-.1.9zm-4.8-2.5c-1 0-1.9.8-2.1 1.8h3.7v-.2c0-.8-.6-1.6-1.6-1.6z"/></g><g><path d="M29 277.8c-.7-.5-1.5-.7-2.3-.7-1.5 0-2.8 1.1-2.8 2.7s1.2 2.7 2.8 2.7c.9 0 1.6-.2 2.4-.6l-.3 3c-.7.3-1.7.5-2.7.5-3 0-5.9-2.2-5.9-5.7 0-3.6 2.9-5.7 5.8-5.7 1.4 0 2.6.3 3.6.8l-.6 3zM39 285.6c-.6-.1-1.4-.6-1.7-1.4-.5.9-1.5 1.3-2.8 1.3-1.9 0-3.6-1.3-3.6-3.6 0-2 1.6-3.3 3.7-3.6l2.2-.2v-.4c0-.6-.5-1.1-1.7-1.1-1.1 0-2.2.3-3 .8l-.6-2.7c.9-.6 2.4-1 3.8-1 2.9 0 4.9 1.3 4.9 3.9v3.6c0 1.3.5 1.9 1.3 2.3l-2.5 2.1zm-2.3-5.2l-1.3.1c-.9.1-1.3.7-1.3 1.4 0 .6.4 1.1 1.1 1.1.8 0 1.5-.6 1.5-1.6v-1zM49.5 285.2v-6.7c0-.8-.5-1.5-1.6-1.5s-1.7.7-1.7 1.5v6.6h-3.5v-10.9h3.2v1.5c.4-1.2 1.6-1.8 3.3-1.8 2.4 0 3.8 1.3 3.8 3.6v7.6h-3.5zM65.9 285.5c-2.3 0-4.2-.8-5.2-1.6v-15.8H64v6.6c.5-.4 1.6-.7 2.7-.7 3 0 5.5 2.1 5.5 5.6.1 3.3-2.1 5.9-6.3 5.9zm.3-8.5c-1 0-1.8.5-2.1.8v4.2c.4.3 1.1.5 1.8.5 1.8 0 2.9-1.2 2.9-2.8-.1-1.5-1.1-2.7-2.6-2.7zM84 279.1l-1.6 1.6h-5.3c.2.9 1.4 1.9 3.2 1.9 1.1 0 2.3-.3 3-.8l-.3 3c-.8.4-2.1.7-3.5.7-3.3 0-6-2.3-6-5.9 0-3.5 2.5-5.7 5.7-5.7 3 0 4.9 2.1 4.9 4.3 0 .3-.1.7-.1.9zm-4.8-2.5c-1 0-1.9.8-2.1 1.8h3.7v-.2c0-.8-.7-1.6-1.6-1.6zM87.2 285.5c-.6 0-2-1.3-2-2 0-.6 1.3-2 2-2 .6 0 2 1.3 2 2s-1.3 2-2 2z"/></g></svg>