<svg id="Layer_1" xmlns="http://www.w3.org/2000/svg" viewBox="0 0 160 600"><style>.st0{fill:#f9e038}</style><path class="st0" d="M34.1 455.8s-10.6 0-10.6 10.6v9.3s0 10.6 10.6 10.6h92s10.6 0 10.6-10.6v-9.3s0-10.6-10.6-10.6h-92z"/><path d="M38 469.4c0-.9-.3-1.8-1.4-1.8-1.4 0-1.5 1.8-1.5 2.8 0 1.1.1 2.6 1.6 2.6.9 0 1.3-.8 1.4-1.5l1.9.1c-.2 1.9-1.5 3-3.4 3-2.4 0-3.6-2-3.6-4.2 0-2.3 1.2-4.2 3.7-4.2 2.1 0 3.1 1.2 3.3 3.2h-2zM48 474.5h-2l-.5-1.7h-2.7l-.5 1.7h-1.7l2.6-8.2h2.2l2.6 8.2zm-3-3.2l-.9-2.9-.9 2.9H45zM54.1 472.8v1.6h-5.2v-8.2h1.9v6.6h3.3zM59.6 469.4c0-.9-.3-1.8-1.4-1.8-1.4 0-1.5 1.8-1.5 2.8 0 1.1.1 2.6 1.6 2.6.9 0 1.3-.8 1.4-1.5l1.9.1c-.2 1.9-1.5 3-3.4 3-2.4 0-3.6-2-3.6-4.2 0-2.3 1.2-4.2 3.7-4.2 2.1 0 3.1 1.2 3.3 3.2h-2zM69.3 471.2c0 .9 0 1.8-.7 2.5s-1.6.9-2.5.9c-.9 0-1.9-.1-2.5-.7-.8-.7-.9-1.7-.9-2.7v-5h2.1v5c0 .4 0 .9.2 1.3.3.4.8.6 1.2.6.4 0 .9-.1 1.2-.4.3-.4.2-.9.2-1.4v-5h1.7v4.9zM76 472.8v1.6h-5.2v-8.2h1.9v6.6H76zM83.6 474.5h-2.1l-.5-1.7h-2.7l-.5 1.7h-1.7l2.6-8.2H81l2.6 8.2zm-3.1-3.2l-.9-2.9-.9 2.9h1.8zM89.2 467.9h-2.1v6.6h-1.9v-6.6h-2.1v-1.6h6.1v1.6zM92.1 467.8v1.7h3.1v1.5h-3.1v1.8h4v1.6h-5.9v-8.2h5.9v1.6h-4zM107.1 474.5h-1.6l-3.2-5.5v5.5h-1.5v-8.2h2.1l2.7 4.8v-4.8h1.5v8.2zM109.2 473.3c-.6-.9-.9-1.9-.9-3 0-2.2 1.1-4.2 3.5-4.2 1.1 0 2 .4 2.6 1.3.6.8.9 2 .9 3 0 .9-.3 2.1-.8 2.9-.6.9-1.6 1.4-2.7 1.4s-2-.5-2.6-1.4zm1.4-4.7c-.2.5-.3 1.2-.3 1.7 0 1 .2 2.7 1.5 2.7.7 0 1-.3 1.2-.9.2-.5.3-1.2.3-1.7 0-.6-.1-1.3-.3-1.9-.2-.6-.6-.8-1.2-.8s-1 .3-1.2.9zM124.2 474.5h-1.9l-1.3-5.4-1.3 5.4h-1.9l-2.1-8.2h2l1.3 5.5 1.3-5.5h1.8l1.4 5.5.1-.4 1.2-5.2h1.6l-2.2 8.3z"/></svg>