<svg id="Layer_1" xmlns="http://www.w3.org/2000/svg" xmlns:xlink="http://www.w3.org/1999/xlink" viewBox="0 0 160 600"><style>.st0{fill:#005c97}.st1{clip-path:url(#SVGID_2_);fill:#fff}.st2{clip-path:url(#SVGID_4_);fill:url(#SVGID_5_)}.st3{clip-path:url(#SVGID_7_);fill:url(#SVGID_8_)}.st4{clip-path:url(#SVGID_10_);fill:url(#SVGID_11_)}</style><path class="st0" d="M79.6 531.2v3.9h-6.8v18.5h-4.3V535h-6.8v-3.9h17.9zm1.8 22.4h4.3v-22.4h-4.3v22.4zm26.8 0h-4.5l-2.3-5.5h-7.6l-2.3 5.5h-4.4l9.5-22.7h1.9l9.7 22.7zm20.9 0h-4.5l-2.3-5.5h-7.6l-2.3 5.5H108l9.5-22.7h1.9l9.7 22.7zm-29.2-9.2l-2.3-5.6-2.3 5.6h4.6zm21 0l-2.3-5.6-2.3 5.6h4.6z"/><defs><path id="SVGID_1_" d="M25.1 522h109.8v37.4H25.1z"/></defs><clipPath id="SVGID_2_"><use xlink:href="#SVGID_1_" overflow="visible"/></clipPath><path class="st1" d="M45.9 555c1.9 0 3.7-.8 4.9-2.1l5.3-5.3c1.2-1.2 2-2.9 2-4.8v-16.5H41.6c-1.9 0-3.7.8-4.9 2.1l-5.3 5.3a6.8 6.8 0 0 0-2 4.8V555h16.5z"/><defs><path id="SVGID_3_" d="M43.5 527.8c-3 0-5.4 2.4-5.4 5.4v1.8h11.3v11.3h1.8c3 0 5.4-2.4 5.4-5.4v-13.1H43.5z"/></defs><clipPath id="SVGID_4_"><use xlink:href="#SVGID_3_" overflow="visible"/></clipPath><linearGradient id="SVGID_5_" gradientUnits="userSpaceOnUse" x1="1" y1="601.077" x2="2" y2="601.077" gradientTransform="scale(18.2417 -18.2417) rotate(45 763.042 287.407)"><stop offset="0" stop-color="#9cdbf8"/><stop offset=".1" stop-color="#9cdbf8"/><stop offset=".9" stop-color="#009dda"/><stop offset="1" stop-color="#009dda"/></linearGradient><path class="st2" d="M28.8 537.1l18.6-18.6 18.5 18.6-18.5 18.5z"/><g><defs><path id="SVGID_6_" d="M51.2 547.8H36.7l-5.8 5.8h15c1.5 0 2.8-.6 3.9-1.6l4.9-4.9-.1-.1c-1.1.5-2.2.8-3.4.8"/></defs><clipPath id="SVGID_7_"><use xlink:href="#SVGID_6_" overflow="visible"/></clipPath><linearGradient id="SVGID_8_" gradientUnits="userSpaceOnUse" x1=".958" y1="601.042" x2="1.958" y2="601.042" gradientTransform="matrix(23.7811 0 0 -23.7811 8.085 14843.72)"><stop offset="0" stop-color="#18b0e6"/><stop offset=".162" stop-color="#16aae1"/><stop offset=".375" stop-color="#129ad2"/><stop offset=".617" stop-color="#0b7eb9"/><stop offset=".879" stop-color="#015897"/><stop offset=".9" stop-color="#005594"/><stop offset="1" stop-color="#005594"/></linearGradient><path class="st3" d="M30.9 546.9h23.8v6.6H30.9z"/></g><g><defs><path id="SVGID_9_" d="M32.5 534.7c-1.1 1-1.6 2.4-1.6 3.9v15l5.8-5.8v-14.6c0-1.2.3-2.3.8-3.3l-.1-.1-4.9 4.9z"/></defs><clipPath id="SVGID_10_"><use xlink:href="#SVGID_9_" overflow="visible"/></clipPath><linearGradient id="SVGID_11_" gradientUnits="userSpaceOnUse" x1="1.042" y1="601.042" x2="2.042" y2="601.042" gradientTransform="matrix(0 -23.7815 -23.7815 0 14327.854 578.358)"><stop offset="0" stop-color="#0081bc"/><stop offset=".412" stop-color="#006eab"/><stop offset=".85" stop-color="#005594"/><stop offset="1" stop-color="#005594"/></linearGradient><path class="st4" d="M30.9 529.8h6.6v23.8h-6.6z"/></g></svg>