<?xml version="1.0" encoding="utf-8"?>
<!-- Generator: Adobe Illustrator 17.0.0, SVG Export Plug-In . SVG Version: 6.00 Build 0)  -->
<!DOCTYPE svg PUBLIC "-//W3C//DTD SVG 1.1//EN" "http://www.w3.org/Graphics/SVG/1.1/DTD/svg11.dtd">
<svg version="1.1" id="Layer_2" xmlns="http://www.w3.org/2000/svg" xmlns:xlink="http://www.w3.org/1999/xlink" x="0px" y="0px"
	 width="728px" height="90px" viewBox="0 0 728 90" enable-background="new 0 0 728 90" xml:space="preserve">
<g>
	<path fill="#231F20" d="M695.989,86.44c-0.927,0-1.734-0.647-1.734-1.847c0-1.359,0.999-2.814,2.366-3.519l0.72,0.336
		c-0.959,0.479-1.711,1.159-2.087,2.047c0.192-0.191,0.448-0.328,0.792-0.328c0.976,0,1.639,0.729,1.639,1.647
		C697.685,85.737,696.965,86.44,695.989,86.44z M695.998,83.802c-0.4,0-0.848,0.152-0.992,0.712
		c-0.008,0.088-0.008,0.176-0.008,0.264c0,0.576,0.479,1.056,1.008,1.056c0.527,0,0.943-0.408,0.943-1.016
		C696.949,84.241,696.558,83.802,695.998,83.802z"/>
	<path fill="#231F20" d="M700.142,86.448c-0.928,0-1.743-0.848-1.743-2.654c0-1.791,0.815-2.646,1.743-2.646
		c0.911,0,1.743,0.855,1.743,2.646C701.885,85.601,701.053,86.448,700.142,86.448z M700.142,81.795c-0.52,0-1.008,0.56-1.008,1.999
		c0,1.455,0.488,2.007,1.008,2.007c0.512,0,1.008-0.552,1.008-2.007C701.149,82.354,700.653,81.795,700.142,81.795z"/>
	<path fill="#231F20" d="M703.862,86.44c-0.392,0-0.76-0.088-0.968-0.2l-0.08-0.72c0.32,0.192,0.656,0.28,1.008,0.28
		c0.592,0,1.095-0.376,1.095-1.016c0-0.655-0.503-1.047-1.071-1.047c-0.375,0-0.64,0.048-0.879,0.136l0.08-2.623h2.23l-0.136,0.624
		h-1.399l-0.032,1.239c0.064-0.008,0.145-0.016,0.208-0.016c0.951,0,1.735,0.64,1.735,1.694
		C705.653,85.673,705.037,86.44,703.862,86.44z"/>
	<path fill="#231F20" d="M707.262,86.513l-0.72-0.336c0.976-0.488,1.735-1.151,2.104-2.047c-0.192,0.191-0.456,0.328-0.808,0.328
		c-0.976,0-1.64-0.729-1.64-1.647c0-0.96,0.72-1.663,1.695-1.663c0.928,0,1.735,0.647,1.735,1.847
		C709.629,84.354,708.629,85.809,707.262,86.513z M707.878,81.803c-0.528,0-0.943,0.408-0.943,1.016
		c0,0.576,0.392,1.016,0.951,1.016c0.407,0,0.848-0.168,0.991-0.728c0.008-0.08,0.008-0.16,0.008-0.248
		C708.885,82.283,708.405,81.803,707.878,81.803z"/>
	<path fill="#231F20" d="M712.134,86.44c-0.928,0-1.735-0.647-1.735-1.847c0-1.359,1-2.814,2.367-3.519l0.72,0.336
		c-0.96,0.479-1.712,1.159-2.087,2.047c0.191-0.191,0.447-0.328,0.791-0.328c0.976,0,1.64,0.729,1.64,1.647
		C713.829,85.737,713.109,86.44,712.134,86.44z M712.142,83.802c-0.399,0-0.848,0.152-0.991,0.712
		c-0.008,0.088-0.008,0.176-0.008,0.264c0,0.576,0.479,1.056,1.007,1.056c0.528,0,0.943-0.408,0.943-1.016
		C713.093,84.241,712.701,83.802,712.142,83.802z"/>
	<path fill="#231F20" d="M715.47,86.353h-0.783l1.935-4.478h-2.343v-0.624h3.382L715.47,86.353z"/>
	<path fill="#231F20" d="M720.94,86.44c-0.247-0.056-0.52-0.264-0.575-0.567c-0.168,0.424-0.552,0.567-0.968,0.567
		c-0.72,0-1.167-0.527-1.167-1.111c0-0.703,0.575-1.104,1.191-1.159l0.848-0.08v-0.231c0-0.328-0.192-0.592-0.704-0.592
		c-0.359,0-0.735,0.111-0.999,0.287l-0.145-0.6c0.328-0.216,0.744-0.312,1.184-0.312c0.808,0,1.392,0.456,1.392,1.312v1.463
		c0,0.328,0.176,0.52,0.407,0.56L720.94,86.44z M720.27,84.689l-0.696,0.063c-0.464,0.04-0.647,0.32-0.647,0.584
		c0,0.256,0.208,0.488,0.536,0.488c0.432,0,0.808-0.328,0.808-0.816V84.689z"/>
</g>
</svg>
