<?xml version="1.0" encoding="utf-8"?>
<!-- Generator: Adobe Illustrator 22.1.0, SVG Export Plug-In . SVG Version: 6.00 Build 0)  -->
<svg version="1.1" id="Layer_1" xmlns="http://www.w3.org/2000/svg" xmlns:xlink="http://www.w3.org/1999/xlink" x="0px" y="0px"
	 viewBox="0 0 728 90" style="enable-background:new 0 0 728 90;" xml:space="preserve">
<style type="text/css">
	.st0{fill:#231F20;}
</style>
<g>
	<path class="st0" d="M31.1,49.6l-1.4-3.7h-5.3l-1.4,3.7h-3.8l6.5-16.7h2.8l6.5,16.7H31.1z M27.6,39.6c-0.2-0.4-0.4-1-0.5-1.5H27
		c-0.1,0.5-0.3,1.1-0.5,1.5l-1.1,3.1h3.2L27.6,39.6z"/>
	<path class="st0" d="M43.9,49.6v-7.2c0-0.9-0.6-1.6-1.7-1.6c-1.1,0-1.9,0.7-1.9,1.7v7.2h-3.8V37.8H40v1.6h0c0.5-1.2,1.7-2,3.6-2
		c2.6,0,4.1,1.5,4.1,4v8.2H43.9z"/>
	<path class="st0" d="M58.9,49.6v-1.5h0c-0.6,1.2-2,1.8-3.6,1.8c-2.9,0-5.7-2.2-5.7-6.2c0-3.8,2.7-6.3,6-6.3c1.2,0,2.5,0.4,3,0.8
		v-7.2h3.7v18.5H58.9z M58.6,41.9c-0.4-0.5-1.1-1.1-2.3-1.1c-1.7,0-2.8,1.3-2.8,3s1.2,3,2.8,3c1.1,0,1.9-0.6,2.3-1.2V41.9z"/>
	<path class="st0" d="M76.3,49.9c-2.5,0-4.5-0.9-5.7-1.7V31.1h3.7v7.2c0.5-0.4,1.7-0.8,3-0.8c3.2,0,5.9,2.3,5.9,6
		C83.2,47.1,80.9,49.9,76.3,49.9z M76.6,40.8c-1.1,0-1.9,0.5-2.3,0.9v4.5c0.4,0.3,1.2,0.6,1.9,0.6c2,0,3.2-1.3,3.2-3
		C79.4,42.1,78.3,40.8,76.6,40.8z"/>
	<path class="st0" d="M91.7,48.4c-1.8,4.7-3.7,6.4-5.9,7.3l-2.3-2.3c1.9-0.7,3.4-2.1,4.3-4.6l-4.2-11h3.7l1.7,4.6
		c0.3,0.7,0.5,1.5,0.7,2.3h0.1c0.2-0.8,0.5-1.6,0.8-2.3l1.7-4.6h3.5L91.7,48.4z"/>
	<path class="st0" d="M109.7,49.9c-1.2,0-2.5-0.4-3-0.8v6.4H103V37.8h3.4v1.5h0c0.7-1.2,2-1.8,3.6-1.8c2.9,0,5.7,2.2,5.7,6.2
		C115.7,47.5,113,49.9,109.7,49.9z M109,40.8c-1.1,0-1.9,0.6-2.3,1.2v3.7c0.4,0.5,1.1,1,2.3,1c1.7,0,2.8-1.3,2.8-3
		S110.7,40.8,109,40.8z"/>
	<path class="st0" d="M123.5,50c-3.6,0-6.4-2.5-6.4-6.3s2.9-6.3,6.4-6.3c3.5,0,6.4,2.5,6.4,6.3S127,50,123.5,50z M123.5,40.7
		c-1.4,0-2.7,1.2-2.7,3c0,1.7,1.2,3,2.7,3c1.4,0,2.7-1.2,2.7-3C126.1,42,124.9,40.7,123.5,40.7z"/>
	<path class="st0" d="M139.6,40.9h-3.1v4.4c0,1,0.5,1.4,1.6,1.4c0.4,0,0.7,0,1-0.2l-0.3,2.9c-0.4,0.2-1,0.3-1.8,0.3
		c-2.7,0-4.2-1.4-4.2-3.7v-5.1h-2v-3.1h2v-2.5l3.8-1.4v3.9h3.8L139.6,40.9z"/>
	<path class="st0" d="M152.1,43l-1.7,1.7h-5.8c0.2,1,1.5,2.1,3.5,2.1c1.2,0,2.5-0.4,3.2-0.9l-0.4,3.3c-0.9,0.5-2.2,0.8-3.7,0.8
		c-3.6,0-6.5-2.5-6.5-6.3c0-3.8,2.8-6.2,6.1-6.2c3.3,0,5.3,2.3,5.3,4.7C152.2,42.4,152.2,42.8,152.1,43z M147,40.3
		c-1.1,0-2.1,0.9-2.3,1.9h4c0-0.1,0-0.2,0-0.3C148.7,41.1,148,40.3,147,40.3z"/>
	<path class="st0" d="M161.5,49.6v-7.2c0-0.9-0.6-1.6-1.7-1.6c-1.1,0-1.9,0.7-1.9,1.7v7.2h-3.8V37.8h3.5v1.6h0c0.5-1.2,1.7-2,3.6-2
		c2.6,0,4.1,1.5,4.1,4v8.2H161.5z"/>
	<path class="st0" d="M175.5,40.9h-3.1v4.4c0,1,0.5,1.4,1.6,1.4c0.4,0,0.7,0,1-0.2l-0.3,2.9c-0.4,0.2-1,0.3-1.8,0.3
		c-2.7,0-4.2-1.4-4.2-3.7v-5.1h-2v-3.1h2v-2.5l3.8-1.4v3.9h3.8L175.5,40.9z"/>
	<path class="st0" d="M179.5,36.2c-0.7,0-2.1-1.4-2.1-2.1c0-0.7,1.4-2,2.1-2c0.7,0,2.1,1.4,2.1,2C181.6,34.8,180.2,36.2,179.5,36.2z
		 M177.6,49.6V37.8h3.8v11.8H177.6z"/>
	<path class="st0" d="M192.2,50.1c-0.7-0.2-1.5-0.7-1.8-1.6c-0.5,1-1.6,1.4-3.1,1.4c-2.1,0-3.9-1.5-3.9-3.9c0-2.2,1.7-3.6,4-3.8
		l2.3-0.2v-0.4c0-0.7-0.6-1.2-1.8-1.2c-1.1,0-2.4,0.4-3.3,0.9l-0.7-2.9c1-0.6,2.6-1,4.1-1c3.1,0,5.3,1.4,5.3,4.3v3.8
		c0,1.4,0.5,2.1,1.4,2.4L192.2,50.1z M189.8,44.4l-1.4,0.1c-1,0.1-1.4,0.8-1.4,1.5c0,0.6,0.5,1.1,1.2,1.1c0.9,0,1.7-0.7,1.7-1.7
		V44.4z"/>
	<path class="st0" d="M200.1,50.1c-2.4-0.1-4-1.4-4-4.2V31.1h3.8v14.3c0,1,0.5,1.5,1.6,1.6L200.1,50.1z"/>
	<path class="st0" d="M207,50.1c-2.4-0.1-4-1.4-4-4.2V31.1h3.8v14.3c0,1,0.5,1.5,1.6,1.6L207,50.1z"/>
	<path class="st0" d="M216.5,48.4c-1.8,4.7-3.7,6.4-5.9,7.3l-2.3-2.3c1.9-0.7,3.4-2.1,4.3-4.6l-4.2-11h3.7l1.7,4.6
		c0.3,0.7,0.5,1.5,0.7,2.3h0.1c0.2-0.8,0.5-1.6,0.8-2.3l1.7-4.6h3.5L216.5,48.4z"/>
	<path class="st0" d="M232,50.1c-2.4-0.1-4-1.4-4-4.2V31.1h3.8v14.3c0,1,0.5,1.5,1.6,1.6L232,50.1z"/>
	<path class="st0" d="M236.8,36.2c-0.7,0-2.1-1.4-2.1-2.1c0-0.7,1.4-2,2.1-2c0.7,0,2.1,1.4,2.1,2C238.8,34.8,237.4,36.2,236.8,36.2z
		 M234.8,49.6V37.8h3.8v11.8H234.8z"/>
	<path class="st0" d="M255.7,49.6v-7.2c0-0.9-0.4-1.6-1.7-1.6c-1.2,0-1.8,0.7-1.8,1.7v7.2h-3.8v-7.2c0-0.9-0.4-1.6-1.7-1.6
		c-1.2,0-1.8,0.7-1.8,1.7v7.2h-3.8V37.8h3.5v1.6h0c0.5-1.2,1.6-2,3.5-2c1.7,0,3,0.7,3.5,1.9c0.5-1.1,1.9-1.9,3.6-1.9
		c2.7,0,4.2,1.5,4.2,4v8.2H255.7z"/>
	<path class="st0" d="M263.9,36.2c-0.7,0-2.1-1.4-2.1-2.1c0-0.7,1.4-2,2.1-2c0.7,0,2.1,1.4,2.1,2C265.9,34.8,264.6,36.2,263.9,36.2z
		 M262,49.6V37.8h3.8v11.8H262z"/>
	<path class="st0" d="M276.1,40.9H273v4.4c0,1,0.5,1.4,1.6,1.4c0.4,0,0.7,0,1-0.2l-0.3,2.9c-0.4,0.2-1,0.3-1.8,0.3
		c-2.7,0-4.2-1.4-4.2-3.7v-5.1h-2v-3.1h2v-2.5l3.8-1.4v3.9h3.8L276.1,40.9z"/>
	<path class="st0" d="M280.1,36.2c-0.7,0-2.1-1.4-2.1-2.1c0-0.7,1.4-2,2.1-2c0.7,0,2.1,1.4,2.1,2C282.2,34.8,280.8,36.2,280.1,36.2z
		 M278.2,49.6V37.8h3.8v11.8H278.2z"/>
	<path class="st0" d="M292,49.6v-7.2c0-0.9-0.6-1.6-1.7-1.6c-1.1,0-1.9,0.7-1.9,1.7v7.2h-3.8V37.8h3.5v1.6h0c0.5-1.2,1.7-2,3.6-2
		c2.6,0,4.1,1.5,4.1,4v8.2H292z"/>
	<path class="st0" d="M303.2,55.6c-3.4,0-5.7-1.9-5.7-4.4c0-1.8,1.2-2.9,2.4-3.2l-1.5-1.5c0.1-0.8,0.8-1.4,1.4-1.7
		c-0.9-0.5-1.7-1.7-1.7-3.1c0-2.5,1.8-4.2,4.9-4.2c0.7,0,1.2,0.1,1.7,0.2c0.5,0.1,1.1,0.2,1.7,0.2c0.6,0,1.3-0.2,1.8-0.4l0.7,2.9
		c-0.4,0.2-0.9,0.4-1.5,0.4c0.1,0.2,0.3,0.8,0.3,1.2c0,2-1.6,3.6-3.8,3.8c-0.5,0-0.8,0.1-0.8,0.4c0,0.1,0.1,0.3,0.3,0.4l1.8,0.6
		c2.3,0.8,3.6,2,3.6,4.2C308.8,53.8,306.6,55.6,303.2,55.6z M304,50.1l-1.4-0.4c-0.9,0-1.6,0.7-1.6,1.5c0,0.8,0.7,1.5,2.1,1.5
		c1.4,0,2.1-0.6,2.1-1.3C305.1,50.8,304.7,50.3,304,50.1z M302.9,40.2c-0.9,0-1.5,0.6-1.5,1.4c0,0.8,0.6,1.4,1.5,1.4
		c0.8,0,1.5-0.6,1.5-1.4C304.4,40.9,303.8,40.2,302.9,40.2z"/>
	<path class="st0" d="M323.5,48.4c-1.8,4.7-3.7,6.4-5.9,7.3l-2.3-2.3c1.9-0.7,3.4-2.1,4.3-4.6l-4.2-11h3.7l1.7,4.6
		c0.3,0.7,0.5,1.5,0.7,2.3h0.1c0.2-0.8,0.5-1.6,0.8-2.3l1.7-4.6h3.5L323.5,48.4z"/>
	<path class="st0" d="M334.3,50c-3.6,0-6.4-2.5-6.4-6.3s2.9-6.3,6.4-6.3c3.5,0,6.4,2.5,6.4,6.3S337.8,50,334.3,50z M334.3,40.7
		c-1.4,0-2.7,1.2-2.7,3c0,1.7,1.2,3,2.7,3c1.4,0,2.7-1.2,2.7-3C336.9,42,335.7,40.7,334.3,40.7z"/>
	<path class="st0" d="M350.3,49.6V48h0c-0.5,1.2-1.7,2-3.6,2c-2.6,0-4.1-1.4-4.1-3.9v-8.2h3.8V45c0,0.9,0.6,1.6,1.8,1.6
		c1.1,0,1.8-0.8,1.8-1.7v-7.2h3.8v11.8H350.3z"/>
	<path class="st0" d="M363.5,41.9c-0.2-0.1-0.8-0.3-1.1-0.3c-1.2,0-2.3,0.6-2.3,2.5v5.5h-3.8V37.8h3.8v2.6h0
		c0.4-1.8,1.8-2.8,3.4-2.8c0.4,0,0.8,0.1,1.1,0.2L363.5,41.9z"/>
	<path class="st0" d="M378.9,41.9c-0.2-0.1-0.8-0.3-1.1-0.3c-1.2,0-2.3,0.6-2.3,2.5v5.5h-3.8V37.8h3.8v2.6h0
		c0.4-1.8,1.8-2.8,3.4-2.8c0.4,0,0.8,0.1,1.1,0.2L378.9,41.9z"/>
	<path class="st0" d="M391.7,43l-1.7,1.7h-5.8c0.2,1,1.5,2.1,3.5,2.1c1.2,0,2.5-0.4,3.3-0.9l-0.4,3.3c-0.9,0.5-2.2,0.8-3.7,0.8
		c-3.6,0-6.5-2.5-6.5-6.3c0-3.8,2.8-6.2,6.1-6.2c3.3,0,5.3,2.3,5.3,4.7C391.8,42.4,391.7,42.8,391.7,43z M386.5,40.3
		c-1.1,0-2.1,0.9-2.3,1.9h4c0-0.1,0-0.2,0-0.3C388.2,41.1,387.5,40.3,386.5,40.3z"/>
	<path class="st0" d="M401.6,40.9h-3.1v4.4c0,1,0.5,1.4,1.6,1.4c0.4,0,0.7,0,1-0.2l-0.3,2.9c-0.4,0.2-1,0.3-1.8,0.3
		c-2.7,0-4.2-1.4-4.2-3.7v-5.1h-2v-3.1h2v-2.5l3.8-1.4v3.9h3.8L401.6,40.9z"/>
	<path class="st0" d="M411.4,49.6V48h0c-0.5,1.2-1.7,2-3.6,2c-2.6,0-4.1-1.4-4.1-3.9v-8.2h3.8V45c0,0.9,0.6,1.6,1.8,1.6
		c1.1,0,1.8-0.8,1.8-1.7v-7.2h3.8v11.8H411.4z"/>
	<path class="st0" d="M424.6,41.9c-0.2-0.1-0.8-0.3-1.1-0.3c-1.2,0-2.3,0.6-2.3,2.5v5.5h-3.8V37.8h3.8v2.6h0
		c0.4-1.8,1.8-2.8,3.4-2.8c0.4,0,0.8,0.1,1.1,0.2L424.6,41.9z"/>
	<path class="st0" d="M434.2,49.6v-7.2c0-0.9-0.6-1.6-1.7-1.6c-1.1,0-1.9,0.7-1.9,1.7v7.2h-3.8V37.8h3.5v1.6h0c0.5-1.2,1.7-2,3.6-2
		c2.6,0,4.1,1.5,4.1,4v8.2H434.2z"/>
	<path class="st0" d="M444.2,49.8c-1.6,0-2.8-0.3-3.7-0.8l-0.3-3.4c1,0.7,2.4,1.3,3.7,1.3c0.7,0,1.1-0.4,1.1-0.8
		c0-0.5-0.4-0.7-1.1-0.9c-2.3-0.6-3.6-1.8-3.6-3.8c0-2.3,1.9-3.8,4.4-3.8c1.5,0,2.9,0.4,3.5,0.7l-0.7,2.8c-0.6-0.3-1.5-0.6-2.4-0.6
		c-0.6,0-1,0.3-1,0.8c0,0.4,0.3,0.7,1,0.9c2.7,0.7,3.7,2,3.7,4C448.9,48,447.4,49.8,444.2,49.8z"/>
	<path class="st0" d="M452.6,50c-0.7,0-2.2-1.5-2.2-2.2c0-0.7,1.5-2.1,2.2-2.1c0.7,0,2.2,1.5,2.2,2.1C454.7,48.5,453.3,50,452.6,50z
		"/>
</g>
</svg>
