<?xml version="1.0" encoding="utf-8"?>
<!-- Generator: Adobe Illustrator 22.1.0, SVG Export Plug-In . SVG Version: 6.00 Build 0)  -->
<svg version="1.1" id="Layer_1" xmlns="http://www.w3.org/2000/svg" xmlns:xlink="http://www.w3.org/1999/xlink" x="0px" y="0px"
	 viewBox="0 0 728 90" style="enable-background:new 0 0 728 90;" xml:space="preserve">
<style type="text/css">
	.st0{fill:#231F20;}
</style>
<g>
	<path class="st0" d="M25.8,39.6V33h-6.4v6.6h-4V23h4v6.5h6.4V23h4v16.6H25.8z"/>
	<path class="st0" d="M40.9,40.1c-0.7-0.2-1.5-0.7-1.8-1.6c-0.5,1-1.6,1.4-3.1,1.4c-2.1,0-3.9-1.5-3.9-3.9c0-2.2,1.7-3.6,4-3.8
		l2.3-0.2v-0.4c0-0.7-0.6-1.2-1.8-1.2c-1.1,0-2.4,0.4-3.3,0.9l-0.7-2.9c1-0.6,2.6-1,4.1-1c3.1,0,5.3,1.4,5.3,4.3v3.8
		c0,1.4,0.5,2.1,1.4,2.4L40.9,40.1z M38.4,34.4L37,34.6c-1,0.1-1.4,0.8-1.4,1.5c0,0.6,0.5,1.1,1.2,1.1c0.9,0,1.7-0.7,1.7-1.7V34.4z"
		/>
	<path class="st0" d="M50.6,39.7h-2.9l-4.5-11.9h3.7l1.7,4.5c0.2,0.6,0.5,1.5,0.6,2.3h0.1c0.2-0.8,0.4-1.7,0.7-2.3l1.7-4.5h3.5
		L50.6,39.7z"/>
	<path class="st0" d="M58.5,26.2c-0.7,0-2.1-1.4-2.1-2.1c0-0.7,1.4-2,2.1-2c0.7,0,2.1,1.4,2.1,2C60.5,24.8,59.1,26.2,58.5,26.2z
		 M56.5,39.6V27.8h3.8v11.8H56.5z"/>
	<path class="st0" d="M70.3,39.6v-7.2c0-0.9-0.6-1.6-1.7-1.6c-1.1,0-1.9,0.7-1.9,1.7v7.2h-3.8V27.8h3.5v1.6h0c0.5-1.2,1.7-2,3.6-2
		c2.6,0,4.1,1.5,4.1,4v8.2H70.3z"/>
	<path class="st0" d="M81.5,45.6c-3.4,0-5.7-2-5.7-4.4c0-1.8,1.2-2.9,2.4-3.2l-1.5-1.5c0.1-0.8,0.8-1.4,1.4-1.7
		c-0.9-0.5-1.7-1.7-1.7-3.1c0-2.5,1.8-4.2,4.9-4.2c0.7,0,1.2,0.1,1.7,0.2c0.5,0.1,1.1,0.2,1.7,0.2c0.6,0,1.3-0.2,1.8-0.4l0.7,2.9
		c-0.4,0.2-0.9,0.4-1.5,0.4c0.1,0.2,0.3,0.8,0.3,1.2c0,2-1.6,3.6-3.8,3.8c-0.5,0-0.8,0.1-0.8,0.4c0,0.1,0.1,0.3,0.3,0.4l1.8,0.6
		c2.3,0.8,3.6,2,3.6,4.2C87.1,43.8,84.9,45.6,81.5,45.6z M82.3,40.1l-1.4-0.4c-0.9,0-1.6,0.7-1.6,1.5c0,0.8,0.7,1.5,2.1,1.5
		c1.4,0,2.1-0.6,2.1-1.3C83.5,40.8,83.1,40.3,82.3,40.1z M81.3,30.2c-0.9,0-1.5,0.6-1.5,1.4c0,0.8,0.6,1.4,1.5,1.4
		c0.8,0,1.5-0.6,1.5-1.4C82.8,30.9,82.1,30.2,81.3,30.2z"/>
	<path class="st0" d="M102.5,30.9h-3.1v4.4c0,1,0.5,1.4,1.6,1.4c0.4,0,0.7,0,1-0.2l-0.3,2.9c-0.4,0.2-1,0.3-1.8,0.3
		c-2.7,0-4.2-1.4-4.2-3.7v-5.1h-2v-3.1h2v-2.5l3.8-1.4v3.9h3.8L102.5,30.9z"/>
	<path class="st0" d="M110.2,40c-3.6,0-6.4-2.5-6.4-6.3s2.9-6.3,6.4-6.3c3.5,0,6.4,2.5,6.4,6.3S113.8,40,110.2,40z M110.2,30.7
		c-1.4,0-2.7,1.2-2.7,3c0,1.7,1.2,3,2.7,3c1.4,0,2.7-1.2,2.7-3C112.9,32,111.6,30.7,110.2,30.7z"/>
	<path class="st0" d="M124.4,40c-3.6,0-6.4-2.5-6.4-6.3s2.9-6.3,6.4-6.3c3.5,0,6.4,2.5,6.4,6.3S127.9,40,124.4,40z M124.4,30.7
		c-1.4,0-2.7,1.2-2.7,3c0,1.7,1.2,3,2.7,3c1.4,0,2.7-1.2,2.7-3C127,32,125.8,30.7,124.4,30.7z"/>
	<path class="st0" d="M153,39.6v-7.2c0-0.9-0.4-1.6-1.7-1.6c-1.2,0-1.8,0.7-1.8,1.7v7.2h-3.8v-7.2c0-0.9-0.4-1.6-1.7-1.6
		c-1.2,0-1.8,0.7-1.8,1.7v7.2h-3.8V27.8h3.5v1.6h0c0.5-1.2,1.6-2,3.5-2c1.7,0,3,0.7,3.5,1.9c0.5-1.1,1.9-1.9,3.6-1.9
		c2.7,0,4.2,1.5,4.2,4v8.2H153z"/>
	<path class="st0" d="M167.6,40.1c-0.7-0.2-1.5-0.7-1.8-1.6c-0.5,1-1.6,1.4-3.1,1.4c-2.1,0-3.9-1.5-3.9-3.9c0-2.2,1.7-3.6,4-3.8
		l2.3-0.2v-0.4c0-0.7-0.6-1.2-1.8-1.2c-1.1,0-2.4,0.4-3.3,0.9l-0.7-2.9c1-0.6,2.6-1,4.1-1c3.1,0,5.3,1.4,5.3,4.3v3.8
		c0,1.4,0.5,2.1,1.4,2.4L167.6,40.1z M165.1,34.4l-1.4,0.1c-1,0.1-1.4,0.8-1.4,1.5c0,0.6,0.5,1.1,1.2,1.1c0.9,0,1.7-0.7,1.7-1.7
		V34.4z"/>
	<path class="st0" d="M179,39.6v-7.2c0-0.9-0.6-1.6-1.7-1.6c-1.1,0-1.9,0.7-1.9,1.7v7.2h-3.8V27.8h3.5v1.6h0c0.5-1.2,1.7-2,3.6-2
		c2.6,0,4.1,1.5,4.1,4v8.2H179z"/>
	<path class="st0" d="M191.9,38.4c-1.8,4.7-3.7,6.4-5.9,7.3l-2.3-2.3c1.9-0.7,3.4-2.1,4.3-4.6l-4.2-11h3.7l1.7,4.6
		c0.3,0.7,0.5,1.5,0.7,2.3h0.1c0.2-0.8,0.5-1.6,0.8-2.3l1.7-4.6h3.5L191.9,38.4z"/>
	<path class="st0" d="M210.5,31.9c-0.2-0.1-0.8-0.3-1.1-0.3c-1.2,0-2.3,0.6-2.3,2.5v5.5h-3.8V27.8h3.8v2.6h0
		c0.4-1.8,1.8-2.8,3.4-2.8c0.4,0,0.8,0.1,1.1,0.2L210.5,31.9z"/>
	<path class="st0" d="M223.2,33l-1.7,1.7h-5.8c0.2,1,1.5,2.1,3.5,2.1c1.2,0,2.5-0.4,3.2-0.9l-0.4,3.3c-0.9,0.5-2.2,0.8-3.7,0.8
		c-3.6,0-6.5-2.5-6.5-6.3c0-3.8,2.8-6.2,6.1-6.2c3.3,0,5.3,2.3,5.3,4.7C223.3,32.4,223.2,32.8,223.2,33z M218,30.3
		c-1.1,0-2.1,0.9-2.3,1.9h4c0-0.1,0-0.2,0-0.3C219.7,31.1,219,30.3,218,30.3z"/>
	<path class="st0" d="M233.1,30.9h-3.1v4.4c0,1,0.5,1.4,1.6,1.4c0.4,0,0.7,0,1-0.2l-0.3,2.9c-0.4,0.2-1,0.3-1.8,0.3
		c-2.7,0-4.2-1.4-4.2-3.7v-5.1h-2v-3.1h2v-2.5l3.8-1.4v3.9h3.8L233.1,30.9z"/>
	<path class="st0" d="M237.2,26.2c-0.7,0-2.1-1.4-2.1-2.1c0-0.7,1.4-2,2.1-2c0.7,0,2.1,1.4,2.1,2C239.2,24.8,237.8,26.2,237.2,26.2z
		 M235.2,39.6V27.8h3.8v11.8H235.2z"/>
	<path class="st0" d="M248.9,31.9c-0.2-0.1-0.8-0.3-1.1-0.3c-1.2,0-2.3,0.6-2.3,2.5v5.5h-3.8V27.8h3.8v2.6h0
		c0.4-1.8,1.8-2.8,3.4-2.8c0.4,0,0.8,0.1,1.1,0.2L248.9,31.9z"/>
	<path class="st0" d="M261.6,33l-1.7,1.7h-5.8c0.2,1,1.5,2.1,3.5,2.1c1.2,0,2.5-0.4,3.2-0.9l-0.4,3.3c-0.9,0.5-2.2,0.8-3.7,0.8
		c-3.6,0-6.5-2.5-6.5-6.3c0-3.8,2.8-6.2,6.1-6.2c3.3,0,5.3,2.3,5.3,4.7C261.7,32.4,261.6,32.8,261.6,33z M256.4,30.3
		c-1.1,0-2.1,0.9-2.3,1.9h4c0-0.1,0-0.2,0-0.3C258.1,31.1,257.4,30.3,256.4,30.3z"/>
	<path class="st0" d="M278.1,39.6v-7.2c0-0.9-0.4-1.6-1.7-1.6c-1.2,0-1.8,0.7-1.8,1.7v7.2h-3.8v-7.2c0-0.9-0.4-1.6-1.7-1.6
		c-1.2,0-1.8,0.7-1.8,1.7v7.2h-3.8V27.8h3.5v1.6h0c0.5-1.2,1.6-2,3.5-2c1.7,0,3,0.7,3.5,1.9c0.5-1.1,1.9-1.9,3.6-1.9
		c2.7,0,4.2,1.5,4.2,4v8.2H278.1z"/>
	<path class="st0" d="M295.1,33l-1.7,1.7h-5.8c0.2,1,1.5,2.1,3.5,2.1c1.2,0,2.5-0.4,3.2-0.9l-0.4,3.3c-0.9,0.5-2.2,0.8-3.7,0.8
		c-3.6,0-6.5-2.5-6.5-6.3c0-3.8,2.8-6.2,6.1-6.2c3.3,0,5.3,2.3,5.3,4.7C295.2,32.4,295.2,32.8,295.1,33z M289.9,30.3
		c-1.1,0-2.1,0.9-2.3,1.9h4c0-0.1,0-0.2,0-0.3C291.6,31.1,290.9,30.3,289.9,30.3z"/>
	<path class="st0" d="M304.5,39.6v-7.2c0-0.9-0.6-1.6-1.7-1.6c-1.1,0-1.9,0.7-1.9,1.7v7.2h-3.8V27.8h3.5v1.6h0c0.5-1.2,1.7-2,3.6-2
		c2.6,0,4.1,1.5,4.1,4v8.2H304.5z"/>
	<path class="st0" d="M318.5,30.9h-3.1v4.4c0,1,0.5,1.4,1.6,1.4c0.4,0,0.7,0,1-0.2l-0.3,2.9c-0.4,0.2-1,0.3-1.8,0.3
		c-2.7,0-4.2-1.4-4.2-3.7v-5.1h-2v-3.1h2v-2.5l3.8-1.4v3.9h3.8L318.5,30.9z"/>
</g>
<g>
	<path class="st0" d="M23.5,66.1c-0.7-0.2-1.5-0.7-1.8-1.6c-0.5,1-1.6,1.4-3.1,1.4c-2.1,0-3.9-1.5-3.9-3.9c0-2.2,1.7-3.6,4-3.8
		L21,58v-0.4c0-0.7-0.6-1.2-1.8-1.2c-1.1,0-2.4,0.4-3.3,0.9l-0.7-2.9c1-0.6,2.6-1,4.1-1c3.1,0,5.3,1.4,5.3,4.3v3.8
		c0,1.4,0.5,2.1,1.4,2.4L23.5,66.1z M21,60.4l-1.4,0.1c-1,0.1-1.4,0.8-1.4,1.5c0,0.6,0.5,1.1,1.2,1.1c0.9,0,1.7-0.7,1.7-1.7V60.4z"
		/>
	<path class="st0" d="M36.2,57.6c-0.8-0.5-1.6-0.8-2.5-0.8c-1.7,0-3,1.2-3,2.9c0,1.7,1.3,2.9,3.1,2.9c1,0,1.7-0.2,2.6-0.7l-0.3,3.2
		c-0.8,0.4-1.8,0.6-2.9,0.6c-3.3,0-6.4-2.3-6.4-6.1c0-3.8,3.1-6.2,6.3-6.2c1.6,0,2.8,0.3,3.9,0.9L36.2,57.6z"/>
	<path class="st0" d="M47.4,57.6c-0.8-0.5-1.6-0.8-2.5-0.8c-1.7,0-3,1.2-3,2.9c0,1.7,1.3,2.9,3.1,2.9c1,0,1.7-0.2,2.6-0.7l-0.3,3.2
		c-0.8,0.4-1.8,0.6-2.9,0.6c-3.3,0-6.4-2.3-6.4-6.1c0-3.8,3.1-6.2,6.3-6.2c1.6,0,2.8,0.3,3.9,0.9L47.4,57.6z"/>
	<path class="st0" d="M55.7,66c-3.6,0-6.4-2.5-6.4-6.3s2.9-6.3,6.4-6.3c3.5,0,6.4,2.5,6.4,6.3S59.2,66,55.7,66z M55.7,56.8
		c-1.4,0-2.7,1.2-2.7,3c0,1.7,1.2,3,2.7,3c1.4,0,2.7-1.2,2.7-3C58.3,58,57.1,56.8,55.7,56.8z"/>
	<path class="st0" d="M71.7,65.6V64h0c-0.5,1.2-1.7,2-3.6,2c-2.6,0-4.1-1.4-4.1-3.9v-8.2h3.8V61c0,0.9,0.6,1.6,1.8,1.6
		c1.1,0,1.8-0.8,1.8-1.7v-7.2h3.8v11.8H71.7z"/>
	<path class="st0" d="M85.1,65.6v-7.2c0-0.9-0.6-1.6-1.7-1.6c-1.1,0-1.9,0.7-1.9,1.7v7.2h-3.8V53.8h3.5v1.6h0c0.5-1.2,1.7-2,3.6-2
		c2.6,0,4.1,1.5,4.1,4v8.2H85.1z"/>
	<path class="st0" d="M99,56.9H96v4.4c0,1,0.5,1.4,1.6,1.4c0.4,0,0.7,0,1-0.2l-0.3,2.9c-0.4,0.2-1,0.3-1.8,0.3
		c-2.7,0-4.2-1.4-4.2-3.7v-5.1h-2v-3.1h2v-2.5l3.8-1.4v3.9h3.8L99,56.9z"/>
	<path class="st0" d="M104.7,65.8c-1.6,0-2.8-0.3-3.7-0.8l-0.3-3.4c1,0.7,2.4,1.3,3.7,1.3c0.7,0,1.1-0.4,1.1-0.8
		c0-0.5-0.4-0.7-1.1-0.9c-2.3-0.6-3.6-1.8-3.6-3.8c0-2.3,1.9-3.8,4.4-3.8c1.5,0,2.9,0.4,3.5,0.7l-0.6,2.8c-0.6-0.3-1.5-0.6-2.4-0.6
		c-0.6,0-1,0.3-1,0.8c0,0.4,0.3,0.7,1,0.9c2.7,0.7,3.7,2,3.7,4C109.3,64,107.9,65.8,104.7,65.8z"/>
	<path class="st0" d="M126.1,57.6c-0.8-0.5-1.6-0.8-2.5-0.8c-1.7,0-3,1.2-3,2.9c0,1.7,1.3,2.9,3.1,2.9c1,0,1.7-0.2,2.6-0.7l-0.3,3.2
		c-0.8,0.4-1.8,0.6-2.9,0.6c-3.3,0-6.4-2.3-6.4-6.1c0-3.8,3.1-6.2,6.3-6.2c1.6,0,2.8,0.3,3.9,0.9L126.1,57.6z"/>
	<path class="st0" d="M136.8,66.1c-0.7-0.2-1.5-0.7-1.8-1.6c-0.5,1-1.6,1.4-3.1,1.4c-2.1,0-3.9-1.5-3.9-3.9c0-2.2,1.7-3.6,4-3.8
		l2.3-0.2v-0.4c0-0.7-0.6-1.2-1.8-1.2c-1.1,0-2.4,0.4-3.3,0.9l-0.7-2.9c1-0.6,2.6-1,4.1-1c3.1,0,5.3,1.4,5.3,4.3v3.8
		c0,1.4,0.5,2.1,1.4,2.4L136.8,66.1z M134.4,60.4l-1.4,0.1c-1,0.1-1.4,0.8-1.4,1.5c0,0.6,0.5,1.1,1.2,1.1c0.9,0,1.7-0.7,1.7-1.7
		V60.4z"/>
	<path class="st0" d="M148.2,65.6v-7.2c0-0.9-0.6-1.6-1.7-1.6c-1.1,0-1.9,0.7-1.9,1.7v7.2h-3.8V53.8h3.5v1.6h0c0.5-1.2,1.7-2,3.6-2
		c2.6,0,4.1,1.5,4.1,4v8.2H148.2z"/>
	<path class="st0" d="M165.9,65.9c-2.5,0-4.5-0.9-5.7-1.7V47.1h3.7v7.2c0.5-0.4,1.7-0.8,3-0.8c3.2,0,5.9,2.3,5.9,6
		C172.9,63.1,170.5,65.9,165.9,65.9z M166.3,56.8c-1.1,0-1.9,0.5-2.3,0.9v4.5c0.4,0.3,1.2,0.6,1.9,0.6c2,0,3.2-1.3,3.2-3
		C169.1,58.1,167.9,56.8,166.3,56.8z"/>
	<path class="st0" d="M185.5,59l-1.7,1.7h-5.8c0.2,1,1.5,2.1,3.5,2.1c1.2,0,2.5-0.4,3.2-0.9l-0.4,3.3c-0.9,0.5-2.2,0.8-3.7,0.8
		c-3.6,0-6.5-2.5-6.5-6.3c0-3.8,2.8-6.2,6.1-6.2c3.3,0,5.3,2.3,5.3,4.7C185.6,58.4,185.6,58.8,185.5,59z M180.4,56.3
		c-1.1,0-2.1,0.9-2.3,1.9h4c0-0.1,0-0.2,0-0.3C182.1,57.1,181.4,56.3,180.4,56.3z"/>
	<path class="st0" d="M202.3,57.6c-0.8-0.5-1.6-0.8-2.5-0.8c-1.7,0-3,1.2-3,2.9c0,1.7,1.3,2.9,3.1,2.9c1,0,1.7-0.2,2.6-0.7l-0.3,3.2
		c-0.8,0.4-1.8,0.6-2.9,0.6c-3.3,0-6.4-2.3-6.4-6.1c0-3.8,3.1-6.2,6.3-6.2c1.6,0,2.8,0.3,3.9,0.9L202.3,57.6z"/>
	<path class="st0" d="M210.6,66c-3.6,0-6.4-2.5-6.4-6.3s2.9-6.3,6.4-6.3c3.5,0,6.4,2.5,6.4,6.3S214.1,66,210.6,66z M210.6,56.8
		c-1.4,0-2.7,1.2-2.7,3c0,1.7,1.2,3,2.7,3c1.4,0,2.7-1.2,2.7-3C213.2,58,212,56.8,210.6,56.8z"/>
	<path class="st0" d="M222.6,65.8c-1.6,0-2.8-0.3-3.7-0.8l-0.3-3.4c1,0.7,2.4,1.3,3.7,1.3c0.7,0,1.1-0.4,1.1-0.8
		c0-0.5-0.4-0.7-1.1-0.9c-2.3-0.6-3.6-1.8-3.6-3.8c0-2.3,1.9-3.8,4.4-3.8c1.5,0,2.9,0.4,3.5,0.7l-0.6,2.8c-0.6-0.3-1.5-0.6-2.4-0.6
		c-0.6,0-1,0.3-1,0.8c0,0.4,0.3,0.7,1,0.9c2.7,0.7,3.7,2,3.7,4C227.2,64,225.7,65.8,222.6,65.8z"/>
	<path class="st0" d="M236.8,56.9h-3.1v4.4c0,1,0.5,1.4,1.6,1.4c0.4,0,0.7,0,1-0.2l-0.3,2.9c-0.4,0.2-1,0.3-1.8,0.3
		c-2.7,0-4.2-1.4-4.2-3.7v-5.1h-2v-3.1h2v-2.5l3.8-1.4v3.9h3.8L236.8,56.9z"/>
	<path class="st0" d="M242.8,66.1c-2.4-0.1-4-1.4-4-4.2V47.1h3.8v14.3c0,1,0.5,1.5,1.6,1.6L242.8,66.1z"/>
	<path class="st0" d="M252.4,64.4c-1.8,4.7-3.7,6.4-5.9,7.3l-2.3-2.3c1.9-0.7,3.4-2.1,4.3-4.6l-4.2-11h3.7l1.7,4.6
		c0.3,0.7,0.5,1.5,0.7,2.3h0.1c0.2-0.8,0.5-1.6,0.8-2.3l1.7-4.6h3.5L252.4,64.4z"/>
	<path class="st0" d="M258.3,66c-0.7,0-2.2-1.5-2.2-2.2c0-0.7,1.5-2.1,2.2-2.1c0.7,0,2.2,1.5,2.2,2.1C260.5,64.5,259,66,258.3,66z"
		/>
</g>
</svg>
