<?xml version="1.0" encoding="utf-8"?>
<!-- Generator: Adobe Illustrator 22.1.0, SVG Export Plug-In . SVG Version: 6.00 Build 0)  -->
<svg version="1.1" id="Layer_1" xmlns="http://www.w3.org/2000/svg" xmlns:xlink="http://www.w3.org/1999/xlink" x="0px" y="0px"
	 viewBox="0 0 728 90" style="enable-background:new 0 0 728 90;" xml:space="preserve">
<style type="text/css">
	.st0{fill:#231F20;}
</style>
<g>
	<path class="st0" d="M18.6,52.6V36h4v16.6H18.6z"/>
	<path class="st0" d="M32.9,52.6v-7.2c0-0.9-0.6-1.6-1.7-1.6c-1.1,0-1.9,0.7-1.9,1.7v7.2h-3.8V40.8H29v1.6h0c0.5-1.2,1.7-2,3.6-2
		c2.6,0,4.1,1.5,4.1,4v8.2H32.9z"/>
	<path class="st0" d="M55.7,46l-1.7,1.7h-5.8c0.2,1,1.5,2.1,3.5,2.1c1.2,0,2.5-0.4,3.2-0.9l-0.4,3.3c-0.9,0.5-2.2,0.8-3.7,0.8
		c-3.6,0-6.5-2.5-6.5-6.3c0-3.8,2.8-6.2,6.1-6.2c3.3,0,5.3,2.3,5.3,4.7C55.8,45.4,55.8,45.8,55.7,46z M50.6,43.3
		c-1.1,0-2.1,0.9-2.3,1.9h4c0-0.1,0-0.2,0-0.3C52.3,44.1,51.6,43.3,50.6,43.3z"/>
	<path class="st0" d="M63.9,52.6l-1.2-2.2c-0.2-0.3-0.4-0.8-0.5-1.1h-0.1c-0.2,0.4-0.4,0.8-0.6,1.1l-1.2,2.2h-3.7l3.4-5.9l-3.2-5.9
		h3.9l1.1,2c0.2,0.3,0.3,0.6,0.5,1h0.1c0.2-0.4,0.3-0.7,0.5-1l1.1-2h3.7l-3.2,5.7l3.4,6.1H63.9z"/>
	<path class="st0" d="M77.6,43.9h-3.1v4.4c0,1,0.5,1.4,1.6,1.4c0.4,0,0.7,0,1-0.2l-0.3,2.9c-0.4,0.2-1,0.3-1.8,0.3
		c-2.7,0-4.2-1.4-4.2-3.7v-5.1h-2v-3.1h2v-2.5l3.8-1.4v3.9h3.8L77.6,43.9z"/>
	<path class="st0" d="M86.9,44.9c-0.2-0.1-0.8-0.3-1.1-0.3c-1.2,0-2.3,0.6-2.3,2.5v5.5h-3.8V40.8h3.8v2.6h0c0.4-1.8,1.8-2.8,3.4-2.8
		c0.4,0,0.8,0.1,1.1,0.2L86.9,44.9z"/>
	<path class="st0" d="M97.4,53.1c-0.7-0.2-1.5-0.7-1.8-1.6c-0.5,1-1.6,1.4-3.1,1.4c-2.1,0-3.9-1.5-3.9-3.9c0-2.2,1.7-3.6,4-3.8
		l2.3-0.2v-0.4c0-0.7-0.6-1.2-1.8-1.2c-1.1,0-2.4,0.4-3.3,0.9l-0.7-2.9c1-0.6,2.6-1,4.1-1c3.1,0,5.3,1.4,5.3,4.3v3.8
		c0,1.4,0.5,2.1,1.4,2.4L97.4,53.1z M94.9,47.4l-1.4,0.1c-1,0.1-1.4,0.8-1.4,1.5c0,0.6,0.5,1.1,1.2,1.1c0.9,0,1.7-0.7,1.7-1.7V47.4z
		"/>
	<path class="st0" d="M115.5,53.1c-0.7-0.2-1.5-0.7-1.8-1.6c-0.5,1-1.6,1.4-3.1,1.4c-2.1,0-3.9-1.5-3.9-3.9c0-2.2,1.7-3.6,4-3.8
		l2.3-0.2v-0.4c0-0.7-0.6-1.2-1.8-1.2c-1.1,0-2.4,0.4-3.3,0.9l-0.7-2.9c1-0.6,2.6-1,4.1-1c3.1,0,5.3,1.4,5.3,4.3v3.8
		c0,1.4,0.5,2.1,1.4,2.4L115.5,53.1z M113.1,47.4l-1.4,0.1c-1,0.1-1.4,0.8-1.4,1.5c0,0.6,0.5,1.1,1.2,1.1c0.9,0,1.7-0.7,1.7-1.7
		V47.4z"/>
	<path class="st0" d="M128.1,52.6v-1.5h0c-0.6,1.2-2,1.8-3.6,1.8c-2.9,0-5.7-2.2-5.7-6.2c0-3.8,2.7-6.3,6-6.3c1.2,0,2.5,0.4,3,0.8
		v-7.2h3.7v18.5H128.1z M127.8,44.9c-0.4-0.5-1.1-1.1-2.3-1.1c-1.7,0-2.8,1.3-2.8,3c0,1.7,1.2,3,2.8,3c1.1,0,1.9-0.6,2.3-1.2V44.9z"
		/>
	<path class="st0" d="M148.5,52.6v-7.2c0-0.9-0.4-1.6-1.7-1.6c-1.2,0-1.8,0.7-1.8,1.7v7.2h-3.8v-7.2c0-0.9-0.4-1.6-1.7-1.6
		c-1.2,0-1.8,0.7-1.8,1.7v7.2H134V40.8h3.5v1.6h0c0.5-1.2,1.6-2,3.5-2c1.7,0,3,0.7,3.5,1.9c0.5-1.1,1.9-1.9,3.6-1.9
		c2.7,0,4.2,1.5,4.2,4v8.2H148.5z"/>
	<path class="st0" d="M156.7,39.2c-0.7,0-2.1-1.4-2.1-2.1c0-0.7,1.4-2,2.1-2c0.7,0,2.1,1.4,2.1,2C158.8,37.8,157.4,39.2,156.7,39.2z
		 M154.8,52.6V40.8h3.8v11.8H154.8z"/>
	<path class="st0" d="M168.5,52.6v-7.2c0-0.9-0.6-1.6-1.7-1.6c-1.1,0-1.9,0.7-1.9,1.7v7.2h-3.8V40.8h3.5v1.6h0c0.5-1.2,1.7-2,3.6-2
		c2.6,0,4.1,1.5,4.1,4v8.2H168.5z"/>
	<path class="st0" d="M176.7,39.2c-0.7,0-2.1-1.4-2.1-2.1c0-0.7,1.4-2,2.1-2c0.7,0,2.1,1.4,2.1,2C178.8,37.8,177.4,39.2,176.7,39.2z
		 M174.8,52.6V40.8h3.8v11.8H174.8z"/>
	<path class="st0" d="M184.9,52.8c-1.6,0-2.8-0.3-3.7-0.8l-0.3-3.4c1,0.7,2.4,1.3,3.7,1.3c0.7,0,1.1-0.4,1.1-0.8
		c0-0.5-0.4-0.7-1.1-0.9c-2.3-0.6-3.6-1.8-3.6-3.8c0-2.3,1.9-3.8,4.4-3.8c1.5,0,2.9,0.4,3.5,0.7l-0.6,2.8c-0.6-0.3-1.5-0.6-2.4-0.6
		c-0.6,0-1,0.3-1,0.8c0,0.4,0.3,0.7,1,0.9c2.7,0.7,3.7,2,3.7,4C189.5,51,188.1,52.8,184.9,52.8z"/>
	<path class="st0" d="M199.1,43.9H196v4.4c0,1,0.5,1.4,1.6,1.4c0.4,0,0.7,0,1-0.2l-0.3,2.9c-0.4,0.2-1,0.3-1.8,0.3
		c-2.7,0-4.2-1.4-4.2-3.7v-5.1h-2v-3.1h2v-2.5l3.8-1.4v3.9h3.8L199.1,43.9z"/>
	<path class="st0" d="M208.4,44.9c-0.2-0.1-0.8-0.3-1.1-0.3c-1.2,0-2.3,0.6-2.3,2.5v5.5h-3.8V40.8h3.8v2.6h0
		c0.4-1.8,1.8-2.8,3.4-2.8c0.4,0,0.8,0.1,1.1,0.2L208.4,44.9z"/>
	<path class="st0" d="M218.9,53.1c-0.7-0.2-1.5-0.7-1.8-1.6c-0.5,1-1.6,1.4-3.1,1.4c-2.1,0-3.9-1.5-3.9-3.9c0-2.2,1.7-3.6,4-3.8
		l2.3-0.2v-0.4c0-0.7-0.6-1.2-1.8-1.2c-1.1,0-2.4,0.4-3.3,0.9l-0.7-2.9c1-0.6,2.6-1,4.1-1c3.1,0,5.3,1.4,5.3,4.3v3.8
		c0,1.4,0.5,2.1,1.4,2.4L218.9,53.1z M216.4,47.4l-1.4,0.1c-1,0.1-1.4,0.8-1.4,1.5c0,0.6,0.5,1.1,1.2,1.1c0.9,0,1.7-0.7,1.7-1.7
		V47.4z"/>
	<path class="st0" d="M230.4,43.9h-3.1v4.4c0,1,0.5,1.4,1.6,1.4c0.4,0,0.7,0,1-0.2l-0.3,2.9c-0.4,0.2-1,0.3-1.8,0.3
		c-2.7,0-4.2-1.4-4.2-3.7v-5.1h-2v-3.1h2v-2.5l3.8-1.4v3.9h3.8L230.4,43.9z"/>
	<path class="st0" d="M234.4,39.2c-0.7,0-2.1-1.4-2.1-2.1c0-0.7,1.4-2,2.1-2c0.7,0,2.1,1.4,2.1,2C236.5,37.8,235.1,39.2,234.4,39.2z
		 M232.5,52.6V40.8h3.8v11.8H232.5z"/>
	<path class="st0" d="M245.1,52.7h-2.9l-4.5-11.9h3.7l1.7,4.5c0.2,0.6,0.5,1.5,0.6,2.3h0.1c0.2-0.8,0.4-1.7,0.7-2.3l1.7-4.5h3.5
		L245.1,52.7z"/>
	<path class="st0" d="M261.3,46l-1.7,1.7h-5.8c0.2,1,1.5,2.1,3.5,2.1c1.2,0,2.5-0.4,3.2-0.9l-0.4,3.3c-0.9,0.5-2.2,0.8-3.7,0.8
		c-3.6,0-6.5-2.5-6.5-6.3c0-3.8,2.8-6.2,6.1-6.2c3.3,0,5.3,2.3,5.3,4.7C261.4,45.4,261.3,45.8,261.3,46z M256.1,43.3
		c-1.1,0-2.1,0.9-2.3,1.9h4c0-0.1,0-0.2,0-0.3C257.8,44.1,257.1,43.3,256.1,43.3z"/>
	<path class="st0" d="M277.3,37.5c-0.4-0.2-1.1-0.3-1.5-0.3c-1.4,0-2.1,0.8-2.1,2.5v1.1h3.4l-0.8,3.1h-2.6v8.7h-3.7v-8.7h-1.8v-3.1
		h1.8v-1.4c0-3.6,2.3-5.4,5.3-5.4c1.1,0,2.2,0.1,2.8,0.4L277.3,37.5z"/>
	<path class="st0" d="M288.8,46l-1.7,1.7h-5.8c0.2,1,1.5,2.1,3.5,2.1c1.2,0,2.5-0.4,3.2-0.9l-0.4,3.3c-0.9,0.5-2.2,0.8-3.7,0.8
		c-3.6,0-6.5-2.5-6.5-6.3c0-3.8,2.8-6.2,6.1-6.2c3.3,0,5.3,2.3,5.3,4.7C288.9,45.4,288.8,45.8,288.8,46z M283.6,43.3
		c-1.1,0-2.1,0.9-2.3,1.9h4c0-0.1,0-0.2,0-0.3C285.3,44.1,284.6,43.3,283.6,43.3z"/>
	<path class="st0" d="M301.4,46l-1.7,1.7H294c0.2,1,1.5,2.1,3.5,2.1c1.2,0,2.5-0.4,3.2-0.9l-0.4,3.3c-0.9,0.5-2.2,0.8-3.7,0.8
		c-3.6,0-6.5-2.5-6.5-6.3c0-3.8,2.8-6.2,6.1-6.2c3.3,0,5.3,2.3,5.3,4.7C301.5,45.4,301.5,45.8,301.4,46z M296.3,43.3
		c-1.1,0-2.1,0.9-2.3,1.9h4c0-0.1,0-0.2,0-0.3C298,44.1,297.3,43.3,296.3,43.3z"/>
	<path class="st0" d="M307.1,52.8c-1.6,0-2.8-0.3-3.7-0.8l-0.3-3.4c1,0.7,2.4,1.3,3.7,1.3c0.7,0,1.1-0.4,1.1-0.8
		c0-0.5-0.4-0.7-1.1-0.9c-2.3-0.6-3.6-1.8-3.6-3.8c0-2.3,1.9-3.8,4.4-3.8c1.5,0,2.9,0.4,3.5,0.7l-0.6,2.8c-0.6-0.3-1.5-0.6-2.4-0.6
		c-0.6,0-1,0.3-1,0.8c0,0.4,0.3,0.7,1,0.9c2.7,0.7,3.7,2,3.7,4C311.8,51,310.3,52.8,307.1,52.8z"/>
	<path class="st0" d="M315.5,53c-0.7,0-2.2-1.5-2.2-2.2c0-0.7,1.5-2.1,2.2-2.1c0.7,0,2.2,1.5,2.2,2.1C317.6,51.5,316.2,53,315.5,53z
		"/>
</g>
</svg>
