<?xml version="1.0" encoding="utf-8"?>
<!-- Generator: Adobe Illustrator 22.1.0, SVG Export Plug-In . SVG Version: 6.00 Build 0)  -->
<svg version="1.1" id="Layer_1" xmlns="http://www.w3.org/2000/svg" xmlns:xlink="http://www.w3.org/1999/xlink" x="0px" y="0px"
	 viewBox="0 0 728 90" style="enable-background:new 0 0 728 90;" xml:space="preserve">
<style type="text/css">
	.st0{fill:#F9E038;}
	.st1{fill:#231F20;}
</style>
<path class="st0" d="M604,11c0,0-11,0-11,11v3.7c0,0,0,11,11,11h89.8c0,0,11,0,11-11V22c0,0,0-11-11-11H604z"/>
<g>
	<path class="st1" d="M606.6,26.7H605v-6.9h2.9c0.6,0,1.2,0,1.8,0.4c0.6,0.4,0.9,1,0.9,1.7c0,0.8-0.5,1.5-1.2,1.8l1.3,3h-1.8l-1-2.7
		h-1.2V26.7z M606.6,22.8h0.9c0.3,0,0.7,0,1-0.1c0.3-0.2,0.4-0.5,0.4-0.8c0-0.3-0.2-0.6-0.4-0.7c-0.3-0.2-0.7-0.1-1-0.1h-0.8V22.8z"
		/>
	<path class="st1" d="M613.1,21.2v1.4h2.6v1.3h-2.6v1.5h3.3v1.3h-4.9v-6.9h4.9v1.3H613.1z"/>
	<path class="st1" d="M623,26.7h-1.7l-0.4-1.4h-2.2l-0.4,1.4h-1.4l2.2-6.9h1.9L623,26.7z M620.5,24l-0.7-2.4L619,24H620.5z"/>
	<path class="st1" d="M625.7,19.8c1,0,1.8,0.1,2.6,0.8c0.7,0.7,1.1,1.6,1.1,2.6c0,0.9-0.3,1.8-0.9,2.5c-0.7,0.8-1.5,0.9-2.5,0.9
		h-2.3v-6.9H625.7z M625.3,25.4h0.5c0.7,0,1.1-0.1,1.5-0.7c0.3-0.4,0.4-1,0.4-1.5c0-0.5-0.2-1.1-0.5-1.5c-0.4-0.5-0.8-0.5-1.3-0.5
		h-0.5V25.4z"/>
	<path class="st1" d="M637.9,21.2h-1.7v5.5h-1.6v-5.5h-1.7v-1.4h5.1V21.2z"/>
	<path class="st1" d="M644,26.7h-1.6v-2.8h-2.1v2.8h-1.6v-6.9h1.6v2.7h2.1v-2.7h1.6V26.7z"/>
	<path class="st1" d="M646.9,21.2v1.4h2.6v1.3h-2.6v1.5h3.3v1.3h-4.9v-6.9h4.9v1.3H646.9z"/>
	<path class="st1" d="M659.8,26.7h-1.7l-0.4-1.4h-2.2l-0.4,1.4h-1.4l2.2-6.9h1.9L659.8,26.7z M657.3,24l-0.7-2.4l-0.7,2.4H657.3z"/>
	<path class="st1" d="M662.2,26.7h-1.6v-6.9h2.9c0.6,0,1.2,0,1.8,0.4c0.6,0.4,0.9,1,0.9,1.7c0,0.8-0.5,1.5-1.2,1.8l1.3,3h-1.8
		l-1-2.7h-1.2V26.7z M662.2,22.8h0.9c0.3,0,0.7,0,1-0.1c0.3-0.2,0.4-0.5,0.4-0.8c0-0.3-0.2-0.6-0.4-0.7c-0.3-0.2-0.7-0.1-1-0.1h-0.8
		V22.8z"/>
	<path class="st1" d="M671.7,21.2H670v5.5h-1.6v-5.5h-1.7v-1.4h5.1V21.2z"/>
	<path class="st1" d="M674.2,26.7h-1.6v-6.9h1.6V26.7z"/>
	<path class="st1" d="M679.4,22.5c0-0.8-0.3-1.5-1.1-1.5c-1.1,0-1.2,1.5-1.2,2.3c0,0.9,0.1,2.1,1.3,2.1c0.8,0,1.1-0.6,1.2-1.3
		l1.6,0.1c-0.2,1.6-1.2,2.5-2.8,2.5c-2,0-3-1.7-3-3.5c0-1.9,1-3.5,3.1-3.5c1.7,0,2.6,1,2.8,2.6L679.4,22.5z"/>
	<path class="st1" d="M686.5,25.3v1.4h-4.4v-6.9h1.6v5.5H686.5z"/>
	<path class="st1" d="M688.7,21.2v1.4h2.6v1.3h-2.6v1.5h3.3v1.3h-4.9v-6.9h4.9v1.3H688.7z"/>
</g>
</svg>
