<?xml version="1.0" encoding="utf-8"?>
<!-- Generator: Adobe Illustrator 22.1.0, SVG Export Plug-In . SVG Version: 6.00 Build 0)  -->
<svg version="1.1" id="Layer_1" xmlns="http://www.w3.org/2000/svg" xmlns:xlink="http://www.w3.org/1999/xlink" x="0px" y="0px"
	 viewBox="0 0 728 90" style="enable-background:new 0 0 728 90;" xml:space="preserve">
<style type="text/css">
	.st0{opacity:0.25;clip-path:url(#SVGID_2_);}
	.st1{clip-path:url(#SVGID_4_);}
	.st2{clip-path:url(#SVGID_6_);fill:#0A0F0F;}
	.st3{clip-path:url(#SVGID_2_);fill:#FFFFFF;}
	.st4{clip-path:url(#SVGID_8_);fill:url(#SVGID_9_);}
	.st5{clip-path:url(#SVGID_11_);fill:url(#SVGID_12_);}
	.st6{clip-path:url(#SVGID_14_);fill:url(#SVGID_15_);}
	.st7{clip-path:url(#SVGID_17_);fill:url(#SVGID_18_);}
	.st8{clip-path:url(#SVGID_20_);fill:url(#SVGID_21_);}
	.st9{clip-path:url(#SVGID_20_);fill:#963A21;}
	.st10{clip-path:url(#SVGID_23_);fill:url(#SVGID_24_);}
	.st11{clip-path:url(#SVGID_26_);fill:url(#SVGID_27_);}
	.st12{clip-path:url(#SVGID_29_);fill:#F5A8C2;}
	.st13{opacity:0.5;clip-path:url(#SVGID_29_);}
	.st14{clip-path:url(#SVGID_31_);}
	.st15{clip-path:url(#SVGID_33_);fill:#FFFFFF;}
	.st16{clip-path:url(#SVGID_29_);fill:#393030;}
	.st17{clip-path:url(#SVGID_29_);fill:#D07589;}
	.st18{clip-path:url(#SVGID_29_);fill:#231F20;}
	.st19{clip-path:url(#SVGID_29_);fill-rule:evenodd;clip-rule:evenodd;fill:#FFCB10;}
	.st20{clip-path:url(#SVGID_29_);fill-rule:evenodd;clip-rule:evenodd;fill:#EEB435;}
	.st21{clip-path:url(#SVGID_29_);fill-rule:evenodd;clip-rule:evenodd;fill:#FFEBA6;}
	.st22{clip-path:url(#SVGID_29_);fill:#FFCB10;}
	.st23{opacity:0.53;clip-path:url(#SVGID_35_);}
	.st24{clip-path:url(#SVGID_37_);}
	.st25{filter:url(#Adobe_OpacityMaskFilter);}
	.st26{clip-path:url(#SVGID_39_);fill:url(#SVGID_41_);}
	.st27{clip-path:url(#SVGID_39_);mask:url(#SVGID_40_);fill:url(#SVGID_42_);}
	.st28{clip-path:url(#SVGID_44_);}
	.st29{filter:url(#Adobe_OpacityMaskFilter_1_);}
	.st30{clip-path:url(#SVGID_46_);}
	.st31{clip-path:url(#SVGID_49_);fill:url(#SVGID_50_);}
	.st32{clip-path:url(#SVGID_46_);mask:url(#SVGID_47_);fill:url(#SVGID_51_);}
	.st33{clip-path:url(#SVGID_53_);}
	.st34{filter:url(#Adobe_OpacityMaskFilter_2_);}
	.st35{clip-path:url(#SVGID_55_);}
	.st36{clip-path:url(#SVGID_58_);fill:url(#SVGID_59_);}
	.st37{clip-path:url(#SVGID_55_);mask:url(#SVGID_56_);fill:url(#SVGID_60_);}
	.st38{clip-path:url(#SVGID_62_);}
	.st39{clip-path:url(#SVGID_64_);}
	.st40{filter:url(#Adobe_OpacityMaskFilter_3_);}
	.st41{clip-path:url(#SVGID_66_);fill:url(#SVGID_68_);}
	.st42{clip-path:url(#SVGID_66_);mask:url(#SVGID_67_);fill:url(#SVGID_69_);}
	.st43{opacity:0.53;clip-path:url(#SVGID_71_);}
	.st44{clip-path:url(#SVGID_73_);}
	.st45{clip-path:url(#SVGID_75_);fill:url(#SVGID_76_);}
	.st46{clip-path:url(#SVGID_71_);}
	.st47{clip-path:url(#SVGID_78_);}
	.st48{filter:url(#Adobe_OpacityMaskFilter_4_);}
	.st49{clip-path:url(#SVGID_80_);fill:url(#SVGID_82_);}
	.st50{clip-path:url(#SVGID_80_);mask:url(#SVGID_81_);fill:url(#SVGID_83_);}
</style>
<g>
	<defs>
		<rect id="SVGID_1_" x="479.9" y="10" width="71.1" height="71.1"/>
	</defs>
	<clipPath id="SVGID_2_">
		<use xlink:href="#SVGID_1_"  style="overflow:visible;"/>
	</clipPath>
	<g class="st0">
		<g>
			<defs>
				<rect id="SVGID_3_" x="479.9" y="26.3" width="54.8" height="54.8"/>
			</defs>
			<clipPath id="SVGID_4_">
				<use xlink:href="#SVGID_3_"  style="overflow:visible;"/>
			</clipPath>
			<g class="st1">
				<defs>
					<rect id="SVGID_5_" x="479.9" y="26.3" width="54.8" height="54.8"/>
				</defs>
				<clipPath id="SVGID_6_">
					<use xlink:href="#SVGID_5_"  style="overflow:visible;"/>
				</clipPath>
				<path class="st2" d="M534.8,75.2c-2.8,2.7-6.6,4.4-10.7,4.4h-42.5V37c0-4.2,1.7-8,4.4-10.7l-1.5,1.5c-2.7,2.8-4.4,6.6-4.4,10.7
					v42.6h42.5c4.2,0,8-1.7,10.8-4.5L534.8,75.2z"/>
			</g>
		</g>
	</g>
	<path class="st3" d="M509.8,10c-5.2,0-10.1,2-13.8,5.7c-3.7,3.7-5.7,8.6-5.7,13.7v41.3h41.2c10.8,0,19.5-8.8,19.5-19.5V10H509.8z"
		/>
</g>
<g>
	<defs>
		<path id="SVGID_7_" d="M531.5,70.8h-41.2v0l-8.8,8.8H524c4.2,0,8-1.7,10.7-4.4l6.5-6.5l-0.3-0.3C538.1,69.9,534.9,70.8,531.5,70.8
			"/>
	</defs>
	<clipPath id="SVGID_8_">
		<use xlink:href="#SVGID_7_"  style="overflow:visible;"/>
	</clipPath>
	
		<linearGradient id="SVGID_9_" gradientUnits="userSpaceOnUse" x1="1.089" y1="91.089" x2="2.089" y2="91.089" gradientTransform="matrix(0 -11.23 -11.23 0 1534.2842 91.8597)">
		<stop  offset="0" style="stop-color:#10B0E6"/>
		<stop  offset="0.1593" style="stop-color:#0FAAE1"/>
		<stop  offset="0.3678" style="stop-color:#0C9AD2"/>
		<stop  offset="0.6035" style="stop-color:#077FBA"/>
		<stop  offset="0.8576" style="stop-color:#015999"/>
		<stop  offset="0.89" style="stop-color:#005494"/>
		<stop  offset="1" style="stop-color:#005494"/>
	</linearGradient>
	<rect x="481.5" y="68.4" class="st4" width="59.7" height="11.2"/>
</g>
<g>
	<defs>
		<path id="SVGID_10_" d="M485.9,26.3c-2.7,2.8-4.4,6.6-4.4,10.7v42.5l8.8-8.8V29.5c0-3.3,0.8-6.5,2.4-9.3l-0.4-0.4L485.9,26.3z"/>
	</defs>
	<clipPath id="SVGID_11_">
		<use xlink:href="#SVGID_10_"  style="overflow:visible;"/>
	</clipPath>
	
		<linearGradient id="SVGID_12_" gradientUnits="userSpaceOnUse" x1="1.0167" y1="91.0167" x2="2.0167" y2="91.0167" gradientTransform="matrix(0 -59.9976 -59.9976 0 5947.8628 141.0197)">
		<stop  offset="0" style="stop-color:#0081BD"/>
		<stop  offset="0.3934" style="stop-color:#006FAC"/>
		<stop  offset="0.85" style="stop-color:#005494"/>
		<stop  offset="1" style="stop-color:#005494"/>
	</linearGradient>
	<rect x="481.5" y="19.8" class="st5" width="11.2" height="59.7"/>
</g>
<g>
	<defs>
		<path id="SVGID_13_" d="M531.5,70.8h-41.2v0l-8.8,8.8H524c4.2,0,8-1.7,10.7-4.4l6.5-6.5l-0.3-0.3
			C538.1,69.9,534.9,70.8,531.5,70.8"/>
	</defs>
	<clipPath id="SVGID_14_">
		<use xlink:href="#SVGID_13_"  style="overflow:visible;"/>
	</clipPath>
	
		<linearGradient id="SVGID_15_" gradientUnits="userSpaceOnUse" x1="0.9831" y1="91.0169" x2="1.9831" y2="91.0169" gradientTransform="matrix(59.0879 0 0 -59.0879 423.6256 5451.9473)">
		<stop  offset="0" style="stop-color:#10B0E6"/>
		<stop  offset="0.1611" style="stop-color:#0FAAE1"/>
		<stop  offset="0.3719" style="stop-color:#0C9AD2"/>
		<stop  offset="0.6102" style="stop-color:#077FBA"/>
		<stop  offset="0.8672" style="stop-color:#015999"/>
		<stop  offset="0.9" style="stop-color:#005494"/>
		<stop  offset="1" style="stop-color:#005494"/>
	</linearGradient>
	<rect x="481.5" y="68.4" class="st6" width="59.7" height="11.2"/>
</g>
<g>
	<defs>
		<path id="SVGID_16_" d="M485.9,26.3c-2.7,2.8-4.4,6.6-4.4,10.7v42.5l8.8-8.8V29.5c0-3.3,0.8-6.5,2.4-9.3l-0.4-0.4L485.9,26.3z"/>
	</defs>
	<clipPath id="SVGID_17_">
		<use xlink:href="#SVGID_16_"  style="overflow:visible;"/>
	</clipPath>
	
		<linearGradient id="SVGID_18_" gradientUnits="userSpaceOnUse" x1="1.0167" y1="91.0167" x2="2.0167" y2="91.0167" gradientTransform="matrix(0 -59.9976 -59.9976 0 5947.8628 141.0197)">
		<stop  offset="0" style="stop-color:#0081BD"/>
		<stop  offset="0.3934" style="stop-color:#006FAC"/>
		<stop  offset="0.85" style="stop-color:#005494"/>
		<stop  offset="1" style="stop-color:#005494"/>
	</linearGradient>
	<rect x="481.5" y="19.8" class="st7" width="11.2" height="59.7"/>
</g>
<g>
	<defs>
		<path id="SVGID_19_" d="M509.8,12.5c-9.3,0-17,7.7-17,17v38.8h38.8c9.4,0,17-7.6,17-17V12.5H509.8z"/>
	</defs>
	<clipPath id="SVGID_20_">
		<use xlink:href="#SVGID_19_"  style="overflow:visible;"/>
	</clipPath>
	
		<linearGradient id="SVGID_21_" gradientUnits="userSpaceOnUse" x1="1" y1="91.0181" x2="2" y2="91.0181" gradientTransform="matrix(55.6654 -55.6654 -55.6654 -55.6654 5503.8154 5190.3276)">
		<stop  offset="0" style="stop-color:#67CDF5"/>
		<stop  offset="3.486007e-02" style="stop-color:#63C9F2"/>
		<stop  offset="0.4816" style="stop-color:#2D97D0"/>
		<stop  offset="0.8167" style="stop-color:#0C78BB"/>
		<stop  offset="1" style="stop-color:#006CB3"/>
		<stop  offset="1" style="stop-color:#006CB3"/>
	</linearGradient>
	<polygon class="st8" points="464.9,40.4 520.6,-15.4 576.4,40.4 520.6,96.2 	"/>
	<rect x="487.6" y="63.2" class="st9" width="62.9" height="15.6"/>
</g>
<g>
	<defs>
		<path id="SVGID_22_" d="M518,65.9c0,1,5,1.8,11.3,1.8c3.2,0,6.1-0.2,8.2-0.6c1.1-0.4,2.1-0.9,3-1.5c-0.6-0.9-5.4-1.6-11.2-1.6
			C523,64.1,518,64.9,518,65.9"/>
	</defs>
	<clipPath id="SVGID_23_">
		<use xlink:href="#SVGID_22_"  style="overflow:visible;"/>
	</clipPath>
	
		<radialGradient id="SVGID_24_" cx="0.8716" cy="91.4573" r="1" gradientTransform="matrix(7.7853 0 0 -2.1866 522.3718 265.798)" gradientUnits="userSpaceOnUse">
		<stop  offset="0" style="stop-color:#75301A"/>
		<stop  offset="0.378" style="stop-color:#78311B"/>
		<stop  offset="0.6837" style="stop-color:#82341D"/>
		<stop  offset="0.9633" style="stop-color:#933A20"/>
		<stop  offset="1" style="stop-color:#963B21"/>
	</radialGradient>
	<rect x="518" y="64.1" class="st10" width="22.5" height="3.7"/>
</g>
<g>
	<defs>
		<path id="SVGID_25_" d="M498.4,65.9c0,1,4.9,1.7,11,1.7c6.1,0,11-0.8,11-1.7c0-1-4.9-1.7-11-1.7C503.3,64.2,498.4,65,498.4,65.9"
			/>
	</defs>
	<clipPath id="SVGID_26_">
		<use xlink:href="#SVGID_25_"  style="overflow:visible;"/>
	</clipPath>
	
		<radialGradient id="SVGID_27_" cx="0.8686" cy="91.4866" r="1" gradientTransform="matrix(7.6121 0 0 -2.0552 502.6793 253.8452)" gradientUnits="userSpaceOnUse">
		<stop  offset="0" style="stop-color:#75301A"/>
		<stop  offset="0.378" style="stop-color:#78311B"/>
		<stop  offset="0.6837" style="stop-color:#82341D"/>
		<stop  offset="0.9633" style="stop-color:#933A20"/>
		<stop  offset="1" style="stop-color:#963B21"/>
	</radialGradient>
	<rect x="498.4" y="64.2" class="st11" width="22" height="3.5"/>
</g>
<g>
	<defs>
		<rect id="SVGID_28_" x="479.9" y="10" width="71.1" height="71.1"/>
	</defs>
	<clipPath id="SVGID_29_">
		<use xlink:href="#SVGID_28_"  style="overflow:visible;"/>
	</clipPath>
	<path class="st12" d="M545.7,46.1c-0.1-0.8-1.1-1.1-1.7-1.4c-2.5-1.2-2.3-4.4-3.2-6.6c-0.8-1.9-1.9-3.5-3.3-5c-1.5-1.8-2-2.3-7-4.9
		c-3.7-1.7-7.9-2.5-12-2.5c-10.1,0-18.7,4.9-22,11.8c-0.2,0.4-0.4,0.9-0.6,1.3c-0.6,1.6-0.9,3.3-0.9,5c0,0.4,0,0.7,0,1.1
		c2.4,2.5,5,4.4,7.5,5.8c0.6,0.3,1.3,0.7,1.9,1c0.8,0.4,1.6,0.7,2.4,1c0.5,0.2,1,0.3,1.5,0.4c0.7,0.2,1.3,0.3,2,0.5
		c0.5,0.1,1,0.2,1.5,0.3c-0.5-0.1-1-0.2-1.5-0.3c-0.6-0.1-1.3-0.3-2-0.5c-0.5-0.1-1-0.3-1.5-0.4c-0.8-0.3-1.6-0.6-2.4-1
		c-0.6-0.3-1.3-0.6-1.9-1c-2.6-1.4-5.1-3.3-7.5-5.8c0.1,1.3,0.4,2.5,0.8,3.6h0c1.7,5.8,9.5,17.6,11.2,17.6h5.2
		c0.7,0,1.2-0.3,1.5-0.6c0.4-0.5,0.5-1.3,0.5-2.1c0-0.5-0.2-2.2-0.1-2.7c0-0.1,0.1-0.8,0.1-0.9c0,0,0,0,0,0c1.4,0.2,2.8,0.6,4.2,0.6
		c1.7,0,3.4-0.1,5.1-0.4c0.3,1.5,1,6.2,2.5,6.2c0,0,4.7,0,4.7,0c0.7,0,2.3-0.2,2.7-0.7c0.2-0.2,0.3-0.5,0.3-0.8
		c0.3-1.7-0.1-3.4-0.2-5c0-0.2,0-0.4,0-0.6c0-0.3,0.1-0.6,0.2-0.9c0.1-0.4,0.4-0.7,0.7-1c0.6-0.4,1.2-0.9,1.7-1.4
		c1.6-1.5,1.9-2,4.2-2.5c1.4-0.3,2.6-0.9,3.9-1.6c0.6-0.3,0.8-0.8,0.8-1.4c0,0,0,0,0-0.1c0-0.8,0-1.5,0.3-2.4
		C545.6,47,545.8,46.5,545.7,46.1 M513.7,53.8c0.8,0.1,1.6,0.1,2.4,0.1C515.3,53.9,514.5,53.9,513.7,53.8 M532.9,50.4
		c-0.1,0.1-0.3,0.1-0.4,0.2c-2.2,0.8-4.6,1.6-7.2,2.2c-1,0.2-2,0.4-3.1,0.6c-0.5,0.1-0.9,0.1-1.4,0.2c-0.8,0.1-1.5,0.2-2.3,0.2
		c-0.3,0-0.6,0-0.9,0c0.3,0,0.6,0,0.9,0c0.8-0.1,1.6-0.1,2.3-0.2c0.5-0.1,0.9-0.1,1.4-0.2c1.1-0.2,2.1-0.4,3.1-0.6
		c2.7-0.6,5.1-1.4,7.2-2.2C532.6,50.5,532.8,50.5,532.9,50.4c1.9-0.7,3.8-1.6,5.8-1.8C536.7,48.8,534.8,49.7,532.9,50.4 M539.6,48.5
		c0.2,0,0.5,0,0.7,0C540.1,48.5,539.9,48.5,539.6,48.5 M543.1,49c-0.2-0.1-0.5-0.1-0.7-0.2c-0.5-0.1-0.9-0.2-1.4-0.3
		c0.5,0.1,0.9,0.1,1.4,0.3C542.7,48.9,542.9,49,543.1,49c0.2,0.1,0.5,0.1,0.7,0.2C543.6,49.2,543.4,49.1,543.1,49"/>
	<path class="st12" d="M495.6,39.1c-0.5-0.3-0.9-0.8-1.2-1.4c1.1-0.5,2.1-1.3,2.9-2.6c0.6-1,0.7-2.1,0.1-2.9c-0.3-0.4-1-1.1-2.4-0.9
		c-0.7,0.1-1.4,0.4-1.9,1c-0.9,1-1.1,2.6-0.9,3.7c0,0.2,0,0.3,0.1,0.5c-0.9,0.1-1.6,0-2.5-0.2c-0.4-0.1-0.9-0.3-1.3-0.4l-2.7-1.3
		c1.2,1.5,5.3,3.7,7,3.5c0.4,1,1.1,1.8,1.9,2.3c0.6,0.4,1.4,0.6,2.1,0.7c0.2-0.6,0.4-1.1,0.7-1.6C496.7,39.5,496.1,39.4,495.6,39.1
		 M493.9,35.8c-0.1-0.8,0.1-1.9,0.5-2.5c0.2-0.2,0.4-0.3,0.7-0.4c0,0,0.1,0,0.2,0c0.2,0,0.3,0.1,0.4,0.2c0.1,0.2,0.2,0.7-0.1,1.2
		c-0.5,0.8-0.9,1.3-1.6,1.7C494,35.9,493.9,35.9,493.9,35.8"/>
	<g class="st13">
		<g>
			<defs>
				<rect id="SVGID_30_" x="498" y="29" width="12.2" height="12.3"/>
			</defs>
			<clipPath id="SVGID_31_">
				<use xlink:href="#SVGID_30_"  style="overflow:visible;"/>
			</clipPath>
			<g class="st14">
				<defs>
					<rect id="SVGID_32_" x="498" y="29" width="12.2" height="12.3"/>
				</defs>
				<clipPath id="SVGID_33_">
					<use xlink:href="#SVGID_32_"  style="overflow:visible;"/>
				</clipPath>
				<path class="st15" d="M502.6,32.5c-2.8,2.4-3.8,4.1-4.4,6.4c-0.1,0.3-0.1,0.6-0.2,0.8c-0.1,0.6-0.1,1.1-0.1,1.7c0,0,0,0,0-0.1
					c0.7-2.6,2.4-4.8,5.1-6.8c2-1.5,5-3.1,7.1-3.6c-1-0.6-1.1-1.2-1.2-1.8C508.9,29,505,30.5,502.6,32.5"/>
			</g>
		</g>
	</g>
	<path class="st16" d="M537.1,39.7c-0.7,0.1-1.1,1-0.9,2c0.2,1,0.9,1.7,1.5,1.6c0.7-0.1,1.1-1,0.9-2
		C538.5,40.2,537.8,39.6,537.1,39.7"/>
	<path class="st12" d="M528.1,29.9c1.6,2.7,4.6,4,7.2,3.1c0.3-0.1,0.4-0.4,0.4-0.7c-0.2-1.1-0.2-2.2,0.1-3.2
		c0.2-0.9,0.7-1.8,1.5-2.7c0.6-0.6-0.2-1.7-1.2-1.8c-1.1-0.2-2.1,0-2.9,0.6c-2.6,1.9-4.6,3.9-4.8,4.1
		C528,29.5,527.9,29.6,528.1,29.9"/>
	<path class="st17" d="M532.1,31.3c0.7-0.6,1.7-1.1,2.6-1.1c-0.1-0.3-0.1-0.6-0.1-0.8c0.1-1,0.6-1.5,1.2-2.2
		c0.1-0.1,0.4-0.6,0.4-0.7c0.3-0.7-1.1-0.7-1.5-0.6c-1.1,0.2-2.2,1.1-3,2.2C531,29.1,531.1,30.5,532.1,31.3"/>
	<path class="st18" d="M523.7,27.5c-2.7-0.9-8-0.8-10.8,0.2c-0.5,0.2-0.6,0.6-0.3,1l0,0c0.2,0.3,0.7,0.3,1,0.2
		c2.2-0.9,7.2-1,9.4-0.1c0.3,0.1,0.8,0,1-0.2l0,0C524.4,28.1,524.2,27.7,523.7,27.5"/>
	<path class="st19" d="M514.6,28.7c1.4-0.3,2.7-0.5,4.1-0.5c1.2,0,2.3,0.1,3.5,0.4c1.5-1.2,2.5-3,2.5-5.1c0-3.5-2.9-6.4-6.4-6.4
		s-6.4,2.9-6.4,6.4C511.8,25.6,512.9,27.5,514.6,28.7"/>
	<path class="st20" d="M515.3,28.5c1.1-0.2,2.3-0.4,3.4-0.4c0.9,0,1.7,0.1,2.5,0.2c1.6-1,2.7-2.8,2.7-4.9c0-3.2-2.6-5.8-5.8-5.8
		s-5.8,2.6-5.8,5.8C512.3,25.6,513.5,27.5,515.3,28.5"/>
	<path class="st21" d="M515.6,28.4c1-0.2,2.1-0.3,3.1-0.3c0.9,0,1.9,0.1,2.8,0.2c1.6-1,2.7-2.9,2.7-5c0-3.2-2.6-5.8-5.7-5.8
		s-5.7,2.6-5.7,5.8C512.7,25.6,513.9,27.4,515.6,28.4"/>
	<path class="st22" d="M515.4,28.5c1.1-0.2,2.2-0.3,3.2-0.3c0.9,0,1.7,0.1,2.6,0.2c1.6-1,2.7-2.8,2.7-4.9c0-3.2-2.5-5.8-5.7-5.8
		c-3.1,0-5.7,2.6-5.7,5.8C512.5,25.6,513.7,27.5,515.4,28.5"/>
	<path class="st20" d="M517,28.2c0.6-0.1,1.1-0.1,1.7-0.1c0.4,0,0.8,0,1.2,0c2-0.6,3.5-2.5,3.5-4.8c0-2.8-2-5-5-5c-2.8,0-5,2.2-5,5
		C513.3,25.7,514.9,27.6,517,28.2"/>
	<path class="st21" d="M516.8,28.2c0.6-0.1,1.2-0.1,1.8-0.1c0.3,0,0.7,0,1,0c2-0.7,3.4-2.5,3.4-4.8c0-2.8-2.2-5-4.9-5
		s-4.9,2.2-4.9,5C513.2,25.7,514.7,27.7,516.8,28.2"/>
	<path class="st19" d="M517,28.2c0.6-0.1,1.1-0.1,1.7-0.1c0.4,0,0.8,0,1.1,0c2-0.7,3.4-2.5,3.4-4.8c0-2.8-2.2-5-4.9-5
		c-2.7,0-4.9,2.2-4.9,5C513.4,25.7,514.9,27.6,517,28.2"/>
</g>
<g>
	<defs>
		<path id="SVGID_34_" d="M518.5,53.9c0.8-0.1,1.6-0.1,2.3-0.2c0.5-0.1,0.9-0.1,1.4-0.2c1.1-0.2,2.1-0.4,3.1-0.6
			c2.6-0.6,5-1.4,7.1-2.2c-2.1,0.8-4.5,1.6-7.1,2.2c-1,0.2-2,0.4-3.1,0.6c-0.5,0.1-0.9,0.1-1.4,0.2
			C520.1,53.7,519.3,53.8,518.5,53.9c-0.3,0-0.6,0-0.9,0C517.9,53.9,518.2,53.9,518.5,53.9 M532.5,50.6c0.1-0.1,0.3-0.1,0.4-0.2
			c1.9-0.7,3.8-1.6,5.8-1.8c-2,0.3-3.9,1.1-5.8,1.8C532.8,50.5,532.6,50.5,532.5,50.6L532.5,50.6 M539.8,48.5c0,0-0.1,0-0.1,0
			C539.7,48.5,539.7,48.5,539.8,48.5 M539.9,48.5L539.9,48.5L539.9,48.5z M496.4,37.3c-0.2,0.4-0.4,0.9-0.6,1.3
			c-0.6,1.6-0.9,3.3-0.9,5c0,0.4,0,0.7,0,1.1c0.1,1.3,0.4,2.5,0.8,3.6h0c1.7,5.8,9.5,17.6,11.2,17.6h5.2c0.7,0,1.2-0.2,1.5-0.6
			c0.4-0.5,0.5-1.3,0.5-2.1c0-0.5-0.2-2.2-0.1-2.7c0-0.1,0.1-0.8,0.1-0.9c0,0,0,0,0,0c1.4,0.2,2.8,0.6,4.2,0.6
			c1.7,0,3.4-0.1,5.1-0.4c0.3,1.5,1,6.2,2.5,6.2c0,0,4.7,0,4.7,0c0.7,0,2.3-0.2,2.7-0.7c0.2-0.2,0.3-0.5,0.3-0.8
			c0.3-1.7-0.1-3.4-0.2-5c0-0.2,0-0.4,0-0.6c0-0.3,0.1-0.6,0.2-0.9c0.1-0.4,0.4-0.7,0.7-1c0.6-0.4,1.2-0.9,1.7-1.4
			c1.6-1.5,1.9-2,4.2-2.5c1.4-0.3,2.6-0.9,3.9-1.6c0.6-0.3,0.8-0.8,0.8-1.4c0,0,0,0,0-0.1c0-0.8,0-1.5,0.3-2.4
			c0.1-0.4,0.3-0.9,0.3-1.4c-0.1-0.8-1.1-1.1-1.7-1.4c-2.5-1.2-2.3-4.4-3.2-6.6c-0.8-1.9-1.9-3.5-3.3-5c-1.5-1.8-2-2.3-7-4.9
			c-3.7-1.7-7.9-2.5-12-2.5C508.4,25.5,499.8,30.4,496.4,37.3"/>
	</defs>
	<clipPath id="SVGID_35_">
		<use xlink:href="#SVGID_34_"  style="overflow:visible;"/>
	</clipPath>
	<g class="st23">
		<g>
			<defs>
				<rect id="SVGID_36_" x="494.9" y="44.7" width="50.3" height="21.3"/>
			</defs>
			<clipPath id="SVGID_37_">
				<use xlink:href="#SVGID_36_"  style="overflow:visible;"/>
			</clipPath>
			<g class="st24">
				<defs>
					<path id="SVGID_38_" d="M494.9,44.7c0.1,1.3,0.4,2.5,0.8,3.7h0c0.6,1.9,1.8,4.5,3.3,7.1c2.9,5.2,6.8,10.5,7.9,10.5h5.2
						c0.4,0,1.2-0.2,1.4-0.5c1.2-1.3,0.2-3.9,0.5-5c0-0.1,0.1-0.7,0.1-0.8c0,0,0,0,0,0c1.4,0.2,2.8,0.6,4.2,0.6
						c1.7,0,3.5-0.1,5.2-0.4c0.3,1.5,1,6.2,2.5,6.2c0,0,4.7,0,4.7,0c0.7,0,2.3-0.2,2.7-0.7c0.9-1.7,0.1-4.3,0.2-5.7
						c0-0.1-0.1-0.8,0-0.8c0-0.3,0.1-0.6,0.2-0.9c0.1-0.4,0.4-0.7,0.7-1c0.6-0.4,1.2-0.9,1.7-1.4c1.6-1.5,1.9-2,4.2-2.5
						c1.4-0.3,2.6-0.9,3.9-1.6c0.6-0.3,0.8-0.8,0.8-1.4v-0.1c-1.8-0.8-3.6-1.4-5.5-1.3c-2.5,0.1-4.8,1.2-7.2,2.1
						c-2.2,0.8-4.6,1.6-7.2,2.2C516.1,55,504.7,54.8,494.9,44.7z"/>
				</defs>
				<clipPath id="SVGID_39_">
					<use xlink:href="#SVGID_38_"  style="overflow:visible;"/>
				</clipPath>
				<defs>
					<filter id="Adobe_OpacityMaskFilter" filterUnits="userSpaceOnUse" x="494.9" y="44.7" width="50.3" height="21.3">
						<feColorMatrix  type="matrix" values="1 0 0 0 0  0 1 0 0 0  0 0 1 0 0  0 0 0 1 0"/>
					</filter>
				</defs>
				<mask maskUnits="userSpaceOnUse" x="494.9" y="44.7" width="50.3" height="21.3" id="SVGID_40_">
					<g class="st25">
						
							<linearGradient id="SVGID_41_" gradientUnits="userSpaceOnUse" x1="0.9214" y1="90.9214" x2="1.9214" y2="90.9214" gradientTransform="matrix(0 12.7288 12.7288 0 -637.2472 37.0113)">
							<stop  offset="0" style="stop-color:#B3B3B3"/>
							<stop  offset="1" style="stop-color:#FFFFFF"/>
						</linearGradient>
						<rect x="494.9" y="44.7" class="st26" width="50.3" height="21.3"/>
					</g>
				</mask>
				
					<linearGradient id="SVGID_42_" gradientUnits="userSpaceOnUse" x1="0.9214" y1="90.9214" x2="1.9214" y2="90.9214" gradientTransform="matrix(0 12.7288 12.7288 0 -637.2471 37.0113)">
					<stop  offset="0" style="stop-color:#F5A8C2"/>
					<stop  offset="1" style="stop-color:#AF5F73"/>
				</linearGradient>
				<rect x="494.9" y="44.7" class="st27" width="50.3" height="21.3"/>
			</g>
		</g>
	</g>
	<g class="st23">
		<g>
			<defs>
				<rect id="SVGID_43_" x="527.7" y="58.5" width="6.3" height="6.8"/>
			</defs>
			<clipPath id="SVGID_44_">
				<use xlink:href="#SVGID_43_"  style="overflow:visible;"/>
			</clipPath>
			<g class="st28">
				<defs>
					<path id="SVGID_45_" d="M533.5,58.5c-1.9,0.4-4,0.7-5.5,2c-0.2,0.2-0.3,0.6-0.3,0.9v0.1c0,0.5,0.1,1,0.1,1.3
						c0.1,0.7,0.2,1.7,0.9,2.1c0.1,0.1,0.3,0.1,0.4,0.1c0.5,0.1,1.4,0.2,2.3,0.2h0.1c0.7,0,1.5-0.1,2-0.3c0.4-0.9,0.4-2.5,0.1-4.7
						c-0.1-0.6-0.1-1.2-0.1-1.8C533.6,58.5,533.6,58.5,533.5,58.5"/>
				</defs>
				<clipPath id="SVGID_46_">
					<use xlink:href="#SVGID_45_"  style="overflow:visible;"/>
				</clipPath>
				<defs>
					<filter id="Adobe_OpacityMaskFilter_1_" filterUnits="userSpaceOnUse" x="526.5" y="57.4" width="8.8" height="9">
						<feColorMatrix  type="matrix" values="1 0 0 0 0  0 1 0 0 0  0 0 1 0 0  0 0 0 1 0"/>
					</filter>
				</defs>
				<mask maskUnits="userSpaceOnUse" x="526.5" y="57.4" width="8.8" height="9" id="SVGID_47_">
					<g class="st29">
						<g>
							<defs>
								
									<rect id="SVGID_48_" x="526.7" y="58.2" transform="matrix(0.1771 -0.9842 0.9842 0.1771 375.7257 573.4402)" width="8.1" height="7.8"/>
							</defs>
							<clipPath id="SVGID_49_" class="st30">
								<use xlink:href="#SVGID_48_"  style="overflow:visible;"/>
							</clipPath>
							
								<linearGradient id="SVGID_50_" gradientUnits="userSpaceOnUse" x1="0.5898" y1="91.165" x2="1.5898" y2="91.165" gradientTransform="matrix(2.7866 0.5014 0.5014 -2.7866 481.497 315.4369)">
								<stop  offset="0" style="stop-color:#000000"/>
								<stop  offset="0.1645" style="stop-color:#414141"/>
								<stop  offset="0.3291" style="stop-color:#7A7A7A"/>
								<stop  offset="0.4889" style="stop-color:#AAAAAA"/>
								<stop  offset="0.6396" style="stop-color:#CFCFCF"/>
								<stop  offset="0.7792" style="stop-color:#E9E9E9"/>
								<stop  offset="0.9033" style="stop-color:#F9F9F9"/>
								<stop  offset="0.9995" style="stop-color:#FFFFFF"/>
								<stop  offset="1" style="stop-color:#FFFFFF"/>
							</linearGradient>
							<polygon class="st31" points="526.5,55.8 536.9,57.7 535,68.3 524.6,66.4 							"/>
						</g>
					</g>
				</mask>
				
					<linearGradient id="SVGID_51_" gradientUnits="userSpaceOnUse" x1="0.5898" y1="91.2101" x2="1.5898" y2="91.2101" gradientTransform="matrix(2.7866 0.5014 0.5014 -2.7866 481.497 315.4369)">
					<stop  offset="0" style="stop-color:#F393A9"/>
					<stop  offset="0.2419" style="stop-color:#F49EB5"/>
					<stop  offset="0.6681" style="stop-color:#F6ACC5"/>
					<stop  offset="0.9995" style="stop-color:#F6B1CB"/>
					<stop  offset="1" style="stop-color:#F6B1CB"/>
				</linearGradient>
				<polygon class="st32" points="527.9,57.4 535.3,58.7 533.9,66.5 526.5,65.1 				"/>
			</g>
		</g>
	</g>
	<g class="st23">
		<g>
			<defs>
				<rect id="SVGID_52_" x="507.6" y="60.3" width="6.5" height="5.4"/>
			</defs>
			<clipPath id="SVGID_53_">
				<use xlink:href="#SVGID_52_"  style="overflow:visible;"/>
			</clipPath>
			<g class="st33">
				<defs>
					<path id="SVGID_54_" d="M508,62c-0.3,0.4-0.4,0.9-0.4,1.5v0.1c0,0.8,0.3,1.7,1,1.9c1,0.4,3.1,0.2,4.2,0.1
						c0.7-0.1,0.9-0.1,1.3-1.2c0,0,0.1-0.7,0.1-0.9v0c-0.1-1.5-0.2-2.2-0.1-3c-0.2-0.1-0.8-0.2-1.5-0.2C511.1,60.3,509,60.7,508,62"
						/>
				</defs>
				<clipPath id="SVGID_55_">
					<use xlink:href="#SVGID_54_"  style="overflow:visible;"/>
				</clipPath>
				<defs>
					<filter id="Adobe_OpacityMaskFilter_2_" filterUnits="userSpaceOnUse" x="506.6" y="59.1" width="8.4" height="7.8">
						<feColorMatrix  type="matrix" values="1 0 0 0 0  0 1 0 0 0  0 0 1 0 0  0 0 0 1 0"/>
					</filter>
				</defs>
				<mask maskUnits="userSpaceOnUse" x="506.6" y="59.1" width="8.4" height="7.8" id="SVGID_56_">
					<g class="st34">
						<g>
							<defs>
								
									<rect id="SVGID_57_" x="507.3" y="59.1" transform="matrix(0.1779 -0.9841 0.9841 0.1779 357.9568 554.3652)" width="6.8" height="7.7"/>
							</defs>
							<clipPath id="SVGID_58_" class="st35">
								<use xlink:href="#SVGID_57_"  style="overflow:visible;"/>
							</clipPath>
							
								<linearGradient id="SVGID_59_" gradientUnits="userSpaceOnUse" x1="0.7739" y1="91.1407" x2="1.7739" y2="91.1407" gradientTransform="matrix(5.0579 0.9141 0.9141 -5.0579 420.748 522.7264)">
								<stop  offset="0" style="stop-color:#000000"/>
								<stop  offset="0.1645" style="stop-color:#414141"/>
								<stop  offset="0.3291" style="stop-color:#7A7A7A"/>
								<stop  offset="0.4889" style="stop-color:#AAAAAA"/>
								<stop  offset="0.6396" style="stop-color:#CFCFCF"/>
								<stop  offset="0.7792" style="stop-color:#E9E9E9"/>
								<stop  offset="0.9033" style="stop-color:#F9F9F9"/>
								<stop  offset="0.9995" style="stop-color:#FFFFFF"/>
								<stop  offset="1" style="stop-color:#FFFFFF"/>
							</linearGradient>
							<polygon class="st36" points="506.7,57.4 516.5,59.2 514.8,68.5 505,66.7 							"/>
						</g>
					</g>
				</mask>
				
					<linearGradient id="SVGID_60_" gradientUnits="userSpaceOnUse" x1="0.7739" y1="91.1257" x2="1.7739" y2="91.1257" gradientTransform="matrix(5.0579 0.9141 0.9141 -5.0579 420.748 522.7264)">
					<stop  offset="0" style="stop-color:#F393A9"/>
					<stop  offset="0.2419" style="stop-color:#F49EB5"/>
					<stop  offset="0.6681" style="stop-color:#F6ACC5"/>
					<stop  offset="0.9995" style="stop-color:#F6B1CB"/>
					<stop  offset="1" style="stop-color:#F6B1CB"/>
				</linearGradient>
				<polygon class="st37" points="507.8,59.1 515.1,60.5 513.9,67 506.6,65.6 				"/>
			</g>
		</g>
	</g>
</g>
<g>
	<defs>
		<rect id="SVGID_61_" x="479.9" y="10" width="71.1" height="71.1"/>
	</defs>
	<clipPath id="SVGID_62_">
		<use xlink:href="#SVGID_61_"  style="overflow:visible;"/>
	</clipPath>
	<g class="st38">
		<g>
			<defs>
				<rect id="SVGID_63_" x="524.1" y="61.5" width="9.9" height="4.5"/>
			</defs>
			<clipPath id="SVGID_64_">
				<use xlink:href="#SVGID_63_"  style="overflow:visible;"/>
			</clipPath>
			<g class="st39">
				<defs>
					<path id="SVGID_65_" d="M524.1,62.3c0.4,1.8,1.1,3.7,2,3.7c0,0,4.7,0,4.7,0c0.7,0,2.3-0.2,2.7-0.7c0.3-0.6,0.4-1.4,0.4-2.1
						v-0.2c0-0.5-0.1-1-0.1-1.5L524.1,62.3z"/>
				</defs>
				<clipPath id="SVGID_66_">
					<use xlink:href="#SVGID_65_"  style="overflow:visible;"/>
				</clipPath>
				<defs>
					<filter id="Adobe_OpacityMaskFilter_3_" filterUnits="userSpaceOnUse" x="524.1" y="61.5" width="9.9" height="4.5">
						<feColorMatrix  type="matrix" values="1 0 0 0 0  0 1 0 0 0  0 0 1 0 0  0 0 0 1 0"/>
					</filter>
				</defs>
				<mask maskUnits="userSpaceOnUse" x="524.1" y="61.5" width="9.9" height="4.5" id="SVGID_67_">
					<g class="st40">
						
							<linearGradient id="SVGID_68_" gradientUnits="userSpaceOnUse" x1="0.7478" y1="90.7635" x2="1.7478" y2="90.7635" gradientTransform="matrix(0 3.9657 3.9657 0 169.1604 59.0631)">
							<stop  offset="0" style="stop-color:#000000"/>
							<stop  offset="0.3447" style="stop-color:#020202"/>
							<stop  offset="0.543" style="stop-color:#0B0B0B"/>
							<stop  offset="0.7041" style="stop-color:#191919"/>
							<stop  offset="0.8453" style="stop-color:#2C2C2C"/>
							<stop  offset="0.9723" style="stop-color:#464646"/>
							<stop  offset="0.9995" style="stop-color:#4D4D4D"/>
							<stop  offset="1" style="stop-color:#4D4D4D"/>
						</linearGradient>
						<rect x="524.1" y="61.5" class="st41" width="10" height="4.5"/>
					</g>
				</mask>
				
					<linearGradient id="SVGID_69_" gradientUnits="userSpaceOnUse" x1="0.7478" y1="90.7479" x2="1.7478" y2="90.7479" gradientTransform="matrix(0 3.9657 3.9657 0 169.1604 59.0631)">
					<stop  offset="0" style="stop-color:#231F20"/>
					<stop  offset="0.8588" style="stop-color:#231F20"/>
					<stop  offset="0.9995" style="stop-color:#231F20"/>
					<stop  offset="1" style="stop-color:#231F20"/>
				</linearGradient>
				<rect x="524.1" y="61.5" class="st42" width="9.9" height="4.5"/>
			</g>
		</g>
	</g>
</g>
<g>
	<defs>
		<path id="SVGID_70_" d="M514,62.3l-10.4,0.4c1.5,2,2.7,3.3,3.3,3.3h5.2c0.7,0,1.2-0.2,1.5-0.6c0.4-0.5,0.5-1.3,0.5-2.1
			C514.1,63.1,514.1,62.7,514,62.3l0-0.9C514,61.7,514,62,514,62.3"/>
	</defs>
	<clipPath id="SVGID_71_">
		<use xlink:href="#SVGID_70_"  style="overflow:visible;"/>
	</clipPath>
	<g class="st43">
		<g>
			<defs>
				<rect id="SVGID_72_" x="499" y="55.5" width="4.4" height="6.9"/>
			</defs>
			<clipPath id="SVGID_73_">
				<use xlink:href="#SVGID_72_"  style="overflow:visible;"/>
			</clipPath>
			<g class="st44">
				<defs>
					<path id="SVGID_74_" d="M499,55.5c1.4,2.5,3,5,4.4,6.9L499,55.5z"/>
				</defs>
				<clipPath id="SVGID_75_">
					<use xlink:href="#SVGID_74_"  style="overflow:visible;"/>
				</clipPath>
				
					<linearGradient id="SVGID_76_" gradientUnits="userSpaceOnUse" x1="0.835" y1="90.835" x2="1.835" y2="90.835" gradientTransform="matrix(0 6.0596 6.0596 0 -49.2469 51.2617)">
					<stop  offset="0" style="stop-color:#F5A8C2"/>
					<stop  offset="0.2027" style="stop-color:#EB9AB3"/>
					<stop  offset="0.7184" style="stop-color:#D57B92"/>
					<stop  offset="1" style="stop-color:#CD6F85"/>
				</linearGradient>
				<rect x="499" y="55.5" class="st45" width="4.4" height="6.9"/>
			</g>
		</g>
	</g>
	<g class="st46">
		<g>
			<defs>
				<rect id="SVGID_77_" x="503.4" y="62.3" width="10.7" height="3.7"/>
			</defs>
			<clipPath id="SVGID_78_">
				<use xlink:href="#SVGID_77_"  style="overflow:visible;"/>
			</clipPath>
			<g class="st47">
				<defs>
					<path id="SVGID_79_" d="M503.4,62.4c1.6,2.2,2.9,3.7,3.5,3.7h5.2c0.4,0,1.2-0.2,1.4-0.5c0.5-0.5,0.6-1.2,0.6-1.9v-0.1
						c0-0.4,0-0.8-0.1-1.2L503.4,62.4z"/>
				</defs>
				<clipPath id="SVGID_80_">
					<use xlink:href="#SVGID_79_"  style="overflow:visible;"/>
				</clipPath>
				<defs>
					<filter id="Adobe_OpacityMaskFilter_4_" filterUnits="userSpaceOnUse" x="503.4" y="62.3" width="10.7" height="3.7">
						<feColorMatrix  type="matrix" values="1 0 0 0 0  0 1 0 0 0  0 0 1 0 0  0 0 0 1 0"/>
					</filter>
				</defs>
				<mask maskUnits="userSpaceOnUse" x="503.4" y="62.3" width="10.7" height="3.7" id="SVGID_81_">
					<g class="st48">
						
							<linearGradient id="SVGID_82_" gradientUnits="userSpaceOnUse" x1="0.6935" y1="90.7144" x2="1.6935" y2="90.7144" gradientTransform="matrix(0 3.2631 3.2631 0 212.7985 60.497)">
							<stop  offset="0" style="stop-color:#000000"/>
							<stop  offset="0.3447" style="stop-color:#020202"/>
							<stop  offset="0.543" style="stop-color:#0B0B0B"/>
							<stop  offset="0.7041" style="stop-color:#191919"/>
							<stop  offset="0.8453" style="stop-color:#2C2C2C"/>
							<stop  offset="0.9722" style="stop-color:#464646"/>
							<stop  offset="0.9995" style="stop-color:#4D4D4D"/>
							<stop  offset="1" style="stop-color:#4D4D4D"/>
						</linearGradient>
						<rect x="503.4" y="62.3" class="st49" width="10.9" height="3.7"/>
					</g>
				</mask>
				
					<linearGradient id="SVGID_83_" gradientUnits="userSpaceOnUse" x1="0.6935" y1="90.6935" x2="1.6935" y2="90.6935" gradientTransform="matrix(0 3.2631 3.2631 0 212.7985 60.497)">
					<stop  offset="0" style="stop-color:#231F20"/>
					<stop  offset="0.8588" style="stop-color:#231F20"/>
					<stop  offset="0.9995" style="stop-color:#231F20"/>
					<stop  offset="1" style="stop-color:#231F20"/>
				</linearGradient>
				<rect x="503.4" y="62.3" class="st50" width="10.7" height="3.7"/>
			</g>
		</g>
	</g>
</g>
</svg>
