<?xml version="1.0" encoding="utf-8"?>
<!-- Generator: Adobe Illustrator 22.1.0, SVG Export Plug-In . SVG Version: 6.00 Build 0)  -->
<svg version="1.1" id="Layer_1" xmlns="http://www.w3.org/2000/svg" xmlns:xlink="http://www.w3.org/1999/xlink" x="0px" y="0px"
	 viewBox="0 0 728 90" style="enable-background:new 0 0 728 90;" xml:space="preserve">
<style type="text/css">
	.st0{fill:#FFFFFF;}
	.st1{clip-path:url(#SVGID_2_);fill:#FFFFFF;}
	.st2{clip-path:url(#SVGID_4_);fill:url(#SVGID_5_);}
	.st3{clip-path:url(#SVGID_7_);fill:url(#SVGID_8_);}
	.st4{clip-path:url(#SVGID_10_);fill:url(#SVGID_11_);}
</style>
<path class="st0" d="M648.9,53.1v3.8h-6.8v18.3h-4.3V56.9h-6.8v-3.8H648.9z M650.7,75.2h4.3V64.1V53.1h-4.3v11.1V75.2z M677.2,75.2
	h-4.4l-2.3-5.5H663l-2.3,5.5h-4.3l9.4-22.4h1.9L677.2,75.2z M697.9,75.2h-4.4l-2.3-5.5h-7.5l-2.3,5.5h-4.3l9.4-22.4h1.9L697.9,75.2z
	 M669,66.2l-2.3-5.5l-2.3,5.5H669z M689.7,66.2l-2.3-5.5l-2.3,5.5H689.7z"/>
<g>
	<defs>
		<rect id="SVGID_1_" x="595" y="44" width="136" height="48"/>
	</defs>
	<clipPath id="SVGID_2_">
		<use xlink:href="#SVGID_1_"  style="overflow:visible;"/>
	</clipPath>
	<path class="st1" d="M615.6,76.7c1.9,0,3.6-0.8,4.9-2l5.2-5.2c1.2-1.2,2-2.9,2-4.8V48.3h-16.3c-1.9,0-3.6,0.8-4.9,2l-5.2,5.2
		c-1.2,1.2-2,2.9-2,4.8v16.3H615.6z"/>
</g>
<g>
	<defs>
		<path id="SVGID_3_" d="M613.3,49.7c-3,0-5.4,2.4-5.4,5.3v1.8h11.2v11.2h1.8c3,0,5.4-2.4,5.4-5.4v-13H613.3z"/>
	</defs>
	<clipPath id="SVGID_4_">
		<use xlink:href="#SVGID_3_"  style="overflow:visible;"/>
	</clipPath>
	
		<linearGradient id="SVGID_5_" gradientUnits="userSpaceOnUse" x1="-2.4495" y1="91.4704" x2="-1.4495" y2="91.4704" gradientTransform="matrix(12.7555 -12.7555 -12.7555 -12.7555 1811.4663 1197.9866)">
		<stop  offset="0" style="stop-color:#9BDBF7"/>
		<stop  offset="0.1" style="stop-color:#9BDBF7"/>
		<stop  offset="0.9" style="stop-color:#009DDA"/>
		<stop  offset="1" style="stop-color:#009DDA"/>
	</linearGradient>
	<polygon class="st2" points="598.7,58.9 617.1,40.6 635.4,58.9 617.1,77.2 	"/>
</g>
<g>
	<defs>
		<path id="SVGID_6_" d="M620.9,69.5h-14.4l-5.7,5.7h14.9c1.4,0,2.8-0.6,3.8-1.6l4.8-4.8l-0.1-0.1C623.1,69.2,622,69.5,620.9,69.5"
			/>
	</defs>
	<clipPath id="SVGID_7_">
		<use xlink:href="#SVGID_6_"  style="overflow:visible;"/>
	</clipPath>
	
		<linearGradient id="SVGID_8_" gradientUnits="userSpaceOnUse" x1="-1.1261" y1="89.3842" x2="-0.1261" y2="89.3842" gradientTransform="matrix(23.517 0 0 -23.517 627.2063 2173.9946)">
		<stop  offset="0" style="stop-color:#14B0E6"/>
		<stop  offset="0.1611" style="stop-color:#13AAE1"/>
		<stop  offset="0.3718" style="stop-color:#0F9AD2"/>
		<stop  offset="0.6101" style="stop-color:#097FBA"/>
		<stop  offset="0.8669" style="stop-color:#015999"/>
		<stop  offset="0.9" style="stop-color:#005494"/>
		<stop  offset="1" style="stop-color:#005494"/>
	</linearGradient>
	<rect x="600.7" y="68.7" class="st3" width="23.5" height="6.6"/>
</g>
<g>
	<defs>
		<path id="SVGID_9_" d="M602.3,56.5c-1,1-1.6,2.4-1.6,3.8v14.9l5.7-5.7V55.1c0-1.2,0.3-2.3,0.8-3.3l-0.1-0.1L602.3,56.5z"/>
	</defs>
	<clipPath id="SVGID_10_">
		<use xlink:href="#SVGID_9_"  style="overflow:visible;"/>
	</clipPath>
	
		<linearGradient id="SVGID_11_" gradientUnits="userSpaceOnUse" x1="-0.6158" y1="93.1261" x2="0.3842" y2="93.1261" gradientTransform="matrix(0 -23.5174 -23.5174 0 2794.0808 60.7435)">
		<stop  offset="0" style="stop-color:#0081BD"/>
		<stop  offset="0.3773" style="stop-color:#0070AD"/>
		<stop  offset="0.85" style="stop-color:#005494"/>
		<stop  offset="1" style="stop-color:#005494"/>
	</linearGradient>
	<rect x="600.7" y="51.7" class="st4" width="6.6" height="23.5"/>
</g>
</svg>
