<?xml version="1.0" encoding="utf-8"?>
<!-- Generator: Adobe Illustrator 17.0.0, SVG Export Plug-In . SVG Version: 6.00 Build 0)  -->
<!DOCTYPE svg PUBLIC "-//W3C//DTD SVG 1.1//EN" "http://www.w3.org/Graphics/SVG/1.1/DTD/svg11.dtd">
<svg version="1.1" id="Layer_1" xmlns="http://www.w3.org/2000/svg" xmlns:xlink="http://www.w3.org/1999/xlink" x="0px" y="0px"
	 width="728px" height="90px" viewBox="0 0 728 90" style="enable-background:new 0 0 728 90;" xml:space="preserve">
<style type="text/css">
	.st0{fill:#F6A9C2;}
	.st1{fill:none;}
	.st2{opacity:0.5;fill:#FFFFFF;enable-background:new    ;}
	.st3{fill:#3B3030;}
	.st4{fill:#D2758B;}
	.st5{fill:#010101;}
	.st6{opacity:0.53;clip-path:url(#SVGID_2_);fill:url(#SVGID_3_);enable-background:new    ;}
	.st7{opacity:0.53;clip-path:url(#SVGID_5_);fill:url(#SVGID_6_);enable-background:new    ;}
	.st8{opacity:0.53;clip-path:url(#SVGID_8_);fill:url(#SVGID_9_);enable-background:new    ;}
	.st9{fill:url(#SVGID_10_);}
	.st10{opacity:0.53;clip-path:url(#SVGID_12_);fill:url(#SVGID_13_);enable-background:new    ;}
	.st11{clip-path:url(#SVGID_15_);fill:url(#SVGID_16_);}
</style>
<g>
	<path class="st0" d="M588.836,39.529c-0.121-1.253-1.577-1.617-2.547-2.062c-3.719-1.819-3.315-6.387-4.73-9.742
		c-1.132-2.708-2.83-5.174-4.891-7.357c-2.183-2.587-2.991-3.396-10.268-7.236c-5.457-2.506-11.602-3.719-17.585-3.719
		c-14.755,0.04-27.368,7.196-32.259,17.302c-0.323,0.606-0.566,1.253-0.808,1.9c-0.889,2.345-1.334,4.811-1.334,7.357
		c0,0.526,0.04,1.091,0.081,1.617c3.557,3.679,7.276,6.468,11.076,8.53c0.93,0.526,1.9,0.97,2.83,1.415
		c1.172,0.526,2.385,1.011,3.557,1.374c0.728,0.243,1.415,0.445,2.143,0.647c0.97,0.243,1.9,0.485,2.87,0.687
		c0.728,0.162,1.415,0.283,2.142,0.364c-0.728-0.121-1.415-0.243-2.142-0.364c-0.97-0.202-1.9-0.404-2.87-0.687
		c-0.728-0.202-1.415-0.404-2.143-0.647c-1.213-0.404-2.385-0.849-3.557-1.374c-0.97-0.404-1.9-0.889-2.83-1.415
		c-3.76-2.062-7.479-4.851-11.076-8.53c0.162,1.819,0.526,3.638,1.132,5.336l0,0c2.506,8.53,13.906,25.831,16.372,25.831h7.64
		c1.011,0,1.698-0.364,2.142-0.93c0.606-0.768,0.768-1.94,0.728-3.072c-0.04-0.687-0.283-3.194-0.121-3.881
		c0.04-0.162,0.121-1.172,0.202-1.334c0,0,0-0.04,0.04-0.04c2.021,0.283,4.083,0.808,6.185,0.808c2.506,0,5.053-0.202,7.559-0.647
		c0.445,2.183,1.536,9.015,3.679,9.015c0,0,6.913-0.04,6.953-0.04c0.97,0,3.436-0.364,3.962-1.091
		c0.243-0.323,0.404-0.728,0.485-1.172c0.404-2.425-0.081-4.932-0.243-7.357c-0.04-0.323-0.04-0.647,0-0.97
		c0.04-0.445,0.081-0.849,0.243-1.294c0.202-0.566,0.647-1.091,1.051-1.536c0.889-0.647,1.738-1.334,2.506-2.062
		c2.304-2.264,2.789-2.911,6.104-3.679c2.021-0.445,3.881-1.374,5.7-2.304c0.889-0.445,1.213-1.172,1.213-2.102
		c0-0.04,0-0.081,0-0.121c0-1.213,0.04-2.264,0.445-3.477C588.633,40.904,588.916,40.216,588.836,39.529z M541.943,50.929
		c1.172,0.081,2.345,0.121,3.517,0.162C544.287,51.091,543.115,51.01,541.943,50.929z M570.038,45.916
		c-0.202,0.081-0.445,0.162-0.647,0.243c-3.194,1.213-6.751,2.385-10.551,3.274c-1.496,0.364-2.991,0.647-4.528,0.889
		c-0.647,0.121-1.334,0.202-1.981,0.283c-1.132,0.162-2.264,0.243-3.396,0.323c-0.445,0.04-0.93,0.04-1.374,0.081
		c0.445,0,0.93-0.04,1.374-0.081c1.132-0.081,2.264-0.202,3.396-0.323c0.687-0.081,1.334-0.202,1.981-0.283
		c1.536-0.243,3.072-0.566,4.528-0.889c3.881-0.93,7.479-2.102,10.551-3.274C569.634,46.078,569.836,45.997,570.038,45.916
		c2.789-1.091,5.579-2.304,8.489-2.668C575.617,43.612,572.827,44.825,570.038,45.916z M579.902,43.127c0.364,0,0.687,0,1.051,0
		C580.589,43.127,580.265,43.127,579.902,43.127z M585.036,43.895c-0.323-0.121-0.687-0.202-1.011-0.283
		c-0.687-0.162-1.334-0.283-2.062-0.404c0.687,0.081,1.374,0.202,2.062,0.404C584.389,43.693,584.712,43.774,585.036,43.895
		c0.323,0.121,0.647,0.202,1.011,0.323C585.723,44.097,585.359,43.976,585.036,43.895z"/>
	<line class="st1" x1="568.947" y1="11.757" x2="569.108" y2="11.596"/>
	<path class="st0" d="M515.343,29.302c-0.728-0.445-1.294-1.132-1.738-2.102c1.657-0.728,3.072-1.981,4.204-3.76
		c0.889-1.415,0.97-3.072,0.162-4.204c-0.404-0.606-1.455-1.536-3.557-1.334c-1.091,0.121-2.062,0.606-2.749,1.415
		c-1.294,1.496-1.536,3.84-1.374,5.376c0.04,0.243,0.081,0.485,0.121,0.728c-1.334,0.081-2.345,0-3.719-0.243
		c-0.606-0.121-1.334-0.445-1.9-0.647l-4.002-1.86c1.738,2.183,7.802,5.417,10.308,5.174c0.606,1.496,1.536,2.668,2.789,3.436
		c0.93,0.566,1.981,0.889,3.032,1.011c0.243-0.808,0.566-1.617,1.051-2.345C517.041,29.949,516.111,29.746,515.343,29.302z
		 M512.918,24.491c-0.162-1.172,0.081-2.789,0.808-3.598c0.283-0.323,0.566-0.485,0.97-0.526c0.081,0,0.162,0,0.202,0
		c0.323,0,0.445,0.081,0.606,0.323c0.202,0.283,0.243,1.011-0.202,1.698c-0.728,1.172-1.374,1.94-2.345,2.466
		C512.958,24.693,512.918,24.612,512.918,24.491z"/>
	<path class="st2" d="M525.692,19.6c-4.164,3.477-5.538,5.983-6.427,9.338c-0.121,0.404-0.202,0.808-0.283,1.213
		c-0.121,0.808-0.202,1.617-0.162,2.425c0-0.04,0-0.081,0.04-0.081c1.011-3.76,3.517-7.034,7.398-10.025
		c2.911-2.223,7.357-4.528,10.43-5.296c-1.455-0.849-1.698-1.779-1.779-2.587C534.909,14.587,529.088,16.77,525.692,19.6z"/>
	<path class="st3" d="M576.223,30.191c-1.011,0.162-1.617,1.455-1.374,2.87c0.243,1.415,1.253,2.425,2.264,2.264
		c1.011-0.162,1.617-1.455,1.374-2.87C578.244,31.04,577.234,29.989,576.223,30.191z"/>
	<path class="st0" d="M563.004,15.84c2.345,4.002,6.791,5.902,10.551,4.528c0.404-0.162,0.647-0.566,0.566-0.97
		c-0.243-1.657-0.283-3.194,0.081-4.649c0.323-1.374,1.011-2.668,2.143-3.962c0.809-0.93-0.364-2.466-1.779-2.708
		c-1.536-0.243-3.153,0.081-4.285,0.889c-3.84,2.749-6.751,5.7-7.074,6.023C562.923,15.315,562.762,15.396,563.004,15.84z"/>
	<path class="st4" d="M568.906,17.942c1.091-0.93,2.426-1.577,3.881-1.698c-0.081-0.445-0.162-0.849-0.121-1.213
		c0.202-1.455,0.889-2.143,1.779-3.315c0.162-0.202,0.526-0.808,0.606-1.051c0.404-1.051-1.657-1.091-2.264-0.93
		c-1.536,0.323-3.274,1.617-4.325,3.194C567.289,14.668,567.41,16.811,568.906,17.942z"/>
	<path class="st5" d="M556.617,12.323c-3.962-1.294-11.804-1.213-15.766,0.243c-0.687,0.243-0.93,0.97-0.445,1.455l0.04,0.04
		c0.364,0.364,0.97,0.485,1.496,0.283c3.274-1.253,10.551-1.496,13.785-0.202c0.485,0.202,1.091,0.04,1.415-0.323l0.04-0.04
		C557.587,13.294,557.304,12.566,556.617,12.323z"/>
	<g>
		<g>
			<g>
				<g>
					<defs>
						<path id="SVGID_1_" d="M588.836,39.529c-0.121-1.253-1.577-1.617-2.547-2.062c-3.719-1.819-3.315-6.387-4.73-9.742
							c-1.132-2.708-2.83-5.174-4.891-7.357c-2.183-2.587-2.991-3.396-10.268-7.236c-5.457-2.506-11.602-3.719-17.585-3.719
							c-14.755,0.04-27.368,7.196-32.259,17.302c-0.323,0.606-0.566,1.253-0.808,1.9c-0.889,2.345-1.334,4.811-1.334,7.357
							c0,0.526,0.04,1.091,0.081,1.617c3.557,3.679,7.276,6.468,11.076,8.53c0.93,0.526,1.9,0.97,2.83,1.415
							c1.172,0.526,2.385,1.011,3.557,1.374c0.728,0.243,1.415,0.445,2.143,0.647c0.97,0.243,1.9,0.485,2.87,0.687
							c0.728,0.162,1.415,0.283,2.142,0.364c-0.728-0.121-1.415-0.243-2.142-0.364c-0.97-0.202-1.9-0.404-2.87-0.687
							c-0.728-0.202-1.415-0.404-2.143-0.647c-1.213-0.404-2.385-0.849-3.557-1.374c-0.97-0.404-1.9-0.889-2.83-1.415
							c-3.76-2.062-7.479-4.851-11.076-8.53c0.162,1.819,0.526,3.638,1.132,5.336l0,0c2.506,8.53,13.906,25.831,16.372,25.831h7.64
							c1.011,0,1.698-0.364,2.142-0.93c0.606-0.768,0.768-1.94,0.728-3.072c-0.04-0.687-0.283-3.194-0.121-3.881
							c0.04-0.162,0.121-1.172,0.202-1.334c0,0,0-0.04,0.04-0.04c2.021,0.283,4.083,0.808,6.185,0.808
							c2.506,0,5.053-0.202,7.559-0.647c0.445,2.183,1.536,9.015,3.679,9.015c0,0,6.913-0.04,6.953-0.04
							c0.97,0,3.436-0.364,3.962-1.091c0.243-0.323,0.404-0.728,0.485-1.172c0.404-2.425-0.081-4.932-0.243-7.357
							c-0.04-0.323-0.04-0.647,0-0.97c0.04-0.445,0.081-0.849,0.243-1.294c0.202-0.566,0.647-1.091,1.051-1.536
							c0.889-0.647,1.738-1.334,2.506-2.062c2.304-2.264,2.789-2.911,6.104-3.679c2.021-0.445,3.881-1.374,5.7-2.304
							c0.889-0.445,1.213-1.172,1.213-2.102c0-0.04,0-0.081,0-0.121c0-1.213,0.04-2.264,0.445-3.477
							C588.633,40.904,588.916,40.216,588.836,39.529z M541.943,50.929c1.172,0.081,2.345,0.121,3.517,0.162
							C544.287,51.091,543.115,51.01,541.943,50.929z M570.038,45.916c-0.202,0.081-0.445,0.162-0.647,0.243
							c-3.194,1.213-6.751,2.385-10.551,3.274c-1.496,0.364-2.991,0.647-4.528,0.889c-0.647,0.121-1.334,0.202-1.981,0.283
							c-1.132,0.162-2.264,0.243-3.396,0.323c-0.445,0.04-0.93,0.04-1.374,0.081c0.445,0,0.93-0.04,1.374-0.081
							c1.132-0.081,2.264-0.202,3.396-0.323c0.687-0.081,1.334-0.202,1.981-0.283c1.536-0.243,3.072-0.566,4.528-0.889
							c3.881-0.93,7.479-2.102,10.551-3.274C569.634,46.078,569.836,45.997,570.038,45.916c2.789-1.091,5.579-2.304,8.489-2.668
							C575.617,43.612,572.827,44.825,570.038,45.916z M579.902,43.127c0.364,0,0.687,0,1.051,0
							C580.589,43.127,580.265,43.127,579.902,43.127z M585.036,43.895c-0.323-0.121-0.687-0.202-1.011-0.283
							c-0.687-0.162-1.334-0.283-2.062-0.404c0.687,0.081,1.374,0.202,2.062,0.404C584.389,43.693,584.712,43.774,585.036,43.895
							c0.323,0.121,0.647,0.202,1.011,0.323C585.723,44.097,585.359,43.976,585.036,43.895z"/>
					</defs>
					<clipPath id="SVGID_2_">
						<use xlink:href="#SVGID_1_"  style="overflow:visible;"/>
					</clipPath>
					
						<linearGradient id="SVGID_3_" gradientUnits="userSpaceOnUse" x1="474.7304" y1="-65.1339" x2="474.7304" y2="-96.2898" gradientTransform="matrix(0.5988 0 0 -0.5988 266.991 4.4701)">
						<stop  offset="0" style="stop-color:#F6A9C2;stop-opacity:0.7"/>
						<stop  offset="1" style="stop-color:#B16073"/>
					</linearGradient>
					<path class="st6" d="M520.316,53.314c4.325,7.681,9.985,15.442,11.602,15.442h7.64c0.647,0,1.698-0.323,2.021-0.728
						c1.819-1.86,0.243-5.781,0.808-7.276c0.04-0.162,0.081-1.051,0.202-1.213c0,0,0-0.04,0.04-0.04
						c2.021,0.283,4.083,0.808,6.225,0.808c2.506,0,5.053-0.202,7.559-0.647c0.445,2.183,1.536,9.055,3.679,9.055l6.953-0.04
						c0.97,0,3.436-0.364,3.962-1.091c1.334-2.547,0.202-6.347,0.243-8.327c0-0.081-0.121-1.172,0-1.172
						c0.04-0.445,0.081-0.849,0.243-1.294c0.202-0.566,0.647-1.091,1.051-1.536c0.889-0.647,1.738-1.334,2.506-2.102
						c2.304-2.264,2.83-2.951,6.104-3.679c2.021-0.445,3.881-1.374,5.7-2.304c0.889-0.445,1.213-1.172,1.213-2.102
						c0-0.04,0-0.081,0-0.121c-2.587-1.172-5.296-1.981-8.085-1.9c-3.679,0.121-7.074,1.738-10.51,3.032
						c-3.194,1.213-6.751,2.385-10.551,3.274c-13.542,3.194-30.157,2.911-44.467-11.885c0.162,1.86,0.526,3.638,1.132,5.336l0,0
						C516.394,45.714,518.173,49.514,520.316,53.314"/>
				</g>
			</g>
		</g>
		<g>
			<g>
				<g>
					<defs>
						<path id="SVGID_4_" d="M588.836,39.529c-0.121-1.253-1.577-1.617-2.547-2.062c-3.719-1.819-3.315-6.387-4.73-9.742
							c-1.132-2.708-2.83-5.174-4.891-7.357c-2.183-2.587-2.991-3.396-10.268-7.236c-5.457-2.506-11.602-3.719-17.585-3.719
							c-14.755,0.04-27.368,7.196-32.259,17.302c-0.323,0.606-0.566,1.253-0.808,1.9c-0.889,2.345-1.334,4.811-1.334,7.357
							c0,0.526,0.04,1.091,0.081,1.617c3.557,3.679,7.276,6.468,11.076,8.53c0.93,0.526,1.9,0.97,2.83,1.415
							c1.172,0.526,2.385,1.011,3.557,1.374c0.728,0.243,1.415,0.445,2.143,0.647c0.97,0.243,1.9,0.485,2.87,0.687
							c0.728,0.162,1.415,0.283,2.142,0.364c-0.728-0.121-1.415-0.243-2.142-0.364c-0.97-0.202-1.9-0.404-2.87-0.687
							c-0.728-0.202-1.415-0.404-2.143-0.647c-1.213-0.404-2.385-0.849-3.557-1.374c-0.97-0.404-1.9-0.889-2.83-1.415
							c-3.76-2.062-7.479-4.851-11.076-8.53c0.162,1.819,0.526,3.638,1.132,5.336l0,0c2.506,8.53,13.906,25.831,16.372,25.831h7.64
							c1.011,0,1.698-0.364,2.142-0.93c0.606-0.768,0.768-1.94,0.728-3.072c-0.04-0.687-0.283-3.194-0.121-3.881
							c0.04-0.162,0.121-1.172,0.202-1.334c0,0,0-0.04,0.04-0.04c2.021,0.283,4.083,0.808,6.185,0.808
							c2.506,0,5.053-0.202,7.559-0.647c0.445,2.183,1.536,9.015,3.679,9.015c0,0,6.913-0.04,6.953-0.04
							c0.97,0,3.436-0.364,3.962-1.091c0.243-0.323,0.404-0.728,0.485-1.172c0.404-2.425-0.081-4.932-0.243-7.357
							c-0.04-0.323-0.04-0.647,0-0.97c0.04-0.445,0.081-0.849,0.243-1.294c0.202-0.566,0.647-1.091,1.051-1.536
							c0.889-0.647,1.738-1.334,2.506-2.062c2.304-2.264,2.789-2.911,6.104-3.679c2.021-0.445,3.881-1.374,5.7-2.304
							c0.889-0.445,1.213-1.172,1.213-2.102c0-0.04,0-0.081,0-0.121c0-1.213,0.04-2.264,0.445-3.477
							C588.633,40.904,588.916,40.216,588.836,39.529z M541.943,50.929c1.172,0.081,2.345,0.121,3.517,0.162
							C544.287,51.091,543.115,51.01,541.943,50.929z M570.038,45.916c-0.202,0.081-0.445,0.162-0.647,0.243
							c-3.194,1.213-6.751,2.385-10.551,3.274c-1.496,0.364-2.991,0.647-4.528,0.889c-0.647,0.121-1.334,0.202-1.981,0.283
							c-1.132,0.162-2.264,0.243-3.396,0.323c-0.445,0.04-0.93,0.04-1.374,0.081c0.445,0,0.93-0.04,1.374-0.081
							c1.132-0.081,2.264-0.202,3.396-0.323c0.687-0.081,1.334-0.202,1.981-0.283c1.536-0.243,3.072-0.566,4.528-0.889
							c3.881-0.93,7.479-2.102,10.551-3.274C569.634,46.078,569.836,45.997,570.038,45.916c2.789-1.091,5.579-2.304,8.489-2.668
							C575.617,43.612,572.827,44.825,570.038,45.916z M579.902,43.127c0.364,0,0.687,0,1.051,0
							C580.589,43.127,580.265,43.127,579.902,43.127z M585.036,43.895c-0.323-0.121-0.687-0.202-1.011-0.283
							c-0.687-0.162-1.334-0.283-2.062-0.404c0.687,0.081,1.374,0.202,2.062,0.404C584.389,43.693,584.712,43.774,585.036,43.895
							c0.323,0.121,0.647,0.202,1.011,0.323C585.723,44.097,585.359,43.976,585.036,43.895z"/>
					</defs>
					<clipPath id="SVGID_5_">
						<use xlink:href="#SVGID_4_"  style="overflow:visible;"/>
					</clipPath>
					
						<linearGradient id="SVGID_6_" gradientUnits="userSpaceOnUse" x1="496.3118" y1="-96.0561" x2="503.1325" y2="-97.2833" gradientTransform="matrix(0.5988 0 0 -0.5988 266.991 4.4701)">
						<stop  offset="0" style="stop-color:#F493AA;stop-opacity:0"/>
						<stop  offset="0.3074" style="stop-color:#F6A2B8;stop-opacity:0.3076"/>
						<stop  offset="0.6968" style="stop-color:#F5AEC6;stop-opacity:0.6971"/>
						<stop  offset="0.9995" style="stop-color:#F7B3CB"/>
					</linearGradient>
					<path class="st7" d="M571.089,67.301c-1.86,0.808-5.094,0.445-6.549,0.162c-0.202-0.04-0.445-0.121-0.647-0.202
						c-1.011-0.566-1.172-2.021-1.294-3.032c-0.121-0.97-0.566-2.789,0.283-3.477c2.183-1.779,5.336-2.385,8.044-2.87
						c0.081,0,0.162-0.04,0.283-0.04c-0.04,0.93,0,1.819,0.081,2.668C571.655,63.663,571.776,66.048,571.089,67.301z"/>
				</g>
			</g>
		</g>
		<g>
			<g>
				<g>
					<defs>
						<path id="SVGID_7_" d="M588.836,39.529c-0.121-1.253-1.577-1.617-2.547-2.062c-3.719-1.819-3.315-6.387-4.73-9.742
							c-1.132-2.708-2.83-5.174-4.891-7.357c-2.183-2.587-2.991-3.396-10.268-7.236c-5.457-2.506-11.602-3.719-17.585-3.719
							c-14.755,0.04-27.368,7.196-32.259,17.302c-0.323,0.606-0.566,1.253-0.808,1.9c-0.889,2.345-1.334,4.811-1.334,7.357
							c0,0.526,0.04,1.091,0.081,1.617c3.557,3.679,7.276,6.468,11.076,8.53c0.93,0.526,1.9,0.97,2.83,1.415
							c1.172,0.526,2.385,1.011,3.557,1.374c0.728,0.243,1.415,0.445,2.143,0.647c0.97,0.243,1.9,0.485,2.87,0.687
							c0.728,0.162,1.415,0.283,2.142,0.364c-0.728-0.121-1.415-0.243-2.142-0.364c-0.97-0.202-1.9-0.404-2.87-0.687
							c-0.728-0.202-1.415-0.404-2.143-0.647c-1.213-0.404-2.385-0.849-3.557-1.374c-0.97-0.404-1.9-0.889-2.83-1.415
							c-3.76-2.062-7.479-4.851-11.076-8.53c0.162,1.819,0.526,3.638,1.132,5.336l0,0c2.506,8.53,13.906,25.831,16.372,25.831h7.64
							c1.011,0,1.698-0.364,2.142-0.93c0.606-0.768,0.768-1.94,0.728-3.072c-0.04-0.687-0.283-3.194-0.121-3.881
							c0.04-0.162,0.121-1.172,0.202-1.334c0,0,0-0.04,0.04-0.04c2.021,0.283,4.083,0.808,6.185,0.808
							c2.506,0,5.053-0.202,7.559-0.647c0.445,2.183,1.536,9.015,3.679,9.015c0,0,6.913-0.04,6.953-0.04
							c0.97,0,3.436-0.364,3.962-1.091c0.243-0.323,0.404-0.728,0.485-1.172c0.404-2.425-0.081-4.932-0.243-7.357
							c-0.04-0.323-0.04-0.647,0-0.97c0.04-0.445,0.081-0.849,0.243-1.294c0.202-0.566,0.647-1.091,1.051-1.536
							c0.889-0.647,1.738-1.334,2.506-2.062c2.304-2.264,2.789-2.911,6.104-3.679c2.021-0.445,3.881-1.374,5.7-2.304
							c0.889-0.445,1.213-1.172,1.213-2.102c0-0.04,0-0.081,0-0.121c0-1.213,0.04-2.264,0.445-3.477
							C588.633,40.904,588.916,40.216,588.836,39.529z M541.943,50.929c1.172,0.081,2.345,0.121,3.517,0.162
							C544.287,51.091,543.115,51.01,541.943,50.929z M570.038,45.916c-0.202,0.081-0.445,0.162-0.647,0.243
							c-3.194,1.213-6.751,2.385-10.551,3.274c-1.496,0.364-2.991,0.647-4.528,0.889c-0.647,0.121-1.334,0.202-1.981,0.283
							c-1.132,0.162-2.264,0.243-3.396,0.323c-0.445,0.04-0.93,0.04-1.374,0.081c0.445,0,0.93-0.04,1.374-0.081
							c1.132-0.081,2.264-0.202,3.396-0.323c0.687-0.081,1.334-0.202,1.981-0.283c1.536-0.243,3.072-0.566,4.528-0.889
							c3.881-0.93,7.479-2.102,10.551-3.274C569.634,46.078,569.836,45.997,570.038,45.916c2.789-1.091,5.579-2.304,8.489-2.668
							C575.617,43.612,572.827,44.825,570.038,45.916z M579.902,43.127c0.364,0,0.687,0,1.051,0
							C580.589,43.127,580.265,43.127,579.902,43.127z M585.036,43.895c-0.323-0.121-0.687-0.202-1.011-0.283
							c-0.687-0.162-1.334-0.283-2.062-0.404c0.687,0.081,1.374,0.202,2.062,0.404C584.389,43.693,584.712,43.774,585.036,43.895
							c0.323,0.121,0.647,0.202,1.011,0.323C585.723,44.097,585.359,43.976,585.036,43.895z"/>
					</defs>
					<clipPath id="SVGID_8_">
						<use xlink:href="#SVGID_7_"  style="overflow:visible;"/>
					</clipPath>
					
						<linearGradient id="SVGID_9_" gradientUnits="userSpaceOnUse" x1="445.1034" y1="-98.5154" x2="457.4835" y2="-100.7528" gradientTransform="matrix(0.5988 0 0 -0.5988 266.991 4.4701)">
						<stop  offset="0" style="stop-color:#F493AA;stop-opacity:0"/>
						<stop  offset="0.3074" style="stop-color:#F6A2B8;stop-opacity:0.3076"/>
						<stop  offset="0.6968" style="stop-color:#F5AEC6;stop-opacity:0.6971"/>
						<stop  offset="0.9995" style="stop-color:#F7B3CB"/>
					</linearGradient>
					<path class="st8" d="M542.387,60.712c-1.091-0.566-6.67-0.606-8.813,2.143c-0.97,1.253-0.93,4.528,0.808,5.134
						c1.455,0.526,4.608,0.364,6.145,0.202c1.051-0.081,1.334-0.162,1.859-1.779c0,0,0.121-1.132,0.121-1.294
						C542.428,62.895,542.226,61.884,542.387,60.712z"/>
				</g>
			</g>
		</g>
	</g>
	<g>
		
			<linearGradient id="SVGID_10_" gradientUnits="userSpaceOnUse" x1="496.5932" y1="-97.6605" x2="496.5932" y2="-107.3673" gradientTransform="matrix(0.5988 0 0 -0.5988 266.991 4.4701)">
			<stop  offset="0" style="stop-color:#010101;stop-opacity:0"/>
			<stop  offset="0.8588" style="stop-color:#010101;stop-opacity:0.2578"/>
			<stop  offset="0.9995" style="stop-color:#010101;stop-opacity:0.3"/>
		</linearGradient>
		<path class="st9" d="M557.102,63.299c0.606,2.587,1.577,5.417,2.951,5.417l6.953-0.04c0.97,0,3.436-0.364,3.962-1.091
			c0.808-1.577,0.687-3.679,0.485-5.498"/>
	</g>
	<g>
		<g>
			<g>
				<g>
					<defs>
						<path id="SVGID_11_" d="M542.387,63.339c-0.04-0.445-0.04-0.93-0.081-1.334 M527.188,63.946
							c2.143,2.87,3.962,4.811,4.77,4.811h7.64c1.011,0,1.698-0.364,2.143-0.93c0.606-0.768,0.768-1.94,0.728-3.072
							c0-0.243-0.04-0.808-0.081-1.415"/>
					</defs>
					<clipPath id="SVGID_12_">
						<use xlink:href="#SVGID_11_"  style="overflow:visible;"/>
					</clipPath>
					
						<linearGradient id="SVGID_13_" gradientUnits="userSpaceOnUse" x1="428.419" y1="-83.6902" x2="428.419" y2="-98.5221" gradientTransform="matrix(0.5988 0 0 -0.5988 266.991 4.4701)">
						<stop  offset="0" style="stop-color:#F6A9C2"/>
						<stop  offset="0.2987" style="stop-color:#E593AB"/>
						<stop  offset="0.7514" style="stop-color:#D3788F"/>
						<stop  offset="1" style="stop-color:#CE7087"/>
					</linearGradient>
					<path class="st10" d="M520.316,53.314c2.021,3.638,4.366,7.276,6.428,10.106"/>
				</g>
			</g>
		</g>
		<g>
			<g>
				<g>
					<defs>
						<path id="SVGID_14_" d="M542.387,63.339c-0.04-0.445-0.04-0.93-0.081-1.334 M527.188,63.946
							c2.143,2.87,3.962,4.811,4.77,4.811h7.64c1.011,0,1.698-0.364,2.143-0.93c0.606-0.768,0.768-1.94,0.728-3.072
							c0-0.243-0.04-0.808-0.081-1.415"/>
					</defs>
					<clipPath id="SVGID_15_">
						<use xlink:href="#SVGID_14_"  style="overflow:visible;"/>
					</clipPath>
					
						<linearGradient id="SVGID_16_" gradientUnits="userSpaceOnUse" x1="446.9366" y1="-99.4504" x2="446.9366" y2="-107.4375" gradientTransform="matrix(0.5988 0 0 -0.5988 266.991 4.4701)">
						<stop  offset="0" style="stop-color:#010101;stop-opacity:0"/>
						<stop  offset="0.8588" style="stop-color:#010101;stop-opacity:0.2578"/>
						<stop  offset="0.9995" style="stop-color:#010101;stop-opacity:0.3"/>
					</linearGradient>
					<path class="st11" d="M526.743,63.42c2.304,3.194,4.325,5.376,5.174,5.376h7.64c0.647,0,1.698-0.323,2.021-0.728
						c1.091-1.132,0.97-3.032,0.808-4.689"/>
				</g>
			</g>
		</g>
	</g>
	<path class="st5" d="M542.913,58.327c3.355,1.091,9.985,1.011,13.34-0.243c0.566-0.202,0.768-0.808,0.364-1.213l-0.04-0.04
		c-0.323-0.323-0.808-0.404-1.253-0.243c-2.749,1.051-8.934,1.294-11.642,0.202c-0.404-0.162-0.93-0.04-1.213,0.283l-0.04,0.04
		C542.104,57.518,542.347,58.125,542.913,58.327z"/>
</g>
</svg>
