<svg id="Layer_1" xmlns="http://www.w3.org/2000/svg" viewBox="0 0 728 90"><style>.st0{fill:#3f2718}.st1{fill:#ffdd15}.st2{fill:#e01b22}.st3{fill:#fff}</style><path class="st0" d="M526.4 47.9c.4.4 1 .5 1.4.1l8.1-7.2c.4-.4.5-1 .1-1.4s-1-.5-1.4-.1l-8.1 7.2c-.5.3-.5 1-.1 1.4"/><path transform="rotate(-45.001 534.83 46.96)" class="st0" d="M534.2 42.4h1.2v9h-1.2z"/><path class="st0" d="M498.5 9.8h1.2v32.3h-1.2z"/><path class="st1" d="M497 8.5c0 1.2 1 2.2 2.2 2.2 1.2 0 2.2-1 2.2-2.2 0-1.2-1-2.2-2.2-2.2-1.3 0-2.2 1-2.2 2.2M509.1 53.2c1.4-.6 2-2.3 1.4-3.6l-5.9-13.1c-.6-1.4-2.3-2-3.6-1.4-1.4.6-2 2.3-1.4 3.6l5.9 13.1c.6 1.4 2.2 2.1 3.6 1.4"/><path class="st2" d="M498.2 38.5c5.4 3.4 6.7 11.7 6.7 11.7h25c6.1 0 7.2-5.6 7.2-5.6 1.7-8.8 8.5-12.4 11-13.5 8.2 6.4 13.4 16.3 13.4 27.5 0 2.2-.2 4.3-.6 6.3h-68.6c-.4-2-.6-4.1-.6-6.3.1-7.5 2.5-14.4 6.5-20.1"/><path class="st0" d="M489 73.1h75.2c2.9 0 5.2-2.4 5.2-5.2s-2.4-5.2-5.2-5.2H489c-2.9 0-5.2 2.4-5.2 5.2s2.4 5.2 5.2 5.2M550.9 54.9c0 3.2 1.7 5.8 3.8 5.8 2.1 0 3.8-2.6 3.8-5.8 0-3.2-1.7-5.8-3.8-5.8-2.1 0-3.8 2.6-3.8 5.8"/><path class="st3" d="M553.7 49.3c1.6.7 2.8 2.9 2.8 5.5s-1.2 4.8-2.8 5.5c-1.6-.7-2.8-2.9-2.8-5.5s1.2-4.8 2.8-5.5M502.7 52h33.9c.6 0 1.1-.5 1.1-1.1 0-.6-.5-1.1-1.1-1.1h-33.9c-.6 0-1.1.5-1.1 1.1 0 .6.5 1.1 1.1 1.1"/></svg>