<svg id="Layer_1" xmlns="http://www.w3.org/2000/svg" viewBox="0 0 728 90"><style>.st0{fill:#3f2718}.st1{fill:#ffdd15}.st2{fill:#e01b22}.st3{fill:#fff}</style><path class="st0" d="M608.2 58.4c-.4.4-1 .5-1.4.1l-8.1-7.2c-.4-.4-.5-1-.1-1.4s1-.5 1.4-.1l8.1 7.2c.4.3.4 1 .1 1.4"/><path transform="rotate(-45.001 599.698 57.432)" class="st0" d="M595.2 56.8h9V58h-9z"/><path class="st0" d="M634.8 20.3h1.2v32.3h-1.2z"/><path class="st1" d="M637.6 18.9c0 1.2-1 2.2-2.2 2.2-1.2 0-2.2-1-2.2-2.2 0-1.2 1-2.2 2.2-2.2 1.2.1 2.2 1 2.2 2.2M625.5 63.7c-1.4-.6-2-2.3-1.4-3.6L630 47c.6-1.4 2.3-2 3.6-1.4 1.4.6 2 2.3 1.4 3.6l-5.9 13.1c-.6 1.4-2.3 2-3.6 1.4"/><path class="st2" d="M636.3 49c-5.4 3.4-6.7 11.7-6.7 11.7h-25c-6.1 0-7.2-5.6-7.2-5.6-1.7-8.8-8.5-12.4-11-13.5C578.3 48.1 573 58 573 69.1c0 2.2.2 4.3.6 6.3h68.6c.4-2 .6-4.1.6-6.3-.1-7.5-2.5-14.4-6.5-20.1"/><path class="st0" d="M645.5 83.6h-75.2c-2.9 0-5.2-2.4-5.2-5.2s2.4-5.2 5.2-5.2h75.2c2.9 0 5.2 2.4 5.2 5.2s-2.3 5.2-5.2 5.2M583.6 65.3c0 3.2-1.7 5.8-3.8 5.8-2.1 0-3.8-2.6-3.8-5.8s1.7-5.8 3.8-5.8c2.1.1 3.8 2.7 3.8 5.8"/><path class="st3" d="M580.8 59.8c-1.6.7-2.8 2.9-2.8 5.5s1.2 4.8 2.8 5.5c1.6-.7 2.8-2.9 2.8-5.5s-1.2-4.8-2.8-5.5M631.8 62.4h-33.9c-.6 0-1.1-.5-1.1-1.1 0-.6.5-1.1 1.1-1.1h33.9c.6 0 1.1.5 1.1 1.1 0 .6-.5 1.1-1.1 1.1"/></svg>