<svg id="Layer_1" xmlns="http://www.w3.org/2000/svg" viewBox="0 0 728 90"><style>.st0{fill:#b9e0d3}.st1{fill:#fffdf6}.st2{fill:#898f94}</style><path class="st0" d="M51.3 29.3h50.3v25.8H51.3z"/><path class="st1" d="M100.7 54.6H52.1V30.1h48.5v24.5zM51 55.8h50.9V29H51v26.8z"/><path class="st2" d="M77.3 41H55c-.3 0-.5-.2-.5-.5s.2-.5.5-.5h22.2c.3 0 .5.2.5.5s-.2.5-.4.5M73.8 48.3H55c-.3 0-.5-.2-.5-.5s.2-.5.5-.5h18.7c.3 0 .5.2.5.5s-.2.5-.4.5M96.4 48.3H77.6c-.3 0-.5-.2-.5-.5s.2-.5.5-.5h18.7c.3 0 .5.2.5.5s-.2.5-.4.5M96.4 45.1H55c-.3 0-.5-.2-.5-.5s.2-.5.5-.5h41.3c.3 0 .5.2.5.5s-.2.5-.4.5M96.5 35.7H82.9c-.3 0-.5-.2-.5-.5s.2-.5.5-.5h13.5c.3 0 .5.2.5.5s-.2.5-.4.5M68.4 35.3H54.9c-.3 0-.5-.2-.5-.5s.2-.5.5-.5h13.5c.3 0 .5.2.5.5s-.2.5-.5.5M68.4 37.6H54.9c-.3 0-.5-.2-.5-.5s.2-.5.5-.5h13.5c.3 0 .5.2.5.5s-.2.5-.5.5"/><path class="st1" d="M83.1 37.7H97v3.9H83.1z"/><path class="st2" d="M82.2 39.6l-.2-.2c-.1-.1-.2-.1-.4-.2s-.3-.1-.3-.2c0 0-.1-.1-.1-.2s0-.1.1-.2.1-.1.2-.1c.2 0 .3.1.4.3h.1l.4-.2v-.1c-.1-.2-.2-.3-.3-.4-.1-.1-.2-.1-.4-.2v-.3s0-.1-.1-.1h-.3s-.1 0-.1.1v.4c-.1 0-.2.1-.2.1-.1.1-.2.1-.2.2-.1.1-.1.2-.1.2 0 .1-.1.2-.1.3 0 .2.1.4.2.6.1.1.3.2.5.3.1.1.2.1.3.2.1 0 .1.1.2.1.1.1.1.2.1.3 0 .1 0 .2-.1.3-.1.1-.2.1-.3.1-.1 0-.2 0-.3-.1-.1-.1-.1-.2-.2-.4 0 0 0-.1-.1 0l-.4.1v.1c.1.3.2.5.3.7.1.1.3.2.6.3v.3s0 .1.1.1h.3s.1 0 .1-.1v-.4c.2-.1.4-.2.5-.4.1-.2.2-.4.2-.6-.2-.3-.3-.5-.4-.7"/></svg>