<svg id="Layer_1" xmlns="http://www.w3.org/2000/svg" viewBox="0 0 728 90"><style>.st0{fill:#b8e0d2}.st1{fill:#fffdf6}.st2{fill:#898f95}</style><path transform="rotate(-18.897 517.383 35.476)" class="st0" d="M506.6 14.5h21.6v42.1h-21.6z"/><path class="st1" d="M534.7 51.4l-21.2 7.3-13.8-40.3 21.2-7.3 13.8 40.3zm-14.4-39L500.9 19l13.2 38.4 19.4-6.6-13.2-38.4z"/><path class="st2" d="M518 33.9l6 17.6c.1.2.3.3.5.2.2-.1.3-.3.2-.5l-6-17.6c-.1-.2-.3-.3-.5-.2-.2.1-.3.3-.2.5M513.1 38.6l5.1 14.8c.1.2.3.3.5.2.2-.1.3-.3.2-.5l-5.1-14.8c-.1-.2-.3-.3-.5-.2s-.2.3-.2.5M507 20.7l5.1 14.8c.1.2.3.3.5.2.2-.1.3-.3.2-.5l-5.1-14.8c-.1-.2-.3-.3-.5-.2-.1.1-.2.3-.2.5M509.6 19.9l11.2 32.7c.1.2.3.3.5.2s.3-.3.2-.5l-11.2-32.7c-.1-.2-.3-.3-.5-.2-.1 0-.3.3-.2.5M517 17.3l3.7 10.7c.1.2.3.3.5.2.2-.1.3-.3.2-.5L517.7 17c-.1-.2-.3-.3-.5-.2-.2 0-.3.3-.2.5M524.9 39.3l3.7 10.7c.1.2.3.3.5.2s.3-.3.2-.5L525.6 39c-.1-.2-.3-.3-.5-.2s-.2.3-.2.5M523.1 39.9l3.7 10.7c.1.2.3.3.5.2s.3-.3.2-.5l-3.7-10.7c-.1-.2-.3-.3-.5-.2s-.3.3-.2.5"/><path transform="rotate(-18.904 515.558 23.379)" class="st1" d="M514 17.5h3.3v11.7H514z"/><path class="st2" d="M517.8 29.6c.1 0 .1.1.2.1l.3.3c.1.1.2.2.3.2h.2c.1 0 .1-.1.1-.1v-.2c0-.1-.2-.2-.3-.2l.1-.4s0-.1.1 0c.2 0 .3.1.4.1.1.1.2.1.2.2l.3-.1h.1l.1.3v.1l-.3.1v.2c0 .1 0 .2-.1.2 0 .1-.1.1-.2.2s-.1.1-.2.1c-.2.1-.3.1-.5 0-.1 0-.2-.1-.4-.3l-.2-.2c-.1 0-.1-.1-.1-.1h-.2c-.1 0-.2.1-.2.2v.3c0 .1.1.2.2.2s.2.1.4 0c0 0 .1 0 .1.1v.4c-.3 0-.5 0-.6-.1-.1-.1-.3-.2-.4-.4l-.3.1h-.1l-.1-.3v-.1l.3-.1c0-.2 0-.4.1-.5.1-.2.3-.3.4-.3-.1-.1.1-.1.3 0"/></svg>