<svg id="Layer_1" xmlns="http://www.w3.org/2000/svg" viewBox="0 0 728 90"><style>.st0{fill:#b8e0d2}.st1{fill:#fffdf6}.st2{fill:#898f95}</style><path transform="rotate(-71.101 614.303 40.171)" class="st0" d="M593.3 29.4h42.1V51h-42.1z"/><path class="st1" d="M597 56.1l21.2 7.3L632 23.1l-21.2-7.3L597 56.1zm14.4-39l19.4 6.6-13.2 38.4-19.4-6.6 13.2-38.4z"/><path class="st2" d="M613.7 38.6l-6 17.6c-.1.2-.3.3-.5.2-.2-.1-.3-.3-.2-.5l6-17.6c.1-.2.3-.3.5-.2.1 0 .2.3.2.5M618.5 43.3l-5.1 14.8c-.1.2-.3.3-.5.2-.2-.1-.3-.3-.2-.5l5.1-14.8c.1-.2.3-.3.5-.2s.3.3.2.5M624.6 25.4l-5.1 14.8c-.1.2-.3.3-.5.2-.2-.1-.3-.3-.2-.5l5.1-14.8c.1-.2.3-.3.5-.2.2.1.3.3.2.5M622 24.5l-11.2 32.7c-.1.2-.3.3-.5.2s-.3-.3-.2-.5l11.2-32.7c.1-.2.3-.3.5-.2.2.1.3.3.2.5M614.7 21.9L611 32.6c-.1.2-.3.3-.5.2-.2-.1-.3-.3-.2-.5l3.7-10.7c.1-.2.3-.3.5-.2.2.1.3.3.2.5M606.7 44L603 54.7c-.1.2-.3.3-.5.2s-.3-.3-.2-.5l3.7-10.7c.1-.2.3-.3.5-.2s.3.3.2.5M608.6 44.6l-3.7 10.7c-.1.2-.3.3-.5.2s-.3-.3-.2-.5l3.7-10.7c.1-.2.3-.3.5-.2s.2.3.2.5"/><path transform="rotate(-71.096 616.017 28.04)" class="st1" d="M610.2 26.4h11.7v3.3h-11.7z"/><path class="st2" d="M613.9 34.3c-.1 0-.1.1-.2.1l-.3.3c-.1.1-.2.2-.3.2h-.2c-.1 0-.1-.1-.1-.1v-.2c0-.1.2-.2.3-.2l-.1-.4s0-.1-.1 0c-.2 0-.3.1-.4.1-.1.1-.2.1-.2.2l-.3-.1h-.1l-.1.3v.1l.3.1v.2c0 .1 0 .2.1.2 0 .1.1.1.2.2s.1.1.2.1c.2.1.3.1.5 0 .1 0 .2-.1.4-.3l.2-.2c.1 0 .1-.1.1-.1h.2c.1 0 .2.1.2.2v.3c0 .1-.1.2-.2.2s-.2.1-.4 0c0 0-.1 0-.1.1v.4c.3 0 .5 0 .6-.1.1-.1.3-.2.4-.4l.3.1h.1l.1-.3v-.1l-.3-.1c0-.2 0-.4-.1-.5-.1-.2-.3-.3-.4-.3 0-.1-.1-.1-.3 0"/></svg>