<svg xmlns="http://www.w3.org/2000/svg" viewBox="0 0 728 90"><path d="M132.1 28.9c-1.6 0-3.1-.5-3.9-1l-.3-3.2c1.1.8 2.6 1.3 4 1.3 1.2 0 2-.6 2-1.4 0-.8-.5-1.3-1.8-1.6-2.8-.7-4-2.3-4-4.4 0-2.3 1.7-4.2 4.8-4.2 1.6 0 2.9.5 3.5.8l-.6 2.8c-.6-.3-1.7-.7-2.7-.7-1.2 0-1.7.5-1.7 1.2s.6 1.1 1.7 1.4c2.7.7 4.3 2.1 4.3 4.6-.1 2.7-1.9 4.4-5.3 4.4zM148.2 23.2l-1.4 1.5h-4.9c.2.8 1.3 1.7 2.9 1.7 1 0 2.1-.3 2.8-.7l-.3 2.8c-.7.4-1.9.7-3.2.7-3 0-5.5-2.1-5.5-5.4 0-3.2 2.3-5.3 5.2-5.3 2.8 0 4.5 1.9 4.5 4 0 .2-.1.5-.1.7zm-4.4-2.3c-.9 0-1.7.7-1.9 1.6h3.4v-.2c-.1-.7-.7-1.4-1.5-1.4zM158.9 23.2l-1.4 1.5h-4.9c.2.8 1.3 1.7 2.9 1.7 1 0 2.1-.3 2.8-.7l-.3 2.8c-.7.4-1.9.7-3.2.7-3 0-5.5-2.1-5.5-5.4 0-3.2 2.3-5.3 5.2-5.3 2.8 0 4.5 1.9 4.5 4 0 .2 0 .5-.1.7zm-4.4-2.3c-.9 0-1.7.7-1.9 1.6h3.4v-.2c0-.7-.6-1.4-1.5-1.4zM171.9 28.7v-6.1c0-.7-.5-1.4-1.5-1.4s-1.6.6-1.6 1.4v6.1h-3.2V13.1h3.2v6.6c.5-.8 1.4-1.2 2.8-1.2 2.2 0 3.5 1.2 3.5 3.3v6.9h-3.2zM182.1 29c-3 0-5.4-2.1-5.4-5.3s2.4-5.3 5.4-5.3c3 0 5.4 2.1 5.4 5.3s-2.4 5.3-5.4 5.3zm0-7.8c-1.2 0-2.2 1.1-2.2 2.5s1 2.5 2.2 2.5c1.2 0 2.2-1.1 2.2-2.5s-1-2.5-2.2-2.5zM199.6 28.8h-2.2l-1.3-4c-.2-.6-.4-1.3-.6-2.1-.2.7-.4 1.5-.6 2l-1.3 4h-2.1L188 18.6h2.9l1.2 3.8c.2.6.4 1.3.5 1.9.1-.6.3-1.3.5-1.9l1.3-3.8h2.4l1.3 3.8c.2.6.3 1.3.5 1.9.1-.6.3-1.3.5-1.9l1.3-3.8h2.8l-3.6 10.2zM221.5 28.7v-6.1c0-.7-.4-1.4-1.4-1.4-1 0-1.5.6-1.5 1.4v6.1h-3.2v-6.1c0-.7-.4-1.4-1.4-1.4-1 0-1.5.6-1.5 1.4v6.1h-3.2v-10h3V20c.4-1.1 1.4-1.6 2.9-1.6 1.4 0 2.5.6 2.9 1.6.4-1 1.6-1.6 3.1-1.6 2.3 0 3.5 1.2 3.5 3.3v6.9h-3.2zM233.4 28.7v-1.4c-.4 1.1-1.5 1.7-3.1 1.7-2.2 0-3.5-1.2-3.5-3.3v-6.9h3.2v6.1c0 .7.5 1.4 1.5 1.4s1.6-.6 1.6-1.4v-6.1h3.2v10h-2.9zM246 22c-.7-.4-1.3-.6-2.1-.6-1.4 0-2.5 1-2.5 2.5 0 1.4 1.1 2.5 2.6 2.5.8 0 1.5-.2 2.2-.6l-.3 2.8c-.7.3-1.5.5-2.4.5-2.8 0-5.4-2-5.4-5.2 0-3.3 2.6-5.2 5.3-5.2 1.3 0 2.4.3 3.3.7L246 22zM254.5 28.7v-6.1c0-.7-.5-1.4-1.5-1.4s-1.6.6-1.6 1.4v6.1h-3.2V13.1h3.2v6.6c.5-.8 1.4-1.2 2.8-1.2 2.2 0 3.5 1.2 3.5 3.3v6.9h-3.2zM270.7 27.7c-1.5 4-3.1 5.5-5 6.2l-2-2c1.6-.6 2.8-1.8 3.7-3.9l-3.6-9.3h3.1l1.5 3.9c.2.6.4 1.3.6 2 .2-.7.4-1.4.6-2l1.5-3.9h3l-3.4 9zM279.9 29c-3 0-5.4-2.1-5.4-5.3s2.4-5.3 5.4-5.3c3 0 5.4 2.1 5.4 5.3s-2.5 5.3-5.4 5.3zm0-7.8c-1.2 0-2.2 1.1-2.2 2.5s1 2.5 2.2 2.5c1.2 0 2.2-1.1 2.2-2.5s-1.1-2.5-2.2-2.5zM293.5 28.7v-1.4c-.4 1.1-1.5 1.7-3.1 1.7-2.2 0-3.5-1.2-3.5-3.3v-6.9h3.2v6.1c0 .7.5 1.4 1.5 1.4s1.6-.6 1.6-1.4v-6.1h3.2v10h-2.9zM304.7 22.2c-.2-.1-.6-.2-1-.2-1 0-2 .5-2 2.1v4.6h-3.2v-10h3.2V21c.3-1.6 1.5-2.4 2.8-2.4.3 0 .7 0 .9.1l-.7 3.5zM317.7 22.2c-.2-.1-.6-.2-1-.2-1 0-2 .5-2 2.1v4.6h-3.2v-10h3.2V21c.3-1.6 1.5-2.4 2.8-2.4.3 0 .7 0 .9.1l-.7 3.5zM328.5 23.2l-1.4 1.5h-4.9c.2.8 1.3 1.7 2.9 1.7 1 0 2.1-.3 2.8-.7l-.3 2.8c-.7.4-1.9.7-3.2.7-3 0-5.5-2.1-5.5-5.4 0-3.2 2.3-5.3 5.2-5.3 2.8 0 4.5 1.9 4.5 4 0 .2-.1.5-.1.7zm-4.4-2.3c-.9 0-1.7.7-1.9 1.6h3.4v-.2c0-.7-.6-1.4-1.5-1.4zM336.9 21.4h-2.6v3.7c0 .9.5 1.2 1.3 1.2.4 0 .6 0 .8-.1l-.3 2.4c-.3.2-.9.3-1.5.3-2.2 0-3.6-1.2-3.6-3.2v-4.3h-1.7v-2.6h1.7v-2.1l3.2-1.2v3.3h3.2l-.5 2.6zM340.4 17.4c-.6 0-1.7-1.2-1.7-1.7s1.2-1.7 1.7-1.7c.6 0 1.7 1.1 1.7 1.7s-1.2 1.7-1.7 1.7zm-1.7 11.3v-10h3.3v10h-3.3zM350.3 22.2c-.2-.1-.6-.2-1-.2-1 0-2 .5-2 2.1v4.6h-3.2v-10h3.2V21c.3-1.6 1.5-2.4 2.8-2.4.3 0 .7 0 .9.1l-.7 3.5zM361.1 23.2l-1.4 1.5h-4.9c.2.8 1.3 1.7 2.9 1.7 1 0 2.1-.3 2.8-.7l-.3 2.8c-.7.4-1.9.7-3.2.7-3 0-5.5-2.1-5.5-5.4 0-3.2 2.3-5.3 5.2-5.3 2.8 0 4.5 1.9 4.5 4 0 .2-.1.5-.1.7zm-4.4-2.3c-.9 0-1.7.7-1.9 1.6h3.4v-.2c0-.7-.6-1.4-1.5-1.4zM375 28.7v-6.1c0-.7-.4-1.4-1.4-1.4-1 0-1.5.6-1.5 1.4v6.1h-3.2v-6.1c0-.7-.4-1.4-1.4-1.4-1 0-1.5.6-1.5 1.4v6.1h-3.2v-10h3V20c.4-1.1 1.4-1.6 2.9-1.6 1.4 0 2.5.6 2.9 1.6.4-1 1.6-1.6 3.1-1.6 2.3 0 3.5 1.2 3.5 3.3v6.9H375zM389.5 23.2l-1.4 1.5h-4.9c.2.8 1.3 1.7 2.9 1.7 1 0 2.1-.3 2.8-.7l-.3 2.8c-.7.4-1.9.7-3.2.7-3 0-5.5-2.1-5.5-5.4 0-3.2 2.3-5.3 5.2-5.3 2.8 0 4.5 1.9 4.5 4-.1.2-.1.5-.1.7zm-4.4-2.3c-.9 0-1.7.7-1.9 1.6h3.4v-.2c-.1-.7-.7-1.4-1.5-1.4zM397.4 28.7v-6.1c0-.7-.5-1.4-1.5-1.4s-1.6.6-1.6 1.4v6.1h-3.2v-10h3V20c.4-1.1 1.4-1.6 3-1.6 2.2 0 3.5 1.2 3.5 3.3v6.9h-3.2zM409.3 21.4h-2.6v3.7c0 .9.5 1.2 1.3 1.2.4 0 .6 0 .8-.1l-.3 2.4c-.3.2-.9.3-1.5.3-2.2 0-3.6-1.2-3.6-3.2v-4.3h-1.7v-2.6h1.7v-2.1l3.2-1.2v3.3h3.2l-.5 2.6z"/><g><path d="M129.7 39.4c-.6 0-1.7-1.2-1.7-1.7 0-.6 1.2-1.7 1.7-1.7.6 0 1.7 1.1 1.7 1.7 0 .5-1.1 1.7-1.7 1.7zm-1.6 11.3v-10h3.3v10h-3.3zM139.7 50.7v-6.1c0-.7-.5-1.4-1.5-1.4s-1.6.6-1.6 1.4v6.1h-3.2v-10h3V42c.4-1.1 1.4-1.7 3-1.7 2.2 0 3.5 1.2 3.5 3.3v6.9h-3.2zM152.6 44c-.7-.4-1.3-.6-2.1-.6-1.4 0-2.5 1-2.5 2.5 0 1.4 1.1 2.5 2.6 2.5.8 0 1.5-.2 2.2-.6l-.3 2.8c-.7.3-1.5.5-2.4.5-2.8 0-5.4-2-5.4-5.2 0-3.3 2.6-5.2 5.3-5.2 1.3 0 2.4.3 3.3.7l-.7 2.6zM159.6 51c-3 0-5.4-2.1-5.4-5.3 0-3.2 2.4-5.3 5.4-5.3 3 0 5.4 2.1 5.4 5.3 0 3.2-2.4 5.3-5.4 5.3zm0-7.8c-1.2 0-2.2 1.1-2.2 2.5 0 1.5 1 2.5 2.2 2.5 1.2 0 2.2-1.1 2.2-2.5s-1.1-2.5-2.2-2.5zM178.9 50.7v-6.1c0-.7-.4-1.4-1.4-1.4-1 0-1.5.6-1.5 1.4v6.1h-3.2v-6.1c0-.7-.4-1.4-1.4-1.4-1 0-1.5.6-1.5 1.4v6.1h-3.2v-10h3V42c.4-1.1 1.4-1.7 2.9-1.7 1.4 0 2.5.6 2.9 1.6.4-1 1.6-1.6 3.1-1.6 2.3 0 3.5 1.2 3.5 3.3v6.9h-3.2zM193.3 45.2l-1.4 1.5H187c.2.8 1.3 1.7 2.9 1.7 1 0 2.1-.3 2.8-.7l-.3 2.8c-.7.4-1.9.7-3.2.7-3 0-5.5-2.1-5.5-5.4 0-3.2 2.3-5.3 5.2-5.3 2.8 0 4.5 1.9 4.5 4 0 .2 0 .5-.1.7zm-4.4-2.3c-.9 0-1.7.7-1.9 1.6h3.4v-.2c0-.7-.6-1.4-1.5-1.4zM207.5 44c-.7-.4-1.3-.6-2.1-.6-1.4 0-2.5 1-2.5 2.5 0 1.4 1.1 2.5 2.6 2.5.8 0 1.5-.2 2.2-.6l-.3 2.8c-.7.3-1.5.5-2.4.5-2.8 0-5.4-2-5.4-5.2 0-3.3 2.6-5.2 5.3-5.2 1.3 0 2.4.3 3.3.7l-.7 2.6zM216.6 51.2c-.6-.1-1.3-.6-1.5-1.3-.4.8-1.4 1.2-2.6 1.2-1.8 0-3.3-1.2-3.3-3.3 0-1.8 1.4-3.1 3.4-3.3l2-.2V44c0-.6-.5-1-1.6-1-1 0-2 .3-2.8.8l-.6-2.4c.8-.5 2.2-.9 3.5-.9 2.6 0 4.5 1.2 4.5 3.6v3.3c0 1.2.4 1.8 1.2 2.1l-2.2 1.7zm-2-4.8l-1.2.1c-.8.1-1.2.7-1.2 1.3 0 .5.4 1 1 1 .8 0 1.4-.6 1.4-1.5v-.9zM226.3 50.7v-6.1c0-.7-.5-1.4-1.5-1.4s-1.6.6-1.6 1.4v6.1H220v-10h3V42c.4-1.1 1.4-1.7 3-1.7 2.2 0 3.5 1.2 3.5 3.3v6.9h-3.2zM241.3 51c-2.1 0-3.8-.7-4.8-1.5V35.1h3.1v6.1c.4-.3 1.5-.7 2.5-.7 2.8 0 5 2 5 5.1.1 3-1.9 5.4-5.8 5.4zm.3-7.7c-.9 0-1.6.4-1.9.8v3.8c.3.2 1 .5 1.6.5 1.7 0 2.7-1.1 2.7-2.6 0-1.4-1-2.5-2.4-2.5zM257.9 45.2l-1.4 1.5h-4.9c.2.8 1.3 1.7 2.9 1.7 1 0 2.1-.3 2.8-.7l-.3 2.8c-.7.4-1.9.7-3.2.7-3 0-5.5-2.1-5.5-5.4 0-3.2 2.3-5.3 5.2-5.3 2.8 0 4.5 1.9 4.5 4 0 .2 0 .5-.1.7zm-4.4-2.3c-.9 0-1.7.7-1.9 1.6h3.4v-.2c0-.7-.6-1.4-1.5-1.4zM260.9 51c-.6 0-1.8-1.2-1.8-1.8 0-.6 1.2-1.8 1.8-1.8s1.8 1.2 1.8 1.8c0 .6-1.2 1.8-1.8 1.8z"/></g></svg>