<svg xmlns="http://www.w3.org/2000/svg" viewBox="0 0 728 90"><path d="M190 40c-4.6 0-9.2-3-9.2-8.7 0-5.7 4.7-8.7 9.1-8.7 2.3 0 4.3.6 5.4 1.4l-.8 3.3c-1-.7-2.6-1.2-4.2-1.2-3 0-5.5 2-5.5 5.3 0 3.1 2.4 5.1 5.4 5.1 1 0 1.7-.2 2.3-.5v-2.6h-2.9v-3.1h6.6v7.9c-1.4 1.2-3.5 1.8-6.2 1.8zM209.2 33l-1.7 1.7h-5.8c.2 1 1.5 2.1 3.5 2.1 1.2 0 2.5-.4 3.2-.9l-.4 3.3c-.9.5-2.2.8-3.7.8-3.6 0-6.5-2.5-6.5-6.3s2.8-6.2 6.1-6.2 5.3 2.3 5.3 4.7c.2.2.1.6 0 .8zm-5.1-2.7c-1.1 0-2.1.9-2.3 1.9h4v-.3c0-.8-.7-1.6-1.7-1.6zM218.9 30.9h-3.1v4.4c0 1 .5 1.4 1.6 1.4.4 0 .7 0 1-.2l-.3 2.9c-.4.2-1 .3-1.8.3-2.7 0-4.2-1.4-4.2-3.7v-5.1h-2v-3.1h2v-2.5l3.8-1.4v3.9h3.8l-.8 3.1zM231.6 45.6c-3.4 0-5.7-2-5.7-4.4 0-1.8 1.2-2.9 2.4-3.2l-1.5-1.5c.1-.8.8-1.4 1.4-1.7-.9-.5-1.7-1.7-1.7-3.1 0-2.5 1.8-4.2 4.9-4.2.7 0 1.2.1 1.7.2s1.1.2 1.7.2c.7 0 1.3-.2 1.8-.4l.7 2.9c-.4.2-.9.4-1.5.4.1.2.3.8.3 1.2 0 2-1.6 3.6-3.8 3.8-.5 0-.8.1-.8.4 0 .1.1.3.3.4l1.8.6c2.3.8 3.6 2 3.6 4.2 0 2.4-2.2 4.2-5.6 4.2zm.8-5.5l-1.4-.4c-.9 0-1.6.7-1.6 1.5s.7 1.5 2.1 1.5c1.4 0 2.1-.6 2.1-1.3 0-.6-.5-1.1-1.2-1.3zm-1.1-9.9c-.9 0-1.5.6-1.5 1.4 0 .8.6 1.4 1.5 1.4.8 0 1.5-.6 1.5-1.4.1-.7-.6-1.4-1.5-1.4zM246.2 39.6V38c-.5 1.2-1.7 2-3.6 2-2.6 0-4.1-1.4-4.1-3.9v-8.2h3.8V35c0 .9.6 1.6 1.8 1.6 1.1 0 1.8-.8 1.8-1.7v-7.2h3.8v11.8h-3.5zM260.2 40.1c-.7-.2-1.5-.7-1.8-1.6-.5 1-1.6 1.4-3.1 1.4-2.1 0-3.9-1.5-3.9-3.9 0-2.2 1.7-3.6 4-3.8l2.3-.2v-.4c0-.7-.6-1.2-1.8-1.2-1.1 0-2.4.4-3.3.9l-.7-2.9c1-.6 2.6-1 4.1-1 3.1 0 5.3 1.4 5.3 4.3v3.8c0 1.4.5 2.1 1.4 2.4l-2.5 2.2zm-2.5-5.7l-1.4.1c-1 .1-1.4.8-1.4 1.5 0 .6.5 1.1 1.2 1.1.9 0 1.7-.7 1.7-1.7v-1zM271.2 31.9c-.2-.1-.8-.3-1.1-.3-1.2 0-2.3.6-2.3 2.5v5.5H264V27.8h3.8v2.6c.4-1.8 1.8-2.8 3.4-2.8.4 0 .8.1 1.1.2l-1.1 4.1zM281.4 40.1c-.7-.2-1.5-.7-1.8-1.6-.5 1-1.6 1.4-3.1 1.4-2.1 0-3.9-1.5-3.9-3.9 0-2.2 1.7-3.6 4-3.8l2.4-.2v-.4c0-.7-.6-1.2-1.8-1.2-1.1 0-2.4.4-3.3.9l-.7-2.9c1-.6 2.6-1 4.1-1 3.1 0 5.3 1.4 5.3 4.3v3.8c0 1.4.5 2.1 1.4 2.4l-2.6 2.2zm-2.4-5.7l-1.4.1c-1 .1-1.4.8-1.4 1.5 0 .6.5 1.1 1.2 1.1.9 0 1.7-.7 1.7-1.7v-1zM292.6 39.6v-7.2c0-.9-.6-1.6-1.7-1.6s-1.9.7-1.9 1.7v7.2h-3.8V27.8h3.5v1.6c.5-1.2 1.7-2 3.6-2 2.6 0 4.1 1.5 4.1 4v8.2h-3.8zM306.2 30.9h-3.1v4.4c0 1 .5 1.4 1.6 1.4.4 0 .7 0 1-.2l-.3 2.9c-.4.2-1 .3-1.8.3-2.7 0-4.2-1.4-4.2-3.7v-5.1h-2v-3.1h2v-2.5l3.8-1.4v3.9h3.8l-.8 3.1zM318.5 33l-1.7 1.7H311c.2 1 1.5 2.1 3.5 2.1 1.2 0 2.5-.4 3.2-.9l-.4 3.3c-.9.5-2.2.8-3.7.8-3.6 0-6.5-2.5-6.5-6.3s2.8-6.2 6.1-6.2 5.3 2.3 5.3 4.7c.1.2.1.6 0 .8zm-5.1-2.7c-1.1 0-2.1.9-2.3 1.9h4v-.3c0-.8-.7-1.6-1.7-1.6zM331 33l-1.7 1.7h-5.8c.2 1 1.5 2.1 3.5 2.1 1.2 0 2.5-.4 3.2-.9l-.4 3.3c-.9.5-2.2.8-3.7.8-3.6 0-6.5-2.5-6.5-6.3s2.8-6.2 6.1-6.2 5.3 2.3 5.3 4.7c.1.2 0 .6 0 .8zm-5.2-2.7c-1.1 0-2.1.9-2.3 1.9h4v-.3c0-.8-.7-1.6-1.7-1.6zM341.4 39.6v-1.5c-.6 1.2-2 1.8-3.6 1.8-2.9 0-5.7-2.2-5.7-6.2 0-3.8 2.7-6.3 6-6.3 1.2 0 2.5.4 3 .8V21h3.7v18.5h-3.4zm-.3-7.7c-.4-.5-1.1-1.1-2.3-1.1-1.7 0-2.8 1.3-2.8 3s1.2 3 2.8 3c1.1 0 1.9-.6 2.3-1.2v-3.7zM367 39.6v-7.2c0-.9-.4-1.6-1.7-1.6-1.2 0-1.8.7-1.8 1.7v7.2h-3.8v-7.2c0-.9-.4-1.6-1.7-1.6-1.2 0-1.8.7-1.8 1.7v7.2h-3.8v-12h3.5v1.6c.5-1.2 1.6-2 3.5-2 1.7 0 3 .7 3.5 1.9.5-1.1 1.9-1.9 3.6-1.9 2.7 0 4.2 1.5 4.2 4v8.2H367zM378.9 40c-3.6 0-6.4-2.5-6.4-6.3s2.9-6.3 6.4-6.3c3.5 0 6.4 2.5 6.4 6.3s-2.8 6.3-6.4 6.3zm0-9.3c-1.4 0-2.7 1.2-2.7 3 0 1.7 1.2 3 2.7 3 1.4 0 2.7-1.2 2.7-3 0-1.7-1.3-3-2.7-3zM394.4 39.6v-7.2c0-.9-.6-1.6-1.7-1.6s-1.9.7-1.9 1.7v7.2H387V27.8h3.5v1.6c.5-1.2 1.7-2 3.6-2 2.6 0 4.1 1.5 4.1 4v8.2h-3.8zM408.1 30.9H405v4.4c0 1 .5 1.4 1.6 1.4.4 0 .7 0 1-.2l-.3 2.9c-.4.2-1 .3-1.8.3-2.7 0-4.2-1.4-4.2-3.7v-5.1h-2v-3.1h2v-2.5l3.8-1.4v3.9h3.8l-.8 3.1zM417.4 39.6v-7.2c0-.9-.6-1.6-1.8-1.6-1.1 0-1.8.7-1.8 1.7v7.2H410V21.1h3.8v7.8c.6-.9 1.7-1.5 3.3-1.5 2.6 0 4.1 1.5 4.1 4v8.2h-3.8zM427.4 40.1c-2.4-.1-4-1.4-4-4.2V21.1h3.8v14.3c0 1 .5 1.5 1.6 1.6l-1.4 3.1z"/><path d="M436.7 38.4c-1.8 4.7-3.7 6.4-5.9 7.3l-2.3-2.3c1.9-.7 3.4-2.1 4.3-4.6l-4.2-11h3.7l1.7 4.6c.3.7.5 1.5.7 2.3h.1c.2-.8.5-1.6.8-2.3l1.7-4.6h3.5l-4.1 10.6z"/><g><path d="M183.2 52.2c-.7 0-2.1-1.4-2.1-2.1 0-.7 1.4-2 2.1-2 .7 0 2.1 1.4 2.1 2 0 .7-1.4 2.1-2.1 2.1zm-1.9 13.4V53.8h3.8v11.8h-3.8zM194.8 65.6v-7.2c0-.9-.6-1.6-1.7-1.6s-1.9.7-1.9 1.7v7.2h-3.8V53.8h3.5v1.6c.5-1.2 1.7-2 3.6-2 2.6 0 4.1 1.5 4.1 4v8.2h-3.8zM209.7 57.6c-.8-.5-1.6-.8-2.5-.8-1.7 0-3 1.2-3 2.9s1.3 2.9 3.1 2.9c1 0 1.7-.2 2.6-.7l-.3 3.2c-.8.4-1.8.6-2.9.6-3.3 0-6.4-2.3-6.4-6.1s3.1-6.2 6.3-6.2c1.6 0 2.8.3 3.9.9l-.8 3.3zM217.7 66c-3.6 0-6.4-2.5-6.4-6.3s2.9-6.3 6.4-6.3c3.5 0 6.4 2.5 6.4 6.3s-2.9 6.3-6.4 6.3zm0-9.2c-1.4 0-2.7 1.2-2.7 3 0 1.7 1.2 3 2.7 3 1.4 0 2.7-1.2 2.7-3-.1-1.8-1.3-3-2.7-3zM240.2 65.6v-7.2c0-.9-.4-1.6-1.7-1.6-1.2 0-1.8.7-1.8 1.7v7.2H233v-7.2c0-.9-.4-1.6-1.7-1.6-1.2 0-1.8.7-1.8 1.7v7.2h-3.8v-12h3.5v1.6c.5-1.2 1.6-2 3.5-2 1.7 0 3 .7 3.5 1.9.5-1.1 1.9-1.9 3.6-1.9 2.7 0 4.2 1.5 4.2 4v8.2h-3.8zM257 59l-1.7 1.7h-5.8c.2 1 1.5 2.1 3.5 2.1 1.2 0 2.5-.4 3.2-.9l-.4 3.3c-.9.5-2.2.8-3.7.8-3.6 0-6.5-2.5-6.5-6.3s2.8-6.2 6.1-6.2 5.3 2.3 5.3 4.7c.1.2.1.6 0 .8zm-5.1-2.7c-1.1 0-2.1.9-2.3 1.9h4v-.3c0-.8-.7-1.6-1.7-1.6zM272.5 50.5c-.4-.2-1.1-.3-1.5-.3-1.4 0-2.1.8-2.1 2.5v1.1h3.4l-.8 3.1h-2.6v8.7h-3.7v-8.7h-1.8v-3.1h1.8v-1.4c0-3.6 2.3-5.4 5.3-5.4 1.1 0 2.2.1 2.8.4l-.8 3.1zM278.9 66c-3.6 0-6.4-2.5-6.4-6.3s2.9-6.3 6.4-6.3c3.5 0 6.4 2.5 6.4 6.3s-2.9 6.3-6.4 6.3zm0-9.2c-1.4 0-2.7 1.2-2.7 3 0 1.7 1.2 3 2.7 3 1.4 0 2.7-1.2 2.7-3s-1.3-3-2.7-3zM294.3 57.9c-.2-.1-.8-.3-1.1-.3-1.2 0-2.3.6-2.3 2.5v5.5H287V53.8h3.8v2.6c.4-1.8 1.8-2.8 3.4-2.8.4 0 .8.1 1.1.2l-1 4.1zM306 66.1c-2.4-.1-4-1.4-4-4.2V47.1h3.8v14.3c0 1 .5 1.5 1.6 1.6l-1.4 3.1zM310.5 52.2c-.7 0-2.1-1.4-2.1-2.1 0-.7 1.4-2 2.1-2 .7 0 2.1 1.4 2.1 2 0 .7-1.4 2.1-2.1 2.1zm-1.9 13.4V53.8h3.8v11.8h-3.8zM322.9 50.5c-.4-.2-1.1-.3-1.5-.3-1.4 0-2.1.8-2.1 2.5v1.1h3.4l-.8 3.1h-2.6v8.7h-3.7v-8.7h-1.8v-3.1h1.8v-1.4c0-3.6 2.3-5.4 5.3-5.4 1.1 0 2.2.1 2.8.4l-.8 3.1zM334.2 59l-1.7 1.7h-5.8c.2 1 1.5 2.1 3.5 2.1 1.2 0 2.5-.4 3.2-.9l-.4 3.3c-.9.5-2.2.8-3.7.8-3.6 0-6.5-2.5-6.5-6.3s2.8-6.2 6.1-6.2 5.3 2.3 5.3 4.7c.1.2 0 .6 0 .8zm-5.2-2.7c-1.1 0-2.1.9-2.3 1.9h4v-.3c0-.8-.7-1.6-1.7-1.6zM337.4 66c-.7 0-2.2-1.5-2.2-2.2 0-.7 1.5-2.1 2.2-2.1.7 0 2.2 1.5 2.2 2.1 0 .7-1.5 2.2-2.2 2.2z"/></g></svg>