<svg id="Layer_1" xmlns="http://www.w3.org/2000/svg" viewBox="0 0 728 90"><style>.st0{fill:#f9e038}</style><path class="st0" d="M543.5 11s-10.3 0-10.3 10.3v9s0 10.3 10.3 10.3h89.3s10.3 0 10.3-10.3v-9s0-10.3-10.3-10.3h-89.3z"/><path d="M547.3 24.3c0-.9-.3-1.7-1.3-1.7-1.3 0-1.4 1.7-1.4 2.7 0 1.1.1 2.5 1.5 2.5.9 0 1.3-.7 1.4-1.5l1.8.1c-.2 1.8-1.5 2.9-3.3 2.9-2.4 0-3.5-1.9-3.5-4.1 0-2.2 1.2-4.1 3.6-4.1 2 0 3 1.2 3.2 3.1l-2 .1zM557.1 29.1h-2l-.5-1.6H552l-.5 1.6h-1.6l2.6-8h2.2l2.4 8zm-2.9-3.1l-.9-2.8-.8 2.8h1.7zM563 27.6v1.6h-5.1v-8h1.9v6.4h3.2zM568.3 24.3c0-.9-.3-1.7-1.3-1.7-1.3 0-1.4 1.7-1.4 2.7 0 1.1.1 2.5 1.5 2.5.9 0 1.3-.7 1.4-1.5l1.8.1c-.2 1.8-1.5 2.9-3.3 2.9-2.4 0-3.5-1.9-3.5-4.1 0-2.2 1.2-4.1 3.6-4.1 2 0 3 1.2 3.2 3.1l-2 .1zM577.7 26c0 .9 0 1.8-.7 2.4-.6.6-1.6.8-2.5.8-.8 0-1.8-.1-2.4-.7-.8-.7-.8-1.6-.8-2.6v-4.8h2V26c0 .4 0 .9.2 1.2.2.4.7.5 1.2.5.4 0 .9-.1 1.2-.4.3-.4.2-.9.2-1.3v-4.8h1.6V26zM584.2 27.6v1.6h-5.1v-8h1.9v6.4h3.2zM591.6 29.1h-2l-.5-1.6h-2.6l-.5 1.6h-1.6l2.6-8h2.2l2.4 8zm-3-3.1l-.9-2.8-.8 2.8h1.7zM597 22.7h-2v6.4h-1.9v-6.4h-2v-1.6h5.9v1.6zM599.8 22.7v1.6h3v1.5h-3v1.8h3.8v1.5H598v-8h5.7v1.5h-3.9zM614.4 29.1h-1.6l-3.1-5.4v5.4h-1.4v-8h2l2.7 4.7v-4.7h1.4v8zM616.4 28c-.6-.8-.8-1.9-.8-2.9 0-2.1 1.1-4.1 3.4-4.1 1.1 0 1.9.3 2.5 1.2.6.8.9 1.9.9 2.9 0 .9-.2 2-.8 2.8-.6.9-1.6 1.4-2.6 1.4-1.1 0-2-.4-2.6-1.3zm1.4-4.5c-.2.5-.3 1.2-.3 1.7 0 1 .2 2.6 1.5 2.6.6 0 1-.3 1.2-.9.2-.5.2-1.2.2-1.7 0-.6-.1-1.3-.3-1.8-.2-.5-.6-.8-1.2-.8-.5 0-.9.3-1.1.9zM631 29.1h-1.8l-1.3-5.3-1.3 5.3h-1.8l-2.1-8h1.9l1.2 5.4 1.3-5.4h1.7l1.3 5.4.1-.3 1.2-5h1.5l-1.9 7.9z"/></svg>