<svg id="Layer_1" xmlns="http://www.w3.org/2000/svg" xmlns:xlink="http://www.w3.org/1999/xlink" viewBox="0 0 728 90"><style>.st0{fill:#005c97}.st1{clip-path:url(#SVGID_2_);fill:#fff}.st2{clip-path:url(#SVGID_4_);fill:url(#SVGID_5_)}.st3{clip-path:url(#SVGID_7_);fill:url(#SVGID_8_)}.st4{clip-path:url(#SVGID_10_);fill:url(#SVGID_11_)}</style><path class="st0" d="M587.2 56.5v3.6h-6.4v17.2h-4V60.1h-6.4v-3.6h16.8zm1.8 20.8h4V56.5h-4v20.8zm24.8 0h-4.1l-2.1-5.1h-7l-2.1 5.1h-4l8.9-21.1h1.8l8.6 21.1zm19.4 0h-4.1l-2.1-5.1h-7l-2.1 5.1h-4l8.9-21.1h1.8l8.6 21.1zm-27.1-8.5l-2.1-5.2-2.1 5.2h4.2zm19.5 0l-2.1-5.2-2.1 5.2h4.2z"/><defs><path id="SVGID_1_" d="M536.6 48h102v34.7h-102z"/></defs><clipPath id="SVGID_2_"><use xlink:href="#SVGID_1_" overflow="visible"/></clipPath><path class="st1" d="M555.9 78.7c1.8 0 3.4-.7 4.6-1.9l4.9-4.9a7.1 7.1 0 0 0 1.9-4.5V52H552c-1.8 0-3.4.7-4.6 1.9l-4.9 4.9a7.1 7.1 0 0 0-1.9 4.5v15.3h15.3z"/><defs><path id="SVGID_3_" d="M553.7 53.4c-2.8 0-5 2.2-5 5v1.7h10.5v10.5h1.7c2.8 0 5-2.3 5-5V53.4h-12.2z"/></defs><clipPath id="SVGID_4_"><use xlink:href="#SVGID_3_" overflow="visible"/></clipPath><linearGradient id="SVGID_5_" gradientUnits="userSpaceOnUse" x1="1" y1="91.084" x2="2" y2="91.084" gradientTransform="scale(16.9407 -16.9407) rotate(45 131.453 81.877)"><stop offset="0" stop-color="#9cdbf8"/><stop offset=".1" stop-color="#9cdbf8"/><stop offset=".9" stop-color="#009dda"/><stop offset="1" stop-color="#009dda"/></linearGradient><path class="st2" d="M540.1 62l17.2-17.2L574.5 62l-17.2 17.2z"/><g><defs><path id="SVGID_6_" d="M560.9 71.9h-13.5l-5.4 5.4h14c1.4 0 2.6-.5 3.6-1.5l4.5-4.5-.1-.1c-1 .5-2 .7-3.1.7"/></defs><clipPath id="SVGID_7_"><use xlink:href="#SVGID_6_" overflow="visible"/></clipPath><linearGradient id="SVGID_8_" gradientUnits="userSpaceOnUse" x1=".955" y1="91.045" x2="1.955" y2="91.045" gradientTransform="matrix(22.0851 0 0 -22.0851 520.894 2084.988)"><stop offset="0" stop-color="#18b0e6"/><stop offset=".162" stop-color="#16aae1"/><stop offset=".375" stop-color="#129ad2"/><stop offset=".617" stop-color="#0b7eb9"/><stop offset=".879" stop-color="#015897"/><stop offset=".9" stop-color="#005594"/><stop offset="1" stop-color="#005594"/></linearGradient><path class="st3" d="M542 71.2h22.1v6.2H542z"/></g><g><defs><path id="SVGID_9_" d="M543.5 59.8c-1 1-1.5 2.2-1.5 3.6v14l5.4-5.4V58.4c0-1.1.3-2.2.8-3.1l-.1-.1-4.6 4.6z"/></defs><clipPath id="SVGID_10_"><use xlink:href="#SVGID_9_" overflow="visible"/></clipPath><linearGradient id="SVGID_11_" gradientUnits="userSpaceOnUse" x1="1.045" y1="91.045" x2="2.045" y2="91.045" gradientTransform="matrix(0 -22.0854 -22.0854 0 2555.83 100.41)"><stop offset="0" stop-color="#0081bc"/><stop offset=".412" stop-color="#006eab"/><stop offset=".85" stop-color="#005594"/><stop offset="1" stop-color="#005594"/></linearGradient><path class="st4" d="M542 55.2h6.2v22.1H542z"/></g></svg>