<svg id="Layer_1" xmlns="http://www.w3.org/2000/svg" viewBox="0 0 300 250"><style>.st0{fill:none;stroke:#fff;stroke-width:2.02}.st1{fill:#fff}</style><path class="st0" d="M242.5 170.3c9.6 0 17.3-7.8 17.3-17.3 0-9.6-7.8-17.3-17.3-17.3-9.6 0-17.3 7.8-17.3 17.3 0 9.6 7.7 17.3 17.3 17.3z"/><path class="st1" d="M250.4 151.9h-6.3v-6.3c0-.9-.7-1.6-1.6-1.6-.9 0-1.6.7-1.6 1.6v6.3h-6.3c-.9 0-1.6.7-1.6 1.6 0 .9.7 1.6 1.6 1.6h6.3v6.3c0 .9.7 1.6 1.6 1.6.9 0 1.6-.7 1.6-1.6V155h6.3c.9 0 1.6-.7 1.6-1.6-.1-.8-.8-1.5-1.6-1.5"/></svg>