<svg id="Layer_1" xmlns="http://www.w3.org/2000/svg" viewBox="0 0 300 250"><style>.st0{fill:#fff}</style><path class="st0" d="M10.8 241.7v-4.5l-.9.1.1-.6 1.5-.1v5.2h-.7zM14.3 241.8c-.9 0-1.7-.8-1.7-2.7 0-1.8.8-2.6 1.7-2.6.9 0 1.7.9 1.7 2.6.1 1.9-.8 2.7-1.7 2.7zm0-4.6c-.5 0-1 .6-1 2 0 1.5.5 2 1 2s1-.6 1-2c0-1.5-.5-2-1-2zM18.7 241.8c-.9 0-1.7-.8-1.7-2.7 0-1.8.8-2.6 1.7-2.6.9 0 1.7.9 1.7 2.6 0 1.9-.8 2.7-1.7 2.7zm0-4.6c-.5 0-1 .6-1 2 0 1.5.5 2 1 2s1-.6 1-2c0-1.5-.5-2-1-2zM21.8 241.7v-4.5l-.9.1.1-.6 1.5-.1v5.2h-.7zM25.2 241.8c-.9 0-1.7-.6-1.7-1.5 0-.8.6-1.2 1-1.4-.4-.2-.8-.5-.8-1.1 0-.8.6-1.3 1.5-1.3s1.5.5 1.5 1.3c0 .6-.4 1-.8 1.1.4.1 1 .6 1 1.4 0 1-.8 1.5-1.7 1.5zm-.1-2.5c-.4.1-1 .5-1 1s.5.9 1 .9 1-.4 1-.9c.1-.5-.5-.9-1-1zm.1-2.2c-.4 0-.8.3-.8.7 0 .4.3.7.8.8.5-.1.8-.5.8-.8 0-.4-.3-.7-.8-.7zM28.3 241.7v-4.5l-.9.1.1-.6 1.5-.1v5.2h-.7zM30.9 241.7h-.8l1.9-4.5h-2.3v-.6h3.4l-2.2 5.1z"/></svg>