<svg id="Layer_1" xmlns="http://www.w3.org/2000/svg" viewBox="0 0 300 250"><style>.st0{fill:#f9e039}</style><path class="st0" d="M81.9 79.8v2.9h4.2v3h-4.2v5.9h-3.5V76.9h8.5v2.9h-5zM89.9 79.7c-.6 0-1.8-1.2-1.8-1.8 0-.6 1.2-1.8 1.8-1.8.6 0 1.8 1.2 1.8 1.8 0 .6-1.2 1.8-1.8 1.8zm-1.7 11.9V81.2h3.4v10.4h-3.4zM98.2 96.9c-3 0-5.1-1.7-5.1-3.9 0-1.6 1.1-2.5 2.1-2.8L94 88.8c.1-.7.7-1.2 1.3-1.5-.8-.5-1.5-1.5-1.5-2.8 0-2.2 1.6-3.7 4.3-3.7.6 0 1.1.1 1.5.2.5.1 1 .2 1.5.2.6 0 1.2-.1 1.6-.3l.6 2.6c-.3.2-.8.3-1.3.3.1.2.3.7.3 1.1 0 1.7-1.4 3.2-3.4 3.4-.4 0-.7.1-.7.4 0 .1.1.3.3.3l1.6.6c2 .7 3.1 1.8 3.1 3.7 0 2-1.9 3.6-5 3.6zm.7-4.9l-1.2-.3c-.8 0-1.4.6-1.4 1.4 0 .7.6 1.3 1.8 1.3 1.2 0 1.8-.6 1.8-1.1.1-.6-.3-1.1-1-1.3zm-.9-8.7c-.8 0-1.3.6-1.3 1.2 0 .7.6 1.2 1.3 1.2.7 0 1.3-.6 1.3-1.2.1-.7-.5-1.2-1.3-1.2zM111.4 91.6v-1.4c-.4 1.1-1.5 1.7-3.2 1.7-2.3 0-3.7-1.3-3.7-3.5v-7.2h3.4v6.4c0 .8.5 1.4 1.6 1.4 1 0 1.6-.7 1.6-1.5v-6.3h3.4v10.4h-3.1zM123.1 84.7c-.2-.1-.7-.3-1-.3-1.1 0-2.1.6-2.1 2.2v4.9h-3.4V81.2h3.3v2.3c.3-1.6 1.6-2.5 3-2.5.3 0 .7 0 1 .1l-.8 3.6zM134.4 85.8l-1.5 1.5h-5.1c.2.9 1.3 1.8 3.1 1.8 1.1 0 2.2-.3 2.9-.8l-.3 2.9c-.8.4-2 .7-3.3.7-3.2 0-5.7-2.2-5.7-5.6 0-3.4 2.4-5.5 5.4-5.5 2.9 0 4.7 2 4.7 4.2-.1.2-.1.6-.2.8zm-4.5-2.5c-1 0-1.8.8-2 1.7h3.5v-.2c0-.7-.7-1.5-1.5-1.5zM146.6 91.9c-3.2 0-5.7-2.2-5.7-5.5s2.5-5.5 5.7-5.5c3.1 0 5.7 2.2 5.7 5.5s-2.6 5.5-5.7 5.5zm0-8.1c-1.3 0-2.3 1.1-2.3 2.6s1.1 2.6 2.3 2.6c1.2 0 2.3-1.1 2.3-2.6s-1.1-2.6-2.3-2.6zM160.8 91.6v-1.4c-.4 1.1-1.5 1.7-3.2 1.7-2.3 0-3.7-1.3-3.7-3.5v-7.2h3.4v6.4c0 .8.5 1.4 1.6 1.4 1 0 1.6-.7 1.6-1.5v-6.3h3.4v10.4h-3.1zM173 83.9h-2.7v3.9c0 .9.5 1.3 1.4 1.3.4 0 .6 0 .9-.1l-.3 2.6c-.3.2-.9.3-1.6.3-2.3 0-3.7-1.2-3.7-3.3v-4.5h-1.7v-2.8h1.7v-2.2l3.4-1.2v3.4h3.4l-.8 2.6zM186.4 90.5c-1.6 4.2-3.2 5.7-5.2 6.5l-2.1-2.1c1.7-.6 3-1.9 3.8-4.1l-3.7-9.7h3.3l1.5 4c.2.6.5 1.3.6 2 .2-.7.4-1.4.7-2l1.5-4h3.1l-3.5 9.4zM195.9 91.9c-3.2 0-5.7-2.2-5.7-5.5s2.5-5.5 5.7-5.5c3.1 0 5.7 2.2 5.7 5.5s-2.5 5.5-5.7 5.5zm0-8.1c-1.3 0-2.3 1.1-2.3 2.6s1.1 2.6 2.3 2.6c1.2 0 2.3-1.1 2.3-2.6s-1-2.6-2.3-2.6zM210.1 91.6v-1.4c-.4 1.1-1.5 1.7-3.2 1.7-2.3 0-3.7-1.3-3.7-3.5v-7.2h3.4v6.4c0 .8.5 1.4 1.6 1.4 1 0 1.6-.7 1.6-1.5v-6.3h3.4v10.4h-3.1zM221.8 84.7c-.2-.1-.7-.3-1-.3-1.1 0-2.1.6-2.1 2.2v4.9h-3.4V81.2h3.3v2.3c.3-1.6 1.6-2.5 3-2.5.3 0 .7 0 1 .1l-.8 3.6z"/><g><path class="st0" d="M23.4 120.9c-3 0-5.1-1.7-5.1-3.9 0-1.6 1.1-2.5 2.1-2.8l-1.3-1.3c.1-.7.7-1.2 1.3-1.5-.8-.5-1.5-1.5-1.5-2.8 0-2.2 1.6-3.7 4.3-3.7.6 0 1.1.1 1.5.2.5.1 1 .2 1.5.2.6 0 1.2-.1 1.6-.3l.6 2.6c-.3.2-.8.3-1.3.3.1.2.3.7.3 1.1 0 1.7-1.4 3.2-3.4 3.4-.4 0-.7.1-.7.4 0 .1.1.3.3.3l1.6.6c2 .7 3.1 1.8 3.1 3.7.1 1.9-1.9 3.5-4.9 3.5zm.7-4.9l-1.2-.3c-.8 0-1.4.6-1.4 1.4 0 .7.6 1.3 1.8 1.3 1.2 0 1.8-.6 1.8-1.1 0-.6-.3-1.1-1-1.3zm-.9-8.7c-.8 0-1.3.6-1.3 1.2 0 .7.6 1.2 1.3 1.2.7 0 1.3-.6 1.3-1.2 0-.7-.5-1.2-1.3-1.2zM36.6 115.6v-1.4c-.4 1.1-1.5 1.7-3.2 1.7-2.3 0-3.7-1.3-3.7-3.5v-7.2h3.4v6.4c0 .8.5 1.4 1.6 1.4 1 0 1.6-.7 1.6-1.5v-6.3h3.4v10.4h-3.1zM49.2 116c-.6-.1-1.3-.6-1.6-1.4-.5.9-1.4 1.3-2.7 1.3-1.8 0-3.5-1.3-3.5-3.4 0-1.9 1.5-3.2 3.6-3.4l2.1-.2v-.3c0-.6-.5-1-1.6-1-1 0-2.1.3-2.9.8l-.6-2.6c.9-.6 2.3-.9 3.7-.9 2.8 0 4.7 1.3 4.7 3.8v3.4c0 1.2.5 1.9 1.3 2.2l-2.5 1.7zm-2.2-5l-1.3.1c-.9.1-1.3.7-1.3 1.3 0 .6.4 1 1.1 1 .8 0 1.5-.6 1.5-1.5v-.9zM59.1 108.7c-.2-.1-.7-.3-1-.3-1.1 0-2.1.6-2.1 2.2v4.9h-3.4v-10.4H56v2.3c.3-1.6 1.6-2.5 3-2.5.3 0 .7 0 1 .1l-.9 3.7zM68.4 116c-.6-.1-1.3-.6-1.6-1.4-.5.9-1.4 1.3-2.7 1.3-1.8 0-3.5-1.3-3.5-3.4 0-1.9 1.5-3.2 3.6-3.4l2.1-.2v-.3c0-.6-.5-1-1.6-1-1 0-2.1.3-2.9.8l-.6-2.6c.9-.6 2.3-.9 3.7-.9 2.8 0 4.7 1.3 4.7 3.8v3.4c0 1.2.5 1.9 1.3 2.2l-2.5 1.7zm-2.2-5l-1.3.1c-.9.1-1.3.7-1.3 1.3 0 .6.4 1 1.1 1 .8 0 1.5-.6 1.5-1.5v-.9zM78.5 115.6v-6.4c0-.8-.5-1.4-1.5-1.4s-1.7.6-1.7 1.5v6.3h-3.4v-10.4H75v1.4c.4-1.1 1.5-1.7 3.2-1.7 2.3 0 3.7 1.3 3.7 3.5v7.2h-3.4zM90.8 107.9h-2.7v3.9c0 .9.5 1.3 1.4 1.3.4 0 .6 0 .9-.1l-.3 2.6c-.3.2-.9.3-1.6.3-2.3 0-3.7-1.2-3.7-3.3v-4.5H83v-2.8h1.7v-2.2l3.4-1.2v3.4h3.4l-.7 2.6zM102 109.8l-1.5 1.5h-5.1c.2.9 1.3 1.8 3.1 1.8 1.1 0 2.2-.3 2.9-.8l-.3 2.9c-.8.4-2 .7-3.3.7-3.2 0-5.7-2.2-5.7-5.6 0-3.4 2.4-5.5 5.4-5.5 2.9 0 4.7 2 4.7 4.2-.1.2-.2.6-.2.8zm-4.6-2.5c-1 0-1.8.8-2 1.7h3.5v-.2c0-.7-.6-1.5-1.5-1.5zM113.2 109.8l-1.5 1.5h-5.1c.2.9 1.3 1.8 3.1 1.8 1.1 0 2.2-.3 2.9-.8l-.3 2.9c-.8.4-2 .7-3.3.7-3.2 0-5.7-2.2-5.7-5.6 0-3.4 2.4-5.5 5.4-5.5 2.9 0 4.7 2 4.7 4.2-.1.2-.1.6-.2.8zm-4.6-2.5c-1 0-1.8.8-2 1.7h3.5v-.2c.1-.7-.6-1.5-1.5-1.5zM122.7 115.6v-1.3c-.6 1.1-1.8 1.6-3.2 1.6-2.6 0-5-1.9-5-5.5 0-3.4 2.4-5.5 5.3-5.5 1.1 0 2.2.4 2.6.7v-6.3h3.3v16.4h-3zm-.3-6.9c-.3-.4-1-.9-2-.9-1.5 0-2.5 1.1-2.5 2.6s1 2.6 2.5 2.6c1 0 1.7-.5 2-1.1v-3.2zM136.7 116c-2.1-.1-3.6-1.2-3.6-3.7V99.2h3.3v12.7c0 .9.5 1.3 1.4 1.4l-1.1 2.7zM140.9 103.7c-.6 0-1.8-1.2-1.8-1.8 0-.6 1.2-1.8 1.8-1.8.6 0 1.8 1.2 1.8 1.8 0 .6-1.2 1.8-1.8 1.8zm-1.7 11.9v-10.4h3.4v10.4h-3.4zM152.1 102.2c-.4-.2-.9-.3-1.4-.3-1.2 0-1.9.7-1.9 2.2v1h3l-.7 2.8h-2.3v7.7h-3.3v-7.7H144v-2.8h1.6v-1.2c0-3.2 2-4.7 4.7-4.7 1 0 1.9.1 2.5.3l-.7 2.7zM162.3 109.8l-1.5 1.5h-5.1c.2.9 1.3 1.8 3.1 1.8 1.1 0 2.2-.3 2.9-.8l-.3 2.9c-.8.4-2 .7-3.3.7-3.2 0-5.7-2.2-5.7-5.6 0-3.4 2.4-5.5 5.4-5.5 2.9 0 4.7 2 4.7 4.2-.1.2-.2.6-.2.8zm-4.6-2.5c-1 0-1.8.8-2 1.7h3.5v-.2c0-.7-.6-1.5-1.5-1.5zM171.1 107.9h-2.7v3.9c0 .9.5 1.3 1.4 1.3.4 0 .6 0 .9-.1l-.3 2.6c-.3.2-.9.3-1.6.3-2.3 0-3.7-1.2-3.7-3.3v-4.5h-1.7v-2.8h1.7v-2.2l3.4-1.2v3.4h3.4l-.8 2.6zM174.7 103.7c-.6 0-1.8-1.2-1.8-1.8 0-.6 1.2-1.8 1.8-1.8s1.8 1.2 1.8 1.8c0 .6-1.2 1.8-1.8 1.8zm-1.7 11.9v-10.4h3.4v10.4H173zM191.4 115.6v-6.4c0-.8-.4-1.4-1.5-1.4s-1.6.6-1.6 1.5v6.3H185v-6.4c0-.8-.4-1.4-1.5-1.4s-1.6.6-1.6 1.5v6.3h-3.4v-10.4h3.1v1.4c.4-1.1 1.4-1.7 3.1-1.7 1.5 0 2.6.6 3.1 1.7.4-1 1.7-1.7 3.2-1.7 2.4 0 3.7 1.3 3.7 3.5v7.2h-3.3zM206.5 109.8l-1.5 1.5h-5.1c.2.9 1.3 1.8 3.1 1.8 1.1 0 2.2-.3 2.9-.8l-.3 2.9c-.8.4-2 .7-3.3.7-3.2 0-5.7-2.2-5.7-5.6 0-3.4 2.4-5.5 5.4-5.5 2.9 0 4.7 2 4.7 4.2-.1.2-.1.6-.2.8zm-4.6-2.5c-1 0-1.8.8-2 1.7h3.5v-.2c0-.7-.6-1.5-1.5-1.5zM215.2 103.7c-.6 0-1.8-1.2-1.8-1.8 0-.6 1.2-1.8 1.8-1.8s1.8 1.2 1.8 1.8c0 .6-1.2 1.8-1.8 1.8zm-1.7 11.9v-10.4h3.4v10.4h-3.4zM225.7 115.6v-6.4c0-.8-.5-1.4-1.5-1.4s-1.7.6-1.7 1.5v6.3h-3.4v-10.4h3.1v1.4c.4-1.1 1.5-1.7 3.2-1.7 2.3 0 3.7 1.3 3.7 3.5v7.2h-3.4zM239.1 108.5c-.7-.4-1.4-.7-2.2-.7-1.5 0-2.6 1.1-2.6 2.6s1.2 2.6 2.7 2.6c.9 0 1.5-.2 2.3-.6l-.3 2.9c-.7.3-1.6.5-2.6.5-2.9 0-5.6-2.1-5.6-5.4 0-3.4 2.7-5.4 5.6-5.4 1.4 0 2.5.3 3.4.8l-.7 2.7zM246.4 115.9c-3.2 0-5.7-2.2-5.7-5.5s2.5-5.5 5.7-5.5c3.1 0 5.7 2.2 5.7 5.5 0 3.2-2.6 5.5-5.7 5.5zm0-8.2c-1.3 0-2.3 1.1-2.3 2.6s1.1 2.6 2.3 2.6c1.2 0 2.3-1.1 2.3-2.6s-1.1-2.6-2.3-2.6zM266.6 115.6v-6.4c0-.8-.4-1.4-1.5-1.4s-1.6.6-1.6 1.5v6.3h-3.4v-6.4c0-.8-.4-1.4-1.5-1.4s-1.6.6-1.6 1.5v6.3h-3.4v-10.4h3.1v1.4c.4-1.1 1.4-1.7 3.1-1.7 1.5 0 2.6.6 3.1 1.7.4-1 1.7-1.7 3.2-1.7 2.4 0 3.7 1.3 3.7 3.5v7.2h-3.2zM281.6 109.8l-1.5 1.5H275c.2.9 1.3 1.8 3.1 1.8 1.1 0 2.2-.3 2.9-.8l-.3 2.9c-.8.4-2 .7-3.3.7-3.2 0-5.7-2.2-5.7-5.6 0-3.4 2.4-5.5 5.4-5.5 2.9 0 4.7 2 4.7 4.2-.1.2-.1.6-.2.8zm-4.5-2.5c-1 0-1.8.8-2 1.7h3.5v-.2c0-.7-.6-1.5-1.5-1.5z"/></g></svg>