<svg id="Layer_1" xmlns="http://www.w3.org/2000/svg" viewBox="0 0 300 250"><style>.st0{fill:#f9e039}</style><path class="st0" d="M66.5 91.1h-2.3L62 84.6c-.3-1-.6-2-1-3.3-.3 1.3-.6 2.3-1 3.3l-2.1 6.5h-2.2l-4.9-14.8h3.5l1.9 5.9c.3.9.6 1.8.8 2.9.2-1.1.5-2 .8-2.9l1.9-5.9h3.1l1.9 5.9c.3.8.6 1.9.8 3 .2-1.1.5-2.1.8-2.9l2-5.9h3.1l-4.9 14.7zM79.2 91v-6.4c0-.8-.5-1.4-1.6-1.4-1 0-1.6.6-1.6 1.5V91h-3.4V74.6H76v6.9c.5-.8 1.5-1.3 2.9-1.3 2.3 0 3.7 1.3 3.7 3.5V91h-3.4zM92.1 91.5c-.6-.1-1.3-.6-1.6-1.4-.5.9-1.4 1.3-2.7 1.3-1.8 0-3.5-1.3-3.5-3.4 0-1.9 1.5-3.2 3.6-3.4l2.1-.2V84c0-.6-.5-1-1.6-1-1 0-2.1.3-2.9.8l-.6-2.6c.9-.6 2.3-.9 3.7-.9 2.8 0 4.7 1.3 4.7 3.8v3.4c0 1.2.5 1.9 1.3 2.2l-2.5 1.8zm-2.2-5l-1.3.1c-.9.1-1.3.7-1.3 1.3 0 .6.4 1 1.1 1 .8 0 1.5-.6 1.5-1.5v-.9zM102.3 83.4h-2.7v3.9c0 .9.5 1.3 1.4 1.3.4 0 .6 0 .9-.1l-.3 2.6c-.3.2-.9.3-1.6.3-2.3 0-3.7-1.2-3.7-3.3v-4.5h-1.7v-2.8h1.7v-2.2l3.4-1.2v3.4h3.4l-.8 2.6zM116.7 91.5c-.6-.1-1.3-.6-1.6-1.4-.5.9-1.4 1.3-2.7 1.3-1.8 0-3.5-1.3-3.5-3.4 0-1.9 1.5-3.2 3.6-3.4l2.1-.2V84c0-.6-.5-1-1.6-1-1 0-2.1.3-2.9.8l-.6-2.6c.9-.6 2.3-.9 3.7-.9 2.8 0 4.7 1.3 4.7 3.8v3.4c0 1.2.5 1.9 1.3 2.2l-2.5 1.8zm-2.2-5l-1.3.1c-.9.1-1.3.7-1.3 1.3 0 .6.4 1 1.1 1 .8 0 1.5-.6 1.5-1.5v-.9zM124.5 96.3c-3 0-5.1-1.7-5.1-3.9 0-1.6 1.1-2.5 2.1-2.8l-1.3-1.3c.1-.7.7-1.2 1.3-1.5-.8-.5-1.5-1.5-1.5-2.8 0-2.2 1.6-3.7 4.3-3.7.6 0 1.1.1 1.5.2.5.1 1 .2 1.5.2.6 0 1.2-.1 1.6-.3l.6 2.6c-.3.2-.8.3-1.3.3.1.2.3.7.3 1.1 0 1.7-1.4 3.2-3.4 3.4-.4 0-.7.1-.7.4 0 .1.1.3.3.3l1.6.6c2 .7 3.1 1.8 3.1 3.7.1 1.9-1.9 3.5-4.9 3.5zm.7-4.9l-1.2-.3c-.8 0-1.4.6-1.4 1.4 0 .7.6 1.3 1.8 1.3 1.2 0 1.8-.6 1.8-1.1 0-.6-.3-1.1-1-1.3zm-.9-8.7c-.8 0-1.3.6-1.3 1.2 0 .7.6 1.2 1.3 1.2.7 0 1.3-.6 1.3-1.2s-.5-1.2-1.3-1.2zM140.3 85.2l-1.5 1.5h-5.1c.2.9 1.3 1.8 3.1 1.8 1.1 0 2.2-.3 2.9-.8l-.3 2.9c-.8.4-2 .7-3.3.7-3.2 0-5.7-2.2-5.7-5.6 0-3.4 2.4-5.5 5.4-5.5 2.9 0 4.7 2 4.7 4.2-.1.3-.1.6-.2.8zm-4.5-2.4c-1 0-1.8.8-2 1.7h3.5v-.2c0-.8-.7-1.5-1.5-1.5zM158.7 91.1h-2.3L155 87c-.2-.6-.4-1.4-.6-2.2-.2.8-.4 1.5-.6 2.1l-1.4 4.2h-2.2l-3.6-10.5h3.1l1.3 4c.2.6.4 1.3.5 2 .1-.6.3-1.4.5-2l1.3-4h2.6l1.3 3.9c.2.6.3 1.4.5 2 .1-.7.3-1.4.5-2l1.3-3.9h2.9l-3.7 10.5zM165.3 79.2c-.6 0-1.8-1.2-1.8-1.8 0-.6 1.2-1.8 1.8-1.8s1.8 1.2 1.8 1.8c0 .6-1.2 1.8-1.8 1.8zM163.6 91V80.6h3.4V91h-3.4zM172.8 91.4c-2.1-.1-3.6-1.2-3.6-3.7V74.6h3.3v12.7c0 .9.5 1.3 1.4 1.4l-1.1 2.7zM178.9 91.4c-2.1-.1-3.6-1.2-3.6-3.7V74.6h3.3v12.7c0 .9.5 1.3 1.4 1.4l-1.1 2.7zM193 90c-1.6 4.2-3.2 5.7-5.2 6.5l-2.1-2.1c1.7-.6 3-1.9 3.8-4.1l-3.7-9.7h3.3l1.5 4c.2.6.5 1.3.6 2 .2-.7.4-1.4.7-2l1.5-4h3.1L193 90zM202.5 91.3c-3.2 0-5.7-2.2-5.7-5.5s2.5-5.5 5.7-5.5c3.1 0 5.7 2.2 5.7 5.5s-2.6 5.5-5.7 5.5zm0-8.1c-1.3 0-2.3 1.1-2.3 2.6s1.1 2.6 2.3 2.6c1.2 0 2.3-1.1 2.3-2.6s-1-2.6-2.3-2.6zM216.7 91v-1.4c-.4 1.1-1.5 1.7-3.2 1.7-2.3 0-3.7-1.3-3.7-3.5v-7.2h3.4V87c0 .8.5 1.4 1.6 1.4 1 0 1.6-.7 1.6-1.5v-6.3h3.4V91h-3.1zM232.1 91.3c-2.2 0-4-.8-5-1.5V74.6h3.3V81c.4-.3 1.5-.7 2.6-.7 2.9 0 5.2 2 5.2 5.3 0 3.2-2 5.7-6.1 5.7zm.3-8.1c-1 0-1.7.5-2 .8v4c.3.3 1.1.5 1.7.5 1.7 0 2.8-1.2 2.8-2.7 0-1.4-1-2.6-2.5-2.6zM249.5 85.2l-1.5 1.5h-5.1c.2.9 1.3 1.8 3.1 1.8 1.1 0 2.2-.3 2.9-.8l-.3 2.9c-.8.4-2 .7-3.3.7-3.2 0-5.7-2.2-5.7-5.6 0-3.4 2.4-5.5 5.4-5.5 2.9 0 4.7 2 4.7 4.2-.1.3-.2.6-.2.8zm-4.6-2.4c-1 0-1.8.8-2 1.7h3.5v-.2c0-.8-.6-1.5-1.5-1.5z"/><g><path class="st0" d="M84.1 108.2c-.2-.1-.7-.3-1-.3-1.1 0-2.1.6-2.1 2.2v4.9h-3.4v-10.4h3.3v2.3c.3-1.6 1.6-2.5 3-2.5.3 0 .7 0 1 .1l-.8 3.7zM95.3 109.2l-1.5 1.5h-5.1c.2.9 1.3 1.8 3.1 1.8 1.1 0 2.2-.3 2.9-.8l-.3 2.9c-.8.4-2 .7-3.3.7-3.2 0-5.7-2.2-5.7-5.6 0-3.4 2.4-5.5 5.4-5.5 2.9 0 4.7 2 4.7 4.2-.1.3-.1.6-.2.8zm-4.5-2.4c-1 0-1.8.8-2 1.7h3.5v-.2c0-.8-.6-1.5-1.5-1.5zM104.3 115.5c-.6-.1-1.3-.6-1.6-1.4-.5.9-1.4 1.3-2.7 1.3-1.8 0-3.5-1.3-3.5-3.4 0-1.9 1.5-3.2 3.6-3.4l2.1-.2v-.3c0-.6-.5-1-1.6-1-1 0-2.1.3-2.9.8l-.6-2.6c.9-.6 2.3-.9 3.7-.9 2.8 0 4.7 1.3 4.7 3.8v3.4c0 1.2.5 1.9 1.3 2.2l-2.5 1.7zm-2.1-5l-1.3.1c-.9.1-1.3.7-1.3 1.3 0 .6.4 1 1.1 1 .8 0 1.5-.6 1.5-1.5v-.9zM115.5 115v-1.3c-.6 1.1-1.8 1.6-3.2 1.6-2.6 0-5-1.9-5-5.5 0-3.4 2.4-5.5 5.3-5.5 1.1 0 2.2.4 2.6.7v-6.3h3.3V115h-3zm-.3-6.8c-.3-.4-1-.9-2-.9-1.5 0-2.5 1.1-2.5 2.6s1 2.6 2.5 2.6c1 0 1.7-.5 2-1.1v-3.2zM126.9 114c-1.6 4.2-3.2 5.7-5.2 6.5l-2.1-2.1c1.7-.6 3-1.9 3.8-4.1l-3.7-9.7h3.3l1.5 4c.2.6.5 1.3.6 2 .2-.7.4-1.4.7-2l1.5-4h3.1l-3.5 9.4zM143.9 107.3h-2.7v3.9c0 .9.5 1.3 1.4 1.3.4 0 .6 0 .9-.1l-.3 2.6c-.3.2-.9.3-1.6.3-2.3 0-3.7-1.2-3.7-3.3v-4.5h-1.7v-2.8h1.7v-2.2l3.4-1.2v3.4h3.4l-.8 2.6zM150.7 115.3c-3.2 0-5.7-2.2-5.7-5.5s2.5-5.5 5.7-5.5c3.1 0 5.7 2.2 5.7 5.5s-2.6 5.5-5.7 5.5zm0-8.1c-1.3 0-2.3 1.1-2.3 2.6s1.1 2.6 2.3 2.6c1.2 0 2.3-1.1 2.3-2.6s-1.1-2.6-2.3-2.6zM169.7 108.2c-.2-.1-.7-.3-1-.3-1.1 0-2.1.6-2.1 2.2v4.9h-3.4v-10.4h3.3v2.3c.3-1.6 1.6-2.5 3-2.5.3 0 .7 0 1 .1l-.8 3.7zM180.9 109.2l-1.5 1.5h-5.1c.2.9 1.3 1.8 3.1 1.8 1.1 0 2.2-.3 2.9-.8l-.3 2.9c-.8.4-2 .7-3.3.7-3.2 0-5.7-2.2-5.7-5.6 0-3.4 2.4-5.5 5.4-5.5 2.9 0 4.7 2 4.7 4.2-.1.3-.1.6-.2.8zm-4.6-2.4c-1 0-1.8.8-2 1.7h3.5v-.2c.1-.8-.6-1.5-1.5-1.5zM189.7 107.3H187v3.9c0 .9.5 1.3 1.4 1.3.4 0 .6 0 .9-.1l-.3 2.6c-.3.2-.9.3-1.6.3-2.3 0-3.7-1.2-3.7-3.3v-4.5H182v-2.8h1.7v-2.2l3.4-1.2v3.4h3.4l-.8 2.6zM193.3 103.2c-.6 0-1.8-1.2-1.8-1.8 0-.6 1.2-1.8 1.8-1.8s1.8 1.2 1.8 1.8c0 .5-1.2 1.8-1.8 1.8zm-1.7 11.8v-10.4h3.4V115h-3.4zM203.7 108.2c-.2-.1-.7-.3-1-.3-1.1 0-2.1.6-2.1 2.2v4.9h-3.4v-10.4h3.3v2.3c.3-1.6 1.6-2.5 3-2.5.3 0 .7 0 1 .1l-.8 3.7zM215 109.2l-1.5 1.5h-5.1c.2.9 1.3 1.8 3.1 1.8 1.1 0 2.2-.3 2.9-.8l-.3 2.9c-.8.4-2 .7-3.3.7-3.2 0-5.7-2.2-5.7-5.6 0-3.4 2.4-5.5 5.4-5.5 2.9 0 4.7 2 4.7 4.2-.1.3-.2.6-.2.8zm-4.6-2.4c-1 0-1.8.8-2 1.7h3.5v-.2c0-.8-.6-1.5-1.5-1.5zM221.4 107.8c-.6.6-.8 1.2-.8 1.8 0 .3 0 .7.1 1l-2.9-.6c-.1-.5-.2-.8-.2-1.2 0-1.2.5-2.3 1.3-3.2.6-.6.9-1.1.9-1.7 0-.5-.5-1-1.3-1s-1.6.3-2.3.8l-.7-2.9c.9-.5 2-.9 3.3-.9 2.7 0 4.5 1.6 4.5 3.9.1 1.4-.5 2.5-1.9 4zm-2.1 7.5c-.6 0-1.9-1.3-1.9-1.9 0-.6 1.3-1.9 1.9-1.9s1.9 1.3 1.9 1.9c0 .6-1.2 1.9-1.9 1.9z"/></g></svg>