<svg id="Layer_1" xmlns="http://www.w3.org/2000/svg" viewBox="0 0 300 250"><style>.st0{fill:#f9e039}</style><path class="st0" d="M70.8 151.8v2.9H75v3h-4.2v5.9h-3.5v-14.7h8.5v2.9h-5zM78.8 151.7c-.6 0-1.8-1.2-1.8-1.8s1.2-1.8 1.8-1.8c.6 0 1.8 1.2 1.8 1.8s-1.2 1.8-1.8 1.8zm-1.7 11.9v-10.4h3.4v10.4h-3.4zM89.3 163.6v-6.4c0-.8-.5-1.4-1.5-1.4s-1.7.6-1.7 1.5v6.3h-3.4v-10.4h3.1v1.4c.4-1.1 1.5-1.7 3.2-1.7 2.3 0 3.7 1.3 3.7 3.5v7.2h-3.4zM96.6 151.7c-.6 0-1.8-1.2-1.8-1.8s1.2-1.8 1.8-1.8c.6 0 1.8 1.2 1.8 1.8s-1.2 1.8-1.8 1.8zm-1.7 11.9v-10.4h3.4v10.4h-3.4zM103.8 163.8c-1.4 0-2.5-.3-3.3-.7l-.3-3c.9.6 2.1 1.1 3.3 1.1.6 0 1-.3 1-.7 0-.4-.3-.6-.9-.8-2-.6-3.2-1.6-3.2-3.4 0-2 1.7-3.4 3.9-3.4 1.3 0 2.6.3 3.1.6l-.6 2.5c-.5-.3-1.3-.6-2.2-.6-.6 0-.9.3-.9.7 0 .4.3.6.9.8 2.3.6 3.3 1.8 3.3 3.5 0 1.8-1.3 3.4-4.1 3.4zM116.2 163.6v-6.4c0-.8-.5-1.4-1.6-1.4-1 0-1.6.6-1.6 1.5v6.3h-3.4v-16.4h3.3v6.9c.5-.8 1.5-1.3 2.9-1.3 2.3 0 3.7 1.3 3.7 3.5v7.2h-3.3zM134.8 156.5c-.7-.4-1.4-.7-2.2-.7-1.5 0-2.6 1.1-2.6 2.6s1.2 2.6 2.7 2.6c.9 0 1.5-.2 2.3-.6l-.3 2.9c-.7.3-1.6.5-2.6.5-2.9 0-5.6-2.1-5.6-5.4 0-3.4 2.7-5.4 5.6-5.4 1.4 0 2.5.3 3.4.8l-.7 2.7zM144.3 164c-.6-.1-1.3-.6-1.6-1.4-.5.9-1.4 1.3-2.7 1.3-1.8 0-3.5-1.3-3.5-3.4 0-1.9 1.5-3.2 3.6-3.4l2.1-.2v-.3c0-.6-.5-1-1.6-1-1 0-2.1.3-2.9.8l-.6-2.6c.9-.6 2.3-.9 3.7-.9 2.8 0 4.7 1.3 4.7 3.8v3.4c0 1.2.5 1.9 1.3 2.2l-2.5 1.7zm-2.2-5l-1.3.1c-.9.1-1.3.7-1.3 1.3 0 .6.4 1 1.1 1 .8 0 1.5-.6 1.5-1.5v-.9zM151.3 164c-2.1-.1-3.6-1.2-3.6-3.7v-13.1h3.3v12.7c0 .9.5 1.3 1.4 1.4l-1.1 2.7zM161.6 156.5c-.7-.4-1.4-.7-2.2-.7-1.5 0-2.6 1.1-2.6 2.6s1.2 2.6 2.7 2.6c.9 0 1.5-.2 2.3-.6l-.3 2.9c-.7.3-1.6.5-2.6.5-2.9 0-5.6-2.1-5.6-5.4 0-3.4 2.7-5.4 5.6-5.4 1.4 0 2.5.3 3.4.8l-.7 2.7zM170.8 163.6v-1.4c-.4 1.1-1.5 1.7-3.2 1.7-2.3 0-3.7-1.3-3.7-3.5v-7.2h3.4v6.4c0 .8.5 1.4 1.6 1.4 1 0 1.6-.7 1.6-1.5v-6.3h3.4v10.4h-3.1zM179.6 164c-2.1-.1-3.6-1.2-3.6-3.7v-13.1h3.3v12.7c0 .9.5 1.3 1.4 1.4l-1.1 2.7zM189.6 164c-.6-.1-1.3-.6-1.6-1.4-.5.9-1.4 1.3-2.7 1.3-1.8 0-3.5-1.3-3.5-3.4 0-1.9 1.5-3.2 3.6-3.4l2.1-.2v-.3c0-.6-.5-1-1.6-1-1 0-2.1.3-2.9.8l-.6-2.6c.9-.6 2.3-.9 3.7-.9 2.8 0 4.7 1.3 4.7 3.8v3.4c0 1.2.5 1.9 1.3 2.2l-2.5 1.7zm-2.2-5l-1.3.1c-.9.1-1.3.7-1.3 1.3 0 .6.4 1 1.1 1 .8 0 1.5-.6 1.5-1.5v-.9zM199.8 155.9h-2.7v3.9c0 .9.5 1.3 1.4 1.3.4 0 .6 0 .9-.1l-.3 2.6c-.3.2-.9.3-1.6.3-2.3 0-3.7-1.2-3.7-3.3v-4.5H192v-2.8h1.7v-2.2l3.4-1.2v3.4h3.4l-.7 2.6zM203.4 151.7c-.6 0-1.8-1.2-1.8-1.8s1.2-1.8 1.8-1.8 1.8 1.2 1.8 1.8-1.2 1.8-1.8 1.8zm-1.7 11.9v-10.4h3.4v10.4h-3.4zM213.9 163.6v-6.4c0-.8-.5-1.4-1.5-1.4s-1.7.6-1.7 1.5v6.3h-3.4v-10.4h3.1v1.4c.4-1.1 1.5-1.7 3.2-1.7 2.3 0 3.7 1.3 3.7 3.5v7.2h-3.4zM223.8 168.9c-3 0-5.1-1.7-5.1-3.9 0-1.6 1.1-2.5 2.1-2.8l-1.3-1.3c.1-.7.7-1.2 1.3-1.5-.8-.5-1.5-1.5-1.5-2.8 0-2.2 1.6-3.7 4.3-3.7.6 0 1.1.1 1.5.2.5.1 1 .2 1.5.2.6 0 1.2-.1 1.6-.3l.6 2.6c-.3.2-.8.3-1.3.3.1.2.3.7.3 1.1 0 1.7-1.4 3.2-3.4 3.4-.4 0-.7.1-.7.4 0 .1.1.3.3.3l1.6.6c2 .7 3.2 1.8 3.2 3.7 0 1.9-2 3.5-5 3.5zm.7-4.9l-1.2-.3c-.8 0-1.4.6-1.4 1.4 0 .7.6 1.3 1.8 1.3 1.2 0 1.8-.6 1.8-1.1 0-.6-.3-1.1-1-1.3zm-.9-8.7c-.8 0-1.3.6-1.3 1.2 0 .7.6 1.2 1.3 1.2.7 0 1.3-.6 1.3-1.2 0-.7-.5-1.2-1.3-1.2zM231.4 163.9c-.6 0-1.9-1.3-1.9-1.9 0-.6 1.3-1.9 1.9-1.9.6 0 1.9 1.3 1.9 1.9 0 .6-1.3 1.9-1.9 1.9z"/></svg>