<svg id="Layer_1" xmlns="http://www.w3.org/2000/svg" viewBox="0 0 300 250"><style>.st0{fill:#f9e039}</style><path class="st0" d="M30.9 91.7h-2.3l-2.1-6.5c-.3-1-.6-2-1-3.3-.3 1.3-.6 2.3-1 3.3l-2.1 6.5h-2.2l-4.9-14.8h3.5l1.9 5.9c.3.9.6 1.8.8 2.9.2-1.1.5-2 .8-2.9l1.9-5.9h3.1l1.9 5.9c.3.8.6 1.9.8 3 .2-1.1.5-2.1.8-2.9l2-5.9h3.1l-5 14.7zM38.8 79.7c-.6 0-1.8-1.2-1.8-1.8 0-.6 1.2-1.8 1.8-1.8.6 0 1.8 1.2 1.8 1.8 0 .6-1.2 1.8-1.8 1.8zm-1.7 11.9V81.2h3.4v10.4h-3.4zM46.3 92c-2.1-.1-3.6-1.2-3.6-3.7V75.2H46v12.7c0 .9.5 1.3 1.4 1.4L46.3 92zM52.3 92c-2.1-.1-3.6-1.2-3.6-3.7V75.2H52v12.7c0 .9.5 1.3 1.4 1.4L52.3 92zM66.5 90.5c-1.6 4.2-3.2 5.7-5.2 6.5l-2.1-2.1c1.7-.6 3-1.9 3.8-4.1l-3.7-9.7h3.3l1.5 4c.2.6.5 1.3.6 2 .2-.7.4-1.4.7-2l1.5-4H70l-3.5 9.4zM76 91.9c-3.2 0-5.7-2.2-5.7-5.5s2.5-5.5 5.7-5.5c3.1 0 5.7 2.2 5.7 5.5s-2.6 5.5-5.7 5.5zm0-8.1c-1.3 0-2.3 1.1-2.3 2.6s1 2.6 2.3 2.6c1.2 0 2.3-1.1 2.3-2.6s-1.1-2.6-2.3-2.6zM90.2 91.6v-1.4c-.4 1.1-1.5 1.7-3.2 1.7-2.3 0-3.7-1.3-3.7-3.5v-7.2h3.4v6.4c0 .8.5 1.4 1.6 1.4 1 0 1.6-.7 1.6-1.5v-6.3h3.4v10.4h-3.1zM101.9 84.7c-.2-.1-.7-.3-1-.3-1.1 0-2.1.6-2.1 2.2v4.9h-3.4V81.2h3.3v2.3c.3-1.6 1.6-2.5 3-2.5.3 0 .7 0 1 .1l-.8 3.6zM115.5 84.7c-.2-.1-.7-.3-1-.3-1.1 0-2.1.6-2.1 2.2v4.9H109V81.2h3.3v2.3c.3-1.6 1.6-2.5 3-2.5.3 0 .7 0 1 .1l-.8 3.6zM126.8 85.8l-1.5 1.5h-5.1c.2.9 1.3 1.8 3.1 1.8 1.1 0 2.2-.3 2.9-.8l-.3 2.9c-.8.4-2 .7-3.3.7-3.2 0-5.7-2.2-5.7-5.6 0-3.4 2.4-5.5 5.4-5.5 2.9 0 4.7 2 4.7 4.2-.1.2-.2.6-.2.8zm-4.6-2.5c-1 0-1.8.8-2 1.7h3.5v-.2c0-.7-.6-1.5-1.5-1.5zM135.6 83.9h-2.7v3.9c0 .9.5 1.3 1.4 1.3.4 0 .6 0 .9-.1l-.3 2.6c-.3.2-.9.3-1.6.3-2.3 0-3.7-1.2-3.7-3.3v-4.5h-1.7v-2.8h1.7v-2.2l3.4-1.2v3.4h3.4l-.8 2.6zM139.2 79.7c-.6 0-1.8-1.2-1.8-1.8 0-.6 1.2-1.8 1.8-1.8.6 0 1.8 1.2 1.8 1.8 0 .6-1.2 1.8-1.8 1.8zm-1.7 11.9V81.2h3.4v10.4h-3.4zM149.6 84.7c-.2-.1-.7-.3-1-.3-1.1 0-2.1.6-2.1 2.2v4.9h-3.4V81.2h3.3v2.3c.3-1.6 1.6-2.5 3-2.5.3 0 .7 0 1 .1l-.8 3.6zM160.9 85.8l-1.5 1.5h-5.1c.2.9 1.3 1.8 3.1 1.8 1.1 0 2.2-.3 2.9-.8l-.3 2.9c-.8.4-2 .7-3.3.7-3.2 0-5.7-2.2-5.7-5.6 0-3.4 2.4-5.5 5.4-5.5 2.9 0 4.7 2 4.7 4.2-.1.2-.2.6-.2.8zm-4.6-2.5c-1 0-1.8.8-2 1.7h3.5v-.2c0-.7-.6-1.5-1.5-1.5zM175.4 91.6v-6.4c0-.8-.4-1.4-1.5-1.4s-1.6.6-1.6 1.5v6.3H169v-6.4c0-.8-.4-1.4-1.5-1.4s-1.6.6-1.6 1.5v6.3h-3.4V81.2h3.1v1.4c.4-1.1 1.4-1.7 3.1-1.7 1.5 0 2.6.6 3.1 1.7.4-1 1.7-1.7 3.2-1.7 2.4 0 3.7 1.3 3.7 3.5v7.2h-3.3zM190.5 85.8l-1.5 1.5h-5.1c.2.9 1.3 1.8 3.1 1.8 1.1 0 2.2-.3 2.9-.8l-.3 2.9c-.8.4-2 .7-3.3.7-3.2 0-5.7-2.2-5.7-5.6 0-3.4 2.4-5.5 5.4-5.5 2.9 0 4.7 2 4.7 4.2-.1.2-.1.6-.2.8zm-4.6-2.5c-1 0-1.8.8-2 1.7h3.5v-.2c0-.7-.6-1.5-1.5-1.5zM198.8 91.6v-6.4c0-.8-.5-1.4-1.5-1.4s-1.7.6-1.7 1.5v6.3h-3.4V81.2h3.1v1.4c.4-1.1 1.5-1.7 3.2-1.7 2.3 0 3.7 1.3 3.7 3.5v7.2h-3.4zM211.2 83.9h-2.7v3.9c0 .9.5 1.3 1.4 1.3.4 0 .6 0 .9-.1l-.3 2.6c-.3.2-.9.3-1.6.3-2.3 0-3.7-1.2-3.7-3.3v-4.5h-1.7v-2.8h1.7v-2.2l3.4-1.2v3.4h3.4l-.8 2.6zM221.6 91.8c-1.4 0-2.5-.3-3.3-.7l-.3-3c.9.6 2.1 1.1 3.3 1.1.6 0 1-.3 1-.7 0-.4-.3-.6-.9-.8-2-.6-3.2-1.6-3.2-3.4 0-2 1.7-3.4 3.9-3.4 1.3 0 2.6.3 3.1.6l-.6 2.5c-.5-.3-1.3-.6-2.2-.6-.6 0-.9.3-.9.7 0 .4.3.6.9.8 2.3.6 3.3 1.8 3.3 3.5 0 1.8-1.3 3.4-4.1 3.4zM234.7 92c-.6-.1-1.3-.6-1.6-1.4-.5.9-1.4 1.3-2.7 1.3-1.8 0-3.5-1.3-3.5-3.4 0-1.9 1.5-3.2 3.6-3.4l2.1-.2v-.3c0-.6-.5-1-1.6-1-1 0-2.1.3-2.9.8l-.6-2.6c.9-.6 2.3-.9 3.7-.9 2.8 0 4.7 1.3 4.7 3.8V88c0 1.2.5 1.9 1.3 2.2l-2.5 1.8zm-2.2-5l-1.3.1c-.9.1-1.3.7-1.3 1.3 0 .6.4 1 1.1 1 .8 0 1.5-.6 1.5-1.5V87zM243.3 91.7h-2.5l-4-10.5h3.3l1.5 4c.2.6.4 1.3.6 2 .2-.7.4-1.5.6-2l1.5-4h3.1l-4.1 10.5zM250.3 79.7c-.6 0-1.8-1.2-1.8-1.8 0-.6 1.2-1.8 1.8-1.8s1.8 1.2 1.8 1.8c0 .6-1.2 1.8-1.8 1.8zm-1.7 11.9V81.2h3.4v10.4h-3.4zM260.8 91.6v-6.4c0-.8-.5-1.4-1.5-1.4s-1.7.6-1.7 1.5v6.3h-3.4V81.2h3.1v1.4c.4-1.1 1.5-1.7 3.2-1.7 2.3 0 3.7 1.3 3.7 3.5v7.2h-3.4zM270.7 96.9c-3 0-5.1-1.7-5.1-3.9 0-1.6 1.1-2.5 2.1-2.8l-1.3-1.3c.1-.7.7-1.2 1.3-1.5-.8-.5-1.5-1.5-1.5-2.8 0-2.2 1.6-3.7 4.3-3.7.6 0 1.1.1 1.5.2.5.1 1 .2 1.5.2.6 0 1.2-.1 1.6-.3l.6 2.6c-.3.2-.8.3-1.3.3.1.2.3.7.3 1.1 0 1.7-1.4 3.2-3.4 3.4-.4 0-.7.1-.7.4 0 .1.1.3.3.3l1.6.6c2 .7 3.2 1.8 3.2 3.7 0 1.9-2 3.5-5 3.5zm.7-4.9l-1.2-.3c-.8 0-1.4.6-1.4 1.4 0 .7.6 1.3 1.8 1.3 1.2 0 1.8-.6 1.8-1.1 0-.6-.3-1.1-1-1.3zm-.9-8.7c-.8 0-1.3.6-1.3 1.2 0 .7.6 1.2 1.3 1.2.7 0 1.3-.6 1.3-1.2 0-.7-.5-1.2-1.3-1.2zM280.4 91.8c-1.4 0-2.5-.3-3.3-.7l-.3-3c.9.6 2.1 1.1 3.3 1.1.6 0 1-.3 1-.7 0-.4-.3-.6-.9-.8-2-.6-3.2-1.6-3.2-3.4 0-2 1.7-3.4 3.9-3.4 1.3 0 2.6.3 3.1.6l-.6 2.5c-.5-.3-1.3-.6-2.2-.6-.6 0-.9.3-.9.7 0 .4.3.6.9.8 2.3.6 3.3 1.8 3.3 3.5 0 1.8-1.3 3.4-4.1 3.4z"/><g><path class="st0" d="M88.9 115.9c-2.2 0-4-.8-5-1.5V99.2h3.3v6.3c.4-.3 1.5-.7 2.6-.7 2.9 0 5.2 2 5.2 5.3s-2.1 5.8-6.1 5.8zm.2-8.1c-1 0-1.7.5-2 .8v4c.3.3 1.1.5 1.7.5 1.7 0 2.8-1.2 2.8-2.7 0-1.5-1-2.6-2.5-2.6zM106.2 109.8l-1.5 1.5h-5.1c.2.9 1.3 1.8 3.1 1.8 1.1 0 2.2-.3 2.9-.8l-.3 2.9c-.8.4-2 .7-3.3.7-3.2 0-5.7-2.2-5.7-5.6 0-3.4 2.4-5.5 5.4-5.5 2.9 0 4.7 2 4.7 4.2-.1.2-.2.6-.2.8zm-4.6-2.5c-1 0-1.8.8-2 1.7h3.5v-.2c0-.7-.6-1.5-1.5-1.5zM119.5 108.7c-.2-.1-.7-.3-1-.3-1.1 0-2.1.6-2.1 2.2v4.9H113v-10.4h3.3v2.3c.3-1.6 1.6-2.5 3-2.5.3 0 .7 0 1 .1l-.8 3.7zM130.8 109.8l-1.5 1.5h-5.1c.2.9 1.3 1.8 3.1 1.8 1.1 0 2.2-.3 2.9-.8l-.3 2.9c-.8.4-2 .7-3.3.7-3.2 0-5.7-2.2-5.7-5.6 0-3.4 2.4-5.5 5.4-5.5 2.9 0 4.7 2 4.7 4.2-.1.2-.1.6-.2.8zm-4.6-2.5c-1 0-1.8.8-2 1.7h3.5v-.2c.1-.7-.6-1.5-1.5-1.5zM139.8 116c-.6-.1-1.3-.6-1.6-1.4-.5.9-1.4 1.3-2.7 1.3-1.8 0-3.5-1.3-3.5-3.4 0-1.9 1.5-3.2 3.6-3.4l2.1-.2v-.3c0-.6-.5-1-1.6-1-1 0-2.1.3-2.9.8l-.6-2.6c.9-.6 2.3-.9 3.7-.9 2.8 0 4.7 1.3 4.7 3.8v3.4c0 1.2.5 1.9 1.3 2.2l-2.5 1.7zm-2.1-5l-1.3.1c-.9.1-1.3.7-1.3 1.3 0 .6.4 1 1.1 1 .8 0 1.5-.6 1.5-1.5v-.9zM151 115.6v-1.3c-.6 1.1-1.8 1.6-3.2 1.6-2.6 0-5-1.9-5-5.5 0-3.4 2.4-5.5 5.3-5.5 1.1 0 2.2.4 2.6.7v-6.3h3.3v16.4h-3zm-.3-6.9c-.3-.4-1-.9-2-.9-1.5 0-2.5 1.1-2.5 2.6s1 2.6 2.5 2.6c1 0 1.7-.5 2-1.1v-3.2zM162.4 114.5c-1.6 4.2-3.2 5.7-5.2 6.5l-2.1-2.1c1.7-.6 3-1.9 3.8-4.1l-3.7-9.7h3.3l1.5 4c.2.6.5 1.3.6 2 .2-.7.4-1.4.7-2l1.5-4h3.1l-3.5 9.4zM166.8 119l-1.1-.2c.8-.9 1.4-2.2 1.5-3.2-.6-.1-1.5-1.1-1.5-1.6 0-.7 1.3-1.9 1.9-1.9.5 0 1.9 1.2 1.9 1.9 0 1.4-1.4 3.8-2.7 5zM183.4 107.9h-2.7v3.9c0 .9.5 1.3 1.4 1.3.4 0 .6 0 .9-.1l-.3 2.6c-.3.2-.9.3-1.6.3-2.3 0-3.7-1.2-3.7-3.3v-4.5h-1.7v-2.8h1.7v-2.2l3.4-1.2v3.4h3.4l-.8 2.6zM190.2 115.9c-3.2 0-5.7-2.2-5.7-5.5s2.5-5.5 5.7-5.5c3.1 0 5.7 2.2 5.7 5.5 0 3.2-2.6 5.5-5.7 5.5zm0-8.2c-1.3 0-2.3 1.1-2.3 2.6s1.1 2.6 2.3 2.6c1.2 0 2.3-1.1 2.3-2.6s-1.1-2.6-2.3-2.6zM202.7 115.9c-3.2 0-5.7-2.2-5.7-5.5s2.5-5.5 5.7-5.5c3.1 0 5.7 2.2 5.7 5.5 0 3.2-2.5 5.5-5.7 5.5zm0-8.2c-1.3 0-2.3 1.1-2.3 2.6s1.1 2.6 2.3 2.6c1.2 0 2.3-1.1 2.3-2.6s-1-2.6-2.3-2.6zM214.7 108.3c-.6.6-.8 1.2-.8 1.8 0 .3 0 .7.1 1l-2.9-.6c-.1-.5-.2-.8-.2-1.2 0-1.2.5-2.3 1.3-3.2.6-.6.9-1.1.9-1.7 0-.5-.5-1-1.3-1s-1.6.3-2.3.8l-.7-2.9c.9-.5 2-.9 3.3-.9 2.7 0 4.5 1.6 4.5 3.9.1 1.5-.5 2.6-1.9 4zm-2.1 7.6c-.6 0-1.9-1.3-1.9-1.9 0-.6 1.3-1.9 1.9-1.9s1.9 1.3 1.9 1.9c0 .6-1.2 1.9-1.9 1.9z"/></g></svg>