<svg id="Layer_1" xmlns="http://www.w3.org/2000/svg" viewBox="0 0 300 250"><style>.st0{fill:#3abfef}</style><path class="st0" d="M101 185.4c-5.6 0-10.1 4.5-10.1 10.1v10c0 5.6 4.5 10.1 10.1 10.1h97.9c5.6 0 10.1-4.5 10.1-10.1v-10c0-5.6-4.5-10.1-10.1-10.1H101z"/><path d="M123.9 195.5c1.2 0 2.3.1 3.2 1 .9.9 1.3 2.1 1.3 3.3 0 1.1-.3 2.3-1.1 3.1-.8.9-1.9 1.2-3.1 1.2h-2.8v-8.6h2.5zm-.5 7h.7c.8 0 1.4-.2 1.8-.9.3-.5.5-1.2.5-1.8 0-.7-.2-1.4-.6-1.9-.5-.6-1-.7-1.7-.7h-.7v5.3zM131.7 204.1h-2v-8.6h2v8.6zM137.7 198c-.2-.7-.7-1-1.5-1-.5 0-1.2.1-1.2.8 0 .6.7.8 1.2.9.7.1 1.6.3 2.2.7.7.5 1.1 1.2 1.1 2s-.4 1.6-1.1 2.1c-.7.5-1.6.7-2.5.7-1.6 0-3.1-.7-3.5-2.4l1.8-.4c.2.9.9 1.2 1.8 1.2.6 0 1.3-.2 1.3-.9s-1-.8-1.5-1c-1.5-.3-3-.8-3-2.6 0-.8.3-1.5.9-2 .6-.5 1.4-.7 2.1-.7 1.5 0 2.7.5 3.2 2l-1.3.6zM145.7 198.8c0-.9-.3-1.8-1.4-1.8-1.4 0-1.5 1.8-1.5 2.9 0 1.2.1 2.7 1.6 2.7.9 0 1.4-.8 1.5-1.6l1.9.1c-.2 2-1.6 3.1-3.5 3.1-2.5 0-3.8-2.1-3.8-4.4 0-2.4 1.3-4.4 3.8-4.4 2.1 0 3.2 1.2 3.5 3.3l-2.1.1zM149.7 202.8c-.6-.9-.9-2-.9-3.1 0-2.3 1.1-4.4 3.7-4.4 1.1 0 2 .4 2.7 1.3.6.8.9 2 .9 3.1 0 1-.3 2.2-.8 3-.7 1-1.7 1.4-2.8 1.4-1.2.1-2.1-.3-2.8-1.3zm1.5-4.8c-.2.5-.3 1.2-.3 1.8 0 1.1.2 2.8 1.6 2.8.7 0 1.1-.3 1.3-1 .2-.5.3-1.2.3-1.8 0-.6-.1-1.4-.3-1.9-.2-.6-.6-.8-1.2-.8-.8-.1-1.2.3-1.4.9zM161.2 204.1H159l-2.6-8.6h2.1l1.7 6.1 1.8-6.1h1.7l-2.5 8.6zM166.6 197.2v1.7h3.2v1.6h-3.2v1.9h4.1v1.7h-6.1v-8.6h6.1v1.7h-4.1zM173.9 204.1h-2v-8.6h3.6c.8 0 1.5 0 2.2.4.7.5 1.1 1.3 1.1 2.1 0 1-.6 1.9-1.5 2.2l1.6 3.8h-2.2l-1.3-3.4h-1.5v3.5zm0-4.9h1.1c.4 0 .9 0 1.2-.2.3-.2.5-.6.5-1 0-.3-.2-.7-.5-.9-.3-.2-.9-.2-1.3-.2h-1v2.3z"/></svg>