<?xml version="1.0" encoding="utf-8"?>
<!-- Generator: Adobe Illustrator 17.0.0, SVG Export Plug-In . SVG Version: 6.00 Build 0)  -->
<!DOCTYPE svg PUBLIC "-//W3C//DTD SVG 1.1//EN" "http://www.w3.org/Graphics/SVG/1.1/DTD/svg11.dtd">
<svg version="1.1" id="Layer_1" xmlns="http://www.w3.org/2000/svg" xmlns:xlink="http://www.w3.org/1999/xlink" x="0px" y="0px"
	 width="728px" height="90px" viewBox="0 0 728 90" style="enable-background:new 0 0 728 90;" xml:space="preserve">
<style type="text/css">
	.st0{fill:#231F20;}
</style>
<g>
	<path class="st0" d="M696.854,85.808c-0.928,0-1.735-0.647-1.735-1.847c0-1.359,1-2.814,2.367-3.519l0.72,0.336
		c-0.96,0.479-1.711,1.159-2.087,2.047c0.191-0.191,0.447-0.328,0.791-0.328c0.976,0,1.64,0.728,1.64,1.647
		C698.55,85.104,697.83,85.808,696.854,85.808z M696.862,83.169c-0.399,0-0.847,0.152-0.991,0.712
		c-0.008,0.088-0.008,0.176-0.008,0.264c0,0.576,0.479,1.056,1.008,1.056c0.527,0,0.943-0.408,0.943-1.016
		C697.814,83.609,697.422,83.169,696.862,83.169z"/>
	<path class="st0" d="M701.006,85.815c-0.927,0-1.742-0.848-1.742-2.654c0-1.791,0.815-2.646,1.742-2.646
		c0.912,0,1.743,0.855,1.743,2.646C702.749,84.968,701.918,85.815,701.006,85.815z M701.006,81.162c-0.52,0-1.007,0.56-1.007,1.999
		c0,1.455,0.487,2.007,1.007,2.007c0.512,0,1.008-0.552,1.008-2.007C702.014,81.722,701.518,81.162,701.006,81.162z"/>
	<path class="st0" d="M704.727,85.808c-0.392,0-0.76-0.088-0.968-0.2l-0.08-0.719c0.32,0.191,0.656,0.279,1.008,0.279
		c0.592,0,1.096-0.376,1.096-1.016c0-0.655-0.504-1.047-1.071-1.047c-0.376,0-0.64,0.048-0.88,0.136l0.08-2.623h2.23l-0.136,0.624
		h-1.399l-0.032,1.239c0.064-0.008,0.145-0.016,0.208-0.016c0.952,0,1.735,0.64,1.735,1.694
		C706.518,85.04,705.902,85.808,704.727,85.808z"/>
	<path class="st0" d="M708.127,85.88l-0.72-0.336c0.976-0.488,1.734-1.151,2.103-2.047c-0.192,0.191-0.456,0.328-0.808,0.328
		c-0.976,0-1.639-0.728-1.639-1.647c0-0.96,0.719-1.663,1.694-1.663c0.928,0,1.735,0.647,1.735,1.847
		C710.493,83.721,709.494,85.176,708.127,85.88z M708.742,81.17c-0.527,0-0.943,0.408-0.943,1.016c0,0.576,0.392,1.016,0.951,1.016
		c0.408,0,0.848-0.168,0.991-0.728c0.009-0.08,0.009-0.16,0.009-0.248C709.75,81.65,709.27,81.17,708.742,81.17z"/>
	<path class="st0" d="M712.175,85.72h-0.784l1.936-4.478h-2.343v-0.624h3.382L712.175,85.72z"/>
	<path class="st0" d="M715.871,85.88l-0.72-0.336c0.976-0.488,1.734-1.151,2.103-2.047c-0.192,0.191-0.456,0.328-0.808,0.328
		c-0.976,0-1.639-0.728-1.639-1.647c0-0.96,0.719-1.663,1.694-1.663c0.928,0,1.735,0.647,1.735,1.847
		C718.237,83.721,717.238,85.176,715.871,85.88z M716.486,81.17c-0.527,0-0.943,0.408-0.943,1.016c0,0.576,0.392,1.016,0.951,1.016
		c0.408,0,0.848-0.168,0.991-0.728c0.009-0.08,0.009-0.16,0.009-0.248C717.494,81.65,717.014,81.17,716.486,81.17z"/>
	<path class="st0" d="M721.758,85.808c-0.248-0.056-0.52-0.264-0.575-0.567c-0.168,0.424-0.552,0.567-0.968,0.567
		c-0.72,0-1.167-0.527-1.167-1.111c0-0.704,0.575-1.104,1.19-1.159l0.848-0.08v-0.232c0-0.327-0.191-0.591-0.703-0.591
		c-0.36,0-0.735,0.111-1,0.287l-0.144-0.6c0.328-0.216,0.743-0.312,1.184-0.312c0.808,0,1.391,0.456,1.391,1.312v1.463
		c0,0.328,0.177,0.52,0.408,0.56L721.758,85.808z M721.086,84.057l-0.695,0.064c-0.464,0.039-0.647,0.319-0.647,0.583
		c0,0.256,0.208,0.488,0.535,0.488c0.433,0,0.808-0.328,0.808-0.815L721.086,84.057L721.086,84.057z"/>
</g>
</svg>
