<?xml version="1.0" encoding="utf-8"?>
<!-- Generator: Adobe Illustrator 17.0.0, SVG Export Plug-In . SVG Version: 6.00 Build 0)  -->
<!DOCTYPE svg PUBLIC "-//W3C//DTD SVG 1.1//EN" "http://www.w3.org/Graphics/SVG/1.1/DTD/svg11.dtd">
<svg version="1.1" id="Layer_1" xmlns="http://www.w3.org/2000/svg" xmlns:xlink="http://www.w3.org/1999/xlink" x="0px" y="0px"
	 width="728px" height="90px" viewBox="0 0 728 90" style="enable-background:new 0 0 728 90;" xml:space="preserve">
<style type="text/css">
	.st0{fill:#231F20;}
</style>
<g>
	<path class="st0" d="M39.375,31.017v7.41h-3.9v-7.333l-6.214-9.256h4.316l2.73,3.978c0.39,0.546,0.832,1.326,1.196,2.002h0.052
		c0.338-0.65,0.858-1.482,1.222-2.002l2.73-3.978h4.03L39.375,31.017z"/>
	<path class="st0" d="M50.685,38.791c-3.562,0-6.422-2.522-6.422-6.266s2.86-6.266,6.422-6.266c3.536,0,6.422,2.522,6.422,6.266
		S54.221,38.791,50.685,38.791z M50.685,29.587c-1.43,0-2.652,1.248-2.652,2.99s1.222,2.99,2.652,2.99
		c1.404,0,2.652-1.248,2.652-2.99S52.088,29.587,50.685,29.587z"/>
	<path class="st0" d="M66.726,38.427v-1.612H66.7c-0.468,1.248-1.716,1.95-3.614,1.95c-2.574,0-4.134-1.43-4.134-3.926v-8.19h3.822
		v7.228c0,0.858,0.598,1.612,1.768,1.612c1.144,0,1.846-0.754,1.846-1.69v-7.15h3.822v11.778H66.726z"/>
	<path class="st0" d="M79.959,30.705c-0.234-0.13-0.754-0.286-1.144-0.286c-1.222,0-2.34,0.65-2.34,2.522v5.486h-3.822V26.649h3.77
		v2.626h0.026c0.39-1.846,1.769-2.834,3.354-2.834c0.364,0,0.806,0.052,1.092,0.156L79.959,30.705z"/>
	<path class="st0" d="M94.025,38.791c-3.562,0-6.422-2.522-6.422-6.266s2.86-6.266,6.422-6.266c3.536,0,6.422,2.522,6.422,6.266
		S97.562,38.791,94.025,38.791z M94.025,29.587c-1.43,0-2.652,1.248-2.652,2.99s1.222,2.99,2.652,2.99
		c1.404,0,2.652-1.248,2.652-2.99S95.43,29.587,94.025,29.587z"/>
	<path class="st0" d="M106.375,38.896c-2.418-0.104-4.03-1.353-4.03-4.187V19.915h3.77v14.327c0,0.962,0.546,1.482,1.586,1.56
		L106.375,38.896z"/>
	<path class="st0" d="M117.919,38.427v-1.456h-0.026c-0.65,1.196-2.002,1.794-3.64,1.794c-2.886,0-5.668-2.184-5.668-6.214
		c0-3.796,2.704-6.266,5.98-6.266c1.248,0,2.522,0.416,2.99,0.806v-7.176h3.718v18.513H117.919z M117.555,30.705
		c-0.364-0.494-1.144-1.066-2.314-1.066c-1.664,0-2.834,1.3-2.834,2.99c0,1.69,1.17,2.99,2.834,2.99
		c1.118,0,1.898-0.598,2.314-1.222V30.705z"/>
	<path class="st0" d="M136.821,30.705c-0.234-0.13-0.754-0.286-1.144-0.286c-1.222,0-2.34,0.65-2.34,2.522v5.486h-3.822V26.649h3.77
		v2.626h0.026c0.39-1.846,1.768-2.834,3.354-2.834c0.364,0,0.806,0.052,1.092,0.156L136.821,30.705z"/>
	<path class="st0" d="M149.561,31.875l-1.69,1.716h-5.772c0.182,0.962,1.482,2.054,3.484,2.054c1.222,0,2.47-0.364,3.25-0.884
		l-0.364,3.276c-0.884,0.468-2.236,0.78-3.744,0.78c-3.588,0-6.474-2.496-6.474-6.344c0-3.796,2.756-6.214,6.136-6.214
		c3.276,0,5.278,2.262,5.278,4.706C149.665,31.251,149.613,31.641,149.561,31.875z M144.387,29.119
		c-1.118,0-2.054,0.858-2.288,1.924h3.979c0-0.078,0.026-0.156,0.026-0.26C146.103,29.977,145.401,29.119,144.387,29.119z"/>
	<path class="st0" d="M159.493,29.769h-3.068v4.368c0,1.014,0.546,1.43,1.56,1.43c0.442,0,0.702-0.026,0.988-0.156l-0.338,2.886
		c-0.364,0.182-1.014,0.312-1.768,0.312c-2.652,0-4.238-1.404-4.238-3.744v-5.096h-1.976v-3.12h1.976v-2.522l3.796-1.378v3.9h3.796
		L159.493,29.769z"/>
	<path class="st0" d="M163.522,25.037c-0.676,0-2.054-1.378-2.054-2.054c0-0.676,1.378-2.028,2.054-2.028
		c0.676,0,2.054,1.352,2.054,2.028C165.576,23.659,164.198,25.037,163.522,25.037z M161.598,38.427V26.649h3.848v11.778H161.598z"/>
	<path class="st0" d="M175.222,30.705c-0.234-0.13-0.754-0.286-1.144-0.286c-1.222,0-2.34,0.65-2.34,2.522v5.486h-3.822V26.649h3.77
		v2.626h0.026c0.39-1.846,1.769-2.834,3.354-2.834c0.364,0,0.806,0.052,1.092,0.156L175.222,30.705z"/>
	<path class="st0" d="M187.962,31.875l-1.69,1.716H180.5c0.182,0.962,1.482,2.054,3.484,2.054c1.222,0,2.47-0.364,3.25-0.884
		l-0.364,3.276c-0.884,0.468-2.236,0.78-3.744,0.78c-3.588,0-6.474-2.496-6.474-6.344c0-3.796,2.756-6.214,6.136-6.214
		c3.276,0,5.278,2.262,5.278,4.706C188.066,31.251,188.015,31.641,187.962,31.875z M182.788,29.119
		c-1.118,0-2.054,0.858-2.288,1.924h3.979c0-0.078,0.026-0.156,0.026-0.26C184.504,29.977,183.802,29.119,182.788,29.119z"/>
	<path class="st0" d="M204.42,38.427v-7.228c0-0.858-0.416-1.612-1.664-1.612c-1.222,0-1.768,0.728-1.768,1.664v7.176h-3.822v-7.228
		c0-0.858-0.416-1.612-1.664-1.612c-1.222,0-1.768,0.728-1.768,1.664v7.176h-3.822V26.649h3.536v1.586h0.026
		c0.468-1.248,1.638-1.95,3.484-1.95c1.69,0,2.964,0.676,3.484,1.924c0.494-1.144,1.872-1.924,3.64-1.924
		c2.678,0,4.16,1.456,4.16,3.952v8.19H204.42z"/>
	<path class="st0" d="M221.45,31.875l-1.69,1.716h-5.772c0.182,0.962,1.482,2.054,3.484,2.054c1.222,0,2.47-0.364,3.25-0.884
		l-0.364,3.276c-0.884,0.468-2.236,0.78-3.744,0.78c-3.588,0-6.475-2.496-6.475-6.344c0-3.796,2.756-6.214,6.137-6.214
		c3.276,0,5.278,2.262,5.278,4.706C221.554,31.251,221.502,31.641,221.45,31.875z M216.276,29.119c-1.118,0-2.054,0.858-2.288,1.924
		h3.978c0-0.078,0.026-0.156,0.026-0.26C217.992,29.977,217.29,29.119,216.276,29.119z"/>
	<path class="st0" d="M230.836,38.427v-7.228c0-0.858-0.572-1.612-1.742-1.612c-1.144,0-1.872,0.728-1.872,1.664v7.176h-3.822
		V26.649h3.51v1.586h0.026c0.468-1.248,1.69-1.95,3.588-1.95c2.574,0,4.134,1.456,4.134,3.952v8.19H230.836z"/>
	<path class="st0" d="M244.798,29.769h-3.068v4.368c0,1.014,0.546,1.43,1.561,1.43c0.442,0,0.702-0.026,0.988-0.156l-0.338,2.886
		c-0.364,0.182-1.014,0.312-1.768,0.312c-2.652,0-4.238-1.404-4.238-3.744v-5.096h-1.976v-3.12h1.976v-2.522l3.796-1.378v3.9h3.796
		L244.798,29.769z"/>
	<path class="st0" d="M261.021,38.947c-0.702-0.156-1.508-0.702-1.82-1.56c-0.52,0.962-1.638,1.43-3.068,1.43
		c-2.08,0-3.926-1.456-3.926-3.9c0-2.158,1.69-3.614,4.03-3.848l2.34-0.234v-0.39c0-0.702-0.572-1.17-1.846-1.17
		c-1.144,0-2.418,0.364-3.276,0.91l-0.676-2.886c0.962-0.624,2.574-1.04,4.134-1.04c3.12,0,5.33,1.43,5.33,4.264v3.848
		c0,1.378,0.52,2.106,1.43,2.444L261.021,38.947z M258.578,33.279l-1.43,0.13c-0.988,0.078-1.43,0.78-1.43,1.482
		c0,0.624,0.468,1.144,1.196,1.144c0.91,0,1.664-0.702,1.664-1.716V33.279z"/>
	<path class="st0" d="M273.684,30.445c-0.78-0.494-1.586-0.754-2.522-0.754c-1.664,0-2.99,1.196-2.99,2.912
		c0,1.69,1.326,2.912,3.068,2.912c0.988,0,1.742-0.208,2.574-0.65l-0.338,3.25c-0.78,0.364-1.794,0.572-2.886,0.572
		c-3.302,0-6.37-2.34-6.37-6.137c0-3.848,3.094-6.162,6.292-6.162c1.56,0,2.834,0.312,3.875,0.884L273.684,30.445z"/>
	<path class="st0" d="M284.967,30.445c-0.78-0.494-1.586-0.754-2.522-0.754c-1.664,0-2.99,1.196-2.99,2.912
		c0,1.69,1.326,2.912,3.068,2.912c0.988,0,1.742-0.208,2.574-0.65l-0.338,3.25c-0.78,0.364-1.794,0.572-2.886,0.572
		c-3.302,0-6.37-2.34-6.37-6.137c0-3.848,3.094-6.162,6.292-6.162c1.56,0,2.834,0.312,3.874,0.884L284.967,30.445z"/>
	<path class="st0" d="M293.209,38.791c-3.562,0-6.422-2.522-6.422-6.266s2.86-6.266,6.422-6.266c3.536,0,6.422,2.522,6.422,6.266
		S296.745,38.791,293.209,38.791z M293.209,29.587c-1.43,0-2.652,1.248-2.652,2.99s1.222,2.99,2.652,2.99
		c1.404,0,2.652-1.248,2.652-2.99S294.613,29.587,293.209,29.587z"/>
	<path class="st0" d="M309.25,38.427v-1.612h-0.026c-0.468,1.248-1.716,1.95-3.614,1.95c-2.574,0-4.134-1.43-4.134-3.926v-8.19
		h3.822v7.228c0,0.858,0.598,1.612,1.768,1.612c1.144,0,1.846-0.754,1.846-1.69v-7.15h3.822v11.778H309.25z"/>
	<path class="st0" d="M322.614,38.427v-7.228c0-0.858-0.572-1.612-1.742-1.612c-1.144,0-1.872,0.728-1.872,1.664v7.176h-3.822
		V26.649h3.51v1.586h0.026c0.468-1.248,1.69-1.95,3.588-1.95c2.574,0,4.134,1.456,4.134,3.952v8.19H322.614z"/>
	<path class="st0" d="M336.576,29.769h-3.068v4.368c0,1.014,0.546,1.43,1.561,1.43c0.442,0,0.702-0.026,0.988-0.156l-0.338,2.886
		c-0.364,0.182-1.014,0.312-1.768,0.312c-2.652,0-4.238-1.404-4.238-3.744v-5.096h-1.976v-3.12h1.976v-2.522l3.796-1.378v3.9h3.796
		L336.576,29.769z"/>
	<path class="st0" d="M342.244,38.688c-1.612,0-2.782-0.338-3.744-0.832l-0.338-3.38c1.04,0.728,2.392,1.274,3.692,1.274
		c0.702,0,1.144-0.364,1.144-0.806c0-0.494-0.39-0.702-1.066-0.91c-2.262-0.65-3.614-1.794-3.614-3.848
		c0-2.314,1.872-3.796,4.42-3.796c1.456,0,2.886,0.39,3.484,0.702l-0.65,2.808c-0.572-0.312-1.508-0.65-2.444-0.65
		c-0.624,0-1.04,0.286-1.04,0.754c0,0.442,0.312,0.676,1.04,0.858c2.652,0.702,3.744,2.028,3.744,4.004
		C346.872,36.867,345.416,38.688,342.244,38.688z"/>
</g>
<g>
	<path class="st0" d="M44.652,64.427v-7.229c0-0.857-0.416-1.612-1.664-1.612c-1.222,0-1.768,0.729-1.768,1.664v7.177h-3.822v-7.229
		c0-0.857-0.416-1.612-1.664-1.612c-1.222,0-1.768,0.729-1.768,1.664v7.177h-3.822V52.648h3.536v1.586h0.026
		c0.468-1.248,1.638-1.95,3.484-1.95c1.69,0,2.964,0.676,3.484,1.924c0.494-1.144,1.872-1.924,3.64-1.924
		c2.678,0,4.16,1.456,4.16,3.952v8.19H44.652z"/>
	<path class="st0" d="M59.186,64.947c-0.702-0.156-1.508-0.702-1.82-1.561c-0.52,0.962-1.638,1.43-3.068,1.43
		c-2.08,0-3.926-1.456-3.926-3.899c0-2.158,1.69-3.614,4.03-3.849l2.34-0.234v-0.39c0-0.702-0.572-1.17-1.846-1.17
		c-1.144,0-2.418,0.364-3.276,0.91l-0.676-2.886c0.962-0.625,2.574-1.041,4.134-1.041c3.12,0,5.33,1.431,5.33,4.265v3.849
		c0,1.378,0.52,2.105,1.43,2.443L59.186,64.947z M56.742,59.278l-1.43,0.13c-0.988,0.078-1.43,0.78-1.43,1.482
		c0,0.624,0.468,1.145,1.196,1.145c0.91,0,1.664-0.702,1.664-1.717V59.278z"/>
	<path class="st0" d="M69.716,63.257c-1.794,4.732-3.666,6.448-5.876,7.306l-2.34-2.34c1.898-0.728,3.354-2.105,4.316-4.602
		l-4.238-10.973h3.692l1.716,4.576c0.26,0.676,0.521,1.482,0.702,2.314h0.052c0.234-0.807,0.494-1.639,0.754-2.314l1.716-4.576h3.51
		L69.716,63.257z"/>
	<path class="st0" d="M86.771,64.765c-2.496,0-4.524-0.858-5.668-1.742V45.914h3.692v7.15c0.494-0.391,1.742-0.78,2.964-0.78
		c3.25,0,5.928,2.314,5.928,6.032C93.688,61.957,91.374,64.765,86.771,64.765z M87.084,55.639c-1.092,0-1.924,0.52-2.288,0.91v4.498
		c0.39,0.286,1.196,0.572,1.924,0.572c1.95,0,3.172-1.326,3.172-3.043C89.892,56.938,88.748,55.639,87.084,55.639z"/>
	<path class="st0" d="M106.375,57.875l-1.69,1.716h-5.772c0.182,0.962,1.482,2.054,3.484,2.054c1.222,0,2.47-0.364,3.25-0.884
		l-0.364,3.276c-0.884,0.468-2.236,0.779-3.744,0.779c-3.588,0-6.474-2.496-6.474-6.344c0-3.796,2.756-6.215,6.136-6.215
		c3.276,0,5.278,2.263,5.278,4.707C106.479,57.25,106.428,57.641,106.375,57.875z M101.201,55.118c-1.118,0-2.054,0.858-2.288,1.925
		h3.979c0-0.078,0.026-0.156,0.026-0.261C102.917,55.977,102.215,55.118,101.201,55.118z"/>
	<path class="st0" d="M119.921,64.765c-2.496,0-4.524-0.858-5.668-1.742V45.914h3.692v7.15c0.494-0.391,1.742-0.78,2.964-0.78
		c3.25,0,5.928,2.314,5.928,6.032C126.837,61.957,124.523,64.765,119.921,64.765z M120.233,55.639c-1.092,0-1.924,0.52-2.288,0.91
		v4.498c0.39,0.286,1.196,0.572,1.924,0.572c1.95,0,3.172-1.326,3.172-3.043C123.041,56.938,121.897,55.639,120.233,55.639z"/>
	<path class="st0" d="M136.483,64.427v-1.612h-0.026c-0.468,1.248-1.716,1.95-3.614,1.95c-2.574,0-4.134-1.43-4.134-3.926v-8.19
		h3.822v7.229c0,0.857,0.598,1.611,1.768,1.611c1.144,0,1.846-0.754,1.846-1.689v-7.15h3.822v11.778H136.483z"/>
	<path class="st0" d="M141.787,64.427v-0.728l2.938-5.278c0.494-0.858,1.04-1.847,1.56-2.626l-0.026-0.026h-4.004v-3.12h8.997v0.728
		l-2.938,5.278c-0.494,0.858-0.988,1.742-1.56,2.601l0.026,0.052h4.862v3.12H141.787z"/>
	<path class="st0" d="M152.941,64.427v-0.728l2.938-5.278c0.494-0.858,1.04-1.847,1.56-2.626l-0.026-0.026h-4.004v-3.12h8.997v0.728
		l-2.938,5.278c-0.494,0.858-0.988,1.742-1.56,2.601l0.026,0.052h4.862v3.12H152.941z"/>
	<path class="st0" d="M166.643,51.036c-0.676,0-2.054-1.378-2.054-2.054c0-0.677,1.378-2.028,2.054-2.028
		c0.676,0,2.054,1.352,2.054,2.028C168.696,49.658,167.318,51.036,166.643,51.036z M164.718,64.427V52.648h3.848v11.778H164.718z"/>
	<path class="st0" d="M178.473,64.427v-7.229c0-0.857-0.572-1.612-1.742-1.612c-1.144,0-1.872,0.729-1.872,1.664v7.177h-3.822
		V52.648h3.51v1.586h0.026c0.468-1.248,1.69-1.95,3.588-1.95c2.574,0,4.134,1.456,4.134,3.952v8.19H178.473z"/>
	<path class="st0" d="M189.652,70.433c-3.433,0-5.721-1.95-5.721-4.42c0-1.794,1.196-2.86,2.418-3.172l-1.508-1.508
		c0.104-0.755,0.754-1.404,1.43-1.69c-0.884-0.546-1.716-1.664-1.716-3.146c0-2.496,1.794-4.238,4.862-4.238
		c0.702,0,1.248,0.104,1.742,0.234c0.52,0.13,1.092,0.208,1.69,0.208c0.65,0,1.326-0.156,1.846-0.39l0.702,2.912
		c-0.364,0.208-0.936,0.39-1.456,0.363c0.13,0.234,0.286,0.78,0.286,1.196c0,1.977-1.561,3.641-3.849,3.796
		c-0.468,0.026-0.78,0.131-0.78,0.442c0,0.13,0.104,0.286,0.312,0.364l1.82,0.65c2.314,0.832,3.562,2.002,3.562,4.16
		C195.294,68.613,193.084,70.433,189.652,70.433z M190.458,64.895l-1.404-0.39c-0.91,0.026-1.586,0.676-1.586,1.534
		c0,0.806,0.702,1.481,2.08,1.481c1.353,0,2.08-0.624,2.08-1.3C191.628,65.675,191.212,65.103,190.458,64.895z M189.418,55.04
		c-0.858,0-1.508,0.65-1.508,1.404c0,0.78,0.65,1.404,1.508,1.404c0.832,0,1.508-0.624,1.508-1.404
		C190.926,55.69,190.302,55.04,189.418,55.04z"/>
	<path class="st0" d="M211.128,64.947c-0.702-0.156-1.508-0.702-1.82-1.561c-0.52,0.962-1.638,1.43-3.068,1.43
		c-2.08,0-3.926-1.456-3.926-3.899c0-2.158,1.69-3.614,4.03-3.849l2.34-0.234v-0.39c0-0.702-0.572-1.17-1.846-1.17
		c-1.144,0-2.418,0.364-3.276,0.91l-0.676-2.886c0.962-0.625,2.574-1.041,4.134-1.041c3.12,0,5.33,1.431,5.33,4.265v3.849
		c0,1.378,0.52,2.105,1.43,2.443L211.128,64.947z M208.684,59.278l-1.43,0.13c-0.988,0.078-1.43,0.78-1.43,1.482
		c0,0.624,0.468,1.145,1.196,1.145c0.91,0,1.664-0.702,1.664-1.717V59.278z"/>
	<path class="st0" d="M219.058,64.895c-2.418-0.104-4.03-1.352-4.03-4.186V45.914h3.77V60.24c0,0.963,0.546,1.482,1.586,1.561
		L219.058,64.895z"/>
	<path class="st0" d="M227.638,64.791c-3.562,0-6.422-2.522-6.422-6.267s2.86-6.267,6.422-6.267c3.536,0,6.422,2.522,6.422,6.267
		S231.174,64.791,227.638,64.791z M227.638,55.586c-1.43,0-2.652,1.248-2.652,2.99s1.222,2.99,2.652,2.99
		c1.404,0,2.652-1.248,2.652-2.99S229.042,55.586,227.638,55.586z"/>
	<path class="st0" d="M243.367,64.427v-7.229c0-0.857-0.572-1.612-1.742-1.612c-1.144,0-1.872,0.729-1.872,1.664v7.177h-3.822
		V52.648h3.51v1.586h0.026c0.468-1.248,1.69-1.95,3.588-1.95c2.574,0,4.134,1.456,4.134,3.952v8.19H243.367z"/>
	<path class="st0" d="M254.547,70.433c-3.432,0-5.72-1.95-5.72-4.42c0-1.794,1.196-2.86,2.418-3.172l-1.508-1.508
		c0.104-0.755,0.754-1.404,1.43-1.69c-0.884-0.546-1.716-1.664-1.716-3.146c0-2.496,1.794-4.238,4.862-4.238
		c0.702,0,1.248,0.104,1.742,0.234c0.52,0.13,1.092,0.208,1.69,0.208c0.65,0,1.326-0.156,1.846-0.39l0.702,2.912
		c-0.364,0.208-0.936,0.39-1.456,0.363c0.13,0.234,0.286,0.78,0.286,1.196c0,1.977-1.56,3.641-3.848,3.796
		c-0.468,0.026-0.78,0.131-0.78,0.442c0,0.13,0.104,0.286,0.312,0.364l1.82,0.65c2.314,0.832,3.562,2.002,3.562,4.16
		C260.189,68.613,257.979,70.433,254.547,70.433z M255.353,64.895l-1.404-0.39c-0.91,0.026-1.586,0.676-1.586,1.534
		c0,0.806,0.702,1.481,2.08,1.481c1.352,0,2.08-0.624,2.08-1.3C256.523,65.675,256.107,65.103,255.353,64.895z M254.313,55.04
		c-0.858,0-1.508,0.65-1.508,1.404c0,0.78,0.65,1.404,1.508,1.404c0.832,0,1.508-0.624,1.508-1.404
		C255.821,55.69,255.197,55.04,254.313,55.04z"/>
	<path class="st0" d="M263.127,64.791c-0.702,0-2.158-1.456-2.158-2.158c0-0.676,1.456-2.132,2.158-2.132s2.158,1.456,2.158,2.132
		C265.285,63.335,263.829,64.791,263.127,64.791z"/>
</g>
</svg>
