<?xml version="1.0" encoding="utf-8"?>
<!-- Generator: Adobe Illustrator 17.0.0, SVG Export Plug-In . SVG Version: 6.00 Build 0)  -->
<!DOCTYPE svg PUBLIC "-//W3C//DTD SVG 1.1//EN" "http://www.w3.org/Graphics/SVG/1.1/DTD/svg11.dtd">
<svg version="1.1" xmlns="http://www.w3.org/2000/svg" xmlns:xlink="http://www.w3.org/1999/xlink" x="0px" y="0px" width="728px"
	 height="90px" viewBox="0 0 728 90" style="enable-background:new 0 0 728 90;" xml:space="preserve">
<style type="text/css">
	.st0{fill:#231F20;}
</style>
<g id="Layer_2">
	<g>
		<path class="st0" d="M45.617,40.127c-0.78-0.468-2.054-0.858-3.432-0.858c-2.938,0-5.304,1.976-5.304,5.044
			c0,3.042,2.34,5.071,5.486,5.071c1.378,0,2.6-0.261,3.458-0.729l-0.338,3.51c-0.884,0.416-2.08,0.624-3.77,0.624
			c-4.291,0-8.893-2.912-8.893-8.528s4.628-8.554,8.893-8.554c2.054,0,3.666,0.442,4.654,1.014L45.617,40.127z"/>
		<path class="st0" d="M54.3,52.921c-3.562,0-6.422-2.522-6.422-6.267c0-3.745,2.86-6.267,6.422-6.267
			c3.536,0,6.422,2.522,6.422,6.267C60.722,50.398,57.836,52.921,54.3,52.921z M54.3,43.716c-1.43,0-2.652,1.248-2.652,2.99
			s1.222,2.99,2.652,2.99c1.404,0,2.652-1.248,2.652-2.99S55.704,43.716,54.3,43.716z"/>
		<path class="st0" d="M69.978,52.557v-7.229c0-0.858-0.572-1.612-1.742-1.612c-1.144,0-1.872,0.728-1.872,1.664v7.177h-3.822
			V40.778h3.51v1.586h0.026c0.468-1.248,1.69-1.95,3.588-1.95c2.574,0,4.134,1.456,4.134,3.952v8.191H69.978z"/>
		<path class="st0" d="M79.91,52.816c-1.612,0-2.782-0.338-3.744-0.832l-0.338-3.38c1.04,0.728,2.392,1.273,3.692,1.273
			c0.702,0,1.144-0.363,1.144-0.806c0-0.494-0.39-0.702-1.066-0.91c-2.262-0.649-3.614-1.794-3.614-3.848
			c0-2.314,1.872-3.796,4.42-3.796c1.456,0,2.886,0.39,3.484,0.702l-0.65,2.808c-0.572-0.312-1.508-0.65-2.444-0.65
			c-0.624,0-1.04,0.286-1.04,0.754c0,0.442,0.312,0.676,1.04,0.858c2.652,0.703,3.744,2.029,3.744,4.004
			C84.538,50.996,83.082,52.816,79.91,52.816z"/>
		<path class="st0" d="M92.312,52.921c-3.562,0-6.422-2.522-6.422-6.267c0-3.745,2.86-6.267,6.422-6.267
			c3.536,0,6.422,2.522,6.422,6.267C98.734,50.398,95.848,52.921,92.312,52.921z M92.312,43.716c-1.43,0-2.652,1.248-2.652,2.99
			s1.222,2.99,2.652,2.99c1.404,0,2.652-1.248,2.652-2.99S93.716,43.716,92.312,43.716z"/>
		<path class="st0" d="M104.688,53.024c-2.418-0.104-4.03-1.352-4.03-4.187V34.043h3.77V48.37c0,0.962,0.546,1.482,1.586,1.561
			L104.688,53.024z"/>
		<path class="st0" d="M109.575,39.166c-0.676,0-2.054-1.378-2.054-2.054c0-0.676,1.378-2.028,2.054-2.028s2.054,1.352,2.054,2.028
			S110.251,39.166,109.575,39.166z M107.651,52.557V40.778h3.848v11.779H107.651z"/>
		<path class="st0" d="M122.783,52.557v-1.456h-0.026c-0.65,1.196-2.002,1.794-3.64,1.794c-2.886,0-5.668-2.185-5.668-6.214
			c0-3.797,2.704-6.267,5.98-6.267c1.248,0,2.522,0.416,2.99,0.806v-7.176h3.718v18.513
			C126.137,52.557,122.783,52.557,122.783,52.557z M122.419,44.834c-0.364-0.494-1.144-1.066-2.314-1.066
			c-1.664,0-2.834,1.3-2.834,2.99c0,1.69,1.17,2.99,2.834,2.99c1.118,0,1.898-0.598,2.314-1.222V44.834z"/>
		<path class="st0" d="M136.823,53.076c-0.702-0.155-1.508-0.702-1.82-1.56c-0.52,0.962-1.638,1.43-3.068,1.43
			c-2.08,0-3.926-1.456-3.926-3.9c0-2.157,1.69-3.614,4.03-3.848l2.34-0.234v-0.39c0-0.702-0.572-1.17-1.846-1.17
			c-1.144,0-2.418,0.364-3.276,0.91l-0.676-2.886c0.962-0.624,2.574-1.04,4.134-1.04c3.12,0,5.33,1.43,5.33,4.264V48.5
			c0,1.378,0.52,2.106,1.43,2.444L136.823,53.076z M134.379,47.408l-1.43,0.13c-0.988,0.078-1.43,0.78-1.43,1.482
			c0,0.624,0.468,1.144,1.196,1.144c0.91,0,1.664-0.702,1.664-1.716L134.379,47.408L134.379,47.408z"/>
		<path class="st0" d="M148.626,43.898h-3.068v4.369c0,1.014,0.546,1.43,1.56,1.43c0.442,0,0.702-0.026,0.988-0.156l-0.338,2.887
			c-0.364,0.182-1.014,0.312-1.768,0.312c-2.652,0-4.238-1.404-4.238-3.744V43.9h-1.976v-3.12h1.976v-2.522l3.796-1.378v3.9h3.796
			L148.626,43.898z"/>
		<path class="st0" d="M161.444,46.004l-1.69,1.717h-5.772c0.182,0.962,1.482,2.054,3.484,2.054c1.222,0,2.47-0.364,3.25-0.884
			l-0.364,3.275c-0.884,0.469-2.236,0.78-3.744,0.78c-3.588,0-6.475-2.496-6.475-6.344c0-3.797,2.756-6.215,6.137-6.215
			c3.276,0,5.278,2.262,5.278,4.706C161.548,45.38,161.497,45.771,161.444,46.004z M156.271,43.248
			c-1.118,0-2.054,0.858-2.288,1.924h3.978c0-0.078,0.026-0.156,0.026-0.26C157.986,44.106,157.284,43.248,156.271,43.248z"/>
		<path class="st0" d="M178.188,44.574c-0.78-0.494-1.586-0.754-2.522-0.754c-1.664,0-2.99,1.196-2.99,2.913
			c0,1.689,1.326,2.912,3.068,2.912c0.988,0,1.742-0.208,2.574-0.65l-0.338,3.25c-0.78,0.364-1.794,0.572-2.886,0.572
			c-3.302,0-6.37-2.34-6.37-6.136c0-3.849,3.094-6.163,6.292-6.163c1.56,0,2.834,0.312,3.875,0.884L178.188,44.574z"/>
		<path class="st0" d="M186.69,52.921c-3.562,0-6.422-2.522-6.422-6.267c0-3.745,2.86-6.267,6.422-6.267
			c3.536,0,6.422,2.522,6.422,6.267C193.112,50.398,190.227,52.921,186.69,52.921z M186.69,43.716c-1.43,0-2.652,1.248-2.652,2.99
			s1.222,2.99,2.652,2.99c1.404,0,2.652-1.248,2.652-2.99S188.094,43.716,186.69,43.716z"/>
		<path class="st0" d="M202.368,52.557v-7.229c0-0.858-0.572-1.612-1.742-1.612c-1.144,0-1.872,0.728-1.872,1.664v7.177h-3.822
			V40.778h3.51v1.586h0.026c0.468-1.248,1.69-1.95,3.588-1.95c2.574,0,4.134,1.456,4.134,3.952v8.191H202.368z"/>
		<path class="st0" d="M216.667,37.45c-0.442-0.182-1.066-0.312-1.534-0.312c-1.404,0-2.132,0.832-2.132,2.522v1.118h3.38
			l-0.754,3.12h-2.626v8.659h-3.692v-8.659h-1.794v-3.12h1.794V39.4c0-3.588,2.314-5.356,5.278-5.356c1.092,0,2.184,0.13,2.782,0.39
			L216.667,37.45z"/>
		<path class="st0" d="M219.761,39.166c-0.676,0-2.054-1.378-2.054-2.054c0-0.676,1.378-2.028,2.054-2.028s2.054,1.352,2.054,2.028
			S220.437,39.166,219.761,39.166z M217.837,52.557V40.778h3.848v11.779H217.837z"/>
		<path class="st0" d="M232.969,52.557v-1.456h-0.026c-0.65,1.196-2.002,1.794-3.64,1.794c-2.886,0-5.668-2.185-5.668-6.214
			c0-3.797,2.704-6.267,5.98-6.267c1.248,0,2.522,0.416,2.99,0.806v-7.176h3.718v18.513
			C236.323,52.557,232.969,52.557,232.969,52.557z M232.605,44.834c-0.364-0.494-1.144-1.066-2.314-1.066
			c-1.664,0-2.834,1.3-2.834,2.99c0,1.69,1.17,2.99,2.834,2.99c1.118,0,1.898-0.598,2.314-1.222V44.834z"/>
		<path class="st0" d="M249.505,46.004l-1.69,1.717h-5.772c0.182,0.962,1.482,2.054,3.484,2.054c1.222,0,2.47-0.364,3.25-0.884
			l-0.364,3.275c-0.884,0.469-2.236,0.78-3.744,0.78c-3.588,0-6.475-2.496-6.475-6.344c0-3.797,2.756-6.215,6.137-6.215
			c3.276,0,5.278,2.262,5.278,4.706C249.609,45.38,249.557,45.771,249.505,46.004z M244.331,43.248
			c-1.118,0-2.054,0.858-2.288,1.924h3.978c0-0.078,0.026-0.156,0.026-0.26C246.047,44.106,245.345,43.248,244.331,43.248z"/>
		<path class="st0" d="M258.812,52.557v-7.229c0-0.858-0.572-1.612-1.742-1.612c-1.144,0-1.872,0.728-1.872,1.664v7.177h-3.822
			V40.778h3.51v1.586h0.026c0.468-1.248,1.69-1.95,3.588-1.95c2.574,0,4.134,1.456,4.134,3.952v8.191H258.812z"/>
		<path class="st0" d="M272.801,43.898h-3.068v4.369c0,1.014,0.546,1.43,1.561,1.43c0.442,0,0.702-0.026,0.988-0.156l-0.338,2.887
			c-0.364,0.182-1.014,0.312-1.768,0.312c-2.652,0-4.238-1.404-4.238-3.744V43.9h-1.976v-3.12h1.976v-2.522l3.796-1.378v3.9h3.796
			L272.801,43.898z"/>
		<path class="st0" d="M278.911,53.024c-2.418-0.104-4.03-1.352-4.03-4.187V34.043h3.77V48.37c0,0.962,0.546,1.482,1.586,1.561
			L278.911,53.024z"/>
		<path class="st0" d="M288.999,51.387c-1.794,4.731-3.667,6.448-5.876,7.306l-2.34-2.34c1.898-0.728,3.354-2.106,4.316-4.603
			l-4.238-10.972h3.692l1.716,4.576c0.26,0.676,0.52,1.482,0.702,2.314h0.052c0.234-0.806,0.494-1.638,0.754-2.314l1.716-4.576h3.51
			L288.999,51.387z"/>
		<path class="st0" d="M313.23,52.66h-2.626l-1.586-4.68c-0.234-0.729-0.468-1.561-0.702-2.444h-0.052
			c-0.182,0.884-0.416,1.742-0.65,2.418l-1.586,4.706h-2.496l-4.108-11.882h3.484l1.456,4.472c0.208,0.676,0.442,1.508,0.572,2.263
			h0.052c0.13-0.729,0.338-1.587,0.572-2.263l1.482-4.472h2.886l1.482,4.446c0.234,0.728,0.39,1.534,0.546,2.289h0.052
			c0.156-0.755,0.364-1.587,0.598-2.289l1.482-4.446h3.25L313.23,52.66z"/>
		<path class="st0" d="M320.77,39.166c-0.676,0-2.054-1.378-2.054-2.054c0-0.676,1.378-2.028,2.054-2.028s2.054,1.352,2.054,2.028
			C322.824,37.788,321.446,39.166,320.77,39.166z M318.846,52.557V40.778h3.848v11.779H318.846z"/>
		<path class="st0" d="M332.99,43.898h-3.068v4.369c0,1.014,0.546,1.43,1.56,1.43c0.442,0,0.702-0.026,0.988-0.156l-0.338,2.887
			c-0.364,0.182-1.014,0.312-1.768,0.312c-2.652,0-4.238-1.404-4.238-3.744V43.9h-1.976v-3.12h1.976v-2.522l3.796-1.378v3.9h3.796
			L332.99,43.898z"/>
		<path class="st0" d="M342.506,52.557v-7.229c0-0.858-0.598-1.612-1.769-1.612c-1.144,0-1.846,0.728-1.846,1.664v7.177h-3.822
			V34.043h3.77v7.826h0.026c0.598-0.91,1.69-1.456,3.328-1.456c2.601,0,4.134,1.456,4.134,3.952v8.191L342.506,52.557
			L342.506,52.557z"/>
		<path class="st0" d="M362.786,53.076c-0.702-0.155-1.508-0.702-1.82-1.56c-0.52,0.962-1.638,1.43-3.068,1.43
			c-2.08,0-3.926-1.456-3.926-3.9c0-2.157,1.69-3.614,4.03-3.848l2.34-0.234v-0.39c0-0.702-0.572-1.17-1.846-1.17
			c-1.144,0-2.418,0.364-3.276,0.91l-0.676-2.886c0.962-0.624,2.574-1.04,4.134-1.04c3.12,0,5.33,1.43,5.33,4.264V48.5
			c0,1.378,0.52,2.106,1.43,2.444L362.786,53.076z M360.342,47.408l-1.43,0.13c-0.988,0.078-1.43,0.78-1.43,1.482
			c0,0.624,0.468,1.144,1.196,1.144c0.91,0,1.664-0.702,1.664-1.716L360.342,47.408L360.342,47.408z"/>
		<path class="st0" d="M380.361,39.27v13.287h-4.03V39.27h-4.759v-3.302h13.547v3.302C385.119,39.27,380.361,39.27,380.361,39.27z"
			/>
		<path class="st0" d="M386.887,52.557v-16.59h4.03v16.589L386.887,52.557L386.887,52.557z"/>
		<path class="st0" d="M404.567,52.557l-1.378-3.744h-5.278l-1.378,3.744h-3.797l6.526-16.719h2.782l6.526,16.719H404.567z
			 M401.057,42.598c-0.156-0.442-0.363-0.988-0.494-1.534h-0.052c-0.13,0.546-0.312,1.118-0.468,1.534l-1.118,3.068h3.25
			L401.057,42.598z"/>
		<path class="st0" d="M420.896,52.557l-1.378-3.744h-5.278l-1.378,3.744h-3.797l6.526-16.719h2.782l6.526,16.719H420.896z
			 M417.385,42.598c-0.156-0.442-0.363-0.988-0.494-1.534h-0.052c-0.13,0.546-0.312,1.118-0.468,1.534l-1.118,3.068h3.25
			L417.385,42.598z"/>
		<path class="st0" d="M432.595,52.557v-16.59h4.03v16.589L432.595,52.557L432.595,52.557z"/>
		<path class="st0" d="M448.923,52.557l-4.446-6.526h-1.065v6.526h-3.874v-16.59h6.058c2.834,0,5.356,1.898,5.356,5.019
			c0,1.924-1.145,3.51-2.548,4.16l5.278,7.411H448.923z M444.997,39.218h-1.586v3.718h1.586c1.04,0,2.08-0.572,2.08-1.846
			C447.077,39.842,446.037,39.218,444.997,39.218z"/>
		<path class="st0" d="M464.965,52.557l-1.379-3.744h-5.277l-1.379,3.744h-3.796l6.526-16.719h2.782l6.526,16.719H464.965z
			 M461.454,42.598c-0.155-0.442-0.364-0.988-0.494-1.534h-0.052c-0.13,0.546-0.312,1.118-0.468,1.534l-1.118,3.068h3.25
			L461.454,42.598z"/>
	</g>
</g>
<g id="Layer_3">
	<g>
		<path class="st0" d="M471.803,52.804c-0.702,0-2.158-1.456-2.158-2.158c0-0.677,1.456-2.133,2.158-2.133s2.158,1.456,2.158,2.133
			C473.961,51.348,472.505,52.804,471.803,52.804z"/>
	</g>
</g>
</svg>
