<?xml version="1.0" encoding="utf-8"?>
<!-- Generator: Adobe Illustrator 17.0.0, SVG Export Plug-In . SVG Version: 6.00 Build 0)  -->
<!DOCTYPE svg PUBLIC "-//W3C//DTD SVG 1.1//EN" "http://www.w3.org/Graphics/SVG/1.1/DTD/svg11.dtd">
<svg version="1.1" id="Layer_1" xmlns="http://www.w3.org/2000/svg" xmlns:xlink="http://www.w3.org/1999/xlink" x="0px" y="0px"
	 width="728px" height="90px" viewBox="0 0 728 90" style="enable-background:new 0 0 728 90;" xml:space="preserve">
<style type="text/css">
	.st0{fill:#231F20;}
</style>
<g>
	<path class="st0" d="M39.048,28.898H35.98v4.368c0,1.014,0.546,1.43,1.56,1.43c0.442,0,0.702-0.026,0.988-0.156l-0.338,2.886
		c-0.364,0.182-1.014,0.312-1.768,0.312c-2.652,0-4.238-1.404-4.238-3.744v-5.096h-1.976v-3.12h1.976v-2.522l3.796-1.378v3.9h3.796
		L39.048,28.898z"/>
	<path class="st0" d="M48.564,37.556v-7.229c0-0.858-0.598-1.612-1.769-1.612c-1.144,0-1.846,0.728-1.846,1.664v7.176h-3.822V19.043
		h3.77v7.826h0.026c0.598-0.91,1.69-1.456,3.328-1.456c2.601,0,4.134,1.456,4.134,3.952v8.19H48.564z"/>
	<path class="st0" d="M65.568,31.004l-1.69,1.716h-5.772c0.182,0.962,1.482,2.054,3.484,2.054c1.222,0,2.47-0.364,3.25-0.884
		l-0.364,3.276c-0.884,0.468-2.236,0.78-3.744,0.78c-3.588,0-6.474-2.496-6.474-6.344c0-3.796,2.756-6.214,6.136-6.214
		c3.276,0,5.278,2.262,5.278,4.706C65.672,30.38,65.62,30.77,65.568,31.004z M60.394,28.248c-1.118,0-2.054,0.858-2.288,1.924h3.979
		c0-0.078,0.026-0.156,0.026-0.26C62.11,29.106,61.408,28.248,60.394,28.248z"/>
	<path class="st0" d="M74.304,36.386c-1.794,4.732-3.666,6.448-5.876,7.306l-2.34-2.34c1.898-0.728,3.354-2.106,4.316-4.602
		l-4.238-10.972h3.692l1.716,4.576c0.26,0.676,0.521,1.482,0.702,2.314h0.052c0.234-0.806,0.494-1.638,0.754-2.314l1.716-4.576h3.51
		L74.304,36.386z"/>
	<path class="st0" d="M94.61,29.574c-0.78-0.494-1.586-0.754-2.522-0.754c-1.664,0-2.99,1.196-2.99,2.912
		c0,1.69,1.326,2.912,3.068,2.912c0.988,0,1.742-0.208,2.574-0.65l-0.338,3.25c-0.78,0.364-1.794,0.572-2.886,0.572
		c-3.302,0-6.37-2.34-6.37-6.136c0-3.849,3.094-6.163,6.292-6.163c1.56,0,2.834,0.312,3.874,0.884L94.61,29.574z"/>
	<path class="st0" d="M102.852,37.92c-3.562,0-6.422-2.522-6.422-6.267s2.86-6.266,6.422-6.266c3.536,0,6.422,2.522,6.422,6.266
		S106.388,37.92,102.852,37.92z M102.852,28.716c-1.43,0-2.652,1.248-2.652,2.99c0,1.742,1.222,2.99,2.652,2.99
		c1.404,0,2.652-1.248,2.652-2.99C105.503,29.964,104.255,28.716,102.852,28.716z"/>
	<path class="st0" d="M118.894,37.556v-1.612h-0.026c-0.468,1.248-1.716,1.95-3.614,1.95c-2.574,0-4.134-1.43-4.134-3.926v-8.19
		h3.822v7.228c0,0.858,0.598,1.612,1.768,1.612c1.144,0,1.846-0.754,1.846-1.69v-7.15h3.822v11.778H118.894z"/>
	<path class="st0" d="M128.877,38.024c-2.418-0.104-4.03-1.352-4.03-4.186V19.043h3.77V33.37c0,0.962,0.546,1.482,1.586,1.56
		L128.877,38.024z"/>
	<path class="st0" d="M140.421,37.556V36.1h-0.026c-0.65,1.196-2.002,1.794-3.64,1.794c-2.886,0-5.668-2.184-5.668-6.214
		c0-3.796,2.704-6.267,5.98-6.267c1.248,0,2.522,0.416,2.99,0.806v-7.176h3.718v18.513H140.421z M140.057,29.834
		c-0.364-0.494-1.144-1.066-2.314-1.066c-1.664,0-2.834,1.3-2.834,2.99s1.17,2.99,2.834,2.99c1.118,0,1.898-0.598,2.314-1.222
		V29.834z"/>
	<path class="st0" d="M160.363,38.076c-0.702-0.156-1.508-0.702-1.82-1.56c-0.52,0.962-1.638,1.43-3.068,1.43
		c-2.08,0-3.926-1.456-3.926-3.9c0-2.158,1.69-3.614,4.03-3.848l2.34-0.234v-0.39c0-0.702-0.572-1.17-1.846-1.17
		c-1.144,0-2.418,0.364-3.276,0.91l-0.676-2.886c0.962-0.624,2.574-1.04,4.134-1.04c3.12,0,5.33,1.43,5.33,4.264V33.5
		c0,1.378,0.52,2.106,1.43,2.444L160.363,38.076z M157.919,32.408l-1.43,0.13c-0.988,0.078-1.43,0.78-1.43,1.482
		c0,0.624,0.468,1.144,1.196,1.144c0.91,0,1.664-0.702,1.664-1.716V32.408z"/>
	<path class="st0" d="M173.025,29.574c-0.78-0.494-1.586-0.754-2.522-0.754c-1.664,0-2.99,1.196-2.99,2.912
		c0,1.69,1.326,2.912,3.068,2.912c0.988,0,1.742-0.208,2.574-0.65l-0.338,3.25c-0.78,0.364-1.794,0.572-2.886,0.572
		c-3.302,0-6.37-2.34-6.37-6.136c0-3.849,3.094-6.163,6.292-6.163c1.56,0,2.834,0.312,3.874,0.884L173.025,29.574z"/>
	<path class="st0" d="M183.061,37.556v-7.229c0-0.858-0.598-1.612-1.769-1.612c-1.144,0-1.846,0.728-1.846,1.664v7.176h-3.822
		V19.043h3.77v7.826h0.026c0.598-0.91,1.69-1.456,3.328-1.456c2.601,0,4.134,1.456,4.134,3.952v8.19H183.061z"/>
	<path class="st0" d="M191.25,24.166c-0.676,0-2.054-1.378-2.054-2.054c0-0.676,1.378-2.028,2.054-2.028
		c0.676,0,2.054,1.352,2.054,2.028C193.304,22.788,191.926,24.166,191.25,24.166z M189.326,37.556V25.778h3.848v11.778H189.326z"/>
	<path class="st0" d="M206.382,31.004l-1.69,1.716h-5.772c0.182,0.962,1.482,2.054,3.484,2.054c1.222,0,2.47-0.364,3.25-0.884
		l-0.364,3.276c-0.884,0.468-2.236,0.78-3.744,0.78c-3.588,0-6.475-2.496-6.475-6.344c0-3.796,2.756-6.214,6.137-6.214
		c3.276,0,5.278,2.262,5.278,4.706C206.486,30.38,206.434,30.77,206.382,31.004z M201.208,28.248c-1.118,0-2.054,0.858-2.288,1.924
		h3.978c0-0.078,0.026-0.156,0.026-0.26C202.924,29.106,202.222,28.248,201.208,28.248z"/>
	<path class="st0" d="M214.39,37.66h-2.86l-4.524-11.882h3.692l1.664,4.498c0.234,0.624,0.468,1.508,0.65,2.288h0.052
		c0.182-0.754,0.442-1.664,0.676-2.288l1.664-4.498h3.536L214.39,37.66z"/>
	<path class="st0" d="M230.562,31.004l-1.69,1.716H223.1c0.182,0.962,1.482,2.054,3.484,2.054c1.222,0,2.47-0.364,3.25-0.884
		l-0.364,3.276c-0.884,0.468-2.236,0.78-3.744,0.78c-3.588,0-6.475-2.496-6.475-6.344c0-3.796,2.756-6.214,6.137-6.214
		c3.276,0,5.278,2.262,5.278,4.706C230.666,30.38,230.614,30.77,230.562,31.004z M225.388,28.248c-1.118,0-2.054,0.858-2.288,1.924
		h3.978c0-0.078,0.026-0.156,0.026-0.26C227.104,29.106,226.401,28.248,225.388,28.248z"/>
</g>
<g>
	<path class="st0" d="M34.992,63.816c-1.612,0-2.782-0.338-3.744-0.832l-0.338-3.38c1.04,0.728,2.392,1.273,3.692,1.273
		c0.702,0,1.144-0.363,1.144-0.806c0-0.494-0.39-0.702-1.066-0.91c-2.262-0.649-3.614-1.794-3.614-3.848
		c0-2.314,1.872-3.797,4.42-3.797c1.456,0,2.886,0.391,3.484,0.702l-0.65,2.809c-0.572-0.312-1.508-0.65-2.444-0.65
		c-0.624,0-1.04,0.286-1.04,0.754c0,0.442,0.312,0.677,1.04,0.858c2.652,0.702,3.744,2.028,3.744,4.004
		C39.62,61.996,38.164,63.816,34.992,63.816z"/>
	<path class="st0" d="M47.265,63.921c-3.562,0-6.422-2.522-6.422-6.267s2.86-6.267,6.422-6.267c3.536,0,6.422,2.522,6.422,6.267
		S50.801,63.921,47.265,63.921z M47.265,54.716c-1.43,0-2.652,1.248-2.652,2.99s1.222,2.99,2.652,2.99
		c1.404,0,2.652-1.248,2.652-2.99S48.668,54.716,47.265,54.716z"/>
	<path class="st0" d="M70.066,63.557v-7.229c0-0.858-0.416-1.612-1.664-1.612c-1.222,0-1.769,0.729-1.769,1.664v7.177h-3.822v-7.229
		c0-0.858-0.416-1.612-1.664-1.612c-1.222,0-1.768,0.729-1.768,1.664v7.177h-3.822V51.778h3.536v1.586h0.026
		c0.468-1.248,1.638-1.95,3.484-1.95c1.69,0,2.964,0.676,3.484,1.924c0.494-1.144,1.872-1.924,3.64-1.924
		c2.678,0,4.16,1.456,4.16,3.952v8.19H70.066z"/>
	<path class="st0" d="M87.096,57.004l-1.69,1.717h-5.772c0.182,0.962,1.482,2.054,3.484,2.054c1.222,0,2.47-0.364,3.25-0.884
		l-0.364,3.275c-0.884,0.469-2.236,0.78-3.744,0.78c-3.588,0-6.475-2.496-6.475-6.344c0-3.797,2.756-6.215,6.137-6.215
		c3.276,0,5.278,2.263,5.278,4.706C87.2,56.38,87.148,56.771,87.096,57.004z M81.922,54.248c-1.118,0-2.054,0.858-2.288,1.924h3.978
		c0-0.078,0.026-0.155,0.026-0.26C83.638,55.106,82.936,54.248,81.922,54.248z"/>
	<path class="st0" d="M97.028,54.898H93.96v4.368c0,1.014,0.546,1.43,1.56,1.43c0.442,0,0.702-0.026,0.988-0.156l-0.338,2.887
		c-0.364,0.182-1.014,0.312-1.768,0.312c-2.652,0-4.238-1.404-4.238-3.744v-5.096h-1.976v-3.12h1.976v-2.522l3.796-1.378v3.9h3.796
		L97.028,54.898z"/>
	<path class="st0" d="M106.544,63.557v-7.229c0-0.858-0.598-1.612-1.769-1.612c-1.144,0-1.846,0.729-1.846,1.664v7.177h-3.822
		V45.043h3.77v7.827h0.026c0.598-0.91,1.69-1.456,3.328-1.456c2.601,0,4.134,1.456,4.134,3.952v8.19H106.544z"/>
	<path class="st0" d="M114.733,50.166c-0.676,0-2.054-1.378-2.054-2.054c0-0.677,1.378-2.028,2.054-2.028
		c0.676,0,2.054,1.352,2.054,2.028C116.787,48.788,115.409,50.166,114.733,50.166z M112.809,63.557V51.778h3.848v11.778H112.809z"/>
	<path class="st0" d="M126.563,63.557v-7.229c0-0.858-0.572-1.612-1.742-1.612c-1.144,0-1.872,0.729-1.872,1.664v7.177h-3.822
		V51.778h3.51v1.586h0.026c0.468-1.248,1.69-1.95,3.588-1.95c2.574,0,4.134,1.456,4.134,3.952v8.19H126.563z"/>
	<path class="st0" d="M137.769,69.562c-3.432,0-5.72-1.95-5.72-4.42c0-1.794,1.196-2.86,2.418-3.172l-1.508-1.509
		c0.104-0.754,0.754-1.403,1.43-1.689c-0.884-0.546-1.716-1.664-1.716-3.146c0-2.496,1.794-4.238,4.862-4.238
		c0.702,0,1.248,0.104,1.742,0.234c0.52,0.13,1.092,0.208,1.69,0.208c0.65,0,1.326-0.156,1.846-0.39l0.702,2.912
		c-0.364,0.208-0.936,0.39-1.456,0.363c0.13,0.234,0.286,0.78,0.286,1.196c0,1.977-1.56,3.641-3.848,3.796
		c-0.468,0.026-0.78,0.13-0.78,0.442c0,0.13,0.104,0.286,0.312,0.364l1.82,0.649c2.314,0.832,3.562,2.002,3.562,4.16
		C143.411,67.742,141.201,69.562,137.769,69.562z M138.575,64.024l-1.404-0.39c-0.91,0.025-1.586,0.676-1.586,1.534
		c0,0.806,0.702,1.481,2.08,1.481c1.352,0,2.08-0.624,2.08-1.3C139.745,64.805,139.329,64.232,138.575,64.024z M137.535,54.17
		c-0.858,0-1.508,0.65-1.508,1.404c0,0.78,0.65,1.404,1.508,1.404c0.832,0,1.508-0.624,1.508-1.404
		C139.043,54.82,138.419,54.17,137.535,54.17z"/>
	<path class="st0" d="M158.205,55.834c-0.234-0.13-0.754-0.286-1.144-0.286c-1.222,0-2.34,0.65-2.34,2.522v5.486h-3.822V51.778h3.77
		v2.626h0.026c0.39-1.847,1.769-2.834,3.354-2.834c0.364,0,0.806,0.052,1.092,0.155L158.205,55.834z"/>
	<path class="st0" d="M170.944,57.004l-1.69,1.717h-5.772c0.182,0.962,1.482,2.054,3.484,2.054c1.222,0,2.47-0.364,3.25-0.884
		l-0.364,3.275c-0.884,0.469-2.236,0.78-3.744,0.78c-3.588,0-6.475-2.496-6.475-6.344c0-3.797,2.756-6.215,6.137-6.215
		c3.276,0,5.278,2.263,5.278,4.706C171.048,56.38,170.997,56.771,170.944,57.004z M165.771,54.248c-1.118,0-2.054,0.858-2.288,1.924
		h3.978c0-0.078,0.026-0.155,0.026-0.26C167.486,55.106,166.784,54.248,165.771,54.248z"/>
	<path class="st0" d="M181.084,64.076c-0.702-0.155-1.508-0.702-1.82-1.56c-0.52,0.962-1.638,1.43-3.068,1.43
		c-2.08,0-3.926-1.456-3.926-3.9c0-2.157,1.69-3.613,4.03-3.848l2.34-0.234v-0.39c0-0.702-0.572-1.17-1.846-1.17
		c-1.144,0-2.418,0.364-3.276,0.91l-0.676-2.887c0.962-0.624,2.574-1.04,4.134-1.04c3.12,0,5.33,1.431,5.33,4.265V59.5
		c0,1.378,0.52,2.106,1.43,2.444L181.084,64.076z M178.64,58.408l-1.43,0.13c-0.988,0.078-1.43,0.78-1.43,1.482
		c0,0.624,0.468,1.144,1.196,1.144c0.91,0,1.664-0.702,1.664-1.716V58.408z"/>
	<path class="st0" d="M189.014,64.024c-2.418-0.104-4.03-1.352-4.03-4.187V45.043h3.77V59.37c0,0.962,0.546,1.482,1.586,1.561
		L189.014,64.024z"/>
	<path class="st0" d="M195.826,64.024c-2.418-0.104-4.03-1.352-4.03-4.187V45.043h3.77V59.37c0,0.962,0.546,1.482,1.586,1.561
		L195.826,64.024z"/>
	<path class="st0" d="M205.42,62.387c-1.794,4.731-3.666,6.448-5.876,7.307l-2.34-2.341c1.898-0.728,3.354-2.106,4.316-4.603
		l-4.238-10.972h3.692l1.716,4.576c0.26,0.676,0.521,1.481,0.702,2.313h0.052c0.234-0.806,0.494-1.638,0.754-2.313l1.716-4.576h3.51
		L205.42,62.387z"/>
	<path class="st0" d="M220.552,63.816c-1.612,0-2.782-0.338-3.744-0.832l-0.338-3.38c1.04,0.728,2.392,1.273,3.692,1.273
		c0.702,0,1.144-0.363,1.144-0.806c0-0.494-0.39-0.702-1.066-0.91c-2.262-0.649-3.614-1.794-3.614-3.848
		c0-2.314,1.872-3.797,4.42-3.797c1.456,0,2.886,0.391,3.484,0.702l-0.65,2.809c-0.572-0.312-1.508-0.65-2.444-0.65
		c-0.624,0-1.04,0.286-1.04,0.754c0,0.442,0.312,0.677,1.04,0.858c2.652,0.702,3.744,2.028,3.744,4.004
		C225.18,61.996,223.724,63.816,220.552,63.816z"/>
	<path class="st0" d="M239.74,63.66h-2.626l-1.586-4.68c-0.234-0.729-0.468-1.561-0.702-2.444h-0.052
		c-0.182,0.884-0.416,1.742-0.65,2.418l-1.586,4.706h-2.496l-4.108-11.882h3.484l1.456,4.472c0.208,0.676,0.442,1.508,0.572,2.263
		h0.052c0.13-0.729,0.338-1.587,0.572-2.263l1.482-4.472h2.886l1.482,4.446c0.234,0.728,0.39,1.533,0.546,2.288h0.052
		c0.156-0.755,0.364-1.587,0.598-2.288l1.482-4.446h3.25L239.74,63.66z"/>
	<path class="st0" d="M255.599,57.004l-1.69,1.717h-5.772c0.182,0.962,1.482,2.054,3.484,2.054c1.222,0,2.47-0.364,3.25-0.884
		l-0.364,3.275c-0.884,0.469-2.236,0.78-3.744,0.78c-3.588,0-6.474-2.496-6.474-6.344c0-3.797,2.756-6.215,6.136-6.215
		c3.276,0,5.278,2.263,5.278,4.706C255.703,56.38,255.651,56.771,255.599,57.004z M250.425,54.248c-1.118,0-2.054,0.858-2.288,1.924
		h3.979c0-0.078,0.026-0.155,0.026-0.26C252.141,55.106,251.439,54.248,250.425,54.248z"/>
	<path class="st0" d="M268.261,57.004l-1.69,1.717h-5.772c0.182,0.962,1.482,2.054,3.484,2.054c1.222,0,2.47-0.364,3.25-0.884
		l-0.364,3.275c-0.884,0.469-2.236,0.78-3.744,0.78c-3.588,0-6.474-2.496-6.474-6.344c0-3.797,2.756-6.215,6.136-6.215
		c3.276,0,5.278,2.263,5.278,4.706C268.365,56.38,268.313,56.771,268.261,57.004z M263.087,54.248c-1.118,0-2.054,0.858-2.288,1.924
		h3.979c0-0.078,0.026-0.155,0.026-0.26C264.803,55.106,264.101,54.248,263.087,54.248z"/>
	<path class="st0" d="M278.193,54.898h-3.068v4.368c0,1.014,0.546,1.43,1.56,1.43c0.442,0,0.702-0.026,0.988-0.156l-0.338,2.887
		c-0.364,0.182-1.014,0.312-1.768,0.312c-2.652,0-4.238-1.404-4.238-3.744v-5.096h-1.976v-3.12h1.976v-2.522l3.796-1.378v3.9h3.796
		L278.193,54.898z"/>
	<path class="st0" d="M281.833,63.921c-0.702,0-2.158-1.456-2.158-2.158c0-0.677,1.456-2.133,2.158-2.133
		c0.702,0,2.158,1.456,2.158,2.133C283.99,62.465,282.534,63.921,281.833,63.921z"/>
</g>
</svg>
