<?xml version="1.0" encoding="utf-8"?>
<!-- Generator: Adobe Illustrator 17.0.0, SVG Export Plug-In . SVG Version: 6.00 Build 0)  -->
<!DOCTYPE svg PUBLIC "-//W3C//DTD SVG 1.1//EN" "http://www.w3.org/Graphics/SVG/1.1/DTD/svg11.dtd">
<svg version="1.1" id="Layer_1" xmlns="http://www.w3.org/2000/svg" xmlns:xlink="http://www.w3.org/1999/xlink" x="0px" y="0px"
	 width="728px" height="90px" viewBox="0 0 728 90" style="enable-background:new 0 0 728 90;" xml:space="preserve">
<style type="text/css">
	.st0{fill:#231F20;}
</style>
<g>
	<path class="st0" d="M39.155,39.452h-6.136V22.863h5.434c2.574,0,4.862,1.69,4.862,4.395c0,0.988-0.494,2.236-1.378,2.73
		c1.456,0.468,2.886,2.184,2.886,4.29C44.823,37.502,42.275,39.452,39.155,39.452z M37.829,25.854h-1.196v3.406h1.196
		c0.962,0,1.846-0.494,1.846-1.69C39.675,26.348,38.791,25.854,37.829,25.854z M38.479,32.172h-1.846v4.342h1.846
		c1.222,0,2.47-0.65,2.47-2.158C40.949,32.874,39.727,32.172,38.479,32.172z"/>
	<path class="st0" d="M54.677,39.452V37.84h-0.026c-0.468,1.248-1.716,1.95-3.614,1.95c-2.574,0-4.134-1.43-4.134-3.926v-8.19h3.822
		v7.228c0,0.858,0.598,1.612,1.768,1.612c1.144,0,1.846-0.754,1.846-1.69v-7.15h3.822v11.778H54.677z"/>
	<path class="st0" d="M68.509,30.794h-3.068v4.368c0,1.014,0.546,1.43,1.56,1.43c0.442,0,0.702-0.026,0.988-0.156l-0.338,2.886
		c-0.364,0.182-1.014,0.312-1.768,0.312c-2.652,0-4.238-1.404-4.238-3.744v-5.096h-1.976v-3.12h1.976v-2.522l3.796-1.378v3.9h3.796
		L68.509,30.794z"/>
	<path class="st0" d="M78.44,26.062c-0.676,0-2.054-1.378-2.054-2.054c0-0.676,1.378-2.028,2.054-2.028
		c0.676,0,2.054,1.352,2.054,2.028C80.495,24.684,79.116,26.062,78.44,26.062z M76.516,39.452V27.674h3.848v11.778H76.516z"/>
	<path class="st0" d="M91.076,24.346c-0.442-0.182-1.066-0.312-1.534-0.312c-1.404,0-2.132,0.832-2.132,2.522v1.118h3.38
		l-0.754,3.12H87.41v8.658h-3.692v-8.658h-1.794v-3.12h1.794v-1.378c0-3.588,2.314-5.356,5.278-5.356c1.092,0,2.184,0.13,2.782,0.39
		L91.076,24.346z"/>
	<path class="st0" d="M105.922,30.794h-3.068v4.368c0,1.014,0.546,1.43,1.56,1.43c0.442,0,0.702-0.026,0.988-0.156l-0.338,2.886
		c-0.364,0.182-1.014,0.312-1.768,0.312c-2.652,0-4.238-1.404-4.238-3.744v-5.096h-1.976v-3.12h1.976v-2.522l3.796-1.378v3.9h3.796
		L105.922,30.794z"/>
	<path class="st0" d="M115.438,39.452v-7.229c0-0.858-0.598-1.612-1.769-1.612c-1.144,0-1.846,0.728-1.846,1.664v7.176h-3.822
		V20.939h3.77v7.826h0.026c0.598-0.91,1.69-1.456,3.328-1.456c2.601,0,4.134,1.456,4.134,3.952v8.19H115.438z"/>
	<path class="st0" d="M132.442,32.9l-1.69,1.716h-5.772c0.182,0.962,1.482,2.054,3.484,2.054c1.222,0,2.47-0.364,3.25-0.884
		l-0.364,3.276c-0.884,0.468-2.236,0.78-3.744,0.78c-3.588,0-6.475-2.496-6.475-6.344c0-3.796,2.756-6.214,6.137-6.214
		c3.276,0,5.278,2.262,5.278,4.706C132.546,32.276,132.494,32.666,132.442,32.9z M127.268,30.144c-1.118,0-2.054,0.858-2.288,1.924
		h3.978c0-0.078,0.026-0.156,0.026-0.26C128.984,31.002,128.282,30.144,127.268,30.144z"/>
	<path class="st0" d="M141.178,38.282c-1.794,4.732-3.667,6.448-5.876,7.306l-2.34-2.34c1.898-0.728,3.354-2.106,4.316-4.602
		l-4.238-10.972h3.692l1.716,4.576c0.26,0.676,0.52,1.482,0.702,2.314h0.052c0.234-0.806,0.494-1.638,0.754-2.314l1.716-4.576h3.51
		L141.178,38.282z"/>
	<path class="st0" d="M165.461,39.556h-2.626l-1.586-4.68c-0.234-0.728-0.468-1.56-0.702-2.444h-0.052
		c-0.182,0.884-0.416,1.742-0.65,2.418l-1.586,4.706h-2.496l-4.108-11.882h3.484l1.456,4.472c0.208,0.676,0.442,1.508,0.572,2.262
		h0.052c0.13-0.729,0.338-1.586,0.572-2.262l1.482-4.472h2.886l1.482,4.446c0.234,0.728,0.39,1.534,0.546,2.288h0.052
		c0.156-0.754,0.364-1.586,0.598-2.288l1.482-4.446h3.25L165.461,39.556z"/>
	<path class="st0" d="M181.321,32.9l-1.69,1.716h-5.772c0.182,0.962,1.482,2.054,3.484,2.054c1.222,0,2.47-0.364,3.25-0.884
		l-0.364,3.276c-0.884,0.468-2.236,0.78-3.744,0.78c-3.588,0-6.474-2.496-6.474-6.344c0-3.796,2.756-6.214,6.136-6.214
		c3.276,0,5.278,2.262,5.278,4.706C181.425,32.276,181.374,32.666,181.321,32.9z M176.147,30.144c-1.118,0-2.054,0.858-2.288,1.924
		h3.979c0-0.078,0.026-0.156,0.026-0.26C177.863,31.002,177.161,30.144,176.147,30.144z"/>
	<path class="st0" d="M190.577,31.73c-0.234-0.13-0.754-0.286-1.144-0.286c-1.222,0-2.34,0.65-2.34,2.522v5.486h-3.822V27.674h3.77
		V30.3h0.026c0.39-1.846,1.768-2.834,3.354-2.834c0.364,0,0.806,0.052,1.092,0.156L190.577,31.73z"/>
	<path class="st0" d="M203.317,32.9l-1.69,1.716h-5.772c0.182,0.962,1.482,2.054,3.484,2.054c1.222,0,2.47-0.364,3.25-0.884
		l-0.364,3.276c-0.884,0.468-2.236,0.78-3.744,0.78c-3.588,0-6.475-2.496-6.475-6.344c0-3.796,2.756-6.214,6.137-6.214
		c3.276,0,5.278,2.262,5.278,4.706C203.421,32.276,203.369,32.666,203.317,32.9z M198.143,30.144c-1.118,0-2.054,0.858-2.288,1.924
		h3.978c0-0.078,0.026-0.156,0.026-0.26C199.859,31.002,199.157,30.144,198.143,30.144z"/>
</g>
<g>
	<path class="st0" d="M45.811,65.557h-2.626l-1.586-4.681c-0.234-0.728-0.468-1.56-0.702-2.444h-0.052
		c-0.182,0.885-0.416,1.742-0.65,2.419l-1.586,4.706h-2.496l-4.108-11.883h3.484l1.456,4.473c0.208,0.676,0.442,1.508,0.572,2.262
		h0.052c0.13-0.729,0.338-1.586,0.572-2.262l1.482-4.473h2.886l1.482,4.446c0.234,0.728,0.39,1.534,0.546,2.288h0.052
		c0.156-0.754,0.364-1.586,0.598-2.288l1.482-4.446h3.25L45.811,65.557z"/>
	<path class="st0" d="M56.731,65.816c-3.562,0-6.422-2.522-6.422-6.267s2.86-6.266,6.422-6.266c3.536,0,6.422,2.521,6.422,6.266
		S60.267,65.816,56.731,65.816z M56.731,56.612c-1.43,0-2.652,1.248-2.652,2.99c0,1.741,1.222,2.989,2.652,2.989
		c1.404,0,2.652-1.248,2.652-2.989C59.383,57.86,58.135,56.612,56.731,56.612z"/>
	<path class="st0" d="M72.356,57.73c-0.234-0.131-0.754-0.286-1.144-0.286c-1.222,0-2.34,0.649-2.34,2.521v5.486H65.05V53.674h3.77
		V56.3h0.026c0.39-1.846,1.768-2.834,3.354-2.834c0.364,0,0.806,0.052,1.092,0.156L72.356,57.73z"/>
	<path class="st0" d="M81.872,65.452l-3.484-4.758h-0.026v4.758h-3.77V46.939h3.77v11.519h0.026l3.536-4.784h4.16l-4.134,5.721
		l4.368,6.058H81.872z"/>
	<path class="st0" d="M89.516,52.062c-0.676,0-2.054-1.378-2.054-2.054s1.378-2.028,2.054-2.028c0.676,0,2.054,1.353,2.054,2.028
		S90.192,52.062,89.516,52.062z M87.592,65.452V53.674h3.848v11.778H87.592z"/>
	<path class="st0" d="M101.346,65.452v-7.229c0-0.857-0.572-1.611-1.742-1.611c-1.144,0-1.872,0.728-1.872,1.664v7.176H93.91V53.674
		h3.51v1.586h0.026c0.468-1.248,1.69-1.95,3.588-1.95c2.574,0,4.134,1.456,4.134,3.952v8.19H101.346z"/>
	<path class="st0" d="M112.526,71.459c-3.433,0-5.721-1.95-5.721-4.421c0-1.794,1.196-2.859,2.418-3.172l-1.508-1.508
		c0.104-0.754,0.754-1.404,1.43-1.69c-0.884-0.546-1.716-1.664-1.716-3.146c0-2.496,1.794-4.238,4.862-4.238
		c0.702,0,1.248,0.104,1.742,0.233c0.52,0.13,1.092,0.208,1.69,0.208c0.65,0,1.326-0.155,1.846-0.39l0.702,2.912
		c-0.364,0.208-0.936,0.39-1.456,0.364c0.13,0.233,0.286,0.779,0.286,1.195c0,1.977-1.561,3.641-3.849,3.797
		c-0.468,0.025-0.78,0.13-0.78,0.441c0,0.13,0.104,0.286,0.312,0.364l1.82,0.65c2.314,0.832,3.562,2.002,3.562,4.16
		C118.168,69.639,115.958,71.459,112.526,71.459z M113.332,65.92l-1.404-0.39c-0.91,0.026-1.586,0.676-1.586,1.534
		c0,0.806,0.702,1.482,2.08,1.482c1.353,0,2.08-0.624,2.08-1.301C114.501,66.7,114.085,66.128,113.332,65.92z M112.292,56.066
		c-0.858,0-1.508,0.649-1.508,1.403c0,0.78,0.65,1.404,1.508,1.404c0.832,0,1.508-0.624,1.508-1.404
		C113.8,56.716,113.176,56.066,112.292,56.066z"/>
	<path class="st0" d="M133.56,56.794h-3.068v4.368c0,1.014,0.546,1.43,1.56,1.43c0.442,0,0.702-0.025,0.988-0.155l-0.338,2.886
		c-0.364,0.182-1.014,0.312-1.768,0.312c-2.652,0-4.238-1.404-4.238-3.744v-5.097h-1.976v-3.12h1.976v-2.522l3.796-1.378v3.9h3.796
		L133.56,56.794z"/>
	<path class="st0" d="M141.255,65.816c-3.562,0-6.422-2.522-6.422-6.267s2.86-6.266,6.422-6.266c3.536,0,6.422,2.521,6.422,6.266
		S144.792,65.816,141.255,65.816z M141.255,56.612c-1.43,0-2.652,1.248-2.652,2.99c0,1.741,1.222,2.989,2.652,2.989
		c1.404,0,2.652-1.248,2.652-2.989C143.907,57.86,142.659,56.612,141.255,56.612z"/>
	<path class="st0" d="M154.437,71.459c-3.433,0-5.721-1.95-5.721-4.421c0-1.794,1.196-2.859,2.418-3.172l-1.508-1.508
		c0.104-0.754,0.754-1.404,1.43-1.69c-0.884-0.546-1.716-1.664-1.716-3.146c0-2.496,1.794-4.238,4.862-4.238
		c0.702,0,1.248,0.104,1.742,0.233c0.52,0.13,1.092,0.208,1.69,0.208c0.65,0,1.326-0.155,1.846-0.39l0.702,2.912
		c-0.364,0.208-0.936,0.39-1.456,0.364c0.13,0.233,0.286,0.779,0.286,1.195c0,1.977-1.561,3.641-3.849,3.797
		c-0.468,0.025-0.78,0.13-0.78,0.441c0,0.13,0.104,0.286,0.312,0.364l1.82,0.65c2.314,0.832,3.562,2.002,3.562,4.16
		C160.079,69.639,157.869,71.459,154.437,71.459z M155.243,65.92l-1.404-0.39c-0.91,0.026-1.586,0.676-1.586,1.534
		c0,0.806,0.702,1.482,2.08,1.482c1.353,0,2.08-0.624,2.08-1.301C156.413,66.7,155.997,66.128,155.243,65.92z M154.203,56.066
		c-0.858,0-1.508,0.649-1.508,1.403c0,0.78,0.65,1.404,1.508,1.404c0.832,0,1.508-0.624,1.508-1.404
		C155.711,56.716,155.087,56.066,154.203,56.066z"/>
	<path class="st0" d="M172.325,58.9l-1.69,1.716h-5.772c0.182,0.962,1.482,2.054,3.484,2.054c1.222,0,2.47-0.363,3.25-0.884
		l-0.364,3.276c-0.884,0.468-2.236,0.78-3.744,0.78c-3.588,0-6.475-2.496-6.475-6.345c0-3.796,2.756-6.214,6.137-6.214
		c3.276,0,5.278,2.262,5.278,4.706C172.429,58.276,172.377,58.666,172.325,58.9z M167.151,56.144c-1.118,0-2.054,0.858-2.288,1.925
		h3.978c0-0.078,0.026-0.156,0.026-0.261C168.867,57.002,168.165,56.144,167.151,56.144z"/>
	<path class="st0" d="M182.256,56.794h-3.068v4.368c0,1.014,0.546,1.43,1.561,1.43c0.442,0,0.702-0.025,0.988-0.155l-0.338,2.886
		c-0.364,0.182-1.014,0.312-1.768,0.312c-2.652,0-4.238-1.404-4.238-3.744v-5.097h-1.976v-3.12h1.976v-2.522l3.796-1.378v3.9h3.796
		L182.256,56.794z"/>
	<path class="st0" d="M191.772,65.452v-7.229c0-0.857-0.598-1.611-1.768-1.611c-1.145,0-1.846,0.728-1.846,1.664v7.176h-3.822
		V46.939h3.77v7.826h0.026c0.598-0.91,1.69-1.456,3.328-1.456c2.6,0,4.134,1.456,4.134,3.952v8.19H191.772z"/>
	<path class="st0" d="M208.75,58.9l-1.69,1.716h-5.772c0.182,0.962,1.482,2.054,3.484,2.054c1.222,0,2.47-0.363,3.25-0.884
		l-0.364,3.276c-0.884,0.468-2.236,0.78-3.744,0.78c-3.588,0-6.474-2.496-6.474-6.345c0-3.796,2.756-6.214,6.136-6.214
		c3.276,0,5.278,2.262,5.278,4.706C208.854,58.276,208.802,58.666,208.75,58.9z M203.576,56.144c-1.118,0-2.054,0.858-2.288,1.925
		h3.979c0-0.078,0.026-0.156,0.026-0.261C205.292,57.002,204.59,56.144,203.576,56.144z"/>
	<path class="st0" d="M218.006,57.73c-0.234-0.131-0.754-0.286-1.144-0.286c-1.222,0-2.34,0.649-2.34,2.521v5.486H210.7V53.674h3.77
		V56.3h0.026c0.39-1.846,1.769-2.834,3.354-2.834c0.364,0,0.806,0.052,1.092,0.156L218.006,57.73z"/>
</g>
</svg>
