<?xml version="1.0" encoding="utf-8"?>
<!-- Generator: Adobe Illustrator 17.0.0, SVG Export Plug-In . SVG Version: 6.00 Build 0)  -->
<!DOCTYPE svg PUBLIC "-//W3C//DTD SVG 1.1//EN" "http://www.w3.org/Graphics/SVG/1.1/DTD/svg11.dtd">
<svg version="1.1" id="Layer_1" xmlns="http://www.w3.org/2000/svg" xmlns:xlink="http://www.w3.org/1999/xlink" x="0px" y="0px"
	 width="728px" height="90px" viewBox="0 0 728 90" style="enable-background:new 0 0 728 90;" xml:space="preserve">
<style type="text/css">
	.st0{fill:#F9E038;}
	.st1{fill:#231F20;}
</style>
<g>
	<path class="st0" d="M606.016,11c0,0-11,0-11,11v3.674c0,0,0,11,11,11h89.825c0,0,11,0,11-11V22c0,0,0-11-11-11H606.016z"/>
</g>
<g>
	<path class="st1" d="M612.479,26.727c-0.5-0.709-0.72-1.599-0.72-2.458c0-1.819,0.909-3.518,2.938-3.518
		c0.909,0,1.629,0.3,2.179,1.049c0.489,0.669,0.739,1.639,0.739,2.469c0,0.779-0.21,1.729-0.649,2.378
		c-0.53,0.78-1.34,1.16-2.269,1.16C613.769,27.806,613.019,27.486,612.479,26.727z M613.658,22.839c-0.159,0.41-0.22,1-0.22,1.429
		c0,0.859,0.13,2.229,1.26,2.229c0.55,0,0.85-0.27,1.029-0.779c0.16-0.42,0.21-0.99,0.21-1.439c0-0.5-0.05-1.089-0.25-1.549
		c-0.2-0.46-0.49-0.67-0.989-0.67C614.148,22.059,613.849,22.339,613.658,22.839z"/>
	<path class="st1" d="M620.248,27.706h-1.599V20.85h2.578c0.67,0,1.279,0,1.849,0.39c0.58,0.41,0.89,1,0.89,1.709
		c0,0.649-0.229,1.309-0.739,1.739c-0.59,0.49-1.22,0.48-1.949,0.48h-1.029V27.706z M621.147,23.918c0.38,0,0.7,0,0.979-0.3
		c0.15-0.17,0.22-0.39,0.22-0.609c0-0.27-0.109-0.55-0.329-0.72c-0.25-0.19-0.58-0.19-0.88-0.19h-0.89v1.819H621.147z"/>
	<path class="st1" d="M626.448,22.179v1.389h2.599v1.289h-2.599v1.52h3.298v1.329h-4.896V20.85h4.896v1.33H626.448z"/>
	<path class="st1" d="M635.926,27.706h-1.369l-2.628-4.607h-0.04v4.607h-1.239V20.85h1.729l2.289,4.028h0.02V20.85h1.239V27.706z"/>
	<path class="st1" d="M645.896,27.706h-1.729l-0.419-1.409h-2.219l-0.431,1.409h-1.409l2.199-6.856h1.859L645.896,27.706z
		 M643.377,25.038l-0.729-2.409l-0.729,2.409H643.377z"/>
	<path class="st1" d="M654.217,22.209h-1.72v5.497h-1.599v-5.497h-1.739V20.85h5.058V22.209z"/>
	<path class="st1" d="M656.678,27.706h-1.6V20.85h1.6V27.706z"/>
	<path class="st1" d="M663.695,27.706h-1.729l-0.419-1.409h-2.219l-0.431,1.409h-1.409l2.199-6.856h1.859L663.695,27.706z
		 M661.177,25.038l-0.729-2.409l-0.729,2.409H661.177z"/>
	<path class="st1" d="M670.096,27.706h-1.729l-0.419-1.409h-2.219l-0.431,1.409h-1.409l2.199-6.856h1.859L670.096,27.706z
		 M667.577,25.038l-0.729-2.409l-0.729,2.409H667.577z"/>
	<path class="st1" d="M675.478,27.706h-1.6V20.85h1.6V27.706z"/>
	<path class="st1" d="M678.478,27.706h-1.6V20.85h2.889c0.609,0,1.229,0.01,1.759,0.35c0.56,0.37,0.87,1.04,0.87,1.709
		c0,0.78-0.45,1.499-1.189,1.769l1.269,3.028h-1.778l-1.05-2.708h-1.169V27.706z M678.478,23.818h0.879c0.33,0,0.69,0.03,0.979-0.14
		c0.26-0.16,0.4-0.479,0.4-0.779c0-0.27-0.16-0.56-0.39-0.7c-0.271-0.17-0.73-0.13-1.03-0.13h-0.839V23.818z"/>
	<path class="st1" d="M689.095,27.706h-1.729l-0.419-1.409h-2.219l-0.431,1.409h-1.409l2.199-6.856h1.859L689.095,27.706z
		 M686.576,25.038l-0.729-2.409l-0.729,2.409H686.576z"/>
</g>
</svg>
