<svg id="Layer_1" xmlns="http://www.w3.org/2000/svg" viewBox="0 0 160 600"><style>.st0{fill:#f9e039}</style><path class="st0" d="M70.3 121.9c-4.4 0-8.8-2.9-8.8-8.3 0-5.5 4.5-8.4 8.8-8.4 2.2 0 4.1.6 5.2 1.3l-.7 3.2c-1-.6-2.5-1.1-4-1.1-2.9 0-5.3 1.9-5.3 5.1 0 3 2.3 4.9 5.2 4.9.9 0 1.6-.1 2.2-.5v-2.5h-2.8v-3h6.3v7.6c-1.6 1.1-3.5 1.7-6.1 1.7zM89 115.2l-1.6 1.6h-5.5c.2.9 1.4 2 3.3 2 1.2 0 2.4-.4 3.1-.8l-.4 3.1c-.8.5-2.1.8-3.6.8-3.4 0-6.2-2.4-6.2-6.1 0-3.6 2.6-6 5.9-6 3.1 0 5.1 2.2 5.1 4.5 0 .3-.1.7-.1.9zm-5-2.6c-1.1 0-2 .8-2.2 1.8h3.8v-.2c.1-.8-.6-1.6-1.6-1.6zM98.6 113.2h-2.9v4.2c0 1 .5 1.4 1.5 1.4.4 0 .7 0 1-.1l-.3 2.8c-.3.2-1 .3-1.7.3-2.5 0-4.1-1.3-4.1-3.6v-4.9h-1.9v-3H92v-2.4l3.6-1.3v3.7h3.6l-.6 2.9zM26.9 153.3c-3.3 0-5.5-1.9-5.5-4.2 0-1.7 1.1-2.7 2.3-3l-1.4-1.4c.1-.7.7-1.3 1.4-1.6-.9-.5-1.6-1.6-1.6-3 0-2.4 1.7-4.1 4.7-4.1.7 0 1.2.1 1.7.2s1 .2 1.6.2c.6 0 1.3-.1 1.8-.4l.7 2.8c-.4.2-.9.4-1.4.3.1.2.3.8.3 1.1 0 1.9-1.5 3.5-3.7 3.6-.4 0-.7.1-.7.4 0 .1.1.3.3.4l1.7.6c2.2.8 3.4 1.9 3.4 4-.1 2.3-2.3 4.1-5.6 4.1zm.8-5.3l-1.3-.4c-.9 0-1.5.6-1.5 1.5 0 .8.7 1.4 2 1.4s2-.6 2-1.2c-.1-.6-.5-1.1-1.2-1.3zm-1-9.5c-.8 0-1.4.6-1.4 1.3 0 .8.6 1.4 1.4 1.4.8 0 1.4-.6 1.4-1.4.1-.7-.5-1.3-1.4-1.3zM41.3 147.5V146c-.4 1.2-1.6 1.9-3.5 1.9-2.5 0-4-1.4-4-3.8v-7.9h3.7v6.9c0 .8.6 1.5 1.7 1.5s1.8-.7 1.8-1.6v-6.9h3.7v11.3h-3.4zM54.9 148c-.7-.1-1.4-.7-1.7-1.5-.5.9-1.6 1.4-2.9 1.4-2 0-3.8-1.4-3.8-3.7 0-2.1 1.6-3.5 3.9-3.7l2.2-.2v-.4c0-.7-.5-1.1-1.8-1.1-1.1 0-2.3.4-3.1.9l-.6-2.8c.9-.6 2.5-1 4-1 3 0 5.1 1.4 5.1 4.1v3.7c0 1.3.5 2 1.4 2.3l-2.7 2zm-2.3-5.4l-1.4.1c-1 .1-1.4.7-1.4 1.4 0 .6.5 1.1 1.1 1.1.9 0 1.6-.7 1.6-1.6v-1zM65.8 140.1c-.2-.1-.7-.3-1.1-.3-1.2 0-2.2.6-2.2 2.4v5.3h-3.7v-11.3h3.6v2.5c.4-1.8 1.7-2.7 3.2-2.7.3 0 .8 0 1 .1l-.8 4zM75.8 148c-.7-.1-1.4-.7-1.7-1.5-.5.9-1.6 1.4-2.9 1.4-2 0-3.8-1.4-3.8-3.7 0-2.1 1.6-3.5 3.9-3.7l2.2-.2v-.4c0-.7-.5-1.1-1.8-1.1-1.1 0-2.3.4-3.1.9l-.6-2.8c.9-.6 2.5-1 4-1 3 0 5.1 1.4 5.1 4.1v3.7c0 1.3.5 2 1.4 2.3l-2.7 2zm-2.3-5.4l-1.4.1c-.9.1-1.4.7-1.4 1.4 0 .6.5 1.1 1.1 1.1.9 0 1.6-.7 1.6-1.6v-1zM86.8 147.5v-6.9c0-.8-.5-1.5-1.7-1.5-1.1 0-1.8.7-1.8 1.6v6.9h-3.7v-11.3H83v1.5c.5-1.2 1.6-1.9 3.4-1.9 2.5 0 4 1.4 4 3.8v7.9h-3.6zM100.2 139.2h-2.9v4.2c0 1 .5 1.4 1.5 1.4.4 0 .7 0 1-.1l-.3 2.8c-.3.2-1 .3-1.7.3-2.5 0-4.1-1.3-4.1-3.6v-4.9h-1.9v-3h1.9v-2.4l3.6-1.3v3.7h3.6l-.7 2.9zM112.3 141.2l-1.6 1.6h-5.5c.2.9 1.4 2 3.3 2 1.2 0 2.4-.4 3.1-.8l-.3 3.1c-.8.5-2.1.8-3.6.8-3.4 0-6.2-2.4-6.2-6.1 0-3.6 2.6-6 5.9-6 3.1 0 5.1 2.2 5.1 4.5-.1.3-.1.7-.2.9zm-5-2.6c-1.1 0-2 .8-2.2 1.8h3.8v-.2c.1-.8-.6-1.6-1.6-1.6zM124.5 141.2l-1.6 1.6h-5.5c.2.9 1.4 2 3.3 2 1.2 0 2.4-.4 3.1-.8l-.3 3.1c-.8.5-2.1.8-3.6.8-3.4 0-6.2-2.4-6.2-6.1 0-3.6 2.6-6 5.9-6 3.1 0 5.1 2.2 5.1 4.5-.1.3-.1.7-.2.9zm-5-2.6c-1.1 0-2 .8-2.2 1.8h3.8v-.2c.1-.8-.6-1.6-1.6-1.6zM134.9 147.5v-1.4c-.6 1.1-1.9 1.7-3.5 1.7-2.8 0-5.4-2.1-5.4-6 0-3.6 2.6-6 5.7-6 1.2 0 2.4.4 2.9.8v-6.9h3.6v17.8h-3.3zm-.4-7.4c-.3-.5-1.1-1-2.2-1-1.6 0-2.7 1.2-2.7 2.9s1.1 2.9 2.7 2.9c1.1 0 1.8-.6 2.2-1.2v-3.6z"/><g><path class="st0" d="M44.2 174c-2.3-.1-3.9-1.3-3.9-4v-14.2H44v13.8c0 .9.5 1.4 1.5 1.5l-1.3 2.9zM48.8 160.6c-.6 0-2-1.3-2-2s1.3-1.9 2-1.9 2 1.3 2 1.9-1.3 2-2 2zM47 173.5v-11.3h3.7v11.3H47zM61 159c-.4-.2-1-.3-1.5-.3-1.3 0-2 .8-2 2.4v1.1h3.2l-.7 3h-2.5v8.3H54v-8.3h-1.7v-3H54v-1.3c0-3.4 2.2-5.1 5.1-5.1 1 0 2.1.1 2.7.4L61 159zM72.1 167.2l-1.6 1.6H65c.2.9 1.4 2 3.3 2 1.2 0 2.4-.4 3.1-.8l-.3 3.1c-.9.5-2.1.8-3.6.8-3.4 0-6.2-2.4-6.2-6.1 0-3.6 2.6-6 5.9-6 3.1 0 5.1 2.2 5.1 4.5-.1.3-.2.7-.2.9zm-5-2.6c-1.1 0-2 .8-2.2 1.8h3.8v-.2c0-.8-.6-1.6-1.6-1.6zM81.6 165.2h-2.9v4.2c0 1 .5 1.4 1.5 1.4.4 0 .7 0 .9-.1l-.3 2.8c-.4.2-1 .3-1.7.3-2.5 0-4.1-1.3-4.1-3.6v-4.9h-1.9v-3H75v-2.4l3.6-1.3v3.7h3.6l-.6 2.9zM85.5 160.6c-.6 0-2-1.3-2-2s1.3-1.9 2-1.9 2 1.3 2 1.9-1.3 2-2 2zm-1.8 12.9v-11.3h3.7v11.3h-3.7zM103.7 173.5v-6.9c0-.8-.4-1.5-1.6-1.5-1.2 0-1.7.7-1.7 1.6v6.9h-3.7v-6.9c0-.8-.4-1.5-1.6-1.5-1.2 0-1.7.7-1.7 1.6v6.9h-3.7v-11.3h3.4v1.5c.5-1.2 1.6-1.9 3.3-1.9 1.6 0 2.8.6 3.3 1.8.5-1.1 1.8-1.8 3.5-1.8 2.6 0 4 1.4 4 3.8v7.9h-3.5zM120.1 167.2l-1.6 1.6H113c.2.9 1.4 2 3.3 2 1.2 0 2.4-.4 3.1-.8l-.3 3.1c-.8.5-2.1.8-3.6.8-3.4 0-6.2-2.4-6.2-6.1 0-3.6 2.6-6 5.9-6 3.1 0 5.1 2.2 5.1 4.5-.1.3-.2.7-.2.9zm-5-2.6c-1.1 0-2 .8-2.2 1.8h3.8v-.2c.1-.8-.6-1.6-1.6-1.6z"/></g><g><path class="st0" d="M45 186.6c-.6 0-2-1.3-2-2s1.3-1.9 2-1.9 2 1.3 2 1.9-1.3 2-2 2zm-1.8 12.9v-11.3h3.7v11.3h-3.7zM56.4 199.5v-6.9c0-.8-.5-1.5-1.7-1.5-1.1 0-1.8.7-1.8 1.6v6.9h-3.7v-11.3h3.4v1.5c.4-1.2 1.6-1.9 3.4-1.9 2.5 0 4 1.4 4 3.8v7.9h-3.6zM71 191.8c-.7-.5-1.5-.7-2.4-.7-1.6 0-2.9 1.1-2.9 2.8 0 1.6 1.3 2.8 2.9 2.8.9 0 1.7-.2 2.5-.6l-.3 3.1c-.8.3-1.7.5-2.8.5-3.2 0-6.1-2.2-6.1-5.9s3-5.9 6-5.9c1.5 0 2.7.3 3.7.9l-.6 3zM78.9 199.9c-3.4 0-6.2-2.4-6.2-6s2.7-6 6.2-6c3.4 0 6.2 2.4 6.2 6s-2.8 6-6.2 6zm0-8.9c-1.4 0-2.5 1.2-2.5 2.9s1.2 2.9 2.5 2.9 2.5-1.2 2.5-2.9-1.2-2.9-2.5-2.9zM100.8 199.5v-6.9c0-.8-.4-1.5-1.6-1.5-1.2 0-1.7.7-1.7 1.6v6.9h-3.7v-6.9c0-.8-.4-1.5-1.6-1.5-1.2 0-1.7.7-1.7 1.6v6.9h-3.7v-11.3h3.4v1.5c.5-1.2 1.6-1.9 3.3-1.9 1.6 0 2.8.6 3.3 1.8.5-1.1 1.8-1.8 3.5-1.8 2.6 0 4 1.4 4 3.8v7.9h-3.5zM117.2 193.2l-1.6 1.6H110c.2.9 1.4 2 3.3 2 1.2 0 2.4-.4 3.1-.8l-.3 3.1c-.8.5-2.1.8-3.6.8-3.4 0-6.2-2.4-6.2-6.1 0-3.6 2.6-6 5.9-6 3.1 0 5.1 2.2 5.1 4.5 0 .3 0 .7-.1.9zm-5-2.6c-1.1 0-2 .8-2.2 1.8h3.8v-.2c.1-.8-.6-1.6-1.6-1.6z"/></g><g><path class="st0" d="M35.1 217.2h-2.9v4.2c0 1 .5 1.4 1.5 1.4.4 0 .7 0 .9-.1l-.3 2.8c-.4.2-1 .3-1.7.3-2.5 0-4.1-1.3-4.1-3.6v-4.9h-1.9v-3h1.9v-2.4l3.6-1.3v3.7h3.6l-.6 2.9zM44.2 225.5v-6.9c0-.8-.6-1.5-1.7-1.5s-1.8.7-1.8 1.6v6.9H37v-17.8h3.6v7.5c.6-.9 1.6-1.4 3.2-1.4 2.5 0 4 1.4 4 3.8v7.9h-3.6zM58.2 226c-.7-.1-1.4-.7-1.7-1.5-.5.9-1.6 1.4-2.9 1.4-2 0-3.8-1.4-3.8-3.7 0-2.1 1.6-3.5 3.9-3.7l2.2-.2v-.4c0-.7-.5-1.1-1.8-1.1-1.1 0-2.3.4-3.1.9l-.6-2.8c.9-.6 2.5-1 4-1 3 0 5.1 1.4 5.1 4.1v3.7c0 1.3.5 2 1.4 2.3l-2.7 2zm-2.4-5.4l-1.4.1c-.9.1-1.4.7-1.4 1.4 0 .6.5 1.1 1.1 1.1.9 0 1.6-.7 1.6-1.6v-1zM69.3 217.2h-2.9v4.2c0 1 .5 1.4 1.5 1.4.4 0 .7 0 1-.1l-.3 2.8c-.4.2-1 .3-1.7.3-2.5 0-4.1-1.3-4.1-3.6v-4.9h-1.9v-3h1.9v-2.4l3.6-1.3v3.7H70l-.7 2.9zM84 225.5v-6.9c0-.8-.5-1.5-1.7-1.5-1.1 0-1.8.7-1.8 1.6v6.9h-3.7v-11.3h3.4v1.5c.5-1.2 1.6-1.9 3.4-1.9 2.5 0 4 1.4 4 3.8v7.9H84zM100.4 219.2l-1.6 1.6h-5.5c.2.9 1.4 2 3.3 2 1.2 0 2.4-.4 3.1-.8l-.3 3.1c-.8.5-2.1.8-3.6.8-3.4 0-6.2-2.4-6.2-6.1 0-3.6 2.6-6 5.9-6 3.1 0 5.1 2.2 5.1 4.5-.1.3-.2.7-.2.9zm-5-2.6c-1.1 0-2 .8-2.2 1.8H97v-.2c.1-.8-.6-1.6-1.6-1.6zM108.1 225.6h-2.8l-4.3-11.4h3.5l1.6 4.3c.2.6.5 1.4.6 2.2.2-.7.4-1.6.7-2.2l1.6-4.3h3.4l-4.3 11.4zM123.6 219.2l-1.6 1.6h-5.5c.2.9 1.4 2 3.3 2 1.2 0 2.4-.4 3.1-.8l-.3 3.1c-.8.5-2.1.8-3.6.8-3.4 0-6.2-2.4-6.2-6.1 0-3.6 2.6-6 5.9-6 3.1 0 5.1 2.2 5.1 4.5-.1.3-.1.7-.2.9zm-4.9-2.6c-1.1 0-2 .8-2.2 1.8h3.8v-.2c0-.8-.7-1.6-1.6-1.6zM132.6 218.1c-.2-.1-.7-.3-1.1-.3-1.2 0-2.2.6-2.2 2.4v5.3h-3.7v-11.3h3.6v2.5c.4-1.8 1.7-2.7 3.2-2.7.4 0 .8 0 1 .1l-.8 4z"/></g><g><path class="st0" d="M41.7 244.1c-.2-.1-.7-.3-1.1-.3-1.2 0-2.2.6-2.2 2.4v5.3h-3.7v-11.3h3.6v2.5c.4-1.8 1.7-2.7 3.2-2.7.3 0 .8 0 1 .1l-.8 4zM51.3 251.5V250c-.4 1.2-1.6 1.9-3.5 1.9-2.5 0-4-1.4-4-3.8v-7.9h3.7v6.9c0 .8.6 1.5 1.7 1.5s1.8-.7 1.8-1.6v-6.9h3.7v11.3h-3.4zM64.1 251.5v-6.9c0-.8-.5-1.5-1.7-1.5-1.1 0-1.8.7-1.8 1.6v6.9H57v-11.3h3.4v1.5c.4-1.2 1.6-1.9 3.4-1.9 2.5 0 4 1.4 4 3.8v7.9h-3.7zM73.7 251.8c-1.5 0-2.7-.3-3.6-.8l-.3-3.2c1 .7 2.3 1.2 3.5 1.2.7 0 1.1-.4 1.1-.8 0-.5-.4-.7-1-.9-2.2-.6-3.5-1.7-3.5-3.7 0-2.2 1.8-3.6 4.2-3.6 1.4 0 2.8.4 3.3.7l-.6 2.7c-.5-.3-1.4-.6-2.3-.6-.6 0-1 .3-1 .7 0 .4.3.6 1 .8 2.5.7 3.6 1.9 3.6 3.8.1 1.9-1.3 3.7-4.4 3.7zM91.3 251.9c-3.4 0-6.2-2.4-6.2-6s2.7-6 6.2-6c3.4 0 6.2 2.4 6.2 6s-2.8 6-6.2 6zm0-8.9c-1.4 0-2.5 1.2-2.5 2.9s1.2 2.9 2.5 2.9 2.5-1.2 2.5-2.9c.1-1.7-1.1-2.9-2.5-2.9zM106.8 251.5V250c-.5 1.2-1.6 1.9-3.5 1.9-2.5 0-4-1.4-4-3.8v-7.9h3.7v6.9c0 .8.6 1.5 1.7 1.5s1.8-.7 1.8-1.6v-6.9h3.7v11.3h-3.4zM120.1 243.2h-2.9v4.2c0 1 .5 1.4 1.5 1.4.4 0 .7 0 1-.1l-.3 2.8c-.3.2-1 .3-1.7.3-2.5 0-4.1-1.3-4.1-3.6v-4.9h-1.9v-3h1.9v-2.4l3.6-1.3v3.7h3.6l-.7 2.9zM123.6 251.9c-.7 0-2.1-1.4-2.1-2.1 0-.6 1.4-2 2.1-2s2.1 1.4 2.1 2c-.1.7-1.5 2.1-2.1 2.1z"/></g></svg>