<svg id="Layer_1" xmlns="http://www.w3.org/2000/svg" viewBox="0 0 160 600"><style>.st0{fill:#f9e039}</style><path class="st0" d="M58.4 121.5l-4.3-6.3h-1v6.3h-3.7v-15.9h5.8c2.7 0 5.1 1.8 5.1 4.8 0 1.8-1.1 3.4-2.4 4l5.1 7.1h-4.6zm-3.8-12.8h-1.5v3.6h1.5c1 0 2-.6 2-1.8 0-1.2-1-1.8-2-1.8zM73.6 115.2l-1.6 1.6h-5.5c.2.9 1.4 2 3.3 2 1.2 0 2.4-.4 3.1-.8l-.3 3.1c-.9.5-2.1.8-3.6.8-3.4 0-6.2-2.4-6.2-6.1 0-3.6 2.6-6 5.9-6 3.1 0 5.1 2.2 5.1 4.5-.1.3-.2.7-.2.9zm-5-2.6c-1.1 0-2 .8-2.2 1.8h3.8v-.2c0-.8-.6-1.6-1.6-1.6zM83.3 122c-.7-.1-1.5-.7-1.8-1.5-.5.9-1.6 1.4-2.9 1.4-2 0-3.8-1.4-3.8-3.7 0-2.1 1.6-3.5 3.9-3.7l2.2-.2v-.4c0-.7-.5-1.1-1.8-1.1-1.1 0-2.3.4-3.1.9l-.6-2.8c.9-.6 2.5-1 4-1 3 0 5.1 1.4 5.1 4.1v3.7c0 1.3.5 2 1.4 2.3l-2.6 2zm-2.3-5.4l-1.4.1c-.9.1-1.4.7-1.4 1.4 0 .6.5 1.1 1.1 1.1.9 0 1.6-.7 1.6-1.6v-1zM95.5 121.5v-1.4c-.6 1.1-1.9 1.7-3.5 1.7-2.8 0-5.4-2.1-5.4-6 0-3.6 2.6-6 5.7-6 1.2 0 2.4.4 2.9.8v-6.9h3.6v17.8h-3.3zm-.4-7.4c-.3-.5-1.1-1-2.2-1-1.6 0-2.7 1.2-2.7 2.9s1.1 2.9 2.7 2.9c1.1 0 1.8-.6 2.2-1.2v-3.6zM107.8 120.4c-1.7 4.5-3.5 6.2-5.6 7l-2.2-2.2c1.8-.7 3.2-2 4.1-4.4l-4.1-10.5h3.5l1.6 4.4c.2.6.5 1.4.7 2.2h.1c.2-.8.5-1.6.7-2.2l1.6-4.4h3.4l-3.8 10.1zM27 139.2h-2.9v4.2c0 1 .5 1.4 1.5 1.4.4 0 .7 0 1-.1l-.3 2.8c-.4.2-1 .3-1.7.3-2.5 0-4.1-1.3-4.1-3.6v-4.9h-1.9v-3h1.9v-2.4l3.6-1.3v3.7h3.6l-.7 2.9zM34.4 147.9c-3.4 0-6.2-2.4-6.2-6s2.7-6 6.2-6c3.4 0 6.2 2.4 6.2 6s-2.8 6-6.2 6zm0-8.9c-1.4 0-2.5 1.2-2.5 2.9s1.2 2.9 2.5 2.9c1.4 0 2.5-1.2 2.5-2.9.1-1.7-1.1-2.9-2.5-2.9zM53.1 153.3c-3.3 0-5.5-1.9-5.5-4.2 0-1.7 1.1-2.7 2.3-3l-1.4-1.4c.1-.7.7-1.3 1.4-1.6-.9-.5-1.6-1.6-1.6-3 0-2.4 1.7-4.1 4.7-4.1.7 0 1.2.1 1.7.2s1 .2 1.6.2c.6 0 1.3-.1 1.8-.4l.7 2.8c-.4.2-.9.4-1.4.3.1.2.3.8.3 1.1 0 1.9-1.5 3.5-3.7 3.6-.4 0-.7.1-.7.4 0 .1.1.3.3.4l1.7.6c2.2.8 3.4 1.9 3.4 4-.2 2.3-2.3 4.1-5.6 4.1zm.8-5.3l-1.3-.4c-.9 0-1.5.6-1.5 1.5 0 .8.7 1.4 2 1.4s2-.6 2-1.2c-.1-.6-.5-1.1-1.2-1.3zm-1-9.5c-.8 0-1.4.6-1.4 1.3 0 .8.6 1.4 1.4 1.4.8 0 1.4-.6 1.4-1.4 0-.7-.6-1.3-1.4-1.3zM61.9 134.6c-.6 0-2-1.3-2-2s1.3-1.9 2-1.9 2 1.3 2 1.9-1.3 2-2 2zm-1.8 12.9v-11.3h3.7v11.3h-3.7zM72.2 147.6h-2.7l-4.3-11.4h3.5l1.6 4.3c.2.6.5 1.4.6 2.2h.1c.2-.7.4-1.6.6-2.2l1.6-4.3h3.4l-4.4 11.4zM87.7 141.2l-1.6 1.6h-5.5c.2.9 1.4 2 3.3 2 1.2 0 2.4-.4 3.1-.8l-.4 3.1c-.8.5-2.1.8-3.6.8-3.4 0-6.2-2.4-6.2-6.1 0-3.6 2.6-6 5.9-6 3.1 0 5.1 2.2 5.1 4.5 0 .3 0 .7-.1.9zm-4.9-2.6c-1.1 0-2 .8-2.2 1.8h3.8v-.2c0-.8-.7-1.6-1.6-1.6zM102.2 146.4c-1.7 4.5-3.5 6.2-5.6 7l-2.2-2.2c1.8-.7 3.2-2 4.1-4.4l-4.1-10.5h3.5l1.6 4.4c.2.6.5 1.4.7 2.2h.1c.2-.8.5-1.6.7-2.2l1.6-4.4h3.4l-3.8 10.1zM112.5 147.9c-3.4 0-6.2-2.4-6.2-6s2.7-6 6.2-6c3.4 0 6.2 2.4 6.2 6s-2.8 6-6.2 6zm0-8.9c-1.4 0-2.5 1.2-2.5 2.9s1.2 2.9 2.5 2.9 2.5-1.2 2.5-2.9c.1-1.7-1.1-2.9-2.5-2.9zM127.9 147.5V146c-.5 1.2-1.6 1.9-3.5 1.9-2.5 0-4-1.4-4-3.8v-7.9h3.7v6.9c0 .8.6 1.5 1.7 1.5s1.8-.7 1.8-1.6v-6.9h3.7v11.3h-3.4zM140.7 140.1c-.2-.1-.7-.3-1.1-.3-1.2 0-2.2.6-2.2 2.4v5.3h-3.7v-11.3h3.6v2.5c.4-1.8 1.7-2.7 3.2-2.7.4 0 .8 0 1 .1l-.8 4z"/><g><path class="st0" d="M31.7 166.1c-.2-.1-.7-.3-1.1-.3-1.2 0-2.2.6-2.2 2.4v5.3h-3.7v-11.3h3.6v2.5c.4-1.8 1.7-2.7 3.2-2.7.3 0 .8 0 1 .1l-.8 4zM44 167.2l-1.6 1.6h-5.5c.2.9 1.4 2 3.3 2 1.2 0 2.4-.4 3.1-.8l-.3 3.1c-.9.5-2.1.8-3.6.8-3.4 0-6.2-2.4-6.2-6.1 0-3.6 2.6-6 5.9-6 3.1 0 5.1 2.2 5.1 4.5-.1.3-.2.7-.2.9zm-5-2.6c-1.1 0-2 .8-2.2 1.8h3.8v-.2c0-.8-.6-1.6-1.6-1.6zM53.5 165.2h-2.9v4.2c0 1 .5 1.4 1.5 1.4.4 0 .7 0 1-.1l-.3 2.8c-.4.2-1 .3-1.7.3-2.5 0-4.1-1.3-4.1-3.6v-4.9h-2v-3h1.9v-2.4l3.6-1.3v3.7h3.6l-.6 2.9zM57.4 160.6c-.6 0-2-1.3-2-2s1.3-1.9 2-1.9 2 1.3 2 1.9-1.3 2-2 2zm-1.8 12.9v-11.3h3.7v11.3h-3.7zM68.7 166.1c-.2-.1-.7-.3-1.1-.3-1.2 0-2.2.6-2.2 2.4v5.3h-3.7v-11.3h3.6v2.5c.4-1.8 1.7-2.7 3.2-2.7.3 0 .8 0 1 .1l-.8 4zM81 167.2l-1.6 1.6h-5.5c.2.9 1.4 2 3.3 2 1.2 0 2.4-.4 3.1-.8l-.4 3.1c-.8.5-2.1.8-3.6.8-3.4 0-6.2-2.4-6.2-6.1 0-3.6 2.6-6 5.9-6 3.1 0 5.1 2.2 5.1 4.5 0 .3-.1.7-.1.9zm-5-2.6c-1.1 0-2 .8-2.2 1.8h3.8v-.2c0-.8-.6-1.6-1.6-1.6zM96.8 173.5v-6.9c0-.8-.4-1.5-1.6-1.5-1.2 0-1.7.7-1.7 1.6v6.9h-3.7v-6.9c0-.8-.4-1.5-1.6-1.5-1.2 0-1.7.7-1.7 1.6v6.9h-3.7v-11.3h3.4v1.5c.5-1.2 1.6-1.9 3.3-1.9 1.6 0 2.8.6 3.3 1.8.5-1.1 1.8-1.8 3.5-1.8 2.6 0 4 1.4 4 3.8v7.9h-3.5zM113.2 167.2l-1.6 1.6H106c.2.9 1.4 2 3.3 2 1.2 0 2.4-.4 3.1-.8l-.3 3.1c-.8.5-2.1.8-3.6.8-3.4 0-6.2-2.4-6.2-6.1 0-3.6 2.6-6 5.9-6 3.1 0 5.1 2.2 5.1 4.5 0 .3-.1.7-.1.9zm-5-2.6c-1.1 0-2 .8-2.2 1.8h3.8v-.2c.1-.8-.6-1.6-1.6-1.6zM122.2 173.5v-6.9c0-.8-.5-1.5-1.7-1.5-1.1 0-1.8.7-1.8 1.6v6.9H115v-11.3h3.4v1.5c.5-1.2 1.6-1.9 3.4-1.9 2.5 0 4 1.4 4 3.8v7.9h-3.6zM135.7 165.2h-2.9v4.2c0 1 .5 1.4 1.5 1.4.4 0 .7 0 1-.1l-.3 2.8c-.3.2-1 .3-1.7.3-2.5 0-4.1-1.3-4.1-3.6v-4.9h-1.9v-3h1.9v-2.4l3.6-1.3v3.7h3.6l-.7 2.9z"/></g><g><path class="st0" d="M39.2 199.8c-1.5 0-2.7-.3-3.6-.8l-.3-3.2c1 .7 2.3 1.2 3.5 1.2.7 0 1.1-.4 1.1-.8 0-.5-.4-.7-1-.9-2.2-.6-3.5-1.7-3.5-3.7 0-2.2 1.8-3.6 4.2-3.6 1.4 0 2.8.4 3.3.7l-.6 2.7c-.5-.3-1.4-.6-2.3-.6-.6 0-1 .3-1 .7 0 .4.3.6 1 .8 2.5.7 3.6 1.9 3.6 3.8.1 1.9-1.3 3.7-4.4 3.7zM53.4 200c-.7-.1-1.4-.7-1.7-1.5-.5.9-1.6 1.4-2.9 1.4-2 0-3.8-1.4-3.8-3.7 0-2.1 1.6-3.5 3.9-3.7l2.2-.2v-.4c0-.7-.5-1.1-1.8-1.1-1.1 0-2.3.4-3.1.9l-.6-2.8c.9-.6 2.5-1 4-1 3 0 5.1 1.4 5.1 4.1v3.7c0 1.3.5 2 1.4 2.3l-2.7 2zm-2.3-5.4l-1.4.1c-.9.1-1.4.7-1.4 1.4 0 .6.5 1.1 1.1 1.1.9 0 1.6-.7 1.6-1.6v-1zM62.8 199.6h-2.7l-4.3-11.4h3.5l1.6 4.3c.2.6.5 1.4.6 2.2h.1c.2-.7.4-1.6.6-2.2l1.6-4.3h3.4l-4.4 11.4zM70.4 186.6c-.6 0-2-1.3-2-2s1.3-1.9 2-1.9 2 1.3 2 1.9-1.4 2-2 2zm-1.9 12.9v-11.3h3.7v11.3h-3.7zM81.8 199.5v-6.9c0-.8-.5-1.5-1.7-1.5-1.1 0-1.8.7-1.8 1.6v6.9h-3.7v-11.3H78v1.5c.4-1.2 1.6-1.9 3.4-1.9 2.5 0 4 1.4 4 3.8v7.9h-3.6zM92.5 205.3c-3.3 0-5.5-1.9-5.5-4.2 0-1.7 1.2-2.7 2.3-3l-1.5-1.4c.1-.7.7-1.3 1.4-1.6-.8-.5-1.6-1.6-1.6-3 0-2.4 1.7-4.1 4.7-4.1.7 0 1.2.1 1.7.2s1 .2 1.6.2c.6 0 1.3-.1 1.8-.4l.7 2.8c-.3.2-.9.4-1.4.3.1.2.3.8.3 1.1 0 1.9-1.5 3.5-3.7 3.6-.5 0-.8.1-.8.4 0 .1.1.3.3.4l1.8.6c2.2.8 3.4 1.9 3.4 4 0 2.3-2.2 4.1-5.5 4.1zm.8-5.3l-1.3-.4c-.9 0-1.5.6-1.5 1.5 0 .8.7 1.4 2 1.4s2-.6 2-1.2c-.1-.6-.5-1.1-1.2-1.3zm-1-9.5c-.8 0-1.5.6-1.5 1.3 0 .8.6 1.4 1.5 1.4.8 0 1.4-.6 1.4-1.4.1-.7-.5-1.3-1.4-1.3zM103.1 199.8c-1.5 0-2.7-.3-3.6-.8l-.3-3.2c1 .7 2.3 1.2 3.5 1.2.7 0 1.1-.4 1.1-.8 0-.5-.4-.7-1-.9-2.2-.6-3.5-1.7-3.5-3.7 0-2.2 1.8-3.6 4.2-3.6 1.4 0 2.8.4 3.3.7l-.6 2.7c-.5-.3-1.4-.6-2.3-.6-.6 0-1 .3-1 .7 0 .4.3.6 1 .8 2.5.7 3.6 1.9 3.6 3.8.1 1.9-1.3 3.7-4.4 3.7zM123 200c-.7-.1-1.5-.7-1.8-1.5-.5.9-1.6 1.4-2.9 1.4-2 0-3.8-1.4-3.8-3.7 0-2.1 1.6-3.5 3.9-3.7l2.2-.2v-.4c0-.7-.5-1.1-1.8-1.1-1.1 0-2.3.4-3.1.9l-.7-2.8c.9-.6 2.5-1 4-1 3 0 5.1 1.4 5.1 4.1v3.7c0 1.3.5 2 1.4 2.3l-2.5 2zm-2.4-5.4l-1.4.1c-.9.1-1.4.7-1.4 1.4 0 .6.4 1.1 1.1 1.1.9 0 1.6-.7 1.6-1.6v-1z"/></g><g><path class="st0" d="M48.8 225.6h-2.5l-1.5-4.5c-.2-.7-.5-1.5-.7-2.3H44c-.2.9-.4 1.7-.6 2.3l-1.5 4.5h-2.4l-3.9-11.4h3.3l1.4 4.3c.2.6.4 1.4.5 2.2h.1c.1-.7.3-1.5.5-2.2l1.4-4.3h2.8l1.4 4.3c.2.7.4 1.5.5 2.2.1-.7.4-1.5.6-2.2l1.4-4.3h3.1l-3.8 11.4zM62 226c-.7-.1-1.4-.7-1.7-1.5-.5.9-1.6 1.4-2.9 1.4-2 0-3.8-1.4-3.8-3.7 0-2.1 1.6-3.5 3.9-3.7l2.2-.2v-.4c0-.7-.5-1.1-1.8-1.1-1.1 0-2.3.4-3.1.9l-.6-2.8c.9-.6 2.5-1 4-1 3 0 5.1 1.4 5.1 4.1v3.7c0 1.3.5 2 1.4 2.3l-2.7 2zm-2.3-5.4l-1.4.1c-.9.1-1.4.7-1.4 1.4 0 .6.5 1.1 1.1 1.1.9 0 1.6-.7 1.6-1.6v-1zM72.9 225.5l-3.3-4.6v4.6H66v-17.8h3.6v11.1l3.4-4.6h4l-4 5.5 4.2 5.8h-4.3zM88.2 219.2l-1.6 1.6H81c.2.9 1.4 2 3.3 2 1.2 0 2.4-.4 3.1-.8l-.3 3.1c-.8.5-2.1.8-3.6.8-3.4 0-6.2-2.4-6.2-6.1 0-3.6 2.6-6 5.9-6 3.1 0 5.1 2.2 5.1 4.5 0 .3-.1.7-.1.9zm-5-2.6c-1.1 0-2 .8-2.2 1.8h3.8v-.2c.1-.8-.6-1.6-1.6-1.6zM90.1 220v-2.8h6.5v2.8h-6.5zM106.3 225.5V224c-.5 1.2-1.6 1.9-3.5 1.9-2.5 0-4-1.4-4-3.8v-7.9h3.7v6.9c0 .8.6 1.5 1.7 1.5s1.8-.7 1.8-1.6v-6.9h3.7v11.3h-3.4zM118.4 225.8c-1.2 0-2.4-.4-2.9-.7v6.2H112v-17.1h3.2v1.4c.6-1.1 1.9-1.7 3.5-1.7 2.8 0 5.4 2.1 5.4 6 .1 3.6-2.5 5.9-5.7 5.9zm-.6-8.7c-1.1 0-1.8.6-2.2 1.2v3.5c.3.5 1.1 1 2.2 1 1.6 0 2.7-1.2 2.7-2.8s-1.1-2.9-2.7-2.9z"/></g><g><path class="st0" d="M67.2 243.8c-.7-.5-1.5-.7-2.4-.7-1.6 0-2.9 1.1-2.9 2.8 0 1.6 1.3 2.8 2.9 2.8.9 0 1.7-.2 2.5-.6l-.3 3.1c-.8.3-1.7.5-2.8.5-3.2 0-6.1-2.2-6.1-5.9s3-5.9 6-5.9c1.5 0 2.7.3 3.7.9l-.6 3zM77.5 252c-.7-.1-1.4-.7-1.7-1.5-.5.9-1.6 1.4-2.9 1.4-2 0-3.8-1.4-3.8-3.7 0-2.1 1.6-3.5 3.9-3.7l2.2-.2v-.4c0-.7-.5-1.1-1.8-1.1-1.1 0-2.3.4-3.1.9l-.6-2.8c.9-.6 2.5-1 4-1 3 0 5.1 1.4 5.1 4.1v3.7c0 1.3.5 2 1.4 2.3l-2.7 2zm-2.3-5.4l-1.4.1c-1 .1-1.4.7-1.4 1.4 0 .6.5 1.1 1.1 1.1.9 0 1.6-.7 1.6-1.6v-1zM85.2 252c-2.3-.1-3.9-1.3-3.9-4v-14.2h3.6v13.8c0 .9.5 1.4 1.5 1.5l-1.2 2.9zM91.7 252c-2.3-.1-3.9-1.3-3.9-4v-14.2h3.6v13.8c0 .9.5 1.4 1.5 1.5l-1.2 2.9zM99.8 243.7c-.6.7-.9 1.3-.9 2 0 .4 0 .8.1 1.1l-3.1-.6c-.1-.5-.2-.9-.2-1.3 0-1.3.5-2.5 1.4-3.4.7-.7 1-1.1 1-1.9 0-.5-.5-1.1-1.4-1.1-.9 0-1.7.3-2.5.8l-.7-3.1c.9-.6 2.1-.9 3.6-.9 3 0 4.9 1.7 4.9 4.2-.1 1.4-.7 2.6-2.2 4.2zm-2.3 8.2c-.7 0-2.1-1.4-2.1-2.1 0-.6 1.4-2 2.1-2s2.1 1.4 2.1 2c0 .7-1.4 2.1-2.1 2.1z"/></g></svg>