<svg id="Layer_1" xmlns="http://www.w3.org/2000/svg" viewBox="0 0 160 600"><style>.st0{fill:#f9e039}</style><path class="st0" d="M44.9 109.6c-.7-.4-2-.8-3.3-.8-2.8 0-5.1 1.9-5.1 4.8s2.2 4.9 5.3 4.9c1.3 0 2.5-.2 3.3-.7l-.3 3.4c-.8.4-2 .6-3.6.6-4.1 0-8.5-2.8-8.5-8.2 0-5.4 4.4-8.2 8.5-8.2 2 0 3.5.4 4.5 1l-.8 3.2zM55.2 122c-.7-.1-1.4-.7-1.7-1.5-.5.9-1.6 1.4-2.9 1.4-2 0-3.8-1.4-3.8-3.7 0-2.1 1.6-3.5 3.9-3.7l2.2-.2v-.4c0-.7-.5-1.1-1.8-1.1-1.1 0-2.3.4-3.1.9l-.6-2.8c.9-.6 2.5-1 4-1 3 0 5.1 1.4 5.1 4.1v3.7c0 1.3.5 2 1.4 2.3l-2.7 2zm-2.3-5.4l-1.4.1c-.9.1-1.4.7-1.4 1.4 0 .6.5 1.1 1.1 1.1.9 0 1.6-.7 1.6-1.6v-1zM62.8 122c-2.3-.1-3.9-1.3-3.9-4v-14.2h3.6v13.8c0 .9.5 1.4 1.5 1.5l-1.2 2.9zM74 113.8c-.7-.5-1.5-.7-2.4-.7-1.6 0-2.9 1.1-2.9 2.8 0 1.6 1.3 2.8 2.9 2.8.9 0 1.7-.2 2.5-.6l-.3 3.1c-.8.3-1.7.5-2.8.5-3.2 0-6.1-2.2-6.1-5.9s3-5.9 6-5.9c1.5 0 2.7.3 3.7.9l-.6 3zM83.9 121.5V120c-.5 1.2-1.7 1.9-3.5 1.9-2.5 0-4-1.4-4-3.8v-7.9h3.7v6.9c0 .8.6 1.5 1.7 1.5s1.8-.7 1.8-1.6v-6.9h3.7v11.3h-3.4zM93.5 122c-2.3-.1-3.9-1.3-3.9-4v-14.2h3.6v13.8c0 .9.5 1.4 1.5 1.5l-1.2 2.9zM104.4 122c-.7-.1-1.5-.7-1.8-1.5-.5.9-1.6 1.4-2.9 1.4-2 0-3.8-1.4-3.8-3.7 0-2.1 1.6-3.5 3.9-3.7l2.2-.2v-.4c0-.7-.5-1.1-1.8-1.1-1.1 0-2.3.4-3.1.9l-.6-2.8c.9-.6 2.5-1 4-1 3 0 5.1 1.4 5.1 4.1v3.7c0 1.3.5 2 1.4 2.3l-2.6 2zm-2.4-5.4l-1.4.1c-.9.1-1.4.7-1.4 1.4 0 .6.4 1.1 1.1 1.1.9 0 1.6-.7 1.6-1.6v-1zM115.5 113.2h-2.9v4.2c0 1 .5 1.4 1.5 1.4.4 0 .7 0 1-.1l-.3 2.8c-.3.2-1 .3-1.7.3-2.5 0-4.1-1.3-4.1-3.6v-4.9h-2v-3h1.9v-2.4l3.6-1.3v3.7h3.6l-.6 2.9zM127.6 115.2l-1.6 1.6h-5.5c.2.9 1.4 2 3.3 2 1.2 0 2.4-.4 3.1-.8l-.3 3.1c-.8.5-2.1.8-3.6.8-3.4 0-6.2-2.4-6.2-6.1 0-3.6 2.6-6 5.9-6 3.1 0 5.1 2.2 5.1 4.5-.1.3-.2.7-.2.9zm-5-2.6c-1.1 0-2 .8-2.2 1.8h3.8v-.2c0-.8-.6-1.6-1.6-1.6z"/><g><path class="st0" d="M64.3 146.4c-1.7 4.5-3.5 6.2-5.6 7l-2.2-2.2c1.8-.7 3.2-2 4.1-4.4l-4.1-10.5H60l1.6 4.4c.2.6.5 1.4.7 2.2.2-.8.5-1.6.7-2.2l1.6-4.4H68l-3.7 10.1zM74.6 147.9c-3.4 0-6.2-2.4-6.2-6s2.7-6 6.2-6c3.4 0 6.2 2.4 6.2 6s-2.8 6-6.2 6zm0-8.9c-1.4 0-2.5 1.2-2.5 2.9s1.2 2.9 2.5 2.9c1.4 0 2.5-1.2 2.5-2.9.1-1.7-1.1-2.9-2.5-2.9zM90 147.5V146c-.5 1.2-1.6 1.9-3.5 1.9-2.5 0-4-1.4-4-3.8v-7.9h3.7v6.9c0 .8.6 1.5 1.7 1.5s1.8-.7 1.8-1.6v-6.9h3.7v11.3H90zM102.8 140.1c-.2-.1-.7-.3-1.1-.3-1.2 0-2.2.6-2.2 2.4v5.3h-3.7v-11.3h3.6v2.5c.4-1.8 1.7-2.7 3.2-2.7.4 0 .8 0 1 .1l-.8 4z"/></g><g><path class="st0" d="M44.2 174c-2.3-.1-3.9-1.3-3.9-4v-14.2H44v13.8c0 .9.5 1.4 1.5 1.5l-1.3 2.9zM48.9 160.6c-.6 0-2-1.3-2-2s1.3-1.9 2-1.9 2 1.3 2 1.9-1.4 2-2 2zM47 173.5v-11.3h3.7v11.3H47zM61 159c-.4-.2-1-.3-1.5-.3-1.3 0-2 .8-2 2.4v1.1h3.2l-.7 3h-2.5v8.3H54v-8.3h-1.7v-3H54v-1.3c0-3.4 2.2-5.1 5.1-5.1 1 0 2.1.1 2.7.4L61 159zM72.1 167.2l-1.6 1.6H65c.2.9 1.4 2 3.3 2 1.2 0 2.4-.4 3.1-.8l-.3 3.1c-.9.5-2.1.8-3.6.8-3.4 0-6.2-2.4-6.2-6.1 0-3.6 2.6-6 5.9-6 3.1 0 5.1 2.2 5.1 4.5-.1.3-.2.7-.2.9zm-5-2.6c-1.1 0-2 .8-2.2 1.8h3.8v-.2c.1-.8-.6-1.6-1.6-1.6zM81.7 165.2h-2.9v4.2c0 1 .5 1.4 1.5 1.4.4 0 .7 0 .9-.1l-.3 2.8c-.4.2-1 .3-1.7.3-2.5 0-4.1-1.3-4.1-3.6v-4.9h-1.9v-3h1.9v-2.4l3.6-1.3v3.7h3.6l-.6 2.9zM85.5 160.6c-.6 0-2-1.3-2-2s1.3-1.9 2-1.9 2 1.3 2 1.9-1.3 2-2 2zm-1.8 12.9v-11.3h3.7v11.3h-3.7zM103.7 173.5v-6.9c0-.8-.4-1.5-1.6-1.5-1.2 0-1.7.7-1.7 1.6v6.9h-3.7v-6.9c0-.8-.4-1.5-1.6-1.5-1.2 0-1.7.7-1.7 1.6v6.9h-3.7v-11.3h3.4v1.5c.5-1.2 1.6-1.9 3.3-1.9 1.6 0 2.8.6 3.3 1.8.5-1.1 1.8-1.8 3.5-1.8 2.6 0 4 1.4 4 3.8v7.9h-3.5zM120.1 167.2l-1.6 1.6H113c.2.9 1.4 2 3.3 2 1.2 0 2.4-.4 3.1-.8l-.3 3.1c-.8.5-2.1.8-3.6.8-3.4 0-6.2-2.4-6.2-6.1 0-3.6 2.6-6 5.9-6 3.1 0 5.1 2.2 5.1 4.5-.1.3-.1.7-.2.9zm-5-2.6c-1.1 0-2 .8-2.2 1.8h3.8v-.2c.1-.8-.6-1.6-1.6-1.6z"/></g><g><path class="st0" d="M32.6 186.6c-.6 0-2-1.3-2-2s1.3-1.9 2-1.9 2 1.3 2 1.9-1.3 2-2 2zm-1.8 12.9v-11.3h3.7v11.3h-3.7zM44 199.5v-6.9c0-.8-.5-1.5-1.7-1.5-1.1 0-1.8.7-1.8 1.6v6.9h-3.7v-11.3h3.4v1.5c.4-1.2 1.6-1.9 3.4-1.9 2.5 0 4 1.4 4 3.8v7.9H44zM58.5 191.8c-.7-.5-1.5-.7-2.4-.7-1.6 0-2.9 1.1-2.9 2.8 0 1.6 1.3 2.8 2.9 2.8.9 0 1.7-.2 2.5-.6l-.3 3.1c-.8.3-1.7.5-2.8.5-3.2 0-6.1-2.2-6.1-5.9s3-5.9 6-5.9c1.5 0 2.7.3 3.7.9l-.6 3zM66.5 199.9c-3.4 0-6.2-2.4-6.2-6s2.7-6 6.2-6c3.4 0 6.2 2.4 6.2 6s-2.8 6-6.2 6zm0-8.9c-1.4 0-2.5 1.2-2.5 2.9s1.2 2.9 2.5 2.9c1.4 0 2.5-1.2 2.5-2.9s-1.2-2.9-2.5-2.9zM88.4 199.5v-6.9c0-.8-.4-1.5-1.6-1.5-1.2 0-1.7.7-1.7 1.6v6.9h-3.7v-6.9c0-.8-.4-1.5-1.6-1.5-1.2 0-1.7.7-1.7 1.6v6.9h-3.7v-11.3h3.4v1.5c.4-1.2 1.6-1.9 3.3-1.9 1.6 0 2.8.6 3.3 1.8.5-1.1 1.8-1.8 3.5-1.8 2.6 0 4 1.4 4 3.8v7.9h-3.5zM104.8 193.2l-1.6 1.6h-5.5c.2.9 1.4 2 3.3 2 1.2 0 2.4-.4 3.1-.8l-.3 3.1c-.8.5-2.1.8-3.6.8-3.4 0-6.2-2.4-6.2-6.1 0-3.6 2.6-6 5.9-6 3.1 0 5.1 2.2 5.1 4.5-.1.3-.2.7-.2.9zm-5-2.6c-1.1 0-2 .8-2.2 1.8h3.8v-.2c.1-.8-.6-1.6-1.6-1.6zM114.2 186.6c-.6 0-2-1.3-2-2s1.3-1.9 2-1.9 2 1.3 2 1.9-1.3 2-2 2zm-1.8 12.9v-11.3h3.7v11.3h-3.7zM125.6 199.5v-6.9c0-.8-.5-1.5-1.7-1.5-1.1 0-1.8.7-1.8 1.6v6.9h-3.7v-11.3h3.4v1.5c.5-1.2 1.6-1.9 3.4-1.9 2.5 0 4 1.4 4 3.8v7.9h-3.6z"/></g><g><path class="st0" d="M24.7 225.8c-.9 0-2.2-.2-3-.5l-.3-3.2c.8.4 1.7.7 2.7.7 1.5 0 2.8-.7 2.8-2.3 0-1.2-1.1-2.1-2.5-2.1-.1 0-.2 0-.5.1l-.6-2.7c1.4-.3 2.5-1 2.5-1.9 0-.8-.6-1.3-1.6-1.3-.9 0-1.6.2-2.3.6l-.7-3.1c.8-.4 2.1-.8 3.5-.8 3 0 4.9 1.5 4.9 3.8 0 1.7-1.2 2.7-2.3 3 1.7.4 3.5 1.9 3.5 4.4 0 3.4-2.4 5.3-6.1 5.3zM38.2 225.9c-3.1 0-5.7-2.6-5.7-8.4 0-5.7 2.6-8.3 5.7-8.3s5.7 2.6 5.7 8.3c0 5.7-2.6 8.4-5.7 8.4zm0-13.6c-1.1 0-2.1 1.7-2.1 5.2s1 5.2 2.1 5.2 2.1-1.7 2.1-5.2-1-5.2-2.1-5.2zM55.1 225.8c-1.5 0-2.7-.3-3.6-.8l-.3-3.2c1 .7 2.3 1.2 3.5 1.2.7 0 1.1-.4 1.1-.8 0-.5-.4-.7-1-.9-2.2-.6-3.5-1.7-3.5-3.7 0-2.2 1.8-3.6 4.2-3.6 1.4 0 2.8.4 3.3.7l-.6 2.7c-.5-.3-1.4-.6-2.3-.6-.6 0-1 .3-1 .7 0 .4.3.6 1 .8 2.5.7 3.6 1.9 3.6 3.8.1 1.9-1.3 3.7-4.4 3.7zM71.6 219.2l-1.6 1.6h-5.5c.2.9 1.4 2 3.3 2 1.2 0 2.4-.4 3.1-.8l-.3 3.1c-.9.5-2.1.8-3.6.8-3.4 0-6.2-2.4-6.2-6.1 0-3.6 2.6-6 5.9-6 3.1 0 5.1 2.2 5.1 4.5-.1.3-.1.7-.2.9zm-4.9-2.6c-1.1 0-2 .8-2.2 1.8h3.8v-.2c0-.8-.7-1.6-1.6-1.6zM82.1 217.8c-.8-.5-1.5-.7-2.4-.7-1.6 0-2.9 1.1-2.9 2.8 0 1.6 1.3 2.8 2.9 2.8.9 0 1.7-.2 2.5-.6l-.3 3.1c-.8.3-1.7.5-2.8.5-3.2 0-6.1-2.2-6.1-5.9s3-5.9 6-5.9c1.5 0 2.7.3 3.7.9l-.6 3zM90 225.9c-3.4 0-6.2-2.4-6.2-6s2.7-6 6.2-6c3.4 0 6.2 2.4 6.2 6s-2.8 6-6.2 6zm0-8.9c-1.4 0-2.5 1.2-2.5 2.9s1.2 2.9 2.5 2.9 2.5-1.2 2.5-2.9-1.2-2.9-2.5-2.9zM105.1 225.5v-6.9c0-.8-.5-1.5-1.7-1.5-1.1 0-1.8.7-1.8 1.6v6.9H98v-11.3h3.4v1.5c.5-1.2 1.6-1.9 3.4-1.9 2.5 0 4 1.4 4 3.8v7.9h-3.7zM119.6 225.5v-1.4c-.6 1.1-1.9 1.7-3.5 1.7-2.8 0-5.4-2.1-5.4-6 0-3.6 2.6-6 5.7-6 1.2 0 2.4.4 2.9.8v-6.9h3.6v17.8h-3.3zm-.3-7.4c-.3-.5-1.1-1-2.2-1-1.6 0-2.7 1.2-2.7 2.9s1.1 2.9 2.7 2.9c1.1 0 1.8-.6 2.2-1.2v-3.6zM128.8 225.8c-1.5 0-2.7-.3-3.6-.8l-.3-3.2c1 .7 2.3 1.2 3.5 1.2.7 0 1.1-.4 1.1-.8 0-.5-.4-.7-1-.9-2.2-.6-3.5-1.7-3.5-3.7 0-2.2 1.8-3.6 4.2-3.6 1.4 0 2.8.4 3.3.7l-.6 2.7c-.5-.3-1.4-.6-2.3-.6-.6 0-1 .3-1 .7 0 .4.3.6 1 .8 2.5.7 3.6 1.9 3.6 3.8.1 1.9-1.3 3.7-4.4 3.7zM136.9 225.9c-.7 0-2.1-1.4-2.1-2.1 0-.6 1.4-2 2.1-2s2.1 1.4 2.1 2c-.1.7-1.5 2.1-2.1 2.1z"/></g></svg>