<svg id="Layer_1" xmlns="http://www.w3.org/2000/svg" viewBox="0 0 160 600"><style>.st0{fill:#3abfef}</style><path class="st0" d="M23.9 448.3c-5.3 0-9.7 4.3-9.7 9.7v9.5c0 5.3 4.3 9.7 9.7 9.7H136c5.3 0 9.7-4.3 9.7-9.7V458c0-5.3-4.3-9.7-9.7-9.7H23.9z"/><path d="M29.2 463.5V462h3.4v4.4h-.9l-.3-.9c-.6.7-1.3 1.1-2.2 1.1-2.4 0-3.4-2-3.4-4.1 0-2.2 1.1-4.3 3.5-4.3 1.8 0 2.9 1.1 3.2 2.8l-1.8.2c-.1-.8-.5-1.5-1.4-1.5-1.3 0-1.5 1.7-1.5 2.8 0 1.1.3 2.6 1.6 2.6.8 0 1.4-.6 1.4-1.4h-1.6zM34.6 465.2c-.6-.8-.9-1.9-.9-2.9 0-2.2 1.1-4.2 3.5-4.2 1.1 0 1.9.4 2.6 1.2.6.8.9 2 .9 2.9 0 .9-.2 2.1-.8 2.8-.6.9-1.6 1.4-2.7 1.4s-2-.3-2.6-1.2zm1.4-4.6c-.2.5-.3 1.2-.3 1.7 0 1 .2 2.7 1.5 2.7.7 0 1-.3 1.2-.9.2-.5.2-1.2.2-1.7 0-.6-.1-1.3-.3-1.8-.2-.5-.6-.8-1.2-.8-.5-.1-.9.2-1.1.8zM50.9 459.8h-2v6.5H47v-6.5h-2.1v-1.6h6v1.6zM52.4 465.2c-.6-.8-.9-1.9-.9-2.9 0-2.2 1.1-4.2 3.5-4.2 1.1 0 1.9.4 2.6 1.2.6.8.9 2 .9 2.9 0 .9-.2 2.1-.8 2.8-.6.9-1.6 1.4-2.7 1.4s-1.9-.3-2.6-1.2zm1.4-4.6c-.2.5-.3 1.2-.3 1.7 0 1 .2 2.7 1.5 2.7.7 0 1-.3 1.2-.9.2-.5.2-1.2.2-1.7 0-.6-.1-1.3-.3-1.8-.2-.5-.6-.8-1.2-.8-.5-.1-.9.2-1.1.8zM67.9 461.4c0-.9-.3-1.7-1.4-1.7-1.3 0-1.5 1.8-1.5 2.7 0 1.1.1 2.6 1.6 2.6.9 0 1.3-.7 1.4-1.5l1.9.1c-.2 1.9-1.5 3-3.4 3-2.4 0-3.6-2-3.6-4.2 0-2.3 1.2-4.2 3.7-4.2 2 0 3.1 1.2 3.3 3.2h-2zM77.9 466.4h-2.1l-.5-1.7h-2.6l-.5 1.7h-1.7l2.6-8.2h2.2l2.6 8.2zm-3-3.2l-.9-2.9-.9 2.9h1.8zM83.9 464.8v1.6h-5.2v-8.2h1.9v6.5h3.3zM89.3 461.4c0-.9-.3-1.7-1.4-1.7-1.3 0-1.5 1.8-1.5 2.7 0 1.1.1 2.6 1.6 2.6.9 0 1.3-.7 1.4-1.5l1.9.1c-.2 1.9-1.5 3-3.4 3-2.4 0-3.6-2-3.6-4.2 0-2.3 1.2-4.2 3.7-4.2 2 0 3.1 1.2 3.3 3.2h-2zM98.9 463.1c0 .9 0 1.8-.7 2.5s-1.6.9-2.5.9c-.9 0-1.8-.1-2.5-.7-.8-.7-.8-1.6-.8-2.6v-4.9h2.1v4.9c0 .4 0 .9.2 1.3s.8.5 1.2.5c.4 0 .9-.1 1.2-.4.3-.4.2-.9.2-1.4v-4.9h1.6v4.8zM105.5 464.8v1.6h-5.2v-8.2h1.9v6.5h3.3zM113 466.4h-2l-.5-1.7h-2.6l-.5 1.7h-1.7l2.6-8.2h2.2l2.5 8.2zm-3-3.2l-.9-2.9-.9 2.9h1.8zM118.6 459.8h-2v6.5h-1.9v-6.5h-2.1v-1.6h6v1.6zM120.1 465.2c-.6-.8-.9-1.9-.9-2.9 0-2.2 1.1-4.2 3.5-4.2 1.1 0 1.9.4 2.6 1.2.6.8.9 2 .9 2.9 0 .9-.2 2.1-.8 2.8-.6.9-1.6 1.4-2.7 1.4s-2-.3-2.6-1.2zm1.4-4.6c-.2.5-.3 1.2-.3 1.7 0 1 .2 2.7 1.5 2.7.7 0 1-.3 1.2-.9.2-.5.2-1.2.2-1.7 0-.6-.1-1.3-.3-1.8-.2-.5-.6-.8-1.2-.8-.5-.1-.9.2-1.1.8zM129.3 466.4h-1.9v-8.2h3.4c.7 0 1.5 0 2.1.4.7.4 1 1.2 1 2 0 .9-.5 1.8-1.4 2.1l1.5 3.6h-2l-1.2-3.2h-1.4v3.3zm0-4.7h1c.4 0 .8 0 1.2-.2.3-.2.5-.6.5-.9 0-.3-.2-.7-.5-.8-.3-.2-.9-.2-1.2-.2h-1v2.1z"/></svg>