<svg id="Layer_1" xmlns="http://www.w3.org/2000/svg" xmlns:xlink="http://www.w3.org/1999/xlink" viewBox="0 0 160 600"><style>.st0,.st1{fill:#fff}.st1{clip-path:url(#SVGID_2_)}.st2{clip-path:url(#SVGID_4_);fill:url(#SVGID_5_)}.st3{clip-path:url(#SVGID_7_);fill:url(#SVGID_8_)}.st4{clip-path:url(#SVGID_10_);fill:url(#SVGID_11_)}</style><path class="st0" d="M80.6 27v3.6h-6.3v17.2h-4V30.5H64V27h16.6zm1.7 20.7h4V27h-4V47.7zm24.7 0h-4.1l-2.1-5.1h-7l-2.1 5.1h-4l8.8-21h1.8l8.7 21zm19.5 0h-4.1l-2.1-5.1h-7l-2.1 5.1h-4l8.8-21h1.8l8.7 21zm-27.1-8.5L97.3 34l-2.1 5.2h4.2zm19.4 0l-2.1-5.2-2.1 5.2h4.2z"/><defs><path id="SVGID_1_" d="M31.3 22h97.5v32.8H31.3z"/></defs><clipPath id="SVGID_2_"><use xlink:href="#SVGID_1_" overflow="visible"/></clipPath><path class="st1" d="M49.4 49c1.8 0 3.4-.7 4.5-1.9l4.9-4.9c1.1-1.1 1.8-2.7 1.8-4.5V22.5H45.4c-1.8 0-3.4.7-4.5 1.9L36 29.3c-1.1 1.1-1.8 2.7-1.8 4.5V49h15.2z"/><defs><path id="SVGID_3_" d="M47.2 23.8c-2.8 0-5 2.2-5 5v1.7h10.5V41h1.7c2.8 0 5-2.3 5-5V23.8H47.2z"/></defs><clipPath id="SVGID_4_"><use xlink:href="#SVGID_3_" overflow="visible"/></clipPath><linearGradient id="SVGID_5_" gradientUnits="userSpaceOnUse" x1=".958" y1="601.125" x2="1.958" y2="601.125" gradientTransform="scale(16.8965 -16.8965) rotate(45 730.056 301.73)"><stop offset="0" stop-color="#9edcf9"/><stop offset=".1" stop-color="#9edcf9"/><stop offset=".9" stop-color="#079dd9"/><stop offset="1" stop-color="#079dd9"/></linearGradient><path class="st2" d="M33.5 32.4l17.2-17.2 17.2 17.2-17.2 17.2z"/><g><defs><path id="SVGID_6_" d="M54.3 42.3H40.8l-5.4 5.4h13.9c1.4 0 2.6-.5 3.6-1.5l4.5-4.5-.1-.1c-.9.5-1.9.7-3 .7"/></defs><clipPath id="SVGID_7_"><use xlink:href="#SVGID_6_" overflow="visible"/></clipPath><linearGradient id="SVGID_8_" gradientUnits="userSpaceOnUse" x1=".909" y1="601.045" x2="1.909" y2="601.045" gradientTransform="matrix(22.0274 0 0 -22.0274 15.403 13284.089)"><stop offset="0" stop-color="#17b0e6"/><stop offset=".114" stop-color="#18ace2"/><stop offset=".264" stop-color="#16a1d7"/><stop offset=".433" stop-color="#1290c7"/><stop offset=".617" stop-color="#0d7ab4"/><stop offset=".81" stop-color="#00619f"/><stop offset=".9" stop-color="#005595"/><stop offset="1" stop-color="#005595"/></linearGradient><path class="st3" d="M35.4 41.6h22v6.1h-22z"/></g><g><defs><path id="SVGID_9_" d="M36.9 30.2c-1 1-1.5 2.2-1.5 3.6v13.9l5.4-5.4V28.8c0-1.1.3-2.1.8-3.1l-.1-.1-4.6 4.6z"/></defs><clipPath id="SVGID_10_"><use xlink:href="#SVGID_9_" overflow="visible"/></clipPath><linearGradient id="SVGID_11_" gradientUnits="userSpaceOnUse" x1="1.045" y1="601.091" x2="2.045" y2="601.091" gradientTransform="matrix(0 -22.0277 -22.0277 0 13279.157 70.731)"><stop offset="0" stop-color="#0582be"/><stop offset=".219" stop-color="#0478b4"/><stop offset=".653" stop-color="#00609e"/><stop offset=".85" stop-color="#005595"/><stop offset="1" stop-color="#005595"/></linearGradient><path class="st4" d="M35.4 25.7h6.1v22h-6.1z"/></g></svg>