<?xml version="1.0" encoding="utf-8"?>
<!-- Generator: Adobe Illustrator 22.1.0, SVG Export Plug-In . SVG Version: 6.00 Build 0)  -->
<svg version="1.1" id="Layer_1" xmlns="http://www.w3.org/2000/svg" xmlns:xlink="http://www.w3.org/1999/xlink" x="0px" y="0px"
	 viewBox="0 0 300 600" style="enable-background:new 0 0 300 600;" xml:space="preserve">
<g>
	<path d="M243,573.9c-0.2,0-0.5,0-0.8,0c-1.7,0.3-2.5,1.5-2.7,2.8h0c0.4-0.5,1-0.9,1.9-0.9c1.4,0,2.4,1,2.4,2.5c0,1.4-1,2.7-2.6,2.7
		c-1.7,0-2.8-1.3-2.8-3.3c0-1.5,0.6-2.7,1.3-3.5c0.6-0.6,1.5-1,2.5-1.2c0.3,0,0.6-0.1,0.8-0.1V573.9z M242.7,578.4
		c0-1.1-0.6-1.8-1.6-1.8c-0.6,0-1.2,0.4-1.5,1c-0.1,0.1-0.1,0.3-0.1,0.5c0,1.3,0.6,2.2,1.7,2.2C242.1,580.3,242.7,579.6,242.7,578.4
		z"/>
	<path d="M249.9,577c0,2.7-1,4.1-2.7,4.1c-1.5,0-2.6-1.4-2.6-4c0-2.6,1.1-4.1,2.7-4.1C248.9,573.1,249.9,574.5,249.9,577z
		 M245.6,577.1c0,2,0.6,3.2,1.6,3.2c1.1,0,1.6-1.3,1.6-3.2c0-1.9-0.5-3.2-1.6-3.2C246.3,573.9,245.6,575,245.6,577.1z"/>
	<path d="M255.5,574.1h-3l-0.3,2c0.2,0,0.3,0,0.6,0c0.6,0,1.2,0.1,1.7,0.4c0.6,0.3,1.1,1,1.1,2c0,1.5-1.2,2.7-2.9,2.7
		c-0.9,0-1.6-0.2-1.9-0.5l0.3-0.8c0.3,0.2,1,0.4,1.7,0.4c1,0,1.8-0.6,1.8-1.7c0-1-0.7-1.7-2.2-1.7c-0.4,0-0.8,0-1.1,0.1l0.5-3.7h3.7
		V574.1z"/>
	<path d="M257.6,580.3c0.2,0,0.5,0,0.9,0c0.6-0.1,1.2-0.3,1.6-0.8c0.5-0.5,0.9-1.2,1-2.1h0c-0.4,0.5-1.1,0.8-1.8,0.8
		c-1.4,0-2.3-1.1-2.3-2.4c0-1.5,1.1-2.8,2.7-2.8c1.6,0,2.6,1.3,2.6,3.3c0,1.7-0.6,2.9-1.3,3.7c-0.6,0.6-1.4,0.9-2.3,1
		c-0.4,0.1-0.7,0.1-1,0.1V580.3z M258,575.8c0,1,0.6,1.7,1.5,1.7c0.7,0,1.3-0.3,1.5-0.8c0.1-0.1,0.1-0.2,0.1-0.4
		c0-1.3-0.5-2.4-1.6-2.4C258.6,573.9,258,574.7,258,575.8z"/>
	<path d="M267.6,573.9c-0.2,0-0.5,0-0.8,0c-1.7,0.3-2.5,1.5-2.7,2.8h0c0.4-0.5,1-0.9,1.9-0.9c1.4,0,2.4,1,2.4,2.5
		c0,1.4-1,2.7-2.6,2.7c-1.7,0-2.8-1.3-2.8-3.3c0-1.5,0.6-2.7,1.3-3.5c0.6-0.6,1.5-1,2.5-1.2c0.3,0,0.6-0.1,0.8-0.1V573.9z
		 M267.3,578.4c0-1.1-0.6-1.8-1.6-1.8c-0.6,0-1.2,0.4-1.5,1c-0.1,0.1-0.1,0.3-0.1,0.5c0,1.3,0.6,2.2,1.7,2.2
		C266.7,580.3,267.3,579.6,267.3,578.4z"/>
	<path d="M274.4,573.2v0.7L271,581h-1.1l3.4-6.9v0h-3.8v-0.9H274.4z"/>
	<path d="M279,581l-0.1-0.7h0c-0.3,0.5-0.9,0.9-1.8,0.9c-1.2,0-1.8-0.8-1.8-1.7c0-1.4,1.2-2.2,3.5-2.2v-0.1c0-0.5-0.1-1.3-1.3-1.3
		c-0.5,0-1.1,0.2-1.5,0.4l-0.2-0.7c0.5-0.3,1.2-0.5,1.9-0.5c1.8,0,2.2,1.2,2.2,2.4v2.2c0,0.5,0,1,0.1,1.4H279z M278.9,578
		c-1.2,0-2.5,0.2-2.5,1.3c0,0.7,0.5,1,1,1c0.8,0,1.2-0.5,1.4-1c0-0.1,0.1-0.2,0.1-0.3V578z"/>
</g>
</svg>
