<?xml version="1.0" encoding="utf-8"?>
<!-- Generator: Adobe Illustrator 22.0.1, SVG Export Plug-In . SVG Version: 6.00 Build 0)  -->
<svg version="1.1" id="Layer_1" xmlns="http://www.w3.org/2000/svg" xmlns:xlink="http://www.w3.org/1999/xlink" x="0px" y="0px"
	 viewBox="0 0 300 600" style="enable-background:new 0 0 300 600;" xml:space="preserve">
<g>
	<path d="M30.5,55.5v-6.7H24v6.7h-4.1v-17H24v6.7h6.6v-6.7h4.1v17H30.5z"/>
	<path d="M46.1,56.1c-0.7-0.2-1.5-0.7-1.9-1.6c-0.5,1-1.7,1.5-3.1,1.5c-2.1,0-4-1.5-4-4c0-2.2,1.7-3.7,4.1-3.9l2.4-0.2v-0.4
		c0-0.7-0.6-1.2-1.9-1.2c-1.2,0-2.5,0.4-3.4,0.9l-0.7-3c1-0.6,2.6-1.1,4.2-1.1c3.2,0,5.5,1.5,5.5,4.4v3.9c0,1.4,0.5,2.2,1.5,2.5
		L46.1,56.1z M43.6,50.3l-1.5,0.1c-1,0.1-1.5,0.8-1.5,1.5c0,0.6,0.5,1.2,1.2,1.2c0.9,0,1.7-0.7,1.7-1.8V50.3z"/>
	<path d="M56.1,55.7h-2.9l-4.6-12.2h3.8l1.7,4.6c0.2,0.6,0.5,1.5,0.7,2.3h0.1c0.2-0.8,0.5-1.7,0.7-2.3l1.7-4.6h3.6L56.1,55.7z"/>
	<path d="M64.2,41.8c-0.7,0-2.1-1.4-2.1-2.1c0-0.7,1.4-2.1,2.1-2.1s2.1,1.4,2.1,2.1C66.3,40.4,64.9,41.8,64.2,41.8z M62.2,55.5V43.5
		h3.9v12.1H62.2z"/>
	<path d="M76.4,55.5v-7.4c0-0.9-0.6-1.7-1.8-1.7c-1.2,0-1.9,0.7-1.9,1.7v7.4h-3.9V43.5h3.6v1.6h0c0.5-1.3,1.7-2,3.7-2
		c2.6,0,4.2,1.5,4.2,4.1v8.4H76.4z"/>
	<path d="M87.9,61.7c-3.5,0-5.9-2-5.9-4.5c0-1.8,1.2-2.9,2.5-3.3L83,52.4c0.1-0.8,0.8-1.4,1.5-1.7c-0.9-0.6-1.8-1.7-1.8-3.2
		c0-2.6,1.8-4.3,5-4.3c0.7,0,1.3,0.1,1.8,0.2c0.5,0.1,1.1,0.2,1.7,0.2c0.7,0,1.4-0.2,1.9-0.4l0.7,3c-0.4,0.2-1,0.4-1.5,0.4
		c0.1,0.2,0.3,0.8,0.3,1.2c0,2-1.6,3.7-3.9,3.9c-0.5,0-0.8,0.1-0.8,0.5c0,0.1,0.1,0.3,0.3,0.4l1.9,0.7c2.4,0.9,3.7,2.1,3.7,4.3
		C93.7,59.8,91.4,61.7,87.9,61.7z M88.7,56l-1.4-0.4c-0.9,0-1.6,0.7-1.6,1.6c0,0.8,0.7,1.5,2.1,1.5c1.4,0,2.1-0.6,2.1-1.3
		C89.9,56.8,89.5,56.2,88.7,56z M87.7,45.9c-0.9,0-1.5,0.7-1.5,1.4c0,0.8,0.7,1.4,1.5,1.4c0.9,0,1.5-0.6,1.5-1.4
		C89.2,46.6,88.6,45.9,87.7,45.9z"/>
	<path d="M109.5,46.7h-3.1v4.5c0,1,0.6,1.5,1.6,1.5c0.5,0,0.7,0,1-0.2l-0.3,3c-0.4,0.2-1,0.3-1.8,0.3c-2.7,0-4.3-1.4-4.3-3.8v-5.2
		h-2v-3.2h2v-2.6l3.9-1.4v4h3.9L109.5,46.7z"/>
	<path d="M117.4,55.9c-3.7,0-6.6-2.6-6.6-6.4s2.9-6.4,6.6-6.4c3.6,0,6.6,2.6,6.6,6.4S121,55.9,117.4,55.9z M117.4,46.5
		c-1.5,0-2.7,1.3-2.7,3.1c0,1.8,1.3,3.1,2.7,3.1c1.4,0,2.7-1.3,2.7-3.1C120.1,47.8,118.8,46.5,117.4,46.5z"/>
	<path d="M132,55.9c-3.7,0-6.6-2.6-6.6-6.4s2.9-6.4,6.6-6.4c3.6,0,6.6,2.6,6.6,6.4S135.6,55.9,132,55.9z M132,46.5
		c-1.5,0-2.7,1.3-2.7,3.1c0,1.8,1.3,3.1,2.7,3.1c1.4,0,2.7-1.3,2.7-3.1C134.7,47.8,133.4,46.5,132,46.5z"/>
	<path d="M161.3,55.5v-7.4c0-0.9-0.4-1.7-1.7-1.7c-1.3,0-1.8,0.7-1.8,1.7v7.4h-3.9v-7.4c0-0.9-0.4-1.7-1.7-1.7
		c-1.3,0-1.8,0.7-1.8,1.7v7.4h-3.9V43.5h3.6v1.6h0c0.5-1.3,1.7-2,3.6-2c1.7,0,3,0.7,3.6,2c0.5-1.2,1.9-2,3.7-2
		c2.7,0,4.3,1.5,4.3,4.1v8.4H161.3z"/>
	<path d="M176.3,56.1c-0.7-0.2-1.5-0.7-1.9-1.6c-0.5,1-1.7,1.5-3.1,1.5c-2.1,0-4-1.5-4-4c0-2.2,1.7-3.7,4.1-3.9l2.4-0.2v-0.4
		c0-0.7-0.6-1.2-1.9-1.2c-1.2,0-2.5,0.4-3.4,0.9l-0.7-3c1-0.6,2.6-1.1,4.2-1.1c3.2,0,5.5,1.5,5.5,4.4v3.9c0,1.4,0.5,2.2,1.5,2.5
		L176.3,56.1z M173.8,50.3l-1.5,0.1c-1,0.1-1.5,0.8-1.5,1.5c0,0.6,0.5,1.2,1.2,1.2c0.9,0,1.7-0.7,1.7-1.8V50.3z"/>
	<path d="M188,55.5v-7.4c0-0.9-0.6-1.7-1.8-1.7c-1.2,0-1.9,0.7-1.9,1.7v7.4h-3.9V43.5h3.6v1.6h0c0.5-1.3,1.7-2,3.7-2
		c2.6,0,4.2,1.5,4.2,4.1v8.4H188z"/>
	<path d="M201.3,54.3c-1.8,4.9-3.8,6.6-6,7.5l-2.4-2.4c1.9-0.7,3.4-2.2,4.4-4.7l-4.3-11.3h3.8l1.8,4.7c0.3,0.7,0.5,1.5,0.7,2.4h0.1
		c0.2-0.8,0.5-1.7,0.8-2.4l1.8-4.7h3.6L201.3,54.3z"/>
</g>
<g>
	<path d="M27.1,73c-0.2-0.1-0.8-0.3-1.2-0.3c-1.3,0-2.4,0.7-2.4,2.6v5.6h-3.9V68.8h3.9v2.7h0c0.4-1.9,1.8-2.9,3.4-2.9
		c0.4,0,0.8,0.1,1.1,0.2L27.1,73z"/>
	<path d="M40.3,74.2l-1.7,1.8h-5.9c0.2,1,1.5,2.1,3.6,2.1c1.3,0,2.5-0.4,3.3-0.9l-0.4,3.4c-0.9,0.5-2.3,0.8-3.8,0.8
		c-3.7,0-6.6-2.6-6.6-6.5c0-3.9,2.8-6.4,6.3-6.4c3.4,0,5.4,2.3,5.4,4.8C40.4,73.5,40.3,73.9,40.3,74.2z M34.9,71.3
		c-1.1,0-2.1,0.9-2.3,2h4.1c0-0.1,0-0.2,0-0.3C36.7,72.2,36,71.3,34.9,71.3z"/>
	<path d="M50.5,72h-3.1v4.5c0,1,0.6,1.5,1.6,1.5c0.5,0,0.7,0,1-0.2l-0.3,3c-0.4,0.2-1,0.3-1.8,0.3c-2.7,0-4.3-1.4-4.3-3.8V72h-2
		v-3.2h2v-2.6l3.9-1.4v4h3.9L50.5,72z"/>
	<path d="M54.6,67.1c-0.7,0-2.1-1.4-2.1-2.1c0-0.7,1.4-2.1,2.1-2.1s2.1,1.4,2.1,2.1C56.8,65.7,55.3,67.1,54.6,67.1z M52.7,80.9V68.8
		h3.9v12.1H52.7z"/>
	<path d="M66.7,73c-0.2-0.1-0.8-0.3-1.2-0.3c-1.3,0-2.4,0.7-2.4,2.6v5.6h-3.9V68.8H63v2.7h0c0.4-1.9,1.8-2.9,3.4-2.9
		c0.4,0,0.8,0.1,1.1,0.2L66.7,73z"/>
	<path d="M79.8,74.2l-1.7,1.8h-5.9c0.2,1,1.5,2.1,3.6,2.1c1.3,0,2.5-0.4,3.3-0.9l-0.4,3.4c-0.9,0.5-2.3,0.8-3.8,0.8
		c-3.7,0-6.6-2.6-6.6-6.5c0-3.9,2.8-6.4,6.3-6.4c3.4,0,5.4,2.3,5.4,4.8C79.9,73.5,79.9,73.9,79.8,74.2z M74.5,71.3
		c-1.1,0-2.1,0.9-2.3,2h4.1c0-0.1,0-0.2,0-0.3C76.2,72.2,75.5,71.3,74.5,71.3z"/>
	<path d="M96.7,80.9v-7.4c0-0.9-0.4-1.7-1.7-1.7c-1.3,0-1.8,0.7-1.8,1.7v7.4h-3.9v-7.4c0-0.9-0.4-1.7-1.7-1.7
		c-1.3,0-1.8,0.7-1.8,1.7v7.4h-3.9V68.8h3.6v1.6h0c0.5-1.3,1.7-2,3.6-2c1.7,0,3,0.7,3.6,2c0.5-1.2,1.9-2,3.7-2
		c2.7,0,4.3,1.5,4.3,4.1v8.4H96.7z"/>
	<path d="M114.2,74.2l-1.7,1.8h-5.9c0.2,1,1.5,2.1,3.6,2.1c1.3,0,2.5-0.4,3.3-0.9l-0.4,3.4c-0.9,0.5-2.3,0.8-3.8,0.8
		c-3.7,0-6.6-2.6-6.6-6.5c0-3.9,2.8-6.4,6.3-6.4c3.4,0,5.4,2.3,5.4,4.8C114.3,73.5,114.3,73.9,114.2,74.2z M108.9,71.3
		c-1.1,0-2.1,0.9-2.3,2h4.1c0-0.1,0-0.2,0-0.3C110.7,72.2,110,71.3,108.9,71.3z"/>
	<path d="M123.9,80.9v-7.4c0-0.9-0.6-1.7-1.8-1.7c-1.2,0-1.9,0.7-1.9,1.7v7.4h-3.9V68.8h3.6v1.6h0c0.5-1.3,1.7-2,3.7-2
		c2.6,0,4.2,1.5,4.2,4.1v8.4H123.9z"/>
	<path d="M138.2,72h-3.1v4.5c0,1,0.6,1.5,1.6,1.5c0.5,0,0.7,0,1-0.2l-0.3,3c-0.4,0.2-1,0.3-1.8,0.3c-2.7,0-4.3-1.4-4.3-3.8V72h-2
		v-3.2h2v-2.6l3.9-1.4v4h3.9L138.2,72z"/>
	<path d="M154.9,81.4c-0.7-0.2-1.5-0.7-1.9-1.6c-0.5,1-1.7,1.5-3.1,1.5c-2.1,0-4-1.5-4-4c0-2.2,1.7-3.7,4.1-3.9l2.4-0.2v-0.4
		c0-0.7-0.6-1.2-1.9-1.2c-1.2,0-2.5,0.4-3.4,0.9l-0.7-3c1-0.6,2.6-1.1,4.2-1.1c3.2,0,5.5,1.5,5.5,4.4v3.9c0,1.4,0.5,2.2,1.5,2.5
		L154.9,81.4z M152.4,75.6l-1.5,0.1c-1,0.1-1.5,0.8-1.5,1.5c0,0.6,0.5,1.2,1.2,1.2c0.9,0,1.7-0.7,1.7-1.8V75.6z"/>
	<path d="M167.9,72.7c-0.8-0.5-1.6-0.8-2.6-0.8c-1.7,0-3.1,1.2-3.1,3c0,1.7,1.4,3,3.1,3c1,0,1.8-0.2,2.6-0.7l-0.3,3.3
		c-0.8,0.4-1.8,0.6-3,0.6c-3.4,0-6.5-2.4-6.5-6.3c0-3.9,3.2-6.3,6.5-6.3c1.6,0,2.9,0.3,4,0.9L167.9,72.7z"/>
	<path d="M179.6,72.7c-0.8-0.5-1.6-0.8-2.6-0.8c-1.7,0-3.1,1.2-3.1,3c0,1.7,1.4,3,3.1,3c1,0,1.8-0.2,2.6-0.7l-0.3,3.3
		c-0.8,0.4-1.8,0.6-3,0.6c-3.4,0-6.5-2.4-6.5-6.3c0-3.9,3.2-6.3,6.5-6.3c1.6,0,2.9,0.3,4,0.9L179.6,72.7z"/>
	<path d="M188.1,81.3c-3.7,0-6.6-2.6-6.6-6.4s2.9-6.4,6.6-6.4c3.6,0,6.6,2.6,6.6,6.4S191.7,81.3,188.1,81.3z M188.1,71.8
		c-1.5,0-2.7,1.3-2.7,3.1c0,1.8,1.3,3.1,2.7,3.1c1.4,0,2.7-1.3,2.7-3.1C190.8,73.1,189.5,71.8,188.1,71.8z"/>
	<path d="M204.5,80.9v-1.7h0c-0.5,1.3-1.8,2-3.7,2c-2.6,0-4.2-1.5-4.2-4v-8.4h3.9v7.4c0,0.9,0.6,1.7,1.8,1.7c1.2,0,1.9-0.8,1.9-1.7
		v-7.3h3.9v12.1H204.5z"/>
	<path d="M218.3,80.9v-7.4c0-0.9-0.6-1.7-1.8-1.7c-1.2,0-1.9,0.7-1.9,1.7v7.4h-3.9V68.8h3.6v1.6h0c0.5-1.3,1.7-2,3.7-2
		c2.6,0,4.2,1.5,4.2,4.1v8.4H218.3z"/>
	<path d="M232.6,72h-3.1v4.5c0,1,0.6,1.5,1.6,1.5c0.5,0,0.7,0,1-0.2l-0.3,3c-0.4,0.2-1,0.3-1.8,0.3c-2.7,0-4.3-1.4-4.3-3.8V72h-2
		v-3.2h2v-2.6l3.9-1.4v4h3.9L232.6,72z"/>
	<path d="M238.5,81.1c-1.7,0-2.9-0.3-3.8-0.9l-0.3-3.5c1.1,0.7,2.5,1.3,3.8,1.3c0.7,0,1.2-0.4,1.2-0.8c0-0.5-0.4-0.7-1.1-0.9
		c-2.3-0.7-3.7-1.8-3.7-3.9c0-2.4,1.9-3.9,4.5-3.9c1.5,0,3,0.4,3.6,0.7l-0.7,2.9c-0.6-0.3-1.5-0.7-2.5-0.7c-0.6,0-1.1,0.3-1.1,0.8
		c0,0.5,0.3,0.7,1.1,0.9c2.7,0.7,3.8,2.1,3.8,4.1C243.2,79.3,241.7,81.1,238.5,81.1z"/>
</g>
<g>
	<path d="M28.9,98c-0.8-0.5-1.6-0.8-2.6-0.8c-1.7,0-3.1,1.2-3.1,3c0,1.7,1.4,3,3.1,3c1,0,1.8-0.2,2.6-0.7l-0.3,3.3
		c-0.8,0.4-1.8,0.6-3,0.6c-3.4,0-6.5-2.4-6.5-6.3c0-3.9,3.2-6.3,6.5-6.3c1.6,0,2.9,0.3,4,0.9L28.9,98z"/>
	<path d="M40,106.7c-0.7-0.2-1.5-0.7-1.9-1.6c-0.5,1-1.7,1.5-3.1,1.5c-2.1,0-4-1.5-4-4c0-2.2,1.7-3.7,4.1-3.9l2.4-0.2V98
		c0-0.7-0.6-1.2-1.9-1.2c-1.2,0-2.5,0.4-3.4,0.9l-0.7-3c1-0.6,2.6-1.1,4.2-1.1c3.2,0,5.5,1.5,5.5,4.4v3.9c0,1.4,0.5,2.2,1.5,2.5
		L40,106.7z M37.4,100.9l-1.5,0.1c-1,0.1-1.5,0.8-1.5,1.5c0,0.6,0.5,1.2,1.2,1.2c0.9,0,1.7-0.7,1.7-1.8V100.9z"/>
	<path d="M51.7,106.2v-7.4c0-0.9-0.6-1.7-1.8-1.7c-1.2,0-1.9,0.7-1.9,1.7v7.4H44V94.1h3.6v1.6h0c0.5-1.3,1.7-2,3.7-2
		c2.6,0,4.2,1.5,4.2,4.1v8.4H51.7z"/>
	<path d="M69.9,106.6c-2.6,0-4.6-0.9-5.8-1.8V87.2h3.8v7.3c0.5-0.4,1.8-0.8,3-0.8c3.3,0,6.1,2.4,6.1,6.2
		C77,103.7,74.6,106.6,69.9,106.6z M70.2,97.2c-1.1,0-2,0.5-2.3,0.9v4.6c0.4,0.3,1.2,0.6,2,0.6c2,0,3.3-1.4,3.3-3.1
		C73.1,98.5,71.9,97.2,70.2,97.2z"/>
	<path d="M90,99.5l-1.7,1.8h-5.9c0.2,1,1.5,2.1,3.6,2.1c1.3,0,2.5-0.4,3.3-0.9l-0.4,3.4c-0.9,0.5-2.3,0.8-3.8,0.8
		c-3.7,0-6.6-2.6-6.6-6.5c0-3.9,2.8-6.4,6.3-6.4c3.4,0,5.4,2.3,5.4,4.8C90.1,98.9,90,99.3,90,99.5z M84.7,96.7c-1.1,0-2.1,0.9-2.3,2
		h4.1c0-0.1,0-0.2,0-0.3C86.4,97.5,85.7,96.7,84.7,96.7z"/>
	<path d="M107.2,98c-0.8-0.5-1.6-0.8-2.6-0.8c-1.7,0-3.1,1.2-3.1,3c0,1.7,1.4,3,3.1,3c1,0,1.8-0.2,2.6-0.7l-0.3,3.3
		c-0.8,0.4-1.8,0.6-3,0.6c-3.4,0-6.5-2.4-6.5-6.3c0-3.9,3.2-6.3,6.5-6.3c1.6,0,2.9,0.3,4,0.9L107.2,98z"/>
	<path d="M115.7,106.6c-3.7,0-6.6-2.6-6.6-6.4s2.9-6.4,6.6-6.4c3.6,0,6.6,2.6,6.6,6.4S119.3,106.6,115.7,106.6z M115.7,97.1
		c-1.5,0-2.7,1.3-2.7,3.1c0,1.8,1.3,3.1,2.7,3.1c1.4,0,2.7-1.3,2.7-3.1C118.4,98.4,117.1,97.1,115.7,97.1z"/>
	<path d="M128,106.5c-1.7,0-2.9-0.3-3.8-0.9l-0.3-3.5c1.1,0.7,2.5,1.3,3.8,1.3c0.7,0,1.2-0.4,1.2-0.8c0-0.5-0.4-0.7-1.1-0.9
		c-2.3-0.7-3.7-1.8-3.7-3.9c0-2.4,1.9-3.9,4.5-3.9c1.5,0,3,0.4,3.6,0.7l-0.7,2.9c-0.6-0.3-1.5-0.7-2.5-0.7c-0.6,0-1.1,0.3-1.1,0.8
		c0,0.5,0.3,0.7,1.1,0.9c2.7,0.7,3.8,2.1,3.8,4.1C132.8,104.6,131.3,106.5,128,106.5z"/>
	<path d="M142.6,97.3h-3.1v4.5c0,1,0.6,1.5,1.6,1.5c0.5,0,0.7,0,1-0.2l-0.3,3c-0.4,0.2-1,0.3-1.8,0.3c-2.7,0-4.3-1.4-4.3-3.8v-5.2
		h-2v-3.2h2v-2.6l3.9-1.4v4h3.9L142.6,97.3z"/>
	<path d="M148.9,106.7c-2.5-0.1-4.1-1.4-4.1-4.3V87.2h3.9v14.7c0,1,0.6,1.5,1.6,1.6L148.9,106.7z"/>
	<path d="M158.8,105c-1.8,4.9-3.8,6.6-6,7.5l-2.4-2.4c1.9-0.7,3.4-2.2,4.4-4.7l-4.3-11.3h3.8l1.8,4.7c0.3,0.7,0.5,1.5,0.7,2.4h0.1
		c0.2-0.8,0.5-1.7,0.8-2.4l1.8-4.7h3.6L158.8,105z"/>
	<path d="M164.9,106.6c-0.7,0-2.2-1.5-2.2-2.2c0-0.7,1.5-2.2,2.2-2.2c0.7,0,2.2,1.5,2.2,2.2C167.1,105.1,165.6,106.6,164.9,106.6z"
		/>
</g>
</svg>
