<?xml version="1.0" encoding="utf-8"?>
<!-- Generator: Adobe Illustrator 22.1.0, SVG Export Plug-In . SVG Version: 6.00 Build 0)  -->
<svg version="1.1" id="Layer_1" xmlns="http://www.w3.org/2000/svg" xmlns:xlink="http://www.w3.org/1999/xlink" x="0px" y="0px"
	 viewBox="0 0 300 600" style="enable-background:new 0 0 300 600;" xml:space="preserve">
<style type="text/css">
	.st0{font-family:'Agenda-Bold';}
	.st1{font-size:26.6667px;}
</style>
<g>
	<path d="M37.6,62l-1.4-3.8h-5.4L29.4,62h-3.9l6.7-17.2H35L41.7,62H37.6z M34,51.8c-0.2-0.5-0.4-1-0.5-1.6h-0.1
		c-0.1,0.6-0.3,1.1-0.5,1.6l-1.1,3.1h3.3L34,51.8z"/>
	<path d="M50.8,62v-7.4c0-0.9-0.6-1.7-1.8-1.7c-1.2,0-1.9,0.7-1.9,1.7V62h-3.9V49.9h3.6v1.6h0c0.5-1.3,1.7-2,3.7-2
		c2.6,0,4.2,1.5,4.2,4.1V62H50.8z"/>
	<path d="M66.2,62v-1.5h0c-0.7,1.2-2.1,1.8-3.7,1.8c-3,0-5.8-2.2-5.8-6.4c0-3.9,2.8-6.4,6.1-6.4c1.3,0,2.6,0.4,3.1,0.8V43h3.8v19
		H66.2z M65.9,54.1c-0.4-0.5-1.2-1.1-2.4-1.1c-1.7,0-2.9,1.3-2.9,3.1c0,1.7,1.2,3.1,2.9,3.1c1.1,0,1.9-0.6,2.4-1.3V54.1z"/>
	<path d="M84.1,62.3c-2.6,0-4.6-0.9-5.8-1.8V43H82v7.3c0.5-0.4,1.8-0.8,3-0.8c3.3,0,6.1,2.4,6.1,6.2C91.2,59.5,88.8,62.3,84.1,62.3z
		 M84.4,53c-1.1,0-2,0.5-2.3,0.9v4.6c0.4,0.3,1.2,0.6,2,0.6c2,0,3.3-1.4,3.3-3.1C87.3,54.3,86.1,53,84.4,53z"/>
	<path d="M99.9,60.8c-1.8,4.9-3.8,6.6-6,7.5l-2.4-2.4c1.9-0.7,3.4-2.2,4.4-4.7l-4.3-11.3h3.8l1.8,4.7c0.3,0.7,0.5,1.5,0.7,2.4h0.1
		c0.2-0.8,0.5-1.7,0.8-2.4l1.8-4.7h3.6L99.9,60.8z"/>
	<path d="M118.4,62.3c-1.3,0-2.6-0.4-3.1-0.8v6.6h-3.8V49.9h3.4v1.5h0c0.7-1.2,2.1-1.8,3.7-1.8c3,0,5.8,2.2,5.8,6.4
		C124.5,59.8,121.7,62.3,118.4,62.3z M117.7,53c-1.1,0-1.9,0.6-2.4,1.3V58c0.4,0.5,1.2,1.1,2.4,1.1c1.7,0,2.9-1.3,2.9-3
		C120.6,54.3,119.4,53,117.7,53z"/>
	<path d="M132.5,62.4c-3.7,0-6.6-2.6-6.6-6.4s2.9-6.4,6.6-6.4c3.6,0,6.6,2.6,6.6,6.4S136.1,62.4,132.5,62.4z M132.5,52.9
		c-1.5,0-2.7,1.3-2.7,3.1c0,1.8,1.3,3.1,2.7,3.1c1.4,0,2.7-1.3,2.7-3.1C135.2,54.2,134,52.9,132.5,52.9z"/>
	<path d="M149.1,53.1H146v4.5c0,1,0.6,1.5,1.6,1.5c0.5,0,0.7,0,1-0.2l-0.3,3c-0.4,0.2-1,0.3-1.8,0.3c-2.7,0-4.3-1.4-4.3-3.8v-5.2h-2
		v-3.2h2v-2.6l3.9-1.4v4h3.9L149.1,53.1z"/>
	<path d="M162,55.3l-1.7,1.8h-5.9c0.2,1,1.5,2.1,3.6,2.1c1.3,0,2.5-0.4,3.3-0.9l-0.4,3.4c-0.9,0.5-2.3,0.8-3.8,0.8
		c-3.7,0-6.6-2.6-6.6-6.5c0-3.9,2.8-6.4,6.3-6.4c3.4,0,5.4,2.3,5.4,4.8C162.1,54.6,162.1,55,162,55.3z M156.7,52.4
		c-1.1,0-2.1,0.9-2.3,2h4.1c0-0.1,0-0.2,0-0.3C158.5,53.3,157.8,52.4,156.7,52.4z"/>
	<path d="M171.7,62v-7.4c0-0.9-0.6-1.7-1.8-1.7c-1.2,0-1.9,0.7-1.9,1.7V62h-3.9V49.9h3.6v1.6h0c0.5-1.3,1.7-2,3.7-2
		c2.6,0,4.2,1.5,4.2,4.1V62H171.7z"/>
	<path d="M186.1,53.1h-3.1v4.5c0,1,0.6,1.5,1.6,1.5c0.5,0,0.7,0,1-0.2l-0.3,3c-0.4,0.2-1,0.3-1.8,0.3c-2.7,0-4.3-1.4-4.3-3.8v-5.2
		h-2v-3.2h2v-2.6l3.9-1.4v4h3.9L186.1,53.1z"/>
	<path d="M190.2,48.2c-0.7,0-2.1-1.4-2.1-2.1c0-0.7,1.4-2.1,2.1-2.1c0.7,0,2.1,1.4,2.1,2.1C192.3,46.8,190.9,48.2,190.2,48.2z
		 M188.2,62V49.9h3.9V62H188.2z"/>
	<path d="M203.2,62.5c-0.7-0.2-1.5-0.7-1.9-1.6c-0.5,1-1.7,1.5-3.1,1.5c-2.1,0-4-1.5-4-4c0-2.2,1.7-3.7,4.1-3.9l2.4-0.2v-0.4
		c0-0.7-0.6-1.2-1.9-1.2c-1.2,0-2.5,0.4-3.4,0.9l-0.7-3c1-0.6,2.6-1.1,4.2-1.1c3.2,0,5.5,1.5,5.5,4.4v3.9c0,1.4,0.5,2.2,1.5,2.5
		L203.2,62.5z M200.7,56.7l-1.5,0.1c-1,0.1-1.5,0.8-1.5,1.5c0,0.6,0.5,1.2,1.2,1.2c0.9,0,1.7-0.7,1.7-1.8V56.7z"/>
	<path d="M211.4,62.5c-2.5-0.1-4.1-1.4-4.1-4.3V43h3.9v14.7c0,1,0.6,1.5,1.6,1.6L211.4,62.5z"/>
	<path d="M218.4,62.5c-2.5-0.1-4.1-1.4-4.1-4.3V43h3.9v14.7c0,1,0.6,1.5,1.6,1.6L218.4,62.5z"/>
	<path d="M228.3,60.8c-1.8,4.9-3.8,6.6-6,7.5l-2.4-2.4c1.9-0.7,3.4-2.2,4.4-4.7L220,49.9h3.8l1.8,4.7c0.3,0.7,0.5,1.5,0.7,2.4h0.1
		c0.2-0.8,0.5-1.7,0.8-2.4l1.8-4.7h3.6L228.3,60.8z"/>
</g>
<text transform="matrix(1 0 0 1 238.6442 61.9859)" class="st0 st1"> </text>
<g>
	<path d="M30.6,89.1c-2.5-0.1-4.1-1.4-4.1-4.3V69.7h3.9v14.7c0,1,0.6,1.5,1.6,1.6L30.6,89.1z"/>
	<path d="M35.6,74.9c-0.7,0-2.1-1.4-2.1-2.1c0-0.7,1.4-2.1,2.1-2.1s2.1,1.4,2.1,2.1C37.7,73.5,36.3,74.9,35.6,74.9z M33.6,88.7V76.6
		h3.9v12.1H33.6z"/>
	<path d="M55,88.7v-7.4c0-0.9-0.4-1.7-1.7-1.7c-1.3,0-1.8,0.7-1.8,1.7v7.4h-3.9v-7.4c0-0.9-0.4-1.7-1.7-1.7c-1.3,0-1.8,0.7-1.8,1.7
		v7.4h-3.9V76.6h3.6v1.6h0c0.5-1.3,1.7-2,3.6-2c1.7,0,3,0.7,3.6,2c0.5-1.2,1.9-2,3.7-2c2.7,0,4.3,1.5,4.3,4.1v8.4H55z"/>
	<path d="M63.5,74.9c-0.7,0-2.1-1.4-2.1-2.1c0-0.7,1.4-2.1,2.1-2.1s2.1,1.4,2.1,2.1C65.6,73.5,64.2,74.9,63.5,74.9z M61.5,88.7V76.6
		h3.9v12.1H61.5z"/>
	<path d="M76,79.8h-3.1v4.5c0,1,0.6,1.5,1.6,1.5c0.5,0,0.7,0,1-0.2l-0.3,3c-0.4,0.2-1,0.3-1.8,0.3c-2.7,0-4.3-1.4-4.3-3.8v-5.2h-2
		v-3.2h2V74l3.9-1.4v4h3.9L76,79.8z"/>
	<path d="M80.2,74.9c-0.7,0-2.1-1.4-2.1-2.1c0-0.7,1.4-2.1,2.1-2.1s2.1,1.4,2.1,2.1C82.3,73.5,80.9,74.9,80.2,74.9z M78.2,88.7V76.6
		h3.9v12.1H78.2z"/>
	<path d="M92.4,88.7v-7.4c0-0.9-0.6-1.7-1.8-1.7c-1.2,0-1.9,0.7-1.9,1.7v7.4h-3.9V76.6h3.6v1.6h0c0.5-1.3,1.7-2,3.7-2
		c2.6,0,4.2,1.5,4.2,4.1v8.4H92.4z"/>
	<path d="M103.9,94.8c-3.5,0-5.9-2-5.9-4.5c0-1.8,1.2-2.9,2.5-3.3l-1.5-1.5c0.1-0.8,0.8-1.4,1.5-1.7c-0.9-0.6-1.8-1.7-1.8-3.2
		c0-2.6,1.8-4.3,5-4.3c0.7,0,1.3,0.1,1.8,0.2c0.5,0.1,1.1,0.2,1.7,0.2c0.7,0,1.4-0.2,1.9-0.4l0.7,3c-0.4,0.2-1,0.4-1.5,0.4
		c0.1,0.2,0.3,0.8,0.3,1.2c0,2-1.6,3.7-3.9,3.9c-0.5,0-0.8,0.1-0.8,0.5c0,0.1,0.1,0.3,0.3,0.4l1.9,0.7c2.4,0.9,3.7,2.1,3.7,4.3
		C109.7,92.9,107.4,94.8,103.9,94.8z M104.7,89.1l-1.4-0.4c-0.9,0-1.6,0.7-1.6,1.6c0,0.8,0.7,1.5,2.1,1.5c1.4,0,2.1-0.6,2.1-1.3
		C105.9,89.9,105.5,89.3,104.7,89.1z M103.6,79c-0.9,0-1.5,0.7-1.5,1.4c0,0.8,0.7,1.4,1.5,1.4c0.9,0,1.5-0.6,1.5-1.4
		C105.2,79.7,104.5,79,103.6,79z"/>
	<path d="M124.8,87.5c-1.8,4.9-3.8,6.6-6,7.5l-2.4-2.4c1.9-0.7,3.4-2.2,4.4-4.7l-4.3-11.3h3.8l1.8,4.7c0.3,0.7,0.5,1.5,0.7,2.4h0.1
		c0.2-0.8,0.5-1.7,0.8-2.4l1.8-4.7h3.6L124.8,87.5z"/>
	<path d="M135.8,89c-3.7,0-6.6-2.6-6.6-6.4s2.9-6.4,6.6-6.4c3.6,0,6.6,2.6,6.6,6.4S139.4,89,135.8,89z M135.8,79.6
		c-1.5,0-2.7,1.3-2.7,3.1c0,1.8,1.3,3.1,2.7,3.1c1.4,0,2.7-1.3,2.7-3.1C138.5,80.9,137.3,79.6,135.8,79.6z"/>
	<path d="M152.3,88.7V87h0c-0.5,1.3-1.8,2-3.7,2c-2.6,0-4.2-1.5-4.2-4v-8.4h3.9V84c0,0.9,0.6,1.7,1.8,1.7c1.2,0,1.9-0.8,1.9-1.7
		v-7.3h3.9v12.1H152.3z"/>
	<path d="M165.9,80.7c-0.2-0.1-0.8-0.3-1.2-0.3c-1.3,0-2.4,0.7-2.4,2.6v5.6h-3.9V76.6h3.9v2.7h0c0.4-1.9,1.8-2.9,3.4-2.9
		c0.4,0,0.8,0.1,1.1,0.2L165.9,80.7z"/>
	<path d="M181.7,80.7c-0.2-0.1-0.8-0.3-1.2-0.3c-1.3,0-2.4,0.7-2.4,2.6v5.6h-3.9V76.6h3.9v2.7h0c0.4-1.9,1.8-2.9,3.4-2.9
		c0.4,0,0.8,0.1,1.1,0.2L181.7,80.7z"/>
	<path d="M194.8,81.9l-1.7,1.8h-5.9c0.2,1,1.5,2.1,3.6,2.1c1.3,0,2.5-0.4,3.3-0.9l-0.4,3.4c-0.9,0.5-2.3,0.8-3.8,0.8
		c-3.7,0-6.6-2.6-6.6-6.5c0-3.9,2.8-6.4,6.3-6.4c3.4,0,5.4,2.3,5.4,4.8C194.9,81.3,194.9,81.7,194.8,81.9z M189.5,79.1
		c-1.1,0-2.1,0.9-2.3,2h4.1c0-0.1,0-0.2,0-0.3C191.3,80,190.5,79.1,189.5,79.1z"/>
	<path d="M205,79.8h-3.1v4.5c0,1,0.6,1.5,1.6,1.5c0.5,0,0.7,0,1-0.2l-0.3,3c-0.4,0.2-1,0.3-1.8,0.3c-2.7,0-4.3-1.4-4.3-3.8v-5.2h-2
		v-3.2h2V74l3.9-1.4v4h3.9L205,79.8z"/>
	<path d="M215.1,88.7V87h0c-0.5,1.3-1.8,2-3.7,2c-2.6,0-4.2-1.5-4.2-4v-8.4h3.9V84c0,0.9,0.6,1.7,1.8,1.7c1.2,0,1.9-0.8,1.9-1.7
		v-7.3h3.9v12.1H215.1z"/>
	<path d="M228.7,80.7c-0.2-0.1-0.8-0.3-1.2-0.3c-1.3,0-2.4,0.7-2.4,2.6v5.6h-3.9V76.6h3.9v2.7h0c0.4-1.9,1.8-2.9,3.4-2.9
		c0.4,0,0.8,0.1,1.1,0.2L228.7,80.7z"/>
	<path d="M238.6,88.7v-7.4c0-0.9-0.6-1.7-1.8-1.7c-1.2,0-1.9,0.7-1.9,1.7v7.4h-3.9V76.6h3.6v1.6h0c0.5-1.3,1.7-2,3.7-2
		c2.6,0,4.2,1.5,4.2,4.1v8.4H238.6z"/>
	<path d="M248.9,88.9c-1.7,0-2.9-0.3-3.8-0.9l-0.3-3.5c1.1,0.7,2.5,1.3,3.8,1.3c0.7,0,1.2-0.4,1.2-0.8c0-0.5-0.4-0.7-1.1-0.9
		c-2.3-0.7-3.7-1.8-3.7-3.9c0-2.4,1.9-3.9,4.5-3.9c1.5,0,3,0.4,3.6,0.7l-0.7,2.9c-0.6-0.3-1.5-0.7-2.5-0.7c-0.6,0-1.1,0.3-1.1,0.8
		c0,0.5,0.3,0.7,1.1,0.9c2.7,0.7,3.8,2.1,3.8,4.1C253.6,87.1,252.1,88.9,248.9,88.9z"/>
	<path d="M257.4,89c-0.7,0-2.2-1.5-2.2-2.2c0-0.7,1.5-2.2,2.2-2.2c0.7,0,2.2,1.5,2.2,2.2C259.7,87.5,258.2,89,257.4,89z"/>
</g>
</svg>
