<?xml version="1.0" encoding="utf-8"?>
<!-- Generator: Adobe Illustrator 22.1.0, SVG Export Plug-In . SVG Version: 6.00 Build 0)  -->
<svg version="1.1" id="Layer_1" xmlns="http://www.w3.org/2000/svg" xmlns:xlink="http://www.w3.org/1999/xlink" x="0px" y="0px"
	 viewBox="0 0 300 600" style="enable-background:new 0 0 300 600;" xml:space="preserve">
<g>
	<path d="M17.1,57.9v-17h4.1v17H17.1z"/>
	<path d="M31.8,57.9v-7.4c0-0.9-0.6-1.7-1.8-1.7c-1.2,0-1.9,0.7-1.9,1.7v7.4h-3.9V45.9h3.6v1.6h0c0.5-1.3,1.7-2,3.7-2
		c2.6,0,4.2,1.5,4.2,4.1v8.4H31.8z"/>
	<path d="M55.2,51.2L53.5,53h-5.9c0.2,1,1.5,2.1,3.6,2.1c1.3,0,2.5-0.4,3.3-0.9l-0.4,3.4c-0.9,0.5-2.3,0.8-3.8,0.8
		c-3.7,0-6.6-2.6-6.6-6.5c0-3.9,2.8-6.4,6.3-6.4c3.4,0,5.4,2.3,5.4,4.8C55.3,50.6,55.3,51,55.2,51.2z M49.9,48.4
		c-1.1,0-2.1,0.9-2.3,2h4.1c0-0.1,0-0.2,0-0.3C51.7,49.3,50.9,48.4,49.9,48.4z"/>
	<path d="M63.6,57.9l-1.2-2.2c-0.2-0.3-0.4-0.8-0.6-1.2h-0.1c-0.2,0.4-0.4,0.9-0.6,1.2L60,57.9h-3.8l3.5-6.1l-3.3-6h4l1.1,2
		c0.2,0.3,0.3,0.6,0.5,1H62c0.2-0.4,0.3-0.7,0.5-1l1.1-2h3.8l-3.3,5.8l3.4,6.3H63.6z"/>
	<path d="M77.7,49.1h-3.1v4.5c0,1,0.6,1.5,1.6,1.5c0.5,0,0.7,0,1-0.2l-0.3,3c-0.4,0.2-1,0.3-1.8,0.3c-2.7,0-4.3-1.4-4.3-3.8v-5.2h-2
		v-3.2h2v-2.6l3.9-1.4v4h3.9L77.7,49.1z"/>
	<path d="M87.3,50c-0.2-0.1-0.8-0.3-1.2-0.3c-1.3,0-2.4,0.7-2.4,2.6v5.6h-3.9V45.9h3.9v2.7h0c0.4-1.9,1.8-2.9,3.4-2.9
		c0.4,0,0.8,0.1,1.1,0.2L87.3,50z"/>
	<path d="M98.1,58.5c-0.7-0.2-1.5-0.7-1.9-1.6c-0.5,1-1.7,1.5-3.1,1.5c-2.1,0-4-1.5-4-4c0-2.2,1.7-3.7,4.1-3.9l2.4-0.2v-0.4
		c0-0.7-0.6-1.2-1.9-1.2c-1.2,0-2.5,0.4-3.4,0.9l-0.7-3c1-0.6,2.6-1.1,4.2-1.1c3.2,0,5.5,1.5,5.5,4.4v3.9c0,1.4,0.5,2.2,1.5,2.5
		L98.1,58.5z M95.6,52.7l-1.5,0.1c-1,0.1-1.5,0.8-1.5,1.5c0,0.6,0.5,1.2,1.2,1.2c0.9,0,1.7-0.7,1.7-1.8V52.7z"/>
</g>
<g>
	<path d="M25.1,83.8c-0.7-0.2-1.5-0.7-1.9-1.6c-0.5,1-1.7,1.5-3.1,1.5c-2.1,0-4-1.5-4-4c0-2.2,1.7-3.7,4.1-3.9l2.4-0.2v-0.4
		c0-0.7-0.6-1.2-1.9-1.2c-1.2,0-2.5,0.4-3.4,0.9l-0.7-3c1-0.6,2.6-1.1,4.2-1.1c3.2,0,5.5,1.5,5.5,4.4v3.9c0,1.4,0.5,2.2,1.5,2.5
		L25.1,83.8z M22.6,78l-1.5,0.1c-1,0.1-1.5,0.8-1.5,1.5c0,0.6,0.5,1.2,1.2,1.2c0.9,0,1.7-0.7,1.7-1.8V78z"/>
	<path d="M38.4,83.3v-1.5h0c-0.7,1.2-2.1,1.8-3.7,1.8c-3,0-5.8-2.2-5.8-6.4c0-3.9,2.8-6.4,6.1-6.4c1.3,0,2.6,0.4,3.1,0.8v-7.4h3.8
		v19H38.4z M38,75.4c-0.4-0.5-1.2-1.1-2.4-1.1c-1.7,0-2.9,1.3-2.9,3.1c0,1.7,1.2,3.1,2.9,3.1c1.1,0,1.9-0.6,2.4-1.3V75.4z"/>
	<path d="M59.2,83.3v-7.4c0-0.9-0.4-1.7-1.7-1.7c-1.3,0-1.8,0.7-1.8,1.7v7.4h-3.9v-7.4c0-0.9-0.4-1.7-1.7-1.7
		c-1.3,0-1.8,0.7-1.8,1.7v7.4h-3.9V71.2h3.6v1.6h0c0.5-1.3,1.7-2,3.6-2c1.7,0,3,0.7,3.6,2c0.5-1.2,1.9-2,3.7-2
		c2.7,0,4.3,1.5,4.3,4.1v8.4H59.2z"/>
	<path d="M67.7,69.5c-0.7,0-2.1-1.4-2.1-2.1c0-0.7,1.4-2.1,2.1-2.1s2.1,1.4,2.1,2.1C69.8,68.1,68.3,69.5,67.7,69.5z M65.7,83.3V71.2
		h3.9v12.1H65.7z"/>
	<path d="M79.8,83.3v-7.4c0-0.9-0.6-1.7-1.8-1.7c-1.2,0-1.9,0.7-1.9,1.7v7.4h-3.9V71.2h3.6v1.6h0c0.5-1.3,1.7-2,3.7-2
		c2.6,0,4.2,1.5,4.2,4.1v8.4H79.8z"/>
	<path d="M88.3,69.5c-0.7,0-2.1-1.4-2.1-2.1c0-0.7,1.4-2.1,2.1-2.1s2.1,1.4,2.1,2.1C90.4,68.1,89,69.5,88.3,69.5z M86.3,83.3V71.2
		h3.9v12.1H86.3z"/>
	<path d="M96.7,83.5c-1.7,0-2.9-0.3-3.8-0.9l-0.3-3.5c1.1,0.7,2.5,1.3,3.8,1.3c0.7,0,1.2-0.4,1.2-0.8c0-0.5-0.4-0.7-1.1-0.9
		c-2.3-0.7-3.7-1.8-3.7-3.9c0-2.4,1.9-3.9,4.5-3.9c1.5,0,3,0.4,3.6,0.7l-0.7,2.9c-0.6-0.3-1.5-0.7-2.5-0.7c-0.6,0-1.1,0.3-1.1,0.8
		c0,0.5,0.3,0.7,1.1,0.9c2.7,0.7,3.8,2.1,3.8,4.1C101.5,81.7,100,83.5,96.7,83.5z"/>
	<path d="M111.5,74.4h-3.1v4.5c0,1,0.6,1.5,1.6,1.5c0.5,0,0.7,0,1-0.2l-0.3,3c-0.4,0.2-1,0.3-1.8,0.3c-2.7,0-4.3-1.4-4.3-3.8v-5.2
		h-2v-3.2h2v-2.6l3.9-1.4v4h3.9L111.5,74.4z"/>
	<path d="M121.2,75.4c-0.2-0.1-0.8-0.3-1.2-0.3c-1.3,0-2.4,0.7-2.4,2.6v5.6h-3.9V71.2h3.9v2.7h0C118,72,119.4,71,121,71
		c0.4,0,0.8,0.1,1.1,0.2L121.2,75.4z"/>
	<path d="M132.1,83.8c-0.7-0.2-1.5-0.7-1.9-1.6c-0.5,1-1.7,1.5-3.1,1.5c-2.1,0-4-1.5-4-4c0-2.2,1.7-3.7,4.1-3.9l2.4-0.2v-0.4
		c0-0.7-0.6-1.2-1.9-1.2c-1.2,0-2.5,0.4-3.4,0.9l-0.7-3c1-0.6,2.6-1.1,4.2-1.1c3.2,0,5.5,1.5,5.5,4.4v3.9c0,1.4,0.5,2.2,1.5,2.5
		L132.1,83.8z M129.6,78l-1.5,0.1c-1,0.1-1.5,0.8-1.5,1.5c0,0.6,0.5,1.2,1.2,1.2c0.9,0,1.7-0.7,1.7-1.8V78z"/>
	<path d="M144.3,74.4h-3.1v4.5c0,1,0.6,1.5,1.6,1.5c0.5,0,0.7,0,1-0.2l-0.3,3c-0.4,0.2-1,0.3-1.8,0.3c-2.7,0-4.3-1.4-4.3-3.8v-5.2
		h-2v-3.2h2v-2.6l3.9-1.4v4h3.9L144.3,74.4z"/>
	<path d="M148.5,69.5c-0.7,0-2.1-1.4-2.1-2.1c0-0.7,1.4-2.1,2.1-2.1s2.1,1.4,2.1,2.1C150.6,68.1,149.2,69.5,148.5,69.5z M146.6,83.3
		V71.2h3.9v12.1H146.6z"/>
	<path d="M159.7,83.4h-2.9l-4.6-12.2h3.8l1.7,4.6c0.2,0.6,0.5,1.5,0.7,2.3h0.1c0.2-0.8,0.5-1.7,0.7-2.3l1.7-4.6h3.6L159.7,83.4z"/>
	<path d="M177,76.6l-1.7,1.8h-5.9c0.2,1,1.5,2.1,3.6,2.1c1.3,0,2.5-0.4,3.3-0.9l-0.4,3.4c-0.9,0.5-2.3,0.8-3.8,0.8
		c-3.7,0-6.6-2.6-6.6-6.5c0-3.9,2.8-6.4,6.3-6.4c3.4,0,5.4,2.3,5.4,4.8C177.1,75.9,177.1,76.3,177,76.6z M171.7,73.7
		c-1.1,0-2.1,0.9-2.3,2h4.1c0-0.1,0-0.2,0-0.3C173.5,74.6,172.8,73.7,171.7,73.7z"/>
	<path d="M193.6,67.8c-0.5-0.2-1.1-0.3-1.6-0.3c-1.4,0-2.2,0.9-2.2,2.6v1.1h3.5l-0.8,3.2h-2.7v8.9H186v-8.9h-1.8v-3.2h1.8v-1.4
		c0-3.7,2.4-5.5,5.4-5.5c1.1,0,2.2,0.1,2.9,0.4L193.6,67.8z"/>
	<path d="M205.5,76.6l-1.7,1.8h-5.9c0.2,1,1.5,2.1,3.6,2.1c1.3,0,2.5-0.4,3.3-0.9l-0.4,3.4c-0.9,0.5-2.3,0.8-3.8,0.8
		c-3.7,0-6.6-2.6-6.6-6.5c0-3.9,2.8-6.4,6.3-6.4c3.4,0,5.4,2.3,5.4,4.8C205.6,75.9,205.5,76.3,205.5,76.6z M200.2,73.7
		c-1.1,0-2.1,0.9-2.3,2h4.1c0-0.1,0-0.2,0-0.3C201.9,74.6,201.2,73.7,200.2,73.7z"/>
	<path d="M218.5,76.6l-1.7,1.8h-5.9c0.2,1,1.5,2.1,3.6,2.1c1.3,0,2.5-0.4,3.3-0.9l-0.4,3.4c-0.9,0.5-2.3,0.8-3.8,0.8
		c-3.7,0-6.6-2.6-6.6-6.5c0-3.9,2.8-6.4,6.3-6.4c3.4,0,5.4,2.3,5.4,4.8C218.6,75.9,218.6,76.3,218.5,76.6z M213.2,73.7
		c-1.1,0-2.1,0.9-2.3,2h4.1c0-0.1,0-0.2,0-0.3C215,74.6,214.2,73.7,213.2,73.7z"/>
	<path d="M224.4,83.5c-1.7,0-2.9-0.3-3.8-0.9l-0.3-3.5c1.1,0.7,2.5,1.3,3.8,1.3c0.7,0,1.2-0.4,1.2-0.8c0-0.5-0.4-0.7-1.1-0.9
		c-2.3-0.7-3.7-1.8-3.7-3.9c0-2.4,1.9-3.9,4.5-3.9c1.5,0,3,0.4,3.6,0.7l-0.7,2.9c-0.6-0.3-1.5-0.7-2.5-0.7c-0.6,0-1.1,0.3-1.1,0.8
		c0,0.5,0.3,0.7,1.1,0.9c2.7,0.7,3.8,2.1,3.8,4.1C229.1,81.7,227.6,83.5,224.4,83.5z"/>
	<path d="M233,83.7c-0.7,0-2.2-1.5-2.2-2.2c0-0.7,1.5-2.2,2.2-2.2c0.7,0,2.2,1.5,2.2,2.2C235.2,82.2,233.7,83.7,233,83.7z"/>
</g>
</svg>
