<?xml version="1.0" encoding="utf-8"?>
<!-- Generator: Adobe Illustrator 22.1.0, SVG Export Plug-In . SVG Version: 6.00 Build 0)  -->
<svg version="1.1" id="Layer_1" xmlns="http://www.w3.org/2000/svg" xmlns:xlink="http://www.w3.org/1999/xlink" x="0px" y="0px"
	 viewBox="0 0 300 600" style="enable-background:new 0 0 300 600;" xml:space="preserve">
<style type="text/css">
	.st0{fill:#231F20;}
</style>
<g>
	<path class="st0" d="M42,52.2l-1.4-3.8h-5.4l-1.4,3.8h-3.9L36.6,35h2.9l6.7,17.2H42z M38.4,42c-0.2-0.5-0.4-1-0.5-1.6h-0.1
		c-0.1,0.6-0.3,1.1-0.5,1.6l-1.1,3.1h3.3L38.4,42z"/>
	<path class="st0" d="M55.1,44.3c-0.2-0.1-0.8-0.3-1.2-0.3c-1.3,0-2.4,0.7-2.4,2.6v5.6h-3.9V40.1h3.9v2.7h0c0.4-1.9,1.8-2.9,3.4-2.9
		c0.4,0,0.8,0.1,1.1,0.2L55.1,44.3z"/>
	<path class="st0" d="M68.2,45.5l-1.7,1.8h-5.9c0.2,1,1.5,2.1,3.6,2.1c1.3,0,2.5-0.4,3.3-0.9l-0.4,3.4c-0.9,0.5-2.3,0.8-3.8,0.8
		c-3.7,0-6.6-2.6-6.6-6.5c0-3.9,2.8-6.4,6.3-6.4c3.4,0,5.4,2.3,5.4,4.8C68.3,44.8,68.2,45.2,68.2,45.5z M62.9,42.6
		c-1.1,0-2.1,0.9-2.3,2h4.1c0-0.1,0-0.2,0-0.3C64.6,43.5,63.9,42.6,62.9,42.6z"/>
	<path class="st0" d="M91,52.2v-7.4c0-0.9-0.4-1.7-1.7-1.7c-1.3,0-1.8,0.7-1.8,1.7v7.4h-3.9v-7.4c0-0.9-0.4-1.7-1.7-1.7
		c-1.3,0-1.8,0.7-1.8,1.7v7.4h-3.9V40.1h3.6v1.6h0c0.5-1.3,1.7-2,3.6-2c1.7,0,3,0.7,3.6,2c0.5-1.2,1.9-2,3.7-2
		c2.7,0,4.3,1.5,4.3,4.1v8.4H91z"/>
	<path class="st0" d="M105.4,52.2v-1.7h0c-0.5,1.3-1.8,2-3.7,2c-2.6,0-4.2-1.5-4.2-4v-8.4h3.9v7.4c0,0.9,0.6,1.7,1.8,1.7
		c1.2,0,1.9-0.8,1.9-1.7v-7.3h3.9v12.1H105.4z"/>
	<path class="st0" d="M115.7,52.7c-2.5-0.1-4.1-1.4-4.1-4.3V33.2h3.9v14.7c0,1,0.6,1.5,1.6,1.6L115.7,52.7z"/>
	<path class="st0" d="M126.5,43.3h-3.1v4.5c0,1,0.6,1.5,1.6,1.5c0.5,0,0.7,0,1-0.2l-0.3,3c-0.4,0.2-1,0.3-1.8,0.3
		c-2.7,0-4.3-1.4-4.3-3.8v-5.2h-2v-3.2h2v-2.6l3.9-1.4v4h3.9L126.5,43.3z"/>
	<path class="st0" d="M130.6,38.5c-0.7,0-2.1-1.4-2.1-2.1c0-0.7,1.4-2.1,2.1-2.1s2.1,1.4,2.1,2.1C132.7,37,131.3,38.5,130.6,38.5z
		 M128.7,52.2V40.1h3.9v12.1H128.7z"/>
	<path class="st0" d="M142.1,52.5c-1.3,0-2.6-0.4-3.1-0.8v6.6h-3.8V40.1h3.4v1.5h0c0.7-1.2,2.1-1.8,3.7-1.8c3,0,5.8,2.2,5.8,6.4
		C148.2,50,145.4,52.5,142.1,52.5z M141.4,43.2c-1.1,0-1.9,0.6-2.4,1.3v3.8c0.4,0.5,1.2,1.1,2.4,1.1c1.7,0,2.9-1.3,2.9-3
		C144.3,44.5,143.1,43.2,141.4,43.2z"/>
	<path class="st0" d="M154.3,52.7c-2.5-0.1-4.1-1.4-4.1-4.3V33.2h3.9v14.7c0,1,0.6,1.5,1.6,1.6L154.3,52.7z"/>
	<path class="st0" d="M168.2,45.5l-1.7,1.8h-5.9c0.2,1,1.5,2.1,3.6,2.1c1.3,0,2.5-0.4,3.3-0.9l-0.4,3.4c-0.9,0.5-2.3,0.8-3.8,0.8
		c-3.7,0-6.6-2.6-6.6-6.5c0-3.9,2.8-6.4,6.3-6.4c3.4,0,5.4,2.3,5.4,4.8C168.3,44.8,168.2,45.2,168.2,45.5z M162.9,42.6
		c-1.1,0-2.1,0.9-2.3,2h4.1c0-0.1,0-0.2,0-0.3C164.6,43.5,163.9,42.6,162.9,42.6z"/>
</g>
<g>
	<path class="st0" d="M38.3,69.6c-0.2-0.1-0.8-0.3-1.2-0.3c-1.3,0-2.4,0.7-2.4,2.6v5.6h-3.9V65.4h3.9v2.7h0c0.4-1.9,1.8-2.9,3.4-2.9
		c0.4,0,0.8,0.1,1.1,0.2L38.3,69.6z"/>
	<path class="st0" d="M51.4,70.8l-1.7,1.8h-5.9c0.2,1,1.5,2.1,3.6,2.1c1.3,0,2.5-0.4,3.3-0.9l-0.4,3.4c-0.9,0.5-2.3,0.8-3.8,0.8
		c-3.7,0-6.6-2.6-6.6-6.5c0-3.9,2.8-6.4,6.3-6.4c3.4,0,5.4,2.3,5.4,4.8C51.5,70.2,51.5,70.6,51.4,70.8z M46.1,68
		c-1.1,0-2.1,0.9-2.3,2h4.1c0-0.1,0-0.2,0-0.3C47.9,68.9,47.1,68,46.1,68z"/>
	<path class="st0" d="M61.7,68.6h-3.1v4.5c0,1,0.6,1.5,1.6,1.5c0.5,0,0.7,0,1-0.2l-0.3,3c-0.4,0.2-1,0.3-1.8,0.3
		c-2.7,0-4.3-1.4-4.3-3.8v-5.2h-2v-3.2h2v-2.6l3.9-1.4v4h3.9L61.7,68.6z"/>
	<path class="st0" d="M65.8,63.8c-0.7,0-2.1-1.4-2.1-2.1c0-0.7,1.4-2.1,2.1-2.1s2.1,1.4,2.1,2.1C67.9,62.4,66.5,63.8,65.8,63.8z
		 M63.8,77.5V65.4h3.9v12.1H63.8z"/>
	<path class="st0" d="M77.8,69.6c-0.2-0.1-0.8-0.3-1.2-0.3c-1.3,0-2.4,0.7-2.4,2.6v5.6h-3.9V65.4h3.9v2.7h0c0.4-1.9,1.8-2.9,3.4-2.9
		c0.4,0,0.8,0.1,1.1,0.2L77.8,69.6z"/>
	<path class="st0" d="M91,70.8l-1.7,1.8h-5.9c0.2,1,1.5,2.1,3.6,2.1c1.3,0,2.5-0.4,3.3-0.9l-0.4,3.4c-0.9,0.5-2.3,0.8-3.8,0.8
		c-3.7,0-6.6-2.6-6.6-6.5c0-3.9,2.8-6.4,6.3-6.4c3.4,0,5.4,2.3,5.4,4.8C91.1,70.2,91,70.6,91,70.8z M85.7,68c-1.1,0-2.1,0.9-2.3,2
		h4.1c0-0.1,0-0.2,0-0.3C87.4,68.9,86.7,68,85.7,68z"/>
	<path class="st0" d="M107.9,77.5v-7.4c0-0.9-0.4-1.7-1.7-1.7c-1.3,0-1.8,0.7-1.8,1.7v7.4h-3.9v-7.4c0-0.9-0.4-1.7-1.7-1.7
		c-1.3,0-1.8,0.7-1.8,1.7v7.4H93V65.4h3.6v1.6h0c0.5-1.3,1.7-2,3.6-2c1.7,0,3,0.7,3.6,2c0.5-1.2,1.9-2,3.7-2c2.7,0,4.3,1.5,4.3,4.1
		v8.4H107.9z"/>
	<path class="st0" d="M125.4,70.8l-1.7,1.8h-5.9c0.2,1,1.5,2.1,3.6,2.1c1.3,0,2.5-0.4,3.3-0.9l-0.4,3.4c-0.9,0.5-2.3,0.8-3.8,0.8
		c-3.7,0-6.6-2.6-6.6-6.5c0-3.9,2.8-6.4,6.3-6.4c3.4,0,5.4,2.3,5.4,4.8C125.5,70.2,125.4,70.6,125.4,70.8z M120.1,68
		c-1.1,0-2.1,0.9-2.3,2h4.1c0-0.1,0-0.2,0-0.3C121.8,68.9,121.1,68,120.1,68z"/>
	<path class="st0" d="M135.1,77.5v-7.4c0-0.9-0.6-1.7-1.8-1.7c-1.2,0-1.9,0.7-1.9,1.7v7.4h-3.9V65.4h3.6v1.6h0c0.5-1.3,1.7-2,3.7-2
		c2.6,0,4.2,1.5,4.2,4.1v8.4H135.1z"/>
	<path class="st0" d="M149.4,68.6h-3.1v4.5c0,1,0.6,1.5,1.6,1.5c0.5,0,0.7,0,1-0.2l-0.3,3c-0.4,0.2-1,0.3-1.8,0.3
		c-2.7,0-4.3-1.4-4.3-3.8v-5.2h-2v-3.2h2v-2.6l3.9-1.4v4h3.9L149.4,68.6z"/>
	<path class="st0" d="M166.1,78.1c-0.7-0.2-1.5-0.7-1.9-1.6c-0.5,1-1.7,1.5-3.1,1.5c-2.1,0-4-1.5-4-4c0-2.2,1.7-3.7,4.1-3.9l2.4-0.2
		v-0.4c0-0.7-0.6-1.2-1.9-1.2c-1.2,0-2.5,0.4-3.4,0.9l-0.7-3c1-0.6,2.6-1.1,4.2-1.1c3.2,0,5.5,1.5,5.5,4.4v3.9
		c0,1.4,0.5,2.2,1.5,2.5L166.1,78.1z M163.5,72.2l-1.5,0.1c-1,0.1-1.5,0.8-1.5,1.5c0,0.6,0.5,1.2,1.2,1.2c0.9,0,1.7-0.7,1.7-1.8
		V72.2z"/>
	<path class="st0" d="M179.1,69.3c-0.8-0.5-1.6-0.8-2.6-0.8c-1.7,0-3.1,1.2-3.1,3c0,1.7,1.4,3,3.1,3c1,0,1.8-0.2,2.6-0.7l-0.3,3.3
		c-0.8,0.4-1.8,0.6-3,0.6c-3.4,0-6.5-2.4-6.5-6.3c0-3.9,3.2-6.3,6.5-6.3c1.6,0,2.9,0.3,4,0.9L179.1,69.3z"/>
	<path class="st0" d="M190.7,69.3c-0.8-0.5-1.6-0.8-2.6-0.8c-1.7,0-3.1,1.2-3.1,3c0,1.7,1.4,3,3.1,3c1,0,1.8-0.2,2.6-0.7l-0.3,3.3
		c-0.8,0.4-1.8,0.6-3,0.6c-3.4,0-6.5-2.4-6.5-6.3c0-3.9,3.2-6.3,6.5-6.3c1.6,0,2.9,0.3,4,0.9L190.7,69.3z"/>
	<path class="st0" d="M199.2,77.9c-3.7,0-6.6-2.6-6.6-6.4s2.9-6.4,6.6-6.4c3.6,0,6.6,2.6,6.6,6.4S202.9,77.9,199.2,77.9z
		 M199.2,68.5c-1.5,0-2.7,1.3-2.7,3.1c0,1.8,1.3,3.1,2.7,3.1c1.4,0,2.7-1.3,2.7-3.1C201.9,69.7,200.7,68.5,199.2,68.5z"/>
	<path class="st0" d="M215.7,77.5v-1.7h0c-0.5,1.3-1.8,2-3.7,2c-2.6,0-4.2-1.5-4.2-4v-8.4h3.9v7.4c0,0.9,0.6,1.7,1.8,1.7
		c1.2,0,1.9-0.8,1.9-1.7v-7.3h3.9v12.1H215.7z"/>
	<path class="st0" d="M229.4,77.5v-7.4c0-0.9-0.6-1.7-1.8-1.7c-1.2,0-1.9,0.7-1.9,1.7v7.4h-3.9V65.4h3.6v1.6h0c0.5-1.3,1.7-2,3.7-2
		c2.6,0,4.2,1.5,4.2,4.1v8.4H229.4z"/>
	<path class="st0" d="M243.8,68.6h-3.1v4.5c0,1,0.6,1.5,1.6,1.5c0.5,0,0.7,0,1-0.2l-0.3,3c-0.4,0.2-1,0.3-1.8,0.3
		c-2.7,0-4.3-1.4-4.3-3.8v-5.2h-2v-3.2h2v-2.6l3.9-1.4v4h3.9L243.8,68.6z"/>
	<path class="st0" d="M249.7,77.8c-1.7,0-2.9-0.3-3.8-0.9l-0.3-3.5c1.1,0.7,2.5,1.3,3.8,1.3c0.7,0,1.2-0.4,1.2-0.8
		c0-0.5-0.4-0.7-1.1-0.9c-2.3-0.7-3.7-1.8-3.7-3.9c0-2.4,1.9-3.9,4.5-3.9c1.5,0,3,0.4,3.6,0.7l-0.7,2.9c-0.6-0.3-1.5-0.7-2.5-0.7
		c-0.6,0-1.1,0.3-1.1,0.8c0,0.5,0.3,0.7,1.1,0.9c2.7,0.7,3.8,2.1,3.8,4.1C254.4,75.9,252.9,77.8,249.7,77.8z"/>
</g>
<g>
	<path class="st0" d="M40.1,94.7c-0.8-0.5-1.6-0.8-2.6-0.8c-1.7,0-3.1,1.2-3.1,3c0,1.7,1.4,3,3.1,3c1,0,1.8-0.2,2.6-0.7l-0.3,3.3
		c-0.8,0.4-1.8,0.6-3,0.6c-3.4,0-6.5-2.4-6.5-6.3c0-3.9,3.2-6.3,6.5-6.3c1.6,0,2.9,0.3,4,0.9L40.1,94.7z"/>
	<path class="st0" d="M48.5,103.2c-3.7,0-6.6-2.6-6.6-6.4s2.9-6.4,6.6-6.4c3.6,0,6.6,2.6,6.6,6.4S52.2,103.2,48.5,103.2z M48.5,93.8
		c-1.5,0-2.7,1.3-2.7,3.1c0,1.8,1.3,3.1,2.7,3.1c1.4,0,2.7-1.3,2.7-3.1C51.3,95.1,50,93.8,48.5,93.8z"/>
	<path class="st0" d="M60.9,103.1c-1.7,0-2.9-0.3-3.8-0.9l-0.3-3.5c1.1,0.7,2.5,1.3,3.8,1.3c0.7,0,1.2-0.4,1.2-0.8
		c0-0.5-0.4-0.7-1.1-0.9c-2.3-0.7-3.7-1.8-3.7-3.9c0-2.4,1.9-3.9,4.5-3.9c1.5,0,3,0.4,3.6,0.7l-0.7,2.9c-0.6-0.3-1.5-0.7-2.5-0.7
		c-0.6,0-1.1,0.3-1.1,0.8c0,0.5,0.3,0.7,1.1,0.9c2.7,0.7,3.8,2.1,3.8,4.1C65.6,101.3,64.1,103.1,60.9,103.1z"/>
	<path class="st0" d="M75.5,94h-3.1v4.5c0,1,0.6,1.5,1.6,1.5c0.5,0,0.7,0,1-0.2l-0.3,3c-0.4,0.2-1,0.3-1.8,0.3
		c-2.7,0-4.3-1.4-4.3-3.8V94h-2v-3.2h2v-2.6l3.9-1.4v4h3.9L75.5,94z"/>
	<path class="st0" d="M79.6,89.1c-0.7,0-2.1-1.4-2.1-2.1c0-0.7,1.4-2.1,2.1-2.1s2.1,1.4,2.1,2.1C81.7,87.7,80.3,89.1,79.6,89.1z
		 M77.7,102.9V90.8h3.9v12.1H77.7z"/>
	<path class="st0" d="M91.8,102.9v-7.4c0-0.9-0.6-1.7-1.8-1.7c-1.2,0-1.9,0.7-1.9,1.7v7.4h-3.9V90.8h3.6v1.6h0c0.5-1.3,1.7-2,3.7-2
		c2.6,0,4.2,1.5,4.2,4.1v8.4H91.8z"/>
	<path class="st0" d="M103.3,109c-3.5,0-5.9-2-5.9-4.5c0-1.8,1.2-2.9,2.5-3.3l-1.5-1.5c0.1-0.8,0.8-1.4,1.5-1.7
		c-0.9-0.6-1.8-1.7-1.8-3.2c0-2.6,1.8-4.3,5-4.3c0.7,0,1.3,0.1,1.8,0.2c0.5,0.1,1.1,0.2,1.7,0.2c0.7,0,1.4-0.2,1.9-0.4l0.7,3
		c-0.4,0.2-1,0.4-1.5,0.4c0.1,0.2,0.3,0.8,0.3,1.2c0,2-1.6,3.7-3.9,3.9c-0.5,0-0.8,0.1-0.8,0.5c0,0.1,0.1,0.3,0.3,0.4l1.9,0.7
		c2.4,0.9,3.7,2.1,3.7,4.3C109.1,107.1,106.8,109,103.3,109z M104.1,103.3l-1.4-0.4c-0.9,0-1.6,0.7-1.6,1.6c0,0.8,0.7,1.5,2.1,1.5
		c1.4,0,2.1-0.6,2.1-1.3C105.3,104.1,104.9,103.5,104.1,103.3z M103.1,93.2c-0.9,0-1.5,0.7-1.5,1.4c0,0.8,0.7,1.4,1.5,1.4
		c0.9,0,1.5-0.6,1.5-1.4C104.6,93.9,104,93.2,103.1,93.2z"/>
	<path class="st0" d="M131.7,102.9v-7.4c0-0.9-0.4-1.7-1.7-1.7c-1.3,0-1.8,0.7-1.8,1.7v7.4h-3.9v-7.4c0-0.9-0.4-1.7-1.7-1.7
		c-1.3,0-1.8,0.7-1.8,1.7v7.4h-3.9V90.8h3.6v1.6h0c0.5-1.3,1.7-2,3.6-2c1.7,0,3,0.7,3.6,2c0.5-1.2,1.9-2,3.7-2
		c2.7,0,4.3,1.5,4.3,4.1v8.4H131.7z"/>
	<path class="st0" d="M144.1,103.2c-3.7,0-6.6-2.6-6.6-6.4s2.9-6.4,6.6-6.4c3.6,0,6.6,2.6,6.6,6.4S147.7,103.2,144.1,103.2z
		 M144.1,93.8c-1.5,0-2.7,1.3-2.7,3.1c0,1.8,1.3,3.1,2.7,3.1c1.4,0,2.7-1.3,2.7-3.1C146.8,95.1,145.5,93.8,144.1,93.8z"/>
	<path class="st0" d="M160.2,94.9c-0.2-0.1-0.8-0.3-1.2-0.3c-1.3,0-2.4,0.7-2.4,2.6v5.6h-3.9V90.8h3.9v2.7h0
		c0.4-1.9,1.8-2.9,3.4-2.9c0.4,0,0.8,0.1,1.1,0.2L160.2,94.9z"/>
	<path class="st0" d="M173.3,96.1l-1.7,1.8h-5.9c0.2,1,1.5,2.1,3.6,2.1c1.3,0,2.5-0.4,3.3-0.9l-0.4,3.4c-0.9,0.5-2.3,0.8-3.8,0.8
		c-3.7,0-6.6-2.6-6.6-6.5c0-3.9,2.8-6.4,6.3-6.4c3.4,0,5.4,2.3,5.4,4.8C173.4,95.5,173.3,95.9,173.3,96.1z M168,93.3
		c-1.1,0-2.1,0.9-2.3,2h4.1c0-0.1,0-0.2,0-0.3C169.7,94.2,169,93.3,168,93.3z"/>
	<path class="st0" d="M189.4,94h-3.1v4.5c0,1,0.6,1.5,1.6,1.5c0.5,0,0.7,0,1-0.2l-0.3,3c-0.4,0.2-1,0.3-1.8,0.3
		c-2.7,0-4.3-1.4-4.3-3.8V94h-2v-3.2h2v-2.6l3.9-1.4v4h3.9L189.4,94z"/>
	<path class="st0" d="M199.1,102.9v-7.4c0-0.9-0.6-1.7-1.8-1.7c-1.2,0-1.9,0.7-1.9,1.7v7.4h-3.9v-19h3.9v8h0
		c0.6-0.9,1.7-1.5,3.4-1.5c2.7,0,4.2,1.5,4.2,4.1v8.4H199.1z"/>
	<path class="st0" d="M214.1,103.4c-0.7-0.2-1.5-0.7-1.9-1.6c-0.5,1-1.7,1.5-3.1,1.5c-2.1,0-4-1.5-4-4c0-2.2,1.7-3.7,4.1-3.9
		l2.4-0.2v-0.4c0-0.7-0.6-1.2-1.9-1.2c-1.2,0-2.5,0.4-3.4,0.9l-0.7-3c1-0.6,2.6-1.1,4.2-1.1c3.2,0,5.5,1.5,5.5,4.4v3.9
		c0,1.4,0.5,2.2,1.5,2.5L214.1,103.4z M211.5,97.6l-1.5,0.1c-1,0.1-1.5,0.8-1.5,1.5c0,0.6,0.5,1.2,1.2,1.2c0.9,0,1.7-0.7,1.7-1.8
		V97.6z"/>
	<path class="st0" d="M225.8,102.9v-7.4c0-0.9-0.6-1.7-1.8-1.7c-1.2,0-1.9,0.7-1.9,1.7v7.4h-3.9V90.8h3.6v1.6h0c0.5-1.3,1.7-2,3.7-2
		c2.6,0,4.2,1.5,4.2,4.1v8.4H225.8z"/>
</g>
<g>
	<path class="st0" d="M38.2,127c-1.8,4.9-3.8,6.6-6,7.5l-2.4-2.4c1.9-0.7,3.4-2.2,4.4-4.7l-4.3-11.3h3.8l1.8,4.7
		c0.3,0.7,0.5,1.5,0.7,2.4h0.1c0.2-0.8,0.5-1.7,0.8-2.4l1.8-4.7h3.6L38.2,127z"/>
	<path class="st0" d="M49.3,128.6c-3.7,0-6.6-2.6-6.6-6.4s2.9-6.4,6.6-6.4c3.6,0,6.6,2.6,6.6,6.4S52.9,128.6,49.3,128.6z
		 M49.3,119.1c-1.5,0-2.7,1.3-2.7,3.1c0,1.8,1.3,3.1,2.7,3.1c1.4,0,2.7-1.3,2.7-3.1C52,120.4,50.7,119.1,49.3,119.1z"/>
	<path class="st0" d="M65.8,128.2v-1.7h0c-0.5,1.3-1.8,2-3.7,2c-2.6,0-4.2-1.5-4.2-4v-8.4h3.9v7.4c0,0.9,0.6,1.7,1.8,1.7
		c1.2,0,1.9-0.8,1.9-1.7v-7.3h3.9v12.1H65.8z"/>
	<path class="st0" d="M85.8,119.3h-3.1v4.5c0,1,0.6,1.5,1.6,1.5c0.5,0,0.7,0,1-0.2l-0.3,3c-0.4,0.2-1,0.3-1.8,0.3
		c-2.7,0-4.3-1.4-4.3-3.8v-5.2h-2v-3.2h2v-2.6l3.9-1.4v4h3.9L85.8,119.3z"/>
	<path class="st0" d="M95.6,128.2v-7.4c0-0.9-0.6-1.7-1.8-1.7c-1.2,0-1.9,0.7-1.9,1.7v7.4H88v-19h3.9v8h0c0.6-0.9,1.7-1.5,3.4-1.5
		c2.7,0,4.2,1.5,4.2,4.1v8.4H95.6z"/>
	<path class="st0" d="M104.1,114.5c-0.7,0-2.1-1.4-2.1-2.1c0-0.7,1.4-2.1,2.1-2.1s2.1,1.4,2.1,2.1
		C106.2,113,104.8,114.5,104.1,114.5z M102.1,128.2v-12.1h3.9v12.1H102.1z"/>
	<path class="st0" d="M116.2,128.2v-7.4c0-0.9-0.6-1.7-1.8-1.7c-1.2,0-1.9,0.7-1.9,1.7v7.4h-3.9v-12.1h3.6v1.6h0
		c0.5-1.3,1.7-2,3.7-2c2.6,0,4.2,1.5,4.2,4.1v8.4H116.2z"/>
	<path class="st0" d="M130.2,128.2l-3.6-4.9h0v4.9h-3.9v-19h3.9V121h0l3.6-4.9h4.3l-4.2,5.9l4.5,6.2H130.2z"/>
	<path class="st0" d="M141.8,119.8c-0.7,0.7-0.9,1.4-0.9,2.1c0,0.4,0,0.8,0.1,1.2l-3.4-0.7c-0.1-0.5-0.2-0.9-0.2-1.4
		c0-1.4,0.6-2.6,1.5-3.7c0.7-0.7,1-1.2,1-2c0-0.6-0.5-1.2-1.5-1.2c-1,0-1.8,0.3-2.7,0.9l-0.8-3.3c1-0.6,2.3-1,3.8-1
		c3.1,0,5.2,1.8,5.2,4.5C144.1,116.9,143.4,118.1,141.8,119.8z M139.4,128.6c-0.7,0-2.2-1.5-2.2-2.2c0-0.7,1.5-2.2,2.2-2.2
		c0.7,0,2.2,1.5,2.2,2.2C141.6,127.1,140.2,128.6,139.4,128.6z"/>
</g>
</svg>
