<?xml version="1.0" encoding="utf-8"?>
<!-- Generator: Adobe Illustrator 22.1.0, SVG Export Plug-In . SVG Version: 6.00 Build 0)  -->
<svg version="1.1" id="Layer_1" xmlns="http://www.w3.org/2000/svg" xmlns:xlink="http://www.w3.org/1999/xlink" x="0px" y="0px"
	 viewBox="0 0 300 600" style="enable-background:new 0 0 300 600;" xml:space="preserve">
<style type="text/css">
	.st0{fill:#F9E13A;}
	.st1{fill:#010101;}
</style>
<path class="st0" d="M46.3,460.5c0,0-14.7,0-14.7,14.7v4.9c0,0,0,14.7,14.7,14.7h157c0,0,14.7,0,14.7-14.7v-4.9
	c0,0,0-14.7-14.7-14.7H46.3z"/>
<g>
	<path class="st1" d="M69.3,483.1h-2.1V474H71c0.8,0,1.6,0,2.3,0.5c0.7,0.5,1.2,1.4,1.2,2.3c0,1-0.6,2-1.6,2.4l1.7,4h-2.4l-1.4-3.6
		h-1.6V483.1z M69.3,478h1.2c0.4,0,0.9,0,1.3-0.2c0.3-0.2,0.5-0.6,0.5-1c0-0.4-0.2-0.7-0.5-0.9c-0.4-0.2-1-0.2-1.4-0.2h-1.1V478z"/>
	<path class="st1" d="M78,475.8v1.8h3.5v1.7H78v2h4.4v1.8h-6.5V474h6.5v1.8H78z"/>
	<path class="st1" d="M91.1,483.1h-2.3l-0.6-1.9h-3l-0.6,1.9h-1.9l2.9-9.1h2.5L91.1,483.1z M87.7,479.6l-1-3.2l-1,3.2H87.7z"/>
	<path class="st1" d="M94.7,474c1.3,0,2.4,0.1,3.4,1c1,0.9,1.4,2.2,1.4,3.5c0,1.2-0.4,2.4-1.2,3.3c-0.9,1-2,1.3-3.3,1.3h-3V474H94.7
		z M94.2,481.4h0.7c0.9,0,1.5-0.2,2-1c0.4-0.6,0.5-1.3,0.5-2c0-0.7-0.2-1.5-0.7-2.1c-0.5-0.6-1-0.7-1.8-0.7h-0.7V481.4z"/>
	<path class="st1" d="M110.5,475.8h-2.3v7.3h-2.1v-7.3h-2.3V474h6.7V475.8z"/>
	<path class="st1" d="M118.6,483.1h-2.1v-3.8h-2.8v3.8h-2.1V474h2.1v3.6h2.8V474h2.1V483.1z"/>
	<path class="st1" d="M122.5,475.8v1.8h3.5v1.7h-3.5v2h4.4v1.8h-6.5V474h6.5v1.8H122.5z"/>
	<path class="st1" d="M139.1,483.1h-2.3l-0.6-1.9h-3l-0.6,1.9h-1.9l2.9-9.1h2.5L139.1,483.1z M135.8,479.6l-1-3.2l-1,3.2H135.8z"/>
	<path class="st1" d="M142.3,483.1h-2.1V474h3.8c0.8,0,1.6,0,2.3,0.5c0.7,0.5,1.2,1.4,1.2,2.3c0,1-0.6,2-1.6,2.4l1.7,4h-2.4
		l-1.4-3.6h-1.6V483.1z M142.3,478h1.2c0.4,0,0.9,0,1.3-0.2c0.3-0.2,0.5-0.6,0.5-1c0-0.4-0.2-0.7-0.5-0.9c-0.4-0.2-1-0.2-1.4-0.2
		h-1.1V478z"/>
	<path class="st1" d="M155,475.8h-2.3v7.3h-2.1v-7.3h-2.3V474h6.7V475.8z"/>
	<path class="st1" d="M158.3,483.1h-2.1V474h2.1V483.1z"/>
	<path class="st1" d="M165.2,477.5c0-1-0.4-2-1.5-2c-1.5,0-1.6,2-1.6,3.1c0,1.3,0.1,2.9,1.8,2.9c1,0,1.5-0.8,1.6-1.7l2.1,0.1
		c-0.2,2.1-1.7,3.3-3.8,3.3c-2.7,0-4-2.2-4-4.7c0-2.5,1.4-4.7,4.1-4.7c2.3,0,3.5,1.3,3.7,3.5L165.2,477.5z"/>
	<path class="st1" d="M174.6,481.3v1.8h-5.8V474h2.1v7.3H174.6z"/>
	<path class="st1" d="M177.6,475.8v1.8h3.5v1.7h-3.5v2h4.4v1.8h-6.5V474h6.5v1.8H177.6z"/>
</g>
</svg>
