<?xml version="1.0" encoding="utf-8"?>
<!-- Generator: Adobe Illustrator 22.1.0, SVG Export Plug-In . SVG Version: 6.00 Build 0)  -->
<svg version="1.1" id="Layer_1" xmlns="http://www.w3.org/2000/svg" xmlns:xlink="http://www.w3.org/1999/xlink" x="0px" y="0px"
	 viewBox="0 0 174 174" style="enable-background:new 0 0 174 174;" xml:space="preserve">
<style type="text/css">
	.st0{clip-path:url(#SVGID_2_);}
	.st1{opacity:0.25;}
	.st2{clip-path:url(#SVGID_4_);}
	.st3{clip-path:url(#SVGID_6_);fill:#0A0F0F;}
	.st4{clip-path:url(#SVGID_8_);fill:#FFFFFF;}
	.st5{clip-path:url(#SVGID_10_);fill:url(#SVGID_11_);}
	.st6{clip-path:url(#SVGID_13_);fill:url(#SVGID_14_);}
	.st7{clip-path:url(#SVGID_16_);fill:url(#SVGID_17_);}
	.st8{clip-path:url(#SVGID_19_);fill:url(#SVGID_20_);}
	.st9{clip-path:url(#SVGID_22_);fill:url(#SVGID_23_);}
	.st10{clip-path:url(#SVGID_25_);fill:#963A21;}
	.st11{clip-path:url(#SVGID_27_);fill:url(#SVGID_28_);}
	.st12{clip-path:url(#SVGID_30_);fill:url(#SVGID_31_);}
	.st13{clip-path:url(#SVGID_33_);fill:#F5A8C2;}
	.st14{clip-path:url(#SVGID_35_);fill:#F5A8C2;}
	.st15{clip-path:url(#SVGID_37_);}
	.st16{opacity:0.5;}
	.st17{clip-path:url(#SVGID_39_);}
	.st18{clip-path:url(#SVGID_41_);fill:#FFFFFF;}
	.st19{clip-path:url(#SVGID_43_);fill:#393030;}
	.st20{clip-path:url(#SVGID_45_);fill:#F5A8C2;}
	.st21{clip-path:url(#SVGID_47_);fill:#D07589;}
	.st22{clip-path:url(#SVGID_49_);fill:#231F20;}
	.st23{clip-path:url(#SVGID_51_);fill:#FFCB10;}
	.st24{clip-path:url(#SVGID_53_);fill:#EEB435;}
	.st25{clip-path:url(#SVGID_55_);fill:#FFEBA6;}
	.st26{clip-path:url(#SVGID_57_);fill:#FFCB10;}
	.st27{clip-path:url(#SVGID_59_);fill:#EEB435;}
	.st28{clip-path:url(#SVGID_61_);fill:#FFEBA6;}
	.st29{clip-path:url(#SVGID_63_);fill:#FFCB10;}
	.st30{clip-path:url(#SVGID_65_);}
</style>
<g>
	<g>
		<defs>
			<rect id="SVGID_1_" width="174" height="174"/>
		</defs>
		<clipPath id="SVGID_2_">
			<use xlink:href="#SVGID_1_"  style="overflow:visible;"/>
		</clipPath>
		<g class="st0">
			<g>
				<g class="st1">
					<defs>
						<rect id="SVGID_3_" y="39.9" class="st1" width="134.2" height="134.2"/>
					</defs>
					<clipPath id="SVGID_4_">
						<use xlink:href="#SVGID_3_"  style="overflow:visible;"/>
					</clipPath>
					<g class="st2">
						<g>
							<defs>
								<rect id="SVGID_5_" y="39.9" width="134.2" height="134.2"/>
							</defs>
							<clipPath id="SVGID_6_">
								<use xlink:href="#SVGID_5_"  style="overflow:visible;"/>
							</clipPath>
							<path class="st3" d="M134.2,159.6c-6.8,6.6-16.1,10.7-26.3,10.7H3.8V66.1c0-10.3,4.1-19.5,10.7-26.3l-3.7,3.7
								C4.1,50.3,0.1,59.6,0.1,69.8V174h104.2c10.4,0,19.7-4.1,26.5-10.9L134.2,159.6z"/>
						</g>
					</g>
				</g>
				<g>
					<defs>
						<rect id="SVGID_7_" width="174" height="174"/>
					</defs>
					<clipPath id="SVGID_8_">
						<use xlink:href="#SVGID_7_"  style="overflow:visible;"/>
					</clipPath>
					<path class="st4" d="M73.1,0C60.5,0,48.5,5,39.4,14.1c-9,9-14.1,21-14.1,33.6v101.2h101c26.4,0,47.8-21.4,47.8-47.7V0H73.1z"/>
				</g>
			</g>
			<g>
				<g>
					<defs>
						<path id="SVGID_9_" d="M126.3,148.7h-101l0,0L3.8,170.3H108c10.3,0,19.5-4.1,26.3-10.7l15.8-15.8l-0.8-0.8
							C142.4,146.7,134.6,148.7,126.3,148.7"/>
					</defs>
					<clipPath id="SVGID_10_">
						<use xlink:href="#SVGID_9_"  style="overflow:visible;"/>
					</clipPath>
					
						<linearGradient id="SVGID_11_" gradientUnits="userSpaceOnUse" x1="-18.2387" y1="-180.8165" x2="-16.8578" y2="-180.8165" gradientTransform="matrix(0 -19.9142 19.9142 0 3677.7686 -192.6983)">
						<stop  offset="0" style="stop-color:#10B0E6"/>
						<stop  offset="0.1593" style="stop-color:#0FAAE1"/>
						<stop  offset="0.3678" style="stop-color:#0C9AD2"/>
						<stop  offset="0.6035" style="stop-color:#077FBA"/>
						<stop  offset="0.8576" style="stop-color:#015999"/>
						<stop  offset="0.89" style="stop-color:#005494"/>
						<stop  offset="1" style="stop-color:#005494"/>
					</linearGradient>
					<rect x="3.8" y="142.9" class="st5" width="146.2" height="27.3"/>
				</g>
			</g>
			<g>
				<g>
					<defs>
						<path id="SVGID_12_" d="M14.5,39.9C7.9,46.6,3.8,55.9,3.8,66.1v104.2l21.5-21.5V47.6c0-8.1,2.1-15.8,5.9-22.8L30.5,24
							L14.5,39.9z"/>
					</defs>
					<clipPath id="SVGID_13_">
						<use xlink:href="#SVGID_12_"  style="overflow:visible;"/>
					</clipPath>
					
						<linearGradient id="SVGID_14_" gradientUnits="userSpaceOnUse" x1="-20.7295" y1="-181.9325" x2="-19.3486" y2="-181.9325" gradientTransform="matrix(0 -106.3936 106.3938 0 19373.9961 -2034.0137)">
						<stop  offset="0" style="stop-color:#0081BD"/>
						<stop  offset="0.3934" style="stop-color:#006FAC"/>
						<stop  offset="0.85" style="stop-color:#005494"/>
						<stop  offset="1" style="stop-color:#005494"/>
					</linearGradient>
					<rect x="3.8" y="24" class="st6" width="27.3" height="146.2"/>
				</g>
			</g>
			<g>
				<g>
					<defs>
						<path id="SVGID_15_" d="M126.3,148.7h-101l0,0L3.8,170.3H108c10.3,0,19.5-4.1,26.3-10.7l15.8-15.8l-0.8-0.8
							C142.4,146.7,134.6,148.7,126.3,148.7"/>
					</defs>
					<clipPath id="SVGID_16_">
						<use xlink:href="#SVGID_15_"  style="overflow:visible;"/>
					</clipPath>
					
						<linearGradient id="SVGID_17_" gradientUnits="userSpaceOnUse" x1="-21.2663" y1="-182.6184" x2="-19.8854" y2="-182.6184" gradientTransform="matrix(104.7805 0 0 104.7804 2232.6589 19291.4336)">
						<stop  offset="0" style="stop-color:#10B0E6"/>
						<stop  offset="0.1611" style="stop-color:#0FAAE1"/>
						<stop  offset="0.3719" style="stop-color:#0C9AD2"/>
						<stop  offset="0.6102" style="stop-color:#077FBA"/>
						<stop  offset="0.8672" style="stop-color:#015999"/>
						<stop  offset="0.9" style="stop-color:#005494"/>
						<stop  offset="1" style="stop-color:#005494"/>
					</linearGradient>
					<rect x="3.8" y="142.9" class="st7" width="146.2" height="27.3"/>
				</g>
			</g>
			<g>
				<g>
					<defs>
						<path id="SVGID_18_" d="M14.5,39.9C7.9,46.6,3.8,55.9,3.8,66.1v104.2l21.5-21.5V47.6c0-8.1,2.1-15.8,5.9-22.8L30.5,24
							L14.5,39.9z"/>
					</defs>
					<clipPath id="SVGID_19_">
						<use xlink:href="#SVGID_18_"  style="overflow:visible;"/>
					</clipPath>
					
						<linearGradient id="SVGID_20_" gradientUnits="userSpaceOnUse" x1="-20.7295" y1="-181.9325" x2="-19.3486" y2="-181.9325" gradientTransform="matrix(0 -106.3936 106.3938 0 19373.9961 -2034.0137)">
						<stop  offset="0" style="stop-color:#0081BD"/>
						<stop  offset="0.3934" style="stop-color:#006FAC"/>
						<stop  offset="0.85" style="stop-color:#005494"/>
						<stop  offset="1" style="stop-color:#005494"/>
					</linearGradient>
					<rect x="3.8" y="24" class="st8" width="27.3" height="146.2"/>
				</g>
			</g>
			<g>
				<g>
					<defs>
						<path id="SVGID_21_" d="M73.1,6.1c-22.9,0-41.7,19-41.7,41.5v95.1h94.9c23,0,41.7-18.7,41.7-41.7V6.1H73.1z"/>
					</defs>
					<clipPath id="SVGID_22_">
						<use xlink:href="#SVGID_21_"  style="overflow:visible;"/>
					</clipPath>
					
						<linearGradient id="SVGID_23_" gradientUnits="userSpaceOnUse" x1="-20.8955" y1="-182.292" x2="-19.5146" y2="-182.292" gradientTransform="matrix(98.7114 -98.7113 98.7114 98.7113 20088.75 16073.9404)">
						<stop  offset="0" style="stop-color:#67CDF5"/>
						<stop  offset="3.486007e-02" style="stop-color:#63C9F2"/>
						<stop  offset="0.4816" style="stop-color:#2D97D0"/>
						<stop  offset="0.8167" style="stop-color:#0C78BB"/>
						<stop  offset="1" style="stop-color:#006CB3"/>
						<stop  offset="1" style="stop-color:#006CB3"/>
					</linearGradient>
					<polygon class="st9" points="-36.9,74.4 99.7,-62.2 236.3,74.4 99.7,211 					"/>
				</g>
				<g>
					<defs>
						<path id="SVGID_24_" d="M73.1,6.1c-22.9,0-41.7,19-41.7,41.5v95.1h94.9c23,0,41.7-18.7,41.7-41.7V6.1H73.1z"/>
					</defs>
					<clipPath id="SVGID_25_">
						<use xlink:href="#SVGID_24_"  style="overflow:visible;"/>
					</clipPath>
					<rect x="18.7" y="130.2" class="st10" width="154" height="38.1"/>
				</g>
			</g>
			<g>
				<g>
					<defs>
						<path id="SVGID_26_" d="M93.2,137c0,2.5,12.3,4.6,27.6,4.6c7.9,0,15-0.5,20-1.4c2.6-0.9,5.1-2.2,7.4-3.6
							c-1.6-2.3-13.3-4-27.4-4C105.5,132.5,93.2,134.5,93.2,137"/>
					</defs>
					<clipPath id="SVGID_27_">
						<use xlink:href="#SVGID_26_"  style="overflow:visible;"/>
					</clipPath>
					
						<radialGradient id="SVGID_28_" cx="-18.7229" cy="-200.1284" r="1.3809" gradientTransform="matrix(13.8056 0 0 3.8775 379.0252 912.6981)" gradientUnits="userSpaceOnUse">
						<stop  offset="0" style="stop-color:#75301A"/>
						<stop  offset="0.378" style="stop-color:#78311B"/>
						<stop  offset="0.6837" style="stop-color:#82341D"/>
						<stop  offset="0.9633" style="stop-color:#933A20"/>
						<stop  offset="1" style="stop-color:#963B21"/>
					</radialGradient>
					<rect x="93.2" y="132.5" class="st11" width="55" height="9"/>
				</g>
			</g>
			<g>
				<g>
					<defs>
						<path id="SVGID_29_" d="M45.2,137c0,2.4,12.1,4.2,26.9,4.2c14.9,0,26.9-1.9,26.9-4.2c0-2.4-12.1-4.2-26.9-4.2
							C57.2,132.8,45.2,134.6,45.2,137"/>
					</defs>
					<clipPath id="SVGID_30_">
						<use xlink:href="#SVGID_29_"  style="overflow:visible;"/>
					</clipPath>
					
						<radialGradient id="SVGID_31_" cx="-19.6585" cy="-201.2868" r="1.3809" gradientTransform="matrix(13.4986 0 0 3.6445 337.2583 870.2623)" gradientUnits="userSpaceOnUse">
						<stop  offset="0" style="stop-color:#75301A"/>
						<stop  offset="0.378" style="stop-color:#78311B"/>
						<stop  offset="0.6837" style="stop-color:#82341D"/>
						<stop  offset="0.9633" style="stop-color:#933A20"/>
						<stop  offset="1" style="stop-color:#963B21"/>
					</radialGradient>
					<rect x="45.2" y="132.8" class="st12" width="54" height="8.5"/>
				</g>
			</g>
			<g>
				<g>
					<defs>
						<rect id="SVGID_32_" width="174" height="174"/>
					</defs>
					<clipPath id="SVGID_33_">
						<use xlink:href="#SVGID_32_"  style="overflow:visible;"/>
					</clipPath>
					<path class="st13" d="M161.2,88.3c-0.2-2.1-2.7-2.7-4.2-3.5c-6.2-3-5.6-10.7-7.9-16.3c-2-4.6-4.8-8.7-8.2-12.3
						c-3.6-4.3-5-5.7-17.1-12.1c-9.1-4.1-19.4-6.2-29.4-6.2c-24.6,0-45.8,12-53.9,28.8c-0.5,1-0.9,2.1-1.3,3.2
						c-1.5,3.9-2.3,8.1-2.3,12.3c0,0.9,0,1.8,0.1,2.7c6,6.2,12.1,10.8,18.4,14.3c1.6,0.8,3.2,1.7,4.8,2.4c2,0.9,3.9,1.7,6,2.3
						c1.2,0.4,2.4,0.7,3.6,1.1c1.6,0.4,3.2,0.8,4.8,1.1c1.2,0.2,2.4,0.4,3.6,0.6c-1.1-0.2-2.4-0.4-3.6-0.6c-1.6-0.3-3.2-0.7-4.8-1.1
						c-1.2-0.3-2.4-0.7-3.6-1.1c-2-0.6-3.9-1.4-6-2.3c-1.6-0.7-3.2-1.4-4.8-2.4c-6.3-3.4-12.5-8.1-18.4-14.3c0.2,3.1,0.9,6,1.9,8.9
						l0,0C43.1,108,62.1,137,66.2,137h12.7c1.7,0,2.8-0.6,3.6-1.6c1-1.2,1.3-3.2,1.2-5.1c0-1.1-0.4-5.4-0.2-6.5
						c0.1-0.3,0.2-2,0.4-2.2c0,0,0,0,0-0.1c3.3,0.5,6.8,1.3,10.4,1.3c4.2,0,8.4-0.3,12.6-1c0.7,3.6,2.6,15.1,6.1,15.1l11.6-0.1
						c1.7,0,5.7-0.6,6.6-1.9c0.4-0.5,0.6-1.2,0.8-2c0.6-4-0.1-8.2-0.4-12.3c0-0.5,0-1,0-1.6c0-0.7,0.2-1.4,0.4-2.2
						c0.3-0.9,1-1.8,1.8-2.6c1.4-1,2.9-2.2,4.1-3.5c3.8-3.7,4.7-4.9,10.3-6.1c3.3-0.7,6.4-2.3,9.5-3.8c1.4-0.7,2-2,2-3.5
						c0-0.1,0-0.1,0-0.2c0-2.1,0.1-3.8,0.7-5.8C160.8,90.5,161.3,89.5,161.2,88.3 M82.8,107.3c2,0.2,3.9,0.2,5.9,0.2
						C86.7,107.6,84.7,107.5,82.8,107.3 M129.8,98.9c-0.3,0.1-0.7,0.3-1,0.4c-5.3,2-11.3,3.9-17.6,5.5c-2.5,0.6-5,1.1-7.6,1.6
						c-1.1,0.2-2.2,0.3-3.3,0.5c-1.9,0.2-3.7,0.4-5.7,0.5c-0.7,0-1.6,0.1-2.3,0.1c0.7,0,1.6-0.1,2.3-0.1c1.9-0.1,3.8-0.3,5.7-0.5
						c1.1-0.1,2.3-0.3,3.3-0.5c2.6-0.4,5.1-0.9,7.6-1.6c6.5-1.6,12.5-3.5,17.6-5.5C129,99.2,129.4,99.1,129.8,98.9
						c4.7-1.8,9.3-3.8,14.2-4.5C139,95.1,134.3,97.1,129.8,98.9 M146.2,94.2c0.6,0,1.1,0,1.8,0C147.4,94.2,146.8,94.2,146.2,94.2
						 M154.7,95.6c-0.5-0.2-1.1-0.3-1.7-0.5c-1.1-0.3-2.3-0.5-3.4-0.6c1.1,0.1,2.3,0.3,3.4,0.6C153.7,95.2,154.2,95.4,154.7,95.6
						c0.5,0.2,1.1,0.3,1.7,0.5C155.9,95.9,155.4,95.7,154.7,95.6"/>
				</g>
				<g>
					<defs>
						<rect id="SVGID_34_" width="174" height="174"/>
					</defs>
					<clipPath id="SVGID_35_">
						<use xlink:href="#SVGID_34_"  style="overflow:visible;"/>
					</clipPath>
					<path class="st14" d="M38.3,71.2c-1.2-0.7-2.2-2-2.9-3.5c2.8-1.2,5.2-3.3,7-6.2c1.6-2.4,1.7-5.1,0.3-7c-0.7-0.9-2.4-2.6-6-2.2
						c-1.9,0.2-3.4,1-4.7,2.4c-2.2,2.5-2.6,6.4-2.3,9c0,0.4,0.1,0.8,0.2,1.2c-2.2,0.1-3.9,0-6.2-0.4c-1-0.2-2.3-0.7-3.2-1.1
						l-6.7-3.1c2.9,3.6,13.1,9.1,17.2,8.6c1,2.5,2.6,4.5,4.7,5.7c1.6,0.9,3.3,1.4,5.1,1.7c0.4-1.3,0.9-2.7,1.8-3.9
						C41.1,72.3,39.6,72,38.3,71.2 M34.3,63.2c-0.2-2,0.1-4.7,1.3-6c0.4-0.5,0.9-0.8,1.7-0.8c0.1,0,0.2,0,0.4,0c0.5,0,0.7,0.2,1,0.5
						c0.3,0.5,0.4,1.7-0.3,2.8c-1.2,2-2.3,3.2-3.9,4.1C34.3,63.5,34.3,63.3,34.3,63.2"/>
				</g>
				<g>
					<defs>
						<rect id="SVGID_36_" width="174" height="174"/>
					</defs>
					<clipPath id="SVGID_37_">
						<use xlink:href="#SVGID_36_"  style="overflow:visible;"/>
					</clipPath>
					<g class="st15">
						<g>
							<g class="st16">
								<defs>
									<rect id="SVGID_38_" x="44.1" y="46.6" class="st16" width="29.8" height="30"/>
								</defs>
								<clipPath id="SVGID_39_">
									<use xlink:href="#SVGID_38_"  style="overflow:visible;"/>
								</clipPath>
								<g class="st17">
									<g>
										<defs>
											<rect id="SVGID_40_" x="44.1" y="46.6" width="29.8" height="30"/>
										</defs>
										<clipPath id="SVGID_41_">
											<use xlink:href="#SVGID_40_"  style="overflow:visible;"/>
										</clipPath>
										<path class="st18" d="M55.6,55c-6.9,5.8-9.2,9.9-10.8,15.6c-0.2,0.7-0.3,1.3-0.4,2c-0.2,1.3-0.3,2.7-0.3,4
											c0-0.1,0-0.1,0-0.2c1.7-6.3,5.9-11.8,12.4-16.8c4.9-3.7,12.2-7.6,17.4-8.8c-2.4-1.3-2.8-3-3-4.3
											C71.1,46.6,61.3,50.2,55.6,55"/>
									</g>
								</g>
							</g>
							<g>
								<defs>
									<rect id="SVGID_42_" width="174" height="174"/>
								</defs>
								<clipPath id="SVGID_43_">
									<use xlink:href="#SVGID_42_"  style="overflow:visible;"/>
								</clipPath>
								<path class="st19" d="M140,72.6c-1.7,0.3-2.7,2.5-2.3,4.8c0.4,2.4,2.1,4,3.7,3.8c1.7-0.3,2.7-2.5,2.3-4.8
									C143.4,74.1,141.7,72.4,140,72.6"/>
							</g>
							<g>
								<defs>
									<rect id="SVGID_44_" width="174" height="174"/>
								</defs>
								<clipPath id="SVGID_45_">
									<use xlink:href="#SVGID_44_"  style="overflow:visible;"/>
								</clipPath>
								<path class="st20" d="M118,48.7c3.9,6.6,11.4,9.8,17.6,7.6c0.6-0.2,1-0.9,0.9-1.7c-0.4-2.8-0.4-5.3,0.2-7.8
									c0.5-2.3,1.7-4.5,3.6-6.6c1.3-1.6-0.6-4.1-2.9-4.6c-2.6-0.4-5.3,0.1-7.1,1.4c-6.4,4.6-11.3,9.5-11.8,10
									C117.8,47.8,117.6,48,118,48.7"/>
							</g>
							<g>
								<defs>
									<rect id="SVGID_46_" width="174" height="174"/>
								</defs>
								<clipPath id="SVGID_47_">
									<use xlink:href="#SVGID_46_"  style="overflow:visible;"/>
								</clipPath>
								<path class="st21" d="M127.8,52.2c1.8-1.6,4-2.6,6.4-2.8c-0.1-0.7-0.3-1.4-0.2-2c0.3-2.4,1.6-3.6,3-5.5
									c0.3-0.3,0.8-1.3,1-1.8c0.6-1.8-2.8-1.8-3.8-1.6c-2.6,0.5-5.5,2.7-7.2,5.4C125.1,46.7,125.3,50.3,127.8,52.2"/>
							</g>
							<g>
								<defs>
									<rect id="SVGID_48_" width="174" height="174"/>
								</defs>
								<clipPath id="SVGID_49_">
									<use xlink:href="#SVGID_48_"  style="overflow:visible;"/>
								</clipPath>
								<path class="st22" d="M107.3,42.9c-6.6-2.2-19.7-2-26.4,0.4c-1.1,0.4-1.6,1.6-0.7,2.4l0.1,0.1c0.6,0.6,1.7,0.8,2.5,0.5
									c5.5-2.1,17.6-2.5,23-0.4c0.8,0.3,1.9,0.1,2.4-0.5v-0.1C108.9,44.4,108.4,43.2,107.3,42.9"/>
							</g>
							<g>
								<defs>
									<rect id="SVGID_50_" width="174" height="174"/>
								</defs>
								<clipPath id="SVGID_51_">
									<use xlink:href="#SVGID_50_"  style="overflow:visible;"/>
								</clipPath>
								<path class="st23" d="M84.8,45.7c3.3-0.8,6.7-1.2,10-1.2c2.9,0,5.7,0.3,8.5,0.9c3.7-2.9,6.2-7.4,6.2-12.4
									c0-8.7-7-15.7-15.7-15.7c-8.7,0-15.7,7-15.7,15.7C78.1,38.1,80.8,42.9,84.8,45.7"/>
							</g>
							<g>
								<defs>
									<rect id="SVGID_52_" width="174" height="174"/>
								</defs>
								<clipPath id="SVGID_53_">
									<use xlink:href="#SVGID_52_"  style="overflow:visible;"/>
								</clipPath>
								<path class="st24" d="M86.6,45.3c2.7-0.6,5.5-0.8,8.3-0.8c2.1,0,4.1,0.2,6.2,0.5c4-2.5,6.6-6.9,6.6-12
									c0-7.9-6.4-14.3-14.3-14.3c-7.9,0-14.3,6.4-14.3,14.3C79.2,38.2,82.2,42.9,86.6,45.3"/>
							</g>
							<g>
								<defs>
									<rect id="SVGID_54_" width="174" height="174"/>
								</defs>
								<clipPath id="SVGID_55_">
									<use xlink:href="#SVGID_54_"  style="overflow:visible;"/>
								</clipPath>
								<path class="st25" d="M87.3,45.2c2.5-0.5,5.1-0.7,7.6-0.7c2.3,0,4.6,0.2,6.7,0.5c4-2.5,6.7-7,6.7-12.1
									c0-7.9-6.2-14.3-14-14.3s-14,6.4-14,14.3C80.4,38.1,83.2,42.7,87.3,45.2"/>
							</g>
							<g>
								<defs>
									<rect id="SVGID_56_" width="174" height="174"/>
								</defs>
								<clipPath id="SVGID_57_">
									<use xlink:href="#SVGID_56_"  style="overflow:visible;"/>
								</clipPath>
								<path class="st26" d="M86.9,45.3c2.6-0.5,5.3-0.8,8-0.8c2.2,0,4.2,0.2,6.2,0.5c3.9-2.5,6.5-6.9,6.5-12
									c0-7.9-6.2-14.3-14-14.3c-7.7,0-14,6.4-14,14.3C79.8,38.1,82.6,42.8,86.9,45.3"/>
							</g>
							<g>
								<defs>
									<rect id="SVGID_58_" width="174" height="174"/>
								</defs>
								<clipPath id="SVGID_59_">
									<use xlink:href="#SVGID_58_"  style="overflow:visible;"/>
								</clipPath>
								<path class="st27" d="M90.6,44.6c1.3-0.1,2.8-0.2,4.1-0.2c1,0,2,0,3,0.1c5-1.6,8.5-6.2,8.5-11.7c0-6.8-4.9-12.3-12.3-12.3
									c-6.8,0-12.3,5.5-12.3,12.3C81.8,38.4,85.6,43.2,90.6,44.6"/>
							</g>
							<g>
								<defs>
									<rect id="SVGID_60_" width="174" height="174"/>
								</defs>
								<clipPath id="SVGID_61_">
									<use xlink:href="#SVGID_60_"  style="overflow:visible;"/>
								</clipPath>
								<path class="st28" d="M90.3,44.6c1.4-0.2,3-0.3,4.5-0.3c0.8,0,1.7,0,2.5,0.1c4.8-1.7,8.2-6.2,8.2-11.7
									c0-6.8-5.4-12.3-12-12.3c-6.6,0-12,5.5-12,12.3C81.5,38.5,85.2,43.3,90.3,44.6"/>
							</g>
							<g>
								<defs>
									<rect id="SVGID_62_" width="174" height="174"/>
								</defs>
								<clipPath id="SVGID_63_">
									<use xlink:href="#SVGID_62_"  style="overflow:visible;"/>
								</clipPath>
								<path class="st29" d="M90.6,44.6c1.3-0.1,2.8-0.2,4.1-0.2c0.9,0,1.9,0,2.8,0.1c4.8-1.6,8.3-6.2,8.3-11.7
									c0-6.8-5.4-12.3-11.9-12.3C87.3,20.5,82,26,82,32.8C82,38.4,85.7,43.2,90.6,44.6"/>
							</g>
						</g>
						<g>
							<g>
								<defs>
									<path id="SVGID_64_" d="M94.5,107.4c1.9-0.1,3.8-0.3,5.7-0.5c1.1-0.1,2.3-0.3,3.3-0.5c2.6-0.4,5.1-0.9,7.6-1.6
										c6.4-1.6,12.3-3.5,17.4-5.4c-5.3,2-11.2,3.9-17.4,5.4c-2.5,0.6-5,1.1-7.6,1.6c-1.1,0.2-2.2,0.3-3.3,0.5
										C98.3,107.1,96.3,107.3,94.5,107.4c-0.7,0-1.6,0.1-2.3,0.1C92.9,107.5,93.6,107.4,94.5,107.4 M128.6,99.3
										c0.3-0.1,0.7-0.3,1-0.4c4.7-1.8,9.3-3.8,14.2-4.5c-4.9,0.6-9.5,2.7-14.2,4.5C129.4,99.1,129,99.2,128.6,99.3L128.6,99.3
										 M146.6,94.2c-0.1,0-0.2,0-0.3,0C146.3,94.2,146.4,94.2,146.6,94.2 M146.9,94.2L146.9,94.2L146.9,94.2z M40.4,66.8
										c-0.5,1-0.9,2.1-1.3,3.2c-1.5,3.9-2.3,8.1-2.3,12.3c0,0.9,0,1.8,0.1,2.7c0.2,3.1,0.9,6,1.9,8.9l0,0
										c4.2,14.2,23.3,43.2,27.3,43.2h12.7c1.7,0,2.8-0.6,3.6-1.6c1-1.2,1.3-3.2,1.2-5.1c0-1.1-0.4-5.4-0.2-6.5
										c0.1-0.3,0.2-2,0.4-2.2c0,0,0,0,0-0.1c3.3,0.5,6.8,1.3,10.4,1.3c4.2,0,8.4-0.3,12.6-1c0.7,3.6,2.6,15.1,6.1,15.1l11.6-0.1
										c1.7,0,5.7-0.6,6.6-1.9c0.4-0.5,0.6-1.2,0.8-2c0.6-4-0.1-8.2-0.4-12.3c0-0.5,0-1,0-1.6c0-0.7,0.2-1.4,0.4-2.2
										c0.3-0.9,1-1.8,1.8-2.6c1.4-1,2.9-2.2,4.1-3.5c3.8-3.7,4.7-4.9,10.3-6.1c3.3-0.7,6.4-2.3,9.5-3.8c1.4-0.7,2-2,2-3.5
										c0-0.1,0-0.1,0-0.2c0-2.1,0.1-3.8,0.7-5.8c0.3-1.1,0.8-2.2,0.7-3.3c-0.2-2.1-2.7-2.7-4.2-3.5c-6.2-3-5.6-10.7-7.9-16.3
										c-2-4.6-4.8-8.7-8.2-12.3c-3.6-4.3-5-5.7-17.1-12.1c-9.1-4.1-19.4-6.2-29.4-6.2C69.6,38,48.6,50,40.4,66.8"/>
								</defs>
								<clipPath id="SVGID_65_">
									<use xlink:href="#SVGID_64_"  style="overflow:visible;"/>
								</clipPath>
								<g class="st30">
									<g>
										<g>
											<defs>
												<rect id="SVGID_66_" x="36.8" y="84.9" width="123" height="52.2"/>
											</defs>
											<clipPath id="SVGID_67_">
												<use xlink:href="#SVGID_66_"  style="overflow:visible;"/>
											</clipPath>
										</g>
									</g>
								</g>
							</g>
						</g>
					</g>
				</g>
			</g>
		</g>
	</g>
</g>
</svg>
