<?xml version="1.0" encoding="utf-8"?>
<!-- Generator: Adobe Illustrator 22.0.1, SVG Export Plug-In . SVG Version: 6.00 Build 0)  -->
<svg version="1.1" id="Layer_1" xmlns="http://www.w3.org/2000/svg" xmlns:xlink="http://www.w3.org/1999/xlink" x="0px" y="0px"
	 viewBox="0 0 300 600" style="enable-background:new 0 0 300 600;" xml:space="preserve">
<style type="text/css">
	.st0{fill:#FFFFFF;}
	.st1{clip-path:url(#SVGID_2_);fill:#FFFFFF;}
	.st2{clip-path:url(#SVGID_4_);fill:url(#SVGID_5_);}
	.st3{clip-path:url(#SVGID_7_);fill:url(#SVGID_8_);}
	.st4{clip-path:url(#SVGID_10_);fill:url(#SVGID_11_);}
</style>
<g>
	<path class="st0" d="M97.9,541.1v5.1h-9v24.4h-5.7v-24.4h-9v-5.1H97.9z M100.3,570.6h5.7v-14.8v-14.8h-5.7v14.8V570.6z
		 M135.5,570.6h-5.9l-3-7.3h-10l-3,7.3h-5.7l12.6-29.9h2.5L135.5,570.6z M163.2,570.6h-5.9l-3-7.3h-10l-3,7.3h-5.7l12.6-29.9h2.5
		L163.2,570.6z M124.7,558.5l-3-7.4l-3,7.4H124.7z M152.3,558.5l-3-7.4l-3,7.4H152.3z"/>
	<g>
		<defs>
			<rect id="SVGID_1_" x="26" y="529" width="144.8" height="49.3"/>
		</defs>
		<clipPath id="SVGID_2_">
			<use xlink:href="#SVGID_1_"  style="overflow:visible;"/>
		</clipPath>
		<path class="st1" d="M53.4,572.5c2.5,0,4.8-1,6.5-2.7l7-7c1.6-1.6,2.6-3.9,2.6-6.3v-21.8H47.8c-2.5,0-4.8,1-6.5,2.7l-7,7
			c-1.6,1.6-2.6,3.9-2.6,6.3v21.8H53.4z"/>
	</g>
	<g>
		<defs>
			<path id="SVGID_3_" d="M50.3,536.6c-3.9,0-7.1,3.2-7.2,7.1v2.4h14.9V561h2.4c4,0,7.2-3.2,7.2-7.2v-17.3H50.3z"/>
		</defs>
		<clipPath id="SVGID_4_">
			<use xlink:href="#SVGID_3_"  style="overflow:visible;"/>
		</clipPath>
		
			<linearGradient id="SVGID_5_" gradientUnits="userSpaceOnUse" x1="1.9507" y1="601.0373" x2="3.284" y2="601.0373" gradientTransform="matrix(12.7555 -12.7555 -12.7555 -12.7555 7692.2661 8245.0205)">
			<stop  offset="0" style="stop-color:#9EDDF9"/>
			<stop  offset="0.1" style="stop-color:#9EDDF9"/>
			<stop  offset="0.9" style="stop-color:#0B9EDA"/>
			<stop  offset="1" style="stop-color:#0B9EDA"/>
		</linearGradient>
		<polygon class="st2" points="30.9,548.8 55.4,524.4 79.8,548.8 55.4,573.3 		"/>
	</g>
	<g>
		<defs>
			<path id="SVGID_6_" d="M60.5,563H41.2l-7.6,7.6h19.8c1.9,0,3.7-0.8,5.1-2.2L65,562l-0.2-0.2C63.5,562.6,62,563,60.5,563"/>
		</defs>
		<clipPath id="SVGID_7_">
			<use xlink:href="#SVGID_6_"  style="overflow:visible;"/>
		</clipPath>
		
			<linearGradient id="SVGID_8_" gradientUnits="userSpaceOnUse" x1="1.3148" y1="601.4016" x2="2.6481" y2="601.4016" gradientTransform="matrix(23.517 0 0 -23.517 2.6919 14709.3848)">
			<stop  offset="0" style="stop-color:#1DB0E6"/>
			<stop  offset="0.1146" style="stop-color:#1DACE2"/>
			<stop  offset="0.2645" style="stop-color:#1BA1D7"/>
			<stop  offset="0.434" style="stop-color:#1790C7"/>
			<stop  offset="0.6179" style="stop-color:#137AB4"/>
			<stop  offset="0.8114" style="stop-color:#06619F"/>
			<stop  offset="0.9" style="stop-color:#025595"/>
			<stop  offset="1" style="stop-color:#025595"/>
		</linearGradient>
		<rect x="33.6" y="561.9" class="st3" width="31.4" height="8.7"/>
	</g>
	<g>
		<defs>
			<path id="SVGID_9_" d="M35.8,545.7c-1.4,1.4-2.2,3.2-2.2,5.1v19.8l7.6-7.6v-19.2c0-1.6,0.4-3.1,1.1-4.3l-0.2-0.2L35.8,545.7z"/>
		</defs>
		<clipPath id="SVGID_10_">
			<use xlink:href="#SVGID_9_"  style="overflow:visible;"/>
		</clipPath>
		
			<linearGradient id="SVGID_11_" gradientUnits="userSpaceOnUse" x1="1.3551" y1="600.6387" x2="2.6885" y2="600.6387" gradientTransform="matrix(0 -23.5174 -23.5174 0 14163.416 602.4635)">
			<stop  offset="0" style="stop-color:#0882BE"/>
			<stop  offset="0.22" style="stop-color:#0778B4"/>
			<stop  offset="0.6562" style="stop-color:#02609E"/>
			<stop  offset="0.85" style="stop-color:#025595"/>
			<stop  offset="1" style="stop-color:#025595"/>
		</linearGradient>
		<rect x="33.6" y="539.2" class="st4" width="8.7" height="31.4"/>
	</g>
</g>
</svg>
