<?xml version="1.0" encoding="utf-8"?>
<!-- Generator: Adobe Illustrator 24.0.0, SVG Export Plug-In . SVG Version: 6.00 Build 0)  -->
<svg version="1.1" id="Layer_1" xmlns="http://www.w3.org/2000/svg" xmlns:xlink="http://www.w3.org/1999/xlink" x="0px" y="0px"
	 viewBox="0 0 320 50" style="enable-background:new 0 0 320 50;" xml:space="preserve">
<style type="text/css">
	.st0{fill:#F9E039;}
</style>
<g>
	<path class="st0" d="M51.2,19.6c-2.3,0-4.6-1.5-4.6-4.3c0-2.9,2.4-4.4,4.6-4.4c1.1,0,2.1,0.3,2.7,0.7l-0.4,1.7
		c-0.5-0.3-1.3-0.6-2.1-0.6c-1.5,0-2.8,1-2.8,2.7c0,1.5,1.2,2.6,2.7,2.6c0.5,0,0.8-0.1,1.1-0.2v-1.3H51v-1.5h3.3v4
		C53.6,19.3,52.5,19.6,51.2,19.6z"/>
	<path class="st0" d="M60.8,16.1L60,17h-2.9c0.1,0.5,0.7,1,1.7,1c0.6,0,1.2-0.2,1.6-0.4l-0.2,1.6c-0.4,0.2-1.1,0.4-1.9,0.4
		c-1.8,0-3.2-1.2-3.2-3.2c0-1.9,1.4-3.1,3.1-3.1c1.6,0,2.6,1.1,2.6,2.4C60.9,15.8,60.9,16,60.8,16.1z M58.2,14.7c-0.6,0-1,0.4-1.1,1
		h2c0,0,0-0.1,0-0.1C59.1,15.2,58.7,14.7,58.2,14.7z"/>
	<path class="st0" d="M65.7,15h-1.5v2.2c0,0.5,0.3,0.7,0.8,0.7c0.2,0,0.4,0,0.5-0.1l-0.2,1.4c-0.2,0.1-0.5,0.2-0.9,0.2
		c-1.3,0-2.1-0.7-2.1-1.9V15h-1v-1.6h1v-1.3l1.9-0.7v2h1.9L65.7,15z"/>
	<path class="st0" d="M72,22.4c-1.7,0-2.9-1-2.9-2.2c0-0.9,0.6-1.4,1.2-1.6l-0.8-0.8c0.1-0.4,0.4-0.7,0.7-0.8
		c-0.4-0.3-0.9-0.8-0.9-1.6c0-1.2,0.9-2.1,2.4-2.1c0.4,0,0.6,0.1,0.9,0.1c0.3,0.1,0.5,0.1,0.8,0.1c0.3,0,0.7-0.1,0.9-0.2l0.4,1.5
		c-0.2,0.1-0.5,0.2-0.7,0.2c0.1,0.1,0.1,0.4,0.1,0.6c0,1-0.8,1.8-1.9,1.9c-0.2,0-0.4,0.1-0.4,0.2c0,0.1,0.1,0.1,0.2,0.2l0.9,0.3
		c1.2,0.4,1.8,1,1.8,2.1C74.9,21.5,73.7,22.4,72,22.4z M72.4,19.6l-0.7-0.2c-0.5,0-0.8,0.3-0.8,0.8c0,0.4,0.4,0.7,1,0.7
		c0.7,0,1-0.3,1-0.6C73,20,72.8,19.7,72.4,19.6z M71.9,14.7c-0.4,0-0.8,0.3-0.8,0.7c0,0.4,0.3,0.7,0.8,0.7c0.4,0,0.8-0.3,0.8-0.7
		C72.7,15,72.4,14.7,71.9,14.7z"/>
	<path class="st0" d="M79.4,19.4v-0.8h0c-0.2,0.6-0.9,1-1.8,1c-1.3,0-2.1-0.7-2.1-2v-4.1h1.9v3.6c0,0.4,0.3,0.8,0.9,0.8
		c0.6,0,0.9-0.4,0.9-0.8v-3.6h1.9v5.9H79.4z"/>
	<path class="st0" d="M86.4,19.6c-0.4-0.1-0.8-0.4-0.9-0.8c-0.3,0.5-0.8,0.7-1.5,0.7c-1,0-2-0.7-2-1.9c0-1.1,0.8-1.8,2-1.9l1.2-0.1
		v-0.2c0-0.4-0.3-0.6-0.9-0.6c-0.6,0-1.2,0.2-1.6,0.5l-0.3-1.4c0.5-0.3,1.3-0.5,2.1-0.5c1.6,0,2.7,0.7,2.7,2.1v1.9
		c0,0.7,0.3,1.1,0.7,1.2L86.4,19.6z M85.2,16.8l-0.7,0.1c-0.5,0-0.7,0.4-0.7,0.7c0,0.3,0.2,0.6,0.6,0.6c0.5,0,0.8-0.4,0.8-0.9V16.8z
		"/>
	<path class="st0" d="M92,15.5c-0.1-0.1-0.4-0.1-0.6-0.1c-0.6,0-1.2,0.3-1.2,1.3v2.7h-1.9v-5.9h1.9v1.3h0c0.2-0.9,0.9-1.4,1.7-1.4
		c0.2,0,0.4,0,0.5,0.1L92,15.5z"/>
	<path class="st0" d="M97.1,19.6c-0.4-0.1-0.8-0.4-0.9-0.8c-0.3,0.5-0.8,0.7-1.5,0.7c-1,0-2-0.7-2-1.9c0-1.1,0.8-1.8,2-1.9l1.2-0.1
		v-0.2c0-0.4-0.3-0.6-0.9-0.6c-0.6,0-1.2,0.2-1.6,0.5L93,13.8c0.5-0.3,1.3-0.5,2.1-0.5c1.6,0,2.7,0.7,2.7,2.1v1.9
		c0,0.7,0.3,1.1,0.7,1.2L97.1,19.6z M95.9,16.8l-0.7,0.1c-0.5,0-0.7,0.4-0.7,0.7c0,0.3,0.2,0.6,0.6,0.6c0.5,0,0.8-0.4,0.8-0.9V16.8z
		"/>
	<path class="st0" d="M102.7,19.4v-3.6c0-0.4-0.3-0.8-0.9-0.8c-0.6,0-0.9,0.4-0.9,0.8v3.6H99v-5.9h1.8v0.8h0c0.2-0.6,0.8-1,1.8-1
		c1.3,0,2.1,0.7,2.1,2v4.1H102.7z"/>
	<path class="st0" d="M109.6,15h-1.5v2.2c0,0.5,0.3,0.7,0.8,0.7c0.2,0,0.4,0,0.5-0.1l-0.2,1.4c-0.2,0.1-0.5,0.2-0.9,0.2
		c-1.3,0-2.1-0.7-2.1-1.9V15h-1v-1.6h1v-1.3l1.9-0.7v2h1.9L109.6,15z"/>
	<path class="st0" d="M115.8,16.1L115,17h-2.9c0.1,0.5,0.7,1,1.7,1c0.6,0,1.2-0.2,1.6-0.4l-0.2,1.6c-0.4,0.2-1.1,0.4-1.9,0.4
		c-1.8,0-3.2-1.2-3.2-3.2c0-1.9,1.4-3.1,3.1-3.1c1.6,0,2.6,1.1,2.6,2.4C115.9,15.8,115.8,16,115.8,16.1z M113.2,14.7
		c-0.6,0-1,0.4-1.1,1h2c0,0,0-0.1,0-0.1C114.1,15.2,113.7,14.7,113.2,14.7z"/>
	<path class="st0" d="M122.1,16.1l-0.8,0.9h-2.9c0.1,0.5,0.7,1,1.7,1c0.6,0,1.2-0.2,1.6-0.4l-0.2,1.6c-0.4,0.2-1.1,0.4-1.9,0.4
		c-1.8,0-3.2-1.2-3.2-3.2c0-1.9,1.4-3.1,3.1-3.1c1.6,0,2.6,1.1,2.6,2.4C122.1,15.8,122.1,16,122.1,16.1z M119.5,14.7
		c-0.6,0-1,0.4-1.1,1h2c0,0,0-0.1,0-0.1C120.3,15.2,120,14.7,119.5,14.7z"/>
	<path class="st0" d="M127.3,19.4v-0.7h0c-0.3,0.6-1,0.9-1.8,0.9c-1.4,0-2.8-1.1-2.8-3.1c0-1.9,1.4-3.1,3-3.1c0.6,0,1.3,0.2,1.5,0.4
		v-3.6h1.9v9.3H127.3z M127.2,15.5c-0.2-0.2-0.6-0.5-1.2-0.5c-0.8,0-1.4,0.6-1.4,1.5c0,0.8,0.6,1.5,1.4,1.5c0.6,0,0.9-0.3,1.2-0.6
		V15.5z"/>
	<path class="st0" d="M134.9,19.6c-1.2-0.1-2-0.7-2-2.1v-7.4h1.9v7.2c0,0.5,0.3,0.7,0.8,0.8L134.9,19.6z"/>
	<path class="st0" d="M137.3,12.7c-0.3,0-1-0.7-1-1c0-0.3,0.7-1,1-1s1,0.7,1,1C138.3,12,137.6,12.7,137.3,12.7z M136.3,19.4v-5.9
		h1.9v5.9H136.3z"/>
	<path class="st0" d="M143.5,11.8c-0.2-0.1-0.5-0.2-0.8-0.2c-0.7,0-1.1,0.4-1.1,1.3v0.6h1.7L143,15h-1.3v4.3h-1.8V15h-0.9v-1.6h0.9
		v-0.7c0-1.8,1.2-2.7,2.6-2.7c0.5,0,1.1,0.1,1.4,0.2L143.5,11.8z"/>
	<path class="st0" d="M149.2,16.1l-0.8,0.9h-2.9c0.1,0.5,0.7,1,1.7,1c0.6,0,1.2-0.2,1.6-0.4l-0.2,1.6c-0.4,0.2-1.1,0.4-1.9,0.4
		c-1.8,0-3.2-1.2-3.2-3.2c0-1.9,1.4-3.1,3.1-3.1c1.6,0,2.6,1.1,2.6,2.4C149.2,15.8,149.2,16,149.2,16.1z M146.6,14.7
		c-0.6,0-1,0.4-1.1,1h2c0,0,0-0.1,0-0.1C147.4,15.2,147.1,14.7,146.6,14.7z"/>
	<path class="st0" d="M154.1,15h-1.5v2.2c0,0.5,0.3,0.7,0.8,0.7c0.2,0,0.4,0,0.5-0.1l-0.2,1.4c-0.2,0.1-0.5,0.2-0.9,0.2
		c-1.3,0-2.1-0.7-2.1-1.9V15h-1v-1.6h1v-1.3l1.9-0.7v2h1.9L154.1,15z"/>
	<path class="st0" d="M156,12.7c-0.3,0-1-0.7-1-1c0-0.3,0.7-1,1-1s1,0.7,1,1C157,12,156.3,12.7,156,12.7z M155,19.4v-5.9h1.9v5.9
		H155z"/>
	<path class="st0" d="M165.4,19.4v-3.6c0-0.4-0.2-0.8-0.8-0.8c-0.6,0-0.9,0.4-0.9,0.8v3.6h-1.9v-3.6c0-0.4-0.2-0.8-0.8-0.8
		c-0.6,0-0.9,0.4-0.9,0.8v3.6h-1.9v-5.9h1.8v0.8h0c0.2-0.6,0.8-1,1.7-1c0.8,0,1.5,0.3,1.7,1c0.2-0.6,0.9-1,1.8-1
		c1.3,0,2.1,0.7,2.1,2v4.1H165.4z"/>
	<path class="st0" d="M173.8,16.1L173,17h-2.9c0.1,0.5,0.7,1,1.7,1c0.6,0,1.2-0.2,1.6-0.4l-0.2,1.6c-0.4,0.2-1.1,0.4-1.9,0.4
		c-1.8,0-3.2-1.2-3.2-3.2c0-1.9,1.4-3.1,3.1-3.1c1.6,0,2.6,1.1,2.6,2.4C173.9,15.8,173.8,16,173.8,16.1z M171.2,14.7
		c-0.6,0-1,0.4-1.1,1h2c0,0,0-0.1,0-0.1C172.1,15.2,171.7,14.7,171.2,14.7z"/>
	<path class="st0" d="M178.5,12.7c-0.3,0-1-0.7-1-1c0-0.3,0.7-1,1-1c0.3,0,1,0.7,1,1C179.5,12,178.8,12.7,178.5,12.7z M177.5,19.4
		v-5.9h1.9v5.9H177.5z"/>
	<path class="st0" d="M184.3,19.4v-3.6c0-0.4-0.3-0.8-0.9-0.8c-0.6,0-0.9,0.4-0.9,0.8v3.6h-1.9v-5.9h1.8v0.8h0c0.2-0.6,0.8-1,1.8-1
		c1.3,0,2.1,0.7,2.1,2v4.1H184.3z"/>
	<path class="st0" d="M191.8,15.4c-0.4-0.2-0.8-0.4-1.3-0.4c-0.8,0-1.5,0.6-1.5,1.5c0,0.8,0.7,1.5,1.5,1.5c0.5,0,0.9-0.1,1.3-0.3
		l-0.2,1.6c-0.4,0.2-0.9,0.3-1.4,0.3c-1.7,0-3.2-1.2-3.2-3.1c0-1.9,1.5-3.1,3.1-3.1c0.8,0,1.4,0.2,1.9,0.4L191.8,15.4z"/>
	<path class="st0" d="M195.8,19.6c-1.8,0-3.2-1.3-3.2-3.1s1.4-3.1,3.2-3.1c1.8,0,3.2,1.3,3.2,3.1S197.6,19.6,195.8,19.6z M195.8,15
		c-0.7,0-1.3,0.6-1.3,1.5c0,0.9,0.6,1.5,1.3,1.5c0.7,0,1.3-0.6,1.3-1.5C197.2,15.6,196.5,15,195.8,15z"/>
	<path class="st0" d="M207.2,19.4v-3.6c0-0.4-0.2-0.8-0.8-0.8c-0.6,0-0.9,0.4-0.9,0.8v3.6h-1.9v-3.6c0-0.4-0.2-0.8-0.8-0.8
		c-0.6,0-0.9,0.4-0.9,0.8v3.6h-1.9v-5.9h1.8v0.8h0c0.2-0.6,0.8-1,1.7-1c0.8,0,1.5,0.3,1.7,1c0.2-0.6,0.9-1,1.8-1
		c1.3,0,2.1,0.7,2.1,2v4.1H207.2z"/>
	<path class="st0" d="M215.6,16.1l-0.8,0.9h-2.9c0.1,0.5,0.7,1,1.7,1c0.6,0,1.2-0.2,1.6-0.4l-0.2,1.6c-0.4,0.2-1.1,0.4-1.9,0.4
		c-1.8,0-3.2-1.2-3.2-3.2c0-1.9,1.4-3.1,3.1-3.1c1.6,0,2.6,1.1,2.6,2.4C215.6,15.8,215.6,16,215.6,16.1z M213,14.7
		c-0.6,0-1,0.4-1.1,1h2c0,0,0-0.1,0-0.1C213.9,15.2,213.5,14.7,213,14.7z"/>
</g>
<g>
	<path class="st0" d="M83,29.1h-1.5v2.2c0,0.5,0.3,0.7,0.8,0.7c0.2,0,0.4,0,0.5-0.1l-0.2,1.4c-0.2,0.1-0.5,0.2-0.9,0.2
		c-1.3,0-2.1-0.7-2.1-1.9v-2.5h-1v-1.6h1v-1.3l1.9-0.7v2h1.9L83,29.1z"/>
	<path class="st0" d="M87.7,33.4v-3.6c0-0.4-0.3-0.8-0.9-0.8c-0.6,0-0.9,0.4-0.9,0.8v3.6H84v-9.3h1.9V28h0c0.3-0.5,0.8-0.7,1.7-0.7
		c1.3,0,2.1,0.7,2.1,2v4.1H87.7z"/>
	<path class="st0" d="M94.9,33.6c-0.4-0.1-0.8-0.4-0.9-0.8c-0.3,0.5-0.8,0.7-1.5,0.7c-1,0-2-0.7-2-2c0-1.1,0.8-1.8,2-1.9l1.2-0.1
		v-0.2c0-0.4-0.3-0.6-0.9-0.6c-0.6,0-1.2,0.2-1.6,0.5l-0.3-1.4c0.5-0.3,1.3-0.5,2.1-0.5c1.6,0,2.7,0.7,2.7,2.1v1.9
		c0,0.7,0.3,1.1,0.7,1.2L94.9,33.6z M93.7,30.8l-0.7,0.1c-0.5,0-0.7,0.4-0.7,0.7c0,0.3,0.2,0.6,0.6,0.6c0.5,0,0.8-0.4,0.8-0.9V30.8z
		"/>
	<path class="st0" d="M100.6,29.1H99v2.2c0,0.5,0.3,0.7,0.8,0.7c0.2,0,0.4,0,0.5-0.1l-0.2,1.4c-0.2,0.1-0.5,0.2-0.9,0.2
		c-1.3,0-2.1-0.7-2.1-1.9v-2.5h-1v-1.6h1v-1.3l1.9-0.7v2h1.9L100.6,29.1z"/>
	<path class="st0" d="M108,33.4v-3.6c0-0.4-0.3-0.8-0.9-0.8c-0.6,0-0.9,0.4-0.9,0.8v3.6h-1.9v-5.9h1.8v0.8h0c0.2-0.6,0.8-1,1.8-1
		c1.3,0,2.1,0.7,2.1,2v4.1H108z"/>
	<path class="st0" d="M116.4,30.1l-0.8,0.9h-2.9c0.1,0.5,0.7,1,1.7,1c0.6,0,1.2-0.2,1.6-0.4l-0.2,1.6c-0.4,0.2-1.1,0.4-1.9,0.4
		c-1.8,0-3.2-1.2-3.2-3.2c0-1.9,1.4-3.1,3.1-3.1c1.6,0,2.6,1.1,2.6,2.4C116.5,29.8,116.5,30,116.4,30.1z M113.8,28.7
		c-0.6,0-1,0.4-1.1,1h2c0,0,0-0.1,0-0.1C114.7,29.2,114.3,28.7,113.8,28.7z"/>
	<path class="st0" d="M120.3,33.4h-1.4l-2.3-5.9h1.8l0.8,2.2c0.1,0.3,0.2,0.8,0.3,1.1h0c0.1-0.4,0.2-0.8,0.3-1.1l0.8-2.2h1.8
		L120.3,33.4z"/>
	<path class="st0" d="M128.3,30.1l-0.8,0.9h-2.9c0.1,0.5,0.7,1,1.7,1c0.6,0,1.2-0.2,1.6-0.4l-0.2,1.6c-0.4,0.2-1.1,0.4-1.9,0.4
		c-1.8,0-3.2-1.2-3.2-3.2c0-1.9,1.4-3.1,3.1-3.1c1.6,0,2.6,1.1,2.6,2.4C128.4,29.8,128.4,30,128.3,30.1z M125.8,28.7
		c-0.6,0-1,0.4-1.1,1h2c0,0,0-0.1,0-0.1C126.6,29.2,126.3,28.7,125.8,28.7z"/>
	<path class="st0" d="M132.9,29.5c-0.1-0.1-0.4-0.1-0.6-0.1c-0.6,0-1.2,0.3-1.2,1.3v2.7h-1.9v-5.9h1.9v1.3h0
		c0.2-0.9,0.9-1.4,1.7-1.4c0.2,0,0.4,0,0.5,0.1L132.9,29.5z"/>
	<path class="st0" d="M140.3,29.5c-0.1-0.1-0.4-0.1-0.6-0.1c-0.6,0-1.2,0.3-1.2,1.3v2.7h-1.9v-5.9h1.9v1.3h0
		c0.2-0.9,0.9-1.4,1.7-1.4c0.2,0,0.4,0,0.5,0.1L140.3,29.5z"/>
	<path class="st0" d="M145.2,33.4v-0.8h0c-0.2,0.6-0.9,1-1.8,1c-1.3,0-2.1-0.7-2.1-2v-4.1h1.9v3.6c0,0.4,0.3,0.8,0.9,0.8
		c0.6,0,0.9-0.4,0.9-0.8v-3.6h1.9v5.9H145.2z"/>
	<path class="st0" d="M151.8,33.4v-3.6c0-0.4-0.3-0.8-0.9-0.8c-0.6,0-0.9,0.4-0.9,0.8v3.6h-1.9v-5.9h1.8v0.8h0c0.2-0.6,0.8-1,1.8-1
		c1.3,0,2.1,0.7,2.1,2v4.1H151.8z"/>
	<path class="st0" d="M156.8,33.5c-0.8,0-1.4-0.2-1.9-0.4l-0.2-1.7c0.5,0.4,1.2,0.6,1.8,0.6c0.4,0,0.6-0.2,0.6-0.4
		c0-0.2-0.2-0.4-0.5-0.5c-1.1-0.3-1.8-0.9-1.8-1.9c0-1.2,0.9-1.9,2.2-1.9c0.7,0,1.4,0.2,1.7,0.4l-0.3,1.4c-0.3-0.2-0.8-0.3-1.2-0.3
		c-0.3,0-0.5,0.1-0.5,0.4c0,0.2,0.2,0.3,0.5,0.4c1.3,0.4,1.9,1,1.9,2C159.1,32.6,158.4,33.5,156.8,33.5z"/>
	<path class="st0" d="M165.7,33.6c-1.8,0-3.2-1.3-3.2-3.1s1.4-3.1,3.2-3.1c1.8,0,3.2,1.3,3.2,3.1S167.4,33.6,165.7,33.6z M165.7,29
		c-0.7,0-1.3,0.6-1.3,1.5s0.6,1.5,1.3,1.5c0.7,0,1.3-0.6,1.3-1.5S166.4,29,165.7,29z"/>
	<path class="st0" d="M173.6,33.4v-0.8h0c-0.2,0.6-0.9,1-1.8,1c-1.3,0-2.1-0.7-2.1-2v-4.1h1.9v3.6c0,0.4,0.3,0.8,0.9,0.8
		c0.6,0,0.9-0.4,0.9-0.8v-3.6h1.9v5.9H173.6z"/>
	<path class="st0" d="M180.4,29.1h-1.5v2.2c0,0.5,0.3,0.7,0.8,0.7c0.2,0,0.4,0,0.5-0.1l-0.2,1.4c-0.2,0.1-0.5,0.2-0.9,0.2
		c-1.3,0-2.1-0.7-2.1-1.9v-2.5h-1v-1.6h1v-1.3l1.9-0.7v2h1.9L180.4,29.1z"/>
	<path class="st0" d="M182.2,33.6c-0.4,0-1.1-0.7-1.1-1.1c0-0.3,0.7-1.1,1.1-1.1c0.4,0,1.1,0.7,1.1,1.1
		C183.2,32.8,182.5,33.6,182.2,33.6z"/>
</g>
</svg>
