<?xml version="1.0" encoding="utf-8"?>
<!-- Generator: Adobe Illustrator 24.0.0, SVG Export Plug-In . SVG Version: 6.00 Build 0)  -->
<svg version="1.1" id="Layer_1" xmlns="http://www.w3.org/2000/svg" xmlns:xlink="http://www.w3.org/1999/xlink" x="0px" y="0px"
	 viewBox="0 0 320 50" style="enable-background:new 0 0 320 50;" xml:space="preserve">
<style type="text/css">
	.st0{fill:#F9E039;}
</style>
<g>
	<path class="st0" d="M86.7,13.6c-0.4-0.2-1-0.4-1.7-0.4c-1.5,0-2.7,1-2.7,2.5c0,1.5,1.2,2.5,2.7,2.5c0.7,0,1.3-0.1,1.7-0.4
		l-0.2,1.8c-0.4,0.2-1,0.3-1.9,0.3c-2.1,0-4.4-1.5-4.4-4.3s2.3-4.3,4.4-4.3c1,0,1.8,0.2,2.3,0.5L86.7,13.6z"/>
	<path class="st0" d="M92,20.1c-0.4-0.1-0.8-0.4-0.9-0.8c-0.3,0.5-0.8,0.7-1.5,0.7c-1,0-2-0.7-2-1.9c0-1.1,0.8-1.8,2-1.9l1.2-0.1
		v-0.2c0-0.4-0.3-0.6-0.9-0.6c-0.6,0-1.2,0.2-1.6,0.5l-0.3-1.4c0.5-0.3,1.3-0.5,2.1-0.5c1.6,0,2.7,0.7,2.7,2.1v1.9
		c0,0.7,0.3,1.1,0.7,1.2L92,20.1z M90.7,17.2L90,17.3c-0.5,0-0.7,0.4-0.7,0.7c0,0.3,0.2,0.6,0.6,0.6c0.5,0,0.8-0.4,0.8-0.9V17.2z"/>
	<path class="st0" d="M95.8,20.1c-1.2-0.1-2-0.7-2-2.1v-7.4h1.9v7.2c0,0.5,0.3,0.7,0.8,0.8L95.8,20.1z"/>
	<path class="st0" d="M101.5,15.8c-0.4-0.2-0.8-0.4-1.3-0.4c-0.8,0-1.5,0.6-1.5,1.5c0,0.8,0.7,1.5,1.5,1.5c0.5,0,0.9-0.1,1.3-0.3
		l-0.2,1.6c-0.4,0.2-0.9,0.3-1.4,0.3c-1.7,0-3.2-1.2-3.2-3.1c0-1.9,1.5-3.1,3.1-3.1c0.8,0,1.4,0.2,1.9,0.4L101.5,15.8z"/>
	<path class="st0" d="M106.6,19.8V19h0c-0.2,0.6-0.9,1-1.8,1c-1.3,0-2.1-0.7-2.1-2v-4.1h1.9v3.6c0,0.4,0.3,0.8,0.9,0.8
		c0.6,0,0.9-0.4,0.9-0.8v-3.6h1.9v5.9H106.6z"/>
	<path class="st0" d="M111.5,20.1c-1.2-0.1-2-0.7-2-2.1v-7.4h1.9v7.2c0,0.5,0.3,0.7,0.8,0.8L111.5,20.1z"/>
	<path class="st0" d="M117.1,20.1c-0.4-0.1-0.8-0.4-0.9-0.8c-0.3,0.5-0.8,0.7-1.5,0.7c-1,0-2-0.7-2-1.9c0-1.1,0.8-1.8,2-1.9l1.2-0.1
		v-0.2c0-0.4-0.3-0.6-0.9-0.6c-0.6,0-1.2,0.2-1.6,0.5l-0.3-1.4c0.5-0.3,1.3-0.5,2.1-0.5c1.6,0,2.7,0.7,2.7,2.1v1.9
		c0,0.7,0.3,1.1,0.7,1.2L117.1,20.1z M115.8,17.2l-0.7,0.1c-0.5,0-0.7,0.4-0.7,0.7c0,0.3,0.2,0.6,0.6,0.6c0.5,0,0.8-0.4,0.8-0.9
		V17.2z"/>
	<path class="st0" d="M122.8,15.5h-1.5v2.2c0,0.5,0.3,0.7,0.8,0.7c0.2,0,0.4,0,0.5-0.1l-0.2,1.4c-0.2,0.1-0.5,0.2-0.9,0.2
		c-1.3,0-2.1-0.7-2.1-1.9v-2.5h-1v-1.6h1v-1.3l1.9-0.7v2h1.9L122.8,15.5z"/>
	<path class="st0" d="M129,16.5l-0.8,0.9h-2.9c0.1,0.5,0.7,1,1.7,1c0.6,0,1.2-0.2,1.6-0.4l-0.2,1.6c-0.4,0.2-1.1,0.4-1.9,0.4
		c-1.8,0-3.2-1.2-3.2-3.2c0-1.9,1.4-3.1,3.1-3.1c1.6,0,2.6,1.1,2.6,2.4C129,16.2,129,16.4,129,16.5z M126.4,15.2c-0.6,0-1,0.4-1.1,1
		h2c0,0,0-0.1,0-0.1C127.2,15.6,126.9,15.2,126.4,15.2z"/>
	<path class="st0" d="M136.2,19.2c-0.9,2.4-1.8,3.2-2.9,3.7l-1.2-1.2c0.9-0.4,1.7-1.1,2.2-2.3l-2.1-5.5h1.8l0.9,2.3
		c0.1,0.3,0.3,0.7,0.4,1.2h0c0.1-0.4,0.2-0.8,0.4-1.2l0.9-2.3h1.8L136.2,19.2z"/>
	<path class="st0" d="M141.5,20c-1.8,0-3.2-1.3-3.2-3.1s1.4-3.1,3.2-3.1c1.8,0,3.2,1.3,3.2,3.1S143.3,20,141.5,20z M141.5,15.4
		c-0.7,0-1.3,0.6-1.3,1.5c0,0.9,0.6,1.5,1.3,1.5c0.7,0,1.3-0.6,1.3-1.5C142.8,16,142.2,15.4,141.5,15.4z"/>
	<path class="st0" d="M149.5,19.8V19h0c-0.2,0.6-0.9,1-1.8,1c-1.3,0-2.1-0.7-2.1-2v-4.1h1.9v3.6c0,0.4,0.3,0.8,0.9,0.8
		c0.6,0,0.9-0.4,0.9-0.8v-3.6h1.9v5.9H149.5z"/>
	<path class="st0" d="M156,16c-0.1-0.1-0.4-0.1-0.6-0.1c-0.6,0-1.2,0.3-1.2,1.3v2.7h-1.9v-5.9h1.9v1.3h0c0.2-0.9,0.9-1.4,1.7-1.4
		c0.2,0,0.4,0,0.5,0.1L156,16z"/>
	<path class="st0" d="M161.9,20.1c-1.2-0.1-2-0.7-2-2.1v-7.4h1.9v7.2c0,0.5,0.3,0.7,0.8,0.8L161.9,20.1z"/>
	<path class="st0" d="M164.2,13.1c-0.3,0-1-0.7-1-1c0-0.3,0.7-1,1-1c0.3,0,1,0.7,1,1C165.2,12.4,164.5,13.1,164.2,13.1z M163.2,19.8
		v-5.9h1.9v5.9H163.2z"/>
	<path class="st0" d="M170.4,12.3c-0.2-0.1-0.5-0.2-0.8-0.2c-0.7,0-1.1,0.4-1.1,1.3v0.6h1.7l-0.4,1.6h-1.3v4.3h-1.8v-4.3h-0.9v-1.6
		h0.9v-0.7c0-1.8,1.2-2.7,2.6-2.7c0.5,0,1.1,0.1,1.4,0.2L170.4,12.3z"/>
	<path class="st0" d="M176.1,16.5l-0.8,0.9h-2.9c0.1,0.5,0.7,1,1.7,1c0.6,0,1.2-0.2,1.6-0.4l-0.2,1.6c-0.4,0.2-1.1,0.4-1.9,0.4
		c-1.8,0-3.2-1.2-3.2-3.2c0-1.9,1.4-3.1,3.1-3.1c1.6,0,2.6,1.1,2.6,2.4C176.2,16.2,176.1,16.4,176.1,16.5z M173.5,15.2
		c-0.6,0-1,0.4-1.1,1h2c0,0,0-0.1,0-0.1C174.4,15.6,174,15.2,173.5,15.2z"/>
	<path class="st0" d="M181,15.5h-1.5v2.2c0,0.5,0.3,0.7,0.8,0.7c0.2,0,0.4,0,0.5-0.1l-0.2,1.4c-0.2,0.1-0.5,0.2-0.9,0.2
		c-1.3,0-2.1-0.7-2.1-1.9v-2.5h-1v-1.6h1v-1.3l1.9-0.7v2h1.9L181,15.5z"/>
	<path class="st0" d="M182.9,13.1c-0.3,0-1-0.7-1-1c0-0.3,0.7-1,1-1c0.3,0,1,0.7,1,1C183.9,12.4,183.3,13.1,182.9,13.1z M182,19.8
		v-5.9h1.9v5.9H182z"/>
	<path class="st0" d="M192.3,19.8v-3.6c0-0.4-0.2-0.8-0.8-0.8c-0.6,0-0.9,0.4-0.9,0.8v3.6h-1.9v-3.6c0-0.4-0.2-0.8-0.8-0.8
		c-0.6,0-0.9,0.4-0.9,0.8v3.6H185v-5.9h1.8v0.8h0c0.2-0.6,0.8-1,1.7-1c0.8,0,1.5,0.3,1.7,1c0.2-0.6,0.9-1,1.8-1c1.3,0,2.1,0.7,2.1,2
		v4.1H192.3z"/>
	<path class="st0" d="M200.7,16.5l-0.8,0.9H197c0.1,0.5,0.7,1,1.7,1c0.6,0,1.2-0.2,1.6-0.4l-0.2,1.6c-0.4,0.2-1.1,0.4-1.9,0.4
		c-1.8,0-3.2-1.2-3.2-3.2c0-1.9,1.4-3.1,3.1-3.1c1.6,0,2.6,1.1,2.6,2.4C200.8,16.2,200.8,16.4,200.7,16.5z M198.1,15.2
		c-0.6,0-1,0.4-1.1,1h2c0,0,0-0.1,0-0.1C199,15.6,198.6,15.2,198.1,15.2z"/>
	<path class="st0" d="M205.4,13.1c-0.3,0-1-0.7-1-1c0-0.3,0.7-1,1-1c0.3,0,1,0.7,1,1C206.4,12.4,205.7,13.1,205.4,13.1z M204.4,19.8
		v-5.9h1.9v5.9H204.4z"/>
	<path class="st0" d="M211.2,19.8v-3.6c0-0.4-0.3-0.8-0.9-0.8c-0.6,0-0.9,0.4-0.9,0.8v3.6h-1.9v-5.9h1.8v0.8h0c0.2-0.6,0.8-1,1.8-1
		c1.3,0,2.1,0.7,2.1,2v4.1H211.2z"/>
	<path class="st0" d="M218.7,15.8c-0.4-0.2-0.8-0.4-1.3-0.4c-0.8,0-1.5,0.6-1.5,1.5c0,0.8,0.7,1.5,1.5,1.5c0.5,0,0.9-0.1,1.3-0.3
		l-0.2,1.6c-0.4,0.2-0.9,0.3-1.4,0.3c-1.7,0-3.2-1.2-3.2-3.1c0-1.9,1.5-3.1,3.1-3.1c0.8,0,1.4,0.2,1.9,0.4L218.7,15.8z"/>
	<path class="st0" d="M222.8,20c-1.8,0-3.2-1.3-3.2-3.1s1.4-3.1,3.2-3.1c1.8,0,3.2,1.3,3.2,3.1S224.5,20,222.8,20z M222.8,15.4
		c-0.7,0-1.3,0.6-1.3,1.5c0,0.9,0.6,1.5,1.3,1.5c0.7,0,1.3-0.6,1.3-1.5C224.1,16,223.5,15.4,222.8,15.4z"/>
	<path class="st0" d="M234.1,19.8v-3.6c0-0.4-0.2-0.8-0.8-0.8c-0.6,0-0.9,0.4-0.9,0.8v3.6h-1.9v-3.6c0-0.4-0.2-0.8-0.8-0.8
		c-0.6,0-0.9,0.4-0.9,0.8v3.6h-1.9v-5.9h1.8v0.8h0c0.2-0.6,0.8-1,1.7-1c0.8,0,1.5,0.3,1.7,1c0.2-0.6,0.9-1,1.8-1
		c1.3,0,2.1,0.7,2.1,2v4.1H234.1z"/>
	<path class="st0" d="M242.5,16.5l-0.8,0.9h-2.9c0.1,0.5,0.7,1,1.7,1c0.6,0,1.2-0.2,1.6-0.4l-0.2,1.6c-0.4,0.2-1.1,0.4-1.9,0.4
		c-1.8,0-3.2-1.2-3.2-3.2c0-1.9,1.4-3.1,3.1-3.1c1.6,0,2.6,1.1,2.6,2.4C242.6,16.2,242.5,16.4,242.5,16.5z M239.9,15.2
		c-0.6,0-1,0.4-1.1,1h2c0,0,0-0.1,0-0.1C240.8,15.6,240.4,15.2,239.9,15.2z"/>
</g>
<g>
	<path class="st0" d="M126,27.1c-0.3,0-1-0.7-1-1c0-0.3,0.7-1,1-1s1,0.7,1,1C127.1,26.4,126.4,27.1,126,27.1z M125.1,33.8v-5.9h1.9
		v5.9H125.1z"/>
	<path class="st0" d="M131.9,33.8v-3.6c0-0.4-0.3-0.8-0.9-0.8c-0.6,0-0.9,0.4-0.9,0.8v3.6h-1.9v-5.9h1.8v0.8h0c0.2-0.6,0.8-1,1.8-1
		c1.3,0,2.1,0.7,2.1,2v4.1H131.9z"/>
	<path class="st0" d="M139.3,34c-0.5,0-1.1-0.1-1.6-0.3l-0.2-1.7c0.4,0.2,0.9,0.4,1.4,0.4c0.8,0,1.4-0.4,1.4-1.2
		c0-0.6-0.6-1.1-1.3-1.1c-0.1,0-0.1,0-0.2,0l-0.3-1.4c0.7-0.1,1.3-0.5,1.3-1c0-0.4-0.3-0.7-0.8-0.7c-0.5,0-0.8,0.1-1.2,0.3l-0.4-1.6
		c0.4-0.2,1.1-0.4,1.8-0.4c1.5,0,2.5,0.8,2.5,2c0,0.9-0.6,1.4-1.2,1.6c0.9,0.2,1.8,1,1.8,2.3C142.5,33,141.2,34,139.3,34z"/>
	<path class="st0" d="M146.3,34c-1.6,0-3-1.4-3-4.4c0-3,1.4-4.3,3-4.3c1.6,0,3,1.4,3,4.3C149.2,32.6,147.9,34,146.3,34z M146.3,27
		c-0.6,0-1.1,0.9-1.1,2.7c0,1.8,0.5,2.7,1.1,2.7s1.1-0.9,1.1-2.7C147.3,27.9,146.8,27,146.3,27z"/>
	<path class="st0" d="M154.8,34c-0.8,0-1.4-0.2-1.9-0.4l-0.2-1.7c0.5,0.4,1.2,0.6,1.8,0.6c0.4,0,0.6-0.2,0.6-0.4
		c0-0.2-0.2-0.4-0.5-0.5c-1.1-0.3-1.8-0.9-1.8-1.9c0-1.2,0.9-1.9,2.2-1.9c0.7,0,1.4,0.2,1.7,0.4l-0.3,1.4c-0.3-0.2-0.8-0.3-1.2-0.3
		c-0.3,0-0.5,0.1-0.5,0.4c0,0.2,0.2,0.3,0.5,0.4c1.3,0.4,1.9,1,1.9,2C157.1,33,156.4,34,154.8,34z"/>
	<path class="st0" d="M163.3,30.5l-0.8,0.9h-2.9c0.1,0.5,0.7,1,1.7,1c0.6,0,1.2-0.2,1.6-0.4l-0.2,1.6c-0.4,0.2-1.1,0.4-1.9,0.4
		c-1.8,0-3.2-1.2-3.2-3.2c0-1.9,1.4-3.1,3.1-3.1c1.6,0,2.6,1.1,2.6,2.4C163.4,30.2,163.3,30.4,163.3,30.5z M160.7,29.2
		c-0.6,0-1,0.4-1.1,1h2c0,0,0-0.1,0-0.1C161.6,29.6,161.2,29.2,160.7,29.2z"/>
	<path class="st0" d="M168.6,29.8c-0.4-0.2-0.8-0.4-1.3-0.4c-0.8,0-1.5,0.6-1.5,1.5c0,0.8,0.7,1.5,1.5,1.5c0.5,0,0.9-0.1,1.3-0.3
		l-0.2,1.6c-0.4,0.2-0.9,0.3-1.4,0.3c-1.7,0-3.2-1.2-3.2-3.1c0-1.9,1.5-3.1,3.1-3.1c0.8,0,1.4,0.2,1.9,0.4L168.6,29.8z"/>
	<path class="st0" d="M172.7,34c-1.8,0-3.2-1.3-3.2-3.1s1.4-3.1,3.2-3.1c1.8,0,3.2,1.3,3.2,3.1S174.4,34,172.7,34z M172.7,29.4
		c-0.7,0-1.3,0.6-1.3,1.5c0,0.9,0.6,1.5,1.3,1.5c0.7,0,1.3-0.6,1.3-1.5C174,30,173.4,29.4,172.7,29.4z"/>
	<path class="st0" d="M180.5,33.8v-3.6c0-0.4-0.3-0.8-0.9-0.8c-0.6,0-0.9,0.4-0.9,0.8v3.6h-1.9v-5.9h1.8v0.8h0c0.2-0.6,0.8-1,1.8-1
		c1.3,0,2.1,0.7,2.1,2v4.1H180.5z"/>
	<path class="st0" d="M187.9,33.8v-0.7h0c-0.3,0.6-1,0.9-1.8,0.9c-1.4,0-2.8-1.1-2.8-3.1c0-1.9,1.4-3.1,3-3.1c0.6,0,1.3,0.2,1.5,0.4
		v-3.6h1.9v9.3H187.9z M187.7,30c-0.2-0.2-0.6-0.5-1.2-0.5c-0.8,0-1.4,0.7-1.4,1.5s0.6,1.5,1.4,1.5c0.6,0,0.9-0.3,1.2-0.6V30z"/>
	<path class="st0" d="M192.6,34c-0.8,0-1.4-0.2-1.9-0.4l-0.2-1.7c0.5,0.4,1.2,0.6,1.8,0.6c0.4,0,0.6-0.2,0.6-0.4
		c0-0.2-0.2-0.4-0.5-0.5c-1.1-0.3-1.8-0.9-1.8-1.9c0-1.2,0.9-1.9,2.2-1.9c0.7,0,1.4,0.2,1.7,0.4l-0.3,1.4c-0.3-0.2-0.8-0.3-1.2-0.3
		c-0.3,0-0.5,0.1-0.5,0.4c0,0.2,0.2,0.3,0.5,0.4c1.3,0.4,1.9,1,1.9,2C195,33,194.2,34,192.6,34z"/>
	<path class="st0" d="M196.7,34c-0.4,0-1.1-0.7-1.1-1.1c0-0.3,0.7-1.1,1.1-1.1c0.4,0,1.1,0.7,1.1,1.1C197.8,33.3,197.1,34,196.7,34z
		"/>
</g>
</svg>
