<svg xmlns="http://www.w3.org/2000/svg" width="160" height="600" viewBox="0 0 160 600"><path fill="#231F20" d="M127.055 593.808c-.928 0-1.734-.647-1.734-1.847 0-1.359.999-2.814 2.366-3.519l.72.336c-.959.479-1.711 1.159-2.087 2.047.192-.191.448-.328.792-.328.975 0 1.639.729 1.639 1.647-.001.96-.721 1.664-1.696 1.664zm.007-2.639c-.399 0-.848.152-.991.712-.008.088-.008.176-.008.264 0 .576.479 1.056 1.007 1.056.528 0 .943-.408.943-1.016.001-.577-.39-1.016-.951-1.016zM131.207 593.815c-.928 0-1.743-.848-1.743-2.654 0-1.791.815-2.646 1.743-2.646.911 0 1.742.855 1.742 2.646 0 1.807-.831 2.654-1.742 2.654zm0-4.653c-.521 0-1.008.56-1.008 1.999 0 1.455.487 2.007 1.008 2.007.512 0 1.007-.552 1.007-2.007 0-1.439-.495-1.999-1.007-1.999zM134.927 593.808c-.392 0-.76-.088-.967-.2l-.08-.72c.319.192.655.28 1.007.28.592 0 1.096-.376 1.096-1.016 0-.655-.504-1.047-1.071-1.047-.376 0-.64.048-.88.136l.08-2.623h2.23l-.136.624h-1.399l-.031 1.239c.063-.008.144-.016.208-.016.951 0 1.734.64 1.734 1.694 0 .881-.615 1.649-1.791 1.649zM138.326 593.88l-.72-.336c.976-.488 1.735-1.151 2.104-2.047a1.11 1.11 0 0 1-.808.328c-.976 0-1.64-.729-1.64-1.647 0-.96.72-1.663 1.695-1.663.928 0 1.735.647 1.735 1.847.001 1.359-.999 2.814-2.366 3.518zm.616-4.71c-.528 0-.943.408-.943 1.016 0 .576.392 1.016.951 1.016.407 0 .848-.168.991-.728.008-.08.008-.16.008-.248 0-.576-.479-1.056-1.007-1.056zM143.103 593.808c-.927 0-1.734-.647-1.734-1.847 0-1.359.999-2.814 2.366-3.519l.72.336c-.959.479-1.711 1.159-2.087 2.047.192-.191.448-.328.792-.328.976 0 1.639.729 1.639 1.647-.001.96-.721 1.664-1.696 1.664zm.008-2.639c-.4 0-.848.152-.992.712-.008.088-.008.176-.008.264 0 .576.479 1.056 1.008 1.056.527 0 .943-.408.943-1.016 0-.577-.391-1.016-.951-1.016zM146.415 593.72h-.783l1.935-4.478h-2.343v-.624h3.382l-2.191 5.102zM151.55 593.808c-.247-.056-.52-.264-.575-.567-.168.424-.552.567-.968.567-.72 0-1.167-.527-1.167-1.111 0-.703.575-1.104 1.191-1.159l.848-.08v-.231c0-.328-.192-.592-.704-.592-.359 0-.735.111-.999.287l-.145-.6c.328-.216.744-.312 1.184-.312.808 0 1.392.456 1.392 1.312v1.463c0 .328.176.52.407.56l-.464.463zm-.671-1.751l-.696.063c-.464.04-.647.32-.647.584 0 .256.208.488.536.488a.797.797 0 0 0 .808-.816v-.319z"/></svg>