<svg id="Layer_1" xmlns="http://www.w3.org/2000/svg" viewBox="0 0 160 600"><style>.st0{fill:#231f20}</style><path class="st0" d="M24.1 42l-1.2-3.3h-4.6L17.1 42h-3.3l5.7-14.6h2.4L27.6 42h-3.5zm-3-8.7c-.1-.4-.3-.9-.4-1.3-.1.5-.3 1-.4 1.3l-1 2.7H22l-.9-2.7zM35.2 35.3c-.2-.1-.7-.2-1-.2-1.1 0-2 .6-2 2.2V42h-3.3V31.7h3.3V34c.3-1.6 1.5-2.5 2.9-2.5.3 0 .7 0 1 .1l-.9 3.7zM46.3 36.3l-1.5 1.5h-5c.2.8 1.3 1.8 3 1.8 1.1 0 2.2-.3 2.8-.8l-.3 2.9c-.8.4-1.9.7-3.3.7-3.1 0-5.6-2.2-5.6-5.5s2.4-5.4 5.4-5.4c2.9 0 4.6 2 4.6 4.1 0 .2 0 .5-.1.7zm-4.5-2.4c-1 0-1.8.7-2 1.7h3.5v-.2c0-.8-.6-1.5-1.5-1.5zM65.8 42v-6.3c0-.7-.4-1.4-1.5-1.4s-1.5.6-1.5 1.5V42h-3.3v-6.3c0-.7-.4-1.4-1.5-1.4s-1.5.6-1.5 1.5V42h-3.3V31.7h3.1v1.4c.4-1.1 1.4-1.7 3-1.7 1.5 0 2.6.6 3 1.7.4-1 1.6-1.7 3.2-1.7 2.3 0 3.6 1.3 3.6 3.4V42h-3.3zM78 42v-1.4c-.4 1.1-1.5 1.7-3.2 1.7-2.2 0-3.6-1.2-3.6-3.4v-7.1h3.3V38c0 .7.5 1.4 1.5 1.4s1.6-.7 1.6-1.5v-6.2H81V42h-3zM86.7 42.4c-2.1-.1-3.5-1.2-3.5-3.7V25.9h3.3v12.5c0 .8.5 1.3 1.4 1.4l-1.2 2.6zM95.9 34.5h-2.7v3.8c0 .9.5 1.2 1.4 1.2.4 0 .6 0 .9-.1l-.3 2.5c-.3.2-.9.3-1.5.3-2.3 0-3.7-1.2-3.7-3.3v-4.4h-1.7v-2.7H90v-2.2l3.3-1.2v3.4h3.3l-.7 2.7zM99.5 30.3c-.6 0-1.8-1.2-1.8-1.8s1.2-1.8 1.8-1.8 1.8 1.2 1.8 1.8-1.3 1.8-1.8 1.8zM97.8 42V31.7h3.4V42h-3.4zM109.2 42.3c-1.1 0-2.2-.3-2.6-.7v5.6h-3.2V31.7h2.9V33c.6-1 1.7-1.6 3.2-1.6 2.5 0 4.9 1.9 4.9 5.4 0 3.4-2.4 5.5-5.2 5.5zm-.6-7.9c-1 0-1.7.5-2 1.1v3.2c.3.4 1 .9 2 .9 1.5 0 2.5-1.1 2.5-2.6-.1-1.5-1.1-2.6-2.5-2.6zM119.6 42.4c-2.1-.1-3.5-1.2-3.5-3.7V25.9h3.3v12.5c0 .8.5 1.3 1.4 1.4l-1.2 2.6zM131.3 36.3l-1.5 1.5h-5c.2.8 1.3 1.8 3 1.8 1.1 0 2.2-.3 2.8-.8l-.3 2.9c-.8.4-2 .7-3.3.7-3.1 0-5.6-2.2-5.6-5.5s2.4-5.4 5.4-5.4c2.9 0 4.6 2 4.6 4.1 0 .2 0 .5-.1.7zm-4.5-2.4c-1 0-1.8.7-2 1.7h3.5v-.2c0-.8-.6-1.5-1.5-1.5z"/><g><path class="st0" d="M20.9 58c-.2-.1-.7-.2-1-.2-1.1 0-2 .6-2 2.2v4.8h-3.3V54.4h3.3v2.3c.3-1.6 1.5-2.5 2.9-2.5.3 0 .7 0 1 .1l-.9 3.7zM32.1 59l-1.5 1.5h-5c.2.8 1.3 1.8 3 1.8 1.1 0 2.2-.3 2.8-.8l-.3 2.9c-.8.4-1.9.7-3.3.7-3.1 0-5.6-2.2-5.6-5.5s2.4-5.4 5.4-5.4c2.9 0 4.6 2 4.6 4.1 0 .1-.1.5-.1.7zm-4.5-2.4c-1 0-1.8.7-2 1.7H29v-.2c.1-.8-.6-1.5-1.4-1.5zM40.8 57.1h-2.7V61c0 .9.5 1.2 1.4 1.2.4 0 .6 0 .9-.1l-.4 2.5c-.3.2-.9.3-1.5.3-2.3 0-3.7-1.2-3.7-3.3v-4.4h-1.7v-2.7h1.7v-2.2l3.3-1.2v3.4h3.3l-.6 2.6zM44.3 53c-.6 0-1.8-1.2-1.8-1.8 0-.6 1.2-1.8 1.8-1.8.6 0 1.8 1.2 1.8 1.8 0 .6-1.2 1.8-1.8 1.8zm-1.7 11.7V54.4H46v10.3h-3.4zM54.5 58c-.2-.1-.7-.2-1-.2-1.1 0-2 .6-2 2.2v4.8h-3.3V54.4h3.3v2.3c.3-1.6 1.5-2.5 2.9-2.5.3 0 .7 0 1 .1l-.9 3.7zM65.7 59l-1.5 1.5h-5c.2.8 1.3 1.8 3 1.8 1.1 0 2.2-.3 2.8-.8l-.3 2.9c-.8.4-1.9.7-3.3.7-3.1 0-5.6-2.2-5.6-5.5s2.4-5.4 5.4-5.4c2.9 0 4.6 2 4.6 4.1 0 .1-.1.5-.1.7zm-4.5-2.4c-1 0-1.8.7-2 1.7h3.5v-.2c-.1-.8-.7-1.5-1.5-1.5zM80.1 64.7v-6.3c0-.7-.4-1.4-1.5-1.4s-1.5.6-1.5 1.5v6.3h-3.3v-6.3c0-.7-.4-1.4-1.5-1.4s-1.5.6-1.5 1.5v6.3h-3.3V54.4h3.1v1.4c.4-1.1 1.4-1.7 3-1.7 1.5 0 2.6.6 3 1.7.4-1 1.6-1.7 3.2-1.7 2.3 0 3.6 1.3 3.6 3.4v7.1h-3.3zM94.9 59l-1.5 1.5h-5c.2.8 1.3 1.8 3 1.8 1.1 0 2.2-.3 2.8-.8l-.2 2.9c-.8.4-2 .7-3.3.7-3.1 0-5.6-2.2-5.6-5.5s2.4-5.4 5.4-5.4c2.9 0 4.6 2 4.6 4.1-.1.1-.1.5-.2.7zm-4.5-2.4c-1 0-1.8.7-2 1.7h3.5v-.2c0-.8-.6-1.5-1.5-1.5zM103.2 64.7v-6.3c0-.7-.5-1.4-1.5-1.4s-1.6.6-1.6 1.5v6.3h-3.3V54.4h3.1v1.4c.4-1.1 1.5-1.7 3.1-1.7 2.2 0 3.6 1.3 3.6 3.4v7.1h-3.4zM115.4 57.1h-2.7V61c0 .9.5 1.2 1.4 1.2.4 0 .6 0 .9-.1l-.3 2.5c-.3.2-.9.3-1.5.3-2.3 0-3.7-1.2-3.7-3.3v-4.4h-1.7v-2.7h1.7v-2.2l3.3-1.2v3.4h3.3l-.7 2.6z"/></g><g><path class="st0" d="M21.8 87.8c-.6-.1-1.3-.6-1.6-1.4-.5.8-1.4 1.2-2.7 1.2-1.8 0-3.4-1.3-3.4-3.4 0-1.9 1.5-3.2 3.5-3.4l2-.2v-.3c0-.6-.5-1-1.6-1-1 0-2.1.3-2.9.8l-.6-2.5c.8-.5 2.2-.9 3.6-.9 2.7 0 4.6 1.2 4.6 3.7v3.4c0 1.2.5 1.8 1.2 2.1l-2.1 1.9zm-2.1-4.9l-1.2.1c-.9.1-1.2.7-1.2 1.3 0 .5.4 1 1 1 .8 0 1.5-.6 1.5-1.5v-.9zM32.9 80.4c-.7-.4-1.4-.7-2.2-.7-1.5 0-2.6 1-2.6 2.5s1.2 2.5 2.7 2.5c.9 0 1.5-.2 2.2-.6l-.3 2.8c-.7.3-1.6.5-2.5.5-2.9 0-5.6-2-5.6-5.4 0-3.4 2.7-5.4 5.5-5.4 1.4 0 2.5.3 3.4.8l-.6 3zM42.8 80.4c-.7-.4-1.4-.7-2.2-.7-1.5 0-2.6 1-2.6 2.5s1.2 2.5 2.7 2.5c.9 0 1.5-.2 2.2-.6l-.3 2.8c-.7.3-1.6.5-2.5.5-2.9 0-5.6-2-5.6-5.4 0-3.4 2.7-5.4 5.5-5.4 1.4 0 2.5.3 3.4.8l-.6 3zM50 87.7c-3.1 0-5.6-2.2-5.6-5.5s2.5-5.5 5.6-5.5c3.1 0 5.6 2.2 5.6 5.5s-2.5 5.5-5.6 5.5zm0-8c-1.2 0-2.3 1.1-2.3 2.6s1.1 2.6 2.3 2.6c1.2 0 2.3-1.1 2.3-2.6s-1.1-2.6-2.3-2.6zM64 87.4V86c-.4 1.1-1.5 1.7-3.2 1.7-2.2 0-3.6-1.2-3.6-3.4v-7.1h3.3v6.3c0 .7.5 1.4 1.5 1.4s1.6-.7 1.6-1.5v-6.2H67v10.3h-3zM75.6 87.4v-6.3c0-.7-.5-1.4-1.5-1.4s-1.6.6-1.6 1.5v6.3h-3.3V77.1h3.1v1.4c.4-1.1 1.5-1.7 3.1-1.7 2.2 0 3.6 1.3 3.6 3.4v7.1h-3.4zM87.8 79.8h-2.7v3.8c0 .9.5 1.2 1.4 1.2.4 0 .6 0 .9-.1l-.3 2.5c-.3.2-.9.3-1.5.3-2.3 0-3.7-1.2-3.7-3.3v-4.4h-1.7v-2.7h1.7v-2.2l3.3-1.2v3.4h3.3l-.7 2.7zM92.8 87.6c-1.4 0-2.4-.3-3.3-.7l-.3-2.9c.9.6 2.1 1.1 3.2 1.1.6 0 1-.3 1-.7 0-.4-.3-.6-.9-.8-2-.6-3.2-1.6-3.2-3.4 0-2 1.6-3.3 3.9-3.3 1.3 0 2.5.3 3 .6l-.6 2.4c-.5-.3-1.3-.6-2.1-.6-.5 0-.9.2-.9.7 0 .4.3.6.9.7 2.3.6 3.3 1.8 3.3 3.5 0 1.8-1.2 3.4-4 3.4z"/></g><g><path class="st0" d="M22.4 103.1c-.7-.4-1.4-.7-2.2-.7-1.5 0-2.6 1-2.6 2.5s1.2 2.5 2.7 2.5c.9 0 1.5-.2 2.2-.6l-.3 2.8c-.7.3-1.6.5-2.5.5-2.9 0-5.6-2-5.6-5.4 0-3.4 2.7-5.4 5.5-5.4 1.4 0 2.5.3 3.4.8l-.6 3zM29.6 110.4c-3.1 0-5.6-2.2-5.6-5.5s2.5-5.5 5.6-5.5c3.1 0 5.6 2.2 5.6 5.5s-2.5 5.5-5.6 5.5zm0-8.1c-1.2 0-2.3 1.1-2.3 2.6s1.1 2.6 2.3 2.6c1.2 0 2.3-1.1 2.3-2.6.1-1.5-1-2.6-2.3-2.6zM40.1 110.3c-1.4 0-2.4-.3-3.3-.7l-.3-2.9c.9.6 2.1 1.1 3.2 1.1.6 0 1-.3 1-.7 0-.4-.3-.6-.9-.8-2-.6-3.2-1.6-3.2-3.4 0-2 1.6-3.3 3.9-3.3 1.3 0 2.5.3 3 .6l-.6 2.4c-.5-.3-1.3-.6-2.1-.6-.5 0-.9.2-.9.7 0 .4.3.6.9.7 2.3.6 3.3 1.8 3.3 3.5.1 1.8-1.2 3.4-4 3.4zM52.5 102.5h-2.7v3.8c0 .9.5 1.2 1.4 1.2.4 0 .6 0 .9-.1l-.3 2.5c-.3.2-.9.3-1.5.3-2.3 0-3.7-1.2-3.7-3.3v-4.4h-1.7v-2.7h1.7v-2.2l3.3-1.2v3.4h3.3l-.7 2.7zM56 98.4c-.6 0-1.8-1.2-1.8-1.8s1.2-1.8 1.8-1.8c.6 0 1.8 1.2 1.8 1.8s-1.2 1.8-1.8 1.8zm-1.6 11.7V99.8h3.4v10.3h-3.4zM66.4 110.1v-6.3c0-.7-.5-1.4-1.5-1.4s-1.6.6-1.6 1.5v6.3H60V99.8h3v1.4c.4-1.1 1.5-1.7 3.1-1.7 2.2 0 3.6 1.3 3.6 3.4v7.1h-3.3zM76.2 115.3c-3 0-5-1.7-5-3.9 0-1.6 1-2.5 2.1-2.8l-1.3-1.3c.1-.7.7-1.2 1.2-1.5-.8-.5-1.5-1.5-1.5-2.7 0-2.2 1.6-3.7 4.2-3.7.6 0 1.1.1 1.5.2.5.1 1 .2 1.5.2.6 0 1.2-.1 1.6-.3l.6 2.5c-.3.2-.8.3-1.3.3.1.2.2.7.2 1 0 1.7-1.4 3.2-3.4 3.3-.4 0-.7.1-.7.4 0 .1.1.2.3.3l1.8.7c2 .7 3.1 1.7 3.1 3.6 0 2.1-1.9 3.7-4.9 3.7zm.7-4.8l-1.2-.3c-.8 0-1.4.6-1.4 1.3 0 .7.6 1.3 1.8 1.3 1.2 0 1.8-.5 1.8-1.1 0-.6-.4-1.1-1-1.2zm-.9-8.6c-.7 0-1.3.6-1.3 1.2 0 .7.6 1.2 1.3 1.2.7 0 1.3-.5 1.3-1.2s-.5-1.2-1.3-1.2z"/></g><g><path class="st0" d="M27.2 132.7v-6.3c0-.7-.4-1.4-1.5-1.4s-1.5.6-1.5 1.5v6.3h-3.3v-6.3c0-.7-.4-1.4-1.5-1.4s-1.5.6-1.5 1.5v6.3h-3.3v-10.3h3.1v1.4c.4-1.1 1.4-1.7 3-1.7 1.5 0 2.6.6 3 1.7.4-1 1.6-1.7 3.2-1.7 2.3 0 3.6 1.3 3.6 3.4v7.1h-3.3zM37.8 133.1c-3.1 0-5.6-2.2-5.6-5.5s2.5-5.5 5.6-5.5c3.1 0 5.6 2.2 5.6 5.5s-2.5 5.5-5.6 5.5zm0-8.1c-1.2 0-2.3 1.1-2.3 2.6s1.1 2.6 2.3 2.6c1.2 0 2.3-1.1 2.3-2.6S39 125 37.8 125zM51.4 126c-.2-.1-.7-.2-1-.2-1.1 0-2 .6-2 2.2v4.8H45v-10.3h3.3v2.3c.3-1.6 1.5-2.5 2.9-2.5.3 0 .7 0 1 .1l-.8 3.6zM62.6 127l-1.5 1.5h-5c.2.8 1.3 1.8 3 1.8 1.1 0 2.2-.3 2.8-.8l-.3 2.9c-.8.4-1.9.7-3.3.7-3.1 0-5.6-2.2-5.6-5.5s2.4-5.4 5.4-5.4c2.9 0 4.6 2 4.6 4.1-.1.2-.1.5-.1.7zm-4.6-2.4c-1 0-1.8.7-2 1.7h3.5v-.2c0-.7-.6-1.5-1.5-1.5zM76.2 125.2h-2.7v3.8c0 .9.5 1.2 1.4 1.2.4 0 .6 0 .9-.1l-.3 2.5c-.3.2-.9.3-1.5.3-2.3 0-3.7-1.2-3.7-3.3v-4.4h-1.7v-2.7h1.7v-2.2l3.3-1.2v3.4h3.3l-.7 2.7zM84.6 132.7v-6.3c0-.7-.5-1.4-1.5-1.4s-1.6.6-1.6 1.5v6.3h-3.3v-16.1h3.3v6.8c.5-.8 1.5-1.3 2.9-1.3 2.3 0 3.6 1.3 3.6 3.4v7.1h-3.4zM97.2 133.2c-.6-.1-1.3-.6-1.6-1.4-.5.8-1.4 1.2-2.7 1.2-1.8 0-3.4-1.3-3.4-3.4 0-1.9 1.5-3.2 3.5-3.4l2-.2v-.3c0-.6-.5-1-1.6-1-1 0-2.1.3-2.9.8L90 123c.8-.5 2.2-.9 3.6-.9 2.7 0 4.6 1.2 4.6 3.7v3.4c0 1.2.5 1.8 1.2 2.1l-2.2 1.9zm-2.1-5l-1.2.1c-.9.1-1.2.7-1.2 1.3 0 .5.4 1 1 1 .8 0 1.5-.6 1.5-1.5v-.9zM107.2 132.7v-6.3c0-.7-.5-1.4-1.5-1.4s-1.6.6-1.6 1.5v6.3h-3.3v-10.3h3.1v1.4c.4-1.1 1.5-1.7 3.1-1.7 2.2 0 3.6 1.3 3.6 3.4v7.1h-3.4z"/></g><g><path class="st0" d="M20.9 154.4c-1.6 4.1-3.2 5.6-5.1 6.4l-2-2c1.7-.6 2.9-1.8 3.8-4l-3.7-9.6H17l1.5 4c.2.6.5 1.3.6 2 .2-.7.4-1.4.7-2l1.5-4h3.1l-3.5 9.2zM30.3 155.7c-3.1 0-5.6-2.2-5.6-5.5s2.5-5.5 5.6-5.5c3.1 0 5.6 2.2 5.6 5.5s-2.5 5.5-5.6 5.5zm0-8c-1.2 0-2.3 1.1-2.3 2.6s1.1 2.6 2.3 2.6c1.2 0 2.3-1.1 2.3-2.6s-1.1-2.6-2.3-2.6zM44.3 155.4V154c-.4 1.1-1.5 1.7-3.2 1.7-2.2 0-3.6-1.2-3.6-3.4v-7.1h3.3v6.3c0 .7.5 1.4 1.5 1.4s1.6-.7 1.6-1.5v-6.2h3.3v10.3h-2.9zM61.3 147.9h-2.7v3.8c0 .9.5 1.2 1.4 1.2.4 0 .6 0 .9-.1l-.3 2.5c-.3.2-.9.3-1.5.3-2.3 0-3.7-1.2-3.7-3.3v-4.4h-1.7v-2.7h1.7V143l3.3-1.2v3.4H62l-.7 2.7zM69.7 155.4v-6.3c0-.7-.5-1.4-1.5-1.4s-1.6.6-1.6 1.5v6.3h-3.3v-16.1h3.3v6.8c.5-.8 1.5-1.3 2.9-1.3 2.3 0 3.6 1.3 3.6 3.4v7.1h-3.4zM76.8 143.7c-.6 0-1.8-1.2-1.8-1.8 0-.6 1.2-1.8 1.8-1.8.6 0 1.8 1.2 1.8 1.8 0 .6-1.2 1.8-1.8 1.8zm-1.7 11.7v-10.3h3.4v10.3h-3.4zM87.2 155.4v-6.3c0-.7-.5-1.4-1.5-1.4s-1.6.6-1.6 1.5v6.3h-3.3v-10.3h3.1v1.4c.4-1.1 1.5-1.7 3.1-1.7 2.2 0 3.6 1.3 3.6 3.4v7.1h-3.4zM99 155.4l-3-4.1v4.1h-3.3v-16.1H96v10l3.1-4.2h3.6l-3.6 5 3.8 5.3H99zM108.9 148.3c-.6.6-.8 1.2-.8 1.8 0 .3 0 .7.1 1l-2.9-.6c-.1-.5-.2-.8-.2-1.2 0-1.2.5-2.2 1.3-3.1.6-.6.9-1 .9-1.7 0-.5-.5-1-1.2-1-.8 0-1.5.3-2.3.7l-.7-2.8c.8-.5 2-.9 3.2-.9 2.7 0 4.4 1.5 4.4 3.8.1 1.5-.5 2.5-1.8 4zm-2.1 7.4c-.6 0-1.9-1.3-1.9-1.9 0-.6 1.3-1.9 1.9-1.9s1.9 1.3 1.9 1.9c0 .7-1.2 1.9-1.9 1.9z"/></g></svg>