<svg id="Layer_1" xmlns="http://www.w3.org/2000/svg" viewBox="0 0 160 600"><style>.st0{fill:#231f20}</style><path class="st0" d="M14.4 42.2V27.8h3.5v14.5h-3.5zM26.9 42.2v-6.3c0-.7-.5-1.4-1.5-1.4s-1.6.6-1.6 1.5v6.3h-3.3V31.9h3.1v1.4c.4-1.1 1.5-1.7 3.1-1.7 2.2 0 3.6 1.3 3.6 3.4v7.1h-3.4zM46.8 36.5L45.3 38h-5c.2.8 1.3 1.8 3 1.8 1.1 0 2.2-.3 2.8-.8l-.3 2.9c-.8.4-1.9.7-3.3.7-3.1 0-5.6-2.2-5.6-5.5s2.4-5.4 5.4-5.4c2.9 0 4.6 2 4.6 4.1 0 .2 0 .5-.1.7zm-4.5-2.4c-1 0-1.8.7-2 1.7h3.5v-.2c0-.8-.6-1.5-1.5-1.5zM54 42.2l-1-1.9c-.2-.3-.3-.7-.5-1-.1.3-.3.7-.5 1l-1 1.9h-3.2l2.9-5.1-2.8-5.1h3.4l1 1.7c.2.3.3.5.4.9.1-.3.3-.6.5-.9l1-1.7h3.2l-2.8 4.9 2.9 5.3H54zM65.9 34.7h-2.7v3.8c0 .9.5 1.2 1.4 1.2.4 0 .6 0 .9-.1l-.3 2.5c-.3.2-.9.3-1.5.3-2.3 0-3.7-1.2-3.7-3.3v-4.4h-1.7V32H60v-2.2l3.3-1.2V32h3.3l-.7 2.7zM74.1 35.5c-.2-.1-.7-.2-1-.2-1.1 0-2 .6-2 2.2v4.8h-3.3V31.9H71v2.3c.3-1.6 1.5-2.5 2.9-2.5.3 0 .7 0 1 .1l-.8 3.7zM83.2 42.7c-.6-.1-1.3-.6-1.6-1.4-.5.8-1.4 1.2-2.7 1.2-1.8 0-3.4-1.3-3.4-3.4 0-1.9 1.5-3.2 3.5-3.4l2-.2v-.3c0-.6-.5-1-1.6-1-1 0-2.1.3-2.9.8l-.5-2.5c.8-.5 2.2-.9 3.6-.9 2.7 0 4.6 1.2 4.6 3.7v3.4c0 1.2.5 1.8 1.2 2.1l-2.2 1.9zm-2.1-5l-1.2.1c-.9.1-1.2.7-1.2 1.3 0 .5.4 1 1 1 .8 0 1.5-.6 1.5-1.5v-.9z"/><g><path class="st0" d="M21.3 65.3c-.6-.1-1.3-.6-1.6-1.4-.5.8-1.4 1.2-2.7 1.2-1.8 0-3.4-1.3-3.4-3.4 0-1.9 1.5-3.2 3.5-3.4l2-.2v-.3c0-.6-.5-1-1.6-1-1 0-2.1.3-2.9.8l-.6-2.5c.8-.5 2.2-.9 3.6-.9 2.7 0 4.6 1.2 4.6 3.7v3.4c0 1.2.5 1.8 1.2 2.1l-2.1 1.9zm-2.2-4.9l-1.2.1c-.9.1-1.2.7-1.2 1.3 0 .5.4 1 1 1 .8 0 1.5-.6 1.5-1.5v-.9zM32.3 64.9v-1.3c-.6 1-1.7 1.6-3.2 1.6-2.5 0-4.9-1.9-4.9-5.4 0-3.3 2.4-5.5 5.2-5.5 1.1 0 2.2.4 2.6.7v-6.3h3.2v16.1h-2.9zm-.3-6.7c-.3-.4-1-.9-2-.9-1.5 0-2.5 1.1-2.5 2.6s1 2.6 2.5 2.6c1 0 1.7-.5 2-1.1v-3.2zM50.1 64.9v-6.3c0-.7-.4-1.4-1.5-1.4s-1.5.6-1.5 1.5V65h-3.3v-6.3c0-.7-.4-1.4-1.5-1.4s-1.5.6-1.5 1.5v6.3h-3.3V54.6h3.1V56c.4-1.1 1.4-1.7 3-1.7 1.5 0 2.6.6 3 1.7.4-1 1.6-1.7 3.2-1.7 2.3 0 3.6 1.3 3.6 3.4v7.1h-3.3zM57.2 53.2c-.6 0-1.8-1.2-1.8-1.8s1.2-1.8 1.8-1.8c.6 0 1.8 1.2 1.8 1.8s-1.2 1.8-1.8 1.8zm-1.6 11.7V54.6H59v10.3h-3.4zM67.6 64.9v-6.3c0-.7-.5-1.4-1.5-1.4s-1.6.6-1.6 1.5V65h-3.3V54.6h3.1V56c.4-1.1 1.5-1.7 3.1-1.7 2.2 0 3.6 1.3 3.6 3.4v7.1h-3.4zM74.8 53.2c-.6 0-1.8-1.2-1.8-1.8s1.2-1.8 1.8-1.8c.6 0 1.8 1.2 1.8 1.8s-1.3 1.8-1.8 1.8zm-1.7 11.7V54.6h3.4v10.3h-3.4zM81.9 65.1c-1.4 0-2.4-.3-3.3-.7l-.3-2.9c.9.6 2.1 1.1 3.2 1.1.6 0 1-.3 1-.7 0-.4-.3-.6-.9-.8-2-.6-3.2-1.6-3.2-3.4 0-2 1.6-3.3 3.9-3.3 1.3 0 2.5.3 3 .6l-.6 2.4c-.5-.3-1.3-.6-2.1-.6-.5 0-.9.2-.9.7 0 .4.3.6.9.7 2.3.6 3.3 1.8 3.3 3.5 0 1.8-1.2 3.4-4 3.4zM94.3 57.3h-2.7v3.8c0 .9.5 1.2 1.4 1.2.4 0 .6 0 .9-.1l-.3 2.5c-.3.2-.9.3-1.5.3-2.3 0-3.7-1.2-3.7-3.3v-4.4h-1.7v-2.7h1.7v-2.2l3.3-1.2v3.4H95l-.7 2.7zM102.4 58.2c-.2-.1-.7-.2-1-.2-1.1 0-2 .6-2 2.2V65h-3.3V54.6h3.3v2.3c.3-1.6 1.5-2.5 2.9-2.5.3 0 .7 0 1 .1l-.9 3.7zM111.6 65.3c-.6-.1-1.3-.6-1.6-1.4-.5.8-1.4 1.2-2.7 1.2-1.8 0-3.4-1.3-3.4-3.4 0-1.9 1.5-3.2 3.5-3.4l2-.2v-.3c0-.6-.5-1-1.6-1-1 0-2.1.3-2.9.8l-.6-2.5c.8-.5 2.2-.9 3.6-.9 2.7 0 4.6 1.2 4.6 3.7v3.4c0 1.2.5 1.8 1.2 2.1l-2.1 1.9zm-2.1-4.9l-1.2.1c-.9.1-1.2.7-1.2 1.3 0 .5.4 1 1 1 .8 0 1.5-.6 1.5-1.5v-.9zM121.7 57.3H119v3.8c0 .9.5 1.2 1.4 1.2.4 0 .6 0 .9-.1l-.3 2.5c-.3.2-.9.3-1.5.3-2.3 0-3.7-1.2-3.7-3.3v-4.4H114v-2.7h1.7v-2.2l3.3-1.2v3.4h3.3l-.6 2.7zM125.2 53.2c-.6 0-1.8-1.2-1.8-1.8s1.2-1.8 1.8-1.8 1.8 1.2 1.8 1.8-1.2 1.8-1.8 1.8zm-1.7 11.7V54.6h3.4v10.3h-3.4zM134.6 65h-2.5l-3.9-10.4h3.2l1.5 3.9c.2.5.4 1.3.6 2 .2-.7.4-1.5.6-2l1.5-3.9h3.1L134.6 65zM148.7 59.2l-1.5 1.5h-5c.2.8 1.3 1.8 3 1.8 1.1 0 2.2-.3 2.8-.8l-.3 2.9c-.8.4-2 .7-3.3.7-3.1 0-5.6-2.2-5.6-5.5s2.4-5.4 5.4-5.4c2.9 0 4.6 2 4.6 4.1 0 .1-.1.5-.1.7zm-4.5-2.4c-1 0-1.8.7-2 1.7h3.5v-.2c0-.8-.6-1.5-1.5-1.5z"/></g><g><path class="st0" d="M21.2 74.4c-.4-.2-.9-.3-1.3-.3-1.2 0-1.9.7-1.9 2.2v1h2.9l-.6 2.7H18v7.6h-3.2V80h-1.6v-2.7h1.6v-1.2c0-3.1 2-4.7 4.6-4.7 1 0 1.9.1 2.4.3l-.6 2.7zM31.2 81.9l-1.5 1.5h-5c.2.8 1.3 1.8 3 1.8 1.1 0 2.2-.3 2.8-.8l-.3 2.9c-.8.4-1.9.7-3.3.7-3.1 0-5.6-2.2-5.6-5.5s2.4-5.4 5.4-5.4c2.9 0 4.6 2 4.6 4.1 0 .1 0 .5-.1.7zm-4.5-2.4c-1 0-1.8.7-2 1.7h3.5V81c0-.8-.6-1.5-1.5-1.5zM42.3 81.9l-1.5 1.5h-5c.2.8 1.3 1.8 3 1.8 1.1 0 2.2-.3 2.8-.8l-.3 2.9c-.8.4-1.9.7-3.3.7-3.1 0-5.6-2.2-5.6-5.5s2.4-5.4 5.4-5.4c2.9 0 4.6 2 4.6 4.1 0 .1-.1.5-.1.7zm-4.5-2.4c-1 0-1.8.7-2 1.7h3.5V81c0-.8-.6-1.5-1.5-1.5zM47.3 87.8c-1.4 0-2.4-.3-3.3-.7l-.3-2.9c.9.6 2.1 1.1 3.2 1.1.6 0 1-.3 1-.7 0-.4-.3-.6-.9-.8-2-.6-3.2-1.6-3.2-3.4 0-2 1.6-3.3 3.9-3.3 1.3 0 2.5.3 3 .6l-.6 2.4c-.5-.3-1.3-.6-2.1-.6-.5 0-.9.2-.9.7 0 .4.3.6.9.7 2.3.6 3.3 1.8 3.3 3.5 0 1.8-1.2 3.4-4 3.4zM54.6 87.9c-.6 0-1.9-1.3-1.9-1.9 0-.6 1.3-1.9 1.9-1.9.6 0 1.9 1.3 1.9 1.9 0 .6-1.3 1.9-1.9 1.9z"/></g></svg>