<svg id="Layer_1" xmlns="http://www.w3.org/2000/svg" viewBox="0 0 160 600"><style>.st0{fill:#231f20}</style><path class="st0" d="M24.3 42.2v-5.7h-5.6v5.7h-3.5V27.8h3.5v5.7h5.6v-5.7h3.5v14.5h-3.5zM37.4 42.7c-.6-.1-1.3-.6-1.6-1.4-.5.8-1.4 1.2-2.7 1.2-1.8 0-3.4-1.3-3.4-3.4 0-1.9 1.5-3.2 3.5-3.4l2-.2v-.3c0-.6-.5-1-1.6-1-1 0-2.1.3-2.9.8l-.6-2.5c.8-.5 2.2-.9 3.6-.9 2.7 0 4.6 1.2 4.6 3.7v3.4c0 1.2.5 1.8 1.2 2.1l-2.1 1.9zm-2.1-5l-1.2.1c-.9.1-1.2.7-1.2 1.3 0 .5.4 1 1 1 .8 0 1.5-.6 1.5-1.5v-.9zM46 42.3h-2.5l-3.9-10.4h3.2l1.5 3.9c.2.5.4 1.3.6 2 .2-.7.4-1.5.6-2l1.5-3.9h3.1L46 42.3zM52.8 30.5c-.6 0-1.8-1.2-1.8-1.8s1.2-1.8 1.8-1.8c.6 0 1.8 1.2 1.8 1.8s-1.2 1.8-1.8 1.8zm-1.6 11.7V31.9h3.4v10.3h-3.4zM63.2 42.2v-6.3c0-.7-.5-1.4-1.5-1.4s-1.6.6-1.6 1.5v6.3h-3.3V31.9h3.1v1.4c.4-1.1 1.5-1.7 3.1-1.7 2.2 0 3.6 1.3 3.6 3.4v7.1h-3.4zM73 47.5c-3 0-5-1.7-5-3.9 0-1.6 1-2.5 2.1-2.8l-1.3-1.3c.1-.7.7-1.2 1.2-1.5-.8-.5-1.5-1.5-1.5-2.7 0-2.2 1.6-3.7 4.2-3.7.6 0 1.1.1 1.5.2.5.1 1 .2 1.5.2.6 0 1.2-.1 1.6-.3l.6 2.5c-.3.2-.8.3-1.3.3.1.2.2.7.2 1 0 1.7-1.4 3.2-3.4 3.3-.4 0-.7.1-.7.4 0 .1.1.2.3.3l1.6.6c2 .7 3.1 1.7 3.1 3.6.2 2.2-1.7 3.8-4.7 3.8zm.7-4.9l-1.2-.3c-.8 0-1.4.6-1.4 1.3 0 .7.6 1.3 1.8 1.3 1.2 0 1.8-.5 1.8-1.1 0-.5-.4-1-1-1.2zm-.9-8.6c-.7 0-1.3.6-1.3 1.2 0 .7.6 1.2 1.3 1.2.7 0 1.3-.5 1.3-1.2 0-.6-.6-1.2-1.3-1.2z"/><g><path class="st0" d="M21.9 57.3h-2.7v3.8c0 .9.5 1.2 1.4 1.2.4 0 .6 0 .9-.1l-.3 2.5c-.3.2-.9.3-1.5.3-2.3 0-3.7-1.2-3.7-3.3v-4.4h-1.7v-2.7H16v-2.2l3.3-1.2v3.4h3.3l-.7 2.7zM28.6 65.2c-3.1 0-5.6-2.2-5.6-5.5s2.5-5.5 5.6-5.5c3.1 0 5.6 2.2 5.6 5.5s-2.5 5.5-5.6 5.5zm0-8c-1.2 0-2.3 1.1-2.3 2.6s1.1 2.6 2.3 2.6c1.2 0 2.3-1.1 2.3-2.6s-1-2.6-2.3-2.6zM41 65.2c-3.1 0-5.6-2.2-5.6-5.5s2.5-5.5 5.6-5.5c3.1 0 5.6 2.2 5.6 5.5s-2.5 5.5-5.6 5.5zm0-8c-1.2 0-2.3 1.1-2.3 2.6s1.1 2.6 2.3 2.6c1.2 0 2.3-1.1 2.3-2.6s-1.1-2.6-2.3-2.6zM66 64.9v-6.3c0-.7-.4-1.4-1.5-1.4s-1.5.6-1.5 1.5V65h-3.3v-6.3c0-.7-.4-1.4-1.5-1.4s-1.5.6-1.5 1.5v6.3h-3.3V54.6h3.1V56c.4-1.1 1.4-1.7 3-1.7 1.5 0 2.6.6 3 1.7.4-1 1.6-1.7 3.2-1.7 2.3 0 3.6 1.3 3.6 3.4v7.1H66zM78.7 65.3c-.6-.1-1.3-.6-1.6-1.4-.5.8-1.4 1.2-2.7 1.2-1.8 0-3.4-1.3-3.4-3.4 0-1.9 1.5-3.2 3.5-3.4l2-.2v-.3c0-.6-.5-1-1.6-1-1 0-2.1.3-2.9.8l-.6-2.5c.8-.5 2.2-.9 3.6-.9 2.7 0 4.6 1.2 4.6 3.7v3.4c0 1.2.5 1.8 1.2 2.1l-2.1 1.9zm-2.1-4.9l-1.2.1c-.9.1-1.2.7-1.2 1.3 0 .5.4 1 1 1 .8 0 1.5-.6 1.5-1.5v-.9zM88.7 64.9v-6.3c0-.7-.5-1.4-1.5-1.4s-1.6.6-1.6 1.5V65h-3.3V54.6h3.1V56c.4-1.1 1.5-1.7 3.1-1.7 2.2 0 3.6 1.3 3.6 3.4v7.1h-3.4zM99.9 63.9c-1.6 4.1-3.2 5.6-5.1 6.4l-2-2c1.7-.6 2.9-1.8 3.8-4l-3.7-9.6h3.2l1.5 4c.2.6.5 1.3.6 2 .2-.7.4-1.4.7-2l1.5-4h3.1l-3.6 9.2z"/></g><g><path class="st0" d="M21.4 80.8c-.2-.1-.7-.2-1-.2-1.1 0-2 .6-2 2.2v4.8H15V77.3h3.3v2.3c.3-1.6 1.5-2.5 2.9-2.5.3 0 .7 0 1 .1l-.8 3.6zM32.5 81.9L31 83.4h-5c.2.8 1.3 1.8 3 1.8 1.1 0 2.2-.3 2.8-.8l-.3 2.9c-.8.4-1.9.7-3.3.7-3.1 0-5.6-2.2-5.6-5.5s2.4-5.4 5.4-5.4c2.9 0 4.6 2 4.6 4.1 0 .1-.1.5-.1.7zM28 79.5c-1 0-1.8.7-2 1.7h3.5V81c0-.8-.6-1.5-1.5-1.5zM41.2 80h-2.7v3.8c0 .9.5 1.2 1.4 1.2.4 0 .6 0 .9-.1l-.3 2.5c-.3.2-.9.3-1.5.3-2.3 0-3.7-1.2-3.7-3.3V80h-1.7v-2.7h1.7v-2.2l3.3-1.2v3.4h3.3l-.7 2.7zM44.7 75.9c-.6 0-1.8-1.2-1.8-1.8 0-.6 1.2-1.8 1.8-1.8.6 0 1.8 1.2 1.8 1.8 0 .6-1.2 1.8-1.8 1.8zm-1.6 11.7V77.3h3.4v10.3h-3.4zM55 80.8c-.2-.1-.7-.2-1-.2-1.1 0-2 .6-2 2.2v4.8h-3.3V77.3H52v2.3c.3-1.6 1.5-2.5 2.9-2.5.3 0 .7 0 1 .1l-.9 3.6zM66.1 81.9l-1.5 1.5h-5c.2.8 1.3 1.8 3 1.8 1.1 0 2.2-.3 2.8-.8l-.3 2.9c-.8.4-1.9.7-3.3.7-3.1 0-5.6-2.2-5.6-5.5s2.4-5.4 5.4-5.4c2.9 0 4.6 2 4.6 4.1 0 .1-.1.5-.1.7zm-4.5-2.4c-1 0-1.8.7-2 1.7h3.5V81c0-.8-.6-1.5-1.5-1.5zM80.5 87.6v-6.3c0-.7-.4-1.4-1.5-1.4s-1.5.6-1.5 1.5v6.3h-3.3v-6.3c0-.7-.4-1.4-1.5-1.4s-1.5.6-1.5 1.5v6.3h-3.3V77.3H71v1.4c.4-1.1 1.4-1.7 3-1.7 1.5 0 2.6.6 3 1.7.4-1 1.6-1.7 3.2-1.7 2.3 0 3.6 1.3 3.6 3.4v7.1h-3.3zM95.3 81.9l-1.5 1.5h-5c.2.8 1.3 1.8 3 1.8 1.1 0 2.2-.3 2.8-.8l-.3 2.9c-.8.4-2 .7-3.3.7-3.1 0-5.6-2.2-5.6-5.5s2.4-5.4 5.4-5.4c2.9 0 4.6 2 4.6 4.1 0 .1 0 .5-.1.7zm-4.5-2.4c-1 0-1.8.7-2 1.7h3.5V81c0-.8-.6-1.5-1.5-1.5zM103.6 87.6v-6.3c0-.7-.5-1.4-1.5-1.4s-1.6.6-1.6 1.5v6.3h-3.3V77.3h3.1v1.4c.4-1.1 1.5-1.7 3.1-1.7 2.2 0 3.6 1.3 3.6 3.4v7.1h-3.4zM115.8 80h-2.7v3.8c0 .9.5 1.2 1.4 1.2.4 0 .6 0 .9-.1l-.3 2.5c-.3.2-.9.3-1.5.3-2.3 0-3.7-1.2-3.7-3.3V80h-1.7v-2.7h1.7v-2.2l3.3-1.2v3.4h3.3l-.7 2.7z"/></g><g><path class="st0" d="M22.3 110.7c-.6-.1-1.3-.6-1.6-1.4-.5.8-1.4 1.2-2.7 1.2-1.8 0-3.4-1.3-3.4-3.4 0-1.9 1.5-3.2 3.5-3.4l2-.2v-.3c0-.6-.5-1-1.6-1-1 0-2.1.3-2.9.8l-.6-2.5c.8-.5 2.2-.9 3.6-.9 2.7 0 4.6 1.2 4.6 3.7v3.4c0 1.2.5 1.8 1.2 2.1l-2.1 1.9zm-2.2-4.9l-1.2.1c-.9.1-1.2.7-1.2 1.3 0 .5.4 1 1 1 .8 0 1.5-.6 1.5-1.5v-.9zM33.3 103.3c-.7-.4-1.4-.7-2.2-.7-1.5 0-2.6 1-2.6 2.5s1.2 2.5 2.7 2.5c.9 0 1.5-.2 2.2-.6l-.3 2.8c-.7.3-1.6.5-2.5.5-2.9 0-5.6-2-5.6-5.4 0-3.4 2.7-5.4 5.5-5.4 1.4 0 2.5.3 3.4.8l-.6 3zM43.2 103.3c-.7-.4-1.4-.7-2.2-.7-1.5 0-2.6 1-2.6 2.5s1.2 2.5 2.7 2.5c.9 0 1.5-.2 2.2-.6l-.3 3c-.7.3-1.6.5-2.5.5-2.9 0-5.6-2-5.6-5.4 0-3.4 2.7-5.4 5.5-5.4 1.4 0 2.5.3 3.4.8l-.6 2.8zM50.4 110.6c-3.1 0-5.6-2.2-5.6-5.5s2.5-5.5 5.6-5.5c3.1 0 5.6 2.2 5.6 5.5s-2.5 5.5-5.6 5.5zm0-8.1c-1.2 0-2.3 1.1-2.3 2.6s1.1 2.6 2.3 2.6c1.2 0 2.3-1.1 2.3-2.6s-1.1-2.6-2.3-2.6zM64.4 110.3v-1.4c-.4 1.1-1.5 1.7-3.2 1.7-2.2 0-3.6-1.2-3.6-3.4V100H61v6.3c0 .7.5 1.4 1.5 1.4s1.6-.7 1.6-1.5V100h3.3v10.3h-3zM76.1 110.3V104c0-.7-.5-1.4-1.5-1.4s-1.6.6-1.6 1.5v6.3h-3.3V100h3.1v1.4c.4-1.1 1.5-1.7 3.1-1.7 2.2 0 3.6 1.3 3.6 3.4v7.1h-3.4zM88.3 102.7h-2.7v3.8c0 .9.5 1.2 1.4 1.2.4 0 .6 0 .9-.1l-.3 2.5c-.3.2-.9.3-1.5.3-2.3 0-3.7-1.2-3.7-3.3v-4.4h-1.7V100h1.7v-2.2l3.3-1.2v3.4H89l-.7 2.7zM93.2 110.5c-1.4 0-2.4-.3-3.3-.7l-.3-2.9c.9.6 2.1 1.1 3.2 1.1.6 0 1-.3 1-.7 0-.4-.3-.6-.9-.8-2-.6-3.2-1.6-3.2-3.4 0-2 1.6-3.3 3.9-3.3 1.3 0 2.5.3 3 .6l-.6 2.4c-.5-.3-1.3-.6-2.1-.6-.5 0-.9.2-.9.7 0 .4.3.6.9.7 2.3.6 3.3 1.8 3.3 3.5.1 1.8-1.2 3.4-4 3.4zM111.9 103.3c-.7-.4-1.4-.7-2.2-.7-1.5 0-2.6 1-2.6 2.5s1.2 2.5 2.7 2.5c.9 0 1.5-.2 2.2-.6l-.3 2.8c-.7.3-1.6.5-2.5.5-2.9 0-5.6-2-5.6-5.4 0-3.4 2.7-5.4 5.5-5.4 1.4 0 2.5.3 3.4.8l-.6 3zM121.2 110.7c-.6-.1-1.3-.6-1.6-1.4-.5.8-1.4 1.2-2.7 1.2-1.8 0-3.4-1.3-3.4-3.4 0-1.9 1.5-3.2 3.5-3.4l2-.2v-.3c0-.6-.5-1-1.6-1-1 0-2.1.3-2.9.8l-.6-2.5c.8-.5 2.2-.9 3.6-.9 2.7 0 4.6 1.2 4.6 3.7v3.4c0 1.2.5 1.8 1.2 2.1l-2.1 1.9zm-2.1-4.9l-1.2.1c-.9.1-1.2.7-1.2 1.3 0 .5.4 1 1 1 .8 0 1.5-.6 1.5-1.5v-.9zM131.2 110.3V104c0-.7-.5-1.4-1.5-1.4s-1.6.6-1.6 1.5v6.3h-3.3V100h3.1v1.4c.4-1.1 1.5-1.7 3.1-1.7 2.2 0 3.6 1.3 3.6 3.4v7.1h-3.4z"/></g><g><path class="st0" d="M20 133.2c-2.2 0-3.9-.7-4.9-1.5v-14.9h3.2v6.2c.4-.3 1.5-.7 2.6-.7 2.8 0 5.2 2 5.2 5.3 0 3.2-2.1 5.6-6.1 5.6zm.3-7.9c-1 0-1.7.5-2 .8v3.9c.3.2 1 .5 1.7.5 1.7 0 2.8-1.2 2.8-2.7 0-1.4-1-2.5-2.5-2.5zM37.1 127.2l-1.5 1.5h-5c.2.8 1.3 1.8 3 1.8 1.1 0 2.2-.3 2.8-.8l-.3 2.9c-.8.4-1.9.7-3.3.7-3.1 0-5.6-2.2-5.6-5.5s2.4-5.4 5.4-5.4c2.9 0 4.6 2 4.6 4.1 0 .2 0 .5-.1.7zm-4.5-2.4c-1 0-1.8.7-2 1.7h3.5v-.2c0-.7-.6-1.5-1.5-1.5zM51.8 126c-.7-.4-1.4-.7-2.2-.7-1.5 0-2.6 1-2.6 2.5s1.2 2.5 2.7 2.5c.9 0 1.5-.2 2.2-.6l-.3 2.8c-.7.3-1.6.5-2.5.5-2.9 0-5.6-2-5.6-5.4 0-3.4 2.7-5.4 5.5-5.4 1.4 0 2.5.3 3.4.8l-.6 3zM59 133.3c-3.1 0-5.6-2.2-5.6-5.5s2.5-5.5 5.6-5.5c3.1 0 5.6 2.2 5.6 5.5s-2.5 5.5-5.6 5.5zm0-8.1c-1.2 0-2.3 1.1-2.3 2.6s1.1 2.6 2.3 2.6c1.2 0 2.3-1.1 2.3-2.6s-1.1-2.6-2.3-2.6zM69.5 133.2c-1.4 0-2.4-.3-3.3-.7l-.3-2.9c.9.6 2.1 1.1 3.2 1.1.6 0 1-.3 1-.7 0-.4-.3-.6-.9-.8-2-.6-3.2-1.6-3.2-3.4 0-2 1.6-3.3 3.9-3.3 1.3 0 2.5.3 3 .6l-.6 2.4c-.5-.3-1.3-.6-2.1-.6-.5 0-.9.2-.9.7 0 .4.3.6.9.7 2.3.6 3.3 1.8 3.3 3.5 0 1.8-1.3 3.4-4 3.4zM81.9 125.4h-2.7v3.8c0 .9.5 1.2 1.4 1.2.4 0 .6 0 .9-.1l-.3 2.5c-.3.2-.9.3-1.5.3-2.3 0-3.7-1.2-3.7-3.3v-4.4h-1.7v-2.7H76v-2.2l3.3-1.2v3.4h3.3l-.7 2.7zM87.2 133.3c-2.1-.1-3.5-1.2-3.5-3.7v-12.9H87v12.5c0 .8.5 1.3 1.4 1.4l-1.2 2.7zM95.6 131.9c-1.6 4.1-3.2 5.6-5.1 6.4l-2-2c1.7-.6 2.9-1.8 3.8-4l-3.7-9.6h3.2l1.5 4c.2.6.5 1.3.6 2 .2-.7.4-1.4.7-2l1.5-4H99l-3.4 9.2zM100.7 133.3c-.6 0-1.9-1.3-1.9-1.9 0-.6 1.3-1.9 1.9-1.9s1.9 1.3 1.9 1.9c0 .6-1.3 1.9-1.9 1.9z"/></g></svg>