<svg id="Layer_1" xmlns="http://www.w3.org/2000/svg" viewBox="0 0 160 600"><style>.st0{fill:#231f20}</style><path class="st0" d="M23.6 43.6l-1.2-3.3h-4.6l-1.2 3.3h-3.3L19 29h2.4l5.7 14.6h-3.5zm-3-8.7c-.1-.4-.3-.9-.4-1.3-.1.5-.3 1-.4 1.3l-1 2.7h2.8l-1-2.7zM34.8 43.6v-6.3c0-.7-.5-1.4-1.5-1.4s-1.6.6-1.6 1.5v6.3h-3.3V33.3h3.1v1.4c.4-1.1 1.5-1.7 3.1-1.7 2.2 0 3.6 1.3 3.6 3.4v7.1h-3.4zM48 43.6v-1.3c-.6 1-1.7 1.6-3.2 1.6-2.5 0-4.9-1.9-4.9-5.4 0-3.3 2.4-5.5 5.2-5.5 1.1 0 2.2.4 2.6.7v-6.3h3.2v16.1H48zm-.3-6.7c-.3-.4-1-.9-2-.9-1.5 0-2.5 1.1-2.5 2.6s1 2.6 2.5 2.6c1 0 1.7-.5 2-1.1v-3.2zM63.1 43.9c-2.2 0-3.9-.7-4.9-1.5V27.5h3.2v6.2c.4-.3 1.5-.7 2.6-.7 2.8 0 5.2 2 5.2 5.3 0 3.1-2.1 5.6-6.1 5.6zm.3-8c-1 0-1.7.5-2 .8v3.9c.3.2 1 .5 1.7.5 1.7 0 2.8-1.2 2.8-2.7 0-1.3-1-2.5-2.5-2.5zM76.6 42.6c-1.6 4.1-3.2 5.6-5.1 6.4l-2-2c1.7-.6 2.9-1.8 3.8-4l-3.7-9.6h3.2l1.5 4c.2.6.5 1.3.6 2 .2-.7.4-1.4.7-2l1.5-4h3.1l-3.6 9.2z"/><g><path class="st0" d="M19.9 65.6c-1.1 0-2.2-.3-2.6-.7v5.6h-3.2V55H17v1.3c.6-1 1.7-1.6 3.2-1.6 2.5 0 4.9 1.9 4.9 5.4.1 3.3-2.3 5.5-5.2 5.5zm-.5-8c-1 0-1.7.5-2 1.1v3.2c.3.4 1 .9 2 .9 1.5 0 2.5-1.1 2.5-2.6-.1-1.5-1.1-2.6-2.5-2.6zM32 65.6c-3.1 0-5.6-2.2-5.6-5.5s2.5-5.5 5.6-5.5c3.1 0 5.6 2.2 5.6 5.5s-2.5 5.5-5.6 5.5zm0-8c-1.2 0-2.3 1.1-2.3 2.6s1.1 2.6 2.3 2.6c1.2 0 2.3-1.1 2.3-2.6s-1.1-2.6-2.3-2.6zM46.1 57.7h-2.7v3.8c0 .9.5 1.2 1.4 1.2.4 0 .6 0 .9-.1l-.3 2.5c-.3.2-.9.3-1.5.3-2.3 0-3.7-1.2-3.7-3.3v-4.4h-1.7V55h1.7v-2.2l3.3-1.2V55h3.3l-.7 2.7zM57.1 59.6l-1.5 1.5h-5c.2.8 1.3 1.8 3 1.8 1.1 0 2.2-.3 2.8-.8l-.3 2.9c-.8.4-1.9.7-3.3.7-3.1 0-5.6-2.2-5.6-5.5s2.4-5.4 5.4-5.4c2.9 0 4.6 2 4.6 4.1-.1.1-.1.5-.1.7zm-4.6-2.4c-1 0-1.8.7-2 1.7H54v-.2c0-.8-.6-1.5-1.5-1.5zM65.3 65.3V59c0-.7-.5-1.4-1.5-1.4s-1.6.6-1.6 1.5v6.3h-3.3V55H62v1.4c.4-1.1 1.5-1.7 3.1-1.7 2.2 0 3.6 1.3 3.6 3.4v7.1h-3.4zM77.5 57.7h-2.7v3.8c0 .9.5 1.2 1.4 1.2.4 0 .6 0 .9-.1l-.3 2.5c-.3.2-.9.3-1.5.3-2.3 0-3.7-1.2-3.7-3.3v-4.4h-1.7V55h1.7v-2.2l3.3-1.2V55h3.3l-.7 2.7zM81 53.6c-.6 0-1.8-1.2-1.8-1.8S80.4 50 81 50c.6 0 1.8 1.2 1.8 1.8s-1.2 1.8-1.8 1.8zm-1.7 11.7V55h3.4v10.3h-3.4zM92.1 65.7c-.6-.1-1.3-.6-1.6-1.4-.5.8-1.4 1.2-2.7 1.2-1.8 0-3.4-1.3-3.4-3.4 0-1.9 1.5-3.2 3.5-3.4l2-.2v-.3c0-.6-.5-1-1.6-1-1 0-2.1.3-2.9.8l-.6-2.5c.8-.5 2.2-.9 3.6-.9 2.7 0 4.6 1.2 4.6 3.7v3.4c0 1.2.5 1.8 1.2 2.1l-2.1 1.9zm-2.2-4.9l-1.2.1c-.9.1-1.2.7-1.2 1.3 0 .5.4 1 1 1 .8 0 1.5-.6 1.5-1.5v-.9zM99 65.7c-2.1-.1-3.5-1.2-3.5-3.7V49.1h3.3v12.5c0 .8.5 1.3 1.4 1.4L99 65.7zM105 65.7c-2.1-.1-3.5-1.2-3.5-3.7V49.1h3.3v12.5c0 .8.5 1.3 1.4 1.4l-1.2 2.7zM113.3 64.3c-1.6 4.1-3.2 5.6-5.1 6.4l-2-2c1.7-.6 2.9-1.8 3.8-4l-3.7-9.6h3.2l1.5 4c.2.6.5 1.3.6 2 .2-.7.4-1.4.7-2l1.5-4h3.1l-3.6 9.2z"/></g><g><path class="st0" d="M17.7 89.4c-2.1-.1-3.5-1.2-3.5-3.7V72.8h3.3v12.5c0 .8.5 1.3 1.4 1.4l-1.2 2.7zM21.9 77.3c-.6 0-1.8-1.2-1.8-1.8 0-.6 1.2-1.8 1.8-1.8.6 0 1.8 1.2 1.8 1.8 0 .6-1.2 1.8-1.8 1.8zM20.2 89V78.7h3.4V89h-3.4zM38.4 89v-6.3c0-.7-.4-1.4-1.5-1.4s-1.5.6-1.5 1.5V89h-3.3v-6.3c0-.7-.4-1.4-1.5-1.4s-1.5.6-1.5 1.5V89h-3.3V78.7h3.1v1.4c.4-1.1 1.4-1.7 3-1.7 1.5 0 2.6.6 3 1.7.4-1 1.6-1.7 3.2-1.7 2.3 0 3.6 1.3 3.6 3.4V89h-3.3zM45.6 77.3c-.6 0-1.8-1.2-1.8-1.8 0-.6 1.2-1.8 1.8-1.8.6 0 1.8 1.2 1.8 1.8 0 .6-1.2 1.8-1.8 1.8zM43.9 89V78.7h3.4V89h-3.4zM56.3 81.4h-2.7v3.8c0 .9.5 1.2 1.4 1.2.4 0 .6 0 .9-.1l-.3 2.5c-.3.2-.9.3-1.5.3-2.3 0-3.7-1.2-3.7-3.3v-4.4h-1.7v-2.7h1.7v-2.2l3.3-1.2v3.4H57l-.7 2.7zM59.8 77.3c-.6 0-1.8-1.2-1.8-1.8 0-.6 1.2-1.8 1.8-1.8.6 0 1.8 1.2 1.8 1.8 0 .6-1.2 1.8-1.8 1.8zM58.2 89V78.7h3.4V89h-3.4zM70.2 89v-6.3c0-.7-.5-1.4-1.5-1.4s-1.6.6-1.6 1.5V89h-3.3V78.7h3.1v1.4c.4-1.1 1.5-1.7 3.1-1.7 2.2 0 3.6 1.3 3.6 3.4V89h-3.4zM80 94.2c-3 0-5-1.7-5-3.9 0-1.6 1-2.5 2.1-2.8l-1.3-1.3c.1-.7.7-1.2 1.2-1.5-.8-.5-1.5-1.5-1.5-2.7 0-2.2 1.6-3.7 4.2-3.7.6 0 1.1.1 1.5.2.5.1 1 .2 1.5.2.6 0 1.2-.1 1.6-.3l.6 2.5c-.3.2-.8.3-1.3.3.1.2.2.7.2 1 0 1.7-1.4 3.2-3.4 3.3-.4 0-.7.1-.7.4 0 .1.1.2.3.3l1.6.6c2 .7 3.1 1.7 3.1 3.6.2 2.2-1.7 3.8-4.7 3.8zm.7-4.8l-1.3-.4c-.8 0-1.4.6-1.4 1.3 0 .7.6 1.3 1.8 1.3 1.2 0 1.8-.5 1.8-1.1.1-.5-.3-1-.9-1.1zm-.9-8.6c-.7 0-1.3.6-1.3 1.2 0 .7.6 1.2 1.3 1.2.7 0 1.3-.5 1.3-1.2s-.6-1.2-1.3-1.2zM97.7 87.9c-1.6 4.1-3.2 5.6-5.1 6.4l-2-2c1.7-.6 2.9-1.8 3.8-4l-3.7-9.6h3.2l1.5 4c.2.6.5 1.3.6 2 .2-.7.4-1.4.7-2l1.5-4h3.1l-3.6 9.2zM107.1 89.3c-3.1 0-5.6-2.2-5.6-5.5s2.5-5.5 5.6-5.5c3.1 0 5.6 2.2 5.6 5.5s-2.5 5.5-5.6 5.5zm0-8.1c-1.2 0-2.3 1.1-2.3 2.6s1.1 2.6 2.3 2.6c1.2 0 2.3-1.1 2.3-2.6s-1-2.6-2.3-2.6zM121.1 89v-1.4c-.4 1.1-1.5 1.7-3.2 1.7-2.2 0-3.6-1.2-3.6-3.4v-7.1h3.3V85c0 .7.5 1.4 1.5 1.4s1.6-.7 1.6-1.5v-6.2h3.3V89h-2.9zM132.7 82.2c-.2-.1-.7-.2-1-.2-1.1 0-2 .6-2 2.2V89h-3.3V78.7h3.3V81c.3-1.6 1.5-2.5 2.9-2.5.3 0 .7 0 1 .1l-.9 3.6z"/></g><g><path class="st0" d="M20.5 104.9c-.2-.1-.7-.2-1-.2-1.1 0-2 .6-2 2.2v4.8h-3.3v-10.3h3.3v2.3c.3-1.6 1.5-2.5 2.9-2.5.3 0 .7 0 1 .1l-.9 3.6zM31.6 105.9l-1.5 1.5h-5c.2.8 1.3 1.8 3 1.8 1.1 0 2.2-.3 2.8-.8l-.3 2.9c-.8.4-1.9.7-3.3.7-3.1 0-5.6-2.2-5.6-5.5s2.4-5.4 5.4-5.4c2.9 0 4.6 2 4.6 4.1 0 .2-.1.5-.1.7zm-4.5-2.4c-1 0-1.8.7-2 1.7h3.5v-.2c0-.7-.6-1.5-1.5-1.5zM40.3 104.1h-2.7v3.8c0 .9.5 1.2 1.4 1.2.4 0 .6 0 .9-.1l-.3 2.5c-.3.2-.9.3-1.5.3-2.3 0-3.7-1.2-3.7-3.3v-4.4h-1.7v-2.7h1.7v-2.2l3.3-1.2v3.4H41l-.7 2.7zM48.8 111.6v-1.4c-.4 1.1-1.5 1.7-3.2 1.7-2.2 0-3.6-1.2-3.6-3.4v-7.1h3.3v6.3c0 .7.5 1.4 1.5 1.4s1.6-.7 1.6-1.5v-6.2h3.3v10.3h-2.9zM60.4 104.9c-.2-.1-.7-.2-1-.2-1.1 0-2 .6-2 2.2v4.8H54v-10.3h3.3v2.3c.3-1.6 1.5-2.5 2.9-2.5.3 0 .7 0 1 .1l-.8 3.6zM68.8 111.6v-6.3c0-.7-.5-1.4-1.5-1.4s-1.6.6-1.6 1.5v6.3h-3.3v-10.3h3.1v1.4c.4-1.1 1.5-1.7 3.1-1.7 2.2 0 3.6 1.3 3.6 3.4v7.1h-3.4zM77.5 111.9c-1.4 0-2.4-.3-3.3-.7l-.3-2.9c.9.6 2.1 1.1 3.2 1.1.6 0 1-.3 1-.7 0-.4-.3-.6-.9-.8-2-.6-3.2-1.6-3.2-3.4 0-2 1.6-3.3 3.9-3.3 1.3 0 2.5.3 3 .6l-.6 2.4c-.5-.3-1.3-.6-2.1-.6-.5 0-.9.2-.9.7 0 .4.3.6.9.7 2.3.6 3.3 1.8 3.3 3.5.1 1.8-1.2 3.4-4 3.4zM84.8 112c-.6 0-1.9-1.3-1.9-1.9 0-.6 1.3-1.9 1.9-1.9s1.9 1.3 1.9 1.9c0 .6-1.3 1.9-1.9 1.9z"/></g></svg>