<svg xmlns="http://www.w3.org/2000/svg" width="160" height="600" viewBox="0 0 160 600"><path fill="#F9E038" d="M37.016 486s-11 0-11 11v3.674s0 11 11 11h89.825s11 0 11-11V497s0-11-11-11H37.016z"/><g fill="#231F20"><path d="M39.579 502.706H37.98v-6.856h2.889c.61 0 1.229.01 1.759.35.56.37.87 1.04.87 1.709 0 .78-.45 1.5-1.189 1.77l1.27 3.028H41.8l-1.05-2.709h-1.169v2.708zm0-3.888h.88c.33 0 .689.03.979-.14.26-.16.399-.48.399-.78 0-.27-.16-.56-.39-.699-.27-.17-.729-.13-1.029-.13h-.84v1.749zM46.149 497.179v1.39h2.599v1.289h-2.599v1.52h3.298v1.329H44.55v-6.856h4.897v1.329h-3.298zM55.997 502.706h-1.729l-.42-1.409h-2.219l-.43 1.409H49.79l2.199-6.856h1.859l2.149 6.856zm-2.519-2.669l-.729-2.408-.73 2.408h1.459zM58.718 495.85c.99 0 1.839.061 2.589.77.74.7 1.059 1.649 1.059 2.639 0 .92-.28 1.81-.889 2.499-.68.749-1.519.949-2.489.949h-2.259v-6.856h1.989zm-.389 5.567h.54c.67 0 1.1-.13 1.469-.729.27-.44.38-.97.38-1.479 0-.54-.16-1.119-.49-1.549-.37-.48-.779-.55-1.349-.55h-.55v4.307zM70.917 497.209h-1.719v5.497h-1.599v-5.497H65.86v-1.359h5.057v1.359zM77.046 502.706h-1.599v-2.828h-2.119v2.828h-1.599v-6.856h1.599v2.679h2.119v-2.679h1.599v6.856zM79.948 497.179v1.39h2.599v1.289h-2.599v1.52h3.298v1.329h-4.897v-6.856h4.897v1.329h-3.298zM92.796 502.706h-1.729l-.419-1.409h-2.219l-.431 1.409h-1.409l2.199-6.856h1.859l2.149 6.856zm-2.519-2.669l-.729-2.408-.729 2.408h1.458zM95.178 502.706h-1.6v-6.856h2.889c.609 0 1.229.01 1.759.35.56.37.87 1.04.87 1.709 0 .78-.45 1.5-1.189 1.77l1.269 3.028h-1.778l-1.05-2.709h-1.169v2.708zm0-3.888h.879c.33 0 .69.03.979-.14.26-.16.4-.48.4-.78 0-.27-.16-.56-.39-.699-.271-.17-.73-.13-1.03-.13h-.839v1.749zM104.717 497.209h-1.72v5.497h-1.599v-5.497h-1.739v-1.359h5.058v1.359zM107.178 502.706h-1.6v-6.856h1.6v6.856zM112.416 498.509c-.01-.76-.27-1.47-1.149-1.47-1.129 0-1.239 1.479-1.239 2.309 0 .939.11 2.149 1.319 2.149.75 0 1.1-.63 1.189-1.29l1.56.101c-.17 1.569-1.25 2.498-2.829 2.498-2.039 0-3.028-1.659-3.028-3.527 0-1.899 1.02-3.528 3.078-3.528 1.72 0 2.599.999 2.779 2.648l-1.68.11zM119.466 501.347v1.359h-4.357v-6.856h1.599v5.497h2.758zM121.747 497.179v1.39h2.599v1.289h-2.599v1.52h3.298v1.329h-4.896v-6.856h4.896v1.329h-3.298z"/></g></svg>