<svg id="Layer_1" xmlns="http://www.w3.org/2000/svg" xmlns:xlink="http://www.w3.org/1999/xlink" viewBox="0 0 160 600" enable-background="new 0 0 160 600"><style>.st0{opacity:.25;clip-path:url(#SVGID_2_)}.st1{clip-path:url(#SVGID_4_)}.st2{clip-path:url(#SVGID_6_);fill:#0a0f0f}.st3{clip-path:url(#SVGID_2_);fill:#fff}.st4{clip-path:url(#SVGID_8_);fill:url(#SVGID_9_)}.st5{clip-path:url(#SVGID_11_);fill:url(#SVGID_12_)}.st6{clip-path:url(#SVGID_14_);fill:url(#SVGID_15_)}.st7{clip-path:url(#SVGID_17_);fill:url(#SVGID_18_)}.st8{clip-path:url(#SVGID_20_);fill:url(#SVGID_21_)}.st9{clip-path:url(#SVGID_23_);fill:#963a21}.st10{clip-path:url(#SVGID_25_);fill:url(#SVGID_26_)}.st11{clip-path:url(#SVGID_28_);fill:url(#SVGID_29_)}.st12,.st13{clip-path:url(#SVGID_31_)}.st12{fill:#f5a8c2}.st13{opacity:.5}.st14{clip-path:url(#SVGID_33_)}.st15{clip-path:url(#SVGID_35_);fill:#fff}.st16,.st17,.st18{clip-path:url(#SVGID_31_);fill:#393030}.st17,.st18{fill:#d07589}.st18{fill:#231f20}.st19,.st20{fill-rule:evenodd;clip-rule:evenodd}.st19{clip-path:url(#SVGID_31_);fill:#ffcb10}.st20{fill:#eeb435}.st20,.st21,.st22{clip-path:url(#SVGID_31_)}.st21{fill-rule:evenodd;clip-rule:evenodd;fill:#ffeba6}.st22{fill:#ffcb10}.st23{opacity:.53;clip-path:url(#SVGID_37_)}.st24{clip-path:url(#SVGID_39_)}.st25{filter:url(#Adobe_OpacityMaskFilter)}.st26,.st27{clip-path:url(#SVGID_41_);fill:url(#SVGID_43_)}.st27{mask:url(#SVGID_42_);fill:url(#SVGID_44_)}.st28{clip-path:url(#SVGID_46_)}.st29{filter:url(#Adobe_OpacityMaskFilter_1_)}.st30{clip-path:url(#SVGID_48_)}.st31{clip-path:url(#SVGID_51_);fill:url(#SVGID_52_)}.st32{clip-path:url(#SVGID_48_);mask:url(#SVGID_49_);fill:url(#SVGID_53_)}.st33{clip-path:url(#SVGID_55_)}.st34{filter:url(#Adobe_OpacityMaskFilter_2_)}.st35{clip-path:url(#SVGID_57_)}.st36{clip-path:url(#SVGID_60_);fill:url(#SVGID_61_)}.st37{clip-path:url(#SVGID_57_);mask:url(#SVGID_58_);fill:url(#SVGID_62_)}.st38{clip-path:url(#SVGID_64_)}.st39{clip-path:url(#SVGID_66_)}.st40{filter:url(#Adobe_OpacityMaskFilter_3_)}.st41,.st42{clip-path:url(#SVGID_68_);fill:url(#SVGID_70_)}.st42{mask:url(#SVGID_69_);fill:url(#SVGID_71_)}.st43{opacity:.53;clip-path:url(#SVGID_73_)}.st44{clip-path:url(#SVGID_75_)}.st45{clip-path:url(#SVGID_77_);fill:url(#SVGID_78_)}.st46{clip-path:url(#SVGID_73_)}.st47{clip-path:url(#SVGID_80_)}.st48{filter:url(#Adobe_OpacityMaskFilter_4_)}.st49,.st50{clip-path:url(#SVGID_82_);fill:url(#SVGID_84_)}.st50{mask:url(#SVGID_83_);fill:url(#SVGID_85_)}</style><defs><path id="SVGID_1_" d="M14 254h129.6v129.6H14z"/></defs><clipPath id="SVGID_2_"><use xlink:href="#SVGID_1_" overflow="visible"/></clipPath><g class="st0"><defs><path id="SVGID_3_" d="M14 283.7h100v100H14z"/></defs><clipPath id="SVGID_4_"><use xlink:href="#SVGID_3_" overflow="visible"/></clipPath><g class="st1"><defs><path id="SVGID_5_" d="M14 283.7h100v100H14z"/></defs><clipPath id="SVGID_6_"><use xlink:href="#SVGID_5_" overflow="visible"/></clipPath><path class="st2" d="M114 372.8c-5.1 4.9-12 8-19.6 8H16.8v-77.6c0-7.6 3-14.5 8-19.6l-2.8 2.8c-4.9 5.1-8 12-8 19.6v77.6h77.6c7.7 0 14.7-3.1 19.7-8.1l2.7-2.7z"/></g></g><path class="st3" d="M68.4 254c-9.4 0-18.4 3.7-25.1 10.5-6.7 6.7-10.5 15.6-10.5 25v75.3H108c19.6 0 35.6-16 35.6-35.6V254H68.4z"/><defs><path id="SVGID_7_" d="M108 364.8H32.8l-16 16h77.6c7.6 0 14.5-3 19.6-8l11.8-11.8-.6-.6c-5.2 2.8-11 4.4-17.2 4.4"/></defs><clipPath id="SVGID_8_"><use xlink:href="#SVGID_7_" overflow="visible"/></clipPath><linearGradient id="SVGID_9_" gradientUnits="userSpaceOnUse" x1="1.049" y1="601.049" x2="2.049" y2="601.049" gradientTransform="matrix(0 -20.4779 -20.4779 0 12379.497 402.448)"><stop offset="0" stop-color="#10b0e6"/><stop offset=".159" stop-color="#0faae1"/><stop offset=".368" stop-color="#0c9ad2"/><stop offset=".604" stop-color="#077fba"/><stop offset=".858" stop-color="#015999"/><stop offset=".89" stop-color="#005494"/><stop offset="1" stop-color="#005494"/></linearGradient><path class="st4" d="M16.8 360.4h108.9v20.4H16.8z"/><defs><path id="SVGID_10_" d="M24.8 283.7c-4.9 5.1-8 12-8 19.6v77.6l16-16v-75.3c0-6 1.5-11.8 4.4-16.9l-.6-.6-11.8 11.6z"/></defs><clipPath id="SVGID_11_"><use xlink:href="#SVGID_10_" overflow="visible"/></clipPath><linearGradient id="SVGID_12_" gradientUnits="userSpaceOnUse" x1="1.009" y1="601.009" x2="2.009" y2="601.009" gradientTransform="matrix(0 -109.4055 -109.4055 0 65780.734 492.09)"><stop offset="0" stop-color="#0081bd"/><stop offset=".393" stop-color="#006fac"/><stop offset=".85" stop-color="#005494"/><stop offset="1" stop-color="#005494"/></linearGradient><path class="st5" d="M16.8 271.9h20.4v108.9H16.8z"/><defs><path id="SVGID_13_" d="M108 364.8H32.8l-16 16h77.6c7.6 0 14.5-3 19.6-8l11.8-11.8-.6-.6c-5.2 2.8-11 4.4-17.2 4.4"/></defs><clipPath id="SVGID_14_"><use xlink:href="#SVGID_13_" overflow="visible"/></clipPath><linearGradient id="SVGID_15_" gradientUnits="userSpaceOnUse" x1=".991" y1="601.009" x2="1.991" y2="601.009" gradientTransform="matrix(107.7467 0 0 -107.7467 -89.524 65127.348)"><stop offset="0" stop-color="#10b0e6"/><stop offset=".161" stop-color="#0faae1"/><stop offset=".372" stop-color="#0c9ad2"/><stop offset=".61" stop-color="#077fba"/><stop offset=".867" stop-color="#015999"/><stop offset=".9" stop-color="#005494"/><stop offset="1" stop-color="#005494"/></linearGradient><path class="st6" d="M16.8 360.4h108.9v20.4H16.8z"/><g><defs><path id="SVGID_16_" d="M24.8 283.7c-4.9 5.1-8 12-8 19.6v77.6l16-16v-75.3c0-6 1.5-11.8 4.4-16.9l-.6-.6-11.8 11.6z"/></defs><clipPath id="SVGID_17_"><use xlink:href="#SVGID_16_" overflow="visible"/></clipPath><linearGradient id="SVGID_18_" gradientUnits="userSpaceOnUse" x1="1.009" y1="601.009" x2="2.009" y2="601.009" gradientTransform="matrix(0 -109.4055 -109.4055 0 65780.734 492.09)"><stop offset="0" stop-color="#0081bd"/><stop offset=".393" stop-color="#006fac"/><stop offset=".85" stop-color="#005494"/><stop offset="1" stop-color="#005494"/></linearGradient><path class="st7" d="M16.8 271.9h20.4v108.9H16.8z"/></g><g><defs><path id="SVGID_19_" d="M68.4 258.5c-17 0-31.1 14.1-31.1 30.9v70.8H108c17.1 0 31.1-13.9 31.1-31.1v-70.7H68.4z"/></defs><clipPath id="SVGID_20_"><use xlink:href="#SVGID_19_" overflow="visible"/></clipPath><linearGradient id="SVGID_21_" gradientUnits="userSpaceOnUse" x1="1" y1="601.01" x2="2" y2="601.01" gradientTransform="scale(143.5507 -143.5507) rotate(45 729.141 298.36)"><stop offset="0" stop-color="#67cdf5"/><stop offset=".035" stop-color="#63c9f2"/><stop offset=".482" stop-color="#2d97d0"/><stop offset=".817" stop-color="#0c78bb"/><stop offset="1" stop-color="#006cb3"/><stop offset="1" stop-color="#006cb3"/></linearGradient><path class="st8" d="M-13.5 309.4L88.2 207.7 190 309.4 88.2 411.1z"/></g><g><defs><path id="SVGID_22_" d="M68.4 258.5c-17 0-31.1 14.1-31.1 30.9v70.8H108c17.1 0 31.1-13.9 31.1-31.1v-70.7H68.4z"/></defs><clipPath id="SVGID_23_"><use xlink:href="#SVGID_22_" overflow="visible"/></clipPath><path class="st9" d="M27.9 350.9h114.7v28.4H27.9z"/></g><g><defs><path id="SVGID_24_" d="M83.4 356c0 1.9 9.2 3.4 20.5 3.4 5.9 0 11.2-.4 14.9-1 1.9-.7 3.8-1.6 5.5-2.7-1.2-1.7-9.9-3-20.4-3-11.3 0-20.5 1.5-20.5 3.3"/></defs><clipPath id="SVGID_25_"><use xlink:href="#SVGID_24_" overflow="visible"/></clipPath><radialGradient id="SVGID_26_" cx=".93" cy="601.251" r="1" gradientTransform="matrix(14.1964 0 0 -3.9873 90.54 2753.144)" gradientUnits="userSpaceOnUse"><stop offset="0" stop-color="#75301a"/><stop offset=".378" stop-color="#78311b"/><stop offset=".684" stop-color="#82341d"/><stop offset=".963" stop-color="#933a20"/><stop offset="1" stop-color="#963b21"/></radialGradient><path class="st10" d="M83.4 352.7h41v6.7h-41z"/></g><g><defs><path id="SVGID_27_" d="M47.6 356c0 1.7 8.7 3.1 19.6 3.2h1c10.9 0 19.6-1.4 19.6-3.2 0-1.7-9-3.2-20.1-3.2-11.1.1-20.1 1.5-20.1 3.2"/></defs><clipPath id="SVGID_28_"><use xlink:href="#SVGID_27_" overflow="visible"/></clipPath><radialGradient id="SVGID_29_" cx=".928" cy="601.267" r="1" gradientTransform="matrix(13.8807 0 0 -3.7476 54.63 2609.116)" gradientUnits="userSpaceOnUse"><stop offset="0" stop-color="#75301a"/><stop offset=".378" stop-color="#78311b"/><stop offset=".684" stop-color="#82341d"/><stop offset=".963" stop-color="#933a20"/><stop offset="1" stop-color="#963b21"/></radialGradient><path class="st11" d="M47.6 352.9h40.2v6.3H47.6z"/></g><g><defs><path id="SVGID_30_" d="M14 254h129.6v129.6H14z"/></defs><clipPath id="SVGID_31_"><use xlink:href="#SVGID_30_" overflow="visible"/></clipPath><path class="st12" d="M134 319.8c-.1-1.5-2-2-3.2-2.6-4.6-2.3-4.1-8-5.9-12.1-1.4-3.4-3.5-6.5-6.1-9.1-2.7-3.2-3.7-4.2-12.8-9-6.8-3.1-14.4-4.6-21.9-4.6-18.4 0-34.1 8.9-40.1 21.4-.4.8-.7 1.6-1 2.4-1.1 2.9-1.7 6-1.7 9.2 0 .7 0 1.3.1 2 4.4 4.6 9.1 8.1 13.8 10.6 1.2.6 2.4 1.2 3.5 1.7 1.5.7 3 1.2 4.4 1.7.9.3 1.8.6 2.7.8 1.2.3 2.4.6 3.6.8.9.2 1.8.3 2.7.5-.9-.1-1.8-.3-2.7-.5-1.2-.2-2.4-.5-3.6-.8-.9-.2-1.8-.5-2.7-.8-1.5-.5-3-1.1-4.4-1.7-1.2-.5-2.4-1.1-3.5-1.7-4.7-2.6-9.3-6-13.8-10.6.2 2.3.7 4.5 1.4 6.6 3.1 10.6 17.3 32.1 20.3 32.1h9.5c1.3 0 2.1-.5 2.7-1.2.8-1 1-2.4.9-3.8 0-.8-.3-4-.1-4.8.1-.2.1-1.4.3-1.6v-.1c2.5.4 5.1 1 7.7 1 3.1 0 6.3-.3 9.4-.8.5 2.7 1.9 11.2 4.6 11.2h8.6c1.2 0 4.3-.4 4.9-1.4.3-.4.5-.9.6-1.4.5-3-.1-6.1-.3-9.1v-1.2c0-.5.1-1.1.3-1.6.3-.7.8-1.3 1.3-1.9 1.1-.8 2.2-1.7 3.1-2.6 2.9-2.8 3.5-3.6 7.6-4.6 2.5-.6 4.8-1.7 7.1-2.9 1.1-.5 1.5-1.4 1.5-2.6v-.1c0-1.5.1-2.8.6-4.3.3-.9.6-1.7.6-2.5m-58.4 14.1c1.5.1 2.9.2 4.4.2-1.5 0-2.9-.1-4.4-.2m35-6.2c-.3.1-.5.2-.8.3-4 1.5-8.4 3-13.1 4.1-1.8.4-3.7.8-5.6 1.1-.8.1-1.7.3-2.5.4-1.4.2-2.8.3-4.2.4-.6 0-1.1.1-1.7.1.6 0 1.1-.1 1.7-.1 1.4-.1 2.8-.2 4.2-.4.8-.1 1.7-.2 2.5-.4 1.9-.3 3.8-.7 5.6-1.1 4.8-1.2 9.3-2.6 13.1-4.1.2-.1.5-.2.8-.3 3.5-1.3 6.9-2.9 10.6-3.3-3.7.4-7.2 1.9-10.6 3.3m12.2-3.5h1.3-1.3m6.4 1c-.4-.1-.8-.2-1.2-.4-.8-.2-1.7-.4-2.5-.5.9.1 1.7.3 2.5.5.4.1.8.2 1.2.4.4.1.8.3 1.2.4-.3-.2-.8-.3-1.2-.4"/><path class="st12" d="M42.5 307c-.9-.6-1.6-1.4-2.1-2.6 2.1-.9 3.8-2.5 5.2-4.7 1.1-1.8 1.2-3.8.2-5.2-.5-.7-1.8-1.9-4.4-1.6-1.4.1-2.6.8-3.4 1.8-1.6 1.9-1.9 4.8-1.7 6.7 0 .3.1.6.1.9-1.6.1-2.9 0-4.6-.3-.7-.1-1.7-.5-2.4-.8l-5-2.3c2.2 2.7 9.7 6.8 12.8 6.4.8 1.9 1.9 3.3 3.5 4.3 1.2.7 2.5 1.1 3.8 1.3.3-1 .7-2 1.3-2.9-1.2-.2-2.3-.4-3.3-1m-3-6c-.2-1.5.1-3.5 1-4.5.3-.4.7-.6 1.2-.6h.3c.4 0 .6.1.8.4.3.4.3 1.2-.3 2.1-.9 1.5-1.7 2.4-2.9 3.1-.1-.2-.1-.3-.1-.5"/><g class="st13"><defs><path id="SVGID_32_" d="M46.8 288.7H69v22.4H46.8z"/></defs><clipPath id="SVGID_33_"><use xlink:href="#SVGID_32_" overflow="visible"/></clipPath><g class="st14"><defs><path id="SVGID_34_" d="M46.8 288.7H69v22.4H46.8z"/></defs><clipPath id="SVGID_35_"><use xlink:href="#SVGID_34_" overflow="visible"/></clipPath><path class="st15" d="M55.4 294.9c-5.2 4.3-6.9 7.4-8 11.6l-.3 1.5c-.2 1-.2 2-.2 3v-.1c1.3-4.7 4.4-8.8 9.2-12.5 3.6-2.7 9.1-5.6 13-6.6-1.8-1-2.1-2.2-2.2-3.2 0 .1-7.3 2.8-11.5 6.3"/></g></g><path class="st16" d="M118.3 308.1c-1.2.2-2 1.8-1.7 3.6.3 1.8 1.6 3 2.8 2.8 1.2-.2 2-1.8 1.7-3.6-.3-1.7-1.6-3-2.8-2.8"/><path class="st12" d="M101.8 290.3c2.9 5 8.5 7.3 13.1 5.6.5-.2.8-.7.7-1.2-.3-2.1-.3-4 .1-5.8.4-1.7 1.2-3.3 2.7-4.9 1-1.1-.4-3.1-2.2-3.4-1.9-.3-3.9.1-5.3 1.1-4.8 3.4-8.4 7.1-8.8 7.5-.4.4-.6.5-.3 1.1"/><path class="st17" d="M109.2 292.9c1.3-1.2 3-2 4.8-2.1-.1-.5-.2-1.1-.1-1.5.2-1.8 1.1-2.7 2.2-4.1.2-.3.7-1 .8-1.3.5-1.3-2.1-1.3-2.8-1.2-1.9.4-4.1 2-5.4 4-1.5 2.1-1.4 4.8.5 6.2"/><path class="st18" d="M93.8 285.9c-4.9-1.6-14.7-1.5-19.6.3-.9.3-1.1 1.2-.6 1.8.4.5 1.2.6 1.8.4 4.1-1.6 13.1-1.9 17.1-.3.6.3 1.4.1 1.8-.4.8-.6.4-1.5-.5-1.8"/><path class="st19" d="M77.1 288c2.5-.6 5-1 7.5-1 2.2 0 4.3.2 6.3.7 2.8-2.1 4.6-5.5 4.6-9.3 0-6.5-5.2-11.7-11.7-11.7s-11.7 5.2-11.7 11.7c0 4 2 7.5 5 9.6"/><path class="st20" d="M78.5 287.7c2-.4 4.1-.6 6.2-.6 1.6 0 3.1.1 4.6.4 3-1.9 5-5.2 5-9 0-5.9-4.8-10.6-10.6-10.6S73 272.6 73 278.4c0 4 2.2 7.5 5.5 9.3"/><path class="st21" d="M79 287.6c1.9-.4 3.7-.5 5.6-.5 1.7 0 3.4.1 5 .4 3-1.9 5-5.2 5-9 0-5.9-4.7-10.6-10.4-10.6s-10.4 4.8-10.4 10.6c0 3.9 2.1 7.3 5.2 9.1"/><path class="st22" d="M78.7 287.7c2-.4 3.9-.6 5.9-.6 1.6 0 3.1.1 4.7.4 2.9-1.9 4.9-5.2 4.9-9 0-5.9-4.6-10.6-10.4-10.6-5.7 0-10.4 4.8-10.4 10.6 0 3.9 2.1 7.3 5.3 9.2"/><path class="st20" d="M81.5 287.2c1-.1 2.1-.2 3.1-.2.8 0 1.5 0 2.2.1 3.7-1.2 6.3-4.6 6.3-8.7 0-5.1-3.6-9.2-9.2-9.2-5.1 0-9.2 4.1-9.2 9.2.2 4.2 3 7.7 6.8 8.8"/><path class="st21" d="M81.3 287.3c1.1-.1 2.2-.2 3.3-.2.6 0 1.2 0 1.8.1 3.6-1.2 6.1-4.6 6.1-8.7 0-5.1-4-9.2-9-9.2s-9 4.1-9 9.2c.2 4.2 3 7.7 6.8 8.8"/><path class="st19" d="M81.5 287.2c1-.1 2.1-.2 3.1-.2.7 0 1.4 0 2.1.1 3.6-1.2 6.1-4.6 6.1-8.7 0-5.1-4-9.2-8.9-9.2s-8.9 4.1-8.9 9.2c.1 4.2 2.8 7.7 6.5 8.8"/></g><g><defs><path id="SVGID_36_" d="M84.3 334c1.4-.1 2.8-.2 4.2-.4.8-.1 1.7-.2 2.5-.4 1.9-.3 3.8-.7 5.6-1.1 4.8-1.2 9.2-2.6 13-4-3.9 1.5-8.3 2.9-13 4-1.8.4-3.7.8-5.6 1.1-.8.1-1.7.3-2.5.4-1.4.1-2.8.3-4.2.4-.6 0-1.1.1-1.7.1.6-.1 1.1-.1 1.7-.1m25.5-6c.3-.1.5-.2.8-.3 3.5-1.3 6.9-2.9 10.6-3.3-3.6.5-7.1 2-10.6 3.3-.3.1-.6.2-.8.3m13.3-3.8h-.2.2m.2 0zM44 303.8c-.4.8-.7 1.6-1 2.4-1.1 2.9-1.7 6-1.7 9.2 0 .7 0 1.3.1 2 .2 2.3.7 4.5 1.4 6.6 3.1 10.6 17.3 32.1 20.3 32.1h9.5c1.3 0 2.1-.5 2.7-1.2.8-1 1-2.4.9-3.8 0-.8-.3-4-.1-4.8.1-.2.1-1.4.3-1.6v-.1c2.5.4 5.1 1 7.7 1 3.1 0 6.3-.3 9.4-.8.5 2.7 1.9 11.2 4.6 11.2h8.6c1.2 0 4.3-.4 4.9-1.4.3-.4.5-.9.6-1.4.5-3-.1-6.1-.3-9.1v-1.2c0-.5.1-1.1.3-1.6.3-.7.8-1.3 1.3-1.9 1.1-.8 2.2-1.7 3.1-2.6 2.9-2.8 3.5-3.6 7.6-4.6 2.5-.6 4.8-1.7 7.1-2.8 1.1-.5 1.5-1.4 1.5-2.6v-.1c0-1.5.1-2.8.6-4.3.3-.8.6-1.6.5-2.5-.1-1.5-2-2-3.2-2.6-4.6-2.3-4.1-8-5.9-12.1-1.4-3.4-3.5-6.5-6.1-9.1-2.7-3.2-3.7-4.2-12.8-9-6.8-3.1-14.4-4.6-21.9-4.6-18.2-.2-33.9 8.7-40 21.3"/></defs><clipPath id="SVGID_37_"><use xlink:href="#SVGID_36_" overflow="visible"/></clipPath><g class="st23"><defs><path id="SVGID_38_" d="M41.3 317.3h91.6v38.9H41.3z"/></defs><clipPath id="SVGID_39_"><use xlink:href="#SVGID_38_" overflow="visible"/></clipPath><g class="st24"><defs><path id="SVGID_40_" d="M41.3 317.3c.2 2.3.7 4.5 1.4 6.7 1 3.5 3.3 8.2 5.9 13C54 346.6 61 356.2 63 356.2h9.5c.8 0 2.1-.4 2.5-.9 2.2-2.3.3-7.2 1-9 .1-.2.1-1.3.2-1.5v-.1c2.5.4 5.1 1 7.7 1 3.1 0 6.3-.3 9.4-.8.5 2.7 1.9 11.2 4.6 11.2h8.6c1.2 0 4.3-.4 4.9-1.4 1.7-3.2.2-7.9.3-10.3 0-.1-.1-1.5 0-1.5 0-.5.1-1.1.3-1.6.3-.7.8-1.3 1.3-1.9 1.1-.8 2.2-1.7 3.1-2.6 2.9-2.8 3.5-3.7 7.6-4.6 2.5-.6 4.8-1.7 7.1-2.9 1.1-.5 1.5-1.4 1.5-2.6v-.2c-3.2-1.5-6.6-2.5-10.1-2.4-4.6.1-8.8 2.2-13.1 3.8-4 1.5-8.4 3-13.2 4.1-16.4 4-37.1 3.7-54.9-14.7z"/></defs><clipPath id="SVGID_41_"><use xlink:href="#SVGID_40_" overflow="visible"/></clipPath><defs><filter id="Adobe_OpacityMaskFilter" filterUnits="userSpaceOnUse" x="41.3" y="317.3" width="91.6" height="38.9"><feColorMatrix values="1 0 0 0 0 0 1 0 0 0 0 0 1 0 0 0 0 0 1 0"/></filter></defs><mask maskUnits="userSpaceOnUse" x="41.3" y="317.3" width="91.6" height="38.9" id="SVGID_42_"><g class="st25"><linearGradient id="SVGID_43_" gradientUnits="userSpaceOnUse" x1=".957" y1="600.957" x2="1.957" y2="600.957" gradientTransform="matrix(0 23.2109 23.2109 0 -13861.56 302.432)"><stop offset="0" stop-color="#b3b3b3"/><stop offset="1" stop-color="#fff"/></linearGradient><path class="st26" d="M41.3 317.3h91.6v38.9H41.3z"/></g></mask><linearGradient id="SVGID_44_" gradientUnits="userSpaceOnUse" x1=".957" y1="600.957" x2="1.957" y2="600.957" gradientTransform="matrix(0 23.2109 23.2109 0 -13861.559 302.432)"><stop offset="0" stop-color="#f5a8c2"/><stop offset="1" stop-color="#af5f73"/></linearGradient><path class="st27" d="M41.3 317.3h91.6v38.9H41.3z"/></g></g><g class="st23"><defs><path id="SVGID_45_" d="M101.1 342.5h11.4v12.4h-11.4z"/></defs><clipPath id="SVGID_46_"><use xlink:href="#SVGID_45_" overflow="visible"/></clipPath><g class="st28"><defs><path id="SVGID_47_" d="M111.7 342.5c-3.4.6-7.3 1.4-10 3.6-.5.4-.6 1-.6 1.7v.1c0 .9.2 1.8.3 2.5.1 1.3.3 3.1 1.6 3.8.2.1.5.2.8.3 1 .2 2.6.4 4.2.4h.1c1.4 0 2.8-.2 3.8-.6.4-.8.6-1.9.6-3.4v-.2c0-1.4-.1-3-.4-4.9-.1-1-.1-2.1-.1-3.3h-.3"/></defs><clipPath id="SVGID_48_"><use xlink:href="#SVGID_47_" overflow="visible"/></clipPath><defs><filter id="Adobe_OpacityMaskFilter_1_" filterUnits="userSpaceOnUse" x="98.9" y="340.5" width="15.7" height="16.4"><feColorMatrix values="1 0 0 0 0 0 1 0 0 0 0 0 1 0 0 0 0 0 1 0"/></filter></defs><mask maskUnits="userSpaceOnUse" x="98.9" y="340.5" width="15.7" height="16.4" id="SVGID_49_"><g class="st29"><defs><path id="SVGID_50_" transform="rotate(-79.799 106.69 348.893)" d="M99.3 341.8h14.8v14.1H99.3z"/></defs><clipPath id="SVGID_51_" class="st30"><use xlink:href="#SVGID_50_" overflow="visible"/></clipPath><linearGradient id="SVGID_52_" gradientUnits="userSpaceOnUse" x1=".775" y1="601.036" x2="1.775" y2="601.036" gradientTransform="matrix(5.0813 .9143 .9143 -5.0813 -450.277 3401.625)"><stop offset="0"/><stop offset=".165" stop-color="#414141"/><stop offset=".329" stop-color="#7a7a7a"/><stop offset=".489" stop-color="#aaa"/><stop offset=".64" stop-color="#cfcfcf"/><stop offset=".779" stop-color="#e9e9e9"/><stop offset=".903" stop-color="#f9f9f9"/><stop offset="1" stop-color="#fff"/><stop offset="1" stop-color="#fff"/></linearGradient><path class="st31" d="M98.9 337.5l19 3.4-3.5 19.4-18.9-3.4z"/></g></mask><linearGradient id="SVGID_53_" gradientUnits="userSpaceOnUse" x1=".775" y1="601.077" x2="1.775" y2="601.077" gradientTransform="matrix(5.0813 .9143 .9143 -5.0813 -450.277 3401.626)"><stop offset="0" stop-color="#f393a9"/><stop offset=".242" stop-color="#f49eb5"/><stop offset=".668" stop-color="#f6acc5"/><stop offset="1" stop-color="#f6b1cb"/><stop offset="1" stop-color="#f6b1cb"/></linearGradient><path class="st32" d="M101.4 340.5l13.2 2.4-2.5 14-13.2-2.4z"/></g></g><g class="st23"><defs><path id="SVGID_54_" d="M64.4 345.7h11.9v9.9H64.4z"/></defs><clipPath id="SVGID_55_"><use xlink:href="#SVGID_54_" overflow="visible"/></clipPath><g class="st33"><defs><path id="SVGID_56_" d="M65.2 348.7c-1.2 1.6-1.2 5.6 1 6.4 1.8.6 5.7.4 7.6.3 1.3-.1 1.7-.2 2.3-2.2 0 0 .2-1.3.2-1.6-.1-2.8-.3-4-.1-5.5-.4-.2-1.4-.4-2.7-.4-2.7 0-6.5.7-8.3 3"/></defs><clipPath id="SVGID_57_"><use xlink:href="#SVGID_56_" overflow="visible"/></clipPath><defs><filter id="Adobe_OpacityMaskFilter_2_" filterUnits="userSpaceOnUse" x="62.3" y="343.6" width="15.8" height="14.4"><feColorMatrix values="1 0 0 0 0 0 1 0 0 0 0 0 1 0 0 0 0 0 1 0"/></filter></defs><mask maskUnits="userSpaceOnUse" x="62.3" y="343.6" width="15.8" height="14.4" id="SVGID_58_"><g class="st34"><defs><path id="SVGID_59_" transform="rotate(-79.753 70.17 350.546)" d="M63.9 343.6h12.5v14H63.9z"/></defs><clipPath id="SVGID_60_" class="st35"><use xlink:href="#SVGID_59_" overflow="visible"/></clipPath><linearGradient id="SVGID_61_" gradientUnits="userSpaceOnUse" x1=".876" y1="601.07" x2="1.876" y2="601.07" gradientTransform="matrix(9.2231 1.6668 1.6668 -9.2231 -944.85 5891.907)"><stop offset="0"/><stop offset=".165" stop-color="#414141"/><stop offset=".329" stop-color="#7a7a7a"/><stop offset=".489" stop-color="#aaa"/><stop offset=".64" stop-color="#cfcfcf"/><stop offset=".779" stop-color="#e9e9e9"/><stop offset=".903" stop-color="#f9f9f9"/><stop offset="1" stop-color="#fff"/><stop offset="1" stop-color="#fff"/></linearGradient><path class="st36" d="M62.7 340.4l18 3.3-3.1 17-18-3.2z"/></g></mask><linearGradient id="SVGID_62_" gradientUnits="userSpaceOnUse" x1=".876" y1="601.051" x2="1.876" y2="601.051" gradientTransform="matrix(9.2231 1.6668 1.6668 -9.2231 -944.85 5891.907)"><stop offset="0" stop-color="#f393a9"/><stop offset=".242" stop-color="#f49eb5"/><stop offset=".668" stop-color="#f6acc5"/><stop offset="1" stop-color="#f6b1cb"/><stop offset="1" stop-color="#f6b1cb"/></linearGradient><path class="st37" d="M64.4 343.6l13.7 2.4-2.2 11.9-13.6-2.4z"/></g></g></g><g><defs><path id="SVGID_63_" d="M14 254h129.6v129.6H14z"/></defs><clipPath id="SVGID_64_"><use xlink:href="#SVGID_63_" overflow="visible"/></clipPath><g class="st38"><defs><path id="SVGID_65_" d="M94.5 347.9h18.1v8.2H94.5z"/></defs><clipPath id="SVGID_66_"><use xlink:href="#SVGID_65_" overflow="visible"/></clipPath><g class="st39"><defs><path id="SVGID_67_" d="M112.3 347.9l-17.9 1.5c.8 3.2 2 6.8 3.7 6.8h8.6c1.2 0 4.3-.4 4.9-1.4 1.2-2.1 1-4.7.7-6.9z"/></defs><clipPath id="SVGID_68_"><use xlink:href="#SVGID_67_" overflow="visible"/></clipPath><defs><filter id="Adobe_OpacityMaskFilter_3_" filterUnits="userSpaceOnUse" x="94.5" y="347.9" width="18.3" height="8.2"><feColorMatrix values="1 0 0 0 0 0 1 0 0 0 0 0 1 0 0 0 0 0 1 0"/></filter></defs><mask maskUnits="userSpaceOnUse" x="94.5" y="347.9" width="18.3" height="8.2" id="SVGID_69_"><g class="st40"><linearGradient id="SVGID_70_" gradientUnits="userSpaceOnUse" x1=".862" y1="600.877" x2="1.862" y2="600.877" gradientTransform="matrix(0 7.2314 7.2314 0 -4241.571 342.643)"><stop offset="0"/><stop offset=".345" stop-color="#020202"/><stop offset=".543" stop-color="#0b0b0b"/><stop offset=".704" stop-color="#191919"/><stop offset=".845" stop-color="#2c2c2c"/><stop offset=".972" stop-color="#464646"/><stop offset="1" stop-color="#4d4d4d"/><stop offset="1" stop-color="#4d4d4d"/></linearGradient><path class="st41" d="M94.5 347.9h18.3v8.2H94.5z"/></g></mask><linearGradient id="SVGID_71_" gradientUnits="userSpaceOnUse" x1=".862" y1="600.877" x2="1.862" y2="600.877" gradientTransform="matrix(0 7.2314 7.2314 0 -4241.571 342.643)"><stop offset="0" stop-color="#231f20"/><stop offset=".859" stop-color="#231f20"/><stop offset="1" stop-color="#231f20"/><stop offset="1" stop-color="#231f20"/></linearGradient><path class="st42" d="M94.5 347.9h18.3v8.2H94.5z"/></g></g></g><g><defs><path id="SVGID_72_" d="M76.2 349.4l-18.9.7c2.7 3.6 4.9 6 5.9 6h9.5c1.3 0 2.1-.5 2.7-1.2.8-1 1-2.4.9-3.8 0-.3-.1-1-.1-1.7l-.1-1.7c0 .5 0 1.1.1 1.7"/></defs><clipPath id="SVGID_73_"><use xlink:href="#SVGID_72_" overflow="visible"/></clipPath><g class="st43"><defs><path id="SVGID_74_" d="M48.7 336.9h8v12.6h-8z"/></defs><clipPath id="SVGID_75_"><use xlink:href="#SVGID_74_" overflow="visible"/></clipPath><g class="st44"><defs><path id="SVGID_76_" d="M56.7 349.5l-8-12.6c2.5 4.5 5.4 9 8 12.6"/></defs><clipPath id="SVGID_77_"><use xlink:href="#SVGID_76_" overflow="visible"/></clipPath><linearGradient id="SVGID_78_" gradientUnits="userSpaceOnUse" x1=".909" y1="600.909" x2="1.909" y2="600.909" gradientTransform="matrix(0 11.0496 11.0496 0 -6587.118 328.417)"><stop offset="0" stop-color="#f5a8c2"/><stop offset=".203" stop-color="#eb9ab3"/><stop offset=".718" stop-color="#d57b92"/><stop offset="1" stop-color="#cd6f85"/></linearGradient><path class="st45" d="M48.7 336.9h8v12.6h-8z"/></g></g><g class="st46"><defs><path id="SVGID_79_" d="M56.7 349.4h19.6v6.8H56.7z"/></defs><clipPath id="SVGID_80_"><use xlink:href="#SVGID_79_" overflow="visible"/></clipPath><g class="st47"><defs><path id="SVGID_81_" d="M56.7 349.5c2.9 4 5.4 6.7 6.4 6.7h9.5c.8 0 2.1-.4 2.5-.9.9-.9 1.1-2.2 1.1-3.6v-.1c0-.7-.1-1.5-.1-2.2l-19.4.1z"/></defs><clipPath id="SVGID_82_"><use xlink:href="#SVGID_81_" overflow="visible"/></clipPath><defs><filter id="Adobe_OpacityMaskFilter_4_" filterUnits="userSpaceOnUse" x="56.7" y="349.4" width="19.6" height="6.8"><feColorMatrix values="1 0 0 0 0 0 1 0 0 0 0 0 1 0 0 0 0 0 1 0"/></filter></defs><mask maskUnits="userSpaceOnUse" x="56.7" y="349.4" width="19.6" height="6.8" id="SVGID_83_"><g class="st48"><linearGradient id="SVGID_84_" gradientUnits="userSpaceOnUse" x1=".832" y1="600.853" x2="1.832" y2="600.853" gradientTransform="matrix(0 5.9503 5.9503 0 -3508.617 345.258)"><stop offset="0"/><stop offset=".345" stop-color="#020202"/><stop offset=".543" stop-color="#0b0b0b"/><stop offset=".704" stop-color="#191919"/><stop offset=".845" stop-color="#2c2c2c"/><stop offset=".972" stop-color="#464646"/><stop offset="1" stop-color="#4d4d4d"/><stop offset="1" stop-color="#4d4d4d"/></linearGradient><path class="st49" d="M56.7 349.4h19.8v6.8H56.7z"/></g></mask><linearGradient id="SVGID_85_" gradientUnits="userSpaceOnUse" x1=".832" y1="600.832" x2="1.832" y2="600.832" gradientTransform="matrix(0 5.9503 5.9503 0 -3508.617 345.258)"><stop offset="0" stop-color="#231f20"/><stop offset=".859" stop-color="#231f20"/><stop offset="1" stop-color="#231f20"/><stop offset="1" stop-color="#231f20"/></linearGradient><path class="st50" d="M56.7 349.4h19.6v6.8H56.7z"/></g></g></g></svg>