<svg id="Layer_1" xmlns="http://www.w3.org/2000/svg" xmlns:xlink="http://www.w3.org/1999/xlink" viewBox="0 0 160 600"><style>.st0,.st1{fill:#fff}.st1{clip-path:url(#SVGID_2_)}.st2{clip-path:url(#SVGID_4_);fill:url(#SVGID_5_)}.st3{clip-path:url(#SVGID_7_);fill:url(#SVGID_8_)}.st4{clip-path:url(#SVGID_10_);fill:url(#SVGID_11_)}</style><path class="st0" d="M75.9 552.1v3.8h-6.8v18.3h-4.3v-18.3H58v-3.8h17.9zm1.8 22.2H82v-22.2h-4.3v22.2zm26.5 0h-4.4l-2.3-5.5H90l-2.3 5.5h-4.3l9.4-22.5h1.9l9.5 22.5zm20.7 0h-4.4l-2.3-5.5h-7.5l-2.3 5.5h-4.3l9.4-22.5h1.9l9.5 22.5zM96 565.2l-2.3-5.5-2.3 5.5H96zm20.7 0l-2.3-5.5-2.3 5.5h4.6z"/><defs><path id="SVGID_1_" d="M22 543h108.6v37H22z"/></defs><clipPath id="SVGID_2_"><use xlink:href="#SVGID_1_" overflow="visible"/></clipPath><path class="st1" d="M42.6 575.7c1.9 0 3.6-.8 4.9-2l5.2-5.2c1.2-1.2 2-2.9 2-4.8v-16.3H38.4c-1.9 0-3.6.8-4.9 2l-5.2 5.2a6.8 6.8 0 0 0-2 4.8v16.3h16.3z"/><defs><path id="SVGID_3_" d="M40.3 548.8c-3 0-5.4 2.4-5.4 5.3v1.8h11.2v11.2h1.8c3 0 5.4-2.4 5.4-5.4v-13h-13z"/></defs><clipPath id="SVGID_4_"><use xlink:href="#SVGID_3_" overflow="visible"/></clipPath><linearGradient id="SVGID_5_" gradientUnits="userSpaceOnUse" x1="1" y1="601.078" x2="2" y2="601.078" gradientTransform="scale(18.039 -18.039) rotate(45 764.764 286.476)"><stop offset="0" stop-color="#9bdbf7"/><stop offset=".1" stop-color="#9bdbf7"/><stop offset=".9" stop-color="#009dda"/><stop offset="1" stop-color="#009dda"/></linearGradient><path class="st2" d="M25.7 557.9l18.4-18.3 18.3 18.3-18.3 18.4z"/><g><defs><path id="SVGID_6_" d="M47.9 568.6H33.4l-5.7 5.7h14.9c1.4 0 2.8-.6 3.8-1.6l4.8-4.8-.1-.1c-1 .5-2.1.8-3.2.8"/></defs><clipPath id="SVGID_7_"><use xlink:href="#SVGID_6_" overflow="visible"/></clipPath><linearGradient id="SVGID_8_" gradientUnits="userSpaceOnUse" x1=".958" y1="601.043" x2="1.958" y2="601.043" gradientTransform="matrix(23.517 0 0 -23.517 5.206 14705.715)"><stop offset="0" stop-color="#14b0e6"/><stop offset=".161" stop-color="#13aae1"/><stop offset=".372" stop-color="#0f9ad2"/><stop offset=".61" stop-color="#097fba"/><stop offset=".867" stop-color="#015999"/><stop offset=".9" stop-color="#005494"/><stop offset="1" stop-color="#005494"/></linearGradient><path class="st3" d="M27.7 567.7h23.5v6.6H27.7z"/></g><g><defs><path id="SVGID_9_" d="M29.3 555.6c-1 1-1.6 2.4-1.6 3.8v14.9l5.7-5.7v-14.4c0-1.2.3-2.3.8-3.3l-.1-.1-4.8 4.8z"/></defs><clipPath id="SVGID_10_"><use xlink:href="#SVGID_9_" overflow="visible"/></clipPath><linearGradient id="SVGID_11_" gradientUnits="userSpaceOnUse" x1="1.042" y1="601.043" x2="2.042" y2="601.043" gradientTransform="matrix(0 -23.5174 -23.5174 0 14165.93 598.794)"><stop offset="0" stop-color="#0081bd"/><stop offset=".377" stop-color="#0070ad"/><stop offset=".85" stop-color="#005494"/><stop offset="1" stop-color="#005494"/></linearGradient><path class="st4" d="M27.7 550.8h6.6v23.5h-6.6z"/></g></svg>