<svg xmlns="http://www.w3.org/2000/svg" xmlns:xlink="http://www.w3.org/1999/xlink" width="160" height="600" viewBox="0 0 160 600"><path fill="#F6A9C2" d="M133.87 299.97c-.16-1.65-2.08-2.13-3.36-2.72-4.91-2.4-4.37-8.43-6.24-12.85-1.49-3.57-3.73-6.83-6.45-9.71-2.88-3.41-3.95-4.48-13.55-9.55-7.2-3.31-15.31-4.91-23.2-4.91-19.47.05-36.11 9.49-42.56 22.83-.43.8-.75 1.65-1.07 2.51a27.288 27.288 0 0 0-1.76 9.71c0 .69.05 1.44.11 2.13 4.69 4.85 9.6 8.53 14.61 11.25 1.23.69 2.51 1.28 3.73 1.87 1.55.69 3.15 1.33 4.69 1.81.96.32 1.87.59 2.83.85 1.28.32 2.51.64 3.79.91.96.21 1.87.37 2.83.48-.96-.16-1.87-.32-2.83-.48-1.28-.27-2.51-.53-3.79-.91-.96-.27-1.87-.53-2.83-.85-1.6-.53-3.15-1.12-4.69-1.81-1.28-.53-2.51-1.17-3.73-1.87-4.96-2.72-9.87-6.4-14.61-11.25.21 2.4.69 4.8 1.49 7.04 3.31 11.25 18.35 34.08 21.6 34.08h10.08c1.33 0 2.24-.48 2.83-1.23.8-1.01 1.01-2.56.96-4.05-.05-.91-.37-4.21-.16-5.12.05-.21.16-1.55.27-1.76 0 0 0-.05.05-.05 2.67.37 5.39 1.07 8.16 1.07 3.31 0 6.67-.27 9.97-.85.59 2.88 2.03 11.89 4.85 11.89l9.17-.05c1.28 0 4.53-.48 5.23-1.44.32-.43.53-.96.64-1.55.53-3.2-.11-6.51-.32-9.71a5.48 5.48 0 0 1 0-1.28c.05-.59.11-1.12.32-1.71.27-.75.85-1.44 1.39-2.03a33.98 33.98 0 0 0 3.31-2.72c3.04-2.99 3.68-3.84 8.05-4.85 2.67-.59 5.12-1.81 7.52-3.04 1.17-.59 1.6-1.55 1.6-2.77v-.16c0-1.6.05-2.99.59-4.59.21-.74.58-1.65.48-2.56zM72 315.01c1.55.11 3.09.16 4.64.21-1.55.01-3.09-.1-4.64-.21zm37.07-6.61c-.27.11-.59.21-.85.32-4.21 1.6-8.91 3.15-13.92 4.32-1.97.48-3.95.85-5.97 1.17-.85.16-1.76.27-2.61.37-1.49.21-2.99.32-4.48.43-.59.05-1.23.05-1.81.11.59 0 1.23-.05 1.81-.11 1.49-.11 2.99-.27 4.48-.43.91-.11 1.76-.27 2.61-.37 2.03-.32 4.05-.75 5.97-1.17 5.12-1.23 9.87-2.77 13.92-4.32.31-.11.58-.21.85-.32 3.68-1.44 7.36-3.04 11.2-3.52-3.84.48-7.52 2.08-11.2 3.52zm13.01-3.68h1.39-1.39zm6.77 1.01c-.43-.16-.91-.27-1.33-.37-.91-.21-1.76-.37-2.72-.53.91.11 1.81.27 2.72.53.48.11.91.21 1.33.37.43.16.85.27 1.33.43-.42-.16-.9-.32-1.33-.43z"/><path fill="none" d="M107.63 263.33l.21-.21"/><path fill="#F6A9C2" d="M36.91 286.48c-.96-.59-1.71-1.49-2.29-2.77 2.19-.96 4.05-2.61 5.55-4.96 1.17-1.87 1.28-4.05.21-5.55-.53-.8-1.92-2.03-4.69-1.76-1.44.16-2.72.8-3.63 1.87-1.71 1.97-2.03 5.07-1.81 7.09.05.32.11.64.16.96-1.76.11-3.09 0-4.91-.32-.8-.16-1.76-.59-2.51-.85l-5.28-2.45c2.29 2.88 10.29 7.15 13.6 6.83.8 1.97 2.03 3.52 3.68 4.53 1.23.75 2.61 1.17 4 1.33.32-1.07.75-2.13 1.39-3.09-1.23-.01-2.46-.27-3.47-.86zm-3.2-6.35c-.21-1.55.11-3.68 1.07-4.75.37-.43.75-.64 1.28-.69h.27c.43 0 .59.11.8.43.27.37.32 1.33-.27 2.24-.96 1.55-1.81 2.56-3.09 3.25-.01-.21-.06-.32-.06-.48z"/><path opacity=".5" fill="#FFF" d="M50.56 273.68c-5.49 4.59-7.31 7.89-8.48 12.32-.16.53-.27 1.07-.37 1.6-.16 1.07-.27 2.13-.21 3.2 0-.05 0-.11.05-.11 1.33-4.96 4.64-9.28 9.76-13.23 3.84-2.93 9.71-5.97 13.76-6.99-1.92-1.12-2.24-2.35-2.35-3.41 0 .01-7.68 2.89-12.16 6.62z"/><path fill="#3B3030" d="M117.23 287.65c-1.33.21-2.13 1.92-1.81 3.79.32 1.87 1.65 3.2 2.99 2.99 1.33-.21 2.13-1.92 1.81-3.79-.33-1.87-1.66-3.25-2.99-2.99z"/><path fill="#F6A9C2" d="M99.79 268.72c3.09 5.28 8.96 7.79 13.92 5.97.53-.21.85-.75.75-1.28-.32-2.19-.37-4.21.11-6.13.43-1.81 1.33-3.52 2.83-5.23 1.07-1.23-.48-3.25-2.35-3.57-2.03-.32-4.16.11-5.65 1.17-5.07 3.63-8.91 7.52-9.33 7.95-.39.43-.6.53-.28 1.12z"/><path fill="#D2758B" d="M107.57 271.49c1.44-1.23 3.2-2.08 5.12-2.24-.11-.59-.21-1.12-.16-1.6.27-1.92 1.17-2.83 2.35-4.37.21-.27.69-1.07.8-1.39.53-1.39-2.19-1.44-2.99-1.23-2.03.43-4.32 2.13-5.71 4.21-1.54 2.3-1.38 5.13.59 6.62z"/><path fill="#010101" d="M91.36 264.08c-5.23-1.71-15.57-1.6-20.8.32-.91.32-1.23 1.28-.59 1.92l.05.05c.48.48 1.28.64 1.97.37 4.32-1.65 13.92-1.97 18.19-.27.64.27 1.44.05 1.87-.43l.05-.05c.54-.63.17-1.59-.74-1.91z"/><defs><path id="a" d="M133.87 299.97c-.16-1.65-2.08-2.13-3.36-2.72-4.91-2.4-4.37-8.43-6.24-12.85-1.49-3.57-3.73-6.83-6.45-9.71-2.88-3.41-3.95-4.48-13.55-9.55-7.2-3.31-15.31-4.91-23.2-4.91-19.47.05-36.11 9.49-42.56 22.83-.43.8-.75 1.65-1.07 2.51a27.288 27.288 0 0 0-1.76 9.71c0 .69.05 1.44.11 2.13 4.69 4.85 9.6 8.53 14.61 11.25 1.23.69 2.51 1.28 3.73 1.87 1.55.69 3.15 1.33 4.69 1.81.96.32 1.87.59 2.83.85 1.28.32 2.51.64 3.79.91.96.21 1.87.37 2.83.48-.96-.16-1.87-.32-2.83-.48-1.28-.27-2.51-.53-3.79-.91-.96-.27-1.87-.53-2.83-.85-1.6-.53-3.15-1.12-4.69-1.81-1.28-.53-2.51-1.17-3.73-1.87-4.96-2.72-9.87-6.4-14.61-11.25.21 2.4.69 4.8 1.49 7.04 3.31 11.25 18.35 34.08 21.6 34.08h10.08c1.33 0 2.24-.48 2.83-1.23.8-1.01 1.01-2.56.96-4.05-.05-.91-.37-4.21-.16-5.12.05-.21.16-1.55.27-1.76 0 0 0-.05.05-.05 2.67.37 5.39 1.07 8.16 1.07 3.31 0 6.67-.27 9.97-.85.59 2.88 2.03 11.89 4.85 11.89l9.17-.05c1.28 0 4.53-.48 5.23-1.44.32-.43.53-.96.64-1.55.53-3.2-.11-6.51-.32-9.71a5.48 5.48 0 0 1 0-1.28c.05-.59.11-1.12.32-1.71.27-.75.85-1.44 1.39-2.03a33.98 33.98 0 0 0 3.31-2.72c3.04-2.99 3.68-3.84 8.05-4.85 2.67-.59 5.12-1.81 7.52-3.04 1.17-.59 1.6-1.55 1.6-2.77v-.16c0-1.6.05-2.99.59-4.59.21-.74.58-1.65.48-2.56zM72 315.01c1.55.11 3.09.16 4.64.21-1.55.01-3.09-.1-4.64-.21zm37.07-6.61c-.27.11-.59.21-.85.32-4.21 1.6-8.91 3.15-13.92 4.32-1.97.48-3.95.85-5.97 1.17-.85.16-1.76.27-2.61.37-1.49.21-2.99.32-4.48.43-.59.05-1.23.05-1.81.11.59 0 1.23-.05 1.81-.11 1.49-.11 2.99-.27 4.48-.43.91-.11 1.76-.27 2.61-.37 2.03-.32 4.05-.75 5.97-1.17 5.12-1.23 9.87-2.77 13.92-4.32.31-.11.58-.21.85-.32 3.68-1.44 7.36-3.04 11.2-3.52-3.84.48-7.52 2.08-11.2 3.52zm13.01-3.68h1.39-1.39zm6.77 1.01c-.43-.16-.91-.27-1.33-.37-.91-.21-1.76-.37-2.72-.53.91.11 1.81.27 2.72.53.48.11.91.21 1.33.37.43.16.85.27 1.33.43-.42-.16-.9-.32-1.33-.43z"/></defs><clipPath id="b"><use xlink:href="#a" overflow="visible"/></clipPath><linearGradient id="c" gradientUnits="userSpaceOnUse" x1="580.925" y1="486.834" x2="580.925" y2="532.985" gradientTransform="translate(-225.533 45.533) scale(.5333)"><stop offset="0" stop-color="#f6a9c2" stop-opacity=".7"/><stop offset="1" stop-color="#b16073"/></linearGradient><path opacity=".53" clip-path="url(#b)" fill="url(#c)" d="M43.47 318.16c5.71 10.13 13.17 20.37 15.31 20.37h10.08c.85 0 2.24-.43 2.67-.96 2.4-2.45.32-7.63 1.07-9.6.05-.21.11-1.39.27-1.6 0 0 0-.05.05-.05 2.67.37 5.39 1.07 8.21 1.07 3.31 0 6.67-.27 9.97-.85.59 2.88 2.03 11.95 4.85 11.95l9.17-.05c1.28 0 4.53-.48 5.23-1.44 1.76-3.36.27-8.37.32-10.99 0-.11-.16-1.55 0-1.55.05-.59.11-1.12.32-1.71.27-.75.85-1.44 1.39-2.03 1.17-.85 2.29-1.76 3.31-2.77 3.04-2.99 3.73-3.89 8.05-4.85 2.67-.59 5.12-1.81 7.52-3.04 1.17-.59 1.6-1.55 1.6-2.77v-.16c-3.41-1.55-6.99-2.61-10.67-2.51-4.85.16-9.33 2.29-13.87 4-4.21 1.6-8.91 3.15-13.92 4.32-17.87 4.21-39.79 3.84-58.67-15.68.21 2.45.69 4.8 1.49 7.04 1.07 3.83 3.42 8.85 6.25 13.86"/><g><defs><path id="d" d="M133.87 299.97c-.16-1.65-2.08-2.13-3.36-2.72-4.91-2.4-4.37-8.43-6.24-12.85-1.49-3.57-3.73-6.83-6.45-9.71-2.88-3.41-3.95-4.48-13.55-9.55-7.2-3.31-15.31-4.91-23.2-4.91-19.47.05-36.11 9.49-42.56 22.83-.43.8-.75 1.65-1.07 2.51a27.288 27.288 0 0 0-1.76 9.71c0 .69.05 1.44.11 2.13 4.69 4.85 9.6 8.53 14.61 11.25 1.23.69 2.51 1.28 3.73 1.87 1.55.69 3.15 1.33 4.69 1.81.96.32 1.87.59 2.83.85 1.28.32 2.51.64 3.79.91.96.21 1.87.37 2.83.48-.96-.16-1.87-.32-2.83-.48-1.28-.27-2.51-.53-3.79-.91-.96-.27-1.87-.53-2.83-.85-1.6-.53-3.15-1.12-4.69-1.81-1.28-.53-2.51-1.17-3.73-1.87-4.96-2.72-9.87-6.4-14.61-11.25.21 2.4.69 4.8 1.49 7.04 3.31 11.25 18.35 34.08 21.6 34.08h10.08c1.33 0 2.24-.48 2.83-1.23.8-1.01 1.01-2.56.96-4.05-.05-.91-.37-4.21-.16-5.12.05-.21.16-1.55.27-1.76 0 0 0-.05.05-.05 2.67.37 5.39 1.07 8.16 1.07 3.31 0 6.67-.27 9.97-.85.59 2.88 2.03 11.89 4.85 11.89l9.17-.05c1.28 0 4.53-.48 5.23-1.44.32-.43.53-.96.64-1.55.53-3.2-.11-6.51-.32-9.71a5.48 5.48 0 0 1 0-1.28c.05-.59.11-1.12.32-1.71.27-.75.85-1.44 1.39-2.03a33.98 33.98 0 0 0 3.31-2.72c3.04-2.99 3.68-3.84 8.05-4.85 2.67-.59 5.12-1.81 7.52-3.04 1.17-.59 1.6-1.55 1.6-2.77v-.16c0-1.6.05-2.99.59-4.59.21-.74.58-1.65.48-2.56zM72 315.01c1.55.11 3.09.16 4.64.21-1.55.01-3.09-.1-4.64-.21zm37.07-6.61c-.27.11-.59.21-.85.32-4.21 1.6-8.91 3.15-13.92 4.32-1.97.48-3.95.85-5.97 1.17-.85.16-1.76.27-2.61.37-1.49.21-2.99.32-4.48.43-.59.05-1.23.05-1.81.11.59 0 1.23-.05 1.81-.11 1.49-.11 2.99-.27 4.48-.43.91-.11 1.76-.27 2.61-.37 2.03-.32 4.05-.75 5.97-1.17 5.12-1.23 9.87-2.77 13.92-4.32.31-.11.58-.21.85-.32 3.68-1.44 7.36-3.04 11.2-3.52-3.84.48-7.52 2.08-11.2 3.52zm13.01-3.68h1.39-1.39zm6.77 1.01c-.43-.16-.91-.27-1.33-.37-.91-.21-1.76-.37-2.72-.53.91.11 1.81.27 2.72.53.48.11.91.21 1.33.37.43.16.85.27 1.33.43-.42-.16-.9-.32-1.33-.43z"/></defs><clipPath id="e"><use xlink:href="#d" overflow="visible"/></clipPath><linearGradient id="f" gradientUnits="userSpaceOnUse" x1="612.894" y1="532.634" x2="622.997" y2="534.452" gradientTransform="translate(-225.533 45.533) scale(.5333)"><stop offset="0" stop-color="#f493aa" stop-opacity="0"/><stop offset=".307" stop-color="#f6a2b8" stop-opacity=".308"/><stop offset=".697" stop-color="#f5aec6" stop-opacity=".697"/><stop offset="1" stop-color="#f7b3cb"/></linearGradient><path opacity=".53" clip-path="url(#e)" fill="url(#f)" d="M110.45 336.61c-2.45 1.07-6.72.59-8.64.21-.27-.05-.59-.16-.85-.27-1.33-.75-1.55-2.67-1.71-4-.16-1.28-.75-3.68.37-4.59 2.88-2.35 7.04-3.15 10.61-3.79.11 0 .21-.05.37-.05-.05 1.23 0 2.4.11 3.52.49 4.17.65 7.32-.26 8.97z"/></g><g><defs><path id="g" d="M133.87 299.97c-.16-1.65-2.08-2.13-3.36-2.72-4.91-2.4-4.37-8.43-6.24-12.85-1.49-3.57-3.73-6.83-6.45-9.71-2.88-3.41-3.95-4.48-13.55-9.55-7.2-3.31-15.31-4.91-23.2-4.91-19.47.05-36.11 9.49-42.56 22.83-.43.8-.75 1.65-1.07 2.51a27.288 27.288 0 0 0-1.76 9.71c0 .69.05 1.44.11 2.13 4.69 4.85 9.6 8.53 14.61 11.25 1.23.69 2.51 1.28 3.73 1.87 1.55.69 3.15 1.33 4.69 1.81.96.32 1.87.59 2.83.85 1.28.32 2.51.64 3.79.91.96.21 1.87.37 2.83.48-.96-.16-1.87-.32-2.83-.48-1.28-.27-2.51-.53-3.79-.91-.96-.27-1.87-.53-2.83-.85-1.6-.53-3.15-1.12-4.69-1.81-1.28-.53-2.51-1.17-3.73-1.87-4.96-2.72-9.87-6.4-14.61-11.25.21 2.4.69 4.8 1.49 7.04 3.31 11.25 18.35 34.08 21.6 34.08h10.08c1.33 0 2.24-.48 2.83-1.23.8-1.01 1.01-2.56.96-4.05-.05-.91-.37-4.21-.16-5.12.05-.21.16-1.55.27-1.76 0 0 0-.05.05-.05 2.67.37 5.39 1.07 8.16 1.07 3.31 0 6.67-.27 9.97-.85.59 2.88 2.03 11.89 4.85 11.89l9.17-.05c1.28 0 4.53-.48 5.23-1.44.32-.43.53-.96.64-1.55.53-3.2-.11-6.51-.32-9.71a5.48 5.48 0 0 1 0-1.28c.05-.59.11-1.12.32-1.71.27-.75.85-1.44 1.39-2.03a33.98 33.98 0 0 0 3.31-2.72c3.04-2.99 3.68-3.84 8.05-4.85 2.67-.59 5.12-1.81 7.52-3.04 1.17-.59 1.6-1.55 1.6-2.77v-.16c0-1.6.05-2.99.59-4.59.21-.74.58-1.65.48-2.56zM72 315.01c1.55.11 3.09.16 4.64.21-1.55.01-3.09-.1-4.64-.21zm37.07-6.61c-.27.11-.59.21-.85.32-4.21 1.6-8.91 3.15-13.92 4.32-1.97.48-3.95.85-5.97 1.17-.85.16-1.76.27-2.61.37-1.49.21-2.99.32-4.48.43-.59.05-1.23.05-1.81.11.59 0 1.23-.05 1.81-.11 1.49-.11 2.99-.27 4.48-.43.91-.11 1.76-.27 2.61-.37 2.03-.32 4.05-.75 5.97-1.17 5.12-1.23 9.87-2.77 13.92-4.32.31-.11.58-.21.85-.32 3.68-1.44 7.36-3.04 11.2-3.52-3.84.48-7.52 2.08-11.2 3.52zm13.01-3.68h1.39-1.39zm6.77 1.01c-.43-.16-.91-.27-1.33-.37-.91-.21-1.76-.37-2.72-.53.91.11 1.81.27 2.72.53.48.11.91.21 1.33.37.43.16.85.27 1.33.43-.42-.16-.9-.32-1.33-.43z"/></defs><clipPath id="h"><use xlink:href="#g" overflow="visible"/></clipPath><linearGradient id="i" gradientUnits="userSpaceOnUse" x1="537.04" y1="536.277" x2="555.379" y2="539.591" gradientTransform="translate(-225.533 45.533) scale(.5333)"><stop offset="0" stop-color="#f493aa" stop-opacity="0"/><stop offset=".307" stop-color="#f6a2b8" stop-opacity=".308"/><stop offset=".697" stop-color="#f5aec6" stop-opacity=".697"/><stop offset="1" stop-color="#f7b3cb"/></linearGradient><path opacity=".53" clip-path="url(#h)" fill="url(#i)" d="M72.59 327.92c-1.44-.75-8.8-.8-11.63 2.83-1.28 1.65-1.23 5.97 1.07 6.77 1.92.69 6.08.48 8.11.27 1.39-.11 1.76-.21 2.45-2.35 0 0 .16-1.49.16-1.71-.11-2.93-.38-4.26-.16-5.81z"/></g><g><linearGradient id="j" gradientUnits="userSpaceOnUse" x1="613.31" y1="535.015" x2="613.31" y2="549.394" gradientTransform="translate(-225.533 45.533) scale(.5333)"><stop offset="0" stop-color="#010101" stop-opacity="0"/><stop offset=".859" stop-color="#010101" stop-opacity=".258"/><stop offset="1" stop-color="#010101" stop-opacity=".3"/></linearGradient><path fill="url(#j)" d="M92 331.33c.8 3.41 2.08 7.15 3.89 7.15l9.17-.05c1.28 0 4.53-.48 5.23-1.44 1.07-2.08.91-4.85.64-7.25"/></g><g><defs><path id="k" d="M72.59 331.39c-.05-.59-.05-1.23-.11-1.76m-19.95 2.56c2.83 3.79 5.23 6.35 6.29 6.35H68.9c1.33 0 2.24-.48 2.83-1.23.8-1.01 1.01-2.56.96-4.05 0-.32-.05-1.07-.11-1.87"/></defs><clipPath id="l"><use xlink:href="#k" overflow="visible"/></clipPath><linearGradient id="m" gradientUnits="userSpaceOnUse" x1="512.325" y1="514.322" x2="512.325" y2="536.292" gradientTransform="translate(-225.533 45.533) scale(.5333)"><stop offset="0" stop-color="#f6a9c2"/><stop offset=".299" stop-color="#e593ab"/><stop offset=".751" stop-color="#d3788f"/><stop offset="1" stop-color="#ce7087"/></linearGradient><path opacity=".53" clip-path="url(#l)" fill="url(#m)" d="M43.47 318.16c2.67 4.8 5.76 9.6 8.48 13.33"/><g><defs><path id="n" d="M72.59 331.39c-.05-.59-.05-1.23-.11-1.76m-19.95 2.56c2.83 3.79 5.23 6.35 6.29 6.35H68.9c1.33 0 2.24-.48 2.83-1.23.8-1.01 1.01-2.56.96-4.05 0-.32-.05-1.07-.11-1.87"/></defs><clipPath id="o"><use xlink:href="#n" overflow="visible"/></clipPath><linearGradient id="p" gradientUnits="userSpaceOnUse" x1="539.755" y1="537.667" x2="539.755" y2="549.498" gradientTransform="translate(-225.533 45.533) scale(.5333)"><stop offset="0" stop-color="#010101" stop-opacity="0"/><stop offset=".859" stop-color="#010101" stop-opacity=".258"/><stop offset="1" stop-color="#010101" stop-opacity=".3"/></linearGradient><path clip-path="url(#o)" fill="url(#p)" d="M51.95 331.49c3.04 4.21 5.71 7.09 6.83 7.09h10.08c.85 0 2.24-.43 2.67-.96 1.44-1.49 1.28-4 1.07-6.19"/></g></g><path fill="#010101" d="M73.28 324.77c4.43 1.44 13.17 1.33 17.6-.32.75-.27 1.01-1.07.48-1.6l-.05-.05c-.43-.43-1.07-.53-1.65-.32-3.63 1.39-11.79 1.71-15.36.27-.53-.21-1.23-.05-1.6.37l-.05.05c-.44.54-.12 1.34.63 1.6z"/></svg>