<svg id="Layer_1" xmlns="http://www.w3.org/2000/svg" viewBox="0 0 728 90"><style>.st0{fill:none;stroke:#fff;stroke-width:2.022}.st1{fill:#fff}.st2{fill:none}</style><circle class="st0" cx="216.57" cy="35.09" r="17.34"/><path class="st1" d="M224.43 33.96h-6.29v-6.29c0-.87-.71-1.58-1.58-1.58-.87 0-1.58.71-1.58 1.58v6.29h-6.29c-.88 0-1.58.71-1.58 1.58 0 .87.71 1.58 1.58 1.58h6.29v6.29c0 .87.71 1.58 1.58 1.58.87 0 1.58-.71 1.58-1.58v-6.29h6.29c.87 0 1.58-.71 1.58-1.58.01-.87-.7-1.58-1.58-1.58"/><path class="st2" d="M207.11 26.09h18.91V45h-18.91z"/></svg>