<svg id="Layer_1" xmlns="http://www.w3.org/2000/svg" viewBox="0 0 728 90"><style>.st0{fill:#f8df1f}</style><path class="st0" d="M70.98 28.58v3.15h4.52v3.25h-4.52v6.37h-3.8V25.4h9.27v3.17h-5.47zM79.68 28.48c-.65 0-1.97-1.32-1.97-1.97 0-.65 1.32-1.95 1.97-1.95s1.97 1.3 1.97 1.95c.01.64-1.32 1.97-1.97 1.97zm-1.85 12.87V30.03h3.7v11.32h-3.7zM88.73 47.12c-3.3 0-5.5-1.88-5.5-4.25 0-1.72 1.15-2.75 2.32-3.05l-1.45-1.45c.1-.73.73-1.35 1.38-1.62-.85-.52-1.65-1.6-1.65-3.02 0-2.4 1.72-4.07 4.67-4.07.68 0 1.2.1 1.67.23.5.12 1.05.2 1.62.2.62 0 1.27-.15 1.77-.37l.68 2.8c-.35.2-.9.37-1.4.35.12.23.27.75.27 1.15 0 1.9-1.5 3.5-3.7 3.65-.45.02-.75.12-.75.42 0 .12.1.27.3.35l1.75.62c2.22.8 3.42 1.92 3.42 4 .03 2.31-2.1 4.06-5.4 4.06zm.78-5.32l-1.35-.37c-.88.02-1.52.65-1.52 1.47 0 .77.67 1.42 2 1.42 1.3 0 2-.6 2-1.25-.01-.52-.41-1.07-1.13-1.27zm-1-9.47c-.82 0-1.45.62-1.45 1.35 0 .75.62 1.35 1.45 1.35.8 0 1.45-.6 1.45-1.35 0-.73-.6-1.35-1.45-1.35zM103.06 41.35V39.8h-.02c-.45 1.2-1.65 1.87-3.47 1.87-2.47 0-3.97-1.37-3.97-3.77v-7.87h3.67v6.95c0 .82.57 1.55 1.7 1.55 1.1 0 1.77-.73 1.77-1.62v-6.87h3.67v11.32h-3.35zM115.78 33.92c-.23-.12-.73-.27-1.1-.27-1.17 0-2.25.62-2.25 2.42v5.27h-3.67V30.03h3.62v2.52h.03c.37-1.77 1.7-2.72 3.22-2.72.35 0 .77.05 1.05.15l-.9 3.94zM128.06 35.05l-1.62 1.65h-5.55c.17.92 1.42 1.97 3.35 1.97 1.17 0 2.37-.35 3.12-.85l-.35 3.15c-.85.45-2.15.75-3.6.75-3.45 0-6.22-2.4-6.22-6.1 0-3.65 2.65-5.97 5.9-5.97 3.15 0 5.07 2.17 5.07 4.52 0 .28-.05.65-.1.88zm-4.98-2.65c-1.07 0-1.97.82-2.2 1.85h3.82c0-.08.02-.15.02-.25.01-.77-.66-1.6-1.64-1.6zM141.28 41.7c-3.42 0-6.17-2.42-6.17-6.02s2.75-6.02 6.17-6.02c3.4 0 6.17 2.42 6.17 6.02s-2.77 6.02-6.17 6.02zm0-8.85c-1.37 0-2.55 1.2-2.55 2.87 0 1.67 1.17 2.87 2.55 2.87 1.35 0 2.55-1.2 2.55-2.87 0-1.67-1.2-2.87-2.55-2.87zM156.71 41.35V39.8h-.02c-.45 1.2-1.65 1.87-3.47 1.87-2.47 0-3.97-1.37-3.97-3.77v-7.87h3.67v6.95c0 .82.57 1.55 1.7 1.55 1.1 0 1.77-.73 1.77-1.62v-6.87h3.67v11.32h-3.35zM170.01 33.03h-2.95v4.2c0 .97.52 1.37 1.5 1.37.43 0 .67-.02.95-.15l-.32 2.77c-.35.17-.97.3-1.7.3-2.55 0-4.07-1.35-4.07-3.6v-4.9h-1.9v-3h1.9V27.6l3.65-1.32v3.75h3.65l-.71 3zM184.56 40.22c-1.72 4.55-3.52 6.2-5.65 7.02L176.66 45c1.82-.7 3.22-2.02 4.15-4.42l-4.07-10.55h3.55l1.65 4.4c.25.65.5 1.42.67 2.22h.05c.23-.77.48-1.57.73-2.22l1.65-4.4h3.37l-3.85 10.19zM194.88 41.7c-3.42 0-6.17-2.42-6.17-6.02s2.75-6.02 6.17-6.02c3.4 0 6.17 2.42 6.17 6.02s-2.77 6.02-6.17 6.02zm0-8.85c-1.37 0-2.55 1.2-2.55 2.87 0 1.67 1.17 2.87 2.55 2.87 1.35 0 2.55-1.2 2.55-2.87 0-1.67-1.2-2.87-2.55-2.87zM210.31 41.35V39.8h-.02c-.45 1.2-1.65 1.87-3.47 1.87-2.47 0-3.97-1.37-3.97-3.77v-7.87h3.67v6.95c0 .82.57 1.55 1.7 1.55 1.1 0 1.77-.73 1.77-1.62v-6.87h3.67v11.32h-3.35zM223.03 33.92a2.82 2.82 0 0 0-1.1-.27c-1.17 0-2.25.62-2.25 2.42v5.27h-3.67V30.03h3.62v2.52h.03c.37-1.77 1.7-2.72 3.22-2.72.35 0 .77.05 1.05.15l-.9 3.94zM235.86 47.12c-3.3 0-5.5-1.88-5.5-4.25 0-1.72 1.15-2.75 2.32-3.05l-1.45-1.45c.1-.73.73-1.35 1.38-1.62-.85-.52-1.65-1.6-1.65-3.02 0-2.4 1.72-4.07 4.67-4.07.67 0 1.2.1 1.67.23.5.12 1.05.2 1.62.2.62 0 1.27-.15 1.77-.37l.67 2.8c-.35.2-.9.37-1.4.35.12.23.27.75.27 1.15 0 1.9-1.5 3.5-3.7 3.65-.45.02-.75.12-.75.42 0 .12.1.27.3.35l1.75.62c2.22.8 3.42 1.92 3.42 4 .03 2.31-2.09 4.06-5.39 4.06zm.77-5.32l-1.35-.37c-.88.02-1.52.65-1.52 1.47 0 .77.67 1.42 2 1.42 1.3 0 2-.6 2-1.25 0-.52-.4-1.07-1.13-1.27zm-1-9.47c-.82 0-1.45.62-1.45 1.35 0 .75.62 1.35 1.45 1.35.8 0 1.45-.6 1.45-1.35 0-.73-.6-1.35-1.45-1.35zM250.18 41.35V39.8h-.02c-.45 1.2-1.65 1.87-3.47 1.87-2.47 0-3.97-1.37-3.97-3.77v-7.87h3.67v6.95c0 .82.57 1.55 1.7 1.55 1.1 0 1.77-.73 1.77-1.62v-6.87h3.67v11.32h-3.35zM263.85 41.85c-.67-.15-1.45-.67-1.75-1.5-.5.92-1.57 1.37-2.95 1.37-2 0-3.77-1.4-3.77-3.75 0-2.07 1.62-3.47 3.87-3.7l2.25-.23v-.38c0-.67-.55-1.12-1.77-1.12-1.1 0-2.32.35-3.15.88l-.65-2.77c.92-.6 2.47-1 3.97-1 3 0 5.12 1.38 5.12 4.1v3.7c0 1.32.5 2.02 1.38 2.35l-2.55 2.05zm-2.34-5.45l-1.37.12c-.95.07-1.38.75-1.38 1.42 0 .6.45 1.1 1.15 1.1.87 0 1.6-.67 1.6-1.65v-.99zM274.68 33.92a2.82 2.82 0 0 0-1.1-.27c-1.17 0-2.25.62-2.25 2.42v5.27h-3.67V30.03h3.62v2.52h.03c.37-1.77 1.7-2.72 3.22-2.72.35 0 .77.05 1.05.15l-.9 3.94zM284.73 41.85c-.67-.15-1.45-.67-1.75-1.5-.5.92-1.57 1.37-2.95 1.37-2 0-3.77-1.4-3.77-3.75 0-2.07 1.62-3.47 3.87-3.7l2.25-.23v-.38c0-.67-.55-1.12-1.77-1.12-1.1 0-2.32.35-3.15.88l-.65-2.77c.92-.6 2.47-1 3.97-1 3 0 5.12 1.38 5.12 4.1v3.7c0 1.32.5 2.02 1.38 2.35l-2.55 2.05zm-2.35-5.45l-1.38.12c-.95.07-1.37.75-1.37 1.42 0 .6.45 1.1 1.15 1.1.87 0 1.6-.67 1.6-1.65v-.99zM295.68 41.35V34.4c0-.82-.55-1.55-1.67-1.55-1.1 0-1.8.7-1.8 1.6v6.9h-3.67V30.03h3.37v1.52h.02c.45-1.2 1.62-1.88 3.45-1.88 2.47 0 3.97 1.4 3.97 3.8v7.87h-3.67zM309.1 33.03h-2.95v4.2c0 .97.52 1.37 1.5 1.37.43 0 .67-.02.95-.15l-.32 2.77c-.35.17-.97.3-1.7.3-2.55 0-4.07-1.35-4.07-3.6v-4.9h-1.9v-3h1.9V27.6l3.65-1.32v3.75h3.65l-.71 3zM321.2 35.05l-1.62 1.65h-5.55c.17.92 1.42 1.97 3.35 1.97 1.17 0 2.37-.35 3.12-.85l-.35 3.15c-.85.45-2.15.75-3.6.75-3.45 0-6.22-2.4-6.22-6.1 0-3.65 2.65-5.97 5.9-5.97 3.15 0 5.07 2.17 5.07 4.52 0 .28-.05.65-.1.88zm-4.97-2.65c-1.07 0-1.97.82-2.2 1.85h3.82c0-.08.03-.15.03-.25 0-.77-.68-1.6-1.65-1.6zM333.4 35.05l-1.62 1.65h-5.55c.17.92 1.42 1.97 3.35 1.97 1.17 0 2.37-.35 3.12-.85l-.35 3.15c-.85.45-2.15.75-3.6.75-3.45 0-6.22-2.4-6.22-6.1 0-3.65 2.65-5.97 5.9-5.97 3.15 0 5.07 2.17 5.07 4.52 0 .28-.05.65-.1.88zm-4.97-2.65c-1.07 0-1.97.82-2.2 1.85h3.82c0-.08.03-.15.03-.25 0-.77-.68-1.6-1.65-1.6zM343.73 41.35v-1.4h-.02c-.62 1.15-1.92 1.72-3.5 1.72-2.77 0-5.45-2.1-5.45-5.97 0-3.65 2.6-6.02 5.75-6.02 1.2 0 2.42.4 2.87.77v-6.9h3.57v17.8h-3.22zm-.35-7.43c-.35-.47-1.1-1.02-2.22-1.02-1.6 0-2.72 1.25-2.72 2.87s1.12 2.87 2.72 2.87c1.07 0 1.82-.58 2.22-1.17v-3.55zM358.85 41.8c-2.32-.1-3.87-1.3-3.87-4.02V23.55h3.62v13.77c0 .92.52 1.42 1.52 1.5l-1.27 2.98zM363.48 28.48c-.65 0-1.97-1.32-1.97-1.97 0-.65 1.32-1.95 1.97-1.95.65 0 1.97 1.3 1.97 1.95 0 .64-1.32 1.97-1.97 1.97zm-1.85 12.87V30.03h3.7v11.32h-3.7zM375.63 26.83c-.42-.17-1.03-.3-1.47-.3-1.35 0-2.05.8-2.05 2.42v1.07h3.25l-.72 3h-2.52v8.32h-3.55v-8.32h-1.72v-3h1.72V28.7c0-3.45 2.22-5.15 5.07-5.15 1.05 0 2.1.12 2.67.37l-.68 2.91zM386.7 35.05l-1.62 1.65h-5.55c.17.92 1.42 1.97 3.35 1.97 1.17 0 2.37-.35 3.12-.85l-.35 3.15c-.85.45-2.15.75-3.6.75-3.45 0-6.22-2.4-6.22-6.1 0-3.65 2.65-5.97 5.9-5.97 3.15 0 5.07 2.17 5.07 4.52 0 .28-.05.65-.1.88zm-4.97-2.65c-1.08 0-1.97.82-2.2 1.85h3.82c0-.08.03-.15.03-.25 0-.77-.68-1.6-1.65-1.6zM396.28 33.03h-2.95v4.2c0 .97.52 1.37 1.5 1.37.42 0 .67-.02.95-.15l-.33 2.77c-.35.17-.97.3-1.7.3-2.55 0-4.07-1.35-4.07-3.6v-4.9h-1.9v-3h1.9V27.6l3.65-1.32v3.75h3.65l-.7 3zM400.15 28.48c-.65 0-1.97-1.32-1.97-1.97 0-.65 1.33-1.95 1.97-1.95s1.97 1.3 1.97 1.95c.01.64-1.32 1.97-1.97 1.97zm-1.85 12.87V30.03h3.7v11.32h-3.7zM418.33 41.35V34.4c0-.82-.4-1.55-1.6-1.55-1.17 0-1.7.7-1.7 1.6v6.9h-3.67V34.4c0-.82-.4-1.55-1.6-1.55-1.17 0-1.7.7-1.7 1.6v6.9h-3.67V30.03h3.4v1.52h.02c.45-1.2 1.58-1.88 3.35-1.88 1.62 0 2.85.65 3.35 1.85.47-1.1 1.8-1.85 3.5-1.85 2.57 0 4 1.4 4 3.8v7.87h-3.68zM434.7 35.05l-1.62 1.65h-5.55c.17.92 1.42 1.97 3.35 1.97 1.17 0 2.37-.35 3.12-.85l-.35 3.15c-.85.45-2.15.75-3.6.75-3.45 0-6.22-2.4-6.22-6.1 0-3.65 2.65-5.97 5.9-5.97 3.15 0 5.07 2.17 5.07 4.52 0 .28-.05.65-.1.88zm-4.97-2.65c-1.08 0-1.97.82-2.2 1.85h3.82c0-.08.03-.15.03-.25 0-.77-.68-1.6-1.65-1.6zM444.15 28.48c-.65 0-1.97-1.32-1.97-1.97 0-.65 1.33-1.95 1.97-1.95s1.97 1.3 1.97 1.95c.01.64-1.32 1.97-1.97 1.97zm-1.85 12.87V30.03h3.7v11.32h-3.7zM455.53 41.35V34.4c0-.82-.55-1.55-1.67-1.55-1.1 0-1.8.7-1.8 1.6v6.9h-3.67V30.03h3.37v1.52h.03c.45-1.2 1.62-1.88 3.45-1.88 2.47 0 3.97 1.4 3.97 3.8v7.87h-3.68zM470.08 33.67c-.75-.47-1.52-.72-2.42-.72-1.6 0-2.88 1.15-2.88 2.8 0 1.62 1.28 2.8 2.95 2.8.95 0 1.67-.2 2.47-.62l-.33 3.12c-.75.35-1.72.55-2.77.55-3.17 0-6.12-2.25-6.12-5.9 0-3.7 2.97-5.92 6.05-5.92 1.5 0 2.72.3 3.72.85l-.67 3.04zM478 41.7c-3.42 0-6.17-2.42-6.17-6.02s2.75-6.02 6.17-6.02c3.4 0 6.17 2.42 6.17 6.02S481.4 41.7 478 41.7zm0-8.85c-1.38 0-2.55 1.2-2.55 2.87 0 1.67 1.17 2.87 2.55 2.87 1.35 0 2.55-1.2 2.55-2.87 0-1.67-1.2-2.87-2.55-2.87zM499.95 41.35V34.4c0-.82-.4-1.55-1.6-1.55-1.17 0-1.7.7-1.7 1.6v6.9h-3.67V34.4c0-.82-.4-1.55-1.6-1.55-1.17 0-1.7.7-1.7 1.6v6.9H486V30.03h3.4v1.52h.02c.45-1.2 1.58-1.88 3.35-1.88 1.62 0 2.85.65 3.35 1.85.47-1.1 1.8-1.85 3.5-1.85 2.57 0 4 1.4 4 3.8v7.87h-3.67zM516.33 35.05l-1.62 1.65h-5.55c.17.92 1.42 1.97 3.35 1.97 1.17 0 2.37-.35 3.12-.85l-.35 3.15c-.85.45-2.15.75-3.6.75-3.45 0-6.22-2.4-6.22-6.1 0-3.65 2.65-5.97 5.9-5.97 3.15 0 5.07 2.17 5.07 4.52-.01.28-.05.65-.1.88zm-4.98-2.65c-1.08 0-1.97.82-2.2 1.85h3.82c0-.08.03-.15.03-.25 0-.77-.67-1.6-1.65-1.6z"/></svg>