<svg id="Layer_1" xmlns="http://www.w3.org/2000/svg" viewBox="0 0 728 90"><style>.st0{fill:#f8df1f}</style><path class="st0" d="M186.63 67.6c-1.55 0-2.67-.33-3.6-.8l-.32-3.25c1 .7 2.3 1.22 3.55 1.22.67 0 1.1-.35 1.1-.78 0-.47-.37-.67-1.02-.87-2.17-.62-3.47-1.72-3.47-3.7 0-2.22 1.8-3.65 4.25-3.65 1.4 0 2.77.38 3.35.67l-.62 2.7c-.55-.3-1.45-.62-2.35-.62-.6 0-1 .28-1 .73 0 .42.3.65 1 .82 2.55.67 3.6 1.95 3.6 3.85-.02 1.93-1.42 3.68-4.47 3.68zM198.46 67.7c-3.42 0-6.17-2.42-6.17-6.02 0-3.6 2.75-6.02 6.17-6.02 3.4 0 6.17 2.42 6.17 6.02 0 3.59-2.77 6.02-6.17 6.02zm0-8.85c-1.37 0-2.55 1.2-2.55 2.87 0 1.67 1.17 2.88 2.55 2.88 1.35 0 2.55-1.2 2.55-2.88 0-1.67-1.2-2.87-2.55-2.87zM219.03 66.22c-1.72 4.55-3.52 6.2-5.65 7.02L211.13 71c1.82-.7 3.22-2.02 4.15-4.42l-4.07-10.55h3.55l1.65 4.4c.25.65.5 1.42.67 2.22h.05c.23-.77.48-1.57.73-2.22l1.65-4.4h3.37l-3.85 10.19zM229.36 67.7c-3.42 0-6.17-2.42-6.17-6.02 0-3.6 2.75-6.02 6.17-6.02 3.4 0 6.17 2.42 6.17 6.02 0 3.59-2.77 6.02-6.17 6.02zm0-8.85c-1.37 0-2.55 1.2-2.55 2.87 0 1.67 1.17 2.88 2.55 2.88 1.35 0 2.55-1.2 2.55-2.88 0-1.67-1.2-2.87-2.55-2.87zM244.78 67.35V65.8h-.02c-.45 1.2-1.65 1.88-3.47 1.88-2.47 0-3.97-1.38-3.97-3.77v-7.87h3.67v6.95c0 .83.57 1.55 1.7 1.55 1.1 0 1.77-.72 1.77-1.62v-6.87h3.67v11.32h-3.35zM263.13 67.35V60.4c0-.83-.55-1.55-1.67-1.55-1.1 0-1.8.7-1.8 1.6v6.9h-3.67V56.03h3.37v1.52h.02c.45-1.2 1.62-1.87 3.45-1.87 2.47 0 3.97 1.4 3.97 3.8v7.87h-3.67zM279.48 61.05l-1.62 1.65h-5.55c.17.92 1.42 1.97 3.35 1.97 1.17 0 2.37-.35 3.12-.85l-.35 3.15c-.85.45-2.15.75-3.6.75-3.45 0-6.22-2.4-6.22-6.1 0-3.65 2.65-5.97 5.9-5.97 3.15 0 5.07 2.17 5.07 4.52 0 .28-.05.65-.1.88zm-4.97-2.65c-1.07 0-1.97.83-2.2 1.85h3.82c0-.07.03-.15.03-.25 0-.78-.68-1.6-1.65-1.6zM287.18 67.45h-2.75l-4.35-11.42h3.55l1.6 4.32c.23.6.45 1.45.62 2.2h.05c.17-.72.42-1.6.65-2.2l1.6-4.32h3.4l-4.37 11.42zM302.73 61.05l-1.62 1.65h-5.55c.17.92 1.42 1.97 3.35 1.97 1.17 0 2.37-.35 3.12-.85l-.35 3.15c-.85.45-2.15.75-3.6.75-3.45 0-6.22-2.4-6.22-6.1 0-3.65 2.65-5.97 5.9-5.97 3.15 0 5.07 2.17 5.07 4.52 0 .28-.05.65-.1.88zm-4.97-2.65c-1.07 0-1.97.83-2.2 1.85h3.82c0-.07.02-.15.02-.25.01-.78-.67-1.6-1.64-1.6zM311.66 59.92c-.23-.12-.72-.28-1.1-.28-1.17 0-2.25.62-2.25 2.42v5.27h-3.67v-11.3h3.62v2.52h.03c.37-1.77 1.7-2.72 3.22-2.72.35 0 .77.05 1.05.15l-.9 3.94zM326.46 59.92c-.23-.12-.72-.28-1.1-.28-1.17 0-2.25.62-2.25 2.42v5.27h-3.67v-11.3h3.62v2.52h.03c.37-1.77 1.7-2.72 3.22-2.72.35 0 .77.05 1.05.15l-.9 3.94zM336.03 67.35V65.8h-.02c-.45 1.2-1.65 1.88-3.47 1.88-2.47 0-3.97-1.38-3.97-3.77v-7.87h3.67v6.95c0 .83.57 1.55 1.7 1.55 1.1 0 1.77-.72 1.77-1.62v-6.87h3.67v11.32h-3.35zM348.88 67.35V60.4c0-.83-.55-1.55-1.67-1.55-1.1 0-1.8.7-1.8 1.6v6.9h-3.67V56.03h3.37v1.52h.02c.45-1.2 1.62-1.87 3.45-1.87 2.47 0 3.97 1.4 3.97 3.8v7.87h-3.67zM366.16 67.7c-3.42 0-6.17-2.42-6.17-6.02 0-3.6 2.75-6.02 6.17-6.02 3.4 0 6.17 2.42 6.17 6.02 0 3.59-2.78 6.02-6.17 6.02zm0-8.85c-1.38 0-2.55 1.2-2.55 2.87 0 1.67 1.17 2.88 2.55 2.88 1.35 0 2.55-1.2 2.55-2.88 0-1.67-1.2-2.87-2.55-2.87zM381.58 67.35V65.8h-.03c-.45 1.2-1.65 1.88-3.47 1.88-2.47 0-3.97-1.38-3.97-3.77v-7.87h3.67v6.95c0 .83.58 1.55 1.7 1.55 1.1 0 1.77-.72 1.77-1.62v-6.87h3.67v11.32h-3.34zM394.88 59.02h-2.95v4.2c0 .97.52 1.38 1.5 1.38.42 0 .67-.03.95-.15l-.33 2.77c-.35.17-.97.3-1.7.3-2.55 0-4.07-1.35-4.07-3.6v-4.9h-1.9v-3h1.9V53.6l3.65-1.32v3.75h3.65l-.7 2.99zM398.38 67.7c-.67 0-2.07-1.4-2.07-2.07 0-.65 1.4-2.05 2.07-2.05s2.07 1.4 2.07 2.05c.01.67-1.39 2.07-2.07 2.07z"/></svg>