<svg id="Layer_1" xmlns="http://www.w3.org/2000/svg" viewBox="0 0 728 90"><style>.st0{fill:#f8df1f}</style><path class="st0" d="M205.45 59.1v3.15h4.52v3.25h-4.52v6.37h-3.8V55.93h9.27v3.17h-5.47zM214.15 59c-.65 0-1.97-1.32-1.97-1.97 0-.65 1.32-1.95 1.97-1.95s1.97 1.3 1.97 1.95c.01.65-1.32 1.97-1.97 1.97zm-1.85 12.88V60.55h3.7v11.32h-3.7zM225.53 71.88v-6.95c0-.83-.55-1.55-1.67-1.55-1.1 0-1.8.7-1.8 1.6v6.9h-3.67V60.55h3.37v1.52h.02c.45-1.2 1.62-1.87 3.45-1.87 2.47 0 3.97 1.4 3.97 3.8v7.87h-3.67zM233.43 59c-.65 0-1.97-1.32-1.97-1.97 0-.65 1.32-1.95 1.97-1.95s1.97 1.3 1.97 1.95c0 .65-1.32 1.97-1.97 1.97zm-1.85 12.88V60.55h3.7v11.32h-3.7zM241.3 72.12c-1.55 0-2.67-.33-3.6-.8l-.32-3.25c1 .7 2.3 1.22 3.55 1.22.67 0 1.1-.35 1.1-.78 0-.47-.37-.67-1.02-.87-2.17-.62-3.47-1.72-3.47-3.7 0-2.22 1.8-3.65 4.25-3.65 1.4 0 2.77.38 3.35.67l-.62 2.7c-.55-.3-1.45-.62-2.35-.62-.6 0-1 .28-1 .73 0 .42.3.65 1 .82 2.55.67 3.6 1.95 3.6 3.85-.02 1.94-1.42 3.68-4.47 3.68zM254.78 71.88v-6.95c0-.83-.58-1.55-1.7-1.55-1.1 0-1.77.7-1.77 1.6v6.9h-3.67v-17.8h3.62v7.52h.02c.58-.88 1.62-1.4 3.2-1.4 2.5 0 3.97 1.4 3.97 3.8v7.87h-3.67zM274.97 64.2c-.75-.48-1.52-.73-2.42-.73-1.6 0-2.87 1.15-2.87 2.8 0 1.62 1.27 2.8 2.95 2.8.95 0 1.67-.2 2.47-.62l-.32 3.12c-.75.35-1.72.55-2.77.55-3.17 0-6.12-2.25-6.12-5.9 0-3.7 2.97-5.92 6.05-5.92 1.5 0 2.72.3 3.72.85l-.69 3.05zM285.32 72.38c-.67-.15-1.45-.67-1.75-1.5-.5.92-1.57 1.38-2.95 1.38-2 0-3.77-1.4-3.77-3.75 0-2.07 1.62-3.47 3.87-3.7l2.25-.22v-.39c0-.67-.55-1.12-1.77-1.12-1.1 0-2.32.35-3.15.88l-.65-2.77c.92-.6 2.47-1 3.97-1 3 0 5.12 1.38 5.12 4.1v3.7c0 1.33.5 2.02 1.38 2.35l-2.55 2.04zm-2.34-5.45l-1.38.12c-.95.08-1.37.75-1.37 1.42 0 .6.45 1.1 1.15 1.1.87 0 1.6-.67 1.6-1.65v-.99zM292.95 72.33c-2.32-.1-3.87-1.3-3.87-4.02V54.08h3.62v13.77c0 .92.52 1.42 1.52 1.5l-1.27 2.98zM304.12 64.2c-.75-.48-1.52-.73-2.42-.73-1.6 0-2.87 1.15-2.87 2.8 0 1.62 1.27 2.8 2.95 2.8.95 0 1.67-.2 2.47-.62l-.32 3.12c-.75.35-1.72.55-2.77.55-3.17 0-6.12-2.25-6.12-5.9 0-3.7 2.97-5.92 6.05-5.92 1.5 0 2.72.3 3.72.85l-.69 3.05zM314.02 71.88v-1.55H314c-.45 1.2-1.65 1.88-3.47 1.88-2.47 0-3.97-1.38-3.97-3.77v-7.87h3.67v6.95c0 .83.57 1.55 1.7 1.55 1.1 0 1.77-.72 1.77-1.62v-6.87h3.67V71.9h-3.35zM323.65 72.33c-2.32-.1-3.87-1.3-3.87-4.02V54.08h3.62v13.77c0 .92.52 1.42 1.52 1.5l-1.27 2.98zM334.47 72.38c-.67-.15-1.45-.67-1.75-1.5-.5.92-1.57 1.38-2.95 1.38-2 0-3.77-1.4-3.77-3.75 0-2.07 1.62-3.47 3.87-3.7l2.25-.22v-.39c0-.67-.55-1.12-1.77-1.12-1.1 0-2.32.35-3.15.88l-.65-2.77c.92-.6 2.47-1 3.97-1 3 0 5.12 1.38 5.12 4.1v3.7c0 1.33.5 2.02 1.38 2.35l-2.55 2.04zm-2.35-5.45l-1.37.12c-.95.08-1.38.75-1.38 1.42 0 .6.45 1.1 1.15 1.1.87 0 1.6-.67 1.6-1.65v-.99zM345.6 63.55h-2.95v4.2c0 .97.52 1.38 1.5 1.38.43 0 .67-.03.95-.15l-.32 2.77c-.35.17-.97.3-1.7.3-2.55 0-4.07-1.35-4.07-3.6v-4.9h-1.9v-3h1.9v-2.42l3.65-1.32v3.75h3.65l-.71 2.99zM349.47 59c-.65 0-1.97-1.32-1.97-1.97 0-.65 1.32-1.95 1.97-1.95s1.97 1.3 1.97 1.95c.01.65-1.32 1.97-1.97 1.97zm-1.85 12.88V60.55h3.7v11.32h-3.7zM360.85 71.88v-6.95c0-.83-.55-1.55-1.67-1.55-1.1 0-1.8.7-1.8 1.6v6.9h-3.67V60.55h3.37v1.52h.02c.45-1.2 1.62-1.87 3.45-1.87 2.47 0 3.97 1.4 3.97 3.8v7.87h-3.67zM371.62 77.65c-3.3 0-5.5-1.87-5.5-4.25 0-1.72 1.15-2.75 2.33-3.05L367 68.9c.1-.72.72-1.35 1.38-1.62-.85-.53-1.65-1.6-1.65-3.02 0-2.4 1.72-4.07 4.67-4.07.67 0 1.2.1 1.67.22.5.12 1.05.2 1.62.2.62 0 1.27-.15 1.77-.38l.67 2.8c-.35.2-.9.38-1.4.35.12.22.28.75.28 1.15 0 1.9-1.5 3.5-3.7 3.65-.45.03-.75.12-.75.42 0 .12.1.28.3.35l1.75.62c2.22.8 3.42 1.92 3.42 4 .02 2.33-2.11 4.08-5.41 4.08zm.78-5.32l-1.35-.38c-.87.02-1.52.65-1.52 1.47 0 .77.67 1.42 2 1.42 1.3 0 2-.6 2-1.25-.01-.52-.41-1.07-1.13-1.26zm-1-9.48c-.83 0-1.45.62-1.45 1.35 0 .75.62 1.35 1.45 1.35.8 0 1.45-.6 1.45-1.35 0-.72-.6-1.35-1.45-1.35zM379.87 72.22c-.67 0-2.07-1.4-2.07-2.07 0-.65 1.4-2.05 2.07-2.05s2.07 1.4 2.07 2.05c.01.68-1.39 2.07-2.07 2.07z"/></svg>