<svg id="Layer_1" xmlns="http://www.w3.org/2000/svg" viewBox="0 0 728 90"><style>.st0{fill:#28bdef}</style><path class="st0" d="M605.46 51.26c-5.23 0-9.46 4.24-9.46 9.46v9.3c0 5.22 4.23 9.46 9.46 9.46h88.64c5.22 0 9.46-4.24 9.46-9.46v-9.3c0-5.22-4.24-9.46-9.46-9.46h-88.64z"/><path d="M625.43 60.95c1.15 0 2.14.07 3.02.9.86.81 1.23 1.92 1.23 3.07 0 1.07-.33 2.11-1.04 2.91-.79.87-1.77 1.11-2.9 1.11h-2.63v-7.99h2.32zm-.45 6.48h.63c.78 0 1.28-.15 1.71-.85.31-.51.44-1.13.44-1.72 0-.63-.19-1.3-.57-1.8-.43-.56-.91-.64-1.57-.64h-.64v5.01zM632.72 68.94h-1.86v-7.99h1.86v7.99zM638.36 63.23c-.23-.67-.66-.94-1.37-.94-.5 0-1.11.13-1.11.75 0 .58.7.72 1.15.8.65.14 1.53.3 2.08.68.65.43 1.05 1.09 1.05 1.89 0 .78-.37 1.53-.99 2-.64.5-1.51.65-2.32.65-1.5 0-2.86-.65-3.22-2.21l1.72-.4c.23.84.84 1.13 1.67 1.13.54 0 1.25-.2 1.25-.86 0-.66-.91-.79-1.4-.9-1.42-.29-2.82-.71-2.82-2.46 0-.75.29-1.4.86-1.87.58-.49 1.27-.65 2-.65 1.4 0 2.54.49 3.03 1.88l-1.58.51zM645.81 64.05c-.01-.88-.31-1.71-1.34-1.71-1.32 0-1.44 1.72-1.44 2.69 0 1.09.13 2.5 1.54 2.5.87 0 1.28-.73 1.39-1.5l1.82.12c-.2 1.83-1.46 2.91-3.29 2.91-2.38 0-3.53-1.93-3.53-4.11 0-2.21 1.19-4.11 3.59-4.11 2 0 3.03 1.17 3.24 3.09l-1.98.12zM649.49 67.79c-.58-.83-.84-1.86-.84-2.86 0-2.12 1.06-4.1 3.42-4.1 1.06 0 1.9.35 2.54 1.22.57.78.86 1.91.86 2.88 0 .91-.25 2.01-.76 2.77-.62.91-1.56 1.35-2.64 1.35s-1.95-.37-2.58-1.26zm1.37-4.52c-.19.48-.26 1.16-.26 1.67 0 1 .15 2.6 1.47 2.6.64 0 .99-.31 1.2-.91.19-.49.25-1.15.25-1.68 0-.58-.06-1.27-.29-1.8-.23-.54-.57-.78-1.15-.78-.65-.01-1 .31-1.22.9zM660.22 68.94h-2.01l-2.4-7.99h1.99l1.61 5.7 1.65-5.7h1.57l-2.41 7.99zM665.3 62.5v1.62h3.03v1.5h-3.03v1.77h3.84v1.55h-5.71v-7.99h5.71v1.55h-3.84zM672.09 68.94h-1.86v-7.99h3.36c.71 0 1.43.01 2.05.41.65.43 1.01 1.21 1.01 1.99 0 .91-.52 1.75-1.39 2.06l1.48 3.53h-2.07l-1.22-3.16h-1.36v3.16zm0-4.53h1.03c.38 0 .8.04 1.14-.16.3-.19.47-.56.47-.91 0-.31-.19-.65-.45-.82-.31-.2-.85-.15-1.2-.15h-.98v2.04z"/></svg>