<svg id="Layer_1" xmlns="http://www.w3.org/2000/svg" viewBox="0 0 728 90"><style>.st0{fill:#fff}.st1{fill:#000001}</style><path class="st0" d="M136.59 58.11h-1.85c-.94 0-1.7.96-1.7 1.83v-2.87c0-.86-.76-1.83-1.7-1.83h-1.85c-.94 0-1.7.97-1.7 1.83v-1.83c0-.86-.76-1.83-1.7-1.83h-1.85c-.94 0-1.7.97-1.7 1.83v-7.09c0-1.33-1.17-2.4-2.62-2.4-1.45 0-2.62 1.08-2.62 2.4v13.98c-1.63-1.12-4-3.14-6.18-2.19-1.55.68-1.2 2.76.35 4.3 2.71 2.7 5.56 8.07 6.61 11.16 1.66 4.87 2.6 7.01 2.6 7.01h14s1.55-5 3.02-8.04c.17-.36.55-1.06.55-3.49V59.94c.04-.87-.72-1.83-1.66-1.83"/><path class="st1" d="M121.34 81.47h12.7c.48-1.47 1.69-5.07 2.86-7.51.16-.33.46-.94.46-3.09V59.93c0-.38-.38-.89-.76-.89h-1.85c-.38 0-.76.51-.76.89a.939.939 0 1 1-1.88 0v-2.87c0-.38-.38-.89-.76-.89h-1.85c-.39 0-.76.51-.76.89a.939.939 0 1 1-1.88 0v-1.83c0-.38-.38-.89-.76-.89h-1.85c-.39 0-.76.51-.76.89a.939.939 0 1 1-1.88 0v-7.09c0-.81-.75-1.47-1.68-1.47s-1.68.66-1.68 1.47v13.98c0 .35-.19.67-.5.83a.94.94 0 0 1-.97-.06c-.19-.13-.39-.28-.61-.43-1.15-.82-2.58-1.85-3.85-1.85-.29 0-.56.06-.82.17-.25.11-.38.26-.42.5-.1.51.19 1.42 1.06 2.28 2.72 2.72 5.67 8.1 6.84 11.52 1.17 3.41 1.98 5.47 2.36 6.39m13.38 1.87h-14c-.37 0-.71-.22-.86-.56-.04-.09-.98-2.24-2.63-7.08-.96-2.81-3.71-8.12-6.39-10.8-1.2-1.21-1.81-2.72-1.58-3.96.16-.85.7-1.51 1.51-1.87a3.97 3.97 0 0 1 1.57-.32c1.48 0 2.86.77 4.05 1.57V48.15c0-1.84 1.6-3.34 3.56-3.34s3.56 1.5 3.56 3.34v4.46c.24-.08.5-.13.76-.13h1.85c1.22 0 2.19.95 2.51 2 .27-.11.57-.17.88-.17h1.85c1.51 0 2.63 1.46 2.63 2.76v.24c.24-.08.49-.13.76-.13h1.85c1.51 0 2.63 1.46 2.63 2.76v10.94c0 2.58-.41 3.42-.63 3.87-1.43 2.96-2.97 7.89-2.98 7.94-.13.39-.49.65-.9.65"/><path class="st1" d="M122.56 60.56c-.52 0-.94-.42-.94-.94v-4.39c0-.52.42-.94.94-.94s.93.42.93.94v4.39c.01.52-.41.94-.93.94M127.8 62.39c-.52 0-.94-.42-.94-.94v-4.39a.939.939 0 1 1 1.88 0v4.39c0 .52-.42.94-.94.94M133.04 65.26c-.52 0-.94-.42-.94-.94v-4.39c0-.52.42-.94.94-.94s.93.42.93.94v4.39c.01.52-.41.94-.93.94"/></svg>