<svg id="Layer_1" xmlns="http://www.w3.org/2000/svg" xmlns:xlink="http://www.w3.org/1999/xlink" viewBox="0 0 728 90"><style>.st0,.st1{fill:#fff}.st1{clip-path:url(#SVGID_2_)}.st2{clip-path:url(#SVGID_4_);fill:url(#SVGID_5_)}.st3{clip-path:url(#SVGID_7_);fill:url(#SVGID_8_)}.st4{clip-path:url(#SVGID_10_);fill:url(#SVGID_11_)}</style><path class="st0" d="M655.6 15.98v3.58h-6.34v17.17h-4.01V19.55h-6.34v-3.58h16.69zm1.7 20.75h4.01V15.98h-4.01v20.75zm24.74 0h-4.13l-2.13-5.11h-7.03l-2.11 5.11h-4.03l8.84-21.03h1.75l8.84 21.03zm19.43 0h-4.13l-2.13-5.11h-7.03l-2.11 5.11h-4.03l8.84-21.03h1.75l8.84 21.03zm-27.07-8.5l-2.12-5.17-2.14 5.17h4.26zm19.44 0l-2.12-5.17-2.14 5.17h4.26z"/><defs><path id="SVGID_1_" d="M606.27 11.02h97.49V43.8h-97.49z"/></defs><clipPath id="SVGID_2_"><use xlink:href="#SVGID_1_" overflow="visible"/></clipPath><path class="st1" d="M624.38 38.07c1.78 0 3.39-.74 4.55-1.92l4.91-4.91a6.342 6.342 0 0 0 1.84-4.45v-15.3H620.4c-1.78 0-3.39.74-4.55 1.92l-4.91 4.91a6.342 6.342 0 0 0-1.84 4.45v15.3h15.28z"/><defs><path id="SVGID_3_" d="M622.19 12.84a5.03 5.03 0 0 0-5.03 5.01v1.71h10.47v10.46h1.68c2.78 0 5.03-2.25 5.03-5.03V12.84h-12.15z"/></defs><clipPath id="SVGID_4_"><use xlink:href="#SVGID_3_" overflow="visible"/></clipPath><linearGradient id="SVGID_5_" gradientUnits="userSpaceOnUse" x1=".528" y1="90.594" x2="1.528" y2="90.594" gradientTransform="scale(16.8965 -16.8965) rotate(45 129.81 88.39)"><stop offset="0" stop-color="#9adbf8"/><stop offset=".1" stop-color="#9adbf8"/><stop offset=".9" stop-color="#009ad8"/><stop offset="1" stop-color="#009ad8"/></linearGradient><path class="st2" d="M608.57 21.43l17.17-17.18 17.18 17.18-17.18 17.18z"/><g><defs><path id="SVGID_6_" d="M629.3 31.37h-13.49l-5.36 5.36h13.93c1.35 0 2.63-.54 3.59-1.51l4.51-4.51-.12-.12c-.91.49-1.95.78-3.06.78"/></defs><clipPath id="SVGID_7_"><use xlink:href="#SVGID_6_" overflow="visible"/></clipPath><linearGradient id="SVGID_8_" gradientUnits="userSpaceOnUse" x1=".964" y1="90.524" x2="1.964" y2="90.524" gradientTransform="matrix(22.0274 0 0 -22.0274 589.215 2027.665)"><stop offset="0" stop-color="#00aee6"/><stop offset=".111" stop-color="#00aae1"/><stop offset=".255" stop-color="#009fd5"/><stop offset=".419" stop-color="#008ec3"/><stop offset=".596" stop-color="#0078ae"/><stop offset=".783" stop-color="#015f98"/><stop offset=".9" stop-color="#084e8a"/><stop offset="1" stop-color="#084e8a"/></linearGradient><path class="st3" d="M610.45 30.58h22.03v6.14h-22.03z"/></g><g><defs><path id="SVGID_9_" d="M611.96 19.21c-.98.96-1.51 2.23-1.51 3.59v13.93l5.36-5.36v-13.5c0-1.11.28-2.15.78-3.06l-.12-.12-4.51 4.52z"/></defs><clipPath id="SVGID_10_"><use xlink:href="#SVGID_9_" overflow="visible"/></clipPath><linearGradient id="SVGID_11_" gradientUnits="userSpaceOnUse" x1=".524" y1="91.036" x2="1.524" y2="91.036" gradientTransform="matrix(0 -22.0277 -22.0277 0 2618.835 48.272)"><stop offset="0" stop-color="#007ebd"/><stop offset=".211" stop-color="#0073b1"/><stop offset=".63" stop-color="#005c97"/><stop offset=".85" stop-color="#084e8a"/><stop offset="1" stop-color="#084e8a"/></linearGradient><path class="st4" d="M610.45 14.7h6.14v22.03h-6.14z"/></g></svg>