<?xml version="1.0" encoding="utf-8"?>
<!-- Generator: Adobe Illustrator 22.1.0, SVG Export Plug-In . SVG Version: 6.00 Build 0)  -->
<svg version="1.1" id="Layer_1" xmlns="http://www.w3.org/2000/svg" xmlns:xlink="http://www.w3.org/1999/xlink" x="0px" y="0px"
	 viewBox="0 0 201 200.3" style="enable-background:new 0 0 201 200.3;" xml:space="preserve">
<style type="text/css">
	.st0{fill:#2B2E38;}
	.st1{fill:#D1D4D1;}
	.st2{fill:#F0C41A;}
	.st3{fill:#BDC2C7;}
	.st4{fill:none;}
</style>
<path class="st0" d="M112.4,40.5c-0.9,0.3-1.9,0.3-2.8-0.2c-0.8-0.5-1.4-1.3-1.5-2.3l-2.9-28.8c-0.2-1-0.7-2-1.6-2.6
	c-0.8-0.6-1.9-0.8-2.9-0.6l-10,2.2c-1.1,0.2-2.2-0.1-3-0.9c-0.8-0.8-1-1.9-0.7-2.9c0.3-1,1.2-1.8,2.3-2l10.2-2.2
	c2.7-0.5,5.6,0.1,7.8,1.7c2.3,1.6,3.7,4,4.1,6.7l2.9,28.9C114.4,38.8,113.6,40,112.4,40.5"/>
<path class="st0" d="M176.3,45.2c-1.4,0.5-3.1,0-3.8-1.2l-5.3-8.6c-0.6-0.7-1.4-1.2-2.4-1.4c-1.1-0.2-2.3,0.1-3.2,0.8l-23.8,17.7
	c-0.9,0.7-2.1,0.8-3.1,0.4c-1-0.4-1.8-1.3-1.9-2.3c-0.2-1.1,0.3-2.1,1.2-2.8L157.8,30c2.3-1.6,5.2-2.3,8-1.9
	c2.7,0.4,5.1,1.9,6.6,4.1l5.5,8.7c0.5,0.7,0.6,1.7,0.3,2.5C177.8,44.2,177.1,44.9,176.3,45.2z"/>
<path class="st1" d="M198.4,110.1c4.2,11.1,0.7,21.7-6.2,30.4c-5.7,8-15,13-25.1,13.6c-2,2-4.4,3.8-6.9,5.2
	c-19.1,11.4-35-0.3-43.1-8.7l0,0c-2.2,3.7-4.7,7.2-7.5,10.6c-5,6.2-11.2,11.6-18.1,15.8c-10.5,6.2-21.5,8.1-31,4.3
	c-9.4-3.9-15.6-12.8-18.1-24.3c-1.6-7.7-1.7-15.7-0.4-23.4c0.6-4.2,1.6-8.4,2.9-12.4c-12,0.2-31.9-2.7-36.4-23.8
	c-0.6-2.7-0.9-5.5-0.7-8.3l0,0c-6.5-7.4-9.1-17.2-7-26.7c1.8-10.7,7.5-20.5,18.8-25.2c2.4-0.9,4.9-1.6,7.5-2.1
	c22-3.8,44,8.3,59,23.6c0.2-3.2,1-6.4,2.3-9.3c2.7-5.9,10.4-10.6,18.4-14c5.5-2.2,11.3-4.1,17.1-5.4c3.2-0.9,6.6,0.4,8.3,3.1
	c2.9,5.1,5.5,10.4,7.6,15.8c2.9,7.9,4.7,16.4,2,22.3c-1.3,3-3.2,5.7-5.5,8c22-0.2,46.3,6.7,58.6,24.5
	C196.3,105.6,197.5,107.8,198.4,110.1"/>
<path class="st2" d="M139.7,48.7c2.9,7.9,4.7,16.4,2,22.3c-1.3,3-3.2,5.7-5.5,8c-1.3,0-2.6,0-3.8,0.1c-3.1,0.1-6.2,0.4-9.3,0.9
	c-5.9-9.5-17.5-14.2-28.8-11.8l0,0c-1.8-2.5-3.7-4.8-5.7-7.1l0,0c-0.8-0.9-1.6-1.8-2.5-2.7l0,0c0.2-3.2,1-6.4,2.3-9.3
	c2.7-5.9,10.4-10.6,18.4-14c5.5-2.2,11.3-4.1,17.1-5.4c3.2-0.9,6.6,0.4,8.3,3.1C135.1,38,137.6,43.2,139.7,48.7"/>
<path class="st3" d="M104,84.5c-1.2,4.1-2.9,8-5.2,11.6C100,92,101.8,88.1,104,84.5"/>
<path class="st3" d="M104,84.5c-1.2,4.1-2.9,8-5.2,11.6C100,92,101.8,88.1,104,84.5"/>
<path class="st0" d="M68.9,181c-7.6,4.6-13.5,11.3-16.9,19.3c3.7-7.8,4.8-16.5,3-24.9L68.9,181z"/>
<path class="st0" d="M109.7,161.1L109.7,161.1c-5,6.2-11.1,11.6-18.1,15.8c-4.7-8.1-12.1-14.4-21-18c-8.9-3.7-18.8-4.4-28.2-2
	c-1.6-7.7-1.7-15.7-0.4-23.4c12.9-3,26.4-1.8,38.6,3.2C92.9,141.5,103.1,150.1,109.7,161.1"/>
<path class="st2" d="M91.6,176.9c-10.5,6.2-21.5,8.1-31,4.3c-9.4-3.9-15.6-12.8-18.1-24.3c9.4-2.4,19.3-1.6,28.2,2
	C79.5,162.5,86.9,168.8,91.6,176.9"/>
<path class="st0" d="M123.2,80c-2.4,0.3-4.8,0.8-7.1,1.3c-3.5,0.6-7,1.5-10.4,2.6l0,0c0,0,0,0-0.1,0c-0.8,0-1.3,0.1-1.5,0.4
	c0,0-0.1,0.1-0.1,0.2c0-0.1,0.1-0.1,0.1-0.2c0.1-0.3-0.2-0.8-0.8-1.3l0-0.1c-1.5-3.1-3.2-6.1-5.2-8.9c-1.2-2-2.5-3.9-3.8-5.7l0,0
	C105.6,65.8,117.2,70.5,123.2,80L123.2,80z"/>
<path class="st2" d="M111.4,143.5c1.7,2.5,3.6,4.8,5.8,7l0,0c-2.2,3.7-4.7,7.2-7.5,10.6l0,0c-6.6-11-16.8-19.6-29-24.5
	c-12.2-5-25.7-6.1-38.6-3.2c0.6-4.2,1.6-8.4,2.9-12.4c3.1,0,6.2-0.3,9.2-0.8c0,0,30.3-1.6,44.7-24
	C91.7,121.6,111.4,143.5,111.4,143.5"/>
<path class="st1" d="M199.2,110c4.2,11.1,0.7,21.7-6.2,30.4c-5.7,8-15,13-25.1,13.6c5.1-4.8,7.9-11.4,7.8-18.2
	c0-2.2-0.3-4.5-0.9-6.7c-6.2-24.9-36-40.8-58.7-44.1c-3.2-0.6-6.4-1-9.7-1.2c3.4-1.1,6.8-2,10.4-2.6c2.3-0.5,4.6-1,7.1-1.3
	c3.1-0.5,6.2-0.8,9.3-0.9c1.3-0.1,2.5-0.1,3.8-0.1c22-0.2,46.3,6.7,58.6,24.5C197.1,105.4,198.3,107.6,199.2,110"/>
<path class="st1" d="M104.1,82.8c-2.4-2.1-4.9-4.1-7.6-5.9C78.4,63.5,45.8,53.8,22.6,66.8c-2,1.1-4,2.5-5.7,4
	c-5.2,4.6-8.3,11.1-8.4,17.9c-6.5-7.4-9.1-17.2-7-26.7c1.8-10.7,7.5-20.5,18.8-25.2c2.4-0.9,4.9-1.6,7.5-2.1c22-3.8,44,8.3,59,23.6
	l0,0c0.9,0.9,1.7,1.7,2.5,2.7l0,0c2.1,2.2,4,4.6,5.7,7.1c1.4,1.8,2.7,3.8,3.8,5.7C100.9,76.7,102.6,79.7,104.1,82.8"/>
<rect x="0" y="0" class="st4" width="201" height="200.3"/>
</svg>
