<?xml version="1.0" encoding="utf-8"?>
<!-- Generator: Adobe Illustrator 22.1.0, SVG Export Plug-In . SVG Version: 6.00 Build 0)  -->
<svg version="1.1" id="Layer_1" xmlns="http://www.w3.org/2000/svg" xmlns:xlink="http://www.w3.org/1999/xlink" x="0px" y="0px"
	 viewBox="0 0 300 600" style="enable-background:new 0 0 300 600;" xml:space="preserve">
<style type="text/css">
	.st0{fill:#231F20;}
</style>
<g>
	<path class="st0" d="M32.4,57.5h-6.3v-17h5.6c2.6,0,5,1.7,5,4.5c0,1-0.5,2.3-1.4,2.8c1.5,0.5,3,2.2,3,4.4
		C38.2,55.5,35.6,57.5,32.4,57.5z M31,43.5h-1.2V47H31c1,0,1.9-0.5,1.9-1.7C32.9,44,32,43.5,31,43.5z M31.7,50h-1.9v4.5h1.9
		c1.3,0,2.5-0.7,2.5-2.2C34.2,50.7,33,50,31.7,50z"/>
	<path class="st0" d="M48.3,57.5v-1.7h0c-0.5,1.3-1.8,2-3.7,2c-2.6,0-4.2-1.5-4.2-4v-8.4h3.9v7.4c0,0.9,0.6,1.7,1.8,1.7
		c1.2,0,1.9-0.8,1.9-1.7v-7.3h3.9v12.1H48.3z"/>
	<path class="st0" d="M62.6,48.6h-3.1v4.5c0,1,0.6,1.5,1.6,1.5c0.5,0,0.7,0,1-0.2l-0.3,3c-0.4,0.2-1,0.3-1.8,0.3
		c-2.7,0-4.3-1.4-4.3-3.8v-5.2h-2v-3.2h2v-2.6l3.9-1.4v4h3.9L62.6,48.6z"/>
	<path class="st0" d="M72.7,43.7c-0.7,0-2.1-1.4-2.1-2.1c0-0.7,1.4-2.1,2.1-2.1s2.1,1.4,2.1,2.1C74.9,42.3,73.4,43.7,72.7,43.7z
		 M70.8,57.5V45.4h3.9v12.1H70.8z"/>
	<path class="st0" d="M85.7,42c-0.5-0.2-1.1-0.3-1.6-0.3c-1.4,0-2.2,0.9-2.2,2.6v1.1h3.5l-0.8,3.2H82v8.9h-3.8v-8.9h-1.8v-3.2h1.8
		V44c0-3.7,2.4-5.5,5.4-5.5c1.1,0,2.2,0.1,2.9,0.4L85.7,42z"/>
	<path class="st0" d="M101,48.6h-3.1v4.5c0,1,0.6,1.5,1.6,1.5c0.5,0,0.7,0,1-0.2l-0.3,3c-0.4,0.2-1,0.3-1.8,0.3
		c-2.7,0-4.3-1.4-4.3-3.8v-5.2h-2v-3.2h2v-2.6l3.9-1.4v4h3.9L101,48.6z"/>
	<path class="st0" d="M110.7,57.5v-7.4c0-0.9-0.6-1.7-1.8-1.7c-1.2,0-1.9,0.7-1.9,1.7v7.4h-3.9v-19h3.9v8h0c0.6-0.9,1.7-1.5,3.4-1.5
		c2.7,0,4.2,1.5,4.2,4.1v8.4H110.7z"/>
	<path class="st0" d="M128.2,50.7l-1.7,1.8h-5.9c0.2,1,1.5,2.1,3.6,2.1c1.3,0,2.5-0.4,3.3-0.9l-0.4,3.4c-0.9,0.5-2.3,0.8-3.8,0.8
		c-3.7,0-6.6-2.6-6.6-6.5c0-3.9,2.8-6.4,6.3-6.4c3.4,0,5.4,2.3,5.4,4.8C128.3,50.1,128.3,50.5,128.2,50.7z M122.9,47.9
		c-1.1,0-2.1,0.9-2.3,2h4.1c0-0.1,0-0.2,0-0.3C124.7,48.8,123.9,47.9,122.9,47.9z"/>
	<path class="st0" d="M137.2,56.3c-1.8,4.9-3.8,6.6-6,7.5l-2.4-2.4c1.9-0.7,3.4-2.2,4.4-4.7l-4.3-11.3h3.8l1.8,4.7
		c0.3,0.7,0.5,1.5,0.7,2.4h0.1c0.2-0.8,0.5-1.7,0.8-2.4l1.8-4.7h3.6L137.2,56.3z"/>
	<path class="st0" d="M162.1,57.6h-2.7l-1.6-4.8c-0.2-0.7-0.5-1.6-0.7-2.5H157c-0.2,0.9-0.4,1.8-0.7,2.5l-1.6,4.8h-2.6L148,45.4h3.6
		L153,50c0.2,0.7,0.5,1.5,0.6,2.3h0.1c0.1-0.7,0.3-1.6,0.6-2.3l1.5-4.6h3l1.5,4.6c0.2,0.7,0.4,1.6,0.6,2.3h0.1
		c0.2-0.8,0.4-1.6,0.6-2.3l1.5-4.6h3.3L162.1,57.6z"/>
	<path class="st0" d="M178.5,50.7l-1.7,1.8h-5.9c0.2,1,1.5,2.1,3.6,2.1c1.3,0,2.5-0.4,3.3-0.9l-0.4,3.4c-0.9,0.5-2.3,0.8-3.8,0.8
		c-3.7,0-6.6-2.6-6.6-6.5c0-3.9,2.8-6.4,6.3-6.4c3.4,0,5.4,2.3,5.4,4.8C178.6,50.1,178.5,50.5,178.5,50.7z M173.1,47.9
		c-1.1,0-2.1,0.9-2.3,2h4.1c0-0.1,0-0.2,0-0.3C174.9,48.8,174.2,47.9,173.1,47.9z"/>
	<path class="st0" d="M188,49.5c-0.2-0.1-0.8-0.3-1.2-0.3c-1.3,0-2.4,0.7-2.4,2.6v5.6h-3.9V45.4h3.9v2.7h0c0.4-1.9,1.8-2.9,3.4-2.9
		c0.4,0,0.8,0.1,1.1,0.2L188,49.5z"/>
	<path class="st0" d="M201.1,50.7l-1.7,1.8h-5.9c0.2,1,1.5,2.1,3.6,2.1c1.3,0,2.5-0.4,3.3-0.9l-0.4,3.4c-0.9,0.5-2.3,0.8-3.8,0.8
		c-3.7,0-6.6-2.6-6.6-6.5c0-3.9,2.8-6.4,6.3-6.4c3.4,0,5.4,2.3,5.4,4.8C201.2,50.1,201.2,50.5,201.1,50.7z M195.8,47.9
		c-1.1,0-2.1,0.9-2.3,2h4.1c0-0.1,0-0.2,0-0.3C197.6,48.8,196.9,47.9,195.8,47.9z"/>
</g>
<g>
	<path class="st0" d="M39.2,85.6h-2.7l-1.6-4.8c-0.2-0.7-0.5-1.6-0.7-2.5h-0.1c-0.2,0.9-0.4,1.8-0.7,2.5l-1.6,4.8h-2.6l-4.2-12.2
		h3.6l1.5,4.6c0.2,0.7,0.5,1.5,0.6,2.3h0.1c0.1-0.7,0.3-1.6,0.6-2.3l1.5-4.6h3l1.5,4.6c0.2,0.7,0.4,1.6,0.6,2.3H38
		c0.2-0.8,0.4-1.6,0.6-2.3l1.5-4.6h3.3L39.2,85.6z"/>
	<path class="st0" d="M50.5,85.8c-3.7,0-6.6-2.6-6.6-6.4s2.9-6.4,6.6-6.4c3.6,0,6.6,2.6,6.6,6.4S54.1,85.8,50.5,85.8z M50.5,76.4
		c-1.5,0-2.7,1.3-2.7,3.1c0,1.8,1.3,3.1,2.7,3.1c1.4,0,2.7-1.3,2.7-3.1C53.2,77.7,51.9,76.4,50.5,76.4z"/>
	<path class="st0" d="M66.5,77.5c-0.2-0.1-0.8-0.3-1.2-0.3c-1.3,0-2.4,0.7-2.4,2.6v5.6H59V73.4h3.9v2.7h0c0.4-1.9,1.8-2.9,3.4-2.9
		c0.4,0,0.8,0.1,1.1,0.2L66.5,77.5z"/>
	<path class="st0" d="M76.3,85.5l-3.6-4.9h0v4.9h-3.9v-19h3.9v11.8h0l3.6-4.9h4.3l-4.2,5.9l4.5,6.2H76.3z"/>
	<path class="st0" d="M84.2,71.7c-0.7,0-2.1-1.4-2.1-2.1c0-0.7,1.4-2.1,2.1-2.1s2.1,1.4,2.1,2.1C86.3,70.3,84.9,71.7,84.2,71.7z
		 M82.2,85.5V73.4h3.9v12.1H82.2z"/>
	<path class="st0" d="M96.3,85.5v-7.4c0-0.9-0.6-1.7-1.8-1.7c-1.2,0-1.9,0.7-1.9,1.7v7.4h-3.9V73.4h3.6V75h0c0.5-1.3,1.7-2,3.7-2
		c2.6,0,4.2,1.5,4.2,4.1v8.4H96.3z"/>
	<path class="st0" d="M107.9,91.6c-3.5,0-5.9-2-5.9-4.5c0-1.8,1.2-2.9,2.5-3.3l-1.5-1.5c0.1-0.8,0.8-1.4,1.5-1.7
		c-0.9-0.6-1.8-1.7-1.8-3.2c0-2.6,1.8-4.3,5-4.3c0.7,0,1.3,0.1,1.8,0.2c0.5,0.1,1.1,0.2,1.7,0.2c0.7,0,1.4-0.2,1.9-0.4l0.7,3
		c-0.4,0.2-1,0.4-1.5,0.4c0.1,0.2,0.3,0.8,0.3,1.2c0,2-1.6,3.7-3.9,3.9c-0.5,0-0.8,0.1-0.8,0.5c0,0.1,0.1,0.3,0.3,0.4L110,83
		c2.4,0.9,3.7,2.1,3.7,4.3C113.7,89.8,111.4,91.6,107.9,91.6z M108.7,85.9l-1.4-0.4c-0.9,0-1.6,0.7-1.6,1.6c0,0.8,0.7,1.5,2.1,1.5
		c1.4,0,2.1-0.6,2.1-1.3C109.9,86.7,109.5,86.2,108.7,85.9z M107.6,75.8c-0.9,0-1.5,0.7-1.5,1.4c0,0.8,0.7,1.4,1.5,1.4
		c0.9,0,1.5-0.6,1.5-1.4C109.2,76.5,108.5,75.8,107.6,75.8z"/>
	<path class="st0" d="M129.4,76.6h-3.1v4.5c0,1,0.6,1.5,1.6,1.5c0.5,0,0.7,0,1-0.2l-0.3,3c-0.4,0.2-1,0.3-1.8,0.3
		c-2.7,0-4.3-1.4-4.3-3.8v-5.2h-2v-3.2h2v-2.6l3.9-1.4v4h3.9L129.4,76.6z"/>
	<path class="st0" d="M137.4,85.8c-3.7,0-6.6-2.6-6.6-6.4s2.9-6.4,6.6-6.4c3.6,0,6.6,2.6,6.6,6.4S141,85.8,137.4,85.8z M137.4,76.4
		c-1.5,0-2.7,1.3-2.7,3.1c0,1.8,1.3,3.1,2.7,3.1c1.4,0,2.7-1.3,2.7-3.1C140.1,77.7,138.8,76.4,137.4,76.4z"/>
	<path class="st0" d="M150.9,91.6c-3.5,0-5.9-2-5.9-4.5c0-1.8,1.2-2.9,2.5-3.3l-1.5-1.5c0.1-0.8,0.8-1.4,1.5-1.7
		c-0.9-0.6-1.8-1.7-1.8-3.2c0-2.6,1.8-4.3,5-4.3c0.7,0,1.3,0.1,1.8,0.2c0.5,0.1,1.1,0.2,1.7,0.2c0.7,0,1.4-0.2,1.9-0.4l0.7,3
		c-0.4,0.2-1,0.4-1.5,0.4c0.1,0.2,0.3,0.8,0.3,1.2c0,2-1.6,3.7-3.9,3.9c-0.5,0-0.8,0.1-0.8,0.5c0,0.1,0.1,0.3,0.3,0.4l1.9,0.7
		c2.4,0.9,3.7,2.1,3.7,4.3C156.7,89.8,154.5,91.6,150.9,91.6z M151.8,85.9l-1.4-0.4c-0.9,0-1.6,0.7-1.6,1.6c0,0.8,0.7,1.5,2.1,1.5
		c1.4,0,2.1-0.6,2.1-1.3C153,86.7,152.5,86.2,151.8,85.9z M150.7,75.8c-0.9,0-1.5,0.7-1.5,1.4c0,0.8,0.7,1.4,1.5,1.4
		c0.9,0,1.5-0.6,1.5-1.4C152.2,76.5,151.6,75.8,150.7,75.8z"/>
	<path class="st0" d="M169.3,78.7l-1.7,1.8h-5.9c0.2,1,1.5,2.1,3.6,2.1c1.3,0,2.5-0.4,3.3-0.9l-0.4,3.4c-0.9,0.5-2.3,0.8-3.8,0.8
		c-3.7,0-6.6-2.6-6.6-6.5c0-3.9,2.8-6.4,6.3-6.4c3.4,0,5.4,2.3,5.4,4.8C169.4,78.1,169.4,78.5,169.3,78.7z M164,75.9
		c-1.1,0-2.1,0.9-2.3,2h4.1c0-0.1,0-0.2,0-0.3C165.8,76.8,165.1,75.9,164,75.9z"/>
	<path class="st0" d="M179.6,76.6h-3.1v4.5c0,1,0.6,1.5,1.6,1.5c0.5,0,0.7,0,1-0.2l-0.3,3c-0.4,0.2-1,0.3-1.8,0.3
		c-2.7,0-4.3-1.4-4.3-3.8v-5.2h-2v-3.2h2v-2.6l3.9-1.4v4h3.9L179.6,76.6z"/>
	<path class="st0" d="M189.4,85.5v-7.4c0-0.9-0.6-1.7-1.8-1.7c-1.2,0-1.9,0.7-1.9,1.7v7.4h-3.9v-19h3.9v8h0c0.6-0.9,1.7-1.5,3.4-1.5
		c2.7,0,4.2,1.5,4.2,4.1v8.4H189.4z"/>
	<path class="st0" d="M206.8,78.7l-1.7,1.8h-5.9c0.2,1,1.5,2.1,3.6,2.1c1.3,0,2.5-0.4,3.3-0.9l-0.4,3.4c-0.9,0.5-2.3,0.8-3.8,0.8
		c-3.7,0-6.6-2.6-6.6-6.5c0-3.9,2.8-6.4,6.3-6.4c3.4,0,5.4,2.3,5.4,4.8C206.9,78.1,206.9,78.5,206.8,78.7z M201.5,75.9
		c-1.1,0-2.1,0.9-2.3,2h4.1c0-0.1,0-0.2,0-0.3C203.3,76.8,202.6,75.9,201.5,75.9z"/>
	<path class="st0" d="M216.4,77.5c-0.2-0.1-0.8-0.3-1.2-0.3c-1.3,0-2.4,0.7-2.4,2.6v5.6h-3.9V73.4h3.9v2.7h0
		c0.4-1.9,1.8-2.9,3.4-2.9c0.4,0,0.8,0.1,1.1,0.2L216.4,77.5z"/>
</g>
</svg>
