<?xml version="1.0" encoding="utf-8"?>
<!-- Generator: Adobe Illustrator 22.1.0, SVG Export Plug-In . SVG Version: 6.00 Build 0)  -->
<svg version="1.1" id="Layer_1" xmlns="http://www.w3.org/2000/svg" xmlns:xlink="http://www.w3.org/1999/xlink" x="0px" y="0px"
	 viewBox="0 0 300 600" style="enable-background:new 0 0 300 600;" xml:space="preserve">
<style type="text/css">
	.st0{fill:#231F20;}
</style>
<g>
	<path class="st0" d="M32,52.4V60h-4v-7.5L21.6,43h4.4l2.8,4.1c0.4,0.6,0.9,1.4,1.2,2.1h0.1c0.3-0.7,0.9-1.5,1.3-2.1l2.8-4.1h4.1
		L32,52.4z"/>
	<path class="st0" d="M43.7,60.4c-3.7,0-6.6-2.6-6.6-6.4s2.9-6.4,6.6-6.4c3.6,0,6.6,2.6,6.6,6.4S47.3,60.4,43.7,60.4z M43.7,51
		c-1.5,0-2.7,1.3-2.7,3.1c0,1.8,1.3,3.1,2.7,3.1c1.4,0,2.7-1.3,2.7-3.1C46.4,52.2,45.1,51,43.7,51z"/>
	<path class="st0" d="M60.1,60v-1.7h0c-0.5,1.3-1.8,2-3.7,2c-2.6,0-4.2-1.5-4.2-4v-8.4h3.9v7.4c0,0.9,0.6,1.7,1.8,1.7
		c1.2,0,1.9-0.8,1.9-1.7v-7.3h3.9V60H60.1z"/>
	<path class="st0" d="M73.7,52.1c-0.2-0.1-0.8-0.3-1.2-0.3c-1.3,0-2.4,0.7-2.4,2.6V60h-3.9V47.9h3.9v2.7h0c0.4-1.9,1.8-2.9,3.4-2.9
		c0.4,0,0.8,0.1,1.1,0.2L73.7,52.1z"/>
	<path class="st0" d="M88.2,60.4c-3.7,0-6.6-2.6-6.6-6.4s2.9-6.4,6.6-6.4c3.6,0,6.6,2.6,6.6,6.4S91.8,60.4,88.2,60.4z M88.2,51
		c-1.5,0-2.7,1.3-2.7,3.1c0,1.8,1.3,3.1,2.7,3.1c1.4,0,2.7-1.3,2.7-3.1C90.9,52.2,89.6,51,88.2,51z"/>
	<path class="st0" d="M100.9,60.5c-2.5-0.1-4.1-1.4-4.1-4.3V41h3.9v14.7c0,1,0.6,1.5,1.6,1.6L100.9,60.5z"/>
	<path class="st0" d="M112.7,60v-1.5h0c-0.7,1.2-2.1,1.8-3.7,1.8c-3,0-5.8-2.2-5.8-6.4c0-3.9,2.8-6.4,6.1-6.4c1.3,0,2.6,0.4,3.1,0.8
		V41h3.8v19H112.7z M112.4,52.1c-0.4-0.5-1.2-1.1-2.4-1.1c-1.7,0-2.9,1.3-2.9,3.1c0,1.7,1.2,3.1,2.9,3.1c1.1,0,1.9-0.6,2.4-1.3V52.1
		z"/>
	<path class="st0" d="M132.1,52.1c-0.2-0.1-0.8-0.3-1.2-0.3c-1.3,0-2.4,0.7-2.4,2.6V60h-3.9V47.9h3.9v2.7h0c0.4-1.9,1.8-2.9,3.4-2.9
		c0.4,0,0.8,0.1,1.1,0.2L132.1,52.1z"/>
	<path class="st0" d="M145.3,53.3l-1.7,1.8h-5.9c0.2,1,1.5,2.1,3.6,2.1c1.3,0,2.5-0.4,3.3-0.9l-0.4,3.4c-0.9,0.5-2.3,0.8-3.8,0.8
		c-3.7,0-6.6-2.6-6.6-6.5c0-3.9,2.8-6.4,6.3-6.4c3.4,0,5.4,2.3,5.4,4.8C145.4,52.7,145.3,53.1,145.3,53.3z M139.9,50.5
		c-1.1,0-2.1,0.9-2.3,2h4.1c0-0.1,0-0.2,0-0.3C141.7,51.4,141,50.5,139.9,50.5z"/>
	<path class="st0" d="M155.5,51.1h-3.1v4.5c0,1,0.6,1.5,1.6,1.5c0.5,0,0.7,0,1-0.2l-0.3,3c-0.4,0.2-1,0.3-1.8,0.3
		c-2.7,0-4.3-1.4-4.3-3.8v-5.2h-2v-3.2h2v-2.6l3.9-1.4v4h3.9L155.5,51.1z"/>
	<path class="st0" d="M159.6,46.3c-0.7,0-2.1-1.4-2.1-2.1c0-0.7,1.4-2.1,2.1-2.1c0.7,0,2.1,1.4,2.1,2.1
		C161.7,44.9,160.3,46.3,159.6,46.3z M157.7,60V47.9h3.9V60H157.7z"/>
	<path class="st0" d="M171.7,52.1c-0.2-0.1-0.8-0.3-1.2-0.3c-1.3,0-2.4,0.7-2.4,2.6V60h-3.9V47.9h3.9v2.7h0c0.4-1.9,1.8-2.9,3.4-2.9
		c0.4,0,0.8,0.1,1.1,0.2L171.7,52.1z"/>
	<path class="st0" d="M184.8,53.3l-1.7,1.8h-5.9c0.2,1,1.5,2.1,3.6,2.1c1.3,0,2.5-0.4,3.3-0.9l-0.4,3.4c-0.9,0.5-2.3,0.8-3.8,0.8
		c-3.7,0-6.6-2.6-6.6-6.5c0-3.9,2.8-6.4,6.3-6.4c3.4,0,5.4,2.3,5.4,4.8C184.9,52.7,184.8,53.1,184.8,53.3z M179.5,50.5
		c-1.1,0-2.1,0.9-2.3,2h4.1c0-0.1,0-0.2,0-0.3C181.2,51.4,180.5,50.5,179.5,50.5z"/>
	<path class="st0" d="M201.7,60v-7.4c0-0.9-0.4-1.7-1.7-1.7c-1.3,0-1.8,0.7-1.8,1.7V60h-3.9v-7.4c0-0.9-0.4-1.7-1.7-1.7
		c-1.3,0-1.8,0.7-1.8,1.7V60h-3.9V47.9h3.6v1.6h0c0.5-1.3,1.7-2,3.6-2c1.7,0,3,0.7,3.6,2c0.5-1.2,1.9-2,3.7-2c2.7,0,4.3,1.5,4.3,4.1
		V60H201.7z"/>
	<path class="st0" d="M219.2,53.3l-1.7,1.8h-5.9c0.2,1,1.5,2.1,3.6,2.1c1.3,0,2.5-0.4,3.3-0.9l-0.4,3.4c-0.9,0.5-2.3,0.8-3.8,0.8
		c-3.7,0-6.6-2.6-6.6-6.5c0-3.9,2.8-6.4,6.3-6.4c3.4,0,5.4,2.3,5.4,4.8C219.3,52.7,219.3,53.1,219.2,53.3z M213.9,50.5
		c-1.1,0-2.1,0.9-2.3,2h4.1c0-0.1,0-0.2,0-0.3C215.7,51.4,214.9,50.5,213.9,50.5z"/>
	<path class="st0" d="M228.9,60v-7.4c0-0.9-0.6-1.7-1.8-1.7c-1.2,0-1.9,0.7-1.9,1.7V60h-3.9V47.9h3.6v1.6h0c0.5-1.3,1.7-2,3.7-2
		c2.6,0,4.2,1.5,4.2,4.1V60H228.9z"/>
	<path class="st0" d="M243.2,51.1h-3.1v4.5c0,1,0.6,1.5,1.6,1.5c0.5,0,0.7,0,1-0.2l-0.3,3c-0.4,0.2-1,0.3-1.8,0.3
		c-2.7,0-4.3-1.4-4.3-3.8v-5.2h-2v-3.2h2v-2.6l3.9-1.4v4h3.9L243.2,51.1z"/>
</g>
<g>
	<path class="st0" d="M31.1,88.6c-0.7-0.2-1.5-0.7-1.9-1.6c-0.5,1-1.7,1.5-3.1,1.5c-2.1,0-4-1.5-4-4c0-2.2,1.7-3.7,4.1-3.9l2.4-0.2
		v-0.4c0-0.7-0.6-1.2-1.9-1.2c-1.2,0-2.5,0.4-3.4,0.9l-0.7-3c1-0.6,2.6-1.1,4.2-1.1c3.2,0,5.5,1.5,5.5,4.4v3.9
		c0,1.4,0.5,2.2,1.5,2.5L31.1,88.6z M28.6,82.8l-1.5,0.1c-1,0.1-1.5,0.8-1.5,1.5c0,0.6,0.5,1.2,1.2,1.2c0.9,0,1.7-0.7,1.7-1.8V82.8z
		"/>
	<path class="st0" d="M44.1,79.8c-0.8-0.5-1.6-0.8-2.6-0.8c-1.7,0-3.1,1.2-3.1,3c0,1.7,1.4,3,3.1,3c1,0,1.8-0.2,2.6-0.7l-0.3,3.3
		c-0.8,0.4-1.8,0.6-3,0.6c-3.4,0-6.5-2.4-6.5-6.3c0-3.9,3.2-6.3,6.5-6.3c1.6,0,2.9,0.3,4,0.9L44.1,79.8z"/>
	<path class="st0" d="M55.8,79.8c-0.8-0.5-1.6-0.8-2.6-0.8c-1.7,0-3.1,1.2-3.1,3c0,1.7,1.4,3,3.1,3c1,0,1.8-0.2,2.6-0.7l-0.3,3.3
		c-0.8,0.4-1.8,0.6-3,0.6c-3.4,0-6.5-2.4-6.5-6.3c0-3.9,3.2-6.3,6.5-6.3c1.6,0,2.9,0.3,4,0.9L55.8,79.8z"/>
	<path class="st0" d="M64.3,88.4c-3.7,0-6.6-2.6-6.6-6.4s2.9-6.4,6.6-6.4c3.6,0,6.6,2.6,6.6,6.4S67.9,88.4,64.3,88.4z M64.3,79
		c-1.5,0-2.7,1.3-2.7,3.1c0,1.8,1.3,3.1,2.7,3.1c1.4,0,2.7-1.3,2.7-3.1C67,80.2,65.7,79,64.3,79z"/>
	<path class="st0" d="M80.7,88v-1.7h0c-0.5,1.3-1.8,2-3.7,2c-2.6,0-4.2-1.5-4.2-4v-8.4h3.9v7.4c0,0.9,0.6,1.7,1.8,1.7
		c1.2,0,1.9-0.8,1.9-1.7v-7.3h3.9V88H80.7z"/>
	<path class="st0" d="M94.5,88v-7.4c0-0.9-0.6-1.7-1.8-1.7c-1.2,0-1.9,0.7-1.9,1.7V88h-3.9V75.9h3.6v1.6h0c0.5-1.3,1.7-2,3.7-2
		c2.6,0,4.2,1.5,4.2,4.1V88H94.5z"/>
	<path class="st0" d="M108.8,79.1h-3.1v4.5c0,1,0.6,1.5,1.6,1.5c0.5,0,0.7,0,1-0.2l-0.3,3c-0.4,0.2-1,0.3-1.8,0.3
		c-2.7,0-4.3-1.4-4.3-3.8v-5.2h-2v-3.2h2v-2.6l3.9-1.4v4h3.9L108.8,79.1z"/>
	<path class="st0" d="M114.7,88.3c-1.7,0-2.9-0.3-3.8-0.9l-0.3-3.5c1.1,0.7,2.5,1.3,3.8,1.3c0.7,0,1.2-0.4,1.2-0.8
		c0-0.5-0.4-0.7-1.1-0.9c-2.3-0.7-3.7-1.8-3.7-3.9c0-2.4,1.9-3.9,4.5-3.9c1.5,0,3,0.4,3.6,0.7l-0.7,2.9c-0.6-0.3-1.5-0.7-2.5-0.7
		c-0.6,0-1.1,0.3-1.1,0.8c0,0.5,0.3,0.7,1.1,0.9c2.7,0.7,3.8,2.1,3.8,4.1C119.4,86.4,117.9,88.3,114.7,88.3z"/>
	<path class="st0" d="M142.2,88v-7.4c0-0.9-0.4-1.7-1.7-1.7c-1.3,0-1.8,0.7-1.8,1.7V88h-3.9v-7.4c0-0.9-0.4-1.7-1.7-1.7
		c-1.3,0-1.8,0.7-1.8,1.7V88h-3.9V75.9h3.6v1.6h0c0.5-1.3,1.7-2,3.6-2c1.7,0,3,0.7,3.6,2c0.5-1.2,1.9-2,3.7-2c2.7,0,4.3,1.5,4.3,4.1
		V88H142.2z"/>
	<path class="st0" d="M157.1,88.6c-0.7-0.2-1.5-0.7-1.9-1.6c-0.5,1-1.7,1.5-3.1,1.5c-2.1,0-4-1.5-4-4c0-2.2,1.7-3.7,4.1-3.9l2.4-0.2
		v-0.4c0-0.7-0.6-1.2-1.9-1.2c-1.2,0-2.5,0.4-3.4,0.9l-0.7-3c1-0.6,2.6-1.1,4.2-1.1c3.2,0,5.5,1.5,5.5,4.4v3.9
		c0,1.4,0.5,2.2,1.5,2.5L157.1,88.6z M154.6,82.8l-1.5,0.1c-1,0.1-1.5,0.8-1.5,1.5c0,0.6,0.5,1.2,1.2,1.2c0.9,0,1.7-0.7,1.7-1.8
		V82.8z"/>
	<path class="st0" d="M168,86.8c-1.8,4.9-3.8,6.6-6,7.5l-2.4-2.4c1.9-0.7,3.4-2.2,4.4-4.7l-4.3-11.3h3.8l1.8,4.7
		c0.3,0.7,0.5,1.5,0.7,2.4h0.1c0.2-0.8,0.5-1.7,0.8-2.4l1.8-4.7h3.6L168,86.8z"/>
	<path class="st0" d="M185.5,88.4c-2.6,0-4.6-0.9-5.8-1.8V69h3.8v7.3c0.5-0.4,1.8-0.8,3-0.8c3.3,0,6.1,2.4,6.1,6.2
		C192.6,85.5,190.2,88.4,185.5,88.4z M185.8,79c-1.1,0-2,0.5-2.3,0.9v4.6c0.4,0.3,1.2,0.6,2,0.6c2,0,3.3-1.4,3.3-3.1
		C188.7,80.3,187.5,79,185.8,79z"/>
	<path class="st0" d="M205.6,81.3l-1.7,1.8h-5.9c0.2,1,1.5,2.1,3.6,2.1c1.3,0,2.5-0.4,3.3-0.9l-0.4,3.4c-0.9,0.5-2.3,0.8-3.8,0.8
		c-3.7,0-6.6-2.6-6.6-6.5c0-3.9,2.8-6.4,6.3-6.4c3.4,0,5.4,2.3,5.4,4.8C205.7,80.7,205.7,81.1,205.6,81.3z M200.3,78.5
		c-1.1,0-2.1,0.9-2.3,2h4.1c0-0.1,0-0.2,0-0.3C202.1,79.4,201.3,78.5,200.3,78.5z"/>
</g>
<g>
	<path class="st0" d="M28.5,116.4c-2.6,0-4.6-0.9-5.8-1.8V97h3.8v7.3c0.5-0.4,1.8-0.8,3-0.8c3.3,0,6.1,2.4,6.1,6.2
		C35.5,113.5,33.2,116.4,28.5,116.4z M28.8,107c-1.1,0-2,0.5-2.3,0.9v4.6c0.4,0.3,1.2,0.6,2,0.6c2,0,3.3-1.4,3.3-3.1
		C31.7,108.3,30.5,107,28.8,107z"/>
	<path class="st0" d="M45.5,116v-1.7h0c-0.5,1.3-1.8,2-3.7,2c-2.6,0-4.2-1.5-4.2-4v-8.4h3.9v7.4c0,0.9,0.6,1.7,1.8,1.7
		c1.2,0,1.9-0.8,1.9-1.7v-7.3h3.9V116H45.5z"/>
	<path class="st0" d="M51,116v-0.7l3-5.4c0.5-0.9,1.1-1.9,1.6-2.7l0,0h-4.1v-3.2h9.2v0.7l-3,5.4c-0.5,0.9-1,1.8-1.6,2.7l0,0.1h5v3.2
		H51z"/>
	<path class="st0" d="M62.5,116v-0.7l3-5.4c0.5-0.9,1.1-1.9,1.6-2.7l0,0h-4.1v-3.2h9.2v0.7l-3,5.4c-0.5,0.9-1,1.8-1.6,2.7l0,0.1h5
		v3.2H62.5z"/>
	<path class="st0" d="M76.6,102.3c-0.7,0-2.1-1.4-2.1-2.1c0-0.7,1.4-2.1,2.1-2.1s2.1,1.4,2.1,2.1C78.7,100.9,77.3,102.3,76.6,102.3z
		 M74.6,116v-12.1h3.9V116H74.6z"/>
	<path class="st0" d="M88.7,116v-7.4c0-0.9-0.6-1.7-1.8-1.7c-1.2,0-1.9,0.7-1.9,1.7v7.4h-3.9v-12.1h3.6v1.6h0c0.5-1.3,1.7-2,3.7-2
		c2.6,0,4.2,1.5,4.2,4.1v8.4H88.7z"/>
	<path class="st0" d="M100.2,122.2c-3.5,0-5.9-2-5.9-4.5c0-1.8,1.2-2.9,2.5-3.3l-1.5-1.5c0.1-0.8,0.8-1.4,1.5-1.7
		c-0.9-0.6-1.8-1.7-1.8-3.2c0-2.6,1.8-4.3,5-4.3c0.7,0,1.3,0.1,1.8,0.2c0.5,0.1,1.1,0.2,1.7,0.2c0.7,0,1.4-0.2,1.9-0.4l0.7,3
		c-0.4,0.2-1,0.4-1.5,0.4c0.1,0.2,0.3,0.8,0.3,1.2c0,2-1.6,3.7-3.9,3.9c-0.5,0-0.8,0.1-0.8,0.5c0,0.1,0.1,0.3,0.3,0.4l1.9,0.7
		c2.4,0.9,3.7,2.1,3.7,4.3C106,120.3,103.7,122.2,100.2,122.2z M101,116.5l-1.4-0.4c-0.9,0-1.6,0.7-1.6,1.6c0,0.8,0.7,1.5,2.1,1.5
		c1.4,0,2.1-0.6,2.1-1.3C102.2,117.3,101.8,116.7,101,116.5z M100,106.4c-0.9,0-1.5,0.7-1.5,1.4c0,0.8,0.7,1.4,1.5,1.4
		c0.9,0,1.5-0.6,1.5-1.4C101.5,107.1,100.9,106.4,100,106.4z"/>
	<path class="st0" d="M122.2,116.6c-0.7-0.2-1.5-0.7-1.9-1.6c-0.5,1-1.7,1.5-3.1,1.5c-2.1,0-4-1.5-4-4c0-2.2,1.7-3.7,4.1-3.9
		l2.4-0.2v-0.4c0-0.7-0.6-1.2-1.9-1.2c-1.2,0-2.5,0.4-3.4,0.9l-0.7-3c1-0.6,2.6-1.1,4.2-1.1c3.2,0,5.5,1.5,5.5,4.4v3.9
		c0,1.4,0.5,2.2,1.5,2.5L122.2,116.6z M119.7,110.8l-1.5,0.1c-1,0.1-1.5,0.8-1.5,1.5c0,0.6,0.5,1.2,1.2,1.2c0.9,0,1.7-0.7,1.7-1.8
		V110.8z"/>
	<path class="st0" d="M130.4,116.5c-2.5-0.1-4.1-1.4-4.1-4.3V97h3.9v14.7c0,1,0.6,1.5,1.6,1.6L130.4,116.5z"/>
	<path class="st0" d="M139.3,116.4c-3.7,0-6.6-2.6-6.6-6.4s2.9-6.4,6.6-6.4c3.6,0,6.6,2.6,6.6,6.4S142.9,116.4,139.3,116.4z
		 M139.3,107c-1.5,0-2.7,1.3-2.7,3.1c0,1.8,1.3,3.1,2.7,3.1c1.4,0,2.7-1.3,2.7-3.1C142,108.2,140.7,107,139.3,107z"/>
	<path class="st0" d="M155.4,116v-7.4c0-0.9-0.6-1.7-1.8-1.7c-1.2,0-1.9,0.7-1.9,1.7v7.4h-3.9v-12.1h3.6v1.6h0c0.5-1.3,1.7-2,3.7-2
		c2.6,0,4.2,1.5,4.2,4.1v8.4H155.4z"/>
	<path class="st0" d="M166.9,122.2c-3.5,0-5.9-2-5.9-4.5c0-1.8,1.2-2.9,2.5-3.3l-1.5-1.5c0.1-0.8,0.8-1.4,1.5-1.7
		c-0.9-0.6-1.8-1.7-1.8-3.2c0-2.6,1.8-4.3,5-4.3c0.7,0,1.3,0.1,1.8,0.2c0.5,0.1,1.1,0.2,1.7,0.2c0.7,0,1.4-0.2,1.9-0.4l0.7,3
		c-0.4,0.2-1,0.4-1.5,0.4c0.1,0.2,0.3,0.8,0.3,1.2c0,2-1.6,3.7-3.9,3.9c-0.5,0-0.8,0.1-0.8,0.5c0,0.1,0.1,0.3,0.3,0.4l1.9,0.7
		c2.4,0.9,3.7,2.1,3.7,4.3C172.7,120.3,170.5,122.2,166.9,122.2z M167.8,116.5l-1.4-0.4c-0.9,0-1.6,0.7-1.6,1.6
		c0,0.8,0.7,1.5,2.1,1.5c1.4,0,2.1-0.6,2.1-1.3C169,117.3,168.5,116.7,167.8,116.5z M166.7,106.4c-0.9,0-1.5,0.7-1.5,1.4
		c0,0.8,0.7,1.4,1.5,1.4c0.9,0,1.5-0.6,1.5-1.4C168.2,107.1,167.6,106.4,166.7,106.4z"/>
	<path class="st0" d="M175.8,116.4c-0.7,0-2.2-1.5-2.2-2.2c0-0.7,1.5-2.2,2.2-2.2c0.7,0,2.2,1.5,2.2,2.2
		C178,114.9,176.5,116.4,175.8,116.4z"/>
</g>
</svg>
