<?xml version="1.0" encoding="utf-8"?>
<!-- Generator: Adobe Illustrator 22.1.0, SVG Export Plug-In . SVG Version: 6.00 Build 0)  -->
<svg version="1.1" id="Layer_1" xmlns="http://www.w3.org/2000/svg" xmlns:xlink="http://www.w3.org/1999/xlink" x="0px" y="0px"
	 viewBox="0 0 300 600" style="enable-background:new 0 0 300 600;" xml:space="preserve">
<style type="text/css">
	.st0{fill:#231F20;}
	.st1{font-family:'Agenda-Bold';}
	.st2{font-size:26.6667px;}
</style>
<g>
	<path class="st0" d="M30.2,48.6H27v4.5c0,1,0.6,1.5,1.6,1.5c0.5,0,0.7,0,1-0.2l-0.3,3c-0.4,0.2-1,0.3-1.8,0.3
		c-2.7,0-4.3-1.4-4.3-3.8v-5.2h-2v-3.2h2v-2.6l3.9-1.4v4h3.9L30.2,48.6z"/>
	<path class="st0" d="M39.9,57.5v-7.4c0-0.9-0.6-1.7-1.8-1.7c-1.2,0-1.9,0.7-1.9,1.7v7.4h-3.9v-19h3.9v8h0c0.6-0.9,1.7-1.5,3.4-1.5
		c2.7,0,4.2,1.5,4.2,4.1v8.4H39.9z"/>
	<path class="st0" d="M57.4,50.7l-1.7,1.8h-5.9c0.2,1,1.5,2.1,3.6,2.1c1.3,0,2.5-0.4,3.3-0.9l-0.4,3.4c-0.9,0.5-2.3,0.8-3.8,0.8
		c-3.7,0-6.6-2.6-6.6-6.5c0-3.9,2.8-6.4,6.3-6.4c3.4,0,5.4,2.3,5.4,4.8C57.5,50.1,57.5,50.5,57.4,50.7z M52.1,47.9
		c-1.1,0-2.1,0.9-2.3,2h4.1c0-0.1,0-0.2,0-0.3C53.9,48.8,53.1,47.9,52.1,47.9z"/>
	<path class="st0" d="M66.4,56.3c-1.8,4.9-3.8,6.6-6,7.5L58,61.4c1.9-0.7,3.4-2.2,4.4-4.7l-4.3-11.3h3.8l1.8,4.7
		c0.3,0.7,0.5,1.5,0.7,2.4h0.1c0.2-0.8,0.5-1.7,0.8-2.4l1.8-4.7h3.6L66.4,56.3z"/>
	<path class="st0" d="M87.3,49.3c-0.8-0.5-1.6-0.8-2.6-0.8c-1.7,0-3.1,1.2-3.1,3c0,1.7,1.4,3,3.1,3c1,0,1.8-0.2,2.6-0.7L87,57.1
		c-0.8,0.4-1.8,0.6-3,0.6c-3.4,0-6.5-2.4-6.5-6.3c0-3.9,3.2-6.3,6.5-6.3c1.6,0,2.9,0.3,4,0.9L87.3,49.3z"/>
	<path class="st0" d="M95.7,57.8c-3.7,0-6.6-2.6-6.6-6.4s2.9-6.4,6.6-6.4c3.6,0,6.6,2.6,6.6,6.4S99.4,57.8,95.7,57.8z M95.7,48.4
		c-1.5,0-2.7,1.3-2.7,3.1c0,1.8,1.3,3.1,2.7,3.1c1.4,0,2.7-1.3,2.7-3.1C98.5,49.7,97.2,48.4,95.7,48.4z"/>
	<path class="st0" d="M112.2,57.5v-1.7h0c-0.5,1.3-1.8,2-3.7,2c-2.6,0-4.2-1.5-4.2-4v-8.4h3.9v7.4c0,0.9,0.6,1.7,1.8,1.7
		c1.2,0,1.9-0.8,1.9-1.7v-7.3h3.9v12.1H112.2z"/>
	<path class="st0" d="M122.5,57.9c-2.5-0.1-4.1-1.4-4.1-4.3V38.5h3.9v14.7c0,1,0.6,1.5,1.6,1.6L122.5,57.9z"/>
	<path class="st0" d="M134.3,57.5V56h0c-0.7,1.2-2.1,1.8-3.7,1.8c-3,0-5.8-2.2-5.8-6.4c0-3.9,2.8-6.4,6.1-6.4c1.3,0,2.6,0.4,3.1,0.8
		v-7.4h3.8v19H134.3z M134,49.5c-0.4-0.5-1.2-1.1-2.4-1.1c-1.7,0-2.9,1.3-2.9,3.1c0,1.7,1.2,3.1,2.9,3.1c1.1,0,1.9-0.6,2.4-1.3V49.5
		z"/>
	<path class="st0" d="M154.8,58c-0.7-0.2-1.5-0.7-1.9-1.6c-0.5,1-1.7,1.5-3.1,1.5c-2.1,0-4-1.5-4-4c0-2.2,1.7-3.7,4.1-3.9l2.4-0.2
		v-0.4c0-0.7-0.6-1.2-1.9-1.2c-1.2,0-2.5,0.4-3.4,0.9l-0.7-3c1-0.6,2.6-1.1,4.2-1.1c3.2,0,5.5,1.5,5.5,4.4v3.9
		c0,1.4,0.5,2.2,1.5,2.5L154.8,58z M152.3,52.2l-1.5,0.1c-1,0.1-1.5,0.8-1.5,1.5c0,0.6,0.5,1.2,1.2,1.2c0.9,0,1.7-0.7,1.7-1.8V52.2z
		"/>
	<path class="st0" d="M167.8,49.3c-0.8-0.5-1.6-0.8-2.6-0.8c-1.7,0-3.1,1.2-3.1,3c0,1.7,1.4,3,3.1,3c1,0,1.8-0.2,2.6-0.7l-0.3,3.3
		c-0.8,0.4-1.8,0.6-3,0.6c-3.4,0-6.5-2.4-6.5-6.3c0-3.9,3.2-6.3,6.5-6.3c1.6,0,2.9,0.3,4,0.9L167.8,49.3z"/>
	<path class="st0" d="M178.2,57.5v-7.4c0-0.9-0.6-1.7-1.8-1.7c-1.2,0-1.9,0.7-1.9,1.7v7.4h-3.9v-19h3.9v8h0c0.6-0.9,1.7-1.5,3.4-1.5
		c2.7,0,4.2,1.5,4.2,4.1v8.4H178.2z"/>
	<path class="st0" d="M186.6,43.7c-0.7,0-2.1-1.4-2.1-2.1c0-0.7,1.4-2.1,2.1-2.1c0.7,0,2.1,1.4,2.1,2.1
		C188.7,42.3,187.3,43.7,186.6,43.7z M184.6,57.5V45.4h3.9v12.1H184.6z"/>
	<path class="st0" d="M202.2,50.7l-1.7,1.8h-5.9c0.2,1,1.5,2.1,3.6,2.1c1.3,0,2.5-0.4,3.3-0.9l-0.4,3.4c-0.9,0.5-2.3,0.8-3.8,0.8
		c-3.7,0-6.6-2.6-6.6-6.5c0-3.9,2.8-6.4,6.3-6.4c3.4,0,5.4,2.3,5.4,4.8C202.3,50.1,202.2,50.5,202.2,50.7z M196.9,47.9
		c-1.1,0-2.1,0.9-2.3,2h4.1c0-0.1,0-0.2,0-0.3C198.6,48.8,197.9,47.9,196.9,47.9z"/>
	<path class="st0" d="M210.4,57.6h-2.9l-4.6-12.2h3.8l1.7,4.6c0.2,0.6,0.5,1.5,0.7,2.3h0.1c0.2-0.8,0.5-1.7,0.7-2.3l1.7-4.6h3.6
		L210.4,57.6z"/>
	<path class="st0" d="M227.1,50.7l-1.7,1.8h-5.9c0.2,1,1.5,2.1,3.6,2.1c1.3,0,2.5-0.4,3.3-0.9l-0.4,3.4c-0.9,0.5-2.3,0.8-3.8,0.8
		c-3.7,0-6.6-2.6-6.6-6.5c0-3.9,2.8-6.4,6.3-6.4c3.4,0,5.4,2.3,5.4,4.8C227.2,50.1,227.1,50.5,227.1,50.7z M221.8,47.9
		c-1.1,0-2.1,0.9-2.3,2h4.1c0-0.1,0-0.2,0-0.3C223.5,48.8,222.8,47.9,221.8,47.9z"/>
</g>
<text transform="matrix(1 0 0 1 233.8057 57.4678)" class="st0 st1 st2"> </text>
<g>
	<path class="st0" d="M26,85.7c-1.7,0-2.9-0.3-3.8-0.9l-0.3-3.5c1.1,0.7,2.5,1.3,3.8,1.3c0.7,0,1.2-0.4,1.2-0.8
		c0-0.5-0.4-0.7-1.1-0.9C23.4,80.3,22,79.1,22,77c0-2.4,1.9-3.9,4.5-3.9c1.5,0,3,0.4,3.6,0.7l-0.7,2.9c-0.6-0.3-1.5-0.7-2.5-0.7
		c-0.6,0-1.1,0.3-1.1,0.8c0,0.5,0.3,0.7,1.1,0.9c2.7,0.7,3.8,2.1,3.8,4.1C30.7,83.9,29.3,85.7,26,85.7z"/>
	<path class="st0" d="M38.6,85.8c-3.7,0-6.6-2.6-6.6-6.4S35,73,38.6,73c3.6,0,6.6,2.6,6.6,6.4S42.3,85.8,38.6,85.8z M38.6,76.4
		c-1.5,0-2.7,1.3-2.7,3.1c0,1.8,1.3,3.1,2.7,3.1c1.4,0,2.7-1.3,2.7-3.1C41.4,77.7,40.1,76.4,38.6,76.4z"/>
	<path class="st0" d="M62.1,85.5v-7.4c0-0.9-0.4-1.7-1.7-1.7c-1.3,0-1.8,0.7-1.8,1.7v7.4h-3.9v-7.4c0-0.9-0.4-1.7-1.7-1.7
		c-1.3,0-1.8,0.7-1.8,1.7v7.4h-3.9V73.4h3.6V75h0c0.5-1.3,1.7-2,3.6-2c1.7,0,3,0.7,3.6,2c0.5-1.2,1.9-2,3.7-2c2.7,0,4.3,1.5,4.3,4.1
		v8.4H62.1z"/>
	<path class="st0" d="M79.6,78.7l-1.7,1.8h-5.9c0.2,1,1.5,2.1,3.6,2.1c1.3,0,2.5-0.4,3.3-0.9l-0.4,3.4c-0.9,0.5-2.3,0.8-3.8,0.8
		c-3.7,0-6.6-2.6-6.6-6.5c0-3.9,2.8-6.4,6.3-6.4c3.4,0,5.4,2.3,5.4,4.8C79.7,78.1,79.6,78.5,79.6,78.7z M74.3,75.9
		c-1.1,0-2.1,0.9-2.3,2H76c0-0.1,0-0.2,0-0.3C76,76.8,75.3,75.9,74.3,75.9z"/>
	<path class="st0" d="M89.8,76.6h-3.1v4.5c0,1,0.6,1.5,1.6,1.5c0.5,0,0.7,0,1-0.2l-0.3,3c-0.4,0.2-1,0.3-1.8,0.3
		c-2.7,0-4.3-1.4-4.3-3.8v-5.2h-2v-3.2h2v-2.6l3.9-1.4v4h3.9L89.8,76.6z"/>
	<path class="st0" d="M99.6,85.5v-7.4c0-0.9-0.6-1.7-1.8-1.7c-1.2,0-1.9,0.7-1.9,1.7v7.4H92v-19h3.9v8h0c0.6-0.9,1.7-1.5,3.4-1.5
		c2.7,0,4.2,1.5,4.2,4.1v8.4H99.6z"/>
	<path class="st0" d="M108.1,71.7c-0.7,0-2.1-1.4-2.1-2.1c0-0.7,1.4-2.1,2.1-2.1s2.1,1.4,2.1,2.1C110.2,70.3,108.7,71.7,108.1,71.7z
		 M106.1,85.5V73.4h3.9v12.1H106.1z"/>
	<path class="st0" d="M120.2,85.5v-7.4c0-0.9-0.6-1.7-1.8-1.7c-1.2,0-1.9,0.7-1.9,1.7v7.4h-3.9V73.4h3.6V75h0c0.5-1.3,1.7-2,3.7-2
		c2.6,0,4.2,1.5,4.2,4.1v8.4H120.2z"/>
	<path class="st0" d="M131.7,91.6c-3.5,0-5.9-2-5.9-4.5c0-1.8,1.2-2.9,2.5-3.3l-1.5-1.5c0.1-0.8,0.8-1.4,1.5-1.7
		c-0.9-0.6-1.8-1.7-1.8-3.2c0-2.6,1.8-4.3,5-4.3c0.7,0,1.3,0.1,1.8,0.2c0.5,0.1,1.1,0.2,1.7,0.2c0.7,0,1.4-0.2,1.9-0.4l0.7,3
		c-0.4,0.2-1,0.4-1.5,0.4c0.1,0.2,0.3,0.8,0.3,1.2c0,2-1.6,3.7-3.9,3.9c-0.5,0-0.8,0.1-0.8,0.5c0,0.1,0.1,0.3,0.3,0.4l1.9,0.7
		c2.4,0.9,3.7,2.1,3.7,4.3C137.5,89.8,135.3,91.6,131.7,91.6z M132.6,85.9l-1.4-0.4c-0.9,0-1.6,0.7-1.6,1.6c0,0.8,0.7,1.5,2.1,1.5
		c1.4,0,2.1-0.6,2.1-1.3C133.8,86.7,133.3,86.2,132.6,85.9z M131.5,75.8c-0.9,0-1.5,0.7-1.5,1.4c0,0.8,0.7,1.4,1.5,1.4
		c0.9,0,1.5-0.6,1.5-1.4C133,76.5,132.4,75.8,131.5,75.8z"/>
	<path class="st0" d="M152.7,77.5c-0.2-0.1-0.8-0.3-1.2-0.3c-1.3,0-2.4,0.7-2.4,2.6v5.6h-3.9V73.4h3.9v2.7h0
		c0.4-1.9,1.8-2.9,3.4-2.9c0.4,0,0.8,0.1,1.1,0.2L152.7,77.5z"/>
	<path class="st0" d="M165.8,78.7l-1.7,1.8h-5.9c0.2,1,1.5,2.1,3.6,2.1c1.3,0,2.5-0.4,3.3-0.9l-0.4,3.4c-0.9,0.5-2.3,0.8-3.8,0.8
		c-3.7,0-6.6-2.6-6.6-6.5c0-3.9,2.8-6.4,6.3-6.4c3.4,0,5.4,2.3,5.4,4.8C165.9,78.1,165.9,78.5,165.8,78.7z M160.5,75.9
		c-1.1,0-2.1,0.9-2.3,2h4.1c0-0.1,0-0.2,0-0.3C162.3,76.8,161.5,75.9,160.5,75.9z"/>
	<path class="st0" d="M176.2,86c-0.7-0.2-1.5-0.7-1.9-1.6c-0.5,1-1.7,1.5-3.1,1.5c-2.1,0-4-1.5-4-4c0-2.2,1.7-3.7,4.1-3.9l2.4-0.2
		v-0.4c0-0.7-0.6-1.2-1.9-1.2c-1.2,0-2.5,0.4-3.4,0.9l-0.7-3c1-0.6,2.6-1.1,4.2-1.1c3.2,0,5.5,1.5,5.5,4.4v3.9
		c0,1.4,0.5,2.2,1.5,2.5L176.2,86z M173.7,80.2l-1.5,0.1c-1,0.1-1.5,0.8-1.5,1.5c0,0.6,0.5,1.2,1.2,1.2c0.9,0,1.7-0.7,1.7-1.8V80.2z
		"/>
	<path class="st0" d="M184.4,85.9c-2.5-0.1-4.1-1.4-4.1-4.3V66.5h3.9v14.7c0,1,0.6,1.5,1.6,1.6L184.4,85.9z"/>
	<path class="st0" d="M191.4,85.9c-2.5-0.1-4.1-1.4-4.1-4.3V66.5h3.9v14.7c0,1,0.6,1.5,1.6,1.6L191.4,85.9z"/>
	<path class="st0" d="M201.3,84.3c-1.8,4.9-3.8,6.6-6,7.5l-2.4-2.4c1.9-0.7,3.4-2.2,4.4-4.7L193,73.4h3.8l1.8,4.7
		c0.3,0.7,0.5,1.5,0.7,2.4h0.1c0.2-0.8,0.5-1.7,0.8-2.4l1.8-4.7h3.6L201.3,84.3z"/>
</g>
<g>
	<path class="st0" d="M26,113.7c-1.7,0-2.9-0.3-3.8-0.9l-0.3-3.5c1.1,0.7,2.5,1.3,3.8,1.3c0.7,0,1.2-0.4,1.2-0.8
		c0-0.5-0.4-0.7-1.1-0.9c-2.3-0.7-3.7-1.8-3.7-3.9c0-2.4,1.9-3.9,4.5-3.9c1.5,0,3,0.4,3.6,0.7l-0.7,2.9c-0.6-0.3-1.5-0.7-2.5-0.7
		c-0.6,0-1.1,0.3-1.1,0.8c0,0.5,0.3,0.7,1.1,0.9c2.7,0.7,3.8,2.1,3.8,4.1C30.7,111.9,29.3,113.7,26,113.7z"/>
	<path class="st0" d="M45.7,113.6H43l-1.6-4.8c-0.2-0.7-0.5-1.6-0.7-2.5h-0.1c-0.2,0.9-0.4,1.8-0.7,2.5l-1.6,4.8h-2.6l-4.2-12.2h3.6
		l1.5,4.6c0.2,0.7,0.5,1.5,0.6,2.3h0.1c0.1-0.7,0.3-1.6,0.6-2.3l1.5-4.6h3l1.5,4.6c0.2,0.7,0.4,1.6,0.6,2.3h0.1
		c0.2-0.8,0.4-1.6,0.6-2.3l1.5-4.6H50L45.7,113.6z"/>
	<path class="st0" d="M62.1,106.7l-1.7,1.8h-5.9c0.2,1,1.5,2.1,3.6,2.1c1.3,0,2.5-0.4,3.3-0.9l-0.4,3.4c-0.9,0.5-2.3,0.8-3.8,0.8
		c-3.7,0-6.6-2.6-6.6-6.5c0-3.9,2.8-6.4,6.3-6.4c3.4,0,5.4,2.3,5.4,4.8C62.2,106.1,62.1,106.5,62.1,106.7z M56.7,103.9
		c-1.1,0-2.1,0.9-2.3,2h4.1c0-0.1,0-0.2,0-0.3C58.5,104.8,57.8,103.9,56.7,103.9z"/>
	<path class="st0" d="M75.1,106.7l-1.7,1.8h-5.9c0.2,1,1.5,2.1,3.6,2.1c1.3,0,2.5-0.4,3.3-0.9l-0.4,3.4c-0.9,0.5-2.3,0.8-3.8,0.8
		c-3.7,0-6.6-2.6-6.6-6.5c0-3.9,2.8-6.4,6.3-6.4c3.4,0,5.4,2.3,5.4,4.8C75.2,106.1,75.1,106.5,75.1,106.7z M69.8,103.9
		c-1.1,0-2.1,0.9-2.3,2h4.1c0-0.1,0-0.2,0-0.3C71.5,104.8,70.8,103.9,69.8,103.9z"/>
	<path class="st0" d="M85.3,104.6h-3.1v4.5c0,1,0.6,1.5,1.6,1.5c0.5,0,0.7,0,1-0.2l-0.3,3c-0.4,0.2-1,0.3-1.8,0.3
		c-2.7,0-4.3-1.4-4.3-3.8v-5.2h-2v-3.2h2v-2.6l3.9-1.4v4h3.9L85.3,104.6z"/>
	<path class="st0" d="M89.1,113.8c-0.7,0-2.2-1.5-2.2-2.2c0-0.7,1.5-2.2,2.2-2.2c0.7,0,2.2,1.5,2.2,2.2
		C91.3,112.3,89.8,113.8,89.1,113.8z"/>
</g>
</svg>
