<?xml version="1.0" encoding="utf-8"?>
<!-- Generator: Adobe Illustrator 22.1.0, SVG Export Plug-In . SVG Version: 6.00 Build 0)  -->
<svg version="1.1" id="Layer_1" xmlns="http://www.w3.org/2000/svg" xmlns:xlink="http://www.w3.org/1999/xlink" x="0px" y="0px"
	 viewBox="0 0 300 600" style="enable-background:new 0 0 300 600;" xml:space="preserve">
<style type="text/css">
	.st0{fill:#F9E13A;}
	.st1{fill:none;}
	.st2{fill:#010101;}
</style>
<path class="st0" d="M42.9,459.2c0,0-14.7,0-14.7,14.7v4.9c0,0,0,14.7,14.7,14.7h142.6c0,0,14.7,0,14.7-14.7v-4.9
	c0,0,0-14.7-14.7-14.7H42.9z"/>
<rect x="-11.3" y="-9.6" class="st1" width="323.6" height="610"/>
<g>
	<path class="st2" d="M64.2,479.3c-0.7-0.9-1-2.1-1-3.3c0-2.4,1.2-4.7,3.9-4.7c1.2,0,2.2,0.4,2.9,1.4c0.7,0.9,1,2.2,1,3.3
		c0,1-0.3,2.3-0.9,3.2c-0.7,1-1.8,1.5-3,1.5C65.9,480.7,64.9,480.3,64.2,479.3z M65.7,474.1c-0.2,0.5-0.3,1.3-0.3,1.9
		c0,1.1,0.2,3,1.7,3c0.7,0,1.1-0.4,1.4-1c0.2-0.6,0.3-1.3,0.3-1.9c0-0.7-0.1-1.4-0.3-2.1c-0.3-0.6-0.7-0.9-1.3-0.9
		C66.4,473.1,66,473.4,65.7,474.1z"/>
	<path class="st2" d="M74.5,480.6h-2.1v-9.1h3.4c0.9,0,1.7,0,2.5,0.5c0.8,0.5,1.2,1.3,1.2,2.3c0,0.9-0.3,1.7-1,2.3
		c-0.8,0.7-1.6,0.6-2.6,0.6h-1.4V480.6z M75.7,475.5c0.5,0,0.9,0,1.3-0.4c0.2-0.2,0.3-0.5,0.3-0.8c0-0.4-0.1-0.7-0.4-1
		c-0.3-0.3-0.8-0.3-1.2-0.3h-1.2v2.4H75.7z"/>
	<path class="st2" d="M82.7,473.2v1.8h3.5v1.7h-3.5v2h4.4v1.8h-6.5v-9.1h6.5v1.8H82.7z"/>
	<path class="st2" d="M95.3,480.6h-1.8l-3.5-6.1H90v6.1h-1.6v-9.1h2.3l3,5.4h0v-5.4h1.6V480.6z"/>
	<path class="st2" d="M107.9,480.6h-2.3l-0.6-1.9h-3l-0.6,1.9h-1.9l2.9-9.1h2.5L107.9,480.6z M104.6,477l-1-3.2l-1,3.2H104.6z"/>
	<path class="st2" d="M118.3,473.2H116v7.3h-2.1v-7.3h-2.3v-1.8h6.7V473.2z"/>
	<path class="st2" d="M121.6,480.6h-2.1v-9.1h2.1V480.6z"/>
	<path class="st2" d="M130.9,480.6h-2.3l-0.6-1.9h-3l-0.6,1.9h-1.9l2.9-9.1h2.5L130.9,480.6z M127.6,477l-1-3.2l-1,3.2H127.6z"/>
	<path class="st2" d="M139.4,480.6h-2.3l-0.6-1.9h-3l-0.6,1.9h-1.9l2.9-9.1h2.5L139.4,480.6z M136.1,477l-1-3.2l-1,3.2H136.1z"/>
	<path class="st2" d="M145.9,480.6h-2.1v-9.1h2.1V480.6z"/>
	<path class="st2" d="M149.9,480.6h-2.1v-9.1h3.8c0.8,0,1.6,0,2.3,0.5c0.7,0.5,1.2,1.4,1.2,2.3c0,1-0.6,2-1.6,2.4l1.7,4h-2.4
		l-1.4-3.6h-1.6V480.6z M149.9,475.4h1.2c0.4,0,0.9,0,1.3-0.2c0.3-0.2,0.5-0.6,0.5-1c0-0.4-0.2-0.7-0.5-0.9c-0.4-0.2-1-0.2-1.4-0.2
		h-1.1V475.4z"/>
	<path class="st2" d="M164,480.6h-2.3l-0.6-1.9h-3l-0.6,1.9h-1.9l2.9-9.1h2.5L164,480.6z M160.7,477l-1-3.2l-1,3.2H160.7z"/>
</g>
</svg>
