<?xml version="1.0" encoding="utf-8"?>
<!-- Generator: Adobe Illustrator 22.1.0, SVG Export Plug-In . SVG Version: 6.00 Build 0)  -->
<svg version="1.1" xmlns="http://www.w3.org/2000/svg" xmlns:xlink="http://www.w3.org/1999/xlink" x="0px" y="0px"
	 viewBox="0 0 257.6 257.6" style="enable-background:new 0 0 257.6 257.6;" xml:space="preserve">
<style type="text/css">
	.st0{opacity:0.15;fill:#0A0F0F;}
	.st1{fill:#FFFFFF;}
	.st2{fill:url(#SVGID_1_);}
	.st3{fill:url(#SVGID_2_);}
	.st4{fill:url(#SVGID_3_);}
	.st5{fill:url(#SVGID_4_);}
	.st6{fill:url(#SVGID_5_);}
	.st7{clip-path:url(#SVGID_7_);fill:#F89943;}
	.st8{clip-path:url(#SVGID_7_);fill:#FFD147;}
	.st9{clip-path:url(#SVGID_7_);fill:#FBBF45;}
	.st10{clip-path:url(#SVGID_7_);fill:#F59044;}
	.st11{clip-path:url(#SVGID_7_);fill:#010101;}
	.st12{clip-path:url(#SVGID_7_);fill:#FFFFFF;}
	.st13{clip-path:url(#SVGID_9_);}
	.st14{opacity:0.57;clip-path:url(#SVGID_11_);}
	.st15{clip-path:url(#SVGID_13_);fill:#663B16;}
</style>
<g id="shadow">
</g>
<g id="window">
</g>
<g id="tightrope_guy">
	<path class="st0" d="M198.7,236.2c-10.1,9.8-23.8,15.9-38.9,15.9H5.6V97.8c0-15.1,6.1-28.9,15.9-38.9l-5.6,5.6
		C6.1,74.5,0,88.3,0,103.4v154.2h154.1c15.3,0,29.2-6.2,39.2-16.2L198.7,236.2z"/>
	<path class="st1" d="M108.1,0C89.4,0,71.7,7.4,58.2,20.8c-13.4,13.4-20.8,31-20.8,49.7v149.7h149.4c39,0,70.8-31.7,70.8-70.7V0
		H108.1z"/>
	<linearGradient id="SVGID_1_" gradientUnits="userSpaceOnUse" x1="47.0627" y1="210.6149" x2="248.8082" y2="8.8694">
		<stop  offset="0" style="stop-color:#9DDCF9"/>
		<stop  offset="1" style="stop-color:#009EDB"/>
	</linearGradient>
	<path class="st2" d="M46.4,211.2V70.5C46.4,37,74.3,9,108.1,9h140.5v140.5c0,34-27.7,61.7-61.8,61.7H46.4z"/>
	<linearGradient id="SVGID_2_" gradientUnits="userSpaceOnUse" x1="113.8256" y1="252.3558" x2="113.8256" y2="211.6552">
		<stop  offset="0" style="stop-color:#14B1E7"/>
		<stop  offset="0.1106" style="stop-color:#14ADE2"/>
		<stop  offset="0.2553" style="stop-color:#13A3D8"/>
		<stop  offset="0.419" style="stop-color:#0E92C9"/>
		<stop  offset="0.5966" style="stop-color:#087CB6"/>
		<stop  offset="0.7835" style="stop-color:#0064A1"/>
		<stop  offset="0.89" style="stop-color:#005495"/>
	</linearGradient>
	<path class="st3" d="M186.9,220.2H37.4v0L5.6,252h154.2c15.1,0,28.9-6.1,38.9-15.9l23.4-23.4l-1.3-1.3
		C210.7,217,199.2,220.2,186.9,220.2z"/>
	<linearGradient id="SVGID_3_" gradientUnits="userSpaceOnUse" x1="25.8539" y1="253.7778" x2="25.8539" y2="36.3313">
		<stop  offset="0" style="stop-color:#0082BD"/>
		<stop  offset="0.2182" style="stop-color:#0078B4"/>
		<stop  offset="0.6558" style="stop-color:#00609E"/>
		<stop  offset="0.85" style="stop-color:#005495"/>
	</linearGradient>
	<path class="st4" d="M37.4,70.5c0-11.9,3-23.4,8.7-33.7l-1.3-1.3L21.4,58.9C11.6,69,5.6,82.7,5.6,97.8V252l31.8-31.8V70.5z"/>
	<linearGradient id="SVGID_4_" gradientUnits="userSpaceOnUse" x1="6.4061" y1="231.769" x2="220.5556" y2="231.769">
		<stop  offset="0" style="stop-color:#14B1E7"/>
		<stop  offset="0.1118" style="stop-color:#14ADE2"/>
		<stop  offset="0.2581" style="stop-color:#13A3D8"/>
		<stop  offset="0.4237" style="stop-color:#0E92C9"/>
		<stop  offset="0.6033" style="stop-color:#087CB6"/>
		<stop  offset="0.7923" style="stop-color:#0064A1"/>
		<stop  offset="0.9" style="stop-color:#005495"/>
	</linearGradient>
	<path class="st5" d="M186.9,220.2H37.4v0L5.6,252h154.2c15.1,0,28.9-6.1,38.9-15.9l23.4-23.4l-1.3-1.3
		C210.7,217,199.2,220.2,186.9,220.2z"/>
	<linearGradient id="SVGID_5_" gradientUnits="userSpaceOnUse" x1="25.8539" y1="253.7778" x2="25.8539" y2="36.3313">
		<stop  offset="0" style="stop-color:#0082BD"/>
		<stop  offset="0.2182" style="stop-color:#0078B4"/>
		<stop  offset="0.6558" style="stop-color:#00609E"/>
		<stop  offset="0.85" style="stop-color:#005495"/>
	</linearGradient>
	<path class="st6" d="M37.4,70.5c0-11.9,3-23.4,8.7-33.7l-1.3-1.3L21.4,58.9C11.6,69,5.6,82.7,5.6,97.8V252l31.8-31.8V70.5z"/>
	<g>
		<g>
			<defs>
				<path id="SVGID_6_" d="M106.9,9C72.8,9,44.7,37.1,44.7,70.8v141.5h141.5c34.3,0,62.2-27.8,62.2-62.1V9H106.9z"/>
			</defs>
			<clipPath id="SVGID_7_">
				<use xlink:href="#SVGID_6_"  style="overflow:visible;"/>
			</clipPath>
			<polygon class="st7" points="204.7,148.1 188.2,159 170.4,150 169.1,130.1 185.6,119.2 203.4,128.2 			"/>
			<polygon class="st7" points="185.6,135.7 169.1,146.6 151.3,137.7 150,117.8 166.5,106.9 184.3,115.9 			"/>
			<polygon class="st7" points="235.1,103.1 218.6,114 200.8,105 199.5,85.2 199.5,85.2 199.5,85.1 216,74.2 233.8,83.3 			"/>
			<polygon class="st8" points="166.5,106.9 150,117.8 132.2,108.8 130.9,89 147.4,78.1 165.2,87.1 			"/>
			<polygon class="st8" points="254.1,131.9 237.6,142.8 219.9,133.8 218.6,114 218.6,114 218.6,114 235.1,103.1 252.9,112.1 			"/>
			<polygon class="st8" points="219.9,133.8 203.4,144.7 185.6,135.7 184.3,115.9 184.3,115.9 184.3,115.9 200.8,105 218.6,114 			
				"/>
			<polygon class="st8" points="200.8,105 184.3,115.9 166.5,106.9 165.2,87.1 165.2,87.1 165.2,87.1 181.7,76.2 199.5,85.2 			"/>
			<polygon class="st8" points="216,74.2 199.5,85.1 181.7,76.2 180.4,56.3 196.9,45.4 214.7,54.4 			"/>
			<path class="st9" d="M205.9,50.1l-9.1-4.6l-16.5,10.9l1.3,19.9l12.9,6.5C193.7,70.9,197.7,59.1,205.9,50.1"/>
			<path class="st9" d="M190.7,80.8l-9.1-4.6l-16.5,10.9l1.3,19.9l12.9,6.5C178.5,101.6,182.5,89.8,190.7,80.8"/>
			<path class="st9" d="M209.9,109.6l-9.1-4.6l-16.5,10.9l1.3,19.9l12.9,6.5C197.7,130.4,201.7,118.6,209.9,109.6"/>
			<path class="st9" d="M244.1,107.7l-9.1-4.6L218.5,114l1.3,19.9l12.9,6.5C231.9,128.5,235.9,116.7,244.1,107.7"/>
			<path class="st9" d="M156.4,82.7l-9.1-4.6L130.8,89l1.3,19.9l12.9,6.5C144.2,103.6,148.2,91.7,156.4,82.7"/>
			<path class="st10" d="M225,78.9l-9.1-4.6l-16.5,10.9l1.3,19.9l12.9,6.5C212.8,99.7,216.8,87.9,225,78.9"/>
			<path class="st10" d="M175.5,111.6l-9.1-4.6l-16.5,10.9l1.3,19.9l12.9,6.5C163.3,132.4,167.3,120.6,175.5,111.6"/>
			<path class="st10" d="M194.6,140.4l-9.1-4.6L169,146.7l1.3,19.9l12.9,6.5C182.4,161.2,186.4,149.4,194.6,140.4"/>
			<polygon class="st11" points="223.5,96.6 215.2,102.1 217.2,105.2 227.5,98.5 226.3,89.1 222.6,89.6 			"/>
			<polygon class="st12" points="207.4,120.3 208.3,127.4 200,132.9 202,136 212.3,129.2 211.1,119.9 			"/>
			<polygon class="st11" points="192.2,151.1 193.1,158.1 184.8,163.6 186.8,166.7 197.1,160 195.9,150.6 			"/>
			<path class="st11" d="M153.1,136.5l-1.2-17.7l14.7-9.7l15.9,8l1.2,17.7l-14.7,9.7L153.1,136.5z M134,107.7l-1.2-17.7l14.7-9.7
				l15.9,8l1.2,17.7l-14.7,9.7L134,107.7z M233.1,102.1l-14.7,9.7l-15.9-8l-1.1-17.7l14.7-9.7l15.9,8L233.1,102.1z M187.4,134.6
				l-1.1-17.7l14.7-9.7l15.9,8l1.2,17.7l-14.7,9.7L187.4,134.6z M197.7,86.3l1.2,17.7l-14.7,9.7l-15.9-8L167.1,88l14.7-9.7
				L197.7,86.3z M251.1,113.2l1.1,17.7l-14.7,9.7l-15.9-8l-1.1-17.7l14.7-9.7L251.1,113.2z M237.8,144.9l18.3-12.1l-1.4-21.9
				l-17.8-9l-1.3-19.8l-17.8-9l-1.3-19.8l-6.1-3.1l-1.7,3.3l4.2,2.1l1.1,17.7L199.3,83l-15.9-8l-1.2-17.7l14.7-9.7l6.7,3.4l1.7-3.3
				l-8.6-4.3l-18.3,12.1l1.3,19.9L165,85l-17.8-9L129,88l1.4,22l17.8,9l1.3,19.9l17.8,9l1.3,19.9l7.6,3.8l1.7-3.3l-5.7-2.9
				l-1.2-17.7l14.7-9.7l15.9,8l1.1,17.7l-14.7,9.7l-5.7-2.9l-1.7,3.3l7.6,3.8l18.3-12.1l-1.3-19.9l14.7-9.7L237.8,144.9z"/>
			<polygon class="st11" points="234.3,131 236.3,134 246.5,127.3 245.4,117.9 241.7,118.4 242.6,125.5 			"/>
			<polygon class="st11" points="173.2,122.2 174,129.3 165.7,134.8 167.7,137.9 178,131.1 176.8,121.8 			"/>
			<polygon class="st12" points="154.1,93.4 154.9,100.5 146.6,106 148.7,109.1 158.9,102.3 157.8,93 			"/>
			<polygon class="st11" points="180.9,104.1 182.9,107.2 193.2,100.4 192,91 188.4,91.5 189.2,98.6 			"/>
			<polygon class="st12" points="198.1,76.4 208.4,69.7 207.2,60.3 203.6,60.7 204.4,67.8 196.1,73.3 			"/>
			<polygon class="st7" points="243,223.3 226.5,234.2 208.7,225.2 207.5,205.4 207.4,205.4 207.4,205.3 223.9,194.5 241.8,203.5 
							"/>
			<polygon class="st8" points="174.5,227.1 158,238 140.2,229.1 138.9,209.2 155.4,198.3 173.2,207.3 			"/>
			<polygon class="st8" points="208.7,225.2 192.3,236.1 174.5,227.1 173.2,207.3 173.2,207.3 173.2,207.3 189.7,196.4 207.4,205.4 
							"/>
			<polygon class="st8" points="223.9,194.5 207.4,205.3 189.7,196.4 188.4,176.5 204.9,165.6 222.7,174.6 			"/>
			<path class="st9" d="M213.9,170.3l-9.1-4.6l-16.5,10.9l1.3,19.9l12.9,6.5C201.7,191.1,205.7,179.3,213.9,170.3"/>
			<path class="st9" d="M198.7,201l-9.1-4.6l-16.5,10.9l1.3,19.9l12.9,6.5C186.5,221.8,190.5,210,198.7,201"/>
			<path class="st9" d="M164.4,203l-9.1-4.6l-16.5,10.9l1.3,19.9l12.9,6.5C152.2,223.8,156.2,211.9,164.4,203"/>
			<path class="st10" d="M232.9,199.1l-9.1-4.6l-16.5,10.9l1.3,19.9l12.9,6.5C220.8,219.9,224.8,208.1,232.9,199.1"/>
			<polygon class="st11" points="231.5,216.8 223.2,222.3 225.2,225.4 235.4,218.7 234.3,209.3 230.6,209.8 			"/>
			<path class="st11" d="M161,256.7l-1.2-17.7l14.7-9.7l15.9,8l1.2,17.7l-14.7,9.7L161,256.7z M142,227.9l-1.2-17.7l14.7-9.7l15.9,8
				l1.2,17.7l-14.7,9.7L142,227.9z M241.1,222.3l-14.7,9.7l-15.9-8l-1.1-17.7l14.7-9.7l15.9,8L241.1,222.3z M195.3,254.8l-1.1-17.7
				l14.7-9.7l15.9,8l1.2,17.7l-14.7,9.7L195.3,254.8z M205.7,206.6l1.2,17.7l-14.7,9.7l-15.9-8l-1.1-17.7l14.7-9.7L205.7,206.6z
				 M259.1,233.5l1.1,17.7l-14.7,9.7l-15.9-8l-1.1-17.7l14.7-9.7L259.1,233.5z M245.7,265.1L264,253l-1.4-21.9l-17.8-9l-1.3-19.8
				l-17.8-9l-1.3-19.8l-6.1-3.1l-1.7,3.3l4.2,2.1l1.1,17.7l-14.7,9.7l-15.9-8l-1.2-17.7l14.7-9.7l6.7,3.4l1.7-3.3l-8.6-4.3
				l-18.3,12.1l1.3,19.9l-14.7,9.7l-17.8-9L137,208.2l1.4,22l17.8,9l1.3,19.9l17.8,9l1.3,19.9l7.6,3.8l1.7-3.3l-5.7-2.9l-1.2-17.7
				l14.7-9.7l15.9,8l1.1,17.7l-14.7,9.7l-5.7-2.9l-1.7,3.3l7.6,3.8l18.3-12.1l-1.3-19.9l14.7-9.7L245.7,265.1z"/>
			<polygon class="st11" points="188.9,224.3 190.9,227.4 201.1,220.6 200,211.2 196.3,211.7 197.2,218.8 			"/>
			<polygon class="st12" points="206.1,196.6 216.3,189.9 215.2,180.5 211.5,180.9 212.4,188 204.1,193.5 			"/>
			<polygon class="st7" points="166,108.3 149.5,119.2 131.7,110.2 130.4,90.3 146.9,79.5 164.7,88.5 			"/>
			<polygon class="st7" points="146.9,79.5 130.4,90.3 112.6,81.4 111.3,61.5 127.8,50.6 145.6,59.6 			"/>
			<polygon class="st7" points="196.4,46.8 179.9,57.7 162.1,48.7 160.8,28.9 160.8,28.9 160.8,28.9 177.3,18 195.1,27 			"/>
			<polygon class="st8" points="127.8,50.6 111.3,61.5 93.5,52.6 92.2,32.7 108.7,21.8 126.5,30.8 			"/>
			<polygon class="st8" points="215.5,75.6 199,86.5 181.2,77.5 179.9,57.7 179.9,57.7 179.9,57.7 196.4,46.8 214.2,55.8 			"/>
			<polygon class="st8" points="181.2,77.5 164.7,88.4 146.9,79.5 145.6,59.6 145.6,59.6 145.6,59.6 162.1,48.7 179.9,57.7 			"/>
			<polygon class="st8" points="162.1,48.7 145.6,59.6 127.8,50.6 126.5,30.8 126.5,30.8 126.5,30.8 143,19.9 160.8,28.9 			"/>
			<polygon class="st8" points="177.3,18 160.8,28.9 143,19.9 141.7,0 158.2,-10.9 176,-1.8 			"/>
			<path class="st9" d="M167.2-6.2l-9.1-4.6L141.6,0.1l1.3,19.9l12.9,6.5C155,14.6,159,2.8,167.2-6.2"/>
			<path class="st9" d="M152,24.5l-9.1-4.6l-16.5,10.9l1.3,19.9l12.9,6.5C139.8,45.4,143.8,33.5,152,24.5"/>
			<path class="st9" d="M171.2,53.3l-9.1-4.6l-16.5,10.9l1.3,19.9l12.9,6.5C159,74.1,163,62.3,171.2,53.3"/>
			<path class="st9" d="M205.4,51.4l-9.1-4.6l-16.5,10.9l1.3,19.9l12.9,6.5C193.2,72.2,197.2,60.4,205.4,51.4"/>
			<path class="st9" d="M117.7,26.5l-9.1-4.6L92.1,32.8l1.3,19.9l12.9,6.5C105.5,47.3,109.5,35.5,117.7,26.5"/>
			<path class="st10" d="M186.3,22.6l-9.1-4.6l-16.5,10.9l1.3,19.9l12.9,6.5C174.1,43.4,178.1,31.6,186.3,22.6"/>
			<path class="st10" d="M136.8,55.3l-9.1-4.6l-16.5,10.9l1.3,19.9l12.9,6.5C124.6,76.1,128.6,64.3,136.8,55.3"/>
			<path class="st10" d="M155.9,84.1l-9.1-4.6l-16.5,10.9l1.3,19.9l12.9,6.5C143.7,104.9,147.7,93.1,155.9,84.1"/>
			<polygon class="st11" points="184.8,40.4 176.5,45.9 178.5,48.9 188.8,42.2 187.6,32.8 184,33.3 			"/>
			<polygon class="st12" points="168.8,64 169.6,71.1 161.3,76.6 163.3,79.7 173.6,72.9 172.4,63.6 			"/>
			<polygon class="st11" points="153.6,94.8 154.4,101.9 146.1,107.3 148.1,110.4 158.4,103.7 157.2,94.3 			"/>
			<path class="st11" d="M114.4,80.2l-1.2-17.7l14.7-9.7l15.9,8l1.2,17.7l-14.7,9.7L114.4,80.2z M95.3,51.4l-1.2-17.7l14.7-9.7
				l15.9,8l1.2,17.7l-14.7,9.7L95.3,51.4z M194.4,45.8l-14.7,9.7l-15.9-8l-1.1-17.7l14.7-9.7l15.9,8L194.4,45.8z M148.7,78.3
				l-1.1-17.7l14.7-9.7l15.9,8l1.2,17.7l-14.7,9.7L148.7,78.3z M159,30.1l1.2,17.7l-14.7,9.7l-15.9-8l-1.1-17.7l14.7-9.7L159,30.1z
				 M212.4,57l1.1,17.7l-14.7,9.7l-15.9-8l-1.1-17.7l14.7-9.7L212.4,57z M199.1,88.6l18.3-12.1L216,54.6l-17.8-9l-1.3-19.8l-17.8-9
				L177.8-3l-6.1-3.1L170-2.8l4.2,2.1l1.1,17.7l-14.7,9.7l-15.9-8L143.6,1l14.7-9.7l6.7,3.4l1.7-3.3l-8.6-4.3L139.8-0.9l1.3,19.9
				l-14.7,9.7l-17.8-9L90.3,31.8l1.4,22l17.8,9l1.3,19.9l17.8,9l1.3,19.9l7.6,3.8l1.7-3.3l-5.7-2.9l-1.2-17.7l14.7-9.7l15.9,8
				l1.1,17.7l-14.7,9.7l-5.7-2.9l-1.7,3.3l7.6,3.8l18.3-12.1l-1.3-19.9l14.7-9.7L199.1,88.6z"/>
			<polygon class="st11" points="195.6,74.7 197.6,77.8 207.9,71 206.7,61.7 203,62.1 203.9,69.2 			"/>
			<polygon class="st11" points="134.5,66 135.3,73 127,78.5 129.1,81.6 139.3,74.9 138.2,65.5 			"/>
			<polygon class="st12" points="115.4,37.1 116.2,44.2 107.9,49.7 110,52.8 120.2,46 119.1,36.7 			"/>
			<polygon class="st11" points="142.2,47.8 144.3,50.9 154.5,44.1 153.3,34.8 149.7,35.2 150.5,42.3 			"/>
			<polygon class="st12" points="159.4,20.1 169.7,13.4 168.5,4 164.9,4.5 165.7,11.5 157.4,17 			"/>
			<polygon class="st7" points="276.8,221.9 260.3,232.8 242.5,223.8 241.2,203.9 257.7,193.1 275.5,202.1 			"/>
			<polygon class="st7" points="257.7,193.1 241.2,203.9 223.4,195 222.1,175.1 238.6,164.2 256.4,173.2 			"/>
			<polygon class="st8" points="238.6,164.2 222.1,175.1 204.3,166.2 203,146.3 219.5,135.4 237.3,144.4 			"/>
			<polygon class="st8" points="272.9,162.3 256.4,173.2 238.6,164.2 237.3,144.4 237.3,144.4 237.3,144.4 253.8,133.5 271.6,142.5 
							"/>
			<path class="st9" d="M262.8,138.1l-9.1-4.6l-16.5,10.9l1.3,19.9l12.9,6.5C250.6,158.9,254.6,147.1,262.8,138.1"/>
			<path class="st9" d="M228.5,140.1l-9.1-4.6L203,146.4l1.3,19.9l12.9,6.5C216.3,160.9,220.4,149,228.5,140.1"/>
			<path class="st10" d="M247.6,168.9l-9.1-4.6L222,175.2l1.3,19.9l12.9,6.5C235.4,189.7,239.5,177.9,247.6,168.9"/>
			<path class="st10" d="M266.7,197.7l-9.1-4.6L241.1,204l1.3,19.9l12.9,6.5C254.5,218.5,258.5,206.7,266.7,197.7"/>
			<path class="st11" d="M225.2,193.8l-1.2-17.7l14.7-9.7l15.9,8l1.2,17.7l-14.7,9.7L225.2,193.8z M206.1,165l-1.2-17.7l14.7-9.7
				l15.9,8l1.2,17.7L222,173L206.1,165z M305.3,159.4l-14.7,9.7l-15.9-8l-1.1-17.7l14.7-9.7l15.9,8L305.3,159.4z M259.5,191.9
				l-1.1-17.7l14.7-9.7l15.9,8l1.2,17.7l-14.7,9.7L259.5,191.9z M269.8,143.7l1.2,17.7l-14.7,9.7l-15.9-8l-1.1-17.7l14.7-9.7
				L269.8,143.7z M323.2,170.6l1.1,17.7l-14.7,9.7l-15.9-8l-1.1-17.7l14.7-9.7L323.2,170.6z M309.9,202.2l18.3-12.1l-1.4-21.9
				l-17.8-9l-1.3-19.8l-17.8-9l-1.3-19.8l-6.1-3.1l-1.7,3.3l4.2,2.1l1.1,17.7l-14.7,9.7l-15.9-8l-1.2-17.7l14.7-9.7l6.7,3.4l1.7-3.3
				l-8.6-4.3l-18.3,12.1l1.3,19.9l-14.7,9.7l-17.8-9l-18.3,12.1l1.4,22l17.8,9l1.3,19.9l17.8,9l1.3,19.9l7.6,3.8l1.7-3.3l-5.7-2.9
				l-1.2-17.7l14.7-9.7l15.9,8l1.1,17.7l-14.7,9.7l-5.7-2.9l-1.7,3.3l7.6,3.8l18.3-12.1l-1.3-19.9l14.7-9.7L309.9,202.2z"/>
			<polygon class="st11" points="245.3,179.5 246.1,186.6 237.8,192.1 239.9,195.2 250.1,188.5 249,179.1 			"/>
			<polygon class="st12" points="226.2,150.7 227.1,157.8 218.7,163.3 220.8,166.4 231,159.6 229.9,150.3 			"/>
			<polygon class="st8" points="264.9,43.1 248.5,54 230.7,45 229.4,25.2 245.9,14.3 263.6,23.3 			"/>
			<path class="st9" d="M254.9,18.9l-9.1-4.6l-16.5,10.9l1.3,19.9l12.9,6.5C242.7,39.7,246.7,27.9,254.9,18.9"/>
			<path class="st10" d="M273.9,47.8l-9.1-4.6l-16.5,10.9l1.3,19.9l12.9,6.5C261.8,68.6,265.8,56.7,273.9,47.8"/>
			<path class="st11" d="M251.5,72.7L250.4,55l14.7-9.7l15.9,8l1.2,17.7l-14.7,9.7L251.5,72.7z M232.4,43.9l-1.2-17.7l14.7-9.7
				l15.9,8l1.2,17.7l-14.7,9.7L232.4,43.9z M331.6,38.3L316.9,48L301,40l-1.1-17.7l14.7-9.7l15.9,8L331.6,38.3z M285.8,70.8
				L284.7,53l14.7-9.7l15.9,8l1.2,17.7l-14.7,9.7L285.8,70.8z M296.1,22.5l1.2,17.7l-14.7,9.7l-15.9-8l-1.1-17.7l14.7-9.7
				L296.1,22.5z M349.5,49.4l1.1,17.7L336,76.8l-15.9-8L319,51.1l14.7-9.7L349.5,49.4z M336.2,81.1L354.5,69l-1.4-21.9l-17.8-9
				L334,18.3l-17.8-9l-1.3-19.8l-6.1-3.1l-1.7,3.3l4.2,2.1l1.1,17.7l-14.7,9.7l-15.9-8l-1.2-17.7l14.7-9.7l6.7,3.4l1.7-3.3l-8.6-4.3
				L276.9-8.4l1.3,19.9l-14.7,9.7l-17.8-9l-18.3,12.1l1.4,22l17.8,9L248,75l17.8,9l1.3,19.9l7.6,3.8l1.7-3.3l-5.7-2.9l-1.2-17.7
				l14.7-9.7l15.9,8l1.1,17.7l-14.7,9.7l-5.7-2.9l-1.7,3.3l7.6,3.8l18.3-12.1l-1.3-19.9l14.7-9.7L336.2,81.1z"/>
			<polygon class="st12" points="252.5,29.6 253.4,36.7 245.1,42.2 247.1,45.3 257.3,38.5 256.2,29.2 			"/>
			<polygon class="st8" points="269.2,103.5 252.7,114.4 234.9,105.4 233.6,85.5 250.1,74.6 267.9,83.6 			"/>
			<path class="st9" d="M259.1,79.3l-9.1-4.6l-16.5,10.9l1.3,19.9l12.9,6.5C246.9,100.1,250.9,88.3,259.1,79.3"/>
			<path class="st11" d="M255.8,133l-1.2-17.7l14.7-9.7l15.9,8l1.2,17.7l-14.7,9.7L255.8,133z M236.7,104.2l-1.2-17.7l14.7-9.7
				l15.9,8l1.2,17.7l-14.7,9.7L236.7,104.2z M335.8,98.7l-14.7,9.7l-15.9-8l-1.1-17.7l14.7-9.7l15.9,8L335.8,98.7z M290.1,131.1
				l-1.1-17.7l14.7-9.7l15.9,8l1.2,17.7l-14.7,9.7L290.1,131.1z M300.4,82.9l1.2,17.7l-14.7,9.7l-15.9-8l-1.1-17.7l14.7-9.7
				L300.4,82.9z M353.8,109.8l1.1,17.7l-14.7,9.7l-15.9-8l-1.1-17.7l14.7-9.7L353.8,109.8z M340.5,141.5l18.3-12.1l-1.4-21.9
				l-17.8-9l-1.3-19.8l-17.8-9l-1.3-19.8l-6.1-3.1l-1.7,3.3l4.2,2.1l1.1,17.7L302,79.5l-15.9-8L285,53.8l14.7-9.7l6.7,3.4l1.7-3.3
				l-8.6-4.3l-18.3,12.1l1.3,19.9l-14.7,9.7l-17.8-9l-18.3,12.1l1.4,22l17.8,9l1.3,19.9l17.8,9l1.3,19.9l7.6,3.8l1.7-3.3l-5.7-2.9
				l-1.2-17.7l14.7-9.7l15.9,8l1.1,17.7l-14.7,9.7L285,167l-1.7,3.3l7.6,3.8l18.3-12.1l-1.3-19.9l14.7-9.7L340.5,141.5z"/>
			<polygon class="st7" points="249.5,73.8 233,84.7 215.2,75.7 214,55.9 230.4,45 248.3,54 			"/>
			<polygon class="st7" points="230.4,45 214,55.9 196.2,46.9 194.9,27.1 211.4,16.2 229.1,25.2 			"/>
			<polygon class="st7" points="279.9,12.3 263.4,23.2 245.6,14.2 244.4,-5.6 244.3,-5.6 244.3,-5.6 260.8,-16.5 278.7,-7.5 			"/>
			<polygon class="st8" points="211.4,16.2 194.9,27.1 177.1,18.1 175.8,-1.8 192.3,-12.6 210.1,-3.6 			"/>
			<polygon class="st8" points="264.7,43.1 248.2,54 230.4,45 229.2,25.2 229.1,25.2 229.1,25.1 245.6,14.2 263.4,23.2 			"/>
			<polygon class="st8" points="245.6,14.2 229.1,25.1 211.4,16.2 210.1,-3.6 210.1,-3.6 210.1,-3.7 226.6,-14.6 244.3,-5.6 			"/>
			<path class="st9" d="M235.6-9.9l-9.1-4.6L210-3.6l1.3,19.9l12.9,6.5C223.4,10.9,227.4-0.9,235.6-9.9"/>
			<path class="st9" d="M254.7,18.8l-9.1-4.6l-16.5,10.9l1.3,19.9l12.9,6.5C242.5,39.7,246.6,27.8,254.7,18.8"/>
			<path class="st9" d="M201.3-8l-9.1-4.6L175.7-1.7l1.3,19.9l12.9,6.5C189.1,12.8,193.1,1,201.3-8"/>
			<path class="st10" d="M269.8-11.9l-9.1-4.6L244.3-5.6l1.3,19.9l12.9,6.5C257.7,9,261.7-2.9,269.8-11.9"/>
			<path class="st10" d="M220.4,20.8l-9.1-4.6l-16.5,10.9l1.3,19.9l12.9,6.5C208.2,41.6,212.2,29.8,220.4,20.8"/>
			<path class="st10" d="M239.4,49.6l-9.1-4.6l-16.5,10.9l1.3,19.9l12.9,6.5C227.3,70.5,231.3,58.6,239.4,49.6"/>
			<polygon class="st12" points="252.3,29.6 253.2,36.6 244.8,42.1 246.9,45.2 257.1,38.5 256,29.1 			"/>
			<polygon class="st11" points="237.1,60.3 238,67.4 229.7,72.9 231.7,76 241.9,69.2 240.8,59.9 			"/>
			<path class="st11" d="M197.9,45.7L196.8,28l14.7-9.7l15.9,8l1.2,17.7l-14.7,9.7L197.9,45.7z M178.9,16.9l-1.2-17.7l14.7-9.7
				l15.9,8l1.2,17.7l-14.7,9.7L178.9,16.9z M278,11.4l-14.7,9.7l-15.9-8l-1.1-17.7l14.7-9.7l15.9,8L278,11.4z M232.2,43.8l-1.1-17.7
				l14.7-9.7l15.9,8l1.2,17.7l-14.7,9.7L232.2,43.8z M242.6-4.4l1.2,17.7L229,23l-15.9-8L212-2.7l14.7-9.7L242.6-4.4z M296,22.5
				l1.1,17.7l-14.7,9.7l-15.9-8l-1.1-17.7l14.7-9.7L296,22.5z M282.6,54.2l18.3-12.1l-1.4-21.9l-17.8-9l-1.3-19.8l-17.8-9l-1.3-19.8
				l-6.1-3.1l-1.7,3.3l4.2,2.1l1.1,17.7l-14.7,9.7l-15.9-8l-1.2-17.7l14.7-9.7l6.7,3.4l1.7-3.3l-8.6-4.3l-18.3,12.1l1.3,19.9
				l-14.7,9.7l-17.8-9L173.9-2.7l1.4,22l17.8,9l1.3,19.9l17.8,9l1.3,19.9l7.6,3.8l1.7-3.3l-5.7-2.9l-1.2-17.7l14.7-9.7l15.9,8
				l1.1,17.7l-14.7,9.7l-5.7-2.9l-1.7,3.3l7.6,3.8l18.3-12.1l-1.3-19.9l14.7-9.7L282.6,54.2z"/>
			<polygon class="st11" points="218,31.5 218.9,38.6 210.6,44.1 212.6,47.2 222.8,40.4 221.7,31 			"/>
			<polygon class="st12" points="198.9,2.7 199.8,9.8 191.5,15.2 193.5,18.3 203.8,11.6 202.6,2.2 			"/>
			<polygon class="st11" points="225.8,13.3 227.8,16.4 238,9.6 236.9,0.3 233.2,0.7 234.1,7.8 			"/>
			<polygon class="st7" points="111.6,61.4 128.1,50.5 145.9,59.5 147.2,79.4 130.7,90.3 112.9,81.3 			"/>
			<polygon class="st7" points="130.7,90.3 147.2,79.4 165,88.3 166.3,108.2 149.8,119.1 132,110.1 			"/>
			<polygon class="st7" points="81.2,122.9 97.7,112 115.5,121 116.8,140.8 116.8,140.8 116.8,140.9 100.3,151.7 82.5,142.7 			"/>
			<polygon class="st8" points="149.8,119.1 166.3,108.2 184.1,117.1 185.4,137 168.9,147.9 151.1,138.9 			"/>
			<polygon class="st8" points="62.1,94.1 78.6,83.2 96.4,92.2 97.7,112 97.7,112 97.7,112 81.2,122.9 63.4,113.9 			"/>
			<polygon class="st8" points="96.4,92.2 112.9,81.3 130.7,90.3 132,110.1 132,110.1 132,110.1 115.5,121 97.7,112 			"/>
			<polygon class="st8" points="115.5,121 132,110.1 149.8,119.1 151.1,138.9 151.1,138.9 151.1,138.9 134.6,149.8 116.8,140.8 			
				"/>
			<polygon class="st8" points="100.3,151.7 116.8,140.9 134.6,149.8 135.9,169.7 119.4,180.6 101.6,171.6 			"/>
			<path class="st9" d="M110.4,175.9l9.1,4.6l16.5-10.9l-1.3-19.9l-12.9-6.5C122.6,155.1,118.6,166.9,110.4,175.9"/>
			<path class="st9" d="M125.6,145.2l9.1,4.6l16.5-10.9l-1.3-19.9l-12.9-6.5C137.8,124.4,133.8,136.2,125.6,145.2"/>
			<path class="st9" d="M106.4,116.4l9.1,4.6l16.5-10.9l-1.3-19.9l-12.9-6.5C118.6,95.6,114.6,107.4,106.4,116.4"/>
			<path class="st9" d="M72.2,118.3l9.1,4.6L97.8,112l-1.3-19.9l-12.9-6.5C84.4,97.5,80.4,109.3,72.2,118.3"/>
			<path class="st9" d="M159.9,143.3l9.1,4.6l16.5-10.9l-1.3-19.9l-12.9-6.5C172.1,122.4,168,134.3,159.9,143.3"/>
			<path class="st10" d="M91.3,147.1l9.1,4.6l16.5-10.9l-1.3-19.9l-12.9-6.5C103.5,126.3,99.5,138.1,91.3,147.1"/>
			<path class="st10" d="M140.8,114.4l9.1,4.6l16.5-10.9l-1.3-19.9l-12.9-6.5C153,93.6,149,105.4,140.8,114.4"/>
			<path class="st10" d="M121.7,85.6l9.1,4.6l16.5-10.9L146,59.5L133.1,53C133.9,64.8,129.9,76.6,121.7,85.6"/>
			<polygon class="st11" points="92.8,129.4 101.1,123.9 99.1,120.8 88.8,127.5 90,136.9 93.6,136.4 			"/>
			<polygon class="st12" points="108.8,105.7 108,98.6 116.3,93.1 114.3,90 104,96.8 105.2,106.1 			"/>
			<polygon class="st11" points="124,74.9 123.2,67.9 131.5,62.4 129.5,59.3 119.2,66 120.4,75.4 			"/>
			<path class="st11" d="M163.2,89.5l1.2,17.7l-14.7,9.7l-15.9-8l-1.2-17.7l14.7-9.7L163.2,89.5z M182.3,118.3l1.2,17.7l-14.7,9.7
				l-15.9-8l-1.2-17.7l14.7-9.7L182.3,118.3z M83.1,123.9l14.7-9.7l15.9,8l1.1,17.7l-14.7,9.7l-15.9-8L83.1,123.9z M128.9,91.4
				l1.1,17.7l-14.7,9.7l-15.9-8l-1.2-17.7l14.7-9.7L128.9,91.4z M118.6,139.7l-1.2-17.7l14.7-9.7l15.9,8l1.1,17.7l-14.7,9.7
				L118.6,139.7z M65.2,112.8l-1.1-17.7l14.7-9.7l15.9,8l1.1,17.7l-14.7,9.7L65.2,112.8z M78.5,81.1L60.2,93.2l1.4,21.9l17.8,9
				l1.3,19.8l17.8,9l1.3,19.8l6.1,3.1l1.7-3.3l-4.2-2.1l-1.1-17.7l14.7-9.7l15.9,8l1.2,17.7l-14.7,9.7l-6.7-3.4l-1.7,3.3l8.6,4.3
				l18.3-12.1l-1.3-19.9l14.7-9.7l17.8,9l18.3-12.1l-1.4-22l-17.8-9l-1.3-19.9l-17.8-9l-1.3-19.9l-7.6-3.8l-1.7,3.3l5.7,2.9
				l1.2,17.7l-14.7,9.7l-15.9-8l-1.1-17.7l14.7-9.7l5.7,2.9l1.7-3.3l-7.6-3.8l-18.3,12.1l1.3,19.9L96.3,90L78.5,81.1z"/>
			<polygon class="st11" points="82,95 80,92 69.7,98.7 70.9,108.1 74.6,107.6 73.7,100.5 			"/>
			<polygon class="st11" points="143.1,103.8 142.3,96.7 150.6,91.2 148.5,88.1 138.3,94.9 139.4,104.2 			"/>
			<polygon class="st12" points="162.2,132.6 161.4,125.5 169.7,120 167.6,116.9 157.4,123.7 158.5,133 			"/>
			<polygon class="st11" points="135.4,121.9 133.3,118.8 123.1,125.6 124.2,135 127.9,134.5 127.1,127.4 			"/>
			<polygon class="st12" points="118.1,149.6 107.9,156.3 109.1,165.7 112.7,165.3 111.9,158.2 120.2,152.7 			"/>
			<polygon class="st7" points="73.3,2.7 89.7,-8.2 107.5,0.8 108.8,20.6 108.8,20.6 108.8,20.7 92.3,31.5 74.5,22.5 			"/>
			<polygon class="st8" points="141.8,-1.1 158.3,-12 176.1,-3.1 177.4,16.8 160.9,27.7 143.1,18.7 			"/>
			<polygon class="st8" points="107.5,0.8 124,-10.1 141.8,-1.1 143.1,18.7 143.1,18.7 143.1,18.7 126.6,29.6 108.8,20.6 			"/>
			<polygon class="st8" points="92.3,31.5 108.8,20.7 126.6,29.6 127.9,49.5 111.4,60.4 93.6,51.4 			"/>
			<path class="st9" d="M102.4,55.7l9.1,4.6L128,49.4l-1.3-19.9l-12.9-6.5C114.6,34.9,110.6,46.7,102.4,55.7"/>
			<path class="st9" d="M117.6,25l9.1,4.6l16.5-10.9l-1.3-19.9L129-7.7C129.8,4.2,125.8,16,117.6,25"/>
			<path class="st9" d="M151.9,23l9.1,4.6l16.5-10.9l-1.3-19.9l-12.9-6.5C164.1,2.2,160.1,14.1,151.9,23"/>
			<path class="st10" d="M83.3,26.9l9.1,4.6l16.5-10.9l-1.3-19.9L94.8-5.7C95.5,6.1,91.5,17.9,83.3,26.9"/>
			<polygon class="st11" points="84.8,9.1 93.1,3.7 91.1,0.6 80.9,7.3 82,16.7 85.7,16.2 			"/>
			<path class="st11" d="M155.2-30.7l1.2,17.7l-14.7,9.7l-15.9-8L124.7-29l14.7-9.7L155.2-30.7z M174.3-1.9l1.2,17.7l-14.7,9.7
				l-15.9-8l-1.2-17.7l14.7-9.7L174.3-1.9z M75.2,3.7L89.9-6l15.9,8l1.1,17.7l-14.7,9.7l-15.9-8L75.2,3.7z M121-28.8l1.1,17.7
				l-14.7,9.7l-15.9-8l-1.2-17.7l14.7-9.7L121-28.8z M110.6,19.4l-1.2-17.7L124.2-8L140,0l1.1,17.7l-14.7,9.7L110.6,19.4z M57.2-7.5
				l-1.1-17.7l14.7-9.7l15.9,8l1.1,17.7L73.1,0.6L57.2-7.5z M70.5-39.1L52.2-27l1.4,21.9l17.8,9l1.3,19.8l17.8,9l1.3,19.8l6.1,3.1
				l1.7-3.3l-4.2-2.1l-1.1-17.7l14.7-9.7l15.9,8l1.2,17.7l-14.7,9.7l-6.7-3.4l-1.7,3.3l8.6,4.3l18.3-12.1l-1.3-19.9l14.7-9.7l17.8,9
				l18.3-12.1l-1.4-22l-17.8-9l-1.3-19.9L141-42l-1.3-19.9l-7.6-3.8l-1.7,3.3l5.7,2.9l1.2,17.7l-14.7,9.7l-15.9-8l-1.1-17.7
				l14.7-9.7l5.7,2.9l1.7-3.3l-7.6-3.8l-18.3,12.1l1.3,19.9l-14.7,9.7L70.5-39.1z"/>
			<polygon class="st12" points="154.2,12.4 153.4,5.3 161.7,-0.2 159.7,-3.3 149.4,3.5 150.6,12.8 			"/>
			<polygon class="st11" points="127.4,1.7 125.4,-1.4 115.1,5.4 116.3,14.7 120,14.3 119.1,7.2 			"/>
			<polygon class="st12" points="110.2,29.4 99.9,36.1 101.1,45.5 104.8,45 103.9,38 112.2,32.5 			"/>
			<polygon class="st7" points="150.3,117.7 166.8,106.8 184.6,115.8 185.9,135.6 169.4,146.5 151.6,137.5 			"/>
			<polygon class="st7" points="169.4,146.5 185.9,135.6 203.7,144.6 205,164.5 188.5,175.4 170.7,166.4 			"/>
			<polygon class="st7" points="119.9,179.2 136.4,168.3 154.2,177.3 155.5,197.1 155.5,197.1 155.5,197.1 139,208 121.2,199 			"/>
			<polygon class="st8" points="188.5,175.4 205,164.5 222.8,173.4 224.1,193.3 207.6,204.2 189.8,195.2 			"/>
			<polygon class="st8" points="100.8,150.4 117.3,139.5 135.1,148.5 136.4,168.3 136.4,168.3 136.4,168.3 119.9,179.2 102.1,170.2 
							"/>
			<polygon class="st8" points="135.1,148.5 151.6,137.6 169.4,146.5 170.7,166.4 170.7,166.4 170.7,166.4 154.2,177.3 136.4,168.3 
							"/>
			<polygon class="st8" points="154.2,177.3 170.7,166.4 188.5,175.4 189.8,195.2 189.8,195.2 189.8,195.2 173.3,206.1 155.5,197.1 
							"/>
			<polygon class="st8" points="139,208 155.5,197.1 173.3,206.1 174.6,226 158.1,236.8 140.3,227.8 			"/>
			<path class="st9" d="M149.1,232.2l9.1,4.6l16.5-10.9l-1.3-19.9l-12.9-6.5C161.3,211.4,157.3,223.2,149.1,232.2"/>
			<path class="st9" d="M164.3,201.5l9.1,4.6l16.5-10.9l-1.3-19.9l-12.9-6.5C176.5,180.6,172.5,192.5,164.3,201.5"/>
			<path class="st9" d="M145.1,172.7l9.1,4.6l16.5-10.9l-1.3-19.9l-12.9-6.5C157.3,151.9,153.3,163.7,145.1,172.7"/>
			<path class="st9" d="M110.9,174.6l9.1,4.6l16.5-10.9l-1.3-19.9l-12.9-6.5C123.1,153.8,119.1,165.6,110.9,174.6"/>
			<path class="st9" d="M198.6,199.5l9.1,4.6l16.5-10.9l-1.3-19.9l-12.9-6.5C210.7,178.7,206.7,190.5,198.6,199.5"/>
			<path class="st10" d="M130,203.4l9.1,4.6l16.5-10.9l-1.3-19.9l-12.9-6.5C142.2,182.6,138.2,194.4,130,203.4"/>
			<path class="st10" d="M179.5,170.7l9.1,4.6l16.5-10.9l-1.3-19.9l-12.9-6.5C191.7,149.9,187.6,161.7,179.5,170.7"/>
			<path class="st10" d="M160.4,141.9l9.1,4.6l16.5-10.9l-1.3-19.9l-12.9-6.5C172.6,121.1,168.6,132.9,160.4,141.9"/>
			<polygon class="st11" points="131.5,185.6 139.8,180.1 137.7,177.1 127.5,183.8 128.7,193.2 132.3,192.7 			"/>
			<polygon class="st12" points="147.5,162 146.7,154.9 155,149.4 152.9,146.3 142.7,153.1 143.8,162.4 			"/>
			<polygon class="st11" points="162.7,131.2 161.9,124.1 170.2,118.7 168.1,115.6 157.9,122.3 159,131.7 			"/>
			<path class="st11" d="M201.9,145.8l1.2,17.7l-14.7,9.7l-15.9-8l-1.2-17.7l14.7-9.7L201.9,145.8z M221,174.6l1.2,17.7l-14.7,9.7
				l-15.9-8l-1.2-17.7l14.7-9.7L221,174.6z M121.8,180.2l14.7-9.7l15.9,8l1.1,17.7l-14.7,9.7l-15.9-8L121.8,180.2z M167.6,147.7
				l1.1,17.7l-14.7,9.7l-15.9-8l-1.2-17.7l14.7-9.7L167.6,147.7z M157.3,195.9l-1.2-17.7l14.7-9.7l15.9,8l1.1,17.7l-14.7,9.7
				L157.3,195.9z M103.9,169l-1.1-17.7l14.7-9.7l15.9,8l1.1,17.7l-14.7,9.7L103.9,169z M117.2,137.4l-18.3,12.1l1.4,21.9l17.8,9
				l1.3,19.8l17.8,9l1.3,19.8l6.1,3.1l1.7-3.3l-4.2-2.1l-1.1-17.7l14.7-9.7l15.9,8l1.2,17.7l-14.7,9.7l-6.7-3.4l-1.7,3.3l8.6,4.3
				l18.3-12.1l-1.3-19.9l14.7-9.7l17.8,9l18.3-12.1l-1.4-22l-17.8-9l-1.3-19.9l-17.8-9l-1.3-19.9l-7.6-3.8l-1.7,3.3l5.7,2.9
				l1.2,17.7l-14.7,9.7l-15.9-8l-1.1-17.7l14.7-9.7l5.7,2.9l1.7-3.3l-7.6-3.8l-18.3,12.1l1.3,19.9l-14.7,9.7L117.2,137.4z"/>
			<polygon class="st11" points="120.7,151.3 118.7,148.2 108.4,155 109.6,164.3 113.2,163.9 112.4,156.8 			"/>
			<polygon class="st11" points="181.8,160 180.9,153 189.3,147.5 187.2,144.4 177,151.1 178.1,160.5 			"/>
			<polygon class="st12" points="200.9,188.9 200,181.8 208.4,176.3 206.3,173.2 196.1,180 197.2,189.3 			"/>
			<polygon class="st11" points="174.1,178.2 172,175.1 161.8,181.9 162.9,191.2 166.6,190.8 165.8,183.7 			"/>
			<polygon class="st12" points="156.8,205.9 146.6,212.6 147.7,222 151.4,221.5 150.6,214.5 158.9,209 			"/>
			<polygon class="st7" points="39.5,4.1 56,-6.8 73.8,2.2 75.1,22.1 58.6,32.9 40.8,23.9 			"/>
			<polygon class="st7" points="58.6,32.9 75.1,22.1 92.9,31 94.2,50.9 77.7,61.8 59.9,52.8 			"/>
			<polygon class="st8" points="77.7,61.8 94.2,50.9 112,59.8 113.2,79.7 96.8,90.6 79,81.6 			"/>
			<polygon class="st8" points="24.3,34.9 40.8,24 58.6,32.9 59.9,52.8 59.9,52.8 59.9,52.8 43.4,63.7 25.6,54.7 			"/>
			<polygon class="st8" points="43.4,63.7 59.9,52.8 77.7,61.8 78.9,81.6 79,81.6 79,81.6 62.5,92.5 44.7,83.5 			"/>
			<polygon class="st8" points="28.2,94.4 44.7,83.5 62.5,92.5 63.8,112.4 47.3,123.3 29.5,114.2 			"/>
			<path class="st9" d="M38.3,118.6l9.1,4.6l16.5-10.9l-1.3-19.9L49.7,86C50.5,97.8,46.4,109.6,38.3,118.6"/>
			<path class="st9" d="M53.5,87.9l9.1,4.6L79,81.6l-1.3-19.9l-12.9-6.5C65.6,67,61.6,78.9,53.5,87.9"/>
			<path class="st9" d="M34.3,59.1l9.1,4.6l16.5-10.9l-1.3-19.9l-12.9-6.5C46.5,38.3,42.5,50.1,34.3,59.1"/>
			<path class="st9" d="M87.8,85.9l9.1,4.6l16.5-10.9L112,59.8l-12.9-6.5C99.9,65.1,95.9,76.9,87.8,85.9"/>
			<path class="st10" d="M19.2,89.8l9.1,4.6l16.5-10.9l-1.3-19.9l-12.9-6.5C31.4,69,27.4,80.8,19.2,89.8"/>
			<path class="st10" d="M68.7,57.1l9.1,4.6l16.5-10.9L92.9,31l-12.9-6.5C80.8,36.3,76.8,48.1,68.7,57.1"/>
			<path class="st10" d="M49.6,28.3l9.1,4.6L75.2,22L73.9,2.1L61-4.3C61.8,7.5,57.7,19.3,49.6,28.3"/>
			<polygon class="st11" points="51.9,17.6 51,10.5 59.4,5.1 57.3,2 47.1,8.7 48.2,18.1 			"/>
			<path class="st11" d="M91.1,32.2l1.2,17.7l-14.7,9.7l-15.9-8l-1.2-17.7l14.7-9.7L91.1,32.2z M110.2,61l1.2,17.7l-14.7,9.7
				l-15.9-8l-1.2-17.7L94.3,53L110.2,61z M11,66.6l14.7-9.7l15.9,8l1.1,17.7l-14.7,9.7l-15.9-8L11,66.6z M56.8,34.1l1.1,17.7
				l-14.7,9.7l-15.9-8l-1.2-17.7l14.7-9.7L56.8,34.1z M46.5,82.3l-1.2-17.7L60,54.9l15.9,8L77,80.7l-14.7,9.7L46.5,82.3z M-6.9,55.4
				l-1.1-17.7L6.6,28l15.9,8l1.1,17.7L9,63.5L-6.9,55.4z M6.4,23.8l-18.3,12.1l1.4,21.9l17.8,9l1.3,19.8l17.8,9l1.3,19.8l6.1,3.1
				l1.7-3.3l-4.2-2.1l-1.1-17.7l14.7-9.7l15.9,8l1.2,17.7l-14.7,9.7l-6.7-3.4l-1.7,3.3l8.6,4.3l18.3-12.1l-1.3-19.9l14.7-9.7l17.8,9
				l18.3-12.1l-1.4-22l-17.8-9l-1.3-19.9l-17.8-9L75.6,1l-7.6-3.8l-1.7,3.3L72,3.4l1.2,17.7l-14.7,9.7l-15.9-8L41.4,5.1l14.7-9.7
				l5.7,2.9l1.7-3.3l-7.6-3.8L37.6,3.2L38.8,23l-14.7,9.7L6.4,23.8z"/>
			<polygon class="st11" points="71,46.4 70.1,39.4 78.5,33.9 76.4,30.8 66.2,37.5 67.3,46.9 			"/>
			<polygon class="st12" points="90.1,75.3 89.2,68.2 97.5,62.7 95.5,59.6 85.3,66.4 86.4,75.7 			"/>
			<polygon class="st11" points="63.3,64.6 61.2,61.5 51,68.3 52.1,77.6 55.8,77.2 54.9,70.1 			"/>
			<polygon class="st12" points="46,92.3 35.8,99 36.9,108.4 40.6,107.9 39.7,100.9 48.1,95.4 			"/>
			<polygon class="st7" points="13.2,125.2 29.7,114.4 47.4,123.3 48.7,143.2 32.3,154.1 14.4,145.1 			"/>
			<polygon class="st7" points="32.3,154.1 48.7,143.2 66.5,152.1 67.8,172 51.3,182.9 33.6,173.9 			"/>
			<polygon class="st8" points="51.3,182.9 67.8,172 85.6,181 86.9,200.8 70.4,211.7 52.6,202.7 			"/>
			<polygon class="st8" points="17.1,184.8 33.5,173.9 51.3,182.9 52.6,202.7 52.6,202.7 52.6,202.7 36.1,213.6 18.4,204.6 			"/>
			<path class="st9" d="M27.1,209l9.1,4.6l16.5-10.9l-1.3-19.9l-12.9-6.5C39.3,188.2,35.3,200,27.1,209"/>
			<path class="st9" d="M61.4,207.1l9.1,4.6L87,200.8l-1.3-19.9l-12.9-6.5C73.6,186.2,69.6,198.1,61.4,207.1"/>
			<path class="st10" d="M42.3,178.2l9.1,4.6l16.5-10.9l-1.3-19.9l-12.9-6.5C54.5,157.4,50.5,169.3,42.3,178.2"/>
			<path class="st10" d="M23.2,149.4l9.1,4.6l16.5-10.9l-1.3-19.9l-12.9-6.5C35.4,128.6,31.4,140.4,23.2,149.4"/>
			<path class="st11" d="M64.8,153.3l1.2,17.7l-14.7,9.7l-15.9-8L34.2,155l14.7-9.7L64.8,153.3z M83.8,182.1l1.2,17.7l-14.7,9.7
				l-15.9-8l-1.2-17.7l14.7-9.7L83.8,182.1z M-15.3,187.7l14.7-9.7l15.9,8l1.1,17.7l-14.7,9.7l-15.9-8L-15.3,187.7z M30.5,155.2
				l1.1,17.7l-14.7,9.7l-15.9-8l-1.2-17.7l14.7-9.7L30.5,155.2z M20.1,203.5L19,185.8l14.7-9.7l15.9,8l1.1,17.7L36,211.5L20.1,203.5
				z M-33.3,176.6l-1.1-17.7l14.7-9.7l15.9,8l1.1,17.7l-14.7,9.7L-33.3,176.6z M-19.9,144.9L-38.2,157l1.4,21.9l17.8,9l1.3,19.8
				l17.8,9l1.3,19.8l6.1,3.1l1.7-3.3l-4.2-2.1l-1.1-17.7l14.7-9.7l15.9,8l1.2,17.7l-14.7,9.7l-6.7-3.4l-1.7,3.3l8.6,4.3l18.3-12.1
				l-1.3-19.9l14.7-9.7l17.8,9l18.3-12.1l-1.4-22l-17.8-9L68.3,151l-17.8-9l-1.3-19.9l-7.6-3.8l-1.7,3.3l5.7,2.9l1.2,17.7l-14.7,9.7
				l-15.9-8l-1.1-17.7l14.7-9.7l5.7,2.9l1.7-3.3l-7.6-3.8l-18.3,12.1l1.3,19.9l-14.7,9.7L-19.9,144.9z"/>
			<polygon class="st11" points="44.7,167.6 43.8,160.5 52.1,155 50.1,151.9 39.8,158.7 41,168 			"/>
			<polygon class="st12" points="63.8,196.4 62.9,189.3 71.2,183.8 69.2,180.7 58.9,187.5 60.1,196.8 			"/>
			<polygon class="st7" points="28,93.7 44.5,82.8 62.3,91.8 63.6,111.6 47.1,122.5 29.3,113.5 			"/>
			<polygon class="st8" points="47.1,122.5 63.6,111.6 81.4,120.6 82.7,140.5 66.2,151.4 48.4,142.4 			"/>
			<polygon class="st8" points="12.8,124.5 29.3,113.6 47.1,122.5 48.4,142.3 48.4,142.4 48.4,142.4 31.9,153.3 14.1,144.3 			"/>
			<path class="st9" d="M22.9,148.6l9.1,4.6l16.5-10.9l-1.3-19.9L34.3,116C35.1,127.8,31.1,139.6,22.9,148.6"/>
			<path class="st9" d="M57.2,146.7l9.1,4.6l16.5-10.9l-1.3-19.9l-12.9-6.5C69.4,125.9,65.4,137.7,57.2,146.7"/>
			<path class="st10" d="M38.1,117.9l9.1,4.6l16.5-10.9l-1.3-19.9l-12.9-6.5C50.3,97.1,46.3,108.9,38.1,117.9"/>
			<path class="st11" d="M60.5,93l1.2,17.7L47,120.4l-15.9-8l-1.2-17.7L44.6,85L60.5,93z M79.6,121.8l1.2,17.7l-14.7,9.7l-15.9-8
				L49,123.5l14.7-9.7L79.6,121.8z M-19.5,127.3l14.7-9.7l15.9,8l1.1,17.7l-14.7,9.7l-15.9-8L-19.5,127.3z M26.2,94.9l1.1,17.7
				l-14.7,9.7l-15.9-8l-1.2-17.7l14.7-9.7L26.2,94.9z M15.9,143.1l-1.2-17.7l14.7-9.7l15.9,8l1.1,17.7l-14.7,9.7L15.9,143.1z
				 M-37.5,116.2l-1.1-17.7l14.7-9.7l15.9,8l1.1,17.7l-14.7,9.7L-37.5,116.2z M-24.2,84.5l-18.3,12.1l1.4,21.9l17.8,9l1.3,19.8
				l17.8,9l1.3,19.8l6.1,3.1l1.7-3.3l-4.2-2.1l-1.1-17.7l14.7-9.7l15.9,8l1.2,17.7l-14.7,9.7l-6.7-3.4l-1.7,3.3l8.6,4.3l18.3-12.1
				l-1.3-19.9l14.7-9.7l17.8,9l18.3-12.1l-1.4-22l-17.8-9l-1.3-19.9l-17.8-9L45,61.8L37.4,58l-1.7,3.3l5.7,2.9l1.2,17.7l-14.7,9.7
				l-15.9-8l-1.1-17.7l14.7-9.7l5.7,2.9l1.7-3.3l-7.6-3.8L7,63.9l1.3,19.9l-14.7,9.7L-24.2,84.5z"/>
			<polygon class="st11" points="40.4,107.2 39.6,100.1 47.9,94.6 45.8,91.6 35.6,98.3 36.7,107.7 			"/>
			<polygon class="st12" points="59.5,136 58.7,129 67,123.5 64.9,120.4 54.7,127.1 55.8,136.5 			"/>
			<polygon class="st7" points="66.8,152.2 83.2,141.3 101,150.3 102.3,170.1 85.8,181 68,172 			"/>
			<polygon class="st7" points="85.8,181 102.3,170.1 120.1,179.1 121.4,198.9 104.9,209.8 87.1,200.8 			"/>
			<polygon class="st7" points="36.4,213.7 52.9,202.8 70.6,211.7 71.9,231.6 71.9,231.6 71.9,231.6 55.4,242.5 37.6,233.5 			"/>
			<polygon class="st8" points="104.9,209.8 121.4,198.9 139.2,207.9 140.5,227.8 124,238.6 106.2,229.6 			"/>
			<polygon class="st8" points="17.3,184.9 33.8,174 51.6,182.9 52.8,202.7 52.9,202.7 52.9,202.8 36.4,213.7 18.5,204.7 			"/>
			<polygon class="st8" points="51.6,182.9 68,172 85.8,181 87.1,200.8 87.1,200.8 87.1,200.9 70.6,211.7 52.9,202.7 			"/>
			<polygon class="st8" points="70.6,211.7 87.1,200.9 104.9,209.8 106.2,229.6 106.2,229.6 106.2,229.7 89.7,240.6 71.9,231.6 			
				"/>
			<path class="st9" d="M80.7,235.9l9.1,4.6l16.5-10.9l-1.3-19.9l-12.9-6.5C92.9,215.1,88.9,226.9,80.7,235.9"/>
			<path class="st9" d="M61.6,207.2l9.1,4.6l16.5-10.9L85.8,181L73,174.5C73.7,186.3,69.7,198.2,61.6,207.2"/>
			<path class="st9" d="M27.4,209l9.1,4.6l16.5-10.9l-1.3-19.9l-12.9-6.5C39.5,188.2,35.5,200,27.4,209"/>
			<path class="st9" d="M115,234l9.1,4.6l16.5-10.9l-1.3-19.9l-12.9-6.5C127.2,213.2,123.2,225,115,234"/>
			<path class="st10" d="M46.4,237.8l9.1,4.6L72,231.6l-1.3-19.9l-12.9-6.5C58.6,217,54.6,228.9,46.4,237.8"/>
			<path class="st10" d="M95.9,205.2l9.1,4.6l16.5-10.9l-1.3-19.9l-12.9-6.5C108.1,184.4,104.1,196.2,95.9,205.2"/>
			<path class="st10" d="M76.8,176.4l9.1,4.6l16.5-10.9l-1.3-19.9l-12.9-6.5C89,155.5,85,167.4,76.8,176.4"/>
			<polygon class="st11" points="47.9,220.1 56.2,214.6 54.2,211.5 44,218.3 45.1,227.6 48.8,227.2 			"/>
			<polygon class="st12" points="64,196.4 63.1,189.4 71.4,183.9 69.4,180.8 59.2,187.5 60.3,196.9 			"/>
			<polygon class="st11" points="79.2,165.7 78.3,158.6 86.6,153.1 84.6,150 74.3,156.8 75.5,166.1 			"/>
			<path class="st11" d="M118.3,180.3l1.2,17.7l-14.7,9.7l-15.9-8L87.8,182l14.7-9.7L118.3,180.3z M137.4,209.1l1.2,17.7l-14.7,9.7
				l-15.9-8l-1.2-17.7l14.7-9.7L137.4,209.1z M38.3,214.6l14.7-9.7l15.9,8l1.1,17.7l-14.7,9.7l-15.9-8L38.3,214.6z M84.1,182.2
				l1.1,17.7l-14.7,9.7l-15.9-8l-1.2-17.7l14.7-9.7L84.1,182.2z M73.7,230.4l-1.2-17.7l14.7-9.7l15.9,8l1.1,17.7l-14.7,9.7
				L73.7,230.4z M20.3,203.5l-1.1-17.7l14.7-9.7l15.9,8l1.1,17.7l-14.7,9.7L20.3,203.5z M33.6,171.8l-18.3,12.1l1.4,21.9l17.8,9
				l1.3,19.8l17.8,9c0,0,0.3,5,0.6,9.9c0.3,5,0.6,9.9,0.6,9.9c2.9,1,5.2,3.3,6.4,3.3c3.5-2.3,1.2-4.7-2.8-5.7c0,0-0.3-4.4-0.6-8.8
				c-0.3-4.4-0.6-8.8-0.6-8.8l14.7-9.7l15.9,8l1.2,17.7c0,0-3.7,2.4-7.3,4.9c-3.7,2.4-7.4,4.9-7.4,4.9c-7.3,6.9-3.8-11.7-6.1-0.1
				c-1.2,4.7,9.3,4.7,15.5-1.7c4.6-3,9.1-6,9.1-6l-1.3-19.9l14.7-9.7l17.8,9l18.3-12.1l-1.4-22l-17.8-9l-1.3-19.9l-17.8-9l-1.3-19.9
				l-7.6-3.8l-1.7,3.3l5.7,2.9l1.2,17.7l-14.7,9.7l-15.9-8l-1.1-17.7l14.7-9.7l5.7,2.9l1.7-3.3l-7.6-3.8l-18.3,12.1l1.3,19.9
				l-14.7,9.7L33.6,171.8z"/>
			<polygon class="st11" points="98.3,194.5 97.4,187.4 105.7,181.9 103.7,178.8 93.4,185.6 94.6,195 			"/>
			<polygon class="st12" points="117.3,223.3 116.5,216.2 124.8,210.8 122.8,207.7 112.5,214.4 113.7,223.8 			"/>
			<polygon class="st11" points="90.5,212.7 88.5,209.6 78.2,216.3 79.4,225.7 83.1,225.3 82.2,218.2 			"/>
		</g>
		<g>
			<defs>
				<rect id="SVGID_8_" x="44.3" y="9" width="203.7" height="203.3"/>
			</defs>
			<clipPath id="SVGID_9_">
				<use xlink:href="#SVGID_8_"  style="overflow:visible;"/>
			</clipPath>
			<g class="st13">
				<defs>
					<rect id="SVGID_10_" x="44.3" y="9" width="203.7" height="203.3"/>
				</defs>
				<clipPath id="SVGID_11_">
					<use xlink:href="#SVGID_10_"  style="overflow:visible;"/>
				</clipPath>
				<g class="st14">
					<g>
						<defs>
							<rect id="SVGID_12_" x="21.2" y="-9" width="250" height="223.8"/>
						</defs>
						<clipPath id="SVGID_13_">
							<use xlink:href="#SVGID_12_"  style="overflow:visible;"/>
						</clipPath>
						<path class="st15" d="M45.3,212V69.6c0-33.9,28.1-62.2,62.3-62.2h141.8v142.2c0,34.4-28,62.5-62.3,62.5H45.3z"/>
					</g>
				</g>
			</g>
		</g>
	</g>
</g>
</svg>
