<?xml version="1.0" encoding="utf-8"?>
<!-- Generator: Adobe Illustrator 17.0.0, SVG Export Plug-In . SVG Version: 6.00 Build 0)  -->
<!DOCTYPE svg PUBLIC "-//W3C//DTD SVG 1.1//EN" "http://www.w3.org/Graphics/SVG/1.1/DTD/svg11.dtd">
<svg version="1.1" id="Layer_2" xmlns="http://www.w3.org/2000/svg" xmlns:xlink="http://www.w3.org/1999/xlink" x="0px" y="0px"
	 width="300px" height="600px" viewBox="0 0 300 600" style="enable-background:new 0 0 300 600;" xml:space="preserve">
<style type="text/css">
	.st0{fill:none;}
	.st1{fill:#004A86;}
	.st2{fill:#FFFFFF;}
	.st3{fill:url(#SVGID_1_);}
	.st4{fill:url(#SVGID_2_);}
	.st5{fill:url(#SVGID_3_);}
</style>
<g>
	<polyline class="st0" points="172.178,573.149 27.844,573.149 27.844,524.052 172.178,524.052 	"/>
	<g>
		<path class="st1" d="M99.495,536.108v5.074h-8.999v24.362h-5.687v-24.362h-8.999v-5.074H99.495z M101.913,565.544h5.689v-14.719
			v-14.717h-5.689v14.717V565.544z M137.007,565.544h-5.854l-3.026-7.244h-9.972l-2.991,7.244h-5.723l12.54-29.831h2.488
			L137.007,565.544z M137.007,565.544 M126.176,553.491l-3.008-7.33l-3.03,7.33H126.176z"/>
		<g>
			<path class="st2" d="M55.207,567.454c2.522,0,4.808-1.044,6.453-2.719l6.969-6.968c1.607-1.628,2.606-3.86,2.617-6.318v-21.704
				H49.575c-2.522,0-4.808,1.044-6.453,2.719l-6.968,6.968c-1.608,1.628-2.606,3.86-2.617,6.318v21.704H55.207z"/>
			<linearGradient id="SVGID_1_" gradientUnits="userSpaceOnUse" x1="52.3854" y1="548.6058" x2="69.3344" y2="531.6567">
				<stop  offset="0.1" style="stop-color:#9CDCF8"/>
				<stop  offset="0.9" style="stop-color:#009EDB"/>
			</linearGradient>
			<path class="st3" d="M52.102,531.657c-3.933,0-7.121,3.181-7.139,7.108v2.418h14.85v14.845h2.383
				c3.944,0,7.139-3.196,7.139-7.137v-17.234H52.102z"/>
			<linearGradient id="SVGID_2_" gradientUnits="userSpaceOnUse" x1="35.4485" y1="561.1874" x2="66.6969" y2="561.1874">
				<stop  offset="0" style="stop-color:#14B1E7"/>
				<stop  offset="0.16" style="stop-color:#13ABE2"/>
				<stop  offset="0.3694" style="stop-color:#0F9BD3"/>
				<stop  offset="0.6062" style="stop-color:#0980BC"/>
				<stop  offset="0.8614" style="stop-color:#015A9B"/>
				<stop  offset="0.9" style="stop-color:#005495"/>
			</linearGradient>
			<path class="st4" d="M66.531,556.831c-1.287,0.706-2.765,1.108-4.335,1.108H43.053l-7.604,7.605h19.759
				c1.923,0,3.73-0.763,5.091-2.148l6.399-6.399L66.531,556.831z"/>
			<linearGradient id="SVGID_3_" gradientUnits="userSpaceOnUse" x1="39.8046" y1="565.5438" x2="39.8046" y2="534.2948">
				<stop  offset="0" style="stop-color:#0082BE"/>
				<stop  offset="0.386" style="stop-color:#0070AE"/>
				<stop  offset="0.85" style="stop-color:#005495"/>
			</linearGradient>
			<path class="st5" d="M44.161,534.46c-0.706,1.288-1.108,2.765-1.108,4.335v19.143l-7.604,7.605v-19.759
				c0-1.922,0.763-3.73,2.147-5.091l6.399-6.399L44.161,534.46z"/>
		</g>
	</g>
</g>
<g>
	<g>
		<path class="st1" d="M164.58,565.544h-5.854L155.7,558.3h-9.972l-2.991,7.244h-5.723l12.54-29.831h2.488L164.58,565.544z
			 M164.58,565.544 M153.749,553.491l-3.008-7.33l-3.03,7.33H153.749z"/>
	</g>
</g>
</svg>
