<svg id="Layer_1" xmlns="http://www.w3.org/2000/svg" viewBox="0 0 320 50"><style>.st0{fill:#f9e039}</style><path class="st0" d="M51.2 19.6c-2.3 0-4.6-1.5-4.6-4.3 0-2.9 2.4-4.4 4.6-4.4 1.1 0 2.1.3 2.7.7l-.4 1.7c-.5-.3-1.3-.6-2.1-.6-1.5 0-2.8 1-2.8 2.7 0 1.5 1.2 2.6 2.7 2.6.5 0 .8-.1 1.1-.2v-1.3H51V15h3.3v4c-.7.3-1.8.6-3.1.6zM60.8 16.1l-.8.9h-2.9c.1.5.7 1 1.7 1 .6 0 1.2-.2 1.6-.4l-.2 1.6c-.4.2-1.1.4-1.9.4-1.8 0-3.2-1.2-3.2-3.2 0-1.9 1.4-3.1 3.1-3.1 1.6 0 2.6 1.1 2.6 2.4.1.1.1.3 0 .4zm-2.6-1.4c-.6 0-1 .4-1.1 1h2v-.1c0-.4-.4-.9-.9-.9zM65.7 15h-1.5v2.2c0 .5.3.7.8.7.2 0 .4 0 .5-.1l-.2 1.4c-.2.1-.5.2-.9.2-1.3 0-2.1-.7-2.1-1.9V15h-1v-1.6h1v-1.3l1.9-.7v2h1.9l-.4 1.6zM72 22.4c-1.7 0-2.9-1-2.9-2.2 0-.9.6-1.4 1.2-1.6l-.8-.8c.1-.4.4-.7.7-.8-.4-.3-.9-.8-.9-1.6 0-1.2.9-2.1 2.4-2.1.4 0 .6.1.9.1.3.1.5.1.8.1.3 0 .7-.1.9-.2l.4 1.5c-.2.1-.5.2-.7.2.1.1.1.4.1.6 0 1-.8 1.8-1.9 1.9-.2 0-.4.1-.4.2s.1.1.2.2l.9.3c1.2.4 1.8 1 1.8 2.1.2 1.2-1 2.1-2.7 2.1zm.4-2.8l-.7-.2c-.5 0-.8.3-.8.8 0 .4.4.7 1 .7.7 0 1-.3 1-.6.1-.3-.1-.6-.5-.7zm-.5-4.9c-.4 0-.8.3-.8.7 0 .4.3.7.8.7.4 0 .8-.3.8-.7 0-.4-.3-.7-.8-.7zM79.4 19.4v-.8c-.2.6-.9 1-1.8 1-1.3 0-2.1-.7-2.1-2v-4.1h1.9v3.6c0 .4.3.8.9.8.6 0 .9-.4.9-.8v-3.6h1.9v5.9h-1.7zM86.4 19.6c-.4-.1-.8-.4-.9-.8-.3.5-.8.7-1.5.7-1 0-2-.7-2-1.9 0-1.1.8-1.8 2-1.9l1.2-.1v-.2c0-.4-.3-.6-.9-.6-.6 0-1.2.2-1.6.5l-.3-1.4c.5-.3 1.3-.5 2.1-.5 1.6 0 2.7.7 2.7 2.1v1.9c0 .7.3 1.1.7 1.2l-1.5 1zm-1.2-2.8l-.7.1c-.5 0-.7.4-.7.7 0 .3.2.6.6.6.5 0 .8-.4.8-.9v-.5zM92 15.5c-.1-.1-.4-.1-.6-.1-.6 0-1.2.3-1.2 1.3v2.7h-1.9v-5.9h1.9v1.3c.2-.9.9-1.4 1.7-1.4.2 0 .4 0 .5.1l-.4 2zM97.1 19.6c-.4-.1-.8-.4-.9-.8-.3.5-.8.7-1.5.7-1 0-2-.7-2-1.9 0-1.1.8-1.8 2-1.9l1.2-.1v-.2c0-.4-.3-.6-.9-.6-.6 0-1.2.2-1.6.5l-.4-1.5c.5-.3 1.3-.5 2.1-.5 1.6 0 2.7.7 2.7 2.1v1.9c0 .7.3 1.1.7 1.2l-1.4 1.1zm-1.2-2.8l-.7.1c-.5 0-.7.4-.7.7 0 .3.2.6.6.6.5 0 .8-.4.8-.9v-.5zM102.7 19.4v-3.6c0-.4-.3-.8-.9-.8-.6 0-.9.4-.9.8v3.6H99v-5.9h1.8v.8c.2-.6.8-1 1.8-1 1.3 0 2.1.7 2.1 2v4.1h-2zM109.6 15h-1.5v2.2c0 .5.3.7.8.7.2 0 .4 0 .5-.1l-.2 1.4c-.2.1-.5.2-.9.2-1.3 0-2.1-.7-2.1-1.9V15h-1v-1.6h1v-1.3l1.9-.7v2h1.9l-.4 1.6zM115.8 16.1l-.8.9h-2.9c.1.5.7 1 1.7 1 .6 0 1.2-.2 1.6-.4l-.2 1.6c-.4.2-1.1.4-1.9.4-1.8 0-3.2-1.2-3.2-3.2 0-1.9 1.4-3.1 3.1-3.1 1.6 0 2.6 1.1 2.6 2.4.1.1 0 .3 0 .4zm-2.6-1.4c-.6 0-1 .4-1.1 1h2v-.1c0-.4-.4-.9-.9-.9zM122.1 16.1l-.8.9h-2.9c.1.5.7 1 1.7 1 .6 0 1.2-.2 1.6-.4l-.2 1.6c-.4.2-1.1.4-1.9.4-1.8 0-3.2-1.2-3.2-3.2 0-1.9 1.4-3.1 3.1-3.1 1.6 0 2.6 1.1 2.6 2.4v.4zm-2.6-1.4c-.6 0-1 .4-1.1 1h2v-.1c-.1-.4-.4-.9-.9-.9zM127.3 19.4v-.7c-.3.6-1 .9-1.8.9-1.4 0-2.8-1.1-2.8-3.1 0-1.9 1.4-3.1 3-3.1.6 0 1.3.2 1.5.4v-3.6h1.9v9.3h-1.8zm-.1-3.9c-.2-.2-.6-.5-1.2-.5-.8 0-1.4.6-1.4 1.5 0 .8.6 1.5 1.4 1.5.6 0 .9-.3 1.2-.6v-1.9zM134.9 19.6c-1.2-.1-2-.7-2-2.1v-7.4h1.9v7.2c0 .5.3.7.8.8l-.7 1.5zM137.3 12.7c-.3 0-1-.7-1-1 0-.3.7-1 1-1s1 .7 1 1c0 .3-.7 1-1 1zm-1 6.7v-5.9h1.9v5.9h-1.9zM143.5 11.8c-.2-.1-.5-.2-.8-.2-.7 0-1.1.4-1.1 1.3v.6h1.7L143 15h-1.3v4.3h-1.8V15h-.9v-1.6h.9v-.7c0-1.8 1.2-2.7 2.6-2.7.5 0 1.1.1 1.4.2l-.4 1.6zM149.2 16.1l-.8.9h-2.9c.1.5.7 1 1.7 1 .6 0 1.2-.2 1.6-.4l-.2 1.6c-.4.2-1.1.4-1.9.4-1.8 0-3.2-1.2-3.2-3.2 0-1.9 1.4-3.1 3.1-3.1 1.6 0 2.6 1.1 2.6 2.4v.4zm-2.6-1.4c-.6 0-1 .4-1.1 1h2v-.1c-.1-.4-.4-.9-.9-.9zM154.1 15h-1.5v2.2c0 .5.3.7.8.7.2 0 .4 0 .5-.1l-.2 1.4c-.2.1-.5.2-.9.2-1.3 0-2.1-.7-2.1-1.9V15h-1v-1.6h1v-1.3l1.9-.7v2h1.9l-.4 1.6zM156 12.7c-.3 0-1-.7-1-1 0-.3.7-1 1-1s1 .7 1 1c0 .3-.7 1-1 1zm-1 6.7v-5.9h1.9v5.9H155zM165.4 19.4v-3.6c0-.4-.2-.8-.8-.8-.6 0-.9.4-.9.8v3.6h-1.9v-3.6c0-.4-.2-.8-.8-.8-.6 0-.9.4-.9.8v3.6h-1.9v-5.9h1.8v.8c.2-.6.8-1 1.7-1 .8 0 1.5.3 1.7 1 .2-.6.9-1 1.8-1 1.3 0 2.1.7 2.1 2v4.1h-1.9zM173.8 16.1l-.8.9h-2.9c.1.5.7 1 1.7 1 .6 0 1.2-.2 1.6-.4l-.2 1.6c-.4.2-1.1.4-1.9.4-1.8 0-3.2-1.2-3.2-3.2 0-1.9 1.4-3.1 3.1-3.1 1.6 0 2.6 1.1 2.6 2.4.1.1 0 .3 0 .4zm-2.6-1.4c-.6 0-1 .4-1.1 1h2v-.1c0-.4-.4-.9-.9-.9zM178.5 12.7c-.3 0-1-.7-1-1 0-.3.7-1 1-1 .3 0 1 .7 1 1 0 .3-.7 1-1 1zm-1 6.7v-5.9h1.9v5.9h-1.9zM184.3 19.4v-3.6c0-.4-.3-.8-.9-.8-.6 0-.9.4-.9.8v3.6h-1.9v-5.9h1.8v.8c.2-.6.8-1 1.8-1 1.3 0 2.1.7 2.1 2v4.1h-2zM191.8 15.4c-.4-.2-.8-.4-1.3-.4-.8 0-1.5.6-1.5 1.5 0 .8.7 1.5 1.5 1.5.5 0 .9-.1 1.3-.3l-.2 1.6c-.4.2-.9.3-1.4.3-1.7 0-3.2-1.2-3.2-3.1 0-1.9 1.5-3.1 3.1-3.1.8 0 1.4.2 1.9.4l-.2 1.6zM195.8 19.6c-1.8 0-3.2-1.3-3.2-3.1s1.4-3.1 3.2-3.1c1.8 0 3.2 1.3 3.2 3.1s-1.4 3.1-3.2 3.1zm0-4.6c-.7 0-1.3.6-1.3 1.5s.6 1.5 1.3 1.5c.7 0 1.3-.6 1.3-1.5.1-.9-.6-1.5-1.3-1.5zM207.2 19.4v-3.6c0-.4-.2-.8-.8-.8-.6 0-.9.4-.9.8v3.6h-1.9v-3.6c0-.4-.2-.8-.8-.8-.6 0-.9.4-.9.8v3.6H200v-5.9h1.8v.8c.2-.6.8-1 1.7-1 .8 0 1.5.3 1.7 1 .2-.6.9-1 1.8-1 1.3 0 2.1.7 2.1 2v4.1h-1.9zM215.6 16.1l-.8.9h-2.9c.1.5.7 1 1.7 1 .6 0 1.2-.2 1.6-.4l-.2 1.6c-.4.2-1.1.4-1.9.4-1.8 0-3.2-1.2-3.2-3.2 0-1.9 1.4-3.1 3.1-3.1 1.6 0 2.6 1.1 2.6 2.4v.4zm-2.6-1.4c-.6 0-1 .4-1.1 1h2v-.1c0-.4-.4-.9-.9-.9z"/><g><path class="st0" d="M83 29.1h-1.5v2.2c0 .5.3.7.8.7.2 0 .4 0 .5-.1l-.2 1.4c-.2.1-.5.2-.9.2-1.3 0-2.1-.7-2.1-1.9v-2.5h-1v-1.6h1v-1.3l1.9-.7v2h1.9l-.4 1.6zM87.7 33.4v-3.6c0-.4-.3-.8-.9-.8-.6 0-.9.4-.9.8v3.6H84v-9.3h1.9V28c.3-.5.8-.7 1.7-.7 1.3 0 2.1.7 2.1 2v4.1h-2zM94.9 33.6c-.4-.1-.8-.4-.9-.8-.3.5-.8.7-1.5.7-1 0-2-.7-2-2 0-1.1.8-1.8 2-1.9l1.2-.1v-.2c0-.4-.3-.6-.9-.6-.6 0-1.2.2-1.6.5l-.3-1.4c.5-.3 1.3-.5 2.1-.5 1.6 0 2.7.7 2.7 2.1v1.9c0 .7.3 1.1.7 1.2l-1.5 1.1zm-1.2-2.8l-.7.1c-.5 0-.7.4-.7.7 0 .3.2.6.6.6.5 0 .8-.4.8-.9v-.5zM100.6 29.1H99v2.2c0 .5.3.7.8.7.2 0 .4 0 .5-.1l-.2 1.4c-.2.1-.5.2-.9.2-1.3 0-2.1-.7-2.1-1.9v-2.5h-1v-1.6h1v-1.3l1.9-.7v2h1.9l-.3 1.6zM108 33.4v-3.6c0-.4-.3-.8-.9-.8-.6 0-.9.4-.9.8v3.6h-1.9v-5.9h1.8v.8c.2-.6.8-1 1.8-1 1.3 0 2.1.7 2.1 2v4.1h-2zM116.4 30.1l-.8.9h-2.9c.1.5.7 1 1.7 1 .6 0 1.2-.2 1.6-.4l-.2 1.6c-.4.2-1.1.4-1.9.4-1.8 0-3.2-1.2-3.2-3.2 0-1.9 1.4-3.1 3.1-3.1 1.6 0 2.6 1.1 2.6 2.4.1.1.1.3 0 .4zm-2.6-1.4c-.6 0-1 .4-1.1 1h2v-.1c0-.4-.4-.9-.9-.9zM120.3 33.4h-1.4l-2.3-5.9h1.8l.8 2.2c.1.3.2.8.3 1.1.1-.4.2-.8.3-1.1l.8-2.2h1.8l-2.1 5.9zM128.3 30.1l-.8.9h-2.9c.1.5.7 1 1.7 1 .6 0 1.2-.2 1.6-.4l-.2 1.6c-.4.2-1.1.4-1.9.4-1.8 0-3.2-1.2-3.2-3.2 0-1.9 1.4-3.1 3.1-3.1 1.6 0 2.6 1.1 2.6 2.4.1.1.1.3 0 .4zm-2.5-1.4c-.6 0-1 .4-1.1 1h2v-.1c-.1-.4-.4-.9-.9-.9zM132.9 29.5c-.1-.1-.4-.1-.6-.1-.6 0-1.2.3-1.2 1.3v2.7h-1.9v-5.9h1.9v1.3c.2-.9.9-1.4 1.7-1.4.2 0 .4 0 .5.1l-.4 2zM140.3 29.5c-.1-.1-.4-.1-.6-.1-.6 0-1.2.3-1.2 1.3v2.7h-1.9v-5.9h1.9v1.3c.2-.9.9-1.4 1.7-1.4.2 0 .4 0 .5.1l-.4 2zM145.2 33.4v-.8c-.2.6-.9 1-1.8 1-1.3 0-2.1-.7-2.1-2v-4.1h1.9v3.6c0 .4.3.8.9.8.6 0 .9-.4.9-.8v-3.6h1.9v5.9h-1.7zM151.8 33.4v-3.6c0-.4-.3-.8-.9-.8-.6 0-.9.4-.9.8v3.6h-1.9v-5.9h1.8v.8c.2-.6.8-1 1.8-1 1.3 0 2.1.7 2.1 2v4.1h-2zM156.8 33.5c-.8 0-1.4-.2-1.9-.4l-.2-1.7c.5.4 1.2.6 1.8.6.4 0 .6-.2.6-.4s-.2-.4-.5-.5c-1.1-.3-1.8-.9-1.8-1.9 0-1.2.9-1.9 2.2-1.9.7 0 1.4.2 1.7.4l-.3 1.4c-.3-.2-.8-.3-1.2-.3-.3 0-.5.1-.5.4 0 .2.2.3.5.4 1.3.4 1.9 1 1.9 2s-.7 1.9-2.3 1.9zM165.7 33.6c-1.8 0-3.2-1.3-3.2-3.1s1.4-3.1 3.2-3.1c1.8 0 3.2 1.3 3.2 3.1s-1.5 3.1-3.2 3.1zm0-4.6c-.7 0-1.3.6-1.3 1.5s.6 1.5 1.3 1.5c.7 0 1.3-.6 1.3-1.5s-.6-1.5-1.3-1.5zM173.6 33.4v-.8c-.2.6-.9 1-1.8 1-1.3 0-2.1-.7-2.1-2v-4.1h1.9v3.6c0 .4.3.8.9.8.6 0 .9-.4.9-.8v-3.6h1.9v5.9h-1.7zM180.4 29.1h-1.5v2.2c0 .5.3.7.8.7.2 0 .4 0 .5-.1l-.2 1.4c-.2.1-.5.2-.9.2-1.3 0-2.1-.7-2.1-1.9v-2.5h-1v-1.6h1v-1.3l1.9-.7v2h1.9l-.4 1.6zM182.2 33.6c-.4 0-1.1-.7-1.1-1.1 0-.3.7-1.1 1.1-1.1.4 0 1.1.7 1.1 1.1-.1.3-.8 1.1-1.1 1.1z"/></g></svg>