<svg id="Layer_1" xmlns="http://www.w3.org/2000/svg" viewBox="0 0 320 50"><style>.st0{fill:#3abfef}</style><path class="st0" d="M238.4 28.1c-4.2 0-7.6 3.4-7.6 7.6v2c0 4.2 3.4 7.6 7.6 7.6h69c4.2 0 7.6-3.4 7.6-7.6v-2c0-4.2-3.4-7.6-7.6-7.6h-69z"/><path d="M240.4 37.1v-1h2.1v2.8h-.5l-.2-.6c-.4.5-.8.7-1.4.7-1.5 0-2.1-1.3-2.1-2.6 0-1.4.7-2.7 2.3-2.7 1.1 0 1.9.7 2 1.8l-1.2.2c-.1-.5-.3-1-.9-1-.9 0-1 1.1-1 1.8s.2 1.6 1 1.6c.5 0 .9-.4.9-.9h-1zM243.9 38.1c-.4-.5-.5-1.2-.5-1.9 0-1.4.7-2.7 2.2-2.7.7 0 1.2.2 1.7.8.4.5.6 1.2.6 1.9 0 .6-.2 1.3-.5 1.8-.4.6-1 .9-1.7.9-.8 0-1.4-.2-1.8-.8zm.9-2.9c-.1.3-.2.8-.2 1.1 0 .7.1 1.7 1 1.7.4 0 .6-.2.8-.6.1-.3.2-.7.2-1.1 0-.4 0-.8-.2-1.2-.2-.3-.4-.5-.8-.5-.5 0-.7.2-.8.6zM254.1 34.7h-1.3v4.2h-1.2v-4.2h-1.3v-1h3.8v1zM255.1 38.1c-.4-.5-.5-1.2-.5-1.9 0-1.4.7-2.7 2.2-2.7.7 0 1.2.2 1.7.8.4.5.6 1.2.6 1.9 0 .6-.2 1.3-.5 1.8-.4.6-1 .9-1.7.9-.8 0-1.4-.2-1.8-.8zm.9-2.9c-.1.3-.2.8-.2 1.1 0 .7.1 1.7 1 1.7.4 0 .6-.2.8-.6.1-.3.2-.7.2-1.1 0-.4 0-.8-.2-1.2-.2-.3-.4-.5-.8-.5-.5 0-.7.2-.8.6zM264.8 35.7c0-.6-.2-1.1-.9-1.1-.9 0-.9 1.1-.9 1.7 0 .7.1 1.6 1 1.6.6 0 .8-.5.9-1l1.2.1c-.1 1.2-.9 1.9-2.1 1.9-1.5 0-2.3-1.3-2.3-2.7 0-1.4.8-2.7 2.3-2.7 1.3 0 2 .8 2.1 2l-1.3.2zM271.1 38.9h-1.3l-.3-1.1h-1.7l-.3 1.1h-1.1l1.7-5.2h1.4l1.6 5.2zm-1.9-2.1l-.6-1.8-.6 1.8h1.2zM275 37.8v1h-3.3v-5.2h1.2v4.2h2.1zM278.5 35.7c0-.6-.2-1.1-.9-1.1-.9 0-.9 1.1-.9 1.7 0 .7.1 1.6 1 1.6.6 0 .8-.5.9-1l1.2.1c-.1 1.2-.9 1.9-2.1 1.9-1.5 0-2.3-1.3-2.3-2.7 0-1.4.8-2.7 2.3-2.7 1.3 0 2 .8 2.1 2l-1.3.2zM284.7 36.8c0 .6 0 1.2-.4 1.6-.4.4-1 .5-1.6.5-.5 0-1.2-.1-1.6-.4-.5-.4-.5-1-.5-1.7v-3.1h1.3v3.1c0 .2 0 .6.1.8.2.3.5.3.8.3.2 0 .6-.1.7-.3.2-.2.1-.6.1-.9v-3.1h1v3.2zM289 37.8v1h-3.3v-5.2h1.2v4.2h2.1zM294 38.9h-1.3l-.3-1.1h-1.7l-.3 1.1h-1.1l1.7-5.2h1.4l1.6 5.2zm-1.9-2.1l-.6-1.8-.6 1.8h1.2zM297.7 34.7h-1.3v4.2h-1.2v-4.2h-1.3v-1h3.8v1zM298.6 38.1c-.4-.5-.5-1.2-.5-1.9 0-1.4.7-2.7 2.2-2.7.7 0 1.2.2 1.7.8.4.5.6 1.2.6 1.9 0 .6-.2 1.3-.5 1.8-.4.6-1 .9-1.7.9s-1.4-.2-1.8-.8zm.9-2.9c-.1.3-.2.8-.2 1.1 0 .7.1 1.7 1 1.7.4 0 .6-.2.8-.6.1-.3.2-.7.2-1.1 0-.4 0-.8-.2-1.2-.2-.3-.4-.5-.7-.5-.5 0-.7.2-.9.6zM304.6 38.9h-1.2v-5.2h2.2c.5 0 .9 0 1.3.3s.7.8.7 1.3c0 .6-.3 1.1-.9 1.3l1 2.3h-1.3l-.8-2.1h-.9v2.1zm0-3h.7c.2 0 .5 0 .7-.1.2-.1.3-.4.3-.6 0-.2-.1-.4-.3-.5-.2-.1-.6-.1-.8-.1h-.6v1.3z"/></svg>