<svg xmlns="http://www.w3.org/2000/svg" width="300" height="50" viewBox="0 0 300 50"><g fill="#231F20"><path d="M17.72 21.47v-3.89c0-.46-.22-.87-.9-.87-.66 0-.95.39-.95.9v3.87h-2.06v-3.89c0-.46-.22-.87-.9-.87-.66 0-.95.39-.95.9v3.87H9.91v-6.35h1.91v.85h.01c.25-.67.88-1.05 1.88-1.05.91 0 1.6.36 1.88 1.04.27-.62 1.01-1.04 1.96-1.04 1.44 0 2.24.78 2.24 2.13v4.41h-2.07zM25.66 21.75c-.38-.08-.81-.38-.98-.84-.28.52-.88.77-1.65.77-1.12 0-2.12-.78-2.12-2.1 0-1.16.91-1.95 2.17-2.07l1.26-.13v-.21c0-.38-.31-.63-.99-.63-.62 0-1.3.2-1.77.49l-.36-1.55c.52-.34 1.39-.56 2.23-.56 1.68 0 2.87.77 2.87 2.3v2.07c0 .74.28 1.13.77 1.32l-1.43 1.14zm-1.32-3.05l-.77.07c-.53.04-.77.42-.77.8 0 .34.25.62.64.62.49 0 .9-.38.9-.92v-.57z"/><path d="M31.45 20.84c-.97 2.55-1.98 3.47-3.17 3.94l-1.26-1.26c1.02-.39 1.81-1.13 2.33-2.48l-2.28-5.91h1.99l.92 2.47c.14.36.28.8.38 1.25h.03c.13-.43.27-.88.41-1.25l.92-2.47h1.89l-2.16 5.71zM42.46 17.17c-.42-.27-.85-.41-1.36-.41-.9 0-1.61.64-1.61 1.57 0 .91.71 1.57 1.65 1.57.53 0 .94-.11 1.39-.35l-.18 1.75c-.42.2-.97.31-1.55.31-1.78 0-3.43-1.26-3.43-3.31 0-2.07 1.67-3.32 3.39-3.32.84 0 1.53.17 2.09.48l-.39 1.71zM47.01 21.67c-1.92 0-3.46-1.36-3.46-3.38s1.54-3.38 3.46-3.38c1.91 0 3.46 1.36 3.46 3.38s-1.56 3.38-3.46 3.38zm0-4.96c-.77 0-1.43.67-1.43 1.61s.66 1.61 1.43 1.61c.76 0 1.43-.67 1.43-1.61s-.68-1.61-1.43-1.61zM53.56 21.61c-.87 0-1.5-.18-2.02-.45l-.18-1.82c.56.39 1.29.69 1.99.69.38 0 .62-.2.62-.43 0-.27-.21-.38-.57-.49-1.22-.35-1.95-.97-1.95-2.07 0-1.25 1.01-2.04 2.38-2.04.78 0 1.55.21 1.88.38l-.35 1.51c-.31-.17-.81-.35-1.32-.35-.34 0-.56.15-.56.41 0 .24.17.36.56.46 1.43.38 2.02 1.09 2.02 2.16-.01 1.06-.79 2.04-2.5 2.04zM61.3 16.8h-1.65v2.35c0 .55.29.77.84.77.24 0 .38-.01.53-.08l-.18 1.56c-.2.1-.55.17-.95.17-1.43 0-2.28-.76-2.28-2.02V16.8h-1.06v-1.68h1.06v-1.36l2.04-.74v2.1h2.05l-.4 1.68zM73.43 21.47v-3.89c0-.46-.22-.87-.9-.87-.66 0-.95.39-.95.9v3.87h-2.06v-3.89c0-.46-.22-.87-.9-.87-.66 0-.95.39-.95.9v3.87h-2.06v-6.35h1.91v.85h.01c.25-.67.88-1.05 1.88-1.05.91 0 1.6.36 1.88 1.04.27-.62 1.01-1.04 1.96-1.04 1.44 0 2.24.78 2.24 2.13v4.41h-2.06zM80.05 21.67c-1.92 0-3.46-1.36-3.46-3.38s1.54-3.38 3.46-3.38c1.91 0 3.46 1.36 3.46 3.38s-1.56 3.38-3.46 3.38zm0-4.96c-.77 0-1.43.67-1.43 1.61s.66 1.61 1.43 1.61c.76 0 1.43-.67 1.43-1.61s-.68-1.61-1.43-1.61zM88.56 17.31a1.57 1.57 0 0 0-.62-.15c-.66 0-1.26.35-1.26 1.36v2.96h-2.06v-6.35h2.03v1.41h.01c.21-.99.95-1.53 1.81-1.53.2 0 .43.03.59.08l-.5 2.22zM95.53 17.94l-.91.92h-3.11c.1.52.8 1.11 1.88 1.11.66 0 1.33-.2 1.75-.48l-.2 1.77c-.48.25-1.2.42-2.02.42-1.93 0-3.49-1.34-3.49-3.42 0-2.05 1.48-3.35 3.31-3.35 1.77 0 2.84 1.22 2.84 2.54.01.15-.02.36-.05.49zm-2.78-1.49c-.6 0-1.11.46-1.23 1.04h2.14c0-.04.01-.08.01-.14 0-.43-.38-.9-.92-.9zM104.04 16.8h-1.65v2.35c0 .55.29.77.84.77.24 0 .38-.01.53-.08l-.18 1.56c-.2.1-.55.17-.95.17-1.43 0-2.28-.76-2.28-2.02V16.8h-1.06v-1.68h1.06v-1.36l2.04-.74v2.1h2.04l-.39 1.68zM109.27 21.47v-3.89c0-.46-.32-.87-.95-.87-.62 0-.99.39-.99.9v3.87h-2.06V11.5h2.03v4.22h.01c.32-.49.91-.78 1.79-.78 1.4 0 2.23.78 2.23 2.13v4.41h-2.06zM117.19 21.75c-.38-.08-.81-.38-.98-.84-.28.52-.88.77-1.65.77-1.12 0-2.12-.78-2.12-2.1 0-1.16.91-1.95 2.17-2.07l1.26-.13v-.21c0-.38-.31-.63-.99-.63-.62 0-1.3.2-1.76.49l-.36-1.55c.52-.34 1.39-.56 2.23-.56 1.68 0 2.87.77 2.87 2.3v2.07c0 .74.28 1.13.77 1.32l-1.44 1.14zm-1.32-3.05l-.77.07c-.53.04-.77.42-.77.8 0 .34.25.62.64.62.49 0 .9-.38.9-.92v-.57zM123.43 21.47v-3.89c0-.46-.31-.87-.94-.87-.62 0-1.01.39-1.01.9v3.87h-2.06v-6.35h1.89v.85h.01c.25-.67.91-1.05 1.93-1.05 1.39 0 2.23.78 2.23 2.13v4.41h-2.05z"/></g><g fill="#231F20"><path d="M13.81 34.84c-.97 2.55-1.98 3.47-3.17 3.94l-1.26-1.26c1.02-.39 1.81-1.13 2.33-2.48l-2.28-5.91h1.99l.92 2.47c.14.36.28.8.38 1.25h.03c.13-.43.27-.88.41-1.25l.92-2.47h1.89l-2.16 5.71zM19.71 35.67c-1.92 0-3.46-1.36-3.46-3.38 0-2.02 1.54-3.38 3.46-3.38 1.91 0 3.46 1.36 3.46 3.38 0 2.02-1.56 3.38-3.46 3.38zm0-4.96c-.77 0-1.43.67-1.43 1.61s.66 1.61 1.43 1.61c.76 0 1.43-.67 1.43-1.61s-.68-1.61-1.43-1.61zM28.44 35.47v-.87h-.01c-.25.67-.92 1.05-1.95 1.05-1.39 0-2.23-.77-2.23-2.11v-4.41h2.06v3.89c0 .46.32.87.95.87.62 0 .99-.41.99-.91v-3.85h2.06v6.35h-1.87zM39.1 30.8h-1.65v2.35c0 .55.29.77.84.77.24 0 .38-.01.53-.08l-.18 1.55c-.2.1-.55.17-.95.17-1.43 0-2.28-.76-2.28-2.02V30.8h-1.06v-1.68h1.06v-1.36l2.04-.74v2.1h2.04l-.39 1.68zM44.32 35.47v-3.89c0-.46-.32-.87-.95-.87-.62 0-.99.39-.99.9v3.87h-2.06V25.5h2.03v4.22h.01c.32-.49.91-.79 1.79-.79 1.4 0 2.23.79 2.23 2.13v4.41h-2.06zM48.84 28.25c-.36 0-1.11-.74-1.11-1.11s.74-1.09 1.11-1.09c.36 0 1.11.73 1.11 1.09s-.75 1.11-1.11 1.11zm-1.04 7.22v-6.35h2.07v6.35H47.8zM55.32 35.47v-3.89c0-.46-.31-.87-.94-.87-.62 0-1.01.39-1.01.9v3.87h-2.06v-6.35h1.89v.85h.01c.25-.67.91-1.05 1.93-1.05 1.39 0 2.23.79 2.23 2.13v4.41h-2.05zM62.74 35.47l-1.88-2.56h-.01v2.56h-2.03V25.5h2.03v6.21h.01l1.91-2.58h2.24l-2.23 3.08 2.35 3.26h-2.39zM66.86 35.67c-.38 0-1.16-.78-1.16-1.16 0-.36.78-1.15 1.16-1.15.38 0 1.16.78 1.16 1.15 0 .37-.78 1.16-1.16 1.16z"/></g></svg>