<?xml version="1.0" encoding="utf-8"?>
<!-- Generator: Adobe Illustrator 22.1.0, SVG Export Plug-In . SVG Version: 6.00 Build 0)  -->
<svg version="1.1" id="Layer_1" xmlns="http://www.w3.org/2000/svg" xmlns:xlink="http://www.w3.org/1999/xlink" x="0px" y="0px"
	 viewBox="0 0 300 250" style="enable-background:new 0 0 300 250;" xml:space="preserve">
<style type="text/css">
	.st0{fill:#402718;}
	.st1{fill:#FFDE17;}
	.st2{fill:#E11B22;}
	.st3{fill:#FFFFFF;}
</style>
<path class="st0" d="M59.4,162.6L59.4,162.6c0.5,0.6,1.4,0.6,2,0.1l11.1-9.9c0.6-0.5,0.6-1.4,0.1-2c-0.5-0.6-1.4-0.6-2-0.1
	l-11.1,9.9C58.9,161.2,58.9,162.1,59.4,162.6"/>
<rect x="70.2" y="155.1" transform="matrix(0.7071 -0.7071 0.7071 0.7071 -93.2865 97.4591)" class="st0" width="1.7" height="12.4"/>
<rect x="21.2" y="110.3" class="st0" width="1.7" height="44.3"/>
<path class="st1" d="M18,108.6c0,1.6,1.3,3,3,3c1.6,0,3-1.3,3-3c0-1.6-1.3-3-3-3C19.4,105.6,18,106.9,18,108.6"/>
<path class="st1" d="M35.7,170L35.7,170c1.9-0.9,2.7-3.1,1.9-5l-8.1-17.9c-0.9-1.9-3.1-2.7-5-1.9c-1.9,0.9-2.7,3.1-1.9,5l8.1,17.9
	C31.5,170,33.8,170.8,35.7,170"/>
<path class="st2" d="M20.8,149.7c7.4,4.6,9.2,16.1,9.2,16.1h34.3c8.4,0,9.8-7.7,9.8-7.7c2.4-12.1,11.6-17,15.1-18.5
	c11.2,8.8,18.4,22.4,18.4,37.7c0,3-0.3,5.8-0.8,8.6h-94c-0.5-2.8-0.8-5.7-0.8-8.6C12,167.1,15.2,157.5,20.8,149.7"/>
<path class="st0" d="M8.2,197.2h103.2c3.9,0,7.2-3.2,7.2-7.2c0-3.9-3.2-7.2-7.2-7.2H8.2c-3.9,0-7.2,3.2-7.2,7.2
	C1,194,4.2,197.2,8.2,197.2"/>
<path class="st0" d="M93,172.2c0,4.4,2.3,7.9,5.2,7.9c2.9,0,5.2-3.5,5.2-7.9c0-4.4-2.3-7.9-5.2-7.9C95.4,164.3,93,167.8,93,172.2"/>
<path class="st3" d="M96.9,164.6c2.2,0.9,3.8,4,3.8,7.6s-1.6,6.6-3.8,7.6c-2.2-0.9-3.8-4-3.8-7.6S94.7,165.6,96.9,164.6"/>
<path class="st3" d="M27,168.2h46.5c0.9,0,1.5-0.7,1.5-1.5s-0.7-1.5-1.5-1.5H27c-0.9,0-1.5,0.7-1.5,1.5S26.1,168.2,27,168.2"/>
</svg>
