<?xml version="1.0" encoding="utf-8"?>
<!-- Generator: Adobe Illustrator 22.1.0, SVG Export Plug-In . SVG Version: 6.00 Build 0)  -->
<svg version="1.1" id="Layer_1" xmlns="http://www.w3.org/2000/svg" xmlns:xlink="http://www.w3.org/1999/xlink" x="0px" y="0px"
	 viewBox="0 0 300 250" style="enable-background:new 0 0 300 250;" xml:space="preserve">
<style type="text/css">
	.st0{fill:#402718;}
	.st1{fill:#FFDE17;}
	.st2{fill:#E11B22;}
	.st3{fill:#FFFFFF;}
</style>
<path class="st0" d="M170.9,171.3L170.9,171.3c-0.5,0.6-1.4,0.6-2,0.1l-11.1-9.9c-0.6-0.5-0.6-1.4-0.1-2c0.5-0.6,1.4-0.6,2-0.1
	l11.1,9.9C171.4,169.8,171.4,170.7,170.9,171.3"/>
<rect x="153.1" y="169.2" transform="matrix(0.7071 -0.7071 0.7071 0.7071 -73.552 162.43)" class="st0" width="12.4" height="1.7"/>
<rect x="207.4" y="119" class="st0" width="1.7" height="44.3"/>
<path class="st1" d="M211.3,117.2c0,1.6-1.3,3-3,3c-1.6,0-3-1.3-3-3c0-1.6,1.3-3,3-3C209.9,114.2,211.3,115.6,211.3,117.2"/>
<path class="st1" d="M194.6,178.6L194.6,178.6c-1.9-0.9-2.7-3.1-1.9-5l8.1-17.9c0.9-1.9,3.1-2.7,5-1.9c1.9,0.9,2.7,3.1,1.9,5
	l-8.1,17.9C198.8,178.6,196.5,179.5,194.6,178.6"/>
<path class="st2" d="M209.5,158.4c-7.4,4.6-9.2,16.1-9.2,16.1H166c-8.4,0-9.8-7.7-9.8-7.7c-2.4-12.1-11.6-17-15.1-18.5
	c-11.2,8.8-18.4,22.4-18.4,37.7c0,3,0.3,5.8,0.8,8.6h94c0.5-2.8,0.8-5.7,0.8-8.6C218.3,175.7,215.1,166.2,209.5,158.4"/>
<path class="st0" d="M222.1,205.9H118.9c-3.9,0-7.2-3.2-7.2-7.2c0-3.9,3.2-7.2,7.2-7.2h103.2c3.9,0,7.2,3.2,7.2,7.2
	C229.3,202.6,226.1,205.9,222.1,205.9"/>
<path class="st0" d="M137.3,180.9c0,4.4-2.3,7.9-5.2,7.9c-2.9,0-5.2-3.5-5.2-7.9c0-4.4,2.3-7.9,5.2-7.9
	C134.9,173,137.3,176.5,137.3,180.9"/>
<path class="st3" d="M133.4,173.3c-2.2,0.9-3.8,4-3.8,7.6c0,3.6,1.6,6.6,3.8,7.6c2.2-0.9,3.8-4,3.8-7.6
	C137.3,177.2,135.6,174.2,133.4,173.3"/>
<path class="st3" d="M203.3,176.9h-46.5c-0.9,0-1.5-0.7-1.5-1.5c0-0.9,0.7-1.5,1.5-1.5h46.5c0.9,0,1.5,0.7,1.5,1.5
	C204.9,176.2,204.2,176.9,203.3,176.9"/>
</svg>
