<?xml version="1.0" encoding="utf-8"?>
<!-- Generator: Adobe Illustrator 22.1.0, SVG Export Plug-In . SVG Version: 6.00 Build 0)  -->
<svg version="1.1" id="Layer_1" xmlns="http://www.w3.org/2000/svg" xmlns:xlink="http://www.w3.org/1999/xlink" x="0px" y="0px"
	 viewBox="0 0 74.2 39.1" style="enable-background:new 0 0 74.2 39.1;" xml:space="preserve">
<style type="text/css">
	.st0{fill:#B9E0D3;}
	.st1{fill:#FFFDF6;}
	.st2{fill:#898F94;}
</style>
<rect x="0.4" y="0.4" class="st0" width="73.3" height="37.6"/>
<path class="st1" d="M72.5,37.4H1.7V1.7h70.8V37.4z M0,39.1h74.2V0H0V39.1z"/>
<path class="st2" d="M38.3,17.6H5.9c-0.4,0-0.7-0.3-0.7-0.7c0-0.4,0.3-0.7,0.7-0.7h32.4c0.4,0,0.7,0.3,0.7,0.7
	C39,17.3,38.7,17.6,38.3,17.6"/>
<path class="st2" d="M33.2,28.2H5.9c-0.4,0-0.7-0.3-0.7-0.7c0-0.4,0.3-0.7,0.7-0.7h27.3c0.4,0,0.7,0.3,0.7,0.7
	C33.9,27.9,33.6,28.2,33.2,28.2"/>
<path class="st2" d="M66.2,28.2H38.9c-0.4,0-0.7-0.3-0.7-0.7c0-0.4,0.3-0.7,0.7-0.7h27.3c0.4,0,0.7,0.3,0.7,0.7
	C66.8,27.9,66.5,28.2,66.2,28.2"/>
<path class="st2" d="M66.2,23.5H5.9c-0.4,0-0.7-0.3-0.7-0.7c0-0.4,0.3-0.7,0.7-0.7h60.2c0.4,0,0.7,0.3,0.7,0.7
	C66.8,23.2,66.5,23.5,66.2,23.5"/>
<path class="st2" d="M66.3,9.9H46.6c-0.4,0-0.7-0.3-0.7-0.7c0-0.4,0.3-0.7,0.7-0.7h19.7c0.4,0,0.7,0.3,0.7,0.7
	C67,9.6,66.7,9.9,66.3,9.9"/>
<path class="st2" d="M25.5,9.2H5.7c-0.4,0-0.7-0.3-0.7-0.7c0-0.4,0.3-0.7,0.7-0.7h19.7c0.4,0,0.7,0.3,0.7,0.7
	C26.1,8.9,25.8,9.2,25.5,9.2"/>
<path class="st2" d="M25.5,12.6H5.7c-0.4,0-0.7-0.3-0.7-0.7c0-0.4,0.3-0.7,0.7-0.7h19.7c0.4,0,0.7,0.3,0.7,0.7
	C26.1,12.3,25.8,12.6,25.5,12.6"/>
<rect x="46.8" y="12.7" class="st1" width="20.3" height="5.7"/>
<path class="st2" d="M45.5,15.5c-0.1-0.1-0.2-0.2-0.4-0.3c-0.2-0.1-0.3-0.2-0.6-0.3c-0.3-0.1-0.4-0.2-0.5-0.3
	c-0.1-0.1-0.1-0.2-0.1-0.3c0-0.1,0-0.2,0.1-0.3c0.1-0.1,0.2-0.1,0.3-0.1c0.2,0,0.4,0.1,0.6,0.4c0,0,0,0,0.1,0.1c0,0,0.1,0,0.1,0
	l0.6-0.3c0.1,0,0.1-0.1,0-0.1c-0.1-0.2-0.3-0.4-0.4-0.6c-0.1-0.1-0.3-0.2-0.5-0.2v-0.5c0-0.1,0-0.1-0.1-0.1h-0.5
	c-0.1,0-0.1,0-0.1,0.1v0.5c-0.1,0-0.3,0.1-0.4,0.2c-0.1,0.1-0.2,0.2-0.3,0.3c-0.1,0.1-0.2,0.2-0.2,0.4c0,0.1-0.1,0.3-0.1,0.4
	c0,0.3,0.1,0.6,0.3,0.8c0.1,0.2,0.4,0.3,0.8,0.5c0.2,0.1,0.3,0.2,0.4,0.2c0.1,0.1,0.2,0.1,0.2,0.2c0.1,0.1,0.1,0.2,0.1,0.4
	c0,0.2-0.1,0.3-0.2,0.4c-0.1,0.1-0.3,0.2-0.5,0.2c-0.2,0-0.3,0-0.4-0.1c-0.1-0.1-0.2-0.3-0.3-0.6c0-0.1-0.1-0.1-0.1-0.1l-0.6,0.1
	c0,0-0.1,0-0.1,0s0,0.1,0,0.1c0.1,0.4,0.3,0.8,0.5,1c0.2,0.2,0.5,0.3,0.8,0.4v0.5c0,0.1,0,0.1,0.1,0.1h0.5c0.1,0,0.1,0,0.1-0.1v-0.5
	c0.3-0.1,0.6-0.3,0.8-0.5c0.2-0.3,0.3-0.6,0.3-0.9C45.8,16.1,45.7,15.8,45.5,15.5"/>
</svg>
