<?xml version="1.0" encoding="utf-8"?>
<!-- Generator: Adobe Illustrator 22.1.0, SVG Export Plug-In . SVG Version: 6.00 Build 0)  -->
<svg version="1.1" id="Layer_1" xmlns="http://www.w3.org/2000/svg" xmlns:xlink="http://www.w3.org/1999/xlink" x="0px" y="0px"
	 viewBox="0 0 300 250" style="enable-background:new 0 0 300 250;" xml:space="preserve">
<style type="text/css">
	.st0{fill:#B9E1D3;}
	.st1{fill:#FFFEF6;}
	.st2{fill:#8A9096;}
</style>
<rect x="150.1" y="137.2" transform="matrix(0.3239 -0.9461 0.9461 0.3239 -22.8145 272.1421)" class="st0" width="57.7" height="29.6"/>
<path class="st1" d="M155.3,173.9l29.1,10l18.9-55.2l-29.1-10L155.3,173.9z M175,120.3l26.6,9.1l-18.1,52.7l-26.6-9.1L175,120.3z"/>
<path class="st2" d="M178.1,149.8l-8.3,24.1c-0.1,0.3-0.4,0.4-0.7,0.3c-0.3-0.1-0.4-0.4-0.3-0.7l8.3-24.1c0.1-0.3,0.4-0.4,0.7-0.3
	C178,149.3,178.2,149.6,178.1,149.8"/>
<path class="st2" d="M184.8,156.3l-7,20.3c-0.1,0.3-0.4,0.4-0.7,0.3c-0.3-0.1-0.4-0.4-0.3-0.7l7-20.3c0.1-0.3,0.4-0.4,0.7-0.3
	C184.7,155.8,184.9,156.1,184.8,156.3"/>
<path class="st2" d="M193.2,131.8l-7,20.3c-0.1,0.3-0.4,0.4-0.7,0.3c-0.3-0.1-0.4-0.4-0.3-0.7l7-20.3c0.1-0.3,0.4-0.4,0.7-0.3
	C193.1,131.2,193.3,131.5,193.2,131.8"/>
<path class="st2" d="M189.6,130.6l-15.4,44.9c-0.1,0.3-0.4,0.4-0.7,0.3c-0.3-0.1-0.4-0.4-0.3-0.7l15.4-44.9c0.1-0.3,0.4-0.4,0.7-0.3
	C189.5,130,189.7,130.3,189.6,130.6"/>
<path class="st2" d="M179.5,127l-5,14.7c-0.1,0.3-0.4,0.4-0.7,0.3c-0.3-0.1-0.4-0.4-0.3-0.7l5-14.7c0.1-0.3,0.4-0.4,0.7-0.3
	C179.5,126.4,179.6,126.7,179.5,127"/>
<path class="st2" d="M168.6,157.3l-5,14.7c-0.1,0.3-0.4,0.4-0.7,0.3c-0.3-0.1-0.4-0.4-0.3-0.7l5-14.7c0.1-0.3,0.4-0.4,0.7-0.3
	C168.6,156.7,168.7,157,168.6,157.3"/>
<path class="st2" d="M171.1,158.1l-5,14.7c-0.1,0.3-0.4,0.4-0.7,0.3c-0.3-0.1-0.4-0.4-0.3-0.7l5-14.7c0.1-0.3,0.4-0.4,0.7-0.3
	C171.1,157.6,171.2,157.9,171.1,158.1"/>
<rect x="173.4" y="133.2" transform="matrix(0.324 -0.9461 0.9461 0.324 -5.4999 263.1232)" class="st1" width="16" height="4.5"/>
<path class="st2" d="M178.4,144c-0.1,0-0.2,0.1-0.3,0.2c-0.1,0.1-0.2,0.2-0.4,0.4c-0.2,0.2-0.3,0.3-0.3,0.3c-0.1,0-0.1,0-0.2,0
	c-0.1,0-0.1-0.1-0.2-0.2c0-0.1,0-0.2,0-0.3c0.1-0.2,0.2-0.3,0.4-0.3c0,0,0,0,0.1,0c0,0,0,0,0-0.1l-0.1-0.5c0,0-0.1-0.1-0.1-0.1
	c-0.2,0-0.4,0.1-0.5,0.2c-0.1,0.1-0.2,0.2-0.3,0.3l-0.4-0.1c0,0-0.1,0-0.1,0.1l-0.1,0.4c0,0,0,0.1,0.1,0.1l0.4,0.1
	c0,0.1,0,0.2,0,0.3c0,0.1,0.1,0.2,0.1,0.3s0.1,0.2,0.2,0.2c0.1,0.1,0.2,0.1,0.3,0.2c0.2,0.1,0.5,0.1,0.7,0c0.1-0.1,0.3-0.2,0.6-0.4
	c0.1-0.1,0.2-0.2,0.3-0.3c0.1-0.1,0.1-0.1,0.2-0.1c0.1,0,0.2,0,0.3,0c0.1,0,0.2,0.1,0.3,0.2c0.1,0.1,0.1,0.2,0,0.4
	c0,0.1-0.1,0.2-0.2,0.3c-0.1,0.1-0.3,0.1-0.5,0.1c0,0-0.1,0-0.1,0.1l-0.1,0.5c0,0,0,0,0,0.1c0,0,0,0,0.1,0c0.3,0,0.6,0,0.8-0.1
	c0.2-0.1,0.4-0.3,0.5-0.5l0.4,0.1c0,0,0.1,0,0.1-0.1l0.1-0.4c0,0,0-0.1-0.1-0.1l-0.4-0.1c0-0.3-0.1-0.5-0.2-0.7
	c-0.1-0.2-0.4-0.4-0.6-0.5C178.9,143.9,178.7,143.9,178.4,144"/>
</svg>
