<?xml version="1.0" encoding="utf-8"?>
<!-- Generator: Adobe Illustrator 22.1.0, SVG Export Plug-In . SVG Version: 6.00 Build 0)  -->
<svg version="1.1" id="Layer_1" xmlns="http://www.w3.org/2000/svg" xmlns:xlink="http://www.w3.org/1999/xlink" x="0px" y="0px"
	 viewBox="0 0 300 250" style="enable-background:new 0 0 300 250;" xml:space="preserve">
<style type="text/css">
	.st0{fill:#B9E1D3;}
	.st1{fill:#FFFEF6;}
	.st2{fill:#8A9096;}
</style>
<rect x="31.2" y="116.8" transform="matrix(0.9461 -0.3239 0.3239 0.9461 -44.6955 22.7465)" class="st0" width="29.6" height="57.7"/>
<path class="st1" d="M69.7,167.5l-29.1,10l-18.9-55.2l29.1-10L69.7,167.5z M50,113.9L23.4,123l18.1,52.7l26.6-9.1L50,113.9z"/>
<path class="st2" d="M46.9,143.4l8.3,24.1c0.1,0.3,0.4,0.4,0.7,0.3c0.3-0.1,0.4-0.4,0.3-0.7l-8.3-24.1c-0.1-0.3-0.4-0.4-0.7-0.3
	C46.9,142.8,46.8,143.1,46.9,143.4"/>
<path class="st2" d="M40.2,149.9l7,20.3c0.1,0.3,0.4,0.4,0.7,0.3c0.3-0.1,0.4-0.4,0.3-0.7l-7-20.3c-0.1-0.3-0.4-0.4-0.7-0.3
	C40.3,149.3,40.1,149.6,40.2,149.9"/>
<path class="st2" d="M31.8,125.4l7,20.3c0.1,0.3,0.4,0.4,0.7,0.3c0.3-0.1,0.4-0.4,0.3-0.7l-7-20.3c-0.1-0.3-0.4-0.4-0.7-0.3
	C31.9,124.8,31.7,125.1,31.8,125.4"/>
<path class="st2" d="M35.4,124.2L50.7,169c0.1,0.3,0.4,0.4,0.7,0.3c0.3-0.1,0.4-0.4,0.3-0.7l-15.4-44.9c-0.1-0.3-0.4-0.4-0.7-0.3
	C35.4,123.6,35.3,123.9,35.4,124.2"/>
<path class="st2" d="M45.5,120.6l5,14.7c0.1,0.3,0.4,0.4,0.7,0.3c0.3-0.1,0.4-0.4,0.3-0.7l-5-14.7c-0.1-0.3-0.4-0.4-0.7-0.3
	C45.5,120,45.4,120.3,45.5,120.6"/>
<path class="st2" d="M56.4,150.9l5,14.7c0.1,0.3,0.4,0.4,0.7,0.3c0.3-0.1,0.4-0.4,0.3-0.7l-5-14.7c-0.1-0.3-0.4-0.4-0.7-0.3
	C56.4,150.3,56.3,150.6,56.4,150.9"/>
<path class="st2" d="M53.9,151.7l5,14.7c0.1,0.3,0.4,0.4,0.7,0.3c0.3-0.1,0.4-0.4,0.3-0.7l-5-14.7c-0.1-0.3-0.4-0.4-0.7-0.3
	C53.9,151.2,53.8,151.5,53.9,151.7"/>
<rect x="41.4" y="121" transform="matrix(0.9461 -0.324 0.324 0.9461 -39.4389 21.0902)" class="st1" width="4.5" height="16"/>
<path class="st2" d="M46.6,137.6c0.1,0,0.2,0.1,0.3,0.2c0.1,0.1,0.2,0.2,0.4,0.4c0.2,0.2,0.3,0.3,0.3,0.3c0.1,0,0.1,0,0.2,0
	c0.1,0,0.1-0.1,0.2-0.2c0-0.1,0-0.2,0-0.3c-0.1-0.2-0.2-0.3-0.4-0.3c0,0,0,0-0.1,0c0,0,0,0,0-0.1l0.1-0.5c0,0,0.1-0.1,0.1-0.1
	c0.2,0,0.4,0.1,0.5,0.2c0.1,0.1,0.2,0.2,0.3,0.3l0.4-0.1c0,0,0.1,0,0.1,0.1l0.1,0.4c0,0,0,0.1-0.1,0.1l-0.4,0.1c0,0.1,0,0.2,0,0.3
	c0,0.1-0.1,0.2-0.1,0.3c-0.1,0.1-0.1,0.2-0.2,0.2c-0.1,0.1-0.2,0.1-0.3,0.2c-0.2,0.1-0.5,0.1-0.7,0c-0.1-0.1-0.3-0.2-0.6-0.4
	c-0.1-0.1-0.2-0.2-0.3-0.3c-0.1-0.1-0.1-0.1-0.2-0.1c-0.1,0-0.2,0-0.3,0c-0.1,0-0.2,0.1-0.3,0.2c-0.1,0.1-0.1,0.2,0,0.4
	c0,0.1,0.1,0.2,0.2,0.3c0.1,0.1,0.3,0.1,0.5,0.1c0,0,0.1,0,0.1,0.1l0.1,0.5c0,0,0,0,0,0.1c0,0,0,0-0.1,0c-0.3,0-0.6,0-0.8-0.1
	c-0.2-0.1-0.4-0.3-0.5-0.5l-0.4,0.1c0,0-0.1,0-0.1-0.1l-0.1-0.4c0,0,0-0.1,0.1-0.1l0.4-0.1c0-0.3,0.1-0.5,0.2-0.7
	c0.1-0.2,0.4-0.4,0.6-0.5C46.1,137.5,46.3,137.5,46.6,137.6"/>
</svg>
