<?xml version="1.0" encoding="utf-8"?>
<!-- Generator: Adobe Illustrator 22.1.0, SVG Export Plug-In . SVG Version: 6.00 Build 0)  -->
<svg version="1.1" id="Layer_1" xmlns="http://www.w3.org/2000/svg" xmlns:xlink="http://www.w3.org/1999/xlink" x="0px" y="0px"
	 viewBox="0 0 300 250" style="enable-background:new 0 0 300 250;" xml:space="preserve">
<g>
	<path d="M265.4,242.3h-0.8l1.9-4.5h-2.3v-0.6h3.4L265.4,242.3z"/>
	<path d="M269.1,242.5l-0.7-0.3c1-0.5,1.7-1.2,2.1-2c-0.2,0.2-0.5,0.3-0.8,0.3c-1,0-1.6-0.7-1.6-1.6c0-1,0.7-1.7,1.7-1.7
		c0.9,0,1.7,0.6,1.7,1.8C271.4,240.3,270.4,241.7,269.1,242.5z M269.7,237.7c-0.5,0-0.9,0.4-0.9,1c0,0.6,0.4,1,1,1
		c0.4,0,0.8-0.2,1-0.7c0-0.1,0-0.2,0-0.2C270.7,238.2,270.2,237.7,269.7,237.7z"/>
	<path d="M274.8,240.9v1.4h-0.7v-1.4h-2l-0.1-0.6l2.4-3.2h0.5v3.1h0.6v0.6H274.8z M274.1,238.5c-0.1,0.2-0.3,0.4-0.5,0.6l-0.9,1.2
		h1.4v-1.2C274.1,238.9,274.1,238.7,274.1,238.5L274.1,238.5z"/>
	<path d="M277.3,242.4c-0.4,0-0.8-0.1-1-0.2l-0.1-0.7c0.3,0.2,0.7,0.3,1,0.3c0.6,0,1.1-0.4,1.1-1c0-0.7-0.5-1-1.1-1
		c-0.4,0-0.6,0-0.9,0.1l0.1-2.6h2.2l-0.1,0.6h-1.4l0,1.2c0.1,0,0.1,0,0.2,0c1,0,1.7,0.6,1.7,1.7
		C279.1,241.6,278.4,242.4,277.3,242.4z"/>
	<path d="M280.7,242.4c-0.3,0-0.6-0.1-0.8-0.2l-0.1-0.7c0.3,0.1,0.6,0.2,0.9,0.2c0.6,0,1.2-0.3,1.2-1c0-0.5-0.5-1-1.1-1
		c0,0-0.1,0-0.1,0l-0.1-0.6c0.5-0.1,0.9-0.4,0.9-0.8c0-0.4-0.3-0.6-0.7-0.6c-0.3,0-0.5,0.1-0.8,0.2l-0.1-0.6c0.3-0.2,0.6-0.2,1-0.2
		c0.8,0,1.4,0.5,1.4,1.2c0,0.6-0.4,0.9-0.7,1c0.6,0.1,1.1,0.6,1.1,1.5C282.5,241.7,281.9,242.4,280.7,242.4z"/>
	<path d="M284.1,242.3h-0.8l1.9-4.5h-2.3v-0.6h3.4L284.1,242.3z"/>
</g>
</svg>
