<?xml version="1.0" encoding="utf-8"?>
<!-- Generator: Adobe Illustrator 22.1.0, SVG Export Plug-In . SVG Version: 6.00 Build 0)  -->
<svg version="1.1" id="Layer_1" xmlns="http://www.w3.org/2000/svg" xmlns:xlink="http://www.w3.org/1999/xlink" x="0px" y="0px"
	 viewBox="0 0 300 250" style="enable-background:new 0 0 300 250;" xml:space="preserve">
<g>
	<path d="M23.7,33.4c-1.7,0-3.4-0.5-4.3-1.1L19,28.9c1.2,0.9,2.9,1.5,4.4,1.5c1.3,0,2.2-0.6,2.2-1.5c0-0.9-0.6-1.4-2-1.8
		c-3-0.8-4.4-2.5-4.4-4.8c0-2.5,1.9-4.6,5.2-4.6c1.8,0,3.2,0.5,3.8,0.9l-0.7,3c-0.6-0.4-1.8-0.8-2.9-0.8c-1.3,0-1.9,0.6-1.9,1.3
		c0,0.8,0.6,1.2,1.8,1.5c2.9,0.8,4.7,2.3,4.7,5C29.3,31.5,27.4,33.4,23.7,33.4z"/>
	<path d="M41.2,27.1l-1.6,1.6h-5.3c0.2,0.9,1.4,1.9,3.2,1.9c1.1,0,2.3-0.3,3-0.8l-0.3,3c-0.8,0.4-2.1,0.7-3.5,0.7
		c-3.3,0-6-2.3-6-5.9c0-3.5,2.5-5.7,5.7-5.7c3,0,4.9,2.1,4.9,4.3C41.3,26.5,41.2,26.9,41.2,27.1z M36.4,24.6c-1,0-1.9,0.8-2.1,1.8
		H38c0-0.1,0-0.1,0-0.2C38,25.4,37.3,24.6,36.4,24.6z"/>
	<path d="M52.9,27.1l-1.6,1.6H46c0.2,0.9,1.4,1.9,3.2,1.9c1.1,0,2.3-0.3,3-0.8l-0.3,3c-0.8,0.4-2.1,0.7-3.5,0.7c-3.3,0-6-2.3-6-5.9
		c0-3.5,2.5-5.7,5.7-5.7c3,0,4.9,2.1,4.9,4.3C53,26.5,52.9,26.9,52.9,27.1z M48.1,24.6c-1,0-1.9,0.8-2.1,1.8h3.7c0-0.1,0-0.1,0-0.2
		C49.7,25.4,49,24.6,48.1,24.6z"/>
	<path d="M67,33.2v-6.7c0-0.8-0.6-1.5-1.6-1.5c-1.1,0-1.7,0.7-1.7,1.5v6.6h-3.5V16.1h3.5v7.2h0c0.6-0.8,1.6-1.3,3.1-1.3
		c2.4,0,3.8,1.3,3.8,3.6v7.6H67z"/>
	<path d="M78.2,33.5c-3.3,0-5.9-2.3-5.9-5.8c0-3.5,2.6-5.8,5.9-5.8c3.3,0,5.9,2.3,5.9,5.8C84.1,31.2,81.4,33.5,78.2,33.5z M78.2,25
		c-1.3,0-2.4,1.2-2.4,2.8c0,1.6,1.1,2.8,2.4,2.8c1.3,0,2.4-1.2,2.4-2.8C80.6,26.2,79.5,25,78.2,25z"/>
	<path d="M97.2,33.3h-2.4l-1.5-4.3c-0.2-0.7-0.4-1.4-0.6-2.3h0c-0.2,0.8-0.4,1.6-0.6,2.2l-1.5,4.3h-2.3l-3.8-11h3.2l1.3,4.1
		c0.2,0.6,0.4,1.4,0.5,2.1h0c0.1-0.7,0.3-1.5,0.5-2.1l1.4-4.1h2.7l1.4,4.1c0.2,0.7,0.4,1.4,0.5,2.1h0c0.1-0.7,0.3-1.5,0.6-2.1
		l1.4-4.1h3L97.2,33.3z"/>
	<path d="M121.1,33.2v-6.7c0-0.8-0.4-1.5-1.5-1.5c-1.1,0-1.6,0.7-1.6,1.5v6.6h-3.5v-6.7c0-0.8-0.4-1.5-1.5-1.5
		c-1.1,0-1.6,0.7-1.6,1.5v6.6h-3.5V22.3h3.3v1.5h0c0.4-1.2,1.5-1.8,3.2-1.8c1.6,0,2.7,0.6,3.2,1.8c0.5-1.1,1.7-1.8,3.4-1.8
		c2.5,0,3.8,1.3,3.8,3.6v7.6H121.1z"/>
	<path d="M134.1,33.2v-1.5h0c-0.4,1.2-1.6,1.8-3.3,1.8c-2.4,0-3.8-1.3-3.8-3.6v-7.6h3.5V29c0,0.8,0.6,1.5,1.6,1.5
		c1.1,0,1.7-0.7,1.7-1.6v-6.6h3.5v10.9H134.1z"/>
	<path d="M147.8,25.8c-0.7-0.5-1.5-0.7-2.3-0.7c-1.5,0-2.8,1.1-2.8,2.7c0,1.6,1.2,2.7,2.8,2.7c0.9,0,1.6-0.2,2.4-0.6l-0.3,3
		c-0.7,0.3-1.7,0.5-2.7,0.5c-3,0-5.9-2.2-5.9-5.7c0-3.6,2.9-5.7,5.8-5.7c1.4,0,2.6,0.3,3.6,0.8L147.8,25.8z"/>
	<path d="M157.1,33.2v-6.7c0-0.8-0.6-1.5-1.6-1.5c-1.1,0-1.7,0.7-1.7,1.5v6.6h-3.5V16.1h3.5v7.2h0c0.6-0.8,1.6-1.3,3.1-1.3
		c2.4,0,3.8,1.3,3.8,3.6v7.6H157.1z"/>
	<path d="M174.8,32.1c-1.7,4.4-3.4,6-5.4,6.7l-2.2-2.2c1.8-0.7,3.1-1.9,4-4.2l-3.9-10.1h3.4l1.6,4.2c0.2,0.6,0.5,1.4,0.6,2.1h0
		c0.2-0.7,0.5-1.5,0.7-2.1l1.6-4.2h3.2L174.8,32.1z"/>
	<path d="M184.8,33.5c-3.3,0-5.9-2.3-5.9-5.8c0-3.5,2.6-5.8,5.9-5.8c3.3,0,5.9,2.3,5.9,5.8C190.7,31.2,188,33.5,184.8,33.5z
		 M184.8,25c-1.3,0-2.4,1.2-2.4,2.8c0,1.6,1.1,2.8,2.4,2.8c1.3,0,2.4-1.2,2.4-2.8C187.2,26.2,186.1,25,184.8,25z"/>
	<path d="M199.6,33.2v-1.5h0c-0.4,1.2-1.6,1.8-3.3,1.8c-2.4,0-3.8-1.3-3.8-3.6v-7.6h3.5V29c0,0.8,0.6,1.5,1.6,1.5
		c1.1,0,1.7-0.7,1.7-1.6v-6.6h3.5v10.9H199.6z"/>
	<path d="M211.8,26c-0.2-0.1-0.7-0.3-1.1-0.3c-1.1,0-2.2,0.6-2.2,2.3v5.1H205V22.3h3.5v2.4h0c0.4-1.7,1.6-2.6,3.1-2.6
		c0.3,0,0.7,0,1,0.1L211.8,26z"/>
</g>
<g>
	<path d="M25.9,50c-0.2-0.1-0.7-0.3-1.1-0.3c-1.1,0-2.2,0.6-2.2,2.3v5.1h-3.5V46.3h3.5v2.4h0c0.4-1.7,1.6-2.6,3.1-2.6
		c0.3,0,0.7,0,1,0.1L25.9,50z"/>
	<path d="M37.7,51.1l-1.6,1.6h-5.3c0.2,0.9,1.4,1.9,3.2,1.9c1.1,0,2.3-0.3,3-0.8l-0.3,3c-0.8,0.4-2.1,0.7-3.5,0.7
		c-3.3,0-6-2.3-6-5.9c0-3.5,2.5-5.7,5.7-5.7c3,0,4.9,2.1,4.9,4.3C37.8,50.5,37.7,50.9,37.7,51.1z M32.9,48.6c-1,0-1.9,0.8-2.1,1.8
		h3.7c0-0.1,0-0.1,0-0.2C34.5,49.4,33.8,48.6,32.9,48.6z"/>
	<path d="M46.9,49.2H44v4c0,0.9,0.5,1.3,1.4,1.3c0.4,0,0.6,0,0.9-0.1l-0.3,2.7c-0.3,0.2-0.9,0.3-1.6,0.3c-2.4,0-3.9-1.3-3.9-3.5
		v-4.7h-1.8v-2.9h1.8V44l3.5-1.3v3.6h3.5L46.9,49.2z"/>
	<path d="M50.6,44.8c-0.6,0-1.9-1.3-1.9-1.9S50,41,50.6,41s1.9,1.2,1.9,1.9S51.2,44.8,50.6,44.8z M48.8,57.2V46.3h3.6v10.9H48.8z"/>
	<path d="M61.4,50c-0.2-0.1-0.7-0.3-1.1-0.3c-1.1,0-2.2,0.6-2.2,2.3v5.1h-3.5V46.3h3.5v2.4h0c0.4-1.7,1.6-2.6,3.1-2.6
		c0.3,0,0.7,0,1,0.1L61.4,50z"/>
	<path d="M73.2,51.1l-1.6,1.6h-5.3c0.2,0.9,1.4,1.9,3.2,1.9c1.1,0,2.3-0.3,3-0.8l-0.3,3c-0.8,0.4-2.1,0.7-3.5,0.7
		c-3.3,0-6-2.3-6-5.9c0-3.5,2.5-5.7,5.7-5.7c3,0,4.9,2.1,4.9,4.3C73.3,50.5,73.3,50.9,73.2,51.1z M68.4,48.6c-1,0-1.9,0.8-2.1,1.8
		H70c0-0.1,0-0.1,0-0.2C70,49.4,69.4,48.6,68.4,48.6z"/>
	<path d="M88.4,57.2v-6.7c0-0.8-0.4-1.5-1.5-1.5c-1.1,0-1.6,0.7-1.6,1.5v6.6h-3.5v-6.7c0-0.8-0.4-1.5-1.5-1.5
		c-1.1,0-1.6,0.7-1.6,1.5v6.6H75V46.3h3.3v1.5h0c0.4-1.2,1.5-1.8,3.2-1.8c1.6,0,2.7,0.6,3.2,1.8c0.5-1.1,1.7-1.8,3.4-1.8
		c2.5,0,3.8,1.3,3.8,3.6v7.6H88.4z"/>
	<path d="M104.2,51.1l-1.6,1.6h-5.3c0.2,0.9,1.4,1.9,3.2,1.9c1.1,0,2.3-0.3,3-0.8l-0.3,3c-0.8,0.4-2.1,0.7-3.5,0.7
		c-3.3,0-6-2.3-6-5.9c0-3.5,2.5-5.7,5.7-5.7c3,0,4.9,2.1,4.9,4.3C104.2,50.5,104.2,50.9,104.2,51.1z M99.4,48.6
		c-1,0-1.9,0.8-2.1,1.8h3.7c0-0.1,0-0.1,0-0.2C101,49.4,100.3,48.6,99.4,48.6z"/>
	<path d="M112.8,57.2v-6.7c0-0.8-0.5-1.5-1.6-1.5c-1.1,0-1.7,0.7-1.7,1.5v6.6H106V46.3h3.2v1.5h0c0.4-1.2,1.6-1.8,3.3-1.8
		c2.4,0,3.8,1.3,3.8,3.6v7.6H112.8z"/>
	<path d="M125.8,49.2h-2.8v4c0,0.9,0.5,1.3,1.4,1.3c0.4,0,0.6,0,0.9-0.1l-0.3,2.7c-0.3,0.2-0.9,0.3-1.6,0.3c-2.4,0-3.9-1.3-3.9-3.5
		v-4.7h-1.8v-2.9h1.8V44l3.5-1.3v3.6h3.5L125.8,49.2z"/>
	<path d="M134.9,44.8c-0.6,0-1.9-1.3-1.9-1.9s1.3-1.9,1.9-1.9s1.9,1.2,1.9,1.9S135.5,44.8,134.9,44.8z M133.1,57.2V46.3h3.6v10.9
		H133.1z"/>
	<path d="M145.9,57.2v-6.7c0-0.8-0.5-1.5-1.6-1.5c-1.1,0-1.7,0.7-1.7,1.5v6.6H139V46.3h3.2v1.5h0c0.4-1.2,1.6-1.8,3.3-1.8
		c2.4,0,3.8,1.3,3.8,3.6v7.6H145.9z"/>
	<path d="M159.8,49.8c-0.7-0.5-1.5-0.7-2.3-0.7c-1.5,0-2.8,1.1-2.8,2.7c0,1.6,1.2,2.7,2.8,2.7c0.9,0,1.6-0.2,2.4-0.6l-0.3,3
		c-0.7,0.3-1.7,0.5-2.7,0.5c-3,0-5.9-2.2-5.9-5.7c0-3.6,2.9-5.7,5.8-5.7c1.4,0,2.6,0.3,3.6,0.8L159.8,49.8z"/>
	<path d="M167.5,57.5c-3.3,0-5.9-2.3-5.9-5.8c0-3.5,2.6-5.8,5.9-5.8c3.3,0,5.9,2.3,5.9,5.8C173.4,55.2,170.7,57.5,167.5,57.5z
		 M167.5,49c-1.3,0-2.4,1.2-2.4,2.8c0,1.6,1.1,2.8,2.4,2.8c1.3,0,2.4-1.2,2.4-2.8C169.9,50.2,168.8,49,167.5,49z"/>
	<path d="M188.5,57.2v-6.7c0-0.8-0.4-1.5-1.5-1.5c-1.1,0-1.6,0.7-1.6,1.5v6.6h-3.5v-6.7c0-0.8-0.4-1.5-1.5-1.5
		c-1.1,0-1.6,0.7-1.6,1.5v6.6h-3.5V46.3h3.3v1.5h0c0.4-1.2,1.5-1.8,3.2-1.8c1.6,0,2.7,0.6,3.2,1.8c0.5-1.1,1.7-1.8,3.4-1.8
		c2.5,0,3.8,1.3,3.8,3.6v7.6H188.5z"/>
	<path d="M204.3,51.1l-1.6,1.6h-5.3c0.2,0.9,1.4,1.9,3.2,1.9c1.1,0,2.3-0.3,3-0.8l-0.3,3c-0.8,0.4-2.1,0.7-3.5,0.7
		c-3.3,0-6-2.3-6-5.9c0-3.5,2.5-5.7,5.7-5.7c3,0,4.9,2.1,4.9,4.3C204.3,50.5,204.3,50.9,204.3,51.1z M199.5,48.6
		c-1,0-1.9,0.8-2.1,1.8h3.7c0-0.1,0-0.1,0-0.2C201.1,49.4,200.4,48.6,199.5,48.6z"/>
	<path d="M219.8,49.8c-0.7-0.5-1.5-0.7-2.3-0.7c-1.5,0-2.8,1.1-2.8,2.7c0,1.6,1.2,2.7,2.8,2.7c0.9,0,1.6-0.2,2.4-0.6l-0.3,3
		c-0.7,0.3-1.7,0.5-2.7,0.5c-3,0-5.9-2.2-5.9-5.7c0-3.6,2.9-5.7,5.8-5.7c1.4,0,2.6,0.3,3.6,0.8L219.8,49.8z"/>
	<path d="M229.7,57.7c-0.6-0.1-1.4-0.6-1.7-1.4c-0.5,0.9-1.5,1.3-2.8,1.3c-1.9,0-3.6-1.3-3.6-3.6c0-2,1.6-3.3,3.7-3.6l2.2-0.2v-0.4
		c0-0.6-0.5-1.1-1.7-1.1c-1.1,0-2.2,0.3-3,0.8l-0.6-2.7c0.9-0.6,2.4-1,3.8-1c2.9,0,4.9,1.3,4.9,3.9v3.6c0,1.3,0.5,1.9,1.3,2.3
		L229.7,57.7z M227.4,52.4l-1.3,0.1c-0.9,0.1-1.3,0.7-1.3,1.4c0,0.6,0.4,1.1,1.1,1.1c0.8,0,1.5-0.6,1.5-1.6V52.4z"/>
	<path d="M240.2,57.2v-6.7c0-0.8-0.5-1.5-1.6-1.5c-1.1,0-1.7,0.7-1.7,1.5v6.6h-3.5V46.3h3.2v1.5h0c0.4-1.2,1.6-1.8,3.3-1.8
		c2.4,0,3.8,1.3,3.8,3.6v7.6H240.2z"/>
	<path d="M256.6,57.5c-2.3,0-4.2-0.8-5.2-1.6V40.1h3.4v6.6c0.5-0.4,1.6-0.7,2.7-0.7c3,0,5.5,2.1,5.5,5.6
		C263,54.9,260.8,57.5,256.6,57.5z M256.9,49.1c-1,0-1.8,0.5-2.1,0.8v4.2c0.4,0.3,1.1,0.5,1.8,0.5c1.8,0,2.9-1.2,2.9-2.8
		C259.5,50.3,258.4,49.1,256.9,49.1z"/>
	<path d="M274.7,51.1l-1.6,1.6h-5.3c0.2,0.9,1.4,1.9,3.2,1.9c1.1,0,2.3-0.3,3-0.8l-0.3,3c-0.8,0.4-2.1,0.7-3.5,0.7
		c-3.3,0-6-2.3-6-5.9c0-3.5,2.5-5.7,5.7-5.7c3,0,4.9,2.1,4.9,4.3C274.8,50.5,274.7,50.9,274.7,51.1z M269.9,48.6
		c-1,0-1.9,0.8-2.1,1.8h3.7c0-0.1,0-0.1,0-0.2C271.5,49.4,270.9,48.6,269.9,48.6z"/>
	<path d="M277.9,57.5c-0.6,0-2-1.3-2-2c0-0.6,1.3-2,2-2c0.6,0,2,1.3,2,2C279.9,56.2,278.6,57.5,277.9,57.5z"/>
</g>
</svg>
