<?xml version="1.0" encoding="utf-8"?>
<!-- Generator: Adobe Illustrator 22.1.0, SVG Export Plug-In . SVG Version: 6.00 Build 0)  -->
<svg version="1.1" id="Layer_1" xmlns="http://www.w3.org/2000/svg" xmlns:xlink="http://www.w3.org/1999/xlink" x="0px" y="0px"
	 viewBox="0 0 300 250" style="enable-background:new 0 0 300 250;" xml:space="preserve">
<g>
	<path d="M34.3,38.6h-5.6V22h5.6c4.8,0,8.9,3.1,8.9,8.3C43.2,35.5,39.1,38.6,34.3,38.6z M33.9,25.3h-1.3v10h1.3c2.9,0,5.2-1.7,5.2-5
		S36.8,25.3,33.9,25.3z"/>
	<path d="M50.8,39c-3.6,0-6.4-2.5-6.4-6.3s2.9-6.3,6.4-6.3c3.5,0,6.4,2.5,6.4,6.3S54.4,39,50.8,39z M50.8,29.8c-1.4,0-2.7,1.2-2.7,3
		c0,1.7,1.2,3,2.7,3c1.4,0,2.7-1.2,2.7-3C53.5,31,52.2,29.8,50.8,29.8z"/>
	<path d="M66.3,38.6v-7.2c0-0.9-0.6-1.6-1.7-1.6c-1.1,0-1.9,0.7-1.9,1.7v7.2h-3.8V26.8h3.5v1.6h0c0.5-1.2,1.7-2,3.6-2
		c2.6,0,4.1,1.5,4.1,4v8.2H66.3z"/>
	<path d="M72.8,29.4l-1.2-0.2c0.9-1,1.6-2.5,1.7-3.7c-0.7-0.1-1.7-1.2-1.7-1.8c0-0.8,1.5-2.1,2.2-2.1c0.6,0,2.2,1.3,2.2,2.1
		C75.9,25.4,74.3,28,72.8,29.4z"/>
	<path d="M85.3,29.9h-3.1v4.4c0,1,0.5,1.4,1.6,1.4c0.4,0,0.7,0,1-0.2l-0.3,2.9c-0.4,0.2-1,0.3-1.8,0.3c-2.7,0-4.2-1.4-4.2-3.7v-5.1
		h-2v-3.1h2v-2.5l3.8-1.4v3.9h3.8L85.3,29.9z"/>
	<path d="M98,44.6c-3.4,0-5.7-2-5.7-4.4c0-1.8,1.2-2.9,2.4-3.2l-1.5-1.5c0.1-0.8,0.8-1.4,1.4-1.7c-0.9-0.5-1.7-1.7-1.7-3.1
		c0-2.5,1.8-4.2,4.9-4.2c0.7,0,1.2,0.1,1.7,0.2c0.5,0.1,1.1,0.2,1.7,0.2c0.7,0,1.3-0.2,1.8-0.4l0.7,2.9c-0.4,0.2-0.9,0.4-1.5,0.4
		c0.1,0.2,0.3,0.8,0.3,1.2c0,2-1.6,3.6-3.8,3.8c-0.5,0-0.8,0.1-0.8,0.4c0,0.1,0.1,0.3,0.3,0.4l1.8,0.6c2.3,0.8,3.6,2,3.6,4.2
		C103.6,42.8,101.4,44.6,98,44.6z M98.8,39.1l-1.4-0.4c-0.9,0-1.6,0.7-1.6,1.5c0,0.8,0.7,1.5,2.1,1.5c1.4,0,2.1-0.6,2.1-1.3
		C99.9,39.9,99.5,39.3,98.8,39.1z M97.7,29.2c-0.9,0-1.5,0.6-1.5,1.4c0,0.8,0.6,1.4,1.5,1.4c0.8,0,1.5-0.6,1.5-1.4
		C99.2,29.9,98.6,29.2,97.7,29.2z"/>
	<path d="M115.6,32.1l-1.7,1.7h-5.8c0.2,1,1.5,2.1,3.5,2.1c1.2,0,2.5-0.4,3.2-0.9l-0.4,3.3c-0.9,0.5-2.2,0.8-3.7,0.8
		c-3.6,0-6.5-2.5-6.5-6.3c0-3.8,2.8-6.2,6.1-6.2c3.3,0,5.3,2.3,5.3,4.7C115.7,31.4,115.6,31.8,115.6,32.1z M110.4,29.3
		c-1.1,0-2.1,0.9-2.3,1.9h4c0-0.1,0-0.2,0-0.3C112.1,30.2,111.4,29.3,110.4,29.3z"/>
	<path d="M125.3,29.9h-3.1v4.4c0,1,0.5,1.4,1.6,1.4c0.4,0,0.7,0,1-0.2l-0.3,2.9c-0.4,0.2-1,0.3-1.8,0.3c-2.7,0-4.2-1.4-4.2-3.7v-5.1
		h-2v-3.1h2v-2.5l3.8-1.4v3.9h3.8L125.3,29.9z"/>
	<path d="M138.4,38.9c-2.5,0-4.5-0.9-5.7-1.7V20.1h3.7v7.2c0.5-0.4,1.7-0.8,3-0.8c3.2,0,5.9,2.3,5.9,6
		C145.3,36.1,143,38.9,138.4,38.9z M138.7,29.8c-1.1,0-1.9,0.5-2.3,0.9v4.5c0.4,0.3,1.2,0.6,1.9,0.6c2,0,3.2-1.3,3.2-3
		C141.6,31.1,140.4,29.8,138.7,29.8z"/>
	<path d="M151.1,39.1c-2.4-0.1-4-1.4-4-4.2V20.1h3.8v14.3c0,1,0.5,1.5,1.6,1.6L151.1,39.1z"/>
	<path d="M155.6,25.2c-0.7,0-2.1-1.4-2.1-2.1c0-0.7,1.4-2,2.1-2s2.1,1.4,2.1,2C157.7,23.8,156.3,25.2,155.6,25.2z M153.7,38.6V26.8
		h3.8v11.8H153.7z"/>
	<path d="M167.2,38.6v-7.2c0-0.9-0.6-1.6-1.7-1.6c-1.1,0-1.9,0.7-1.9,1.7v7.2h-3.8V26.8h3.5v1.6h0c0.5-1.2,1.7-2,3.6-2
		c2.6,0,4.1,1.5,4.1,4v8.2H167.2z"/>
	<path d="M182,38.6v-1.5h0c-0.7,1.2-2,1.8-3.6,1.8c-2.9,0-5.7-2.2-5.7-6.2c0-3.8,2.7-6.3,6-6.3c1.2,0,2.5,0.4,3,0.8v-7.2h3.7v18.5
		H182z M181.6,30.9c-0.4-0.5-1.1-1.1-2.3-1.1c-1.7,0-2.8,1.3-2.8,3s1.2,3,2.8,3c1.1,0,1.9-0.6,2.3-1.2V30.9z"/>
	<path d="M191.4,38.9c-1.6,0-2.8-0.3-3.7-0.8l-0.3-3.4c1,0.7,2.4,1.3,3.7,1.3c0.7,0,1.1-0.4,1.1-0.8c0-0.5-0.4-0.7-1.1-0.9
		c-2.3-0.6-3.6-1.8-3.6-3.8c0-2.3,1.9-3.8,4.4-3.8c1.5,0,2.9,0.4,3.5,0.7l-0.7,2.8c-0.6-0.3-1.5-0.6-2.4-0.6c-0.6,0-1,0.3-1,0.8
		c0,0.4,0.3,0.7,1,0.9c2.7,0.7,3.7,2,3.7,4C196,37,194.5,38.9,191.4,38.9z"/>
	<path d="M199.6,25.2c-0.7,0-2.1-1.4-2.1-2.1c0-0.7,1.4-2,2.1-2s2.1,1.4,2.1,2C201.6,23.8,200.3,25.2,199.6,25.2z M197.7,38.6V26.8
		h3.8v11.8H197.7z"/>
	<path d="M212.5,38.6v-1.5h0c-0.7,1.2-2,1.8-3.6,1.8c-2.9,0-5.7-2.2-5.7-6.2c0-3.8,2.7-6.3,6-6.3c1.2,0,2.5,0.4,3,0.8v-7.2h3.7v18.5
		H212.5z M212.1,30.9c-0.4-0.5-1.1-1.1-2.3-1.1c-1.7,0-2.8,1.3-2.8,3s1.2,3,2.8,3c1.1,0,1.9-0.6,2.3-1.2V30.9z"/>
	<path d="M228.8,32.1l-1.7,1.7h-5.8c0.2,1,1.5,2.1,3.5,2.1c1.2,0,2.5-0.4,3.3-0.9l-0.4,3.3c-0.9,0.5-2.2,0.8-3.7,0.8
		c-3.6,0-6.5-2.5-6.5-6.3c0-3.8,2.8-6.2,6.1-6.2c3.3,0,5.3,2.3,5.3,4.7C228.9,31.4,228.9,31.8,228.8,32.1z M223.7,29.3
		c-1.1,0-2.1,0.9-2.3,1.9h4c0-0.1,0-0.2,0-0.3C225.4,30.2,224.7,29.3,223.7,29.3z"/>
	<path d="M239.3,38.6v-1.5h0c-0.7,1.2-2,1.8-3.6,1.8c-2.9,0-5.7-2.2-5.7-6.2c0-3.8,2.7-6.3,6-6.3c1.2,0,2.5,0.4,3,0.8v-7.2h3.7v18.5
		H239.3z M238.9,30.9c-0.4-0.5-1.1-1.1-2.3-1.1c-1.7,0-2.8,1.3-2.8,3s1.2,3,2.8,3c1.1,0,1.9-0.6,2.3-1.2V30.9z"/>
</g>
<g>
	<path d="M34.3,64.9c-2.5,0-4.5-0.9-5.7-1.7V46.1h3.7v7.2c0.5-0.4,1.7-0.8,3-0.8c3.2,0,5.9,2.3,5.9,6C41.2,62.1,38.9,64.9,34.3,64.9
		z M34.6,55.8c-1.1,0-1.9,0.5-2.3,0.9v4.5c0.4,0.3,1.2,0.6,1.9,0.6c2,0,3.2-1.3,3.2-3C37.4,57.1,36.2,55.8,34.6,55.8z"/>
	<path d="M49.4,63.4c-1.8,4.7-3.7,6.4-5.9,7.3l-2.3-2.3c1.9-0.7,3.4-2.1,4.3-4.6l-4.2-11h3.7l1.7,4.6c0.3,0.7,0.5,1.5,0.7,2.3h0.1
		c0.2-0.8,0.5-1.6,0.8-2.3l1.7-4.6h3.5L49.4,63.4z"/>
	<path d="M68.1,55.9H65v4.4c0,1,0.5,1.4,1.6,1.4c0.4,0,0.7,0,1-0.2l-0.3,2.9c-0.4,0.2-1,0.3-1.8,0.3c-2.7,0-4.2-1.4-4.2-3.7v-5.1h-2
		v-3.1h2v-2.5l3.8-1.4v3.9h3.8L68.1,55.9z"/>
	<path d="M77.3,64.6v-7.2c0-0.9-0.6-1.6-1.8-1.6c-1.1,0-1.8,0.7-1.8,1.7v7.2h-3.8V46.1h3.8v7.8h0c0.6-0.9,1.7-1.5,3.3-1.5
		c2.6,0,4.1,1.5,4.1,4v8.2H77.3z"/>
	<path d="M94.1,58.1l-1.7,1.7h-5.8c0.2,1,1.5,2.1,3.5,2.1c1.2,0,2.5-0.4,3.2-0.9L93,64.2c-0.9,0.5-2.2,0.8-3.7,0.8
		c-3.6,0-6.5-2.5-6.5-6.3c0-3.8,2.8-6.2,6.1-6.2c3.3,0,5.3,2.3,5.3,4.7C94.2,57.4,94.1,57.8,94.1,58.1z M88.9,55.3
		c-1.1,0-2.1,0.9-2.3,1.9h4c0-0.1,0-0.2,0-0.3C90.6,56.2,89.9,55.3,88.9,55.3z"/>
	<path d="M115.9,64.6v-7.2c0-0.9-0.4-1.6-1.7-1.6c-1.2,0-1.8,0.7-1.8,1.7v7.2h-3.8v-7.2c0-0.9-0.4-1.6-1.7-1.6
		c-1.2,0-1.8,0.7-1.8,1.7v7.2h-3.8V52.8h3.5v1.6h0c0.5-1.2,1.6-2,3.5-2c1.7,0,3,0.7,3.5,1.9c0.5-1.1,1.9-1.9,3.6-1.9
		c2.7,0,4.2,1.5,4.2,4v8.2H115.9z"/>
	<path d="M130.2,65.1c-0.7-0.2-1.5-0.7-1.8-1.6c-0.5,1-1.6,1.4-3.1,1.4c-2.1,0-3.9-1.5-3.9-3.9c0-2.2,1.7-3.6,4-3.8l2.3-0.2v-0.4
		c0-0.7-0.6-1.2-1.8-1.2c-1.1,0-2.4,0.4-3.3,0.9l-0.7-2.9c1-0.6,2.6-1,4.1-1c3.1,0,5.3,1.4,5.3,4.3v3.8c0,1.4,0.5,2.1,1.4,2.4
		L130.2,65.1z M127.7,59.5l-1.4,0.1c-1,0.1-1.4,0.8-1.4,1.5c0,0.6,0.5,1.1,1.2,1.1c0.9,0,1.7-0.7,1.7-1.7V59.5z"/>
	<path d="M141.2,56.9c-0.2-0.1-0.8-0.3-1.1-0.3c-1.2,0-2.3,0.6-2.3,2.5v5.5h-3.8V52.8h3.8v2.6h0c0.4-1.8,1.8-2.8,3.4-2.8
		c0.4,0,0.8,0.1,1.1,0.2L141.2,56.9z"/>
	<path d="M150.4,64.6l-3.5-4.8h0v4.8h-3.8V46.1h3.8v11.5h0l3.5-4.8h4.2l-4.1,5.7l4.4,6.1H150.4z"/>
	<path d="M166.1,58.1l-1.7,1.7h-5.8c0.2,1,1.5,2.1,3.5,2.1c1.2,0,2.5-0.4,3.3-0.9l-0.4,3.3c-0.9,0.5-2.2,0.8-3.7,0.8
		c-3.6,0-6.5-2.5-6.5-6.3c0-3.8,2.8-6.2,6.1-6.2c3.3,0,5.3,2.3,5.3,4.7C166.2,57.4,166.1,57.8,166.1,58.1z M160.9,55.3
		c-1.1,0-2.1,0.9-2.3,1.9h4c0-0.1,0-0.2,0-0.3C162.6,56.2,161.9,55.3,160.9,55.3z"/>
	<path d="M175.8,55.9h-3.1v4.4c0,1,0.5,1.4,1.6,1.4c0.4,0,0.7,0,1-0.2l-0.3,2.9c-0.4,0.2-1,0.3-1.8,0.3c-2.7,0-4.2-1.4-4.2-3.7v-5.1
		h-2v-3.1h2v-2.5l3.8-1.4v3.9h3.8L175.8,55.9z"/>
	<path d="M181.2,64.9c-1.6,0-2.8-0.3-3.7-0.8l-0.3-3.4c1,0.7,2.4,1.3,3.7,1.3c0.7,0,1.1-0.4,1.1-0.8c0-0.5-0.4-0.7-1.1-0.9
		c-2.3-0.6-3.6-1.8-3.6-3.8c0-2.3,1.9-3.8,4.4-3.8c1.5,0,2.9,0.4,3.5,0.7l-0.7,2.8c-0.6-0.3-1.5-0.6-2.4-0.6c-0.6,0-1,0.3-1,0.8
		c0,0.4,0.3,0.7,1,0.9c2.7,0.7,3.7,2,3.7,4C185.8,63,184.3,64.9,181.2,64.9z"/>
	<path d="M189.3,65c-0.7,0-2.2-1.5-2.2-2.2c0-0.7,1.5-2.1,2.2-2.1c0.7,0,2.2,1.5,2.2,2.1C191.4,63.5,190,65,189.3,65z"/>
</g>
</svg>
