<?xml version="1.0" encoding="utf-8"?>
<!-- Generator: Adobe Illustrator 22.1.0, SVG Export Plug-In . SVG Version: 6.00 Build 0)  -->
<svg version="1.1" id="Layer_1" xmlns="http://www.w3.org/2000/svg" xmlns:xlink="http://www.w3.org/1999/xlink" x="0px" y="0px"
	 viewBox="0 0 300 250" style="enable-background:new 0 0 300 250;" xml:space="preserve">
<g>
	<path d="M33.4,38.8c-1.9,0-3.7-0.5-4.7-1.1l-0.4-3.8c1.4,0.9,3.1,1.6,4.8,1.6c1.4,0,2.3-0.6,2.3-1.7c0-1-0.6-1.5-2.1-1.9
		c-3.3-0.9-4.8-2.7-4.8-5.2c0-2.8,2.1-5,5.6-5c1.9,0,3.5,0.5,4.2,0.9l-0.7,3.2c-0.7-0.4-2-0.9-3.1-0.9c-1.4,0-2.1,0.6-2.1,1.4
		c0,0.8,0.7,1.3,2,1.6c3.2,0.9,5.1,2.5,5.1,5.5C39.5,36.8,37.4,38.8,33.4,38.8z"/>
	<path d="M48.9,29.9h-3.1v4.4c0,1,0.5,1.4,1.6,1.4c0.4,0,0.7,0,1-0.2L48,38.5c-0.4,0.2-1,0.3-1.8,0.3c-2.7,0-4.2-1.4-4.2-3.7v-5.1
		h-2v-3.1h2v-2.5l3.8-1.4v3.9h3.8L48.9,29.9z"/>
	<path d="M61.2,32.1l-1.7,1.7h-5.8c0.2,1,1.5,2.1,3.5,2.1c1.2,0,2.5-0.4,3.2-0.9l-0.4,3.3c-0.9,0.5-2.2,0.8-3.7,0.8
		c-3.6,0-6.5-2.5-6.5-6.3c0-3.8,2.8-6.2,6.1-6.2c3.3,0,5.3,2.3,5.3,4.7C61.3,31.4,61.2,31.8,61.2,32.1z M56,29.3
		c-1.1,0-2.1,0.9-2.3,1.9h4c0-0.1,0-0.2,0-0.3C57.7,30.2,57,29.3,56,29.3z"/>
	<path d="M73.6,32.1l-1.7,1.7h-5.8c0.2,1,1.5,2.1,3.5,2.1c1.2,0,2.5-0.4,3.2-0.9l-0.4,3.3c-0.9,0.5-2.2,0.8-3.7,0.8
		c-3.6,0-6.5-2.5-6.5-6.3c0-3.8,2.8-6.2,6.1-6.2c3.3,0,5.3,2.3,5.3,4.7C73.7,31.4,73.6,31.8,73.6,32.1z M68.4,29.3
		c-1.1,0-2.1,0.9-2.3,1.9h4c0-0.1,0-0.2,0-0.3C70.1,30.2,69.4,29.3,68.4,29.3z"/>
	<path d="M82.6,30.9c-0.2-0.1-0.8-0.3-1.1-0.3c-1.2,0-2.3,0.6-2.3,2.5v5.5h-3.8V26.8h3.8v2.6h0c0.4-1.8,1.8-2.8,3.4-2.8
		c0.4,0,0.8,0.1,1.1,0.2L82.6,30.9z"/>
	<path d="M99.2,30.6c-0.8-0.5-1.6-0.8-2.5-0.8c-1.7,0-3,1.2-3,2.9c0,1.7,1.3,2.9,3.1,2.9c1,0,1.7-0.2,2.6-0.6L99,38.3
		c-0.8,0.4-1.8,0.6-2.9,0.6c-3.3,0-6.4-2.3-6.4-6.1c0-3.8,3.1-6.2,6.3-6.2c1.6,0,2.8,0.3,3.9,0.9L99.2,30.6z"/>
	<path d="M105.5,39.1c-2.4-0.1-4-1.4-4-4.2V20.1h3.8v14.3c0,1,0.5,1.5,1.6,1.6L105.5,39.1z"/>
	<path d="M118.7,32.1l-1.7,1.7h-5.8c0.2,1,1.5,2.1,3.5,2.1c1.2,0,2.5-0.4,3.2-0.9l-0.4,3.3c-0.9,0.5-2.2,0.8-3.7,0.8
		c-3.6,0-6.5-2.5-6.5-6.3c0-3.8,2.8-6.2,6.1-6.2c3.3,0,5.3,2.3,5.3,4.7C118.8,31.4,118.8,31.8,118.7,32.1z M113.5,29.3
		c-1.1,0-2.1,0.9-2.3,1.9h4c0-0.1,0-0.2,0-0.3C115.2,30.2,114.5,29.3,113.5,29.3z"/>
	<path d="M128.6,39.1c-0.7-0.2-1.5-0.7-1.8-1.6c-0.5,1-1.6,1.4-3.1,1.4c-2.1,0-3.9-1.5-3.9-3.9c0-2.2,1.7-3.6,4-3.8l2.3-0.2v-0.4
		c0-0.7-0.6-1.2-1.8-1.2c-1.1,0-2.4,0.4-3.3,0.9l-0.7-2.9c1-0.6,2.6-1,4.1-1c3.1,0,5.3,1.4,5.3,4.3v3.8c0,1.4,0.5,2.1,1.4,2.4
		L128.6,39.1z M126.1,33.5l-1.4,0.1c-1,0.1-1.4,0.8-1.4,1.5c0,0.6,0.5,1.1,1.2,1.1c0.9,0,1.7-0.7,1.7-1.7V33.5z"/>
	<path d="M139.6,30.9c-0.2-0.1-0.8-0.3-1.1-0.3c-1.2,0-2.3,0.6-2.3,2.5v5.5h-3.8V26.8h3.8v2.6h0c0.4-1.8,1.8-2.8,3.4-2.8
		c0.4,0,0.8,0.1,1.1,0.2L139.6,30.9z"/>
	<path d="M153.2,39c-3.6,0-6.4-2.5-6.4-6.3s2.9-6.3,6.4-6.3c3.5,0,6.4,2.5,6.4,6.3S156.7,39,153.2,39z M153.2,29.8
		c-1.4,0-2.7,1.2-2.7,3c0,1.7,1.2,3,2.7,3c1.4,0,2.7-1.2,2.7-3C155.8,31,154.6,29.8,153.2,29.8z"/>
	<path d="M169.3,23.5c-0.4-0.2-1.1-0.3-1.5-0.3c-1.4,0-2.1,0.8-2.1,2.5v1.1h3.4l-0.8,3.1h-2.6v8.7H162v-8.7h-1.8v-3.1h1.8v-1.4
		c0-3.6,2.3-5.4,5.3-5.4c1.1,0,2.2,0.1,2.8,0.4L169.3,23.5z"/>
</g>
<g>
	<path d="M36.4,55.9h-3.1v4.4c0,1,0.5,1.4,1.6,1.4c0.4,0,0.7,0,1-0.2l-0.3,2.9c-0.4,0.2-1,0.3-1.8,0.3c-2.7,0-4.2-1.4-4.2-3.7v-5.1
		h-2v-3.1h2v-2.5l3.8-1.4v3.9h3.8L36.4,55.9z"/>
	<path d="M45.6,64.6v-7.2c0-0.9-0.6-1.6-1.8-1.6c-1.1,0-1.8,0.7-1.8,1.7v7.2h-3.8V46.1H42v7.8h0c0.6-0.9,1.7-1.5,3.3-1.5
		c2.6,0,4.1,1.5,4.1,4v8.2H45.6z"/>
	<path d="M62.4,58.1l-1.7,1.7h-5.8c0.2,1,1.5,2.1,3.5,2.1c1.2,0,2.5-0.4,3.2-0.9l-0.4,3.3c-0.9,0.5-2.2,0.8-3.7,0.8
		c-3.6,0-6.5-2.5-6.5-6.3c0-3.8,2.8-6.2,6.1-6.2c3.3,0,5.3,2.3,5.3,4.7C62.5,57.4,62.5,57.8,62.4,58.1z M57.2,55.3
		c-1.1,0-2.1,0.9-2.3,1.9h4c0-0.1,0-0.2,0-0.3C59,56.2,58.3,55.3,57.2,55.3z"/>
	<path d="M73.6,64.9c-1.6,0-2.8-0.3-3.7-0.8l-0.3-3.4c1,0.7,2.4,1.3,3.7,1.3c0.7,0,1.1-0.4,1.1-0.8c0-0.5-0.4-0.7-1.1-0.9
		c-2.3-0.6-3.6-1.8-3.6-3.8c0-2.3,1.9-3.8,4.4-3.8c1.5,0,2.9,0.4,3.5,0.7l-0.6,2.8c-0.6-0.3-1.5-0.6-2.4-0.6c-0.6,0-1,0.3-1,0.8
		c0,0.4,0.3,0.7,1,0.9c2.7,0.7,3.7,2,3.7,4C78.2,63,76.7,64.9,73.6,64.9z"/>
	<path d="M87.5,64.6V63h0c-0.5,1.2-1.7,2-3.6,2c-2.6,0-4.1-1.4-4.1-3.9v-8.2h3.8v7.2c0,0.9,0.6,1.6,1.8,1.6c1.1,0,1.8-0.8,1.8-1.7
		v-7.2H91v11.8H87.5z"/>
	<path d="M100.5,56.9c-0.2-0.1-0.8-0.3-1.1-0.3c-1.2,0-2.3,0.6-2.3,2.5v5.5h-3.8V52.8H97v2.6h0c0.4-1.8,1.8-2.8,3.4-2.8
		c0.4,0,0.8,0.1,1.1,0.2L100.5,56.9z"/>
	<path d="M109.2,64.9c-1.2,0-2.5-0.4-3-0.8v6.4h-3.7V52.8h3.4v1.5h0c0.7-1.2,2-1.8,3.6-1.8c2.9,0,5.7,2.2,5.7,6.2
		C115.1,62.5,112.4,64.9,109.2,64.9z M108.5,55.8c-1.1,0-1.9,0.6-2.3,1.2v3.7c0.4,0.5,1.1,1,2.3,1c1.7,0,2.8-1.3,2.8-3
		S110.1,55.8,108.5,55.8z"/>
	<path d="M124.1,56.9c-0.2-0.1-0.8-0.3-1.1-0.3c-1.2,0-2.3,0.6-2.3,2.5v5.5h-3.8V52.8h3.8v2.6h0c0.4-1.8,1.8-2.8,3.4-2.8
		c0.4,0,0.8,0.1,1.1,0.2L124.1,56.9z"/>
	<path d="M128,51.2c-0.7,0-2.1-1.4-2.1-2.1c0-0.7,1.4-2,2.1-2c0.7,0,2.1,1.4,2.1,2C130.1,49.8,128.7,51.2,128,51.2z M126.1,64.6
		V52.8h3.8v11.8H126.1z"/>
	<path d="M136,64.9c-1.6,0-2.8-0.3-3.7-0.8l-0.3-3.4c1,0.7,2.4,1.3,3.7,1.3c0.7,0,1.1-0.4,1.1-0.8c0-0.5-0.4-0.7-1.1-0.9
		c-2.3-0.6-3.6-1.8-3.6-3.8c0-2.3,1.9-3.8,4.4-3.8c1.5,0,2.9,0.4,3.5,0.7l-0.6,2.8c-0.6-0.3-1.5-0.6-2.4-0.6c-0.6,0-1,0.3-1,0.8
		c0,0.4,0.3,0.7,1,0.9c2.7,0.7,3.7,2,3.7,4C140.6,63,139.2,64.9,136,64.9z"/>
	<path d="M152.9,58.1l-1.7,1.7h-5.8c0.2,1,1.5,2.1,3.5,2.1c1.2,0,2.5-0.4,3.3-0.9l-0.4,3.3c-0.9,0.5-2.2,0.8-3.7,0.8
		c-3.6,0-6.5-2.5-6.5-6.3c0-3.8,2.8-6.2,6.1-6.2c3.3,0,5.3,2.3,5.3,4.7C153,57.4,152.9,57.8,152.9,58.1z M147.7,55.3
		c-1.1,0-2.1,0.9-2.3,1.9h4c0-0.1,0-0.2,0-0.3C149.4,56.2,148.7,55.3,147.7,55.3z"/>
	<path d="M158.3,64.9c-1.6,0-2.8-0.3-3.7-0.8l-0.3-3.4c1,0.7,2.4,1.3,3.7,1.3c0.7,0,1.1-0.4,1.1-0.8c0-0.5-0.4-0.7-1.1-0.9
		c-2.3-0.6-3.6-1.8-3.6-3.8c0-2.3,1.9-3.8,4.4-3.8c1.5,0,2.9,0.4,3.5,0.7l-0.7,2.8c-0.6-0.3-1.5-0.6-2.4-0.6c-0.6,0-1,0.3-1,0.8
		c0,0.4,0.3,0.7,1,0.9c2.7,0.7,3.7,2,3.7,4C163,63,161.5,64.9,158.3,64.9z"/>
	<path d="M166.4,65c-0.7,0-2.2-1.5-2.2-2.2c0-0.7,1.5-2.1,2.2-2.1s2.2,1.5,2.2,2.1C168.6,63.5,167.1,65,166.4,65z"/>
</g>
</svg>
