<?xml version="1.0" encoding="utf-8"?>
<!-- Generator: Adobe Illustrator 22.1.0, SVG Export Plug-In . SVG Version: 6.00 Build 0)  -->
<svg version="1.1" id="Layer_1" xmlns="http://www.w3.org/2000/svg" xmlns:xlink="http://www.w3.org/1999/xlink" x="0px" y="0px"
	 viewBox="0 0 300 250" style="enable-background:new 0 0 300 250;" xml:space="preserve">
<g>
	<path d="M160.8,96.6v10.2h-3.1V96.6h-3.7v-2.5h10.4v2.5H160.8z"/>
	<path d="M170.1,100.9c-0.2-0.1-0.6-0.2-0.9-0.2c-0.9,0-1.8,0.5-1.8,1.9v4.2h-2.9v-9.1h2.9v2h0c0.3-1.4,1.4-2.2,2.6-2.2
		c0.3,0,0.6,0,0.8,0.1L170.1,100.9z"/>
	<path d="M177.7,105.9c-1.4,3.6-2.8,5-4.5,5.6l-1.8-1.8c1.5-0.6,2.6-1.6,3.3-3.5l-3.3-8.4h2.8l1.3,3.5c0.2,0.5,0.4,1.1,0.5,1.8h0
		c0.2-0.6,0.4-1.3,0.6-1.8l1.3-3.5h2.7L177.7,105.9z"/>
	<path d="M192.4,100.2h-2.4v3.4c0,0.8,0.4,1.1,1.2,1.1c0.3,0,0.5,0,0.8-0.1l-0.3,2.2c-0.3,0.1-0.8,0.2-1.4,0.2c-2,0-3.3-1.1-3.3-2.9
		v-3.9h-1.5v-2.4h1.5v-1.9l2.9-1.1v3h2.9L192.4,100.2z"/>
	<path d="M199.8,106.8v-5.6c0-0.7-0.5-1.2-1.4-1.2c-0.9,0-1.4,0.6-1.4,1.3v5.5H194V92.6h2.9v6h0c0.5-0.7,1.3-1.1,2.6-1.1
		c2,0,3.2,1.1,3.2,3v6.3H199.8z"/>
	<path d="M212.9,101.8l-1.3,1.3h-4.4c0.1,0.7,1.1,1.6,2.7,1.6c0.9,0,1.9-0.3,2.5-0.7l-0.3,2.5c-0.7,0.4-1.7,0.6-2.9,0.6
		c-2.8,0-5-1.9-5-4.9c0-2.9,2.1-4.8,4.7-4.8c2.5,0,4.1,1.7,4.1,3.6C213,101.3,212.9,101.6,212.9,101.8z M208.9,99.7
		c-0.9,0-1.6,0.7-1.8,1.5h3.1c0-0.1,0-0.1,0-0.2C210.2,100.3,209.7,99.7,208.9,99.7z"/>
</g>
<g>
	<path d="M166.8,126.8l-0.4-4.7c-0.1-0.7-0.1-1.5-0.1-2.4h0c-0.3,0.8-0.7,1.7-1.1,2.4l-2.4,4.7h-1.2l-2.4-4.7
		c-0.4-0.7-0.8-1.6-1.1-2.4h0c0,0.8,0,1.7-0.1,2.3l-0.4,4.7h-2.9l1.1-12.8h2.6l2.8,5.4c0.4,0.8,0.9,1.9,1.3,2.7h0
		c0.3-0.8,0.8-1.9,1.2-2.7l2.8-5.4h2.4l1.1,12.8H166.8z"/>
	<path d="M176.8,125.9c-1.4,3.6-2.8,5-4.5,5.6l-1.8-1.8c1.5-0.6,2.6-1.6,3.3-3.5l-3.3-8.4h2.8l1.3,3.5c0.2,0.5,0.4,1.1,0.5,1.8h0
		c0.2-0.6,0.4-1.3,0.6-1.8l1.3-3.5h2.7L176.8,125.9z"/>
	<path d="M190.5,121.8h-1.9v5h-3v-12.8h4.9c2.2,0,4.1,1.5,4.1,3.9S192.7,121.8,190.5,121.8z M190,116.6h-1.4v2.9h1.4
		c0.8,0,1.6-0.4,1.6-1.4C191.6,117,190.8,116.6,190,116.6z"/>
	<path d="M203.9,121.8l-1.3,1.3h-4.4c0.1,0.7,1.1,1.6,2.7,1.6c0.9,0,1.9-0.3,2.5-0.7l-0.3,2.5c-0.7,0.4-1.7,0.6-2.9,0.6
		c-2.8,0-5-1.9-5-4.9c0-2.9,2.1-4.8,4.7-4.8c2.5,0,4.1,1.7,4.1,3.6C204,121.3,204,121.6,203.9,121.8z M199.9,119.7
		c-0.9,0-1.6,0.7-1.8,1.5h3.1c0-0.1,0-0.1,0-0.2C201.3,120.3,200.7,119.7,199.9,119.7z"/>
	<path d="M211.1,120.9c-0.2-0.1-0.6-0.2-0.9-0.2c-0.9,0-1.8,0.5-1.8,1.9v4.2h-2.9v-9.1h2.9v2h0c0.3-1.4,1.4-2.2,2.6-2.2
		c0.3,0,0.6,0,0.8,0.1L211.1,120.9z"/>
	<path d="M215.5,127c-1.2,0-2.1-0.3-2.9-0.6l-0.3-2.6c0.8,0.6,1.8,1,2.8,1c0.5,0,0.9-0.3,0.9-0.6c0-0.4-0.3-0.5-0.8-0.7
		c-1.7-0.5-2.8-1.4-2.8-3c0-1.8,1.4-2.9,3.4-2.9c1.1,0,2.2,0.3,2.7,0.5l-0.5,2.2c-0.4-0.2-1.2-0.5-1.9-0.5c-0.5,0-0.8,0.2-0.8,0.6
		c0,0.3,0.2,0.5,0.8,0.7c2,0.5,2.9,1.6,2.9,3.1C219.1,125.6,218,127,215.5,127z"/>
	<path d="M225,127.1c-2.7,0-4.9-1.9-4.9-4.8c0-2.9,2.2-4.8,4.9-4.8c2.7,0,4.9,1.9,4.9,4.8C230,125.2,227.8,127.1,225,127.1z
		 M225,120c-1.1,0-2,1-2,2.3s0.9,2.3,2,2.3c1.1,0,2-1,2-2.3S226.1,120,225,120z"/>
	<path d="M237.2,126.8v-5.6c0-0.7-0.4-1.2-1.3-1.2c-0.9,0-1.4,0.6-1.4,1.3v5.5h-2.9v-9.1h2.7v1.2h0c0.4-1,1.3-1.5,2.8-1.5
		c2,0,3.2,1.1,3.2,3v6.3H237.2z"/>
	<path d="M248.3,127.2c-0.5-0.1-1.2-0.5-1.4-1.2c-0.4,0.7-1.3,1.1-2.4,1.1c-1.6,0-3-1.1-3-3c0-1.7,1.3-2.8,3.1-3l1.8-0.2v-0.3
		c0-0.5-0.4-0.9-1.4-0.9c-0.9,0-1.9,0.3-2.5,0.7l-0.5-2.2c0.7-0.5,2-0.8,3.2-0.8c2.4,0,4.1,1.1,4.1,3.3v3c0,1.1,0.4,1.6,1.1,1.9
		L248.3,127.2z M246.5,122.9l-1.1,0.1c-0.8,0.1-1.1,0.6-1.1,1.1c0,0.5,0.4,0.9,0.9,0.9c0.7,0,1.3-0.5,1.3-1.3V122.9z"/>
	<path d="M254.4,127.2c-1.9-0.1-3.1-1-3.1-3.2v-11.4h2.9v11c0,0.7,0.4,1.1,1.2,1.2L254.4,127.2z"/>
</g>
<g>
	<path d="M159.8,141.8H158v5h-3v-12.8h4.9c2.2,0,4.1,1.5,4.1,3.9C164,140.3,162,141.8,159.8,141.8z M159.4,136.6H158v2.9h1.4
		c0.8,0,1.6-0.4,1.6-1.4C161,137,160.2,136.6,159.4,136.6z"/>
	<path d="M173.3,141.8l-1.3,1.3h-4.4c0.1,0.7,1.1,1.6,2.7,1.6c0.9,0,1.9-0.3,2.5-0.7l-0.3,2.5c-0.7,0.4-1.7,0.6-2.9,0.6
		c-2.8,0-5-1.9-5-4.9c0-2.9,2.1-4.8,4.7-4.8c2.5,0,4.1,1.7,4.1,3.6C173.4,141.3,173.3,141.6,173.3,141.8z M169.3,139.7
		c-0.9,0-1.6,0.7-1.8,1.5h3.1c0-0.1,0-0.1,0-0.2C170.6,140.3,170.1,139.7,169.3,139.7z"/>
	<path d="M180.6,146.8v-5.6c0-0.7-0.4-1.2-1.3-1.2c-0.9,0-1.4,0.6-1.4,1.3v5.5h-2.9v-9.1h2.7v1.2h0c0.4-1,1.3-1.5,2.8-1.5
		c2,0,3.2,1.1,3.2,3v6.3H180.6z"/>
	<path d="M188.3,147c-1.2,0-2.1-0.3-2.9-0.6l-0.3-2.6c0.8,0.6,1.8,1,2.8,1c0.5,0,0.9-0.3,0.9-0.6c0-0.4-0.3-0.5-0.8-0.7
		c-1.7-0.5-2.8-1.4-2.8-3c0-1.8,1.4-2.9,3.4-2.9c1.1,0,2.2,0.3,2.7,0.5l-0.5,2.2c-0.4-0.2-1.2-0.5-1.9-0.5c-0.5,0-0.8,0.2-0.8,0.6
		c0,0.3,0.2,0.5,0.8,0.7c2,0.5,2.9,1.6,2.9,3.1C191.8,145.6,190.7,147,188.3,147z"/>
	<path d="M194.8,136.5c-0.5,0-1.6-1.1-1.6-1.6c0-0.5,1.1-1.6,1.6-1.6c0.5,0,1.6,1,1.6,1.6C196.4,135.5,195.3,136.5,194.8,136.5z
		 M193.3,146.8v-9.1h3v9.1H193.3z"/>
	<path d="M202.7,147.1c-2.7,0-4.9-1.9-4.9-4.8s2.2-4.8,4.9-4.8c2.7,0,4.9,1.9,4.9,4.8S205.5,147.1,202.7,147.1z M202.7,140
		c-1.1,0-2,1-2,2.3s0.9,2.3,2,2.3c1.1,0,2-1,2-2.3S203.8,140,202.7,140z"/>
	<path d="M214.9,146.8v-5.6c0-0.7-0.4-1.2-1.3-1.2c-0.9,0-1.4,0.6-1.4,1.3v5.5h-2.9v-9.1h2.7v1.2h0c0.4-1,1.3-1.5,2.8-1.5
		c2,0,3.2,1.1,3.2,3v6.3H214.9z"/>
</g>
<g>
	<path d="M161.8,160.7c-0.6-0.4-1.2-0.6-1.9-0.6c-1.3,0-2.3,0.9-2.3,2.2c0,1.3,1,2.2,2.4,2.2c0.8,0,1.3-0.2,2-0.5l-0.3,2.5
		c-0.6,0.3-1.4,0.4-2.2,0.4c-2.5,0-4.9-1.8-4.9-4.7c0-3,2.4-4.7,4.8-4.7c1.2,0,2.2,0.2,3,0.7L161.8,160.7z"/>
	<path d="M170.1,167.2c-0.5-0.1-1.2-0.5-1.4-1.2c-0.4,0.7-1.3,1.1-2.4,1.1c-1.6,0-3-1.1-3-3c0-1.7,1.3-2.8,3.1-3l1.8-0.2v-0.3
		c0-0.5-0.4-0.9-1.4-0.9c-0.9,0-1.9,0.3-2.5,0.7l-0.5-2.2c0.7-0.5,2-0.8,3.2-0.8c2.4,0,4.1,1.1,4.1,3.3v3c0,1.1,0.4,1.6,1.1,1.9
		L170.1,167.2z M168.2,162.9l-1.1,0.1c-0.8,0.1-1.1,0.6-1.1,1.1c0,0.5,0.4,0.9,0.9,0.9c0.7,0,1.3-0.5,1.3-1.3V162.9z"/>
	<path d="M176.2,167.2c-1.9-0.1-3.1-1-3.1-3.2v-11.4h2.9v11c0,0.7,0.4,1.1,1.2,1.2L176.2,167.2z"/>
	<path d="M185.1,160.7c-0.6-0.4-1.2-0.6-1.9-0.6c-1.3,0-2.3,0.9-2.3,2.2c0,1.3,1,2.2,2.4,2.2c0.8,0,1.3-0.2,2-0.5l-0.3,2.5
		c-0.6,0.3-1.4,0.4-2.2,0.4c-2.5,0-4.9-1.8-4.9-4.7c0-3,2.4-4.7,4.8-4.7c1.2,0,2.2,0.2,3,0.7L185.1,160.7z"/>
	<path d="M193.1,166.8v-1.2h0c-0.4,1-1.3,1.5-2.8,1.5c-2,0-3.2-1.1-3.2-3v-6.3h2.9v5.6c0,0.7,0.5,1.2,1.4,1.2c0.9,0,1.4-0.6,1.4-1.3
		v-5.5h2.9v9.1H193.1z"/>
	<path d="M200.8,167.2c-1.9-0.1-3.1-1-3.1-3.2v-11.4h2.9v11c0,0.7,0.4,1.1,1.2,1.2L200.8,167.2z"/>
	<path d="M209.5,167.2c-0.5-0.1-1.2-0.5-1.4-1.2c-0.4,0.7-1.3,1.1-2.4,1.1c-1.6,0-3-1.1-3-3c0-1.7,1.3-2.8,3.1-3l1.8-0.2v-0.3
		c0-0.5-0.4-0.9-1.4-0.9c-0.9,0-1.9,0.3-2.5,0.7l-0.5-2.2c0.7-0.5,2-0.8,3.2-0.8c2.4,0,4.1,1.1,4.1,3.3v3c0,1.1,0.4,1.6,1.1,1.9
		L209.5,167.2z M207.6,162.9l-1.1,0.1c-0.8,0.1-1.1,0.6-1.1,1.1c0,0.5,0.4,0.9,0.9,0.9c0.7,0,1.3-0.5,1.3-1.3V162.9z"/>
	<path d="M218.4,160.2H216v3.4c0,0.8,0.4,1.1,1.2,1.1c0.3,0,0.5,0,0.8-0.1l-0.3,2.2c-0.3,0.1-0.8,0.2-1.4,0.2c-2,0-3.3-1.1-3.3-2.9
		v-3.9h-1.5v-2.4h1.5v-1.9l2.9-1.1v3h2.9L218.4,160.2z"/>
	<path d="M224.3,167.1c-2.7,0-4.9-1.9-4.9-4.8s2.2-4.8,4.9-4.8c2.7,0,4.9,1.9,4.9,4.8S227.1,167.1,224.3,167.1z M224.3,160
		c-1.1,0-2,1-2,2.3s0.9,2.3,2,2.3c1.1,0,2-1,2-2.3S225.4,160,224.3,160z"/>
	<path d="M236.4,160.9c-0.2-0.1-0.6-0.2-0.9-0.2c-0.9,0-1.8,0.5-1.8,1.9v4.2h-2.9v-9.1h2.9v2h0c0.3-1.4,1.4-2.2,2.6-2.2
		c0.3,0,0.6,0,0.8,0.1L236.4,160.9z"/>
	<path d="M238.3,167.1c-0.5,0-1.7-1.1-1.7-1.7c0-0.5,1.1-1.6,1.7-1.6s1.7,1.1,1.7,1.6C239.9,166,238.8,167.1,238.3,167.1z"/>
</g>
</svg>
