<?xml version="1.0" encoding="utf-8"?>
<!-- Generator: Adobe Illustrator 22.1.0, SVG Export Plug-In . SVG Version: 6.00 Build 0)  -->
<svg version="1.1" id="Layer_1" xmlns="http://www.w3.org/2000/svg" xmlns:xlink="http://www.w3.org/1999/xlink" x="0px" y="0px"
	 viewBox="0 0 300 250" style="enable-background:new 0 0 300 250;" xml:space="preserve">
<g>
	<path d="M37.4,39c-4.6,0-9.2-3-9.2-8.7c0-5.7,4.7-8.7,9.1-8.7c2.3,0,4.3,0.6,5.4,1.4l-0.8,3.3c-1-0.7-2.6-1.2-4.2-1.2
		c-3,0-5.5,2-5.5,5.3c0,3.1,2.4,5.1,5.4,5.1c1,0,1.7-0.2,2.3-0.5v-2.6h-2.9v-3.1h6.6v7.9C42.1,38.4,40.1,39,37.4,39z"/>
	<path d="M56.6,32.1l-1.7,1.7h-5.8c0.2,1,1.5,2.1,3.5,2.1c1.2,0,2.5-0.4,3.2-0.9l-0.4,3.3c-0.9,0.5-2.2,0.8-3.7,0.8
		c-3.6,0-6.5-2.5-6.5-6.3c0-3.8,2.8-6.2,6.1-6.2c3.3,0,5.3,2.3,5.3,4.7C56.7,31.4,56.6,31.8,56.6,32.1z M51.4,29.3
		c-1.1,0-2.1,0.9-2.3,1.9h4c0-0.1,0-0.2,0-0.3C53.1,30.2,52.4,29.3,51.4,29.3z"/>
	<path d="M66.3,29.9h-3.1v4.4c0,1,0.5,1.4,1.6,1.4c0.4,0,0.7,0,1-0.2l-0.3,2.9c-0.4,0.2-1,0.3-1.8,0.3c-2.7,0-4.2-1.4-4.2-3.7v-5.1
		h-2v-3.1h2v-2.5l3.8-1.4v3.9H67L66.3,29.9z"/>
	<path d="M78.9,44.6c-3.4,0-5.7-2-5.7-4.4c0-1.8,1.2-2.9,2.4-3.2l-1.5-1.5c0.1-0.8,0.8-1.4,1.4-1.7c-0.9-0.5-1.7-1.7-1.7-3.1
		c0-2.5,1.8-4.2,4.9-4.2c0.7,0,1.2,0.1,1.7,0.2c0.5,0.1,1.1,0.2,1.7,0.2c0.7,0,1.3-0.2,1.8-0.4l0.7,2.9c-0.4,0.2-0.9,0.4-1.5,0.4
		c0.1,0.2,0.3,0.8,0.3,1.2c0,2-1.6,3.6-3.8,3.8c-0.5,0-0.8,0.1-0.8,0.4c0,0.1,0.1,0.3,0.3,0.4l1.8,0.6c2.3,0.8,3.6,2,3.6,4.2
		C84.6,42.8,82.4,44.6,78.9,44.6z M79.7,39.1l-1.4-0.4c-0.9,0-1.6,0.7-1.6,1.5c0,0.8,0.7,1.5,2.1,1.5c1.4,0,2.1-0.6,2.1-1.3
		C80.9,39.9,80.5,39.3,79.7,39.1z M78.7,29.2c-0.9,0-1.5,0.6-1.5,1.4c0,0.8,0.6,1.4,1.5,1.4c0.8,0,1.5-0.6,1.5-1.4
		C80.2,29.9,79.6,29.2,78.7,29.2z"/>
	<path d="M93.6,38.6V37h0c-0.5,1.2-1.7,2-3.6,2c-2.6,0-4.1-1.4-4.1-3.9v-8.2h3.8v7.2c0,0.9,0.6,1.6,1.8,1.6c1.1,0,1.8-0.8,1.8-1.7
		v-7.2H97v11.8H93.6z"/>
	<path d="M107.5,39.1c-0.7-0.2-1.5-0.7-1.8-1.6c-0.5,1-1.6,1.4-3.1,1.4c-2.1,0-3.9-1.5-3.9-3.9c0-2.2,1.7-3.6,4-3.8l2.3-0.2v-0.4
		c0-0.7-0.6-1.2-1.8-1.2c-1.1,0-2.4,0.4-3.3,0.9l-0.7-2.9c1-0.6,2.6-1,4.1-1c3.1,0,5.3,1.4,5.3,4.3v3.8c0,1.4,0.5,2.1,1.4,2.4
		L107.5,39.1z M105.1,33.5l-1.4,0.1c-1,0.1-1.4,0.8-1.4,1.5c0,0.6,0.5,1.1,1.2,1.1c0.9,0,1.7-0.7,1.7-1.7V33.5z"/>
	<path d="M118.5,30.9c-0.2-0.1-0.8-0.3-1.1-0.3c-1.2,0-2.3,0.6-2.3,2.5v5.5h-3.8V26.8h3.8v2.6h0c0.4-1.8,1.8-2.8,3.4-2.8
		c0.4,0,0.8,0.1,1.1,0.2L118.5,30.9z"/>
	<path d="M128.7,39.1c-0.7-0.2-1.5-0.7-1.8-1.6c-0.5,1-1.6,1.4-3.1,1.4c-2.1,0-3.9-1.5-3.9-3.9c0-2.2,1.7-3.6,4-3.8l2.3-0.2v-0.4
		c0-0.7-0.6-1.2-1.8-1.2c-1.1,0-2.4,0.4-3.3,0.9l-0.7-2.9c1-0.6,2.6-1,4.1-1c3.1,0,5.3,1.4,5.3,4.3v3.8c0,1.4,0.5,2.1,1.4,2.4
		L128.7,39.1z M126.3,33.5l-1.4,0.1c-1,0.1-1.4,0.8-1.4,1.5c0,0.6,0.5,1.1,1.2,1.1c0.9,0,1.7-0.7,1.7-1.7V33.5z"/>
	<path d="M139.9,38.6v-7.2c0-0.9-0.6-1.6-1.7-1.6c-1.1,0-1.9,0.7-1.9,1.7v7.2h-3.8V26.8h3.5v1.6h0c0.5-1.2,1.7-2,3.6-2
		c2.6,0,4.1,1.5,4.1,4v8.2H139.9z"/>
	<path d="M153.6,29.9h-3.1v4.4c0,1,0.5,1.4,1.6,1.4c0.4,0,0.7,0,1-0.2l-0.3,2.9c-0.4,0.2-1,0.3-1.8,0.3c-2.7,0-4.2-1.4-4.2-3.7v-5.1
		h-2v-3.1h2v-2.5l3.8-1.4v3.9h3.8L153.6,29.9z"/>
	<path d="M165.9,32.1l-1.7,1.7h-5.8c0.2,1,1.5,2.1,3.5,2.1c1.2,0,2.5-0.4,3.3-0.9l-0.4,3.3c-0.9,0.5-2.2,0.8-3.7,0.8
		c-3.6,0-6.5-2.5-6.5-6.3c0-3.8,2.8-6.2,6.1-6.2c3.3,0,5.3,2.3,5.3,4.7C166,31.4,165.9,31.8,165.9,32.1z M160.7,29.3
		c-1.1,0-2.1,0.9-2.3,1.9h4c0-0.1,0-0.2,0-0.3C162.4,30.2,161.7,29.3,160.7,29.3z"/>
	<path d="M178.3,32.1l-1.7,1.7h-5.8c0.2,1,1.5,2.1,3.5,2.1c1.2,0,2.5-0.4,3.3-0.9l-0.4,3.3c-0.9,0.5-2.2,0.8-3.7,0.8
		c-3.6,0-6.5-2.5-6.5-6.3c0-3.8,2.8-6.2,6.1-6.2c3.3,0,5.3,2.3,5.3,4.7C178.4,31.4,178.4,31.8,178.3,32.1z M173.1,29.3
		c-1.1,0-2.1,0.9-2.3,1.9h4c0-0.1,0-0.2,0-0.3C174.9,30.2,174.2,29.3,173.1,29.3z"/>
	<path d="M188.8,38.6v-1.5h0c-0.7,1.2-2,1.8-3.6,1.8c-2.9,0-5.7-2.2-5.7-6.2c0-3.8,2.7-6.3,6-6.3c1.2,0,2.5,0.4,3,0.8v-7.2h3.7v18.5
		H188.8z M188.4,30.9c-0.4-0.5-1.1-1.1-2.3-1.1c-1.7,0-2.8,1.3-2.8,3s1.2,3,2.8,3c1.1,0,1.9-0.6,2.3-1.2V30.9z"/>
</g>
<g>
	<path d="M43,64.6v-7.2c0-0.9-0.4-1.6-1.7-1.6c-1.2,0-1.8,0.7-1.8,1.7v7.2h-3.8v-7.2c0-0.9-0.4-1.6-1.7-1.6c-1.2,0-1.8,0.7-1.8,1.7
		v7.2h-3.8V52.8H32v1.6h0c0.5-1.2,1.6-2,3.5-2c1.7,0,3,0.7,3.5,1.9c0.5-1.1,1.9-1.9,3.6-1.9c2.7,0,4.2,1.5,4.2,4v8.2H43z"/>
	<path d="M54.9,65c-3.6,0-6.4-2.5-6.4-6.3s2.9-6.3,6.4-6.3c3.5,0,6.4,2.5,6.4,6.3S58.4,65,54.9,65z M54.9,55.8c-1.4,0-2.7,1.2-2.7,3
		c0,1.7,1.2,3,2.7,3c1.4,0,2.7-1.2,2.7-3C57.5,57,56.3,55.8,54.9,55.8z"/>
	<path d="M70.4,64.6v-7.2c0-0.9-0.6-1.6-1.7-1.6c-1.1,0-1.9,0.7-1.9,1.7v7.2H63V52.8h3.5v1.6h0c0.5-1.2,1.7-2,3.6-2
		c2.6,0,4.1,1.5,4.1,4v8.2H70.4z"/>
	<path d="M84.1,55.9H81v4.4c0,1,0.5,1.4,1.6,1.4c0.4,0,0.7,0,1-0.2l-0.3,2.9c-0.4,0.2-1,0.3-1.8,0.3c-2.7,0-4.2-1.4-4.2-3.7v-5.1h-2
		v-3.1h2v-2.5l3.8-1.4v3.9h3.8L84.1,55.9z"/>
	<path d="M93.4,64.6v-7.2c0-0.9-0.6-1.6-1.8-1.6c-1.1,0-1.8,0.7-1.8,1.7v7.2h-3.8V46.1h3.8v7.8h0c0.6-0.9,1.7-1.5,3.3-1.5
		c2.6,0,4.1,1.5,4.1,4v8.2H93.4z"/>
	<path d="M103.4,65.1c-2.4-0.1-4-1.4-4-4.2V46.1h3.8v14.3c0,1,0.5,1.5,1.6,1.6L103.4,65.1z"/>
	<path d="M112.7,63.4c-1.8,4.7-3.7,6.4-5.9,7.3l-2.3-2.3c1.9-0.7,3.4-2.1,4.3-4.6l-4.2-11h3.7l1.7,4.6c0.3,0.7,0.5,1.5,0.7,2.3h0.1
		c0.2-0.8,0.5-1.6,0.8-2.3l1.7-4.6h3.5L112.7,63.4z"/>
	<path d="M125.5,51.2c-0.7,0-2.1-1.4-2.1-2.1c0-0.7,1.4-2,2.1-2c0.7,0,2.1,1.4,2.1,2C127.6,49.8,126.2,51.2,125.5,51.2z M123.6,64.6
		V52.8h3.8v11.8H123.6z"/>
	<path d="M137.1,64.6v-7.2c0-0.9-0.6-1.6-1.7-1.6c-1.1,0-1.9,0.7-1.9,1.7v7.2h-3.8V52.8h3.5v1.6h0c0.5-1.2,1.7-2,3.6-2
		c2.6,0,4.1,1.5,4.1,4v8.2H137.1z"/>
	<path d="M152,56.6c-0.8-0.5-1.6-0.8-2.5-0.8c-1.7,0-3,1.2-3,2.9c0,1.7,1.3,2.9,3.1,2.9c1,0,1.7-0.2,2.6-0.6l-0.3,3.2
		c-0.8,0.4-1.8,0.6-2.9,0.6c-3.3,0-6.4-2.3-6.4-6.1c0-3.8,3.1-6.2,6.3-6.2c1.6,0,2.8,0.3,3.9,0.9L152,56.6z"/>
	<path d="M160,65c-3.6,0-6.4-2.5-6.4-6.3s2.9-6.3,6.4-6.3c3.5,0,6.4,2.5,6.4,6.3S163.5,65,160,65z M160,55.8c-1.4,0-2.7,1.2-2.7,3
		c0,1.7,1.2,3,2.7,3c1.4,0,2.7-1.2,2.7-3C162.7,57,161.4,55.8,160,55.8z"/>
	<path d="M182.6,64.6v-7.2c0-0.9-0.4-1.6-1.7-1.6c-1.2,0-1.8,0.7-1.8,1.7v7.2h-3.8v-7.2c0-0.9-0.4-1.6-1.7-1.6
		c-1.2,0-1.8,0.7-1.8,1.7v7.2h-3.8V52.8h3.5v1.6h0c0.5-1.2,1.6-2,3.5-2c1.7,0,3,0.7,3.5,1.9c0.5-1.1,1.9-1.9,3.6-1.9
		c2.7,0,4.2,1.5,4.2,4v8.2H182.6z"/>
	<path d="M199.4,58.1l-1.7,1.7h-5.8c0.2,1,1.5,2.1,3.5,2.1c1.2,0,2.5-0.4,3.2-0.9l-0.4,3.3c-0.9,0.5-2.2,0.8-3.7,0.8
		c-3.6,0-6.5-2.5-6.5-6.3c0-3.8,2.8-6.2,6.1-6.2c3.3,0,5.3,2.3,5.3,4.7C199.5,57.4,199.5,57.8,199.4,58.1z M194.2,55.3
		c-1.1,0-2.1,0.9-2.3,1.9h4c0-0.1,0-0.2,0-0.3C195.9,56.2,195.2,55.3,194.2,55.3z"/>
</g>
<g>
	<path d="M36.7,75.5c-0.4-0.2-1.1-0.3-1.5-0.3c-1.4,0-2.1,0.8-2.1,2.5v1.1h3.4l-0.8,3.1H33v8.7h-3.7v-8.7h-1.8v-3.1h1.8v-1.4
		c0-3.6,2.3-5.4,5.3-5.4c1.1,0,2.2,0.1,2.8,0.4L36.7,75.5z"/>
	<path d="M43,91c-3.6,0-6.4-2.5-6.4-6.3s2.9-6.3,6.4-6.3c3.5,0,6.4,2.5,6.4,6.3S46.6,91,43,91z M43,81.8c-1.4,0-2.7,1.2-2.7,3
		c0,1.7,1.2,3,2.7,3c1.4,0,2.7-1.2,2.7-3C45.7,83,44.4,81.8,43,81.8z"/>
	<path d="M58.4,82.9c-0.2-0.1-0.8-0.3-1.1-0.3c-1.2,0-2.3,0.6-2.3,2.5v5.5h-3.8V78.8h3.8v2.6h0c0.4-1.8,1.8-2.8,3.4-2.8
		c0.4,0,0.8,0.1,1.1,0.2L58.4,82.9z"/>
	<path d="M70.1,91.1c-2.4-0.1-4-1.4-4-4.2V72.1h3.8v14.3c0,1,0.5,1.5,1.6,1.6L70.1,91.1z"/>
	<path d="M74.7,77.2c-0.7,0-2.1-1.4-2.1-2.1c0-0.7,1.4-2,2.1-2c0.7,0,2.1,1.4,2.1,2C76.7,75.8,75.4,77.2,74.7,77.2z M72.8,90.6V78.8
		h3.8v11.8H72.8z"/>
	<path d="M87.1,75.5c-0.4-0.2-1.1-0.3-1.5-0.3c-1.4,0-2.1,0.8-2.1,2.5v1.1h3.4L86,81.9h-2.6v8.7h-3.7v-8.7h-1.8v-3.1h1.8v-1.4
		c0-3.6,2.3-5.4,5.3-5.4c1.1,0,2.2,0.1,2.8,0.4L87.1,75.5z"/>
	<path d="M98.3,84.1l-1.7,1.7h-5.8c0.2,1,1.5,2.1,3.5,2.1c1.2,0,2.5-0.4,3.2-0.9l-0.4,3.3C96.3,90.7,95,91,93.5,91
		c-3.6,0-6.5-2.5-6.5-6.3c0-3.8,2.8-6.2,6.1-6.2c3.3,0,5.3,2.3,5.3,4.7C98.4,83.4,98.4,83.8,98.3,84.1z M93.1,81.3
		c-1.1,0-2.1,0.9-2.3,1.9h4c0-0.1,0-0.2,0-0.3C94.9,82.2,94.2,81.3,93.1,81.3z"/>
	<path d="M101.5,91c-0.7,0-2.2-1.5-2.2-2.2c0-0.7,1.5-2.1,2.2-2.1c0.7,0,2.2,1.5,2.2,2.1C103.7,89.5,102.2,91,101.5,91z"/>
</g>
</svg>
