<?xml version="1.0" encoding="utf-8"?>
<!-- Generator: Adobe Illustrator 22.1.0, SVG Export Plug-In . SVG Version: 6.00 Build 0)  -->
<svg version="1.1" id="Layer_1" xmlns="http://www.w3.org/2000/svg" xmlns:xlink="http://www.w3.org/1999/xlink" x="0px" y="0px"
	 viewBox="0 0 300 250" style="enable-background:new 0 0 300 250;" xml:space="preserve">
<style type="text/css">
	.st0{fill:#F9E038;}
</style>
<path class="st0" d="M29.5,204.8c0,0-9.9,0-9.9,9.9v8.7c0,0,0,9.9,9.9,9.9h85.9c0,0,9.9,0,9.9-9.9v-8.7c0,0,0-9.9-9.9-9.9H29.5z"/>
<g>
	<path d="M34.2,217.5c0-0.8-0.3-1.6-1.3-1.6c-1.2,0-1.4,1.6-1.4,2.5c0,1,0.1,2.4,1.5,2.4c0.8,0,1.2-0.7,1.3-1.4l1.7,0.1
		c-0.2,1.7-1.4,2.8-3.1,2.8c-2.2,0-3.3-1.8-3.3-3.9c0-2.1,1.1-3.9,3.4-3.9c1.9,0,2.9,1.1,3.1,2.9L34.2,217.5z"/>
	<path d="M43.4,222.1h-1.9l-0.5-1.6h-2.4l-0.5,1.6h-1.6l2.4-7.5h2L43.4,222.1z M40.7,219.2l-0.8-2.7l-0.8,2.7H40.7z"/>
	<path d="M49,220.6v1.5h-4.8v-7.5H46v6.1H49z"/>
	<path d="M54,217.5c0-0.8-0.3-1.6-1.3-1.6c-1.2,0-1.4,1.6-1.4,2.5c0,1,0.1,2.4,1.5,2.4c0.8,0,1.2-0.7,1.3-1.4l1.7,0.1
		c-0.2,1.7-1.4,2.8-3.1,2.8c-2.2,0-3.3-1.8-3.3-3.9c0-2.1,1.1-3.9,3.4-3.9c1.9,0,2.9,1.1,3.1,2.9L54,217.5z"/>
	<path d="M63,219.2c0,0.8,0,1.7-0.6,2.3c-0.6,0.6-1.5,0.8-2.3,0.8c-0.8,0-1.7-0.1-2.3-0.6c-0.7-0.6-0.8-1.5-0.8-2.4v-4.6h1.9v4.6
		c0,0.4,0,0.9,0.2,1.2c0.2,0.4,0.7,0.5,1.1,0.5c0.4,0,0.9-0.1,1.1-0.4c0.2-0.3,0.2-0.9,0.2-1.3v-4.6H63V219.2z"/>
	<path d="M69,220.6v1.5h-4.8v-7.5H66v6.1H69z"/>
	<path d="M76,222.1h-1.9l-0.5-1.6h-2.4l-0.5,1.6h-1.6l2.4-7.5h2L76,222.1z M73.2,219.2l-0.8-2.7l-0.8,2.7H73.2z"/>
	<path d="M81.1,216.1h-1.9v6.1h-1.8v-6.1h-1.9v-1.5h5.6V216.1z"/>
	<path d="M83.8,216.1v1.5h2.9v1.4h-2.9v1.7h3.6v1.5h-5.4v-7.5h5.4v1.5H83.8z"/>
	<path d="M97.5,222.1H96l-2.9-5.1h0v5.1h-1.4v-7.5h1.9l2.5,4.4h0v-4.4h1.4V222.1z"/>
	<path d="M99.5,221.1c-0.6-0.8-0.8-1.8-0.8-2.7c0-2,1-3.9,3.2-3.9c1,0,1.8,0.3,2.4,1.2c0.5,0.7,0.8,1.8,0.8,2.7
		c0,0.9-0.2,1.9-0.7,2.6c-0.6,0.9-1.5,1.3-2.5,1.3C100.9,222.3,100.1,221.9,99.5,221.1z M100.8,216.8c-0.2,0.5-0.2,1.1-0.2,1.6
		c0,0.9,0.1,2.5,1.4,2.5c0.6,0,0.9-0.3,1.1-0.9c0.2-0.5,0.2-1.1,0.2-1.6c0-0.5-0.1-1.2-0.3-1.7c-0.2-0.5-0.5-0.7-1.1-0.7
		C101.3,215.9,101,216.2,100.8,216.8z"/>
	<path d="M113.2,222.1h-1.7l-1.2-5h0l-1.2,5h-1.7l-1.9-7.5h1.8l1.2,5.1h0l1.2-5.1h1.6l1.3,5.1h0l0.1-0.3l1.1-4.8h1.5L113.2,222.1z"
		/>
</g>
</svg>
