<?xml version="1.0" encoding="utf-8"?>
<!-- Generator: Adobe Illustrator 17.0.0, SVG Export Plug-In . SVG Version: 6.00 Build 0)  -->
<!DOCTYPE svg PUBLIC "-//W3C//DTD SVG 1.1//EN" "http://www.w3.org/Graphics/SVG/1.1/DTD/svg11.dtd">
<svg version="1.1" id="Layer_1" xmlns="http://www.w3.org/2000/svg" xmlns:xlink="http://www.w3.org/1999/xlink" x="0px" y="0px"
	 width="160px" height="600px" viewBox="70 0 160 600" style="enable-background:new 70 0 160 600;" xml:space="preserve">
<style type="text/css">
	.st0{display:none;fill:none;stroke:#000000;stroke-miterlimit:10;}
	.st1{fill:none;stroke:#000000;stroke-miterlimit:10;}
</style>
<path id="path1" class="st0" d="M-60.751,137.7c40.196-44.3,86.284-42.5,117.193,5.3c5.043,7.8,34.604,55.4,33.955,132
	c-0.449,49.5-13.582,119.9-42.593,134C9.255,427.7-32.04,335-26.148,287c5.942-48.6,63.565-79.4,105.209-38.7
	c27.064,26.5,46.937,82.8,49.284,144.7c3.395,90.4-32.357,148.5-49.284,176c-15.23,24.7-47.337,76.9-81.241,54.7
	c-18.575-12.2-39.397-47.8-37.949-82.7c2.197-53.7,56.724-93.8,99.866-92c48.036,2,82.989,56.1,101.864,85.3
	c25.915,40.1,42.493,83.8,52.28,114"/>
<path id="path2" class="st0" d="M78.113,649.6c-7.69-15.1-42.193-83.1-32.556-148.3c0.949-6.5,4.494-30.2,14.63-40.1
	c24.567-24,73.002,46.9,69.807,94.9c-2.946,44.1-50.133,77.4-87.683,58.7c-5.792-2.9-47.237-25-58.072-102.5
	C-24.35,451-9.37,386.2,12.351,355.9c36.851-51.3,93.425-3.4,119.79,30.3c28.262,36.1,38.898,77.6,49.683,68.9
	c12.084-9.8,16.478-76.2,2.696-107c-23.518-52.6-100.665-3.1-103.312,44.6c-2.996,54.8,94.074,77.3,103.961,185.4"/>
<path id="path3" class="st0" d="M71.571,629.3c8.838-0.3,10.136,42.3,27.663,59.6c23.968,23.8,66.611-11.3,70.755-54.7
	c4.844-50.7-45.439-86.8-40.546-149.9c2.846-36.7,21.371-43.7,19.674-70.3c-2.497-39.2-46.338-83.9-77.946-52.5
	C48.253,384.2,37.567,441,39.964,484.4c2.597,47,20.023,67.4,14.88,85c-5.842,19.8-36.202,21.8-49.184-12.1
	c-12.833-33.7-3.346-88.8,12.533-108.8c22.72-28.6,54.677,19.1,62.017,30c31.458,46.9,56.524,145.6,37.55,201
	c-12.084,35.3-37.1,38.7-46.837,40.1c-27.663,3.7-58.122-20.8-75.749-71.8c-16.927-48.9-25.716-133-5.642-167.3
	c20.223-34.6,61.867-5.1,83.288,40.6c37.3,79.7,25.566,234.7-2.547,258"/>
<path id="path4" class="st0" d="M128.196,724.9c-17.876-68.9-12.084-138.1,7.041-164.1c12.234-16.6,32.656-19.3,44.141,1.5
	c15.08,27.4,11.834,90.4-2.547,118.2c-24.367,47-92.027,14.4-126.331-69.2c-36.651-89.4-22.969-207-18.176-240.4
	c18.675-129.5,24.767-231.802,84.986-191.4C222.083,278.591-6.424,710.4,4.811,718.3"/>
<path id="path5" class="st0" d="M280.941,262c-8.988-20.7-19.074-30.6-24.717-35.9c-7.54-7-153.345-138.3-220.904,6.6
	c-2.547,5.4-34.903,76.8-23.968,146.5c13.632,86.5,88.032,132,118.042,79.3c20.972-36.9,23.568-128.1,4.544-157.6
	c-7.59-11.8-18.525-13.5-26.964-8.1c-16.378,10.6-27.813,51.5-25.965,83.3c4.244,73.7,100.266,55.5,111.201,123.7
	c5.942,36.9-12.134,100.1-96.471,214.4"/>
<path id="path6" class="st0" d="M-29.493,235c11.435,26.2,37.5,27.3,56.275,12c31.408-25.6,29.96-86.9,55.276-99.3
	c22.57-11.1,53.678,23,58.572,67.3c6.591,59.7-34.554,135.4-66.561,120.7c-15.13-6.9-30.859-35.2-31.608-68.7
	c-1.049-46.4,27.114-87.1,50.582-83.3c28.062,4.5,44.091,71.5,45.938,119.3c2.896,76-27.863,160.4-60.569,158.7
	c-26.465-1.4-53.628-59.1-48.585-90.7c4.344-27.2,33.755-42.2,52.28-22.7c24.567,26,26.265,109.2,15.979,162.7
	c-12.533,65.3-45.789,101.3-74.9,106c-6.092,1-28.162,3.9-49.933-22.7c-24.467-29.9-46.737-96.5-39.597-114.7
	c15.779-40.2,185.352,135.4,176.414,202c-3.595,26.9-37.5,43.6-139.164,28.7"/>
<path id="path7" class="st0" d="M-6.524,877.7c52.38-67,59.97-101.2,57.273-120c-2.397-16.5-11.884-15.8-25.965-40
	C4.162,682.3-11.917,618.2-2.829,584.3c4.444-16.6,14.63-24.7,55.925-31.3c74.6-12.1,104.011,3.9,108.854-18
	c1.848-8.4,0.749-24.9-61.568-146C59.088,308.8,49.151,295.8,50.1,270.3c2.097-53.8,50.383-94.9,84.886-104.7
	c11.085-3.1,23.568-6.7,38.299,1.3c45.689,24.9,82.589,144.6,69.257,195.3c-22.22,84.4-164.679-93.3-264.995,43.3
	c-56.075,76.5-88.531,236.7-65.263,308.8c26.614,82.5,131.474,66.3,260.301-43.3"/>
<path id="path8" class="st0" d="M-10.818,768.3c0.05-15.4,0.599-37.2,2.996-62.7C-3.778,662.7,2.664,595,20.789,584.3
	c18.925-11.2,47.187,41.6,59.57,94.7c13.282,57,4.744,99.2,17.976,113.3c16.029,17.2,43.142-29.4,46.588-35.3
	c19.873-34.1,46.887-110,33.605-190.7c-13.182-80.2-56.424-105.5-67.56-112c-28.562-16.7-52.729-6-75.549,4.7
	c-70.006,32.7-84.836,103.6-120.838,86.7c-25.216-11.9-45.938-59.9-49.933-108c-6.092-73.9,28.662-133.7,46.288-164
	c32.606-56.1,67.26-68.6,91.527-77.3C31.176,186,64.081,174.1,86.052,211c14.181,23.8,16.628,55.8,20.622,84
	c8.139,57.2,27.913,136,80.892,222"/>
<path id="path9" class="st0" d="M-20.156,268.3c46.837-73.7,107.506-71.4,141.161-8c29.71,56,30.859,145.6,21.621,204.7
	C123.702,585.9,54.544,621.7,23.785,637.7C-3.927,652-57.905,680-80.725,626.3c-24.767-58.2-3.995-191.2,37.949-255.3
	c43.841-67,104.71-49.3,143.807,0.7c35.203,45,59.87,125.4,60.569,209.3c0.2,25.3,0.899,107.2-28.612,145.3
	c-15.23,19.7-38.948,28.3-57.273,8.7c-30.409-32.6-19.124-114.1-46.937-170.7c-31.258-63.6-89.38-73.5-98.218-43.3
	c-6.691,22.9,10.686,83.9,104.86,242.7"/>
<path id="path10" class="st0" d="M-15.512,905C69.674,842.3,89.348,803,87.7,777.7c-2.597-39.9-57.423-36.5-69.257-104.7
	c-7.84-45.4,5.493-110.1,26.964-132c30.06-30.7,62.916,35.9,77.896,8c12.883-23.9,5.692-104.4-17.626-141.3
	c-26.964-42.7-62.916-7.1-72.253-42c-6.092-22.8,2.097-64.9,16.328-85.3c29.56-42.4,71.604,28.8,94.224-12.7
	c9.887-18.1,12.184-50.7,7.989-72c-9.787-50-62.366-60.4-97.22-38c-58.522,37.6-107.456,193.8-91.877,310
	C-11.118,661.7,184.47,667.6,184.57,777c0.05,36.1-21.172,82.4-101.214,136.7"/>
<path id="path11" class="st1" d="M-60.896,731.75c6.941,0.8,51.93,4.5,75.898-58.7c9.987-26.3,12.483-54.2,13.632-68
	c6.691-79.3-17.527-115.9-15.629-181.3c0.849-30.3,7.59-75.1,37.6-128"/>
<path id="path12" class="st1" d="M213.246,697.235c-99.017-23-123.385-54.7-124.833-81.3c-1.698-31,27.763-54.6,24.617-94.7
	c-3.445-43.9-41.794-53.5-40.945-78.7c1.248-36.4,82.24-37.5,85.236-77.3c1.198-15.8-9.737-39.4-52.929-76"/>
<path id="path13" class="st1" d="M-70.374,203.836c15.28-6.2,50.033-15.5,86.884,18c14.031,12.7,24.917,28.6,32.956,42.7"/>
<path id="path14" class="st1" d="M142.659-19.894c41.295,68.5,25.01,132.611,21.315,150.911c-5.792,28.4-35.053,19.6-41.944,56
	c-4.244,22.5,0.949,57.6,12.333,64.7c72.226,12.819,71.975-46.621,72.224-66.121c0.25-16.7-33.036-67.907-103.532-67.497
	c-52.451,28.499,30.036,113.049,0,132.917"/>
<path id="path15" class="st0" d="M-58.454,45.7C-34.586,30.8,4.012,13.3,50.749,23c28.112,5.8,87.233,18,94.523,74
	c7.091,54.3-36.152,138-81.241,151.3c-6.242,1.9-44.191,13.1-71.255-40c-2.846-5.6-26.564-52.1-19.973-86
	c12.383-63.7,131.224-79.2,156.79,18.7c10.786,41.3,1.498,89.8-7.989,139.3C117.46,302,88.249,447.7,20.74,488.3
	c-54.227,32.6-91.877-27.5-103.212,6c-12.234,36.2,18.375,145.8,64.913,183.3c51.531,41.5,101.814-22.2,119.49-44.7
	c15.579-19.7,34.204-43.4,37.949-84c1.049-11.3,3.695-54-30.959-126C58.04,317.2-12.915,273.8-62.499,254.9"/>
<path id="path16" class="st0" d="M-58.754,37.7C14.748-12.7,74.268,4.6,88.698,61.7c10.686,42.4-3.895,105.1-17.976,141.3
	C27.031,315.5-52.912,279.6-58.454,334.3c-4.644,46.2,45.489,139.2,96.571,118.7c28.462-11.5,53.978-56.9,60.569-110
	c4.622-37.148-7.467-60.9-11.068-81c-2.235-12.472,2.386-25.993,5.426-33c4.233-9.775,17.386-14.917,32.957-14.5
	c56,1.5,141.925,126.836,141.809,251.2c-0.05,44.8-12.284,101.2-33.955,124.7c-75.099,81.4-244.323-252.6-351.529-488.7"/>
<path id="path17" class="st0" d="M-30.791,681c58.372-10.3,74.3-39.1,78.245-63.3c4.194-25.8-6.242-41.2-20.323-125.3
	c-11.435-68.6-18.925-115.2-7.989-145.3c10.236-28.2,30.809-25.7,31.608-44.7c0.599-13.9-9.887-27.1-18.625-36"/>
<path id="path-right" class="st0" d="M71.372,751.7c15.03,6.3,23.968,0.3,29.311-6c30.21-36,31.108-187.7-1.997-286.7
	c-20.922-62.6-43.592-68.5-43.941-102.7c-0.336-35.106,9.344-77.153,129.826-148.7"/>
<path id="path-left" class="st0" d="M-35.485,683c8.489-96.2,24.118-137.4,41.594-150c14.63-10.5,24.018,3.8,32.956-12
	c15.379-27.2-4.544-84.2,5.642-171.3c1.798-15.3,6.342-52.6,20.622-88C85.003,213,126,230,149,177.5c18.54-57.088,70.409-61.3,77-48
	"/>
<path id="path-middle" class="st0" d="M43.759,765.7c-7.64-30.9-14.281-72-6.641-108.7c8.539-41.2,27.763-41.6,33.305-80.7
	c5.642-39.9-11.634-59.1-15.329-119.3c-2.896-47.5,4.144-97,14.98-128c21.971-62.8,72.004-85.5,123.834-56.7"/>
</svg>
