<?xml version="1.0" encoding="utf-8"?>
<!-- Generator: Adobe Illustrator 24.0.0, SVG Export Plug-In . SVG Version: 6.00 Build 0)  -->
<svg version="1.1" id="Layer_1" xmlns="http://www.w3.org/2000/svg" xmlns:xlink="http://www.w3.org/1999/xlink" x="0px" y="0px"
	 viewBox="0 0 320 50" style="enable-background:new 0 0 320 50;" xml:space="preserve">
<style type="text/css">
	.st0{fill:#FFFFFF;}
</style>
<g>
	<path class="st0" d="M6,43.9v-4L5.2,40l0.1-0.5l1.3-0.1v4.5H6z"/>
	<path class="st0" d="M9.1,44c-0.8,0-1.5-0.7-1.5-2.3c0-1.6,0.7-2.3,1.5-2.3c0.8,0,1.5,0.7,1.5,2.3C10.6,43.3,9.9,44,9.1,44z
		 M9.1,39.9c-0.5,0-0.9,0.5-0.9,1.8c0,1.3,0.4,1.8,0.9,1.8c0.4,0,0.9-0.5,0.9-1.8C9.9,40.4,9.5,39.9,9.1,39.9z"/>
	<path class="st0" d="M12.8,44c-0.8,0-1.5-0.7-1.5-2.3c0-1.6,0.7-2.3,1.5-2.3c0.8,0,1.5,0.7,1.5,2.3C14.4,43.3,13.6,44,12.8,44z
		 M12.8,39.9c-0.5,0-0.9,0.5-0.9,1.8c0,1.3,0.4,1.8,0.9,1.8c0.4,0,0.9-0.5,0.9-1.8C13.7,40.4,13.3,39.9,12.8,39.9z"/>
	<path class="st0" d="M15.5,43.9v-4L14.7,40l0.1-0.5l1.3-0.1v4.5H15.5z"/>
	<path class="st0" d="M18.5,44c-0.8,0-1.5-0.5-1.5-1.3c0-0.7,0.5-1.1,0.9-1.2c-0.3-0.1-0.7-0.5-0.7-1c0-0.7,0.6-1.1,1.3-1.1
		s1.3,0.5,1.3,1.1c0,0.5-0.4,0.8-0.7,1c0.3,0.1,0.9,0.5,0.9,1.2C20,43.5,19.3,44,18.5,44z M18.4,41.8c-0.4,0.1-0.8,0.4-0.8,0.9
		c0,0.5,0.4,0.8,0.9,0.8c0.5,0,0.9-0.3,0.9-0.8C19.3,42.2,18.8,41.9,18.4,41.8z M18.5,39.9c-0.4,0-0.7,0.3-0.7,0.6
		c0,0.3,0.3,0.6,0.7,0.7c0.4-0.1,0.7-0.4,0.7-0.7C19.2,40.1,18.9,39.9,18.5,39.9z"/>
	<path class="st0" d="M21.1,43.9v-4L20.3,40l0.1-0.5l1.3-0.1v4.5H21.1z"/>
	<path class="st0" d="M23.4,43.9h-0.7l1.7-3.9h-2.1v-0.5h3L23.4,43.9z"/>
</g>
</svg>
