<?xml version="1.0" encoding="utf-8"?>
<!-- Generator: Adobe Illustrator 24.0.0, SVG Export Plug-In . SVG Version: 6.00 Build 0)  -->
<svg version="1.1" id="Layer_1" xmlns="http://www.w3.org/2000/svg" xmlns:xlink="http://www.w3.org/1999/xlink" x="0px" y="0px"
	 viewBox="0 0 320 50" style="enable-background:new 0 0 320 50;" xml:space="preserve">
<style type="text/css">
	.st0{fill:#F9E039;}
</style>
<g>
	<path class="st0" d="M79.5,31.8v1.5h2.2v1.6h-2.2v3.1h-1.8v-7.7h4.4v1.5H79.5z"/>
	<path class="st0" d="M83.6,31.7c-0.3,0-0.9-0.6-0.9-0.9c0-0.3,0.6-0.9,0.9-0.9c0.3,0,0.9,0.6,0.9,0.9
		C84.5,31.1,83.9,31.7,83.6,31.7z M82.7,37.9v-5.4h1.8v5.4H82.7z"/>
	<path class="st0" d="M89,37.9v-3.3c0-0.4-0.3-0.7-0.8-0.7c-0.5,0-0.9,0.3-0.9,0.8v3.3h-1.8v-5.4h1.6v0.7h0c0.2-0.6,0.8-0.9,1.7-0.9
		c1.2,0,1.9,0.7,1.9,1.8v3.8H89z"/>
	<path class="st0" d="M92.7,31.7c-0.3,0-0.9-0.6-0.9-0.9c0-0.3,0.6-0.9,0.9-0.9c0.3,0,0.9,0.6,0.9,0.9C93.6,31.1,93,31.7,92.7,31.7z
		 M91.8,37.9v-5.4h1.8v5.4H91.8z"/>
	<path class="st0" d="M96.4,38c-0.7,0-1.3-0.2-1.7-0.4l-0.2-1.6c0.5,0.3,1.1,0.6,1.7,0.6c0.3,0,0.5-0.2,0.5-0.4
		c0-0.2-0.2-0.3-0.5-0.4c-1-0.3-1.7-0.8-1.7-1.8c0-1.1,0.9-1.8,2-1.8c0.7,0,1.3,0.2,1.6,0.3L97.9,34c-0.3-0.1-0.7-0.3-1.1-0.3
		c-0.3,0-0.5,0.1-0.5,0.3c0,0.2,0.1,0.3,0.5,0.4c1.2,0.3,1.7,0.9,1.7,1.8C98.5,37.2,97.9,38,96.4,38z"/>
	<path class="st0" d="M102.8,37.9v-3.3c0-0.4-0.3-0.7-0.8-0.7c-0.5,0-0.9,0.3-0.9,0.8v3.3h-1.8v-8.5h1.7V33h0
		c0.3-0.4,0.8-0.7,1.5-0.7c1.2,0,1.9,0.7,1.9,1.8v3.8H102.8z"/>
	<path class="st0" d="M112.3,34.2c-0.4-0.2-0.7-0.3-1.2-0.3c-0.8,0-1.4,0.6-1.4,1.3c0,0.8,0.6,1.3,1.4,1.3c0.5,0,0.8-0.1,1.2-0.3
		l-0.2,1.5c-0.4,0.2-0.8,0.3-1.3,0.3c-1.5,0-2.9-1.1-2.9-2.8c0-1.8,1.4-2.8,2.9-2.8c0.7,0,1.3,0.1,1.8,0.4L112.3,34.2z"/>
	<path class="st0" d="M117.1,38.1c-0.3-0.1-0.7-0.3-0.8-0.7c-0.2,0.4-0.8,0.7-1.4,0.7c-1,0-1.8-0.7-1.8-1.8c0-1,0.8-1.7,1.9-1.8
		l1.1-0.1v-0.2c0-0.3-0.3-0.5-0.9-0.5c-0.5,0-1.1,0.2-1.5,0.4l-0.3-1.3c0.4-0.3,1.2-0.5,1.9-0.5c1.4,0,2.5,0.7,2.5,2V36
		c0,0.6,0.2,1,0.7,1.1L117.1,38.1z M116,35.5l-0.7,0.1c-0.5,0-0.7,0.4-0.7,0.7c0,0.3,0.2,0.5,0.6,0.5c0.4,0,0.8-0.3,0.8-0.8V35.5z"
		/>
	<path class="st0" d="M120.7,38.1c-1.1,0-1.9-0.6-1.9-1.9v-6.8h1.7V36c0,0.4,0.3,0.7,0.7,0.7L120.7,38.1z"/>
	<path class="st0" d="M126,34.2c-0.4-0.2-0.7-0.3-1.2-0.3c-0.8,0-1.4,0.6-1.4,1.3c0,0.8,0.6,1.3,1.4,1.3c0.5,0,0.8-0.1,1.2-0.3
		l-0.2,1.5c-0.4,0.2-0.8,0.3-1.3,0.3c-1.5,0-2.9-1.1-2.9-2.8c0-1.8,1.4-2.8,2.9-2.8c0.7,0,1.3,0.1,1.8,0.4L126,34.2z"/>
	<path class="st0" d="M130.7,37.9v-0.7h0c-0.2,0.6-0.8,0.9-1.7,0.9c-1.2,0-1.9-0.7-1.9-1.8v-3.8h1.8v3.3c0,0.4,0.3,0.7,0.8,0.7
		c0.5,0,0.9-0.3,0.9-0.8v-3.3h1.8v5.4H130.7z"/>
	<path class="st0" d="M135.2,38.1c-1.1,0-1.9-0.6-1.9-1.9v-6.8h1.7V36c0,0.4,0.3,0.7,0.7,0.7L135.2,38.1z"/>
	<path class="st0" d="M140.4,38.1c-0.3-0.1-0.7-0.3-0.8-0.7c-0.2,0.4-0.8,0.7-1.4,0.7c-1,0-1.8-0.7-1.8-1.8c0-1,0.8-1.7,1.9-1.8
		l1.1-0.1v-0.2c0-0.3-0.3-0.5-0.9-0.5c-0.5,0-1.1,0.2-1.5,0.4l-0.3-1.3c0.4-0.3,1.2-0.5,1.9-0.5c1.4,0,2.5,0.7,2.5,2V36
		c0,0.6,0.2,1,0.7,1.1L140.4,38.1z M139.2,35.5l-0.7,0.1c-0.5,0-0.7,0.4-0.7,0.7c0,0.3,0.2,0.5,0.6,0.5c0.4,0,0.8-0.3,0.8-0.8V35.5z
		"/>
	<path class="st0" d="M145.6,33.9h-1.4v2c0,0.5,0.3,0.7,0.7,0.7c0.2,0,0.3,0,0.5-0.1l-0.2,1.3c-0.2,0.1-0.5,0.1-0.8,0.1
		c-1.2,0-2-0.6-2-1.7v-2.4h-0.9v-1.4h0.9v-1.2l1.8-0.6v1.8h1.8L145.6,33.9z"/>
	<path class="st0" d="M147.4,31.7c-0.3,0-0.9-0.6-0.9-0.9c0-0.3,0.6-0.9,0.9-0.9c0.3,0,0.9,0.6,0.9,0.9
		C148.3,31.1,147.7,31.7,147.4,31.7z M146.5,37.9v-5.4h1.8v5.4H146.5z"/>
	<path class="st0" d="M152.8,37.9v-3.3c0-0.4-0.3-0.7-0.8-0.7c-0.5,0-0.9,0.3-0.9,0.8v3.3h-1.8v-5.4h1.6v0.7h0
		c0.2-0.6,0.8-0.9,1.7-0.9c1.2,0,1.9,0.7,1.9,1.8v3.8H152.8z"/>
	<path class="st0" d="M157.9,40.7c-1.6,0-2.6-0.9-2.6-2c0-0.8,0.6-1.3,1.1-1.5l-0.7-0.7c0-0.3,0.3-0.6,0.7-0.8
		c-0.4-0.3-0.8-0.8-0.8-1.5c0-1.2,0.8-2,2.2-2c0.3,0,0.6,0,0.8,0.1c0.2,0.1,0.5,0.1,0.8,0.1c0.3,0,0.6-0.1,0.9-0.2l0.3,1.3
		c-0.2,0.1-0.4,0.2-0.7,0.2c0.1,0.1,0.1,0.4,0.1,0.6c0,0.9-0.7,1.7-1.8,1.8c-0.2,0-0.4,0.1-0.4,0.2c0,0.1,0,0.1,0.1,0.2l0.8,0.3
		c1.1,0.4,1.6,0.9,1.6,1.9C160.5,39.8,159.5,40.7,157.9,40.7z M158.2,38.1l-0.6-0.2c-0.4,0-0.7,0.3-0.7,0.7c0,0.4,0.3,0.7,1,0.7
		c0.6,0,1-0.3,1-0.6C158.8,38.5,158.6,38.2,158.2,38.1z M157.8,33.6c-0.4,0-0.7,0.3-0.7,0.6c0,0.4,0.3,0.6,0.7,0.6
		c0.4,0,0.7-0.3,0.7-0.6C158.5,33.9,158.2,33.6,157.8,33.6z"/>
	<path class="st0" d="M161.8,38.1c-0.3,0-1-0.7-1-1c0-0.3,0.7-1,1-1c0.3,0,1,0.7,1,1C162.8,37.4,162.1,38.1,161.8,38.1z"/>
</g>
</svg>
