<?xml version="1.0" encoding="utf-8"?>
<!-- Generator: Adobe Illustrator 24.0.0, SVG Export Plug-In . SVG Version: 6.00 Build 0)  -->
<svg version="1.1" id="Layer_1" xmlns="http://www.w3.org/2000/svg" xmlns:xlink="http://www.w3.org/1999/xlink" x="0px" y="0px"
	 viewBox="0 0 320 50" style="enable-background:new 0 0 320 50;" xml:space="preserve">
<style type="text/css">
	.st0{fill:#F9E039;}
</style>
<g>
	<path class="st0" d="M23.4,22.9h-1.2l-1.1-3.4c-0.2-0.5-0.3-1-0.5-1.7h0c-0.2,0.7-0.3,1.2-0.5,1.7l-1.1,3.4h-1.2l-2.6-7.7H17l1,3.1
		c0.1,0.5,0.3,1,0.4,1.5h0c0.1-0.6,0.3-1.1,0.4-1.5l1-3.1h1.6l1,3.1c0.1,0.4,0.3,1,0.4,1.5h0c0.1-0.6,0.3-1.1,0.4-1.5l1-3.1h1.6
		L23.4,22.9z"/>
	<path class="st0" d="M27.4,16.7c-0.3,0-0.9-0.6-0.9-0.9s0.6-0.9,0.9-0.9c0.3,0,0.9,0.6,0.9,0.9S27.7,16.7,27.4,16.7z M26.5,22.9
		v-5.4h1.8v5.4H26.5z"/>
	<path class="st0" d="M31.2,23.1c-1.1,0-1.9-0.6-1.9-1.9v-6.8h1.7V21c0,0.4,0.3,0.7,0.7,0.7L31.2,23.1z"/>
	<path class="st0" d="M34.3,23.1c-1.1,0-1.9-0.6-1.9-1.9v-6.8h1.7V21c0,0.4,0.3,0.7,0.7,0.7L34.3,23.1z"/>
	<path class="st0" d="M41.5,22.3c-0.8,2.2-1.7,3-2.7,3.4l-1.1-1.1c0.9-0.3,1.5-1,2-2.1l-2-5.1h1.7l0.8,2.1c0.1,0.3,0.2,0.7,0.3,1.1
		h0c0.1-0.4,0.2-0.8,0.3-1.1l0.8-2.1h1.6L41.5,22.3z"/>
	<path class="st0" d="M46.4,23.1c-1.6,0-3-1.2-3-2.9s1.3-2.9,3-2.9c1.6,0,3,1.2,3,2.9S48,23.1,46.4,23.1z M46.4,18.8
		c-0.7,0-1.2,0.6-1.2,1.4c0,0.8,0.6,1.4,1.2,1.4c0.6,0,1.2-0.6,1.2-1.4C47.6,19.4,47,18.8,46.4,18.8z"/>
	<path class="st0" d="M53.7,22.9v-0.7h0C53.5,22.7,52.9,23,52,23c-1.2,0-1.9-0.7-1.9-1.8v-3.8h1.8v3.3c0,0.4,0.3,0.7,0.8,0.7
		c0.5,0,0.9-0.3,0.9-0.8v-3.3h1.8v5.4H53.7z"/>
	<path class="st0" d="M59.7,19.3c-0.1-0.1-0.3-0.1-0.5-0.1c-0.6,0-1.1,0.3-1.1,1.2v2.5h-1.8v-5.4h1.7v1.2h0c0.2-0.9,0.8-1.3,1.5-1.3
		c0.2,0,0.4,0,0.5,0.1L59.7,19.3z"/>
	<path class="st0" d="M66.6,19.3c-0.1-0.1-0.3-0.1-0.5-0.1c-0.6,0-1.1,0.3-1.1,1.2v2.5h-1.8v-5.4H65v1.2h0c0.2-0.9,0.8-1.3,1.5-1.3
		c0.2,0,0.4,0,0.5,0.1L66.6,19.3z"/>
	<path class="st0" d="M72.4,19.9l-0.8,0.8H69c0.1,0.4,0.7,0.9,1.6,0.9c0.6,0,1.1-0.2,1.5-0.4l-0.2,1.5c-0.4,0.2-1,0.4-1.7,0.4
		c-1.7,0-3-1.2-3-2.9c0-1.8,1.3-2.9,2.8-2.9c1.5,0,2.4,1,2.4,2.2C72.5,19.6,72.4,19.8,72.4,19.9z M70,18.6c-0.5,0-0.9,0.4-1.1,0.9
		h1.8c0,0,0-0.1,0-0.1C70.8,19,70.5,18.6,70,18.6z"/>
	<path class="st0" d="M76.9,18.9h-1.4v2c0,0.5,0.3,0.7,0.7,0.7c0.2,0,0.3,0,0.5-0.1l-0.2,1.3c-0.2,0.1-0.5,0.1-0.8,0.1
		c-1.2,0-2-0.6-2-1.7v-2.4h-0.9v-1.4h0.9v-1.2l1.8-0.6v1.8h1.8L76.9,18.9z"/>
	<path class="st0" d="M78.7,16.7c-0.3,0-0.9-0.6-0.9-0.9s0.6-0.9,0.9-0.9c0.3,0,0.9,0.6,0.9,0.9S79,16.7,78.7,16.7z M77.8,22.9v-5.4
		h1.8v5.4H77.8z"/>
	<path class="st0" d="M84,19.3c-0.1-0.1-0.3-0.1-0.5-0.1c-0.6,0-1.1,0.3-1.1,1.2v2.5h-1.8v-5.4h1.7v1.2h0c0.2-0.9,0.8-1.3,1.5-1.3
		c0.2,0,0.4,0,0.5,0.1L84,19.3z"/>
	<path class="st0" d="M89.8,19.9l-0.8,0.8h-2.7c0.1,0.4,0.7,0.9,1.6,0.9c0.6,0,1.1-0.2,1.5-0.4l-0.2,1.5c-0.4,0.2-1,0.4-1.7,0.4
		c-1.7,0-3-1.2-3-2.9c0-1.8,1.3-2.9,2.8-2.9c1.5,0,2.4,1,2.4,2.2C89.9,19.6,89.9,19.8,89.8,19.9z M87.5,18.6c-0.5,0-0.9,0.4-1.1,0.9
		h1.8c0,0,0-0.1,0-0.1C88.2,19,87.9,18.6,87.5,18.6z"/>
	<path class="st0" d="M97.4,22.9v-3.3c0-0.4-0.2-0.7-0.8-0.7c-0.6,0-0.8,0.3-0.8,0.8v3.3H94v-3.3c0-0.4-0.2-0.7-0.8-0.7
		c-0.6,0-0.8,0.3-0.8,0.8v3.3h-1.8v-5.4h1.6v0.7h0c0.2-0.6,0.8-0.9,1.6-0.9c0.8,0,1.4,0.3,1.6,0.9c0.2-0.5,0.9-0.9,1.7-0.9
		c1.2,0,1.9,0.7,1.9,1.8v3.8H97.4z"/>
	<path class="st0" d="M105.2,19.9l-0.8,0.8h-2.7c0.1,0.4,0.7,0.9,1.6,0.9c0.6,0,1.1-0.2,1.5-0.4l-0.2,1.5c-0.4,0.2-1,0.4-1.7,0.4
		c-1.7,0-3-1.2-3-2.9c0-1.8,1.3-2.9,2.8-2.9c1.5,0,2.4,1,2.4,2.2C105.2,19.6,105.2,19.8,105.2,19.9z M102.8,18.6
		c-0.5,0-0.9,0.4-1.1,0.9h1.8c0,0,0-0.1,0-0.1C103.6,19,103.2,18.6,102.8,18.6z"/>
	<path class="st0" d="M109.4,22.9v-3.3c0-0.4-0.3-0.7-0.8-0.7c-0.5,0-0.9,0.3-0.9,0.8v3.3H106v-5.4h1.6v0.7h0
		c0.2-0.6,0.8-0.9,1.7-0.9c1.2,0,1.9,0.7,1.9,1.8v3.8H109.4z"/>
	<path class="st0" d="M115.8,18.9h-1.4v2c0,0.5,0.3,0.7,0.7,0.7c0.2,0,0.3,0,0.5-0.1l-0.2,1.3c-0.2,0.1-0.5,0.1-0.8,0.1
		c-1.2,0-2-0.6-2-1.7v-2.4h-0.9v-1.4h0.9v-1.2l1.8-0.6v1.8h1.8L115.8,18.9z"/>
	<path class="st0" d="M121,23c-0.7,0-1.3-0.2-1.7-0.4l-0.2-1.6c0.5,0.3,1.1,0.6,1.7,0.6c0.3,0,0.5-0.2,0.5-0.4
		c0-0.2-0.2-0.3-0.5-0.4c-1-0.3-1.7-0.8-1.7-1.8c0-1.1,0.9-1.8,2-1.8c0.7,0,1.3,0.2,1.6,0.3l-0.3,1.3c-0.3-0.1-0.7-0.3-1.1-0.3
		c-0.3,0-0.5,0.1-0.5,0.3c0,0.2,0.1,0.3,0.5,0.4c1.2,0.3,1.7,0.9,1.7,1.8C123.1,22.2,122.4,23,121,23z"/>
	<path class="st0" d="M127.7,23.1c-0.3-0.1-0.7-0.3-0.8-0.7c-0.2,0.4-0.8,0.7-1.4,0.7c-1,0-1.8-0.7-1.8-1.8c0-1,0.8-1.7,1.9-1.8
		l1.1-0.1v-0.2c0-0.3-0.3-0.5-0.9-0.5c-0.5,0-1.1,0.2-1.5,0.4l-0.3-1.3c0.4-0.3,1.2-0.5,1.9-0.5c1.4,0,2.5,0.7,2.5,2V21
		c0,0.6,0.2,1,0.7,1.1L127.7,23.1z M126.6,20.5l-0.7,0.1c-0.5,0-0.7,0.4-0.7,0.7c0,0.3,0.2,0.5,0.6,0.5c0.4,0,0.8-0.3,0.8-0.8V20.5z
		"/>
	<path class="st0" d="M132.1,22.9h-1.3l-2.1-5.5h1.7l0.8,2.1c0.1,0.3,0.2,0.7,0.3,1.1h0c0.1-0.3,0.2-0.8,0.3-1.1l0.8-2.1h1.6
		L132.1,22.9z"/>
	<path class="st0" d="M135.7,16.7c-0.3,0-0.9-0.6-0.9-0.9s0.6-0.9,0.9-0.9c0.3,0,0.9,0.6,0.9,0.9S136,16.7,135.7,16.7z M134.8,22.9
		v-5.4h1.8v5.4H134.8z"/>
	<path class="st0" d="M141.1,22.9v-3.3c0-0.4-0.3-0.7-0.8-0.7c-0.5,0-0.9,0.3-0.9,0.8v3.3h-1.8v-5.4h1.6v0.7h0
		c0.2-0.6,0.8-0.9,1.7-0.9c1.2,0,1.9,0.7,1.9,1.8v3.8H141.1z"/>
	<path class="st0" d="M146.2,25.7c-1.6,0-2.6-0.9-2.6-2c0-0.8,0.6-1.3,1.1-1.5l-0.7-0.7c0-0.3,0.3-0.6,0.7-0.8
		c-0.4-0.3-0.8-0.8-0.8-1.5c0-1.2,0.8-2,2.2-2c0.3,0,0.6,0,0.8,0.1c0.2,0.1,0.5,0.1,0.8,0.1c0.3,0,0.6-0.1,0.9-0.2l0.3,1.3
		c-0.2,0.1-0.4,0.2-0.7,0.2c0.1,0.1,0.1,0.4,0.1,0.6c0,0.9-0.7,1.7-1.8,1.8c-0.2,0-0.4,0.1-0.4,0.2c0,0.1,0,0.1,0.1,0.2l0.8,0.3
		c1.1,0.4,1.6,0.9,1.6,1.9C148.8,24.8,147.8,25.7,146.2,25.7z M146.5,23.1l-0.6-0.2c-0.4,0-0.7,0.3-0.7,0.7c0,0.4,0.3,0.7,1,0.7
		c0.6,0,1-0.3,1-0.6C147.1,23.5,146.9,23.2,146.5,23.1z M146.1,18.6c-0.4,0-0.7,0.3-0.7,0.6c0,0.4,0.3,0.6,0.7,0.6
		c0.4,0,0.7-0.3,0.7-0.6C146.8,18.9,146.5,18.6,146.1,18.6z"/>
	<path class="st0" d="M151.2,23c-0.7,0-1.3-0.2-1.7-0.4l-0.2-1.6c0.5,0.3,1.1,0.6,1.7,0.6c0.3,0,0.5-0.2,0.5-0.4
		c0-0.2-0.2-0.3-0.5-0.4c-1-0.3-1.7-0.8-1.7-1.8c0-1.1,0.9-1.8,2-1.8c0.7,0,1.3,0.2,1.6,0.3l-0.3,1.3c-0.3-0.1-0.7-0.3-1.1-0.3
		c-0.3,0-0.5,0.1-0.5,0.3c0,0.2,0.1,0.3,0.5,0.4c1.2,0.3,1.7,0.9,1.7,1.8C153.3,22.2,152.6,23,151.2,23z"/>
	<path class="st0" d="M159.3,23c-1.2,0-2.1-0.4-2.6-0.8v-7.9h1.7v3.3c0.2-0.2,0.8-0.4,1.4-0.4c1.5,0,2.7,1.1,2.7,2.8
		C162.5,21.7,161.4,23,159.3,23z M159.4,18.8c-0.5,0-0.9,0.2-1.1,0.4v2.1c0.2,0.1,0.6,0.3,0.9,0.3c0.9,0,1.5-0.6,1.5-1.4
		C160.7,19.4,160.2,18.8,159.4,18.8z"/>
	<path class="st0" d="M168.3,19.9l-0.8,0.8h-2.7c0.1,0.4,0.7,0.9,1.6,0.9c0.6,0,1.1-0.2,1.5-0.4l-0.2,1.5c-0.4,0.2-1,0.4-1.7,0.4
		c-1.7,0-3-1.2-3-2.9c0-1.8,1.3-2.9,2.8-2.9c1.5,0,2.4,1,2.4,2.2C168.3,19.6,168.3,19.8,168.3,19.9z M165.9,18.6
		c-0.5,0-0.9,0.4-1.1,0.9h1.8c0,0,0-0.1,0-0.1C166.7,19,166.3,18.6,165.9,18.6z"/>
	<path class="st0" d="M175,19.3c-0.1-0.1-0.3-0.1-0.5-0.1c-0.6,0-1.1,0.3-1.1,1.2v2.5h-1.8v-5.4h1.7v1.2h0c0.2-0.9,0.8-1.3,1.5-1.3
		c0.2,0,0.4,0,0.5,0.1L175,19.3z"/>
	<path class="st0" d="M180.8,19.9l-0.8,0.8h-2.7c0.1,0.4,0.7,0.9,1.6,0.9c0.6,0,1.1-0.2,1.5-0.4l-0.2,1.5c-0.4,0.2-1,0.4-1.7,0.4
		c-1.7,0-3-1.2-3-2.9c0-1.8,1.3-2.9,2.8-2.9c1.5,0,2.4,1,2.4,2.2C180.9,19.6,180.8,19.8,180.8,19.9z M178.4,18.6
		c-0.5,0-0.9,0.4-1.1,0.9h1.8c0,0,0-0.1,0-0.1C179.2,19,178.9,18.6,178.4,18.6z"/>
	<path class="st0" d="M185.4,23.1c-0.3-0.1-0.7-0.3-0.8-0.7c-0.2,0.4-0.8,0.7-1.4,0.7c-1,0-1.8-0.7-1.8-1.8c0-1,0.8-1.7,1.9-1.8
		l1.1-0.1v-0.2c0-0.3-0.3-0.5-0.9-0.5c-0.5,0-1.1,0.2-1.5,0.4l-0.3-1.3c0.4-0.3,1.2-0.5,1.9-0.5c1.4,0,2.5,0.7,2.5,2V21
		c0,0.6,0.2,1,0.7,1.1L185.4,23.1z M184.3,20.5l-0.7,0.1c-0.5,0-0.7,0.4-0.7,0.7c0,0.3,0.2,0.5,0.6,0.5c0.4,0,0.8-0.3,0.8-0.8V20.5z
		"/>
	<path class="st0" d="M191.2,22.9v-0.7h0c-0.3,0.6-0.9,0.8-1.7,0.8c-1.3,0-2.6-1-2.6-2.9c0-1.8,1.2-2.9,2.8-2.9
		c0.6,0,1.2,0.2,1.4,0.4v-3.3h1.7v8.5H191.2z M191,19.3c-0.2-0.2-0.5-0.5-1.1-0.5c-0.8,0-1.3,0.6-1.3,1.4c0,0.8,0.5,1.4,1.3,1.4
		c0.5,0,0.9-0.3,1.1-0.6V19.3z"/>
	<path class="st0" d="M197,22.3c-0.8,2.2-1.7,3-2.7,3.4l-1.1-1.1c0.9-0.3,1.5-1,2-2.1l-2-5.1h1.7l0.8,2.1c0.1,0.3,0.2,0.7,0.3,1.1h0
		c0.1-0.4,0.2-0.8,0.3-1.1l0.8-2.1h1.6L197,22.3z"/>
	<path class="st0" d="M199.3,24.7l-0.6-0.1c0.4-0.5,0.7-1.2,0.8-1.7c-0.3-0.1-0.8-0.6-0.8-0.8c0-0.3,0.7-1,1-1c0.3,0,1,0.6,1,1
		C200.7,22.8,200,24,199.3,24.7z"/>
	<path class="st0" d="M207.7,18.9h-1.4v2c0,0.5,0.3,0.7,0.7,0.7c0.2,0,0.3,0,0.5-0.1l-0.2,1.3c-0.2,0.1-0.5,0.1-0.8,0.1
		c-1.2,0-2-0.6-2-1.7v-2.4h-0.9v-1.4h0.9v-1.2l1.8-0.6v1.8h1.8L207.7,18.9z"/>
	<path class="st0" d="M211.2,23.1c-1.6,0-3-1.2-3-2.9s1.3-2.9,3-2.9c1.6,0,3,1.2,3,2.9S212.8,23.1,211.2,23.1z M211.2,18.8
		c-0.7,0-1.2,0.6-1.2,1.4c0,0.8,0.6,1.4,1.2,1.4c0.6,0,1.2-0.6,1.2-1.4C212.4,19.4,211.8,18.8,211.2,18.8z"/>
	<path class="st0" d="M217.6,23.1c-1.6,0-3-1.2-3-2.9s1.3-2.9,3-2.9c1.6,0,3,1.2,3,2.9S219.3,23.1,217.6,23.1z M217.6,18.8
		c-0.7,0-1.2,0.6-1.2,1.4c0,0.8,0.6,1.4,1.2,1.4c0.6,0,1.2-0.6,1.2-1.4C218.9,19.4,218.3,18.8,217.6,18.8z"/>
	<path class="st0" d="M223.8,19.1c-0.3,0.3-0.4,0.6-0.4,0.9c0,0.2,0,0.4,0,0.5l-1.5-0.3c-0.1-0.2-0.1-0.4-0.1-0.6
		c0-0.6,0.3-1.2,0.7-1.7c0.3-0.3,0.5-0.6,0.5-0.9c0-0.3-0.2-0.5-0.7-0.5c-0.4,0-0.8,0.2-1.2,0.4l-0.4-1.5c0.4-0.3,1-0.5,1.7-0.5
		c1.4,0,2.4,0.8,2.4,2C224.8,17.8,224.5,18.4,223.8,19.1z M222.7,23.1c-0.3,0-1-0.7-1-1c0-0.3,0.7-1,1-1c0.3,0,1,0.7,1,1
		C223.7,22.4,223.1,23.1,222.7,23.1z"/>
</g>
</svg>
