<?xml version="1.0" encoding="utf-8"?>
<!-- Generator: Adobe Illustrator 24.0.0, SVG Export Plug-In . SVG Version: 6.00 Build 0)  -->
<svg version="1.1" id="Layer_1" xmlns="http://www.w3.org/2000/svg" xmlns:xlink="http://www.w3.org/1999/xlink" x="0px" y="0px"
	 viewBox="0 0 320 50" style="enable-background:new 0 0 320 50;" xml:space="preserve">
<style type="text/css">
	.st0{fill:#FFFFFF;}
</style>
<path class="st0" d="M61.9,30.5h-1.1c-0.6,0-1,0.6-1,1.1v-1.7c0-0.5-0.5-1.1-1-1.1h-1.1c-0.6,0-1,0.6-1,1.1v-1.1
	c0-0.5-0.5-1.1-1-1.1h-1.1c-0.6,0-1,0.6-1,1.1v-4.3c0-0.8-0.7-1.5-1.6-1.5c-0.9,0-1.6,0.6-1.6,1.5v8.4c-1-0.7-2.4-1.9-3.7-1.3
	c-0.9,0.4-0.7,1.7,0.2,2.6c1.6,1.6,3.4,4.9,4,6.7c1,2.9,1.6,4.2,1.6,4.2h8.5c0,0,0.9-3,1.8-4.9c0.1-0.2,0.3-0.6,0.3-2.1v-3v-3.6
	C62.9,31.1,62.4,30.5,61.9,30.5"/>
<path d="M52.7,44.6h7.7c0.3-0.9,1-3.1,1.7-4.5c0.1-0.2,0.3-0.6,0.3-1.9v-6.6c0-0.2-0.2-0.5-0.5-0.5h-1.1c-0.2,0-0.5,0.3-0.5,0.5
	c0,0.3-0.3,0.6-0.6,0.6c-0.3,0-0.6-0.3-0.6-0.6v-1.7c0-0.2-0.2-0.5-0.5-0.5h-1.1c-0.2,0-0.5,0.3-0.5,0.5c0,0.3-0.3,0.6-0.6,0.6
	c-0.3,0-0.6-0.3-0.6-0.6v-1.1c0-0.2-0.2-0.5-0.5-0.5h-1.1c-0.2,0-0.5,0.3-0.5,0.5c0,0.3-0.3,0.6-0.6,0.6c-0.3,0-0.6-0.3-0.6-0.6
	v-4.3c0-0.5-0.5-0.9-1-0.9c-0.6,0-1,0.4-1,0.9v8.4c0,0.2-0.1,0.4-0.3,0.5c-0.2,0.1-0.4,0.1-0.6,0c-0.1-0.1-0.2-0.2-0.4-0.3
	C48.9,32.6,48,32,47.2,32c-0.2,0-0.3,0-0.5,0.1c-0.1,0.1-0.2,0.2-0.3,0.3c-0.1,0.3,0.1,0.9,0.6,1.4c1.6,1.6,3.4,4.9,4.1,7
	C52,42.8,52.4,44.1,52.7,44.6 M60.8,45.7h-8.5c-0.2,0-0.4-0.1-0.5-0.3c0-0.1-0.6-1.3-1.6-4.3c-0.6-1.7-2.2-4.9-3.9-6.5
	c-0.7-0.7-1.1-1.6-1-2.4c0.1-0.5,0.4-0.9,0.9-1.1c0.3-0.1,0.6-0.2,0.9-0.2c0.9,0,1.7,0.5,2.4,1v-7.4c0-1.1,1-2,2.1-2
	c1.2,0,2.1,0.9,2.1,2v2.7c0.1-0.1,0.3-0.1,0.5-0.1h1.1c0.7,0,1.3,0.6,1.5,1.2c0.2-0.1,0.3-0.1,0.5-0.1h1.1c0.9,0,1.6,0.9,1.6,1.7V30
	c0.1-0.1,0.3-0.1,0.5-0.1h1.1c0.9,0,1.6,0.9,1.6,1.7v6.6c0,1.6-0.2,2.1-0.4,2.3c-0.9,1.8-1.8,4.8-1.8,4.8
	C61.2,45.6,61,45.7,60.8,45.7"/>
<path d="M53.4,32c-0.3,0-0.6-0.3-0.6-0.6v-2.7c0-0.3,0.3-0.6,0.6-0.6s0.6,0.3,0.6,0.6v2.7C54,31.7,53.7,32,53.4,32"/>
<path d="M56.6,33.1c-0.3,0-0.6-0.3-0.6-0.6v-2.7c0-0.3,0.3-0.6,0.6-0.6c0.3,0,0.6,0.3,0.6,0.6v2.7C57.1,32.8,56.9,33.1,56.6,33.1"/>
<path d="M59.7,34.8c-0.3,0-0.6-0.3-0.6-0.6v-2.7c0-0.3,0.3-0.6,0.6-0.6c0.3,0,0.6,0.3,0.6,0.6v2.7C60.3,34.6,60.1,34.8,59.7,34.8"/>
</svg>
