<svg id="Layer_1" xmlns="http://www.w3.org/2000/svg" width="300" height="250" viewBox="0 0 300 250"><style>.st0{fill:#231f20}</style><path class="st0" d="M22.75 25.023h-2.478v3.527c0 .819.441 1.155 1.26 1.155.357 0 .567-.021.798-.126l-.273 2.331c-.294.147-.819.252-1.428.252-2.142 0-3.422-1.134-3.422-3.023v-4.115h-1.596v-2.52h1.596v-2.037l3.065-1.113v3.149h3.065l-.587 2.52zM30.457 32.015v-5.837c0-.693-.483-1.302-1.428-1.302-.924 0-1.491.588-1.491 1.344v5.795h-3.086v-14.95h3.044v6.32h.021c.483-.735 1.365-1.176 2.688-1.176 2.1 0 3.338 1.176 3.338 3.191v6.614h-3.086zM44.211 26.724l-1.365 1.386h-4.661c.147.777 1.197 1.659 2.813 1.659.987 0 1.995-.294 2.625-.714L43.33 31.7c-.714.378-1.806.63-3.023.63-2.897 0-5.228-2.016-5.228-5.123 0-3.065 2.226-5.018 4.955-5.018 2.646 0 4.262 1.827 4.262 3.8a4.009 4.009 0 0 1-.085.735zm-4.178-2.226c-.903 0-1.659.693-1.848 1.554h3.212c0-.063.021-.126.021-.21.001-.651-.566-1.344-1.385-1.344zM51.31 31.07c-1.449 3.821-2.96 5.207-4.745 5.9l-1.89-1.89c1.533-.588 2.708-1.701 3.485-3.716l-3.422-8.86h2.981l1.386 3.695c.21.546.42 1.197.567 1.869h.042c.189-.651.399-1.323.609-1.869l1.386-3.695h2.834L51.31 31.07zM67.71 25.569c-.63-.399-1.281-.609-2.037-.609-1.344 0-2.415.966-2.415 2.352 0 1.365 1.071 2.352 2.478 2.352.798 0 1.407-.168 2.079-.525l-.273 2.625c-.63.294-1.449.462-2.331.462-2.667 0-5.144-1.89-5.144-4.955 0-3.107 2.499-4.976 5.081-4.976 1.26 0 2.289.252 3.128.714l-.566 2.56zM74.389 32.309c-2.876 0-5.186-2.037-5.186-5.06s2.31-5.06 5.186-5.06c2.855 0 5.186 2.037 5.186 5.06s-2.331 5.06-5.186 5.06zm0-7.433c-1.155 0-2.142 1.008-2.142 2.415s.987 2.415 2.142 2.415c1.134 0 2.142-1.008 2.142-2.415s-1.009-2.415-2.142-2.415zM87.366 32.015v-1.302h-.021c-.378 1.008-1.386 1.575-2.918 1.575-2.079 0-3.338-1.155-3.338-3.17v-6.614h3.086v5.837c0 .693.483 1.302 1.428 1.302.924 0 1.491-.609 1.491-1.365v-5.774h3.086v9.511h-2.814zM95.452 32.393c-1.953-.084-3.254-1.092-3.254-3.38V17.065h3.044v11.569c0 .777.441 1.197 1.281 1.26l-1.071 2.499zM104.796 32.015v-1.176h-.021c-.525.966-1.617 1.449-2.939 1.449-2.331 0-4.577-1.764-4.577-5.018 0-3.065 2.184-5.06 4.829-5.06 1.008 0 2.037.336 2.415.651v-5.795h3.002v14.949h-2.709zm-.294-6.236c-.294-.399-.924-.861-1.869-.861-1.344 0-2.289 1.05-2.289 2.415s.945 2.415 2.289 2.415c.903 0 1.533-.483 1.869-.987v-2.982zM120.903 32.435c-.567-.126-1.218-.567-1.47-1.26-.42.777-1.323 1.155-2.478 1.155-1.68 0-3.17-1.176-3.17-3.149 0-1.743 1.365-2.918 3.254-3.107l1.89-.189v-.315c0-.567-.462-.945-1.491-.945-.924 0-1.953.294-2.646.735l-.546-2.331c.777-.504 2.079-.84 3.338-.84 2.52 0 4.304 1.155 4.304 3.443v3.107c0 1.113.42 1.701 1.155 1.974l-2.14 1.722zm-1.974-4.578l-1.155.105c-.798.063-1.155.63-1.155 1.197 0 .504.378.924.966.924.735 0 1.344-.567 1.344-1.386v-.84zM131.15 25.569c-.63-.399-1.281-.609-2.037-.609-1.344 0-2.415.966-2.415 2.352 0 1.365 1.071 2.352 2.478 2.352.798 0 1.407-.168 2.079-.525l-.273 2.625c-.63.294-1.449.462-2.331.462-2.667 0-5.144-1.89-5.144-4.955 0-3.107 2.499-4.976 5.081-4.976 1.26 0 2.289.252 3.128.714l-.566 2.56zM139.277 32.015v-5.837c0-.693-.483-1.302-1.428-1.302-.924 0-1.491.588-1.491 1.344v5.795h-3.086v-14.95h3.044v6.32h.021c.483-.735 1.365-1.176 2.688-1.176 2.1 0 3.338 1.176 3.338 3.191v6.614h-3.086zM145.935 21.202c-.546 0-1.659-1.113-1.659-1.659s1.113-1.638 1.659-1.638 1.659 1.092 1.659 1.638-1.113 1.659-1.659 1.659zm-1.554 10.813v-9.511h3.107v9.511h-3.107zM158.197 26.724l-1.364 1.386h-4.661c.146.777 1.197 1.659 2.813 1.659.987 0 1.995-.294 2.624-.714l-.293 2.646c-.715.378-1.807.63-3.023.63-2.898 0-5.229-2.016-5.229-5.123 0-3.065 2.226-5.018 4.955-5.018 2.646 0 4.262 1.827 4.262 3.8 0 .23-.041.545-.084.734zm-4.177-2.226c-.902 0-1.658.693-1.848 1.554h3.213c0-.063.021-.126.021-.21-.001-.651-.568-1.344-1.386-1.344zM164.687 32.099h-2.31l-3.653-9.595h2.981l1.344 3.632c.189.504.378 1.218.525 1.848h.041c.147-.609.357-1.344.547-1.848l1.344-3.632h2.855l-3.674 9.595zM177.791 26.724l-1.365 1.386h-4.661c.147.777 1.196 1.659 2.813 1.659.986 0 1.994-.294 2.625-.714l-.295 2.646c-.713.378-1.805.63-3.023.63-2.896 0-5.228-2.016-5.228-5.123 0-3.065 2.226-5.018 4.955-5.018 2.646 0 4.263 1.827 4.263 3.8 0 .23-.043.545-.084.734zm-4.179-2.226c-.903 0-1.659.693-1.848 1.554h3.212c0-.063.021-.126.021-.21.001-.651-.565-1.344-1.385-1.344z"/><g><path class="st0" d="M19.475 53.225c-1.302 0-2.247-.273-3.023-.672l-.273-2.729c.84.588 1.932 1.029 2.981 1.029.567 0 .924-.294.924-.651 0-.399-.315-.567-.861-.735-1.827-.525-2.918-1.449-2.918-3.107 0-1.869 1.512-3.065 3.569-3.065 1.176 0 2.331.315 2.813.567l-.525 2.268c-.462-.252-1.218-.525-1.974-.525-.504 0-.84.231-.84.609 0 .357.252.546.84.693 2.142.567 3.023 1.638 3.023 3.233.001 1.615-1.175 3.085-3.736 3.085zM29.428 53.309c-2.876 0-5.186-2.037-5.186-5.06s2.31-5.06 5.186-5.06c2.855 0 5.186 2.037 5.186 5.06s-2.33 5.06-5.186 5.06zm0-7.433c-1.155 0-2.142 1.008-2.142 2.415s.987 2.415 2.142 2.415c1.134 0 2.142-1.008 2.142-2.415s-1.008-2.415-2.142-2.415zM47.886 53.015v-5.837c0-.693-.336-1.302-1.344-1.302-.987 0-1.428.588-1.428 1.344v5.795h-3.086v-5.837c0-.693-.336-1.302-1.344-1.302-.987 0-1.428.588-1.428 1.344v5.795H36.17v-9.511h2.855v1.281h.021c.378-1.008 1.323-1.575 2.813-1.575 1.365 0 2.394.546 2.813 1.554.399-.924 1.512-1.554 2.939-1.554 2.163 0 3.359 1.176 3.359 3.191v6.614h-3.084zM61.662 47.724l-1.365 1.386h-4.661c.147.777 1.197 1.659 2.813 1.659.987 0 1.995-.294 2.625-.714L60.78 52.7c-.714.378-1.806.63-3.023.63-2.897 0-5.228-2.016-5.228-5.123 0-3.065 2.226-5.018 4.955-5.018 2.646 0 4.262 1.827 4.262 3.8 0 .231-.042.546-.084.735zm-4.178-2.226c-.903 0-1.659.693-1.848 1.554h3.212c0-.063.021-.126.021-.21.001-.651-.566-1.344-1.385-1.344zM69.706 46.023h-2.478v3.527c0 .819.441 1.155 1.26 1.155.357 0 .567-.021.798-.126l-.273 2.331c-.294.147-.819.252-1.428.252-2.142 0-3.422-1.134-3.422-3.023v-4.115h-1.596v-2.52h1.596v-2.037l3.065-1.113v3.149h3.065l-.587 2.52zM77.413 53.015v-5.837c0-.693-.483-1.302-1.428-1.302-.924 0-1.491.588-1.491 1.344v5.795h-3.086v-14.95h3.044v6.32h.021c.483-.735 1.365-1.176 2.688-1.176 2.1 0 3.338 1.176 3.338 3.191v6.614h-3.086zM84.07 42.202c-.546 0-1.659-1.113-1.659-1.659s1.113-1.638 1.659-1.638 1.659 1.092 1.659 1.638-1.113 1.659-1.659 1.659zm-1.553 10.813v-9.511h3.107v9.511h-3.107zM93.645 53.015v-5.837c0-.693-.462-1.302-1.407-1.302-.924 0-1.512.588-1.512 1.344v5.795H87.64v-9.511h2.834v1.281h.021c.378-1.008 1.365-1.575 2.897-1.575 2.079 0 3.338 1.176 3.338 3.191v6.614h-3.085zM102.717 57.865c-2.771 0-4.619-1.575-4.619-3.569 0-1.449.966-2.31 1.953-2.562l-1.218-1.218c.084-.609.609-1.134 1.155-1.365a2.992 2.992 0 0 1-1.386-2.541c0-2.016 1.449-3.422 3.926-3.422.567 0 1.008.084 1.407.189.42.105.882.168 1.365.168.525 0 1.071-.126 1.491-.315l.567 2.352c-.294.168-.756.315-1.176.294.105.189.231.63.231.966 0 1.596-1.26 2.939-3.107 3.065-.378.021-.63.105-.63.357 0 .105.084.231.252.294l1.47.525c1.869.672 2.876 1.617 2.876 3.359-.001 1.953-1.785 3.423-4.557 3.423zm.651-4.472l-1.134-.315c-.735.021-1.281.546-1.281 1.239 0 .651.567 1.197 1.68 1.197 1.092 0 1.68-.504 1.68-1.05 0-.442-.336-.903-.945-1.071zm-.84-7.958c-.693 0-1.218.525-1.218 1.134 0 .63.525 1.134 1.218 1.134.672 0 1.218-.504 1.218-1.134 0-.609-.504-1.134-1.218-1.134zM119.223 46.779a2.295 2.295 0 0 0-.924-.231c-.987 0-1.89.525-1.89 2.037v4.43h-3.086v-9.511h3.044v2.121h.021c.315-1.491 1.428-2.289 2.708-2.289.294 0 .651.042.882.126l-.755 3.317zM129.533 47.724l-1.365 1.386h-4.661c.147.777 1.197 1.659 2.813 1.659.987 0 1.995-.294 2.625-.714l-.294 2.646c-.714.378-1.806.63-3.023.63-2.897 0-5.228-2.016-5.228-5.123 0-3.065 2.226-5.018 4.955-5.018 2.646 0 4.262 1.827 4.262 3.8 0 .23-.042.545-.084.734zm-4.178-2.226c-.903 0-1.659.693-1.848 1.554h3.212c0-.063.021-.126.021-.21.001-.651-.566-1.344-1.385-1.344zM137.744 53.435c-.567-.126-1.218-.567-1.47-1.26-.42.777-1.323 1.155-2.478 1.155-1.68 0-3.17-1.176-3.17-3.149 0-1.743 1.365-2.918 3.254-3.107l1.89-.189v-.315c0-.567-.462-.945-1.491-.945-.924 0-1.953.294-2.646.735l-.546-2.331c.777-.504 2.079-.84 3.338-.84 2.52 0 4.304 1.155 4.304 3.443v3.107c0 1.113.42 1.701 1.155 1.974l-2.14 1.722zm-1.973-4.578l-1.155.105c-.798.063-1.155.63-1.155 1.197 0 .504.378.924.966.924.735 0 1.344-.567 1.344-1.386v-.84zM144.17 53.393c-1.953-.084-3.254-1.092-3.254-3.38V38.065h3.044v11.569c0 .777.441 1.197 1.281 1.26l-1.071 2.499zM149.714 53.393c-1.953-.084-3.254-1.092-3.254-3.38V38.065h3.044v11.569c0 .777.441 1.197 1.281 1.26l-1.071 2.499zM157.484 52.07c-1.449 3.821-2.961 5.207-4.746 5.9l-1.889-1.89c1.532-.588 2.708-1.701 3.484-3.716l-3.422-8.86h2.981l1.386 3.695a13 13 0 0 1 .566 1.869h.043a24.09 24.09 0 0 1 .608-1.869l1.386-3.695h2.834l-3.231 8.566zM169.706 53.225c-1.302 0-2.247-.273-3.023-.672l-.272-2.729c.84.588 1.932 1.029 2.98 1.029.567 0 .924-.294.924-.651 0-.399-.314-.567-.86-.735-1.827-.525-2.919-1.449-2.919-3.107 0-1.869 1.512-3.065 3.57-3.065 1.176 0 2.33.315 2.812.567l-.524 2.268c-.462-.252-1.218-.525-1.974-.525-.504 0-.84.231-.84.609 0 .357.252.546.84.693 2.142.567 3.023 1.638 3.023 3.233 0 1.615-1.175 3.085-3.737 3.085zM185.245 53.099h-2.12l-1.281-3.779a39.316 39.316 0 0 1-.566-1.974h-.043a16.17 16.17 0 0 1-.524 1.953l-1.28 3.8h-2.016l-3.318-9.595h2.814l1.176 3.611c.168.546.356 1.218.461 1.827h.043c.104-.588.272-1.281.461-1.827l1.197-3.611h2.33l1.197 3.59c.189.588.314 1.239.441 1.848h.041c.127-.609.295-1.281.483-1.848l1.196-3.59h2.625l-3.317 9.595zM198.098 47.724l-1.365 1.386h-4.661c.147.777 1.196 1.659 2.813 1.659.986 0 1.994-.294 2.625-.714l-.295 2.646c-.713.378-1.805.63-3.023.63-2.896 0-5.228-2.016-5.228-5.123 0-3.065 2.226-5.018 4.955-5.018 2.646 0 4.263 1.827 4.263 3.8 0 .23-.043.545-.084.734zm-4.179-2.226c-.903 0-1.659.693-1.848 1.554h3.212c0-.063.021-.126.021-.21.001-.651-.566-1.344-1.385-1.344zM208.365 47.724l-1.364 1.386h-4.661c.146.777 1.197 1.659 2.813 1.659.987 0 1.995-.294 2.624-.714l-.293 2.646c-.715.378-1.807.63-3.023.63-2.898 0-5.229-2.016-5.229-5.123 0-3.065 2.226-5.018 4.955-5.018 2.646 0 4.262 1.827 4.262 3.8 0 .23-.041.545-.084.734zm-4.177-2.226c-.902 0-1.658.693-1.848 1.554h3.213c0-.063.021-.126.021-.21-.001-.651-.568-1.344-1.386-1.344zM216.409 46.023h-2.478v3.527c0 .819.441 1.155 1.26 1.155.357 0 .566-.021.798-.126l-.272 2.331c-.295.147-.819.252-1.428.252-2.143 0-3.423-1.134-3.423-3.023v-4.115h-1.596v-2.52h1.596v-2.037l3.065-1.113v3.149h3.065l-.587 2.52zM219.371 53.309c-.567 0-1.743-1.176-1.743-1.743 0-.546 1.176-1.722 1.743-1.722.566 0 1.742 1.176 1.742 1.722 0 .567-1.175 1.743-1.742 1.743z"/></g></svg>