<svg id="Layer_2" xmlns="http://www.w3.org/2000/svg" width="300" height="250" viewBox="0 0 300 250"><style>.st0{fill:#231f20}</style><path class="st0" d="M27.993 22.419c-.63-.378-1.659-.693-2.771-.693-2.373 0-4.283 1.596-4.283 4.073 0 2.457 1.89 4.094 4.43 4.094 1.113 0 2.1-.21 2.792-.588l-.273 2.834c-.714.336-1.68.504-3.044.504-3.464 0-7.181-2.352-7.181-6.887s3.737-6.908 7.181-6.908c1.659 0 2.96.357 3.758.819l-.609 2.752zM34.693 32.749c-2.876 0-5.186-2.037-5.186-5.06s2.31-5.06 5.186-5.06c2.855 0 5.186 2.037 5.186 5.06s-2.331 5.06-5.186 5.06zm0-7.433c-1.155 0-2.142 1.008-2.142 2.415s.987 2.415 2.142 2.415c1.134 0 2.142-1.008 2.142-2.415s-1.008-2.415-2.142-2.415zM47.439 32.455v-5.837c0-.693-.462-1.302-1.407-1.302-.924 0-1.512.588-1.512 1.344v5.795h-3.086v-9.511h2.834v1.281h.021c.378-1.008 1.365-1.575 2.897-1.575 2.079 0 3.338 1.176 3.338 3.191v6.614h-3.085zM55.546 32.665c-1.302 0-2.247-.273-3.023-.672l-.273-2.729c.84.588 1.932 1.029 2.981 1.029.567 0 .924-.294.924-.651 0-.399-.315-.567-.861-.735-1.827-.525-2.918-1.449-2.918-3.107 0-1.869 1.512-3.065 3.569-3.065 1.176 0 2.331.315 2.813.567l-.525 2.268c-.462-.252-1.218-.525-1.974-.525-.504 0-.84.231-.84.609 0 .357.252.546.84.693 2.142.567 3.023 1.638 3.023 3.233.001 1.615-1.175 3.085-3.736 3.085zM65.5 32.749c-2.876 0-5.186-2.037-5.186-5.06s2.31-5.06 5.186-5.06c2.855 0 5.186 2.037 5.186 5.06s-2.331 5.06-5.186 5.06zm0-7.433c-1.155 0-2.142 1.008-2.142 2.415s.987 2.415 2.142 2.415c1.134 0 2.142-1.008 2.142-2.415s-1.009-2.415-2.142-2.415zM75.517 32.833c-1.953-.084-3.254-1.092-3.254-3.38V17.506h3.044v11.569c0 .777.441 1.197 1.281 1.26l-1.071 2.498zM79.423 21.642c-.546 0-1.659-1.113-1.659-1.659s1.113-1.638 1.659-1.638 1.659 1.092 1.659 1.638-1.113 1.659-1.659 1.659zm-1.554 10.813v-9.511h3.107v9.511h-3.107zM90.089 32.455v-1.176h-.021c-.525.966-1.617 1.449-2.939 1.449-2.331 0-4.577-1.764-4.577-5.018 0-3.065 2.184-5.06 4.829-5.06 1.008 0 2.037.336 2.415.651v-5.795h3.002v14.949h-2.709zm-.294-6.236c-.294-.399-.924-.861-1.869-.861-1.344 0-2.289 1.05-2.289 2.415s.945 2.415 2.289 2.415c.903 0 1.533-.483 1.869-.987v-2.982zM101.514 32.875c-.567-.126-1.218-.567-1.47-1.26-.42.777-1.323 1.155-2.478 1.155-1.68 0-3.17-1.176-3.17-3.149 0-1.743 1.365-2.918 3.254-3.107l1.89-.189v-.315c0-.567-.462-.945-1.491-.945-.924 0-1.953.294-2.646.735l-.546-2.331c.777-.504 2.079-.84 3.338-.84 2.52 0 4.304 1.155 4.304 3.443v3.107c0 1.113.42 1.701 1.155 1.974l-2.14 1.722zm-1.974-4.577l-1.155.105c-.798.063-1.155.63-1.155 1.197 0 .504.378.924.966.924.735 0 1.344-.567 1.344-1.386v-.84zM110.879 25.463h-2.478v3.527c0 .819.441 1.155 1.26 1.155.357 0 .567-.021.798-.126l-.273 2.331c-.294.147-.819.252-1.428.252-2.142 0-3.422-1.134-3.422-3.023v-4.115h-1.596v-2.52h1.596v-2.037l3.065-1.113v3.149h3.065l-.587 2.52zM121.064 27.164l-1.365 1.386h-4.661c.147.777 1.197 1.659 2.813 1.659.987 0 1.995-.294 2.625-.714l-.294 2.646c-.714.378-1.806.63-3.023.63-2.897 0-5.228-2.016-5.228-5.123 0-3.065 2.226-5.018 4.955-5.018 2.646 0 4.262 1.827 4.262 3.8 0 .23-.042.545-.084.734zm-4.178-2.226c-.903 0-1.659.693-1.848 1.554h3.212c0-.063.021-.126.021-.21 0-.651-.566-1.344-1.385-1.344zM134.63 26.009c-.63-.399-1.281-.609-2.037-.609-1.344 0-2.415.966-2.415 2.352 0 1.365 1.071 2.352 2.478 2.352.798 0 1.407-.168 2.079-.525l-.273 2.625c-.63.294-1.449.462-2.331.462-2.667 0-5.144-1.89-5.144-4.955 0-3.107 2.499-4.976 5.081-4.976 1.26 0 2.289.252 3.128.714l-.566 2.56zM141.308 32.749c-2.876 0-5.186-2.037-5.186-5.06s2.31-5.06 5.186-5.06c2.855 0 5.186 2.037 5.186 5.06s-2.33 5.06-5.186 5.06zm0-7.433c-1.155 0-2.142 1.008-2.142 2.415s.987 2.415 2.142 2.415c1.134 0 2.142-1.008 2.142-2.415s-1.008-2.415-2.142-2.415zM154.055 32.455v-5.837c0-.693-.462-1.302-1.406-1.302-.924 0-1.512.588-1.512 1.344v5.795h-3.087v-9.511h2.835v1.281h.021c.378-1.008 1.364-1.575 2.897-1.575 2.078 0 3.338 1.176 3.338 3.191v6.614h-3.086zM165.688 20.256a3.613 3.613 0 0 0-1.239-.252c-1.133 0-1.721.672-1.721 2.037v.903h2.729l-.608 2.52h-2.12v6.992h-2.982v-6.992h-1.448v-2.52h1.448v-1.113c0-2.897 1.869-4.325 4.263-4.325.882 0 1.764.105 2.247.315l-.569 2.435zM168.355 21.642c-.545 0-1.658-1.113-1.658-1.659s1.113-1.638 1.658-1.638c.547 0 1.659 1.092 1.659 1.638s-1.112 1.659-1.659 1.659zm-1.552 10.813v-9.511h3.107v9.511h-3.107zM179.023 32.455v-1.176h-.021c-.524.966-1.616 1.449-2.939 1.449-2.33 0-4.576-1.764-4.576-5.018 0-3.065 2.184-5.06 4.828-5.06 1.008 0 2.037.336 2.415.651v-5.795h3.003v14.949h-2.71zm-.294-6.236c-.294-.399-.924-.861-1.868-.861-1.344 0-2.289 1.05-2.289 2.415s.945 2.415 2.289 2.415c.902 0 1.532-.483 1.868-.987v-2.982zM192.42 27.164l-1.364 1.386h-4.661c.146.777 1.197 1.659 2.813 1.659.987 0 1.995-.294 2.624-.714l-.293 2.646c-.715.378-1.807.63-3.023.63-2.898 0-5.229-2.016-5.229-5.123 0-3.065 2.226-5.018 4.955-5.018 2.646 0 4.262 1.827 4.262 3.8 0 .23-.041.545-.084.734zm-4.178-2.226c-.902 0-1.658.693-1.848 1.554h3.213c0-.063.021-.126.021-.21 0-.651-.567-1.344-1.386-1.344zM200.044 32.455v-5.837c0-.693-.462-1.302-1.407-1.302-.924 0-1.512.588-1.512 1.344v5.795h-3.086v-9.511h2.834v1.281h.021c.378-1.008 1.365-1.575 2.897-1.575 2.079 0 3.339 1.176 3.339 3.191v6.614h-3.086zM211.362 25.463h-2.478v3.527c0 .819.441 1.155 1.26 1.155.357 0 .566-.021.798-.126l-.272 2.331c-.295.147-.819.252-1.428.252-2.143 0-3.423-1.134-3.423-3.023v-4.115h-1.596v-2.52h1.596v-2.037l3.065-1.113v3.149h3.065l-.587 2.52zM216.277 32.833c-1.953-.084-3.255-1.092-3.255-3.38V17.506h3.044v11.569c0 .777.441 1.197 1.281 1.26l-1.07 2.498zM224.047 31.51c-1.449 3.821-2.961 5.207-4.746 5.9l-1.889-1.89c1.532-.588 2.708-1.701 3.484-3.716l-3.422-8.86h2.981l1.386 3.695a13 13 0 0 1 .566 1.869h.043a24.09 24.09 0 0 1 .608-1.869l1.386-3.695h2.834l-3.231 8.566z"/><g><path class="st0" d="M28.413 53.539h-2.121l-1.281-3.779a40.349 40.349 0 0 1-.567-1.974h-.042a16.161 16.161 0 0 1-.525 1.953l-1.281 3.8H20.58l-3.317-9.595h2.813l1.176 3.611c.168.546.357 1.218.462 1.827h.042c.105-.588.273-1.281.462-1.827l1.197-3.611h2.331l1.197 3.59c.189.588.315 1.239.441 1.848h.042c.126-.609.294-1.281.483-1.848l1.197-3.59h2.625l-3.318 9.595zM34.441 42.642c-.546 0-1.659-1.113-1.659-1.659s1.113-1.638 1.659-1.638 1.659 1.092 1.659 1.638-1.113 1.659-1.659 1.659zm-1.553 10.813v-9.511h3.107v9.511h-3.107zM44.332 46.463h-2.478v3.527c0 .819.441 1.155 1.26 1.155.357 0 .567-.021.798-.126l-.273 2.331c-.294.147-.819.252-1.428.252-2.142 0-3.422-1.134-3.422-3.023v-4.115h-1.596v-2.52h1.596v-2.037l3.065-1.113v3.149h3.065l-.587 2.52zM52.039 53.455v-5.837c0-.693-.483-1.302-1.428-1.302-.924 0-1.491.588-1.491 1.344v5.795h-3.086V38.506h3.044v6.32h.021c.483-.735 1.365-1.176 2.688-1.176 2.1 0 3.338 1.176 3.338 3.191v6.614h-3.086zM68.46 53.875c-.567-.126-1.218-.567-1.47-1.26-.42.777-1.323 1.155-2.478 1.155-1.68 0-3.17-1.176-3.17-3.149 0-1.743 1.365-2.918 3.254-3.107l1.89-.189v-.315c0-.567-.462-.945-1.491-.945-.924 0-1.953.294-2.646.735l-.546-2.331c.777-.504 2.079-.84 3.338-.84 2.52 0 4.304 1.155 4.304 3.443v3.107c0 1.113.42 1.701 1.155 1.974l-2.14 1.722zm-1.974-4.577l-1.155.105c-.798.063-1.155.63-1.155 1.197 0 .504.378.924.966.924.735 0 1.344-.567 1.344-1.386v-.84zM82.698 42.726v10.729h-3.254V42.726h-3.842V40.06H86.54v2.667h-3.842zM87.865 53.455V40.06h3.254v13.396h-3.254zM101.996 53.455l-1.113-3.023h-4.262l-1.113 3.023h-3.065l5.27-13.5h2.247l5.27 13.5h-3.234zm-2.834-8.041c-.126-.357-.294-.798-.399-1.239h-.042c-.105.441-.252.903-.378 1.239l-.903 2.478h2.625l-.903-2.478zM115.604 53.455l-1.113-3.023h-4.262l-1.113 3.023h-3.065l5.27-13.5h2.247l5.27 13.5h-3.234zm-2.834-8.041c-.126-.357-.294-.798-.399-1.239h-.042c-.105.441-.252.903-.378 1.239l-.903 2.478h2.625l-.903-2.478zM125.098 53.455V40.06h3.254v13.396h-3.254zM138.515 53.455l-3.59-5.27h-.861v5.27h-3.128V40.06h4.892c2.289 0 4.325 1.533 4.325 4.052 0 1.554-.924 2.834-2.058 3.359l4.262 5.984h-3.842zm-3.17-10.771h-1.281v3.002h1.281c.84 0 1.68-.462 1.68-1.491-.001-1.007-.84-1.511-1.68-1.511zM152.312 53.455l-1.113-3.023h-4.262l-1.113 3.023h-3.065l5.27-13.5h2.247l5.27 13.5h-3.234zm-2.834-8.041c-.126-.357-.294-.798-.399-1.239h-.042c-.105.441-.252.903-.378 1.239l-.903 2.478h2.625l-.903-2.478zM158.654 53.749c-.566 0-1.742-1.176-1.742-1.743 0-.546 1.176-1.722 1.742-1.722.567 0 1.743 1.176 1.743 1.722 0 .567-1.175 1.743-1.743 1.743z"/></g></svg>