<svg id="Layer_1" xmlns="http://www.w3.org/2000/svg" width="300" height="250" viewBox="0 0 300 250"><style>.st0{fill:#231f20}</style><path class="st0" d="M22.406 27.031v5.984h-3.149v-5.921l-5.018-7.475h3.485l2.205 3.212c.315.441.672 1.071.966 1.617h.042c.273-.525.693-1.197.987-1.617l2.205-3.212h3.254l-4.977 7.412zM31.583 33.309c-2.876 0-5.186-2.037-5.186-5.06s2.31-5.06 5.186-5.06c2.855 0 5.186 2.037 5.186 5.06s-2.33 5.06-5.186 5.06zm0-7.433c-1.155 0-2.142 1.008-2.142 2.415s.987 2.415 2.142 2.415c1.134 0 2.142-1.008 2.142-2.415s-1.008-2.415-2.142-2.415zM44.561 33.015v-1.302h-.021c-.378 1.008-1.386 1.575-2.918 1.575-2.079 0-3.338-1.155-3.338-3.17v-6.614h3.086v5.837c0 .693.483 1.302 1.428 1.302.924 0 1.491-.609 1.491-1.365v-5.774h3.086v9.511h-2.814zM55.271 26.779a2.295 2.295 0 0 0-.924-.231c-.987 0-1.89.525-1.89 2.037v4.43h-3.086v-9.511h3.044v2.121h.021c.315-1.491 1.428-2.289 2.708-2.289.294 0 .651.042.882.126l-.755 3.317zM66.632 33.309c-2.876 0-5.186-2.037-5.186-5.06s2.31-5.06 5.186-5.06c2.855 0 5.186 2.037 5.186 5.06s-2.33 5.06-5.186 5.06zm0-7.433c-1.155 0-2.142 1.008-2.142 2.415s.987 2.415 2.142 2.415c1.134 0 2.142-1.008 2.142-2.415s-1.008-2.415-2.142-2.415zM76.649 33.393c-1.953-.084-3.254-1.092-3.254-3.38V18.065h3.044v11.569c0 .777.441 1.197 1.281 1.26l-1.071 2.499zM85.994 33.015v-1.176h-.021c-.525.966-1.617 1.449-2.939 1.449-2.331 0-4.577-1.764-4.577-5.018 0-3.065 2.184-5.06 4.829-5.06 1.008 0 2.037.336 2.415.651v-5.795h3.002v14.949h-2.709zm-.294-6.236c-.294-.399-.924-.861-1.869-.861-1.344 0-2.289 1.05-2.289 2.415s.945 2.415 2.289 2.415c.903 0 1.533-.483 1.869-.987v-2.982zM101.261 26.779a2.295 2.295 0 0 0-.924-.231c-.987 0-1.89.525-1.89 2.037v4.43h-3.086v-9.511h3.044v2.121h.021c.315-1.491 1.428-2.289 2.708-2.289.294 0 .651.042.882.126l-.755 3.317zM111.592 27.724l-1.365 1.386h-4.661c.147.777 1.197 1.659 2.813 1.659.987 0 1.995-.294 2.625-.714l-.294 2.645c-.714.378-1.806.63-3.023.63-2.897 0-5.228-2.016-5.228-5.123 0-3.065 2.226-5.018 4.955-5.018 2.646 0 4.262 1.827 4.262 3.8 0 .231-.042.546-.084.735zm-4.178-2.226c-.903 0-1.659.693-1.848 1.554h3.212c0-.063.021-.126.021-.21.001-.651-.566-1.344-1.385-1.344zM119.635 26.023h-2.478v3.527c0 .819.441 1.155 1.26 1.155.357 0 .567-.021.798-.126l-.273 2.331c-.294.147-.819.252-1.428.252-2.142 0-3.422-1.134-3.422-3.023v-4.115h-1.596v-2.52h1.596v-2.037l3.065-1.113v3.149h3.065l-.587 2.52zM122.912 22.202c-.546 0-1.659-1.113-1.659-1.659s1.113-1.638 1.659-1.638 1.659 1.092 1.659 1.638-1.113 1.659-1.659 1.659zm-1.554 10.813v-9.511h3.107v9.511h-3.107zM132.382 26.779a2.295 2.295 0 0 0-.924-.231c-.987 0-1.89.525-1.89 2.037v4.43h-3.086v-9.511h3.044v2.121h.021c.315-1.491 1.428-2.289 2.708-2.289.294 0 .651.042.882.126l-.755 3.317zM142.713 27.724l-1.365 1.386h-4.661c.147.777 1.197 1.659 2.813 1.659.987 0 1.995-.294 2.625-.714l-.294 2.646c-.714.378-1.806.63-3.023.63-2.897 0-5.228-2.016-5.228-5.123 0-3.065 2.226-5.018 4.955-5.018 2.646 0 4.262 1.827 4.262 3.8 0 .23-.042.545-.084.734zm-4.178-2.226c-.903 0-1.659.693-1.848 1.554h3.212c0-.063.021-.126.021-.21.001-.651-.566-1.344-1.385-1.344zM156.048 33.015v-5.837c0-.693-.336-1.302-1.344-1.302-.987 0-1.428.588-1.428 1.344v5.795h-3.087v-5.837c0-.693-.335-1.302-1.343-1.302-.987 0-1.428.588-1.428 1.344v5.795h-3.086v-9.511h2.855v1.281h.021c.378-1.008 1.323-1.575 2.813-1.575 1.365 0 2.395.546 2.814 1.554.398-.924 1.512-1.554 2.939-1.554 2.162 0 3.359 1.176 3.359 3.191v6.614h-3.085zM169.824 27.724l-1.365 1.386h-4.661c.147.777 1.196 1.659 2.813 1.659.986 0 1.994-.294 2.625-.714l-.295 2.646c-.713.378-1.805.63-3.023.63-2.896 0-5.228-2.016-5.228-5.123 0-3.065 2.226-5.018 4.955-5.018 2.646 0 4.263 1.827 4.263 3.8 0 .23-.043.545-.084.734zm-4.178-2.226c-.903 0-1.659.693-1.848 1.554h3.212c0-.063.021-.126.021-.21 0-.651-.566-1.344-1.385-1.344zM177.447 33.015v-5.837c0-.693-.462-1.302-1.406-1.302-.924 0-1.512.588-1.512 1.344v5.795h-3.087v-9.511h2.835v1.281h.021c.378-1.008 1.364-1.575 2.897-1.575 2.078 0 3.338 1.176 3.338 3.191v6.614h-3.086zM188.745 26.023h-2.478v3.527c0 .819.441 1.155 1.26 1.155.357 0 .566-.021.798-.126l-.272 2.331c-.295.147-.819.252-1.428.252-2.143 0-3.423-1.134-3.423-3.023v-4.115h-1.596v-2.52h1.596v-2.037l3.065-1.113v3.149h3.065l-.587 2.52zM201.85 33.435c-.567-.126-1.219-.567-1.471-1.26-.42.777-1.322 1.155-2.477 1.155-1.68 0-3.171-1.176-3.171-3.149 0-1.743 1.364-2.918 3.255-3.107l1.889-.189v-.315c0-.567-.461-.945-1.49-.945-.924 0-1.953.294-2.646.735l-.546-2.331c.777-.504 2.078-.84 3.338-.84 2.52 0 4.305 1.155 4.305 3.443v3.107c0 1.113.42 1.701 1.154 1.974l-2.14 1.722zm-1.975-4.578l-1.154.105c-.798.063-1.154.63-1.154 1.197 0 .504.377.924.965.924.735 0 1.344-.567 1.344-1.386v-.84zM212.117 26.569c-.629-.399-1.28-.609-2.036-.609-1.344 0-2.415.966-2.415 2.352 0 1.365 1.071 2.352 2.479 2.352.797 0 1.406-.168 2.078-.525l-.273 2.625c-.629.294-1.448.462-2.33.462-2.666 0-5.145-1.89-5.145-4.955 0-3.107 2.499-4.976 5.082-4.976 1.26 0 2.288.252 3.128.714l-.568 2.56zM221.252 26.569c-.629-.399-1.28-.609-2.036-.609-1.344 0-2.415.966-2.415 2.352 0 1.365 1.071 2.352 2.479 2.352.797 0 1.406-.168 2.078-.525l-.273 2.625c-.629.294-1.448.462-2.33.462-2.666 0-5.145-1.89-5.145-4.955 0-3.107 2.499-4.976 5.082-4.976 1.26 0 2.288.252 3.128.714l-.568 2.56zM227.931 33.309c-2.876 0-5.187-2.037-5.187-5.06s2.311-5.06 5.187-5.06c2.855 0 5.187 2.037 5.187 5.06s-2.332 5.06-5.187 5.06zm0-7.433c-1.155 0-2.142 1.008-2.142 2.415s.986 2.415 2.142 2.415c1.134 0 2.142-1.008 2.142-2.415s-1.009-2.415-2.142-2.415zM240.908 33.015v-1.302h-.021c-.378 1.008-1.386 1.575-2.919 1.575-2.078 0-3.338-1.155-3.338-3.17v-6.614h3.086v5.837c0 .693.483 1.302 1.428 1.302.924 0 1.491-.609 1.491-1.365v-5.774h3.087v9.511h-2.814zM251.724 33.015v-5.837c0-.693-.462-1.302-1.407-1.302-.924 0-1.512.588-1.512 1.344v5.795h-3.086v-9.511h2.834v1.281h.021c.378-1.008 1.365-1.575 2.897-1.575 2.079 0 3.339 1.176 3.339 3.191v6.614h-3.086zM263.021 26.023h-2.478v3.527c0 .819.44 1.155 1.26 1.155.356 0 .567-.021.798-.126l-.273 2.331c-.293.147-.818.252-1.428.252-2.141 0-3.422-1.134-3.422-3.023v-4.115h-1.596v-2.52h1.596v-2.037l3.065-1.113v3.149h3.065l-.587 2.52zM267.642 33.225c-1.302 0-2.247-.273-3.023-.672l-.272-2.729c.84.588 1.932 1.029 2.98 1.029.567 0 .924-.294.924-.651 0-.399-.314-.567-.86-.735-1.827-.525-2.919-1.449-2.919-3.107 0-1.869 1.512-3.065 3.57-3.065 1.176 0 2.33.315 2.812.567l-.524 2.268c-.462-.252-1.218-.525-1.974-.525-.504 0-.84.231-.84.609 0 .357.252.546.84.693 2.142.567 3.023 1.638 3.023 3.233 0 1.615-1.176 3.085-3.737 3.085z"/><g><path class="st0" d="M26.668 54.015v-5.837c0-.693-.336-1.302-1.344-1.302-.987 0-1.428.588-1.428 1.344v5.795H20.81v-5.837c0-.693-.336-1.302-1.344-1.302-.987 0-1.428.588-1.428 1.344v5.795h-3.086v-9.511h2.855v1.281h.021c.378-1.008 1.323-1.575 2.813-1.575 1.365 0 2.394.546 2.813 1.554.399-.924 1.512-1.554 2.939-1.554 2.163 0 3.359 1.176 3.359 3.191v6.614h-3.084zM38.429 54.435c-.567-.126-1.218-.567-1.47-1.26-.42.777-1.323 1.155-2.478 1.155-1.68 0-3.17-1.176-3.17-3.149 0-1.743 1.365-2.918 3.254-3.107l1.89-.189v-.315c0-.567-.462-.945-1.491-.945-.924 0-1.953.294-2.646.735l-.546-2.331c.777-.504 2.079-.84 3.338-.84 2.52 0 4.304 1.155 4.304 3.443v3.107c0 1.113.42 1.701 1.155 1.974l-2.14 1.722zm-1.973-4.578l-1.155.105c-.798.063-1.155.63-1.155 1.197 0 .504.378.924.966.924.735 0 1.344-.567 1.344-1.386v-.84z"/><path class="st0" d="M46.976 53.07c-1.449 3.821-2.96 5.207-4.745 5.9l-1.89-1.89c1.533-.588 2.708-1.701 3.485-3.716l-3.422-8.86h2.981l1.386 3.695c.21.546.42 1.197.567 1.869h.042c.189-.651.399-1.323.609-1.869l1.386-3.695h2.834l-3.233 8.566zM60.752 54.288c-2.016 0-3.653-.693-4.577-1.407V39.065h2.981v5.774c.399-.315 1.407-.63 2.394-.63 2.625 0 4.787 1.869 4.787 4.871 0 2.94-1.868 5.208-5.585 5.208zm.252-7.37c-.882 0-1.554.42-1.848.735v3.632c.315.231.966.462 1.554.462 1.575 0 2.562-1.071 2.562-2.457 0-1.322-.924-2.372-2.268-2.372zM76.585 48.724L75.22 50.11h-4.66c.147.777 1.197 1.659 2.813 1.659.987 0 1.995-.294 2.625-.714l-.294 2.645c-.714.378-1.806.63-3.023.63-2.897 0-5.228-2.016-5.228-5.123 0-3.065 2.226-5.018 4.955-5.018 2.646 0 4.262 1.827 4.262 3.8a4.009 4.009 0 0 1-.085.735zm-4.178-2.226c-.903 0-1.659.693-1.848 1.554h3.212c0-.063.021-.126.021-.21.001-.651-.566-1.344-1.385-1.344zM87.527 54.288c-2.016 0-3.653-.693-4.577-1.407V39.065h2.981v5.774c.399-.315 1.407-.63 2.394-.63 2.625 0 4.787 1.869 4.787 4.871 0 2.94-1.869 5.208-5.585 5.208zm.252-7.37c-.882 0-1.554.42-1.848.735v3.632c.315.231.966.462 1.554.462 1.575 0 2.562-1.071 2.562-2.457-.001-1.322-.924-2.372-2.268-2.372zM100.945 54.015v-1.302h-.021c-.378 1.008-1.386 1.575-2.918 1.575-2.079 0-3.338-1.155-3.338-3.17v-6.614h3.086v5.837c0 .693.483 1.302 1.428 1.302.924 0 1.491-.609 1.491-1.365v-5.774h3.086v9.511h-2.814zM105.251 54.015v-.588l2.373-4.262c.399-.693.84-1.491 1.26-2.121l-.021-.021h-3.233v-2.52h7.265v.588l-2.373 4.262c-.399.693-.798 1.407-1.26 2.1l.021.042h3.926v2.52h-7.958zM114.303 54.015v-.588l2.373-4.262c.399-.693.84-1.491 1.26-2.121l-.021-.021h-3.233v-2.52h7.265v.588l-2.373 4.262c-.399.693-.798 1.407-1.26 2.1l.021.042h3.926v2.52h-7.958zM125.411 43.202c-.546 0-1.659-1.113-1.659-1.659s1.113-1.638 1.659-1.638 1.659 1.092 1.659 1.638-1.113 1.659-1.659 1.659zm-1.554 10.813v-9.511h3.107v9.511h-3.107zM134.986 54.015v-5.837c0-.693-.462-1.302-1.407-1.302-.924 0-1.512.588-1.512 1.344v5.795h-3.086v-9.511h2.834v1.281h.021c.378-1.008 1.365-1.575 2.897-1.575 2.079 0 3.338 1.176 3.338 3.191v6.614h-3.085zM144.058 58.865c-2.771 0-4.619-1.575-4.619-3.569 0-1.449.966-2.31 1.953-2.562l-1.218-1.218c.084-.609.609-1.134 1.155-1.365a2.992 2.992 0 0 1-1.386-2.541c0-2.016 1.449-3.422 3.926-3.422.567 0 1.008.084 1.407.189.42.105.882.168 1.365.168.525 0 1.071-.126 1.491-.315l.567 2.352c-.294.168-.756.315-1.176.294.105.189.231.63.231.966 0 1.596-1.26 2.939-3.107 3.065-.378.021-.63.105-.63.357 0 .105.084.231.252.294l1.47.525c1.869.672 2.876 1.617 2.876 3.359-.001 1.953-1.785 3.423-4.557 3.423zm.651-4.472l-1.134-.315c-.735.021-1.281.546-1.281 1.239 0 .651.567 1.197 1.68 1.197 1.092 0 1.68-.504 1.68-1.05 0-.442-.336-.903-.945-1.071zm-.84-7.958c-.693 0-1.218.525-1.218 1.134 0 .63.525 1.134 1.218 1.134.672 0 1.218-.504 1.218-1.134 0-.609-.504-1.134-1.218-1.134zM161.404 54.435c-.567-.126-1.219-.567-1.471-1.26-.42.777-1.322 1.155-2.477 1.155-1.68 0-3.171-1.176-3.171-3.149 0-1.743 1.364-2.918 3.255-3.107l1.889-.189v-.315c0-.567-.461-.945-1.49-.945-.924 0-1.953.294-2.646.735l-.546-2.331c.777-.504 2.078-.84 3.338-.84 2.52 0 4.305 1.155 4.305 3.443v3.107c0 1.113.42 1.701 1.154 1.974l-2.14 1.722zm-1.974-4.578l-1.154.105c-.798.063-1.154.63-1.154 1.197 0 .504.377.924.965.924.735 0 1.344-.567 1.344-1.386v-.84zM167.83 54.393c-1.953-.084-3.255-1.092-3.255-3.38V39.065h3.044v11.569c0 .777.441 1.197 1.281 1.26l-1.07 2.499zM174.802 54.309c-2.876 0-5.187-2.037-5.187-5.06s2.311-5.06 5.187-5.06c2.855 0 5.187 2.037 5.187 5.06s-2.332 5.06-5.187 5.06zm0-7.433c-1.155 0-2.142 1.008-2.142 2.415s.986 2.415 2.142 2.415c1.134 0 2.142-1.008 2.142-2.415s-1.008-2.415-2.142-2.415zM187.548 54.015v-5.837c0-.693-.462-1.302-1.407-1.302-.924 0-1.512.588-1.512 1.344v5.795h-3.086v-9.511h2.834v1.281h.021c.378-1.008 1.365-1.575 2.897-1.575 2.079 0 3.339 1.176 3.339 3.191v6.614h-3.086zM196.62 58.865c-2.771 0-4.619-1.575-4.619-3.569 0-1.449.966-2.31 1.952-2.562l-1.217-1.218c.084-.609.608-1.134 1.154-1.365a2.992 2.992 0 0 1-1.386-2.541c0-2.016 1.448-3.422 3.927-3.422.566 0 1.008.084 1.406.189.42.105.882.168 1.365.168a3.78 3.78 0 0 0 1.49-.315l.566 2.352a2.322 2.322 0 0 1-1.176.294c.105.189.231.63.231.966 0 1.596-1.26 2.939-3.107 3.065-.378.021-.63.105-.63.357 0 .105.084.231.252.294l1.47.525c1.868.672 2.876 1.617 2.876 3.359.002 1.953-1.782 3.423-4.554 3.423zm.651-4.472l-1.135-.315c-.734.021-1.28.546-1.28 1.239 0 .651.567 1.197 1.68 1.197 1.092 0 1.68-.504 1.68-1.05 0-.442-.336-.903-.945-1.071zm-.839-7.958c-.693 0-1.219.525-1.219 1.134 0 .63.525 1.134 1.219 1.134.672 0 1.217-.504 1.217-1.134-.001-.609-.504-1.134-1.217-1.134zM203.572 54.309c-.567 0-1.743-1.176-1.743-1.743 0-.546 1.176-1.722 1.743-1.722.566 0 1.742 1.176 1.742 1.722 0 .567-1.175 1.743-1.742 1.743z"/></g></svg>