<svg id="Layer_1" xmlns="http://www.w3.org/2000/svg" width="300" height="250" viewBox="0 0 300 250"><style>.st0{fill:#231f20}</style><path class="st0" d="M21.038 32.015h-4.955V18.619h4.388c2.079 0 3.926 1.365 3.926 3.548 0 .798-.399 1.806-1.113 2.205 1.176.378 2.331 1.764 2.331 3.464 0 2.604-2.057 4.179-4.577 4.179zm-1.071-10.981h-.966v2.75h.966c.777 0 1.491-.399 1.491-1.365 0-.986-.714-1.385-1.491-1.385zm.525 5.102h-1.491v3.506h1.491c.987 0 1.995-.525 1.995-1.743 0-1.196-.987-1.763-1.995-1.763zM33.596 32.015v-1.302h-.021c-.378 1.008-1.386 1.575-2.918 1.575-2.079 0-3.338-1.155-3.338-3.17v-6.614h3.086v5.837c0 .693.483 1.302 1.428 1.302.924 0 1.491-.609 1.491-1.365v-5.774h3.086v9.511h-2.814zM44.789 25.023h-2.478v3.527c0 .819.441 1.155 1.26 1.155.357 0 .567-.021.798-.126l-.273 2.331c-.294.147-.819.252-1.428.252-2.142 0-3.422-1.134-3.422-3.023v-4.115H37.65v-2.52h1.596v-2.037l3.065-1.113v3.149h3.065l-.587 2.52zM52.812 21.202c-.546 0-1.659-1.113-1.659-1.659s1.113-1.638 1.659-1.638 1.659 1.092 1.659 1.638-1.114 1.659-1.659 1.659zm-1.554 10.813v-9.511h3.107v9.511h-3.107zM63.037 19.816a3.622 3.622 0 0 0-1.239-.252c-1.134 0-1.722.672-1.722 2.037v.903h2.729l-.609 2.52h-2.121v6.992h-2.981v-6.992h-1.449v-2.52h1.449v-1.113c0-2.897 1.869-4.325 4.262-4.325.882 0 1.764.105 2.247.315l-.566 2.435zM75.028 25.023H72.55v3.527c0 .819.441 1.155 1.26 1.155.357 0 .567-.021.798-.126l-.273 2.331c-.294.147-.819.252-1.428.252-2.142 0-3.422-1.134-3.422-3.023v-4.115H67.89v-2.52h1.596v-2.037l3.065-1.113v3.149h3.065l-.588 2.52zM82.735 32.015v-5.837c0-.693-.483-1.302-1.428-1.302-.924 0-1.491.588-1.491 1.344v5.795H76.73v-14.95h3.044v6.32h.021c.483-.735 1.365-1.176 2.688-1.176 2.1 0 3.338 1.176 3.338 3.191v6.614h-3.086zM96.489 26.724l-1.365 1.386h-4.661c.147.777 1.197 1.659 2.813 1.659.987 0 1.995-.294 2.625-.714l-.294 2.645c-.714.378-1.806.63-3.023.63-2.897 0-5.228-2.016-5.228-5.123 0-3.065 2.226-5.018 4.955-5.018 2.646 0 4.262 1.827 4.262 3.8 0 .231-.042.546-.084.735zm-4.178-2.226c-.903 0-1.659.693-1.848 1.554h3.212c0-.063.021-.126.021-.21.001-.651-.566-1.344-1.385-1.344zM103.567 31.07c-1.449 3.821-2.96 5.207-4.745 5.9l-1.89-1.89c1.533-.588 2.708-1.701 3.485-3.716l-3.422-8.86h2.981l1.386 3.695c.21.546.42 1.197.567 1.869h.042c.189-.651.399-1.323.609-1.869l1.386-3.695h2.834l-3.233 8.566zM123.18 32.099h-2.121l-1.281-3.779a40.349 40.349 0 0 1-.567-1.974h-.042a16.161 16.161 0 0 1-.525 1.953l-1.281 3.8h-2.016l-3.317-9.595h2.813l1.176 3.611c.168.546.357 1.218.462 1.827h.042c.105-.588.273-1.281.462-1.827l1.197-3.611h2.331l1.197 3.59c.189.588.315 1.239.441 1.848h.042c.126-.609.294-1.281.483-1.848l1.197-3.59h2.625l-3.318 9.595zM136.032 26.724l-1.365 1.386h-4.661c.147.777 1.197 1.659 2.813 1.659.987 0 1.995-.294 2.625-.714l-.294 2.645c-.714.378-1.806.63-3.023.63-2.897 0-5.228-2.016-5.228-5.123 0-3.065 2.226-5.018 4.955-5.018 2.646 0 4.262 1.827 4.262 3.8 0 .231-.042.546-.084.735zm-4.178-2.226c-.903 0-1.659.693-1.848 1.554h3.212c0-.063.021-.126.021-.21.001-.651-.566-1.344-1.385-1.344zM143.55 25.779a2.295 2.295 0 0 0-.924-.231c-.987 0-1.89.525-1.89 2.037v4.43h-3.086v-9.511h3.044v2.121h.021c.315-1.491 1.428-2.289 2.708-2.289.294 0 .651.042.882.126l-.755 3.317zM153.882 26.724l-1.364 1.386h-4.662c.147.777 1.197 1.659 2.814 1.659.986 0 1.994-.294 2.624-.714L153 31.7c-.714.378-1.806.63-3.023.63-2.897 0-5.228-2.016-5.228-5.123 0-3.065 2.226-5.018 4.955-5.018 2.646 0 4.262 1.827 4.262 3.8 0 .231-.042.546-.084.735zm-4.178-2.226c-.903 0-1.659.693-1.848 1.554h3.212c0-.063.021-.126.021-.21.001-.651-.567-1.344-1.385-1.344z"/><g><path class="st0" d="M26.413 53.099h-2.121l-1.281-3.779a40.349 40.349 0 0 1-.567-1.974h-.042a16.161 16.161 0 0 1-.525 1.953l-1.281 3.8H18.58l-3.317-9.595h2.813l1.176 3.611c.168.546.357 1.218.462 1.827h.042c.105-.588.273-1.281.462-1.827l1.197-3.611h2.331l1.197 3.59c.189.588.315 1.239.441 1.848h.042c.126-.609.294-1.281.483-1.848l1.197-3.59h2.625l-3.318 9.595zM35.276 53.309c-2.876 0-5.186-2.037-5.186-5.06s2.31-5.06 5.186-5.06c2.855 0 5.186 2.037 5.186 5.06s-2.331 5.06-5.186 5.06zm0-7.433c-1.155 0-2.142 1.008-2.142 2.415s.987 2.415 2.142 2.415c1.134 0 2.142-1.008 2.142-2.415s-1.008-2.415-2.142-2.415zM47.917 46.779a2.295 2.295 0 0 0-.924-.231c-.987 0-1.89.525-1.89 2.037v4.43h-3.086v-9.511h3.044v2.121h.021c.315-1.491 1.428-2.289 2.708-2.289.294 0 .651.042.882.126l-.755 3.317zM55.625 53.015l-2.813-3.842h-.022v3.842h-3.044v-14.95h3.044v9.301h.021l2.855-3.863h3.359l-3.338 4.619 3.527 4.892h-3.589zM61.82 42.202c-.546 0-1.659-1.113-1.659-1.659s1.113-1.638 1.659-1.638 1.659 1.092 1.659 1.638-1.113 1.659-1.659 1.659zm-1.553 10.813v-9.511h3.107v9.511h-3.107zM71.395 53.015v-5.837c0-.693-.462-1.302-1.407-1.302-.924 0-1.512.588-1.512 1.344v5.795H65.39v-9.511h2.834v1.281h.021c.378-1.008 1.365-1.575 2.897-1.575 2.079 0 3.338 1.176 3.338 3.191v6.614h-3.085zM80.467 57.865c-2.771 0-4.619-1.575-4.619-3.569 0-1.449.966-2.31 1.953-2.562l-1.218-1.218c.084-.609.609-1.134 1.155-1.365a2.992 2.992 0 0 1-1.386-2.541c0-2.016 1.449-3.422 3.926-3.422.567 0 1.008.084 1.407.189.42.105.882.168 1.365.168.525 0 1.071-.126 1.491-.315l.567 2.352c-.294.168-.756.315-1.176.294.105.189.231.63.231.966 0 1.596-1.26 2.939-3.107 3.065-.378.021-.63.105-.63.357 0 .105.084.231.252.294l1.47.525c1.869.672 2.876 1.617 2.876 3.359-.001 1.953-1.785 3.423-4.557 3.423zm.651-4.472l-1.134-.315c-.735.021-1.281.546-1.281 1.239 0 .651.567 1.197 1.68 1.197 1.092 0 1.68-.504 1.68-1.05 0-.442-.336-.903-.945-1.071zm-.84-7.958c-.693 0-1.218.525-1.218 1.134 0 .63.525 1.134 1.218 1.134.672 0 1.218-.504 1.218-1.134 0-.609-.504-1.134-1.218-1.134zM97.456 46.023h-2.478v3.527c0 .819.441 1.155 1.26 1.155.357 0 .567-.021.798-.126l-.273 2.331c-.294.147-.819.252-1.428.252-2.142 0-3.422-1.134-3.422-3.023v-4.115h-1.596v-2.52h1.596v-2.037l3.065-1.113v3.149h3.065l-.587 2.52zM103.693 53.309c-2.876 0-5.186-2.037-5.186-5.06s2.31-5.06 5.186-5.06c2.855 0 5.186 2.037 5.186 5.06s-2.331 5.06-5.186 5.06zm0-7.433c-1.155 0-2.142 1.008-2.142 2.415s.987 2.415 2.142 2.415c1.134 0 2.142-1.008 2.142-2.415s-1.008-2.415-2.142-2.415zM114.382 57.865c-2.771 0-4.619-1.575-4.619-3.569 0-1.449.966-2.31 1.953-2.562l-1.218-1.218c.084-.609.609-1.134 1.155-1.365a2.992 2.992 0 0 1-1.386-2.541c0-2.016 1.449-3.422 3.926-3.422.567 0 1.008.084 1.407.189.42.105.882.168 1.365.168.525 0 1.071-.126 1.491-.315l.567 2.352c-.294.168-.756.315-1.176.294.105.189.231.63.231.966 0 1.596-1.26 2.939-3.107 3.065-.378.021-.63.105-.63.357 0 .105.084.231.252.294l1.47.525c1.869.672 2.876 1.617 2.876 3.359-.001 1.953-1.786 3.423-4.557 3.423zm.651-4.472l-1.134-.315c-.735.021-1.281.546-1.281 1.239 0 .651.567 1.197 1.68 1.197 1.092 0 1.68-.504 1.68-1.05 0-.442-.336-.903-.945-1.071zm-.84-7.958c-.693 0-1.218.525-1.218 1.134 0 .63.525 1.134 1.218 1.134.672 0 1.218-.504 1.218-1.134 0-.609-.504-1.134-1.218-1.134zM128.871 47.724l-1.365 1.386h-4.661c.147.777 1.197 1.659 2.813 1.659.987 0 1.995-.294 2.625-.714l-.294 2.646c-.714.378-1.806.63-3.023.63-2.897 0-5.228-2.016-5.228-5.123 0-3.065 2.226-5.018 4.955-5.018 2.646 0 4.262 1.827 4.262 3.8 0 .23-.042.545-.084.734zm-4.179-2.226c-.903 0-1.659.693-1.848 1.554h3.212c0-.063.021-.126.021-.21.001-.651-.566-1.344-1.385-1.344zM136.914 46.023h-2.478v3.527c0 .819.441 1.155 1.26 1.155.357 0 .567-.021.798-.126l-.273 2.331c-.294.147-.819.252-1.428.252-2.142 0-3.422-1.134-3.422-3.023v-4.115h-1.596v-2.52h1.596v-2.037l3.065-1.113v3.149h3.065l-.587 2.52zM144.621 53.015v-5.837c0-.693-.483-1.302-1.428-1.302-.924 0-1.491.588-1.491 1.344v5.795h-3.086v-14.95h3.044v6.32h.021c.483-.735 1.365-1.176 2.688-1.176 2.1 0 3.338 1.176 3.338 3.191v6.614h-3.086zM158.375 47.724l-1.364 1.386h-4.661c.146.777 1.197 1.659 2.813 1.659.987 0 1.995-.294 2.624-.714l-.293 2.646c-.715.378-1.807.63-3.023.63-2.898 0-5.229-2.016-5.229-5.123 0-3.065 2.226-5.018 4.955-5.018 2.646 0 4.262 1.827 4.262 3.8 0 .23-.041.545-.084.734zm-4.178-2.226c-.902 0-1.658.693-1.848 1.554h3.213c0-.063.021-.126.021-.21 0-.651-.567-1.344-1.386-1.344zM165.895 46.779a2.295 2.295 0 0 0-.924-.231c-.987 0-1.891.525-1.891 2.037v4.43h-3.086v-9.511h3.045v2.121h.021c.315-1.491 1.428-2.289 2.708-2.289.295 0 .651.042.883.126l-.756 3.317z"/></g></svg>