<svg id="Layer_1" xmlns="http://www.w3.org/2000/svg" xmlns:xlink="http://www.w3.org/1999/xlink" width="300" height="250" viewBox="0 0 300 250"><style>.st0{clip-path:url(#SVGID_2_);fill:#f9e038}.st1{enable-background:new}</style><defs><path id="SVGID_1_" d="M145.302 130.177h147.052v33.661H145.302z"/></defs><clipPath id="SVGID_2_"><use xlink:href="#SVGID_1_" overflow="visible"/></clipPath><path class="st0" d="M165.302 137.178s-11 0-11 11v3.661s0 11 11 11h107.052s11 0 11-11v-3.661s0-11-11-11H165.302z"/><g class="st1"><path d="M180.654 152.754c-.499-.709-.719-1.597-.719-2.455 0-1.816.908-3.513 2.934-3.513.908 0 1.627.299 2.176 1.048.489.668.738 1.637.738 2.465 0 .778-.209 1.727-.648 2.375-.529.778-1.337 1.157-2.266 1.157-.928 0-1.676-.319-2.215-1.077zm1.178-3.883c-.16.409-.22.998-.22 1.428 0 .858.13 2.226 1.257 2.226.549 0 .849-.27 1.028-.779.159-.419.209-.987.209-1.437 0-.499-.05-1.088-.249-1.547s-.489-.669-.988-.669c-.549 0-.848.28-1.037.778zM188.407 153.731h-1.597v-6.846h2.575c.668 0 1.277 0 1.846.389.579.409.889.998.889 1.707 0 .648-.229 1.308-.738 1.736-.589.489-1.218.479-1.946.479h-1.028v2.535zm.899-3.782c.379 0 .698 0 .978-.299.15-.17.22-.39.22-.609 0-.27-.109-.549-.329-.719-.249-.189-.579-.189-.878-.189h-.889v1.816h.898zM194.595 148.213v1.387h2.595v1.288h-2.595v1.517h3.294v1.327h-4.891v-6.846h4.891v1.327h-3.294zM204.055 153.731h-1.367l-2.624-4.601h-.04v4.601h-1.237v-6.846h1.727l2.285 4.021h.02v-4.021h1.237v6.846zM214.004 153.731h-1.727l-.419-1.407h-2.216l-.429 1.407h-1.407l2.195-6.846h1.856l2.147 6.846zm-2.515-2.664l-.729-2.405-.729 2.405h1.458zM222.307 148.243h-1.717v5.488h-1.597v-5.488h-1.736v-1.357h5.05v1.357zM224.761 153.731h-1.597v-6.846h1.597v6.846zM231.767 153.731h-1.727l-.419-1.407h-2.216l-.429 1.407h-1.407l2.195-6.846h1.856l2.147 6.846zm-2.515-2.664l-.729-2.405-.729 2.405h1.458zM238.153 153.731h-1.727l-.419-1.407h-2.216l-.429 1.407h-1.407l2.195-6.846h1.856l2.147 6.846zm-2.514-2.664l-.729-2.405-.729 2.405h1.458zM243.521 153.731h-1.597v-6.846h1.597v6.846zM246.516 153.731h-1.597v-6.846h2.884c.609 0 1.228.01 1.757.35.559.369.868 1.037.868 1.706 0 .778-.449 1.497-1.188 1.767l1.267 3.023h-1.775l-1.048-2.704h-1.168v2.704zm0-3.881h.878c.329 0 .688.03.979-.14.259-.16.398-.479.398-.778a.857.857 0 0 0-.389-.699c-.27-.169-.729-.129-1.028-.129h-.838v1.746zM257.113 153.731h-1.727l-.419-1.407h-2.216l-.429 1.407h-1.407l2.195-6.846h1.856l2.147 6.846zm-2.514-2.664l-.729-2.405-.729 2.405h1.458z"/></g></svg>