<?xml version="1.0" encoding="utf-8"?>
<!-- Generator: Adobe Illustrator 24.0.0, SVG Export Plug-In . SVG Version: 6.00 Build 0)  -->
<svg version="1.1" id="Layer_1" xmlns="http://www.w3.org/2000/svg" xmlns:xlink="http://www.w3.org/1999/xlink" x="0px" y="0px"
	 viewBox="0 0 320 50" style="enable-background:new 0 0 320 50;" xml:space="preserve">
<style type="text/css">
	.st0{fill:#FFFFFF;}
</style>
<g>
	<path class="st0" d="M5.6,45.3L4.9,45c0.9-0.4,1.5-1,1.8-1.8c-0.2,0.2-0.4,0.3-0.7,0.3c-0.9,0-1.4-0.6-1.4-1.4
		c0-0.8,0.6-1.5,1.5-1.5c0.8,0,1.5,0.6,1.5,1.6C7.6,43.4,6.8,44.7,5.6,45.3z M6.1,41.2c-0.5,0-0.8,0.4-0.8,0.9
		c0,0.5,0.3,0.9,0.8,0.9c0.4,0,0.7-0.1,0.9-0.6c0-0.1,0-0.1,0-0.2C7,41.6,6.6,41.2,6.1,41.2z"/>
	<path class="st0" d="M9.2,45.3L8.5,45c0.9-0.4,1.5-1,1.8-1.8c-0.2,0.2-0.4,0.3-0.7,0.3c-0.9,0-1.4-0.6-1.4-1.4
		c0-0.8,0.6-1.5,1.5-1.5c0.8,0,1.5,0.6,1.5,1.6C11.2,43.4,10.4,44.7,9.2,45.3z M9.7,41.2c-0.5,0-0.8,0.4-0.8,0.9
		c0,0.5,0.3,0.9,0.8,0.9c0.4,0,0.7-0.1,0.9-0.6c0-0.1,0-0.1,0-0.2C10.6,41.6,10.2,41.2,9.7,41.2z"/>
	<path class="st0" d="M13.3,45.2c-0.8,0-1.5-0.6-1.5-1.6c0-1.2,0.9-2.5,2.1-3.1l0.6,0.3c-0.8,0.4-1.5,1-1.8,1.8
		c0.2-0.2,0.4-0.3,0.7-0.3c0.9,0,1.4,0.6,1.4,1.4C14.8,44.6,14.2,45.2,13.3,45.2z M13.3,42.9c-0.4,0-0.7,0.1-0.9,0.6
		c0,0.1,0,0.2,0,0.2c0,0.5,0.4,0.9,0.9,0.9s0.8-0.4,0.8-0.9C14.2,43.3,13.8,42.9,13.3,42.9z"/>
	<path class="st0" d="M16.9,45.2c-0.8,0-1.5-0.7-1.5-2.3c0-1.6,0.7-2.3,1.5-2.3c0.8,0,1.5,0.8,1.5,2.3
		C18.4,44.5,17.7,45.2,16.9,45.2z M16.9,41.1c-0.5,0-0.9,0.5-0.9,1.8c0,1.3,0.4,1.8,0.9,1.8c0.4,0,0.9-0.5,0.9-1.8
		C17.8,41.6,17.4,41.1,16.9,41.1z"/>
	<path class="st0" d="M19.6,45.1v-4l-0.8,0.1l0.1-0.5l1.3-0.1v4.5H19.6z"/>
	<path class="st0" d="M20.9,45.1V45c1-1.2,1.8-2.3,1.8-3c0-0.6-0.3-0.8-0.7-0.8c-0.3,0-0.6,0.1-0.9,0.3L21,40.9
		c0.3-0.2,0.6-0.3,1-0.3c0.8,0,1.4,0.5,1.4,1.4c0,0.9-0.8,1.8-1.4,2.6h1.7v0.5H20.9z"/>
</g>
</svg>
