<?xml version="1.0" encoding="utf-8"?>
<!-- Generator: Adobe Illustrator 24.0.0, SVG Export Plug-In . SVG Version: 6.00 Build 0)  -->
<svg version="1.1" id="Layer_1" xmlns="http://www.w3.org/2000/svg" xmlns:xlink="http://www.w3.org/1999/xlink" x="0px" y="0px"
	 viewBox="0 0 320 50" style="enable-background:new 0 0 320 50;" xml:space="preserve">
<style type="text/css">
	.st0{fill:#F9E039;}
</style>
<g>
	<path class="st0" d="M87.9,20l-2.2-3.3h-0.5V20h-1.9v-8.3h3c1.4,0,2.7,0.9,2.7,2.5c0,1-0.6,1.8-1.3,2.1l2.6,3.7H87.9z M85.9,13.4
		h-0.8v1.9h0.8c0.5,0,1-0.3,1-0.9C87,13.7,86.4,13.4,85.9,13.4z"/>
	<path class="st0" d="M95.7,16.8l-0.8,0.9h-2.9c0.1,0.5,0.7,1,1.7,1c0.6,0,1.2-0.2,1.6-0.4l-0.2,1.6c-0.4,0.2-1.1,0.4-1.9,0.4
		c-1.8,0-3.2-1.2-3.2-3.2c0-1.9,1.4-3.1,3.1-3.1c1.6,0,2.6,1.1,2.6,2.4C95.7,16.5,95.7,16.6,95.7,16.8z M93.1,15.4
		c-0.6,0-1,0.4-1.1,1h2c0,0,0-0.1,0-0.1C94,15.8,93.6,15.4,93.1,15.4z"/>
	<path class="st0" d="M100.7,20.3c-0.4-0.1-0.8-0.4-0.9-0.8c-0.3,0.5-0.8,0.7-1.5,0.7c-1,0-2-0.7-2-1.9c0-1.1,0.8-1.8,2-1.9l1.2-0.1
		V16c0-0.4-0.3-0.6-0.9-0.6c-0.6,0-1.2,0.2-1.6,0.5l-0.3-1.4c0.5-0.3,1.3-0.5,2.1-0.5c1.6,0,2.7,0.7,2.7,2.1V18
		c0,0.7,0.3,1.1,0.7,1.2L100.7,20.3z M99.4,17.5l-0.7,0.1c-0.5,0-0.7,0.4-0.7,0.7c0,0.3,0.2,0.6,0.6,0.6c0.5,0,0.8-0.4,0.8-0.9V17.5
		z"/>
	<path class="st0" d="M106.9,20v-0.7h0c-0.3,0.6-1,0.9-1.8,0.9c-1.4,0-2.8-1.1-2.8-3.1c0-1.9,1.4-3.1,3-3.1c0.6,0,1.3,0.2,1.5,0.4
		v-3.6h1.9V20H106.9z M106.7,16.2c-0.2-0.2-0.6-0.5-1.2-0.5c-0.8,0-1.4,0.6-1.4,1.5c0,0.8,0.6,1.5,1.4,1.5c0.6,0,0.9-0.3,1.2-0.6
		V16.2z"/>
	<path class="st0" d="M113.2,19.5c-0.9,2.4-1.8,3.2-2.9,3.7l-1.2-1.2c0.9-0.4,1.7-1.1,2.2-2.3l-2.1-5.5h1.8l0.9,2.3
		c0.1,0.3,0.3,0.7,0.4,1.2h0c0.1-0.4,0.2-0.8,0.4-1.2l0.9-2.3h1.8L113.2,19.5z"/>
	<path class="st0" d="M122.6,15.7H121v2.2c0,0.5,0.3,0.7,0.8,0.7c0.2,0,0.4,0,0.5-0.1l-0.2,1.4c-0.2,0.1-0.5,0.2-0.9,0.2
		c-1.3,0-2.1-0.7-2.1-1.9v-2.5h-1v-1.6h1v-1.3l1.9-0.7v2h1.9L122.6,15.7z"/>
	<path class="st0" d="M126.3,20.2c-1.8,0-3.2-1.3-3.2-3.1s1.4-3.1,3.2-3.1c1.8,0,3.2,1.3,3.2,3.1S128.1,20.2,126.3,20.2z
		 M126.3,15.6c-0.7,0-1.3,0.6-1.3,1.5s0.6,1.5,1.3,1.5c0.7,0,1.3-0.6,1.3-1.5S127,15.6,126.3,15.6z"/>
	<path class="st0" d="M135.8,23c-1.7,0-2.9-1-2.9-2.2c0-0.9,0.6-1.4,1.2-1.6l-0.8-0.8c0.1-0.4,0.4-0.7,0.7-0.8
		c-0.4-0.3-0.9-0.8-0.9-1.6c0-1.2,0.9-2.1,2.4-2.1c0.4,0,0.6,0.1,0.9,0.1c0.3,0.1,0.5,0.1,0.8,0.1c0.3,0,0.7-0.1,0.9-0.2l0.4,1.5
		c-0.2,0.1-0.5,0.2-0.7,0.2c0.1,0.1,0.1,0.4,0.1,0.6c0,1-0.8,1.8-1.9,1.9c-0.2,0-0.4,0.1-0.4,0.2c0,0.1,0.1,0.1,0.2,0.2l0.9,0.3
		c1.2,0.4,1.8,1,1.8,2.1C138.6,22.1,137.5,23,135.8,23z M136.2,20.3l-0.7-0.2c-0.5,0-0.8,0.3-0.8,0.8c0,0.4,0.4,0.7,1,0.7
		c0.7,0,1-0.3,1-0.6C136.8,20.7,136.6,20.4,136.2,20.3z M135.7,15.3c-0.4,0-0.8,0.3-0.8,0.7c0,0.4,0.3,0.7,0.8,0.7
		c0.4,0,0.8-0.3,0.8-0.7C136.4,15.7,136.1,15.3,135.7,15.3z"/>
	<path class="st0" d="M140.3,13.3c-0.3,0-1-0.7-1-1s0.7-1,1-1s1,0.7,1,1S140.6,13.3,140.3,13.3z M139.3,20v-5.9h1.9V20H139.3z"/>
	<path class="st0" d="M145.5,20.1h-1.4l-2.3-5.9h1.8l0.8,2.2c0.1,0.3,0.2,0.8,0.3,1.1h0c0.1-0.4,0.2-0.8,0.3-1.1l0.8-2.2h1.8
		L145.5,20.1z"/>
	<path class="st0" d="M153.5,16.8l-0.8,0.9h-2.9c0.1,0.5,0.7,1,1.7,1c0.6,0,1.2-0.2,1.6-0.4l-0.2,1.6c-0.4,0.2-1.1,0.4-1.9,0.4
		c-1.8,0-3.2-1.2-3.2-3.2c0-1.9,1.4-3.1,3.1-3.1c1.6,0,2.6,1.1,2.6,2.4C153.6,16.5,153.6,16.6,153.5,16.8z M151,15.4
		c-0.6,0-1,0.4-1.1,1h2c0,0,0-0.1,0-0.1C151.8,15.8,151.5,15.4,151,15.4z"/>
	<path class="st0" d="M160.8,19.5c-0.9,2.4-1.8,3.2-2.9,3.7l-1.2-1.2c0.9-0.4,1.7-1.1,2.2-2.3l-2.1-5.5h1.8l0.9,2.3
		c0.1,0.3,0.3,0.7,0.4,1.2h0c0.1-0.4,0.2-0.8,0.4-1.2l0.9-2.3h1.8L160.8,19.5z"/>
	<path class="st0" d="M166.1,20.2c-1.8,0-3.2-1.3-3.2-3.1s1.4-3.1,3.2-3.1c1.8,0,3.2,1.3,3.2,3.1S167.9,20.2,166.1,20.2z
		 M166.1,15.6c-0.7,0-1.3,0.6-1.3,1.5s0.6,1.5,1.3,1.5c0.7,0,1.3-0.6,1.3-1.5S166.8,15.6,166.1,15.6z"/>
	<path class="st0" d="M174,20v-0.8h0c-0.2,0.6-0.9,1-1.8,1c-1.3,0-2.1-0.7-2.1-2v-4.1h1.9v3.6c0,0.4,0.3,0.8,0.9,0.8
		c0.6,0,0.9-0.4,0.9-0.8v-3.6h1.9V20H174z"/>
	<path class="st0" d="M180.6,16.2c-0.1-0.1-0.4-0.1-0.6-0.1c-0.6,0-1.2,0.3-1.2,1.3V20h-1.9v-5.9h1.9v1.3h0c0.2-0.9,0.9-1.4,1.7-1.4
		c0.2,0,0.4,0,0.5,0.1L180.6,16.2z"/>
	<path class="st0" d="M188,16.2c-0.1-0.1-0.4-0.1-0.6-0.1c-0.6,0-1.2,0.3-1.2,1.3V20h-1.9v-5.9h1.9v1.3h0c0.2-0.9,0.9-1.4,1.7-1.4
		c0.2,0,0.4,0,0.5,0.1L188,16.2z"/>
	<path class="st0" d="M194.3,16.8l-0.8,0.9h-2.9c0.1,0.5,0.7,1,1.7,1c0.6,0,1.2-0.2,1.6-0.4l-0.2,1.6c-0.4,0.2-1.1,0.4-1.9,0.4
		c-1.8,0-3.2-1.2-3.2-3.2c0-1.9,1.4-3.1,3.1-3.1c1.6,0,2.6,1.1,2.6,2.4C194.4,16.5,194.3,16.6,194.3,16.8z M191.7,15.4
		c-0.6,0-1,0.4-1.1,1h2c0,0,0-0.1,0-0.1C192.6,15.8,192.2,15.4,191.7,15.4z"/>
	<path class="st0" d="M199.2,15.7h-1.5v2.2c0,0.5,0.3,0.7,0.8,0.7c0.2,0,0.4,0,0.5-0.1l-0.2,1.4c-0.2,0.1-0.5,0.2-0.9,0.2
		c-1.3,0-2.1-0.7-2.1-1.9v-2.5h-1v-1.6h1v-1.3l1.9-0.7v2h1.9L199.2,15.7z"/>
	<path class="st0" d="M201.1,13.3c-0.3,0-1-0.7-1-1s0.7-1,1-1c0.3,0,1,0.7,1,1S201.5,13.3,201.1,13.3z M200.2,20v-5.9h1.9V20H200.2z
		"/>
	<path class="st0" d="M206.9,16.2c-0.1-0.1-0.4-0.1-0.6-0.1c-0.6,0-1.2,0.3-1.2,1.3V20h-1.9v-5.9h1.9v1.3h0c0.2-0.9,0.9-1.4,1.7-1.4
		c0.2,0,0.4,0,0.5,0.1L206.9,16.2z"/>
	<path class="st0" d="M213.2,16.8l-0.8,0.9h-2.9c0.1,0.5,0.7,1,1.7,1c0.6,0,1.2-0.2,1.6-0.4l-0.2,1.6c-0.4,0.2-1.1,0.4-1.9,0.4
		c-1.8,0-3.2-1.2-3.2-3.2c0-1.9,1.4-3.1,3.1-3.1c1.6,0,2.6,1.1,2.6,2.4C213.2,16.5,213.2,16.6,213.2,16.8z M210.6,15.4
		c-0.6,0-1,0.4-1.1,1h2c0,0,0-0.1,0-0.1C211.5,15.8,211.1,15.4,210.6,15.4z"/>
	<path class="st0" d="M221.3,20v-3.6c0-0.4-0.2-0.8-0.8-0.8c-0.6,0-0.9,0.4-0.9,0.8V20h-1.9v-3.6c0-0.4-0.2-0.8-0.8-0.8
		c-0.6,0-0.9,0.4-0.9,0.8V20h-1.9v-5.9h1.8v0.8h0c0.2-0.6,0.8-1,1.7-1c0.8,0,1.5,0.3,1.7,1c0.2-0.6,0.9-1,1.8-1c1.3,0,2.1,0.7,2.1,2
		V20H221.3z"/>
	<path class="st0" d="M229.8,16.8l-0.8,0.9H226c0.1,0.5,0.7,1,1.7,1c0.6,0,1.2-0.2,1.6-0.4l-0.2,1.6c-0.4,0.2-1.1,0.4-1.9,0.4
		c-1.8,0-3.2-1.2-3.2-3.2c0-1.9,1.4-3.1,3.1-3.1c1.6,0,2.6,1.1,2.6,2.4C229.8,16.5,229.8,16.6,229.8,16.8z M227.2,15.4
		c-0.6,0-1,0.4-1.1,1h2c0,0,0-0.1,0-0.1C228,15.8,227.7,15.4,227.2,15.4z"/>
	<path class="st0" d="M234.4,20v-3.6c0-0.4-0.3-0.8-0.9-0.8c-0.6,0-0.9,0.4-0.9,0.8V20h-1.9v-5.9h1.8v0.8h0c0.2-0.6,0.8-1,1.8-1
		c1.3,0,2.1,0.7,2.1,2V20H234.4z"/>
	<path class="st0" d="M241.3,15.7h-1.5v2.2c0,0.5,0.3,0.7,0.8,0.7c0.2,0,0.4,0,0.5-0.1l-0.2,1.4c-0.2,0.1-0.5,0.2-0.9,0.2
		c-1.3,0-2.1-0.7-2.1-1.9v-2.5h-1v-1.6h1v-1.3l1.9-0.7v2h1.9L241.3,15.7z"/>
</g>
<g>
	<path class="st0" d="M103.9,34.2c-0.8,0-1.4-0.2-1.9-0.4l-0.2-1.7c0.5,0.4,1.2,0.6,1.8,0.6c0.4,0,0.6-0.2,0.6-0.4
		c0-0.2-0.2-0.4-0.5-0.5c-1.1-0.3-1.8-0.9-1.8-1.9c0-1.2,0.9-1.9,2.2-1.9c0.7,0,1.4,0.2,1.7,0.4l-0.3,1.4c-0.3-0.2-0.8-0.3-1.2-0.3
		c-0.3,0-0.5,0.1-0.5,0.4c0,0.2,0.2,0.3,0.5,0.4c1.3,0.4,1.9,1,1.9,2C106.2,33.3,105.5,34.2,103.9,34.2z"/>
	<path class="st0" d="M111.2,34.3c-0.4-0.1-0.8-0.4-0.9-0.8c-0.3,0.5-0.8,0.7-1.5,0.7c-1,0-2-0.7-2-2c0-1.1,0.8-1.8,2-1.9l1.2-0.1
		V30c0-0.4-0.3-0.6-0.9-0.6c-0.6,0-1.2,0.2-1.6,0.5l-0.3-1.4c0.5-0.3,1.3-0.5,2.1-0.5c1.6,0,2.7,0.7,2.7,2.1V32
		c0,0.7,0.3,1.1,0.7,1.2L111.2,34.3z M110,31.5l-0.7,0.1c-0.5,0-0.7,0.4-0.7,0.7c0,0.3,0.2,0.6,0.6,0.6c0.5,0,0.8-0.4,0.8-0.9V31.5z
		"/>
	<path class="st0" d="M116,34.1h-1.4l-2.3-5.9h1.8l0.8,2.2c0.1,0.3,0.2,0.8,0.3,1.1h0c0.1-0.4,0.2-0.8,0.3-1.1l0.8-2.2h1.8L116,34.1
		z"/>
	<path class="st0" d="M119.9,27.3c-0.3,0-1-0.7-1-1c0-0.3,0.7-1,1-1s1,0.7,1,1C120.9,26.7,120.2,27.3,119.9,27.3z M118.9,34v-5.9
		h1.9V34H118.9z"/>
	<path class="st0" d="M125.7,34v-3.6c0-0.4-0.3-0.8-0.9-0.8c-0.6,0-0.9,0.4-0.9,0.8V34H122v-5.9h1.8v0.8h0c0.2-0.6,0.8-1,1.8-1
		c1.3,0,2.1,0.7,2.1,2V34H125.7z"/>
	<path class="st0" d="M131.2,37c-1.7,0-2.9-1-2.9-2.2c0-0.9,0.6-1.4,1.2-1.6l-0.8-0.8c0.1-0.4,0.4-0.7,0.7-0.8
		c-0.4-0.3-0.9-0.8-0.9-1.6c0-1.2,0.9-2.1,2.4-2.1c0.4,0,0.6,0.1,0.9,0.1c0.3,0.1,0.5,0.1,0.8,0.1c0.3,0,0.7-0.1,0.9-0.2l0.4,1.5
		c-0.2,0.1-0.5,0.2-0.7,0.2c0.1,0.1,0.1,0.4,0.1,0.6c0,1-0.8,1.8-1.9,1.9c-0.2,0-0.4,0.1-0.4,0.2c0,0.1,0.1,0.1,0.2,0.2l0.9,0.3
		c1.2,0.4,1.8,1,1.8,2.1C134,36.1,132.9,37,131.2,37z M131.6,34.3l-0.7-0.2c-0.5,0-0.8,0.3-0.8,0.8c0,0.4,0.4,0.7,1,0.7
		c0.7,0,1-0.3,1-0.6C132.2,34.7,132,34.4,131.6,34.3z M131.1,29.3c-0.4,0-0.8,0.3-0.8,0.7c0,0.4,0.3,0.7,0.8,0.7
		c0.4,0,0.8-0.3,0.8-0.7C131.9,29.7,131.5,29.3,131.1,29.3z"/>
	<path class="st0" d="M136.6,34.2c-0.8,0-1.4-0.2-1.9-0.4l-0.2-1.7c0.5,0.4,1.2,0.6,1.8,0.6c0.4,0,0.6-0.2,0.6-0.4
		c0-0.2-0.2-0.4-0.5-0.5c-1.1-0.3-1.8-0.9-1.8-1.9c0-1.2,0.9-1.9,2.2-1.9c0.7,0,1.4,0.2,1.7,0.4l-0.3,1.4c-0.3-0.2-0.8-0.3-1.2-0.3
		c-0.3,0-0.5,0.1-0.5,0.4c0,0.2,0.2,0.3,0.5,0.4c1.3,0.4,1.9,1,1.9,2C138.9,33.3,138.2,34.2,136.6,34.2z"/>
	<path class="st0" d="M146.7,34.3c-0.4-0.1-0.8-0.4-0.9-0.8c-0.3,0.5-0.8,0.7-1.5,0.7c-1,0-2-0.7-2-2c0-1.1,0.8-1.8,2-1.9l1.2-0.1
		V30c0-0.4-0.3-0.6-0.9-0.6c-0.6,0-1.2,0.2-1.6,0.5l-0.3-1.4c0.5-0.3,1.3-0.5,2.1-0.5c1.6,0,2.7,0.7,2.7,2.1V32
		c0,0.7,0.3,1.1,0.7,1.2L146.7,34.3z M145.5,31.5l-0.7,0.1c-0.5,0-0.7,0.4-0.7,0.7c0,0.3,0.2,0.6,0.6,0.6c0.5,0,0.8-0.4,0.8-0.9
		V31.5z"/>
	<path class="st0" d="M157.9,34.1h-1.3l-0.8-2.3c-0.1-0.4-0.2-0.8-0.4-1.2h0c-0.1,0.4-0.2,0.9-0.3,1.2l-0.8,2.4H153l-2.1-5.9h1.7
		l0.7,2.2c0.1,0.3,0.2,0.8,0.3,1.1h0c0.1-0.4,0.2-0.8,0.3-1.1l0.7-2.2h1.4l0.7,2.2c0.1,0.4,0.2,0.8,0.3,1.1h0
		c0.1-0.4,0.2-0.8,0.3-1.1l0.7-2.2h1.6L157.9,34.1z"/>
	<path class="st0" d="M164.6,34.3c-0.4-0.1-0.8-0.4-0.9-0.8c-0.3,0.5-0.8,0.7-1.5,0.7c-1,0-2-0.7-2-2c0-1.1,0.8-1.8,2-1.9l1.2-0.1
		V30c0-0.4-0.3-0.6-0.9-0.6c-0.6,0-1.2,0.2-1.6,0.5l-0.3-1.4c0.5-0.3,1.3-0.5,2.1-0.5c1.6,0,2.7,0.7,2.7,2.1V32
		c0,0.7,0.3,1.1,0.7,1.2L164.6,34.3z M163.4,31.5l-0.7,0.1c-0.5,0-0.7,0.4-0.7,0.7c0,0.3,0.2,0.6,0.6,0.6c0.5,0,0.8-0.4,0.8-0.9
		V31.5z"/>
	<path class="st0" d="M170.2,34l-1.7-2.4h0V34h-1.9v-9.3h1.9v5.8h0l1.8-2.4h2.1l-2.1,2.9l2.2,3H170.2z"/>
	<path class="st0" d="M178.1,30.8l-0.8,0.9h-2.9c0.1,0.5,0.7,1,1.7,1c0.6,0,1.2-0.2,1.6-0.4l-0.2,1.6c-0.4,0.2-1.1,0.4-1.9,0.4
		c-1.8,0-3.2-1.2-3.2-3.2c0-1.9,1.4-3.1,3.1-3.1c1.6,0,2.6,1.1,2.6,2.4C178.1,30.5,178.1,30.6,178.1,30.8z M175.5,29.4
		c-0.6,0-1,0.4-1.1,1h2c0,0,0-0.1,0-0.1C176.3,29.8,176,29.4,175.5,29.4z"/>
	<path class="st0" d="M178.9,31.2v-1.5h3.4v1.5H178.9z"/>
	<path class="st0" d="M187.3,34v-0.8h0c-0.2,0.6-0.9,1-1.8,1c-1.3,0-2.1-0.7-2.1-2v-4.1h1.9v3.6c0,0.4,0.3,0.8,0.9,0.8
		c0.6,0,0.9-0.4,0.9-0.8v-3.6h1.9V34H187.3z"/>
	<path class="st0" d="M193.5,34.2c-0.6,0-1.3-0.2-1.5-0.4V37h-1.9v-8.9h1.7v0.7h0c0.3-0.6,1-0.9,1.8-0.9c1.4,0,2.8,1.1,2.8,3.1
		C196.5,33,195.2,34.2,193.5,34.2z M193.2,29.6c-0.6,0-0.9,0.3-1.2,0.6v1.8c0.2,0.2,0.6,0.5,1.2,0.5c0.8,0,1.4-0.6,1.4-1.5
		C194.6,30.3,194,29.6,193.2,29.6z"/>
	<path class="st0" d="M204.6,30c-0.4-0.2-0.8-0.4-1.3-0.4c-0.8,0-1.5,0.6-1.5,1.5c0,0.8,0.7,1.5,1.5,1.5c0.5,0,0.9-0.1,1.3-0.3
		l-0.2,1.6c-0.4,0.2-0.9,0.3-1.4,0.3c-1.7,0-3.2-1.2-3.2-3.1c0-1.9,1.5-3.1,3.1-3.1c0.8,0,1.4,0.2,1.9,0.4L204.6,30z"/>
	<path class="st0" d="M209.9,34.3c-0.4-0.1-0.8-0.4-0.9-0.8c-0.3,0.5-0.8,0.7-1.5,0.7c-1,0-2-0.7-2-2c0-1.1,0.8-1.8,2-1.9l1.2-0.1
		V30c0-0.4-0.3-0.6-0.9-0.6c-0.6,0-1.2,0.2-1.6,0.5l-0.3-1.4c0.5-0.3,1.3-0.5,2.1-0.5c1.6,0,2.7,0.7,2.7,2.1V32
		c0,0.7,0.3,1.1,0.7,1.2L209.9,34.3z M208.7,31.5l-0.7,0.1c-0.5,0-0.7,0.4-0.7,0.7c0,0.3,0.2,0.6,0.6,0.6c0.5,0,0.8-0.4,0.8-0.9
		V31.5z"/>
	<path class="st0" d="M213.8,34.3c-1.2-0.1-2-0.7-2-2.1v-7.4h1.9v7.2c0,0.5,0.3,0.7,0.8,0.8L213.8,34.3z"/>
	<path class="st0" d="M217.1,34.3c-1.2-0.1-2-0.7-2-2.1v-7.4h1.9v7.2c0,0.5,0.3,0.7,0.8,0.8L217.1,34.3z"/>
	<path class="st0" d="M221.2,30c-0.3,0.4-0.5,0.7-0.5,1c0,0.2,0,0.4,0.1,0.6l-1.6-0.3c-0.1-0.3-0.1-0.5-0.1-0.7
		c0-0.7,0.3-1.3,0.8-1.8c0.3-0.4,0.5-0.6,0.5-1c0-0.3-0.3-0.6-0.7-0.6c-0.5,0-0.9,0.2-1.3,0.4l-0.4-1.6c0.5-0.3,1.1-0.5,1.9-0.5
		c1.5,0,2.5,0.9,2.5,2.2C222.3,28.5,222,29.1,221.2,30z M220.1,34.2c-0.4,0-1.1-0.7-1.1-1.1c0-0.3,0.7-1.1,1.1-1.1
		c0.4,0,1.1,0.7,1.1,1.1C221.1,33.5,220.4,34.2,220.1,34.2z"/>
</g>
</svg>
