<?xml version="1.0" encoding="utf-8"?>
<!-- Generator: Adobe Illustrator 24.0.0, SVG Export Plug-In . SVG Version: 6.00 Build 0)  -->
<svg version="1.1" id="Layer_1" xmlns="http://www.w3.org/2000/svg" xmlns:xlink="http://www.w3.org/1999/xlink" x="0px" y="0px"
	 viewBox="0 0 320 50" style="enable-background:new 0 0 320 50;" xml:space="preserve">
<style type="text/css">
	.st0{fill:#3ABFEF;}
</style>
<path class="st0" d="M238.4,28.1c-4.2,0-7.6,3.4-7.6,7.6v2c0,4.2,3.4,7.6,7.6,7.6h69c4.2,0,7.6-3.4,7.6-7.6v-2
	c0-4.2-3.4-7.6-7.6-7.6H238.4z"/>
<g>
	<path d="M240.4,37.1v-1h2.1v2.8H242l-0.2-0.6c-0.4,0.5-0.8,0.7-1.4,0.7c-1.5,0-2.1-1.3-2.1-2.6c0-1.4,0.7-2.7,2.3-2.7
		c1.1,0,1.9,0.7,2,1.8l-1.2,0.2c-0.1-0.5-0.3-1-0.9-1c-0.9,0-1,1.1-1,1.8c0,0.7,0.2,1.6,1,1.6c0.5,0,0.9-0.4,0.9-0.9H240.4z"/>
	<path d="M243.9,38.1c-0.4-0.5-0.5-1.2-0.5-1.9c0-1.4,0.7-2.7,2.2-2.7c0.7,0,1.2,0.2,1.7,0.8c0.4,0.5,0.6,1.2,0.6,1.9
		c0,0.6-0.2,1.3-0.5,1.8c-0.4,0.6-1,0.9-1.7,0.9C244.9,38.9,244.3,38.7,243.9,38.1z M244.8,35.2c-0.1,0.3-0.2,0.8-0.2,1.1
		c0,0.7,0.1,1.7,1,1.7c0.4,0,0.6-0.2,0.8-0.6c0.1-0.3,0.2-0.7,0.2-1.1c0-0.4,0-0.8-0.2-1.2c-0.2-0.3-0.4-0.5-0.8-0.5
		C245.1,34.6,244.9,34.8,244.8,35.2z"/>
	<path d="M254.1,34.7h-1.3v4.2h-1.2v-4.2h-1.3v-1h3.8V34.7z"/>
	<path d="M255.1,38.1c-0.4-0.5-0.5-1.2-0.5-1.9c0-1.4,0.7-2.7,2.2-2.7c0.7,0,1.2,0.2,1.7,0.8c0.4,0.5,0.6,1.2,0.6,1.9
		c0,0.6-0.2,1.3-0.5,1.8c-0.4,0.6-1,0.9-1.7,0.9C256.1,38.9,255.5,38.7,255.1,38.1z M256,35.2c-0.1,0.3-0.2,0.8-0.2,1.1
		c0,0.7,0.1,1.7,1,1.7c0.4,0,0.6-0.2,0.8-0.6c0.1-0.3,0.2-0.7,0.2-1.1c0-0.4,0-0.8-0.2-1.2c-0.2-0.3-0.4-0.5-0.8-0.5
		C256.3,34.6,256.1,34.8,256,35.2z"/>
	<path d="M264.8,35.7c0-0.6-0.2-1.1-0.9-1.1c-0.9,0-0.9,1.1-0.9,1.7c0,0.7,0.1,1.6,1,1.6c0.6,0,0.8-0.5,0.9-1l1.2,0.1
		c-0.1,1.2-0.9,1.9-2.1,1.9c-1.5,0-2.3-1.3-2.3-2.7c0-1.4,0.8-2.7,2.3-2.7c1.3,0,2,0.8,2.1,2L264.8,35.7z"/>
	<path d="M271.1,38.9h-1.3l-0.3-1.1h-1.7l-0.3,1.1h-1.1l1.7-5.2h1.4L271.1,38.9z M269.2,36.8l-0.6-1.8l-0.6,1.8H269.2z"/>
	<path d="M275,37.8v1h-3.3v-5.2h1.2v4.2H275z"/>
	<path d="M278.5,35.7c0-0.6-0.2-1.1-0.9-1.1c-0.9,0-0.9,1.1-0.9,1.7c0,0.7,0.1,1.6,1,1.6c0.6,0,0.8-0.5,0.9-1l1.2,0.1
		c-0.1,1.2-0.9,1.9-2.1,1.9c-1.5,0-2.3-1.3-2.3-2.7c0-1.4,0.8-2.7,2.3-2.7c1.3,0,2,0.8,2.1,2L278.5,35.7z"/>
	<path d="M284.7,36.8c0,0.6,0,1.2-0.4,1.6c-0.4,0.4-1,0.5-1.6,0.5c-0.5,0-1.2-0.1-1.6-0.4c-0.5-0.4-0.5-1-0.5-1.7v-3.1h1.3v3.1
		c0,0.2,0,0.6,0.1,0.8c0.2,0.3,0.5,0.3,0.8,0.3c0.2,0,0.6-0.1,0.7-0.3c0.2-0.2,0.1-0.6,0.1-0.9v-3.1h1V36.8z"/>
	<path d="M289,37.8v1h-3.3v-5.2h1.2v4.2H289z"/>
	<path d="M294,38.9h-1.3l-0.3-1.1h-1.7l-0.3,1.1h-1.1l1.7-5.2h1.4L294,38.9z M292.1,36.8l-0.6-1.8l-0.6,1.8H292.1z"/>
	<path d="M297.7,34.7h-1.3v4.2h-1.2v-4.2h-1.3v-1h3.8V34.7z"/>
	<path d="M298.6,38.1c-0.4-0.5-0.5-1.2-0.5-1.9c0-1.4,0.7-2.7,2.2-2.7c0.7,0,1.2,0.2,1.7,0.8c0.4,0.5,0.6,1.2,0.6,1.9
		c0,0.6-0.2,1.3-0.5,1.8c-0.4,0.6-1,0.9-1.7,0.9S299,38.7,298.6,38.1z M299.5,35.2c-0.1,0.3-0.2,0.8-0.2,1.1c0,0.7,0.1,1.7,1,1.7
		c0.4,0,0.6-0.2,0.8-0.6c0.1-0.3,0.2-0.7,0.2-1.1c0-0.4,0-0.8-0.2-1.2c-0.2-0.3-0.4-0.5-0.7-0.5C299.9,34.6,299.7,34.8,299.5,35.2z"
		/>
	<path d="M304.6,38.9h-1.2v-5.2h2.2c0.5,0,0.9,0,1.3,0.3c0.4,0.3,0.7,0.8,0.7,1.3c0,0.6-0.3,1.1-0.9,1.3l1,2.3h-1.3l-0.8-2.1h-0.9
		V38.9z M304.6,35.9h0.7c0.2,0,0.5,0,0.7-0.1c0.2-0.1,0.3-0.4,0.3-0.6c0-0.2-0.1-0.4-0.3-0.5c-0.2-0.1-0.6-0.1-0.8-0.1h-0.6V35.9z"
		/>
</g>
</svg>
