<?xml version="1.0" encoding="utf-8"?>
<!-- Generator: Adobe Illustrator 24.0.0, SVG Export Plug-In . SVG Version: 6.00 Build 0)  -->
<svg version="1.1" id="Layer_1" xmlns="http://www.w3.org/2000/svg" xmlns:xlink="http://www.w3.org/1999/xlink" x="0px" y="0px"
	 viewBox="0 0 320 50" style="enable-background:new 0 0 320 50;" xml:space="preserve">
<style type="text/css">
	.st0{fill:#FFFFFF;}
	.st1{clip-path:url(#SVGID_2_);fill:#FFFFFF;}
	.st2{clip-path:url(#SVGID_4_);fill:url(#SVGID_5_);}
	.st3{clip-path:url(#SVGID_7_);fill:url(#SVGID_8_);}
	.st4{clip-path:url(#SVGID_10_);fill:url(#SVGID_11_);}
</style>
<path class="st0" d="M292.6,9.6v1.7h-3v8h-1.9v-8h-3V9.6H292.6z M293.4,19.3h1.9v-4.8V9.6h-1.9v4.8V19.3z M304.9,19.3H303l-1-2.4
	h-3.3l-1,2.4h-1.9l4.1-9.8h0.8L304.9,19.3z M314,19.3h-1.9l-1-2.4h-3.3l-1,2.4h-1.9l4.1-9.8h0.8L314,19.3z M301.4,15.3l-1-2.4
	l-1,2.4H301.4z M310.4,15.3l-1-2.4l-1,2.4H310.4z"/>
<g>
	<defs>
		<rect id="SVGID_1_" x="269.5" y="7.2" width="45.6" height="15.3"/>
	</defs>
	<clipPath id="SVGID_2_">
		<use xlink:href="#SVGID_1_"  style="overflow:visible;"/>
	</clipPath>
	<path class="st1" d="M278,19.9c0.8,0,1.6-0.3,2.1-0.9l2.3-2.3c0.5-0.5,0.9-1.3,0.9-2.1V7.5h-7.1c-0.8,0-1.6,0.3-2.1,0.9l-2.3,2.3
		c-0.5,0.5-0.9,1.3-0.9,2.1v7.2H278z"/>
</g>
<g>
	<defs>
		<path id="SVGID_3_" d="M277,8.1c-1.3,0-2.3,1-2.4,2.3v0.8h4.9v4.9h0.8c1.3,0,2.4-1.1,2.4-2.4V8.1H277z"/>
	</defs>
	<clipPath id="SVGID_4_">
		<use xlink:href="#SVGID_3_"  style="overflow:visible;"/>
	</clipPath>
	
		<linearGradient id="SVGID_5_" gradientUnits="userSpaceOnUse" x1="-0.7235" y1="52.1384" x2="0.2765" y2="52.1384" gradientTransform="matrix(5.5842 -5.5842 -5.5842 -5.5842 572.2417 300.7926)">
		<stop  offset="0" style="stop-color:#9EDCF9"/>
		<stop  offset="0.1" style="stop-color:#9EDCF9"/>
		<stop  offset="0.9" style="stop-color:#079DD9"/>
		<stop  offset="1" style="stop-color:#079DD9"/>
	</linearGradient>
	<polygon class="st2" points="270.6,12.1 278.6,4.1 286.6,12.1 278.6,20.1 	"/>
</g>
<g>
	<defs>
		<path id="SVGID_6_" d="M280.3,16.8H274l-2.5,2.5h6.5c0.6,0,1.2-0.3,1.7-0.7l2.1-2.1l-0.1-0.1C281.3,16.6,280.8,16.8,280.3,16.8"/>
	</defs>
	<clipPath id="SVGID_7_">
		<use xlink:href="#SVGID_6_"  style="overflow:visible;"/>
	</clipPath>
	
		<linearGradient id="SVGID_8_" gradientUnits="userSpaceOnUse" x1="-0.5523" y1="50.6826" x2="0.4477" y2="50.6826" gradientTransform="matrix(10.2954 0 0 -10.2954 277.156 539.6268)">
		<stop  offset="0" style="stop-color:#17B0E6"/>
		<stop  offset="0.1144" style="stop-color:#18ACE2"/>
		<stop  offset="0.264" style="stop-color:#16A1D7"/>
		<stop  offset="0.4332" style="stop-color:#1290C7"/>
		<stop  offset="0.6169" style="stop-color:#0D7AB4"/>
		<stop  offset="0.81" style="stop-color:#00619F"/>
		<stop  offset="0.9" style="stop-color:#005595"/>
		<stop  offset="1" style="stop-color:#005595"/>
	</linearGradient>
	<rect x="271.5" y="16.4" class="st3" width="10.3" height="2.9"/>
</g>
<g>
	<defs>
		<path id="SVGID_9_" d="M272.2,11.1c-0.5,0.4-0.7,1-0.7,1.7v6.5l2.5-2.5v-6.3c0-0.5,0.1-1,0.4-1.4L274.3,9L272.2,11.1z"/>
	</defs>
	<clipPath id="SVGID_10_">
		<use xlink:href="#SVGID_9_"  style="overflow:visible;"/>
	</clipPath>
	
		<linearGradient id="SVGID_11_" gradientUnits="userSpaceOnUse" x1="0.6827" y1="52.5523" x2="1.6826" y2="52.5523" gradientTransform="matrix(0 -10.2956 -10.2956 0 813.962 26.2902)">
		<stop  offset="0" style="stop-color:#0582BE"/>
		<stop  offset="0.2191" style="stop-color:#0478B4"/>
		<stop  offset="0.6535" style="stop-color:#00609E"/>
		<stop  offset="0.85" style="stop-color:#005595"/>
		<stop  offset="1" style="stop-color:#005595"/>
	</linearGradient>
	<rect x="271.5" y="9" class="st4" width="2.9" height="10.3"/>
</g>
</svg>
