<svg xmlns="http://www.w3.org/2000/svg" width="320" height="50" viewBox="-20 0 320 50"><g fill="#231F20"><path d="M274.979 45.496c-.695 0-1.301-.486-1.301-1.386 0-1.02.749-2.11 1.774-2.639l.54.252c-.72.36-1.283.869-1.565 1.535a.81.81 0 0 1 .594-.246c.731 0 1.229.546 1.229 1.235 0 .721-.539 1.249-1.271 1.249zm.005-1.979c-.3 0-.635.114-.743.534-.007.065-.007.132-.007.197 0 .432.36.792.756.792s.708-.306.708-.762c0-.431-.294-.761-.714-.761zM278.146 45.502c-.695 0-1.307-.636-1.307-1.991 0-1.343.611-1.985 1.307-1.985.684 0 1.308.643 1.308 1.985 0 1.355-.624 1.991-1.308 1.991zm0-3.49c-.39 0-.756.42-.756 1.499 0 1.092.366 1.505.756 1.505.385 0 .756-.413.756-1.505 0-1.079-.371-1.499-.756-1.499zM280.984 45.496c-.293 0-.569-.066-.725-.15l-.061-.54c.24.145.492.21.756.21.443 0 .821-.281.821-.762 0-.491-.378-.785-.804-.785-.281 0-.479.036-.659.102l.06-1.967h1.674l-.103.468h-1.05l-.023.93c.048-.006.107-.012.156-.012.713 0 1.301.479 1.301 1.271.001.659-.461 1.235-1.343 1.235zM283.589 45.55l-.54-.252c.732-.366 1.302-.863 1.578-1.535a.83.83 0 0 1-.606.246c-.731 0-1.229-.546-1.229-1.235 0-.72.54-1.248 1.271-1.248.695 0 1.302.486 1.302 1.386-.001 1.019-.751 2.109-1.776 2.638zm.462-3.532c-.396 0-.707.306-.707.762 0 .432.293.762.713.762.307 0 .636-.126.744-.546.006-.06.006-.12.006-.186 0-.433-.361-.792-.756-.792zM287.225 45.496c-.695 0-1.301-.486-1.301-1.386 0-1.02.749-2.11 1.774-2.639l.54.252c-.72.36-1.283.869-1.565 1.535a.81.81 0 0 1 .594-.246c.731 0 1.229.546 1.229 1.235 0 .721-.539 1.249-1.271 1.249zm.005-1.979c-.3 0-.635.114-.743.534-.007.065-.007.132-.007.197 0 .432.36.792.756.792s.708-.306.708-.762c0-.431-.294-.761-.714-.761zM289.757 45.43h-.587l1.451-3.358h-1.758v-.468h2.537l-1.643 3.826zM293.17 45.496c-.484 0-.965-.187-1.162-.342V41.16h.545v1.715c.102-.107.456-.228.75-.228.785 0 1.361.588 1.361 1.403 0 .846-.576 1.446-1.494 1.446zm.078-2.357c-.365 0-.611.174-.695.271v1.475c.09.061.348.145.559.145.629 0 1.001-.384 1.001-.966-.001-.542-.379-.925-.865-.925z"/></g></svg>