<svg id="Layer_1" xmlns="http://www.w3.org/2000/svg" viewBox="0 0 320 50"><style>.st0{fill:#231f20}</style><path class="st0" d="M27.7 21.5v-3.9c0-.5-.2-.9-.9-.9s-1 .4-1 .9v3.9h-2.1v-3.9c0-.5-.2-.9-.9-.9s-1 .4-1 .9v3.9h-2.1v-6.3h1.9v.8c.3-.7.9-1.1 1.9-1.1.9 0 1.6.4 1.9 1 .3-.6 1-1 2-1 1.4 0 2.2.8 2.2 2.1v4.4h-1.9zM35.7 21.7c-.4-.1-.8-.4-1-.8-.3.5-.9.8-1.7.8-1.1 0-2.1-.8-2.1-2.1 0-1.2.9-1.9 2.2-2.1l1.3-.1v-.2c0-.4-.3-.6-1-.6-.6 0-1.3.2-1.8.5l-.4-1.6c.5-.3 1.4-.6 2.2-.6 1.7 0 2.9.8 2.9 2.3v2.1c0 .7.3 1.1.8 1.3l-1.4 1.1zm-1.4-3l-.8.1c-.5 0-.8.4-.8.8 0 .3.3.6.6.6.5 0 .9-.4.9-.9v-.6z"/><path class="st0" d="M41.5 20.8c-1 2.5-2 3.5-3.2 3.9L37 23.5c1-.4 1.8-1.1 2.3-2.5L37 15.1h2l.9 2.5c.1.4.3.8.4 1.2.1-.4.3-.9.4-1.2l.9-2.5h1.9l-2 5.7zM52.4 17.2c-.4-.3-.9-.4-1.4-.4-.9 0-1.6.6-1.6 1.6 0 .9.7 1.6 1.7 1.6.5 0 .9-.1 1.4-.4l-.2 1.8c-.4.2-1 .3-1.6.3-1.8 0-3.4-1.3-3.4-3.3 0-2.1 1.7-3.3 3.4-3.3.8 0 1.5.2 2.1.5l-.4 1.6zM57 21.7c-1.9 0-3.5-1.4-3.5-3.4s1.5-3.4 3.5-3.4c1.9 0 3.5 1.4 3.5 3.4s-1.6 3.4-3.5 3.4zm0-5c-.8 0-1.4.7-1.4 1.6s.7 1.6 1.4 1.6c.8 0 1.4-.7 1.4-1.6s-.6-1.6-1.4-1.6zM63.5 21.6c-.9 0-1.5-.2-2-.4l-.2-1.8c.6.4 1.3.7 2 .7.4 0 .6-.2.6-.4 0-.3-.2-.4-.6-.5-1.2-.4-1.9-1-1.9-2.1 0-1.2 1-2 2.4-2 .8 0 1.6.2 1.9.4l-.4 1.5c-.3-.2-.8-.4-1.3-.4-.3 0-.6.2-.6.4s.2.4.6.5c1.4.4 2 1.1 2 2.2 0 .9-.7 1.9-2.5 1.9zM71.3 16.8h-1.7v2.4c0 .5.3.8.8.8.2 0 .4 0 .5-.1l-.2 1.6c-.2.1-.5.2-1 .2-1.4 0-2.3-.8-2.3-2V17h-1.1v-1.7h1.1v-1.4l2-.7v2.1h2l-.1 1.5zM83.4 21.5v-3.9c0-.5-.2-.9-.9-.9s-1 .4-1 .9v3.9h-2.1v-3.9c0-.5-.2-.9-.9-.9s-1 .4-1 .9v3.9h-2.1v-6.3h1.9v.8c.3-.7.9-1.1 1.9-1.1.9 0 1.6.4 1.9 1 .3-.6 1-1 2-1 1.4 0 2.2.8 2.2 2.1v4.4h-1.9zM90 21.7c-1.9 0-3.5-1.4-3.5-3.4s1.5-3.4 3.5-3.4c1.9 0 3.5 1.4 3.5 3.4s-1.6 3.4-3.5 3.4zm0-5c-.8 0-1.4.7-1.4 1.6s.7 1.6 1.4 1.6c.8 0 1.4-.7 1.4-1.6s-.6-1.6-1.4-1.6zM98.5 17.3c-.1-.1-.4-.2-.6-.2-.7 0-1.3.4-1.3 1.4v3h-2.1v-6.3h2v1.4c.2-1 1-1.5 1.8-1.5.2 0 .4 0 .6.1l-.4 2.1zM105.5 17.9l-.9.9h-3.1c.1.5.8 1.1 1.9 1.1.7 0 1.3-.2 1.8-.5l-.2 1.8c-.5.3-1.2.4-2 .4-1.9 0-3.5-1.3-3.5-3.4 0-2 1.5-3.3 3.3-3.3 1.8 0 2.8 1.2 2.8 2.5 0 .2-.1.4-.1.5zm-2.8-1.4c-.6 0-1.1.5-1.2 1h2.1v-.1c.1-.5-.3-.9-.9-.9zM114 16.8h-1.7v2.4c0 .5.3.8.8.8.2 0 .4 0 .5-.1l-.2 1.6c-.2.1-.5.2-1 .2-1.4 0-2.3-.8-2.3-2V17H109v-1.7h1.1v-1.4l2-.7v2.1h2l-.1 1.5zM119.3 21.5v-3.9c0-.5-.3-.9-1-.9-.6 0-1 .4-1 .9v3.9h-2.1v-10h2v4.2c.3-.5.9-.8 1.8-.8 1.4 0 2.2.8 2.2 2.1v4.4h-1.9zM127.2 21.7c-.4-.1-.8-.4-1-.8-.3.5-.9.8-1.7.8-1.1 0-2.1-.8-2.1-2.1 0-1.2.9-1.9 2.2-2.1l1.3-.1v-.2c0-.4-.3-.6-1-.6-.6 0-1.3.2-1.8.5l-.4-1.6c.5-.3 1.4-.6 2.2-.6 1.7 0 2.9.8 2.9 2.3v2.1c0 .7.3 1.1.8 1.3l-1.4 1.1zm-1.3-3l-.8.1c-.5 0-.8.4-.8.8 0 .3.3.6.6.6.5 0 .9-.4.9-.9v-.6zM133.4 21.5v-3.9c0-.5-.3-.9-.9-.9-.6 0-1 .4-1 .9v3.9h-2.1v-6.3h1.9v.8c.3-.7.9-1.1 1.9-1.1 1.4 0 2.2.8 2.2 2.1v4.4h-2z"/><g><path class="st0" d="M23.8 34.8c-1 2.5-2 3.5-3.2 3.9l-1.3-1.3c1-.4 1.8-1.1 2.3-2.5L19.3 29h2l.9 2.5c.1.4.3.8.4 1.2.1-.4.3-.9.4-1.2l.9-2.5H26l-2.2 5.8zM29.7 35.7c-1.9 0-3.5-1.4-3.5-3.4s1.5-3.4 3.5-3.4c1.9 0 3.5 1.4 3.5 3.4s-1.6 3.4-3.5 3.4zm0-5c-.8 0-1.4.7-1.4 1.6s.7 1.6 1.4 1.6c.8 0 1.4-.7 1.4-1.6s-.6-1.6-1.4-1.6zM38.4 35.5v-.9c-.3.7-.9 1-1.9 1-1.4 0-2.2-.8-2.2-2.1v-4.4h2.1V33c0 .5.3.9 1 .9.6 0 1-.4 1-.9v-3.9h2.1v6.3h-2.1zM49.1 30.8h-1.7v2.4c0 .5.3.8.8.8.2 0 .4 0 .5-.1l-.2 1.6c-.2.1-.5.2-1 .2-1.4 0-2.3-.8-2.3-2V31h-1.1v-1.7h1.1v-1.4l2-.7v2.1h2l-.1 1.5zM54.3 35.5v-3.9c0-.5-.3-.9-1-.9-.6 0-1 .4-1 .9v3.9h-2.1v-10h2v4.2c.3-.5.9-.8 1.8-.8 1.4 0 2.2.8 2.2 2.1v4.4h-1.9zM58.8 28.3c-.4 0-1.1-.7-1.1-1.1s.7-1.1 1.1-1.1c.4 0 1.1.7 1.1 1.1s-.7 1.1-1.1 1.1zm-1 7.2v-6.3h2.1v6.3h-2.1zM65.3 35.5v-3.9c0-.5-.3-.9-.9-.9-.6 0-1 .4-1 .9v3.9h-2.1v-6.3h1.9v.8c.3-.7.9-1.1 1.9-1.1 1.4 0 2.2.8 2.2 2.1v4.4h-2zM72.7 35.5l-1.9-2.6v2.6h-2v-10h2v6.2l1.9-2.6H75l-2.2 3.1 2.4 3.3h-2.5zM76.8 35.7c-.4 0-1.2-.8-1.2-1.2 0-.4.8-1.1 1.2-1.1.4 0 1.2.8 1.2 1.1 0 .4-.8 1.2-1.2 1.2z"/></g></svg>