<svg id="Layer_1" xmlns="http://www.w3.org/2000/svg" viewBox="0 0 320 50"><style>.st0{fill:#231f20}</style><path class="st0" d="M24.3 13.2v7.2h-2.2v-7.2h-2.6v-1.8h7.3v1.8h-2.5zM30 20.6c-1.9 0-3.5-1.4-3.5-3.4s1.5-3.4 3.5-3.4c1.9 0 3.5 1.4 3.5 3.4s-1.6 3.4-3.5 3.4zm0-5c-.8 0-1.4.7-1.4 1.6s.7 1.6 1.4 1.6c.8 0 1.4-.7 1.4-1.6s-.6-1.6-1.4-1.6zM37.7 20.6c-1.9 0-3.5-1.4-3.5-3.4s1.5-3.4 3.5-3.4c1.9 0 3.5 1.4 3.5 3.4s-1.6 3.4-3.5 3.4zm0-5c-.8 0-1.4.7-1.4 1.6s.7 1.6 1.4 1.6c.8 0 1.4-.7 1.4-1.6s-.6-1.6-1.4-1.6zM53.3 20.4v-3.9c0-.5-.2-.9-.9-.9s-1 .4-1 .9v3.9h-2.1v-3.9c0-.5-.2-.9-.9-.9s-1 .4-1 .9v3.9h-2.1v-6.3h1.9v.9c.3-.7.9-1.1 1.9-1.1.9 0 1.6.4 1.9 1 .3-.6 1-1 2-1 1.4 0 2.2.8 2.2 2.1v4.4h-1.9zM61.2 20.7c-.4-.1-.8-.4-1-.8-.3.5-.9.8-1.7.8-1.1 0-2.1-.8-2.1-2.1 0-1.2.9-1.9 2.2-2.1l1.3-.1v-.2c0-.4-.3-.6-1-.6-.6 0-1.3.2-1.8.5l-.4-1.6c.5-.3 1.4-.6 2.2-.6 1.7 0 2.9.8 2.9 2.3v2.1c0 .7.3 1.1.8 1.3l-1.4 1.1zm-1.3-3.1l-.8.1c-.5 0-.8.4-.8.8 0 .3.3.6.6.6.5 0 .9-.4.9-.9v-.6zM67.4 20.4v-3.9c0-.5-.3-.9-.9-.9-.6 0-1 .4-1 .9v3.9h-2.1v-6.3h1.9v.9c.3-.7.9-1.1 1.9-1.1 1.4 0 2.2.8 2.2 2.1v4.4h-2zM74.5 19.8c-1 2.5-2 3.5-3.2 3.9L70 22.4c1-.4 1.8-1.1 2.3-2.5L70 14h2l.9 2.5c.1.4.3.8.4 1.2.1-.4.3-.9.4-1.2l.9-2.5h1.9l-2 5.8zM84.6 16.2c-.1-.1-.4-.2-.6-.2-.7 0-1.3.4-1.3 1.4v3h-2.1v-6.3h2v1.4c.2-1 1-1.5 1.8-1.5.2 0 .4 0 .6.1l-.4 2.1zM91.6 16.9l-.9.9h-3.1c.1.5.8 1.1 1.9 1.1.7 0 1.3-.2 1.8-.5l-.3 1.8c-.5.3-1.2.4-2 .4-1.9 0-3.5-1.3-3.5-3.4 0-2 1.5-3.3 3.3-3.3 1.8 0 2.8 1.2 2.8 2.5.1.1 0 .3 0 .5zm-2.8-1.5c-.6 0-1.1.5-1.2 1h2.1v-.1c0-.5-.3-.9-.9-.9zM97.1 15.7h-1.7v2.4c0 .5.3.8.8.8.2 0 .4 0 .5-.1l-.2 1.6c-.2.1-.5.2-1 .2-1.4 0-2.3-.8-2.3-2v-2.7h-1.1v-1.7h1.1v-1.4l2-.7v2.1h2l-.1 1.5zM99.3 13.2c-.4 0-1.1-.7-1.1-1.1 0-.4.7-1.1 1.1-1.1.4 0 1.1.7 1.1 1.1 0 .3-.7 1.1-1.1 1.1zm-1 7.2v-6.3h2.1v6.3h-2.1zM105.8 16.2c-.1-.1-.4-.2-.6-.2-.7 0-1.3.4-1.3 1.4v3h-2.1v-6.3h2v1.4c.2-1 1-1.5 1.8-1.5.2 0 .4 0 .6.1l-.4 2.1zM112.7 16.9l-.9.9h-3.1c.1.5.8 1.1 1.9 1.1.7 0 1.3-.2 1.8-.5l-.2 1.8c-.5.3-1.2.4-2 .4-1.9 0-3.5-1.3-3.5-3.4 0-2 1.5-3.3 3.3-3.3 1.8 0 2.8 1.2 2.8 2.5 0 .1 0 .3-.1.5zm-2.8-1.5c-.6 0-1.1.5-1.2 1h2.1v-.1c.1-.5-.3-.9-.9-.9zM121.7 20.4v-3.9c0-.5-.2-.9-.9-.9s-1 .4-1 .9v3.9h-2.1v-3.9c0-.5-.2-.9-.9-.9s-1 .4-1 .9v3.9h-2.1v-6.3h1.9v.9c.3-.7.9-1.1 1.9-1.1.9 0 1.6.4 1.9 1 .3-.6 1-1 2-1 1.4 0 2.2.8 2.2 2.1v4.4h-1.9zM131 16.9l-.9.9H127c.1.5.8 1.1 1.9 1.1.7 0 1.3-.2 1.8-.5l-.2 1.8c-.5.3-1.2.4-2 .4-1.9 0-3.5-1.3-3.5-3.4 0-2 1.5-3.3 3.3-3.3 1.8 0 2.8 1.2 2.8 2.5-.1.1-.1.3-.1.5zm-2.8-1.5c-.6 0-1.1.5-1.2 1h2.1v-.1c0-.5-.3-.9-.9-.9zM136.2 20.4v-3.9c0-.5-.3-.9-.9-.9-.6 0-1 .4-1 .9v3.9h-2.1v-6.3h1.9v.9c.3-.7.9-1.1 1.9-1.1 1.4 0 2.2.8 2.2 2.1v4.4h-2zM143.8 15.7h-1.7v2.4c0 .5.3.8.8.8.2 0 .4 0 .5-.1l-.2 1.6c-.2.1-.5.2-1 .2-1.4 0-2.3-.8-2.3-2v-2.7h-.9v-1.7h1.1v-1.4l2-.7v2.1h2l-.3 1.5z"/><g><path class="st0" d="M24.6 34.7c-.4-.1-.8-.4-1-.8-.3.5-.9.8-1.7.8-1.1 0-2.1-.8-2.1-2.1 0-1.2.9-1.9 2.2-2.1l1.3-.1v-.2c0-.4-.3-.6-1-.6-.6 0-1.3.2-1.8.5l-.4-1.6c.5-.3 1.4-.6 2.2-.6 1.7 0 2.9.8 2.9 2.3v2.1c0 .7.3 1.1.8 1.3l-1.4 1.1zm-1.4-3.1l-.8.1c-.5 0-.8.4-.8.8 0 .3.3.6.6.6.5 0 .9-.4.9-.9v-.6zM31.5 30.1c-.4-.3-.9-.4-1.4-.4-.9 0-1.6.6-1.6 1.6 0 .9.7 1.6 1.7 1.6.5 0 .9-.1 1.4-.4l-.2 1.8c-.4.2-1 .3-1.6.3-1.8 0-3.4-1.3-3.4-3.3 0-2.1 1.7-3.3 3.4-3.3.8 0 1.5.2 2.1.5l-.4 1.6zM37.7 30.1c-.4-.3-.9-.4-1.4-.4-.9 0-1.6.6-1.6 1.6 0 .9.7 1.6 1.7 1.6.5 0 .9-.1 1.4-.4l-.2 1.8c-.4.2-1 .3-1.6.3-1.8 0-3.4-1.3-3.4-3.3 0-2.1 1.7-3.3 3.4-3.3.8 0 1.5.2 2.1.5l-.4 1.6zM42.3 34.6c-1.9 0-3.5-1.4-3.5-3.4s1.5-3.4 3.5-3.4c1.9 0 3.5 1.4 3.5 3.4-.1 2-1.6 3.4-3.5 3.4zm0-5c-.8 0-1.4.7-1.4 1.6s.7 1.6 1.4 1.6c.8 0 1.4-.7 1.4-1.6s-.7-1.6-1.4-1.6zM51 34.4v-.9c-.3.7-.9 1-1.9 1-1.4 0-2.2-.8-2.2-2.1V28H49v3.9c0 .5.3.9 1 .9.6 0 1-.4 1-.9V28h2.1v6.3H51zM58.3 34.4v-3.9c0-.5-.3-.9-.9-.9-.6 0-1 .4-1 .9v3.9h-2.1v-6.3h1.9v.9c.3-.7.9-1.1 1.9-1.1 1.4 0 2.2.8 2.2 2.1v4.4h-2zM65.9 29.7h-1.7v2.4c0 .5.3.8.8.8.2 0 .4 0 .5-.1l-.2 1.6c-.2.1-.5.2-1 .2-1.4 0-2.3-.8-2.3-2v-2.7h-1.1v-1.7H62v-1.4l2-.7v2.1h2l-.1 1.5zM69.1 34.5c-.9 0-1.5-.2-2-.4l-.2-1.8c.6.4 1.3.7 2 .7.4 0 .6-.2.6-.4 0-.3-.2-.4-.6-.5-1.2-.4-1.9-1-1.9-2.1 0-1.2 1-2 2.4-2 .8 0 1.6.2 1.9.4l-.4 1.5c-.3-.2-.8-.3-1.3-.3-.3 0-.6.2-.6.4s.2.4.6.5c1.4.4 2 1.1 2 2.2 0 .9-.8 1.8-2.5 1.8z"/></g><g><path class="st0" d="M83.6 34.4v-3.9c0-.5-.2-.9-.9-.9s-1 .4-1 .9v3.9h-2.1v-3.9c0-.5-.2-.9-.9-.9s-1 .4-1 .9v3.9h-2.1v-6.3h1.9v.9c.3-.7.9-1.1 1.9-1.1.9 0 1.6.4 1.9 1 .3-.6 1-1 2-1 1.4 0 2.2.8 2.2 2.1v4.4h-1.9zM91.6 34.7c-.4-.1-.8-.4-1-.8-.3.5-.9.8-1.7.8-1.1 0-2.1-.8-2.1-2.1 0-1.2.9-1.9 2.2-2.1l1.3-.1v-.2c0-.4-.3-.6-1-.6-.6 0-1.3.2-1.8.5l-.4-1.6c.5-.3 1.4-.6 2.2-.6 1.7 0 2.9.8 2.9 2.3v2.1c0 .7.3 1.1.8 1.3l-1.4 1.1zm-1.3-3.1l-.8.1c-.5 0-.8.4-.8.8 0 .3.3.6.6.6.5 0 .9-.4.9-.9v-.6zM97.4 33.8c-1 2.5-2 3.5-3.2 3.9L93 36.4c1-.4 1.8-1.1 2.3-2.5L93 28.1h2l.9 2.5c.1.4.3.8.4 1.2.1-.4.3-.9.4-1.2l.9-2.5h1.9l-2.1 5.7zM106.7 34.6c-1.3 0-2.4-.5-3.1-.9v-9.2h2v3.9c.3-.2.9-.4 1.6-.4 1.8 0 3.2 1.2 3.2 3.2 0 1.9-1.2 3.4-3.7 3.4zm.1-4.9c-.6 0-1 .3-1.2.5v2.4c.2.2.6.3 1 .3 1.1 0 1.7-.7 1.7-1.6.1-.9-.6-1.6-1.5-1.6zM117.3 30.9l-.9.9h-3.1c.1.5.8 1.1 1.9 1.1.7 0 1.3-.2 1.8-.5l-.2 1.8c-.5.3-1.2.4-2 .4-1.9 0-3.5-1.3-3.5-3.4 0-2 1.5-3.3 3.3-3.3 1.8 0 2.8 1.2 2.8 2.5 0 .1 0 .3-.1.5zm-2.8-1.5c-.6 0-1.1.5-1.2 1h2.1v-.1c.1-.5-.3-.9-.9-.9zM126.5 30.1c-.4-.3-.9-.4-1.4-.4-.9 0-1.6.6-1.6 1.6 0 .9.7 1.6 1.7 1.6.5 0 .9-.1 1.4-.4l-.2 1.8c-.4.2-1 .3-1.6.3-1.8 0-3.4-1.3-3.4-3.3 0-2.1 1.7-3.3 3.4-3.3.8 0 1.5.2 2.1.5l-.4 1.6zM131.1 34.6c-1.9 0-3.5-1.4-3.5-3.4s1.5-3.4 3.5-3.4c1.9 0 3.5 1.4 3.5 3.4-.1 2-1.6 3.4-3.5 3.4zm0-5c-.8 0-1.4.7-1.4 1.6s.7 1.6 1.4 1.6c.8 0 1.4-.7 1.4-1.6s-.7-1.6-1.4-1.6zM137.6 34.5c-.9 0-1.5-.2-2-.4l-.2-1.8c.6.4 1.3.7 2 .7.4 0 .6-.2.6-.4 0-.3-.2-.4-.6-.5-1.2-.4-1.9-1-1.9-2.1 0-1.2 1-2 2.4-2 .8 0 1.6.2 1.9.4l-.4 1.5c-.3-.2-.8-.3-1.3-.3-.3 0-.6.2-.6.4s.2.4.6.5c1.4.4 2 1.1 2 2.2 0 .9-.8 1.8-2.5 1.8zM145.4 29.7h-1.7v2.4c0 .5.3.8.8.8.2 0 .4 0 .5-.1l-.2 1.6c-.2.1-.5.2-1 .2-1.4 0-2.3-.8-2.3-2v-2.7h-1.1v-1.7h1.1v-1.4l2-.7v2.1h2l-.1 1.5zM148.7 34.7c-1.3-.1-2.2-.7-2.2-2.3v-8h2v7.7c0 .5.3.8.9.8l-.7 1.8zM154 33.8c-1 2.5-2 3.5-3.2 3.9l-1.3-1.3c1-.4 1.8-1.1 2.3-2.5l-2.3-5.9h2l.9 2.5c.1.4.3.8.4 1.2.1-.4.3-.9.4-1.2l.9-2.5h1.9l-2 5.8zM157.3 34.6c-.4 0-1.2-.8-1.2-1.2 0-.4.8-1.1 1.2-1.1s1.2.8 1.2 1.1c0 .4-.8 1.2-1.2 1.2z"/></g></svg>