<?xml version="1.0" encoding="utf-8"?>
<!-- Generator: Adobe Illustrator 24.0.0, SVG Export Plug-In . SVG Version: 6.00 Build 0)  -->
<svg version="1.1" id="Layer_1" xmlns="http://www.w3.org/2000/svg" xmlns:xlink="http://www.w3.org/1999/xlink" x="0px" y="0px"
	 viewBox="0 0 728 90" style="enable-background:new 0 0 728 90;" xml:space="preserve">
<style type="text/css">
	.st0{fill:none;stroke:#FFFFFF;stroke-width:2.022;}
	.st1{fill:#FFFFFF;}
	.st2{fill:none;}
</style>
<circle class="st0" cx="216.57" cy="35.09" r="17.34"/>
<path class="st1" d="M224.43,33.96h-6.29v-6.29c0-0.87-0.71-1.58-1.58-1.58c-0.87,0-1.58,0.71-1.58,1.58v6.29h-6.29
	c-0.88,0-1.58,0.71-1.58,1.58c0,0.87,0.71,1.58,1.58,1.58h6.29v6.29c0,0.87,0.71,1.58,1.58,1.58c0.87,0,1.58-0.71,1.58-1.58v-6.29
	h6.29c0.87,0,1.58-0.71,1.58-1.58C226.02,34.67,225.31,33.96,224.43,33.96"/>
<rect x="207.11" y="26.09" class="st2" width="18.91" height="18.91"/>
</svg>
