<?xml version="1.0" encoding="utf-8"?>
<!-- Generator: Adobe Illustrator 24.0.0, SVG Export Plug-In . SVG Version: 6.00 Build 0)  -->
<svg version="1.1" id="Layer_1" xmlns="http://www.w3.org/2000/svg" xmlns:xlink="http://www.w3.org/1999/xlink" x="0px" y="0px"
	 viewBox="0 0 728 90" style="enable-background:new 0 0 728 90;" xml:space="preserve">
<style type="text/css">
	.st0{fill:#FFFFFF;}
</style>
<g>
	<path class="st0" d="M10.17,80.47v-4.52l-0.88,0.09l0.14-0.61l1.47-0.14v5.17H10.17z"/>
	<path class="st0" d="M13.71,80.57c-0.93,0-1.74-0.85-1.74-2.65c0-1.79,0.82-2.65,1.74-2.65c0.91,0,1.74,0.86,1.74,2.65
		C15.45,79.72,14.62,80.57,13.71,80.57z M13.71,75.92c-0.52,0-1.01,0.56-1.01,2c0,1.46,0.49,2.01,1.01,2.01
		c0.51,0,1.01-0.55,1.01-2.01C14.71,76.48,14.22,75.92,13.71,75.92z"/>
	<path class="st0" d="M18.07,80.57c-0.93,0-1.74-0.85-1.74-2.65c0-1.79,0.82-2.65,1.74-2.65c0.91,0,1.74,0.86,1.74,2.65
		C19.82,79.72,18.98,80.57,18.07,80.57z M18.07,75.92c-0.52,0-1.01,0.56-1.01,2c0,1.46,0.49,2.01,1.01,2.01
		c0.51,0,1.01-0.55,1.01-2.01C19.08,76.48,18.58,75.92,18.07,75.92z"/>
	<path class="st0" d="M21.15,80.47v-4.52l-0.88,0.09l0.14-0.61l1.47-0.14v5.17H21.15z"/>
	<path class="st0" d="M24.6,80.57c-0.93,0-1.7-0.56-1.7-1.51c0-0.77,0.62-1.23,1.01-1.38c-0.39-0.15-0.78-0.54-0.78-1.12
		c0-0.76,0.63-1.29,1.48-1.29s1.49,0.54,1.49,1.29c0,0.56-0.41,0.97-0.78,1.1c0.38,0.13,1.01,0.62,1.01,1.39
		C26.31,80.01,25.53,80.57,24.6,80.57z M24.54,78.03c-0.43,0.13-0.96,0.48-0.96,1.01c0,0.52,0.46,0.9,0.99,0.9c0.54,0,1-0.38,1-0.9
		C25.58,78.51,24.99,78.15,24.54,78.03z M24.61,75.88c-0.42,0-0.78,0.3-0.78,0.7c0,0.35,0.34,0.68,0.81,0.81
		c0.47-0.14,0.75-0.46,0.75-0.81C25.39,76.18,25.05,75.88,24.61,75.88z"/>
	<path class="st0" d="M27.67,80.47v-4.52l-0.88,0.09l0.14-0.61l1.47-0.14v5.17H27.67z"/>
	<path class="st0" d="M30.29,80.47h-0.78L31.44,76H29.1v-0.62h3.38L30.29,80.47z"/>
</g>
</svg>
