<?xml version="1.0" encoding="utf-8"?>
<!-- Generator: Adobe Illustrator 24.0.0, SVG Export Plug-In . SVG Version: 6.00 Build 0)  -->
<svg version="1.1" id="Layer_1" xmlns="http://www.w3.org/2000/svg" xmlns:xlink="http://www.w3.org/1999/xlink" x="0px" y="0px"
	 viewBox="0 0 728 90" style="enable-background:new 0 0 728 90;" xml:space="preserve">
<style type="text/css">
	.st0{fill:#F8DF1F;}
</style>
<g>
	<path class="st0" d="M70.98,28.58v3.15h4.52v3.25h-4.52v6.37h-3.8V25.4h9.27v3.17H70.98z"/>
	<path class="st0" d="M79.68,28.48c-0.65,0-1.97-1.32-1.97-1.97c0-0.65,1.32-1.95,1.97-1.95s1.97,1.3,1.97,1.95
		C81.66,27.15,80.33,28.48,79.68,28.48z M77.83,41.35V30.03h3.7v11.32H77.83z"/>
	<path class="st0" d="M88.73,47.12c-3.3,0-5.5-1.88-5.5-4.25c0-1.72,1.15-2.75,2.32-3.05l-1.45-1.45c0.1-0.73,0.73-1.35,1.38-1.62
		c-0.85-0.52-1.65-1.6-1.65-3.02c0-2.4,1.72-4.07,4.67-4.07c0.68,0,1.2,0.1,1.67,0.23c0.5,0.12,1.05,0.2,1.62,0.2
		c0.62,0,1.27-0.15,1.77-0.37l0.68,2.8c-0.35,0.2-0.9,0.37-1.4,0.35c0.12,0.23,0.27,0.75,0.27,1.15c0,1.9-1.5,3.5-3.7,3.65
		c-0.45,0.02-0.75,0.12-0.75,0.42c0,0.12,0.1,0.27,0.3,0.35l1.75,0.62c2.22,0.8,3.42,1.92,3.42,4
		C94.16,45.37,92.03,47.12,88.73,47.12z M89.51,41.8l-1.35-0.37c-0.88,0.02-1.52,0.65-1.52,1.47c0,0.77,0.67,1.42,2,1.42
		c1.3,0,2-0.6,2-1.25C90.63,42.55,90.23,42,89.51,41.8z M88.51,32.33c-0.82,0-1.45,0.62-1.45,1.35c0,0.75,0.62,1.35,1.45,1.35
		c0.8,0,1.45-0.6,1.45-1.35C89.96,32.95,89.36,32.33,88.51,32.33z"/>
	<path class="st0" d="M103.06,41.35V39.8h-0.02c-0.45,1.2-1.65,1.87-3.47,1.87c-2.47,0-3.97-1.37-3.97-3.77v-7.87h3.67v6.95
		c0,0.82,0.57,1.55,1.7,1.55c1.1,0,1.77-0.73,1.77-1.62v-6.87h3.67v11.32H103.06z"/>
	<path class="st0" d="M115.78,33.92c-0.23-0.12-0.73-0.27-1.1-0.27c-1.17,0-2.25,0.62-2.25,2.42v5.27h-3.67V30.03h3.62v2.52h0.03
		c0.37-1.77,1.7-2.72,3.22-2.72c0.35,0,0.77,0.05,1.05,0.15L115.78,33.92z"/>
	<path class="st0" d="M128.06,35.05l-1.62,1.65h-5.55c0.17,0.92,1.42,1.97,3.35,1.97c1.17,0,2.37-0.35,3.12-0.85l-0.35,3.15
		c-0.85,0.45-2.15,0.75-3.6,0.75c-3.45,0-6.22-2.4-6.22-6.1c0-3.65,2.65-5.97,5.9-5.97c3.15,0,5.07,2.17,5.07,4.52
		C128.16,34.45,128.11,34.82,128.06,35.05z M123.08,32.4c-1.07,0-1.97,0.82-2.2,1.85h3.82c0-0.08,0.02-0.15,0.02-0.25
		C124.73,33.23,124.06,32.4,123.08,32.4z"/>
	<path class="st0" d="M141.28,41.7c-3.42,0-6.17-2.42-6.17-6.02s2.75-6.02,6.17-6.02c3.4,0,6.17,2.42,6.17,6.02
		S144.68,41.7,141.28,41.7z M141.28,32.85c-1.37,0-2.55,1.2-2.55,2.87c0,1.67,1.17,2.87,2.55,2.87c1.35,0,2.55-1.2,2.55-2.87
		C143.83,34.05,142.63,32.85,141.28,32.85z"/>
	<path class="st0" d="M156.71,41.35V39.8h-0.02c-0.45,1.2-1.65,1.87-3.47,1.87c-2.47,0-3.97-1.37-3.97-3.77v-7.87h3.67v6.95
		c0,0.82,0.57,1.55,1.7,1.55c1.1,0,1.77-0.73,1.77-1.62v-6.87h3.67v11.32H156.71z"/>
	<path class="st0" d="M170.01,33.03h-2.95v4.2c0,0.97,0.52,1.37,1.5,1.37c0.43,0,0.67-0.02,0.95-0.15l-0.32,2.77
		c-0.35,0.17-0.97,0.3-1.7,0.3c-2.55,0-4.07-1.35-4.07-3.6v-4.9h-1.9v-3h1.9V27.6l3.65-1.32v3.75h3.65L170.01,33.03z"/>
	<path class="st0" d="M184.56,40.22c-1.72,4.55-3.52,6.2-5.65,7.02L176.66,45c1.82-0.7,3.22-2.02,4.15-4.42l-4.07-10.55h3.55
		l1.65,4.4c0.25,0.65,0.5,1.42,0.67,2.22h0.05c0.23-0.77,0.48-1.57,0.73-2.22l1.65-4.4h3.37L184.56,40.22z"/>
	<path class="st0" d="M194.88,41.7c-3.42,0-6.17-2.42-6.17-6.02s2.75-6.02,6.17-6.02c3.4,0,6.17,2.42,6.17,6.02
		S198.28,41.7,194.88,41.7z M194.88,32.85c-1.37,0-2.55,1.2-2.55,2.87c0,1.67,1.17,2.87,2.55,2.87c1.35,0,2.55-1.2,2.55-2.87
		C197.43,34.05,196.23,32.85,194.88,32.85z"/>
	<path class="st0" d="M210.31,41.35V39.8h-0.02c-0.45,1.2-1.65,1.87-3.47,1.87c-2.47,0-3.97-1.37-3.97-3.77v-7.87h3.67v6.95
		c0,0.82,0.57,1.55,1.7,1.55c1.1,0,1.77-0.73,1.77-1.62v-6.87h3.67v11.32H210.31z"/>
	<path class="st0" d="M223.03,33.92c-0.23-0.12-0.72-0.27-1.1-0.27c-1.17,0-2.25,0.62-2.25,2.42v5.27h-3.67V30.03h3.62v2.52h0.03
		c0.37-1.77,1.7-2.72,3.22-2.72c0.35,0,0.77,0.05,1.05,0.15L223.03,33.92z"/>
	<path class="st0" d="M235.86,47.12c-3.3,0-5.5-1.88-5.5-4.25c0-1.72,1.15-2.75,2.32-3.05l-1.45-1.45c0.1-0.73,0.73-1.35,1.38-1.62
		c-0.85-0.52-1.65-1.6-1.65-3.02c0-2.4,1.72-4.07,4.67-4.07c0.67,0,1.2,0.1,1.67,0.23c0.5,0.12,1.05,0.2,1.62,0.2
		c0.62,0,1.27-0.15,1.77-0.37l0.67,2.8c-0.35,0.2-0.9,0.37-1.4,0.35c0.12,0.23,0.27,0.75,0.27,1.15c0,1.9-1.5,3.5-3.7,3.65
		c-0.45,0.02-0.75,0.12-0.75,0.42c0,0.12,0.1,0.27,0.3,0.35l1.75,0.62c2.22,0.8,3.42,1.92,3.42,4
		C241.28,45.37,239.16,47.12,235.86,47.12z M236.63,41.8l-1.35-0.37c-0.88,0.02-1.52,0.65-1.52,1.47c0,0.77,0.67,1.42,2,1.42
		c1.3,0,2-0.6,2-1.25C237.76,42.55,237.36,42,236.63,41.8z M235.63,32.33c-0.82,0-1.45,0.62-1.45,1.35c0,0.75,0.62,1.35,1.45,1.35
		c0.8,0,1.45-0.6,1.45-1.35C237.08,32.95,236.48,32.33,235.63,32.33z"/>
	<path class="st0" d="M250.18,41.35V39.8h-0.02c-0.45,1.2-1.65,1.87-3.47,1.87c-2.47,0-3.97-1.37-3.97-3.77v-7.87h3.67v6.95
		c0,0.82,0.57,1.55,1.7,1.55c1.1,0,1.77-0.73,1.77-1.62v-6.87h3.67v11.32H250.18z"/>
	<path class="st0" d="M263.85,41.85c-0.67-0.15-1.45-0.67-1.75-1.5c-0.5,0.92-1.57,1.37-2.95,1.37c-2,0-3.77-1.4-3.77-3.75
		c0-2.07,1.62-3.47,3.87-3.7l2.25-0.23v-0.38c0-0.67-0.55-1.12-1.77-1.12c-1.1,0-2.32,0.35-3.15,0.88l-0.65-2.77
		c0.92-0.6,2.47-1,3.97-1c3,0,5.12,1.38,5.12,4.1v3.7c0,1.32,0.5,2.02,1.38,2.35L263.85,41.85z M261.51,36.4l-1.37,0.12
		c-0.95,0.07-1.38,0.75-1.38,1.42c0,0.6,0.45,1.1,1.15,1.1c0.87,0,1.6-0.67,1.6-1.65V36.4z"/>
	<path class="st0" d="M274.68,33.92c-0.23-0.12-0.72-0.27-1.1-0.27c-1.17,0-2.25,0.62-2.25,2.42v5.27h-3.67V30.03h3.62v2.52h0.03
		c0.37-1.77,1.7-2.72,3.22-2.72c0.35,0,0.77,0.05,1.05,0.15L274.68,33.92z"/>
	<path class="st0" d="M284.73,41.85c-0.67-0.15-1.45-0.67-1.75-1.5c-0.5,0.92-1.57,1.37-2.95,1.37c-2,0-3.77-1.4-3.77-3.75
		c0-2.07,1.62-3.47,3.87-3.7l2.25-0.23v-0.38c0-0.67-0.55-1.12-1.77-1.12c-1.1,0-2.32,0.35-3.15,0.88l-0.65-2.77
		c0.92-0.6,2.47-1,3.97-1c3,0,5.12,1.38,5.12,4.1v3.7c0,1.32,0.5,2.02,1.38,2.35L284.73,41.85z M282.38,36.4L281,36.52
		c-0.95,0.07-1.37,0.75-1.37,1.42c0,0.6,0.45,1.1,1.15,1.1c0.87,0,1.6-0.67,1.6-1.65V36.4z"/>
	<path class="st0" d="M295.68,41.35V34.4c0-0.82-0.55-1.55-1.67-1.55c-1.1,0-1.8,0.7-1.8,1.6v6.9h-3.67V30.03h3.37v1.52h0.02
		c0.45-1.2,1.62-1.88,3.45-1.88c2.47,0,3.97,1.4,3.97,3.8v7.87H295.68z"/>
	<path class="st0" d="M309.1,33.03h-2.95v4.2c0,0.97,0.52,1.37,1.5,1.37c0.43,0,0.67-0.02,0.95-0.15l-0.32,2.77
		c-0.35,0.17-0.97,0.3-1.7,0.3c-2.55,0-4.07-1.35-4.07-3.6v-4.9h-1.9v-3h1.9V27.6l3.65-1.32v3.75h3.65L309.1,33.03z"/>
	<path class="st0" d="M321.2,35.05l-1.62,1.65h-5.55c0.17,0.92,1.42,1.97,3.35,1.97c1.17,0,2.37-0.35,3.12-0.85l-0.35,3.15
		c-0.85,0.45-2.15,0.75-3.6,0.75c-3.45,0-6.22-2.4-6.22-6.1c0-3.65,2.65-5.97,5.9-5.97c3.15,0,5.07,2.17,5.07,4.52
		C321.3,34.45,321.25,34.82,321.2,35.05z M316.23,32.4c-1.07,0-1.97,0.82-2.2,1.85h3.82c0-0.08,0.03-0.15,0.03-0.25
		C317.88,33.23,317.2,32.4,316.23,32.4z"/>
	<path class="st0" d="M333.4,35.05l-1.62,1.65h-5.55c0.17,0.92,1.42,1.97,3.35,1.97c1.17,0,2.37-0.35,3.12-0.85l-0.35,3.15
		c-0.85,0.45-2.15,0.75-3.6,0.75c-3.45,0-6.22-2.4-6.22-6.1c0-3.65,2.65-5.97,5.9-5.97c3.15,0,5.07,2.17,5.07,4.52
		C333.5,34.45,333.45,34.82,333.4,35.05z M328.43,32.4c-1.07,0-1.97,0.82-2.2,1.85h3.82c0-0.08,0.03-0.15,0.03-0.25
		C330.08,33.23,329.4,32.4,328.43,32.4z"/>
	<path class="st0" d="M343.73,41.35v-1.4h-0.02c-0.62,1.15-1.92,1.72-3.5,1.72c-2.77,0-5.45-2.1-5.45-5.97
		c0-3.65,2.6-6.02,5.75-6.02c1.2,0,2.42,0.4,2.87,0.77v-6.9h3.57v17.8H343.73z M343.38,33.92c-0.35-0.47-1.1-1.02-2.22-1.02
		c-1.6,0-2.72,1.25-2.72,2.87s1.12,2.87,2.72,2.87c1.07,0,1.82-0.58,2.22-1.17V33.92z"/>
	<path class="st0" d="M358.85,41.8c-2.32-0.1-3.87-1.3-3.87-4.02V23.55h3.62v13.77c0,0.92,0.52,1.42,1.52,1.5L358.85,41.8z"/>
	<path class="st0" d="M363.48,28.48c-0.65,0-1.97-1.32-1.97-1.97c0-0.65,1.32-1.95,1.97-1.95c0.65,0,1.97,1.3,1.97,1.95
		C365.45,27.15,364.13,28.48,363.48,28.48z M361.63,41.35V30.03h3.7v11.32H361.63z"/>
	<path class="st0" d="M375.63,26.83c-0.42-0.17-1.03-0.3-1.47-0.3c-1.35,0-2.05,0.8-2.05,2.42v1.07h3.25l-0.72,3h-2.52v8.32h-3.55
		v-8.32h-1.72v-3h1.72V28.7c0-3.45,2.22-5.15,5.07-5.15c1.05,0,2.1,0.12,2.67,0.37L375.63,26.83z"/>
	<path class="st0" d="M386.7,35.05l-1.62,1.65h-5.55c0.17,0.92,1.42,1.97,3.35,1.97c1.17,0,2.37-0.35,3.12-0.85l-0.35,3.15
		c-0.85,0.45-2.15,0.75-3.6,0.75c-3.45,0-6.22-2.4-6.22-6.1c0-3.65,2.65-5.97,5.9-5.97c3.15,0,5.07,2.17,5.07,4.52
		C386.8,34.45,386.75,34.82,386.7,35.05z M381.73,32.4c-1.08,0-1.97,0.82-2.2,1.85h3.82c0-0.08,0.03-0.15,0.03-0.25
		C383.38,33.23,382.7,32.4,381.73,32.4z"/>
	<path class="st0" d="M396.28,33.03h-2.95v4.2c0,0.97,0.52,1.37,1.5,1.37c0.42,0,0.67-0.02,0.95-0.15l-0.33,2.77
		c-0.35,0.17-0.97,0.3-1.7,0.3c-2.55,0-4.07-1.35-4.07-3.6v-4.9h-1.9v-3h1.9V27.6l3.65-1.32v3.75h3.65L396.28,33.03z"/>
	<path class="st0" d="M400.15,28.48c-0.65,0-1.97-1.32-1.97-1.97c0-0.65,1.33-1.95,1.97-1.95s1.97,1.3,1.97,1.95
		C402.13,27.15,400.8,28.48,400.15,28.48z M398.3,41.35V30.03h3.7v11.32H398.3z"/>
	<path class="st0" d="M418.33,41.35V34.4c0-0.82-0.4-1.55-1.6-1.55c-1.17,0-1.7,0.7-1.7,1.6v6.9h-3.67V34.4
		c0-0.82-0.4-1.55-1.6-1.55c-1.17,0-1.7,0.7-1.7,1.6v6.9h-3.67V30.03h3.4v1.52h0.02c0.45-1.2,1.58-1.88,3.35-1.88
		c1.62,0,2.85,0.65,3.35,1.85c0.47-1.1,1.8-1.85,3.5-1.85c2.57,0,4,1.4,4,3.8v7.87H418.33z"/>
	<path class="st0" d="M434.7,35.05l-1.62,1.65h-5.55c0.17,0.92,1.42,1.97,3.35,1.97c1.17,0,2.37-0.35,3.12-0.85l-0.35,3.15
		c-0.85,0.45-2.15,0.75-3.6,0.75c-3.45,0-6.22-2.4-6.22-6.1c0-3.65,2.65-5.97,5.9-5.97c3.15,0,5.07,2.17,5.07,4.52
		C434.8,34.45,434.75,34.82,434.7,35.05z M429.73,32.4c-1.08,0-1.97,0.82-2.2,1.85h3.82c0-0.08,0.03-0.15,0.03-0.25
		C431.38,33.23,430.7,32.4,429.73,32.4z"/>
	<path class="st0" d="M444.15,28.48c-0.65,0-1.97-1.32-1.97-1.97c0-0.65,1.33-1.95,1.97-1.95s1.97,1.3,1.97,1.95
		C446.13,27.15,444.8,28.48,444.15,28.48z M442.3,41.35V30.03h3.7v11.32H442.3z"/>
	<path class="st0" d="M455.53,41.35V34.4c0-0.82-0.55-1.55-1.67-1.55c-1.1,0-1.8,0.7-1.8,1.6v6.9h-3.67V30.03h3.37v1.52h0.03
		c0.45-1.2,1.62-1.88,3.45-1.88c2.47,0,3.97,1.4,3.97,3.8v7.87H455.53z"/>
	<path class="st0" d="M470.08,33.67c-0.75-0.47-1.52-0.72-2.42-0.72c-1.6,0-2.88,1.15-2.88,2.8c0,1.62,1.28,2.8,2.95,2.8
		c0.95,0,1.67-0.2,2.47-0.62l-0.33,3.12c-0.75,0.35-1.72,0.55-2.77,0.55c-3.17,0-6.12-2.25-6.12-5.9c0-3.7,2.97-5.92,6.05-5.92
		c1.5,0,2.72,0.3,3.72,0.85L470.08,33.67z"/>
	<path class="st0" d="M478,41.7c-3.42,0-6.17-2.42-6.17-6.02s2.75-6.02,6.17-6.02c3.4,0,6.17,2.42,6.17,6.02S481.4,41.7,478,41.7z
		 M478,32.85c-1.38,0-2.55,1.2-2.55,2.87c0,1.67,1.17,2.87,2.55,2.87c1.35,0,2.55-1.2,2.55-2.87
		C480.55,34.05,479.35,32.85,478,32.85z"/>
	<path class="st0" d="M499.95,41.35V34.4c0-0.82-0.4-1.55-1.6-1.55c-1.17,0-1.7,0.7-1.7,1.6v6.9h-3.67V34.4
		c0-0.82-0.4-1.55-1.6-1.55c-1.17,0-1.7,0.7-1.7,1.6v6.9H486V30.03h3.4v1.52h0.02c0.45-1.2,1.58-1.88,3.35-1.88
		c1.62,0,2.85,0.65,3.35,1.85c0.47-1.1,1.8-1.85,3.5-1.85c2.57,0,4,1.4,4,3.8v7.87H499.95z"/>
	<path class="st0" d="M516.33,35.05l-1.62,1.65h-5.55c0.17,0.92,1.42,1.97,3.35,1.97c1.17,0,2.37-0.35,3.12-0.85l-0.35,3.15
		c-0.85,0.45-2.15,0.75-3.6,0.75c-3.45,0-6.22-2.4-6.22-6.1c0-3.65,2.65-5.97,5.9-5.97c3.15,0,5.07,2.17,5.07,4.52
		C516.42,34.45,516.38,34.82,516.33,35.05z M511.35,32.4c-1.08,0-1.97,0.82-2.2,1.85h3.82c0-0.08,0.03-0.15,0.03-0.25
		C513,33.23,512.33,32.4,511.35,32.4z"/>
</g>
</svg>
