<?xml version="1.0" encoding="utf-8"?>
<!-- Generator: Adobe Illustrator 24.0.0, SVG Export Plug-In . SVG Version: 6.00 Build 0)  -->
<svg version="1.1" id="Layer_1" xmlns="http://www.w3.org/2000/svg" xmlns:xlink="http://www.w3.org/1999/xlink" x="0px" y="0px"
	 viewBox="0 0 728 90" style="enable-background:new 0 0 728 90;" xml:space="preserve">
<style type="text/css">
	.st0{fill:#F8DF1F;}
</style>
<g>
	<path class="st0" d="M186.63,67.6c-1.55,0-2.67-0.33-3.6-0.8l-0.32-3.25c1,0.7,2.3,1.22,3.55,1.22c0.67,0,1.1-0.35,1.1-0.78
		c0-0.47-0.37-0.67-1.02-0.87c-2.17-0.62-3.47-1.72-3.47-3.7c0-2.22,1.8-3.65,4.25-3.65c1.4,0,2.77,0.38,3.35,0.67l-0.62,2.7
		c-0.55-0.3-1.45-0.62-2.35-0.62c-0.6,0-1,0.28-1,0.73c0,0.42,0.3,0.65,1,0.82c2.55,0.67,3.6,1.95,3.6,3.85
		C191.08,65.85,189.68,67.6,186.63,67.6z"/>
	<path class="st0" d="M198.46,67.7c-3.42,0-6.17-2.42-6.17-6.02c0-3.6,2.75-6.02,6.17-6.02c3.4,0,6.17,2.42,6.17,6.02
		C204.63,65.27,201.86,67.7,198.46,67.7z M198.46,58.85c-1.37,0-2.55,1.2-2.55,2.87c0,1.67,1.17,2.88,2.55,2.88
		c1.35,0,2.55-1.2,2.55-2.88C201.01,60.05,199.81,58.85,198.46,58.85z"/>
	<path class="st0" d="M219.03,66.22c-1.72,4.55-3.52,6.2-5.65,7.02L211.13,71c1.82-0.7,3.22-2.02,4.15-4.42l-4.07-10.55h3.55
		l1.65,4.4c0.25,0.65,0.5,1.42,0.67,2.22h0.05c0.23-0.77,0.48-1.57,0.73-2.22l1.65-4.4h3.37L219.03,66.22z"/>
	<path class="st0" d="M229.36,67.7c-3.42,0-6.17-2.42-6.17-6.02c0-3.6,2.75-6.02,6.17-6.02c3.4,0,6.17,2.42,6.17,6.02
		C235.53,65.27,232.76,67.7,229.36,67.7z M229.36,58.85c-1.37,0-2.55,1.2-2.55,2.87c0,1.67,1.17,2.88,2.55,2.88
		c1.35,0,2.55-1.2,2.55-2.88C231.91,60.05,230.71,58.85,229.36,58.85z"/>
	<path class="st0" d="M244.78,67.35V65.8h-0.02c-0.45,1.2-1.65,1.88-3.47,1.88c-2.47,0-3.97-1.38-3.97-3.77v-7.87h3.67v6.95
		c0,0.83,0.57,1.55,1.7,1.55c1.1,0,1.77-0.72,1.77-1.62v-6.87h3.67v11.32H244.78z"/>
	<path class="st0" d="M263.13,67.35V60.4c0-0.83-0.55-1.55-1.67-1.55c-1.1,0-1.8,0.7-1.8,1.6v6.9h-3.67V56.03h3.37v1.52h0.02
		c0.45-1.2,1.62-1.87,3.45-1.87c2.47,0,3.97,1.4,3.97,3.8v7.87H263.13z"/>
	<path class="st0" d="M279.48,61.05l-1.62,1.65h-5.55c0.17,0.92,1.42,1.97,3.35,1.97c1.17,0,2.37-0.35,3.12-0.85l-0.35,3.15
		c-0.85,0.45-2.15,0.75-3.6,0.75c-3.45,0-6.22-2.4-6.22-6.1c0-3.65,2.65-5.97,5.9-5.97c3.15,0,5.07,2.17,5.07,4.52
		C279.58,60.45,279.53,60.82,279.48,61.05z M274.51,58.4c-1.07,0-1.97,0.83-2.2,1.85h3.82c0-0.07,0.03-0.15,0.03-0.25
		C276.16,59.22,275.48,58.4,274.51,58.4z"/>
	<path class="st0" d="M287.18,67.45h-2.75l-4.35-11.42h3.55l1.6,4.32c0.23,0.6,0.45,1.45,0.62,2.2h0.05c0.17-0.72,0.42-1.6,0.65-2.2
		l1.6-4.32h3.4L287.18,67.45z"/>
	<path class="st0" d="M302.73,61.05l-1.62,1.65h-5.55c0.17,0.92,1.42,1.97,3.35,1.97c1.17,0,2.37-0.35,3.12-0.85l-0.35,3.15
		c-0.85,0.45-2.15,0.75-3.6,0.75c-3.45,0-6.22-2.4-6.22-6.1c0-3.65,2.65-5.97,5.9-5.97c3.15,0,5.07,2.17,5.07,4.52
		C302.83,60.45,302.78,60.82,302.73,61.05z M297.76,58.4c-1.07,0-1.97,0.83-2.2,1.85h3.82c0-0.07,0.02-0.15,0.02-0.25
		C299.41,59.22,298.73,58.4,297.76,58.4z"/>
	<path class="st0" d="M311.66,59.92c-0.23-0.12-0.72-0.28-1.1-0.28c-1.17,0-2.25,0.62-2.25,2.42v5.27h-3.67V56.03h3.62v2.52h0.03
		c0.37-1.77,1.7-2.72,3.22-2.72c0.35,0,0.77,0.05,1.05,0.15L311.66,59.92z"/>
	<path class="st0" d="M326.46,59.92c-0.23-0.12-0.72-0.28-1.1-0.28c-1.17,0-2.25,0.62-2.25,2.42v5.27h-3.67V56.03h3.62v2.52h0.03
		c0.37-1.77,1.7-2.72,3.22-2.72c0.35,0,0.77,0.05,1.05,0.15L326.46,59.92z"/>
	<path class="st0" d="M336.03,67.35V65.8h-0.02c-0.45,1.2-1.65,1.88-3.47,1.88c-2.47,0-3.97-1.38-3.97-3.77v-7.87h3.67v6.95
		c0,0.83,0.57,1.55,1.7,1.55c1.1,0,1.77-0.72,1.77-1.62v-6.87h3.67v11.32H336.03z"/>
	<path class="st0" d="M348.88,67.35V60.4c0-0.83-0.55-1.55-1.67-1.55c-1.1,0-1.8,0.7-1.8,1.6v6.9h-3.67V56.03h3.37v1.52h0.02
		c0.45-1.2,1.62-1.87,3.45-1.87c2.47,0,3.97,1.4,3.97,3.8v7.87H348.88z"/>
	<path class="st0" d="M366.16,67.7c-3.42,0-6.17-2.42-6.17-6.02c0-3.6,2.75-6.02,6.17-6.02c3.4,0,6.17,2.42,6.17,6.02
		C372.33,65.27,369.55,67.7,366.16,67.7z M366.16,58.85c-1.38,0-2.55,1.2-2.55,2.87c0,1.67,1.17,2.88,2.55,2.88
		c1.35,0,2.55-1.2,2.55-2.88C368.71,60.05,367.51,58.85,366.16,58.85z"/>
	<path class="st0" d="M381.58,67.35V65.8h-0.03c-0.45,1.2-1.65,1.88-3.47,1.88c-2.47,0-3.97-1.38-3.97-3.77v-7.87h3.67v6.95
		c0,0.83,0.58,1.55,1.7,1.55c1.1,0,1.77-0.72,1.77-1.62v-6.87h3.67v11.32H381.58z"/>
	<path class="st0" d="M394.88,59.02h-2.95v4.2c0,0.97,0.52,1.38,1.5,1.38c0.42,0,0.67-0.03,0.95-0.15l-0.33,2.77
		c-0.35,0.17-0.97,0.3-1.7,0.3c-2.55,0-4.07-1.35-4.07-3.6v-4.9h-1.9v-3h1.9V53.6l3.65-1.32v3.75h3.65L394.88,59.02z"/>
	<path class="st0" d="M398.38,67.7c-0.67,0-2.07-1.4-2.07-2.07c0-0.65,1.4-2.05,2.07-2.05s2.07,1.4,2.07,2.05
		C400.46,66.3,399.06,67.7,398.38,67.7z"/>
</g>
</svg>
