<?xml version="1.0" encoding="utf-8"?>
<!-- Generator: Adobe Illustrator 24.0.0, SVG Export Plug-In . SVG Version: 6.00 Build 0)  -->
<svg version="1.1" id="Layer_1" xmlns="http://www.w3.org/2000/svg" xmlns:xlink="http://www.w3.org/1999/xlink" x="0px" y="0px"
	 viewBox="0 0 728 90" style="enable-background:new 0 0 728 90;" xml:space="preserve">
<style type="text/css">
	.st0{fill:#F8DF1F;}
</style>
<g>
	<path class="st0" d="M205.45,59.1v3.15h4.52v3.25h-4.52v6.37h-3.8V55.93h9.27v3.17H205.45z"/>
	<path class="st0" d="M214.15,59c-0.65,0-1.97-1.32-1.97-1.97c0-0.65,1.32-1.95,1.97-1.95s1.97,1.3,1.97,1.95
		C216.13,57.68,214.8,59,214.15,59z M212.3,71.88V60.55h3.7v11.32H212.3z"/>
	<path class="st0" d="M225.53,71.88v-6.95c0-0.83-0.55-1.55-1.67-1.55c-1.1,0-1.8,0.7-1.8,1.6v6.9h-3.67V60.55h3.37v1.52h0.02
		c0.45-1.2,1.62-1.87,3.45-1.87c2.47,0,3.97,1.4,3.97,3.8v7.87H225.53z"/>
	<path class="st0" d="M233.43,59c-0.65,0-1.97-1.32-1.97-1.97c0-0.65,1.32-1.95,1.97-1.95s1.97,1.3,1.97,1.95
		C235.4,57.68,234.08,59,233.43,59z M231.58,71.88V60.55h3.7v11.32H231.58z"/>
	<path class="st0" d="M241.3,72.12c-1.55,0-2.67-0.33-3.6-0.8l-0.32-3.25c1,0.7,2.3,1.22,3.55,1.22c0.67,0,1.1-0.35,1.1-0.78
		c0-0.47-0.37-0.67-1.02-0.87c-2.17-0.62-3.47-1.72-3.47-3.7c0-2.22,1.8-3.65,4.25-3.65c1.4,0,2.77,0.38,3.35,0.67l-0.62,2.7
		c-0.55-0.3-1.45-0.62-2.35-0.62c-0.6,0-1,0.28-1,0.73c0,0.42,0.3,0.65,1,0.82c2.55,0.67,3.6,1.95,3.6,3.85
		C245.75,70.38,244.35,72.12,241.3,72.12z"/>
	<path class="st0" d="M254.78,71.88v-6.95c0-0.83-0.58-1.55-1.7-1.55c-1.1,0-1.77,0.7-1.77,1.6v6.9h-3.67v-17.8h3.62v7.52h0.02
		c0.58-0.88,1.62-1.4,3.2-1.4c2.5,0,3.97,1.4,3.97,3.8v7.87H254.78z"/>
	<path class="st0" d="M274.97,64.2c-0.75-0.48-1.52-0.73-2.42-0.73c-1.6,0-2.87,1.15-2.87,2.8c0,1.62,1.27,2.8,2.95,2.8
		c0.95,0,1.67-0.2,2.47-0.62l-0.32,3.12c-0.75,0.35-1.72,0.55-2.77,0.55c-3.17,0-6.12-2.25-6.12-5.9c0-3.7,2.97-5.92,6.05-5.92
		c1.5,0,2.72,0.3,3.72,0.85L274.97,64.2z"/>
	<path class="st0" d="M285.32,72.38c-0.67-0.15-1.45-0.67-1.75-1.5c-0.5,0.92-1.57,1.38-2.95,1.38c-2,0-3.77-1.4-3.77-3.75
		c0-2.07,1.62-3.47,3.87-3.7l2.25-0.22V64.2c0-0.67-0.55-1.12-1.77-1.12c-1.1,0-2.32,0.35-3.15,0.88l-0.65-2.77
		c0.92-0.6,2.47-1,3.97-1c3,0,5.12,1.38,5.12,4.1v3.7c0,1.33,0.5,2.02,1.38,2.35L285.32,72.38z M282.98,66.93l-1.38,0.12
		c-0.95,0.08-1.37,0.75-1.37,1.42c0,0.6,0.45,1.1,1.15,1.1c0.87,0,1.6-0.67,1.6-1.65V66.93z"/>
	<path class="st0" d="M292.95,72.33c-2.32-0.1-3.87-1.3-3.87-4.02V54.08h3.62v13.77c0,0.92,0.52,1.42,1.52,1.5L292.95,72.33z"/>
	<path class="st0" d="M304.12,64.2c-0.75-0.48-1.52-0.73-2.42-0.73c-1.6,0-2.87,1.15-2.87,2.8c0,1.62,1.27,2.8,2.95,2.8
		c0.95,0,1.67-0.2,2.47-0.62l-0.32,3.12c-0.75,0.35-1.72,0.55-2.77,0.55c-3.17,0-6.12-2.25-6.12-5.9c0-3.7,2.97-5.92,6.05-5.92
		c1.5,0,2.72,0.3,3.72,0.85L304.12,64.2z"/>
	<path class="st0" d="M314.02,71.88v-1.55H314c-0.45,1.2-1.65,1.88-3.47,1.88c-2.47,0-3.97-1.38-3.97-3.77v-7.87h3.67v6.95
		c0,0.83,0.57,1.55,1.7,1.55c1.1,0,1.77-0.72,1.77-1.62v-6.87h3.67v11.32H314.02z"/>
	<path class="st0" d="M323.65,72.33c-2.32-0.1-3.87-1.3-3.87-4.02V54.08h3.62v13.77c0,0.92,0.52,1.42,1.52,1.5L323.65,72.33z"/>
	<path class="st0" d="M334.47,72.38c-0.67-0.15-1.45-0.67-1.75-1.5c-0.5,0.92-1.57,1.38-2.95,1.38c-2,0-3.77-1.4-3.77-3.75
		c0-2.07,1.62-3.47,3.87-3.7l2.25-0.22V64.2c0-0.67-0.55-1.12-1.77-1.12c-1.1,0-2.32,0.35-3.15,0.88l-0.65-2.77
		c0.92-0.6,2.47-1,3.97-1c3,0,5.12,1.38,5.12,4.1v3.7c0,1.33,0.5,2.02,1.38,2.35L334.47,72.38z M332.12,66.93l-1.37,0.12
		c-0.95,0.08-1.38,0.75-1.38,1.42c0,0.6,0.45,1.1,1.15,1.1c0.87,0,1.6-0.67,1.6-1.65V66.93z"/>
	<path class="st0" d="M345.6,63.55h-2.95v4.2c0,0.97,0.52,1.38,1.5,1.38c0.43,0,0.67-0.03,0.95-0.15l-0.32,2.77
		c-0.35,0.17-0.97,0.3-1.7,0.3c-2.55,0-4.07-1.35-4.07-3.6v-4.9h-1.9v-3h1.9v-2.42l3.65-1.32v3.75h3.65L345.6,63.55z"/>
	<path class="st0" d="M349.47,59c-0.65,0-1.97-1.32-1.97-1.97c0-0.65,1.32-1.95,1.97-1.95s1.97,1.3,1.97,1.95
		C351.45,57.68,350.12,59,349.47,59z M347.62,71.88V60.55h3.7v11.32H347.62z"/>
	<path class="st0" d="M360.85,71.88v-6.95c0-0.83-0.55-1.55-1.67-1.55c-1.1,0-1.8,0.7-1.8,1.6v6.9h-3.67V60.55h3.37v1.52h0.02
		c0.45-1.2,1.62-1.87,3.45-1.87c2.47,0,3.97,1.4,3.97,3.8v7.87H360.85z"/>
	<path class="st0" d="M371.62,77.65c-3.3,0-5.5-1.87-5.5-4.25c0-1.72,1.15-2.75,2.33-3.05L367,68.9c0.1-0.72,0.72-1.35,1.38-1.62
		c-0.85-0.53-1.65-1.6-1.65-3.02c0-2.4,1.72-4.07,4.67-4.07c0.67,0,1.2,0.1,1.67,0.22c0.5,0.12,1.05,0.2,1.62,0.2
		c0.62,0,1.27-0.15,1.77-0.38l0.67,2.8c-0.35,0.2-0.9,0.38-1.4,0.35c0.12,0.22,0.28,0.75,0.28,1.15c0,1.9-1.5,3.5-3.7,3.65
		c-0.45,0.03-0.75,0.12-0.75,0.42c0,0.12,0.1,0.28,0.3,0.35l1.75,0.62c2.22,0.8,3.42,1.92,3.42,4
		C377.05,75.9,374.92,77.65,371.62,77.65z M372.4,72.33l-1.35-0.38c-0.87,0.02-1.52,0.65-1.52,1.47c0,0.77,0.67,1.42,2,1.42
		c1.3,0,2-0.6,2-1.25C373.52,73.07,373.12,72.52,372.4,72.33z M371.4,62.85c-0.83,0-1.45,0.62-1.45,1.35c0,0.75,0.62,1.35,1.45,1.35
		c0.8,0,1.45-0.6,1.45-1.35C372.85,63.48,372.25,62.85,371.4,62.85z"/>
	<path class="st0" d="M379.87,72.22c-0.67,0-2.07-1.4-2.07-2.07c0-0.65,1.4-2.05,2.07-2.05s2.07,1.4,2.07,2.05
		C381.95,70.83,380.55,72.22,379.87,72.22z"/>
</g>
</svg>
