<?xml version="1.0" encoding="utf-8"?>
<!-- Generator: Adobe Illustrator 24.0.0, SVG Export Plug-In . SVG Version: 6.00 Build 0)  -->
<svg version="1.1" id="Layer_1" xmlns="http://www.w3.org/2000/svg" xmlns:xlink="http://www.w3.org/1999/xlink" x="0px" y="0px"
	 viewBox="0 0 728 90" style="enable-background:new 0 0 728 90;" xml:space="preserve">
<style type="text/css">
	.st0{fill:#F8DF1F;}
</style>
<g>
	<path class="st0" d="M314.48,38.17h-2.47l-2.32-7.05c-0.35-1.05-0.67-2.15-1.05-3.55h-0.05c-0.35,1.38-0.7,2.52-1.05,3.55
		l-2.32,7.05h-2.42l-5.32-16.05h3.77l2.07,6.45c0.3,0.97,0.62,2,0.87,3.2h0.05c0.22-1.2,0.52-2.2,0.85-3.2l2.1-6.45h3.32l2.07,6.42
		c0.3,0.9,0.6,2.05,0.85,3.22h0.05c0.2-1.15,0.55-2.3,0.85-3.2l2.12-6.45h3.35L314.48,38.17z"/>
	<path class="st0" d="M328.38,38.07v-6.95c0-0.82-0.58-1.55-1.7-1.55c-1.1,0-1.77,0.7-1.77,1.6v6.9h-3.67v-17.8h3.62v7.52h0.02
		c0.58-0.88,1.62-1.4,3.2-1.4c2.5,0,3.97,1.4,3.97,3.8v7.87H328.38z"/>
	<path class="st0" d="M342.33,38.57c-0.67-0.15-1.45-0.67-1.75-1.5c-0.5,0.92-1.57,1.38-2.95,1.38c-2,0-3.77-1.4-3.77-3.75
		c0-2.07,1.62-3.47,3.87-3.7l2.25-0.23V30.4c0-0.67-0.55-1.12-1.77-1.12c-1.1,0-2.32,0.35-3.15,0.88l-0.65-2.77
		c0.92-0.6,2.47-1,3.97-1c3,0,5.12,1.38,5.12,4.1v3.7c0,1.32,0.5,2.02,1.38,2.35L342.33,38.57z M339.98,33.12l-1.38,0.12
		c-0.95,0.07-1.37,0.75-1.37,1.42c0,0.6,0.45,1.1,1.15,1.1c0.87,0,1.6-0.67,1.6-1.65V33.12z"/>
	<path class="st0" d="M353.46,29.75h-2.95v4.2c0,0.97,0.52,1.37,1.5,1.37c0.43,0,0.67-0.02,0.95-0.15l-0.33,2.77
		c-0.35,0.17-0.97,0.3-1.7,0.3c-2.55,0-4.07-1.35-4.07-3.6v-4.9h-1.9v-3h1.9v-2.42l3.65-1.32v3.75h3.65L353.46,29.75z"/>
	<path class="st0" d="M369.06,38.57c-0.67-0.15-1.45-0.67-1.75-1.5c-0.5,0.92-1.57,1.38-2.95,1.38c-2,0-3.77-1.4-3.77-3.75
		c0-2.07,1.62-3.47,3.87-3.7l2.25-0.23V30.4c0-0.67-0.55-1.12-1.77-1.12c-1.1,0-2.32,0.35-3.15,0.88l-0.65-2.77
		c0.92-0.6,2.47-1,3.97-1c3,0,5.12,1.38,5.12,4.1v3.7c0,1.32,0.5,2.02,1.37,2.35L369.06,38.57z M366.71,33.12l-1.38,0.12
		c-0.95,0.07-1.37,0.75-1.37,1.42c0,0.6,0.45,1.1,1.15,1.1c0.88,0,1.6-0.67,1.6-1.65V33.12z"/>
	<path class="st0" d="M377.56,43.84c-3.3,0-5.5-1.87-5.5-4.25c0-1.72,1.15-2.75,2.33-3.05l-1.45-1.45c0.1-0.73,0.72-1.35,1.38-1.62
		c-0.85-0.52-1.65-1.6-1.65-3.02c0-2.4,1.72-4.07,4.67-4.07c0.67,0,1.2,0.1,1.67,0.23c0.5,0.12,1.05,0.2,1.62,0.2
		c0.62,0,1.27-0.15,1.77-0.37l0.67,2.8c-0.35,0.2-0.9,0.37-1.4,0.35c0.12,0.23,0.28,0.75,0.28,1.15c0,1.9-1.5,3.5-3.7,3.65
		c-0.45,0.02-0.75,0.12-0.75,0.42c0,0.12,0.1,0.28,0.3,0.35l1.75,0.62c2.22,0.8,3.42,1.92,3.42,4
		C382.98,42.09,380.86,43.84,377.56,43.84z M378.33,38.52l-1.35-0.37c-0.87,0.02-1.52,0.65-1.52,1.47c0,0.77,0.67,1.42,2,1.42
		c1.3,0,2-0.6,2-1.25C379.46,39.27,379.06,38.72,378.33,38.52z M377.33,29.05c-0.83,0-1.45,0.62-1.45,1.35
		c0,0.75,0.62,1.35,1.45,1.35c0.8,0,1.45-0.6,1.45-1.35C378.78,29.67,378.18,29.05,377.33,29.05z"/>
	<path class="st0" d="M394.78,31.77l-1.62,1.65h-5.55c0.17,0.92,1.42,1.97,3.35,1.97c1.17,0,2.37-0.35,3.12-0.85l-0.35,3.15
		c-0.85,0.45-2.15,0.75-3.6,0.75c-3.45,0-6.22-2.4-6.22-6.1c0-3.65,2.65-5.97,5.9-5.97c3.15,0,5.07,2.17,5.07,4.52
		C394.88,31.17,394.83,31.55,394.78,31.77z M389.81,29.12c-1.08,0-1.97,0.82-2.2,1.85h3.82c0-0.08,0.03-0.15,0.03-0.25
		C391.46,29.95,390.78,29.12,389.81,29.12z"/>
	<path class="st0" d="M414.76,38.17h-2.52l-1.52-4.5c-0.23-0.7-0.45-1.5-0.67-2.35h-0.05c-0.18,0.85-0.4,1.67-0.62,2.32l-1.52,4.52
		h-2.4l-3.95-11.42h3.35l1.4,4.3c0.2,0.65,0.42,1.45,0.55,2.17h0.05c0.12-0.7,0.33-1.52,0.55-2.17l1.42-4.3h2.77l1.42,4.27
		c0.23,0.7,0.38,1.47,0.53,2.2h0.05c0.15-0.73,0.35-1.52,0.58-2.2l1.42-4.27h3.12L414.76,38.17z"/>
	<path class="st0" d="M421.91,25.2c-0.65,0-1.97-1.32-1.97-1.97s1.33-1.95,1.97-1.95s1.97,1.3,1.97,1.95S422.56,25.2,421.91,25.2z
		 M420.06,38.07V26.75h3.7v11.32H420.06z"/>
	<path class="st0" d="M430.06,38.52c-2.33-0.1-3.87-1.3-3.87-4.02V20.27h3.62v13.77c0,0.92,0.52,1.42,1.52,1.5L430.06,38.52z"/>
	<path class="st0" d="M436.63,38.52c-2.33-0.1-3.88-1.3-3.88-4.02V20.27h3.62v13.77c0,0.92,0.52,1.42,1.52,1.5L436.63,38.52z"/>
	<path class="st0" d="M452.01,36.95c-1.72,4.55-3.52,6.2-5.65,7.02l-2.25-2.25c1.83-0.7,3.22-2.02,4.15-4.42l-4.07-10.55h3.55
		l1.65,4.4c0.25,0.65,0.5,1.42,0.67,2.22h0.05c0.22-0.77,0.47-1.57,0.72-2.22l1.65-4.4h3.37L452.01,36.95z"/>
	<path class="st0" d="M462.33,38.42c-3.42,0-6.17-2.42-6.17-6.02s2.75-6.02,6.17-6.02c3.4,0,6.17,2.42,6.17,6.02
		S465.73,38.42,462.33,38.42z M462.33,29.57c-1.38,0-2.55,1.2-2.55,2.87c0,1.67,1.17,2.87,2.55,2.87c1.35,0,2.55-1.2,2.55-2.87
		C464.88,30.77,463.68,29.57,462.33,29.57z"/>
	<path class="st0" d="M477.76,38.07v-1.55h-0.03c-0.45,1.2-1.65,1.87-3.47,1.87c-2.47,0-3.97-1.37-3.97-3.77v-7.87h3.67v6.95
		c0,0.82,0.58,1.55,1.7,1.55c1.1,0,1.77-0.73,1.77-1.62v-6.87h3.67v11.32H477.76z"/>
	<path class="st0" d="M494.51,38.4c-2.4,0-4.35-0.82-5.45-1.67V20.27h3.55v6.87c0.47-0.38,1.67-0.75,2.85-0.75
		c3.12,0,5.7,2.22,5.7,5.8C501.16,35.7,498.93,38.4,494.51,38.4z M494.81,29.62c-1.05,0-1.85,0.5-2.2,0.87v4.32
		c0.38,0.27,1.15,0.55,1.85,0.55c1.87,0,3.05-1.27,3.05-2.92C497.51,30.87,496.41,29.62,494.81,29.62z"/>
	<path class="st0" d="M513.36,31.77l-1.62,1.65h-5.55c0.17,0.92,1.42,1.97,3.35,1.97c1.17,0,2.37-0.35,3.12-0.85l-0.35,3.15
		c-0.85,0.45-2.15,0.75-3.6,0.75c-3.45,0-6.22-2.4-6.22-6.1c0-3.65,2.65-5.97,5.9-5.97c3.15,0,5.07,2.17,5.07,4.52
		C513.46,31.17,513.41,31.55,513.36,31.77z M508.38,29.12c-1.08,0-1.97,0.82-2.2,1.85h3.82c0-0.08,0.03-0.15,0.03-0.25
		C510.03,29.95,509.36,29.12,508.38,29.12z"/>
</g>
<g>
	<path class="st0" d="M333.63,56.65c-0.23-0.12-0.72-0.28-1.1-0.28c-1.17,0-2.25,0.62-2.25,2.42v5.27h-3.67V52.75h3.62v2.52h0.03
		c0.37-1.77,1.7-2.72,3.22-2.72c0.35,0,0.77,0.05,1.05,0.15L333.63,56.65z"/>
	<path class="st0" d="M345.91,57.77l-1.62,1.65h-5.55c0.17,0.92,1.42,1.97,3.35,1.97c1.17,0,2.37-0.35,3.12-0.85l-0.35,3.15
		c-0.85,0.45-2.15,0.75-3.6,0.75c-3.45,0-6.22-2.4-6.22-6.1c0-3.65,2.65-5.97,5.9-5.97c3.15,0,5.07,2.17,5.07,4.52
		C346.01,57.17,345.96,57.55,345.91,57.77z M340.94,55.12c-1.07,0-1.97,0.82-2.2,1.85h3.82c0-0.07,0.03-0.15,0.03-0.25
		C342.58,55.95,341.91,55.12,340.94,55.12z"/>
	<path class="st0" d="M355.66,64.57c-0.67-0.15-1.45-0.67-1.75-1.5c-0.5,0.92-1.57,1.38-2.95,1.38c-2,0-3.77-1.4-3.77-3.75
		c0-2.07,1.62-3.47,3.87-3.7l2.25-0.22V56.4c0-0.67-0.55-1.12-1.77-1.12c-1.1,0-2.32,0.35-3.15,0.88l-0.65-2.77
		c0.92-0.6,2.47-1,3.97-1c3,0,5.12,1.38,5.12,4.1v3.7c0,1.33,0.5,2.02,1.38,2.35L355.66,64.57z M353.31,59.12l-1.37,0.12
		c-0.95,0.08-1.38,0.75-1.38,1.42c0,0.6,0.45,1.1,1.15,1.1c0.87,0,1.6-0.67,1.6-1.65V59.12z"/>
	<path class="st0" d="M367.81,64.07v-1.4h-0.02c-0.62,1.15-1.92,1.72-3.5,1.72c-2.77,0-5.45-2.1-5.45-5.97
		c0-3.65,2.6-6.02,5.75-6.02c1.2,0,2.42,0.4,2.87,0.77v-6.9h3.57v17.8H367.81z M367.46,56.65c-0.35-0.47-1.1-1.02-2.22-1.02
		c-1.6,0-2.72,1.25-2.72,2.87c0,1.62,1.12,2.87,2.72,2.87c1.08,0,1.82-0.58,2.22-1.17V56.65z"/>
	<path class="st0" d="M380.18,62.95c-1.72,4.55-3.52,6.2-5.65,7.02l-2.25-2.25c1.83-0.7,3.22-2.02,4.15-4.42l-4.07-10.55h3.55
		l1.65,4.4c0.25,0.65,0.5,1.42,0.67,2.22h0.05c0.22-0.77,0.47-1.57,0.72-2.22l1.65-4.4h3.37L380.18,62.95z"/>
	<path class="st0" d="M398.63,55.75h-2.95v4.2c0,0.97,0.52,1.38,1.5,1.38c0.42,0,0.67-0.03,0.95-0.15l-0.33,2.77
		c-0.35,0.17-0.97,0.3-1.7,0.3c-2.55,0-4.07-1.35-4.07-3.6v-4.9h-1.9v-3h1.9v-2.42l3.65-1.33v3.75h3.65L398.63,55.75z"/>
	<path class="st0" d="M406.01,64.42c-3.42,0-6.17-2.42-6.17-6.02c0-3.6,2.75-6.02,6.17-6.02c3.4,0,6.17,2.42,6.17,6.02
		C412.18,62,409.41,64.42,406.01,64.42z M406.01,55.57c-1.38,0-2.55,1.2-2.55,2.87c0,1.67,1.17,2.88,2.55,2.88
		c1.35,0,2.55-1.2,2.55-2.88C408.56,56.77,407.36,55.57,406.01,55.57z"/>
	<path class="st0" d="M426.63,56.65c-0.22-0.12-0.72-0.28-1.1-0.28c-1.17,0-2.25,0.62-2.25,2.42v5.27h-3.67V52.75h3.62v2.52h0.03
		c0.38-1.77,1.7-2.72,3.22-2.72c0.35,0,0.78,0.05,1.05,0.15L426.63,56.65z"/>
	<path class="st0" d="M438.88,57.77l-1.62,1.65h-5.55c0.17,0.92,1.42,1.97,3.35,1.97c1.17,0,2.37-0.35,3.12-0.85l-0.35,3.15
		c-0.85,0.45-2.15,0.75-3.6,0.75c-3.45,0-6.22-2.4-6.22-6.1c0-3.65,2.65-5.97,5.9-5.97c3.15,0,5.07,2.17,5.07,4.52
		C438.98,57.17,438.93,57.55,438.88,57.77z M433.91,55.12c-1.08,0-1.97,0.82-2.2,1.85h3.82c0-0.07,0.03-0.15,0.03-0.25
		C435.56,55.95,434.88,55.12,433.91,55.12z"/>
	<path class="st0" d="M448.46,55.75h-2.95v4.2c0,0.97,0.52,1.38,1.5,1.38c0.42,0,0.67-0.03,0.95-0.15l-0.33,2.77
		c-0.35,0.17-0.97,0.3-1.7,0.3c-2.55,0-4.07-1.35-4.07-3.6v-4.9h-1.9v-3h1.9v-2.42l3.65-1.33v3.75h3.65L448.46,55.75z"/>
	<path class="st0" d="M452.33,51.2c-0.65,0-1.97-1.32-1.97-1.97c0-0.65,1.33-1.95,1.97-1.95s1.97,1.3,1.97,1.95
		C454.31,49.87,452.98,51.2,452.33,51.2z M450.48,64.07V52.75h3.7v11.32H450.48z"/>
	<path class="st0" d="M463.58,56.65c-0.22-0.12-0.72-0.28-1.1-0.28c-1.17,0-2.25,0.62-2.25,2.42v5.27h-3.67V52.75h3.62v2.52h0.03
		c0.38-1.77,1.7-2.72,3.22-2.72c0.35,0,0.78,0.05,1.05,0.15L463.58,56.65z"/>
	<path class="st0" d="M475.83,57.77l-1.62,1.65h-5.55c0.17,0.92,1.42,1.97,3.35,1.97c1.17,0,2.37-0.35,3.12-0.85l-0.35,3.15
		c-0.85,0.45-2.15,0.75-3.6,0.75c-3.45,0-6.22-2.4-6.22-6.1c0-3.65,2.65-5.97,5.9-5.97c3.15,0,5.07,2.17,5.07,4.52
		C475.93,57.17,475.88,57.55,475.83,57.77z M470.86,55.12c-1.08,0-1.97,0.82-2.2,1.85h3.82c0-0.07,0.03-0.15,0.03-0.25
		C472.51,55.95,471.83,55.12,470.86,55.12z"/>
	<path class="st0" d="M482.86,56.22c-0.62,0.7-0.87,1.3-0.87,1.97c0,0.35,0.02,0.78,0.1,1.1l-3.15-0.62
		c-0.12-0.5-0.17-0.88-0.17-1.28c0-1.35,0.52-2.47,1.45-3.45c0.65-0.67,0.98-1.15,0.98-1.88c0-0.52-0.5-1.12-1.38-1.12
		c-0.9,0-1.7,0.32-2.55,0.82l-0.75-3.1c0.92-0.57,2.15-0.95,3.57-0.95c2.95,0,4.9,1.7,4.9,4.22
		C484.98,53.45,484.33,54.62,482.86,56.22z M480.58,64.42c-0.67,0-2.07-1.4-2.07-2.07c0-0.65,1.4-2.05,2.07-2.05s2.08,1.4,2.08,2.05
		C482.66,63.02,481.28,64.42,480.58,64.42z"/>
</g>
</svg>
