<?xml version="1.0" encoding="utf-8"?>
<!-- Generator: Adobe Illustrator 24.0.0, SVG Export Plug-In . SVG Version: 6.00 Build 0)  -->
<svg version="1.1" id="Layer_1" xmlns="http://www.w3.org/2000/svg" xmlns:xlink="http://www.w3.org/1999/xlink" x="0px" y="0px"
	 viewBox="0 0 728 90" style="enable-background:new 0 0 728 90;" xml:space="preserve">
<style type="text/css">
	.st0{fill:#F8DF1F;}
</style>
<g>
	<path class="st0" d="M86.17,45.97H83.7l-2.32-7.05c-0.35-1.05-0.67-2.15-1.05-3.55h-0.05c-0.35,1.38-0.7,2.52-1.05,3.55l-2.32,7.05
		h-2.42l-5.32-16.05h3.77L75,36.38c0.3,0.97,0.62,2,0.87,3.2h0.05c0.22-1.2,0.52-2.2,0.85-3.2l2.1-6.45h3.32l2.07,6.42
		c0.3,0.9,0.6,2.05,0.85,3.22h0.05c0.2-1.15,0.55-2.3,0.85-3.2l2.12-6.45h3.35L86.17,45.97z"/>
	<path class="st0" d="M94.75,33c-0.65,0-1.97-1.32-1.97-1.97s1.32-1.95,1.97-1.95s1.97,1.3,1.97,1.95S95.4,33,94.75,33z M92.9,45.88
		V34.55h3.7v11.32H92.9z"/>
	<path class="st0" d="M102.9,46.33c-2.32-0.1-3.87-1.3-3.87-4.02V28.08h3.62v13.77c0,0.92,0.52,1.42,1.52,1.5L102.9,46.33z"/>
	<path class="st0" d="M109.48,46.33c-2.32-0.1-3.87-1.3-3.87-4.02V28.08h3.62v13.77c0,0.92,0.52,1.42,1.52,1.5L109.48,46.33z"/>
	<path class="st0" d="M124.85,44.75c-1.72,4.55-3.52,6.2-5.65,7.02l-2.25-2.25c1.82-0.7,3.22-2.02,4.15-4.42l-4.07-10.55h3.55
		l1.65,4.4c0.25,0.65,0.5,1.42,0.67,2.22h0.05c0.23-0.77,0.48-1.57,0.73-2.22l1.65-4.4h3.37L124.85,44.75z"/>
	<path class="st0" d="M135.18,46.22c-3.42,0-6.17-2.42-6.17-6.02s2.75-6.02,6.17-6.02c3.4,0,6.17,2.42,6.17,6.02
		S138.58,46.22,135.18,46.22z M135.18,37.38c-1.37,0-2.55,1.2-2.55,2.87c0,1.67,1.17,2.87,2.55,2.87c1.35,0,2.55-1.2,2.55-2.87
		C137.73,38.58,136.53,37.38,135.18,37.38z"/>
	<path class="st0" d="M150.6,45.88v-1.55h-0.02c-0.45,1.2-1.65,1.88-3.47,1.88c-2.47,0-3.97-1.38-3.97-3.77v-7.87h3.67v6.95
		c0,0.82,0.57,1.55,1.7,1.55c1.1,0,1.77-0.73,1.77-1.62v-6.87h3.67v11.32H150.6z"/>
	<path class="st0" d="M163.33,38.45c-0.23-0.12-0.73-0.27-1.1-0.27c-1.17,0-2.25,0.62-2.25,2.42v5.27h-3.67V34.55h3.62v2.52h0.03
		c0.37-1.77,1.7-2.72,3.22-2.72c0.35,0,0.77,0.05,1.05,0.15L163.33,38.45z"/>
	<path class="st0" d="M178.13,38.45c-0.23-0.12-0.73-0.27-1.1-0.27c-1.17,0-2.25,0.62-2.25,2.42v5.27h-3.67V34.55h3.62v2.52h0.03
		c0.37-1.77,1.7-2.72,3.22-2.72c0.35,0,0.77,0.05,1.05,0.15L178.13,38.45z"/>
	<path class="st0" d="M190.4,39.58l-1.62,1.65h-5.55c0.17,0.92,1.42,1.97,3.35,1.97c1.17,0,2.37-0.35,3.12-0.85l-0.35,3.15
		c-0.85,0.45-2.15,0.75-3.6,0.75c-3.45,0-6.22-2.4-6.22-6.1c0-3.65,2.65-5.97,5.9-5.97c3.15,0,5.07,2.17,5.07,4.52
		C190.5,38.98,190.45,39.35,190.4,39.58z M185.43,36.93c-1.07,0-1.97,0.82-2.2,1.85h3.82c0-0.08,0.02-0.15,0.02-0.25
		C187.08,37.75,186.4,36.93,185.43,36.93z"/>
	<path class="st0" d="M199.98,37.55h-2.95v4.2c0,0.97,0.52,1.37,1.5,1.37c0.43,0,0.67-0.02,0.95-0.15l-0.33,2.77
		c-0.35,0.17-0.97,0.3-1.7,0.3c-2.55,0-4.07-1.35-4.07-3.6v-4.9h-1.9v-3h1.9v-2.42l3.65-1.32v3.75h3.65L199.98,37.55z"/>
	<path class="st0" d="M203.85,33c-0.65,0-1.97-1.32-1.97-1.97s1.32-1.95,1.97-1.95s1.97,1.3,1.97,1.95S204.5,33,203.85,33z
		 M202,45.88V34.55h3.7v11.32H202z"/>
	<path class="st0" d="M215.1,38.45c-0.23-0.12-0.72-0.27-1.1-0.27c-1.17,0-2.25,0.62-2.25,2.42v5.27h-3.67V34.55h3.62v2.52h0.03
		c0.37-1.77,1.7-2.72,3.22-2.72c0.35,0,0.77,0.05,1.05,0.15L215.1,38.45z"/>
	<path class="st0" d="M227.37,39.58l-1.62,1.65h-5.55c0.17,0.92,1.42,1.97,3.35,1.97c1.17,0,2.37-0.35,3.12-0.85l-0.35,3.15
		c-0.85,0.45-2.15,0.75-3.6,0.75c-3.45,0-6.22-2.4-6.22-6.1c0-3.65,2.65-5.97,5.9-5.97c3.15,0,5.07,2.17,5.07,4.52
		C227.47,38.98,227.42,39.35,227.37,39.58z M222.4,36.93c-1.07,0-1.97,0.82-2.2,1.85h3.82c0-0.08,0.03-0.15,0.03-0.25
		C224.05,37.75,223.37,36.93,222.4,36.93z"/>
	<path class="st0" d="M243.22,45.88v-6.95c0-0.82-0.4-1.55-1.6-1.55c-1.17,0-1.7,0.7-1.7,1.6v6.9h-3.67v-6.95
		c0-0.82-0.4-1.55-1.6-1.55c-1.17,0-1.7,0.7-1.7,1.6v6.9h-3.67V34.55h3.4v1.52h0.02c0.45-1.2,1.57-1.87,3.35-1.87
		c1.62,0,2.85,0.65,3.35,1.85c0.48-1.1,1.8-1.85,3.5-1.85c2.57,0,4,1.4,4,3.8v7.87H243.22z"/>
	<path class="st0" d="M259.6,39.58l-1.62,1.65h-5.55c0.17,0.92,1.42,1.97,3.35,1.97c1.17,0,2.37-0.35,3.12-0.85l-0.35,3.15
		c-0.85,0.45-2.15,0.75-3.6,0.75c-3.45,0-6.22-2.4-6.22-6.1c0-3.65,2.65-5.97,5.9-5.97c3.15,0,5.07,2.17,5.07,4.52
		C259.7,38.98,259.65,39.35,259.6,39.58z M254.62,36.93c-1.07,0-1.97,0.82-2.2,1.85h3.82c0-0.08,0.03-0.15,0.03-0.25
		C256.27,37.75,255.6,36.93,254.62,36.93z"/>
	<path class="st0" d="M268.65,45.88v-6.95c0-0.82-0.55-1.55-1.67-1.55c-1.1,0-1.8,0.7-1.8,1.6v6.9h-3.67V34.55h3.37v1.52h0.02
		c0.45-1.2,1.62-1.87,3.45-1.87c2.47,0,3.97,1.4,3.97,3.8v7.87H268.65z"/>
	<path class="st0" d="M282.07,37.55h-2.95v4.2c0,0.97,0.52,1.37,1.5,1.37c0.43,0,0.67-0.02,0.95-0.15l-0.33,2.77
		c-0.35,0.17-0.97,0.3-1.7,0.3c-2.55,0-4.07-1.35-4.07-3.6v-4.9h-1.9v-3h1.9v-2.42l3.65-1.32v3.75h3.65L282.07,37.55z"/>
	<path class="st0" d="M293.35,46.12c-1.55,0-2.67-0.33-3.6-0.8l-0.32-3.25c1,0.7,2.3,1.22,3.55,1.22c0.67,0,1.1-0.35,1.1-0.77
		c0-0.48-0.37-0.67-1.02-0.88c-2.17-0.62-3.47-1.72-3.47-3.7c0-2.22,1.8-3.65,4.25-3.65c1.4,0,2.77,0.38,3.35,0.67l-0.62,2.7
		c-0.55-0.3-1.45-0.62-2.35-0.62c-0.6,0-1,0.27-1,0.72c0,0.42,0.3,0.65,1,0.82c2.55,0.67,3.6,1.95,3.6,3.85
		C297.8,44.38,296.4,46.12,293.35,46.12z"/>
	<path class="st0" d="M307.57,46.38c-0.67-0.15-1.45-0.67-1.75-1.5c-0.5,0.92-1.57,1.38-2.95,1.38c-2,0-3.77-1.4-3.77-3.75
		c0-2.07,1.62-3.47,3.87-3.7l2.25-0.23V38.2c0-0.67-0.55-1.12-1.77-1.12c-1.1,0-2.32,0.35-3.15,0.88l-0.65-2.77
		c0.92-0.6,2.47-1,3.97-1c3,0,5.12,1.38,5.12,4.1v3.7c0,1.32,0.5,2.02,1.38,2.35L307.57,46.38z M305.22,40.93l-1.37,0.12
		c-0.95,0.07-1.38,0.75-1.38,1.42c0,0.6,0.45,1.1,1.15,1.1c0.87,0,1.6-0.67,1.6-1.65V40.93z"/>
	<path class="st0" d="M316.95,45.97h-2.75l-4.35-11.42h3.55l1.6,4.32c0.23,0.6,0.45,1.45,0.62,2.2h0.05c0.17-0.72,0.42-1.6,0.65-2.2
		l1.6-4.32h3.4L316.95,45.97z"/>
	<path class="st0" d="M324.52,33c-0.65,0-1.97-1.32-1.97-1.97s1.32-1.95,1.97-1.95s1.97,1.3,1.97,1.95S325.17,33,324.52,33z
		 M322.67,45.88V34.55h3.7v11.32H322.67z"/>
	<path class="st0" d="M335.9,45.88v-6.95c0-0.82-0.55-1.55-1.67-1.55c-1.1,0-1.8,0.7-1.8,1.6v6.9h-3.67V34.55h3.37v1.52h0.02
		c0.45-1.2,1.62-1.87,3.45-1.87c2.47,0,3.97,1.4,3.97,3.8v7.87H335.9z"/>
	<path class="st0" d="M346.67,51.65c-3.3,0-5.5-1.87-5.5-4.25c0-1.72,1.15-2.75,2.32-3.05l-1.45-1.45c0.1-0.73,0.73-1.35,1.38-1.62
		c-0.85-0.52-1.65-1.6-1.65-3.02c0-2.4,1.72-4.07,4.67-4.07c0.67,0,1.2,0.1,1.67,0.23c0.5,0.12,1.05,0.2,1.62,0.2
		c0.62,0,1.27-0.15,1.77-0.37l0.67,2.8c-0.35,0.2-0.9,0.37-1.4,0.35c0.12,0.23,0.27,0.75,0.27,1.15c0,1.9-1.5,3.5-3.7,3.65
		c-0.45,0.02-0.75,0.12-0.75,0.42c0,0.12,0.1,0.28,0.3,0.35l1.75,0.62c2.22,0.8,3.42,1.92,3.42,4
		C352.1,49.9,349.97,51.65,346.67,51.65z M347.45,46.33l-1.35-0.38c-0.88,0.02-1.52,0.65-1.52,1.47c0,0.77,0.67,1.42,2,1.42
		c1.3,0,2-0.6,2-1.25C348.57,47.07,348.17,46.52,347.45,46.33z M346.45,36.85c-0.82,0-1.45,0.62-1.45,1.35
		c0,0.75,0.62,1.35,1.45,1.35c0.8,0,1.45-0.6,1.45-1.35C347.9,37.48,347.3,36.85,346.45,36.85z"/>
	<path class="st0" d="M357.25,46.12c-1.55,0-2.67-0.33-3.6-0.8l-0.32-3.25c1,0.7,2.3,1.22,3.55,1.22c0.67,0,1.1-0.35,1.1-0.77
		c0-0.48-0.37-0.67-1.02-0.88c-2.17-0.62-3.47-1.72-3.47-3.7c0-2.22,1.8-3.65,4.25-3.65c1.4,0,2.77,0.38,3.35,0.67l-0.62,2.7
		c-0.55-0.3-1.45-0.62-2.35-0.62c-0.6,0-1,0.27-1,0.72c0,0.42,0.3,0.65,1,0.82c2.55,0.67,3.6,1.95,3.6,3.85
		C361.7,44.38,360.3,46.12,357.25,46.12z"/>
	<path class="st0" d="M374.65,46.2c-2.4,0-4.35-0.83-5.45-1.67V28.08h3.55v6.87c0.47-0.38,1.67-0.75,2.85-0.75
		c3.12,0,5.7,2.22,5.7,5.8C381.3,43.5,379.07,46.2,374.65,46.2z M374.95,37.43c-1.05,0-1.85,0.5-2.2,0.87v4.32
		c0.38,0.27,1.15,0.55,1.85,0.55c1.87,0,3.05-1.27,3.05-2.92C377.65,38.68,376.55,37.43,374.95,37.43z"/>
	<path class="st0" d="M393.5,39.58l-1.62,1.65h-5.55c0.17,0.92,1.42,1.97,3.35,1.97c1.17,0,2.37-0.35,3.12-0.85l-0.35,3.15
		c-0.85,0.45-2.15,0.75-3.6,0.75c-3.45,0-6.22-2.4-6.22-6.1c0-3.65,2.65-5.97,5.9-5.97c3.15,0,5.07,2.17,5.07,4.52
		C393.6,38.98,393.55,39.35,393.5,39.58z M388.52,36.93c-1.08,0-1.97,0.82-2.2,1.85h3.82c0-0.08,0.03-0.15,0.03-0.25
		C390.17,37.75,389.5,36.93,388.52,36.93z"/>
	<path class="st0" d="M408,38.45c-0.22-0.12-0.72-0.27-1.1-0.27c-1.17,0-2.25,0.62-2.25,2.42v5.27h-3.67V34.55h3.62v2.52h0.03
		c0.38-1.77,1.7-2.72,3.22-2.72c0.35,0,0.78,0.05,1.05,0.15L408,38.45z"/>
	<path class="st0" d="M420.27,39.58l-1.62,1.65h-5.55c0.17,0.92,1.42,1.97,3.35,1.97c1.17,0,2.37-0.35,3.12-0.85l-0.35,3.15
		c-0.85,0.45-2.15,0.75-3.6,0.75c-3.45,0-6.22-2.4-6.22-6.1c0-3.65,2.65-5.97,5.9-5.97c3.15,0,5.07,2.17,5.07,4.52
		C420.37,38.98,420.32,39.35,420.27,39.58z M415.3,36.93c-1.08,0-1.97,0.82-2.2,1.85h3.82c0-0.08,0.03-0.15,0.03-0.25
		C416.95,37.75,416.27,36.93,415.3,36.93z"/>
	<path class="st0" d="M430.02,46.38c-0.67-0.15-1.45-0.67-1.75-1.5c-0.5,0.92-1.57,1.38-2.95,1.38c-2,0-3.77-1.4-3.77-3.75
		c0-2.07,1.62-3.47,3.87-3.7l2.25-0.23V38.2c0-0.67-0.55-1.12-1.77-1.12c-1.1,0-2.32,0.35-3.15,0.88l-0.65-2.77
		c0.92-0.6,2.47-1,3.97-1c3,0,5.12,1.38,5.12,4.1v3.7c0,1.32,0.5,2.02,1.37,2.35L430.02,46.38z M427.67,40.93l-1.38,0.12
		c-0.95,0.07-1.37,0.75-1.37,1.42c0,0.6,0.45,1.1,1.15,1.1c0.88,0,1.6-0.67,1.6-1.65V40.93z"/>
	<path class="st0" d="M442.17,45.88v-1.4h-0.02c-0.62,1.15-1.92,1.72-3.5,1.72c-2.77,0-5.45-2.1-5.45-5.97
		c0-3.65,2.6-6.02,5.75-6.02c1.2,0,2.42,0.4,2.87,0.77v-6.9h3.57v17.8H442.17z M441.82,38.45c-0.35-0.47-1.1-1.02-2.22-1.02
		c-1.6,0-2.72,1.25-2.72,2.87s1.12,2.87,2.72,2.87c1.08,0,1.82-0.58,2.22-1.17V38.45z"/>
	<path class="st0" d="M454.55,44.75c-1.72,4.55-3.52,6.2-5.65,7.02l-2.25-2.25c1.83-0.7,3.22-2.02,4.15-4.42l-4.07-10.55h3.55
		l1.65,4.4c0.25,0.65,0.5,1.42,0.67,2.22h0.05c0.22-0.77,0.47-1.57,0.72-2.22l1.65-4.4h3.37L454.55,44.75z"/>
	<path class="st0" d="M459.32,49.62l-1.15-0.2c0.85-0.97,1.5-2.4,1.65-3.52c-0.62-0.12-1.65-1.2-1.65-1.75
		c0-0.72,1.42-2.05,2.07-2.05c0.58,0,2.07,1.27,2.07,2.05C462.32,45.72,460.8,48.27,459.32,49.62z"/>
	<path class="st0" d="M477.37,37.55h-2.95v4.2c0,0.97,0.52,1.37,1.5,1.37c0.42,0,0.67-0.02,0.95-0.15l-0.33,2.77
		c-0.35,0.17-0.97,0.3-1.7,0.3c-2.55,0-4.07-1.35-4.07-3.6v-4.9h-1.9v-3h1.9v-2.42l3.65-1.32v3.75h3.65L477.37,37.55z"/>
	<path class="st0" d="M484.77,46.22c-3.42,0-6.17-2.42-6.17-6.02s2.75-6.02,6.17-6.02c3.4,0,6.17,2.42,6.17,6.02
		S488.17,46.22,484.77,46.22z M484.77,37.38c-1.38,0-2.55,1.2-2.55,2.87c0,1.67,1.17,2.87,2.55,2.87c1.35,0,2.55-1.2,2.55-2.87
		C487.32,38.58,486.12,37.38,484.77,37.38z"/>
	<path class="st0" d="M498.4,46.22c-3.42,0-6.17-2.42-6.17-6.02s2.75-6.02,6.17-6.02c3.4,0,6.17,2.42,6.17,6.02
		S501.79,46.22,498.4,46.22z M498.4,37.38c-1.38,0-2.55,1.2-2.55,2.87c0,1.67,1.17,2.87,2.55,2.87c1.35,0,2.55-1.2,2.55-2.87
		C500.94,38.58,499.75,37.38,498.4,37.38z"/>
	<path class="st0" d="M511.42,38.03c-0.62,0.7-0.87,1.3-0.87,1.97c0,0.35,0.02,0.77,0.1,1.1l-3.15-0.62
		c-0.12-0.5-0.17-0.88-0.17-1.27c0-1.35,0.52-2.47,1.45-3.45c0.65-0.67,0.98-1.15,0.98-1.87c0-0.52-0.5-1.12-1.38-1.12
		c-0.9,0-1.7,0.32-2.55,0.82l-0.75-3.1c0.92-0.57,2.15-0.95,3.57-0.95c2.95,0,4.9,1.7,4.9,4.22
		C513.54,35.25,512.89,36.43,511.42,38.03z M509.15,46.22c-0.67,0-2.07-1.4-2.07-2.07c0-0.65,1.4-2.05,2.07-2.05s2.08,1.4,2.08,2.05
		C511.22,44.83,509.85,46.22,509.15,46.22z"/>
</g>
</svg>
