<?xml version="1.0" encoding="utf-8"?>
<!-- Generator: Adobe Illustrator 24.0.0, SVG Export Plug-In . SVG Version: 6.00 Build 0)  -->
<svg version="1.1" id="Layer_1" xmlns="http://www.w3.org/2000/svg" xmlns:xlink="http://www.w3.org/1999/xlink" x="0px" y="0px"
	 viewBox="0 0 728 90" style="enable-background:new 0 0 728 90;" xml:space="preserve">
<style type="text/css">
	.st0{fill:#28BDEF;}
</style>
<path class="st0" d="M605.46,51.26c-5.23,0-9.46,4.24-9.46,9.46v9.3c0,5.22,4.23,9.46,9.46,9.46h88.64c5.22,0,9.46-4.24,9.46-9.46
	v-9.3c0-5.22-4.24-9.46-9.46-9.46H605.46z"/>
<g>
	<path d="M625.43,60.95c1.15,0,2.14,0.07,3.02,0.9c0.86,0.81,1.23,1.92,1.23,3.07c0,1.07-0.33,2.11-1.04,2.91
		c-0.79,0.87-1.77,1.11-2.9,1.11h-2.63v-7.99H625.43z M624.98,67.43h0.63c0.78,0,1.28-0.15,1.71-0.85c0.31-0.51,0.44-1.13,0.44-1.72
		c0-0.63-0.19-1.3-0.57-1.8c-0.43-0.56-0.91-0.64-1.57-0.64h-0.64V67.43z"/>
	<path d="M632.72,68.94h-1.86v-7.99h1.86V68.94z"/>
	<path d="M638.36,63.23c-0.23-0.67-0.66-0.94-1.37-0.94c-0.5,0-1.11,0.13-1.11,0.75c0,0.58,0.7,0.72,1.15,0.8
		c0.65,0.14,1.53,0.3,2.08,0.68c0.65,0.43,1.05,1.09,1.05,1.89c0,0.78-0.37,1.53-0.99,2c-0.64,0.5-1.51,0.65-2.32,0.65
		c-1.5,0-2.86-0.65-3.22-2.21l1.72-0.4c0.23,0.84,0.84,1.13,1.67,1.13c0.54,0,1.25-0.2,1.25-0.86c0-0.66-0.91-0.79-1.4-0.9
		c-1.42-0.29-2.82-0.71-2.82-2.46c0-0.75,0.29-1.4,0.86-1.87c0.58-0.49,1.27-0.65,2-0.65c1.4,0,2.54,0.49,3.03,1.88L638.36,63.23z"
		/>
	<path d="M645.81,64.05c-0.01-0.88-0.31-1.71-1.34-1.71c-1.32,0-1.44,1.72-1.44,2.69c0,1.09,0.13,2.5,1.54,2.5
		c0.87,0,1.28-0.73,1.39-1.5l1.82,0.12c-0.2,1.83-1.46,2.91-3.29,2.91c-2.38,0-3.53-1.93-3.53-4.11c0-2.21,1.19-4.11,3.59-4.11
		c2,0,3.03,1.17,3.24,3.09L645.81,64.05z"/>
	<path d="M649.49,67.79c-0.58-0.83-0.84-1.86-0.84-2.86c0-2.12,1.06-4.1,3.42-4.1c1.06,0,1.9,0.35,2.54,1.22
		c0.57,0.78,0.86,1.91,0.86,2.88c0,0.91-0.25,2.01-0.76,2.77c-0.62,0.91-1.56,1.35-2.64,1.35
		C650.99,69.05,650.12,68.68,649.49,67.79z M650.86,63.27c-0.19,0.48-0.26,1.16-0.26,1.67c0,1,0.15,2.6,1.47,2.6
		c0.64,0,0.99-0.31,1.2-0.91c0.19-0.49,0.25-1.15,0.25-1.68c0-0.58-0.06-1.27-0.29-1.8c-0.23-0.54-0.57-0.78-1.15-0.78
		C651.43,62.36,651.08,62.68,650.86,63.27z"/>
	<path d="M660.22,68.94h-2.01l-2.4-7.99h1.99l1.61,5.7l1.65-5.7h1.57L660.22,68.94z"/>
	<path d="M665.3,62.5v1.62h3.03v1.5h-3.03v1.77h3.84v1.55h-5.71v-7.99h5.71v1.55H665.3z"/>
	<path d="M672.09,68.94h-1.86v-7.99h3.36c0.71,0,1.43,0.01,2.05,0.41c0.65,0.43,1.01,1.21,1.01,1.99c0,0.91-0.52,1.75-1.39,2.06
		l1.48,3.53h-2.07l-1.22-3.16h-1.36V68.94z M672.09,64.41h1.03c0.38,0,0.8,0.04,1.14-0.16c0.3-0.19,0.47-0.56,0.47-0.91
		c0-0.31-0.19-0.65-0.45-0.82c-0.31-0.2-0.85-0.15-1.2-0.15h-0.98V64.41z"/>
</g>
</svg>
