<?xml version="1.0" encoding="utf-8"?>
<!-- Generator: Adobe Illustrator 24.0.0, SVG Export Plug-In . SVG Version: 6.00 Build 0)  -->
<svg version="1.1" id="Layer_1" xmlns="http://www.w3.org/2000/svg" xmlns:xlink="http://www.w3.org/1999/xlink" x="0px" y="0px"
	 viewBox="0 0 728 90" style="enable-background:new 0 0 728 90;" xml:space="preserve">
<style type="text/css">
	.st0{fill:#FFFFFF;}
	.st1{fill:#000001;}
</style>
<path class="st0" d="M136.59,58.11h-1.85c-0.94,0-1.7,0.96-1.7,1.83v-2.87c0-0.86-0.76-1.83-1.7-1.83h-1.85
	c-0.94,0-1.7,0.97-1.7,1.83v-1.83c0-0.86-0.76-1.83-1.7-1.83h-1.85c-0.94,0-1.7,0.97-1.7,1.83v-7.09c0-1.33-1.17-2.4-2.62-2.4
	c-1.45,0-2.62,1.08-2.62,2.4v13.98c-1.63-1.12-4-3.14-6.18-2.19c-1.55,0.68-1.2,2.76,0.35,4.3c2.71,2.7,5.56,8.07,6.61,11.16
	c1.66,4.87,2.6,7.01,2.6,7.01h14c0,0,1.55-5,3.02-8.04c0.17-0.36,0.55-1.06,0.55-3.49v-4.93v-6.01
	C138.29,59.07,137.53,58.11,136.59,58.11"/>
<path class="st1" d="M121.34,81.47h12.7c0.48-1.47,1.69-5.07,2.86-7.51c0.16-0.33,0.46-0.94,0.46-3.09V59.93
	c0-0.38-0.38-0.89-0.76-0.89h-1.85c-0.38,0-0.76,0.51-0.76,0.89c0,0.52-0.42,0.94-0.94,0.94s-0.94-0.42-0.94-0.94v-2.87
	c0-0.38-0.38-0.89-0.76-0.89h-1.85c-0.39,0-0.76,0.51-0.76,0.89c0,0.52-0.42,0.94-0.94,0.94c-0.52,0-0.94-0.42-0.94-0.94v-1.83
	c0-0.38-0.38-0.89-0.76-0.89h-1.85c-0.39,0-0.76,0.51-0.76,0.89c0,0.52-0.42,0.94-0.94,0.94s-0.94-0.42-0.94-0.94v-7.09
	c0-0.81-0.75-1.47-1.68-1.47s-1.68,0.66-1.68,1.47v13.98c0,0.35-0.19,0.67-0.5,0.83c-0.31,0.16-0.68,0.14-0.97-0.06
	c-0.19-0.13-0.39-0.28-0.61-0.43c-1.15-0.82-2.58-1.85-3.85-1.85c-0.29,0-0.56,0.06-0.82,0.17c-0.25,0.11-0.38,0.26-0.42,0.5
	c-0.1,0.51,0.19,1.42,1.06,2.28c2.72,2.72,5.67,8.1,6.84,11.52C120.15,78.49,120.96,80.55,121.34,81.47 M134.72,83.34h-14
	c-0.37,0-0.71-0.22-0.86-0.56c-0.04-0.09-0.98-2.24-2.63-7.08c-0.96-2.81-3.71-8.12-6.39-10.8c-1.2-1.21-1.81-2.72-1.58-3.96
	c0.16-0.85,0.7-1.51,1.51-1.87c0.49-0.21,1.02-0.32,1.57-0.32c1.48,0,2.86,0.77,4.05,1.57V48.15c0-1.84,1.6-3.34,3.56-3.34
	s3.56,1.5,3.56,3.34v4.46c0.24-0.08,0.5-0.13,0.76-0.13h1.85c1.22,0,2.19,0.95,2.51,2c0.27-0.11,0.57-0.17,0.88-0.17h1.85
	c1.51,0,2.63,1.46,2.63,2.76v0.24c0.24-0.08,0.49-0.13,0.76-0.13h1.85c1.51,0,2.63,1.46,2.63,2.76v10.94c0,2.58-0.41,3.42-0.63,3.87
	c-1.43,2.96-2.97,7.89-2.98,7.94C135.49,83.08,135.13,83.34,134.72,83.34"/>
<path class="st1" d="M122.56,60.56c-0.52,0-0.94-0.42-0.94-0.94v-4.39c0-0.52,0.42-0.94,0.94-0.94c0.52,0,0.93,0.42,0.93,0.94v4.39
	C123.5,60.14,123.08,60.56,122.56,60.56"/>
<path class="st1" d="M127.8,62.39c-0.52,0-0.94-0.42-0.94-0.94v-4.39c0-0.52,0.42-0.94,0.94-0.94s0.94,0.42,0.94,0.94v4.39
	C128.74,61.97,128.32,62.39,127.8,62.39"/>
<path class="st1" d="M133.04,65.26c-0.52,0-0.94-0.42-0.94-0.94v-4.39c0-0.52,0.42-0.94,0.94-0.94s0.93,0.42,0.93,0.94v4.39
	C133.98,64.84,133.56,65.26,133.04,65.26"/>
</svg>
