<?xml version="1.0" encoding="utf-8"?>
<!-- Generator: Adobe Illustrator 24.0.0, SVG Export Plug-In . SVG Version: 6.00 Build 0)  -->
<svg version="1.1" id="Layer_1" xmlns="http://www.w3.org/2000/svg" xmlns:xlink="http://www.w3.org/1999/xlink" x="0px" y="0px"
	 viewBox="0 0 728 90" style="enable-background:new 0 0 728 90;" xml:space="preserve">
<style type="text/css">
	.st0{fill:#FFFFFF;}
	.st1{clip-path:url(#SVGID_2_);fill:#FFFFFF;}
	.st2{clip-path:url(#SVGID_4_);fill:url(#SVGID_5_);}
	.st3{clip-path:url(#SVGID_7_);fill:url(#SVGID_8_);}
	.st4{clip-path:url(#SVGID_10_);fill:url(#SVGID_11_);}
</style>
<path class="st0" d="M655.6,15.98v3.58h-6.34v17.17h-4.01V19.55h-6.34v-3.58H655.6z M657.3,36.73h4.01V26.35V15.98h-4.01v10.37
	V36.73z M682.04,36.73h-4.13l-2.13-5.11h-7.03l-2.11,5.11h-4.03l8.84-21.03h1.75L682.04,36.73z M701.47,36.73h-4.13l-2.13-5.11
	h-7.03l-2.11,5.11h-4.03l8.84-21.03h1.75L701.47,36.73z M674.4,28.23l-2.12-5.17l-2.14,5.17H674.4z M693.84,28.23l-2.12-5.17
	l-2.14,5.17H693.84z"/>
<g>
	<defs>
		<rect id="SVGID_1_" x="606.27" y="11.02" width="97.49" height="32.78"/>
	</defs>
	<clipPath id="SVGID_2_">
		<use xlink:href="#SVGID_1_"  style="overflow:visible;"/>
	</clipPath>
	<path class="st1" d="M624.38,38.07c1.78,0,3.39-0.74,4.55-1.92l4.91-4.91c1.13-1.15,1.84-2.72,1.84-4.45v-15.3h-15.28
		c-1.78,0-3.39,0.74-4.55,1.92l-4.91,4.91c-1.13,1.15-1.84,2.72-1.84,4.45v15.3H624.38z"/>
</g>
<g>
	<defs>
		<path id="SVGID_3_" d="M622.19,12.84c-2.77,0-5.02,2.24-5.03,5.01v1.71h10.47v10.46h1.68c2.78,0,5.03-2.25,5.03-5.03V12.84H622.19
			z"/>
	</defs>
	<clipPath id="SVGID_4_">
		<use xlink:href="#SVGID_3_"  style="overflow:visible;"/>
	</clipPath>
	
		<linearGradient id="SVGID_5_" gradientUnits="userSpaceOnUse" x1="0.5281" y1="90.5945" x2="1.5281" y2="90.5945" gradientTransform="matrix(11.9476 -11.9476 -11.9476 -11.9476 1698.4611 1113.4797)">
		<stop  offset="0" style="stop-color:#9ADBF8"/>
		<stop  offset="0.1" style="stop-color:#9ADBF8"/>
		<stop  offset="0.9" style="stop-color:#009AD8"/>
		<stop  offset="1" style="stop-color:#009AD8"/>
	</linearGradient>
	<polygon class="st2" points="608.57,21.43 625.74,4.25 642.92,21.43 625.74,38.61 	"/>
</g>
<g>
	<defs>
		<path id="SVGID_6_" d="M629.3,31.37h-13.49l-5.36,5.36h13.93c1.35,0,2.63-0.54,3.59-1.51l4.51-4.51l-0.12-0.12
			C631.45,31.08,630.41,31.37,629.3,31.37"/>
	</defs>
	<clipPath id="SVGID_7_">
		<use xlink:href="#SVGID_6_"  style="overflow:visible;"/>
	</clipPath>
	
		<linearGradient id="SVGID_8_" gradientUnits="userSpaceOnUse" x1="0.964" y1="90.5241" x2="1.964" y2="90.5241" gradientTransform="matrix(22.0274 0 0 -22.0274 589.2146 2027.6652)">
		<stop  offset="0" style="stop-color:#00AEE6"/>
		<stop  offset="0.1106" style="stop-color:#00AAE1"/>
		<stop  offset="0.2553" style="stop-color:#009FD5"/>
		<stop  offset="0.4189" style="stop-color:#008EC3"/>
		<stop  offset="0.5964" style="stop-color:#0078AE"/>
		<stop  offset="0.7831" style="stop-color:#015F98"/>
		<stop  offset="0.9" style="stop-color:#084E8A"/>
		<stop  offset="1" style="stop-color:#084E8A"/>
	</linearGradient>
	<rect x="610.45" y="30.58" class="st3" width="22.03" height="6.14"/>
</g>
<g>
	<defs>
		<path id="SVGID_9_" d="M611.96,19.21c-0.98,0.96-1.51,2.23-1.51,3.59v13.93l5.36-5.36v-13.5c0-1.11,0.28-2.15,0.78-3.06
			l-0.12-0.12L611.96,19.21z"/>
	</defs>
	<clipPath id="SVGID_10_">
		<use xlink:href="#SVGID_9_"  style="overflow:visible;"/>
	</clipPath>
	
		<linearGradient id="SVGID_11_" gradientUnits="userSpaceOnUse" x1="0.5241" y1="91.036" x2="1.5241" y2="91.036" gradientTransform="matrix(0 -22.0277 -22.0277 0 2618.8347 48.272)">
		<stop  offset="0" style="stop-color:#007EBD"/>
		<stop  offset="0.2112" style="stop-color:#0073B1"/>
		<stop  offset="0.6298" style="stop-color:#005C97"/>
		<stop  offset="0.85" style="stop-color:#084E8A"/>
		<stop  offset="1" style="stop-color:#084E8A"/>
	</linearGradient>
	<rect x="610.45" y="14.7" class="st4" width="6.14" height="22.03"/>
</g>
</svg>
