<svg id="Layer_1" xmlns="http://www.w3.org/2000/svg" viewBox="0 0 360 650"><style>.st0{fill:#3a833f}</style><path class="st0" d="M129.1 501.3c-5.9-4.5-19.6-5.1-23.2 2.6 2.1-7.1-1.7-16.8-7.6-21.2-5.5-4.1-12.6-5.1-19.2-4.1-12.5 1.9-23.8 11.3-25.4 24-2.6-4-7.1-6.7-12.3-6.7-5.5 0-10.2 3-12.7 7.4-4-7.1-17.1-6.5-22.9-2.1-6.9 5.3-7.7 14.8-5.6 23.1H134.9c1.9-8.2 1.2-17.7-5.8-23M373.7 501.3c-5.9-4.5-19.6-5.1-23.2 2.6 2.1-7.1-1.7-16.8-7.6-21.2-5.5-4.1-12.6-5.1-19.2-4.1-12.5 1.9-23.8 11.3-25.4 24-2.6-4-7.1-6.7-12.3-6.7-5.5 0-10.2 3-12.7 7.4-4-7.1-17.1-6.5-22.9-2.1-6.9 5.3-7.7 14.8-5.6 23.1H379.5c1.9-8.2 1.1-17.7-5.8-23"/></svg>