<svg id="Layer_1" xmlns="http://www.w3.org/2000/svg" viewBox="0 0 300 600"><style>.st0{fill:#231f20}</style><path class="st0" d="M15.6 583h-2.2l-.2 1.5h.5c.4 0 .9.1 1.2.3.5.3.8.8.8 1.5 0 1.1-.9 2-2.1 2-.6 0-1.2-.2-1.4-.4l.2-.6c.2.1.7.3 1.2.3.7 0 1.4-.5 1.4-1.2s-.5-1.3-1.7-1.3c-.3 0-.6 0-.8.1l.4-2.8h2.8v.6zM16.6 586.6c0-.7.4-1.2 1.1-1.5-.6-.3-.9-.8-.9-1.3 0-.9.8-1.5 1.8-1.5 1.1 0 1.7.7 1.7 1.4 0 .5-.2 1-.9 1.3.7.3 1.2.8 1.2 1.5 0 1-.9 1.7-2 1.7-1.3 0-2-.8-2-1.6zm3.1 0c0-.7-.5-1-1.3-1.3-.7.2-1 .6-1 1.2s.4 1.1 1.2 1.1c.7 0 1.1-.4 1.1-1zm-2.1-2.9c0 .6.4.9 1.1 1.1.5-.2.9-.5.9-1s-.3-.9-1-.9c-.7-.1-1 .3-1 .8zM25 585.1c0 2-.7 3-2 3-1.1 0-1.9-1.1-1.9-3s.8-3 2-3c1.3.1 1.9 1.2 1.9 3zm-3.1.1c0 1.5.5 2.3 1.2 2.3.8 0 1.2-.9 1.2-2.4 0-1.4-.4-2.3-1.2-2.3-.7 0-1.2.8-1.2 2.4zM29.6 585.1c0 2-.7 3-2 3-1.1 0-1.9-1.1-1.9-3s.8-3 2-3c1.2.1 1.9 1.2 1.9 3zm-3.1.1c0 1.5.5 2.3 1.2 2.3.8 0 1.2-.9 1.2-2.4 0-1.4-.4-2.3-1.2-2.3-.7 0-1.2.8-1.2 2.4zM30.8 587.5h.6c.5-.1.9-.2 1.2-.6.4-.3.7-.9.8-1.5-.3.4-.8.6-1.4.6-1 0-1.7-.8-1.7-1.8 0-1.1.8-2 2-2s1.9 1 1.9 2.4c0 1.3-.4 2.2-1 2.7-.4.4-1.1.7-1.7.8-.3 0-.5.1-.7 0v-.6zm.2-3.3c0 .7.4 1.2 1.1 1.2.5 0 .9-.3 1.1-.6 0-.1.1-.2.1-.3 0-1-.4-1.7-1.2-1.7-.6 0-1.1.6-1.1 1.4zM37.3 588.1v-1.6h-2.7v-.5l2.6-3.7h.8v3.6h.8v.6H38v1.6h-.7zm0-2.2V584v-.9c-.2.3-.3.6-.5.9l-1.4 2h1.9z"/></svg>