<svg id="Layer_1" xmlns="http://www.w3.org/2000/svg" viewBox="0 0 300 600"><style>.st0{fill:#231f20}</style><path class="st0" d="M50 59.8h-2.9l-2.7-8.2c-.4-1.2-.8-2.5-1.2-4.1h-.1c-.4 1.6-.8 2.9-1.2 4.1l-2.7 8.2h-2.8l-6.2-18.6h4.4l2.4 7.5c.3 1.1.7 2.3 1 3.7h.1c.3-1.4.6-2.5 1-3.7l2.4-7.5h3.9l2.4 7.4c.3 1 .7 2.4 1 3.7h.1c.2-1.3.6-2.7 1-3.7l2.5-7.5h3.9L50 59.8zM66.1 59.7v-8.1c0-1-.7-1.8-2-1.8s-2.1.8-2.1 1.9v8h-4.3V39.1H62v8.7c.7-1 1.9-1.6 3.7-1.6 2.9 0 4.6 1.6 4.6 4.4v9.1h-4.2zM85 52.4l-1.9 1.9h-6.4c.2 1.1 1.7 2.3 3.9 2.3 1.4 0 2.8-.4 3.6-1l-.4 3.6c-1 .5-2.5.9-4.2.9-4 0-7.2-2.8-7.2-7.1 0-4.2 3.1-6.9 6.8-6.9 3.6 0 5.9 2.5 5.9 5.2 0 .4 0 .8-.1 1.1zm-5.7-3.1c-1.2 0-2.3 1-2.5 2.1h4.4v-.3c0-.8-.8-1.8-1.9-1.8zM95.5 59.7v-8.1c0-1-.6-1.8-1.9-1.8-1.3 0-2.1.8-2.1 1.9v8h-4.3V46.6h3.9v1.8c.5-1.4 1.9-2.2 4-2.2 2.9 0 4.6 1.6 4.6 4.4v9.1h-4.2zM116.9 58.4c-2 5.3-4.1 7.2-6.5 8.1l-2.6-2.6c2.1-.8 3.7-2.3 4.8-5.1l-4.7-12.2h4.1l1.9 5.1c.3.8.6 1.7.8 2.6h.1c.3-.9.6-1.8.8-2.6l1.9-5.1h3.9l-4.5 11.8zM128.9 60.1c-4 0-7.2-2.8-7.2-7s3.2-7 7.2-7c3.9 0 7.2 2.8 7.2 7s-3.3 7-7.2 7zm0-10.2c-1.6 0-3 1.4-3 3.3s1.4 3.3 3 3.3 3-1.4 3-3.3-1.5-3.3-3-3.3zM146.7 59.7v-1.8c-.5 1.4-1.9 2.2-4 2.2-2.9 0-4.6-1.6-4.6-4.4v-9.1h4.3v8.1c0 1 .7 1.8 2 1.8s2.1-.8 2.1-1.9v-8h4.3v13.1h-4.1zM168.1 59.7v-8.1c0-1-.7-1.8-2-1.8s-2.1.8-2.1 1.9v8h-4.3V39.1h4.2v8.7c.7-1 1.9-1.6 3.7-1.6 2.9 0 4.6 1.6 4.6 4.4v9.1h-4.1zM184.2 60.3c-.8-.2-1.7-.8-2-1.7-.6 1.1-1.8 1.6-3.4 1.6-2.3 0-4.4-1.6-4.4-4.3 0-2.4 1.9-4 4.5-4.3l2.6-.3v-.4c0-.8-.6-1.3-2.1-1.3-1.3 0-2.7.4-3.6 1l-.8-3.2c1.1-.7 2.9-1.2 4.6-1.2 3.5 0 5.9 1.6 5.9 4.7v4.3c0 1.5.6 2.3 1.6 2.7l-2.9 2.4zm-2.7-6.3l-1.6.1c-1.1.1-1.6.9-1.6 1.7 0 .7.5 1.3 1.3 1.3 1 0 1.9-.8 1.9-1.9V54zM195.1 59.8h-3.2l-5-13.2h4.1l1.9 5c.3.7.5 1.7.7 2.5h.1c.2-.8.5-1.9.8-2.5l1.9-5h3.9l-5.2 13.2zM213.1 52.4l-1.9 1.9h-6.4c.2 1.1 1.7 2.3 3.9 2.3 1.4 0 2.8-.4 3.6-1l-.4 3.6c-1 .5-2.5.9-4.2.9-4 0-7.2-2.8-7.2-7.1 0-4.2 3.1-6.9 6.8-6.9 3.6 0 5.9 2.5 5.9 5.2 0 .4 0 .8-.1 1.1zm-5.8-3.1c-1.2 0-2.3 1-2.5 2.1h4.4v-.3c.1-.8-.7-1.8-1.9-1.8zM226.4 60.2c-2.7-.1-4.5-1.5-4.5-4.7V39.1h4.2v16c0 1.1.6 1.7 1.8 1.7l-1.5 3.4zM231.7 44.8c-.8 0-2.3-1.5-2.3-2.3s1.5-2.3 2.3-2.3 2.3 1.5 2.3 2.3-1.5 2.3-2.3 2.3zm-2.1 14.9V46.6h4.3v13.1h-4.3zM245.8 42.9c-.5-.2-1.2-.3-1.7-.3-1.6 0-2.4.9-2.4 2.8v1.2h3.8l-.8 3.5h-2.9v9.6h-4.1v-9.6h-2v-3.5h2V45c0-4 2.6-6 5.9-6 1.2 0 2.4.1 3.1.4l-.9 3.5zM258.6 52.4l-1.9 1.9h-6.4c.2 1.1 1.7 2.3 3.9 2.3 1.4 0 2.8-.4 3.6-1l-.4 3.6c-1 .5-2.5.9-4.2.9-4 0-7.2-2.8-7.2-7.1 0-4.2 3.1-6.9 6.8-6.9 3.6 0 5.9 2.5 5.9 5.2 0 .4 0 .8-.1 1.1zm-5.7-3.1c-1.2 0-2.3 1-2.5 2.1h4.4v-.3c0-.8-.8-1.8-1.9-1.8z"/><g><path class="st0" d="M33.6 76c-.8 0-2.3-1.5-2.3-2.3 0-.8 1.5-2.3 2.3-2.3.8 0 2.3 1.5 2.3 2.3 0 .7-1.6 2.3-2.3 2.3zm-2.2 14.9V77.8h4.3v13.1h-4.3zM46.7 90.9v-8.1c0-1-.6-1.8-1.9-1.8-1.3 0-2.1.8-2.1 1.9v8h-4.3V77.8h3.9v1.8c.5-1.4 1.9-2.2 4-2.2 2.9 0 4.6 1.6 4.6 4.4v9.1h-4.2zM57.9 91.2c-1.8 0-3.1-.4-4.2-.9l-.4-3.8c1.2.8 2.7 1.4 4.1 1.4.8 0 1.3-.4 1.3-.9 0-.6-.4-.8-1.2-1-2.5-.7-4-2-4-4.3 0-2.6 2.1-4.2 4.9-4.2 1.6 0 3.2.4 3.9.8l-.7 3.1c-.6-.3-1.7-.7-2.7-.7-.7 0-1.2.3-1.2.8s.3.8 1.2 1c3 .8 4.2 2.3 4.2 4.5-.1 2.1-1.7 4.2-5.2 4.2zM73.7 90.9v-1.8c-.5 1.4-1.9 2.2-4 2.2-2.9 0-4.6-1.6-4.6-4.4v-9.1h4.3v8.1c0 1 .7 1.8 2 1.8s2.1-.8 2.1-1.9v-8h4.3v13.1h-4.1zM88.5 82.3c-.3-.1-.8-.3-1.3-.3-1.4 0-2.6.7-2.6 2.8v6.1h-4.3V77.8h4.2v2.9c.4-2.1 2-3.2 3.7-3.2.4 0 .9.1 1.2.2l-.9 4.6zM100.1 91.5c-.8-.2-1.7-.8-2-1.7-.6 1.1-1.8 1.6-3.4 1.6-2.3 0-4.4-1.6-4.4-4.3 0-2.4 1.9-4 4.5-4.3l2.6-.3V82c0-.8-.6-1.3-2.1-1.3-1.3 0-2.7.4-3.6 1l-.8-3.2c1.1-.7 2.9-1.2 4.6-1.2 3.5 0 5.9 1.6 5.9 4.7v4.3c0 1.5.6 2.3 1.6 2.7l-2.9 2.5zm-2.7-6.4l-1.6.1c-1.1.1-1.6.9-1.6 1.7 0 .7.5 1.3 1.3 1.3 1 0 1.9-.8 1.9-1.9v-1.2zM112.8 90.9v-8.1c0-1-.6-1.8-1.9-1.8-1.3 0-2.1.8-2.1 1.9v8h-4.3V77.8h3.9v1.8c.5-1.4 1.9-2.2 4-2.2 2.9 0 4.6 1.6 4.6 4.4v9.1h-4.2zM129.6 82c-.9-.6-1.8-.8-2.8-.8-1.9 0-3.3 1.3-3.3 3.2 0 1.9 1.5 3.2 3.4 3.2 1.1 0 1.9-.2 2.9-.7l-.4 3.6c-.9.4-2 .6-3.2.6-3.7 0-7.1-2.6-7.1-6.8 0-4.3 3.4-6.9 7-6.9 1.7 0 3.2.3 4.3 1l-.8 3.6zM144.2 83.6l-1.9 1.9h-6.4c.2 1.1 1.7 2.3 3.9 2.3 1.4 0 2.8-.4 3.6-1l-.4 3.6c-1 .5-2.5.9-4.2.9-4 0-7.2-2.8-7.2-7.1 0-4.2 3.1-6.9 6.8-6.9 3.6 0 5.9 2.5 5.9 5.2 0 .4 0 .8-.1 1.1zm-5.7-3.1c-1.2 0-2.3 1-2.5 2.1h4.4v-.3c0-.8-.8-1.8-1.9-1.8zM147 95.2l-1.3-.2c1-1.1 1.7-2.8 1.9-4.1-.7-.1-1.9-1.4-1.9-2 0-.8 1.7-2.4 2.4-2.4s2.4 1.5 2.4 2.4c0 1.8-1.8 4.8-3.5 6.3z"/></g></svg>