<svg id="Layer_1" xmlns="http://www.w3.org/2000/svg" viewBox="0 0 300 600"><style>.st0{fill:#231f20}</style><path class="st0" d="M45 60.1v-7.3h-7.1v7.3h-4.5V41.8h4.5V49H45v-7.2h4.5v18.4H45zM64.5 52.9l-1.9 1.9h-6.4c.2 1.1 1.6 2.3 3.9 2.3 1.4 0 2.7-.4 3.6-1l-.4 3.6c-1 .5-2.5.9-4.1.9-4 0-7.2-2.8-7.2-7s3.1-6.9 6.8-6.9c3.6 0 5.8 2.5 5.8 5.2 0 .3-.1.7-.1 1zm-5.8-3.1c-1.2 0-2.3 1-2.5 2.1h4.4v-.3c0-.8-.8-1.8-1.9-1.8zM71.1 60.7c-2.7-.1-4.5-1.5-4.5-4.6V39.6h4.2v15.9c0 1.1.6 1.6 1.8 1.7l-1.5 3.5zM81.7 60.5c-1.4 0-2.8-.4-3.3-.9v7.1h-4.1V47.1H78v1.6c.7-1.3 2.2-2 4-2 3.2 0 6.3 2.4 6.3 6.9.1 4.2-2.9 6.9-6.6 6.9zM81 50.4c-1.2 0-2.1.7-2.6 1.4v4.1c.4.5 1.3 1.2 2.6 1.2 1.8 0 3.1-1.4 3.1-3.3s-1.3-3.4-3.1-3.4zM104.3 60.5c-1.4 0-2.8-.4-3.3-.9v7.1h-4.1V47.1h3.7v1.6c.7-1.3 2.2-2 4-2 3.2 0 6.3 2.4 6.3 6.9.1 4.2-2.9 6.9-6.6 6.9zm-.7-10.1c-1.2 0-2.1.7-2.6 1.4v4.1c.4.5 1.3 1.2 2.6 1.2 1.8 0 3.1-1.4 3.1-3.3s-1.3-3.4-3.1-3.4zM121.6 60.1v-1.8c-.5 1.4-1.9 2.2-4 2.2-2.9 0-4.6-1.6-4.6-4.3v-9.1h4.2v8c0 1 .7 1.8 2 1.8s2-.8 2-1.9v-7.9h4.2v13h-3.8zM136.9 50.5h-3.4v4.8c0 1.1.6 1.6 1.7 1.6.5 0 .8 0 1.1-.2L136 60c-.4.2-1.1.3-2 .3-2.9 0-4.7-1.6-4.7-4.1v-5.6h-2.2v-3.5h2.2v-2.8l4.2-1.5v4.3h4.2l-.8 3.4zM153.7 58.8c-2 5.2-4.1 7.1-6.5 8.1l-2.6-2.6c2.1-.8 3.7-2.3 4.8-5.1L144.7 47h4.1l1.9 5.1c.3.7.6 1.6.8 2.6h.1c.3-.9.5-1.8.8-2.6l1.9-5.1h3.9l-4.5 11.8zM165.6 60.5c-3.9 0-7.1-2.8-7.1-6.9 0-4.1 3.2-6.9 7.1-6.9 3.9 0 7.1 2.8 7.1 6.9 0 4.1-3.2 6.9-7.1 6.9zm0-10.2c-1.6 0-2.9 1.4-2.9 3.3s1.4 3.3 2.9 3.3c1.6 0 2.9-1.4 2.9-3.3s-1.4-3.3-2.9-3.3zM183.3 60.1v-1.8c-.5 1.4-1.9 2.2-4 2.2-2.9 0-4.6-1.6-4.6-4.3v-9.1h4.2v8c0 1 .7 1.8 2 1.8s2-.8 2-1.9v-7.9h4.2v13h-3.8zM198 51.6c-.3-.1-.8-.3-1.3-.3-1.4 0-2.6.7-2.6 2.8v6.1h-4.2v-13h4.2V50c.4-2 2-3.1 3.7-3.1.4 0 .9.1 1.2.2l-1 4.5zM223 60.1v-8c0-1-.5-1.8-1.8-1.8-1.4 0-2 .8-2 1.8V60H215v-8c0-1-.5-1.8-1.8-1.8-1.4 0-2 .8-2 1.8v7.9H207v-13h3.9v1.8c.5-1.4 1.8-2.2 3.9-2.2 1.9 0 3.3.7 3.9 2.1.5-1.3 2.1-2.1 4-2.1 3 0 4.6 1.6 4.6 4.4V60H223zM232.1 45.3c-.7 0-2.3-1.5-2.3-2.3 0-.7 1.5-2.2 2.3-2.2.7 0 2.3 1.5 2.3 2.2 0 .8-1.5 2.3-2.3 2.3zM230 60.1v-13h4.3v13H230zM245.2 60.1v-8c0-1-.6-1.8-1.9-1.8-1.3 0-2.1.8-2.1 1.8V60H237V47h3.9v1.8c.5-1.4 1.9-2.2 4-2.2 2.9 0 4.6 1.6 4.6 4.4v9.1h-4.3zM261.9 60.1v-1.6c-.7 1.3-2.2 2-4 2-3.2 0-6.3-2.4-6.3-6.9 0-4.2 3-6.9 6.6-6.9 1.4 0 2.8.5 3.3.9v-7.9h4.1v20.5h-3.7zm-.4-8.5c-.4-.5-1.3-1.2-2.6-1.2-1.8 0-3.1 1.4-3.1 3.3s1.3 3.3 3.1 3.3c1.2 0 2.1-.7 2.6-1.4v-4zM42.5 91.7c-.8-.2-1.7-.8-2-1.7-.6 1.1-1.8 1.6-3.4 1.6-2.3 0-4.3-1.6-4.3-4.3 0-2.4 1.9-4 4.5-4.3l2.6-.3v-.4c0-.8-.6-1.3-2-1.3-1.3 0-2.7.4-3.6 1l-.7-3.2c1.1-.7 2.9-1.2 4.6-1.2 3.5 0 5.9 1.6 5.9 4.7v4.3c0 1.5.6 2.3 1.6 2.7l-3.2 2.4zm-2.7-6.3l-1.6.1c-1.1.1-1.6.9-1.6 1.6 0 .7.5 1.3 1.3 1.3 1 0 1.8-.8 1.8-1.9v-1.1zM55.1 91.1v-8c0-1-.6-1.8-1.9-1.8-1.3 0-2.1.8-2.1 1.8V91h-4.2V78h3.9v1.8c.5-1.4 1.9-2.2 4-2.2 2.9 0 4.6 1.6 4.6 4.4v9.1h-4.3zM71.7 91.1v-1.6c-.7 1.3-2.2 2-4 2-3.2 0-6.3-2.4-6.3-6.9 0-4.2 3-6.9 6.6-6.9 1.4 0 2.8.5 3.3.9v-7.9h4.1v20.5h-3.7zm-.4-8.5c-.4-.5-1.3-1.2-2.6-1.2-1.8 0-3.1 1.4-3.1 3.3s1.3 3.3 3.1 3.3c1.2 0 2.1-.7 2.6-1.4v-4zM93.7 74.4c-.5-.2-1.2-.3-1.7-.3-1.6 0-2.4.9-2.4 2.8v1.2h3.7l-.8 3.5h-2.9v9.6h-4.1v-9.6h-2v-3.5h2v-1.5c0-4 2.6-5.9 5.8-5.9 1.2 0 2.4.1 3.1.4l-.7 3.3zM103.9 91.7c-.8-.2-1.7-.8-2-1.7-.6 1.1-1.8 1.6-3.4 1.6-2.3 0-4.3-1.6-4.3-4.3 0-2.4 1.9-4 4.5-4.3l2.6-.3v-.4c0-.8-.6-1.3-2-1.3-1.3 0-2.7.4-3.6 1l-.7-3.2c1.1-.7 2.9-1.2 4.6-1.2 3.5 0 5.9 1.6 5.9 4.7v4.3c0 1.5.6 2.3 1.6 2.7l-3.2 2.4zm-2.7-6.3l-1.6.1c-1.1.1-1.6.9-1.6 1.6 0 .7.5 1.3 1.3 1.3 1 0 1.8-.8 1.8-1.9v-1.1zM124.4 91.1v-8c0-1-.5-1.8-1.8-1.8-1.4 0-2 .8-2 1.8V91h-4.2v-8c0-1-.5-1.8-1.8-1.8-1.4 0-2 .8-2 1.8v7.9h-4.2v-13h3.9v1.8c.5-1.4 1.8-2.2 3.9-2.2 1.9 0 3.3.7 3.9 2.1.5-1.3 2.1-2.1 4-2.1 3 0 4.6 1.6 4.6 4.4V91h-4.3zM133.5 76.3c-.7 0-2.3-1.5-2.3-2.3 0-.7 1.5-2.2 2.3-2.2s2.3 1.5 2.3 2.2c0 .8-1.6 2.3-2.3 2.3zm-2.1 14.8v-13h4.3v13h-4.3zM142.9 91.7c-2.7-.1-4.5-1.5-4.5-4.6V70.6h4.2v15.9c0 1.1.6 1.6 1.8 1.7l-1.5 3.5zM153.5 89.9c-2 5.2-4.1 7.1-6.5 8.1l-2.6-2.6c2.1-.8 3.7-2.3 4.8-5.1l-4.7-12.2h4.1l1.9 5.1c.3.7.6 1.6.8 2.6h.1c.3-.9.5-1.8.8-2.6l1.9-5.1h3.9l-4.5 11.8zM160.4 81l-1.3-.2c1-1.1 1.7-2.8 1.9-4.1-.7-.1-1.9-1.4-1.9-2 0-.8 1.6-2.4 2.4-2.4.7 0 2.4 1.5 2.4 2.4 0 1.8-1.8 4.7-3.5 6.3zM169.1 91.4c-1.8 0-3.1-.4-4.1-.9l-.4-3.7c1.2.8 2.6 1.4 4.1 1.4.8 0 1.3-.4 1.3-.9s-.4-.8-1.2-1c-2.5-.7-4-2-4-4.3 0-2.6 2.1-4.2 4.9-4.2 1.6 0 3.2.4 3.9.8l-.7 3.1c-.6-.3-1.7-.7-2.7-.7-.7 0-1.2.3-1.2.8s.3.7 1.2 1c2.9.8 4.1 2.2 4.1 4.4-.1 2.2-1.7 4.2-5.2 4.2zM191.8 74.4c-.5-.2-1.2-.3-1.7-.3-1.6 0-2.4.9-2.4 2.8v1.2h3.7l-.8 3.5h-2.9v9.6h-4.1v-9.6h-2v-3.5h2v-1.5c0-4 2.6-5.9 5.8-5.9 1.2 0 2.4.1 3.1.4l-.7 3.3zM201.5 91.1v-1.8c-.5 1.4-1.9 2.2-4 2.2-2.9 0-4.6-1.6-4.6-4.3v-9.1h4.2v8c0 1 .7 1.8 2 1.8s2-.8 2-1.9v-7.9h4.2v13h-3.8zM216.8 81.6h-3.4v4.8c0 1.1.6 1.6 1.7 1.6.5 0 .8 0 1.1-.2l-.4 3.2c-.4.2-1.1.3-2 .3-2.9 0-4.7-1.6-4.7-4.1v-5.6H207v-3.5h2.2v-2.8l4.2-1.5v4.3h4.2l-.8 3.5zM227.6 91.1v-1.8c-.5 1.4-1.9 2.2-4 2.2-2.9 0-4.6-1.6-4.6-4.3v-9.1h4.2v8c0 1 .7 1.8 2 1.8s2-.8 2-1.9v-7.9h4.2v13h-3.8zM242.3 82.6c-.3-.1-.8-.3-1.3-.3-1.4 0-2.6.7-2.6 2.8v6.1h-4.2v-13h4.2V81c.4-2 2-3.1 3.7-3.1.4 0 .9.1 1.2.2l-1 4.5zM256.4 83.9l-1.9 1.9h-6.4c.2 1.1 1.6 2.3 3.9 2.3 1.4 0 2.7-.4 3.6-1l-.4 3.6c-1 .5-2.5.9-4.1.9-4 0-7.2-2.8-7.2-7s3.1-6.9 6.8-6.9c3.6 0 5.8 2.5 5.8 5.2 0 .3-.1.7-.1 1zm-5.7-3.1c-1.2 0-2.3 1-2.5 2.1h4.4v-.3c0-.8-.8-1.8-1.9-1.8zM42.5 122.7c-.8-.2-1.7-.8-2-1.7-.6 1.1-1.8 1.6-3.4 1.6-2.3 0-4.3-1.6-4.3-4.3 0-2.4 1.9-4 4.5-4.3l2.6-.3v-.4c0-.8-.6-1.3-2-1.3-1.3 0-2.7.4-3.6 1l-.7-3.2c1.1-.7 2.9-1.2 4.6-1.2 3.5 0 5.9 1.6 5.9 4.7v4.3c0 1.5.6 2.3 1.6 2.7l-3.2 2.4zm-2.7-6.2l-1.6.1c-1.1.1-1.6.9-1.6 1.6 0 .7.5 1.3 1.3 1.3 1 0 1.8-.8 1.8-1.9v-1.1zM55.3 112.6h-3.4v4.8c0 1.1.6 1.6 1.7 1.6.5 0 .8 0 1.1-.2l-.4 3.2c-.4.2-1.1.3-2 .3-2.9 0-4.7-1.6-4.7-4.1v-5.6h-2.2v-3.5h2.2v-2.8l4.2-1.5v4.3H56l-.7 3.5zM76 114.9l-1.9 1.9h-6.4c.2 1.1 1.6 2.3 3.9 2.3 1.4 0 2.7-.4 3.6-1l-.4 3.6c-1 .5-2.5.9-4.1.9-4 0-7.2-2.8-7.2-7s3.1-6.9 6.8-6.9c3.6 0 5.8 2.5 5.8 5.2 0 .3 0 .7-.1 1zm-5.7-3.1c-1.2 0-2.3 1-2.5 2.1h4.4v-.3c0-.8-.8-1.8-1.9-1.8zM87.2 122.7c-.8-.2-1.7-.8-2-1.7-.6 1.1-1.8 1.6-3.4 1.6-2.3 0-4.3-1.6-4.3-4.3 0-2.4 1.9-4 4.5-4.3l2.6-.3v-.4c0-.8-.6-1.3-2-1.3-1.3 0-2.7.4-3.6 1l-.7-3.2c1.1-.7 2.9-1.2 4.6-1.2 3.5 0 5.9 1.6 5.9 4.7v4.3c0 1.5.6 2.3 1.6 2.7l-3.2 2.4zm-2.7-6.2l-1.6.1c-1.1.1-1.6.9-1.6 1.6 0 .7.5 1.3 1.3 1.3 1 0 1.8-.8 1.8-1.9v-1.1zM95.8 122.4c-1.8 0-3.1-.4-4.1-.9l-.4-3.7c1.2.8 2.6 1.4 4.1 1.4.8 0 1.3-.4 1.3-.9s-.4-.8-1.2-1c-2.5-.7-4-2-4-4.3 0-2.6 2.1-4.2 4.9-4.2 1.6 0 3.2.4 3.9.8l-.7 3.1c-.6-.3-1.7-.7-2.7-.7-.7 0-1.2.3-1.2.8s.3.7 1.2 1c2.9.8 4.1 2.2 4.1 4.4s-1.6 4.2-5.2 4.2zM114.8 114.9l-1.9 1.9h-6.4c.2 1.1 1.6 2.3 3.9 2.3 1.4 0 2.7-.4 3.6-1l-.4 3.6c-1 .5-2.5.9-4.1.9-4 0-7.2-2.8-7.2-7s3.1-6.9 6.8-6.9c3.6 0 5.8 2.5 5.8 5.2.1.3 0 .7-.1 1zm-5.7-3.1c-1.2 0-2.3 1-2.5 2.1h4.4v-.3c0-.8-.8-1.8-1.9-1.8zM137.8 122.3h-2.9l-1.8-5.2c-.3-.8-.5-1.7-.8-2.7h-.1c-.2 1-.5 1.9-.7 2.7l-1.8 5.2h-2.8l-4.5-13.2h3.9l1.6 5c.2.7.5 1.7.6 2.5h.1c.1-.8.4-1.8.6-2.5l1.6-5h3.2l1.6 4.9c.3.8.4 1.7.6 2.5h.1c.2-.8.4-1.8.7-2.5l1.6-4.9h3.6l-4.4 13.2zM146.1 107.3c-.7 0-2.3-1.5-2.3-2.3 0-.7 1.5-2.2 2.3-2.2s2.3 1.5 2.3 2.2c0 .8-1.6 2.3-2.3 2.3zm-2.2 14.9v-13h4.3v13h-4.3zM159.6 112.6h-3.4v4.8c0 1.1.6 1.6 1.7 1.6.5 0 .8 0 1.1-.2l-.4 3.2c-.4.2-1.1.3-2 .3-2.9 0-4.7-1.6-4.7-4.1v-5.6h-2.2v-3.5h2.2v-2.8l4.2-1.5v4.3h4.2l-.7 3.5zM170.2 122.2v-8c0-1-.7-1.8-2-1.8s-2 .8-2 1.8v7.9H162v-20.5h4.2v8.7c.7-1 1.9-1.6 3.7-1.6 2.9 0 4.6 1.6 4.6 4.4v9.1h-4.3zM192.1 107.4v14.7h-4.5v-14.7h-5.3v-3.7h15v3.7h-5.2zM199.1 122.2v-18.4h4.5v18.4h-4.5zM218.5 122.2L217 118h-5.8l-1.5 4.1h-4.2l7.2-18.5h3.1l7.2 18.5h-4.5zm-3.9-11.1c-.2-.5-.4-1.1-.5-1.7h-.1c-.1.6-.3 1.2-.5 1.7l-1.2 3.4h3.6l-1.3-3.4zM237.1 122.2l-1.5-4.1h-5.8l-1.5 4.1H224l7.2-18.5h3.1l7.2 18.5h-4.4zm-3.9-11.1c-.2-.5-.4-1.1-.5-1.7h-.1c-.1.6-.3 1.2-.5 1.7l-1.2 3.4h3.6l-1.3-3.4zM33.5 153.2v-18.4H38v14.7h6.9v3.7H33.5zM48.5 138.3c-.7 0-2.3-1.5-2.3-2.3 0-.7 1.5-2.2 2.3-2.2s2.3 1.5 2.3 2.2c0 .8-1.5 2.3-2.3 2.3zm-2.1 14.9v-13h4.3v13h-4.3zM62.5 136.4c-.5-.2-1.2-.3-1.7-.3-1.6 0-2.4.9-2.4 2.8v1.2h3.7l-.8 3.5h-2.9v9.6h-4.1v-9.6h-2v-3.5h2v-1.5c0-4 2.6-5.9 5.8-5.9 1.2 0 2.4.1 3.1.4l-.7 3.3zM75.3 145.9l-1.9 1.9H67c.2 1.1 1.6 2.3 3.9 2.3 1.4 0 2.7-.4 3.6-1l-.4 3.6c-1 .5-2.5.9-4.1.9-4 0-7.2-2.8-7.2-7s3.1-6.9 6.8-6.9c3.6 0 5.8 2.5 5.8 5.2 0 .3-.1.8-.1 1zm-5.7-3c-1.2 0-2.3 1-2.5 2.1h4.4v-.3c0-.9-.8-1.8-1.9-1.8zM86.2 138.3c-.7 0-2.3-1.5-2.3-2.3 0-.7 1.5-2.2 2.3-2.2s2.3 1.5 2.3 2.2c-.1.8-1.6 2.3-2.3 2.3zM84 153.2v-13h4.3v13H84zM99.3 153.2v-8c0-1-.6-1.8-1.9-1.8-1.3 0-2.1.8-2.1 1.8v7.9H91v-13h3.9v1.8c.5-1.4 1.9-2.2 4-2.2 2.9 0 4.6 1.6 4.6 4.4v9.1h-4.2zM110.3 153.5c-1.8 0-3.1-.4-4.1-.9l-.4-3.7c1.2.8 2.6 1.4 4.1 1.4.8 0 1.3-.4 1.3-.9s-.4-.8-1.2-1c-2.5-.7-4-2-4-4.3 0-2.6 2.1-4.2 4.9-4.2 1.6 0 3.2.4 3.9.8l-.7 3.1c-.6-.3-1.7-.7-2.7-.7-.7 0-1.2.3-1.2.8s.3.7 1.2 1c2.9.8 4.1 2.2 4.1 4.4 0 2.1-1.6 4.2-5.2 4.2zM126.1 153.2v-1.8c-.5 1.4-1.9 2.2-4 2.2-2.9 0-4.6-1.6-4.6-4.3v-9.1h4.2v8c0 1 .7 1.8 2 1.8s2-.8 2-1.9v-7.9h4.2v13h-3.8zM140.7 144.6c-.3-.1-.8-.3-1.3-.3-1.4 0-2.6.7-2.6 2.8v6.1h-4.2v-13h4.2v2.9c.4-2 2-3.1 3.7-3.1.4 0 .9.1 1.2.2l-1 4.4zM152.3 153.7c-.8-.2-1.7-.8-2-1.7-.6 1.1-1.8 1.6-3.4 1.6-2.3 0-4.3-1.6-4.3-4.3 0-2.4 1.9-4 4.5-4.3l2.6-.3v-.4c0-.8-.6-1.3-2-1.3-1.3 0-2.7.4-3.6 1l-.7-3.2c1.1-.7 2.9-1.2 4.6-1.2 3.5 0 5.9 1.6 5.9 4.7v4.3c0 1.5.6 2.3 1.6 2.7l-3.2 2.4zm-2.7-6.2l-1.6.1c-1.1.1-1.6.9-1.6 1.6 0 .7.5 1.3 1.3 1.3 1 0 1.8-.8 1.8-1.9v-1.1zM164.9 153.2v-8c0-1-.6-1.8-1.9-1.8-1.3 0-2.1.8-2.1 1.8v7.9h-4.2v-13h3.9v1.8c.5-1.4 1.9-2.2 4-2.2 2.9 0 4.6 1.6 4.6 4.4v9.1h-4.3zM181.7 144.3c-.9-.5-1.8-.8-2.8-.8-1.8 0-3.3 1.3-3.3 3.2 0 1.9 1.5 3.2 3.4 3.2 1.1 0 1.9-.2 2.9-.7l-.4 3.6c-.9.4-2 .6-3.2.6-3.7 0-7.1-2.6-7.1-6.8 0-4.3 3.4-6.8 7-6.8 1.7 0 3.1.3 4.3 1l-.8 3.5zM196.2 145.9l-1.9 1.9h-6.4c.2 1.1 1.6 2.3 3.9 2.3 1.4 0 2.7-.4 3.6-1l-.4 3.6c-1 .5-2.5.9-4.1.9-4 0-7.2-2.8-7.2-7s3.1-6.9 6.8-6.9c3.6 0 5.8 2.5 5.8 5.2 0 .3-.1.8-.1 1zm-5.8-3c-1.2 0-2.3 1-2.5 2.1h4.4v-.3c0-.9-.7-1.8-1.9-1.8zM200 153.6c-.8 0-2.4-1.6-2.4-2.4 0-.7 1.6-2.4 2.4-2.4s2.4 1.6 2.4 2.4c0 .8-1.6 2.4-2.4 2.4z"/></svg>