<svg id="Layer_1" xmlns="http://www.w3.org/2000/svg" viewBox="0 0 300 600"><style>.st0{fill:#231f20}</style><path class="st0" d="M167.2 89.6c-2 5.3-4.1 7.2-6.5 8.1l-2.6-2.6c2.1-.8 3.7-2.3 4.8-5.1l-4.7-12.2h4.1l1.9 5.1c.3.8.6 1.7.8 2.6h.1c.3-.9.6-1.8.8-2.6l1.9-5.1h3.9l-4.5 11.8zM179.2 91.3c-4 0-7.2-2.8-7.2-7s3.2-7 7.2-7c3.9 0 7.2 2.8 7.2 7s-3.3 7-7.2 7zm0-10.3c-1.6 0-3 1.4-3 3.3s1.4 3.3 3 3.3 3-1.4 3-3.3-1.5-3.3-3-3.3zM197 90.9v-1.8c-.5 1.4-1.9 2.2-4 2.2-2.9 0-4.6-1.6-4.6-4.4v-9.1h4.3v8.1c0 1 .7 1.8 2 1.8s2.1-.8 2.1-1.9v-8h4.3v13.1H197zM220.1 82c-.9-.6-1.8-.8-2.8-.8-1.9 0-3.3 1.3-3.3 3.2 0 1.9 1.5 3.2 3.4 3.2 1.1 0 1.9-.2 2.9-.7l-.4 3.6c-.9.4-2 .6-3.2.6-3.7 0-7.1-2.6-7.1-6.8 0-4.3 3.4-6.9 7-6.9 1.7 0 3.2.3 4.3 1l-.8 3.6zM232 91.5c-.8-.2-1.7-.8-2-1.7-.6 1.1-1.8 1.6-3.4 1.6-2.3 0-4.4-1.6-4.4-4.3 0-2.4 1.9-4 4.5-4.3l2.6-.3V82c0-.8-.6-1.3-2.1-1.3-1.3 0-2.7.4-3.6 1l-.8-3.2c1.1-.7 2.9-1.2 4.6-1.2 3.5 0 5.9 1.6 5.9 4.7v4.3c0 1.5.6 2.3 1.6 2.7l-2.9 2.5zm-2.7-6.4l-1.6.1c-1.1.1-1.6.9-1.6 1.7 0 .7.5 1.3 1.3 1.3 1 0 1.9-.8 1.9-1.9v-1.2zM244.7 90.9v-8.1c0-1-.6-1.8-1.9-1.8-1.3 0-2.1.8-2.1 1.9v8h-4.3V77.8h3.9v1.8c.5-1.4 1.9-2.2 4-2.2 2.9 0 4.6 1.6 4.6 4.4v9.1h-4.2zM35.6 122.4c-1.8 0-3.1-.4-4.2-.9l-.4-3.8c1.2.8 2.7 1.4 4.1 1.4.8 0 1.3-.4 1.3-.9 0-.6-.4-.8-1.2-1-2.5-.7-4-2-4-4.3 0-2.6 2.1-4.2 4.9-4.2 1.6 0 3.2.4 3.9.8l-.7 3.1c-.6-.3-1.7-.7-2.7-.7-.7 0-1.2.3-1.2.8s.3.8 1.2 1c3 .8 4.2 2.3 4.2 4.5-.1 2.1-1.7 4.2-5.2 4.2zM47.3 122.6c-2.7-.1-4.5-1.5-4.5-4.7v-16.5H47v16c0 1.1.6 1.7 1.8 1.7l-1.5 3.5zM62.3 114.8l-1.9 1.9H54c.2 1.1 1.7 2.3 3.9 2.3 1.4 0 2.8-.4 3.6-1l-.4 3.6c-1 .5-2.5.9-4.2.9-4 0-7.2-2.8-7.2-7.1 0-4.2 3.1-6.9 6.8-6.9 3.6 0 5.9 2.5 5.9 5.2 0 .4-.1.8-.1 1.1zm-5.8-3.1c-1.2 0-2.3 1-2.5 2.1h4.4v-.3c0-.8-.8-1.8-1.9-1.8zM76.4 114.8l-1.9 1.9H68c.2 1.1 1.7 2.3 3.9 2.3 1.4 0 2.8-.4 3.6-1l-.4 3.6c-1 .5-2.5.9-4.2.9-4 0-7.2-2.8-7.2-7.1 0-4.2 3.1-6.9 6.8-6.9 3.6 0 5.9 2.5 5.9 5.2.1.4 0 .8 0 1.1zm-5.8-3.1c-1.2 0-2.3 1-2.5 2.1h4.4v-.3c0-.8-.8-1.8-1.9-1.8zM86 122.4c-1.4 0-2.8-.4-3.3-.9v7.2h-4.1v-19.8h3.7v1.6c.7-1.3 2.2-2 4.1-2 3.2 0 6.3 2.4 6.3 6.9 0 4.3-3 7-6.7 7zm-.7-10.1c-1.2 0-2.1.7-2.6 1.4v4.1c.4.6 1.3 1.2 2.6 1.2 1.9 0 3.2-1.4 3.2-3.3-.1-2-1.4-3.4-3.2-3.4zM107.7 122.4c-2.8 0-5-1-6.3-1.9v-19.1h4.1v8c.6-.4 1.9-.9 3.3-.9 3.6 0 6.6 2.6 6.6 6.7s-2.6 7.2-7.7 7.2zm.4-10.1c-1.2 0-2.1.6-2.5 1v5c.4.3 1.3.6 2.1.6 2.2 0 3.5-1.5 3.5-3.4 0-1.8-1.3-3.2-3.1-3.2zM129.5 114.8l-1.9 1.9h-6.4c.2 1.1 1.7 2.3 3.9 2.3 1.4 0 2.8-.4 3.6-1l-.4 3.6c-1 .5-2.5.9-4.2.9-4 0-7.2-2.8-7.2-7.1 0-4.2 3.1-6.9 6.8-6.9 3.6 0 5.9 2.5 5.9 5.2.1.4 0 .8-.1 1.1zm-5.7-3.1c-1.2 0-2.3 1-2.5 2.1h4.4v-.3c0-.8-.8-1.8-1.9-1.8zM140.6 112.4h-3.4v4.9c0 1.1.6 1.6 1.7 1.6.5 0 .8 0 1.1-.2l-.4 3.2c-.4.2-1.1.3-2 .3-3 0-4.7-1.6-4.7-4.2v-5.7h-2.2v-3.5h2.2V106l4.2-1.5v4.3h4.2l-.7 3.6zM152.1 112.4h-3.4v4.9c0 1.1.6 1.6 1.7 1.6.5 0 .8 0 1.1-.2l-.4 3.2c-.4.2-1.1.3-2 .3-3 0-4.7-1.6-4.7-4.2v-5.7h-2.2v-3.5h2.2V106l4.2-1.5v4.3h4.2l-.7 3.6zM166.1 114.8l-1.9 1.9h-6.4c.2 1.1 1.7 2.3 3.9 2.3 1.4 0 2.8-.4 3.6-1l-.4 3.6c-1 .5-2.5.9-4.2.9-4 0-7.2-2.8-7.2-7.1 0-4.2 3.1-6.9 6.8-6.9 3.6 0 5.9 2.5 5.9 5.2 0 .4-.1.8-.1 1.1zm-5.8-3.1c-1.2 0-2.3 1-2.5 2.1h4.4v-.3c0-.8-.7-1.8-1.9-1.8zM176.4 113.5c-.3-.1-.8-.3-1.3-.3-1.4 0-2.6.7-2.6 2.8v6.1h-4.3V109h4.2v2.9c.4-2.1 2-3.2 3.7-3.2.4 0 .9.1 1.2.2l-.9 4.6zM179.1 122.5c-.8 0-2.4-1.6-2.4-2.4 0-.8 1.6-2.4 2.4-2.4s2.4 1.6 2.4 2.4c0 .8-1.6 2.4-2.4 2.4z"/></svg>