<svg id="Layer_1" xmlns="http://www.w3.org/2000/svg" xmlns:xlink="http://www.w3.org/1999/xlink" viewBox="0 0 300 600"><style>.st0{clip-path:url(#SVGID_2_);fill:#f9e038}.st1{fill:#231f20}</style><defs><path id="SVGID_1_" d="M0 0h303v600.5H0z"/></defs><clipPath id="SVGID_2_"><use xlink:href="#SVGID_1_" overflow="visible"/></clipPath><path class="st0" d="M96.4 459.8s-16 0-16 16v4.3s0 16 16 16h107.5s16 0 16-16v-4.3s0-16-16-16H96.4z"/><g><path class="st1" d="M111.6 481.5v2.1H105v-10.4h2.4v8.4h4.2zM115 475.2v2.1h4v2h-4v2.3h5v2h-7.5v-10.4h7.5v2h-5zM130.1 483.6h-2.6l-.6-2.1h-3.4l-.7 2.1h-2.1l3.3-10.4h2.8l3.3 10.4zm-3.8-4.1l-1.1-3.7-1.1 3.7h2.2zM133.6 483.6h-2.4v-10.4h4.4c.9 0 1.9 0 2.7.5.9.6 1.3 1.6 1.3 2.6 0 1.2-.7 2.3-1.8 2.7l1.9 4.6H137l-1.6-4.1h-1.8v4.1zm0-5.9h1.3c.5 0 1 0 1.5-.2.4-.2.6-.7.6-1.2 0-.4-.2-.9-.6-1.1-.4-.3-1.1-.2-1.6-.2h-1.3v2.7zM149 483.6h-2.1l-4-7h-.1v7H141v-10.4h2.6l3.5 6.1v-6.1h1.9v10.4zM161.6 483.6h-1.7l-2.5-8.5v8.5h-2.1v-10.4h3.8l1.8 6.3 1.9-6.3h3.8v10.4h-2.4v-8.5h-.1l-2.5 8.5zM169.2 482.1c-.8-1.1-1.1-2.4-1.1-3.7 0-2.8 1.4-5.4 4.5-5.4 1.4 0 2.5.5 3.3 1.6.7 1 1.1 2.5 1.1 3.8 0 1.2-.3 2.6-1 3.6-.8 1.2-2 1.8-3.5 1.8s-2.5-.5-3.3-1.7zm1.8-5.9c-.2.6-.3 1.5-.3 2.2 0 1.3.2 3.4 1.9 3.4.8 0 1.3-.4 1.6-1.2.2-.6.3-1.5.3-2.2 0-.8-.1-1.7-.4-2.4-.3-.7-.7-1-1.5-1s-1.3.4-1.6 1.2zM180.9 483.6h-2.4v-10.4h4.4c.9 0 1.9 0 2.7.5.9.6 1.3 1.6 1.3 2.6 0 1.2-.7 2.3-1.8 2.7l1.9 4.6h-2.7l-1.6-4.1h-1.8v4.1zm0-5.9h1.3c.5 0 1 0 1.5-.2.4-.2.6-.7.6-1.2 0-.4-.2-.9-.6-1.1-.4-.3-1.1-.2-1.6-.2h-1.3v2.7zM190.8 475.2v2.1h4v2h-4v2.3h5v2h-7.5v-10.4h7.5v2h-5z"/></g></svg>