<svg id="Layer_1" xmlns="http://www.w3.org/2000/svg" viewBox="0 0 300 650"><style>.st0{fill:#48a642}.st1{fill:none;stroke:#981b27;stroke-width:18.001;stroke-miterlimit:10}.st2{fill:#429891}.st3{fill:none;stroke:#981b27;stroke-width:5.675;stroke-miterlimit:10}.st4{fill:#4f131e}.st5{fill:#981b27}</style><path class="st0" d="M-1935.5 524.1h4046.1v165.6h-4046.1z"/><path class="st1" d="M18.7 527.4H262"/><path class="st2" d="M66.4 413.3h48.8v111.3H66.4z"/><path class="st3" d="M66.4 413.3h48.8v111.3H66.4z"/><path class="st4" d="M200.8 304.8h20.1v34.4h-20.1z"/><path class="st5" d="M225.5 309.1c0 2-1.9 3.6-4.2 3.6h-20.9c-2.3 0-4.2-1.6-4.2-3.6V303c0-2 1.9-3.6 4.2-3.6h20.9c2.3 0 4.2 1.6 4.2 3.6v6.1zM257.7 388.8l-114.3-76.2L29 388.8 22.9 367l120.5-80.3L263.8 367zM131.5 413.8H153v52.9h-21.5zM212.8 413.8h21.8v52.9h-21.8z"/><path class="st1" d="M18.7 527.4h233.7"/><path class="st0" d="M232.3 525.8c-3.3-2.7-11-3-13 1.6 1.2-4.2-.9-10-4.3-12.6-3.1-2.4-7.1-3-10.8-2.4-7 1.2-13.4 6.7-14.3 14.2-1.5-2.4-4-4-6.9-4-3.1 0-5.7 1.8-7.1 4.4-2.2-4.2-9.6-3.8-12.8-1.2-3.9 3.1-4.3 8.8-3.1 13.7h75.5c1.2-4.9.7-10.6-3.2-13.7"/></svg>