<svg id="Layer_1" xmlns="http://www.w3.org/2000/svg" xmlns:xlink="http://www.w3.org/1999/xlink" viewBox="0 0 300 600"><style>.st0{fill:#00c2ff}.st1{clip-path:url(#SVGID_4_);fill:url(#SVGID_5_)}.st2{clip-path:url(#SVGID_7_);fill:url(#SVGID_8_)}.st3{clip-path:url(#SVGID_10_);fill:url(#SVGID_11_)}.st4{clip-path:url(#SVGID_13_);fill:url(#SVGID_14_)}.st5{clip-path:url(#SVGID_16_);fill:#0e4c86}.st6{fill:none}.st7{fill:#fff}</style><path class="st0" d="M1 0h300v600H1V0zm193.8 371.1c28.2 0 51.1-22.9 51.1-51.1V203.7H129.6c-28 0-51.1 23.2-51.1 50.9v116.5h116.3z"/><defs><path id="SVGID_1_" d="M44.7 196.2h207.5v207.5H44.7z"/></defs><clipPath id="SVGID_2_"><use xlink:href="#SVGID_1_" overflow="visible"/></clipPath><defs><path id="SVGID_3_" d="M194.8 378.5H71.1l-25.2 25.2h136.7c8.5-1.9 16.1-6.1 22.1-12l19.4-19.4-1-1c-8.5 4.6-18.1 7.2-28.3 7.2"/></defs><clipPath id="SVGID_4_"><use xlink:href="#SVGID_3_" overflow="visible"/></clipPath><linearGradient id="SVGID_5_" gradientUnits="userSpaceOnUse" x1="1.675" y1="600.572" x2="2.787" y2="600.572" gradientTransform="matrix(0 -30.3241 -30.3241 0 18346.705 455.96)"><stop offset="0" stop-color="#10b0e6"/><stop offset=".159" stop-color="#0faae1"/><stop offset=".368" stop-color="#0c9ad2"/><stop offset=".604" stop-color="#077fba"/><stop offset=".858" stop-color="#015999"/><stop offset=".89" stop-color="#005494"/><stop offset="1" stop-color="#005494"/></linearGradient><path class="st1" d="M45.9 371.3H224v32.4H45.9z"/><defs><path id="SVGID_6_" d="M57.9 245c-8.1 8.3-13.1 19.7-13.1 32.2v126.5h1.1l25.2-25.2V254.6c0-9.9 2.5-19.4 7.2-27.9l-1.1-1.1L57.9 245z"/></defs><clipPath id="SVGID_7_"><use xlink:href="#SVGID_6_" overflow="visible"/></clipPath><linearGradient id="SVGID_8_" gradientUnits="userSpaceOnUse" x1="1.126" y1="600.968" x2="2.237" y2="600.968" gradientTransform="matrix(0 -162.0099 -162.0099 0 97424.344 588.706)"><stop offset="0" stop-color="#0081bd"/><stop offset=".393" stop-color="#006fac"/><stop offset=".85" stop-color="#005494"/><stop offset="1" stop-color="#005494"/></linearGradient><path class="st2" d="M44.7 225.7h33.6v178.1H44.7z"/><g><defs><path id="SVGID_9_" d="M194.8 378.5H71.1l-25.2 25.2h136.7c8.5-1.9 16.1-6.1 22.1-12l19.4-19.4-1-1c-8.5 4.6-18.1 7.2-28.3 7.2"/></defs><clipPath id="SVGID_10_"><use xlink:href="#SVGID_9_" overflow="visible"/></clipPath><linearGradient id="SVGID_11_" gradientUnits="userSpaceOnUse" x1="1.022" y1="601.143" x2="2.133" y2="601.143" gradientTransform="matrix(159.5534 0 0 -159.5534 -117.672 96301.914)"><stop offset="0" stop-color="#10b0e6"/><stop offset=".161" stop-color="#0faae1"/><stop offset=".372" stop-color="#0c9ad2"/><stop offset=".61" stop-color="#077fba"/><stop offset=".867" stop-color="#015999"/><stop offset=".9" stop-color="#005494"/><stop offset="1" stop-color="#005494"/></linearGradient><path class="st3" d="M45.9 371.3H224v32.4H45.9z"/></g><g><defs><path id="SVGID_12_" d="M194.8 378.5H71.1l-25.2 25.2h136.7c8.5-1.9 16.1-6.1 22.1-12l19.4-19.4-1-1c-8.5 4.6-18.1 7.2-28.3 7.2"/></defs><clipPath id="SVGID_13_"><use xlink:href="#SVGID_12_" overflow="visible"/></clipPath><linearGradient id="SVGID_14_" gradientUnits="userSpaceOnUse" x1="1.022" y1="601.143" x2="2.133" y2="601.143" gradientTransform="matrix(159.5534 0 0 -159.5534 -117.672 96301.914)"><stop offset="0" stop-color="#10b0e6"/><stop offset=".161" stop-color="#0faae1"/><stop offset=".372" stop-color="#0c9ad2"/><stop offset=".61" stop-color="#077fba"/><stop offset=".867" stop-color="#015999"/><stop offset=".9" stop-color="#005494"/><stop offset="1" stop-color="#005494"/></linearGradient><path class="st4" d="M45.9 371.3H224v32.4H45.9z"/></g><g><defs><path id="SVGID_15_" d="M330.7 225.2h207.5v207.5H330.7z"/></defs><clipPath id="SVGID_16_"><use xlink:href="#SVGID_15_" overflow="visible"/></clipPath><path class="st5" d="M709.5 441.1V324.6c0-27.7 23-50.9 51.1-50.9h116.3V390c0 28.2-23 51.1-51.1 51.1H709.5z"/></g><path class="st6" d="M44.7 196.2h207.5v207.5H44.7V196.2z"/><path class="st7" d="M252.3 196.2V320c0 32.3-26.3 58.5-58.6 58.5H70V254.6c0-15.4 6.1-30 17.2-41.1 11.1-11.1 25.8-17.2 41.3-17.2h123.8zm-57.5 174.9c28.2 0 51.1-22.9 51.1-51.1V203.7H129.6c-28 0-51.1 23.2-51.1 50.9v116.5h116.3z"/></svg>