<?xml version="1.0" encoding="utf-8"?>
<!-- Generator: Adobe Illustrator 17.0.0, SVG Export Plug-In . SVG Version: 6.00 Build 0)  -->
<!DOCTYPE svg PUBLIC "-//W3C//DTD SVG 1.1//EN" "http://www.w3.org/Graphics/SVG/1.1/DTD/svg11.dtd">
<svg version="1.1" id="Layer_2" xmlns="http://www.w3.org/2000/svg" xmlns:xlink="http://www.w3.org/1999/xlink" x="0px" y="0px"
	 width="320px" height="50px" viewBox="-20 0 320 50" enable-background="new -20 0 320 50" xml:space="preserve">
<g>
	<path fill="#231F20" d="M274.979,45.496c-0.695,0-1.301-0.486-1.301-1.386c0-1.02,0.749-2.11,1.774-2.639l0.54,0.252
		c-0.72,0.36-1.283,0.869-1.565,1.535c0.144-0.144,0.336-0.246,0.594-0.246c0.731,0,1.229,0.546,1.229,1.235
		C276.25,44.968,275.711,45.496,274.979,45.496z M274.984,43.517c-0.3,0-0.635,0.114-0.743,0.534
		c-0.007,0.065-0.007,0.132-0.007,0.197c0,0.432,0.36,0.792,0.756,0.792c0.396,0,0.708-0.306,0.708-0.762
		C275.698,43.847,275.404,43.517,274.984,43.517z"/>
	<path fill="#231F20" d="M278.146,45.502c-0.695,0-1.307-0.636-1.307-1.991c0-1.343,0.611-1.985,1.307-1.985
		c0.684,0,1.308,0.643,1.308,1.985C279.454,44.866,278.83,45.502,278.146,45.502z M278.146,42.012c-0.39,0-0.756,0.42-0.756,1.499
		c0,1.092,0.366,1.505,0.756,1.505c0.385,0,0.756-0.413,0.756-1.505C278.902,42.432,278.531,42.012,278.146,42.012z"/>
	<path fill="#231F20" d="M280.984,45.496c-0.293,0-0.569-0.066-0.725-0.15l-0.061-0.54c0.24,0.145,0.492,0.21,0.756,0.21
		c0.443,0,0.821-0.281,0.821-0.762c0-0.491-0.378-0.785-0.804-0.785c-0.281,0-0.479,0.036-0.659,0.102l0.06-1.967h1.674
		l-0.103,0.468h-1.05l-0.023,0.93c0.048-0.006,0.107-0.012,0.156-0.012c0.713,0,1.301,0.479,1.301,1.271
		C282.328,44.92,281.866,45.496,280.984,45.496z"/>
	<path fill="#231F20" d="M283.589,45.55l-0.54-0.252c0.732-0.366,1.302-0.863,1.578-1.535c-0.145,0.144-0.342,0.246-0.606,0.246
		c-0.731,0-1.229-0.546-1.229-1.235c0-0.72,0.54-1.248,1.271-1.248c0.695,0,1.302,0.486,1.302,1.386
		C285.364,43.931,284.614,45.021,283.589,45.55z M284.051,42.018c-0.396,0-0.707,0.306-0.707,0.762c0,0.432,0.293,0.762,0.713,0.762
		c0.307,0,0.636-0.126,0.744-0.546c0.006-0.06,0.006-0.12,0.006-0.186C284.807,42.377,284.446,42.018,284.051,42.018z"/>
	<path fill="#231F20" d="M287.225,45.496c-0.695,0-1.301-0.486-1.301-1.386c0-1.02,0.749-2.11,1.774-2.639l0.54,0.252
		c-0.72,0.36-1.283,0.869-1.565,1.535c0.144-0.144,0.336-0.246,0.594-0.246c0.731,0,1.229,0.546,1.229,1.235
		C288.496,44.968,287.957,45.496,287.225,45.496z M287.23,43.517c-0.3,0-0.635,0.114-0.743,0.534
		c-0.007,0.065-0.007,0.132-0.007,0.197c0,0.432,0.36,0.792,0.756,0.792c0.396,0,0.708-0.306,0.708-0.762
		C287.944,43.847,287.65,43.517,287.23,43.517z"/>
	<path fill="#231F20" d="M289.757,45.43h-0.587l1.451-3.358h-1.758v-0.468h2.537L289.757,45.43z"/>
	<path fill="#231F20" d="M293.17,45.496c-0.484,0-0.965-0.187-1.162-0.342V41.16h0.545v1.715c0.102-0.107,0.456-0.228,0.75-0.228
		c0.785,0,1.361,0.588,1.361,1.403C294.664,44.896,294.088,45.496,293.17,45.496z M293.248,43.139c-0.365,0-0.611,0.174-0.695,0.271
		v1.475c0.09,0.061,0.348,0.145,0.559,0.145c0.629,0,1.001-0.384,1.001-0.966C294.112,43.522,293.734,43.139,293.248,43.139z"/>
</g>
</svg>
