<?xml version="1.0" encoding="utf-8"?>
<!-- Generator: Adobe Illustrator 22.1.0, SVG Export Plug-In . SVG Version: 6.00 Build 0)  -->
<svg version="1.1" id="Layer_1" xmlns="http://www.w3.org/2000/svg" xmlns:xlink="http://www.w3.org/1999/xlink" x="0px" y="0px"
	 viewBox="0 0 320 50" style="enable-background:new 0 0 320 50;" xml:space="preserve">
<style type="text/css">
	.st0{fill:#231F20;}
</style>
<g>
	<path class="st0" d="M24.3,13.2v7.2h-2.2v-7.2h-2.6v-1.8h7.3v1.8H24.3z"/>
	<path class="st0" d="M30,20.6c-1.9,0-3.5-1.4-3.5-3.4s1.5-3.4,3.5-3.4c1.9,0,3.5,1.4,3.5,3.4S31.9,20.6,30,20.6z M30,15.6
		c-0.8,0-1.4,0.7-1.4,1.6s0.7,1.6,1.4,1.6c0.8,0,1.4-0.7,1.4-1.6S30.8,15.6,30,15.6z"/>
	<path class="st0" d="M37.7,20.6c-1.9,0-3.5-1.4-3.5-3.4s1.5-3.4,3.5-3.4c1.9,0,3.5,1.4,3.5,3.4S39.6,20.6,37.7,20.6z M37.7,15.6
		c-0.8,0-1.4,0.7-1.4,1.6s0.7,1.6,1.4,1.6c0.8,0,1.4-0.7,1.4-1.6S38.5,15.6,37.7,15.6z"/>
	<path class="st0" d="M53.3,20.4v-3.9c0-0.5-0.2-0.9-0.9-0.9c-0.7,0-1,0.4-1,0.9v3.9h-2.1v-3.9c0-0.5-0.2-0.9-0.9-0.9
		c-0.7,0-1,0.4-1,0.9v3.9h-2.1v-6.3h1.9v0.9h0c0.3-0.7,0.9-1.1,1.9-1.1c0.9,0,1.6,0.4,1.9,1c0.3-0.6,1-1,2-1c1.4,0,2.2,0.8,2.2,2.1
		v4.4H53.3z"/>
	<path class="st0" d="M61.2,20.7c-0.4-0.1-0.8-0.4-1-0.8c-0.3,0.5-0.9,0.8-1.7,0.8c-1.1,0-2.1-0.8-2.1-2.1c0-1.2,0.9-1.9,2.2-2.1
		l1.3-0.1v-0.2c0-0.4-0.3-0.6-1-0.6c-0.6,0-1.3,0.2-1.8,0.5l-0.4-1.6c0.5-0.3,1.4-0.6,2.2-0.6c1.7,0,2.9,0.8,2.9,2.3v2.1
		c0,0.7,0.3,1.1,0.8,1.3L61.2,20.7z M59.9,17.6l-0.8,0.1c-0.5,0-0.8,0.4-0.8,0.8c0,0.3,0.3,0.6,0.6,0.6c0.5,0,0.9-0.4,0.9-0.9V17.6z
		"/>
	<path class="st0" d="M67.4,20.4v-3.9c0-0.5-0.3-0.9-0.9-0.9c-0.6,0-1,0.4-1,0.9v3.9h-2.1v-6.3h1.9v0.9h0c0.3-0.7,0.9-1.1,1.9-1.1
		c1.4,0,2.2,0.8,2.2,2.1v4.4H67.4z"/>
	<path class="st0" d="M74.5,19.8c-1,2.5-2,3.5-3.2,3.9l-1.3-1.3c1-0.4,1.8-1.1,2.3-2.5l-2.3-5.9h2l0.9,2.5c0.1,0.4,0.3,0.8,0.4,1.2
		h0c0.1-0.4,0.3-0.9,0.4-1.2l0.9-2.5h1.9L74.5,19.8z"/>
	<path class="st0" d="M84.6,16.2c-0.1-0.1-0.4-0.2-0.6-0.2c-0.7,0-1.3,0.4-1.3,1.4v3h-2.1v-6.3h2v1.4h0c0.2-1,1-1.5,1.8-1.5
		c0.2,0,0.4,0,0.6,0.1L84.6,16.2z"/>
	<path class="st0" d="M91.6,16.9l-0.9,0.9h-3.1c0.1,0.5,0.8,1.1,1.9,1.1c0.7,0,1.3-0.2,1.8-0.5L91,20.2c-0.5,0.3-1.2,0.4-2,0.4
		c-1.9,0-3.5-1.3-3.5-3.4c0-2,1.5-3.3,3.3-3.3c1.8,0,2.8,1.2,2.8,2.5C91.7,16.5,91.6,16.7,91.6,16.9z M88.8,15.4
		c-0.6,0-1.1,0.5-1.2,1h2.1c0,0,0-0.1,0-0.1C89.7,15.8,89.4,15.4,88.8,15.4z"/>
	<path class="st0" d="M97.1,15.7h-1.7v2.4c0,0.5,0.3,0.8,0.8,0.8c0.2,0,0.4,0,0.5-0.1l-0.2,1.6c-0.2,0.1-0.5,0.2-1,0.2
		c-1.4,0-2.3-0.8-2.3-2v-2.7h-1.1v-1.7h1.1v-1.4l2-0.7v2.1h2L97.1,15.7z"/>
	<path class="st0" d="M99.3,13.2c-0.4,0-1.1-0.7-1.1-1.1c0-0.4,0.7-1.1,1.1-1.1c0.4,0,1.1,0.7,1.1,1.1
		C100.4,12.4,99.7,13.2,99.3,13.2z M98.3,20.4v-6.3h2.1v6.3H98.3z"/>
	<path class="st0" d="M105.8,16.2c-0.1-0.1-0.4-0.2-0.6-0.2c-0.7,0-1.3,0.4-1.3,1.4v3h-2.1v-6.3h2v1.4h0c0.2-1,1-1.5,1.8-1.5
		c0.2,0,0.4,0,0.6,0.1L105.8,16.2z"/>
	<path class="st0" d="M112.7,16.9l-0.9,0.9h-3.1c0.1,0.5,0.8,1.1,1.9,1.1c0.7,0,1.3-0.2,1.8-0.5l-0.2,1.8c-0.5,0.3-1.2,0.4-2,0.4
		c-1.9,0-3.5-1.3-3.5-3.4c0-2,1.5-3.3,3.3-3.3c1.8,0,2.8,1.2,2.8,2.5C112.8,16.5,112.8,16.7,112.7,16.9z M109.9,15.4
		c-0.6,0-1.1,0.5-1.2,1h2.1c0,0,0-0.1,0-0.1C110.9,15.8,110.5,15.4,109.9,15.4z"/>
	<path class="st0" d="M121.7,20.4v-3.9c0-0.5-0.2-0.9-0.9-0.9c-0.7,0-1,0.4-1,0.9v3.9h-2.1v-3.9c0-0.5-0.2-0.9-0.9-0.9
		c-0.7,0-1,0.4-1,0.9v3.9h-2.1v-6.3h1.9v0.9h0c0.3-0.7,0.9-1.1,1.9-1.1c0.9,0,1.6,0.4,1.9,1c0.3-0.6,1-1,2-1c1.4,0,2.2,0.8,2.2,2.1
		v4.4H121.7z"/>
	<path class="st0" d="M131,16.9l-0.9,0.9H127c0.1,0.5,0.8,1.1,1.9,1.1c0.7,0,1.3-0.2,1.8-0.5l-0.2,1.8c-0.5,0.3-1.2,0.4-2,0.4
		c-1.9,0-3.5-1.3-3.5-3.4c0-2,1.5-3.3,3.3-3.3c1.8,0,2.8,1.2,2.8,2.5C131,16.5,131,16.7,131,16.9z M128.2,15.4c-0.6,0-1.1,0.5-1.2,1
		h2.1c0,0,0-0.1,0-0.1C129.1,15.8,128.8,15.4,128.2,15.4z"/>
	<path class="st0" d="M136.2,20.4v-3.9c0-0.5-0.3-0.9-0.9-0.9c-0.6,0-1,0.4-1,0.9v3.9h-2.1v-6.3h1.9v0.9h0c0.3-0.7,0.9-1.1,1.9-1.1
		c1.4,0,2.2,0.8,2.2,2.1v4.4H136.2z"/>
	<path class="st0" d="M143.8,15.7h-1.7v2.4c0,0.5,0.3,0.8,0.8,0.8c0.2,0,0.4,0,0.5-0.1l-0.2,1.6c-0.2,0.1-0.5,0.2-1,0.2
		c-1.4,0-2.3-0.8-2.3-2v-2.7H139v-1.7h1.1v-1.4l2-0.7v2.1h2L143.8,15.7z"/>
</g>
<g>
	<path class="st0" d="M24.6,34.7c-0.4-0.1-0.8-0.4-1-0.8c-0.3,0.5-0.9,0.8-1.7,0.8c-1.1,0-2.1-0.8-2.1-2.1c0-1.2,0.9-1.9,2.2-2.1
		l1.3-0.1v-0.2c0-0.4-0.3-0.6-1-0.6c-0.6,0-1.3,0.2-1.8,0.5l-0.4-1.6c0.5-0.3,1.4-0.6,2.2-0.6c1.7,0,2.9,0.8,2.9,2.3v2.1
		c0,0.7,0.3,1.1,0.8,1.3L24.6,34.7z M23.2,31.6l-0.8,0.1c-0.5,0-0.8,0.4-0.8,0.8c0,0.3,0.3,0.6,0.6,0.6c0.5,0,0.9-0.4,0.9-0.9V31.6z
		"/>
	<path class="st0" d="M31.5,30.1c-0.4-0.3-0.9-0.4-1.4-0.4c-0.9,0-1.6,0.6-1.6,1.6c0,0.9,0.7,1.6,1.7,1.6c0.5,0,0.9-0.1,1.4-0.4
		l-0.2,1.8c-0.4,0.2-1,0.3-1.6,0.3c-1.8,0-3.4-1.3-3.4-3.3c0-2.1,1.7-3.3,3.4-3.3c0.8,0,1.5,0.2,2.1,0.5L31.5,30.1z"/>
	<path class="st0" d="M37.7,30.1c-0.4-0.3-0.9-0.4-1.4-0.4c-0.9,0-1.6,0.6-1.6,1.6c0,0.9,0.7,1.6,1.7,1.6c0.5,0,0.9-0.1,1.4-0.4
		l-0.2,1.8c-0.4,0.2-1,0.3-1.6,0.3c-1.8,0-3.4-1.3-3.4-3.3c0-2.1,1.7-3.3,3.4-3.3c0.8,0,1.5,0.2,2.1,0.5L37.7,30.1z"/>
	<path class="st0" d="M42.3,34.6c-1.9,0-3.5-1.4-3.5-3.4c0-2,1.5-3.4,3.5-3.4c1.9,0,3.5,1.4,3.5,3.4C45.7,33.2,44.2,34.6,42.3,34.6z
		 M42.3,29.6c-0.8,0-1.4,0.7-1.4,1.6s0.7,1.6,1.4,1.6c0.8,0,1.4-0.7,1.4-1.6S43,29.6,42.3,29.6z"/>
	<path class="st0" d="M51,34.4v-0.9h0c-0.3,0.7-0.9,1-1.9,1c-1.4,0-2.2-0.8-2.2-2.1v-4.4h2.1v3.9c0,0.5,0.3,0.9,1,0.9
		c0.6,0,1-0.4,1-0.9v-3.9h2.1v6.3H51z"/>
	<path class="st0" d="M58.3,34.4v-3.9c0-0.5-0.3-0.9-0.9-0.9c-0.6,0-1,0.4-1,0.9v3.9h-2.1v-6.3h1.9v0.9h0c0.3-0.7,0.9-1.1,1.9-1.1
		c1.4,0,2.2,0.8,2.2,2.1v4.4H58.3z"/>
	<path class="st0" d="M65.9,29.7h-1.7v2.4c0,0.5,0.3,0.8,0.8,0.8c0.2,0,0.4,0,0.5-0.1l-0.2,1.6c-0.2,0.1-0.5,0.2-1,0.2
		c-1.4,0-2.3-0.8-2.3-2v-2.7h-1.1v-1.7h1.1v-1.4l2-0.7v2.1h2L65.9,29.7z"/>
	<path class="st0" d="M69.1,34.5c-0.9,0-1.5-0.2-2-0.4l-0.2-1.8c0.6,0.4,1.3,0.7,2,0.7c0.4,0,0.6-0.2,0.6-0.4c0-0.3-0.2-0.4-0.6-0.5
		c-1.2-0.4-1.9-1-1.9-2.1c0-1.2,1-2,2.4-2c0.8,0,1.6,0.2,1.9,0.4l-0.4,1.5c-0.3-0.2-0.8-0.3-1.3-0.3c-0.3,0-0.6,0.2-0.6,0.4
		c0,0.2,0.2,0.4,0.6,0.5c1.4,0.4,2,1.1,2,2.2C71.6,33.6,70.8,34.5,69.1,34.5z"/>
</g>
<g>
	<path class="st0" d="M83.6,34.4v-3.9c0-0.5-0.2-0.9-0.9-0.9c-0.7,0-1,0.4-1,0.9v3.9h-2.1v-3.9c0-0.5-0.2-0.9-0.9-0.9
		c-0.7,0-1,0.4-1,0.9v3.9h-2.1v-6.3h1.9v0.9h0c0.3-0.7,0.9-1.1,1.9-1.1c0.9,0,1.6,0.4,1.9,1c0.3-0.6,1-1,2-1c1.4,0,2.2,0.8,2.2,2.1
		v4.4H83.6z"/>
	<path class="st0" d="M91.6,34.7c-0.4-0.1-0.8-0.4-1-0.8c-0.3,0.5-0.9,0.8-1.7,0.8c-1.1,0-2.1-0.8-2.1-2.1c0-1.2,0.9-1.9,2.2-2.1
		l1.3-0.1v-0.2c0-0.4-0.3-0.6-1-0.6c-0.6,0-1.3,0.2-1.8,0.5l-0.4-1.6c0.5-0.3,1.4-0.6,2.2-0.6c1.7,0,2.9,0.8,2.9,2.3v2.1
		c0,0.7,0.3,1.1,0.8,1.3L91.6,34.7z M90.3,31.6l-0.8,0.1c-0.5,0-0.8,0.4-0.8,0.8c0,0.3,0.3,0.6,0.6,0.6c0.5,0,0.9-0.4,0.9-0.9V31.6z
		"/>
	<path class="st0" d="M97.4,33.8c-1,2.5-2,3.5-3.2,3.9L93,36.4c1-0.4,1.8-1.1,2.3-2.5L93,28.1h2l0.9,2.5c0.1,0.4,0.3,0.8,0.4,1.2h0
		c0.1-0.4,0.3-0.9,0.4-1.2l0.9-2.5h1.9L97.4,33.8z"/>
	<path class="st0" d="M106.7,34.6c-1.3,0-2.4-0.5-3.1-0.9v-9.2h2v3.9c0.3-0.2,0.9-0.4,1.6-0.4c1.8,0,3.2,1.2,3.2,3.2
		C110.4,33.1,109.2,34.6,106.7,34.6z M106.8,29.7c-0.6,0-1,0.3-1.2,0.5v2.4c0.2,0.2,0.6,0.3,1,0.3c1.1,0,1.7-0.7,1.7-1.6
		C108.4,30.4,107.7,29.7,106.8,29.7z"/>
	<path class="st0" d="M117.3,30.9l-0.9,0.9h-3.1c0.1,0.5,0.8,1.1,1.9,1.1c0.7,0,1.3-0.2,1.8-0.5l-0.2,1.8c-0.5,0.3-1.2,0.4-2,0.4
		c-1.9,0-3.5-1.3-3.5-3.4c0-2,1.5-3.3,3.3-3.3c1.8,0,2.8,1.2,2.8,2.5C117.4,30.5,117.4,30.7,117.3,30.9z M114.5,29.4
		c-0.6,0-1.1,0.5-1.2,1h2.1c0,0,0-0.1,0-0.1C115.5,29.8,115.1,29.4,114.5,29.4z"/>
	<path class="st0" d="M126.5,30.1c-0.4-0.3-0.9-0.4-1.4-0.4c-0.9,0-1.6,0.6-1.6,1.6c0,0.9,0.7,1.6,1.7,1.6c0.5,0,0.9-0.1,1.4-0.4
		l-0.2,1.8c-0.4,0.2-1,0.3-1.6,0.3c-1.8,0-3.4-1.3-3.4-3.3c0-2.1,1.7-3.3,3.4-3.3c0.8,0,1.5,0.2,2.1,0.5L126.5,30.1z"/>
	<path class="st0" d="M131.1,34.6c-1.9,0-3.5-1.4-3.5-3.4c0-2,1.5-3.4,3.5-3.4c1.9,0,3.5,1.4,3.5,3.4
		C134.5,33.2,133,34.6,131.1,34.6z M131.1,29.6c-0.8,0-1.4,0.7-1.4,1.6s0.7,1.6,1.4,1.6c0.8,0,1.4-0.7,1.4-1.6
		S131.8,29.6,131.1,29.6z"/>
	<path class="st0" d="M137.6,34.5c-0.9,0-1.5-0.2-2-0.4l-0.2-1.8c0.6,0.4,1.3,0.7,2,0.7c0.4,0,0.6-0.2,0.6-0.4
		c0-0.3-0.2-0.4-0.6-0.5c-1.2-0.4-1.9-1-1.9-2.1c0-1.2,1-2,2.4-2c0.8,0,1.6,0.2,1.9,0.4l-0.4,1.5c-0.3-0.2-0.8-0.3-1.3-0.3
		c-0.3,0-0.6,0.2-0.6,0.4c0,0.2,0.2,0.4,0.6,0.5c1.4,0.4,2,1.1,2,2.2C140.1,33.6,139.3,34.5,137.6,34.5z"/>
	<path class="st0" d="M145.4,29.7h-1.7v2.4c0,0.5,0.3,0.8,0.8,0.8c0.2,0,0.4,0,0.5-0.1l-0.2,1.6c-0.2,0.1-0.5,0.2-1,0.2
		c-1.4,0-2.3-0.8-2.3-2v-2.7h-1.1v-1.7h1.1v-1.4l2-0.7v2.1h2L145.4,29.7z"/>
	<path class="st0" d="M148.7,34.7c-1.3-0.1-2.2-0.7-2.2-2.3v-8h2v7.7c0,0.5,0.3,0.8,0.9,0.8L148.7,34.7z"/>
	<path class="st0" d="M154,33.8c-1,2.5-2,3.5-3.2,3.9l-1.3-1.3c1-0.4,1.8-1.1,2.3-2.5l-2.3-5.9h2l0.9,2.5c0.1,0.4,0.3,0.8,0.4,1.2h0
		c0.1-0.4,0.3-0.9,0.4-1.2l0.9-2.5h1.9L154,33.8z"/>
	<path class="st0" d="M157.3,34.6c-0.4,0-1.2-0.8-1.2-1.2c0-0.4,0.8-1.1,1.2-1.1s1.2,0.8,1.2,1.1C158.5,33.8,157.7,34.6,157.3,34.6z
		"/>
</g>
</svg>
