<svg id="Layer_1" xmlns="http://www.w3.org/2000/svg" viewBox="0 0 320 50"><style>.st0{fill:#231f20}</style><path class="st0" d="M25.6 28.7v-3.5h-3.4v3.5H20v-8.9h2.2v3.5h3.4v-3.5h2.2v8.9h-2.2zM33.9 29c-.4-.1-.8-.4-1-.8-.3.5-.9.8-1.7.8-1.1 0-2.1-.8-2.1-2.1 0-1.2.9-1.9 2.2-2.1l1.3-.1v-.2c0-.4-.3-.6-1-.6-.6 0-1.3.2-1.8.5l-.4-1.6c.5-.3 1.4-.6 2.2-.6 1.7 0 2.9.8 2.9 2.3v2.1c0 .7.3 1.1.8 1.3L33.9 29zm-1.4-3h-.7c-.5 0-.8.4-.8.8 0 .3.3.6.6.6.5 0 .9-.4.9-.9V26zM39.2 28.8h-1.5l-2.4-6.4h2l.9 2.4c.1.3.3.8.4 1.2.1-.4.2-.9.4-1.2l.9-2.4h1.9l-2.6 6.4zM43.6 21.5c-.4 0-1.1-.7-1.1-1.1s.7-1.1 1.1-1.1c.4 0 1.1.7 1.1 1.1s-.8 1.1-1.1 1.1zm-1.1 7.2v-6.3h2.1v6.3h-2.1zM50 28.7v-3.9c0-.5-.3-.9-.9-.9-.6 0-1 .4-1 .9v3.9H46v-6.3h1.9v.9c.3-.7.9-1.1 1.9-1.1 1.4 0 2.2.8 2.2 2.1v4.4h-2zM56.2 32c-1.8 0-3.1-1-3.1-2.4 0-1 .6-1.5 1.3-1.7l-.8-.8c.1-.4.4-.8.8-.9-.5-.3-.9-.9-.9-1.7 0-1.3 1-2.3 2.6-2.3.4 0 .7.1.9.1.3.1.6.1.9.1.4 0 .7-.1 1-.2l.4 1.6c-.2.1-.5.2-.8.2.1.1.2.4.2.6 0 1.1-.8 2-2.1 2-.3 0-.4.1-.4.2s.1.2.2.2l1 .3c1.2.4 1.9 1.1 1.9 2.2C59.2 31 58 32 56.2 32zm.4-3l-.8-.2c-.5 0-.9.4-.9.8s.4.8 1.1.8c.7 0 1.1-.3 1.1-.7.1-.3-.1-.6-.5-.7zm-.6-5.3c-.5 0-.8.4-.8.8s.4.8.8.8.8-.3.8-.8-.3-.8-.8-.8zM71.2 28.7v-3.9c0-.5-.2-.9-.9-.9s-1 .4-1 .9v3.9h-2.1v-3.9c0-.5-.2-.9-.9-.9s-1 .4-1 .9v3.9h-2.1v-6.3h1.9v.9c.3-.7.9-1.1 1.9-1.1.9 0 1.6.4 1.9 1 .3-.6 1-1 2-1 1.4 0 2.2.8 2.2 2.1v4.4h-1.9zM78.8 28.7v-.9c-.3.7-.9 1-1.9 1-1.4 0-2.2-.8-2.2-2.1v-4.4h2.1v3.9c0 .5.3.9 1 .9.6 0 1-.4 1-.9v-3.9h2.1v6.3h-2.1zM84.3 29c-1.3-.1-2.2-.7-2.2-2.3v-8h2v7.7c0 .5.3.8.9.8l-.7 1.8zM90.1 24.1h-1.7v2.4c0 .5.3.8.8.8.2 0 .4 0 .5-.1l-.2 1.6c-.2.1-.5.2-1 .2-1.4 0-2.3-.8-2.3-2v-2.7h-1.1v-1.7h1.1V21l2-.7v2.1h2l-.1 1.7zM92.3 21.5c-.4 0-1.1-.7-1.1-1.1s.7-1.1 1.1-1.1c.4 0 1.1.7 1.1 1.1s-.7 1.1-1.1 1.1zm-1 7.2v-6.3h2.1v6.3h-2.1zM98.4 28.9c-.7 0-1.4-.2-1.6-.4V32h-2v-9.6h1.8v.8c.4-.6 1.1-1 2-1 1.6 0 3.1 1.2 3.1 3.3 0 2.1-1.5 3.4-3.3 3.4zm-.3-4.9c-.6 0-1 .3-1.2.7v2c.2.3.6.6 1.2.6.9 0 1.5-.7 1.5-1.6 0-1-.6-1.7-1.5-1.7zM105 29c-1.3-.1-2.2-.7-2.2-2.3v-8h2v7.7c0 .5.3.8.9.8L105 29zM112.3 25.2l-.9.9h-3.1c.1.5.8 1.1 1.9 1.1.7 0 1.3-.2 1.8-.5l-.2 1.8c-.5.3-1.2.4-2 .4-1.9 0-3.5-1.3-3.5-3.4 0-2 1.5-3.3 3.3-3.3 1.8 0 2.8 1.2 2.8 2.5 0 .2 0 .4-.1.5zm-2.8-1.5c-.6 0-1.1.5-1.2 1h2.1v-.1c.1-.4-.3-.9-.9-.9zM121.2 29c-.4-.1-.8-.4-1-.8-.3.5-.9.8-1.7.8-1.1 0-2.1-.8-2.1-2.1 0-1.2.9-1.9 2.2-2.1l1.3-.1v-.2c0-.4-.3-.6-1-.6-.6 0-1.3.2-1.8.5l-.4-1.6c.5-.3 1.4-.6 2.2-.6 1.7 0 2.9.8 2.9 2.3v2.1c0 .7.3 1.1.8 1.3l-1.4 1.1zm-1.4-3l-.8.1c-.5 0-.8.4-.8.8 0 .3.3.6.6.6.5 0 .9-.4.9-.9V26zM128.1 24.4c-.4-.3-.9-.4-1.4-.4-.9 0-1.6.6-1.6 1.6 0 .9.7 1.6 1.7 1.6.5 0 .9-.1 1.4-.3l-.2 1.8c-.4.2-1 .3-1.6.3-1.8 0-3.4-1.3-3.4-3.3 0-2.1 1.7-3.3 3.4-3.3.8 0 1.5.2 2.1.5l-.4 1.5zM134.3 24.4c-.4-.3-.9-.4-1.4-.4-.9 0-1.6.6-1.6 1.6 0 .9.7 1.6 1.7 1.6.5 0 .9-.1 1.4-.3l-.2 1.8c-.4.2-1 .3-1.6.3-1.8 0-3.4-1.3-3.4-3.3 0-2.1 1.7-3.3 3.4-3.3.8 0 1.5.2 2.1.5l-.4 1.5zM138.9 28.9c-1.9 0-3.5-1.4-3.5-3.4s1.5-3.4 3.5-3.4c1.9 0 3.5 1.4 3.5 3.4-.1 2.1-1.6 3.4-3.5 3.4zm0-4.9c-.8 0-1.4.7-1.4 1.6 0 .9.7 1.6 1.4 1.6.8 0 1.4-.7 1.4-1.6 0-.9-.7-1.6-1.4-1.6zM147.6 28.7v-.9c-.3.7-.9 1-1.9 1-1.4 0-2.2-.8-2.2-2.1v-4.4h2.1v3.9c0 .5.3.9 1 .9.6 0 1-.4 1-.9v-3.9h2.1v6.3h-2.1zM154.9 28.7v-3.9c0-.5-.3-.9-.9-.9-.6 0-1 .4-1 .9v3.9h-2.1v-6.3h1.9v.9c.3-.7.9-1.1 1.9-1.1 1.4 0 2.2.8 2.2 2.1v4.4h-2zM162.5 24.1h-1.7v2.4c0 .5.3.8.8.8.2 0 .4 0 .5-.1l-.2 1.6c-.2.1-.5.2-1 .2-1.4 0-2.3-.8-2.3-2v-2.7h-1.1v-1.7h1.1V21l2-.7v2.1h2l-.1 1.7zM165.7 28.9c-.9 0-1.5-.2-2-.4l-.2-1.8c.6.4 1.3.7 2 .7.4 0 .6-.2.6-.4 0-.3-.2-.4-.6-.5-1.2-.4-1.9-1-1.9-2.1 0-1.2 1-2 2.4-2 .8 0 1.6.2 1.9.4l-.4 1.5c-.3-.2-.8-.4-1.3-.4-.3 0-.6.2-.6.4s.2.4.6.5c1.4.4 2 1.1 2 2.2-.1.9-.8 1.9-2.5 1.9z"/></svg>