<?xml version="1.0" encoding="utf-8"?>
<!-- Generator: Adobe Illustrator 22.1.0, SVG Export Plug-In . SVG Version: 6.00 Build 0)  -->
<svg version="1.1" id="Layer_1" xmlns="http://www.w3.org/2000/svg" xmlns:xlink="http://www.w3.org/1999/xlink" x="0px" y="0px"
	 viewBox="0 0 320 50" style="enable-background:new 0 0 320 50;" xml:space="preserve">
<style type="text/css">
	.st0{fill:#231F20;}
</style>
<g>
	<path class="st0" d="M27.7,21.5v-3.9c0-0.5-0.2-0.9-0.9-0.9c-0.7,0-1,0.4-1,0.9v3.9h-2.1v-3.9c0-0.5-0.2-0.9-0.9-0.9
		c-0.7,0-1,0.4-1,0.9v3.9h-2.1v-6.3h1.9V16h0c0.3-0.7,0.9-1.1,1.9-1.1c0.9,0,1.6,0.4,1.9,1c0.3-0.6,1-1,2-1c1.4,0,2.2,0.8,2.2,2.1
		v4.4H27.7z"/>
	<path class="st0" d="M35.7,21.7c-0.4-0.1-0.8-0.4-1-0.8c-0.3,0.5-0.9,0.8-1.7,0.8c-1.1,0-2.1-0.8-2.1-2.1c0-1.2,0.9-1.9,2.2-2.1
		l1.3-0.1v-0.2c0-0.4-0.3-0.6-1-0.6c-0.6,0-1.3,0.2-1.8,0.5l-0.4-1.6c0.5-0.3,1.4-0.6,2.2-0.6c1.7,0,2.9,0.8,2.9,2.3v2.1
		c0,0.7,0.3,1.1,0.8,1.3L35.7,21.7z M34.3,18.7l-0.8,0.1c-0.5,0-0.8,0.4-0.8,0.8c0,0.3,0.3,0.6,0.6,0.6c0.5,0,0.9-0.4,0.9-0.9V18.7z
		"/>
	<path class="st0" d="M41.5,20.8c-1,2.5-2,3.5-3.2,3.9L37,23.5c1-0.4,1.8-1.1,2.3-2.5l-2.3-5.9h2l0.9,2.5c0.1,0.4,0.3,0.8,0.4,1.2h0
		c0.1-0.4,0.3-0.9,0.4-1.2l0.9-2.5h1.9L41.5,20.8z"/>
	<path class="st0" d="M52.4,17.2c-0.4-0.3-0.9-0.4-1.4-0.4c-0.9,0-1.6,0.6-1.6,1.6c0,0.9,0.7,1.6,1.7,1.6c0.5,0,0.9-0.1,1.4-0.4
		l-0.2,1.8c-0.4,0.2-1,0.3-1.6,0.3c-1.8,0-3.4-1.3-3.4-3.3c0-2.1,1.7-3.3,3.4-3.3c0.8,0,1.5,0.2,2.1,0.5L52.4,17.2z"/>
	<path class="st0" d="M57,21.7c-1.9,0-3.5-1.4-3.5-3.4s1.5-3.4,3.5-3.4c1.9,0,3.5,1.4,3.5,3.4S58.9,21.7,57,21.7z M57,16.7
		c-0.8,0-1.4,0.7-1.4,1.6s0.7,1.6,1.4,1.6c0.8,0,1.4-0.7,1.4-1.6S57.8,16.7,57,16.7z"/>
	<path class="st0" d="M63.5,21.6c-0.9,0-1.5-0.2-2-0.4l-0.2-1.8c0.6,0.4,1.3,0.7,2,0.7c0.4,0,0.6-0.2,0.6-0.4c0-0.3-0.2-0.4-0.6-0.5
		c-1.2-0.4-1.9-1-1.9-2.1c0-1.2,1-2,2.4-2c0.8,0,1.6,0.2,1.9,0.4l-0.4,1.5c-0.3-0.2-0.8-0.4-1.3-0.4c-0.3,0-0.6,0.2-0.6,0.4
		c0,0.2,0.2,0.4,0.6,0.5c1.4,0.4,2,1.1,2,2.2C66,20.6,65.3,21.6,63.5,21.6z"/>
	<path class="st0" d="M71.3,16.8h-1.7v2.4c0,0.5,0.3,0.8,0.8,0.8c0.2,0,0.4,0,0.5-0.1l-0.2,1.6c-0.2,0.1-0.5,0.2-1,0.2
		c-1.4,0-2.3-0.8-2.3-2v-2.7h-1.1v-1.7h1.1v-1.4l2-0.7v2.1h2L71.3,16.8z"/>
	<path class="st0" d="M83.4,21.5v-3.9c0-0.5-0.2-0.9-0.9-0.9c-0.7,0-1,0.4-1,0.9v3.9h-2.1v-3.9c0-0.5-0.2-0.9-0.9-0.9
		c-0.7,0-1,0.4-1,0.9v3.9h-2.1v-6.3h1.9V16h0c0.3-0.7,0.9-1.1,1.9-1.1c0.9,0,1.6,0.4,1.9,1c0.3-0.6,1-1,2-1c1.4,0,2.2,0.8,2.2,2.1
		v4.4H83.4z"/>
	<path class="st0" d="M90,21.7c-1.9,0-3.5-1.4-3.5-3.4s1.5-3.4,3.5-3.4c1.9,0,3.5,1.4,3.5,3.4S91.9,21.7,90,21.7z M90,16.7
		c-0.8,0-1.4,0.7-1.4,1.6s0.7,1.6,1.4,1.6c0.8,0,1.4-0.7,1.4-1.6S90.8,16.7,90,16.7z"/>
	<path class="st0" d="M98.5,17.3c-0.1-0.1-0.4-0.2-0.6-0.2c-0.7,0-1.3,0.4-1.3,1.4v3h-2.1v-6.3h2v1.4h0c0.2-1,1-1.5,1.8-1.5
		c0.2,0,0.4,0,0.6,0.1L98.5,17.3z"/>
	<path class="st0" d="M105.5,17.9l-0.9,0.9h-3.1c0.1,0.5,0.8,1.1,1.9,1.1c0.7,0,1.3-0.2,1.8-0.5l-0.2,1.8c-0.5,0.3-1.2,0.4-2,0.4
		c-1.9,0-3.5-1.3-3.5-3.4c0-2,1.5-3.3,3.3-3.3c1.8,0,2.8,1.2,2.8,2.5C105.6,17.6,105.5,17.8,105.5,17.9z M102.7,16.5
		c-0.6,0-1.1,0.5-1.2,1h2.1c0,0,0-0.1,0-0.1C103.7,16.9,103.3,16.5,102.7,16.5z"/>
	<path class="st0" d="M114,16.8h-1.7v2.4c0,0.5,0.3,0.8,0.8,0.8c0.2,0,0.4,0,0.5-0.1l-0.2,1.6c-0.2,0.1-0.5,0.2-1,0.2
		c-1.4,0-2.3-0.8-2.3-2v-2.7h-1.1v-1.7h1.1v-1.4l2-0.7v2.1h2L114,16.8z"/>
	<path class="st0" d="M119.3,21.5v-3.9c0-0.5-0.3-0.9-1-0.9c-0.6,0-1,0.4-1,0.9v3.9h-2.1v-10h2v4.2h0c0.3-0.5,0.9-0.8,1.8-0.8
		c1.4,0,2.2,0.8,2.2,2.1v4.4H119.3z"/>
	<path class="st0" d="M127.2,21.7c-0.4-0.1-0.8-0.4-1-0.8c-0.3,0.5-0.9,0.8-1.7,0.8c-1.1,0-2.1-0.8-2.1-2.1c0-1.2,0.9-1.9,2.2-2.1
		l1.3-0.1v-0.2c0-0.4-0.3-0.6-1-0.6c-0.6,0-1.3,0.2-1.8,0.5l-0.4-1.6c0.5-0.3,1.4-0.6,2.2-0.6c1.7,0,2.9,0.8,2.9,2.3v2.1
		c0,0.7,0.3,1.1,0.8,1.3L127.2,21.7z M125.9,18.7l-0.8,0.1c-0.5,0-0.8,0.4-0.8,0.8c0,0.3,0.3,0.6,0.6,0.6c0.5,0,0.9-0.4,0.9-0.9
		V18.7z"/>
	<path class="st0" d="M133.4,21.5v-3.9c0-0.5-0.3-0.9-0.9-0.9c-0.6,0-1,0.4-1,0.9v3.9h-2.1v-6.3h1.9V16h0c0.3-0.7,0.9-1.1,1.9-1.1
		c1.4,0,2.2,0.8,2.2,2.1v4.4H133.4z"/>
</g>
<g>
	<path class="st0" d="M23.8,34.8c-1,2.5-2,3.5-3.2,3.9l-1.3-1.3c1-0.4,1.8-1.1,2.3-2.5l-2.3-5.9h2l0.9,2.5c0.1,0.4,0.3,0.8,0.4,1.2
		h0c0.1-0.4,0.3-0.9,0.4-1.2l0.9-2.5H26L23.8,34.8z"/>
	<path class="st0" d="M29.7,35.7c-1.9,0-3.5-1.4-3.5-3.4c0-2,1.5-3.4,3.5-3.4c1.9,0,3.5,1.4,3.5,3.4C33.2,34.3,31.6,35.7,29.7,35.7z
		 M29.7,30.7c-0.8,0-1.4,0.7-1.4,1.6s0.7,1.6,1.4,1.6c0.8,0,1.4-0.7,1.4-1.6S30.5,30.7,29.7,30.7z"/>
	<path class="st0" d="M38.4,35.5v-0.9h0c-0.3,0.7-0.9,1-1.9,1c-1.4,0-2.2-0.8-2.2-2.1v-4.4h2.1V33c0,0.5,0.3,0.9,1,0.9
		c0.6,0,1-0.4,1-0.9v-3.9h2.1v6.3H38.4z"/>
	<path class="st0" d="M49.1,30.8h-1.7v2.4c0,0.5,0.3,0.8,0.8,0.8c0.2,0,0.4,0,0.5-0.1l-0.2,1.6c-0.2,0.1-0.5,0.2-1,0.2
		c-1.4,0-2.3-0.8-2.3-2v-2.7h-1.1v-1.7h1.1v-1.4l2-0.7v2.1h2L49.1,30.8z"/>
	<path class="st0" d="M54.3,35.5v-3.9c0-0.5-0.3-0.9-1-0.9c-0.6,0-1,0.4-1,0.9v3.9h-2.1v-10h2v4.2h0c0.3-0.5,0.9-0.8,1.8-0.8
		c1.4,0,2.2,0.8,2.2,2.1v4.4H54.3z"/>
	<path class="st0" d="M58.8,28.3c-0.4,0-1.1-0.7-1.1-1.1s0.7-1.1,1.1-1.1c0.4,0,1.1,0.7,1.1,1.1S59.2,28.3,58.8,28.3z M57.8,35.5
		v-6.3h2.1v6.3H57.8z"/>
	<path class="st0" d="M65.3,35.5v-3.9c0-0.5-0.3-0.9-0.9-0.9c-0.6,0-1,0.4-1,0.9v3.9h-2.1v-6.3h1.9V30h0c0.3-0.7,0.9-1.1,1.9-1.1
		c1.4,0,2.2,0.8,2.2,2.1v4.4H65.3z"/>
	<path class="st0" d="M72.7,35.5l-1.9-2.6h0v2.6h-2v-10h2v6.2h0l1.9-2.6H75l-2.2,3.1l2.4,3.3H72.7z"/>
	<path class="st0" d="M76.8,35.7c-0.4,0-1.2-0.8-1.2-1.2c0-0.4,0.8-1.1,1.2-1.1c0.4,0,1.2,0.8,1.2,1.1C78,34.9,77.2,35.7,76.8,35.7z
		"/>
</g>
</svg>
