<?xml version="1.0" encoding="utf-8"?>
<!-- Generator: Adobe Illustrator 22.1.0, SVG Export Plug-In . SVG Version: 6.00 Build 0)  -->
<svg version="1.1" id="Layer_1" xmlns="http://www.w3.org/2000/svg" xmlns:xlink="http://www.w3.org/1999/xlink" x="0px" y="0px"
	 viewBox="0 0 320 50" style="enable-background:new 0 0 320 50;" xml:space="preserve">
<style type="text/css">
	.st0{fill:#F9E038;}
	.st1{fill:#231F20;}
</style>
<path class="st0" d="M256.4,7c0,0-5,0-5,5v3.1c0,0,0,5,5,5h47.8c0,0,5,0,5-5V12c0,0,0-5-5-5H256.4z"/>
<g>
	<path class="st1" d="M262.7,15.7h-0.9V12h1.6c0.3,0,0.7,0,1,0.2c0.3,0.2,0.5,0.6,0.5,0.9c0,0.4-0.2,0.8-0.7,1l0.7,1.7h-1l-0.6-1.5
		h-0.6V15.7z M262.7,13.6h0.5c0.2,0,0.4,0,0.5-0.1c0.1-0.1,0.2-0.3,0.2-0.4c0-0.1-0.1-0.3-0.2-0.4c-0.1-0.1-0.4-0.1-0.6-0.1h-0.5
		V13.6z"/>
	<path class="st1" d="M266.4,12.7v0.8h1.4v0.7h-1.4V15h1.8v0.7h-2.7V12h2.7v0.7H266.4z"/>
	<path class="st1" d="M271.9,15.7h-1l-0.2-0.8h-1.2l-0.2,0.8h-0.8l1.2-3.8h1L271.9,15.7z M270.6,14.3l-0.4-1.3l-0.4,1.3H270.6z"/>
	<path class="st1" d="M273.5,12c0.5,0,1,0,1.4,0.4c0.4,0.4,0.6,0.9,0.6,1.5c0,0.5-0.2,1-0.5,1.4c-0.4,0.4-0.8,0.5-1.4,0.5h-1.2V12
		H273.5z M273.3,15h0.3c0.4,0,0.6-0.1,0.8-0.4c0.1-0.2,0.2-0.5,0.2-0.8c0-0.3-0.1-0.6-0.3-0.9c-0.2-0.3-0.4-0.3-0.7-0.3h-0.3V15z"/>
	<path class="st1" d="M280.7,15.7h-1l-0.2-0.8h-1.2l-0.2,0.8h-0.8l1.2-3.8h1L280.7,15.7z M279.3,14.3l-0.4-1.3l-0.4,1.3H279.3z"/>
	<path class="st1" d="M282.1,15.7h-0.9V12h1.6c0.3,0,0.7,0,1,0.2c0.3,0.2,0.5,0.6,0.5,0.9c0,0.4-0.2,0.8-0.7,1l0.7,1.7h-1l-0.6-1.5
		h-0.6V15.7z M282.1,13.6h0.5c0.2,0,0.4,0,0.5-0.1c0.1-0.1,0.2-0.3,0.2-0.4c0-0.1-0.1-0.3-0.2-0.4c-0.1-0.1-0.4-0.1-0.6-0.1h-0.5
		V13.6z"/>
	<path class="st1" d="M287.5,12.7h-0.9v3h-0.9v-3h-1V12h2.8V12.7z"/>
	<path class="st1" d="M288.9,15.7H288V12h0.9V15.7z"/>
	<path class="st1" d="M291.8,13.4c0-0.4-0.1-0.8-0.6-0.8c-0.6,0-0.7,0.8-0.7,1.3c0,0.5,0.1,1.2,0.7,1.2c0.4,0,0.6-0.3,0.7-0.7
		l0.9,0.1c-0.1,0.9-0.7,1.4-1.6,1.4c-1.1,0-1.7-0.9-1.7-1.9c0-1,0.6-1.9,1.7-1.9c0.9,0,1.4,0.5,1.5,1.5L291.8,13.4z"/>
	<path class="st1" d="M295.8,15v0.7h-2.4V12h0.9v3H295.8z"/>
	<path class="st1" d="M297.1,12.7v0.8h1.4v0.7h-1.4V15h1.8v0.7h-2.7V12h2.7v0.7H297.1z"/>
</g>
</svg>
