<?xml version="1.0" encoding="utf-8"?>
<!-- Generator: Adobe Illustrator 22.1.0, SVG Export Plug-In . SVG Version: 6.00 Build 0)  -->
<svg version="1.1" id="Layer_1" xmlns="http://www.w3.org/2000/svg" xmlns:xlink="http://www.w3.org/1999/xlink" x="0px" y="0px"
	 viewBox="0 0 320 50" style="enable-background:new 0 0 320 50;" xml:space="preserve">
<style type="text/css">
	.st0{fill:#FFFFFF;}
	.st1{clip-path:url(#SVGID_2_);fill:#FFFFFF;}
	.st2{clip-path:url(#SVGID_4_);fill:url(#SVGID_5_);}
	.st3{clip-path:url(#SVGID_7_);fill:url(#SVGID_8_);}
	.st4{clip-path:url(#SVGID_10_);fill:url(#SVGID_11_);}
</style>
<path class="st0" d="M279,28.9v1.7h-3.1V39h-2v-8.4h-3.1v-1.7H279z M279.8,39h2v-5.1v-5.1h-2v5.1V39z M291.9,39h-2l-1-2.5h-3.4
	l-1,2.5h-2l4.3-10.3h0.9L291.9,39z M301.4,39h-2l-1-2.5h-3.4l-1,2.5h-2l4.3-10.3h0.9L301.4,39z M288.2,34.9l-1-2.5l-1,2.5H288.2z
	 M297.6,34.9l-1-2.5l-1,2.5H297.6z"/>
<g>
	<defs>
		<rect id="SVGID_1_" x="254.3" y="24.7" width="49.7" height="16.9"/>
	</defs>
	<clipPath id="SVGID_2_">
		<use xlink:href="#SVGID_1_"  style="overflow:visible;"/>
	</clipPath>
	<path class="st1" d="M263.7,39.7c0.9,0,1.7-0.4,2.2-0.9l2.4-2.4c0.6-0.6,0.9-1.3,0.9-2.2v-7.5h-7.5c-0.9,0-1.7,0.4-2.2,0.9
		l-2.4,2.4c-0.6,0.6-0.9,1.3-0.9,2.2v7.5H263.7z"/>
</g>
<g>
	<defs>
		<path id="SVGID_3_" d="M262.6,27.3c-1.4,0-2.5,1.1-2.5,2.4v0.8h5.1v5.1h0.8c1.4,0,2.5-1.1,2.5-2.5v-5.9H262.6z"/>
	</defs>
	<clipPath id="SVGID_4_">
		<use xlink:href="#SVGID_3_"  style="overflow:visible;"/>
	</clipPath>
	
		<linearGradient id="SVGID_5_" gradientUnits="userSpaceOnUse" x1="1" y1="51.1714" x2="2" y2="51.1714" gradientTransform="matrix(5.8356 -5.8356 -5.8356 -5.8356 555.5259 337.6324)">
		<stop  offset="0" style="stop-color:#9BDBF7"/>
		<stop  offset="0.1" style="stop-color:#9BDBF7"/>
		<stop  offset="0.9" style="stop-color:#009DDA"/>
		<stop  offset="1" style="stop-color:#009DDA"/>
	</linearGradient>
	<polygon class="st2" points="256,31.5 264.4,23.1 272.8,31.5 264.4,39.9 	"/>
</g>
<g>
	<defs>
		<path id="SVGID_6_" d="M266.1,36.4h-6.6l-2.6,2.6h6.8c0.7,0,1.3-0.3,1.8-0.7l2.2-2.2l-0.1-0.1C267.2,36.3,266.7,36.4,266.1,36.4"
			/>
	</defs>
	<clipPath id="SVGID_7_">
		<use xlink:href="#SVGID_6_"  style="overflow:visible;"/>
	</clipPath>
	
		<linearGradient id="SVGID_8_" gradientUnits="userSpaceOnUse" x1="0.9071" y1="51.093" x2="1.9071" y2="51.093" gradientTransform="matrix(10.759 0 0 -10.759 247.1529 587.2209)">
		<stop  offset="0" style="stop-color:#14B0E6"/>
		<stop  offset="0.1611" style="stop-color:#13AAE1"/>
		<stop  offset="0.3718" style="stop-color:#0F9AD2"/>
		<stop  offset="0.6101" style="stop-color:#097FBA"/>
		<stop  offset="0.8669" style="stop-color:#015999"/>
		<stop  offset="0.9" style="stop-color:#005494"/>
		<stop  offset="1" style="stop-color:#005494"/>
	</linearGradient>
	<rect x="256.9" y="36" class="st3" width="10.8" height="3"/>
</g>
<g>
	<defs>
		<path id="SVGID_9_" d="M257.7,30.5c-0.5,0.5-0.7,1.1-0.7,1.8V39l2.6-2.6v-6.6c0-0.5,0.1-1,0.4-1.5l-0.1-0.1L257.7,30.5z"/>
	</defs>
	<clipPath id="SVGID_10_">
		<use xlink:href="#SVGID_9_"  style="overflow:visible;"/>
	</clipPath>
	
		<linearGradient id="SVGID_11_" gradientUnits="userSpaceOnUse" x1="1.093" y1="51.0929" x2="2.093" y2="51.0929" gradientTransform="matrix(0 -10.7592 -10.7592 0 808.1304 50.7697)">
		<stop  offset="0" style="stop-color:#0081BD"/>
		<stop  offset="0.3773" style="stop-color:#0070AD"/>
		<stop  offset="0.85" style="stop-color:#005494"/>
		<stop  offset="1" style="stop-color:#005494"/>
	</linearGradient>
	<rect x="256.9" y="28.3" class="st4" width="3" height="10.8"/>
</g>
</svg>
