<?xml version="1.0" encoding="utf-8"?>
<!-- Generator: Adobe Illustrator 17.0.0, SVG Export Plug-In . SVG Version: 6.00 Build 0)  -->
<!DOCTYPE svg PUBLIC "-//W3C//DTD SVG 1.1//EN" "http://www.w3.org/Graphics/SVG/1.1/DTD/svg11.dtd">
<svg version="1.1" id="Layer_1" xmlns="http://www.w3.org/2000/svg" xmlns:xlink="http://www.w3.org/1999/xlink" x="0px" y="0px"
	 width="217.8px" height="150.3px" viewBox="0 0 217.8 150.3" enable-background="new 0 0 217.8 150.3" xml:space="preserve">
<g>
	<path fill="#F6A9C2" d="M217,77.84c-0.3-3.09-3.89-3.99-6.28-5.08c-9.17-4.48-8.17-15.74-11.66-24.01
		c-2.79-6.68-6.97-12.75-12.06-18.13c-5.38-6.38-7.37-8.37-25.31-17.83c-13.45-6.18-28.59-9.17-43.34-9.17
		C82,3.71,50.91,21.35,38.86,46.26c-0.8,1.49-1.39,3.09-1.99,4.68c-2.19,5.78-3.29,11.86-3.29,18.13c0,1.3,0.1,2.69,0.2,3.99
		c8.77,9.07,17.93,15.94,27.3,21.02c2.29,1.3,4.68,2.39,6.97,3.49c2.89,1.3,5.88,2.49,8.77,3.39c1.79,0.6,3.49,1.1,5.28,1.59
		c2.39,0.6,4.68,1.2,7.07,1.69c1.79,0.4,3.49,0.7,5.28,0.9c-1.79-0.3-3.49-0.6-5.28-0.9c-2.39-0.5-4.68-1-7.07-1.69
		c-1.79-0.5-3.49-1-5.28-1.59c-2.99-1-5.88-2.09-8.77-3.39c-2.39-1-4.68-2.19-6.97-3.49C51.81,89,42.64,82.12,33.78,73.06
		c0.4,4.48,1.3,8.97,2.79,13.15l0,0c6.18,21.02,34.27,63.67,40.35,63.67h18.83c2.49,0,4.18-0.9,5.28-2.29
		c1.49-1.89,1.89-4.78,1.79-7.57c-0.1-1.69-0.7-7.87-0.3-9.56c0.1-0.4,0.3-2.89,0.5-3.29c0,0,0-0.1,0.1-0.1
		c4.98,0.7,10.06,1.99,15.24,1.99c6.18,0,12.45-0.5,18.63-1.59c1.1,5.38,3.79,22.22,9.07,22.22c0,0,17.04-0.1,17.14-0.1
		c2.39,0,8.47-0.9,9.76-2.69c0.6-0.8,1-1.79,1.2-2.89c1-5.98-0.2-12.16-0.6-18.13c-0.1-0.8-0.1-1.59,0-2.39
		c0.1-1.1,0.2-2.09,0.6-3.19c0.5-1.39,1.59-2.69,2.59-3.79c2.19-1.59,4.28-3.29,6.18-5.08c5.68-5.58,6.87-7.17,15.04-9.07
		c4.98-1.1,9.56-3.39,14.05-5.68c2.19-1.1,2.99-2.89,2.99-5.18c0-0.1,0-0.2,0-0.3c0-2.99,0.1-5.58,1.1-8.57
		C216.5,81.23,217.2,79.53,217,77.84z M101.43,105.94c2.89,0.2,5.78,0.3,8.67,0.4C107.2,106.33,104.32,106.14,101.43,105.94z
		 M170.67,93.58c-0.5,0.2-1.1,0.4-1.59,0.6c-7.87,2.99-16.64,5.88-26,8.07c-3.69,0.9-7.37,1.59-11.16,2.19
		c-1.59,0.3-3.29,0.5-4.88,0.7c-2.79,0.4-5.58,0.6-8.37,0.8c-1.1,0.1-2.29,0.1-3.39,0.2c1.1,0,2.29-0.1,3.39-0.2
		c2.79-0.2,5.58-0.5,8.37-0.8c1.69-0.2,3.29-0.5,4.88-0.7c3.79-0.6,7.57-1.39,11.16-2.19c9.56-2.29,18.43-5.18,26-8.07
		C169.67,93.98,170.17,93.78,170.67,93.58c6.87-2.69,13.75-5.68,20.92-6.58C184.42,87.9,177.55,90.89,170.67,93.58z M194.98,86.71
		c0.9,0,1.69,0,2.59,0C196.67,86.71,195.88,86.71,194.98,86.71z M207.63,88.6c-0.8-0.3-1.69-0.5-2.49-0.7c-1.69-0.4-3.29-0.7-5.08-1
		c1.69,0.2,3.39,0.5,5.08,1C206.04,88.1,206.84,88.3,207.63,88.6c0.8,0.3,1.59,0.5,2.49,0.8C209.33,89.1,208.43,88.8,207.63,88.6z"
		/>
	<line fill="none" x1="167.98" y1="9.39" x2="168.38" y2="8.99"/>
	<path fill="#F6A9C2" d="M35.87,52.63c-1.79-1.1-3.19-2.79-4.28-5.18c4.08-1.79,7.57-4.88,10.36-9.27c2.19-3.49,2.39-7.57,0.4-10.36
		c-1-1.49-3.59-3.79-8.77-3.29c-2.69,0.3-5.08,1.49-6.78,3.49c-3.19,3.69-3.79,9.47-3.39,13.25c0.1,0.6,0.2,1.2,0.3,1.79
		c-3.29,0.2-5.78,0-9.17-0.6c-1.49-0.3-3.29-1.1-4.68-1.59L0,36.29c4.28,5.38,19.23,13.35,25.41,12.75
		c1.49,3.69,3.79,6.58,6.87,8.47c2.29,1.39,4.88,2.19,7.47,2.49c0.6-1.99,1.39-3.99,2.59-5.78C40.05,54.23,37.76,53.73,35.87,52.63z
		 M29.89,40.78c-0.4-2.89,0.2-6.87,1.99-8.87c0.7-0.8,1.39-1.2,2.39-1.3c0.2,0,0.4,0,0.5,0c0.8,0,1.1,0.2,1.49,0.8
		c0.5,0.7,0.6,2.49-0.5,4.18c-1.79,2.89-3.39,4.78-5.78,6.08C29.99,41.27,29.89,41.08,29.89,40.78z"/>
	<path opacity="0.5" fill="#FFFFFF" enable-background="new    " d="M61.37,28.72c-10.26,8.57-13.65,14.75-15.84,23.02
		c-0.3,1-0.5,1.99-0.7,2.99c-0.3,1.99-0.5,3.99-0.4,5.98c0-0.1,0-0.2,0.1-0.2c2.49-9.27,8.67-17.34,18.23-24.71
		c7.17-5.48,18.13-11.16,25.71-13.05c-3.59-2.09-4.18-4.38-4.38-6.38C84.09,16.37,69.74,21.75,61.37,28.72z"/>
	<path fill="#3B3030" d="M185.91,54.82c-2.49,0.4-3.99,3.59-3.39,7.07c0.6,3.49,3.09,5.98,5.58,5.58c2.49-0.4,3.99-3.59,3.39-7.07
		C190.9,56.92,188.41,54.33,185.91,54.82z"/>
	<path fill="#F6A9C2" d="M153.33,19.45c5.78,9.86,16.74,14.55,26,11.16c1-0.4,1.59-1.39,1.39-2.39c-0.6-4.08-0.7-7.87,0.2-11.46
		c0.8-3.39,2.49-6.58,5.28-9.76c1.99-2.29-0.9-6.08-4.38-6.68c-3.79-0.6-7.77,0.2-10.56,2.19c-9.47,6.78-16.64,14.05-17.44,14.85
		C153.14,18.16,152.74,18.36,153.33,19.45z"/>
	<path fill="#D2758B" d="M167.88,24.64c2.69-2.29,5.98-3.89,9.56-4.18c-0.2-1.1-0.4-2.09-0.3-2.99c0.5-3.59,2.19-5.28,4.38-8.17
		c0.4-0.5,1.3-1.99,1.49-2.59c1-2.59-4.08-2.69-5.58-2.29c-3.79,0.8-8.07,3.99-10.66,7.87C163.9,16.57,164.19,21.85,167.88,24.64z"
		/>
	<path fill="#010101" d="M137.59,10.79c-9.76-3.19-29.09-2.99-38.86,0.6c-1.69,0.6-2.29,2.39-1.1,3.59l0.1,0.1
		c0.9,0.9,2.39,1.2,3.69,0.7c8.07-3.09,26-3.69,33.97-0.5c1.2,0.5,2.69,0.1,3.49-0.8l0.1-0.1
		C139.98,13.18,139.29,11.38,137.59,10.79z"/>
	<g>
		<g>
			<g>
				<g>
					<defs>
						<path id="SVGID_1_" d="M217,77.84c-0.3-3.09-3.89-3.99-6.28-5.08c-9.17-4.48-8.17-15.74-11.66-24.01
							c-2.79-6.68-6.97-12.75-12.06-18.13c-5.38-6.38-7.37-8.37-25.31-17.83c-13.45-6.18-28.59-9.17-43.34-9.17
							C82,3.71,50.91,21.35,38.86,46.26c-0.8,1.49-1.39,3.09-1.99,4.68c-2.19,5.78-3.29,11.86-3.29,18.13c0,1.3,0.1,2.69,0.2,3.99
							c8.77,9.07,17.93,15.94,27.3,21.02c2.29,1.3,4.68,2.39,6.97,3.49c2.89,1.3,5.88,2.49,8.77,3.39c1.79,0.6,3.49,1.1,5.28,1.59
							c2.39,0.6,4.68,1.2,7.07,1.69c1.79,0.4,3.49,0.7,5.28,0.9c-1.79-0.3-3.49-0.6-5.28-0.9c-2.39-0.5-4.68-1-7.07-1.69
							c-1.79-0.5-3.49-1-5.28-1.59c-2.99-1-5.88-2.09-8.77-3.39c-2.39-1-4.68-2.19-6.97-3.49C51.81,89,42.64,82.12,33.78,73.06
							c0.4,4.48,1.3,8.97,2.79,13.15l0,0c6.18,21.02,34.27,63.67,40.35,63.67h18.83c2.49,0,4.18-0.9,5.28-2.29
							c1.49-1.89,1.89-4.78,1.79-7.57c-0.1-1.69-0.7-7.87-0.3-9.56c0.1-0.4,0.3-2.89,0.5-3.29c0,0,0-0.1,0.1-0.1
							c4.98,0.7,10.06,1.99,15.24,1.99c6.18,0,12.45-0.5,18.63-1.59c1.1,5.38,3.79,22.22,9.07,22.22c0,0,17.04-0.1,17.14-0.1
							c2.39,0,8.47-0.9,9.76-2.69c0.6-0.8,1-1.79,1.2-2.89c1-5.98-0.2-12.16-0.6-18.13c-0.1-0.8-0.1-1.59,0-2.39
							c0.1-1.1,0.2-2.09,0.6-3.19c0.5-1.39,1.59-2.69,2.59-3.79c2.19-1.59,4.28-3.29,6.18-5.08c5.68-5.58,6.87-7.17,15.04-9.07
							c4.98-1.1,9.56-3.39,14.05-5.68c2.19-1.1,2.99-2.89,2.99-5.18c0-0.1,0-0.2,0-0.3c0-2.99,0.1-5.58,1.1-8.57
							C216.5,81.23,217.2,79.53,217,77.84z M101.43,105.94c2.89,0.2,5.78,0.3,8.67,0.4C107.2,106.33,104.32,106.14,101.43,105.94z
							 M170.67,93.58c-0.5,0.2-1.1,0.4-1.59,0.6c-7.87,2.99-16.64,5.88-26,8.07c-3.69,0.9-7.37,1.59-11.16,2.19
							c-1.59,0.3-3.29,0.5-4.88,0.7c-2.79,0.4-5.58,0.6-8.37,0.8c-1.1,0.1-2.29,0.1-3.39,0.2c1.1,0,2.29-0.1,3.39-0.2
							c2.79-0.2,5.58-0.5,8.37-0.8c1.69-0.2,3.29-0.5,4.88-0.7c3.79-0.6,7.57-1.39,11.16-2.19c9.56-2.29,18.43-5.18,26-8.07
							C169.67,93.98,170.17,93.78,170.67,93.58c6.87-2.69,13.75-5.68,20.92-6.58C184.42,87.9,177.55,90.89,170.67,93.58z
							 M194.98,86.71c0.9,0,1.69,0,2.59,0C196.67,86.71,195.88,86.71,194.98,86.71z M207.63,88.6c-0.8-0.3-1.69-0.5-2.49-0.7
							c-1.69-0.4-3.29-0.7-5.08-1c1.69,0.2,3.39,0.5,5.08,1C206.04,88.1,206.84,88.3,207.63,88.6c0.8,0.3,1.59,0.5,2.49,0.8
							C209.33,89.1,208.43,88.8,207.63,88.6z"/>
					</defs>
					<clipPath id="SVGID_2_">
						<use xlink:href="#SVGID_1_"  overflow="visible"/>
					</clipPath>
					
						<linearGradient id="SVGID_3_" gradientUnits="userSpaceOnUse" x1="413.0048" y1="184.2472" x2="413.0048" y2="138.0967" gradientTransform="matrix(0.9963 0 0 -0.9963 -287.0963 271.1284)">
						<stop  offset="0" style="stop-color:#F6A9C2;stop-opacity:0.7"/>
						<stop  offset="1" style="stop-color:#B16073"/>
					</linearGradient>
					<path opacity="0.53" clip-path="url(#SVGID_2_)" fill="url(#SVGID_3_)" enable-background="new    " d="M48.12,111.81
						c10.66,18.93,24.61,38.06,28.59,38.06h18.83c1.59,0,4.18-0.8,4.98-1.79c4.48-4.58,0.6-14.25,1.99-17.93
						c0.1-0.4,0.2-2.59,0.5-2.99c0,0,0-0.1,0.1-0.1c4.98,0.7,10.06,1.99,15.34,1.99c6.18,0,12.45-0.5,18.63-1.59
						c1.1,5.38,3.79,22.32,9.07,22.32l17.14-0.1c2.39,0,8.47-0.9,9.76-2.69c3.29-6.28,0.5-15.64,0.6-20.52c0-0.2-0.3-2.89,0-2.89
						c0.1-1.1,0.2-2.09,0.6-3.19c0.5-1.39,1.59-2.69,2.59-3.79c2.19-1.59,4.28-3.29,6.18-5.18c5.68-5.58,6.97-7.27,15.04-9.07
						c4.98-1.1,9.56-3.39,14.05-5.68c2.19-1.1,2.99-2.89,2.99-5.18c0-0.1,0-0.2,0-0.3c-6.38-2.89-13.05-4.88-19.93-4.68
						c-9.07,0.3-17.44,4.28-25.9,7.47c-7.87,2.99-16.64,5.88-26,8.07c-33.38,7.87-74.33,7.17-109.6-29.29
						c0.4,4.58,1.3,8.97,2.79,13.15l0,0C38.46,93.08,42.84,102.45,48.12,111.81"/>
				</g>
			</g>
		</g>
		<g>
			<g>
				<g>
					<defs>
						<path id="SVGID_4_" d="M217,77.84c-0.3-3.09-3.89-3.99-6.28-5.08c-9.17-4.48-8.17-15.74-11.66-24.01
							c-2.79-6.68-6.97-12.75-12.06-18.13c-5.38-6.38-7.37-8.37-25.31-17.83c-13.45-6.18-28.59-9.17-43.34-9.17
							C82,3.71,50.91,21.35,38.86,46.26c-0.8,1.49-1.39,3.09-1.99,4.68c-2.19,5.78-3.29,11.86-3.29,18.13c0,1.3,0.1,2.69,0.2,3.99
							c8.77,9.07,17.93,15.94,27.3,21.02c2.29,1.3,4.68,2.39,6.97,3.49c2.89,1.3,5.88,2.49,8.77,3.39c1.79,0.6,3.49,1.1,5.28,1.59
							c2.39,0.6,4.68,1.2,7.07,1.69c1.79,0.4,3.49,0.7,5.28,0.9c-1.79-0.3-3.49-0.6-5.28-0.9c-2.39-0.5-4.68-1-7.07-1.69
							c-1.79-0.5-3.49-1-5.28-1.59c-2.99-1-5.88-2.09-8.77-3.39c-2.39-1-4.68-2.19-6.97-3.49C51.81,89,42.64,82.12,33.78,73.06
							c0.4,4.48,1.3,8.97,2.79,13.15l0,0c6.18,21.02,34.27,63.67,40.35,63.67h18.83c2.49,0,4.18-0.9,5.28-2.29
							c1.49-1.89,1.89-4.78,1.79-7.57c-0.1-1.69-0.7-7.87-0.3-9.56c0.1-0.4,0.3-2.89,0.5-3.29c0,0,0-0.1,0.1-0.1
							c4.98,0.7,10.06,1.99,15.24,1.99c6.18,0,12.45-0.5,18.63-1.59c1.1,5.38,3.79,22.22,9.07,22.22c0,0,17.04-0.1,17.14-0.1
							c2.39,0,8.47-0.9,9.76-2.69c0.6-0.8,1-1.79,1.2-2.89c1-5.98-0.2-12.16-0.6-18.13c-0.1-0.8-0.1-1.59,0-2.39
							c0.1-1.1,0.2-2.09,0.6-3.19c0.5-1.39,1.59-2.69,2.59-3.79c2.19-1.59,4.28-3.29,6.18-5.08c5.68-5.58,6.87-7.17,15.04-9.07
							c4.98-1.1,9.56-3.39,14.05-5.68c2.19-1.1,2.99-2.89,2.99-5.18c0-0.1,0-0.2,0-0.3c0-2.99,0.1-5.58,1.1-8.57
							C216.5,81.23,217.2,79.53,217,77.84z M101.43,105.94c2.89,0.2,5.78,0.3,8.67,0.4C107.2,106.33,104.32,106.14,101.43,105.94z
							 M170.67,93.58c-0.5,0.2-1.1,0.4-1.59,0.6c-7.87,2.99-16.64,5.88-26,8.07c-3.69,0.9-7.37,1.59-11.16,2.19
							c-1.59,0.3-3.29,0.5-4.88,0.7c-2.79,0.4-5.58,0.6-8.37,0.8c-1.1,0.1-2.29,0.1-3.39,0.2c1.1,0,2.29-0.1,3.39-0.2
							c2.79-0.2,5.58-0.5,8.37-0.8c1.69-0.2,3.29-0.5,4.88-0.7c3.79-0.6,7.57-1.39,11.16-2.19c9.56-2.29,18.43-5.18,26-8.07
							C169.67,93.98,170.17,93.78,170.67,93.58c6.87-2.69,13.75-5.68,20.92-6.58C184.42,87.9,177.55,90.89,170.67,93.58z
							 M194.98,86.71c0.9,0,1.69,0,2.59,0C196.67,86.71,195.88,86.71,194.98,86.71z M207.63,88.6c-0.8-0.3-1.69-0.5-2.49-0.7
							c-1.69-0.4-3.29-0.7-5.08-1c1.69,0.2,3.39,0.5,5.08,1C206.04,88.1,206.84,88.3,207.63,88.6c0.8,0.3,1.59,0.5,2.49,0.8
							C209.33,89.1,208.43,88.8,207.63,88.6z"/>
					</defs>
					<clipPath id="SVGID_5_">
						<use xlink:href="#SVGID_4_"  overflow="visible"/>
					</clipPath>
					
						<linearGradient id="SVGID_6_" gradientUnits="userSpaceOnUse" x1="444.9729" y1="138.4429" x2="455.0762" y2="136.6251" gradientTransform="matrix(0.9963 0 0 -0.9963 -287.0963 271.1284)">
						<stop  offset="0" style="stop-color:#F493AA;stop-opacity:0"/>
						<stop  offset="0.3074" style="stop-color:#F6A2B8;stop-opacity:0.3076"/>
						<stop  offset="0.6968" style="stop-color:#F5AEC6;stop-opacity:0.6971"/>
						<stop  offset="0.9995" style="stop-color:#F7B3CB"/>
					</linearGradient>
					<path opacity="0.53" clip-path="url(#SVGID_5_)" fill="url(#SVGID_6_)" enable-background="new    " d="M173.26,146.29
						c-4.58,1.99-12.55,1.1-16.14,0.4c-0.5-0.1-1.1-0.3-1.59-0.5c-2.49-1.39-2.89-4.98-3.19-7.47c-0.3-2.39-1.39-6.87,0.7-8.57
						c5.38-4.38,13.15-5.88,19.83-7.07c0.2,0,0.4-0.1,0.7-0.1c-0.1,2.29,0,4.48,0.2,6.58C174.66,137.32,174.96,143.2,173.26,146.29z
						"/>
				</g>
			</g>
		</g>
		<g>
			<g>
				<g>
					<defs>
						<path id="SVGID_7_" d="M217,77.84c-0.3-3.09-3.89-3.99-6.28-5.08c-9.17-4.48-8.17-15.74-11.66-24.01
							c-2.79-6.68-6.97-12.75-12.06-18.13c-5.38-6.38-7.37-8.37-25.31-17.83c-13.45-6.18-28.59-9.17-43.34-9.17
							C82,3.71,50.91,21.35,38.86,46.26c-0.8,1.49-1.39,3.09-1.99,4.68c-2.19,5.78-3.29,11.86-3.29,18.13c0,1.3,0.1,2.69,0.2,3.99
							c8.77,9.07,17.93,15.94,27.3,21.02c2.29,1.3,4.68,2.39,6.97,3.49c2.89,1.3,5.88,2.49,8.77,3.39c1.79,0.6,3.49,1.1,5.28,1.59
							c2.39,0.6,4.68,1.2,7.07,1.69c1.79,0.4,3.49,0.7,5.28,0.9c-1.79-0.3-3.49-0.6-5.28-0.9c-2.39-0.5-4.68-1-7.07-1.69
							c-1.79-0.5-3.49-1-5.28-1.59c-2.99-1-5.88-2.09-8.77-3.39c-2.39-1-4.68-2.19-6.97-3.49C51.81,89,42.64,82.12,33.78,73.06
							c0.4,4.48,1.3,8.97,2.79,13.15l0,0c6.18,21.02,34.27,63.67,40.35,63.67h18.83c2.49,0,4.18-0.9,5.28-2.29
							c1.49-1.89,1.89-4.78,1.79-7.57c-0.1-1.69-0.7-7.87-0.3-9.56c0.1-0.4,0.3-2.89,0.5-3.29c0,0,0-0.1,0.1-0.1
							c4.98,0.7,10.06,1.99,15.24,1.99c6.18,0,12.45-0.5,18.63-1.59c1.1,5.38,3.79,22.22,9.07,22.22c0,0,17.04-0.1,17.14-0.1
							c2.39,0,8.47-0.9,9.76-2.69c0.6-0.8,1-1.79,1.2-2.89c1-5.98-0.2-12.16-0.6-18.13c-0.1-0.8-0.1-1.59,0-2.39
							c0.1-1.1,0.2-2.09,0.6-3.19c0.5-1.39,1.59-2.69,2.59-3.79c2.19-1.59,4.28-3.29,6.18-5.08c5.68-5.58,6.87-7.17,15.04-9.07
							c4.98-1.1,9.56-3.39,14.05-5.68c2.19-1.1,2.99-2.89,2.99-5.18c0-0.1,0-0.2,0-0.3c0-2.99,0.1-5.58,1.1-8.57
							C216.5,81.23,217.2,79.53,217,77.84z M101.43,105.94c2.89,0.2,5.78,0.3,8.67,0.4C107.2,106.33,104.32,106.14,101.43,105.94z
							 M170.67,93.58c-0.5,0.2-1.1,0.4-1.59,0.6c-7.87,2.99-16.64,5.88-26,8.07c-3.69,0.9-7.37,1.59-11.16,2.19
							c-1.59,0.3-3.29,0.5-4.88,0.7c-2.79,0.4-5.58,0.6-8.37,0.8c-1.1,0.1-2.29,0.1-3.39,0.2c1.1,0,2.29-0.1,3.39-0.2
							c2.79-0.2,5.58-0.5,8.37-0.8c1.69-0.2,3.29-0.5,4.88-0.7c3.79-0.6,7.57-1.39,11.16-2.19c9.56-2.29,18.43-5.18,26-8.07
							C169.67,93.98,170.17,93.78,170.67,93.58c6.87-2.69,13.75-5.68,20.92-6.58C184.42,87.9,177.55,90.89,170.67,93.58z
							 M194.98,86.71c0.9,0,1.69,0,2.59,0C196.67,86.71,195.88,86.71,194.98,86.71z M207.63,88.6c-0.8-0.3-1.69-0.5-2.49-0.7
							c-1.69-0.4-3.29-0.7-5.08-1c1.69,0.2,3.39,0.5,5.08,1C206.04,88.1,206.84,88.3,207.63,88.6c0.8,0.3,1.59,0.5,2.49,0.8
							C209.33,89.1,208.43,88.8,207.63,88.6z"/>
					</defs>
					<clipPath id="SVGID_8_">
						<use xlink:href="#SVGID_7_"  overflow="visible"/>
					</clipPath>
					
						<linearGradient id="SVGID_9_" gradientUnits="userSpaceOnUse" x1="369.119" y1="134.8" x2="387.4574" y2="131.4857" gradientTransform="matrix(0.9963 0 0 -0.9963 -287.0963 271.1284)">
						<stop  offset="0" style="stop-color:#F493AA;stop-opacity:0"/>
						<stop  offset="0.3074" style="stop-color:#F6A2B8;stop-opacity:0.3076"/>
						<stop  offset="0.6968" style="stop-color:#F5AEC6;stop-opacity:0.6971"/>
						<stop  offset="0.9995" style="stop-color:#F7B3CB"/>
					</linearGradient>
					<path opacity="0.53" clip-path="url(#SVGID_8_)" fill="url(#SVGID_9_)" enable-background="new    " d="M102.52,130.05
						c-2.69-1.39-16.44-1.49-21.72,5.28c-2.39,3.09-2.29,11.16,1.99,12.65c3.59,1.3,11.36,0.9,15.14,0.5
						c2.59-0.2,3.29-0.4,4.58-4.38c0,0,0.3-2.79,0.3-3.19C102.62,135.43,102.12,132.94,102.52,130.05z"/>
				</g>
			</g>
		</g>
	</g>
	<g>
		
			<linearGradient id="SVGID_10_" gradientUnits="userSpaceOnUse" x1="445.3896" y1="136.0662" x2="445.3896" y2="121.6878" gradientTransform="matrix(0.9963 0 0 -0.9963 -287.0963 271.1284)">
			<stop  offset="0" style="stop-color:#010101;stop-opacity:0"/>
			<stop  offset="0.8588" style="stop-color:#010101;stop-opacity:0.2578"/>
			<stop  offset="0.9995" style="stop-color:#010101;stop-opacity:0.3"/>
		</linearGradient>
		<path fill="url(#SVGID_10_)" d="M138.79,136.42c1.49,6.38,3.89,13.35,7.27,13.35l17.14-0.1c2.39,0,8.47-0.9,9.76-2.69
			c1.99-3.89,1.69-9.07,1.2-13.55"/>
	</g>
	<g>
		<g>
			<g>
				<g>
					<defs>
						<path id="SVGID_11_" d="M102.52,136.52c-0.1-1.1-0.1-2.29-0.2-3.29 M65.06,138.02c5.28,7.07,9.76,11.86,11.76,11.86h18.83
							c2.49,0,4.18-0.9,5.28-2.29c1.49-1.89,1.89-4.78,1.79-7.57c0-0.6-0.1-1.99-0.2-3.49"/>
					</defs>
					<clipPath id="SVGID_12_">
						<use xlink:href="#SVGID_11_"  overflow="visible"/>
					</clipPath>
					
						<linearGradient id="SVGID_13_" gradientUnits="userSpaceOnUse" x1="344.4048" y1="156.7601" x2="344.4048" y2="134.79" gradientTransform="matrix(0.9963 0 0 -0.9963 -287.0963 271.1284)">
						<stop  offset="0" style="stop-color:#F6A9C2"/>
						<stop  offset="0.2987" style="stop-color:#E593AB"/>
						<stop  offset="0.7514" style="stop-color:#D3788F"/>
						<stop  offset="1" style="stop-color:#CE7087"/>
					</linearGradient>
					<path opacity="0.53" clip-path="url(#SVGID_12_)" fill="url(#SVGID_13_)" enable-background="new    " d="M48.12,111.81
						c4.98,8.97,10.76,17.93,15.84,24.91"/>
				</g>
			</g>
		</g>
		<g>
			<g>
				<g>
					<defs>
						<path id="SVGID_14_" d="M102.52,136.52c-0.1-1.1-0.1-2.29-0.2-3.29 M65.06,138.02c5.28,7.07,9.76,11.86,11.76,11.86h18.83
							c2.49,0,4.18-0.9,5.28-2.29c1.49-1.89,1.89-4.78,1.79-7.57c0-0.6-0.1-1.99-0.2-3.49"/>
					</defs>
					<clipPath id="SVGID_15_">
						<use xlink:href="#SVGID_14_"  overflow="visible"/>
					</clipPath>
					
						<linearGradient id="SVGID_16_" gradientUnits="userSpaceOnUse" x1="371.8344" y1="133.415" x2="371.8344" y2="121.5838" gradientTransform="matrix(0.9963 0 0 -0.9963 -287.0963 271.1284)">
						<stop  offset="0" style="stop-color:#010101;stop-opacity:0"/>
						<stop  offset="0.8588" style="stop-color:#010101;stop-opacity:0.2578"/>
						<stop  offset="0.9995" style="stop-color:#010101;stop-opacity:0.3"/>
					</linearGradient>
					<path clip-path="url(#SVGID_15_)" fill="url(#SVGID_16_)" d="M63.96,136.72c5.68,7.87,10.66,13.25,12.75,13.25h18.83
						c1.59,0,4.18-0.8,4.98-1.79c2.69-2.79,2.39-7.47,1.99-11.56"/>
				</g>
			</g>
		</g>
	</g>
	<path fill="#010101" d="M103.82,124.17c8.27,2.69,24.61,2.49,32.88-0.6c1.39-0.5,1.89-1.99,0.9-2.99l-0.1-0.1
		c-0.8-0.8-1.99-1-3.09-0.6c-6.78,2.59-22.02,3.19-28.69,0.5c-1-0.4-2.29-0.1-2.99,0.7l-0.1,0.1
		C101.82,122.18,102.42,123.67,103.82,124.17z"/>
</g>
</svg>
