<?xml version="1.0" encoding="utf-8"?>
<!-- Generator: Adobe Illustrator 18.1.0, SVG Export Plug-In . SVG Version: 6.00 Build 0)  -->
<svg version="1.1" id="Layer_1" xmlns="http://www.w3.org/2000/svg" xmlns:xlink="http://www.w3.org/1999/xlink" x="0px" y="0px"
	 viewBox="0 0 612 792" enable-background="new 0 0 612 792" xml:space="preserve">
<path fill="#666666" stroke="#FFFFFF" stroke-width="20" stroke-miterlimit="10" d="M603.4,460.8L532,419.1
	c0.6-6.8,0.9-13.7,0.9-20.7c0-8.1-0.4-16.1-1.3-24l70.9-43.7l-18.2-56.4l-83.3,8.3c-7.5-12.5-16.2-24.3-25.9-35.1l31.9-77.7
	l-47.9-34.9l-62.9,56c-13.1-5.6-26.7-10-40.9-13.1l-20-82.2H276l-18,82.5c-14.2,3.1-27.9,7.6-40.9,13.3l-64.5-54.7l-47.9,34.7
	l33.7,77.1c-9.7,10.9-18.3,22.6-25.7,35.2L29,277.4l-18.2,56.2l71.8,42.2c-0.7,7.4-1.1,15-1.1,22.6c0,7.3,0.4,14.5,1,21.6
	l-70.9,43.6l18.2,56.4l82.1-8.2c7.6,13,16.4,25.2,26.3,36.4l-31.4,76.6l47.9,34.7l61.3-54.5c13.8,6.1,28.3,10.8,43.4,14.1l19.4,79.7
	H338l17.5-79.8c63-13.7,116.2-53.8,147.5-108l82.2,6.3L603.4,460.8z M307,525.8c-70.9,0-128.5-57.5-128.5-128.5
	S236.1,268.9,307,268.9s128.5,57.5,128.5,128.5S377.9,525.8,307,525.8z"/>
<path fill="#333333" stroke="#FFFFFF" stroke-width="7" stroke-miterlimit="10" d="M517.1,566.7L417.7,464
	c11.9-19.5,18.7-42.6,18.7-67.2c0-71.6-58-129.6-129.6-129.6c-19.8,0-38.4,4.4-55.3,12.3l80.8,65.4l-16,65l-60.4,29.2l-77.3-62.6
	c-1.1,6.6-1.5,13.4-1.5,20.2c0,71.6,58,129.6,129.6,129.6c9.9,0,19.3-1.1,28.5-3.3L424,644.5c0,0,43.9,68.1,99.9,17.6
	C574.5,617,517.1,566.7,517.1,566.7z"/>
<polygon fill="#FFFFFF" points="439.9,618.3 451.5,582.5 488.2,574.8 513.2,602.4 501.8,638.2 465.1,645.9 "/>
<g enable-background="new    ">
	<path fill="#CC0000" d="M210.5,337.2h21.7l7.8,41.4h0.2l7.5-41.4h21.5v63.1h-13.8v-49.1h-0.2l-9.6,49.1h-11.5L224,351.1h-0.2v49.1
		h-13.2V337.2z"/>
	<path fill="#CC0000" d="M278.8,337.2h23c15.6,0,18.6,11.3,18.6,19.2c0,11.3-5.4,19.3-20.2,19.3h-6.5v24.6h-14.8V337.2z
		 M293.6,364.6h4.1c5.9,0,7.3-3.7,7.3-8c0-4.9-1.6-8.6-7.6-8.6h-3.8V364.6z"/>
</g>
</svg>
