<?xml version="1.0" encoding="utf-8"?>
<!-- Generator: Adobe Illustrator 18.1.0, SVG Export Plug-In . SVG Version: 6.00 Build 0)  -->
<svg version="1.1" id="Layer_1" xmlns="http://www.w3.org/2000/svg" xmlns:xlink="http://www.w3.org/1999/xlink" x="0px" y="0px"
	 viewBox="0 0 280 285.8" enable-background="new 0 0 280 285.8" xml:space="preserve">
<polygon points="126.4,5.1 153.3,5.1 166.9,61.1 114.1,61.1 "/>
<polygon points="48.4,39.6 70.2,23.8 114.1,61.1 71.4,92.2 "/>
<polygon points="5.5,113.5 13.8,87.9 71.3,92.2 55,142.5 "/>
<polygon points="14.3,198.3 5.9,172.7 55,142.5 71.3,192.7 "/>
<polygon points="71.2,261.9 49.4,246.1 71.3,192.7 114,223.8 "/>
<polygon points="154.6,279.8 127.6,279.8 114,223.8 166.9,223.8 "/>
<polygon points="232.7,245.2 210.9,261.1 166.9,223.8 209.7,192.7 "/>
<polygon points="275.5,171.4 267.1,197.1 209.7,192.7 226,142.5 "/>
<polygon points="266.8,86.5 275.1,112.2 226,142.4 209.7,92.2 "/>
<polygon points="209.8,23 231.6,38.9 209.7,92.2 166.9,61.1 "/>
<path d="M140.5,40.2c-56.8,0-102.8,46-102.8,102.8s46,102.8,102.8,102.8s102.8-46,102.8-102.8S197.3,40.2,140.5,40.2z M140.4,201
	c-32.3,0-58.5-26.2-58.5-58.5c0-32.3,26.2-58.5,58.5-58.5c32.3,0,58.5,26.2,58.5,58.5C199,174.7,172.8,201,140.4,201z"/>
<ellipse display="none" fill="#FFFFFF" cx="140.1" cy="147.6" rx="73.9" ry="75.2"/>
<path stroke="#FFFFFF" stroke-width="9" stroke-miterlimit="10" d="M243.7,234.4l-43.9-51.6c5-8,8.4-17,9.8-26.9
	c5.3-37.7-21-72.6-58.7-77.9c-7.8-1.1-15.6-0.8-22.9,0.6l37.4,49.6L151.9,155l-2.2,1.5l-31,6.7L80.8,113c-3.9,7.1-6.7,15.1-7.9,23.7
	c-5.3,37.7,21,72.6,58.7,77.9c11.1,1.6,22,0.4,31.9-3l36.9,55.5c0,0,17.3,25.4,40.4,7.9C264.1,257.4,243.7,234.4,243.7,234.4z"/>
<circle fill="#FFFFFF" stroke="#000000" stroke-miterlimit="10" cx="223.7" cy="251.8" r="14.6"/>
<g>
	<text transform="matrix(1 0 0 1 97.7412 144.8959)" fill="#9B1D22" font-family="'HelveticaNeueLTStd-HvCn'" font-size="48.6253">MP</text>
</g>
</svg>
