<?xml version="1.0" encoding="utf-8"?>
<!-- Generator: Adobe Illustrator 18.1.0, SVG Export Plug-In . SVG Version: 6.00 Build 0)  -->
<svg version="1.1" id="Layer_1" xmlns="http://www.w3.org/2000/svg" xmlns:xlink="http://www.w3.org/1999/xlink" x="0px" y="0px"
	 viewBox="0 0 47.5 50.9" enable-background="new 0 0 47.5 50.9" xml:space="preserve">
<polygon points="22.8,5.3 27.3,5.3 29.6,14.6 20.8,14.6 "/>
<polygon points="9.9,11 13.5,8.4 20.8,14.6 13.7,19.7 "/>
<polygon points="2.8,23.3 4.1,19 13.7,19.7 11,28.1 "/>
<polygon points="4.2,37.3 2.8,33.1 11,28.1 13.7,36.4 "/>
<polygon points="13.7,47.9 10,45.3 13.7,36.4 20.8,41.6 "/>
<polygon points="27.5,50.9 23,50.9 20.8,41.6 29.5,41.6 "/>
<polygon points="40.5,45.1 36.8,47.8 29.6,41.6 36.6,36.4 "/>
<polygon points="47.6,32.9 46.2,37.1 36.6,36.4 39.4,28.1 "/>
<polygon points="46.1,18.8 47.5,23 39.4,28.1 36.6,19.7 "/>
<polygon points="36.7,8.2 40.3,10.9 36.6,19.7 29.6,14.6 "/>
<text transform="matrix(1 0 0 1 17.3657 33.0092)" fill="#9A1C21" font-family="'HelveticaNeue-CondensedBold'" font-size="12.4484">MP</text>
<path d="M25.2,11.1c-9.4,0-17.1,7.6-17.1,17.1s7.6,17.1,17.1,17.1s17.1-7.6,17.1-17.1S34.6,11.1,25.2,11.1z M25.2,37.8
	c-5.4,0-9.7-4.3-9.7-9.7c0-5.4,4.4-9.7,9.7-9.7c5.4,0,9.7,4.4,9.7,9.7C34.9,33.4,30.5,37.8,25.2,37.8z"/>
</svg>
