<?xml version="1.0" encoding="utf-8"?>
<!-- Generator: Adobe Illustrator 18.1.0, SVG Export Plug-In . SVG Version: 6.00 Build 0)  -->
<svg version="1.1" id="Layer_1" xmlns="http://www.w3.org/2000/svg" xmlns:xlink="http://www.w3.org/1999/xlink" x="0px" y="0px"
	 viewBox="0 0 278.7 285.2" enable-background="new 0 0 278.7 285.2" xml:space="preserve">
<polygon points="125.7,5.8 152.7,5.8 166.3,61.8 113.5,61.8 "/>
<polygon points="47.7,40.3 69.5,24.5 113.5,61.8 70.7,92.9 "/>
<polygon points="4.9,114.2 13.2,88.6 70.7,92.9 54.3,143.2 "/>
<polygon points="13.6,199.1 5.3,173.4 54.4,143.2 70.7,193.4 "/>
<polygon points="70.5,262.6 48.7,246.8 70.6,193.4 113.4,224.5 "/>
<polygon points="153.9,280.5 127,280.5 113.4,224.5 166.2,224.5 "/>
<polygon points="232,246 210.2,261.8 166.3,224.5 209,193.4 "/>
<polygon points="274.8,172.1 266.5,197.8 209,193.4 225.3,143.2 "/>
<polygon points="266.1,87.2 274.4,112.9 225.4,143.1 209.1,92.9 "/>
<polygon points="209.1,23.7 230.9,39.6 209,92.9 166.3,61.8 "/>
<path d="M139.9,40.9c-56.8,0-102.8,46-102.8,102.8s46,102.8,102.8,102.8s102.8-46,102.8-102.8S196.6,40.9,139.9,40.9z M139.8,201.7
	c-32.3,0-58.5-26.2-58.5-58.5c0-32.3,26.2-58.5,58.5-58.5c32.3,0,58.5,26.2,58.5,58.5C198.3,175.5,172.1,201.7,139.8,201.7z"/>
<path stroke="#FFFFFF" stroke-width="8" stroke-miterlimit="10" d="M235.6,221l-45.3-46.8c5.4-8.9,8.5-19.4,8.5-30.6
	c0-32.6-26.4-59-59-59c-9,0-17.5,2-25.2,5.6l36.8,29.8l-7.3,29.6l-27.5,13.3l-35.2-28.5c-0.5,3-0.7,6.1-0.7,9.2
	c0,32.6,26.4,59,59,59c4.5,0,8.8-0.5,13-1.5l40.5,55.3c0,0,20,31,45.5,8C261.7,243.9,235.6,221,235.6,221z"/>
<g>
	<text transform="matrix(1 0 0 1 91.3402 146.5128)" fill="#9B1D22" font-family="'HelveticaNeueLTStd-HvCn'" font-size="44.6815">MP</text>
</g>
<polygon fill="#FFFFFF" stroke="#000000" stroke-miterlimit="10" points="201.5,246 206.8,229.7 223.5,226.2 234.9,238.8 
	229.7,255.1 213,258.6 "/>
</svg>
