<?xml version="1.0" encoding="utf-8"?>
<!-- Generator: Adobe Illustrator 22.1.0, SVG Export Plug-In . SVG Version: 6.00 Build 0)  -->
<svg version="1.1" id="Layer_1" xmlns="http://www.w3.org/2000/svg" xmlns:xlink="http://www.w3.org/1999/xlink" x="0px" y="0px"
	 viewBox="0 0 728 90" style="enable-background:new 0 0 728 90;" xml:space="preserve">
<style type="text/css">
	.st0{fill:#3A833F;}
</style>
<path class="st0" d="M454.3,76.5c-1.8-1.4-6-1.6-7.1,0.8c0.6-2.2-0.5-5.2-2.3-6.5c-1.7-1.2-3.9-1.6-5.9-1.3
	c-3.8,0.6-7.3,3.4-7.8,7.3c-0.8-1.2-2.2-2-3.8-2c-1.7,0-3.1,0.9-3.9,2.3c-1.2-2.2-5.2-2-7-0.6c-2.1,1.6-2.4,4.5-1.7,7.1h11.1h5.4
	H456C456.7,81,456.4,78.1,454.3,76.5"/>
<path class="st0" d="M529.2,76.5c-1.8-1.4-6-1.6-7.1,0.8c0.6-2.2-0.5-5.2-2.3-6.5c-1.7-1.2-3.9-1.6-5.9-1.3
	c-3.8,0.6-7.3,3.4-7.8,7.3c-0.8-1.2-2.2-2-3.8-2c-1.7,0-3.1,0.9-3.9,2.3c-1.2-2.2-5.2-2-7-0.6c-2.1,1.6-2.4,4.5-1.7,7.1h11.1h5.4
	H531C531.6,81,531.4,78.1,529.2,76.5"/>
</svg>
