<?xml version="1.0" encoding="utf-8"?>
<!-- Generator: Adobe Illustrator 22.1.0, SVG Export Plug-In . SVG Version: 6.00 Build 0)  -->
<svg version="1.1" id="Layer_1" xmlns="http://www.w3.org/2000/svg" xmlns:xlink="http://www.w3.org/1999/xlink" x="0px" y="0px"
	 viewBox="0 0 728 90" style="enable-background:new 0 0 728 90;" xml:space="preserve">
<style type="text/css">
	.st0{fill:#231F20;}
</style>
<g>
	<path class="st0" d="M10.5,78.4h-2l-0.2,1.3c0.1,0,0.2,0,0.4,0c0.4,0,0.8,0.1,1.1,0.3c0.4,0.2,0.7,0.7,0.7,1.3c0,1-0.8,1.8-1.9,1.8
		c-0.6,0-1-0.2-1.3-0.3l0.2-0.5c0.2,0.1,0.6,0.3,1.1,0.3c0.7,0,1.2-0.4,1.2-1.1c0-0.7-0.5-1.2-1.5-1.2c-0.3,0-0.5,0-0.7,0.1L8,77.8
		h2.5V78.4z"/>
	<path class="st0" d="M11.4,81.7c0-0.7,0.4-1.1,1-1.4l0,0c-0.6-0.3-0.8-0.7-0.8-1.2c0-0.8,0.7-1.4,1.6-1.4c1,0,1.5,0.6,1.5,1.3
		c0,0.4-0.2,0.9-0.9,1.2v0c0.6,0.3,1,0.7,1,1.3c0,0.9-0.8,1.5-1.8,1.5C12.1,83.1,11.4,82.4,11.4,81.7z M14.2,81.6
		c0-0.6-0.4-0.9-1.1-1.1c-0.6,0.2-0.9,0.6-0.9,1.1c0,0.5,0.4,1,1,1C13.8,82.6,14.2,82.2,14.2,81.6z M12.3,79c0,0.5,0.4,0.8,1,1
		c0.4-0.2,0.8-0.5,0.8-0.9c0-0.4-0.2-0.8-0.9-0.8C12.6,78.2,12.3,78.6,12.3,79z"/>
	<path class="st0" d="M19,80.3c0,1.8-0.7,2.7-1.8,2.7c-1,0-1.7-1-1.7-2.7c0-1.7,0.8-2.7,1.8-2.7C18.4,77.7,19,78.7,19,80.3z
		 M16.2,80.4c0,1.4,0.4,2.1,1.1,2.1c0.7,0,1.1-0.8,1.1-2.2c0-1.3-0.3-2.1-1.1-2.1C16.6,78.3,16.2,79,16.2,80.4z"/>
	<path class="st0" d="M23.1,80.3c0,1.8-0.7,2.7-1.8,2.7c-1,0-1.7-1-1.7-2.7c0-1.7,0.8-2.7,1.8-2.7C22.5,77.7,23.1,78.7,23.1,80.3z
		 M20.3,80.4c0,1.4,0.4,2.1,1.1,2.1c0.7,0,1.1-0.8,1.1-2.2c0-1.3-0.3-2.1-1.1-2.1C20.8,78.3,20.3,79,20.3,80.4z"/>
	<path class="st0" d="M24.2,82.5c0.2,0,0.3,0,0.6,0c0.4-0.1,0.8-0.2,1.1-0.5c0.3-0.3,0.6-0.8,0.7-1.4h0c-0.3,0.4-0.7,0.6-1.2,0.6
		c-0.9,0-1.5-0.7-1.5-1.6c0-1,0.7-1.8,1.8-1.8s1.7,0.9,1.7,2.2c0,1.1-0.4,1.9-0.9,2.4c-0.4,0.4-1,0.6-1.5,0.7c-0.3,0-0.5,0-0.6,0
		V82.5z M24.4,79.5c0,0.6,0.4,1.1,1,1.1c0.5,0,0.8-0.2,1-0.5c0-0.1,0.1-0.1,0.1-0.3c0-0.9-0.3-1.6-1.1-1.6
		C24.9,78.3,24.4,78.8,24.4,79.5z"/>
	<path class="st0" d="M30.1,83v-1.4h-2.4v-0.5l2.3-3.3h0.8V81h0.7v0.6h-0.7V83H30.1z M30.1,81v-1.7c0-0.3,0-0.5,0-0.8h0
		c-0.2,0.3-0.3,0.5-0.4,0.8L28.4,81v0H30.1z"/>
</g>
</svg>
