<?xml version="1.0" encoding="utf-8"?>
<!-- Generator: Adobe Illustrator 22.1.0, SVG Export Plug-In . SVG Version: 6.00 Build 0)  -->
<svg version="1.1" id="Layer_1" xmlns="http://www.w3.org/2000/svg" xmlns:xlink="http://www.w3.org/1999/xlink" x="0px" y="0px"
	 viewBox="0 0 728 90" style="enable-background:new 0 0 728 90;" xml:space="preserve">
<style type="text/css">
	.st0{fill:#231F20;}
</style>
<g>
	<path class="st0" d="M29.4,48.1c-1.6,4.2-3.2,5.7-5.2,6.5l-2.1-2.1c1.7-0.6,3-1.9,3.8-4.1l-3.7-9.7h3.3l1.5,4
		c0.2,0.6,0.5,1.3,0.6,2h0c0.2-0.7,0.4-1.4,0.7-2l1.5-4H33L29.4,48.1z"/>
	<path class="st0" d="M38.9,49.5c-3.2,0-5.7-2.2-5.7-5.5s2.5-5.5,5.7-5.5c3.1,0,5.7,2.2,5.7,5.5S42.1,49.5,38.9,49.5z M38.9,41.4
		c-1.3,0-2.3,1.1-2.3,2.6c0,1.5,1.1,2.6,2.3,2.6c1.2,0,2.3-1.1,2.3-2.6C41.3,42.5,40.2,41.4,38.9,41.4z"/>
	<path class="st0" d="M53.1,49.2v-1.4h0c-0.4,1.1-1.5,1.7-3.2,1.7c-2.3,0-3.7-1.3-3.7-3.5v-7.2h3.4v6.4c0,0.8,0.5,1.4,1.6,1.4
		c1,0,1.6-0.7,1.6-1.5v-6.3h3.4v10.4H53.1z"/>
	<path class="st0" d="M71.4,42.1c-0.7-0.4-1.4-0.7-2.2-0.7c-1.5,0-2.6,1.1-2.6,2.6c0,1.5,1.2,2.6,2.7,2.6c0.9,0,1.5-0.2,2.3-0.6
		l-0.3,2.9c-0.7,0.3-1.6,0.5-2.6,0.5c-2.9,0-5.6-2.1-5.6-5.4c0-3.4,2.7-5.4,5.6-5.4c1.4,0,2.5,0.3,3.4,0.8L71.4,42.1z"/>
	<path class="st0" d="M80.9,49.6c-0.6-0.1-1.3-0.6-1.6-1.4c-0.5,0.9-1.4,1.3-2.7,1.3c-1.8,0-3.5-1.3-3.5-3.4c0-1.9,1.5-3.2,3.6-3.4
		l2.1-0.2v-0.3c0-0.6-0.5-1-1.6-1c-1,0-2.1,0.3-2.9,0.8l-0.6-2.6c0.9-0.6,2.3-0.9,3.7-0.9c2.8,0,4.7,1.3,4.7,3.8v3.4
		c0,1.2,0.5,1.9,1.3,2.2L80.9,49.6z M78.8,44.6l-1.3,0.1c-0.9,0.1-1.3,0.7-1.3,1.3c0,0.6,0.4,1,1.1,1c0.8,0,1.5-0.6,1.5-1.5V44.6z"
		/>
	<path class="st0" d="M91,49.2v-6.4c0-0.8-0.5-1.4-1.5-1.4c-1,0-1.7,0.6-1.7,1.5v6.3h-3.4V38.8h3.1v1.4h0c0.4-1.1,1.5-1.7,3.2-1.7
		c2.3,0,3.7,1.3,3.7,3.5v7.2H91z"/>
	<path class="st0" d="M105,49.4c-1.4,0-2.5-0.3-3.3-0.7l-0.3-3c0.9,0.6,2.1,1.1,3.3,1.1c0.6,0,1-0.3,1-0.7c0-0.4-0.3-0.6-0.9-0.8
		c-2-0.6-3.2-1.6-3.2-3.4c0-2,1.7-3.4,3.9-3.4c1.3,0,2.6,0.3,3.1,0.6l-0.6,2.5c-0.5-0.3-1.3-0.6-2.2-0.6c-0.6,0-0.9,0.3-0.9,0.7
		c0,0.4,0.3,0.6,0.9,0.8c2.3,0.6,3.3,1.8,3.3,3.5C109.1,47.8,107.8,49.4,105,49.4z"/>
	<path class="st0" d="M114.4,49.6c-2.1-0.1-3.6-1.2-3.6-3.7V32.8h3.3v12.7c0,0.9,0.5,1.3,1.4,1.4L114.4,49.6z"/>
	<path class="st0" d="M126.3,43.4l-1.5,1.5h-5.1c0.2,0.9,1.3,1.8,3.1,1.8c1.1,0,2.2-0.3,2.9-0.8l-0.3,2.9c-0.8,0.4-2,0.7-3.3,0.7
		c-3.2,0-5.7-2.2-5.7-5.6c0-3.4,2.4-5.5,5.4-5.5c2.9,0,4.7,2,4.7,4.2C126.4,42.8,126.3,43.2,126.3,43.4z M121.7,40.9
		c-1,0-1.8,0.8-2,1.7h3.5c0-0.1,0-0.1,0-0.2C123.2,41.7,122.6,40.9,121.7,40.9z"/>
	<path class="st0" d="M137.5,43.4l-1.5,1.5h-5.1c0.2,0.9,1.3,1.8,3.1,1.8c1.1,0,2.2-0.3,2.9-0.8l-0.3,2.9c-0.8,0.4-2,0.7-3.3,0.7
		c-3.2,0-5.7-2.2-5.7-5.6c0-3.4,2.4-5.5,5.4-5.5c2.9,0,4.7,2,4.7,4.2C137.6,42.8,137.5,43.2,137.5,43.4z M132.9,40.9
		c-1,0-1.8,0.8-2,1.7h3.5c0-0.1,0-0.1,0-0.2C134.4,41.7,133.8,40.9,132.9,40.9z"/>
	<path class="st0" d="M145.2,49.5c-1.1,0-2.2-0.3-2.6-0.7v5.7h-3.3V38.8h3V40h0c0.6-1.1,1.8-1.6,3.2-1.6c2.6,0,5,1.9,5,5.5
		C150.5,47.3,148.1,49.5,145.2,49.5z M144.6,41.4c-1,0-1.7,0.5-2,1.1v3.3c0.3,0.4,1,0.9,2,0.9c1.5,0,2.5-1.1,2.5-2.6
		C147.1,42.5,146.1,41.4,144.6,41.4z"/>
	<path class="st0" d="M162.4,49.5c-2.2,0-4-0.8-5-1.5V32.8h3.3v6.3c0.4-0.3,1.5-0.7,2.6-0.7c2.9,0,5.2,2,5.2,5.3
		C168.5,47,166.4,49.5,162.4,49.5z M162.6,41.4c-1,0-1.7,0.5-2,0.8v4c0.3,0.3,1.1,0.5,1.7,0.5c1.7,0,2.8-1.2,2.8-2.7
		C165.1,42.5,164.1,41.4,162.6,41.4z"/>
	<path class="st0" d="M179.7,43.4l-1.5,1.5h-5.1c0.2,0.9,1.3,1.8,3.1,1.8c1.1,0,2.2-0.3,2.9-0.8l-0.3,2.9c-0.8,0.4-2,0.7-3.3,0.7
		c-3.2,0-5.7-2.2-5.7-5.6c0-3.4,2.4-5.5,5.4-5.5c2.9,0,4.7,2,4.7,4.2C179.8,42.8,179.8,43.2,179.7,43.4z M175.1,40.9
		c-1,0-1.8,0.8-2,1.7h3.5c0-0.1,0-0.1,0-0.2C176.6,41.7,176,40.9,175.1,40.9z"/>
	<path class="st0" d="M188.5,41.5h-2.7v3.9c0,0.9,0.5,1.3,1.4,1.3c0.4,0,0.6,0,0.9-0.1l-0.3,2.6c-0.3,0.2-0.9,0.3-1.6,0.3
		c-2.3,0-3.7-1.2-3.7-3.3v-4.5h-1.7v-2.8h1.7v-2.2l3.4-1.2v3.4h3.4L188.5,41.5z"/>
	<path class="st0" d="M197.7,41.5H195v3.9c0,0.9,0.5,1.3,1.4,1.3c0.4,0,0.6,0,0.9-0.1l-0.3,2.6c-0.3,0.2-0.9,0.3-1.6,0.3
		c-2.3,0-3.7-1.2-3.7-3.3v-4.5h-1.7v-2.8h1.7v-2.2l3.4-1.2v3.4h3.4L197.7,41.5z"/>
	<path class="st0" d="M208.8,43.4l-1.5,1.5h-5.1c0.2,0.9,1.3,1.8,3.1,1.8c1.1,0,2.2-0.3,2.9-0.8l-0.3,2.9c-0.8,0.4-2,0.7-3.3,0.7
		c-3.2,0-5.7-2.2-5.7-5.6c0-3.4,2.4-5.5,5.4-5.5c2.9,0,4.7,2,4.7,4.2C208.9,42.8,208.8,43.2,208.8,43.4z M204.2,40.9
		c-1,0-1.8,0.8-2,1.7h3.5c0-0.1,0-0.1,0-0.2C205.7,41.7,205.1,40.9,204.2,40.9z"/>
	<path class="st0" d="M217,42.3c-0.2-0.1-0.7-0.3-1-0.3c-1.1,0-2.1,0.6-2.1,2.2v4.9h-3.4V38.8h3.3v2.3h0c0.3-1.6,1.6-2.5,3-2.5
		c0.3,0,0.7,0,1,0.1L217,42.3z"/>
	<path class="st0" d="M219.2,49.5c-0.6,0-1.9-1.3-1.9-1.9c0-0.6,1.3-1.9,1.9-1.9c0.6,0,1.9,1.3,1.9,1.9
		C221.1,48.2,219.8,49.5,219.2,49.5z"/>
</g>
</svg>
