<?xml version="1.0" encoding="utf-8"?>
<!-- Generator: Adobe Illustrator 22.1.0, SVG Export Plug-In . SVG Version: 6.00 Build 0)  -->
<svg version="1.1" id="Layer_1" xmlns="http://www.w3.org/2000/svg" xmlns:xlink="http://www.w3.org/1999/xlink" x="0px" y="0px"
	 viewBox="0 0 728 90" style="enable-background:new 0 0 728 90;" xml:space="preserve">
<style type="text/css">
	.st0{fill:#231F20;}
</style>
<g>
	<path class="st0" d="M37.9,24.3h-2.3l-2.1-6.5c-0.3-1-0.6-2-1-3.3h0c-0.3,1.3-0.6,2.3-1,3.3l-2.1,6.5h-2.2L22.2,9.5h3.5l1.9,5.9
		c0.3,0.9,0.6,1.8,0.8,2.9h0c0.2-1.1,0.5-2,0.8-2.9l1.9-5.9h3.1l1.9,5.9c0.3,0.8,0.6,1.9,0.8,3h0c0.2-1.1,0.5-2.1,0.8-2.9l2-5.9h3.1
		L37.9,24.3z"/>
	<path class="st0" d="M50.7,24.2v-6.4c0-0.8-0.5-1.4-1.6-1.4c-1,0-1.6,0.6-1.6,1.5v6.3h-3.4V7.8h3.3v6.9h0c0.5-0.8,1.5-1.3,2.9-1.3
		c2.3,0,3.7,1.3,3.7,3.5v7.2H50.7z"/>
	<path class="st0" d="M65.7,18.4l-1.5,1.5h-5.1c0.2,0.9,1.3,1.8,3.1,1.8c1.1,0,2.2-0.3,2.9-0.8l-0.3,2.9c-0.8,0.4-2,0.7-3.3,0.7
		c-3.2,0-5.7-2.2-5.7-5.6c0-3.4,2.4-5.5,5.4-5.5c2.9,0,4.7,2,4.7,4.2C65.8,17.8,65.8,18.2,65.7,18.4z M61.2,15.9c-1,0-1.8,0.8-2,1.7
		h3.5c0-0.1,0-0.1,0-0.2C62.7,16.7,62.1,15.9,61.2,15.9z"/>
	<path class="st0" d="M74.1,24.2v-6.4c0-0.8-0.5-1.4-1.5-1.4c-1,0-1.7,0.6-1.7,1.5v6.3h-3.4V13.8h3.1v1.4h0c0.4-1.1,1.5-1.7,3.2-1.7
		c2.3,0,3.7,1.3,3.7,3.5v7.2H74.1z"/>
	<path class="st0" d="M91.1,23.1c-1.6,4.2-3.2,5.7-5.2,6.5l-2.1-2.1c1.7-0.6,3-1.9,3.8-4.1l-3.7-9.7h3.3l1.5,4
		c0.2,0.6,0.5,1.3,0.6,2h0c0.2-0.7,0.4-1.4,0.7-2l1.5-4h3.1L91.1,23.1z"/>
	<path class="st0" d="M100.6,24.5c-3.2,0-5.7-2.2-5.7-5.5c0-3.3,2.5-5.5,5.7-5.5c3.1,0,5.7,2.2,5.7,5.5
		C106.3,22.3,103.7,24.5,100.6,24.5z M100.6,16.4c-1.3,0-2.3,1.1-2.3,2.6s1.1,2.6,2.3,2.6c1.2,0,2.3-1.1,2.3-2.6
		S101.9,16.4,100.6,16.4z"/>
	<path class="st0" d="M114.8,24.2v-1.4h0c-0.4,1.1-1.5,1.7-3.2,1.7c-2.3,0-3.7-1.3-3.7-3.5v-7.2h3.4v6.4c0,0.8,0.5,1.4,1.6,1.4
		c1,0,1.6-0.7,1.6-1.5v-6.3h3.4v10.4H114.8z"/>
	<path class="st0" d="M131.8,24.2v-6.4c0-0.8-0.5-1.4-1.6-1.4c-1,0-1.6,0.6-1.6,1.5v6.3h-3.4V7.8h3.3v6.9h0c0.5-0.8,1.5-1.3,2.9-1.3
		c2.3,0,3.7,1.3,3.7,3.5v7.2H131.8z"/>
	<path class="st0" d="M144.6,24.6c-0.6-0.1-1.3-0.6-1.6-1.4c-0.5,0.9-1.4,1.3-2.7,1.3c-1.8,0-3.5-1.3-3.5-3.4c0-1.9,1.5-3.2,3.6-3.4
		l2.1-0.2v-0.3c0-0.6-0.5-1-1.6-1c-1,0-2.1,0.3-2.9,0.8l-0.6-2.6c0.9-0.6,2.3-0.9,3.7-0.9c2.8,0,4.7,1.3,4.7,3.8v3.4
		c0,1.2,0.5,1.9,1.3,2.2L144.6,24.6z M142.5,19.6l-1.3,0.1c-0.9,0.1-1.3,0.7-1.3,1.3c0,0.6,0.4,1,1.1,1c0.8,0,1.5-0.6,1.5-1.5V19.6z
		"/>
	<path class="st0" d="M153.3,24.3h-2.5l-4-10.5h3.3l1.5,4c0.2,0.6,0.4,1.3,0.6,2h0c0.2-0.7,0.4-1.5,0.6-2l1.5-4h3.1L153.3,24.3z"/>
	<path class="st0" d="M167.6,18.4l-1.5,1.5H161c0.2,0.9,1.3,1.8,3.1,1.8c1.1,0,2.2-0.3,2.9-0.8l-0.3,2.9c-0.8,0.4-2,0.7-3.3,0.7
		c-3.2,0-5.7-2.2-5.7-5.6c0-3.4,2.4-5.5,5.4-5.5c2.9,0,4.7,2,4.7,4.2C167.7,17.8,167.7,18.2,167.6,18.4z M163,15.9
		c-1,0-1.8,0.8-2,1.7h3.5c0-0.1,0-0.1,0-0.2C164.6,16.7,163.9,15.9,163,15.9z"/>
	<path class="st0" d="M178.1,24.6c-2.1-0.1-3.6-1.2-3.6-3.7V7.8h3.3v12.7c0,0.9,0.5,1.3,1.4,1.4L178.1,24.6z"/>
	<path class="st0" d="M182.4,12.3c-0.6,0-1.8-1.2-1.8-1.8c0-0.6,1.2-1.8,1.8-1.8c0.6,0,1.8,1.2,1.8,1.8
		C184.2,11.1,183,12.3,182.4,12.3z M180.7,24.2V13.8h3.4v10.4H180.7z"/>
	<path class="st0" d="M193.6,10.8c-0.4-0.2-0.9-0.3-1.4-0.3c-1.2,0-1.9,0.7-1.9,2.2v1h3l-0.7,2.8h-2.3v7.7h-3.3v-7.7h-1.6v-2.8h1.6
		v-1.2c0-3.2,2-4.7,4.7-4.7c1,0,1.9,0.1,2.5,0.3L193.6,10.8z"/>
	<path class="st0" d="M203.8,18.4l-1.5,1.5h-5.1c0.2,0.9,1.3,1.8,3.1,1.8c1.1,0,2.2-0.3,2.9-0.8l-0.3,2.9c-0.8,0.4-2,0.7-3.3,0.7
		c-3.2,0-5.7-2.2-5.7-5.6c0-3.4,2.4-5.5,5.4-5.5c2.9,0,4.7,2,4.7,4.2C203.9,17.8,203.8,18.2,203.8,18.4z M199.2,15.9
		c-1,0-1.8,0.8-2,1.7h3.5c0-0.1,0-0.1,0-0.2C200.7,16.7,200.1,15.9,199.2,15.9z"/>
	<path class="st0" d="M212.5,12.3c-0.6,0-1.8-1.2-1.8-1.8c0-0.6,1.2-1.8,1.8-1.8c0.6,0,1.8,1.2,1.8,1.8
		C214.3,11.1,213.1,12.3,212.5,12.3z M210.8,24.2V13.8h3.4v10.4H210.8z"/>
	<path class="st0" d="M223,24.2v-6.4c0-0.8-0.5-1.4-1.5-1.4c-1,0-1.7,0.6-1.7,1.5v6.3h-3.4V13.8h3.1v1.4h0c0.4-1.1,1.5-1.7,3.2-1.7
		c2.3,0,3.7,1.3,3.7,3.5v7.2H223z"/>
	<path class="st0" d="M231.8,24.4c-1.4,0-2.5-0.3-3.3-0.7l-0.3-3c0.9,0.6,2.1,1.1,3.3,1.1c0.6,0,1-0.3,1-0.7c0-0.4-0.3-0.6-0.9-0.8
		c-2-0.6-3.2-1.6-3.2-3.4c0-2,1.7-3.4,3.9-3.4c1.3,0,2.6,0.3,3.1,0.6l-0.6,2.5c-0.5-0.3-1.3-0.6-2.2-0.6c-0.6,0-0.9,0.3-0.9,0.7
		c0,0.4,0.3,0.6,0.9,0.8c2.3,0.6,3.3,1.8,3.3,3.5C235.9,22.8,234.7,24.4,231.8,24.4z"/>
	<path class="st0" d="M244.4,24.2v-1.4h0c-0.4,1.1-1.5,1.7-3.2,1.7c-2.3,0-3.7-1.3-3.7-3.5v-7.2h3.4v6.4c0,0.8,0.5,1.4,1.6,1.4
		c1,0,1.6-0.7,1.6-1.5v-6.3h3.4v10.4H244.4z"/>
	<path class="st0" d="M256.1,17.3c-0.2-0.1-0.7-0.3-1-0.3c-1.1,0-2.1,0.6-2.1,2.2v4.9h-3.4V13.8h3.3v2.3h0c0.3-1.6,1.6-2.5,3-2.5
		c0.3,0,0.7,0,1,0.1L256.1,17.3z"/>
	<path class="st0" d="M265.4,24.6c-0.6-0.1-1.3-0.6-1.6-1.4c-0.5,0.9-1.4,1.3-2.7,1.3c-1.8,0-3.5-1.3-3.5-3.4c0-1.9,1.5-3.2,3.6-3.4
		l2.1-0.2v-0.3c0-0.6-0.5-1-1.6-1c-1,0-2.1,0.3-2.9,0.8l-0.6-2.6c0.9-0.6,2.3-0.9,3.7-0.9c2.8,0,4.7,1.3,4.7,3.8v3.4
		c0,1.2,0.5,1.9,1.3,2.2L265.4,24.6z M263.2,19.6l-1.3,0.1c-0.9,0.1-1.3,0.7-1.3,1.3c0,0.6,0.4,1,1.1,1c0.8,0,1.5-0.6,1.5-1.5V19.6z
		"/>
	<path class="st0" d="M275.5,24.2v-6.4c0-0.8-0.5-1.4-1.5-1.4c-1,0-1.7,0.6-1.7,1.5v6.3h-3.4V13.8h3.1v1.4h0
		c0.4-1.1,1.5-1.7,3.2-1.7c2.3,0,3.7,1.3,3.7,3.5v7.2H275.5z"/>
	<path class="st0" d="M288.9,17.1c-0.7-0.4-1.4-0.7-2.2-0.7c-1.5,0-2.6,1.1-2.6,2.6c0,1.5,1.2,2.6,2.7,2.6c0.9,0,1.5-0.2,2.3-0.6
		l-0.3,2.9c-0.7,0.3-1.6,0.5-2.6,0.5c-2.9,0-5.6-2.1-5.6-5.4c0-3.4,2.7-5.4,5.6-5.4c1.4,0,2.5,0.3,3.4,0.8L288.9,17.1z"/>
	<path class="st0" d="M300.5,18.4l-1.5,1.5h-5.1c0.2,0.9,1.3,1.8,3.1,1.8c1.1,0,2.2-0.3,2.9-0.8l-0.3,2.9c-0.8,0.4-2,0.7-3.3,0.7
		c-3.2,0-5.7-2.2-5.7-5.6c0-3.4,2.4-5.5,5.4-5.5c2.9,0,4.7,2,4.7,4.2C300.6,17.8,300.5,18.2,300.5,18.4z M295.9,15.9
		c-1,0-1.8,0.8-2,1.7h3.5c0-0.1,0-0.1,0-0.2C297.4,16.7,296.8,15.9,295.9,15.9z"/>
	<path class="st0" d="M302.7,27.6l-1.1-0.2c0.8-0.9,1.4-2.2,1.5-3.2c-0.6-0.1-1.5-1.1-1.5-1.6c0-0.7,1.3-1.9,1.9-1.9
		c0.5,0,1.9,1.2,1.9,1.9C305.5,24,304.1,26.4,302.7,27.6z"/>
</g>
</svg>
