<?xml version="1.0" encoding="utf-8"?>
<!-- Generator: Adobe Illustrator 22.1.0, SVG Export Plug-In . SVG Version: 6.00 Build 0)  -->
<svg version="1.1" id="Layer_1" xmlns="http://www.w3.org/2000/svg" xmlns:xlink="http://www.w3.org/1999/xlink" x="0px" y="0px"
	 viewBox="0 0 728 90" style="enable-background:new 0 0 728 90;" xml:space="preserve">
<style type="text/css">
	.st0{fill:none;stroke:#981B27;stroke-width:6.118;stroke-miterlimit:10;}
	.st1{fill:#429891;}
	.st2{fill:none;stroke:#981B27;stroke-width:1.929;stroke-miterlimit:10;}
	.st3{fill:#FAB016;}
	.st4{fill:#4F131E;}
	.st5{fill:#981B27;}
	.st6{fill:#48A642;}
</style>
<line class="st0" x1="429.7" y1="84.5" x2="504.2" y2="84.5"/>
<rect x="444.3" y="49.5" class="st1" width="14.9" height="34.1"/>
<rect x="444.3" y="49.5" class="st2" width="14.9" height="34.1"/>
<path class="st3" d="M456.7,66.2c0,0.9-0.7,1.5-1.5,1.5c-0.9,0-1.5-0.7-1.5-1.5c0-0.9,0.7-1.5,1.5-1.5
	C456,64.6,456.7,65.3,456.7,66.2"/>
<rect x="485.5" y="16.2" class="st4" width="6.1" height="10.5"/>
<path class="st5" d="M493,17.6c0,0.6-0.6,1.1-1.3,1.1h-6.4c-0.7,0-1.3-0.5-1.3-1.1v-1.9c0-0.6,0.6-1.1,1.3-1.1h6.4
	c0.7,0,1.3,0.5,1.3,1.1V17.6z"/>
<polygon class="st5" points="502.9,42 467.9,18.6 432.8,42 431,35.3 467.9,10.7 504.8,35.3 "/>
<rect x="464.2" y="49.6" class="st5" width="6.6" height="16.2"/>
<line class="st0" x1="429.7" y1="84.5" x2="501.3" y2="84.5"/>
<path class="st6" d="M495.1,84c-1-0.8-3.4-0.9-4,0.5c0.4-1.3-0.3-3.1-1.3-3.9c-0.9-0.7-2.2-0.9-3.3-0.7c-2.1,0.4-4.1,2-4.4,4.4
	c-0.5-0.7-1.2-1.2-2.1-1.2c-0.9,0-1.8,0.6-2.2,1.4c-0.7-1.3-2.9-1.2-3.9-0.4c-1.2,1-1.3,2.7-1,4.2h6.2h3h13.9
	C496.5,86.7,496.3,84.9,495.1,84"/>
<rect x="489.1" y="49.6" class="st5" width="6.7" height="16.2"/>
</svg>
