<?xml version="1.0" encoding="utf-8"?>
<!-- Generator: Adobe Illustrator 22.1.0, SVG Export Plug-In . SVG Version: 6.00 Build 0)  -->
<svg version="1.1" id="Layer_1" xmlns="http://www.w3.org/2000/svg" xmlns:xlink="http://www.w3.org/1999/xlink" x="0px" y="0px"
	 viewBox="0 0 728 90" style="enable-background:new 0 0 728 90;" xml:space="preserve">
<style type="text/css">
	.st0{fill:#00C3FF;}
	.st1{fill:none;}
	.st2{clip-path:url(#SVGID_2_);fill:url(#SVGID_3_);}
	.st3{clip-path:url(#SVGID_5_);fill:url(#SVGID_6_);}
	.st4{clip-path:url(#SVGID_8_);fill:url(#SVGID_9_);}
	.st5{clip-path:url(#SVGID_11_);fill:url(#SVGID_12_);}
	.st6{fill:#FFFFFF;}
</style>
<path class="st0" d="M0,0h728v90H0V0z M469.5,71.4c10.5,0,19-8.5,19-19V9.2h-43.2c-10.4,0-19,8.6-19,18.9v43.3H469.5z"/>
<rect x="413.7" y="6.5" class="st1" width="77.1" height="77.1"/>
<g>
	<defs>
		<path id="SVGID_1_" d="M469.5,74.2h-45.9l-9.4,9.4h50.7c3.1-0.7,6-2.3,8.2-4.5l7.2-7.2l-0.4-0.4C476.8,73.2,473.2,74.2,469.5,74.2
			"/>
	</defs>
	<clipPath id="SVGID_2_">
		<use xlink:href="#SVGID_1_"  style="overflow:visible;"/>
	</clipPath>
	
		<linearGradient id="SVGID_3_" gradientUnits="userSpaceOnUse" x1="1.0799" y1="91.0633" x2="2.0799" y2="91.0633" gradientTransform="matrix(0 -12.5119 -12.5119 0 1586.5895 97.5593)">
		<stop  offset="0" style="stop-color:#10B0E6"/>
		<stop  offset="0.1593" style="stop-color:#0FAAE1"/>
		<stop  offset="0.3678" style="stop-color:#0C9AD2"/>
		<stop  offset="0.6035" style="stop-color:#077FBA"/>
		<stop  offset="0.8576" style="stop-color:#015999"/>
		<stop  offset="0.89" style="stop-color:#005494"/>
		<stop  offset="1" style="stop-color:#005494"/>
	</linearGradient>
	<rect x="414.1" y="71.5" class="st2" width="66.1" height="12"/>
</g>
<g>
	<defs>
		<path id="SVGID_4_" d="M418.6,24.6c-3,3.1-4.9,7.3-4.9,12v47h0.4l9.4-9.4v-46c0-3.7,0.9-7.2,2.7-10.3l-0.4-0.4L418.6,24.6z"/>
	</defs>
	<clipPath id="SVGID_5_">
		<use xlink:href="#SVGID_4_"  style="overflow:visible;"/>
	</clipPath>
	
		<linearGradient id="SVGID_6_" gradientUnits="userSpaceOnUse" x1="1.015" y1="91.015" x2="2.015" y2="91.015" gradientTransform="matrix(0 -66.8462 -66.8462 0 6503.9678 152.3307)">
		<stop  offset="0" style="stop-color:#0081BD"/>
		<stop  offset="0.3934" style="stop-color:#006FAC"/>
		<stop  offset="0.85" style="stop-color:#005494"/>
		<stop  offset="1" style="stop-color:#005494"/>
	</linearGradient>
	<rect x="413.7" y="17.4" class="st3" width="12.5" height="66.1"/>
</g>
<g>
	<defs>
		<path id="SVGID_7_" d="M469.5,74.2h-45.9l-9.4,9.4h50.7c3.1-0.7,6-2.3,8.2-4.5l7.2-7.2l-0.4-0.4C476.8,73.2,473.2,74.2,469.5,74.2
			"/>
	</defs>
	<clipPath id="SVGID_8_">
		<use xlink:href="#SVGID_7_"  style="overflow:visible;"/>
	</clipPath>
	
		<linearGradient id="SVGID_9_" gradientUnits="userSpaceOnUse" x1="0.9848" y1="91.0183" x2="1.9848" y2="91.0183" gradientTransform="matrix(65.8326 0 0 -65.8326 349.1518 6069.4897)">
		<stop  offset="0" style="stop-color:#10B0E6"/>
		<stop  offset="0.1611" style="stop-color:#0FAAE1"/>
		<stop  offset="0.3719" style="stop-color:#0C9AD2"/>
		<stop  offset="0.6102" style="stop-color:#077FBA"/>
		<stop  offset="0.8672" style="stop-color:#015999"/>
		<stop  offset="0.9" style="stop-color:#005494"/>
		<stop  offset="1" style="stop-color:#005494"/>
	</linearGradient>
	<rect x="414.1" y="71.5" class="st4" width="66.1" height="12"/>
</g>
<g>
	<defs>
		<path id="SVGID_10_" d="M469.5,74.2h-45.9l-9.4,9.4h50.7c3.1-0.7,6-2.3,8.2-4.5l7.2-7.2l-0.4-0.4
			C476.8,73.2,473.2,74.2,469.5,74.2"/>
	</defs>
	<clipPath id="SVGID_11_">
		<use xlink:href="#SVGID_10_"  style="overflow:visible;"/>
	</clipPath>
	
		<linearGradient id="SVGID_12_" gradientUnits="userSpaceOnUse" x1="0.9848" y1="91.0183" x2="1.9848" y2="91.0183" gradientTransform="matrix(65.8326 0 0 -65.8326 349.1518 6069.4897)">
		<stop  offset="0" style="stop-color:#10B0E6"/>
		<stop  offset="0.1611" style="stop-color:#0FAAE1"/>
		<stop  offset="0.3719" style="stop-color:#0C9AD2"/>
		<stop  offset="0.6102" style="stop-color:#077FBA"/>
		<stop  offset="0.8672" style="stop-color:#015999"/>
		<stop  offset="0.9" style="stop-color:#005494"/>
		<stop  offset="1" style="stop-color:#005494"/>
	</linearGradient>
	<rect x="414.1" y="71.5" class="st5" width="66.1" height="12"/>
</g>
<path class="st6" d="M444.8,6.5c-5.8,0-11.2,2.3-15.3,6.4c-4.1,4.1-6.4,9.5-6.4,15.3v46H469c12,0,21.8-9.8,21.8-21.7v-46H444.8z
	 M488.4,52.4c0,10.5-8.5,19-19,19h-43.2V28.1c0-10.3,8.6-18.9,19-18.9h43.2V52.4z"/>
<rect x="413.7" y="6.5" class="st1" width="77.1" height="77.1"/>
<rect x="413.7" y="6.5" class="st1" width="77.1" height="77.1"/>
</svg>
