<svg id="Layer_1" xmlns="http://www.w3.org/2000/svg" viewBox="0 0 300 600"><style>.st0{fill:#231f20}</style><path class="st0" d="M23.4 581.4h-2.2l-.2 1.5h.5c.4 0 .9.1 1.2.3.5.3.8.8.8 1.5 0 1.1-.9 2-2.1 2-.6 0-1.2-.2-1.4-.4l.2-.6c.2.1.7.3 1.2.3.7 0 1.4-.5 1.4-1.3 0-.7-.5-1.3-1.7-1.3-.3 0-.6 0-.8.1l.4-2.8h2.8v.7zM24.4 585.1c0-.7.4-1.2 1.1-1.5-.6-.3-.9-.8-.9-1.3 0-.9.8-1.5 1.8-1.5 1.1 0 1.7.7 1.7 1.4 0 .5-.2 1-1 1.3.7.3 1.2.8 1.2 1.5 0 1-.9 1.7-2 1.7-1.1-.1-1.9-.8-1.9-1.6zm3.1-.1c0-.7-.5-1-1.3-1.3-.7.2-1 .6-1 1.2s.4 1.1 1.2 1.1c.7.1 1.1-.4 1.1-1zm-2.1-2.9c0 .6.4.9 1.1 1.1.5-.2.9-.5.9-1s-.3-.9-1-.9c-.7-.1-1 .4-1 .8zM32.4 581.3h-.6c-1.2.2-1.9 1.1-2 2.1.3-.4.8-.7 1.4-.7 1 0 1.7.7 1.7 1.9 0 1.1-.7 2-1.9 2s-2-1-2-2.5c0-1.1.4-2 1-2.6.5-.5 1.1-.8 1.8-.9h.6v.7zm-.3 3.3c0-.8-.5-1.3-1.2-1.3-.5 0-.9.3-1.1.7-.1.1-.1.2-.1.3 0 1 .5 1.7 1.3 1.7.7 0 1.1-.5 1.1-1.4zM33.8 585.6c.2.1.7.4 1.3.4 1 0 1.3-.6 1.3-1.1 0-.8-.7-1.2-1.5-1.2h-.4v-.6h.4c.6 0 1.3-.3 1.3-1 0-.5-.3-.9-1-.9-.5 0-.9.2-1.2.4l-.2-.6c.3-.2.9-.4 1.5-.4 1.1 0 1.7.7 1.7 1.4 0 .6-.4 1.1-1.1 1.4.7.1 1.3.7 1.3 1.5 0 .9-.7 1.7-2.1 1.7-.6 0-1.2-.2-1.5-.4l.2-.6zM39.9 581.5l-1 .5-.2-.6 1.3-.7h.7v5.8h-.8v-5zM42.7 585.1c0-.7.4-1.2 1.1-1.5-.6-.3-.9-.8-.9-1.3 0-.9.8-1.5 1.8-1.5 1.1 0 1.7.7 1.7 1.4 0 .5-.2 1-1 1.3.7.3 1.2.8 1.2 1.5 0 1-.9 1.7-2 1.7-1.2-.1-1.9-.8-1.9-1.6zm3.1-.1c0-.7-.5-1-1.3-1.3-.7.2-1 .6-1 1.2s.4 1.1 1.2 1.1c.6.1 1.1-.4 1.1-1zm-2.2-2.9c0 .6.4.9 1.1 1.1.5-.2.9-.5.9-1s-.3-.9-1-.9c-.6-.1-1 .4-1 .8z"/></svg>