<svg id="Layer_1" xmlns="http://www.w3.org/2000/svg" viewBox="0 0 300 600"><style>.st0{fill:#231f20}</style><path class="st0" d="M42.9 62.6v-6.7h-6.6v6.7h-4.1v-17h4.1v6.7h6.6v-6.7H47v17h-4.1zM60.9 55.9l-1.7 1.8h-5.9c.2 1 1.5 2.1 3.6 2.1 1.3 0 2.5-.4 3.3-.9l-.4 3.4c-.9.5-2.3.8-3.8.8-3.7 0-6.6-2.6-6.6-6.5s2.8-6.4 6.3-6.4c3.4 0 5.4 2.3 5.4 4.8-.1.2-.2.6-.2.9zM55.6 53c-1.1 0-2.1.9-2.3 2h4.1v-.3c-.1-.8-.8-1.7-1.8-1.7zM67 63.1c-2.5-.1-4.1-1.4-4.1-4.3V43.6h3.9v14.7c0 1 .6 1.5 1.6 1.6L67 63.1zM76.9 62.9c-1.3 0-2.6-.4-3.1-.8v6.6H70V50.5h3.4V52c.7-1.2 2.1-1.8 3.7-1.8 3 0 5.8 2.2 5.8 6.4.1 3.8-2.7 6.3-6 6.3zm-.7-9.3c-1.1 0-1.9.6-2.4 1.3v3.8c.4.5 1.2 1.1 2.4 1.1 1.7 0 2.9-1.3 2.9-3 0-1.9-1.2-3.2-2.9-3.2zM97.8 62.9c-1.3 0-2.6-.4-3.1-.8v6.6h-3.8V50.5h3.4V52c.7-1.2 2.1-1.8 3.7-1.8 3 0 5.8 2.2 5.8 6.4.1 3.8-2.7 6.3-6 6.3zm-.7-9.3c-1.1 0-1.9.6-2.4 1.3v3.8c.4.5 1.2 1.1 2.4 1.1 1.7 0 2.9-1.3 2.9-3 0-1.9-1.2-3.2-2.9-3.2zM113.8 62.6v-1.7c-.5 1.3-1.8 2-3.7 2-2.6 0-4.2-1.5-4.2-4v-8.4h3.9v7.4c0 .9.6 1.7 1.8 1.7 1.2 0 1.9-.8 1.9-1.7v-7.3h3.9v12.1h-3.6zM128 53.7h-3.1v4.5c0 1 .6 1.5 1.6 1.5.5 0 .7 0 1-.2l-.3 3c-.4.2-1 .3-1.8.3-2.7 0-4.3-1.4-4.3-3.8v-5.2h-2v-3.2h2V48l3.9-1.4v4h3.9l-.9 3.1zM143.5 61.4c-1.8 4.8-3.8 6.6-6 7.5l-2.4-2.4c1.9-.7 3.4-2.2 4.4-4.7l-4.3-11.2h3.8l1.8 4.7c.3.7.5 1.5.7 2.4h.1c.2-.8.5-1.7.8-2.4l1.8-4.7h3.6l-4.3 10.8zM154.5 63c-3.6 0-6.6-2.6-6.6-6.4s2.9-6.4 6.6-6.4c3.6 0 6.6 2.6 6.6 6.4s-3 6.4-6.6 6.4zm0-9.5c-1.5 0-2.7 1.3-2.7 3.1s1.3 3.1 2.7 3.1c1.4 0 2.7-1.3 2.7-3.1s-1.3-3.1-2.7-3.1zM170.9 62.6v-1.7c-.5 1.3-1.8 2-3.7 2-2.6 0-4.2-1.5-4.2-4v-8.4h3.9v7.4c0 .9.6 1.7 1.8 1.7 1.2 0 1.9-.8 1.9-1.7v-7.3h3.9v12.1h-3.6zM184.5 54.7c-.2-.1-.8-.3-1.2-.3-1.3 0-2.4.7-2.4 2.6v5.6H177V50.5h3.9v2.7c.4-1.9 1.8-2.9 3.4-2.9.4 0 .8.1 1.1.2l-.9 4.2zM207.7 62.6v-7.4c0-.9-.4-1.7-1.7-1.7-1.3 0-1.8.7-1.8 1.7v7.4h-3.9v-7.4c0-.9-.4-1.7-1.7-1.7-1.3 0-1.8.7-1.8 1.7v7.4h-3.9V50.5h3.6v1.6c.5-1.3 1.7-2 3.6-2 1.7 0 3 .7 3.6 2 .5-1.2 1.9-2 3.7-2 2.7 0 4.3 1.5 4.3 4v8.4h-4zM216.1 48.9c-.7 0-2.1-1.4-2.1-2.1s1.4-2.1 2.1-2.1c.7 0 2.1 1.4 2.1 2.1s-1.4 2.1-2.1 2.1zm-2 13.7V50.5h3.9v12.1h-3.9zM228.3 62.6v-7.4c0-.9-.6-1.7-1.8-1.7-1.2 0-1.9.7-1.9 1.7v7.4h-3.9V50.5h3.6v1.6c.5-1.3 1.7-2 3.7-2 2.6 0 4.2 1.5 4.2 4v8.4h-3.9zM243.7 62.6v-1.5c-.7 1.2-2.1 1.8-3.7 1.8-3 0-5.8-2.2-5.8-6.4 0-3.9 2.8-6.4 6.1-6.4 1.3 0 2.6.4 3.1.8v-7.4h3.8v19h-3.5zm-.4-7.9c-.4-.5-1.2-1.1-2.4-1.1-1.7 0-2.9 1.3-2.9 3.1 0 1.7 1.2 3.1 2.9 3.1 1.1 0 1.9-.6 2.4-1.3v-3.8z"/><g><path class="st0" d="M40.5 92c-.7-.2-1.5-.7-1.9-1.6-.5 1-1.7 1.5-3.1 1.5-2.1 0-4-1.5-4-4 0-2.2 1.7-3.7 4.1-3.9l2.4-.2v-.4c0-.7-.6-1.2-1.9-1.2-1.2 0-2.5.4-3.4.9l-.7-3c1-.6 2.6-1.1 4.2-1.1 3.2 0 5.5 1.5 5.5 4.4v3.9c0 1.4.5 2.2 1.5 2.5L40.5 92zM38 86.2l-1.5.1c-1 .1-1.5.8-1.5 1.5 0 .6.5 1.2 1.2 1.2.9 0 1.7-.7 1.7-1.8v-1zM52.2 91.4V84c0-.9-.6-1.7-1.8-1.7-1.2 0-1.9.7-1.9 1.7v7.4h-3.9v-12h3.6V81c.5-1.3 1.7-2 3.7-2 2.6 0 4.2 1.5 4.2 4v8.4h-3.9zM67.6 91.4V90c-.7 1.2-2.1 1.8-3.7 1.8-3 0-5.8-2.2-5.8-6.4 0-3.9 2.8-6.4 6.1-6.4 1.3 0 2.6.4 3.1.8v-7.4h3.8v19h-3.5zm-.3-7.9c-.4-.5-1.2-1.1-2.4-1.1-1.7 0-2.9 1.3-2.9 3.1 0 1.7 1.2 3.1 2.9 3.1 1.1 0 1.9-.6 2.4-1.3v-3.8zM87.9 76c-.5-.2-1.1-.3-1.6-.3-1.4 0-2.2.9-2.2 2.6v1.1h3.5l-.8 3.2h-2.7v8.9h-3.8v-8.9h-1.8v-3.2h1.8V78c0-3.7 2.4-5.5 5.4-5.5 1.1 0 2.2.1 2.9.4l-.7 3.1zM97.5 92c-.7-.2-1.5-.7-1.9-1.6-.5 1-1.7 1.5-3.1 1.5-2.1 0-4-1.5-4-4 0-2.2 1.7-3.7 4.1-3.9l2.4-.2v-.4c0-.7-.6-1.2-1.9-1.2-1.2 0-2.5.4-3.4.9L89 80c1-.6 2.6-1.1 4.2-1.1 3.2 0 5.5 1.5 5.5 4.4v3.9c0 1.4.5 2.2 1.5 2.5L97.5 92zm-2.6-5.8l-1.5.1c-1 .1-1.5.8-1.5 1.5 0 .6.5 1.2 1.2 1.2.9 0 1.7-.7 1.7-1.8v-1zM116.4 91.4V84c0-.9-.4-1.7-1.7-1.7-1.3 0-1.8.7-1.8 1.7v7.4H109V84c0-.9-.4-1.7-1.7-1.7-1.3 0-1.8.7-1.8 1.7v7.4h-3.9v-12h3.6V81c.5-1.3 1.7-2 3.6-2 1.7 0 3 .7 3.6 2 .5-1.2 1.9-2 3.7-2 2.7 0 4.3 1.5 4.3 4v8.4h-4zM124.8 77.7c-.7 0-2.1-1.4-2.1-2.1s1.4-2.1 2.1-2.1c.7 0 2.1 1.4 2.1 2.1s-1.4 2.1-2.1 2.1zm-2 13.7v-12h3.9v12.1h-3.9zM133.5 91.9c-2.5-.1-4.1-1.4-4.1-4.3V72.5h3.9v14.7c0 1 .6 1.5 1.6 1.6l-1.4 3.1zM143.3 90.2c-1.8 4.8-3.8 6.6-6 7.5l-2.4-2.4c1.9-.7 3.4-2.2 4.4-4.7L135 79.4h3.8l1.8 4.7c.3.7.5 1.5.7 2.4h.1c.2-.8.5-1.7.8-2.4l1.8-4.7h3.6l-4.3 10.8zM149.8 82l-1.2-.2c.9-1 1.6-2.6 1.8-3.8-.7-.1-1.8-1.3-1.8-1.9 0-.8 1.5-2.2 2.2-2.2.6 0 2.2 1.4 2.2 2.2 0 1.8-1.6 4.5-3.2 5.9zM157.8 91.7c-1.7 0-2.9-.3-3.8-.9l-.3-3.5c1.1.7 2.5 1.3 3.8 1.3.7 0 1.2-.4 1.2-.8 0-.5-.4-.7-1.1-.9-2.3-.7-3.7-1.8-3.7-3.9 0-2.4 1.9-3.9 4.5-3.9 1.5 0 3 .4 3.6.7l-.7 2.9c-.6-.3-1.5-.7-2.5-.7-.6 0-1.1.3-1.1.8s.3.7 1.1.9c2.7.7 3.8 2.1 3.8 4.1-.1 2-1.5 3.9-4.8 3.9zM178.9 76c-.5-.2-1.1-.3-1.6-.3-1.4 0-2.2.9-2.2 2.6v1.1h3.5l-.8 3.2h-2.7v8.9h-3.8v-8.9h-1.8v-3.2h1.8V78c0-3.7 2.4-5.5 5.4-5.5 1.1 0 2.2.1 2.9.4l-.7 3.1zM187.9 91.4v-1.7c-.5 1.3-1.8 2-3.7 2-2.6 0-4.2-1.5-4.2-4v-8.4h3.9v7.4c0 .9.6 1.7 1.8 1.7 1.2 0 1.9-.8 1.9-1.7v-7.3h3.9v12.1h-3.6zM202 82.6h-3.1V87c0 1 .6 1.5 1.6 1.5.5 0 .7 0 1-.2l-.3 3c-.4.2-1 .3-1.8.3-2.7 0-4.3-1.4-4.3-3.8v-5.2h-2v-3.2h2v-2.6l3.9-1.4v4h3.9l-.9 3.2zM212.1 91.4v-1.7c-.5 1.3-1.8 2-3.7 2-2.6 0-4.2-1.5-4.2-4v-8.4h3.9v7.4c0 .9.6 1.7 1.8 1.7 1.2 0 1.9-.8 1.9-1.7v-7.3h3.9v12.1h-3.6zM225.6 83.5c-.2-.1-.8-.3-1.2-.3-1.3 0-2.4.7-2.4 2.6v5.6h-3.9v-12h3.9v2.7c.4-1.9 1.8-2.9 3.4-2.9.4 0 .8.1 1.1.2l-.9 4.1zM238.7 84.7l-1.7 1.8h-5.9c.2 1 1.5 2.1 3.6 2.1 1.3 0 2.5-.4 3.3-.9l-.4 3.4c-.9.5-2.3.8-3.8.8-3.7 0-6.6-2.6-6.6-6.5s2.8-6.4 6.3-6.4c3.4 0 5.4 2.3 5.4 4.8-.1.3-.1.7-.2.9zm-5.3-2.8c-1.1 0-2.1.9-2.3 2h4.1v-.3c0-.8-.8-1.7-1.8-1.7z"/></g><g><path class="st0" d="M40.5 120.8c-.7-.2-1.5-.7-1.9-1.6-.5 1-1.7 1.5-3.1 1.5-2.1 0-4-1.5-4-4 0-2.2 1.7-3.7 4.1-3.9l2.4-.2v-.4c0-.7-.6-1.2-1.9-1.2-1.2 0-2.5.4-3.4.9l-.7-3c1-.6 2.6-1.1 4.2-1.1 3.2 0 5.5 1.5 5.5 4.4v3.9c0 1.4.5 2.2 1.5 2.5l-2.7 2.2zM38 115l-1.5.1c-1 .1-1.5.8-1.5 1.5 0 .6.5 1.2 1.2 1.2.9 0 1.7-.7 1.7-1.8v-1zM52.4 111.4h-3.1v4.5c0 1 .6 1.5 1.6 1.5.5 0 .7 0 1-.2l-.3 3c-.4.2-1 .3-1.8.3-2.7 0-4.3-1.4-4.3-3.8v-5.2h-2v-3.2h2v-2.6l3.9-1.4v4h3.9l-.9 3.1zM71.6 113.6l-1.7 1.8H64c.2 1 1.5 2.1 3.6 2.1 1.3 0 2.5-.4 3.3-.9l-.4 3.4c-.9.5-2.3.8-3.8.8-3.7 0-6.6-2.6-6.6-6.5s2.8-6.4 6.3-6.4c3.4 0 5.4 2.3 5.4 4.8-.1.2-.2.6-.2.9zm-5.3-2.8c-1.1 0-2.1.9-2.3 2h4v-.3c0-.9-.7-1.7-1.7-1.7zM82 120.8c-.7-.2-1.5-.7-1.9-1.6-.5 1-1.7 1.5-3.1 1.5-2.1 0-4-1.5-4-4 0-2.2 1.7-3.7 4.1-3.9l2.4-.2v-.4c0-.7-.6-1.2-1.9-1.2-1.2 0-2.5.4-3.4.9l-.7-3c1-.6 2.6-1.1 4.2-1.1 3.2 0 5.5 1.5 5.5 4.4v3.9c0 1.4.5 2.2 1.5 2.5l-2.7 2.2zm-2.5-5.8l-1.5.1c-1 .1-1.5.8-1.5 1.5 0 .6.5 1.2 1.2 1.2.9 0 1.7-.7 1.7-1.8v-1zM90 120.6c-1.7 0-2.9-.3-3.8-.9l-.3-3.5c1.1.7 2.5 1.3 3.8 1.3.7 0 1.2-.4 1.2-.8 0-.5-.4-.7-1.1-.9-2.3-.7-3.7-1.8-3.7-3.9 0-2.4 1.9-3.9 4.5-3.9 1.5 0 3 .4 3.6.7l-.7 2.9c-.6-.3-1.5-.7-2.5-.7-.6 0-1.1.3-1.1.8s.3.7 1.1.9c2.7.7 3.8 2.1 3.8 4.1-.1 2-1.6 3.9-4.8 3.9zM107.6 113.6l-1.7 1.8H100c.2 1 1.5 2.1 3.6 2.1 1.3 0 2.5-.4 3.3-.9l-.4 3.4c-.9.5-2.3.8-3.8.8-3.7 0-6.6-2.6-6.6-6.5s2.8-6.4 6.3-6.4c3.4 0 5.4 2.3 5.4 4.8-.1.2-.2.6-.2.9zm-5.3-2.8c-1.1 0-2.1.9-2.3 2h4.1v-.3c-.1-.9-.8-1.7-1.8-1.7zM128.9 120.4h-2.7l-1.6-4.8c-.2-.7-.5-1.6-.7-2.5h-.1c-.2.9-.4 1.8-.7 2.5l-1.6 4.8h-2.6l-4.2-12.2h3.6l1.5 4.6c.2.7.5 1.5.6 2.3h.1c.1-.7.3-1.6.6-2.3l1.5-4.6h3l1.5 4.6c.2.7.4 1.6.6 2.3h.1c.2-.8.4-1.6.6-2.3l1.5-4.6h3.3l-4.3 12.2zM136.5 106.6c-.7 0-2.1-1.4-2.1-2.1s1.4-2.1 2.1-2.1c.7 0 2.1 1.4 2.1 2.1s-1.4 2.1-2.1 2.1zm-2 13.7v-12.1h3.9v12.1h-3.9zM149.1 111.4H146v4.5c0 1 .6 1.5 1.6 1.5.5 0 .7 0 1-.2l-.3 3c-.4.2-1 .3-1.8.3-2.7 0-4.3-1.4-4.3-3.8v-5.2h-2v-3.2h2v-2.6l3.9-1.4v4h3.9l-.9 3.1zM158.8 120.3v-7.4c0-.9-.6-1.7-1.8-1.7-1.2 0-1.9.7-1.9 1.7v7.4h-3.9v-19h3.9v8c.6-.9 1.7-1.5 3.4-1.5 2.7 0 4.2 1.5 4.2 4v8.4h-3.9zM179.1 106.7v13.6H175v-13.6h-4.9v-3.4H184v3.4h-4.9zM185.7 120.3v-17h4.1v17h-4.1zM203.6 120.3l-1.4-3.8h-5.4l-1.4 3.8h-3.9l6.7-17.1h2.9l6.7 17.1h-4.2zm-3.6-10.2c-.2-.5-.4-1-.5-1.6h-.1c-.1.6-.3 1.1-.5 1.6l-1.1 3.1h3.3l-1.1-3.1zM220.9 120.3l-1.4-3.8h-5.4l-1.4 3.8h-3.9l6.7-17.1h2.9l6.7 17.1h-4.2zm-3.6-10.2c-.2-.5-.4-1-.5-1.6h-.1c-.1.6-.3 1.1-.5 1.6l-1.1 3.1h3.3l-1.1-3.1z"/></g><g><path class="st0" d="M32.2 149.2v-17h4.1v13.6h6.4v3.4H32.2zM46.1 135.4c-.7 0-2.1-1.4-2.1-2.1s1.4-2.1 2.1-2.1c.7 0 2.1 1.4 2.1 2.1s-1.4 2.1-2.1 2.1zm-1.9 13.8v-12.1h3.9v12.1h-3.9zM59.1 133.7c-.5-.2-1.1-.3-1.6-.3-1.4 0-2.2.9-2.2 2.6v1.1h3.5l-.8 3.2h-2.7v8.9h-3.8v-8.9h-1.8v-3.2h1.8v-1.4c0-3.7 2.4-5.5 5.4-5.5 1.1 0 2.2.1 2.9.4l-.7 3.1zM70.9 142.4l-1.7 1.8h-5.9c.2 1 1.5 2.1 3.6 2.1 1.3 0 2.5-.4 3.3-.9l-.4 3.4c-.9.5-2.3.8-3.8.8-3.7 0-6.6-2.6-6.6-6.5s2.8-6.4 6.3-6.4c3.4 0 5.4 2.3 5.4 4.8-.1.3-.1.7-.2.9zm-5.3-2.8c-1.1 0-2.1.9-2.3 2h4.1v-.3c0-.8-.8-1.7-1.8-1.7zM81 135.4c-.7 0-2.1-1.4-2.1-2.1s1.4-2.1 2.1-2.1c.7 0 2.1 1.4 2.1 2.1s-1.4 2.1-2.1 2.1zm-2 13.8v-12.1h4v12.1h-4zM93.1 149.2v-7.4c0-.9-.6-1.7-1.8-1.7-1.2 0-1.9.7-1.9 1.7v7.4h-3.9v-12.1h3.6v1.6c.5-1.3 1.7-2 3.7-2 2.6 0 4.2 1.5 4.2 4v8.4h-3.9zM103.4 149.4c-1.7 0-2.9-.3-3.8-.9l-.3-3.5c1.1.7 2.5 1.3 3.8 1.3.7 0 1.2-.4 1.2-.8 0-.5-.4-.7-1.1-.9-2.3-.7-3.7-1.8-3.7-3.9 0-2.4 1.9-3.9 4.5-3.9 1.5 0 3 .4 3.6.7l-.7 2.9c-.6-.3-1.5-.7-2.5-.7-.6 0-1.1.3-1.1.8s.3.7 1.1.9c2.7.7 3.8 2.1 3.8 4.1-.1 2.1-1.6 3.9-4.8 3.9zM118 149.2v-1.7c-.5 1.3-1.8 2-3.7 2-2.6 0-4.2-1.5-4.2-4v-8.4h3.9v7.4c0 .9.6 1.7 1.8 1.7 1.2 0 1.9-.8 1.9-1.7v-7.3h3.9v12.1H118zM131.6 141.2c-.2-.1-.8-.3-1.2-.3-1.3 0-2.4.7-2.4 2.6v5.6h-3.9V137h3.9v2.7c.4-1.9 1.8-2.9 3.4-2.9.4 0 .8.1 1.1.2l-.9 4.2zM142.3 149.7c-.7-.2-1.5-.7-1.9-1.6-.5 1-1.7 1.5-3.1 1.5-2.1 0-4-1.5-4-4 0-2.2 1.7-3.7 4.1-3.9l2.4-.2v-.5c0-.7-.6-1.2-1.9-1.2-1.2 0-2.5.4-3.4.9l-.7-3c1-.6 2.6-1.1 4.2-1.1 3.2 0 5.5 1.5 5.5 4.4v3.9c0 1.4.5 2.2 1.5 2.5l-2.7 2.3zm-2.5-5.8l-1.5.1c-1 .1-1.5.8-1.5 1.5 0 .6.5 1.2 1.2 1.2.9 0 1.7-.7 1.7-1.8v-1zM154 149.2v-7.4c0-.9-.6-1.7-1.8-1.7-1.2 0-1.9.7-1.9 1.7v7.4h-3.9v-12.1h3.6v1.6c.5-1.3 1.7-2 3.7-2 2.6 0 4.2 1.5 4.2 4v8.4H154zM169.5 141c-.8-.5-1.6-.8-2.6-.8-1.7 0-3.1 1.2-3.1 3 0 1.7 1.4 3 3.1 3 1 0 1.8-.2 2.6-.7l-.3 3.3c-.8.4-1.8.6-3 .6-3.4 0-6.5-2.4-6.5-6.3s3.2-6.3 6.4-6.3c1.6 0 2.9.3 4 .9l-.6 3.3zM183 142.4l-1.7 1.8h-5.9c.2 1 1.5 2.1 3.6 2.1 1.3 0 2.5-.4 3.3-.9l-.4 3.4c-.9.5-2.3.8-3.8.8-3.7 0-6.6-2.6-6.6-6.5s2.8-6.4 6.3-6.4c3.4 0 5.4 2.3 5.4 4.8-.1.3-.2.7-.2.9zm-5.3-2.8c-1.1 0-2.1.9-2.3 2h4.1v-.3c-.1-.8-.8-1.7-1.8-1.7zM186.6 149.5c-.7 0-2.2-1.5-2.2-2.2 0-.7 1.5-2.2 2.2-2.2.7 0 2.2 1.5 2.2 2.2 0 .7-1.5 2.2-2.2 2.2z"/></g></svg>