<svg id="Layer_1" xmlns="http://www.w3.org/2000/svg" viewBox="0 0 300 600"><style>.st0{fill:#f9e038}</style><path class="st0" d="M43.6 62.7H41l-2.5-7.5c-.4-1.1-.7-2.3-1.1-3.8h-.1c-.4 1.5-.7 2.7-1.1 3.8l-2.5 7.5h-2.6l-5.7-17.1h4l2.2 6.9c.3 1 .7 2.1.9 3.4h.1c.2-1.3.6-2.3.9-3.4l2.2-6.9h3.5l2.2 6.9c.3 1 .6 2.2.9 3.4h.1c.2-1.2.6-2.5.9-3.4l2.3-6.9h3.6l-5.6 17.1zM58.4 62.6v-7.4c0-.9-.6-1.7-1.8-1.7-1.2 0-1.9.7-1.9 1.7v7.4h-3.9v-19h3.9v8c.6-.9 1.7-1.5 3.4-1.5 2.7 0 4.2 1.5 4.2 4.1v8.4h-3.9zM71.7 61.4c-1.8 4.9-3.8 6.6-6 7.5l-2.4-2.4c1.9-.7 3.4-2.2 4.4-4.7l-4.3-11.3h3.8l1.8 4.7c.3.7.5 1.5.7 2.4h.1c.2-.8.5-1.7.8-2.4l1.8-4.7H76l-4.3 10.9zM92.4 62.6v-1.5c-.7 1.2-2.1 1.8-3.7 1.8-3 0-5.8-2.2-5.8-6.4 0-3.9 2.8-6.4 6.1-6.4 1.3 0 2.6.4 3.1.8v-7.4h3.8v19h-3.5zm-.4-7.9c-.4-.5-1.2-1.1-2.4-1.1-1.7 0-2.9 1.3-2.9 3.1 0 1.7 1.2 3.1 2.9 3.1 1.1 0 1.9-.6 2.4-1.3v-3.8zM104.4 63c-3.7 0-6.6-2.6-6.6-6.4s2.9-6.4 6.6-6.4c3.6 0 6.6 2.6 6.6 6.4s-3 6.4-6.6 6.4zm0-9.4c-1.5 0-2.7 1.3-2.7 3.1s1.3 3.1 2.7 3.1c1.4 0 2.7-1.3 2.7-3.1 0-1.9-1.3-3.1-2.7-3.1zM124 55.9l-1.7 1.8h-5.9c.2 1 1.5 2.1 3.6 2.1 1.3 0 2.5-.4 3.3-.9l-.4 3.4c-.9.5-2.3.8-3.8.8-3.7 0-6.6-2.6-6.6-6.5s2.8-6.4 6.3-6.4c3.4 0 5.4 2.3 5.4 4.8-.1.3-.2.7-.2.9zm-5.3-2.8c-1.1 0-2.1.9-2.3 2h4.1v-.3c-.1-.8-.8-1.7-1.8-1.7zM129.9 62.9c-1.7 0-2.9-.3-3.8-.9l-.3-3.5c1.1.7 2.5 1.3 3.8 1.3.7 0 1.2-.4 1.2-.8 0-.5-.4-.7-1.1-.9-2.3-.7-3.7-1.8-3.7-3.9 0-2.4 1.9-3.9 4.5-3.9 1.5 0 3 .4 3.6.7l-.7 2.9c-.6-.3-1.5-.7-2.5-.7-.6 0-1.1.3-1.1.8s.3.7 1.1.9c2.7.7 3.8 2.1 3.8 4.1-.1 2-1.6 3.9-4.8 3.9zM150.5 49v13.6h-4.1V49h-4.9v-3.4h13.9V49h-4.9zM157.1 62.6v-17h4.1v17h-4.1zM175 62.6l-1.4-3.8h-5.4l-1.4 3.8h-3.9l6.7-17.2h2.9l6.7 17.2H175zm-3.6-10.2c-.2-.5-.4-1-.5-1.6h-.1c-.1.6-.3 1.1-.5 1.6l-1.1 3.1h3.3l-1.1-3.1zM192.3 62.6l-1.4-3.8h-5.4l-1.4 3.8h-3.9l6.7-17.2h2.9l6.7 17.2h-4.2zm-3.6-10.2c-.2-.5-.4-1-.5-1.6h-.1c-.1.6-.3 1.1-.5 1.6l-1.1 3.1h3.3l-1.1-3.1zM204.1 62.6v-17h4.1v13.6h6.4v3.4h-10.5zM218 48.9c-.7 0-2.1-1.4-2.1-2.1 0-.7 1.4-2.1 2.1-2.1.7 0 2.1 1.4 2.1 2.1 0 .7-1.4 2.1-2.1 2.1zm-1.9 13.7v-12h3.9v12.1h-3.9zM231 47.1c-.5-.2-1.1-.3-1.6-.3-1.4 0-2.2.9-2.2 2.6v1.1h3.5l-.8 3.2h-2.7v8.9h-3.8v-8.9h-1.8v-3.2h1.8v-1.4c0-3.7 2.4-5.5 5.4-5.5 1.1 0 2.2.1 2.9.4l-.7 3.1zM242.8 55.9l-1.7 1.8h-5.9c.2 1 1.5 2.1 3.6 2.1 1.3 0 2.5-.4 3.3-.9l-.4 3.4c-.9.5-2.3.8-3.8.8-3.7 0-6.6-2.6-6.6-6.5s2.8-6.4 6.3-6.4c3.4 0 5.4 2.3 5.4 4.8-.1.3-.1.7-.2.9zm-5.3-2.8c-1.1 0-2.1.9-2.3 2h4.1v-.3c0-.8-.7-1.7-1.8-1.7z"/><g><path class="st0" d="M31.7 99.9c-3.5 0-5.9-2-5.9-4.5 0-1.8 1.2-2.9 2.5-3.3l-1.5-1.5c.1-.8.8-1.4 1.5-1.7-.9-.6-1.8-1.7-1.8-3.2 0-2.6 1.8-4.3 5-4.3.7 0 1.3.1 1.8.2s1.1.2 1.7.2c.7 0 1.4-.2 1.9-.4l.7 3c-.4.2-1 .4-1.5.4.1.2.3.8.3 1.2 0 2-1.6 3.7-3.9 3.9-.5 0-.8.1-.8.5 0 .1.1.3.3.4l1.9.7c2.4.9 3.7 2.1 3.7 4.3-.1 2.3-2.3 4.1-5.9 4.1zm.9-5.7l-1.4-.4c-.9 0-1.6.7-1.6 1.6 0 .8.7 1.5 2.1 1.5 1.4 0 2.1-.6 2.1-1.3 0-.6-.5-1.2-1.2-1.4zm-1.1-10.1c-.9 0-1.5.7-1.5 1.4 0 .8.7 1.4 1.5 1.4.9 0 1.5-.6 1.5-1.4.1-.7-.6-1.4-1.5-1.4zM50.1 87l-1.7 1.8h-5.9c.2 1 1.5 2.1 3.6 2.1 1.3 0 2.5-.4 3.3-.9l-.4 3.4c-.9.5-2.3.8-3.8.8-3.7 0-6.6-2.6-6.6-6.5s2.8-6.4 6.3-6.4c3.4 0 5.4 2.3 5.4 4.8-.1.3-.1.7-.2.9zm-5.3-2.8c-1.1 0-2.1.9-2.3 2h4.1v-.3c0-.8-.7-1.7-1.8-1.7zM60.3 84.9h-3.1v4.5c0 1 .6 1.5 1.6 1.5.5 0 .7 0 1-.2l-.3 3c-.4.2-1 .3-1.8.3-2.7 0-4.3-1.4-4.3-3.8V85h-2v-3.2h2v-2.6l3.9-1.4v4h3.9l-.9 3.1zM70.2 84.4c-.6 0-2.2-1.4-2.2-2.2 0-1.7 1.6-4.4 3.2-5.8l1.2.2c-.9 1-1.6 2.6-1.8 3.8.7.1 1.8 1.3 1.8 1.9 0 .7-1.5 2.1-2.2 2.1zm5.5 0c-.6 0-2.2-1.4-2.2-2.2 0-1.7 1.6-4.4 3.2-5.8l1.2.2c-.9 1-1.6 2.6-1.8 3.8.7.1 1.8 1.3 1.8 1.9 0 .7-1.5 2.1-2.2 2.1zM88.6 84.9h-3.1v4.5c0 1 .6 1.5 1.6 1.5.5 0 .7 0 1-.2l-.3 3c-.4.2-1 .3-1.8.3-2.7 0-4.3-1.4-4.3-3.8V85h-2v-3.2h2v-2.6l3.9-1.4v4h3.9l-.9 3.1zM96.5 94.1c-3.7 0-6.6-2.6-6.6-6.4s2.9-6.4 6.6-6.4c3.6 0 6.6 2.6 6.6 6.4s-3 6.4-6.6 6.4zm0-9.4c-1.5 0-2.7 1.3-2.7 3.1s1.3 3.1 2.7 3.1c1.4 0 2.7-1.3 2.7-3.1s-1.2-3.1-2.7-3.1zM111.9 94.1c-1.3 0-2.6-.4-3.1-.8v6.6H105V81.7h3.4v1.5c.7-1.2 2.1-1.8 3.7-1.8 3 0 5.8 2.2 5.8 6.4.2 3.8-2.6 6.3-6 6.3zm-.7-9.4c-1.1 0-1.9.6-2.4 1.3v3.8c.4.5 1.2 1.1 2.4 1.1 1.7 0 2.9-1.3 2.9-3 0-1.8-1.2-3.2-2.9-3.2zM131.4 99.9c-3.5 0-5.9-2-5.9-4.5 0-1.8 1.2-2.9 2.5-3.3l-1.5-1.5c.1-.8.8-1.4 1.5-1.7-.9-.6-1.8-1.7-1.8-3.2 0-2.6 1.8-4.3 5-4.3.7 0 1.3.1 1.8.2s1.1.2 1.7.2c.7 0 1.4-.2 1.9-.4l.7 3c-.4.2-1 .4-1.5.4.1.2.3.8.3 1.2 0 2-1.6 3.7-3.9 3.9-.5 0-.8.1-.8.5 0 .1.1.3.3.4l1.9.7c2.4.9 3.7 2.1 3.7 4.3-.1 2.3-2.4 4.1-5.9 4.1zm.8-5.7l-1.4-.4c-.9 0-1.6.7-1.6 1.6 0 .8.7 1.5 2.1 1.5 1.4 0 2.1-.6 2.1-1.3 0-.6-.4-1.2-1.2-1.4zm-1.1-10.1c-.9 0-1.5.7-1.5 1.4 0 .8.7 1.4 1.5 1.4.9 0 1.5-.6 1.5-1.4.1-.7-.6-1.4-1.5-1.4zM146.3 85.8c-.2-.1-.8-.3-1.2-.3-1.3 0-2.4.7-2.4 2.6v5.6h-3.9v-12h3.9v2.7c.4-1.9 1.8-2.9 3.4-2.9.4 0 .8.1 1.1.2l-.9 4.1zM157.1 94.3c-.7-.2-1.5-.7-1.9-1.6-.5 1-1.7 1.5-3.1 1.5-2.1 0-4-1.5-4-4 0-2.2 1.7-3.7 4.1-3.9l2.4-.2v-.4c0-.7-.6-1.2-1.9-1.2-1.2 0-2.5.4-3.4.9l-.7-3c1-.6 2.6-1.1 4.2-1.1 3.2 0 5.5 1.5 5.5 4.4v3.9c0 1.4.5 2.2 1.5 2.5l-2.7 2.2zm-2.6-5.8l-1.5.1c-1 .1-1.5.8-1.5 1.5 0 .6.5 1.2 1.2 1.2.9 0 1.7-.7 1.7-1.8v-1zM170 93.8v-1.5c-.7 1.2-2.1 1.8-3.7 1.8-3 0-5.8-2.2-5.8-6.4 0-3.9 2.8-6.4 6.1-6.4 1.3 0 2.6.4 3.1.8v-7.4h3.8v19H170zm-.4-8c-.4-.5-1.2-1.1-2.4-1.1-1.7 0-2.9 1.3-2.9 3.1 0 1.7 1.2 3.1 2.9 3.1 1.1 0 1.9-.6 2.4-1.3v-3.8zM187 87l-1.7 1.8h-5.9c.2 1 1.5 2.1 3.6 2.1 1.3 0 2.5-.4 3.3-.9l-.4 3.4c-.9.5-2.3.8-3.8.8-3.7 0-6.6-2.6-6.6-6.5s2.8-6.4 6.3-6.4c3.4 0 5.4 2.3 5.4 4.8-.1.3-.1.7-.2.9zm-5.3-2.8c-1.1 0-2.1.9-2.3 2h4.1v-.3c0-.8-.7-1.7-1.8-1.7zM192.9 94c-1.7 0-2.9-.3-3.8-.9l-.3-3.5c1.1.7 2.5 1.3 3.8 1.3.7 0 1.2-.4 1.2-.8 0-.5-.4-.7-1.1-.9-2.3-.7-3.7-1.8-3.7-3.9 0-2.4 1.9-3.9 4.5-3.9 1.5 0 3 .4 3.6.7l-.7 2.9c-.6-.3-1.5-.7-2.5-.7-.6 0-1.1.3-1.1.8s.3.7 1.1.9c2.7.7 3.8 2.1 3.8 4.1-.1 2.1-1.6 3.9-4.8 3.9zM200.1 84.3l-1.2-.2c.9-1 1.6-2.6 1.8-3.8-.7-.1-1.8-1.3-1.8-1.9 0-.8 1.5-2.2 2.2-2.2.6 0 2.2 1.4 2.2 2.2 0 1.8-1.7 4.5-3.2 5.9zm5.4 0l-1.2-.2c.9-1 1.6-2.6 1.8-3.8-.7-.1-1.8-1.3-1.8-1.9 0-.8 1.5-2.2 2.2-2.2.6 0 2.2 1.4 2.2 2.2 0 1.8-1.6 4.5-3.2 5.9zM217.2 85.4c-.7.7-.9 1.4-.9 2.1 0 .4 0 .8.1 1.2L213 88c-.1-.5-.2-.9-.2-1.4 0-1.4.6-2.6 1.5-3.7.7-.7 1-1.2 1-2 0-.6-.5-1.2-1.5-1.2s-1.8.3-2.7.9l-.8-3.3c1-.6 2.3-1 3.8-1 3.1 0 5.2 1.8 5.2 4.5.2 1.6-.5 2.9-2.1 4.6zm-2.4 8.7c-.7 0-2.2-1.5-2.2-2.2 0-.7 1.5-2.2 2.2-2.2.7 0 2.2 1.5 2.2 2.2 0 .7-1.5 2.2-2.2 2.2z"/></g></svg>