<svg id="Layer_1" xmlns="http://www.w3.org/2000/svg" viewBox="0 0 300 600"><style>.st0{fill:#f9e038}</style><path class="st0" d="M38.9 62.6l-1.4-3.8h-5.4l-1.4 3.8h-3.9l6.7-17.2h2.9L43 62.6h-4.1zm-3.6-10.2c-.2-.5-.4-1-.5-1.6h-.1c-.1.6-.3 1.1-.5 1.6l-1.1 3.1h3.3l-1.1-3.1zM52.6 47.1c-.5-.2-1.1-.3-1.6-.3-1.4 0-2.2.9-2.2 2.6v1.1h3.5l-.8 3.2h-2.7v8.9H45v-8.9h-1.8v-3.2H45v-1.4c0-3.7 2.4-5.5 5.4-5.5 1.1 0 2.2.1 2.9.4l-.7 3.1zM62.5 47.1c-.5-.2-1.1-.3-1.6-.3-1.4 0-2.2.9-2.2 2.6v1.1h3.5l-.8 3.2h-2.7v8.9H55v-8.9h-1.8v-3.2H55v-1.4c0-3.7 2.4-5.5 5.4-5.5 1.1 0 2.2.1 2.9.4l-.8 3.1zM69.3 63c-3.7 0-6.6-2.6-6.6-6.4s2.9-6.4 6.6-6.4c3.6 0 6.6 2.6 6.6 6.4s-3 6.4-6.6 6.4zm0-9.4c-1.5 0-2.7 1.3-2.7 3.1s1.3 3.1 2.7 3.1c1.4 0 2.7-1.3 2.7-3.1 0-1.9-1.3-3.1-2.7-3.1zM85.3 54.7c-.2-.1-.8-.3-1.2-.3-1.3 0-2.4.7-2.4 2.6v5.6h-3.9v-12h3.9v2.7c.4-1.9 1.8-2.9 3.4-2.9.4 0 .8.1 1.1.2l-.9 4.1zM96.4 62.6v-1.5c-.7 1.2-2.1 1.8-3.7 1.8-3 0-5.8-2.2-5.8-6.4 0-3.9 2.8-6.4 6.1-6.4 1.3 0 2.6.4 3.1.8v-7.4h3.8v19h-3.5zm-.4-7.9c-.4-.5-1.2-1.1-2.4-1.1-1.7 0-2.9 1.3-2.9 3.1 0 1.7 1.2 3.1 2.9 3.1 1.1 0 1.9-.6 2.4-1.3v-3.8zM110.9 63.2c-.7-.2-1.5-.7-1.9-1.6-.5 1-1.7 1.5-3.1 1.5-2.1 0-4-1.5-4-4 0-2.2 1.7-3.7 4.1-3.9l2.4-.2v-.4c0-.7-.6-1.2-1.9-1.2-1.2 0-2.5.4-3.4.9l-.7-3c1-.6 2.6-1.1 4.2-1.1 3.2 0 5.5 1.5 5.5 4.4v3.9c0 1.4.5 2.2 1.5 2.5l-2.7 2.2zm-2.5-5.8l-1.5.1c-1 .1-1.5.8-1.5 1.5 0 .6.5 1.2 1.2 1.2.9 0 1.7-.7 1.7-1.8v-1zM120.8 63c-2.6 0-4.6-.9-5.8-1.8V43.6h3.8V51c.5-.4 1.8-.8 3-.8 3.3 0 6.1 2.4 6.1 6.2 0 3.7-2.4 6.6-7.1 6.6zm.3-9.4c-1.1 0-2 .5-2.3.9v4.6c.4.3 1.2.6 2 .6 2 0 3.3-1.4 3.3-3.1-.1-1.6-1.3-3-3-3zM131.8 48.9c-.7 0-2.1-1.4-2.1-2.1 0-.7 1.4-2.1 2.1-2.1s2.1 1.4 2.1 2.1c0 .7-1.4 2.1-2.1 2.1zm-1.9 13.7v-12h3.9v12.1h-3.9zM140.5 63.1c-2.5-.1-4.1-1.4-4.1-4.3V43.6h3.9v14.7c0 1 .6 1.5 1.6 1.6l-1.4 3.2zM145.5 48.9c-.7 0-2.1-1.4-2.1-2.1 0-.7 1.4-2.1 2.1-2.1s2.1 1.4 2.1 2.1c0 .7-1.4 2.1-2.1 2.1zm-2 13.7v-12h3.9v12.1h-3.9zM158 53.8h-3.1v4.5c0 1 .6 1.5 1.6 1.5.5 0 .7 0 1-.2l-.3 3c-.4.2-1 .3-1.8.3-2.7 0-4.3-1.4-4.3-3.8v-5.2h-2v-3.2h2V48l3.9-1.4v4h3.9l-.9 3.2zM167.9 61.4c-1.8 4.9-3.8 6.6-6 7.5l-2.4-2.4c1.9-.7 3.4-2.2 4.4-4.7l-4.3-11.3h3.8l1.8 4.7c.3.7.5 1.5.7 2.4h.1c.2-.8.5-1.7.8-2.4l1.8-4.7h3.6l-4.3 10.9zM188.1 63.2c-.7-.2-1.5-.7-1.9-1.6-.5 1-1.7 1.5-3.1 1.5-2.1 0-4-1.5-4-4 0-2.2 1.7-3.7 4.1-3.9l2.4-.2v-.4c0-.7-.6-1.2-1.9-1.2-1.2 0-2.5.4-3.4.9l-.7-3c1-.6 2.6-1.1 4.2-1.1 3.2 0 5.5 1.5 5.5 4.4v3.9c0 1.4.5 2.2 1.5 2.5l-2.7 2.2zm-2.5-5.8l-1.5.1c-1 .1-1.5.8-1.5 1.5 0 .6.5 1.2 1.2 1.2.9 0 1.7-.7 1.7-1.8v-1zM199.8 62.6v-7.4c0-.9-.6-1.7-1.8-1.7-1.2 0-1.9.7-1.9 1.7v7.4h-3.9v-12h3.6v1.6c.5-1.3 1.7-2 3.7-2 2.6 0 4.2 1.5 4.2 4.1v8.4h-3.9zM215.2 62.6v-1.5c-.7 1.2-2.1 1.8-3.7 1.8-3 0-5.8-2.2-5.8-6.4 0-3.9 2.8-6.4 6.1-6.4 1.3 0 2.6.4 3.1.8v-7.4h3.8v19h-3.5zm-.4-7.9c-.4-.5-1.2-1.1-2.4-1.1-1.7 0-2.9 1.3-2.9 3.1 0 1.7 1.2 3.1 2.9 3.1 1.1 0 1.9-.6 2.4-1.3v-3.8z"/><g><path class="st0" d="M36.2 94.3c-.7-.2-1.5-.7-1.9-1.6-.5 1-1.7 1.5-3.1 1.5-2.1 0-4-1.5-4-4 0-2.2 1.7-3.7 4.1-3.9l2.4-.2v-.4c0-.7-.6-1.2-1.9-1.2-1.2 0-2.5.4-3.4.9l-.7-3c1-.6 2.6-1.1 4.2-1.1 3.2 0 5.5 1.5 5.5 4.4v3.9c0 1.4.5 2.2 1.5 2.5l-2.7 2.2zm-2.5-5.8l-1.5.1c-1 .1-1.5.8-1.5 1.5 0 .6.5 1.2 1.2 1.2.9 0 1.7-.7 1.7-1.8v-1zM47.9 93.8v-7.4c0-.9-.6-1.7-1.8-1.7-1.2 0-1.9.7-1.9 1.7v7.4h-3.9V81.7h3.6v1.6c.5-1.3 1.7-2 3.7-2 2.6 0 4.2 1.5 4.2 4.1v8.4h-3.9zM71.3 87l-1.7 1.8h-5.9c.2 1 1.5 2.1 3.6 2.1 1.3 0 2.5-.4 3.3-.9l-.4 3.4c-.9.5-2.3.8-3.8.8-3.7 0-6.6-2.6-6.6-6.5s2.8-6.4 6.3-6.4c3.4 0 5.4 2.3 5.4 4.8-.1.3-.1.7-.2.9zM66 84.2c-1.1 0-2.1.9-2.3 2h4.1v-.3c0-.8-.7-1.7-1.8-1.7zM81.8 94.3c-.7-.2-1.5-.7-1.9-1.6-.5 1-1.7 1.5-3.1 1.5-2.1 0-4-1.5-4-4 0-2.2 1.7-3.7 4.1-3.9l2.4-.2v-.4c0-.7-.6-1.2-1.9-1.2-1.2 0-2.5.4-3.4.9l-.7-3c1-.6 2.6-1.1 4.2-1.1 3.2 0 5.5 1.5 5.5 4.4v3.9c0 1.4.5 2.2 1.5 2.5l-2.7 2.2zm-2.5-5.8l-1.5.1c-1 .1-1.5.8-1.5 1.5 0 .6.5 1.2 1.2 1.2.9 0 1.7-.7 1.7-1.8v-1zM89.7 94c-1.7 0-2.9-.3-3.8-.9l-.3-3.5c1.1.7 2.5 1.3 3.8 1.3.7 0 1.2-.4 1.2-.8 0-.5-.4-.7-1.1-.9-2.3-.7-3.7-1.8-3.7-3.9 0-2.4 1.9-3.9 4.5-3.9 1.5 0 3 .4 3.6.7l-.8 2.9c-.6-.3-1.5-.7-2.5-.7-.6 0-1.1.3-1.1.8s.3.7 1.1.9c2.7.7 3.8 2.1 3.8 4.1.1 2.1-1.4 3.9-4.7 3.9zM103.6 92.6c-1.8 4.9-3.8 6.6-6 7.5l-2.4-2.4c1.9-.7 3.4-2.2 4.4-4.7l-4.3-11.3H99l1.8 4.7c.3.7.5 1.5.7 2.4h.1c.2-.8.5-1.7.8-2.4l1.8-4.7h3.6l-4.2 10.9zM123.7 94.3c-.7-.2-1.5-.7-1.9-1.6-.5 1-1.7 1.5-3.1 1.5-2.1 0-4-1.5-4-4 0-2.2 1.7-3.7 4.1-3.9l2.4-.2v-.4c0-.7-.6-1.2-1.9-1.2-1.2 0-2.5.4-3.4.9l-.7-3c1-.6 2.6-1.1 4.2-1.1 3.2 0 5.5 1.5 5.5 4.4v3.9c0 1.4.5 2.2 1.5 2.5l-2.7 2.2zm-2.5-5.8l-1.5.1c-1 .1-1.5.8-1.5 1.5 0 .6.5 1.2 1.2 1.2.9 0 1.7-.7 1.7-1.8v-1zM134.7 94.1c-1.3 0-2.6-.4-3.1-.8v6.6h-3.8V81.7h3.4v1.5c.7-1.2 2.1-1.8 3.7-1.8 3 0 5.8 2.2 5.8 6.4.1 3.8-2.7 6.3-6 6.3zm-.7-9.4c-1.1 0-1.9.6-2.4 1.3v3.8c.4.5 1.2 1.1 2.4 1.1 1.7 0 2.9-1.3 2.9-3 0-1.8-1.2-3.2-2.9-3.2zM149.7 94.1c-1.3 0-2.6-.4-3.1-.8v6.6h-3.8V81.7h3.4v1.5c.7-1.2 2.1-1.8 3.7-1.8 3 0 5.8 2.2 5.8 6.4.1 3.8-2.7 6.3-6 6.3zm-.7-9.4c-1.1 0-1.9.6-2.4 1.3v3.8c.4.5 1.2 1.1 2.4 1.1 1.7 0 2.9-1.3 2.9-3 0-1.8-1.2-3.2-2.9-3.2zM161.9 94.2c-2.5-.1-4.1-1.4-4.1-4.3V74.8h3.9v14.7c0 1 .6 1.5 1.6 1.6l-1.4 3.1zM166.9 80c-.7 0-2.1-1.4-2.1-2.1 0-.7 1.4-2.1 2.1-2.1.7 0 2.1 1.4 2.1 2.1 0 .7-1.5 2.1-2.1 2.1zm-2 13.8V81.7h3.9v12.1h-3.9zM180.5 85.6c-.8-.5-1.6-.8-2.6-.8-1.7 0-3.1 1.2-3.1 3 0 1.7 1.4 3 3.1 3 1 0 1.8-.2 2.6-.7l-.3 3.3c-.8.4-1.8.6-3 .6-3.4 0-6.5-2.4-6.5-6.3s3.2-6.3 6.5-6.3c1.6 0 2.9.3 4 .9l-.7 3.3zM191.5 94.3c-.7-.2-1.5-.7-1.9-1.6-.5 1-1.7 1.5-3.1 1.5-2.1 0-4-1.5-4-4 0-2.2 1.7-3.7 4.1-3.9l2.4-.3v-.4c0-.7-.6-1.2-1.9-1.2-1.2 0-2.5.4-3.4.9l-.7-3c1-.6 2.6-1.1 4.2-1.1 3.2 0 5.5 1.5 5.5 4.4v3.9c0 1.4.5 2.2 1.5 2.5l-2.7 2.3zm-2.5-5.8l-1.5.1c-1 .1-1.5.8-1.5 1.5 0 .6.5 1.2 1.2 1.2.9 0 1.7-.7 1.7-1.8v-1zM203.4 84.9h-3.1v4.5c0 1 .6 1.5 1.6 1.5.5 0 .7 0 1-.2l-.3 3c-.4.2-1 .3-1.8.3-2.7 0-4.3-1.4-4.3-3.8V85h-2v-3.2h2v-2.6l3.9-1.4v4h3.9l-.9 3.1zM207.5 80c-.7 0-2.1-1.4-2.1-2.1 0-.7 1.4-2.1 2.1-2.1.7 0 2.1 1.4 2.1 2.1.1.7-1.4 2.1-2.1 2.1zm-1.9 13.8V81.7h3.9v12.1h-3.9zM218.1 94.1c-3.7 0-6.6-2.6-6.6-6.4s2.9-6.4 6.6-6.4c3.6 0 6.6 2.6 6.6 6.4s-3 6.4-6.6 6.4zm0-9.4c-1.5 0-2.7 1.3-2.7 3.1s1.3 3.1 2.7 3.1c1.4 0 2.7-1.3 2.7-3.1s-1.3-3.1-2.7-3.1zM234.2 93.8v-7.4c0-.9-.6-1.7-1.8-1.7-1.2 0-1.9.7-1.9 1.7v7.4h-3.9V81.7h3.6v1.6c.5-1.3 1.7-2 3.7-2 2.6 0 4.2 1.5 4.2 4.1v8.4h-3.9zM255 78.3c-.5-.2-1.1-.3-1.6-.3-1.4 0-2.2.9-2.2 2.6v1.1h3.5l-.8 3.2h-2.7v8.9h-3.8v-8.9h-1.8v-3.2h1.8v-1.4c0-3.7 2.4-5.5 5.4-5.5 1.1 0 2.2.1 2.9.4l-.7 3.1zM261.8 94.1c-3.7 0-6.6-2.6-6.6-6.4s2.9-6.4 6.6-6.4c3.6 0 6.6 2.6 6.6 6.4s-3 6.4-6.6 6.4zm0-9.4c-1.5 0-2.7 1.3-2.7 3.1s1.3 3.1 2.7 3.1c1.4 0 2.7-1.3 2.7-3.1s-1.3-3.1-2.7-3.1zM277.8 85.8c-.2-.1-.8-.3-1.2-.3-1.3 0-2.4.7-2.4 2.6v5.6h-3.9v-12h3.9v2.7c.4-1.9 1.8-2.9 3.4-2.9.4 0 .8.1 1.1.2l-.9 4.1z"/></g><g><path class="st0" d="M35.8 116h-3.1v4.5c0 1 .6 1.5 1.6 1.5.5 0 .7 0 1-.2l-.3 3c-.4.2-1 .3-1.8.3-2.7 0-4.3-1.4-4.3-3.8V116h-2v-3.2h2v-2.6l3.9-1.4v4h3.9l-.9 3.2zM48.7 118.2L47 120h-6c.2 1 1.5 2.1 3.6 2.1 1.3 0 2.5-.4 3.3-.9l-.4 3.4c-.9.5-2.3.8-3.8.8-3.7 0-6.6-2.6-6.6-6.5s2.8-6.4 6.3-6.4c3.4 0 5.4 2.3 5.4 4.8 0 .2-.1.6-.1.9zm-5.3-2.9c-1.1 0-2.1.9-2.3 2h4.1v-.3c-.1-.8-.8-1.7-1.8-1.7zM58.2 117c-.2-.1-.8-.3-1.2-.3-1.3 0-2.4.7-2.4 2.6v5.6h-3.9v-12.1h3.9v2.7c.4-1.9 1.8-2.9 3.4-2.9.4 0 .8.1 1.1.2l-.9 4.2zM75.4 124.9v-7.4c0-.9-.4-1.7-1.7-1.7-1.3 0-1.8.7-1.8 1.7v7.4H68v-7.4c0-.9-.4-1.7-1.7-1.7-1.3 0-1.8.7-1.8 1.7v7.4h-3.9v-12.1h3.6v1.6c.5-1.3 1.7-2 3.6-2 1.7 0 3 .7 3.6 2 .5-1.2 1.9-2 3.7-2 2.7 0 4.3 1.5 4.3 4.1v8.4h-4zM91.9 125.4c-2.5-.1-4.1-1.4-4.1-4.3v-15.2h3.9v14.7c0 1 .6 1.5 1.6 1.6l-1.4 3.2zM96.8 111.1c-.7 0-2.1-1.4-2.1-2.1 0-.7 1.4-2.1 2.1-2.1s2.1 1.4 2.1 2.1c0 .7-1.4 2.1-2.1 2.1zm-1.9 13.8v-12.1h3.9v12.1h-3.9zM109.8 109.4c-.5-.2-1.1-.3-1.6-.3-1.4 0-2.2.9-2.2 2.6v1.1h3.5l-.8 3.2H106v8.9h-3.8V116h-1.8v-3.2h1.8v-1.4c0-3.7 2.4-5.5 5.4-5.5 1.1 0 2.2.1 2.9.4l-.7 3.1zM121.6 118.2l-1.7 1.8H114c.2 1 1.5 2.1 3.6 2.1 1.3 0 2.5-.4 3.3-.9l-.4 3.4c-.9.5-2.3.8-3.8.8-3.7 0-6.6-2.6-6.6-6.5s2.8-6.4 6.3-6.4c3.4 0 5.4 2.3 5.4 4.8-.1.2-.1.6-.2.9zm-5.3-2.9c-1.1 0-2.1.9-2.3 2h4.1v-.3c0-.8-.7-1.7-1.8-1.7zM131.7 111.1c-.7 0-2.1-1.4-2.1-2.1 0-.7 1.4-2.1 2.1-2.1s2.1 1.4 2.1 2.1c0 .7-1.4 2.1-2.1 2.1zm-2 13.8v-12.1h3.9v12.1h-3.9zM143.9 124.9v-7.4c0-.9-.6-1.7-1.8-1.7-1.2 0-1.9.7-1.9 1.7v7.4h-3.9v-12.1h3.6v1.6c.5-1.3 1.7-2 3.7-2 2.6 0 4.2 1.5 4.2 4.1v8.4h-3.9zM154.1 125.1c-1.7 0-2.9-.3-3.8-.9l-.3-3.5c1.1.7 2.5 1.3 3.8 1.3.7 0 1.2-.4 1.2-.8 0-.5-.4-.7-1.1-.9-2.3-.7-3.7-1.8-3.7-3.9 0-2.4 1.9-3.9 4.5-3.9 1.5 0 3 .4 3.6.7l-.7 2.9c-.6-.3-1.5-.7-2.5-.7-.6 0-1.1.3-1.1.8s.3.7 1.1.9c2.7.7 3.8 2.1 3.8 4.1 0 2.1-1.5 3.9-4.8 3.9zM168.7 124.9v-1.7c-.5 1.3-1.8 2-3.7 2-2.6 0-4.2-1.5-4.2-4v-8.4h3.9v7.4c0 .9.6 1.7 1.8 1.7 1.2 0 1.9-.8 1.9-1.7v-7.3h3.9V125h-3.6zM182.3 117c-.2-.1-.8-.3-1.2-.3-1.3 0-2.4.7-2.4 2.6v5.6h-3.9v-12.1h3.9v2.7c.4-1.9 1.8-2.9 3.4-2.9.4 0 .8.1 1.1.2l-.9 4.2zM193 125.4c-.7-.2-1.5-.7-1.9-1.6-.5 1-1.7 1.5-3.1 1.5-2.1 0-4-1.5-4-4 0-2.2 1.7-3.7 4.1-3.9l2.4-.2v-.4c0-.7-.6-1.2-1.9-1.2-1.2 0-2.5.4-3.4.9l-.7-3c1-.6 2.6-1.1 4.2-1.1 3.2 0 5.5 1.5 5.5 4.4v3.9c0 1.4.5 2.2 1.5 2.5l-2.7 2.2zm-2.5-5.8l-1.5.1c-1 .1-1.5.8-1.5 1.5 0 .6.5 1.2 1.2 1.2.9 0 1.7-.7 1.7-1.8v-1zM204.7 124.9v-7.4c0-.9-.6-1.7-1.8-1.7-1.2 0-1.9.7-1.9 1.7v7.4h-3.9v-12.1h3.6v1.6c.5-1.3 1.7-2 3.7-2 2.6 0 4.2 1.5 4.2 4.1v8.4h-3.9zM220.2 116.7c-.8-.5-1.6-.8-2.6-.8-1.7 0-3.1 1.2-3.1 3 0 1.7 1.4 3 3.1 3 1 0 1.8-.2 2.6-.7l-.3 3.3c-.8.4-1.8.6-3 .6-3.4 0-6.5-2.4-6.5-6.3s3.2-6.3 6.5-6.3c1.6 0 2.9.3 4 .9l-.7 3.3zM233.7 118.2L232 120h-5.9c.2 1 1.5 2.1 3.6 2.1 1.3 0 2.5-.4 3.3-.9l-.4 3.4c-.9.5-2.3.8-3.8.8-3.7 0-6.6-2.6-6.6-6.5s2.8-6.4 6.3-6.4c3.4 0 5.4 2.3 5.4 4.8-.1.2-.1.6-.2.9zm-5.3-2.9c-1.1 0-2.1.9-2.3 2h4.1v-.3c0-.8-.8-1.7-1.8-1.7zM240.5 120v-2.4h26.7v2.4h-26.7z"/></g><g><path class="st0" d="M31.6 156.3c-1.7 0-2.9-.3-3.8-.9l-.3-3.5c1.1.7 2.5 1.3 3.8 1.3.7 0 1.2-.4 1.2-.8 0-.5-.4-.7-1.1-.9-2.3-.7-3.7-1.8-3.7-3.9 0-2.4 1.9-3.9 4.5-3.9 1.5 0 3 .4 3.6.7l-.7 2.9c-.6-.3-1.5-.7-2.5-.7-.6 0-1.1.3-1.1.8s.3.7 1.1.9c2.7.7 3.8 2.1 3.8 4.1 0 2-1.5 3.9-4.8 3.9zM46.8 156.5c-.7-.2-1.5-.7-1.9-1.6-.5 1-1.7 1.5-3.1 1.5-2.1 0-4-1.5-4-4 0-2.2 1.7-3.7 4.1-3.9l2.4-.2v-.4c0-.7-.6-1.2-1.9-1.2-1.2 0-2.5.4-3.4.9l-.7-3c1-.6 2.6-1.1 4.2-1.1 3.2 0 5.5 1.5 5.5 4.4v3.9c0 1.4.5 2.2 1.5 2.5l-2.7 2.2zm-2.5-5.8l-1.5.1c-1 .1-1.5.8-1.5 1.5 0 .6.5 1.2 1.2 1.2.9 0 1.7-.7 1.7-1.8v-1z"/><path class="st0" d="M57.6 154.8c-1.8 4.9-3.8 6.6-6 7.5l-2.4-2.4c1.9-.7 3.4-2.2 4.4-4.7l-4.3-11.3h3.8l1.8 4.7c.3.7.5 1.5.7 2.4h.1c.2-.8.5-1.7.8-2.4l1.8-4.7h3.6l-4.3 10.9zM66.6 156.3c-1.7 0-2.9-.3-3.8-.9l-.3-3.5c1.1.7 2.5 1.3 3.8 1.3.7 0 1.2-.4 1.2-.8 0-.5-.4-.7-1.1-.9-2.3-.7-3.7-1.8-3.7-3.9 0-2.4 1.9-3.9 4.5-3.9 1.5 0 3 .4 3.6.7l-.7 2.9c-.6-.3-1.5-.7-2.5-.7-.6 0-1.1.3-1.1.8s.3.7 1.1.9c2.7.7 3.8 2.1 3.8 4.1 0 2-1.5 3.9-4.8 3.9zM86.8 148.1c-.2-.1-.8-.3-1.2-.3-1.3 0-2.4.7-2.4 2.6v5.6h-3.9v-12.1h3.9v2.7c.4-1.9 1.8-2.9 3.4-2.9.4 0 .8.1 1.1.2l-.9 4.2zM99.9 149.3l-1.7 1.8h-5.9c.2 1 1.5 2.1 3.6 2.1 1.3 0 2.5-.4 3.3-.9l-.4 3.4c-.9.5-2.3.8-3.8.8-3.7 0-6.6-2.6-6.6-6.5s2.8-6.4 6.3-6.4c3.4 0 5.4 2.3 5.4 4.8-.1.2-.2.6-.2.9zm-5.3-2.9c-1.1 0-2.1.9-2.3 2h4.1v-.3c-.1-.8-.8-1.7-1.8-1.7zM108.1 156.1h-2.9l-4.6-12.2h3.8l1.7 4.6c.2.6.5 1.5.7 2.3h.1c.2-.8.5-1.7.7-2.3l1.7-4.6h3.6l-4.8 12.2zM116.2 142.3c-.7 0-2.1-1.4-2.1-2.1 0-.7 1.4-2.1 2.1-2.1s2.1 1.4 2.1 2.1c0 .6-1.4 2.1-2.1 2.1zm-2 13.7v-12.1h3.9V156h-3.9zM131.7 149.3L130 151h-5.9c.2 1 1.5 2.1 3.6 2.1 1.3 0 2.5-.4 3.3-.9l-.4 3.4c-.9.5-2.3.8-3.8.8-3.7 0-6.6-2.6-6.6-6.5s2.8-6.4 6.3-6.4c3.4 0 5.4 2.3 5.4 4.8-.1.3-.1.7-.2 1zm-5.3-2.9c-1.1 0-2.1.9-2.3 2h4.1v-.3c0-.8-.7-1.7-1.8-1.7zM146.6 156.1h-2.7l-1.6-4.8c-.2-.7-.5-1.6-.7-2.5h-.1c-.2.9-.4 1.8-.7 2.5l-1.6 4.8h-2.6l-4.2-12.2h3.6l1.5 4.6c.2.7.5 1.5.6 2.3h.1c.1-.7.3-1.6.6-2.3l1.5-4.6h3l1.5 4.6c.2.7.4 1.6.6 2.3h.1c.2-.8.4-1.6.6-2.3l1.5-4.6h3.3l-4.3 12.2zM155.8 156.3c-1.7 0-2.9-.3-3.8-.9l-.3-3.5c1.1.7 2.5 1.3 3.8 1.3.7 0 1.2-.4 1.2-.8 0-.5-.4-.7-1.1-.9-2.3-.7-3.7-1.8-3.7-3.9 0-2.4 1.9-3.9 4.5-3.9 1.5 0 3 .4 3.6.7l-.7 2.9c-.6-.3-1.5-.7-2.5-.7-.6 0-1.1.3-1.1.8s.3.7 1.1.9c2.7.7 3.8 2.1 3.8 4.1 0 2-1.5 3.9-4.8 3.9zM164.4 156.4c-.7 0-2.2-1.5-2.2-2.2 0-.7 1.5-2.2 2.2-2.2.7 0 2.2 1.5 2.2 2.2 0 .7-1.5 2.2-2.2 2.2zM177.5 147.8c-.8-.5-1.6-.8-2.6-.8-1.7 0-3.1 1.2-3.1 3 0 1.7 1.4 3 3.1 3 1 0 1.8-.2 2.6-.7l-.3 3.3c-.8.4-1.8.6-3 .6-3.4 0-6.5-2.4-6.5-6.3s3.2-6.3 6.5-6.3c1.6 0 2.9.3 4 .9l-.7 3.3zM185.9 156.4c-3.7 0-6.6-2.6-6.6-6.4s2.9-6.4 6.6-6.4c3.6 0 6.6 2.6 6.6 6.4s-2.9 6.4-6.6 6.4zm0-9.5c-1.5 0-2.7 1.3-2.7 3.1s1.3 3.1 2.7 3.1c1.4 0 2.7-1.3 2.7-3.1.1-1.8-1.2-3.1-2.7-3.1zM209.4 156v-7.4c0-.9-.4-1.7-1.7-1.7-1.3 0-1.8.7-1.8 1.7v7.4H202v-7.4c0-.9-.4-1.7-1.7-1.7-1.3 0-1.8.7-1.8 1.7v7.4h-3.9v-12.1h3.6v1.6c.5-1.3 1.7-2 3.6-2 1.7 0 3 .7 3.6 2 .5-1.2 1.9-2 3.7-2 2.7 0 4.3 1.5 4.3 4.1v8.4h-4z"/></g></svg>