<svg id="Layer_1" xmlns="http://www.w3.org/2000/svg" viewBox="0 0 300 600"><style>.st0{fill:#f9e038}</style><path class="st0" d="M38.9 62.6l-1.4-3.8h-5.4l-1.4 3.8h-3.9l6.7-17.2h2.9L43 62.6h-4.1zm-3.6-10.2c-.2-.5-.4-1-.5-1.6h-.1c-.1.6-.3 1.1-.5 1.6l-1.1 3.1h3.3l-1.1-3.1zM52.1 62.6v-7.4c0-.9-.6-1.7-1.8-1.7-1.2 0-1.9.7-1.9 1.7v7.4h-3.9v-12h3.6v1.6c.5-1.3 1.7-2 3.7-2 2.6 0 4.2 1.5 4.2 4.1v8.4h-3.9zM67.5 62.6v-1.5c-.7 1.2-2.1 1.8-3.7 1.8-3 0-5.8-2.2-5.8-6.4 0-3.9 2.8-6.4 6.1-6.4 1.3 0 2.6.4 3.1.8v-7.4H71v19h-3.5zm-.4-7.9c-.4-.5-1.2-1.1-2.4-1.1-1.7 0-2.9 1.3-2.9 3.1 0 1.7 1.2 3.1 2.9 3.1 1.1 0 1.9-.6 2.4-1.3v-3.8zM87.4 49v13.6h-4.1V49h-4.9v-3.4h13.9V49h-4.9zM94 62.6v-17h4.1v17H94zM111.9 62.6l-1.4-3.8h-5.4l-1.4 3.8h-3.9l6.7-17.2h2.9l6.7 17.2h-4.2zm-3.6-10.2c-.2-.5-.4-1-.5-1.6h-.1c-.1.6-.3 1.1-.5 1.6l-1.1 3.1h3.3l-1.1-3.1zM129.2 62.6l-1.4-3.8h-5.4l-1.4 3.8h-3.9l6.7-17.2h2.9l6.7 17.2h-4.2zm-3.6-10.2c-.2-.5-.4-1-.5-1.6h-.1c-.1.6-.3 1.1-.5 1.6l-1.1 3.1h3.3l-1.1-3.1zM141 62.6v-17h4.1v13.6h6.4v3.4H141zM155 48.9c-.7 0-2.1-1.4-2.1-2.1 0-.7 1.4-2.1 2.1-2.1.7 0 2.1 1.4 2.1 2.1 0 .7-1.4 2.1-2.1 2.1zm-2 13.7v-12h3.9v12.1H153zM167.9 47.1c-.5-.2-1.1-.3-1.6-.3-1.4 0-2.2.9-2.2 2.6v1.1h3.5l-.8 3.2h-2.7v8.9h-3.8v-8.9h-1.8v-3.2h1.8v-1.4c0-3.7 2.4-5.5 5.4-5.5 1.1 0 2.2.1 2.9.4l-.7 3.1zM179.8 55.9l-1.7 1.8h-5.9c.2 1 1.5 2.1 3.6 2.1 1.3 0 2.5-.4 3.3-.9l-.4 3.4c-.9.5-2.3.8-3.8.8-3.7 0-6.6-2.6-6.6-6.5s2.8-6.4 6.3-6.4c3.4 0 5.4 2.3 5.4 4.8-.1.3-.2.7-.2.9zm-5.3-2.8c-1.1 0-2.1.9-2.3 2h4.1v-.3c-.1-.8-.8-1.7-1.8-1.7z"/><g><path class="st0" d="M41 93.9h-2.7l-1.6-4.8c-.2-.7-.5-1.6-.7-2.5h-.1c-.2.9-.4 1.8-.7 2.5l-1.6 4.8H31l-4.2-12.2h3.6l1.5 4.6c.2.7.5 1.5.6 2.3h.1c.1-.7.3-1.6.6-2.3l1.5-4.6h3l1.5 4.6c.2.7.4 1.6.6 2.3h.1c.2-.8.4-1.6.6-2.3l1.5-4.6h3.3L41 93.9zM55.1 94.3c-.7-.2-1.5-.7-1.9-1.6-.5 1-1.7 1.5-3.1 1.5-2.1 0-4-1.5-4-4 0-2.2 1.7-3.7 4.1-3.9l2.4-.2v-.4c0-.7-.6-1.2-1.9-1.2-1.2 0-2.5.4-3.4.9l-.7-3c1-.6 2.6-1.1 4.2-1.1 3.2 0 5.5 1.5 5.5 4.4v3.9c0 1.4.5 2.2 1.5 2.5l-2.7 2.2zm-2.5-5.8l-1.5.1c-1 .1-1.5.8-1.5 1.5 0 .6.5 1.2 1.2 1.2.9 0 1.7-.7 1.7-1.8v-1zM63.1 94c-1.7 0-2.9-.3-3.8-.9l-.3-3.5c1.1.7 2.5 1.3 3.8 1.3.7 0 1.2-.4 1.2-.8 0-.5-.4-.7-1.1-.9-2.3-.7-3.7-1.8-3.7-3.9 0-2.4 1.9-3.9 4.5-3.9 1.5 0 3 .4 3.6.7l-.8 2.9c-.6-.3-1.5-.7-2.5-.7-.6 0-1.1.3-1.1.8s.3.7 1.1.9c2.7.7 3.8 2.1 3.8 4.1 0 2.1-1.5 3.9-4.7 3.9zM83.2 85.8c-.2-.1-.8-.3-1.2-.3-1.3 0-2.4.7-2.4 2.6v5.6h-3.9v-12h3.9v2.7c.4-1.9 1.8-2.9 3.4-2.9.4 0 .8.1 1.1.2l-.9 4.1zM93.9 94.3c-.7-.2-1.5-.7-1.9-1.6-.5 1-1.7 1.5-3.1 1.5-2.1 0-4-1.5-4-4 0-2.2 1.7-3.7 4.1-3.9l2.4-.2v-.4c0-.7-.6-1.2-1.9-1.2-1.2 0-2.5.4-3.4.9l-.7-3c1-.6 2.6-1.1 4.2-1.1 3.2 0 5.5 1.5 5.5 4.4v3.9c0 1.4.5 2.2 1.5 2.5l-2.7 2.2zm-2.5-5.8l-1.4.1c-1 .1-1.5.8-1.5 1.5 0 .6.5 1.2 1.2 1.2.9 0 1.7-.7 1.7-1.8v-1zM105.8 84.9h-3.1v4.5c0 1 .6 1.5 1.6 1.5.5 0 .7 0 1-.2l-.3 3c-.4.2-1 .3-1.8.3-2.7 0-4.3-1.4-4.3-3.8V85h-2v-3.2h2v-2.6l3.9-1.4v4h3.9l-.9 3.1zM118.7 87l-1.7 1.8h-5.9c.2 1 1.5 2.1 3.6 2.1 1.3 0 2.5-.4 3.3-.9l-.4 3.4c-.9.5-2.3.8-3.8.8-3.7 0-6.6-2.6-6.6-6.5s2.8-6.4 6.3-6.4c3.4 0 5.4 2.3 5.4 4.8-.1.3-.1.7-.2.9zm-5.3-2.8c-1.1 0-2.1.9-2.3 2h4.1v-.3c0-.8-.7-1.7-1.8-1.7zM129.8 93.8v-1.5c-.7 1.2-2.1 1.8-3.7 1.8-3 0-5.8-2.2-5.8-6.4 0-3.9 2.8-6.4 6.1-6.4 1.3 0 2.6.4 3.1.8v-7.4h3.8v19h-3.5zm-.4-8c-.4-.5-1.2-1.1-2.4-1.1-1.7 0-2.9 1.3-2.9 3.1 0 1.7 1.2 3.1 2.9 3.1 1.1 0 1.9-.6 2.4-1.3v-3.8zM152.9 93.8l-1.4-3.8h-5.4l-1.4 3.8h-3.9l6.7-17.2h2.9l6.7 17.2h-4.2zm-3.6-10.3c-.2-.5-.4-1-.5-1.6h-.1c-.1.6-.3 1.1-.5 1.6l-1.1 3.1h3.3l-1.1-3.1zM164.2 87.9v3.4H161v-3.4h-3.5v-3h3.5v-3.4h3.3v3.4h3.5v3h-3.6zM176.1 87.9v3.4h-3.3v-3.4h-3.5v-3h3.5v-3.4h3.3v3.4h3.5v3h-3.5zM193.7 94.1c-2.6 0-4.6-.9-5.8-1.8V74.8h3.8v7.3c.5-.4 1.8-.8 3-.8 3.3 0 6.1 2.4 6.1 6.2-.1 3.7-2.4 6.6-7.1 6.6zm.3-9.4c-1.1 0-2 .5-2.3.9v4.6c.4.3 1.2.6 2 .6 2 0 3.3-1.4 3.3-3.1-.1-1.6-1.3-3-3-3zM209.5 92.6c-1.8 4.9-3.8 6.6-6 7.5l-2.4-2.4c1.9-.7 3.4-2.2 4.4-4.7l-4.3-11.3h3.8l1.8 4.7c.3.7.5 1.5.7 2.4h.1c.2-.8.5-1.7.8-2.4l1.8-4.7h3.6l-4.3 10.9z"/></g><g><path class="st0" d="M38.9 124.9l-1.4-3.8h-5.4l-1.4 3.8h-3.9l6.7-17.2h2.9l6.7 17.2h-4.2zm-3.6-10.2c-.2-.5-.4-1-.5-1.6h-.1c-.1.6-.3 1.1-.5 1.6l-1.1 3.1h3.3l-1.1-3.1zM47 125.2c-.7 0-2.2-1.5-2.2-2.2 0-.7 1.5-2.2 2.2-2.2s2.2 1.5 2.2 2.2c0 .8-1.5 2.2-2.2 2.2zM67.8 124.9l-.6-6.3c-.1-.9-.2-2.1-.2-3.1-.4 1.1-1 2.2-1.4 3.2l-3.2 6.3h-1.7l-3.3-6.3c-.5-1-1-2.1-1.4-3.2h-.1c0 1.1-.1 2.2-.1 3.1l-.5 6.3h-3.8l1.5-17h3.4L60 115c.5 1 1.3 2.5 1.7 3.6.4-1.1 1.1-2.5 1.7-3.6l3.7-7.1h3.2l1.5 17h-4zM76.3 125.2c-.7 0-2.2-1.5-2.2-2.2 0-.7 1.5-2.2 2.2-2.2s2.2 1.5 2.2 2.2c0 .8-1.5 2.2-2.2 2.2zM93 124.9h-6.3v-17h5.6c2.6 0 5 1.7 5 4.5 0 1-.5 2.3-1.4 2.8 1.5.5 3 2.2 3 4.4-.1 3.3-2.7 5.3-5.9 5.3zm-1.4-14h-1.2v3.5h1.2c1 0 1.9-.5 1.9-1.7 0-1.3-.9-1.8-1.9-1.8zm.7 6.5h-1.9v4.5h1.9c1.3 0 2.5-.7 2.5-2.2 0-1.6-1.2-2.3-2.5-2.3zM111.9 118.2l-1.7 1.8h-5.9c.2 1 1.5 2.1 3.6 2.1 1.3 0 2.5-.4 3.3-.9l-.4 3.4c-.9.5-2.3.8-3.8.8-3.7 0-6.6-2.6-6.6-6.5s2.8-6.4 6.3-6.4c3.4 0 5.4 2.3 5.4 4.8 0 .2-.1.6-.2.9zm-5.3-2.9c-1.1 0-2.1.9-2.3 2h4.1v-.3c0-.8-.7-1.7-1.8-1.7zM117.8 125.1c-1.7 0-2.9-.3-3.8-.9l-.3-3.5c1.1.7 2.5 1.3 3.8 1.3.7 0 1.2-.4 1.2-.8 0-.5-.4-.7-1.1-.9-2.3-.7-3.7-1.8-3.7-3.9 0-2.4 1.9-3.9 4.5-3.9 1.5 0 3 .4 3.6.7l-.7 2.9c-.6-.3-1.5-.7-2.5-.7-.6 0-1.1.3-1.1.8s.3.7 1.1.9c2.7.7 3.8 2.1 3.8 4.1 0 2.1-1.5 3.9-4.8 3.9zM132.4 116h-3.1v4.5c0 1 .6 1.5 1.6 1.5.5 0 .7 0 1-.2l-.3 3c-.4.2-1 .3-1.8.3-2.7 0-4.3-1.4-4.3-3.8V116h-2v-3.2h2v-2.6l3.9-1.4v4h3.9l-.9 3.2zM148.9 109.4c-.5-.2-1.1-.3-1.6-.3-1.4 0-2.2.9-2.2 2.6v1.1h3.5l-.8 3.2h-2.7v8.9h-3.8V116h-1.8v-3.2h1.8v-1.4c0-3.7 2.4-5.5 5.4-5.5 1.1 0 2.2.1 2.9.4l-.7 3.1zM155.7 125.2c-3.7 0-6.6-2.6-6.6-6.4s2.9-6.4 6.6-6.4c3.6 0 6.6 2.6 6.6 6.4s-3 6.4-6.6 6.4zm0-9.4c-1.5 0-2.7 1.3-2.7 3.1s1.3 3.1 2.7 3.1c1.4 0 2.7-1.3 2.7-3.1s-1.3-3.1-2.7-3.1zM171.7 117c-.2-.1-.8-.3-1.2-.3-1.3 0-2.4.7-2.4 2.6v5.6h-3.9v-12.1h3.9v2.7c.4-1.9 1.8-2.9 3.4-2.9.4 0 .8.1 1.1.2l-.9 4.2z"/></g><g><path class="st0" d="M36.1 140.5c-.5-.2-1.1-.3-1.6-.3-1.4 0-2.2.9-2.2 2.6v1.1h3.5l-.8 3.2h-2.7v8.9h-3.8v-8.9h-1.8v-3.2h1.8v-1.4c0-3.7 2.4-5.5 5.4-5.5 1.1 0 2.2.1 2.9.4l-.7 3.1zM39.5 142.3c-.7 0-2.1-1.4-2.1-2.1 0-.7 1.4-2.1 2.1-2.1s2.1 1.4 2.1 2.1c0 .6-1.4 2.1-2.1 2.1zm-2 13.7v-12.1h3.9V156h-3.9zM51.7 156v-7.4c0-.9-.6-1.7-1.8-1.7-1.2 0-1.9.7-1.9 1.7v7.4h-4v-12.1h3.6v1.6c.5-1.3 1.7-2 3.7-2 2.6 0 4.2 1.5 4.2 4.1v8.4h-3.8zM66.5 156.5c-.7-.2-1.5-.7-1.9-1.6-.5 1-1.7 1.5-3.1 1.5-2.1 0-4-1.5-4-4 0-2.2 1.7-3.7 4.1-3.9l2.4-.2v-.4c0-.7-.6-1.2-1.9-1.2-1.2 0-2.5.4-3.4.9l-.7-3c1-.6 2.6-1.1 4.2-1.1 3.2 0 5.5 1.5 5.5 4.4v3.9c0 1.4.5 2.2 1.5 2.5l-2.7 2.2zm-2.5-5.8l-1.5.1c-1 .1-1.5.8-1.5 1.5 0 .6.5 1.2 1.2 1.2.9 0 1.7-.7 1.7-1.8v-1zM78.2 156v-7.4c0-.9-.6-1.7-1.8-1.7-1.2 0-1.9.7-1.9 1.7v7.4h-3.9v-12.1h3.6v1.6c.5-1.3 1.7-2 3.7-2 2.6 0 4.2 1.5 4.2 4.1v8.4h-3.9zM93.7 147.8c-.8-.5-1.6-.8-2.6-.8-1.7 0-3.1 1.2-3.1 3 0 1.7 1.4 3 3.1 3 1 0 1.8-.2 2.6-.7l-.3 3.3c-.8.4-1.8.6-3 .6-3.4 0-6.5-2.4-6.5-6.3s3.2-6.3 6.5-6.3c1.6 0 2.9.3 4 .9l-.7 3.3zM98.4 142.3c-.7 0-2.1-1.4-2.1-2.1 0-.7 1.4-2.1 2.1-2.1s2.1 1.4 2.1 2.1c0 .6-1.4 2.1-2.1 2.1zm-2 13.7v-12.1h3.9V156h-3.9zM111.4 156.5c-.7-.2-1.5-.7-1.9-1.6-.5 1-1.7 1.5-3.1 1.5-2.1 0-4-1.5-4-4 0-2.2 1.7-3.7 4.1-3.9l2.4-.2v-.4c0-.7-.6-1.2-1.9-1.2-1.2 0-2.5.4-3.4.9l-.7-3c1-.6 2.6-1.1 4.2-1.1 3.2 0 5.5 1.5 5.5 4.4v3.9c0 1.4.5 2.2 1.5 2.5l-2.7 2.2zm-2.5-5.8l-1.5.1c-1 .1-1.5.8-1.5 1.5 0 .6.5 1.2 1.2 1.2.9 0 1.7-.7 1.7-1.8v-1zM119.5 156.5c-2.5-.1-4.1-1.4-4.1-4.3V137h3.9v14.7c0 1 .6 1.5 1.6 1.6l-1.4 3.2zM132.5 156.3c-1.7 0-2.9-.3-3.8-.9l-.3-3.5c1.1.7 2.5 1.3 3.8 1.3.7 0 1.2-.4 1.2-.8 0-.5-.4-.7-1.1-.9-2.3-.7-3.7-1.8-3.7-3.9 0-2.4 1.9-3.9 4.5-3.9 1.5 0 3 .4 3.6.7l-.7 2.9c-.6-.3-1.5-.7-2.5-.7-.6 0-1.1.3-1.1.8s.3.7 1.1.9c2.7.7 3.8 2.1 3.8 4.1-.1 2-1.6 3.9-4.8 3.9zM147 147.1h-3.1v4.5c0 1 .6 1.5 1.6 1.5.5 0 .7 0 1-.2l-.3 3c-.4.2-1 .3-1.8.3-2.7 0-4.3-1.4-4.3-3.8v-5.2h-2V144h2v-2.6l3.9-1.4v4h3.9l-.9 3.1zM156.6 148.1c-.2-.1-.8-.3-1.2-.3-1.3 0-2.4.7-2.4 2.6v5.6h-3.9v-12.1h3.9v2.7c.4-1.9 1.8-2.9 3.4-2.9.4 0 .8.1 1.1.2l-.9 4.2zM169.7 149.3L168 151h-5.9c.2 1 1.5 2.1 3.6 2.1 1.3 0 2.5-.4 3.3-.9l-.4 3.4c-.9.5-2.3.8-3.8.8-3.7 0-6.6-2.6-6.6-6.5s2.8-6.4 6.3-6.4c3.4 0 5.4 2.3 5.4 4.8-.1.3-.1.7-.2 1zm-5.3-2.9c-1.1 0-2.1.9-2.3 2h4.1v-.3c0-.8-.8-1.7-1.8-1.7zM179.4 156v-7.4c0-.9-.6-1.7-1.8-1.7-1.2 0-1.9.7-1.9 1.7v7.4h-3.9v-12.1h3.6v1.6c.5-1.3 1.7-2 3.7-2 2.6 0 4.2 1.5 4.2 4.1v8.4h-3.9zM190.9 162.2c-3.5 0-5.9-2-5.9-4.5 0-1.8 1.2-2.9 2.5-3.3l-1.5-1.5c.1-.8.8-1.4 1.5-1.7-.9-.6-1.8-1.7-1.8-3.2 0-2.6 1.8-4.3 5-4.3.7 0 1.3.1 1.8.2s1.1.2 1.7.2c.7 0 1.4-.2 1.9-.4l.7 3c-.4.2-1 .4-1.5.4.1.2.3.8.3 1.2 0 2-1.6 3.7-3.9 3.9-.5 0-.8.1-.8.5 0 .1.1.3.3.4l1.9.7c2.4.9 3.7 2.1 3.7 4.3-.2 2.2-2.4 4.1-5.9 4.1zm.8-5.7l-1.4-.4c-.9 0-1.6.7-1.6 1.6 0 .8.7 1.5 2.1 1.5 1.4 0 2.1-.6 2.1-1.3 0-.6-.4-1.2-1.2-1.4zm-1.1-10.1c-.9 0-1.5.7-1.5 1.4 0 .8.7 1.4 1.5 1.4.9 0 1.5-.6 1.5-1.4.1-.8-.6-1.4-1.5-1.4zM206.7 147.1h-3.1v4.5c0 1 .6 1.5 1.6 1.5.5 0 .7 0 1-.2l-.3 3c-.4.2-1 .3-1.8.3-2.7 0-4.3-1.4-4.3-3.8v-5.2h-2V144h2v-2.6l3.9-1.4v4h3.9l-.9 3.1zM216.5 156v-7.4c0-.9-.6-1.7-1.8-1.7-1.2 0-1.9.7-1.9 1.7v7.4h-3.9v-19h3.9v8c.6-.9 1.7-1.5 3.4-1.5 2.7 0 4.2 1.5 4.2 4.1v8.4h-3.9z"/></g></svg>