<svg id="Layer_1" xmlns="http://www.w3.org/2000/svg" xmlns:xlink="http://www.w3.org/1999/xlink" viewBox="0 0 300 600"><style>.st0{clip-path:url(#SVGID_2_);fill:#fff}.st1{clip-path:url(#SVGID_4_);fill:url(#SVGID_5_)}.st2{clip-path:url(#SVGID_7_);fill:url(#SVGID_8_)}.st3{clip-path:url(#SVGID_10_);fill:url(#SVGID_11_)}.st4{clip-path:url(#SVGID_13_);fill:url(#SVGID_14_)}.st5{clip-path:url(#SVGID_16_);fill:url(#SVGID_17_)}.st6{fill:#626366}.st7{fill:#404041}.st8{fill:#808184}.st9{fill:#231f20}.st10,.st11,.st12,.st13{clip-path:url(#SVGID_19_);fill:#404041}.st11,.st12,.st13{fill:#eaebec}.st12,.st13{fill:#dbdcdd}.st13{fill:#fff}.st14{clip-path:url(#SVGID_21_);fill:url(#SVGID_22_)}.st15{fill:#005494}.st16{fill:#0081bd}.st17{fill:#fff}</style><defs><path id="SVGID_1_" d="M43.6 193.6h212.7v212.7H43.6z"/></defs><clipPath id="SVGID_2_"><use xlink:href="#SVGID_1_" overflow="visible"/></clipPath><path class="st0" d="M130.3 193.6c-15.9 0-30.8 6.2-42.2 17.6-11.3 11.3-17.6 26.2-17.6 42v126.5h126.3c33 0 59.8-26.8 59.8-59.8V193.6H130.3z"/><defs><path id="SVGID_3_" d="M196.8 379.7H70.5l-26.6 26.6h135.2c10.8-1.2 20.4-6 27.8-13.1l19.8-19.8-1.1-1.1c-8.6 4.8-18.4 7.4-28.8 7.4"/></defs><clipPath id="SVGID_4_"><use xlink:href="#SVGID_3_" overflow="visible"/></clipPath><linearGradient id="SVGID_5_" gradientUnits="userSpaceOnUse" x1="1.656" y1="600.591" x2="2.767" y2="600.591" gradientTransform="matrix(0 -30.9599 -30.9599 0 18729.48 458.19)"><stop offset="0" stop-color="#10b0e6"/><stop offset=".159" stop-color="#0faae1"/><stop offset=".368" stop-color="#0c9ad2"/><stop offset=".604" stop-color="#077fba"/><stop offset=".858" stop-color="#015999"/><stop offset=".89" stop-color="#005494"/><stop offset="1" stop-color="#005494"/></linearGradient><path class="st1" d="M43.9 372.4h182.7v34H43.9z"/><defs><path id="SVGID_6_" d="M57 243.4c-8.3 8.5-13.4 20.1-13.4 32.9v130h.3l26.6-26.6V253.2c0-10.1 2.6-19.8 7.4-28.4l-1.1-1.1L57 243.4z"/></defs><clipPath id="SVGID_7_"><use xlink:href="#SVGID_6_" overflow="visible"/></clipPath><linearGradient id="SVGID_8_" gradientUnits="userSpaceOnUse" x1="1.122" y1="600.969" x2="2.233" y2="600.969" gradientTransform="matrix(0 -165.4063 -165.4063 0 99464.836 593.718)"><stop offset="0" stop-color="#0081bd"/><stop offset=".393" stop-color="#006fac"/><stop offset=".85" stop-color="#005494"/><stop offset="1" stop-color="#005494"/></linearGradient><path class="st2" d="M43.6 223.7h34.3v182.7H43.6z"/><defs><path id="SVGID_9_" d="M196.8 379.7H70.5l-26.6 26.6h135.2c10.8-1.2 20.4-6 27.8-13.1l19.8-19.8-1.1-1.1c-8.6 4.8-18.4 7.4-28.8 7.4"/></defs><clipPath id="SVGID_10_"><use xlink:href="#SVGID_9_" overflow="visible"/></clipPath><linearGradient id="SVGID_11_" gradientUnits="userSpaceOnUse" x1="1.021" y1="601.136" x2="2.132" y2="601.136" gradientTransform="matrix(162.8983 0 0 -162.8983 -122.025 98313.422)"><stop offset="0" stop-color="#10b0e6"/><stop offset=".161" stop-color="#0faae1"/><stop offset=".372" stop-color="#0c9ad2"/><stop offset=".61" stop-color="#077fba"/><stop offset=".867" stop-color="#015999"/><stop offset=".9" stop-color="#005494"/><stop offset="1" stop-color="#005494"/></linearGradient><path class="st3" d="M43.9 372.4h182.7v34H43.9z"/><defs><path id="SVGID_12_" d="M57 243.4c-8.3 8.5-13.4 20.1-13.4 32.9v130h.3l26.6-26.6V253.2c0-10.1 2.6-19.8 7.4-28.4l-1.1-1.1L57 243.4z"/></defs><clipPath id="SVGID_13_"><use xlink:href="#SVGID_12_" overflow="visible"/></clipPath><linearGradient id="SVGID_14_" gradientUnits="userSpaceOnUse" x1="1.122" y1="600.969" x2="2.233" y2="600.969" gradientTransform="matrix(0 -165.4063 -165.4063 0 99464.836 593.718)"><stop offset="0" stop-color="#0081bd"/><stop offset=".393" stop-color="#006fac"/><stop offset=".85" stop-color="#005494"/><stop offset="1" stop-color="#005494"/></linearGradient><path class="st4" d="M43.6 223.7h34.3v182.7H43.6z"/><g><defs><path id="SVGID_15_" d="M130.3 201.2c-28.6 0-52.2 23.7-52.2 52v118.9h118.7c28.8 0 52.2-23.4 52.2-52.2V201.2H130.3z"/></defs><clipPath id="SVGID_16_"><use xlink:href="#SVGID_15_" overflow="visible"/></clipPath><linearGradient id="SVGID_17_" gradientUnits="userSpaceOnUse" x1="1.1" y1="601.055" x2="2.211" y2="601.055" gradientTransform="scale(217.0292 -217.0292) rotate(45 728.336 298.781)"><stop offset="0" stop-color="#9cdbf8"/><stop offset="1" stop-color="#0088cf"/></linearGradient><path class="st5" d="M-7.3 286.7l170.9-170.9 170.9 170.9-170.9 170.9z"/></g><path class="st6" d="M223.1 341h-71l-15.7 15.6h71z"/><path class="st7" d="M219.4 353.1l-65.5.1-13.6 13.6h65.4z"/><path class="st8" d="M153.9 343h65.4v10.2h-65.4z"/><path class="st9" d="M136.4 346.5v10.1l15.7-15.7.8-10.9z"/><g><defs><path id="SVGID_18_" d="M43.6 193.6h212.7v212.7H43.6z"/></defs><clipPath id="SVGID_19_"><use xlink:href="#SVGID_18_" overflow="visible"/></clipPath><path class="st10" d="M223.1 331.8c0-1.4-1.1-2.5-2.5-2.5h-65.9c-1.4 0-2.5 1.1-2.5 2.5v9.2h71v-9.2z"/><path class="st11" d="M92.8 347.2l.5 9 39.1-2.7-.5-9.1z"/><path class="st12" d="M93.2 353.8l.1 2.4 39.1-2.7-.1-2.4z"/><path class="st13" d="M132.4 353.5c-.7 0-1.4-2-1.5-4.5-.2-2.5.3-4.6 1-4.6s1.4 2 1.5 4.5c.2 2.5-.3 4.5-1 4.6"/></g><g><defs><path id="SVGID_20_" d="M86.2 364.1l-15.7 15.6h149.8l15.7-15.6z"/></defs><clipPath id="SVGID_21_"><use xlink:href="#SVGID_20_" overflow="visible"/></clipPath><linearGradient id="SVGID_22_" gradientUnits="userSpaceOnUse" x1="1.034" y1="601.136" x2="2.146" y2="601.136" gradientTransform="matrix(175.2078 0 0 -175.2078 -111.001 105695.594)"><stop offset="0" stop-color="#10b0e6"/><stop offset=".087" stop-color="#10b0e6"/><stop offset=".322" stop-color="#0d9dd5"/><stop offset=".796" stop-color="#046ba9"/><stop offset="1" stop-color="#005494"/></linearGradient><path class="st14" d="M70.5 364.1H236v15.7H70.5z"/></g><path class="st15" d="M86.2 352.4H236v11.7H86.2z"/><path class="st16" d="M86.2 352.4l-15.7 15.7v11.7l15.7-15.7z"/><g><path class="st17" d="M115.7 225.3h.2c0 .5.1.7.4.7l1.6-.1c0-.4.2-.6.5-.6.3.1.5.2.6.2l-.2.4h.2c.6-.4 1.1-.6 1.7-.7v.6c-.5 0-.8.2-.8.4v.2c.7 0 1.6.2 2.9.7l2.4-.1c.2 0 .4-.2.6-.6.4.2.8.4 1.2.7l2.6-.5h.5c1.3.4 2 .8 2 1-.2 0-.4.2-.8.7v.2l.2.9.9-.2 1.2.7c.2.7.2 1 .2 1.1-.2.1-.4.2-.4.4l.8.9-.7 1.5v.2h.2l.7-.6.2.4v.4l-.8.8c.1.2.2.5.3.7-.4.1-.6.6-.5 1.5.2 1 1.1 1.4 2.6 1.4.7.6 1 1.1 1 1.6-.7.4-1 .7-1.1 1.1 1 .5 1.5.7 1.7.7v.2c0 .2-.2.4-.7.4l.2 1.3v.4c0 .2-.1.4-.4.4l.2.4v.2c0 .3-.1.7-.3 1.1.5 0 .8.2.8.7h.4l.7-.8h.2c.3 0 .4.2.4.5-.1.9-.3 1.3-.5 1.3l.2.4v.4c0 .2-.1.4-.4.4l.4 1.3-.2.4.4 2 .4-.2h.4v.5c-.4 0-.6.2-.6.6 0 .2.4.6 1.2 1.3 0 .2-.8.6-2.4 1.2-.6.9-.9 1.5-.9 1.7l.2.4c-.1.5-.2.7-.3.7.1.2.2.4.2.6-.2.5-.3.7-.5.7-.4-.4-.7-.7-.7-.9.1-.2.2-.4.2-.5-.2 0-.4-.2-.6-.5.2 0 .4-.2.3-.4 0-.2-.4-.3-1.1-.3v-.7c.7-.6 1-1.2 1.1-1.7 1-.4 1.7-.9 2-1.4v-.2c-.3 0-.5-.1-.8-.5-.8.8-1.4 1.2-2 1.4 0 .4-.1.5-.5.6v.4l.4.5c-.3.6-.6.9-.7.9 0 .8.5 1.4 1.4 2v.4l-2.4.9-.6-.3c-2 .3-3.2.6-3.5.9h-.2c-.1 0-.2-.1-.2-.2l-.4.2-1.1-.1c0 .2-.2.4-.5.6 0-.1-.1-.6-.4-1.4v-.2l.2-.4c-.1 0-.2-.1-.2-.2 1.3-1.1 1.9-1.8 1.8-2l-.4-.2h-.4l-.6.4h-.2c-.2 0-.4-.1-.4-.4.2 0 .4-.1.4-.4-.1 0-.2-.1-.2-.2l.4-.2-.2-.3v-.4l.1-.9c-.1 0-.2-.1-.2-.2l.4-.2-.2-.4v-.4c-.1-.9.4-1.3 1.3-1.3v-.2l-.4-.2.2-.4v-.4l-1-.1-.2-.3c-.8.3-1.3.4-1.6.4l-.2-1.1c.1-.5.5-1 1.2-1.8 0 .1.1.2.2.2 0-.3.1-.6.3-.9-.3 0-.5-.1-.8-.2 0 .2-.1.4-.4.4h-.4c-.2 0-.4-.1-.4-.4l-.1-1.1c.2-.5.6-.7.9-.8l-1.4-1.4c0-.3-.1-.5-.2-.7.1-.2.1-.4.1-.6v-.2h-.2c0 .4-.3.8-.9 1.1h.1-2.7c-.6.2-.9.4-.9.6v.2l.4.5.9-.2 1.9-.1.5-.4c.5.5.8 1 .9 1.6-.4 0-.8.5-1.1 1.3l-.3.2h-.2c-.3 0-.5-.3-.6-.9h-.2c0 .6-.1.9-.4.9l.2.4c-.3 1-.7 1.5-1.1 1.5h-.4l.2.9v.2h-.4c-.2 0-.4-.1-.4-.3l.2-.9c-.7.8-1.5 1.2-2.5 1.2v.4c.4 0 .6.1.6.3l.7-.4c.4.2.8.3 1.2.3v.4c0 .2-.2.4-.6.6l.2.4c-.4.7-.6 1.2-.7 1.7.1.2.2.4.2.6l-.7.6c-.2 0-.4-.1-.4-.4v-.9l-.8-.2-1.1 1.5c.1 0 .7.4 1.8 1.2l-1 2.8c-1.4.6-2 1-2 1.2v.2c.4 0 .5.1.6.3 0 .2-.3.4-.8.4v.7c.3.3.6 1.1.9 2.5.2 0 .7-.4 1.7-1.3h.2l.6.3h.2c1.5-.1 2.7-.5 3.8-1.3.4.2.7.3.9.3 0-.3.1-.4.4-.4.1 0 .2.1.2.2.8-.4 1.4-.6 1.7-.6l.8.7 1.1-.8h.4v.8h.2c.7-.6 1.1-1.1 1.1-1.5-.1 0-.2-.1-.2-.2h.2l1 .5.9-.2c1.1 0 1.7-.1 1.9-.1 0-.4.1-.5.3-.6l.8.9h.2c2-.3 3.2-.6 3.5-.9l.2.3-.2.4h.4c0-.3.2-.7.7-1.1l-.2-.4v-.2c.2-.5.6-.7.9-.8l-.2-.4c.8-1.5 1.6-2.3 2.4-2.3l.4.2-.2.4c0 .2.1.5.4 1.1-.2.1-.5.2-.9.2v.9l-.2.9 1.8.9h-.2c.3.7.4 1.2.4 1.5 0 .3-.1.9-.5 1.7l.2 1.1h-.2l.2.4v.4c0 .3-.1.5-.2.7.1.2.2.4.2.5-1.9 1-2.9 1.4-3 1.4-.2-.1-.4-.2-.6-.2v.9l1 .1c.2 0 1-.6 2.2-1.8h.4c.6.2.9.4 1 .7l-.5.9c.6 0 .9.2 1 .5v.7c-.5.6-.7.9-.7 1l.6.7c-.1.2-.1.5-.1.7h.4c0-.5.1-.7.3-.8h.2c.5.5.9.7 1.2.7v.4c0 .2-.1.4-.3.4h-.4l-.8-.5h-.2v.4c.9.5 1.4 1 1.4 1.2-.1.2-.2.4-.2.6.2 0 .5.2.8.7v.2c0 .2-.3.5-.9.8 0-.2-.2-.4-.4-.4-.2.1-.4.2-.3.4v.2c1.6 1 2.5 1.6 2.8 1.9v.2c-1 .8-1.5 1.2-1.7 1.2v.4h.8l.6-.4h.2V280.5l.8.7c-.2.1-.3.2-.3.4.4 0 .5.1.6.4l-1.7 1c0 .1 0 .2-.2.2h-.4l-1.2-.5-.2.4c.2 0 .4.2.6.5l-.7.8v.4c.4 0 .5.3.6.9h.4l-.2-.4c.9-.6 1.3-1 1.3-1.1.4-.3.9-.4 1.5-.4h.4c.4.1.6.5.6 1.1-.3.3-1 .6-1.9 1v.4c.1.2.2.4.4.4.5-.4.9-.6 1.1-.6 0 .1.1.2.2.2l-.2.4v.4c.4 0 .6.1.6.4-.1.2-.2.4-.2.5.2-.1.5-.2.9-.2l.2.4c-.2.5-.4.7-.5.7h-.6c-.3-.2-.5-.4-.7-.3-.3.1-.5.2-.6.2 0-.1-.1-.2-.2-.2-.6.4-.9.9-.9 1.5.7.6 1.3.8 1.8.8.1-.4.5-.6 1.5-.6.2 0 .4.2.6.5v.2c0 .2-.2.4-.6.4v.6c1.6.7 2.4 1.7 2.4 3l.4.5v.4h-.2c-.2 0-.4-.2-.4-.5h-.2v.4h-.4l-.2-.9c-.7 0-1.2.4-1.3 1 .4.8.8 1.6 1.3 2.2-.1 0-.7.1-1.6.4h-.2c-.2 0-.5-.3-1-.9l.2-.9c-.2 0-.4-.1-.8-.3h-.6c-.2 0-1.3.3-3.3.9v.7c.7.5 1 .8 1 .9-.4.9-1 1.3-1.8 1.3l.2-.4v-.5h-.4c0 .6-.1.9-.4.9h-.2c-.3 0-.5-.3-.8-.9 1.1-.4 1.7-.7 1.7-.8-.3-.7-.6-1.1-.8-1.1-.1 0-.4.4-1.1 1.1l-.4-.2c-.1.3-.4.6-.9.9-.3-.3-.5-.6-.5-1.1h-1.3c0-.4-.7-1.2-2-2.5v-.2l.2-.4-1.3-4.3c-.5-.5-.9-.8-1.2-.9 0 .1-.1.2-.2.2-.1-.2-.2-.4-.2-.5 0-.4.6-.9 1.8-1.4-.1-.4-.3-.5-.4-.5-.2.1-.4.2-.5.2l-.2-.4c0-.2.4-.7 1.3-1.3v-.1c-.2-.5-.4-.7-.6-.7 0 .2-.1.4-.4.4-.2-.3-.4-.5-.4-.7l-.4.2h-.8v-.4c.9-.5 1.3-.8 1.3-1v-.2l-.2-.3c.2-.2.2-.5.2-.8v-.4l-.6.4-.2-.4c.1-.2.2-.4.2-.5l-1.1 1.7-.2-.3-.1-1.7-.4-.5c0-.3.5-.6 1.5-.8h.2v.4h.6c3.6-.8 5.3-1.5 5.3-2.1v-.2h-.2c0 .2-.3.5-.9.8-.5 0-.8-.3-.8-.9-3.4.4-5.3.8-5.5 1.2h-.2c-.2 0-.5-.6-.9-1.8.5-.8.7-1.3.7-1.5l-.4-.2c0 .1-.1.2-.2.2-.1-.2-.2-.4-.2-.5 0-.4.2-.6.6-.6v-.2h-.4v.2c-.2-.1-.5-.2-.7-.2v-.4c0-.2.1-.4.4-.4h.2c.5.3.9.5 1.3.5l.2-.4h-.6v-.2l.2-.4h-.4v-.4h1v-.2c-1.1-.1-1.9-.1-2.1-.1v-.6c0-.2.2-.4.7-.4l-.2-.4c0-.1.1-.2.2-.2 0-.1-.1-.2-.2-.2l.1-1.3v-.2c0-.2-.1-.4-.4-.3l-.6.8c.2 0 .2 0 .2.2l-.4.2h-.4c-.6-.5-1.1-.7-1.4-.7-.7.1-1.2.2-1.5.2v-.2c-.2 0-.6.4-1.1 1h-.2c-.2 0-.2-.1-.2-.2l-.7.4c-1-.1-1.6-.5-1.6-1.2.1 0 .2-.1.2-.2l-.4-.2c-.5 1-.7 1.7-.7 2.2l.8.3c-.2.8-.5 1.2-.9 1.3l-1.3-.7v-.2l.4-.6c0-.2-.2-.4-.4-.4 0 .2-.2.4-.6.6-1.1-.2-1.7-.7-1.8-1.6 0-.8-.2-1.2-.6-1.3h-.4v.2c0 .2.2.5.5 1.1-.2 1.3-.4 1.9-.7 1.9h-.2c0-.5-.3-.7-.8-.7v-.5c.3-.6.5-1 .5-1.3l-1.2-.5c-.2 0-.5.4-.9 1-.5-.2-.8-.3-.8-.5-.4.1-.7.2-.7.2l-1.1-.1c0 .1-.1.2-.2.2 0-.2-.1-.4-.4-.4-.2.5-.6.8-1.1.8v.2l.4.5c.1 1.6-1.1 3-3.6 4.4-.2-.1-.5-.2-.8-.2v.2c.1.2.2.4.2.5l.6-.4h.4c.2 0 .4.2.6.5-.6 1-1.1 1.5-1.5 1.6v.9h.4v.2c0 .2-.2.4-.6.6l-.4-.2c0 .4-.2.6-.7.6v1.1c-.7.7-1.1 1.1-1.1 1.3.1 0 .3 0 .5.1-.1.2-.2.4-.2.6l-.4-.2c.1 1.4-.6 2.6-2.1 3.4l.2.3c0 .6-1.2 2.6-3.6 6l-1.9-.1c0 .2-.1.4-.4.4h-.9c-.5-.2-1.7-.8-3.8-1.9-.5 0-1.5-.6-2.8-1.9-.9.1-1.6-.3-2.3-1.2l2.8-6.8c-.1-.2-.2-.4-.2-.5.3 0 .7-.8 1.2-2.4h.5l.4.2c-.1-2.1.5-3.1 1.8-3.2 0-.1.1-.3.2-.6l-.3-1.1v-.4c.1-.5 1.3-1.1 3.4-1.6h.2v-.9h-.4c0 .5-.1.7-.4.7H95c-.2 0-.5-.2-.8-.7l.6-.4.4.2.2-.4-.4-.5v-.2c.5-.9 1.3-1.5 2.4-1.9h.8v.4c-.5 0-.8.2-.8.4h.6l1.3-.4v-.7h-.2c-.2.1-.4.2-.6.2 0-.3-.4-.5-1-.5-.2.1-.4.2-.5.2l-.2-.3c.7-1.4 1.5-2.3 2.2-2.7l-.2-.9c.3-1 .5-1.5.7-1.5.2 0 .4.5.9 1.6-.1.2-.2.4-.2.5.1.2.2.4.2.6.3 0 .4-.2.4-.6-.2-.2-.2-.4-.2-.6.2-.1.5-.2.8-.2v-.4c-1.1-.9-1.6-1.5-1.6-1.6.9-.4 1.3-1 1.3-1.7-.2-.2-.2-.4-.2-.5.3-.9.5-1.3.7-1.3 0 .2.2.4.6.5h.2c0-.4.3-.5.9-.6 0-.2-.2-.4-.6-.5v.4h-.2c-.2 0-.4-.1-.4-.4 0-.2.2-.4.5-.4v-.2h-.5v-.4c1.1-.6 1.6-1.7 1.6-3.4.2-1.3.5-1.9.9-1.9.1 0 .2 0 .2.2l.4-.2.4.2c.2-.3.3-.7.3-1.3h.4c.2 0 .4.1.4.5h.2c.3-.4.8-.6 1.7-.7.3.4.7.5 1 .5.2-.1.4-.2.6-.2l-.2-.4.2-1.1c-.6.2-1.1.4-1.5.8-.4-.2-.8-.3-1-.3l-1.1.2c-.1-.2-.2-.5-.2-.7l-.6.4h-.8v-.9c.2 0 .6-.8 1.1-2.3h.4c.2.7.5 1.4.9 2l.9-.4c-.3-.4-.4-.7-.4-1.1l-.1-1.8-.3-.9c.3 0 .4-.2.4-.4-.3 0-.4-.1-.4-.4v.3l.2-.9h.4c-.1.2-.2.4-.2.6v.2h.2l.1-.9c0-.1-.1-.4-.2-1.1.2 0 .6-.3 1.1-.8l.4.5c.6-.3.9-.5.9-.8-.7 0-1.2-.3-1.6-.9.2-.3.3-.5.3-.7h.6v.4h.7v-.5l-.6-.7c.5-.4 1-.6 1.7-.6h.4c0-.3.4-.7 1.3-1.2 0-.2.1-.4.4-.4.2 0 .4.1.4.3v.6l.6.3h.2c.2 0 .4-.3.7-.8v-.4l-1-.1v-.4c0-.2.2-.4.7-.4l-.8-.7c0-.1.1-.2.2-.2l-.2-.4.2-1.1-.4-.5v-.4l.2-.4c-.2 0-.4-.1-.4-.3.2-.5.3-.7.5-.8l-.2-.9v-.6l1.4-1.7zm-25.9 61.1h.4v-.4c-.3 0-.4.1-.4.4zm.5-1.1c.1.7.3 1.1.7 1.1h.2c2.1-.6 3.1-1 3.1-1.2-2 .1-3.3.1-4 .1zm.1 1.8l.1 1.1c1.4-.1 2.3-.1 2.6.1h.2v-.2c-1.8-.4-2.7-.8-2.7-1.1h-.2zm1.4-4v.7h.2v-.7h-.2zm.6-3.3v.4c.3 0 .4 0 .4.2.5-.3 1-.4 1.5-.4.5.5 1 .7 1.6.7 0-.2.1-.5.5-1l-.2-.3c.2-.5.4-.9.3-1.1h-1.1c-.9.8-1.9 1.3-3 1.5zm.5 3.5v.2h.4v-.2h-.4zm3.9-3.1l-.2.4v.2l2.4-.2v-.2c0-.4-.8-.4-2.2-.2zm1.3-11.8c.1.8-.4 1.6-1.2 2.2v.4h.2c.2-.1.4-.2.6-.2l.2.4.4-.2.6.3c.2-.4.4-.8.5-1.3-.5-1-.9-1.6-1.3-1.6zm-.9 6.2v.4c.2.6.7.9 1.4.9.1-.3.2-.4.4-.4v.4l2.8-.2c.2 0 .4-.1.3-.4v-.3c-2.6-.1-3.9-.3-4-.4v-.2l-.9.2zm2.5-7.5v.4h.2c1-.4 1.6-.6 1.7-.6v-.7c-.2 0-.4-.1-.4-.2-1 .4-1.5.8-1.5 1.1zm.4 2.4v.4c.1 0 .3 0 .6.2 2-.5 2.9-.8 2.9-1v-.2l-2.2.2-1.3.4zm2.1-9.3v.4h.2c.3 0 .4-.1.4-.4h-.6zm.1 2.5c.1.7.3 1.1.6 1.1h.2c2.1-.6 3.1-1 3.1-1.2-1.9.2-3.2.2-3.9.1zm.1 1.9v1.1c1.4-.2 2.3-.1 2.6.1h.2v-.2c-1.7-.4-2.6-.7-2.7-1h-.1zm.1-8.9v.4h.2v-.4h-.2zm2.5 12.9l-.9-.2c0 .3-.1.5-.2.8.3.4.4.7.4.9l1.3-.2h.6c.1 0 .2.1.2.2.9-.2 1.3-.5 1.3-.8 0-.6-.2-1.1-.7-1.5-.7.5-1.4.7-2 .8zm-.9-16.8h.8v-.4h-.4c-.3 0-.4.2-.4.4zm.2 1.1v.2c.1.2.2.4.4.3.2 0 .4-.1.3-.4v-.4c-.1.2-.4.3-.7.3zm.1 20.1v.4c.3 0 .4-.2.4-.4h-.4zm.2-13.5c.2 0 1 .1 2.6.2h.2c0-.1-.5-.4-1.6-.9h-.4c-.2-.1-.5.2-.8.7zm2.6-5.8c0 .5-.8 1.3-2.5 2.5v.2l.2.3c.2-.1.4-.2.6-.2l.4.2c.7 0 1-.4 1.1-1.1h.4c.3 0 .4.1.4.3-.2 0-.2.1-.2.2 1.6.1 2.5.1 2.7.1v-.2c-1.2-.2-2.1-1-2.7-2.3h-.4zm3.8 5.2l-.8-.3c-.6.4-.9.6-.9.8 0 .8-.4 1.4-1.3 1.9.2.1.4.2.6.2v.4l-1.3.2c0-.2-.1-.4-.4-.3-.2 0-.4.2-.4.6.1.4.3.5.4.5.2-.1.4-.2.6-.2 0 .2-.2.4-.6.4v.7c.2 0 .9-.4 1.9-1.2l-.2-.4v-.4c.7 1.1 1.3 1.6 1.8 1.6v-.2c0-.4.1-.8.3-1.1 0-.3-.5-.6-1.6-.9v-.5c1-.7 1.5-1.2 1.5-1.4l.4-.2h.4c.3 0 .4.1.4.4l-.2.4c.5.2.9.3 1.2.3.2-.3.5-1 .9-1.9h-.2c-.3.1-.5.2-.6.2-.4-.4-.6-.7-.6-.9h-.2c-.2 0-.6.4-1.1 1.3zm-4.2 11.8c0 .3 0 .5-.1.7.2.5.5.8.8.9 0-.1.1-.6.2-1.5l-.4-.2h-.5zm0-25.5h.4v.6c-.2 0-.4-.1-.4-.4v-.2zm.9 19.7l-.2.4 1.4.3v-.2c-.2-.3-.6-.5-1.2-.5zm.6-11.7v.2l1.6-.1 1.9 1.3h.4c0-.4.2-.6.6-.6l-.4-.5c.1-.2.2-.4.2-.6-1.4-.1-2.1-.2-2.1-.3.2 0 .4-.2.6-.6v-.2c0-.2-.2-.4-.6-.5h-.5l-1.7 1.9zm.4-12.3v.4c0 .2.2.4.6.5v-.2l-.2-1.1c-.3.1-.4.2-.4.4zm.5 6c0 .2.2.3.6.5.2 0 .4-.2.4-.4-.2 0-.4-.1-.4-.5h-.2c-.3.1-.4.2-.4.4zm.5-1.6l.2.4c-.1.2-.1.4-.1.5h.5c0-.3.1-.6.4-.9l-.4-.2h-.2l-.4.2zm.2-3.9c.6 1.1 1.4 1.6 2.5 1.6.2-1.2.3-1.9.3-2.2-.3 0-.4-.1-.4-.3-.7.3-1.5.6-2.4.9zm1.1 32.1c.2 0 .4.1.4.3v.2c0 .3-.3.5-.9.6l-.2-.3c-.1-.3.2-.5.7-.8zm5.8-27.4c0 .2-.2.4-.7.6l-3 .1h-.2l-.9.6.2.3v.2l-.4.6.2.9 2.6-.2v-.9c.1-.4.6-.6 1.5-.6h.2v.7c.4-.4.7-.6.9-.6 0-.2-.2-.4-.4-.4l.3-1.1-.3-.2zm-4.9 10.2h.6l1.7-1.2h-.4c-.3.1-.5.2-.6.2-.1-.2-.2-.5-.2-.7h-.2c-.4 0-.7.6-.9 1.7zm.3-10.9v.2h.4v-.6c-.3 0-.4.1-.4.4zm3.8-8.7c0 .2-.1.4-.3.4l-.4-.2c-.6.1-1.1.5-1.5 1h-.4l-.6-.4c0 .6-.2.9-.6.9l.3.9v.7h.7c.1-1.1.1-1.8.3-2 .7.2 1 .5 1 1.1h-.2l-.3-.1v.2c.5.5.8.8.8.9-.3 0-.7.6-1.3 1.7h-.2v.2h.4l1.3-.4c.1.2.2.4.4.4h.2c-.3-.4-.4-.7-.4-.9.2 0 .4-.4.5-1.3l-.8-.9 1.5-1c.3 0 .4.1.4.4-.1 0-.2.1-.2.2.2 0 .4.1.4.3.8-.4 1.2-.6 1.3-.6v-.5c0-.2-.2-.4-.6-.5l-.6.4h-.1l-1-.9zm-2.8-6.2c.3 1 .6 1.6.9 2v.2h-.2l-.8-.5c.1.9 0 1.3-.3 1.3s-.4-.1-.4-.4c0-.1.1-.2.2-.2l-.2-.4c.4-.5.5-.9.5-1.1-.1-.2-.2-.4-.2-.5l.5-.4zm-.7 31.1v.6c.2 0 .4-.2.3-.4v-.2h-.3zm.9-18.7v.2c.1.2.2.4.4.4l.2-.4-.4-.2h-.2zm.9 15.5v.2l.9-.2c0-.2-.1-.4-.4-.3h-.2c-.2 0-.4.1-.3.3zm.2-3.3c.1 0 .3.1.6.2l.2-.4v-.5c-.3-.1-.5.1-.8.7zm.2-3.5v.9c1 .2 1.5.5 1.6 1.1h.2c.2 0 .4-.1.3-.4v-1.1l-.9.2h-.2v-.9l-1 .2zm2.4-24.4l-.2.8h-.2l-.4-.2v.4c.2.2.2.4.2.5h.4c.2 0 .4-.2.4-.4l-.1-1.1h-.1zm-.5-2.3h.4v.4h-.3l-.1-.4zm.2 15.3c0 .2.3.3.8.5v-.5h-.8zm.2-9.5v.4h.2v-.4h-.2zm.5.4v.4h.4v-.4h-.4zm.2-6.5h.5c0 .2-.1.4-.3.4h-.2v-.4zm.4 22c.3.3.4.6.4 1.1h.2c.2 0 .5-.3.9-.9-.1-.9-.3-1.3-.4-1.3-.4.1-.8.5-1.1 1.1zm2.7 23.3v.6c.2 0 .3-.2.5-.6h-.5zm1.9-31.6c0 .1-.4.5-1.1 1.1.1.2.2.4.4.4.3 0 .7-.4 1.1-1.1 0-.3-.1-.4-.4-.4zm-.4 31h.4v-.4c-.3 0-.5.1-.4.4zm2.2-5.5l-1.1 1.3v.2h.2c.4-.1.9-.5 1.5-1.2l-.6-.3zm1.6-10.7h.2c.3 0 .4.1.4.3-.2.3-.4.6-.4.9h-.4c-.2 0-.3-.1-.4-.4.2-.5.4-.8.6-.8zm1.1-13h-.9l-.1 1.8h.9c0-.6.3-1 1.1-1.1v-.2c-.4 0-.6-.2-.6-.7l-.4.2zm-.2 31.5c.3 0 .5.3.6.9l-.6.4h-.2l-.6-.4c.3-.5.5-.8.8-.9zm-.2-43.3v.2c0 .3.3.5 1 .5 0-.1.1-.2.2-.2-.1-.2-.2-.4-.2-.5h-1zm1.6 7.1h.4l1.7-.7v-.2c-1.4.3-2.1.6-2.1.9zm.1-6.9v.4h.2v-.4h-.2zm1.4 15.5l.2.3c.6-.2.9-.4.9-.6l-.4-.2c-.2.4-.5.5-.7.5zm.4 4.5v.2h.2l.9-.2v-.5c-.7 0-1.1.2-1.1.5zm.6.3v.2h.4v-.2h-.4zm.9-5c0 .5-.1.9-.5 1.3.3 0 .4.1.4.2 1 0 1.8-.5 2.4-1.4h-.4l-.6.4h-.1l-.8-.5h-.4zm0-1.3l.4.2h.2c.1 0 .6-.6 1.4-1.9l-.2-.4c-1.3.4-1.9 1.1-1.8 2.1zm1 4.9v.7h-.2v.2c.2 0 .7.1 1.6.3.9-.3 1.3-.7 1.3-1.3h-.4l-.6.4h-.4v-.4l-1.3.1zm.4 12.4c.3 0 .4.1.4.3l-.3.2c-.3 0-.4-.1-.4-.3l.3-.2zm1.7-19.5c0-.1-.1-.2-.2-.2v.4l.2.4.4-.2h.4v.5h.4v-1.3c-.5.3-.9.4-1.2.4zm-.1 12.9c0 .2.2.3.6.5h.4v-.2c0-.2-.2-.4-.4-.4l-.6.1zm1 9.4v.2c.2 0 .4.2.4.7l1.3-.1c0-.5.2-.7.5-.7v-.2l-.9.2h-.1c-.2 0-.4-.1-.4-.4-.3.2-.5.2-.8.3zm.6 28.5v.2h.4v-.2h-.4zm1.7-16.5l-1-.1-.7 1.1v.2h.5l1.1-.6c0 .5.5.8 1.4.9v.4h.4c0-.7.3-1.1 1.1-1.3l.8.1.9-.6c.2.1.5.1.8.1l.2-.4v-.5h-.2l-.6.4c-.3 0-.7-.1-1.1-.3 0 .1-.1.3-.2.5l-.4-.2-.5.4h-.6v-.2l.4-.6c-.8 0-1.2 0-1.2-.1-.1 0-.5.3-1.1.8zm-1.2-25.9c0 .3-.1.6-.3.9 0 .2.4.4 1.3.5 0-.2.2-.4.7-.4 0-.3-.1-.7-.4-1.1-.1 0-.2.1-.2.2l-1-.1h-.1zm.1 17.7l.4.2h.2c.3-.2.6-.4.8-.4l-.1-.7h-.2c-.6.1-.9.4-1.1.9zm1.2-22c.2 0 .4.2.6.7l-.4.2h-.6c0-.1-.1-.3-.2-.6l.6-.3zm.5 33.3h.4v-.4c-.4.1-.5.2-.4.4zm.9-15.9v-.2c-.6.1-.9.5-.9 1.3h.2l1-.2c.4.8.6 1.3.8 1.3h.2c0-.2.3-.7.9-1.5v-.2c-.4-.6-.7-.9-.8-.9l-1.4.4zm-.9 9.8v.2c.1.2.2.4.4.3h.6c0-.2.1-.4.3-.8-.1 0-.2 0-.2-.2-.3.4-.7.5-1.1.5zm.7 2.8v.6c-.3 0-.4-.1-.4-.4l.4-.2zm1.8 5.1c.1.4-.3.7-1.1.8v.4c1 .1 1.7.2 2 .3l.9-.6.4.2c.1 0 .2-.1.2-.2l1 .1h.8v-.4c0-.3-.3-.5-.8-.5-.3.1-.5.2-.6.2 0-.2-.1-.4-.4-.4 0 .2-.2.4-.6.6h-.2c-.3-.2-.8-.4-1.6-.5zm-.9 7.7h.4v-.4c-.3.1-.4.2-.4.4zm.4 10.5v.4h.4v-.4h-.4zm.9-19.5c0 .4-.2.5-.6.6 0 .2.2.3.6.5h.2c.2 0 .4-.2.4-.4v-.2c-.1-.2-.3-.4-.6-.5zm-.2 7.7c0 .4-.1.8-.4 1.3l.8.3c0-.4 0-.6.2-.6-.2-.7-.5-1-.6-1zm.4-1.9v.4c.1.2.2.4.4.4.4-.4.7-.6.9-.6-.2-.6-.3-.9-.4-.9-.5.2-.8.5-.9.7zm.2 3.7v.6h.4v-.2c0-.3-.2-.4-.4-.4zm.2-28.2h.2v.4h-.2v-.4zm2.4 30.7v.2h.4v-.2h-.4zm3.4-.9h.2v.4h-.2v-.4zm4.4 7.3c.8.3 1.2.5 1.2.7v.4c0 .2-.2.4-.6.4l-1.3-.3v-.2c.3-.6.6-.9.7-1z"/></g><g><path class="st17" d="M173.5 248.3c.7.7 1.3 1.4 1.6 2.2-.1.6-.2 1-.4 1.2l.1.2c-.2.3-.2.5-.2.6.1 0 .1 0 .1.1l-.9.5c-.2-.1-.3-.1-.4-.1l-1.2.7.5.5.6-.1h.6c.2 0 .2.1.2.2-.1 0-.1 0-.1.1.1 0 .2 0 .4.1l.7-.1c.2 0 .2.1.2.2v.1c0 .2-.1.2-.2.2l-.7-.1.1.2v.1c-.3 0-.6.2-1 .6.1.3.3.5.7.7h.2l.2-.1.1.2c-.1 0-.1 0-.1.1.2 0 .2.1.2.2v.2c-.3.6-1 .9-2.1.9v.1c.6 0 1.1.3 1.5.9l.6-.1.2.5c-.1.4-.2.6-.5.6v.2c.1.6.2.8.4.9-.2.4-.3.6-.5.6l-.2-.1c-.2.1-.3.1-.4.1 0-.1 0-.1-.1-.1 0 .2-.3.4-1 .6 1.1.8 1.8 1.2 1.9 1.2v.2c-.7 0-1 .4-1 1.1.1 0 .1 0 .1.1l-.4.2c.1.3.3.6.7 1v.4l-.1.2.9-.1h.2v.1c-.1.2-.1.3-.1.4h.1c.3-.6.7-.9 1.2-.9.6.6.9 1 .9 1.1.1 0 .6-.2 1.2-.7h.6v-.2c.5.2.9.2 1.1.2l.9-.7h.5l.5.6c.1 0 .4-.3.9-.9.4.2.6.5.6.9.3-.2.7-.5 1.2-.7.2.3.4.6.4.7-.2 0-.2.1-.2.2.1.2.1.3.1.4h-.1c-.1 0-.1 0-.1-.1-.4.1-.8.4-1.1.6l-.4-.2-.4.2h-.6v.2h.2l.6-.1c0 .1.2.3.5.5h.2c0-.3.5-.6 1.5-.9.1-.3.2-.5.4-.5l.2.1c0-.1.1-.2.4-.4h.1c.1 0 .1 0 .1.1.2-.1.3-.1.4-.1l-.1-.6v-.2h.1c.1 0 .1 0 .1.1l1.1-.2.6.4-.4.7c.1.1.1.3.1.5l-.2.4.2.1c.2 0 .2-.1.2-.2-.1 0-.1 0-.1-.1.6-.3 1.1-.5 1.6-.6.3-.2.7-.6 1-1 .6-.2 1-.2 1.1-.2l.1.2-.1.6c.5-.2.7-.5.7-1 0-.1.1-.2.4-.4.2 0 .2.1.2.4.2 0 .2-.1.2-.2-.1 0-.1 0-.1-.1.2-.1.6-.2 1.4-.2.2.1.3.1.4.1v.1c-.2.7-.4 1-.5 1h-.1l-.6-.1.1.2v.1c-.3.4-.5.7-.5.7l.2.1h.1c0-.3.1-.5.2-.5s.3.2.5.5v.6h.4l.4-.2.6.1c0-.1 0-.1.1-.1.2.3.4.5.4.6l-.1.2c.1.1.1.3.1.5s-.1.2-.2.2-.2-.1-.2-.4l-.5.4-.6-.1c-.3 0-.5.3-.6 1l.4.5v.4h.5v.7c0 .2-.1.2-.2.2.1.4.2.6.2.6.6-.2.9-.4 1-.4l.6.9v.1c-.4.7-.6 1-.7 1h-.1c-.2-.2-.4-.2-.5-.2-.2 0-.5.5-.9 1.5-.5.3-1 .5-1.5.6-.2.5-.3.7-.5.7h-.4l-.4-.2-.5 1.4h-.4c-.1 0-.3-.2-.5-.5.2-.4.3-.6.5-.6l-.1-.9v-.1c1.2-.9 1.7-1.4 1.7-1.5-.1-.2-.1-.3-.1-.4h-.2c0 .4-.5.8-1.4 1.2 0 .2-.1.2-.2.2 0-.1 0-.1-.1-.1l.1-.2v-.1l-.5-.6v-.1l.4-.5c-.1 0-.3-.1-.5-.2 0 .6-.2.9-.5 1h-.1l-.6-.1c0 .4-.4.6-1.2.7 0 .8.4 1.3 1.1 1.4v.1c0 .1-.2.3-.6.5l-.5-.4-.5.4-.2-.1-.2.1c-.1 0-.2 0-.4-.1-.6.2-1 .2-1.1.2-.1-.1-.3-.1-.5-.1 0 .2-.1.4-.2.4l-.1-.2v-.1c.4-.2.7-.8 1-1.7v-.1h-.4c-.3.4-.8.7-1.7 1.1 0 .2 0 .4-.1.5.1.2.1.3.1.4l-.2.1c-.1-.1-.3-.1-.5-.1l-.2.5c.1 0 .2.1.4.4v.1l-1-.5c-.2 0-.4 0-.5.1-.5-.3-.9-.5-1.1-.5l.1.2c-.1.4-.4.6-.6.6l-.2-.1c-.2.1-.3.1-.4.1 0-.1-.1-.2-.4-.4h-.2c0 .2-.2.5-.5.6l-.2-.4c0-.6.5-1 1.6-1.2 0-.2.1-.2.2-.2l.2.1-.1.2v.2h.6c0-.4.1-.7.2-1-.3-.1-.5-.2-.5-.4l.1-.2h-.2l-.5.6h-.1l-.4-.2h-.5c-.6.7-1.3 1.2-2.1 1.7-.1 0-.3-.2-.5-.5v-.1c0-.2.1-.2.2-.2-.3-.6-.5-1-.5-1.1-.1.2-.4.9-.9 2.2h-.2l-.2-.1c0 .1-.1.3-.2.5.1.2.1.3.1.4-.1 0-.4.2-.9.5 0-.2-.1-.2-.2-.2s-.3.2-.6.7l.2.1c.2 0 .5-.1.9-.4l1.1 1.2v.4h-.4v.1l.2.4v.1c-.1 0-.1 0-.1-.1-.5 0-.9.4-1.1 1.1.7.2 1.1.5 1.1.7 0 .2-.1.2-.2.2l.1.2v.2c0 .2-.1.2-.2.2-.2-.4-.5-.6-.9-.6h-.2l.2.4-.1.7c.1.2.3.5.7.6 0-.1.1-.2.4-.4.2.1.4.3.4.7-.3.4-.6.6-.9.6 0-.2-.1-.2-.2-.2 0 .5-.1.8-.2 1l.4.5v.4c-.2.4-.4.6-.5.6l-.9-.1v.1l.4.6c-.1 0-.2.1-.4.4.1.1.4.1.7.1 0-.2.1-.2.2-.2h.1c.2 0 .2.1.2.2-.1.2-.3.4-.7.4 0 .2.2.2.6.2v.4c0 .2-.1.2-.2.2-.2-.3-.4-.5-.4-.6h-.1c0 .4-.5.6-1.2.6v.1c0 .2.1.2.2.2.1-.1.3-.1.5-.1 0 .2.2.4.5.4v.1c0 .1-.2.3-.5.5l-.4-.2h-.1l.1.2c-.6.6-1.1.9-1.6.9l-.1-.2v-.1c0-.1.1-.2.4-.4h.6c0-.1.1-.3.2-.5-.2 0-.2-.3-.2-.9-.2 0-.2.1-.2.2l-1.2-.2-.2.4c.2 0 .2.1.2.2l-.2.1c0-.2-.3-.5-1-.7l-.2.1h-.1c-.2 0-.2-.1-.2-.2s.3-.4.9-.9c0 .1 0 .1.1.1l.6-.7v-.4c-.4 0-.6-.1-.6-.2l-.2.1-.2-.1-.6.1c-.2-.6-.4-1.3-.5-2.1v-.4c-.2 0-.4-.1-.4-.2v-.4c0-.1.2-.3.7-.7l-.5-1v-.2c.5-.6.9-.9 1.2-.9v-.4c-.5 0-.7-.1-.7-.2v-.2c0-.1 0-.1.1-.1-.2-.3-.2-.5-.2-.7l.4-.2-.1-.2v-.1h.6l-.5-.6v-.1l.5-.9-.2-.1-.4.2.1.2v.1h-.4c-.2 0-.3-.5-.4-1.4-.1 0-.1 0-.1-.1.1 0 .1 0 .1-.1h-.1l-.6.5c-.2-.2-.5-.2-.9-.2v.1h-.1l-.2-.1.1-.2v-.1h-.2c-.4.2-.6.4-.6.6h-.2c0-.6.5-1.2 1.6-1.7l.4.2c.1 0 .3-.3.5-.9-.1 0-.1 0-.1-.1l-.2.1c-.4-.2-.6-.5-.6-.7h-.2c-.2 0-.4.4-.6 1.1-.3.3-.6.5-1 .5l.1.2c-.1.3-.3.6-.6.7h-.9l-.6-.1c0 .2-.1.2-.2.2l-.2-.4c0-.1.2-.2.6-.4 0-.2-.1-.5-.4-.9.1-.2.1-.3.1-.4l-.2-.1h-.1c-.1.8-.2 1.2-.4 1.2 0 .1 0 .1.1.1l-.1.6c0 .2.2.4.6.4v.4c-.1 0-.3.1-.5.2-.8-.4-1.2-.9-1.2-1.6-.2.1-.3.1-.4.1l.1.2v.4l-.2.4v.1c.2 0 .4.1.4.2v.1h-.4v.8h-.2c0 .1 0 .2-.1.4.1.2.1.3.1.4l-.2.1c-.7-.1-1.2-.2-1.5-.4.1-.6.2-.9.4-.9h.1l.6.1c0-.2.2-.5.5-.9-.2-.5-.5-.9-.9-1.1 0 .4-.4.7-1.1 1-.4 0-.7-.2-.9-.5v-.1c0-.1.1-.4.2-1v-.4c-.8 0-1.3-.5-1.4-1.6-.4-1.3-.6-1.9-.6-2 .4-.6.9-1.2 1.5-1.6 0-.4.7-.8 2-1.5h.1v.7c.1 0 .6-.1 1.4-.2l.4.2h.1c.1-.4.2-.6.4-.6h.4c0-.2.1-.2.2-.2l.4.2h.1c0-.5.6-.8 1.9-1.1v.2h-.2v.2c.5 0 .9-.2 1.4-.6l.2.4-.4.5c.2 0 .6.2 1.1.7l.1-.2c-.3 0-.5-.1-.5-.4v-.2l1.1-1.2c.1 0 .3.2.6.7h.1l-.1-.6c0-.2.1-.2.2-.2h.2c.4.2.6.5.6.7h.1c.2 0 .2-.1.2-.2l-.1-.7h-.1v.2h-.2v-.1c0-.3.4-.6 1.2-1v-.4c0-.1-.2-.3-.5-.5l-.5.2-.4-.7v-.1l.6-1.1-.1-.9v-.2c0-.1.3-.4.9-.7 0-.2.1-.2.4-.2v-.2l-.6.1h-.4c-.2 0-.2-.1-.2-.2v-.9l.6-1.1c-.2-.3-.2-.6-.2-.7l.2-.1c-.2-.3-.2-.6-.2-.7l.6-.4-.1-.2c0-.2.2-.2.5-.2l-1.1-.7c0-.8.1-1.2.2-1.2l-.1-.2v-.9c0-.2.2-.7.5-1.5-.2 0-.2-.1-.2-.2v-.3c.5-1.1 1.3-1.6 2.2-1.6l-.1-.6c.9-1 1.7-1.5 2.1-1.5zm-15.1 28.1c0 .2.1.2.2.2h.1l.1-.6h-.1s-.2.1-.3.4zm1.4 1v.2h.1v-.2h-.1zm.3-1.5h.2v-.2c-.1-.1-.2 0-.2.2zm.4 13.8h.1v.2h-.4c.1-.1.2-.2.3-.2zm2.4-15.8l.4.6c-.3.1-.5.2-.5.4.1.1.1.3.1.5-.2 0-.2.1-.2.2l-.2-.1h-.5l.1.6h.4c0-.1.3-.3 1-.5.2-.3.2-.5.2-.6-.2 0-.2-.1-.2-.2l.1-.5-.2-.6c-.4 0-.5.1-.5.2zm2.3-1.1h.2v-.2c-.1 0-.2 0-.2.2zm1.4 4.2v.1l.1.2c-.1.2-.1.3-.1.4h.5v-.1l-.1-.6h-.4zm1.4 1.8c0 .2.1.2.2.2 0-.1 0-.1.1-.1 0 .2.1.2.2.2h.1l.7-.6c.1.1.3.1.5.1l.2-.4v-.2h-.1c-.6 0-1.3.3-1.9.8zm.2 11h.2v.1h-.2v-.1zm.2-2.7v.4c.3 0 .6.1.9.4h.1c0-.2 0-.2.1-.2 0-.1-.2-.3-.7-.6v-.1h-.1c-.2-.1-.3 0-.3.1zm.3-6.8v.4c.3-.2.6-.4.7-.4v-.1h-.1c-.2.1-.4.1-.6.1zm.6 13c.1.2.1.3.1.4l.2-.1h.5v.1c0 .1-.1.2-.4.4h-.1l-.2-.1c0 .1 0 .1-.1.1l-.2-.4v-.1c0-.2 0-.3.2-.3zm-.1-.7h.1v.2h-.1v-.2zm.1-34.4v.1h.2v-.1h-.2zm1 35.7h.1c0 .2.2.5.5.7v.6c0 .2-.1.2-.2.2h-.2c-.2 0-.4-.4-.7-1.2l.5-.3zm-.4-13.4l.5.5h.1v-.1c-.2-.3-.2-.5-.2-.6h-.1c-.2-.1-.3 0-.3.2zm0 8.9v.1h.4v-.1h-.4zm.5.1c0 .2-.1.2-.2.2.1.2.1.3.1.4h.1c.2 0 .2-.1.2-.2v-.1c0-.2 0-.3-.2-.3zm1.5-1.9h.1c.4-.2.6-.4.6-.5v-.1h-.1c-.2.1-.4.3-.6.6zm.5-22.7c0 .1 0 .2-.1.4l.2.1.1-.2c0-.2-.1-.3-.2-.3zm0-7v.2h.2c0-.1-.1-.2-.2-.2zm.1 30.3v.1l.1.2c.3-.1.5-.2.5-.4h-.6zm.9-21.3v.2c.2.2.2.5.2 1 .3-.1.5-.1.5-.2l-.1-.6c.1 0 .1 0 .1-.1-.3-.3-.5-.3-.7-.3zm1.2-3.6h.5v.1c0 .2-.1.2-.2.2h-.2v-.3zm.4 4.8v.1c.2.3.4.6.4.9h.4c0-.4.1-.6.2-.6 0 .2.1.2.2.2h.1l-.5-.6-.2.1-.6-.1zm.8 6.7c0 .1-.1.3-.2.5l.1.6h.1c0-.4.1-.7.4-1l-.2-.1h-.2zm3-.5c-1 .8-1.5 1.2-1.6 1.2v.6h.1c.2-.1.3-.1.4-.1 0 .2.1.2.2.2 0-.3.1-.5.2-.5h.1l.6.1c0-.2.1-.2.2-.2-.1-.2-.1-.3-.1-.4l.1-.2c-.1-.1-.1-.3-.1-.5.1 0 .1 0 .1-.1.1 0 0 0-.2-.1zm-.2-3.6l.4.5c-.2 0-.2.1-.2.2h.1c.1 0 .5-.1 1.1-.4 0 .1.1.2.4.4h.1c.2-.2.4-.2.6-.2v-.4c-.2 0-.4-.1-.6-.2h-.2l-.4.2h-.6c-.2 0-.2-.1-.2-.2-.3 0-.5.1-.5.1zm1.6-2.6c.1.2.1.3.1.4.4 0 .6-.1.6-.4h.4l.9.6h.2v-.2c-.4 0-.6-.1-.6-.2.1-.1.1-.3.1-.5l-.4-.2c-.2.1-.3.1-.4.1l-.5-.1c-.1-.1-.3.1-.4.5zm.2 5.2v.1c0 .2.1.2.2.2l-.4.7c.1.4.2.6.4.6h.1c0-.2.1-.5.2-.9l-.1-.2c0-.3.4-.7 1.2-1.2 0-.1-.2-.3-.5-.5h-.4c-.3.6-.6.9-.7.9v.3zm0 1.8v.4h.5c0-.1-.1-.2-.4-.4h-.1zm2.1.7c-.3.6-.6.9-.9.9v.1c0 .1.2.3.6.5.3-.2.5-.4.6-.7 0-.6-.1-.8-.3-.8zm2.1 1.1h.2v.4c0 .1-.2.3-.5.5-.1 0-.2-.1-.4-.4.1-.2.3-.3.7-.5zm-.5-2.3v.2c.2 0 .4.1.6.2h.1c.1 0 .3-.2.5-.5l-.4-.2c-.4.3-.7.3-.8.3zm1.1-5c.1 0 .2 0 .4.1.4-.2.9-.3 1.6-.4v-.2c-.3 0-.5 0-.5-.1l-.2.1-.2-.1c-.5 0-.8.2-1.1.6zm0 6.6h.1v.2h-.1v-.2zm.3-4.5v.5h.1c0-.1 0-.2.1-.4l-.2-.1zm1.7 4.7v.2h.1v-.2h-.1zm.4 9.5h.2v.1h-.2v-.1zm.2-19.4v.2c.2 0 .2-.1.2-.2h-.2zm2.6-.4h.4v.2c0 .1-.3.3-1 .5h-.1c-.2 0-.2-.1-.2-.2 0-.2.1-.2.2-.2.2.1.3.1.4.1 0-.1.1-.3.3-.4zm-.2 10.6c.1.1.2.5.2 1.1-.1.3-.2.5-.4.5l-.5-.6v-.6c.1-.1.3-.3.7-.4zm.7-2.9c.3 0 .8-.2 1.2-.5h.5c.2 0 .2.1.2.2l-.2.4v.1c.6.1.9.2.9.4l-.1.2.4.2-.1.2v.1c.3 0 .5 0 .6.1l.1-.2-.4-.5c0-.1 0-.1.1-.1-.2-.3-.2-.6-.2-1v-.2c-.5 0-.8-.2-1-.6h-.1c-1.1.3-1.7.7-1.9 1.2zm.4-7.9h.2v.1h-.2v-.1zm.1 1.3v.4h.2c.1 0 .2-.1.4-.4l-.2-.1c-.2.1-.3.1-.4.1zm.9 1.5v.6c0 .2.1.2.2.2.2-.3.4-.5.6-.5v-.2c-.2 0-.5 0-.8-.1zm2-.7l-.5.9h.2l.5-.2c.1.3.2.5.4.5.3-.2.6-.4.7-.4v-.1c-.1 0-.2 0-.4-.1-.2.1-.3.1-.4.1 0-.4-.2-.7-.5-.7zm3.1-1.8l-.1.2.1.7c-.2.1-.3.1-.4.1l-.2-.1c-.1.1-.3.1-.5.1l-.6-.9v-.1h.1l.4.2c.3 0 .7-.2 1.2-.2zm-1.8 7.6v.2c.1 0 .2-.1.4-.4v-.1h-.1c-.2 0-.3.1-.3.3zm2.2-4.4h.1c.2 0 .2.1.2.2v.1c0 .1 0 .1-.1.1l.1.2c-.1.2-.1.3-.1.4.2 0 .2.1.2.2v.4c0 .2-.1.2-.2.2h-.4l-.5-.6v.1c.1.5.1.8.1 1l-.5.4h-.1l-.2-.1.1-.2v-.1c-.1 0-.2 0-.4-.1.1-.5.2-.7.2-.7-.2-.3-.2-.5-.2-.6l.2-.1c.2.2.4.2.7.2.4-.6.6-1 .8-1zm-.4-3h.2v.1h-.2v-.1zM220.3 248.3c.7.7 1.3 1.4 1.6 2.2-.1.6-.2 1-.4 1.2l.1.2c-.2.3-.2.5-.2.6.1 0 .1 0 .1.1l-.9.5c-.2-.1-.3-.1-.4-.1l-1.2.7.5.5.6-.1h.6c.2 0 .2.1.2.2-.1 0-.1 0-.1.1.1 0 .2 0 .4.1l.7-.1c.2 0 .2.1.2.2v.1c0 .2-.1.2-.2.2l-.7-.1.1.2v.1c-.3 0-.6.2-1 .6.1.3.3.5.7.7h.2l.2-.1.1.2c-.1 0-.1 0-.1.1.2 0 .2.1.2.2v.2c-.3.6-1 .9-2.1.9v.1c.6 0 1.1.3 1.5.9l.6-.1.2.5c-.1.4-.2.6-.5.6v.2c.1.6.2.8.4.9-.2.4-.3.6-.5.6l-.2-.1c-.2.1-.3.1-.4.1 0-.1 0-.1-.1-.1 0 .2-.3.4-1 .6 1.1.8 1.8 1.2 1.9 1.2v.2c-.7 0-1 .4-1 1.1.1 0 .1 0 .1.1l-.4.2c.1.3.3.6.7 1v.4l-.1.2.9-.1h.2v.1c-.1.2-.1.3-.1.4h.1c.3-.6.7-.9 1.2-.9.6.6.9 1 .9 1.1.1 0 .6-.2 1.2-.7h.6v-.2c.5.2.9.2 1.1.2l.9-.7h.5l.5.6c.1 0 .4-.3.9-.9.4.2.6.5.6.9.3-.2.7-.5 1.2-.7.2.3.4.6.4.7-.2 0-.2.1-.2.2.1.2.1.3.1.4h-.1c-.1 0-.1 0-.1-.1-.4.1-.8.4-1.1.6l-.4-.2-.4.2h-.6v.2h.2l.6-.1c0 .1.2.3.5.5h.2c0-.3.5-.6 1.5-.9.1-.3.2-.5.4-.5l.2.1c0-.1.1-.2.4-.4h.1c.1 0 .1 0 .1.1.2-.1.3-.1.4-.1l-.1-.6v-.2h.1c.1 0 .1 0 .1.1l1.1-.2.6.4-.4.7c.1.1.1.3.1.5l-.2.4.2.1c.2 0 .2-.1.2-.2-.1 0-.1 0-.1-.1.6-.3 1.1-.5 1.6-.6.3-.2.7-.6 1-1 .6-.2 1-.2 1.1-.2l.1.2-.1.6c.5-.2.7-.5.7-1 0-.1.1-.2.4-.4.2 0 .2.1.2.4.2 0 .2-.1.2-.2-.1 0-.1 0-.1-.1.2-.1.6-.2 1.4-.2.2.1.3.1.4.1v.1c-.2.7-.4 1-.5 1h-.1l-.6-.1.1.2v.1c-.3.4-.5.7-.5.7l.2.1h.1c0-.3.1-.5.2-.5s.3.2.5.5v.6h.4l.4-.2.6.1c0-.1 0-.1.1-.1.2.3.4.5.4.6l-.1.2c.1.1.1.3.1.5s-.1.2-.2.2-.2-.1-.2-.4l-.5.4-.6-.1c-.3 0-.5.3-.6 1l.4.5v.4h.5v.7c0 .2-.1.2-.2.2.1.4.2.6.2.6.6-.2.9-.4 1-.4l.6.9v.1c-.4.7-.6 1-.7 1h-.1c-.2-.2-.4-.2-.5-.2-.2 0-.5.5-.9 1.5-.5.3-1 .5-1.5.6-.2.5-.3.7-.5.7h-.4l-.4-.2-.5 1.4h-.4c-.1 0-.3-.2-.5-.5.2-.4.3-.6.5-.6l-.1-.9v-.1c1.2-.9 1.7-1.4 1.7-1.5-.1-.2-.1-.3-.1-.4h-.2c0 .4-.5.8-1.4 1.2 0 .2-.1.2-.2.2 0-.1 0-.1-.1-.1l.1-.2v-.1l-.5-.6v-.1l.4-.5c-.1 0-.3-.1-.5-.2 0 .6-.2.9-.5 1h-.1l-.6-.1c0 .4-.4.6-1.2.7 0 .8.4 1.3 1.1 1.4v.1c0 .1-.2.3-.6.5l-.1.3-.5.4-.2-.1-.2.1c-.1 0-.2 0-.4-.1-.6.2-1 .2-1.1.2-.1-.1-.3-.1-.5-.1 0 .2-.1.4-.2.4l-.1-.2v-.1c.4-.2.7-.8 1-1.7v-.1h-.4c-.3.4-.8.7-1.7 1.1 0 .2 0 .4-.1.5.1.2.1.3.1.4l-.2.1c-.1-.1-.3-.1-.5-.1l-.2.5c.1 0 .2.1.4.4v.1l-1-.5h-.1c-.2 0-.4 0-.5.1-.5-.3-.9-.5-1.1-.5l.1.2c-.1.4-.4.6-.6.6l-.2-.1c-.2.1-.3.1-.4.1 0-.1-.1-.2-.4-.4h-.2c0 .2-.2.5-.5.6l-.2-.4c0-.6.5-1 1.6-1.2 0-.2.1-.2.2-.2l.2.1-.1.2v.2h.6c0-.4.1-.7.2-1-.3-.1-.5-.2-.5-.4l.1-.2h-.4l-.5.6h-.1l-.4-.2h-.5c-.6.7-1.3 1.2-2.1 1.7-.1 0-.3-.2-.5-.5v-.1c0-.2.1-.2.2-.2-.3-.6-.5-1-.5-1.1-.1.2-.4.9-.9 2.2h-.2l-.2-.1c0 .1-.1.3-.2.5.1.2.1.3.1.4-.1 0-.4.2-.9.5 0-.2-.1-.2-.2-.2s-.3.2-.6.7l.2.1c.2 0 .5-.1.9-.4l1.1 1.2v.4h-.4v.1l.2.4v.1c-.1 0-.1 0-.1-.1-.5 0-.9.4-1.1 1.1.7.2 1.1.5 1.1.7 0 .2-.1.2-.2.2l.1.2v.2c0 .2-.1.2-.2.2-.2-.4-.5-.6-.9-.6h-.2l.2.4-.1.7c.1.2.3.5.7.6 0-.1.1-.2.4-.4.2.1.4.3.4.7-.3.4-.6.6-.9.6 0-.2-.1-.2-.2-.2 0 .5-.1.8-.2 1l.4.5v.4c-.2.4-.4.6-.5.6l-.9-.1v.1l.4.6c-.1 0-.2.1-.4.4.1.1.4.1.7.1 0-.2.1-.2.2-.2h.1c.2 0 .2.1.2.2-.1.2-.3.4-.7.4 0 .2.2.2.6.2v.4c0 .2-.1.2-.2.2-.2-.3-.4-.5-.4-.6h-.1c0 .4-.5.6-1.2.6v.1c0 .2.1.2.2.2.1-.1.3-.1.5-.1 0 .2.2.4.5.4v.1c0 .1-.2.3-.5.5l-.4-.2h-.1l.1.2c-.6.6-1.1.9-1.6.9l-.1-.2v-.1c0-.1.1-.2.4-.4h.6c0-.1.1-.3.2-.5-.2 0-.2-.3-.2-.9-.2 0-.2.1-.2.2l-1.2-.2-.2.4c.2 0 .2.1.2.2l-.2.1c0-.2-.3-.5-1-.7l-.2.1h-.3c-.2 0-.2-.1-.2-.2s.3-.4.9-.9c0 .1 0 .1.1.1l.6-.7v-.4c-.4 0-.6-.1-.6-.2l-.2.1-.2-.1-.6.1c-.2-.6-.4-1.3-.5-2.1v-.4c-.2 0-.4-.1-.4-.2v-.4c0-.1.2-.3.7-.7l-.5-1v-.2c.5-.6.9-.9 1.2-.9v-.4c-.5 0-.7-.1-.7-.2v-.2c0-.1 0-.1.1-.1-.2-.3-.2-.5-.2-.7l.4-.2-.1-.2v-.1h.6l-.5-.6v-.1l.5-.9-.2-.1-.4.2.1.2v.1h-.4c-.2 0-.3-.5-.4-1.4-.1 0-.1 0-.1-.1.1 0 .1 0 .1-.1h-.1l-.6.5c-.2-.2-.5-.2-.9-.2v.1h-.1l-.2-.1.1-.2v-.1h-.2c-.4.2-.6.4-.6.6h-.5c0-.6.5-1.2 1.6-1.7l.4.2c.1 0 .3-.3.5-.9-.1 0-.1 0-.1-.1l-.2.1c-.4-.2-.6-.5-.6-.7h-.2c-.2 0-.4.4-.6 1.1-.3.3-.6.5-1 .5l.1.2c-.1.3-.3.6-.6.7h-.4l-.6-.1c0 .2-.1.2-.2.2l-.2-.4c0-.1.2-.2.6-.4 0-.2-.1-.5-.4-.9.1-.2.1-.3.1-.4l-.2-.1h-.1c-.1.8-.2 1.2-.4 1.2 0 .1 0 .1.1.1l-.1.6c0 .2.2.4.6.4v.4c-.1 0-.3.1-.5.2-.8-.4-1.2-.9-1.2-1.6-.2.1-.3.1-.4.1l.1.2v.4l-.2.4v.1c.2 0 .4.1.4.2v.1h-.4v.1h-.2c0 .1 0 .2-.1.4.1.2.1.3.1.4l-.2.1c-.7-.1-1.2-.2-1.5-.4.1-.6.2-.9.4-.9h.1l.6.1c0-.2.2-.5.5-.9-.2-.5-.5-.9-.9-1.1 0 .4-.4.7-1.1 1-.4 0-.7-.2-.9-.5v-.1c0-.1.1-.4.2-1v-.4c-.8 0-1.3-.5-1.4-1.6-.4-1.3-.6-1.9-.6-2 .4-.6.9-1.2 1.5-1.6 0-.4.7-.8 2-1.5h.1v.7c.1 0 .6-.1 1.4-.2l.4.2h.1c.1-.4.2-.6.4-.6h.4c0-.2.1-.2.2-.2l.4.2h.1c0-.5.6-.8 1.9-1.1v.2h-.2v.2c.5 0 .9-.2 1.4-.6l.2.4-.4.5c.2 0 .6.2 1.1.7l.1-.2c-.3 0-.5-.1-.5-.4v-.2l1.1-1.2c.1 0 .3.2.6.7h.1l-.1-.6c0-.2.1-.2.2-.2h.2c.4.2.6.5.6.7h.1c.2 0 .2-.1.2-.2l-.1-.7h-.1v.2h-.3v-.1c0-.3.4-.6 1.2-1v-.4c0-.1-.2-.3-.5-.5l-.5.2-.4-.7v-.1l.6-1.1-.1-.9v-.2c0-.1.3-.4.9-.7 0-.2.1-.2.4-.2v-.2l-.6.1h-.4c-.2 0-.2-.1-.2-.2v-.9l.6-1.1c-.2-.3-.2-.6-.2-.7l.2-.1c-.2-.3-.2-.6-.2-.7l.6-.4-.1-.2c0-.2.2-.2.5-.2l-1.1-.7c0-.8.1-1.2.2-1.2l-.1-.2v-.9c0-.2.2-.7.5-1.5-.2 0-.2-.1-.2-.2v-.3c.5-1.1 1.3-1.6 2.2-1.6l-.1-.6c.9-1 1.7-1.5 2.1-1.5zm-15.1 28.1c0 .2.1.2.2.2h.1l.1-.6h-.1s-.2.1-.3.4zm1.4 1v.2h.1v-.2h-.1zm.3-1.5h.2v-.2c-.1-.1-.2 0-.2.2zm.4 13.8h.1v.2h-.4c.1-.1.2-.2.3-.2zm2.4-15.8l.4.6c-.3.1-.5.2-.5.4.1.1.1.3.1.5-.2 0-.2.1-.2.2l-.2-.1h-.4l.1.6h.4c0-.1.3-.3 1-.5.2-.3.2-.5.2-.6-.2 0-.2-.1-.2-.2l.1-.5-.2-.6c-.5 0-.6.1-.6.2zm2.3-1.1h.2v-.2c-.1 0-.2 0-.2.2zm1.4 4.2v.1l.1.2c-.1.2-.1.3-.1.4h.5v-.1l-.1-.6h-.4zm1.5 1.8c0 .2.1.2.2.2 0-.1 0-.1.1-.1 0 .2.1.2.2.2h.1l.7-.6c.1.1.3.1.5.1l.2-.4v-.2h.1c-.9 0-1.6.3-2.1.8zm.1 11h.2v.1h-.2v-.1zm.2-2.7v.4c.3 0 .6.1.9.4h.1c0-.2 0-.2.1-.2 0-.1-.2-.3-.7-.6v-.1h-.1c-.2-.1-.3 0-.3.1zm.3-6.8v.4c.3-.2.6-.4.7-.4v-.1h-.1c-.2.1-.4.1-.6.1zm.6 13c.1.2.1.3.1.4l.2-.1h.5v.1c0 .1-.1.2-.4.4h-.1l-.2-.1c0 .1 0 .1-.1.1l-.2-.4v-.1c0-.2 0-.3.2-.3zm-.1-.7h.1v.2h-.1v-.2zm.1-34.4v.1h.2v-.1h-.2zm1 35.7h.1c0 .2.2.5.5.7v.6c0 .2-.1.2-.2.2h-.2c-.2 0-.4-.4-.7-1.2l.5-.3zm-.4-13.4l.5.5h.1v-.1c-.2-.3-.2-.5-.2-.6h-.1c-.2-.1-.3 0-.3.2zm0 8.9v.1h.4v-.1h-.4zm.5.1c0 .2-.1.2-.2.2.1.2.1.3.1.4h.1c.2 0 .2-.1.2-.2v-.1c0-.2 0-.3-.2-.3zm1.5-1.9h.1c.4-.2.6-.4.6-.5v-.1h-.1c-.2.1-.4.3-.6.6zm.5-22.7c0 .1 0 .2-.1.4l.2.1.1-.2c0-.2-.1-.3-.2-.3zm0-7v.2h.2c0-.1-.1-.2-.2-.2zm.1 30.3v.1l.1.2c.3-.1.5-.2.5-.4h-.6zm.9-21.3v.2c.2.2.2.5.2 1 .3-.1.5-.1.5-.2l-.1-.6c.1 0 .1 0 .1-.1-.3-.3-.5-.3-.7-.3zm1.2-3.6h.5v.1c0 .2-.1.2-.2.2h-.2v-.3zm.4 4.8v.1c.2.3.4.6.4.9h.4c0-.4.1-.6.2-.6 0 .2.1.2.2.2h.1l-.5-.6-.2.1-.6-.1zm.8 6.7c0 .1-.1.3-.2.5l.1.6h.1c0-.4.1-.7.4-1l-.2-.1h-.2zm3-.5c-1 .8-1.5 1.2-1.6 1.2v.6h.1c.2-.1.3-.1.4-.1 0 .2.1.2.2.2 0-.3.1-.5.2-.5h.1l.6.1c0-.2.1-.2.2-.2-.1-.2-.1-.3-.1-.4l.1-.2c-.1-.1-.1-.3-.1-.5.1 0 .1 0 .1-.1.1 0 0 0-.2-.1zm-.2-3.6l.4.5c-.2 0-.2.1-.2.2h.1c.1 0 .5-.1 1.1-.4 0 .1.1.2.4.4h.1c.2-.2.4-.2.6-.2v-.4c-.2 0-.4-.1-.6-.2h-.3l-.4.2h-.6c-.2 0-.2-.1-.2-.2-.2 0-.4.1-.4.1zm1.6-2.6c.1.2.1.3.1.4.4 0 .6-.1.6-.4h.4l.9.6h.2v-.2c-.4 0-.6-.1-.6-.2.1-.1.1-.3.1-.5l-.4-.2c-.2.1-.3.1-.4.1l-.5-.1c-.1-.1-.3.1-.4.5zm.2 5.2v.1c0 .2.1.2.2.2l-.4.7c.1.4.2.6.4.6h.1c0-.2.1-.5.2-.9l-.1-.2c0-.3.4-.7 1.2-1.2 0-.1-.2-.3-.5-.5h-.4c-.3.6-.6.9-.7.9v.3zm0 1.8v.4h.5c0-.1-.1-.2-.4-.4h-.1zm2.1.7c-.3.6-.6.9-.9.9v.1c0 .1.2.3.6.5.3-.2.5-.4.6-.7 0-.6-.1-.8-.3-.8zm2.1 1.1h.2v.4c0 .1-.2.3-.5.5-.1 0-.2-.1-.4-.4.1-.2.3-.3.7-.5zm-.5-2.3v.2c.2 0 .4.1.6.2h.1c.1 0 .3-.2.5-.5l-.4-.2c-.4.3-.7.3-.8.3zm1.1-5c.1 0 .2 0 .4.1.4-.2.9-.3 1.6-.4v-.2c-.3 0-.5 0-.5-.1l-.2.1-.3-.1c-.4 0-.7.2-1 .6zm0 6.6h.1v.2h-.1v-.2zm.3-4.5v.5h.1c0-.1 0-.2.1-.4l-.2-.1zm1.7 4.7v.2h.1v-.2h-.1zm.4 9.5h.2v.1h-.2v-.1zm.2-19.4v.2c.2 0 .2-.1.2-.2h-.2zm2.6-.4h.4v.2c0 .1-.3.3-1 .5h-.1c-.2 0-.2-.1-.2-.2 0-.2.1-.2.2-.2.2.1.3.1.4.1 0-.1.1-.3.3-.4zm-.2 10.6c.1.1.2.5.2 1.1-.1.3-.2.5-.4.5l-.5-.6v-.6c.1-.1.3-.3.7-.4zm.7-2.9c.3 0 .8-.2 1.2-.5h.5c.2 0 .2.1.2.2l-.2.4v.1c.6.1.9.2.9.4l-.1.2.4.2-.1.2v.1c.3 0 .5 0 .6.1l.1-.2-.4-.5c0-.1 0-.1.1-.1-.2-.3-.2-.6-.2-1v-.2c-.5 0-.8-.2-1-.6h-.1c-1.1.3-1.7.7-1.9 1.2zm.4-7.9h.2v.1h-.2v-.1zm.1 1.3v.4h.2c.1 0 .2-.1.4-.4l-.2-.1c-.2.1-.3.1-.4.1zm.9 1.5v.6c0 .2.1.2.2.2.2-.3.4-.5.6-.5v-.2c-.2 0-.5 0-.8-.1zm2-.7l-.5.9h.2l.5-.2c.1.3.2.5.4.5.3-.2.6-.4.7-.4v-.1c-.1 0-.2 0-.4-.1-.2.1-.3.1-.4.1 0-.4-.2-.7-.5-.7zm3.1-1.8l-.1.2.1.7c-.2.1-.3.1-.4.1l-.2-.1c-.1.1-.3.1-.5.1l-.6-.9v-.1h.1l.4.2c.3 0 .7-.2 1.2-.2zm-1.8 7.6v.2c.1 0 .2-.1.4-.4v-.1h-.1c-.2 0-.3.1-.3.3zm2.2-4.4h.1c.2 0 .2.1.2.2v.1c0 .1 0 .1-.1.1l.1.2c-.1.2-.1.3-.1.4.2 0 .2.1.2.2v.4c0 .2-.1.2-.2.2h-.4l-.5-.6v.1c.1.5.1.8.1 1l-.5.4h-.1l-.2-.1.1-.2v-.1c-.1 0-.2 0-.4-.1.1-.5.2-.7.2-.7-.2-.3-.2-.5-.2-.6l.2-.1c.2.2.4.2.7.2.4-.6.6-1 .8-1zm-.4-3h.2v.1h-.2v-.1z"/></g></svg>