<svg id="Layer_1" xmlns="http://www.w3.org/2000/svg" xmlns:xlink="http://www.w3.org/1999/xlink" viewBox="0 0 300 600"><style>.st0{fill:#004b86}.st1{clip-path:url(#SVGID_2_);fill:#fff}.st2{clip-path:url(#SVGID_4_);fill:url(#SVGID_5_)}.st3{clip-path:url(#SVGID_7_);fill:url(#SVGID_8_)}.st4{clip-path:url(#SVGID_10_);fill:url(#SVGID_11_)}</style><path class="st0" d="M151.1 540.2v4.8h-8.5v22.9h-5.4V545h-8.5v-4.8h22.4zm2.2 27.7h5.4V540.2h-5.4V567.9zm33 0h-5.5L178 561h-9.4l-2.8 6.8h-5.4l11.8-28.1h2.3l11.8 28.2zm26 0h-5.5l-2.8-6.8h-9.4l-2.8 6.8h-5.4l11.8-28.1h2.3l11.8 28.1zm-36.1-11.4l-2.8-6.9-2.9 6.9h5.7zm25.9 0l-2.8-6.9-2.9 6.9h5.7z"/><defs><path id="SVGID_1_" d="M85.2 533.5h130.1v43.8H85.2z"/></defs><clipPath id="SVGID_2_"><use xlink:href="#SVGID_1_" overflow="visible"/></clipPath><path class="st1" d="M109.4 569.6c2.4 0 4.5-1 6.1-2.6l6.6-6.6c1.5-1.5 2.5-3.6 2.5-5.9v-20.4h-20.4c-2.4 0-4.5 1-6.1 2.6l-6.6 6.6c-1.5 1.5-2.5 3.6-2.5 5.9v20.4h20.4z"/><defs><path id="SVGID_3_" d="M106.5 536c-3.7 0-6.7 3-6.7 6.7v2.3h14v14h2.2c3.7 0 6.7-3 6.7-6.7V536h-16.2z"/></defs><clipPath id="SVGID_4_"><use xlink:href="#SVGID_3_" overflow="visible"/></clipPath><linearGradient id="SVGID_5_" gradientUnits="userSpaceOnUse" x1="1.325" y1="600.624" x2="2.431" y2="600.624" gradientTransform="scale(20.3978 -20.3978) rotate(45 760.956 291.499)"><stop offset="0" stop-color="#9bdbf7"/><stop offset=".1" stop-color="#9bdbf7"/><stop offset=".9" stop-color="#009dda"/><stop offset="1" stop-color="#009dda"/></linearGradient><path class="st2" d="M88.3 547.4l22.9-22.9 22.9 22.9-22.9 23z"/><g><defs><path id="SVGID_6_" d="M116 560.7H98l-7.2 7.2h18.6c1.8 0 3.5-.7 4.8-2l6-6-.2-.2c-1.2.6-2.6 1-4 1"/></defs><clipPath id="SVGID_7_"><use xlink:href="#SVGID_6_" overflow="visible"/></clipPath><linearGradient id="SVGID_8_" gradientUnits="userSpaceOnUse" x1="1.323" y1="600.93" x2="2.429" y2="600.93" gradientTransform="matrix(26.592 0 0 -26.592 55.602 16543.676)"><stop offset="0" stop-color="#14b0e6"/><stop offset=".161" stop-color="#13aae1"/><stop offset=".372" stop-color="#0f9ad2"/><stop offset=".61" stop-color="#097fba"/><stop offset=".867" stop-color="#015999"/><stop offset=".9" stop-color="#005494"/><stop offset="1" stop-color="#005494"/></linearGradient><path class="st3" d="M90.8 559.7h29.4v8.2H90.8z"/></g><g><defs><path id="SVGID_9_" d="M92.8 544.5c-1.3 1.3-2 3-2 4.8v18.6l7.2-7.2v-18c0-1.5.4-2.9 1-4.1l-.2-.2-6 6.1z"/></defs><clipPath id="SVGID_10_"><use xlink:href="#SVGID_9_" overflow="visible"/></clipPath><linearGradient id="SVGID_11_" gradientUnits="userSpaceOnUse" x1=".915" y1="600.662" x2="2.021" y2="600.662" gradientTransform="matrix(0 -26.5924 -26.5924 0 16067.928 592.19)"><stop offset="0" stop-color="#0081bd"/><stop offset=".377" stop-color="#0070ad"/><stop offset=".85" stop-color="#005494"/><stop offset="1" stop-color="#005494"/></linearGradient><path class="st4" d="M90.8 538.4H99v29.4h-8.2z"/></g></svg>