<?xml version="1.0" encoding="utf-8"?>
<!-- Generator: Adobe Illustrator 24.0.0, SVG Export Plug-In . SVG Version: 6.00 Build 0)  -->
<svg version="1.1" id="Layer_1" xmlns="http://www.w3.org/2000/svg" xmlns:xlink="http://www.w3.org/1999/xlink" x="0px" y="0px"
	 viewBox="0 0 970 250" style="enable-background:new 0 0 970 250;" xml:space="preserve">
<style type="text/css">
	.st0{fill:#FFFFFF;}
</style>
<g>
	<path class="st0" d="M17.4,229.6l-1.3-0.6c1.7-0.9,3-2,3.7-3.6c-0.3,0.3-0.8,0.6-1.4,0.6c-1.7,0-2.9-1.3-2.9-2.9
		c0-1.7,1.3-2.9,3-2.9c1.6,0,3,1.1,3,3.2C21.6,225.8,19.8,228.4,17.4,229.6z M18.5,221.3c-0.9,0-1.7,0.7-1.7,1.8
		c0,1,0.7,1.8,1.7,1.8c0.7,0,1.5-0.3,1.7-1.3c0-0.1,0-0.3,0-0.4C20.3,222.2,19.4,221.3,18.5,221.3z"/>
	<path class="st0" d="M24.5,229.6l-1.3-0.6c1.7-0.9,3-2,3.7-3.6c-0.3,0.3-0.8,0.6-1.4,0.6c-1.7,0-2.9-1.3-2.9-2.9
		c0-1.7,1.3-2.9,3-2.9c1.6,0,3,1.1,3,3.2C28.6,225.8,26.9,228.4,24.5,229.6z M25.5,221.3c-0.9,0-1.7,0.7-1.7,1.8
		c0,1,0.7,1.8,1.7,1.8c0.7,0,1.5-0.3,1.7-1.3c0-0.1,0-0.3,0-0.4C27.3,222.2,26.5,221.3,25.5,221.3z"/>
	<path class="st0" d="M32.8,229.5c-1.6,0-3-1.1-3-3.2c0-2.4,1.8-4.9,4.1-6.2l1.3,0.6c-1.7,0.8-3,2-3.7,3.6c0.3-0.3,0.8-0.6,1.4-0.6
		c1.7,0,2.9,1.3,2.9,2.9C35.7,228.2,34.5,229.5,32.8,229.5z M32.8,224.9c-0.7,0-1.5,0.3-1.7,1.2c0,0.2,0,0.3,0,0.5
		c0,1,0.8,1.8,1.8,1.8s1.7-0.7,1.7-1.8C34.5,225.6,33.8,224.9,32.8,224.9z"/>
	<path class="st0" d="M39.8,229.5c-1.6,0-3.1-1.5-3.1-4.7c0-3.1,1.4-4.6,3.1-4.6c1.6,0,3.1,1.5,3.1,4.6
		C42.9,228,41.4,229.5,39.8,229.5z M39.8,221.3c-0.9,0-1.8,1-1.8,3.5c0,2.5,0.9,3.5,1.8,3.5c0.9,0,1.8-1,1.8-3.5
		C41.6,222.3,40.7,221.3,39.8,221.3z"/>
	<path class="st0" d="M45.1,229.3v-7.9l-1.5,0.2l0.2-1.1l2.6-0.2v9.1H45.1z"/>
	<path class="st0" d="M47.7,229.3v-0.3c2.1-2.4,3.6-4.7,3.6-6.1c0-1.1-0.6-1.7-1.5-1.7c-0.6,0-1.3,0.2-1.8,0.5l-0.3-1.1
		c0.6-0.4,1.2-0.6,2-0.6c1.6,0,2.8,1,2.8,2.8c0,1.7-1.5,3.6-2.8,5.2h3.3v1.1H47.7z"/>
</g>
</svg>
