<?xml version="1.0" encoding="utf-8"?>
<!-- Generator: Adobe Illustrator 24.0.0, SVG Export Plug-In . SVG Version: 6.00 Build 0)  -->
<svg version="1.1" id="Layer_1" xmlns="http://www.w3.org/2000/svg" xmlns:xlink="http://www.w3.org/1999/xlink" x="0px" y="0px"
	 viewBox="0 0 970 250" style="enable-background:new 0 0 970 250;" xml:space="preserve">
<style type="text/css">
	.st0{fill:#F9E039;}
</style>
<g>
	<path class="st0" d="M367.9,86.8l-7.2-10.5H359v10.5h-6.3V60h9.8c4.6,0,8.7,3.1,8.7,8.1c0,3.1-1.8,5.7-4.1,6.7l8.5,12H367.9z
		 M361.5,65.3H359v6h2.6c1.7,0,3.4-0.9,3.4-3C364.9,66.3,363.2,65.3,361.5,65.3z"/>
	<path class="st0" d="M393.2,76.2l-2.7,2.8h-9.3c0.3,1.6,2.4,3.3,5.6,3.3c2,0,4-0.6,5.3-1.4l-0.6,5.3c-1.4,0.8-3.6,1.3-6,1.3
		c-5.8,0-10.5-4-10.5-10.2c0-6.1,4.5-10,9.9-10c5.3,0,8.5,3.7,8.5,7.6C393.4,75.2,393.3,75.9,393.2,76.2z M384.8,71.8
		c-1.8,0-3.3,1.4-3.7,3.1h6.4c0-0.1,0-0.3,0-0.4C387.6,73.2,386.5,71.8,384.8,71.8z"/>
	<path class="st0" d="M409.4,87.7c-1.1-0.3-2.4-1.1-2.9-2.5c-0.8,1.6-2.6,2.3-5,2.3c-3.4,0-6.3-2.4-6.3-6.3c0-3.5,2.7-5.8,6.5-6.2
		l3.8-0.4v-0.6c0-1.1-0.9-1.9-3-1.9c-1.8,0-3.9,0.6-5.3,1.5l-1.1-4.7c1.6-1,4.2-1.7,6.7-1.7c5,0,8.6,2.3,8.6,6.9v6.2
		c0,2.2,0.8,3.4,2.3,3.9L409.4,87.7z M405.5,78.5l-2.3,0.2c-1.6,0.1-2.3,1.3-2.3,2.4c0,1,0.8,1.8,1.9,1.8c1.5,0,2.7-1.1,2.7-2.8
		V78.5z"/>
	<path class="st0" d="M429.6,86.8v-2.4h0c-1.1,1.9-3.2,2.9-5.9,2.9c-4.7,0-9.2-3.5-9.2-10c0-6.1,4.4-10.1,9.7-10.1
		c2,0,4.1,0.7,4.8,1.3V56.9h6v29.9H429.6z M429,74.3c-0.6-0.8-1.8-1.7-3.7-1.7c-2.7,0-4.6,2.1-4.6,4.8s1.9,4.8,4.6,4.8
		c1.8,0,3.1-1,3.7-2V74.3z"/>
	<path class="st0" d="M450.2,84.9c-2.9,7.6-5.9,10.4-9.5,11.8L437,93c3.1-1.2,5.4-3.4,7-7.4l-6.8-17.7h6l2.8,7.4
		c0.4,1.1,0.8,2.4,1.1,3.7h0.1c0.4-1.3,0.8-2.6,1.2-3.7l2.8-7.4h5.7L450.2,84.9z"/>
	<path class="st0" d="M481.2,72.8h-5v7.1c0,1.6,0.9,2.3,2.5,2.3c0.7,0,1.1,0,1.6-0.3l-0.5,4.7c-0.6,0.3-1.6,0.5-2.9,0.5
		c-4.3,0-6.8-2.3-6.8-6v-8.2H467v-5h3.2v-4.1l6.1-2.2v6.3h6.1L481.2,72.8z"/>
	<path class="st0" d="M493.5,87.4c-5.8,0-10.4-4.1-10.4-10.1c0-6,4.6-10.1,10.4-10.1c5.7,0,10.4,4.1,10.4,10.1
		C503.9,83.3,499.2,87.4,493.5,87.4z M493.5,72.5c-2.3,0-4.3,2-4.3,4.8s2,4.8,4.3,4.8c2.3,0,4.3-2,4.3-4.8S495.8,72.5,493.5,72.5z"
		/>
	<path class="st0" d="M524.8,96.5c-5.5,0-9.2-3.2-9.2-7.1c0-2.9,1.9-4.6,3.9-5.1l-2.4-2.4c0.2-1.2,1.2-2.3,2.3-2.7
		c-1.4-0.9-2.8-2.7-2.8-5.1c0-4,2.9-6.8,7.9-6.8c1.1,0,2,0.2,2.8,0.4c0.8,0.2,1.8,0.3,2.7,0.3c1,0,2.1-0.3,3-0.6l1.1,4.7
		c-0.6,0.3-1.5,0.6-2.4,0.6c0.2,0.4,0.5,1.3,0.5,1.9c0,3.2-2.5,5.9-6.2,6.1c-0.8,0-1.3,0.2-1.3,0.7c0,0.2,0.2,0.5,0.5,0.6l2.9,1.1
		c3.7,1.3,5.8,3.2,5.8,6.7C533.9,93.6,530.4,96.5,524.8,96.5z M526.1,87.6l-2.3-0.6c-1.5,0-2.6,1.1-2.6,2.5c0,1.3,1.1,2.4,3.4,2.4
		c2.2,0,3.4-1,3.4-2.1C528,88.8,527.3,87.9,526.1,87.6z M524.5,71.7c-1.4,0-2.4,1.1-2.4,2.3c0,1.3,1,2.3,2.4,2.3
		c1.3,0,2.4-1,2.4-2.3C526.9,72.7,525.9,71.7,524.5,71.7z"/>
	<path class="st0" d="M539.5,65.2c-1.1,0-3.3-2.2-3.3-3.3c0-1.1,2.2-3.3,3.3-3.3s3.3,2.2,3.3,3.3C542.8,63,540.6,65.2,539.5,65.2z
		 M536.4,86.8v-19h6.2v19H536.4z"/>
	<path class="st0" d="M556.6,87H552l-7.3-19.2h6l2.7,7.3c0.4,1,0.8,2.4,1.1,3.7h0.1c0.3-1.2,0.7-2.7,1.1-3.7l2.7-7.3h5.7L556.6,87z"
		/>
	<path class="st0" d="M582.5,76.2l-2.7,2.8h-9.3c0.3,1.6,2.4,3.3,5.6,3.3c2,0,4-0.6,5.3-1.4l-0.6,5.3c-1.4,0.8-3.6,1.3-6,1.3
		c-5.8,0-10.5-4-10.5-10.2c0-6.1,4.5-10,9.9-10c5.3,0,8.5,3.7,8.5,7.6C582.7,75.2,582.6,75.9,582.5,76.2z M574.2,71.8
		c-1.8,0-3.3,1.4-3.7,3.1h6.4c0-0.1,0-0.3,0-0.4C577,73.2,575.8,71.8,574.2,71.8z"/>
	<path class="st0" d="M606.8,84.9c-2.9,7.6-5.9,10.4-9.5,11.8l-3.8-3.8c3.1-1.2,5.4-3.4,7-7.4l-6.8-17.7h6l2.8,7.4
		c0.4,1.1,0.8,2.4,1.1,3.7h0.1c0.4-1.3,0.8-2.6,1.2-3.7l2.8-7.4h5.7L606.8,84.9z"/>
	<path class="st0" d="M624,87.4c-5.8,0-10.4-4.1-10.4-10.1c0-6,4.6-10.1,10.4-10.1c5.7,0,10.4,4.1,10.4,10.1
		C634.4,83.3,629.7,87.4,624,87.4z M624,72.5c-2.3,0-4.3,2-4.3,4.8s2,4.8,4.3,4.8c2.3,0,4.3-2,4.3-4.8S626.3,72.5,624,72.5z"/>
	<path class="st0" d="M649.8,86.8v-2.6h0c-0.8,2-2.8,3.2-5.8,3.2c-4.2,0-6.7-2.3-6.7-6.3V67.8h6.2v11.7c0,1.4,1,2.6,2.9,2.6
		c1.8,0,3-1.2,3-2.7V67.8h6.2v19H649.8z"/>
	<path class="st0" d="M671,74.3c-0.4-0.2-1.2-0.5-1.8-0.5c-2,0-3.8,1.1-3.8,4.1v8.9h-6.2v-19h6.1V72h0c0.6-3,2.9-4.6,5.4-4.6
		c0.6,0,1.3,0.1,1.8,0.3L671,74.3z"/>
</g>
<g>
	<path class="st0" d="M350.2,122.3c-0.4-0.2-1.2-0.5-1.8-0.5c-2,0-3.8,1.1-3.8,4.1v8.9h-6.2v-19h6.1v4.2h0c0.6-3,2.9-4.6,5.4-4.6
		c0.6,0,1.3,0.1,1.8,0.3L350.2,122.3z"/>
	<path class="st0" d="M370.6,124.2l-2.7,2.8h-9.3c0.3,1.6,2.4,3.3,5.6,3.3c2,0,4-0.6,5.3-1.4l-0.6,5.3c-1.4,0.8-3.6,1.3-6,1.3
		c-5.8,0-10.5-4-10.5-10.2c0-6.1,4.5-10,9.9-10c5.3,0,8.5,3.7,8.5,7.6C370.8,123.2,370.7,123.9,370.6,124.2z M362.3,119.8
		c-1.8,0-3.3,1.4-3.7,3.1h6.4c0-0.1,0-0.3,0-0.4C365.1,121.2,363.9,119.8,362.3,119.8z"/>
	<path class="st0" d="M386.6,120.8h-5v7.1c0,1.6,0.9,2.3,2.5,2.3c0.7,0,1.1,0,1.6-0.3l-0.5,4.7c-0.6,0.3-1.6,0.5-2.9,0.5
		c-4.3,0-6.8-2.3-6.8-6v-8.2h-3.2v-5h3.2v-4.1l6.1-2.2v6.3h6.1L386.6,120.8z"/>
	<path class="st0" d="M392.9,113.2c-1.1,0-3.3-2.2-3.3-3.3c0-1.1,2.2-3.3,3.3-3.3s3.3,2.2,3.3,3.3C396.2,111,394,113.2,392.9,113.2z
		 M389.8,134.8v-19h6.2v19H389.8z"/>
	<path class="st0" d="M411.7,122.3c-0.4-0.2-1.2-0.5-1.8-0.5c-2,0-3.8,1.1-3.8,4.1v8.9h-6.2v-19h6.1v4.2h0c0.6-3,2.9-4.6,5.4-4.6
		c0.6,0,1.3,0.1,1.8,0.3L411.7,122.3z"/>
	<path class="st0" d="M432.1,124.2l-2.7,2.8h-9.3c0.3,1.6,2.4,3.3,5.6,3.3c2,0,4-0.6,5.3-1.4l-0.6,5.3c-1.4,0.8-3.6,1.3-6,1.3
		c-5.8,0-10.5-4-10.5-10.2c0-6.1,4.5-10,9.9-10c5.3,0,8.5,3.7,8.5,7.6C432.3,123.2,432.2,123.9,432.1,124.2z M423.8,119.8
		c-1.8,0-3.3,1.4-3.7,3.1h6.4c0-0.1,0-0.3,0-0.4C426.5,121.2,425.4,119.8,423.8,119.8z"/>
	<path class="st0" d="M458.6,134.8v-11.7c0-1.4-0.7-2.6-2.7-2.6c-2,0-2.9,1.2-2.9,2.7v11.6h-6.2v-11.7c0-1.4-0.7-2.6-2.7-2.6
		c-2,0-2.9,1.2-2.9,2.7v11.6h-6.2v-19h5.7v2.6h0c0.8-2,2.6-3.2,5.6-3.2c2.7,0,4.8,1.1,5.6,3.1c0.8-1.8,3-3.1,5.9-3.1
		c4.3,0,6.7,2.4,6.7,6.4v13.2H458.6z"/>
	<path class="st0" d="M486,124.2l-2.7,2.8H474c0.3,1.6,2.4,3.3,5.6,3.3c2,0,4-0.6,5.3-1.4l-0.6,5.3c-1.4,0.8-3.6,1.3-6,1.3
		c-5.8,0-10.5-4-10.5-10.2c0-6.1,4.5-10,9.9-10c5.3,0,8.5,3.7,8.5,7.6C486.2,123.2,486.1,123.9,486,124.2z M477.7,119.8
		c-1.8,0-3.3,1.4-3.7,3.1h6.4c0-0.1,0-0.3,0-0.4C480.4,121.2,479.3,119.8,477.7,119.8z"/>
	<path class="st0" d="M501.1,134.8v-11.7c0-1.4-0.9-2.6-2.8-2.6c-1.8,0-3,1.2-3,2.7v11.6h-6.2v-19h5.7v2.6h0c0.8-2,2.7-3.2,5.8-3.2
		c4.2,0,6.7,2.4,6.7,6.4v13.2H501.1z"/>
	<path class="st0" d="M523.5,120.8h-5v7.1c0,1.6,0.9,2.3,2.5,2.3c0.7,0,1.1,0,1.6-0.3l-0.5,4.7c-0.6,0.3-1.6,0.5-2.9,0.5
		c-4.3,0-6.8-2.3-6.8-6v-8.2h-3.2v-5h3.2v-4.1l6.1-2.2v6.3h6.1L523.5,120.8z"/>
	<path class="st0" d="M542.4,135.2c-2.6,0-4.5-0.5-6-1.3l-0.5-5.5c1.7,1.2,3.9,2.1,6,2.1c1.1,0,1.8-0.6,1.8-1.3
		c0-0.8-0.6-1.1-1.7-1.5c-3.7-1-5.8-2.9-5.8-6.2c0-3.7,3-6.1,7.1-6.1c2.4,0,4.7,0.6,5.6,1.1l-1,4.5c-0.9-0.5-2.4-1.1-3.9-1.1
		c-1,0-1.7,0.5-1.7,1.2c0,0.7,0.5,1.1,1.7,1.4c4.3,1.1,6,3.3,6,6.5C549.9,132.3,547.6,135.2,542.4,135.2z"/>
	<path class="st0" d="M566.2,135.7c-1.1-0.3-2.4-1.1-2.9-2.5c-0.8,1.6-2.6,2.3-5,2.3c-3.4,0-6.3-2.4-6.3-6.3c0-3.5,2.7-5.8,6.5-6.2
		l3.8-0.4v-0.6c0-1.1-0.9-1.9-3-1.9c-1.8,0-3.9,0.6-5.3,1.5l-1.1-4.7c1.6-1,4.2-1.7,6.7-1.7c5,0,8.6,2.3,8.6,6.9v6.2
		c0,2.2,0.8,3.4,2.3,3.9L566.2,135.7z M562.2,126.5l-2.3,0.2c-1.6,0.1-2.3,1.3-2.3,2.4c0,1,0.8,1.8,1.9,1.8c1.5,0,2.7-1.1,2.7-2.8
		V126.5z"/>
	<path class="st0" d="M581.7,135h-4.6l-7.3-19.2h6l2.7,7.3c0.4,1,0.8,2.4,1.1,3.7h0.1c0.3-1.2,0.7-2.7,1.1-3.7l2.7-7.3h5.7
		L581.7,135z"/>
	<path class="st0" d="M594.3,113.2c-1.1,0-3.3-2.2-3.3-3.3c0-1.1,2.2-3.3,3.3-3.3s3.3,2.2,3.3,3.3
		C597.6,111,595.4,113.2,594.3,113.2z M591.2,134.8v-19h6.2v19H591.2z"/>
	<path class="st0" d="M613.3,134.8v-11.7c0-1.4-0.9-2.6-2.8-2.6c-1.8,0-3,1.2-3,2.7v11.6h-6.2v-19h5.7v2.6h0c0.8-2,2.7-3.2,5.8-3.2
		c4.2,0,6.7,2.4,6.7,6.4v13.2H613.3z"/>
	<path class="st0" d="M631.2,144.5c-5.5,0-9.2-3.2-9.2-7.1c0-2.9,1.9-4.6,3.9-5.1l-2.4-2.4c0.2-1.2,1.2-2.3,2.3-2.7
		c-1.4-0.9-2.8-2.7-2.8-5.1c0-4,2.9-6.8,7.9-6.8c1.1,0,2,0.2,2.8,0.4c0.8,0.2,1.8,0.3,2.7,0.3c1,0,2.1-0.3,3-0.6l1.1,4.7
		c-0.6,0.3-1.5,0.6-2.4,0.6c0.2,0.4,0.5,1.3,0.5,1.9c0,3.2-2.5,5.9-6.2,6.1c-0.8,0-1.3,0.2-1.3,0.7c0,0.2,0.2,0.5,0.5,0.6l2.9,1.1
		c3.7,1.3,5.8,3.2,5.8,6.7C640.3,141.6,636.8,144.5,631.2,144.5z M632.5,135.6l-2.3-0.6c-1.5,0-2.6,1.1-2.6,2.5
		c0,1.3,1.1,2.4,3.4,2.4c2.2,0,3.4-1,3.4-2.1C634.4,136.8,633.7,135.9,632.5,135.6z M630.8,119.7c-1.4,0-2.4,1.1-2.4,2.3
		c0,1.3,1,2.3,2.4,2.3c1.3,0,2.4-1,2.4-2.3C633.3,120.7,632.3,119.7,630.8,119.7z"/>
	<path class="st0" d="M648.8,135.2c-2.6,0-4.5-0.5-6-1.3l-0.5-5.5c1.7,1.2,3.9,2.1,6,2.1c1.1,0,1.8-0.6,1.8-1.3
		c0-0.8-0.6-1.1-1.7-1.5c-3.7-1-5.8-2.9-5.8-6.2c0-3.7,3-6.1,7.1-6.1c2.4,0,4.7,0.6,5.6,1.1l-1,4.5c-0.9-0.5-2.4-1.1-3.9-1.1
		c-1,0-1.7,0.5-1.7,1.2c0,0.7,0.5,1.1,1.7,1.4c4.3,1.1,6,3.3,6,6.5C656.3,132.3,653.9,135.2,648.8,135.2z"/>
	<path class="st0" d="M682.2,135.7c-1.1-0.3-2.4-1.1-2.9-2.5c-0.8,1.6-2.6,2.3-5,2.3c-3.4,0-6.3-2.4-6.3-6.3c0-3.5,2.7-5.8,6.5-6.2
		l3.8-0.4v-0.6c0-1.1-0.9-1.9-3-1.9c-1.8,0-3.9,0.6-5.3,1.5l-1.1-4.7c1.6-1,4.2-1.7,6.7-1.7c5,0,8.6,2.3,8.6,6.9v6.2
		c0,2.2,0.8,3.4,2.3,3.9L682.2,135.7z M678.3,126.5l-2.3,0.2c-1.6,0.1-2.3,1.3-2.3,2.4c0,1,0.8,1.8,1.9,1.8c1.5,0,2.7-1.1,2.7-2.8
		V126.5z"/>
</g>
<g>
	<path class="st0" d="M417.2,183h-4.2l-2.6-7.6c-0.4-1.2-0.8-2.5-1.1-3.9h-0.1c-0.3,1.4-0.7,2.8-1.1,3.9l-2.6,7.6h-4l-6.6-19.2h5.6
		l2.4,7.2c0.3,1.1,0.7,2.4,0.9,3.7h0.1c0.2-1.2,0.5-2.6,0.9-3.7l2.4-7.2h4.7l2.4,7.2c0.4,1.2,0.6,2.5,0.9,3.7h0.1
		c0.3-1.2,0.6-2.6,1-3.7l2.4-7.2h5.3L417.2,183z"/>
	<path class="st0" d="M439.2,183.7c-1.1-0.3-2.4-1.1-2.9-2.5c-0.8,1.6-2.6,2.3-5,2.3c-3.4,0-6.3-2.4-6.3-6.3c0-3.5,2.7-5.8,6.5-6.2
		l3.8-0.4v-0.6c0-1.1-0.9-1.9-3-1.9c-1.8,0-3.9,0.6-5.3,1.5l-1.1-4.7c1.6-1,4.2-1.7,6.7-1.7c5,0,8.6,2.3,8.6,6.9v6.2
		c0,2.2,0.8,3.4,2.3,3.9L439.2,183.7z M435.2,174.5l-2.3,0.2c-1.6,0.1-2.3,1.3-2.3,2.4c0,1,0.8,1.8,1.9,1.8c1.5,0,2.7-1.1,2.7-2.8
		V174.5z"/>
	<path class="st0" d="M457.3,182.8l-5.6-7.7h0v7.7h-6.1v-29.9h6.1v18.6h0l5.7-7.7h6.7l-6.7,9.2l7.1,9.8H457.3z"/>
	<path class="st0" d="M482.8,172.2l-2.7,2.8h-9.3c0.3,1.6,2.4,3.3,5.6,3.3c2,0,4-0.6,5.3-1.4l-0.6,5.3c-1.4,0.8-3.6,1.3-6,1.3
		c-5.8,0-10.5-4-10.5-10.2c0-6.1,4.5-10,9.9-10c5.3,0,8.5,3.7,8.5,7.6C483,171.2,482.9,171.9,482.8,172.2z M474.4,167.8
		c-1.8,0-3.3,1.4-3.7,3.1h6.4c0-0.1,0-0.3,0-0.4C477.2,169.2,476.1,167.8,474.4,167.8z"/>
	<path class="st0" d="M485.8,173.6v-4.7h11v4.7H485.8z"/>
	<path class="st0" d="M512.9,182.8v-2.6h0c-0.8,2-2.8,3.2-5.8,3.2c-4.2,0-6.7-2.3-6.7-6.3v-13.2h6.2v11.7c0,1.4,1,2.6,2.9,2.6
		c1.8,0,3-1.2,3-2.7v-11.6h6.2v19H512.9z"/>
	<path class="st0" d="M533.1,183.4c-2,0-4.1-0.6-4.8-1.3v10.4h-6v-28.7h5.4v2.4h0c1-1.9,3.2-2.9,5.9-2.9c4.7,0,9.2,3.5,9.2,10
		C542.8,179.4,538.4,183.4,533.1,183.4z M532,168.6c-1.8,0-3.1,1-3.7,2v6c0.6,0.8,1.8,1.7,3.7,1.7c2.7,0,4.6-2.1,4.6-4.8
		S534.7,168.6,532,168.6z"/>
	<path class="st0" d="M569.8,169.9c-1.3-0.8-2.6-1.2-4.1-1.2c-2.7,0-4.8,1.9-4.8,4.7c0,2.7,2.1,4.7,5,4.7c1.6,0,2.8-0.3,4.2-1
		l-0.5,5.3c-1.3,0.6-2.9,0.9-4.7,0.9c-5.3,0-10.3-3.8-10.3-9.9c0-6.2,5-10,10.2-10c2.5,0,4.6,0.5,6.3,1.4L569.8,169.9z"/>
	<path class="st0" d="M587,183.7c-1.1-0.3-2.4-1.1-2.9-2.5c-0.8,1.6-2.6,2.3-5,2.3c-3.4,0-6.3-2.4-6.3-6.3c0-3.5,2.7-5.8,6.5-6.2
		l3.8-0.4v-0.6c0-1.1-0.9-1.9-3-1.9c-1.8,0-3.9,0.6-5.3,1.5l-1.1-4.7c1.6-1,4.2-1.7,6.7-1.7c5,0,8.6,2.3,8.6,6.9v6.2
		c0,2.2,0.8,3.4,2.3,3.9L587,183.7z M583.1,174.5l-2.3,0.2c-1.6,0.1-2.3,1.3-2.3,2.4c0,1,0.8,1.8,1.9,1.8c1.5,0,2.7-1.1,2.7-2.8
		V174.5z"/>
	<path class="st0" d="M599.7,183.6c-3.9-0.2-6.5-2.2-6.5-6.8v-23.9h6.1v23.1c0,1.6,0.9,2.4,2.6,2.5L599.7,183.6z"/>
	<path class="st0" d="M610.5,183.6c-3.9-0.2-6.5-2.2-6.5-6.8v-23.9h6.1v23.1c0,1.6,0.9,2.4,2.6,2.5L610.5,183.6z"/>
	<path class="st0" d="M623.9,169.6c-1,1.2-1.5,2.2-1.5,3.3c0,0.6,0,1.3,0.2,1.8l-5.3-1c-0.2-0.8-0.3-1.5-0.3-2.1
		c0-2.3,0.9-4.2,2.4-5.8c1.1-1.1,1.6-1.9,1.6-3.2c0-0.9-0.8-1.9-2.3-1.9c-1.5,0-2.9,0.5-4.3,1.4l-1.3-5.2c1.6-1,3.6-1.6,6-1.6
		c5,0,8.2,2.9,8.2,7.1C627.5,165,626.4,167,623.9,169.6z M620.1,183.4c-1.1,0-3.5-2.4-3.5-3.5c0-1.1,2.4-3.4,3.5-3.4
		s3.5,2.4,3.5,3.4C623.6,181.1,621.3,183.4,620.1,183.4z"/>
</g>
</svg>
