<?xml version="1.0" encoding="utf-8"?>
<!-- Generator: Adobe Illustrator 24.0.0, SVG Export Plug-In . SVG Version: 6.00 Build 0)  -->
<svg version="1.1" id="Layer_1" xmlns="http://www.w3.org/2000/svg" xmlns:xlink="http://www.w3.org/1999/xlink" x="0px" y="0px"
	 viewBox="0 0 970 250" style="enable-background:new 0 0 970 250;" xml:space="preserve">
<style type="text/css">
	.st0{fill:#F9E039;}
</style>
<g>
	<path class="st0" d="M408.7,66.7c-1.3-0.8-3.3-1.4-5.5-1.4c-4.7,0-8.6,3.2-8.6,8.1c0,4.9,3.8,8.2,8.9,8.2c2.2,0,4.2-0.4,5.6-1.2
		l-0.5,5.7c-1.4,0.7-3.4,1-6.1,1c-6.9,0-14.4-4.7-14.4-13.8s7.5-13.8,14.4-13.8c3.3,0,5.9,0.7,7.5,1.6L408.7,66.7z"/>
	<path class="st0" d="M425.9,87.7c-1.1-0.3-2.4-1.1-2.9-2.5c-0.8,1.6-2.6,2.3-5,2.3c-3.4,0-6.3-2.4-6.3-6.3c0-3.5,2.7-5.8,6.5-6.2
		l3.8-0.4v-0.6c0-1.1-0.9-1.9-3-1.9c-1.8,0-3.9,0.6-5.3,1.5l-1.1-4.7c1.6-1,4.2-1.7,6.7-1.7c5,0,8.6,2.3,8.6,6.9v6.2
		c0,2.2,0.8,3.4,2.3,3.9L425.9,87.7z M421.9,78.5l-2.3,0.2c-1.6,0.1-2.3,1.3-2.3,2.4c0,1,0.8,1.8,1.9,1.8c1.5,0,2.7-1.1,2.7-2.8
		V78.5z"/>
	<path class="st0" d="M438.5,87.6c-3.9-0.2-6.5-2.2-6.5-6.8V56.9h6.1v23.1c0,1.6,0.9,2.4,2.6,2.5L438.5,87.6z"/>
	<path class="st0" d="M457.1,73.9c-1.3-0.8-2.6-1.2-4.1-1.2c-2.7,0-4.8,1.9-4.8,4.7c0,2.7,2.1,4.7,5,4.7c1.6,0,2.8-0.3,4.2-1
		l-0.5,5.3c-1.3,0.6-2.9,0.9-4.7,0.9c-5.3,0-10.3-3.8-10.3-9.9c0-6.2,5-10,10.2-10c2.5,0,4.6,0.5,6.3,1.4L457.1,73.9z"/>
	<path class="st0" d="M473.5,86.8v-2.6h0c-0.8,2-2.8,3.2-5.8,3.2c-4.2,0-6.7-2.3-6.7-6.3V67.8h6.2v11.7c0,1.4,1,2.6,2.9,2.6
		c1.8,0,3-1.2,3-2.7V67.8h6.2v19H473.5z"/>
	<path class="st0" d="M489.5,87.6c-3.9-0.2-6.5-2.2-6.5-6.8V56.9h6.1v23.1c0,1.6,0.9,2.4,2.6,2.5L489.5,87.6z"/>
	<path class="st0" d="M507.6,87.7c-1.1-0.3-2.4-1.1-2.9-2.5c-0.8,1.6-2.6,2.3-5,2.3c-3.4,0-6.3-2.4-6.3-6.3c0-3.5,2.7-5.8,6.5-6.2
		l3.8-0.4v-0.6c0-1.1-0.9-1.9-3-1.9c-1.8,0-3.9,0.6-5.3,1.5l-1.1-4.7c1.6-1,4.2-1.7,6.7-1.7c5,0,8.6,2.3,8.6,6.9v6.2
		c0,2.2,0.8,3.4,2.3,3.9L507.6,87.7z M503.7,78.5l-2.3,0.2c-1.6,0.1-2.3,1.3-2.3,2.4c0,1,0.8,1.8,1.9,1.8c1.5,0,2.7-1.1,2.7-2.8
		V78.5z"/>
	<path class="st0" d="M526.1,72.8h-5v7.1c0,1.6,0.9,2.3,2.5,2.3c0.7,0,1.1,0,1.6-0.3l-0.5,4.7c-0.6,0.3-1.6,0.5-2.9,0.5
		c-4.3,0-6.8-2.3-6.8-6v-8.2h-3.2v-5h3.2v-4.1l6.1-2.2v6.3h6.1L526.1,72.8z"/>
	<path class="st0" d="M546.2,76.2l-2.7,2.8h-9.3c0.3,1.6,2.4,3.3,5.6,3.3c2,0,4-0.6,5.3-1.4l-0.6,5.3c-1.4,0.8-3.6,1.3-6,1.3
		c-5.8,0-10.5-4-10.5-10.2c0-6.1,4.5-10,9.9-10c5.3,0,8.5,3.7,8.5,7.6C546.4,75.2,546.3,75.9,546.2,76.2z M537.9,71.8
		c-1.8,0-3.3,1.4-3.7,3.1h6.4c0-0.1,0-0.3,0-0.4C540.7,73.2,539.5,71.8,537.9,71.8z"/>
	<path class="st0" d="M570.5,84.9c-2.9,7.6-5.9,10.4-9.5,11.8l-3.8-3.8c3.1-1.2,5.4-3.4,7-7.4l-6.8-17.7h6l2.8,7.4
		c0.4,1.1,0.8,2.4,1.1,3.7h0.1c0.4-1.3,0.8-2.6,1.2-3.7l2.8-7.4h5.7L570.5,84.9z"/>
	<path class="st0" d="M587.7,87.4c-5.8,0-10.4-4.1-10.4-10.1c0-6,4.6-10.1,10.4-10.1c5.7,0,10.4,4.1,10.4,10.1
		C598.1,83.3,593.4,87.4,587.7,87.4z M587.7,72.5c-2.3,0-4.3,2-4.3,4.8s2,4.8,4.3,4.8c2.3,0,4.3-2,4.3-4.8S590,72.5,587.7,72.5z"/>
	<path class="st0" d="M613.5,86.8v-2.6h0c-0.8,2-2.8,3.2-5.8,3.2c-4.2,0-6.7-2.3-6.7-6.3V67.8h6.2v11.7c0,1.4,1,2.6,2.9,2.6
		c1.8,0,3-1.2,3-2.7V67.8h6.2v19H613.5z"/>
	<path class="st0" d="M634.7,74.3c-0.4-0.2-1.2-0.5-1.8-0.5c-2,0-3.8,1.1-3.8,4.1v8.9h-6.2v-19h6.1V72h0c0.6-3,2.9-4.6,5.4-4.6
		c0.6,0,1.3,0.1,1.8,0.3L634.7,74.3z"/>
</g>
<g>
	<path class="st0" d="M363,135.6c-3.9-0.2-6.5-2.2-6.5-6.8v-23.9h6.1v23.1c0,1.6,0.9,2.4,2.6,2.5L363,135.6z"/>
	<path class="st0" d="M370.6,113.2c-1.1,0-3.3-2.2-3.3-3.3c0-1.1,2.2-3.3,3.3-3.3s3.3,2.2,3.3,3.3
		C373.9,111,371.7,113.2,370.6,113.2z M367.5,134.8v-19h6.2v19H367.5z"/>
	<path class="st0" d="M390.9,110.4c-0.7-0.3-1.7-0.5-2.5-0.5c-2.3,0-3.4,1.3-3.4,4.1v1.8h5.5l-1.2,5H385v14h-6v-14h-2.9v-5h2.9v-2.2
		c0-5.8,3.7-8.7,8.5-8.7c1.8,0,3.5,0.2,4.5,0.6L390.9,110.4z"/>
	<path class="st0" d="M409.3,124.2l-2.7,2.8h-9.3c0.3,1.6,2.4,3.3,5.6,3.3c2,0,4-0.6,5.3-1.4l-0.6,5.3c-1.4,0.8-3.6,1.3-6,1.3
		c-5.8,0-10.5-4-10.5-10.2c0-6.1,4.5-10,9.9-10c5.3,0,8.5,3.7,8.5,7.6C409.5,123.2,409.4,123.9,409.3,124.2z M401,119.8
		c-1.8,0-3.3,1.4-3.7,3.1h6.4c0-0.1,0-0.3,0-0.4C403.7,121.2,402.6,119.8,401,119.8z"/>
	<path class="st0" d="M425.2,120.8h-5v7.1c0,1.6,0.9,2.3,2.5,2.3c0.7,0,1.1,0,1.6-0.3l-0.5,4.7c-0.6,0.3-1.6,0.5-2.9,0.5
		c-4.3,0-6.8-2.3-6.8-6v-8.2H411v-5h3.2v-4.1l6.1-2.2v6.3h6.1L425.2,120.8z"/>
	<path class="st0" d="M431.6,113.2c-1.1,0-3.3-2.2-3.3-3.3c0-1.1,2.2-3.3,3.3-3.3s3.3,2.2,3.3,3.3
		C434.9,111,432.7,113.2,431.6,113.2z M428.5,134.8v-19h6.2v19H428.5z"/>
	<path class="st0" d="M462,134.8v-11.7c0-1.4-0.7-2.6-2.7-2.6c-2,0-2.9,1.2-2.9,2.7v11.6h-6.2v-11.7c0-1.4-0.7-2.6-2.7-2.6
		c-2,0-2.9,1.2-2.9,2.7v11.6h-6.2v-19h5.7v2.6h0c0.8-2,2.6-3.2,5.6-3.2c2.7,0,4.8,1.1,5.6,3.1c0.8-1.8,3-3.1,5.9-3.1
		c4.3,0,6.7,2.4,6.7,6.4v13.2H462z"/>
	<path class="st0" d="M489.4,124.2l-2.7,2.8h-9.3c0.3,1.6,2.4,3.3,5.6,3.3c2,0,4-0.6,5.3-1.4l-0.6,5.3c-1.4,0.8-3.6,1.3-6,1.3
		c-5.8,0-10.5-4-10.5-10.2c0-6.1,4.5-10,9.9-10c5.3,0,8.5,3.7,8.5,7.6C489.6,123.2,489.5,123.9,489.4,124.2z M481.1,119.8
		c-1.8,0-3.3,1.4-3.7,3.1h6.4c0-0.1,0-0.3,0-0.4C483.8,121.2,482.7,119.8,481.1,119.8z"/>
	<path class="st0" d="M505.3,113.2c-1.1,0-3.3-2.2-3.3-3.3c0-1.1,2.2-3.3,3.3-3.3s3.3,2.2,3.3,3.3
		C508.6,111,506.4,113.2,505.3,113.2z M502.2,134.8v-19h6.2v19H502.2z"/>
	<path class="st0" d="M524.3,134.8v-11.7c0-1.4-0.9-2.6-2.8-2.6c-1.8,0-3,1.2-3,2.7v11.6h-6.2v-19h5.7v2.6h0c0.8-2,2.7-3.2,5.8-3.2
		c4.2,0,6.7,2.4,6.7,6.4v13.2H524.3z"/>
	<path class="st0" d="M548.6,121.9c-1.3-0.8-2.6-1.2-4.1-1.2c-2.7,0-4.8,1.9-4.8,4.7c0,2.7,2.1,4.7,5,4.7c1.6,0,2.8-0.3,4.2-1
		l-0.5,5.3c-1.3,0.6-2.9,0.9-4.7,0.9c-5.3,0-10.3-3.8-10.3-9.9c0-6.2,5-10,10.2-10c2.5,0,4.6,0.5,6.3,1.4L548.6,121.9z"/>
	<path class="st0" d="M561.7,135.4c-5.8,0-10.4-4.1-10.4-10.1c0-6,4.6-10.1,10.4-10.1c5.7,0,10.4,4.1,10.4,10.1
		C572.1,131.3,567.5,135.4,561.7,135.4z M561.7,120.5c-2.3,0-4.3,2-4.3,4.8c0,2.8,2,4.8,4.3,4.8c2.3,0,4.3-2,4.3-4.8
		C566,122.6,564,120.5,561.7,120.5z"/>
	<path class="st0" d="M598.5,134.8v-11.7c0-1.4-0.7-2.6-2.7-2.6c-2,0-2.9,1.2-2.9,2.7v11.6h-6.2v-11.7c0-1.4-0.7-2.6-2.7-2.6
		c-2,0-2.9,1.2-2.9,2.7v11.6h-6.2v-19h5.7v2.6h0c0.8-2,2.6-3.2,5.6-3.2c2.7,0,4.8,1.1,5.6,3.1c0.8-1.8,3-3.1,5.9-3.1
		c4.3,0,6.7,2.4,6.7,6.4v13.2H598.5z"/>
	<path class="st0" d="M625.9,124.2l-2.7,2.8h-9.3c0.3,1.6,2.4,3.3,5.6,3.3c2,0,4-0.6,5.3-1.4l-0.6,5.3c-1.4,0.8-3.6,1.3-6,1.3
		c-5.8,0-10.5-4-10.5-10.2c0-6.1,4.5-10,9.9-10c5.3,0,8.5,3.7,8.5,7.6C626,123.2,626,123.9,625.9,124.2z M617.5,119.8
		c-1.8,0-3.3,1.4-3.7,3.1h6.4c0-0.1,0-0.3,0-0.4C620.3,121.2,619.2,119.8,617.5,119.8z"/>
	<path class="st0" d="M641.8,113.2c-1.1,0-3.3-2.2-3.3-3.3c0-1.1,2.2-3.3,3.3-3.3s3.3,2.2,3.3,3.3
		C645.1,111,642.8,113.2,641.8,113.2z M638.6,134.8v-19h6.2v19H638.6z"/>
	<path class="st0" d="M660.8,134.8v-11.7c0-1.4-0.9-2.6-2.8-2.6c-1.8,0-3,1.2-3,2.7v11.6h-6.2v-19h5.7v2.6h0c0.8-2,2.7-3.2,5.8-3.2
		c4.2,0,6.7,2.4,6.7,6.4v13.2H660.8z"/>
</g>
<g>
	<path class="st0" d="M419.3,183.3c-1.6,0-3.7-0.3-5.1-0.9l-0.5-5.4c1.3,0.7,2.9,1.2,4.5,1.2c2.5,0,4.7-1.2,4.7-3.8
		c0-2.1-1.9-3.6-4.2-3.6c-0.3,0-0.4,0-0.8,0.1l-1-4.5c2.3-0.5,4.2-1.7,4.2-3.2c0-1.3-1.1-2.2-2.6-2.2c-1.5,0-2.6,0.4-3.8,1.1
		l-1.2-5.2c1.4-0.8,3.6-1.3,5.8-1.3c5,0,8.2,2.6,8.2,6.4c0,2.8-2,4.6-3.8,5.1c2.9,0.6,5.9,3.2,5.9,7.5
		C429.6,180.1,425.5,183.3,419.3,183.3z"/>
	<path class="st0" d="M441.8,183.5c-5.3,0-9.7-4.5-9.7-14.1c0-9.6,4.4-14,9.7-14c5.3,0,9.6,4.5,9.6,14
		C451.4,179,447,183.5,441.8,183.5z M441.8,160.7c-1.9,0-3.5,2.9-3.5,8.7c0,5.9,1.6,8.7,3.5,8.7c1.9,0,3.5-2.8,3.5-8.7
		C445.3,163.5,443.7,160.7,441.8,160.7z"/>
	<path class="st0" d="M470.3,183.2c-2.6,0-4.5-0.5-6-1.3l-0.5-5.5c1.7,1.2,3.9,2.1,6,2.1c1.1,0,1.8-0.6,1.8-1.3
		c0-0.8-0.6-1.1-1.7-1.5c-3.7-1-5.8-2.9-5.8-6.2c0-3.7,3-6.1,7.1-6.1c2.4,0,4.7,0.6,5.6,1.1l-1.1,4.5c-0.9-0.5-2.4-1.1-3.9-1.1
		c-1,0-1.7,0.5-1.7,1.2c0,0.7,0.5,1.1,1.7,1.4c4.3,1.1,6,3.3,6,6.5C477.8,180.3,475.4,183.2,470.3,183.2z"/>
	<path class="st0" d="M497.9,172.2l-2.7,2.8h-9.3c0.3,1.6,2.4,3.3,5.6,3.3c2,0,4-0.6,5.3-1.4l-0.6,5.3c-1.4,0.8-3.6,1.3-6,1.3
		c-5.8,0-10.5-4-10.5-10.2c0-6.1,4.5-10,9.9-10c5.3,0,8.5,3.7,8.5,7.6C498,171.2,498,171.9,497.9,172.2z M489.5,167.8
		c-1.8,0-3.3,1.4-3.7,3.1h6.4c0-0.1,0-0.3,0-0.4C492.3,169.2,491.1,167.8,489.5,167.8z"/>
	<path class="st0" d="M515.2,169.9c-1.3-0.8-2.6-1.2-4.1-1.2c-2.7,0-4.8,1.9-4.8,4.7c0,2.7,2.1,4.7,5,4.7c1.6,0,2.8-0.3,4.2-1
		l-0.5,5.3c-1.3,0.6-2.9,0.9-4.7,0.9c-5.3,0-10.3-3.8-10.3-9.9c0-6.2,5-10,10.2-10c2.5,0,4.6,0.5,6.3,1.4L515.2,169.9z"/>
	<path class="st0" d="M528.4,183.4c-5.8,0-10.4-4.1-10.4-10.1c0-6,4.6-10.1,10.4-10.1c5.7,0,10.4,4.1,10.4,10.1
		C538.7,179.3,534.1,183.4,528.4,183.4z M528.4,168.5c-2.3,0-4.3,2-4.3,4.8c0,2.8,2,4.8,4.3,4.8c2.3,0,4.3-2,4.3-4.8
		C532.6,170.6,530.6,168.5,528.4,168.5z"/>
	<path class="st0" d="M553.7,182.8v-11.7c0-1.4-0.9-2.6-2.8-2.6c-1.8,0-3,1.2-3,2.7v11.6h-6.2v-19h5.7v2.6h0c0.8-2,2.7-3.2,5.8-3.2
		c4.2,0,6.7,2.4,6.7,6.4v13.2H553.7z"/>
	<path class="st0" d="M577.9,182.8v-2.4h0c-1,1.9-3.2,2.9-5.9,2.9c-4.7,0-9.2-3.5-9.2-10c0-6.1,4.4-10.1,9.7-10.1
		c2,0,4.1,0.7,4.8,1.3v-11.6h6v29.9H577.9z M577.3,170.4c-0.6-0.8-1.8-1.7-3.7-1.7c-2.7,0-4.6,2.1-4.6,4.8s1.9,4.8,4.6,4.8
		c1.8,0,3.1-1,3.7-2V170.4z"/>
	<path class="st0" d="M593.2,183.2c-2.6,0-4.5-0.5-6-1.3l-0.5-5.5c1.7,1.2,3.9,2.1,6,2.1c1.1,0,1.8-0.6,1.8-1.3
		c0-0.8-0.6-1.1-1.7-1.5c-3.7-1-5.8-2.9-5.8-6.2c0-3.7,3-6.1,7.1-6.1c2.4,0,4.7,0.6,5.6,1.1l-1,4.5c-0.9-0.5-2.4-1.1-3.9-1.1
		c-1,0-1.7,0.5-1.7,1.2c0,0.7,0.5,1.1,1.7,1.4c4.3,1.1,6,3.3,6,6.5C600.7,180.3,598.4,183.2,593.2,183.2z"/>
	<path class="st0" d="M606.6,183.4c-1.1,0-3.5-2.4-3.5-3.5c0-1.1,2.4-3.4,3.5-3.4c1.1,0,3.5,2.4,3.5,3.4
		C610,181.1,607.7,183.4,606.6,183.4z"/>
</g>
</svg>
