<?xml version="1.0" encoding="utf-8"?>
<!-- Generator: Adobe Illustrator 24.0.0, SVG Export Plug-In . SVG Version: 6.00 Build 0)  -->
<svg version="1.1" id="Layer_1" xmlns="http://www.w3.org/2000/svg" xmlns:xlink="http://www.w3.org/1999/xlink" x="0px" y="0px"
	 viewBox="0 0 970 250" style="enable-background:new 0 0 970 250;" xml:space="preserve">
<style type="text/css">
	.st0{fill:#F9E039;}
</style>
<g>
	<path class="st0" d="M102.1,116.6c-7.6,0-15.2-4.9-15.2-14.4c0-9.5,7.8-14.4,15.1-14.4c3.8,0,7.1,1,8.9,2.3l-1.2,5.5
		c-1.7-1.1-4.3-1.9-7-1.9c-5,0-9.2,3.3-9.2,8.8c0,5.1,4,8.5,8.9,8.5c1.6,0,2.8-0.3,3.7-0.8v-4.3h-4.8v-5.1h10.9v13.1
		C109.9,115.7,106.5,116.6,102.1,116.6z"/>
	<path class="st0" d="M134.1,105.2l-2.8,2.8h-9.5c0.3,1.6,2.5,3.4,5.8,3.4c2,0,4.1-0.6,5.4-1.5l-0.6,5.4c-1.5,0.8-3.7,1.3-6.2,1.3
		c-5.9,0-10.7-4.1-10.7-10.5c0-6.3,4.6-10.3,10.1-10.3c5.4,0,8.7,3.7,8.7,7.8C134.3,104.1,134.2,104.8,134.1,105.2z M125.6,100.6
		c-1.8,0-3.4,1.4-3.8,3.2h6.6c0-0.1,0-0.3,0-0.4C128.4,102,127.2,100.6,125.6,100.6z"/>
	<path class="st0" d="M150.4,101.7h-5.1v7.2c0,1.7,0.9,2.4,2.6,2.4c0.7,0,1.2,0,1.6-0.3l-0.6,4.8c-0.6,0.3-1.7,0.5-2.9,0.5
		c-4.4,0-7-2.3-7-6.2v-8.4h-3.3v-5.2h3.3v-4.2l6.3-2.3v6.5h6.3L150.4,101.7z"/>
	<path class="st0" d="M172.1,125.9c-5.7,0-9.5-3.2-9.5-7.3c0-3,2-4.7,4-5.2l-2.5-2.5c0.2-1.2,1.2-2.3,2.4-2.8
		c-1.5-0.9-2.8-2.8-2.8-5.2c0-4.1,3-7,8-7c1.2,0,2.1,0.2,2.9,0.4c0.9,0.2,1.8,0.3,2.8,0.3c1.1,0,2.2-0.3,3.1-0.6l1.2,4.8
		c-0.6,0.3-1.5,0.6-2.4,0.6c0.2,0.4,0.5,1.3,0.5,2c0,3.3-2.6,6-6.4,6.3c-0.8,0-1.3,0.2-1.3,0.7c0,0.2,0.2,0.5,0.5,0.6l3,1.1
		c3.8,1.4,5.9,3.3,5.9,6.9C181.4,122.9,177.8,125.9,172.1,125.9z M173.4,116.8l-2.3-0.6c-1.5,0-2.6,1.1-2.6,2.5
		c0,1.3,1.2,2.5,3.4,2.5c2.2,0,3.4-1,3.4-2.1C175.3,118.1,174.7,117.1,173.4,116.8z M171.7,100.5c-1.4,0-2.5,1.1-2.5,2.3
		c0,1.3,1.1,2.3,2.5,2.3c1.4,0,2.5-1,2.5-2.3C174.2,101.6,173.2,100.5,171.7,100.5z"/>
	<path class="st0" d="M196.5,116v-2.7h0c-0.8,2.1-2.8,3.2-6,3.2c-4.3,0-6.8-2.4-6.8-6.5V96.5h6.3v12c0,1.4,1,2.7,2.9,2.7
		c1.9,0,3.1-1.2,3.1-2.8V96.5h6.3V116H196.5z"/>
	<path class="st0" d="M219.9,116.9c-1.2-0.3-2.5-1.2-3-2.6c-0.9,1.6-2.7,2.4-5.1,2.4c-3.4,0-6.5-2.4-6.5-6.4c0-3.6,2.8-6,6.7-6.4
		l3.9-0.4v-0.6c0-1.2-0.9-1.9-3.1-1.9c-1.9,0-4,0.6-5.4,1.5l-1.1-4.8c1.6-1,4.3-1.7,6.8-1.7c5.2,0,8.8,2.4,8.8,7.1v6.4
		c0,2.3,0.9,3.5,2.4,4L219.9,116.9z M215.9,107.5l-2.4,0.2c-1.6,0.1-2.4,1.3-2.4,2.5c0,1,0.8,1.9,2,1.9c1.5,0,2.8-1.2,2.8-2.8V107.5
		z"/>
	<path class="st0" d="M238.4,103.2c-0.4-0.2-1.2-0.5-1.9-0.5c-2,0-3.9,1.1-3.9,4.2v9.1h-6.3V96.5h6.2v4.3h0c0.6-3.1,2.9-4.7,5.5-4.7
		c0.6,0,1.3,0.1,1.8,0.3L238.4,103.2z"/>
	<path class="st0" d="M255.5,116.9c-1.2-0.3-2.5-1.2-3-2.6c-0.9,1.6-2.7,2.4-5.1,2.4c-3.4,0-6.5-2.4-6.5-6.4c0-3.6,2.8-6,6.7-6.4
		l3.9-0.4v-0.6c0-1.2-0.9-1.9-3.1-1.9c-1.9,0-4,0.6-5.4,1.5l-1.1-4.8c1.6-1,4.3-1.7,6.8-1.7c5.2,0,8.8,2.4,8.8,7.1v6.4
		c0,2.3,0.9,3.5,2.4,4L255.5,116.9z M251.5,107.5l-2.4,0.2c-1.6,0.1-2.4,1.3-2.4,2.5c0,1,0.8,1.9,2,1.9c1.5,0,2.8-1.2,2.8-2.8V107.5
		z"/>
	<path class="st0" d="M274.2,116v-12c0-1.4-0.9-2.7-2.9-2.7c-1.9,0-3.1,1.2-3.1,2.8V116h-6.3V96.5h5.8v2.6h0
		c0.8-2.1,2.8-3.2,5.9-3.2c4.3,0,6.8,2.4,6.8,6.5V116H274.2z"/>
	<path class="st0" d="M297.1,101.7H292v7.2c0,1.7,0.9,2.4,2.6,2.4c0.7,0,1.2,0,1.6-0.3l-0.6,4.8c-0.6,0.3-1.7,0.5-2.9,0.5
		c-4.4,0-7-2.3-7-6.2v-8.4h-3.3v-5.2h3.3v-4.2l6.3-2.3v6.5h6.3L297.1,101.7z"/>
	<path class="st0" d="M317.7,105.2l-2.8,2.8h-9.5c0.3,1.6,2.5,3.4,5.8,3.4c2,0,4.1-0.6,5.4-1.5l-0.6,5.4c-1.5,0.8-3.7,1.3-6.2,1.3
		c-5.9,0-10.7-4.1-10.7-10.5c0-6.3,4.6-10.3,10.1-10.3c5.4,0,8.7,3.7,8.7,7.8C317.9,104.1,317.8,104.8,317.7,105.2z M309.2,100.6
		c-1.8,0-3.4,1.4-3.8,3.2h6.6c0-0.1,0-0.3,0-0.4C312,102,310.8,100.6,309.2,100.6z"/>
	<path class="st0" d="M338.5,105.2l-2.8,2.8h-9.5c0.3,1.6,2.5,3.4,5.8,3.4c2,0,4.1-0.6,5.4-1.5l-0.6,5.4c-1.5,0.8-3.7,1.3-6.2,1.3
		c-5.9,0-10.7-4.1-10.7-10.5c0-6.3,4.6-10.3,10.1-10.3c5.4,0,8.7,3.7,8.7,7.8C338.7,104.1,338.6,104.8,338.5,105.2z M330,100.6
		c-1.8,0-3.4,1.4-3.8,3.2h6.6c0-0.1,0-0.3,0-0.4C332.8,102,331.7,100.6,330,100.6z"/>
	<path class="st0" d="M356.1,116v-2.4h0c-1.1,2-3.3,3-6,3c-4.8,0-9.4-3.6-9.4-10.3c0-6.3,4.5-10.4,9.9-10.4c2.1,0,4.2,0.7,4.9,1.3
		V85.4h6.1V116H356.1z M355.5,103.2c-0.6-0.8-1.9-1.8-3.8-1.8c-2.8,0-4.7,2.1-4.7,4.9s1.9,4.9,4.7,4.9c1.8,0,3.1-1,3.8-2V103.2z"/>
	<path class="st0" d="M382.1,116.8c-4-0.2-6.7-2.2-6.7-6.9V85.4h6.2v23.7c0,1.6,0.9,2.5,2.6,2.6L382.1,116.8z"/>
	<path class="st0" d="M389.9,93.9c-1.1,0-3.4-2.3-3.4-3.4c0-1.1,2.3-3.4,3.4-3.4c1.1,0,3.4,2.2,3.4,3.4
		C393.3,91.6,391,93.9,389.9,93.9z M386.7,116V96.5h6.4V116H386.7z"/>
	<path class="st0" d="M410.7,91c-0.7-0.3-1.8-0.5-2.5-0.5c-2.3,0-3.5,1.4-3.5,4.2v1.8h5.6l-1.2,5.2h-4.3V116h-6.1v-14.3h-3v-5.2h3
		v-2.3c0-5.9,3.8-8.9,8.7-8.9c1.8,0,3.6,0.2,4.6,0.6L410.7,91z"/>
	<path class="st0" d="M429.6,105.2l-2.8,2.8h-9.5c0.3,1.6,2.5,3.4,5.8,3.4c2,0,4.1-0.6,5.4-1.5l-0.6,5.4c-1.5,0.8-3.7,1.3-6.2,1.3
		c-5.9,0-10.7-4.1-10.7-10.5c0-6.3,4.6-10.3,10.1-10.3c5.4,0,8.7,3.7,8.7,7.8C429.7,104.1,429.6,104.8,429.6,105.2z M421,100.6
		c-1.8,0-3.4,1.4-3.8,3.2h6.6c0-0.1,0-0.3,0-0.4C423.8,102,422.7,100.6,421,100.6z"/>
	<path class="st0" d="M445.8,101.7h-5.1v7.2c0,1.7,0.9,2.4,2.6,2.4c0.7,0,1.2,0,1.6-0.3l-0.6,4.8c-0.6,0.3-1.7,0.5-2.9,0.5
		c-4.4,0-7-2.3-7-6.2v-8.4h-3.3v-5.2h3.3v-4.2l6.3-2.3v6.5h6.3L445.8,101.7z"/>
	<path class="st0" d="M452.3,93.9c-1.1,0-3.4-2.3-3.4-3.4c0-1.1,2.3-3.4,3.4-3.4c1.1,0,3.4,2.2,3.4,3.4
		C455.7,91.6,453.4,93.9,452.3,93.9z M449.1,116V96.5h6.4V116H449.1z"/>
	<path class="st0" d="M483.4,116v-12c0-1.4-0.7-2.7-2.8-2.7c-2,0-2.9,1.2-2.9,2.8V116h-6.3v-12c0-1.4-0.7-2.7-2.8-2.7
		c-2,0-2.9,1.2-2.9,2.8V116h-6.3V96.5h5.8v2.6h0c0.8-2.1,2.7-3.2,5.8-3.2c2.8,0,4.9,1.1,5.8,3.2c0.8-1.9,3.1-3.2,6-3.2
		c4.4,0,6.9,2.4,6.9,6.5V116H483.4z"/>
	<path class="st0" d="M511.5,105.2l-2.8,2.8h-9.5c0.3,1.6,2.5,3.4,5.8,3.4c2,0,4.1-0.6,5.4-1.5l-0.6,5.4c-1.5,0.8-3.7,1.3-6.2,1.3
		c-5.9,0-10.7-4.1-10.7-10.5c0-6.3,4.6-10.3,10.1-10.3c5.4,0,8.7,3.7,8.7,7.8C511.6,104.1,511.6,104.8,511.5,105.2z M502.9,100.6
		c-1.8,0-3.4,1.4-3.8,3.2h6.6c0-0.1,0-0.3,0-0.4C505.8,102,504.6,100.6,502.9,100.6z"/>
	<path class="st0" d="M527.7,93.9c-1.1,0-3.4-2.3-3.4-3.4c0-1.1,2.3-3.4,3.4-3.4s3.4,2.2,3.4,3.4C531.1,91.6,528.8,93.9,527.7,93.9z
		 M524.5,116V96.5h6.4V116H524.5z"/>
	<path class="st0" d="M547.2,116v-12c0-1.4-0.9-2.7-2.9-2.7c-1.9,0-3.1,1.2-3.1,2.8V116h-6.3V96.5h5.8v2.6h0
		c0.8-2.1,2.8-3.2,5.9-3.2c4.3,0,6.8,2.4,6.8,6.5V116H547.2z"/>
	<path class="st0" d="M572.1,102.8c-1.3-0.8-2.6-1.2-4.2-1.2c-2.8,0-4.9,2-4.9,4.8c0,2.8,2.2,4.8,5.1,4.8c1.6,0,2.9-0.3,4.3-1.1
		l-0.6,5.4c-1.3,0.6-3,0.9-4.8,0.9c-5.5,0-10.5-3.9-10.5-10.1c0-6.4,5.1-10.2,10.4-10.2c2.6,0,4.7,0.5,6.4,1.5L572.1,102.8z"/>
	<path class="st0" d="M585.5,116.6c-5.9,0-10.6-4.2-10.6-10.4s4.7-10.4,10.6-10.4c5.8,0,10.6,4.2,10.6,10.4S591.4,116.6,585.5,116.6
		z M585.5,101.4c-2.4,0-4.4,2.1-4.4,4.9s2,4.9,4.4,4.9c2.3,0,4.4-2.1,4.4-4.9S587.8,101.4,585.5,101.4z"/>
	<path class="st0" d="M623.1,116v-12c0-1.4-0.7-2.7-2.8-2.7c-2,0-2.9,1.2-2.9,2.8V116h-6.3v-12c0-1.4-0.7-2.7-2.8-2.7
		c-2,0-2.9,1.2-2.9,2.8V116h-6.3V96.5h5.8v2.6h0c0.8-2.1,2.7-3.2,5.8-3.2c2.8,0,4.9,1.1,5.8,3.2c0.8-1.9,3.1-3.2,6-3.2
		c4.4,0,6.9,2.4,6.9,6.5V116H623.1z"/>
	<path class="st0" d="M651.1,105.2l-2.8,2.8h-9.5c0.3,1.6,2.5,3.4,5.8,3.4c2,0,4.1-0.6,5.4-1.5l-0.6,5.4c-1.5,0.8-3.7,1.3-6.2,1.3
		c-5.9,0-10.7-4.1-10.7-10.5c0-6.3,4.6-10.3,10.1-10.3c5.4,0,8.7,3.7,8.7,7.8C651.3,104.1,651.2,104.8,651.1,105.2z M642.6,100.6
		c-1.8,0-3.4,1.4-3.8,3.2h6.6c0-0.1,0-0.3,0-0.4C645.4,102,644.3,100.6,642.6,100.6z"/>
</g>
<g>
	<path class="st0" d="M208.1,146.7H203v7.2c0,1.7,0.9,2.4,2.6,2.4c0.7,0,1.2,0,1.6-0.3l-0.6,4.8c-0.6,0.3-1.7,0.5-2.9,0.5
		c-4.4,0-7-2.3-7-6.2v-8.4h-3.3v-5.2h3.3v-4.2l6.3-2.3v6.5h6.3L208.1,146.7z"/>
	<path class="st0" d="M223.6,161v-12c0-1.4-1-2.7-2.9-2.7c-1.9,0-3.1,1.2-3.1,2.8V161h-6.3v-30.6h6.2v12.9h0c1-1.5,2.8-2.4,5.5-2.4
		c4.3,0,6.8,2.4,6.8,6.5V161H223.6z"/>
	<path class="st0" d="M247.5,161.9c-1.2-0.3-2.5-1.2-3-2.6c-0.9,1.6-2.7,2.4-5.1,2.4c-3.4,0-6.5-2.4-6.5-6.4c0-3.6,2.8-6,6.7-6.4
		l3.9-0.4v-0.6c0-1.2-0.9-1.9-3.1-1.9c-1.9,0-4,0.6-5.4,1.5l-1.1-4.8c1.6-1,4.3-1.7,6.8-1.7c5.2,0,8.8,2.4,8.8,7.1v6.4
		c0,2.3,0.9,3.5,2.4,4L247.5,161.9z M243.5,152.5l-2.4,0.2c-1.6,0.1-2.4,1.3-2.4,2.5c0,1,0.8,1.9,2,1.9c1.5,0,2.8-1.2,2.8-2.8V152.5
		z"/>
	<path class="st0" d="M266.4,146.7h-5.1v7.2c0,1.7,0.9,2.4,2.6,2.4c0.7,0,1.2,0,1.6-0.3l-0.6,4.8c-0.6,0.3-1.7,0.5-2.9,0.5
		c-4.4,0-7-2.3-7-6.2v-8.4h-3.3v-5.2h3.3v-4.2l6.3-2.3v6.5h6.3L266.4,146.7z"/>
	<path class="st0" d="M291.7,161v-12c0-1.4-0.9-2.7-2.9-2.7c-1.9,0-3.1,1.2-3.1,2.8V161h-6.3v-19.5h5.8v2.6h0
		c0.8-2.1,2.8-3.2,5.9-3.2c4.3,0,6.8,2.4,6.8,6.5V161H291.7z"/>
	<path class="st0" d="M319.7,150.2l-2.8,2.8h-9.5c0.3,1.6,2.5,3.4,5.8,3.4c2,0,4.1-0.6,5.4-1.5l-0.6,5.4c-1.5,0.8-3.7,1.3-6.2,1.3
		c-5.9,0-10.7-4.1-10.7-10.5c0-6.3,4.6-10.3,10.1-10.3c5.4,0,8.7,3.7,8.7,7.8C319.9,149.2,319.8,149.8,319.7,150.2z M311.2,145.6
		c-1.8,0-3.4,1.4-3.8,3.2h6.6c0-0.1,0-0.3,0-0.4C314,147.1,312.9,145.6,311.2,145.6z"/>
	<path class="st0" d="M332.8,161.2H328l-7.5-19.7h6.1l2.8,7.4c0.4,1,0.8,2.5,1.1,3.8h0.1c0.3-1.2,0.7-2.8,1.1-3.8l2.8-7.4h5.8
		L332.8,161.2z"/>
	<path class="st0" d="M359.3,150.2l-2.8,2.8H347c0.3,1.6,2.5,3.4,5.8,3.4c2,0,4.1-0.6,5.4-1.5l-0.6,5.4c-1.5,0.8-3.7,1.3-6.2,1.3
		c-5.9,0-10.7-4.1-10.7-10.5c0-6.3,4.6-10.3,10.1-10.3c5.4,0,8.7,3.7,8.7,7.8C359.5,149.2,359.4,149.8,359.3,150.2z M350.8,145.6
		c-1.8,0-3.4,1.4-3.8,3.2h6.6c0-0.1,0-0.3,0-0.4C353.6,147.1,352.5,145.6,350.8,145.6z"/>
	<path class="st0" d="M374.6,148.3c-0.4-0.2-1.2-0.5-1.9-0.5c-2,0-3.9,1.1-3.9,4.2v9.1h-6.3v-19.5h6.2v4.3h0
		c0.6-3.1,2.9-4.7,5.5-4.7c0.6,0,1.3,0.1,1.8,0.3L374.6,148.3z"/>
	<path class="st0" d="M400,148.3c-0.4-0.2-1.2-0.5-1.9-0.5c-2,0-3.9,1.1-3.9,4.2v9.1h-6.3v-19.5h6.2v4.3h0c0.6-3.1,2.9-4.7,5.5-4.7
		c0.6,0,1.3,0.1,1.8,0.3L400,148.3z"/>
	<path class="st0" d="M416.3,161v-2.7h0c-0.8,2.1-2.8,3.2-6,3.2c-4.3,0-6.8-2.4-6.8-6.5v-13.5h6.3v12c0,1.4,1,2.7,2.9,2.7
		c1.9,0,3.1-1.2,3.1-2.8v-11.8h6.3V161H416.3z"/>
	<path class="st0" d="M438.2,161v-12c0-1.4-0.9-2.7-2.9-2.7c-1.9,0-3.1,1.2-3.1,2.8V161H426v-19.5h5.8v2.6h0
		c0.8-2.1,2.8-3.2,5.9-3.2c4.3,0,6.8,2.4,6.8,6.5V161H438.2z"/>
	<path class="st0" d="M454.7,161.5c-2.7,0-4.6-0.6-6.2-1.4l-0.6-5.6c1.7,1.2,4,2.1,6.1,2.1c1.2,0,1.9-0.6,1.9-1.3
		c0-0.8-0.6-1.2-1.8-1.5c-3.7-1.1-6-3-6-6.4c0-3.8,3.1-6.3,7.3-6.3c2.4,0,4.8,0.6,5.8,1.2l-1.1,4.6c-0.9-0.5-2.5-1.1-4-1.1
		c-1,0-1.7,0.5-1.7,1.2c0,0.7,0.5,1.1,1.7,1.4c4.4,1.2,6.2,3.4,6.2,6.6C462.3,158.4,459.9,161.5,454.7,161.5z"/>
	<path class="st0" d="M484.9,161.6c-5.9,0-10.6-4.2-10.6-10.4c0-6.2,4.7-10.4,10.6-10.4c5.8,0,10.6,4.2,10.6,10.4
		C495.6,157.5,490.8,161.6,484.9,161.6z M484.9,146.4c-2.4,0-4.4,2.1-4.4,4.9s2,4.9,4.4,4.9c2.3,0,4.4-2.1,4.4-4.9
		S487.3,146.4,484.9,146.4z"/>
	<path class="st0" d="M511.3,161v-2.7h0c-0.8,2.1-2.8,3.2-6,3.2c-4.3,0-6.8-2.4-6.8-6.5v-13.5h6.3v12c0,1.4,1,2.7,2.9,2.7
		c1.9,0,3.1-1.2,3.1-2.8v-11.8h6.3V161H511.3z"/>
	<path class="st0" d="M534.1,146.7H529v7.2c0,1.7,0.9,2.4,2.6,2.4c0.7,0,1.2,0,1.6-0.3l-0.6,4.8c-0.6,0.3-1.7,0.5-2.9,0.5
		c-4.4,0-7-2.3-7-6.2v-8.4h-3.3v-5.2h3.3v-4.2l6.3-2.3v6.5h6.3L534.1,146.7z"/>
	<path class="st0" d="M539.9,161.6c-1.2,0-3.6-2.4-3.6-3.6c0-1.1,2.4-3.5,3.6-3.5c1.2,0,3.6,2.4,3.6,3.5
		C543.5,159.2,541.1,161.6,539.9,161.6z"/>
</g>
</svg>
