<?xml version="1.0" encoding="utf-8"?>
<!-- Generator: Adobe Illustrator 24.0.0, SVG Export Plug-In . SVG Version: 6.00 Build 0)  -->
<svg version="1.1" id="Layer_1" xmlns="http://www.w3.org/2000/svg" xmlns:xlink="http://www.w3.org/1999/xlink" x="0px" y="0px"
	 viewBox="0 0 970 250" style="enable-background:new 0 0 970 250;" xml:space="preserve">
<style type="text/css">
	.st0{fill:#3ABFEF;}
</style>
<path class="st0" d="M725.3,142.9c-9,0-16.2,7.3-16.2,16.2v16c0,9,7.3,16.2,16.2,16.2h190.8c9,0,16.2-7.3,16.2-16.2v-16
	c0-9-7.3-16.2-16.2-16.2H725.3z"/>
<g>
	<path d="M735.2,168.5v-2.6h5.6v7.3h-1.5l-0.5-1.6c-1,1.2-2.1,1.8-3.7,1.8c-4,0-5.7-3.3-5.7-6.9c0-3.7,1.8-7.2,6-7.2
		c3,0,5,1.8,5.4,4.7l-3,0.4c-0.1-1.4-0.9-2.5-2.4-2.5c-2.3,0-2.6,2.9-2.6,4.6c0,1.8,0.5,4.3,2.7,4.3c1.4,0,2.4-1,2.3-2.4H735.2z"/>
	<path d="M744.2,171.3c-1-1.4-1.4-3.2-1.4-4.9c0-3.6,1.8-7,5.9-7c1.8,0,3.3,0.6,4.4,2.1c1,1.3,1.5,3.3,1.5,4.9
		c0,1.6-0.4,3.5-1.3,4.8c-1.1,1.6-2.7,2.3-4.5,2.3S745.3,172.8,744.2,171.3z M746.6,163.5c-0.3,0.8-0.4,2-0.4,2.9
		c0,1.7,0.3,4.5,2.5,4.5c1.1,0,1.7-0.5,2.1-1.6c0.3-0.8,0.4-2,0.4-2.9c0-1-0.1-2.2-0.5-3.1c-0.4-0.9-1-1.3-2-1.3
		C747.6,162,747,162.5,746.6,163.5z"/>
	<path d="M771.7,162.3h-3.4v11h-3.2v-11h-3.5v-2.7h10.1V162.3z"/>
	<path d="M774.2,171.3c-1-1.4-1.4-3.2-1.4-4.9c0-3.6,1.8-7,5.9-7c1.8,0,3.3,0.6,4.4,2.1c1,1.3,1.5,3.3,1.5,4.9
		c0,1.6-0.4,3.5-1.3,4.8c-1.1,1.6-2.7,2.3-4.5,2.3S775.3,172.8,774.2,171.3z M776.6,163.5c-0.3,0.8-0.4,2-0.4,2.9
		c0,1.7,0.3,4.5,2.5,4.5c1.1,0,1.7-0.5,2.1-1.6c0.3-0.8,0.4-2,0.4-2.9c0-1-0.1-2.2-0.5-3.1c-0.4-0.9-1-1.3-2-1.3
		C777.6,162,777,162.5,776.6,163.5z"/>
	<path d="M800.3,164.9c0-1.5-0.5-2.9-2.3-2.9c-2.3,0-2.5,3-2.5,4.6c0,1.9,0.2,4.3,2.6,4.3c1.5,0,2.2-1.3,2.4-2.6l3.1,0.2
		c-0.3,3.1-2.5,5-5.7,5c-4.1,0-6.1-3.3-6.1-7.1c0-3.8,2-7.1,6.2-7.1c3.4,0,5.2,2,5.6,5.3L800.3,164.9z"/>
	<path d="M817.1,173.3h-3.5l-0.8-2.8h-4.4l-0.9,2.8h-2.8l4.4-13.7h3.7L817.1,173.3z M812,167.9l-1.5-4.8l-1.5,4.8H812z"/>
	<path d="M827.2,170.5v2.7h-8.7v-13.7h3.2v11H827.2z"/>
	<path d="M836.3,164.9c0-1.5-0.5-2.9-2.3-2.9c-2.3,0-2.5,3-2.5,4.6c0,1.9,0.2,4.3,2.6,4.3c1.5,0,2.2-1.3,2.4-2.6l3.1,0.2
		c-0.3,3.1-2.5,5-5.7,5c-4.1,0-6.1-3.3-6.1-7.1c0-3.8,2-7.1,6.2-7.1c3.4,0,5.2,2,5.6,5.3L836.3,164.9z"/>
	<path d="M852.5,167.8c0,1.5,0,3.1-1.1,4.2c-1.1,1.1-2.7,1.4-4.2,1.4c-1.4,0-3.1-0.2-4.2-1.2c-1.4-1.2-1.4-2.8-1.4-4.4v-8.3h3.5v8.3
		c0,0.6,0,1.6,0.3,2.1c0.4,0.7,1.3,0.9,2.1,0.9c0.6,0,1.6-0.2,2-0.7c0.4-0.6,0.4-1.6,0.4-2.3v-8.3h2.8V167.8z"/>
	<path d="M863.6,170.5v2.7h-8.7v-13.7h3.2v11H863.6z"/>
	<path d="M876.3,173.3h-3.5l-0.8-2.8h-4.4l-0.9,2.8h-2.8l4.4-13.7h3.7L876.3,173.3z M871.2,167.9l-1.5-4.8l-1.5,4.8H871.2z"/>
	<path d="M885.6,162.3h-3.4v11H879v-11h-3.5v-2.7h10.1V162.3z"/>
	<path d="M888.1,171.3c-1-1.4-1.4-3.2-1.4-4.9c0-3.6,1.8-7,5.9-7c1.8,0,3.3,0.6,4.4,2.1c1,1.3,1.5,3.3,1.5,4.9
		c0,1.6-0.4,3.5-1.3,4.8c-1.1,1.6-2.7,2.3-4.5,2.3S889.2,172.8,888.1,171.3z M890.5,163.5c-0.3,0.8-0.4,2-0.4,2.9
		c0,1.7,0.3,4.5,2.5,4.5c1.1,0,1.7-0.5,2.1-1.6c0.3-0.8,0.4-2,0.4-2.9c0-1-0.1-2.2-0.5-3.1c-0.4-0.9-1-1.3-2-1.3
		C891.5,162,890.9,162.5,890.5,163.5z"/>
	<path d="M903.7,173.3h-3.2v-13.7h5.8c1.2,0,2.5,0,3.5,0.7c1.1,0.7,1.7,2.1,1.7,3.4c0,1.6-0.9,3-2.4,3.5l2.5,6.1h-3.6l-2.1-5.4h-2.3
		V173.3z M903.7,165.5h1.8c0.7,0,1.4,0.1,2-0.3c0.5-0.3,0.8-1,0.8-1.6c0-0.5-0.3-1.1-0.8-1.4c-0.5-0.3-1.5-0.3-2.1-0.3h-1.7V165.5z"
		/>
</g>
</svg>
