<?xml version="1.0" encoding="utf-8"?>
<!-- Generator: Adobe Illustrator 17.0.0, SVG Export Plug-In . SVG Version: 6.00 Build 0)  -->
<!DOCTYPE svg PUBLIC "-//W3C//DTD SVG 1.1//EN" "http://www.w3.org/Graphics/SVG/1.1/DTD/svg11.dtd">
<svg version="1.1" xmlns="http://www.w3.org/2000/svg" xmlns:xlink="http://www.w3.org/1999/xlink" x="0px" y="0px" width="320px"
	 height="50px" viewBox="0 0 320 50" style="enable-background:new 0 0 320 50;" xml:space="preserve">
<style type="text/css">
	.st0{fill:url(#SVGID_1_);}
	.st1{fill:#231F20;}
</style>
<g id="Layer_2">
	<g id="Layer_2_1_">
		<g id="Layer_3">
			<g id="Layer_2_2_">
				
					<radialGradient id="SVGID_1_" cx="654.9012" cy="-2677.5994" r="56.0484" gradientTransform="matrix(2.6752 0 0 -0.1631 -1663.4069 -414.4567)" gradientUnits="userSpaceOnUse">
					<stop  offset="0.2719" style="stop-color:#00C2FF;stop-opacity:0.9"/>
					<stop  offset="0.7601" style="stop-color:#00C2FF;stop-opacity:0"/>
				</radialGradient>
				<rect x="-40.683" y="-3.445" class="st0" width="360.683" height="61.503"/>
			</g>
		</g>
	</g>
</g>
<g id="Layer_1">
	<g>
		<path class="st1" d="M26.542,25.698h-1.415l-0.854-2.521c-0.126-0.392-0.252-0.84-0.378-1.317h-0.028
			c-0.098,0.477-0.224,0.938-0.351,1.303l-0.854,2.536h-1.345l-2.213-6.401h1.877l0.785,2.409c0.112,0.364,0.238,0.812,0.308,1.219
			h0.028c0.07-0.393,0.182-0.854,0.308-1.219l0.798-2.409h1.555l0.798,2.395c0.126,0.392,0.21,0.827,0.294,1.233h0.028
			c0.084-0.406,0.196-0.854,0.322-1.233l0.799-2.395h1.751L26.542,25.698z"/>
		<path class="st1" d="M33.554,25.642v-3.894c0-0.462-0.322-0.869-0.953-0.869c-0.616,0-0.995,0.393-0.995,0.896v3.866h-2.059
			v-9.974h2.031v4.216h0.014c0.322-0.49,0.911-0.784,1.793-0.784c1.401,0,2.228,0.784,2.228,2.129v4.413L33.554,25.642
			L33.554,25.642z"/>
		<path class="st1" d="M42.752,22.112l-0.911,0.924h-3.109c0.098,0.519,0.798,1.106,1.877,1.106c0.658,0,1.331-0.196,1.751-0.476
			l-0.196,1.765c-0.476,0.252-1.205,0.42-2.017,0.42c-1.933,0-3.488-1.345-3.488-3.417c0-2.045,1.485-3.348,3.306-3.348
			c1.765,0,2.844,1.219,2.844,2.536C42.809,21.776,42.78,21.986,42.752,22.112z M39.965,20.627c-0.602,0-1.106,0.462-1.232,1.037
			h2.143c0-0.042,0.014-0.084,0.014-0.14C40.89,21.09,40.511,20.627,39.965,20.627z"/>
		<path class="st1" d="M47.848,25.642v-3.894c0-0.462-0.308-0.869-0.938-0.869c-0.616,0-1.009,0.393-1.009,0.896v3.866h-2.059
			v-6.345h1.891v0.854h0.014c0.252-0.672,0.91-1.05,1.933-1.05c1.387,0,2.227,0.784,2.227,2.129v4.413
			C49.907,25.642,47.848,25.642,47.848,25.642z"/>
		<path class="st1" d="M58.558,20.978h-1.653v2.354c0,0.546,0.294,0.77,0.84,0.77c0.238,0,0.378-0.014,0.532-0.084l-0.182,1.555
			c-0.196,0.098-0.546,0.168-0.953,0.168c-1.429,0-2.283-0.756-2.283-2.017v-2.746h-1.065v-1.681h1.065v-1.359l2.045-0.743v2.102
			h2.045L58.558,20.978z"/>
		<path class="st1" d="M63.709,25.642v-3.894c0-0.462-0.322-0.869-0.953-0.869c-0.616,0-0.995,0.393-0.995,0.896v3.866h-2.059
			v-9.974h2.031v4.216h0.014c0.322-0.49,0.911-0.784,1.793-0.784c1.401,0,2.228,0.784,2.228,2.129v4.413L63.709,25.642
			L63.709,25.642z"/>
		<path class="st1" d="M72.908,22.112l-0.911,0.924h-3.109c0.098,0.519,0.798,1.106,1.877,1.106c0.658,0,1.331-0.196,1.751-0.476
			l-0.196,1.765c-0.476,0.252-1.205,0.42-2.017,0.42c-1.933,0-3.488-1.345-3.488-3.417c0-2.045,1.485-3.348,3.306-3.348
			c1.765,0,2.844,1.219,2.844,2.536C72.964,21.776,72.936,21.986,72.908,22.112z M70.121,20.627c-0.602,0-1.106,0.462-1.232,1.037
			h2.143c0-0.042,0.014-0.084,0.014-0.14C71.045,21.09,70.667,20.627,70.121,20.627z"/>
		<path class="st1" d="M77.653,25.012c-0.966,2.549-1.975,3.474-3.166,3.936l-1.261-1.261c1.022-0.392,1.807-1.134,2.325-2.479
			l-2.283-5.911h1.989l0.925,2.465c0.14,0.364,0.28,0.798,0.378,1.247h0.028c0.126-0.435,0.266-0.883,0.406-1.247l0.924-2.465h1.891
			L77.653,25.012z"/>
		<path class="st1" d="M90.731,25.698h-1.415l-0.854-2.521c-0.126-0.392-0.252-0.84-0.378-1.317h-0.028
			c-0.098,0.477-0.224,0.938-0.351,1.303l-0.854,2.536h-1.345l-2.213-6.401h1.877l0.785,2.409c0.112,0.364,0.238,0.812,0.308,1.219
			h0.028c0.07-0.393,0.182-0.854,0.308-1.219l0.798-2.409h1.555l0.798,2.395c0.126,0.392,0.21,0.827,0.294,1.233h0.028
			c0.084-0.406,0.196-0.854,0.322-1.233l0.799-2.395h1.751L90.731,25.698z"/>
		<path class="st1" d="M96.65,25.838c-1.919,0-3.459-1.359-3.459-3.376s1.541-3.376,3.459-3.376c1.905,0,3.46,1.359,3.46,3.376
			S98.556,25.838,96.65,25.838z M96.65,20.879c-0.77,0-1.429,0.672-1.429,1.611s0.659,1.611,1.429,1.611
			c0.757,0,1.429-0.672,1.429-1.611S97.407,20.879,96.65,20.879z"/>
		<path class="st1" d="M105.093,21.482c-0.126-0.07-0.406-0.154-0.616-0.154c-0.658,0-1.261,0.35-1.261,1.359v2.956h-2.059v-6.345
			h2.031v1.415h0.014c0.21-0.995,0.952-1.527,1.807-1.527c0.196,0,0.435,0.028,0.588,0.084L105.093,21.482z"/>
		<path class="st1" d="M110.259,25.642l-1.877-2.563h-0.014v2.563h-2.031v-9.974h2.031v6.206h0.014l1.905-2.577h2.241l-2.227,3.082
			l2.353,3.264h-2.395V25.642z"/>
		<path class="st1" d="M120.703,20.978h-1.653v2.354c0,0.546,0.294,0.77,0.84,0.77c0.238,0,0.378-0.014,0.533-0.084l-0.182,1.555
			c-0.196,0.098-0.546,0.168-0.953,0.168c-1.429,0-2.283-0.756-2.283-2.017v-2.746h-1.064v-1.681h1.064v-1.359l2.045-0.743v2.102
			h2.045L120.703,20.978z"/>
		<path class="st1" d="M124.888,25.838c-1.919,0-3.459-1.359-3.459-3.376s1.541-3.376,3.459-3.376c1.905,0,3.46,1.359,3.46,3.376
			S126.793,25.838,124.888,25.838z M124.888,20.879c-0.77,0-1.429,0.672-1.429,1.611s0.659,1.611,1.429,1.611
			c0.756,0,1.429-0.672,1.429-1.611S125.645,20.879,124.888,20.879z"/>
		<path class="st1" d="M132.028,28.878c-1.849,0-3.082-1.051-3.082-2.382c0-0.966,0.645-1.541,1.303-1.708l-0.812-0.812
			c0.056-0.406,0.406-0.756,0.771-0.91c-0.477-0.294-0.925-0.896-0.925-1.695c0-1.345,0.967-2.283,2.62-2.283
			c0.378,0,0.672,0.056,0.938,0.126c0.28,0.07,0.588,0.112,0.911,0.112c0.35,0,0.714-0.084,0.994-0.21l0.378,1.569
			c-0.196,0.112-0.504,0.21-0.784,0.196c0.07,0.126,0.154,0.42,0.154,0.645c0,1.064-0.84,1.961-2.073,2.045
			c-0.252,0.014-0.42,0.07-0.42,0.238c0,0.07,0.056,0.154,0.168,0.196l0.98,0.35c1.247,0.448,1.919,1.079,1.919,2.241
			C135.067,27.897,133.877,28.878,132.028,28.878z M132.462,25.894l-0.756-0.21c-0.49,0.014-0.854,0.364-0.854,0.827
			c0,0.434,0.378,0.798,1.121,0.798c0.729,0,1.121-0.336,1.121-0.7C133.092,26.314,132.868,26.006,132.462,25.894z M131.902,20.585
			c-0.462,0-0.812,0.35-0.812,0.756c0,0.42,0.35,0.756,0.812,0.756c0.448,0,0.812-0.336,0.812-0.756
			C132.714,20.936,132.378,20.585,131.902,20.585z"/>
		<path class="st1" d="M141.717,22.112l-0.911,0.924h-3.109c0.098,0.519,0.798,1.106,1.877,1.106c0.658,0,1.331-0.196,1.751-0.476
			l-0.196,1.765c-0.476,0.252-1.205,0.42-2.017,0.42c-1.933,0-3.488-1.345-3.488-3.417c0-2.045,1.485-3.348,3.306-3.348
			c1.765,0,2.844,1.219,2.844,2.536C141.773,21.776,141.745,21.986,141.717,22.112z M138.93,20.627
			c-0.602,0-1.106,0.462-1.232,1.037h2.143c0-0.042,0.014-0.084,0.014-0.14C139.854,21.09,139.476,20.627,138.93,20.627z"/>
		<path class="st1" d="M147.106,20.978h-1.653v2.354c0,0.546,0.294,0.77,0.84,0.77c0.238,0,0.378-0.014,0.532-0.084l-0.182,1.555
			c-0.196,0.098-0.546,0.168-0.953,0.168c-1.429,0-2.283-0.756-2.283-2.017v-2.746h-1.065v-1.681h1.065v-1.359l2.045-0.743v2.102
			h2.045L147.106,20.978z"/>
		<path class="st1" d="M152.258,25.642v-3.894c0-0.462-0.322-0.869-0.953-0.869c-0.616,0-0.995,0.393-0.995,0.896v3.866h-2.059
			v-9.974h2.031v4.216h0.014c0.322-0.49,0.911-0.784,1.793-0.784c1.401,0,2.228,0.784,2.228,2.129v4.413L152.258,25.642
			L152.258,25.642z"/>
		<path class="st1" d="M161.457,22.112l-0.91,0.924h-3.11c0.098,0.519,0.798,1.106,1.877,1.106c0.658,0,1.331-0.196,1.75-0.476
			l-0.195,1.765c-0.477,0.252-1.205,0.42-2.018,0.42c-1.933,0-3.488-1.345-3.488-3.417c0-2.045,1.485-3.348,3.306-3.348
			c1.765,0,2.843,1.219,2.843,2.536C161.513,21.776,161.485,21.986,161.457,22.112z M158.669,20.627
			c-0.602,0-1.106,0.462-1.232,1.037h2.143c0-0.042,0.014-0.084,0.014-0.14C159.594,21.09,159.216,20.627,158.669,20.627z"/>
		<path class="st1" d="M166.482,21.482c-0.126-0.07-0.406-0.154-0.616-0.154c-0.659,0-1.261,0.35-1.261,1.359v2.956h-2.06v-6.345
			h2.031v1.415h0.014c0.21-0.995,0.953-1.527,1.808-1.527c0.195,0,0.434,0.028,0.588,0.084L166.482,21.482z"/>
		<path class="st1" d="M167.853,25.838c-0.378,0-1.162-0.785-1.162-1.163c0-0.364,0.784-1.149,1.162-1.149s1.163,0.785,1.163,1.149
			C169.016,25.054,168.23,25.838,167.853,25.838z"/>
	</g>
</g>
</svg>
