<?xml version="1.0" encoding="utf-8"?>
<!-- Generator: Adobe Illustrator 22.1.0, SVG Export Plug-In . SVG Version: 6.00 Build 0)  -->
<svg version="1.1" id="Layer_1" xmlns="http://www.w3.org/2000/svg" xmlns:xlink="http://www.w3.org/1999/xlink" x="0px" y="0px"
	 viewBox="0 0 201 200.3" style="enable-background:new 0 0 201 200.3;" xml:space="preserve">
<style type="text/css">
	.st0{fill:#BDC2C7;}
</style>
<path class="st0" d="M175.3,129.6c0.6,2.2,0.9,4.4,0.9,6.7c0.1,6.8-2.7,13.4-7.8,18.2c-2,2-4.4,3.8-6.9,5.2
	c-19.1,11.4-35-0.3-43.1-8.7c-2.1-2.2-4.1-4.5-5.8-7c0,0-19.7-22-12.6-47.4l0-0.1c2.3-3.6,4-7.5,5.2-11.6c0,0,0.1-0.1,0.1-0.2
	c0.2-0.3,0.7-0.4,1.5-0.4c0,0,0,0,0.1,0l0,0c3.2,0.2,6.5,0.5,9.7,1.2C139.3,88.8,169.1,104.7,175.3,129.6"/>
<path class="st0" d="M105.3,84.8c0,0.1-0.1,0.1-0.1,0.2c-2.3,3.6-4,7.5-5.2,11.6l0,0.1c-14.4,22.4-44.7,24-44.7,24
	c-3,0.5-6.1,0.8-9.2,0.8c-12,0.2-31.9-2.7-36.4-23.8c-0.6-2.7-0.9-5.5-0.7-8.3l0,0C9,82.5,12.1,76,17.3,71.4c1.7-1.5,3.6-2.9,5.7-4
	c23.2-12.9,55.8-3.3,73.9,10.2c2.7,1.8,5.2,3.7,7.6,5.9l0,0.1C105.1,84,105.4,84.5,105.3,84.8"/>
</svg>
