<?xml version="1.0" encoding="utf-8"?>
<!-- Generator: Adobe Illustrator 22.1.0, SVG Export Plug-In . SVG Version: 6.00 Build 0)  -->
<svg version="1.1" id="Layer_1" xmlns="http://www.w3.org/2000/svg" xmlns:xlink="http://www.w3.org/1999/xlink" x="0px" y="0px"
	 viewBox="0 0 300 250" style="enable-background:new 0 0 300 250;" xml:space="preserve">
<style type="text/css">
	.st0{fill:#495B68;}
	.st1{fill:#F26F44;}
</style>
<path class="st0" d="M106.3,114.9c-0.5,0-0.9-0.4-0.9-0.9l0.1-16.9l-4.1-3.8c-0.4-0.3-0.4-0.9-0.1-1.3c0.3-0.4,0.9-0.4,1.3-0.1
	L107,96c0.2,0.2,0.3,0.4,0.3,0.7l-0.1,17.3C107.2,114.5,106.8,114.9,106.3,114.9"/>
<path class="st1" d="M104.4,149.4l-7.8,0l0.4-55.5c0-2.2,1.8-3.9,3.9-3.9c2.2,0,3.9,1.8,3.9,3.9L104.4,149.4z"/>
<path class="st0" d="M104.4,149.4l-7.8,0l2.8,8.6c0.3,1.1,1.8,1.1,2.2,0L104.4,149.4z"/>
<rect x="98.7" y="114.9" transform="matrix(6.395440e-03 -1 1 6.395440e-03 -18.7472 218.6853)" class="st0" width="4" height="7.8"/>
</svg>
