<svg id="Layer_1" xmlns="http://www.w3.org/2000/svg" viewBox="0 0 300 250"><style>.st0{fill:#fff}</style><path class="st0" d="M11.2 241.9l-.7-.3c1-.5 1.7-1.2 2.1-2-.2.2-.5.3-.8.3-1 0-1.6-.7-1.6-1.6 0-1 .7-1.7 1.7-1.7.9 0 1.7.6 1.7 1.8 0 1.3-1 2.8-2.4 3.5zm.6-4.7c-.5 0-.9.4-.9 1s.4 1 1 1c.4 0 .8-.2 1-.7v-.2c-.1-.6-.6-1.1-1.1-1.1zM15.4 241.9l-.7-.3c1-.5 1.7-1.2 2.1-2-.2.2-.5.3-.8.3-1 0-1.6-.7-1.6-1.6 0-1 .7-1.7 1.7-1.7.9 0 1.7.6 1.7 1.8-.1 1.3-1.1 2.8-2.4 3.5zm.6-4.7c-.5 0-.9.4-.9 1s.4 1 1 1c.4 0 .8-.2 1-.7v-.2c-.1-.6-.6-1.1-1.1-1.1zM20.1 241.8c-.9 0-1.7-.6-1.7-1.8 0-1.4 1-2.8 2.4-3.5l.7.3c-1 .5-1.7 1.2-2.1 2 .2-.2.4-.3.8-.3 1 0 1.6.7 1.6 1.6 0 1-.7 1.7-1.7 1.7zm.1-2.6c-.4 0-.8.2-1 .7v.3c0 .6.5 1.1 1 1.1s.9-.4.9-1c0-.7-.4-1.1-.9-1.1zM24.3 241.8c-.9 0-1.7-.8-1.7-2.7 0-1.8.8-2.6 1.7-2.6.9 0 1.7.9 1.7 2.6 0 1.9-.8 2.7-1.7 2.7zm0-4.6c-.5 0-1 .6-1 2 0 1.5.5 2 1 2s1-.6 1-2c0-1.5-.5-2-1-2zM27.4 241.7v-4.5l-.9.1.1-.6 1.5-.1v5.2h-.7zM28.9 241.7v-.1c1.2-1.4 2.1-2.7 2.1-3.5 0-.6-.4-.9-.8-.9s-.7.1-1 .3l-.2-.6c.3-.2.7-.3 1.2-.3.9 0 1.6.6 1.6 1.6s-.9 2.1-1.6 3H32v.6h-3.1z"/></svg>