<svg id="Layer_1" xmlns="http://www.w3.org/2000/svg" viewBox="0 0 300 250"><style>.st0{fill:#f8df1f}</style><path class="st0" d="M93.2 73.5c-.7-.4-1.8-.8-3-.8-2.6 0-4.7 1.7-4.7 4.5 0 2.7 2.1 4.5 4.9 4.5 1.2 0 2.3-.2 3.1-.6l-.5 3c-.8.4-1.8.6-3.3.6-3.8 0-7.9-2.6-7.9-7.5s4.1-7.6 7.9-7.6c1.8 0 3.2.4 4.1.9l-.6 3zM102.7 84.9c-.6-.1-1.3-.6-1.6-1.4-.5.9-1.4 1.3-2.7 1.3-1.8 0-3.5-1.3-3.5-3.4 0-1.9 1.5-3.2 3.6-3.4l2.1-.2v-.3c0-.6-.5-1-1.6-1-1 0-2.1.3-2.9.8l-.6-2.6c.9-.6 2.3-.9 3.7-.9 2.8 0 4.7 1.3 4.7 3.8V81c0 1.2.5 1.9 1.3 2.2l-2.5 1.7zm-2.2-5l-1.3.1c-.9.1-1.3.7-1.3 1.3 0 .6.4 1 1.1 1 .8 0 1.5-.6 1.5-1.5v-.9zM109.7 84.9c-2.1-.1-3.6-1.2-3.6-3.7V68.1h3.3v12.7c0 .9.5 1.3 1.4 1.4l-1.1 2.7zM120 77.4c-.7-.4-1.4-.7-2.2-.7-1.5 0-2.6 1.1-2.6 2.6s1.2 2.6 2.7 2.6c.9 0 1.5-.2 2.3-.6l-.3 2.9c-.7.3-1.6.5-2.6.5-2.9 0-5.6-2.1-5.6-5.4 0-3.4 2.7-5.4 5.6-5.4 1.4 0 2.5.3 3.4.8l-.7 2.7zM129.1 84.4V83c-.4 1.1-1.5 1.7-3.2 1.7-2.3 0-3.7-1.3-3.7-3.5V74h3.4v6.4c0 .8.5 1.4 1.6 1.4 1 0 1.6-.7 1.6-1.5V74h3.4v10.4h-3.1zM137.9 84.9c-2.1-.1-3.6-1.2-3.6-3.7V68.1h3.3v12.7c0 .9.5 1.3 1.4 1.4l-1.1 2.7zM147.9 84.9c-.6-.1-1.3-.6-1.6-1.4-.5.9-1.4 1.3-2.7 1.3-1.8 0-3.5-1.3-3.5-3.4 0-1.9 1.5-3.2 3.6-3.4l2.1-.2v-.3c0-.6-.5-1-1.6-1-1 0-2.1.3-2.9.8l-.6-2.6c.9-.6 2.3-.9 3.7-.9 2.8 0 4.7 1.3 4.7 3.8V81c0 1.2.5 1.9 1.3 2.2l-2.5 1.7zm-2.2-5l-1.3.1c-.9.1-1.3.7-1.3 1.3 0 .6.4 1 1.1 1 .8 0 1.5-.6 1.5-1.5v-.9zM158.1 76.8h-2.7v3.9c0 .9.5 1.3 1.4 1.3.4 0 .6 0 .9-.1l-.3 2.6c-.3.2-.9.3-1.6.3-2.3 0-3.7-1.2-3.7-3.3V77h-1.7v-3h1.7v-2.2l3.4-1.2V74h3.4l-.8 2.8zM169.3 78.6l-1.5 1.5h-5.1c.2.9 1.3 1.8 3.1 1.8 1.1 0 2.2-.3 2.9-.8l-.3 2.9c-.8.4-2 .7-3.3.7-3.2 0-5.7-2.2-5.7-5.6 0-3.4 2.4-5.5 5.4-5.5 2.9 0 4.7 2 4.7 4.2-.1.3-.2.6-.2.8zm-4.6-2.4c-1 0-1.8.8-2 1.7h3.5v-.2c0-.7-.6-1.5-1.5-1.5zM182.6 83.4c-1.6 4.2-3.2 5.7-5.2 6.5l-2.1-2.1c1.7-.6 3-1.9 3.8-4.1l-3.7-9.7h3.3l1.5 4c.2.6.5 1.3.6 2 .2-.7.4-1.4.7-2l1.5-4h3.1l-3.5 9.4zM192.1 84.8c-3.2 0-5.7-2.2-5.7-5.5s2.5-5.5 5.7-5.5c3.1 0 5.7 2.2 5.7 5.5 0 3.2-2.6 5.5-5.7 5.5zm0-8.2c-1.3 0-2.3 1.1-2.3 2.6s1.1 2.6 2.3 2.6c1.2 0 2.3-1.1 2.3-2.6s-1.1-2.6-2.3-2.6zM206.3 84.4V83c-.4 1.1-1.5 1.7-3.2 1.7-2.3 0-3.7-1.3-3.7-3.5V74h3.4v6.4c0 .8.5 1.4 1.6 1.4 1 0 1.6-.7 1.6-1.5V74h3.4v10.4h-3.1zM218 77.6c-.2-.1-.7-.3-1-.3-1.1 0-2.1.6-2.1 2.2v4.9h-3.4V74h3.3v2.3c.3-1.6 1.6-2.5 3-2.5.3 0 .7 0 1 .1l-.8 3.7z"/><g><path class="st0" d="M79.5 108.8c-2.1-.1-3.6-1.2-3.6-3.7v-13h3.3v12.7c0 .9.5 1.3 1.4 1.4l-1.1 2.6zM83.7 96.6c-.6 0-1.8-1.2-1.8-1.8 0-.6 1.2-1.8 1.8-1.8.6 0 1.8 1.2 1.8 1.8.1.6-1.2 1.8-1.8 1.8zM82 108.4V98h3.4v10.4H82zM94.9 95.1c-.4-.2-.9-.3-1.4-.3-1.2 0-1.9.7-1.9 2.2v1h3l-.7 2.8h-2.3v7.7h-3.3v-7.7h-1.6V98h1.6v-1.2c0-3.2 2-4.7 4.7-4.7 1 0 1.9.1 2.5.3l-.6 2.7zM105.1 102.6l-1.5 1.5h-5.1c.2.9 1.3 1.8 3.1 1.8 1.1 0 2.2-.3 2.9-.8l-.3 2.9c-.8.4-2 .7-3.3.7-3.2 0-5.7-2.2-5.7-5.6 0-3.4 2.4-5.5 5.4-5.5 2.9 0 4.7 2 4.7 4.2-.1.3-.1.6-.2.8zm-4.5-2.4c-1 0-1.8.8-2 1.7h3.5v-.2c0-.7-.6-1.5-1.5-1.5zM114 100.8h-2.7v3.9c0 .9.5 1.3 1.4 1.3.4 0 .6 0 .9-.1l-.3 2.6c-.3.2-.9.3-1.6.3-2.3 0-3.7-1.2-3.7-3.3V101h-1.7v-3h1.7v-2.2l3.4-1.2V98h3.4l-.8 2.8zM117.5 96.6c-.6 0-1.8-1.2-1.8-1.8 0-.6 1.2-1.8 1.8-1.8.6 0 1.8 1.2 1.8 1.8.1.6-1.2 1.8-1.8 1.8zm-1.7 11.8V98h3.4v10.4h-3.4zM134.3 108.4V102c0-.8-.4-1.4-1.5-1.4s-1.6.6-1.6 1.5v6.3h-3.4V102c0-.8-.4-1.4-1.5-1.4s-1.6.6-1.6 1.5v6.3h-3.4V98h3.1v1.4c.4-1.1 1.4-1.7 3.1-1.7 1.5 0 2.6.6 3.1 1.7.4-1 1.7-1.7 3.2-1.7 2.4 0 3.7 1.3 3.7 3.5v7.2h-3.2zM149.4 102.6l-1.5 1.5h-5.1c.2.9 1.3 1.8 3.1 1.8 1.1 0 2.2-.3 2.9-.8l-.3 2.9c-.8.4-2 .7-3.3.7-3.2 0-5.7-2.2-5.7-5.6 0-3.4 2.4-5.5 5.4-5.5 2.9 0 4.7 2 4.7 4.2-.2.3-.2.6-.2.8zm-4.6-2.4c-1 0-1.8.8-2 1.7h3.5v-.2c0-.7-.6-1.5-1.5-1.5zM158 96.6c-.6 0-1.8-1.2-1.8-1.8 0-.6 1.2-1.8 1.8-1.8s1.8 1.2 1.8 1.8c.1.6-1.2 1.8-1.8 1.8zm-1.7 11.8V98h3.4v10.4h-3.4zM168.5 108.4V102c0-.8-.5-1.4-1.5-1.4s-1.7.6-1.7 1.5v6.3H162V98h3.1v1.4c.4-1.1 1.5-1.7 3.2-1.7 2.3 0 3.7 1.3 3.7 3.5v7.2h-3.5zM181.9 101.4c-.7-.4-1.4-.7-2.2-.7-1.5 0-2.6 1.1-2.6 2.6s1.2 2.6 2.7 2.6c.9 0 1.5-.2 2.3-.6l-.3 2.9c-.7.3-1.6.5-2.6.5-2.9 0-5.6-2.1-5.6-5.4 0-3.4 2.7-5.4 5.6-5.4 1.4 0 2.5.3 3.4.8l-.7 2.7zM189.2 108.8c-3.2 0-5.7-2.2-5.7-5.5s2.5-5.5 5.7-5.5c3.1 0 5.7 2.2 5.7 5.5 0 3.2-2.5 5.5-5.7 5.5zm0-8.2c-1.3 0-2.3 1.1-2.3 2.6s1.1 2.6 2.3 2.6c1.2 0 2.3-1.1 2.3-2.6s-1-2.6-2.3-2.6zM209.4 108.4V102c0-.8-.4-1.4-1.5-1.4s-1.6.6-1.6 1.5v6.3H203V102c0-.8-.4-1.4-1.5-1.4s-1.6.6-1.6 1.5v6.3h-3.4V98h3.1v1.4c.4-1.1 1.4-1.7 3.1-1.7 1.5 0 2.6.6 3.1 1.7.4-1 1.7-1.7 3.2-1.7 2.4 0 3.7 1.3 3.7 3.5v7.2h-3.3zM224.5 102.6l-1.5 1.5h-5.1c.2.9 1.3 1.8 3.1 1.8 1.1 0 2.2-.3 2.9-.8l-.3 2.9c-.8.4-2 .7-3.3.7-3.2 0-5.7-2.2-5.7-5.6 0-3.4 2.4-5.5 5.4-5.5 2.9 0 4.7 2 4.7 4.2-.1.3-.1.6-.2.8zm-4.6-2.4c-1 0-1.8.8-2 1.7h3.5v-.2c.1-.7-.6-1.5-1.5-1.5z"/></g><g><path class="st0" d="M86.4 120.6c-.6 0-1.8-1.2-1.8-1.8 0-.6 1.2-1.8 1.8-1.8.6 0 1.8 1.2 1.8 1.8 0 .6-1.2 1.8-1.8 1.8zm-1.7 11.8V122h3.4v10.4h-3.4zM96.9 132.4V126c0-.8-.5-1.4-1.5-1.4s-1.7.6-1.7 1.5v6.3h-3.4V122h3.1v1.4c.4-1.1 1.5-1.7 3.2-1.7 2.3 0 3.7 1.3 3.7 3.5v7.2h-3.4zM110.6 132.7c-.9 0-2-.2-2.8-.5l-.3-2.9c.7.4 1.6.6 2.5.6 1.4 0 2.6-.7 2.6-2.1 0-1.1-1-2-2.3-2h-.4l-.6-2.5c1.3-.3 2.3-.9 2.3-1.8 0-.7-.6-1.2-1.4-1.2-.8 0-1.4.2-2.1.6l-.6-2.8c.8-.4 2-.7 3.2-.7 2.7 0 4.5 1.4 4.5 3.5 0 1.5-1.1 2.5-2.1 2.8 1.6.3 3.2 1.8 3.2 4.1-.1 3.1-2.4 4.9-5.7 4.9zM122.9 132.8c-2.9 0-5.3-2.4-5.3-7.7 0-5.2 2.4-7.7 5.3-7.7s5.3 2.4 5.3 7.7c0 5.2-2.4 7.7-5.3 7.7zm0-12.5c-1 0-1.9 1.6-1.9 4.8 0 3.2.9 4.8 1.9 4.8 1 0 1.9-1.5 1.9-4.8.1-3.2-.8-4.8-1.9-4.8zM138.6 132.7c-1.4 0-2.5-.3-3.3-.7l-.3-3c.9.6 2.1 1.1 3.3 1.1.6 0 1-.3 1-.7 0-.4-.3-.6-.9-.8-2-.6-3.2-1.6-3.2-3.4 0-2 1.7-3.4 3.9-3.4 1.3 0 2.6.3 3.1.6l-.6 2.5c-.5-.3-1.3-.6-2.2-.6-.6 0-.9.3-.9.7 0 .4.3.6.9.8 2.3.6 3.3 1.8 3.3 3.5s-1.3 3.4-4.1 3.4zM153.8 126.6l-1.5 1.5h-5.1c.2.9 1.3 1.8 3.1 1.8 1.1 0 2.2-.3 2.9-.8l-.3 2.9c-.8.4-2 .7-3.3.7-3.2 0-5.7-2.2-5.7-5.6 0-3.4 2.4-5.5 5.4-5.5 2.9 0 4.7 2 4.7 4.2-.1.3-.2.6-.2.8zm-4.6-2.4c-1 0-1.8.8-2 1.7h3.5v-.2c0-.8-.6-1.5-1.5-1.5zM163.4 125.4c-.7-.4-1.4-.7-2.2-.7-1.5 0-2.6 1.1-2.6 2.6s1.2 2.6 2.7 2.6c.9 0 1.5-.2 2.3-.6l-.3 2.9c-.7.3-1.6.5-2.6.5-2.9 0-5.6-2.1-5.6-5.4 0-3.4 2.7-5.4 5.6-5.4 1.4 0 2.5.3 3.4.8l-.7 2.7zM170.7 132.7c-3.2 0-5.7-2.2-5.7-5.5s2.5-5.5 5.7-5.5c3.1 0 5.7 2.2 5.7 5.5s-2.6 5.5-5.7 5.5zm0-8.1c-1.3 0-2.3 1.1-2.3 2.6s1.1 2.6 2.3 2.6c1.2 0 2.3-1.1 2.3-2.6s-1.1-2.6-2.3-2.6zM184.6 132.4V126c0-.8-.5-1.4-1.5-1.4s-1.7.6-1.7 1.5v6.3H178V122h3.1v1.4c.4-1.1 1.5-1.7 3.2-1.7 2.3 0 3.7 1.3 3.7 3.5v7.2h-3.4zM197.9 132.4v-1.3c-.6 1.1-1.8 1.6-3.2 1.6-2.6 0-5-1.9-5-5.5 0-3.4 2.4-5.5 5.3-5.5 1.1 0 2.2.4 2.6.7v-6.3h3.3v16.4h-3zm-.3-6.8c-.3-.4-1-.9-2-.9-1.5 0-2.5 1.1-2.5 2.6s1 2.6 2.5 2.6c1 0 1.7-.5 2-1.1v-3.2zM206.4 132.7c-1.4 0-2.5-.3-3.3-.7l-.3-3c.9.6 2.1 1.1 3.3 1.1.6 0 1-.3 1-.7 0-.4-.3-.6-.9-.8-2-.6-3.2-1.6-3.2-3.4 0-2 1.7-3.4 3.9-3.4 1.3 0 2.6.3 3.1.6l-.6 2.5c-.5-.3-1.3-.6-2.2-.6-.6 0-.9.3-.9.7 0 .4.3.6.9.8 2.3.6 3.3 1.8 3.3 3.5s-1.3 3.4-4.1 3.4zM213.8 132.7c-.6 0-1.9-1.3-1.9-1.9 0-.6 1.3-1.9 1.9-1.9.6 0 1.9 1.3 1.9 1.9 0 .7-1.3 1.9-1.9 1.9z"/></g></svg>