<svg id="Layer_1" xmlns="http://www.w3.org/2000/svg" xmlns:xlink="http://www.w3.org/1999/xlink" viewBox="0 0 300 250"><style>.st0,.st1{fill:#fff}.st1{clip-path:url(#SVGID_2_)}.st2{clip-path:url(#SVGID_4_);fill:url(#SVGID_5_)}.st3{clip-path:url(#SVGID_7_);fill:url(#SVGID_8_)}.st4{clip-path:url(#SVGID_10_);fill:url(#SVGID_11_)}</style><path class="st0" d="M150.6 19v3.6h-6.3v17.2h-4V22.5H134V19h16.6zm1.7 20.7h4V19h-4V39.7zm24.7 0h-4.1l-2.1-5.1h-7l-2.1 5.1h-4l8.8-21h1.8l8.7 21zm19.5 0h-4.1l-2.1-5.1h-7l-2.1 5.1h-4l8.8-21h1.8l8.7 21zm-27.1-8.5l-2.1-5.2-2.1 5.2h4.2zm19.4 0l-2.1-5.2-2.1 5.2h4.2z"/><defs><path id="SVGID_1_" d="M101.3 14h97.5v32.8h-97.5z"/></defs><clipPath id="SVGID_2_"><use xlink:href="#SVGID_1_" overflow="visible"/></clipPath><path class="st1" d="M119.4 41.1c1.8 0 3.4-.7 4.5-1.9l4.9-4.9c1.1-1.1 1.8-2.7 1.8-4.5V14.5h-15.3c-1.8 0-3.4.7-4.5 1.9l-4.9 4.9c-1.1 1.1-1.8 2.7-1.8 4.5v15.3h15.3z"/><defs><path id="SVGID_3_" d="M117.2 15.8c-2.8 0-5 2.2-5 5v1.7h10.5V33h1.7c2.8 0 5-2.3 5-5V15.8h-12.2z"/></defs><clipPath id="SVGID_4_"><use xlink:href="#SVGID_3_" overflow="visible"/></clipPath><linearGradient id="SVGID_5_" gradientUnits="userSpaceOnUse" x1=".582" y1="251.418" x2="1.581" y2="251.418" gradientTransform="scale(16.8965 -16.8965) rotate(45 309.235 132.57)"><stop offset="0" stop-color="#9adbf8"/><stop offset=".1" stop-color="#9adbf8"/><stop offset=".9" stop-color="#009ad8"/><stop offset="1" stop-color="#009ad8"/></linearGradient><path class="st2" d="M103.5 24.4l17.2-17.2 17.2 17.2-17.2 17.2z"/><g><defs><path id="SVGID_6_" d="M124.3 34.3h-13.5l-5.4 5.4h13.9c1.4 0 2.6-.5 3.6-1.5l4.5-4.5-.1-.1c-.9.5-1.9.7-3 .7"/></defs><clipPath id="SVGID_7_"><use xlink:href="#SVGID_6_" overflow="visible"/></clipPath><linearGradient id="SVGID_8_" gradientUnits="userSpaceOnUse" x1=".546" y1="251" x2="1.546" y2="251" gradientTransform="matrix(22.0274 0 0 -22.0274 93.403 5565.505)"><stop offset="0" stop-color="#00aee6"/><stop offset=".111" stop-color="#00aae1"/><stop offset=".255" stop-color="#009fd5"/><stop offset=".419" stop-color="#008ec3"/><stop offset=".596" stop-color="#0078ae"/><stop offset=".783" stop-color="#015f98"/><stop offset=".9" stop-color="#084e8a"/><stop offset="1" stop-color="#084e8a"/></linearGradient><path class="st3" d="M105.4 33.6h22v6.1h-22z"/></g><g><defs><path id="SVGID_9_" d="M106.9 22.2c-1 1-1.5 2.2-1.5 3.6v13.9l5.4-5.4V20.8c0-1.1.3-2.1.8-3.1l-.1-.1-4.6 4.6z"/></defs><clipPath id="SVGID_10_"><use xlink:href="#SVGID_9_" overflow="visible"/></clipPath><linearGradient id="SVGID_11_" gradientUnits="userSpaceOnUse" x1="1" y1="251.454" x2="2" y2="251.454" gradientTransform="matrix(0 -22.0277 -22.0277 0 5647.457 61.731)"><stop offset="0" stop-color="#007ebd"/><stop offset=".211" stop-color="#0073b1"/><stop offset=".63" stop-color="#005c97"/><stop offset=".85" stop-color="#084e8a"/><stop offset="1" stop-color="#084e8a"/></linearGradient><path class="st4" d="M105.4 17.7h6.1v22h-6.1z"/></g></svg>