<?xml version="1.0" encoding="utf-8"?>
<!-- Generator: Adobe Illustrator 17.0.0, SVG Export Plug-In . SVG Version: 6.00 Build 0)  -->
<!DOCTYPE svg PUBLIC "-//W3C//DTD SVG 1.1//EN" "http://www.w3.org/Graphics/SVG/1.1/DTD/svg11.dtd">
<svg version="1.1" id="Layer_1" xmlns="http://www.w3.org/2000/svg" xmlns:xlink="http://www.w3.org/1999/xlink" x="0px" y="0px"
	 width="300px" height="250px" viewBox="0 0 300 250" style="enable-background:new 0 0 300 250;" xml:space="preserve">
<style type="text/css">
	.st0{fill:#231F20;}
</style>
<g>
	<path class="st0" d="M22.406,27.031v5.984h-3.149v-5.921l-5.018-7.475h3.485l2.205,3.212c0.315,0.441,0.672,1.071,0.966,1.617
		h0.042c0.273-0.525,0.693-1.197,0.987-1.617l2.205-3.212h3.254L22.406,27.031z"/>
	<path class="st0" d="M31.583,33.309c-2.876,0-5.186-2.037-5.186-5.06s2.31-5.06,5.186-5.06c2.855,0,5.186,2.037,5.186,5.06
		S34.439,33.309,31.583,33.309z M31.583,25.876c-1.155,0-2.142,1.008-2.142,2.415s0.987,2.415,2.142,2.415
		c1.134,0,2.142-1.008,2.142-2.415S32.717,25.876,31.583,25.876z"/>
	<path class="st0" d="M44.561,33.015v-1.302H44.54c-0.378,1.008-1.386,1.575-2.918,1.575c-2.079,0-3.338-1.155-3.338-3.17v-6.614
		h3.086v5.837c0,0.693,0.483,1.302,1.428,1.302c0.924,0,1.491-0.609,1.491-1.365v-5.774h3.086v9.511H44.561z"/>
	<path class="st0" d="M55.271,26.779c-0.189-0.105-0.609-0.231-0.924-0.231c-0.987,0-1.89,0.525-1.89,2.037v4.43h-3.086v-9.511
		h3.044v2.121h0.021c0.315-1.491,1.428-2.289,2.708-2.289c0.294,0,0.651,0.042,0.882,0.126L55.271,26.779z"/>
	<path class="st0" d="M66.632,33.309c-2.876,0-5.186-2.037-5.186-5.06s2.31-5.06,5.186-5.06c2.855,0,5.186,2.037,5.186,5.06
		S69.488,33.309,66.632,33.309z M66.632,25.876c-1.155,0-2.142,1.008-2.142,2.415s0.987,2.415,2.142,2.415
		c1.134,0,2.142-1.008,2.142-2.415S67.766,25.876,66.632,25.876z"/>
	<path class="st0" d="M76.649,33.393c-1.953-0.084-3.254-1.092-3.254-3.38V18.065h3.044v11.569c0,0.777,0.441,1.197,1.281,1.26
		L76.649,33.393z"/>
	<path class="st0" d="M85.994,33.015v-1.176h-0.021c-0.525,0.966-1.617,1.449-2.939,1.449c-2.331,0-4.577-1.764-4.577-5.018
		c0-3.065,2.184-5.06,4.829-5.06c1.008,0,2.037,0.336,2.415,0.651v-5.795h3.002v14.949H85.994z M85.7,26.779
		c-0.294-0.399-0.924-0.861-1.869-0.861c-1.344,0-2.289,1.05-2.289,2.415s0.945,2.415,2.289,2.415c0.903,0,1.533-0.483,1.869-0.987
		V26.779z"/>
	<path class="st0" d="M101.261,26.779c-0.189-0.105-0.609-0.231-0.924-0.231c-0.987,0-1.89,0.525-1.89,2.037v4.43h-3.086v-9.511
		h3.044v2.121h0.021c0.315-1.491,1.428-2.289,2.708-2.289c0.294,0,0.651,0.042,0.882,0.126L101.261,26.779z"/>
	<path class="st0" d="M111.592,27.724l-1.365,1.386h-4.661c0.147,0.777,1.197,1.659,2.813,1.659c0.987,0,1.995-0.294,2.625-0.714
		L110.71,32.7c-0.714,0.378-1.806,0.63-3.023,0.63c-2.897,0-5.228-2.016-5.228-5.123c0-3.065,2.226-5.018,4.955-5.018
		c2.646,0,4.262,1.827,4.262,3.8C111.676,27.22,111.634,27.535,111.592,27.724z M107.414,25.498c-0.903,0-1.659,0.693-1.848,1.554
		h3.212c0-0.063,0.021-0.126,0.021-0.21C108.8,26.191,108.233,25.498,107.414,25.498z"/>
	<path class="st0" d="M119.635,26.023h-2.478v3.527c0,0.819,0.441,1.155,1.26,1.155c0.357,0,0.567-0.021,0.798-0.126l-0.273,2.331
		c-0.294,0.147-0.819,0.252-1.428,0.252c-2.142,0-3.422-1.134-3.422-3.023v-4.115h-1.596v-2.52h1.596v-2.037l3.065-1.113v3.149
		h3.065L119.635,26.023z"/>
	<path class="st0" d="M122.912,22.202c-0.546,0-1.659-1.113-1.659-1.659s1.113-1.638,1.659-1.638s1.659,1.092,1.659,1.638
		S123.458,22.202,122.912,22.202z M121.358,33.015v-9.511h3.107v9.511H121.358z"/>
	<path class="st0" d="M132.382,26.779c-0.189-0.105-0.609-0.231-0.924-0.231c-0.987,0-1.89,0.525-1.89,2.037v4.43h-3.086v-9.511
		h3.044v2.121h0.021c0.315-1.491,1.428-2.289,2.708-2.289c0.294,0,0.651,0.042,0.882,0.126L132.382,26.779z"/>
	<path class="st0" d="M142.713,27.724l-1.365,1.386h-4.661c0.147,0.777,1.197,1.659,2.813,1.659c0.987,0,1.995-0.294,2.625-0.714
		l-0.294,2.646c-0.714,0.378-1.806,0.63-3.023,0.63c-2.897,0-5.228-2.016-5.228-5.123c0-3.065,2.226-5.018,4.955-5.018
		c2.646,0,4.262,1.827,4.262,3.8C142.797,27.22,142.755,27.535,142.713,27.724z M138.535,25.498c-0.903,0-1.659,0.693-1.848,1.554
		h3.212c0-0.063,0.021-0.126,0.021-0.21C139.921,26.191,139.354,25.498,138.535,25.498z"/>
	<path class="st0" d="M156.048,33.015v-5.837c0-0.693-0.336-1.302-1.344-1.302c-0.987,0-1.428,0.588-1.428,1.344v5.795h-3.087
		v-5.837c0-0.693-0.335-1.302-1.343-1.302c-0.987,0-1.428,0.588-1.428,1.344v5.795h-3.086v-9.511h2.855v1.281h0.021
		c0.378-1.008,1.323-1.575,2.813-1.575c1.365,0,2.395,0.546,2.814,1.554c0.398-0.924,1.512-1.554,2.939-1.554
		c2.162,0,3.359,1.176,3.359,3.191v6.614H156.048z"/>
	<path class="st0" d="M169.824,27.724l-1.365,1.386h-4.661c0.147,0.777,1.196,1.659,2.813,1.659c0.986,0,1.994-0.294,2.625-0.714
		l-0.295,2.646c-0.713,0.378-1.805,0.63-3.023,0.63c-2.896,0-5.228-2.016-5.228-5.123c0-3.065,2.226-5.018,4.955-5.018
		c2.646,0,4.263,1.827,4.263,3.8C169.908,27.22,169.865,27.535,169.824,27.724z M165.646,25.498c-0.903,0-1.659,0.693-1.848,1.554
		h3.212c0-0.063,0.021-0.126,0.021-0.21C167.031,26.191,166.465,25.498,165.646,25.498z"/>
	<path class="st0" d="M177.447,33.015v-5.837c0-0.693-0.462-1.302-1.406-1.302c-0.924,0-1.512,0.588-1.512,1.344v5.795h-3.087
		v-9.511h2.835v1.281h0.021c0.378-1.008,1.364-1.575,2.897-1.575c2.078,0,3.338,1.176,3.338,3.191v6.614H177.447z"/>
	<path class="st0" d="M188.745,26.023h-2.478v3.527c0,0.819,0.441,1.155,1.26,1.155c0.357,0,0.566-0.021,0.798-0.126l-0.272,2.331
		c-0.295,0.147-0.819,0.252-1.428,0.252c-2.143,0-3.423-1.134-3.423-3.023v-4.115h-1.596v-2.52h1.596v-2.037l3.065-1.113v3.149
		h3.065L188.745,26.023z"/>
	<path class="st0" d="M201.85,33.435c-0.567-0.126-1.219-0.567-1.471-1.26c-0.42,0.777-1.322,1.155-2.477,1.155
		c-1.68,0-3.171-1.176-3.171-3.149c0-1.743,1.364-2.918,3.255-3.107l1.889-0.189v-0.315c0-0.567-0.461-0.945-1.49-0.945
		c-0.924,0-1.953,0.294-2.646,0.735l-0.546-2.331c0.777-0.504,2.078-0.84,3.338-0.84c2.52,0,4.305,1.155,4.305,3.443v3.107
		c0,1.113,0.42,1.701,1.154,1.974L201.85,33.435z M199.875,28.857l-1.154,0.105c-0.798,0.063-1.154,0.63-1.154,1.197
		c0,0.504,0.377,0.924,0.965,0.924c0.735,0,1.344-0.567,1.344-1.386V28.857z"/>
	<path class="st0" d="M212.117,26.569c-0.629-0.399-1.28-0.609-2.036-0.609c-1.344,0-2.415,0.966-2.415,2.352
		c0,1.365,1.071,2.352,2.479,2.352c0.797,0,1.406-0.168,2.078-0.525l-0.273,2.625c-0.629,0.294-1.448,0.462-2.33,0.462
		c-2.666,0-5.145-1.89-5.145-4.955c0-3.107,2.499-4.976,5.082-4.976c1.26,0,2.288,0.252,3.128,0.714L212.117,26.569z"/>
	<path class="st0" d="M221.252,26.569c-0.629-0.399-1.28-0.609-2.036-0.609c-1.344,0-2.415,0.966-2.415,2.352
		c0,1.365,1.071,2.352,2.479,2.352c0.797,0,1.406-0.168,2.078-0.525l-0.273,2.625c-0.629,0.294-1.448,0.462-2.33,0.462
		c-2.666,0-5.145-1.89-5.145-4.955c0-3.107,2.499-4.976,5.082-4.976c1.26,0,2.288,0.252,3.128,0.714L221.252,26.569z"/>
	<path class="st0" d="M227.931,33.309c-2.876,0-5.187-2.037-5.187-5.06s2.311-5.06,5.187-5.06c2.855,0,5.187,2.037,5.187,5.06
		S230.786,33.309,227.931,33.309z M227.931,25.876c-1.155,0-2.142,1.008-2.142,2.415s0.986,2.415,2.142,2.415
		c1.134,0,2.142-1.008,2.142-2.415S229.064,25.876,227.931,25.876z"/>
	<path class="st0" d="M240.908,33.015v-1.302h-0.021c-0.378,1.008-1.386,1.575-2.919,1.575c-2.078,0-3.338-1.155-3.338-3.17v-6.614
		h3.086v5.837c0,0.693,0.483,1.302,1.428,1.302c0.924,0,1.491-0.609,1.491-1.365v-5.774h3.087v9.511H240.908z"/>
	<path class="st0" d="M251.724,33.015v-5.837c0-0.693-0.462-1.302-1.407-1.302c-0.924,0-1.512,0.588-1.512,1.344v5.795h-3.086
		v-9.511h2.834v1.281h0.021c0.378-1.008,1.365-1.575,2.897-1.575c2.079,0,3.339,1.176,3.339,3.191v6.614H251.724z"/>
	<path class="st0" d="M263.021,26.023h-2.478v3.527c0,0.819,0.44,1.155,1.26,1.155c0.356,0,0.567-0.021,0.798-0.126l-0.273,2.331
		c-0.293,0.147-0.818,0.252-1.428,0.252c-2.141,0-3.422-1.134-3.422-3.023v-4.115h-1.596v-2.52h1.596v-2.037l3.065-1.113v3.149
		h3.065L263.021,26.023z"/>
	<path class="st0" d="M267.642,33.225c-1.302,0-2.247-0.273-3.023-0.672l-0.272-2.729c0.84,0.588,1.932,1.029,2.98,1.029
		c0.567,0,0.924-0.294,0.924-0.651c0-0.399-0.314-0.567-0.86-0.735c-1.827-0.525-2.919-1.449-2.919-3.107
		c0-1.869,1.512-3.065,3.57-3.065c1.176,0,2.33,0.315,2.812,0.567l-0.524,2.268c-0.462-0.252-1.218-0.525-1.974-0.525
		c-0.504,0-0.84,0.231-0.84,0.609c0,0.357,0.252,0.546,0.84,0.693c2.142,0.567,3.023,1.638,3.023,3.233
		C271.379,31.755,270.203,33.225,267.642,33.225z"/>
</g>
<g>
	<path class="st0" d="M26.668,54.015v-5.837c0-0.693-0.336-1.302-1.344-1.302c-0.987,0-1.428,0.588-1.428,1.344v5.795h-3.086v-5.837
		c0-0.693-0.336-1.302-1.344-1.302c-0.987,0-1.428,0.588-1.428,1.344v5.795h-3.086v-9.511h2.855v1.281h0.021
		c0.378-1.008,1.323-1.575,2.813-1.575c1.365,0,2.394,0.546,2.813,1.554c0.399-0.924,1.512-1.554,2.939-1.554
		c2.163,0,3.359,1.176,3.359,3.191v6.614H26.668z"/>
	<path class="st0" d="M38.429,54.435c-0.567-0.126-1.218-0.567-1.47-1.26c-0.42,0.777-1.323,1.155-2.478,1.155
		c-1.68,0-3.17-1.176-3.17-3.149c0-1.743,1.365-2.918,3.254-3.107l1.89-0.189v-0.315c0-0.567-0.462-0.945-1.491-0.945
		c-0.924,0-1.953,0.294-2.646,0.735l-0.546-2.331c0.777-0.504,2.079-0.84,3.338-0.84c2.52,0,4.304,1.155,4.304,3.443v3.107
		c0,1.113,0.42,1.701,1.155,1.974L38.429,54.435z M36.456,49.857l-1.155,0.105c-0.798,0.063-1.155,0.63-1.155,1.197
		c0,0.504,0.378,0.924,0.966,0.924c0.735,0,1.344-0.567,1.344-1.386V49.857z"/>
	<path class="st0" d="M46.976,53.07c-1.449,3.821-2.96,5.207-4.745,5.9l-1.89-1.89c1.533-0.588,2.708-1.701,3.485-3.716l-3.422-8.86
		h2.981l1.386,3.695c0.21,0.546,0.42,1.197,0.567,1.869h0.042c0.189-0.651,0.399-1.323,0.609-1.869l1.386-3.695h2.834L46.976,53.07z
		"/>
	<path class="st0" d="M60.752,54.288c-2.016,0-3.653-0.693-4.577-1.407V39.065h2.981v5.774c0.399-0.315,1.407-0.63,2.394-0.63
		c2.625,0,4.787,1.869,4.787,4.871C66.337,52.02,64.469,54.288,60.752,54.288z M61.004,46.918c-0.882,0-1.554,0.42-1.848,0.735
		v3.632c0.315,0.231,0.966,0.462,1.554,0.462c1.575,0,2.562-1.071,2.562-2.457C63.272,47.968,62.348,46.918,61.004,46.918z"/>
	<path class="st0" d="M76.585,48.724l-1.365,1.386H70.56c0.147,0.777,1.197,1.659,2.813,1.659c0.987,0,1.995-0.294,2.625-0.714
		L75.704,53.7c-0.714,0.378-1.806,0.63-3.023,0.63c-2.897,0-5.228-2.016-5.228-5.123c0-3.065,2.226-5.018,4.955-5.018
		c2.646,0,4.262,1.827,4.262,3.8C76.669,48.22,76.627,48.535,76.585,48.724z M72.407,46.498c-0.903,0-1.659,0.693-1.848,1.554h3.212
		c0-0.063,0.021-0.126,0.021-0.21C73.793,47.191,73.226,46.498,72.407,46.498z"/>
	<path class="st0" d="M87.527,54.288c-2.016,0-3.653-0.693-4.577-1.407V39.065h2.981v5.774c0.399-0.315,1.407-0.63,2.394-0.63
		c2.625,0,4.787,1.869,4.787,4.871C93.112,52.02,91.243,54.288,87.527,54.288z M87.779,46.918c-0.882,0-1.554,0.42-1.848,0.735
		v3.632c0.315,0.231,0.966,0.462,1.554,0.462c1.575,0,2.562-1.071,2.562-2.457C90.046,47.968,89.123,46.918,87.779,46.918z"/>
	<path class="st0" d="M100.945,54.015v-1.302h-0.021c-0.378,1.008-1.386,1.575-2.918,1.575c-2.079,0-3.338-1.155-3.338-3.17v-6.614
		h3.086v5.837c0,0.693,0.483,1.302,1.428,1.302c0.924,0,1.491-0.609,1.491-1.365v-5.774h3.086v9.511H100.945z"/>
	<path class="st0" d="M105.251,54.015v-0.588l2.373-4.262c0.399-0.693,0.84-1.491,1.26-2.121l-0.021-0.021h-3.233v-2.52h7.265v0.588
		l-2.373,4.262c-0.399,0.693-0.798,1.407-1.26,2.1l0.021,0.042h3.926v2.52H105.251z"/>
	<path class="st0" d="M114.303,54.015v-0.588l2.373-4.262c0.399-0.693,0.84-1.491,1.26-2.121l-0.021-0.021h-3.233v-2.52h7.265v0.588
		l-2.373,4.262c-0.399,0.693-0.798,1.407-1.26,2.1l0.021,0.042h3.926v2.52H114.303z"/>
	<path class="st0" d="M125.411,43.202c-0.546,0-1.659-1.113-1.659-1.659s1.113-1.638,1.659-1.638s1.659,1.092,1.659,1.638
		S125.957,43.202,125.411,43.202z M123.857,54.015v-9.511h3.107v9.511H123.857z"/>
	<path class="st0" d="M134.986,54.015v-5.837c0-0.693-0.462-1.302-1.407-1.302c-0.924,0-1.512,0.588-1.512,1.344v5.795h-3.086
		v-9.511h2.834v1.281h0.021c0.378-1.008,1.365-1.575,2.897-1.575c2.079,0,3.338,1.176,3.338,3.191v6.614H134.986z"/>
	<path class="st0" d="M144.058,58.865c-2.771,0-4.619-1.575-4.619-3.569c0-1.449,0.966-2.31,1.953-2.562l-1.218-1.218
		c0.084-0.609,0.609-1.134,1.155-1.365c-0.714-0.441-1.386-1.344-1.386-2.541c0-2.016,1.449-3.422,3.926-3.422
		c0.567,0,1.008,0.084,1.407,0.189c0.42,0.105,0.882,0.168,1.365,0.168c0.525,0,1.071-0.126,1.491-0.315l0.567,2.352
		c-0.294,0.168-0.756,0.315-1.176,0.294c0.105,0.189,0.231,0.63,0.231,0.966c0,1.596-1.26,2.939-3.107,3.065
		c-0.378,0.021-0.63,0.105-0.63,0.357c0,0.105,0.084,0.231,0.252,0.294l1.47,0.525c1.869,0.672,2.876,1.617,2.876,3.359
		C148.614,57.395,146.83,58.865,144.058,58.865z M144.709,54.393l-1.134-0.315c-0.735,0.021-1.281,0.546-1.281,1.239
		c0,0.651,0.567,1.197,1.68,1.197c1.092,0,1.68-0.504,1.68-1.05C145.654,55.022,145.318,54.561,144.709,54.393z M143.869,46.435
		c-0.693,0-1.218,0.525-1.218,1.134c0,0.63,0.525,1.134,1.218,1.134c0.672,0,1.218-0.504,1.218-1.134
		C145.087,46.96,144.583,46.435,143.869,46.435z"/>
	<path class="st0" d="M161.404,54.435c-0.567-0.126-1.219-0.567-1.471-1.26c-0.42,0.777-1.322,1.155-2.477,1.155
		c-1.68,0-3.171-1.176-3.171-3.149c0-1.743,1.364-2.918,3.255-3.107l1.889-0.189v-0.315c0-0.567-0.461-0.945-1.49-0.945
		c-0.924,0-1.953,0.294-2.646,0.735l-0.546-2.331c0.777-0.504,2.078-0.84,3.338-0.84c2.52,0,4.305,1.155,4.305,3.443v3.107
		c0,1.113,0.42,1.701,1.154,1.974L161.404,54.435z M159.43,49.857l-1.154,0.105c-0.798,0.063-1.154,0.63-1.154,1.197
		c0,0.504,0.377,0.924,0.965,0.924c0.735,0,1.344-0.567,1.344-1.386V49.857z"/>
	<path class="st0" d="M167.83,54.393c-1.953-0.084-3.255-1.092-3.255-3.38V39.065h3.044v11.569c0,0.777,0.441,1.197,1.281,1.26
		L167.83,54.393z"/>
	<path class="st0" d="M174.802,54.309c-2.876,0-5.187-2.037-5.187-5.06s2.311-5.06,5.187-5.06c2.855,0,5.187,2.037,5.187,5.06
		S177.657,54.309,174.802,54.309z M174.802,46.876c-1.155,0-2.142,1.008-2.142,2.415s0.986,2.415,2.142,2.415
		c1.134,0,2.142-1.008,2.142-2.415S175.936,46.876,174.802,46.876z"/>
	<path class="st0" d="M187.548,54.015v-5.837c0-0.693-0.462-1.302-1.407-1.302c-0.924,0-1.512,0.588-1.512,1.344v5.795h-3.086
		v-9.511h2.834v1.281h0.021c0.378-1.008,1.365-1.575,2.897-1.575c2.079,0,3.339,1.176,3.339,3.191v6.614H187.548z"/>
	<path class="st0" d="M196.62,58.865c-2.771,0-4.619-1.575-4.619-3.569c0-1.449,0.966-2.31,1.952-2.562l-1.217-1.218
		c0.084-0.609,0.608-1.134,1.154-1.365c-0.714-0.441-1.386-1.344-1.386-2.541c0-2.016,1.448-3.422,3.927-3.422
		c0.566,0,1.008,0.084,1.406,0.189c0.42,0.105,0.882,0.168,1.365,0.168c0.524,0,1.07-0.126,1.49-0.315l0.566,2.352
		c-0.293,0.168-0.756,0.315-1.176,0.294c0.105,0.189,0.231,0.63,0.231,0.966c0,1.596-1.26,2.939-3.107,3.065
		c-0.378,0.021-0.63,0.105-0.63,0.357c0,0.105,0.084,0.231,0.252,0.294l1.47,0.525c1.868,0.672,2.876,1.617,2.876,3.359
		C201.176,57.395,199.392,58.865,196.62,58.865z M197.271,54.393l-1.135-0.315c-0.734,0.021-1.28,0.546-1.28,1.239
		c0,0.651,0.567,1.197,1.68,1.197c1.092,0,1.68-0.504,1.68-1.05C198.216,55.022,197.88,54.561,197.271,54.393z M196.432,46.435
		c-0.693,0-1.219,0.525-1.219,1.134c0,0.63,0.525,1.134,1.219,1.134c0.672,0,1.217-0.504,1.217-1.134
		C197.648,46.96,197.145,46.435,196.432,46.435z"/>
	<path class="st0" d="M203.572,54.309c-0.567,0-1.743-1.176-1.743-1.743c0-0.546,1.176-1.722,1.743-1.722
		c0.566,0,1.742,1.176,1.742,1.722C205.314,53.133,204.139,54.309,203.572,54.309z"/>
</g>
</svg>
