<?xml version="1.0" encoding="utf-8"?>
<!-- Generator: Adobe Illustrator 17.0.0, SVG Export Plug-In . SVG Version: 6.00 Build 0)  -->
<!DOCTYPE svg PUBLIC "-//W3C//DTD SVG 1.1//EN" "http://www.w3.org/Graphics/SVG/1.1/DTD/svg11.dtd">
<svg version="1.1" id="Layer_2" xmlns="http://www.w3.org/2000/svg" xmlns:xlink="http://www.w3.org/1999/xlink" x="0px" y="0px"
	 width="300px" height="250px" viewBox="0 0 300 250" style="enable-background:new 0 0 300 250;" xml:space="preserve">
<style type="text/css">
	.st0{fill:#231F20;}
</style>
<g>
	<path class="st0" d="M27.993,22.419c-0.63-0.378-1.659-0.693-2.771-0.693c-2.373,0-4.283,1.596-4.283,4.073
		c0,2.457,1.89,4.094,4.43,4.094c1.113,0,2.1-0.21,2.792-0.588l-0.273,2.834c-0.714,0.336-1.68,0.504-3.044,0.504
		c-3.464,0-7.181-2.352-7.181-6.887s3.737-6.908,7.181-6.908c1.659,0,2.96,0.357,3.758,0.819L27.993,22.419z"/>
	<path class="st0" d="M34.693,32.749c-2.876,0-5.186-2.037-5.186-5.06s2.31-5.06,5.186-5.06c2.855,0,5.186,2.037,5.186,5.06
		S37.548,32.749,34.693,32.749z M34.693,25.316c-1.155,0-2.142,1.008-2.142,2.415s0.987,2.415,2.142,2.415
		c1.134,0,2.142-1.008,2.142-2.415S35.827,25.316,34.693,25.316z"/>
	<path class="st0" d="M47.439,32.455v-5.837c0-0.693-0.462-1.302-1.407-1.302c-0.924,0-1.512,0.588-1.512,1.344v5.795h-3.086v-9.511
		h2.834v1.281h0.021c0.378-1.008,1.365-1.575,2.897-1.575c2.079,0,3.338,1.176,3.338,3.191v6.614H47.439z"/>
	<path class="st0" d="M55.546,32.665c-1.302,0-2.247-0.273-3.023-0.672l-0.273-2.729c0.84,0.588,1.932,1.029,2.981,1.029
		c0.567,0,0.924-0.294,0.924-0.651c0-0.399-0.315-0.567-0.861-0.735c-1.827-0.525-2.918-1.449-2.918-3.107
		c0-1.869,1.512-3.065,3.569-3.065c1.176,0,2.331,0.315,2.813,0.567l-0.525,2.268c-0.462-0.252-1.218-0.525-1.974-0.525
		c-0.504,0-0.84,0.231-0.84,0.609c0,0.357,0.252,0.546,0.84,0.693c2.142,0.567,3.023,1.638,3.023,3.233
		C59.283,31.195,58.107,32.665,55.546,32.665z"/>
	<path class="st0" d="M65.5,32.749c-2.876,0-5.186-2.037-5.186-5.06s2.31-5.06,5.186-5.06c2.855,0,5.186,2.037,5.186,5.06
		S68.355,32.749,65.5,32.749z M65.5,25.316c-1.155,0-2.142,1.008-2.142,2.415s0.987,2.415,2.142,2.415
		c1.134,0,2.142-1.008,2.142-2.415S66.633,25.316,65.5,25.316z"/>
	<path class="st0" d="M75.517,32.833c-1.953-0.084-3.254-1.092-3.254-3.38V17.506h3.044v11.569c0,0.777,0.441,1.197,1.281,1.26
		L75.517,32.833z"/>
	<path class="st0" d="M79.423,21.642c-0.546,0-1.659-1.113-1.659-1.659s1.113-1.638,1.659-1.638s1.659,1.092,1.659,1.638
		S79.969,21.642,79.423,21.642z M77.869,32.455v-9.511h3.107v9.511H77.869z"/>
	<path class="st0" d="M90.089,32.455v-1.176h-0.021c-0.525,0.966-1.617,1.449-2.939,1.449c-2.331,0-4.577-1.764-4.577-5.018
		c0-3.065,2.184-5.06,4.829-5.06c1.008,0,2.037,0.336,2.415,0.651v-5.795h3.002v14.949H90.089z M89.795,26.219
		c-0.294-0.399-0.924-0.861-1.869-0.861c-1.344,0-2.289,1.05-2.289,2.415s0.945,2.415,2.289,2.415c0.903,0,1.533-0.483,1.869-0.987
		V26.219z"/>
	<path class="st0" d="M101.514,32.875c-0.567-0.126-1.218-0.567-1.47-1.26c-0.42,0.777-1.323,1.155-2.478,1.155
		c-1.68,0-3.17-1.176-3.17-3.149c0-1.743,1.365-2.918,3.254-3.107l1.89-0.189v-0.315c0-0.567-0.462-0.945-1.491-0.945
		c-0.924,0-1.953,0.294-2.646,0.735l-0.546-2.331c0.777-0.504,2.079-0.84,3.338-0.84c2.52,0,4.304,1.155,4.304,3.443v3.107
		c0,1.113,0.42,1.701,1.155,1.974L101.514,32.875z M99.54,28.298l-1.155,0.105c-0.798,0.063-1.155,0.63-1.155,1.197
		c0,0.504,0.378,0.924,0.966,0.924c0.735,0,1.344-0.567,1.344-1.386V28.298z"/>
	<path class="st0" d="M110.879,25.463h-2.478v3.527c0,0.819,0.441,1.155,1.26,1.155c0.357,0,0.567-0.021,0.798-0.126l-0.273,2.331
		c-0.294,0.147-0.819,0.252-1.428,0.252c-2.142,0-3.422-1.134-3.422-3.023v-4.115h-1.596v-2.52h1.596v-2.037l3.065-1.113v3.149
		h3.065L110.879,25.463z"/>
	<path class="st0" d="M121.064,27.164l-1.365,1.386h-4.661c0.147,0.777,1.197,1.659,2.813,1.659c0.987,0,1.995-0.294,2.625-0.714
		l-0.294,2.646c-0.714,0.378-1.806,0.63-3.023,0.63c-2.897,0-5.228-2.016-5.228-5.123c0-3.065,2.226-5.018,4.955-5.018
		c2.646,0,4.262,1.827,4.262,3.8C121.148,26.66,121.106,26.975,121.064,27.164z M116.886,24.938c-0.903,0-1.659,0.693-1.848,1.554
		h3.212c0-0.063,0.021-0.126,0.021-0.21C118.271,25.631,117.705,24.938,116.886,24.938z"/>
	<path class="st0" d="M134.63,26.009c-0.63-0.399-1.281-0.609-2.037-0.609c-1.344,0-2.415,0.966-2.415,2.352
		c0,1.365,1.071,2.352,2.478,2.352c0.798,0,1.407-0.168,2.079-0.525l-0.273,2.625c-0.63,0.294-1.449,0.462-2.331,0.462
		c-2.667,0-5.144-1.89-5.144-4.955c0-3.107,2.499-4.976,5.081-4.976c1.26,0,2.289,0.252,3.128,0.714L134.63,26.009z"/>
	<path class="st0" d="M141.308,32.749c-2.876,0-5.186-2.037-5.186-5.06s2.31-5.06,5.186-5.06c2.855,0,5.186,2.037,5.186,5.06
		S144.164,32.749,141.308,32.749z M141.308,25.316c-1.155,0-2.142,1.008-2.142,2.415s0.987,2.415,2.142,2.415
		c1.134,0,2.142-1.008,2.142-2.415S142.442,25.316,141.308,25.316z"/>
	<path class="st0" d="M154.055,32.455v-5.837c0-0.693-0.462-1.302-1.406-1.302c-0.924,0-1.512,0.588-1.512,1.344v5.795h-3.087
		v-9.511h2.835v1.281h0.021c0.378-1.008,1.364-1.575,2.897-1.575c2.078,0,3.338,1.176,3.338,3.191v6.614H154.055z"/>
	<path class="st0" d="M165.688,20.256c-0.356-0.147-0.86-0.252-1.239-0.252c-1.133,0-1.721,0.672-1.721,2.037v0.903h2.729
		l-0.608,2.52h-2.12v6.992h-2.982v-6.992h-1.448v-2.52h1.448v-1.113c0-2.897,1.869-4.325,4.263-4.325
		c0.882,0,1.764,0.105,2.247,0.315L165.688,20.256z"/>
	<path class="st0" d="M168.355,21.642c-0.545,0-1.658-1.113-1.658-1.659s1.113-1.638,1.658-1.638c0.547,0,1.659,1.092,1.659,1.638
		S168.902,21.642,168.355,21.642z M166.803,32.455v-9.511h3.107v9.511H166.803z"/>
	<path class="st0" d="M179.023,32.455v-1.176h-0.021c-0.524,0.966-1.616,1.449-2.939,1.449c-2.33,0-4.576-1.764-4.576-5.018
		c0-3.065,2.184-5.06,4.828-5.06c1.008,0,2.037,0.336,2.415,0.651v-5.795h3.003v14.949H179.023z M178.729,26.219
		c-0.294-0.399-0.924-0.861-1.868-0.861c-1.344,0-2.289,1.05-2.289,2.415s0.945,2.415,2.289,2.415c0.902,0,1.532-0.483,1.868-0.987
		V26.219z"/>
	<path class="st0" d="M192.42,27.164l-1.364,1.386h-4.661c0.146,0.777,1.197,1.659,2.813,1.659c0.987,0,1.995-0.294,2.624-0.714
		l-0.293,2.646c-0.715,0.378-1.807,0.63-3.023,0.63c-2.898,0-5.229-2.016-5.229-5.123c0-3.065,2.226-5.018,4.955-5.018
		c2.646,0,4.262,1.827,4.262,3.8C192.504,26.66,192.463,26.975,192.42,27.164z M188.242,24.938c-0.902,0-1.658,0.693-1.848,1.554
		h3.213c0-0.063,0.021-0.126,0.021-0.21C189.628,25.631,189.061,24.938,188.242,24.938z"/>
	<path class="st0" d="M200.044,32.455v-5.837c0-0.693-0.462-1.302-1.407-1.302c-0.924,0-1.512,0.588-1.512,1.344v5.795h-3.086
		v-9.511h2.834v1.281h0.021c0.378-1.008,1.365-1.575,2.897-1.575c2.079,0,3.339,1.176,3.339,3.191v6.614H200.044z"/>
	<path class="st0" d="M211.362,25.463h-2.478v3.527c0,0.819,0.441,1.155,1.26,1.155c0.357,0,0.566-0.021,0.798-0.126l-0.272,2.331
		c-0.295,0.147-0.819,0.252-1.428,0.252c-2.143,0-3.423-1.134-3.423-3.023v-4.115h-1.596v-2.52h1.596v-2.037l3.065-1.113v3.149
		h3.065L211.362,25.463z"/>
	<path class="st0" d="M216.277,32.833c-1.953-0.084-3.255-1.092-3.255-3.38V17.506h3.044v11.569c0,0.777,0.441,1.197,1.281,1.26
		L216.277,32.833z"/>
	<path class="st0" d="M224.047,31.51c-1.449,3.821-2.961,5.207-4.746,5.9l-1.889-1.89c1.532-0.588,2.708-1.701,3.484-3.716
		l-3.422-8.86h2.981l1.386,3.695c0.21,0.546,0.42,1.197,0.566,1.869h0.043c0.188-0.651,0.398-1.323,0.608-1.869l1.386-3.695h2.834
		L224.047,31.51z"/>
</g>
<g>
	<path class="st0" d="M28.413,53.539h-2.121l-1.281-3.779c-0.189-0.588-0.378-1.26-0.567-1.974h-0.042
		c-0.147,0.714-0.336,1.407-0.525,1.953l-1.281,3.8h-2.016l-3.317-9.595h2.813l1.176,3.611c0.168,0.546,0.357,1.218,0.462,1.827
		h0.042c0.105-0.588,0.273-1.281,0.462-1.827l1.197-3.611h2.331l1.197,3.59c0.189,0.588,0.315,1.239,0.441,1.848h0.042
		c0.126-0.609,0.294-1.281,0.483-1.848l1.197-3.59h2.625L28.413,53.539z"/>
	<path class="st0" d="M34.441,42.642c-0.546,0-1.659-1.113-1.659-1.659s1.113-1.638,1.659-1.638s1.659,1.092,1.659,1.638
		S34.987,42.642,34.441,42.642z M32.888,53.455v-9.511h3.107v9.511H32.888z"/>
	<path class="st0" d="M44.332,46.463h-2.478v3.527c0,0.819,0.441,1.155,1.26,1.155c0.357,0,0.567-0.021,0.798-0.126l-0.273,2.331
		c-0.294,0.147-0.819,0.252-1.428,0.252c-2.142,0-3.422-1.134-3.422-3.023v-4.115h-1.596v-2.52h1.596v-2.037l3.065-1.113v3.149
		h3.065L44.332,46.463z"/>
	<path class="st0" d="M52.039,53.455v-5.837c0-0.693-0.483-1.302-1.428-1.302c-0.924,0-1.491,0.588-1.491,1.344v5.795h-3.086V38.506
		h3.044v6.32h0.021c0.483-0.735,1.365-1.176,2.688-1.176c2.1,0,3.338,1.176,3.338,3.191v6.614H52.039z"/>
	<path class="st0" d="M68.46,53.875c-0.567-0.126-1.218-0.567-1.47-1.26c-0.42,0.777-1.323,1.155-2.478,1.155
		c-1.68,0-3.17-1.176-3.17-3.149c0-1.743,1.365-2.918,3.254-3.107l1.89-0.189v-0.315c0-0.567-0.462-0.945-1.491-0.945
		c-0.924,0-1.953,0.294-2.646,0.735l-0.546-2.331c0.777-0.504,2.079-0.84,3.338-0.84c2.52,0,4.304,1.155,4.304,3.443v3.107
		c0,1.113,0.42,1.701,1.155,1.974L68.46,53.875z M66.486,49.298l-1.155,0.105c-0.798,0.063-1.155,0.63-1.155,1.197
		c0,0.504,0.378,0.924,0.966,0.924c0.735,0,1.344-0.567,1.344-1.386V49.298z"/>
	<path class="st0" d="M82.698,42.726v10.729h-3.254V42.726h-3.842V40.06H86.54v2.667H82.698z"/>
	<path class="st0" d="M87.865,53.455V40.06h3.254v13.396H87.865z"/>
	<path class="st0" d="M101.996,53.455l-1.113-3.023h-4.262l-1.113,3.023h-3.065l5.27-13.5h2.247l5.27,13.5H101.996z M99.162,45.414
		c-0.126-0.357-0.294-0.798-0.399-1.239h-0.042c-0.105,0.441-0.252,0.903-0.378,1.239l-0.903,2.478h2.625L99.162,45.414z"/>
	<path class="st0" d="M115.604,53.455l-1.113-3.023h-4.262l-1.113,3.023h-3.065l5.27-13.5h2.247l5.27,13.5H115.604z M112.77,45.414
		c-0.126-0.357-0.294-0.798-0.399-1.239h-0.042c-0.105,0.441-0.252,0.903-0.378,1.239l-0.903,2.478h2.625L112.77,45.414z"/>
	<path class="st0" d="M125.098,53.455V40.06h3.254v13.396H125.098z"/>
	<path class="st0" d="M138.515,53.455l-3.59-5.27h-0.861v5.27h-3.128V40.06h4.892c2.289,0,4.325,1.533,4.325,4.052
		c0,1.554-0.924,2.834-2.058,3.359l4.262,5.984H138.515z M135.345,42.684h-1.281v3.002h1.281c0.84,0,1.68-0.462,1.68-1.491
		C137.024,43.188,136.185,42.684,135.345,42.684z"/>
	<path class="st0" d="M152.312,53.455l-1.113-3.023h-4.262l-1.113,3.023h-3.065l5.27-13.5h2.247l5.27,13.5H152.312z M149.478,45.414
		c-0.126-0.357-0.294-0.798-0.399-1.239h-0.042c-0.105,0.441-0.252,0.903-0.378,1.239l-0.903,2.478h2.625L149.478,45.414z"/>
	<path class="st0" d="M158.654,53.749c-0.566,0-1.742-1.176-1.742-1.743c0-0.546,1.176-1.722,1.742-1.722
		c0.567,0,1.743,1.176,1.743,1.722C160.397,52.573,159.222,53.749,158.654,53.749z"/>
</g>
</svg>
