<?xml version="1.0" encoding="utf-8"?>
<!-- Generator: Adobe Illustrator 17.0.0, SVG Export Plug-In . SVG Version: 6.00 Build 0)  -->
<!DOCTYPE svg PUBLIC "-//W3C//DTD SVG 1.1//EN" "http://www.w3.org/Graphics/SVG/1.1/DTD/svg11.dtd">
<svg version="1.1" id="Layer_1" xmlns="http://www.w3.org/2000/svg" xmlns:xlink="http://www.w3.org/1999/xlink" x="0px" y="0px"
	 width="300px" height="250px" viewBox="0 0 300 250" style="enable-background:new 0 0 300 250;" xml:space="preserve">
<style type="text/css">
	.st0{fill:#231F20;}
</style>
<g>
	<path class="st0" d="M21.038,32.015h-4.955V18.619h4.388c2.079,0,3.926,1.365,3.926,3.548c0,0.798-0.399,1.806-1.113,2.205
		c1.176,0.378,2.331,1.764,2.331,3.464C25.615,30.44,23.558,32.015,21.038,32.015z M19.967,21.034h-0.966v2.75h0.966
		c0.777,0,1.491-0.399,1.491-1.365C21.458,21.433,20.744,21.034,19.967,21.034z M20.492,26.136h-1.491v3.506h1.491
		c0.987,0,1.995-0.525,1.995-1.743C22.487,26.703,21.5,26.136,20.492,26.136z"/>
	<path class="st0" d="M33.596,32.015v-1.302h-0.021c-0.378,1.008-1.386,1.575-2.918,1.575c-2.079,0-3.338-1.155-3.338-3.17v-6.614
		h3.086v5.837c0,0.693,0.483,1.302,1.428,1.302c0.924,0,1.491-0.609,1.491-1.365v-5.774h3.086v9.511H33.596z"/>
	<path class="st0" d="M44.789,25.023h-2.478v3.527c0,0.819,0.441,1.155,1.26,1.155c0.357,0,0.567-0.021,0.798-0.126l-0.273,2.331
		c-0.294,0.147-0.819,0.252-1.428,0.252c-2.142,0-3.422-1.134-3.422-3.023v-4.115H37.65v-2.52h1.596v-2.037l3.065-1.113v3.149h3.065
		L44.789,25.023z"/>
	<path class="st0" d="M52.812,21.202c-0.546,0-1.659-1.113-1.659-1.659s1.113-1.638,1.659-1.638s1.659,1.092,1.659,1.638
		S53.357,21.202,52.812,21.202z M51.258,32.015v-9.511h3.107v9.511H51.258z"/>
	<path class="st0" d="M63.037,19.816c-0.357-0.147-0.861-0.252-1.239-0.252c-1.134,0-1.722,0.672-1.722,2.037v0.903h2.729
		l-0.609,2.52h-2.121v6.992h-2.981v-6.992h-1.449v-2.52h1.449v-1.113c0-2.897,1.869-4.325,4.262-4.325
		c0.882,0,1.764,0.105,2.247,0.315L63.037,19.816z"/>
	<path class="st0" d="M75.028,25.023h-2.478v3.527c0,0.819,0.441,1.155,1.26,1.155c0.357,0,0.567-0.021,0.798-0.126l-0.273,2.331
		c-0.294,0.147-0.819,0.252-1.428,0.252c-2.142,0-3.422-1.134-3.422-3.023v-4.115H67.89v-2.52h1.596v-2.037l3.065-1.113v3.149h3.065
		L75.028,25.023z"/>
	<path class="st0" d="M82.735,32.015v-5.837c0-0.693-0.483-1.302-1.428-1.302c-0.924,0-1.491,0.588-1.491,1.344v5.795H76.73V17.065
		h3.044v6.32h0.021c0.483-0.735,1.365-1.176,2.688-1.176c2.1,0,3.338,1.176,3.338,3.191v6.614H82.735z"/>
	<path class="st0" d="M96.489,26.724l-1.365,1.386h-4.661c0.147,0.777,1.197,1.659,2.813,1.659c0.987,0,1.995-0.294,2.625-0.714
		L95.607,31.7c-0.714,0.378-1.806,0.63-3.023,0.63c-2.897,0-5.228-2.016-5.228-5.123c0-3.065,2.226-5.018,4.955-5.018
		c2.646,0,4.262,1.827,4.262,3.8C96.573,26.22,96.531,26.535,96.489,26.724z M92.311,24.498c-0.903,0-1.659,0.693-1.848,1.554h3.212
		c0-0.063,0.021-0.126,0.021-0.21C93.697,25.191,93.13,24.498,92.311,24.498z"/>
	<path class="st0" d="M103.567,31.07c-1.449,3.821-2.96,5.207-4.745,5.9l-1.89-1.89c1.533-0.588,2.708-1.701,3.485-3.716
		l-3.422-8.86h2.981l1.386,3.695c0.21,0.546,0.42,1.197,0.567,1.869h0.042c0.189-0.651,0.399-1.323,0.609-1.869l1.386-3.695h2.834
		L103.567,31.07z"/>
	<path class="st0" d="M123.18,32.099h-2.121l-1.281-3.779c-0.189-0.588-0.378-1.26-0.567-1.974h-0.042
		c-0.147,0.714-0.336,1.407-0.525,1.953l-1.281,3.8h-2.016l-3.317-9.595h2.813l1.176,3.611c0.168,0.546,0.357,1.218,0.462,1.827
		h0.042c0.105-0.588,0.273-1.281,0.462-1.827l1.197-3.611h2.331l1.197,3.59c0.189,0.588,0.315,1.239,0.441,1.848h0.042
		c0.126-0.609,0.294-1.281,0.483-1.848l1.197-3.59h2.625L123.18,32.099z"/>
	<path class="st0" d="M136.032,26.724l-1.365,1.386h-4.661c0.147,0.777,1.197,1.659,2.813,1.659c0.987,0,1.995-0.294,2.625-0.714
		L135.15,31.7c-0.714,0.378-1.806,0.63-3.023,0.63c-2.897,0-5.228-2.016-5.228-5.123c0-3.065,2.226-5.018,4.955-5.018
		c2.646,0,4.262,1.827,4.262,3.8C136.116,26.22,136.074,26.535,136.032,26.724z M131.854,24.498c-0.903,0-1.659,0.693-1.848,1.554
		h3.212c0-0.063,0.021-0.126,0.021-0.21C133.24,25.191,132.673,24.498,131.854,24.498z"/>
	<path class="st0" d="M143.55,25.779c-0.189-0.105-0.609-0.231-0.924-0.231c-0.987,0-1.89,0.525-1.89,2.037v4.43h-3.086v-9.511
		h3.044v2.121h0.021c0.315-1.491,1.428-2.289,2.708-2.289c0.294,0,0.651,0.042,0.882,0.126L143.55,25.779z"/>
	<path class="st0" d="M153.882,26.724l-1.364,1.386h-4.662c0.147,0.777,1.197,1.659,2.814,1.659c0.986,0,1.994-0.294,2.624-0.714
		L153,31.7c-0.714,0.378-1.806,0.63-3.023,0.63c-2.897,0-5.228-2.016-5.228-5.123c0-3.065,2.226-5.018,4.955-5.018
		c2.646,0,4.262,1.827,4.262,3.8C153.966,26.22,153.924,26.535,153.882,26.724z M149.704,24.498c-0.903,0-1.659,0.693-1.848,1.554
		h3.212c0-0.063,0.021-0.126,0.021-0.21C151.09,25.191,150.522,24.498,149.704,24.498z"/>
</g>
<g>
	<path class="st0" d="M26.413,53.099h-2.121l-1.281-3.779c-0.189-0.588-0.378-1.26-0.567-1.974h-0.042
		c-0.147,0.714-0.336,1.407-0.525,1.953l-1.281,3.8h-2.016l-3.317-9.595h2.813l1.176,3.611c0.168,0.546,0.357,1.218,0.462,1.827
		h0.042c0.105-0.588,0.273-1.281,0.462-1.827l1.197-3.611h2.331l1.197,3.59c0.189,0.588,0.315,1.239,0.441,1.848h0.042
		c0.126-0.609,0.294-1.281,0.483-1.848l1.197-3.59h2.625L26.413,53.099z"/>
	<path class="st0" d="M35.276,53.309c-2.876,0-5.186-2.037-5.186-5.06s2.31-5.06,5.186-5.06c2.855,0,5.186,2.037,5.186,5.06
		S38.131,53.309,35.276,53.309z M35.276,45.876c-1.155,0-2.142,1.008-2.142,2.415s0.987,2.415,2.142,2.415
		c1.134,0,2.142-1.008,2.142-2.415S36.41,45.876,35.276,45.876z"/>
	<path class="st0" d="M47.917,46.779c-0.189-0.105-0.609-0.231-0.924-0.231c-0.987,0-1.89,0.525-1.89,2.037v4.43h-3.086v-9.511
		h3.044v2.121h0.021c0.315-1.491,1.428-2.289,2.708-2.289c0.294,0,0.651,0.042,0.882,0.126L47.917,46.779z"/>
	<path class="st0" d="M55.625,53.015l-2.813-3.842H52.79v3.842h-3.044V38.065h3.044v9.301h0.021l2.855-3.863h3.359l-3.338,4.619
		l3.527,4.892H55.625z"/>
	<path class="st0" d="M61.82,42.202c-0.546,0-1.659-1.113-1.659-1.659s1.113-1.638,1.659-1.638s1.659,1.092,1.659,1.638
		S62.366,42.202,61.82,42.202z M60.267,53.015v-9.511h3.107v9.511H60.267z"/>
	<path class="st0" d="M71.395,53.015v-5.837c0-0.693-0.462-1.302-1.407-1.302c-0.924,0-1.512,0.588-1.512,1.344v5.795H65.39v-9.511
		h2.834v1.281h0.021c0.378-1.008,1.365-1.575,2.897-1.575c2.079,0,3.338,1.176,3.338,3.191v6.614H71.395z"/>
	<path class="st0" d="M80.467,57.865c-2.771,0-4.619-1.575-4.619-3.569c0-1.449,0.966-2.31,1.953-2.562l-1.218-1.218
		c0.084-0.609,0.609-1.134,1.155-1.365c-0.714-0.441-1.386-1.344-1.386-2.541c0-2.016,1.449-3.422,3.926-3.422
		c0.567,0,1.008,0.084,1.407,0.189c0.42,0.105,0.882,0.168,1.365,0.168c0.525,0,1.071-0.126,1.491-0.315l0.567,2.352
		c-0.294,0.168-0.756,0.315-1.176,0.294c0.105,0.189,0.231,0.63,0.231,0.966c0,1.596-1.26,2.939-3.107,3.065
		c-0.378,0.021-0.63,0.105-0.63,0.357c0,0.105,0.084,0.231,0.252,0.294l1.47,0.525c1.869,0.672,2.876,1.617,2.876,3.359
		C85.023,56.395,83.239,57.865,80.467,57.865z M81.118,53.393l-1.134-0.315c-0.735,0.021-1.281,0.546-1.281,1.239
		c0,0.651,0.567,1.197,1.68,1.197c1.092,0,1.68-0.504,1.68-1.05C82.063,54.022,81.727,53.561,81.118,53.393z M80.278,45.435
		c-0.693,0-1.218,0.525-1.218,1.134c0,0.63,0.525,1.134,1.218,1.134c0.672,0,1.218-0.504,1.218-1.134
		C81.496,45.96,80.992,45.435,80.278,45.435z"/>
	<path class="st0" d="M97.456,46.023h-2.478v3.527c0,0.819,0.441,1.155,1.26,1.155c0.357,0,0.567-0.021,0.798-0.126l-0.273,2.331
		c-0.294,0.147-0.819,0.252-1.428,0.252c-2.142,0-3.422-1.134-3.422-3.023v-4.115h-1.596v-2.52h1.596v-2.037l3.065-1.113v3.149
		h3.065L97.456,46.023z"/>
	<path class="st0" d="M103.693,53.309c-2.876,0-5.186-2.037-5.186-5.06s2.31-5.06,5.186-5.06c2.855,0,5.186,2.037,5.186,5.06
		S106.548,53.309,103.693,53.309z M103.693,45.876c-1.155,0-2.142,1.008-2.142,2.415s0.987,2.415,2.142,2.415
		c1.134,0,2.142-1.008,2.142-2.415S104.827,45.876,103.693,45.876z"/>
	<path class="st0" d="M114.382,57.865c-2.771,0-4.619-1.575-4.619-3.569c0-1.449,0.966-2.31,1.953-2.562l-1.218-1.218
		c0.084-0.609,0.609-1.134,1.155-1.365c-0.714-0.441-1.386-1.344-1.386-2.541c0-2.016,1.449-3.422,3.926-3.422
		c0.567,0,1.008,0.084,1.407,0.189c0.42,0.105,0.882,0.168,1.365,0.168c0.525,0,1.071-0.126,1.491-0.315l0.567,2.352
		c-0.294,0.168-0.756,0.315-1.176,0.294c0.105,0.189,0.231,0.63,0.231,0.966c0,1.596-1.26,2.939-3.107,3.065
		c-0.378,0.021-0.63,0.105-0.63,0.357c0,0.105,0.084,0.231,0.252,0.294l1.47,0.525c1.869,0.672,2.876,1.617,2.876,3.359
		C118.938,56.395,117.153,57.865,114.382,57.865z M115.033,53.393l-1.134-0.315c-0.735,0.021-1.281,0.546-1.281,1.239
		c0,0.651,0.567,1.197,1.68,1.197c1.092,0,1.68-0.504,1.68-1.05C115.978,54.022,115.642,53.561,115.033,53.393z M114.193,45.435
		c-0.693,0-1.218,0.525-1.218,1.134c0,0.63,0.525,1.134,1.218,1.134c0.672,0,1.218-0.504,1.218-1.134
		C115.411,45.96,114.907,45.435,114.193,45.435z"/>
	<path class="st0" d="M128.871,47.724l-1.365,1.386h-4.661c0.147,0.777,1.197,1.659,2.813,1.659c0.987,0,1.995-0.294,2.625-0.714
		l-0.294,2.646c-0.714,0.378-1.806,0.63-3.023,0.63c-2.897,0-5.228-2.016-5.228-5.123c0-3.065,2.226-5.018,4.955-5.018
		c2.646,0,4.262,1.827,4.262,3.8C128.955,47.22,128.913,47.535,128.871,47.724z M124.692,45.498c-0.903,0-1.659,0.693-1.848,1.554
		h3.212c0-0.063,0.021-0.126,0.021-0.21C126.078,46.191,125.511,45.498,124.692,45.498z"/>
	<path class="st0" d="M136.914,46.023h-2.478v3.527c0,0.819,0.441,1.155,1.26,1.155c0.357,0,0.567-0.021,0.798-0.126l-0.273,2.331
		c-0.294,0.147-0.819,0.252-1.428,0.252c-2.142,0-3.422-1.134-3.422-3.023v-4.115h-1.596v-2.52h1.596v-2.037l3.065-1.113v3.149
		h3.065L136.914,46.023z"/>
	<path class="st0" d="M144.621,53.015v-5.837c0-0.693-0.483-1.302-1.428-1.302c-0.924,0-1.491,0.588-1.491,1.344v5.795h-3.086
		V38.065h3.044v6.32h0.021c0.483-0.735,1.365-1.176,2.688-1.176c2.1,0,3.338,1.176,3.338,3.191v6.614H144.621z"/>
	<path class="st0" d="M158.375,47.724l-1.364,1.386h-4.661c0.146,0.777,1.197,1.659,2.813,1.659c0.987,0,1.995-0.294,2.624-0.714
		l-0.293,2.646c-0.715,0.378-1.807,0.63-3.023,0.63c-2.898,0-5.229-2.016-5.229-5.123c0-3.065,2.226-5.018,4.955-5.018
		c2.646,0,4.262,1.827,4.262,3.8C158.459,47.22,158.418,47.535,158.375,47.724z M154.197,45.498c-0.902,0-1.658,0.693-1.848,1.554
		h3.213c0-0.063,0.021-0.126,0.021-0.21C155.583,46.191,155.016,45.498,154.197,45.498z"/>
	<path class="st0" d="M165.895,46.779c-0.189-0.105-0.609-0.231-0.924-0.231c-0.987,0-1.891,0.525-1.891,2.037v4.43h-3.086v-9.511
		h3.045v2.121h0.021c0.315-1.491,1.428-2.289,2.708-2.289c0.295,0,0.651,0.042,0.883,0.126L165.895,46.779z"/>
</g>
</svg>
