<?xml version="1.0" encoding="utf-8"?>
<!-- Generator: Adobe Illustrator 17.0.0, SVG Export Plug-In . SVG Version: 6.00 Build 0)  -->
<!DOCTYPE svg PUBLIC "-//W3C//DTD SVG 1.1//EN" "http://www.w3.org/Graphics/SVG/1.1/DTD/svg11.dtd">
<svg version="1.1" id="Layer_1" xmlns="http://www.w3.org/2000/svg" xmlns:xlink="http://www.w3.org/1999/xlink" x="0px" y="0px"
	 width="300px" height="250px" viewBox="0 0 300 250" style="enable-background:new 0 0 300 250;" xml:space="preserve">
<style type="text/css">
	.st0{fill:#231F20;}
</style>
<g>
	<path class="st0" d="M22.75,25.023h-2.478v3.527c0,0.819,0.441,1.155,1.26,1.155c0.357,0,0.567-0.021,0.798-0.126l-0.273,2.331
		c-0.294,0.147-0.819,0.252-1.428,0.252c-2.142,0-3.422-1.134-3.422-3.023v-4.115h-1.596v-2.52h1.596v-2.037l3.065-1.113v3.149
		h3.065L22.75,25.023z"/>
	<path class="st0" d="M30.457,32.015v-5.837c0-0.693-0.483-1.302-1.428-1.302c-0.924,0-1.491,0.588-1.491,1.344v5.795h-3.086V17.065
		h3.044v6.32h0.021c0.483-0.735,1.365-1.176,2.688-1.176c2.1,0,3.338,1.176,3.338,3.191v6.614H30.457z"/>
	<path class="st0" d="M44.211,26.724l-1.365,1.386h-4.661c0.147,0.777,1.197,1.659,2.813,1.659c0.987,0,1.995-0.294,2.625-0.714
		L43.33,31.7c-0.714,0.378-1.806,0.63-3.023,0.63c-2.897,0-5.228-2.016-5.228-5.123c0-3.065,2.226-5.018,4.955-5.018
		c2.646,0,4.262,1.827,4.262,3.8C44.295,26.22,44.253,26.535,44.211,26.724z M40.033,24.498c-0.903,0-1.659,0.693-1.848,1.554h3.212
		c0-0.063,0.021-0.126,0.021-0.21C41.419,25.191,40.852,24.498,40.033,24.498z"/>
	<path class="st0" d="M51.31,31.07c-1.449,3.821-2.96,5.207-4.745,5.9l-1.89-1.89c1.533-0.588,2.708-1.701,3.485-3.716l-3.422-8.86
		h2.981l1.386,3.695c0.21,0.546,0.42,1.197,0.567,1.869h0.042c0.189-0.651,0.399-1.323,0.609-1.869l1.386-3.695h2.834L51.31,31.07z"
		/>
	<path class="st0" d="M67.71,25.569c-0.63-0.399-1.281-0.609-2.037-0.609c-1.344,0-2.415,0.966-2.415,2.352
		c0,1.365,1.071,2.352,2.478,2.352c0.798,0,1.407-0.168,2.079-0.525l-0.273,2.625c-0.63,0.294-1.449,0.462-2.331,0.462
		c-2.667,0-5.144-1.89-5.144-4.955c0-3.107,2.499-4.976,5.081-4.976c1.26,0,2.289,0.252,3.128,0.714L67.71,25.569z"/>
	<path class="st0" d="M74.389,32.309c-2.876,0-5.186-2.037-5.186-5.06s2.31-5.06,5.186-5.06c2.855,0,5.186,2.037,5.186,5.06
		S77.244,32.309,74.389,32.309z M74.389,24.876c-1.155,0-2.142,1.008-2.142,2.415s0.987,2.415,2.142,2.415
		c1.134,0,2.142-1.008,2.142-2.415S75.522,24.876,74.389,24.876z"/>
	<path class="st0" d="M87.366,32.015v-1.302h-0.021c-0.378,1.008-1.386,1.575-2.918,1.575c-2.079,0-3.338-1.155-3.338-3.17v-6.614
		h3.086v5.837c0,0.693,0.483,1.302,1.428,1.302c0.924,0,1.491-0.609,1.491-1.365v-5.774h3.086v9.511H87.366z"/>
	<path class="st0" d="M95.452,32.393c-1.953-0.084-3.254-1.092-3.254-3.38V17.065h3.044v11.569c0,0.777,0.441,1.197,1.281,1.26
		L95.452,32.393z"/>
	<path class="st0" d="M104.796,32.015v-1.176h-0.021c-0.525,0.966-1.617,1.449-2.939,1.449c-2.331,0-4.577-1.764-4.577-5.018
		c0-3.065,2.184-5.06,4.829-5.06c1.008,0,2.037,0.336,2.415,0.651v-5.795h3.002v14.949H104.796z M104.502,25.779
		c-0.294-0.399-0.924-0.861-1.869-0.861c-1.344,0-2.289,1.05-2.289,2.415s0.945,2.415,2.289,2.415c0.903,0,1.533-0.483,1.869-0.987
		V25.779z"/>
	<path class="st0" d="M120.903,32.435c-0.567-0.126-1.218-0.567-1.47-1.26c-0.42,0.777-1.323,1.155-2.478,1.155
		c-1.68,0-3.17-1.176-3.17-3.149c0-1.743,1.365-2.918,3.254-3.107l1.89-0.189v-0.315c0-0.567-0.462-0.945-1.491-0.945
		c-0.924,0-1.953,0.294-2.646,0.735l-0.546-2.331c0.777-0.504,2.079-0.84,3.338-0.84c2.52,0,4.304,1.155,4.304,3.443v3.107
		c0,1.113,0.42,1.701,1.155,1.974L120.903,32.435z M118.929,27.857l-1.155,0.105c-0.798,0.063-1.155,0.63-1.155,1.197
		c0,0.504,0.378,0.924,0.966,0.924c0.735,0,1.344-0.567,1.344-1.386V27.857z"/>
	<path class="st0" d="M131.15,25.569c-0.63-0.399-1.281-0.609-2.037-0.609c-1.344,0-2.415,0.966-2.415,2.352
		c0,1.365,1.071,2.352,2.478,2.352c0.798,0,1.407-0.168,2.079-0.525l-0.273,2.625c-0.63,0.294-1.449,0.462-2.331,0.462
		c-2.667,0-5.144-1.89-5.144-4.955c0-3.107,2.499-4.976,5.081-4.976c1.26,0,2.289,0.252,3.128,0.714L131.15,25.569z"/>
	<path class="st0" d="M139.277,32.015v-5.837c0-0.693-0.483-1.302-1.428-1.302c-0.924,0-1.491,0.588-1.491,1.344v5.795h-3.086
		V17.065h3.044v6.32h0.021c0.483-0.735,1.365-1.176,2.688-1.176c2.1,0,3.338,1.176,3.338,3.191v6.614H139.277z"/>
	<path class="st0" d="M145.935,21.202c-0.546,0-1.659-1.113-1.659-1.659s1.113-1.638,1.659-1.638s1.659,1.092,1.659,1.638
		S146.481,21.202,145.935,21.202z M144.381,32.015v-9.511h3.107v9.511H144.381z"/>
	<path class="st0" d="M158.197,26.724l-1.364,1.386h-4.661c0.146,0.777,1.197,1.659,2.813,1.659c0.987,0,1.995-0.294,2.624-0.714
		l-0.293,2.646c-0.715,0.378-1.807,0.63-3.023,0.63c-2.898,0-5.229-2.016-5.229-5.123c0-3.065,2.226-5.018,4.955-5.018
		c2.646,0,4.262,1.827,4.262,3.8C158.281,26.22,158.24,26.535,158.197,26.724z M154.02,24.498c-0.902,0-1.658,0.693-1.848,1.554
		h3.213c0-0.063,0.021-0.126,0.021-0.21C155.405,25.191,154.838,24.498,154.02,24.498z"/>
	<path class="st0" d="M164.687,32.099h-2.31l-3.653-9.595h2.981l1.344,3.632c0.189,0.504,0.378,1.218,0.525,1.848h0.041
		c0.147-0.609,0.357-1.344,0.547-1.848l1.344-3.632h2.855L164.687,32.099z"/>
	<path class="st0" d="M177.791,26.724l-1.365,1.386h-4.661c0.147,0.777,1.196,1.659,2.813,1.659c0.986,0,1.994-0.294,2.625-0.714
		l-0.295,2.646c-0.713,0.378-1.805,0.63-3.023,0.63c-2.896,0-5.228-2.016-5.228-5.123c0-3.065,2.226-5.018,4.955-5.018
		c2.646,0,4.263,1.827,4.263,3.8C177.875,26.22,177.832,26.535,177.791,26.724z M173.612,24.498c-0.903,0-1.659,0.693-1.848,1.554
		h3.212c0-0.063,0.021-0.126,0.021-0.21C174.998,25.191,174.432,24.498,173.612,24.498z"/>
</g>
<g>
	<path class="st0" d="M19.475,53.225c-1.302,0-2.247-0.273-3.023-0.672l-0.273-2.729c0.84,0.588,1.932,1.029,2.981,1.029
		c0.567,0,0.924-0.294,0.924-0.651c0-0.399-0.315-0.567-0.861-0.735c-1.827-0.525-2.918-1.449-2.918-3.107
		c0-1.869,1.512-3.065,3.569-3.065c1.176,0,2.331,0.315,2.813,0.567l-0.525,2.268c-0.462-0.252-1.218-0.525-1.974-0.525
		c-0.504,0-0.84,0.231-0.84,0.609c0,0.357,0.252,0.546,0.84,0.693c2.142,0.567,3.023,1.638,3.023,3.233
		C23.212,51.755,22.036,53.225,19.475,53.225z"/>
	<path class="st0" d="M29.428,53.309c-2.876,0-5.186-2.037-5.186-5.06s2.31-5.06,5.186-5.06c2.855,0,5.186,2.037,5.186,5.06
		S32.284,53.309,29.428,53.309z M29.428,45.876c-1.155,0-2.142,1.008-2.142,2.415s0.987,2.415,2.142,2.415
		c1.134,0,2.142-1.008,2.142-2.415S30.562,45.876,29.428,45.876z"/>
	<path class="st0" d="M47.886,53.015v-5.837c0-0.693-0.336-1.302-1.344-1.302c-0.987,0-1.428,0.588-1.428,1.344v5.795h-3.086v-5.837
		c0-0.693-0.336-1.302-1.344-1.302c-0.987,0-1.428,0.588-1.428,1.344v5.795H36.17v-9.511h2.855v1.281h0.021
		c0.378-1.008,1.323-1.575,2.813-1.575c1.365,0,2.394,0.546,2.813,1.554c0.399-0.924,1.512-1.554,2.939-1.554
		c2.163,0,3.359,1.176,3.359,3.191v6.614H47.886z"/>
	<path class="st0" d="M61.662,47.724l-1.365,1.386h-4.661c0.147,0.777,1.197,1.659,2.813,1.659c0.987,0,1.995-0.294,2.625-0.714
		L60.78,52.7c-0.714,0.378-1.806,0.63-3.023,0.63c-2.897,0-5.228-2.016-5.228-5.123c0-3.065,2.226-5.018,4.955-5.018
		c2.646,0,4.262,1.827,4.262,3.8C61.746,47.22,61.704,47.535,61.662,47.724z M57.484,45.498c-0.903,0-1.659,0.693-1.848,1.554h3.212
		c0-0.063,0.021-0.126,0.021-0.21C58.87,46.191,58.303,45.498,57.484,45.498z"/>
	<path class="st0" d="M69.706,46.023h-2.478v3.527c0,0.819,0.441,1.155,1.26,1.155c0.357,0,0.567-0.021,0.798-0.126l-0.273,2.331
		c-0.294,0.147-0.819,0.252-1.428,0.252c-2.142,0-3.422-1.134-3.422-3.023v-4.115h-1.596v-2.52h1.596v-2.037l3.065-1.113v3.149
		h3.065L69.706,46.023z"/>
	<path class="st0" d="M77.413,53.015v-5.837c0-0.693-0.483-1.302-1.428-1.302c-0.924,0-1.491,0.588-1.491,1.344v5.795h-3.086V38.065
		h3.044v6.32h0.021c0.483-0.735,1.365-1.176,2.688-1.176c2.1,0,3.338,1.176,3.338,3.191v6.614H77.413z"/>
	<path class="st0" d="M84.07,42.202c-0.546,0-1.659-1.113-1.659-1.659s1.113-1.638,1.659-1.638s1.659,1.092,1.659,1.638
		S84.616,42.202,84.07,42.202z M82.517,53.015v-9.511h3.107v9.511H82.517z"/>
	<path class="st0" d="M93.645,53.015v-5.837c0-0.693-0.462-1.302-1.407-1.302c-0.924,0-1.512,0.588-1.512,1.344v5.795H87.64v-9.511
		h2.834v1.281h0.021c0.378-1.008,1.365-1.575,2.897-1.575c2.079,0,3.338,1.176,3.338,3.191v6.614H93.645z"/>
	<path class="st0" d="M102.717,57.865c-2.771,0-4.619-1.575-4.619-3.569c0-1.449,0.966-2.31,1.953-2.562l-1.218-1.218
		c0.084-0.609,0.609-1.134,1.155-1.365c-0.714-0.441-1.386-1.344-1.386-2.541c0-2.016,1.449-3.422,3.926-3.422
		c0.567,0,1.008,0.084,1.407,0.189c0.42,0.105,0.882,0.168,1.365,0.168c0.525,0,1.071-0.126,1.491-0.315l0.567,2.352
		c-0.294,0.168-0.756,0.315-1.176,0.294c0.105,0.189,0.231,0.63,0.231,0.966c0,1.596-1.26,2.939-3.107,3.065
		c-0.378,0.021-0.63,0.105-0.63,0.357c0,0.105,0.084,0.231,0.252,0.294l1.47,0.525c1.869,0.672,2.876,1.617,2.876,3.359
		C107.273,56.395,105.489,57.865,102.717,57.865z M103.368,53.393l-1.134-0.315c-0.735,0.021-1.281,0.546-1.281,1.239
		c0,0.651,0.567,1.197,1.68,1.197c1.092,0,1.68-0.504,1.68-1.05C104.313,54.022,103.977,53.561,103.368,53.393z M102.528,45.435
		c-0.693,0-1.218,0.525-1.218,1.134c0,0.63,0.525,1.134,1.218,1.134c0.672,0,1.218-0.504,1.218-1.134
		C103.746,45.96,103.242,45.435,102.528,45.435z"/>
	<path class="st0" d="M119.223,46.779c-0.189-0.105-0.609-0.231-0.924-0.231c-0.987,0-1.89,0.525-1.89,2.037v4.43h-3.086v-9.511
		h3.044v2.121h0.021c0.315-1.491,1.428-2.289,2.708-2.289c0.294,0,0.651,0.042,0.882,0.126L119.223,46.779z"/>
	<path class="st0" d="M129.533,47.724l-1.365,1.386h-4.661c0.147,0.777,1.197,1.659,2.813,1.659c0.987,0,1.995-0.294,2.625-0.714
		l-0.294,2.646c-0.714,0.378-1.806,0.63-3.023,0.63c-2.897,0-5.228-2.016-5.228-5.123c0-3.065,2.226-5.018,4.955-5.018
		c2.646,0,4.262,1.827,4.262,3.8C129.617,47.22,129.575,47.535,129.533,47.724z M125.355,45.498c-0.903,0-1.659,0.693-1.848,1.554
		h3.212c0-0.063,0.021-0.126,0.021-0.21C126.741,46.191,126.174,45.498,125.355,45.498z"/>
	<path class="st0" d="M137.744,53.435c-0.567-0.126-1.218-0.567-1.47-1.26c-0.42,0.777-1.323,1.155-2.478,1.155
		c-1.68,0-3.17-1.176-3.17-3.149c0-1.743,1.365-2.918,3.254-3.107l1.89-0.189v-0.315c0-0.567-0.462-0.945-1.491-0.945
		c-0.924,0-1.953,0.294-2.646,0.735l-0.546-2.331c0.777-0.504,2.079-0.84,3.338-0.84c2.52,0,4.304,1.155,4.304,3.443v3.107
		c0,1.113,0.42,1.701,1.155,1.974L137.744,53.435z M135.771,48.857l-1.155,0.105c-0.798,0.063-1.155,0.63-1.155,1.197
		c0,0.504,0.378,0.924,0.966,0.924c0.735,0,1.344-0.567,1.344-1.386V48.857z"/>
	<path class="st0" d="M144.17,53.393c-1.953-0.084-3.254-1.092-3.254-3.38V38.065h3.044v11.569c0,0.777,0.441,1.197,1.281,1.26
		L144.17,53.393z"/>
	<path class="st0" d="M149.714,53.393c-1.953-0.084-3.254-1.092-3.254-3.38V38.065h3.044v11.569c0,0.777,0.441,1.197,1.281,1.26
		L149.714,53.393z"/>
	<path class="st0" d="M157.484,52.07c-1.449,3.821-2.961,5.207-4.746,5.9l-1.889-1.89c1.532-0.588,2.708-1.701,3.484-3.716
		l-3.422-8.86h2.981l1.386,3.695c0.21,0.546,0.42,1.197,0.566,1.869h0.043c0.188-0.651,0.398-1.323,0.608-1.869l1.386-3.695h2.834
		L157.484,52.07z"/>
	<path class="st0" d="M169.706,53.225c-1.302,0-2.247-0.273-3.023-0.672l-0.272-2.729c0.84,0.588,1.932,1.029,2.98,1.029
		c0.567,0,0.924-0.294,0.924-0.651c0-0.399-0.314-0.567-0.86-0.735c-1.827-0.525-2.919-1.449-2.919-3.107
		c0-1.869,1.512-3.065,3.57-3.065c1.176,0,2.33,0.315,2.812,0.567l-0.524,2.268c-0.462-0.252-1.218-0.525-1.974-0.525
		c-0.504,0-0.84,0.231-0.84,0.609c0,0.357,0.252,0.546,0.84,0.693c2.142,0.567,3.023,1.638,3.023,3.233
		C173.443,51.755,172.268,53.225,169.706,53.225z"/>
	<path class="st0" d="M185.245,53.099h-2.12l-1.281-3.779c-0.189-0.588-0.378-1.26-0.566-1.974h-0.043
		c-0.146,0.714-0.336,1.407-0.524,1.953l-1.28,3.8h-2.016l-3.318-9.595h2.814l1.176,3.611c0.168,0.546,0.356,1.218,0.461,1.827
		h0.043c0.104-0.588,0.272-1.281,0.461-1.827l1.197-3.611h2.33l1.197,3.59c0.189,0.588,0.314,1.239,0.441,1.848h0.041
		c0.127-0.609,0.295-1.281,0.483-1.848l1.196-3.59h2.625L185.245,53.099z"/>
	<path class="st0" d="M198.098,47.724l-1.365,1.386h-4.661c0.147,0.777,1.196,1.659,2.813,1.659c0.986,0,1.994-0.294,2.625-0.714
		l-0.295,2.646c-0.713,0.378-1.805,0.63-3.023,0.63c-2.896,0-5.228-2.016-5.228-5.123c0-3.065,2.226-5.018,4.955-5.018
		c2.646,0,4.263,1.827,4.263,3.8C198.182,47.22,198.139,47.535,198.098,47.724z M193.919,45.498c-0.903,0-1.659,0.693-1.848,1.554
		h3.212c0-0.063,0.021-0.126,0.021-0.21C195.305,46.191,194.738,45.498,193.919,45.498z"/>
	<path class="st0" d="M208.365,47.724l-1.364,1.386h-4.661c0.146,0.777,1.197,1.659,2.813,1.659c0.987,0,1.995-0.294,2.624-0.714
		l-0.293,2.646c-0.715,0.378-1.807,0.63-3.023,0.63c-2.898,0-5.229-2.016-5.229-5.123c0-3.065,2.226-5.018,4.955-5.018
		c2.646,0,4.262,1.827,4.262,3.8C208.449,47.22,208.408,47.535,208.365,47.724z M204.188,45.498c-0.902,0-1.658,0.693-1.848,1.554
		h3.213c0-0.063,0.021-0.126,0.021-0.21C205.573,46.191,205.006,45.498,204.188,45.498z"/>
	<path class="st0" d="M216.409,46.023h-2.478v3.527c0,0.819,0.441,1.155,1.26,1.155c0.357,0,0.566-0.021,0.798-0.126l-0.272,2.331
		c-0.295,0.147-0.819,0.252-1.428,0.252c-2.143,0-3.423-1.134-3.423-3.023v-4.115h-1.596v-2.52h1.596v-2.037l3.065-1.113v3.149
		h3.065L216.409,46.023z"/>
	<path class="st0" d="M219.371,53.309c-0.567,0-1.743-1.176-1.743-1.743c0-0.546,1.176-1.722,1.743-1.722
		c0.566,0,1.742,1.176,1.742,1.722C221.113,52.133,219.938,53.309,219.371,53.309z"/>
</g>
</svg>
