<?xml version="1.0" encoding="utf-8"?>
<!-- Generator: Adobe Illustrator 17.0.0, SVG Export Plug-In . SVG Version: 6.00 Build 0)  -->
<!DOCTYPE svg PUBLIC "-//W3C//DTD SVG 1.1//EN" "http://www.w3.org/Graphics/SVG/1.1/DTD/svg11.dtd">
<svg version="1.1" id="Layer_1" xmlns="http://www.w3.org/2000/svg" xmlns:xlink="http://www.w3.org/1999/xlink" x="0px" y="0px"
	 width="300px" height="250px" viewBox="0 0 300 250" style="enable-background:new 0 0 300 250;" xml:space="preserve">
<style type="text/css">
	.st0{clip-path:url(#SVGID_2_);fill:#F9E038;}
	.st1{enable-background:new    ;}
</style>
<g>
	<g>
		<defs>
			<rect id="SVGID_1_" x="145.302" y="130.177" width="147.052" height="33.661"/>
		</defs>
		<clipPath id="SVGID_2_">
			<use xlink:href="#SVGID_1_"  style="overflow:visible;"/>
		</clipPath>
		<path class="st0" d="M165.302,137.178c0,0-11,0-11,11v3.661c0,0,0,11,11,11h107.052c0,0,11,0,11-11v-3.661c0,0,0-11-11-11H165.302
			z"/>
	</g>
</g>
<g class="st1">
	<path d="M180.654,152.754c-0.499-0.709-0.719-1.597-0.719-2.455c0-1.816,0.908-3.513,2.934-3.513c0.908,0,1.627,0.299,2.176,1.048
		c0.489,0.668,0.738,1.637,0.738,2.465c0,0.778-0.209,1.727-0.648,2.375c-0.529,0.778-1.337,1.157-2.266,1.157
		C181.941,153.831,181.193,153.512,180.654,152.754z M181.832,148.871c-0.16,0.409-0.22,0.998-0.22,1.428
		c0,0.858,0.13,2.226,1.257,2.226c0.549,0,0.849-0.27,1.028-0.779c0.159-0.419,0.209-0.987,0.209-1.437
		c0-0.499-0.05-1.088-0.249-1.547s-0.489-0.669-0.988-0.669C182.32,148.093,182.021,148.373,181.832,148.871z"/>
	<path d="M188.407,153.731h-1.597v-6.846h2.575c0.668,0,1.277,0,1.846,0.389c0.579,0.409,0.889,0.998,0.889,1.707
		c0,0.648-0.229,1.308-0.738,1.736c-0.589,0.489-1.218,0.479-1.946,0.479h-1.028V153.731z M189.306,149.949
		c0.379,0,0.698,0,0.978-0.299c0.15-0.17,0.22-0.39,0.22-0.609c0-0.27-0.109-0.549-0.329-0.719
		c-0.249-0.189-0.579-0.189-0.878-0.189h-0.889v1.816H189.306z"/>
	<path d="M194.595,148.213v1.387h2.595v1.288h-2.595v1.517h3.294v1.327h-4.891v-6.846h4.891v1.327H194.595z"/>
	<path d="M204.055,153.731h-1.367l-2.624-4.601h-0.04v4.601h-1.237v-6.846h1.727l2.285,4.021h0.02v-4.021h1.237V153.731z"/>
	<path d="M214.004,153.731h-1.727l-0.419-1.407h-2.216l-0.429,1.407h-1.407l2.195-6.846h1.856L214.004,153.731z M211.489,151.067
		l-0.729-2.405l-0.729,2.405H211.489z"/>
	<path d="M222.307,148.243h-1.717v5.488h-1.597v-5.488h-1.736v-1.357h5.05V148.243z"/>
	<path d="M224.761,153.731h-1.597v-6.846h1.597V153.731z"/>
	<path d="M231.767,153.731h-1.727l-0.419-1.407h-2.216l-0.429,1.407h-1.407l2.195-6.846h1.856L231.767,153.731z M229.252,151.067
		l-0.729-2.405l-0.729,2.405H229.252z"/>
	<path d="M238.153,153.731h-1.727l-0.419-1.407h-2.216l-0.429,1.407h-1.407l2.195-6.846h1.856L238.153,153.731z M235.639,151.067
		l-0.729-2.405l-0.729,2.405H235.639z"/>
	<path d="M243.521,153.731h-1.597v-6.846h1.597V153.731z"/>
	<path d="M246.516,153.731h-1.597v-6.846h2.884c0.609,0,1.228,0.01,1.757,0.35c0.559,0.369,0.868,1.037,0.868,1.706
		c0,0.778-0.449,1.497-1.188,1.767l1.267,3.023h-1.775l-1.048-2.704h-1.168V153.731z M246.516,149.85h0.878
		c0.329,0,0.688,0.03,0.979-0.14c0.259-0.16,0.398-0.479,0.398-0.778c0-0.27-0.159-0.559-0.389-0.699
		c-0.27-0.169-0.729-0.129-1.028-0.129h-0.838V149.85z"/>
	<path d="M257.113,153.731h-1.727l-0.419-1.407h-2.216l-0.429,1.407h-1.407l2.195-6.846h1.856L257.113,153.731z M254.599,151.067
		l-0.729-2.405l-0.729,2.405H254.599z"/>
</g>
</svg>
