<?xml version="1.0" encoding="utf-8"?>
<!-- Generator: Adobe Illustrator 17.0.0, SVG Export Plug-In . SVG Version: 6.00 Build 0)  -->
<!DOCTYPE svg PUBLIC "-//W3C//DTD SVG 1.1//EN" "http://www.w3.org/Graphics/SVG/1.1/DTD/svg11.dtd">
<svg version="1.1" id="Layer_1" xmlns="http://www.w3.org/2000/svg" xmlns:xlink="http://www.w3.org/1999/xlink" x="0px" y="0px"
	 width="300px" height="250px" viewBox="0 0 300 250" style="enable-background:new 0 0 300 250;" xml:space="preserve">
<style type="text/css">
	.st0{fill:none;}
	.st1{fill:#004B87;}
	.st2{fill:#FFFFFF;}
	.st3{fill:url(#SVGID_1_);}
	.st4{fill:url(#SVGID_2_);}
	.st5{fill:url(#SVGID_3_);}
</style>
<g>
	<rect x="167.791" y="187.161" class="st0" width="112.001" height="38.098"/>
	<g>
		<path class="st1" d="M223.391,196.517v3.937h-6.983v18.904h-4.413v-18.904h-6.983v-3.937H223.391z M225.267,219.358h4.415v-11.422
			v-11.42h-4.415v11.42V219.358z M252.5,219.358h-4.542l-2.348-5.621h-7.738l-2.321,5.621h-4.441l9.731-23.148h1.93L252.5,219.358z
			 M273.89,219.358h-4.542L267,213.737h-7.739l-2.321,5.621h-4.44l9.731-23.148h1.929L273.89,219.358z M244.095,210.006
			l-2.334-5.688l-2.351,5.688H244.095z M265.486,210.006l-2.334-5.688l-2.351,5.688H265.486z"/>
		<g>
			<path class="st2" d="M189.025,220.841c1.957,0,3.731-0.81,5.007-2.11l5.408-5.407c1.247-1.263,2.022-2.995,2.031-4.903v-16.842
				h-16.817c-1.957,0-3.731,0.81-5.007,2.11l-5.407,5.407c-1.248,1.263-2.022,2.995-2.031,4.903v16.842H189.025z"/>
			<linearGradient id="SVGID_1_" gradientUnits="userSpaceOnUse" x1="186.8349" y1="206.2149" x2="199.9871" y2="193.0628">
				<stop  offset="0.1" style="stop-color:#9CDCF8"/>
				<stop  offset="0.9" style="stop-color:#009EDB"/>
			</linearGradient>
			<path class="st3" d="M186.615,193.063c-3.052,0-5.526,2.468-5.54,5.516v1.876h11.524v11.519h1.849c3.06,0,5.54-2.48,5.54-5.538
				v-13.373H186.615z"/>
			<linearGradient id="SVGID_2_" gradientUnits="userSpaceOnUse" x1="173.6923" y1="215.9779" x2="197.9404" y2="215.9779">
				<stop  offset="0" style="stop-color:#14B1E7"/>
				<stop  offset="0.16" style="stop-color:#13ABE2"/>
				<stop  offset="0.3694" style="stop-color:#0F9BD3"/>
				<stop  offset="0.6062" style="stop-color:#0980BC"/>
				<stop  offset="0.8614" style="stop-color:#015A9B"/>
				<stop  offset="0.9" style="stop-color:#005495"/>
			</linearGradient>
			<path class="st4" d="M197.811,212.598c-0.999,0.548-2.146,0.86-3.364,0.86h-14.854l-5.901,5.901h15.332
				c1.492,0,2.895-0.592,3.95-1.667l4.965-4.965L197.811,212.598z"/>
			<linearGradient id="SVGID_3_" gradientUnits="userSpaceOnUse" x1="177.0725" y1="219.3584" x2="177.0725" y2="195.1098">
				<stop  offset="0" style="stop-color:#0082BE"/>
				<stop  offset="0.386" style="stop-color:#0070AE"/>
				<stop  offset="0.85" style="stop-color:#005495"/>
			</linearGradient>
			<path class="st5" d="M180.453,195.238c-0.548,0.999-0.86,2.146-0.86,3.364v14.855l-5.901,5.901v-15.333
				c0-1.491,0.592-2.895,1.666-3.95l4.966-4.965L180.453,195.238z"/>
		</g>
	</g>
</g>
</svg>
