<?xml version="1.0" encoding="utf-8"?>
<!-- Generator: Adobe Illustrator 22.1.0, SVG Export Plug-In . SVG Version: 6.00 Build 0)  -->
<svg version="1.1" id="Layer_1" xmlns="http://www.w3.org/2000/svg" xmlns:xlink="http://www.w3.org/1999/xlink" x="0px" y="0px"
	 viewBox="0 0 600 250" style="enable-background:new 0 0 600 250;" xml:space="preserve">
<style type="text/css">
	.st0{fill:#3A833F;}
</style>
<path class="st0" d="M186.4,182c-3-2.2-9.8-2.5-11.5,1.3c1-3.5-0.8-8.4-3.8-10.5c-2.7-2-6.3-2.5-9.6-2c-6.2,1-11.8,5.6-12.6,11.9
	c-1.3-2-3.5-3.3-6.1-3.3c-2.7,0-5.1,1.5-6.3,3.7c-2-3.5-8.5-3.2-11.4-1c-3.4,2.6-3.8,7.4-2.8,11.5h18h8.7h40.2
	C190.3,189.3,189.9,184.6,186.4,182"/>
<path class="st0" d="M307.9,182c-2.9-2.2-9.8-2.5-11.5,1.3c1-3.5-0.8-8.4-3.8-10.5c-2.7-2-6.3-2.5-9.6-2c-6.2,1-11.8,5.6-12.6,11.9
	c-1.3-2-3.5-3.3-6.1-3.3c-2.7,0-5.1,1.5-6.3,3.7c-2-3.5-8.5-3.2-11.4-1c-3.4,2.6-3.8,7.4-2.8,11.5h18h8.7h40.2
	C311.7,189.3,311.4,184.6,307.9,182"/>
</svg>
