<?xml version="1.0" encoding="utf-8"?>
<!-- Generator: Adobe Illustrator 22.1.0, SVG Export Plug-In . SVG Version: 6.00 Build 0)  -->
<svg version="1.1" id="Layer_1" xmlns="http://www.w3.org/2000/svg" xmlns:xlink="http://www.w3.org/1999/xlink" x="0px" y="0px"
	 viewBox="0 0 300 250" style="enable-background:new 0 0 300 250;" xml:space="preserve">
<style type="text/css">
	.st0{fill:#231F20;}
</style>
<g>
	<path class="st0" d="M269.9,239.7l-0.1,0.6h-2.6l-0.1,1.7c0.4-0.4,0.8-0.6,1.3-0.6c0.5,0,0.9,0.2,1.3,0.5s0.5,0.8,0.5,1.3
		c0,0.5-0.2,1-0.6,1.3c-0.4,0.3-0.9,0.5-1.4,0.5c-0.4,0-0.8-0.1-1.2-0.4s-0.6-0.5-0.7-0.9l0.6-0.2c0.2,0.6,0.7,0.9,1.3,0.9
		c0.4,0,0.8-0.1,1-0.4c0.2-0.3,0.4-0.6,0.4-1c0-0.4-0.1-0.7-0.4-1s-0.5-0.3-0.9-0.3c-0.5,0-0.9,0.2-1.3,0.7l-0.5-0.1l0.2-2.9H269.9z
		"/>
	<path class="st0" d="M272.2,242.2c-0.7-0.3-1-0.7-1-1.3c0-0.4,0.2-0.7,0.5-1s0.8-0.4,1.3-0.4c0.5,0,1,0.1,1.3,0.4s0.5,0.6,0.5,1
		c0,0.6-0.3,1-1,1.2c0.6,0.3,0.9,0.5,1,0.7c0.1,0.2,0.2,0.5,0.2,0.7c0,0.4-0.2,0.8-0.5,1.1s-0.9,0.4-1.5,0.4c-0.7,0-1.2-0.1-1.5-0.4
		s-0.5-0.6-0.5-1C271,243,271.4,242.6,272.2,242.2z M273,242.5c-0.9,0.2-1.4,0.6-1.4,1.1c0,0.3,0.1,0.5,0.4,0.7
		c0.2,0.2,0.6,0.3,1.1,0.3c0.4,0,0.7-0.1,1-0.3c0.2-0.2,0.4-0.4,0.4-0.7C274.4,243.2,274,242.8,273,242.5z M273.1,241.9
		c0.4-0.1,0.8-0.3,0.9-0.4s0.3-0.4,0.3-0.6c0-0.3-0.1-0.5-0.3-0.6s-0.5-0.2-0.9-0.2c-0.3,0-0.6,0.1-0.8,0.2s-0.3,0.4-0.3,0.6
		c0,0.2,0.1,0.5,0.4,0.6S272.8,241.8,273.1,241.9z"/>
	<path class="st0" d="M277.7,245.1c-0.6,0-1.1-0.3-1.5-0.8c-0.4-0.5-0.6-1.2-0.6-2c0-0.8,0.2-1.4,0.5-2s0.8-0.8,1.5-0.8
		c0.7,0,1.2,0.3,1.5,0.8s0.5,1.2,0.5,2c0,0.7-0.2,1.4-0.5,1.9S278.4,245.1,277.7,245.1z M277.7,244.6c0.5,0,0.8-0.2,1-0.6
		s0.3-0.9,0.3-1.5c0-0.7-0.1-1.2-0.3-1.7s-0.6-0.7-1-0.7c-0.4,0-0.8,0.2-1,0.6s-0.3,0.9-0.3,1.6c0,0.7,0.1,1.2,0.3,1.7
		S277.3,244.6,277.7,244.6z"/>
	<path class="st0" d="M282.4,245.1c-0.6,0-1.1-0.3-1.5-0.8c-0.4-0.5-0.6-1.2-0.6-2c0-0.8,0.2-1.4,0.5-2s0.8-0.8,1.5-0.8
		c0.7,0,1.2,0.3,1.5,0.8s0.5,1.2,0.5,2c0,0.7-0.2,1.4-0.5,1.9S283.1,245.1,282.4,245.1z M282.4,244.6c0.5,0,0.8-0.2,1-0.6
		s0.3-0.9,0.3-1.5c0-0.7-0.1-1.2-0.3-1.7s-0.6-0.7-1-0.7c-0.4,0-0.8,0.2-1,0.6s-0.3,0.9-0.3,1.6c0,0.7,0.1,1.2,0.3,1.7
		S282,244.6,282.4,244.6z"/>
	<path class="st0" d="M285.2,244l0.5-0.2c0.2,0.5,0.6,0.7,1.1,0.7c0.5,0,0.9-0.2,1.1-0.6s0.4-1,0.4-1.7c-0.3,0.6-0.9,1-1.6,1
		c-0.5,0-0.9-0.2-1.2-0.5c-0.3-0.3-0.5-0.8-0.5-1.3c0-0.5,0.2-0.9,0.5-1.3c0.4-0.4,0.8-0.5,1.3-0.5c0.7,0,1.2,0.2,1.5,0.7
		c0.4,0.5,0.5,1.1,0.5,1.9c0,0.9-0.2,1.6-0.6,2.1c-0.4,0.5-0.9,0.8-1.6,0.8C286.1,245.1,285.5,244.8,285.2,244z M287,242.6
		c0.4,0,0.7-0.1,0.9-0.4s0.4-0.6,0.4-0.9c0-0.3-0.1-0.6-0.4-0.9c-0.2-0.2-0.5-0.4-0.9-0.4c-0.4,0-0.7,0.1-0.9,0.4
		c-0.2,0.2-0.3,0.5-0.3,0.9c0,0.4,0.1,0.7,0.4,0.9C286.4,242.5,286.7,242.6,287,242.6z"/>
	<path class="st0" d="M293,245h-0.6v-1.3h-2.6v-0.4l2.5-3.7h0.8v3.6h0.9v0.5H293V245z M292.3,243.2v-2.5c0-0.2,0-0.4,0-0.6
		c-0.1,0.2-0.2,0.4-0.3,0.5l-1.7,2.6H292.3z"/>
</g>
</svg>
