<?xml version="1.0" encoding="utf-8"?>
<!-- Generator: Adobe Illustrator 22.1.0, SVG Export Plug-In . SVG Version: 6.00 Build 0)  -->
<svg version="1.1" id="Layer_1" xmlns="http://www.w3.org/2000/svg" xmlns:xlink="http://www.w3.org/1999/xlink" x="0px" y="0px"
	 viewBox="0 0 300 250" style="enable-background:new 0 0 300 250;" xml:space="preserve">
<style type="text/css">
	.st0{fill:#231F20;}
</style>
<g>
	<path class="st0" d="M41.4,39.5h-2.3L37,33.1c-0.3-1-0.6-2-1-3.3h0c-0.3,1.3-0.6,2.3-1,3.3l-2.1,6.5h-2.2l-4.9-14.8h3.5l1.9,5.9
		c0.3,0.9,0.6,1.8,0.8,2.9h0c0.2-1.1,0.5-2,0.8-2.9l1.9-5.9h3.1l1.9,5.9c0.3,0.8,0.6,1.9,0.8,3h0c0.2-1.1,0.5-2.1,0.8-2.9l2-5.9h3.1
		L41.4,39.5z"/>
	<path class="st0" d="M54.2,39.4v-6.4c0-0.8-0.5-1.4-1.6-1.4c-1,0-1.6,0.6-1.6,1.5v6.3h-3.4V23.1h3.3V30h0c0.5-0.8,1.5-1.3,2.9-1.3
		c2.3,0,3.7,1.3,3.7,3.5v7.2H54.2z"/>
	<path class="st0" d="M69.2,33.6l-1.5,1.5h-5.1C62.8,36,64,37,65.7,37c1.1,0,2.2-0.3,2.9-0.8l-0.3,2.9c-0.8,0.4-2,0.7-3.3,0.7
		c-3.2,0-5.7-2.2-5.7-5.6c0-3.4,2.4-5.5,5.4-5.5c2.9,0,4.7,2,4.7,4.2C69.3,33.1,69.3,33.4,69.2,33.6z M64.7,31.2c-1,0-1.8,0.8-2,1.7
		h3.5c0-0.1,0-0.1,0-0.2C66.2,32,65.6,31.2,64.7,31.2z"/>
	<path class="st0" d="M77.6,39.4v-6.4c0-0.8-0.5-1.4-1.5-1.4c-1,0-1.7,0.6-1.7,1.5v6.3H71V29h3.1v1.4h0c0.4-1.1,1.5-1.7,3.2-1.7
		c2.3,0,3.7,1.3,3.7,3.5v7.2H77.6z"/>
	<path class="st0" d="M94.6,38.4c-1.6,4.2-3.2,5.7-5.2,6.5l-2.1-2.1c1.7-0.6,3-1.9,3.8-4.1L87.4,29h3.3l1.5,4c0.2,0.6,0.5,1.3,0.6,2
		h0c0.2-0.7,0.4-1.4,0.7-2l1.5-4h3.1L94.6,38.4z"/>
	<path class="st0" d="M104.1,39.8c-3.2,0-5.7-2.2-5.7-5.5c0-3.3,2.5-5.5,5.7-5.5c3.1,0,5.7,2.2,5.7,5.5
		C109.8,37.5,107.2,39.8,104.1,39.8z M104.1,31.6c-1.3,0-2.3,1.1-2.3,2.6s1.1,2.6,2.3,2.6c1.2,0,2.3-1.1,2.3-2.6
		S105.4,31.6,104.1,31.6z"/>
	<path class="st0" d="M118.3,39.4V38h0c-0.4,1.1-1.5,1.7-3.2,1.7c-2.3,0-3.7-1.3-3.7-3.5V29h3.4v6.4c0,0.8,0.5,1.4,1.6,1.4
		c1,0,1.6-0.7,1.6-1.5V29h3.4v10.4H118.3z"/>
	<path class="st0" d="M135.3,39.4v-6.4c0-0.8-0.5-1.4-1.6-1.4c-1,0-1.6,0.6-1.6,1.5v6.3h-3.4V23.1h3.3V30h0c0.5-0.8,1.5-1.3,2.9-1.3
		c2.3,0,3.7,1.3,3.7,3.5v7.2H135.3z"/>
	<path class="st0" d="M148.1,39.9c-0.6-0.1-1.3-0.6-1.6-1.4c-0.5,0.9-1.4,1.3-2.7,1.3c-1.8,0-3.5-1.3-3.5-3.4c0-1.9,1.5-3.2,3.6-3.4
		l2.1-0.2v-0.3c0-0.6-0.5-1-1.6-1c-1,0-2.1,0.3-2.9,0.8l-0.6-2.6c0.9-0.6,2.3-0.9,3.7-0.9c2.8,0,4.7,1.3,4.7,3.8v3.4
		c0,1.2,0.5,1.9,1.3,2.2L148.1,39.9z M146,34.9l-1.3,0.1c-0.9,0.1-1.3,0.7-1.3,1.3c0,0.6,0.4,1,1.1,1c0.8,0,1.5-0.6,1.5-1.5V34.9z"
		/>
	<path class="st0" d="M156.8,39.5h-2.5l-4-10.5h3.3l1.5,4c0.2,0.6,0.4,1.3,0.6,2h0c0.2-0.7,0.4-1.5,0.6-2l1.5-4h3.1L156.8,39.5z"/>
	<path class="st0" d="M171.1,33.6l-1.5,1.5h-5.1c0.2,0.9,1.3,1.8,3.1,1.8c1.1,0,2.2-0.3,2.9-0.8l-0.3,2.9c-0.8,0.4-2,0.7-3.3,0.7
		c-3.2,0-5.7-2.2-5.7-5.6c0-3.4,2.4-5.5,5.4-5.5c2.9,0,4.7,2,4.7,4.2C171.2,33.1,171.2,33.4,171.1,33.6z M166.5,31.2
		c-1,0-1.8,0.8-2,1.7h3.5c0-0.1,0-0.1,0-0.2C168,32,167.4,31.2,166.5,31.2z"/>
</g>
<g>
	<path class="st0" d="M30.2,64.9c-2.1-0.1-3.6-1.2-3.6-3.7V48.1h3.3v12.7c0,0.9,0.5,1.3,1.4,1.4L30.2,64.9z"/>
	<path class="st0" d="M34.4,52.6c-0.6,0-1.8-1.2-1.8-1.8c0-0.6,1.2-1.8,1.8-1.8c0.6,0,1.8,1.2,1.8,1.8C36.2,51.4,35,52.6,34.4,52.6z
		 M32.7,64.4V54h3.4v10.4H32.7z"/>
	<path class="st0" d="M45.6,51.1c-0.4-0.2-0.9-0.3-1.4-0.3c-1.2,0-1.9,0.7-1.9,2.2v1h3l-0.7,2.8h-2.3v7.7h-3.3v-7.7h-1.6V54h1.6
		v-1.2c0-3.2,2-4.7,4.7-4.7c1,0,1.9,0.1,2.5,0.3L45.6,51.1z"/>
	<path class="st0" d="M55.8,58.7l-1.5,1.5h-5.1c0.2,0.9,1.3,1.8,3.1,1.8c1.1,0,2.2-0.3,2.9-0.8l-0.3,2.9c-0.8,0.4-2,0.7-3.3,0.7
		c-3.2,0-5.7-2.2-5.7-5.6c0-3.4,2.4-5.5,5.4-5.5c2.9,0,4.7,2,4.7,4.2C55.9,58.1,55.9,58.4,55.8,58.7z M51.2,56.2c-1,0-1.8,0.8-2,1.7
		h3.5c0-0.1,0-0.1,0-0.2C52.8,57,52.1,56.2,51.2,56.2z"/>
	<path class="st0" d="M64.5,52.6c-0.6,0-1.8-1.2-1.8-1.8c0-0.6,1.2-1.8,1.8-1.8c0.6,0,1.8,1.2,1.8,1.8
		C66.3,51.4,65.1,52.6,64.5,52.6z M62.8,64.4V54h3.4v10.4H62.8z"/>
	<path class="st0" d="M75,64.4v-6.4c0-0.8-0.5-1.4-1.5-1.4c-1,0-1.7,0.6-1.7,1.5v6.3h-3.4V54h3.1v1.4h0c0.4-1.1,1.5-1.7,3.2-1.7
		c2.3,0,3.7,1.3,3.7,3.5v7.2H75z"/>
	<path class="st0" d="M83.8,64.7c-1.4,0-2.5-0.3-3.3-0.7l-0.3-3c0.9,0.6,2.1,1.1,3.3,1.1c0.6,0,1-0.3,1-0.7c0-0.4-0.3-0.6-0.9-0.8
		c-2-0.6-3.2-1.6-3.2-3.4c0-2,1.7-3.4,3.9-3.4c1.3,0,2.6,0.3,3.1,0.6l-0.6,2.5c-0.5-0.3-1.3-0.6-2.2-0.6c-0.6,0-0.9,0.3-0.9,0.7
		c0,0.4,0.3,0.6,0.9,0.8c2.3,0.6,3.3,1.8,3.3,3.5C87.9,63.1,86.7,64.7,83.8,64.7z"/>
	<path class="st0" d="M96.4,64.4V63h0c-0.4,1.1-1.5,1.7-3.2,1.7c-2.3,0-3.7-1.3-3.7-3.5V54h3.4v6.4c0,0.8,0.5,1.4,1.6,1.4
		c1,0,1.6-0.7,1.6-1.5V54h3.4v10.4H96.4z"/>
	<path class="st0" d="M108.1,57.6c-0.2-0.1-0.7-0.3-1-0.3c-1.1,0-2.1,0.6-2.1,2.2v4.9h-3.4V54h3.3v2.3h0c0.3-1.6,1.6-2.5,3-2.5
		c0.3,0,0.7,0,1,0.1L108.1,57.6z"/>
	<path class="st0" d="M117.4,64.9c-0.6-0.1-1.3-0.6-1.6-1.4c-0.5,0.9-1.4,1.3-2.7,1.3c-1.8,0-3.5-1.3-3.5-3.4c0-1.9,1.5-3.2,3.6-3.4
		l2.1-0.2v-0.3c0-0.6-0.5-1-1.6-1c-1,0-2.1,0.3-2.9,0.8l-0.6-2.6c0.9-0.6,2.3-0.9,3.7-0.9c2.8,0,4.7,1.3,4.7,3.8v3.4
		c0,1.2,0.5,1.9,1.3,2.2L117.4,64.9z M115.2,59.9L114,60c-0.9,0.1-1.3,0.7-1.3,1.3c0,0.6,0.4,1,1.1,1c0.8,0,1.5-0.6,1.5-1.5V59.9z"
		/>
	<path class="st0" d="M127.5,64.4v-6.4c0-0.8-0.5-1.4-1.5-1.4c-1,0-1.7,0.6-1.7,1.5v6.3h-3.4V54h3.1v1.4h0c0.4-1.1,1.5-1.7,3.2-1.7
		c2.3,0,3.7,1.3,3.7,3.5v7.2H127.5z"/>
	<path class="st0" d="M140.9,57.4c-0.7-0.4-1.4-0.7-2.2-0.7c-1.5,0-2.6,1.1-2.6,2.6c0,1.5,1.2,2.6,2.7,2.6c0.9,0,1.5-0.2,2.3-0.6
		l-0.3,2.9c-0.7,0.3-1.6,0.5-2.6,0.5c-2.9,0-5.6-2.1-5.6-5.4c0-3.4,2.7-5.4,5.6-5.4c1.4,0,2.5,0.3,3.4,0.8L140.9,57.4z"/>
	<path class="st0" d="M152.5,58.7l-1.5,1.5h-5.1C146,61,147.2,62,149,62c1.1,0,2.2-0.3,2.9-0.8l-0.3,2.9c-0.8,0.4-2,0.7-3.3,0.7
		c-3.2,0-5.7-2.2-5.7-5.6c0-3.4,2.4-5.5,5.4-5.5c2.9,0,4.7,2,4.7,4.2C152.6,58.1,152.5,58.4,152.5,58.7z M147.9,56.2
		c-1,0-1.8,0.8-2,1.7h3.5c0-0.1,0-0.1,0-0.2C149.4,57,148.8,56.2,147.9,56.2z"/>
	<path class="st0" d="M154.7,67.9l-1.1-0.2c0.8-0.9,1.4-2.2,1.5-3.2c-0.6-0.1-1.5-1.1-1.5-1.6c0-0.7,1.3-1.9,1.9-1.9
		c0.5,0,1.9,1.2,1.9,1.9C157.5,64.3,156.1,66.7,154.7,67.9z"/>
</g>
</svg>
