<?xml version="1.0" encoding="utf-8"?>
<!-- Generator: Adobe Illustrator 22.1.0, SVG Export Plug-In . SVG Version: 6.00 Build 0)  -->
<svg version="1.1" id="Layer_1" xmlns="http://www.w3.org/2000/svg" xmlns:xlink="http://www.w3.org/1999/xlink" x="0px" y="0px"
	 viewBox="0 0 300 250" style="enable-background:new 0 0 300 250;" xml:space="preserve">
<style type="text/css">
	.st0{fill:#231F20;}
</style>
<g>
	<path class="st0" d="M32.9,88.4c-1.6,4.2-3.2,5.7-5.2,6.5l-2.1-2.1c1.7-0.6,3-1.9,3.8-4.1L25.7,79H29l1.5,4c0.2,0.6,0.5,1.3,0.6,2
		h0c0.2-0.7,0.4-1.4,0.7-2l1.5-4h3.1L32.9,88.4z"/>
	<path class="st0" d="M42.4,89.8c-3.2,0-5.7-2.2-5.7-5.5c0-3.3,2.5-5.5,5.7-5.5c3.1,0,5.7,2.2,5.7,5.5
		C48.1,87.5,45.6,89.8,42.4,89.8z M42.4,81.6c-1.3,0-2.3,1.1-2.3,2.6s1.1,2.6,2.3,2.6c1.2,0,2.3-1.1,2.3-2.6S43.7,81.6,42.4,81.6z"
		/>
	<path class="st0" d="M56.6,89.4V88h0c-0.4,1.1-1.5,1.7-3.2,1.7c-2.3,0-3.7-1.3-3.7-3.5V79h3.4v6.4c0,0.8,0.5,1.4,1.6,1.4
		c1,0,1.6-0.7,1.6-1.5V79h3.4v10.4H56.6z"/>
	<path class="st0" d="M74.9,82.4c-0.7-0.4-1.4-0.7-2.2-0.7c-1.5,0-2.6,1.1-2.6,2.6c0,1.5,1.2,2.6,2.7,2.6c0.9,0,1.5-0.2,2.3-0.6
		l-0.3,2.9c-0.7,0.3-1.6,0.5-2.6,0.5c-2.9,0-5.6-2.1-5.6-5.4c0-3.4,2.7-5.4,5.6-5.4c1.4,0,2.5,0.3,3.4,0.8L74.9,82.4z"/>
	<path class="st0" d="M84.4,89.9c-0.6-0.1-1.3-0.6-1.6-1.4c-0.5,0.9-1.4,1.3-2.7,1.3c-1.8,0-3.5-1.3-3.5-3.4c0-1.9,1.5-3.2,3.6-3.4
		l2.1-0.2v-0.3c0-0.6-0.5-1-1.6-1c-1,0-2.1,0.3-2.9,0.8l-0.6-2.6c0.9-0.6,2.3-0.9,3.7-0.9c2.8,0,4.7,1.3,4.7,3.8v3.4
		c0,1.2,0.5,1.9,1.3,2.2L84.4,89.9z M82.3,84.9L81,85c-0.9,0.1-1.3,0.7-1.3,1.3c0,0.6,0.4,1,1.1,1c0.8,0,1.5-0.6,1.5-1.5V84.9z"/>
	<path class="st0" d="M94.5,89.4v-6.4c0-0.8-0.5-1.4-1.5-1.4c-1,0-1.7,0.6-1.7,1.5v6.3h-3.4V79H91v1.4h0c0.4-1.1,1.5-1.7,3.2-1.7
		c2.3,0,3.7,1.3,3.7,3.5v7.2H94.5z"/>
	<path class="st0" d="M108.5,89.7c-1.4,0-2.5-0.3-3.3-0.7l-0.3-3c0.9,0.6,2.1,1.1,3.3,1.1c0.6,0,1-0.3,1-0.7c0-0.4-0.3-0.6-0.9-0.8
		c-2-0.6-3.2-1.6-3.2-3.4c0-2,1.7-3.4,3.9-3.4c1.3,0,2.6,0.3,3.1,0.6l-0.6,2.5c-0.5-0.3-1.3-0.6-2.2-0.6c-0.6,0-0.9,0.3-0.9,0.7
		c0,0.4,0.3,0.6,0.9,0.8c2.3,0.6,3.3,1.8,3.3,3.5C112.6,88.1,111.3,89.7,108.5,89.7z"/>
	<path class="st0" d="M117.9,89.9c-2.1-0.1-3.6-1.2-3.6-3.7V73.1h3.3v12.7c0,0.9,0.5,1.3,1.4,1.4L117.9,89.9z"/>
	<path class="st0" d="M129.8,83.7l-1.5,1.5h-5.1c0.2,0.9,1.3,1.8,3.1,1.8c1.1,0,2.2-0.3,2.9-0.8l-0.3,2.9c-0.8,0.4-2,0.7-3.3,0.7
		c-3.2,0-5.7-2.2-5.7-5.6c0-3.4,2.4-5.5,5.4-5.5c2.9,0,4.7,2,4.7,4.2C129.9,83.1,129.8,83.4,129.8,83.7z M125.2,81.2
		c-1,0-1.8,0.8-2,1.7h3.5c0-0.1,0-0.1,0-0.2C126.7,82,126.1,81.2,125.2,81.2z"/>
	<path class="st0" d="M141,83.7l-1.5,1.5h-5.1c0.2,0.9,1.3,1.8,3.1,1.8c1.1,0,2.2-0.3,2.9-0.8l-0.3,2.9c-0.8,0.4-2,0.7-3.3,0.7
		c-3.2,0-5.7-2.2-5.7-5.6c0-3.4,2.4-5.5,5.4-5.5c2.9,0,4.7,2,4.7,4.2C141.1,83.1,141,83.4,141,83.7z M136.4,81.2c-1,0-1.8,0.8-2,1.7
		h3.5c0-0.1,0-0.1,0-0.2C137.9,82,137.3,81.2,136.4,81.2z"/>
	<path class="st0" d="M148.7,89.7c-1.1,0-2.2-0.3-2.6-0.7v5.7h-3.3V79h3v1.3h0c0.6-1.1,1.8-1.6,3.2-1.6c2.6,0,5,1.9,5,5.5
		C154,87.6,151.6,89.7,148.7,89.7z M148.1,81.7c-1,0-1.7,0.5-2,1.1V86c0.3,0.4,1,0.9,2,0.9c1.5,0,2.5-1.1,2.5-2.6
		S149.6,81.7,148.1,81.7z"/>
</g>
<g>
	<path class="st0" d="M31.6,114.7c-2.2,0-4-0.8-5-1.5V98.1h3.3v6.3c0.4-0.3,1.5-0.7,2.6-0.7c2.9,0,5.2,2,5.2,5.3
		C37.7,112.3,35.7,114.7,31.6,114.7z M31.9,106.7c-1,0-1.7,0.5-2,0.8v4c0.3,0.3,1.1,0.5,1.7,0.5c1.7,0,2.8-1.2,2.8-2.7
		C34.4,107.8,33.4,106.7,31.9,106.7z"/>
	<path class="st0" d="M49,108.7l-1.5,1.5h-5.1c0.2,0.9,1.3,1.8,3.1,1.8c1.1,0,2.2-0.3,2.9-0.8l-0.3,2.9c-0.8,0.4-2,0.7-3.3,0.7
		c-3.2,0-5.7-2.2-5.7-5.6c0-3.4,2.4-5.5,5.4-5.5c2.9,0,4.7,2,4.7,4.2C49,108.1,49,108.4,49,108.7z M44.4,106.2c-1,0-1.8,0.8-2,1.7
		h3.5c0-0.1,0-0.1,0-0.2C45.9,107,45.3,106.2,44.4,106.2z"/>
	<path class="st0" d="M57.8,106.8h-2.7v3.9c0,0.9,0.5,1.3,1.4,1.3c0.4,0,0.6,0,0.9-0.1l-0.3,2.6c-0.3,0.2-0.9,0.3-1.6,0.3
		c-2.3,0-3.7-1.2-3.7-3.3v-4.5h-1.7V104h1.7v-2.2l3.4-1.2v3.4h3.4L57.8,106.8z"/>
	<path class="st0" d="M66.9,106.8h-2.7v3.9c0,0.9,0.5,1.3,1.4,1.3c0.4,0,0.6,0,0.9-0.1l-0.3,2.6c-0.3,0.2-0.9,0.3-1.6,0.3
		c-2.3,0-3.7-1.2-3.7-3.3v-4.5h-1.7V104h1.7v-2.2l3.4-1.2v3.4h3.4L66.9,106.8z"/>
	<path class="st0" d="M78.1,108.7l-1.5,1.5h-5.1c0.2,0.9,1.3,1.8,3.1,1.8c1.1,0,2.2-0.3,2.9-0.8l-0.3,2.9c-0.8,0.4-2,0.7-3.3,0.7
		c-3.2,0-5.7-2.2-5.7-5.6c0-3.4,2.4-5.5,5.4-5.5c2.9,0,4.7,2,4.7,4.2C78.1,108.1,78.1,108.4,78.1,108.7z M73.5,106.2
		c-1,0-1.8,0.8-2,1.7H75c0-0.1,0-0.1,0-0.2C75,107,74.4,106.2,73.5,106.2z"/>
	<path class="st0" d="M86.3,107.6c-0.2-0.1-0.7-0.3-1-0.3c-1.1,0-2.1,0.6-2.1,2.2v4.9h-3.4V104h3.3v2.3h0c0.3-1.6,1.6-2.5,3-2.5
		c0.3,0,0.7,0,1,0.1L86.3,107.6z"/>
	<path class="st0" d="M88.4,114.8c-0.6,0-1.9-1.3-1.9-1.9c0-0.6,1.3-1.9,1.9-1.9c0.6,0,1.9,1.3,1.9,1.9
		C90.4,113.5,89.1,114.8,88.4,114.8z"/>
</g>
</svg>
