<?xml version="1.0" encoding="utf-8"?>
<!-- Generator: Adobe Illustrator 22.1.0, SVG Export Plug-In . SVG Version: 6.00 Build 0)  -->
<svg version="1.1" id="Layer_1" xmlns="http://www.w3.org/2000/svg" xmlns:xlink="http://www.w3.org/1999/xlink" x="0px" y="0px"
	 viewBox="0 0 300 250" style="enable-background:new 0 0 300 250;" xml:space="preserve">
<style type="text/css">
	.st0{fill:#231F20;}
</style>
<g>
	<path class="st0" d="M36.4,39.4v-5.8h-5.7v5.8h-3.6V24.8h3.6v5.8h5.7v-5.8H40v14.7H36.4z"/>
	<path class="st0" d="M51.9,33.6l-1.5,1.5h-5.1c0.2,0.9,1.3,1.8,3.1,1.8c1.1,0,2.2-0.3,2.9-0.8L51,39.1c-0.8,0.4-2,0.7-3.3,0.7
		c-3.2,0-5.7-2.2-5.7-5.6c0-3.4,2.4-5.5,5.4-5.5c2.9,0,4.7,2,4.7,4.2C52,33.1,52,33.4,51.9,33.6z M47.3,31.2c-1,0-1.8,0.8-2,1.7h3.5
		c0-0.1,0-0.1,0-0.2C48.9,32,48.2,31.2,47.3,31.2z"/>
	<path class="st0" d="M57.3,39.9c-2.1-0.1-3.6-1.2-3.6-3.7V23.1H57v12.7c0,0.9,0.5,1.3,1.4,1.4L57.3,39.9z"/>
	<path class="st0" d="M65.7,39.7c-1.1,0-2.2-0.3-2.6-0.7v5.7h-3.3V29h3v1.3h0c0.6-1.1,1.8-1.6,3.2-1.6c2.6,0,5,1.9,5,5.5
		C71,37.6,68.6,39.7,65.7,39.7z M65.1,31.7c-1,0-1.7,0.5-2,1.1V36c0.3,0.4,1,0.9,2,0.9c1.5,0,2.5-1.1,2.5-2.6S66.6,31.7,65.1,31.7z"
		/>
	<path class="st0" d="M83.8,39.7c-1.1,0-2.2-0.3-2.6-0.7v5.7h-3.3V29h3v1.3h0c0.6-1.1,1.8-1.6,3.2-1.6c2.6,0,5,1.9,5,5.5
		C89.1,37.6,86.7,39.7,83.8,39.7z M83.2,31.7c-1,0-1.7,0.5-2,1.1V36c0.3,0.4,1,0.9,2,0.9c1.5,0,2.5-1.1,2.5-2.6S84.6,31.7,83.2,31.7
		z"/>
	<path class="st0" d="M97.6,39.4V38h0c-0.4,1.1-1.5,1.7-3.2,1.7c-2.3,0-3.7-1.3-3.7-3.5V29h3.4v6.4c0,0.8,0.5,1.4,1.6,1.4
		c1,0,1.6-0.7,1.6-1.5V29h3.4v10.4H97.6z"/>
	<path class="st0" d="M109.9,31.8h-2.7v3.9c0,0.9,0.5,1.3,1.4,1.3c0.4,0,0.6,0,0.9-0.1l-0.3,2.6c-0.3,0.2-0.9,0.3-1.6,0.3
		c-2.3,0-3.7-1.2-3.7-3.3v-4.5H102V29h1.7v-2.2l3.4-1.2V29h3.4L109.9,31.8z"/>
	<path class="st0" d="M123.2,38.4c-1.6,4.2-3.2,5.7-5.2,6.5l-2.1-2.1c1.7-0.6,3-1.9,3.8-4.1L116,29h3.3l1.5,4c0.2,0.6,0.5,1.3,0.6,2
		h0c0.2-0.7,0.4-1.4,0.7-2l1.5-4h3.1L123.2,38.4z"/>
	<path class="st0" d="M132.8,39.8c-3.2,0-5.7-2.2-5.7-5.5c0-3.3,2.5-5.5,5.7-5.5c3.1,0,5.7,2.2,5.7,5.5
		C138.4,37.5,135.9,39.8,132.8,39.8z M132.8,31.6c-1.3,0-2.3,1.1-2.3,2.6s1.1,2.6,2.3,2.6c1.2,0,2.3-1.1,2.3-2.6
		S134,31.6,132.8,31.6z"/>
	<path class="st0" d="M147,39.4V38h0c-0.4,1.1-1.5,1.7-3.2,1.7c-2.3,0-3.7-1.3-3.7-3.5V29h3.4v6.4c0,0.8,0.5,1.4,1.6,1.4
		c1,0,1.6-0.7,1.6-1.5V29h3.4v10.4H147z"/>
	<path class="st0" d="M158.7,32.6c-0.2-0.1-0.7-0.3-1-0.3c-1.1,0-2.1,0.6-2.1,2.2v4.9h-3.4V29h3.3v2.3h0c0.3-1.6,1.6-2.5,3-2.5
		c0.3,0,0.7,0,1,0.1L158.7,32.6z"/>
	<path class="st0" d="M178.6,39.4v-6.4c0-0.8-0.4-1.4-1.5-1.4c-1.1,0-1.6,0.6-1.6,1.5v6.3h-3.4v-6.4c0-0.8-0.4-1.4-1.5-1.4
		c-1.1,0-1.6,0.6-1.6,1.5v6.3h-3.4V29h3.1v1.4h0c0.4-1.1,1.4-1.7,3.1-1.7c1.5,0,2.6,0.6,3.1,1.7c0.4-1,1.7-1.7,3.2-1.7
		c2.4,0,3.7,1.3,3.7,3.5v7.2H178.6z"/>
	<path class="st0" d="M185.9,27.6c-0.6,0-1.8-1.2-1.8-1.8c0-0.6,1.2-1.8,1.8-1.8s1.8,1.2,1.8,1.8C187.8,26.4,186.5,27.6,185.9,27.6z
		 M184.2,39.4V29h3.4v10.4H184.2z"/>
	<path class="st0" d="M196.4,39.4v-6.4c0-0.8-0.5-1.4-1.5-1.4c-1,0-1.7,0.6-1.7,1.5v6.3h-3.4V29h3.1v1.4h0c0.4-1.1,1.5-1.7,3.2-1.7
		c2.3,0,3.7,1.3,3.7,3.5v7.2H196.4z"/>
	<path class="st0" d="M209.7,39.4v-1.3h0c-0.6,1.1-1.8,1.6-3.2,1.6c-2.6,0-5-1.9-5-5.5c0-3.4,2.4-5.5,5.3-5.5c1.1,0,2.2,0.4,2.6,0.7
		v-6.3h3.3v16.4H209.7z M209.4,32.6c-0.3-0.4-1-0.9-2-0.9c-1.5,0-2.5,1.1-2.5,2.6s1,2.6,2.5,2.6c1,0,1.7-0.5,2-1.1V32.6z"/>
	<path class="st0" d="M227.4,39.9c-0.6-0.1-1.3-0.6-1.6-1.4c-0.5,0.9-1.4,1.3-2.7,1.3c-1.8,0-3.5-1.3-3.5-3.4c0-1.9,1.5-3.2,3.6-3.4
		l2.1-0.2v-0.3c0-0.6-0.5-1-1.6-1c-1,0-2.1,0.3-2.9,0.8l-0.6-2.6c0.9-0.6,2.3-0.9,3.7-0.9c2.8,0,4.7,1.3,4.7,3.8v3.4
		c0,1.2,0.5,1.9,1.3,2.2L227.4,39.9z M225.2,34.9L224,35c-0.9,0.1-1.3,0.7-1.3,1.3c0,0.6,0.4,1,1.1,1c0.8,0,1.5-0.6,1.5-1.5V34.9z"
		/>
	<path class="st0" d="M237.5,39.4v-6.4c0-0.8-0.5-1.4-1.5-1.4c-1,0-1.7,0.6-1.7,1.5v6.3h-3.4V29h3.1v1.4h0c0.4-1.1,1.5-1.7,3.2-1.7
		c2.3,0,3.7,1.3,3.7,3.5v7.2H237.5z"/>
	<path class="st0" d="M250.8,39.4v-1.3h0c-0.6,1.1-1.8,1.6-3.2,1.6c-2.6,0-5-1.9-5-5.5c0-3.4,2.4-5.5,5.3-5.5c1.1,0,2.2,0.4,2.6,0.7
		v-6.3h3.3v16.4H250.8z M250.5,32.6c-0.3-0.4-1-0.9-2-0.9c-1.5,0-2.5,1.1-2.5,2.6s1,2.6,2.5,2.6c1,0,1.7-0.5,2-1.1V32.6z"/>
</g>
<g>
	<path class="st0" d="M34.3,51.1c-0.4-0.2-0.9-0.3-1.4-0.3c-1.2,0-1.9,0.7-1.9,2.2v1h3l-0.7,2.8H31v7.7h-3.3v-7.7h-1.6V54h1.6v-1.2
		c0-3.2,2-4.7,4.7-4.7c1,0,1.9,0.1,2.5,0.3L34.3,51.1z"/>
	<path class="st0" d="M42.5,64.9c-0.6-0.1-1.3-0.6-1.6-1.4c-0.5,0.9-1.4,1.3-2.7,1.3c-1.8,0-3.5-1.3-3.5-3.4c0-1.9,1.5-3.2,3.6-3.4
		l2.1-0.2v-0.3c0-0.6-0.5-1-1.6-1c-1,0-2.1,0.3-2.9,0.8l-0.6-2.6c0.9-0.6,2.3-0.9,3.7-0.9c2.8,0,4.7,1.3,4.7,3.8v3.4
		c0,1.2,0.5,1.9,1.3,2.2L42.5,64.9z M40.3,59.9L39,60c-0.9,0.1-1.3,0.7-1.3,1.3c0,0.6,0.4,1,1.1,1c0.8,0,1.5-0.6,1.5-1.5V59.9z"/>
	<path class="st0" d="M58.8,64.4v-6.4c0-0.8-0.4-1.4-1.5-1.4c-1.1,0-1.6,0.6-1.6,1.5v6.3h-3.4v-6.4c0-0.8-0.4-1.4-1.5-1.4
		c-1.1,0-1.6,0.6-1.6,1.5v6.3H46V54h3.1v1.4h0c0.4-1.1,1.4-1.7,3.1-1.7c1.5,0,2.6,0.6,3.1,1.7c0.4-1,1.7-1.7,3.2-1.7
		c2.4,0,3.7,1.3,3.7,3.5v7.2H58.8z"/>
	<path class="st0" d="M66.1,52.6c-0.6,0-1.8-1.2-1.8-1.8c0-0.6,1.2-1.8,1.8-1.8c0.6,0,1.8,1.2,1.8,1.8
		C67.9,51.4,66.7,52.6,66.1,52.6z M64.4,64.4V54h3.4v10.4H64.4z"/>
	<path class="st0" d="M73.6,64.9c-2.1-0.1-3.6-1.2-3.6-3.7V48.1h3.3v12.7c0,0.9,0.5,1.3,1.4,1.4L73.6,64.9z"/>
	<path class="st0" d="M82.1,63.4c-1.6,4.2-3.2,5.7-5.2,6.5l-2.1-2.1c1.7-0.6,3-1.9,3.8-4.1L74.9,54h3.3l1.5,4c0.2,0.6,0.5,1.3,0.6,2
		h0c0.2-0.7,0.4-1.4,0.7-2l1.5-4h3.1L82.1,63.4z"/>
	<path class="st0" d="M87.6,56.3l-1.1-0.2c0.8-0.9,1.4-2.2,1.5-3.2c-0.6-0.1-1.5-1.1-1.5-1.6c0-0.7,1.3-1.9,1.9-1.9
		c0.5,0,1.9,1.2,1.9,1.9C90.4,52.7,89,55.1,87.6,56.3z"/>
	<path class="st0" d="M94.6,64.7c-1.4,0-2.5-0.3-3.3-0.7l-0.3-3c0.9,0.6,2.1,1.1,3.3,1.1c0.6,0,1-0.3,1-0.7c0-0.4-0.3-0.6-0.9-0.8
		c-2-0.6-3.2-1.6-3.2-3.4c0-2,1.7-3.4,3.9-3.4c1.3,0,2.6,0.3,3.1,0.6l-0.6,2.5c-0.5-0.3-1.3-0.6-2.2-0.6c-0.6,0-0.9,0.3-0.9,0.7
		c0,0.4,0.3,0.6,0.9,0.8c2.3,0.6,3.3,1.8,3.3,3.5C98.7,63.1,97.4,64.7,94.6,64.7z"/>
	<path class="st0" d="M112.7,51.1c-0.4-0.2-0.9-0.3-1.4-0.3c-1.2,0-1.9,0.7-1.9,2.2v1h3l-0.7,2.8h-2.3v7.7h-3.3v-7.7h-1.6V54h1.6
		v-1.2c0-3.2,2-4.7,4.7-4.7c1,0,1.9,0.1,2.5,0.3L112.7,51.1z"/>
	<path class="st0" d="M120.5,64.4V63h0c-0.4,1.1-1.5,1.7-3.2,1.7c-2.3,0-3.7-1.3-3.7-3.5V54h3.4v6.4c0,0.8,0.5,1.4,1.6,1.4
		c1,0,1.6-0.7,1.6-1.5V54h3.4v10.4H120.5z"/>
	<path class="st0" d="M132.7,56.8H130v3.9c0,0.9,0.5,1.3,1.4,1.3c0.4,0,0.6,0,0.9-0.1l-0.3,2.6c-0.3,0.2-0.9,0.3-1.6,0.3
		c-2.3,0-3.7-1.2-3.7-3.3v-4.5h-1.7V54h1.7v-2.2l3.4-1.2V54h3.4L132.7,56.8z"/>
	<path class="st0" d="M141.4,64.4V63h0c-0.4,1.1-1.5,1.7-3.2,1.7c-2.3,0-3.7-1.3-3.7-3.5V54h3.4v6.4c0,0.8,0.5,1.4,1.6,1.4
		c1,0,1.6-0.7,1.6-1.5V54h3.4v10.4H141.4z"/>
	<path class="st0" d="M153.1,57.6c-0.2-0.1-0.7-0.3-1-0.3c-1.1,0-2.1,0.6-2.1,2.2v4.9h-3.4V54h3.3v2.3h0c0.3-1.6,1.6-2.5,3-2.5
		c0.3,0,0.7,0,1,0.1L153.1,57.6z"/>
	<path class="st0" d="M164.4,58.7l-1.5,1.5h-5.1c0.2,0.9,1.3,1.8,3.1,1.8c1.1,0,2.2-0.3,2.9-0.8l-0.3,2.9c-0.8,0.4-2,0.7-3.3,0.7
		c-3.2,0-5.7-2.2-5.7-5.6c0-3.4,2.4-5.5,5.4-5.5c2.9,0,4.7,2,4.7,4.2C164.5,58.1,164.4,58.4,164.4,58.7z M159.8,56.2
		c-1,0-1.8,0.8-2,1.7h3.5c0-0.1,0-0.1,0-0.2C161.3,57,160.7,56.2,159.8,56.2z"/>
	<path class="st0" d="M178.6,64.9c-0.6-0.1-1.3-0.6-1.6-1.4c-0.5,0.9-1.4,1.3-2.7,1.3c-1.8,0-3.5-1.3-3.5-3.4c0-1.9,1.5-3.2,3.6-3.4
		l2.1-0.2v-0.3c0-0.6-0.5-1-1.6-1c-1,0-2.1,0.3-2.9,0.8l-0.6-2.6c0.9-0.6,2.3-0.9,3.7-0.9c2.8,0,4.7,1.3,4.7,3.8v3.4
		c0,1.2,0.5,1.9,1.3,2.2L178.6,64.9z M176.5,59.9l-1.3,0.1c-0.9,0.1-1.3,0.7-1.3,1.3c0,0.6,0.4,1,1.1,1c0.8,0,1.5-0.6,1.5-1.5V59.9z
		"/>
	<path class="st0" d="M188.9,56.8h-2.7v3.9c0,0.9,0.5,1.3,1.4,1.3c0.4,0,0.6,0,0.9-0.1l-0.3,2.6c-0.3,0.2-0.9,0.3-1.6,0.3
		c-2.3,0-3.7-1.2-3.7-3.3v-4.5h-1.7V54h1.7v-2.2l3.4-1.2V54h3.4L188.9,56.8z"/>
	<path class="st0" d="M205.4,58.7l-1.5,1.5h-5.1c0.2,0.9,1.3,1.8,3.1,1.8c1.1,0,2.2-0.3,2.9-0.8l-0.3,2.9c-0.8,0.4-2,0.7-3.3,0.7
		c-3.2,0-5.7-2.2-5.7-5.6c0-3.4,2.4-5.5,5.4-5.5c2.9,0,4.7,2,4.7,4.2C205.5,58.1,205.5,58.4,205.4,58.7z M200.9,56.2
		c-1,0-1.8,0.8-2,1.7h3.5c0-0.1,0-0.1,0-0.2C202.4,57,201.8,56.2,200.9,56.2z"/>
	<path class="st0" d="M214.4,64.9c-0.6-0.1-1.3-0.6-1.6-1.4c-0.5,0.9-1.4,1.3-2.7,1.3c-1.8,0-3.5-1.3-3.5-3.4c0-1.9,1.5-3.2,3.6-3.4
		l2.1-0.2v-0.3c0-0.6-0.5-1-1.6-1c-1,0-2.1,0.3-2.9,0.8l-0.6-2.6c0.9-0.6,2.3-0.9,3.7-0.9c2.8,0,4.7,1.3,4.7,3.8v3.4
		c0,1.2,0.5,1.9,1.3,2.2L214.4,64.9z M212.3,59.9L211,60c-0.9,0.1-1.3,0.7-1.3,1.3c0,0.6,0.4,1,1.1,1c0.8,0,1.5-0.6,1.5-1.5V59.9z"
		/>
	<path class="st0" d="M221.3,64.7c-1.4,0-2.5-0.3-3.3-0.7l-0.3-3c0.9,0.6,2.1,1.1,3.3,1.1c0.6,0,1-0.3,1-0.7c0-0.4-0.3-0.6-0.9-0.8
		c-2-0.6-3.2-1.6-3.2-3.4c0-2,1.7-3.4,3.9-3.4c1.3,0,2.6,0.3,3.1,0.6l-0.6,2.5c-0.5-0.3-1.3-0.6-2.2-0.6c-0.6,0-0.9,0.3-0.9,0.7
		c0,0.4,0.3,0.6,0.9,0.8c2.3,0.6,3.3,1.8,3.3,3.5C225.4,63.1,224.1,64.7,221.3,64.7z"/>
	<path class="st0" d="M236.5,58.7l-1.5,1.5h-5.1c0.2,0.9,1.3,1.8,3.1,1.8c1.1,0,2.2-0.3,2.9-0.8l-0.3,2.9c-0.8,0.4-2,0.7-3.3,0.7
		c-3.2,0-5.7-2.2-5.7-5.6c0-3.4,2.4-5.5,5.4-5.5c2.9,0,4.7,2,4.7,4.2C236.6,58.1,236.6,58.4,236.5,58.7z M231.9,56.2
		c-1,0-1.8,0.8-2,1.7h3.5c0-0.1,0-0.1,0-0.2C233.5,57,232.8,56.2,231.9,56.2z"/>
</g>
<g>
	<path class="st0" d="M38.5,89.5h-2.3l-1.4-4.1c-0.2-0.6-0.4-1.4-0.6-2.2h0c-0.2,0.8-0.4,1.5-0.6,2.1l-1.4,4.2h-2.2L26.3,79h3.1
		l1.3,4c0.2,0.6,0.4,1.3,0.5,2h0c0.1-0.6,0.3-1.4,0.5-2l1.3-4h2.6l1.3,3.9c0.2,0.6,0.3,1.4,0.5,2h0c0.1-0.7,0.3-1.4,0.5-2l1.3-3.9
		h2.9L38.5,89.5z"/>
	<path class="st0" d="M45.1,77.6c-0.6,0-1.8-1.2-1.8-1.8c0-0.6,1.2-1.8,1.8-1.8c0.6,0,1.8,1.2,1.8,1.8
		C46.9,76.4,45.7,77.6,45.1,77.6z M43.4,89.4V79h3.4v10.4H43.4z"/>
	<path class="st0" d="M55.9,81.8h-2.7v3.9c0,0.9,0.5,1.3,1.4,1.3c0.4,0,0.6,0,0.9-0.1l-0.3,2.6c-0.3,0.2-0.9,0.3-1.6,0.3
		c-2.3,0-3.7-1.2-3.7-3.3v-4.5h-1.7V79h1.7v-2.2l3.4-1.2V79h3.4L55.9,81.8z"/>
	<path class="st0" d="M64.4,89.4v-6.4c0-0.8-0.5-1.4-1.6-1.4c-1,0-1.6,0.6-1.6,1.5v6.3h-3.4V73.1h3.3V80h0c0.5-0.8,1.5-1.3,2.9-1.3
		c2.3,0,3.7,1.3,3.7,3.5v7.2H64.4z"/>
	<path class="st0" d="M81.9,77.7v11.8h-3.6V77.7h-4.2v-2.9h12v2.9H81.9z"/>
	<path class="st0" d="M87.5,89.4V74.8h3.6v14.7H87.5z"/>
	<path class="st0" d="M103,89.4l-1.2-3.3h-4.7l-1.2,3.3h-3.4l5.8-14.8h2.5l5.8,14.8H103z M99.9,80.6c-0.1-0.4-0.3-0.9-0.4-1.4h0
		c-0.1,0.5-0.3,1-0.4,1.4l-1,2.7h2.9L99.9,80.6z"/>
	<path class="st0" d="M117.9,89.4l-1.2-3.3H112l-1.2,3.3h-3.4l5.8-14.8h2.5l5.8,14.8H117.9z M114.8,80.6c-0.1-0.4-0.3-0.9-0.4-1.4h0
		c-0.1,0.5-0.3,1-0.4,1.4l-1,2.7h2.9L114.8,80.6z"/>
	<path class="st0" d="M128.1,89.4V74.8h3.6v11.8h5.5v2.9H128.1z"/>
	<path class="st0" d="M140.1,77.6c-0.6,0-1.8-1.2-1.8-1.8c0-0.6,1.2-1.8,1.8-1.8c0.6,0,1.8,1.2,1.8,1.8
		C142,76.4,140.7,77.6,140.1,77.6z M138.4,89.4V79h3.4v10.4H138.4z"/>
	<path class="st0" d="M151.3,76.1c-0.4-0.2-0.9-0.3-1.4-0.3c-1.2,0-1.9,0.7-1.9,2.2v1h3l-0.7,2.8h-2.3v7.7h-3.3v-7.7h-1.6V79h1.6
		v-1.2c0-3.2,2-4.7,4.7-4.7c1,0,1.9,0.1,2.5,0.3L151.3,76.1z"/>
	<path class="st0" d="M161.5,83.7l-1.5,1.5h-5.1c0.2,0.9,1.3,1.8,3.1,1.8c1.1,0,2.2-0.3,2.9-0.8l-0.3,2.9c-0.8,0.4-2,0.7-3.3,0.7
		c-3.2,0-5.7-2.2-5.7-5.6c0-3.4,2.4-5.5,5.4-5.5c2.9,0,4.7,2,4.7,4.2C161.6,83.1,161.6,83.4,161.5,83.7z M157,81.2
		c-1,0-1.8,0.8-2,1.7h3.5c0-0.1,0-0.1,0-0.2C158.5,82,157.9,81.2,157,81.2z"/>
	<path class="st0" d="M170.2,77.6c-0.6,0-1.8-1.2-1.8-1.8c0-0.6,1.2-1.8,1.8-1.8s1.8,1.2,1.8,1.8C172,76.4,170.8,77.6,170.2,77.6z
		 M168.5,89.4V79h3.4v10.4H168.5z"/>
	<path class="st0" d="M180.7,89.4v-6.4c0-0.8-0.5-1.4-1.5-1.4c-1,0-1.7,0.6-1.7,1.5v6.3h-3.4V79h3.1v1.4h0c0.4-1.1,1.5-1.7,3.2-1.7
		c2.3,0,3.7,1.3,3.7,3.5v7.2H180.7z"/>
	<path class="st0" d="M189.6,89.7c-1.4,0-2.5-0.3-3.3-0.7l-0.3-3c0.9,0.6,2.1,1.1,3.3,1.1c0.6,0,1-0.3,1-0.7c0-0.4-0.3-0.6-0.9-0.8
		c-2-0.6-3.2-1.6-3.2-3.4c0-2,1.7-3.4,3.9-3.4c1.3,0,2.6,0.3,3.1,0.6l-0.6,2.5c-0.5-0.3-1.3-0.6-2.2-0.6c-0.6,0-0.9,0.3-0.9,0.7
		c0,0.4,0.3,0.6,0.9,0.8c2.3,0.6,3.3,1.8,3.3,3.5C193.7,88.1,192.4,89.7,189.6,89.7z"/>
	<path class="st0" d="M202.2,89.4V88h0c-0.4,1.1-1.5,1.7-3.2,1.7c-2.3,0-3.7-1.3-3.7-3.5V79h3.4v6.4c0,0.8,0.5,1.4,1.6,1.4
		c1,0,1.6-0.7,1.6-1.5V79h3.4v10.4H202.2z"/>
	<path class="st0" d="M213.9,82.6c-0.2-0.1-0.7-0.3-1-0.3c-1.1,0-2.1,0.6-2.1,2.2v4.9h-3.4V79h3.3v2.3h0c0.3-1.6,1.6-2.5,3-2.5
		c0.3,0,0.7,0,1,0.1L213.9,82.6z"/>
	<path class="st0" d="M223.1,89.9c-0.6-0.1-1.3-0.6-1.6-1.4c-0.5,0.9-1.4,1.3-2.7,1.3c-1.8,0-3.5-1.3-3.5-3.4c0-1.9,1.5-3.2,3.6-3.4
		l2.1-0.2v-0.3c0-0.6-0.5-1-1.6-1c-1,0-2.1,0.3-2.9,0.8l-0.6-2.6c0.9-0.6,2.3-0.9,3.7-0.9c2.8,0,4.7,1.3,4.7,3.8v3.4
		c0,1.2,0.5,1.9,1.3,2.2L223.1,89.9z M221,84.9l-1.3,0.1c-0.9,0.1-1.3,0.7-1.3,1.3c0,0.6,0.4,1,1.1,1c0.8,0,1.5-0.6,1.5-1.5V84.9z"
		/>
	<path class="st0" d="M233.2,89.4v-6.4c0-0.8-0.5-1.4-1.5-1.4c-1,0-1.7,0.6-1.7,1.5v6.3h-3.4V79h3.1v1.4h0c0.4-1.1,1.5-1.7,3.2-1.7
		c2.3,0,3.7,1.3,3.7,3.5v7.2H233.2z"/>
	<path class="st0" d="M246.6,82.4c-0.7-0.4-1.4-0.7-2.2-0.7c-1.5,0-2.6,1.1-2.6,2.6c0,1.5,1.2,2.6,2.7,2.6c0.9,0,1.5-0.2,2.3-0.6
		l-0.3,2.9c-0.7,0.3-1.6,0.5-2.6,0.5c-2.9,0-5.6-2.1-5.6-5.4c0-3.4,2.7-5.4,5.6-5.4c1.4,0,2.5,0.3,3.4,0.8L246.6,82.4z"/>
	<path class="st0" d="M258.2,83.7l-1.5,1.5h-5.1c0.2,0.9,1.3,1.8,3.1,1.8c1.1,0,2.2-0.3,2.9-0.8l-0.3,2.9c-0.8,0.4-2,0.7-3.3,0.7
		c-3.2,0-5.7-2.2-5.7-5.6c0-3.4,2.4-5.5,5.4-5.5c2.9,0,4.7,2,4.7,4.2C258.3,83.1,258.2,83.4,258.2,83.7z M253.6,81.2
		c-1,0-1.8,0.8-2,1.7h3.5c0-0.1,0-0.1,0-0.2C255.1,82,254.5,81.2,253.6,81.2z"/>
	<path class="st0" d="M261.3,89.8c-0.6,0-1.9-1.3-1.9-1.9c0-0.6,1.3-1.9,1.9-1.9c0.6,0,1.9,1.3,1.9,1.9
		C263.2,88.5,261.9,89.8,261.3,89.8z"/>
</g>
</svg>
