<?xml version="1.0" encoding="utf-8"?>
<!-- Generator: Adobe Illustrator 22.1.0, SVG Export Plug-In . SVG Version: 6.00 Build 0)  -->
<svg version="1.1" id="Layer_1" xmlns="http://www.w3.org/2000/svg" xmlns:xlink="http://www.w3.org/1999/xlink" x="0px" y="0px"
	 viewBox="0 0 300 250" style="enable-background:new 0 0 300 250;" xml:space="preserve">
<style type="text/css">
	.st0{fill:#F9E038;}
	.st1{fill:#231F20;}
</style>
<path class="st0" d="M176.8,140c0,0-13,0-13,13v3.5c0,0,0,13,13,13h87c0,0,13,0,13-13V153c0,0,0-13-13-13H176.8z"/>
<g>
	<path class="st1" d="M189.1,157.6v1.7h-5.4v-8.4h2v6.8H189.1z"/>
	<path class="st1" d="M191.9,152.4v1.7h3.2v1.6h-3.2v1.9h4.1v1.6h-6v-8.4h6v1.6H191.9z"/>
	<path class="st1" d="M204.1,159.3H202l-0.5-1.7h-2.7l-0.5,1.7h-1.7l2.7-8.4h2.3L204.1,159.3z M201,156l-0.9-3l-0.9,3H201z"/>
	<path class="st1" d="M206.9,159.3h-2v-8.4h3.6c0.8,0,1.5,0,2.2,0.4c0.7,0.5,1.1,1.3,1.1,2.1c0,1-0.6,1.8-1.5,2.2l1.6,3.7h-2.2
		l-1.3-3.3h-1.4V159.3z M206.9,154.5h1.1c0.4,0,0.8,0,1.2-0.2c0.3-0.2,0.5-0.6,0.5-1c0-0.3-0.2-0.7-0.5-0.9
		c-0.3-0.2-0.9-0.2-1.3-0.2h-1V154.5z"/>
	<path class="st1" d="M219.4,159.3h-1.7l-3.2-5.7h0v5.7h-1.5v-8.4h2.1l2.8,5h0v-5h1.5V159.3z"/>
	<path class="st1" d="M229.6,159.3h-1.4l-2.1-6.9h0v6.9h-1.7v-8.4h3.1l1.5,5.1l1.6-5.1h3.1v8.4h-2v-6.9h0L229.6,159.3z"/>
	<path class="st1" d="M235.7,158c-0.6-0.9-0.9-2-0.9-3c0-2.2,1.1-4.3,3.6-4.3c1.1,0,2,0.4,2.7,1.3c0.6,0.8,0.9,2,0.9,3
		c0,1-0.3,2.1-0.8,2.9c-0.7,1-1.7,1.4-2.8,1.4C237.3,159.4,236.4,159,235.7,158z M237.2,153.3c-0.2,0.5-0.3,1.2-0.3,1.8
		c0,1.1,0.2,2.7,1.6,2.7c0.7,0,1-0.3,1.3-1c0.2-0.5,0.3-1.2,0.3-1.8c0-0.6-0.1-1.3-0.3-1.9c-0.2-0.6-0.6-0.8-1.2-0.8
		C237.8,152.3,237.4,152.6,237.2,153.3z"/>
	<path class="st1" d="M245.2,159.3h-2v-8.4h3.6c0.8,0,1.5,0,2.2,0.4c0.7,0.5,1.1,1.3,1.1,2.1c0,1-0.6,1.8-1.5,2.2l1.6,3.7h-2.2
		l-1.3-3.3h-1.4V159.3z M245.2,154.5h1.1c0.4,0,0.8,0,1.2-0.2c0.3-0.2,0.5-0.6,0.5-1c0-0.3-0.2-0.7-0.5-0.9
		c-0.3-0.2-0.9-0.2-1.3-0.2h-1V154.5z"/>
	<path class="st1" d="M253.2,152.4v1.7h3.2v1.6h-3.2v1.9h4.1v1.6h-6v-8.4h6v1.6H253.2z"/>
</g>
</svg>
