<?xml version="1.0" encoding="utf-8"?>
<!-- Generator: Adobe Illustrator 22.1.0, SVG Export Plug-In . SVG Version: 6.00 Build 0)  -->
<svg version="1.1" id="Layer_1" xmlns="http://www.w3.org/2000/svg" xmlns:xlink="http://www.w3.org/1999/xlink" x="0px" y="0px"
	 viewBox="0 0 300 250" style="enable-background:new 0 0 300 250;" xml:space="preserve">
<style type="text/css">
	.st0{fill:#48A642;}
	.st1{fill:none;stroke:#981B27;stroke-width:9.917;stroke-miterlimit:10;}
	.st2{fill:#429891;}
	.st3{fill:none;stroke:#981B27;stroke-width:3.127;stroke-miterlimit:10;}
	.st4{fill:#FAB016;}
	.st5{fill:#4F131E;}
	.st6{fill:#981B27;}
	.st7{display:none;opacity:0.8;}
	.st8{display:inline;}
	.st9{clip-path:url(#SVGID_2_);}
	.st10{clip-path:url(#SVGID_4_);fill:#CBCBCB;}
	.st11{clip-path:url(#SVGID_6_);}
	.st12{clip-path:url(#SVGID_8_);fill:#FFFFFF;}
	.st13{clip-path:url(#SVGID_10_);}
	.st14{clip-path:url(#SVGID_12_);fill:#FFFFFF;}
	.st15{clip-path:url(#SVGID_14_);}
	.st16{clip-path:url(#SVGID_16_);fill:#CBCBCB;}
	.st17{clip-path:url(#SVGID_18_);}
	.st18{clip-path:url(#SVGID_20_);fill:#CBCBCB;}
	.st19{fill:none;}
</style>
<rect x="-824.1" y="193.3" class="st0" width="2009.6" height="82.2"/>
<line class="st1" x1="146.5" y1="194.9" x2="267.3" y2="194.9"/>
<rect x="170.2" y="138.3" class="st2" width="24.2" height="55.3"/>
<rect x="170.2" y="138.3" class="st3" width="24.2" height="55.3"/>
<path class="st4" d="M190.4,165.3c0,1.4-1.1,2.5-2.5,2.5c-1.4,0-2.5-1.1-2.5-2.5c0-1.4,1.1-2.5,2.5-2.5
	C189.2,162.8,190.4,163.9,190.4,165.3"/>
<rect x="236.9" y="84.4" class="st5" width="10" height="17.1"/>
<path class="st6" d="M249.2,86.5c0,1-0.9,1.8-2.1,1.8h-10.4c-1.2,0-2.1-0.8-2.1-1.8v-3c0-1,0.9-1.8,2.1-1.8h10.4
	c1.2,0,2.1,0.8,2.1,1.8V86.5z"/>
<polygon class="st6" points="265.2,126.1 208.4,88.3 151.6,126.1 148.6,115.3 208.4,75.4 268.2,115.3 "/>
<rect x="202.5" y="138.5" class="st6" width="10.7" height="26.3"/>
<rect x="242.9" y="138.5" class="st6" width="10.8" height="26.3"/>
<line class="st1" x1="146.5" y1="194.9" x2="262.6" y2="194.9"/>
<path class="st0" d="M252.6,194.1c-1.7-1.3-5.5-1.5-6.5,0.8c0.6-2.1-0.5-5-2.1-6.3c-1.5-1.2-3.5-1.5-5.4-1.2
	c-3.5,0.6-6.6,3.3-7.1,7.1c-0.7-1.2-2-2-3.4-2c-1.5,0-2.8,0.9-3.5,2.2c-1.1-2.1-4.8-1.9-6.4-0.6c-1.9,1.6-2.1,4.4-1.6,6.8h10.1h4.9
	h22.5C254.7,198.5,254.5,195.7,252.6,194.1"/>
<g class="st7">
	<g class="st8">
		<defs>
			<rect id="SVGID_1_" x="238.6" y="71.7" width="7.8" height="7.8"/>
		</defs>
		<clipPath id="SVGID_2_">
			<use xlink:href="#SVGID_1_"  style="overflow:visible;"/>
		</clipPath>
		<g class="st9">
			<defs>
				<rect id="SVGID_3_" x="238.6" y="71.7" width="7.8" height="7.8"/>
			</defs>
			<clipPath id="SVGID_4_">
				<use xlink:href="#SVGID_3_"  style="overflow:visible;"/>
			</clipPath>
			<path class="st10" d="M238.6,75.6c0,2.2,1.8,3.9,3.9,3.9c2.2,0,3.9-1.8,3.9-3.9c0-2.2-1.8-3.9-3.9-3.9
				C240.3,71.7,238.6,73.4,238.6,75.6"/>
		</g>
	</g>
</g>
<g class="st7">
	<g class="st8">
		<defs>
			<rect id="SVGID_5_" x="412.2" y="-321.6" width="32.8" height="32.8"/>
		</defs>
		<clipPath id="SVGID_6_">
			<use xlink:href="#SVGID_5_"  style="overflow:visible;"/>
		</clipPath>
		<g class="st11">
			<defs>
				<rect id="SVGID_7_" x="412.2" y="-321.6" width="32.8" height="32.8"/>
			</defs>
			<clipPath id="SVGID_8_">
				<use xlink:href="#SVGID_7_"  style="overflow:visible;"/>
			</clipPath>
			<path class="st12" d="M412.2-304.8c0.2,9.1,7.7,16.3,16.8,16.1c9.1-0.2,16.3-7.7,16.1-16.8c-0.2-9.1-7.7-16.3-16.8-16.1
				C419.2-321.4,412-313.9,412.2-304.8"/>
		</g>
	</g>
</g>
<g class="st7">
	<g class="st8">
		<defs>
			<rect id="SVGID_9_" x="238.5" y="61.5" width="7.8" height="7.8"/>
		</defs>
		<clipPath id="SVGID_10_">
			<use xlink:href="#SVGID_9_"  style="overflow:visible;"/>
		</clipPath>
		<g class="st13">
			<defs>
				<rect id="SVGID_11_" x="238.5" y="61.5" width="7.8" height="7.8"/>
			</defs>
			<clipPath id="SVGID_12_">
				<use xlink:href="#SVGID_11_"  style="overflow:visible;"/>
			</clipPath>
			<path class="st14" d="M238.5,65.5c0,2.2,1.8,3.9,4,3.8c2.2,0,3.9-1.8,3.8-4c0-2.2-1.8-3.9-4-3.8
				C240.2,61.6,238.5,63.4,238.5,65.5"/>
		</g>
	</g>
</g>
<g class="st7">
	<g class="st8">
		<defs>
			<rect id="SVGID_13_" x="238.6" y="61.8" width="7.8" height="7.8"/>
		</defs>
		<clipPath id="SVGID_14_">
			<use xlink:href="#SVGID_13_"  style="overflow:visible;"/>
		</clipPath>
		<g class="st15">
			<defs>
				<rect id="SVGID_15_" x="238.6" y="61.8" width="7.8" height="7.8"/>
			</defs>
			<clipPath id="SVGID_16_">
				<use xlink:href="#SVGID_15_"  style="overflow:visible;"/>
			</clipPath>
			<path class="st16" d="M238.6,65.8c0,2.2,1.8,3.9,3.9,3.9c2.2,0,3.9-1.8,3.9-3.9c0-2.2-1.8-3.9-3.9-3.9
				C240.3,61.8,238.6,63.6,238.6,65.8"/>
		</g>
	</g>
</g>
<g class="st7">
	<g class="st8">
		<defs>
			<rect id="SVGID_17_" x="238.6" y="52" width="7.8" height="7.8"/>
		</defs>
		<clipPath id="SVGID_18_">
			<use xlink:href="#SVGID_17_"  style="overflow:visible;"/>
		</clipPath>
		<g class="st17">
			<defs>
				<rect id="SVGID_19_" x="238.6" y="52" width="7.8" height="7.8"/>
			</defs>
			<clipPath id="SVGID_20_">
				<use xlink:href="#SVGID_19_"  style="overflow:visible;"/>
			</clipPath>
			<path class="st18" d="M238.6,55.9c0,2.2,1.8,3.9,3.9,3.9c2.2,0,3.9-1.8,3.9-3.9c0-2.2-1.8-3.9-3.9-3.9
				C240.3,52,238.6,53.8,238.6,55.9"/>
		</g>
	</g>
</g>
<rect y="30" class="st19" width="300" height="220"/>
<rect class="st19" width="300" height="250"/>
</svg>
