<?xml version="1.0" encoding="utf-8"?>
<!-- Generator: Adobe Illustrator 22.1.0, SVG Export Plug-In . SVG Version: 6.00 Build 0)  -->
<svg version="1.1" id="Layer_1" xmlns="http://www.w3.org/2000/svg" xmlns:xlink="http://www.w3.org/1999/xlink" x="0px" y="0px"
	 viewBox="0 0 300 250" style="enable-background:new 0 0 300 250;" xml:space="preserve">
<style type="text/css">
	.st0{fill:#004B86;}
	.st1{clip-path:url(#SVGID_2_);fill:#FFFFFF;}
	.st2{clip-path:url(#SVGID_4_);fill:url(#SVGID_5_);}
	.st3{clip-path:url(#SVGID_7_);fill:url(#SVGID_8_);}
	.st4{clip-path:url(#SVGID_10_);fill:url(#SVGID_11_);}
</style>
<path class="st0" d="M220.9,198.2v3.9H214v18.7h-4.4v-18.7h-6.9v-3.9H220.9z M222.8,220.8h4.4v-11.3v-11.3h-4.4v11.3V220.8z
	 M249.7,220.8h-4.5l-2.3-5.5h-7.6l-2.3,5.5h-4.4l9.6-22.8h1.9L249.7,220.8z M270.8,220.8h-4.5l-2.3-5.5h-7.6l-2.3,5.5h-4.4l9.6-22.8
	h1.9L270.8,220.8z M241.4,211.6l-2.3-5.6l-2.3,5.6H241.4z M262.5,211.6l-2.3-5.6l-2.3,5.6H262.5z"/>
<g>
	<defs>
		<rect id="SVGID_1_" x="167.3" y="192.9" width="105.9" height="35.6"/>
	</defs>
	<clipPath id="SVGID_2_">
		<use xlink:href="#SVGID_1_"  style="overflow:visible;"/>
	</clipPath>
	<path class="st1" d="M187,222.3c1.9,0,3.7-0.8,4.9-2.1l5.3-5.3c1.2-1.2,2-3,2-4.8v-16.6h-16.6c-1.9,0-3.7,0.8-4.9,2.1l-5.3,5.3
		c-1.2,1.2-2,3-2,4.8v16.6H187z"/>
</g>
<g>
	<defs>
		<path id="SVGID_3_" d="M184.6,194.8c-3,0-5.5,2.4-5.5,5.4v1.9h11.4v11.4h1.8c3,0,5.5-2.4,5.5-5.5v-13.2H184.6z"/>
	</defs>
	<clipPath id="SVGID_4_">
		<use xlink:href="#SVGID_3_"  style="overflow:visible;"/>
	</clipPath>
	
		<linearGradient id="SVGID_5_" gradientUnits="userSpaceOnUse" x1="1" y1="251.0771" x2="2" y2="251.0771" gradientTransform="matrix(12.981 -12.981 -12.981 -12.981 3431.1072 3480.0437)">
		<stop  offset="0" style="stop-color:#9BDBF7"/>
		<stop  offset="0.1" style="stop-color:#9BDBF7"/>
		<stop  offset="0.9" style="stop-color:#009DDA"/>
		<stop  offset="1" style="stop-color:#009DDA"/>
	</linearGradient>
	<polygon class="st2" points="169.8,204.2 188.5,185.5 207.2,204.2 188.5,222.8 	"/>
</g>
<g>
	<defs>
		<path id="SVGID_6_" d="M192.4,215h-14.7l-5.8,5.8H187c1.5,0,2.9-0.6,3.9-1.6l4.9-4.9l-0.1-0.1C194.7,214.7,193.6,215,192.4,215"/>
	</defs>
	<clipPath id="SVGID_7_">
		<use xlink:href="#SVGID_6_"  style="overflow:visible;"/>
	</clipPath>
	
		<linearGradient id="SVGID_8_" gradientUnits="userSpaceOnUse" x1="0.9582" y1="251.0418" x2="1.9582" y2="251.0418" gradientTransform="matrix(23.9328 0 0 -23.9328 148.942 6225.5879)">
		<stop  offset="0" style="stop-color:#14B0E6"/>
		<stop  offset="0.1611" style="stop-color:#13AAE1"/>
		<stop  offset="0.3718" style="stop-color:#0F9AD2"/>
		<stop  offset="0.6101" style="stop-color:#097FBA"/>
		<stop  offset="0.8669" style="stop-color:#015999"/>
		<stop  offset="0.9" style="stop-color:#005494"/>
		<stop  offset="1" style="stop-color:#005494"/>
	</linearGradient>
	<rect x="171.9" y="214.1" class="st3" width="23.9" height="6.7"/>
</g>
<g>
	<defs>
		<path id="SVGID_9_" d="M173.5,201.8c-1.1,1-1.6,2.4-1.6,3.9v15.1l5.8-5.8v-14.7c0-1.2,0.3-2.3,0.8-3.3l-0.1-0.1L173.5,201.8z"/>
	</defs>
	<clipPath id="SVGID_10_">
		<use xlink:href="#SVGID_9_"  style="overflow:visible;"/>
	</clipPath>
	
		<linearGradient id="SVGID_11_" gradientUnits="userSpaceOnUse" x1="1.0418" y1="251.0418" x2="2.0418" y2="251.0418" gradientTransform="matrix(0 -23.9332 -23.9332 0 6183.4326 245.7265)">
		<stop  offset="0" style="stop-color:#0081BD"/>
		<stop  offset="0.3773" style="stop-color:#0070AD"/>
		<stop  offset="0.85" style="stop-color:#005494"/>
		<stop  offset="1" style="stop-color:#005494"/>
	</linearGradient>
	<rect x="171.9" y="196.9" class="st4" width="6.7" height="23.9"/>
</g>
</svg>
