<svg xmlns="http://www.w3.org/2000/svg" viewBox="0 0 300 600"><path d="M243 573.9h-.8c-1.7.3-2.5 1.5-2.7 2.8.4-.5 1-.9 1.9-.9 1.4 0 2.4 1 2.4 2.5 0 1.4-1 2.7-2.6 2.7-1.7 0-2.8-1.3-2.8-3.3 0-1.5.6-2.7 1.3-3.5.6-.6 1.5-1 2.5-1.2.3 0 .6-.1.8-.1v1zm-.3 4.5c0-1.1-.6-1.8-1.6-1.8-.6 0-1.2.4-1.5 1-.1.1-.1.3-.1.5 0 1.3.6 2.2 1.7 2.2.9 0 1.5-.7 1.5-1.9zM249.9 577c0 2.7-1 4.1-2.7 4.1-1.5 0-2.6-1.4-2.6-4s1.1-4.1 2.7-4.1c1.6.1 2.6 1.5 2.6 4zm-4.3.1c0 2 .6 3.2 1.6 3.2 1.1 0 1.6-1.3 1.6-3.2 0-1.9-.5-3.2-1.6-3.2-.9 0-1.6 1.1-1.6 3.2zM255.5 574.1h-3l-.3 2h.6c.6 0 1.2.1 1.7.4.6.3 1.1 1 1.1 2 0 1.5-1.2 2.7-2.9 2.7-.9 0-1.6-.2-1.9-.5l.3-.8c.3.2 1 .4 1.7.4 1 0 1.8-.6 1.8-1.7 0-1-.7-1.7-2.2-1.7-.4 0-.8 0-1.1.1l.5-3.7h3.7v.8zM257.6 580.3h.9c.6-.1 1.2-.3 1.6-.8.5-.5.9-1.2 1-2.1-.4.5-1.1.8-1.8.8-1.4 0-2.3-1.1-2.3-2.4 0-1.5 1.1-2.8 2.7-2.8s2.6 1.3 2.6 3.3c0 1.7-.6 2.9-1.3 3.7-.6.6-1.4.9-2.3 1-.4.1-.7.1-1 .1v-.8zm.4-4.5c0 1 .6 1.7 1.5 1.7.7 0 1.3-.3 1.5-.8.1-.1.1-.2.1-.4 0-1.3-.5-2.4-1.6-2.4-.9 0-1.5.8-1.5 1.9zM268.2 573.2v.7l-3.4 7.1h-1.1l3.4-6.9h-3.8v-.9h4.9zM269.9 580.3h.9c.6-.1 1.2-.3 1.6-.8.5-.5.9-1.2 1-2.1-.4.5-1.1.8-1.8.8-1.4 0-2.3-1.1-2.3-2.4 0-1.5 1.1-2.8 2.7-2.8s2.6 1.3 2.6 3.3c0 1.7-.6 2.9-1.3 3.7-.6.6-1.4.9-2.3 1-.4.1-.7.1-1 .1v-.8zm.4-4.5c0 1 .6 1.7 1.5 1.7.7 0 1.3-.3 1.5-.8.1-.1.1-.2.1-.4 0-1.3-.5-2.4-1.6-2.4-.8 0-1.5.8-1.5 1.9zM279 581l-.1-.7c-.3.5-.9.9-1.8.9-1.2 0-1.8-.8-1.8-1.7 0-1.4 1.2-2.2 3.5-2.2v-.1c0-.5-.1-1.3-1.3-1.3-.5 0-1.1.2-1.5.4l-.2-.7c.5-.3 1.2-.5 1.9-.5 1.8 0 2.2 1.2 2.2 2.4v2.2c0 .5 0 1 .1 1.4h-1zm-.1-3c-1.2 0-2.5.2-2.5 1.3 0 .7.5 1 1 1 .8 0 1.2-.5 1.4-1 0-.1.1-.2.1-.3v-1z"/></svg>