<svg id="Layer_1" xmlns="http://www.w3.org/2000/svg" viewBox="0 0 300 600"><style>.st0{fill:#f9e13a}.st1{fill:none}.st2{fill:#010101}</style><path class="st0" d="M42.9 459.2s-14.7 0-14.7 14.7v4.9s0 14.7 14.7 14.7h142.6s14.7 0 14.7-14.7v-4.9s0-14.7-14.7-14.7H42.9z"/><path class="st1" d="M-11.3-9.6h323.6v610H-11.3z"/><path class="st2" d="M64.2 479.3c-.7-.9-1-2.1-1-3.3 0-2.4 1.2-4.7 3.9-4.7 1.2 0 2.2.4 2.9 1.4.7.9 1 2.2 1 3.3 0 1-.3 2.3-.9 3.2-.7 1-1.8 1.5-3 1.5s-2.2-.4-2.9-1.4zm1.5-5.2c-.2.5-.3 1.3-.3 1.9 0 1.1.2 3 1.7 3 .7 0 1.1-.4 1.4-1 .2-.6.3-1.3.3-1.9 0-.7-.1-1.4-.3-2.1-.3-.6-.7-.9-1.3-.9-.8 0-1.2.3-1.5 1zM74.5 480.6h-2.1v-9.1h3.4c.9 0 1.7 0 2.5.5s1.2 1.3 1.2 2.3c0 .9-.3 1.7-1 2.3-.8.7-1.6.6-2.6.6h-1.4v3.4zm1.2-5.1c.5 0 .9 0 1.3-.4.2-.2.3-.5.3-.8 0-.4-.1-.7-.4-1-.3-.3-.8-.3-1.2-.3h-1.2v2.4h1.2zM82.7 473.2v1.8h3.5v1.7h-3.5v2h4.4v1.8h-6.5v-9.1h6.5v1.8h-4.4zM95.3 480.6h-1.8l-3.5-6.1v6.1h-1.6v-9.1h2.3l3 5.4v-5.4h1.6v9.1zM107.9 480.6h-2.3l-.6-1.9h-3l-.6 1.9h-1.9l2.9-9.1h2.5l3 9.1zm-3.3-3.6l-1-3.2-1 3.2h2zM118.3 473.2H116v7.3h-2.1v-7.3h-2.3v-1.8h6.7v1.8zM121.6 480.6h-2.1v-9.1h2.1v9.1zM130.9 480.6h-2.3l-.6-1.9h-3l-.6 1.9h-1.9l2.9-9.1h2.5l3 9.1zm-3.3-3.6l-1-3.2-1 3.2h2zM139.4 480.6h-2.3l-.6-1.9h-3l-.6 1.9H131l2.9-9.1h2.5l3 9.1zm-3.3-3.6l-1-3.2-1 3.2h2zM145.9 480.6h-2.1v-9.1h2.1v9.1zM149.9 480.6h-2.1v-9.1h3.8c.8 0 1.6 0 2.3.5.7.5 1.2 1.4 1.2 2.3 0 1-.6 2-1.6 2.4l1.7 4h-2.4l-1.4-3.6h-1.6v3.5zm0-5.2h1.2c.4 0 .9 0 1.3-.2.3-.2.5-.6.5-1s-.2-.7-.5-.9c-.4-.2-1-.2-1.4-.2h-1.1v2.3zM164 480.6h-2.3l-.6-1.9h-3l-.6 1.9h-1.9l2.9-9.1h2.5l3 9.1zm-3.3-3.6l-1-3.2-1 3.2h2z"/></svg>