<svg xmlns="http://www.w3.org/2000/svg" xmlns:xlink="http://www.w3.org/1999/xlink" viewBox="0 0 257.6 257.6"><style>.st0{opacity:.15;fill:#0a0f0f}.st1{fill:#fff}.st2{fill:url(#SVGID_1_)}.st3{fill:url(#SVGID_2_)}.st4{fill:url(#SVGID_3_)}.st5{fill:url(#SVGID_4_)}.st6{fill:url(#SVGID_5_)}.st7{clip-path:url(#SVGID_7_);fill:#f89943}.st10,.st11,.st12,.st8,.st9{clip-path:url(#SVGID_7_);fill:#ffd147}.st10,.st11,.st12,.st9{fill:#fbbf45}.st10,.st11,.st12{fill:#f59044}.st11,.st12{fill:#010101}.st12{fill:#fff}.st13{clip-path:url(#SVGID_9_)}.st14{opacity:.57;clip-path:url(#SVGID_11_)}.st15{clip-path:url(#SVGID_13_);fill:#663b16}</style><g id="tightrope_guy"><path class="st0" d="M198.7 236.2c-10.1 9.8-23.8 15.9-38.9 15.9H5.6V97.8c0-15.1 6.1-28.9 15.9-38.9l-5.6 5.6C6.1 74.5 0 88.3 0 103.4v154.2h154.1c15.3 0 29.2-6.2 39.2-16.2l5.4-5.2z"/><path class="st1" d="M108.1 0C89.4 0 71.7 7.4 58.2 20.8c-13.4 13.4-20.8 31-20.8 49.7v149.7h149.4c39 0 70.8-31.7 70.8-70.7V0H108.1z"/><linearGradient id="SVGID_1_" gradientUnits="userSpaceOnUse" x1="47.063" y1="210.615" x2="248.808" y2="8.869"><stop offset="0" stop-color="#9ddcf9"/><stop offset="1" stop-color="#009edb"/></linearGradient><path class="st2" d="M46.4 211.2V70.5C46.4 37 74.3 9 108.1 9h140.5v140.5c0 34-27.7 61.7-61.8 61.7H46.4z"/><linearGradient id="SVGID_2_" gradientUnits="userSpaceOnUse" x1="113.826" y1="252.356" x2="113.826" y2="211.655"><stop offset="0" stop-color="#14b1e7"/><stop offset=".111" stop-color="#14ade2"/><stop offset=".255" stop-color="#13a3d8"/><stop offset=".419" stop-color="#0e92c9"/><stop offset=".597" stop-color="#087cb6"/><stop offset=".783" stop-color="#0064a1"/><stop offset=".89" stop-color="#005495"/></linearGradient><path class="st3" d="M186.9 220.2H37.4L5.6 252h154.2c15.1 0 28.9-6.1 38.9-15.9l23.4-23.4-1.3-1.3c-10.1 5.6-21.6 8.8-33.9 8.8z"/><linearGradient id="SVGID_3_" gradientUnits="userSpaceOnUse" x1="25.854" y1="253.778" x2="25.854" y2="36.331"><stop offset="0" stop-color="#0082bd"/><stop offset=".218" stop-color="#0078b4"/><stop offset=".656" stop-color="#00609e"/><stop offset=".85" stop-color="#005495"/></linearGradient><path class="st4" d="M37.4 70.5c0-11.9 3-23.4 8.7-33.7l-1.3-1.3-23.4 23.4C11.6 69 5.6 82.7 5.6 97.8V252l31.8-31.8V70.5z"/><linearGradient id="SVGID_4_" gradientUnits="userSpaceOnUse" x1="6.406" y1="231.769" x2="220.556" y2="231.769"><stop offset="0" stop-color="#14b1e7"/><stop offset=".112" stop-color="#14ade2"/><stop offset=".258" stop-color="#13a3d8"/><stop offset=".424" stop-color="#0e92c9"/><stop offset=".603" stop-color="#087cb6"/><stop offset=".792" stop-color="#0064a1"/><stop offset=".9" stop-color="#005495"/></linearGradient><path class="st5" d="M186.9 220.2H37.4L5.6 252h154.2c15.1 0 28.9-6.1 38.9-15.9l23.4-23.4-1.3-1.3c-10.1 5.6-21.6 8.8-33.9 8.8z"/><linearGradient id="SVGID_5_" gradientUnits="userSpaceOnUse" x1="25.854" y1="253.778" x2="25.854" y2="36.331"><stop offset="0" stop-color="#0082bd"/><stop offset=".218" stop-color="#0078b4"/><stop offset=".656" stop-color="#00609e"/><stop offset=".85" stop-color="#005495"/></linearGradient><path class="st6" d="M37.4 70.5c0-11.9 3-23.4 8.7-33.7l-1.3-1.3-23.4 23.4C11.6 69 5.6 82.7 5.6 97.8V252l31.8-31.8V70.5z"/><defs><path id="SVGID_6_" d="M106.9 9C72.8 9 44.7 37.1 44.7 70.8v141.5h141.5c34.3 0 62.2-27.8 62.2-62.1V9H106.9z"/></defs><clipPath id="SVGID_7_"><use xlink:href="#SVGID_6_" overflow="visible"/></clipPath><path class="st7" d="M204.7 148.1L188.2 159l-17.8-9-1.3-19.9 16.5-10.9 17.8 9z"/><path class="st7" d="M185.6 135.7l-16.5 10.9-17.8-8.9-1.3-19.9 16.5-10.9 17.8 9zM235.1 103.1L218.6 114l-17.8-9-1.3-19.8v-.1L216 74.2l17.8 9.1z"/><path class="st8" d="M166.5 106.9L150 117.8l-17.8-9-1.3-19.8 16.5-10.9 17.8 9zM254.1 131.9l-16.5 10.9-17.7-9-1.3-19.8 16.5-10.9 17.8 9z"/><path class="st8" d="M219.9 133.8l-16.5 10.9-17.8-9-1.3-19.8 16.5-10.9 17.8 9z"/><path class="st8" d="M200.8 105l-16.5 10.9-17.8-9-1.3-19.8 16.5-10.9 17.8 9zM216 74.2l-16.5 10.9-17.8-8.9-1.3-19.9 16.5-10.9 17.8 9z"/><path class="st9" d="M205.9 50.1l-9.1-4.6-16.5 10.9 1.3 19.9 12.9 6.5c-.8-11.9 3.2-23.7 11.4-32.7"/><path class="st9" d="M190.7 80.8l-9.1-4.6-16.5 10.9 1.3 19.9 12.9 6.5c-.8-11.9 3.2-23.7 11.4-32.7M209.9 109.6l-9.1-4.6-16.5 10.9 1.3 19.9 12.9 6.5c-.8-11.9 3.2-23.7 11.4-32.7M244.1 107.7l-9.1-4.6-16.5 10.9 1.3 19.9 12.9 6.5c-.8-11.9 3.2-23.7 11.4-32.7M156.4 82.7l-9.1-4.6L130.8 89l1.3 19.9 12.9 6.5c-.8-11.8 3.2-23.7 11.4-32.7"/><path class="st10" d="M225 78.9l-9.1-4.6-16.5 10.9 1.3 19.9 12.9 6.5c-.8-11.9 3.2-23.7 11.4-32.7M175.5 111.6l-9.1-4.6-16.5 10.9 1.3 19.9 12.9 6.5c-.8-11.9 3.2-23.7 11.4-32.7M194.6 140.4l-9.1-4.6-16.5 10.9 1.3 19.9 12.9 6.5c-.8-11.9 3.2-23.7 11.4-32.7"/><path class="st11" d="M223.5 96.6l-8.3 5.5 2 3.1 10.3-6.7-1.2-9.4-3.7.5z"/><path class="st12" d="M207.4 120.3l.9 7.1-8.3 5.5 2 3.1 10.3-6.8-1.2-9.3z"/><path class="st11" d="M192.2 151.1l.9 7-8.3 5.5 2 3.1 10.3-6.7-1.2-9.4z"/><path class="st11" d="M153.1 136.5l-1.2-17.7 14.7-9.7 15.9 8 1.2 17.7-14.7 9.7-15.9-8zM134 107.7L132.8 90l14.7-9.7 15.9 8 1.2 17.7-14.7 9.7-15.9-8zm99.1-5.6l-14.7 9.7-15.9-8-1.1-17.7 14.7-9.7 15.9 8 1.1 17.7zm-45.7 32.5l-1.1-17.7 14.7-9.7 15.9 8 1.2 17.7-14.7 9.7-16-8zm10.3-48.3l1.2 17.7-14.7 9.7-15.9-8-1.2-17.7 14.7-9.7 15.9 8zm53.4 26.9l1.1 17.7-14.7 9.7-15.9-8-1.1-17.7 14.7-9.7 15.9 8zm-13.3 31.7l18.3-12.1-1.4-21.9-17.8-9-1.3-19.8-17.8-9-1.3-19.8-6.1-3.1-1.7 3.3 4.2 2.1 1.1 17.7-14.7 9.7-15.9-8-1.2-17.7 14.7-9.7 6.7 3.4 1.7-3.3-8.6-4.3-18.3 12.1 1.3 19.9L165 85l-17.8-9L129 88l1.4 22 17.8 9 1.3 19.9 17.8 9 1.3 19.9 7.6 3.8 1.7-3.3-5.7-2.9-1.2-17.7 14.7-9.7 15.9 8 1.1 17.7-14.7 9.7-5.7-2.9-1.7 3.3 7.6 3.8 18.3-12.1-1.3-19.9 14.7-9.7 17.9 9z"/><path class="st11" d="M234.3 131l2 3 10.2-6.7-1.1-9.4-3.7.5.9 7.1zM173.2 122.2l.8 7.1-8.3 5.5 2 3.1 10.3-6.8-1.2-9.3z"/><path class="st12" d="M154.1 93.4l.8 7.1-8.3 5.5 2.1 3.1 10.2-6.8-1.1-9.3z"/><path class="st11" d="M180.9 104.1l2 3.1 10.3-6.8L192 91l-3.6.5.8 7.1z"/><path class="st12" d="M198.1 76.4l10.3-6.7-1.2-9.4-3.6.4.8 7.1-8.3 5.5z"/><path class="st7" d="M243 223.3l-16.5 10.9-17.8-9-1.2-19.8h-.1v-.1l16.5-10.8 17.9 9z"/><path class="st8" d="M174.5 227.1L158 238l-17.8-8.9-1.3-19.9 16.5-10.9 17.8 9z"/><path class="st8" d="M208.7 225.2l-16.4 10.9-17.8-9-1.3-19.8 16.5-10.9 17.7 9zM223.9 194.5l-16.5 10.8-17.7-8.9-1.3-19.9 16.5-10.9 17.8 9z"/><path class="st9" d="M213.9 170.3l-9.1-4.6-16.5 10.9 1.3 19.9 12.9 6.5c-.8-11.9 3.2-23.7 11.4-32.7"/><path class="st9" d="M198.7 201l-9.1-4.6-16.5 10.9 1.3 19.9 12.9 6.5c-.8-11.9 3.2-23.7 11.4-32.7M164.4 203l-9.1-4.6-16.5 10.9 1.3 19.9 12.9 6.5c-.8-11.9 3.2-23.8 11.4-32.7"/><path class="st10" d="M232.9 199.1l-9.1-4.6-16.5 10.9 1.3 19.9 12.9 6.5c-.7-11.9 3.3-23.7 11.4-32.7"/><path class="st11" d="M231.5 216.8l-8.3 5.5 2 3.1 10.2-6.7-1.1-9.4-3.7.5z"/><path class="st11" d="M161 256.7l-1.2-17.7 14.7-9.7 15.9 8 1.2 17.7-14.7 9.7-15.9-8zm-19-28.8l-1.2-17.7 14.7-9.7 15.9 8 1.2 17.7-14.7 9.7-15.9-8zm99.1-5.6l-14.7 9.7-15.9-8-1.1-17.7 14.7-9.7 15.9 8 1.1 17.7zm-45.8 32.5l-1.1-17.7 14.7-9.7 15.9 8 1.2 17.7-14.7 9.7-16-8zm10.4-48.2l1.2 17.7-14.7 9.7-15.9-8-1.1-17.7 14.7-9.7 15.8 8zm53.4 26.9l1.1 17.7-14.7 9.7-15.9-8-1.1-17.7 14.7-9.7 15.9 8zm-13.4 31.6L264 253l-1.4-21.9-17.8-9-1.3-19.8-17.8-9-1.3-19.8-6.1-3.1-1.7 3.3 4.2 2.1 1.1 17.7-14.7 9.7-15.9-8-1.2-17.7 14.7-9.7 6.7 3.4 1.7-3.3-8.6-4.3-18.3 12.1 1.3 19.9-14.7 9.7-17.8-9-18.1 11.9 1.4 22 17.8 9 1.3 19.9 17.8 9 1.3 19.9 7.6 3.8 1.7-3.3-5.7-2.9-1.2-17.7 14.7-9.7 15.9 8 1.1 17.7-14.7 9.7-5.7-2.9-1.7 3.3 7.6 3.8 18.3-12.1-1.3-19.9 14.7-9.7 17.8 9z"/><path class="st11" d="M188.9 224.3l2 3.1 10.2-6.8-1.1-9.4-3.7.5.9 7.1z"/><path class="st12" d="M206.1 196.6l10.2-6.7-1.1-9.4-3.7.4.9 7.1-8.3 5.5z"/><path class="st7" d="M166 108.3l-16.5 10.9-17.8-9-1.3-19.9 16.5-10.8 17.8 9z"/><path class="st7" d="M146.9 79.5l-16.5 10.8-17.8-8.9-1.3-19.9 16.5-10.9 17.8 9zM196.4 46.8l-16.5 10.9-17.8-9-1.3-19.8L177.3 18l17.8 9z"/><path class="st8" d="M127.8 50.6l-16.5 10.9-17.8-8.9-1.3-19.9 16.5-10.9 17.8 9zM215.5 75.6L199 86.5l-17.8-9-1.3-19.8 16.5-10.9 17.8 9z"/><path class="st8" d="M181.2 77.5l-16.5 10.9-17.8-8.9-1.3-19.9 16.5-10.9 17.8 9z"/><path class="st8" d="M162.1 48.7l-16.5 10.9-17.8-9-1.3-19.8L143 19.9l17.8 9z"/><path class="st8" d="M177.3 18l-16.5 10.9-17.8-9L141.7 0l16.5-10.9L176-1.8z"/><path class="st9" d="M167.2-6.2l-9.1-4.6L141.6.1l1.3 19.9 12.9 6.5C155 14.6 159 2.8 167.2-6.2"/><path class="st9" d="M152 24.5l-9.1-4.6-16.5 10.9 1.3 19.9 12.9 6.5c-.8-11.8 3.2-23.7 11.4-32.7M171.2 53.3l-9.1-4.6-16.5 10.9 1.3 19.9 12.9 6.5c-.8-11.9 3.2-23.7 11.4-32.7M205.4 51.4l-9.1-4.6-16.5 10.9 1.3 19.9 12.9 6.5c-.8-11.9 3.2-23.7 11.4-32.7M117.7 26.5l-9.1-4.6-16.5 10.9 1.3 19.9 12.9 6.5c-.8-11.9 3.2-23.7 11.4-32.7"/><path class="st10" d="M186.3 22.6l-9.1-4.6-16.5 10.9 1.3 19.9 12.9 6.5c-.8-11.9 3.2-23.7 11.4-32.7M136.8 55.3l-9.1-4.6-16.5 10.9 1.3 19.9 12.9 6.5c-.8-11.9 3.2-23.7 11.4-32.7M155.9 84.1l-9.1-4.6-16.5 10.9 1.3 19.9 12.9 6.5c-.8-11.9 3.2-23.7 11.4-32.7"/><path class="st11" d="M184.8 40.4l-8.3 5.5 2 3 10.3-6.7-1.2-9.4-3.6.5z"/><path class="st12" d="M168.8 64l.8 7.1-8.3 5.5 2 3.1 10.3-6.8-1.2-9.3z"/><path class="st11" d="M153.6 94.8l.8 7.1-8.3 5.4 2 3.1 10.3-6.7-1.2-9.4z"/><path class="st11" d="M114.4 80.2l-1.2-17.7 14.7-9.7 15.9 8 1.2 17.7-14.7 9.7-15.9-8zM95.3 51.4l-1.2-17.7 14.7-9.7 15.9 8 1.2 17.7-14.7 9.7-15.9-8zm99.1-5.6l-14.7 9.7-15.9-8-1.1-17.7 14.7-9.7 15.9 8 1.1 17.7zm-45.7 32.5l-1.1-17.7 14.7-9.7 15.9 8 1.2 17.7-14.7 9.7-16-8zM159 30.1l1.2 17.7-14.7 9.7-15.9-8-1.1-17.7 14.7-9.7 15.8 8zM212.4 57l1.1 17.7-14.7 9.7-15.9-8-1.1-17.7 14.7-9.7 15.9 8zm-13.3 31.6l18.3-12.1-1.4-21.9-17.8-9-1.3-19.8-17.8-9L177.8-3l-6.1-3.1-1.7 3.3 4.2 2.1 1.1 17.7-14.7 9.7-15.9-8L143.6 1l14.7-9.7 6.7 3.4 1.7-3.3-8.6-4.3-18.3 12 1.3 19.9-14.7 9.7-17.8-9-18.3 12.1 1.4 22 17.8 9 1.3 19.9 17.8 9 1.3 19.9 7.6 3.8 1.7-3.3-5.7-2.9-1.2-17.7 14.7-9.7 15.9 8 1.1 17.7-14.7 9.7-5.7-2.9-1.7 3.3 7.6 3.8 18.3-12.1-1.3-19.9 14.7-9.7 17.9 8.9z"/><path class="st11" d="M195.6 74.7l2 3.1 10.3-6.8-1.2-9.3-3.7.4.9 7.1zM134.5 66l.8 7-8.3 5.5 2.1 3.1 10.2-6.7-1.1-9.4z"/><path class="st12" d="M115.4 37.1l.8 7.1-8.3 5.5 2.1 3.1 10.2-6.8-1.1-9.3z"/><path class="st11" d="M142.2 47.8l2.1 3.1 10.2-6.8-1.2-9.3-3.6.4.8 7.1z"/><path class="st12" d="M159.4 20.1l10.3-6.7-1.2-9.4-3.6.5.8 7-8.3 5.5z"/><path class="st7" d="M276.8 221.9l-16.5 10.9-17.8-9-1.3-19.9 16.5-10.8 17.8 9z"/><path class="st7" d="M257.7 193.1l-16.5 10.8-17.8-8.9-1.3-19.9 16.5-10.9 17.8 9z"/><path class="st8" d="M238.6 164.2l-16.5 10.9-17.8-8.9-1.3-19.9 16.5-10.9 17.8 9z"/><path class="st8" d="M272.9 162.3l-16.5 10.9-17.8-9-1.3-19.8 16.5-10.9 17.8 9z"/><path class="st9" d="M262.8 138.1l-9.1-4.6-16.5 10.9 1.3 19.9 12.9 6.5c-.8-11.9 3.2-23.7 11.4-32.7M228.5 140.1l-9.1-4.6-16.4 10.9 1.3 19.9 12.9 6.5c-.9-11.9 3.2-23.8 11.3-32.7"/><path class="st10" d="M247.6 168.9l-9.1-4.6-16.5 10.9 1.3 19.9 12.9 6.5c-.8-11.9 3.3-23.7 11.4-32.7M266.7 197.7l-9.1-4.6-16.5 10.9 1.3 19.9 12.9 6.5c-.8-11.9 3.2-23.7 11.4-32.7"/><path class="st11" d="M225.2 193.8l-1.2-17.7 14.7-9.7 15.9 8 1.2 17.7-14.7 9.7-15.9-8zM206.1 165l-1.2-17.7 14.7-9.7 15.9 8 1.2 17.7L222 173l-15.9-8zm99.2-5.6l-14.7 9.7-15.9-8-1.1-17.7 14.7-9.7 15.9 8 1.1 17.7zm-45.8 32.5l-1.1-17.7 14.7-9.7 15.9 8 1.2 17.7-14.7 9.7-16-8zm10.3-48.2l1.2 17.7-14.7 9.7-15.9-8-1.1-17.7 14.7-9.7 15.8 8zm53.4 26.9l1.1 17.7-14.7 9.7-15.9-8-1.1-17.7 14.7-9.7 15.9 8zm-13.3 31.6l18.3-12.1-1.4-21.9-17.8-9-1.3-19.8-17.8-9-1.3-19.8-6.1-3.1-1.7 3.3 4.2 2.1 1.1 17.7-14.7 9.7-15.9-8-1.2-17.7 14.7-9.7 6.7 3.4 1.7-3.3-8.6-4.3-18.3 12.1 1.3 19.9-14.7 9.7-17.8-9-18.3 12.1 1.4 22 17.8 9 1.3 19.9 17.8 9 1.3 19.9 7.6 3.8 1.7-3.3-5.7-2.9-1.2-17.7 14.7-9.7 15.9 8 1.1 17.7-14.7 9.7-5.7-2.9-1.7 3.3 7.6 3.8 18.3-12.1-1.3-19.9 14.7-9.7 18 8.8z"/><path class="st11" d="M245.3 179.5l.8 7.1-8.3 5.5 2.1 3.1 10.2-6.7-1.1-9.4z"/><path class="st12" d="M226.2 150.7l.9 7.1-8.4 5.5 2.1 3.1 10.2-6.8-1.1-9.3z"/><path class="st8" d="M264.9 43.1L248.5 54l-17.8-9-1.3-19.8 16.5-10.9 17.7 9z"/><path class="st9" d="M254.9 18.9l-9.1-4.6-16.5 10.9 1.3 19.9 12.9 6.5c-.8-11.9 3.2-23.7 11.4-32.7"/><path class="st10" d="M273.9 47.8l-9.1-4.6-16.5 10.9 1.3 19.9 12.9 6.5c-.7-11.9 3.3-23.8 11.4-32.7"/><path class="st11" d="M251.5 72.7L250.4 55l14.7-9.7 15.9 8 1.2 17.7-14.7 9.7-16-8zm-19.1-28.8l-1.2-17.7 14.7-9.7 15.9 8 1.2 17.7-14.7 9.7-15.9-8zm99.2-5.6L316.9 48 301 40l-1.1-17.7 14.7-9.7 15.9 8 1.1 17.7zm-45.8 32.5L284.7 53l14.7-9.7 15.9 8 1.2 17.7-14.7 9.7-16-7.9zm10.3-48.3l1.2 17.7-14.7 9.7-15.9-8-1.1-17.7 14.7-9.7 15.8 8zm53.4 26.9l1.1 17.7-14.6 9.7-15.9-8-1.1-17.7 14.7-9.7 15.8 8zm-13.3 31.7L354.5 69l-1.4-21.9-17.8-9-1.3-19.8-17.8-9-1.3-19.8-6.1-3.1-1.7 3.3 4.2 2.1 1.1 17.7-14.7 9.7-15.9-8-1.2-17.7 14.7-9.7 6.7 3.4 1.7-3.3-8.6-4.3-18.2 12 1.3 19.9-14.7 9.7-17.8-9-18.3 12.1 1.4 22 17.8 9L248 75l17.8 9 1.3 19.9 7.6 3.8 1.7-3.3-5.7-2.9-1.2-17.7 14.7-9.7 15.9 8 1.1 17.7-14.7 9.7-5.7-2.9-1.7 3.3 7.6 3.8 18.3-12.1-1.3-19.9 14.7-9.7 17.8 9.1z"/><path class="st12" d="M252.5 29.6l.9 7.1-8.3 5.5 2 3.1 10.2-6.8-1.1-9.3z"/><path class="st8" d="M269.2 103.5l-16.5 10.9-17.8-9-1.3-19.9 16.5-10.9 17.8 9z"/><path class="st9" d="M259.1 79.3l-9.1-4.6-16.5 10.9 1.3 19.9 12.9 6.5c-.8-11.9 3.2-23.7 11.4-32.7"/><path class="st11" d="M255.8 133l-1.2-17.7 14.7-9.7 15.9 8 1.2 17.7-14.7 9.7-15.9-8zm-19.1-28.8l-1.2-17.7 14.7-9.7 15.9 8 1.2 17.7-14.7 9.7-15.9-8zm99.1-5.5l-14.7 9.7-15.9-8-1.1-17.7 14.7-9.7 15.9 8 1.1 17.7zm-45.7 32.4l-1.1-17.7 14.7-9.7 15.9 8 1.2 17.7-14.7 9.7-16-8zm10.3-48.2l1.2 17.7-14.7 9.7-15.9-8-1.1-17.7 14.7-9.7 15.8 8zm53.4 26.9l1.1 17.7-14.7 9.7-15.9-8-1.1-17.7 14.7-9.7 15.9 8zm-13.3 31.7l18.3-12.1-1.4-21.9-17.8-9-1.3-19.8-17.8-9-1.3-19.8-6.1-3.1-1.7 3.3 4.2 2.1 1.1 17.7-14.7 9.6-15.9-8-1.1-17.7 14.7-9.7 6.7 3.4 1.7-3.3-8.6-4.3L281.2 52l1.3 19.9-14.7 9.7-17.8-9-18.3 12.1 1.4 22 17.8 9 1.3 19.9 17.8 9 1.3 19.9 7.6 3.8 1.7-3.3-5.7-2.9-1.2-17.7 14.7-9.7 15.9 8 1.1 17.7-14.7 9.7-5.7-3.1-1.7 3.3 7.6 3.8 18.3-12.1-1.3-19.9 14.7-9.7 17.9 9.1z"/><path class="st7" d="M249.5 73.8L233 84.7l-17.8-9-1.2-19.8L230.4 45l17.9 9zM230.4 45L214 55.9l-17.8-9-1.3-19.8 16.5-10.9 17.7 9zM279.9 12.3l-16.5 10.9-17.8-9-1.2-19.8h-.1l16.5-10.9 17.9 9z"/><path class="st8" d="M211.4 16.2l-16.5 10.9-17.8-9-1.3-19.9 16.5-10.8 17.8 9zM264.7 43.1L248.2 54l-17.8-9-1.2-19.8h-.1v-.1l16.5-10.9 17.8 9z"/><path class="st8" d="M245.6 14.2l-16.5 10.9-17.7-8.9-1.3-19.8v-.1l16.5-10.9 17.7 9z"/><path class="st9" d="M235.6-9.9l-9.1-4.6L210-3.6l1.3 19.9 12.9 6.5c-.8-11.9 3.2-23.7 11.4-32.7M254.7 18.8l-9.1-4.6-16.5 10.9 1.3 19.9 12.9 6.5c-.8-11.8 3.3-23.7 11.4-32.7M201.3-8l-9.1-4.6-16.5 10.9 1.3 19.9 12.9 6.5C189.1 12.8 193.1 1 201.3-8"/><path class="st10" d="M269.8-11.9l-9.1-4.6-16.4 10.9 1.3 19.9 12.9 6.5c-.8-11.8 3.2-23.7 11.3-32.7M220.4 20.8l-9.1-4.6-16.5 10.9 1.3 19.9 12.9 6.5c-.8-11.9 3.2-23.7 11.4-32.7M239.4 49.6l-9.1-4.6-16.5 10.9 1.3 19.9 12.9 6.5c-.7-11.8 3.3-23.7 11.4-32.7"/><path class="st12" d="M252.3 29.6l.9 7-8.4 5.5 2.1 3.1 10.2-6.7-1.1-9.4z"/><path class="st11" d="M237.1 60.3l.9 7.1-8.3 5.5 2 3.1 10.2-6.8-1.1-9.3z"/><path class="st11" d="M197.9 45.7L196.8 28l14.7-9.7 15.9 8 1.2 17.7-14.7 9.7-16-8zm-19-28.8L177.7-.8l14.7-9.7 15.9 8 1.2 17.7-14.7 9.7-15.9-8zm99.1-5.5l-14.7 9.7-15.9-8-1.1-17.7 14.7-9.7 15.9 8 1.1 17.7zm-45.8 32.4l-1.1-17.7 14.7-9.7 15.9 8 1.2 17.7-14.7 9.7-16-8zm10.4-48.2l1.2 17.7L229 23l-15.9-8L212-2.7l14.7-9.7 15.9 8zM296 22.5l1.1 17.7-14.7 9.7-15.9-8-1.1-17.7 14.7-9.7 15.9 8zm-13.4 31.7l18.3-12.1-1.4-21.9-17.8-9-1.3-19.8-17.8-9-1.3-19.8-6.1-3.1-1.7 3.3 4.2 2.1 1.1 17.7-14.7 9.7-15.9-8-1.2-17.7 14.7-9.7 6.7 3.4 1.7-3.3-8.6-4.3-18.3 12.1 1.3 19.9-14.7 9.7-17.8-9-18.1 11.9 1.4 22 17.8 9 1.3 19.9 17.8 9 1.3 19.9 7.6 3.8 1.7-3.3-5.7-2.9-1.2-17.7 14.7-9.7 15.9 8 1.1 17.7-14.7 9.7-5.7-2.9-1.7 3.3 7.6 3.8 18.3-12.1-1.3-19.9 14.7-9.7 17.8 9z"/><path class="st11" d="M218 31.5l.9 7.1-8.3 5.5 2 3.1 10.2-6.8-1.1-9.4z"/><path class="st12" d="M198.9 2.7l.9 7.1-8.3 5.4 2 3.1 10.3-6.7-1.2-9.4z"/><path class="st11" d="M225.8 13.3l2 3.1L238 9.6 236.9.3l-3.7.4.9 7.1z"/><path class="st7" d="M111.6 61.4l16.5-10.9 17.8 9 1.3 19.9-16.5 10.9-17.8-9z"/><path class="st7" d="M130.7 90.3l16.5-10.9 17.8 8.9 1.3 19.9-16.5 10.9-17.8-9zM81.2 122.9L97.7 112l17.8 9 1.3 19.8v.1l-16.5 10.8-17.8-9z"/><path class="st8" d="M149.8 119.1l16.5-10.9 17.8 8.9 1.3 19.9-16.5 10.9-17.8-9zM62.1 94.1l16.5-10.9 17.8 9 1.3 19.8-16.5 10.9-17.8-9zM96.4 92.2l16.5-10.9 17.8 9 1.3 19.8-16.5 10.9-17.8-9z"/><path class="st8" d="M115.5 121l16.5-10.9 17.8 9 1.3 19.8-16.5 10.9-17.8-9z"/><path class="st8" d="M100.3 151.7l16.5-10.8 17.8 8.9 1.3 19.9-16.5 10.9-17.8-9z"/><path class="st9" d="M110.4 175.9l9.1 4.6 16.5-10.9-1.3-19.9-12.9-6.5c.8 11.9-3.2 23.7-11.4 32.7"/><path class="st9" d="M125.6 145.2l9.1 4.6 16.5-10.9-1.3-19.9-12.9-6.5c.8 11.9-3.2 23.7-11.4 32.7M106.4 116.4l9.1 4.6 16.5-10.9-1.3-19.9-12.9-6.5c.8 11.9-3.2 23.7-11.4 32.7M72.2 118.3l9.1 4.6L97.8 112l-1.3-19.9-12.9-6.5c.8 11.9-3.2 23.7-11.4 32.7M159.9 143.3l9.1 4.6 16.5-10.9-1.3-19.9-12.9-6.5c.8 11.8-3.3 23.7-11.4 32.7"/><path class="st10" d="M91.3 147.1l9.1 4.6 16.5-10.9-1.3-19.9-12.9-6.5c.8 11.9-3.2 23.7-11.4 32.7M140.8 114.4l9.1 4.6 16.5-10.9-1.3-19.9-12.9-6.5c.8 11.9-3.2 23.7-11.4 32.7M121.7 85.6l9.1 4.6 16.5-10.9-1.3-19.8-12.9-6.5c.8 11.8-3.2 23.6-11.4 32.6"/><path class="st11" d="M92.8 129.4l8.3-5.5-2-3.1-10.3 6.7 1.2 9.4 3.6-.5z"/><path class="st12" d="M108.8 105.7l-.8-7.1 8.3-5.5-2-3.1-10.3 6.8 1.2 9.3z"/><path class="st11" d="M124 74.9l-.8-7 8.3-5.5-2-3.1-10.3 6.7 1.2 9.4z"/><path class="st11" d="M163.2 89.5l1.2 17.7-14.7 9.7-15.9-8-1.2-17.7 14.7-9.7 15.9 8zm19.1 28.8l1.2 17.7-14.7 9.7-15.9-8-1.2-17.7 14.7-9.7 15.9 8zm-99.2 5.6l14.7-9.7 15.9 8 1.1 17.7-14.7 9.7-15.9-8-1.1-17.7zm45.8-32.5l1.1 17.7-14.7 9.7-15.9-8-1.2-17.7 14.7-9.7 16 8zm-10.3 48.3l-1.2-17.7 14.7-9.7 15.9 8 1.1 17.7-14.7 9.7-15.8-8zm-53.4-26.9l-1.1-17.7 14.7-9.7 15.9 8 1.1 17.7-14.7 9.7-15.9-8zm13.3-31.7L60.2 93.2l1.4 21.9 17.8 9 1.3 19.8 17.8 9 1.3 19.8 6.1 3.1 1.7-3.3-4.2-2.1-1.1-17.7L117 143l15.9 8 1.2 17.7-14.7 9.7-6.7-3.4-1.7 3.3 8.6 4.3 18.3-12.1-1.3-19.9 14.7-9.7 17.8 9 18.3-12.1-1.4-22-17.8-9-1.3-19.9-17.8-9-1.3-19.9-7.6-3.8-1.7 3.3 5.7 2.9 1.2 17.7-14.7 9.7-15.9-8-1.1-17.7 14.7-9.7 5.7 2.9 1.7-3.3-7.6-3.8-18.3 12.1 1.3 19.9L96.3 90l-17.8-8.9z"/><path class="st11" d="M82 95l-2-3-10.3 6.7 1.2 9.4 3.7-.5-.9-7.1zM143.1 103.8l-.8-7.1 8.3-5.5-2.1-3.1-10.2 6.8 1.1 9.3z"/><path class="st12" d="M162.2 132.6l-.8-7.1 8.3-5.5-2.1-3.1-10.2 6.8 1.1 9.3z"/><path class="st11" d="M135.4 121.9l-2.1-3.1-10.2 6.8 1.1 9.4 3.7-.5-.8-7.1z"/><path class="st12" d="M118.1 149.6l-10.2 6.7 1.2 9.4 3.6-.4-.8-7.1 8.3-5.5z"/><path class="st7" d="M73.3 2.7L89.7-8.2l17.8 9 1.3 19.8v.1L92.3 31.5l-17.8-9z"/><path class="st8" d="M141.8-1.1L158.3-12l17.8 8.9 1.3 19.9-16.5 10.9-17.8-9zM107.5.8L124-10.1l17.8 9 1.3 19.8-16.5 10.9-17.8-9zM92.3 31.5l16.5-10.8 17.8 8.9 1.3 19.9-16.5 10.9-17.8-9z"/><path class="st9" d="M102.4 55.7l9.1 4.6L128 49.4l-1.3-19.9-12.9-6.5c.8 11.9-3.2 23.7-11.4 32.7"/><path class="st9" d="M117.6 25l9.1 4.6 16.5-10.9-1.3-19.9L129-7.7c.8 11.9-3.2 23.7-11.4 32.7M151.9 23l9.1 4.6 16.5-10.9-1.3-19.9-12.9-6.5c.8 11.9-3.2 23.8-11.4 32.7"/><path class="st10" d="M83.3 26.9l9.1 4.6 16.5-10.9L107.6.7 94.8-5.7c.7 11.8-3.3 23.6-11.5 32.6"/><path class="st11" d="M84.8 9.1l8.3-5.4-2-3.1-10.2 6.7 1.1 9.4 3.7-.5z"/><path class="st11" d="M155.2-30.7l1.2 17.7-14.7 9.7-15.9-8-1.1-17.7 14.7-9.7 15.8 8zm19.1 28.8l1.2 17.7-14.7 9.7-15.9-8-1.2-17.7 14.7-9.7 15.9 8zM75.2 3.7L89.9-6l15.9 8 1.1 17.7-14.7 9.7-15.9-8-1.1-17.7zM121-28.8l1.1 17.7-14.7 9.7-15.9-8-1.2-17.7 14.7-9.7 16 8zm-10.4 48.2l-1.2-17.7L124.2-8 140 0l1.1 17.7-14.7 9.7-15.8-8zM57.2-7.5l-1.1-17.7 14.7-9.7 15.9 8 1.1 17.7L73.1.6 57.2-7.5zm13.3-31.6L52.2-27l1.4 21.9 17.8 9 1.3 19.8 17.8 9 1.3 19.8 6.1 3.1 1.7-3.3-4.2-2.1-1.1-17.7 14.7-9.7 15.9 8 1.2 17.7-14.7 9.7-6.7-3.4-1.7 3.3 8.6 4.3 18.3-12.1-1.3-19.9 14.7-9.7 17.8 9 18.3-12.1-1.4-22-17.8-9-1.3-19.9L141-42l-1.3-19.9-7.6-3.8-1.7 3.3 5.7 2.9 1.2 17.7-14.7 9.7-15.9-8-1.1-17.7 14.7-9.7 5.7 2.9 1.7-3.3-7.6-3.8-18.3 12.1 1.3 19.9L88.4-30l-17.9-9.1z"/><path class="st12" d="M154.2 12.4l-.8-7.1 8.3-5.5-2-3.1-10.3 6.8 1.2 9.3z"/><path class="st11" d="M127.4 1.7l-2-3.1-10.3 6.8 1.2 9.3 3.7-.4-.9-7.1z"/><path class="st12" d="M110.2 29.4l-10.3 6.7 1.2 9.4 3.7-.5-.9-7 8.3-5.5z"/><path class="st7" d="M150.3 117.7l16.5-10.9 17.8 9 1.3 19.8-16.5 10.9-17.8-9z"/><path class="st7" d="M169.4 146.5l16.5-10.9 17.8 9 1.3 19.9-16.5 10.9-17.8-9zM119.9 179.2l16.5-10.9 17.8 9 1.3 19.8L139 208l-17.8-9z"/><path class="st8" d="M188.5 175.4l16.5-10.9 17.8 8.9 1.3 19.9-16.5 10.9-17.8-9zM100.8 150.4l16.5-10.9 17.8 9 1.3 19.8-16.5 10.9-17.8-9z"/><path class="st8" d="M135.1 148.5l16.5-10.9 17.8 8.9 1.3 19.9-16.5 10.9-17.8-9z"/><path class="st8" d="M154.2 177.3l16.5-10.9 17.8 9 1.3 19.8-16.5 10.9-17.8-9z"/><path class="st8" d="M139 208l16.5-10.9 17.8 9 1.3 19.9-16.5 10.8-17.8-9z"/><path class="st9" d="M149.1 232.2l9.1 4.6 16.5-10.9-1.3-19.9-12.9-6.5c.8 11.9-3.2 23.7-11.4 32.7"/><path class="st9" d="M164.3 201.5l9.1 4.6 16.5-10.9-1.3-19.9-12.9-6.5c.8 11.8-3.2 23.7-11.4 32.7M145.1 172.7l9.1 4.6 16.5-10.9-1.3-19.9-12.9-6.5c.8 11.9-3.2 23.7-11.4 32.7M110.9 174.6l9.1 4.6 16.5-10.9-1.3-19.9-12.9-6.5c.8 11.9-3.2 23.7-11.4 32.7M198.6 199.5l9.1 4.6 16.5-10.9-1.3-19.9-12.9-6.5c.7 11.9-3.3 23.7-11.4 32.7"/><path class="st10" d="M130 203.4l9.1 4.6 16.5-10.9-1.3-19.9-12.9-6.5c.8 11.9-3.2 23.7-11.4 32.7M179.5 170.7l9.1 4.6 16.5-10.9-1.3-19.9-12.9-6.5c.8 11.9-3.3 23.7-11.4 32.7M160.4 141.9l9.1 4.6 16.5-10.9-1.3-19.9-12.9-6.5c.8 11.9-3.2 23.7-11.4 32.7"/><path class="st11" d="M131.5 185.6l8.3-5.5-2.1-3-10.2 6.7 1.2 9.4 3.6-.5z"/><path class="st12" d="M147.5 162l-.8-7.1 8.3-5.5-2.1-3.1-10.2 6.8 1.1 9.3z"/><path class="st11" d="M162.7 131.2l-.8-7.1 8.3-5.4-2.1-3.1-10.2 6.7 1.1 9.4z"/><path class="st11" d="M201.9 145.8l1.2 17.7-14.7 9.7-15.9-8-1.2-17.7 14.7-9.7 15.9 8zm19.1 28.8l1.2 17.7-14.7 9.7-15.9-8-1.2-17.7 14.7-9.7 15.9 8zm-99.2 5.6l14.7-9.7 15.9 8 1.1 17.7-14.7 9.7-15.9-8-1.1-17.7zm45.8-32.5l1.1 17.7-14.7 9.7-15.9-8-1.2-17.7 14.7-9.7 16 8zm-10.3 48.2l-1.2-17.7 14.7-9.7 15.9 8 1.1 17.7-14.7 9.7-15.8-8zM103.9 169l-1.1-17.7 14.7-9.7 15.9 8 1.1 17.7-14.7 9.7-15.9-8zm13.3-31.6l-18.3 12.1 1.4 21.9 17.8 9 1.3 19.8 17.8 9 1.3 19.8 6.1 3.1 1.7-3.3-4.2-2.1L141 209l14.7-9.7 15.9 8 1.2 17.7-14.7 9.7-6.7-3.4-1.7 3.3 8.6 4.3 18.3-12.1-1.3-19.9 14.7-9.7 17.8 9 18.3-12.1-1.4-22-17.8-9-1.3-19.9-17.8-9-1.3-19.9-7.6-3.8-1.7 3.3 5.7 2.9 1.2 17.7-14.7 9.7-15.9-8-1.1-17.7 14.7-9.7 5.7 2.9 1.7-3.3-7.6-3.8-18.3 12.1 1.3 19.9-14.7 9.7-18-8.8z"/><path class="st11" d="M120.7 151.3l-2-3.1-10.3 6.8 1.2 9.3 3.6-.4-.8-7.1zM181.8 160l-.9-7 8.4-5.5-2.1-3.1-10.2 6.7 1.1 9.4z"/><path class="st12" d="M200.9 188.9l-.9-7.1 8.4-5.5-2.1-3.1-10.2 6.8 1.1 9.3z"/><path class="st11" d="M174.1 178.2l-2.1-3.1-10.2 6.8 1.1 9.3 3.7-.4-.8-7.1z"/><path class="st12" d="M156.8 205.9l-10.2 6.7 1.1 9.4 3.7-.5-.8-7 8.3-5.5z"/><path class="st7" d="M39.5 4.1L56-6.8l17.8 9 1.3 19.9-16.5 10.8-17.8-9zM58.6 32.9l16.5-10.8L92.9 31l1.3 19.9-16.5 10.9-17.8-9z"/><path class="st8" d="M77.7 61.8l16.5-10.9 17.8 8.9 1.2 19.9-16.4 10.9-17.8-9zM24.3 34.9L40.8 24l17.8 8.9 1.3 19.9-16.5 10.9-17.8-9zM43.4 63.7l16.5-10.9 17.8 9 1.2 19.8h.1L62.5 92.5l-17.8-9z"/><path class="st8" d="M28.2 94.4l16.5-10.9 17.8 9 1.3 19.9-16.5 10.9-17.8-9.1z"/><path class="st9" d="M38.3 118.6l9.1 4.6 16.5-10.9-1.3-19.9L49.7 86c.8 11.8-3.3 23.6-11.4 32.6"/><path class="st9" d="M53.5 87.9l9.1 4.6L79 81.6l-1.3-19.9-12.9-6.5c.8 11.8-3.2 23.7-11.3 32.7M34.3 59.1l9.1 4.6 16.5-10.9-1.3-19.9-12.9-6.5c.8 11.9-3.2 23.7-11.4 32.7M87.8 85.9l9.1 4.6 16.5-10.9-1.4-19.8-12.9-6.5c.8 11.8-3.2 23.6-11.3 32.6"/><path class="st10" d="M19.2 89.8l9.1 4.6 16.5-10.9-1.3-19.9-12.9-6.5c.8 11.9-3.2 23.7-11.4 32.7M68.7 57.1l9.1 4.6 16.5-10.9L92.9 31 80 24.5c.8 11.8-3.2 23.6-11.3 32.6M49.6 28.3l9.1 4.6L75.2 22 73.9 2.1 61-4.3c.8 11.8-3.3 23.6-11.4 32.6"/><path class="st11" d="M51.9 17.6l-.9-7.1 8.4-5.4L57.3 2 47.1 8.7l1.1 9.4z"/><path class="st11" d="M91.1 32.2l1.2 17.7-14.7 9.7-15.9-8-1.2-17.7 14.7-9.7 15.9 8zM110.2 61l1.2 17.7-14.7 9.7-15.9-8-1.2-17.7L94.3 53l15.9 8zM11 66.6l14.7-9.7 15.9 8 1.1 17.7L28 92.3l-15.9-8L11 66.6zm45.8-32.5l1.1 17.7-14.7 9.7-15.9-8-1.2-17.7 14.7-9.7 16 8zM46.5 82.3l-1.2-17.7L60 54.9l15.9 8L77 80.7l-14.7 9.7-15.8-8.1zM-6.9 55.4L-8 37.7 6.6 28l15.9 8 1.1 17.7L9 63.5l-15.9-8.1zM6.4 23.8l-18.3 12.1 1.4 21.9 17.8 9 1.3 19.8 17.8 9 1.3 19.8 6.1 3.1 1.7-3.3-4.2-2.1-1.1-17.7 14.7-9.7 15.9 8 1.2 17.7-14.7 9.7-6.7-3.4-1.7 3.3 8.6 4.3 18.3-12.1-1.3-19.9 14.7-9.7 17.8 9 18.3-12.1-1.4-22-17.8-9-1.3-19.9-17.8-9L75.6 1 68-2.8 66.3.5 72 3.4l1.2 17.7-14.7 9.7-15.9-8-1.2-17.7 14.7-9.7 5.7 2.9L63.5-5l-7.6-3.8-18.3 12L38.8 23l-14.7 9.7-17.7-8.9z"/><path class="st11" d="M71 46.4l-.9-7 8.4-5.5-2.1-3.1-10.2 6.7 1.1 9.4z"/><path class="st12" d="M90.1 75.3l-.9-7.1 8.3-5.5-2-3.1-10.2 6.8 1.1 9.3z"/><path class="st11" d="M63.3 64.6l-2.1-3.1L51 68.3l1.1 9.3 3.7-.4-.9-7.1z"/><path class="st12" d="M46 92.3L35.8 99l1.1 9.4 3.7-.5-.9-7 8.4-5.5z"/><path class="st7" d="M13.2 125.2l16.5-10.8 17.7 8.9 1.3 19.9-16.4 10.9-17.9-9z"/><path class="st7" d="M32.3 154.1l16.4-10.9 17.8 8.9 1.3 19.9-16.5 10.9-17.7-9z"/><path class="st8" d="M51.3 182.9L67.8 172l17.8 9 1.3 19.8-16.5 10.9-17.8-9z"/><path class="st8" d="M17.1 184.8l16.4-10.9 17.8 9 1.3 19.8-16.5 10.9-17.7-9z"/><path class="st9" d="M27.1 209l9.1 4.6 16.5-10.9-1.3-19.9-12.9-6.5c.8 11.9-3.2 23.7-11.4 32.7M61.4 207.1l9.1 4.6L87 200.8l-1.3-19.9-12.9-6.5c.8 11.8-3.2 23.7-11.4 32.7"/><path class="st10" d="M42.3 178.2l9.1 4.6 16.5-10.9-1.3-19.9-12.9-6.5c.8 11.9-3.2 23.8-11.4 32.7M23.2 149.4l9.1 4.6 16.5-10.9-1.3-19.9-12.9-6.5c.8 11.9-3.2 23.7-11.4 32.7"/><path class="st11" d="M64.8 153.3L66 171l-14.7 9.7-15.9-8-1.2-17.7 14.7-9.7 15.9 8zm19 28.8l1.2 17.7-14.7 9.7-15.9-8-1.2-17.7 14.7-9.7 15.9 8zm-99.1 5.6L-.6 178l15.9 8 1.1 17.7-14.7 9.7-15.9-8-1.1-17.7zm45.8-32.5l1.1 17.7-14.7 9.7-15.9-8-1.2-17.7 14.7-9.7 16 8zm-10.4 48.3L19 185.8l14.7-9.7 15.9 8 1.1 17.7-14.7 9.7-15.9-8zm-53.4-26.9l-1.1-17.7 14.7-9.7 15.9 8 1.1 17.7-14.7 9.7-15.9-8zm13.4-31.7L-38.2 157l1.4 21.9 17.8 9 1.3 19.8 17.8 9 1.3 19.8 6.1 3.1 1.7-3.3-4.2-2.1-1.1-17.7 14.7-9.7 15.9 8 1.2 17.7-14.7 9.7-6.7-3.4-1.7 3.3 8.6 4.3 18.3-12.1-1.3-19.9 14.7-9.7 17.8 9L89 201.6l-1.4-22-17.8-9-1.5-19.6-17.8-9-1.3-19.9-7.6-3.8-1.7 3.3 5.7 2.9 1.2 17.7-14.7 9.7-15.9-8-1.1-17.7 14.7-9.7 5.7 2.9 1.7-3.3-7.6-3.8-18.3 12.1 1.3 19.9-14.7 9.7-17.8-9.1z"/><path class="st11" d="M44.7 167.6l-.9-7.1 8.3-5.5-2-3.1-10.3 6.8L41 168z"/><path class="st12" d="M63.8 196.4l-.9-7.1 8.3-5.5-2-3.1-10.3 6.8 1.2 9.3z"/><path class="st7" d="M28 93.7l16.5-10.9 17.8 9 1.3 19.8-16.5 10.9-17.8-9z"/><path class="st8" d="M47.1 122.5l16.5-10.9 17.8 9 1.3 19.9-16.5 10.9-17.8-9z"/><path class="st8" d="M12.8 124.5l16.5-10.9 17.8 8.9 1.3 19.8v.1l-16.5 10.9-17.8-9z"/><path class="st9" d="M22.9 148.6l9.1 4.6 16.5-10.9-1.3-19.9-12.9-6.4c.8 11.8-3.2 23.6-11.4 32.6M57.2 146.7l9.1 4.6 16.5-10.9-1.3-19.9-12.9-6.5c.8 11.9-3.2 23.7-11.4 32.7"/><path class="st10" d="M38.1 117.9l9.1 4.6 16.5-10.9-1.3-19.9-12.9-6.5c.8 11.9-3.2 23.7-11.4 32.7"/><path class="st11" d="M60.5 93l1.2 17.7-14.7 9.7-15.9-8-1.2-17.7L44.6 85l15.9 8zm19.1 28.8l1.2 17.7-14.7 9.7-15.9-8-1.2-17.7 14.7-9.7 15.9 8zm-99.1 5.5l14.7-9.7 15.9 8 1.1 17.7-14.7 9.7-15.9-8-1.1-17.7zm45.7-32.4l1.1 17.7-14.7 9.7-15.9-8-1.2-17.7 14.7-9.7 16 8zm-10.3 48.2l-1.2-17.7 14.7-9.7 15.9 8 1.1 17.7-14.7 9.7-15.8-8zm-53.4-26.9l-1.1-17.7 14.7-9.7 15.9 8 1.1 17.7-14.7 9.7-15.9-8zm13.3-31.7l-18.3 12.1 1.4 21.9 17.8 9 1.3 19.8 17.8 9 1.3 19.8 6.1 3.1 1.7-3.3-4.2-2.1-1.1-17.7 14.7-9.7 15.9 8 1.2 17.7-14.7 9.7-6.7-3.4-1.7 3.3 8.6 4.3 18.3-12.1-1.3-19.9 14.7-9.7 17.8 9 18.3-12.1-1.4-22-17.8-9-1.3-19.9-17.8-9L45 61.8 37.4 58l-1.7 3.3 5.7 2.9 1.2 17.7-14.7 9.7-15.9-8-1.1-17.7 14.7-9.7 5.7 2.9 1.7-3.3-7.6-3.8L7 63.9l1.3 19.9-14.7 9.7-17.8-9z"/><path class="st11" d="M40.4 107.2l-.8-7.1 8.3-5.5-2.1-3-10.2 6.7 1.1 9.4z"/><path class="st12" d="M59.5 136l-.8-7 8.3-5.5-2.1-3.1-10.2 6.7 1.1 9.4z"/><path class="st7" d="M66.8 152.2l16.4-10.9 17.8 9 1.3 19.8L85.8 181 68 172zM85.8 181l16.5-10.9 17.8 9 1.3 19.8-16.5 10.9-17.8-9zM36.4 213.7l16.5-10.9 17.7 8.9 1.3 19.9-16.5 10.9-17.8-9z"/><path class="st8" d="M104.9 209.8l16.5-10.9 17.8 9 1.3 19.9-16.5 10.8-17.8-9zM17.3 184.9L33.8 174l17.8 8.9 1.2 19.8h.1v.1l-16.5 10.9-17.9-9z"/><path class="st8" d="M51.6 182.9L68 172l17.8 9 1.3 19.8v.1l-16.5 10.8-17.7-9z"/><path class="st8" d="M70.6 211.7l16.5-10.8 17.8 8.9 1.3 19.8v.1l-16.5 10.9-17.8-9z"/><path class="st9" d="M80.7 235.9l9.1 4.6 16.5-10.9-1.3-19.9-12.9-6.5c.8 11.9-3.2 23.7-11.4 32.7M61.6 207.2l9.1 4.6 16.5-10.9-1.4-19.9-12.8-6.5c.7 11.8-3.3 23.7-11.4 32.7M27.4 209l9.1 4.6L53 202.7l-1.3-19.9-12.9-6.5c.7 11.9-3.3 23.7-11.4 32.7M115 234l9.1 4.6 16.5-10.9-1.3-19.9-12.9-6.5c.8 11.9-3.2 23.7-11.4 32.7"/><path class="st10" d="M46.4 237.8l9.1 4.6L72 231.6l-1.3-19.9-12.9-6.5c.8 11.8-3.2 23.7-11.4 32.6M95.9 205.2l9.1 4.6 16.5-10.9-1.3-19.9-12.9-6.5c.8 11.9-3.2 23.7-11.4 32.7M76.8 176.4l9.1 4.6 16.5-10.9-1.3-19.9-12.9-6.5c.8 11.8-3.2 23.7-11.4 32.7"/><path class="st11" d="M47.9 220.1l8.3-5.5-2-3.1-10.2 6.8 1.1 9.3 3.7-.4z"/><path class="st12" d="M64 196.4l-.9-7 8.3-5.5-2-3.1-10.2 6.7 1.1 9.4z"/><path class="st11" d="M79.2 165.7l-.9-7.1 8.3-5.5-2-3.1-10.3 6.8 1.2 9.3z"/><path class="st11" d="M118.3 180.3l1.2 17.7-14.7 9.7-15.9-8-1.1-17.7 14.7-9.7 15.8 8zm19.1 28.8l1.2 17.7-14.7 9.7-15.9-8-1.2-17.7 14.7-9.7 15.9 8zm-99.1 5.5l14.7-9.7 15.9 8 1.1 17.7-14.7 9.7-15.9-8-1.1-17.7zm45.8-32.4l1.1 17.7-14.7 9.7-15.9-8-1.2-17.7 14.7-9.7 16 8zm-10.4 48.2l-1.2-17.7 14.7-9.7 15.9 8 1.1 17.7-14.7 9.7-15.8-8zm-53.4-26.9l-1.1-17.7 14.7-9.7 15.9 8 1.1 17.7-14.7 9.7-15.9-8zm13.3-31.7l-18.3 12.1 1.4 21.9 17.8 9 1.3 19.8 17.8 9s.3 5 .6 9.9c.3 5 .6 9.9.6 9.9 2.9 1 5.2 3.3 6.4 3.3 3.5-2.3 1.2-4.7-2.8-5.7l-.6-8.8-.6-8.8 14.7-9.7 15.9 8 1.2 17.7s-3.7 2.4-7.3 4.9c-3.7 2.4-7.4 4.9-7.4 4.9-7.3 6.9-3.8-11.7-6.1-.1-1.2 4.7 9.3 4.7 15.5-1.7 4.6-3 9.1-6 9.1-6l-1.3-19.9 14.7-9.7 17.8 9 18.3-12.1-1.4-22-17.8-9-1.3-19.9-17.8-9-1.3-19.9-7.6-3.8-1.7 3.3 5.7 2.9 1.2 17.7-14.7 9.7-15.9-8-1.1-17.7 14.7-9.7 5.7 2.9 1.7-3.3-7.6-3.8-18.3 12.1 1.3 19.9-14.7 9.7-17.8-9z"/><path class="st11" d="M98.3 194.5l-.9-7.1 8.3-5.5-2-3.1-10.3 6.8 1.2 9.4z"/><path class="st12" d="M117.3 223.3l-.8-7.1 8.3-5.4-2-3.1-10.3 6.7 1.2 9.4z"/><path class="st11" d="M90.5 212.7l-2-3.1-10.3 6.7 1.2 9.4 3.7-.4-.9-7.1z"/><g><defs><path id="SVGID_8_" d="M44.3 9H248v203.3H44.3z"/></defs><clipPath id="SVGID_9_"><use xlink:href="#SVGID_8_" overflow="visible"/></clipPath><g class="st13"><defs><path id="SVGID_10_" d="M44.3 9H248v203.3H44.3z"/></defs><clipPath id="SVGID_11_"><use xlink:href="#SVGID_10_" overflow="visible"/></clipPath><g class="st14"><defs><path id="SVGID_12_" d="M21.2-9h250v223.8h-250z"/></defs><clipPath id="SVGID_13_"><use xlink:href="#SVGID_12_" overflow="visible"/></clipPath><path class="st15" d="M45.3 212V69.6c0-33.9 28.1-62.2 62.3-62.2h141.8v142.2c0 34.4-28 62.5-62.3 62.5H45.3z"/></g></g></g></g></svg>