<svg id="Layer_2" xmlns="http://www.w3.org/2000/svg" width="300" height="600" viewBox="0 0 300 600"><style>.st0{fill:none}.st1{fill:#004a86}.st2{fill:#fff}.st3{fill:url(#SVGID_1_)}.st4{fill:url(#SVGID_2_)}.st5{fill:url(#SVGID_3_)}</style><path class="st0" d="M172.178 573.149H27.844v-49.097h144.334"/><path class="st1" d="M99.495 536.108v5.074h-8.999v24.362h-5.687v-24.362H75.81v-5.074h23.685zm2.418 29.436h5.689v-29.436h-5.689v29.436zm35.094 0h-5.854l-3.026-7.244h-9.972l-2.991 7.244h-5.723l12.54-29.831h2.488l12.538 29.831zm-10.831-12.053l-3.008-7.33-3.03 7.33h6.038z"/><path class="st2" d="M55.207 567.454a9.026 9.026 0 0 0 6.453-2.719l6.969-6.968a9.032 9.032 0 0 0 2.617-6.318v-21.704H49.575a9.026 9.026 0 0 0-6.453 2.719l-6.968 6.968a9.028 9.028 0 0 0-2.617 6.318v21.704h21.67z"/><linearGradient id="SVGID_1_" gradientUnits="userSpaceOnUse" x1="52.385" y1="548.606" x2="69.334" y2="531.657"><stop offset=".1" stop-color="#9cdcf8"/><stop offset=".9" stop-color="#009edb"/></linearGradient><path class="st3" d="M52.102 531.657a7.14 7.14 0 0 0-7.139 7.108v2.418h14.85v14.845h2.383a7.138 7.138 0 0 0 7.139-7.137v-17.234H52.102z"/><linearGradient id="SVGID_2_" gradientUnits="userSpaceOnUse" x1="35.449" y1="561.187" x2="66.697" y2="561.187"><stop offset="0" stop-color="#14b1e7"/><stop offset=".16" stop-color="#13abe2"/><stop offset=".369" stop-color="#0f9bd3"/><stop offset=".606" stop-color="#0980bc"/><stop offset=".861" stop-color="#015a9b"/><stop offset=".9" stop-color="#005495"/></linearGradient><path class="st4" d="M66.531 556.831a8.988 8.988 0 0 1-4.335 1.108H43.053l-7.604 7.605h19.759a7.09 7.09 0 0 0 5.091-2.148l6.399-6.399-.167-.166z"/><linearGradient id="SVGID_3_" gradientUnits="userSpaceOnUse" x1="39.805" y1="565.544" x2="39.805" y2="534.295"><stop offset="0" stop-color="#0082be"/><stop offset=".386" stop-color="#0070ae"/><stop offset=".85" stop-color="#005495"/></linearGradient><path class="st5" d="M44.161 534.46a8.991 8.991 0 0 0-1.108 4.335v19.143l-7.604 7.605v-19.759c0-1.922.763-3.73 2.147-5.091l6.399-6.399.166.166z"/><g><path class="st1" d="M164.58 565.544h-5.854L155.7 558.3h-9.972l-2.991 7.244h-5.723l12.54-29.831h2.488l12.538 29.831zm-10.831-12.053l-3.008-7.33-3.03 7.33h6.038z"/></g></svg>