<svg id="Layer_1" xmlns="http://www.w3.org/2000/svg" viewBox="0 0 970 250"><style>.st0{fill:#fff}</style><path class="st0" d="M17.4 229.6l-1.3-.6c1.7-.9 3-2 3.7-3.6-.3.3-.8.6-1.4.6-1.7 0-2.9-1.3-2.9-2.9 0-1.7 1.3-2.9 3-2.9 1.6 0 3 1.1 3 3.2.1 2.4-1.7 5-4.1 6.2zm1.1-8.3c-.9 0-1.7.7-1.7 1.8 0 1 .7 1.8 1.7 1.8.7 0 1.5-.3 1.7-1.3v-.4c.1-1-.8-1.9-1.7-1.9zM24.5 229.6l-1.3-.6c1.7-.9 3-2 3.7-3.6-.3.3-.8.6-1.4.6-1.7 0-2.9-1.3-2.9-2.9 0-1.7 1.3-2.9 3-2.9 1.6 0 3 1.1 3 3.2 0 2.4-1.7 5-4.1 6.2zm1-8.3c-.9 0-1.7.7-1.7 1.8 0 1 .7 1.8 1.7 1.8.7 0 1.5-.3 1.7-1.3v-.4c.1-1-.7-1.9-1.7-1.9zM32.8 229.5c-1.6 0-3-1.1-3-3.2 0-2.4 1.8-4.9 4.1-6.2l1.3.6c-1.7.8-3 2-3.7 3.6.3-.3.8-.6 1.4-.6 1.7 0 2.9 1.3 2.9 2.9-.1 1.6-1.3 2.9-3 2.9zm0-4.6c-.7 0-1.5.3-1.7 1.2v.5c0 1 .8 1.8 1.8 1.8s1.7-.7 1.7-1.8c-.1-1-.8-1.7-1.8-1.7zM39.8 229.5c-1.6 0-3.1-1.5-3.1-4.7 0-3.1 1.4-4.6 3.1-4.6 1.6 0 3.1 1.5 3.1 4.6 0 3.2-1.5 4.7-3.1 4.7zm0-8.2c-.9 0-1.8 1-1.8 3.5s.9 3.5 1.8 3.5 1.8-1 1.8-3.5-.9-3.5-1.8-3.5zM45.1 229.3v-7.9l-1.5.2.2-1.1 2.6-.2v9.1h-1.3zM47.7 229.3v-.3c2.1-2.4 3.6-4.7 3.6-6.1 0-1.1-.6-1.7-1.5-1.7-.6 0-1.3.2-1.8.5l-.3-1.1c.6-.4 1.2-.6 2-.6 1.6 0 2.8 1 2.8 2.8 0 1.7-1.5 3.6-2.8 5.2H53v1.1h-5.3z"/></svg>