<svg id="Layer_1" xmlns="http://www.w3.org/2000/svg" viewBox="0 0 970 250"><style>.st0{fill:#f9e039}</style><path class="st0" d="M367.9 86.8l-7.2-10.5H359v10.5h-6.3V60h9.8c4.6 0 8.7 3.1 8.7 8.1 0 3.1-1.8 5.7-4.1 6.7l8.5 12h-7.7zm-6.4-21.5H359v6h2.6c1.7 0 3.4-.9 3.4-3-.1-2-1.8-3-3.5-3zM393.2 76.2l-2.7 2.8h-9.3c.3 1.6 2.4 3.3 5.6 3.3 2 0 4-.6 5.3-1.4l-.6 5.3c-1.4.8-3.6 1.3-6 1.3-5.8 0-10.5-4-10.5-10.2 0-6.1 4.5-10 9.9-10 5.3 0 8.5 3.7 8.5 7.6 0 .3-.1 1-.2 1.3zm-8.4-4.4c-1.8 0-3.3 1.4-3.7 3.1h6.4v-.4c.1-1.3-1-2.7-2.7-2.7zM409.4 87.7c-1.1-.3-2.4-1.1-2.9-2.5-.8 1.6-2.6 2.3-5 2.3-3.4 0-6.3-2.4-6.3-6.3 0-3.5 2.7-5.8 6.5-6.2l3.8-.4V74c0-1.1-.9-1.9-3-1.9-1.8 0-3.9.6-5.3 1.5l-1.1-4.7c1.6-1 4.2-1.7 6.7-1.7 5 0 8.6 2.3 8.6 6.9v6.2c0 2.2.8 3.4 2.3 3.9l-4.3 3.5zm-3.9-9.2l-2.3.2c-1.6.1-2.3 1.3-2.3 2.4 0 1 .8 1.8 1.9 1.8 1.5 0 2.7-1.1 2.7-2.8v-1.6zM429.6 86.8v-2.4c-1.1 1.9-3.2 2.9-5.9 2.9-4.7 0-9.2-3.5-9.2-10 0-6.1 4.4-10.1 9.7-10.1 2 0 4.1.7 4.8 1.3V56.9h6v29.9h-5.4zm-.6-12.5c-.6-.8-1.8-1.7-3.7-1.7-2.7 0-4.6 2.1-4.6 4.8s1.9 4.8 4.6 4.8c1.8 0 3.1-1 3.7-2v-5.9zM450.2 84.9c-2.9 7.6-5.9 10.4-9.5 11.8L437 93c3.1-1.2 5.4-3.4 7-7.4l-6.8-17.7h6l2.8 7.4c.4 1.1.8 2.4 1.1 3.7h.1c.4-1.3.8-2.6 1.2-3.7l2.8-7.4h5.7l-6.7 17zM481.2 72.8h-5v7.1c0 1.6.9 2.3 2.5 2.3.7 0 1.1 0 1.6-.3l-.5 4.7c-.6.3-1.6.5-2.9.5-4.3 0-6.8-2.3-6.8-6v-8.2H467v-5h3.2v-4.1l6.1-2.2v6.3h6.1l-1.2 4.9zM493.5 87.4c-5.8 0-10.4-4.1-10.4-10.1s4.6-10.1 10.4-10.1c5.7 0 10.4 4.1 10.4 10.1s-4.7 10.1-10.4 10.1zm0-14.9c-2.3 0-4.3 2-4.3 4.8s2 4.8 4.3 4.8 4.3-2 4.3-4.8-2-4.8-4.3-4.8zM524.8 96.5c-5.5 0-9.2-3.2-9.2-7.1 0-2.9 1.9-4.6 3.9-5.1l-2.4-2.4c.2-1.2 1.2-2.3 2.3-2.7-1.4-.9-2.8-2.7-2.8-5.1 0-4 2.9-6.8 7.9-6.8 1.1 0 2 .2 2.8.4.8.2 1.8.3 2.7.3 1 0 2.1-.3 3-.6l1.1 4.7c-.6.3-1.5.6-2.4.6.2.4.5 1.3.5 1.9 0 3.2-2.5 5.9-6.2 6.1-.8 0-1.3.2-1.3.7 0 .2.2.5.5.6l2.9 1.1c3.7 1.3 5.8 3.2 5.8 6.7 0 3.8-3.5 6.7-9.1 6.7zm1.3-8.9l-2.3-.6c-1.5 0-2.6 1.1-2.6 2.5 0 1.3 1.1 2.4 3.4 2.4 2.2 0 3.4-1 3.4-2.1 0-1-.7-1.9-1.9-2.2zm-1.6-15.9c-1.4 0-2.4 1.1-2.4 2.3 0 1.3 1 2.3 2.4 2.3 1.3 0 2.4-1 2.4-2.3 0-1.3-1-2.3-2.4-2.3zM539.5 65.2c-1.1 0-3.3-2.2-3.3-3.3 0-1.1 2.2-3.3 3.3-3.3s3.3 2.2 3.3 3.3c0 1.1-2.2 3.3-3.3 3.3zm-3.1 21.6v-19h6.2v19h-6.2zM556.6 87H552l-7.3-19.2h6l2.7 7.3c.4 1 .8 2.4 1.1 3.7h.1c.3-1.2.7-2.7 1.1-3.7l2.7-7.3h5.7L556.6 87zM582.5 76.2l-2.7 2.8h-9.3c.3 1.6 2.4 3.3 5.6 3.3 2 0 4-.6 5.3-1.4l-.6 5.3c-1.4.8-3.6 1.3-6 1.3-5.8 0-10.5-4-10.5-10.2 0-6.1 4.5-10 9.9-10 5.3 0 8.5 3.7 8.5 7.6 0 .3-.1 1-.2 1.3zm-8.3-4.4c-1.8 0-3.3 1.4-3.7 3.1h6.4v-.4c.1-1.3-1.1-2.7-2.7-2.7zM606.8 84.9c-2.9 7.6-5.9 10.4-9.5 11.8l-3.8-3.8c3.1-1.2 5.4-3.4 7-7.4l-6.8-17.7h6l2.8 7.4c.4 1.1.8 2.4 1.1 3.7h.1c.4-1.3.8-2.6 1.2-3.7l2.8-7.4h5.7l-6.6 17.1zM624 87.4c-5.8 0-10.4-4.1-10.4-10.1s4.6-10.1 10.4-10.1c5.7 0 10.4 4.1 10.4 10.1s-4.7 10.1-10.4 10.1zm0-14.9c-2.3 0-4.3 2-4.3 4.8s2 4.8 4.3 4.8 4.3-2 4.3-4.8-2-4.8-4.3-4.8zM649.8 86.8v-2.6c-.8 2-2.8 3.2-5.8 3.2-4.2 0-6.7-2.3-6.7-6.3V67.8h6.2v11.7c0 1.4 1 2.6 2.9 2.6 1.8 0 3-1.2 3-2.7V67.8h6.2v19h-5.8zM671 74.3c-.4-.2-1.2-.5-1.8-.5-2 0-3.8 1.1-3.8 4.1v8.9h-6.2v-19h6.1V72c.6-3 2.9-4.6 5.4-4.6.6 0 1.3.1 1.8.3l-1.5 6.6z"/><g><path class="st0" d="M350.2 122.3c-.4-.2-1.2-.5-1.8-.5-2 0-3.8 1.1-3.8 4.1v8.9h-6.2v-19h6.1v4.2c.6-3 2.9-4.6 5.4-4.6.6 0 1.3.1 1.8.3l-1.5 6.6zM370.6 124.2l-2.7 2.8h-9.3c.3 1.6 2.4 3.3 5.6 3.3 2 0 4-.6 5.3-1.4l-.6 5.3c-1.4.8-3.6 1.3-6 1.3-5.8 0-10.5-4-10.5-10.2 0-6.1 4.5-10 9.9-10 5.3 0 8.5 3.7 8.5 7.6 0 .3-.1 1-.2 1.3zm-8.3-4.4c-1.8 0-3.3 1.4-3.7 3.1h6.4v-.4c.1-1.3-1.1-2.7-2.7-2.7zM386.6 120.8h-5v7.1c0 1.6.9 2.3 2.5 2.3.7 0 1.1 0 1.6-.3l-.5 4.7c-.6.3-1.6.5-2.9.5-4.3 0-6.8-2.3-6.8-6v-8.2h-3.2v-5h3.2v-4.1l6.1-2.2v6.3h6.1l-1.1 4.9zM392.9 113.2c-1.1 0-3.3-2.2-3.3-3.3 0-1.1 2.2-3.3 3.3-3.3s3.3 2.2 3.3 3.3c0 1.1-2.2 3.3-3.3 3.3zm-3.1 21.6v-19h6.2v19h-6.2zM411.7 122.3c-.4-.2-1.2-.5-1.8-.5-2 0-3.8 1.1-3.8 4.1v8.9h-6.2v-19h6.1v4.2c.6-3 2.9-4.6 5.4-4.6.6 0 1.3.1 1.8.3l-1.5 6.6zM432.1 124.2l-2.7 2.8h-9.3c.3 1.6 2.4 3.3 5.6 3.3 2 0 4-.6 5.3-1.4l-.6 5.3c-1.4.8-3.6 1.3-6 1.3-5.8 0-10.5-4-10.5-10.2 0-6.1 4.5-10 9.9-10 5.3 0 8.5 3.7 8.5 7.6 0 .3-.1 1-.2 1.3zm-8.3-4.4c-1.8 0-3.3 1.4-3.7 3.1h6.4v-.4c0-1.3-1.1-2.7-2.7-2.7zM458.6 134.8v-11.7c0-1.4-.7-2.6-2.7-2.6s-2.9 1.2-2.9 2.7v11.6h-6.2v-11.7c0-1.4-.7-2.6-2.7-2.6s-2.9 1.2-2.9 2.7v11.6H435v-19h5.7v2.6c.8-2 2.6-3.2 5.6-3.2 2.7 0 4.8 1.1 5.6 3.1.8-1.8 3-3.1 5.9-3.1 4.3 0 6.7 2.4 6.7 6.4v13.2h-5.9zM486 124.2l-2.7 2.8H474c.3 1.6 2.4 3.3 5.6 3.3 2 0 4-.6 5.3-1.4l-.6 5.3c-1.4.8-3.6 1.3-6 1.3-5.8 0-10.5-4-10.5-10.2 0-6.1 4.5-10 9.9-10 5.3 0 8.5 3.7 8.5 7.6 0 .3-.1 1-.2 1.3zm-8.3-4.4c-1.8 0-3.3 1.4-3.7 3.1h6.4v-.4c0-1.3-1.1-2.7-2.7-2.7zM501.1 134.8v-11.7c0-1.4-.9-2.6-2.8-2.6-1.8 0-3 1.2-3 2.7v11.6h-6.2v-19h5.7v2.6c.8-2 2.7-3.2 5.8-3.2 4.2 0 6.7 2.4 6.7 6.4v13.2h-6.2zM523.5 120.8h-5v7.1c0 1.6.9 2.3 2.5 2.3.7 0 1.1 0 1.6-.3l-.5 4.7c-.6.3-1.6.5-2.9.5-4.3 0-6.8-2.3-6.8-6v-8.2h-3.2v-5h3.2v-4.1l6.1-2.2v6.3h6.1l-1.1 4.9zM542.4 135.2c-2.6 0-4.5-.5-6-1.3l-.5-5.5c1.7 1.2 3.9 2.1 6 2.1 1.1 0 1.8-.6 1.8-1.3 0-.8-.6-1.1-1.7-1.5-3.7-1-5.8-2.9-5.8-6.2 0-3.7 3-6.1 7.1-6.1 2.4 0 4.7.6 5.6 1.1l-1 4.5c-.9-.5-2.4-1.1-3.9-1.1-1 0-1.7.5-1.7 1.2s.5 1.1 1.7 1.4c4.3 1.1 6 3.3 6 6.5-.1 3.3-2.4 6.2-7.6 6.2zM566.2 135.7c-1.1-.3-2.4-1.1-2.9-2.5-.8 1.6-2.6 2.3-5 2.3-3.4 0-6.3-2.4-6.3-6.3 0-3.5 2.7-5.8 6.5-6.2l3.8-.4v-.6c0-1.1-.9-1.9-3-1.9-1.8 0-3.9.6-5.3 1.5l-1.1-4.7c1.6-1 4.2-1.7 6.7-1.7 5 0 8.6 2.3 8.6 6.9v6.2c0 2.2.8 3.4 2.3 3.9l-4.3 3.5zm-4-9.2l-2.3.2c-1.6.1-2.3 1.3-2.3 2.4 0 1 .8 1.8 1.9 1.8 1.5 0 2.7-1.1 2.7-2.8v-1.6zM581.7 135h-4.6l-7.3-19.2h6l2.7 7.3c.4 1 .8 2.4 1.1 3.7h.1c.3-1.2.7-2.7 1.1-3.7l2.7-7.3h5.7l-7.5 19.2zM594.3 113.2c-1.1 0-3.3-2.2-3.3-3.3 0-1.1 2.2-3.3 3.3-3.3s3.3 2.2 3.3 3.3c0 1.1-2.2 3.3-3.3 3.3zm-3.1 21.6v-19h6.2v19h-6.2zM613.3 134.8v-11.7c0-1.4-.9-2.6-2.8-2.6-1.8 0-3 1.2-3 2.7v11.6h-6.2v-19h5.7v2.6c.8-2 2.7-3.2 5.8-3.2 4.2 0 6.7 2.4 6.7 6.4v13.2h-6.2zM631.2 144.5c-5.5 0-9.2-3.2-9.2-7.1 0-2.9 1.9-4.6 3.9-5.1l-2.4-2.4c.2-1.2 1.2-2.3 2.3-2.7-1.4-.9-2.8-2.7-2.8-5.1 0-4 2.9-6.8 7.9-6.8 1.1 0 2 .2 2.8.4.8.2 1.8.3 2.7.3 1 0 2.1-.3 3-.6l1.1 4.7c-.6.3-1.5.6-2.4.6.2.4.5 1.3.5 1.9 0 3.2-2.5 5.9-6.2 6.1-.8 0-1.3.2-1.3.7 0 .2.2.5.5.6l2.9 1.1c3.7 1.3 5.8 3.2 5.8 6.7 0 3.8-3.5 6.7-9.1 6.7zm1.3-8.9l-2.3-.6c-1.5 0-2.6 1.1-2.6 2.5 0 1.3 1.1 2.4 3.4 2.4 2.2 0 3.4-1 3.4-2.1 0-1-.7-1.9-1.9-2.2zm-1.7-15.9c-1.4 0-2.4 1.1-2.4 2.3 0 1.3 1 2.3 2.4 2.3 1.3 0 2.4-1 2.4-2.3.1-1.3-.9-2.3-2.4-2.3zM648.8 135.2c-2.6 0-4.5-.5-6-1.3l-.5-5.5c1.7 1.2 3.9 2.1 6 2.1 1.1 0 1.8-.6 1.8-1.3 0-.8-.6-1.1-1.7-1.5-3.7-1-5.8-2.9-5.8-6.2 0-3.7 3-6.1 7.1-6.1 2.4 0 4.7.6 5.6 1.1l-1 4.5c-.9-.5-2.4-1.1-3.9-1.1-1 0-1.7.5-1.7 1.2s.5 1.1 1.7 1.4c4.3 1.1 6 3.3 6 6.5-.1 3.3-2.5 6.2-7.6 6.2zM682.2 135.7c-1.1-.3-2.4-1.1-2.9-2.5-.8 1.6-2.6 2.3-5 2.3-3.4 0-6.3-2.4-6.3-6.3 0-3.5 2.7-5.8 6.5-6.2l3.8-.4v-.6c0-1.1-.9-1.9-3-1.9-1.8 0-3.9.6-5.3 1.5l-1.1-4.7c1.6-1 4.2-1.7 6.7-1.7 5 0 8.6 2.3 8.6 6.9v6.2c0 2.2.8 3.4 2.3 3.9l-4.3 3.5zm-3.9-9.2l-2.3.2c-1.6.1-2.3 1.3-2.3 2.4 0 1 .8 1.8 1.9 1.8 1.5 0 2.7-1.1 2.7-2.8v-1.6z"/></g><g><path class="st0" d="M417.2 183H413l-2.6-7.6c-.4-1.2-.8-2.5-1.1-3.9h-.1c-.3 1.4-.7 2.8-1.1 3.9l-2.6 7.6h-4l-6.6-19.2h5.6l2.4 7.2c.3 1.1.7 2.4.9 3.7h.1c.2-1.2.5-2.6.9-3.7l2.4-7.2h4.7l2.4 7.2c.4 1.2.6 2.5.9 3.7h.1c.3-1.2.6-2.6 1-3.7l2.4-7.2h5.3l-6.8 19.2zM439.2 183.7c-1.1-.3-2.4-1.1-2.9-2.5-.8 1.6-2.6 2.3-5 2.3-3.4 0-6.3-2.4-6.3-6.3 0-3.5 2.7-5.8 6.5-6.2l3.8-.4v-.6c0-1.1-.9-1.9-3-1.9-1.8 0-3.9.6-5.3 1.5l-1.1-4.7c1.6-1 4.2-1.7 6.7-1.7 5 0 8.6 2.3 8.6 6.9v6.2c0 2.2.8 3.4 2.3 3.9l-4.3 3.5zm-4-9.2l-2.3.2c-1.6.1-2.3 1.3-2.3 2.4 0 1 .8 1.8 1.9 1.8 1.5 0 2.7-1.1 2.7-2.8v-1.6zM457.3 182.8l-5.6-7.7v7.7h-6.1v-29.9h6.1v18.6l5.7-7.7h6.7l-6.7 9.2 7.1 9.8h-7.2zM482.8 172.2l-2.7 2.8h-9.3c.3 1.6 2.4 3.3 5.6 3.3 2 0 4-.6 5.3-1.4l-.6 5.3c-1.4.8-3.6 1.3-6 1.3-5.8 0-10.5-4-10.5-10.2 0-6.1 4.5-10 9.9-10 5.3 0 8.5 3.7 8.5 7.6 0 .3-.1 1-.2 1.3zm-8.4-4.4c-1.8 0-3.3 1.4-3.7 3.1h6.4v-.4c.1-1.3-1-2.7-2.7-2.7zM485.8 173.6v-4.7h11v4.7h-11zM512.9 182.8v-2.6c-.8 2-2.8 3.2-5.8 3.2-4.2 0-6.7-2.3-6.7-6.3v-13.2h6.2v11.7c0 1.4 1 2.6 2.9 2.6 1.8 0 3-1.2 3-2.7v-11.6h6.2v19h-5.8zM533.1 183.4c-2 0-4.1-.6-4.8-1.3v10.4h-6v-28.7h5.4v2.4c1-1.9 3.2-2.9 5.9-2.9 4.7 0 9.2 3.5 9.2 10 0 6.1-4.4 10.1-9.7 10.1zm-1.1-14.8c-1.8 0-3.1 1-3.7 2v6c.6.8 1.8 1.7 3.7 1.7 2.7 0 4.6-2.1 4.6-4.8s-1.9-4.9-4.6-4.9zM569.8 169.9c-1.3-.8-2.6-1.2-4.1-1.2-2.7 0-4.8 1.9-4.8 4.7 0 2.7 2.1 4.7 5 4.7 1.6 0 2.8-.3 4.2-1l-.5 5.3c-1.3.6-2.9.9-4.7.9-5.3 0-10.3-3.8-10.3-9.9 0-6.2 5-10 10.2-10 2.5 0 4.6.5 6.3 1.4l-1.3 5.1zM587 183.7c-1.1-.3-2.4-1.1-2.9-2.5-.8 1.6-2.6 2.3-5 2.3-3.4 0-6.3-2.4-6.3-6.3 0-3.5 2.7-5.8 6.5-6.2l3.8-.4v-.6c0-1.1-.9-1.9-3-1.9-1.8 0-3.9.6-5.3 1.5l-1.1-4.7c1.6-1 4.2-1.7 6.7-1.7 5 0 8.6 2.3 8.6 6.9v6.2c0 2.2.8 3.4 2.3 3.9l-4.3 3.5zm-3.9-9.2l-2.3.2c-1.6.1-2.3 1.3-2.3 2.4 0 1 .8 1.8 1.9 1.8 1.5 0 2.7-1.1 2.7-2.8v-1.6zM599.7 183.6c-3.9-.2-6.5-2.2-6.5-6.8v-23.9h6.1V176c0 1.6.9 2.4 2.6 2.5l-2.2 5.1zM610.5 183.6c-3.9-.2-6.5-2.2-6.5-6.8v-23.9h6.1V176c0 1.6.9 2.4 2.6 2.5l-2.2 5.1zM623.9 169.6c-1 1.2-1.5 2.2-1.5 3.3 0 .6 0 1.3.2 1.8l-5.3-1c-.2-.8-.3-1.5-.3-2.1 0-2.3.9-4.2 2.4-5.8 1.1-1.1 1.6-1.9 1.6-3.2 0-.9-.8-1.9-2.3-1.9-1.5 0-2.9.5-4.3 1.4l-1.3-5.2c1.6-1 3.6-1.6 6-1.6 5 0 8.2 2.9 8.2 7.1.2 2.6-.9 4.6-3.4 7.2zm-3.8 13.8c-1.1 0-3.5-2.4-3.5-3.5s2.4-3.4 3.5-3.4 3.5 2.4 3.5 3.4c0 1.2-2.3 3.5-3.5 3.5z"/></g></svg>