<svg id="Layer_1" xmlns="http://www.w3.org/2000/svg" viewBox="0 0 970 250"><style>.st0{fill:#f9e039}</style><path class="st0" d="M102.1 116.6c-7.6 0-15.2-4.9-15.2-14.4s7.8-14.4 15.1-14.4c3.8 0 7.1 1 8.9 2.3l-1.2 5.5c-1.7-1.1-4.3-1.9-7-1.9-5 0-9.2 3.3-9.2 8.8 0 5.1 4 8.5 8.9 8.5 1.6 0 2.8-.3 3.7-.8v-4.3h-4.8v-5.1h10.9v13.1c-2.3 1.8-5.7 2.7-10.1 2.7zM134.1 105.2l-2.8 2.8h-9.5c.3 1.6 2.5 3.4 5.8 3.4 2 0 4.1-.6 5.4-1.5l-.6 5.4c-1.5.8-3.7 1.3-6.2 1.3-5.9 0-10.7-4.1-10.7-10.5 0-6.3 4.6-10.3 10.1-10.3 5.4 0 8.7 3.7 8.7 7.8 0 .5-.1 1.2-.2 1.6zm-8.5-4.6c-1.8 0-3.4 1.4-3.8 3.2h6.6v-.4c0-1.4-1.2-2.8-2.8-2.8zM150.4 101.7h-5.1v7.2c0 1.7.9 2.4 2.6 2.4.7 0 1.2 0 1.6-.3l-.6 4.8c-.6.3-1.7.5-2.9.5-4.4 0-7-2.3-7-6.2v-8.4h-3.3v-5.2h3.3v-4.2l6.3-2.3v6.5h6.3l-1.2 5.2zM172.1 125.9c-5.7 0-9.5-3.2-9.5-7.3 0-3 2-4.7 4-5.2l-2.5-2.5c.2-1.2 1.2-2.3 2.4-2.8-1.5-.9-2.8-2.8-2.8-5.2 0-4.1 3-7 8-7 1.2 0 2.1.2 2.9.4.9.2 1.8.3 2.8.3 1.1 0 2.2-.3 3.1-.6l1.2 4.8c-.6.3-1.5.6-2.4.6.2.4.5 1.3.5 2 0 3.3-2.6 6-6.4 6.3-.8 0-1.3.2-1.3.7 0 .2.2.5.5.6l3 1.1c3.8 1.4 5.9 3.3 5.9 6.9-.1 3.9-3.7 6.9-9.4 6.9zm1.3-9.1l-2.3-.6c-1.5 0-2.6 1.1-2.6 2.5 0 1.3 1.2 2.5 3.4 2.5s3.4-1 3.4-2.1c0-1-.6-2-1.9-2.3zm-1.7-16.3c-1.4 0-2.5 1.1-2.5 2.3 0 1.3 1.1 2.3 2.5 2.3s2.5-1 2.5-2.3c0-1.2-1-2.3-2.5-2.3zM196.5 116v-2.7c-.8 2.1-2.8 3.2-6 3.2-4.3 0-6.8-2.4-6.8-6.5V96.5h6.3v12c0 1.4 1 2.7 2.9 2.7s3.1-1.2 3.1-2.8V96.5h6.3V116h-5.8zM219.9 116.9c-1.2-.3-2.5-1.2-3-2.6-.9 1.6-2.7 2.4-5.1 2.4-3.4 0-6.5-2.4-6.5-6.4 0-3.6 2.8-6 6.7-6.4l3.9-.4v-.6c0-1.2-.9-1.9-3.1-1.9-1.9 0-4 .6-5.4 1.5l-1.1-4.8c1.6-1 4.3-1.7 6.8-1.7 5.2 0 8.8 2.4 8.8 7.1v6.4c0 2.3.9 3.5 2.4 4l-4.4 3.4zm-4-9.4l-2.4.2c-1.6.1-2.4 1.3-2.4 2.5 0 1 .8 1.9 2 1.9 1.5 0 2.8-1.2 2.8-2.8v-1.8zM238.4 103.2c-.4-.2-1.2-.5-1.9-.5-2 0-3.9 1.1-3.9 4.2v9.1h-6.3V96.5h6.2v4.3c.6-3.1 2.9-4.7 5.5-4.7.6 0 1.3.1 1.8.3l-1.4 6.8zM255.5 116.9c-1.2-.3-2.5-1.2-3-2.6-.9 1.6-2.7 2.4-5.1 2.4-3.4 0-6.5-2.4-6.5-6.4 0-3.6 2.8-6 6.7-6.4l3.9-.4v-.6c0-1.2-.9-1.9-3.1-1.9-1.9 0-4 .6-5.4 1.5l-1.1-4.8c1.6-1 4.3-1.7 6.8-1.7 5.2 0 8.8 2.4 8.8 7.1v6.4c0 2.3.9 3.5 2.4 4l-4.4 3.4zm-4-9.4l-2.4.2c-1.6.1-2.4 1.3-2.4 2.5 0 1 .8 1.9 2 1.9 1.5 0 2.8-1.2 2.8-2.8v-1.8zM274.2 116v-12c0-1.4-.9-2.7-2.9-2.7-1.9 0-3.1 1.2-3.1 2.8V116h-6.3V96.5h5.8v2.6c.8-2.1 2.8-3.2 5.9-3.2 4.3 0 6.8 2.4 6.8 6.5V116h-6.2zM297.1 101.7H292v7.2c0 1.7.9 2.4 2.6 2.4.7 0 1.2 0 1.6-.3l-.6 4.8c-.6.3-1.7.5-2.9.5-4.4 0-7-2.3-7-6.2v-8.4h-3.3v-5.2h3.3v-4.2L292 90v6.5h6.3l-1.2 5.2zM317.7 105.2l-2.8 2.8h-9.5c.3 1.6 2.5 3.4 5.8 3.4 2 0 4.1-.6 5.4-1.5l-.6 5.4c-1.5.8-3.7 1.3-6.2 1.3-5.9 0-10.7-4.1-10.7-10.5 0-6.3 4.6-10.3 10.1-10.3 5.4 0 8.7 3.7 8.7 7.8 0 .5-.1 1.2-.2 1.6zm-8.5-4.6c-1.8 0-3.4 1.4-3.8 3.2h6.6v-.4c0-1.4-1.2-2.8-2.8-2.8zM338.5 105.2l-2.8 2.8h-9.5c.3 1.6 2.5 3.4 5.8 3.4 2 0 4.1-.6 5.4-1.5l-.6 5.4c-1.5.8-3.7 1.3-6.2 1.3-5.9 0-10.7-4.1-10.7-10.5 0-6.3 4.6-10.3 10.1-10.3 5.4 0 8.7 3.7 8.7 7.8 0 .5-.1 1.2-.2 1.6zm-8.5-4.6c-1.8 0-3.4 1.4-3.8 3.2h6.6v-.4c0-1.4-1.1-2.8-2.8-2.8zM356.1 116v-2.4c-1.1 2-3.3 3-6 3-4.8 0-9.4-3.6-9.4-10.3 0-6.3 4.5-10.4 9.9-10.4 2.1 0 4.2.7 4.9 1.3V85.4h6.1V116h-5.5zm-.6-12.8c-.6-.8-1.9-1.8-3.8-1.8-2.8 0-4.7 2.1-4.7 4.9s1.9 4.9 4.7 4.9c1.8 0 3.1-1 3.8-2v-6zM382.1 116.8c-4-.2-6.7-2.2-6.7-6.9V85.4h6.2v23.7c0 1.6.9 2.5 2.6 2.6l-2.1 5.1zM389.9 93.9c-1.1 0-3.4-2.3-3.4-3.4s2.3-3.4 3.4-3.4 3.4 2.2 3.4 3.4c0 1.1-2.3 3.4-3.4 3.4zm-3.2 22.1V96.5h6.4V116h-6.4zM410.7 91c-.7-.3-1.8-.5-2.5-.5-2.3 0-3.5 1.4-3.5 4.2v1.8h5.6l-1.2 5.2h-4.3V116h-6.1v-14.3h-3v-5.2h3v-2.3c0-5.9 3.8-8.9 8.7-8.9 1.8 0 3.6.2 4.6.6l-1.3 5.1zM429.6 105.2l-2.8 2.8h-9.5c.3 1.6 2.5 3.4 5.8 3.4 2 0 4.1-.6 5.4-1.5l-.6 5.4c-1.5.8-3.7 1.3-6.2 1.3-5.9 0-10.7-4.1-10.7-10.5 0-6.3 4.6-10.3 10.1-10.3 5.4 0 8.7 3.7 8.7 7.8-.1.5-.2 1.2-.2 1.6zm-8.6-4.6c-1.8 0-3.4 1.4-3.8 3.2h6.6v-.4c0-1.4-1.1-2.8-2.8-2.8zM445.8 101.7h-5.1v7.2c0 1.7.9 2.4 2.6 2.4.7 0 1.2 0 1.6-.3l-.6 4.8c-.6.3-1.7.5-2.9.5-4.4 0-7-2.3-7-6.2v-8.4h-3.3v-5.2h3.3v-4.2l6.3-2.3v6.5h6.3l-1.2 5.2zM452.3 93.9c-1.1 0-3.4-2.3-3.4-3.4s2.3-3.4 3.4-3.4 3.4 2.2 3.4 3.4c0 1.1-2.3 3.4-3.4 3.4zm-3.2 22.1V96.5h6.4V116h-6.4zM483.4 116v-12c0-1.4-.7-2.7-2.8-2.7-2 0-2.9 1.2-2.9 2.8V116h-6.3v-12c0-1.4-.7-2.7-2.8-2.7-2 0-2.9 1.2-2.9 2.8V116h-6.3V96.5h5.8v2.6c.8-2.1 2.7-3.2 5.8-3.2 2.8 0 4.9 1.1 5.8 3.2.8-1.9 3.1-3.2 6-3.2 4.4 0 6.9 2.4 6.9 6.5V116h-6.3zM511.5 105.2l-2.8 2.8h-9.5c.3 1.6 2.5 3.4 5.8 3.4 2 0 4.1-.6 5.4-1.5l-.6 5.4c-1.5.8-3.7 1.3-6.2 1.3-5.9 0-10.7-4.1-10.7-10.5 0-6.3 4.6-10.3 10.1-10.3 5.4 0 8.7 3.7 8.7 7.8-.1.5-.1 1.2-.2 1.6zm-8.6-4.6c-1.8 0-3.4 1.4-3.8 3.2h6.6v-.4c.1-1.4-1.1-2.8-2.8-2.8zM527.7 93.9c-1.1 0-3.4-2.3-3.4-3.4s2.3-3.4 3.4-3.4 3.4 2.2 3.4 3.4c0 1.1-2.3 3.4-3.4 3.4zm-3.2 22.1V96.5h6.4V116h-6.4zM547.2 116v-12c0-1.4-.9-2.7-2.9-2.7-1.9 0-3.1 1.2-3.1 2.8V116h-6.3V96.5h5.8v2.6c.8-2.1 2.8-3.2 5.9-3.2 4.3 0 6.8 2.4 6.8 6.5V116h-6.2zM572.1 102.8c-1.3-.8-2.6-1.2-4.2-1.2-2.8 0-4.9 2-4.9 4.8s2.2 4.8 5.1 4.8c1.6 0 2.9-.3 4.3-1.1l-.6 5.4c-1.3.6-3 .9-4.8.9-5.5 0-10.5-3.9-10.5-10.1 0-6.4 5.1-10.2 10.4-10.2 2.6 0 4.7.5 6.4 1.5l-1.2 5.2zM585.5 116.6c-5.9 0-10.6-4.2-10.6-10.4s4.7-10.4 10.6-10.4c5.8 0 10.6 4.2 10.6 10.4s-4.7 10.4-10.6 10.4zm0-15.2c-2.4 0-4.4 2.1-4.4 4.9s2 4.9 4.4 4.9c2.3 0 4.4-2.1 4.4-4.9s-2.1-4.9-4.4-4.9zM623.1 116v-12c0-1.4-.7-2.7-2.8-2.7-2 0-2.9 1.2-2.9 2.8V116h-6.3v-12c0-1.4-.7-2.7-2.8-2.7-2 0-2.9 1.2-2.9 2.8V116h-6.3V96.5h5.8v2.6c.8-2.1 2.7-3.2 5.8-3.2 2.8 0 4.9 1.1 5.8 3.2.8-1.9 3.1-3.2 6-3.2 4.4 0 6.9 2.4 6.9 6.5V116h-6.3zM651.1 105.2l-2.8 2.8h-9.5c.3 1.6 2.5 3.4 5.8 3.4 2 0 4.1-.6 5.4-1.5l-.6 5.4c-1.5.8-3.7 1.3-6.2 1.3-5.9 0-10.7-4.1-10.7-10.5 0-6.3 4.6-10.3 10.1-10.3 5.4 0 8.7 3.7 8.7 7.8 0 .5-.1 1.2-.2 1.6zm-8.5-4.6c-1.8 0-3.4 1.4-3.8 3.2h6.6v-.4c0-1.4-1.1-2.8-2.8-2.8z"/><g><path class="st0" d="M208.1 146.7H203v7.2c0 1.7.9 2.4 2.6 2.4.7 0 1.2 0 1.6-.3l-.6 4.8c-.6.3-1.7.5-2.9.5-4.4 0-7-2.3-7-6.2v-8.4h-3.3v-5.2h3.3v-4.2l6.3-2.3v6.5h6.3l-1.2 5.2zM223.6 161v-12c0-1.4-1-2.7-2.9-2.7s-3.1 1.2-3.1 2.8V161h-6.3v-30.6h6.2v12.9c1-1.5 2.8-2.4 5.5-2.4 4.3 0 6.8 2.4 6.8 6.5V161h-6.2zM247.5 161.9c-1.2-.3-2.5-1.2-3-2.6-.9 1.6-2.7 2.4-5.1 2.4-3.4 0-6.5-2.4-6.5-6.4 0-3.6 2.8-6 6.7-6.4l3.9-.4v-.6c0-1.2-.9-1.9-3.1-1.9-1.9 0-4 .6-5.4 1.5l-1.1-4.8c1.6-1 4.3-1.7 6.8-1.7 5.2 0 8.8 2.4 8.8 7.1v6.4c0 2.3.9 3.5 2.4 4l-4.4 3.4zm-4-9.4l-2.4.2c-1.6.1-2.4 1.3-2.4 2.5 0 1 .8 1.9 2 1.9 1.5 0 2.8-1.2 2.8-2.8v-1.8zM266.4 146.7h-5.1v7.2c0 1.7.9 2.4 2.6 2.4.7 0 1.2 0 1.6-.3l-.6 4.8c-.6.3-1.7.5-2.9.5-4.4 0-7-2.3-7-6.2v-8.4h-3.3v-5.2h3.3v-4.2l6.3-2.3v6.5h6.3l-1.2 5.2zM291.7 161v-12c0-1.4-.9-2.7-2.9-2.7-1.9 0-3.1 1.2-3.1 2.8V161h-6.3v-19.5h5.8v2.6c.8-2.1 2.8-3.2 5.9-3.2 4.3 0 6.8 2.4 6.8 6.5V161h-6.2zM319.7 150.2l-2.8 2.8h-9.5c.3 1.6 2.5 3.4 5.8 3.4 2 0 4.1-.6 5.4-1.5l-.6 5.4c-1.5.8-3.7 1.3-6.2 1.3-5.9 0-10.7-4.1-10.7-10.5 0-6.3 4.6-10.3 10.1-10.3 5.4 0 8.7 3.7 8.7 7.8 0 .6-.1 1.2-.2 1.6zm-8.5-4.6c-1.8 0-3.4 1.4-3.8 3.2h6.6v-.4c0-1.3-1.1-2.8-2.8-2.8zM332.8 161.2H328l-7.5-19.7h6.1l2.8 7.4c.4 1 .8 2.5 1.1 3.8h.1c.3-1.2.7-2.8 1.1-3.8l2.8-7.4h5.8l-7.5 19.7zM359.3 150.2l-2.8 2.8H347c.3 1.6 2.5 3.4 5.8 3.4 2 0 4.1-.6 5.4-1.5l-.6 5.4c-1.5.8-3.7 1.3-6.2 1.3-5.9 0-10.7-4.1-10.7-10.5 0-6.3 4.6-10.3 10.1-10.3 5.4 0 8.7 3.7 8.7 7.8 0 .6-.1 1.2-.2 1.6zm-8.5-4.6c-1.8 0-3.4 1.4-3.8 3.2h6.6v-.4c0-1.3-1.1-2.8-2.8-2.8zM374.6 148.3c-.4-.2-1.2-.5-1.9-.5-2 0-3.9 1.1-3.9 4.2v9.1h-6.3v-19.5h6.2v4.3c.6-3.1 2.9-4.7 5.5-4.7.6 0 1.3.1 1.8.3l-1.4 6.8zM400 148.3c-.4-.2-1.2-.5-1.9-.5-2 0-3.9 1.1-3.9 4.2v9.1h-6.3v-19.5h6.2v4.3c.6-3.1 2.9-4.7 5.5-4.7.6 0 1.3.1 1.8.3l-1.4 6.8zM416.3 161v-2.7c-.8 2.1-2.8 3.2-6 3.2-4.3 0-6.8-2.4-6.8-6.5v-13.5h6.3v12c0 1.4 1 2.7 2.9 2.7s3.1-1.2 3.1-2.8v-11.8h6.3V161h-5.8zM438.2 161v-12c0-1.4-.9-2.7-2.9-2.7-1.9 0-3.1 1.2-3.1 2.8V161H426v-19.5h5.8v2.6c.8-2.1 2.8-3.2 5.9-3.2 4.3 0 6.8 2.4 6.8 6.5V161h-6.3zM454.7 161.5c-2.7 0-4.6-.6-6.2-1.4l-.6-5.6c1.7 1.2 4 2.1 6.1 2.1 1.2 0 1.9-.6 1.9-1.3 0-.8-.6-1.2-1.8-1.5-3.7-1.1-6-3-6-6.4 0-3.8 3.1-6.3 7.3-6.3 2.4 0 4.8.6 5.8 1.2l-1.1 4.6c-.9-.5-2.5-1.1-4-1.1-1 0-1.7.5-1.7 1.2s.5 1.1 1.7 1.4c4.4 1.2 6.2 3.4 6.2 6.6 0 3.4-2.4 6.5-7.6 6.5zM484.9 161.6c-5.9 0-10.6-4.2-10.6-10.4s4.7-10.4 10.6-10.4c5.8 0 10.6 4.2 10.6 10.4.1 6.3-4.7 10.4-10.6 10.4zm0-15.2c-2.4 0-4.4 2.1-4.4 4.9s2 4.9 4.4 4.9c2.3 0 4.4-2.1 4.4-4.9s-2-4.9-4.4-4.9zM511.3 161v-2.7c-.8 2.1-2.8 3.2-6 3.2-4.3 0-6.8-2.4-6.8-6.5v-13.5h6.3v12c0 1.4 1 2.7 2.9 2.7s3.1-1.2 3.1-2.8v-11.8h6.3V161h-5.8zM534.1 146.7H529v7.2c0 1.7.9 2.4 2.6 2.4.7 0 1.2 0 1.6-.3l-.6 4.8c-.6.3-1.7.5-2.9.5-4.4 0-7-2.3-7-6.2v-8.4h-3.3v-5.2h3.3v-4.2l6.3-2.3v6.5h6.3l-1.2 5.2zM539.9 161.6c-1.2 0-3.6-2.4-3.6-3.6 0-1.1 2.4-3.5 3.6-3.5 1.2 0 3.6 2.4 3.6 3.5 0 1.2-2.4 3.6-3.6 3.6z"/></g></svg>