<svg id="Layer_1" xmlns="http://www.w3.org/2000/svg" viewBox="0 0 970 250"><style>.st0{fill:#f9e039}</style><path class="st0" d="M408.7 66.7c-1.3-.8-3.3-1.4-5.5-1.4-4.7 0-8.6 3.2-8.6 8.1 0 4.9 3.8 8.2 8.9 8.2 2.2 0 4.2-.4 5.6-1.2l-.5 5.7c-1.4.7-3.4 1-6.1 1-6.9 0-14.4-4.7-14.4-13.8s7.5-13.8 14.4-13.8c3.3 0 5.9.7 7.5 1.6l-1.3 5.6zM425.9 87.7c-1.1-.3-2.4-1.1-2.9-2.5-.8 1.6-2.6 2.3-5 2.3-3.4 0-6.3-2.4-6.3-6.3 0-3.5 2.7-5.8 6.5-6.2l3.8-.4V74c0-1.1-.9-1.9-3-1.9-1.8 0-3.9.6-5.3 1.5l-1.1-4.7c1.6-1 4.2-1.7 6.7-1.7 5 0 8.6 2.3 8.6 6.9v6.2c0 2.2.8 3.4 2.3 3.9l-4.3 3.5zm-4-9.2l-2.3.2c-1.6.1-2.3 1.3-2.3 2.4 0 1 .8 1.8 1.9 1.8 1.5 0 2.7-1.1 2.7-2.8v-1.6zM438.5 87.6c-3.9-.2-6.5-2.2-6.5-6.8V56.9h6.1V80c0 1.6.9 2.4 2.6 2.5l-2.2 5.1zM457.1 73.9c-1.3-.8-2.6-1.2-4.1-1.2-2.7 0-4.8 1.9-4.8 4.7 0 2.7 2.1 4.7 5 4.7 1.6 0 2.8-.3 4.2-1l-.5 5.3c-1.3.6-2.9.9-4.7.9-5.3 0-10.3-3.8-10.3-9.9 0-6.2 5-10 10.2-10 2.5 0 4.6.5 6.3 1.4l-1.3 5.1zM473.5 86.8v-2.6c-.8 2-2.8 3.2-5.8 3.2-4.2 0-6.7-2.3-6.7-6.3V67.8h6.2v11.7c0 1.4 1 2.6 2.9 2.6 1.8 0 3-1.2 3-2.7V67.8h6.2v19h-5.8zM489.5 87.6c-3.9-.2-6.5-2.2-6.5-6.8V56.9h6.1V80c0 1.6.9 2.4 2.6 2.5l-2.2 5.1zM507.6 87.7c-1.1-.3-2.4-1.1-2.9-2.5-.8 1.6-2.6 2.3-5 2.3-3.4 0-6.3-2.4-6.3-6.3 0-3.5 2.7-5.8 6.5-6.2l3.8-.4V74c0-1.1-.9-1.9-3-1.9-1.8 0-3.9.6-5.3 1.5l-1.1-4.7c1.6-1 4.2-1.7 6.7-1.7 5 0 8.6 2.3 8.6 6.9v6.2c0 2.2.8 3.4 2.3 3.9l-4.3 3.5zm-3.9-9.2l-2.3.2c-1.6.1-2.3 1.3-2.3 2.4 0 1 .8 1.8 1.9 1.8 1.5 0 2.7-1.1 2.7-2.8v-1.6zM526.1 72.8h-5v7.1c0 1.6.9 2.3 2.5 2.3.7 0 1.1 0 1.6-.3l-.5 4.7c-.6.3-1.6.5-2.9.5-4.3 0-6.8-2.3-6.8-6v-8.2h-3.2v-5h3.2v-4.1l6.1-2.2v6.3h6.1l-1.1 4.9zM546.2 76.2l-2.7 2.8h-9.3c.3 1.6 2.4 3.3 5.6 3.3 2 0 4-.6 5.3-1.4l-.6 5.3c-1.4.8-3.6 1.3-6 1.3-5.8 0-10.5-4-10.5-10.2 0-6.1 4.5-10 9.9-10 5.3 0 8.5 3.7 8.5 7.6 0 .3-.1 1-.2 1.3zm-8.3-4.4c-1.8 0-3.3 1.4-3.7 3.1h6.4v-.4c.1-1.3-1.1-2.7-2.7-2.7zM570.5 84.9c-2.9 7.6-5.9 10.4-9.5 11.8l-3.8-3.8c3.1-1.2 5.4-3.4 7-7.4l-6.8-17.7h6l2.8 7.4c.4 1.1.8 2.4 1.1 3.7h.1c.4-1.3.8-2.6 1.2-3.7l2.8-7.4h5.7l-6.6 17.1zM587.7 87.4c-5.8 0-10.4-4.1-10.4-10.1s4.6-10.1 10.4-10.1c5.7 0 10.4 4.1 10.4 10.1s-4.7 10.1-10.4 10.1zm0-14.9c-2.3 0-4.3 2-4.3 4.8s2 4.8 4.3 4.8 4.3-2 4.3-4.8-2-4.8-4.3-4.8zM613.5 86.8v-2.6c-.8 2-2.8 3.2-5.8 3.2-4.2 0-6.7-2.3-6.7-6.3V67.8h6.2v11.7c0 1.4 1 2.6 2.9 2.6 1.8 0 3-1.2 3-2.7V67.8h6.2v19h-5.8zM634.7 74.3c-.4-.2-1.2-.5-1.8-.5-2 0-3.8 1.1-3.8 4.1v8.9h-6.2v-19h6.1V72c.6-3 2.9-4.6 5.4-4.6.6 0 1.3.1 1.8.3l-1.5 6.6z"/><g><path class="st0" d="M363 135.6c-3.9-.2-6.5-2.2-6.5-6.8v-23.9h6.1V128c0 1.6.9 2.4 2.6 2.5l-2.2 5.1zM370.6 113.2c-1.1 0-3.3-2.2-3.3-3.3 0-1.1 2.2-3.3 3.3-3.3s3.3 2.2 3.3 3.3c0 1.1-2.2 3.3-3.3 3.3zm-3.1 21.6v-19h6.2v19h-6.2zM390.9 110.4c-.7-.3-1.7-.5-2.5-.5-2.3 0-3.4 1.3-3.4 4.1v1.8h5.5l-1.2 5H385v14h-6v-14h-2.9v-5h2.9v-2.2c0-5.8 3.7-8.7 8.5-8.7 1.8 0 3.5.2 4.5.6l-1.1 4.9zM409.3 124.2l-2.7 2.8h-9.3c.3 1.6 2.4 3.3 5.6 3.3 2 0 4-.6 5.3-1.4l-.6 5.3c-1.4.8-3.6 1.3-6 1.3-5.8 0-10.5-4-10.5-10.2 0-6.1 4.5-10 9.9-10 5.3 0 8.5 3.7 8.5 7.6 0 .3-.1 1-.2 1.3zm-8.3-4.4c-1.8 0-3.3 1.4-3.7 3.1h6.4v-.4c0-1.3-1.1-2.7-2.7-2.7zM425.2 120.8h-5v7.1c0 1.6.9 2.3 2.5 2.3.7 0 1.1 0 1.6-.3l-.5 4.7c-.6.3-1.6.5-2.9.5-4.3 0-6.8-2.3-6.8-6v-8.2H411v-5h3.2v-4.1l6.1-2.2v6.3h6.1l-1.2 4.9zM431.6 113.2c-1.1 0-3.3-2.2-3.3-3.3 0-1.1 2.2-3.3 3.3-3.3s3.3 2.2 3.3 3.3c0 1.1-2.2 3.3-3.3 3.3zm-3.1 21.6v-19h6.2v19h-6.2zM462 134.8v-11.7c0-1.4-.7-2.6-2.7-2.6s-2.9 1.2-2.9 2.7v11.6h-6.2v-11.7c0-1.4-.7-2.6-2.7-2.6s-2.9 1.2-2.9 2.7v11.6h-6.2v-19h5.7v2.6c.8-2 2.6-3.2 5.6-3.2 2.7 0 4.8 1.1 5.6 3.1.8-1.8 3-3.1 5.9-3.1 4.3 0 6.7 2.4 6.7 6.4v13.2H462zM489.4 124.2l-2.7 2.8h-9.3c.3 1.6 2.4 3.3 5.6 3.3 2 0 4-.6 5.3-1.4l-.6 5.3c-1.4.8-3.6 1.3-6 1.3-5.8 0-10.5-4-10.5-10.2 0-6.1 4.5-10 9.9-10 5.3 0 8.5 3.7 8.5 7.6 0 .3-.1 1-.2 1.3zm-8.3-4.4c-1.8 0-3.3 1.4-3.7 3.1h6.4v-.4c0-1.3-1.1-2.7-2.7-2.7zM505.3 113.2c-1.1 0-3.3-2.2-3.3-3.3 0-1.1 2.2-3.3 3.3-3.3s3.3 2.2 3.3 3.3c0 1.1-2.2 3.3-3.3 3.3zm-3.1 21.6v-19h6.2v19h-6.2zM524.3 134.8v-11.7c0-1.4-.9-2.6-2.8-2.6-1.8 0-3 1.2-3 2.7v11.6h-6.2v-19h5.7v2.6c.8-2 2.7-3.2 5.8-3.2 4.2 0 6.7 2.4 6.7 6.4v13.2h-6.2zM548.6 121.9c-1.3-.8-2.6-1.2-4.1-1.2-2.7 0-4.8 1.9-4.8 4.7 0 2.7 2.1 4.7 5 4.7 1.6 0 2.8-.3 4.2-1l-.5 5.3c-1.3.6-2.9.9-4.7.9-5.3 0-10.3-3.8-10.3-9.9 0-6.2 5-10 10.2-10 2.5 0 4.6.5 6.3 1.4l-1.3 5.1zM561.7 135.4c-5.8 0-10.4-4.1-10.4-10.1s4.6-10.1 10.4-10.1c5.7 0 10.4 4.1 10.4 10.1s-4.6 10.1-10.4 10.1zm0-14.9c-2.3 0-4.3 2-4.3 4.8s2 4.8 4.3 4.8 4.3-2 4.3-4.8c0-2.7-2-4.8-4.3-4.8zM598.5 134.8v-11.7c0-1.4-.7-2.6-2.7-2.6s-2.9 1.2-2.9 2.7v11.6h-6.2v-11.7c0-1.4-.7-2.6-2.7-2.6s-2.9 1.2-2.9 2.7v11.6h-6.2v-19h5.7v2.6c.8-2 2.6-3.2 5.6-3.2 2.7 0 4.8 1.1 5.6 3.1.8-1.8 3-3.1 5.9-3.1 4.3 0 6.7 2.4 6.7 6.4v13.2h-5.9zM625.9 124.2l-2.7 2.8h-9.3c.3 1.6 2.4 3.3 5.6 3.3 2 0 4-.6 5.3-1.4l-.6 5.3c-1.4.8-3.6 1.3-6 1.3-5.8 0-10.5-4-10.5-10.2 0-6.1 4.5-10 9.9-10 5.3 0 8.5 3.7 8.5 7.6-.1.3-.1 1-.2 1.3zm-8.4-4.4c-1.8 0-3.3 1.4-3.7 3.1h6.4v-.4c.1-1.3-1-2.7-2.7-2.7zM641.8 113.2c-1.1 0-3.3-2.2-3.3-3.3 0-1.1 2.2-3.3 3.3-3.3s3.3 2.2 3.3 3.3c0 1.1-2.3 3.3-3.3 3.3zm-3.2 21.6v-19h6.2v19h-6.2zM660.8 134.8v-11.7c0-1.4-.9-2.6-2.8-2.6-1.8 0-3 1.2-3 2.7v11.6h-6.2v-19h5.7v2.6c.8-2 2.7-3.2 5.8-3.2 4.2 0 6.7 2.4 6.7 6.4v13.2h-6.2z"/></g><g><path class="st0" d="M419.3 183.3c-1.6 0-3.7-.3-5.1-.9l-.5-5.4c1.3.7 2.9 1.2 4.5 1.2 2.5 0 4.7-1.2 4.7-3.8 0-2.1-1.9-3.6-4.2-3.6-.3 0-.4 0-.8.1l-1-4.5c2.3-.5 4.2-1.7 4.2-3.2 0-1.3-1.1-2.2-2.6-2.2s-2.6.4-3.8 1.1l-1.2-5.2c1.4-.8 3.6-1.3 5.8-1.3 5 0 8.2 2.6 8.2 6.4 0 2.8-2 4.6-3.8 5.1 2.9.6 5.9 3.2 5.9 7.5 0 5.5-4.1 8.7-10.3 8.7zM441.8 183.5c-5.3 0-9.7-4.5-9.7-14.1s4.4-14 9.7-14c5.3 0 9.6 4.5 9.6 14 0 9.6-4.4 14.1-9.6 14.1zm0-22.8c-1.9 0-3.5 2.9-3.5 8.7 0 5.9 1.6 8.7 3.5 8.7s3.5-2.8 3.5-8.7c0-5.9-1.6-8.7-3.5-8.7zM470.3 183.2c-2.6 0-4.5-.5-6-1.3l-.5-5.5c1.7 1.2 3.9 2.1 6 2.1 1.1 0 1.8-.6 1.8-1.3 0-.8-.6-1.1-1.7-1.5-3.7-1-5.8-2.9-5.8-6.2 0-3.7 3-6.1 7.1-6.1 2.4 0 4.7.6 5.6 1.1l-1.1 4.5c-.9-.5-2.4-1.1-3.9-1.1-1 0-1.7.5-1.7 1.2s.5 1.1 1.7 1.4c4.3 1.1 6 3.3 6 6.5 0 3.3-2.4 6.2-7.5 6.2zM497.9 172.2l-2.7 2.8h-9.3c.3 1.6 2.4 3.3 5.6 3.3 2 0 4-.6 5.3-1.4l-.6 5.3c-1.4.8-3.6 1.3-6 1.3-5.8 0-10.5-4-10.5-10.2 0-6.1 4.5-10 9.9-10 5.3 0 8.5 3.7 8.5 7.6-.1.3-.1 1-.2 1.3zm-8.4-4.4c-1.8 0-3.3 1.4-3.7 3.1h6.4v-.4c.1-1.3-1.1-2.7-2.7-2.7zM515.2 169.9c-1.3-.8-2.6-1.2-4.1-1.2-2.7 0-4.8 1.9-4.8 4.7 0 2.7 2.1 4.7 5 4.7 1.6 0 2.8-.3 4.2-1l-.5 5.3c-1.3.6-2.9.9-4.7.9-5.3 0-10.3-3.8-10.3-9.9 0-6.2 5-10 10.2-10 2.5 0 4.6.5 6.3 1.4l-1.3 5.1zM528.4 183.4c-5.8 0-10.4-4.1-10.4-10.1s4.6-10.1 10.4-10.1c5.7 0 10.4 4.1 10.4 10.1-.1 6-4.7 10.1-10.4 10.1zm0-14.9c-2.3 0-4.3 2-4.3 4.8s2 4.8 4.3 4.8 4.3-2 4.3-4.8c-.1-2.7-2.1-4.8-4.3-4.8zM553.7 182.8v-11.7c0-1.4-.9-2.6-2.8-2.6-1.8 0-3 1.2-3 2.7v11.6h-6.2v-19h5.7v2.6c.8-2 2.7-3.2 5.8-3.2 4.2 0 6.7 2.4 6.7 6.4v13.2h-6.2zM577.9 182.8v-2.4c-1 1.9-3.2 2.9-5.9 2.9-4.7 0-9.2-3.5-9.2-10 0-6.1 4.4-10.1 9.7-10.1 2 0 4.1.7 4.8 1.3v-11.6h6v29.9h-5.4zm-.6-12.4c-.6-.8-1.8-1.7-3.7-1.7-2.7 0-4.6 2.1-4.6 4.8s1.9 4.8 4.6 4.8c1.8 0 3.1-1 3.7-2v-5.9zM593.2 183.2c-2.6 0-4.5-.5-6-1.3l-.5-5.5c1.7 1.2 3.9 2.1 6 2.1 1.1 0 1.8-.6 1.8-1.3 0-.8-.6-1.1-1.7-1.5-3.7-1-5.8-2.9-5.8-6.2 0-3.7 3-6.1 7.1-6.1 2.4 0 4.7.6 5.6 1.1l-1 4.5c-.9-.5-2.4-1.1-3.9-1.1-1 0-1.7.5-1.7 1.2s.5 1.1 1.7 1.4c4.3 1.1 6 3.3 6 6.5-.1 3.3-2.4 6.2-7.6 6.2zM606.6 183.4c-1.1 0-3.5-2.4-3.5-3.5s2.4-3.4 3.5-3.4 3.5 2.4 3.5 3.4c-.1 1.2-2.4 3.5-3.5 3.5z"/></g></svg>