<svg id="Layer_1" xmlns="http://www.w3.org/2000/svg" viewBox="0 0 970 250"><style>.st0{fill:#3abfef}</style><path class="st0" d="M725.3 142.9c-9 0-16.2 7.3-16.2 16.2v16c0 9 7.3 16.2 16.2 16.2h190.8c9 0 16.2-7.3 16.2-16.2v-16c0-9-7.3-16.2-16.2-16.2H725.3z"/><path d="M735.2 168.5v-2.6h5.6v7.3h-1.5l-.5-1.6c-1 1.2-2.1 1.8-3.7 1.8-4 0-5.7-3.3-5.7-6.9 0-3.7 1.8-7.2 6-7.2 3 0 5 1.8 5.4 4.7l-3 .4c-.1-1.4-.9-2.5-2.4-2.5-2.3 0-2.6 2.9-2.6 4.6 0 1.8.5 4.3 2.7 4.3 1.4 0 2.4-1 2.3-2.4h-2.6zM744.2 171.3c-1-1.4-1.4-3.2-1.4-4.9 0-3.6 1.8-7 5.9-7 1.8 0 3.3.6 4.4 2.1 1 1.3 1.5 3.3 1.5 4.9 0 1.6-.4 3.5-1.3 4.8-1.1 1.6-2.7 2.3-4.5 2.3s-3.5-.7-4.6-2.2zm2.4-7.8c-.3.8-.4 2-.4 2.9 0 1.7.3 4.5 2.5 4.5 1.1 0 1.7-.5 2.1-1.6.3-.8.4-2 .4-2.9 0-1-.1-2.2-.5-3.1-.4-.9-1-1.3-2-1.3-1.1 0-1.7.5-2.1 1.5zM771.7 162.3h-3.4v11h-3.2v-11h-3.5v-2.7h10.1v2.7zM774.2 171.3c-1-1.4-1.4-3.2-1.4-4.9 0-3.6 1.8-7 5.9-7 1.8 0 3.3.6 4.4 2.1 1 1.3 1.5 3.3 1.5 4.9 0 1.6-.4 3.5-1.3 4.8-1.1 1.6-2.7 2.3-4.5 2.3s-3.5-.7-4.6-2.2zm2.4-7.8c-.3.8-.4 2-.4 2.9 0 1.7.3 4.5 2.5 4.5 1.1 0 1.7-.5 2.1-1.6.3-.8.4-2 .4-2.9 0-1-.1-2.2-.5-3.1-.4-.9-1-1.3-2-1.3-1.1 0-1.7.5-2.1 1.5zM800.3 164.9c0-1.5-.5-2.9-2.3-2.9-2.3 0-2.5 3-2.5 4.6 0 1.9.2 4.3 2.6 4.3 1.5 0 2.2-1.3 2.4-2.6l3.1.2c-.3 3.1-2.5 5-5.7 5-4.1 0-6.1-3.3-6.1-7.1s2-7.1 6.2-7.1c3.4 0 5.2 2 5.6 5.3l-3.3.3zM817.1 173.3h-3.5l-.8-2.8h-4.4l-.9 2.8h-2.8l4.4-13.7h3.7l4.3 13.7zm-5.1-5.4l-1.5-4.8-1.5 4.8h3zM827.2 170.5v2.7h-8.7v-13.7h3.2v11h5.5zM836.3 164.9c0-1.5-.5-2.9-2.3-2.9-2.3 0-2.5 3-2.5 4.6 0 1.9.2 4.3 2.6 4.3 1.5 0 2.2-1.3 2.4-2.6l3.1.2c-.3 3.1-2.5 5-5.7 5-4.1 0-6.1-3.3-6.1-7.1s2-7.1 6.2-7.1c3.4 0 5.2 2 5.6 5.3l-3.3.3zM852.5 167.8c0 1.5 0 3.1-1.1 4.2s-2.7 1.4-4.2 1.4c-1.4 0-3.1-.2-4.2-1.2-1.4-1.2-1.4-2.8-1.4-4.4v-8.3h3.5v8.3c0 .6 0 1.6.3 2.1.4.7 1.3.9 2.1.9.6 0 1.6-.2 2-.7.4-.6.4-1.6.4-2.3v-8.3h2.8v8.3zM863.6 170.5v2.7h-8.7v-13.7h3.2v11h5.5zM876.3 173.3h-3.5l-.8-2.8h-4.4l-.9 2.8h-2.8l4.4-13.7h3.7l4.3 13.7zm-5.1-5.4l-1.5-4.8-1.5 4.8h3zM885.6 162.3h-3.4v11H879v-11h-3.5v-2.7h10.1v2.7zM888.1 171.3c-1-1.4-1.4-3.2-1.4-4.9 0-3.6 1.8-7 5.9-7 1.8 0 3.3.6 4.4 2.1 1 1.3 1.5 3.3 1.5 4.9 0 1.6-.4 3.5-1.3 4.8-1.1 1.6-2.7 2.3-4.5 2.3s-3.5-.7-4.6-2.2zm2.4-7.8c-.3.8-.4 2-.4 2.9 0 1.7.3 4.5 2.5 4.5 1.1 0 1.7-.5 2.1-1.6.3-.8.4-2 .4-2.9 0-1-.1-2.2-.5-3.1-.4-.9-1-1.3-2-1.3-1.1 0-1.7.5-2.1 1.5zM903.7 173.3h-3.2v-13.7h5.8c1.2 0 2.5 0 3.5.7 1.1.7 1.7 2.1 1.7 3.4 0 1.6-.9 3-2.4 3.5l2.5 6.1H908l-2.1-5.4h-2.3v5.4zm0-7.8h1.8c.7 0 1.4.1 2-.3.5-.3.8-1 .8-1.6 0-.5-.3-1.1-.8-1.4-.5-.3-1.5-.3-2.1-.3h-1.7v3.6z"/></svg>