<svg id="Layer_1" xmlns="http://www.w3.org/2000/svg" xmlns:xlink="http://www.w3.org/1999/xlink" viewBox="0 0 970 250"><style>.st0,.st1{fill:#fff}.st1{clip-path:url(#SVGID_2_)}.st2{clip-path:url(#SVGID_4_);fill:url(#SVGID_5_)}.st3{clip-path:url(#SVGID_7_);fill:url(#SVGID_8_)}.st4{clip-path:url(#SVGID_10_);fill:url(#SVGID_11_)}</style><path class="st0" d="M847 38v6.3h-11.2v30.4h-7.1V44.3h-11.2V38H847zm3 36.8h7.1V38H850v36.8zm43.8 0h-7.3l-3.8-9h-12.5l-3.7 9h-7.1l15.7-37.3h3.1l15.6 37.3zm34.5 0H921l-3.8-9h-12.5l-3.7 9h-7.1l15.7-37.3h3.1l15.6 37.3zm-48-15.1l-3.8-9.2-3.8 9.2h7.6zm34.4 0l-3.8-9.2-3.8 9.2h7.6z"/><defs><path id="SVGID_1_" d="M759.6 29.2h172.7v58.1H759.6z"/></defs><clipPath id="SVGID_2_"><use xlink:href="#SVGID_1_" overflow="visible"/></clipPath><path class="st1" d="M791.7 77.2c3.2 0 6-1.3 8.1-3.4l8.7-8.7c2-2 3.3-4.8 3.3-7.9V30.1h-27.1c-3.2 0-6 1.3-8.1 3.4l-8.7 8.7c-2 2-3.3 4.8-3.3 7.9v27.1h27.1z"/><defs><path id="SVGID_3_" d="M787.8 32.4c-4.9 0-8.9 4-8.9 8.9v3h18.5v18.5h3c4.9 0 8.9-4 8.9-8.9V32.4h-21.5z"/></defs><clipPath id="SVGID_4_"><use xlink:href="#SVGID_3_" overflow="visible"/></clipPath><linearGradient id="SVGID_5_" gradientUnits="userSpaceOnUse" x1="1" y1="251.047" x2="2" y2="251.047" gradientTransform="scale(29.9383 -29.9383) rotate(45 318.865 155.199)"><stop offset="0" stop-color="#9edcf9"/><stop offset=".1" stop-color="#9edcf9"/><stop offset=".9" stop-color="#079dd9"/><stop offset="1" stop-color="#079dd9"/></linearGradient><path class="st2" d="M763.7 47.7l30.4-30.5 30.4 30.5-30.4 30.4z"/><g><defs><path id="SVGID_6_" d="M800.4 65.3h-23.9l-9.5 9.5h24.7c2.4 0 4.7-1 6.4-2.7l8-8-.2-.2c-1.7.9-3.5 1.4-5.5 1.4"/></defs><clipPath id="SVGID_7_"><use xlink:href="#SVGID_6_" overflow="visible"/></clipPath><linearGradient id="SVGID_8_" gradientUnits="userSpaceOnUse" x1=".974" y1="251.026" x2="1.974" y2="251.026" gradientTransform="matrix(39.0298 0 0 -39.0298 728.965 9866.802)"><stop offset="0" stop-color="#17b0e6"/><stop offset=".114" stop-color="#18ace2"/><stop offset=".264" stop-color="#16a1d7"/><stop offset=".433" stop-color="#1290c7"/><stop offset=".617" stop-color="#0d7ab4"/><stop offset=".81" stop-color="#00619f"/><stop offset=".9" stop-color="#005595"/><stop offset="1" stop-color="#005595"/></linearGradient><path class="st3" d="M767 63.9h39v10.9h-39z"/></g><g><defs><path id="SVGID_9_" d="M769.7 43.7c-1.7 1.7-2.7 4-2.7 6.4v24.7l9.5-9.5V41.4c0-2 .5-3.8 1.4-5.4l-.2-.2-8 7.9z"/></defs><clipPath id="SVGID_10_"><use xlink:href="#SVGID_9_" overflow="visible"/></clipPath><linearGradient id="SVGID_11_" gradientUnits="userSpaceOnUse" x1="1.026" y1="251.026" x2="2.026" y2="251.026" gradientTransform="matrix(0 -39.0304 -39.0304 0 10570.055 114.8)"><stop offset="0" stop-color="#0582be"/><stop offset=".219" stop-color="#0478b4"/><stop offset=".653" stop-color="#00609e"/><stop offset=".85" stop-color="#005595"/><stop offset="1" stop-color="#005595"/></linearGradient><path class="st4" d="M767 35.7h10.9v39H767z"/></g></svg>