<svg id="Layer_1" xmlns="http://www.w3.org/2000/svg" width="320" height="50" viewBox="0 0 320 50"><style>.st0{fill:#231f20}</style><path class="st0" d="M294.983 46.532c-.695 0-1.301-.486-1.301-1.386 0-1.02.749-2.11 1.774-2.639l.54.252c-.72.36-1.283.869-1.565 1.535a.812.812 0 0 1 .594-.246c.731 0 1.229.546 1.229 1.235.001.721-.539 1.249-1.271 1.249zm.006-1.979c-.3 0-.636.114-.743.534-.006.065-.006.132-.006.197 0 .432.359.792.755.792s.708-.306.708-.762c0-.431-.294-.761-.714-.761zM298.151 46.538c-.695 0-1.307-.636-1.307-1.991 0-1.344.611-1.985 1.307-1.985.684 0 1.308.642 1.308 1.985 0 1.355-.624 1.991-1.308 1.991zm0-3.49c-.39 0-.755.42-.755 1.499 0 1.092.365 1.505.755 1.505.384 0 .756-.413.756-1.505 0-1.079-.372-1.499-.756-1.499zM300.989 46.532c-.294 0-.569-.066-.726-.15l-.06-.54c.239.145.491.21.755.21.444 0 .822-.281.822-.762 0-.491-.378-.785-.804-.785-.282 0-.48.036-.66.102l.061-1.967h1.673l-.103.468h-1.049l-.024.93c.048-.006.108-.012.156-.012.714 0 1.302.479 1.302 1.271.001.659-.461 1.235-1.343 1.235zM303.588 46.586l-.54-.252c.731-.366 1.301-.863 1.577-1.535a.828.828 0 0 1-.605.246c-.731 0-1.229-.546-1.229-1.235 0-.72.54-1.248 1.271-1.248.695 0 1.301.486 1.301 1.386-.001 1.019-.75 2.11-1.775 2.638zm.461-3.532c-.396 0-.707.306-.707.762 0 .432.294.762.714.762.306 0 .635-.126.743-.546.006-.061.006-.12.006-.186 0-.433-.36-.792-.756-.792zM306.678 46.466h-.588l1.451-3.358h-1.757v-.468h2.536l-1.642 3.826zM309.504 46.586l-.54-.252c.731-.366 1.301-.863 1.577-1.535a.828.828 0 0 1-.605.246c-.731 0-1.229-.546-1.229-1.235 0-.72.54-1.248 1.271-1.248.695 0 1.301.486 1.301 1.386-.001 1.019-.75 2.11-1.775 2.638zm.461-3.532c-.396 0-.707.306-.707.762 0 .432.294.762.714.762.306 0 .635-.126.743-.546.006-.061.006-.12.006-.186 0-.433-.36-.792-.756-.792zM313.115 46.532c-.486 0-.966-.187-1.164-.342v-3.994h.546v1.715c.103-.107.456-.228.75-.228.785 0 1.361.588 1.361 1.403 0 .846-.576 1.446-1.493 1.446zm.078-2.357c-.366 0-.612.174-.696.271v1.475c.09.061.348.145.558.145.63 0 1.002-.384 1.002-.966 0-.541-.378-.925-.864-.925z"/></svg>