<svg xmlns="http://www.w3.org/2000/svg" width="320" height="50" viewBox="0 0 320 50"><style>.st0{fill:url(#SVGID_1_)}.st1{fill:#231f20}</style><g id="Layer_2"><g id="Layer_2_1_"><g id="Layer_3"><g id="Layer_2_2_"><radialGradient id="SVGID_1_" cx="667.047" cy="-2697.706" r="63.316" gradientTransform="matrix(2.6752 0 0 -.1631 -1663.407 -414.545)" gradientUnits="userSpaceOnUse"><stop offset=".272" stop-color="#00c2ff" stop-opacity=".9"/><stop offset=".76" stop-color="#00c2ff" stop-opacity="0"/></radialGradient><path class="st0" d="M-24.955-3.587H382.5v69.479H-24.955z"/></g></g></g></g><g id="Layer_1"><path class="st1" d="M23.247 28.744l-2.396-3.517h-.574v3.517H18.19v-8.938h3.264c1.527 0 2.886 1.023 2.886 2.704 0 1.037-.617 1.891-1.373 2.241l2.844 3.993h-2.564zm-2.116-7.186h-.854v2.003h.854c.561 0 1.121-.309 1.121-.995 0-.672-.56-1.008-1.121-1.008zM31.787 25.214l-.911.925h-3.109c.098.519.798 1.106 1.877 1.106.658 0 1.331-.196 1.751-.476l-.196 1.765c-.476.252-1.205.42-2.017.42-1.933 0-3.488-1.345-3.488-3.418 0-2.045 1.485-3.348 3.306-3.348 1.765 0 2.844 1.219 2.844 2.536-.001.153-.03.364-.057.49zm-2.788-1.485c-.602 0-1.106.462-1.232 1.037h2.143c0-.042.014-.084.014-.14a.928.928 0 0 0-.925-.897zM37.176 24.079h-1.653v2.354c0 .547.294.771.84.771.238 0 .378-.014.532-.084l-.182 1.555c-.196.099-.546.168-.953.168-1.429 0-2.283-.756-2.283-2.017V24.08h-1.065v-1.681h1.065V21.04l2.045-.743v2.102h2.045l-.391 1.68zM39.372 21.53c-.364 0-1.107-.742-1.107-1.106s.743-1.093 1.107-1.093 1.106.729 1.106 1.093-.742 1.106-1.106 1.106zm-1.037 7.214v-6.346h2.073v6.346h-2.073zM45.715 24.583a1.53 1.53 0 0 0-.616-.154c-.658 0-1.261.35-1.261 1.359v2.956h-2.059v-6.346h2.031v1.415h.014c.21-.995.952-1.527 1.807-1.527.196 0 .435.028.588.084l-.504 2.213zM52.619 25.214l-.911.925h-3.109c.098.519.798 1.106 1.877 1.106.658 0 1.331-.196 1.751-.476l-.196 1.765c-.476.252-1.205.42-2.017.42-1.933 0-3.488-1.345-3.488-3.418 0-2.045 1.485-3.348 3.306-3.348 1.765 0 2.844 1.219 2.844 2.536-.001.153-.03.364-.057.49zm-2.788-1.485c-.602 0-1.106.462-1.232 1.037h2.143c0-.042.014-.084.014-.14a.928.928 0 0 0-.925-.897zM61.538 28.744V24.85c0-.462-.224-.869-.896-.869-.658 0-.953.393-.953.896v3.867H57.63V24.85c0-.462-.224-.869-.896-.869-.658 0-.953.393-.953.896v3.867h-2.059v-6.346h1.905v.854h.014c.252-.672.883-1.05 1.877-1.05.91 0 1.597.364 1.877 1.037.266-.616 1.008-1.037 1.961-1.037 1.443 0 2.241.784 2.241 2.129v4.413h-2.059zM70.749 25.214l-.911.925h-3.109c.098.519.798 1.106 1.877 1.106.658 0 1.331-.196 1.751-.476l-.196 1.765c-.476.252-1.205.42-2.017.42-1.933 0-3.488-1.345-3.488-3.418 0-2.045 1.485-3.348 3.306-3.348 1.765 0 2.844 1.219 2.844 2.536-.001.153-.03.364-.057.49zm-2.788-1.485c-.602 0-1.106.462-1.232 1.037h2.143c0-.042.014-.084.014-.14a.928.928 0 0 0-.925-.897zM75.857 28.744V24.85c0-.462-.308-.869-.938-.869-.616 0-1.009.393-1.009.896v3.867h-2.059v-6.346h1.891v.854h.014c.252-.672.91-1.05 1.933-1.05 1.387 0 2.227.784 2.227 2.129v4.413h-2.059zM83.403 24.079H81.75v2.354c0 .547.294.771.84.771.238 0 .378-.014.532-.084l-.182 1.555c-.196.099-.546.168-.953.168-1.429 0-2.283-.756-2.283-2.017V24.08h-1.065v-1.681h1.065V21.04l2.045-.743v2.102h2.045l-.391 1.68zM92.139 29.024c-.378-.084-.812-.378-.98-.841-.28.519-.882.771-1.653.771-1.121 0-2.115-.784-2.115-2.101 0-1.164.911-1.948 2.171-2.074l1.261-.126v-.21c0-.378-.308-.63-.994-.63-.617 0-1.303.196-1.765.49l-.364-1.555c.518-.336 1.387-.561 2.227-.561 1.681 0 2.872.771 2.872 2.297v2.073c0 .743.28 1.135.771 1.317l-1.431 1.15zm-1.317-3.054l-.771.07c-.532.042-.77.421-.77.799 0 .337.252.616.644.616.49 0 .896-.378.896-.925l.001-.56zM99 24.443a2.454 2.454 0 0 0-1.359-.406c-.896 0-1.611.645-1.611 1.569 0 .911.714 1.57 1.653 1.57.532 0 .938-.112 1.387-.351l-.182 1.751c-.42.196-.966.308-1.555.308-1.779 0-3.432-1.261-3.432-3.306 0-2.073 1.667-3.32 3.39-3.32.84 0 1.527.168 2.087.476L99 24.443zM105.117 24.443a2.454 2.454 0 0 0-1.359-.406c-.896 0-1.611.645-1.611 1.569 0 .911.714 1.57 1.653 1.57.532 0 .938-.112 1.387-.351l-.182 1.751c-.42.196-.966.308-1.555.308-1.779 0-3.432-1.261-3.432-3.306 0-2.073 1.667-3.32 3.39-3.32.84 0 1.527.168 2.087.476l-.378 1.709zM109.596 28.94c-1.919 0-3.459-1.359-3.459-3.376s1.541-3.376 3.459-3.376c1.905 0 3.46 1.359 3.46 3.376s-1.555 3.376-3.46 3.376zm0-4.959c-.77 0-1.429.672-1.429 1.611s.659 1.611 1.429 1.611c.756 0 1.429-.673 1.429-1.611s-.672-1.611-1.429-1.611zM118.263 28.744v-.868h-.014c-.252.672-.924 1.05-1.947 1.05-1.387 0-2.228-.77-2.228-2.114v-4.413h2.059v3.895c0 .462.322.868.953.868.616 0 .995-.406.995-.91v-3.853h2.059v6.346l-1.877-.001zM125.486 28.744V24.85c0-.462-.308-.869-.938-.869-.616 0-1.009.393-1.009.896v3.867h-2.059v-6.346h1.891v.854h.014c.252-.672.91-1.05 1.933-1.05 1.387 0 2.227.784 2.227 2.129v4.413h-2.059zM133.032 24.079h-1.653v2.354c0 .547.294.771.84.771.238 0 .378-.014.532-.084l-.182 1.555c-.196.099-.546.168-.953.168-1.429 0-2.283-.756-2.283-2.017V24.08h-1.065v-1.681h1.065V21.04l2.045-.743v2.102h2.045l-.391 1.68zM136.125 28.884c-.869 0-1.499-.182-2.017-.448l-.182-1.82c.561.392 1.289.687 1.989.687.378 0 .616-.196.616-.435 0-.267-.21-.379-.574-.49-1.219-.351-1.947-.967-1.947-2.074 0-1.247 1.009-2.045 2.381-2.045.785 0 1.555.21 1.877.378l-.35 1.513c-.308-.168-.812-.35-1.317-.35-.336 0-.56.154-.56.406 0 .238.168.364.56.462 1.429.378 2.017 1.093 2.017 2.158 0 1.077-.784 2.058-2.493 2.058zM149.764 28.8h-1.415l-.854-2.521c-.126-.392-.252-.84-.378-1.317h-.028c-.098.477-.224.938-.35 1.303l-.854 2.535h-1.345l-2.213-6.401h1.877l.785 2.409c.112.364.238.812.308 1.219h.028c.07-.393.182-.854.308-1.219l.798-2.409h1.555l.798 2.395c.126.392.21.827.294 1.233h.028c.084-.406.196-.854.322-1.233l.798-2.395h1.751l-2.213 6.401zM155.684 28.94c-1.919 0-3.459-1.359-3.459-3.376s1.541-3.376 3.459-3.376c1.905 0 3.46 1.359 3.46 3.376s-1.555 3.376-3.46 3.376zm0-4.959c-.77 0-1.429.672-1.429 1.611s.659 1.611 1.429 1.611c.757 0 1.429-.673 1.429-1.611s-.673-1.611-1.429-1.611zM164.126 24.583a1.53 1.53 0 0 0-.616-.154c-.659 0-1.261.35-1.261 1.359v2.956h-2.06v-6.346h2.031v1.415h.014c.21-.995.953-1.527 1.808-1.527.195 0 .434.028.588.084l-.504 2.213zM169.292 28.744l-1.877-2.563h-.015v2.563h-2.031V18.77h2.031v6.206h.015l1.904-2.577h2.241l-2.227 3.082 2.354 3.264h-2.395v-.001zM178.587 28.926c-1.345 0-2.437-.462-3.054-.938V18.77h1.989v3.853c.267-.21.938-.42 1.597-.42 1.751 0 3.194 1.247 3.194 3.25 0 1.96-1.247 3.473-3.726 3.473zm.169-4.917c-.589 0-1.037.28-1.233.49v2.423c.21.154.645.309 1.037.309 1.051 0 1.709-.715 1.709-1.64 0-.882-.617-1.582-1.513-1.582zM189.172 25.214l-.91.925h-3.109c.098.519.798 1.106 1.877 1.106.658 0 1.331-.196 1.751-.476l-.196 1.765c-.477.252-1.205.42-2.017.42-1.934 0-3.488-1.345-3.488-3.418 0-2.045 1.484-3.348 3.306-3.348 1.765 0 2.844 1.219 2.844 2.536-.001.153-.03.364-.058.49zm-2.787-1.485c-.603 0-1.106.462-1.232 1.037h2.143c0-.042.015-.084.015-.14a.93.93 0 0 0-.926-.897zM194.562 24.079h-1.653v2.354c0 .547.294.771.841.771.238 0 .378-.014.532-.084l-.183 1.555c-.196.099-.546.168-.952.168-1.429 0-2.283-.756-2.283-2.017V24.08H189.8v-1.681h1.064V21.04l2.045-.743v2.102h2.045l-.392 1.68zM200.162 24.079h-1.653v2.354c0 .547.294.771.841.771.238 0 .378-.014.532-.084l-.183 1.555c-.196.099-.546.168-.952.168-1.429 0-2.283-.756-2.283-2.017V24.08H195.4v-1.681h1.064V21.04l2.045-.743v2.102h2.045l-.392 1.68zM206.966 25.214l-.91.925h-3.109c.098.519.798 1.106 1.877 1.106.658 0 1.331-.196 1.751-.476l-.196 1.765c-.477.252-1.205.42-2.017.42-1.934 0-3.488-1.345-3.488-3.418 0-2.045 1.484-3.348 3.306-3.348 1.765 0 2.844 1.219 2.844 2.536a2.8 2.8 0 0 1-.058.49zm-2.787-1.485c-.603 0-1.106.462-1.232 1.037h2.143c0-.042.015-.084.015-.14a.93.93 0 0 0-.926-.897zM212.006 24.583a1.53 1.53 0 0 0-.616-.154c-.659 0-1.261.35-1.261 1.359v2.956h-2.06v-6.346h2.031v1.415h.014c.21-.995.953-1.527 1.808-1.527.195 0 .434.028.588.084l-.504 2.213z"/></g></svg>