<svg id="Layer_1" xmlns="http://www.w3.org/2000/svg" viewBox="0 0 728 90"><style>.st0{fill:#fff}.st1{stroke:#fbfbfb;stroke-width:.158;stroke-miterlimit:10}.st1,.st2{fill:none}</style><path class="st0" d="M486.3 10.9h.2c0 .5.1.7.3.7l1.5-.1c0-.4.2-.5.5-.5.3.1.5.2.6.2l-.2.3h.2c.5-.4 1.1-.6 1.6-.6v.5c-.5 0-.7.2-.7.4v.2c.6 0 1.5.2 2.7.7l2.3-.1c.2 0 .4-.2.5-.6.4.2.8.4 1.1.7l2.5-.5h.5c1.2.4 1.9.7 1.9 1-.2 0-.4.2-.7.7v.2l.2.9.9-.2 1.1.6c.2.6.2 1 .2 1-.2.1-.3.2-.3.4l.8.8-.7 1.4v.2h.2l.7-.6.2.3v.3l-.7.7c.1.2.2.4.3.7-.4.1-.6.5-.5 1.4.2.9 1 1.4 2.4 1.3.6.6 1 1.1 1 1.5-.6.3-1 .7-1 1.1.9.4 1.4.7 1.6.7v.2c0 .2-.2.4-.7.4l.2 1.2v.3c0 .2-.1.4-.4.4l.2.3v.2c0 .3-.1.7-.3 1 .5 0 .8.2.8.7h.4l.7-.7h.2c.3 0 .4.2.4.5-.1.8-.3 1.2-.5 1.2l.2.3v.3c0 .2-.1.4-.3.4l.4 1.2-.2.3.4 1.9.3-.2h.4v.5c-.4 0-.6.2-.5.5 0 .2.4.6 1.1 1.2 0 .2-.8.5-2.3 1.2-.6.9-.9 1.4-.9 1.6l.2.3c-.1.5-.2.7-.3.7.1.2.2.4.2.5-.2.5-.3.7-.5.7-.4-.4-.6-.6-.6-.9.1-.2.2-.4.2-.5-.2 0-.4-.2-.5-.5.2 0 .3-.2.3-.4s-.4-.3-1.1-.3v-.7c.6-.6 1-1.1 1-1.6 1-.4 1.6-.9 1.9-1.3v-.2c-.3 0-.5-.1-.8-.5-.7.7-1.4 1.2-1.9 1.3 0 .3-.1.5-.5.5v.3l.4.5c-.3.6-.5.9-.7.9 0 .7.5 1.3 1.4 1.9v.3l-2.3.8-.5-.3c-1.9.3-3 .5-3.4.9h-.2c-.1 0-.2-.1-.2-.2l-.4.2-1.1-.1c0 .2-.2.3-.5.5h-.4c0-.1-.1-.6-.4-1.4v-.2l.2-.3c-.1 0-.2-.1-.2-.2 1.2-1.1 1.8-1.7 1.7-1.9l-.4-.2h-.3l-.5.3h-.2c-.2 0-.4-.1-.4-.3.2 0 .3-.1.3-.3-.1 0-.2-.1-.2-.2l.3-.2-.2-.3v-.4l.1-.9c-.1 0-.2-.1-.2-.2l.3-.2-.2-.3v-.3c-.1-.8.3-1.3 1.2-1.3v.5l-.4-.2.2-.3v-.3l-.9.2-.2-.3c-.7.3-1.2.4-1.5.4l-.2-1c.1-.4.4-1 1.2-1.7 0 .1.1.2.2.2 0-.3.1-.6.3-.9-.3 0-.5-.1-.7-.2 0 .2-.1.4-.3.4h-.4c-.2 0-.3-.1-.3-.3l-.1-1c.2-.5.5-.7.9-.7l-1.4-1.3c0-.3-.1-.5-.2-.7.1-.2.1-.4.1-.5v-.2h-.2c0 .4-.3.7-.9 1.1H490.1c-.6.2-.9.3-.9.5v.2l.4.5.9-.2 1.8-.1.5-.3c.5.5.8 1 .8 1.5-.4 0-.7.5-1 1.3l-.3.2h-.2c-.3 0-.4-.3-.5-.9h.4c0 .6-.1.9-.3.9l.2.3c-.3 1-.6 1.4-1 1.4h-.3l.2.9v.2h-.3c-.2 0-.4-.1-.4-.3l.2-.9c-.7.7-1.5 1.1-2.4 1.2v.3c.4 0 .6.1.6.3l.7-.4c.4.2.8.3 1.1.3v.3c0 .2-.2.3-.5.5l.2.3c-.3.6-.5 1.2-.6 1.6.1.2.2.4.2.5l-.7.5c-.2 0-.4-.1-.4-.3v-.9l-.7-.2-1 1.4c.1 0 .7.4 1.7 1.2l-1 2.7c-1.3.6-1.9 1-1.9 1.1v.2c.3 0 .5.1.5.3 0 .2-.2.4-.7.4v.7c.3.3.6 1.1.9 2.4.2 0 .7-.4 1.6-1.3h.2l.6.3h.2c1.4-.1 2.6-.5 3.6-1.2.4.2.7.3.9.3 0-.3.1-.4.3-.4.1 0 .2.1.2.2.8-.4 1.3-.6 1.6-.6l.7.7 1.1-.7h.3v.7h.2c.7-.6 1-1.1 1-1.4-.1 0-.2-.1-.2-.2h.2l.9.5.9-.2c1 0 1.6-.1 1.8-.1 0-.3.1-.5.3-.5l.8.9h.2c1.9-.3 3-.6 3.4-.9l.2.3-.2.4h.3c0-.3.2-.6.7-1.1l-.2-.3v-.2c.2-.5.5-.7.9-.7l-.2-.3c.8-1.4 1.5-2.2 2.3-2.2l.3.2-.2.4c0 .2.1.5.4 1-.2.1-.5.2-.9.2v.9l-.2.9 1.7.8h-.2c.3.7.4 1.2.4 1.4 0 .3-.1.8-.5 1.6l.2 1h-.2l.2.3v.3c0 .3-.1.5-.2.7.1.2.2.4.2.5-1.8.9-2.7 1.4-2.8 1.4-.2-.1-.4-.2-.6-.2v.9l.9.1c.2 0 .9-.6 2.1-1.7h.3c.6.2.9.4.9.7l-.5.9c.6 0 .9.2.9.5v.7c-.5.5-.7.9-.7.9l.5.7c-.1.2-.1.4-.1.7h.4c0-.5.1-.7.3-.7h.2c.5.4.9.7 1.1.7v.3c0 .2-.1.3-.3.3h-.3l-.8-.5h-.2v.3c.9.5 1.3.9 1.3 1.2-.1.2-.2.4-.2.5.2 0 .4.2.8.7v.2c0 .2-.3.5-.9.7 0-.2-.2-.3-.4-.3-.2.1-.3.2-.3.4v.1c1.5.9 2.4 1.5 2.6 1.8v.2c-.9.8-1.4 1.1-1.6 1.1v.3h.7l.6-.3h.2v.3h-.4v.2l.7.7c-.2.1-.3.2-.3.3.3 0 .5.1.5.3l-1.6.9c0 .1 0 .2-.2.2h.3l-1.1-.5-.2.3c.2 0 .4.2.6.5l-.7.7v.3c.3 0 .5.3.5.9h.4l-.2-.3c.9-.5 1.3-.9 1.3-1.1.4-.3.9-.4 1.4-.4h.4c.4.1.6.4.6 1-.3.3-.9.6-1.8 1v.3c.1.2.2.3.4.3.5-.4.8-.6 1-.6 0 .1.1.2.2.2l-.2.3v.3c.4 0 .6.1.6.3-.1.2-.2.4-.2.5.2-.1.5-.2.9-.2l.2.3c-.2.5-.3.7-.5.7h-.6c-.3-.2-.5-.3-.7-.3-.3.1-.4.2-.5.2 0-.1-.1-.2-.2-.2-.6.4-.9.9-.9 1.4.6.5 1.2.8 1.7.8.1-.3.5-.5 1.4-.6.2 0 .4.2.6.5v.2c0 .2-.2.3-.5.3v.5c1.5.6 2.3 1.6 2.3 2.9l.4.5v.3h-.2c-.2 0-.4-.2-.4-.5h-.2v.3h-.4l-.2-.9c-.7 0-1.1.3-1.2.9.3.8.7 1.5 1.2 2.1-.1 0-.6.1-1.5.4h-.2c-.2 0-.5-.3-1-.9l.2-.9c-.2 0-.4-.1-.7-.3h-.5c-.2 0-1.2.3-3.1.9v.7c.6.5.9.8.9.9-.4.8-1 1.3-1.7 1.3l.2-.3v-.5h-.3c0 .6-.1.9-.3.9h-.2c-.3 0-.5-.3-.8-.8 1.1-.4 1.6-.6 1.6-.8-.3-.7-.5-1-.8-1-.1 0-.4.4-1 1.1l-.3-.2c-.1.3-.4.6-.9.9-.3-.3-.4-.6-.5-1h-1.2c0-.4-.7-1.2-1.9-2.4V77l.2-.4-1.3-4.1c-.5-.5-.9-.8-1.2-.9 0 .1-.1.2-.2.2-.1-.2-.2-.4-.2-.5 0-.4.6-.9 1.7-1.3-.1-.3-.3-.5-.4-.5-.2.1-.4.2-.5.2l-.2-.3c0-.2.4-.6 1.2-1.3v-.2c-.2-.5-.4-.7-.6-.7 0 .2-.1.4-.3.4-.2-.3-.4-.5-.4-.7l-.3.2h-.7v-.3c.9-.5 1.3-.8 1.3-.9v-.2l-.2-.3c.2-.2.2-.5.2-.7v.3l-.5.4-.2-.3c.1-.2.2-.4.2-.5l-1 1.6-.2-.3-.1-1.6-.4-.5c0-.3.5-.6 1.4-.8h.2v.3h.6c3.4-.8 5.1-1.4 5-2v-.2h-.2c0 .2-.3.5-.9.7-.5 0-.8-.3-.8-.9-3.2.4-5 .8-5.3 1.1h-.2c-.2 0-.5-.5-.8-1.7.5-.7.7-1.2.7-1.4l-.3-.2c0 .1-.1.2-.2.2-.1-.2-.2-.4-.2-.5 0-.4.2-.6.5-.6v-.2h-.4v.4c-.2-.1-.4-.2-.7-.2v-.3c0-.2.1-.3.3-.3h.2c.5.3.9.5 1.3.5l.2-.4h-.5v-.2l.2-.3h-.3v-.3h.9v-.2c-1.1-.1-1.8-.1-2-.1v-.5c0-.2.2-.3.7-.3l-.2-.3c0-.1.1-.2.2-.2 0-.1-.1-.2-.2-.2l.1-1.2v-.2c0-.2-.1-.3-.3-.3l-.5.7c.2 0 .2 0 .2.2l-.4.2h-.3c-.6-.4-1-.6-1.3-.6-.7.1-1.2.2-1.4.2v-.2c-.2 0-.5.3-1 .9h-.2c-.2 0-.2-.1-.2-.2l-.7.4c-1-.1-1.5-.5-1.5-1.2.1 0 .2-.1.2-.2l-.3-.2c-.4.9-.7 1.6-.7 2.1l.8.3c-.2.8-.5 1.2-.9 1.3L491 56v-.2l.3-.5c0-.2-.2-.3-.4-.3 0 .2-.2.4-.5.5-1.1-.2-1.7-.6-1.7-1.5 0-.8-.2-1.2-.6-1.2h-.4v.2c0 .2.2.5.5 1-.2 1.2-.4 1.8-.7 1.8h-.2c0-.5-.3-.7-.8-.7v-.5c.3-.5.5-1 .5-1.2l-1.1-.5c-.2 0-.5.3-.9.9-.5-.2-.8-.3-.8-.5-.4.1-.6.2-.7.2l-1.1-.1c0 .1-.1.2-.2.2 0-.2-.1-.3-.3-.3-.2.5-.6.8-1.1.8v.2l.3.5c.1 1.5-1.1 2.9-3.4 4.2-.2-.1-.5-.2-.7-.2v.2c.1.2.2.4.2.5l.5-.3h.3c.2 0 .4.2.6.5-.5 1-1 1.4-1.4 1.5v.9h.4V62c0 .2-.2.4-.5.5l-.3-.2c0 .4-.2.6-.7.6v1c-.7.6-1 1-1 1.3.1 0 .3 0 .5.1-.1.2-.2.4-.2.5l-.3-.2c.1 1.3-.6 2.4-2 3.3l.2.3c0 .6-1.1 2.5-3.4 5.7l-1.8-.1c0 .2-.1.4-.3.4h-.9c-.4-.2-1.7-.8-3.6-1.8-.5 0-1.4-.6-2.7-1.8-.8.1-1.6-.3-2.2-1.1L461 64c-.1-.2-.2-.4-.2-.5.3 0 .7-.8 1.2-2.3h.5l.4.2c-.1-2 .5-3 1.7-3 0-.1.1-.3.2-.5l-.3-1v-.3c.1-.5 1.2-1 3.3-1.6h.2v-.9h-.3c0 .5-.1.7-.3.7h-.3c-.2 0-.4-.2-.8-.7l.5-.4.4.2.2-.3-.4-.5v-.2c.5-.8 1.2-1.4 2.2-1.8h.7v.3c-.5 0-.7.2-.7.4h.5l1.3-.4v-.7h-.2c-.2.1-.4.2-.5.2 0-.3-.3-.5-.9-.5-.2.1-.4.2-.5.2l-.2-.3c.7-1.3 1.4-2.2 2.1-2.6l-.2-.9c.3-1 .5-1.4.6-1.4.2 0 .4.5.8 1.6-.1.2-.2.4-.2.5.1.2.2.4.2.5.3 0 .4-.2.3-.5-.2-.2-.2-.4-.2-.5.2-.1.5-.2.7-.2v-.3c-1-.9-1.5-1.4-1.6-1.5.9-.4 1.3-.9 1.2-1.6-.2-.2-.2-.4-.2-.5.3-.8.5-1.3.7-1.3 0 .2.2.3.6.5h.2c0-.3.3-.5.9-.5 0-.2-.2-.3-.6-.5v.3h-.2c-.2 0-.4-.1-.4-.3 0-.2.2-.3.5-.3v-.2h-.5v-.3c1.1-.6 1.6-1.6 1.5-3.2.2-1.2.5-1.8.8-1.8.1 0 .2 0 .2.2l.4-.2.3.2c.2-.3.3-.7.3-1.2h.4c.2 0 .4.1.4.5h.2c.3-.4.8-.6 1.6-.6.3.3.6.5.9.5.2-.1.4-.2.6-.2l-.2-.3.2-1c-.6.2-1 .4-1.4.7-.4-.2-.7-.3-.9-.3l-1.1.2c-.1-.2-.2-.4-.2-.7l-.5.4h-.2v-.9c.2 0 .6-.8 1-2.2h.3c.2.7.5 1.3.8 1.9l.9-.4c-.3-.4-.4-.7-.4-1l-.1-1.7-.3-.9c.3 0 .4-.2.4-.4-.3 0-.4-.1-.4-.3v-.2l.2-.9h.3c-.1.2-.2.4-.2.5v.2h.2l.1-.9c0-.1-.1-.4-.2-1 .2 0 .5-.2 1-.7l.4.5c.5-.3.8-.5.9-.7-.6 0-1.1-.2-1.5-.8.2-.3.3-.5.3-.7h.5v.3h.7v-.5l-.5-.7c.4-.4 1-.6 1.6-.6h.3c0-.3.4-.6 1.2-1.1 0-.2.1-.3.3-.3.2 0 .4.1.4.3v.5l.6.3h.2c.2 0 .4-.2.7-.7v-.3l-.9-.1v-.3c0-.2.2-.4.7-.4l-.8-.7c0-.1.1-.2.2-.2l-.2-.3.2-1-.4-.5v-.3L485 15c-.2 0-.4-.1-.4-.3.2-.5.3-.7.5-.7l-.2-.9v-.5l1.4-1.7zM461.8 69h.3v-.3c-.3 0-.4.1-.3.3zm.4-1c.1.7.3 1 .6 1h.2c2-.6 2.9-.9 2.9-1.1-1.8.1-3 .1-3.7.1zm.1 1.7l.1 1c1.3-.1 2.1-.1 2.5.1h.2v-.2c-1.7-.4-2.5-.7-2.5-1h-.3zm1.3-3.8v.7h.2v-.7h-.2zm.6-3.1v.3c.3 0 .4 0 .4.2.4-.3.9-.4 1.4-.4.5.5 1 .7 1.5.7 0-.2.1-.5.5-.9l-.2-.3c.2-.5.3-.9.3-1.1H467c-.8.8-1.7 1.3-2.8 1.5zm.5 3.3v.2h.3v-.2h-.3zm3.7-3l-.2.3v.2l2.3-.2v-.2c0-.2-.7-.2-2.1-.1zm1.3-11.1c.1.8-.3 1.5-1.2 2.1v.3h.2c.2-.1.4-.2.6-.2l.2.3.3-.2.6.3c.2-.4.4-.8.5-1.2-.5-.9-.9-1.4-1.2-1.4zm-1 5.8v.3c.2.6.7.9 1.3.9.1-.3.2-.4.3-.4v.3l2.6-.2c.2 0 .3-.1.3-.3v-.2c-2.5-.1-3.7-.2-3.8-.4v-.2l-.7.2zm2.4-7.1v.3h.2c1-.4 1.5-.6 1.6-.6v-.7c-.2 0-.3-.1-.3-.2-1 .5-1.4.9-1.5 1.2zm.5 2.2v.3c.1 0 .3 0 .6.2 1.9-.4 2.8-.8 2.8-1v-.2l-2.1.2-1.3.5zm1.9-8.8v.3h.2c.3 0 .4-.1.3-.3h-.5zm.1 2.4c.1.7.3 1 .6 1h.2c2-.6 2.9-.9 2.9-1.1-1.8.2-3 .2-3.7.1zm.1 1.8v1c1.3-.2 2.1-.1 2.5.1h.2v-.2c-1.6-.4-2.5-.7-2.5-1h-.2zm.1-8.4v.3h.2v-.3h-.2zm2.4 12.2l-.9-.2c0 .3-.1.5-.2.7.3.4.4.6.4.9l1.3-.2h.5c.1 0 .2.1.2.2.9-.2 1.3-.5 1.2-.7 0-.6-.2-1-.6-1.4-.7.4-1.3.7-1.9.7zm-.9-16h.7v-.3h-.4c-.2 0-.3.1-.3.3zm.2 1v.2c.1.2.2.3.4.3s.3-.1.3-.3V37c-.1.1-.4.1-.7.1zm.1 19.2v.3c.3 0 .4-.2.3-.4l-.3.1zm.3-12.9c.2 0 1 .1 2.4.2h.2c0-.1-.5-.4-1.6-.9h-.4c-.1 0-.4.3-.6.7zm2.4-5.5c0 .5-.8 1.3-2.4 2.4v.2l.2.3c.2-.1.4-.2.5-.2l.4.2c.6 0 1-.4 1-1.1h.3c.3 0 .4.1.4.3-.2 0-.2.1-.2.2 1.5.1 2.4.1 2.6.1v-.2c-1.2-.2-2-.9-2.6-2.2h-.2zm3.6 5l-.8-.3c-.6.3-.9.6-.9.7 0 .7-.4 1.3-1.2 1.8.2.1.4.2.6.2v.3l-1.3.2c0-.2-.1-.3-.3-.3-.2 0-.3.2-.3.5.1.3.3.5.4.5.2-.1.4-.2.5-.2 0 .2-.2.4-.5.4v.7c.2 0 .8-.4 1.8-1.1l-.2-.3v-.3c.7 1 1.2 1.5 1.7 1.5V47c0-.4.1-.8.3-1 0-.3-.5-.5-1.5-.8v-.5c.9-.7 1.4-1.1 1.4-1.3l.3-.2h.3c.3 0 .4.1.4.3l-.2.3c.5.2.9.3 1.1.3.2-.3.5-.9.8-1.8h-.2c-.3.1-.5.2-.6.2-.4-.4-.6-.6-.6-.9h.1c-.3 0-.6.4-1.1 1.3zm-4 11.2c0 .3 0 .5-.1.7.2.5.5.8.7.9 0-.1.1-.6.2-1.4l-.4-.2h-.4zm0-24.2h.3v.5c-.2 0-.3-.1-.3-.3v-.2zm.9 18.7l-.2.3 1.3.3V49c-.2-.2-.5-.4-1.1-.4zm.6-11.1v.2l1.5-.1 1.8 1.2h.3c0-.4.2-.5.5-.5l-.4-.5c.1-.2.2-.4.2-.5-1.3-.1-2-.2-2-.3.2 0 .4-.2.5-.6v-.2c0-.2-.2-.3-.6-.5h-.5l-1.3 1.8zm.3-11.8v.3c0 .2.2.3.5.5v-.2l-.2-1c-.2.1-.3.3-.3.4zm.5 5.8c0 .2.2.3.6.5.2 0 .3-.2.3-.4-.2 0-.4-.1-.4-.5h-.2c-.2.1-.3.2-.3.4zm.5-1.6l.2.3c-.1.2-.1.4-.1.5h.5c0-.3.1-.6.3-.9l-.4-.2h-.2l-.3.3zm.2-3.7c.6 1 1.4 1.5 2.4 1.5.2-1.1.3-1.8.3-2.1-.3 0-.4-.1-.4-.3-.7.3-1.5.7-2.3.9zm1 30.5c.2 0 .4.1.4.3v.2c0 .3-.3.4-.9.5l-.2-.3c0-.1.2-.4.7-.7zm5.5-26c0 .2-.2.3-.7.5l-2.8.1h-.2l-.9.6.2.3v.2l-.3.5.2.9 2.4-.2v-.9c.1-.4.5-.6 1.4-.6h.2v.7c.4-.4.7-.5.9-.5 0-.2-.2-.3-.4-.3l.3-1-.3-.3zm-4.7 9.7h.5l1.6-1.1h-.3c-.3.1-.4.2-.5.2-.1-.2-.2-.4-.2-.7h-.2c-.4 0-.6.5-.9 1.6zM483 30v.2h.4v-.5c-.2 0-.4.1-.4.3zm3.6-8.2c0 .2-.1.3-.3.3l-.4-.2c-.6.1-1.1.4-1.4.9h-.4l-.5-.3c0 .6-.2.9-.5.9l.3.9v.7h.7c.1-1 .1-1.7.3-1.9.6.2.9.5 1 1h-.2l-.4-.2v.2l.8.8c-.3 0-.7.6-1.2 1.6h-.2v.2h.4l1.2-.4c.1.2.2.3.4.3h.2c-.3-.4-.4-.7-.4-.9.2 0 .4-.4.5-1.2l-.8-.8 1.4-1c.3 0 .4.1.4.3-.1 0-.2.1-.2.2.2 0 .3.1.3.3.7-.4 1.1-.6 1.2-.6v-.5c0-.2-.2-.3-.5-.5l-.5.4h-.2l-1-.5zm-2.6-5.9c.3.9.6 1.6.8 1.9v.2h-.2l-.8-.5c.1.8 0 1.2-.3 1.2s-.4-.1-.4-.3c0-.1.1-.2.2-.2l-.2-.3c.3-.5.5-.8.5-1.1-.1-.2-.2-.4-.2-.5l.6-.4zm-.7 29.6v.5c.2 0 .3-.2.3-.4v-.2h-.3zm.9-17.8v.2c.1.2.2.3.4.3l.2-.4-.4-.2-.2.1zm.8 14.7v.2l.9-.2c0-.2-.1-.3-.3-.3h-.2c-.3 0-.4.1-.4.3zm.2-3.2c.1 0 .3.1.5.2l.2-.4v-.5c-.2 0-.4.3-.7.7zm.2-3.3v.9c1 .2 1.4.5 1.5 1h.2c.2 0 .3-.1.3-.3v-1l-.9.2h-.2v-.9l-.9.1zm2.3-23.1l-.2.7h-.2l-.4-.2v.3c.2.2.2.4.2.5h.3c.2 0 .3-.2.3-.4l-.1-1h.1zm-.5-2.3h.3v.3h-.3v-.3zm.2 14.6c0 .2.2.3.7.5V25l-.7.1zm.2-9v.3h.2v-.3h-.2zm.5.4v.3h.3v-.3h-.3zm.2-6.2h.5c0 .2-.1.3-.3.3h-.2v-.3zm.4 20.9c.3.3.4.6.4 1h.2c.2 0 .4-.3.9-.9-.1-.8-.2-1.2-.4-1.2-.5.1-.8.5-1.1 1.1zm2.5 22.1v.5c.2 0 .3-.2.5-.5h-.5zm1.8-30c0 .1-.3.5-1 1.1.1.2.2.3.3.3.3 0 .6-.4 1-1.1.1-.2 0-.3-.3-.3zm-.4 29.4h.4v-.3c-.3 0-.4.1-.4.3zm2.2-5.1l-1 1.2v.2h.2c.4-.1.9-.5 1.4-1.1l-.6-.3zm1.5-10.3h.2c.3 0 .4.1.4.3-.2.3-.3.6-.3.9h-.3c-.2 0-.3-.1-.3-.3-.1-.6.1-.9.3-.9zm1-12.3h-.9l-.1 1.7h.9c0-.6.3-.9 1-1.1v-.2c-.4 0-.6-.2-.6-.7l-.3.3zm-.2 30c.3 0 .5.3.6.9l-.5.4h-.2l-.6-.3c.2-.6.5-.9.7-1zm-.2-41.2v.2c0 .3.3.5.9.5 0-.1.1-.2.2-.2-.1-.2-.2-.4-.2-.5h-.9zm1.6 6.8h.3l1.6-.6v-.2c-1.3.2-1.9.4-1.9.8zm0-6.7v.3h.2v-.3h-.2zm1.4 14.9l.2.3c.6-.2.9-.3.9-.5l-.3-.2-.8.4zm.4 4.2v.2h.2l.9-.2v-.5c-.7 0-1.1.2-1.1.5zm.5.3v.2h.3v-.2h-.3zm.9-4.8c0 .5-.1.9-.5 1.2.3 0 .4.1.4.2 1 0 1.7-.5 2.3-1.3h-.3l-.6.4h-.2l-.8-.5h-.3zm0-1.3l.3.2h.2c.1 0 .6-.6 1.4-1.8l-.2-.3c-1.2.4-1.8 1.1-1.7 1.9zm.9 4.7v.7h-.2v.2c.2 0 .7.1 1.5.3.9-.3 1.3-.7 1.2-1.3h-.4l-.5.3h-.4v-.3l-1.2.1zm.5 11.8c.3 0 .4.1.4.3l-.3.2c-.3 0-.4-.1-.4-.3l.3-.2zm1.5-18.5c0-.1-.1-.2-.2-.2v.3l.2.3.4-.2h.3v.6h.3v-1.2c-.3.3-.7.4-1 .4zm-.1 12.3c0 .2.2.3.6.5h.3v-.2c0-.2-.2-.3-.4-.3h-.5zm1 8.9v.2c.2 0 .4.2.4.7l1.3-.1c0-.5.2-.7.5-.7v-.2l-.9.2h-.2c-.2 0-.3-.1-.3-.3-.3.1-.5.2-.8.2zm.5 27.1v.2h.3v-.2h-.3zm1.7-15.7l-.9-.1-.6 1.1v.2h.5l1.1-.6c0 .5.5.7 1.3.8v.3h.3c0-.7.3-1.1 1-1.2l.7.1.9-.5c.2.1.5.1.7.1l.2-.3v-.5h-.2l-.5.4c-.3 0-.7-.1-1.1-.3 0 .1-.1.3-.2.5l-.4-.2-.5.4h-.6v-.2l.3-.5c-.8 0-1.1 0-1.1-.1s-.3.1-.9.6zm-1.2-24.6c0 .3-.1.6-.3.9 0 .2.4.3 1.3.5 0-.2.2-.4.7-.4 0-.3-.1-.6-.4-1-.1 0-.2.1-.2.2l-.9-.1h-.2zm.1 16.8l.4.2h.2c.3-.2.5-.4.7-.4l-.1-.7h-.2c-.5.2-.8.5-1 .9zm1.2-20.9c.2 0 .4.2.6.7l-.4.2h-.5c0-.1-.1-.3-.2-.5l.5-.4zm.4 31.7h.3v-.3c-.2 0-.3.1-.3.3zm.9-15.1v-.2c-.6.1-.9.5-.9 1.2h.2l.9-.2c.3.8.6 1.2.8 1.2h.2c0-.2.2-.7.8-1.4v-.2c-.4-.5-.6-.8-.8-.8l-1.2.4zm-.8 9.3v.2c.1.2.2.3.3.3h.6c0-.2.1-.4.3-.7-.1 0-.2 0-.2-.2-.3.3-.7.4-1 .4zm.7 2.6v.5c-.3 0-.4-.1-.4-.3l.4-.2zm1.6 4.8c.1.4-.3.6-1 .7v.3c1 .1 1.6.2 1.9.3l.9-.6.4.2c.1 0 .2-.1.2-.2l.9.1h.7v-.3c0-.3-.2-.4-.7-.5-.3.1-.5.2-.6.2 0-.2-.1-.3-.3-.3 0 .2-.2.4-.5.5h-.2c-.5-.1-1-.2-1.7-.4zm-.9 7.4h.3v-.3c-.2 0-.3.1-.3.3zm.5 10v.3h.3v-.3h-.3zm.8-18.6c0 .3-.2.5-.5.5 0 .2.2.3.6.5h.2c.2 0 .3-.2.3-.4v-.2c-.1-.1-.3-.2-.6-.4zm-.2 7.4c0 .3-.1.8-.3 1.2l.8.3c0-.4 0-.5.2-.5-.3-.7-.5-1-.7-1zm.4-1.8v.3c.1.2.2.3.4.3.4-.4.6-.6.9-.6-.2-.6-.3-.9-.4-.9-.5.4-.8.7-.9.9zm.2 3.5v.5h.4v-.2c0-.2-.2-.3-.4-.3zm.2-26.8h.2v.3h-.2v-.3zm2.3 29.1v.2h.3v-.2h-.3zm3.2-.8h.2v.3h-.2v-.3zm4.2 7c.7.3 1.1.5 1.1.7v.3c0 .2-.2.3-.5.3l-1.3-.3v-.2c.3-.5.5-.8.7-.8z"/><path class="st1" d="M462.5 69.7c0 .3.8.6 2.5 1v.2h-.2c-.3-.2-1.2-.2-2.5-.1l-.1-1h.3zm3.5-1.9c0 .2-1 .6-2.9 1.1h-.2c-.3 0-.5-.3-.6-1 .6.1 1.8.1 3.7-.1zm44.5 12v.3h-.3v-.3h.3zm10.1-.1v.2l1.3.3c.4 0 .6-.1.5-.3v-.3c0-.2-.4-.4-1.1-.7-.2-.1-.4.2-.7.8zm-14.2-6.2v.2h-.4v-.2h.4zm7.8-.7h-.3v-.2h.3v.2zm2.9-.7h.2v-.3h-.2v.3zm-5.3-1.5v.2h-.4v-.5c.2 0 .4.1.4.3zm-1.7-1.1v.3h-.3c-.1-.2 0-.3.3-.3zm1.3.1c-.1 0-.2.2-.2.5l-.8-.3c.3-.5.4-.9.3-1.2.3 0 .5.3.7 1zm.7-3.5c.1 0 .2.3.4.9-.2 0-.5.2-.9.6-.2 0-.3-.1-.4-.3V67c.1-.4.4-.7.9-.9zm-50 2.5v.3h-.3c-.1-.1 0-.2.3-.3zm50-5.7h.2c.4-.2.5-.4.5-.5.2 0 .4.1.4.3.1 0 .3-.1.6-.2.5 0 .7.2.7.5v.3h-.7l-.9-.1c0 .1-.1.2-.2.2l-.4-.2-.9.6c-.3-.1-.9-.2-1.9-.3v-.3c.8-.1 1.1-.3 1-.7.8.1 1.4.2 1.6.4zm-.6-1.2v.2c0 .2-.1.4-.3.4h-.2c-.4-.2-.6-.3-.6-.5.4 0 .5-.2.5-.5.4.1.6.2.6.4zm-46.4 4.4v.2h-.3v-.2h.3zm-1.3-.2v.7h-.2v-.7h.2zm44.7-5.5v.4h-.3c0-.2.1-.3.3-.4zm-38 2.8v.2l-2.3.2v-.2l.2-.3c1.4-.1 2.1-.1 2.1.1zm38.1-5.4c0 .2.1.3.4.3v-.5l-.4.2zm.1-.7c0 .1.4.1 1.1.1l-.3.5v.2h.6l.5-.4.4.2c.1-.2.2-.4.2-.5.4.2.8.3 1.1.3l.5-.4h.2v.5l-.2.3c-.3 0-.5 0-.7-.1l-.9.5-.7-.1c-.7.2-1 .6-1 1.2h-.3v-.3c-.9-.1-1.3-.4-1.3-.8l-1.1.6h-.5v-.2l.6-1.1.9.1c.5-.4.8-.6.9-.6zM467 61.2h1.1c0 .2-.1.6-.3 1.1l.2.3c-.3.4-.5.7-.5.9-.5 0-1-.2-1.5-.7-.5 0-1 .2-1.4.4 0-.1-.1-.2-.4-.2v-.3c1.1-.1 2-.6 2.8-1.5zm14.2-3.7l.2.3c.6-.1.9-.3.9-.5v-.2c0-.2-.2-.3-.4-.3-.5.2-.7.5-.7.7zm28.1-2.9c0 .1.1.2.2.2-.2.3-.3.6-.3.7h-.6c-.2 0-.3-.1-.3-.3V55c.3 0 .7-.1 1-.4zM476 56.3c0 .2-.1.4-.3.4v-.3l.3-.1zm20.4-.4l.6.3h.2l.5-.4c-.1-.6-.3-.9-.6-.9-.2.2-.5.5-.7 1zm-26.8 1.7v.2c0 .2 1.3.3 3.8.4v.2c0 .2-.1.3-.3.3l-2.6.2v-.3c-.2 0-.3.1-.3.4-.6 0-1.1-.3-1.3-.9v-.3l.7-.2zm8.7-3.5l.4.2c-.1.8-.2 1.3-.2 1.4-.3-.1-.5-.3-.7-.9.1-.2.1-.4.1-.7h.4zm13.4-.8c-.2.3-.3.5-.5.5v-.5h.5zm1.3-.9v.3h-.4c0-.2.1-.3.4-.3zm-20.2.1l2.1-.2v.2c0 .2-.9.5-2.8 1-.3-.1-.5-.2-.6-.2V53l1.3-.5zm-2 1c-.1.5-.2.9-.5 1.2l-.6-.3-.3.2-.2-.3c-.2 0-.3.1-.6.2h-.2v-.3c.8-.6 1.2-1.4 1.2-2.1.4-.1.8.4 1.2 1.4zm7.3-2.2c.4.4.6.8.6 1.4 0 .3-.4.5-1.2.7 0-.1-.1-.2-.2-.2h-.5l-1.3.2c0-.2-.1-.5-.4-.9.1-.2.2-.5.2-.7l.9.2c.6.1 1.2-.2 1.9-.7zm29.5-2.2h.2l.1.7c-.2 0-.5.2-.7.4h-.2l-.4-.2c.2-.4.5-.7 1-.9zm-35.1.5c0 .1.1.2.3.2v.7c-.1 0-.6.2-1.6.6h-.2v-.3c.2-.4.6-.8 1.5-1.2zm7.4-.5v.2l-1.3-.3.2-.3c.6-.1.9.1 1.1.4zm15.4-1.2c-.5.6-1 1-1.4 1.1h-.2v-.2l1-1.2.6.3zm-21.4.4c.1.3.9.6 2.5 1v.2h-.2c-.3-.2-1.2-.3-2.5-.1v-1h.2zm32.3-2.2c0 .2.1.3.3.3h.2l.9-.2v.2c-.3 0-.5.2-.5.7l-1.3.1c0-.5-.2-.7-.4-.7v-.2c.4.1.6 0 .8-.2zm4.2-.8c.2 0 .4.3.8.8v.2c-.6.7-.8 1.2-.8 1.4h-.2c-.2 0-.4-.4-.8-1.2l-.9.2h-.2c0-.7.3-1.1.9-1.2v.2l1.2-.4zm-33 1.1c0 .2-1 .6-2.9 1.1h-.2c-.3 0-.5-.3-.6-1 .6.1 1.8.1 3.7-.1zm6.3-.9v.2c0 .2-.1.4-.3.4v-.5h.3zm27.9-1.7h.2v-.3h-.2v.3zm-8.9.1c0 .2.2.3.4.3l.3-.2c0-.2-.1-.3-.4-.3l-.3.2zm-28.6.2c0 .2-.1.4-.3.4h-.2v-.3l.5-.1zm2.5-1.4h.4c1 .5 1.6.8 1.6.9h-.2c-1.4-.1-2.3-.2-2.4-.2.1-.4.4-.7.6-.7zm8.8-.7h.2c.2 0 .3.1.3.3l-.9.2v-.2c0-.1.1-.2.4-.3zm-2.4-.4h.2c0 .2.2.5.6.9.1 0 .3-.1.6-.2h.2c-.3.9-.6 1.5-.8 1.8-.3 0-.6-.1-1.1-.3l.2-.4c0-.2-.1-.3-.4-.3h-.3l-.4.2c0 .2-.5.6-1.4 1.3v.5c1 .3 1.5.6 1.5.8-.2.3-.3.6-.3 1v.2c-.5 0-1-.5-1.7-1.5v.3l.2.3c-1 .8-1.6 1.1-1.8 1.1v-.7c.4 0 .6-.2.5-.4-.2 0-.3.1-.5.2-.1 0-.3-.2-.4-.5 0-.4.1-.5.3-.5.2 0 .3.1.3.3l1.3-.2v-.3c-.2 0-.3-.1-.6-.2.8-.5 1.2-1.1 1.2-1.8 0-.2.3-.4.9-.7l.8.3c.3-.8.6-1.2.9-1.2zm-8.9-1.7v.3h-.2v-.3h.2zm9.5-1.1h.2c0 .3.1.5.2.7.1 0 .3-.1.5-.2h.3l-1.6 1.1h-.5c.3-1.1.5-1.6.9-1.6zm21.5-1.3c.2 0 .4.1.4.3v.2h-.3c-.4-.2-.6-.3-.6-.5h.5zm-19.2 1v.5l-.2.4c-.2-.1-.4-.2-.5-.2.3-.4.5-.7.7-.7zm9.9-.3c0 .2.1.3.3.3h.3c0-.3.1-.6.4-.9 0-.2-.1-.3-.4-.3h-.2c-.1 0-.3.3-.4.9zm-17.1-.3c.5 1.3 1.4 2 2.6 2.2v.2c-.2 0-1.1 0-2.6-.1-.1-.1 0-.2.2-.2 0-.2-.1-.3-.4-.3h-.5c-.1.7-.4 1.1-1 1.1l-.4-.2c-.1 0-.3.1-.5.2l-.2-.3v-.2c1.6-1.1 2.4-1.9 2.4-2.4h.4zm-2.4-.9v.3c0 .2-.1.3-.3.3-.2 0-.4-.1-.4-.3v-.2c.2 0 .5 0 .7-.1zm10-1.3v.9h.2l.9-.2v1c0 .2-.1.4-.3.4h-.2c0-.5-.5-.9-1.5-1v-.9l.9-.2zm-5.5 0h.5c.4.2.6.3.6.5v.2c-.2.4-.4.6-.5.6 0 .1.7.2 2 .3 0 .1-.1.3-.2.5l.4.5c-.4 0-.5.2-.5.5h-.4l-1.8-1.2-1.5.1v-.2l1.4-1.8zm-5.1 0h.4v.3h-.7c-.1-.1 0-.2.3-.3zm31-2.5l.9.1c0-.1.1-.2.2-.2.3.4.4.7.4 1-.5 0-.7.2-.7.4-.9-.1-1.3-.3-1.3-.5.2-.3.3-.6.3-.9h.2zm-5.5.2h-.3v-.2h.3v.2zm.2-1v.5l-.9.2h-.2V33c0-.3.4-.5 1.1-.6zm2.5-.5v.3h.4l.5-.3h.4c0 .6-.4 1-1.2 1.3-.8-.2-1.3-.3-1.5-.3v-.2h.2V32l1.2-.1zm-16.2-1l-.3 1c.2 0 .4.1.4.3-.2 0-.5.2-.9.5V32h-.2c-.9 0-1.4.2-1.4.6v.9l-2.4.2-.2-.9.4-.5v-.2l-.2-.3.9-.6h.2l2.8-.1c.5-.2.7-.4.7-.5l.2.3zm-7.2.3h.2c0 .4.2.5.4.5 0 .2-.1.4-.3.4-.4-.2-.6-.3-.6-.5 0-.3.1-.4.3-.4zm26.7-1.7c.1.2.2.4.2.5h.5l.3-.2c-.2-.5-.4-.7-.6-.7l-.4.4zm-17.5.6c.2 0 .3.4.4 1.2-.4.6-.7.9-.9.9h-.2c0-.4-.2-.8-.4-1 .4-.6.7-1 1.1-1.1zm-11.8-.1c0 .2.1.3.3.3v-.5h-.3v.2zm24.1-1.5l.8.5h.2l.5-.4h.3c-.6.9-1.3 1.3-2.3 1.3 0-.1-.2-.2-.4-.2.4-.4.5-.8.5-1.2h.4zm-18.6 1.1v.5h-.4V30c0-.2.2-.3.4-.4zm-2.4.1h.2l.4.2c-.3.3-.4.6-.3.9h-.5c0-.1 0-.3.1-.5l-.2-.3.3-.3zm19.6-1.3l.3.2c0 .2-.3.4-.9.5l-.2-.3c.3-.1.5-.2.8-.4zm-16.2-.8l.4.2-.2.4c-.2 0-.3-.1-.4-.3v-.2l.2-.1zm19-2.3l.2.3c-.8 1.2-1.3 1.8-1.4 1.8h-.2l-.3-.2c-.1-.8.5-1.5 1.7-1.9zm2.3-.5V26h-.3v-.5h-.4l-.4.2-.2-.3v-.3c.1 0 .2.1.2.2.3-.1.7-.2 1.1-.5zm-8 0c0 .5.2.7.6.7v.2c-.7.2-1.1.5-1 1.1h-.9l.1-1.7h.9l.3-.3zm-9.6.2v.5c-.5-.2-.7-.3-.7-.5h.7zm-5 .3c0 .2.2.3.4.3 0 .3-.1 1-.3 2.1-1 0-1.8-.5-2.4-1.5.9-.2 1.7-.6 2.3-.9zm-3 .1l.2 1v.2c-.4-.2-.5-.3-.5-.5v-.3c-.1-.2 0-.4.3-.4zm13.3-1.8c-.4.7-.8 1.1-1 1.1-.2 0-.3-.1-.3-.3.7-.6 1-1 1-1.1.2 0 .3.1.3.3zm-5.8-1.2h.2l.5-.4c.4.2.5.3.5.5v.5c-.1 0-.5.2-1.2.6 0-.2-.1-.3-.3-.3 0-.1.1-.2.2-.2 0-.2-.1-.3-.4-.3l-1.4 1 .8.8c-.1.8-.3 1.2-.5 1.2 0 .2.1.5.4.9h-.2c-.2 0-.3-.1-.4-.3l-1.2.4h-.4v-.2h.2c.5-1.1.9-1.6 1.2-1.6 0-.1-.3-.3-.8-.8V24l.4.2h.2c0-.5-.3-.9-1-1-.1.3-.2.9-.3 1.9h-.7v-.7l-.3-.9c.4 0 .6-.3.5-.9l.5.3h.4c.3-.5.8-.8 1.4-.9l.4.2c.2 0 .3-.1.3-.4l1 .6zm12.9-2.6v.2l-1.6.6h-.3c-.1-.4.5-.6 1.9-.8zm-12.1-3.4v.3h-.3v-.3h.3zm-.6-.3v.3h-.2v-.3h.2zm-4.3.2c0 .1.1.3.2.5 0 .3-.2.6-.5 1.1l.2.3c-.2 0-.2.1-.2.2 0 .2.2.3.4.3s.3-.4.3-1.2l.8.5h.2v-.2c-.2-.3-.5-1-.8-1.9l-.6.4zm15.2-2.4v.3h-.2v-.3h.2zm-.9-.1c0 .1.1.3.2.5-.1 0-.2.1-.2.2-.6-.1-.9-.2-.9-.5v-.2h.9zm-10-1l.1 1c0 .2-.1.4-.3.4h-.3c0-.1-.1-.3-.2-.5v-.3l.4.2h.2l.2-.7h-.1zm-2.9-.3v.5l.2.9c-.2 0-.4.3-.5.7 0 .2.2.3.4.3l-.2.4v.4l.4.5-.2 1 .2.3c-.1 0-.2.1-.2.2l.8.7c-.5 0-.7.2-.7.4v.3l.9.1v.3c-.3.5-.5.7-.7.7h-.2l-.6-.3v-.5c0-.2-.2-.3-.4-.3s-.3.1-.4.3c-.8.5-1.2.9-1.2 1.1h-.3c-.6 0-1.2.2-1.6.6l.5.7v.5h-.7V22h-.5c0 .2-.1.4-.3.7.3.6.8.8 1.5.8-.1.2-.3.5-.9.7l-.2-.2c-.5.5-.9.7-1 .7.2.6.2 1 .2 1l-.1.9h-.2v-.2c0-.1.1-.3.2-.5h-.3l-.2.9v.2c0 .2.2.3.4.3 0 .2-.1.4-.4.4l.3.9.1 1.7c0 .3.1.6.4 1l-.9.4c-.4-.6-.6-1.2-.8-1.9h-.4c-.4 1.4-.8 2.1-1 2.2v.9h.2l.5-.4c0 .3.1.5.2.7l1.1-.2c.2 0 .5.1.9.3.4-.3.9-.6 1.4-.7l-.2 1 .2.4c-.2 0-.3.1-.6.2-.3 0-.6-.2-.9-.5-.8.1-1.3.3-1.6.6h-.2c0-.4-.2-.5-.4-.5h-.4c0 .5-.1 1-.3 1.2l-.3-.2-.4.2c0-.1-.1-.2-.2-.2-.4 0-.6.6-.8 1.8.1 1.6-.4 2.7-1.5 3.2v.3h.5v.2c-.3 0-.5.1-.5.4 0 .2.2.3.4.3h.2v-.3c.4.2.6.3.6.5-.6 0-.9.2-.9.5h-.2c-.4-.2-.6-.3-.6-.5-.2 0-.4.5-.7 1.3 0 .1.1.3.2.5 0 .7-.4 1.2-1.2 1.6 0 .1.5.6 1.6 1.5v.4c-.3 0-.5.1-.7.2 0 .1.1.3.2.5 0 .3-.1.5-.3.5 0-.1-.1-.3-.2-.5 0-.1.1-.3.2-.5-.4-1-.7-1.6-.8-1.6-.2 0-.4.5-.6 1.4l.2.9c-.7.4-1.4 1.2-2.1 2.6l.2.3c.1 0 .3-.1.5-.2.6.1.9.2.9.5.2 0 .3-.1.5-.2h.2v.7l-1.3.4h-.5c0-.2.2-.4.7-.4v-.3h-.7c-1 .4-1.8 1-2.3 1.8v.4l.4.5-.2.3-.4-.2-.5.4c.3.4.6.7.8.7h.3c.3 0 .4-.2.3-.7h.3v.9h-.2c-2 .5-3.1 1.1-3.3 1.6v.3l.3 1c-.1.2-.2.4-.2.5-1.2.1-1.8 1.1-1.7 3l-.4-.2h-.5c-.5 1.5-.9 2.3-1.2 2.3 0 .1.1.3.2.5l-2.6 6.5c.6.8 1.4 1.2 2.2 1.1 1.3 1.2 2.2 1.8 2.7 1.8 2 1.1 3.2 1.7 3.6 1.8h.9c.2 0 .4-.2.4-.4l2.3.3c2.3-3.2 3.4-5.1 3.4-5.7l-.2-.3c1.4-.8 2.1-1.9 2-3.3l.3.2c0-.1.1-.3.2-.5-.2-.1-.4-.1-.5-.1 0-.2.3-.7 1-1.3v-1c.5 0 .7-.2.7-.6l.3.2c.4-.2.6-.4.5-.5v-.2h-.4V61c.4 0 .9-.5 1.4-1.5-.2-.3-.4-.5-.6-.5h-.3l-.5.4c0-.1-.1-.3-.2-.5v-.2c.3 0 .5.1.7.2 2.4-1.3 3.5-2.7 3.4-4.2l-.3-.5V54c.5 0 .9-.3 1.1-.8.2 0 .3.1.3.3.1 0 .2-.1.2-.2l1.1.1c.1 0 .3-.1.7-.2 0 .2.3.3.8.5.4-.6.7-.9.9-.9l1.1.5c0 .3-.2.7-.5 1.2v.5c.5 0 .8.2.8.7h.2c.3 0 .5-.6.7-1.8-.3-.5-.4-.8-.5-1v-.2h.4c.4.1.6.5.6 1.2.1.8.6 1.3 1.7 1.5.4-.2.6-.4.5-.5.2 0 .4.1.4.3l-.3.5v.2l1.3.7c.4-.1.6-.5.9-1.3l-.8-.3c0-.5.2-1.2.7-2.1l.3.2c0 .1-.1.2-.2.2 0 .6.5 1 1.5 1.2l.7-.4c0 .1.1.2.2.2h.2c.5-.6.9-.9 1-.9v.2c.3 0 .8-.1 1.4-.2.3 0 .8.2 1.3.6h.3l.4-.2c0-.1-.1-.2-.2-.2l.5-.7c.2 0 .3.1.3.3v.2l-.1 1.2c.1 0 .2.1.2.2-.1 0-.2.1-.2.2l.2.3c-.5 0-.7.1-.7.3v.5c.3 0 .9 0 2 .1v.2h-.9v.3h.3l-.2.3v.2h.5l-.2.4c-.4 0-.8-.2-1.3-.5h-.2c-.2 0-.3.1-.3.3v.3c.3 0 .5.1.7.2v-.2h.4v.2c-.4 0-.6.2-.5.6 0 .1.1.3.2.5.1 0 .2-.1.2-.2l.3.2c0 .2-.2.7-.7 1.4.3 1.2.6 1.7.8 1.7h.2c.3-.3 2-.7 5.3-1.1 0 .6.3.9.8.9.6-.3.9-.5.9-.7h.2v.2c0 .5-1.7 1.2-5 2h-.6V63h-.2c-1 .2-1.4.5-1.4.8l.4.5.1 1.6.2.3 1-1.6c0 .1-.1.3-.2.5l.2.4.5-.4v.3c0 .3 0 .5-.2.7l.2.3v.2c0 .1-.4.4-1.3.9v.3h.7l.3-.2c0 .2.2.4.4.7.2 0 .3-.2.3-.4.2 0 .4.2.6.7v.2c-.8.6-1.2 1.1-1.2 1.3l.2.3c.1 0 .3-.1.5-.2.2 0 .3.2.4.5-1.2.5-1.8.9-1.7 1.3 0 .1.1.3.2.5.1 0 .2-.1.2-.2.3.1.7.3 1.2.9l1.3 4.1-.2.4v.2c1.3 1.2 1.9 2 1.9 2.4h1.2c0 .4.2.8.5 1 .5-.3.8-.6.9-.9l.3.2c.6-.7 1-1.1 1-1.1.2 0 .5.3.8 1 0 .1-.5.4-1.6.8.3.5.5.8.8.8h.2c.3 0 .4-.3.3-.9h.3v.5l-.2.3c.8 0 1.3-.5 1.7-1.3 0-.1-.3-.4-.9-.9v-.7c1.9-.5 2.9-.8 3.1-.9h.5c.3.2.6.3.7.3l-.2.9c.5.6.8.9 1 .9h.2c.9-.3 1.3-.4 1.5-.4-.5-.6-.9-1.3-1.2-2.1.1-.6.5-.9 1.2-.9l.2.9h.4v-.3h.2c0 .3.2.5.4.5h.2v-.3l-.4-.5c-.1-1.3-.8-2.3-2.3-2.9v-.5c.4 0 .6-.1.5-.3v-.2c-.2-.3-.4-.5-.6-.5-.9.1-1.3.2-1.4.6-.5 0-1.1-.2-1.7-.8 0-.5.3-1 .9-1.4.1 0 .2 0 .2.2.1 0 .3-.1.5-.2.2 0 .4.1.7.3h.6c.2 0 .3-.2.5-.7l-.2-.3c-.4 0-.7.1-.9.2 0-.1.1-.3.2-.5 0-.2-.2-.3-.6-.3v-.3l.2-.3c-.1 0-.2-.1-.2-.2-.2 0-.6.2-1 .6-.2 0-.4-.1-.4-.3v-.3c.9-.4 1.5-.7 1.8-1 0-.6-.2-.9-.6-1h.1c-.5 0-1 .2-1.4.4 0 .2-.4.5-1.3 1.1l.2.3h-.4c0-.6-.2-.9-.5-.9v-.3l.7-.7c-.2-.3-.4-.5-.6-.5l.2-.4 1.1.5h.4c.1 0 .2-.1.2-.2l1.6-.9c0-.2-.2-.3-.5-.3 0-.2.1-.3.3-.4l-.7-.7v-.2h.4v-.4h-.2l-.6.4h-.7v-.3c.2 0 .7-.4 1.6-1.1v-.2c-.3-.3-1.1-.9-2.6-1.8v-.2c0-.2.1-.3.3-.4.3 0 .4.1.4.3.5-.3.8-.5.9-.7v-.2c-.3-.4-.6-.7-.8-.7 0-.1.1-.3.2-.5 0-.3-.4-.6-1.3-1.2v-.3h.2l.8.5h.3c.2 0 .3-.1.3-.3v-.3c-.3 0-.6-.2-1.1-.7h-.4c-.2 0-.3.3-.3.7h-.4c0-.3 0-.5.1-.7l-.5-.7c0-.1.2-.4.7-.9v-.7c-.1-.3-.4-.5-.9-.5l.5-.9c-.1-.3-.4-.5-.9-.7h-.3c-1.2 1.1-1.9 1.7-2.1 1.7l-.9-.1v-.9c.2 0 .3.1.6.2.1 0 1-.5 2.8-1.4 0-.1-.1-.3-.2-.5.1-.2.2-.4.2-.7v-.3l-.2-.3h.2l-.2-1c.3-.8.5-1.3.5-1.6 0-.2-.1-.7-.4-1.4h.2l-1.7-.8.2-.9v-.9c.4 0 .7-.1.9-.2-.3-.5-.4-.8-.4-1l.2-.4-.3-.2c-.8.1-1.5.8-2.3 2.2l.2.3c-.4 0-.7.3-.9.7v.2l.2.3c-.5.5-.7.8-.7 1.1h-.3l.2-.4-.2-.3c-.3.3-1.5.5-3.4.9h-.2l-.8-.9c-.2 0-.3.2-.3.5-.2 0-.8.1-1.8.1l-.9.2-.9-.5h-.2c0 .1.1.2.2.2 0 .4-.3.8-1 1.4h-.2V46h-.4l-1.1.7-.7-.7c-.3 0-.8.2-1.6.6 0-.1-.1-.2-.2-.2-.2 0-.3.1-.4.4-.2 0-.5-.1-.9-.3-1 .7-2.2 1.1-3.6 1.2h-.2l-.6-.3h-.2c-.9.9-1.4 1.3-1.6 1.3-.3-1.3-.5-2.1-.9-2.4v-.7c.5 0 .7-.2.7-.4s-.2-.3-.5-.3v-.2c0-.2.6-.5 1.9-1.1l1-2.7c-1-.8-1.6-1.2-1.7-1.2l1-1.4.7.2v.9c0 .2.2.3.4.3l.7-.5c0-.1-.1-.3-.2-.5.1-.4.3-1 .6-1.6l-.2-.3c.4-.2.5-.4.5-.5V36c-.4 0-.7-.1-1.1-.3l-.7.4c0-.2-.2-.3-.6-.3v-.3c.9-.1 1.7-.4 2.4-1.2l-.2.9c0 .2.2.3.4.3h.3v-.2l-.2-.9h.4c.4 0 .8-.5 1-1.4l-.2-.3c.3 0 .4-.3.3-.9h.2c.1.6.3.9.5.9h.2l.3-.2c.3-.8.7-1.3 1-1.3-.1-.5-.3-1-.8-1.5l-.5.3-1.8.1-.9.2-.4-.5V29c0-.2.3-.4.9-.5 1 .1 1.9.1 2.6 0h.2c.6-.4.9-.7.9-1.1h.2v.2c0 .1 0 .3-.1.5.1.2.2.4.2.7l1.4 1.3c-.4 0-.7.3-.9.7l.1 1c0 .2.1.3.3.3h.4c.2 0 .4-.2.4-.4.2.1.5.2.7.2-.2.3-.3.6-.3.9-.2 0-.2-.1-.2-.2-.7.7-1.1 1.2-1.2 1.7l.2 1c.3 0 .8-.1 1.5-.4l.2.3.9-.2v.3l-.2.3.4.2v.2c-.9 0-1.3.5-1.2 1.3v.3l.2.3-.4.2c0 .1.1.2.2.2l-.1.9v.4l.2.3-.3.2c0 .1.1.2.2.2 0 .2-.1.3-.4.3 0 .2.2.3.4.3h.2l.5-.4h.3l.4.2c0 .2-.6.8-1.7 1.9 0 .1.1.2.2.2l-.2.3v.2c.3.8.4 1.3.4 1.4h.4c.3-.2.5-.4.5-.5l1.1.1.4-.2c0 .1.1.2.2.2h.2c.3-.3 1.5-.6 3.4-.9l.5.3 2.3-.8v-.3c-.9-.5-1.3-1.1-1.4-1.9.2 0 .4-.3.7-.9l-.4-.5V39c.4 0 .5-.2.5-.5.6-.2 1.2-.6 1.9-1.3.3.3.5.5.8.5v.2c-.3.5-1 .9-1.9 1.3 0 .5-.4 1-1 1.6v.7c.7-.1 1.1 0 1.1.3 0 .2-.1.4-.3.4.2.3.4.5.5.5 0 .1-.1.3-.2.5 0 .2.2.5.6.9.2 0 .3-.2.5-.7 0-.1-.1-.3-.2-.5.2 0 .3-.2.3-.7l-.2-.3c0-.2.3-.7.9-1.6 1.5-.6 2.3-1 2.3-1.2-.8-.6-1.1-1-1.1-1.2 0-.3.2-.5.5-.5v-.5h-.4l-.3.2-.4-1.9.2-.3-.4-1.2c.3 0 .4-.2.3-.4V33l-.2-.3c.2 0 .4-.4.5-1.2 0-.3-.2-.5-.4-.5h-.2l-.7.7h-.4c0-.5-.3-.7-.8-.7.2-.4.3-.7.3-1v-.2l-.2-.3c.3 0 .4-.2.4-.4v-.3l-.2-1.2c.5 0 .7-.2.7-.4V27c-.2 0-.7-.2-1.6-.7.1-.4.4-.7 1-1.1 0-.4-.3-.9-1-1.5-1.4.1-2.2-.4-2.4-1.3-.1-.9.1-1.3.5-1.4-.1-.3-.1-.5-.3-.7l.7-.7v-.3l-.2-.4-.7.6h-.2v-.2l.7-1.4-.8-.8c0-.2.1-.3.3-.4 0-.1-.1-.4-.2-1l-1.1-.6-.9.2-.2-.9v-.2c.3-.5.6-.7.7-.7 0-.2-.7-.6-1.9-1h-.5l-2.5.5c-.4-.3-.7-.5-1.1-.7-.2.4-.4.6-.5.6l-2.3.1c-1.2-.5-2.1-.7-2.7-.7v-.2c0-.2.2-.4.7-.4v-.5c-.5 0-1.1.2-1.6.6h-.2l.2-.3c-.1 0-.3-.1-.6-.2-.3 0-.5.2-.5.5l-1.5.1c-.2 0-.3-.2-.3-.7h-.2l-2.3 1.3zm2.4-1.6h.3v-.3h-.3v.3zm1-.3h.2c.2 0 .3-.1.3-.3h-.5v.3z"/><path class="st2" d="M451.6 0h80v87.5h-80z"/></svg>