<svg id="Layer_1" xmlns="http://www.w3.org/2000/svg" viewBox="0 0 728 90"><style>.st0{fill:#f9e038}</style><path class="st0" d="M34 57.8h-2.7v3.9c0 .9.5 1.3 1.4 1.3.4 0 .6 0 .9-.1l-.3 2.6c-.3.2-.9.3-1.6.3-2.3 0-3.7-1.2-3.7-3.3V58h-1.7v-2.8H28V53l3.4-1.2v3.4h3.4l-.8 2.6zM44.9 59.7l-1.5 1.5h-5.1c.2.9 1.3 1.8 3.1 1.8 1.1 0 2.2-.3 2.9-.8l-.3 2.9c-.8.4-2 .7-3.3.7-3.2 0-5.7-2.2-5.7-5.6 0-3.4 2.4-5.5 5.4-5.5 2.9 0 4.7 2 4.7 4.2-.1.2-.2.6-.2.8zm-4.6-2.4c-1 0-1.8.8-2 1.7h3.5v-.2c0-.8-.6-1.5-1.5-1.5zM52.9 58.7c-.2-.1-.7-.3-1-.3-1.1 0-2.1.6-2.1 2.2v4.9h-3.4V55.1h3.3v2.3c.3-1.6 1.6-2.5 3-2.5.3 0 .7 0 1 .1l-.8 3.7zM67.5 65.5v-6.4c0-.8-.4-1.4-1.5-1.4s-1.6.6-1.6 1.5v6.3H61v-6.4c0-.8-.4-1.4-1.5-1.4s-1.6.6-1.6 1.5v6.3h-3.4V55.1h3.1v1.4c.4-1.1 1.4-1.7 3.1-1.7 1.5 0 2.6.6 3.1 1.7.4-1 1.7-1.7 3.2-1.7 2.4 0 3.7 1.3 3.7 3.5v7.2h-3.2zM81.3 65.9c-2.1-.1-3.6-1.2-3.6-3.7V49.1H81v12.7c0 .9.5 1.3 1.4 1.4l-1.1 2.7zM85.3 53.7c-.6 0-1.8-1.2-1.8-1.8s1.2-1.8 1.8-1.8c.6 0 1.8 1.2 1.8 1.8s-1.2 1.8-1.8 1.8zm-1.7 11.8V55.1H87v10.4h-3.4zM96.3 52.1c-.4-.2-.9-.3-1.4-.3-1.2 0-1.9.7-1.9 2.2v1h3l-.7 2.8H93v7.7h-3.3v-7.7h-1.6V55h1.6v-1.2c0-3.2 2-4.7 4.7-4.7 1 0 1.9.1 2.5.3l-.6 2.7zM106.3 59.7l-1.5 1.5h-5.1c.2.9 1.3 1.8 3.1 1.8 1.1 0 2.2-.3 2.9-.8l-.3 2.9c-.8.4-2 .7-3.3.7-3.2 0-5.7-2.2-5.7-5.6 0-3.4 2.4-5.5 5.4-5.5 2.9 0 4.7 2 4.7 4.2-.1.2-.2.6-.2.8zm-4.6-2.4c-1 0-1.8.8-2 1.7h3.5v-.2c0-.8-.6-1.5-1.5-1.5zM114.6 53.7c-.6 0-1.8-1.2-1.8-1.8s1.2-1.8 1.8-1.8c.6 0 1.8 1.2 1.8 1.8s-1.2 1.8-1.8 1.8zm-1.7 11.8V55.1h3.4v10.4h-3.4zM124.9 65.5v-6.4c0-.8-.5-1.4-1.5-1.4s-1.7.6-1.7 1.5v6.3h-3.4V55.1h3.1v1.4c.4-1.1 1.5-1.7 3.2-1.7 2.3 0 3.7 1.3 3.7 3.5v7.2h-3.4zM133.5 65.7c-1.4 0-2.5-.3-3.3-.7l-.3-3c.9.6 2.1 1.1 3.3 1.1.6 0 1-.3 1-.7 0-.4-.3-.6-.9-.8-2-.6-3.2-1.6-3.2-3.4 0-2 1.7-3.4 3.9-3.4 1.3 0 2.6.3 3.1.6l-.6 2.5c-.5-.3-1.3-.6-2.2-.6-.6 0-.9.3-.9.7 0 .4.3.6.9.8 2.3.6 3.3 1.8 3.3 3.5 0 1.8-1.3 3.4-4.1 3.4zM145.9 65.5v-1.4c-.4 1.1-1.5 1.7-3.2 1.7-2.3 0-3.7-1.3-3.7-3.5v-7.2h3.4v6.4c0 .8.5 1.4 1.6 1.4 1 0 1.6-.7 1.6-1.5v-6.3h3.4v10.4h-3.1zM157.4 58.7c-.2-.1-.7-.3-1-.3-1.1 0-2.1.6-2.1 2.2v4.9h-3.4V55.1h3.3v2.3c.3-1.6 1.6-2.5 3-2.5.3 0 .7 0 1 .1l-.8 3.7zM166.4 66c-.6-.1-1.3-.6-1.6-1.4-.5.9-1.4 1.3-2.7 1.3-1.8 0-3.5-1.3-3.5-3.4 0-1.9 1.5-3.2 3.6-3.4l2.1-.2v-.3c0-.6-.5-1-1.6-1-1 0-2.1.3-2.9.8l-.6-2.6c.9-.6 2.3-.9 3.7-.9 2.8 0 4.7 1.3 4.7 3.8v3.4c0 1.2.5 1.9 1.3 2.2l-2.5 1.7zm-2.2-5.1l-1.3.1c-.9.1-1.3.7-1.3 1.3 0 .6.4 1 1.1 1 .8 0 1.5-.6 1.5-1.5v-.9zM176.3 65.5v-6.4c0-.8-.5-1.4-1.5-1.4s-1.7.6-1.7 1.5v6.3h-3.4V55.1h3.1v1.4c.4-1.1 1.5-1.7 3.2-1.7 2.3 0 3.7 1.3 3.7 3.5v7.2h-3.4zM189.5 58.4c-.7-.4-1.4-.7-2.2-.7-1.5 0-2.6 1.1-2.6 2.6s1.2 2.6 2.7 2.6c.9 0 1.5-.2 2.3-.6l-.3 2.9c-.7.3-1.6.5-2.6.5-2.9 0-5.6-2.1-5.6-5.4 0-3.4 2.7-5.4 5.6-5.4 1.4 0 2.5.3 3.4.8l-.7 2.7zM200.8 59.7l-1.5 1.5h-5.1c.2.9 1.3 1.8 3.1 1.8 1.1 0 2.2-.3 2.9-.8l-.3 2.9c-.8.4-2 .7-3.3.7-3.2 0-5.7-2.2-5.7-5.6 0-3.4 2.4-5.5 5.4-5.5 2.9 0 4.7 2 4.7 4.2-.1.2-.1.6-.2.8zm-4.5-2.4c-1 0-1.8.8-2 1.7h3.5v-.2c0-.8-.6-1.5-1.5-1.5zM207 60.4v-2.6h6v2.6h-6zM223 65.7c-1.4 0-2.5-.3-3.3-.7l-.3-3c.9.6 2.1 1.1 3.3 1.1.6 0 1-.3 1-.7 0-.4-.3-.6-.9-.8-2-.6-3.2-1.6-3.2-3.4 0-2 1.7-3.4 3.9-3.4 1.3 0 2.6.3 3.1.6L226 58c-.5-.3-1.3-.6-2.2-.6-.6 0-.9.3-.9.7 0 .4.3.6.9.8 2.3.6 3.3 1.8 3.3 3.5s-1.3 3.3-4.1 3.3zM235.9 66c-.6-.1-1.3-.6-1.6-1.4-.5.9-1.4 1.3-2.7 1.3-1.8 0-3.5-1.3-3.5-3.4 0-1.9 1.5-3.2 3.6-3.4l2.1-.2v-.3c0-.6-.5-1-1.6-1-1 0-2.1.3-2.9.8l-.6-2.6c.9-.6 2.3-.9 3.7-.9 2.8 0 4.7 1.3 4.7 3.8v3.4c0 1.2.5 1.9 1.3 2.2l-2.5 1.7zm-2.2-5.1l-1.3.1c-.9.1-1.3.7-1.3 1.3 0 .6.4 1 1.1 1 .8 0 1.5-.6 1.5-1.5v-.9z"/><path class="st0" d="M245 64.5c-1.6 4.2-3.2 5.7-5.2 6.5l-2.1-2.1c1.7-.6 3-1.9 3.8-4.1l-3.7-9.7h3.3l1.5 4c.2.6.5 1.3.6 2 .2-.7.4-1.4.7-2l1.5-4h3.1l-3.5 9.4zM252.5 65.7c-1.4 0-2.5-.3-3.3-.7l-.3-3c.9.6 2.1 1.1 3.3 1.1.6 0 1-.3 1-.7 0-.4-.3-.6-.9-.8-2-.6-3.2-1.6-3.2-3.4 0-2 1.7-3.4 3.9-3.4 1.3 0 2.6.3 3.1.6l-.6 2.5c-.5-.3-1.3-.6-2.2-.6-.6 0-.9.3-.9.7 0 .4.3.6.9.8 2.3.6 3.3 1.8 3.3 3.5 0 1.8-1.3 3.4-4.1 3.4zM269.4 58.7c-.2-.1-.7-.3-1-.3-1.1 0-2.1.6-2.1 2.2v4.9H263V55.1h3.3v2.3c.3-1.6 1.6-2.5 3-2.5.3 0 .7 0 1 .1l-.9 3.7zM280.5 59.7l-1.5 1.5h-5.1c.2.9 1.3 1.8 3.1 1.8 1.1 0 2.2-.3 2.9-.8l-.3 2.9c-.8.4-2 .7-3.3.7-3.2 0-5.7-2.2-5.7-5.6 0-3.4 2.4-5.5 5.4-5.5 2.9 0 4.7 2 4.7 4.2-.1.2-.1.6-.2.8zm-4.6-2.4c-1 0-1.8.8-2 1.7h3.5v-.2c.1-.8-.6-1.5-1.5-1.5zM287.4 65.6h-2.5l-4-10.5h3.3l1.5 4c.2.6.4 1.3.6 2 .2-.7.4-1.5.6-2l1.5-4h3.1l-4.1 10.5zM294.1 53.7c-.6 0-1.8-1.2-1.8-1.8s1.2-1.8 1.8-1.8c.6 0 1.8 1.2 1.8 1.8s-1.2 1.8-1.8 1.8zm-1.7 11.8V55.1h3.4v10.4h-3.4zM307.3 59.7l-1.5 1.5h-5.1c.2.9 1.3 1.8 3.1 1.8 1.1 0 2.2-.3 2.9-.8l-.3 2.9c-.8.4-2 .7-3.3.7-3.2 0-5.7-2.2-5.7-5.6 0-3.4 2.4-5.5 5.4-5.5 2.9 0 4.7 2 4.7 4.2-.1.2-.2.6-.2.8zm-4.6-2.4c-1 0-1.8.8-2 1.7h3.5v-.2c0-.8-.6-1.5-1.5-1.5zM319.9 65.6h-2.3l-1.4-4.1c-.2-.6-.4-1.4-.6-2.2-.2.8-.4 1.5-.6 2.1l-1.4 4.2h-2.2l-3.6-10.5h3.1l1.3 4c.2.6.4 1.3.5 2 .1-.6.3-1.4.5-2l1.3-4h2.6l1.3 3.9c.2.6.3 1.4.5 2 .1-.7.3-1.4.5-2l1.3-3.9h2.9l-3.7 10.5zM327.6 65.7c-1.4 0-2.5-.3-3.3-.7l-.3-3c.9.6 2.1 1.1 3.3 1.1.6 0 1-.3 1-.7 0-.4-.3-.6-.9-.8-2-.6-3.2-1.6-3.2-3.4 0-2 1.7-3.4 3.9-3.4 1.3 0 2.6.3 3.1.6l-.6 2.5c-.5-.3-1.3-.6-2.2-.6-.6 0-.9.3-.9.7 0 .4.3.6.9.8 2.3.6 3.3 1.8 3.3 3.5 0 1.8-1.3 3.4-4.1 3.4zM334.8 65.8c-.6 0-1.9-1.3-1.9-1.9 0-.6 1.3-1.9 1.9-1.9.6 0 1.9 1.3 1.9 1.9 0 .6-1.3 1.9-1.9 1.9zM345.8 58.4c-.7-.4-1.4-.7-2.2-.7-1.5 0-2.6 1.1-2.6 2.6s1.2 2.6 2.7 2.6c.9 0 1.5-.2 2.3-.6l-.3 2.9c-.7.3-1.6.5-2.6.5-2.9 0-5.6-2.1-5.6-5.4 0-3.4 2.7-5.4 5.6-5.4 1.4 0 2.5.3 3.4.8l-.7 2.7zM352.9 65.8c-3.2 0-5.7-2.2-5.7-5.5s2.5-5.5 5.7-5.5c3.1 0 5.7 2.2 5.7 5.5s-2.6 5.5-5.7 5.5zm0-8.1c-1.3 0-2.3 1.1-2.3 2.6s1.1 2.6 2.3 2.6c1.2 0 2.3-1.1 2.3-2.6s-1.1-2.6-2.3-2.6zM372.9 65.5v-6.4c0-.8-.4-1.4-1.5-1.4s-1.6.6-1.6 1.5v6.3h-3.4v-6.4c0-.8-.4-1.4-1.5-1.4s-1.6.6-1.6 1.5v6.3H360V55.1h3.1v1.4c.4-1.1 1.4-1.7 3.1-1.7 1.5 0 2.6.6 3.1 1.7.4-1 1.7-1.7 3.2-1.7 2.4 0 3.7 1.3 3.7 3.5v7.2h-3.3z"/><g><path class="st0" d="M36 40.3L34.8 37h-4.7l-1.2 3.3h-3.4l5.8-14.8h2.5l5.8 14.8H36zm-3.1-8.8c-.1-.4-.3-.9-.4-1.4-.1.5-.3 1-.4 1.4l-1 2.7H34l-1.1-2.7zM47.9 26.9c-.4-.2-.9-.3-1.4-.3-1.2 0-1.9.7-1.9 2.2v1h3l-.6 2.8h-2.3v7.7h-3.3v-7.7h-1.6v-2.8h1.6v-1.2c0-3.2 2-4.7 4.7-4.7 1 0 1.9.1 2.5.3l-.7 2.7zM55.9 26.9c-.4-.2-.9-.3-1.4-.3-1.2 0-1.9.7-1.9 2.2v1h3l-.6 2.8h-2.3v7.7h-3.3v-7.7h-1.6v-2.8h1.6v-1.2c0-3.2 2-4.7 4.7-4.7 1 0 1.9.1 2.5.3l-.7 2.7zM61.9 40.6c-3.2 0-5.7-2.2-5.7-5.5s2.5-5.5 5.7-5.5c3.1 0 5.7 2.2 5.7 5.5s-2.5 5.5-5.7 5.5zm0-8.1c-1.3 0-2.3 1.1-2.3 2.6s1.1 2.6 2.3 2.6c1.2 0 2.3-1.1 2.3-2.6s-1-2.6-2.3-2.6zM75.5 33.5c-.2-.1-.7-.3-1-.3-1.1 0-2.1.6-2.1 2.2v4.9H69V29.9h3.3v2.3c.3-1.6 1.6-2.5 3-2.5.3 0 .7 0 1 .1l-.8 3.7zM85.1 40.3V39c-.6 1.1-1.8 1.6-3.2 1.6-2.6 0-5-1.9-5-5.5 0-3.4 2.4-5.5 5.3-5.5 1.1 0 2.2.4 2.6.7V24h3.3v16.4h-3zm-.3-6.8c-.3-.4-1-.9-2-.9-1.5 0-2.5 1.1-2.5 2.6s1 2.6 2.5 2.6c1 0 1.7-.5 2-1.1v-3.2zM97.3 40.8c-.6-.1-1.3-.6-1.6-1.4-.5.9-1.4 1.3-2.7 1.3-1.8 0-3.5-1.3-3.5-3.4 0-1.9 1.5-3.2 3.6-3.4l2.1-.2v-.3c0-.6-.5-1-1.6-1-1 0-2.1.3-2.9.8l-.6-2.6c.9-.6 2.3-.9 3.7-.9 2.8 0 4.7 1.3 4.7 3.8v3.4c0 1.2.5 1.9 1.3 2.2l-2.5 1.7zm-2.1-5.1l-1.3.1c-.9.1-1.3.7-1.3 1.3 0 .6.4 1 1.1 1 .8 0 1.5-.6 1.5-1.5v-.9zM105.7 40.6c-2.2 0-4-.8-5-1.5V23.9h3.3v6.3c.4-.3 1.5-.7 2.6-.7 2.9 0 5.2 2 5.2 5.3s-2 5.8-6.1 5.8zm.3-8.1c-1 0-1.7.5-2 .8v4c.3.3 1.1.5 1.7.5 1.7 0 2.8-1.2 2.8-2.7 0-1.4-1-2.6-2.5-2.6zM115.1 28.5c-.6 0-1.8-1.2-1.8-1.8 0-.6 1.2-1.8 1.8-1.8.6 0 1.8 1.2 1.8 1.8 0 .5-1.2 1.8-1.8 1.8zm-1.7 11.8V29.9h3.4v10.4h-3.4zM122.4 40.7c-2.1-.1-3.6-1.2-3.6-3.7V23.9h3.3v12.7c0 .9.5 1.3 1.4 1.4l-1.1 2.7zM126.5 28.5c-.6 0-1.8-1.2-1.8-1.8 0-.6 1.2-1.8 1.8-1.8.6 0 1.8 1.2 1.8 1.8 0 .5-1.2 1.8-1.8 1.8zm-1.7 11.8V29.9h3.4v10.4h-3.4zM137.1 32.6h-2.7v3.9c0 .9.5 1.3 1.4 1.3.4 0 .6 0 .9-.1l-.3 2.6c-.3.2-.9.3-1.6.3-2.3 0-3.7-1.2-3.7-3.3v-4.5h-1.7V30h1.7v-2.2l3.4-1.2V30h3.4l-.8 2.6z"/><path class="st0" d="M145.1 39.3c-1.6 4.2-3.2 5.7-5.2 6.5l-2.1-2.1c1.7-.6 3-1.9 3.8-4.1l-3.7-9.7h3.3l1.5 4c.2.6.5 1.3.6 2 .2-.7.4-1.4.7-2l1.5-4h3.1l-3.5 9.4zM162.1 40.8c-.6-.1-1.3-.6-1.6-1.4-.5.9-1.4 1.3-2.7 1.3-1.8 0-3.5-1.3-3.5-3.4 0-1.9 1.5-3.2 3.6-3.4l2.1-.2v-.3c0-.6-.5-1-1.6-1-1 0-2.1.3-2.9.8l-.6-2.6c.9-.6 2.3-.9 3.7-.9 2.8 0 4.7 1.3 4.7 3.8v3.4c0 1.2.5 1.9 1.3 2.2l-2.5 1.7zm-2.2-5.1l-1.3.1c-.9.1-1.3.7-1.3 1.3 0 .6.4 1 1.1 1 .8 0 1.5-.6 1.5-1.5v-.9zM171.9 40.3v-6.4c0-.8-.5-1.4-1.5-1.4s-1.7.6-1.7 1.5v6.3h-3.4V29.9h3.1v1.4c.4-1.1 1.5-1.7 3.2-1.7 2.3 0 3.7 1.3 3.7 3.5v7.2h-3.4zM185 40.3V39c-.6 1.1-1.8 1.6-3.2 1.6-2.6 0-5-1.9-5-5.5 0-3.4 2.4-5.5 5.3-5.5 1.1 0 2.2.4 2.6.7V24h3.3v16.4h-3zm-.4-6.8c-.3-.4-1-.9-2-.9-1.5 0-2.5 1.1-2.5 2.6s1 2.6 2.5 2.6c1 0 1.7-.5 2-1.1v-3.2zM202.2 40.8c-.6-.1-1.3-.6-1.6-1.4-.5.9-1.4 1.3-2.7 1.3-1.8 0-3.5-1.3-3.5-3.4 0-1.9 1.5-3.2 3.6-3.4l2.1-.2v-.3c0-.6-.5-1-1.6-1-1 0-2.1.3-2.9.8l-.6-2.6c.9-.6 2.3-.9 3.7-.9 2.8 0 4.7 1.3 4.7 3.8v3.4c0 1.2.5 1.9 1.3 2.2l-2.5 1.7zm-2.2-5.1l-1.3.1c-.9.1-1.3.7-1.3 1.3 0 .6.4 1 1.1 1 .8 0 1.5-.6 1.5-1.5v-.9zM212 40.3v-6.4c0-.8-.5-1.4-1.5-1.4s-1.7.6-1.7 1.5v6.3h-3.4V29.9h3.1v1.4c.4-1.1 1.5-1.7 3.2-1.7 2.3 0 3.7 1.3 3.7 3.5v7.2H212zM231.8 34.5l-1.5 1.5h-5.1c.2.9 1.3 1.8 3.1 1.8 1.1 0 2.2-.3 2.9-.8l-.3 2.9c-.8.4-2 .7-3.3.7-3.2 0-5.7-2.2-5.7-5.6 0-3.4 2.4-5.5 5.4-5.5 2.9 0 4.7 2 4.7 4.2-.1.2-.1.6-.2.8zm-4.6-2.4c-1 0-1.8.8-2 1.7h3.5v-.2c.1-.8-.6-1.5-1.5-1.5zM240.7 40.8c-.6-.1-1.3-.6-1.6-1.4-.5.9-1.4 1.3-2.7 1.3-1.8 0-3.5-1.3-3.5-3.4 0-1.9 1.5-3.2 3.6-3.4l2.1-.2v-.3c0-.6-.5-1-1.6-1-1 0-2.1.3-2.9.8l-.6-2.6c.9-.6 2.3-.9 3.7-.9 2.8 0 4.7 1.3 4.7 3.8v3.4c0 1.2.5 1.9 1.3 2.2l-2.5 1.7zm-2.2-5.1l-1.3.1c-.9.1-1.3.7-1.3 1.3 0 .6.4 1 1.1 1 .8 0 1.5-.6 1.5-1.5v-.9zM247.3 40.5c-1.4 0-2.5-.3-3.3-.7l-.3-3c.9.6 2.1 1.1 3.3 1.1.6 0 1-.3 1-.7 0-.4-.3-.6-.9-.8-2-.6-3.2-1.6-3.2-3.4 0-2 1.7-3.4 3.9-3.4 1.3 0 2.6.3 3.1.6l-.6 2.5c-.5-.3-1.3-.6-2.2-.6-.6 0-.9.3-.9.7 0 .4.3.6.9.8 2.3.6 3.3 1.8 3.3 3.5 0 1.8-1.2 3.4-4.1 3.4zM259.3 39.3c-1.6 4.2-3.2 5.7-5.2 6.5l-2.1-2.1c1.7-.6 3-1.9 3.8-4.1l-3.7-9.7h3.3l1.5 4c.2.6.5 1.3.6 2 .2-.7.4-1.4.7-2l1.5-4h3.1l-3.5 9.4zM276.2 40.8c-.6-.1-1.3-.6-1.6-1.4-.5.9-1.4 1.3-2.7 1.3-1.8 0-3.5-1.3-3.5-3.4 0-1.9 1.5-3.2 3.6-3.4l2.1-.2v-.3c0-.6-.5-1-1.6-1-1 0-2.1.3-2.9.8l-.6-2.6c.9-.6 2.3-.9 3.7-.9 2.8 0 4.7 1.3 4.7 3.8v3.4c0 1.2.5 1.9 1.3 2.2l-2.5 1.7zm-2.1-5.1l-1.3.1c-.9.1-1.3.7-1.3 1.3 0 .6.4 1 1.1 1 .8 0 1.5-.6 1.5-1.5v-.9zM285.4 40.6c-1.1 0-2.2-.3-2.6-.7v5.7h-3.3V29.9h3v1.3c.6-1.1 1.8-1.6 3.2-1.6 2.6 0 5 1.9 5 5.5 0 3.3-2.4 5.5-5.3 5.5zm-.6-8.1c-1 0-1.7.5-2 1.1v3.3c.3.4 1 .9 2 .9 1.5 0 2.5-1.1 2.5-2.6s-1-2.7-2.5-2.7zM298.1 40.6c-1.1 0-2.2-.3-2.6-.7v5.7h-3.3V29.9h3v1.3c.6-1.1 1.8-1.6 3.2-1.6 2.6 0 5 1.9 5 5.5 0 3.3-2.4 5.5-5.3 5.5zm-.6-8.1c-1 0-1.7.5-2 1.1v3.3c.3.4 1 .9 2 .9 1.5 0 2.5-1.1 2.5-2.6s-1.1-2.7-2.5-2.7zM308.4 40.7c-2.1-.1-3.6-1.2-3.6-3.7V23.9h3.3v12.7c0 .9.5 1.3 1.4 1.4l-1.1 2.7zM312.6 28.5c-.6 0-1.8-1.2-1.8-1.8 0-.6 1.2-1.8 1.8-1.8.6 0 1.8 1.2 1.8 1.8 0 .5-1.2 1.8-1.8 1.8zm-1.7 11.8V29.9h3.4v10.4h-3.4zM324.2 33.2c-.7-.4-1.4-.7-2.2-.7-1.5 0-2.6 1.1-2.6 2.6s1.2 2.6 2.7 2.6c.9 0 1.5-.2 2.3-.6L324 40c-.7.3-1.6.5-2.6.5-2.9 0-5.6-2.1-5.6-5.4 0-3.4 2.7-5.4 5.6-5.4 1.4 0 2.5.3 3.4.8l-.6 2.7zM333.6 40.8c-.6-.1-1.3-.6-1.6-1.4-.5.9-1.4 1.3-2.7 1.3-1.8 0-3.5-1.3-3.5-3.4 0-1.9 1.5-3.2 3.6-3.4l2.1-.2v-.3c0-.6-.5-1-1.6-1-1 0-2.1.3-2.9.8l-.6-2.6c.9-.6 2.3-.9 3.7-.9 2.8 0 4.7 1.3 4.7 3.8v3.4c0 1.2.5 1.9 1.3 2.2l-2.5 1.7zm-2.1-5.1l-1.3.1c-.9.1-1.3.7-1.3 1.3 0 .6.4 1 1.1 1 .8 0 1.5-.6 1.5-1.5v-.9zM343.9 32.6h-2.7v3.9c0 .9.5 1.3 1.4 1.3.4 0 .6 0 .9-.1l-.3 2.6c-.3.2-.9.3-1.6.3-2.3 0-3.7-1.2-3.7-3.3v-4.5h-1.7V30h1.7v-2.2l3.4-1.2V30h3.4l-.8 2.6zM347.3 28.5c-.6 0-1.8-1.2-1.8-1.8 0-.6 1.2-1.8 1.8-1.8s1.8 1.2 1.8 1.8c0 .5-1.2 1.8-1.8 1.8zm-1.7 11.8V29.9h3.4v10.4h-3.4zM356.2 40.6c-3.2 0-5.7-2.2-5.7-5.5s2.5-5.5 5.7-5.5c3.1 0 5.7 2.2 5.7 5.5s-2.6 5.5-5.7 5.5zm0-8.1c-1.3 0-2.3 1.1-2.3 2.6s1.1 2.6 2.3 2.6c1.2 0 2.3-1.1 2.3-2.6s-1.1-2.6-2.3-2.6zM369.9 40.3v-6.4c0-.8-.5-1.4-1.5-1.4s-1.7.6-1.7 1.5v6.3h-3.4V29.9h3.1v1.4c.4-1.1 1.5-1.7 3.2-1.7 2.3 0 3.7 1.3 3.7 3.5v7.2h-3.4zM387.3 26.9c-.4-.2-.9-.3-1.4-.3-1.2 0-1.9.7-1.9 2.2v1h3l-.7 2.8H384v7.7h-3.3v-7.7h-1.6v-2.8h1.6v-1.2c0-3.2 2-4.7 4.7-4.7 1 0 1.9.1 2.5.3l-.6 2.7zM393.3 40.6c-3.2 0-5.7-2.2-5.7-5.5s2.5-5.5 5.7-5.5c3.1 0 5.7 2.2 5.7 5.5s-2.5 5.5-5.7 5.5zm0-8.1c-1.3 0-2.3 1.1-2.3 2.6s1.1 2.6 2.3 2.6c1.2 0 2.3-1.1 2.3-2.6s-1-2.6-2.3-2.6zM406.9 33.5c-.2-.1-.7-.3-1-.3-1.1 0-2.1.6-2.1 2.2v4.9h-3.4V29.9h3.3v2.3c.3-1.6 1.6-2.5 3-2.5.3 0 .7 0 1 .1l-.8 3.7z"/></g></svg>