<svg id="Layer_1" xmlns="http://www.w3.org/2000/svg" viewBox="0 0 728 90"><style>.st0{fill:#f9e038}</style><path class="st0" d="M41.9 40h-2.3l-2.1-6.5c-.3-1-.6-2-1-3.3-.3 1.3-.6 2.3-1 3.3L33.4 40h-2.2l-4.9-14.8h3.5l1.9 5.9c.3.9.6 1.8.8 2.9.2-1.1.5-2 .8-2.9l1.9-5.9h3.1l1.9 5.9c.3.8.6 1.9.8 3 .2-1.1.5-2.1.8-2.9l2-5.9h3.1l-5 14.7zM54.4 39.9v-6.4c0-.8-.5-1.4-1.6-1.4-1 0-1.6.6-1.6 1.5v6.3h-3.4V23.5h3.3v6.9c.5-.8 1.5-1.3 2.9-1.3 2.3 0 3.7 1.3 3.7 3.5v7.2h-3.3zM65.6 38.8c-1.6 4.2-3.2 5.7-5.2 6.5l-2.1-2.1c1.7-.6 3-1.9 3.8-4.1l-3.7-9.7h3.3l1.5 4c.2.6.5 1.3.6 2 .2-.7.4-1.4.7-2l1.5-4h3.1l-3.5 9.4zM83.1 39.9v-1.3c-.6 1.1-1.8 1.6-3.2 1.6-2.6 0-5-1.9-5-5.5 0-3.4 2.4-5.5 5.3-5.5 1.1 0 2.2.4 2.6.7v-6.3H86V40h-2.9zm-.4-6.8c-.3-.4-1-.9-2-.9-1.5 0-2.5 1.1-2.5 2.6s1 2.6 2.5 2.6c1 0 1.7-.5 2-1.1v-3.2zM93.2 40.2c-3.2 0-5.7-2.2-5.7-5.5s2.5-5.5 5.7-5.5c3.1 0 5.7 2.2 5.7 5.5s-2.6 5.5-5.7 5.5zm0-8.1c-1.3 0-2.3 1.1-2.3 2.6s1.1 2.6 2.3 2.6c1.2 0 2.3-1.1 2.3-2.6s-1.1-2.6-2.3-2.6zM109.9 34.1l-1.5 1.5h-5.1c.2.9 1.3 1.8 3.1 1.8 1.1 0 2.2-.3 2.9-.8l-.3 2.9c-.8.4-2 .7-3.3.7-3.2 0-5.7-2.2-5.7-5.6 0-3.4 2.4-5.5 5.4-5.5 2.9 0 4.7 2 4.7 4.2-.1.2-.2.6-.2.8zm-4.6-2.4c-1 0-1.8.8-2 1.7h3.5v-.2c0-.8-.6-1.5-1.5-1.5zM114.7 40.1c-1.4 0-2.5-.3-3.3-.7l-.3-3c.9.6 2.1 1.1 3.3 1.1.6 0 1-.3 1-.7 0-.4-.3-.6-.9-.8-2-.6-3.2-1.6-3.2-3.4 0-2 1.7-3.4 3.9-3.4 1.3 0 2.6.3 3.1.6l-.6 2.5c-.5-.3-1.3-.6-2.2-.6-.6 0-.9.3-.9.7 0 .4.3.6.9.8 2.3.6 3.3 1.8 3.3 3.5 0 1.8-1.3 3.4-4.1 3.4zM132.1 28.1v11.8h-3.6V28.1h-4.2v-2.9h12v2.9h-4.2zM137.5 39.9V25.2h3.6v14.7h-3.6zM152.8 39.9l-1.2-3.3h-4.7l-1.2 3.3h-3.4l5.8-14.8h2.5l5.8 14.8h-3.6zm-3.1-8.8c-.1-.4-.3-.9-.4-1.4-.1.5-.3 1-.4 1.4l-1 2.7h2.9l-1.1-2.7zM167.4 39.9l-1.2-3.3h-4.7l-1.2 3.3H157l5.8-14.8h2.5l5.8 14.8h-3.7zm-3.1-8.8c-.1-.4-.3-.9-.4-1.4-.1.5-.3 1-.4 1.4l-1 2.7h2.9l-1.1-2.7zM177.2 39.9V25.2h3.6V37h5.5v2.9h-9.1zM189 28c-.6 0-1.8-1.2-1.8-1.8 0-.6 1.2-1.8 1.8-1.8.6 0 1.8 1.2 1.8 1.8 0 .6-1.2 1.8-1.8 1.8zm-1.7 11.9V29.5h3.4v10.4h-3.4zM199.9 26.5c-.4-.2-.9-.3-1.4-.3-1.2 0-1.9.7-1.9 2.2v1h3l-.7 2.8h-2.3v7.7h-3.3v-7.7h-1.6v-2.8h1.6v-1.2c0-3.2 2-4.7 4.7-4.7 1 0 1.9.1 2.5.3l-.6 2.7zM209.9 34.1l-1.5 1.5h-5.1c.2.9 1.3 1.8 3.1 1.8 1.1 0 2.2-.3 2.9-.8l-.3 2.9c-.8.4-2 .7-3.3.7-3.2 0-5.7-2.2-5.7-5.6 0-3.4 2.4-5.5 5.4-5.5 2.9 0 4.7 2 4.7 4.2-.1.2-.1.6-.2.8zm-4.5-2.4c-1 0-1.8.8-2 1.7h3.5v-.2c0-.8-.7-1.5-1.5-1.5zM221 45.2c-3 0-5.1-1.7-5.1-3.9 0-1.6 1.1-2.5 2.1-2.8l-1.3-1.3c.1-.7.7-1.2 1.3-1.5-.8-.5-1.5-1.5-1.5-2.8 0-2.2 1.6-3.7 4.3-3.7.6 0 1.1.1 1.5.2.5.1 1 .2 1.5.2.6 0 1.2-.1 1.6-.3l.6 2.6c-.3.2-.8.3-1.3.3.1.2.3.7.3 1.1 0 1.7-1.4 3.2-3.4 3.4-.4 0-.7.1-.7.4 0 .1.1.3.3.3l1.6.6c2 .7 3.1 1.8 3.1 3.7.1 1.9-1.8 3.5-4.9 3.5zm.7-4.9l-1.2-.3c-.8 0-1.4.6-1.4 1.4 0 .7.6 1.3 1.8 1.3 1.2 0 1.8-.6 1.8-1.1.1-.6-.3-1.1-1-1.3zm-.9-8.7c-.8 0-1.3.6-1.3 1.2 0 .7.6 1.2 1.3 1.2.7 0 1.3-.6 1.3-1.2.1-.6-.5-1.2-1.3-1.2zM236.7 34.1l-1.5 1.5h-5.1c.2.9 1.3 1.8 3.1 1.8 1.1 0 2.2-.3 2.9-.8l-.3 2.9c-.8.4-2 .7-3.3.7-3.2 0-5.7-2.2-5.7-5.6 0-3.4 2.4-5.5 5.4-5.5 2.9 0 4.7 2 4.7 4.2-.2.2-.2.6-.2.8zm-4.6-2.4c-1 0-1.8.8-2 1.7h3.5v-.2c0-.8-.6-1.5-1.5-1.5zM245.3 32.2h-2.7v3.9c0 .9.5 1.3 1.4 1.3.4 0 .6 0 .9-.1l-.3 2.6c-.3.2-.9.3-1.6.3-2.3 0-3.7-1.2-3.7-3.3v-4.5h-1.7v-2.8h1.7v-2.2l3.4-1.2v3.4h3.4l-.8 2.6zM253.3 31.8c-.5 0-1.9-1.2-1.9-1.9 0-1.4 1.4-3.8 2.8-5l1.1.2c-.8.9-1.4 2.2-1.5 3.2.6.1 1.5 1.1 1.5 1.6-.1.7-1.4 1.9-2 1.9zm4.7 0c-.5 0-1.9-1.2-1.9-1.9 0-1.4 1.4-3.8 2.8-5l1.1.2c-.8.9-1.4 2.2-1.5 3.2.6.1 1.5 1.1 1.5 1.6 0 .7-1.4 1.9-2 1.9zM269 32.2h-2.7v3.9c0 .9.5 1.3 1.4 1.3.4 0 .6 0 .9-.1l-.3 2.6c-.3.2-.9.3-1.6.3-2.3 0-3.7-1.2-3.7-3.3v-4.5h-1.7v-2.8h1.7v-2.2l3.4-1.2v3.4h3.4l-.8 2.6zM275.6 40.2c-3.2 0-5.7-2.2-5.7-5.5s2.5-5.5 5.7-5.5c3.1 0 5.7 2.2 5.7 5.5-.1 3.3-2.6 5.5-5.7 5.5zm0-8.1c-1.3 0-2.3 1.1-2.3 2.6s1.1 2.6 2.3 2.6c1.2 0 2.3-1.1 2.3-2.6s-1.1-2.6-2.3-2.6zM288.7 40.2c-1.1 0-2.2-.3-2.6-.7v5.7h-3.3V29.5h3v1.3c.6-1.1 1.8-1.6 3.2-1.6 2.6 0 5 1.9 5 5.5-.1 3.3-2.4 5.5-5.3 5.5zm-.6-8.1c-1 0-1.7.5-2 1.1v3.3c.3.4 1 .9 2 .9 1.5 0 2.5-1.1 2.5-2.6s-1.1-2.7-2.5-2.7zM305 45.2c-3 0-5.1-1.7-5.1-3.9 0-1.6 1.1-2.5 2.1-2.8l-1.3-1.3c.1-.7.7-1.2 1.3-1.5-.8-.5-1.5-1.5-1.5-2.8 0-2.2 1.6-3.7 4.3-3.7.6 0 1.1.1 1.5.2.5.1 1 .2 1.5.2.6 0 1.2-.1 1.6-.3l.6 2.6c-.3.2-.8.3-1.3.3.1.2.3.7.3 1.1 0 1.7-1.4 3.2-3.4 3.4-.4 0-.7.1-.7.4 0 .1.1.3.3.3l1.6.6c2 .7 3.1 1.8 3.1 3.7.1 1.9-1.9 3.5-4.9 3.5zm.7-4.9l-1.2-.3c-.8 0-1.4.6-1.4 1.4 0 .7.6 1.3 1.8 1.3 1.2 0 1.8-.6 1.8-1.1 0-.6-.3-1.1-1-1.3zm-.9-8.7c-.8 0-1.3.6-1.3 1.2 0 .7.6 1.2 1.3 1.2.7 0 1.3-.6 1.3-1.2s-.5-1.2-1.3-1.2zM317.6 33.1c-.2-.1-.7-.3-1-.3-1.1 0-2.1.6-2.1 2.2v4.9h-3.4V29.5h3.3v2.3c.3-1.6 1.6-2.5 3-2.5.3 0 .7 0 1 .1l-.8 3.7zM326.7 40.3c-.6-.1-1.3-.6-1.6-1.4-.5.9-1.4 1.3-2.7 1.3-1.8 0-3.5-1.3-3.5-3.4 0-1.9 1.5-3.2 3.6-3.4l2.1-.2v-.3c0-.6-.5-1-1.6-1-1 0-2.1.3-2.9.8l-.6-2.6c.9-.6 2.3-.9 3.7-.9 2.8 0 4.7 1.3 4.7 3.8v3.4c0 1.2.5 1.9 1.3 2.2l-2.5 1.7zm-2.2-5l-1.3.1c-.9.1-1.3.7-1.3 1.3 0 .6.4 1 1.1 1 .8 0 1.5-.6 1.5-1.5v-.9zM337.6 39.9v-1.3c-.6 1.1-1.8 1.6-3.2 1.6-2.6 0-5-1.9-5-5.5 0-3.4 2.4-5.5 5.3-5.5 1.1 0 2.2.4 2.6.7v-6.3h3.3V40h-3zm-.3-6.8c-.3-.4-1-.9-2-.9-1.5 0-2.5 1.1-2.5 2.6s1 2.6 2.5 2.6c1 0 1.7-.5 2-1.1v-3.2zM352.1 34.1l-1.5 1.5h-5.1c.2.9 1.3 1.8 3.1 1.8 1.1 0 2.2-.3 2.9-.8l-.3 2.9c-.8.4-2 .7-3.3.7-3.2 0-5.7-2.2-5.7-5.6 0-3.4 2.4-5.5 5.4-5.5 2.9 0 4.7 2 4.7 4.2-.1.2-.2.6-.2.8zm-4.6-2.4c-1 0-1.8.8-2 1.7h3.5v-.2c0-.8-.6-1.5-1.5-1.5zM356.9 40.1c-1.4 0-2.5-.3-3.3-.7l-.3-3c.9.6 2.1 1.1 3.3 1.1.6 0 1-.3 1-.7 0-.4-.3-.6-.9-.8-2-.6-3.2-1.6-3.2-3.4 0-2 1.7-3.4 3.9-3.4 1.3 0 2.6.3 3.1.6l-.6 2.5c-.5-.3-1.3-.6-2.2-.6-.6 0-.9.3-.9.7 0 .4.3.6.9.8 2.3.6 3.3 1.8 3.3 3.5 0 1.8-1.3 3.4-4.1 3.4zM362.9 31.8l-1.1-.2c.8-.9 1.4-2.2 1.5-3.2-.6-.1-1.5-1.1-1.5-1.6 0-.7 1.3-1.9 1.9-1.9.5 0 1.9 1.2 1.9 1.9.1 1.4-1.3 3.7-2.7 5zm4.7 0l-1.1-.2c.8-.9 1.4-2.2 1.5-3.2-.6-.1-1.5-1.1-1.5-1.6 0-.7 1.3-1.9 1.9-1.9.5 0 1.9 1.2 1.9 1.9.1 1.4-1.3 3.7-2.7 5zM377.5 32.7c-.6.6-.8 1.2-.8 1.8 0 .3 0 .7.1 1l-2.9-.6c-.1-.5-.2-.8-.2-1.2 0-1.2.5-2.3 1.3-3.2.6-.6.9-1.1.9-1.7 0-.5-.5-1-1.3-1s-1.6.3-2.3.8l-.7-2.9c.9-.5 2-.9 3.3-.9 2.7 0 4.5 1.6 4.5 3.9 0 1.4-.6 2.5-1.9 4zm-2.1 7.5c-.6 0-1.9-1.3-1.9-1.9 0-.6 1.3-1.9 1.9-1.9s1.9 1.3 1.9 1.9c0 .6-1.3 1.9-1.9 1.9z"/></svg>