<svg id="Layer_1" xmlns="http://www.w3.org/2000/svg" xmlns:xlink="http://www.w3.org/1999/xlink" viewBox="0 0 728 90"><style>.st0{clip-path:url(#SVGID_2_);fill:#fff}.st1{clip-path:url(#SVGID_4_);fill:url(#SVGID_5_)}.st2{clip-path:url(#SVGID_7_);fill:url(#SVGID_8_)}.st3{clip-path:url(#SVGID_10_);fill:url(#SVGID_11_)}.st4{clip-path:url(#SVGID_13_);fill:url(#SVGID_14_)}.st5{clip-path:url(#SVGID_16_);fill:url(#SVGID_17_)}.st6{fill:#626366}.st7{fill:#404041}.st8{fill:#808184}.st9{fill:#231f20}.st10,.st11,.st12,.st13{clip-path:url(#SVGID_19_);fill:#404041}.st11,.st12,.st13{fill:#eaebec}.st12,.st13{fill:#dbdcdd}.st13{fill:#fff}.st14{clip-path:url(#SVGID_21_);fill:url(#SVGID_22_)}.st15{fill:#005494}.st16{fill:#0081bd}.st17{fill:#fff}</style><defs><path id="SVGID_1_" d="M413.7 6.5h77.1v77.1h-77.1z"/></defs><clipPath id="SVGID_2_"><use xlink:href="#SVGID_1_" overflow="visible"/></clipPath><path class="st0" d="M445.1 6.5c-5.7 0-11.2 2.3-15.3 6.4-4.1 4.1-6.4 9.5-6.4 15.2v45.8h45.8c11.9 0 21.7-9.7 21.7-21.7V6.5h-45.8z"/><defs><path id="SVGID_3_" d="M469.2 73.9h-45.8l-9.6 9.6h49c3.9-.4 7.4-2.2 10.1-4.8l7.2-7.2-.4-.4c-3.2 1.8-6.7 2.8-10.5 2.8"/></defs><clipPath id="SVGID_4_"><use xlink:href="#SVGID_3_" overflow="visible"/></clipPath><linearGradient id="SVGID_5_" gradientUnits="userSpaceOnUse" x1="1.08" y1="91.076" x2="2.08" y2="91.076" gradientTransform="matrix(0 -12.4609 -12.4609 0 1581.815 97.192)"><stop offset="0" stop-color="#10b0e6"/><stop offset=".159" stop-color="#0faae1"/><stop offset=".368" stop-color="#0c9ad2"/><stop offset=".604" stop-color="#077fba"/><stop offset=".858" stop-color="#015999"/><stop offset=".89" stop-color="#005494"/><stop offset="1" stop-color="#005494"/></linearGradient><path class="st1" d="M413.8 71.2H480v12.3h-66.2z"/><defs><path id="SVGID_6_" d="M418.6 24.5c-3 3.1-4.9 7.3-4.9 11.9v47.1h.1l9.6-9.6V28.1c0-3.6.9-7.2 2.7-10.3l-.4-.4-7.1 7.1z"/></defs><clipPath id="SVGID_7_"><use xlink:href="#SVGID_6_" overflow="visible"/></clipPath><linearGradient id="SVGID_8_" gradientUnits="userSpaceOnUse" x1="1.015" y1="91.015" x2="2.015" y2="91.015" gradientTransform="matrix(0 -66.5737 -66.5737 0 6479.146 151.74)"><stop offset="0" stop-color="#0081bd"/><stop offset=".393" stop-color="#006fac"/><stop offset=".85" stop-color="#005494"/><stop offset="1" stop-color="#005494"/></linearGradient><path class="st2" d="M413.7 17.4h12.4v66.2h-12.4z"/><defs><path id="SVGID_9_" d="M469.2 73.9h-45.8l-9.6 9.6h49c3.9-.4 7.4-2.2 10.1-4.8l7.2-7.2-.4-.4c-3.2 1.8-6.7 2.8-10.5 2.8"/></defs><clipPath id="SVGID_10_"><use xlink:href="#SVGID_9_" overflow="visible"/></clipPath><linearGradient id="SVGID_11_" gradientUnits="userSpaceOnUse" x1=".985" y1="91.016" x2="1.985" y2="91.016" gradientTransform="matrix(65.5643 0 0 -65.5643 349.42 6044.778)"><stop offset="0" stop-color="#10b0e6"/><stop offset=".161" stop-color="#0faae1"/><stop offset=".372" stop-color="#0c9ad2"/><stop offset=".61" stop-color="#077fba"/><stop offset=".867" stop-color="#015999"/><stop offset=".9" stop-color="#005494"/><stop offset="1" stop-color="#005494"/></linearGradient><path class="st3" d="M413.8 71.2H480v12.3h-66.2z"/><g><defs><path id="SVGID_12_" d="M418.6 24.5c-3 3.1-4.9 7.3-4.9 11.9v47.1h.1l9.6-9.6V28.1c0-3.6.9-7.2 2.7-10.3l-.4-.4-7.1 7.1z"/></defs><clipPath id="SVGID_13_"><use xlink:href="#SVGID_12_" overflow="visible"/></clipPath><linearGradient id="SVGID_14_" gradientUnits="userSpaceOnUse" x1="1.015" y1="91.015" x2="2.015" y2="91.015" gradientTransform="matrix(0 -66.5737 -66.5737 0 6479.146 151.74)"><stop offset="0" stop-color="#0081bd"/><stop offset=".393" stop-color="#006fac"/><stop offset=".85" stop-color="#005494"/><stop offset="1" stop-color="#005494"/></linearGradient><path class="st4" d="M413.7 17.4h12.4v66.2h-12.4z"/></g><g><defs><path id="SVGID_15_" d="M445.1 9.2c-10.4 0-18.9 8.6-18.9 18.8v43.1h43c10.4 0 18.9-8.5 18.9-18.9v-43h-43z"/></defs><clipPath id="SVGID_16_"><use xlink:href="#SVGID_15_" overflow="visible"/></clipPath><linearGradient id="SVGID_17_" gradientUnits="userSpaceOnUse" x1="1" y1="91.016" x2="2" y2="91.016" gradientTransform="scale(87.3513 -87.3513) rotate(45 113.788 49.788)"><stop offset="0" stop-color="#9cdbf8"/><stop offset="1" stop-color="#0088cf"/></linearGradient><path class="st5" d="M395.3 40.2l61.9-61.9 61.9 61.9-61.9 61.9z"/></g><path class="st6" d="M478.7 59.8H453l-5.6 5.7h25.7z"/><path class="st7" d="M477.4 64.3h-23.7l-5 4.9h23.8z"/><path class="st8" d="M453.7 60.6h23.7v3.7h-23.7z"/><path class="st9" d="M447.4 61.8v3.7l5.6-5.7.3-3.9z"/><g><defs><path id="SVGID_18_" d="M413.7 6.5h77.1v77.1h-77.1z"/></defs><clipPath id="SVGID_19_"><use xlink:href="#SVGID_18_" overflow="visible"/></clipPath><path class="st10" d="M478.7 56.5c0-.5-.4-.9-.9-.9H454c-.5 0-.9.4-.9.9v3.3h25.7v-3.3z"/><path class="st11" d="M431.5 62.1l.2 3.3 14.2-1-.2-3.3z"/><path class="st12" d="M431.7 64.5v.9l14.2-1v-.9z"/><path class="st13" d="M445.9 64.4c-.3 0-.5-.7-.6-1.6-.1-.9.1-1.7.4-1.7.2 0 .5.7.6 1.6 0 .9-.1 1.7-.4 1.7"/></g><g><defs><path id="SVGID_20_" d="M429.2 68.2l-5.7 5.7h54.2l5.7-5.7z"/></defs><clipPath id="SVGID_21_"><use xlink:href="#SVGID_20_" overflow="visible"/></clipPath><linearGradient id="SVGID_22_" gradientUnits="userSpaceOnUse" x1=".986" y1="91.014" x2="1.986" y2="91.014" gradientTransform="matrix(70.5187 0 0 -70.5187 353.856 6489.248)"><stop offset="0" stop-color="#10b0e6"/><stop offset=".087" stop-color="#10b0e6"/><stop offset=".322" stop-color="#0d9dd5"/><stop offset=".796" stop-color="#046ba9"/><stop offset="1" stop-color="#005494"/></linearGradient><path class="st14" d="M423.5 68.2h59.9v5.7h-59.9z"/></g><path class="st15" d="M429.2 64h54.3v4.2h-54.3z"/><path class="st16" d="M429.2 64l-5.7 5.7v4.2l5.7-5.7z"/><g><path class="st17" d="M436.5 23.9c.1.2.1.2.2.2h.5c0-.1.1-.2.2-.2s.1.1.2.1l-.1.1h.1c.2-.1.4-.2.5-.2v.2c-.2 0-.2.1-.2.1v.1c.2 0 .5.1.9.2h.7c.1 0 .1-.1.2-.2.1.1.3.1.4.2l.8-.2h.2c.4.1.6.2.6.3-.1 0-.1.1-.2.2v.1l.1.3.3-.1.4.2c.1.2.1.3.1.3-.1 0-.1.1-.1.1l.3.3-.2.5v.1h.1l.2-.2.1.1v.1l-.2.2c0 .1.1.1.1.2-.1 0-.2.2-.2.5.1.3.3.5.8.4.2.2.3.4.3.5-.2.1-.3.2-.3.4.3.1.5.2.5.2v.1c0 .1-.1.1-.2.1l.1.4v.1c0 .1 0 .1-.1.1l.1.1v.1c0 .1 0 .2-.1.3.2 0 .2.1.3.2h.1l.2-.2h.1c.1 0 .1.1.1.2 0 .3-.1.4-.2.4l.1.1v.1c0 .1 0 .1-.1.1l.1.4-.1.1.1.6.1-.1h.1v.2c-.1 0-.2.1-.2.2s.1.2.4.4c0 .1-.3.2-.8.4-.2.3-.3.5-.3.5l.1.1c0 .2-.1.2-.1.2 0 .1.1.1.1.2-.1.2-.1.2-.2.2-.1-.1-.2-.2-.2-.3 0-.1.1-.1.1-.2-.1 0-.1-.1-.2-.2.1 0 .1-.1.1-.1 0-.1-.1-.1-.4-.1v-.2c.2-.2.3-.4.3-.5.3-.1.5-.3.6-.4v-.1c-.1 0-.2 0-.3-.2-.2.2-.5.4-.6.4 0 .1 0 .2-.2.2v.1l.1.2c-.1.2-.2.3-.2.3 0 .2.2.4.4.6v.1l-.8.3-.2-.1c-.6.1-1 .2-1.1.3h-.1s-.1 0-.1-.1l-.1.1h-.4c0 .1-.1.1-.2.2h-.1s0-.2-.1-.4v-.1l.1-.1s-.1 0-.1-.1l.6-.6-.1-.1h-.1l-.2.1h-.1c-.1 0-.1 0-.1-.1.1 0 .1 0 .1-.1 0 0-.1 0-.1-.1l.1-.1-.1-.1v-.4s-.1 0-.1-.1l.1-.1-.1-.1v-.1c0-.3.1-.4.4-.4v-.1l-.1-.1.1-.1v.4l-.3.1-.1-.1c-.2.1-.4.1-.5.1l-.1-.3c0-.1.1-.3.4-.6 0 0 0 .1.1.1 0-.1 0-.2.1-.3-.1 0-.2 0-.2-.1 0 .1 0 .1-.1.1h-.1c-.1 0-.1 0-.1-.1v-.3c.1-.2.2-.2.3-.2l-.5-.4c0-.1 0-.2-.1-.2V29.5h-.1c0 .1-.1.2-.3.4h-.9c-.2.1-.3.1-.3.2V30l.1.2.3-.1h.6l.2-.1c.2.2.3.3.3.5-.1 0-.2.1-.3.4l-.1.1h-.1c-.1 0-.1-.1-.2-.3h-.1c0 .2 0 .3-.1.3l.1.1c-.1.3-.2.5-.3.5h-.1l.1.3v.1h-.1c-.1 0-.1 0-.1-.1l.1-.3c-.2.2-.5.4-.8.4v.1c.1 0 .2 0 .2.1l.2-.1c.1.1.3.1.4.1v.1c0 .1-.1.1-.2.2l.1.1c-.1.2-.2.4-.2.5 0 .1.1.1.1.2l-.2.2c-.1 0-.1 0-.1-.1v-.3l-.2-.1-.3.5s.2.1.6.4l-.3.9c-.4.2-.6.3-.6.4v.1c.1 0 .2 0 .2.1s-.1.1-.2.1v.2c.1.1.2.4.3.8.1 0 .2-.1.5-.4h.1l.2.1h.1c.5 0 .9-.2 1.2-.4.1.1.2.1.3.1 0-.1 0-.1.1-.1 0 0 .1 0 .1.1.3-.1.4-.2.5-.2l.2.2.4-.2h.1v.2h.1c.2-.2.3-.4.3-.5 0 0-.1 0-.1-.1h.1l.3.2.3-.1h.6c0-.1 0-.2.1-.2l.3.3h.1c.6-.1 1-.2 1.1-.3l.1.1-.1.1h.1c0-.1.1-.2.2-.4l-.1-.1v-.1c.1-.2.2-.2.3-.2l-.1-.1c.3-.5.5-.7.8-.7l.1.1-.1.1c0 .1 0 .2.1.3-.1 0-.2.1-.3.1v.3l-.1.3.6.3h-.1c.1.2.1.4.1.5 0 .1 0 .3-.2.5l.1.3.1.1v.1c0 .1 0 .2-.1.2 0 .1.1.1.1.2-.6.3-.9.4-.9.4-.1 0-.1-.1-.2-.1v.3h.3c.1 0 .3-.2.7-.6h.1c.2.1.3.1.3.2l-.2.3c.2 0 .3.1.3.2v.2c-.2.2-.2.3-.2.3l.2.2v.2h.1c0-.2 0-.2.1-.2h.1c.2.1.3.2.4.2v.2c0 .1 0 .1-.1.1h-.1l-.3-.2h-.1v.1c.3.2.4.3.4.4 0 .1-.1.1-.1.2.1 0 .1.1.3.2v.1c0 .1-.1.2-.3.2 0-.1-.1-.1-.1-.1-.1 0-.1.1-.1.1v.1c.5.3.8.5.9.6v.1c-.3.2-.5.4-.5.4v.1h.2l.2-.1h.1v.1h-.1v.1l.2.2c-.1 0-.1.1-.1.1.1 0 .2 0 .2.1l-.5.3s0 .1-.1.1h-.2l-.4-.2-.1.1c.1 0 .1.1.2.2l-.2.2v.1c.1 0 .2.1.2.3h.1l-.1-.1c.3-.2.4-.3.4-.4.1-.1.3-.1.5-.1h.1c.1 0 .2.1.2.3-.1.1-.3.2-.6.3v.1c0 .1.1.1.1.1.2-.1.3-.2.3-.2s0 .1.1.1l-.1.1v.1c.1 0 .2 0 .2.1s-.1.1-.1.2c.1 0 .2-.1.3-.1l.1.1c-.1.2-.1.2-.2.2h-.2c-.1-.1-.2-.1-.2-.1-.1 0-.1.1-.2.1 0 0 0-.1-.1-.1-.2.1-.3.3-.3.5.2.2.4.3.6.3 0-.1.2-.2.5-.2.1 0 .1.1.2.2v.1c0 .1-.1.1-.2.1v.2c.5.2.8.5.8 1l.1.2v.1h-.1c-.1 0-.1-.1-.1-.2h.2v.1h-.1l-.1-.3c-.2 0-.4.1-.4.3.1.3.2.5.4.7 0 0-.2 0-.5.1h-.1c-.1 0-.2-.1-.3-.3l.1-.3c-.1 0-.1 0-.2-.1h-.2c-.1 0-.4.1-1 .3v.2l.3.3c-.1.3-.3.4-.6.4l.1-.1v-.2h-.1c0 .2 0 .3-.1.3h-.1c-.1 0-.2-.1-.3-.3.4-.1.5-.2.5-.3-.1-.2-.2-.3-.3-.3 0 0-.1.1-.3.4l-.1-.1c0 .1-.1.2-.3.3-.1-.1-.1-.2-.2-.3h-.4c0-.1-.2-.4-.6-.8v-.1l.1-.1-.4-1.4c-.2-.2-.3-.3-.4-.3 0 0 0 .1-.1.1 0-.1-.1-.1-.1-.2s.2-.3.6-.4c0-.1-.1-.2-.1-.2-.1 0-.1.1-.2.1l-.1-.1c0-.1.1-.2.4-.4-.1-.2-.1-.2-.2-.2 0 .1 0 .1-.1.1-.1-.1-.1-.2-.1-.2l-.1.1h-.2v-.1c.3-.2.4-.3.4-.3v-.1l-.1-.1c.1-.1.1-.1.1-.2v-.1l-.2.1-.1-.1c0-.1.1-.1.1-.2l-.3.5-.1-.1v-.5l-.1-.2c0-.1.2-.2.5-.3h.1v.1h.2c1.1-.3 1.7-.5 1.7-.7v-.1h-.1c0 .1-.1.2-.3.2-.2 0-.2-.1-.3-.3-1.1.1-1.7.3-1.7.4h-.1c-.1 0-.2-.2-.3-.6.2-.2.2-.4.2-.5l-.1-.1s0 .1-.1.1c0-.1-.1-.1-.1-.2s.1-.2.2-.2v-.1h-.1v.1c-.1 0-.1-.1-.2-.1V39c0-.1 0-.1.1-.1h.1c.2.1.3.2.4.2l.1-.1h-.2v-.1l.1-.1h-.1v-.1h.3v-.1h-.7v-.2c0-.1.1-.1.2-.1l-.1-.1s0-.1.1-.1c0 0 0-.1-.1-.1v-.5c0-.1 0-.1-.1-.1l-.2.2c.1 0 .1 0 .1.1l-.1.1h-.1c-.2-.1-.3-.2-.4-.2-.2 0-.4.1-.5.1v-.1c-.1 0-.2.1-.3.3h-.1c-.1 0-.1 0-.1-.1l-.2.1c-.3 0-.5-.2-.5-.4 0 0 .1 0 .1-.1l-.1-.1c-.1.3-.2.5-.2.7l.3.1c-.1.2-.2.4-.3.4l-.4-.2v-.1l.1-.2c0-.1-.1-.1-.1-.1 0 .1-.1.1-.2.2-.4-.1-.5-.2-.6-.5 0-.2-.1-.4-.2-.4h-.4v.1c0 .1.1.2.2.3-.1.4-.1.6-.2.6h-.1c0-.2-.1-.2-.3-.2v-.2c.1-.2.2-.3.2-.4l-.4-.2c-.1 0-.2.1-.3.3-.2-.1-.3-.1-.3-.2-.1 0-.2.1-.2.1h-.4s0 .1-.1.1c0-.1 0-.1-.1-.1-.1.2-.2.2-.4.3v.1l.1.2c0 .5-.4 1-1.1 1.4-.1 0-.2-.1-.2-.1v.1c0 .1.1.1.1.2l.2-.1h.1c.1 0 .1.1.2.2-.2.3-.3.5-.5.5v.3h.1v.1c0 .1-.1.1-.2.2l-.1-.1c0 .1-.1.2-.2.2v.3c-.2.2-.3.3-.3.4h.2c0 .1-.1.1-.1.2l-.1-.1c0 .4-.2.8-.7 1.1l.1.1c0 .2-.4.8-1.1 1.9h-.6c0 .1 0 .1-.1.1h-.3c-.1-.1-.5-.3-1.2-.6-.2 0-.5-.2-.9-.6-.3 0-.5-.1-.7-.4l.9-2.1c0-.1-.1-.1-.1-.2.1 0 .2-.3.4-.8h.2l.1.1c0-.7.2-1 .6-1 0 0 0-.1.1-.2l-.1-.3v-.1c0-.2.4-.3 1.1-.5h.1v-.3h-.1c0 .2 0 .2-.1.2h-.1c-.1 0-.1-.1-.3-.2l.2-.1.1.1.1-.1-.1-.2v-.1c.2-.3.4-.5.7-.6h.2v.1c-.2 0-.2.1-.2.1h.2l.4-.1v-.2h-.1c-.1 0-.1.1-.2.1 0-.1-.1-.1-.3-.2-.1 0-.1.1-.2.1l-.1-.1c.2-.4.5-.7.7-.8l-.1-.3c.1-.3.2-.5.2-.5.1 0 .1.2.3.5 0 .1-.1.1-.1.2s.1.1.1.2c.1 0 .1-.1.1-.2-.1-.1-.1-.1-.1-.2.1 0 .1-.1.2-.1v-.1l-.5-.5c.3-.1.4-.3.4-.5-.1-.1-.1-.1-.1-.2.1-.3.2-.4.2-.4 0 .1.1.1.2.2h.1c0-.1.1-.2.3-.2 0-.1-.1-.1-.2-.2v.1h-.1c-.1 0-.1 0-.1-.1s.1-.1.2-.1v-.1h-.2v-.1c.4-.2.5-.5.5-1.1.1-.4.1-.6.3-.6 0 0 .1 0 .1.1l.1-.1.1.1c.1-.1.1-.2.1-.4h.1c.1 0 .1 0 .1.2h.1c.1-.1.3-.2.5-.2.1.1.2.2.3.2.1 0 .1-.1.2-.1l-.1-.1.1-.3c-.2.1-.3.1-.5.2-.1-.1-.2-.1-.3-.1l-.4.1c0-.1-.1-.1-.1-.2l-.2.1h-.1v-.3c.1 0 .2-.2.3-.7h.1l.3.6.3-.1c-.1-.1-.1-.2-.1-.3v-.6l-.1-.3c.1 0 .1-.1.1-.1-.1 0-.1 0-.1-.1v-.1l.1-.3h.1c0 .1-.1.1-.1.2v.1h.1v-.3s0-.1-.1-.3c.1 0 .2-.1.3-.2l.1.2c.2-.1.3-.2.3-.2-.2 0-.4-.1-.5-.3.1-.1.1-.2.1-.2h.2v.1h.2v-.2l-.2-.2c.1-.1.3-.2.5-.2h.1c0-.1.1-.2.4-.4 0-.1 0-.1.1-.1s.1 0 .1.1v.1l.2.1h.1c.1 0 .1-.1.2-.2v-.1h-.3v-.1c0-.1.1-.1.2-.1l-.3-.2s0-.1.1-.1l-.1-.1.1-.3-.1-.2v-.1l.1-.1c-.1 0-.1 0-.1-.1.1-.2.1-.2.2-.2l-.1-.3v-.2l.6-.8zm-8.1 19.3h.1v-.1c-.1 0-.1 0-.1.1zm.1-.4c0 .2.1.3.2.3h.1c.7-.2 1-.3 1-.4-.6.1-1 .1-1.3.1zm.1.6v.3h.9v-.1c-.6 0-.9-.1-.9-.2zm.4-1.3v.2h.1l-.1-.2zm.2-1v.1c.1 0 .1 0 .1.1.1-.1.3-.1.5-.1.2.2.3.2.5.2 0-.1 0-.2.2-.3l-.1-.1c.1-.2.1-.3.1-.4h-.4c-.2.3-.5.4-.9.5zm.2 1.1l.1.1v-.1h-.1zm1.2-1l-.1.1v.1l.8-.1v-.1h-.7zm.4-3.7c0 .3-.1.5-.4.7v.1h.1c.1 0 .1-.1.2-.1l.1.1.1-.1.2.1c.1-.1.1-.3.2-.4-.3-.2-.4-.4-.5-.4zm-.3 2v.1c.1.2.2.3.4.3 0-.1.1-.1.1-.1v.1l.9-.1c.1 0 .1 0 .1-.1v-.1c-.8 0-1.2-.1-1.2-.1v-.1l-.3.1zm.8-2.4v.1h.1c.3-.1.5-.2.5-.2v-.2c-.1 0-.1 0-.1-.1-.3.2-.5.3-.5.4zm.1.7v.2s.1 0 .2.1c.6-.1.9-.3.9-.3v-.1l-.7.1h-.4zm.7-2.9v.1h.1c.1 0 .1 0 .1-.1h-.2zm0 .8c0 .2.1.3.2.3h.1c.7-.2 1-.3 1-.4-.6.1-1.1.2-1.3.1zm.1.6v.3c.4-.1.7 0 .8 0h.1v-.1c-.6 0-.9-.1-.9-.2zm0-2.8v.1h.1l-.1-.1zm.8 4.1l-.3-.1c0 .1 0 .2-.1.2.1.1.1.2.1.3l.4-.1h.2s.1 0 .1.1c.3-.1.4-.2.4-.2 0-.2-.1-.3-.2-.5-.2.2-.4.3-.6.3zm-.3-5.3h.2v-.1h-.1c-.1 0-.1 0-.1.1zm.1.3c0 .1.1.2.1.2.1 0 .1 0 .1-.1v-.1h-.2zm0 6.4v.1c.1 0 .1-.1.1-.1h-.1zm.1-4.3c.1 0 .3 0 .8.1h.1s-.2-.1-.5-.3h-.1c-.2 0-.2 0-.3.2zm.8-1.8c0 .2-.3.4-.8.8v.1l.1.1c.1 0 .1-.1.2-.1l.1.1c.2 0 .3-.1.3-.4h.1c.1 0 .1 0 .1.1-.1 0-.1 0-.1.1h.9v-.1c-.4-.1-.7-.3-.8-.7h-.1zm1.2 1.6l-.3-.1c-.2.1-.3.2-.3.2 0 .2-.1.4-.4.6.1 0 .1.1.2.1v.1l-.4.1c0-.1 0-.1-.1-.1s-.1.1-.1.2.1.2.1.2c.1 0 .1-.1.2-.1 0 .1-.1.1-.2.1v.2c.1 0 .3-.1.6-.4l-.1-.1v-.1c.2.3.4.5.6.5v-.1c0-.1 0-.3.1-.3 0-.1-.2-.2-.5-.3V35c.3-.2.5-.4.5-.4l.1-.1.1.1c.1 0 .1 0 .1.1l-.1.1c.2.1.3.1.4.1.1-.1.2-.3.3-.6h-.1c-.1 0-.1.1-.2.1-.1-.1-.2-.2-.2-.3h-.1s-.1.1-.2.4zm-1.4 3.7v.2c.1.2.2.3.2.3s0-.2.1-.5l-.1-.1h-.2zm.1-8h.1v.2c-.1 0-.1-.1-.1-.2zm.2 6.2l-.1.1.4.1v-.1s-.1-.1-.3-.1zm.2-3.7h.5l.6.4h.1c0-.1.1-.2.2-.2l-.1-.2c0-.1.1-.1.1-.2-.4 0-.7-.1-.7-.1.1 0 .1-.1.2-.2v-.1c0-.1-.1-.1-.2-.2h-.2l-.5.8zm.1-3.9v.1c0 .1.1.1.2.2V29l-.1-.3-.1.1zm.2 2c0 .1.1.1.2.2.1 0 .1-.1.1-.1-.1 0-.1 0-.1-.2h-.1c-.1 0-.1 0-.1.1zm.2-.6l.1.1v.2h.2c0-.1 0-.2.1-.3l-.1-.1h-.1l-.2.1zm0-1.2c.2.3.5.5.8.5.1-.4.1-.6.1-.7-.1 0-.1 0-.1-.1-.3.1-.5.2-.8.3zm.3 10.1c.1 0 .1 0 .1.1v.1c0 .1-.1.1-.3.2l-.1-.1.3-.3zm1.9-8.6c0 .1-.1.1-.2.2h-1l-.3.2.1.1v.1l-.1.2.1.3.8-.1v-.3c0-.1.2-.2.5-.2h.1v.2c.1-.1.2-.2.3-.2 0-.1-.1-.1-.1-.1l.1-.3-.3-.1zm-1.6 3.2h.2l.5-.4h-.1c-.1 0-.1.1-.2.1 0-.1-.1-.1-.1-.2h-.1s-.1.1-.2.5zm.1-3.4l.1.1v-.2c0-.1-.1 0-.1.1zm1.2-2.8c0 .1 0 .1-.1.1l-.1-.1c-.2 0-.4.1-.5.3h-.1l-.2-.1c0 .2-.1.3-.2.3l.1.3v.2h.2c0-.3 0-.6.1-.6.2.1.3.2.3.3h-.1l-.1-.1v.1l.3.3c-.1 0-.2.2-.4.5h-.1v.1h.1l.4-.1c0 .1.1.1.1.1h.1c-.1-.1-.1-.2-.1-.3.1 0 .1-.1.2-.4l-.3-.3.5-.3c.1 0 .1 0 .1.1 0 0-.1 0-.1.1.1 0 .1 0 .1.1l.4-.2v-.2c0-.1-.1-.1-.2-.2l-.2.1h-.1l-.1-.1zm-.8-1.9c.1.3.2.5.3.6v.1h-.1l-.3-.2c0 .3 0 .4-.1.4s-.1 0-.1-.1c0 0 0-.1.1-.1l-.1-.1c.1-.2.2-.3.2-.4 0-.1-.1-.1-.1-.2h.2zm-.3 9.8v.2c.1 0 .1-.1.1-.1v-.1h-.1zm.3-5.9c0 .1.1.2.1.2l.1-.1-.2-.1zm.3 4.9h.3c0-.1 0-.1-.1-.1h-.1c-.1 0-.1 0-.1.1zm.1-1.1s.1 0 .2.1l.1-.1v-.2c-.2 0-.2.1-.3.2zm0-1.1v.3c.3.1.5.2.5.3h.1c.1 0 .1 0 .1-.1v-.3l-.3.1h-.1v-.3h-.3zm.8-7.6l-.1.2h-.1l-.1-.1v.1c.1.1.1.1.1.2h.1c.1 0 .1-.1.1-.1v-.3zm-.2-.8h.1v.1h-.1v-.1zm.1 4.8c0 .1.1.1.2.2v-.2h-.2zm.1-2.9v.1h.1l-.1-.1zm.1.1v.1h.1v-.1h-.1zm.1-2.1h.2c0 .1 0 .1-.1.1h-.1v-.1zm.1 7c.1.1.1.2.1.3h.1c.1 0 .1-.1.3-.3 0-.3-.1-.4-.1-.4-.2 0-.3.2-.4.4zm.8 7.3v.2c.1 0 .1-.1.2-.2h-.2zm.6-10s-.1.2-.3.4c0 .1.1.1.1.1.1 0 .2-.1.3-.4.1 0 0-.1-.1-.1zm-.1 9.8h.1v-.1c-.1 0-.1 0-.1.1zm.7-1.7l-.3.4v.1h.1c.1 0 .3-.2.5-.4l-.3-.1zm.5-3.4c.1 0 .2 0 .2.1-.1.1-.1.2-.1.3h-.1c-.1 0-.1 0-.1-.1 0-.2 0-.3.1-.3zm.3-4.1h-.3v.6h.3c0-.2.1-.3.3-.4v-.1c-.1 0-.2-.1-.2-.2l-.1.1zm0 9.9c.1 0 .2.1.2.3l-.2.1h-.1l-.2-.1.3-.3zm-.1-13.6c0 .1.1.2.3.2 0 0 0-.1.1-.1 0-.1-.1-.1-.1-.2l-.3.1zm.5 2.2h.1l.5-.2v-.1c-.3.1-.6.2-.6.3zm.1-2.2v.1h.1l-.1-.1zm.4 4.9l.1.1c.2-.1.3-.1.3-.2l-.1-.1c-.1.2-.2.2-.3.2zm.1 1.4h.4V31l-.4.2zm.2.1l.1.1v-.1h-.1zm.3-1.5c0 .2 0 .3-.2.4.1 0 .1 0 .1.1.3 0 .6-.2.8-.4h-.1l-.2.1-.3-.2h-.1zm0-.5l.1.1h.1s.2-.2.4-.6l-.1-.1c-.3.1-.5.4-.5.6zm.3 1.6v.2h-.1v.1c.1 0 .2 0 .5.1.3-.1.4-.2.4-.4h-.1l-.2.1h-.1v-.1h-.4zm.2 3.9c.1 0 .1 0 .1.1l-.1.1c-.1 0-.1 0-.1-.1l.1-.1zm.5-6.1c0-.1 0-.1 0 0v.2l.1-.1h.1v.2h.1v-.4c-.1 0-.2.1-.3.1zm-.1 4c0 .1.1.1.2.2h.1v-.1c0-.1-.1-.1-.1-.1h-.2zm.4 3c.1.1.1.1.1.3h.4c0-.2.1-.2.2-.2v-.1l-.3.1h-.1c-.1 0-.1 0-.1-.1-.1-.1-.1 0-.2 0zm.1 9l.1.1v-.1h-.1zm.6-5.2h-.3l-.2.4v.1h.2l.4-.2c0 .2.2.2.4.3v.1h.1c0-.2.1-.4.3-.4h.2l.3-.2h.2l.1-.1v-.2h-.1l-.2.1c-.1 0-.2 0-.4-.1 0 0 0 .1-.1.2l-.1-.1-.2.1h-.2v-.1l.1-.2h-.4c.2 0 .1.1-.1.3zm-.4-8.2c0 .1 0 .2-.1.3 0 .1.1.1.4.2 0-.1.1-.1.2-.1 0-.1 0-.2-.1-.3 0 0-.1 0-.1.1l-.3-.2zm0 5.6l.1.1h.1c.1-.1.2-.1.2-.1v-.2h-.1c-.1-.1-.2 0-.3.2zm.4-6.9c.1 0 .1.1.2.2l-.1.1h-.2s0-.1-.1-.2l.2-.1zm.2 10.4h.1v-.1c-.1 0-.1.1-.1.1zm.3-5c-.2 0-.3.1-.3.4h.1l.3-.1c.1.3.2.4.3.4h.1c0-.1.1-.2.3-.5v-.1c-.1-.2-.2-.3-.3-.3l-.5.2zm-.3 3.1c0 .1.1.2.1.2h.2c0-.1 0-.1.1-.2 0 0-.1 0-.1-.1-.1.1-.2.1-.3.1zm.2.9v.2c-.1 0-.1 0-.1-.1l.1-.1zm.6 1.6c0 .1-.1.2-.3.2v.1c.3 0 .5.1.6.1l.3-.2.1.1s.1 0 .1-.1h.5v-.1c0-.1-.1-.1-.2-.2-.1 0-.2.1-.2.1 0-.1 0-.1-.1-.1 0 .1-.1.1-.2.2h-.1c-.1 0-.3-.1-.5-.1zm-.3 2.4h.1v-.1c-.1 0-.1.1-.1.1zm.1 3.3v.1h.1v-.1h-.1zm.3-6.1c0 .1-.1.2-.2.2 0 .1.1.1.2.2h.1c.1 0 .1-.1.1-.1v-.1c-.1-.1-.1-.2-.2-.2zm-.1 2.4c0 .1 0 .2-.1.4l.3.1c0-.1 0-.2.1-.2-.2-.2-.2-.3-.3-.3zm.2-.6v.1c0 .1.1.1.1.1.1-.1.2-.2.3-.2-.1-.2-.1-.3-.1-.3l-.3.3zm0 1.2v.2h.1v-.1c0-.1 0-.1-.1-.1zm.1-8.9l.1.1h-.1v-.1zm.7 9.7l.1.1v-.1h-.1zm1.1-.3l.1.1h-.1v-.1zm1.4 2.3l.4.2v.1c0 .1-.1.1-.2.1l-.4-.1v-.1c.1-.1.1-.2.2-.2zM456.7 26c.3.3.5.6.7.9 0 .3-.1.4-.2.5l.1.1c-.1.1-.1.2-.1.3 0 0 .1 0 .1.1l-.4.2c-.1 0-.1-.1-.2-.1l-.5.3.2.2.3-.1h.3c.1 0 .1 0 .1.1 0 0-.1 0-.1.1 0 0 .1 0 .2.1l.3-.1c.1 0 .1 0 .1.1v.1c0 .1 0 .1-.1.1l-.3-.1.1.1v.1c-.1 0-.2.1-.4.3 0 .1.1.2.3.3h.1l.1-.1.1.1s-.1 0-.1.1c.1 0 .1 0 .1.1v.1c-.1.2-.4.4-.9.4v.1c.2 0 .4.1.6.4l.3-.1.1.2c0 .2-.1.3-.2.3v.1c0 .2.1.4.2.4-.1.2-.1.2-.2.3l-.1-.1c-.1 0-.1.1-.2.1 0 0 0-.1-.1-.1 0 .1-.1.2-.4.3.5.3.7.5.8.5v.1c-.3 0-.4.2-.4.5 0 0 .1 0 .1.1l-.2.1c0 .1.1.3.3.4v.2l-.1.1.4-.1h.1v.1c0 .1-.1.1-.1.2h.1c.1-.2.3-.4.5-.4.2.3.4.4.4.5.1 0 .2-.1.5-.3h.3v-.1c.2.1.4.1.5.1l.4-.3h.2l.2.3s.2-.1.4-.4c.2.1.3.2.3.4.1-.1.3-.2.5-.3.1.1.2.2.2.3-.1 0-.1 0-.1.1s.1.1.1.2h-.1s-.1 0-.1-.1c-.2.1-.3.1-.5.3l-.2-.1-.2.1h-.3v.1h.1l.3-.1c0 .1.1.1.2.2h.1c0-.1.2-.2.6-.4.1-.1.1-.2.2-.2l.1.1c0-.1.1-.1.2-.2h.1s.1 0 .1.1c.1 0 .1-.1.2-.1l-.1-.3v-.1h.1s.1 0 .1.1l.5-.1.3.2-.2.3c0 .1.1.1.1.2l-.1.2.1.1c.1 0 .1 0 .1-.1 0 0-.1 0-.1-.1.2-.1.5-.2.7-.3.1-.1.3-.2.4-.4.3-.1.4-.1.5-.1l.1.1-.1.3c.2-.1.3-.2.3-.4 0-.1.1-.1.2-.2.1 0 .1.1.1.2.1 0 .1 0 .1-.1 0 0-.1 0-.1-.1.1 0 .3-.1.6-.1.1 0 .1.1.2.1v.1c-.1.3-.2.4-.2.4h-.1l-.3-.1.1.1v.1c-.1.2-.2.3-.2.3l.1.1h.1c0-.1 0-.2.1-.2s.1.1.2.2v.3h.2l.2-.1.3.1s0-.1.1-.1c.1.1.2.2.2.3l-.1.1c0 .1.1.1.1.2s0 .1-.1.1-.1-.1-.1-.2l-.2.2-.3-.1c-.1 0-.2.1-.3.4l.2.2v.2h.2v.3c0 .1 0 .1-.1.1 0 .2.1.3.1.3l.4-.2.3.4v.1c-.2.3-.3.4-.3.4h-.1c-.1-.1-.2-.1-.2-.1-.1 0-.2.2-.4.6l-.6.3c-.1.2-.1.3-.2.3h-.2l-.2-.1-.2.6h-.2c-.1 0-.1-.1-.2-.2.1-.2.1-.2.2-.3l-.1-.4v-.1c.5-.4.7-.6.7-.6 0-.1-.1-.1-.1-.2h-.1c0 .1-.2.3-.6.5 0 .1 0 .1-.1.1 0 0 0-.1-.1-.1l.1-.1v-.1l-.2-.3v-.1l.2-.2c-.1 0-.1 0-.2-.1 0 .2-.1.4-.2.4h-.1l-.3-.1c0 .1-.2.2-.5.3 0 .4.2.5.5.6v.1s-.1.1-.3.2l-.2-.2-.2.2-.1-.1-.1.1s-.1 0-.2-.1c-.3.1-.4.1-.5.1-.1 0-.1-.1-.2-.1 0 .1 0 .2-.1.2l-.1-.1v-.1c.2-.1.3-.3.4-.7v-.1h-.2c-.1.1-.4.3-.7.5 0 .1 0 .1-.1.2 0 .1.1.1.1.2l-.1.1c-.1 0-.1-.1-.2-.1l-.1.2c.1 0 .1.1.2.2v.1l-.4-.2h-.1c-.1 0-.1 0-.2.1-.2-.1-.4-.2-.5-.2l.1.1c-.1.2-.1.3-.3.3l-.1-.1c-.1 0-.1.1-.2.1 0-.1-.1-.1-.2-.2h-.1c0 .1-.1.2-.2.3l-.1-.2c0-.3.2-.4.7-.5 0-.1 0-.1.1-.1l.1.1-.1.1v.1h.3c0-.1 0-.3.1-.4-.1-.1-.2-.1-.2-.2l.1-.1h-.1l-.2.3h-.1l-.2-.1h-.2c-.2.3-.5.5-.9.7-.1 0-.1-.1-.2-.2v-.1c0-.1 0-.1.1-.1-.1-.2-.2-.4-.2-.5-.1.1-.2.4-.4.9h-.1l-.1-.1c0 .1 0 .1-.1.2 0 .1.1.1.1.2l-.4.2c0-.1 0-.1-.1-.1s-.1.1-.3.3l.1.1c.1 0 .2-.1.4-.2l.5.5v.2h-.2v.1l.1.2V40s-.1 0-.1-.1c-.2 0-.4.2-.5.5.3.1.4.2.5.3 0 .1 0 .1-.1.1l.1.1v.1c0 .1 0 .1-.1.1-.1-.2-.2-.3-.4-.3h-.1l.1.2-.1.3c0 .1.1.2.3.3 0-.1.1-.1.2-.2.1 0 .2.1.2.3-.1.2-.3.3-.4.3 0-.1 0-.1-.1-.1 0 .2 0 .3-.1.4l.2.2v.2c-.1.2-.2.3-.2.3l-.4-.1v.1l.2.3c-.1 0-.1.1-.2.2 0 0 .1.1.3.1 0-.1 0-.1.1-.1h.1c.1 0 .1 0 .1.1s-.1.2-.3.2c0 .1.1.1.3.1v.2c0 .1 0 .1-.1.1-.1-.1-.2-.2-.2-.3h-.1c0 .2-.2.3-.5.3v.1c0 .1 0 .1.1.1s.1-.1.2-.1c0 .1.1.2.2.2v.1c0 .1-.1.1-.2.2l-.2-.1h-.1l.1.1c-.2.2-.5.4-.7.4l-.1-.1V45c0-.1.1-.1.2-.2h.3c0-.1 0-.1.1-.2-.1 0-.1-.1-.1-.4-.1 0-.1 0-.1.1l-.5-.1-.1.2c.1 0 .1 0 .1.1l-.1.1c0-.1-.1-.2-.4-.3l-.1.1h-.1c-.1 0-.1 0-.1-.1 0 0 .1-.2.4-.4 0 0 0 .1.1.1l.3-.3V43c-.2 0-.3 0-.3-.1l-.1.1-.1-.1-.3.1c-.1-.2-.2-.5-.2-.9V42c-.1 0-.2 0-.2-.1v-.2l.3-.3-.2-.4v-.1c.2-.2.4-.4.5-.4v-.2c-.2 0-.3 0-.3-.1v-.1s0-.1.1-.1c-.1-.1-.1-.2-.1-.3l.2-.1-.1-.1v-.1h.3l-.2-.3V39l.2-.4-.1-.1-.2.1.1.1v.1h-.2c-.1 0-.1-.2-.2-.6 0 0-.1 0-.1-.1 0 0 .1 0 .1-.1h-.1l-.3.2c-.1-.1-.2-.1-.4-.1v.1h-.1l-.1-.1.1-.1v-.1h-.1c-.2.1-.3.2-.3.3h-.1c0-.2.2-.5.7-.7l.2.1s.1-.1.2-.4c0 0-.1 0-.1-.1l-.1.1c-.2-.1-.3-.2-.3-.3h-.1c-.1 0-.2.2-.3.5-.1.1-.3.2-.4.2l.1.1c0 .1-.1.2-.3.3h-.2l-.3-.1c0 .1 0 .1-.1.1l-.1-.2c0-.1.1-.1.3-.2 0-.1-.1-.2-.2-.4 0-.1.1-.1.1-.2l-.1-.1h-.1c0 .3-.1.5-.2.5 0 0 0 .1.1.1l-.1.3c0 .1.1.2.3.2v.2c-.1 0-.1 0-.2.1-.3-.2-.5-.4-.5-.7-.1 0-.1.1-.2.1l.1.1v.2l-.1.2v.1c.1 0 .2 0 .2.1v.1h-.2v-.1h.1s0 .1-.1.2c0 .1.1.1.1.2l-.1.1c-.3 0-.5-.1-.6-.2 0-.2.1-.4.2-.4h.1l.3.1c0-.1.1-.2.2-.4-.1-.2-.2-.4-.4-.5 0 .1-.2.3-.5.4-.2 0-.3-.1-.4-.2v-.1s0-.2.1-.4V37c-.3 0-.5-.2-.6-.7-.2-.5-.3-.8-.3-.8.2-.3.4-.5.6-.7 0-.1.3-.4.8-.6h.1v.3s.2 0 .6-.1l.2.1h.1c0-.2.1-.3.2-.3h.2c0-.1 0-.1.1-.1l.2.1h.1c0-.2.3-.3.8-.5v.1h-.1v.1c.2 0 .4-.1.6-.3l.1.2-.2.2c.1 0 .2.1.5.3l.1-.1c-.1 0-.2-.1-.2-.2v-.1l.5-.5.3.3h.1l-.1-.3c0-.1 0-.1.1-.1h.1c.2.1.3.2.3.3h.1c.1 0 .1 0 .1-.1l-.1-.3h-.1v.1h-.1v-.1c0-.1.2-.2.5-.4v-.2c0-.1-.1-.1-.2-.2l-.2.1-.2-.3v-.1l.3-.5-.1-.4v-.1c0-.1.1-.2.4-.3 0-.1.1-.1.2-.1v-.1l-.3.1h-.2c-.1 0-.1 0-.1-.1v.4l.3-.5c-.1-.1-.1-.2-.1-.3l.1-.1c-.1-.1-.1-.2-.1-.3l.3-.2-.1-.1c0-.1.1-.1.2-.1l-.5-.3c0-.3.1-.5.1-.5l-.1-.1v-.2c0-.1.1-.3.2-.6-.1 0-.1 0-.1-.1v-.1c.2-.4.5-.7.9-.7l-.1-.3c.1-.3.5-.5.6-.5zm-6.2 11.6c0 .1 0 .1.1.1h.1l.1-.3h-.1c-.1.1-.2.1-.2.2zm.5.5v.1h.1l-.1-.1zm.2-.7h.1v-.1c-.1 0-.1.1-.1.1zm.1 5.8l.1.1h-.2c0-.1.1-.1.1-.1zm1-6.6l.2.3c-.1.1-.2.1-.2.2s.1.1.1.2c-.1 0-.1 0-.1.1l-.1-.1h-.2l.1.3h.2c0-.1.1-.1.4-.2.1-.1.1-.2.1-.3-.1 0-.1 0-.1-.1l.1-.2-.1-.3c-.3 0-.4.1-.4.1zm1-.4h.1V36c-.1.1-.1.1-.1.2zm.6 1.7l.1.2c0 .1-.1.1-.1.2h.2v-.1l-.1-.3h-.1zm.6.8c0 .1 0 .1.1.1 0 0 0-.1.1-.1 0 .1 0 .1.1.1h.1l.3-.3c.1 0 .1.1.2.1l.1-.2v-.2h-.1c-.4.1-.7.2-.9.5zm0 4.5h.1v.1l-.1-.1zm.1-1.1v.2c.1 0 .3.1.4.2h.1c0-.1 0-.1.1-.1 0-.1-.1-.1-.3-.3V42h-.1c-.1 0-.2 0-.2.1zm.1-2.8v.2c.1-.1.2-.2.3-.2v-.1c-.1.1-.2.1-.3.1zm.3 5.4c0 .1.1.1.1.2l.1-.1h.2v.1c0 .1-.1.1-.2.2h-.1l-.1-.1s0 .1-.1.1l-.1-.2v-.1c.1-.1.1-.1.2-.1zm-.1-.3l.1.1h-.1v-.1zm.1-14.3l.1.1v-.1h-.1zm.4 14.8c.1.1.1.2.3.3v.3c0 .1 0 .1-.1.1h-.1c-.1 0-.2-.2-.3-.5l.2-.2zm-.2-5.6l.2.2h.1v-.1c-.1-.1-.1-.2-.1-.3h-.1c0 .1-.1.2-.1.2zm0 3.7l.2.1V43h-.2zm.3.1c0 .1 0 .1-.1.1 0 .1.1.1.1.2h.1c.1 0 .1 0 .1-.1v-.1c-.1-.1-.2-.1-.2-.1zm.6-.8c.2-.1.3-.2.3-.2V42h-.1c-.1.1-.2.2-.2.3zm.2-9.4s0 .1-.1.2l.1.1.1-.1c0-.2-.1-.2-.1-.2zm0-2.9v.1h.1c0-.1-.1-.1-.1-.1zm0 12.6l.1.2c.1-.1.2-.1.2-.2h-.3zm.4-8.9v.1c.1.1.1.2.1.4.1 0 .2-.1.2-.1l-.1-.3s.1 0 .1-.1h-.3zm.5-1.5h.2v.1c0 .1 0 .1-.1.1h-.1v-.2zm.2 2c.1.2.2.3.2.4h.2c0-.2 0-.3.1-.3 0 .1 0 .1.1.1h.1l-.2-.3-.1.1h-.4zm.3 2.8c0 .1 0 .1-.1.2l.1.3h.1c0-.2.1-.3.2-.4l-.3-.1zm1.2-.2c-.4.3-.6.5-.7.5v.3h.1c.1 0 .1-.1.2-.1 0 .1 0 .1.1.1 0-.1 0-.2.1-.2h.1l.3.1c0-.1 0-.1.1-.1 0-.1-.1-.1-.1-.2l.1-.1c0-.1-.1-.1-.1-.2 0 0 .1 0 .1-.1h-.3zm-.1-1.5l.2.2c-.1 0-.1 0-.1.1h.1c.1 0 .2-.1.5-.2 0 .1.1.1.2.2h.1c.1-.1.2-.1.3-.1v-.2c-.1 0-.2 0-.3-.1h-.1l-.2.1h-.3c-.1 0-.1 0-.1-.1-.2.1-.2.1-.3.1zm.7-1.1c0 .1.1.1.1.2.2 0 .3-.1.3-.2h.2l.4.3h.1v-.1c-.2 0-.3 0-.3-.1s.1-.1.1-.2c-.1 0-.2-.1-.2-.1-.1 0-.1.1-.2.1l-.2-.1c-.2-.1-.2 0-.3.2zm.1 2.2c0 .1 0 .2.1.2l-.2.3c0 .2.1.3.2.3h.1c0-.1 0-.2.1-.4l-.1-.1c0-.1.2-.3.5-.5 0-.1-.1-.1-.2-.2h-.1c-.1.2-.2.4-.3.4h-.1zm0 .7v.2h.2c0-.1 0-.1-.2-.2zm.9.3c-.1.2-.2.4-.4.4v.1s.1.1.3.2l.3-.3c-.1-.3-.1-.4-.2-.4zm.9.4h.1v.2c0 .1-.1.1-.2.2-.1 0-.1-.1-.2-.2 0 0 .1-.1.3-.2zm-.2-.9v.1c.1 0 .2 0 .3.1h.1c.1 0 .1-.1.2-.2l-.2-.1c-.3.1-.4.1-.4.1zm.4-2.1s.1 0 .2.1c.1-.1.4-.1.7-.2v-.1c-.1 0-.2 0-.2-.1l-.1.1-.1-.1c-.2.1-.4.1-.5.3zm0 2.8l.1.1h-.1v-.1zm.1-1.9v.2h.1s0-.1.1-.2h-.2zm.7 1.9v.1h.1l-.1-.1zm.2 4h.1v.1l-.1-.1zm.1-8.1v.1c.1 0 .1 0 .1-.1h-.1zm1.1-.1h.2v.1s-.1.1-.4.2h-.1c-.1 0-.1 0-.1-.1s0-.1.1-.1.1.1.2.1c-.1-.1 0-.2.1-.2zm-.1 4.4c0 .1.1.2.1.5-.1.1-.1.2-.2.2l-.2-.3v-.3s.1-.1.3-.1zm.3-1.2c.1 0 .3-.1.5-.2h.2c.1 0 .1 0 .1.1l-.1.2v.1c.2 0 .4.1.4.2l-.1.1.2.1-.1.1v.1c.1 0 .2 0 .3.1l.1-.1-.2-.2s0-.1.1-.1c-.1-.1-.1-.3-.1-.4v-.1c-.2 0-.3-.1-.4-.3h-.1c-.5-.1-.8.1-.8.3zm.1-3.3h.1v.1l-.1-.1zm.1.5v.2h.1c.1 0 .1-.1.2-.2l-.1-.1c-.1.1-.2.1-.2.1zm.3.7v.3c0 .1 0 .1.1.1.1-.1.2-.2.3-.2v-.1c-.1-.1-.2-.1-.4-.1zm.9-.4l-.2.4h.1l.2-.1c.1.1.1.2.2.2.1-.1.2-.2.3-.2v-.1s-.1 0-.2-.1c-.1 0-.1.1-.2.1l-.2-.2zm1.2-.7l-.1.1.1.3c-.1 0-.1.1-.2.1l-.1-.1c-.1 0-.1.1-.2.1l-.3-.4v-.1h.1l.2.1c.2 0 .4-.1.5-.1zm-.7 3.2v.1c.1 0 .1-.1.2-.2v-.1h-.1c0 .1-.1.1-.1.2zm1-1.8c.1 0 .2 0 .2.1v.1s0 .1-.1.1l.1.1c0 .1-.1.1-.1.2.1 0 .1 0 .1.1v.2c0 .1 0 .1-.1.1h-.2l-.2-.3v.1c0 .2.1.3.1.4l-.2.2h-.1l-.1-.1.1-.1v-.1s-.1 0-.2-.1c0-.2.1-.3.1-.3-.1-.1-.1-.2-.1-.3l.1-.1c.1.1.2.1.3.1.1-.3.2-.4.3-.4zm-.3-1.3h.1v.1l-.1-.1zM476.2 26c.3.3.5.6.7.9 0 .3-.1.4-.2.5l.1.1c-.1.1-.1.2-.1.3 0 0 .1 0 .1.1l-.4.2c-.1 0-.1-.1-.2-.1l-.5.3.2.2.3-.1h.3c.1 0 .1 0 .1.1 0 0-.1 0-.1.1 0 0 .1 0 .2.1l.3-.1c.1 0 .1 0 .1.1v.1c0 .1 0 .1-.1.1l-.3-.1.1.1v.1c-.1 0-.2.1-.4.3 0 .1.1.2.3.3h.1l.1-.1.1.1s-.1 0-.1.1c.1 0 .1 0 .1.1v.1c-.1.2-.4.4-.9.4v.1c.2 0 .4.1.6.4l.3-.1.1.2c0 .2-.1.3-.2.3v.1c0 .2.1.4.2.4-.1.2-.1.2-.2.3l-.1-.1c-.1 0-.1.1-.2.1 0 0 0-.1-.1-.1 0 .1-.1.2-.4.3.5.3.7.5.8.5v.1c-.3 0-.4.2-.4.5 0 0 .1 0 .1.1l-.2.1c0 .1.1.3.3.4v.2l-.1.1.4-.1h.1v.1c0 .1-.1.1-.1.2h.1c.1-.2.3-.4.5-.4.2.3.4.4.4.5.1 0 .2-.1.5-.3h.3v-.1c.2.1.4.1.5.1l.4-.3h.2l.2.3s.2-.1.4-.4c.2.1.3.2.3.4.1-.1.3-.2.5-.3.1.1.2.2.2.3-.1 0-.1 0-.1.1s.1.1.1.2h-.5s-.1 0-.1-.1c-.2.1-.3.1-.5.3l-.2-.1-.2.1h-.3v.1h.1l.3-.1c0 .1.1.1.2.2h.1c0-.1.2-.2.6-.4.1-.1.1-.2.2-.2l.1.1c0-.1.1-.1.2-.2h.1s.1 0 .1.1c.1 0 .1-.1.2-.1l-.1-.3v-.1h.1s.1 0 .1.1l.5-.1.3.2-.2.3c0 .1.1.1.1.2l-.1.2.1.1c.1 0 .1 0 .1-.1 0 0-.1 0-.1-.1.2-.1.5-.2.7-.3.1-.1.3-.2.4-.4.3-.1.4-.1.5-.1l.1.1-.1.3c.2-.1.3-.2.3-.4 0-.1.1-.1.2-.2.1 0 .1.1.1.2.1 0 .1 0 .1-.1 0 0-.1 0-.1-.1.1 0 .3-.1.6-.1.1 0 .1.1.2.1v.1c-.1.3-.2.4-.2.4h-.1l-.3-.1.1.1v.1c-.1.2-.2.3-.2.3l.1.1h.1c0-.1 0-.2.1-.2s.1.1.2.2v.3h.2l.2-.1.3.1s0-.1.1-.1c.1.1.2.2.2.3l-.1.1c0 .1.1.1.1.2s0 .1-.1.1-.1-.1-.1-.2l-.2.2-.3-.1c-.1 0-.2.1-.3.4l.2.2v.2h.2v.3c0 .1 0 .1-.1.1 0 .2.1.3.1.3l.4-.2.3.4v.1c-.2.3-.3.4-.3.4h-.1c-.1-.1-.2-.1-.2-.1-.1 0-.2.2-.4.6l-.6.3c-.1.2-.1.3-.2.3h-.2l-.2-.1-.2.6h-.2c-.1 0-.1-.1-.2-.2.1-.2.1-.2.2-.3l-.1-.4v-.1c.5-.4.7-.6.7-.6 0-.1-.1-.1-.1-.2h-.1c0 .1-.2.3-.6.5 0 .1 0 .1-.1.1 0 0 0-.1-.1-.1l.1-.1v-.1l-.2-.3v-.1l.2-.2c-.1 0-.1 0-.2-.1 0 .2-.1.4-.2.4h-.1l-.3-.1c0 .1-.2.2-.5.3 0 .4.2.5.5.6v.1s-.1.1-.3.2l-.2-.2-.2.2-.2-.5-.1.1s-.1 0-.2-.1c-.3.1-.4.1-.5.1-.1 0-.1-.1-.2-.1 0 .1 0 .2-.1.2l-.1-.1V38c.2-.1.3-.3.4-.7v-.1h-.2c-.1.1-.4.3-.7.5 0 .1 0 .1-.1.2 0 .1.1.1.1.2l-.1.1c-.1 0-.1-.1-.2-.1l-.1.2c.1 0 .1.1.2.2v.1l-.4-.2h-.1c-.1 0-.1 0-.2.1-.2-.1-.4-.2-.5-.2l.1.1c-.1.2-.1.3-.3.3l-.1-.1c-.1 0-.1.1-.2.1 0-.1-.1-.1-.2-.2h-.1c0 .1-.1.2-.2.3l-.1-.2c0-.3.2-.4.7-.5 0-.1 0-.1.1-.1l.1.1-.1.1v.1h.3c0-.1 0-.3.1-.4-.1-.1-.2-.1-.2-.2l.1-.1h-.1l-.2.3h-.1l-.2-.1h-.2c-.2.3-.5.5-.9.7-.1 0-.1-.1-.2-.2v-.1c0-.1 0-.1.1-.1-.1-.2-.2-.4-.2-.5-.1.1-.2.4-.4.9h-.1l-.1-.1c0 .1 0 .1-.1.2 0 .1.1.1.1.2l-.4.2c0-.1 0-.1-.1-.1s-.1.1-.3.3l.1.1c.1 0 .2-.1.4-.2l.5.5v.2h-.2v.1l.1.2V40s-.1 0-.1-.1c-.2 0-.4.2-.5.5.3.1.4.2.5.3 0 .1 0 .1-.1.1l.1.1v.1c0 .1 0 .1-.1.1-.1-.2-.2-.3-.4-.3h.2l.1.2-.1.3c0 .1.1.2.3.3 0-.1.1-.1.2-.2.1 0 .2.1.2.3-.1.2-.3.3-.4.3 0-.1 0-.1-.1-.1 0 .2 0 .3-.1.4l.2.2v.2c-.1.2-.2.3-.2.3l-.4-.1v.1l.2.3c-.1 0-.1.1-.2.2 0 0 .1.1.3.1 0-.1 0-.1.1-.1h.1c.1 0 .1 0 .1.1s-.1.2-.3.2c0 .1.1.1.3.1v.2c0 .1 0 .1-.1.1-.1-.1-.2-.2-.2-.3h-.1c0 .2-.2.3-.5.3v.1c0 .1 0 .1.1.1s.1-.1.2-.1c0 .1.1.2.2.2v.1c0 .1-.1.1-.2.2l-.2-.1h-.1l.1.1c-.2.2-.5.4-.7.4l-.1-.1V45c0-.1.1-.1.2-.2h.3c0-.1 0-.1.1-.2-.1 0-.1-.1-.1-.4-.1 0-.1 0-.1.1l-.5-.1-.1.2c.1 0 .1 0 .1.1l-.1.1c0-.1-.1-.2-.4-.3l-.1.1c-.1 0-.1 0-.1-.1 0 0 .1-.2.4-.4 0 0 0 .1.1.1l.3-.3V43c-.2 0-.3 0-.3-.1l-.1.1-.1-.1-.3.1c-.1-.2-.2-.5-.2-.9V42c-.1 0-.2 0-.2-.1v-.2l.3-.3-.2-.4v-.1c.2-.2.4-.4.5-.4v-.2c-.2 0-.3 0-.3-.1v-.1s0-.1.1-.1c-.1-.1-.1-.2-.1-.3l.2-.1-.1-.1v-.1h.3l-.2-.3V39l.2-.4-.1-.1-.2.1.1.1v.1h-.2c-.1 0-.1-.2-.2-.6 0 0-.1 0-.1-.1 0 0 .1 0 .1-.1h-.1l-.3.2c-.1-.1-.2-.1-.4-.1v.1h-.1l-.1-.1.1-.1v-.1h-.1c-.2.1-.3.2-.3.3h-.1c0-.2.2-.5.7-.7l.2.1s.1-.1.2-.4c0 0-.1 0-.1-.1l-.1.1c-.2-.1-.3-.2-.3-.3h-.1c-.1 0-.2.2-.3.5-.1.1-.3.2-.4.2l.1.1c0 .1-.1.2-.3.3h-.2l-.3-.1c0 .1 0 .1-.1.1l-.1-.2c0-.1.1-.1.3-.2 0-.1-.1-.2-.2-.4 0-.1.1-.1.1-.2l-.1-.1h-.1c0 .3-.1.5-.2.5 0 0 0 .1.1.1l-.1.3c0 .1.1.2.3.2v.2c-.1 0-.1 0-.2.1-.3-.2-.5-.4-.5-.7-.1 0-.1.1-.2.1l.1.1v.2l-.1.2v.1c.1 0 .2 0 .2.1v.1h-.2v-.1h-.1s0 .1-.1.2c0 .1.1.1.1.2l-.1.1c-.3 0-.5-.1-.6-.2 0-.2.1-.4.2-.4h.1l.3.1c0-.1.1-.2.2-.4-.1-.2-.2-.4-.4-.5 0 .1-.2.3-.5.4-.2 0-.3-.1-.4-.2v-.1s0-.2.1-.4V37c-.3 0-.5-.2-.6-.7-.2-.5-.3-.8-.3-.8.2-.3.4-.5.6-.7 0-.1.3-.4.8-.6h.1v.3s.2 0 .6-.1l.2.1h.1c0-.2.1-.3.2-.3h.2c0-.1 0-.1.1-.1l.2.1h.1c0-.2.3-.3.8-.5v.1h-.2v.1c.2 0 .4-.1.6-.3l.1.2-.2.2c.1 0 .2.1.5.3l.1-.1c-.1 0-.2-.1-.2-.2v-.1l.5-.5.3.3h.1l-.1-.3c0-.1 0-.1.1-.1h.1c.2.1.3.2.3.3h.1c.1 0 .1 0 .1-.1l-.1-.3h-.1v.1h-.2v-.1c0-.1.2-.2.5-.4v-.2c0-.1-.1-.1-.2-.2l-.2.1-.2-.3v-.1l.3-.5-.1-.4v-.1c0-.1.1-.2.4-.3 0-.1.1-.1.2-.1v-.1l-.3.1h-.2c-.1 0-.1 0-.1-.1v.4l.3-.5c-.1-.1-.1-.2-.1-.3l.1-.1c-.1-.1-.1-.2-.1-.3l.3-.2-.1-.1c0-.1.1-.1.2-.1l-.5-.3c0-.3.1-.5.1-.5l-.1-.1v-.2c0-.1.1-.3.2-.6-.1 0-.1 0-.1-.1v-.1c.2-.4.5-.7.9-.7l-.1-.3c.6-.3.9-.5 1.1-.5zm-6.3 11.6c0 .1 0 .1.1.1h.1l.1-.3h-.1l-.2.2zm.6.5v.1h.1l-.1-.1zm.1-.7h.1v-.1l-.1.1zm.2 5.8l.1.1h-.2c0-.1 0-.1.1-.1zm1-6.6l.2.3c-.1.1-.2.1-.2.2s.1.1.1.2c-.1 0-.1 0-.1.1l-.1-.1h-.2l.1.3h.2c0-.1.1-.1.4-.2.1-.1.1-.2.1-.3-.1 0-.1 0-.1-.1l.1-.2-.1-.3c-.4 0-.4.1-.4.1zm.9-.4h.1V36c0 .1-.1.1-.1.2zm.6 1.7l.1.2c0 .1-.1.1-.1.2h.2v-.1l-.1-.3h-.1zm.6.8c0 .1 0 .1.1.1 0 0 0-.1.1-.1 0 .1 0 .1.1.1h.1l.3-.3c.1 0 .1.1.2.1l.1-.2v-.2h-.1c-.4.1-.7.2-.9.5zm.1 4.5h.1v.1l-.1-.1zm.1-1.1v.2c.1 0 .3.1.4.2h.1c0-.1 0-.1.1-.1 0-.1-.1-.1-.3-.3V42h-.1c-.2 0-.2 0-.2.1zm.1-2.8v.2c.1-.1.2-.2.3-.2v-.1h-.1c0 .1-.1.1-.2.1zm.2 5.4c0 .1.1.1.1.2l.1-.1h.2v.1c0 .1-.1.1-.2.2h-.1l-.1-.1s0 .1-.1.1l-.1-.2v-.1c.1-.1.2-.1.2-.1zm0-.3l.1.1h-.1v-.1zm0-14.3l.1.1v-.1h-.1zm.4 14.8c.1.1.1.2.3.3v.3c0 .1 0 .1-.1.1h-.1c-.1 0-.2-.2-.3-.5l.2-.2zm-.1-5.6l.2.2h.1v-.1c-.1-.1-.1-.2-.1-.3h-.1c-.1.1-.1.2-.1.2zm0 3.7l.2.1V43h-.2zm.2.1c0 .1 0 .1-.1.1 0 .1.1.1.1.2h.1c.1 0 .1 0 .1-.1v-.1c-.1-.1-.1-.1-.2-.1zm.6-.8c.2-.1.3-.2.3-.2V42h-.1c0 .1-.1.2-.2.3zm.2-9.4s0 .1-.1.2l.1.1.1-.1c0-.2 0-.2-.1-.2zm0-2.9v.1h.1c0-.1 0-.1-.1-.1zm.1 12.6l.1.2c.1-.1.2-.1.2-.2h-.3zm.3-8.9v.1c.1.1.1.2.1.4.1 0 .2-.1.2-.1l-.1-.3s.1 0 .1-.1h-.3zm.5-1.5h.2v.1c0 .1 0 .1-.1.1h-.1v-.2zm.2 2c.1.2.2.3.2.4h.2c0-.2 0-.3.1-.3 0 .1 0 .1.1.1h.1l-.2-.3-.1.1h-.4zm.4 2.8c0 .1 0 .1-.1.2l.1.3h.1c0-.2.1-.3.2-.4l-.3-.1zm1.2-.2c-.4.3-.6.5-.7.5v.3h.1c.1 0 .1-.1.2-.1 0 .1 0 .1.1.1 0-.1 0-.2.1-.2h.1l.3.1c0-.1 0-.1.1-.1 0-.1-.1-.1-.1-.2l.1-.1c0-.1-.1-.1-.1-.2 0 0 .1 0 .1-.1h-.3zm-.1-1.5l.2.2c-.1 0-.1 0-.1.1h.1c.1 0 .2-.1.5-.2 0 .1.1.1.2.2h.1c.1-.1.2-.1.3-.1v-.2c-.1 0-.2 0-.3-.1h-.1l-.2.1h-.3c-.1 0-.1 0-.1-.1-.2.1-.3.1-.3.1zm.6-1.1c0 .1.1.1.1.2.2 0 .3-.1.3-.2h.2l.4.3h.1v-.1c-.2 0-.3 0-.3-.1s.1-.1.1-.2c-.1 0-.2-.1-.2-.1-.1 0-.1.1-.2.1l-.2-.1c-.1-.1-.2 0-.3.2zm.2 2.2c0 .1 0 .2.1.2l-.2.3c0 .2.1.3.2.3h.1c0-.1 0-.2.1-.4l-.1-.1c0-.1.2-.3.5-.5 0-.1-.1-.1-.2-.2h-.2c-.1.2-.2.4-.3.4zm0 .7v.2h.2c0-.1-.1-.1-.2-.2zm.8.3c-.1.2-.2.4-.4.4v.1s.1.1.3.2l.3-.3c-.1-.3-.1-.4-.2-.4zm.9.4h.1v.2c0 .1-.1.1-.2.2-.1 0-.1-.1-.2-.2 0 0 .1-.1.3-.2zm-.2-.9v.1c.1 0 .2 0 .3.1h.1c.1 0 .1-.1.2-.2l-.2-.1c-.3.1-.4.1-.4.1zm.5-2.1s.1 0 .2.1c.1-.1.4-.1.7-.2v-.1c-.1 0-.2 0-.2-.1l-.1.1-.1-.1c-.3.1-.4.1-.5.3zm0 2.8l.1.1h-.1v-.1zm.1-1.9v.2h.1s0-.1.1-.2h-.2zm.7 1.9v.1h.1l-.1-.1zm.1 4h.1v.1l-.1-.1zm.1-8.1v.1c.1 0 .1 0 .1-.1h-.1zm1.1-.1h.2v.1s-.1.1-.4.2h-.1c-.1 0-.1 0-.1-.1s0-.1.1-.1.1.1.2.1c0-.1 0-.2.1-.2zm-.1 4.4c0 .1.1.2.1.5-.1.1-.1.2-.2.2l-.2-.3v-.3c.1 0 .1-.1.3-.1zm.3-1.2c.1 0 .3-.1.5-.2h.2c.1 0 .1 0 .1.1l-.1.2v.1c.2 0 .4.1.4.2l-.1.1.2.1-.1.1v.1c.1 0 .2 0 .3.1l.1-.1-.2-.2s0-.1.1-.1c-.1-.1-.1-.3-.1-.4v-.1c-.2 0-.3-.1-.4-.3h-.1c-.5-.1-.7.1-.8.3zm.2-3.3h.1v.1l-.1-.1zm0 .5v.2h.1c.1 0 .1-.1.2-.2l-.1-.1c-.1.1-.1.1-.2.1zm.4.7v.3c0 .1 0 .1.1.1.1-.1.2-.2.3-.2v-.1c-.2-.1-.3-.1-.4-.1zm.8-.4l-.2.4h.1l.2-.1c.1.1.1.2.2.2.1-.1.2-.2.3-.2v-.1s-.1 0-.2-.1c-.1 0-.1.1-.2.1l-.2-.2zm1.3-.7l-.1.1.1.3c-.1 0-.1.1-.2.1l-.1-.1c-.1 0-.1.1-.2.1l-.3-.4v-.1h.1l.2.1c.1 0 .3-.1.5-.1zm-.7 3.2v.1c.1 0 .1-.1.2-.2v-.1h-.1c-.1.1-.1.1-.1.2zm.9-1.8c.1 0 .2 0 .2.1v.1s0 .1-.1.1l.1.1c0 .1-.1.1-.1.2.1 0 .1 0 .1.1v.2c0 .1 0 .1-.1.1h-.2l-.2-.3v.1c0 .2.1.3.1.4l-.2.2h-.1l-.1-.1.1-.1v-.1s-.1 0-.2-.1c0-.2.1-.3.1-.3-.1-.1-.1-.2-.1-.3l.1-.1c.1.1.2.1.3.1.1-.3.2-.4.3-.4zm-.2-1.3h.1v.1l-.1-.1z"/></g></svg>