<svg id="Layer_1" xmlns="http://www.w3.org/2000/svg" viewBox="0 0 320 50"><style>.st0{fill:#231f20}</style><path class="st0" d="M76.3 15.5c-.9 0-1.7-.3-2.1-.5l-.2-1.7c.6.4 1.4.7 2.2.7.7 0 1.1-.3 1.1-.8 0-.4-.3-.7-1-.9-1.5-.4-2.2-1.2-2.2-2.4 0-1.3.9-2.3 2.6-2.3.9 0 1.6.3 1.9.4l-.3 1.5c-.3-.2-.9-.4-1.5-.4s-.9.3-.9.7c0 .4.3.6.9.8 1.5.4 2.3 1.2 2.3 2.5 0 1.4-1 2.4-2.8 2.4zM85.1 12.3l-.8.8h-2.7c.1.4.7.9 1.6.9.6 0 1.1-.2 1.5-.4l-.2 1.5c-.4.2-1 .4-1.7.4-1.7 0-3-1.2-3-2.9 0-1.8 1.3-2.9 2.8-2.9 1.5 0 2.4 1 2.4 2.2.2.2.2.3.1.4zm-2.3-1.2c-.5 0-.9.4-1.1.9h1.8v-.1c.1-.4-.3-.8-.7-.8zM91.1 12.3l-.8.8h-2.7c.1.4.7.9 1.6.9.6 0 1.1-.2 1.5-.4l-.2 1.5c-.4.2-1 .4-1.7.4-1.7 0-3-1.2-3-2.9 0-1.8 1.3-2.9 2.8-2.9 1.5 0 2.4 1 2.4 2.2.2.2.2.3.1.4zm-2.3-1.2c-.5 0-.9.4-1.1.9h1.8v-.1c.1-.4-.3-.8-.7-.8zM98.5 15.4V12c0-.4-.3-.7-.8-.7s-.9.3-.9.8v3.3H95V6.8h1.7v3.6c.3-.4.8-.7 1.5-.7 1.2 0 1.9.7 1.9 1.8v3.8h-1.6zM104.2 15.5c-1.6 0-3-1.2-3-2.9s1.3-2.9 3-2.9c1.6 0 3 1.2 3 2.9s-1.4 2.9-3 2.9zm0-4.2c-.7 0-1.2.6-1.2 1.4 0 .8.6 1.4 1.2 1.4s1.2-.6 1.2-1.4c0-.8-.6-1.4-1.2-1.4zM113.9 15.4h-1.2l-.7-2.2c-.1-.3-.2-.7-.3-1.1-.1.4-.2.8-.3 1.1l-.7 2.2h-1.2l-1.9-5.5h1.6l.7 2.1c.1.3.2.7.3 1 .1-.3.2-.7.3-1l.7-2.1h1.3l.5 2.1c.1.3.2.7.3 1.1.1-.3.2-.7.3-1.1l.7-2.1h1.5l-1.9 5.5zM126.1 15.4V12c0-.4-.2-.7-.8-.7-.6 0-.8.3-.8.8v3.3h-1.8V12c0-.4-.2-.7-.8-.7-.6 0-.8.3-.8.8v3.3h-1.8V9.9h1.6v.7c.2-.6.8-.9 1.6-.9s1.4.3 1.6.9c.2-.5.9-.9 1.7-.9 1.2 0 1.9.7 1.9 1.8v3.8h-1.6zM132.7 15.4v-.7c-.2.6-.8.9-1.7.9-1.2 0-1.9-.7-1.9-1.8V9.9h1.8v3.3c0 .4.3.7.8.7s.9-.3.9-.8V9.9h1.8v5.4h-1.7zM139.7 11.7c-.4-.2-.7-.3-1.2-.3-.8 0-1.4.6-1.4 1.3 0 .8.6 1.3 1.4 1.3.5 0 .8-.1 1.2-.3l-.2 1.5c-.4.2-.8.3-1.3.3-1.5 0-2.9-1.1-2.9-2.8 0-1.8 1.4-2.8 2.9-2.8.7 0 1.3.1 1.8.4l-.3 1.4zM144.5 15.4V12c0-.4-.3-.7-.8-.7s-.9.3-.9.8v3.3H141V6.8h1.7v3.6c.3-.4.8-.7 1.5-.7 1.2 0 1.9.7 1.9 1.8v3.8h-1.6zM153.6 14.8c-.8 2.2-1.7 3-2.7 3.4l-1.1-1.1c.9-.3 1.5-1 2-2.1l-2-5.1h1.7l.8 2.1c.1.3.2.7.3 1.1.1-.4.2-.8.3-1.1l.8-2.1h1.6l-1.7 4.9zM158.7 15.5c-1.6 0-3-1.2-3-2.9s1.3-2.9 3-2.9c1.6 0 3 1.2 3 2.9s-1.3 2.9-3 2.9zm0-4.2c-.7 0-1.2.6-1.2 1.4 0 .8.6 1.4 1.2 1.4s1.2-.6 1.2-1.4c.1-.8-.5-1.4-1.2-1.4zM166.3 15.4v-.7c-.2.6-.8.9-1.7.9-1.2 0-1.9-.7-1.9-1.8V9.9h1.8v3.3c0 .4.3.7.8.7s.9-.3.9-.8V9.9h1.8v5.4h-1.7zM172.6 11.8c-.1-.1-.3-.1-.5-.1-.6 0-1.1.3-1.1 1.2v2.5h-1.8V9.9h1.7v1.2c.2-.9.8-1.3 1.5-1.3.2 0 .4 0 .5.1l-.3 1.9z"/><g><path class="st0" d="M77.4 23.8c-.1-.1-.3-.1-.5-.1-.6 0-1.1.3-1.1 1.2v2.5H74V22h1.7v1.2c.2-.9.8-1.3 1.5-1.3.2 0 .4 0 .5.1l-.3 1.8zM83.4 24.3l-.8.8H80c.1.4.7.9 1.6.9.6 0 1.1-.2 1.5-.4l-.2 1.5c-.4.2-1 .4-1.7.4-1.7 0-3-1.2-3-2.9 0-1.8 1.3-2.9 2.8-2.9 1.5 0 2.4 1 2.4 2.2v.4zM81 23.1c-.5 0-.9.4-1.1.9h1.8v-.1c.1-.4-.2-.8-.7-.8zM88.2 23.4h-1.4v2c0 .5.3.7.7.7.2 0 .3 0 .5-.1l-.2 1.3c-.2.1-.5.1-.8.1-1.2 0-2-.6-2-1.7v-2.4h-.9v-1.4h.9v-1.2l1.8-.6v1.8h1.8l-.4 1.5zM90.2 21.2c-.3 0-.9-.6-.9-.9s.6-.9.9-.9c.3 0 .9.6.9.9s-.6.9-.9.9zm-.9 6.2V22H91v5.4h-1.7zM95.7 23.8c-.1-.1-.3-.1-.5-.1-.6 0-1.1.3-1.1 1.2v2.5h-1.8V22H94v1.2c.2-.9.8-1.3 1.5-1.3.2 0 .4 0 .5.1l-.3 1.8zM101.8 24.3l-.8.8h-2.7c.1.4.7.9 1.6.9.6 0 1.1-.2 1.5-.4l-.2 1.5c-.4.2-1 .4-1.7.4-1.7 0-3-1.2-3-2.9 0-1.8 1.3-2.9 2.8-2.9 1.5 0 2.4 1 2.4 2.2.1.2.1.3.1.4zm-2.4-1.2c-.5 0-.9.4-1.1.9h1.8v-.1c.1-.4-.3-.8-.7-.8zM109.5 27.4V24c0-.4-.2-.7-.8-.7-.6 0-.8.3-.8.8v3.3h-1.8V24c0-.4-.2-.7-.8-.7-.6 0-.8.3-.8.8v3.3h-1.8V22h1.6v.7c.2-.6.8-.9 1.6-.9s1.4.3 1.6.9c.2-.5.9-.9 1.7-.9 1.2 0 1.9.7 1.9 1.8v3.8h-1.6zM117.5 24.3l-.8.8H114c.1.4.7.9 1.6.9.6 0 1.1-.2 1.5-.4l-.2 1.5c-.4.2-1 .4-1.7.4-1.7 0-3-1.2-3-2.9 0-1.8 1.3-2.9 2.8-2.9 1.5 0 2.4 1 2.4 2.2.2.2.2.3.1.4zm-2.3-1.2c-.5 0-.9.4-1.1.9h1.8v-.1c0-.4-.3-.8-.7-.8zM122 27.4V24c0-.4-.3-.7-.8-.7s-.9.3-.9.8v3.3h-1.8V22h1.6v.7c.2-.6.8-.9 1.7-.9 1.2 0 1.9.7 1.9 1.8v3.8H122zM128.6 23.4h-1.4v2c0 .5.3.7.7.7.2 0 .3 0 .5-.1l-.2 1.3c-.2.1-.5.1-.8.1-1.2 0-2-.6-2-1.7v-2.4h-.9v-1.4h.9v-1.2l1.8-.6v1.8h1.8l-.4 1.5zM133.4 21.2c-.3 0-.9-.6-.9-.9s.6-.9.9-.9c.3 0 .9.6.9.9s-.5.9-.9.9zm-.8 6.2V22h1.8v5.4h-1.8zM139.1 27.4V24c0-.4-.3-.7-.8-.7s-.9.3-.9.8v3.3h-1.8V22h1.6v.7c.2-.6.8-.9 1.7-.9 1.2 0 1.9.7 1.9 1.8v3.8h-1.7zM146.2 23.7c-.4-.2-.7-.3-1.2-.3-.8 0-1.4.6-1.4 1.3 0 .8.6 1.3 1.4 1.3.5 0 .8-.1 1.2-.3l-.2 1.5c-.4.2-.8.3-1.3.3-1.5 0-2.9-1.1-2.9-2.8 0-1.8 1.4-2.8 2.9-2.8.7 0 1.3.1 1.8.4l-.3 1.4zM150.2 27.5c-1.6 0-3-1.2-3-2.9s1.3-2.9 3-2.9c1.6 0 3 1.2 3 2.9s-1.4 2.9-3 2.9zm0-4.2c-.7 0-1.2.6-1.2 1.4 0 .8.6 1.4 1.2 1.4s1.2-.6 1.2-1.4c0-.8-.6-1.4-1.2-1.4zM160.9 27.4V24c0-.4-.2-.7-.8-.7-.6 0-.8.3-.8.8v3.3h-1.8V24c0-.4-.2-.7-.8-.7-.6 0-.8.3-.8.8v3.3h-1.8V22h1.6v.7c.2-.6.8-.9 1.6-.9s1.4.3 1.6.9c.2-.5.9-.9 1.7-.9 1.2 0 1.9.7 1.9 1.8v3.8h-1.6zM168.9 24.3l-.8.8h-2.7c.1.4.7.9 1.6.9.6 0 1.1-.2 1.5-.4l-.2 1.5c-.4.2-1 .4-1.7.4-1.7 0-3-1.2-3-2.9 0-1.8 1.3-2.9 2.8-2.9 1.5 0 2.4 1 2.4 2.2.1.2.1.3.1.4zm-2.4-1.2c-.5 0-.9.4-1.1.9h1.8v-.1c.1-.4-.2-.8-.7-.8z"/></g><g><path class="st0" d="M78.2 35.7c-.4-.2-.7-.3-1.2-.3-.8 0-1.4.6-1.4 1.3 0 .8.6 1.3 1.4 1.3.5 0 .8-.1 1.2-.3l-.2 1.5c-.4.2-.8.3-1.3.3-1.5 0-2.9-1.1-2.9-2.8 0-1.8 1.4-2.8 2.9-2.8.7 0 1.3.1 1.8.4l-.3 1.4zM83.3 39.6c-.3-.1-.7-.3-.8-.7-.2.4-.8.7-1.4.7-1 0-1.8-.7-1.8-1.8 0-1 .8-1.7 1.9-1.8l1.1-.1v-.2c0-.3-.3-.5-.9-.5-.5 0-1.1.2-1.5.4l-.3-1.3c.4-.3 1.2-.5 1.9-.5 1.4 0 2.5.7 2.5 2v1.8c0 .6.2 1 .7 1.1l-1.4.9zM82.2 37l-.7.1c-.5 0-.7.4-.7.7 0 .3.2.5.6.5.4 0 .8-.3.8-.8V37zM88.7 39.4V36c0-.4-.3-.7-.8-.7s-.9.3-.9.8v3.3h-1.8V34h1.6v.7c.2-.6.8-.9 1.7-.9 1.2 0 1.9.7 1.9 1.8v3.8h-1.7zM97.1 39.5c-1.2 0-2.1-.4-2.6-.8v-7.9h1.7v3.3c.2-.2.8-.4 1.4-.4 1.5 0 2.7 1.1 2.7 2.8 0 1.7-1.1 3-3.2 3zm.2-4.2c-.5 0-.9.2-1.1.4v2.1c.2.1.6.3.9.3.9 0 1.5-.6 1.5-1.4 0-.8-.6-1.4-1.3-1.4zM106.3 36.3l-.8.8h-2.7c.1.4.7.9 1.6.9.6 0 1.1-.2 1.5-.4l-.2 1.5c-.4.2-1 .4-1.7.4-1.7 0-3-1.2-3-2.9 0-1.8 1.3-2.9 2.8-2.9 1.5 0 2.4 1 2.4 2.2.2.2.1.3.1.4zm-2.4-1.2c-.5 0-.9.4-1.1.9h1.8v-.1c.1-.4-.2-.8-.7-.8zM108.1 39.5c-.3 0-1-.7-1-1 0-.3.7-1 1-1 .3 0 1 .7 1 1 0 .4-.7 1-1 1z"/></g></svg>