<svg id="Layer_1" xmlns="http://www.w3.org/2000/svg" xmlns:xlink="http://www.w3.org/1999/xlink" viewBox="0 0 320 50"><style>.st0{opacity:.15;clip-path:url(#SVGID_2_)}.st1{clip-path:url(#SVGID_4_)}.st2{clip-path:url(#SVGID_6_);fill:#0a0f0f}.st3{clip-path:url(#SVGID_2_);fill:#fff}.st4{clip-path:url(#SVGID_8_);fill:url(#SVGID_9_)}.st5{clip-path:url(#SVGID_11_);fill:url(#SVGID_12_)}.st6{clip-path:url(#SVGID_14_);fill:url(#SVGID_15_)}.st7{clip-path:url(#SVGID_17_);fill:url(#SVGID_18_)}.st8{clip-path:url(#SVGID_20_);fill:url(#SVGID_21_)}.st9{fill:#b9e0d3}.st10{fill:#fffdf6}.st11,.st12{clip-path:url(#SVGID_23_);fill:#898f94}.st12{fill:#fffdf6}.st13{fill:#495b68}.st13,.st14,.st15{clip-path:url(#SVGID_23_)}.st14{fill:#f26f44}.st15{opacity:.18}.st16{clip-path:url(#SVGID_25_)}.st17{clip-path:url(#SVGID_27_);fill:#0a0f0f}</style><defs><path id="SVGID_1_" d="M21.8 5.7h37v37h-37z"/></defs><clipPath id="SVGID_2_"><use xlink:href="#SVGID_1_" overflow="visible"/></clipPath><g class="st0"><defs><path id="SVGID_3_" d="M21.8 14.2h28.5v28.5H21.8z"/></defs><clipPath id="SVGID_4_"><use xlink:href="#SVGID_3_" overflow="visible"/></clipPath><g class="st1"><defs><path id="SVGID_5_" d="M21.8 14.2h28.5v28.5H21.8z"/></defs><clipPath id="SVGID_6_"><use xlink:href="#SVGID_5_" overflow="visible"/></clipPath><path class="st2" d="M50.4 39.6C49 41 47 41.9 44.8 41.9H22.6V19.8c0-2.2.9-4.1 2.3-5.6l-.8.8c-1.4 1.4-2.3 3.4-2.3 5.6v22.2H44c2.2 0 4.2-.9 5.6-2.3l.8-.9z"/></g></g><path class="st3" d="M37.3 5.7c-2.7 0-5.2 1.1-7.2 3-1.9 1.9-3 4.5-3 7.1v21.5h21.5c5.6 0 10.2-4.6 10.2-10.2V5.7H37.3z"/><defs><path id="SVGID_7_" d="M37.3 7c-4.9 0-8.9 4-8.9 8.8V36h20.2c4.9 0 8.9-4 8.9-8.9V7H37.3z"/></defs><clipPath id="SVGID_8_"><use xlink:href="#SVGID_7_" overflow="visible"/></clipPath><linearGradient id="SVGID_9_" gradientUnits="userSpaceOnUse" x1=".931" y1="50.966" x2="1.931" y2="50.966" gradientTransform="scale(40.9921 -40.9921) rotate(45 63.394 24.761)"><stop offset="0" stop-color="#9cdbf8"/><stop offset="1" stop-color="#009dda"/></linearGradient><path class="st4" d="M14 21.5l29-29 29.1 29L43 50.6z"/><defs><path id="SVGID_10_" d="M48.7 37.4H27.2L22.6 42h22.2c2.2 0 4.1-.9 5.6-2.3l3.4-3.4-.2-.2c-1.5.8-3.2 1.3-4.9 1.3"/></defs><clipPath id="SVGID_11_"><use xlink:href="#SVGID_10_" overflow="visible"/></clipPath><linearGradient id="SVGID_12_" gradientUnits="userSpaceOnUse" x1=".487" y1="51.171" x2="1.487" y2="51.171" gradientTransform="matrix(0 -5.8477 -5.8477 0 337.392 44.82)"><stop offset="0" stop-color="#10b0e6"/><stop offset=".159" stop-color="#0faae1"/><stop offset=".368" stop-color="#0c9ad2"/><stop offset=".604" stop-color="#077fba"/><stop offset=".858" stop-color="#015999"/><stop offset=".89" stop-color="#005494"/><stop offset="1" stop-color="#005494"/></linearGradient><path class="st5" d="M22.6 36.1h31.1v5.8H22.6z"/><g><defs><path id="SVGID_13_" d="M24.9 14.2c-1.4 1.4-2.3 3.4-2.3 5.6V42l4.6-4.6V15.8c0-1.7.4-3.4 1.3-4.8l-.2-.2-3.4 3.4z"/></defs><clipPath id="SVGID_14_"><use xlink:href="#SVGID_13_" overflow="visible"/></clipPath><linearGradient id="SVGID_15_" gradientUnits="userSpaceOnUse" x1=".904" y1="51.032" x2="1.904" y2="51.032" gradientTransform="matrix(0 -31.2417 -31.2417 0 1619.848 70.418)"><stop offset="0" stop-color="#0081bd"/><stop offset=".393" stop-color="#006fac"/><stop offset=".85" stop-color="#005494"/><stop offset="1" stop-color="#005494"/></linearGradient><path class="st6" d="M22.6 10.8h5.8v31.1h-5.8z"/></g><g><defs><path id="SVGID_16_" d="M48.7 37.4H27.2L22.6 42h22.2c2.2 0 4.1-.9 5.6-2.3l3.4-3.4-.2-.2c-1.5.8-3.2 1.3-4.9 1.3"/></defs><clipPath id="SVGID_17_"><use xlink:href="#SVGID_16_" overflow="visible"/></clipPath><linearGradient id="SVGID_18_" gradientUnits="userSpaceOnUse" x1=".968" y1="50.903" x2="1.968" y2="50.903" gradientTransform="matrix(30.768 0 0 -30.768 -7.04 1605.18)"><stop offset="0" stop-color="#10b0e6"/><stop offset=".161" stop-color="#0faae1"/><stop offset=".372" stop-color="#0c9ad2"/><stop offset=".61" stop-color="#077fba"/><stop offset=".867" stop-color="#015999"/><stop offset=".9" stop-color="#005494"/><stop offset="1" stop-color="#005494"/></linearGradient><path class="st7" d="M22.6 36.1h31.1v5.8H22.6z"/></g><g><defs><path id="SVGID_19_" d="M24.9 14.2c-1.4 1.4-2.3 3.4-2.3 5.6V42l4.6-4.6V15.8c0-1.7.4-3.4 1.3-4.8l-.2-.2-3.4 3.4z"/></defs><clipPath id="SVGID_20_"><use xlink:href="#SVGID_19_" overflow="visible"/></clipPath><linearGradient id="SVGID_21_" gradientUnits="userSpaceOnUse" x1=".904" y1="51.032" x2="1.904" y2="51.032" gradientTransform="matrix(0 -31.2417 -31.2417 0 1619.848 70.418)"><stop offset="0" stop-color="#0081bd"/><stop offset=".393" stop-color="#006fac"/><stop offset=".85" stop-color="#005494"/><stop offset="1" stop-color="#005494"/></linearGradient><path class="st8" d="M22.6 10.8h5.8v31.1h-5.8z"/></g><path class="st9" d="M30.7 16.3h25.2v12.9H30.7z"/><path class="st10" d="M55.4 28.9H31.1V16.7h24.3v12.2zm-24.9.6H56V16.1H30.5v13.4z"/><g><defs><path id="SVGID_22_" d="M21.8 5.7h37v37h-37z"/></defs><clipPath id="SVGID_23_"><use xlink:href="#SVGID_22_" overflow="visible"/></clipPath><path class="st11" d="M43.7 22.1H32.6c-.1 0-.2-.1-.2-.2s.1-.2.2-.2h11.1c.1 0 .2.1.2.2s-.1.2-.2.2M42 25.8h-9.4c-.1 0-.2-.1-.2-.2s.1-.2.2-.2H42c.1 0 .2.1.2.2s-.1.2-.2.2M53.3 25.8h-9.4c-.1 0-.2-.1-.2-.2s.1-.2.2-.2h9.4c.1 0 .2.1.2.2s-.1.2-.2.2M53.3 24.2H32.6c-.1 0-.2-.1-.2-.2s.1-.2.2-.2h20.7c.1 0 .2.1.2.2s-.1.2-.2.2M53.3 19.5h-6.8c-.1 0-.2-.1-.2-.2s.1-.2.2-.2h6.8c.1 0 .2.1.2.2s-.1.2-.2.2M39.3 19.3h-6.8c-.1 0-.2-.1-.2-.2s.1-.2.2-.2h6.8c.1 0 .2.1.2.2s-.1.2-.2.2M39.3 20.4h-6.8c-.1 0-.2-.1-.2-.2s.1-.2.2-.2h6.8c.1 0 .2.1.2.2s-.1.2-.2.2"/><path class="st12" d="M46.6 20.5h7v2h-7z"/><path class="st11" d="M46.2 21.4l-.1-.1c-.1 0-.1-.1-.2-.1s-.1-.1-.2-.1V21v-.1h.1c.1 0 .1 0 .2.1l.2-.1c0-.1-.1-.1-.2-.2 0 0-.1-.1-.2-.1v-.2h-.2v.2s-.1 0-.1.1l-.1.1-.1.1v.1c0 .1 0 .2.1.3 0 .1.1.1.3.2.1 0 .1.1.1.1s.1 0 .1.1v.1c0 .1 0 .1-.1.2 0 0-.1.1-.2.1s-.1 0-.2-.1c0 0-.1-.1-.1-.2h-.2c0 .1.1.3.2.3.1.1.2.1.3.1v.2h.2v-.2c.1 0 .2-.1.3-.2.1-.1.1-.2.1-.3.1-.1 0-.2 0-.3"/><path class="st13" d="M51 18c-.2 0-.3-.1-.3-.3v-5.8l-1.4-1.3c-.1-.1-.1-.3 0-.5.1-.1.3-.1.5 0l1.5 1.4c.1.1.1.1.1.2v5.9c-.1.3-.3.4-.4.4"/><path class="st14" d="M50.3 29.8h-2.7l.1-19.1c0-.7.6-1.3 1.4-1.3.7 0 1.3.6 1.3 1.4l-.1 19z"/><path class="st13" d="M50.3 29.8h-2.7l.9 2.9c.1.4.6.4.8 0l1-2.9z"/><path transform="matrix(.00633 -1 1 .00633 29.394 68.218)" class="st13" d="M48.3 18h1.4v2.7h-1.4z"/><g class="st15"><defs><path id="SVGID_24_" d="M21.8 14.2h28.5v28.5H21.8z"/></defs><clipPath id="SVGID_25_"><use xlink:href="#SVGID_24_" overflow="visible"/></clipPath><g class="st16"><defs><path id="SVGID_26_" d="M21.8 14.2h28.5v28.5H21.8z"/></defs><clipPath id="SVGID_27_"><use xlink:href="#SVGID_26_" overflow="visible"/></clipPath><path class="st17" d="M50.4 39.6C49 41 47 41.9 44.8 41.9H22.6V19.8c0-2.2.9-4.1 2.3-5.6l-.8.8c-1.4 1.4-2.3 3.4-2.3 5.6v22.2H44c2.2 0 4.2-.9 5.6-2.3l.8-.9z"/></g></g></g></svg>