<svg id="Layer_1" xmlns="http://www.w3.org/2000/svg" xmlns:xlink="http://www.w3.org/1999/xlink" viewBox="0 0 320 50"><style>.st0{fill:#005c97}.st1{clip-path:url(#SVGID_2_);fill:#fff}.st2{clip-path:url(#SVGID_4_);fill:url(#SVGID_5_)}.st3{clip-path:url(#SVGID_7_);fill:url(#SVGID_8_)}.st4{clip-path:url(#SVGID_10_);fill:url(#SVGID_11_)}</style><path class="st0" d="M233.9 30.7v1.7h-3.1v8.4h-2v-8.4h-3.1v-1.7h8.2zm.8 10.1h2V30.6h-2v10.2zm12.1 0h-2l-1-2.5h-3.4l-1 2.5h-2l4.3-10.3h.9l4.2 10.3zm9.5 0h-2l-1-2.5h-3.4l-1 2.5h-2l4.3-10.3h.9l4.2 10.3zM243 36.6l-1-2.5-1 2.5h2zm9.5 0l-1-2.5-1 2.5h2z"/><defs><path id="SVGID_1_" d="M209.2 26.5h49.7v16.9h-49.7z"/></defs><clipPath id="SVGID_2_"><use xlink:href="#SVGID_1_" overflow="visible"/></clipPath><path class="st1" d="M218.6 41.4c.9 0 1.7-.4 2.2-.9l2.4-2.4c.6-.6.9-1.3.9-2.2v-7.5h-7.5c-.9 0-1.7.4-2.2.9l-2.4 2.4c-.6.6-.9 1.3-.9 2.2v7.5h7.5z"/><defs><path id="SVGID_3_" d="M217.5 29.1c-1.4 0-2.5 1.1-2.5 2.4v.8h5.1v5.1h.8c1.4 0 2.5-1.1 2.5-2.5V29h-5.9z"/></defs><clipPath id="SVGID_4_"><use xlink:href="#SVGID_3_" overflow="visible"/></clipPath><linearGradient id="SVGID_5_" gradientUnits="userSpaceOnUse" x1=".657" y1="50.829" x2="1.657" y2="50.829" gradientTransform="scale(8.2528 -8.2528) rotate(45 79.983 54.336)"><stop offset="0" stop-color="#9cdbf8"/><stop offset=".1" stop-color="#9cdbf8"/><stop offset=".9" stop-color="#009dda"/><stop offset="1" stop-color="#009dda"/></linearGradient><path class="st2" d="M210.9 33.3l8.4-8.4 8.4 8.4-8.4 8.4z"/><g><defs><path id="SVGID_6_" d="M221 38.2h-6.6l-2.6 2.6h6.8c.7 0 1.3-.3 1.8-.7l2.2-2.2-.1-.1c-.4.2-.9.4-1.5.4"/></defs><clipPath id="SVGID_7_"><use xlink:href="#SVGID_6_" overflow="visible"/></clipPath><linearGradient id="SVGID_8_" gradientUnits="userSpaceOnUse" x1=".907" y1="50.721" x2="1.907" y2="50.721" gradientTransform="matrix(10.759 0 0 -10.759 202.047 584.999)"><stop offset="0" stop-color="#18b0e6"/><stop offset=".162" stop-color="#16aae1"/><stop offset=".375" stop-color="#129ad2"/><stop offset=".617" stop-color="#0b7eb9"/><stop offset=".879" stop-color="#015897"/><stop offset=".9" stop-color="#005594"/><stop offset="1" stop-color="#005594"/></linearGradient><path class="st3" d="M211.8 37.8h10.8v3h-10.8z"/></g><g><defs><path id="SVGID_9_" d="M212.5 32.2c-.5.5-.7 1.1-.7 1.8v6.8l2.6-2.6v-6.6c0-.5.1-1 .4-1.5l-.1-.1-2.2 2.2z"/></defs><clipPath id="SVGID_10_"><use xlink:href="#SVGID_9_" overflow="visible"/></clipPath><linearGradient id="SVGID_11_" gradientUnits="userSpaceOnUse" x1=".721" y1="51.093" x2="1.721" y2="51.093" gradientTransform="matrix(0 -10.7592 -10.7592 0 763.025 48.548)"><stop offset="0" stop-color="#0081bc"/><stop offset=".412" stop-color="#006eab"/><stop offset=".85" stop-color="#005594"/><stop offset="1" stop-color="#005594"/></linearGradient><path class="st4" d="M211.8 30h3v10.8h-3z"/></g></svg>