<svg id="Layer_1" xmlns="http://www.w3.org/2000/svg" width="160" height="600" viewBox="0 0 160 600"><style>.st0{fill:#231f20}</style><path class="st0" d="M123.055 591.808c-.928 0-1.734-.647-1.734-1.847 0-1.359.999-2.814 2.366-3.519l.72.336c-.96.479-1.711 1.159-2.087 2.047.191-.191.447-.328.792-.328.975 0 1.639.728 1.639 1.647-.001.96-.721 1.664-1.696 1.664zm.007-2.639c-.399 0-.848.152-.991.712-.008.088-.008.176-.008.264 0 .576.479 1.056 1.008 1.056.527 0 .943-.408.943-1.016.001-.576-.391-1.016-.952-1.016zM127.206 591.815c-.927 0-1.743-.848-1.743-2.654 0-1.791.816-2.646 1.743-2.646.912 0 1.743.855 1.743 2.646 0 1.807-.831 2.654-1.743 2.654zm0-4.653c-.52 0-1.007.56-1.007 1.999 0 1.455.487 2.007 1.007 2.007.512 0 1.008-.552 1.008-2.007 0-1.439-.496-1.999-1.008-1.999zM130.927 591.808c-.392 0-.76-.088-.968-.2l-.08-.719c.32.191.656.279 1.008.279.592 0 1.096-.376 1.096-1.016 0-.655-.504-1.047-1.071-1.047-.376 0-.64.048-.88.136l.08-2.623h2.23l-.136.624h-1.399l-.032 1.239c.064-.008.145-.016.208-.016.952 0 1.735.64 1.735 1.694 0 .881-.615 1.649-1.791 1.649zM134.326 591.88l-.719-.336c.975-.488 1.734-1.151 2.103-2.047a1.11 1.11 0 0 1-.808.328c-.976 0-1.639-.728-1.639-1.647 0-.96.719-1.663 1.694-1.663.928 0 1.735.647 1.735 1.847.001 1.359-.998 2.814-2.366 3.518zm.616-4.71c-.527 0-.943.408-.943 1.016 0 .576.392 1.016.951 1.016.408 0 .848-.168.991-.728.009-.08.009-.16.009-.248 0-.576-.48-1.056-1.008-1.056zM138.375 591.72h-.783l1.935-4.478h-2.343v-.624h3.382l-2.191 5.102zM142.07 591.88l-.719-.336c.975-.488 1.734-1.151 2.103-2.047a1.11 1.11 0 0 1-.808.328c-.976 0-1.639-.728-1.639-1.647 0-.96.719-1.663 1.694-1.663.928 0 1.735.647 1.735 1.847.002 1.359-.998 2.814-2.366 3.518zm.617-4.71c-.527 0-.943.408-.943 1.016 0 .576.392 1.016.951 1.016.408 0 .848-.168.991-.728.009-.08.009-.16.009-.248-.001-.576-.481-1.056-1.008-1.056zM147.774 591.808c-.248-.056-.52-.264-.575-.567-.168.424-.552.567-.968.567-.72 0-1.167-.527-1.167-1.111 0-.704.575-1.104 1.191-1.159l.847-.08v-.232c0-.327-.191-.591-.703-.591-.36 0-.735.111-1 .287l-.144-.6c.328-.216.744-.312 1.184-.312.808 0 1.391.456 1.391 1.312v1.463c0 .328.177.52.408.56l-.464.463zm-.671-1.751l-.695.064c-.464.039-.647.319-.647.583 0 .256.208.488.535.488a.797.797 0 0 0 .808-.815v-.32z"/></svg>