<svg id="Layer_2" xmlns="http://www.w3.org/2000/svg" width="160" height="600" viewBox="0 0 160 600"><style>.st0{fill:#231f20}</style><path class="st0" d="M24.577 37.887c-.72-.432-1.896-.792-3.168-.792-2.712 0-4.896 1.824-4.896 4.656 0 2.809 2.16 4.681 5.064 4.681 1.272 0 2.4-.24 3.192-.672L24.457 49c-.816.384-1.92.576-3.48.576-3.96 0-8.208-2.688-8.208-7.873s4.272-7.896 8.208-7.896c1.896 0 3.384.408 4.296.936l-.696 3.144zM32.208 49.696c-3.289 0-5.929-2.328-5.929-5.784 0-3.457 2.64-5.785 5.929-5.785 3.264 0 5.928 2.328 5.928 5.785.001 3.456-2.663 5.784-5.928 5.784zm0-8.497c-1.32 0-2.448 1.152-2.448 2.76 0 1.608 1.128 2.76 2.448 2.76 1.296 0 2.448-1.152 2.448-2.76.001-1.608-1.152-2.76-2.448-2.76zM46.752 49.36v-6.672c0-.792-.528-1.488-1.608-1.488-1.056 0-1.728.672-1.728 1.536v6.625h-3.528V38.487h3.24v1.464h.024c.432-1.152 1.56-1.8 3.312-1.8 2.376 0 3.816 1.344 3.816 3.648v7.561h-3.528zM55.992 49.6c-1.488 0-2.568-.312-3.457-.768l-.312-3.121c.96.672 2.208 1.176 3.409 1.176.648 0 1.056-.336 1.056-.744 0-.456-.36-.648-.984-.84-2.088-.6-3.336-1.656-3.336-3.553 0-2.136 1.729-3.504 4.081-3.504 1.344 0 2.664.36 3.216.648l-.6 2.592c-.528-.288-1.392-.6-2.256-.6-.576 0-.96.264-.96.696 0 .408.288.624.96.792 2.448.648 3.457 1.872 3.457 3.696-.002 1.85-1.346 3.53-4.274 3.53zM67.344 49.696c-3.289 0-5.929-2.328-5.929-5.784 0-3.457 2.64-5.785 5.929-5.785 3.264 0 5.928 2.328 5.928 5.785 0 3.456-2.664 5.784-5.928 5.784zm0-8.497c-1.32 0-2.448 1.152-2.448 2.76 0 1.608 1.128 2.76 2.448 2.76 1.296 0 2.448-1.152 2.448-2.76 0-1.608-1.152-2.76-2.448-2.76zM78.768 49.792c-2.232-.096-3.721-1.248-3.721-3.864V32.271h3.48v13.225c0 .888.504 1.368 1.464 1.44l-1.223 2.856zM83.207 36.999c-.624 0-1.896-1.272-1.896-1.896s1.272-1.872 1.896-1.872 1.896 1.248 1.896 1.872-1.272 1.896-1.896 1.896zM81.431 49.36V38.487h3.553V49.36h-3.553zM95.375 49.36v-1.344h-.023c-.601 1.104-1.849 1.656-3.36 1.656-2.665 0-5.232-2.016-5.232-5.736 0-3.504 2.496-5.785 5.521-5.785 1.151 0 2.328.384 2.76.744V32.27h3.433v17.09h-3.099zm-.336-7.129c-.336-.456-1.056-.984-2.136-.984-1.536 0-2.616 1.2-2.616 2.76s1.08 2.76 2.616 2.76a2.53 2.53 0 0 0 2.136-1.128v-3.408zM108.407 49.84c-.648-.144-1.393-.648-1.68-1.44-.48.888-1.513 1.32-2.833 1.32-1.92 0-3.624-1.344-3.624-3.6 0-1.992 1.561-3.336 3.721-3.552l2.16-.216v-.36c0-.648-.528-1.08-1.704-1.08-1.057 0-2.232.336-3.024.84l-.624-2.664c.888-.576 2.376-.96 3.816-.96 2.88 0 4.92 1.32 4.92 3.937v3.552c0 1.272.48 1.944 1.32 2.256l-2.448 1.967zm-2.256-5.233l-1.32.12c-.912.072-1.32.72-1.32 1.368 0 .576.432 1.056 1.104 1.056.84 0 1.536-.648 1.536-1.584v-.96zM119.087 41.367h-2.832v4.032c0 .936.504 1.32 1.44 1.32.407 0 .647-.024.912-.144l-.312 2.664c-.336.168-.936.288-1.632.288-2.448 0-3.912-1.296-3.912-3.456v-4.705h-1.824v-2.88h1.824v-2.328l3.504-1.272v3.6h3.504l-.672 2.881zM130.68 43.312l-1.561 1.584h-5.328c.168.888 1.368 1.896 3.216 1.896 1.128 0 2.28-.336 3-.816L129.671 49c-.815.432-2.063.72-3.456.72-3.312 0-5.977-2.304-5.977-5.856 0-3.504 2.544-5.736 5.664-5.736 3.024 0 4.873 2.088 4.873 4.344 0 .263-.047.623-.095.84zm-4.778-2.545c-1.031 0-1.896.792-2.111 1.776h3.672c0-.072.024-.144.024-.24 0-.744-.648-1.536-1.585-1.536z"/><g><path class="st0" d="M21.385 65.991c-.72-.456-1.464-.696-2.328-.696-1.536 0-2.76 1.104-2.76 2.688 0 1.56 1.224 2.688 2.832 2.688.912 0 1.608-.192 2.376-.6l-.312 3c-.72.336-1.656.528-2.665.528-3.048 0-5.88-2.161-5.88-5.665 0-3.552 2.856-5.688 5.809-5.688 1.44 0 2.616.288 3.576.816l-.648 2.929zM29.017 73.696c-3.289 0-5.929-2.328-5.929-5.784 0-3.457 2.64-5.785 5.929-5.785 3.264 0 5.928 2.328 5.928 5.785 0 3.456-2.664 5.784-5.928 5.784zm0-8.497c-1.32 0-2.448 1.152-2.448 2.76 0 1.608 1.128 2.76 2.448 2.76 1.296 0 2.448-1.152 2.448-2.76 0-1.608-1.153-2.76-2.448-2.76zM43.561 73.36v-6.672c0-.792-.528-1.488-1.608-1.488-1.056 0-1.728.672-1.728 1.536v6.625h-3.528V62.487h3.24v1.464h.024c.432-1.152 1.56-1.8 3.312-1.8 2.376 0 3.816 1.344 3.816 3.648v7.561h-3.528zM56.832 59.415a4.14 4.14 0 0 0-1.416-.288c-1.296 0-1.968.768-1.968 2.329v1.032h3.121l-.696 2.88h-2.424v7.993H50.04v-7.993h-1.656v-2.88h1.656v-1.272c0-3.312 2.136-4.944 4.873-4.944 1.008 0 2.016.12 2.568.36l-.649 2.783zM59.879 60.999c-.624 0-1.896-1.272-1.896-1.896s1.272-1.872 1.896-1.872 1.896 1.248 1.896 1.872-1.272 1.896-1.896 1.896zM58.104 73.36V62.487h3.552V73.36h-3.552zM72.072 73.36v-1.344h-.024c-.6 1.104-1.848 1.656-3.36 1.656-2.664 0-5.232-2.016-5.232-5.736 0-3.504 2.496-5.785 5.521-5.785 1.152 0 2.328.384 2.76.744V56.27h3.432v17.09h-3.097zm-.336-7.129c-.336-.456-1.056-.984-2.136-.984-1.536 0-2.616 1.2-2.616 2.76s1.08 2.76 2.616 2.76a2.529 2.529 0 0 0 2.136-1.128v-3.408zM87.384 67.312l-1.561 1.584h-5.328c.168.888 1.368 1.896 3.217 1.896 1.128 0 2.279-.336 3-.816L86.376 73c-.816.432-2.064.72-3.457.72-3.312 0-5.976-2.304-5.976-5.856 0-3.504 2.544-5.736 5.665-5.736 3.024 0 4.872 2.088 4.872 4.344a4.593 4.593 0 0 1-.096.84zm-4.777-2.545c-1.032 0-1.896.792-2.112 1.776h3.673c0-.072.023-.144.023-.24 0-.744-.647-1.536-1.584-1.536zM96.071 73.36v-6.672c0-.792-.528-1.488-1.608-1.488-1.056 0-1.729.672-1.729 1.536v6.625h-3.528V62.487h3.24v1.464h.024c.432-1.152 1.561-1.8 3.312-1.8 2.376 0 3.816 1.344 3.816 3.648v7.561h-3.527zM108.983 65.367h-2.832v4.032c0 .936.504 1.32 1.44 1.32.407 0 .647-.024.912-.144l-.312 2.664c-.336.168-.936.288-1.632.288-2.448 0-3.912-1.296-3.912-3.456v-4.705h-1.824v-2.88h1.824v-2.328l3.504-1.272v3.6h3.504l-.672 2.881zM114.599 73.792c-2.231-.096-3.72-1.248-3.72-3.864V56.271h3.48v13.225c0 .888.504 1.368 1.464 1.44l-1.224 2.856zM123.455 72.28c-1.656 4.368-3.385 5.953-5.425 6.745l-2.16-2.16c1.752-.672 3.097-1.944 3.984-4.249l-3.912-10.129h3.408l1.584 4.225a15 15 0 0 1 .648 2.136h.048c.216-.744.456-1.512.696-2.136l1.584-4.225h3.24l-3.695 9.793z"/></g><g><path class="st0" d="M25.057 97.456h-2.424l-1.464-4.32a46.113 46.113 0 0 1-.648-2.256h-.048a18.47 18.47 0 0 1-.6 2.232l-1.464 4.345h-2.304l-3.792-10.969h3.216l1.344 4.128c.192.624.408 1.392.528 2.088h.048c.12-.672.312-1.464.528-2.088l1.368-4.128h2.664l1.368 4.104c.216.672.36 1.416.504 2.112h.048c.144-.696.336-1.464.552-2.112l1.368-4.104h3l-3.792 10.968zM31.944 84.999c-.624 0-1.896-1.272-1.896-1.896s1.272-1.872 1.896-1.872 1.896 1.248 1.896 1.872-1.272 1.896-1.896 1.896zM30.168 97.36V86.487h3.552V97.36h-3.552zM43.248 89.367h-2.832v4.032c0 .936.504 1.32 1.44 1.32.408 0 .648-.024.912-.144l-.312 2.664c-.336.168-.936.288-1.632.288-2.448 0-3.913-1.296-3.913-3.456v-4.705h-1.824v-2.88h1.824v-2.328l3.504-1.272v3.6h3.504l-.671 2.881zM52.056 97.36v-6.672c0-.792-.552-1.488-1.632-1.488-1.056 0-1.705.672-1.705 1.536v6.625h-3.528v-17.09h3.48v7.225h.024c.552-.84 1.56-1.344 3.072-1.344 2.4 0 3.816 1.344 3.816 3.648v7.561h-3.527zM70.824 97.84c-.648-.144-1.392-.648-1.68-1.44-.48.888-1.512 1.32-2.832 1.32-1.92 0-3.625-1.344-3.625-3.6 0-1.992 1.56-3.336 3.72-3.552l2.16-.216v-.36c0-.648-.528-1.08-1.704-1.08-1.056 0-2.232.336-3.024.84l-.625-2.664c.888-.576 2.376-.96 3.816-.96 2.88 0 4.92 1.32 4.92 3.937v3.552c0 1.272.48 1.944 1.32 2.256l-2.446 1.967zm-2.257-5.233l-1.32.12c-.912.072-1.32.72-1.32 1.368 0 .576.432 1.056 1.104 1.056.84 0 1.536-.648 1.536-1.584v-.96z"/></g><g><path class="st0" d="M20.281 109.095v12.265h-3.72v-12.265h-4.393v-3.048h12.505v3.048h-4.392zM26.184 121.36v-15.313h3.72v15.313h-3.72zM42.337 121.36l-1.272-3.457h-4.872l-1.272 3.457h-3.504l6.024-15.433h2.568l6.024 15.433h-3.696zm-3.24-9.193c-.144-.408-.336-.912-.456-1.416h-.048c-.12.504-.288 1.032-.432 1.416L37.128 115h3l-1.031-2.833zM57.865 121.36l-1.272-3.457H51.72l-1.272 3.457h-3.504l6.024-15.433h2.568l6.025 15.433h-3.696zm-3.24-9.193c-.144-.408-.336-.912-.456-1.416h-.049c-.12.504-.288 1.032-.432 1.416L52.656 115h3l-1.031-2.833zM68.712 121.36v-15.313h3.72v15.313h-3.72zM84.024 121.36l-4.104-6.024h-.984v6.024H75.36v-15.313h5.593c2.616 0 4.944 1.752 4.944 4.632 0 1.776-1.057 3.241-2.353 3.84l4.873 6.841h-4.393zm-3.625-12.313h-1.464v3.432h1.464c.961 0 1.921-.528 1.921-1.704 0-1.152-.96-1.728-1.921-1.728zM99.793 121.36l-1.272-3.457h-4.872l-1.272 3.457h-3.504l6.024-15.433h2.568l6.024 15.433h-3.696zm-3.24-9.193c-.145-.408-.336-.912-.456-1.416h-.048c-.12.504-.288 1.032-.433 1.416L94.584 115h3.001l-1.032-2.833zM107.016 121.696c-.647 0-1.992-1.344-1.992-1.992 0-.624 1.345-1.968 1.992-1.968.648 0 1.992 1.344 1.992 1.968 0 .648-1.344 1.992-1.992 1.992z"/></g></svg>