<svg id="Layer_1" xmlns="http://www.w3.org/2000/svg" width="160" height="600" viewBox="0 0 160 600"><style>.st0{fill:#231f20}</style><path class="st0" d="M22.253 39.367h-2.832v4.032c0 .936.504 1.32 1.44 1.32.408 0 .648-.024.912-.144l-.312 2.664c-.336.168-.936.288-1.632.288-2.448 0-3.913-1.296-3.913-3.456v-4.705h-1.824v-2.88h1.824v-2.328l3.504-1.272v3.6h3.504l-.671 2.881zM31.062 47.36v-6.672c0-.792-.552-1.488-1.632-1.488-1.056 0-1.705.672-1.705 1.536v6.625h-3.528v-17.09h3.48v7.225h.024c.552-.84 1.56-1.344 3.072-1.344 2.4 0 3.816 1.344 3.816 3.648v7.561h-3.527zM46.758 41.312l-1.56 1.584h-5.329c.168.888 1.368 1.896 3.216 1.896 1.128 0 2.28-.336 3-.816L45.75 47c-.816.432-2.064.72-3.456.72-3.312 0-5.977-2.304-5.977-5.856 0-3.504 2.544-5.736 5.665-5.736 3.024 0 4.873 2.088 4.873 4.344a4.59 4.59 0 0 1-.097.84zm-4.777-2.545c-1.032 0-1.896.792-2.112 1.776h3.672c0-.072.024-.144.024-.24 0-.744-.648-1.536-1.584-1.536zM54.846 46.28c-1.656 4.368-3.385 5.953-5.425 6.745l-2.16-2.16c1.752-.672 3.097-1.944 3.984-4.249l-3.912-10.129h3.408l1.584 4.225a15 15 0 0 1 .648 2.136h.048c.216-.744.456-1.512.696-2.136l1.584-4.225h3.24l-3.695 9.793zM73.589 39.991c-.72-.456-1.464-.696-2.328-.696-1.536 0-2.761 1.104-2.761 2.688 0 1.56 1.225 2.688 2.833 2.688.912 0 1.607-.192 2.376-.6l-.312 3c-.72.336-1.655.528-2.664.528-3.048 0-5.88-2.161-5.88-5.665 0-3.552 2.855-5.688 5.809-5.688 1.439 0 2.616.288 3.576.816l-.649 2.929zM81.221 47.696c-3.288 0-5.928-2.328-5.928-5.784 0-3.457 2.64-5.785 5.928-5.785 3.265 0 5.929 2.328 5.929 5.785-.001 3.456-2.665 5.784-5.929 5.784zm0-8.497c-1.319 0-2.448 1.152-2.448 2.76 0 1.608 1.129 2.76 2.448 2.76 1.297 0 2.448-1.152 2.448-2.76 0-1.608-1.151-2.76-2.448-2.76zM96.028 47.36v-1.488h-.023c-.433 1.152-1.584 1.8-3.337 1.8-2.376 0-3.816-1.32-3.816-3.625v-7.561h3.528v6.673c0 .792.553 1.488 1.633 1.488 1.056 0 1.704-.696 1.704-1.56v-6.601h3.528V47.36h-3.217zM105.268 47.792c-2.231-.096-3.72-1.248-3.72-3.864V30.271h3.48v13.225c0 .888.504 1.368 1.464 1.44l-1.224 2.856zM115.925 47.36v-1.344h-.023c-.601 1.104-1.849 1.656-3.36 1.656-2.665 0-5.232-2.016-5.232-5.736 0-3.504 2.496-5.785 5.521-5.785 1.151 0 2.328.384 2.76.744V30.27h3.433v17.09h-3.099zm-.336-7.129c-.336-.456-1.056-.984-2.136-.984-1.536 0-2.616 1.2-2.616 2.76s1.08 2.76 2.616 2.76a2.53 2.53 0 0 0 2.136-1.128v-3.408z"/><g><path class="st0" d="M22.662 71.84c-.648-.144-1.392-.648-1.68-1.44-.48.888-1.512 1.32-2.832 1.32-1.92 0-3.625-1.344-3.625-3.6 0-1.992 1.56-3.336 3.72-3.552l2.16-.216v-.36c0-.648-.528-1.08-1.704-1.08-1.056 0-2.232.336-3.024.84l-.625-2.664c.888-.576 2.376-.96 3.816-.96 2.88 0 4.92 1.32 4.92 3.937v3.552c0 1.272.48 1.944 1.32 2.256l-2.446 1.967zm-2.257-5.233l-1.32.12c-.912.072-1.32.72-1.32 1.368 0 .576.432 1.056 1.104 1.056.84 0 1.536-.648 1.536-1.584v-.96zM34.373 63.991c-.72-.456-1.464-.696-2.328-.696-1.536 0-2.76 1.104-2.76 2.688 0 1.56 1.224 2.688 2.832 2.688.912 0 1.608-.192 2.376-.6l-.312 3c-.72.336-1.656.528-2.665.528-3.048 0-5.88-2.161-5.88-5.665 0-3.552 2.856-5.688 5.809-5.688 1.44 0 2.616.288 3.576.816l-.648 2.929zM43.661 71.36v-6.672c0-.792-.552-1.488-1.632-1.488-1.056 0-1.705.672-1.705 1.536v6.625h-3.528v-17.09h3.48v7.225h.024c.552-.84 1.56-1.344 3.072-1.344 2.4 0 3.816 1.344 3.816 3.648v7.561h-3.527zM51.244 58.999c-.624 0-1.896-1.272-1.896-1.896s1.272-1.872 1.896-1.872 1.896 1.248 1.896 1.872-1.272 1.896-1.896 1.896zM49.468 71.36V60.487h3.553V71.36h-3.553zM65.237 65.312l-1.561 1.584h-5.328c.168.888 1.368 1.896 3.216 1.896 1.128 0 2.28-.336 3-.816L64.229 71c-.815.432-2.063.72-3.456.72-3.312 0-5.977-2.304-5.977-5.856 0-3.504 2.544-5.736 5.664-5.736 3.024 0 4.873 2.088 4.873 4.344 0 .263-.048.623-.096.84zm-4.777-2.545c-1.031 0-1.896.792-2.111 1.776h3.672c0-.072.024-.144.024-.24 0-.744-.649-1.536-1.585-1.536zM72.628 71.456h-2.641l-4.176-10.969h3.408l1.536 4.152c.216.576.432 1.392.6 2.112h.048c.169-.696.408-1.536.625-2.112l1.536-4.152h3.264l-4.2 10.969zM87.581 65.312l-1.561 1.584h-5.328c.168.888 1.368 1.896 3.216 1.896 1.128 0 2.28-.336 3-.816L86.572 71c-.815.432-2.063.72-3.456.72-3.312 0-5.977-2.304-5.977-5.856 0-3.504 2.544-5.736 5.664-5.736 3.024 0 4.873 2.088 4.873 4.344.001.263-.047.623-.095.84zm-4.777-2.545c-1.031 0-1.896.792-2.111 1.776h3.672c0-.072.024-.144.024-.24 0-.744-.649-1.536-1.585-1.536z"/></g><g><path class="st0" d="M18.509 95.6c-1.488 0-2.568-.312-3.457-.768l-.312-3.121c.96.672 2.208 1.176 3.409 1.176.648 0 1.056-.336 1.056-.744 0-.456-.36-.648-.984-.84-2.088-.6-3.336-1.656-3.336-3.553 0-2.136 1.729-3.504 4.081-3.504 1.344 0 2.664.36 3.216.648l-.6 2.592c-.528-.288-1.392-.6-2.256-.6-.576 0-.96.264-.96.696 0 .408.288.624.96.792 2.448.648 3.457 1.872 3.457 3.696-.001 1.85-1.345 3.53-4.274 3.53zM29.861 95.696c-3.289 0-5.929-2.328-5.929-5.784 0-3.457 2.64-5.785 5.929-5.785 3.264 0 5.928 2.328 5.928 5.785.001 3.456-2.664 5.784-5.928 5.784zm0-8.497c-1.32 0-2.448 1.152-2.448 2.76 0 1.608 1.128 2.76 2.448 2.76 1.296 0 2.448-1.152 2.448-2.76.001-1.608-1.152-2.76-2.448-2.76zM50.934 95.36v-6.672c0-.792-.384-1.488-1.536-1.488-1.128 0-1.632.672-1.632 1.536v6.625h-3.529v-6.672c0-.792-.384-1.488-1.536-1.488-1.128 0-1.632.672-1.632 1.536v6.625h-3.528V84.487h3.264v1.464h.024c.432-1.152 1.512-1.8 3.216-1.8 1.56 0 2.736.624 3.217 1.776.456-1.056 1.728-1.776 3.36-1.776 2.472 0 3.84 1.344 3.84 3.648v7.561h-3.528zM66.654 89.312l-1.561 1.584h-5.328c.168.888 1.368 1.896 3.216 1.896 1.128 0 2.28-.336 3-.816L65.646 95c-.815.432-2.063.72-3.456.72-3.312 0-5.977-2.304-5.977-5.856 0-3.504 2.544-5.736 5.664-5.736 3.024 0 4.873 2.088 4.873 4.344 0 .263-.048.623-.096.84zm-4.777-2.545c-1.031 0-1.896.792-2.111 1.776h3.672c0-.072.024-.144.024-.24 0-.744-.649-1.536-1.585-1.536zM75.845 87.367h-2.832v4.032c0 .936.504 1.32 1.44 1.32.407 0 .647-.024.912-.144l-.312 2.664c-.336.168-.936.288-1.632.288-2.448 0-3.912-1.296-3.912-3.456v-4.705h-1.824v-2.88h1.824v-2.328l3.504-1.272v3.6h3.504l-.672 2.881zM84.652 95.36v-6.672c0-.792-.552-1.488-1.632-1.488-1.057 0-1.704.672-1.704 1.536v6.625h-3.528v-17.09h3.48v7.225h.023c.552-.84 1.561-1.344 3.072-1.344 2.4 0 3.816 1.344 3.816 3.648v7.561h-3.527zM92.236 82.999c-.624 0-1.896-1.272-1.896-1.896s1.272-1.872 1.896-1.872 1.896 1.248 1.896 1.872-1.272 1.896-1.896 1.896zM90.46 95.36V84.487h3.553V95.36H90.46zM103.181 95.36v-6.672c0-.792-.528-1.488-1.608-1.488-1.056 0-1.729.672-1.729 1.536v6.625h-3.528V84.487h3.24v1.464h.024c.432-1.152 1.561-1.8 3.312-1.8 2.376 0 3.816 1.344 3.816 3.648v7.561h-3.527zM113.524 100.904c-3.168 0-5.28-1.8-5.28-4.08 0-1.656 1.104-2.641 2.232-2.929l-1.393-1.392c.097-.696.696-1.296 1.32-1.56a3.42 3.42 0 0 1-1.584-2.904c0-2.304 1.656-3.912 4.488-3.912a6.06 6.06 0 0 1 1.608.216c.479.12 1.008.192 1.56.192.601 0 1.225-.144 1.704-.36l.648 2.688c-.336.192-.864.36-1.344.336.12.216.264.72.264 1.104 0 1.824-1.44 3.36-3.553 3.504-.432.024-.72.12-.72.408 0 .12.096.264.288.336l1.68.6c2.137.768 3.289 1.848 3.289 3.84.002 2.233-2.038 3.913-5.207 3.913zm.745-5.112l-1.296-.36c-.84.024-1.464.625-1.464 1.417 0 .744.647 1.368 1.92 1.368 1.248 0 1.92-.576 1.92-1.2 0-.505-.384-1.033-1.08-1.225zm-.96-9.097c-.792 0-1.393.6-1.393 1.296 0 .72.601 1.296 1.393 1.296.769 0 1.393-.576 1.393-1.296-.001-.696-.577-1.296-1.393-1.296z"/></g><g><path class="st0" d="M21.702 112.231a2.623 2.623 0 0 0-1.056-.264c-1.128 0-2.16.6-2.16 2.328v5.064h-3.528v-10.873h3.48v2.424h.024c.36-1.704 1.632-2.616 3.096-2.616.336 0 .744.048 1.008.144l-.864 3.793zM33.486 113.312l-1.56 1.584h-5.329c.168.888 1.368 1.896 3.216 1.896 1.128 0 2.28-.336 3-.816L32.478 119c-.816.432-2.064.72-3.456.72-3.312 0-5.977-2.304-5.977-5.856 0-3.504 2.544-5.736 5.665-5.736 3.024 0 4.873 2.088 4.873 4.344a4.59 4.59 0 0 1-.097.84zm-4.777-2.545c-1.032 0-1.896.792-2.112 1.776h3.672c0-.072.024-.144.024-.24 0-.744-.647-1.536-1.584-1.536zM42.869 119.84c-.648-.144-1.392-.648-1.68-1.44-.48.888-1.512 1.32-2.832 1.32-1.92 0-3.625-1.344-3.625-3.6 0-1.992 1.56-3.336 3.72-3.552l2.16-.216v-.36c0-.648-.528-1.08-1.704-1.08-1.056 0-2.232.336-3.024.84l-.624-2.664c.888-.576 2.376-.96 3.816-.96 2.88 0 4.92 1.32 4.92 3.937v3.552c0 1.272.48 1.944 1.32 2.256l-2.447 1.967zm-2.256-5.233l-1.32.12c-.912.072-1.32.72-1.32 1.368 0 .576.432 1.056 1.104 1.056.84 0 1.536-.648 1.536-1.584v-.96zM50.213 119.792c-2.232-.096-3.721-1.248-3.721-3.864v-13.657h3.48v13.225c0 .888.504 1.368 1.464 1.44l-1.223 2.856zM56.524 119.792c-2.231-.096-3.72-1.248-3.72-3.864v-13.657h3.48v13.225c0 .888.504 1.368 1.464 1.44l-1.224 2.856zM65.381 118.28c-1.656 4.368-3.385 5.953-5.425 6.745l-2.16-2.16c1.752-.672 3.097-1.944 3.984-4.249l-3.912-10.129h3.408l1.584 4.225a15 15 0 0 1 .648 2.136h.048c.216-.744.456-1.512.696-2.136l1.584-4.225h3.24l-3.695 9.793zM79.349 119.6c-1.488 0-2.568-.312-3.456-.768l-.312-3.121c.96.672 2.208 1.176 3.408 1.176.648 0 1.057-.336 1.057-.744 0-.456-.36-.648-.984-.84-2.088-.6-3.336-1.656-3.336-3.553 0-2.136 1.728-3.504 4.08-3.504 1.344 0 2.664.36 3.216.648l-.6 2.592c-.528-.288-1.393-.6-2.256-.6-.576 0-.96.264-.96.696 0 .408.287.624.96.792 2.448.648 3.456 1.872 3.456 3.696-.001 1.85-1.345 3.53-4.273 3.53zM97.086 119.456h-2.425l-1.464-4.32a45.025 45.025 0 0 1-.648-2.256h-.048a18.47 18.47 0 0 1-.6 2.232l-1.465 4.345h-2.304l-3.792-10.969h3.216l1.344 4.128c.192.624.408 1.392.528 2.088h.048c.12-.672.312-1.464.528-2.088l1.368-4.128h2.664l1.368 4.104c.216.672.36 1.416.504 2.112h.048c.145-.696.336-1.464.553-2.112l1.368-4.104h3l-3.791 10.968zM111.749 113.312l-1.561 1.584h-5.328c.168.888 1.368 1.896 3.216 1.896 1.128 0 2.28-.336 3-.816L110.74 119c-.815.432-2.063.72-3.456.72-3.312 0-5.977-2.304-5.977-5.856 0-3.504 2.544-5.736 5.664-5.736 3.024 0 4.873 2.088 4.873 4.344.001.263-.047.623-.095.84zm-4.777-2.545c-1.031 0-1.896.792-2.111 1.776h3.672c0-.072.024-.144.024-.24 0-.744-.649-1.536-1.585-1.536zM123.461 113.312l-1.561 1.584h-5.328c.168.888 1.368 1.896 3.216 1.896 1.128 0 2.28-.336 3-.816l-.336 3.024c-.815.432-2.063.72-3.456.72-3.312 0-5.977-2.304-5.977-5.856 0-3.504 2.544-5.736 5.664-5.736 3.024 0 4.873 2.088 4.873 4.344.001.263-.047.623-.095.84zm-4.777-2.545c-1.031 0-1.896.792-2.111 1.776h3.672c0-.072.024-.144.024-.24 0-.744-.649-1.536-1.585-1.536zM132.651 111.367h-2.832v4.032c0 .936.504 1.32 1.44 1.32.407 0 .647-.024.912-.144l-.312 2.664c-.336.168-.936.288-1.632.288-2.448 0-3.912-1.296-3.912-3.456v-4.705h-1.824v-2.88h1.824v-2.328l3.504-1.272v3.6h3.504l-.672 2.881zM136.011 119.696c-.647 0-1.992-1.344-1.992-1.992 0-.624 1.345-1.968 1.992-1.968.648 0 1.992 1.344 1.992 1.968 0 .648-1.344 1.992-1.992 1.992z"/></g></svg>