<svg id="Layer_1" xmlns="http://www.w3.org/2000/svg" width="160" height="600" viewBox="0 0 160 600"><style>.st0{fill:#231f20}</style><path class="st0" d="M24.043 44.919v6.841h-3.6v-6.769l-5.736-8.545h3.984l2.521 3.672c.36.504.768 1.224 1.104 1.848h.048c.312-.6.792-1.368 1.128-1.848l2.52-3.672h3.72l-5.689 8.473zM34.483 52.096c-3.289 0-5.929-2.328-5.929-5.784 0-3.457 2.64-5.785 5.929-5.785 3.264 0 5.928 2.328 5.928 5.785.001 3.456-2.663 5.784-5.928 5.784zm0-8.497c-1.32 0-2.448 1.152-2.448 2.76 0 1.608 1.128 2.76 2.448 2.76 1.296 0 2.448-1.152 2.448-2.76.001-1.608-1.152-2.76-2.448-2.76zM49.292 51.76v-1.488h-.024c-.432 1.152-1.584 1.8-3.336 1.8-2.376 0-3.816-1.32-3.816-3.625v-7.561h3.528v6.673c0 .792.552 1.488 1.632 1.488 1.056 0 1.705-.696 1.705-1.56v-6.601h3.528V51.76h-3.217zM61.507 44.631a2.623 2.623 0 0 0-1.056-.264c-1.128 0-2.16.6-2.16 2.328v5.064h-3.528V40.887h3.48v2.424h.024c.36-1.704 1.632-2.616 3.096-2.616.336 0 .744.048 1.008.144l-.864 3.792zM74.491 52.096c-3.289 0-5.929-2.328-5.929-5.784 0-3.457 2.64-5.785 5.929-5.785 3.265 0 5.929 2.328 5.929 5.785-.001 3.456-2.665 5.784-5.929 5.784zm0-8.497c-1.32 0-2.448 1.152-2.448 2.76 0 1.608 1.128 2.76 2.448 2.76 1.296 0 2.448-1.152 2.448-2.76 0-1.608-1.152-2.76-2.448-2.76zM85.913 52.192c-2.231-.096-3.72-1.248-3.72-3.864V34.67h3.48v13.225c0 .888.504 1.368 1.464 1.44l-1.224 2.857zM96.594 51.76v-1.344h-.024c-.601 1.104-1.849 1.656-3.36 1.656-2.665 0-5.232-2.016-5.232-5.736 0-3.504 2.496-5.785 5.521-5.785 1.151 0 2.328.384 2.76.744V34.67h3.433v17.09h-3.098zm-.336-7.129c-.336-.456-1.056-.984-2.136-.984-1.536 0-2.616 1.2-2.616 2.76s1.08 2.76 2.616 2.76a2.53 2.53 0 0 0 2.136-1.128v-3.408z"/><g><path class="st0" d="M22.268 68.631a2.623 2.623 0 0 0-1.056-.264c-1.128 0-2.16.6-2.16 2.328v5.064h-3.528V64.887h3.48v2.424h.024c.36-1.704 1.632-2.616 3.096-2.616.336 0 .744.048 1.008.144l-.864 3.792zM34.052 69.711l-1.56 1.584h-5.329c.168.888 1.368 1.896 3.216 1.896 1.128 0 2.28-.336 3-.816l-.336 3.025c-.816.432-2.064.72-3.456.72-3.312 0-5.977-2.304-5.977-5.856 0-3.504 2.544-5.736 5.665-5.736 3.024 0 4.873 2.088 4.873 4.344 0 .263-.048.623-.096.839zm-4.777-2.544c-1.032 0-1.896.792-2.112 1.776h3.672c0-.072.024-.144.024-.24 0-.744-.648-1.536-1.584-1.536zM43.243 67.767h-2.832v4.032c0 .936.504 1.32 1.44 1.32.408 0 .648-.024.912-.144l-.312 2.664c-.336.168-.936.288-1.632.288-2.448 0-3.913-1.296-3.913-3.456v-4.705h-1.824v-2.88h1.824v-2.328l3.504-1.272v3.6h3.504l-.671 2.881zM46.986 63.399c-.624 0-1.896-1.272-1.896-1.896s1.272-1.872 1.896-1.872 1.896 1.248 1.896 1.872-1.272 1.896-1.896 1.896zM45.21 75.76V64.887h3.552V75.76H45.21zM57.811 68.631a2.623 2.623 0 0 0-1.056-.264c-1.128 0-2.16.6-2.16 2.328v5.064h-3.528V64.887h3.48v2.424h.024c.36-1.704 1.632-2.616 3.096-2.616.336 0 .744.048 1.008.144l-.864 3.792zM69.595 69.711l-1.56 1.584h-5.329c.168.888 1.368 1.896 3.216 1.896 1.128 0 2.28-.336 3-.816l-.335 3.025c-.816.432-2.064.72-3.456.72-3.312 0-5.977-2.304-5.977-5.856 0-3.504 2.544-5.736 5.665-5.736 3.024 0 4.873 2.088 4.873 4.344a4.569 4.569 0 0 1-.097.839zm-4.776-2.544c-1.032 0-1.896.792-2.112 1.776h3.672c0-.072.024-.144.024-.24 0-.744-.648-1.536-1.584-1.536zM84.811 75.76v-6.672c0-.792-.384-1.488-1.536-1.488-1.128 0-1.632.672-1.632 1.536v6.625h-3.528v-6.672c0-.792-.385-1.488-1.536-1.488-1.128 0-1.632.672-1.632 1.536v6.625h-3.528V64.887h3.264v1.464h.024c.432-1.152 1.512-1.8 3.216-1.8 1.561 0 2.736.624 3.216 1.776.456-1.056 1.728-1.776 3.36-1.776 2.472 0 3.84 1.344 3.84 3.648v7.561h-3.528zM100.53 69.711l-1.561 1.584h-5.328c.168.888 1.368 1.896 3.216 1.896 1.128 0 2.28-.336 3-.816l-.336 3.025c-.815.432-2.063.72-3.456.72-3.312 0-5.977-2.304-5.977-5.856 0-3.504 2.544-5.736 5.664-5.736 3.024 0 4.873 2.088 4.873 4.344.001.263-.047.623-.095.839zm-4.777-2.544c-1.031 0-1.896.792-2.111 1.776h3.672c0-.072.024-.144.024-.24 0-.744-.649-1.536-1.585-1.536zM109.218 75.76v-6.672c0-.792-.528-1.488-1.608-1.488-1.056 0-1.729.672-1.729 1.536v6.625h-3.528V64.887h3.24v1.464h.024c.432-1.152 1.561-1.8 3.312-1.8 2.376 0 3.816 1.344 3.816 3.648v7.561h-3.527zM122.13 67.767h-2.832v4.032c0 .936.504 1.32 1.44 1.32.407 0 .647-.024.912-.144l-.312 2.664c-.336.168-.936.288-1.632.288-2.448 0-3.912-1.296-3.912-3.456v-4.705h-1.824v-2.88h1.824v-2.328l3.504-1.272v3.6h3.504l-.672 2.881z"/></g><g><path class="st0" d="M23.228 100.24c-.648-.144-1.392-.648-1.68-1.44-.48.888-1.512 1.32-2.832 1.32-1.92 0-3.625-1.344-3.625-3.6 0-1.992 1.56-3.336 3.72-3.552l2.16-.216v-.36c0-.648-.528-1.08-1.704-1.08-1.056 0-2.232.336-3.024.84l-.625-2.664c.888-.576 2.376-.96 3.816-.96 2.88 0 4.92 1.32 4.92 3.936v3.553c0 1.272.48 1.944 1.32 2.256l-2.446 1.967zm-2.257-5.233l-1.32.12c-.912.072-1.32.72-1.32 1.368 0 .576.432 1.056 1.104 1.056.84 0 1.536-.648 1.536-1.584v-.96zM34.939 92.391c-.72-.456-1.464-.696-2.328-.696-1.536 0-2.76 1.104-2.76 2.688 0 1.56 1.224 2.688 2.832 2.688.912 0 1.608-.192 2.376-.6l-.312 3c-.72.336-1.656.528-2.665.528-3.048 0-5.88-2.16-5.88-5.665 0-3.552 2.856-5.688 5.809-5.688 1.44 0 2.616.288 3.576.816l-.648 2.929zM45.379 92.391c-.72-.456-1.464-.696-2.328-.696-1.536 0-2.76 1.104-2.76 2.688 0 1.56 1.224 2.688 2.832 2.688.912 0 1.608-.192 2.376-.6l-.312 3c-.72.336-1.656.528-2.664.528-3.048 0-5.881-2.16-5.881-5.665 0-3.552 2.856-5.688 5.809-5.688 1.44 0 2.616.288 3.576.816l-.648 2.929zM53.011 100.096c-3.289 0-5.929-2.328-5.929-5.784 0-3.457 2.64-5.785 5.929-5.785 3.264 0 5.928 2.328 5.928 5.785 0 3.456-2.664 5.784-5.928 5.784zm0-8.497c-1.32 0-2.448 1.152-2.448 2.76 0 1.608 1.128 2.76 2.448 2.76 1.296 0 2.448-1.152 2.448-2.76 0-1.608-1.152-2.76-2.448-2.76zM67.819 99.76v-1.488h-.024c-.432 1.152-1.584 1.8-3.336 1.8-2.376 0-3.816-1.32-3.816-3.625v-7.561h3.528v6.673c0 .792.552 1.488 1.632 1.488 1.056 0 1.705-.696 1.705-1.56v-6.601h3.528V99.76h-3.217zM80.155 99.76v-6.672c0-.792-.528-1.488-1.608-1.488-1.056 0-1.729.672-1.729 1.536v6.625H73.29V88.887h3.24v1.464h.024c.432-1.152 1.561-1.8 3.312-1.8 2.375 0 3.816 1.344 3.816 3.648v7.561h-3.527zM93.065 91.767h-2.832v4.032c0 .936.504 1.32 1.44 1.32.407 0 .647-.024.912-.144l-.312 2.664c-.336.168-.936.288-1.632.288-2.448 0-3.912-1.296-3.912-3.456v-4.705h-1.824v-2.88h1.824v-2.328l3.504-1.272v3.6h3.504l-.672 2.881zM98.321 100c-1.488 0-2.568-.312-3.456-.768l-.312-3.121c.96.672 2.208 1.176 3.408 1.176.648 0 1.057-.336 1.057-.744 0-.456-.36-.648-.984-.84-2.088-.6-3.336-1.656-3.336-3.553 0-2.136 1.728-3.504 4.08-3.504 1.344 0 2.664.36 3.216.648l-.6 2.592c-.528-.288-1.393-.6-2.256-.6-.576 0-.96.264-.96.696 0 .408.287.624.96.792 2.448.648 3.456 1.872 3.456 3.696 0 1.85-1.344 3.53-4.273 3.53z"/></g><g><path class="st0" d="M28.916 123.76v-6.672c0-.792-.384-1.488-1.536-1.488-1.128 0-1.632.672-1.632 1.536v6.625H22.22v-6.672c0-.792-.384-1.488-1.536-1.488-1.128 0-1.632.672-1.632 1.536v6.625h-3.528v-10.873h3.264v1.464h.024c.432-1.152 1.512-1.8 3.216-1.8 1.56 0 2.736.624 3.216 1.776.456-1.056 1.728-1.776 3.36-1.776 2.472 0 3.84 1.344 3.84 3.648v7.561h-3.528zM42.332 124.24c-.648-.144-1.392-.648-1.68-1.44-.48.888-1.512 1.32-2.832 1.32-1.92 0-3.625-1.344-3.625-3.6 0-1.992 1.56-3.336 3.72-3.552l2.16-.216v-.36c0-.648-.528-1.08-1.704-1.08-1.056 0-2.232.336-3.024.84l-.624-2.664c.888-.576 2.376-.96 3.816-.96 2.88 0 4.92 1.32 4.92 3.936v3.553c0 1.272.48 1.944 1.32 2.256l-2.447 1.967zm-2.257-5.233l-1.32.12c-.912.072-1.32.72-1.32 1.368 0 .576.432 1.056 1.104 1.056.84 0 1.536-.648 1.536-1.584v-.96z"/><path class="st0" d="M52.075 122.68c-1.656 4.368-3.384 5.953-5.424 6.745l-2.16-2.16c1.752-.672 3.096-1.944 3.984-4.249l-3.912-10.129h3.408l1.584 4.225a15 15 0 0 1 .648 2.136h.048c.216-.744.456-1.512.696-2.136l1.584-4.225h3.241l-3.697 9.793zM67.819 124.072c-2.304 0-4.177-.792-5.233-1.608V106.67h3.409v6.601c.456-.36 1.608-.72 2.736-.72 3 0 5.473 2.136 5.473 5.568 0 3.36-2.137 5.953-6.385 5.953zm.288-8.425c-1.008 0-1.776.48-2.112.84v4.152c.36.264 1.104.528 1.776.528 1.8 0 2.928-1.224 2.928-2.808 0-1.512-1.056-2.712-2.592-2.712zM85.915 117.711l-1.561 1.584h-5.328c.168.888 1.368 1.896 3.215 1.896 1.128 0 2.28-.336 3-.816l-.336 3.024c-.815.432-2.063.72-3.456.72-3.312 0-5.976-2.304-5.976-5.856 0-3.504 2.544-5.736 5.664-5.736 3.024 0 4.873 2.088 4.873 4.344.001.264-.047.624-.095.84zm-4.777-2.544c-1.031 0-1.895.792-2.111 1.776h3.671c0-.072.024-.144.024-.24.001-.744-.648-1.536-1.584-1.536z"/></g><g><path class="st0" d="M20.852 148.072c-2.304 0-4.177-.792-5.233-1.608V130.67h3.409v6.601c.456-.36 1.608-.72 2.736-.72 3 0 5.473 2.136 5.473 5.568-.001 3.36-2.137 5.953-6.385 5.953zm.287-8.425c-1.008 0-1.776.48-2.112.84v4.152c.36.264 1.104.528 1.776.528 1.8 0 2.928-1.224 2.928-2.808 0-1.512-1.056-2.712-2.592-2.712zM36.164 147.76v-1.488h-.024c-.432 1.152-1.584 1.8-3.336 1.8-2.376 0-3.816-1.32-3.816-3.625v-7.561h3.528v6.673c0 .792.552 1.488 1.632 1.488 1.056 0 1.705-.696 1.705-1.56v-6.601h3.528v10.873h-3.217zM41.059 147.76v-.672l2.712-4.873c.456-.792.96-1.704 1.44-2.424l-.024-.024h-3.696v-2.88h8.305v.672l-2.712 4.872c-.456.792-.912 1.608-1.44 2.4l.024.048h4.488v2.88h-9.097zM51.378 147.76v-.672l2.712-4.873c.456-.792.96-1.704 1.44-2.424l-.024-.024H51.81v-2.88h8.305v.672l-2.712 4.872c-.456.792-.912 1.608-1.44 2.4l.024.048h4.488v2.88h-9.097zM64.051 135.399c-.624 0-1.896-1.272-1.896-1.896s1.272-1.872 1.896-1.872 1.896 1.248 1.896 1.872-1.272 1.896-1.896 1.896zm-1.776 12.361v-10.873h3.552v10.873h-3.552zM74.995 147.76v-6.672c0-.792-.528-1.488-1.608-1.488-1.056 0-1.728.672-1.728 1.536v6.625H68.13v-10.873h3.24v1.464h.024c.432-1.152 1.56-1.8 3.312-1.8 2.376 0 3.816 1.344 3.816 3.648v7.561h-3.527zM85.338 153.304c-3.168 0-5.28-1.8-5.28-4.08 0-1.656 1.104-2.641 2.232-2.929l-1.392-1.392c.097-.696.696-1.296 1.32-1.56a3.42 3.42 0 0 1-1.583-2.904c0-2.304 1.656-3.912 4.488-3.912a6.06 6.06 0 0 1 1.608.216c.479.12 1.008.192 1.56.192.601 0 1.225-.144 1.704-.36l.648 2.688c-.336.192-.864.36-1.344.336.12.216.264.72.264 1.104 0 1.824-1.44 3.36-3.553 3.504-.432.024-.72.12-.72.408 0 .12.096.264.288.336l1.68.6c2.137.768 3.289 1.848 3.289 3.84 0 2.233-2.04 3.913-5.209 3.913zm.744-5.112l-1.296-.36c-.84.024-1.464.625-1.464 1.417 0 .744.647 1.368 1.92 1.368 1.248 0 1.92-.576 1.92-1.2 0-.505-.384-1.033-1.08-1.225zm-.96-9.097c-.792 0-1.393.6-1.393 1.296 0 .72.601 1.296 1.393 1.296.769 0 1.393-.576 1.393-1.296 0-.696-.577-1.296-1.393-1.296z"/></g><g><path class="st0" d="M23.228 172.24c-.648-.144-1.392-.648-1.68-1.44-.48.888-1.512 1.32-2.832 1.32-1.92 0-3.625-1.344-3.625-3.6 0-1.992 1.56-3.336 3.72-3.552l2.16-.216v-.36c0-.648-.528-1.08-1.704-1.08-1.056 0-2.232.336-3.024.84l-.625-2.664c.888-.576 2.376-.96 3.816-.96 2.88 0 4.92 1.32 4.92 3.936v3.553c0 1.272.48 1.944 1.32 2.256l-2.446 1.967zm-2.257-5.233l-1.32.12c-.912.072-1.32.72-1.32 1.368 0 .576.432 1.056 1.104 1.056.84 0 1.536-.648 1.536-1.584v-.96zM30.571 172.192c-2.232-.096-3.721-1.248-3.721-3.864V154.67h3.48v13.225c0 .888.504 1.368 1.464 1.44l-1.223 2.857zM38.515 172.096c-3.289 0-5.929-2.328-5.929-5.784 0-3.457 2.64-5.785 5.929-5.785 3.264 0 5.928 2.328 5.928 5.785 0 3.456-2.664 5.784-5.928 5.784zm0-8.497c-1.32 0-2.448 1.152-2.448 2.76 0 1.608 1.128 2.76 2.448 2.76 1.296 0 2.448-1.152 2.448-2.76 0-1.608-1.152-2.76-2.448-2.76zM53.059 171.76v-6.672c0-.792-.528-1.488-1.608-1.488-1.056 0-1.728.672-1.728 1.536v6.625h-3.528v-10.873h3.24v1.464h.024c.432-1.152 1.56-1.8 3.312-1.8 2.376 0 3.816 1.344 3.816 3.648v7.561h-3.528zM63.402 177.304c-3.168 0-5.28-1.8-5.28-4.08 0-1.656 1.104-2.641 2.232-2.929l-1.392-1.392c.096-.696.696-1.296 1.32-1.56a3.42 3.42 0 0 1-1.584-2.904c0-2.304 1.656-3.912 4.488-3.912a6.06 6.06 0 0 1 1.608.216 6.46 6.46 0 0 0 1.561.192c.6 0 1.224-.144 1.704-.36l.648 2.688c-.336.192-.864.36-1.344.336.12.216.264.72.264 1.104 0 1.824-1.44 3.36-3.552 3.504-.432.024-.72.12-.72.408 0 .12.096.264.288.336l1.68.6c2.136.768 3.288 1.848 3.288 3.84 0 2.233-2.04 3.913-5.209 3.913zm.744-5.112l-1.296-.36c-.84.024-1.464.625-1.464 1.417 0 .744.648 1.368 1.92 1.368 1.248 0 1.92-.576 1.92-1.2.001-.505-.383-1.033-1.08-1.225zm-.959-9.097c-.792 0-1.392.6-1.392 1.296 0 .72.6 1.296 1.392 1.296.768 0 1.392-.576 1.392-1.296 0-.696-.577-1.296-1.392-1.296zM71.346 172.096c-.648 0-1.992-1.344-1.992-1.992 0-.624 1.344-1.968 1.992-1.968.648 0 1.992 1.344 1.992 1.968 0 .647-1.344 1.992-1.992 1.992z"/></g></svg>