<svg id="Layer_1" xmlns="http://www.w3.org/2000/svg" width="160" height="600" viewBox="0 0 160 600"><style>.st0{fill:#231f20}</style><path class="st0" d="M20.965 51.36H15.3V36.046h5.017c2.376 0 4.488 1.56 4.488 4.057 0 .912-.456 2.064-1.272 2.52 1.344.432 2.664 2.016 2.664 3.96 0 2.977-2.352 4.777-5.232 4.777zm-1.224-12.553h-1.104v3.145h1.104c.888 0 1.704-.456 1.704-1.56 0-1.129-.816-1.585-1.704-1.585zm.6 5.832h-1.704v4.008h1.704c1.128 0 2.28-.6 2.28-1.992 0-1.368-1.128-2.016-2.28-2.016zM35.293 51.36v-1.488h-.024c-.432 1.152-1.584 1.8-3.336 1.8-2.376 0-3.816-1.32-3.816-3.625v-7.561h3.528v6.673c0 .792.552 1.488 1.632 1.488 1.056 0 1.705-.696 1.705-1.56v-6.601h3.528V51.36h-3.217zM48.061 43.367h-2.832v4.032c0 .936.504 1.32 1.44 1.32.408 0 .648-.024.912-.144l-.312 2.664c-.336.168-.936.288-1.632.288-2.448 0-3.913-1.296-3.913-3.456v-4.705H39.9v-2.88h1.824v-2.328l3.504-1.272v3.6h3.504l-.671 2.881zM57.228 38.999c-.624 0-1.896-1.272-1.896-1.896s1.272-1.872 1.896-1.872 1.896 1.248 1.896 1.872-1.272 1.896-1.896 1.896zM55.452 51.36V40.487h3.552V51.36h-3.552zM68.892 37.415a4.14 4.14 0 0 0-1.416-.288c-1.296 0-1.968.768-1.968 2.329v1.032h3.12l-.696 2.88h-2.424v7.993H62.1v-7.993h-1.656v-2.88H62.1v-1.272c0-3.312 2.136-4.944 4.873-4.944 1.008 0 2.016.12 2.568.36l-.649 2.783z"/><g><path class="st0" d="M22.405 67.367h-2.832v4.032c0 .936.504 1.32 1.44 1.32.408 0 .648-.024.912-.144l-.312 2.664c-.336.168-.936.288-1.632.288-2.448 0-3.913-1.296-3.913-3.456v-4.705h-1.824v-2.88h1.824v-2.328l3.504-1.272v3.6h3.504l-.671 2.881zM31.213 75.36v-6.672c0-.792-.552-1.488-1.632-1.488-1.056 0-1.705.672-1.705 1.536v6.625h-3.528v-17.09h3.48v7.225h.024c.552-.84 1.56-1.344 3.072-1.344 2.4 0 3.816 1.344 3.816 3.648v7.561h-3.527zM46.909 69.312l-1.56 1.584H40.02c.168.888 1.368 1.896 3.216 1.896 1.128 0 2.28-.336 3-.816L45.901 75c-.816.432-2.064.72-3.456.72-3.312 0-5.977-2.304-5.977-5.856 0-3.504 2.544-5.736 5.665-5.736 3.024 0 4.873 2.088 4.873 4.344a4.59 4.59 0 0 1-.097.84zm-4.776-2.545c-1.032 0-1.896.792-2.112 1.776h3.672c0-.072.024-.144.024-.24 0-.744-.648-1.536-1.584-1.536zM54.996 74.28c-1.656 4.368-3.384 5.953-5.424 6.745l-2.16-2.16c1.752-.672 3.096-1.944 3.984-4.249l-3.912-10.129h3.408l1.584 4.225a15 15 0 0 1 .648 2.136h.048c.216-.744.456-1.512.696-2.136l1.584-4.225h3.241l-3.697 9.793zM77.413 75.456h-2.424l-1.464-4.32a45.025 45.025 0 0 1-.648-2.256h-.048a18.47 18.47 0 0 1-.6 2.232l-1.465 4.345H68.46l-3.792-10.969h3.216l1.344 4.128c.192.624.408 1.392.528 2.088h.048c.12-.672.312-1.464.528-2.088l1.368-4.128h2.664l1.368 4.104c.216.672.36 1.416.504 2.112h.048c.145-.696.336-1.464.553-2.112l1.368-4.104h3l-3.792 10.968zM92.076 69.312l-1.561 1.584h-5.328c.168.888 1.368 1.896 3.216 1.896 1.128 0 2.28-.336 3-.816L91.067 75c-.815.432-2.063.72-3.456.72-3.312 0-5.977-2.304-5.977-5.856 0-3.504 2.544-5.736 5.664-5.736 3.024 0 4.873 2.088 4.873 4.344.001.263-.047.623-.095.84zm-4.777-2.545c-1.031 0-1.896.792-2.111 1.776h3.672c0-.072.024-.144.024-.24 0-.744-.649-1.536-1.585-1.536zM100.644 68.231a2.624 2.624 0 0 0-1.057-.264c-1.128 0-2.16.6-2.16 2.328v5.064h-3.528V64.487h3.48v2.424h.024c.36-1.704 1.632-2.616 3.096-2.616.337 0 .744.048 1.009.144l-.864 3.792zM112.428 69.312l-1.561 1.584h-5.328c.168.888 1.368 1.896 3.216 1.896 1.128 0 2.28-.336 3-.816L111.419 75c-.815.432-2.063.72-3.456.72-3.312 0-5.977-2.304-5.977-5.856 0-3.504 2.544-5.736 5.664-5.736 3.024 0 4.873 2.088 4.873 4.344 0 .263-.047.623-.095.84zm-4.778-2.545c-1.031 0-1.896.792-2.111 1.776h3.672c0-.072.024-.144.024-.24 0-.744-.648-1.536-1.585-1.536z"/></g><g><path class="st0" d="M27.109 99.456h-2.424l-1.464-4.32a46.113 46.113 0 0 1-.648-2.256h-.048a18.47 18.47 0 0 1-.6 2.232l-1.464 4.345h-2.304l-3.792-10.969h3.216l1.344 4.128c.192.624.408 1.392.528 2.088h.047c.12-.672.312-1.464.528-2.088l1.368-4.128h2.664l1.368 4.104c.216.672.36 1.416.504 2.112h.048c.144-.696.336-1.464.552-2.112l1.368-4.104h3l-3.791 10.968zM37.213 99.696c-3.289 0-5.929-2.328-5.929-5.784 0-3.457 2.64-5.785 5.929-5.785 3.264 0 5.928 2.328 5.928 5.785 0 3.456-2.664 5.784-5.928 5.784zm0-8.497c-1.32 0-2.448 1.152-2.448 2.76 0 1.608 1.128 2.76 2.448 2.76 1.296 0 2.448-1.152 2.448-2.76 0-1.608-1.152-2.76-2.448-2.76zM51.637 92.231a2.623 2.623 0 0 0-1.056-.264c-1.128 0-2.16.6-2.16 2.328v5.064h-3.528V88.487h3.48v2.424h.024c.36-1.704 1.632-2.616 3.096-2.616.336 0 .744.048 1.008.144l-.864 3.792zM60.444 99.36l-3.216-4.393h-.024v4.393h-3.48V82.271h3.48v10.633h.024l3.265-4.417h3.84l-3.816 5.281 4.032 5.592h-4.105zM67.524 86.999c-.624 0-1.896-1.272-1.896-1.896s1.272-1.872 1.896-1.872 1.896 1.248 1.896 1.872-1.272 1.896-1.896 1.896zM65.748 99.36V88.487H69.3V99.36h-3.552zM78.468 99.36v-6.672c0-.792-.528-1.488-1.608-1.488-1.056 0-1.729.672-1.729 1.536v6.625h-3.528V88.487h3.24v1.464h.024c.432-1.152 1.561-1.8 3.312-1.8 2.376 0 3.816 1.344 3.816 3.648v7.561h-3.527zM88.812 104.904c-3.168 0-5.28-1.8-5.28-4.08 0-1.656 1.104-2.641 2.232-2.929l-1.393-1.392c.097-.696.696-1.296 1.32-1.56a3.42 3.42 0 0 1-1.584-2.904c0-2.304 1.656-3.912 4.488-3.912a6.06 6.06 0 0 1 1.608.216c.479.12 1.008.192 1.56.192.601 0 1.225-.144 1.704-.36l.648 2.688c-.336.192-.864.36-1.344.336.12.216.264.72.264 1.104 0 1.824-1.44 3.36-3.553 3.504-.432.024-.72.12-.72.408 0 .12.096.264.288.336l1.68.6c2.137.768 3.289 1.848 3.289 3.84.002 2.233-2.039 3.913-5.207 3.913zm.744-5.112l-1.296-.36c-.84.024-1.464.625-1.464 1.417 0 .744.647 1.368 1.92 1.368 1.248 0 1.92-.576 1.92-1.2 0-.505-.384-1.033-1.08-1.225zm-.96-9.097c-.792 0-1.393.6-1.393 1.296 0 .72.601 1.296 1.393 1.296.769 0 1.393-.576 1.393-1.296-.001-.696-.577-1.296-1.393-1.296z"/></g><g><path class="st0" d="M22.405 115.367h-2.832v4.032c0 .936.504 1.32 1.44 1.32.408 0 .648-.024.912-.144l-.312 2.664c-.336.168-.936.288-1.632.288-2.448 0-3.913-1.296-3.913-3.456v-4.705h-1.824v-2.88h1.824v-2.328l3.504-1.272v3.6h3.504l-.671 2.881zM29.509 123.696c-3.289 0-5.929-2.328-5.929-5.784 0-3.457 2.64-5.785 5.929-5.785 3.264 0 5.928 2.328 5.928 5.785 0 3.456-2.664 5.784-5.928 5.784zm0-8.497c-1.32 0-2.448 1.152-2.448 2.76 0 1.608 1.128 2.76 2.448 2.76 1.296 0 2.448-1.152 2.448-2.76 0-1.608-1.152-2.76-2.448-2.76zM41.7 128.904c-3.168 0-5.28-1.8-5.28-4.08 0-1.656 1.104-2.641 2.232-2.929l-1.392-1.392c.096-.696.696-1.296 1.32-1.56a3.42 3.42 0 0 1-1.584-2.904c0-2.304 1.656-3.912 4.488-3.912a6.06 6.06 0 0 1 1.608.216 6.46 6.46 0 0 0 1.561.192c.6 0 1.224-.144 1.704-.36l.648 2.688c-.336.192-.864.36-1.344.336.12.216.264.72.264 1.104 0 1.824-1.44 3.36-3.552 3.504-.432.024-.72.12-.72.408 0 .12.096.264.288.336l1.68.6c2.136.768 3.288 1.848 3.288 3.84 0 2.233-2.04 3.913-5.209 3.913zm.744-5.112l-1.296-.36c-.84.024-1.464.625-1.464 1.417 0 .744.648 1.368 1.92 1.368 1.248 0 1.92-.576 1.92-1.2 0-.505-.383-1.033-1.08-1.225zm-.96-9.097c-.792 0-1.392.6-1.392 1.296 0 .72.6 1.296 1.392 1.296.768 0 1.392-.576 1.392-1.296 0-.696-.576-1.296-1.392-1.296zM58.236 117.312l-1.56 1.584h-5.329c.168.888 1.368 1.896 3.216 1.896 1.128 0 2.28-.336 3-.816L57.228 123c-.816.432-2.064.72-3.456.72-3.312 0-5.977-2.304-5.977-5.856 0-3.504 2.544-5.736 5.665-5.736 3.024 0 4.873 2.088 4.873 4.344 0 .263-.049.623-.097.84zm-4.776-2.545c-1.032 0-1.896.792-2.112 1.776h3.672c0-.072.024-.144.024-.24 0-.744-.648-1.536-1.584-1.536zM67.428 115.367h-2.833v4.032c0 .936.505 1.32 1.44 1.32.408 0 .648-.024.912-.144l-.312 2.664c-.336.168-.937.288-1.633.288-2.448 0-3.912-1.296-3.912-3.456v-4.705h-1.824v-2.88h1.824v-2.328l3.504-1.272v3.6H68.1l-.672 2.881zM76.236 123.36v-6.672c0-.792-.552-1.488-1.632-1.488-1.057 0-1.704.672-1.704 1.536v6.625h-3.528v-17.089h3.48v7.225h.023c.552-.84 1.561-1.344 3.072-1.344 2.4 0 3.816 1.344 3.816 3.648v7.561h-3.527zM91.956 117.312l-1.561 1.584h-5.328c.168.888 1.368 1.896 3.216 1.896 1.128 0 2.28-.336 3-.816L90.947 123c-.815.432-2.063.72-3.456.72-3.312 0-5.977-2.304-5.977-5.856 0-3.504 2.544-5.736 5.664-5.736 3.024 0 4.873 2.088 4.873 4.344.001.263-.047.623-.095.84zm-4.777-2.545c-1.031 0-1.896.792-2.111 1.776h3.672c0-.072.024-.144.024-.24 0-.744-.649-1.536-1.585-1.536zM100.523 116.231a2.624 2.624 0 0 0-1.057-.264c-1.128 0-2.16.6-2.16 2.328v5.064h-3.528v-10.873h3.48v2.424h.024c.36-1.704 1.632-2.616 3.096-2.616.337 0 .744.048 1.009.144l-.864 3.793z"/></g></svg>