<svg id="Layer_1" xmlns="http://www.w3.org/2000/svg" width="160" height="600" viewBox="0 0 160 600"><style>.st0{fill:#f9e038}.st1{enable-background:new}</style><path class="st0" d="M36 486s-11 0-11 11v3.674s0 11 11 11h89.825s11 0 11-11V497s0-11-11-11H36z"/><g class="st1"><path d="M43.229 501.306c-.499-.709-.719-1.597-.719-2.455 0-1.816.908-3.513 2.934-3.513.908 0 1.626.299 2.175 1.048.489.668.739 1.637.739 2.465 0 .778-.209 1.727-.649 2.375-.529.778-1.337 1.157-2.265 1.157s-1.675-.32-2.215-1.077zm1.178-3.883c-.16.409-.22.998-.22 1.428 0 .858.13 2.226 1.257 2.226.549 0 .848-.27 1.028-.779.16-.419.209-.987.209-1.437 0-.499-.05-1.088-.25-1.547-.199-.459-.489-.669-.988-.669-.547 0-.846.28-1.036.778zM50.983 502.283h-1.597v-6.846h2.575c.668 0 1.277 0 1.846.389.579.409.888.998.888 1.707 0 .648-.229 1.308-.738 1.736-.589.489-1.218.479-1.946.479h-1.028v2.535zm.898-3.782c.379 0 .699 0 .978-.299.15-.17.22-.39.22-.609a.91.91 0 0 0-.329-.719c-.25-.189-.579-.189-.878-.189h-.888v1.816h.897zM57.17 496.765v1.387h2.595v1.288H57.17v1.517h3.293v1.327h-4.89v-6.846h4.89v1.327H57.17zM66.63 502.283h-1.367l-2.625-4.601h-.04v4.601h-1.237v-6.846h1.727l2.285 4.021h.02v-4.021h1.237v6.846zM76.579 502.283h-1.726l-.419-1.407h-2.215l-.429 1.407h-1.407l2.195-6.846h1.856l2.145 6.846zm-2.515-2.664l-.729-2.405-.729 2.405h1.458zM84.882 496.795h-1.717v5.488h-1.597v-5.488h-1.736v-1.357h5.049v1.357zM87.336 502.283h-1.597v-6.846h1.597v6.846zM94.342 502.283h-1.727l-.419-1.407H89.98l-.429 1.407h-1.407l2.195-6.846h1.856l2.147 6.846zm-2.515-2.664l-.729-2.405-.729 2.405h1.458zM100.729 502.283h-1.727l-.419-1.407h-2.216l-.429 1.407h-1.407l2.195-6.846h1.856l2.147 6.846zm-2.515-2.664l-.729-2.405-.729 2.405h1.458zM106.097 502.283H104.5v-6.846h1.597v6.846zM109.091 502.283h-1.597v-6.846h2.884c.609 0 1.228.01 1.757.35.559.369.868 1.037.868 1.706 0 .778-.449 1.497-1.188 1.767l1.267 3.023h-1.775l-1.048-2.704h-1.168v2.704zm0-3.882h.878c.329 0 .688.03.979-.14.259-.16.398-.479.398-.778a.857.857 0 0 0-.389-.699c-.27-.169-.729-.129-1.028-.129h-.838v1.746zM119.688 502.283h-1.727l-.419-1.407h-2.216l-.429 1.407h-1.407l2.195-6.846h1.856l2.147 6.846zm-2.514-2.664l-.729-2.405-.729 2.405h1.458z"/></g></svg>