<svg id="Layer_1" xmlns="http://www.w3.org/2000/svg" width="160" height="600" viewBox="0 0 160 600"><style>.st0{fill:none}.st1{fill:#004b87}.st2{fill:#fff}.st3{fill:url(#SVGID_1_)}.st4{fill:url(#SVGID_2_)}.st5{fill:url(#SVGID_3_)}</style><path class="st0" d="M23.667 538.218h112.001v38.098H23.667z"/><path class="st1" d="M79.267 547.573v3.938h-6.983v18.904H67.87v-18.904h-6.983v-3.938h18.38zm1.876 22.842h4.415v-22.842h-4.415v22.842zm27.232 0h-4.542l-2.348-5.621h-7.738l-2.321 5.621h-4.441l9.731-23.148h1.93l9.729 23.148zm21.391 0h-4.542l-2.348-5.621h-7.739l-2.321 5.621h-4.44l9.731-23.148h1.929l9.73 23.148zm-29.795-9.352l-2.334-5.688-2.351 5.688h4.685zm21.391 0l-2.334-5.688-2.351 5.688h4.685z"/><path class="st2" d="M44.9 571.897c1.957 0 3.731-.81 5.007-2.11l5.408-5.407a7.01 7.01 0 0 0 2.031-4.903v-16.842H40.53c-1.957 0-3.731.81-5.008 2.11l-5.407 5.407a7.006 7.006 0 0 0-2.031 4.903v16.842H44.9z"/><linearGradient id="SVGID_1_" gradientUnits="userSpaceOnUse" x1="42.711" y1="557.272" x2="55.863" y2="544.12"><stop offset=".1" stop-color="#9cdcf8"/><stop offset=".9" stop-color="#009edb"/></linearGradient><path class="st3" d="M42.49 544.119a5.54 5.54 0 0 0-5.54 5.516v1.876h11.524v11.519h1.849a5.54 5.54 0 0 0 5.54-5.538v-13.373H42.49z"/><linearGradient id="SVGID_2_" gradientUnits="userSpaceOnUse" x1="29.568" y1="567.035" x2="53.816" y2="567.035"><stop offset="0" stop-color="#14b1e7"/><stop offset=".16" stop-color="#13abe2"/><stop offset=".369" stop-color="#0f9bd3"/><stop offset=".606" stop-color="#0980bc"/><stop offset=".861" stop-color="#015a9b"/><stop offset=".9" stop-color="#005495"/></linearGradient><path class="st4" d="M53.687 563.654a6.976 6.976 0 0 1-3.364.86H35.469l-5.901 5.901H44.9a5.498 5.498 0 0 0 3.95-1.667l4.965-4.965-.128-.129z"/><linearGradient id="SVGID_3_" gradientUnits="userSpaceOnUse" x1="32.948" y1="570.415" x2="32.948" y2="546.167"><stop offset="0" stop-color="#0082be"/><stop offset=".386" stop-color="#0070ae"/><stop offset=".85" stop-color="#005495"/></linearGradient><path class="st5" d="M36.328 546.295a6.976 6.976 0 0 0-.86 3.364v14.855l-5.901 5.901v-15.333c0-1.491.592-2.895 1.666-3.95l4.966-4.965.129.128z"/></svg>